version 1
nodes
0 "Bip01" -1
1 "Bip01 Footsteps" 0
2 "Bip01 Pelvis" 0
3 "Bip01 Spine" 2
4 "Bip01 Spine1" 3
5 "Bip01 Spine2" 4
6 "Bip01 Spine3" 5
7 "Bip01 Neck" 6
8 "Bip01 Head" 7
9 "Dummy05" 8
10 "Dummy14" 8
11 "Dummy15" 10
12 "Bip01 L Clavicle" 7
13 "Bip01 L UpperArm" 12
14 "Bip01 L Forearm" 13
15 "Bip01 L Hand" 14
16 "Bip01 L Finger0" 15
17 "Bip01 L Finger01" 16
18 "Bip01 L Finger02" 17
19 "Dummy02" 18
20 "Bip01 L Finger1" 15
21 "Bip01 L Finger11" 20
22 "Bip01 L Finger12" 21
23 "Dummy07" 22
24 "Bip01 L Finger2" 15
25 "Bip01 L Finger21" 24
26 "Bip01 L Finger22" 25
27 "Dummy09" 26
28 "Bip01 L Finger3" 15
29 "Bip01 L Finger31" 28
30 "Bip01 L Finger32" 29
31 "Dummy11" 30
32 "Bip01 L Finger4" 15
33 "Bip01 L Finger41" 32
34 "Bip01 L Finger42" 33
35 "Dummy13" 34
36 "Bip01 R Clavicle" 7
37 "Bip01 R UpperArm" 36
38 "Bip01 R Forearm" 37
39 "Bip01 R Hand" 38
40 "Bip01 R Finger0" 39
41 "Bip01 R Finger01" 40
42 "Bip01 R Finger02" 41
43 "Dummy01" 42
44 "Bip01 R Finger1" 39
45 "Bip01 R Finger11" 44
46 "Bip01 R Finger12" 45
47 "Dummy06" 46
48 "Bip01 R Finger2" 39
49 "Bip01 R Finger21" 48
50 "Bip01 R Finger22" 49
51 "Dummy08" 50
52 "Bip01 R Finger3" 39
53 "Bip01 R Finger31" 52
54 "Bip01 R Finger32" 53
55 "Dummy10" 54
56 "Bip01 R Finger4" 39
57 "Bip01 R Finger41" 56
58 "Bip01 R Finger42" 57
59 "Dummy12" 58
60 "ValveBiped.Bip01_R_Hand" 39
61 "Bip01 L Thigh" 3
62 "Bip01 L Calf" 61
63 "Bip01 L Foot" 62
64 "Bip01 L Toe0" 63
65 "Bip01 L Toe01" 64
66 "Bip01 L Toe02" 65
67 "Dummy04" 66
68 "Bip01 R Thigh" 3
69 "Bip01 R Calf" 68
70 "Bip01 R Foot" 69
71 "Bip01 R Toe0" 70
72 "Bip01 R Toe01" 71
73 "Bip01 R Toe02" 72
74 "Dummy03" 73
75 "Dummy22" 3
76 "Dummy23" 75
77 "Dummy21" 3
78 "Dummy24" 77
79 "Dummy18" 3
80 "Dummy25" 79
81 "Dummy17" 3
82 "Dummy26" 81
83 "Dummy16" 3
84 "Dummy27" 83
85 "Dummy19" 3
86 "Dummy28" 85
87 "Dummy20" 3
88 "Dummy29" 87
89 "mesh" 2
90 "r_eye" -1
91 "l_eye" -1
end
skeleton
time 0
0  2.407743 3.941138 36.347885  0.011293 -0.079183 -2.408211
1  -2.854517 -0.406259 -35.971992  0.061454 -0.051224 2.406188
2  1.896289 0.000000 0.000004  0.000002 -1.524578 -1.570795
3  4.428674 -0.004185 0.204854  -0.012780 -0.001872 0.175170
4  5.339103 -0.005481 -0.000121  0.022023 -0.094272 0.123597
5  6.941222 -0.005110 0.000128  -0.024303 -0.089286 0.249018
6  6.620850 -0.004576 0.000557  -0.117275 0.033483 0.254601
7  5.979045 -0.001002 0.000003  0.000000 0.000000 0.017453
8  1.252570 0.000003 -0.000003  0.693916 0.167355 -0.567178
9  9.519551 0.000001 -0.000000  -0.000000 -0.000000 0.000000
10  -3.731826 9.544959 0.014181  0.000000 0.000001 -1.675515
11  -3.853207 -3.394486 0.000000  0.000000 0.000000 -0.000000
12  -0.000005 0.000994 2.684129  -0.516091 -0.967796 -2.722682
13  7.524247 -0.000003 -0.000001  -0.751513 0.324895 -1.471738
14  11.423464 -0.000001 -0.000006  0.000000 -0.000000 -1.457256
15  13.479675 -0.000008 0.000001  3.003579 0.517565 0.972269
16  2.050500 0.662485 -1.659290  1.442539 0.513319 1.674747
17  1.066190 0.000000 0.000003  0.000000 -0.000000 0.000000
18  1.466007 0.000004 -0.000003  -0.000000 0.000000 0.000000
19  1.466002 0.000005 0.000000  0.000000 0.000000 0.000000
20  5.193861 -0.001287 -1.622127  0.396874 0.061950 1.426015
21  1.525721 0.000004 -0.000004  0.000000 -0.000000 0.549779
22  1.473173 -0.000002 -0.000003  -0.000000 -0.000000 0.549779
23  1.142351 0.000000 0.000000  0.000000 0.000000 0.000000
24  4.977358 -0.298622 -0.436309  0.137423 0.032763 1.275448
25  2.175560 0.000005 0.000004  -0.000000 0.000000 0.994838
26  1.705901 0.000006 -0.000008  0.000000 -0.000000 0.994838
27  1.386041 0.000002 -0.000003  0.000000 0.000000 -0.000000
28  5.227220 -0.016870 0.516780  -0.201764 -0.056573 1.297356
29  1.850595 0.000005 0.000003  -0.000000 -0.000000 1.099557
30  1.530746 0.000002 -0.000007  -0.000000 -0.000000 1.099557
31  1.302275 -0.000009 -0.000000  -0.000000 0.000000 0.000000
32  5.193861 0.001284 1.622127  -0.396604 -0.063747 1.417966
33  1.485058 0.000001 0.000007  0.000000 -0.000000 1.178097
34  1.294653 0.000003 -0.000001  0.000000 0.000000 1.178097
35  0.951953 0.000004 0.000004  -0.000000 0.000000 0.000000
36  -0.000006 0.001012 -2.684132  0.161922 1.075346 -3.017110
37  7.524247 -0.000001 0.000002  -0.349743 0.098111 -1.001858
38  11.423459 0.000001 0.000001  0.000000 -0.000000 -1.836327
39  13.708144 0.000002 -0.000001  2.584389 0.580274 0.051795
40  1.195829 -0.033341 1.114694  -1.842013 -0.484600 1.657453
41  1.294659 0.000001 0.000001  -0.000000 -0.000000 0.418879
42  2.182005 -0.000000 -0.000000  -0.000000 0.000000 0.575959
43  1.580246 0.000010 -0.000004  -0.000000 -0.000000 -3.141593
44  4.895136 -0.386528 1.693291  -0.189720 -0.335870 0.529522
45  1.507897 0.000002 -0.000001  0.000000 0.000000 0.698132
46  1.370814 0.000000 0.000006  0.000000 0.000000 0.698132
47  1.279427 0.000001 -0.000003  -0.000000 -0.000001 -3.141593
48  5.141357 -0.100724 0.541394  -0.111295 -0.084493 0.929678
49  1.759210 0.000003 -0.000005  0.000000 0.000000 1.143191
50  1.599284 0.000001 -0.000006  -0.000000 -0.000000 0.698132
51  1.492661 0.000000 -0.000003  0.000000 -0.000000 -3.141593
52  5.079526 -0.068058 -0.623686  0.166036 0.060350 0.926097
53  1.688843 -0.000002 -0.000003  -0.000000 -0.000000 0.820305
54  1.507896 -0.000001 -0.000004  -0.000000 -0.000000 1.404990
55  1.279426 0.000002 0.000005  -0.000000 0.000000 -3.141592
56  5.141357 -0.099003 -1.621443  0.349463 0.238655 0.964708
57  1.256582 -0.000005 -0.000004  0.000000 0.000000 0.698132
58  1.142345 -0.000007 0.000001  0.000000 0.000000 0.820305
59  1.066185 -0.000005 -0.000000  -0.000000 -0.000000 -3.141593
60  0.232748 -0.809302 1.175717  -3.117955 0.230511 0.116535
61  -4.350375 0.708900 5.250349  -0.654965 -2.836564 -0.372220
62  17.308264 -0.000004 0.000002  -0.000000 0.000000 -0.704081
63  15.463843 0.000002 0.000001  0.004821 -0.045770 0.166172
64  6.097305 3.126218 0.000001  0.000000 -0.000000 1.570796
65  1.999105 0.000000 -0.000002  -0.000000 -0.000000 0.000000
66  1.999101 0.000000 0.000000  0.000000 -0.000000 0.000000
67  3.118604 0.000000 -0.000000  0.000000 -0.000000 -3.141592
68  -4.370718 0.847859 -5.623867  -0.264315 3.022637 -0.453310
69  17.308260 -0.000001 -0.000001  -0.000000 -0.000000 -0.844485
70  15.463847 0.000004 -0.000001  -0.065076 0.163902 0.409765
71  6.097304 3.126216 0.000001  -0.000000 0.000000 1.570796
72  1.999103 0.000000 0.000001  0.000000 -0.000000 0.000000
73  1.999103 0.000000 0.000001  0.000000 -0.000000 0.000000
74  3.118603 -0.000000 0.000002  0.000000 -0.000000 -0.000000
75  5.028740 -7.322621 0.014163  -0.000000 0.000001 -1.536686
76  4.835412 -2.118455 0.237899  -1.640610 -1.570796 0.000000
77  4.348878 -2.776597 -10.995122  -0.332242 -1.939523 -1.299003
78  -3.671422 -1.336565 -0.171207  -1.524006 0.347681 0.125368
79  5.768704 3.982530 -9.173451  -0.018554 -2.653223 -1.706597
80  0.067518 -2.350636 3.344429  -1.431170 1.082104 0.034906
81  4.998846 8.565454 -5.001399  -0.235032 -1.930170 -1.495696
82  -0.243933 -1.549039 2.646215  -1.431170 0.349066 0.087266
83  3.580545 8.020453 5.032155  -0.090667 -1.202692 -1.648990
84  -0.088495 -0.306862 4.016221  -1.431171 -0.366519 -0.034906
85  5.006859 3.913797 9.043609  0.122176 -1.972221 -1.746128
86  3.070846 -1.522959 0.101601  -1.563775 0.398264 -0.051684
87  5.597606 -2.928178 10.743616  -0.135242 -1.220387 -1.490864
88  2.930163 -2.309753 0.129155  -1.542557 -0.347073 -0.049239
89  -39.882629 3.733585 0.061545  0.000001 -0.000003 -1.570796
90  -1.679542 -10.540690 68.933853  1.570796 -0.000000 0.000000
91  1.756552 -10.544404 68.891121  1.570796 -0.000000 0.000000
time 1
0  2.407743 3.941138 36.347885  0.011293 -0.079183 -2.408211
1  -2.854517 -0.406259 -35.971992  0.061454 -0.051224 2.406188
2  1.896289 0.000000 0.000004  0.000002 -1.524578 -1.570795
3  4.428674 -0.004185 0.204854  -0.012780 -0.001872 0.175170
4  5.339103 -0.005481 -0.000121  0.022023 -0.094272 0.123597
5  6.941222 -0.005110 0.000128  -0.024303 -0.089286 0.249018
6  6.620850 -0.004576 0.000557  -0.117275 0.033483 0.254601
7  5.979045 -0.001002 0.000003  0.000000 0.000000 0.017453
8  1.252570 0.000003 -0.000003  0.693916 0.167355 -0.567178
9  9.519551 0.000001 -0.000000  -0.000000 -0.000000 0.000000
10  -3.731826 9.544959 0.014181  0.000000 0.000001 -1.675515
11  -3.853207 -3.394486 0.000000  0.000000 0.000000 -0.000000
12  -0.000005 0.000994 2.684129  -0.516091 -0.967796 -2.722682
13  7.524247 -0.000003 -0.000001  -0.751513 0.324895 -1.471738
14  11.423464 -0.000001 -0.000006  0.000000 -0.000000 -1.457256
15  13.479675 -0.000008 0.000001  3.003579 0.517565 0.972269
16  2.050500 0.662485 -1.659290  1.442539 0.513319 1.674747
17  1.066190 0.000000 0.000003  0.000000 -0.000000 0.000000
18  1.466007 0.000004 -0.000003  -0.000000 0.000000 0.000000
19  1.466002 0.000005 0.000000  0.000000 0.000000 0.000000
20  5.193861 -0.001287 -1.622127  0.396874 0.061950 1.426015
21  1.525721 0.000004 -0.000004  0.000000 -0.000000 0.549779
22  1.473173 -0.000002 -0.000003  -0.000000 -0.000000 0.549779
23  1.142351 0.000000 0.000000  0.000000 0.000000 0.000000
24  4.977358 -0.298622 -0.436309  0.137423 0.032763 1.275448
25  2.175560 0.000005 0.000004  -0.000000 0.000000 0.994838
26  1.705901 0.000006 -0.000008  0.000000 -0.000000 0.994838
27  1.386041 0.000002 -0.000003  0.000000 0.000000 -0.000000
28  5.227220 -0.016870 0.516780  -0.201764 -0.056573 1.297356
29  1.850595 0.000005 0.000003  -0.000000 -0.000000 1.099557
30  1.530746 0.000002 -0.000007  -0.000000 -0.000000 1.099557
31  1.302275 -0.000009 -0.000000  -0.000000 0.000000 0.000000
32  5.193861 0.001284 1.622127  -0.396604 -0.063747 1.417966
33  1.485058 0.000001 0.000007  0.000000 -0.000000 1.178097
34  1.294653 0.000003 -0.000001  0.000000 0.000000 1.178097
35  0.951953 0.000004 0.000004  -0.000000 0.000000 0.000000
36  -0.000006 0.001012 -2.684132  0.161922 1.075346 -3.017110
37  7.524247 -0.000001 0.000002  -0.349743 0.098111 -1.001858
38  11.423459 0.000001 0.000001  0.000000 -0.000000 -1.836327
39  13.708144 0.000002 -0.000001  2.584389 0.580274 0.051795
40  1.195829 -0.033341 1.114694  -1.842013 -0.484600 1.657453
41  1.294659 0.000001 0.000001  -0.000000 -0.000000 0.418879
42  2.182005 -0.000000 -0.000000  -0.000000 0.000000 0.575959
43  1.580246 0.000010 -0.000004  -0.000000 -0.000000 -3.141593
44  4.895136 -0.386528 1.693291  -0.189720 -0.335870 0.529522
45  1.507897 0.000002 -0.000001  0.000000 0.000000 0.698132
46  1.370814 0.000000 0.000006  0.000000 0.000000 0.698132
47  1.279427 0.000001 -0.000003  -0.000000 -0.000001 -3.141593
48  5.141357 -0.100724 0.541394  -0.111295 -0.084493 0.929678
49  1.759210 0.000003 -0.000005  0.000000 0.000000 1.143191
50  1.599284 0.000001 -0.000006  -0.000000 -0.000000 0.698132
51  1.492661 0.000000 -0.000003  0.000000 -0.000000 -3.141593
52  5.079526 -0.068058 -0.623686  0.166036 0.060350 0.926097
53  1.688843 -0.000002 -0.000003  -0.000000 -0.000000 0.820305
54  1.507896 -0.000001 -0.000004  -0.000000 -0.000000 1.404990
55  1.279426 0.000002 0.000005  -0.000000 0.000000 -3.141592
56  5.141357 -0.099003 -1.621443  0.349463 0.238655 0.964708
57  1.256582 -0.000005 -0.000004  0.000000 0.000000 0.698132
58  1.142345 -0.000007 0.000001  0.000000 0.000000 0.820305
59  1.066185 -0.000005 -0.000000  -0.000000 -0.000000 -3.141593
60  0.232748 -0.809302 1.175717  -3.117955 0.230511 0.116535
61  -4.350375 0.708900 5.250349  -0.654965 -2.836564 -0.372220
62  17.308264 -0.000004 0.000002  -0.000000 0.000000 -0.704081
63  15.463843 0.000002 0.000001  0.004821 -0.045770 0.166172
64  6.097305 3.126218 0.000001  0.000000 -0.000000 1.570796
65  1.999105 0.000000 -0.000002  -0.000000 -0.000000 0.000000
66  1.999101 0.000000 0.000000  0.000000 -0.000000 0.000000
67  3.118604 0.000000 -0.000000  0.000000 -0.000000 -3.141592
68  -4.370718 0.847859 -5.623867  -0.264315 3.022637 -0.453310
69  17.308260 -0.000001 -0.000001  -0.000000 -0.000000 -0.844485
70  15.463847 0.000004 -0.000001  -0.065076 0.163902 0.409765
71  6.097304 3.126216 0.000001  -0.000000 0.000000 1.570796
72  1.999103 0.000000 0.000001  0.000000 -0.000000 0.000000
73  1.999103 0.000000 0.000001  0.000000 -0.000000 0.000000
74  3.118603 -0.000000 0.000002  0.000000 -0.000000 -0.000000
75  5.028740 -7.322621 0.014163  -0.000000 0.000001 -1.536686
76  4.835412 -2.118455 0.237899  -1.640610 -1.570796 0.000000
77  4.348878 -2.776597 -10.995122  -0.332242 -1.939523 -1.299003
78  -3.671422 -1.336565 -0.171207  -1.524006 0.347681 0.125368
79  5.768704 3.982530 -9.173451  -0.018554 -2.653223 -1.706597
80  0.067518 -2.350636 3.344429  -1.431170 1.082104 0.034906
81  4.998846 8.565454 -5.001399  -0.235032 -1.930170 -1.495696
82  -0.243933 -1.549039 2.646215  -1.431170 0.349066 0.087266
83  3.580545 8.020453 5.032155  -0.090667 -1.202692 -1.648990
84  -0.088495 -0.306862 4.016221  -1.431171 -0.366519 -0.034906
85  5.006859 3.913797 9.043609  0.122176 -1.972221 -1.746128
86  3.070846 -1.522959 0.101601  -1.563775 0.398264 -0.051684
87  5.597606 -2.928178 10.743616  -0.135242 -1.220387 -1.490864
88  2.930163 -2.309753 0.129155  -1.542557 -0.347073 -0.049239
89  -39.882629 3.733585 0.061545  0.000001 -0.000003 -1.570796
90  -1.679542 -10.540690 68.933853  1.570796 -0.000000 0.000000
91  1.756552 -10.544404 68.891121  1.570796 -0.000000 0.000000
end
