version 1
nodes
0 "Bip01" -1
1 "Bip01 Footsteps" 0
2 "Bip01 Pelvis" 0
3 "Bip01 Spine" 2
4 "Bip01 Spine1" 3
5 "Bip01 Spine2" 4
6 "Bip01 Spine3" 5
7 "Bip01 Neck" 6
8 "Bip01 Head" 7
9 "Dummy05" 8
10 "Dummy14" 8
11 "Dummy15" 10
12 "Bip01 L Clavicle" 7
13 "Bip01 L UpperArm" 12
14 "Bip01 L Forearm" 13
15 "Bip01 L Hand" 14
16 "Bip01 L Finger0" 15
17 "Bip01 L Finger01" 16
18 "Bip01 L Finger02" 17
19 "Dummy02" 18
20 "Bip01 L Finger1" 15
21 "Bip01 L Finger11" 20
22 "Bip01 L Finger12" 21
23 "Dummy07" 22
24 "Bip01 L Finger2" 15
25 "Bip01 L Finger21" 24
26 "Bip01 L Finger22" 25
27 "Dummy09" 26
28 "Bip01 L Finger3" 15
29 "Bip01 L Finger31" 28
30 "Bip01 L Finger32" 29
31 "Dummy11" 30
32 "Bip01 L Finger4" 15
33 "Bip01 L Finger41" 32
34 "Bip01 L Finger42" 33
35 "Dummy13" 34
36 "Bip01 R Clavicle" 7
37 "Bip01 R UpperArm" 36
38 "Bip01 R Forearm" 37
39 "Bip01 R Hand" 38
40 "Bip01 R Finger0" 39
41 "Bip01 R Finger01" 40
42 "Bip01 R Finger02" 41
43 "Dummy01" 42
44 "Bip01 R Finger1" 39
45 "Bip01 R Finger11" 44
46 "Bip01 R Finger12" 45
47 "Dummy06" 46
48 "Bip01 R Finger2" 39
49 "Bip01 R Finger21" 48
50 "Bip01 R Finger22" 49
51 "Dummy08" 50
52 "Bip01 R Finger3" 39
53 "Bip01 R Finger31" 52
54 "Bip01 R Finger32" 53
55 "Dummy10" 54
56 "Bip01 R Finger4" 39
57 "Bip01 R Finger41" 56
58 "Bip01 R Finger42" 57
59 "Dummy12" 58
60 "ValveBiped.Bip01_R_Hand" 39
61 "Bip01 L Thigh" 3
62 "Bip01 L Calf" 61
63 "Bip01 L Foot" 62
64 "Bip01 L Toe0" 63
65 "Bip01 L Toe01" 64
66 "Bip01 L Toe02" 65
67 "Dummy04" 66
68 "Bip01 R Thigh" 3
69 "Bip01 R Calf" 68
70 "Bip01 R Foot" 69
71 "Bip01 R Toe0" 70
72 "Bip01 R Toe01" 71
73 "Bip01 R Toe02" 72
74 "Dummy03" 73
75 "Dummy22" 3
76 "Dummy23" 75
77 "Dummy21" 3
78 "Dummy24" 77
79 "Dummy18" 3
80 "Dummy25" 79
81 "Dummy17" 3
82 "Dummy26" 81
83 "Dummy16" 3
84 "Dummy27" 83
85 "Dummy19" 3
86 "Dummy28" 85
87 "Dummy20" 3
88 "Dummy29" 87
89 "mesh" 2
90 "r_eye" -1
91 "l_eye" -1
end
skeleton
time 0
0  0.580629 4.618983 38.069439  0.044883 0.364475 -1.496964
1  10.914255 -1.283547 -28.578403  -0.366662 0.018479 1.501811
2  -1.383244 -0.437728 -0.000005  -0.000004 -1.621010 -1.570795
3  4.428066 -0.004135 -0.222593  0.024766 0.011436 0.234323
4  5.338695 -0.005518 -0.000074  0.013386 -0.021365 0.052823
5  6.940482 -0.005239 -0.000069  0.013093 0.032449 0.105921
6  6.620131 -0.004733 -0.000062  0.013149 0.018820 0.105737
7  5.979042 -0.000993 -0.000000  -0.000000 0.000000 0.017453
8  1.252569 0.000005 0.000000  0.010370 -0.007762 -0.526518
9  9.519534 0.000000 -0.000000  -0.000000 0.000000 -0.000000
10  -3.731838 9.544961 0.014183  0.000000 0.000001 -1.675516
11  -3.853209 -3.394491 -0.000001  -0.000000 0.000000 -0.000000
12  -0.000003 0.000994 2.684131  0.401102 -1.354068 2.730671
13  7.524244 0.000016 0.000007  -0.065374 0.793704 -0.557240
14  11.423450 0.000000 -0.000003  -0.741668 -0.134683 -1.902166
15  13.479675 -0.000001 0.000003  -2.569251 -0.522355 -0.246222
16  2.050500 0.662479 -1.659297  0.455451 1.002455 0.792674
17  1.066190 -0.000003 0.000000  0.000007 0.000009 -0.087276
18  1.466015 0.000002 0.000001  -0.000005 -0.000006 -0.052357
19  1.466013 -0.000002 0.000004  -0.000000 -0.000000 -0.000000
20  5.157983 -0.061086 -1.624112  -0.040669 -0.039202 0.790150
21  1.525720 0.000004 0.000001  0.000000 -0.000005 1.083902
22  1.473168 0.000000 -0.000000  -0.000002 -0.000007 0.322566
23  1.142345 0.000001 -0.000000  0.000000 0.000000 -0.000000
24  5.211224 -0.358883 -0.433622  0.004630 0.019657 1.063829
25  2.175561 0.000004 0.000002  -0.000002 -0.000008 0.846721
26  1.705905 0.000003 -0.000000  -0.000004 -0.000005 0.308793
27  1.386045 -0.000006 0.000000  -0.000000 -0.000000 -0.000000
28  5.160709 0.054208 0.508827  -0.091277 -0.033412 0.980541
29  1.850600 -0.000004 -0.000001  -0.000001 -0.000006 1.031857
30  1.530744 -0.000002 -0.000000  -0.000003 -0.000004 0.130350
31  1.302281 0.000004 -0.000007  0.000000 0.000000 -0.000000
32  5.153028 0.165371 1.606517  -0.130522 -0.004226 1.003283
33  1.485051 -0.000004 0.000001  -0.000001 -0.000005 0.862122
34  1.294663 -0.000001 0.000003  -0.000002 -0.000002 0.461831
35  0.951947 0.000003 0.000001  -0.000000 -0.000000 -0.000000
36  0.000005 0.001007 -2.684131  -0.401138 1.354066 2.730648
37  7.524253 -0.000003 0.000005  0.216212 -0.385869 -0.686661
38  11.423448 0.000001 0.000000  0.000001 -0.000001 -1.665326
39  13.708146 -0.000000 0.000002  2.362563 -0.499145 -0.566107
40  1.195834 -0.033345 1.114684  -1.741772 -0.566403 0.540489
41  1.294658 0.000004 0.000003  0.000000 0.000002 0.554541
42  2.182009 0.000003 -0.000001  0.000001 0.000006 1.148019
43  1.580245 -0.000001 0.000001  0.000000 -0.000000 -3.141592
44  4.895141 -0.386528 1.693272  -0.108686 -0.041733 0.617580
45  1.507900 -0.000000 -0.000004  0.000000 -0.000004 1.064113
46  1.370809 0.000002 0.000002  -0.000005 -0.000002 1.602318
47  1.279429 0.000001 -0.000007  0.000000 -0.000000 -3.141592
48  5.141362 -0.100725 0.541379  0.254450 0.010731 1.481588
49  1.759209 0.000002 0.000004  -0.000003 -0.000005 1.335495
50  1.599283 0.000002 -0.000008  -0.000005 0.000001 0.779162
51  1.492666 -0.000004 0.000001  0.000000 -0.000000 -3.141592
52  5.079525 -0.068060 -0.623696  0.241385 -0.031670 1.476837
53  1.688849 -0.000001 0.000003  -0.000005 -0.000005 1.592480
54  1.507896 0.000001 -0.000003  -0.000002 0.000001 0.363332
55  1.279428 0.000001 -0.000002  0.000000 -0.000000 -3.141592
56  5.141357 -0.098999 -1.621448  0.148842 -0.103900 1.741613
57  1.256579 0.000003 0.000002  -0.000001 -0.000005 0.992043
58  1.142344 -0.000003 -0.000003  -0.000002 0.000001 0.504892
59  1.066191 0.000004 -0.000008  -0.000000 -0.000000 -3.141593
60  0.232748 -0.809304 1.175715  -3.117954 0.230511 0.116535
61  -4.370547 1.170777 5.583261  0.004290 3.124509 -0.723771
62  17.308268 -0.000002 0.000001  -0.000000 -0.000000 -1.481534
63  15.463850 -0.000003 -0.000000  -0.025752 0.070339 1.082652
64  6.097308 3.126219 0.000001  0.000000 -0.000000 1.570796
65  1.999104 -0.000000 0.000001  -0.000000 -0.000000 0.013909
66  1.999105 0.000001 0.000000  0.000000 0.000000 0.013909
67  3.118601 0.000001 0.000000  0.000000 0.000000 -3.141592
68  -4.246179 0.901474 -5.287819  0.020708 -3.092106 -0.565261
69  17.308264 -0.000001 0.000000  0.000000 0.000000 -0.001922
70  15.463849 -0.000001 -0.000001  0.065281 -0.067760 0.053036
71  6.097307 3.126217 -0.000000  -0.000000 0.000000 1.570796
72  1.999105 0.000000 -0.000000  -0.000000 0.000000 0.000000
73  1.999104 -0.000000 -0.000001  -0.000000 0.000000 0.000000
74  3.118603 -0.000000 -0.000001  -0.000000 0.000000 0.000000
75  5.028734 -7.322622 0.014163  0.000000 0.000001 -1.536686
76  4.835414 -2.118443 0.237900  -1.640610 -1.570796 0.000000
77  4.348887 -2.776598 -10.995126  -0.332242 -1.939523 -1.299004
78  -3.671421 -1.336576 -0.171206  -1.524006 0.347681 0.125368
79  5.768709 3.982527 -9.173452  -0.018554 -2.653223 -1.706597
80  0.067521 -2.350644 3.344428  -1.431171 1.082104 0.034906
81  4.998849 8.565451 -5.001399  -0.235031 -1.930170 -1.495696
82  -0.243933 -1.549029 2.646219  -1.431170 0.349066 0.087266
83  3.580548 8.020455 5.032156  -0.090669 -1.202692 -1.648988
84  -0.088493 -0.306861 4.016222  -1.431170 -0.366519 -0.034906
85  5.006866 3.913794 9.043612  0.122175 -1.972221 -1.746127
86  3.070843 -1.522962 0.101600  -1.563776 0.398264 -0.051684
87  5.597605 -2.928179 10.743622  -0.135244 -1.220387 -1.490862
88  2.930164 -2.309732 0.129153  -1.542557 -0.347073 -0.049239
89  -39.882626 3.733588 0.061546  0.000001 -0.000003 -1.570796
90  -1.679542 -10.540690 68.933853  1.570796 -0.000000 0.000000
91  1.756552 -10.544404 68.891121  1.570796 -0.000000 0.000000
time 1
0  0.580629 4.618983 38.069439  0.044883 0.364475 -1.496964
1  10.914255 -1.283547 -28.578403  -0.366662 0.018479 1.501811
2  -1.383244 -0.437728 -0.000005  -0.000004 -1.621010 -1.570795
3  4.428066 -0.004135 -0.222593  0.024766 0.011436 0.234323
4  5.338695 -0.005518 -0.000074  0.013386 -0.021365 0.052823
5  6.940482 -0.005239 -0.000069  0.013093 0.032449 0.105921
6  6.620131 -0.004733 -0.000062  0.013149 0.018820 0.105737
7  5.979042 -0.000993 -0.000000  -0.000000 0.000000 0.017453
8  1.252569 0.000005 0.000000  0.010370 -0.007762 -0.526518
9  9.519534 0.000000 -0.000000  -0.000000 0.000000 -0.000000
10  -3.731838 9.544961 0.014183  0.000000 0.000001 -1.675516
11  -3.853209 -3.394491 -0.000001  -0.000000 0.000000 -0.000000
12  -0.000003 0.000994 2.684131  0.401102 -1.354068 2.730671
13  7.524244 0.000016 0.000007  -0.065374 0.793704 -0.557240
14  11.423450 0.000000 -0.000003  -0.741668 -0.134683 -1.902166
15  13.479675 -0.000001 0.000003  -2.569251 -0.522355 -0.246222
16  2.050500 0.662479 -1.659297  0.455451 1.002455 0.792674
17  1.066190 -0.000003 0.000000  0.000007 0.000009 -0.087276
18  1.466015 0.000002 0.000001  -0.000005 -0.000006 -0.052357
19  1.466013 -0.000002 0.000004  -0.000000 -0.000000 -0.000000
20  5.157983 -0.061086 -1.624112  -0.040669 -0.039202 0.790150
21  1.525720 0.000004 0.000001  0.000000 -0.000005 1.083902
22  1.473168 0.000000 -0.000000  -0.000002 -0.000007 0.322566
23  1.142345 0.000001 -0.000000  0.000000 0.000000 -0.000000
24  5.211224 -0.358883 -0.433622  0.004630 0.019657 1.063829
25  2.175561 0.000004 0.000002  -0.000002 -0.000008 0.846721
26  1.705905 0.000003 -0.000000  -0.000004 -0.000005 0.308793
27  1.386045 -0.000006 0.000000  -0.000000 -0.000000 -0.000000
28  5.160709 0.054208 0.508827  -0.091277 -0.033412 0.980541
29  1.850600 -0.000004 -0.000001  -0.000001 -0.000006 1.031857
30  1.530744 -0.000002 -0.000000  -0.000003 -0.000004 0.130350
31  1.302281 0.000004 -0.000007  0.000000 0.000000 -0.000000
32  5.153028 0.165371 1.606517  -0.130522 -0.004226 1.003283
33  1.485051 -0.000004 0.000001  -0.000001 -0.000005 0.862122
34  1.294663 -0.000001 0.000003  -0.000002 -0.000002 0.461831
35  0.951947 0.000003 0.000001  -0.000000 -0.000000 -0.000000
36  0.000005 0.001007 -2.684131  -0.401138 1.354066 2.730648
37  7.524253 -0.000003 0.000005  0.216212 -0.385869 -0.686661
38  11.423448 0.000001 0.000000  0.000001 -0.000001 -1.665326
39  13.708146 -0.000000 0.000002  2.362563 -0.499145 -0.566107
40  1.195834 -0.033345 1.114684  -1.741772 -0.566403 0.540489
41  1.294658 0.000004 0.000003  0.000000 0.000002 0.554541
42  2.182009 0.000003 -0.000001  0.000001 0.000006 1.148019
43  1.580245 -0.000001 0.000001  0.000000 -0.000000 -3.141592
44  4.895141 -0.386528 1.693272  -0.108686 -0.041733 0.617580
45  1.507900 -0.000000 -0.000004  0.000000 -0.000004 1.064113
46  1.370809 0.000002 0.000002  -0.000005 -0.000002 1.602318
47  1.279429 0.000001 -0.000007  0.000000 -0.000000 -3.141592
48  5.141362 -0.100725 0.541379  0.254450 0.010731 1.481588
49  1.759209 0.000002 0.000004  -0.000003 -0.000005 1.335495
50  1.599283 0.000002 -0.000008  -0.000005 0.000001 0.779162
51  1.492666 -0.000004 0.000001  0.000000 -0.000000 -3.141592
52  5.079525 -0.068060 -0.623696  0.241385 -0.031670 1.476837
53  1.688849 -0.000001 0.000003  -0.000005 -0.000005 1.592480
54  1.507896 0.000001 -0.000003  -0.000002 0.000001 0.363332
55  1.279428 0.000001 -0.000002  0.000000 -0.000000 -3.141592
56  5.141357 -0.098999 -1.621448  0.148842 -0.103900 1.741613
57  1.256579 0.000003 0.000002  -0.000001 -0.000005 0.992043
58  1.142344 -0.000003 -0.000003  -0.000002 0.000001 0.504892
59  1.066191 0.000004 -0.000008  -0.000000 -0.000000 -3.141593
60  0.232748 -0.809304 1.175715  -3.117954 0.230511 0.116535
61  -4.370547 1.170777 5.583261  0.004290 3.124509 -0.723771
62  17.308268 -0.000002 0.000001  -0.000000 -0.000000 -1.481534
63  15.463850 -0.000003 -0.000000  -0.025752 0.070339 1.082652
64  6.097308 3.126219 0.000001  0.000000 -0.000000 1.570796
65  1.999104 -0.000000 0.000001  -0.000000 -0.000000 0.013909
66  1.999105 0.000001 0.000000  0.000000 0.000000 0.013909
67  3.118601 0.000001 0.000000  0.000000 0.000000 -3.141592
68  -4.246179 0.901474 -5.287819  0.020708 -3.092106 -0.565261
69  17.308264 -0.000001 0.000000  0.000000 0.000000 -0.001922
70  15.463849 -0.000001 -0.000001  0.065281 -0.067760 0.053036
71  6.097307 3.126217 -0.000000  -0.000000 0.000000 1.570796
72  1.999105 0.000000 -0.000000  -0.000000 0.000000 0.000000
73  1.999104 -0.000000 -0.000001  -0.000000 0.000000 0.000000
74  3.118603 -0.000000 -0.000001  -0.000000 0.000000 0.000000
75  5.028734 -7.322622 0.014163  0.000000 0.000001 -1.536686
76  4.835414 -2.118443 0.237900  -1.640610 -1.570796 0.000000
77  4.348887 -2.776598 -10.995126  -0.332242 -1.939523 -1.299004
78  -3.671421 -1.336576 -0.171206  -1.524006 0.347681 0.125368
79  5.768709 3.982527 -9.173452  -0.018554 -2.653223 -1.706597
80  0.067521 -2.350644 3.344428  -1.431171 1.082104 0.034906
81  4.998849 8.565451 -5.001399  -0.235031 -1.930170 -1.495696
82  -0.243933 -1.549029 2.646219  -1.431170 0.349066 0.087266
83  3.580548 8.020455 5.032156  -0.090669 -1.202692 -1.648988
84  -0.088493 -0.306861 4.016222  -1.431170 -0.366519 -0.034906
85  5.006866 3.913794 9.043612  0.122175 -1.972221 -1.746127
86  3.070843 -1.522962 0.101600  -1.563776 0.398264 -0.051684
87  5.597605 -2.928179 10.743622  -0.135244 -1.220387 -1.490862
88  2.930164 -2.309732 0.129153  -1.542557 -0.347073 -0.049239
89  -39.882626 3.733588 0.061546  0.000001 -0.000003 -1.570796
90  -1.679542 -10.540690 68.933853  1.570796 -0.000000 0.000000
91  1.756552 -10.544404 68.891121  1.570796 -0.000000 0.000000
end
