version 1
nodes
0 "Bip01" -1
1 "Bip01 Footsteps" 0
2 "Bip01 Pelvis" 0
3 "Bip01 Spine" 2
4 "Bip01 Spine1" 3
5 "Bip01 Spine2" 4
6 "Bip01 Spine3" 5
7 "Bip01 Neck" 6
8 "Bip01 Head" 7
9 "Dummy05" 8
10 "Dummy14" 8
11 "Dummy15" 10
12 "Bip01 L Clavicle" 7
13 "Bip01 L UpperArm" 12
14 "Bip01 L Forearm" 13
15 "Bip01 L Hand" 14
16 "Bip01 L Finger0" 15
17 "Bip01 L Finger01" 16
18 "Bip01 L Finger02" 17
19 "Dummy02" 18
20 "Bip01 L Finger1" 15
21 "Bip01 L Finger11" 20
22 "Bip01 L Finger12" 21
23 "Dummy07" 22
24 "Bip01 L Finger2" 15
25 "Bip01 L Finger21" 24
26 "Bip01 L Finger22" 25
27 "Dummy09" 26
28 "Bip01 L Finger3" 15
29 "Bip01 L Finger31" 28
30 "Bip01 L Finger32" 29
31 "Dummy11" 30
32 "Bip01 L Finger4" 15
33 "Bip01 L Finger41" 32
34 "Bip01 L Finger42" 33
35 "Dummy13" 34
36 "Bip01 R Clavicle" 7
37 "Bip01 R UpperArm" 36
38 "Bip01 R Forearm" 37
39 "Bip01 R Hand" 38
40 "Bip01 R Finger0" 39
41 "Bip01 R Finger01" 40
42 "Bip01 R Finger02" 41
43 "Dummy01" 42
44 "Bip01 R Finger1" 39
45 "Bip01 R Finger11" 44
46 "Bip01 R Finger12" 45
47 "Dummy06" 46
48 "Bip01 R Finger2" 39
49 "Bip01 R Finger21" 48
50 "Bip01 R Finger22" 49
51 "Dummy08" 50
52 "Bip01 R Finger3" 39
53 "Bip01 R Finger31" 52
54 "Bip01 R Finger32" 53
55 "Dummy10" 54
56 "Bip01 R Finger4" 39
57 "Bip01 R Finger41" 56
58 "Bip01 R Finger42" 57
59 "Dummy12" 58
60 "ValveBiped.Bip01_R_Hand" 39
61 "Bip01 L Thigh" 3
62 "Bip01 L Calf" 61
63 "Bip01 L Foot" 62
64 "Bip01 L Toe0" 63
65 "Bip01 L Toe01" 64
66 "Bip01 L Toe02" 65
67 "Dummy04" 66
68 "Bip01 R Thigh" 3
69 "Bip01 R Calf" 68
70 "Bip01 R Foot" 69
71 "Bip01 R Toe0" 70
72 "Bip01 R Toe01" 71
73 "Bip01 R Toe02" 72
74 "Dummy03" 73
75 "Dummy22" 3
76 "Dummy23" 75
77 "Dummy21" 3
78 "Dummy24" 77
79 "Dummy18" 3
80 "Dummy25" 79
81 "Dummy17" 3
82 "Dummy26" 81
83 "Dummy16" 3
84 "Dummy27" 83
85 "Dummy19" 3
86 "Dummy28" 85
87 "Dummy20" 3
88 "Dummy29" 87
89 "mesh" 2
90 "r_eye" -1
91 "l_eye" -1
end
skeleton
time 0
0  2.407743 3.941138 36.347885  0.011293 -0.079183 -2.408211
1  -2.872677 -0.408844 -36.200844  0.061454 -0.051224 2.406188
2  1.896289 -0.000000 0.000004  0.000002 -1.524578 -1.570795
3  4.428674 -0.004185 0.204854  -0.012780 -0.001872 0.175170
4  5.339099 -0.005482 -0.000122  0.022023 -0.094272 0.123597
5  6.941229 -0.005112 0.000127  -0.024303 -0.089286 0.249018
6  6.620846 -0.004574 0.000557  -0.117276 0.033484 0.254601
7  5.979039 -0.000999 0.000000  -0.000000 0.000000 0.017453
8  1.252575 -0.000003 -0.000000  0.693916 0.167355 -0.567178
9  9.519547 -0.000000 -0.000000  0.000000 -0.000000 -0.000000
10  -3.731840 9.544958 0.014183  0.000000 0.000001 -1.675515
11  -3.853208 -3.394502 0.000002  0.000000 0.000000 0.000000
12  -0.000002 0.000990 2.684129  -0.516087 -0.967796 -2.722681
13  7.524250 -0.000004 -0.000004  -0.441187 0.381477 -0.924930
14  11.423454 0.000002 -0.000010  -0.484269 0.186337 -1.133900
15  13.479673 -0.000004 -0.000001  2.619567 0.458822 -0.187684
16  2.050497 0.662487 -1.659294  1.312145 0.964866 1.239977
17  1.066187 0.000006 0.000008  0.000000 -0.000000 0.000000
18  1.466010 -0.000001 -0.000002  0.000000 0.000000 0.000000
19  1.466014 -0.000005 -0.000001  -0.000000 0.000000 -0.000000
20  5.147581 -0.050708 -1.624359  -0.042133 -0.024927 1.020557
21  1.525712 -0.000002 0.000006  -0.000001 0.000001 0.792186
22  1.473169 -0.000001 0.000000  -0.000000 -0.000000 0.000000
23  1.142349 0.000001 0.000004  0.000000 -0.000000 -0.000000
24  5.223879 -0.372917 -0.419821  -0.038043 0.044250 1.210287
25  2.175556 0.000000 0.000002  -0.000001 0.000001 0.785724
26  1.705906 0.000002 0.000005  0.000000 0.000000 0.000000
27  1.386038 -0.000002 -0.000001  0.000000 -0.000000 -0.000000
28  5.128994 0.094709 0.495809  -0.203641 -0.049287 1.332844
29  1.850597 0.000001 -0.000005  -0.000000 0.000001 0.554490
30  1.530741 -0.000005 0.000002  0.000000 0.000000 0.174533
31  1.302267 0.000001 0.000003  0.000000 -0.000000 0.000000
32  5.110466 0.347385 1.566683  -0.271642 0.039114 1.360352
33  1.485053 0.000001 -0.000005  0.000000 0.000000 0.349066
34  1.294651 -0.000002 -0.000000  -0.000000 0.000000 0.349066
35  0.951955 -0.000002 0.000000  0.000000 0.000000 0.000000
36  -0.000005 0.001003 -2.684131  0.161923 1.075347 -3.017109
37  7.524254 -0.000005 0.000002  -0.354922 0.126052 -0.900109
38  11.423449 0.000004 -0.000002  -0.000000 -0.000000 -2.109543
39  13.708145 0.000000 -0.000001  2.564924 -0.038026 0.509346
40  1.195826 -0.033341 1.114691  -1.282531 -0.846341 0.949452
41  1.294663 0.000008 -0.000001  0.000000 0.000000 0.000000
42  2.182014 0.000001 0.000002  0.000000 0.000000 -0.000000
43  1.580249 0.000010 0.000005  0.000000 0.000000 -3.141592
44  4.895133 -0.386529 1.693286  -0.311655 -0.228051 0.960849
45  1.507894 -0.000001 0.000003  0.000000 -0.000000 0.698132
46  1.370813 -0.000003 -0.000000  -0.000000 0.000000 0.698132
47  1.279428 -0.000003 0.000005  -0.000000 0.000000 -3.141592
48  5.141354 -0.100723 0.541388  -0.111295 -0.084493 0.929678
49  1.759215 0.000000 0.000001  -0.000000 0.000000 0.698132
50  1.599285 -0.000001 0.000008  0.000000 0.000000 0.698132
51  1.492666 0.000000 0.000006  -0.000000 0.000000 -3.141592
52  5.079530 -0.068057 -0.623696  0.166036 0.060350 0.926097
53  1.688845 0.000000 0.000000  0.000000 -0.000000 0.698132
54  1.507895 -0.000002 -0.000006  -0.000000 -0.000000 0.698132
55  1.279422 0.000004 -0.000002  -0.000000 -0.000000 -3.141592
56  5.141350 -0.098997 -1.621448  0.349463 0.238655 0.964708
57  1.256580 -0.000002 0.000002  0.000000 -0.000000 0.698132
58  1.142349 0.000002 0.000000  0.000000 -0.000000 0.698132
59  1.066191 0.000003 0.000002  -0.000000 -0.000000 -3.141592
60  0.232747 -0.809301 1.175717  -3.117955 0.230511 0.116535
61  -4.350375 0.708899 5.250349  -0.654965 -2.836564 -0.372220
62  17.308260 -0.000004 -0.000000  0.000000 -0.000000 -0.704081
63  15.463845 0.000002 0.000001  0.004821 -0.045770 0.166172
64  6.097308 3.126218 0.000001  0.000000 -0.000000 1.570796
65  1.999103 -0.000000 -0.000001  -0.000000 -0.000000 -0.000000
66  1.999106 -0.000000 0.000000  -0.000000 -0.000000 0.000000
67  3.118602 -0.000000 0.000000  0.000000 0.000000 -3.141592
68  -4.370714 0.847857 -5.623867  -0.264315 3.022637 -0.453310
69  17.308262 -0.000002 0.000001  -0.000000 0.000000 -0.844485
70  15.463846 0.000002 -0.000003  -0.065076 0.163902 0.409765
71  6.097305 3.126219 -0.000002  -0.000000 0.000000 1.570796
72  1.999104 -0.000000 -0.000000  0.000000 0.000000 -0.000000
73  1.999102 0.000000 0.000000  0.000000 0.000000 0.000000
74  3.118603 0.000000 0.000002  -0.000000 0.000000 0.000000
75  5.028741 -7.322620 0.014163  0.000000 0.000001 -1.536686
76  4.835411 -2.118451 0.237899  -1.640610 -1.570796 0.000000
77  4.348882 -2.776598 -10.995123  -0.332241 -1.939523 -1.299005
78  -3.671425 -1.336571 -0.171208  -1.524006 0.347681 0.125368
79  5.768708 3.982528 -9.173449  -0.018554 -2.653223 -1.706597
80  0.067519 -2.350636 3.344427  -1.431170 1.082104 0.034905
81  4.998853 8.565454 -5.001399  -0.235033 -1.930170 -1.495695
82  -0.243934 -1.549031 2.646216  -1.431170 0.349066 0.087266
83  3.580556 8.020454 5.032155  -0.090671 -1.202692 -1.648986
84  -0.088494 -0.306858 4.016225  -1.431170 -0.366519 -0.034907
85  5.006859 3.913797 9.043609  0.122174 -1.972221 -1.746126
86  3.070843 -1.522977 0.101602  -1.563776 0.398264 -0.051684
87  5.597602 -2.928179 10.743618  -0.135244 -1.220387 -1.490862
88  2.930163 -2.309747 0.129156  -1.542557 -0.347073 -0.049239
89  -39.882629 3.733584 0.061545  0.000001 -0.000003 -1.570796
90  -1.679542 -10.540690 68.933853  1.570796 -0.000000 0.000000
91  1.756552 -10.544404 68.891121  1.570796 -0.000000 0.000000
time 1
0  2.407743 3.941138 36.347885  0.011293 -0.079183 -2.408211
1  -2.872677 -0.408844 -36.200844  0.061454 -0.051224 2.406188
2  1.896289 -0.000000 0.000004  0.000002 -1.524578 -1.570795
3  4.428674 -0.004185 0.204854  -0.012780 -0.001872 0.175170
4  5.339099 -0.005482 -0.000122  0.022023 -0.094272 0.123597
5  6.941229 -0.005112 0.000127  -0.024303 -0.089286 0.249018
6  6.620846 -0.004574 0.000557  -0.117276 0.033484 0.254601
7  5.979039 -0.000999 0.000000  -0.000000 0.000000 0.017453
8  1.252575 -0.000003 -0.000000  0.693916 0.167355 -0.567178
9  9.519547 -0.000000 -0.000000  0.000000 -0.000000 -0.000000
10  -3.731840 9.544958 0.014183  0.000000 0.000001 -1.675515
11  -3.853208 -3.394502 0.000002  0.000000 0.000000 0.000000
12  -0.000002 0.000990 2.684129  -0.516087 -0.967796 -2.722681
13  7.524250 -0.000004 -0.000004  -0.441187 0.381477 -0.924930
14  11.423454 0.000002 -0.000010  -0.484269 0.186337 -1.133900
15  13.479673 -0.000004 -0.000001  2.619567 0.458822 -0.187684
16  2.050497 0.662487 -1.659294  1.312145 0.964866 1.239977
17  1.066187 0.000006 0.000008  0.000000 -0.000000 0.000000
18  1.466010 -0.000001 -0.000002  0.000000 0.000000 0.000000
19  1.466014 -0.000005 -0.000001  -0.000000 0.000000 -0.000000
20  5.147581 -0.050708 -1.624359  -0.042133 -0.024927 1.020557
21  1.525712 -0.000002 0.000006  -0.000001 0.000001 0.792186
22  1.473169 -0.000001 0.000000  -0.000000 -0.000000 0.000000
23  1.142349 0.000001 0.000004  0.000000 -0.000000 -0.000000
24  5.223879 -0.372917 -0.419821  -0.038043 0.044250 1.210287
25  2.175556 0.000000 0.000002  -0.000001 0.000001 0.785724
26  1.705906 0.000002 0.000005  0.000000 0.000000 0.000000
27  1.386038 -0.000002 -0.000001  0.000000 -0.000000 -0.000000
28  5.128994 0.094709 0.495809  -0.203641 -0.049287 1.332844
29  1.850597 0.000001 -0.000005  -0.000000 0.000001 0.554490
30  1.530741 -0.000005 0.000002  0.000000 0.000000 0.174533
31  1.302267 0.000001 0.000003  0.000000 -0.000000 0.000000
32  5.110466 0.347385 1.566683  -0.271642 0.039114 1.360352
33  1.485053 0.000001 -0.000005  0.000000 0.000000 0.349066
34  1.294651 -0.000002 -0.000000  -0.000000 0.000000 0.349066
35  0.951955 -0.000002 0.000000  0.000000 0.000000 0.000000
36  -0.000005 0.001003 -2.684131  0.161923 1.075347 -3.017109
37  7.524254 -0.000005 0.000002  -0.354922 0.126052 -0.900109
38  11.423449 0.000004 -0.000002  -0.000000 -0.000000 -2.109543
39  13.708145 0.000000 -0.000001  2.564924 -0.038026 0.509346
40  1.195826 -0.033341 1.114691  -1.282531 -0.846341 0.949452
41  1.294663 0.000008 -0.000001  0.000000 0.000000 0.000000
42  2.182014 0.000001 0.000002  0.000000 0.000000 -0.000000
43  1.580249 0.000010 0.000005  0.000000 0.000000 -3.141592
44  4.895133 -0.386529 1.693286  -0.311655 -0.228051 0.960849
45  1.507894 -0.000001 0.000003  0.000000 -0.000000 0.698132
46  1.370813 -0.000003 -0.000000  -0.000000 0.000000 0.698132
47  1.279428 -0.000003 0.000005  -0.000000 0.000000 -3.141592
48  5.141354 -0.100723 0.541388  -0.111295 -0.084493 0.929678
49  1.759215 0.000000 0.000001  -0.000000 0.000000 0.698132
50  1.599285 -0.000001 0.000008  0.000000 0.000000 0.698132
51  1.492666 0.000000 0.000006  -0.000000 0.000000 -3.141592
52  5.079530 -0.068057 -0.623696  0.166036 0.060350 0.926097
53  1.688845 0.000000 0.000000  0.000000 -0.000000 0.698132
54  1.507895 -0.000002 -0.000006  -0.000000 -0.000000 0.698132
55  1.279422 0.000004 -0.000002  -0.000000 -0.000000 -3.141592
56  5.141350 -0.098997 -1.621448  0.349463 0.238655 0.964708
57  1.256580 -0.000002 0.000002  0.000000 -0.000000 0.698132
58  1.142349 0.000002 0.000000  0.000000 -0.000000 0.698132
59  1.066191 0.000003 0.000002  -0.000000 -0.000000 -3.141592
60  0.232747 -0.809301 1.175717  -3.117955 0.230511 0.116535
61  -4.350375 0.708899 5.250349  -0.654965 -2.836564 -0.372220
62  17.308260 -0.000004 -0.000000  0.000000 -0.000000 -0.704081
63  15.463845 0.000002 0.000001  0.004821 -0.045770 0.166172
64  6.097308 3.126218 0.000001  0.000000 -0.000000 1.570796
65  1.999103 -0.000000 -0.000001  -0.000000 -0.000000 -0.000000
66  1.999106 -0.000000 0.000000  -0.000000 -0.000000 0.000000
67  3.118602 -0.000000 0.000000  0.000000 0.000000 -3.141592
68  -4.370714 0.847857 -5.623867  -0.264315 3.022637 -0.453310
69  17.308262 -0.000002 0.000001  -0.000000 0.000000 -0.844485
70  15.463846 0.000002 -0.000003  -0.065076 0.163902 0.409765
71  6.097305 3.126219 -0.000002  -0.000000 0.000000 1.570796
72  1.999104 -0.000000 -0.000000  0.000000 0.000000 -0.000000
73  1.999102 0.000000 0.000000  0.000000 0.000000 0.000000
74  3.118603 0.000000 0.000002  -0.000000 0.000000 0.000000
75  5.028741 -7.322620 0.014163  0.000000 0.000001 -1.536686
76  4.835411 -2.118451 0.237899  -1.640610 -1.570796 0.000000
77  4.348882 -2.776598 -10.995123  -0.332241 -1.939523 -1.299005
78  -3.671425 -1.336571 -0.171208  -1.524006 0.347681 0.125368
79  5.768708 3.982528 -9.173449  -0.018554 -2.653223 -1.706597
80  0.067519 -2.350636 3.344427  -1.431170 1.082104 0.034905
81  4.998853 8.565454 -5.001399  -0.235033 -1.930170 -1.495695
82  -0.243934 -1.549031 2.646216  -1.431170 0.349066 0.087266
83  3.580556 8.020454 5.032155  -0.090671 -1.202692 -1.648986
84  -0.088494 -0.306858 4.016225  -1.431170 -0.366519 -0.034907
85  5.006859 3.913797 9.043609  0.122174 -1.972221 -1.746126
86  3.070843 -1.522977 0.101602  -1.563776 0.398264 -0.051684
87  5.597602 -2.928179 10.743618  -0.135244 -1.220387 -1.490862
88  2.930163 -2.309747 0.129156  -1.542557 -0.347073 -0.049239
89  -39.882629 3.733584 0.061545  0.000001 -0.000003 -1.570796
90  -1.679542 -10.540690 68.933853  1.570796 -0.000000 0.000000
91  1.756552 -10.544404 68.891121  1.570796 -0.000000 0.000000
end
