version 1
nodes
  0 "Bip01"  -1
  1 "Bip01 Footsteps"   0
  2 "Bip01 Pelvis"   0
  3 "Bip01 Spine"   2
  4 "Bip01 Spine1"   3
  5 "Bip01 Spine2"   4
  6 "Bip01 Spine3"   5
  7 "Bip01 Neck"   6
  8 "Bip01 Head"   7
  9 "Dummy05"   8
 10 "Dummy14"   8
 11 "Dummy15"  10
 12 "Bip01 L Clavicle"   7
 13 "Bip01 L UpperArm"  12
 14 "Bip01 L Forearm"  13
 15 "Bip01 L Hand"  14
 16 "Bip01 L Finger0"  15
 17 "Bip01 L Finger01"  16
 18 "Bip01 L Finger02"  17
 19 "Dummy02"  18
 20 "Bip01 L Finger1"  15
 21 "Bip01 L Finger11"  20
 22 "Bip01 L Finger12"  21
 23 "Dummy07"  22
 24 "Bip01 L Finger2"  15
 25 "Bip01 L Finger21"  24
 26 "Bip01 L Finger22"  25
 27 "Dummy09"  26
 28 "Bip01 L Finger3"  15
 29 "Bip01 L Finger31"  28
 30 "Bip01 L Finger32"  29
 31 "Dummy11"  30
 32 "Bip01 L Finger4"  15
 33 "Bip01 L Finger41"  32
 34 "Bip01 L Finger42"  33
 35 "Dummy13"  34
 36 "Bip01 R Clavicle"   7
 37 "Bip01 R UpperArm"  36
 38 "Bip01 R Forearm"  37
 39 "Bip01 R Hand"  38
 40 "Bip01 R Finger0"  39
 41 "Bip01 R Finger01"  40
 42 "Bip01 R Finger02"  41
 43 "Dummy01"  42
 44 "Bip01 R Finger1"  39
 45 "Bip01 R Finger11"  44
 46 "Bip01 R Finger12"  45
 47 "Dummy06"  46
 48 "Bip01 R Finger2"  39
 49 "Bip01 R Finger21"  48
 50 "Bip01 R Finger22"  49
 51 "Dummy08"  50
 52 "Bip01 R Finger3"  39
 53 "Bip01 R Finger31"  52
 54 "Bip01 R Finger32"  53
 55 "Dummy10"  54
 56 "Bip01 R Finger4"  39
 57 "Bip01 R Finger41"  56
 58 "Bip01 R Finger42"  57
 59 "Dummy12"  58
 60 "Bip01 L Thigh"   3
 61 "Bip01 L Calf"  60
 62 "Bip01 L Foot"  61
 63 "Bip01 L Toe0"  62
 64 "Bip01 L Toe01"  63
 65 "Bip01 L Toe02"  64
 66 "Dummy04"  65
 67 "Bip01 R Thigh"   3
 68 "Bip01 R Calf"  67
 69 "Bip01 R Foot"  68
 70 "Bip01 R Toe0"  69
 71 "Bip01 R Toe01"  70
 72 "Bip01 R Toe02"  71
 73 "Dummy03"  72
 74 "Dummy22"   3
 75 "Dummy23"  74
 76 "Dummy21"   3
 77 "Dummy24"  76
 78 "Dummy18"   3
 79 "Dummy25"  78
 80 "Dummy17"   3
 81 "Dummy26"  80
 82 "Dummy16"   3
 83 "Dummy27"  82
 84 "Dummy19"   3
 85 "Dummy28"  84
 86 "Dummy20"   3
 87 "Dummy29"  86
 88 "mesh"   2
end
skeleton
time 1
  0 0.580629 4.618983 38.069439 0.044883 0.364475 -1.496964
  1 10.914252 -1.283547 -28.578405 -0.366662 0.018479 1.501811
  2 -1.383246 -0.437728 -0.000001 0.000000 -1.621010 -1.570795
  3 4.428069 -0.004134 -0.222593 0.024766 0.011436 0.234323
  4 5.338699 -0.005517 -0.000074 0.013386 -0.021365 0.052823
  5 6.940485 -0.005240 -0.000069 0.013093 0.032449 0.105921
  6 6.620134 -0.004737 -0.000062 0.013149 0.018820 0.105737
  7 5.979039 -0.000997 -0.000000 -0.000000 -0.000000 0.017453
  8 1.252571 0.000001 0.000000 0.010370 -0.007762 -0.526518
  9 9.519546 -0.000000 0.000000 0.000000 0.000000 0.000000
 10 -3.731839 9.544963 0.014183 -0.000000 0.000001 -1.675515
 11 -3.853209 -3.394490 0.000000 0.000000 0.000000 0.000000
 12 -0.000001 0.000992 2.684131 0.401111 -1.354068 2.730671
 13 7.524248 0.000003 0.000003 -0.714712 0.066706 -1.314734
 14 11.423453 0.000002 0.000001 0.000000 0.000000 -0.916577
 15 13.479676 0.000001 0.000000 -1.570000 0.026237 0.000000
 16 2.050502 0.662487 -1.659291 1.055273 0.885596 0.919630
 17 1.066189 -0.000002 -0.000001 0.000000 0.000000 0.108649
 18 1.466010 0.000003 0.000001 0.000000 -0.000000 0.108649
 19 1.466010 0.000000 -0.000001 0.000000 0.000000 0.000000
 20 5.193865 -0.001292 -1.622131 -0.000865 0.401426 -0.000338
 21 1.525715 0.000001 -0.000002 0.000000 0.000000 0.000000
 22 1.473168 0.000001 -0.000001 0.000000 0.000000 0.000000
 23 1.142347 0.000001 -0.000000 0.000000 0.000000 0.000000
 24 4.977363 -0.298622 -0.436310 0.047536 0.133062 0.281524
 25 2.175558 0.000001 0.000001 0.000000 0.000000 0.000000
 26 1.705903 0.000001 0.000001 0.000000 0.000000 0.000000
 27 1.386047 0.000001 0.000003 0.000000 0.000000 0.000000
 28 5.227224 -0.016871 0.516778 -0.041333 -0.205381 0.196330
 29 1.850599 0.000001 -0.000001 0.000000 0.000000 0.000000
 30 1.530744 0.000000 -0.000001 0.000000 0.000000 0.000000
 31 1.302274 0.000000 -0.000001 0.000000 0.000000 0.000000
 32 5.193865 0.001292 1.622130 -0.096033 -0.390377 0.246055
 33 1.485049 -0.000001 -0.000000 0.000000 0.000000 0.000000
 34 1.294659 0.000001 0.000002 0.000000 0.000000 0.000000
 35 0.951952 0.000002 -0.000002 0.000000 0.000000 0.000000
 36 0.000001 0.001004 -2.684131 -0.401135 1.354066 2.730648
 37 7.524249 0.000000 0.000000 0.412529 -0.156597 -1.386860
 38 11.423451 0.000001 0.000001 0.000000 0.000000 -1.169305
 39 13.708146 -0.000003 0.000000 1.570000 -0.026237 -0.000000
 40 1.195829 -0.033341 1.114692 -1.282531 -0.846341 0.949451
 41 1.294657 0.000002 0.000000 0.000000 0.000000 0.108649
 42 2.182010 -0.000001 0.000001 -0.000000 -0.000000 0.108649
 43 1.580244 0.000001 0.000001 0.000000 0.000000 3.141593
 44 4.895139 -0.386527 1.693281 -0.089807 -0.373831 0.243734
 45 1.507897 -0.000001 -0.000001 0.000000 0.000000 0.000000
 46 1.370813 0.000000 -0.000002 0.000000 0.000000 0.000000
 47 1.279428 -0.000000 0.000002 0.000000 0.000000 3.141593
 48 5.141361 -0.100722 0.541386 -0.030822 -0.136206 0.228940
 49 1.759211 0.000001 -0.000004 0.000000 0.000000 0.000000
 50 1.599284 0.000002 0.000002 0.000000 0.000000 0.000000
 51 1.492666 -0.000003 -0.000002 0.000000 0.000000 3.141593
 52 5.079528 -0.068058 -0.623694 0.088758 0.152840 0.229743
 53 1.688844 0.000001 -0.000001 0.000000 0.000000 0.000000
 54 1.507896 0.000000 -0.000001 0.000000 0.000000 0.000000
 55 1.279427 -0.000001 -0.000001 0.000000 0.000000 3.141593
 56 5.141360 -0.098999 -1.621454 0.112242 0.406000 0.247378
 57 1.256580 0.000003 -0.000001 0.000000 0.000000 0.000000
 58 1.142345 -0.000002 0.000001 0.000000 0.000000 0.000000
 59 1.066190 0.000002 -0.000001 0.000000 0.000000 3.141593
 60 -4.370550 1.170780 5.583262 0.004290 3.124509 -0.723771
 61 17.308264 -0.000001 0.000000 -0.000000 -0.000000 -1.481534
 62 15.463847 -0.000000 -0.000000 -0.025752 0.070339 1.082652
 63 6.097305 3.126219 -0.000000 -0.000000 0.000000 1.570796
 64 1.999105 0.000000 0.000001 0.000000 -0.000000 0.013909
 65 1.999104 0.000000 0.000000 -0.000000 -0.000000 0.013909
 66 3.118603 0.000000 -0.000000 0.000000 0.000000 3.141593
 67 -4.246173 0.901474 -5.287820 0.020708 -3.092106 -0.565261
 68 17.308266 0.000000 -0.000000 -0.000000 0.000000 -0.001922
 69 15.463847 0.000000 0.000000 0.065281 -0.067760 0.053036
 70 6.097307 3.126218 0.000000 -0.000000 0.000000 1.570796
 71 1.999104 0.000000 0.000000 0.000000 0.000000 0.000000
 72 1.999104 0.000000 0.000000 0.000000 0.000000 0.000000
 73 3.118603 0.000000 -0.000000 0.000000 0.000000 0.000000
 74 5.028742 -7.322624 0.014163 -0.000000 0.000001 -1.536686
 75 4.835414 -2.118448 0.237901 -1.640610 -1.570796 0.000000
 76 4.348886 -2.776600 -10.995126 -0.332241 -1.939523 -1.299004
 77 -3.671422 -1.336568 -0.171206 -1.524006 0.347681 0.125368
 78 5.768712 3.982528 -9.173451 3.123039 -0.488370 1.434996
 79 0.067521 -2.350639 3.344429 -1.431171 1.082104 0.034906
 80 4.998852 8.565454 -5.001400 -0.235032 -1.930170 -1.495696
 81 -0.243932 -1.549037 2.646218 -1.431170 0.349066 0.087266
 82 3.580551 8.020454 5.032156 -0.090668 -1.202692 -1.648988
 83 -0.088493 -0.306857 4.016224 -1.431170 -0.366519 -0.034907
 84 5.006866 3.913795 9.043612 -3.019418 -1.169372 1.395466
 85 3.070842 -1.522966 0.101600 -1.563776 0.398264 -0.051684
 86 5.597603 -2.928180 10.743621 -0.135243 -1.220387 -1.490863
 87 2.930163 -2.309737 0.129155 -1.542557 -0.347073 -0.049239
 88 -39.882629 3.733587 0.061546 0.000001 -0.000003 -1.570796
time 2
  0 0.978816 -1.688924 37.475918 0.047219 0.364898 -1.513915
  1 13.446028 -1.661420 -35.159302 -0.366867 0.026863 1.517644
  2 -1.733816 -0.553315 -0.000000 0.000000 -1.620826 -1.570794
  3 4.428174 -0.004112 -0.221858 0.042956 0.005050 0.250979
  4 5.338798 -0.005509 -0.000174 0.031438 -0.023576 0.069986
  5 6.940579 -0.005229 -0.000165 0.031329 0.031640 0.124104
  6 6.620215 -0.004723 -0.000149 0.031307 0.017425 0.123659
  7 5.979037 -0.000996 0.000000 0.000000 -0.000000 0.017453
  8 1.252572 0.000001 -0.000000 -0.054773 -0.028248 -0.610668
  9 9.519546 0.000000 0.000000 0.000000 0.000000 0.000000
 10 -3.731834 9.544961 0.014183 -0.000000 0.000001 -1.675515
 11 -3.853210 -3.394492 0.000000 0.000000 0.000000 0.000000
 12 -0.000001 0.000991 2.684131 0.147021 -1.368674 2.979273
 13 7.524249 -0.000002 0.000002 -0.697170 0.005214 -1.451275
 14 11.423453 -0.000002 0.000003 -0.000000 -0.000000 -0.925284
 15 13.479678 0.000000 -0.000000 -1.570000 0.029055 0.000000
 16 2.050501 0.662485 -1.659291 1.055273 0.885596 0.919630
 17 1.066189 0.000002 0.000003 -0.000000 -0.000000 0.107263
 18 1.466009 0.000001 -0.000002 0.000000 0.000000 0.107263
 19 1.466010 0.000002 -0.000001 0.000000 0.000000 0.000000
 20 5.193862 -0.001293 -1.622129 -0.000865 0.401426 -0.000338
 21 1.525719 -0.000000 0.000001 0.000000 0.000000 0.000000
 22 1.473165 0.000001 -0.000002 0.000000 0.000000 0.000000
 23 1.142347 0.000002 0.000001 0.000000 0.000000 0.000000
 24 4.977362 -0.298622 -0.436306 0.047536 0.133062 0.281524
 25 2.175558 0.000002 0.000000 0.000000 0.000000 0.000000
 26 1.705902 0.000000 -0.000002 0.000000 0.000000 0.000000
 27 1.386048 0.000001 0.000005 0.000000 0.000000 0.000000
 28 5.227222 -0.016872 0.516779 -0.041333 -0.205381 0.196330
 29 1.850602 0.000000 -0.000001 0.000000 0.000000 0.000000
 30 1.530741 0.000000 -0.000002 0.000000 0.000000 0.000000
 31 1.302274 0.000001 0.000002 0.000000 0.000000 0.000000
 32 5.193863 0.001291 1.622132 -0.096033 -0.390377 0.246055
 33 1.485050 -0.000002 -0.000002 0.000000 0.000000 0.000000
 34 1.294658 0.000002 0.000003 0.000000 0.000000 0.000000
 35 0.951953 0.000000 0.000001 0.000000 0.000000 0.000000
 36 0.000001 0.001003 -2.684131 -0.147048 1.368673 2.979247
 37 7.524250 -0.000003 0.000001 0.426187 -0.072976 -1.403935
 38 11.423457 0.000000 -0.000003 0.000000 0.000000 -1.187328
 39 13.708146 -0.000001 -0.000002 1.570000 -0.029055 0.000000
 40 1.195829 -0.033340 1.114691 -1.282531 -0.846341 0.949452
 41 1.294659 -0.000004 -0.000001 -0.000000 -0.000000 0.107263
 42 2.182009 -0.000001 -0.000000 0.000000 -0.000000 0.107263
 43 1.580246 0.000001 0.000002 0.000000 0.000000 3.141593
 44 4.895139 -0.386528 1.693283 -0.089807 -0.373831 0.243734
 45 1.507896 0.000000 -0.000003 0.000000 0.000000 0.000000
 46 1.370815 -0.000001 0.000000 0.000000 0.000000 0.000000
 47 1.279427 -0.000002 0.000002 0.000000 0.000000 3.141593
 48 5.141360 -0.100721 0.541386 -0.030822 -0.136206 0.228940
 49 1.759211 0.000002 -0.000001 0.000000 0.000000 0.000000
 50 1.599284 -0.000003 0.000002 0.000000 0.000000 0.000000
 51 1.492664 0.000001 0.000001 0.000000 0.000000 3.141593
 52 5.079529 -0.068058 -0.623695 0.088758 0.152840 0.229743
 53 1.688843 -0.000001 0.000003 0.000000 0.000000 0.000000
 54 1.507896 0.000001 -0.000004 0.000000 0.000000 0.000000
 55 1.279427 0.000000 0.000000 0.000000 0.000000 3.141593
 56 5.141361 -0.099001 -1.621454 0.112242 0.406000 0.247378
 57 1.256582 -0.000001 -0.000001 0.000000 0.000000 0.000000
 58 1.142342 -0.000001 0.000004 0.000000 0.000000 0.000000
 59 1.066189 -0.000000 -0.000002 0.000000 0.000000 3.141593
 60 -4.316946 1.344825 5.585095 0.011086 3.107266 -0.942478
 61 17.308264 0.000000 0.000000 -0.000000 -0.000000 -1.692487
 62 15.463845 0.000002 -0.000000 -0.027583 0.076982 1.123310
 63 6.097305 3.126219 -0.000000 -0.000000 -0.000000 1.570796
 64 1.999104 0.000001 -0.000000 0.000000 0.000000 0.011110
 65 1.999105 0.000000 0.000000 -0.000000 -0.000000 0.011110
 66 3.118603 0.000000 -0.000000 0.000000 0.000000 3.141593
 67 -4.262019 0.877800 -5.279862 0.042591 -3.092794 -0.416847
 68 17.308262 0.000001 0.000000 0.000000 0.000000 -0.002156
 69 15.463845 -0.000001 -0.000000 0.038524 -0.064840 0.193657
 70 6.097306 3.126219 0.000000 -0.000000 0.000000 1.570796
 71 1.999105 -0.000000 0.000000 0.000000 0.000000 0.000000
 72 1.999104 -0.000000 -0.000000 0.000000 0.000000 0.000000
 73 3.118603 -0.000000 -0.000000 0.000000 0.000000 0.000000
 74 5.028738 -7.322621 0.014163 -0.000000 0.000001 -1.536686
 75 4.835414 -2.118450 0.237901 -1.640610 -1.570796 0.000000
 76 4.348881 -2.776596 -10.995126 -0.332241 -1.939523 -1.299004
 77 -3.671423 -1.336568 -0.171206 -1.524006 0.347681 0.125368
 78 5.768709 3.982531 -9.173451 3.123039 -0.488370 1.434996
 79 0.067520 -2.350640 3.344429 -1.431170 1.082104 0.034906
 80 4.998850 8.565455 -5.001400 -0.235032 -1.930170 -1.495696
 81 -0.243932 -1.549037 2.646217 -1.431170 0.349066 0.087266
 82 3.580550 8.020456 5.032156 -0.090668 -1.202692 -1.648988
 83 -0.088495 -0.306860 4.016225 -1.431170 -0.366519 -0.034907
 84 5.006862 3.913798 9.043611 -3.019418 -1.169372 1.395466
 85 3.070842 -1.522966 0.101601 -1.563776 0.398264 -0.051684
 86 5.597602 -2.928179 10.743621 -0.135243 -1.220387 -1.490863
 87 2.930166 -2.309739 0.129154 -1.542557 -0.347073 -0.049239
 88 -39.882626 3.733586 0.061546 0.000001 -0.000003 -1.570796
time 3
  0 1.256944 -7.802587 37.264832 0.045413 0.365543 -1.536032
  1 13.335914 -1.581780 -34.806957 -0.366816 0.032965 1.538312
  2 -1.086363 -0.578385 -0.000002 0.000000 -1.610914 -1.570795
  3 4.430027 -0.004142 -0.178015 0.055398 -0.006121 0.219365
  4 5.338626 -0.005515 -0.000264 0.047763 -0.022766 0.038632
  5 6.940418 -0.005242 -0.000251 0.047618 0.030510 0.093563
  6 6.620064 -0.004735 -0.000227 0.047599 0.016567 0.092906
  7 5.979039 -0.000996 -0.000000 -0.000000 -0.000000 0.017453
  8 1.252572 -0.000001 0.000000 -0.122445 -0.042151 -0.503866
  9 9.519545 -0.000000 0.000000 0.000000 0.000000 0.000000
 10 -3.731838 9.544962 0.014183 -0.000000 0.000001 -1.675515
 11 -3.853211 -3.394493 0.000000 0.000000 0.000000 0.000000
 12 0.000002 0.000988 2.684132 -0.194592 -1.367054 -2.969177
 13 7.524249 -0.000000 0.000002 -0.665575 0.156843 -1.552150
 14 11.423454 0.000001 -0.000001 0.000000 -0.000000 -0.919216
 15 13.479677 -0.000002 0.000002 -1.570000 0.027091 0.000000
 16 2.050503 0.662488 -1.659293 1.055273 0.885596 0.919630
 17 1.066190 -0.000004 0.000001 -0.000000 0.000000 0.108229
 18 1.466009 0.000002 -0.000001 -0.000000 0.000000 0.108229
 19 1.466010 -0.000000 -0.000000 0.000000 0.000000 0.000000
 20 5.193864 -0.001289 -1.622130 -0.000865 0.401426 -0.000338
 21 1.525717 -0.000001 -0.000001 0.000000 0.000000 0.000000
 22 1.473168 -0.000001 0.000001 0.000000 0.000000 0.000000
 23 1.142348 -0.000002 -0.000000 0.000000 0.000000 0.000000
 24 4.977360 -0.298618 -0.436308 0.047536 0.133062 0.281524
 25 2.175556 0.000001 -0.000001 0.000000 0.000000 0.000000
 26 1.705903 -0.000000 -0.000001 0.000000 0.000000 0.000000
 27 1.386046 -0.000001 -0.000002 0.000000 0.000000 0.000000
 28 5.227220 -0.016866 0.516781 -0.041333 -0.205381 0.196330
 29 1.850602 -0.000002 0.000001 0.000000 0.000000 0.000000
 30 1.530738 0.000004 0.000001 0.000000 0.000000 0.000000
 31 1.302275 -0.000001 0.000001 0.000000 0.000000 0.000000
 32 5.193864 0.001294 1.622131 -0.096033 -0.390377 0.246055
 33 1.485049 -0.000001 0.000001 0.000000 0.000000 0.000000
 34 1.294657 -0.000002 0.000000 0.000000 0.000000 0.000000
 35 0.951954 -0.000001 0.000001 0.000000 0.000000 0.000000
 36 0.000001 0.001004 -2.684131 0.194565 1.367055 -2.969204
 37 7.524249 0.000001 -0.000004 0.436575 -0.203879 -1.375933
 38 11.423450 -0.000001 0.000001 0.000000 0.000000 -1.174768
 39 13.708147 0.000002 -0.000003 1.570000 -0.027091 0.000000
 40 1.195829 -0.033342 1.114695 -1.282531 -0.846341 0.949451
 41 1.294657 0.000003 0.000001 0.000000 -0.000000 0.108229
 42 2.182009 -0.000002 -0.000001 -0.000000 0.000000 0.108229
 43 1.580245 0.000001 0.000000 0.000000 0.000000 3.141593
 44 4.895138 -0.386528 1.693285 -0.089807 -0.373831 0.243734
 45 1.507896 -0.000001 0.000003 0.000000 0.000000 0.000000
 46 1.370813 -0.000001 -0.000000 0.000000 0.000000 0.000000
 47 1.279427 0.000001 0.000000 0.000000 0.000000 3.141593
 48 5.141362 -0.100725 0.541387 -0.030822 -0.136206 0.228940
 49 1.759212 -0.000004 0.000002 0.000000 0.000000 0.000000
 50 1.599283 0.000001 -0.000000 0.000000 0.000000 0.000000
 51 1.492664 0.000004 -0.000003 0.000000 0.000000 3.141593
 52 5.079529 -0.068061 -0.623693 0.088758 0.152840 0.229743
 53 1.688844 0.000000 -0.000003 0.000000 0.000000 0.000000
 54 1.507895 -0.000001 0.000001 0.000000 0.000000 0.000000
 55 1.279428 -0.000002 -0.000000 0.000000 0.000000 3.141593
 56 5.141360 -0.099002 -1.621450 0.112242 0.406000 0.247378
 57 1.256581 0.000001 -0.000003 0.000000 0.000000 0.000000
 58 1.142346 0.000002 -0.000001 0.000000 0.000000 0.000000
 59 1.066190 0.000001 -0.000002 0.000000 0.000000 3.141593
 60 -4.288516 1.278979 5.579679 0.015359 3.092807 -1.122724
 61 17.308262 0.000000 -0.000000 0.000000 -0.000000 -1.843226
 62 15.463844 -0.000001 0.000000 -0.029040 0.077237 1.149971
 63 6.097305 3.126219 0.000000 -0.000000 0.000000 1.570796
 64 1.999104 -0.000001 -0.000000 0.000000 0.000000 0.009711
 65 1.999105 0.000001 -0.000000 -0.000000 -0.000000 0.009711
 66 3.118604 0.000000 0.000000 0.000000 0.000000 3.141593
 67 -4.355075 0.676819 -5.278561 0.055365 -3.090406 -0.212389
 68 17.308262 -0.000000 -0.000000 -0.000000 0.000000 -0.001922
 69 15.463846 0.000000 0.000000 0.023900 -0.061425 0.335091
 70 6.097305 3.126218 0.000000 -0.000000 -0.000000 1.570796
 71 1.999104 0.000000 0.000000 0.000000 -0.000000 0.051456
 72 1.999105 0.000000 0.000000 -0.000000 -0.000000 0.051456
 73 3.118603 -0.000000 0.000000 0.000000 0.000000 0.000000
 74 5.028741 -7.322623 0.014163 -0.000000 0.000001 -1.536686
 75 4.835413 -2.118451 0.237901 -1.640610 -1.570796 0.000000
 76 4.348884 -2.776598 -10.995126 -0.332241 -1.939523 -1.299004
 77 -3.671425 -1.336565 -0.171207 -1.524006 0.347681 0.125368
 78 5.768709 3.982530 -9.173451 3.123039 -0.488370 1.434996
 79 0.067520 -2.350640 3.344429 -1.431170 1.082104 0.034906
 80 4.998849 8.565457 -5.001400 -0.235032 -1.930170 -1.495696
 81 -0.243932 -1.549037 2.646218 -1.431170 0.349066 0.087266
 82 3.580550 8.020455 5.032156 -0.090668 -1.202692 -1.648988
 83 -0.088494 -0.306860 4.016225 -1.431170 -0.366519 -0.034907
 84 5.006863 3.913798 9.043611 -3.019418 -1.169372 1.395466
 85 3.070843 -1.522965 0.101601 -1.563776 0.398264 -0.051684
 86 5.597601 -2.928178 10.743620 -0.135243 -1.220387 -1.490863
 87 2.930165 -2.309741 0.129156 -1.542557 -0.347073 -0.049239
 88 -39.882629 3.733586 0.061546 0.000001 -0.000003 -1.570796
time 4
  0 1.311854 -14.972752 37.681950 0.039140 0.366075 -1.556670
  1 13.099037 -1.337064 -34.143322 -0.366558 0.034081 1.557599
  2 -0.540208 -0.532538 0.000001 3.141593 -1.543321 1.570796
  3 4.431815 -0.004162 -0.122014 0.056683 -0.016530 0.193575
  4 5.338491 -0.005518 -0.000289 0.052366 -0.020752 0.012752
  5 6.940282 -0.005252 -0.000275 0.052308 0.029801 0.067831
  6 6.619940 -0.004743 -0.000249 0.052281 0.016478 0.067134
  7 5.979039 -0.000997 -0.000000 -0.000000 -0.000000 0.017453
  8 1.252573 0.000001 -0.000000 -0.146052 -0.043218 -0.422055
  9 9.519545 0.000000 0.000000 0.000000 0.000000 0.000000
 10 -3.731835 9.544961 0.014183 -0.000000 0.000001 -1.675515
 11 -3.853207 -3.394492 0.000000 0.000000 0.000000 0.000000
 12 0.000003 0.000991 2.684131 -0.508162 -1.342801 -2.662748
 13 7.524251 -0.000000 0.000001 -0.653414 0.293122 -1.610704
 14 11.423454 -0.000004 0.000002 -0.000000 0.000000 -0.905739
 15 13.479675 0.000004 -0.000004 -1.570000 0.022730 -0.000000
 16 2.050502 0.662485 -1.659291 1.055273 0.885596 0.919630
 17 1.066189 0.000002 -0.000002 0.000000 -0.000000 0.110376
 18 1.466011 -0.000004 0.000004 0.000000 -0.000000 0.110376
 19 1.466010 -0.000001 -0.000001 0.000000 0.000000 0.000000
 20 5.193863 -0.001294 -1.622130 -0.000865 0.401426 -0.000338
 21 1.525717 0.000000 0.000001 0.000000 0.000000 0.000000
 22 1.473166 -0.000000 -0.000002 0.000000 0.000000 0.000000
 23 1.142344 -0.000001 -0.000001 0.000000 0.000000 0.000000
 24 4.977360 -0.298623 -0.436308 0.047536 0.133062 0.281524
 25 2.175560 -0.000001 0.000002 0.000000 0.000000 0.000000
 26 1.705902 0.000001 -0.000002 0.000000 0.000000 0.000000
 27 1.386045 0.000000 0.000001 0.000000 0.000000 0.000000
 28 5.227220 -0.016870 0.516781 -0.041333 -0.205381 0.196330
 29 1.850600 0.000002 0.000003 0.000000 0.000000 0.000000
 30 1.530743 -0.000003 -0.000003 0.000000 0.000000 0.000000
 31 1.302273 0.000002 0.000002 0.000000 0.000000 0.000000
 32 5.193864 0.001289 1.622129 -0.096033 -0.390377 0.246055
 33 1.485047 -0.000003 -0.000002 0.000000 0.000000 0.000000
 34 1.294659 0.000001 -0.000001 0.000000 0.000000 0.000000
 35 0.951954 0.000002 0.000000 0.000000 0.000000 0.000000
 36 0.000002 0.001005 -2.684131 0.508141 1.342804 -2.662769
 37 7.524250 0.000000 -0.000003 0.435583 -0.333398 -1.382532
 38 11.423458 -0.000001 -0.000002 -0.000000 -0.000000 -1.146871
 39 13.708147 -0.000000 -0.000001 1.570000 -0.022730 -0.000000
 40 1.195828 -0.033342 1.114693 -1.282531 -0.846341 0.949452
 41 1.294660 -0.000002 0.000001 0.000000 -0.000000 0.110376
 42 2.182008 0.000001 -0.000004 -0.000000 -0.000000 0.110376
 43 1.580245 0.000000 0.000001 0.000000 0.000000 3.141593
 44 4.895137 -0.386528 1.693284 -0.089807 -0.373831 0.243734
 45 1.507895 0.000001 0.000002 0.000000 0.000000 0.000000
 46 1.370815 0.000002 -0.000001 0.000000 0.000000 0.000000
 47 1.279427 0.000001 -0.000000 0.000000 0.000000 3.141593
 48 5.141359 -0.100724 0.541389 -0.030822 -0.136206 0.228940
 49 1.759209 0.000003 0.000001 0.000000 0.000000 0.000000
 50 1.599287 -0.000006 0.000001 0.000000 0.000000 0.000000
 51 1.492665 0.000002 -0.000001 0.000000 0.000000 3.141593
 52 5.079526 -0.068059 -0.623692 0.088758 0.152840 0.229743
 53 1.688843 0.000002 0.000000 0.000000 0.000000 0.000000
 54 1.507895 0.000002 0.000001 0.000000 0.000000 0.000000
 55 1.279428 0.000000 0.000002 0.000000 0.000000 3.141593
 56 5.141360 -0.099001 -1.621454 0.112242 0.406000 0.247378
 57 1.256580 -0.000000 0.000001 0.000000 0.000000 0.000000
 58 1.142345 0.000001 -0.000000 0.000000 0.000000 0.000000
 59 1.066188 0.000000 0.000001 0.000000 0.000000 3.141593
 60 -4.255755 1.174252 5.573117 0.030268 3.095818 -1.373335
 61 17.308266 0.000000 -0.000000 0.000000 -0.000000 -1.893770
 62 15.463844 -0.000002 -0.000000 -0.030778 0.056184 1.161332
 63 6.097306 3.126217 0.000000 -0.000000 0.000000 1.570796
 64 1.999104 -0.000000 -0.000000 0.000000 -0.000000 0.008273
 65 1.999105 -0.000000 0.000001 -0.000000 -0.000000 0.008273
 66 3.118603 -0.000001 -0.000000 0.000000 0.000000 3.141593
 67 -4.435500 0.558212 -5.283061 0.053735 -3.086768 -0.021371
 68 17.308262 -0.000001 0.000000 0.000000 0.000000 -0.003049
 69 15.463843 0.000000 -0.000000 0.011987 -0.045434 0.121451
 70 6.097305 3.126218 0.000000 -0.000000 -0.000000 1.570796
 71 1.999104 0.000000 0.000000 0.000000 -0.000000 0.102916
 72 1.999105 0.000000 -0.000000 0.000000 0.000000 0.102916
 73 3.118603 0.000000 0.000000 0.000000 0.000000 0.000000
 74 5.028743 -7.322623 0.014163 -0.000000 0.000001 -1.536686
 75 4.835416 -2.118449 0.237901 -1.640610 -1.570796 0.000000
 76 4.348885 -2.776597 -10.995126 -0.332241 -1.939523 -1.299004
 77 -3.671423 -1.336568 -0.171207 -1.524006 0.347681 0.125368
 78 5.768712 3.982532 -9.173452 3.123039 -0.488370 1.434996
 79 0.067521 -2.350641 3.344430 -1.431170 1.082104 0.034906
 80 4.998855 8.565456 -5.001400 -0.235032 -1.930170 -1.495696
 81 -0.243932 -1.549036 2.646217 -1.431170 0.349066 0.087266
 82 3.580555 8.020454 5.032156 -0.090668 -1.202692 -1.648988
 83 -0.088494 -0.306860 4.016225 -1.431170 -0.366519 -0.034907
 84 5.006865 3.913798 9.043612 -3.019418 -1.169372 1.395466
 85 3.070843 -1.522966 0.101602 -1.563776 0.398264 -0.051684
 86 5.597605 -2.928179 10.743621 -0.135243 -1.220387 -1.490863
 87 2.930165 -2.309741 0.129154 -1.542557 -0.347073 -0.049239
 88 -39.882626 3.733586 0.061546 0.000001 -0.000003 -1.570796
time 5
  0 1.099028 -23.531759 38.299473 0.027895 0.366373 -1.576803
  1 12.402869 -0.901592 -32.312168 -0.366210 0.030047 1.576407
  2 -0.997548 -0.479177 0.000000 -3.141588 -1.557640 1.570794
  3 4.433200 -0.004149 -0.058474 0.036093 -0.026584 0.215561
  4 5.338603 -0.005519 -0.000188 0.034063 -0.020207 0.034254
  5 6.940394 -0.005249 -0.000179 0.034028 0.030472 0.088382
  6 6.620041 -0.004737 -0.000162 0.034000 0.017357 0.087932
  7 5.979034 -0.000999 0.000000 -0.000000 -0.000000 0.017453
  8 1.252568 0.000002 -0.000000 -0.072058 -0.033964 -0.532911
  9 9.519542 0.000001 -0.000000 0.000000 0.000000 0.000000
 10 -3.731840 9.544965 0.014183 -0.000000 0.000001 -1.675515
 11 -3.853212 -3.394490 0.000000 0.000000 0.000000 0.000000
 12 -0.000002 0.000989 2.684131 -0.719667 -1.307502 -2.457515
 13 7.524248 -0.000001 -0.000003 -0.690688 0.232986 -1.617800
 14 11.423455 -0.000001 -0.000001 -0.000000 0.000000 -0.892216
 15 13.479672 0.000001 -0.000002 -1.570000 0.018354 -0.000000
 16 2.050501 0.662488 -1.659290 1.055273 0.885596 0.919630
 17 1.066189 0.000003 -0.000002 -0.000000 0.000000 0.112530
 18 1.466010 -0.000001 0.000001 0.000000 -0.000000 0.112530
 19 1.466010 0.000004 0.000001 0.000000 0.000000 0.000000
 20 5.193862 -0.001291 -1.622128 -0.000865 0.401426 -0.000338
 21 1.525716 -0.000001 0.000001 0.000000 0.000000 0.000000
 22 1.473170 -0.000003 -0.000002 0.000000 0.000000 0.000000
 23 1.142343 0.000002 0.000001 0.000000 0.000000 0.000000
 24 4.977360 -0.298621 -0.436309 0.047536 0.133062 0.281524
 25 2.175559 -0.000002 0.000003 0.000000 0.000000 0.000000
 26 1.705901 0.000003 -0.000001 0.000000 0.000000 0.000000
 27 1.386047 -0.000003 -0.000003 0.000000 0.000000 0.000000
 28 5.227221 -0.016869 0.516781 -0.041333 -0.205381 0.196330
 29 1.850601 0.000001 -0.000002 0.000000 0.000000 0.000000
 30 1.530742 -0.000000 -0.000003 0.000000 0.000000 0.000000
 31 1.302273 -0.000000 0.000001 0.000000 0.000000 0.000000
 32 5.193864 0.001291 1.622130 -0.096033 -0.390377 0.246055
 33 1.485047 0.000002 0.000000 0.000000 0.000000 0.000000
 34 1.294661 -0.000001 0.000002 0.000000 0.000000 0.000000
 35 0.951955 -0.000003 -0.000003 0.000000 0.000000 0.000000
 36 -0.000001 0.001008 -2.684131 0.719651 1.307505 -2.457531
 37 7.524250 0.000000 0.000000 0.447716 -0.297340 -1.511437
 38 11.423457 0.000002 0.000002 -0.000000 -0.000000 -1.118878
 39 13.708147 0.000002 -0.000004 1.570000 -0.018354 -0.000000
 40 1.195830 -0.033343 1.114692 -1.282531 -0.846341 0.949452
 41 1.294657 0.000002 0.000001 -0.000000 0.000000 0.112530
 42 2.182010 -0.000004 0.000002 0.000000 -0.000000 0.112530
 43 1.580244 0.000001 0.000001 0.000000 0.000000 3.141593
 44 4.895140 -0.386529 1.693281 -0.089807 -0.373831 0.243734
 45 1.507896 -0.000003 -0.000001 0.000000 0.000000 0.000000
 46 1.370816 -0.000002 0.000003 0.000000 0.000000 0.000000
 47 1.279428 -0.000004 -0.000000 0.000000 0.000000 3.141593
 48 5.141361 -0.100726 0.541389 -0.030822 -0.136206 0.228940
 49 1.759212 -0.000000 -0.000001 0.000000 0.000000 0.000000
 50 1.599282 0.000002 0.000002 0.000000 0.000000 0.000000
 51 1.492665 -0.000002 -0.000001 0.000000 0.000000 3.141593
 52 5.079529 -0.068062 -0.623694 0.088758 0.152840 0.229743
 53 1.688844 0.000003 -0.000003 0.000000 0.000000 0.000000
 54 1.507894 -0.000003 0.000005 0.000000 0.000000 0.000000
 55 1.279427 0.000001 0.000000 0.000000 0.000000 3.141593
 56 5.141359 -0.099002 -1.621450 0.112242 0.406000 0.247378
 57 1.256580 0.000001 0.000001 0.000000 0.000000 0.000000
 58 1.142345 0.000001 0.000001 0.000000 0.000000 0.000000
 59 1.066190 0.000000 0.000000 0.000000 0.000000 3.141593
 60 -4.182098 1.154091 5.571167 -3.098485 0.023461 1.489432
 61 17.308262 -0.000001 -0.000000 0.000000 -0.000000 -1.777113
 62 15.463846 0.000001 -0.000000 -0.035122 0.034789 1.041696
 63 6.097306 3.126219 -0.000000 -0.000000 -0.000000 1.570796
 64 1.999106 0.000000 0.000000 -0.000000 0.000000 0.006835
 65 1.999103 0.000000 -0.000000 0.000000 -0.000000 0.006835
 66 3.118604 0.000001 -0.000000 0.000000 0.000000 3.141593
 67 -4.471158 0.761781 -5.293038 0.057868 -3.089877 -0.409258
 68 17.308264 -0.000001 -0.000000 -0.000000 0.000000 -1.291008
 69 15.463845 0.000004 0.000000 0.064861 -0.008390 -0.161140
 70 6.097306 3.126219 0.000000 -0.000000 0.000000 1.570796
 71 1.999104 -0.000000 -0.000000 -0.000000 -0.000000 0.099653
 72 1.999105 -0.000000 0.000000 -0.000000 0.000000 0.099653
 73 3.118603 -0.000000 0.000000 0.000000 0.000000 0.000000
 74 5.028742 -7.322623 0.014163 -0.000000 0.000001 -1.536686
 75 4.835413 -2.118451 0.237901 -1.640610 -1.570796 0.000000
 76 4.348884 -2.776597 -10.995126 -0.332241 -1.939523 -1.299004
 77 -3.671424 -1.336568 -0.171207 -1.524006 0.347681 0.125368
 78 5.768712 3.982529 -9.173451 3.123039 -0.488369 1.434996
 79 0.067518 -2.350639 3.344429 -1.431170 1.082104 0.034906
 80 4.998852 8.565456 -5.001400 -0.235032 -1.930170 -1.495696
 81 -0.243932 -1.549036 2.646218 -1.431170 0.349066 0.087266
 82 3.580555 8.020455 5.032156 -0.090668 -1.202692 -1.648988
 83 -0.088494 -0.306856 4.016224 -1.431170 -0.366519 -0.034907
 84 5.006864 3.913798 9.043610 -3.019418 -1.169372 1.395466
 85 3.070842 -1.522966 0.101601 -1.563776 0.398264 -0.051684
 86 5.597604 -2.928179 10.743620 -0.135243 -1.220387 -1.490863
 87 2.930164 -2.309738 0.129155 -1.542557 -0.347073 -0.049239
 88 -39.882629 3.733586 0.061547 0.000001 -0.000003 -1.570796
time 6
  0 0.703607 -32.741692 38.498741 0.012707 0.366382 -1.600019
  1 9.289177 -0.307616 -24.207073 -0.365893 0.023170 1.598087
  2 -1.750869 -0.368805 -0.000000 0.000017 -1.568969 -1.570821
  3 4.433725 -0.004116 0.007961 0.005812 -0.035032 0.252585
  4 5.338808 -0.005509 -0.000036 0.006478 -0.019149 0.070704
  5 6.940576 -0.005231 -0.000034 0.006510 0.032431 0.123409
  6 6.620214 -0.004722 -0.000031 0.006492 0.019451 0.123322
  7 5.979036 -0.000997 -0.000000 -0.000000 -0.000000 0.017453
  8 1.252572 -0.000002 -0.000000 0.033804 -0.000143 -0.718184
  9 9.519544 -0.000001 -0.000000 0.000000 0.000000 0.000000
 10 -3.731833 9.544963 0.014183 -0.000000 0.000001 -1.675515
 11 -3.853210 -3.394494 0.000000 0.000000 0.000000 0.000000
 12 -0.000000 0.000990 2.684131 -0.831299 -1.278611 -2.350142
 13 7.524249 0.000003 -0.000002 -0.749917 0.098696 -1.585479
 14 11.423453 -0.000001 0.000001 -0.000000 0.000000 -0.886037
 15 13.479671 -0.000001 0.000001 -1.570000 0.016354 0.000000
 16 2.050501 0.662488 -1.659291 1.055273 0.885596 0.919630
 17 1.066189 0.000003 0.000005 0.000000 -0.000000 0.113514
 18 1.466009 -0.000003 -0.000002 -0.000000 0.000000 0.113514
 19 1.466010 -0.000003 0.000003 0.000000 0.000000 0.000000
 20 5.193862 -0.001291 -1.622129 -0.000865 0.401426 -0.000338
 21 1.525712 0.000003 -0.000001 0.000000 0.000000 0.000000
 22 1.473179 -0.000006 -0.000000 0.000000 0.000000 0.000000
 23 1.142345 0.000002 0.000000 0.000000 0.000000 0.000000
 24 4.977357 -0.298620 -0.436309 0.047536 0.133062 0.281524
 25 2.175556 0.000003 0.000000 0.000000 0.000000 0.000000
 26 1.705905 0.000002 0.000001 0.000000 0.000000 0.000000
 27 1.386044 0.000003 0.000002 0.000000 0.000000 0.000000
 28 5.227224 -0.016870 0.516780 -0.041333 -0.205381 0.196330
 29 1.850598 0.000003 0.000003 0.000000 0.000000 0.000000
 30 1.530748 -0.000006 -0.000003 0.000000 0.000000 0.000000
 31 1.302271 -0.000001 -0.000000 0.000000 0.000000 0.000000
 32 5.193864 0.001292 1.622130 -0.096033 -0.390377 0.246055
 33 1.485052 -0.000004 -0.000001 0.000000 0.000000 0.000000
 34 1.294649 0.000005 0.000002 0.000000 0.000000 0.000000
 35 0.951958 0.000000 0.000002 0.000000 0.000000 0.000000
 36 -0.000000 0.001002 -2.684131 0.831285 1.278615 -2.350155
 37 7.524249 0.000000 -0.000003 0.446781 -0.195865 -1.677159
 38 11.423452 0.000001 -0.000001 0.000000 0.000000 -1.106087
 39 13.708146 -0.000000 -0.000002 1.570000 -0.016354 0.000000
 40 1.195828 -0.033342 1.114691 -1.282531 -0.846341 0.949452
 41 1.294658 0.000000 -0.000001 -0.000000 0.000000 0.113514
 42 2.182009 0.000002 0.000000 0.000000 -0.000000 0.113514
 43 1.580245 -0.000001 0.000002 0.000000 0.000000 3.141593
 44 4.895135 -0.386527 1.693284 -0.089807 -0.373831 0.243734
 45 1.507894 0.000003 0.000002 0.000000 0.000000 0.000000
 46 1.370815 0.000004 0.000001 0.000000 0.000000 0.000000
 47 1.279428 -0.000007 0.000000 0.000000 0.000000 3.141593
 48 5.141356 -0.100721 0.541388 -0.030822 -0.136206 0.228940
 49 1.759208 0.000000 0.000005 0.000000 0.000000 0.000000
 50 1.599286 -0.000000 -0.000005 0.000000 0.000000 0.000000
 51 1.492665 -0.000003 0.000002 0.000000 0.000000 3.141593
 52 5.079526 -0.068059 -0.623693 0.088758 0.152840 0.229743
 53 1.688842 -0.000001 -0.000002 0.000000 0.000000 0.000000
 54 1.507895 -0.000000 -0.000003 0.000000 0.000000 0.000000
 55 1.279428 -0.000004 0.000002 0.000000 0.000000 3.141593
 56 5.141354 -0.098997 -1.621450 0.112242 0.406000 0.247378
 57 1.256581 0.000001 -0.000002 0.000000 0.000000 0.000000
 58 1.142348 -0.000005 0.000003 0.000000 0.000000 0.000000
 59 1.066186 0.000004 0.000000 0.000000 0.000000 3.141593
 60 -4.099209 1.144410 5.570043 -3.106927 -0.005930 1.376031
 61 17.308262 -0.000004 -0.000000 -0.000000 -0.000000 -1.321504
 62 15.463845 -0.000002 0.000000 -0.027241 0.037530 0.639615
 63 6.097306 3.126219 -0.000000 -0.000000 -0.000000 1.570796
 64 1.999108 0.000000 0.000000 -0.000000 -0.000000 0.004903
 65 1.999105 0.000002 -0.000001 0.000000 0.000000 0.004903
 66 3.118605 -0.000001 0.000000 0.000000 0.000000 3.141593
 67 -4.480101 1.081226 -5.298230 0.031009 -3.082371 -0.469829
 68 17.308266 0.000002 0.000000 -0.000000 0.000000 -1.574725
 69 15.463847 -0.000002 -0.000000 0.070107 -0.003013 0.098807
 70 6.097305 3.126218 -0.000000 -0.000000 -0.000000 1.570796
 71 1.999103 -0.000000 0.000000 0.000000 -0.000000 0.093241
 72 1.999104 0.000000 0.000000 -0.000000 0.000000 0.093241
 73 3.118604 -0.000001 0.000000 0.000000 0.000000 0.000000
 74 5.028742 -7.322621 0.014163 -0.000000 0.000001 -1.536686
 75 4.835415 -2.118448 0.237901 -1.640610 -1.570796 0.000000
 76 4.348888 -2.776597 -10.995126 -0.332241 -1.939523 -1.299004
 77 -3.671423 -1.336570 -0.171206 -1.524006 0.347681 0.125368
 78 5.768713 3.982529 -9.173451 3.123039 -0.488370 1.434996
 79 0.067520 -2.350640 3.344429 -1.431170 1.082104 0.034906
 80 4.998855 8.565456 -5.001400 -0.235033 -1.930170 -1.495696
 81 -0.243933 -1.549036 2.646216 -1.431170 0.349066 0.087266
 82 3.580555 8.020454 5.032156 -0.090668 -1.202692 -1.648988
 83 -0.088494 -0.306857 4.016223 -1.431170 -0.366519 -0.034907
 84 5.006866 3.913797 9.043611 -3.019418 -1.169372 1.395466
 85 3.070843 -1.522969 0.101602 -1.563776 0.398264 -0.051684
 86 5.597605 -2.928177 10.743620 -0.135243 -1.220387 -1.490863
 87 2.930164 -2.309741 0.129153 -1.542557 -0.347073 -0.049239
 88 -39.882629 3.733585 0.061547 0.000001 -0.000003 -1.570796
time 7
  0 0.216856 -42.249741 38.325432 -0.004421 0.365992 -1.623561
  1 9.869218 0.113841 -25.750483 -0.365745 0.014460 1.620069
  2 -2.193549 -0.221783 0.000003 0.000004 -1.554426 -1.570798
  3 4.433228 -0.004092 0.072648 -0.023902 -0.042377 0.275405
  4 5.338919 -0.005494 0.000111 -0.020100 -0.017373 0.093077
  5 6.940694 -0.005214 0.000105 -0.019942 0.035038 0.144399
  6 6.620318 -0.004715 0.000094 -0.019945 0.022198 0.144655
  7 5.979038 -0.000997 0.000000 0.000000 -0.000000 0.017453
  8 1.252568 0.000000 0.000000 0.122675 0.053704 -0.858445
  9 9.519543 0.000000 -0.000000 0.000000 0.000000 0.000000
 10 -3.731840 9.544963 0.014183 -0.000000 0.000001 -1.675515
 11 -3.853213 -3.394494 0.000000 0.000000 0.000000 0.000000
 12 -0.000004 0.000989 2.684131 -0.779294 -1.293211 -2.400053
 13 7.524250 -0.000001 0.000001 -0.801184 0.000701 -1.482942
 14 11.423454 0.000002 -0.000000 0.000000 0.000000 -0.886018
 15 13.479671 0.000000 -0.000003 -1.570000 0.016348 0.000000
 16 2.050501 0.662488 -1.659289 1.055273 0.885596 0.919630
 17 1.066190 -0.000004 0.000003 0.000000 0.000000 0.113517
 18 1.466009 0.000004 -0.000008 -0.000000 -0.000000 0.113517
 19 1.466010 0.000003 0.000002 0.000000 0.000000 0.000000
 20 5.193863 -0.001291 -1.622128 -0.000865 0.401426 -0.000338
 21 1.525720 -0.000001 -0.000001 0.000000 0.000000 0.000000
 22 1.473168 0.000000 -0.000001 0.000000 0.000000 0.000000
 23 1.142344 0.000001 -0.000002 0.000000 0.000000 0.000000
 24 4.977359 -0.298619 -0.436305 0.047536 0.133062 0.281524
 25 2.175559 -0.000003 -0.000002 0.000000 0.000000 0.000000
 26 1.705902 -0.000002 0.000003 0.000000 0.000000 0.000000
 27 1.386045 -0.000002 -0.000001 0.000000 0.000000 0.000000
 28 5.227216 -0.016867 0.516782 -0.041333 -0.205381 0.196330
 29 1.850599 -0.000000 -0.000001 0.000000 0.000000 0.000000
 30 1.530747 -0.000003 -0.000003 0.000000 0.000000 0.000000
 31 1.302273 -0.000002 0.000002 0.000000 0.000000 0.000000
 32 5.193861 0.001293 1.622131 -0.096033 -0.390377 0.246055
 33 1.485052 -0.000000 -0.000002 0.000000 0.000000 0.000000
 34 1.294650 0.000006 0.000006 0.000000 0.000000 0.000000
 35 0.951955 -0.000004 -0.000003 0.000000 0.000000 0.000000
 36 -0.000006 0.001005 -2.684131 0.779279 1.293215 -2.400068
 37 7.524248 0.000001 -0.000003 0.422608 -0.127172 -1.770890
 38 11.423450 -0.000001 0.000001 0.000000 0.000000 -1.106047
 39 13.708139 -0.000000 0.000005 1.570000 -0.016348 -0.000000
 40 1.195827 -0.033337 1.114692 -1.282531 -0.846341 0.949452
 41 1.294658 -0.000002 -0.000001 -0.000000 -0.000000 0.113517
 42 2.182010 -0.000007 -0.000001 0.000000 0.000000 0.113517
 43 1.580244 0.000002 0.000000 0.000000 0.000000 3.141593
 44 4.895137 -0.386525 1.693285 -0.089807 -0.373831 0.243734
 45 1.507893 0.000008 0.000003 0.000000 0.000000 0.000000
 46 1.370816 -0.000003 -0.000001 0.000000 0.000000 0.000000
 47 1.279429 -0.000006 -0.000001 0.000000 0.000000 3.141593
 48 5.141361 -0.100723 0.541389 -0.030822 -0.136206 0.228940
 49 1.759214 -0.000002 -0.000004 0.000000 0.000000 0.000000
 50 1.599284 -0.000001 0.000002 0.000000 0.000000 0.000000
 51 1.492663 -0.000001 0.000001 0.000000 0.000000 3.141593
 52 5.079526 -0.068055 -0.623693 0.088758 0.152840 0.229743
 53 1.688843 0.000001 0.000003 0.000000 0.000000 0.000000
 54 1.507897 0.000001 -0.000001 0.000000 0.000000 0.000000
 55 1.279427 0.000002 -0.000002 0.000000 0.000000 3.141593
 56 5.141360 -0.098999 -1.621451 0.112242 0.406000 0.247378
 57 1.256579 0.000002 -0.000001 0.000000 0.000000 0.000000
 58 1.142345 0.000001 -0.000000 0.000000 0.000000 0.000000
 59 1.066192 -0.000000 -0.000001 0.000000 0.000000 3.141593
 60 -4.033947 1.076736 5.568108 -3.120737 -0.035404 1.416369
 61 17.308264 -0.000003 -0.000000 0.000000 -0.000000 -0.856640
 62 15.463844 -0.000000 0.000000 -0.021594 0.044429 0.268092
 63 6.097303 3.126217 -0.000000 -0.000000 0.000000 1.570796
 64 1.999102 0.000000 -0.000000 -0.000000 0.000000 0.002971
 65 1.999107 -0.000003 0.000000 0.000000 -0.000000 0.002971
 66 3.118600 0.000001 -0.000000 0.000000 0.000000 3.141593
 67 -4.494647 1.336398 -5.294154 0.006325 -3.074637 -0.526922
 68 17.308268 0.000000 0.000000 0.000000 0.000000 -1.722658
 69 15.463845 -0.000001 -0.000000 0.071472 -0.013690 0.437448
 70 6.097306 3.126216 0.000000 -0.000000 0.000000 1.570796
 71 1.999104 -0.000001 0.000000 0.000000 0.000000 0.086830
 72 1.999105 0.000002 0.000000 -0.000000 0.000000 0.086830
 73 3.118604 -0.000001 -0.000000 0.000000 0.000000 0.000000
 74 5.028741 -7.322624 0.014163 -0.000000 0.000001 -1.536686
 75 4.835416 -2.118450 0.237900 -1.640610 -1.570796 0.000000
 76 4.348886 -2.776598 -10.995126 -0.332241 -1.939523 -1.299004
 77 -3.671423 -1.336568 -0.171208 -1.524006 0.347681 0.125368
 78 5.768711 3.982530 -9.173452 3.123039 -0.488370 1.434996
 79 0.067519 -2.350641 3.344429 -1.431170 1.082104 0.034906
 80 4.998852 8.565454 -5.001400 -0.235032 -1.930170 -1.495696
 81 -0.243933 -1.549037 2.646215 -1.431170 0.349066 0.087266
 82 3.580553 8.020454 5.032156 -0.090668 -1.202692 -1.648988
 83 -0.088494 -0.306860 4.016224 -1.431170 -0.366519 -0.034907
 84 5.006865 3.913797 9.043612 -3.019418 -1.169372 1.395466
 85 3.070842 -1.522968 0.101601 -1.563776 0.398264 -0.051684
 86 5.597604 -2.928178 10.743621 -0.135243 -1.220387 -1.490863
 87 2.930165 -2.309736 0.129153 -1.542557 -0.347073 -0.049239
 88 -39.882626 3.733588 0.061547 0.000001 -0.000003 -1.570796
time 8
  0 -0.269947 -51.704464 37.817524 -0.021481 0.365253 -1.644651
  1 9.971191 0.560063 -26.068428 -0.365825 0.004929 1.639772
  2 -1.739404 -0.118293 0.000001 -0.000002 -1.541292 -1.570794
  3 4.431787 -0.004108 0.130978 -0.050242 -0.049672 0.253523
  4 5.338799 -0.005509 0.000243 -0.044117 -0.016308 0.070914
  5 6.940575 -0.005226 0.000231 -0.043884 0.036761 0.120989
  6 6.620209 -0.004722 0.000208 -0.043875 0.024069 0.121546
  7 5.979035 -0.001002 -0.000001 0.000000 -0.000000 0.017453
  8 1.252573 -0.000002 -0.000000 0.197842 0.101872 -0.812255
  9 9.519541 0.000003 -0.000000 0.000000 0.000000 0.000000
 10 -3.731838 9.544964 0.014183 -0.000000 0.000001 -1.675515
 11 -3.853216 -3.394491 0.000000 0.000000 0.000000 0.000000
 12 0.000004 0.000992 2.684131 -0.507954 -1.342827 -2.662951
 13 7.524248 -0.000001 0.000001 -0.810245 0.063021 -1.297770
 14 11.423453 0.000005 -0.000003 0.000000 0.000000 -0.886018
 15 13.479674 0.000003 0.000001 -1.570000 0.016348 -0.000000
 16 2.050500 0.662487 -1.659292 1.055273 0.885596 0.919630
 17 1.066189 -0.000002 0.000002 0.000000 -0.000000 0.113517
 18 1.466011 -0.000001 -0.000002 0.000000 0.000000 0.113517
 19 1.466009 0.000002 0.000001 0.000000 0.000000 0.000000
 20 5.193862 -0.001291 -1.622130 -0.000865 0.401426 -0.000338
 21 1.525719 0.000000 -0.000001 0.000000 0.000000 0.000000
 22 1.473169 -0.000000 0.000001 0.000000 0.000000 0.000000
 23 1.142348 -0.000001 -0.000001 0.000000 0.000000 0.000000
 24 4.977361 -0.298621 -0.436307 0.047536 0.133062 0.281524
 25 2.175562 -0.000006 0.000000 0.000000 0.000000 0.000000
 26 1.705900 0.000003 0.000001 0.000000 0.000000 0.000000
 27 1.386047 0.000002 -0.000000 0.000000 0.000000 0.000000
 28 5.227222 -0.016871 0.516778 -0.041333 -0.205381 0.196330
 29 1.850596 0.000006 0.000000 0.000000 0.000000 0.000000
 30 1.530745 -0.000002 0.000002 0.000000 0.000000 0.000000
 31 1.302273 -0.000004 -0.000003 0.000000 0.000000 0.000000
 32 5.193860 0.001294 1.622131 -0.096033 -0.390377 0.246055
 33 1.485047 0.000003 0.000003 0.000000 0.000000 0.000000
 34 1.294665 -0.000001 -0.000003 0.000000 0.000000 0.000000
 35 0.951954 -0.000001 0.000001 0.000000 0.000000 0.000000
 36 0.000002 0.001005 -2.684130 0.507932 1.342830 -2.662972
 37 7.524246 0.000001 -0.000003 0.391151 -0.218436 -1.751206
 38 11.423454 -0.000001 0.000004 -0.000000 -0.000000 -1.106048
 39 13.708141 0.000003 0.000008 1.570000 -0.016348 -0.000000
 40 1.195830 -0.033346 1.114693 -1.282531 -0.846341 0.949452
 41 1.294658 -0.000002 -0.000003 0.000000 -0.000000 0.113517
 42 2.182009 0.000003 -0.000003 0.000000 0.000000 0.113517
 43 1.580244 0.000001 -0.000004 0.000000 0.000000 3.141593
 44 4.895137 -0.386529 1.693283 -0.089807 -0.373831 0.243734
 45 1.507898 -0.000003 0.000001 0.000000 0.000000 0.000000
 46 1.370812 0.000005 0.000002 0.000000 0.000000 0.000000
 47 1.279428 -0.000004 -0.000000 0.000000 0.000000 3.141593
 48 5.141360 -0.100727 0.541390 -0.030822 -0.136206 0.228940
 49 1.759212 -0.000000 0.000001 0.000000 0.000000 0.000000
 50 1.599281 0.000003 0.000001 0.000000 0.000000 0.000000
 51 1.492664 0.000003 0.000001 0.000000 0.000000 3.141593
 52 5.079527 -0.068061 -0.623693 0.088758 0.152840 0.229743
 53 1.688840 -0.000000 -0.000001 0.000000 0.000000 0.000000
 54 1.507896 -0.000000 -0.000002 0.000000 0.000000 0.000000
 55 1.279427 0.000000 0.000001 0.000000 0.000000 3.141593
 56 5.141361 -0.099004 -1.621452 0.112242 0.406000 0.247378
 57 1.256583 -0.000001 -0.000000 0.000000 0.000000 0.000000
 58 1.142344 0.000001 0.000000 0.000000 0.000000 0.000000
 59 1.066189 0.000002 -0.000000 0.000000 0.000000 3.141593
 60 -4.020336 0.837279 5.562068 -3.125057 -0.054492 1.506254
 61 17.308264 0.000002 -0.000001 0.000000 -0.000000 -0.825046
 62 15.463846 -0.000004 0.000000 -0.043452 0.044762 0.095985
 63 6.097306 3.126223 0.000000 -0.000000 0.000000 1.570796
 64 1.999104 0.000001 -0.000000 0.000000 -0.000000 0.001486
 65 1.999108 -0.000002 0.000000 0.000000 0.000000 0.001486
 66 3.118607 -0.000001 0.000000 0.000000 0.000000 3.141593
 67 -4.560290 1.382742 -5.285941 -0.011508 -3.063656 -0.618457
 68 17.308262 0.000001 -0.000000 -0.000000 -0.000000 -1.813022
 69 15.463845 0.000001 0.000000 0.075166 -0.017663 0.543277
 70 6.097307 3.126219 -0.000000 -0.000000 0.000000 1.570796
 71 1.999104 -0.000001 0.000000 -0.000000 0.000000 0.083072
 72 1.999107 -0.000002 -0.000001 0.000000 -0.000000 0.083072
 73 3.118602 0.000003 0.000000 0.000000 0.000000 0.000000
 74 5.028740 -7.322622 0.014163 -0.000000 0.000001 -1.536686
 75 4.835416 -2.118451 0.237900 -1.640610 -1.570796 0.000000
 76 4.348886 -2.776597 -10.995126 -0.332241 -1.939523 -1.299004
 77 -3.671423 -1.336571 -0.171207 -1.524006 0.347681 0.125368
 78 5.768708 3.982529 -9.173451 3.123039 -0.488370 1.434996
 79 0.067523 -2.350638 3.344429 -1.431170 1.082104 0.034906
 80 4.998850 8.565454 -5.001400 -0.235033 -1.930170 -1.495696
 81 -0.243932 -1.549038 2.646216 -1.431170 0.349066 0.087266
 82 3.580550 8.020455 5.032156 -0.090668 -1.202692 -1.648988
 83 -0.088494 -0.306859 4.016225 -1.431170 -0.366519 -0.034907
 84 5.006864 3.913796 9.043611 -3.019418 -1.169372 1.395466
 85 3.070841 -1.522966 0.101602 -1.563776 0.398264 -0.051684
 86 5.597603 -2.928179 10.743620 -0.135243 -1.220387 -1.490863
 87 2.930164 -2.309742 0.129156 -1.542557 -0.347073 -0.049239
 88 -39.882633 3.733588 0.061546 0.000001 -0.000003 -1.570796
time 9
  0 -0.665143 -60.754536 36.921879 -0.036478 0.364383 -1.660522
  1 10.274365 0.982408 -26.919556 -0.366098 -0.004411 1.654618
  2 -1.093167 -0.089821 -0.000003 -0.000001 -1.530616 -1.570794
  3 4.430008 -0.004136 0.178343 -0.068412 -0.057165 0.222750
  4 5.338627 -0.005513 0.000336 -0.060957 -0.016379 0.040001
  5 6.940413 -0.005234 0.000321 -0.060740 0.036930 0.089212
  6 6.620061 -0.004735 0.000288 -0.060726 0.024399 0.089974
  7 5.979036 -0.000999 -0.000001 -0.000000 -0.000000 0.017453
  8 1.252572 -0.000003 -0.000001 0.253598 0.126062 -0.706498
  9 9.519546 0.000003 0.000000 0.000000 0.000000 0.000000
 10 -3.731835 9.544960 0.014183 -0.000000 0.000001 -1.675515
 11 -3.853207 -3.394492 -0.000000 0.000000 0.000000 0.000000
 12 0.000002 0.000989 2.684130 0.311572 -1.360967 2.818184
 13 7.524247 0.000003 -0.000000 -0.804716 0.143545 -1.044140
 14 11.423457 -0.000004 -0.000002 0.000000 0.000000 -0.886018
 15 13.479671 -0.000001 -0.000004 -1.570000 0.016348 0.000000
 16 2.050503 0.662486 -1.659290 1.055273 0.885596 0.919630
 17 1.066190 -0.000004 0.000006 -0.000000 -0.000000 0.113517
 18 1.466010 0.000002 -0.000002 0.000000 -0.000000 0.113517
 19 1.466010 0.000003 -0.000004 0.000000 0.000000 0.000000
 20 5.193863 -0.001292 -1.622130 -0.000865 0.401426 -0.000338
 21 1.525719 -0.000001 0.000002 0.000000 0.000000 0.000000
 22 1.473171 -0.000004 -0.000005 0.000000 0.000000 0.000000
 23 1.142351 0.000002 0.000002 0.000000 0.000000 0.000000
 24 4.977363 -0.298622 -0.436307 0.047536 0.133062 0.281524
 25 2.175554 -0.000001 -0.000003 0.000000 0.000000 0.000000
 26 1.705911 -0.000007 0.000000 0.000000 0.000000 0.000000
 27 1.386045 0.000003 0.000001 0.000000 0.000000 0.000000
 28 5.227226 -0.016872 0.516780 -0.041333 -0.205381 0.196330
 29 1.850596 0.000002 -0.000002 0.000000 0.000000 0.000000
 30 1.530742 0.000002 0.000002 0.000000 0.000000 0.000000
 31 1.302274 0.000001 0.000002 0.000000 0.000000 0.000000
 32 5.193866 0.001291 1.622131 -0.096033 -0.390377 0.246055
 33 1.485052 -0.000002 -0.000002 0.000000 0.000000 0.000000
 34 1.294656 0.000000 -0.000001 0.000000 0.000000 0.000000
 35 0.951956 -0.000002 -0.000003 0.000000 0.000000 0.000000
 36 0.000005 0.001002 -2.684131 -0.311598 1.360966 2.818159
 37 7.524249 0.000002 0.000005 0.369205 -0.319637 -1.608028
 38 11.423455 -0.000002 0.000002 -0.000000 -0.000000 -1.106048
 39 13.708145 0.000002 0.000006 1.570000 -0.016348 -0.000000
 40 1.195827 -0.033338 1.114693 -1.282531 -0.846341 0.949451
 41 1.294659 0.000001 0.000005 -0.000000 0.000000 0.113517
 42 2.182007 0.000002 -0.000011 0.000000 -0.000000 0.113517
 43 1.580245 -0.000002 -0.000002 0.000000 0.000000 3.141593
 44 4.895137 -0.386525 1.693285 -0.089807 -0.373831 0.243734
 45 1.507896 0.000000 -0.000000 0.000000 0.000000 0.000000
 46 1.370811 0.000006 0.000002 0.000000 0.000000 0.000000
 47 1.279428 -0.000004 0.000000 0.000000 0.000000 3.141593
 48 5.141359 -0.100719 0.541386 -0.030822 -0.136206 0.228940
 49 1.759211 0.000002 -0.000000 0.000000 0.000000 0.000000
 50 1.599283 0.000002 -0.000001 0.000000 0.000000 0.000000
 51 1.492665 0.000005 0.000000 0.000000 0.000000 3.141593
 52 5.079527 -0.068057 -0.623691 0.088758 0.152840 0.229743
 53 1.688843 0.000001 -0.000001 0.000000 0.000000 0.000000
 54 1.507897 0.000001 -0.000002 0.000000 0.000000 0.000000
 55 1.279428 0.000003 -0.000003 0.000000 0.000000 3.141593
 56 5.141362 -0.099000 -1.621451 0.112242 0.406000 0.247378
 57 1.256579 0.000003 -0.000000 0.000000 0.000000 0.000000
 58 1.142348 0.000000 -0.000001 0.000000 0.000000 0.000000
 59 1.066189 -0.000001 0.000001 0.000000 0.000000 3.141593
 60 -4.012120 0.604596 5.551743 -0.026275 -3.074069 -0.946323
 61 17.308266 0.000006 0.000000 0.000000 -0.000000 -0.004534
 62 15.463842 -0.000008 0.000000 -0.065790 0.030087 -0.318616
 63 6.097306 3.126225 0.000000 -0.000000 -0.000000 1.570796
 64 1.999096 0.000000 0.000000 -0.000000 0.000000 0.000000
 65 1.999103 -0.000000 0.000000 0.000000 -0.000000 0.000000
 66 3.118608 0.000000 0.000000 0.000000 0.000000 3.141593
 67 -4.633440 1.346768 -5.280226 -0.019735 -3.051994 -0.716179
 68 17.308264 -0.000000 -0.000000 -0.000000 -0.000000 -1.883807
 69 15.463846 0.000001 -0.000000 0.078127 -0.022024 0.614367
 70 6.097307 3.126218 -0.000000 -0.000000 0.000000 1.570796
 71 1.999104 0.000002 0.000000 -0.000000 -0.000000 0.073235
 72 1.999104 -0.000002 -0.000001 0.000000 0.000000 0.073235
 73 3.118603 0.000002 0.000000 0.000000 0.000000 0.000000
 74 5.028744 -7.322623 0.014163 -0.000000 0.000001 -1.536686
 75 4.835414 -2.118449 0.237900 -1.640610 -1.570796 0.000000
 76 4.348888 -2.776598 -10.995126 -0.332241 -1.939523 -1.299004
 77 -3.671422 -1.336562 -0.171205 -1.524006 0.347681 0.125368
 78 5.768715 3.982532 -9.173450 3.123039 -0.488370 1.434996
 79 0.067523 -2.350642 3.344429 -1.431170 1.082104 0.034906
 80 4.998854 8.565456 -5.001400 -0.235032 -1.930170 -1.495696
 81 -0.243932 -1.549036 2.646217 -1.431170 0.349066 0.087266
 82 3.580554 8.020456 5.032156 -0.090668 -1.202692 -1.648988
 83 -0.088494 -0.306860 4.016223 -1.431170 -0.366519 -0.034907
 84 5.006866 3.913799 9.043611 -3.019418 -1.169372 1.395466
 85 3.070843 -1.522970 0.101602 -1.563776 0.398264 -0.051684
 86 5.597604 -2.928181 10.743619 -0.135243 -1.220387 -1.490863
 87 2.930164 -2.309739 0.129154 -1.542557 -0.347073 -0.049240
 88 -39.882626 3.733584 0.061546 0.000001 -0.000003 -1.570796
time 10
  0 -1.000288 -68.972359 36.638359 -0.047438 0.363714 -1.668462
  1 12.836064 1.599082 -33.683628 -0.366453 -0.012544 1.662062
  2 -0.881496 -0.079866 0.000002 0.000000 -1.523440 -1.570795
  3 4.428569 -0.004144 0.210161 -0.076353 -0.062817 0.212916
  4 5.338577 -0.005508 0.000375 -0.067809 -0.016366 0.030078
  5 6.940362 -0.005248 0.000355 -0.067608 0.036522 0.078974
  6 6.620010 -0.004737 0.000321 -0.067593 0.024186 0.079809
  7 5.979038 -0.001001 -0.000001 0.000000 -0.000000 0.017453
  8 1.252570 0.000002 0.000001 0.275419 0.129902 -0.653288
  9 9.519543 -0.000004 -0.000000 0.000000 0.000000 0.000000
 10 -3.731839 9.544961 0.014183 -0.000000 0.000001 -1.675515
 11 -3.853214 -3.394492 0.000000 0.000000 0.000000 0.000000
 12 -0.000003 0.000992 2.684131 0.737428 -1.303492 2.403877
 13 7.524250 -0.000001 0.000005 -0.811626 0.160118 -0.900917
 14 11.423452 -0.000002 0.000003 0.000000 0.000000 -0.886018
 15 13.479674 -0.000001 0.000001 -1.570000 0.016348 0.000000
 16 2.050503 0.662488 -1.659294 1.055273 0.885596 0.919630
 17 1.066191 -0.000003 0.000006 -0.000000 -0.000000 0.113517
 18 1.466007 0.000009 -0.000008 0.000000 0.000000 0.113517
 19 1.466010 -0.000004 0.000002 0.000000 0.000000 0.000000
 20 5.193867 -0.001291 -1.622131 -0.000865 0.401426 -0.000338
 21 1.525723 0.000001 0.000003 0.000000 0.000000 0.000000
 22 1.473158 0.000005 -0.000004 0.000000 0.000000 0.000000
 23 1.142346 -0.000003 0.000002 0.000000 0.000000 0.000000
 24 4.977360 -0.298619 -0.436311 0.047536 0.133062 0.281524
 25 2.175565 -0.000007 -0.000001 0.000000 0.000000 0.000000
 26 1.705894 0.000009 0.000001 0.000000 0.000000 0.000000
 27 1.386046 -0.000001 -0.000002 0.000000 0.000000 0.000000
 28 5.227221 -0.016867 0.516779 -0.041333 -0.205381 0.196330
 29 1.850599 0.000002 -0.000001 0.000000 0.000000 0.000000
 30 1.530743 0.000004 0.000000 0.000000 0.000000 0.000000
 31 1.302275 0.000003 -0.000000 0.000000 0.000000 0.000000
 32 5.193869 0.001292 1.622130 -0.096033 -0.390377 0.246055
 33 1.485045 0.000001 -0.000003 0.000000 0.000000 0.000000
 34 1.294658 0.000000 -0.000003 0.000000 0.000000 0.000000
 35 0.951952 0.000002 -0.000002 0.000000 0.000000 0.000000
 36 0.000001 0.001012 -2.684129 -0.737444 1.303488 2.403861
 37 7.524251 0.000002 0.000003 0.363275 -0.341683 -1.509951
 38 11.423452 0.000000 0.000000 -0.000000 -0.000000 -1.106048
 39 13.708148 0.000001 0.000000 1.570000 -0.016348 -0.000000
 40 1.195828 -0.033343 1.114691 -1.282531 -0.846341 0.949452
 41 1.294658 0.000001 -0.000001 -0.000000 0.000000 0.113517
 42 2.182010 -0.000001 0.000004 0.000000 -0.000000 0.113517
 43 1.580244 -0.000004 -0.000005 0.000000 0.000000 3.141593
 44 4.895136 -0.386529 1.693283 -0.089807 -0.373831 0.243734
 45 1.507896 0.000003 -0.000001 0.000000 0.000000 0.000000
 46 1.370813 0.000005 0.000002 0.000000 0.000000 0.000000
 47 1.279429 -0.000004 -0.000002 0.000000 0.000000 3.141593
 48 5.141357 -0.100724 0.541389 -0.030822 -0.136206 0.228940
 49 1.759212 0.000001 -0.000002 0.000000 0.000000 0.000000
 50 1.599283 0.000002 0.000002 0.000000 0.000000 0.000000
 51 1.492667 -0.000000 -0.000001 0.000000 0.000000 3.141593
 52 5.079527 -0.068060 -0.623694 0.088758 0.152840 0.229743
 53 1.688843 0.000004 -0.000002 0.000000 0.000000 0.000000
 54 1.507900 -0.000002 -0.000000 0.000000 0.000000 0.000000
 55 1.279425 0.000001 -0.000001 0.000000 0.000000 3.141593
 56 5.141361 -0.099004 -1.621453 0.112242 0.406000 0.247378
 57 1.256579 0.000003 -0.000001 0.000000 0.000000 0.000000
 58 1.142348 0.000002 -0.000001 0.000000 0.000000 0.000000
 59 1.066189 0.000002 -0.000000 0.000000 0.000000 3.141593
 60 -3.991010 0.518449 5.544466 -0.043304 -3.077800 -0.710724
 61 17.308266 0.000006 -0.000000 0.000000 0.000000 -0.003348
 62 15.463845 -0.000006 -0.000000 -0.080831 0.036050 -0.163521
 63 6.097305 3.126213 0.000000 -0.000000 0.000000 1.570796
 64 1.999101 -0.000000 -0.000000 -0.000000 0.000000 0.015071
 65 1.999102 -0.000000 -0.000000 -0.000000 -0.000000 0.015071
 66 3.118608 0.000000 0.000000 0.000000 0.000000 3.141593
 67 -4.673687 1.346345 -5.277592 -0.015451 -3.043605 -0.848045
 68 17.308266 0.000002 -0.000000 -0.000000 0.000000 -1.937267
 69 15.463850 -0.000002 -0.000000 0.080415 -0.026896 0.659437
 70 6.097308 3.126218 -0.000000 -0.000000 0.000000 1.570796
 71 1.999105 0.000003 -0.000000 -0.000000 -0.000000 0.061076
 72 1.999104 -0.000000 0.000000 0.000000 -0.000000 0.061076
 73 3.118602 -0.000001 -0.000000 0.000000 0.000000 0.000000
 74 5.028744 -7.322621 0.014163 -0.000000 0.000001 -1.536686
 75 4.835416 -2.118447 0.237901 -1.640610 -1.570796 0.000000
 76 4.348885 -2.776600 -10.995127 -0.332241 -1.939523 -1.299004
 77 -3.671422 -1.336564 -0.171203 -1.524006 0.347681 0.125368
 78 5.768711 3.982529 -9.173452 3.123039 -0.488370 1.434996
 79 0.067522 -2.350636 3.344428 -1.431170 1.082104 0.034906
 80 4.998854 8.565454 -5.001401 -0.235032 -1.930170 -1.495696
 81 -0.243931 -1.549035 2.646218 -1.431170 0.349066 0.087266
 82 3.580553 8.020454 5.032156 -0.090668 -1.202692 -1.648988
 83 -0.088493 -0.306859 4.016222 -1.431170 -0.366519 -0.034907
 84 5.006866 3.913796 9.043611 -3.019418 -1.169372 1.395466
 85 3.070842 -1.522972 0.101604 -1.563776 0.398264 -0.051684
 86 5.597604 -2.928181 10.743620 -0.135243 -1.220387 -1.490863
 87 2.930164 -2.309743 0.129159 -1.542557 -0.347073 -0.049239
 88 -39.882629 3.733587 0.061546 0.000001 -0.000003 -1.570796
time 11
  0 -1.314327 -76.665611 37.083839 -0.050388 0.364064 -1.652777
  1 13.773223 1.820527 -36.099640 -0.366802 -0.021077 1.647410
  2 -0.750149 -0.076354 0.000002 0.000000 -1.520791 -1.570795
  3 4.427975 -0.004149 0.221909 -0.080455 -0.064552 0.206801
  4 5.338532 -0.005507 0.000396 -0.071656 -0.016354 0.023929
  5 6.940332 -0.005242 0.000377 -0.071471 0.035908 0.072681
  6 6.619979 -0.004741 0.000338 -0.071454 0.023778 0.073549
  7 5.979038 -0.001001 -0.000001 -0.000000 -0.000000 0.017453
  8 1.252571 0.000000 0.000000 0.288104 0.122383 -0.593471
  9 9.519538 -0.000006 0.000000 0.000000 0.000000 0.000000
 10 -3.731839 9.544955 0.014183 -0.000000 0.000001 -1.675515
 11 -3.853210 -3.394491 -0.000000 0.000000 0.000000 0.000000
 12 0.000005 0.000993 2.684132 0.584122 -1.332417 2.552342
 13 7.524247 0.000005 -0.000006 -0.800803 0.189352 -0.927758
 14 11.423457 -0.000002 -0.000004 0.000000 0.000000 -0.886018
 15 13.479677 -0.000003 0.000003 -1.570000 0.016348 -0.000000
 16 2.050500 0.662486 -1.659294 1.055273 0.885596 0.919630
 17 1.066190 0.000004 0.000002 0.000000 -0.000000 0.113517
 18 1.466011 0.000001 0.000003 -0.000000 0.000000 0.113517
 19 1.466009 0.000005 0.000002 0.000000 0.000000 0.000000
 20 5.193859 -0.001289 -1.622131 -0.000865 0.401426 -0.000338
 21 1.525715 -0.000001 -0.000001 0.000000 0.000000 0.000000
 22 1.473173 -0.000000 0.000002 0.000000 0.000000 0.000000
 23 1.142344 -0.000001 -0.000002 0.000000 0.000000 0.000000
 24 4.977359 -0.298620 -0.436309 0.047536 0.133062 0.281524
 25 2.175555 0.000001 0.000001 0.000000 0.000000 0.000000
 26 1.705905 0.000001 0.000000 0.000000 0.000000 0.000000
 27 1.386049 0.000000 -0.000000 0.000000 0.000000 0.000000
 28 5.227215 -0.016867 0.516779 -0.041333 -0.205381 0.196330
 29 1.850602 0.000000 0.000001 0.000000 0.000000 0.000000
 30 1.530745 -0.000001 -0.000001 0.000000 0.000000 0.000000
 31 1.302271 -0.000001 -0.000001 0.000000 0.000000 0.000000
 32 5.193860 0.001292 1.622127 -0.096033 -0.390377 0.246055
 33 1.485047 0.000003 0.000000 0.000000 0.000000 0.000000
 34 1.294659 0.000004 0.000002 0.000000 0.000000 0.000000
 35 0.951956 -0.000004 0.000002 0.000000 0.000000 0.000000
 36 -0.000002 0.001005 -2.684131 -0.584142 1.332413 2.552322
 37 7.524249 0.000001 -0.000006 0.359982 -0.378508 -1.564443
 38 11.423455 0.000001 0.000005 -0.000000 -0.000000 -1.106048
 39 13.708147 -0.000001 -0.000004 1.570000 -0.016348 0.000000
 40 1.195828 -0.033341 1.114691 -1.282531 -0.846341 0.949452
 41 1.294658 0.000000 -0.000000 -0.000000 -0.000000 0.113517
 42 2.182009 -0.000001 -0.000001 0.000000 0.000000 0.113517
 43 1.580245 0.000001 0.000001 0.000000 0.000000 3.141593
 44 4.895135 -0.386526 1.693284 -0.089807 -0.373831 0.243734
 45 1.507896 -0.000000 0.000002 0.000000 0.000000 0.000000
 46 1.370813 0.000003 -0.000000 0.000000 0.000000 0.000000
 47 1.279429 0.000001 -0.000001 0.000000 0.000000 3.141593
 48 5.141359 -0.100721 0.541387 -0.030822 -0.136206 0.228940
 49 1.759213 -0.000002 -0.000001 0.000000 0.000000 0.000000
 50 1.599284 -0.000002 0.000002 0.000000 0.000000 0.000000
 51 1.492664 -0.000002 0.000001 0.000000 0.000000 3.141593
 52 5.079527 -0.068059 -0.623692 0.088758 0.152840 0.229743
 53 1.688841 0.000003 0.000003 0.000000 0.000000 0.000000
 54 1.507896 0.000007 -0.000003 0.000000 0.000000 0.000000
 55 1.279428 -0.000002 0.000001 0.000000 0.000000 3.141593
 56 5.141357 -0.098998 -1.621453 0.112242 0.406000 0.247378
 57 1.256579 0.000004 0.000001 0.000000 0.000000 0.000000
 58 1.142344 0.000004 0.000001 0.000000 0.000000 0.000000
 59 1.066189 -0.000001 -0.000001 0.000000 0.000000 3.141593
 60 -3.987317 0.469550 5.539942 -0.057182 -3.093350 -0.482290
 61 17.308264 0.000000 0.000000 0.000000 0.000000 -0.002561
 62 15.463846 -0.000001 0.000000 -0.070787 0.041343 -0.001011
 63 6.097306 3.126219 0.000000 -0.000000 -0.000000 1.570796
 64 1.999103 0.000000 -0.000000 0.000000 0.000000 0.051457
 65 1.999106 0.000000 -0.000000 -0.000000 -0.000000 0.051457
 66 3.118600 0.000000 -0.000000 0.000000 0.000000 3.141593
 67 -4.688824 1.341733 -5.277431 -0.006204 -3.037499 -0.994107
 68 17.308264 0.000001 0.000000 0.000000 -0.000000 -1.975511
 69 15.463848 0.000002 0.000001 0.081704 -0.032541 0.686828
 70 6.097304 3.126218 -0.000000 -0.000000 -0.000000 1.570796
 71 1.999105 0.000002 -0.000000 -0.000000 0.000000 0.051238
 72 1.999104 -0.000000 -0.000000 0.000000 -0.000000 0.051238
 73 3.118601 -0.000000 0.000000 0.000000 0.000000 0.000000
 74 5.028738 -7.322624 0.014163 -0.000000 0.000001 -1.536686
 75 4.835413 -2.118446 0.237901 -1.640610 -1.570796 0.000000
 76 4.348882 -2.776598 -10.995126 -0.332241 -1.939523 -1.299004
 77 -3.671421 -1.336563 -0.171204 -1.524006 0.347681 0.125368
 78 5.768709 3.982530 -9.173451 3.123039 -0.488370 1.434996
 79 0.067519 -2.350635 3.344429 -1.431170 1.082104 0.034906
 80 4.998848 8.565454 -5.001400 -0.235032 -1.930170 -1.495696
 81 -0.243932 -1.549038 2.646218 -1.431170 0.349066 0.087266
 82 3.580547 8.020453 5.032156 -0.090668 -1.202692 -1.648988
 83 -0.088494 -0.306859 4.016225 -1.431170 -0.366519 -0.034907
 84 5.006861 3.913798 9.043611 -3.019418 -1.169372 1.395466
 85 3.070843 -1.522966 0.101604 -1.563776 0.398264 -0.051684
 86 5.597603 -2.928175 10.743620 -0.135243 -1.220387 -1.490863
 87 2.930164 -2.309739 0.129154 -1.542557 -0.347073 -0.049239
 88 -39.882633 3.733586 0.061545 0.000001 -0.000003 -1.570796
time 12
  0 -1.526293 -84.586975 37.834755 -0.045097 0.365255 -1.616150
  1 13.998755 1.650267 -36.569073 -0.366822 -0.028862 1.613174
  2 -0.699630 -0.076267 -0.000003 0.000000 -1.524926 -1.570795
  3 4.428845 -0.004151 0.203596 -0.080228 -0.060104 0.204358
  4 5.338521 -0.005509 0.000400 -0.072373 -0.016266 0.021528
  5 6.940318 -0.005245 0.000379 -0.072195 0.035232 0.070301
  6 6.619976 -0.004732 0.000344 -0.072178 0.023302 0.071163
  7 5.979041 -0.000999 -0.000001 0.000000 -0.000000 0.017453
  8 1.252573 0.000002 0.000001 0.290926 0.108785 -0.541680
  9 9.519544 -0.000003 0.000000 0.000000 0.000000 0.000000
 10 -3.731838 9.544964 0.014183 -0.000000 0.000001 -1.675515
 11 -3.853210 -3.394497 0.000000 0.000000 0.000000 0.000000
 12 -0.000001 0.000988 2.684130 0.213013 -1.366298 2.914639
 13 7.524250 -0.000003 0.000005 -0.787523 0.211970 -1.006848
 14 11.423455 -0.000001 -0.000000 0.000000 0.000000 -0.886018
 15 13.479681 -0.000002 0.000003 -1.570000 0.016348 -0.000000
 16 2.050502 0.662484 -1.659294 1.055273 0.885596 0.919630
 17 1.066188 -0.000002 0.000004 0.000000 0.000000 0.113517
 18 1.466009 0.000006 -0.000011 -0.000000 0.000000 0.113517
 19 1.466009 -0.000002 -0.000002 0.000000 0.000000 0.000000
 20 5.193869 -0.001296 -1.622130 -0.000865 0.401426 -0.000338
 21 1.525714 0.000001 0.000000 0.000000 0.000000 0.000000
 22 1.473172 0.000001 -0.000001 0.000000 0.000000 0.000000
 23 1.142343 0.000001 0.000001 0.000000 0.000000 0.000000
 24 4.977362 -0.298623 -0.436308 0.047536 0.133062 0.281524
 25 2.175563 -0.000003 0.000003 0.000000 0.000000 0.000000
 26 1.705908 -0.000008 -0.000005 0.000000 0.000000 0.000000
 27 1.386045 -0.000000 0.000000 0.000000 0.000000 0.000000
 28 5.227225 -0.016874 0.516779 -0.041333 -0.205381 0.196330
 29 1.850598 -0.000001 -0.000000 0.000000 0.000000 0.000000
 30 1.530744 -0.000003 -0.000001 0.000000 0.000000 0.000000
 31 1.302269 -0.000001 0.000001 0.000000 0.000000 0.000000
 32 5.193863 0.001290 1.622129 -0.096033 -0.390377 0.246055
 33 1.485047 -0.000001 -0.000001 0.000000 0.000000 0.000000
 34 1.294661 -0.000003 -0.000003 0.000000 0.000000 0.000000
 35 0.951953 -0.000002 -0.000002 0.000000 0.000000 0.000000
 36 0.000001 0.001009 -2.684129 -0.213040 1.366297 2.914613
 37 7.524249 0.000005 -0.000000 0.360536 -0.405679 -1.650995
 38 11.423455 -0.000001 0.000003 -0.000000 -0.000000 -1.106048
 39 13.708144 -0.000001 0.000003 1.570000 -0.016348 -0.000000
 40 1.195828 -0.033343 1.114691 -1.282531 -0.846341 0.949452
 41 1.294659 0.000002 0.000001 -0.000000 -0.000000 0.113517
 42 2.182009 0.000000 0.000000 0.000000 -0.000000 0.113517
 43 1.580245 0.000000 0.000001 0.000000 0.000000 3.141593
 44 4.895134 -0.386528 1.693284 -0.089807 -0.373831 0.243734
 45 1.507894 0.000001 0.000002 0.000000 0.000000 0.000000
 46 1.370817 -0.000001 -0.000002 0.000000 0.000000 0.000000
 47 1.279426 -0.000004 0.000000 0.000000 0.000000 3.141593
 48 5.141357 -0.100724 0.541388 -0.030821 -0.136206 0.228940
 49 1.759212 -0.000001 0.000004 0.000000 0.000000 0.000000
 50 1.599283 -0.000000 -0.000002 0.000000 0.000000 0.000000
 51 1.492663 -0.000000 -0.000001 0.000000 0.000000 3.141593
 52 5.079523 -0.068059 -0.623692 0.088758 0.152840 0.229743
 53 1.688850 -0.000007 -0.000003 0.000000 0.000000 0.000000
 54 1.507893 0.000003 0.000002 0.000000 0.000000 0.000000
 55 1.279427 0.000003 0.000002 0.000000 0.000000 3.141593
 56 5.141357 -0.099003 -1.621451 0.112242 0.406000 0.247378
 57 1.256584 -0.000004 -0.000001 0.000000 0.000000 0.000000
 58 1.142344 0.000006 -0.000000 0.000000 0.000000 0.000000
 59 1.066189 -0.000004 0.000000 0.000000 0.000000 3.141593
 60 -4.013627 0.460379 5.539678 -0.065706 -3.109486 -0.266552
 61 17.308262 -0.000001 0.000000 0.000000 0.000000 -0.001922
 62 15.463846 -0.000003 0.000000 -0.039213 0.044875 0.229673
 63 6.097306 3.126223 -0.000000 -0.000000 -0.000000 1.570796
 64 1.999099 -0.000000 -0.000000 -0.000000 -0.000000 0.087846
 65 1.999105 -0.000000 0.000000 -0.000000 0.000000 0.087846
 66 3.118602 -0.000000 0.000000 0.000000 0.000000 3.141593
 67 -4.666865 1.330349 -5.280897 0.006936 -3.035448 -1.151442
 68 17.308266 0.000004 0.000000 -0.000000 0.000000 -2.000558
 69 15.463846 0.000001 -0.000001 0.081557 -0.039171 0.705300
 70 6.097300 3.126222 -0.000000 -0.000000 0.000000 1.570796
 71 1.999104 -0.000002 0.000000 -0.000000 -0.000000 0.047480
 72 1.999105 0.000004 -0.000001 0.000000 0.000000 0.047480
 73 3.118602 0.000001 0.000000 0.000000 0.000000 0.000000
 74 5.028742 -7.322622 0.014163 -0.000000 0.000001 -1.536686
 75 4.835414 -2.118446 0.237900 -1.640610 -1.570796 0.000000
 76 4.348883 -2.776601 -10.995127 -0.332241 -1.939523 -1.299004
 77 -3.671424 -1.336566 -0.171210 -1.524006 0.347681 0.125368
 78 5.768712 3.982531 -9.173451 3.123039 -0.488369 1.434996
 79 0.067517 -2.350640 3.344431 -1.431170 1.082104 0.034906
 80 4.998852 8.565454 -5.001400 -0.235032 -1.930170 -1.495696
 81 -0.243933 -1.549041 2.646211 -1.431170 0.349066 0.087266
 82 3.580554 8.020455 5.032156 -0.090668 -1.202692 -1.648988
 83 -0.088494 -0.306860 4.016220 -1.431170 -0.366519 -0.034907
 84 5.006865 3.913799 9.043611 -3.019418 -1.169372 1.395466
 85 3.070844 -1.522963 0.101605 -1.563776 0.398264 -0.051684
 86 5.597604 -2.928177 10.743621 -0.135243 -1.220387 -1.490863
 87 2.930165 -2.309738 0.129156 -1.542557 -0.347073 -0.049239
 88 -39.882629 3.733589 0.061546 0.000001 -0.000003 -1.570796
time 13
  0 -1.554677 -93.491280 38.464672 -0.035292 0.366122 -1.583583
  1 13.505618 1.242902 -35.203163 -0.366517 -0.030712 1.582741
  2 -0.730789 -0.078442 0.000000 0.000002 -1.536000 -1.570796
  3 4.430837 -0.004148 0.154528 -0.075505 -0.049326 0.205634
  4 5.338524 -0.005513 0.000385 -0.069819 -0.016059 0.022900
  5 6.940322 -0.005246 0.000366 -0.069636 0.034603 0.071851
  6 6.619985 -0.004731 0.000333 -0.069621 0.022850 0.072671
  7 5.979033 -0.001000 -0.000001 -0.000000 -0.000000 0.017453
  8 1.252569 0.000004 0.000001 0.283727 0.094965 -0.512305
  9 9.519547 -0.000001 -0.000000 0.000000 0.000000 0.000000
 10 -3.731835 9.544961 0.014183 -0.000000 0.000001 -1.675515
 11 -3.853214 -3.394490 0.000000 0.000000 0.000000 0.000000
 12 -0.000005 0.000991 2.684130 -0.308759 -1.361151 -2.857434
 13 7.524248 0.000001 0.000001 -0.776342 0.225701 -1.119311
 14 11.423455 -0.000004 0.000003 0.000000 0.000000 -0.886018
 15 13.479669 0.000002 -0.000000 -1.570000 0.016348 0.000000
 16 2.050501 0.662487 -1.659292 1.055273 0.885596 0.919630
 17 1.066190 0.000002 0.000005 -0.000000 -0.000000 0.113517
 18 1.466009 0.000001 -0.000006 -0.000000 0.000000 0.113517
 19 1.466010 -0.000004 0.000005 0.000000 0.000000 0.000000
 20 5.193858 -0.001288 -1.622129 -0.000865 0.401426 -0.000338
 21 1.525718 -0.000004 0.000002 0.000000 0.000000 0.000000
 22 1.473166 0.000004 -0.000002 0.000000 0.000000 0.000000
 23 1.142344 -0.000004 -0.000001 0.000000 0.000000 0.000000
 24 4.977353 -0.298617 -0.436307 0.047536 0.133062 0.281524
 25 2.175551 0.000000 -0.000002 0.000000 0.000000 0.000000
 26 1.705907 -0.000004 0.000003 0.000000 0.000000 0.000000
 27 1.386046 0.000001 -0.000001 0.000000 0.000000 0.000000
 28 5.227214 -0.016866 0.516780 -0.041333 -0.205381 0.196330
 29 1.850593 0.000007 0.000000 0.000000 0.000000 0.000000
 30 1.530744 -0.000003 -0.000002 0.000000 0.000000 0.000000
 31 1.302270 -0.000000 -0.000000 0.000000 0.000000 0.000000
 32 5.193857 0.001296 1.622131 -0.096033 -0.390377 0.246055
 33 1.485043 0.000005 0.000007 0.000000 0.000000 0.000000
 34 1.294661 -0.000009 -0.000006 0.000000 0.000000 0.000000
 35 0.951956 0.000001 0.000003 0.000000 0.000000 0.000000
 36 -0.000002 0.001006 -2.684131 0.308734 1.361152 -2.857460
 37 7.524248 0.000003 0.000002 0.365653 -0.418655 -1.748693
 38 11.423452 0.000001 0.000005 -0.000000 -0.000000 -1.106048
 39 13.708144 -0.000000 -0.000001 1.570000 -0.016348 0.000000
 40 1.195825 -0.033343 1.114693 -1.282531 -0.846341 0.949451
 41 1.294657 0.000006 -0.000000 0.000000 -0.000000 0.113517
 42 2.182010 -0.000001 -0.000002 0.000000 -0.000000 0.113517
 43 1.580245 0.000002 -0.000000 0.000000 0.000000 3.141593
 44 4.895132 -0.386527 1.693285 -0.089807 -0.373831 0.243734
 45 1.507893 -0.000001 0.000001 0.000000 0.000000 0.000000
 46 1.370815 -0.000002 -0.000001 0.000000 0.000000 0.000000
 47 1.279428 -0.000003 -0.000001 0.000000 0.000000 3.141593
 48 5.141358 -0.100725 0.541387 -0.030821 -0.136206 0.228940
 49 1.759210 0.000002 0.000002 0.000000 0.000000 0.000000
 50 1.599287 -0.000001 -0.000001 0.000000 0.000000 0.000000
 51 1.492664 -0.000003 -0.000000 0.000000 0.000000 3.141593
 52 5.079523 -0.068058 -0.623694 0.088758 0.152840 0.229743
 53 1.688844 0.000001 0.000001 0.000000 0.000000 0.000000
 54 1.507897 0.000002 0.000001 0.000000 0.000000 0.000000
 55 1.279426 0.000004 0.000001 0.000000 0.000000 3.141593
 56 5.141354 -0.098999 -1.621452 0.112242 0.406000 0.247378
 57 1.256580 -0.000001 0.000001 0.000000 0.000000 0.000000
 58 1.142341 0.000008 -0.000002 0.000000 0.000000 0.000000
 59 1.066189 -0.000002 0.000003 0.000000 0.000000 3.141593
 60 -4.070884 0.492046 5.543345 -0.066771 -3.121377 -0.073138
 61 17.308262 0.000000 -0.000000 -0.000000 0.000000 -0.001922
 62 15.463845 0.000002 0.000000 -0.013882 0.030075 0.073908
 63 6.097305 3.126216 -0.000000 -0.000000 -0.000000 1.570796
 64 1.999107 0.000000 -0.000000 0.000000 0.000000 0.102920
 65 1.999112 0.000001 -0.000000 -0.000000 0.000000 0.102920
 66 3.118598 0.000000 -0.000000 0.000000 0.000000 3.141593
 67 -4.607088 1.311375 -5.287609 0.028283 -3.041567 -1.383456
 68 17.308262 0.000003 -0.000000 -0.000000 -0.000000 -2.033562
 69 15.463842 0.000002 -0.000000 0.078615 -0.047070 0.687506
 70 6.097307 3.126216 0.000000 -0.000000 0.000000 1.570796
 71 1.999104 0.000000 0.000000 -0.000000 -0.000000 0.042051
 72 1.999115 0.000003 -0.000001 0.000000 -0.000000 0.042051
 73 3.118603 -0.000003 0.000001 0.000000 0.000000 0.000000
 74 5.028739 -7.322625 0.014163 -0.000000 0.000001 -1.536686
 75 4.835417 -2.118453 0.237900 -1.640610 -1.570796 0.000000
 76 4.348886 -2.776596 -10.995125 -0.332241 -1.939523 -1.299004
 77 -3.671423 -1.336565 -0.171208 -1.524006 0.347681 0.125368
 78 5.768711 3.982529 -9.173450 3.123039 -0.488370 1.434996
 79 0.067518 -2.350642 3.344429 -1.431170 1.082104 0.034906
 80 4.998849 8.565454 -5.001399 -0.235032 -1.930170 -1.495696
 81 -0.243932 -1.549037 2.646217 -1.431170 0.349066 0.087266
 82 3.580548 8.020452 5.032155 -0.090668 -1.202692 -1.648988
 83 -0.088496 -0.306855 4.016231 -1.431170 -0.366519 -0.034907
 84 5.006863 3.913795 9.043610 -3.019418 -1.169372 1.395466
 85 3.070844 -1.522972 0.101606 -1.563776 0.398264 -0.051684
 86 5.597602 -2.928178 10.743618 -0.135243 -1.220387 -1.490863
 87 2.930164 -2.309738 0.129156 -1.542557 -0.347073 -0.049239
 88 -39.882626 3.733589 0.061546 0.000001 -0.000003 -1.570796
time 14
  0 -1.370007 -103.876480 39.177071 -0.021949 0.366410 -1.560326
  1 12.653648 0.723707 -32.966728 -0.366177 -0.025699 1.561018
  2 -0.879492 -0.089065 -0.000002 0.000000 -1.551885 -1.570793
  3 4.432758 -0.004142 0.084104 -0.063700 -0.034778 0.212321
  4 5.338566 -0.005519 0.000337 -0.061025 -0.015651 0.029686
  5 6.940354 -0.005244 0.000321 -0.060831 0.033955 0.079113
  6 6.620016 -0.004740 0.000289 -0.060822 0.022351 0.079822
  7 5.979041 -0.000998 -0.000000 -0.000000 -0.000000 0.017453
  8 1.252571 0.000002 0.000000 0.256215 0.079060 -0.514066
  9 9.519540 0.000001 0.000000 0.000000 0.000000 0.000000
 10 -3.731839 9.544955 0.014183 -0.000000 0.000001 -1.675515
 11 -3.853212 -3.394490 -0.000000 0.000000 0.000000 0.000000
 12 0.000003 0.000991 2.684131 -0.704602 -1.310752 -2.472067
 13 7.524250 -0.000003 -0.000001 -0.770574 0.222329 -1.258382
 14 11.423458 -0.000005 0.000005 0.000000 0.000000 -0.886018
 15 13.479677 0.000001 -0.000006 -1.570000 0.016348 0.000000
 16 2.050497 0.662486 -1.659288 1.055273 0.885596 0.919630
 17 1.066190 -0.000005 0.000005 0.000000 -0.000000 0.113517
 18 1.466013 -0.000002 0.000006 -0.000000 0.000000 0.113517
 19 1.466008 0.000003 -0.000008 0.000000 0.000000 0.000000
 20 5.193861 -0.001294 -1.622129 -0.000865 0.401426 -0.000338
 21 1.525718 -0.000002 0.000002 0.000000 0.000000 0.000000
 22 1.473169 0.000001 -0.000003 0.000000 0.000000 0.000000
 23 1.142342 -0.000001 -0.000001 0.000000 0.000000 0.000000
 24 4.977365 -0.298626 -0.436306 0.047536 0.133062 0.281524
 25 2.175555 0.000001 0.000002 0.000000 0.000000 0.000000
 26 1.705913 -0.000007 -0.000003 0.000000 0.000000 0.000000
 27 1.386045 0.000005 0.000001 0.000000 0.000000 0.000000
 28 5.227216 -0.016871 0.516782 -0.041333 -0.205381 0.196330
 29 1.850598 -0.000000 -0.000002 0.000000 0.000000 0.000000
 30 1.530736 0.000004 0.000001 0.000000 0.000000 0.000000
 31 1.302276 0.000001 -0.000001 0.000000 0.000000 0.000000
 32 5.193861 0.001290 1.622133 -0.096033 -0.390377 0.246055
 33 1.485054 -0.000004 -0.000005 0.000000 0.000000 0.000000
 34 1.294658 0.000002 0.000002 0.000000 0.000000 0.000000
 35 0.951954 0.000004 0.000003 0.000000 0.000000 0.000000
 36 0.000001 0.001007 -2.684131 0.704586 1.310755 -2.472084
 37 7.524247 -0.000002 -0.000002 0.376564 -0.404105 -1.827663
 38 11.423452 0.000001 -0.000002 -0.000000 -0.000000 -1.106048
 39 13.708149 -0.000001 -0.000005 1.570000 -0.016348 0.000000
 40 1.195825 -0.033338 1.114690 -1.282531 -0.846341 0.949452
 41 1.294656 0.000000 -0.000006 -0.000000 0.000000 0.113517
 42 2.182013 -0.000006 0.000006 0.000000 -0.000000 0.113517
 43 1.580246 0.000003 0.000003 0.000000 0.000000 3.141593
 44 4.895134 -0.386524 1.693281 -0.089807 -0.373831 0.243734
 45 1.507899 -0.000012 -0.000005 0.000000 0.000000 0.000000
 46 1.370810 0.000008 0.000004 0.000000 0.000000 0.000000
 47 1.279426 -0.000008 -0.000001 0.000000 0.000000 3.141593
 48 5.141359 -0.100722 0.541385 -0.030822 -0.136206 0.228940
 49 1.759208 0.000012 0.000000 0.000000 0.000000 0.000000
 50 1.599283 -0.000003 0.000001 0.000000 0.000000 0.000000
 51 1.492666 -0.000003 -0.000000 0.000000 0.000000 3.141593
 52 5.079530 -0.068062 -0.623696 0.088758 0.152840 0.229743
 53 1.688840 0.000006 -0.000003 0.000000 0.000000 0.000000
 54 1.507897 -0.000005 0.000005 0.000000 0.000000 0.000000
 55 1.279430 -0.000001 -0.000000 0.000000 0.000000 3.141593
 56 5.141364 -0.099007 -1.621454 0.112242 0.406000 0.247378
 57 1.256580 0.000002 -0.000001 0.000000 0.000000 0.000000
 58 1.142343 0.000006 -0.000001 0.000000 0.000000 0.000000
 59 1.066190 -0.000000 -0.000002 0.000000 0.000000 3.141593
 60 -4.143593 0.586097 5.549427 -0.060658 -3.131788 -0.022810
 61 17.308262 0.000005 0.000000 0.000000 -0.000000 -0.610665
 62 15.463842 -0.000000 0.000000 -0.038590 0.014910 -0.173156
 63 6.097309 3.126217 -0.000000 -0.000000 -0.000000 1.570796
 64 1.999106 0.000009 0.000000 0.000000 0.000000 0.092697
 65 1.999103 -0.000004 0.000000 0.000000 -0.000000 0.092697
 66 3.118603 -0.000003 0.000000 0.000000 0.000000 3.141593
 67 -4.521719 1.277940 -5.297084 -3.094489 -0.082003 1.529476
 68 17.308266 -0.000003 0.000000 -0.000000 -0.000000 -1.861949
 69 15.463845 0.000002 0.000001 0.069358 -0.059782 0.545600
 70 6.097305 3.126222 0.000000 -0.000000 0.000000 1.570796
 71 1.999110 0.000001 0.000000 0.000000 0.000000 0.036622
 72 1.999103 -0.000001 -0.000000 0.000000 -0.000000 0.036622
 73 3.118599 -0.000002 -0.000000 0.000000 0.000000 0.000000
 74 5.028740 -7.322625 0.014163 -0.000000 0.000001 -1.536686
 75 4.835414 -2.118444 0.237901 -1.640610 -1.570796 0.000000
 76 4.348882 -2.776599 -10.995125 -0.332241 -1.939523 -1.299004
 77 -3.671423 -1.336565 -0.171206 -1.524006 0.347681 0.125368
 78 5.768709 3.982532 -9.173450 3.123039 -0.488370 1.434996
 79 0.067521 -2.350641 3.344429 -1.431170 1.082104 0.034906
 80 4.998848 8.565451 -5.001400 -0.235032 -1.930170 -1.495696
 81 -0.243932 -1.549035 2.646213 -1.431170 0.349066 0.087266
 82 3.580550 8.020454 5.032155 -0.090668 -1.202692 -1.648988
 83 -0.088494 -0.306863 4.016221 -1.431170 -0.366519 -0.034907
 84 5.006861 3.913796 9.043610 -3.019418 -1.169372 1.395466
 85 3.070842 -1.522965 0.101604 -1.563776 0.398264 -0.051684
 86 5.597600 -2.928181 10.743620 -0.135243 -1.220387 -1.490863
 87 2.930164 -2.309741 0.129150 -1.542557 -0.347073 -0.049239
 88 -39.882629 3.733588 0.061546 0.000001 -0.000003 -1.570796
time 15
  0 -1.040883 -115.237144 39.479496 -0.005237 0.366295 -1.536711
  1 9.629060 0.131448 -25.100990 -0.365935 -0.017440 1.538968
  2 -1.170306 -0.114398 0.000004 -1.570795 -1.570308 0.000000
  3 4.433618 -0.004135 0.001797 -0.045433 -0.018728 0.225713
  4 5.338639 -0.005511 0.000257 -0.046460 -0.015231 0.043177
  5 6.940433 -0.005239 0.000244 -0.046266 0.033141 0.093343
  6 6.620077 -0.004738 0.000220 -0.046263 0.021655 0.093877
  7 5.979025 -0.001001 -0.000001 -0.000000 -0.000000 0.017453
  8 1.252580 0.000003 0.000001 0.209404 0.059754 -0.543553
  9 9.519544 -0.000002 0.000000 0.000000 0.000000 0.000000
 10 -3.731840 9.544960 0.014183 -0.000000 0.000001 -1.675515
 11 -3.853217 -3.394492 -0.000000 0.000000 0.000000 0.000000
 12 0.000011 0.000992 2.684132 -0.906368 -1.253177 -2.278527
 13 7.524249 -0.000005 0.000006 -0.772426 0.192373 -1.403081
 14 11.423461 -0.000004 -0.000002 -0.000000 0.000000 -0.886018
 15 13.479678 -0.000001 -0.000002 -1.570000 0.016348 0.000000
 16 2.050503 0.662486 -1.659292 1.055273 0.885596 0.919630
 17 1.066189 -0.000000 -0.000006 0.000000 -0.000000 0.113517
 18 1.466011 -0.000003 0.000005 -0.000000 0.000000 0.113517
 19 1.466009 0.000004 -0.000007 0.000000 0.000000 0.000000
 20 5.193869 -0.001294 -1.622131 -0.000865 0.401426 -0.000338
 21 1.525721 -0.000007 0.000001 0.000000 0.000000 0.000000
 22 1.473163 0.000001 -0.000001 0.000000 0.000000 0.000000
 23 1.142343 0.000004 -0.000001 0.000000 0.000000 0.000000
 24 4.977359 -0.298620 -0.436309 0.047536 0.133062 0.281524
 25 2.175557 -0.000001 -0.000002 0.000000 0.000000 0.000000
 26 1.705900 -0.000000 0.000002 0.000000 0.000000 0.000000
 27 1.386046 -0.000001 -0.000000 0.000000 0.000000 0.000000
 28 5.227215 -0.016869 0.516777 -0.041333 -0.205381 0.196330
 29 1.850600 0.000000 0.000001 0.000000 0.000000 0.000000
 30 1.530742 0.000000 0.000002 0.000000 0.000000 0.000000
 31 1.302277 0.000001 0.000002 0.000000 0.000000 0.000000
 32 5.193860 0.001293 1.622129 -0.096033 -0.390377 0.246055
 33 1.485045 -0.000000 -0.000004 0.000000 0.000000 0.000000
 34 1.294659 0.000001 -0.000000 0.000000 0.000000 0.000000
 35 0.951955 -0.000003 -0.000004 0.000000 0.000000 0.000000
 36 0.000015 0.001014 -2.684129 0.906356 1.253181 -2.278538
 37 7.524253 0.000009 0.000004 0.392654 -0.353843 -1.869708
 38 11.423455 0.000002 -0.000001 -0.000000 -0.000000 -1.106048
 39 13.708143 0.000000 0.000004 1.570000 -0.016348 0.000000
 40 1.195826 -0.033340 1.114693 -1.282531 -0.846341 0.949452
 41 1.294659 0.000002 0.000006 -0.000000 0.000000 0.113517
 42 2.182004 -0.000005 -0.000016 0.000000 -0.000000 0.113517
 43 1.580248 0.000003 0.000006 0.000000 0.000000 3.141593
 44 4.895133 -0.386523 1.693284 -0.089807 -0.373831 0.243734
 45 1.507895 0.000000 0.000003 0.000000 0.000000 0.000000
 46 1.370819 -0.000012 -0.000007 0.000000 0.000000 0.000000
 47 1.279424 0.000008 0.000001 0.000000 0.000000 3.141593
 48 5.141356 -0.100722 0.541390 -0.030822 -0.136206 0.228940
 49 1.759212 -0.000005 -0.000001 0.000000 0.000000 0.000000
 50 1.599288 -0.000015 -0.000002 0.000000 0.000000 0.000000
 51 1.492664 0.000007 0.000001 0.000000 0.000000 3.141593
 52 5.079526 -0.068060 -0.623692 0.088758 0.152840 0.229743
 53 1.688848 -0.000003 -0.000001 0.000000 0.000000 0.000000
 54 1.507887 0.000012 0.000000 0.000000 0.000000 0.000000
 55 1.279427 -0.000006 0.000000 0.000000 0.000000 3.141593
 56 5.141357 -0.098999 -1.621452 0.112242 0.406000 0.247378
 57 1.256588 -0.000008 0.000001 0.000000 0.000000 0.000000
 58 1.142342 0.000012 0.000001 0.000000 0.000000 0.000000
 59 1.066185 0.000002 0.000002 0.000000 0.000000 3.141593
 60 -4.217686 0.744755 5.555275 -0.045091 -3.121720 -0.295721
 61 17.308260 0.000004 0.000000 -0.000000 -0.000000 -1.078440
 62 15.463843 -0.000000 0.000000 -0.042640 0.005819 -0.299384
 63 6.097307 3.126219 -0.000000 -0.000000 -0.000000 1.570796
 64 1.999104 -0.000000 -0.000000 -0.000000 0.000000 0.072594
 65 1.999105 0.000002 0.000000 -0.000000 -0.000000 0.072594
 66 3.118603 -0.000000 -0.000000 0.000000 0.000000 3.141593
 67 -4.421335 1.238576 -5.306726 -3.095465 -0.064717 1.513537
 68 17.308264 -0.000001 0.000000 0.000000 0.000000 -1.109228
 69 15.463843 -0.000002 0.000000 0.041333 -0.078965 0.221217
 70 6.097306 3.126224 -0.000000 -0.000000 0.000000 1.570796
 71 1.999118 -0.000001 0.000000 0.000000 0.000000 0.028912
 72 1.999082 0.000003 0.000000 0.000000 0.000000 0.028912
 73 3.118604 -0.000001 -0.000000 0.000000 0.000000 0.000000
 74 5.028738 -7.322619 0.014163 -0.000000 0.000001 -1.536686
 75 4.835413 -2.118448 0.237901 -1.640610 -1.570796 0.000000
 76 4.348881 -2.776593 -10.995127 -0.332241 -1.939523 -1.299004
 77 -3.671423 -1.336569 -0.171206 -1.524006 0.347681 0.125368
 78 5.768705 3.982532 -9.173452 3.123039 -0.488370 1.434997
 79 0.067526 -2.350642 3.344432 -1.431170 1.082104 0.034906
 80 4.998848 8.565456 -5.001400 -0.235032 -1.930170 -1.495696
 81 -0.243932 -1.549038 2.646216 -1.431170 0.349066 0.087266
 82 3.580549 8.020457 5.032156 -0.090668 -1.202692 -1.648988
 83 -0.088495 -0.306855 4.016230 -1.431170 -0.366519 -0.034907
 84 5.006862 3.913804 9.043611 -3.019418 -1.169372 1.395466
 85 3.070841 -1.522972 0.101601 -1.563776 0.398264 -0.051684
 86 5.597599 -2.928173 10.743621 -0.135243 -1.220387 -1.490863
 87 2.930166 -2.309738 0.129147 -1.542557 -0.347073 -0.049239
 88 -39.882626 3.733592 0.061546 0.000001 -0.000003 -1.570796
time 16
  0 -0.632825 -126.822830 39.372967 0.012206 0.365786 -1.515534
  1 10.655344 -0.339565 -27.817013 -0.365905 -0.007568 1.519192
  2 -1.583876 -0.153089 -0.000001 0.000000 -1.589518 -1.570794
  3 4.432916 -0.004119 -0.082871 -0.025773 -0.002845 0.245263
  4 5.338756 -0.005507 0.000172 -0.031170 -0.015169 0.062829
  5 6.940531 -0.005239 0.000164 -0.031001 0.032160 0.113743
  6 6.620188 -0.004715 0.000148 -0.031001 0.020735 0.114098
  7 5.979038 -0.001001 -0.000001 0.000000 -0.000000 0.017453
  8 1.252574 0.000005 0.000000 0.161204 0.042018 -0.597774
  9 9.519546 -0.000009 0.000001 0.000000 0.000000 0.000000
 10 -3.731838 9.544957 0.014183 -0.000000 0.000001 -1.675515
 11 -3.853215 -3.394495 0.000000 0.000000 0.000000 0.000000
 12 -0.000004 0.000992 2.684131 -0.977107 -1.223157 -2.211654
 13 7.524249 -0.000002 0.000009 -0.780895 0.130665 -1.512586
 14 11.423458 -0.000006 -0.000000 -0.000000 -0.000000 -0.885917
 15 13.479660 0.000001 -0.000003 -1.570000 0.016327 -0.000000
 16 2.050490 0.662486 -1.659291 1.055273 0.885596 0.919630
 17 1.066191 -0.000005 0.000008 -0.000000 -0.000000 0.113528
 18 1.466008 -0.000005 -0.000005 0.000000 0.000000 0.113528
 19 1.466011 0.000002 0.000006 0.000000 0.000000 0.000000
 20 5.193854 -0.001292 -1.622128 -0.000865 0.401426 -0.000338
 21 1.525722 -0.000006 0.000003 0.000000 0.000000 0.000000
 22 1.473158 0.000004 -0.000003 0.000000 0.000000 0.000000
 23 1.142345 0.000003 0.000001 0.000000 0.000000 0.000000
 24 4.977358 -0.298625 -0.436307 0.047536 0.133062 0.281524
 25 2.175568 -0.000008 -0.000001 0.000000 0.000000 0.000000
 26 1.705902 0.000001 0.000000 0.000000 0.000000 0.000000
 27 1.386045 0.000001 0.000000 0.000000 0.000000 0.000000
 28 5.227216 -0.016873 0.516780 -0.041333 -0.205381 0.196330
 29 1.850600 -0.000000 0.000005 0.000000 0.000000 0.000000
 30 1.530740 0.000000 -0.000004 0.000000 0.000000 0.000000
 31 1.302273 0.000001 0.000004 0.000000 0.000000 0.000000
 32 5.193855 0.001290 1.622131 -0.096033 -0.390377 0.246055
 33 1.485046 0.000004 -0.000002 0.000000 0.000000 0.000000
 34 1.294667 -0.000010 -0.000006 0.000000 0.000000 0.000000
 35 0.951945 0.000001 0.000004 0.000000 0.000000 0.000000
 36 0.000005 0.001013 -2.684130 0.977098 1.223161 -2.211663
 37 7.524252 0.000007 0.000000 0.410908 -0.271251 -1.871920
 38 11.423451 0.000002 -0.000007 0.000000 0.000000 -1.105956
 39 13.708150 -0.000002 -0.000010 1.570000 -0.016327 -0.000000
 40 1.195827 -0.033336 1.114692 -1.282531 -0.846341 0.949452
 41 1.294658 -0.000005 0.000005 -0.000000 -0.000000 0.113528
 42 2.182009 0.000002 0.000009 -0.000000 -0.000000 0.113528
 43 1.580243 0.000000 -0.000011 0.000000 0.000000 3.141593
 44 4.895136 -0.386522 1.693286 -0.089807 -0.373831 0.243734
 45 1.507899 -0.000003 -0.000005 0.000000 0.000000 0.000000
 46 1.370815 0.000001 0.000004 0.000000 0.000000 0.000000
 47 1.279429 0.000005 0.000001 0.000000 0.000000 3.141593
 48 5.141359 -0.100719 0.541390 -0.030822 -0.136206 0.228940
 49 1.759215 -0.000010 0.000001 0.000000 0.000000 0.000000
 50 1.599279 0.000011 0.000001 0.000000 0.000000 0.000000
 51 1.492666 -0.000011 -0.000002 0.000000 0.000000 3.141593
 52 5.079525 -0.068052 -0.623692 0.088758 0.152840 0.229743
 53 1.688840 0.000002 0.000000 0.000000 0.000000 0.000000
 54 1.507905 -0.000009 -0.000001 0.000000 0.000000 0.000000
 55 1.279424 0.000010 0.000000 0.000000 0.000000 3.141593
 56 5.141361 -0.098998 -1.621451 0.112242 0.406000 0.247378
 57 1.256582 -0.000000 0.000001 0.000000 0.000000 0.000000
 58 1.142343 0.000005 0.000001 0.000000 0.000000 0.000000
 59 1.066193 0.000002 0.000001 0.000000 0.000000 3.141593
 60 -4.283543 0.937440 5.558648 -0.027193 -3.121789 -0.572600
 61 17.308264 0.000002 0.000000 -0.000000 -0.000000 -1.486159
 62 15.463844 -0.000001 -0.000000 -0.046212 0.007829 -0.150310
 63 6.097310 3.126220 -0.000000 -0.000000 -0.000000 1.570796
 64 1.999107 -0.000002 -0.000000 0.000000 0.000000 0.052490
 65 1.999103 -0.000000 0.000000 -0.000000 -0.000000 0.052490
 66 3.118604 0.000007 0.000000 0.000000 0.000000 3.141593
 67 -4.314472 1.217674 -5.312825 0.037254 -3.084528 -1.480214
 68 17.308266 0.000004 0.000000 -0.000000 0.000000 -0.399132
 69 15.463842 0.000002 -0.000001 0.020409 -0.090733 0.034274
 70 6.097308 3.126227 0.000000 -0.000000 0.000000 1.570796
 71 1.999099 0.000007 -0.000000 0.000000 -0.000000 0.021201
 72 1.999115 -0.000008 0.000000 -0.000000 0.000000 0.021201
 73 3.118601 -0.000002 0.000000 0.000000 0.000000 0.000000
 74 5.028741 -7.322622 0.014163 -0.000000 0.000001 -1.536686
 75 4.835416 -2.118446 0.237901 -1.640610 -1.570796 0.000000
 76 4.348883 -2.776595 -10.995127 -0.332241 -1.939523 -1.299004
 77 -3.671422 -1.336570 -0.171201 -1.524006 0.347681 0.125368
 78 5.768713 3.982535 -9.173452 3.123039 -0.488370 1.434996
 79 0.067518 -2.350642 3.344424 -1.431170 1.082104 0.034906
 80 4.998850 8.565456 -5.001400 -0.235032 -1.930170 -1.495696
 81 -0.243934 -1.549040 2.646218 -1.431170 0.349066 0.087266
 82 3.580554 8.020462 5.032156 -0.090668 -1.202692 -1.648988
 83 -0.088497 -0.306854 4.016233 -1.431170 -0.366519 -0.034907
 84 5.006862 3.913795 9.043612 -3.019418 -1.169372 1.395466
 85 3.070840 -1.522967 0.101595 -1.563776 0.398264 -0.051684
 86 5.597600 -2.928179 10.743621 -0.135243 -1.220387 -1.490863
 87 2.930165 -2.309742 0.129152 -1.542557 -0.347073 -0.049239
 88 -39.882633 3.733591 0.061546 0.000001 -0.000003 -1.570796
time 17
  0 -0.211500 -137.878464 38.848137 0.027729 0.365084 -1.499647
  1 10.683210 -0.774928 -27.939768 -0.366082 0.002284 1.504343
  2 -2.257885 -0.219170 0.000002 0.000002 -1.606984 -1.570796
  3 4.430924 -0.004086 -0.160353 -0.003702 0.010251 0.278384
  4 5.338943 -0.005494 0.000077 -0.014103 -0.015759 0.096051
  5 6.940706 -0.005226 0.000074 -0.013944 0.030193 0.147771
  6 6.620347 -0.004697 0.000066 -0.013958 0.018889 0.147929
  7 5.979045 -0.001000 -0.000000 -0.000000 -0.000000 0.017453
  8 1.252576 -0.000002 0.000000 0.106314 0.024673 -0.708241
  9 9.519545 0.000002 -0.000000 0.000000 0.000000 0.000000
 10 -3.731839 9.544952 0.014184 -0.000000 0.000001 -1.675515
 11 -3.853220 -3.394495 -0.000001 0.000000 0.000000 0.000000
 12 -0.000002 0.000984 2.684131 -0.461398 -1.348166 -2.708331
 13 7.524249 -0.000004 -0.000005 -0.785748 -0.061251 -1.423151
 14 11.423459 -0.000008 0.000004 0.000000 -0.000000 -0.918563
 15 13.479667 -0.000001 -0.000004 -1.570000 0.023191 0.000000
 16 2.050501 0.662484 -1.659292 1.055273 0.885596 0.919630
 17 1.066189 -0.000001 -0.000005 -0.000000 -0.000000 0.109980
 18 1.466010 0.000001 -0.000004 0.000000 0.000000 0.109980
 19 1.466009 -0.000003 -0.000003 0.000000 0.000000 0.000000
 20 5.193861 -0.001295 -1.622133 -0.000865 0.401426 -0.000338
 21 1.525723 -0.000004 -0.000000 0.000000 0.000000 0.000000
 22 1.473165 0.000006 0.000004 0.000000 0.000000 0.000000
 23 1.142351 -0.000003 -0.000002 0.000000 0.000000 0.000000
 24 4.977364 -0.298627 -0.436312 0.047536 0.133062 0.281524
 25 2.175559 0.000002 0.000000 0.000000 0.000000 0.000000
 26 1.705897 0.000005 0.000000 0.000000 0.000000 0.000000
 27 1.386049 0.000004 -0.000001 0.000000 0.000000 0.000000
 28 5.227216 -0.016872 0.516776 -0.041333 -0.205381 0.196330
 29 1.850595 -0.000001 0.000003 0.000000 0.000000 0.000000
 30 1.530750 -0.000004 0.000002 0.000000 0.000000 0.000000
 31 1.302280 0.000002 0.000002 0.000000 0.000000 0.000000
 32 5.193864 0.001289 1.622129 -0.096033 -0.390377 0.246055
 33 1.485053 0.000000 0.000001 0.000000 0.000000 0.000000
 34 1.294653 0.000001 0.000002 0.000000 0.000000 0.000000
 35 0.951953 0.000001 0.000002 0.000000 0.000000 0.000000
 36 0.000003 0.001006 -2.684130 0.461375 1.348169 -2.708354
 37 7.524249 0.000001 -0.000008 0.398214 -0.064961 -1.681959
 38 11.423453 0.000004 0.000004 0.000000 -0.000000 -1.135281
 39 13.708142 0.000001 0.000008 1.570000 -0.023191 -0.000000
 40 1.195829 -0.033335 1.114692 -1.282531 -0.846341 0.949452
 41 1.294657 -0.000004 0.000002 -0.000000 -0.000000 0.109980
 42 2.182011 -0.000003 0.000003 0.000000 0.000000 0.109980
 43 1.580245 0.000005 0.000007 0.000000 0.000000 3.141593
 44 4.895138 -0.386519 1.693282 -0.089807 -0.373831 0.243734
 45 1.507897 0.000001 0.000001 0.000000 0.000000 0.000000
 46 1.370819 -0.000013 -0.000005 0.000000 0.000000 0.000000
 47 1.279425 0.000008 0.000002 0.000000 0.000000 3.141593
 48 5.141358 -0.100714 0.541388 -0.030822 -0.136206 0.228940
 49 1.759214 -0.000011 -0.000001 0.000000 0.000000 0.000000
 50 1.599279 0.000010 0.000001 0.000000 0.000000 0.000000
 51 1.492659 -0.000000 0.000002 0.000000 0.000000 3.141593
 52 5.079532 -0.068058 -0.623693 0.088758 0.152840 0.229743
 53 1.688849 -0.000009 -0.000002 0.000000 0.000000 0.000000
 54 1.507891 0.000012 -0.000000 0.000000 0.000000 0.000000
 55 1.279425 0.000002 0.000002 0.000000 0.000000 3.141593
 56 5.141364 -0.098999 -1.621453 0.112242 0.406000 0.247378
 57 1.256579 0.000003 0.000002 0.000000 0.000000 0.000000
 58 1.142348 0.000002 -0.000007 0.000000 0.000000 0.000000
 59 1.066184 0.000008 0.000002 0.000000 0.000000 3.141593
 60 -4.316390 1.201001 5.558445 -0.012935 -3.136282 -0.588417
 61 17.308262 0.000002 0.000000 0.000000 -0.000000 -1.425731
 62 15.463845 0.000002 0.000000 -0.035612 0.038675 0.470423
 63 6.097310 3.126214 -0.000000 -0.000000 0.000000 1.570796
 64 1.999105 0.000002 -0.000000 -0.000000 -0.000000 0.033973
 65 1.999107 0.000001 0.000000 0.000000 -0.000000 0.033973
 66 3.118605 0.000003 -0.000000 0.000000 0.000000 3.141593
 67 -4.204891 1.241245 -5.316037 0.035643 -3.090903 -1.427745
 68 17.308260 0.000001 -0.000001 -0.000000 0.000000 -0.556014
 69 15.463846 0.000001 0.000000 0.045209 -0.091148 0.124695
 70 6.097310 3.126224 -0.000000 -0.000000 -0.000000 1.570796
 71 1.999108 -0.000001 -0.000000 0.000000 0.000000 0.010601
 72 1.999114 -0.000005 0.000000 0.000000 -0.000000 0.010601
 73 3.118601 0.000001 -0.000000 0.000000 0.000000 0.000000
 74 5.028745 -7.322625 0.014163 -0.000000 0.000001 -1.536686
 75 4.835412 -2.118446 0.237900 -1.640610 -1.570796 0.000000
 76 4.348885 -2.776601 -10.995126 -0.332241 -1.939523 -1.299004
 77 -3.671425 -1.336568 -0.171212 -1.524006 0.347681 0.125368
 78 5.768708 3.982524 -9.173451 3.123039 -0.488370 1.434996
 79 0.067515 -2.350640 3.344425 -1.431170 1.082104 0.034906
 80 4.998848 8.565447 -5.001400 -0.235032 -1.930170 -1.495696
 81 -0.243931 -1.549032 2.646220 -1.431170 0.349066 0.087266
 82 3.580551 8.020452 5.032156 -0.090668 -1.202692 -1.648988
 83 -0.088493 -0.306858 4.016223 -1.431170 -0.366519 -0.034907
 84 5.006867 3.913795 9.043611 -3.019418 -1.169372 1.395466
 85 3.070840 -1.522969 0.101598 -1.563776 0.398264 -0.051684
 86 5.597602 -2.928185 10.743620 -0.135243 -1.220387 -1.490863
 87 2.930165 -2.309740 0.129155 -1.542557 -0.347073 -0.049239
 88 -39.882633 3.733588 0.061547 0.000001 -0.000003 -1.570796
end
