version 1
nodes
  0 "Bip01"  -1
  1 "Bip01 Footsteps"   0
  2 "Bip01 Pelvis"   0
  3 "Bip01 Spine"   2
  4 "Bip01 Spine1"   3
  5 "Bip01 Spine2"   4
  6 "Bip01 Spine3"   5
  7 "Bip01 Neck"   6
  8 "Bip01 Head"   7
  9 "Dummy05"   8
 10 "Dummy14"   8
 11 "Dummy15"  10
 12 "Bip01 L Clavicle"   7
 13 "Bip01 L UpperArm"  12
 14 "Bip01 L Forearm"  13
 15 "Bip01 L Hand"  14
 16 "Bip01 L Finger0"  15
 17 "Bip01 L Finger01"  16
 18 "Bip01 L Finger02"  17
 19 "Dummy02"  18
 20 "Bip01 L Finger1"  15
 21 "Bip01 L Finger11"  20
 22 "Bip01 L Finger12"  21
 23 "Dummy07"  22
 24 "Bip01 L Finger2"  15
 25 "Bip01 L Finger21"  24
 26 "Bip01 L Finger22"  25
 27 "Dummy09"  26
 28 "Bip01 L Finger3"  15
 29 "Bip01 L Finger31"  28
 30 "Bip01 L Finger32"  29
 31 "Dummy11"  30
 32 "Bip01 L Finger4"  15
 33 "Bip01 L Finger41"  32
 34 "Bip01 L Finger42"  33
 35 "Dummy13"  34
 36 "Bip01 R Clavicle"   7
 37 "Bip01 R UpperArm"  36
 38 "Bip01 R Forearm"  37
 39 "Bip01 R Hand"  38
 40 "Bip01 R Finger0"  39
 41 "Bip01 R Finger01"  40
 42 "Bip01 R Finger02"  41
 43 "Dummy01"  42
 44 "Bip01 R Finger1"  39
 45 "Bip01 R Finger11"  44
 46 "Bip01 R Finger12"  45
 47 "Dummy06"  46
 48 "Bip01 R Finger2"  39
 49 "Bip01 R Finger21"  48
 50 "Bip01 R Finger22"  49
 51 "Dummy08"  50
 52 "Bip01 R Finger3"  39
 53 "Bip01 R Finger31"  52
 54 "Bip01 R Finger32"  53
 55 "Dummy10"  54
 56 "Bip01 R Finger4"  39
 57 "Bip01 R Finger41"  56
 58 "Bip01 R Finger42"  57
 59 "Dummy12"  58
 60 "Bip01 L Thigh"   3
 61 "Bip01 L Calf"  60
 62 "Bip01 L Foot"  61
 63 "Bip01 L Toe0"  62
 64 "Bip01 L Toe01"  63
 65 "Bip01 L Toe02"  64
 66 "Dummy04"  65
 67 "Bip01 R Thigh"   3
 68 "Bip01 R Calf"  67
 69 "Bip01 R Foot"  68
 70 "Bip01 R Toe0"  69
 71 "Bip01 R Toe01"  70
 72 "Bip01 R Toe02"  71
 73 "Dummy03"  72
 74 "Dummy22"   3
 75 "Dummy23"  74
 76 "Dummy21"   3
 77 "Dummy24"  76
 78 "Dummy18"   3
 79 "Dummy25"  78
 80 "Dummy17"   3
 81 "Dummy26"  80
 82 "Dummy16"   3
 83 "Dummy27"  82
 84 "Dummy19"   3
 85 "Dummy28"  84
 86 "Dummy20"   3
 87 "Dummy29"  86
 88 "Object08"  -1
 89 "Object09"  -1
end
skeleton
time 0
  0 2.666885 8.174702 30.644314 0.003848 0.689450 -1.568347
  1 19.416235 -0.090633 -23.551439 -0.689456 0.002290 1.568906
  2 -4.236411 -0.071986 0.000001 -1.570795 -1.570451 0.000000
  3 4.434196 -0.003597 0.001683 -0.406247 -0.060175 0.427077
  4 5.339531 -0.005383 0.000520 -0.093992 -0.028601 0.208548
  5 6.940782 -0.005183 0.000495 -0.094946 -0.064814 0.168246
  6 6.620024 -0.004724 0.000414 -0.087047 0.063347 0.077636
  7 5.979039 -0.000998 -0.000003 0.000000 -0.000000 0.017453
  8 1.252571 0.000001 0.000001 0.435307 0.416973 -0.344851
  9 9.519544 -0.000000 -0.000001 0.000000 0.000000 0.000000
 10 -3.731838 9.544962 0.014183 -0.000000 0.000001 -1.675515
 11 -3.853210 -3.394495 0.000000 0.000000 0.000000 0.000000
 12 -0.000001 0.000990 2.684131 -0.338446 -1.359115 -2.828403
 13 7.524250 -0.000001 -0.000000 0.457497 -0.948553 -1.724183
 14 11.423453 0.000001 0.000001 -0.000000 0.000000 -0.447036
 15 13.479671 -0.000002 0.000001 2.461993 -0.067364 -0.377022
 16 2.050503 0.662487 -1.659293 1.055272 0.885596 0.919630
 17 1.066188 -0.000000 0.000001 0.000000 0.000000 0.000000
 18 1.466009 0.000000 0.000000 0.000000 0.000000 0.000000
 19 1.466008 0.000000 0.000000 0.000000 0.000000 0.000000
 20 5.193863 -0.001290 -1.622131 -0.000865 0.401426 -0.000338
 21 1.525719 -0.000001 -0.000001 0.000000 0.000000 0.000000
 22 1.473168 0.000002 0.000001 0.000000 0.000000 0.000000
 23 1.142346 -0.000001 -0.000001 0.000000 0.000000 0.000000
 24 4.977360 -0.298620 -0.436310 0.047536 0.133062 0.281524
 25 2.175558 0.000002 0.000003 0.000000 0.000000 0.000000
 26 1.705902 -0.000001 -0.000003 0.000000 0.000000 0.000000
 27 1.386046 -0.000000 -0.000001 0.000000 0.000000 0.000000
 28 5.227221 -0.016870 0.516778 -0.041333 -0.205381 0.196330
 29 1.850598 0.000001 -0.000002 0.000000 0.000000 0.000000
 30 1.530743 -0.000001 -0.000001 0.000000 0.000000 0.000000
 31 1.302274 -0.000000 -0.000002 0.000000 0.000000 0.000000
 32 5.193863 0.001292 1.622129 -0.096033 -0.390377 0.246055
 33 1.485049 -0.000000 -0.000003 0.000000 0.000000 0.000000
 34 1.294658 -0.000000 0.000001 0.000000 0.000000 0.000000
 35 0.951955 0.000001 0.000002 0.000000 0.000000 0.000000
 36 -0.000001 0.001007 -2.684129 0.177416 1.164472 -2.996605
 37 7.524250 0.000002 -0.000002 -0.033065 0.302410 -2.251944
 38 11.423451 -0.000000 -0.000001 -0.000000 0.000000 -0.783302
 39 13.708146 0.000000 0.000000 2.841138 0.149973 0.479207
 40 1.195829 -0.033341 1.114694 -1.282531 -0.846341 0.949452
 41 1.294658 -0.000000 0.000001 0.000000 0.000000 0.000000
 42 2.182009 0.000001 -0.000001 0.000000 0.000000 0.000000
 43 1.580244 0.000000 0.000001 0.000000 0.000000 3.141593
 44 4.895141 -0.386527 1.693287 -0.089807 -0.373831 0.243734
 45 1.507895 0.000001 0.000000 0.000000 0.000000 0.000000
 46 1.370814 -0.000000 0.000001 0.000000 0.000000 0.000000
 47 1.279427 0.000000 0.000000 0.000000 0.000000 3.141593
 48 5.141360 -0.100723 0.541391 -0.030822 -0.136206 0.228940
 49 1.759211 0.000000 -0.000001 0.000000 0.000000 0.000000
 50 1.599283 0.000000 -0.000002 0.000000 0.000000 0.000000
 51 1.492664 0.000000 -0.000002 0.000000 0.000000 3.141593
 52 5.079527 -0.068059 -0.623690 0.088758 0.152840 0.229743
 53 1.688845 -0.000000 -0.000000 0.000000 0.000000 0.000000
 54 1.507895 0.000001 0.000002 0.000000 0.000000 0.000000
 55 1.279427 0.000000 0.000001 0.000000 0.000000 3.141593
 56 5.141361 -0.099001 -1.621449 0.112242 0.406000 0.247378
 57 1.256579 0.000000 0.000002 0.000000 0.000000 0.000000
 58 1.142346 -0.000000 -0.000003 0.000000 0.000000 0.000000
 59 1.066190 -0.000000 0.000000 0.000000 0.000000 3.141593
 60 -3.700221 -0.549831 5.934393 -2.862762 -0.396480 1.165652
 61 17.308264 -0.000001 -0.000001 0.000000 -0.000000 -0.864824
 62 15.463846 -0.000001 -0.000001 -0.014784 -0.076387 0.030129
 63 6.097305 3.126218 -0.000001 -0.000000 -0.000000 1.570796
 64 1.999104 0.000000 0.000000 0.000000 0.000000 0.000000
 65 1.999104 0.000000 -0.000000 0.000000 0.000000 0.000000
 66 3.118603 0.000000 0.000000 0.000000 0.000000 3.141593
 67 -4.354232 3.739837 -4.037539 -0.112172 -2.783504 -1.467755
 68 17.308260 -0.000001 -0.000001 0.000000 -0.000000 -1.146311
 69 15.463844 0.000001 -0.000000 0.105255 0.095097 0.780808
 70 6.097306 3.126219 -0.000000 -0.000000 0.000000 1.570796
 71 1.999104 0.000000 -0.000000 0.000000 0.000000 0.000000
 72 1.999104 0.000000 0.000000 0.000000 0.000000 0.000000
 73 3.118602 0.000000 0.000000 0.000000 0.000000 0.000000
 74 5.028742 -7.322625 0.014162 -0.000000 0.000001 -1.536686
 75 4.835415 -2.118448 0.237901 -1.640610 -1.570796 0.000000
 76 4.348886 -2.776601 -10.995128 -0.332241 -1.939523 -1.299004
 77 -3.671423 -1.336567 -0.171206 -1.524006 0.347681 0.125368
 78 5.768710 3.982529 -9.173452 3.123039 -0.488370 1.434997
 79 0.067518 -2.350638 3.344429 -1.431170 1.082104 0.034906
 80 4.998851 8.565452 -5.001401 -0.235032 -1.930170 -1.495696
 81 -0.243933 -1.549036 2.646217 -1.431170 0.349066 0.087266
 82 3.580551 8.020452 5.032156 -0.090668 -1.202692 -1.648988
 83 -0.088493 -0.306859 4.016225 -1.431170 -0.366519 -0.034907
 84 5.006862 3.913796 9.043612 -3.019418 -1.169372 1.395466
 85 3.070843 -1.522967 0.101601 -1.563776 0.398264 -0.051684
 86 5.597601 -2.928182 10.743621 -0.135243 -1.220387 -1.490863
 87 2.930166 -2.309740 0.129154 -1.542557 -0.347073 -0.049239
 88 187.500488 285.169159 -34.343369 0.000000 0.000000 0.000000
 89 191.616196 257.709625 -35.018860 0.000000 0.000000 0.000000
time 1
  0 2.626600 8.382109 30.538105 0.003848 0.689450 -1.568347
  1 19.348673 -0.090318 -23.469490 -0.689456 0.002290 1.568906
  2 -4.236412 -0.071986 -0.000000 -1.570795 -1.570451 0.000000
  3 4.434197 -0.003596 0.001683 -0.406247 -0.060175 0.427077
  4 5.339530 -0.005383 0.000520 -0.093992 -0.028601 0.208548
  5 6.940781 -0.005186 0.000495 -0.094946 -0.064814 0.168246
  6 6.620023 -0.004724 0.000413 -0.087047 0.063347 0.077636
  7 5.979038 -0.000999 -0.000003 0.000000 -0.000000 0.017453
  8 1.252571 0.000002 0.000001 0.445634 0.405816 -0.319028
  9 9.519545 -0.000001 -0.000001 0.000000 0.000000 0.000000
 10 -3.731837 9.544961 0.014183 -0.000000 0.000001 -1.675515
 11 -3.853210 -3.394491 0.000001 0.000000 0.000000 0.000000
 12 -0.000001 0.000991 2.684131 -0.338446 -1.359115 -2.828403
 13 7.524250 -0.000001 -0.000000 0.466962 -0.953871 -1.739300
 14 11.423453 0.000000 -0.000001 0.000000 0.000000 -0.617073
 15 13.479677 -0.000000 -0.000001 2.470160 -0.043781 -0.200280
 16 2.050500 0.662487 -1.659289 1.055273 0.885596 0.919630
 17 1.066192 -0.000000 0.000000 0.000000 0.000000 0.000000
 18 1.466006 0.000002 -0.000001 0.000000 0.000000 0.000000
 19 1.466009 -0.000000 0.000000 0.000000 0.000000 0.000000
 20 5.193861 -0.001290 -1.622126 -0.000865 0.401426 -0.000338
 21 1.525719 -0.000001 -0.000000 0.000000 0.000000 0.000000
 22 1.473169 -0.000001 -0.000001 0.000000 0.000000 0.000000
 23 1.142346 0.000000 0.000002 0.000000 0.000000 0.000000
 24 4.977357 -0.298620 -0.436304 0.047536 0.133062 0.281524
 25 2.175560 -0.000002 0.000001 0.000000 0.000000 0.000000
 26 1.705902 0.000003 0.000001 0.000000 0.000000 0.000000
 27 1.386046 -0.000000 0.000000 0.000000 0.000000 0.000000
 28 5.227219 -0.016869 0.516783 -0.041333 -0.205381 0.196330
 29 1.850600 0.000001 -0.000000 0.000000 0.000000 0.000000
 30 1.530743 -0.000001 0.000000 0.000000 0.000000 0.000000
 31 1.302275 -0.000002 -0.000000 0.000000 0.000000 0.000000
 32 5.193861 0.001292 1.622133 -0.096033 -0.390377 0.246055
 33 1.485049 0.000000 0.000002 0.000000 0.000000 0.000000
 34 1.294658 0.000000 0.000000 0.000000 0.000000 0.000000
 35 0.951955 0.000000 0.000001 0.000000 0.000000 0.000000
 36 -0.000000 0.001008 -2.684129 0.177416 1.164472 -2.996605
 37 7.524250 0.000000 -0.000002 0.044152 0.309586 -2.011470
 38 11.423451 0.000001 -0.000002 0.000000 0.000000 -1.122810
 39 13.708146 0.000001 0.000004 2.857920 0.144123 0.582225
 40 1.195829 -0.033342 1.114691 -1.282531 -0.846341 0.949452
 41 1.294660 -0.000001 0.000001 0.000000 0.000000 0.000000
 42 2.182007 -0.000001 0.000003 0.000000 0.000000 0.000000
 43 1.580245 0.000000 0.000000 0.000000 0.000000 3.141593
 44 4.895139 -0.386528 1.693282 -0.089807 -0.373831 0.243734
 45 1.507897 -0.000001 -0.000002 0.000000 0.000000 0.000000
 46 1.370807 0.000002 -0.000001 0.000000 0.000000 0.000000
 47 1.279427 0.000000 -0.000002 0.000000 0.000000 3.141593
 48 5.141359 -0.100724 0.541388 -0.030822 -0.136206 0.228940
 49 1.759211 0.000000 0.000001 0.000000 0.000000 0.000000
 50 1.599285 -0.000000 0.000002 0.000000 0.000000 0.000000
 51 1.492663 0.000000 -0.000003 0.000000 0.000000 3.141593
 52 5.079528 -0.068060 -0.623693 0.088758 0.152840 0.229743
 53 1.688844 -0.000000 0.000000 0.000000 0.000000 0.000000
 54 1.507896 -0.000000 -0.000000 0.000000 0.000000 0.000000
 55 1.279427 -0.000000 -0.000000 0.000000 0.000000 3.141593
 56 5.141360 -0.099002 -1.621453 0.112242 0.406000 0.247378
 57 1.256580 -0.000000 -0.000001 0.000000 0.000000 0.000000
 58 1.142344 0.000000 -0.000000 0.000000 0.000000 0.000000
 59 1.066189 -0.000000 -0.000001 0.000000 0.000000 3.141593
 60 -3.700222 -0.549831 5.934393 -2.857725 -0.395306 1.156446
 61 17.308262 -0.000001 -0.000000 0.000000 0.000000 -0.866317
 62 15.463846 -0.000001 -0.000002 -0.014903 -0.078289 0.022997
 63 6.097306 3.126219 -0.000000 -0.000000 0.000000 1.570796
 64 1.999104 -0.000000 -0.000000 0.000000 0.000000 0.000000
 65 1.999104 -0.000000 -0.000000 0.000000 0.000000 0.000000
 66 3.118603 -0.000000 -0.000000 0.000000 0.000000 3.141593
 67 -4.354233 3.739838 -4.037539 -0.105486 -2.782321 -1.483212
 68 17.308264 -0.000001 -0.000001 -0.000000 0.000000 -1.162887
 69 15.463845 0.000001 -0.000001 0.103926 0.095028 0.782367
 70 6.097305 3.126220 -0.000000 -0.000000 -0.000000 1.570796
 71 1.999104 -0.000000 -0.000000 0.000000 0.000000 0.000000
 72 1.999104 0.000000 -0.000000 0.000000 0.000000 0.000000
 73 3.118603 0.000000 0.000000 0.000000 0.000000 0.000000
 74 5.028741 -7.322625 0.014162 -0.000000 0.000001 -1.536686
 75 4.835413 -2.118449 0.237901 -1.640610 -1.570796 0.000000
 76 4.348886 -2.776600 -10.995128 -0.332241 -1.939523 -1.299004
 77 -3.671420 -1.336567 -0.171205 -1.524006 0.347681 0.125368
 78 5.768709 3.982529 -9.173452 3.123039 -0.488370 1.434997
 79 0.067519 -2.350639 3.344429 -1.431170 1.082104 0.034906
 80 4.998850 8.565453 -5.001401 -0.235032 -1.930170 -1.495696
 81 -0.243932 -1.549036 2.646217 -1.431170 0.349066 0.087266
 82 3.580551 8.020452 5.032156 -0.090668 -1.202692 -1.648988
 83 -0.088493 -0.306860 4.016224 -1.431170 -0.366519 -0.034907
 84 5.006862 3.913796 9.043612 -3.019418 -1.169372 1.395466
 85 3.070843 -1.522968 0.101601 -1.563776 0.398264 -0.051684
 86 5.597601 -2.928181 10.743621 -0.135243 -1.220387 -1.490863
 87 2.930166 -2.309739 0.129155 -1.542557 -0.347073 -0.049239
 88 187.500488 285.169159 -34.343369 0.000000 0.000000 0.000000
 89 191.616196 257.709625 -35.018860 0.000000 0.000000 0.000000
time 2
  0 2.703355 8.785829 30.578054 0.003848 0.689450 -1.568347
  1 19.373133 -0.090432 -23.499159 -0.689456 0.002290 1.568906
  2 -4.065220 -0.205197 -0.000000 -1.570795 -1.570451 0.000000
  3 4.434197 -0.003596 0.001683 -0.406247 -0.060175 0.427077
  4 5.339531 -0.005382 0.000520 -0.093992 -0.028601 0.208548
  5 6.940322 -0.005178 0.000911 -0.174403 -0.066431 0.086965
  6 6.620024 -0.004727 0.000411 -0.087047 0.063347 0.077636
  7 5.979039 -0.000998 0.000000 0.000000 -0.000000 0.017453
  8 1.252572 -0.000001 -0.000001 0.561449 0.361159 -0.127766
  9 9.519545 -0.000002 -0.000001 0.000000 0.000000 0.000000
 10 -3.731837 9.544960 0.014184 -0.000000 0.000001 -1.675515
 11 -3.853211 -3.394493 0.000001 0.000000 0.000000 0.000000
 12 -0.000000 0.000990 2.684130 -0.338446 -1.359115 -2.828404
 13 7.524250 -0.000001 -0.000001 0.028325 -1.037453 -1.180776
 14 11.423454 0.000001 -0.000004 -0.000000 -0.000000 -1.119641
 15 13.479675 -0.000002 0.000003 2.439416 0.033887 0.027077
 16 2.050502 0.662485 -1.659289 1.055273 0.885596 0.919630
 17 1.066194 0.000000 -0.000000 0.000000 0.000000 0.000000
 18 1.466011 0.000002 -0.000001 0.000000 0.000000 0.000000
 19 1.466009 0.000002 -0.000001 0.000000 0.000000 0.000000
 20 5.193864 -0.001291 -1.622130 -0.000865 0.401426 -0.000338
 21 1.525717 0.000000 -0.000001 0.000000 0.000000 0.000000
 22 1.473169 0.000001 0.000001 0.000000 0.000000 0.000000
 23 1.142347 0.000001 0.000000 0.000000 0.000000 0.000000
 24 4.977358 -0.298619 -0.436306 0.047536 0.133062 0.281524
 25 2.175559 -0.000001 0.000001 0.000000 0.000000 0.000000
 26 1.705905 -0.000000 -0.000002 0.000000 0.000000 0.000000
 27 1.386044 0.000000 0.000001 0.000000 0.000000 0.000000
 28 5.227220 -0.016868 0.516781 -0.041333 -0.205381 0.196330
 29 1.850601 -0.000000 0.000002 0.000000 0.000000 0.000000
 30 1.530743 -0.000000 -0.000005 0.000000 0.000000 0.000000
 31 1.302274 -0.000000 0.000000 0.000000 0.000000 0.000000
 32 5.193863 0.001292 1.622129 -0.096033 -0.390377 0.246055
 33 1.485049 0.000001 0.000001 0.000000 0.000000 0.000000
 34 1.294657 0.000001 -0.000000 0.000000 0.000000 0.000000
 35 0.951954 0.000001 -0.000001 0.000000 0.000000 0.000000
 36 -0.000000 0.001006 -2.684131 0.385677 1.142062 -2.806111
 37 7.524250 -0.000001 -0.000002 0.089016 0.186380 -2.137430
 38 11.423456 -0.000001 0.000002 -0.000000 -0.000000 -1.109962
 39 13.708142 -0.000001 -0.000001 2.857039 0.144479 0.576719
 40 1.195827 -0.033341 1.114694 -1.282531 -0.846341 0.949452
 41 1.294659 0.000000 -0.000000 0.000000 0.000000 0.000000
 42 2.182009 0.000001 -0.000000 0.000000 0.000000 0.000000
 43 1.580246 -0.000001 0.000001 0.000000 0.000000 3.141593
 44 4.895139 -0.386527 1.693282 -0.089807 -0.373831 0.243734
 45 1.507896 0.000000 -0.000002 0.000000 0.000000 0.000000
 46 1.370816 -0.000000 0.000002 0.000000 0.000000 0.000000
 47 1.279426 0.000000 -0.000003 0.000000 0.000000 3.141593
 48 5.141360 -0.100723 0.541387 -0.030822 -0.136206 0.228940
 49 1.759210 0.000000 0.000001 0.000000 0.000000 0.000000
 50 1.599283 0.000000 -0.000000 0.000000 0.000000 0.000000
 51 1.492664 0.000000 -0.000002 0.000000 0.000000 3.141593
 52 5.079529 -0.068059 -0.623695 0.088758 0.152840 0.229743
 53 1.688842 0.000000 -0.000001 0.000000 0.000000 0.000000
 54 1.507897 -0.000000 -0.000001 0.000000 0.000000 0.000000
 55 1.279427 -0.000000 -0.000001 0.000000 0.000000 3.141593
 56 5.141362 -0.099001 -1.621452 0.112242 0.406000 0.247378
 57 1.256579 0.000000 -0.000003 0.000000 0.000000 0.000000
 58 1.142347 -0.000000 0.000003 0.000000 0.000000 0.000000
 59 1.066189 0.000000 -0.000002 0.000000 0.000000 3.141593
 60 -3.700221 -0.549830 5.934393 -2.856413 -0.395468 1.150040
 61 17.308260 -0.000001 -0.000001 0.000000 -0.000000 -0.856657
 62 15.463843 -0.000000 -0.000001 -0.012801 -0.078611 0.007625
 63 6.097306 3.126218 -0.000000 -0.000000 -0.000000 1.570796
 64 1.999104 0.000000 -0.000001 0.000000 0.000000 0.000000
 65 1.999104 0.000000 0.000001 0.000000 0.000000 0.000000
 66 3.118603 0.000000 -0.000000 0.000000 0.000000 3.141593
 67 -4.354232 3.739838 -4.037539 -0.100283 -2.780443 -1.500958
 68 17.308262 -0.000001 -0.000001 -0.000000 0.000000 -1.176328
 69 15.463846 0.000001 -0.000001 0.104967 0.095282 0.779056
 70 6.097305 3.126219 -0.000000 -0.000000 -0.000000 1.570796
 71 1.999104 -0.000000 0.000000 0.000000 0.000000 0.000000
 72 1.999105 -0.000000 -0.000000 0.000000 0.000000 0.000000
 73 3.118602 -0.000000 -0.000000 0.000000 0.000000 0.000000
 74 5.028742 -7.322624 0.014162 -0.000000 0.000001 -1.536686
 75 4.835413 -2.118448 0.237901 -1.640610 -1.570796 0.000000
 76 4.348886 -2.776599 -10.995128 -0.332241 -1.939523 -1.299004
 77 -3.671420 -1.336567 -0.171205 -1.524006 0.347681 0.125368
 78 5.768710 3.982530 -9.173452 3.123039 -0.488370 1.434997
 79 0.067519 -2.350637 3.344429 -1.431170 1.082104 0.034906
 80 4.998851 8.565454 -5.001401 -0.235032 -1.930170 -1.495696
 81 -0.243933 -1.549036 2.646217 -1.431170 0.349066 0.087266
 82 3.580551 8.020453 5.032156 -0.090668 -1.202692 -1.648988
 83 -0.088494 -0.306860 4.016225 -1.431170 -0.366519 -0.034907
 84 5.006862 3.913797 9.043612 -3.019418 -1.169372 1.395466
 85 3.070843 -1.522967 0.101600 -1.563776 0.398264 -0.051684
 86 5.597602 -2.928180 10.743621 -0.135243 -1.220387 -1.490863
 87 2.930166 -2.309739 0.129155 -1.542557 -0.347073 -0.049239
 88 187.500488 285.169159 -34.343369 0.000000 0.000000 0.000000
 89 191.616196 257.709625 -35.018860 0.000000 0.000000 0.000000
time 3
  0 2.666885 9.027656 30.878538 0.003848 0.689450 -1.568347
  1 19.564856 -0.091327 -23.731714 -0.689456 0.002290 1.568906
  2 -3.534137 -0.340907 0.000000 -1.570795 -1.570451 0.000000
  3 4.434196 -0.003519 0.001838 -0.445974 -0.042068 0.429107
  4 5.338913 -0.005475 0.000528 -0.095647 -0.039331 0.095736
  5 6.940351 -0.005181 0.000884 -0.169444 -0.065946 0.091984
  6 6.620025 -0.004727 0.000413 -0.087047 0.063347 0.077636
  7 5.979038 -0.000999 -0.000002 0.000000 -0.000000 0.017453
  8 1.252571 0.000000 -0.000001 0.596857 0.317023 -0.036915
  9 9.519546 0.000001 -0.000000 0.000000 0.000000 0.000000
 10 -3.731836 9.544961 0.014183 -0.000000 0.000001 -1.675515
 11 -3.853210 -3.394492 0.000000 0.000000 0.000000 0.000000
 12 -0.000001 0.000990 2.684130 -0.338446 -1.359115 -2.828404
 13 7.524252 -0.000001 0.000001 -0.111922 -0.879466 -0.906100
 14 11.423453 0.000001 -0.000000 -0.000000 -0.000000 -1.357883
 15 13.479673 0.000000 0.000003 2.451837 -0.024909 0.134863
 16 2.050502 0.662488 -1.659292 1.055273 0.885596 0.919630
 17 1.066186 0.000001 0.000000 0.000000 0.000000 0.000000
 18 1.466011 -0.000003 0.000001 0.000000 0.000000 0.000000
 19 1.466010 0.000002 -0.000001 0.000000 0.000000 0.000000
 20 5.193861 -0.001289 -1.622127 -0.000865 0.401426 -0.000338
 21 1.525718 0.000000 -0.000000 0.000000 0.000000 0.000000
 22 1.473164 0.000001 0.000002 0.000000 0.000000 0.000000
 23 1.142347 -0.000001 -0.000001 0.000000 0.000000 0.000000
 24 4.977360 -0.298621 -0.436309 0.047536 0.133062 0.281524
 25 2.175558 0.000000 0.000003 0.000000 0.000000 0.000000
 26 1.705903 0.000002 0.000001 0.000000 0.000000 0.000000
 27 1.386045 0.000002 -0.000001 0.000000 0.000000 0.000000
 28 5.227221 -0.016869 0.516778 -0.041333 -0.205381 0.196330
 29 1.850601 0.000001 0.000000 0.000000 0.000000 0.000000
 30 1.530742 -0.000001 0.000001 0.000000 0.000000 0.000000
 31 1.302274 -0.000000 0.000000 0.000000 0.000000 0.000000
 32 5.193863 0.001292 1.622129 -0.096033 -0.390377 0.246055
 33 1.485049 0.000001 0.000001 0.000000 0.000000 0.000000
 34 1.294658 -0.000002 0.000000 0.000000 0.000000 0.000000
 35 0.951955 0.000001 -0.000000 0.000000 0.000000 0.000000
 36 -0.000001 0.001007 -2.684130 0.373380 1.143914 -2.817299
 37 7.524250 0.000002 -0.000003 0.065187 0.066209 -2.158583
 38 11.423453 -0.000000 -0.000000 -0.000000 -0.000000 -1.062790
 39 13.708144 -0.000000 0.000001 2.855110 0.145239 0.564708
 40 1.195830 -0.033341 1.114690 -1.282531 -0.846341 0.949452
 41 1.294659 0.000000 -0.000001 0.000000 0.000000 0.000000
 42 2.182009 0.000001 0.000000 0.000000 0.000000 0.000000
 43 1.580247 0.000000 0.000001 0.000000 0.000000 3.141593
 44 4.895138 -0.386527 1.693284 -0.089807 -0.373831 0.243734
 45 1.507895 -0.000000 -0.000002 0.000000 0.000000 0.000000
 46 1.370816 -0.000001 -0.000002 0.000000 0.000000 0.000000
 47 1.279426 0.000000 -0.000002 0.000000 0.000000 3.141593
 48 5.141362 -0.100723 0.541386 -0.030822 -0.136206 0.228940
 49 1.759211 0.000000 0.000001 0.000000 0.000000 0.000000
 50 1.599283 0.000000 0.000001 0.000000 0.000000 0.000000
 51 1.492666 -0.000000 0.000000 0.000000 0.000000 3.141593
 52 5.079529 -0.068059 -0.623695 0.088758 0.152840 0.229743
 53 1.688843 0.000000 -0.000001 0.000000 0.000000 0.000000
 54 1.507896 -0.000000 -0.000001 0.000000 0.000000 0.000000
 55 1.279428 -0.000000 -0.000001 0.000000 0.000000 3.141593
 56 5.141362 -0.099001 -1.621453 0.112242 0.406000 0.247378
 57 1.256580 -0.000000 0.000001 0.000000 0.000000 0.000000
 58 1.142344 0.000000 -0.000001 0.000000 0.000000 0.000000
 59 1.066189 0.000000 -0.000000 0.000000 0.000000 3.141593
 60 -3.798547 -0.748333 5.849812 -2.848248 -0.442211 1.136423
 61 17.308262 -0.000001 -0.000000 -0.000000 -0.000000 -0.863406
 62 15.463845 -0.000000 -0.000001 -0.012166 -0.085085 0.012446
 63 6.097306 3.126218 -0.000001 -0.000000 0.000000 1.570796
 64 1.999104 0.000000 0.000000 0.000000 0.000000 0.000000
 65 1.999104 0.000000 0.000000 0.000000 0.000000 0.000000
 66 3.118603 0.000000 -0.000000 0.000000 0.000000 3.141593
 67 -4.255903 3.938340 -3.952959 -0.114309 -2.737438 -1.503149
 68 17.308262 -0.000001 -0.000001 -0.000000 0.000000 -1.181571
 69 15.463848 0.000002 -0.000001 0.101402 0.088998 0.783243
 70 6.097305 3.126217 -0.000000 -0.000000 -0.000000 1.570796
 71 1.999104 -0.000000 -0.000000 0.000000 0.000000 0.000000
 72 1.999104 -0.000000 -0.000000 0.000000 0.000000 0.000000
 73 3.118603 -0.000000 -0.000000 0.000000 0.000000 0.000000
 74 5.028742 -7.322623 0.014162 -0.000000 0.000001 -1.536686
 75 4.835413 -2.118449 0.237900 -1.640610 -1.570796 0.000000
 76 4.348886 -2.776598 -10.995127 -0.332241 -1.939523 -1.299004
 77 -3.671423 -1.336565 -0.171208 -1.524006 0.347681 0.125368
 78 5.768712 3.982528 -9.173452 3.123039 -0.488370 1.434996
 79 0.067521 -2.350638 3.344429 -1.431170 1.082104 0.034906
 80 4.998851 8.565455 -5.001400 -0.235032 -1.930170 -1.495696
 81 -0.243931 -1.549035 2.646216 -1.431170 0.349066 0.087266
 82 3.580553 8.020453 5.032155 -0.090668 -1.202692 -1.648988
 83 -0.088494 -0.306858 4.016224 -1.431170 -0.366519 -0.034907
 84 5.006864 3.913796 9.043610 -3.019418 -1.169372 1.395466
 85 3.070843 -1.522968 0.101600 -1.563776 0.398264 -0.051684
 86 5.597602 -2.928178 10.743620 -0.135243 -1.220387 -1.490863
 87 2.930164 -2.309740 0.129153 -1.542557 -0.347073 -0.049239
 88 187.500488 285.169159 -34.343369 0.000000 0.000000 0.000000
 89 191.616196 257.709625 -35.018860 0.000000 0.000000 0.000000
time 4
  0 1.921751 9.085588 30.819828 0.003848 0.689450 -1.568347
  1 19.526482 -0.091148 -23.685165 -0.689456 0.002290 1.568906
  2 -3.606688 0.045271 0.000001 -1.570795 -1.570451 0.000000
  3 4.434194 -0.003399 0.002049 -0.501496 -0.016614 0.430737
  4 5.338959 -0.005473 0.000527 -0.095567 -0.038539 0.104002
  5 6.940411 -0.005185 0.000831 -0.159126 -0.065101 0.102450
  6 6.620023 -0.004729 0.000412 -0.087047 0.063347 0.077636
  7 5.979037 -0.000998 -0.000001 -0.000000 -0.000000 0.017453
  8 1.252573 -0.000001 -0.000001 0.633405 0.302678 -0.080376
  9 9.519547 -0.000001 -0.000001 0.000000 0.000000 0.000000
 10 -3.731835 9.544960 0.014183 -0.000000 0.000001 -1.675515
 11 -3.853210 -3.394492 0.000000 0.000000 0.000000 0.000000
 12 0.000001 0.000989 2.684131 -0.338447 -1.359115 -2.828403
 13 7.524251 0.000000 -0.000001 -0.361353 -0.921039 -0.654904
 14 11.423453 0.000001 -0.000000 -0.000000 -0.000000 -1.479888
 15 13.479673 -0.000001 0.000001 2.440401 0.020962 0.166202
 16 2.050502 0.662487 -1.659291 1.055273 0.885596 0.919630
 17 1.066190 0.000002 -0.000001 0.000000 0.000000 0.000000
 18 1.466010 0.000001 -0.000000 0.000000 0.000000 0.000000
 19 1.466008 0.000001 -0.000000 0.000000 0.000000 0.000000
 20 5.193862 -0.001290 -1.622127 -0.000865 0.401426 -0.000338
 21 1.525716 -0.000001 0.000000 0.000000 0.000000 0.000000
 22 1.473170 0.000005 -0.000002 0.000000 0.000000 0.000000
 23 1.142343 -0.000002 0.000001 0.000000 0.000000 0.000000
 24 4.977358 -0.298621 -0.436306 0.047536 0.133062 0.281524
 25 2.175561 0.000002 -0.000001 0.000000 0.000000 0.000000
 26 1.705902 0.000004 -0.000001 0.000000 0.000000 0.000000
 27 1.386044 -0.000000 0.000000 0.000000 0.000000 0.000000
 28 5.227221 -0.016870 0.516780 -0.041333 -0.205381 0.196330
 29 1.850598 0.000004 -0.000001 0.000000 0.000000 0.000000
 30 1.530744 0.000001 -0.000002 0.000000 0.000000 0.000000
 31 1.302273 -0.000001 0.000001 0.000000 0.000000 0.000000
 32 5.193863 0.001292 1.622130 -0.096033 -0.390377 0.246055
 33 1.485048 0.000000 -0.000000 0.000000 0.000000 0.000000
 34 1.294659 0.000000 0.000001 0.000000 0.000000 0.000000
 35 0.951955 0.000001 0.000001 0.000000 0.000000 0.000000
 36 0.000002 0.001004 -2.684131 0.347477 1.147581 -2.840897
 37 7.524247 -0.000001 0.000001 0.039755 0.102360 -2.233127
 38 11.423454 -0.000001 -0.000001 -0.000000 0.000000 -1.030426
 39 13.708144 -0.000001 -0.000000 2.853144 0.145986 0.552525
 40 1.195827 -0.033341 1.114691 -1.282531 -0.846341 0.949452
 41 1.294658 -0.000001 0.000000 0.000000 0.000000 0.000000
 42 2.182009 0.000002 -0.000002 0.000000 0.000000 0.000000
 43 1.580245 0.000000 0.000001 0.000000 0.000000 3.141593
 44 4.895139 -0.386527 1.693282 -0.089807 -0.373831 0.243734
 45 1.507897 -0.000000 0.000000 0.000000 0.000000 0.000000
 46 1.370813 0.000001 -0.000000 0.000000 0.000000 0.000000
 47 1.279425 0.000000 -0.000001 0.000000 0.000000 3.141593
 48 5.141362 -0.100723 0.541386 -0.030822 -0.136206 0.228940
 49 1.759213 -0.000000 0.000000 0.000000 0.000000 0.000000
 50 1.599284 0.000000 -0.000001 0.000000 0.000000 0.000000
 51 1.492664 0.000000 -0.000000 0.000000 0.000000 3.141593
 52 5.079530 -0.068059 -0.623694 0.088758 0.152840 0.229743
 53 1.688843 0.000000 -0.000001 0.000000 0.000000 0.000000
 54 1.507896 0.000000 0.000001 0.000000 0.000000 0.000000
 55 1.279427 -0.000000 0.000000 0.000000 0.000000 3.141593
 56 5.141361 -0.099001 -1.621454 0.112242 0.406000 0.247378
 57 1.256579 0.000000 -0.000002 0.000000 0.000000 0.000000
 58 1.142347 -0.000000 -0.000001 0.000000 0.000000 0.000000
 59 1.066188 0.000000 -0.000002 0.000000 0.000000 3.141593
 60 -3.936894 -1.018670 5.715780 -2.820028 -0.510759 1.121916
 61 17.308262 -0.000001 -0.000001 -0.000000 0.000000 -0.849881
 62 15.463845 -0.000001 -0.000001 -0.022101 -0.108591 0.003492
 63 6.097306 3.126218 -0.000000 -0.000000 -0.000000 1.570796
 64 1.999104 0.000000 0.000001 0.000000 0.000000 0.000000
 65 1.999104 0.000000 -0.000002 0.000000 0.000000 0.000000
 66 3.118603 0.000000 0.000001 0.000000 0.000000 3.141593
 67 -4.117556 4.208674 -3.818927 -0.111964 -2.676784 -1.515010
 68 17.308262 -0.000002 -0.000001 -0.000000 0.000000 -1.190344
 69 15.463845 0.000000 -0.000001 0.079553 0.073922 0.779939
 70 6.097305 3.126218 -0.000000 -0.000000 -0.000000 1.570796
 71 1.999104 -0.000000 -0.000000 0.000000 0.000000 0.000000
 72 1.999104 0.000000 0.000000 0.000000 0.000000 0.000000
 73 3.118603 0.000000 -0.000000 0.000000 0.000000 0.000000
 74 5.028742 -7.322623 0.014162 -0.000000 0.000001 -1.536686
 75 4.835411 -2.118449 0.237901 -1.640610 -1.570796 0.000000
 76 4.348885 -2.776597 -10.995126 -0.332241 -1.939523 -1.299004
 77 -3.671422 -1.336566 -0.171204 -1.524006 0.347681 0.125368
 78 5.768710 3.982530 -9.173451 3.123039 -0.488370 1.434996
 79 0.067520 -2.350639 3.344429 -1.431170 1.082104 0.034906
 80 4.998851 8.565454 -5.001400 -0.235032 -1.930170 -1.495696
 81 -0.243934 -1.549035 2.646215 -1.431170 0.349066 0.087266
 82 3.580552 8.020452 5.032156 -0.090668 -1.202692 -1.648988
 83 -0.088494 -0.306858 4.016224 -1.431170 -0.366519 -0.034907
 84 5.006863 3.913796 9.043611 -3.019418 -1.169372 1.395466
 85 3.070843 -1.522968 0.101601 -1.563776 0.398264 -0.051684
 86 5.597601 -2.928178 10.743621 -0.135243 -1.220387 -1.490863
 87 2.930165 -2.309738 0.129152 -1.542557 -0.347073 -0.049239
 88 187.500488 285.169159 -34.343369 0.000000 0.000000 0.000000
 89 191.616196 257.709625 -35.018860 0.000000 0.000000 0.000000
time 5
  0 1.445661 8.984987 30.765293 0.003848 0.689450 -1.568347
  1 19.494482 -0.090999 -23.646355 -0.689456 0.002290 1.568906
  2 -3.707519 0.063571 -0.000001 -1.570795 -1.570451 0.000000
  3 4.434193 -0.003425 0.002008 -0.490635 -0.021602 0.430529
  4 5.339050 -0.005464 0.000525 -0.095389 -0.036974 0.120365
  5 6.940471 -0.005189 0.000776 -0.148715 -0.064471 0.113040
  6 6.620023 -0.004724 0.000416 -0.087047 0.063347 0.077636
  7 5.979038 -0.000999 -0.000002 -0.000000 -0.000000 0.017453
  8 1.252573 -0.000000 -0.000001 0.607707 0.321585 -0.120679
  9 9.519547 -0.000001 -0.000001 0.000000 0.000000 0.000000
 10 -3.731836 9.544964 0.014184 -0.000000 0.000001 -1.675515
 11 -3.853210 -3.394494 0.000001 0.000000 0.000000 0.000000
 12 0.000001 0.000990 2.684131 -0.338446 -1.359115 -2.828403
 13 7.524250 0.000001 -0.000000 -0.300353 -0.948035 -0.749827
 14 11.423455 0.000000 0.000001 0.000000 -0.000000 -1.376564
 15 13.479674 -0.000001 0.000001 2.444467 0.009263 0.109983
 16 2.050501 0.662490 -1.659291 1.055273 0.885596 0.919630
 17 1.066191 0.000002 -0.000001 0.000000 0.000000 0.000000
 18 1.466007 -0.000001 0.000001 0.000000 0.000000 0.000000
 19 1.466009 -0.000001 0.000001 0.000000 0.000000 0.000000
 20 5.193862 -0.001290 -1.622127 -0.000865 0.401426 -0.000338
 21 1.525715 0.000001 0.000001 0.000000 0.000000 0.000000
 22 1.473173 0.000002 -0.000001 0.000000 0.000000 0.000000
 23 1.142346 -0.000000 0.000001 0.000000 0.000000 0.000000
 24 4.977358 -0.298620 -0.436305 0.047536 0.133062 0.281524
 25 2.175558 0.000000 0.000001 0.000000 0.000000 0.000000
 26 1.705905 0.000002 -0.000001 0.000000 0.000000 0.000000
 27 1.386044 -0.000000 0.000001 0.000000 0.000000 0.000000
 28 5.227221 -0.016870 0.516779 -0.041333 -0.205381 0.196330
 29 1.850599 -0.000001 0.000002 0.000000 0.000000 0.000000
 30 1.530743 0.000002 0.000004 0.000000 0.000000 0.000000
 31 1.302274 -0.000001 -0.000001 0.000000 0.000000 0.000000
 32 5.193863 0.001293 1.622130 -0.096033 -0.390377 0.246055
 33 1.485049 0.000002 -0.000002 0.000000 0.000000 0.000000
 34 1.294659 -0.000000 0.000003 0.000000 0.000000 0.000000
 35 0.951954 -0.000000 -0.000001 0.000000 0.000000 0.000000
 36 0.000001 0.001005 -2.684131 0.320915 1.151024 -2.865134
 37 7.524246 -0.000003 -0.000001 0.028987 0.135122 -2.239235
 38 11.423450 -0.000000 -0.000002 0.000000 0.000000 -0.990932
 39 13.708145 -0.000000 0.000002 2.851219 0.146691 0.540648
 40 1.195830 -0.033342 1.114693 -1.282531 -0.846341 0.949452
 41 1.294659 0.000000 -0.000000 0.000000 0.000000 0.000000
 42 2.182009 0.000001 -0.000000 0.000000 0.000000 0.000000
 43 1.580244 0.000000 -0.000001 0.000000 0.000000 3.141593
 44 4.895140 -0.386528 1.693282 -0.089807 -0.373831 0.243734
 45 1.507896 0.000000 -0.000001 0.000000 0.000000 0.000000
 46 1.370817 -0.000001 -0.000000 0.000000 0.000000 0.000000
 47 1.279425 0.000000 -0.000002 0.000000 0.000000 3.141593
 48 5.141363 -0.100724 0.541388 -0.030822 -0.136206 0.228940
 49 1.759212 -0.000000 0.000001 0.000000 0.000000 0.000000
 50 1.599282 0.000000 0.000000 0.000000 0.000000 0.000000
 51 1.492663 0.000000 -0.000000 0.000000 0.000000 3.141593
 52 5.079530 -0.068060 -0.623693 0.088758 0.152840 0.229743
 53 1.688843 0.000000 0.000000 0.000000 0.000000 0.000000
 54 1.507897 -0.000000 0.000000 0.000000 0.000000 0.000000
 55 1.279427 0.000000 0.000001 0.000000 0.000000 3.141593
 56 5.141362 -0.099001 -1.621451 0.112242 0.406000 0.247378
 57 1.256579 0.000000 -0.000001 0.000000 0.000000 0.000000
 58 1.142345 0.000000 -0.000000 0.000000 0.000000 0.000000
 59 1.066190 -0.000000 -0.000000 0.000000 0.000000 3.141593
 60 -3.909774 -0.966496 5.743427 -2.804185 -0.508777 1.127442
 61 17.308260 -0.000001 -0.000000 0.000000 0.000000 -0.844667
 62 15.463845 -0.000001 -0.000001 -0.028067 -0.127508 0.004435
 63 6.097305 3.126218 -0.000001 -0.000000 -0.000000 1.570796
 64 1.999104 0.000000 0.000001 0.000000 0.000000 0.000000
 65 1.999103 0.000000 -0.000001 0.000000 0.000000 0.000000
 66 3.118603 0.000000 0.000000 0.000000 0.000000 3.141593
 67 -4.144676 4.156502 -3.846574 -0.086796 -2.680358 -1.514284
 68 17.308260 -0.000001 -0.000001 -0.000000 0.000000 -1.192135
 69 15.463845 0.000001 -0.000001 0.063809 0.059610 0.780520
 70 6.097305 3.126219 -0.000000 -0.000000 -0.000000 1.570796
 71 1.999105 0.000000 0.000000 0.000000 0.000000 0.000000
 72 1.999103 0.000000 -0.000000 0.000000 0.000000 0.000000
 73 3.118603 0.000000 0.000000 0.000000 0.000000 0.000000
 74 5.028740 -7.322621 0.014163 -0.000000 0.000001 -1.536686
 75 4.835414 -2.118448 0.237899 -1.640610 -1.570796 0.000000
 76 4.348885 -2.776597 -10.995127 -0.332241 -1.939523 -1.299004
 77 -3.671422 -1.336565 -0.171207 -1.524006 0.347681 0.125368
 78 5.768711 3.982529 -9.173452 3.123039 -0.488369 1.434996
 79 0.067520 -2.350639 3.344428 -1.431170 1.082104 0.034906
 80 4.998850 8.565454 -5.001400 -0.235032 -1.930170 -1.495696
 81 -0.243931 -1.549037 2.646218 -1.431170 0.349066 0.087266
 82 3.580551 8.020454 5.032155 -0.090668 -1.202692 -1.648988
 83 -0.088494 -0.306859 4.016225 -1.431170 -0.366519 -0.034907
 84 5.006862 3.913797 9.043610 -3.019418 -1.169372 1.395466
 85 3.070843 -1.522968 0.101602 -1.563776 0.398264 -0.051684
 86 5.597600 -2.928178 10.743619 -0.135243 -1.220387 -1.490863
 87 2.930164 -2.309739 0.129153 -1.542557 -0.347073 -0.049240
 88 187.500488 285.169159 -34.343369 0.000000 0.000000 0.000000
 89 191.616196 257.709625 -35.018860 0.000000 0.000000 0.000000
time 6
  0 1.501284 8.805962 30.727053 0.003848 0.689450 -1.568347
  1 19.471960 -0.090894 -23.619036 -0.689456 0.002290 1.568906
  2 -3.807716 0.049866 -0.000001 -1.570795 -1.570451 0.000000
  3 4.434192 -0.003457 0.001950 -0.475277 -0.028650 0.430143
  4 5.339142 -0.005455 0.000524 -0.095186 -0.035408 0.136769
  5 6.940528 -0.005187 0.000726 -0.138657 -0.064076 0.123302
  6 6.620022 -0.004731 0.000409 -0.087047 0.063347 0.077636
  7 5.979037 -0.000997 -0.000001 -0.000000 -0.000000 0.017453
  8 1.252573 -0.000001 -0.000000 0.577558 0.341377 -0.160353
  9 9.519545 -0.000001 -0.000001 0.000000 0.000000 0.000000
 10 -3.731836 9.544961 0.014183 -0.000000 0.000001 -1.675515
 11 -3.853210 -3.394494 0.000001 0.000000 0.000000 0.000000
 12 0.000001 0.000991 2.684133 -0.338446 -1.359115 -2.828403
 13 7.524248 0.000003 -0.000001 -0.205326 -0.971041 -0.880480
 14 11.423455 0.000001 0.000001 0.000000 -0.000000 -1.252720
 15 13.479676 -0.000001 0.000002 2.449205 -0.005696 0.044921
 16 2.050502 0.662486 -1.659288 1.055273 0.885596 0.919630
 17 1.066190 0.000002 -0.000001 0.000000 0.000000 0.000000
 18 1.466012 -0.000001 0.000000 0.000000 0.000000 0.000000
 19 1.466011 -0.000001 0.000000 0.000000 0.000000 0.000000
 20 5.193862 -0.001292 -1.622126 -0.000865 0.401426 -0.000338
 21 1.525715 -0.000000 -0.000001 0.000000 0.000000 0.000000
 22 1.473171 -0.000002 0.000001 0.000000 0.000000 0.000000
 23 1.142345 0.000001 -0.000002 0.000000 0.000000 0.000000
 24 4.977358 -0.298620 -0.436305 0.047536 0.133062 0.281524
 25 2.175557 0.000001 0.000002 0.000000 0.000000 0.000000
 26 1.705904 -0.000000 -0.000001 0.000000 0.000000 0.000000
 27 1.386045 -0.000000 -0.000001 0.000000 0.000000 0.000000
 28 5.227220 -0.016869 0.516782 -0.041333 -0.205381 0.196330
 29 1.850598 -0.000000 0.000004 0.000000 0.000000 0.000000
 30 1.530743 -0.000001 -0.000005 0.000000 0.000000 0.000000
 31 1.302274 -0.000000 0.000000 0.000000 0.000000 0.000000
 32 5.193862 0.001290 1.622132 -0.096033 -0.390377 0.246055
 33 1.485049 -0.000000 -0.000001 0.000000 0.000000 0.000000
 34 1.294657 -0.000001 -0.000001 0.000000 0.000000 0.000000
 35 0.951955 0.000001 -0.000002 0.000000 0.000000 0.000000
 36 0.000002 0.001004 -2.684131 0.294853 1.154101 -2.888951
 37 7.524247 -0.000003 -0.000000 0.019069 0.166601 -2.240614
 38 11.423453 -0.000000 -0.000000 -0.000000 -0.000000 -0.952246
 39 13.708146 -0.000001 0.000002 2.849355 0.147349 0.529192
 40 1.195829 -0.033341 1.114695 -1.282531 -0.846341 0.949452
 41 1.294657 0.000001 0.000001 0.000000 0.000000 0.000000
 42 2.182013 -0.000002 0.000000 0.000000 0.000000 0.000000
 43 1.580244 -0.000001 0.000001 0.000000 0.000000 3.141593
 44 4.895140 -0.386528 1.693283 -0.089807 -0.373831 0.243734
 45 1.507895 0.000001 -0.000002 0.000000 0.000000 0.000000
 46 1.370818 -0.000001 -0.000002 0.000000 0.000000 0.000000
 47 1.279425 0.000001 0.000001 0.000000 0.000000 3.141593
 48 5.141360 -0.100724 0.541388 -0.030822 -0.136206 0.228940
 49 1.759212 0.000000 0.000001 0.000000 0.000000 0.000000
 50 1.599283 0.000000 0.000000 0.000000 0.000000 0.000000
 51 1.492663 0.000001 -0.000001 0.000000 0.000000 3.141593
 52 5.079528 -0.068060 -0.623692 0.088758 0.152840 0.229743
 53 1.688844 -0.000000 -0.000001 0.000000 0.000000 0.000000
 54 1.507896 -0.000000 -0.000002 0.000000 0.000000 0.000000
 55 1.279426 0.000000 0.000002 0.000000 0.000000 3.141593
 56 5.141362 -0.099001 -1.621451 0.112242 0.406000 0.247378
 57 1.256580 0.000000 -0.000002 0.000000 0.000000 0.000000
 58 1.142346 -0.000000 0.000004 0.000000 0.000000 0.000000
 59 1.066190 -0.000000 -0.000001 0.000000 0.000000 3.141593
 60 -3.871463 -0.892118 5.781343 -2.808455 -0.491233 1.133736
 61 17.308262 -0.000001 -0.000000 -0.000000 -0.000000 -0.850378
 62 15.463846 -0.000001 -0.000002 -0.027857 -0.124911 0.011392
 63 6.097306 3.126219 -0.000001 -0.000000 -0.000000 1.570796
 64 1.999104 -0.000000 0.000000 0.000000 0.000000 0.000000
 65 1.999104 -0.000000 0.000001 0.000000 0.000000 0.000000
 66 3.118603 -0.000000 -0.000000 0.000000 0.000000 3.141593
 67 -4.182985 4.082118 -3.884491 -0.084869 -2.696708 -1.506204
 68 17.308262 -0.000001 -0.000001 -0.000000 -0.000000 -1.186653
 69 15.463843 0.000001 -0.000001 0.065725 0.061264 0.782369
 70 6.097306 3.126218 -0.000001 -0.000000 -0.000000 1.570796
 71 1.999105 -0.000000 -0.000000 0.000000 0.000000 0.000000
 72 1.999105 -0.000000 0.000000 0.000000 0.000000 0.000000
 73 3.118603 -0.000000 -0.000000 0.000000 0.000000 0.000000
 74 5.028741 -7.322624 0.014163 -0.000000 0.000001 -1.536686
 75 4.835414 -2.118448 0.237900 -1.640610 -1.570796 0.000000
 76 4.348886 -2.776601 -10.995127 -0.332241 -1.939523 -1.299004
 77 -3.671421 -1.336566 -0.171206 -1.524006 0.347681 0.125368
 78 5.768710 3.982529 -9.173451 3.123039 -0.488370 1.434996
 79 0.067521 -2.350639 3.344428 -1.431170 1.082104 0.034906
 80 4.998851 8.565453 -5.001401 -0.235032 -1.930170 -1.495696
 81 -0.243933 -1.549036 2.646218 -1.431170 0.349066 0.087266
 82 3.580551 8.020452 5.032155 -0.090668 -1.202692 -1.648988
 83 -0.088494 -0.306859 4.016225 -1.431170 -0.366519 -0.034907
 84 5.006863 3.913795 9.043611 -3.019418 -1.169372 1.395466
 85 3.070843 -1.522969 0.101603 -1.563776 0.398264 -0.051684
 86 5.597600 -2.928180 10.743621 -0.135243 -1.220387 -1.490863
 87 2.930165 -2.309740 0.129154 -1.542557 -0.347073 -0.049239
 88 187.500488 285.169159 -34.343369 0.000000 0.000000 0.000000
 89 191.616196 257.709625 -35.018860 0.000000 0.000000 0.000000
time 7
  0 1.582946 8.680367 30.702532 0.003848 0.689450 -1.568347
  1 19.455639 -0.090817 -23.599237 -0.689456 0.002290 1.568906
  2 -3.902927 0.030507 0.000000 -1.570795 -1.570451 0.000000
  3 4.434192 -0.003486 0.001893 -0.460239 -0.035542 0.429661
  4 5.339228 -0.005444 0.000522 -0.094967 -0.033914 0.152451
  5 6.940582 -0.005185 0.000677 -0.129078 -0.063895 0.133102
  6 6.620024 -0.004728 0.000410 -0.087047 0.063347 0.077636
  7 5.979036 -0.000995 0.000001 0.000000 -0.000000 0.017453
  8 1.252572 -0.000002 -0.000001 0.547734 0.359556 -0.199084
  9 9.519544 -0.000001 -0.000001 0.000000 0.000000 0.000000
 10 -3.731839 9.544962 0.014183 -0.000000 0.000001 -1.675515
 11 -3.853211 -3.394492 0.000001 0.000000 0.000000 0.000000
 12 0.000001 0.000987 2.684129 -0.338446 -1.359115 -2.828403
 13 7.524251 -0.000004 0.000001 -0.098506 -0.987952 -1.022375
 14 11.423453 0.000001 0.000001 -0.000000 -0.000000 -1.122764
 15 13.479675 -0.000000 0.000002 2.453363 -0.019598 -0.023597
 16 2.050500 0.662487 -1.659289 1.055273 0.885596 0.919630
 17 1.066189 0.000003 -0.000001 0.000000 0.000000 0.000000
 18 1.466009 -0.000002 0.000001 0.000000 0.000000 0.000000
 19 1.466013 0.000001 -0.000000 0.000000 0.000000 0.000000
 20 5.193861 -0.001290 -1.622128 -0.000865 0.401426 -0.000338
 21 1.525715 0.000000 0.000001 0.000000 0.000000 0.000000
 22 1.473172 0.000001 -0.000002 0.000000 0.000000 0.000000
 23 1.142344 0.000000 0.000001 0.000000 0.000000 0.000000
 24 4.977359 -0.298620 -0.436308 0.047536 0.133062 0.281524
 25 2.175559 0.000001 0.000000 0.000000 0.000000 0.000000
 26 1.705902 0.000001 0.000001 0.000000 0.000000 0.000000
 27 1.386046 -0.000001 -0.000001 0.000000 0.000000 0.000000
 28 5.227220 -0.016868 0.516781 -0.041333 -0.205381 0.196330
 29 1.850600 0.000000 -0.000003 0.000000 0.000000 0.000000
 30 1.530742 0.000001 0.000001 0.000000 0.000000 0.000000
 31 1.302274 0.000000 0.000002 0.000000 0.000000 0.000000
 32 5.193862 0.001292 1.622130 -0.096033 -0.390377 0.246055
 33 1.485048 -0.000000 -0.000001 0.000000 0.000000 0.000000
 34 1.294658 -0.000000 -0.000001 0.000000 0.000000 0.000000
 35 0.951955 -0.000001 -0.000001 0.000000 0.000000 0.000000
 36 0.000002 0.001004 -2.684131 0.269685 1.156796 -2.911979
 37 7.524250 0.000001 -0.000001 0.009023 0.196509 -2.242060
 38 11.423452 -0.000001 -0.000001 0.000000 0.000000 -0.915330
 39 13.708146 -0.000002 -0.000003 2.847571 0.147957 0.518272
 40 1.195828 -0.033342 1.114691 -1.282531 -0.846341 0.949452
 41 1.294657 -0.000000 0.000001 0.000000 0.000000 0.000000
 42 2.182010 -0.000001 0.000000 0.000000 0.000000 0.000000
 43 1.580246 -0.000002 0.000002 0.000000 0.000000 3.141593
 44 4.895139 -0.386528 1.693280 -0.089807 -0.373831 0.243734
 45 1.507895 0.000000 0.000000 0.000000 0.000000 0.000000
 46 1.370814 0.000000 0.000000 0.000000 0.000000 0.000000
 47 1.279426 0.000000 0.000001 0.000000 0.000000 3.141593
 48 5.141361 -0.100724 0.541387 -0.030822 -0.136206 0.228940
 49 1.759211 0.000000 0.000000 0.000000 0.000000 0.000000
 50 1.599282 0.000000 -0.000001 0.000000 0.000000 0.000000
 51 1.492663 0.000000 -0.000002 0.000000 0.000000 3.141593
 52 5.079528 -0.068060 -0.623694 0.088758 0.152840 0.229743
 53 1.688844 -0.000000 0.000002 0.000000 0.000000 0.000000
 54 1.507897 -0.000000 -0.000003 0.000000 0.000000 0.000000
 55 1.279427 0.000000 0.000001 0.000000 0.000000 3.141593
 56 5.141360 -0.099001 -1.621454 0.112242 0.406000 0.247378
 57 1.256580 0.000000 -0.000000 0.000000 0.000000 0.000000
 58 1.142344 0.000000 -0.000000 0.000000 0.000000 0.000000
 59 1.066188 0.000000 -0.000000 0.000000 0.000000 3.141593
 60 -3.834008 -0.818626 5.817119 -2.813927 -0.473915 1.140671
 61 17.308260 -0.000002 0.000000 -0.000000 -0.000000 -0.851629
 62 15.463847 -0.000000 -0.000001 -0.027199 -0.121346 0.014631
 63 6.097306 3.126219 -0.000000 -0.000000 -0.000000 1.570796
 64 1.999104 0.000000 -0.000000 0.000000 0.000000 0.000000
 65 1.999104 0.000000 -0.000000 0.000000 0.000000 0.000000
 66 3.118603 0.000000 0.000000 0.000000 0.000000 3.141593
 67 -4.220439 4.008626 -3.920268 -0.083160 -2.712932 -1.499966
 68 17.308264 -0.000002 -0.000001 -0.000000 0.000000 -1.180692
 69 15.463844 -0.000000 -0.000001 0.068467 0.063668 0.782125
 70 6.097305 3.126219 -0.000000 -0.000000 -0.000000 1.570796
 71 1.999105 0.000000 0.000000 0.000000 0.000000 0.000000
 72 1.999103 0.000000 -0.000001 0.000000 0.000000 0.000000
 73 3.118603 0.000000 0.000000 0.000000 0.000000 0.000000
 74 5.028742 -7.322624 0.014162 -0.000000 0.000001 -1.536686
 75 4.835416 -2.118448 0.237901 -1.640610 -1.570796 0.000000
 76 4.348886 -2.776598 -10.995126 -0.332241 -1.939523 -1.299004
 77 -3.671423 -1.336567 -0.171205 -1.524006 0.347681 0.125368
 78 5.768712 3.982528 -9.173451 3.123039 -0.488370 1.434996
 79 0.067522 -2.350638 3.344427 -1.431170 1.082104 0.034906
 80 4.998852 8.565454 -5.001400 -0.235033 -1.930170 -1.495696
 81 -0.243933 -1.549037 2.646217 -1.431170 0.349066 0.087266
 82 3.580552 8.020453 5.032155 -0.090668 -1.202692 -1.648988
 83 -0.088494 -0.306859 4.016225 -1.431170 -0.366519 -0.034907
 84 5.006864 3.913796 9.043609 -3.019418 -1.169372 1.395466
 85 3.070842 -1.522969 0.101601 -1.563776 0.398264 -0.051684
 86 5.597601 -2.928179 10.743618 -0.135243 -1.220387 -1.490863
 87 2.930164 -2.309739 0.129154 -1.542557 -0.347073 -0.049239
 88 187.500488 285.169159 -34.343369 0.000000 0.000000 0.000000
 89 191.616196 257.709625 -35.018860 0.000000 0.000000 0.000000
time 8
  0 1.661197 8.571340 30.687519 0.003848 0.689450 -1.568347
  1 19.446104 -0.090773 -23.587671 -0.689456 0.002290 1.568906
  2 -3.991488 0.008573 0.000001 -1.570795 -1.570451 0.000000
  3 4.434196 -0.003519 0.001838 -0.446111 -0.042006 0.429113
  4 5.339306 -0.005424 0.000524 -0.094740 -0.032517 0.167145
  5 6.940635 -0.005189 0.000628 -0.120118 -0.063900 0.142294
  6 6.620023 -0.004727 0.000413 -0.087047 0.063347 0.077636
  7 5.979039 -0.000997 -0.000001 0.000000 -0.000000 0.017453
  8 1.252572 0.000000 0.000001 0.519132 0.375784 -0.236179
  9 9.519546 0.000000 -0.000000 0.000000 0.000000 0.000000
 10 -3.731837 9.544960 0.014183 -0.000000 0.000001 -1.675515
 11 -3.853209 -3.394492 0.000001 0.000000 0.000000 0.000000
 12 0.000001 0.000991 2.684133 -0.338446 -1.359115 -2.828404
 13 7.524251 -0.000002 0.000001 0.016745 -0.997262 -1.171748
 14 11.423454 0.000000 -0.000001 0.000000 0.000000 -0.987920
 15 13.479674 -0.000001 -0.000001 2.456914 -0.032106 -0.094823
 16 2.050501 0.662487 -1.659289 1.055273 0.885596 0.919630
 17 1.066188 -0.000001 0.000000 0.000000 0.000000 0.000000
 18 1.466010 0.000002 -0.000001 0.000000 0.000000 0.000000
 19 1.466009 0.000002 -0.000001 0.000000 0.000000 0.000000
 20 5.193862 -0.001290 -1.622128 -0.000865 0.401426 -0.000338
 21 1.525715 -0.000000 0.000002 0.000000 0.000000 0.000000
 22 1.473170 -0.000000 -0.000001 0.000000 0.000000 0.000000
 23 1.142345 -0.000001 0.000000 0.000000 0.000000 0.000000
 24 4.977360 -0.298621 -0.436309 0.047536 0.133062 0.281524
 25 2.175560 -0.000001 0.000000 0.000000 0.000000 0.000000
 26 1.705901 0.000002 -0.000000 0.000000 0.000000 0.000000
 27 1.386044 -0.000000 0.000001 0.000000 0.000000 0.000000
 28 5.227221 -0.016869 0.516781 -0.041333 -0.205381 0.196330
 29 1.850600 -0.000002 0.000002 0.000000 0.000000 0.000000
 30 1.530742 0.000002 -0.000001 0.000000 0.000000 0.000000
 31 1.302274 0.000000 0.000001 0.000000 0.000000 0.000000
 32 5.193864 0.001293 1.622130 -0.096033 -0.390377 0.246055
 33 1.485048 -0.000002 0.000001 0.000000 0.000000 0.000000
 34 1.294658 0.000001 0.000001 0.000000 0.000000 0.000000
 35 0.951955 -0.000000 0.000001 0.000000 0.000000 0.000000
 36 -0.000000 0.001005 -2.684130 0.245841 1.159106 -2.933820
 37 7.524249 -0.000002 -0.000001 -0.001033 0.224423 -2.243889
 38 11.423455 -0.000001 -0.000000 -0.000000 -0.000000 -0.880748
 39 13.708144 0.000000 0.000002 2.845894 0.148509 0.508042
 40 1.195829 -0.033341 1.114694 -1.282531 -0.846341 0.949452
 41 1.294659 -0.000002 0.000001 0.000000 0.000000 0.000000
 42 2.182008 0.000002 -0.000001 0.000000 0.000000 0.000000
 43 1.580245 -0.000001 0.000001 0.000000 0.000000 3.141593
 44 4.895138 -0.386528 1.693284 -0.089807 -0.373831 0.243734
 45 1.507897 -0.000000 -0.000000 0.000000 0.000000 0.000000
 46 1.370810 0.000001 -0.000003 0.000000 0.000000 0.000000
 47 1.279428 -0.000000 0.000002 0.000000 0.000000 3.141593
 48 5.141360 -0.100723 0.541390 -0.030822 -0.136206 0.228940
 49 1.759211 0.000000 0.000000 0.000000 0.000000 0.000000
 50 1.599286 -0.000000 0.000000 0.000000 0.000000 0.000000
 51 1.492663 0.000000 0.000000 0.000000 0.000000 3.141593
 52 5.079528 -0.068059 -0.623691 0.088758 0.152840 0.229743
 53 1.688843 0.000000 0.000001 0.000000 0.000000 0.000000
 54 1.507896 0.000000 -0.000001 0.000000 0.000000 0.000000
 55 1.279426 0.000000 -0.000000 0.000000 0.000000 3.141593
 56 5.141361 -0.099001 -1.621451 0.112242 0.406000 0.247378
 57 1.256580 0.000000 -0.000001 0.000000 0.000000 0.000000
 58 1.142346 -0.000000 -0.000001 0.000000 0.000000 0.000000
 59 1.066189 0.000000 -0.000001 0.000000 0.000000 3.141593
 60 -3.798889 -0.749011 5.849504 -2.819196 -0.457853 1.147718
 61 17.308262 -0.000002 -0.000001 0.000000 -0.000000 -0.851145
 62 15.463845 -0.000001 -0.000001 -0.026538 -0.117996 0.016627
 63 6.097306 3.126218 0.000000 -0.000000 -0.000000 1.570796
 64 1.999104 0.000000 0.000000 0.000000 0.000000 0.000000
 65 1.999104 0.000000 0.000000 0.000000 0.000000 0.000000
 66 3.118603 0.000000 0.000000 0.000000 0.000000 3.141593
 67 -4.255563 3.939021 -3.952649 -0.081398 -2.728072 -1.494107
 68 17.308260 -0.000001 -0.000001 -0.000000 0.000000 -1.174386
 69 15.463847 0.000001 -0.000001 0.071067 0.065872 0.781150
 70 6.097305 3.126219 -0.000000 -0.000000 -0.000000 1.570796
 71 1.999104 0.000000 -0.000000 0.000000 0.000000 0.000000
 72 1.999105 0.000000 0.000000 0.000000 0.000000 0.000000
 73 3.118603 0.000000 0.000000 0.000000 0.000000 0.000000
 74 5.028741 -7.322621 0.014163 -0.000000 0.000001 -1.536686
 75 4.835414 -2.118449 0.237901 -1.640610 -1.570796 0.000000
 76 4.348885 -2.776597 -10.995126 -0.332241 -1.939523 -1.299004
 77 -3.671423 -1.336567 -0.171207 -1.524006 0.347681 0.125368
 78 5.768712 3.982529 -9.173452 3.123039 -0.488370 1.434996
 79 0.067519 -2.350638 3.344428 -1.431170 1.082104 0.034906
 80 4.998850 8.565457 -5.001399 -0.235032 -1.930170 -1.495696
 81 -0.243932 -1.549036 2.646218 -1.431170 0.349066 0.087266
 82 3.580552 8.020455 5.032156 -0.090668 -1.202692 -1.648988
 83 -0.088494 -0.306858 4.016224 -1.431170 -0.366519 -0.034907
 84 5.006863 3.913799 9.043612 -3.019418 -1.169372 1.395466
 85 3.070843 -1.522969 0.101602 -1.563776 0.398264 -0.051684
 86 5.597601 -2.928177 10.743620 -0.135243 -1.220387 -1.490863
 87 2.930165 -2.309740 0.129157 -1.542557 -0.347073 -0.049240
 88 187.500488 285.169159 -34.343369 0.000000 0.000000 0.000000
 89 191.616196 257.709625 -35.018860 0.000000 0.000000 0.000000
time 9
  0 1.740329 8.462626 30.677866 0.003848 0.689450 -1.568347
  1 19.440084 -0.090745 -23.580370 -0.689456 0.002290 1.568906
  2 -4.071620 -0.014496 0.000001 -1.570795 -1.570451 0.000000
  3 4.434193 -0.003542 0.001788 -0.433211 -0.047897 0.428533
  4 5.339381 -0.005417 0.000520 -0.094516 -0.031246 0.180551
  5 6.940681 -0.005186 0.000586 -0.111953 -0.064050 0.150691
  6 6.620024 -0.004727 0.000413 -0.087047 0.063347 0.077636
  7 5.979040 -0.000997 -0.000001 0.000000 -0.000000 0.017453
  8 1.252571 0.000000 0.000001 0.492505 0.389874 -0.270705
  9 9.519545 0.000000 -0.000001 0.000000 0.000000 0.000000
 10 -3.731835 9.544961 0.014184 -0.000000 0.000001 -1.675515
 11 -3.853211 -3.394494 0.000001 0.000000 0.000000 0.000000
 12 -0.000002 0.000991 2.684132 -0.338446 -1.359115 -2.828403
 13 7.524248 -0.000000 -0.000000 0.136757 -0.997615 -1.324620
 14 11.423456 0.000001 -0.000003 0.000000 -0.000000 -0.848793
 15 13.479676 -0.000001 0.000002 2.459891 -0.043116 -0.168176
 16 2.050501 0.662487 -1.659289 1.055273 0.885596 0.919630
 17 1.066188 0.000003 -0.000000 0.000000 0.000000 0.000000
 18 1.466009 -0.000001 0.000000 0.000000 0.000000 0.000000
 19 1.466009 -0.000001 0.000000 0.000000 0.000000 0.000000
 20 5.193862 -0.001291 -1.622128 -0.000865 0.401426 -0.000338
 21 1.525717 -0.000000 0.000001 0.000000 0.000000 0.000000
 22 1.473164 0.000001 -0.000000 0.000000 0.000000 0.000000
 23 1.142347 0.000000 -0.000001 0.000000 0.000000 0.000000
 24 4.977357 -0.298618 -0.436304 0.047536 0.133062 0.281524
 25 2.175556 -0.000000 0.000002 0.000000 0.000000 0.000000
 26 1.705902 0.000000 -0.000001 0.000000 0.000000 0.000000
 27 1.386046 0.000001 -0.000002 0.000000 0.000000 0.000000
 28 5.227218 -0.016868 0.516784 -0.041333 -0.205381 0.196330
 29 1.850600 0.000000 -0.000001 0.000000 0.000000 0.000000
 30 1.530742 0.000000 -0.000002 0.000000 0.000000 0.000000
 31 1.302272 0.000001 0.000003 0.000000 0.000000 0.000000
 32 5.193862 0.001294 1.622133 -0.096033 -0.390377 0.246055
 33 1.485049 -0.000000 0.000004 0.000000 0.000000 0.000000
 34 1.294658 0.000001 -0.000001 0.000000 0.000000 0.000000
 35 0.951954 0.000000 -0.000001 0.000000 0.000000 0.000000
 36 -0.000001 0.001003 -2.684132 0.223873 1.161030 -2.953961
 37 7.524247 -0.000002 0.000000 -0.010789 0.249793 -2.246009
 38 11.423451 -0.000001 -0.000002 0.000000 -0.000000 -0.849195
 39 13.708144 0.000000 0.000003 2.844358 0.148998 0.498707
 40 1.195830 -0.033342 1.114691 -1.282531 -0.846341 0.949452
 41 1.294660 -0.000002 0.000001 0.000000 0.000000 0.000000
 42 2.182009 -0.000001 0.000002 0.000000 0.000000 0.000000
 43 1.580245 -0.000001 0.000001 0.000000 0.000000 3.141593
 44 4.895138 -0.386528 1.693281 -0.089807 -0.373831 0.243734
 45 1.507896 -0.000000 -0.000001 0.000000 0.000000 0.000000
 46 1.370812 0.000000 0.000001 0.000000 0.000000 0.000000
 47 1.279428 -0.000000 -0.000000 0.000000 0.000000 3.141593
 48 5.141360 -0.100723 0.541386 -0.030822 -0.136206 0.228940
 49 1.759210 0.000000 0.000001 0.000000 0.000000 0.000000
 50 1.599284 0.000000 0.000002 0.000000 0.000000 0.000000
 51 1.492663 0.000000 0.000000 0.000000 0.000000 3.141593
 52 5.079528 -0.068059 -0.623695 0.088758 0.152840 0.229743
 53 1.688844 0.000000 -0.000000 0.000000 0.000000 0.000000
 54 1.507895 0.000000 -0.000002 0.000000 0.000000 0.000000
 55 1.279427 0.000000 0.000001 0.000000 0.000000 3.141593
 56 5.141361 -0.099001 -1.621453 0.112242 0.406000 0.247378
 57 1.256579 0.000000 0.000000 0.000000 0.000000 0.000000
 58 1.142344 0.000000 0.000001 0.000000 0.000000 0.000000
 59 1.066190 -0.000000 0.000002 0.000000 0.000000 3.141593
 60 -3.766881 -0.684996 5.878024 -2.824235 -0.443157 1.154424
 61 17.308264 -0.000002 -0.000001 0.000000 0.000000 -0.850787
 62 15.463845 -0.000000 -0.000000 -0.025851 -0.114689 0.018876
 63 6.097305 3.126218 -0.000000 -0.000000 -0.000000 1.570796
 64 1.999104 0.000000 0.000001 0.000000 0.000000 0.000000
 65 1.999104 0.000000 -0.000001 0.000000 0.000000 0.000000
 66 3.118603 0.000000 -0.000000 0.000000 0.000000 3.141593
 67 -4.287566 3.874994 -3.981174 -0.080203 -2.741930 -1.488036
 68 17.308262 -0.000002 -0.000001 -0.000000 0.000000 -1.167952
 69 15.463843 0.000001 -0.000001 0.073682 0.067999 0.780239
 70 6.097305 3.126219 -0.000001 -0.000000 -0.000000 1.570796
 71 1.999104 0.000000 0.000000 0.000000 0.000000 0.000000
 72 1.999104 -0.000000 -0.000000 0.000000 0.000000 0.000000
 73 3.118603 0.000000 -0.000000 0.000000 0.000000 0.000000
 74 5.028741 -7.322622 0.014163 -0.000000 0.000001 -1.536686
 75 4.835412 -2.118449 0.237901 -1.640610 -1.570796 0.000000
 76 4.348886 -2.776599 -10.995127 -0.332241 -1.939523 -1.299004
 77 -3.671424 -1.336567 -0.171208 -1.524006 0.347681 0.125368
 78 5.768712 3.982529 -9.173452 3.123039 -0.488370 1.434997
 79 0.067519 -2.350639 3.344429 -1.431170 1.082104 0.034906
 80 4.998853 8.565453 -5.001401 -0.235032 -1.930170 -1.495696
 81 -0.243932 -1.549036 2.646217 -1.431170 0.349066 0.087266
 82 3.580552 8.020454 5.032156 -0.090668 -1.202692 -1.648988
 83 -0.088494 -0.306859 4.016224 -1.431170 -0.366519 -0.034907
 84 5.006863 3.913798 9.043611 -3.019418 -1.169372 1.395466
 85 3.070843 -1.522968 0.101602 -1.563776 0.398264 -0.051684
 86 5.597601 -2.928178 10.743621 -0.135243 -1.220387 -1.490863
 87 2.930165 -2.309740 0.129155 -1.542557 -0.347073 -0.049239
 88 187.500488 285.169159 -34.343369 0.000000 0.000000 0.000000
 89 191.616196 257.709625 -35.018860 0.000000 0.000000 0.000000
time 10
  0 1.825807 8.346454 30.669678 0.003848 0.689450 -1.568347
  1 19.435236 -0.090722 -23.574488 -0.689456 0.002290 1.568906
  2 -4.141174 -0.037073 0.000001 -1.570795 -1.570451 0.000000
  3 4.434196 -0.003566 0.001744 -0.421909 -0.053050 0.427963
  4 5.339443 -0.005400 0.000521 -0.094305 -0.030135 0.192291
  5 6.940723 -0.005186 0.000548 -0.104815 -0.064296 0.158049
  6 6.620023 -0.004729 0.000411 -0.087047 0.063347 0.077636
  7 5.979038 -0.000997 0.000001 -0.000000 -0.000000 0.017453
  8 1.252571 -0.000000 0.000001 0.468780 0.401628 -0.301463
  9 9.519547 -0.000001 -0.000001 0.000000 0.000000 0.000000
 10 -3.731836 9.544961 0.014183 -0.000000 0.000001 -1.675515
 11 -3.853209 -3.394491 0.000000 0.000000 0.000000 0.000000
 12 -0.000001 0.000988 2.684130 -0.338447 -1.359115 -2.828403
 13 7.524250 -0.000002 0.000000 0.255781 -0.988286 -1.474781
 14 11.423454 0.000001 -0.000001 0.000000 -0.000000 -0.707105
 15 13.479673 -0.000003 0.000001 2.462314 -0.052474 -0.242493
 16 2.050501 0.662489 -1.659290 1.055273 0.885596 0.919630
 17 1.066186 -0.000000 0.000001 0.000000 0.000000 0.000000
 18 1.466011 0.000000 -0.000000 0.000000 0.000000 0.000000
 19 1.466011 0.000000 -0.000000 0.000000 0.000000 0.000000
 20 5.193863 -0.001291 -1.622130 -0.000865 0.401426 -0.000338
 21 1.525717 0.000000 0.000001 0.000000 0.000000 0.000000
 22 1.473167 0.000001 0.000000 0.000000 0.000000 0.000000
 23 1.142346 -0.000001 -0.000000 0.000000 0.000000 0.000000
 24 4.977360 -0.298620 -0.436309 0.047536 0.133062 0.281524
 25 2.175559 -0.000002 -0.000001 0.000000 0.000000 0.000000
 26 1.705902 0.000002 0.000000 0.000000 0.000000 0.000000
 27 1.386046 -0.000000 0.000000 0.000000 0.000000 0.000000
 28 5.227221 -0.016869 0.516778 -0.041333 -0.205381 0.196330
 29 1.850601 -0.000001 -0.000001 0.000000 0.000000 0.000000
 30 1.530742 0.000001 -0.000001 0.000000 0.000000 0.000000
 31 1.302274 -0.000001 -0.000001 0.000000 0.000000 0.000000
 32 5.193863 0.001294 1.622131 -0.096033 -0.390377 0.246055
 33 1.485048 -0.000000 0.000002 0.000000 0.000000 0.000000
 34 1.294658 -0.000001 -0.000003 0.000000 0.000000 0.000000
 35 0.951955 0.000000 0.000000 0.000000 0.000000 0.000000
 36 -0.000001 0.001006 -2.684129 0.204484 1.162569 -2.971751
 37 7.524248 0.000001 0.000000 -0.019807 0.271920 -2.248242
 38 11.423453 -0.000001 0.000001 -0.000000 0.000000 -0.821566
 39 13.708146 0.000000 0.000002 2.843010 0.149414 0.490531
 40 1.195828 -0.033342 1.114692 -1.282531 -0.846341 0.949451
 41 1.294657 0.000000 0.000001 0.000000 0.000000 0.000000
 42 2.182011 -0.000001 0.000001 0.000000 0.000000 0.000000
 43 1.580246 -0.000001 0.000002 0.000000 0.000000 3.141593
 44 4.895139 -0.386528 1.693282 -0.089807 -0.373831 0.243734
 45 1.507896 0.000000 -0.000000 0.000000 0.000000 0.000000
 46 1.370812 0.000000 0.000001 0.000000 0.000000 0.000000
 47 1.279426 0.000000 0.000000 0.000000 0.000000 3.141593
 48 5.141361 -0.100723 0.541388 -0.030822 -0.136206 0.228940
 49 1.759211 0.000000 -0.000002 0.000000 0.000000 0.000000
 50 1.599283 0.000000 0.000001 0.000000 0.000000 0.000000
 51 1.492664 0.000000 0.000000 0.000000 0.000000 3.141593
 52 5.079527 -0.068059 -0.623692 0.088758 0.152840 0.229743
 53 1.688843 0.000000 -0.000001 0.000000 0.000000 0.000000
 54 1.507896 0.000000 -0.000001 0.000000 0.000000 0.000000
 55 1.279427 -0.000000 -0.000002 0.000000 0.000000 3.141593
 56 5.141360 -0.099001 -1.621451 0.112242 0.406000 0.247378
 57 1.256581 -0.000000 -0.000001 0.000000 0.000000 0.000000
 58 1.142345 0.000000 0.000001 0.000000 0.000000 0.000000
 59 1.066188 0.000000 0.000000 0.000000 0.000000 3.141593
 60 -3.738900 -0.628553 5.902190 -2.829057 -0.429947 1.160215
 61 17.308262 -0.000001 -0.000001 0.000000 -0.000000 -0.851966
 62 15.463844 0.000000 -0.000002 -0.025089 -0.111183 0.022141
 63 6.097306 3.126218 0.000000 -0.000000 -0.000000 1.570796
 64 1.999105 0.000000 0.000000 0.000000 0.000000 0.000000
 65 1.999104 0.000000 0.000000 0.000000 0.000000 0.000000
 66 3.118603 0.000000 0.000000 0.000000 0.000000 3.141593
 67 -4.315552 3.818563 -4.005334 -0.080099 -2.754271 -1.481575
 68 17.308260 -0.000000 -0.000001 -0.000000 0.000000 -1.161747
 69 15.463845 0.000002 -0.000001 0.076511 0.070228 0.779974
 70 6.097305 3.126217 -0.000000 -0.000000 -0.000000 1.570796
 71 1.999104 0.000000 0.000000 0.000000 0.000000 0.000000
 72 1.999104 0.000000 0.000000 0.000000 0.000000 0.000000
 73 3.118603 0.000000 0.000000 0.000000 0.000000 0.000000
 74 5.028741 -7.322622 0.014163 -0.000000 0.000001 -1.536686
 75 4.835414 -2.118448 0.237901 -1.640610 -1.570796 0.000000
 76 4.348885 -2.776596 -10.995125 -0.332241 -1.939523 -1.299004
 77 -3.671422 -1.336566 -0.171206 -1.524006 0.347681 0.125368
 78 5.768710 3.982531 -9.173450 3.123039 -0.488370 1.434997
 79 0.067521 -2.350639 3.344429 -1.431170 1.082104 0.034906
 80 4.998852 8.565454 -5.001401 -0.235033 -1.930170 -1.495696
 81 -0.243932 -1.549036 2.646217 -1.431170 0.349066 0.087266
 82 3.580552 8.020454 5.032155 -0.090668 -1.202692 -1.648988
 83 -0.088494 -0.306858 4.016224 -1.431170 -0.366519 -0.034907
 84 5.006862 3.913798 9.043611 -3.019418 -1.169372 1.395466
 85 3.070843 -1.522968 0.101601 -1.563776 0.398264 -0.051684
 86 5.597601 -2.928178 10.743619 -0.135243 -1.220387 -1.490863
 87 2.930164 -2.309739 0.129154 -1.542557 -0.347073 -0.049239
 88 187.500488 285.169159 -34.343369 0.000000 0.000000 0.000000
 89 191.616196 257.709625 -35.018860 0.000000 0.000000 0.000000
time 11
  0 1.994205 8.189385 30.659159 0.003848 0.689450 -1.568347
  1 19.428465 -0.090690 -23.566275 -0.689456 0.002290 1.568906
  2 -4.197823 -0.057270 0.000000 -1.570795 -1.570451 0.000000
  3 4.434193 -0.003581 0.001708 -0.412621 -0.057278 0.427451
  4 5.339499 -0.005394 0.000518 -0.094123 -0.029225 0.201933
  5 6.940756 -0.005180 0.000520 -0.098959 -0.064579 0.164096
  6 6.620022 -0.004726 0.000412 -0.087047 0.063347 0.077636
  7 5.979038 -0.000999 0.000000 -0.000000 -0.000000 0.017453
  8 1.252573 -0.000002 -0.000002 0.449012 0.410862 -0.327087
  9 9.519546 -0.000000 -0.000001 0.000000 0.000000 0.000000
 10 -3.731836 9.544962 0.014183 -0.000000 0.000001 -1.675515
 11 -3.853211 -3.394491 0.000001 0.000000 0.000000 0.000000
 12 -0.000000 0.000989 2.684130 -0.338446 -1.359115 -2.828404
 13 7.524251 -0.000003 0.000000 0.366431 -0.969909 -1.614101
 14 11.423455 0.000000 -0.000002 -0.000000 0.000000 -0.566791
 15 13.479672 -0.000002 -0.000000 2.464185 -0.059981 -0.315506
 16 2.050502 0.662488 -1.659289 1.055273 0.885596 0.919630
 17 1.066189 -0.000001 0.000000 0.000000 0.000000 0.000000
 18 1.466009 0.000001 0.000000 0.000000 0.000000 0.000000
 19 1.466010 0.000001 0.000000 0.000000 0.000000 0.000000
 20 5.193863 -0.001290 -1.622128 -0.000865 0.401426 -0.000338
 21 1.525718 0.000000 -0.000001 0.000000 0.000000 0.000000
 22 1.473167 0.000001 0.000002 0.000000 0.000000 0.000000
 23 1.142344 -0.000001 0.000001 0.000000 0.000000 0.000000
 24 4.977359 -0.298618 -0.436305 0.047536 0.133062 0.281524
 25 2.175558 0.000002 0.000000 0.000000 0.000000 0.000000
 26 1.705903 -0.000002 0.000001 0.000000 0.000000 0.000000
 27 1.386046 0.000000 0.000001 0.000000 0.000000 0.000000
 28 5.227221 -0.016868 0.516782 -0.041333 -0.205381 0.196330
 29 1.850599 -0.000000 0.000002 0.000000 0.000000 0.000000
 30 1.530744 0.000000 0.000000 0.000000 0.000000 0.000000
 31 1.302273 0.000001 0.000000 0.000000 0.000000 0.000000
 32 5.193863 0.001293 1.622132 -0.096033 -0.390377 0.246055
 33 1.485049 -0.000001 0.000002 0.000000 0.000000 0.000000
 34 1.294658 -0.000001 -0.000002 0.000000 0.000000 0.000000
 35 0.951954 0.000001 -0.000000 0.000000 0.000000 0.000000
 36 0.000001 0.001003 -2.684132 0.188459 1.163730 -2.986463
 37 7.524248 -0.000001 -0.000000 -0.027560 0.290026 -2.250349
 38 11.423452 -0.000000 -0.000001 0.000000 0.000000 -0.798872
 39 13.708147 0.000001 -0.000001 2.841901 0.149748 0.483815
 40 1.195829 -0.033341 1.114692 -1.282531 -0.846341 0.949451
 41 1.294658 -0.000000 -0.000000 0.000000 0.000000 0.000000
 42 2.182009 0.000000 0.000000 0.000000 0.000000 0.000000
 43 1.580244 -0.000000 0.000000 0.000000 0.000000 3.141593
 44 4.895141 -0.386527 1.693284 -0.089807 -0.373831 0.243734
 45 1.507892 0.000001 -0.000001 0.000000 0.000000 0.000000
 46 1.370816 0.000000 -0.000001 0.000000 0.000000 0.000000
 47 1.279428 0.000000 -0.000002 0.000000 0.000000 3.141593
 48 5.141361 -0.100723 0.541388 -0.030822 -0.136206 0.228940
 49 1.759212 -0.000000 -0.000003 0.000000 0.000000 0.000000
 50 1.599281 0.000001 0.000003 0.000000 0.000000 0.000000
 51 1.492664 0.000000 -0.000002 0.000000 0.000000 3.141593
 52 5.079529 -0.068059 -0.623693 0.088758 0.152840 0.229743
 53 1.688843 0.000000 0.000001 0.000000 0.000000 0.000000
 54 1.507898 -0.000001 0.000001 0.000000 0.000000 0.000000
 55 1.279427 0.000000 0.000002 0.000000 0.000000 3.141593
 56 5.141361 -0.099001 -1.621453 0.112242 0.406000 0.247378
 57 1.256580 -0.000000 -0.000003 0.000000 0.000000 0.000000
 58 1.142343 0.000001 0.000002 0.000000 0.000000 0.000000
 59 1.066189 0.000000 -0.000001 0.000000 0.000000 3.141593
 60 -3.715947 -0.581942 5.921465 -2.836442 -0.416915 1.164487
 61 17.308262 -0.000000 -0.000000 -0.000000 -0.000000 -0.858556
 62 15.463845 -0.000000 -0.000002 -0.023335 -0.104291 0.029158
 63 6.097305 3.126218 -0.000001 -0.000000 -0.000000 1.570796
 64 1.999105 0.000000 0.000000 0.000000 0.000000 0.000000
 65 1.999104 0.000000 0.000000 0.000000 0.000000 0.000000
 66 3.118603 0.000000 0.000000 0.000000 0.000000 3.141593
 67 -4.338503 3.771947 -4.024613 -0.085274 -2.766057 -1.472822
 68 17.308262 -0.000001 -0.000001 -0.000000 0.000000 -1.154824
 69 15.463845 0.000002 -0.000001 0.082190 0.074826 0.781589
 70 6.097305 3.126219 -0.000000 -0.000000 -0.000000 1.570796
 71 1.999104 0.000000 -0.000000 0.000000 0.000000 0.000000
 72 1.999105 0.000000 0.000000 0.000000 0.000000 0.000000
 73 3.118603 0.000000 0.000000 0.000000 0.000000 0.000000
 74 5.028741 -7.322621 0.014162 -0.000000 0.000001 -1.536686
 75 4.835413 -2.118448 0.237900 -1.640610 -1.570796 0.000000
 76 4.348886 -2.776597 -10.995127 -0.332241 -1.939523 -1.299004
 77 -3.671422 -1.336568 -0.171205 -1.524006 0.347681 0.125368
 78 5.768711 3.982532 -9.173452 3.123039 -0.488370 1.434996
 79 0.067521 -2.350640 3.344429 -1.431170 1.082104 0.034906
 80 4.998851 8.565456 -5.001400 -0.235032 -1.930170 -1.495696
 81 -0.243933 -1.549036 2.646217 -1.431170 0.349066 0.087266
 82 3.580552 8.020454 5.032155 -0.090668 -1.202692 -1.648988
 83 -0.088494 -0.306858 4.016224 -1.431170 -0.366519 -0.034907
 84 5.006864 3.913798 9.043611 -3.019418 -1.169372 1.395466
 85 3.070843 -1.522968 0.101601 -1.563776 0.398264 -0.051684
 86 5.597602 -2.928179 10.743620 -0.135243 -1.220387 -1.490863
 87 2.930166 -2.309741 0.129156 -1.542557 -0.347073 -0.049239
 88 187.500488 285.169159 -34.343369 0.000000 0.000000 0.000000
 89 191.616196 257.709625 -35.018860 0.000000 0.000000 0.000000
time 12
  0 2.666885 8.174702 30.644314 0.003848 0.689450 -1.568347
  1 19.418058 -0.090642 -23.553650 -0.689456 0.002290 1.568906
  2 -4.236411 -0.071986 0.000001 -1.570795 -1.570451 0.000000
  3 4.434196 -0.003597 0.001683 -0.406247 -0.060175 0.427077
  4 5.339531 -0.005383 0.000520 -0.093992 -0.028601 0.208548
  5 6.940782 -0.005183 0.000495 -0.094946 -0.064814 0.168246
  6 6.620024 -0.004724 0.000414 -0.087047 0.063347 0.077636
  7 5.979039 -0.000998 -0.000003 0.000000 -0.000000 0.017453
  8 1.252571 0.000001 0.000001 0.435307 0.416973 -0.344851
  9 9.519547 0.000000 -0.000001 0.000000 0.000000 0.000000
 10 -3.731836 9.544961 0.014183 -0.000000 0.000001 -1.675515
 11 -3.853209 -3.394491 0.000000 0.000000 0.000000 0.000000
 12 -0.000001 0.000990 2.684131 -0.338446 -1.359115 -2.828403
 13 7.524250 -0.000001 -0.000000 0.452916 -0.947719 -1.723486
 14 11.423453 -0.000000 -0.000000 -0.000000 -0.000000 -0.447034
 15 13.479673 0.000000 0.000002 2.465409 -0.065045 -0.377249
 16 2.050502 0.662486 -1.659293 1.055273 0.885596 0.919630
 17 1.066189 0.000000 -0.000000 0.000000 0.000000 0.000000
 18 1.466007 0.000002 -0.000001 0.000000 0.000000 0.000000
 19 1.466010 -0.000001 0.000001 0.000000 0.000000 0.000000
 20 5.193861 -0.001291 -1.622131 -0.000865 0.401426 -0.000338
 21 1.525715 0.000003 -0.000000 0.000000 0.000000 0.000000
 22 1.473170 0.000000 -0.000000 0.000000 0.000000 0.000000
 23 1.142345 0.000000 -0.000001 0.000000 0.000000 0.000000
 24 4.977358 -0.298620 -0.436310 0.047536 0.133062 0.281524
 25 2.175558 -0.000001 -0.000001 0.000000 0.000000 0.000000
 26 1.705905 0.000002 -0.000000 0.000000 0.000000 0.000000
 27 1.386044 0.000000 0.000001 0.000000 0.000000 0.000000
 28 5.227221 -0.016870 0.516777 -0.041333 -0.205381 0.196330
 29 1.850599 0.000000 0.000002 0.000000 0.000000 0.000000
 30 1.530744 0.000000 -0.000001 0.000000 0.000000 0.000000
 31 1.302273 0.000000 0.000000 0.000000 0.000000 0.000000
 32 5.193862 0.001292 1.622128 -0.096033 -0.390377 0.246055
 33 1.485049 0.000001 0.000004 0.000000 0.000000 0.000000
 34 1.294657 -0.000002 -0.000001 0.000000 0.000000 0.000000
 35 0.951954 0.000000 -0.000002 0.000000 0.000000 0.000000
 36 -0.000001 0.001007 -2.684129 0.177416 1.164472 -2.996605
 37 7.524250 0.000002 -0.000002 -0.033065 0.302410 -2.251944
 38 11.423451 -0.000000 -0.000001 -0.000000 0.000000 -0.783302
 39 13.708146 0.000000 0.000000 2.841138 0.149973 0.479207
 40 1.195829 -0.033341 1.114694 -1.282531 -0.846341 0.949452
 41 1.294658 -0.000000 0.000001 0.000000 0.000000 0.000000
 42 2.182009 0.000001 -0.000001 0.000000 0.000000 0.000000
 43 1.580244 0.000000 0.000001 0.000000 0.000000 3.141593
 44 4.895141 -0.386527 1.693287 -0.089807 -0.373831 0.243734
 45 1.507895 0.000001 0.000000 0.000000 0.000000 0.000000
 46 1.370814 -0.000000 0.000001 0.000000 0.000000 0.000000
 47 1.279427 0.000000 0.000000 0.000000 0.000000 3.141593
 48 5.141360 -0.100723 0.541391 -0.030822 -0.136206 0.228940
 49 1.759211 0.000000 -0.000001 0.000000 0.000000 0.000000
 50 1.599283 0.000000 -0.000002 0.000000 0.000000 0.000000
 51 1.492664 0.000000 -0.000002 0.000000 0.000000 3.141593
 52 5.079527 -0.068059 -0.623690 0.088758 0.152840 0.229743
 53 1.688845 -0.000000 -0.000000 0.000000 0.000000 0.000000
 54 1.507895 0.000001 0.000002 0.000000 0.000000 0.000000
 55 1.279427 0.000000 0.000001 0.000000 0.000000 3.141593
 56 5.141361 -0.099001 -1.621449 0.112242 0.406000 0.247378
 57 1.256579 0.000000 0.000002 0.000000 0.000000 0.000000
 58 1.142346 -0.000000 -0.000003 0.000000 0.000000 0.000000
 59 1.066190 -0.000000 0.000000 0.000000 0.000000 3.141593
 60 -3.700221 -0.549831 5.934393 -2.862762 -0.396480 1.165652
 61 17.308264 -0.000001 -0.000001 0.000000 -0.000000 -0.864824
 62 15.463846 -0.000001 -0.000001 -0.014784 -0.076387 0.030129
 63 6.097305 3.126218 -0.000001 -0.000000 -0.000000 1.570796
 64 1.999104 0.000000 0.000000 0.000000 0.000000 0.000000
 65 1.999104 0.000000 -0.000000 0.000000 0.000000 0.000000
 66 3.118603 0.000000 0.000000 0.000000 0.000000 3.141593
 67 -4.354232 3.739837 -4.037539 -0.112172 -2.783504 -1.467755
 68 17.308260 -0.000001 -0.000001 0.000000 -0.000000 -1.146311
 69 15.463844 0.000001 -0.000000 0.105255 0.095097 0.780808
 70 6.097306 3.126219 -0.000000 -0.000000 0.000000 1.570796
 71 1.999104 0.000000 -0.000000 0.000000 0.000000 0.000000
 72 1.999104 0.000000 0.000000 0.000000 0.000000 0.000000
 73 3.118602 0.000000 0.000000 0.000000 0.000000 0.000000
 74 5.028742 -7.322625 0.014162 -0.000000 0.000001 -1.536686
 75 4.835415 -2.118448 0.237901 -1.640610 -1.570796 0.000000
 76 4.348886 -2.776601 -10.995128 -0.332241 -1.939523 -1.299004
 77 -3.671423 -1.336567 -0.171206 -1.524006 0.347681 0.125368
 78 5.768710 3.982529 -9.173452 3.123039 -0.488370 1.434997
 79 0.067518 -2.350638 3.344429 -1.431170 1.082104 0.034906
 80 4.998851 8.565452 -5.001401 -0.235032 -1.930170 -1.495696
 81 -0.243933 -1.549036 2.646217 -1.431170 0.349066 0.087266
 82 3.580551 8.020452 5.032156 -0.090668 -1.202692 -1.648988
 83 -0.088493 -0.306859 4.016225 -1.431170 -0.366519 -0.034907
 84 5.006862 3.913796 9.043612 -3.019418 -1.169372 1.395466
 85 3.070843 -1.522967 0.101601 -1.563776 0.398264 -0.051684
 86 5.597601 -2.928182 10.743621 -0.135243 -1.220387 -1.490863
 87 2.930166 -2.309740 0.129154 -1.542557 -0.347073 -0.049239
 88 187.500488 285.169159 -34.343369 0.000000 0.000000 0.000000
 89 191.616196 257.709625 -35.018860 0.000000 0.000000 0.000000
end
