version 1
nodes
0 "Bip01" -1
1 "Bip01 Pelvis" 0
2 "Bip01 Spine" 1
3 "Bip01 Spine1" 2
4 "Bip01 Spine2" 3
5 "Bip01 Spine3" 4
6 "Bip01 Neck" 5
7 "Bip01 Head" 6
8 "Dummy14" 7
9 "Bip01 L Clavicle" 6
10 "Bip01 L UpperArm" 9
11 "Bip01 L Forearm" 10
12 "Bip01 L Hand" 11
13 "Bip01 L Finger0" 12
14 "Bip01 L Finger01" 13
15 "Bip01 L Finger02" 14
16 "Bip01 L Finger1" 12
17 "Bip01 L Finger11" 16
18 "Bip01 L Finger12" 17
19 "Bip01 L Finger2" 12
20 "Bip01 L Finger21" 19
21 "Bip01 L Finger22" 20
22 "Bip01 L Finger3" 12
23 "Bip01 L Finger31" 22
24 "Bip01 L Finger32" 23
25 "Bip01 L Finger4" 12
26 "Bip01 L Finger41" 25
27 "Bip01 L Finger42" 26
28 "Bip01 R Clavicle" 6
29 "Bip01 R UpperArm" 28
30 "Bip01 R Forearm" 29
31 "Bip01 R Hand" 30
32 "Bip01 R Finger0" 31
33 "Bip01 R Finger01" 32
34 "Bip01 R Finger02" 33
35 "Bip01 R Finger1" 31
36 "Bip01 R Finger11" 35
37 "Bip01 R Finger12" 36
38 "Bip01 R Finger2" 31
39 "Bip01 R Finger21" 38
40 "Bip01 R Finger22" 39
41 "Bip01 R Finger3" 31
42 "Bip01 R Finger31" 41
43 "Bip01 R Finger32" 42
44 "Bip01 R Finger4" 31
45 "Bip01 R Finger41" 44
46 "Bip01 R Finger42" 45
47 "sniper" 31
48 "Bip01 L Thigh" 2
49 "Bip01 L Calf" 48
50 "Bip01 L Foot" 49
51 "Bip01 L Toe0" 50
52 "Bip01 L Toe01" 51
53 "Bip01 L Toe02" 52
54 "Bip01 R Thigh" 2
55 "Bip01 R Calf" 54
56 "Bip01 R Foot" 55
57 "Bip01 R Toe0" 56
58 "Bip01 R Toe01" 57
59 "Bip01 R Toe02" 58
60 "Dummy22" 2
end
skeleton
time 0
0  -0.014178 3.716076 39.020859  0.000000 -0.000000 -1.570795
1  1.896289 -0.000002 0.000000  -0.000000 -1.570451 -1.570733
2  4.433408 -0.004184 0.000006  -0.000004 -0.000001 0.175330
3  5.338315 -0.005531 -0.000000  0.000000 -0.000000 -0.017454
4  6.940111 -0.005262 -0.000000  0.000000 0.000000 0.034907
5  6.619787 -0.004755 0.000000  0.000000 0.000000 0.034904
6  5.979030 -0.000975 0.000000  -0.000000 0.000000 0.017466
7  1.252573 -0.000014 0.000000  0.000000 -0.000000 -0.140437
8  -3.731851 9.544944 0.014183  0.000000 0.000001 -1.675512
9  0.000014 0.000987 2.684130  -0.338438 -1.359112 -2.828432
10  7.524256 0.000009 0.000032  -0.193577 0.416726 -0.129783
11  11.423460 -0.000050 0.000010  -0.000003 -0.000004 -0.112739
12  13.479683 0.000028 -0.000034  -1.469360 -0.124502 -0.128569
13  2.050504 0.662485 -1.659292  1.055276 0.885598 0.919627
14  1.066190 -0.000001 0.000005  0.000002 0.000001 -0.087268
15  1.466015 0.000011 -0.000002  -0.000009 -0.000005 -0.052357
16  5.193860 -0.001314 -1.622136  -0.000863 0.401429 -0.000347
17  1.525713 -0.000005 0.000005  -0.000010 -0.000005 0.418886
18  1.473167 -0.000001 -0.000007  0.000005 0.000001 0.244343
19  4.977355 -0.298645 -0.436313  0.047536 0.133063 0.281518
20  2.175560 0.000007 0.000002  0.000002 -0.000002 0.174533
21  1.705907 0.000006 -0.000002  0.000000 0.000001 0.279251
22  5.227219 -0.016894 0.516773  -0.041331 -0.205376 0.196319
23  1.850603 0.000020 0.000007  -0.000001 -0.000003 0.209440
24  1.530749 0.000015 0.000002  -0.000001 0.000006 0.279246
25  5.193865 0.001275 1.622124  -0.096030 -0.390370 0.246041
26  1.485046 0.000023 0.000012  0.000001 -0.000011 0.174541
27  1.294665 -0.000001 -0.000006  -0.000001 0.000008 0.314151
28  0.000015 0.001001 -2.684130  0.338443 1.359149 -2.828347
29  7.524212 -0.000017 0.000295  0.193587 -0.416725 -0.129789
30  11.423436 -0.000028 0.000073  0.000009 -0.000028 -0.112732
31  13.708117 -0.000051 -0.000295  1.469361 0.124511 -0.128569
32  1.195817 -0.033343 1.114698  -1.282557 -0.846308 0.949450
33  1.294634 -0.000080 -0.000004  -0.000003 -0.000024 0.052362
34  2.181967 -0.000129 -0.000056  -0.000008 0.000007 -0.226899
35  4.895115 -0.386536 1.693314  -0.089816 -0.373842 0.243737
36  1.507895 -0.000033 -0.000015  0.000001 0.000009 0.331639
37  1.370788 -0.000089 0.000005  0.000006 0.000006 0.087275
38  5.141344 -0.100762 0.541420  -0.030824 -0.136203 0.228953
39  1.759204 -0.000066 0.000016  -0.000002 0.000007 0.331635
40  1.599246 -0.000119 0.000023  -0.000008 -0.000019 0.157058
41  5.079518 -0.068117 -0.623661  0.088762 0.152839 0.229755
42  1.688843 -0.000062 0.000013  -0.000001 0.000007 0.331630
43  1.507863 -0.000101 0.000021  -0.000001 -0.000002 0.087266
44  5.141360 -0.099060 -1.621418  0.112246 0.405995 0.247388
45  1.256576 -0.000057 0.000004  -0.000003 0.000012 0.331636
46  1.142319 -0.000088 0.000016  0.000001 -0.000011 0.087259
47  14.325464 4.271579 1.904552  1.422319 0.126609 -1.362080
48  -4.364712 0.777443 5.437566  -0.007707 -3.000712 -0.344603
49  17.308268 0.000081 -0.000243  -0.000003 0.000042 -0.234900
50  15.463855 -0.000061 0.000443  0.031258 0.019421 0.067848
51  6.097314 3.126202 0.000009  0.000000 -0.000002 1.570793
52  1.999102 0.000001 -0.000001  0.000000 -0.000000 -0.000000
53  1.999104 0.000000 -0.000001  -0.000000 -0.000000 0.000000
54  -4.364709 0.777472 -5.437562  0.007700 3.000693 -0.344609
55  17.308273 -0.000042 -0.000122  -0.000002 0.000020 -0.234914
56  15.463852 0.000068 0.000207  -0.031263 -0.019464 0.067853
57  6.097305 3.126220 0.000003  -0.000001 -0.000002 1.570796
58  1.999104 0.000001 -0.000005  -0.000000 -0.000000 0.000001
59  1.999104 -0.000001 -0.000003  -0.000000 0.000000 0.000000
60  5.028718 -7.322624 0.014163  -0.000000 0.000001 -1.536687
end
triangles
glove.TGA
0  -9.285862 9.648909 41.046078  -0.588916 0.547716 -0.594256  0.000000 0.000000 1 0 1.000000
0  9.109461 -6.402734 40.050598  0.573687 -0.563677 -0.594226  0.000000 0.000000 1 0 1.000000
0  -9.285862 -6.402734 40.050598  -0.573687 -0.563677 -0.594226  0.000000 0.000000 1 0 1.000000
glove.TGA
0  9.109461 -6.402734 40.050598  0.573687 -0.563677 -0.594226  0.000000 0.000000 1 0 1.000000
0  -9.285862 -6.309137 50.284191  -0.586016 -0.611103 0.532060  0.000000 0.000000 1 0 1.000000
0  -9.285862 -6.402734 40.050598  -0.573687 -0.563677 -0.594226  0.000000 0.000000 1 0 1.000000
glove.TGA
0  9.109461 9.648909 41.046078  0.588916 0.547716 -0.594256  0.000000 0.000000 1 0 1.000000
0  9.109461 -6.309137 50.284191  0.586016 -0.611103 0.532060  0.000000 0.000000 1 0 1.000000
0  9.109461 -6.402734 40.050598  0.573687 -0.563677 -0.594226  0.000000 0.000000 1 0 1.000000
glove.TGA
0  9.109461 11.360809 52.904179  0.563585 0.582965 0.585223  0.000000 0.000000 1 0 1.000000
0  -9.285862 -6.309137 50.284191  -0.586016 -0.611103 0.532060  0.000000 0.000000 1 0 1.000000
0  9.109461 -6.309137 50.284191  0.586016 -0.611103 0.532060  0.000000 0.000000 1 0 1.000000
glove.TGA
0  -9.285862 9.648909 41.046078  -0.588916 0.547716 -0.594256  0.000000 0.000000 1 0 1.000000
0  9.109461 11.360809 52.904179  0.563585 0.582965 0.585223  0.000000 0.000000 1 0 1.000000
0  9.109461 9.648909 41.046078  0.588916 0.547716 -0.594256  0.000000 0.000000 1 0 1.000000
glove.TGA
0  -9.285862 -6.402734 40.050598  -0.573687 -0.563677 -0.594226  0.000000 0.000000 1 0 1.000000
0  -9.285862 11.360809 52.904179  -0.563585 0.582965 0.585223  0.000000 0.000000 1 0 1.000000
0  -9.285862 9.648909 41.046078  -0.588916 0.547716 -0.594256  0.000000 0.000000 1 0 1.000000
glove.TGA
0  -28.856560 0.516690 50.457951  -0.219611 0.554735 -0.802484  0.000000 0.000000 1 30 1.000000
0  -18.480316 -4.256878 56.061111  0.773156 -0.597736 -0.211829  0.000000 0.000000 1 30 1.000000
0  -28.856560 -3.304196 50.457951  -0.219611 -0.554735 -0.802484  0.000000 0.000000 1 30 1.000000
glove.TGA
0  -28.856560 -3.304196 50.457951  -0.219611 -0.554735 -0.802484  0.000000 0.000000 1 30 1.000000
0  -21.571777 -4.256878 60.881149  0.125614 -0.597064 0.792261  0.000000 0.000000 1 30 1.000000
0  -30.919359 -3.304196 53.674160  -0.821375 -0.555254 0.130253  0.000000 0.000000 1 30 1.000000
glove.TGA
0  -30.919359 -3.304196 53.674160  -0.821375 -0.555254 0.130253  0.000000 0.000000 1 30 1.000000
0  -21.571777 1.469373 60.881149  0.125614 0.597064 0.792261  0.000000 0.000000 1 30 1.000000
0  -30.919359 0.516690 53.674160  -0.821375 0.555254 0.130253  0.000000 0.000000 1 30 1.000000
glove.TGA
0  -30.919359 0.516690 53.674160  -0.821375 0.555254 0.130253  0.000000 0.000000 1 30 1.000000
0  -18.480316 1.469373 56.061111  0.773156 0.597736 -0.211829  0.000000 0.000000 1 30 1.000000
0  -28.856560 0.516690 50.457951  -0.219611 0.554735 -0.802484  0.000000 0.000000 1 30 1.000000
glove.TGA
0  -18.480316 1.469373 56.061111  0.773156 0.597736 -0.211829  0.000000 0.000000 1 30 1.000000
0  -21.571777 -4.256878 60.881149  0.125614 -0.597064 0.792261  0.000000 0.000000 1 30 1.000000
0  -18.480316 -4.256878 56.061111  0.773156 -0.597736 -0.211829  0.000000 0.000000 1 30 1.000000
glove.TGA
0  -30.919359 0.516690 53.674160  -0.821375 0.555254 0.130253  0.000000 0.000000 1 30 1.000000
0  -28.856560 -3.304196 50.457951  -0.219611 -0.554735 -0.802484  0.000000 0.000000 1 30 1.000000
0  -30.919359 -3.304196 53.674160  -0.821375 -0.555254 0.130253  0.000000 0.000000 1 30 1.000000
glove.TGA
0  37.390617 -5.149169 46.025391  0.233039 -0.574847 -0.784326  0.000000 0.000000 1 12 1.000000
0  29.803425 0.261364 50.375305  -0.807947 0.569414 -0.151402  0.000000 0.000000 1 12 1.000000
0  37.390617 0.261364 46.025391  0.233039 0.574847 -0.784326  0.000000 0.000000 1 12 1.000000
glove.TGA
0  37.390617 0.261364 46.025391  0.233039 0.574847 -0.784326  0.000000 0.000000 1 12 1.000000
0  31.928493 0.261364 53.004890  -0.065798 0.574725 0.815668  0.000000 0.000000 1 12 1.000000
0  38.123714 0.261364 47.459412  0.792230 0.592090 0.147465  0.000000 0.000000 1 12 1.000000
glove.TGA
0  38.123714 -5.149169 47.459412  0.792230 -0.592090 0.147465  0.000000 0.000000 1 12 1.000000
0  29.803425 -5.149170 50.375305  -0.807947 -0.569414 -0.151402  0.000000 0.000000 1 12 1.000000
0  37.390617 -5.149169 46.025391  0.233039 -0.574847 -0.784326  0.000000 0.000000 1 12 1.000000
glove.TGA
0  29.803425 -5.149170 50.375305  -0.807947 -0.569414 -0.151402  0.000000 0.000000 1 12 1.000000
0  31.928493 0.261364 53.004890  -0.065798 0.574725 0.815668  0.000000 0.000000 1 12 1.000000
0  29.803425 0.261364 50.375305  -0.807947 0.569414 -0.151402  0.000000 0.000000 1 12 1.000000
glove.TGA
0  38.123714 0.261364 47.459412  0.792230 0.592090 0.147465  0.000000 0.000000 1 12 1.000000
0  31.928493 -5.149170 53.004890  -0.065798 -0.574725 0.815668  0.000000 0.000000 1 12 1.000000
0  38.123714 -5.149169 47.459412  0.792230 -0.592090 0.147465  0.000000 0.000000 1 12 1.000000
glove.TGA
0  38.123714 -5.149169 47.459412  0.792230 -0.592090 0.147465  0.000000 0.000000 1 12 1.000000
0  37.390617 0.261364 46.025391  0.233039 0.574847 -0.784326  0.000000 0.000000 1 12 1.000000
0  38.123714 0.261364 47.459412  0.792230 0.592090 0.147465  0.000000 0.000000 1 12 1.000000
glove.TGA
0  -12.038187 1.641230 20.543499  -0.684591 0.425520 -0.591784  0.000000 0.000000 1 54 1.000000
0  -0.820642 8.126535 36.459129  0.585589 0.727500 0.357433  0.000000 0.000000 1 54 1.000000
0  -2.200646 2.068728 19.260033  0.503647 0.458693 -0.732047  0.000000 0.000000 1 54 1.000000
glove.TGA
0  -2.200646 2.068728 19.260033  0.503647 0.458693 -0.732047  0.000000 0.000000 1 54 1.000000
0  -0.381120 -2.723406 37.974777  0.672292 -0.428419 0.603687  0.000000 0.000000 1 54 1.000000
0  -2.010148 -7.484551 19.916946  0.529099 -0.648976 -0.546648  0.000000 0.000000 1 54 1.000000
glove.TGA
0  -11.847689 -7.912050 21.200413  -0.607318 -0.684896 -0.402509  0.000000 0.000000 1 54 1.000000
0  -9.953230 7.699039 37.742599  -0.526872 0.683401 0.505264  0.000000 0.000000 1 54 1.000000
0  -12.038187 1.641230 20.543499  -0.684591 0.425520 -0.591784  0.000000 0.000000 1 54 1.000000
glove.TGA
0  -2.010148 -7.484551 19.916946  0.529099 -0.648976 -0.546648  0.000000 0.000000 1 54 1.000000
0  -9.513707 -3.150904 39.258247  -0.471267 -0.468368 0.747307  0.000000 0.000000 1 54 1.000000
0  -11.847689 -7.912050 21.200413  -0.607318 -0.684896 -0.402509  0.000000 0.000000 1 54 1.000000
glove.TGA
0  -12.038187 1.641230 20.543499  -0.684591 0.425520 -0.591784  0.000000 0.000000 1 54 1.000000
0  -2.010148 -7.484551 19.916946  0.529099 -0.648976 -0.546648  0.000000 0.000000 1 54 1.000000
0  -11.847689 -7.912050 21.200413  -0.607318 -0.684896 -0.402509  0.000000 0.000000 1 54 1.000000
glove.TGA
0  -0.820642 8.126535 36.459129  0.585589 0.727500 0.357433  0.000000 0.000000 1 54 1.000000
0  -9.513707 -3.150904 39.258247  -0.471267 -0.468368 0.747307  0.000000 0.000000 1 54 1.000000
0  -0.381120 -2.723406 37.974777  0.672292 -0.428419 0.603687  0.000000 0.000000 1 54 1.000000
glove.TGA
0  -14.038697 4.501187 6.521751  -0.644093 0.625355 -0.440474  0.000000 0.000000 1 55 1.000000
0  -5.371044 -4.479280 5.024701  0.480544 -0.527573 -0.700491  0.000000 0.000000 1 55 1.000000
0  -14.038697 -4.479280 6.521751  -0.672109 -0.529221 -0.517808  0.000000 0.000000 1 55 1.000000
glove.TGA
0  -5.371044 -4.479280 5.024701  0.480544 -0.527573 -0.700491  0.000000 0.000000 1 55 1.000000
0  -12.148165 -6.600242 20.285105  -0.487930 -0.622028 0.612354  0.000000 0.000000 1 55 1.000000
0  -14.038697 -4.479280 6.521751  -0.672109 -0.529221 -0.517808  0.000000 0.000000 1 55 1.000000
glove.TGA
0  -5.371044 4.501187 5.024701  0.477279 0.621357 -0.621326  0.000000 0.000000 1 55 1.000000
0  -3.268438 -6.600242 18.943737  0.643544 -0.622822 0.444868  0.000000 0.000000 1 55 1.000000
0  -5.371044 -4.479280 5.024701  0.480544 -0.527573 -0.700491  0.000000 0.000000 1 55 1.000000
glove.TGA
0  -14.038697 4.501187 6.521751  -0.644093 0.625355 -0.440474  0.000000 0.000000 1 55 1.000000
0  -3.268438 2.380226 18.943737  0.671010 0.528245 0.520218  0.000000 0.000000 1 55 1.000000
0  -5.371044 4.501187 5.024701  0.477279 0.621357 -0.621326  0.000000 0.000000 1 55 1.000000
glove.TGA
0  -14.038697 -4.479280 6.521751  -0.672109 -0.529221 -0.517808  0.000000 0.000000 1 55 1.000000
0  -12.148165 2.380226 20.285105  -0.492294 0.527635 0.692251  0.000000 0.000000 1 55 1.000000
0  -14.038697 4.501187 6.521751  -0.644093 0.625355 -0.440474  0.000000 0.000000 1 55 1.000000
glove.TGA
0  -3.268438 2.380226 18.943737  0.671010 0.528245 0.520218  0.000000 0.000000 1 55 1.000000
0  -12.148165 -6.600242 20.285105  -0.487930 -0.622028 0.612354  0.000000 0.000000 1 55 1.000000
0  -3.268438 -6.600242 18.943737  0.643544 -0.622822 0.444868  0.000000 0.000000 1 55 1.000000
glove.TGA
0  -12.924902 5.084792 0.044408  -0.577349 0.577349 -0.577349  0.000000 0.000000 1 56 1.000000
0  -7.436871 -10.322560 0.044408  0.577349 -0.577349 -0.577349  0.000000 0.000000 1 56 1.000000
0  -12.924902 -10.322560 0.044408  -0.577349 -0.577349 -0.577349  0.000000 0.000000 1 56 1.000000
glove.TGA
0  -7.436871 -10.322560 0.044408  0.577349 -0.577349 -0.577349  0.000000 0.000000 1 56 1.000000
0  -12.924902 -10.322560 5.532440  -0.577349 -0.577349 0.577349  0.000000 0.000000 1 56 1.000000
0  -12.924902 -10.322560 0.044408  -0.577349 -0.577349 -0.577349  0.000000 0.000000 1 56 1.000000
glove.TGA
0  -7.436871 5.084792 0.044408  0.577349 0.577349 -0.577349  0.000000 0.000000 1 56 1.000000
0  -7.436871 -10.322560 5.532440  0.577349 -0.577349 0.577349  0.000000 0.000000 1 56 1.000000
0  -7.436871 -10.322560 0.044408  0.577349 -0.577349 -0.577349  0.000000 0.000000 1 56 1.000000
glove.TGA
0  -7.436871 5.084792 5.532440  0.577349 0.577349 0.577349  0.000000 0.000000 1 56 1.000000
0  -12.924902 -10.322560 5.532440  -0.577349 -0.577349 0.577349  0.000000 0.000000 1 56 1.000000
0  -7.436871 -10.322560 5.532440  0.577349 -0.577349 0.577349  0.000000 0.000000 1 56 1.000000
glove.TGA
0  -12.924902 5.084792 0.044408  -0.577349 0.577349 -0.577349  0.000000 0.000000 1 56 1.000000
0  -7.436871 5.084792 5.532440  0.577349 0.577349 0.577349  0.000000 0.000000 1 56 1.000000
0  -7.436871 5.084792 0.044408  0.577349 0.577349 -0.577349  0.000000 0.000000 1 56 1.000000
glove.TGA
0  -12.924902 -10.322560 0.044408  -0.577349 -0.577349 -0.577349  0.000000 0.000000 1 56 1.000000
0  -12.924902 5.084792 5.532440  -0.577349 0.577349 0.577349  0.000000 0.000000 1 56 1.000000
0  -12.924902 5.084792 0.044408  -0.577349 0.577349 -0.577349  0.000000 0.000000 1 56 1.000000
glove.TGA
0  -4.002864 -15.447182 62.844215  -0.550340 -0.499435 -0.669027  0.000000 0.000000 1 7 1.000000
0  -4.002864 0.360199 77.705719  -0.547624 0.566942 0.615314  0.000000 0.000000 1 7 1.000000
0  -4.002864 -2.530788 69.470032  -0.632435 0.583758 -0.509110  0.000000 0.000000 1 7 1.000000
glove.TGA
0  -4.002864 -2.530788 69.470032  -0.632435 0.583758 -0.509110  0.000000 0.000000 1 7 1.000000
0  4.232817 0.360199 77.705719  0.547624 0.566942 0.615314  0.000000 0.000000 1 7 1.000000
0  4.232817 -2.530788 69.470032  0.632435 0.583758 -0.509110  0.000000 0.000000 1 7 1.000000
glove.TGA
0  4.232817 -2.530788 69.470032  0.632435 0.583758 -0.509110  0.000000 0.000000 1 7 1.000000
0  4.232817 -13.844854 71.373116  0.615986 -0.618122 0.488266  0.000000 0.000000 1 7 1.000000
0  4.232817 -15.447182 62.844215  0.550340 -0.499435 -0.669027  0.000000 0.000000 1 7 1.000000
glove.TGA
0  4.232817 -15.447182 62.844215  0.550340 -0.499435 -0.669027  0.000000 0.000000 1 7 1.000000
0  -4.002864 -13.844854 71.373116  -0.615986 -0.618122 0.488266  0.000000 0.000000 1 7 1.000000
0  -4.002864 -15.447182 62.844215  -0.550340 -0.499435 -0.669027  0.000000 0.000000 1 7 1.000000
glove.TGA
0  -4.002864 -2.530788 69.470032  -0.632435 0.583758 -0.509110  0.000000 0.000000 1 7 1.000000
0  4.232817 -15.447182 62.844215  0.550340 -0.499435 -0.669027  0.000000 0.000000 1 7 1.000000
0  -4.002864 -15.447182 62.844215  -0.550340 -0.499435 -0.669027  0.000000 0.000000 1 7 1.000000
glove.TGA
0  4.232817 0.360199 77.705719  0.547624 0.566942 0.615314  0.000000 0.000000 1 7 1.000000
0  -4.002864 -13.844854 71.373116  -0.615986 -0.618122 0.488266  0.000000 0.000000 1 7 1.000000
0  4.232817 -13.844854 71.373116  0.615986 -0.618122 0.488266  0.000000 0.000000 1 7 1.000000
glove.TGA
0  -8.839404 -7.743518 50.611511  -0.578967 -0.453230 -0.677755  0.000000 0.000000 1 4 1.000000
0  -8.839404 6.346954 70.029930  -0.578967 0.453230 0.677755  0.000000 0.000000 1 4 1.000000
0  -8.839404 9.823883 53.819805  -0.575732 0.679647 -0.454482  0.000000 0.000000 1 4 1.000000
glove.TGA
0  -8.839404 9.823883 53.819805  -0.575732 0.679647 -0.454482  0.000000 0.000000 1 4 1.000000
0  9.068769 6.346954 70.029930  0.578967 0.453230 0.677755  0.000000 0.000000 1 4 1.000000
0  9.068769 9.823883 53.819805  0.575732 0.679647 -0.454482  0.000000 0.000000 1 4 1.000000
glove.TGA
0  9.068769 9.823883 53.819805  0.575732 0.679647 -0.454482  0.000000 0.000000 1 4 1.000000
0  9.068769 -11.220448 66.821632  0.575732 -0.679647 0.454482  0.000000 0.000000 1 4 1.000000
0  9.068769 -7.743518 50.611511  0.578967 -0.453230 -0.677755  0.000000 0.000000 1 4 1.000000
glove.TGA
0  9.068769 -7.743518 50.611511  0.578967 -0.453230 -0.677755  0.000000 0.000000 1 4 1.000000
0  -8.839404 -11.220448 66.821632  -0.575732 -0.679647 0.454482  0.000000 0.000000 1 4 1.000000
0  -8.839404 -7.743518 50.611511  -0.578967 -0.453230 -0.677755  0.000000 0.000000 1 4 1.000000
glove.TGA
0  -8.839404 9.823883 53.819805  -0.575732 0.679647 -0.454482  0.000000 0.000000 1 4 1.000000
0  9.068769 -7.743518 50.611511  0.578967 -0.453230 -0.677755  0.000000 0.000000 1 4 1.000000
0  -8.839404 -7.743518 50.611511  -0.578967 -0.453230 -0.677755  0.000000 0.000000 1 4 1.000000
glove.TGA
0  9.068769 6.346954 70.029930  0.578967 0.453230 0.677755  0.000000 0.000000 1 4 1.000000
0  -8.839404 -11.220448 66.821632  -0.575732 -0.679647 0.454482  0.000000 0.000000 1 4 1.000000
0  9.068769 -11.220448 66.821632  0.575732 -0.679647 0.454482  0.000000 0.000000 1 4 1.000000
glove.TGA
0  15.477150 -5.055170 56.711220  0.085726 -0.577349 -0.811975  0.000000 0.000000 1 10 1.000000
0  6.612594 2.857013 63.882401  -0.811975 0.577349 -0.085726  0.000000 0.000000 1 10 1.000000
0  15.477150 2.857013 56.711220  0.085726 0.577349 -0.811975  0.000000 0.000000 1 10 1.000000
glove.TGA
0  15.477150 2.857013 56.711220  0.085726 0.577349 -0.811975  0.000000 0.000000 1 10 1.000000
0  11.588873 2.857013 70.033760  -0.085726 0.577349 0.811975  0.000000 0.000000 1 10 1.000000
0  20.453428 2.857013 62.862583  0.811975 0.577349 0.085726  0.000000 0.000000 1 10 1.000000
glove.TGA
0  20.453428 2.857013 62.862583  0.811975 0.577349 0.085726  0.000000 0.000000 1 10 1.000000
0  11.588873 -5.055170 70.033760  -0.085726 -0.577349 0.811975  0.000000 0.000000 1 10 1.000000
0  20.453428 -5.055170 62.862583  0.811975 -0.577349 0.085726  0.000000 0.000000 1 10 1.000000
glove.TGA
0  20.453428 -5.055170 62.862583  0.811975 -0.577349 0.085726  0.000000 0.000000 1 10 1.000000
0  6.612594 -5.055170 63.882401  -0.811975 -0.577349 -0.085726  0.000000 0.000000 1 10 1.000000
0  15.477150 -5.055170 56.711220  0.085726 -0.577349 -0.811975  0.000000 0.000000 1 10 1.000000
glove.TGA
0  15.477150 2.857013 56.711220  0.085726 0.577349 -0.811975  0.000000 0.000000 1 10 1.000000
0  20.453428 -5.055170 62.862583  0.811975 -0.577349 0.085726  0.000000 0.000000 1 10 1.000000
0  15.477150 -5.055170 56.711220  0.085726 -0.577349 -0.811975  0.000000 0.000000 1 10 1.000000
glove.TGA
0  11.588873 2.857013 70.033760  -0.085726 0.577349 0.811975  0.000000 0.000000 1 10 1.000000
0  6.612594 -5.055170 63.882401  -0.811975 -0.577349 -0.085726  0.000000 0.000000 1 10 1.000000
0  11.588873 -5.055170 70.033760  -0.085726 -0.577349 0.811975  0.000000 0.000000 1 10 1.000000
glove.TGA
0  28.470392 -3.309659 50.603340  0.229041 -0.555254 -0.799463  0.000000 0.000000 1 11 1.000000
0  17.988178 1.463909 56.029320  -0.771142 0.597064 -0.220954  0.000000 0.000000 1 11 1.000000
0  28.470392 0.511227 50.603340  0.229041 0.555254 -0.799463  0.000000 0.000000 1 11 1.000000
glove.TGA
0  28.470392 0.511227 50.603340  0.229041 0.555254 -0.799463  0.000000 0.000000 1 11 1.000000
0  21.050110 1.463909 60.868172  -0.134770 0.597736 0.790246  0.000000 0.000000 1 11 1.000000
0  30.513491 0.511227 53.832100  0.820124 0.554735 0.140080  0.000000 0.000000 1 11 1.000000
glove.TGA
0  30.513491 0.511227 53.832100  0.820124 0.554735 0.140080  0.000000 0.000000 1 11 1.000000
0  21.050110 -4.262341 60.868172  -0.134770 -0.597736 0.790246  0.000000 0.000000 1 11 1.000000
0  30.513491 -3.309659 53.832100  0.820124 -0.554735 0.140080  0.000000 0.000000 1 11 1.000000
glove.TGA
0  30.513491 -3.309659 53.832100  0.820124 -0.554735 0.140080  0.000000 0.000000 1 11 1.000000
0  17.988178 -4.262341 56.029320  -0.771142 -0.597064 -0.220954  0.000000 0.000000 1 11 1.000000
0  28.470392 -3.309659 50.603340  0.229041 -0.555254 -0.799463  0.000000 0.000000 1 11 1.000000
glove.TGA
0  28.470392 0.511227 50.603340  0.229041 0.555254 -0.799463  0.000000 0.000000 1 11 1.000000
0  30.513491 -3.309659 53.832100  0.820124 -0.554735 0.140080  0.000000 0.000000 1 11 1.000000
0  28.470392 -3.309659 50.603340  0.229041 -0.555254 -0.799463  0.000000 0.000000 1 11 1.000000
glove.TGA
0  21.050110 1.463909 60.868172  -0.134770 0.597736 0.790246  0.000000 0.000000 1 11 1.000000
0  17.988178 -4.262341 56.029320  -0.771142 -0.597064 -0.220954  0.000000 0.000000 1 11 1.000000
0  21.050110 -4.262341 60.868172  -0.134770 -0.597736 0.790246  0.000000 0.000000 1 11 1.000000
glove.TGA
0  -21.102442 -4.911896 62.449726  -0.814508 -0.577349 0.056551  0.000000 0.000000 1 29 1.000000
0  -12.500887 3.000287 69.934341  0.056551 0.577349 0.814508  0.000000 0.000000 1 29 1.000000
0  -21.102442 3.000287 62.449726  -0.814508 0.577349 0.056551  0.000000 0.000000 1 29 1.000000
glove.TGA
0  -21.102442 3.000287 62.449726  -0.814508 0.577349 0.056551  0.000000 0.000000 1 29 1.000000
0  -7.307106 3.000287 63.965496  0.814508 0.577349 -0.056551  0.000000 0.000000 1 29 1.000000
0  -15.908650 3.000287 56.480873  -0.056551 0.577349 -0.814508  0.000000 0.000000 1 29 1.000000
glove.TGA
0  -15.908650 3.000287 56.480873  -0.056551 0.577349 -0.814508  0.000000 0.000000 1 29 1.000000
0  -7.307106 -4.911896 63.965496  0.814508 -0.577349 -0.056551  0.000000 0.000000 1 29 1.000000
0  -15.908650 -4.911896 56.480873  -0.056551 -0.577349 -0.814508  0.000000 0.000000 1 29 1.000000
glove.TGA
0  -15.908650 -4.911896 56.480873  -0.056551 -0.577349 -0.814508  0.000000 0.000000 1 29 1.000000
0  -12.500887 -4.911896 69.934341  0.056551 -0.577349 0.814508  0.000000 0.000000 1 29 1.000000
0  -21.102442 -4.911896 62.449726  -0.814508 -0.577349 0.056551  0.000000 0.000000 1 29 1.000000
glove.TGA
0  -21.102442 3.000287 62.449726  -0.814508 0.577349 0.056551  0.000000 0.000000 1 29 1.000000
0  -15.908650 -4.911896 56.480873  -0.056551 -0.577349 -0.814508  0.000000 0.000000 1 29 1.000000
0  -21.102442 -4.911896 62.449726  -0.814508 -0.577349 0.056551  0.000000 0.000000 1 29 1.000000
glove.TGA
0  -7.307106 3.000287 63.965496  0.814508 0.577349 -0.056551  0.000000 0.000000 1 29 1.000000
0  -12.500887 -4.911896 69.934341  0.056551 -0.577349 0.814508  0.000000 0.000000 1 29 1.000000
0  -7.307106 -4.911896 63.965496  0.814508 -0.577349 -0.056551  0.000000 0.000000 1 29 1.000000
glove.TGA
0  7.557152 -10.322935 0.058571  -0.577349 -0.577349 -0.577349  0.000000 0.000000 1 50 1.000000
0  7.557152 5.084417 5.546602  -0.577349 0.577349 0.577349  0.000000 0.000000 1 50 1.000000
0  7.557152 5.084417 0.058571  -0.577349 0.577349 -0.577349  0.000000 0.000000 1 50 1.000000
glove.TGA
0  7.557152 5.084417 0.058571  -0.577349 0.577349 -0.577349  0.000000 0.000000 1 50 1.000000
0  13.045183 5.084417 5.546602  0.577349 0.577349 0.577349  0.000000 0.000000 1 50 1.000000
0  13.045183 5.084417 0.058571  0.577349 0.577349 -0.577349  0.000000 0.000000 1 50 1.000000
glove.TGA
0  13.045183 5.084417 0.058571  0.577349 0.577349 -0.577349  0.000000 0.000000 1 50 1.000000
0  13.045183 -10.322935 5.546602  0.577349 -0.577349 0.577349  0.000000 0.000000 1 50 1.000000
0  13.045183 -10.322935 0.058571  0.577349 -0.577349 -0.577349  0.000000 0.000000 1 50 1.000000
glove.TGA
0  13.045183 -10.322935 0.058571  0.577349 -0.577349 -0.577349  0.000000 0.000000 1 50 1.000000
0  7.557152 -10.322935 5.546602  -0.577349 -0.577349 0.577349  0.000000 0.000000 1 50 1.000000
0  7.557152 -10.322935 0.058571  -0.577349 -0.577349 -0.577349  0.000000 0.000000 1 50 1.000000
glove.TGA
0  7.557152 5.084417 0.058571  -0.577349 0.577349 -0.577349  0.000000 0.000000 1 50 1.000000
0  13.045183 -10.322935 0.058571  0.577349 -0.577349 -0.577349  0.000000 0.000000 1 50 1.000000
0  7.557152 -10.322935 0.058571  -0.577349 -0.577349 -0.577349  0.000000 0.000000 1 50 1.000000
glove.TGA
0  13.045183 5.084417 5.546602  0.577349 0.577349 0.577349  0.000000 0.000000 1 50 1.000000
0  7.557152 -10.322935 5.546602  -0.577349 -0.577349 0.577349  0.000000 0.000000 1 50 1.000000
0  13.045183 -10.322935 5.546602  0.577349 -0.577349 0.577349  0.000000 0.000000 1 50 1.000000
glove.TGA
0  2.518497 -7.286120 20.053665  -0.471175 -0.684896 -0.555742  0.000000 0.000000 1 48 1.000000
0  -0.269255 8.324969 36.468945  -0.647145 0.684988 0.334605  0.000000 0.000000 1 48 1.000000
0  2.518497 2.267160 19.369686  -0.492477 0.426405 -0.758690  0.000000 0.000000 1 48 1.000000
glove.TGA
0  2.518497 2.267160 19.369686  -0.492477 0.426405 -0.758690  0.000000 0.000000 1 48 1.000000
0  9.536498 8.752467 37.976166  0.473922 0.722037 0.504013  0.000000 0.000000 1 48 1.000000
0  12.324249 2.694659 20.876909  0.676199 0.459090 -0.576128  0.000000 0.000000 1 48 1.000000
glove.TGA
0  12.324249 2.694659 20.876909  0.676199 0.459090 -0.576128  0.000000 0.000000 1 48 1.000000
0  9.536498 -2.097476 39.554256  0.487564 -0.429792 0.759941  0.000000 0.000000 1 48 1.000000
0  12.324249 -6.858621 21.560888  0.650929 -0.652547 -0.387829  0.000000 0.000000 1 48 1.000000
glove.TGA
0  12.324249 -6.858621 21.560888  0.650929 -0.652547 -0.387829  0.000000 0.000000 1 48 1.000000
0  -0.269255 -2.524973 38.047035  -0.663717 -0.468581 0.582965  0.000000 0.000000 1 48 1.000000
0  2.518497 -7.286120 20.053665  -0.471175 -0.684896 -0.555742  0.000000 0.000000 1 48 1.000000
glove.TGA
0  2.518497 2.267160 19.369686  -0.492477 0.426405 -0.758690  0.000000 0.000000 1 48 1.000000
0  12.324249 -6.858621 21.560888  0.650929 -0.652547 -0.387829  0.000000 0.000000 1 48 1.000000
0  2.518497 -7.286120 20.053665  -0.471175 -0.684896 -0.555742  0.000000 0.000000 1 48 1.000000
glove.TGA
0  9.536498 8.752467 37.976166  0.473922 0.722037 0.504013  0.000000 0.000000 1 48 1.000000
0  -0.269255 -2.524973 38.047035  -0.663717 -0.468581 0.582965  0.000000 0.000000 1 48 1.000000
0  9.536498 -2.097476 39.554256  0.487564 -0.429792 0.759941  0.000000 0.000000 1 48 1.000000
glove.TGA
0  5.646291 -4.919022 5.397077  -0.483291 -0.529221 -0.697348  0.000000 0.000000 1 49 1.000000
0  3.271245 1.940484 19.085144  -0.679128 0.527635 0.510208  0.000000 0.000000 1 49 1.000000
0  5.646291 4.061446 5.397077  -0.480056 0.625355 -0.615162  0.000000 0.000000 1 49 1.000000
glove.TGA
0  5.646291 4.061446 5.397077  -0.480056 0.625355 -0.615162  0.000000 0.000000 1 49 1.000000
0  12.139311 1.940484 20.501543  0.481521 0.528245 0.699301  0.000000 0.000000 1 49 1.000000
0  14.359529 4.061446 6.600783  0.643330 0.621357 -0.447188  0.000000 0.000000 1 49 1.000000
glove.TGA
0  14.359529 4.061446 6.600783  0.643330 0.621357 -0.447188  0.000000 0.000000 1 49 1.000000
0  12.139311 -7.039984 20.501543  0.478195 -0.622822 0.619160  0.000000 0.000000 1 49 1.000000
0  14.359529 -4.919022 6.600783  0.670461 -0.527543 -0.521653  0.000000 0.000000 1 49 1.000000
glove.TGA
0  14.359529 -4.919022 6.600783  0.670461 -0.527543 -0.521653  0.000000 0.000000 1 49 1.000000
0  3.271245 -7.039984 19.085144  -0.650746 -0.622028 0.435408  0.000000 0.000000 1 49 1.000000
0  5.646291 -4.919022 5.397077  -0.483291 -0.529221 -0.697348  0.000000 0.000000 1 49 1.000000
glove.TGA
0  5.646291 4.061446 5.397077  -0.480056 0.625355 -0.615162  0.000000 0.000000 1 49 1.000000
0  14.359529 -4.919022 6.600783  0.670461 -0.527543 -0.521653  0.000000 0.000000 1 49 1.000000
0  5.646291 -4.919022 5.397077  -0.483291 -0.529221 -0.697348  0.000000 0.000000 1 49 1.000000
glove.TGA
0  12.139311 1.940484 20.501543  0.481521 0.528245 0.699301  0.000000 0.000000 1 49 1.000000
0  3.271245 -7.039984 19.085144  -0.650746 -0.622028 0.435408  0.000000 0.000000 1 49 1.000000
0  12.139311 -7.039984 20.501543  0.478195 -0.622822 0.619160  0.000000 0.000000 1 49 1.000000
glove.TGA
0  -38.271870 -5.147440 47.508911  -0.792230 -0.592090 0.147465  0.000000 0.000000 1 31 1.000000
0  -32.076649 0.263093 53.054394  0.065798 0.574725 0.815668  0.000000 0.000000 1 31 1.000000
0  -38.271870 0.263093 47.508911  -0.792230 0.592090 0.147465  0.000000 0.000000 1 31 1.000000
glove.TGA
0  -38.271870 0.263093 47.508911  -0.792230 0.592090 0.147465  0.000000 0.000000 1 31 1.000000
0  -29.951580 0.263093 50.424805  0.807947 0.569414 -0.151402  0.000000 0.000000 1 31 1.000000
0  -37.538773 0.263093 46.074890  -0.233039 0.574847 -0.784326  0.000000 0.000000 1 31 1.000000
glove.TGA
0  -37.538773 0.263093 46.074890  -0.233039 0.574847 -0.784326  0.000000 0.000000 1 31 1.000000
0  -29.951580 -5.147440 50.424805  0.807947 -0.569414 -0.151402  0.000000 0.000000 1 31 1.000000
0  -37.538773 -5.147440 46.074890  -0.233039 -0.574847 -0.784326  0.000000 0.000000 1 31 1.000000
glove.TGA
0  -37.538773 -5.147440 46.074890  -0.233039 -0.574847 -0.784326  0.000000 0.000000 1 31 1.000000
0  -32.076649 -5.147440 53.054394  0.065798 -0.574725 0.815668  0.000000 0.000000 1 31 1.000000
0  -38.271870 -5.147440 47.508911  -0.792230 -0.592090 0.147465  0.000000 0.000000 1 31 1.000000
glove.TGA
0  -38.271870 0.263093 47.508911  -0.792230 0.592090 0.147465  0.000000 0.000000 1 31 1.000000
0  -37.538773 -5.147440 46.074890  -0.233039 -0.574847 -0.784326  0.000000 0.000000 1 31 1.000000
0  -38.271870 -5.147440 47.508911  -0.792230 -0.592090 0.147465  0.000000 0.000000 1 31 1.000000
glove.TGA
0  -29.951580 0.263093 50.424805  0.807947 0.569414 -0.151402  0.000000 0.000000 1 31 1.000000
0  -32.076649 -5.147440 53.054394  0.065798 -0.574725 0.815668  0.000000 0.000000 1 31 1.000000
0  -29.951580 -5.147440 50.424805  0.807947 -0.569414 -0.151402  0.000000 0.000000 1 31 1.000000
glove.TGA
0  -9.285862 9.648909 41.046078  -0.588916 0.547716 -0.594256  0.000000 0.000000 1 0 1.000000
0  9.109461 9.648909 41.046078  0.588916 0.547716 -0.594256  0.000000 0.000000 1 0 1.000000
0  9.109461 -6.402734 40.050598  0.573687 -0.563677 -0.594226  0.000000 0.000000 1 0 1.000000
glove.TGA
0  9.109461 -6.402734 40.050598  0.573687 -0.563677 -0.594226  0.000000 0.000000 1 0 1.000000
0  9.109461 -6.309137 50.284191  0.586016 -0.611103 0.532060  0.000000 0.000000 1 0 1.000000
0  -9.285862 -6.309137 50.284191  -0.586016 -0.611103 0.532060  0.000000 0.000000 1 0 1.000000
glove.TGA
0  9.109461 9.648909 41.046078  0.588916 0.547716 -0.594256  0.000000 0.000000 1 0 1.000000
0  9.109461 11.360809 52.904179  0.563585 0.582965 0.585223  0.000000 0.000000 1 0 1.000000
0  9.109461 -6.309137 50.284191  0.586016 -0.611103 0.532060  0.000000 0.000000 1 0 1.000000
glove.TGA
0  9.109461 11.360809 52.904179  0.563585 0.582965 0.585223  0.000000 0.000000 1 0 1.000000
0  -9.285862 11.360809 52.904179  -0.563585 0.582965 0.585223  0.000000 0.000000 1 0 1.000000
0  -9.285862 -6.309137 50.284191  -0.586016 -0.611103 0.532060  0.000000 0.000000 1 0 1.000000
glove.TGA
0  -9.285862 9.648909 41.046078  -0.588916 0.547716 -0.594256  0.000000 0.000000 1 0 1.000000
0  -9.285862 11.360809 52.904179  -0.563585 0.582965 0.585223  0.000000 0.000000 1 0 1.000000
0  9.109461 11.360809 52.904179  0.563585 0.582965 0.585223  0.000000 0.000000 1 0 1.000000
glove.TGA
0  -9.285862 -6.402734 40.050598  -0.573687 -0.563677 -0.594226  0.000000 0.000000 1 0 1.000000
0  -9.285862 -6.309137 50.284191  -0.586016 -0.611103 0.532060  0.000000 0.000000 1 0 1.000000
0  -9.285862 11.360809 52.904179  -0.563585 0.582965 0.585223  0.000000 0.000000 1 0 1.000000
glove.TGA
0  -28.856560 0.516690 50.457951  -0.219611 0.554735 -0.802484  0.000000 0.000000 1 30 1.000000
0  -18.480316 1.469373 56.061111  0.773156 0.597736 -0.211829  0.000000 0.000000 1 30 1.000000
0  -18.480316 -4.256878 56.061111  0.773156 -0.597736 -0.211829  0.000000 0.000000 1 30 1.000000
glove.TGA
0  -28.856560 -3.304196 50.457951  -0.219611 -0.554735 -0.802484  0.000000 0.000000 1 30 1.000000
0  -18.480316 -4.256878 56.061111  0.773156 -0.597736 -0.211829  0.000000 0.000000 1 30 1.000000
0  -21.571777 -4.256878 60.881149  0.125614 -0.597064 0.792261  0.000000 0.000000 1 30 1.000000
glove.TGA
0  -30.919359 -3.304196 53.674160  -0.821375 -0.555254 0.130253  0.000000 0.000000 1 30 1.000000
0  -21.571777 -4.256878 60.881149  0.125614 -0.597064 0.792261  0.000000 0.000000 1 30 1.000000
0  -21.571777 1.469373 60.881149  0.125614 0.597064 0.792261  0.000000 0.000000 1 30 1.000000
glove.TGA
0  -30.919359 0.516690 53.674160  -0.821375 0.555254 0.130253  0.000000 0.000000 1 30 1.000000
0  -21.571777 1.469373 60.881149  0.125614 0.597064 0.792261  0.000000 0.000000 1 30 1.000000
0  -18.480316 1.469373 56.061111  0.773156 0.597736 -0.211829  0.000000 0.000000 1 30 1.000000
glove.TGA
0  -18.480316 1.469373 56.061111  0.773156 0.597736 -0.211829  0.000000 0.000000 1 30 1.000000
0  -21.571777 1.469373 60.881149  0.125614 0.597064 0.792261  0.000000 0.000000 1 30 1.000000
0  -21.571777 -4.256878 60.881149  0.125614 -0.597064 0.792261  0.000000 0.000000 1 30 1.000000
glove.TGA
0  -30.919359 0.516690 53.674160  -0.821375 0.555254 0.130253  0.000000 0.000000 1 30 1.000000
0  -28.856560 0.516690 50.457951  -0.219611 0.554735 -0.802484  0.000000 0.000000 1 30 1.000000
0  -28.856560 -3.304196 50.457951  -0.219611 -0.554735 -0.802484  0.000000 0.000000 1 30 1.000000
glove.TGA
0  37.390617 -5.149169 46.025391  0.233039 -0.574847 -0.784326  0.000000 0.000000 1 12 1.000000
0  29.803425 -5.149170 50.375305  -0.807947 -0.569414 -0.151402  0.000000 0.000000 1 12 1.000000
0  29.803425 0.261364 50.375305  -0.807947 0.569414 -0.151402  0.000000 0.000000 1 12 1.000000
glove.TGA
0  37.390617 0.261364 46.025391  0.233039 0.574847 -0.784326  0.000000 0.000000 1 12 1.000000
0  29.803425 0.261364 50.375305  -0.807947 0.569414 -0.151402  0.000000 0.000000 1 12 1.000000
0  31.928493 0.261364 53.004890  -0.065798 0.574725 0.815668  0.000000 0.000000 1 12 1.000000
glove.TGA
0  38.123714 -5.149169 47.459412  0.792230 -0.592090 0.147465  0.000000 0.000000 1 12 1.000000
0  31.928493 -5.149170 53.004890  -0.065798 -0.574725 0.815668  0.000000 0.000000 1 12 1.000000
0  29.803425 -5.149170 50.375305  -0.807947 -0.569414 -0.151402  0.000000 0.000000 1 12 1.000000
glove.TGA
0  29.803425 -5.149170 50.375305  -0.807947 -0.569414 -0.151402  0.000000 0.000000 1 12 1.000000
0  31.928493 -5.149170 53.004890  -0.065798 -0.574725 0.815668  0.000000 0.000000 1 12 1.000000
0  31.928493 0.261364 53.004890  -0.065798 0.574725 0.815668  0.000000 0.000000 1 12 1.000000
glove.TGA
0  38.123714 0.261364 47.459412  0.792230 0.592090 0.147465  0.000000 0.000000 1 12 1.000000
0  31.928493 0.261364 53.004890  -0.065798 0.574725 0.815668  0.000000 0.000000 1 12 1.000000
0  31.928493 -5.149170 53.004890  -0.065798 -0.574725 0.815668  0.000000 0.000000 1 12 1.000000
glove.TGA
0  38.123714 -5.149169 47.459412  0.792230 -0.592090 0.147465  0.000000 0.000000 1 12 1.000000
0  37.390617 -5.149169 46.025391  0.233039 -0.574847 -0.784326  0.000000 0.000000 1 12 1.000000
0  37.390617 0.261364 46.025391  0.233039 0.574847 -0.784326  0.000000 0.000000 1 12 1.000000
glove.TGA
0  -12.038187 1.641230 20.543499  -0.684591 0.425520 -0.591784  0.000000 0.000000 1 54 1.000000
0  -9.953230 7.699039 37.742599  -0.526872 0.683401 0.505264  0.000000 0.000000 1 54 1.000000
0  -0.820642 8.126535 36.459129  0.585589 0.727500 0.357433  0.000000 0.000000 1 54 1.000000
glove.TGA
0  -2.200646 2.068728 19.260033  0.503647 0.458693 -0.732047  0.000000 0.000000 1 54 1.000000
0  -0.820642 8.126535 36.459129  0.585589 0.727500 0.357433  0.000000 0.000000 1 54 1.000000
0  -0.381120 -2.723406 37.974777  0.672292 -0.428419 0.603687  0.000000 0.000000 1 54 1.000000
glove.TGA
0  -11.847689 -7.912050 21.200413  -0.607318 -0.684896 -0.402509  0.000000 0.000000 1 54 1.000000
0  -9.513707 -3.150904 39.258247  -0.471267 -0.468368 0.747307  0.000000 0.000000 1 54 1.000000
0  -9.953230 7.699039 37.742599  -0.526872 0.683401 0.505264  0.000000 0.000000 1 54 1.000000
glove.TGA
0  -2.010148 -7.484551 19.916946  0.529099 -0.648976 -0.546648  0.000000 0.000000 1 54 1.000000
0  -0.381120 -2.723406 37.974777  0.672292 -0.428419 0.603687  0.000000 0.000000 1 54 1.000000
0  -9.513707 -3.150904 39.258247  -0.471267 -0.468368 0.747307  0.000000 0.000000 1 54 1.000000
glove.TGA
0  -12.038187 1.641230 20.543499  -0.684591 0.425520 -0.591784  0.000000 0.000000 1 54 1.000000
0  -2.200646 2.068728 19.260033  0.503647 0.458693 -0.732047  0.000000 0.000000 1 54 1.000000
0  -2.010148 -7.484551 19.916946  0.529099 -0.648976 -0.546648  0.000000 0.000000 1 54 1.000000
glove.TGA
0  -0.820642 8.126535 36.459129  0.585589 0.727500 0.357433  0.000000 0.000000 1 54 1.000000
0  -9.953230 7.699039 37.742599  -0.526872 0.683401 0.505264  0.000000 0.000000 1 54 1.000000
0  -9.513707 -3.150904 39.258247  -0.471267 -0.468368 0.747307  0.000000 0.000000 1 54 1.000000
glove.TGA
0  -14.038697 4.501187 6.521751  -0.644093 0.625355 -0.440474  0.000000 0.000000 1 55 1.000000
0  -5.371044 4.501187 5.024701  0.477279 0.621357 -0.621326  0.000000 0.000000 1 55 1.000000
0  -5.371044 -4.479280 5.024701  0.480544 -0.527573 -0.700491  0.000000 0.000000 1 55 1.000000
glove.TGA
0  -5.371044 -4.479280 5.024701  0.480544 -0.527573 -0.700491  0.000000 0.000000 1 55 1.000000
0  -3.268438 -6.600242 18.943737  0.643544 -0.622822 0.444868  0.000000 0.000000 1 55 1.000000
0  -12.148165 -6.600242 20.285105  -0.487930 -0.622028 0.612354  0.000000 0.000000 1 55 1.000000
glove.TGA
0  -5.371044 4.501187 5.024701  0.477279 0.621357 -0.621326  0.000000 0.000000 1 55 1.000000
0  -3.268438 2.380226 18.943737  0.671010 0.528245 0.520218  0.000000 0.000000 1 55 1.000000
0  -3.268438 -6.600242 18.943737  0.643544 -0.622822 0.444868  0.000000 0.000000 1 55 1.000000
glove.TGA
0  -14.038697 4.501187 6.521751  -0.644093 0.625355 -0.440474  0.000000 0.000000 1 55 1.000000
0  -12.148165 2.380226 20.285105  -0.492294 0.527635 0.692251  0.000000 0.000000 1 55 1.000000
0  -3.268438 2.380226 18.943737  0.671010 0.528245 0.520218  0.000000 0.000000 1 55 1.000000
glove.TGA
0  -14.038697 -4.479280 6.521751  -0.672109 -0.529221 -0.517808  0.000000 0.000000 1 55 1.000000
0  -12.148165 -6.600242 20.285105  -0.487930 -0.622028 0.612354  0.000000 0.000000 1 55 1.000000
0  -12.148165 2.380226 20.285105  -0.492294 0.527635 0.692251  0.000000 0.000000 1 55 1.000000
glove.TGA
0  -3.268438 2.380226 18.943737  0.671010 0.528245 0.520218  0.000000 0.000000 1 55 1.000000
0  -12.148165 2.380226 20.285105  -0.492294 0.527635 0.692251  0.000000 0.000000 1 55 1.000000
0  -12.148165 -6.600242 20.285105  -0.487930 -0.622028 0.612354  0.000000 0.000000 1 55 1.000000
glove.TGA
0  -12.924902 5.084792 0.044408  -0.577349 0.577349 -0.577349  0.000000 0.000000 1 56 1.000000
0  -7.436871 5.084792 0.044408  0.577349 0.577349 -0.577349  0.000000 0.000000 1 56 1.000000
0  -7.436871 -10.322560 0.044408  0.577349 -0.577349 -0.577349  0.000000 0.000000 1 56 1.000000
glove.TGA
0  -7.436871 -10.322560 0.044408  0.577349 -0.577349 -0.577349  0.000000 0.000000 1 56 1.000000
0  -7.436871 -10.322560 5.532440  0.577349 -0.577349 0.577349  0.000000 0.000000 1 56 1.000000
0  -12.924902 -10.322560 5.532440  -0.577349 -0.577349 0.577349  0.000000 0.000000 1 56 1.000000
glove.TGA
0  -7.436871 5.084792 0.044408  0.577349 0.577349 -0.577349  0.000000 0.000000 1 56 1.000000
0  -7.436871 5.084792 5.532440  0.577349 0.577349 0.577349  0.000000 0.000000 1 56 1.000000
0  -7.436871 -10.322560 5.532440  0.577349 -0.577349 0.577349  0.000000 0.000000 1 56 1.000000
glove.TGA
0  -7.436871 5.084792 5.532440  0.577349 0.577349 0.577349  0.000000 0.000000 1 56 1.000000
0  -12.924902 5.084792 5.532440  -0.577349 0.577349 0.577349  0.000000 0.000000 1 56 1.000000
0  -12.924902 -10.322560 5.532440  -0.577349 -0.577349 0.577349  0.000000 0.000000 1 56 1.000000
glove.TGA
0  -12.924902 5.084792 0.044408  -0.577349 0.577349 -0.577349  0.000000 0.000000 1 56 1.000000
0  -12.924902 5.084792 5.532440  -0.577349 0.577349 0.577349  0.000000 0.000000 1 56 1.000000
0  -7.436871 5.084792 5.532440  0.577349 0.577349 0.577349  0.000000 0.000000 1 56 1.000000
glove.TGA
0  -12.924902 -10.322560 0.044408  -0.577349 -0.577349 -0.577349  0.000000 0.000000 1 56 1.000000
0  -12.924902 -10.322560 5.532440  -0.577349 -0.577349 0.577349  0.000000 0.000000 1 56 1.000000
0  -12.924902 5.084792 5.532440  -0.577349 0.577349 0.577349  0.000000 0.000000 1 56 1.000000
glove.TGA
0  -4.002864 -15.447182 62.844215  -0.550340 -0.499435 -0.669027  0.000000 0.000000 1 7 1.000000
0  -4.002864 -13.844854 71.373116  -0.615986 -0.618122 0.488266  0.000000 0.000000 1 7 1.000000
0  -4.002864 0.360199 77.705719  -0.547624 0.566942 0.615314  0.000000 0.000000 1 7 1.000000
glove.TGA
0  -4.002864 -2.530788 69.470032  -0.632435 0.583758 -0.509110  0.000000 0.000000 1 7 1.000000
0  -4.002864 0.360199 77.705719  -0.547624 0.566942 0.615314  0.000000 0.000000 1 7 1.000000
0  4.232817 0.360199 77.705719  0.547624 0.566942 0.615314  0.000000 0.000000 1 7 1.000000
glove.TGA
0  4.232817 -2.530788 69.470032  0.632435 0.583758 -0.509110  0.000000 0.000000 1 7 1.000000
0  4.232817 0.360199 77.705719  0.547624 0.566942 0.615314  0.000000 0.000000 1 7 1.000000
0  4.232817 -13.844854 71.373116  0.615986 -0.618122 0.488266  0.000000 0.000000 1 7 1.000000
glove.TGA
0  4.232817 -15.447182 62.844215  0.550340 -0.499435 -0.669027  0.000000 0.000000 1 7 1.000000
0  4.232817 -13.844854 71.373116  0.615986 -0.618122 0.488266  0.000000 0.000000 1 7 1.000000
0  -4.002864 -13.844854 71.373116  -0.615986 -0.618122 0.488266  0.000000 0.000000 1 7 1.000000
glove.TGA
0  -4.002864 -2.530788 69.470032  -0.632435 0.583758 -0.509110  0.000000 0.000000 1 7 1.000000
0  4.232817 -2.530788 69.470032  0.632435 0.583758 -0.509110  0.000000 0.000000 1 7 1.000000
0  4.232817 -15.447182 62.844215  0.550340 -0.499435 -0.669027  0.000000 0.000000 1 7 1.000000
glove.TGA
0  4.232817 0.360199 77.705719  0.547624 0.566942 0.615314  0.000000 0.000000 1 7 1.000000
0  -4.002864 0.360199 77.705719  -0.547624 0.566942 0.615314  0.000000 0.000000 1 7 1.000000
0  -4.002864 -13.844854 71.373116  -0.615986 -0.618122 0.488266  0.000000 0.000000 1 7 1.000000
glove.TGA
0  -8.839404 -7.743518 50.611511  -0.578967 -0.453230 -0.677755  0.000000 0.000000 1 4 1.000000
0  -8.839404 -11.220448 66.821632  -0.575732 -0.679647 0.454482  0.000000 0.000000 1 4 1.000000
0  -8.839404 6.346954 70.029930  -0.578967 0.453230 0.677755  0.000000 0.000000 1 4 1.000000
glove.TGA
0  -8.839404 9.823883 53.819805  -0.575732 0.679647 -0.454482  0.000000 0.000000 1 4 1.000000
0  -8.839404 6.346954 70.029930  -0.578967 0.453230 0.677755  0.000000 0.000000 1 4 1.000000
0  9.068769 6.346954 70.029930  0.578967 0.453230 0.677755  0.000000 0.000000 1 4 1.000000
glove.TGA
0  9.068769 9.823883 53.819805  0.575732 0.679647 -0.454482  0.000000 0.000000 1 4 1.000000
0  9.068769 6.346954 70.029930  0.578967 0.453230 0.677755  0.000000 0.000000 1 4 1.000000
0  9.068769 -11.220448 66.821632  0.575732 -0.679647 0.454482  0.000000 0.000000 1 4 1.000000
glove.TGA
0  9.068769 -7.743518 50.611511  0.578967 -0.453230 -0.677755  0.000000 0.000000 1 4 1.000000
0  9.068769 -11.220448 66.821632  0.575732 -0.679647 0.454482  0.000000 0.000000 1 4 1.000000
0  -8.839404 -11.220448 66.821632  -0.575732 -0.679647 0.454482  0.000000 0.000000 1 4 1.000000
glove.TGA
0  -8.839404 9.823883 53.819805  -0.575732 0.679647 -0.454482  0.000000 0.000000 1 4 1.000000
0  9.068769 9.823883 53.819805  0.575732 0.679647 -0.454482  0.000000 0.000000 1 4 1.000000
0  9.068769 -7.743518 50.611511  0.578967 -0.453230 -0.677755  0.000000 0.000000 1 4 1.000000
glove.TGA
0  9.068769 6.346954 70.029930  0.578967 0.453230 0.677755  0.000000 0.000000 1 4 1.000000
0  -8.839404 6.346954 70.029930  -0.578967 0.453230 0.677755  0.000000 0.000000 1 4 1.000000
0  -8.839404 -11.220448 66.821632  -0.575732 -0.679647 0.454482  0.000000 0.000000 1 4 1.000000
glove.TGA
0  15.477150 -5.055170 56.711220  0.085726 -0.577349 -0.811975  0.000000 0.000000 1 10 1.000000
0  6.612594 -5.055170 63.882401  -0.811975 -0.577349 -0.085726  0.000000 0.000000 1 10 1.000000
0  6.612594 2.857013 63.882401  -0.811975 0.577349 -0.085726  0.000000 0.000000 1 10 1.000000
glove.TGA
0  15.477150 2.857013 56.711220  0.085726 0.577349 -0.811975  0.000000 0.000000 1 10 1.000000
0  6.612594 2.857013 63.882401  -0.811975 0.577349 -0.085726  0.000000 0.000000 1 10 1.000000
0  11.588873 2.857013 70.033760  -0.085726 0.577349 0.811975  0.000000 0.000000 1 10 1.000000
glove.TGA
0  20.453428 2.857013 62.862583  0.811975 0.577349 0.085726  0.000000 0.000000 1 10 1.000000
0  11.588873 2.857013 70.033760  -0.085726 0.577349 0.811975  0.000000 0.000000 1 10 1.000000
0  11.588873 -5.055170 70.033760  -0.085726 -0.577349 0.811975  0.000000 0.000000 1 10 1.000000
glove.TGA
0  20.453428 -5.055170 62.862583  0.811975 -0.577349 0.085726  0.000000 0.000000 1 10 1.000000
0  11.588873 -5.055170 70.033760  -0.085726 -0.577349 0.811975  0.000000 0.000000 1 10 1.000000
0  6.612594 -5.055170 63.882401  -0.811975 -0.577349 -0.085726  0.000000 0.000000 1 10 1.000000
glove.TGA
0  15.477150 2.857013 56.711220  0.085726 0.577349 -0.811975  0.000000 0.000000 1 10 1.000000
0  20.453428 2.857013 62.862583  0.811975 0.577349 0.085726  0.000000 0.000000 1 10 1.000000
0  20.453428 -5.055170 62.862583  0.811975 -0.577349 0.085726  0.000000 0.000000 1 10 1.000000
glove.TGA
0  11.588873 2.857013 70.033760  -0.085726 0.577349 0.811975  0.000000 0.000000 1 10 1.000000
0  6.612594 2.857013 63.882401  -0.811975 0.577349 -0.085726  0.000000 0.000000 1 10 1.000000
0  6.612594 -5.055170 63.882401  -0.811975 -0.577349 -0.085726  0.000000 0.000000 1 10 1.000000
glove.TGA
0  28.470392 -3.309659 50.603340  0.229041 -0.555254 -0.799463  0.000000 0.000000 1 11 1.000000
0  17.988178 -4.262341 56.029320  -0.771142 -0.597064 -0.220954  0.000000 0.000000 1 11 1.000000
0  17.988178 1.463909 56.029320  -0.771142 0.597064 -0.220954  0.000000 0.000000 1 11 1.000000
glove.TGA
0  28.470392 0.511227 50.603340  0.229041 0.555254 -0.799463  0.000000 0.000000 1 11 1.000000
0  17.988178 1.463909 56.029320  -0.771142 0.597064 -0.220954  0.000000 0.000000 1 11 1.000000
0  21.050110 1.463909 60.868172  -0.134770 0.597736 0.790246  0.000000 0.000000 1 11 1.000000
glove.TGA
0  30.513491 0.511227 53.832100  0.820124 0.554735 0.140080  0.000000 0.000000 1 11 1.000000
0  21.050110 1.463909 60.868172  -0.134770 0.597736 0.790246  0.000000 0.000000 1 11 1.000000
0  21.050110 -4.262341 60.868172  -0.134770 -0.597736 0.790246  0.000000 0.000000 1 11 1.000000
glove.TGA
0  30.513491 -3.309659 53.832100  0.820124 -0.554735 0.140080  0.000000 0.000000 1 11 1.000000
0  21.050110 -4.262341 60.868172  -0.134770 -0.597736 0.790246  0.000000 0.000000 1 11 1.000000
0  17.988178 -4.262341 56.029320  -0.771142 -0.597064 -0.220954  0.000000 0.000000 1 11 1.000000
glove.TGA
0  28.470392 0.511227 50.603340  0.229041 0.555254 -0.799463  0.000000 0.000000 1 11 1.000000
0  30.513491 0.511227 53.832100  0.820124 0.554735 0.140080  0.000000 0.000000 1 11 1.000000
0  30.513491 -3.309659 53.832100  0.820124 -0.554735 0.140080  0.000000 0.000000 1 11 1.000000
glove.TGA
0  21.050110 1.463909 60.868172  -0.134770 0.597736 0.790246  0.000000 0.000000 1 11 1.000000
0  17.988178 1.463909 56.029320  -0.771142 0.597064 -0.220954  0.000000 0.000000 1 11 1.000000
0  17.988178 -4.262341 56.029320  -0.771142 -0.597064 -0.220954  0.000000 0.000000 1 11 1.000000
glove.TGA
0  -21.102442 -4.911896 62.449726  -0.814508 -0.577349 0.056551  0.000000 0.000000 1 29 1.000000
0  -12.500887 -4.911896 69.934341  0.056551 -0.577349 0.814508  0.000000 0.000000 1 29 1.000000
0  -12.500887 3.000287 69.934341  0.056551 0.577349 0.814508  0.000000 0.000000 1 29 1.000000
glove.TGA
0  -21.102442 3.000287 62.449726  -0.814508 0.577349 0.056551  0.000000 0.000000 1 29 1.000000
0  -12.500887 3.000287 69.934341  0.056551 0.577349 0.814508  0.000000 0.000000 1 29 1.000000
0  -7.307106 3.000287 63.965496  0.814508 0.577349 -0.056551  0.000000 0.000000 1 29 1.000000
glove.TGA
0  -15.908650 3.000287 56.480873  -0.056551 0.577349 -0.814508  0.000000 0.000000 1 29 1.000000
0  -7.307106 3.000287 63.965496  0.814508 0.577349 -0.056551  0.000000 0.000000 1 29 1.000000
0  -7.307106 -4.911896 63.965496  0.814508 -0.577349 -0.056551  0.000000 0.000000 1 29 1.000000
glove.TGA
0  -15.908650 -4.911896 56.480873  -0.056551 -0.577349 -0.814508  0.000000 0.000000 1 29 1.000000
0  -7.307106 -4.911896 63.965496  0.814508 -0.577349 -0.056551  0.000000 0.000000 1 29 1.000000
0  -12.500887 -4.911896 69.934341  0.056551 -0.577349 0.814508  0.000000 0.000000 1 29 1.000000
glove.TGA
0  -21.102442 3.000287 62.449726  -0.814508 0.577349 0.056551  0.000000 0.000000 1 29 1.000000
0  -15.908650 3.000287 56.480873  -0.056551 0.577349 -0.814508  0.000000 0.000000 1 29 1.000000
0  -15.908650 -4.911896 56.480873  -0.056551 -0.577349 -0.814508  0.000000 0.000000 1 29 1.000000
glove.TGA
0  -7.307106 3.000287 63.965496  0.814508 0.577349 -0.056551  0.000000 0.000000 1 29 1.000000
0  -12.500887 3.000287 69.934341  0.056551 0.577349 0.814508  0.000000 0.000000 1 29 1.000000
0  -12.500887 -4.911896 69.934341  0.056551 -0.577349 0.814508  0.000000 0.000000 1 29 1.000000
glove.TGA
0  7.557152 -10.322935 0.058571  -0.577349 -0.577349 -0.577349  0.000000 0.000000 1 50 1.000000
0  7.557152 -10.322935 5.546602  -0.577349 -0.577349 0.577349  0.000000 0.000000 1 50 1.000000
0  7.557152 5.084417 5.546602  -0.577349 0.577349 0.577349  0.000000 0.000000 1 50 1.000000
glove.TGA
0  7.557152 5.084417 0.058571  -0.577349 0.577349 -0.577349  0.000000 0.000000 1 50 1.000000
0  7.557152 5.084417 5.546602  -0.577349 0.577349 0.577349  0.000000 0.000000 1 50 1.000000
0  13.045183 5.084417 5.546602  0.577349 0.577349 0.577349  0.000000 0.000000 1 50 1.000000
glove.TGA
0  13.045183 5.084417 0.058571  0.577349 0.577349 -0.577349  0.000000 0.000000 1 50 1.000000
0  13.045183 5.084417 5.546602  0.577349 0.577349 0.577349  0.000000 0.000000 1 50 1.000000
0  13.045183 -10.322935 5.546602  0.577349 -0.577349 0.577349  0.000000 0.000000 1 50 1.000000
glove.TGA
0  13.045183 -10.322935 0.058571  0.577349 -0.577349 -0.577349  0.000000 0.000000 1 50 1.000000
0  13.045183 -10.322935 5.546602  0.577349 -0.577349 0.577349  0.000000 0.000000 1 50 1.000000
0  7.557152 -10.322935 5.546602  -0.577349 -0.577349 0.577349  0.000000 0.000000 1 50 1.000000
glove.TGA
0  7.557152 5.084417 0.058571  -0.577349 0.577349 -0.577349  0.000000 0.000000 1 50 1.000000
0  13.045183 5.084417 0.058571  0.577349 0.577349 -0.577349  0.000000 0.000000 1 50 1.000000
0  13.045183 -10.322935 0.058571  0.577349 -0.577349 -0.577349  0.000000 0.000000 1 50 1.000000
glove.TGA
0  13.045183 5.084417 5.546602  0.577349 0.577349 0.577349  0.000000 0.000000 1 50 1.000000
0  7.557152 5.084417 5.546602  -0.577349 0.577349 0.577349  0.000000 0.000000 1 50 1.000000
0  7.557152 -10.322935 5.546602  -0.577349 -0.577349 0.577349  0.000000 0.000000 1 50 1.000000
glove.TGA
0  2.518497 -7.286120 20.053665  -0.471175 -0.684896 -0.555742  0.000000 0.000000 1 48 1.000000
0  -0.269255 -2.524973 38.047035  -0.663717 -0.468581 0.582965  0.000000 0.000000 1 48 1.000000
0  -0.269255 8.324969 36.468945  -0.647145 0.684988 0.334605  0.000000 0.000000 1 48 1.000000
glove.TGA
0  2.518497 2.267160 19.369686  -0.492477 0.426405 -0.758690  0.000000 0.000000 1 48 1.000000
0  -0.269255 8.324969 36.468945  -0.647145 0.684988 0.334605  0.000000 0.000000 1 48 1.000000
0  9.536498 8.752467 37.976166  0.473922 0.722037 0.504013  0.000000 0.000000 1 48 1.000000
glove.TGA
0  12.324249 2.694659 20.876909  0.676199 0.459090 -0.576128  0.000000 0.000000 1 48 1.000000
0  9.536498 8.752467 37.976166  0.473922 0.722037 0.504013  0.000000 0.000000 1 48 1.000000
0  9.536498 -2.097476 39.554256  0.487564 -0.429792 0.759941  0.000000 0.000000 1 48 1.000000
glove.TGA
0  12.324249 -6.858621 21.560888  0.650929 -0.652547 -0.387829  0.000000 0.000000 1 48 1.000000
0  9.536498 -2.097476 39.554256  0.487564 -0.429792 0.759941  0.000000 0.000000 1 48 1.000000
0  -0.269255 -2.524973 38.047035  -0.663717 -0.468581 0.582965  0.000000 0.000000 1 48 1.000000
glove.TGA
0  2.518497 2.267160 19.369686  -0.492477 0.426405 -0.758690  0.000000 0.000000 1 48 1.000000
0  12.324249 2.694659 20.876909  0.676199 0.459090 -0.576128  0.000000 0.000000 1 48 1.000000
0  12.324249 -6.858621 21.560888  0.650929 -0.652547 -0.387829  0.000000 0.000000 1 48 1.000000
glove.TGA
0  9.536498 8.752467 37.976166  0.473922 0.722037 0.504013  0.000000 0.000000 1 48 1.000000
0  -0.269255 8.324969 36.468945  -0.647145 0.684988 0.334605  0.000000 0.000000 1 48 1.000000
0  -0.269255 -2.524973 38.047035  -0.663717 -0.468581 0.582965  0.000000 0.000000 1 48 1.000000
glove.TGA
0  5.646291 -4.919022 5.397077  -0.483291 -0.529221 -0.697348  0.000000 0.000000 1 49 1.000000
0  3.271245 -7.039984 19.085144  -0.650746 -0.622028 0.435408  0.000000 0.000000 1 49 1.000000
0  3.271245 1.940484 19.085144  -0.679128 0.527635 0.510208  0.000000 0.000000 1 49 1.000000
glove.TGA
0  5.646291 4.061446 5.397077  -0.480056 0.625355 -0.615162  0.000000 0.000000 1 49 1.000000
0  3.271245 1.940484 19.085144  -0.679128 0.527635 0.510208  0.000000 0.000000 1 49 1.000000
0  12.139311 1.940484 20.501543  0.481521 0.528245 0.699301  0.000000 0.000000 1 49 1.000000
glove.TGA
0  14.359529 4.061446 6.600783  0.643330 0.621357 -0.447188  0.000000 0.000000 1 49 1.000000
0  12.139311 1.940484 20.501543  0.481521 0.528245 0.699301  0.000000 0.000000 1 49 1.000000
0  12.139311 -7.039984 20.501543  0.478195 -0.622822 0.619160  0.000000 0.000000 1 49 1.000000
glove.TGA
0  14.359529 -4.919022 6.600783  0.670461 -0.527543 -0.521653  0.000000 0.000000 1 49 1.000000
0  12.139311 -7.039984 20.501543  0.478195 -0.622822 0.619160  0.000000 0.000000 1 49 1.000000
0  3.271245 -7.039984 19.085144  -0.650746 -0.622028 0.435408  0.000000 0.000000 1 49 1.000000
glove.TGA
0  5.646291 4.061446 5.397077  -0.480056 0.625355 -0.615162  0.000000 0.000000 1 49 1.000000
0  14.359529 4.061446 6.600783  0.643330 0.621357 -0.447188  0.000000 0.000000 1 49 1.000000
0  14.359529 -4.919022 6.600783  0.670461 -0.527543 -0.521653  0.000000 0.000000 1 49 1.000000
glove.TGA
0  12.139311 1.940484 20.501543  0.481521 0.528245 0.699301  0.000000 0.000000 1 49 1.000000
0  3.271245 1.940484 19.085144  -0.679128 0.527635 0.510208  0.000000 0.000000 1 49 1.000000
0  3.271245 -7.039984 19.085144  -0.650746 -0.622028 0.435408  0.000000 0.000000 1 49 1.000000
glove.TGA
0  -38.271870 -5.147440 47.508911  -0.792230 -0.592090 0.147465  0.000000 0.000000 1 31 1.000000
0  -32.076649 -5.147440 53.054394  0.065798 -0.574725 0.815668  0.000000 0.000000 1 31 1.000000
0  -32.076649 0.263093 53.054394  0.065798 0.574725 0.815668  0.000000 0.000000 1 31 1.000000
glove.TGA
0  -38.271870 0.263093 47.508911  -0.792230 0.592090 0.147465  0.000000 0.000000 1 31 1.000000
0  -32.076649 0.263093 53.054394  0.065798 0.574725 0.815668  0.000000 0.000000 1 31 1.000000
0  -29.951580 0.263093 50.424805  0.807947 0.569414 -0.151402  0.000000 0.000000 1 31 1.000000
glove.TGA
0  -37.538773 0.263093 46.074890  -0.233039 0.574847 -0.784326  0.000000 0.000000 1 31 1.000000
0  -29.951580 0.263093 50.424805  0.807947 0.569414 -0.151402  0.000000 0.000000 1 31 1.000000
0  -29.951580 -5.147440 50.424805  0.807947 -0.569414 -0.151402  0.000000 0.000000 1 31 1.000000
glove.TGA
0  -37.538773 -5.147440 46.074890  -0.233039 -0.574847 -0.784326  0.000000 0.000000 1 31 1.000000
0  -29.951580 -5.147440 50.424805  0.807947 -0.569414 -0.151402  0.000000 0.000000 1 31 1.000000
0  -32.076649 -5.147440 53.054394  0.065798 -0.574725 0.815668  0.000000 0.000000 1 31 1.000000
glove.TGA
0  -38.271870 0.263093 47.508911  -0.792230 0.592090 0.147465  0.000000 0.000000 1 31 1.000000
0  -37.538773 0.263093 46.074890  -0.233039 0.574847 -0.784326  0.000000 0.000000 1 31 1.000000
0  -37.538773 -5.147440 46.074890  -0.233039 -0.574847 -0.784326  0.000000 0.000000 1 31 1.000000
glove.TGA
0  -29.951580 0.263093 50.424805  0.807947 0.569414 -0.151402  0.000000 0.000000 1 31 1.000000
0  -32.076649 0.263093 53.054394  0.065798 0.574725 0.815668  0.000000 0.000000 1 31 1.000000
0  -32.076649 -5.147440 53.054394  0.065798 -0.574725 0.815668  0.000000 0.000000 1 31 1.000000
end
