version 1
nodes
0 "ValveBiped.pistol" -1
1 "Bip01 L Hand" -1
2 "Bip01 L Finger0" 1
3 "Bip01 L Finger01" 2
4 "Bip01 L Finger02" 3
5 "Dummy06" 4
6 "Bip01 L Finger1" 1
7 "Bip01 L Finger11" 6
8 "Bip01 L Finger12" 7
9 "Dummy07" 8
10 "Bip01 L Finger2" 1
11 "Bip01 L Finger21" 10
12 "Bip01 L Finger22" 11
13 "Dummy08" 12
14 "Bip01 L Finger3" 1
15 "Bip01 L Finger31" 14
16 "Bip01 L Finger32" 15
17 "Dummy09" 16
18 "Bip01 L Finger4" 1
19 "Bip01 L Finger41" 18
20 "Bip01 L Finger42" 19
21 "Dummy10" 20
22 "Bip01 R Hand" -1
23 "ValveBiped.Bip01_R_Hand" 22
24 "ValveBiped.Weapon_bone" 23
25 "ValveBiped.eject" 24
26 "ValveBiped.muzzle" 24
27 "Bip01 R Finger0" 22
28 "Bip01 R Finger01" 27
29 "Bip01 R Finger02" 28
30 "Dummy01" 29
31 "Bip01 R Finger1" 22
32 "Bip01 R Finger11" 31
33 "Bip01 R Finger12" 32
34 "Dummy02" 33
35 "Bip01 R Finger2" 22
36 "Bip01 R Finger21" 35
37 "Bip01 R Finger22" 36
38 "Dummy03" 37
39 "Bip01 R Finger3" 22
40 "Bip01 R Finger31" 39
41 "Bip01 R Finger32" 40
42 "Dummy04" 41
43 "Bip01 R Finger4" 22
44 "Bip01 R Finger41" 43
45 "Bip01 R Finger42" 44
46 "Dummy05" 45
47 "pistol" 22
48 "eject" 22
49 "muzzle" 22
end
skeleton
time 0
0  0.000000 0.000000 0.000000  1.570796 -0.000000 0.000000
1  9.737555 3.317621 -9.653793  -2.477483 0.756547 -1.229032
2  0.906990 0.394267 -1.906796  1.154254 0.422957 0.465360
3  1.068010 0.000022 -0.016566  0.007010 0.011458 0.471289
4  1.068134 0.000004 -0.002518  0.001334 0.011225 0.586425
5  1.068092 0.000025 0.009916  -0.000001 0.000000 0.000000
6  3.443566 -0.048676 -1.342273  0.228720 0.065378 1.230697
7  1.271150 -0.000027 -0.022218  0.006432 0.012080 0.375291
8  1.271333 -0.000052 -0.005306  0.001526 0.011401 0.382206
9  1.271309 -0.000006 0.009569  0.000009 0.000000 0.000018
10  3.453037 0.000023 -0.180581  0.042457 -0.000874 0.994265
11  1.482591 -0.000066 -0.043650  0.024690 0.019701 0.995097
12  1.483226 -0.000024 0.005472  -0.000794 0.005836 0.223386
13  1.483169 -0.000011 0.013995  -0.000020 -0.000000 -0.000009
14  3.525488 -0.031102 0.636695  -0.126301 -0.092941 1.107393
15  1.270767 0.000060 -0.038298  0.026836 0.018997 1.099902
16  1.271326 0.000036 0.006781  -0.000642 0.002970 0.118680
17  1.271301 0.000034 0.010509  0.000009 0.000001 0.000036
18  3.533076 0.018136 1.713725  -0.286030 -0.145174 1.203731
19  1.058930 -0.000029 -0.033294  0.026925 0.018422 1.028249
20  1.059450 -0.000002 0.002326  -0.001029 0.011329 0.486948
21  1.059361 -0.000016 0.014055  -0.000035 -0.000001 -0.000067
22  1.200646 -5.223357 -3.038123  0.054184 -0.087409 1.520731
23  -0.547038 -0.622447 -0.212114  -3.038278 0.170955 0.052991
24  4.999977 -1.499987 -4.999750  -0.000000 0.000001 -0.000004
25  1.056767 0.177959 0.722297  -1.491433 0.153397 1.562600
26  6.312593 -0.678769 0.424704  -1.724670 0.078428 -0.020348
27  1.667336 0.369667 1.713277  -2.776148 -0.015286 1.164321
28  0.889031 0.000008 0.009459  -0.004323 0.009606 0.418839
29  0.888915 -0.000013 0.017181  -0.010533 0.004692 0.575804
30  0.888887 0.000005 0.018578  0.000000 -0.033950 -3.141593
31  3.489845 -0.387120 0.776855  0.151929 -0.096720 0.192998
32  1.290152 -0.000008 -0.072481  0.030234 -0.008838 0.567995
33  1.290151 -0.000008 -0.072496  0.036061 0.004143 0.697503
34  1.291210 -0.000005 -0.050222  -0.000000 -0.033125 -3.141593
35  3.424989 -0.386429 -0.299927  0.123345 -0.109513 0.688492
36  1.505118 0.000020 -0.085607  0.051698 -0.002678 1.142454
37  1.507031 0.000004 -0.039562  0.024607 0.026635 1.215291
38  1.507319 0.000005 0.026377  0.000000 -0.033982 3.141592
39  3.379125 -0.385682 -1.181948  0.204631 0.012369 0.820278
40  1.290273 0.000001 -0.070287  0.039793 0.004094 0.819728
41  1.291481 0.000002 -0.042683  0.032587 0.023201 1.405659
42  1.291982 -0.000000 0.022945  -0.000000 -0.033982 -3.141592
43  3.281974 -0.351294 -2.296078  0.237832 -0.114556 0.974604
44  1.075438 0.000011 -0.054581  0.032608 0.007177 0.697733
45  1.076282 0.000010 -0.034105  0.023151 0.022870 0.820591
46  1.076822 0.000004 0.001349  0.000000 -0.034133 -3.141593
47  5.714670 1.398306 0.505866  0.067046 -0.049229 1.640571
48  4.233680 0.395660 3.160623  -2.313765 1.696008 -0.681500
49  11.561073 1.681297 2.008415  -2.313786 1.696005 -0.681519
end
triangles
pistol.tga
0  0.448605 1.567848 -1.145578  0.649233 -0.038460 -0.759616  0.120938 0.346235 1 24 1.000000
0  -0.304877 0.980289 -1.013985  -0.640182 -0.043071 -0.767015  0.083746 0.269317 1 24 1.000000
0  -0.158451 1.564213 -1.109448  -0.879650 -0.021205 -0.475149  0.121037 0.286634 1 24 1.000000
pistol.tga
0  -0.396389 4.475014 -0.924939  -0.448709 0.030451 -0.893159  0.133562 0.271501 1 24 1.000000
0  0.548477 4.501178 -0.980685  0.477724 0.046996 -0.877252  0.133562 0.171383 1 24 1.000000
0  0.443029 1.727036 -1.127212  0.445500 0.070918 -0.892469  0.394974 0.189699 1 24 1.000000
pistol.tga
0  0.787253 1.007315 -0.223306  -0.004813 -0.999980 0.004115  0.008306 0.372237 1 24 1.000000
0  -0.304877 0.980289 -1.013985  0.070462 -0.997504 0.004508  0.083746 0.269317 1 24 1.000000
0  0.641658 1.006498 -1.069829  -0.018091 -0.999828 0.004077  0.083590 0.363311 1 24 1.000000
pistol.tga
0  0.443029 1.727036 -1.127212  0.445500 0.070918 -0.892469  0.394974 0.189699 1 24 1.000000
0  -0.152662 1.710541 -1.092067  -0.690454 0.060149 -0.720871  0.394974 0.252821 1 24 1.000000
0  -0.396389 4.475014 -0.924939  -0.448709 0.030451 -0.893159  0.133562 0.271501 1 24 1.000000
pistol.tga
0  -0.140777 -0.000340 -2.056520  -0.998316 -0.005592 0.057732  0.586423 0.449147 1 24 1.000000
0  -0.133516 -0.014575 -1.941708  -0.998022 -0.016702 0.060599  0.587498 0.461312 1 24 1.000000
0  -0.174456 1.421040 -1.922158  -0.998971 -0.020714 0.040337  0.452522 0.459570 1 24 1.000000
pistol.tga
0  -0.359560 0.982700 -0.155475  -0.986944 -0.029877 0.158270  0.487930 0.647065 1 24 1.000000
0  -0.523590 4.653585 -0.485383  -0.998025 -0.024662 -0.057767  0.143598 0.602444 1 24 1.000000
0  -0.427028 0.966016 -0.579343  -0.998021 -0.024660 -0.057839  0.490392 0.602293 1 24 1.000000
pistol.tga
0  -0.304877 0.980289 -1.013985  -0.640182 -0.043071 -0.767015  0.083746 0.269317 1 24 1.000000
0  0.448605 1.567848 -1.145578  0.649233 -0.038460 -0.759616  0.120938 0.346235 1 24 1.000000
0  0.641658 1.006498 -1.069829  0.631556 0.013956 -0.775205  0.083590 0.363311 1 24 1.000000
pistol.tga
0  -0.158451 1.564213 -1.109448  -0.879650 -0.021205 -0.475149  0.437161 0.545007 1 24 1.000000
0  -0.174456 1.421040 -1.922158  -0.998971 -0.020714 0.040337  0.452522 0.459570 1 24 1.000000
0  -0.166489 1.340541 -1.825904  -0.997970 -0.045556 0.044503  0.459868 0.469950 1 24 1.000000
pistol.tga
0  -0.158451 1.564213 -1.109448  -0.879650 -0.021205 -0.475149  0.437161 0.545007 1 24 1.000000
0  -0.152662 1.710541 -1.092067  -0.690454 0.060149 -0.720871  0.422151 0.546499 1 24 1.000000
0  -0.174456 1.421040 -1.922158  -0.998971 -0.020714 0.040337  0.452522 0.459570 1 24 1.000000
pistol.tga
0  0.448605 1.567848 -1.145578  0.022628 -0.954188 0.298350  0.120938 0.346235 1 24 1.000000
0  -0.158451 1.564213 -1.109448  0.023432 -0.954376 0.297686  0.121037 0.286634 1 24 1.000000
0  -0.166489 1.340541 -1.825904  0.022305 -0.954112 0.298617  0.187994 0.289403 1 24 1.000000
pistol.tga
0  0.413152 -0.012612 -1.974275  0.059472 0.000557 0.998230  0.308582 0.343195 1 24 1.000000
0  -0.166489 1.340541 -1.825904  0.059570 -0.083552 0.994721  0.187994 0.289403 1 24 1.000000
0  -0.133516 -0.014575 -1.941708  0.058580 0.084962 0.994661  0.308672 0.289591 1 24 1.000000
pistol.tga
0  -0.140777 -0.000340 -2.056520  -0.058492 -0.017882 -0.998128  0.612787 0.249870 1 24 1.000000
0  0.376839 1.423131 -1.954999  -0.059557 0.092543 -0.993926  0.478845 0.192420 1 24 1.000000
0  0.406037 0.001626 -2.089096  -0.059392 -0.018372 -0.998066  0.612787 0.192658 1 24 1.000000
pistol.tga
0  -0.133516 -0.014575 -1.941708  0.058580 0.084962 0.994661  0.308672 0.289591 1 24 1.000000
0  0.479481 -0.927354 -1.821342  0.057291 0.168243 0.984079  0.387956 0.345649 1 24 1.000000
0  0.413152 -0.012612 -1.974275  0.059472 0.000557 0.998230  0.308582 0.343195 1 24 1.000000
pistol.tga
0  -0.133516 -0.014575 -1.941708  -0.998022 -0.016702 0.060599  0.587498 0.461312 1 24 1.000000
0  -0.140777 -0.000340 -2.056520  -0.998316 -0.005592 0.057732  0.586423 0.449147 1 24 1.000000
0  -0.131157 -0.930988 -1.785406  -0.998603 0.052544 0.005589  0.673216 0.480218 1 24 1.000000
pistol.tga
0  -0.138376 -1.070229 -1.919381  -0.054912 -0.127070 -0.990373  0.712953 0.253597 1 24 1.000000
0  -0.140777 -0.000340 -2.056520  -0.058492 -0.017882 -0.998128  0.612787 0.249870 1 24 1.000000
0  0.473635 -1.053282 -1.955489  -0.056655 -0.128065 -0.990146  0.712921 0.189217 1 24 1.000000
pistol.tga
0  -0.131157 -0.930988 -1.785406  0.056917 0.168000 0.984143  0.388035 0.285696 1 24 1.000000
0  0.479481 -0.927354 -1.821342  0.057291 0.168243 0.984079  0.387956 0.345649 1 24 1.000000
0  -0.133516 -0.014575 -1.941708  0.058580 0.084962 0.994661  0.308672 0.289591 1 24 1.000000
pistol.tga
0  -0.304877 0.980289 -1.013985  0.070569 -0.997497 0.004525  0.083746 0.269317 1 24 1.000000
0  -0.359560 0.982700 -0.155475  0.092000 -0.995721 0.008658  0.008356 0.258126 1 24 1.000000
0  -0.427028 0.966016 -0.579343  0.161836 -0.986731 0.013079  0.048364 0.254232 1 24 1.000000
pistol.tga
0  0.641658 1.006498 -1.069829  -0.018091 -0.999828 0.004077  0.083590 0.363311 1 24 1.000000
0  0.815171 1.000409 -0.652630  -0.063661 -0.997900 0.011913  0.042604 0.378446 1 24 1.000000
0  0.787253 1.007315 -0.223306  -0.004813 -0.999980 0.004115  0.008306 0.372237 1 24 1.000000
pistol.tga
0  -0.166489 1.340541 -1.825904  -0.997970 -0.045556 0.044503  0.459868 0.469950 1 24 1.000000
0  -0.174456 1.421040 -1.922158  -0.998971 -0.020714 0.040337  0.452522 0.459570 1 24 1.000000
0  -0.133516 -0.014575 -1.941708  -0.998022 -0.016702 0.060599  0.587498 0.461312 1 24 1.000000
pistol.tga
0  -0.279924 -1.018723 -0.405464  -0.986254 0.164802 0.011993  0.677907 0.625970 1 24 1.000000
0  -0.131157 -0.930988 -1.785406  -0.998603 0.052544 0.005589  0.673216 0.480218 1 24 1.000000
0  -0.138376 -1.070229 -1.919381  -0.840768 0.523190 -0.139213  0.686603 0.466432 1 24 1.000000
pistol.tga
0  -0.359560 0.982700 -0.155475  -0.986944 -0.029877 0.158270  0.487930 0.647065 1 24 1.000000
0  -0.456123 4.670271 -0.061517  -0.986944 -0.029877 0.158269  0.141135 0.647216 1 24 1.000000
0  -0.523590 4.653585 -0.485383  -0.998025 -0.024662 -0.057767  0.143598 0.602444 1 24 1.000000
pistol.tga
0  0.448605 1.567848 -1.145578  0.022628 -0.954188 0.298350  0.120938 0.346235 1 24 1.000000
0  -0.166489 1.340541 -1.825904  0.022305 -0.954112 0.298617  0.187994 0.289403 1 24 1.000000
0  0.384727 1.342630 -1.858741  0.021447 -0.953910 0.299326  0.187904 0.343459 1 24 1.000000
pistol.tga
0  -0.152662 1.710541 -1.092067  -0.034722 0.941607 -0.334920  0.394974 0.252821 1 24 1.000000
0  0.376839 1.423131 -1.954999  -0.034623 0.941629 -0.334867  0.478845 0.192420 1 24 1.000000
0  -0.174456 1.421040 -1.922158  -0.023160 0.944159 -0.328675  0.478845 0.250108 1 24 1.000000
pistol.tga
0  0.384727 1.342630 -1.858741  0.059574 -0.083550 0.994721  0.187904 0.343459 1 24 1.000000
0  -0.166489 1.340541 -1.825904  0.059570 -0.083552 0.994721  0.187994 0.289403 1 24 1.000000
0  0.413152 -0.012612 -1.974275  0.059472 0.000557 0.998230  0.308582 0.343195 1 24 1.000000
pistol.tga
0  -0.174456 1.421040 -1.922158  -0.059560 0.092544 -0.993926  0.478845 0.250108 1 24 1.000000
0  0.376839 1.423131 -1.954999  -0.059557 0.092543 -0.993926  0.478845 0.192420 1 24 1.000000
0  -0.140777 -0.000340 -2.056520  -0.058492 -0.017882 -0.998128  0.612787 0.249870 1 24 1.000000
pistol.tga
0  -0.140777 -0.000340 -2.056520  -0.998316 -0.005592 0.057732  0.586423 0.449147 1 24 1.000000
0  -0.138376 -1.070229 -1.919381  -0.840768 0.523190 -0.139213  0.686603 0.466432 1 24 1.000000
0  -0.131157 -0.930988 -1.785406  -0.998603 0.052544 0.005589  0.673216 0.480218 1 24 1.000000
pistol.tga
0  0.406037 0.001626 -2.089096  -0.059392 -0.018372 -0.998066  0.612787 0.192658 1 24 1.000000
0  0.473635 -1.053282 -1.955489  -0.056655 -0.128065 -0.990146  0.712921 0.189217 1 24 1.000000
0  -0.140777 -0.000340 -2.056520  -0.058492 -0.017882 -0.998128  0.612787 0.249870 1 24 1.000000
pistol.tga
0  0.479481 -0.927354 -1.821342  -0.007008 0.998134 0.060652  0.387956 0.345649 1 24 1.000000
0  -0.131157 -0.930988 -1.785406  -0.002219 0.997998 0.063212  0.388035 0.285696 1 24 1.000000
0  -0.279924 -1.018723 -0.405464  -0.007140 0.998138 0.060582  0.507482 0.262047 1 24 1.000000
pistol.tga
0  -0.297853 1.137151 -0.926068  -0.978240 -0.056356 -0.199676  0.517081 0.390084 1 24 1.000000
0  -0.059438 -1.051726 -0.975958  -0.930497 -0.093277 -0.354225  0.688157 0.391642 1 24 1.000000
0  -0.279924 -1.018723 -0.405464  -0.978240 -0.056356 -0.199676  0.684821 0.443612 1 24 1.000000
pistol.tga
0  -0.279924 -1.018723 -0.405464  -0.978270 -0.056333 -0.199534  0.684821 0.443612 1 24 1.000000
0  -0.321581 1.127995 -0.321621  -0.999061 -0.017844 -0.039489  0.515101 0.445088 1 24 1.000000
0  -0.297853 1.137151 -0.926068  -0.978271 -0.056315 -0.199538  0.517081 0.390084 1 24 1.000000
pistol.tga
0  0.640930 1.163145 -0.981454  -0.059336 0.016286 -0.998105  0.517081 0.294179 1 24 1.000000
0  0.521946 -1.035628 -1.010258  -0.059336 0.016286 -0.998105  0.688157 0.311112 1 24 1.000000
0  -0.059438 -1.051726 -0.975958  -0.059336 0.016286 -0.998105  0.688157 0.365284 1 24 1.000000
pistol.tga
0  -0.059438 -1.051726 -0.975958  -0.059337 0.016286 -0.998105  0.688157 0.365284 1 24 1.000000
0  -0.297853 1.137151 -0.926068  -0.059337 0.016286 -0.998105  0.517081 0.382161 1 24 1.000000
0  0.640930 1.163145 -0.981454  -0.059337 0.016286 -0.998105  0.517081 0.294179 1 24 1.000000
pistol.tga
0  0.114042 0.132831 -1.671564  -0.997883 -0.027630 0.058874  0.519687 0.477095 1 24 1.000000
0  0.158797 -1.325818 -1.597564  -0.997883 -0.027631 0.058873  0.654199 0.488658 1 24 1.000000
0  0.210053 -1.193856 -0.666849  -0.997883 -0.027630 0.058873  0.639960 0.585117 1 24 1.000000
pistol.tga
0  0.114042 0.132831 -1.671564  -0.997883 -0.027630 0.058874  0.519687 0.477095 1 24 1.000000
0  0.210053 -1.193856 -0.666849  -0.997883 -0.027630 0.058873  0.639960 0.585117 1 24 1.000000
0  0.174923 0.057996 -0.674789  -0.997883 -0.027630 0.058874  0.524395 0.580973 1 24 1.000000
pistol.tga
0  -0.304877 0.980289 -1.013985  0.070462 -0.997504 0.004508  0.083746 0.269317 1 24 1.000000
0  0.787253 1.007315 -0.223306  -0.004813 -0.999980 0.004115  0.008306 0.372237 1 24 1.000000
0  -0.359560 0.982700 -0.155475  0.092000 -0.995721 0.008660  0.008356 0.258126 1 24 1.000000
pistol.tga
0  0.376839 1.423131 -1.954999  -0.034623 0.941629 -0.334867  0.478845 0.192420 1 24 1.000000
0  -0.152662 1.710541 -1.092067  -0.034722 0.941607 -0.334920  0.394974 0.252821 1 24 1.000000
0  0.443029 1.727036 -1.127212  -0.046119 0.938924 -0.341019  0.394974 0.189699 1 24 1.000000
pistol.tga
0  -0.424480 -0.361877 0.138854  -0.991416 0.057910 0.117222  0.646383 0.739108 1 24 1.000000
0  -0.326389 -4.115497 0.031870  -0.998553 -0.027413 0.046278  0.958798 0.737923 1 24 1.000000
0  -0.273113 -3.954993 0.686734  -0.995661 -0.028434 0.088602  0.944260 0.798087 1 24 1.000000
pistol.tga
0  -0.273113 -3.954993 0.686734  -0.995661 -0.028434 0.088602  0.944260 0.798087 1 24 1.000000
0  -0.366310 -0.376551 0.782323  -0.984029 0.151852 0.092884  0.646437 0.798647 1 24 1.000000
0  -0.424480 -0.361877 0.138854  -0.991416 0.057910 0.117222  0.646383 0.739108 1 24 1.000000
pistol.tga
0  1.054812 -4.055349 -0.067997  0.053254 -0.970294 0.235995  0.758259 0.993379 1 24 1.000000
0  -0.273113 -3.954993 0.686734  0.047481 -0.960096 0.275611  0.701104 0.864376 1 24 1.000000
0  -0.326389 -4.115497 0.031870  0.069190 -0.950614 0.302566  0.757264 0.862061 1 24 1.000000
pistol.tga
0  1.023400 -4.188788 -0.525033  0.120780 -0.903316 0.411622  0.798896 0.988740 1 24 1.000000
0  1.054812 -4.055349 -0.067997  0.053254 -0.970294 0.235995  0.758259 0.993379 1 24 1.000000
0  -0.326389 -4.115497 0.031870  0.069190 -0.950614 0.302566  0.757264 0.862061 1 24 1.000000
pistol.tga
0  -0.273113 -3.954993 0.686734  0.047485 -0.960090 0.275631  0.701104 0.864376 1 24 1.000000
0  0.814023 -3.871010 0.774308  0.045789 -0.941345 0.334326  0.687941 0.965739 1 24 1.000000
0  0.017088 -3.893076 0.821326  0.045789 -0.941345 0.334326  0.687658 0.891013 1 24 1.000000
pistol.tga
0  0.814023 -3.871010 0.774308  0.458388 -0.023614 0.888439  0.687941 0.965739 1 24 1.000000
0  0.817188 -0.274023 0.897135  0.351274 0.294928 0.888608  0.387800 0.974642 1 24 1.000000
0  0.017088 -3.893076 0.821326  -0.248496 -0.043659 0.967649  0.687658 0.891013 1 24 1.000000
pistol.tga
0  -0.273113 -3.954993 0.686734  -0.414311 -0.035084 0.909459  0.944260 0.798087 1 24 1.000000
0  0.017088 -3.893076 0.821326  -0.248496 -0.043659 0.967649  0.939295 0.817038 1 24 1.000000
0  -0.366310 -0.376551 0.782323  -0.527018 0.169053 0.832871  0.646437 0.798647 1 24 1.000000
pistol.tga
0  -0.424480 -0.361877 0.138854  -0.991416 0.057910 0.117222  0.646383 0.739108 1 24 1.000000
0  -0.327609 0.025085 0.151000  -0.971750 0.102139 0.212768  0.614337 0.741872 1 24 1.000000
0  -0.420943 0.026951 -0.018186  -0.984991 0.029379 0.170084  0.614369 0.724368 1 24 1.000000
pistol.tga
0  -0.366310 -0.376551 0.782323  -0.984029 0.151852 0.092884  0.646437 0.798647 1 24 1.000000
0  -0.268453 0.010982 0.793673  -0.809363 0.020827 0.586939  0.614348 0.801361 1 24 1.000000
0  -0.327609 0.025085 0.151000  -0.971750 0.102139 0.212768  0.614337 0.741872 1 24 1.000000
pistol.tga
0  -0.102467 4.146407 1.058235  -0.215669 -0.029547 0.976019  0.007270 0.899465 1 24 1.000000
0  -0.016460 0.889718 0.975211  -0.080994 -0.505894 0.858785  0.278325 0.899533 1 24 1.000000
0  0.600245 0.906591 0.937953  0.203996 -0.251811 0.946032  0.278344 0.957363 1 24 1.000000
pistol.tga
0  -0.268453 0.010982 0.793673  -0.809363 0.020827 0.586939  0.614348 0.801361 1 24 1.000000
0  -0.366310 -0.376551 0.782323  -0.527018 0.169053 0.832871  0.646437 0.798647 1 24 1.000000
0  -0.095816 -0.168831 0.844328  -0.254123 0.284343 0.924430  0.629463 0.810333 1 24 1.000000
pistol.tga
0  -0.461249 4.192468 -0.236288  -0.999145 -0.011745 -0.039632  0.270305 0.695341 1 24 1.000000
0  -0.420943 0.026951 -0.018186  -0.984991 0.029379 0.170084  0.614369 0.724368 1 24 1.000000
0  -0.460017 4.186798 0.075594  -0.985607 -0.020690 0.167780  0.270118 0.724484 1 24 1.000000
pistol.tga
0  -0.460017 4.186798 0.075594  -0.985607 -0.020690 0.167780  0.270118 0.724484 1 24 1.000000
0  -0.327609 0.025085 0.151000  -0.971750 0.102139 0.212768  0.614337 0.741872 1 24 1.000000
0  -0.459189 4.178994 0.265035  -0.996803 -0.031775 0.073314  0.270367 0.742196 1 24 1.000000
pistol.tga
0  -0.459189 4.178994 0.265035  -0.996803 -0.031775 0.073314  0.270367 0.742196 1 24 1.000000
0  -0.268453 0.010982 0.793673  -0.809363 0.020827 0.586939  0.614348 0.801361 1 24 1.000000
0  -0.377821 4.143268 0.898424  -0.760813 -0.035213 0.648015  0.270439 0.801456 1 24 1.000000
pistol.tga
0  -0.209789 0.813468 0.874634  -0.272230 -0.167308 0.947575  0.547566 0.808754 1 24 1.000000
0  -0.102467 4.146407 1.058235  -0.215669 -0.029547 0.976019  0.270289 0.822429 1 24 1.000000
0  -0.377821 4.143268 0.898424  -0.760813 -0.035213 0.648015  0.270439 0.801456 1 24 1.000000
pistol.tga
0  -0.169972 -0.301357 0.955376  -0.266354 0.430173 0.862558  0.387800 0.882080 1 24 1.000000
0  0.017088 -3.893076 0.821326  -0.248496 -0.043659 0.967649  0.687658 0.891013 1 24 1.000000
0  0.817188 -0.274023 0.897135  0.351274 0.294928 0.888608  0.387800 0.974642 1 24 1.000000
pistol.tga
0  -0.424480 -0.361877 0.138854  -0.991416 0.057910 0.117222  0.646383 0.739108 1 24 1.000000
0  -0.420943 0.026951 -0.018186  -0.984991 0.029379 0.170084  0.614369 0.724368 1 24 1.000000
0  -0.325664 -4.226144 -0.445441  -0.998721 -0.018791 -0.046941  0.968915 0.695361 1 24 1.000000
pistol.tga
0  -0.366310 -0.376551 0.782323  -0.984029 0.151852 0.092884  0.646437 0.798647 1 24 1.000000
0  -0.327609 0.025085 0.151000  -0.971750 0.102139 0.212768  0.614337 0.741872 1 24 1.000000
0  -0.424480 -0.361877 0.138854  -0.991416 0.057910 0.117222  0.646383 0.739108 1 24 1.000000
pistol.tga
0  -0.327609 0.025085 0.151000  -0.971750 0.102139 0.212768  0.614337 0.741872 1 24 1.000000
0  -0.460017 4.186798 0.075594  -0.985607 -0.020690 0.167780  0.270118 0.724484 1 24 1.000000
0  -0.420943 0.026951 -0.018186  -0.984991 0.029379 0.170084  0.614369 0.724368 1 24 1.000000
pistol.tga
0  -0.268453 0.010982 0.793673  -0.809363 0.020827 0.586939  0.614348 0.801361 1 24 1.000000
0  -0.459189 4.178994 0.265035  -0.996803 -0.031775 0.073314  0.270367 0.742196 1 24 1.000000
0  -0.327609 0.025085 0.151000  -0.971750 0.102139 0.212768  0.614337 0.741872 1 24 1.000000
pistol.tga
0  1.054812 -4.055349 -0.067997  0.053254 -0.970294 0.235995  0.758259 0.993379 1 24 1.000000
0  1.089369 -3.917267 0.606349  0.042413 -0.962745 0.267064  0.702071 0.992131 1 24 1.000000
0  -0.273113 -3.954993 0.686734  0.047481 -0.960096 0.275611  0.701104 0.864376 1 24 1.000000
pistol.tga
0  1.089369 -3.917267 0.606349  0.042413 -0.962745 0.267064  0.702071 0.992131 1 24 1.000000
0  0.814023 -3.871010 0.774308  0.045790 -0.941347 0.334318  0.687941 0.965739 1 24 1.000000
0  -0.273113 -3.954993 0.686734  0.047481 -0.960096 0.275611  0.701104 0.864376 1 24 1.000000
pistol.tga
0  -0.424480 -0.361877 0.138854  -0.991416 0.057910 0.117222  0.646383 0.739108 1 24 1.000000
0  -0.325664 -4.226144 -0.445441  -0.998721 -0.018791 -0.046941  0.968915 0.695361 1 24 1.000000
0  -0.326389 -4.115497 0.031870  -0.998553 -0.027413 0.046278  0.958798 0.737923 1 24 1.000000
pistol.tga
0  0.600245 0.906591 0.937953  0.203996 -0.251811 0.946032  0.278344 0.957363 1 24 1.000000
0  0.514760 4.163533 1.020426  0.414385 -0.010935 0.910036  0.007270 0.957347 1 24 1.000000
0  -0.102467 4.146407 1.058235  -0.215669 -0.029547 0.976019  0.007270 0.899465 1 24 1.000000
pistol.tga
0  -0.016460 0.889718 0.975211  -0.080994 -0.505894 0.858785  0.541327 0.822308 1 24 1.000000
0  -0.102467 4.146407 1.058235  -0.215669 -0.029547 0.976019  0.270289 0.822429 1 24 1.000000
0  -0.209789 0.813468 0.874634  -0.272230 -0.167308 0.947575  0.547566 0.808754 1 24 1.000000
pistol.tga
0  -0.377821 4.143268 0.898424  -0.760813 -0.035213 0.648015  0.270439 0.801456 1 24 1.000000
0  -0.268453 0.010982 0.793673  -0.809363 0.020827 0.586939  0.614348 0.801361 1 24 1.000000
0  -0.209789 0.813468 0.874634  -0.272230 -0.167308 0.947575  0.547566 0.808754 1 24 1.000000
pistol.tga
0  -0.366310 -0.376551 0.782323  -0.527018 0.169053 0.832871  0.646437 0.798647 1 24 1.000000
0  -0.169972 -0.301357 0.955376  -0.266354 0.430173 0.862558  0.640150 0.818821 1 24 1.000000
0  -0.095816 -0.168831 0.844328  -0.254123 0.284343 0.924430  0.629463 0.810333 1 24 1.000000
pistol.tga
0  -0.366310 -0.376551 0.782323  -0.527018 0.169053 0.832871  0.646437 0.798647 1 24 1.000000
0  0.017088 -3.893076 0.821326  -0.248496 -0.043659 0.967649  0.939295 0.817038 1 24 1.000000
0  -0.169972 -0.301357 0.955376  -0.266354 0.430173 0.862558  0.640150 0.818821 1 24 1.000000
pistol.tga
0  -0.016460 0.889718 0.975211  -0.080994 -0.505894 0.858785  0.278325 0.899533 1 24 1.000000
0  -0.209789 0.813468 0.874634  -0.272230 -0.167308 0.947575  0.291846 0.881749 1 24 1.000000
0  0.785706 0.841032 0.815902  0.400281 -0.288107 0.869925  0.291846 0.975093 1 24 1.000000
pistol.tga
0  0.600245 0.906591 0.937953  0.203996 -0.251811 0.946032  0.278344 0.957363 1 24 1.000000
0  -0.016460 0.889718 0.975211  -0.080994 -0.505894 0.858785  0.278325 0.899533 1 24 1.000000
0  0.785706 0.841032 0.815902  0.400281 -0.288107 0.869925  0.291846 0.975093 1 24 1.000000
pistol.tga
0  -0.209789 0.813468 0.874634  -0.272230 -0.167308 0.947575  0.291846 0.881749 1 24 1.000000
0  0.723305 -0.146150 0.796001  0.257140 0.310924 0.914989  0.373703 0.966770 1 24 1.000000
0  0.785706 0.841032 0.815902  0.400281 -0.288107 0.869925  0.291846 0.975093 1 24 1.000000
pistol.tga
0  -0.095816 -0.168831 0.844328  -0.254123 0.284343 0.924430  0.629463 0.810333 1 24 1.000000
0  -0.209789 0.813468 0.874634  -0.272230 -0.167308 0.947575  0.547566 0.808754 1 24 1.000000
0  -0.268453 0.010982 0.793673  -0.809363 0.020827 0.586939  0.614348 0.801361 1 24 1.000000
pistol.tga
0  -0.209789 0.813468 0.874634  -0.272230 -0.167308 0.947575  0.291846 0.881749 1 24 1.000000
0  -0.095816 -0.168831 0.844328  -0.254123 0.284343 0.924430  0.373703 0.889964 1 24 1.000000
0  0.723305 -0.146150 0.796001  0.257140 0.310924 0.914989  0.373703 0.966770 1 24 1.000000
pistol.tga
0  0.161697 3.891625 1.031954  -0.997811 -0.028577 0.059643  0.292195 0.826486 1 24 1.000000
0  0.176623 3.321007 1.017399  -0.997769 -0.027649 0.060765  0.339688 0.826484 1 24 1.000000
0  0.192236 3.499480 1.354974  -0.997795 -0.028212 0.060084  0.324172 0.857158 1 24 1.000000
pistol.tga
0  0.192236 3.499480 1.354974  -0.997795 -0.028212 0.060084  0.324172 0.857158 1 24 1.000000
0  0.180626 3.883665 1.349718  -0.997844 -0.029351 0.058706  0.292225 0.855745 1 24 1.000000
0  0.161697 3.891625 1.031954  -0.997811 -0.028577 0.059643  0.292195 0.826486 1 24 1.000000
pistol.tga
0  0.286209 3.324043 1.010934  0.051912 -0.883850 0.464881  0.273006 0.890584 1 24 1.000000
0  0.301823 3.502516 1.348509  0.051912 -0.883850 0.464881  0.212060 0.891726 1 24 1.000000
0  0.192236 3.499480 1.354974  0.051912 -0.883850 0.464881  0.212060 0.871999 1 24 1.000000
pistol.tga
0  0.192236 3.499480 1.354974  0.051912 -0.883849 0.464883  0.212060 0.871999 1 24 1.000000
0  0.176623 3.321007 1.017399  0.051912 -0.883849 0.464883  0.273006 0.870857 1 24 1.000000
0  0.286209 3.324043 1.010934  0.051912 -0.883849 0.464883  0.273006 0.890584 1 24 1.000000
pistol.tga
0  0.301823 3.502516 1.348509  0.058460 0.015423 0.998171  0.212060 0.891726 1 24 1.000000
0  0.289751 3.886687 1.343280  0.058463 0.015423 0.998170  0.150722 0.891477 1 24 1.000000
0  0.180626 3.883665 1.349718  0.058463 0.015423 0.998170  0.150722 0.871833 1 24 1.000000
pistol.tga
0  0.180626 3.883665 1.349718  0.058463 0.015423 0.998170  0.150722 0.871833 1 24 1.000000
0  0.192236 3.499480 1.354974  0.058460 0.015423 0.998171  0.212060 0.871999 1 24 1.000000
0  0.301823 3.502516 1.348509  0.058460 0.015423 0.998171  0.212060 0.891726 1 24 1.000000
pistol.tga
0  0.224030 -2.877724 1.031430  -0.968210 -0.042329 0.246529  0.888120 0.924349 1 24 1.000000
0  0.168576 -2.714806 0.841615  -0.978329 -0.049669 0.201010  0.874794 0.907140 1 24 1.000000
0  0.260419 -3.859461 1.005779  -0.978332 -0.049674 0.200995  0.969855 0.924349 1 24 1.000000
pistol.tga
0  0.226920 -3.856622 0.793742  -0.986266 -0.056897 0.155055  0.970738 0.907140 1 24 1.000000
0  0.260419 -3.859461 1.005779  -0.978332 -0.049674 0.200995  0.969855 0.924349 1 24 1.000000
0  0.168576 -2.714806 0.841615  -0.978329 -0.049669 0.201010  0.874794 0.907140 1 24 1.000000
pistol.tga
0  0.260419 -3.859461 1.005779  0.027416 -0.999467 -0.017719  0.969325 0.949513 1 24 1.000000
0  0.226920 -3.856622 0.793742  0.027157 -0.999483 -0.017220  0.980110 0.947561 1 24 1.000000
0  0.596231 -3.849905 0.986331  0.026944 -0.999496 -0.016809  0.969303 0.981001 1 24 1.000000
pistol.tga
0  0.594969 -3.846431 0.772028  0.026710 -0.999509 -0.016358  0.980110 0.982073 1 24 1.000000
0  0.596231 -3.849905 0.986331  0.026944 -0.999496 -0.016809  0.969303 0.981001 1 24 1.000000
0  0.226920 -3.856622 0.793742  0.027157 -0.999483 -0.017220  0.980110 0.947561 1 24 1.000000
pistol.tga
0  0.224030 -2.877724 1.031430  0.034245 0.546387 0.836833  0.887591 0.948512 1 24 1.000000
0  0.260419 -3.859461 1.005779  0.058699 -0.023605 0.997997  0.969325 0.949513 1 24 1.000000
0  0.571632 -2.868099 1.010922  0.049278 0.260380 0.964248  0.887591 0.981107 1 24 1.000000
pistol.tga
0  0.596231 -3.849905 0.986331  0.058468 -0.023532 0.998012  0.969303 0.981001 1 24 1.000000
0  0.571632 -2.868099 1.010922  0.049278 0.260380 0.964248  0.887591 0.981107 1 24 1.000000
0  0.260419 -3.859461 1.005779  0.058699 -0.023605 0.997997  0.969325 0.949513 1 24 1.000000
pistol.tga
0  0.052450 -3.901727 0.910980  0.026168 -0.999333 -0.025464  0.971049 0.827200 1 24 1.000000
0  0.792274 -3.881242 0.867332  0.026168 -0.999333 -0.025463  0.971049 0.896573 1 24 1.000000
0  0.810940 -3.888274 1.162497  0.026168 -0.999333 -0.025463  0.946346 0.896672 1 24 1.000000
pistol.tga
0  0.810940 -3.888274 1.162497  0.026168 -0.999333 -0.025463  0.946346 0.896672 1 24 1.000000
0  0.069420 -3.908806 1.206246  0.026168 -0.999333 -0.025464  0.946346 0.827140 1 24 1.000000
0  0.052450 -3.901727 0.910980  0.026168 -0.999333 -0.025464  0.971049 0.827200 1 24 1.000000
pistol.tga
0  0.051273 -3.856767 0.912126  -0.059538 0.023879 -0.997940  0.918038 0.827200 1 24 1.000000
0  0.791097 -3.836282 0.868478  -0.059537 0.023879 -0.997940  0.918038 0.896573 1 24 1.000000
0  0.792274 -3.881242 0.867332  -0.059537 0.023879 -0.997940  0.913106 0.896573 1 24 1.000000
pistol.tga
0  0.792274 -3.881242 0.867332  -0.059537 0.023879 -0.997940  0.913106 0.896573 1 24 1.000000
0  0.052450 -3.901727 0.910980  -0.059538 0.023879 -0.997940  0.913106 0.827200 1 24 1.000000
0  0.051273 -3.856767 0.912126  -0.059538 0.023879 -0.997940  0.918038 0.827200 1 24 1.000000
pistol.tga
0  0.809762 -3.843314 1.163643  0.059539 -0.023875 0.997940  0.942574 0.896672 1 24 1.000000
0  0.068242 -3.863846 1.207391  0.059536 -0.023855 0.997941  0.942574 0.827140 1 24 1.000000
0  0.069420 -3.908806 1.206246  0.059536 -0.023855 0.997941  0.946346 0.827140 1 24 1.000000
pistol.tga
0  0.069420 -3.908806 1.206246  0.059536 -0.023855 0.997941  0.946346 0.827140 1 24 1.000000
0  0.810940 -3.888274 1.162497  0.059539 -0.023876 0.997940  0.946346 0.896672 1 24 1.000000
0  0.809762 -3.843314 1.163643  0.059539 -0.023875 0.997940  0.942574 0.896672 1 24 1.000000
pistol.tga
0  0.068242 -3.863846 1.207391  -0.998010 -0.027591 0.056697  0.895006 0.878645 1 24 1.000000
0  0.051273 -3.856767 0.912126  -0.998011 -0.027572 0.056696  0.895006 0.850964 1 24 1.000000
0  0.052450 -3.901727 0.910980  -0.998011 -0.027574 0.056696  0.898748 0.850964 1 24 1.000000
pistol.tga
0  0.052450 -3.901727 0.910980  -0.998011 -0.027574 0.056696  0.898748 0.850964 1 24 1.000000
0  0.069420 -3.908806 1.206246  -0.998010 -0.027593 0.056697  0.898748 0.878645 1 24 1.000000
0  0.068242 -3.863846 1.207391  -0.998010 -0.027591 0.056697  0.895006 0.878645 1 24 1.000000
pistol.tga
0  0.723305 -0.146150 0.796001  0.257140 0.310924 0.914989  0.373703 0.966770 1 24 1.000000
0  -0.095816 -0.168831 0.844328  -0.254123 0.284343 0.924430  0.373703 0.889964 1 24 1.000000
0  -0.169972 -0.301357 0.955376  -0.266354 0.430173 0.862558  0.387800 0.882080 1 24 1.000000
pistol.tga
0  -0.169972 -0.301357 0.955376  -0.266354 0.430173 0.862558  0.387800 0.882080 1 24 1.000000
0  0.817188 -0.274023 0.897135  0.351274 0.294928 0.888608  0.387800 0.974642 1 24 1.000000
0  0.723305 -0.146150 0.796001  0.257140 0.310924 0.914989  0.373703 0.966770 1 24 1.000000
pistol.tga
0  0.289751 3.886687 1.343280  -0.026108 0.999305 0.026590  0.150722 0.891477 1 24 1.000000
0  0.271283 3.894660 1.025489  -0.026108 0.999305 0.026590  0.114791 0.890586 1 24 1.000000
0  0.161697 3.891625 1.031954  -0.026108 0.999305 0.026590  0.114791 0.870860 1 24 1.000000
pistol.tga
0  0.289751 3.886687 1.343280  -0.026105 0.999306 0.026585  0.150722 0.891477 1 24 1.000000
0  0.161697 3.891625 1.031954  -0.026105 0.999306 0.026585  0.114791 0.870860 1 24 1.000000
0  0.180626 3.883665 1.349718  -0.026105 0.999306 0.026585  0.150722 0.871833 1 24 1.000000
pistol.tga
0  -0.325664 -4.226144 -0.445441  0.023583 -0.973889 0.225797  0.797966 0.865927 1 24 1.000000
0  -0.172663 -4.224679 -0.455103  0.017160 -0.985733 0.167439  0.798157 0.878427 1 24 1.000000
0  -0.326389 -4.115497 0.031870  0.069190 -0.950614 0.302566  0.757264 0.862061 1 24 1.000000
pistol.tga
0  0.595281 -2.702991 0.816441  0.017172 0.761185 0.648308  0.867080 0.984813 1 24 1.000000
0  0.168576 -2.714806 0.841615  0.017171 0.761185 0.648307  0.867080 0.944801 1 24 1.000000
0  0.224030 -2.877724 1.031430  0.034245 0.546387 0.836833  0.887591 0.948512 1 24 1.000000
pistol.tga
0  0.595281 -2.702991 0.816441  0.017172 0.761185 0.648308  0.867080 0.984813 1 24 1.000000
0  0.224030 -2.877724 1.031430  0.034245 0.546387 0.836833  0.887591 0.948512 1 24 1.000000
0  0.571632 -2.868099 1.010922  0.049278 0.260380 0.964248  0.887591 0.981107 1 24 1.000000
pistol.tga
0  -0.542926 5.715394 0.790424  -0.945501 -0.033054 0.323938  0.002739 0.823244 1 24 1.000000
0  -0.501632 4.142663 0.750345  -0.977544 -0.030933 0.208447  0.133637 0.823244 1 24 1.000000
0  -0.331004 4.138099 1.104733  -0.900620 -0.034677 0.433222  0.133638 0.857665 1 24 1.000000
pistol.tga
0  0.724289 4.167319 1.042499  0.059513 -0.023869 0.997942  0.426398 0.510869 1 24 1.000000
0  0.684662 5.680605 1.081058  0.059513 -0.023870 0.997942  0.293873 0.510869 1 24 1.000000
0  -0.370631 5.651387 1.143292  0.059513 -0.023869 0.997942  0.293872 0.406967 1 24 1.000000
pistol.tga
0  -0.331004 4.138099 1.104733  -0.900620 -0.034677 0.433222  0.133638 0.857665 1 24 1.000000
0  -0.370631 5.651387 1.143292  -0.900527 -0.034625 0.433420  0.007687 0.857666 1 24 1.000000
0  -0.542926 5.715394 0.790424  -0.945501 -0.033054 0.323938  0.002739 0.823244 1 24 1.000000
pistol.tga
0  -0.370631 5.651387 1.143292  0.059513 -0.023869 0.997942  0.293872 0.406967 1 24 1.000000
0  -0.331004 4.138099 1.104733  0.059513 -0.023869 0.997942  0.426398 0.406967 1 24 1.000000
0  0.724289 4.167319 1.042499  0.059513 -0.023869 0.997942  0.426398 0.510869 1 24 1.000000
pistol.tga
0  0.600676 5.304862 -1.036306  -0.065032 0.415797 -0.907129  0.099450 0.512384 1 24 1.000000
0  0.629142 4.217860 -1.063977  -0.059537 0.023845 -0.997941  0.004954 0.512384 1 24 1.000000
0  -0.514670 5.273981 -0.970502  -0.065030 0.415777 -0.907139  0.099948 0.402569 1 24 1.000000
pistol.tga
0  -0.501632 4.142663 0.750345  -0.977544 -0.030933 0.208447  0.133637 0.823244 1 24 1.000000
0  -0.542926 5.715394 0.790424  -0.945501 -0.033054 0.323938  0.002739 0.823244 1 24 1.000000
0  -0.615136 5.666195 -0.009614  -0.997773 -0.027696 0.060680  0.008365 0.748236 1 24 1.000000
pistol.tga
0  0.852330 4.180150 0.670463  0.026168 -0.999333 -0.025465  0.252342 0.825491 1 24 1.000000
0  -0.501632 4.142663 0.750345  0.026166 -0.999333 -0.025467  0.139488 0.825491 1 24 1.000000
0  -0.575723 4.161066 -0.047968  0.026166 -0.999333 -0.025465  0.137290 0.750492 1 24 1.000000
pistol.tga
0  0.852330 4.180150 0.670463  0.026168 -0.999333 -0.025465  0.252342 0.825491 1 24 1.000000
0  -0.575723 4.161066 -0.047968  0.026166 -0.999333 -0.025465  0.137290 0.750492 1 24 1.000000
0  -0.575167 4.179163 -0.757591  0.025760 -0.999367 -0.024549  0.140853 0.684191 1 24 1.000000
pistol.tga
0  0.746051 4.215745 -0.835541  0.026529 -0.999354 -0.024226  0.250978 0.684191 1 24 1.000000
0  0.830979 4.200016 -0.130959  0.026049 -0.999352 -0.024830  0.254540 0.750492 1 24 1.000000
0  -0.486205 4.186976 -0.998174  0.026064 -0.999377 -0.023809  0.149433 0.662204 1 24 1.000000
pistol.tga
0  0.830979 4.200016 -0.130959  0.026049 -0.999352 -0.024830  0.254540 0.750492 1 24 1.000000
0  -0.575167 4.179163 -0.757591  0.025760 -0.999367 -0.024549  0.140853 0.684191 1 24 1.000000
0  -0.486205 4.186976 -0.998174  0.026064 -0.999377 -0.023809  0.149433 0.662204 1 24 1.000000
pistol.tga
0  -0.514670 5.273981 -0.970502  -0.937659 -0.015708 -0.347202  0.043220 0.660403 1 24 1.000000
0  -0.486205 4.186976 -0.998174  -0.937648 -0.015714 -0.347231  0.133691 0.660405 1 24 1.000000
0  -0.575167 4.179163 -0.757591  -0.971759 -0.019456 -0.235173  0.133637 0.682101 1 24 1.000000
pistol.tga
0  -0.575167 4.179163 -0.757591  -0.971759 -0.019456 -0.235173  0.133637 0.682101 1 24 1.000000
0  -0.575723 4.161066 -0.047968  -0.999198 -0.026915 0.029631  0.133637 0.748235 1 24 1.000000
0  -0.609466 5.488984 -0.724219  -0.992709 -0.022980 -0.118322  0.024621 0.682101 1 24 1.000000
pistol.tga
0  -0.486205 4.186976 -0.998174  -0.059537 0.023846 -0.997941  0.004954 0.402569 1 24 1.000000
0  -0.514670 5.273981 -0.970502  -0.065030 0.415777 -0.907139  0.099948 0.402569 1 24 1.000000
0  0.629142 4.217860 -1.063977  -0.059537 0.023845 -0.997941  0.004954 0.512384 1 24 1.000000
pistol.tga
0  -0.615136 5.666195 -0.009614  -0.997773 -0.027696 0.060680  0.008365 0.748236 1 24 1.000000
0  -0.575723 4.161066 -0.047968  -0.999198 -0.026915 0.029631  0.133637 0.748235 1 24 1.000000
0  -0.501632 4.142663 0.750345  -0.977544 -0.030933 0.208447  0.133637 0.823244 1 24 1.000000
pistol.tga
0  -0.575167 4.179163 -0.757591  0.025760 -0.999367 -0.024549  0.140853 0.684191 1 24 1.000000
0  0.830979 4.200016 -0.130959  0.026049 -0.999352 -0.024830  0.254540 0.750492 1 24 1.000000
0  0.852330 4.180150 0.670463  0.026168 -0.999333 -0.025465  0.252342 0.825491 1 24 1.000000
pistol.tga
0  -0.486205 4.186976 -0.998174  0.026064 -0.999377 -0.023809  0.149433 0.662204 1 24 1.000000
0  0.629142 4.217860 -1.063977  0.026332 -0.999395 -0.022730  0.242398 0.662204 1 24 1.000000
0  0.746051 4.215745 -0.835541  0.026529 -0.999354 -0.024226  0.250978 0.684191 1 24 1.000000
pistol.tga
0  -0.514670 5.273981 -0.970502  -0.937659 -0.015708 -0.347202  0.043220 0.660403 1 24 1.000000
0  -0.575167 4.179163 -0.757591  -0.971759 -0.019456 -0.235173  0.133637 0.682101 1 24 1.000000
0  -0.609466 5.488984 -0.724219  -0.992709 -0.022980 -0.118322  0.024621 0.682101 1 24 1.000000
pistol.tga
0  -0.575723 4.161066 -0.047968  -0.999198 -0.026915 0.029631  0.133637 0.748235 1 24 1.000000
0  -0.615136 5.666195 -0.009614  -0.997773 -0.027696 0.060680  0.008365 0.748236 1 24 1.000000
0  -0.609466 5.488984 -0.724219  -0.992709 -0.022980 -0.118322  0.024621 0.682101 1 24 1.000000
pistol.tga
0  -0.331004 4.138099 1.104733  0.026166 -0.999333 -0.025467  0.151904 0.859544 1 24 1.000000
0  -0.501632 4.142663 0.750345  0.026166 -0.999333 -0.025467  0.139488 0.825491 1 24 1.000000
0  0.852330 4.180150 0.670463  0.026168 -0.999333 -0.025465  0.252342 0.825491 1 24 1.000000
pistol.tga
0  0.724289 4.167319 1.042499  0.026169 -0.999333 -0.025459  0.239864 0.859546 1 24 1.000000
0  -0.331004 4.138099 1.104733  0.026166 -0.999333 -0.025467  0.151904 0.859544 1 24 1.000000
0  0.852330 4.180150 0.670463  0.026168 -0.999333 -0.025465  0.252342 0.825491 1 24 1.000000
pistol.tga
0  0.711752 5.525566 -0.802169  -0.052091 0.881552 -0.469204  0.127449 0.523258 1 24 1.000000
0  -0.609466 5.488984 -0.724219  -0.052092 0.881542 -0.469222  0.127449 0.393173 1 24 1.000000
0  -0.615136 5.666195 -0.009614  -0.036225 0.987971 -0.150337  0.192213 0.389704 1 24 1.000000
pistol.tga
0  0.711752 5.525566 -0.802169  -0.052091 0.881552 -0.469204  0.127449 0.523258 1 24 1.000000
0  -0.615136 5.666195 -0.009614  -0.036225 0.987971 -0.150337  0.192213 0.389704 1 24 1.000000
0  0.791566 5.705143 -0.092608  -0.036222 0.987978 -0.150292  0.192213 0.528205 1 24 1.000000
pistol.tga
0  0.711752 5.525566 -0.802169  -0.052091 0.881552 -0.469204  0.127449 0.523258 1 24 1.000000
0  0.600676 5.304862 -1.036306  -0.065032 0.415797 -0.907129  0.099450 0.512384 1 24 1.000000
0  -0.514670 5.273981 -0.970502  -0.065030 0.415777 -0.907139  0.099948 0.402569 1 24 1.000000
pistol.tga
0  0.711752 5.525566 -0.802169  -0.052091 0.881552 -0.469204  0.127449 0.523258 1 24 1.000000
0  -0.514670 5.273981 -0.970502  -0.065030 0.415777 -0.907139  0.099948 0.402569 1 24 1.000000
0  -0.609466 5.488984 -0.724219  -0.052092 0.881542 -0.469222  0.127449 0.393173 1 24 1.000000
pistol.tga
0  0.811257 5.752890 0.710530  -0.026306 0.999386 0.023155  0.262456 0.525620 1 24 1.000000
0  0.791566 5.705143 -0.092608  -0.036222 0.987978 -0.150292  0.192213 0.528205 1 24 1.000000
0  -0.615136 5.666195 -0.009614  -0.036225 0.987971 -0.150337  0.192213 0.389704 1 24 1.000000
pistol.tga
0  0.811257 5.752890 0.710530  -0.026306 0.999386 0.023155  0.262456 0.525620 1 24 1.000000
0  -0.615136 5.666195 -0.009614  -0.036225 0.987971 -0.150337  0.192213 0.389704 1 24 1.000000
0  -0.542926 5.715394 0.790424  -0.021319 0.994219 0.105232  0.262456 0.392289 1 24 1.000000
pistol.tga
0  0.684662 5.680605 1.081058  -0.016222 0.982394 0.186113  0.293873 0.510869 1 24 1.000000
0  0.811257 5.752890 0.710530  -0.026306 0.999386 0.023155  0.262456 0.525620 1 24 1.000000
0  -0.542926 5.715394 0.790424  -0.021319 0.994219 0.105232  0.262456 0.392289 1 24 1.000000
pistol.tga
0  0.684662 5.680605 1.081058  -0.016222 0.982394 0.186113  0.293873 0.510869 1 24 1.000000
0  -0.542926 5.715394 0.790424  -0.021319 0.994219 0.105232  0.262456 0.392289 1 24 1.000000
0  -0.370631 5.651387 1.143292  -0.016223 0.982394 0.186117  0.293872 0.406967 1 24 1.000000
pistol.tga
0  -0.420943 0.026951 -0.018186  -0.984991 0.029379 0.170084  0.614369 0.724368 1 24 1.000000
0  -0.461249 4.192468 -0.236288  -0.999145 -0.011744 -0.039647  0.270305 0.695341 1 24 1.000000
0  -0.325664 -4.226144 -0.445441  -0.998721 -0.018791 -0.046941  0.968915 0.695361 1 24 1.000000
pistol.tga
0  0.791097 -3.836282 0.868478  -0.026168 0.999333 0.025465  0.918038 0.896573 1 24 1.000000
0  0.051273 -3.856767 0.912126  -0.026168 0.999333 0.025462  0.918038 0.827200 1 24 1.000000
0  0.809762 -3.843314 1.163643  -0.026168 0.999333 0.025464  0.942574 0.896672 1 24 1.000000
pistol.tga
0  0.068242 -3.863846 1.207391  -0.026169 0.999333 0.025461  0.942574 0.827140 1 24 1.000000
0  0.809762 -3.843314 1.163643  -0.026168 0.999333 0.025464  0.942574 0.896672 1 24 1.000000
0  0.051273 -3.856767 0.912126  -0.026168 0.999333 0.025462  0.918038 0.827200 1 24 1.000000
pistol.tga
0  -0.445528 -3.587479 -3.418591  -0.936303 -0.321407 0.141543  0.926115 0.314446 1 24 1.000000
0  -0.505494 -1.980119 -3.680640  -0.949794 0.312857 0.003449  0.775644 0.282506 1 24 1.000000
0  -0.605568 -1.879609 -5.224036  -0.942777 0.320582 0.091647  0.769713 0.119207 1 24 1.000000
pistol.tga
0  -0.221391 -3.938831 -3.386282  -0.471039 -0.857129 0.208452  0.959430 0.319011 1 24 1.000000
0  -0.445528 -3.587479 -3.418591  -0.936303 -0.321407 0.141543  0.926115 0.314446 1 24 1.000000
0  -0.572130 -3.805620 -5.222865  -0.926182 -0.360546 0.110422  0.948380 0.127540 1 24 1.000000
pistol.tga
0  -0.505494 -1.980119 -3.680640  -0.949794 0.312857 0.003449  0.775644 0.282506 1 24 1.000000
0  -0.279924 -1.018723 -0.405464  -0.986254 0.164802 0.011993  0.677907 0.625970 1 24 1.000000
0  -0.138376 -1.070229 -1.919381  -0.840768 0.523190 -0.139213  0.686603 0.466432 1 24 1.000000
pistol.tga
0  -0.221391 -3.938831 -3.386282  -0.471039 -0.857129 0.208452  0.644739 0.111397 1 24 1.000000
0  -0.312129 -4.184759 -4.983290  -0.481181 -0.861897 0.159995  0.543509 0.115598 1 24 1.000000
0  0.463399 -4.176459 -5.029361  0.019483 -0.988333 0.151056  0.543509 0.039196 1 24 1.000000
pistol.tga
0  0.542958 -3.930838 -3.431693  0.021670 -0.969820 0.242857  0.683298 0.039977 1 24 1.000000
0  0.020000 -3.284043 -1.240454  -0.396449 -0.869639 0.294204  0.881339 0.102111 1 24 1.000000
0  -0.221391 -3.938831 -3.386282  -0.471039 -0.857129 0.208452  0.644739 0.111397 1 24 1.000000
pistol.tga
0  -0.172663 -4.224679 -0.455103  0.017160 -0.985733 0.167439  0.798157 0.878427 1 24 1.000000
0  0.038462 -4.280574 -0.998086  0.009874 -0.994296 0.106193  0.842794 0.901167 1 24 1.000000
0  0.584757 -4.278625 -1.030633  0.011918 -0.993987 0.108852  0.843177 0.951747 1 24 1.000000
pistol.tga
0  0.473635 -1.053282 -1.955489  0.679090 0.682326 -0.270680  0.014458 0.047362 1 24 1.000000
0  -0.202339 -1.628621 -3.741257  -0.379337 0.923050 -0.063890  0.175320 0.104979 1 24 1.000000
0  -0.138376 -1.070229 -1.919381  -0.840768 0.523190 -0.139213  0.014436 0.107754 1 24 1.000000
pistol.tga
0  0.322162 -1.514468 -5.278587  0.281464 0.957414 0.064320  0.308008 0.044424 1 24 1.000000
0  -0.202339 -1.628621 -3.741257  -0.379337 0.923050 -0.063890  0.175320 0.104979 1 24 1.000000
0  0.356270 -1.626325 -3.774529  0.472908 0.875585 -0.098532  0.175320 0.050138 1 24 1.000000
pistol.tga
0  -0.138376 -1.070229 -1.919381  -0.840768 0.523190 -0.139213  0.686603 0.466432 1 24 1.000000
0  -0.202339 -1.628621 -3.741257  -0.379337 0.923050 -0.063890  0.743294 0.275500 1 24 1.000000
0  -0.505494 -1.980119 -3.680640  -0.949794 0.312857 0.003449  0.775644 0.282506 1 24 1.000000
pistol.tga
0  -0.324874 -2.911921 -1.056505  -0.967292 -0.231777 -0.103076  0.857226 0.562158 1 24 1.000000
0  -0.445528 -3.587479 -3.418591  -0.936303 -0.321407 0.141543  0.926115 0.314446 1 24 1.000000
0  0.020000 -3.284043 -1.240454  -0.396449 -0.869639 0.294204  0.893218 0.544073 1 24 1.000000
pistol.tga
0  -0.572130 -3.805620 -5.222865  -0.926182 -0.360546 0.110422  0.948380 0.127540 1 24 1.000000
0  -0.312129 -4.184759 -4.983290  -0.481181 -0.861897 0.159995  0.986187 0.150970 1 24 1.000000
0  -0.221391 -3.938831 -3.386282  -0.471039 -0.857129 0.208452  0.959430 0.319011 1 24 1.000000
pistol.tga
0  -0.445528 -3.587479 -3.418591  -0.936303 -0.321407 0.141543  0.926115 0.314446 1 24 1.000000
0  -0.221391 -3.938831 -3.386282  -0.471039 -0.857129 0.208452  0.959430 0.319011 1 24 1.000000
0  0.020000 -3.284043 -1.240454  -0.396449 -0.869639 0.294204  0.893218 0.544073 1 24 1.000000
pistol.tga
0  0.463399 -4.176459 -5.029361  0.019483 -0.988333 0.151056  0.543509 0.039196 1 24 1.000000
0  0.542958 -3.930838 -3.431693  0.021670 -0.969820 0.242857  0.683298 0.039977 1 24 1.000000
0  -0.221391 -3.938831 -3.386282  -0.471039 -0.857129 0.208452  0.644739 0.111397 1 24 1.000000
pistol.tga
0  0.542958 -3.930838 -3.431693  0.021670 -0.969820 0.242857  0.683298 0.039977 1 24 1.000000
0  0.519631 -3.283383 -1.270246  0.018384 -0.957729 0.287084  0.881339 0.053132 1 24 1.000000
0  0.020000 -3.284043 -1.240454  -0.396449 -0.869639 0.294204  0.881339 0.102111 1 24 1.000000
pistol.tga
0  0.584757 -4.278625 -1.030633  0.011918 -0.993987 0.108852  0.843177 0.951747 1 24 1.000000
0  0.881462 -4.217371 -0.522190  0.072251 -0.951854 0.297915  0.799668 0.977268 1 24 1.000000
0  -0.172663 -4.224679 -0.455103  0.017160 -0.985733 0.167439  0.798157 0.878427 1 24 1.000000
pistol.tga
0  0.473635 -1.053282 -1.955489  0.679090 0.682326 -0.270680  0.014458 0.047362 1 24 1.000000
0  0.356270 -1.626325 -3.774529  0.472908 0.875585 -0.098532  0.175320 0.050138 1 24 1.000000
0  -0.202339 -1.628621 -3.741257  -0.379337 0.923050 -0.063890  0.175320 0.104979 1 24 1.000000
pistol.tga
0  -0.202339 -1.628621 -3.741257  -0.379337 0.923050 -0.063890  0.175320 0.104979 1 24 1.000000
0  0.322162 -1.514468 -5.278587  0.281464 0.957414 0.064320  0.308008 0.044424 1 24 1.000000
0  -0.342719 -1.519704 -5.239046  -0.448942 0.887181 0.106591  0.308008 0.109828 1 24 1.000000
pistol.tga
0  -0.505494 -1.980119 -3.680640  -0.949794 0.312857 0.003449  0.775644 0.282506 1 24 1.000000
0  -0.324874 -2.911921 -1.056505  -0.967292 -0.231777 -0.103076  0.857226 0.562158 1 24 1.000000
0  -0.279924 -1.018723 -0.405464  -0.986254 0.164802 0.011993  0.677907 0.625970 1 24 1.000000
pistol.tga
0  -0.445528 -3.587479 -3.418591  -0.936303 -0.321407 0.141543  0.926115 0.314446 1 24 1.000000
0  -0.324874 -2.911921 -1.056505  -0.967292 -0.231777 -0.103076  0.857226 0.562158 1 24 1.000000
0  -0.505494 -1.980119 -3.680640  -0.949794 0.312857 0.003449  0.775644 0.282506 1 24 1.000000
pistol.tga
0  -0.279924 -1.018723 -0.405464  -0.986254 0.164802 0.011993  0.677907 0.625970 1 24 1.000000
0  -0.324874 -2.911921 -1.056505  -0.967292 -0.231777 -0.103076  0.857226 0.562158 1 24 1.000000
0  -0.172663 -4.224679 -0.455103  -0.985135 -0.151399 -0.081164  0.978139 0.629281 1 24 1.000000
pistol.tga
0  -0.324874 -2.911921 -1.056505  -0.967292 -0.231777 -0.103076  0.857226 0.562158 1 24 1.000000
0  0.020000 -3.284043 -1.240454  -0.254646 -0.233505 -0.938419  0.893218 0.544073 1 24 1.000000
0  0.038462 -4.280574 -0.998086  -0.589630 -0.256365 -0.765907  0.986284 0.572290 1 24 1.000000
pistol.tga
0  0.038462 -4.280574 -0.998086  -0.589630 -0.256365 -0.765907  0.986284 0.572290 1 24 1.000000
0  -0.172663 -4.224679 -0.455103  -0.985135 -0.151399 -0.081164  0.978139 0.629281 1 24 1.000000
0  -0.324874 -2.911921 -1.056505  -0.967292 -0.231777 -0.103076  0.857226 0.562158 1 24 1.000000
pistol.tga
0  0.519631 -3.283383 -1.270246  0.253917 -0.210659 -0.944007  0.881339 0.053132 1 24 1.000000
0  0.584757 -4.278625 -1.030633  0.357751 -0.234196 -0.903973  0.970961 0.050813 1 24 1.000000
0  0.020000 -3.284043 -1.240454  -0.254646 -0.233505 -0.938419  0.881339 0.102111 1 24 1.000000
pistol.tga
0  0.584757 -4.278625 -1.030633  0.357751 -0.234196 -0.903973  0.970961 0.050813 1 24 1.000000
0  0.038462 -4.280574 -0.998086  -0.589630 -0.256365 -0.765907  0.970960 0.104430 1 24 1.000000
0  0.020000 -3.284043 -1.240454  -0.254646 -0.233505 -0.938419  0.881339 0.102111 1 24 1.000000
pistol.tga
0  -0.605568 -1.879609 -5.224036  -0.942777 0.320582 0.091647  0.769713 0.119207 1 24 1.000000
0  -0.572130 -3.805620 -5.222865  -0.926182 -0.360546 0.110422  0.948380 0.127540 1 24 1.000000
0  -0.445528 -3.587479 -3.418591  -0.936303 -0.321407 0.141543  0.926115 0.314446 1 24 1.000000
pistol.tga
0  -0.202339 -1.628621 -3.741257  -0.379337 0.923050 -0.063890  0.743294 0.275500 1 24 1.000000
0  -0.342719 -1.519704 -5.239046  -0.448942 0.887181 0.106591  0.740311 0.136989 1 24 1.000000
0  -0.605568 -1.879609 -5.224036  -0.942777 0.320582 0.091647  0.769713 0.119207 1 24 1.000000
pistol.tga
0  -0.202339 -1.628621 -3.741257  -0.379337 0.923050 -0.063890  0.743294 0.275500 1 24 1.000000
0  -0.605568 -1.879609 -5.224036  -0.942777 0.320582 0.091647  0.769713 0.119207 1 24 1.000000
0  -0.505494 -1.980119 -3.680640  -0.949794 0.312857 0.003449  0.775644 0.282506 1 24 1.000000
pistol.tga
0  -0.572130 -3.805620 -5.222865  -0.031367 -0.360832 -0.932103  0.506825 0.138637 1 24 1.000000
0  0.675246 -3.760425 -5.266395  -0.036322 -0.174428 -0.984000  0.506825 0.015703 1 24 1.000000
0  0.463399 -4.176459 -5.029361  -0.028063 -0.522901 -0.851931  0.543509 0.039196 1 24 1.000000
pistol.tga
0  -0.572130 -3.805620 -5.222865  -0.031367 -0.360832 -0.932103  0.506825 0.138637 1 24 1.000000
0  0.463399 -4.176459 -5.029361  -0.028063 -0.522901 -0.851931  0.543509 0.039196 1 24 1.000000
0  -0.312129 -4.184759 -4.983290  -0.043419 -0.554788 -0.830858  0.543509 0.115598 1 24 1.000000
pistol.tga
0  0.675246 -3.760425 -5.266395  -0.036322 -0.174428 -0.984000  0.506825 0.015703 1 24 1.000000
0  -0.572130 -3.805620 -5.222865  -0.031367 -0.360832 -0.932103  0.506825 0.138637 1 24 1.000000
0  -0.605568 -1.879609 -5.224036  -0.052887 -0.004045 -0.998592  0.339219 0.136918 1 24 1.000000
pistol.tga
0  0.675246 -3.760425 -5.266395  -0.036322 -0.174428 -0.984000  0.506825 0.015703 1 24 1.000000
0  -0.605568 -1.879609 -5.224036  -0.052887 -0.004045 -0.998592  0.339219 0.136918 1 24 1.000000
0  0.593219 -1.846415 -5.294764  -0.058663 -0.008374 -0.998243  0.339219 0.017423 1 24 1.000000
pistol.tga
0  -0.605568 -1.879609 -5.224036  -0.052887 -0.004045 -0.998592  0.339219 0.136918 1 24 1.000000
0  -0.342719 -1.519704 -5.239046  -0.059379 0.001735 -0.998234  0.308008 0.109828 1 24 1.000000
0  0.322162 -1.514468 -5.278587  -0.058988 0.000738 -0.998258  0.308008 0.044424 1 24 1.000000
pistol.tga
0  -0.605568 -1.879609 -5.224036  -0.052887 -0.004045 -0.998592  0.339219 0.136918 1 24 1.000000
0  0.322162 -1.514468 -5.278587  -0.058988 0.000738 -0.998258  0.308008 0.044424 1 24 1.000000
0  0.593219 -1.846415 -5.294764  -0.058663 -0.008374 -0.998243  0.339219 0.017423 1 24 1.000000
pistol.tga
0  0.794272 -1.002153 -0.469155  -0.011959 0.998245 0.058004  0.507306 0.368035 1 24 1.000000
0  0.479481 -0.927354 -1.821342  -0.007008 0.998134 0.060652  0.387956 0.345649 1 24 1.000000
0  -0.279924 -1.018723 -0.405464  -0.007140 0.998138 0.060582  0.507482 0.262047 1 24 1.000000
pistol.tga
0  0.881462 -4.217371 -0.522190  0.072251 -0.951854 0.297915  0.799655 0.977235 1 24 1.000000
0  1.023400 -4.188788 -0.525033  0.120780 -0.903316 0.411622  0.798896 0.988740 1 24 1.000000
0  -0.326389 -4.115497 0.031870  0.069190 -0.950614 0.302566  0.757264 0.862061 1 24 1.000000
pistol.tga
0  -0.172663 -4.224679 -0.455103  0.017160 -0.985733 0.167439  0.798159 0.878551 1 24 1.000000
0  0.881462 -4.217371 -0.522190  0.072251 -0.951854 0.297915  0.799655 0.977235 1 24 1.000000
0  -0.326389 -4.115497 0.031870  0.069190 -0.950614 0.302566  0.757264 0.862061 1 24 1.000000
pistol.tga
0  0.323476 -4.557872 0.477899  -0.996932 0.036156 0.069418  0.608091 0.665321 1 24 1.000000
0  0.304008 -4.475519 0.186581  -0.997867 -0.005899 0.065017  0.600002 0.629852 1 24 1.000000
0  0.284213 -4.831108 0.203228  -0.994893 0.067693 0.074875  0.638028 0.632739 1 24 1.000000
pistol.tga
0  0.300440 -4.821082 0.436450  0.062563 -0.160592 0.985036  0.815988 0.652195 1 24 1.000000
0  0.502842 -4.552905 0.467316  0.064276 -0.280884 0.957587  0.792111 0.680752 1 24 1.000000
0  0.323476 -4.557872 0.477899  0.064277 -0.280898 0.957583  0.792111 0.655692 1 24 1.000000
pistol.tga
0  0.323077 -4.368454 0.560040  -0.997883 -0.027631 0.058874  0.578597 0.670622 1 24 1.000000
0  0.282381 -3.793628 0.140035  -0.997883 -0.027630 0.058874  0.526954 0.622125 1 24 1.000000
0  0.304008 -4.475519 0.186581  -0.997867 -0.005899 0.065017  0.600002 0.629852 1 24 1.000000
pistol.tga
0  0.483374 -4.470553 0.175999  -0.044073 -0.258829 -0.964917  0.901403 0.680752 1 24 1.000000
0  0.270642 -3.905598 -0.111482  -0.028446 -0.461821 -0.886517  0.975095 0.655692 1 24 1.000000
0  0.449805 -3.892606 -0.121735  -0.017580 -0.458697 -0.888419  0.975361 0.680752 1 24 1.000000
pistol.tga
0  0.282381 -3.793628 0.140035  -0.997883 -0.027630 0.058874  0.526954 0.622125 1 24 1.000000
0  0.270642 -3.905598 -0.111482  -0.997883 -0.027630 0.058874  0.539614 0.590946 1 24 1.000000
0  0.304008 -4.475519 0.186581  -0.997867 -0.005899 0.065017  0.600002 0.629852 1 24 1.000000
pistol.tga
0  0.323476 -4.557872 0.477899  0.064277 -0.280898 0.957583  0.792111 0.655692 1 24 1.000000
0  0.502842 -4.552905 0.467316  0.064276 -0.280884 0.957587  0.792111 0.680752 1 24 1.000000
0  0.323077 -4.368454 0.560040  0.060831 -0.076381 0.995221  0.765861 0.655692 1 24 1.000000
pistol.tga
0  0.284213 -4.831108 0.203228  0.030068 -0.998713 0.040837  0.856174 0.651431 1 24 1.000000
0  0.524564 -4.824452 0.189047  0.030064 -0.998713 0.040835  0.856174 0.685012 1 24 1.000000
0  0.300440 -4.821082 0.436450  0.030064 -0.998713 0.040835  0.836386 0.651431 1 24 1.000000
pistol.tga
0  0.323077 -4.368454 0.560040  0.060831 -0.076381 0.995221  0.745167 0.655692 1 24 1.000000
0  0.502443 -4.363487 0.549458  0.048068 0.296298 0.953885  0.745167 0.680752 1 24 1.000000
0  0.282381 -3.793628 0.140035  0.031181 0.591112 0.805986  0.662631 0.655692 1 24 1.000000
pistol.tga
0  0.304008 -4.475519 0.186581  -0.049673 -0.260478 -0.964201  0.901403 0.655692 1 24 1.000000
0  0.483374 -4.470553 0.175999  -0.044073 -0.258829 -0.964917  0.901403 0.680752 1 24 1.000000
0  0.284213 -4.831108 0.203228  -0.057642 -0.043483 -0.997390  0.856174 0.651431 1 24 1.000000
pistol.tga
0  0.323476 -4.557872 0.477899  -0.996932 0.036156 0.069418  0.608091 0.665321 1 24 1.000000
0  0.284213 -4.831108 0.203228  -0.994893 0.067693 0.074875  0.638028 0.632739 1 24 1.000000
0  0.300440 -4.821082 0.436450  -0.994873 0.076689 0.065924  0.643961 0.653922 1 24 1.000000
pistol.tga
0  0.300440 -4.821082 0.436450  0.062563 -0.160592 0.985036  0.815988 0.652195 1 24 1.000000
0  0.535327 -4.814579 0.422592  0.062562 -0.160591 0.985036  0.815988 0.684249 1 24 1.000000
0  0.502842 -4.552905 0.467316  0.064276 -0.280884 0.957587  0.792111 0.680752 1 24 1.000000
pistol.tga
0  0.304008 -4.475519 0.186581  -0.997867 -0.005899 0.065017  0.600002 0.629852 1 24 1.000000
0  0.323476 -4.557872 0.477899  -0.996932 0.036156 0.069418  0.608091 0.665321 1 24 1.000000
0  0.323077 -4.368454 0.560040  -0.997883 -0.027631 0.058874  0.578597 0.670622 1 24 1.000000
pistol.tga
0  0.323077 -4.368454 0.560040  0.060831 -0.076381 0.995221  0.765861 0.655692 1 24 1.000000
0  0.502842 -4.552905 0.467316  0.064276 -0.280884 0.957587  0.792111 0.680752 1 24 1.000000
0  0.502443 -4.363487 0.549458  0.048068 0.296298 0.953885  0.765861 0.680752 1 24 1.000000
pistol.tga
0  0.535327 -4.814579 0.422592  0.030060 -0.998714 0.040834  0.836386 0.685012 1 24 1.000000
0  0.300440 -4.821082 0.436450  0.030064 -0.998713 0.040835  0.836386 0.651431 1 24 1.000000
0  0.524564 -4.824452 0.189047  0.030064 -0.998713 0.040835  0.856174 0.685012 1 24 1.000000
pistol.tga
0  0.461747 -3.788661 0.129452  0.031186 0.591114 0.805985  0.662631 0.680752 1 24 1.000000
0  0.282381 -3.793628 0.140035  0.031186 0.591114 0.805985  0.662631 0.655692 1 24 1.000000
0  0.502443 -4.363487 0.549458  0.048043 0.296440 0.953842  0.745167 0.680752 1 24 1.000000
pistol.tga
0  0.524564 -4.824452 0.189047  -0.057643 -0.043482 -0.997390  0.856174 0.685012 1 24 1.000000
0  0.284213 -4.831108 0.203228  -0.057642 -0.043483 -0.997390  0.856174 0.651431 1 24 1.000000
0  0.483374 -4.470553 0.175999  -0.044073 -0.258829 -0.964917  0.901403 0.680752 1 24 1.000000
pistol.tga
0  0.483374 -4.470553 0.175999  -0.044073 -0.258829 -0.964917  0.901403 0.680752 1 24 1.000000
0  0.304008 -4.475519 0.186581  -0.049673 -0.260478 -0.964201  0.901403 0.655692 1 24 1.000000
0  0.270642 -3.905598 -0.111482  -0.028446 -0.461821 -0.886517  0.975095 0.655692 1 24 1.000000
pistol.tga
0  0.406037 0.001626 -2.089096  0.996556 0.047112 -0.068242  0.586423 0.449147 1 24 1.000000
0  0.376839 1.423131 -1.954999  0.996879 0.022873 -0.075556  0.452522 0.459570 1 24 1.000000
0  0.413152 -0.012612 -1.974275  0.997605 0.038428 -0.057517  0.587498 0.461312 1 24 1.000000
pistol.tga
0  0.448605 1.567848 -1.145578  0.649233 -0.038460 -0.759616  0.437161 0.545007 1 24 1.000000
0  0.384727 1.342630 -1.858741  0.997249 0.009880 -0.073458  0.459868 0.469950 1 24 1.000000
0  0.376839 1.423131 -1.954999  0.996879 0.022873 -0.075556  0.452522 0.459570 1 24 1.000000
pistol.tga
0  0.448605 1.567848 -1.145578  0.649233 -0.038460 -0.759616  0.437161 0.545007 1 24 1.000000
0  0.376839 1.423131 -1.954999  0.996879 0.022873 -0.075556  0.452522 0.459570 1 24 1.000000
0  0.443029 1.727036 -1.127212  0.445500 0.070918 -0.892469  0.422151 0.546499 1 24 1.000000
pistol.tga
0  0.413152 -0.012612 -1.974275  0.997605 0.038428 -0.057517  0.587498 0.461312 1 24 1.000000
0  0.479481 -0.927354 -1.821342  0.987710 0.099758 -0.120324  0.673216 0.480218 1 24 1.000000
0  0.406037 0.001626 -2.089096  0.996556 0.047112 -0.068242  0.586423 0.449147 1 24 1.000000
pistol.tga
0  0.384727 1.342630 -1.858741  0.997249 0.009880 -0.073458  0.459868 0.469950 1 24 1.000000
0  0.413152 -0.012612 -1.974275  0.997605 0.038428 -0.057517  0.587498 0.461312 1 24 1.000000
0  0.376839 1.423131 -1.954999  0.996879 0.022873 -0.075556  0.452522 0.459570 1 24 1.000000
pistol.tga
0  0.794272 -1.002153 -0.469155  0.970254 0.215230 -0.110831  0.677907 0.625970 1 24 1.000000
0  0.473635 -1.053282 -1.955489  0.679090 0.682326 -0.270680  0.686603 0.466432 1 24 1.000000
0  0.479481 -0.927354 -1.821342  0.987710 0.099758 -0.120324  0.673216 0.480218 1 24 1.000000
pistol.tga
0  0.406037 0.001626 -2.089096  0.996556 0.047112 -0.068242  0.586423 0.449147 1 24 1.000000
0  0.479481 -0.927354 -1.821342  0.987710 0.099758 -0.120324  0.673216 0.480218 1 24 1.000000
0  0.473635 -1.053282 -1.955489  0.679090 0.682326 -0.270680  0.686603 0.466432 1 24 1.000000
pistol.tga
0  0.740847 -3.554629 -3.488586  0.965254 -0.259753 0.028514  0.926115 0.314446 1 24 1.000000
0  0.593219 -1.846415 -5.294764  0.926180 0.376735 -0.016133  0.769713 0.119207 1 24 1.000000
0  0.680880 -1.947268 -3.750635  0.923351 0.368438 -0.108060  0.775644 0.282506 1 24 1.000000
pistol.tga
0  0.542958 -3.930838 -3.431693  0.890504 -0.450674 0.062419  0.959430 0.319011 1 24 1.000000
0  0.675246 -3.760425 -5.266395  0.955012 -0.296565 0.000901  0.948380 0.127540 1 24 1.000000
0  0.740847 -3.554629 -3.488586  0.965254 -0.259753 0.028514  0.926115 0.314446 1 24 1.000000
pistol.tga
0  0.680880 -1.947268 -3.750635  0.923351 0.368438 -0.108060  0.775644 0.282506 1 24 1.000000
0  0.473635 -1.053282 -1.955489  0.679090 0.682326 -0.270680  0.686603 0.466432 1 24 1.000000
0  0.794272 -1.002153 -0.469155  0.970254 0.215230 -0.110831  0.677907 0.625970 1 24 1.000000
pistol.tga
0  0.473635 -1.053282 -1.955489  0.679090 0.682326 -0.270680  0.686603 0.466432 1 24 1.000000
0  0.680880 -1.947268 -3.750635  0.923351 0.368438 -0.108060  0.775644 0.282506 1 24 1.000000
0  0.356270 -1.626325 -3.774529  0.472908 0.875585 -0.098532  0.743294 0.275500 1 24 1.000000
pistol.tga
0  0.861501 -2.879071 -1.126499  0.957626 -0.173466 -0.229916  0.857226 0.562158 1 24 1.000000
0  0.519631 -3.283383 -1.270246  0.813455 -0.561997 0.149834  0.893218 0.544073 1 24 1.000000
0  0.740847 -3.554629 -3.488586  0.965254 -0.259753 0.028514  0.926115 0.314446 1 24 1.000000
pistol.tga
0  0.675246 -3.760425 -5.266395  0.955012 -0.296565 0.000901  0.948380 0.127540 1 24 1.000000
0  0.542958 -3.930838 -3.431693  0.890504 -0.450674 0.062419  0.959430 0.319011 1 24 1.000000
0  0.463399 -4.176459 -5.029361  0.896221 -0.442987 0.023474  0.986187 0.150970 1 24 1.000000
pistol.tga
0  0.740847 -3.554629 -3.488586  0.965254 -0.259753 0.028514  0.926115 0.314446 1 24 1.000000
0  0.519631 -3.283383 -1.270246  0.813455 -0.561997 0.149834  0.893218 0.544073 1 24 1.000000
0  0.542958 -3.930838 -3.431693  0.890504 -0.450674 0.062419  0.959430 0.319011 1 24 1.000000
pistol.tga
0  0.680880 -1.947268 -3.750635  0.923351 0.368438 -0.108060  0.775644 0.282506 1 24 1.000000
0  0.794272 -1.002153 -0.469155  0.970254 0.215230 -0.110831  0.677907 0.625970 1 24 1.000000
0  0.861501 -2.879071 -1.126499  0.957626 -0.173466 -0.229916  0.857226 0.562158 1 24 1.000000
pistol.tga
0  0.740847 -3.554629 -3.488586  0.965254 -0.259753 0.028514  0.926115 0.314446 1 24 1.000000
0  0.680880 -1.947268 -3.750635  0.923351 0.368438 -0.108060  0.775644 0.282506 1 24 1.000000
0  0.861501 -2.879071 -1.126499  0.957626 -0.173466 -0.229916  0.857226 0.562158 1 24 1.000000
pistol.tga
0  0.794272 -1.002153 -0.469155  0.970254 0.215230 -0.110831  0.677907 0.625970 1 24 1.000000
0  0.881462 -4.217371 -0.522190  0.967826 -0.091427 -0.234424  0.978139 0.629281 1 24 1.000000
0  0.861501 -2.879071 -1.126499  0.957626 -0.173466 -0.229916  0.857226 0.562158 1 24 1.000000
pistol.tga
0  0.584757 -4.278625 -1.030633  0.357751 -0.234196 -0.903973  0.986284 0.572290 1 24 1.000000
0  0.861501 -2.879071 -1.126499  0.957626 -0.173466 -0.229916  0.857226 0.562158 1 24 1.000000
0  0.881462 -4.217371 -0.522190  0.967826 -0.091427 -0.234424  0.978139 0.629281 1 24 1.000000
pistol.tga
0  0.593219 -1.846415 -5.294764  0.926180 0.376735 -0.016133  0.769713 0.119207 1 24 1.000000
0  0.740847 -3.554629 -3.488586  0.965254 -0.259753 0.028514  0.926115 0.314446 1 24 1.000000
0  0.675246 -3.760425 -5.266395  0.955012 -0.296565 0.000901  0.948380 0.127540 1 24 1.000000
pistol.tga
0  0.356270 -1.626325 -3.774529  0.472908 0.875585 -0.098532  0.743294 0.275500 1 24 1.000000
0  0.593219 -1.846415 -5.294764  0.926180 0.376735 -0.016133  0.769713 0.119207 1 24 1.000000
0  0.322162 -1.514468 -5.278587  0.281464 0.957414 0.064320  0.740311 0.136989 1 24 1.000000
pistol.tga
0  0.356270 -1.626325 -3.774529  0.472908 0.875585 -0.098532  0.743294 0.275500 1 24 1.000000
0  0.680880 -1.947268 -3.750635  0.923351 0.368438 -0.108060  0.775644 0.282506 1 24 1.000000
0  0.593219 -1.846415 -5.294764  0.926180 0.376735 -0.016133  0.769713 0.119207 1 24 1.000000
pistol.tga
0  0.811257 5.752890 0.710530  0.977139 0.020149 0.211645  0.002739 0.823244 1 24 1.000000
0  0.724289 4.167319 1.042499  0.945252 0.016393 0.325929  0.133638 0.857665 1 24 1.000000
0  0.852330 4.180150 0.670463  0.995419 0.023661 0.092631  0.133637 0.823244 1 24 1.000000
pistol.tga
0  0.724289 4.167319 1.042499  0.945252 0.016393 0.325929  0.133638 0.857665 1 24 1.000000
0  0.811257 5.752890 0.710530  0.977139 0.020149 0.211645  0.002739 0.823244 1 24 1.000000
0  0.684662 5.680605 1.081058  0.945179 0.016440 0.326138  0.007687 0.857666 1 24 1.000000
pistol.tga
0  0.852330 4.180150 0.670463  0.995419 0.023661 0.092631  0.133637 0.823244 1 24 1.000000
0  0.791566 5.705143 -0.092608  0.997990 0.027564 -0.057067  0.008365 0.748236 1 24 1.000000
0  0.811257 5.752890 0.710530  0.977139 0.020149 0.211645  0.002739 0.823244 1 24 1.000000
pistol.tga
0  0.600676 5.304862 -1.036306  0.889797 0.034893 -0.455021  0.043220 0.660403 1 24 1.000000
0  0.746051 4.215745 -0.835541  0.936983 0.033242 -0.347790  0.133637 0.682101 1 24 1.000000
0  0.629142 4.217860 -1.063977  0.889783 0.034885 -0.455049  0.133691 0.660405 1 24 1.000000
pistol.tga
0  0.746051 4.215745 -0.835541  0.936983 0.033242 -0.347790  0.133637 0.682101 1 24 1.000000
0  0.711752 5.525566 -0.802169  0.971688 0.031410 -0.234169  0.024621 0.682101 1 24 1.000000
0  0.830979 4.200016 -0.130959  0.995712 0.028317 -0.088066  0.133637 0.748235 1 24 1.000000
pistol.tga
0  0.791566 5.705143 -0.092608  0.997990 0.027564 -0.057067  0.008365 0.748236 1 24 1.000000
0  0.852330 4.180150 0.670463  0.995419 0.023661 0.092631  0.133637 0.823244 1 24 1.000000
0  0.830979 4.200016 -0.130959  0.995712 0.028317 -0.088066  0.133637 0.748235 1 24 1.000000
pistol.tga
0  0.600676 5.304862 -1.036306  0.889797 0.034893 -0.455021  0.043220 0.660403 1 24 1.000000
0  0.711752 5.525566 -0.802169  0.971688 0.031410 -0.234169  0.024621 0.682101 1 24 1.000000
0  0.746051 4.215745 -0.835541  0.936983 0.033242 -0.347790  0.133637 0.682101 1 24 1.000000
pistol.tga
0  0.830979 4.200016 -0.130959  0.995712 0.028317 -0.088066  0.133637 0.748235 1 24 1.000000
0  0.711752 5.525566 -0.802169  0.971688 0.031410 -0.234169  0.024621 0.682101 1 24 1.000000
0  0.791566 5.705143 -0.092608  0.997990 0.027564 -0.057067  0.008365 0.748236 1 24 1.000000
pistol.tga
0  0.271283 3.894660 1.025489  0.997832 0.029084 -0.059032  0.292195 0.826486 1 24 1.000000
0  0.301823 3.502516 1.348509  0.997832 0.029084 -0.059032  0.324172 0.857158 1 24 1.000000
0  0.286209 3.324043 1.010934  0.997769 0.027649 -0.060768  0.339688 0.826484 1 24 1.000000
pistol.tga
0  0.301823 3.502516 1.348509  0.997834 0.029112 -0.058997  0.324172 0.857158 1 24 1.000000
0  0.271283 3.894660 1.025489  0.997834 0.029112 -0.058997  0.292195 0.826486 1 24 1.000000
0  0.289751 3.886687 1.343280  0.997893 0.030579 -0.057224  0.292225 0.855745 1 24 1.000000
pistol.tga
0  0.571632 -2.868099 1.010922  0.990130 0.021338 0.138516  0.888120 0.924349 1 24 1.000000
0  0.596231 -3.849905 0.986331  0.997729 0.010675 0.066511  0.969855 0.924349 1 24 1.000000
0  0.595281 -2.702991 0.816441  0.997729 0.010681 0.066510  0.874794 0.907140 1 24 1.000000
pistol.tga
0  0.594969 -3.846431 0.772028  0.999983 -0.000044 -0.005890  0.970738 0.907140 1 24 1.000000
0  0.595281 -2.702991 0.816441  0.997731 0.010667 0.066473  0.874794 0.907140 1 24 1.000000
0  0.596231 -3.849905 0.986331  0.997731 0.010667 0.066473  0.969855 0.924349 1 24 1.000000
pistol.tga
0  0.809762 -3.843314 1.163643  0.997664 0.027730 -0.062431  0.895006 0.878645 1 24 1.000000
0  0.792274 -3.881242 0.867332  0.997665 0.027714 -0.062428  0.898748 0.850964 1 24 1.000000
0  0.791097 -3.836282 0.868478  0.997665 0.027712 -0.062428  0.895006 0.850964 1 24 1.000000
pistol.tga
0  0.792274 -3.881242 0.867332  0.997665 0.027714 -0.062428  0.898748 0.850964 1 24 1.000000
0  0.809762 -3.843314 1.163643  0.997664 0.027730 -0.062431  0.895006 0.878645 1 24 1.000000
0  0.810940 -3.888274 1.162497  0.997664 0.027732 -0.062431  0.898748 0.878645 1 24 1.000000
pistol.tga
0  0.861501 -2.879071 -1.126499  0.957626 -0.173466 -0.229916  0.857226 0.562158 1 24 1.000000
0  0.584757 -4.278625 -1.030633  0.357751 -0.234196 -0.903973  0.986284 0.572290 1 24 1.000000
0  0.519631 -3.283383 -1.270246  0.253917 -0.210659 -0.944007  0.893218 0.544073 1 24 1.000000
pistol.tga
0  0.502842 -4.552905 0.467316  0.994662 0.091302 -0.048085  0.608091 0.665321 1 24 1.000000
0  0.524564 -4.824452 0.189047  0.991502 0.122930 -0.042561  0.638028 0.632739 1 24 1.000000
0  0.483374 -4.470553 0.175999  0.997391 0.049333 -0.052706  0.600002 0.629852 1 24 1.000000
pistol.tga
0  0.502443 -4.363487 0.549458  0.997883 0.027631 -0.058874  0.578597 0.670622 1 24 1.000000
0  0.483374 -4.470553 0.175999  0.997391 0.049333 -0.052706  0.600002 0.629852 1 24 1.000000
0  0.461747 -3.788661 0.129452  0.997883 0.027630 -0.058874  0.526954 0.622125 1 24 1.000000
pistol.tga
0  0.461747 -3.788661 0.129452  0.997883 0.027630 -0.058876  0.526954 0.622125 1 24 1.000000
0  0.483374 -4.470553 0.175999  0.997391 0.049343 -0.052703  0.600002 0.629852 1 24 1.000000
0  0.449805 -3.892606 -0.121735  0.997883 0.027630 -0.058876  0.539614 0.590946 1 24 1.000000
pistol.tga
0  0.502842 -4.552905 0.467316  0.994662 0.091302 -0.048085  0.608091 0.665321 1 24 1.000000
0  0.535327 -4.814579 0.422592  0.989974 0.131648 -0.051188  0.643961 0.653922 1 24 1.000000
0  0.524564 -4.824452 0.189047  0.991502 0.122930 -0.042561  0.638028 0.632739 1 24 1.000000
pistol.tga
0  0.483374 -4.470553 0.175999  0.997391 0.049333 -0.052706  0.600002 0.629852 1 24 1.000000
0  0.502443 -4.363487 0.549458  0.997883 0.027631 -0.058874  0.578597 0.670622 1 24 1.000000
0  0.502842 -4.552905 0.467316  0.994662 0.091302 -0.048085  0.608091 0.665321 1 24 1.000000
pistol.tga
0  0.643502 1.163216 -0.981605  0.952142 -0.006026 -0.305598  0.517081 0.390084 1 24 1.000000
0  0.794272 -1.002153 -0.469155  0.952098 -0.006061 -0.305732  0.684821 0.443612 1 24 1.000000
0  0.521946 -1.035628 -1.010258  0.893484 -0.043569 -0.446977  0.688157 0.391642 1 24 1.000000
pistol.tga
0  0.794272 -1.002153 -0.469155  0.952098 -0.006061 -0.305732  0.684821 0.443612 1 24 1.000000
0  0.643502 1.163216 -0.981605  0.952142 -0.006026 -0.305598  0.517081 0.390084 1 24 1.000000
0  0.738554 1.157350 -0.384168  0.987133 0.031638 -0.156742  0.515101 0.445088 1 24 1.000000
pistol.tga
0  0.234936 0.136179 -1.678697  0.997883 0.027631 -0.058874  0.519687 0.477095 1 24 1.000000
0  0.330948 -1.190509 -0.673982  0.997883 0.027631 -0.058873  0.639960 0.585117 1 24 1.000000
0  0.279692 -1.322470 -1.604696  0.997883 0.027631 -0.058873  0.654199 0.488658 1 24 1.000000
pistol.tga
0  0.234936 0.136179 -1.678697  0.997883 0.027631 -0.058874  0.519687 0.477095 1 24 1.000000
0  0.295817 0.061343 -0.681921  0.997883 0.027630 -0.058874  0.524395 0.580973 1 24 1.000000
0  0.330948 -1.190509 -0.673982  0.997883 0.027631 -0.058873  0.639960 0.585117 1 24 1.000000
pistol.tga
0  0.978542 -0.323029 0.056078  0.993817 0.111019 0.001598  0.646383 0.739108 1 24 1.000000
0  1.090969 -3.917223 0.606255  0.998761 0.024623 -0.043243  0.944260 0.798087 1 24 1.000000
0  1.054812 -4.055349 -0.067997  0.997520 0.022600 -0.066655  0.958798 0.737923 1 24 1.000000
pistol.tga
0  1.090969 -3.917223 0.606255  0.998761 0.024623 -0.043243  0.944260 0.798087 1 24 1.000000
0  0.978542 -0.323029 0.056078  0.993817 0.111019 0.001598  0.646383 0.739108 1 24 1.000000
0  0.997279 -0.338794 0.701873  0.978245 0.206186 -0.022887  0.646437 0.798647 1 24 1.000000
pistol.tga
0  1.090969 -3.917223 0.606255  0.517611 -0.009309 0.855565  0.944260 0.798087 1 24 1.000000
0  0.997279 -0.338794 0.701873  0.608549 0.200468 0.767777  0.646437 0.798647 1 24 1.000000
0  0.814023 -3.871010 0.774308  0.458388 -0.023614 0.888439  0.939295 0.817038 1 24 1.000000
pistol.tga
0  0.978542 -0.323029 0.056078  0.993817 0.111019 0.001598  0.646383 0.739108 1 24 1.000000
0  0.935140 0.064499 -0.098192  0.995064 0.084122 0.052635  0.614369 0.724368 1 24 1.000000
0  0.862578 0.058040 0.080780  0.982903 0.156274 0.097362  0.614337 0.741872 1 24 1.000000
pistol.tga
0  0.997279 -0.338794 0.701873  0.978245 0.206186 -0.022887  0.646437 0.798647 1 24 1.000000
0  0.862578 0.058040 0.080780  0.982903 0.156274 0.097362  0.614337 0.741872 1 24 1.000000
0  0.880214 0.042788 0.725904  0.868922 0.067254 0.490358  0.614348 0.801361 1 24 1.000000
pistol.tga
0  0.880214 0.042788 0.725904  0.868922 0.067254 0.490358  0.614348 0.801361 1 24 1.000000
0  0.723305 -0.146150 0.796001  0.257140 0.310924 0.914989  0.629463 0.810333 1 24 1.000000
0  0.997279 -0.338794 0.701873  0.608549 0.200468 0.767777  0.646437 0.798647 1 24 1.000000
pistol.tga
0  0.719776 4.225170 -0.305967  0.986496 0.043176 -0.157991  0.270305 0.695341 1 24 1.000000
0  0.755512 4.220455 0.003880  0.998124 0.034251 0.050745  0.270118 0.724484 1 24 1.000000
0  0.935140 0.064499 -0.098192  0.995064 0.084122 0.052635  0.614369 0.724368 1 24 1.000000
pistol.tga
0  0.755512 4.220455 0.003880  0.998124 0.034251 0.050745  0.270118 0.724484 1 24 1.000000
0  0.777380 4.213233 0.192080  0.998737 0.023480 -0.044419  0.270367 0.742196 1 24 1.000000
0  0.862578 0.058040 0.080780  0.982903 0.156274 0.097362  0.614337 0.741872 1 24 1.000000
pistol.tga
0  0.777380 4.213233 0.192080  0.998737 0.023480 -0.044419  0.270367 0.742196 1 24 1.000000
0  0.773092 4.175136 0.830523  0.828463 0.009405 0.559965  0.270439 0.801456 1 24 1.000000
0  0.880214 0.042788 0.725904  0.868922 0.067254 0.490358  0.614348 0.801361 1 24 1.000000
pistol.tga
0  0.785706 0.841032 0.815902  0.400281 -0.288107 0.869925  0.547566 0.808754 1 24 1.000000
0  0.773092 4.175136 0.830523  0.828463 0.009405 0.559965  0.270439 0.801456 1 24 1.000000
0  0.514760 4.163533 1.020426  0.414385 -0.010935 0.910036  0.270289 0.822429 1 24 1.000000
pistol.tga
0  0.978542 -0.323029 0.056078  0.993817 0.111019 0.001598  0.646383 0.739108 1 24 1.000000
0  1.023400 -4.188788 -0.525033  0.987708 0.034017 -0.152565  0.968915 0.695361 1 24 1.000000
0  0.935140 0.064499 -0.098192  0.995064 0.084122 0.052635  0.614369 0.724368 1 24 1.000000
pistol.tga
0  0.997279 -0.338794 0.701873  0.978245 0.206186 -0.022887  0.646437 0.798647 1 24 1.000000
0  0.978542 -0.323029 0.056078  0.993817 0.111019 0.001598  0.646383 0.739108 1 24 1.000000
0  0.862578 0.058040 0.080780  0.982903 0.156274 0.097362  0.614337 0.741872 1 24 1.000000
pistol.tga
0  0.862578 0.058040 0.080780  0.982903 0.156274 0.097362  0.614337 0.741872 1 24 1.000000
0  0.935140 0.064499 -0.098192  0.995064 0.084122 0.052635  0.614369 0.724368 1 24 1.000000
0  0.755512 4.220455 0.003880  0.998124 0.034251 0.050745  0.270118 0.724484 1 24 1.000000
pistol.tga
0  0.880214 0.042788 0.725904  0.868922 0.067254 0.490358  0.614348 0.801361 1 24 1.000000
0  0.862578 0.058040 0.080780  0.982903 0.156274 0.097362  0.614337 0.741872 1 24 1.000000
0  0.777380 4.213233 0.192080  0.998737 0.023480 -0.044419  0.270367 0.742196 1 24 1.000000
pistol.tga
0  0.978542 -0.323029 0.056078  0.993817 0.111019 0.001598  0.646383 0.739108 1 24 1.000000
0  1.054812 -4.055349 -0.067997  0.997521 0.022601 -0.066640  0.958798 0.737923 1 24 1.000000
0  1.023400 -4.188788 -0.525033  0.987708 0.034017 -0.152565  0.968915 0.695361 1 24 1.000000
pistol.tga
0  0.600245 0.906591 0.937953  0.203996 -0.251811 0.946032  0.541327 0.822308 1 24 1.000000
0  0.785706 0.841032 0.815902  0.400281 -0.288107 0.869925  0.547566 0.808754 1 24 1.000000
0  0.514760 4.163533 1.020426  0.414385 -0.010935 0.910036  0.270289 0.822429 1 24 1.000000
pistol.tga
0  0.773092 4.175136 0.830523  0.828463 0.009405 0.559965  0.270439 0.801456 1 24 1.000000
0  0.785706 0.841032 0.815902  0.400281 -0.288107 0.869925  0.547566 0.808754 1 24 1.000000
0  0.880214 0.042788 0.725904  0.868922 0.067254 0.490358  0.614348 0.801361 1 24 1.000000
pistol.tga
0  0.997279 -0.338794 0.701873  0.608549 0.200468 0.767777  0.646437 0.798647 1 24 1.000000
0  0.723305 -0.146150 0.796001  0.257140 0.310924 0.914989  0.629463 0.810333 1 24 1.000000
0  0.817188 -0.274023 0.897135  0.351274 0.294928 0.888608  0.640150 0.818821 1 24 1.000000
pistol.tga
0  0.997279 -0.338794 0.701873  0.608549 0.200468 0.767777  0.646437 0.798647 1 24 1.000000
0  0.817188 -0.274023 0.897135  0.351274 0.294928 0.888608  0.640150 0.818821 1 24 1.000000
0  0.814023 -3.871010 0.774308  0.458388 -0.023614 0.888439  0.939295 0.817038 1 24 1.000000
pistol.tga
0  0.723305 -0.146150 0.796001  0.257140 0.310924 0.914989  0.629463 0.810333 1 24 1.000000
0  0.880214 0.042788 0.725904  0.868922 0.067254 0.490358  0.614348 0.801361 1 24 1.000000
0  0.785706 0.841032 0.815902  0.400281 -0.288107 0.869925  0.547566 0.808754 1 24 1.000000
pistol.tga
0  0.935140 0.064499 -0.098192  0.995064 0.084122 0.052635  0.614369 0.724368 1 24 1.000000
0  1.023400 -4.188788 -0.525033  0.987708 0.034017 -0.152565  0.968915 0.695361 1 24 1.000000
0  0.719776 4.225170 -0.305967  0.986496 0.043176 -0.157991  0.270305 0.695341 1 24 1.000000
pistol.tga
0  0.787253 1.007315 -0.223306  0.998313 0.024076 0.052839  0.487930 0.647065 1 24 1.000000
0  0.815171 1.000409 -0.652630  0.986027 0.030630 -0.163744  0.490392 0.602293 1 24 1.000000
0  0.715958 4.698675 -0.558257  0.985116 0.030018 -0.169248  0.143598 0.602444 1 24 1.000000
pistol.tga
0  0.787253 1.007315 -0.223306  0.998314 0.024074 0.052820  0.487930 0.647065 1 24 1.000000
0  0.715958 4.698675 -0.558257  0.985146 0.029989 -0.169077  0.143598 0.602444 1 24 1.000000
0  0.697944 4.712995 -0.129347  0.998886 0.023029 0.041184  0.141135 0.647216 1 24 1.000000
pistol.tga
0  0.114042 0.132831 -1.671564  -0.023107 0.996821 0.076251  0.519687 0.477095 1 24 1.000000
0  0.295817 0.061343 -0.681921  -0.023107 0.996821 0.076251  0.639960 0.585117 1 24 1.000000
0  0.234936 0.136179 -1.678697  -0.023107 0.996821 0.076251  0.654199 0.488658 1 24 1.000000
pistol.tga
0  0.114042 0.132831 -1.671564  -0.023099 0.996821 0.076249  0.519687 0.477095 1 24 1.000000
0  0.174923 0.057996 -0.674789  -0.023099 0.996821 0.076249  0.524395 0.580973 1 24 1.000000
0  0.295817 0.061343 -0.681921  -0.023099 0.996821 0.076249  0.639960 0.585117 1 24 1.000000
pistol.tga
0  0.158797 -1.325818 -1.597564  -0.057368 -0.052340 -0.996980  0.519687 0.477095 1 24 1.000000
0  0.234936 0.136179 -1.678697  -0.057368 -0.052340 -0.996980  0.639960 0.585117 1 24 1.000000
0  0.279692 -1.322470 -1.604696  -0.057368 -0.052340 -0.996980  0.654199 0.488658 1 24 1.000000
pistol.tga
0  0.158797 -1.325818 -1.597564  -0.057373 -0.052339 -0.996980  0.519687 0.477095 1 24 1.000000
0  0.114042 0.132831 -1.671564  -0.057373 -0.052339 -0.996980  0.524395 0.580973 1 24 1.000000
0  0.234936 0.136179 -1.678697  -0.057373 -0.052339 -0.996980  0.639960 0.585117 1 24 1.000000
pistol.tga
0  -0.461249 4.192468 -0.236288  -0.286855 0.021113 -0.957741  0.270305 0.695341 1 24 1.000000
0  -0.331593 4.174042 -0.262374  -0.193750 0.025097 -0.980730  0.270118 0.724484 1 24 1.000000
0  -0.279924 -1.018723 -0.405464  -0.213332 0.018618 -0.976802  0.614369 0.724368 1 24 1.000000
pistol.tga
0  -0.172663 -4.224679 -0.455103  -0.063146 0.013338 -0.997915  0.646383 0.739108 1 24 1.000000
0  -0.325664 -4.226144 -0.445441  -0.223132 0.015336 -0.974667  0.968915 0.695361 1 24 1.000000
0  -0.279924 -1.018723 -0.405464  -0.213438 0.018625 -0.976779  0.614369 0.724368 1 24 1.000000
pistol.tga
0  -0.279924 -1.018723 -0.405464  -0.213438 0.018625 -0.976779  0.614369 0.724368 1 24 1.000000
0  -0.325664 -4.226144 -0.445441  -0.223132 0.015336 -0.974667  0.968915 0.695361 1 24 1.000000
0  -0.461249 4.192468 -0.236288  -0.286972 0.021104 -0.957707  0.270305 0.695341 1 24 1.000000
pistol.tga
0  0.719776 4.225170 -0.305967  0.171741 0.033181 -0.984583  0.270305 0.695341 1 24 1.000000
0  0.794272 -1.002153 -0.469155  0.107146 0.027532 -0.993862  0.614369 0.724368 1 24 1.000000
0  0.590165 4.193830 -0.321620  0.112060 0.032602 -0.993166  0.270118 0.724484 1 24 1.000000
pistol.tga
0  0.881462 -4.217371 -0.522190  -0.023216 0.015859 -0.999605  0.646383 0.739108 1 24 1.000000
0  0.794272 -1.002153 -0.469155  0.107189 0.027531 -0.993858  0.614369 0.724368 1 24 1.000000
0  1.023400 -4.188788 -0.525033  0.104591 0.024963 -0.994202  0.968915 0.695361 1 24 1.000000
pistol.tga
0  0.794272 -1.002153 -0.469155  0.107189 0.027531 -0.993858  0.614369 0.724368 1 24 1.000000
0  0.719776 4.225170 -0.305967  0.171742 0.033183 -0.984583  0.270305 0.695341 1 24 1.000000
0  1.023400 -4.188788 -0.525033  0.104591 0.024963 -0.994202  0.968915 0.695361 1 24 1.000000
pistol.tga
0  -0.304877 0.980289 -1.013985  -0.640182 -0.043071 -0.767015  0.490300 0.556498 1 24 1.000000
0  -0.523590 4.653585 -0.485383  -0.998025 -0.024662 -0.057767  0.143598 0.602444 1 24 1.000000
0  -0.396389 4.475014 -0.924939  -0.448709 0.030451 -0.893159  0.161641 0.556641 1 24 1.000000
pistol.tga
0  -0.158451 1.564213 -1.109448  -0.879650 -0.021205 -0.475149  0.437161 0.545007 1 24 1.000000
0  -0.304877 0.980289 -1.013985  -0.640182 -0.043071 -0.767015  0.490300 0.556498 1 24 1.000000
0  -0.152662 1.710541 -1.092067  -0.690454 0.060149 -0.720871  0.422151 0.546499 1 24 1.000000
pistol.tga
0  -0.304877 0.980289 -1.013985  -0.640182 -0.043071 -0.767015  0.490300 0.556498 1 24 1.000000
0  -0.427028 0.966016 -0.579343  -0.998021 -0.024660 -0.057839  0.490392 0.602293 1 24 1.000000
0  -0.523590 4.653585 -0.485383  -0.998025 -0.024662 -0.057767  0.143598 0.602444 1 24 1.000000
pistol.tga
0  -0.304877 0.980289 -1.013985  -0.640182 -0.043071 -0.767015  0.490300 0.556498 1 24 1.000000
0  -0.396389 4.475014 -0.924939  -0.448709 0.030451 -0.893159  0.161641 0.556641 1 24 1.000000
0  -0.152662 1.710541 -1.092067  -0.690454 0.060149 -0.720871  0.422151 0.546499 1 24 1.000000
pistol.tga
0  0.641658 1.006498 -1.069829  0.631556 0.013956 -0.775205  0.490300 0.556498 1 24 1.000000
0  0.548477 4.501178 -0.980685  0.477724 0.046996 -0.877252  0.161641 0.556641 1 24 1.000000
0  0.715958 4.698675 -0.558257  0.985116 0.030018 -0.169248  0.143598 0.602444 1 24 1.000000
pistol.tga
0  0.448605 1.567848 -1.145578  0.649233 -0.038460 -0.759616  0.437161 0.545007 1 24 1.000000
0  0.443029 1.727036 -1.127212  0.445500 0.070918 -0.892469  0.422151 0.546499 1 24 1.000000
0  0.641658 1.006498 -1.069829  0.631556 0.013956 -0.775205  0.490300 0.556498 1 24 1.000000
pistol.tga
0  0.641658 1.006498 -1.069829  0.631556 0.013956 -0.775205  0.490300 0.556498 1 24 1.000000
0  0.715958 4.698675 -0.558257  0.985116 0.030018 -0.169248  0.143598 0.602444 1 24 1.000000
0  0.815171 1.000409 -0.652630  0.986027 0.030630 -0.163744  0.490392 0.602293 1 24 1.000000
pistol.tga
0  0.641658 1.006498 -1.069829  0.631556 0.013956 -0.775205  0.490300 0.556498 1 24 1.000000
0  0.443029 1.727036 -1.127212  0.445500 0.070918 -0.892469  0.422151 0.546499 1 24 1.000000
0  0.548477 4.501178 -0.980685  0.477724 0.046996 -0.877252  0.161641 0.556641 1 24 1.000000
end
