version 1
nodes
  0 "Box01"  -1
end
skeleton
time 0
  0 5.391804 -4.576344 55.810146 0.000000 0.000000 0.000000
end
triangles
texture1.tga
  0   5.0318  -4.9764  55.8101   0.0000   0.0000  -1.0000   1.0000   0.0000
  0   5.0318  -4.1763  55.8101   0.0000   0.0000  -1.0000   1.0000   1.0000
  0   5.7519  -4.1763  55.8101   0.0000   0.0000  -1.0000   0.0000   1.0000
texture1.tga
  0   5.7519  -4.1763  55.8101   0.0000   0.0000  -1.0000   0.0000   1.0000
  0   5.7519  -4.9764  55.8101   0.0000   0.0000  -1.0000   0.0000   0.0000
  0   5.0318  -4.9764  55.8101   0.0000   0.0000  -1.0000   1.0000   0.0000
texture1.tga
  0   5.0318  -4.9764  58.8506   0.0000   0.0000   1.0000   0.0000   0.0000
  0   5.7519  -4.9764  58.8506   0.0000   0.0000   1.0000   1.0000   0.0000
  0   5.7519  -4.1763  58.8506   0.0000   0.0000   1.0000   1.0000   1.0000
texture1.tga
  0   5.7519  -4.1763  58.8506   0.0000   0.0000   1.0000   1.0000   1.0000
  0   5.0318  -4.1763  58.8506   0.0000   0.0000   1.0000   0.0000   1.0000
  0   5.0318  -4.9764  58.8506   0.0000   0.0000   1.0000   0.0000   0.0000
texture1.tga
  0   5.0318  -4.9764  55.8101   0.0000  -1.0000   0.0000   0.0000   0.0000
  0   5.7519  -4.9764  55.8101   0.0000  -1.0000   0.0000   1.0000   0.0000
  0   5.7519  -4.9764  58.8506   0.0000  -1.0000   0.0000   1.0000   1.0000
texture1.tga
  0   5.7519  -4.9764  58.8506   0.0000  -1.0000   0.0000   1.0000   1.0000
  0   5.0318  -4.9764  58.8506   0.0000  -1.0000   0.0000   0.0000   1.0000
  0   5.0318  -4.9764  55.8101   0.0000  -1.0000   0.0000   0.0000   0.0000
texture1.tga
  0   5.7519  -4.9764  55.8101   1.0000   0.0000   0.0000   0.0000   0.0000
  0   5.7519  -4.1763  55.8101   1.0000   0.0000   0.0000   1.0000   0.0000
  0   5.7519  -4.1763  58.8506   1.0000   0.0000   0.0000   1.0000   1.0000
texture1.tga
  0   5.7519  -4.1763  58.8506   1.0000   0.0000   0.0000   1.0000   1.0000
  0   5.7519  -4.9764  58.8506   1.0000   0.0000   0.0000   0.0000   1.0000
  0   5.7519  -4.9764  55.8101   1.0000   0.0000   0.0000   0.0000   0.0000
texture1.tga
  0   5.7519  -4.1763  55.8101   0.0000   1.0000   0.0000   0.0000   0.0000
  0   5.0318  -4.1763  55.8101   0.0000   1.0000   0.0000   1.0000   0.0000
  0   5.0318  -4.1763  58.8506   0.0000   1.0000   0.0000   1.0000   1.0000
texture1.tga
  0   5.0318  -4.1763  58.8506   0.0000   1.0000   0.0000   1.0000   1.0000
  0   5.7519  -4.1763  58.8506   0.0000   1.0000   0.0000   0.0000   1.0000
  0   5.7519  -4.1763  55.8101   0.0000   1.0000   0.0000   0.0000   0.0000
texture1.tga
  0   5.0318  -4.1763  55.8101  -1.0000   0.0000   0.0000   0.0000   0.0000
  0   5.0318  -4.9764  55.8101  -1.0000   0.0000   0.0000   1.0000   0.0000
  0   5.0318  -4.9764  58.8506  -1.0000   0.0000   0.0000   1.0000   1.0000
texture1.tga
  0   5.0318  -4.9764  58.8506  -1.0000   0.0000   0.0000   1.0000   1.0000
  0   5.0318  -4.1763  58.8506  -1.0000   0.0000   0.0000   0.0000   1.0000
  0   5.0318  -4.1763  55.8101  -1.0000   0.0000   0.0000   0.0000   0.0000
end
