// Created by Crowbar 0.74
version 1
nodes
  0 "ValveBiped.Bip01_Pelvis" -1
  1 "ValveBiped.Bip01_L_Thigh" 0
  2 "ValveBiped.Bip01_L_Calf" 1
  3 "ValveBiped.Bip01_L_Foot" 2
  4 "ValveBiped.Bip01_L_Toe0" 3
  5 "ValveBiped.Bip01_R_Thigh" 0
  6 "ValveBiped.Bip01_R_Calf" 5
  7 "ValveBiped.Bip01_R_Foot" 6
  8 "ValveBiped.Bip01_R_Toe0" 7
  9 "ValveBiped.Bip01_Spine" 0
  10 "ValveBiped.Bip01_Spine1" 9
  11 "ValveBiped.Bip01_Spine2" 10
  12 "ValveBiped.Bip01_Spine4" 11
  13 "ValveBiped.Bip01_Neck1" 12
  14 "ValveBiped.Bip01_Head1" 13
  15 "ValveBiped.Bip01_L_Clavicle" 12
  16 "ValveBiped.Bip01_L_UpperArm" 15
  17 "ValveBiped.Bip01_L_Forearm" 16
  18 "ValveBiped.Bip01_L_Hand" 17
  19 "ValveBiped.Bip01_L_Finger4" 18
  20 "ValveBiped.Bip01_L_Finger41" 19
  21 "ValveBiped.Bip01_L_Finger42" 20
  22 "ValveBiped.Bip01_L_Finger3" 18
  23 "ValveBiped.Bip01_L_Finger31" 22
  24 "ValveBiped.Bip01_L_Finger32" 23
  25 "ValveBiped.Bip01_L_Finger2" 18
  26 "ValveBiped.Bip01_L_Finger21" 25
  27 "ValveBiped.Bip01_L_Finger22" 26
  28 "ValveBiped.Bip01_L_Finger1" 18
  29 "ValveBiped.Bip01_L_Finger11" 28
  30 "ValveBiped.Bip01_L_Finger12" 29
  31 "ValveBiped.Bip01_L_Finger0" 18
  32 "ValveBiped.Bip01_L_Finger01" 31
  33 "ValveBiped.Bip01_L_Finger02" 32
  34 "ValveBiped.Bip01_R_Clavicle" 12
  35 "ValveBiped.Bip01_R_UpperArm" 34
  36 "ValveBiped.Bip01_R_Forearm" 35
  37 "ValveBiped.Bip01_R_Hand" 36
  38 "ValveBiped.Bip01_R_Finger4" 37
  39 "ValveBiped.Bip01_R_Finger41" 38
  40 "ValveBiped.Bip01_R_Finger42" 39
  41 "ValveBiped.Bip01_R_Finger3" 37
  42 "ValveBiped.Bip01_R_Finger31" 41
  43 "ValveBiped.Bip01_R_Finger32" 42
  44 "ValveBiped.Bip01_R_Finger2" 37
  45 "ValveBiped.Bip01_R_Finger21" 44
  46 "ValveBiped.Bip01_R_Finger22" 45
  47 "ValveBiped.Bip01_R_Finger1" 37
  48 "ValveBiped.Bip01_R_Finger11" 47
  49 "ValveBiped.Bip01_R_Finger12" 48
  50 "ValveBiped.Bip01_R_Finger0" 37
  51 "ValveBiped.Bip01_R_Finger01" 50
  52 "ValveBiped.Bip01_R_Finger02" 51
  53 "ValveBiped.Bip01_L_Elbow" 16
  54 "ValveBiped.Bip01_L_Ulna" 17
  55 "ValveBiped.Bip01_R_Ulna" 36
  56 "ValveBiped.Bip01_R_Shoulder" 35
  57 "ValveBiped.Bip01_L_Shoulder" 16
  58 "ValveBiped.Bip01_R_Latt" 11
  59 "ValveBiped.Bip01_R_Trapezius" 34
  60 "ValveBiped.Bip01_R_Wrist" 36
  61 "ValveBiped.Bip01_R_Bicep" 35
  62 "ValveBiped.Bip01_L_Bicep" 16
  63 "ValveBiped.Bip01_L_Trapezius" 15
  64 "ValveBiped.Bip01_L_Wrist" 17
  65 "ValveBiped.Bip01_L_Latt" 11
  66 "ValveBiped.Bip01_R_Elbow" 35
end
skeleton
  time 0
    0 -0.002349 -0.531261 33.848023 1.675378 0.112286 -0.132020
    1 3.890452 -0.000004 -0.000003 -1.967916 -0.700936 -1.124365
    2 17.848177 0.000000 0.000000 0.000000 0.000000 1.682920
    3 16.525253 0.000000 0.000000 -0.100522 0.034580 -1.242739
    4 6.878906 0.000000 0.000000 -0.007299 -0.002950 -0.584373
    5 -3.890452 0.000004 0.000007 -1.531097 -0.599216 -1.565766
    6 17.848173 0.000000 0.000000 0.000000 0.000000 1.005505
    7 16.525257 0.000000 0.000000 -0.054546 -0.250192 -1.497073
    8 6.878906 0.000000 0.000000 -0.081332 -0.002949 -0.584373
    9 0.000005 3.345128 -2.981901 1.613704 0.193887 1.730885
    10 3.998799 0.000000 0.000000 -0.088302 -0.071596 0.093949
    11 3.518565 0.000000 0.000000 -0.086087 0.005884 0.097058
    12 8.923110 0.000000 0.000000 -0.062931 0.016383 0.253444
    13 3.307271 0.000000 0.000000 3.191828 0.064501 0.721552
    14 3.601524 -0.000001 0.000000 0.321060 0.101480 0.712990
    15 2.056784 0.981236 1.937660 2.011108 -1.015760 2.465060
    16 6.028142 0.000001 0.000000 -1.638586 -0.171449 -0.386241
    17 11.692554 0.000000 0.000001 0.000000 0.000000 -1.993443
    18 11.481672 0.000000 -0.000032 1.562344 -0.037866 0.192523
    19 3.851891 0.123226 -1.223225 -0.469917 0.161694 -0.812367
    20 1.312564 0.000001 0.000000 0.000000 0.004679 -0.439781
    21 0.729362 0.000000 0.000000 0.000000 0.002406 -0.244334
    22 3.926700 0.316309 -0.458788 -0.150484 0.082976 -0.742886
    23 1.539095 0.000001 0.000000 0.000000 0.002914 -0.247797
    24 1.196321 -0.000001 0.000000 0.000000 0.004796 -0.430832
    25 3.883690 0.211047 0.404099 0.087700 0.031633 -0.519958
    26 1.719576 0.000000 0.000000 0.000000 0.005013 -0.366478
    27 1.209180 0.000000 0.000000 0.000000 0.002808 -0.216400
    28 3.867672 0.115964 1.301215 0.352472 -0.032983 -0.463854
    29 1.719428 0.000000 0.000000 0.000000 0.005105 -0.363009
    30 1.099666 -0.000001 0.000000 0.000000 0.003243 -0.244331
    31 0.837299 -0.302047 1.313446 -1.251008 -0.669804 -0.720186
    32 1.789784 0.000000 -0.000001 0.000000 -0.002153 0.228622
    33 1.206999 0.000000 -0.000001 0.000000 -0.003294 0.363001
    34 2.056792 0.981240 -1.937610 -1.888433 1.046434 2.688054
    35 6.028143 0.000001 0.000000 0.575989 -1.146365 0.147407
    36 11.692554 0.000000 0.000001 0.000000 0.000000 -1.325804
    37 11.481699 0.000000 0.000003 -1.567619 0.040075 -0.157319
    38 3.851859 0.133064 1.220452 0.469816 -0.167716 -0.811412
    39 1.312561 0.000001 0.000000 0.000000 -0.007097 -0.439763
    40 0.729364 0.000000 0.000000 0.000000 -0.003653 -0.244305
    41 3.926668 0.319868 0.458387 0.150457 -0.088581 -0.742367
    42 1.539095 0.000000 0.000000 0.000000 -0.004404 -0.247771
    43 1.196326 0.000001 0.000000 0.000000 -0.007266 -0.430795
    44 3.883656 0.207493 -0.403698 -0.087715 -0.035752 -0.519729
    45 1.719576 0.000002 0.000000 0.000000 -0.007590 -0.366436
    46 1.209181 -0.000001 0.000000 0.000000 -0.004245 -0.216376
    47 3.867642 0.104977 -1.303937 -0.352488 0.029267 -0.464083
    48 1.719425 0.000000 0.000000 0.000000 -0.007728 -0.362970
    49 1.099666 0.000001 0.000000 0.000000 -0.004918 -0.244312
    50 0.837268 -0.312959 -1.310521 1.248005 0.664326 -0.725045
    51 1.789784 0.000000 0.000000 0.000000 0.003275 0.228615
    52 1.206998 0.000000 0.000000 0.000000 0.005003 0.362980
    53 11.687500 -0.000001 0.000003 0.000000 0.000000 -0.029498
    54 5.738281 0.000000 0.000002 0.000687 0.000000 0.000000
    55 5.738281 -0.000001 0.000000 0.000080 0.000000 0.000000
    56 1.500000 0.000003 0.000002 0.000000 0.000000 0.000000
    57 1.499023 0.000000 0.000003 0.000000 0.000000 0.000000
    58 2.078125 1.478516 -5.000000 0.000000 0.000000 0.000000
    59 5.164063 0.000004 -0.000001 0.000000 0.000000 0.000000
    60 11.476563 -0.000001 0.000001 0.000149 0.000000 0.000000
    61 5.558594 0.000002 0.000000 0.000000 0.000000 0.000000
    62 5.558594 0.000000 0.000001 0.000000 0.000000 0.000000
    63 5.164063 0.000000 0.000000 0.000000 0.000000 0.000000
    64 11.476563 0.000003 0.000004 0.001270 0.000000 0.000000
    65 2.078125 1.478516 5.000000 0.000000 0.000000 0.000000
    66 11.687500 0.000000 0.000002 0.000000 0.000000 -0.029498
  time 1
    0 -3.537882 3.004272 34.648829 1.660775 0.088320 -0.163037
    1 3.890452 -0.000004 -0.000003 -1.953641 -0.566818 -1.274205
    2 17.848177 0.000000 0.000000 0.000000 0.000000 1.639082
    3 16.525253 0.000000 0.000000 -0.102485 0.087971 -1.180456
    4 6.878906 0.000000 0.000000 -0.007299 -0.002950 -0.584373
    5 -3.890452 0.000004 0.000007 -1.602977 -0.635319 -1.420797
    6 17.848173 0.000000 0.000000 0.000000 0.000000 0.901794
    7 16.525257 0.000000 0.000000 -0.156296 -0.160555 -1.323236
    8 6.878906 0.000000 0.000000 -0.081332 -0.002949 -0.584373
    9 0.000005 3.345128 -2.981901 1.612288 0.194561 1.706673
    10 3.998799 0.000000 0.000000 -0.084348 -0.070985 0.108891
    11 3.518565 0.000000 0.000000 -0.090132 0.005944 0.097029
    12 8.923110 0.000000 0.000000 -0.065867 0.017150 0.253396
    13 3.307271 0.000000 0.000000 3.172653 0.039981 0.653963
    14 3.601524 -0.000001 0.000000 0.352307 0.084142 0.643588
    15 2.056784 0.981236 1.937660 2.110512 -1.082114 2.374519
    16 6.028142 0.000001 0.000000 -1.679495 -0.084758 -0.373253
    17 11.692554 0.000000 0.000001 0.000000 0.000000 -2.144411
    18 11.481672 0.000000 -0.000032 1.563173 -0.038052 0.169960
    19 3.851891 0.123226 -1.223225 -0.469917 0.161694 -0.812367
    20 1.312564 0.000001 0.000000 0.000000 0.004679 -0.439781
    21 0.729362 0.000000 0.000000 0.000000 0.002406 -0.244334
    22 3.926700 0.316309 -0.458788 -0.150484 0.082976 -0.742886
    23 1.539095 0.000001 0.000000 0.000000 0.002914 -0.247797
    24 1.196321 -0.000001 0.000000 0.000000 0.004796 -0.430832
    25 3.883690 0.211047 0.404099 0.087700 0.031633 -0.519958
    26 1.719576 0.000000 0.000000 0.000000 0.005013 -0.366478
    27 1.209180 0.000000 0.000000 0.000000 0.002808 -0.216400
    28 3.867672 0.115964 1.301215 0.352472 -0.032983 -0.463854
    29 1.719428 0.000000 0.000000 0.000000 0.005105 -0.363009
    30 1.099666 -0.000001 0.000000 0.000000 0.003255 -0.244331
    31 0.837299 -0.302047 1.313446 -1.251008 -0.669804 -0.720186
    32 1.789784 0.000000 -0.000001 0.000000 -0.002153 0.228622
    33 1.206999 0.000000 -0.000001 0.000000 -0.003294 0.363001
    34 2.056792 0.981240 -1.937610 -1.935418 1.126449 2.648515
    35 6.028143 0.000001 0.000000 0.628866 -1.172619 0.068371
    36 11.692554 0.000000 0.000001 0.000000 0.000000 -1.271051
    37 11.481699 0.000000 0.000003 -1.561872 0.039175 -0.012072
    38 3.851859 0.133064 1.220452 0.469816 -0.167716 -0.811412
    39 1.312561 0.000001 0.000000 0.000000 -0.007097 -0.439763
    40 0.729364 0.000000 0.000000 0.000000 -0.003653 -0.244305
    41 3.926668 0.319868 0.458387 0.150457 -0.088581 -0.742367
    42 1.539095 0.000000 0.000000 0.000000 -0.004404 -0.247771
    43 1.196326 0.000001 0.000000 0.000000 -0.007266 -0.430795
    44 3.883656 0.207493 -0.403698 -0.087715 -0.035752 -0.519729
    45 1.719576 0.000002 0.000000 0.000000 -0.007590 -0.366436
    46 1.209181 -0.000001 0.000000 0.000000 -0.004245 -0.216376
    47 3.867642 0.104977 -1.303937 -0.352488 0.029267 -0.464083
    48 1.719425 0.000000 0.000000 0.000000 -0.007728 -0.362970
    49 1.099666 0.000001 0.000000 0.000000 -0.004918 -0.244312
    50 0.837268 -0.312959 -1.310521 1.248005 0.664326 -0.725045
    51 1.789784 0.000000 0.000000 0.000000 0.003275 0.228615
    52 1.206998 0.000000 0.000000 0.000000 0.005003 0.362980
    53 11.687500 -0.000001 0.000003 0.000000 0.000000 -0.029498
    54 5.738281 0.000000 0.000002 0.000687 0.000000 0.000000
    55 5.738281 -0.000001 0.000000 0.000080 0.000000 0.000000
    56 1.500000 0.000003 0.000002 0.000000 0.000000 0.000000
    57 1.499023 0.000000 0.000003 0.000000 0.000000 0.000000
    58 2.078125 1.478516 -5.000000 0.000000 0.000000 0.000000
    59 5.164063 0.000004 -0.000001 0.000000 0.000000 0.000000
    60 11.476563 -0.000001 0.000001 0.000149 0.000000 0.000000
    61 5.558594 0.000002 0.000000 0.000000 0.000000 0.000000
    62 5.558594 0.000000 0.000001 0.000000 0.000000 0.000000
    63 5.164063 0.000000 0.000000 0.000000 0.000000 0.000000
    64 11.476563 0.000003 0.000004 0.001270 0.000000 0.000000
    65 2.078125 1.478516 5.000000 0.000000 0.000000 0.000000
    66 11.687500 0.000000 0.000002 0.000000 0.000000 -0.029498
  time 2
    0 -7.073416 6.539806 35.680111 1.676556 0.034823 -0.174660
    1 3.890452 -0.000004 -0.000003 -1.927456 -0.441632 -1.451068
    2 17.848177 0.000000 0.000000 0.000000 0.000000 1.490231
    3 16.525253 0.000000 0.000000 -0.087885 0.150560 -1.131793
    4 6.878906 0.000000 0.000000 -0.007299 -0.002950 -0.584373
    5 -3.890452 0.000004 0.000007 -1.627557 -0.605655 -1.337902
    6 17.848173 0.000000 0.000000 0.000000 0.000000 0.634893
    7 16.525257 0.000000 0.000000 -0.259670 -0.088949 -1.083363
    8 6.878906 0.000000 0.000000 -0.081332 -0.002949 -0.584373
    9 0.000005 3.345128 -2.981901 1.603078 0.195718 1.651537
    10 3.998799 0.000000 0.000000 -0.071344 -0.067725 0.101436
    11 3.518565 0.000000 0.000000 -0.086140 0.005896 0.097058
    12 8.923110 0.000000 0.000000 -0.062979 0.016395 0.253444
    13 3.307271 0.000000 0.000000 3.157889 0.020985 0.566762
    14 3.601524 -0.000001 0.000000 0.344688 0.056866 0.560899
    15 2.056784 0.981236 1.937660 2.264981 -1.163741 2.233678
    16 6.028142 0.000001 0.000000 -1.685517 0.049210 -0.467066
    17 11.692554 0.000000 0.000001 0.000000 0.000000 -2.201089
    18 11.481672 0.000000 -0.000032 1.570086 -0.038795 -0.009041
    19 3.851891 0.123226 -1.223225 -0.469917 0.161694 -0.812367
    20 1.312564 0.000001 0.000000 0.000000 0.004679 -0.439781
    21 0.729362 0.000000 0.000000 0.000000 0.002406 -0.244334
    22 3.926700 0.316309 -0.458788 -0.150484 0.082976 -0.742886
    23 1.539095 0.000001 0.000000 0.000000 0.002914 -0.247797
    24 1.196321 -0.000001 0.000000 0.000000 0.004796 -0.430832
    25 3.883690 0.211047 0.404099 0.087700 0.031633 -0.519958
    26 1.719576 0.000000 0.000000 0.000000 0.005013 -0.366478
    27 1.209180 0.000000 0.000000 0.000000 0.002808 -0.216400
    28 3.867672 0.115964 1.301215 0.352472 -0.032983 -0.463854
    29 1.719428 0.000000 0.000000 0.000000 0.005105 -0.363009
    30 1.099666 -0.000001 0.000000 0.000000 0.003255 -0.244331
    31 0.837299 -0.302047 1.313446 -1.251008 -0.669804 -0.720186
    32 1.789784 0.000000 -0.000001 0.000000 -0.002153 0.228622
    33 1.206999 0.000000 -0.000001 0.000000 -0.003294 0.363001
    34 2.056792 0.981240 -1.937610 -2.045534 1.222954 2.545091
    35 6.028143 0.000001 0.000000 0.724418 -1.120779 -0.183836
    36 11.692554 0.000000 0.000001 0.000000 0.000000 -1.248902
    37 11.481699 0.000000 0.000003 -1.557371 0.037864 0.105124
    38 3.851859 0.133064 1.220452 0.469816 -0.167716 -0.811412
    39 1.312561 0.000001 0.000000 0.000000 -0.007097 -0.439763
    40 0.729364 0.000000 0.000000 0.000000 -0.003653 -0.244305
    41 3.926668 0.319868 0.458387 0.150457 -0.088581 -0.742367
    42 1.539095 0.000000 0.000000 0.000000 -0.004404 -0.247771
    43 1.196326 0.000001 0.000000 0.000000 -0.007266 -0.430795
    44 3.883656 0.207493 -0.403698 -0.087715 -0.035752 -0.519729
    45 1.719576 0.000002 0.000000 0.000000 -0.007590 -0.366436
    46 1.209181 -0.000001 0.000000 0.000000 -0.004245 -0.216376
    47 3.867642 0.104977 -1.303937 -0.352488 0.029267 -0.464083
    48 1.719425 0.000000 0.000000 0.000000 -0.007728 -0.362970
    49 1.099666 0.000001 0.000000 0.000000 -0.004918 -0.244312
    50 0.837268 -0.312959 -1.310521 1.248005 0.664326 -0.725045
    51 1.789784 0.000000 0.000000 0.000000 0.003275 0.228615
    52 1.206998 0.000000 0.000000 0.000000 0.005003 0.362980
    53 11.687500 -0.000001 0.000003 0.000000 0.000000 -0.029498
    54 5.738281 0.000000 0.000002 0.000687 0.000000 0.000000
    55 5.738281 -0.000001 0.000000 0.000080 0.000000 0.000000
    56 1.500000 0.000003 0.000002 0.000000 0.000000 0.000000
    57 1.499023 0.000000 0.000003 0.000000 0.000000 0.000000
    58 2.078125 1.478516 -5.000000 0.000000 0.000000 0.000000
    59 5.164063 0.000004 -0.000001 0.000000 0.000000 0.000000
    60 11.476563 -0.000001 0.000001 0.000149 0.000000 0.000000
    61 5.558594 0.000002 0.000000 0.000000 0.000000 0.000000
    62 5.558594 0.000000 0.000001 0.000000 0.000000 0.000000
    63 5.164063 0.000000 0.000000 0.000000 0.000000 0.000000
    64 11.476563 0.000003 0.000004 0.001270 0.000000 0.000000
    65 2.078125 1.478516 5.000000 0.000000 0.000000 0.000000
    66 11.687500 0.000000 0.000002 0.000000 0.000000 -0.029498
  time 3
    0 -10.608949 10.075339 36.180126 1.708237 -0.024270 -0.162784
    1 3.890452 -0.000004 -0.000003 -1.880507 -0.324347 -1.617854
    2 17.848177 0.000000 0.000000 0.000000 0.000000 1.274298
    3 16.525253 0.000000 0.000000 -0.071837 0.168445 -1.087339
    4 6.878906 0.000000 0.000000 -0.007299 -0.002950 -0.584373
    5 -3.890452 0.000004 0.000007 -1.635412 -0.581852 -1.309856
    6 17.848173 0.000000 0.000000 0.000000 0.000000 0.400727
    7 16.525257 0.000000 0.000000 -0.269968 -0.027619 -0.883036
    8 6.878906 0.000000 0.000000 -0.081332 -0.002949 -0.584373
    9 0.000005 3.345128 -2.981901 1.589923 0.196296 1.590335
    10 3.998799 0.000000 0.000000 -0.048190 -0.059911 0.079853
    11 3.518565 0.000000 0.000000 -0.073063 0.005477 0.097131
    12 8.923110 0.000000 0.000000 -0.053475 0.013926 0.253587
    13 3.307271 0.000000 0.000000 3.154533 0.016671 0.500095
    14 3.601524 -0.000001 0.000000 0.293660 0.033074 0.495937
    15 2.056784 0.981236 1.937660 2.393498 -1.214114 2.114586
    16 6.028142 0.000001 0.000000 -1.633138 0.198134 -0.647684
    17 11.692554 0.000000 0.000001 0.000000 0.000000 -2.124367
    18 11.481672 0.000000 -0.000032 1.574400 -0.038646 -0.122862
    19 3.851891 0.123226 -1.223225 -0.469917 0.161694 -0.812367
    20 1.312564 0.000001 0.000000 0.000000 0.004679 -0.439781
    21 0.729362 0.000000 0.000000 0.000000 0.002406 -0.244334
    22 3.926700 0.316309 -0.458788 -0.150484 0.082976 -0.742886
    23 1.539095 0.000001 0.000000 0.000000 0.002914 -0.247797
    24 1.196321 -0.000001 0.000000 0.000000 0.004796 -0.430832
    25 3.883690 0.211047 0.404099 0.087700 0.031633 -0.519958
    26 1.719576 0.000000 0.000000 0.000000 0.005013 -0.366478
    27 1.209180 0.000000 0.000000 0.000000 0.002808 -0.216400
    28 3.867672 0.115964 1.301215 0.352472 -0.032983 -0.463854
    29 1.719428 0.000000 0.000000 0.000000 0.005105 -0.363009
    30 1.099666 -0.000001 0.000000 0.000000 0.003255 -0.244331
    31 0.837299 -0.302047 1.313446 -1.251008 -0.669804 -0.720186
    32 1.789784 0.000000 -0.000001 0.000000 -0.002153 0.228622
    33 1.206999 0.000000 -0.000001 0.000000 -0.003294 0.363001
    34 2.056792 0.981240 -1.937610 -2.168880 1.280668 2.425466
    35 6.028143 0.000001 0.000000 0.901681 -0.983778 -0.531297
    36 11.692554 0.000000 0.000001 0.000000 0.000000 -1.260158
    37 11.481699 0.000000 0.000003 -1.556317 0.037504 0.132543
    38 3.851859 0.133064 1.220452 0.469816 -0.167716 -0.811412
    39 1.312561 0.000001 0.000000 0.000000 -0.007097 -0.439763
    40 0.729364 0.000000 0.000000 0.000000 -0.003653 -0.244305
    41 3.926668 0.319868 0.458387 0.150457 -0.088581 -0.742367
    42 1.539095 0.000000 0.000000 0.000000 -0.004404 -0.247771
    43 1.196326 0.000001 0.000000 0.000000 -0.007266 -0.430795
    44 3.883656 0.207493 -0.403698 -0.087715 -0.035752 -0.519729
    45 1.719576 0.000002 0.000000 0.000000 -0.007590 -0.366436
    46 1.209181 -0.000001 0.000000 0.000000 -0.004245 -0.216376
    47 3.867642 0.104977 -1.303937 -0.352488 0.029267 -0.464083
    48 1.719425 0.000000 0.000000 0.000000 -0.007728 -0.362970
    49 1.099666 0.000001 0.000000 0.000000 -0.004918 -0.244312
    50 0.837268 -0.312959 -1.310521 1.248005 0.664326 -0.725045
    51 1.789784 0.000000 0.000000 0.000000 0.003275 0.228615
    52 1.206998 0.000000 0.000000 0.000000 0.005003 0.362980
    53 11.687500 -0.000001 0.000003 0.000000 0.000000 -0.029498
    54 5.738281 0.000000 0.000002 0.000687 0.000000 0.000000
    55 5.738281 -0.000001 0.000000 0.000080 0.000000 0.000000
    56 1.500000 0.000003 0.000002 0.000000 0.000000 0.000000
    57 1.499023 0.000000 0.000003 0.000000 0.000000 0.000000
    58 2.078125 1.478516 -5.000000 0.000000 0.000000 0.000000
    59 5.164063 0.000004 -0.000001 0.000000 0.000000 0.000000
    60 11.476563 -0.000001 0.000001 0.000149 0.000000 0.000000
    61 5.558594 0.000002 0.000000 0.000000 0.000000 0.000000
    62 5.558594 0.000000 0.000001 0.000000 0.000000 0.000000
    63 5.164063 0.000000 0.000000 0.000000 0.000000 0.000000
    64 11.476563 0.000003 0.000004 0.001270 0.000000 0.000000
    65 2.078125 1.478516 5.000000 0.000000 0.000000 0.000000
    66 11.687500 0.000000 0.000002 0.000000 0.000000 -0.029498
  time 4
    0 -14.144483 13.610873 36.148875 1.739329 -0.052980 -0.131514
    1 3.890452 -0.000004 -0.000003 -1.823328 -0.200507 -1.728108
    2 17.848177 0.000000 0.000000 0.000000 0.000000 1.014225
    3 16.525253 0.000000 0.000000 -0.059789 0.172620 -1.051728
    4 6.878906 0.000000 0.000000 -0.007299 -0.002950 -0.584373
    5 -3.890452 0.000004 0.000007 -1.634821 -0.707748 -1.322131
    6 17.848173 0.000000 0.000000 0.000000 0.000000 0.575334
    7 16.525257 0.000000 0.000000 -0.137858 0.018291 -0.921682
    8 6.878906 0.000000 0.000000 -0.081332 -0.002949 -0.584373
    9 0.000005 3.345128 -2.981901 1.580967 0.196328 1.561002
    10 3.998799 0.000000 0.000000 -0.016179 -0.045793 0.051778
    11 3.518565 0.000000 0.000000 -0.049708 0.004434 0.097233
    12 8.923110 0.000000 0.000000 -0.036517 0.009504 0.253791
    13 3.307271 0.000000 0.000000 3.155779 0.018360 0.477109
    14 3.601524 -0.000001 0.000000 0.196415 0.030478 0.468106
    15 2.056784 0.981236 1.937660 2.399340 -1.226129 2.110849
    16 6.028142 0.000001 0.000000 -1.525226 0.383835 -0.805315
    17 11.692554 0.000000 0.000001 0.000000 0.000000 -1.973775
    18 11.481672 0.000000 -0.000032 1.575340 -0.038535 -0.147291
    19 3.851891 0.123226 -1.223225 -0.469917 0.161694 -0.812367
    20 1.312564 0.000001 0.000000 0.000000 0.004679 -0.439781
    21 0.729362 0.000000 0.000000 0.000000 0.002406 -0.244334
    22 3.926700 0.316309 -0.458788 -0.150484 0.082976 -0.742886
    23 1.539095 0.000001 0.000000 0.000000 0.002914 -0.247797
    24 1.196321 -0.000001 0.000000 0.000000 0.004796 -0.430832
    25 3.883690 0.211047 0.404099 0.087700 0.031633 -0.519958
    26 1.719576 0.000000 0.000000 0.000000 0.005013 -0.366478
    27 1.209180 0.000000 0.000000 0.000000 0.002808 -0.216400
    28 3.867672 0.115964 1.301215 0.352472 -0.032983 -0.463854
    29 1.719428 0.000000 0.000000 0.000000 0.005105 -0.363009
    30 1.099666 -0.000001 0.000000 0.000000 0.003243 -0.244331
    31 0.837299 -0.302047 1.313446 -1.251008 -0.669804 -0.720186
    32 1.789784 0.000000 -0.000001 0.000000 -0.002153 0.228622
    33 1.206999 0.000000 -0.000001 0.000000 -0.003294 0.363001
    34 2.056792 0.981240 -1.937610 -2.213492 1.282906 2.380253
    35 6.028143 0.000001 0.000000 1.072379 -0.732785 -0.781267
    36 11.692554 0.000000 0.000001 0.000000 0.000000 -1.306416
    37 11.481699 0.000000 0.000003 -1.555790 0.037272 0.146760
    38 3.851859 0.133064 1.220452 0.469816 -0.167716 -0.811412
    39 1.312561 0.000001 0.000000 0.000000 -0.007097 -0.439763
    40 0.729364 0.000000 0.000000 0.000000 -0.003653 -0.244305
    41 3.926668 0.319868 0.458387 0.150457 -0.088581 -0.742367
    42 1.539095 0.000000 0.000000 0.000000 -0.004404 -0.247771
    43 1.196326 0.000001 0.000000 0.000000 -0.007266 -0.430795
    44 3.883656 0.207493 -0.403698 -0.087715 -0.035752 -0.519729
    45 1.719576 0.000002 0.000000 0.000000 -0.007590 -0.366436
    46 1.209181 -0.000001 0.000000 0.000000 -0.004245 -0.216376
    47 3.867642 0.104977 -1.303937 -0.352488 0.029267 -0.464083
    48 1.719425 0.000000 0.000000 0.000000 -0.007728 -0.362970
    49 1.099666 0.000001 0.000000 0.000000 -0.004918 -0.244312
    50 0.837268 -0.312959 -1.310521 1.248005 0.664326 -0.725045
    51 1.789784 0.000000 0.000000 0.000000 0.003275 0.228615
    52 1.206998 0.000000 0.000000 0.000000 0.005003 0.362980
    53 11.687500 -0.000001 0.000003 0.000000 0.000000 -0.029498
    54 5.738281 0.000000 0.000002 0.000687 0.000000 0.000000
    55 5.738281 -0.000001 0.000000 0.000080 0.000000 0.000000
    56 1.500000 0.000003 0.000002 0.000000 0.000000 0.000000
    57 1.499023 0.000000 0.000003 0.000000 0.000000 0.000000
    58 2.078125 1.478516 -5.000000 0.000000 0.000000 0.000000
    59 5.164063 0.000004 -0.000001 0.000000 0.000000 0.000000
    60 11.476563 -0.000001 0.000001 0.000149 0.000000 0.000000
    61 5.558594 0.000002 0.000000 0.000000 0.000000 0.000000
    62 5.558594 0.000000 0.000001 0.000000 0.000000 0.000000
    63 5.164063 0.000000 0.000000 0.000000 0.000000 0.000000
    64 11.476563 0.000003 0.000004 0.001270 0.000000 0.000000
    65 2.078125 1.478516 5.000000 0.000000 0.000000 0.000000
    66 11.687500 0.000000 0.000002 0.000000 0.000000 -0.029498
  time 5
    0 -17.680017 17.146407 35.547294 1.758997 -0.059245 -0.086221
    1 3.890452 -0.000004 -0.000003 -1.765386 -0.076085 -1.784641
    2 17.848177 0.000000 0.000000 0.000000 0.000000 0.756878
    3 16.525253 0.000000 0.000000 -0.055250 0.157406 -1.046952
    4 6.878906 0.000000 0.000000 -0.007299 -0.002950 -0.584373
    5 -3.890452 0.000004 0.000007 -1.607538 -0.863397 -1.367191
    6 17.848173 0.000000 0.000000 0.000000 0.000000 0.917363
    7 16.525257 0.000000 0.000000 0.034623 0.069757 -1.107062
    8 6.878906 0.000000 0.000000 -0.081332 -0.002949 -0.584373
    9 0.000005 3.345128 -2.981901 1.575148 0.196312 1.554837
    10 3.998799 0.000000 0.000000 0.018984 -0.023825 0.030261
    11 3.518565 0.000000 0.000000 -0.017347 0.002804 0.097306
    12 8.923110 0.000000 0.000000 -0.013003 0.003380 0.253935
    13 3.307271 0.000000 0.000000 3.151561 0.012871 0.518601
    14 3.601524 -0.000001 0.000000 0.072501 0.009858 0.505364
    15 2.056784 0.981236 1.937660 2.259427 -1.197310 2.246038
    16 6.028142 0.000001 0.000000 -1.369045 0.617541 -0.826339
    17 11.692554 0.000000 0.000001 0.000000 0.000000 -1.822883
    18 11.481672 0.000000 -0.000032 1.575782 -0.038497 -0.157694
    19 3.851891 0.123226 -1.223225 -0.469917 0.161694 -0.812367
    20 1.312564 0.000001 0.000000 0.000000 0.004679 -0.439781
    21 0.729362 0.000000 0.000000 0.000000 0.002406 -0.244334
    22 3.926700 0.316309 -0.458788 -0.150484 0.082976 -0.742886
    23 1.539095 0.000001 0.000000 0.000000 0.002914 -0.247797
    24 1.196321 -0.000001 0.000000 0.000000 0.004796 -0.430832
    25 3.883690 0.211047 0.404099 0.087700 0.031633 -0.519958
    26 1.719576 0.000000 0.000000 0.000000 0.005013 -0.366478
    27 1.209180 0.000000 0.000000 0.000000 0.002808 -0.216400
    28 3.867672 0.115964 1.301215 0.352472 -0.032983 -0.463854
    29 1.719428 0.000000 0.000000 0.000000 0.005105 -0.363009
    30 1.099666 -0.000001 0.000000 0.000000 0.003243 -0.244331
    31 0.837299 -0.302047 1.313446 -1.251008 -0.669804 -0.720186
    32 1.789784 0.000000 -0.000001 0.000000 -0.002153 0.228622
    33 1.206999 0.000000 -0.000001 0.000000 -0.003294 0.363001
    34 2.056792 0.981240 -1.937610 -2.149995 1.228882 2.437914
    35 6.028143 0.000001 0.000000 1.223913 -0.401357 -0.824234
    36 11.692554 0.000000 0.000001 0.000000 0.000000 -1.389708
    37 11.481699 0.000000 0.000003 -1.555503 0.037144 0.155214
    38 3.851859 0.133064 1.220452 0.469816 -0.167716 -0.811412
    39 1.312561 0.000001 0.000000 0.000000 -0.007097 -0.439763
    40 0.729364 0.000000 0.000000 0.000000 -0.003653 -0.244305
    41 3.926668 0.319868 0.458387 0.150457 -0.088581 -0.742367
    42 1.539095 0.000000 0.000000 0.000000 -0.004404 -0.247771
    43 1.196326 0.000001 0.000000 0.000000 -0.007266 -0.430795
    44 3.883656 0.207493 -0.403698 -0.087715 -0.035752 -0.519729
    45 1.719576 0.000002 0.000000 0.000000 -0.007590 -0.366436
    46 1.209181 -0.000001 0.000000 0.000000 -0.004245 -0.216376
    47 3.867642 0.104977 -1.303937 -0.352488 0.029267 -0.464083
    48 1.719425 0.000000 0.000000 0.000000 -0.007728 -0.362970
    49 1.099666 0.000001 0.000000 0.000000 -0.004918 -0.244312
    50 0.837268 -0.312959 -1.310521 1.248005 0.664326 -0.725045
    51 1.789784 0.000000 0.000000 0.000000 0.003275 0.228615
    52 1.206998 0.000000 0.000000 0.000000 0.005003 0.362980
    53 11.687500 -0.000001 0.000003 0.000000 0.000000 -0.029498
    54 5.738281 0.000000 0.000002 0.000687 0.000000 0.000000
    55 5.738281 -0.000001 0.000000 0.000080 0.000000 0.000000
    56 1.500000 0.000003 0.000002 0.000000 0.000000 0.000000
    57 1.499023 0.000000 0.000003 0.000000 0.000000 0.000000
    58 2.078125 1.478516 -5.000000 0.000000 0.000000 0.000000
    59 5.164063 0.000004 -0.000001 0.000000 0.000000 0.000000
    60 11.476563 -0.000001 0.000001 0.000149 0.000000 0.000000
    61 5.558594 0.000002 0.000000 0.000000 0.000000 0.000000
    62 5.558594 0.000000 0.000001 0.000000 0.000000 0.000000
    63 5.164063 0.000000 0.000000 0.000000 0.000000 0.000000
    64 11.476563 0.000003 0.000004 0.001270 0.000000 0.000000
    65 2.078125 1.478516 5.000000 0.000000 0.000000 0.000000
    66 11.687500 0.000000 0.000002 0.000000 0.000000 -0.029498
  time 6
    0 -21.215550 20.681940 34.383196 1.763590 -0.069281 -0.032463
    1 3.890452 -0.000004 -0.000003 -1.707673 0.007088 -1.809505
    2 17.848177 0.000000 0.000000 0.000000 0.000000 0.595307
    3 16.525253 0.000000 0.000000 -0.045901 0.075516 -1.079205
    4 6.878906 0.000000 0.000000 -0.007299 -0.002950 -0.584373
    5 -3.890452 0.000004 0.000007 -1.528310 -0.974061 -1.455835
    6 17.848173 0.000000 0.000000 0.000000 0.000000 1.247895
    7 16.525257 0.000000 0.000000 0.161821 0.148727 -1.302328
    8 6.878906 0.000000 0.000000 -0.081332 -0.002949 -0.584373
    9 0.000005 3.345128 -2.981901 1.567760 0.196264 1.544794
    10 3.998799 0.000000 0.000000 0.049460 0.007359 0.022857
    11 3.518565 0.000000 0.000000 0.018395 0.000851 0.097306
    12 8.923110 0.000000 0.000000 0.012967 -0.003380 0.253935
    13 3.307271 0.000000 0.000000 3.125963 -0.020122 0.610125
    14 3.601524 -0.000001 0.000000 -0.049489 -0.028131 0.596388
    15 2.056784 0.981236 1.937660 2.077473 -1.134097 2.420891
    16 6.028142 0.000001 0.000000 -1.156185 0.854201 -0.678145
    17 11.692554 0.000000 0.000001 0.000000 0.000000 -1.674768
    18 11.481672 0.000000 -0.000032 1.575837 -0.038460 -0.159667
    19 3.851891 0.123226 -1.223225 -0.469917 0.161694 -0.812367
    20 1.312564 0.000001 0.000000 0.000000 0.004679 -0.439781
    21 0.729362 0.000000 0.000000 0.000000 0.002406 -0.244334
    22 3.926700 0.316309 -0.458788 -0.150484 0.082976 -0.742886
    23 1.539095 0.000001 0.000000 0.000000 0.002914 -0.247797
    24 1.196321 -0.000001 0.000000 0.000000 0.004796 -0.430832
    25 3.883690 0.211047 0.404099 0.087700 0.031633 -0.519958
    26 1.719576 0.000000 0.000000 0.000000 0.005013 -0.366478
    27 1.209180 0.000000 0.000000 0.000000 0.002808 -0.216400
    28 3.867672 0.115964 1.301215 0.352472 -0.032983 -0.463854
    29 1.719428 0.000000 0.000000 0.000000 0.005105 -0.363009
    30 1.099666 -0.000001 0.000000 0.000000 0.003243 -0.244331
    31 0.837299 -0.302047 1.313446 -1.251008 -0.669804 -0.720186
    32 1.789784 0.000000 -0.000001 0.000000 -0.002153 0.228622
    33 1.206999 0.000000 -0.000001 0.000000 -0.003294 0.363001
    34 2.056792 0.981240 -1.937610 -2.066062 1.138345 2.510677
    35 6.028143 0.000001 0.000000 1.380593 -0.092748 -0.681540
    36 11.692554 0.000000 0.000001 0.000000 0.000000 -1.508873
    37 11.481699 0.000000 0.000003 -1.555311 0.037092 0.159496
    38 3.851859 0.133064 1.220452 0.469816 -0.167716 -0.811412
    39 1.312561 0.000001 0.000000 0.000000 -0.007097 -0.439763
    40 0.729364 0.000000 0.000000 0.000000 -0.003653 -0.244305
    41 3.926668 0.319868 0.458387 0.150457 -0.088581 -0.742367
    42 1.539095 0.000000 0.000000 0.000000 -0.004404 -0.247771
    43 1.196326 0.000001 0.000000 0.000000 -0.007266 -0.430795
    44 3.883656 0.207493 -0.403698 -0.087715 -0.035752 -0.519729
    45 1.719576 0.000002 0.000000 0.000000 -0.007590 -0.366436
    46 1.209181 -0.000001 0.000000 0.000000 -0.004245 -0.216376
    47 3.867642 0.104977 -1.303937 -0.352488 0.029267 -0.464083
    48 1.719425 0.000000 0.000000 0.000000 -0.007728 -0.362970
    49 1.099666 0.000001 0.000000 0.000000 -0.004918 -0.244312
    50 0.837268 -0.312959 -1.310521 1.248005 0.664326 -0.725045
    51 1.789784 0.000000 0.000000 0.000000 0.003275 0.228615
    52 1.206998 0.000000 0.000000 0.000000 0.005003 0.362980
    53 11.687500 -0.000001 0.000003 0.000000 0.000000 -0.029498
    54 5.738281 0.000000 0.000002 0.000687 0.000000 0.000000
    55 5.738281 -0.000001 0.000000 0.000080 0.000000 0.000000
    56 1.500000 0.000003 0.000002 0.000000 0.000000 0.000000
    57 1.499023 0.000000 0.000003 0.000000 0.000000 0.000000
    58 2.078125 1.478516 -5.000000 0.000000 0.000000 0.000000
    59 5.164063 0.000004 -0.000001 0.000000 0.000000 0.000000
    60 11.476563 -0.000001 0.000001 0.000149 0.000000 0.000000
    61 5.558594 0.000002 0.000000 0.000000 0.000000 0.000000
    62 5.558594 0.000000 0.000001 0.000000 0.000000 0.000000
    63 5.164063 0.000000 0.000000 0.000000 0.000000 0.000000
    64 11.476563 0.000003 0.000004 0.001270 0.000000 0.000000
    65 2.078125 1.478516 5.000000 0.000000 0.000000 0.000000
    66 11.687500 0.000000 0.000002 0.000000 0.000000 -0.029498
  time 7
    0 -24.751084 24.217474 33.672237 1.744923 -0.119342 0.024833
    1 3.890452 -0.000004 -0.000003 -1.703933 0.041066 -1.823508
    2 17.848177 0.000000 0.000000 0.000000 0.000000 0.520351
    3 16.525253 0.000000 0.000000 0.038704 -0.013503 -1.391471
    4 6.878906 0.000000 0.000000 -0.007299 -0.002950 -0.584373
    5 -3.890452 0.000004 0.000007 -1.381003 -0.981521 -1.648971
    6 17.848173 0.000000 0.000000 0.000000 0.000000 1.489407
    7 16.525257 0.000000 0.000000 0.256232 0.209144 -1.436620
    8 6.878906 0.000000 0.000000 -0.081332 -0.002949 -0.584373
    9 0.000005 3.345128 -2.981901 1.551973 0.195766 1.493784
    10 3.998799 0.000000 0.000000 0.070517 0.045194 0.036305
    11 3.518565 0.000000 0.000000 0.049695 -0.001031 0.097233
    12 8.923110 0.000000 0.000000 0.035726 -0.009300 0.253791
    13 3.307271 0.000000 0.000000 3.094037 -0.061097 0.702836
    14 3.601524 -0.000001 0.000000 -0.167784 -0.066961 0.691143
    15 2.056784 0.981236 1.937660 1.936603 -1.060716 2.557421
    16 6.028142 0.000001 0.000000 -0.852904 1.030128 -0.360639
    17 11.692554 0.000000 0.000001 0.000000 0.000000 -1.532809
    18 11.481672 0.000000 -0.000032 1.575616 -0.038497 -0.154178
    19 3.851891 0.123226 -1.223225 -0.469917 0.161694 -0.812367
    20 1.312564 0.000001 0.000000 0.000000 0.004679 -0.439781
    21 0.729362 0.000000 0.000000 0.000000 0.002406 -0.244334
    22 3.926700 0.316309 -0.458788 -0.150484 0.082976 -0.742886
    23 1.539095 0.000001 0.000000 0.000000 0.002914 -0.247797
    24 1.196321 -0.000001 0.000000 0.000000 0.004796 -0.430832
    25 3.883690 0.211047 0.404099 0.087700 0.031633 -0.519958
    26 1.719576 0.000000 0.000000 0.000000 0.005013 -0.366478
    27 1.209180 0.000000 0.000000 0.000000 0.002808 -0.216400
    28 3.867672 0.115964 1.301215 0.352472 -0.032983 -0.463854
    29 1.719428 0.000000 0.000000 0.000000 0.005105 -0.363009
    30 1.099666 -0.000001 0.000000 0.000000 0.003243 -0.244331
    31 0.837299 -0.302047 1.313446 -1.251008 -0.669804 -0.720186
    32 1.789784 0.000000 -0.000001 0.000000 -0.002153 0.228622
    33 1.206999 0.000000 -0.000001 0.000000 -0.003294 0.363001
    34 2.056792 0.981240 -1.937610 -2.009863 1.044275 2.552687
    35 6.028143 0.000001 0.000000 1.518198 0.103302 -0.447508
    36 11.692554 0.000000 0.000001 0.000000 0.000000 -1.655706
    37 11.481699 0.000000 0.000003 -1.555311 0.037092 0.159990
    38 3.851859 0.133064 1.220452 0.469816 -0.167716 -0.811412
    39 1.312561 0.000001 0.000000 0.000000 -0.007097 -0.439763
    40 0.729364 0.000000 0.000000 0.000000 -0.003653 -0.244305
    41 3.926668 0.319868 0.458387 0.150457 -0.088581 -0.742367
    42 1.539095 0.000000 0.000000 0.000000 -0.004404 -0.247771
    43 1.196326 0.000001 0.000000 0.000000 -0.007266 -0.430795
    44 3.883656 0.207493 -0.403698 -0.087715 -0.035752 -0.519729
    45 1.719576 0.000002 0.000000 0.000000 -0.007590 -0.366436
    46 1.209181 -0.000001 0.000000 0.000000 -0.004245 -0.216376
    47 3.867642 0.104977 -1.303937 -0.352488 0.029267 -0.464083
    48 1.719425 0.000000 0.000000 0.000000 -0.007728 -0.362970
    49 1.099666 0.000001 0.000000 0.000000 -0.004918 -0.244312
    50 0.837268 -0.312959 -1.310521 1.248005 0.664326 -0.725045
    51 1.789784 0.000000 0.000000 0.000000 0.003275 0.228615
    52 1.206998 0.000000 0.000000 0.000000 0.005003 0.362980
    53 11.687500 -0.000001 0.000003 0.000000 0.000000 -0.029498
    54 5.738281 0.000000 0.000002 0.000687 0.000000 0.000000
    55 5.738281 -0.000001 0.000000 0.000080 0.000000 0.000000
    56 1.500000 0.000003 0.000002 0.000000 0.000000 0.000000
    57 1.499023 0.000000 0.000003 0.000000 0.000000 0.000000
    58 2.078125 1.478516 -5.000000 0.000000 0.000000 0.000000
    59 5.164063 0.000004 -0.000001 0.000000 0.000000 0.000000
    60 11.476563 -0.000001 0.000001 0.000149 0.000000 0.000000
    61 5.558594 0.000002 0.000000 0.000000 0.000000 0.000000
    62 5.558594 0.000000 0.000001 0.000000 0.000000 0.000000
    63 5.164063 0.000000 0.000000 0.000000 0.000000 0.000000
    64 11.476563 0.000003 0.000004 0.001270 0.000000 0.000000
    65 2.078125 1.478516 5.000000 0.000000 0.000000 0.000000
    66 11.687500 0.000000 0.000002 0.000000 0.000000 -0.029498
  time 8
    0 -28.286617 27.753007 33.519888 1.703880 -0.178161 0.081118
    1 3.890452 -0.000004 -0.000003 -1.578888 -0.075771 -1.837183
    2 17.848177 0.000000 0.000000 0.000000 0.000000 0.682149
    3 16.525253 0.000000 0.000000 0.059193 -0.099833 -1.713243
    4 6.878906 0.000000 0.000000 -0.007299 -0.002950 -0.584373
    5 -3.890452 0.000004 0.000007 -1.249660 -0.891818 -1.854771
    6 17.848173 0.000000 0.000000 0.000000 0.000000 1.641260
    7 16.525257 0.000000 0.000000 0.341599 0.212948 -1.492580
    8 6.878906 0.000000 0.000000 -0.081332 -0.002949 -0.584373
    9 0.000005 3.345128 -2.981901 1.534617 0.194529 1.433278
    10 3.998799 0.000000 0.000000 0.081915 0.076641 0.065857
    11 3.518565 0.000000 0.000000 0.071777 -0.002673 0.097131
    12 8.923110 0.000000 0.000000 0.051809 -0.013483 0.253611
    13 3.307271 0.000000 0.000000 3.076492 -0.083569 0.745673
    14 3.601524 -0.000001 0.000000 -0.269762 -0.095900 0.738473
    15 2.056784 0.981236 1.937660 1.861715 -1.020864 2.633590
    16 6.028142 0.000001 0.000000 -0.511390 1.111727 0.014238
    17 11.692554 0.000000 0.000001 0.000000 0.000000 -1.412846
    18 11.481672 0.000000 -0.000032 1.575063 -0.038572 -0.140009
    19 3.851891 0.123226 -1.223225 -0.469917 0.161694 -0.812367
    20 1.312564 0.000001 0.000000 0.000000 0.004679 -0.439781
    21 0.729362 0.000000 0.000000 0.000000 0.002406 -0.244334
    22 3.926700 0.316309 -0.458788 -0.150484 0.082976 -0.742886
    23 1.539095 0.000001 0.000000 0.000000 0.002914 -0.247797
    24 1.196321 -0.000001 0.000000 0.000000 0.004796 -0.430832
    25 3.883690 0.211047 0.404099 0.087700 0.031633 -0.519958
    26 1.719576 0.000000 0.000000 0.000000 0.005013 -0.366478
    27 1.209180 0.000000 0.000000 0.000000 0.002808 -0.216400
    28 3.867672 0.115964 1.301215 0.352472 -0.032983 -0.463854
    29 1.719428 0.000000 0.000000 0.000000 0.005105 -0.363009
    30 1.099666 -0.000001 0.000000 0.000000 0.003243 -0.244331
    31 0.837299 -0.302047 1.313446 -1.251008 -0.669804 -0.720186
    32 1.789784 0.000000 -0.000001 0.000000 -0.002153 0.228622
    33 1.206999 0.000000 -0.000001 0.000000 -0.003294 0.363001
    34 2.056792 0.981240 -1.937610 -1.997090 0.989976 2.554335
    35 6.028143 0.000001 0.000000 1.626615 0.169559 -0.266973
    36 11.692554 0.000000 0.000001 0.000000 0.000000 -1.821564
    37 11.481699 0.000000 0.000003 -1.555455 0.037144 0.156202
    38 3.851859 0.133064 1.220452 0.469816 -0.167716 -0.811412
    39 1.312561 0.000001 0.000000 0.000000 -0.007097 -0.439763
    40 0.729364 0.000000 0.000000 0.000000 -0.003653 -0.244305
    41 3.926668 0.319868 0.458387 0.150457 -0.088581 -0.742367
    42 1.539095 0.000000 0.000000 0.000000 -0.004404 -0.247771
    43 1.196326 0.000001 0.000000 0.000000 -0.007266 -0.430795
    44 3.883656 0.207493 -0.403698 -0.087715 -0.035752 -0.519729
    45 1.719576 0.000002 0.000000 0.000000 -0.007590 -0.366436
    46 1.209181 -0.000001 0.000000 0.000000 -0.004245 -0.216376
    47 3.867642 0.104977 -1.303937 -0.352488 0.029267 -0.464083
    48 1.719425 0.000000 0.000000 0.000000 -0.007728 -0.362970
    49 1.099666 0.000001 0.000000 0.000000 -0.004918 -0.244312
    50 0.837268 -0.312959 -1.310521 1.248005 0.664326 -0.725045
    51 1.789784 0.000000 0.000000 0.000000 0.003275 0.228615
    52 1.206998 0.000000 0.000000 0.000000 0.005003 0.362980
    53 11.687500 -0.000001 0.000003 0.000000 0.000000 -0.029498
    54 5.738281 0.000000 0.000002 0.000687 0.000000 0.000000
    55 5.738281 -0.000001 0.000000 0.000080 0.000000 0.000000
    56 1.500000 0.000003 0.000002 0.000000 0.000000 0.000000
    57 1.499023 0.000000 0.000003 0.000000 0.000000 0.000000
    58 2.078125 1.478516 -5.000000 0.000000 0.000000 0.000000
    59 5.164063 0.000004 -0.000001 0.000000 0.000000 0.000000
    60 11.476563 -0.000001 0.000001 0.000149 0.000000 0.000000
    61 5.558594 0.000002 0.000000 0.000000 0.000000 0.000000
    62 5.558594 0.000000 0.000001 0.000000 0.000000 0.000000
    63 5.164063 0.000000 0.000000 0.000000 0.000000 0.000000
    64 11.476563 0.000003 0.000004 0.001270 0.000000 0.000000
    65 2.078125 1.478516 5.000000 0.000000 0.000000 0.000000
    66 11.687500 0.000000 0.000002 0.000000 0.000000 -0.029498
  time 9
    0 -31.822151 31.288541 33.875368 1.662836 -0.199207 0.130076
    1 3.890452 -0.000004 -0.000003 -1.596904 -0.235024 -1.737595
    2 17.848177 0.000000 0.000000 0.000000 0.000000 0.838193
    3 16.525253 0.000000 0.000000 -0.009291 0.003604 -1.662736
    4 6.878906 0.000000 0.000000 -0.007299 -0.002950 -0.584373
    5 -3.890452 0.000004 0.000007 -1.184622 -0.749269 -1.983969
    6 17.848173 0.000000 0.000000 0.000000 0.000000 1.698824
    7 16.525257 0.000000 0.000000 0.412186 0.142723 -1.450527
    8 6.878906 0.000000 0.000000 -0.081332 -0.002949 -0.584373
    9 0.000005 3.345128 -2.981901 1.525358 0.193887 1.410707
    10 3.998799 0.000000 0.000000 0.085294 0.089237 0.095410
    11 3.518565 0.000000 0.000000 0.084018 -0.004003 0.097073
    12 8.923110 0.000000 0.000000 0.060726 -0.015808 0.253480
    13 3.307271 0.000000 0.000000 3.083299 -0.074868 0.713934
    14 3.601524 -0.000001 0.000000 -0.329757 -0.097128 0.711960
    15 2.056784 0.981236 1.937660 1.852521 -1.053216 2.649686
    16 6.028142 0.000001 0.000000 -0.298625 1.129684 0.221486
    17 11.692554 0.000000 0.000001 0.000000 0.000000 -1.325764
    18 11.481672 0.000000 -0.000032 1.573957 -0.038683 -0.111275
    19 3.851891 0.123226 -1.223225 -0.469917 0.161694 -0.812367
    20 1.312564 0.000001 0.000000 0.000000 0.004679 -0.439781
    21 0.729362 0.000000 0.000000 0.000000 0.002406 -0.244334
    22 3.926700 0.316309 -0.458788 -0.150484 0.082976 -0.742886
    23 1.539095 0.000001 0.000000 0.000000 0.002914 -0.247797
    24 1.196321 -0.000001 0.000000 0.000000 0.004796 -0.430832
    25 3.883690 0.211047 0.404099 0.087700 0.031633 -0.519958
    26 1.719576 0.000000 0.000000 0.000000 0.005013 -0.366478
    27 1.209180 0.000000 0.000000 0.000000 0.002808 -0.216400
    28 3.867672 0.115964 1.301215 0.352472 -0.032983 -0.463854
    29 1.719428 0.000000 0.000000 0.000000 0.005105 -0.363009
    30 1.099666 -0.000001 0.000000 0.000000 0.003243 -0.244331
    31 0.837299 -0.302047 1.313446 -1.251008 -0.669804 -0.720186
    32 1.789784 0.000000 -0.000001 0.000000 -0.002153 0.228622
    33 1.206999 0.000000 -0.000001 0.000000 -0.003294 0.363001
    34 2.056792 0.981240 -1.937610 -2.044987 1.008665 2.505735
    35 6.028143 0.000001 0.000000 1.711343 0.139915 -0.213941
    36 11.692554 0.000000 0.000001 0.000000 0.000000 -1.993377
    37 11.481699 0.000000 0.000003 -1.555838 0.037298 0.146458
    38 3.851859 0.133064 1.220452 0.469816 -0.167716 -0.811412
    39 1.312561 0.000001 0.000000 0.000000 -0.007097 -0.439763
    40 0.729364 0.000000 0.000000 0.000000 -0.003653 -0.244305
    41 3.926668 0.319868 0.458387 0.150457 -0.088581 -0.742367
    42 1.539095 0.000000 0.000000 0.000000 -0.004404 -0.247771
    43 1.196326 0.000001 0.000000 0.000000 -0.007266 -0.430795
    44 3.883656 0.207493 -0.403698 -0.087715 -0.035752 -0.519729
    45 1.719576 0.000002 0.000000 0.000000 -0.007590 -0.366436
    46 1.209181 -0.000001 0.000000 0.000000 -0.004245 -0.216376
    47 3.867642 0.104977 -1.303937 -0.352488 0.029267 -0.464083
    48 1.719425 0.000000 0.000000 0.000000 -0.007728 -0.362970
    49 1.099666 0.000001 0.000000 0.000000 -0.004918 -0.244312
    50 0.837268 -0.312959 -1.310521 1.248005 0.664326 -0.725045
    51 1.789784 0.000000 0.000000 0.000000 0.003275 0.228615
    52 1.206998 0.000000 0.000000 0.000000 0.005003 0.362980
    53 11.687500 -0.000001 0.000003 0.000000 0.000000 -0.029498
    54 5.738281 0.000000 0.000002 0.000687 0.000000 0.000000
    55 5.738281 -0.000001 0.000000 0.000080 0.000000 0.000000
    56 1.500000 0.000003 0.000002 0.000000 0.000000 0.000000
    57 1.499023 0.000000 0.000003 0.000000 0.000000 0.000000
    58 2.078125 1.478516 -5.000000 0.000000 0.000000 0.000000
    59 5.164063 0.000004 -0.000001 0.000000 0.000000 0.000000
    60 11.476563 -0.000001 0.000001 0.000149 0.000000 0.000000
    61 5.558594 0.000002 0.000000 0.000000 0.000000 0.000000
    62 5.558594 0.000000 0.000001 0.000000 0.000000 0.000000
    63 5.164063 0.000000 0.000000 0.000000 0.000000 0.000000
    64 11.476563 0.000003 0.000004 0.001270 0.000000 0.000000
    65 2.078125 1.478516 5.000000 0.000000 0.000000 0.000000
    66 11.687500 0.000000 0.000002 0.000000 0.000000 -0.029498
  time 10
    0 -35.357684 34.824074 34.629297 1.647113 -0.171105 0.163872
    1 3.890452 -0.000004 -0.000003 -1.550642 -0.353926 -1.629959
    2 17.848177 0.000000 0.000000 0.000000 0.000000 0.830092
    3 16.525253 0.000000 0.000000 -0.094706 0.035129 -1.524171
    4 6.878906 0.000000 0.000000 -0.007299 -0.002950 -0.584373
    5 -3.890452 0.000004 0.000007 -1.164688 -0.609962 -2.036254
    6 17.848173 0.000000 0.000000 0.000000 0.000000 1.667128
    7 16.525257 0.000000 0.000000 0.443184 0.034252 -1.360889
    8 6.878906 0.000000 0.000000 -0.081332 -0.002949 -0.584373
    9 0.000005 3.345128 -2.981901 1.527331 0.194658 1.438698
    10 3.998799 0.000000 0.000000 0.078811 0.087440 0.108841
    11 3.518565 0.000000 0.000000 0.087692 -0.005034 0.097044
    12 8.923110 0.000000 0.000000 0.063446 -0.016515 0.253444
    13 3.307271 0.000000 0.000000 3.103432 -0.049017 0.644895
    14 3.601524 -0.000001 0.000000 -0.348536 -0.071112 0.645776
    15 2.056784 0.981236 1.937660 1.901744 -1.142460 2.609446
    16 6.028142 0.000001 0.000000 -0.288780 1.136593 0.170936
    17 11.692554 0.000000 0.000001 0.000000 0.000000 -1.271113
    18 11.481672 0.000000 -0.000032 1.568427 -0.038720 0.033970
    19 3.851891 0.123226 -1.223225 -0.469917 0.161694 -0.812367
    20 1.312564 0.000001 0.000000 0.000000 0.004679 -0.439781
    21 0.729362 0.000000 0.000000 0.000000 0.002406 -0.244334
    22 3.926700 0.316309 -0.458788 -0.150484 0.082976 -0.742886
    23 1.539095 0.000001 0.000000 0.000000 0.002914 -0.247797
    24 1.196321 -0.000001 0.000000 0.000000 0.004796 -0.430832
    25 3.883690 0.211047 0.404099 0.087700 0.031633 -0.519958
    26 1.719576 0.000000 0.000000 0.000000 0.005013 -0.366478
    27 1.209180 0.000000 0.000000 0.000000 0.002808 -0.216400
    28 3.867672 0.115964 1.301215 0.352472 -0.032983 -0.463854
    29 1.719428 0.000000 0.000000 0.000000 0.005105 -0.363009
    30 1.099666 -0.000001 0.000000 0.000000 0.003243 -0.244331
    31 0.837299 -0.302047 1.313446 -1.251008 -0.669804 -0.720186
    32 1.789784 0.000000 -0.000001 0.000000 -0.002153 0.228622
    33 1.206999 0.000000 -0.000001 0.000000 -0.003294 0.363001
    34 2.056792 0.981240 -1.937610 -2.158206 1.080788 2.401670
    35 6.028143 0.000001 0.000000 1.759518 0.041246 -0.222050
    36 11.692554 0.000000 0.000001 0.000000 0.000000 -2.144421
    37 11.481699 0.000000 0.000003 -1.556652 0.037607 0.123925
    38 3.851859 0.133064 1.220452 0.469816 -0.167716 -0.811412
    39 1.312561 0.000001 0.000000 0.000000 -0.007097 -0.439763
    40 0.729364 0.000000 0.000000 0.000000 -0.003653 -0.244305
    41 3.926668 0.319868 0.458387 0.150457 -0.088581 -0.742367
    42 1.539095 0.000000 0.000000 0.000000 -0.004404 -0.247771
    43 1.196326 0.000001 0.000000 0.000000 -0.007266 -0.430795
    44 3.883656 0.207493 -0.403698 -0.087715 -0.035752 -0.519729
    45 1.719576 0.000002 0.000000 0.000000 -0.007590 -0.366436
    46 1.209181 -0.000001 0.000000 0.000000 -0.004245 -0.216376
    47 3.867642 0.104977 -1.303937 -0.352488 0.029267 -0.464083
    48 1.719425 0.000000 0.000000 0.000000 -0.007728 -0.362970
    49 1.099666 0.000001 0.000000 0.000000 -0.004918 -0.244312
    50 0.837268 -0.312959 -1.310521 1.248005 0.664326 -0.725045
    51 1.789784 0.000000 0.000000 0.000000 0.003275 0.228615
    52 1.206998 0.000000 0.000000 0.000000 0.005003 0.362980
    53 11.687500 -0.000001 0.000003 0.000000 0.000000 -0.029498
    54 5.738281 0.000000 0.000002 0.000687 0.000000 0.000000
    55 5.738281 -0.000001 0.000000 0.000080 0.000000 0.000000
    56 1.500000 0.000003 0.000002 0.000000 0.000000 0.000000
    57 1.499023 0.000000 0.000003 0.000000 0.000000 0.000000
    58 2.078125 1.478516 -5.000000 0.000000 0.000000 0.000000
    59 5.164063 0.000004 -0.000001 0.000000 0.000000 0.000000
    60 11.476563 -0.000001 0.000001 0.000149 0.000000 0.000000
    61 5.558594 0.000002 0.000000 0.000000 0.000000 0.000000
    62 5.558594 0.000000 0.000001 0.000000 0.000000 0.000000
    63 5.164063 0.000000 0.000000 0.000000 0.000000 0.000000
    64 11.476563 0.000003 0.000004 0.001270 0.000000 0.000000
    65 2.078125 1.478516 5.000000 0.000000 0.000000 0.000000
    66 11.687500 0.000000 0.000002 0.000000 0.000000 -0.029498
  time 11
    0 -38.893218 38.359608 35.594170 1.664426 -0.118338 0.175748
    1 3.890452 -0.000004 -0.000003 -1.550948 -0.428705 -1.490262
    2 17.848177 0.000000 0.000000 0.000000 0.000000 0.672458
    3 16.525253 0.000000 0.000000 -0.167067 0.084397 -1.316940
    4 6.878906 0.000000 0.000000 -0.007299 -0.002950 -0.584373
    5 -3.890452 0.000004 0.000007 -1.167560 -0.506404 -2.042780
    6 17.848173 0.000000 0.000000 0.000000 0.000000 1.565893
    7 16.525257 0.000000 0.000000 0.435311 -0.064428 -1.255498
    8 6.878906 0.000000 0.000000 -0.081332 -0.002949 -0.584373
    9 0.000005 3.345128 -2.981901 1.536591 0.195750 1.492939
    10 3.998799 0.000000 0.000000 0.060330 0.081339 0.098730
    11 3.518565 0.000000 0.000000 0.084217 -0.005765 0.097073
    12 8.923110 0.000000 0.000000 0.060966 -0.015868 0.253480
    13 3.307271 0.000000 0.000000 3.127209 -0.018564 0.568792
    14 3.601524 -0.000001 0.000000 -0.338107 -0.036824 0.569328
    15 2.056784 0.981236 1.937660 2.012928 -1.243522 2.506354
    16 6.028142 0.000001 0.000000 -0.397266 1.096089 -0.097888
    17 11.692554 0.000000 0.000001 0.000000 0.000000 -1.248892
    18 11.481672 0.000000 -0.000032 1.563892 -0.038200 0.151163
    19 3.851891 0.123226 -1.223225 -0.469917 0.161694 -0.812367
    20 1.312564 0.000001 0.000000 0.000000 0.004679 -0.439781
    21 0.729362 0.000000 0.000000 0.000000 0.002406 -0.244334
    22 3.926700 0.316309 -0.458788 -0.150484 0.082976 -0.742886
    23 1.539095 0.000001 0.000000 0.000000 0.002914 -0.247797
    24 1.196321 -0.000001 0.000000 0.000000 0.004796 -0.430832
    25 3.883690 0.211047 0.404099 0.087700 0.031633 -0.519958
    26 1.719576 0.000000 0.000000 0.000000 0.005013 -0.366478
    27 1.209180 0.000000 0.000000 0.000000 0.002808 -0.216400
    28 3.867672 0.115964 1.301215 0.352472 -0.032983 -0.463854
    29 1.719428 0.000000 0.000000 0.000000 0.005105 -0.363009
    30 1.099666 -0.000001 0.000000 0.000000 0.003255 -0.244331
    31 0.837299 -0.302047 1.313446 -1.251008 -0.669804 -0.720186
    32 1.789784 0.000000 -0.000001 0.000000 -0.002153 0.228622
    33 1.206999 0.000000 -0.000001 0.000000 -0.003294 0.363001
    34 2.056792 0.981240 -1.937610 -2.326528 1.161745 2.246168
    35 6.028143 0.000001 0.000000 1.773890 -0.082819 -0.334732
    36 11.692554 0.000000 0.000001 0.000000 0.000000 -2.201063
    37 11.481699 0.000000 0.000003 -1.563596 0.039535 -0.055081
    38 3.851859 0.133064 1.220452 0.469816 -0.167716 -0.811412
    39 1.312561 0.000001 0.000000 0.000000 -0.007097 -0.439763
    40 0.729364 0.000000 0.000000 0.000000 -0.003653 -0.244305
    41 3.926668 0.319868 0.458387 0.150457 -0.088581 -0.742367
    42 1.539095 0.000000 0.000000 0.000000 -0.004404 -0.247771
    43 1.196326 0.000001 0.000000 0.000000 -0.007266 -0.430795
    44 3.883656 0.207493 -0.403698 -0.087715 -0.035752 -0.519729
    45 1.719576 0.000002 0.000000 0.000000 -0.007590 -0.366436
    46 1.209181 -0.000001 0.000000 0.000000 -0.004245 -0.216376
    47 3.867642 0.104977 -1.303937 -0.352488 0.029267 -0.464083
    48 1.719425 0.000000 0.000000 0.000000 -0.007728 -0.362970
    49 1.099666 0.000001 0.000000 0.000000 -0.004918 -0.244312
    50 0.837268 -0.312959 -1.310521 1.248005 0.664326 -0.725045
    51 1.789784 0.000000 0.000000 0.000000 0.003275 0.228615
    52 1.206998 0.000000 0.000000 0.000000 0.005003 0.362980
    53 11.687500 -0.000001 0.000003 0.000000 0.000000 -0.029498
    54 5.738281 0.000000 0.000002 0.000687 0.000000 0.000000
    55 5.738281 -0.000001 0.000000 0.000080 0.000000 0.000000
    56 1.500000 0.000003 0.000002 0.000000 0.000000 0.000000
    57 1.499023 0.000000 0.000003 0.000000 0.000000 0.000000
    58 2.078125 1.478516 -5.000000 0.000000 0.000000 0.000000
    59 5.164063 0.000004 -0.000001 0.000000 0.000000 0.000000
    60 11.476563 -0.000001 0.000001 0.000149 0.000000 0.000000
    61 5.558594 0.000002 0.000000 0.000000 0.000000 0.000000
    62 5.558594 0.000000 0.000001 0.000000 0.000000 0.000000
    63 5.164063 0.000000 0.000000 0.000000 0.000000 0.000000
    64 11.476563 0.000003 0.000004 0.001270 0.000000 0.000000
    65 2.078125 1.478516 5.000000 0.000000 0.000000 0.000000
    66 11.687500 0.000000 0.000002 0.000000 0.000000 -0.029498
  time 12
    0 -42.428751 41.895141 36.152781 1.696578 -0.065693 0.162103
    1 3.890452 -0.000004 -0.000003 -1.566903 -0.429917 -1.344283
    2 17.848177 0.000000 0.000000 0.000000 0.000000 0.372030
    3 16.525253 0.000000 0.000000 -0.250078 0.116736 -1.052107
    4 6.878906 0.000000 0.000000 -0.007299 -0.002950 -0.584373
    5 -3.890452 0.000004 0.000007 -1.188169 -0.442457 -2.032680
    6 17.848173 0.000000 0.000000 0.000000 0.000000 1.449248
    7 16.525257 0.000000 0.000000 0.387828 -0.163277 -1.132369
    8 6.878906 0.000000 0.000000 -0.081332 -0.002949 -0.584373
    9 0.000005 3.345128 -2.981901 1.548532 0.196280 1.547628
    10 3.998799 0.000000 0.000000 0.032898 0.069798 0.076782
    11 3.518565 0.000000 0.000000 0.072970 -0.003571 0.097131
    12 8.923110 0.000000 0.000000 0.052708 -0.013722 0.253599
    13 3.307271 0.000000 0.000000 3.132482 -0.011805 0.508505
    14 3.601524 -0.000001 0.000000 -0.290351 -0.008927 0.505011
    15 2.056784 0.981236 1.937660 2.119706 -1.294367 2.403262
    16 6.028142 0.000001 0.000000 -0.628765 0.983714 -0.481082
    17 11.692554 0.000000 0.000001 0.000000 0.000000 -1.260152
    18 11.481672 0.000000 -0.000032 1.562842 -0.037977 0.178569
    19 3.851891 0.123226 -1.223225 -0.469917 0.161694 -0.812367
    20 1.312564 0.000001 0.000000 0.000000 0.004679 -0.439781
    21 0.729362 0.000000 0.000000 0.000000 0.002406 -0.244334
    22 3.926700 0.316309 -0.458788 -0.150484 0.082976 -0.742886
    23 1.539095 0.000001 0.000000 0.000000 0.002914 -0.247797
    24 1.196321 -0.000001 0.000000 0.000000 0.004796 -0.430832
    25 3.883690 0.211047 0.404099 0.087700 0.031633 -0.519958
    26 1.719576 0.000000 0.000000 0.000000 0.005013 -0.366478
    27 1.209180 0.000000 0.000000 0.000000 0.002808 -0.216400
    28 3.867672 0.115964 1.301215 0.352472 -0.032983 -0.463854
    29 1.719428 0.000000 0.000000 0.000000 0.005105 -0.363009
    30 1.099666 -0.000001 0.000000 0.000000 0.003243 -0.244331
    31 0.837299 -0.302047 1.313446 -1.251008 -0.669804 -0.720186
    32 1.789784 0.000000 -0.000001 0.000000 -0.002153 0.228622
    33 1.206999 0.000000 -0.000001 0.000000 -0.003294 0.363001
    34 2.056792 0.981240 -1.937610 -2.440750 1.203284 2.139632
    35 6.028143 0.000001 0.000000 1.722167 -0.203446 -0.512284
    36 11.692554 0.000000 0.000001 0.000000 0.000000 -2.124379
    37 11.481699 0.000000 0.000003 -1.568050 0.040101 -0.168901
    38 3.851859 0.133064 1.220452 0.469816 -0.167716 -0.811412
    39 1.312561 0.000001 0.000000 0.000000 -0.007097 -0.439763
    40 0.729364 0.000000 0.000000 0.000000 -0.003653 -0.244305
    41 3.926668 0.319868 0.458387 0.150445 -0.088581 -0.742367
    42 1.539095 0.000000 0.000000 0.000000 -0.004404 -0.247771
    43 1.196326 0.000001 0.000000 0.000000 -0.007266 -0.430795
    44 3.883656 0.207493 -0.403698 -0.087715 -0.035752 -0.519729
    45 1.719576 0.000002 0.000000 0.000000 -0.007590 -0.366436
    46 1.209181 -0.000001 0.000000 0.000000 -0.004245 -0.216376
    47 3.867642 0.104977 -1.303937 -0.352488 0.029267 -0.464083
    48 1.719425 0.000000 0.000000 0.000000 -0.007728 -0.362970
    49 1.099666 0.000001 0.000000 0.000000 -0.004918 -0.244312
    50 0.837268 -0.312959 -1.310521 1.248005 0.664326 -0.725045
    51 1.789784 0.000000 0.000000 0.000000 0.003275 0.228615
    52 1.206998 0.000000 0.000000 0.000000 0.005003 0.362980
    53 11.687500 -0.000001 0.000003 0.000000 0.000000 -0.029498
    54 5.738281 0.000000 0.000002 0.000687 0.000000 0.000000
    55 5.738281 -0.000001 0.000000 0.000080 0.000000 0.000000
    56 1.500000 0.000003 0.000002 0.000000 0.000000 0.000000
    57 1.499023 0.000000 0.000003 0.000000 0.000000 0.000000
    58 2.078125 1.478516 -5.000000 0.000000 0.000000 0.000000
    59 5.164063 0.000004 -0.000001 0.000000 0.000000 0.000000
    60 11.476563 -0.000001 0.000001 0.000149 0.000000 0.000000
    61 5.558594 0.000002 0.000000 0.000000 0.000000 0.000000
    62 5.558594 0.000000 0.000001 0.000000 0.000000 0.000000
    63 5.164063 0.000000 0.000000 0.000000 0.000000 0.000000
    64 11.476563 0.000003 0.000004 0.001270 0.000000 0.000000
    65 2.078125 1.478516 5.000000 0.000000 0.000000 0.000000
    66 11.687500 0.000000 0.000002 0.000000 0.000000 -0.029498
  time 13
    0 -45.964285 45.430675 36.180126 1.727022 -0.036131 0.128433
    1 3.890452 -0.000004 -0.000003 -1.584995 -0.434900 -1.252939
    2 17.848177 0.000000 0.000000 0.000000 0.000000 0.195695
    3 16.525253 0.000000 0.000000 -0.323764 0.119071 -0.900821
    4 6.878906 0.000000 0.000000 -0.007299 -0.002950 -0.584373
    5 -3.890452 0.000004 0.000007 -1.223813 -0.399514 -2.026621
    6 17.848173 0.000000 0.000000 0.000000 0.000000 1.309291
    7 16.525257 0.000000 0.000000 0.279460 -0.267981 -0.969080
    8 6.878906 0.000000 0.000000 -0.081332 -0.002949 -0.584373
    9 0.000005 3.345128 -2.981901 1.557893 0.196328 1.578254
    10 3.998799 0.000000 0.000000 0.001294 0.051714 0.052426
    11 3.518565 0.000000 0.000000 0.052148 -0.001174 0.097219
    12 8.923110 0.000000 0.000000 0.037512 -0.009767 0.253779
    13 3.307271 0.000000 0.000000 3.130373 -0.014489 0.483857
    14 3.601524 -0.000001 0.000000 -0.197069 -0.002131 0.474669
    15 2.056784 0.981236 1.937660 2.158108 -1.294014 2.364268
    16 6.028142 0.000001 0.000000 -0.869917 0.745963 -0.780928
    17 11.692554 0.000000 0.000001 0.000000 0.000000 -1.306396
    18 11.481672 0.000000 -0.000032 1.562289 -0.037866 0.192810
    19 3.851891 0.123226 -1.223225 -0.469917 0.161694 -0.812367
    20 1.312564 0.000001 0.000000 0.000000 0.004679 -0.439781
    21 0.729362 0.000000 0.000000 0.000000 0.002406 -0.244334
    22 3.926700 0.316309 -0.458788 -0.150484 0.082976 -0.742886
    23 1.539095 0.000001 0.000000 0.000000 0.002914 -0.247797
    24 1.196321 -0.000001 0.000000 0.000000 0.004796 -0.430832
    25 3.883690 0.211047 0.404099 0.087700 0.031633 -0.519958
    26 1.719576 0.000000 0.000000 0.000000 0.005013 -0.366478
    27 1.209180 0.000000 0.000000 0.000000 0.002808 -0.216400
    28 3.867672 0.115964 1.301215 0.352472 -0.032983 -0.463854
    29 1.719428 0.000000 0.000000 0.000000 0.005105 -0.363009
    30 1.099666 -0.000001 0.000000 0.000000 0.003255 -0.244331
    31 0.837299 -0.302047 1.313446 -1.251008 -0.669804 -0.720186
    32 1.789784 0.000000 -0.000001 0.000000 -0.002153 0.228622
    33 1.206999 0.000000 -0.000001 0.000000 -0.003294 0.363001
    34 2.056792 0.981240 -1.937610 -2.439291 1.212824 2.142652
    35 6.028143 0.000001 0.000000 1.608693 -0.354099 -0.675668
    36 11.692554 0.000000 0.000001 0.000000 0.000000 -1.973770
    37 11.481699 0.000000 0.000003 -1.569055 0.040153 -0.193356
    38 3.851859 0.133064 1.220452 0.469816 -0.167716 -0.811412
    39 1.312561 0.000001 0.000000 0.000000 -0.007097 -0.439763
    40 0.729364 0.000000 0.000000 0.000000 -0.003653 -0.244305
    41 3.926668 0.319868 0.458387 0.150457 -0.088581 -0.742367
    42 1.539095 0.000000 0.000000 0.000000 -0.004404 -0.247771
    43 1.196326 0.000001 0.000000 0.000000 -0.007266 -0.430795
    44 3.883656 0.207493 -0.403698 -0.087715 -0.035752 -0.519729
    45 1.719576 0.000002 0.000000 0.000000 -0.007590 -0.366436
    46 1.209181 -0.000001 0.000000 0.000000 -0.004245 -0.216376
    47 3.867642 0.104977 -1.303937 -0.352488 0.029267 -0.464083
    48 1.719425 0.000000 0.000000 0.000000 -0.007728 -0.362970
    49 1.099666 0.000001 0.000000 0.000000 -0.004918 -0.244312
    50 0.837268 -0.312959 -1.310521 1.248005 0.664326 -0.725045
    51 1.789784 0.000000 0.000000 0.000000 0.003275 0.228615
    52 1.206998 0.000000 0.000000 0.000000 0.005003 0.362980
    53 11.687500 -0.000001 0.000003 0.000000 0.000000 -0.029498
    54 5.738281 0.000000 0.000002 0.000687 0.000000 0.000000
    55 5.738281 -0.000001 0.000000 0.000080 0.000000 0.000000
    56 1.500000 0.000003 0.000002 0.000000 0.000000 0.000000
    57 1.499023 0.000000 0.000003 0.000000 0.000000 0.000000
    58 2.078125 1.478516 -5.000000 0.000000 0.000000 0.000000
    59 5.164063 0.000004 -0.000001 0.000000 0.000000 0.000000
    60 11.476563 -0.000001 0.000001 0.000149 0.000000 0.000000
    61 5.558594 0.000002 0.000000 0.000000 0.000000 0.000000
    62 5.558594 0.000000 0.000001 0.000000 0.000000 0.000000
    63 5.164063 0.000000 0.000000 0.000000 0.000000 0.000000
    64 11.476563 0.000003 0.000004 0.001270 0.000000 0.000000
    65 2.078125 1.478516 5.000000 0.000000 0.000000 0.000000
    66 11.687500 0.000000 0.000002 0.000000 0.000000 -0.029498
  time 14
    0 -49.499818 48.966208 35.613702 1.749045 -0.026277 0.080929
    1 3.890452 -0.000004 -0.000003 -1.624310 -0.690298 -1.248686
    2 17.848177 0.000000 0.000000 0.000000 0.000000 0.673442
    3 16.525253 0.000000 0.000000 -0.322341 0.081319 -1.129901
    4 6.878906 0.000000 0.000000 -0.007299 -0.002950 -0.584373
    5 -3.890452 0.000004 0.000007 -1.268580 -0.378598 -2.027009
    6 17.848173 0.000000 0.000000 0.000000 0.000000 1.178435
    7 16.525257 0.000000 0.000000 0.131892 -0.346970 -0.872818
    8 6.878906 0.000000 0.000000 -0.081332 -0.002949 -0.584373
    9 0.000005 3.345128 -2.981901 1.564673 0.196296 1.588545
    10 3.998799 0.000000 0.000000 -0.029350 0.026078 0.032984
    11 3.518565 0.000000 0.000000 0.021565 0.001294 0.097291
    12 8.923110 0.000000 0.000000 0.015244 -0.003967 0.253935
    13 3.307271 0.000000 0.000000 3.130181 -0.014717 0.520578
    14 3.601524 -0.000001 0.000000 -0.063496 0.003762 0.507134
    15 2.056784 0.981236 1.937660 2.117312 -1.247252 2.399334
    16 6.028142 0.000001 0.000000 -1.066242 0.409610 -0.864369
    17 11.692554 0.000000 0.000001 0.000000 0.000000 -1.389725
    18 11.481672 0.000000 -0.000032 1.562012 -0.037791 0.201240
    19 3.851891 0.123226 -1.223225 -0.469917 0.161694 -0.812367
    20 1.312564 0.000001 0.000000 0.000000 0.004679 -0.439781
    21 0.729362 0.000000 0.000000 0.000000 0.002406 -0.244334
    22 3.926700 0.316309 -0.458788 -0.150484 0.082976 -0.742886
    23 1.539095 0.000001 0.000000 0.000000 0.002914 -0.247797
    24 1.196321 -0.000001 0.000000 0.000000 0.004796 -0.430832
    25 3.883690 0.211047 0.404099 0.087700 0.031633 -0.519958
    26 1.719576 0.000000 0.000000 0.000000 0.005013 -0.366478
    27 1.209180 0.000000 0.000000 0.000000 0.002808 -0.216400
    28 3.867672 0.115964 1.301215 0.352472 -0.032983 -0.463854
    29 1.719428 0.000000 0.000000 0.000000 0.005105 -0.363009
    30 1.099666 -0.000001 0.000000 0.000000 0.003243 -0.244331
    31 0.837299 -0.302047 1.313446 -1.251008 -0.669804 -0.720186
    32 1.789784 0.000000 -0.000001 0.000000 -0.002153 0.228622
    33 1.206999 0.000000 -0.000001 0.000000 -0.003294 0.363001
    34 2.056792 0.981240 -1.937610 -2.318865 1.192840 2.259805
    35 6.028143 0.000001 0.000000 1.445270 -0.561033 -0.727769
    36 11.692554 0.000000 0.000001 0.000000 0.000000 -1.822871
    37 11.481699 0.000000 0.000003 -1.569486 0.040178 -0.203758
    38 3.851859 0.133064 1.220452 0.469816 -0.167716 -0.811412
    39 1.312561 0.000001 0.000000 0.000000 -0.007097 -0.439763
    40 0.729364 0.000000 0.000000 0.000000 -0.003653 -0.244305
    41 3.926668 0.319868 0.458387 0.150457 -0.088581 -0.742367
    42 1.539095 0.000000 0.000000 0.000000 -0.004404 -0.247771
    43 1.196326 0.000001 0.000000 0.000000 -0.007266 -0.430795
    44 3.883656 0.207493 -0.403698 -0.087715 -0.035752 -0.519729
    45 1.719576 0.000002 0.000000 0.000000 -0.007590 -0.366436
    46 1.209181 -0.000001 0.000000 0.000000 -0.004245 -0.216376
    47 3.867642 0.104977 -1.303937 -0.352488 0.029267 -0.464083
    48 1.719425 0.000000 0.000000 0.000000 -0.007728 -0.362970
    49 1.099666 0.000001 0.000000 0.000000 -0.004918 -0.244312
    50 0.837268 -0.312959 -1.310521 1.248005 0.664326 -0.725045
    51 1.789784 0.000000 0.000000 0.000000 0.003275 0.228615
    52 1.206998 0.000000 0.000000 0.000000 0.005003 0.362980
    53 11.687500 -0.000001 0.000003 0.000000 0.000000 -0.029498
    54 5.738281 0.000000 0.000002 0.000687 0.000000 0.000000
    55 5.738281 -0.000001 0.000000 0.000080 0.000000 0.000000
    56 1.500000 0.000003 0.000002 0.000000 0.000000 0.000000
    57 1.499023 0.000000 0.000003 0.000000 0.000000 0.000000
    58 2.078125 1.478516 -5.000000 0.000000 0.000000 0.000000
    59 5.164063 0.000004 -0.000001 0.000000 0.000000 0.000000
    60 11.476563 -0.000001 0.000001 0.000149 0.000000 0.000000
    61 5.558594 0.000002 0.000000 0.000000 0.000000 0.000000
    62 5.558594 0.000000 0.000001 0.000000 0.000000 0.000000
    63 5.164063 0.000000 0.000000 0.000000 0.000000 0.000000
    64 11.476563 0.000003 0.000004 0.001270 0.000000 0.000000
    65 2.078125 1.478516 5.000000 0.000000 0.000000 0.000000
    66 11.687500 0.000000 0.000002 0.000000 0.000000 -0.029498
  time 15
    0 -53.035352 52.501742 34.453511 1.758762 -0.015724 0.025528
    1 3.890452 -0.000004 -0.000003 -1.712865 -0.858125 -1.201641
    2 17.848177 0.000000 0.000000 0.000000 0.000000 1.115075
    3 16.525253 0.000000 0.000000 -0.289755 0.068617 -1.307954
    4 6.878906 0.000000 0.000000 -0.007299 -0.002950 -0.584373
    5 -3.890452 0.000004 0.000007 -1.327537 -0.355773 -1.982959
    6 17.848173 0.000000 0.000000 0.000000 0.000000 0.963510
    7 16.525257 0.000000 0.000000 0.106691 -0.348015 -1.239888
    8 6.878906 0.000000 0.000000 -0.081332 -0.002949 -0.584373
    9 0.000005 3.345128 -2.981901 1.572263 0.196248 1.599383
    10 3.998799 0.000000 0.000000 -0.055021 -0.007910 0.025048
    11 3.518565 0.000000 0.000000 -0.014708 0.003488 0.097306
    12 8.923110 0.000000 0.000000 -0.011122 0.002888 0.253947
    13 3.307271 0.000000 0.000000 3.152040 0.013483 0.605196
    14 3.601524 -0.000001 0.000000 0.079274 0.037429 0.592076
    15 2.056784 0.981236 1.937660 2.040316 -1.158401 2.464581
    16 6.028142 0.000001 0.000000 -1.252149 0.093351 -0.746355
    17 11.692554 0.000000 0.000001 0.000000 0.000000 -1.508862
    18 11.481672 0.000000 -0.000032 1.561846 -0.037754 0.205544
    19 3.851891 0.123226 -1.223225 -0.469917 0.161694 -0.812367
    20 1.312564 0.000001 0.000000 0.000000 0.004679 -0.439781
    21 0.729362 0.000000 0.000000 0.000000 0.002406 -0.244334
    22 3.926700 0.316309 -0.458788 -0.150484 0.082976 -0.742886
    23 1.539095 0.000001 0.000000 0.000000 0.002914 -0.247797
    24 1.196321 -0.000001 0.000000 0.000000 0.004796 -0.430832
    25 3.883690 0.211047 0.404099 0.087700 0.031633 -0.519958
    26 1.719576 0.000000 0.000000 0.000000 0.005013 -0.366478
    27 1.209180 0.000000 0.000000 0.000000 0.002808 -0.216400
    28 3.867672 0.115964 1.301215 0.352472 -0.032983 -0.463854
    29 1.719428 0.000000 0.000000 0.000000 0.005105 -0.363009
    30 1.099666 -0.000001 0.000000 0.000000 0.003243 -0.244331
    31 0.837299 -0.302047 1.313446 -1.251008 -0.669804 -0.720186
    32 1.789784 0.000000 -0.000001 0.000000 -0.002153 0.228622
    33 1.206999 0.000000 -0.000001 0.000000 -0.003294 0.363001
    34 2.056792 0.981240 -1.937610 -2.133847 1.135832 2.438921
    35 6.028143 0.000001 0.000000 1.244141 -0.790879 -0.623382
    36 11.692554 0.000000 0.000001 0.000000 0.000000 -1.674731
    37 11.481699 0.000000 0.000003 -1.569534 0.040178 -0.205707
    38 3.851859 0.133064 1.220452 0.469816 -0.167716 -0.811412
    39 1.312561 0.000001 0.000000 0.000000 -0.007097 -0.439763
    40 0.729364 0.000000 0.000000 0.000000 -0.003653 -0.244305
    41 3.926668 0.319868 0.458387 0.150457 -0.088581 -0.742367
    42 1.539095 0.000000 0.000000 0.000000 -0.004404 -0.247771
    43 1.196326 0.000001 0.000000 0.000000 -0.007266 -0.430795
    44 3.883656 0.207493 -0.403698 -0.087715 -0.035752 -0.519729
    45 1.719576 0.000002 0.000000 0.000000 -0.007590 -0.366436
    46 1.209181 -0.000001 0.000000 0.000000 -0.004245 -0.216376
    47 3.867642 0.104977 -1.303937 -0.352488 0.029267 -0.464083
    48 1.719425 0.000000 0.000000 0.000000 -0.007728 -0.362970
    49 1.099666 0.000001 0.000000 0.000000 -0.004918 -0.244312
    50 0.837268 -0.312959 -1.310521 1.248005 0.664326 -0.725045
    51 1.789784 0.000000 0.000000 0.000000 0.003275 0.228615
    52 1.206998 0.000000 0.000000 0.000000 0.005003 0.362980
    53 11.687500 -0.000001 0.000003 0.000000 0.000000 -0.029498
    54 5.738281 0.000000 0.000002 0.000687 0.000000 0.000000
    55 5.738281 -0.000001 0.000000 0.000080 0.000000 0.000000
    56 1.500000 0.000003 0.000002 0.000000 0.000000 0.000000
    57 1.499023 0.000000 0.000003 0.000000 0.000000 0.000000
    58 2.078125 1.478516 -5.000000 0.000000 0.000000 0.000000
    59 5.164063 0.000004 -0.000001 0.000000 0.000000 0.000000
    60 11.476563 -0.000001 0.000001 0.000149 0.000000 0.000000
    61 5.558594 0.000002 0.000000 0.000000 0.000000 0.000000
    62 5.558594 0.000000 0.000001 0.000000 0.000000 0.000000
    63 5.164063 0.000000 0.000000 0.000000 0.000000 0.000000
    64 11.476563 0.000003 0.000004 0.001270 0.000000 0.000000
    65 2.078125 1.478516 5.000000 0.000000 0.000000 0.000000
    66 11.687500 0.000000 0.000002 0.000000 0.000000 -0.029498
  time 16
    0 -56.570886 56.037276 33.699581 1.746454 0.025426 -0.031957
    1 3.890452 -0.000004 -0.000003 -1.831191 -0.895739 -1.124431
    2 17.848177 0.000000 0.000000 0.000000 0.000000 1.420802
    3 16.525253 0.000000 0.000000 -0.217026 0.061895 -1.355766
    4 6.878906 0.000000 0.000000 -0.007299 -0.002950 -0.584373
    5 -3.890452 0.000004 0.000007 -1.344852 -0.396717 -1.919720
    6 17.848173 0.000000 0.000000 0.000000 0.000000 0.905547
    7 16.525257 0.000000 0.000000 0.111747 -0.385346 -1.576353
    8 6.878906 0.000000 0.000000 -0.081332 -0.002949 -0.584373
    9 0.000005 3.345128 -2.981901 1.586229 0.195862 1.641394
    10 3.998799 0.000000 0.000000 -0.073669 -0.041479 0.036952
    11 3.518565 0.000000 0.000000 -0.048342 0.004950 0.097233
    12 8.923110 0.000000 0.000000 -0.035558 0.009252 0.253803
    13 3.307271 0.000000 0.000000 3.183008 0.053188 0.697828
    14 3.601524 -0.000001 0.000000 0.183985 0.073738 0.687186
    15 2.056784 0.981236 1.937660 1.979123 -1.056397 2.509803
    16 6.028142 0.000001 0.000000 -1.415403 -0.108033 -0.542938
    17 11.692554 0.000000 0.000001 0.000000 0.000000 -1.655700
    18 11.481672 0.000000 -0.000032 1.561791 -0.037754 0.206011
    19 3.851891 0.123226 -1.223225 -0.469917 0.161694 -0.812367
    20 1.312564 0.000001 0.000000 0.000000 0.004679 -0.439781
    21 0.729362 0.000000 0.000000 0.000000 0.002406 -0.244334
    22 3.926700 0.316309 -0.458788 -0.150484 0.082976 -0.742886
    23 1.539095 0.000001 0.000000 0.000000 0.002914 -0.247797
    24 1.196321 -0.000001 0.000000 0.000000 0.004796 -0.430832
    25 3.883690 0.211047 0.404099 0.087700 0.031633 -0.519958
    26 1.719576 0.000000 0.000000 0.000000 0.005013 -0.366478
    27 1.209180 0.000000 0.000000 0.000000 0.002808 -0.216400
    28 3.867672 0.115964 1.301215 0.352472 -0.032983 -0.463854
    29 1.719428 0.000000 0.000000 0.000000 0.005105 -0.363009
    30 1.099666 -0.000001 0.000000 0.000000 0.003255 -0.244331
    31 0.837299 -0.302047 1.313446 -1.251008 -0.669804 -0.720186
    32 1.789784 0.000000 -0.000001 0.000000 -0.002153 0.228622
    33 1.206999 0.000000 -0.000001 0.000000 -0.003294 0.363001
    34 2.056792 0.981240 -1.937610 -1.977202 1.058213 2.591403
    35 6.028143 0.000001 0.000000 0.992087 -0.982871 -0.353000
    36 11.692554 0.000000 0.000001 0.000000 0.000000 -1.532764
    37 11.481699 0.000000 0.000003 -1.569343 0.040178 -0.200218
    38 3.851859 0.133064 1.220452 0.469816 -0.167716 -0.811412
    39 1.312561 0.000001 0.000000 0.000000 -0.007097 -0.439763
    40 0.729364 0.000000 0.000000 0.000000 -0.003653 -0.244305
    41 3.926668 0.319868 0.458387 0.150457 -0.088581 -0.742367
    42 1.539095 0.000000 0.000000 0.000000 -0.004404 -0.247771
    43 1.196326 0.000001 0.000000 0.000000 -0.007266 -0.430795
    44 3.883656 0.207493 -0.403698 -0.087715 -0.035752 -0.519729
    45 1.719576 0.000002 0.000000 0.000000 -0.007590 -0.366436
    46 1.209181 -0.000001 0.000000 0.000000 -0.004245 -0.216376
    47 3.867642 0.104977 -1.303937 -0.352488 0.029267 -0.464083
    48 1.719425 0.000000 0.000000 0.000000 -0.007728 -0.362970
    49 1.099666 0.000001 0.000000 0.000000 -0.004918 -0.244312
    50 0.837268 -0.312959 -1.310521 1.248005 0.664326 -0.725045
    51 1.789784 0.000000 0.000000 0.000000 0.003275 0.228615
    52 1.206998 0.000000 0.000000 0.000000 0.005003 0.362980
    53 11.687500 -0.000001 0.000003 0.000000 0.000000 -0.029498
    54 5.738281 0.000000 0.000002 0.000687 0.000000 0.000000
    55 5.738281 -0.000001 0.000000 0.000080 0.000000 0.000000
    56 1.500000 0.000003 0.000002 0.000000 0.000000 0.000000
    57 1.499023 0.000000 0.000003 0.000000 0.000000 0.000000
    58 2.078125 1.478516 -5.000000 0.000000 0.000000 0.000000
    59 5.164063 0.000004 -0.000001 0.000000 0.000000 0.000000
    60 11.476563 -0.000001 0.000001 0.000149 0.000000 0.000000
    61 5.558594 0.000002 0.000000 0.000000 0.000000 0.000000
    62 5.558594 0.000000 0.000001 0.000000 0.000000 0.000000
    63 5.164063 0.000000 0.000000 0.000000 0.000000 0.000000
    64 11.476563 0.000003 0.000004 0.001270 0.000000 0.000000
    65 2.078125 1.478516 5.000000 0.000000 0.000000 0.000000
    66 11.687500 0.000000 0.000002 0.000000 0.000000 -0.029498
  time 17
    0 -60.106419 59.572809 33.523795 1.712654 0.083363 -0.086284
    1 3.890452 -0.000004 -0.000003 -1.938525 -0.826571 -1.068355
    2 17.848177 0.000000 0.000000 0.000000 0.000000 1.609176
    3 16.525253 0.000000 0.000000 -0.135733 0.050360 -1.320297
    4 6.878906 0.000000 0.000000 -0.007299 -0.002950 -0.584373
    5 -3.890452 0.000004 0.000007 -1.503731 -0.499432 -1.734042
    6 17.848173 0.000000 0.000000 0.000000 0.000000 0.966543
    7 16.525257 0.000000 0.000000 0.084141 -0.287691 -1.618263
    8 6.878906 0.000000 0.000000 -0.081332 -0.002949 -0.584373
    9 0.000005 3.345128 -2.981901 1.603230 0.194722 1.700757
    10 3.998799 0.000000 0.000000 -0.084731 -0.063602 0.064330
    11 3.518565 0.000000 0.000000 -0.072639 0.005645 0.097131
    12 8.923110 0.000000 0.000000 -0.053176 0.013842 0.253599
    13 3.307271 0.000000 0.000000 3.198731 0.073382 0.745040
    14 3.601524 -0.000001 0.000000 0.262258 0.098059 0.737926
    15 2.056784 0.981236 1.937660 1.964949 -0.997699 2.511815
    16 6.028142 0.000001 0.000000 -1.544916 -0.184041 -0.409975
    17 11.692554 0.000000 0.000001 0.000000 0.000000 -1.821531
    18 11.481672 0.000000 -0.000032 1.561957 -0.037791 0.202244
    19 3.851891 0.123226 -1.223225 -0.469917 0.161694 -0.812367
    20 1.312564 0.000001 0.000000 0.000000 0.004679 -0.439781
    21 0.729362 0.000000 0.000000 0.000000 0.002406 -0.244334
    22 3.926700 0.316309 -0.458788 -0.150484 0.082976 -0.742886
    23 1.539095 0.000001 0.000000 0.000000 0.002914 -0.247797
    24 1.196321 -0.000001 0.000000 0.000000 0.004796 -0.430832
    25 3.883690 0.211047 0.404099 0.087700 0.031633 -0.519958
    26 1.719576 0.000000 0.000000 0.000000 0.005013 -0.366478
    27 1.209180 0.000000 0.000000 0.000000 0.002808 -0.216400
    28 3.867672 0.115964 1.301215 0.352472 -0.032983 -0.463854
    29 1.719428 0.000000 0.000000 0.000000 0.005105 -0.363009
    30 1.099666 -0.000001 0.000000 0.000000 0.003255 -0.244331
    31 0.837299 -0.302047 1.313446 -1.251008 -0.669804 -0.720186
    32 1.789784 0.000000 -0.000001 0.000000 -0.002153 0.228622
    33 1.206999 0.000000 -0.000001 0.000000 -0.003294 0.363001
    34 2.056792 0.981240 -1.937610 -1.896735 1.015300 2.673410
    35 6.028143 0.000001 0.000000 0.725039 -1.094906 -0.026230
    36 11.692554 0.000000 0.000001 0.000000 0.000000 -1.412800
    37 11.481699 0.000000 0.000003 -1.568768 0.040153 -0.186055
    38 3.851859 0.133064 1.220452 0.469816 -0.167716 -0.811412
    39 1.312561 0.000001 0.000000 0.000000 -0.007097 -0.439763
    40 0.729364 0.000000 0.000000 0.000000 -0.003653 -0.244305
    41 3.926668 0.319868 0.458387 0.150457 -0.088581 -0.742367
    42 1.539095 0.000000 0.000000 0.000000 -0.004404 -0.247771
    43 1.196326 0.000001 0.000000 0.000000 -0.007266 -0.430795
    44 3.883656 0.207493 -0.403698 -0.087715 -0.035752 -0.519729
    45 1.719576 0.000002 0.000000 0.000000 -0.007590 -0.366436
    46 1.209181 -0.000001 0.000000 0.000000 -0.004245 -0.216376
    47 3.867642 0.104977 -1.303937 -0.352488 0.029267 -0.464083
    48 1.719425 0.000000 0.000000 0.000000 -0.007728 -0.362970
    49 1.099666 0.000001 0.000000 0.000000 -0.004918 -0.244312
    50 0.837268 -0.312959 -1.310521 1.248005 0.664326 -0.725045
    51 1.789784 0.000000 0.000000 0.000000 0.003275 0.228615
    52 1.206998 0.000000 0.000000 0.000000 0.005003 0.362980
    53 11.687500 -0.000001 0.000003 0.000000 0.000000 -0.029498
    54 5.738281 0.000000 0.000002 0.000687 0.000000 0.000000
    55 5.738281 -0.000001 0.000000 0.000080 0.000000 0.000000
    56 1.500000 0.000003 0.000002 0.000000 0.000000 0.000000
    57 1.499023 0.000000 0.000003 0.000000 0.000000 0.000000
    58 2.078125 1.478516 -5.000000 0.000000 0.000000 0.000000
    59 5.164063 0.000004 -0.000001 0.000000 0.000000 0.000000
    60 11.476563 -0.000001 0.000001 0.000149 0.000000 0.000000
    61 5.558594 0.000002 0.000000 0.000000 0.000000 0.000000
    62 5.558594 0.000000 0.000001 0.000000 0.000000 0.000000
    63 5.164063 0.000000 0.000000 0.000000 0.000000 0.000000
    64 11.476563 0.000003 0.000004 0.001270 0.000000 0.000000
    65 2.078125 1.478516 5.000000 0.000000 0.000000 0.000000
    66 11.687500 0.000000 0.000002 0.000000 0.000000 -0.029498
  time 18
    0 -63.641953 63.108343 33.848023 1.675378 0.112286 -0.132020
    1 3.890452 -0.000004 -0.000003 -1.967916 -0.700936 -1.124365
    2 17.848177 0.000000 0.000000 0.000000 0.000000 1.682920
    3 16.525253 0.000000 0.000000 -0.100522 0.034580 -1.242739
    4 6.878906 0.000000 0.000000 -0.007299 -0.002950 -0.584373
    5 -3.890452 0.000004 0.000007 -1.531097 -0.599216 -1.565766
    6 17.848173 0.000000 0.000000 0.000000 0.000000 1.005505
    7 16.525257 0.000000 0.000000 -0.054546 -0.250192 -1.497073
    8 6.878906 0.000000 0.000000 -0.081332 -0.002949 -0.584373
    9 0.000005 3.345128 -2.981901 1.613704 0.193887 1.730885
    10 3.998799 0.000000 0.000000 -0.088302 -0.071596 0.093949
    11 3.518565 0.000000 0.000000 -0.086087 0.005884 0.097058
    12 8.923110 0.000000 0.000000 -0.062931 0.016383 0.253444
    13 3.307271 0.000000 0.000000 3.191828 0.064501 0.721552
    14 3.601524 -0.000001 0.000000 0.321060 0.101480 0.712990
    15 2.056784 0.981236 1.937660 2.011108 -1.015760 2.465060
    16 6.028142 0.000001 0.000000 -1.638586 -0.171449 -0.386241
    17 11.692554 0.000000 0.000001 0.000000 0.000000 -1.993443
    18 11.481672 0.000000 -0.000032 1.562344 -0.037866 0.192523
    19 3.851891 0.123226 -1.223225 -0.469917 0.161694 -0.812367
    20 1.312564 0.000001 0.000000 0.000000 0.004679 -0.439781
    21 0.729362 0.000000 0.000000 0.000000 0.002406 -0.244334
    22 3.926700 0.316309 -0.458788 -0.150484 0.082976 -0.742886
    23 1.539095 0.000001 0.000000 0.000000 0.002914 -0.247797
    24 1.196321 -0.000001 0.000000 0.000000 0.004796 -0.430832
    25 3.883690 0.211047 0.404099 0.087700 0.031633 -0.519958
    26 1.719576 0.000000 0.000000 0.000000 0.005013 -0.366478
    27 1.209180 0.000000 0.000000 0.000000 0.002808 -0.216400
    28 3.867672 0.115964 1.301215 0.352472 -0.032983 -0.463854
    29 1.719428 0.000000 0.000000 0.000000 0.005105 -0.363009
    30 1.099666 -0.000001 0.000000 0.000000 0.003243 -0.244331
    31 0.837299 -0.302047 1.313446 -1.251008 -0.669804 -0.720186
    32 1.789784 0.000000 -0.000001 0.000000 -0.002153 0.228622
    33 1.206999 0.000000 -0.000001 0.000000 -0.003294 0.363001
    34 2.056792 0.981240 -1.937610 -1.888433 1.046434 2.688054
    35 6.028143 0.000001 0.000000 0.575989 -1.146365 0.147407
    36 11.692554 0.000000 0.000001 0.000000 0.000000 -1.325804
    37 11.481699 0.000000 0.000003 -1.567619 0.040075 -0.157319
    38 3.851859 0.133064 1.220452 0.469816 -0.167716 -0.811412
    39 1.312561 0.000001 0.000000 0.000000 -0.007097 -0.439763
    40 0.729364 0.000000 0.000000 0.000000 -0.003653 -0.244305
    41 3.926668 0.319868 0.458387 0.150457 -0.088581 -0.742367
    42 1.539095 0.000000 0.000000 0.000000 -0.004404 -0.247771
    43 1.196326 0.000001 0.000000 0.000000 -0.007266 -0.430795
    44 3.883656 0.207493 -0.403698 -0.087715 -0.035752 -0.519729
    45 1.719576 0.000002 0.000000 0.000000 -0.007590 -0.366436
    46 1.209181 -0.000001 0.000000 0.000000 -0.004245 -0.216376
    47 3.867642 0.104977 -1.303937 -0.352488 0.029267 -0.464083
    48 1.719425 0.000000 0.000000 0.000000 -0.007728 -0.362970
    49 1.099666 0.000001 0.000000 0.000000 -0.004918 -0.244312
    50 0.837268 -0.312959 -1.310521 1.248005 0.664326 -0.725045
    51 1.789784 0.000000 0.000000 0.000000 0.003275 0.228615
    52 1.206998 0.000000 0.000000 0.000000 0.005003 0.362980
    53 11.687500 -0.000001 0.000003 0.000000 0.000000 -0.029498
    54 5.738281 0.000000 0.000002 0.000687 0.000000 0.000000
    55 5.738281 -0.000001 0.000000 0.000080 0.000000 0.000000
    56 1.500000 0.000003 0.000002 0.000000 0.000000 0.000000
    57 1.499023 0.000000 0.000003 0.000000 0.000000 0.000000
    58 2.078125 1.478516 -5.000000 0.000000 0.000000 0.000000
    59 5.164063 0.000004 -0.000001 0.000000 0.000000 0.000000
    60 11.476563 -0.000001 0.000001 0.000149 0.000000 0.000000
    61 5.558594 0.000002 0.000000 0.000000 0.000000 0.000000
    62 5.558594 0.000000 0.000001 0.000000 0.000000 0.000000
    63 5.164063 0.000000 0.000000 0.000000 0.000000 0.000000
    64 11.476563 0.000003 0.000004 0.001270 0.000000 0.000000
    65 2.078125 1.478516 5.000000 0.000000 0.000000 0.000000
    66 11.687500 0.000000 0.000002 0.000000 0.000000 -0.029498
end
