// Created by Crowbar 0.74
version 1
nodes
  0 "ValveBiped.Bip01_Pelvis" -1
  1 "ValveBiped.Bip01_L_Thigh" 0
  2 "ValveBiped.Bip01_L_Calf" 1
  3 "ValveBiped.Bip01_L_Foot" 2
  4 "ValveBiped.Bip01_L_Toe0" 3
  5 "ValveBiped.Bip01_R_Thigh" 0
  6 "ValveBiped.Bip01_R_Calf" 5
  7 "ValveBiped.Bip01_R_Foot" 6
  8 "ValveBiped.Bip01_R_Toe0" 7
  9 "ValveBiped.Bip01_Spine" 0
  10 "ValveBiped.Bip01_Spine1" 9
  11 "ValveBiped.Bip01_Spine2" 10
  12 "ValveBiped.Bip01_Spine4" 11
  13 "ValveBiped.Bip01_Neck1" 12
  14 "ValveBiped.Bip01_Head1" 13
  15 "ValveBiped.Bip01_L_Clavicle" 12
  16 "ValveBiped.Bip01_L_UpperArm" 15
  17 "ValveBiped.Bip01_L_Forearm" 16
  18 "ValveBiped.Bip01_L_Hand" 17
  19 "ValveBiped.Bip01_L_Finger4" 18
  20 "ValveBiped.Bip01_L_Finger41" 19
  21 "ValveBiped.Bip01_L_Finger42" 20
  22 "ValveBiped.Bip01_L_Finger3" 18
  23 "ValveBiped.Bip01_L_Finger31" 22
  24 "ValveBiped.Bip01_L_Finger32" 23
  25 "ValveBiped.Bip01_L_Finger2" 18
  26 "ValveBiped.Bip01_L_Finger21" 25
  27 "ValveBiped.Bip01_L_Finger22" 26
  28 "ValveBiped.Bip01_L_Finger1" 18
  29 "ValveBiped.Bip01_L_Finger11" 28
  30 "ValveBiped.Bip01_L_Finger12" 29
  31 "ValveBiped.Bip01_L_Finger0" 18
  32 "ValveBiped.Bip01_L_Finger01" 31
  33 "ValveBiped.Bip01_L_Finger02" 32
  34 "ValveBiped.Bip01_R_Clavicle" 12
  35 "ValveBiped.Bip01_R_UpperArm" 34
  36 "ValveBiped.Bip01_R_Forearm" 35
  37 "ValveBiped.Bip01_R_Hand" 36
  38 "ValveBiped.Bip01_R_Finger4" 37
  39 "ValveBiped.Bip01_R_Finger41" 38
  40 "ValveBiped.Bip01_R_Finger42" 39
  41 "ValveBiped.Bip01_R_Finger3" 37
  42 "ValveBiped.Bip01_R_Finger31" 41
  43 "ValveBiped.Bip01_R_Finger32" 42
  44 "ValveBiped.Bip01_R_Finger2" 37
  45 "ValveBiped.Bip01_R_Finger21" 44
  46 "ValveBiped.Bip01_R_Finger22" 45
  47 "ValveBiped.Bip01_R_Finger1" 37
  48 "ValveBiped.Bip01_R_Finger11" 47
  49 "ValveBiped.Bip01_R_Finger12" 48
  50 "ValveBiped.Bip01_R_Finger0" 37
  51 "ValveBiped.Bip01_R_Finger01" 50
  52 "ValveBiped.Bip01_R_Finger02" 51
  53 "ValveBiped.Bip01_L_Elbow" 16
  54 "ValveBiped.Bip01_L_Ulna" 17
  55 "ValveBiped.Bip01_R_Ulna" 36
  56 "ValveBiped.Bip01_R_Shoulder" 35
  57 "ValveBiped.Bip01_L_Shoulder" 16
  58 "ValveBiped.Bip01_R_Latt" 11
  59 "ValveBiped.Bip01_R_Trapezius" 34
  60 "ValveBiped.Bip01_R_Wrist" 36
  61 "ValveBiped.Bip01_R_Bicep" 35
  62 "ValveBiped.Bip01_L_Bicep" 16
  63 "ValveBiped.Bip01_L_Trapezius" 15
  64 "ValveBiped.Bip01_L_Wrist" 17
  65 "ValveBiped.Bip01_L_Latt" 11
  66 "ValveBiped.Bip01_R_Elbow" 35
end
skeleton
  time 0
    0 -2.224609 0.385742 35.031250 1.806500 0.155723 -0.132771
    1 3.888672 0.000000 0.000001 -1.925856 -1.040107 -0.906982
    2 17.843750 -0.000001 0.000000 0.000000 0.000000 2.229995
    3 16.515625 -0.000001 0.000000 -0.045180 0.241554 -1.179598
    4 6.878906 0.000000 0.000000 -0.003243 -0.002784 -1.107974
    5 -3.888672 0.000000 0.000000 -1.572848 -0.183478 -1.412071
    6 17.843750 0.000000 0.000000 0.000000 0.000000 0.642942
    7 16.515625 0.000000 0.000000 -0.072228 -0.086086 -1.526212
    8 6.878906 0.000000 0.000000 -0.079847 -0.003036 -0.733628
    9 0.000005 3.345128 -2.981901 1.487054 -0.157728 1.599930
    10 3.998799 0.000000 0.000000 0.063267 0.060930 0.220011
    11 3.518565 0.000000 0.000000 0.068885 0.054494 0.427786
    12 8.923110 0.000000 0.000000 -0.001678 0.025815 0.367621
    13 3.307271 0.000000 0.000000 3.141590 0.000000 0.697011
    14 3.601524 -0.000001 0.000000 -0.394176 -0.176450 0.536220
    15 2.056784 0.981236 1.937660 3.378634 -1.178660 1.176699
    16 6.028142 0.000001 0.000000 -3.752663 -0.757826 1.035900
    17 11.692554 0.000000 0.000001 0.000000 0.000000 -2.252888
    18 11.481672 0.000000 -0.000032 1.547302 0.323262 -0.030600
    19 3.851891 0.123226 -1.223225 -0.175078 0.232930 -0.626253
    20 1.312564 0.000001 0.000000 0.000000 0.004679 -0.753589
    21 0.729362 0.000000 0.000000 0.000000 0.002406 -0.334303
    22 3.926700 0.316309 -0.458788 0.013729 0.025114 -0.537224
    23 1.539095 0.000001 0.000000 0.000000 0.002914 -0.561619
    24 1.196321 -0.000001 0.000000 0.000000 0.004796 -0.744628
    25 3.883690 0.211047 0.404099 0.091079 -0.102654 -0.336106
    26 1.719576 0.000000 0.000000 0.000000 0.005013 -0.680295
    27 1.209180 0.000000 0.000000 0.000000 0.002808 -0.530216
    28 3.867672 0.115964 1.301215 0.361172 -0.307765 -0.424235
    29 1.719428 0.000000 0.000000 0.000000 0.005105 -0.876204
    30 1.099666 -0.000001 0.000000 0.000000 0.003243 -0.558113
    31 0.837299 -0.302047 1.313446 -1.418910 -0.585425 -0.411855
    32 1.789784 0.000000 -0.000001 -0.392970 0.058130 -0.103184
    33 1.206999 0.000000 -0.000001 0.000000 -0.003294 1.086686
    34 2.056792 0.981240 -1.937610 -3.562080 1.345802 1.053130
    35 6.028143 0.000001 0.000000 1.623598 -0.043246 -1.518875
    36 11.692554 0.000000 0.000001 0.000000 0.000000 -2.090539
    37 11.481699 0.000000 0.000003 -1.379609 0.154903 0.715012
    38 3.851859 0.133064 1.220452 0.494313 -0.097762 -1.141906
    39 1.312561 0.000001 0.000000 0.000000 -0.007097 -0.826609
    40 0.729364 0.000000 0.000000 0.000000 -0.003653 -0.935199
    41 3.926668 0.319868 0.458387 0.166720 -0.127387 -1.076926
    42 1.539095 0.000000 0.000000 0.000000 -0.004404 -0.870443
    43 1.196326 0.000001 0.000000 0.000000 -0.007266 -1.448866
    44 3.883656 0.207493 -0.403698 0.103787 -0.274161 -0.673786
    45 1.719576 0.000002 0.000000 0.000000 -0.007590 -1.320343
    46 1.209181 -0.000001 0.000000 0.000000 -0.004245 -1.170289
    47 3.867642 0.104977 -1.303937 -0.315440 0.154362 -0.106089
    48 1.719425 0.000000 0.000000 0.000000 -0.007728 -0.850767
    49 1.099666 0.000001 0.000000 0.000000 -0.004918 -0.732111
    50 0.837268 -0.312959 -1.310521 1.175425 0.303547 -0.981087
    51 1.789784 0.000000 0.000000 0.000000 0.200217 0.487566
    52 1.206998 0.000000 0.000000 0.000000 0.201946 0.621931
    53 11.687500 0.000001 0.000004 0.000000 0.000000 -0.029498
    54 5.738281 -0.000001 0.000002 0.000687 0.000000 0.000000
    55 5.738281 0.000000 0.000001 0.000080 0.000000 0.000000
    56 1.500000 -0.000001 0.000002 0.000000 0.000000 0.000000
    57 1.499023 0.000001 0.000003 0.000000 0.000000 0.000000
    58 2.078125 1.478516 -4.996094 0.000000 0.000000 0.000000
    59 5.164063 0.000004 0.000000 0.000000 0.000000 0.000000
    60 11.476563 -0.000001 0.000002 0.000149 0.000000 0.000000
    61 5.558594 0.000001 0.000000 0.000000 0.000000 0.000000
    62 5.558594 0.000002 0.000001 0.000000 0.000000 0.000000
    63 5.164063 0.000001 0.000001 0.000000 0.000000 0.000000
    64 11.476563 0.000001 0.000007 0.001270 0.000000 0.000000
    65 2.078125 1.478516 4.996094 0.000000 0.000000 0.000000
    66 11.687500 -0.000001 0.000002 0.000000 0.000000 -0.029498
  time 1
    0 -2.224609 0.385742 35.031250 1.806500 0.155723 -0.132771
    1 3.888672 0.000000 0.000001 -1.925856 -1.040107 -0.906982
    2 17.843750 -0.000001 0.000000 0.000000 0.000000 2.229995
    3 16.515625 -0.000001 0.000000 -0.045180 0.241554 -1.179598
    4 6.878906 0.000000 0.000000 -0.003243 -0.002784 -1.107974
    5 -3.888672 0.000000 0.000000 -1.572848 -0.183478 -1.412071
    6 17.843750 0.000000 0.000000 0.000000 0.000000 0.642942
    7 16.515625 0.000000 0.000000 -0.072228 -0.086086 -1.526212
    8 6.878906 0.000000 0.000000 -0.079847 -0.003036 -0.733628
    9 0.000005 3.345128 -2.981901 1.490849 -0.157792 1.575867
    10 3.998799 0.000000 0.000000 0.099568 0.051114 0.222419
    11 3.518565 0.000000 0.000000 0.104044 0.041227 0.429840
    12 8.923110 0.000000 0.000000 0.017462 0.027948 0.367633
    13 3.307271 0.000000 0.000000 3.141590 0.000000 0.697011
    14 3.601524 -0.000001 0.000000 -0.414803 -0.177539 0.549541
    15 2.056784 0.981236 1.937660 3.323378 -1.186513 1.227670
    16 6.028142 0.000001 0.000000 -3.788602 -0.771691 1.089441
    17 11.692554 0.000000 0.000001 0.000000 0.000000 -2.252888
    18 11.481672 0.000000 -0.000032 1.547302 0.323262 -0.030600
    19 3.851891 0.123226 -1.223225 -0.175078 0.232930 -0.626253
    20 1.312564 0.000001 0.000000 0.000000 0.004679 -0.753589
    21 0.729362 0.000000 0.000000 0.000000 0.002406 -0.334303
    22 3.926700 0.316309 -0.458788 0.013729 0.025114 -0.537224
    23 1.539095 0.000001 0.000000 0.000000 0.002914 -0.561619
    24 1.196321 -0.000001 0.000000 0.000000 0.004796 -0.744628
    25 3.883690 0.211047 0.404099 0.091079 -0.102654 -0.336106
    26 1.719576 0.000000 0.000000 0.000000 0.005013 -0.680295
    27 1.209180 0.000000 0.000000 0.000000 0.002808 -0.530216
    28 3.867672 0.115964 1.301215 0.361172 -0.307765 -0.424235
    29 1.719428 0.000000 0.000000 0.000000 0.005105 -0.876204
    30 1.099666 -0.000001 0.000000 0.000000 0.003255 -0.558113
    31 0.837299 -0.302047 1.313446 -1.418910 -0.585425 -0.411855
    32 1.789784 0.000000 -0.000001 -0.392970 0.058130 -0.103184
    33 1.206999 0.000000 -0.000001 0.000000 -0.003294 1.086686
    34 2.056792 0.981240 -1.937610 -3.463093 1.350278 1.150513
    35 6.028143 0.000001 0.000000 1.634600 -0.049690 -1.539660
    36 11.692554 0.000000 0.000001 0.000000 0.000000 -2.144421
    37 11.481699 0.000000 0.000003 -1.380998 0.150248 0.703319
    38 3.851859 0.133064 1.220452 0.494313 -0.097762 -1.141906
    39 1.312561 0.000001 0.000000 0.000000 -0.007097 -0.826609
    40 0.729364 0.000000 0.000000 0.000000 -0.003653 -0.935199
    41 3.926668 0.319868 0.458387 0.166720 -0.127387 -1.076926
    42 1.539095 0.000000 0.000000 0.000000 -0.004404 -0.870443
    43 1.196326 0.000001 0.000000 0.000000 -0.007266 -1.448866
    44 3.883656 0.207493 -0.403698 0.103787 -0.274161 -0.673786
    45 1.719576 0.000002 0.000000 0.000000 -0.007590 -1.320343
    46 1.209181 -0.000001 0.000000 0.000000 -0.004245 -1.170289
    47 3.867642 0.104977 -1.303937 -0.315440 0.154362 -0.106089
    48 1.719425 0.000000 0.000000 0.000000 -0.007728 -0.850767
    49 1.099666 0.000001 0.000000 0.000000 -0.004918 -0.732111
    50 0.837268 -0.312959 -1.310521 1.175425 0.303547 -0.981087
    51 1.789784 0.000000 0.000000 0.000000 0.200217 0.487566
    52 1.206998 0.000000 0.000000 0.000000 0.201946 0.621931
    53 11.687500 0.000001 0.000004 0.000000 0.000000 -0.029498
    54 5.738281 -0.000001 0.000002 0.000687 0.000000 0.000000
    55 5.738281 0.000000 0.000001 0.000080 0.000000 0.000000
    56 1.500000 -0.000001 0.000002 0.000000 0.000000 0.000000
    57 1.499023 0.000001 0.000003 0.000000 0.000000 0.000000
    58 2.078125 1.478516 -4.996094 0.000000 0.000000 0.000000
    59 5.164063 0.000004 0.000000 0.000000 0.000000 0.000000
    60 11.476563 -0.000001 0.000002 0.000149 0.000000 0.000000
    61 5.558594 0.000001 0.000000 0.000000 0.000000 0.000000
    62 5.558594 0.000002 0.000001 0.000000 0.000000 0.000000
    63 5.164063 0.000001 0.000001 0.000000 0.000000 0.000000
    64 11.476563 0.000001 0.000007 0.001270 0.000000 0.000000
    65 2.078125 1.478516 4.996094 0.000000 0.000000 0.000000
    66 11.687500 -0.000001 0.000002 0.000000 0.000000 -0.029498
  time 2
    0 -2.224609 0.385742 35.031250 1.806500 0.155723 -0.132771
    1 3.888672 0.000000 0.000001 -1.925856 -1.040107 -0.906982
    2 17.843750 -0.000001 0.000000 0.000000 0.000000 2.229995
    3 16.515625 -0.000001 0.000000 -0.045180 0.241554 -1.179598
    4 6.878906 0.000000 0.000000 -0.003243 -0.002784 -1.107974
    5 -3.888672 0.000000 0.000000 -1.572848 -0.183478 -1.412071
    6 17.843750 0.000000 0.000000 0.000000 0.000000 0.642942
    7 16.515625 0.000000 0.000000 -0.072228 -0.086086 -1.526212
    8 6.878906 0.000000 0.000000 -0.079847 -0.003036 -0.733628
    9 0.000005 3.345128 -2.981901 1.499451 -0.157600 1.521129
    10 3.998799 0.000000 0.000000 0.113075 0.047495 0.218816
    11 3.518565 0.000000 0.000000 0.117134 0.036313 0.426067
    12 8.923110 0.000000 0.000000 0.024592 0.028739 0.367609
    13 3.307271 0.000000 0.000000 3.141590 0.000000 0.697011
    14 3.601524 -0.000001 0.000000 -0.420421 -0.186527 0.570615
    15 2.056784 0.981236 1.937660 3.362162 -1.185099 1.191550
    16 6.028142 0.000001 0.000000 -3.807910 -0.751235 1.106167
    17 11.692554 0.000000 0.000001 0.000000 0.000000 -2.252888
    18 11.481672 0.000000 -0.000032 1.547302 0.323262 -0.030600
    19 3.851891 0.123226 -1.223225 -0.175078 0.232930 -0.626226
    20 1.312564 0.000001 0.000000 0.000000 0.004679 -0.753589
    21 0.729362 0.000000 0.000000 0.000000 0.002406 -0.334303
    22 3.926700 0.316309 -0.458788 0.013729 0.025114 -0.537224
    23 1.539095 0.000001 0.000000 0.000000 0.002914 -0.561619
    24 1.196321 -0.000001 0.000000 0.000000 0.004796 -0.744628
    25 3.883690 0.211047 0.404099 0.091079 -0.102654 -0.336106
    26 1.719576 0.000000 0.000000 0.000000 0.005013 -0.680295
    27 1.209180 0.000000 0.000000 0.000000 0.002808 -0.530216
    28 3.867672 0.115964 1.301215 0.361172 -0.307765 -0.424235
    29 1.719428 0.000000 0.000000 0.000000 0.005105 -0.876204
    30 1.099666 -0.000001 0.000000 0.000000 0.003243 -0.558113
    31 0.837299 -0.302047 1.313446 -1.418910 -0.585425 -0.411855
    32 1.789784 0.000000 -0.000001 -0.392970 0.058130 -0.103184
    33 1.206999 0.000000 -0.000001 0.000000 -0.003294 1.086686
    34 2.056792 0.981240 -1.937610 -3.522941 1.344075 1.091937
    35 6.028143 0.000001 0.000000 1.649150 -0.029976 -1.581321
    36 11.692554 0.000000 0.000001 0.000000 0.000000 -2.200264
    37 11.481699 0.000000 0.000003 -1.384206 0.136978 0.671756
    38 3.851859 0.133064 1.220452 0.494313 -0.097762 -1.141906
    39 1.312561 0.000001 0.000000 0.000000 -0.007097 -0.826609
    40 0.729364 0.000000 0.000000 0.000000 -0.003653 -0.935199
    41 3.926668 0.319868 0.458387 0.166720 -0.127387 -1.076926
    42 1.539095 0.000000 0.000000 0.000000 -0.004404 -0.870443
    43 1.196326 0.000001 0.000000 0.000000 -0.007266 -1.448866
    44 3.883656 0.207493 -0.403698 0.103787 -0.274161 -0.673786
    45 1.719576 0.000002 0.000000 0.000000 -0.007590 -1.320343
    46 1.209181 -0.000001 0.000000 0.000000 -0.004245 -1.170289
    47 3.867642 0.104977 -1.303937 -0.315440 0.154362 -0.106089
    48 1.719425 0.000000 0.000000 0.000000 -0.007728 -0.850767
    49 1.099666 0.000001 0.000000 0.000000 -0.004918 -0.732111
    50 0.837268 -0.312959 -1.310521 1.175425 0.303547 -0.981087
    51 1.789784 0.000000 0.000000 0.000000 0.200217 0.487566
    52 1.206998 0.000000 0.000000 0.000000 0.201946 0.621931
    53 11.687500 0.000001 0.000004 0.000000 0.000000 -0.029498
    54 5.738281 -0.000001 0.000002 0.000687 0.000000 0.000000
    55 5.738281 0.000000 0.000001 0.000080 0.000000 0.000000
    56 1.500000 -0.000001 0.000002 0.000000 0.000000 0.000000
    57 1.499023 0.000001 0.000003 0.000000 0.000000 0.000000
    58 2.078125 1.478516 -4.996094 0.000000 0.000000 0.000000
    59 5.164063 0.000004 0.000000 0.000000 0.000000 0.000000
    60 11.476563 -0.000001 0.000002 0.000149 0.000000 0.000000
    61 5.558594 0.000001 0.000000 0.000000 0.000000 0.000000
    62 5.558594 0.000002 0.000001 0.000000 0.000000 0.000000
    63 5.164063 0.000001 0.000001 0.000000 0.000000 0.000000
    64 11.476563 0.000001 0.000007 0.001270 0.000000 0.000000
    65 2.078125 1.478516 4.996094 0.000000 0.000000 0.000000
    66 11.687500 -0.000001 0.000002 0.000000 0.000000 -0.029498
  time 3
    0 -2.224609 0.385742 35.031250 1.806500 0.155723 -0.132771
    1 3.888672 0.000000 0.000001 -1.925856 -1.040107 -0.906982
    2 17.843750 -0.000001 0.000000 0.000000 0.000000 2.229995
    3 16.515625 -0.000001 0.000000 -0.045180 0.241554 -1.179598
    4 6.878906 0.000000 0.000000 -0.003243 -0.002784 -1.107974
    5 -3.888672 0.000000 0.000000 -1.572848 -0.183478 -1.412071
    6 17.843750 0.000000 0.000000 0.000000 0.000000 0.642942
    7 16.515625 0.000000 0.000000 -0.072228 -0.086086 -1.526212
    8 6.878906 0.000000 0.000000 -0.079847 -0.003036 -0.733628
    9 0.000005 3.345128 -2.981901 1.508963 -0.156845 1.460374
    10 3.998799 0.000000 0.000000 0.099508 0.049628 0.210581
    11 3.518565 0.000000 0.000000 0.103832 0.039741 0.417997
    12 8.923110 0.000000 0.000000 0.017402 0.027936 0.367633
    13 3.307271 0.000000 0.000000 3.141590 0.000000 0.697011
    14 3.601524 -0.000001 0.000000 -0.412032 -0.188673 0.580718
    15 2.056784 0.981236 1.937660 3.449788 -1.175284 1.110495
    16 6.028142 0.000001 0.000000 -3.790227 -0.715777 1.081312
    17 11.692554 0.000000 0.000001 0.000000 0.000000 -2.252888
    18 11.481672 0.000000 -0.000032 1.547302 0.323262 -0.030600
    19 3.851891 0.123226 -1.223225 -0.175078 0.232930 -0.626253
    20 1.312564 0.000001 0.000000 0.000000 0.004679 -0.753589
    21 0.729362 0.000000 0.000000 0.000000 0.002406 -0.334303
    22 3.926700 0.316309 -0.458788 0.013729 0.025114 -0.537224
    23 1.539095 0.000001 0.000000 0.000000 0.002914 -0.561619
    24 1.196321 -0.000001 0.000000 0.000000 0.004796 -0.744628
    25 3.883690 0.211047 0.404099 0.091079 -0.102654 -0.336106
    26 1.719576 0.000000 0.000000 0.000000 0.005013 -0.680295
    27 1.209180 0.000000 0.000000 0.000000 0.002808 -0.530216
    28 3.867672 0.115964 1.301215 0.361172 -0.307765 -0.424235
    29 1.719428 0.000000 0.000000 0.000000 0.005105 -0.876204
    30 1.099666 -0.000001 0.000000 0.000000 0.003243 -0.558113
    31 0.837299 -0.302047 1.313446 -1.418910 -0.585425 -0.411855
    32 1.789784 0.000000 -0.000001 -0.392970 0.058130 -0.103184
    33 1.206999 0.000000 -0.000001 0.000000 -0.003294 1.086686
    34 2.056792 0.981240 -1.937610 -3.661066 1.330412 0.956479
    35 6.028143 0.000001 0.000000 1.651190 -0.002528 -1.621119
    36 11.692554 0.000000 0.000001 0.000000 0.000000 -2.249354
    37 11.481699 0.000000 0.000003 -1.387175 0.115839 0.625673
    38 3.851859 0.133064 1.220452 0.494313 -0.097762 -1.141906
    39 1.312561 0.000001 0.000000 0.000000 -0.007097 -0.826609
    40 0.729364 0.000000 0.000000 0.000000 -0.003653 -0.935199
    41 3.926668 0.319868 0.458387 0.166720 -0.127387 -1.076926
    42 1.539095 0.000000 0.000000 0.000000 -0.004404 -0.870443
    43 1.196326 0.000001 0.000000 0.000000 -0.007266 -1.448866
    44 3.883656 0.207493 -0.403698 0.103787 -0.274161 -0.673786
    45 1.719576 0.000002 0.000000 0.000000 -0.007590 -1.320343
    46 1.209181 -0.000001 0.000000 0.000000 -0.004245 -1.170289
    47 3.867642 0.104977 -1.303937 -0.315440 0.154362 -0.106089
    48 1.719425 0.000000 0.000000 0.000000 -0.007728 -0.850767
    49 1.099666 0.000001 0.000000 0.000000 -0.004918 -0.732111
    50 0.837268 -0.312959 -1.310521 1.175425 0.303547 -0.981087
    51 1.789784 0.000000 0.000000 0.000000 0.200217 0.487566
    52 1.206998 0.000000 0.000000 0.000000 0.201946 0.621931
    53 11.687500 0.000001 0.000004 0.000000 0.000000 -0.029498
    54 5.738281 -0.000001 0.000002 0.000687 0.000000 0.000000
    55 5.738281 0.000000 0.000001 0.000080 0.000000 0.000000
    56 1.500000 -0.000001 0.000002 0.000000 0.000000 0.000000
    57 1.499023 0.000001 0.000003 0.000000 0.000000 0.000000
    58 2.078125 1.478516 -4.996094 0.000000 0.000000 0.000000
    59 5.164063 0.000004 0.000000 0.000000 0.000000 0.000000
    60 11.476563 -0.000001 0.000002 0.000149 0.000000 0.000000
    61 5.558594 0.000001 0.000000 0.000000 0.000000 0.000000
    62 5.558594 0.000002 0.000001 0.000000 0.000000 0.000000
    63 5.164063 0.000001 0.000001 0.000000 0.000000 0.000000
    64 11.476563 0.000001 0.000007 0.001270 0.000000 0.000000
    65 2.078125 1.478516 4.996094 0.000000 0.000000 0.000000
    66 11.687500 -0.000001 0.000002 0.000000 0.000000 -0.029498
  time 4
    0 -2.224609 0.385742 35.031250 1.806500 0.155723 -0.132771
    1 3.888672 0.000000 0.000001 -1.925856 -1.040107 -0.906982
    2 17.843750 -0.000001 0.000000 0.000000 0.000000 2.229995
    3 16.515625 -0.000001 0.000000 -0.045180 0.241554 -1.179598
    4 6.878906 0.000000 0.000000 -0.003243 -0.002784 -1.107974
    5 -3.888672 0.000000 0.000000 -1.572848 -0.183478 -1.412071
    6 17.843750 0.000000 0.000000 0.000000 0.000000 0.642942
    7 16.515625 0.000000 0.000000 -0.072228 -0.086086 -1.526212
    8 6.878906 0.000000 0.000000 -0.079847 -0.003036 -0.733628
    9 0.000005 3.345128 -2.981901 1.513517 -0.156282 1.431190
    10 3.998799 0.000000 0.000000 0.063255 0.055297 0.201699
    11 3.518565 0.000000 0.000000 0.068315 0.048897 0.409446
    12 8.923110 0.000000 0.000000 -0.001774 0.025803 0.367621
    13 3.307271 0.000000 0.000000 3.141590 0.000000 0.697011
    14 3.601524 -0.000001 0.000000 -0.383517 -0.219229 0.576954
    15 2.056784 0.981236 1.937660 3.546415 -1.158401 1.021870
    16 6.028142 0.000001 0.000000 -3.734694 -0.678818 1.017306
    17 11.692554 0.000000 0.000001 0.000000 0.000000 -2.252888
    18 11.481672 0.000000 -0.000032 1.547302 0.323262 -0.030600
    19 3.851891 0.123226 -1.223225 -0.175078 0.232930 -0.626253
    20 1.312564 0.000001 0.000000 0.000000 0.004679 -0.753589
    21 0.729362 0.000000 0.000000 0.000000 0.002406 -0.334303
    22 3.926700 0.316309 -0.458788 0.013729 0.025114 -0.537224
    23 1.539095 0.000001 0.000000 0.000000 0.002914 -0.561619
    24 1.196321 -0.000001 0.000000 0.000000 0.004796 -0.744628
    25 3.883690 0.211047 0.404099 0.091079 -0.102654 -0.336106
    26 1.719576 0.000000 0.000000 0.000000 0.005013 -0.680295
    27 1.209180 0.000000 0.000000 0.000000 0.002808 -0.530216
    28 3.867672 0.115964 1.301215 0.361172 -0.307765 -0.424235
    29 1.719428 0.000000 0.000000 0.000000 0.005105 -0.876204
    30 1.099666 -0.000001 0.000000 0.000000 0.003243 -0.558113
    31 0.837299 -0.302047 1.313446 -1.418910 -0.585425 -0.411855
    32 1.789784 0.000000 -0.000001 -0.392970 0.058130 -0.103184
    33 1.206999 0.000000 -0.000001 0.000000 -0.003294 1.086686
    34 2.056792 0.981240 -1.937610 -3.808679 1.310624 0.811868
    35 6.028143 0.000001 0.000000 1.642496 0.019096 -1.651503
    36 11.692554 0.000000 0.000001 0.000000 0.000000 -2.267798
    37 11.481699 0.000000 0.000003 -1.387798 0.087807 0.570479
    38 3.851859 0.133064 1.220452 0.494313 -0.097762 -1.141906
    39 1.312561 0.000001 0.000000 0.000000 -0.007097 -0.826609
    40 0.729364 0.000000 0.000000 0.000000 -0.003653 -0.935199
    41 3.926668 0.319868 0.458387 0.166720 -0.127387 -1.076926
    42 1.539095 0.000000 0.000000 0.000000 -0.004404 -0.870443
    43 1.196326 0.000001 0.000000 0.000000 -0.007266 -1.448866
    44 3.883656 0.207493 -0.403698 0.103787 -0.274161 -0.673786
    45 1.719576 0.000002 0.000000 0.000000 -0.007590 -1.320343
    46 1.209181 -0.000001 0.000000 0.000000 -0.004245 -1.170289
    47 3.867642 0.104977 -1.303937 -0.315440 0.154362 -0.106089
    48 1.719425 0.000000 0.000000 0.000000 -0.007728 -0.850767
    49 1.099666 0.000001 0.000000 0.000000 -0.004918 -0.732111
    50 0.837268 -0.312959 -1.310521 1.175425 0.303547 -0.981087
    51 1.789784 0.000000 0.000000 0.000000 0.200217 0.487566
    52 1.206998 0.000000 0.000000 0.000000 0.201946 0.621931
    53 11.687500 0.000001 0.000004 0.000000 0.000000 -0.029498
    54 5.738281 -0.000001 0.000002 0.000687 0.000000 0.000000
    55 5.738281 0.000000 0.000001 0.000080 0.000000 0.000000
    56 1.500000 -0.000001 0.000002 0.000000 0.000000 0.000000
    57 1.499023 0.000001 0.000003 0.000000 0.000000 0.000000
    58 2.078125 1.478516 -4.996094 0.000000 0.000000 0.000000
    59 5.164063 0.000004 0.000000 0.000000 0.000000 0.000000
    60 11.476563 -0.000001 0.000002 0.000149 0.000000 0.000000
    61 5.558594 0.000001 0.000000 0.000000 0.000000 0.000000
    62 5.558594 0.000002 0.000001 0.000000 0.000000 0.000000
    63 5.164063 0.000001 0.000001 0.000000 0.000000 0.000000
    64 11.476563 0.000001 0.000007 0.001270 0.000000 0.000000
    65 2.078125 1.478516 4.996094 0.000000 0.000000 0.000000
    66 11.687500 -0.000001 0.000002 0.000000 0.000000 -0.029498
  time 5
    0 -2.224609 0.385742 35.031250 1.806500 0.155723 -0.132771
    1 3.888672 0.000000 0.000001 -1.925856 -1.040107 -0.906982
    2 17.843750 -0.000001 0.000000 0.000000 0.000000 2.229995
    3 16.515625 -0.000001 0.000000 -0.045180 0.241554 -1.179598
    4 6.878906 0.000000 0.000000 -0.003243 -0.002784 -1.107974
    5 -3.888672 0.000000 0.000000 -1.572848 -0.183478 -1.412071
    6 17.843750 0.000000 0.000000 0.000000 0.000000 0.642942
    7 16.515625 0.000000 0.000000 -0.072228 -0.086086 -1.526212
    8 6.878906 0.000000 0.000000 -0.079847 -0.003036 -0.733628
    9 0.000005 3.345128 -2.981901 1.514428 -0.156154 1.425075
    10 3.998799 0.000000 0.000000 0.010798 0.063590 0.197233
    11 3.518565 0.000000 0.000000 0.016936 0.062236 0.405236
    12 8.923110 0.000000 0.000000 -0.029554 0.022711 0.367453
    13 3.307271 0.000000 0.000000 3.141590 0.000000 0.697011
    14 3.601524 -0.000001 0.000000 -0.342533 -0.260515 0.571355
    15 2.056784 0.981236 1.937660 3.619004 -1.139869 0.956336
    16 6.028142 0.000001 0.000000 -3.653067 -0.644133 0.936014
    17 11.692554 0.000000 0.000001 0.000000 0.000000 -2.252888
    18 11.481672 0.000000 -0.000032 1.547302 0.323262 -0.030600
    19 3.851891 0.123226 -1.223225 -0.175078 0.232930 -0.626253
    20 1.312564 0.000001 0.000000 0.000000 0.004679 -0.753589
    21 0.729362 0.000000 0.000000 0.000000 0.002406 -0.334303
    22 3.926700 0.316309 -0.458788 0.013729 0.025114 -0.537224
    23 1.539095 0.000001 0.000000 0.000000 0.002914 -0.561619
    24 1.196321 -0.000001 0.000000 0.000000 0.004796 -0.744628
    25 3.883690 0.211047 0.404099 0.091079 -0.102654 -0.336106
    26 1.719576 0.000000 0.000000 0.000000 0.005013 -0.680295
    27 1.209180 0.000000 0.000000 0.000000 0.002808 -0.530216
    28 3.867672 0.115964 1.301215 0.361172 -0.307765 -0.424235
    29 1.719428 0.000000 0.000000 0.000000 0.005105 -0.876204
    30 1.099666 -0.000001 0.000000 0.000000 0.003255 -0.558113
    31 0.837299 -0.302047 1.313446 -1.418910 -0.585425 -0.411855
    32 1.789784 0.000000 -0.000001 -0.392970 0.058130 -0.103184
    33 1.206999 0.000000 -0.000001 0.000000 -0.003294 1.086686
    34 2.056792 0.981240 -1.937610 -3.920073 1.292014 0.702678
    35 6.028143 0.000001 0.000000 1.619961 0.033035 -1.666229
    36 11.692554 0.000000 0.000001 0.000000 0.000000 -2.242891
    37 11.481699 0.000000 0.000003 -1.384637 0.054631 0.511277
    38 3.851859 0.133064 1.220452 0.494313 -0.097762 -1.141906
    39 1.312561 0.000001 0.000000 0.000000 -0.007097 -0.826609
    40 0.729364 0.000000 0.000000 0.000000 -0.003653 -0.935199
    41 3.926668 0.319868 0.458387 0.166720 -0.127387 -1.076926
    42 1.539095 0.000000 0.000000 0.000000 -0.004404 -0.870443
    43 1.196326 0.000001 0.000000 0.000000 -0.007266 -1.448866
    44 3.883656 0.207493 -0.403698 0.103787 -0.274161 -0.673786
    45 1.719576 0.000002 0.000000 0.000000 -0.007590 -1.320343
    46 1.209181 -0.000001 0.000000 0.000000 -0.004245 -1.170289
    47 3.867642 0.104977 -1.303937 -0.315440 0.154362 -0.106089
    48 1.719425 0.000000 0.000000 0.000000 -0.007728 -0.850767
    49 1.099666 0.000001 0.000000 0.000000 -0.004918 -0.732111
    50 0.837268 -0.312959 -1.310521 1.175425 0.303547 -0.981087
    51 1.789784 0.000000 0.000000 0.000000 0.200217 0.487566
    52 1.206998 0.000000 0.000000 0.000000 0.201946 0.621931
    53 11.687500 0.000001 0.000004 0.000000 0.000000 -0.029498
    54 5.738281 -0.000001 0.000002 0.000687 0.000000 0.000000
    55 5.738281 0.000000 0.000001 0.000080 0.000000 0.000000
    56 1.500000 -0.000001 0.000002 0.000000 0.000000 0.000000
    57 1.499023 0.000001 0.000003 0.000000 0.000000 0.000000
    58 2.078125 1.478516 -4.996094 0.000000 0.000000 0.000000
    59 5.164063 0.000004 0.000000 0.000000 0.000000 0.000000
    60 11.476563 -0.000001 0.000002 0.000149 0.000000 0.000000
    61 5.558594 0.000001 0.000000 0.000000 0.000000 0.000000
    62 5.558594 0.000002 0.000001 0.000000 0.000000 0.000000
    63 5.164063 0.000001 0.000001 0.000000 0.000000 0.000000
    64 11.476563 0.000001 0.000007 0.001270 0.000000 0.000000
    65 2.078125 1.478516 4.996094 0.000000 0.000000 0.000000
    66 11.687500 -0.000001 0.000002 0.000000 0.000000 -0.029498
  time 6
    0 -2.224609 0.385742 35.031250 1.806500 0.155723 -0.132771
    1 3.888672 0.000000 0.000001 -1.925856 -1.040107 -0.906982
    2 17.843750 -0.000001 0.000000 0.000000 0.000000 2.229995
    3 16.515625 -0.000001 0.000000 -0.045180 0.241554 -1.179598
    4 6.878906 0.000000 0.000000 -0.003243 -0.002784 -1.107974
    5 -3.888672 0.000000 0.000000 -1.572848 -0.183478 -1.412071
    6 17.843750 0.000000 0.000000 0.000000 0.000000 0.642942
    7 16.515625 0.000000 0.000000 -0.072228 -0.086086 -1.526212
    8 6.878906 0.000000 0.000000 -0.079847 -0.003036 -0.733628
    9 0.000005 3.345128 -2.981901 1.515997 -0.155913 1.415082
    10 3.998799 0.000000 0.000000 -0.051342 0.073681 0.199491
    11 3.518565 0.000000 0.000000 -0.043925 0.078319 0.407479
    12 8.923110 0.000000 0.000000 -0.062464 0.019044 0.367034
    13 3.307271 0.000000 0.000000 3.141590 0.000000 0.697011
    14 3.601524 -0.000001 0.000000 -0.296469 -0.297680 0.565210
    15 2.056784 0.981236 1.937660 3.643329 -1.128051 0.935545
    16 6.028142 0.000001 0.000000 -3.558441 -0.618221 0.867056
    17 11.692554 0.000000 0.000001 0.000000 0.000000 -2.252888
    18 11.481672 0.000000 -0.000032 1.547302 0.323262 -0.030600
    19 3.851891 0.123226 -1.223225 -0.175078 0.232930 -0.626253
    20 1.312564 0.000001 0.000000 0.000000 0.004679 -0.753589
    21 0.729362 0.000000 0.000000 0.000000 0.002406 -0.334303
    22 3.926700 0.316309 -0.458788 0.013729 0.025114 -0.537224
    23 1.539095 0.000001 0.000000 0.000000 0.002914 -0.561619
    24 1.196321 -0.000001 0.000000 0.000000 0.004796 -0.744628
    25 3.883690 0.211047 0.404099 0.091079 -0.102654 -0.336106
    26 1.719576 0.000000 0.000000 0.000000 0.005013 -0.680295
    27 1.209180 0.000000 0.000000 0.000000 0.002808 -0.530216
    28 3.867672 0.115964 1.301215 0.361172 -0.307765 -0.424235
    29 1.719428 0.000000 0.000000 0.000000 0.005105 -0.876204
    30 1.099666 -0.000001 0.000000 0.000000 0.003243 -0.558113
    31 0.837299 -0.302047 1.313446 -1.418910 -0.585425 -0.411855
    32 1.789784 0.000000 -0.000001 -0.392970 0.058130 -0.103184
    33 1.206999 0.000000 -0.000001 0.000000 -0.003294 1.086686
    34 2.056792 0.981240 -1.937610 -3.972075 1.286164 0.651057
    35 6.028143 0.000001 0.000000 1.583852 0.039957 -1.662408
    36 11.692554 0.000000 0.000001 0.000000 0.000000 -2.193947
    37 11.481699 0.000000 0.000003 -1.377310 0.019116 0.452898
    38 3.851859 0.133064 1.220452 0.494313 -0.097762 -1.141906
    39 1.312561 0.000001 0.000000 0.000000 -0.007097 -0.826609
    40 0.729364 0.000000 0.000000 0.000000 -0.003653 -0.935199
    41 3.926668 0.319868 0.458387 0.166720 -0.127387 -1.076926
    42 1.539095 0.000000 0.000000 0.000000 -0.004404 -0.870443
    43 1.196326 0.000001 0.000000 0.000000 -0.007266 -1.448866
    44 3.883656 0.207493 -0.403698 0.103787 -0.274161 -0.673786
    45 1.719576 0.000002 0.000000 0.000000 -0.007590 -1.320343
    46 1.209181 -0.000001 0.000000 0.000000 -0.004245 -1.170289
    47 3.867642 0.104977 -1.303937 -0.315440 0.154362 -0.106089
    48 1.719425 0.000000 0.000000 0.000000 -0.007728 -0.850767
    49 1.099666 0.000001 0.000000 0.000000 -0.004918 -0.732111
    50 0.837268 -0.312959 -1.310521 1.175425 0.303547 -0.981087
    51 1.789784 0.000000 0.000000 0.000000 0.200217 0.487566
    52 1.206998 0.000000 0.000000 0.000000 0.201946 0.621931
    53 11.687500 0.000001 0.000004 0.000000 0.000000 -0.029498
    54 5.738281 -0.000001 0.000002 0.000687 0.000000 0.000000
    55 5.738281 0.000000 0.000001 0.000080 0.000000 0.000000
    56 1.500000 -0.000001 0.000002 0.000000 0.000000 0.000000
    57 1.499023 0.000001 0.000003 0.000000 0.000000 0.000000
    58 2.078125 1.478516 -4.996094 0.000000 0.000000 0.000000
    59 5.164063 0.000004 0.000000 0.000000 0.000000 0.000000
    60 11.476563 -0.000001 0.000002 0.000149 0.000000 0.000000
    61 5.558594 0.000001 0.000000 0.000000 0.000000 0.000000
    62 5.558594 0.000002 0.000001 0.000000 0.000000 0.000000
    63 5.164063 0.000001 0.000001 0.000000 0.000000 0.000000
    64 11.476563 0.000001 0.000007 0.001270 0.000000 0.000000
    65 2.078125 1.478516 4.996094 0.000000 0.000000 0.000000
    66 11.687500 -0.000001 0.000002 0.000000 0.000000 -0.029498
  time 7
    0 -2.224609 0.385742 35.031250 1.806500 0.155723 -0.132771
    1 3.888672 0.000000 0.000001 -1.925856 -1.040107 -0.906982
    2 17.843750 -0.000001 0.000000 0.000000 0.000000 2.229995
    3 16.515625 -0.000001 0.000000 -0.045180 0.241554 -1.179598
    4 6.878906 0.000000 0.000000 -0.003243 -0.002784 -1.107974
    5 -3.888672 0.000000 0.000000 -1.572848 -0.183478 -1.412071
    6 17.843750 0.000000 0.000000 0.000000 0.000000 0.642942
    7 16.515625 0.000000 0.000000 -0.072228 -0.086086 -1.526212
    8 6.878906 0.000000 0.000000 -0.079847 -0.003036 -0.733628
    9 0.000005 3.345128 -2.981901 1.523840 -0.154499 1.364470
    10 3.998799 0.000000 0.000000 -0.116694 0.084863 0.206082
    11 3.518565 0.000000 0.000000 -0.107930 0.095769 0.413685
    12 8.923110 0.000000 0.000000 -0.097063 0.015161 0.366327
    13 3.307271 0.000000 0.000000 3.141590 0.000000 0.697011
    14 3.601524 -0.000001 0.000000 -0.250136 -0.327428 0.559386
    15 2.056784 0.981236 1.937660 3.590083 -1.131585 0.985079
    16 6.028142 0.000001 0.000000 -3.455308 -0.627222 0.830802
    17 11.692554 0.000000 0.000001 0.000000 0.000000 -2.252888
    18 11.481672 0.000000 -0.000032 1.547302 0.323262 -0.030600
    19 3.851891 0.123226 -1.223225 -0.175078 0.232930 -0.626253
    20 1.312564 0.000001 0.000000 0.000000 0.004679 -0.753589
    21 0.729362 0.000000 0.000000 0.000000 0.002406 -0.334303
    22 3.926700 0.316309 -0.458788 0.013729 0.025114 -0.537224
    23 1.539095 0.000001 0.000000 0.000000 0.002914 -0.561619
    24 1.196321 -0.000001 0.000000 0.000000 0.004796 -0.744628
    25 3.883690 0.211047 0.404099 0.091079 -0.102654 -0.336106
    26 1.719576 0.000000 0.000000 0.000000 0.005013 -0.680295
    27 1.209180 0.000000 0.000000 0.000000 0.002808 -0.530216
    28 3.867672 0.115964 1.301215 0.361172 -0.307765 -0.424235
    29 1.719428 0.000000 0.000000 0.000000 0.005105 -0.876204
    30 1.099666 -0.000001 0.000000 0.000000 0.003243 -0.558113
    31 0.837299 -0.302047 1.313446 -1.418910 -0.585425 -0.411855
    32 1.789784 0.000000 -0.000001 -0.392970 0.058130 -0.103184
    33 1.206999 0.000000 -0.000001 0.000000 -0.003294 1.086686
    34 2.056792 0.981240 -1.937610 -3.932025 1.306463 0.688949
    35 6.028143 0.000001 0.000000 1.543927 0.022629 -1.636218
    36 11.692554 0.000000 0.000001 0.000000 0.000000 -2.144857
    37 11.481699 0.000000 0.000003 -1.366775 -0.015294 0.399844
    38 3.851859 0.133064 1.220452 0.494313 -0.097762 -1.141906
    39 1.312561 0.000001 0.000000 0.000000 -0.007097 -0.826609
    40 0.729364 0.000000 0.000000 0.000000 -0.003653 -0.935199
    41 3.926668 0.319868 0.458387 0.166720 -0.127387 -1.076926
    42 1.539095 0.000000 0.000000 0.000000 -0.004404 -0.870443
    43 1.196326 0.000001 0.000000 0.000000 -0.007266 -1.448866
    44 3.883656 0.207493 -0.403698 0.103787 -0.274161 -0.673786
    45 1.719576 0.000002 0.000000 0.000000 -0.007590 -1.320343
    46 1.209181 -0.000001 0.000000 0.000000 -0.004245 -1.170289
    47 3.867642 0.104977 -1.303937 -0.315440 0.154362 -0.106089
    48 1.719425 0.000000 0.000000 0.000000 -0.007728 -0.850767
    49 1.099666 0.000001 0.000000 0.000000 -0.004918 -0.732111
    50 0.837268 -0.312959 -1.310521 1.175425 0.303547 -0.981087
    51 1.789784 0.000000 0.000000 0.000000 0.200217 0.487566
    52 1.206998 0.000000 0.000000 0.000000 0.201946 0.621931
    53 11.687500 0.000001 0.000004 0.000000 0.000000 -0.029498
    54 5.738281 -0.000001 0.000002 0.000687 0.000000 0.000000
    55 5.738281 0.000000 0.000001 0.000080 0.000000 0.000000
    56 1.500000 -0.000001 0.000002 0.000000 0.000000 0.000000
    57 1.499023 0.000001 0.000003 0.000000 0.000000 0.000000
    58 2.078125 1.478516 -4.996094 0.000000 0.000000 0.000000
    59 5.164063 0.000004 0.000000 0.000000 0.000000 0.000000
    60 11.476563 -0.000001 0.000002 0.000149 0.000000 0.000000
    61 5.558594 0.000001 0.000000 0.000000 0.000000 0.000000
    62 5.558594 0.000002 0.000001 0.000000 0.000000 0.000000
    63 5.164063 0.000001 0.000001 0.000000 0.000000 0.000000
    64 11.476563 0.000001 0.000007 0.001270 0.000000 0.000000
    65 2.078125 1.478516 4.996094 0.000000 0.000000 0.000000
    66 11.687500 -0.000001 0.000002 0.000000 0.000000 -0.029498
  time 8
    0 -2.224609 0.385742 35.031250 1.806500 0.155723 -0.132771
    1 3.888672 0.000000 0.000001 -1.925856 -1.040107 -0.906982
    2 17.843750 -0.000001 0.000000 0.000000 0.000000 2.229995
    3 16.515625 -0.000001 0.000000 -0.045180 0.241554 -1.179598
    4 6.878906 0.000000 0.000000 -0.003243 -0.002784 -1.107974
    5 -3.888672 0.000000 0.000000 -1.572848 -0.183478 -1.412071
    6 17.843750 0.000000 0.000000 0.000000 0.000000 0.642942
    7 16.515625 0.000000 0.000000 -0.072228 -0.086086 -1.526212
    8 6.878906 0.000000 0.000000 -0.079847 -0.003036 -0.733628
    9 0.000005 3.345128 -2.981901 1.532998 -0.152315 1.304461
    10 3.998799 0.000000 0.000000 -0.178786 0.096368 0.214698
    11 3.518565 0.000000 0.000000 -0.168699 0.113206 0.421580
    12 8.923110 0.000000 0.000000 -0.129913 0.011445 0.365404
    13 3.307271 0.000000 0.000000 3.141590 0.000000 0.697011
    14 3.601524 -0.000001 0.000000 -0.208152 -0.347519 0.540564
    15 2.056784 0.981236 1.937660 3.477559 -1.142853 1.088458
    16 6.028142 0.000001 0.000000 -3.352558 -0.659453 0.801649
    17 11.692554 0.000000 0.000001 0.000000 0.000000 -2.252888
    18 11.481672 0.000000 -0.000032 1.547302 0.323262 -0.030600
    19 3.851891 0.123226 -1.223225 -0.175078 0.232930 -0.626253
    20 1.312564 0.000001 0.000000 0.000000 0.004679 -0.753589
    21 0.729362 0.000000 0.000000 0.000000 0.002406 -0.334303
    22 3.926700 0.316309 -0.458788 0.013729 0.025114 -0.537224
    23 1.539095 0.000001 0.000000 0.000000 0.002914 -0.561619
    24 1.196321 -0.000001 0.000000 0.000000 0.004796 -0.744628
    25 3.883690 0.211047 0.404099 0.091079 -0.102654 -0.336106
    26 1.719576 0.000000 0.000000 0.000000 0.005013 -0.680295
    27 1.209180 0.000000 0.000000 0.000000 0.002808 -0.530216
    28 3.867672 0.115964 1.301215 0.361172 -0.307765 -0.424235
    29 1.719428 0.000000 0.000000 0.000000 0.005105 -0.876204
    30 1.099666 -0.000001 0.000000 0.000000 0.003255 -0.558113
    31 0.837299 -0.302047 1.313446 -1.418910 -0.585425 -0.411855
    32 1.789784 0.000000 -0.000001 -0.392970 0.058130 -0.103184
    33 1.206999 0.000000 -0.000001 0.000000 -0.003294 1.086686
    34 2.056792 0.981240 -1.937610 -3.798917 1.342701 0.818275
    35 6.028143 0.000001 0.000000 1.503737 -0.019044 -1.578898
    36 11.692554 0.000000 0.000001 0.000000 0.000000 -2.096784
    37 11.481699 0.000000 0.000003 -1.355329 -0.044689 0.356479
    38 3.851859 0.133064 1.220452 0.494313 -0.097762 -1.141906
    39 1.312561 0.000001 0.000000 0.000000 -0.007097 -0.826609
    40 0.729364 0.000000 0.000000 0.000000 -0.003653 -0.935199
    41 3.926668 0.319868 0.458387 0.166720 -0.127387 -1.076926
    42 1.539095 0.000000 0.000000 0.000000 -0.004404 -0.870443
    43 1.196326 0.000001 0.000000 0.000000 -0.007266 -1.448866
    44 3.883656 0.207493 -0.403698 0.103787 -0.274161 -0.673786
    45 1.719576 0.000002 0.000000 0.000000 -0.007590 -1.320343
    46 1.209181 -0.000001 0.000000 0.000000 -0.004245 -1.170289
    47 3.867642 0.104977 -1.303937 -0.315440 0.154362 -0.106089
    48 1.719425 0.000000 0.000000 0.000000 -0.007728 -0.850767
    49 1.099666 0.000001 0.000000 0.000000 -0.004918 -0.732111
    50 0.837268 -0.312959 -1.310521 1.175425 0.303547 -0.981087
    51 1.789784 0.000000 0.000000 0.000000 0.200217 0.487566
    52 1.206998 0.000000 0.000000 0.000000 0.201946 0.621931
    53 11.687500 0.000001 0.000004 0.000000 0.000000 -0.029498
    54 5.738281 -0.000001 0.000002 0.000687 0.000000 0.000000
    55 5.738281 0.000000 0.000001 0.000080 0.000000 0.000000
    56 1.500000 -0.000001 0.000002 0.000000 0.000000 0.000000
    57 1.499023 0.000001 0.000003 0.000000 0.000000 0.000000
    58 2.078125 1.478516 -4.996094 0.000000 0.000000 0.000000
    59 5.164063 0.000004 0.000000 0.000000 0.000000 0.000000
    60 11.476563 -0.000001 0.000002 0.000149 0.000000 0.000000
    61 5.558594 0.000001 0.000000 0.000000 0.000000 0.000000
    62 5.558594 0.000002 0.000001 0.000000 0.000000 0.000000
    63 5.164063 0.000001 0.000001 0.000000 0.000000 0.000000
    64 11.476563 0.000001 0.000007 0.001270 0.000000 0.000000
    65 2.078125 1.478516 4.996094 0.000000 0.000000 0.000000
    66 11.687500 -0.000001 0.000002 0.000000 0.000000 -0.029498
  time 9
    0 -2.224609 0.385742 35.031250 1.806500 0.155723 -0.132771
    1 3.888672 0.000000 0.000001 -1.925856 -1.040107 -0.906982
    2 17.843750 -0.000001 0.000000 0.000000 0.000000 2.229995
    3 16.515625 -0.000001 0.000000 -0.045180 0.241554 -1.179598
    4 6.878906 0.000000 0.000000 -0.003243 -0.002784 -1.107974
    5 -3.888672 0.000000 0.000000 -1.572848 -0.183478 -1.412071
    6 17.843750 0.000000 0.000000 0.000000 0.000000 0.642942
    7 16.515625 0.000000 0.000000 -0.072228 -0.086086 -1.526212
    8 6.878906 0.000000 0.000000 -0.079847 -0.003036 -0.733628
    9 0.000005 3.345128 -2.981901 1.536388 -0.151367 1.282088
    10 3.998799 0.000000 0.000000 -0.231099 0.107442 0.221373
    11 3.518565 0.000000 0.000000 -0.219826 0.129206 0.427393
    12 8.923110 0.000000 0.000000 -0.157573 0.008293 0.364433
    13 3.307271 0.000000 0.000000 3.141590 0.000000 0.697011
    14 3.601524 -0.000001 0.000000 -0.173056 -0.363178 0.502469
    15 2.056784 0.981236 1.937660 3.361588 -1.149920 1.194999
    16 6.028142 0.000001 0.000000 -3.271887 -0.682000 0.769693
    17 11.692554 0.000000 0.000001 0.000000 0.000000 -2.252888
    18 11.481672 0.000000 -0.000032 1.547302 0.323262 -0.030600
    19 3.851891 0.123226 -1.223225 -0.175078 0.232930 -0.626253
    20 1.312564 0.000001 0.000000 0.000000 0.004679 -0.753589
    21 0.729362 0.000000 0.000000 0.000000 0.002406 -0.334303
    22 3.926700 0.316309 -0.458788 0.013729 0.025114 -0.537224
    23 1.539095 0.000001 0.000000 0.000000 0.002914 -0.561619
    24 1.196321 -0.000001 0.000000 0.000000 0.004796 -0.744628
    25 3.883690 0.211047 0.404099 0.091079 -0.102654 -0.336106
    26 1.719576 0.000000 0.000000 0.000000 0.005013 -0.680295
    27 1.209180 0.000000 0.000000 0.000000 0.002808 -0.530216
    28 3.867672 0.115964 1.301215 0.361172 -0.307765 -0.424235
    29 1.719428 0.000000 0.000000 0.000000 0.005105 -0.876204
    30 1.099666 -0.000001 0.000000 0.000000 0.003255 -0.558113
    31 0.837299 -0.302047 1.313446 -1.418910 -0.585425 -0.411855
    32 1.789784 0.000000 -0.000001 -0.392970 0.058130 -0.103184
    33 1.206999 0.000000 -0.000001 0.000000 -0.003294 1.086686
    34 2.056792 0.981240 -1.937610 -3.619647 1.372736 0.994187
    35 6.028143 0.000001 0.000000 1.463369 -0.056326 -1.503963
    36 11.692554 0.000000 0.000001 0.000000 0.000000 -2.050600
    37 11.481699 0.000000 0.000003 -1.346087 -0.065083 0.327166
    38 3.851859 0.133064 1.220452 0.494313 -0.097762 -1.141906
    39 1.312561 0.000001 0.000000 0.000000 -0.007097 -0.826609
    40 0.729364 0.000000 0.000000 0.000000 -0.003653 -0.935199
    41 3.926668 0.319868 0.458387 0.166720 -0.127387 -1.076926
    42 1.539095 0.000000 0.000000 0.000000 -0.004404 -0.870443
    43 1.196326 0.000001 0.000000 0.000000 -0.007266 -1.448866
    44 3.883656 0.207493 -0.403698 0.103787 -0.274161 -0.673786
    45 1.719576 0.000002 0.000000 0.000000 -0.007590 -1.320343
    46 1.209181 -0.000001 0.000000 0.000000 -0.004245 -1.170289
    47 3.867642 0.104977 -1.303937 -0.315440 0.154362 -0.106089
    48 1.719425 0.000000 0.000000 0.000000 -0.007728 -0.850767
    49 1.099666 0.000001 0.000000 0.000000 -0.004918 -0.732111
    50 0.837268 -0.312959 -1.310521 1.175425 0.303547 -0.981087
    51 1.789784 0.000000 0.000000 0.000000 0.200217 0.487566
    52 1.206998 0.000000 0.000000 0.000000 0.201946 0.621931
    53 11.687500 0.000001 0.000004 0.000000 0.000000 -0.029498
    54 5.738281 -0.000001 0.000002 0.000687 0.000000 0.000000
    55 5.738281 0.000000 0.000001 0.000080 0.000000 0.000000
    56 1.500000 -0.000001 0.000002 0.000000 0.000000 0.000000
    57 1.499023 0.000001 0.000003 0.000000 0.000000 0.000000
    58 2.078125 1.478516 -4.996094 0.000000 0.000000 0.000000
    59 5.164063 0.000004 0.000000 0.000000 0.000000 0.000000
    60 11.476563 -0.000001 0.000002 0.000149 0.000000 0.000000
    61 5.558594 0.000001 0.000000 0.000000 0.000000 0.000000
    62 5.558594 0.000002 0.000001 0.000000 0.000000 0.000000
    63 5.164063 0.000001 0.000001 0.000000 0.000000 0.000000
    64 11.476563 0.000001 0.000007 0.001270 0.000000 0.000000
    65 2.078125 1.478516 4.996094 0.000000 0.000000 0.000000
    66 11.687500 -0.000001 0.000002 0.000000 0.000000 -0.029498
  time 10
    0 -2.224609 0.385742 35.031250 1.806500 0.155723 -0.132771
    1 3.888672 0.000000 0.000001 -1.925856 -1.040107 -0.906982
    2 17.843750 -0.000001 0.000000 0.000000 0.000000 2.229995
    3 16.515625 -0.000001 0.000000 -0.045180 0.241554 -1.179598
    4 6.878906 0.000000 0.000000 -0.003243 -0.002784 -1.107974
    5 -3.888672 0.000000 0.000000 -1.572848 -0.183478 -1.412071
    6 17.843750 0.000000 0.000000 0.000000 0.000000 0.642942
    7 16.515625 0.000000 0.000000 -0.072228 -0.086086 -1.526212
    8 6.878906 0.000000 0.000000 -0.079847 -0.003036 -0.733628
    9 0.000005 3.345128 -2.981901 1.532189 -0.152540 1.309831
    10 3.998799 0.000000 0.000000 -0.267184 0.117149 0.223763
    11 3.518565 0.000000 0.000000 -0.254905 0.142293 0.429097
    12 8.923110 0.000000 0.000000 -0.176617 0.006100 0.363678
    13 3.307271 0.000000 0.000000 3.141590 0.000000 0.697011
    14 3.601524 -0.000001 0.000000 -0.146965 -0.380299 0.512025
    15 2.056784 0.981236 1.937660 3.308342 -1.150195 1.244054
    16 6.028142 0.000001 0.000000 -3.235088 -0.681046 0.749323
    17 11.692554 0.000000 0.000001 0.000000 0.000000 -2.252888
    18 11.481672 0.000000 -0.000032 1.547302 0.323262 -0.030600
    19 3.851891 0.123226 -1.223225 -0.175078 0.232930 -0.626253
    20 1.312564 0.000001 0.000000 0.000000 0.004679 -0.753589
    21 0.729362 0.000000 0.000000 0.000000 0.002406 -0.334303
    22 3.926700 0.316309 -0.458788 0.013729 0.025114 -0.537224
    23 1.539095 0.000001 0.000000 0.000000 0.002914 -0.561619
    24 1.196321 -0.000001 0.000000 0.000000 0.004796 -0.744628
    25 3.883690 0.211047 0.404099 0.091079 -0.102654 -0.336106
    26 1.719576 0.000000 0.000000 0.000000 0.005013 -0.680295
    27 1.209180 0.000000 0.000000 0.000000 0.002808 -0.530216
    28 3.867672 0.115964 1.301215 0.361172 -0.307765 -0.424235
    29 1.719428 0.000000 0.000000 0.000000 0.005105 -0.876204
    30 1.099666 -0.000001 0.000000 0.000000 0.003243 -0.558113
    31 0.837299 -0.302047 1.313446 -1.418910 -0.585425 -0.411855
    32 1.789784 0.000000 -0.000001 -0.392970 0.058130 -0.103184
    33 1.206999 0.000000 -0.000001 0.000000 -0.003294 1.086686
    34 2.056792 0.981240 -1.937610 -3.524857 1.384907 1.087452
    35 6.028143 0.000001 0.000000 1.429301 -0.064154 -1.453167
    36 11.692554 0.000000 0.000001 0.000000 0.000000 -2.011604
    37 11.481699 0.000000 0.000003 -1.342400 -0.072695 0.316379
    38 3.851859 0.133064 1.220452 0.494313 -0.097762 -1.141906
    39 1.312561 0.000001 0.000000 0.000000 -0.007097 -0.826609
    40 0.729364 0.000000 0.000000 0.000000 -0.003653 -0.935199
    41 3.926668 0.319868 0.458387 0.166720 -0.127387 -1.076926
    42 1.539095 0.000000 0.000000 0.000000 -0.004404 -0.870443
    43 1.196326 0.000001 0.000000 0.000000 -0.007266 -1.448866
    44 3.883656 0.207493 -0.403698 0.103787 -0.274161 -0.673786
    45 1.719576 0.000002 0.000000 0.000000 -0.007590 -1.320343
    46 1.209181 -0.000001 0.000000 0.000000 -0.004245 -1.170289
    47 3.867642 0.104977 -1.303937 -0.315440 0.154362 -0.106089
    48 1.719425 0.000000 0.000000 0.000000 -0.007728 -0.850767
    49 1.099666 0.000001 0.000000 0.000000 -0.004918 -0.732111
    50 0.837268 -0.312959 -1.310521 1.175425 0.303547 -0.981087
    51 1.789784 0.000000 0.000000 0.000000 0.200217 0.487566
    52 1.206998 0.000000 0.000000 0.000000 0.201946 0.621931
    53 11.687500 0.000001 0.000004 0.000000 0.000000 -0.029498
    54 5.738281 -0.000001 0.000002 0.000687 0.000000 0.000000
    55 5.738281 0.000000 0.000001 0.000080 0.000000 0.000000
    56 1.500000 -0.000001 0.000002 0.000000 0.000000 0.000000
    57 1.499023 0.000001 0.000003 0.000000 0.000000 0.000000
    58 2.078125 1.478516 -4.996094 0.000000 0.000000 0.000000
    59 5.164063 0.000004 0.000000 0.000000 0.000000 0.000000
    60 11.476563 -0.000001 0.000002 0.000149 0.000000 0.000000
    61 5.558594 0.000001 0.000000 0.000000 0.000000 0.000000
    62 5.558594 0.000002 0.000001 0.000000 0.000000 0.000000
    63 5.164063 0.000001 0.000001 0.000000 0.000000 0.000000
    64 11.476563 0.000001 0.000007 0.001270 0.000000 0.000000
    65 2.078125 1.478516 4.996094 0.000000 0.000000 0.000000
    66 11.687500 -0.000001 0.000002 0.000000 0.000000 -0.029498
  time 11
    0 -2.224609 0.385742 35.031250 1.806500 0.155723 -0.132771
    1 3.888672 0.000000 0.000001 -1.925856 -1.040107 -0.906982
    2 17.843750 -0.000001 0.000000 0.000000 0.000000 2.229995
    3 16.515625 -0.000001 0.000000 -0.045180 0.241554 -1.179598
    4 6.878906 0.000000 0.000000 -0.003243 -0.002784 -1.107974
    5 -3.888672 0.000000 0.000000 -1.572848 -0.183478 -1.412071
    6 17.843750 0.000000 0.000000 0.000000 0.000000 0.642942
    7 16.515625 0.000000 0.000000 -0.072228 -0.086086 -1.526212
    8 6.878906 0.000000 0.000000 -0.079847 -0.003036 -0.733628
    9 0.000005 3.345128 -2.981901 1.523941 -0.154467 1.363625
    10 3.998799 0.000000 0.000000 -0.280547 0.124412 0.219762
    11 3.518565 0.000000 0.000000 -0.267557 0.150766 0.424858
    12 8.923110 0.000000 0.000000 -0.183616 0.005297 0.363378
    13 3.307271 0.000000 0.000000 3.141590 0.000000 0.697011
    14 3.601524 -0.000001 0.000000 -0.134073 -0.397544 0.532906
    15 2.056784 0.981236 1.937660 3.343680 -1.146347 1.211766
    16 6.028142 0.000001 0.000000 -3.247036 -0.667772 0.744090
    17 11.692554 0.000000 0.000001 0.000000 0.000000 -2.252888
    18 11.481672 0.000000 -0.000032 1.547302 0.323262 -0.030600
    19 3.851891 0.123226 -1.223225 -0.175078 0.232930 -0.626253
    20 1.312564 0.000001 0.000000 0.000000 0.004679 -0.753589
    21 0.729362 0.000000 0.000000 0.000000 0.002406 -0.334303
    22 3.926700 0.316309 -0.458788 0.013729 0.025114 -0.537224
    23 1.539095 0.000001 0.000000 0.000000 0.002914 -0.561619
    24 1.196321 -0.000001 0.000000 0.000000 0.004796 -0.744628
    25 3.883690 0.211047 0.404099 0.091079 -0.102654 -0.336106
    26 1.719576 0.000000 0.000000 0.000000 0.005013 -0.680295
    27 1.209180 0.000000 0.000000 0.000000 0.002808 -0.530216
    28 3.867672 0.115964 1.301215 0.361172 -0.307765 -0.424235
    29 1.719428 0.000000 0.000000 0.000000 0.005105 -0.876204
    30 1.099666 -0.000001 0.000000 0.000000 0.003243 -0.558113
    31 0.837299 -0.302047 1.313446 -1.418910 -0.585425 -0.411855
    32 1.789784 0.000000 -0.000001 -0.392970 0.058130 -0.103184
    33 1.206999 0.000000 -0.000001 0.000000 -0.003294 1.086686
    34 2.056792 0.981240 -1.937610 -3.600762 1.380078 1.012401
    35 6.028143 0.000001 0.000000 1.415549 -0.047256 -1.453633
    36 11.692554 0.000000 0.000001 0.000000 0.000000 -1.983356
    37 11.481699 0.000000 0.000003 -1.348003 -0.061045 0.332930
    38 3.851859 0.133064 1.220452 0.494313 -0.097762 -1.141906
    39 1.312561 0.000001 0.000000 0.000000 -0.007097 -0.826609
    40 0.729364 0.000000 0.000000 0.000000 -0.003653 -0.935199
    41 3.926668 0.319868 0.458387 0.166720 -0.127387 -1.076926
    42 1.539095 0.000000 0.000000 0.000000 -0.004404 -0.870443
    43 1.196326 0.000001 0.000000 0.000000 -0.007266 -1.448866
    44 3.883656 0.207493 -0.403698 0.103787 -0.274161 -0.673786
    45 1.719576 0.000002 0.000000 0.000000 -0.007590 -1.320343
    46 1.209181 -0.000001 0.000000 0.000000 -0.004245 -1.170289
    47 3.867642 0.104977 -1.303937 -0.315440 0.154362 -0.106089
    48 1.719425 0.000000 0.000000 0.000000 -0.007728 -0.850767
    49 1.099666 0.000001 0.000000 0.000000 -0.004918 -0.732111
    50 0.837268 -0.312959 -1.310521 1.175425 0.303547 -0.981087
    51 1.789784 0.000000 0.000000 0.000000 0.200217 0.487566
    52 1.206998 0.000000 0.000000 0.000000 0.201946 0.621931
    53 11.687500 0.000001 0.000004 0.000000 0.000000 -0.029498
    54 5.738281 -0.000001 0.000002 0.000687 0.000000 0.000000
    55 5.738281 0.000000 0.000001 0.000080 0.000000 0.000000
    56 1.500000 -0.000001 0.000002 0.000000 0.000000 0.000000
    57 1.499023 0.000001 0.000003 0.000000 0.000000 0.000000
    58 2.078125 1.478516 -4.996094 0.000000 0.000000 0.000000
    59 5.164063 0.000004 0.000000 0.000000 0.000000 0.000000
    60 11.476563 -0.000001 0.000002 0.000149 0.000000 0.000000
    61 5.558594 0.000001 0.000000 0.000000 0.000000 0.000000
    62 5.558594 0.000002 0.000001 0.000000 0.000000 0.000000
    63 5.164063 0.000001 0.000001 0.000000 0.000000 0.000000
    64 11.476563 0.000001 0.000007 0.001270 0.000000 0.000000
    65 2.078125 1.478516 4.996094 0.000000 0.000000 0.000000
    66 11.687500 -0.000001 0.000002 0.000000 0.000000 -0.029498
  time 12
    0 -2.224609 0.385742 35.031250 1.806500 0.155723 -0.132771
    1 3.888672 0.000000 0.000001 -1.925856 -1.040107 -0.906982
    2 17.843750 -0.000001 0.000000 0.000000 0.000000 2.229995
    3 16.515625 -0.000001 0.000000 -0.045180 0.241554 -1.179598
    4 6.878906 0.000000 0.000000 -0.003243 -0.002784 -1.107974
    5 -3.888672 0.000000 0.000000 -1.572848 -0.183478 -1.412071
    6 17.843750 0.000000 0.000000 0.000000 0.000000 0.642942
    7 16.515625 0.000000 0.000000 -0.072228 -0.086086 -1.526212
    8 6.878906 0.000000 0.000000 -0.079847 -0.003036 -0.733628
    9 0.000005 3.345128 -2.981901 1.515592 -0.155977 1.417916
    10 3.998799 0.000000 0.000000 -0.266921 0.127720 0.210813
    11 3.518565 0.000000 0.000000 -0.253632 0.152780 0.416292
    12 8.923110 0.000000 0.000000 -0.176317 0.006136 0.363690
    13 3.307271 0.000000 0.000000 3.141590 0.000000 0.697011
    14 3.601524 -0.000001 0.000000 -0.137383 -0.413328 0.543846
    15 2.056784 0.981236 1.937660 3.427091 -1.139908 1.135597
    16 6.028142 0.000001 0.000000 -3.300657 -0.659544 0.750818
    17 11.692554 0.000000 0.000001 0.000000 0.000000 -2.252888
    18 11.481672 0.000000 -0.000032 1.547302 0.323262 -0.030600
    19 3.851891 0.123226 -1.223225 -0.175078 0.232930 -0.626253
    20 1.312564 0.000001 0.000000 0.000000 0.004679 -0.753589
    21 0.729362 0.000000 0.000000 0.000000 0.002406 -0.334303
    22 3.926700 0.316309 -0.458788 0.013729 0.025114 -0.537224
    23 1.539095 0.000001 0.000000 0.000000 0.002914 -0.561619
    24 1.196321 -0.000001 0.000000 0.000000 0.004796 -0.744628
    25 3.883690 0.211047 0.404099 0.091079 -0.102654 -0.336106
    26 1.719576 0.000000 0.000000 0.000000 0.005013 -0.680295
    27 1.209180 0.000000 0.000000 0.000000 0.002808 -0.530216
    28 3.867672 0.115964 1.301215 0.361172 -0.307765 -0.424235
    29 1.719428 0.000000 0.000000 0.000000 0.005105 -0.876204
    30 1.099666 -0.000001 0.000000 0.000000 0.003243 -0.558113
    31 0.837299 -0.302047 1.313446 -1.418910 -0.585425 -0.411855
    32 1.789784 0.000000 -0.000001 -0.392970 0.058130 -0.103184
    33 1.206999 0.000000 -0.000001 0.000000 -0.003294 1.086686
    34 2.056792 0.981240 -1.937610 -3.750108 1.361154 0.865319
    35 6.028143 0.000001 0.000000 1.434092 -0.027255 -1.487559
    36 11.692554 0.000000 0.000001 0.000000 0.000000 -1.965564
    37 11.481699 0.000000 0.000003 -1.360980 -0.030879 0.376679
    38 3.851859 0.133064 1.220452 0.494313 -0.097762 -1.141906
    39 1.312561 0.000001 0.000000 0.000000 -0.007097 -0.826609
    40 0.729364 0.000000 0.000000 0.000000 -0.003653 -0.935199
    41 3.926668 0.319868 0.458387 0.166720 -0.127387 -1.076926
    42 1.539095 0.000000 0.000000 0.000000 -0.004404 -0.870443
    43 1.196326 0.000001 0.000000 0.000000 -0.007266 -1.448866
    44 3.883656 0.207493 -0.403698 0.103787 -0.274161 -0.673786
    45 1.719576 0.000002 0.000000 0.000000 -0.007590 -1.320343
    46 1.209181 -0.000001 0.000000 0.000000 -0.004245 -1.170289
    47 3.867642 0.104977 -1.303937 -0.315440 0.154362 -0.106089
    48 1.719425 0.000000 0.000000 0.000000 -0.007728 -0.850767
    49 1.099666 0.000001 0.000000 0.000000 -0.004918 -0.732111
    50 0.837268 -0.312959 -1.310521 1.175425 0.303547 -0.981087
    51 1.789784 0.000000 0.000000 0.000000 0.200217 0.487566
    52 1.206998 0.000000 0.000000 0.000000 0.201946 0.621931
    53 11.687500 0.000001 0.000004 0.000000 0.000000 -0.029498
    54 5.738281 -0.000001 0.000002 0.000687 0.000000 0.000000
    55 5.738281 0.000000 0.000001 0.000080 0.000000 0.000000
    56 1.500000 -0.000001 0.000002 0.000000 0.000000 0.000000
    57 1.499023 0.000001 0.000003 0.000000 0.000000 0.000000
    58 2.078125 1.478516 -4.996094 0.000000 0.000000 0.000000
    59 5.164063 0.000004 0.000000 0.000000 0.000000 0.000000
    60 11.476563 -0.000001 0.000002 0.000149 0.000000 0.000000
    61 5.558594 0.000001 0.000000 0.000000 0.000000 0.000000
    62 5.558594 0.000002 0.000001 0.000000 0.000000 0.000000
    63 5.164063 0.000001 0.000001 0.000000 0.000000 0.000000
    64 11.476563 0.000001 0.000007 0.001270 0.000000 0.000000
    65 2.078125 1.478516 4.996094 0.000000 0.000000 0.000000
    66 11.687500 -0.000001 0.000002 0.000000 0.000000 -0.029498
  time 13
    0 -2.224609 0.385742 35.031250 1.806500 0.155723 -0.132771
    1 3.888672 0.000000 0.000001 -1.925856 -1.040107 -0.906982
    2 17.843750 -0.000001 0.000000 0.000000 0.000000 2.229995
    3 16.515625 -0.000001 0.000000 -0.045180 0.241554 -1.179598
    4 6.878906 0.000000 0.000000 -0.003243 -0.002784 -1.107974
    5 -3.888672 0.000000 0.000000 -1.572848 -0.183478 -1.412071
    6 17.843750 0.000000 0.000000 0.000000 0.000000 0.642942
    7 16.515625 0.000000 0.000000 -0.072228 -0.086086 -1.526212
    8 6.878906 0.000000 0.000000 -0.079847 -0.003036 -0.733628
    9 0.000005 3.345128 -2.981901 1.510836 -0.156636 1.448392
    10 3.998799 0.000000 0.000000 -0.230619 0.125383 0.201782
    11 3.518565 0.000000 0.000000 -0.217611 0.147027 0.408047
    12 8.923110 0.000000 0.000000 -0.157046 0.008353 0.364457
    13 3.307271 0.000000 0.000000 3.141590 0.000000 0.697011
    14 3.601524 -0.000001 0.000000 -0.160818 -0.406485 0.546098
    15 2.056784 0.981236 1.937660 3.524101 -1.130760 1.046972
    16 6.028142 0.000001 0.000000 -3.379225 -0.661907 0.768198
    17 11.692554 0.000000 0.000001 0.000000 0.000000 -2.252888
    18 11.481672 0.000000 -0.000032 1.547302 0.323262 -0.030600
    19 3.851891 0.123226 -1.223225 -0.175078 0.232930 -0.626253
    20 1.312564 0.000001 0.000000 0.000000 0.004679 -0.753589
    21 0.729362 0.000000 0.000000 0.000000 0.002406 -0.334303
    22 3.926700 0.316309 -0.458788 0.013729 0.025114 -0.537224
    23 1.539095 0.000001 0.000000 0.000000 0.002914 -0.561619
    24 1.196321 -0.000001 0.000000 0.000000 0.004796 -0.744628
    25 3.883690 0.211047 0.404099 0.091079 -0.102654 -0.336106
    26 1.719576 0.000000 0.000000 0.000000 0.005013 -0.680295
    27 1.209180 0.000000 0.000000 0.000000 0.002808 -0.530216
    28 3.867672 0.115964 1.301215 0.361172 -0.307765 -0.424235
    29 1.719428 0.000000 0.000000 0.000000 0.005105 -0.876204
    30 1.099666 -0.000001 0.000000 0.000000 0.003243 -0.558113
    31 0.837299 -0.302047 1.313446 -1.418910 -0.585425 -0.411855
    32 1.789784 0.000000 -0.000001 -0.392970 0.058130 -0.103184
    33 1.206999 0.000000 -0.000001 0.000000 -0.003294 1.086686
    34 2.056792 0.981240 -1.937610 -3.887595 1.332336 0.730685
    35 6.028143 0.000001 0.000000 1.471265 -0.011932 -1.527823
    36 11.692554 0.000000 0.000001 0.000000 0.000000 -1.958375
    37 11.481699 0.000000 0.000003 -1.374916 0.010243 0.438955
    38 3.851859 0.133064 1.220452 0.494313 -0.097762 -1.141906
    39 1.312561 0.000001 0.000000 0.000000 -0.007097 -0.826609
    40 0.729364 0.000000 0.000000 0.000000 -0.003653 -0.935199
    41 3.926668 0.319868 0.458387 0.166720 -0.127387 -1.076926
    42 1.539095 0.000000 0.000000 0.000000 -0.004404 -0.870443
    43 1.196326 0.000001 0.000000 0.000000 -0.007266 -1.448866
    44 3.883656 0.207493 -0.403698 0.103787 -0.274161 -0.673786
    45 1.719576 0.000002 0.000000 0.000000 -0.007590 -1.320343
    46 1.209181 -0.000001 0.000000 0.000000 -0.004245 -1.170289
    47 3.867642 0.104977 -1.303937 -0.315440 0.154362 -0.106089
    48 1.719425 0.000000 0.000000 0.000000 -0.007728 -0.850767
    49 1.099666 0.000001 0.000000 0.000000 -0.004918 -0.732111
    50 0.837268 -0.312959 -1.310521 1.175425 0.303547 -0.981087
    51 1.789784 0.000000 0.000000 0.000000 0.200217 0.487566
    52 1.206998 0.000000 0.000000 0.000000 0.201946 0.621931
    53 11.687500 0.000001 0.000004 0.000000 0.000000 -0.029498
    54 5.738281 -0.000001 0.000002 0.000687 0.000000 0.000000
    55 5.738281 0.000000 0.000001 0.000080 0.000000 0.000000
    56 1.500000 -0.000001 0.000002 0.000000 0.000000 0.000000
    57 1.499023 0.000001 0.000003 0.000000 0.000000 0.000000
    58 2.078125 1.478516 -4.996094 0.000000 0.000000 0.000000
    59 5.164063 0.000004 0.000000 0.000000 0.000000 0.000000
    60 11.476563 -0.000001 0.000002 0.000149 0.000000 0.000000
    61 5.558594 0.000001 0.000000 0.000000 0.000000 0.000000
    62 5.558594 0.000002 0.000001 0.000000 0.000000 0.000000
    63 5.164063 0.000001 0.000001 0.000000 0.000000 0.000000
    64 11.476563 0.000001 0.000007 0.001270 0.000000 0.000000
    65 2.078125 1.478516 4.996094 0.000000 0.000000 0.000000
    66 11.687500 -0.000001 0.000002 0.000000 0.000000 -0.029498
  time 14
    0 -2.224609 0.385742 35.031250 1.806500 0.155723 -0.132771
    1 3.888672 0.000000 0.000001 -1.925856 -1.040107 -0.906982
    2 17.843750 -0.000001 0.000000 0.000000 0.000000 2.229995
    3 16.515625 -0.000001 0.000000 -0.045180 0.241554 -1.179598
    4 6.878906 0.000000 0.000000 -0.003243 -0.002784 -1.107974
    5 -3.888672 0.000000 0.000000 -1.572848 -0.183478 -1.412071
    6 17.843750 0.000000 0.000000 0.000000 0.000000 0.642942
    7 16.515625 0.000000 0.000000 -0.072228 -0.086086 -1.526212
    8 6.878906 0.000000 0.000000 -0.079847 -0.003036 -0.733628
    9 0.000005 3.345128 -2.981901 1.509216 -0.156813 1.458584
    10 3.998799 0.000000 0.000000 -0.178115 0.117533 0.197532
    11 3.518565 0.000000 0.000000 -0.165967 0.134203 0.404682
    12 8.923110 0.000000 0.000000 -0.129230 0.011529 0.365428
    13 3.307271 0.000000 0.000000 3.141590 0.000000 0.697011
    14 3.601524 -0.000001 0.000000 -0.202918 -0.368449 0.552597
    15 2.056784 0.981236 1.937660 3.603586 -1.122436 0.973965
    16 6.028142 0.000001 0.000000 -3.473087 -0.669863 0.805480
    17 11.692554 0.000000 0.000001 0.000000 0.000000 -2.252888
    18 11.481672 0.000000 -0.000032 1.547302 0.323262 -0.030600
    19 3.851891 0.123226 -1.223225 -0.175078 0.232930 -0.626253
    20 1.312564 0.000001 0.000000 0.000000 0.004679 -0.753589
    21 0.729362 0.000000 0.000000 0.000000 0.002406 -0.334303
    22 3.926700 0.316309 -0.458788 0.013729 0.025114 -0.537224
    23 1.539095 0.000001 0.000000 0.000000 0.002914 -0.561619
    24 1.196321 -0.000001 0.000000 0.000000 0.004796 -0.744628
    25 3.883690 0.211047 0.404099 0.091079 -0.102654 -0.336106
    26 1.719576 0.000000 0.000000 0.000000 0.005013 -0.680295
    27 1.209180 0.000000 0.000000 0.000000 0.002808 -0.530216
    28 3.867672 0.115964 1.301215 0.361172 -0.307777 -0.424235
    29 1.719428 0.000000 0.000000 0.000000 0.005105 -0.876204
    30 1.099666 -0.000001 0.000000 0.000000 0.003255 -0.558113
    31 0.837299 -0.302047 1.313446 -1.418910 -0.585425 -0.411855
    32 1.789784 0.000000 -0.000001 -0.392970 0.058130 -0.103184
    33 1.206999 0.000000 -0.000001 0.000000 -0.003294 1.086686
    34 2.056792 0.981240 -1.937610 -3.972349 1.304185 0.648678
    35 6.028143 0.000001 0.000000 1.522013 0.002389 -1.568553
    36 11.692554 0.000000 0.000001 0.000000 0.000000 -1.962006
    37 11.481699 0.000000 0.000003 -1.384637 0.054631 0.511277
    38 3.851859 0.133064 1.220452 0.494313 -0.097762 -1.141906
    39 1.312561 0.000001 0.000000 0.000000 -0.007097 -0.826609
    40 0.729364 0.000000 0.000000 0.000000 -0.003653 -0.935199
    41 3.926668 0.319868 0.458387 0.166720 -0.127387 -1.076926
    42 1.539095 0.000000 0.000000 0.000000 -0.004404 -0.870443
    43 1.196326 0.000001 0.000000 0.000000 -0.007266 -1.448866
    44 3.883656 0.207493 -0.403698 0.103787 -0.274161 -0.673786
    45 1.719576 0.000002 0.000000 0.000000 -0.007590 -1.320343
    46 1.209181 -0.000001 0.000000 0.000000 -0.004245 -1.170289
    47 3.867642 0.104977 -1.303937 -0.315440 0.154362 -0.106089
    48 1.719425 0.000000 0.000000 0.000000 -0.007728 -0.850767
    49 1.099666 0.000001 0.000000 0.000000 -0.004918 -0.732111
    50 0.837268 -0.312959 -1.310521 1.175425 0.303547 -0.981087
    51 1.789784 0.000000 0.000000 0.000000 0.200217 0.487566
    52 1.206998 0.000000 0.000000 0.000000 0.201946 0.621931
    53 11.687500 0.000001 0.000004 0.000000 0.000000 -0.029498
    54 5.738281 -0.000001 0.000002 0.000687 0.000000 0.000000
    55 5.738281 0.000000 0.000001 0.000080 0.000000 0.000000
    56 1.500000 -0.000001 0.000002 0.000000 0.000000 0.000000
    57 1.499023 0.000001 0.000003 0.000000 0.000000 0.000000
    58 2.078125 1.478516 -4.996094 0.000000 0.000000 0.000000
    59 5.164063 0.000004 0.000000 0.000000 0.000000 0.000000
    60 11.476563 -0.000001 0.000002 0.000149 0.000000 0.000000
    61 5.558594 0.000001 0.000000 0.000000 0.000000 0.000000
    62 5.558594 0.000002 0.000001 0.000000 0.000000 0.000000
    63 5.164063 0.000001 0.000001 0.000000 0.000000 0.000000
    64 11.476563 0.000001 0.000007 0.001270 0.000000 0.000000
    65 2.078125 1.478516 4.996094 0.000000 0.000000 0.000000
    66 11.687500 -0.000001 0.000002 0.000000 0.000000 -0.029498
  time 15
    0 -2.224609 0.385742 35.031250 1.806500 0.155723 -0.132771
    1 3.888672 0.000000 0.000001 -1.925856 -1.040107 -0.906982
    2 17.843750 -0.000001 0.000000 0.000000 0.000000 2.229995
    3 16.515625 -0.000001 0.000000 -0.045180 0.241554 -1.179598
    4 6.878906 0.000000 0.000000 -0.003243 -0.002784 -1.107974
    5 -3.888672 0.000000 0.000000 -1.572848 -0.183478 -1.412071
    6 17.843750 0.000000 0.000000 0.000000 0.000000 0.642942
    7 16.515625 0.000000 0.000000 -0.072228 -0.086086 -1.526212
    8 6.878906 0.000000 0.000000 -0.079847 -0.003036 -0.733628
    9 0.000005 3.345128 -2.981901 1.507547 -0.156989 1.469373
    10 3.998799 0.000000 0.000000 -0.115867 0.105285 0.200371
    11 3.518565 0.000000 0.000000 -0.105118 0.116023 0.408193
    12 8.923110 0.000000 0.000000 -0.096308 0.015244 0.366339
    13 3.307271 0.000000 0.000000 3.141590 0.000000 0.697011
    14 3.601524 -0.000001 0.000000 -0.254985 -0.312842 0.560706
    15 2.056784 0.981236 1.937660 3.639402 -1.121887 0.940431
    16 6.028142 0.000001 0.000000 -3.571536 -0.675818 0.863505
    17 11.692554 0.000000 0.000001 0.000000 0.000000 -2.252888
    18 11.481672 0.000000 -0.000032 1.547302 0.323262 -0.030600
    19 3.851891 0.123226 -1.223225 -0.175078 0.232930 -0.626253
    20 1.312564 0.000001 0.000000 0.000000 0.004679 -0.753589
    21 0.729362 0.000000 0.000000 0.000000 0.002406 -0.334303
    22 3.926700 0.316309 -0.458788 0.013729 0.025114 -0.537224
    23 1.539095 0.000001 0.000000 0.000000 0.002914 -0.561619
    24 1.196321 -0.000001 0.000000 0.000000 0.004796 -0.744628
    25 3.883690 0.211047 0.404099 0.091079 -0.102654 -0.336106
    26 1.719576 0.000000 0.000000 0.000000 0.005013 -0.680295
    27 1.209180 0.000000 0.000000 0.000000 0.002808 -0.530216
    28 3.867672 0.115964 1.301215 0.361172 -0.307765 -0.424235
    29 1.719428 0.000000 0.000000 0.000000 0.005105 -0.876204
    30 1.099666 -0.000001 0.000000 0.000000 0.003255 -0.558113
    31 0.837299 -0.302047 1.313446 -1.418910 -0.585425 -0.411855
    32 1.789784 0.000000 -0.000001 -0.392970 0.058130 -0.103184
    33 1.206999 0.000000 -0.000001 0.000000 -0.003294 1.086686
    34 2.056792 0.981240 -1.937610 -3.991508 1.289541 0.631105
    35 6.028143 0.000001 0.000000 1.573560 0.018715 -1.591201
    36 11.692554 0.000000 0.000001 0.000000 0.000000 -1.977038
    37 11.481699 0.000000 0.000003 -1.387941 0.095368 0.584833
    38 3.851859 0.133064 1.220452 0.494313 -0.097762 -1.141906
    39 1.312561 0.000001 0.000000 0.000000 -0.007097 -0.826609
    40 0.729364 0.000000 0.000000 0.000000 -0.003653 -0.935199
    41 3.926668 0.319868 0.458387 0.166720 -0.127387 -1.076926
    42 1.539095 0.000000 0.000000 0.000000 -0.004404 -0.870443
    43 1.196326 0.000001 0.000000 0.000000 -0.007266 -1.448866
    44 3.883656 0.207493 -0.403698 0.103787 -0.274161 -0.673786
    45 1.719576 0.000002 0.000000 0.000000 -0.007590 -1.320343
    46 1.209181 -0.000001 0.000000 0.000000 -0.004245 -1.170289
    47 3.867642 0.104977 -1.303937 -0.315440 0.154362 -0.106089
    48 1.719425 0.000000 0.000000 0.000000 -0.007728 -0.850767
    49 1.099666 0.000001 0.000000 0.000000 -0.004918 -0.732111
    50 0.837268 -0.312959 -1.310521 1.175425 0.303547 -0.981087
    51 1.789784 0.000000 0.000000 0.000000 0.200217 0.487566
    52 1.206998 0.000000 0.000000 0.000000 0.201946 0.621931
    53 11.687500 0.000001 0.000004 0.000000 0.000000 -0.029498
    54 5.738281 -0.000001 0.000002 0.000687 0.000000 0.000000
    55 5.738281 0.000000 0.000001 0.000080 0.000000 0.000000
    56 1.500000 -0.000001 0.000002 0.000000 0.000000 0.000000
    57 1.499023 0.000001 0.000003 0.000000 0.000000 0.000000
    58 2.078125 1.478516 -4.996094 0.000000 0.000000 0.000000
    59 5.164063 0.000004 0.000000 0.000000 0.000000 0.000000
    60 11.476563 -0.000001 0.000002 0.000149 0.000000 0.000000
    61 5.558594 0.000001 0.000000 0.000000 0.000000 0.000000
    62 5.558594 0.000002 0.000001 0.000000 0.000000 0.000000
    63 5.164063 0.000001 0.000001 0.000000 0.000000 0.000000
    64 11.476563 0.000001 0.000007 0.001270 0.000000 0.000000
    65 2.078125 1.478516 4.996094 0.000000 0.000000 0.000000
    66 11.687500 -0.000001 0.000002 0.000000 0.000000 -0.029498
  time 16
    0 -2.224609 0.385742 35.031250 1.806500 0.155723 -0.132771
    1 3.888672 0.000000 0.000001 -1.925856 -1.040107 -0.906982
    2 17.843750 -0.000001 0.000000 0.000000 0.000000 2.229995
    3 16.515625 -0.000001 0.000000 -0.045180 0.241554 -1.179598
    4 6.878906 0.000000 0.000000 -0.003243 -0.002784 -1.107974
    5 -3.888672 0.000000 0.000000 -1.572848 -0.183478 -1.412071
    6 17.843750 0.000000 0.000000 0.000000 0.000000 0.642942
    7 16.515625 0.000000 0.000000 -0.072228 -0.086086 -1.526212
    8 6.878906 0.000000 0.000000 -0.079847 -0.003036 -0.733628
    9 0.000005 3.345128 -2.981901 1.501019 -0.157519 1.511086
    10 3.998799 0.000000 0.000000 -0.050395 0.090256 0.206846
    11 3.518565 0.000000 0.000000 -0.041379 0.094726 0.414981
    12 8.923110 0.000000 0.000000 -0.061709 0.019127 0.367046
    13 3.307271 0.000000 0.000000 3.141590 0.000000 0.697011
    14 3.601524 -0.000001 0.000000 -0.309168 -0.252693 0.568524
    15 2.056784 0.981236 1.937660 3.597745 -1.137356 0.976839
    16 6.028142 0.000001 0.000000 -3.654596 -0.689228 0.924801
    17 11.692554 0.000000 0.000001 0.000000 0.000000 -2.252888
    18 11.481672 0.000000 -0.000032 1.547302 0.323262 -0.030600
    19 3.851891 0.123226 -1.223225 -0.175078 0.232930 -0.626253
    20 1.312564 0.000001 0.000000 0.000000 0.004679 -0.753589
    21 0.729362 0.000000 0.000000 0.000000 0.002406 -0.334303
    22 3.926700 0.316309 -0.458788 0.013729 0.025114 -0.537224
    23 1.539095 0.000001 0.000000 0.000000 0.002914 -0.561619
    24 1.196321 -0.000001 0.000000 0.000000 0.004796 -0.744628
    25 3.883690 0.211047 0.404099 0.091079 -0.102654 -0.336106
    26 1.719576 0.000000 0.000000 0.000000 0.005013 -0.680295
    27 1.209180 0.000000 0.000000 0.000000 0.002808 -0.530216
    28 3.867672 0.115964 1.301215 0.361172 -0.307765 -0.424235
    29 1.719428 0.000000 0.000000 0.000000 0.005105 -0.876204
    30 1.099666 -0.000001 0.000000 0.000000 0.003243 -0.558113
    31 0.837299 -0.302047 1.313446 -1.418910 -0.585425 -0.411855
    32 1.789784 0.000000 -0.000001 -0.392970 0.058130 -0.103184
    33 1.206999 0.000000 -0.000001 0.000000 -0.003294 1.086686
    34 2.056792 0.981240 -1.937610 -3.916515 1.301241 0.705149
    35 6.028143 0.000001 0.000000 1.610290 0.017235 -1.570603
    36 11.692554 0.000000 0.000001 0.000000 0.000000 -2.004124
    37 11.481699 0.000000 0.000003 -1.385882 0.127334 0.650183
    38 3.851859 0.133064 1.220452 0.494313 -0.097762 -1.141906
    39 1.312561 0.000001 0.000000 0.000000 -0.007097 -0.826609
    40 0.729364 0.000000 0.000000 0.000000 -0.003653 -0.935199
    41 3.926668 0.319868 0.458387 0.166720 -0.127387 -1.076926
    42 1.539095 0.000000 0.000000 0.000000 -0.004404 -0.870443
    43 1.196326 0.000001 0.000000 0.000000 -0.007266 -1.448866
    44 3.883656 0.207493 -0.403698 0.103787 -0.274161 -0.673786
    45 1.719576 0.000002 0.000000 0.000000 -0.007590 -1.320343
    46 1.209181 -0.000001 0.000000 0.000000 -0.004245 -1.170289
    47 3.867642 0.104977 -1.303937 -0.315440 0.154362 -0.106089
    48 1.719425 0.000000 0.000000 0.000000 -0.007728 -0.850767
    49 1.099666 0.000001 0.000000 0.000000 -0.004918 -0.732111
    50 0.837268 -0.312959 -1.310521 1.175425 0.303547 -0.981087
    51 1.789784 0.000000 0.000000 0.000000 0.200217 0.487566
    52 1.206998 0.000000 0.000000 0.000000 0.201946 0.621931
    53 11.687500 0.000001 0.000004 0.000000 0.000000 -0.029498
    54 5.738281 -0.000001 0.000002 0.000687 0.000000 0.000000
    55 5.738281 0.000000 0.000001 0.000080 0.000000 0.000000
    56 1.500000 -0.000001 0.000002 0.000000 0.000000 0.000000
    57 1.499023 0.000001 0.000003 0.000000 0.000000 0.000000
    58 2.078125 1.478516 -4.996094 0.000000 0.000000 0.000000
    59 5.164063 0.000004 0.000000 0.000000 0.000000 0.000000
    60 11.476563 -0.000001 0.000002 0.000149 0.000000 0.000000
    61 5.558594 0.000001 0.000000 0.000000 0.000000 0.000000
    62 5.558594 0.000002 0.000001 0.000000 0.000000 0.000000
    63 5.164063 0.000001 0.000001 0.000000 0.000000 0.000000
    64 11.476563 0.000001 0.000007 0.001270 0.000000 0.000000
    65 2.078125 1.478516 4.996094 0.000000 0.000000 0.000000
    66 11.687500 -0.000001 0.000002 0.000000 0.000000 -0.029498
  time 17
    0 -2.224609 0.385742 35.031250 1.806500 0.155723 -0.132771
    1 3.888672 0.000000 0.000001 -1.925856 -1.040107 -0.906982
    2 17.843750 -0.000001 0.000000 0.000000 0.000000 2.229995
    3 16.515625 -0.000001 0.000000 -0.045180 0.241554 -1.179598
    4 6.878906 0.000000 0.000000 -0.003243 -0.002784 -1.107974
    5 -3.888672 0.000000 0.000000 -1.572848 -0.183478 -1.412071
    6 17.843750 0.000000 0.000000 0.000000 0.000000 0.642942
    7 16.515625 0.000000 0.000000 -0.072228 -0.086086 -1.526212
    8 6.878906 0.000000 0.000000 -0.079847 -0.003036 -0.733628
    9 0.000005 3.345128 -2.981901 1.491760 -0.157792 1.570050
    10 3.998799 0.000000 0.000000 0.011757 0.074592 0.214151
    11 3.518565 0.000000 0.000000 0.018965 0.073094 0.422221
    12 8.923110 0.000000 0.000000 -0.028871 0.022783 0.367453
    13 3.307271 0.000000 0.000000 3.141590 0.000000 0.697011
    14 3.601524 -0.000001 0.000000 -0.358195 -0.201797 0.562121
    15 2.056784 0.981236 1.937660 3.492403 -1.160874 1.072266
    16 6.028142 0.000001 0.000000 -3.713188 -0.720822 0.980958
    17 11.692554 0.000000 0.000001 0.000000 0.000000 -2.252888
    18 11.481672 0.000000 -0.000032 1.547302 0.323262 -0.030600
    19 3.851891 0.123226 -1.223225 -0.175078 0.232930 -0.626253
    20 1.312564 0.000001 0.000000 0.000000 0.004679 -0.753589
    21 0.729362 0.000000 0.000000 0.000000 0.002406 -0.334303
    22 3.926700 0.316309 -0.458788 0.013729 0.025114 -0.537224
    23 1.539095 0.000001 0.000000 0.000000 0.002914 -0.561619
    24 1.196321 -0.000001 0.000000 0.000000 0.004796 -0.744628
    25 3.883690 0.211047 0.404099 0.091079 -0.102654 -0.336106
    26 1.719576 0.000000 0.000000 0.000000 0.005013 -0.680295
    27 1.209180 0.000000 0.000000 0.000000 0.002808 -0.530216
    28 3.867672 0.115964 1.301215 0.361172 -0.307765 -0.424235
    29 1.719428 0.000000 0.000000 0.000000 0.005105 -0.876204
    30 1.099666 -0.000001 0.000000 0.000000 0.003243 -0.558113
    31 0.837299 -0.302047 1.313446 -1.418910 -0.585425 -0.411855
    32 1.789784 0.000000 -0.000001 -0.392970 0.058130 -0.103184
    33 1.206999 0.000000 -0.000001 0.000000 -0.003294 1.086686
    34 2.056792 0.981240 -1.937610 -3.752024 1.327153 0.866509
    35 6.028143 0.000001 0.000000 1.624131 -0.010500 -1.533508
    36 11.692554 0.000000 0.000001 0.000000 0.000000 -2.042830
    37 11.481699 0.000000 0.000003 -1.381716 0.147728 0.697089
    38 3.851859 0.133064 1.220452 0.494313 -0.097762 -1.141906
    39 1.312561 0.000001 0.000000 0.000000 -0.007097 -0.826609
    40 0.729364 0.000000 0.000000 0.000000 -0.003653 -0.935199
    41 3.926668 0.319868 0.458387 0.166720 -0.127387 -1.076926
    42 1.539095 0.000000 0.000000 0.000000 -0.004404 -0.870443
    43 1.196326 0.000001 0.000000 0.000000 -0.007266 -1.448866
    44 3.883656 0.207493 -0.403698 0.103787 -0.274161 -0.673786
    45 1.719576 0.000002 0.000000 0.000000 -0.007590 -1.320343
    46 1.209181 -0.000001 0.000000 0.000000 -0.004245 -1.170289
    47 3.867642 0.104977 -1.303937 -0.315440 0.154362 -0.106089
    48 1.719425 0.000000 0.000000 0.000000 -0.007728 -0.850767
    49 1.099666 0.000001 0.000000 0.000000 -0.004918 -0.732111
    50 0.837268 -0.312959 -1.310521 1.175425 0.303547 -0.981087
    51 1.789784 0.000000 0.000000 0.000000 0.200217 0.487566
    52 1.206998 0.000000 0.000000 0.000000 0.201946 0.621931
    53 11.687500 0.000001 0.000004 0.000000 0.000000 -0.029498
    54 5.738281 -0.000001 0.000002 0.000687 0.000000 0.000000
    55 5.738281 0.000000 0.000001 0.000080 0.000000 0.000000
    56 1.500000 -0.000001 0.000002 0.000000 0.000000 0.000000
    57 1.499023 0.000001 0.000003 0.000000 0.000000 0.000000
    58 2.078125 1.478516 -4.996094 0.000000 0.000000 0.000000
    59 5.164063 0.000004 0.000000 0.000000 0.000000 0.000000
    60 11.476563 -0.000001 0.000002 0.000149 0.000000 0.000000
    61 5.558594 0.000001 0.000000 0.000000 0.000000 0.000000
    62 5.558594 0.000002 0.000001 0.000000 0.000000 0.000000
    63 5.164063 0.000001 0.000001 0.000000 0.000000 0.000000
    64 11.476563 0.000001 0.000007 0.001270 0.000000 0.000000
    65 2.078125 1.478516 4.996094 0.000000 0.000000 0.000000
    66 11.687500 -0.000001 0.000002 0.000000 0.000000 -0.029498
  time 18
    0 -2.224609 0.385742 35.031250 1.806500 0.155723 -0.132771
    1 3.888672 0.000000 0.000001 -1.925856 -1.040107 -0.906982
    2 17.843750 -0.000001 0.000000 0.000000 0.000000 2.229995
    3 16.515625 -0.000001 0.000000 -0.045180 0.241554 -1.179598
    4 6.878906 0.000000 0.000000 -0.003243 -0.002784 -1.107974
    5 -3.888672 0.000000 0.000000 -1.572848 -0.183478 -1.412071
    6 17.843750 0.000000 0.000000 0.000000 0.000000 0.642942
    7 16.515625 0.000000 0.000000 -0.072228 -0.086086 -1.526212
    8 6.878906 0.000000 0.000000 -0.079847 -0.003036 -0.733628
    9 0.000005 3.345128 -2.981901 1.487054 -0.157728 1.599930
    10 3.998799 0.000000 0.000000 0.064082 0.060714 0.220011
    11 3.518565 0.000000 0.000000 0.069668 0.054194 0.427786
    12 8.923110 0.000000 0.000000 -0.001246 0.025863 0.367621
    13 3.307271 0.000000 0.000000 3.141590 0.000000 0.697011
    14 3.601524 -0.000001 0.000000 -0.394677 -0.176326 0.536285
    15 2.056784 0.981236 1.937660 3.376814 -1.178896 1.178328
    16 6.028142 0.000001 0.000000 -3.754479 -0.759008 1.038797
    17 11.692554 0.000000 0.000001 0.000000 0.000000 -2.252888
    18 11.481672 0.000000 -0.000032 1.547302 0.323262 -0.030600
    19 3.851891 0.123226 -1.223225 -0.175078 0.232930 -0.626253
    20 1.312564 0.000001 0.000000 0.000000 0.004679 -0.753589
    21 0.729362 0.000000 0.000000 0.000000 0.002406 -0.334303
    22 3.926700 0.316309 -0.458788 0.013729 0.025114 -0.537224
    23 1.539095 0.000001 0.000000 0.000000 0.002914 -0.561619
    24 1.196321 -0.000001 0.000000 0.000000 0.004796 -0.744628
    25 3.883690 0.211047 0.404099 0.091079 -0.102654 -0.336106
    26 1.719576 0.000000 0.000000 0.000000 0.005013 -0.680295
    27 1.209180 0.000000 0.000000 0.000000 0.002808 -0.530216
    28 3.867672 0.115964 1.301215 0.361172 -0.307765 -0.424235
    29 1.719428 0.000000 0.000000 0.000000 0.005105 -0.876204
    30 1.099666 -0.000001 0.000000 0.000000 0.003243 -0.558113
    31 0.837299 -0.302047 1.313446 -1.418910 -0.585425 -0.411855
    32 1.789784 0.000000 -0.000001 -0.392970 0.058130 -0.103184
    33 1.206999 0.000000 -0.000001 0.000000 -0.003294 1.086686
    34 2.056792 0.981240 -1.937610 -3.558978 1.346038 1.056150
    35 6.028143 0.000001 0.000000 1.625284 -0.043294 -1.519341
    36 11.692554 0.000000 0.000001 0.000000 0.000000 -2.090539
    37 11.481699 0.000000 0.000003 -1.379609 0.154903 0.715012
    38 3.851859 0.133064 1.220452 0.494313 -0.097762 -1.141906
    39 1.312561 0.000001 0.000000 0.000000 -0.007097 -0.826609
    40 0.729364 0.000000 0.000000 0.000000 -0.003653 -0.935199
    41 3.926668 0.319868 0.458387 0.166720 -0.127387 -1.076926
    42 1.539095 0.000000 0.000000 0.000000 -0.004404 -0.870443
    43 1.196326 0.000001 0.000000 0.000000 -0.007266 -1.448866
    44 3.883656 0.207493 -0.403698 0.103787 -0.274161 -0.673786
    45 1.719576 0.000002 0.000000 0.000000 -0.007590 -1.320343
    46 1.209181 -0.000001 0.000000 0.000000 -0.004245 -1.170289
    47 3.867642 0.104977 -1.303937 -0.315440 0.154362 -0.106089
    48 1.719425 0.000000 0.000000 0.000000 -0.007728 -0.850767
    49 1.099666 0.000001 0.000000 0.000000 -0.004918 -0.732111
    50 0.837268 -0.312959 -1.310521 1.175425 0.303547 -0.981087
    51 1.789784 0.000000 0.000000 0.000000 0.200217 0.487566
    52 1.206998 0.000000 0.000000 0.000000 0.201946 0.621931
    53 11.687500 0.000001 0.000004 0.000000 0.000000 -0.029498
    54 5.738281 -0.000001 0.000002 0.000687 0.000000 0.000000
    55 5.738281 0.000000 0.000001 0.000080 0.000000 0.000000
    56 1.500000 -0.000001 0.000002 0.000000 0.000000 0.000000
    57 1.499023 0.000001 0.000003 0.000000 0.000000 0.000000
    58 2.078125 1.478516 -4.996094 0.000000 0.000000 0.000000
    59 5.164063 0.000004 0.000000 0.000000 0.000000 0.000000
    60 11.476563 -0.000001 0.000002 0.000149 0.000000 0.000000
    61 5.558594 0.000001 0.000000 0.000000 0.000000 0.000000
    62 5.558594 0.000002 0.000001 0.000000 0.000000 0.000000
    63 5.164063 0.000001 0.000001 0.000000 0.000000 0.000000
    64 11.476563 0.000001 0.000007 0.001270 0.000000 0.000000
    65 2.078125 1.478516 4.996094 0.000000 0.000000 0.000000
    66 11.687500 -0.000001 0.000002 0.000000 0.000000 -0.029498
end
