// Created by Crowbar 0.74
version 1
nodes
  0 "ValveBiped.Bip01_Pelvis" -1
  1 "ValveBiped.Bip01_L_Thigh" 0
  2 "ValveBiped.Bip01_L_Calf" 1
  3 "ValveBiped.Bip01_L_Foot" 2
  4 "ValveBiped.Bip01_L_Toe0" 3
  5 "ValveBiped.Bip01_R_Thigh" 0
  6 "ValveBiped.Bip01_R_Calf" 5
  7 "ValveBiped.Bip01_R_Foot" 6
  8 "ValveBiped.Bip01_R_Toe0" 7
  9 "ValveBiped.Bip01_Spine" 0
  10 "ValveBiped.Bip01_Spine1" 9
  11 "ValveBiped.Bip01_Spine2" 10
  12 "ValveBiped.Bip01_Spine4" 11
  13 "ValveBiped.Bip01_Neck1" 12
  14 "ValveBiped.Bip01_Head1" 13
  15 "ValveBiped.Bip01_L_Clavicle" 12
  16 "ValveBiped.Bip01_L_UpperArm" 15
  17 "ValveBiped.Bip01_L_Forearm" 16
  18 "ValveBiped.Bip01_L_Hand" 17
  19 "ValveBiped.Bip01_L_Finger4" 18
  20 "ValveBiped.Bip01_L_Finger41" 19
  21 "ValveBiped.Bip01_L_Finger42" 20
  22 "ValveBiped.Bip01_L_Finger3" 18
  23 "ValveBiped.Bip01_L_Finger31" 22
  24 "ValveBiped.Bip01_L_Finger32" 23
  25 "ValveBiped.Bip01_L_Finger2" 18
  26 "ValveBiped.Bip01_L_Finger21" 25
  27 "ValveBiped.Bip01_L_Finger22" 26
  28 "ValveBiped.Bip01_L_Finger1" 18
  29 "ValveBiped.Bip01_L_Finger11" 28
  30 "ValveBiped.Bip01_L_Finger12" 29
  31 "ValveBiped.Bip01_L_Finger0" 18
  32 "ValveBiped.Bip01_L_Finger01" 31
  33 "ValveBiped.Bip01_L_Finger02" 32
  34 "ValveBiped.Bip01_R_Clavicle" 12
  35 "ValveBiped.Bip01_R_UpperArm" 34
  36 "ValveBiped.Bip01_R_Forearm" 35
  37 "ValveBiped.Bip01_R_Hand" 36
  38 "ValveBiped.Bip01_R_Finger4" 37
  39 "ValveBiped.Bip01_R_Finger41" 38
  40 "ValveBiped.Bip01_R_Finger42" 39
  41 "ValveBiped.Bip01_R_Finger3" 37
  42 "ValveBiped.Bip01_R_Finger31" 41
  43 "ValveBiped.Bip01_R_Finger32" 42
  44 "ValveBiped.Bip01_R_Finger2" 37
  45 "ValveBiped.Bip01_R_Finger21" 44
  46 "ValveBiped.Bip01_R_Finger22" 45
  47 "ValveBiped.Bip01_R_Finger1" 37
  48 "ValveBiped.Bip01_R_Finger11" 47
  49 "ValveBiped.Bip01_R_Finger12" 48
  50 "ValveBiped.Bip01_R_Finger0" 37
  51 "ValveBiped.Bip01_R_Finger01" 50
  52 "ValveBiped.Bip01_R_Finger02" 51
  53 "ValveBiped.Bip01_L_Elbow" 16
  54 "ValveBiped.Bip01_L_Ulna" 17
  55 "ValveBiped.Bip01_R_Ulna" 36
  56 "ValveBiped.Bip01_R_Shoulder" 35
  57 "ValveBiped.Bip01_L_Shoulder" 16
  58 "ValveBiped.Bip01_R_Latt" 11
  59 "ValveBiped.Bip01_R_Trapezius" 34
  60 "ValveBiped.Bip01_R_Wrist" 36
  61 "ValveBiped.Bip01_R_Bicep" 35
  62 "ValveBiped.Bip01_L_Bicep" 16
  63 "ValveBiped.Bip01_L_Trapezius" 15
  64 "ValveBiped.Bip01_L_Wrist" 17
  65 "ValveBiped.Bip01_L_Latt" 11
  66 "ValveBiped.Bip01_R_Elbow" 35
end
skeleton
  time 0
    0 0.634389 0.648462 31.554985 1.731615 0.172656 -0.580153
    1 3.890452 -0.000004 -0.000003 -2.148231 -0.780563 -0.888286
    2 17.848177 0.000000 0.000000 0.000000 0.000000 1.304356
    3 16.525253 0.000000 0.000000 -0.055912 0.148030 -1.549662
    4 6.879454 0.000000 0.000000 -0.007299 -0.001069 -0.584373
    5 -3.890452 0.000004 0.000007 -1.551707 -0.245997 -1.825249
    6 17.848173 0.000000 0.000000 0.000000 0.000000 0.696928
    7 16.525257 0.000000 0.000000 0.557020 0.094483 -1.522286
    8 6.878906 0.000000 0.000000 -0.081332 -0.002951 -0.584373
    9 -0.195313 3.341221 -2.981901 1.570796 0.008417 1.629661
    10 4.018331 0.000000 0.000000 -0.236096 0.011553 0.167066
    11 3.518565 0.000000 0.000000 -0.295913 -0.149388 0.280901
    12 8.942642 0.000000 0.000000 0.213793 -0.036553 0.266579
    13 3.307271 0.000000 0.000000 3.141590 0.000000 0.164865
    14 3.593712 -0.000001 0.000000 0.875554 -0.153778 0.592945
    15 2.033346 1.000768 1.937660 4.630859 -1.481610 -0.092595
    16 6.028142 0.000001 0.000000 -3.201921 -0.707821 0.339686
    17 11.692554 0.000000 0.000001 0.000000 0.000000 -0.840507
    18 11.481672 0.000000 -0.000032 1.137516 0.369862 0.230583
    19 3.859704 -0.142408 -1.191974 -0.463410 -0.186147 -1.428469
    20 1.312564 0.000001 0.000000 0.000000 0.066184 -0.827645
    21 0.729362 0.000000 0.000000 0.000000 0.000009 -0.594014
    22 3.942326 0.046770 -0.431443 -0.161989 -0.106345 -1.434486
    23 1.539095 0.000001 0.000000 0.000000 0.006390 -0.777660
    24 1.196321 -0.000001 0.000000 0.000000 0.000002 -1.170567
    25 3.883690 -0.046773 0.431443 0.049936 -0.030483 -1.249506
    26 1.719576 0.000000 0.000000 0.000000 0.033584 -1.110939
    27 1.209180 0.000000 0.000000 0.000000 0.000004 -1.111239
    28 3.859859 -0.137950 1.332466 0.283488 0.115914 -1.212807
    29 1.719428 0.000000 0.000000 0.000000 -0.152217 -1.133732
    30 1.099666 -0.000001 0.000000 0.000000 0.000007 -1.021302
    31 0.806048 -0.348924 1.321258 -1.241196 -0.251332 -0.849459
    32 1.789784 0.000000 -0.000001 0.000000 -0.036081 0.257592
    33 1.206999 0.000000 -0.000001 0.000000 0.000001 0.303713
    34 2.033353 1.000771 -1.937610 -2.482170 1.097749 2.077943
    35 6.028143 0.000001 0.000000 4.379074 1.498466 2.467135
    36 11.692554 0.000000 0.000001 0.000000 0.000000 -1.355360
    37 11.481699 0.000000 0.000003 -0.738527 0.051777 0.659597
    38 3.859672 -0.132569 1.193108 0.498203 0.156931 -0.982261
    39 1.312561 0.000001 0.000000 0.000000 -0.456981 -1.112956
    40 0.729364 0.000000 0.000000 0.000000 -0.000010 -0.672062
    41 3.942294 0.050329 0.431043 0.160536 0.000249 -0.910199
    42 1.539095 0.000000 0.000000 0.000000 -0.214757 -1.281153
    43 1.196326 0.000001 0.000000 0.000000 -0.000003 -0.797323
    44 3.883656 -0.050328 -0.431043 -0.084946 -0.177602 -0.644875
    45 1.719576 0.000002 0.000000 0.000000 -0.031656 -1.425518
    46 1.209181 -0.000001 0.000000 -0.003428 0.022229 -0.934718
    47 3.859830 -0.148937 -1.331282 -0.269649 -0.115063 -0.374578
    48 1.719425 0.000000 0.000000 -0.064177 0.108990 -1.117024
    49 1.099666 0.000001 0.000000 -0.069175 0.051206 -1.337365
    50 0.806017 -0.359835 -1.318334 1.282844 0.248619 -0.715183
    51 1.789784 0.000000 0.000000 0.000000 -0.010076 0.141894
    52 1.206998 0.000000 0.000000 0.000300 0.002007 1.187229
    53 11.687500 -0.000003 0.000003 0.000000 0.000000 -0.029498
    54 5.738281 0.000001 0.000001 0.000687 0.000000 0.000000
    55 5.738281 -0.000002 0.000000 0.000080 0.000000 0.000000
    56 1.500000 -0.000001 0.000002 0.000000 0.000000 0.000000
    57 1.499023 -0.000003 0.000003 0.000000 0.000000 0.000000
    58 2.078125 1.478516 -4.996094 0.000000 0.000000 0.000000
    59 5.164063 0.000004 0.000001 0.000000 0.000000 0.000000
    60 11.476563 -0.000001 0.000003 0.000149 0.000000 0.000000
    61 5.558594 0.000000 0.000000 0.000000 0.000000 0.000000
    62 5.558594 -0.000002 0.000000 0.000000 0.000000 0.000000
    63 5.164063 -0.000001 -0.000001 0.000000 0.000000 0.000000
    64 11.476563 0.000000 0.000004 0.001270 0.000000 0.000000
    65 2.078125 1.478516 5.000000 0.000000 0.000000 0.000000
    66 11.687500 -0.000001 0.000001 0.000000 0.000000 -0.029498
  time 1
    0 0.513292 1.074257 31.133097 1.722841 0.163198 -0.567961
    1 3.890452 -0.000004 -0.000003 -2.157239 -0.798742 -0.872386
    2 17.848177 0.000000 0.000000 0.000000 0.000000 1.332370
    3 16.525253 0.000000 0.000000 -0.054685 0.162784 -1.546730
    4 6.879454 0.000000 0.000000 -0.007299 -0.001069 -0.584373
    5 -3.890452 0.000004 0.000007 -1.540726 -0.239292 -1.839699
    6 17.848173 0.000000 0.000000 0.000000 0.000000 0.747865
    7 16.525257 0.000000 0.000000 0.560473 0.092208 -1.565615
    8 6.878906 0.000000 0.000000 -0.081332 -0.002951 -0.584373
    9 -0.171875 3.341221 -2.981901 1.567962 0.036143 1.626330
    10 4.018331 0.000000 0.000000 -0.227527 0.016671 0.153900
    11 3.518565 0.000000 0.000000 -0.286045 -0.133472 0.283363
    12 8.942642 0.000000 0.000000 0.203067 -0.034516 0.259220
    13 3.307271 0.000000 0.000000 3.141590 0.000012 0.176464
    14 3.593712 -0.000001 0.000000 0.853196 -0.115322 0.545262
    15 2.033346 1.000768 1.937660 4.637275 -1.455030 -0.098727
    16 6.028142 0.000001 0.000000 -2.999192 -0.679955 0.241949
    17 11.692554 0.000000 0.000001 0.000000 0.000000 -0.860626
    18 11.481672 0.000000 -0.000032 1.170642 0.354700 0.211140
    19 3.859704 -0.142408 -1.191974 -0.470166 -0.168518 -1.386418
    20 1.312564 0.000001 0.000000 0.000000 0.063751 -0.800657
    21 0.729362 0.000000 0.000000 0.000000 0.000009 -0.580510
    22 3.942326 0.046770 -0.431443 -0.163667 -0.099070 -1.390028
    23 1.539095 0.000001 0.000000 0.000000 0.006150 -0.752499
    24 1.196321 -0.000001 0.000000 0.000000 0.000002 -1.135792
    25 3.883690 -0.046773 0.431443 0.053292 -0.032784 -1.204905
    26 1.719576 0.000000 0.000000 0.000000 0.032350 -1.073518
    27 1.209180 0.000000 0.000000 0.000000 0.000004 -1.078625
    28 3.859859 -0.137950 1.332466 0.292597 0.103210 -1.169681
    29 1.719428 0.000000 0.000000 0.000000 -0.146596 -1.095435
    30 1.099666 -0.000001 0.000000 0.000000 0.000007 -0.992035
    31 0.806048 -0.348924 1.321258 -1.243100 -0.277398 -0.837105
    32 1.789784 0.000000 -0.000001 0.000252 -0.036045 0.250331
    33 1.206999 0.000000 -0.000001 0.000000 0.000001 0.303713
    34 2.033353 1.000771 -1.937610 -2.514009 1.107525 2.049021
    35 6.028143 0.000001 0.000000 0.847650 1.501617 -1.094243
    36 11.692554 0.000000 0.000001 0.000000 0.000000 -1.433060
    37 11.481699 0.000000 0.000003 -0.756820 0.037452 0.637448
    38 3.859672 -0.132569 1.193108 0.498203 0.156931 -0.982261
    39 1.312561 0.000001 0.000000 0.000000 -0.456981 -1.112956
    40 0.729364 0.000000 0.000000 0.000000 -0.000010 -0.672062
    41 3.942294 0.050329 0.431043 0.160536 0.000249 -0.910199
    42 1.539095 0.000000 0.000000 0.000000 -0.214757 -1.281153
    43 1.196326 0.000001 0.000000 0.000000 -0.000003 -0.797323
    44 3.883656 -0.050328 -0.431043 -0.084946 -0.177602 -0.644875
    45 1.719576 0.000002 0.000000 0.000000 -0.031656 -1.425518
    46 1.209181 -0.000001 0.000000 -0.003428 0.022229 -0.934718
    47 3.859830 -0.148937 -1.331282 -0.269649 -0.115063 -0.374578
    48 1.719425 0.000000 0.000000 -0.064177 0.108990 -1.117024
    49 1.099666 0.000001 0.000000 -0.069175 0.051206 -1.337365
    50 0.806017 -0.359835 -1.318334 1.282844 0.248619 -0.715183
    51 1.789784 0.000000 0.000000 0.000000 -0.010076 0.141894
    52 1.206998 0.000000 0.000000 0.000300 0.002007 1.187229
    53 11.687500 -0.000003 0.000003 0.000000 0.000000 -0.029498
    54 5.738281 0.000001 0.000001 0.000687 0.000000 0.000000
    55 5.738281 -0.000002 0.000000 0.000080 0.000000 0.000000
    56 1.500000 -0.000001 0.000002 0.000000 0.000000 0.000000
    57 1.499023 -0.000003 0.000003 0.000000 0.000000 0.000000
    58 2.078125 1.478516 -4.996094 0.000000 0.000000 0.000000
    59 5.164063 0.000004 0.000001 0.000000 0.000000 0.000000
    60 11.476563 -0.000001 0.000003 0.000149 0.000000 0.000000
    61 5.558594 0.000000 0.000000 0.000000 0.000000 0.000000
    62 5.558594 -0.000002 0.000000 0.000000 0.000000 0.000000
    63 5.164063 -0.000001 -0.000001 0.000000 0.000000 0.000000
    64 11.476563 0.000000 0.000004 0.001270 0.000000 0.000000
    65 2.078125 1.478516 5.000000 0.000000 0.000000 0.000000
    66 11.687500 -0.000001 0.000001 0.000000 0.000000 -0.029498
  time 2
    0 0.220314 2.054755 30.211194 1.699169 0.137346 -0.534733
    1 3.890452 -0.000004 -0.000003 -2.166324 -0.838510 -0.849485
    2 17.848177 0.000000 0.000000 0.000000 0.000000 1.385218
    3 16.525253 0.000000 0.000000 -0.051937 0.195459 -1.532069
    4 6.879454 0.000000 0.000000 -0.007299 -0.001069 -0.584373
    5 -3.890452 0.000004 0.000007 -1.513360 -0.208473 -1.875592
    6 17.848173 0.000000 0.000000 0.000000 0.000000 0.846785
    7 16.525257 0.000000 0.000000 0.567668 0.087453 -1.656673
    8 6.878906 0.000000 0.000000 -0.081332 -0.002951 -0.584373
    9 -0.117186 3.345128 -2.981901 1.561891 0.096831 1.617083
    10 4.018331 0.000000 0.000000 -0.206159 0.028871 0.121243
    11 3.518565 0.000000 0.000000 -0.260926 -0.095481 0.285359
    12 8.942642 0.000000 0.000000 0.176701 -0.028391 0.240848
    13 3.307271 0.000000 0.000000 3.141590 0.000072 0.207412
    14 3.593712 -0.000001 0.000000 0.796357 -0.030137 0.439052
    15 2.033346 1.000768 1.937660 4.645798 -1.383925 -0.106583
    16 6.028142 0.000001 0.000000 -2.427805 -0.543168 0.125804
    17 11.692554 0.000000 0.000001 0.000000 0.000000 -0.923761
    18 11.481672 0.000000 -0.000032 1.262166 0.313229 0.160382
    19 3.859704 -0.142408 -1.191974 -0.483750 -0.120280 -1.275196
    20 1.312564 0.000001 0.000000 0.000000 0.057220 -0.728580
    21 0.729362 0.000000 0.000000 0.000000 0.000009 -0.544418
    22 3.942326 0.046770 -0.431443 -0.166519 -0.079380 -1.271500
    23 1.539095 0.000001 0.000000 0.000000 0.005527 -0.685384
    24 1.196321 -0.000001 0.000000 0.000000 0.000002 -1.042907
    25 3.883690 -0.046773 0.431443 0.061729 -0.039651 -1.085761
    26 1.719576 0.000000 0.000000 0.000000 0.029042 -0.973547
    27 1.209180 0.000000 0.000000 0.000000 0.000004 -0.991584
    28 3.859859 -0.137950 1.332466 0.314097 0.067520 -1.055369
    29 1.719428 0.000000 0.000000 0.000000 -0.131603 -0.993212
    30 1.099666 -0.000001 0.000000 0.000000 0.000007 -0.913848
    31 0.806048 -0.348924 1.321258 -1.251740 -0.347551 -0.804088
    32 1.789784 0.000000 -0.000001 0.000947 -0.035985 0.230976
    33 1.206999 0.000000 -0.000001 0.000000 0.000001 0.303713
    34 2.033353 1.000771 -1.937610 -2.605241 1.131474 1.965641
    35 6.028143 0.000001 0.000000 1.083735 1.183317 -0.921351
    36 11.692554 0.000000 0.000001 0.000000 0.000000 -1.585702
    37 11.481699 0.000000 0.000003 -0.802362 -0.003027 0.579124
    38 3.859672 -0.132569 1.193108 0.498203 0.156931 -0.982261
    39 1.312561 0.000001 0.000000 0.000000 -0.456981 -1.112956
    40 0.729364 0.000000 0.000000 0.000000 -0.000010 -0.672062
    41 3.942294 0.050329 0.431043 0.160536 0.000249 -0.910199
    42 1.539095 0.000000 0.000000 0.000000 -0.214757 -1.281153
    43 1.196326 0.000001 0.000000 0.000000 -0.000003 -0.797323
    44 3.883656 -0.050328 -0.431043 -0.084946 -0.177602 -0.644875
    45 1.719576 0.000002 0.000000 0.000000 -0.031656 -1.425518
    46 1.209181 -0.000001 0.000000 -0.003428 0.022229 -0.934718
    47 3.859830 -0.148937 -1.331282 -0.269649 -0.115063 -0.374578
    48 1.719425 0.000000 0.000000 -0.064177 0.108990 -1.117024
    49 1.099666 0.000001 0.000000 -0.069175 0.051206 -1.337365
    50 0.806017 -0.359835 -1.318334 1.282844 0.248619 -0.715183
    51 1.789784 0.000000 0.000000 0.000000 -0.010076 0.141894
    52 1.206998 0.000000 0.000000 0.000300 0.002007 1.187229
    53 11.687500 -0.000003 0.000003 0.000000 0.000000 -0.029498
    54 5.738281 0.000001 0.000001 0.000687 0.000000 0.000000
    55 5.738281 -0.000002 0.000000 0.000080 0.000000 0.000000
    56 1.500000 -0.000001 0.000002 0.000000 0.000000 0.000000
    57 1.499023 -0.000003 0.000003 0.000000 0.000000 0.000000
    58 2.078125 1.478516 -4.996094 0.000000 0.000000 0.000000
    59 5.164063 0.000004 0.000001 0.000000 0.000000 0.000000
    60 11.476563 -0.000001 0.000003 0.000149 0.000000 0.000000
    61 5.558594 0.000000 0.000000 0.000000 0.000000 0.000000
    62 5.558594 -0.000002 0.000000 0.000000 0.000000 0.000000
    63 5.164063 -0.000001 -0.000001 0.000000 0.000000 0.000000
    64 11.476563 0.000000 0.000004 0.001270 0.000000 0.000000
    65 2.078125 1.478516 5.000000 0.000000 0.000000 0.000000
    66 11.687500 -0.000001 0.000001 0.000000 0.000000 -0.029498
  time 3
    0 -0.154697 3.129007 29.301010 1.663954 0.098813 -0.485776
    1 3.890452 -0.000004 -0.000003 -2.145788 -0.878548 -0.860936
    2 17.848177 0.000000 0.000000 0.000000 0.000000 1.421408
    3 16.525253 0.000000 0.000000 -0.049042 0.229584 -1.501661
    4 6.879454 0.000000 0.000000 -0.007299 -0.001069 -0.584373
    5 -3.890452 0.000004 0.000007 -1.476026 -0.148211 -1.921740
    6 17.848173 0.000000 0.000000 0.000000 0.000000 0.933011
    7 16.525257 0.000000 0.000000 0.573465 0.083612 -1.746406
    8 6.878906 0.000000 0.000000 -0.081332 -0.002951 -0.584373
    9 -0.035152 3.345128 -2.981901 1.556274 0.156860 1.603261
    10 4.018331 0.000000 0.000000 -0.178451 0.043444 0.079405
    11 3.518565 0.000000 0.000000 -0.227332 -0.050000 0.278760
    12 8.942642 0.000000 0.000000 0.143444 -0.018193 0.217070
    13 3.307271 0.000000 0.000000 3.141686 0.000144 0.252014
    14 3.593712 -0.000001 0.000000 0.720623 0.056462 0.330622
    15 2.033346 1.000768 1.937660 4.651736 -1.281411 -0.110990
    16 6.028142 0.000001 0.000000 -1.862534 -0.463569 0.158882
    17 11.692554 0.000000 0.000001 0.000000 0.000000 -1.027658
    18 11.481672 0.000000 -0.000032 1.401969 0.251468 0.089965
    19 3.859704 -0.142408 -1.191974 -0.492027 -0.048995 -1.116900
    20 1.312564 0.000001 0.000000 0.000000 0.047824 -0.624768
    21 0.729362 0.000000 0.000000 0.000000 0.000009 -0.492455
    22 3.942326 0.046770 -0.431443 -0.166495 -0.050736 -1.101093
    23 1.539095 0.000001 0.000000 0.000000 0.004616 -0.588666
    24 1.196321 -0.000001 0.000000 0.000000 0.000002 -0.909071
    25 3.883690 -0.046773 0.431443 0.072323 -0.051180 -0.914170
    26 1.719576 0.000000 0.000000 0.000000 0.024272 -0.829522
    27 1.209180 0.000000 0.000000 0.000000 0.000004 -0.866210
    28 3.859859 -0.137950 1.332466 0.337551 0.012355 -0.892351
    29 1.719428 0.000000 0.000000 0.000000 -0.109995 -0.845975
    30 1.099666 -0.000001 0.000000 0.000000 0.000007 -0.801223
    31 0.806048 -0.348924 1.321258 -1.273854 -0.449411 -0.755041
    32 1.789784 0.000000 -0.000001 0.001943 -0.035889 0.203121
    33 1.206999 0.000000 -0.000001 0.000000 0.000001 0.303713
    34 2.033353 1.000771 -1.937610 -2.752489 1.159507 1.829634
    35 6.028143 0.000001 0.000000 1.172722 0.820814 -0.904295
    36 11.692554 0.000000 0.000001 0.000000 0.000000 -1.717721
    37 11.481699 0.000000 0.000003 -0.859397 -0.066317 0.496812
    38 3.859672 -0.132569 1.193108 0.498203 0.156931 -0.982261
    39 1.312561 0.000001 0.000000 0.000000 -0.456981 -1.112956
    40 0.729364 0.000000 0.000000 0.000000 -0.000010 -0.672062
    41 3.942294 0.050329 0.431043 0.160536 0.000249 -0.910199
    42 1.539095 0.000000 0.000000 0.000000 -0.214757 -1.281153
    43 1.196326 0.000001 0.000000 0.000000 -0.000003 -0.797323
    44 3.883656 -0.050328 -0.431043 -0.084946 -0.177602 -0.644875
    45 1.719576 0.000002 0.000000 0.000000 -0.031656 -1.425518
    46 1.209181 -0.000001 0.000000 -0.003428 0.022229 -0.934718
    47 3.859830 -0.148937 -1.331282 -0.269649 -0.115063 -0.374578
    48 1.719425 0.000000 0.000000 -0.064177 0.108990 -1.117024
    49 1.099666 0.000001 0.000000 -0.069175 0.051206 -1.337365
    50 0.806017 -0.359835 -1.318334 1.282844 0.248619 -0.715183
    51 1.789784 0.000000 0.000000 0.000000 -0.010076 0.141894
    52 1.206998 0.000000 0.000000 0.000300 0.002007 1.187229
    53 11.687500 -0.000003 0.000003 0.000000 0.000000 -0.029498
    54 5.738281 0.000001 0.000001 0.000687 0.000000 0.000000
    55 5.738281 -0.000002 0.000000 0.000080 0.000000 0.000000
    56 1.500000 -0.000001 0.000002 0.000000 0.000000 0.000000
    57 1.499023 -0.000003 0.000003 0.000000 0.000000 0.000000
    58 2.078125 1.478516 -4.996094 0.000000 0.000000 0.000000
    59 5.164063 0.000004 0.000001 0.000000 0.000000 0.000000
    60 11.476563 -0.000001 0.000003 0.000149 0.000000 0.000000
    61 5.558594 0.000000 0.000000 0.000000 0.000000 0.000000
    62 5.558594 -0.000002 0.000000 0.000000 0.000000 0.000000
    63 5.164063 -0.000001 -0.000001 0.000000 0.000000 0.000000
    64 11.476563 0.000000 0.000004 0.001270 0.000000 0.000000
    65 2.078125 1.478516 5.000000 0.000000 0.000000 0.000000
    66 11.687500 -0.000001 0.000001 0.000000 0.000000 -0.029498
  time 4
    0 -0.514083 3.839966 28.925998 1.620732 0.051733 -0.426206
    1 3.890452 -0.000004 -0.000003 -2.066166 -0.893450 -0.946521
    2 17.848177 0.000000 0.000000 0.000000 0.000000 1.411641
    3 16.525253 0.000000 0.000000 -0.047103 0.251945 -1.462503
    4 6.879454 0.000000 0.000000 -0.007299 -0.001069 -0.584373
    5 -3.890452 0.000004 0.000007 -1.434723 -0.072052 -1.966100
    6 17.848173 0.000000 0.000000 0.000000 0.000000 0.975645
    7 16.525257 0.000000 0.000000 0.571861 0.084674 -1.798345
    8 6.878906 0.000000 0.000000 -0.081332 -0.002951 -0.584373
    9 0.058601 3.345128 -2.981901 1.553086 0.182578 1.585960
    10 4.018331 0.000000 0.000000 -0.150886 0.055644 0.038662
    11 3.518565 0.000000 0.000000 -0.192001 -0.011649 0.255321
    12 8.942642 0.000000 0.000000 0.112044 -0.003979 0.193724
    13 3.307271 0.000000 0.000000 3.141686 0.000204 0.304498
    14 3.593712 -0.000001 0.000000 0.643582 0.099739 0.278434
    15 2.033346 1.000768 1.937660 4.656045 -1.160521 -0.113098
    16 6.028142 0.000001 0.000000 -1.668599 -0.499255 0.102164
    17 11.692554 0.000000 0.000001 0.000000 0.000000 -1.159858
    18 11.481672 0.000000 -0.000032 1.577939 0.176923 0.010079
    19 3.859704 -0.142408 -1.191974 -0.484788 0.035065 -0.931323
    20 1.312564 0.000001 0.000000 0.000000 0.036762 -0.502549
    21 0.729362 0.000000 0.000000 0.000000 0.000009 -0.431234
    22 3.942326 0.046770 -0.431443 -0.160251 -0.017599 -0.900701
    23 1.539095 0.000001 0.000000 0.000000 0.003561 -0.474790
    24 1.196321 -0.000001 0.000000 0.000000 0.000002 -0.751534
    25 3.883690 -0.046773 0.431443 0.082055 -0.066832 -0.712147
    26 1.719576 0.000000 0.000000 0.000000 0.018651 -0.659942
    27 1.209180 0.000000 0.000000 0.000000 0.000004 -0.718566
    28 3.859859 -0.137950 1.332466 0.353286 -0.056388 -0.701857
    29 1.719428 0.000000 0.000000 0.000000 -0.084564 -0.672598
    30 1.099666 -0.000001 0.000000 0.000000 0.000007 -0.668609
    31 0.806048 -0.348924 1.321258 -1.316104 -0.569292 -0.692242
    32 1.789784 0.000000 -0.000001 0.003118 -0.035770 0.170285
    33 1.206999 0.000000 -0.000001 0.000000 0.000001 0.303713
    34 2.033353 1.000771 -1.937610 -2.947087 1.180826 1.648139
    35 6.028143 0.000001 0.000000 1.264192 0.546907 -0.899169
    36 11.692554 0.000000 0.000001 0.000000 0.000000 -1.781334
    37 11.481699 0.000000 0.000003 -0.913032 -0.146684 0.401573
    38 3.859672 -0.132569 1.193108 0.498203 0.156931 -0.982261
    39 1.312561 0.000001 0.000000 0.000000 -0.456981 -1.112956
    40 0.729364 0.000000 0.000000 0.000000 -0.000010 -0.672062
    41 3.942294 0.050329 0.431043 0.160536 0.000249 -0.910199
    42 1.539095 0.000000 0.000000 0.000000 -0.214757 -1.281153
    43 1.196326 0.000001 0.000000 0.000000 -0.000003 -0.797323
    44 3.883656 -0.050328 -0.431043 -0.084946 -0.177602 -0.644875
    45 1.719576 0.000002 0.000000 0.000000 -0.031656 -1.425518
    46 1.209181 -0.000001 0.000000 -0.003428 0.022229 -0.934718
    47 3.859830 -0.148937 -1.331282 -0.269649 -0.115063 -0.374578
    48 1.719425 0.000000 0.000000 -0.064177 0.108990 -1.117024
    49 1.099666 0.000001 0.000000 -0.069175 0.051206 -1.337365
    50 0.806017 -0.359835 -1.318334 1.282844 0.248619 -0.715183
    51 1.789784 0.000000 0.000000 0.000000 -0.010076 0.141894
    52 1.206998 0.000000 0.000000 0.000300 0.002007 1.187229
    53 11.687500 -0.000003 0.000003 0.000000 0.000000 -0.029498
    54 5.738281 0.000001 0.000001 0.000687 0.000000 0.000000
    55 5.738281 -0.000002 0.000000 0.000080 0.000000 0.000000
    56 1.500000 -0.000001 0.000002 0.000000 0.000000 0.000000
    57 1.499023 -0.000003 0.000003 0.000000 0.000000 0.000000
    58 2.078125 1.478516 -4.996094 0.000000 0.000000 0.000000
    59 5.164063 0.000004 0.000001 0.000000 0.000000 0.000000
    60 11.476563 -0.000001 0.000003 0.000149 0.000000 0.000000
    61 5.558594 0.000000 0.000000 0.000000 0.000000 0.000000
    62 5.558594 -0.000002 0.000000 0.000000 0.000000 0.000000
    63 5.164063 -0.000001 -0.000001 0.000000 0.000000 0.000000
    64 11.476563 0.000000 0.000004 0.001270 0.000000 0.000000
    65 2.078125 1.478516 5.000000 0.000000 0.000000 0.000000
    66 11.687500 -0.000001 0.000001 0.000000 0.000000 -0.029498
  time 5
    0 -0.889095 4.027472 29.398669 1.573328 0.001095 -0.361709
    1 3.890452 -0.000004 -0.000003 -1.937686 -0.855567 -1.096688
    2 17.848177 0.000000 0.000000 0.000000 0.000000 1.338276
    3 16.525253 0.000000 0.000000 -0.046171 0.262754 -1.417292
    4 6.879454 0.000000 0.000000 -0.007299 -0.001069 -0.584373
    5 -3.890452 0.000004 0.000007 -1.392490 0.030085 -1.997642
    6 17.848173 0.000000 0.000000 0.000000 0.000000 0.935247
    7 16.525257 0.000000 0.000000 0.560741 0.092021 -1.792243
    8 6.878906 0.000000 0.000000 -0.081332 -0.002951 -0.584373
    9 0.160166 3.345128 -2.981901 1.551973 0.152764 1.570100
    10 4.018331 0.000000 0.000000 -0.119798 0.065376 -0.005783
    11 3.518565 0.000000 0.000000 -0.148951 0.019631 0.199760
    12 8.942642 0.000000 0.000000 0.079614 0.018912 0.168089
    13 3.307271 0.000000 0.000000 3.141782 0.000240 0.359197
    14 3.593712 -0.000001 0.000000 0.556919 0.075418 0.315693
    15 2.033346 1.000768 1.937660 4.659780 -1.034292 -0.113865
    16 6.028142 0.000001 0.000000 -1.710559 -0.506755 -0.013513
    17 11.692554 0.000000 0.000001 0.000000 0.000000 -1.319233
    18 11.481672 0.000000 -0.000032 1.774094 0.098551 -0.071099
    19 3.859704 -0.142408 -1.191974 -0.457956 0.119268 -0.736160
    20 1.312564 0.000001 0.000000 0.000000 0.025245 -0.375279
    21 0.729362 0.000000 0.000000 0.000000 0.000009 -0.367472
    22 3.942326 0.046770 -0.431443 -0.146888 0.014867 -0.691773
    23 1.539095 0.000001 0.000000 0.000000 0.002447 -0.356167
    24 1.196321 -0.000001 0.000000 0.000000 0.000002 -0.587456
    25 3.883690 -0.046773 0.431443 0.088623 -0.084857 -0.501658
    26 1.719576 0.000000 0.000000 0.000000 0.012815 -0.483334
    27 1.209180 0.000000 0.000000 0.000000 0.000004 -0.564807
    28 3.859859 -0.137950 1.332466 0.355516 -0.129806 -0.503313
    29 1.719428 0.000000 0.000000 0.000000 -0.058066 -0.492029
    30 1.099666 -0.000001 0.000000 0.000000 0.000007 -0.530489
    31 0.806048 -0.348924 1.321258 -1.382371 -0.692200 -0.616061
    32 1.789784 0.000000 -0.000001 0.004353 -0.035650 0.136086
    33 1.206999 0.000000 -0.000001 0.000000 0.000001 0.303713
    34 2.033353 1.000771 -1.937610 -3.164127 1.187461 1.444768
    35 6.028143 0.000001 0.000000 1.384408 0.403224 -0.862447
    36 11.692554 0.000000 0.000001 0.000000 0.000000 -1.765213
    37 11.481699 0.000000 0.000003 -0.952492 -0.234868 0.302601
    38 3.859672 -0.132569 1.193108 0.498203 0.156931 -0.982261
    39 1.312561 0.000001 0.000000 0.000000 -0.456981 -1.112956
    40 0.729364 0.000000 0.000000 0.000000 -0.000010 -0.672062
    41 3.942294 0.050329 0.431043 0.160536 0.000249 -0.910199
    42 1.539095 0.000000 0.000000 0.000000 -0.214757 -1.281153
    43 1.196326 0.000001 0.000000 0.000000 -0.000003 -0.797323
    44 3.883656 -0.050328 -0.431043 -0.084946 -0.177602 -0.644875
    45 1.719576 0.000002 0.000000 0.000000 -0.031656 -1.425518
    46 1.209181 -0.000001 0.000000 -0.003428 0.022229 -0.934718
    47 3.859830 -0.148937 -1.331282 -0.269649 -0.115063 -0.374578
    48 1.719425 0.000000 0.000000 -0.064177 0.108990 -1.117024
    49 1.099666 0.000001 0.000000 -0.069175 0.051206 -1.337365
    50 0.806017 -0.359835 -1.318334 1.282844 0.248619 -0.715183
    51 1.789784 0.000000 0.000000 0.000000 -0.010076 0.141894
    52 1.206998 0.000000 0.000000 0.000300 0.002007 1.187229
    53 11.687500 -0.000003 0.000003 0.000000 0.000000 -0.029498
    54 5.738281 0.000001 0.000001 0.000687 0.000000 0.000000
    55 5.738281 -0.000002 0.000000 0.000080 0.000000 0.000000
    56 1.500000 -0.000001 0.000002 0.000000 0.000000 0.000000
    57 1.499023 -0.000003 0.000003 0.000000 0.000000 0.000000
    58 2.078125 1.478516 -4.996094 0.000000 0.000000 0.000000
    59 5.164063 0.000004 0.000001 0.000000 0.000000 0.000000
    60 11.476563 -0.000001 0.000003 0.000149 0.000000 0.000000
    61 5.558594 0.000000 0.000000 0.000000 0.000000 0.000000
    62 5.558594 -0.000002 0.000000 0.000000 0.000000 0.000000
    63 5.164063 -0.000001 -0.000001 0.000000 0.000000 0.000000
    64 11.476563 0.000000 0.000004 0.001270 0.000000 0.000000
    65 2.078125 1.478516 5.000000 0.000000 0.000000 0.000000
    66 11.687500 -0.000001 0.000001 0.000000 0.000000 -0.029498
  time 6
    0 -1.318795 3.949344 30.390887 1.526454 -0.047262 -0.298854
    1 3.890452 -0.000004 -0.000003 -1.817145 -0.774100 -1.243648
    2 17.848177 0.000000 0.000000 0.000000 0.000000 1.220315
    3 16.525253 0.000000 0.000000 -0.045508 0.270255 -1.363569
    4 6.879454 0.000000 0.000000 -0.007299 -0.001069 -0.584373
    5 -3.890452 0.000004 0.000007 -1.351018 0.162065 -2.013025
    6 17.848173 0.000000 0.000000 0.000000 0.000000 0.815010
    7 16.525257 0.000000 0.000000 0.546290 0.101550 -1.742953
    8 6.878906 0.000000 0.000000 -0.081332 -0.002951 -0.584373
    9 0.253919 3.337315 -2.981901 1.549949 0.089538 1.558864
    10 4.018331 0.000000 0.000000 -0.083533 0.074796 -0.056835
    11 3.518565 0.000000 0.000000 -0.097148 0.050335 0.120731
    12 8.942642 0.000000 0.000000 0.043240 0.048957 0.138428
    13 3.307271 0.000000 0.000000 3.141782 0.000228 0.410284
    14 3.593712 -0.000001 0.000000 0.457596 0.010838 0.407102
    15 2.033346 1.000768 1.937660 4.662844 -0.915797 -0.113769
    16 6.028142 0.000001 0.000000 -1.846190 -0.493208 -0.127789
    17 11.692554 0.000000 0.000001 0.000000 0.000000 -1.426960
    18 11.481672 0.000000 -0.000032 1.968922 0.025939 -0.146502
    19 3.859704 -0.142408 -1.191974 -0.415359 0.191523 -0.549428
    20 1.312564 0.000001 0.000000 0.000000 0.014471 -0.256224
    21 0.729362 0.000000 0.000000 0.000000 0.000009 -0.307887
    22 3.942326 0.046770 -0.431443 -0.128528 0.042096 -0.495859
    23 1.539095 0.000001 0.000000 0.000000 0.001404 -0.245302
    24 1.196321 -0.000001 0.000000 0.000000 0.000002 -0.433997
    25 3.883690 -0.046773 0.431443 0.091223 -0.102606 -0.304591
    26 1.719576 0.000000 0.000000 0.000000 0.007338 -0.318196
    27 1.209180 0.000000 0.000000 0.000000 0.000004 -0.421027
    28 3.859859 -0.137950 1.332466 0.344262 -0.197603 -0.315583
    29 1.719428 0.000000 0.000000 0.000000 -0.033294 -0.323179
    30 1.099666 -0.000001 0.000000 0.000000 0.000007 -0.401344
    31 0.806048 -0.348924 1.321258 -1.470605 -0.802956 -0.528187
    32 1.789784 0.000000 -0.000001 0.005493 -0.035530 0.104117
    33 1.206999 0.000000 -0.000001 0.000000 0.000001 0.303713
    34 2.033353 1.000771 -1.937610 -3.365840 1.178549 1.255859
    35 6.028143 0.000001 0.000000 1.493534 0.321930 -0.781733
    36 11.692554 0.000000 0.000001 0.000000 0.000000 -1.681921
    37 11.481699 0.000000 0.000003 -0.973372 -0.319247 0.208131
    38 3.859672 -0.132569 1.193108 0.498203 0.156931 -0.982261
    39 1.312561 0.000001 0.000000 0.000000 -0.456981 -1.112956
    40 0.729364 0.000000 0.000000 0.000000 -0.000010 -0.672062
    41 3.942294 0.050329 0.431043 0.160536 0.000249 -0.910199
    42 1.539095 0.000000 0.000000 0.000000 -0.214757 -1.281153
    43 1.196326 0.000001 0.000000 0.000000 -0.000003 -0.797323
    44 3.883656 -0.050328 -0.431043 -0.084946 -0.177602 -0.644875
    45 1.719576 0.000002 0.000000 0.000000 -0.031656 -1.425518
    46 1.209181 -0.000001 0.000000 -0.003428 0.022229 -0.934718
    47 3.859830 -0.148937 -1.331282 -0.269649 -0.115063 -0.374578
    48 1.719425 0.000000 0.000000 -0.064177 0.108990 -1.117024
    49 1.099666 0.000001 0.000000 -0.069175 0.051206 -1.337365
    50 0.806017 -0.359835 -1.318334 1.282844 0.248619 -0.715183
    51 1.789784 0.000000 0.000000 0.000000 -0.010076 0.141894
    52 1.206998 0.000000 0.000000 0.000300 0.002007 1.187229
    53 11.687500 -0.000003 0.000003 0.000000 0.000000 -0.029498
    54 5.738281 0.000001 0.000001 0.000687 0.000000 0.000000
    55 5.738281 -0.000002 0.000000 0.000080 0.000000 0.000000
    56 1.500000 -0.000001 0.000002 0.000000 0.000000 0.000000
    57 1.499023 -0.000003 0.000003 0.000000 0.000000 0.000000
    58 2.078125 1.478516 -4.996094 0.000000 0.000000 0.000000
    59 5.164063 0.000004 0.000001 0.000000 0.000000 0.000000
    60 11.476563 -0.000001 0.000003 0.000149 0.000000 0.000000
    61 5.558594 0.000000 0.000000 0.000000 0.000000 0.000000
    62 5.558594 -0.000002 0.000000 0.000000 0.000000 0.000000
    63 5.164063 -0.000001 -0.000001 0.000000 0.000000 0.000000
    64 11.476563 0.000000 0.000004 0.001270 0.000000 0.000000
    65 2.078125 1.478516 5.000000 0.000000 0.000000 0.000000
    66 11.687500 -0.000001 0.000001 0.000000 0.000000 -0.029498
  time 7
    0 -1.693807 3.781370 31.429981 1.485941 -0.087347 -0.245411
    1 3.890452 -0.000004 -0.000003 -1.731110 -0.680783 -1.352462
    2 17.848177 0.000000 0.000000 0.000000 0.000000 1.093724
    3 16.525253 0.000000 0.000000 -0.045067 0.275297 -1.308616
    4 6.879454 0.000000 0.000000 -0.007299 -0.001069 -0.584373
    5 -3.890452 0.000004 0.000007 -1.311911 0.294000 -2.014268
    6 17.848173 0.000000 0.000000 0.000000 0.000000 0.659803
    7 16.525257 0.000000 0.000000 0.533607 0.109885 -1.671857
    8 6.878906 0.000000 0.000000 -0.081332 -0.002951 -0.584373
    9 0.328140 3.329502 -2.981901 1.545243 0.024159 1.551009
    10 4.018331 0.000000 0.000000 -0.051546 0.082502 -0.101562
    11 3.518565 0.000000 0.000000 -0.050875 0.075443 0.045882
    12 8.942642 0.000000 0.000000 0.011625 0.076785 0.112325
    13 3.307271 0.000000 0.000000 3.141686 0.000156 0.452145
    14 3.593712 -0.000001 0.000000 0.371587 -0.059621 0.508132
    15 2.033346 1.000768 1.937660 4.665047 -0.818151 -0.113386
    16 6.028142 0.000001 0.000000 -1.985261 -0.483480 -0.217677
    17 11.692554 0.000000 0.000001 0.000000 0.000000 -1.429062
    18 11.481672 0.000000 -0.000032 2.136486 -0.032106 -0.208739
    19 3.859704 -0.142408 -1.191974 -0.368347 0.243728 -0.392314
    20 1.312564 0.000001 0.000000 0.000000 0.005662 -0.158771
    21 0.729362 0.000000 0.000000 0.000000 0.000009 -0.259056
    22 3.942326 0.046770 -0.431443 -0.109736 0.061367 -0.334902
    23 1.539095 0.000001 0.000000 0.000000 0.000553 -0.154487
    24 1.196321 -0.000001 0.000000 0.000000 0.000002 -0.308405
    25 3.883690 -0.046773 0.431443 0.090732 -0.117287 -0.142988
    26 1.719576 0.000000 0.000000 0.000000 0.002879 -0.182994
    27 1.209180 0.000000 0.000000 0.000000 0.000004 -0.303289
    28 3.859859 -0.137950 1.332466 0.325302 -0.250755 -0.159208
    29 1.719428 0.000000 0.000000 0.000000 -0.013004 -0.184959
    30 1.099666 -0.000001 0.000000 0.000000 0.000007 -0.295594
    31 0.806048 -0.348924 1.321258 -1.567334 -0.888351 -0.438254
    32 1.789784 0.000000 -0.000001 0.006428 -0.035446 0.077923
    33 1.206999 0.000000 -0.000001 0.000000 0.000001 0.303713
    34 2.033353 1.000771 -1.937610 -3.520387 1.161038 1.111798
    35 6.028143 0.000001 0.000000 1.554929 0.280639 -0.695800
    36 11.692554 0.000000 0.000001 0.000000 0.000000 -1.561739
    37 11.481699 0.000000 0.000003 -0.978113 -0.388143 0.127767
    38 3.859672 -0.132569 1.193108 0.498203 0.156931 -0.982261
    39 1.312561 0.000001 0.000000 0.000000 -0.456981 -1.112956
    40 0.729364 0.000000 0.000000 0.000000 -0.000010 -0.672062
    41 3.942294 0.050329 0.431043 0.160536 0.000249 -0.910199
    42 1.539095 0.000000 0.000000 0.000000 -0.214757 -1.281153
    43 1.196326 0.000001 0.000000 0.000000 -0.000003 -0.797323
    44 3.883656 -0.050328 -0.431043 -0.084946 -0.177602 -0.644875
    45 1.719576 0.000002 0.000000 0.000000 -0.031656 -1.425518
    46 1.209181 -0.000001 0.000000 -0.003428 0.022229 -0.934718
    47 3.859830 -0.148937 -1.331282 -0.269649 -0.115063 -0.374578
    48 1.719425 0.000000 0.000000 -0.064177 0.108990 -1.117024
    49 1.099666 0.000001 0.000000 -0.069175 0.051206 -1.337365
    50 0.806017 -0.359835 -1.318334 1.282844 0.248619 -0.715183
    51 1.789784 0.000000 0.000000 0.000000 -0.010076 0.141894
    52 1.206998 0.000000 0.000000 0.000300 0.002007 1.187229
    53 11.687500 -0.000003 0.000003 0.000000 0.000000 -0.029498
    54 5.738281 0.000001 0.000001 0.000687 0.000000 0.000000
    55 5.738281 -0.000002 0.000000 0.000080 0.000000 0.000000
    56 1.500000 -0.000001 0.000002 0.000000 0.000000 0.000000
    57 1.499023 -0.000003 0.000003 0.000000 0.000000 0.000000
    58 2.078125 1.478516 -4.996094 0.000000 0.000000 0.000000
    59 5.164063 0.000004 0.000001 0.000000 0.000000 0.000000
    60 11.476563 -0.000001 0.000003 0.000149 0.000000 0.000000
    61 5.558594 0.000000 0.000000 0.000000 0.000000 0.000000
    62 5.558594 -0.000002 0.000000 0.000000 0.000000 0.000000
    63 5.164063 -0.000001 -0.000001 0.000000 0.000000 0.000000
    64 11.476563 0.000000 0.000004 0.001270 0.000000 0.000000
    65 2.078125 1.478516 5.000000 0.000000 0.000000 0.000000
    66 11.687500 -0.000001 0.000001 0.000000 0.000000 -0.029498
  time 8
    0 -1.908657 3.707149 32.051094 1.458853 -0.113168 -0.210099
    1 3.890452 -0.000004 -0.000003 -1.683855 -0.618033 -1.413510
    2 17.848177 0.000000 0.000000 0.000000 0.000000 1.009001
    3 16.525253 0.000000 0.000000 -0.044821 0.278180 -1.269459
    4 6.879454 0.000000 0.000000 -0.007299 -0.001069 -0.584373
    5 -3.890452 0.000004 0.000007 -1.283615 0.381572 -2.011782
    6 17.848173 0.000000 0.000000 0.000000 0.000000 0.549945
    7 16.525257 0.000000 0.000000 0.526434 0.114585 -1.619588
    8 6.878906 0.000000 0.000000 -0.081332 -0.002951 -0.584373
    9 0.378923 3.325596 -2.981901 1.538969 -0.012369 1.544993
    10 4.018331 0.000000 0.000000 -0.033317 0.087104 -0.126964
    11 3.518565 0.000000 0.000000 -0.024403 0.090004 0.002966
    12 8.942642 0.000000 0.000000 -0.006544 0.093024 0.097524
    13 3.307271 0.000000 0.000000 3.141590 0.000000 0.479007
    14 3.593712 -0.000001 0.000000 0.322753 -0.100751 0.572996
    15 2.033346 1.000768 1.937660 4.665430 -0.754311 -0.113098
    16 6.028142 0.000001 0.000000 -2.059432 -0.479707 -0.274582
    17 11.692554 0.000000 0.000001 0.000000 0.000000 -1.386947
    18 11.481672 0.000000 -0.000032 2.247808 -0.068338 -0.249167
    19 3.859704 -0.142408 -1.191974 -0.332755 0.273055 -0.289201
    20 1.312564 0.000001 0.000000 0.000000 0.000005 -0.096216
    21 0.729362 0.000000 0.000000 0.000000 0.000009 -0.227767
    22 3.942326 0.046770 -0.431443 -0.096134 0.072058 -0.231366
    23 1.539095 0.000001 0.000000 0.000000 0.000002 -0.096225
    24 1.196321 -0.000001 0.000000 0.000000 0.000002 -0.227781
    25 3.883690 -0.046773 0.431443 0.089150 -0.126599 -0.039125
    26 1.719576 0.000000 0.000000 0.000000 0.000003 -0.096227
    27 1.209180 0.000000 0.000000 0.000000 0.000004 -0.227748
    28 3.859859 -0.137950 1.332466 0.308548 -0.283065 -0.057172
    29 1.719428 0.000000 0.000000 0.000000 0.000011 -0.096244
    30 1.099666 -0.000001 0.000000 0.000000 0.000007 -0.227781
    31 0.806048 -0.348924 1.321258 -1.643926 -0.939468 -0.368838
    32 1.789784 0.000000 -0.000001 0.007040 -0.035386 0.061145
    33 1.206999 0.000000 -0.000001 0.000000 0.000001 0.303713
    34 2.033353 1.000771 -1.937610 -3.612075 1.145452 1.026953
    35 6.028143 0.000001 0.000000 1.575423 0.257392 -0.649385
    36 11.692554 0.000000 0.000001 0.000000 0.000000 -1.480407
    37 11.481699 0.000000 0.000003 -0.974856 -0.431605 0.074082
    38 3.859672 -0.132569 1.193108 0.498203 0.156931 -0.982261
    39 1.312561 0.000001 0.000000 0.000000 -0.456981 -1.112956
    40 0.729364 0.000000 0.000000 0.000000 -0.000010 -0.672062
    41 3.942294 0.050329 0.431043 0.160536 0.000249 -0.910199
    42 1.539095 0.000000 0.000000 0.000000 -0.214757 -1.281153
    43 1.196326 0.000001 0.000000 0.000000 -0.000003 -0.797323
    44 3.883656 -0.050328 -0.431043 -0.084946 -0.177602 -0.644875
    45 1.719576 0.000002 0.000000 0.000000 -0.031656 -1.425518
    46 1.209181 -0.000001 0.000000 -0.003428 0.022229 -0.934718
    47 3.859830 -0.148937 -1.331282 -0.269649 -0.115063 -0.374578
    48 1.719425 0.000000 0.000000 -0.064177 0.108990 -1.117024
    49 1.099666 0.000001 0.000000 -0.069175 0.051206 -1.337365
    50 0.806017 -0.359835 -1.318334 1.282844 0.248619 -0.715183
    51 1.789784 0.000000 0.000000 0.000000 -0.010076 0.141894
    52 1.206998 0.000000 0.000000 0.000300 0.002007 1.187229
    53 11.687500 -0.000003 0.000003 0.000000 0.000000 -0.029498
    54 5.738281 0.000001 0.000001 0.000687 0.000000 0.000000
    55 5.738281 -0.000002 0.000000 0.000080 0.000000 0.000000
    56 1.500000 -0.000001 0.000002 0.000000 0.000000 0.000000
    57 1.499023 -0.000003 0.000003 0.000000 0.000000 0.000000
    58 2.078125 1.478516 -4.996094 0.000000 0.000000 0.000000
    59 5.164063 0.000004 0.000001 0.000000 0.000000 0.000000
    60 11.476563 -0.000001 0.000003 0.000149 0.000000 0.000000
    61 5.558594 0.000000 0.000000 0.000000 0.000000 0.000000
    62 5.558594 -0.000002 0.000000 0.000000 0.000000 0.000000
    63 5.164063 -0.000001 -0.000001 0.000000 0.000000 0.000000
    64 11.476563 0.000000 0.000004 0.001270 0.000000 0.000000
    65 2.078125 1.478516 5.000000 0.000000 0.000000 0.000000
    66 11.687500 -0.000001 0.000001 0.000000 0.000000 -0.029498
  time 9
    0 -1.990691 3.750119 32.273757 1.444190 -0.126732 -0.191148
    1 3.890452 -0.000004 -0.000003 -1.661488 -0.591326 -1.442431
    2 17.848177 0.000000 0.000000 0.000000 0.000000 0.971675
    3 16.525253 0.000000 0.000000 -0.044674 0.279719 -1.248934
    4 6.879454 0.000000 0.000000 -0.007299 -0.001069 -0.584373
    5 -3.890452 0.000004 0.000007 -1.269425 0.415322 -2.013957
    6 17.848173 0.000000 0.000000 0.000000 0.000000 0.515375
    7 16.525257 0.000000 0.000000 0.523268 0.116654 -1.602464
    8 6.878906 0.000000 0.000000 -0.081332 -0.002951 -0.584373
    9 0.402361 3.321690 -2.981901 1.532087 -0.021076 1.540369
    10 4.018331 0.000000 0.000000 -0.026762 0.089357 -0.136062
    11 3.518565 0.000000 0.000000 -0.014894 0.096332 -0.011179
    12 8.942642 0.000000 0.000000 -0.013507 0.099113 0.092359
    13 3.307271 0.000000 0.000000 3.141398 -0.000264 0.493136
    14 3.593712 -0.000001 0.000000 0.304512 -0.112694 0.602469
    15 2.033346 1.000768 1.937660 4.663898 -0.718739 -0.113002
    16 6.028142 0.000001 0.000000 -2.079983 -0.470252 -0.309341
    17 11.692554 0.000000 0.000001 0.000000 0.000000 -1.363450
    18 11.481672 0.000000 -0.000032 2.307589 -0.086992 -0.270690
    19 3.859704 -0.142408 -1.191974 -0.312430 0.287005 -0.234207
    20 1.312564 0.000001 0.000000 0.000000 -0.002979 -0.063296
    21 0.729362 0.000000 0.000000 0.000000 0.000009 -0.211304
    22 3.942326 0.046770 -0.431443 -0.088547 0.077079 -0.176766
    23 1.539095 0.000001 0.000000 0.000000 -0.000286 -0.065558
    24 1.196321 -0.000001 0.000000 0.000000 0.000002 -0.185340
    25 3.883690 -0.046773 0.431443 0.087927 -0.131417 0.015594
    26 1.719576 0.000000 0.000000 0.000000 -0.001507 -0.050561
    27 1.209180 0.000000 0.000000 0.000000 0.000004 -0.188015
    28 3.859859 -0.137950 1.332466 0.298301 -0.299352 -0.002859
    29 1.719428 0.000000 0.000000 0.000000 0.006842 -0.049550
    30 1.099666 -0.000001 0.000000 0.000000 0.000007 -0.192064
    31 0.806048 -0.348924 1.321258 -1.689544 -0.964871 -0.327953
    32 1.789784 0.000000 -0.000001 0.007352 -0.035350 0.052298
    33 1.206999 0.000000 -0.000001 0.000000 0.000001 0.303713
    34 2.033353 1.000771 -1.937610 -3.657599 1.136029 0.984943
    35 6.028143 0.000001 0.000000 1.581456 0.236866 -0.636989
    36 11.692554 0.000000 0.000001 0.000000 0.000000 -1.458912
    37 11.481699 0.000000 0.000003 -0.971121 -0.454108 0.044989
    38 3.859672 -0.132569 1.193108 0.498203 0.156931 -0.982261
    39 1.312561 0.000001 0.000000 0.000000 -0.456981 -1.112956
    40 0.729364 0.000000 0.000000 0.000000 -0.000010 -0.672062
    41 3.942294 0.050329 0.431043 0.160536 0.000249 -0.910199
    42 1.539095 0.000000 0.000000 0.000000 -0.214757 -1.281153
    43 1.196326 0.000001 0.000000 0.000000 -0.000003 -0.797323
    44 3.883656 -0.050328 -0.431043 -0.084946 -0.177602 -0.644875
    45 1.719576 0.000002 0.000000 0.000000 -0.031656 -1.425518
    46 1.209181 -0.000001 0.000000 -0.003428 0.022229 -0.934718
    47 3.859830 -0.148937 -1.331282 -0.269649 -0.115063 -0.374578
    48 1.719425 0.000000 0.000000 -0.064177 0.108990 -1.117024
    49 1.099666 0.000001 0.000000 -0.069175 0.051206 -1.337365
    50 0.806017 -0.359835 -1.318334 1.282844 0.248619 -0.715183
    51 1.789784 0.000000 0.000000 0.000000 -0.010076 0.141894
    52 1.206998 0.000000 0.000000 0.000300 0.002007 1.187229
    53 11.687500 -0.000003 0.000003 0.000000 0.000000 -0.029498
    54 5.738281 0.000001 0.000001 0.000687 0.000000 0.000000
    55 5.738281 -0.000002 0.000000 0.000080 0.000000 0.000000
    56 1.500000 -0.000001 0.000002 0.000000 0.000000 0.000000
    57 1.499023 -0.000003 0.000003 0.000000 0.000000 0.000000
    58 2.078125 1.478516 -4.996094 0.000000 0.000000 0.000000
    59 5.164063 0.000004 0.000001 0.000000 0.000000 0.000000
    60 11.476563 -0.000001 0.000003 0.000149 0.000000 0.000000
    61 5.558594 0.000000 0.000000 0.000000 0.000000 0.000000
    62 5.558594 -0.000002 0.000000 0.000000 0.000000 0.000000
    63 5.164063 -0.000001 -0.000001 0.000000 0.000000 0.000000
    64 11.476563 0.000000 0.000004 0.001270 0.000000 0.000000
    65 2.078125 1.478516 5.000000 0.000000 0.000000 0.000000
    66 11.687500 -0.000001 0.000001 0.000000 0.000000 -0.029498
  time 10
    0 -2.037567 3.808715 32.430011 1.435534 -0.134609 -0.180093
    1 3.890452 -0.000004 -0.000003 -1.648968 -0.573910 -1.458920
    2 17.848177 0.000000 0.000000 0.000000 0.000000 0.944645
    3 16.525253 0.000000 0.000000 -0.044601 0.280586 -1.233375
    4 6.879454 0.000000 0.000000 -0.007299 -0.001069 -0.584373
    5 -3.890452 0.000004 0.000007 -1.260894 0.431886 -2.014734
    6 17.848173 0.000000 0.000000 0.000000 0.000000 0.497092
    7 16.525257 0.000000 0.000000 0.520390 0.118538 -1.591679
    8 6.878906 0.000000 0.000000 -0.081332 -0.002951 -0.584373
    9 0.417987 3.321690 -2.981901 1.524346 -0.024369 1.537585
    10 4.018331 0.000000 0.000000 -0.023118 0.090951 -0.141010
    11 3.518565 0.000000 0.000000 -0.009522 0.100311 -0.019060
    12 8.942642 0.000000 0.000000 -0.017617 0.102972 0.089698
    13 3.307271 0.000000 0.000000 3.141111 -0.000647 0.501308
    14 3.593712 -0.000001 0.000000 0.293968 -0.119629 0.627823
    15 2.033346 1.000768 1.937660 4.660833 -0.695770 -0.113290
    16 6.028142 0.000001 0.000000 -2.090114 -0.452841 -0.331393
    17 11.692554 0.000000 0.000001 0.000000 0.000000 -1.344082
    18 11.481672 0.000000 -0.000032 2.342651 -0.097694 -0.283245
    19 3.859704 -0.142408 -1.191974 -0.300146 0.294591 -0.202065
    20 1.312564 0.000001 0.000000 0.000000 -0.004705 -0.044219
    21 0.729362 0.000000 0.000000 0.000000 0.000009 -0.201733
    22 3.942326 0.046770 -0.431443 -0.084017 0.079812 -0.145074
    23 1.539095 0.000001 0.000000 0.000000 -0.000454 -0.047760
    24 1.196321 -0.000001 0.000000 0.000000 0.000002 -0.160726
    25 3.883690 -0.046773 0.431443 0.087100 -0.134173 0.047342
    26 1.719576 0.000000 0.000000 0.000000 -0.002382 -0.024062
    27 1.209180 0.000000 0.000000 0.000000 0.000004 -0.164954
    28 3.859859 -0.137950 1.332466 0.291913 -0.308556 0.028868
    29 1.719428 0.000000 0.000000 0.000000 0.010821 -0.022461
    30 1.099666 -0.000001 0.000000 0.000000 0.000007 -0.171346
    31 0.806048 -0.348924 1.321258 -1.717808 -0.979055 -0.302657
    32 1.789784 0.000000 -0.000001 0.007532 -0.035338 0.047168
    33 1.206999 0.000000 -0.000001 0.000000 0.000001 0.303713
    34 2.033353 1.000771 -1.937610 -3.683144 1.130218 0.961421
    35 6.028143 0.000001 0.000000 1.584473 0.224598 -0.626178
    36 11.692554 0.000000 0.000001 0.000000 0.000000 -1.449762
    37 11.481699 0.000000 0.000003 -0.968295 -0.467018 0.027862
    38 3.859672 -0.132569 1.193108 0.498203 0.156931 -0.982261
    39 1.312561 0.000001 0.000000 0.000000 -0.456981 -1.112956
    40 0.729364 0.000000 0.000000 0.000000 -0.000010 -0.672062
    41 3.942294 0.050329 0.431043 0.160536 0.000249 -0.910199
    42 1.539095 0.000000 0.000000 0.000000 -0.214757 -1.281153
    43 1.196326 0.000001 0.000000 0.000000 -0.000003 -0.797323
    44 3.883656 -0.050328 -0.431043 -0.084946 -0.177602 -0.644875
    45 1.719576 0.000002 0.000000 0.000000 -0.031656 -1.425518
    46 1.209181 -0.000001 0.000000 -0.003428 0.022229 -0.934718
    47 3.859830 -0.148937 -1.331282 -0.269649 -0.115063 -0.374578
    48 1.719425 0.000000 0.000000 -0.064177 0.108990 -1.117024
    49 1.099666 0.000001 0.000000 -0.069175 0.051206 -1.337365
    50 0.806017 -0.359835 -1.318334 1.282844 0.248619 -0.715183
    51 1.789784 0.000000 0.000000 0.000000 -0.010076 0.141894
    52 1.206998 0.000000 0.000000 0.000300 0.002007 1.187229
    53 11.687500 -0.000003 0.000003 0.000000 0.000000 -0.029498
    54 5.738281 0.000001 0.000001 0.000687 0.000000 0.000000
    55 5.738281 -0.000002 0.000000 0.000080 0.000000 0.000000
    56 1.500000 -0.000001 0.000002 0.000000 0.000000 0.000000
    57 1.499023 -0.000003 0.000003 0.000000 0.000000 0.000000
    58 2.078125 1.478516 -4.996094 0.000000 0.000000 0.000000
    59 5.164063 0.000004 0.000001 0.000000 0.000000 0.000000
    60 11.476563 -0.000001 0.000003 0.000149 0.000000 0.000000
    61 5.558594 0.000000 0.000000 0.000000 0.000000 0.000000
    62 5.558594 -0.000002 0.000000 0.000000 0.000000 0.000000
    63 5.164063 -0.000001 -0.000001 0.000000 0.000000 0.000000
    64 11.476563 0.000000 0.000004 0.001270 0.000000 0.000000
    65 2.078125 1.478516 5.000000 0.000000 0.000000 0.000000
    66 11.687500 -0.000001 0.000001 0.000000 0.000000 -0.029498
  time 11
    0 -2.061005 3.882936 32.531577 1.432059 -0.137772 -0.175544
    1 3.890452 -0.000004 -0.000003 -1.643777 -0.564753 -1.465659
    2 17.848177 0.000000 0.000000 0.000000 0.000000 0.926929
    3 16.525253 0.000000 0.000000 -0.044576 0.280869 -1.222309
    4 6.879454 0.000000 0.000000 -0.007299 -0.001069 -0.584373
    5 -3.890452 0.000004 0.000007 -1.257515 0.433884 -2.014501
    6 17.848173 0.000000 0.000000 0.000000 0.000000 0.493419
    7 16.525257 0.000000 0.000000 0.517759 0.120253 -1.586901
    8 6.878906 0.000000 0.000000 -0.081332 -0.002951 -0.584373
    9 0.425799 3.317783 -2.981901 1.516149 -0.023308 1.536342
    10 4.018331 0.000000 0.000000 -0.021872 0.091994 -0.142554
    11 3.518565 0.000000 0.000000 -0.007520 0.102336 -0.021799
    12 8.942642 0.000000 0.000000 -0.019379 0.104985 0.089087
    13 3.307271 0.000000 0.000000 3.140727 -0.001115 0.504603
    14 3.593712 -0.000001 0.000000 0.289696 -0.122428 0.649219
    15 2.033346 1.000768 1.937660 4.656620 -0.683285 -0.113673
    16 6.028142 0.000001 0.000000 -2.092217 -0.429020 -0.342418
    17 11.692554 0.000000 0.000001 0.000000 0.000000 -1.330644
    18 11.481672 0.000000 -0.000032 2.356918 -0.102005 -0.288375
    19 3.859704 -0.142408 -1.191974 -0.295087 0.297539 -0.189041
    20 1.312564 0.000001 0.000000 0.000000 -0.005400 -0.036491
    21 0.729362 0.000000 0.000000 0.000000 0.000009 -0.197870
    22 3.942326 0.046770 -0.431443 -0.082172 0.080878 -0.132259
    23 1.539095 0.000001 0.000000 0.000000 -0.000514 -0.040580
    24 1.196321 -0.000001 0.000000 0.000000 0.000002 -0.150778
    25 3.883690 -0.046773 0.431443 0.086741 -0.135288 0.060196
    26 1.719576 0.000000 0.000000 0.000000 -0.002741 -0.013353
    27 1.209180 0.000000 0.000000 0.000000 0.000004 -0.155645
    28 3.859859 -0.137950 1.332466 0.289241 -0.312224 0.041728
    29 1.719428 0.000000 0.000000 0.000000 0.012427 -0.011509
    30 1.099666 -0.000001 0.000000 0.000000 0.000007 -0.162980
    31 0.806048 -0.348924 1.321258 -1.729597 -0.984674 -0.292141
    32 1.789784 0.000000 -0.000001 0.007615 -0.035326 0.045087
    33 1.206999 0.000000 -0.000001 0.000000 0.000001 0.303713
    34 2.033353 1.000771 -1.937610 -3.693362 1.127784 0.952177
    35 6.028143 0.000001 0.000000 1.586070 0.218678 -0.616951
    36 11.692554 0.000000 0.000001 0.000000 0.000000 -1.451142
    37 11.481699 0.000000 0.000003 -0.967002 -0.472187 0.020864
    38 3.859672 -0.132569 1.193108 0.498203 0.156931 -0.982261
    39 1.312561 0.000001 0.000000 0.000000 -0.456981 -1.112956
    40 0.729364 0.000000 0.000000 0.000000 -0.000010 -0.672062
    41 3.942294 0.050329 0.431043 0.160536 0.000249 -0.910199
    42 1.539095 0.000000 0.000000 0.000000 -0.214757 -1.281153
    43 1.196326 0.000001 0.000000 0.000000 -0.000003 -0.797323
    44 3.883656 -0.050328 -0.431043 -0.084946 -0.177602 -0.644875
    45 1.719576 0.000002 0.000000 0.000000 -0.031656 -1.425518
    46 1.209181 -0.000001 0.000000 -0.003428 0.022229 -0.934718
    47 3.859830 -0.148937 -1.331282 -0.269649 -0.115063 -0.374578
    48 1.719425 0.000000 0.000000 -0.064177 0.108990 -1.117024
    49 1.099666 0.000001 0.000000 -0.069175 0.051206 -1.337365
    50 0.806017 -0.359835 -1.318334 1.282844 0.248619 -0.715183
    51 1.789784 0.000000 0.000000 0.000000 -0.010076 0.141894
    52 1.206998 0.000000 0.000000 0.000300 0.002007 1.187229
    53 11.687500 -0.000003 0.000003 0.000000 0.000000 -0.029498
    54 5.738281 0.000001 0.000001 0.000687 0.000000 0.000000
    55 5.738281 -0.000002 0.000000 0.000080 0.000000 0.000000
    56 1.500000 -0.000001 0.000002 0.000000 0.000000 0.000000
    57 1.499023 -0.000003 0.000003 0.000000 0.000000 0.000000
    58 2.078125 1.478516 -4.996094 0.000000 0.000000 0.000000
    59 5.164063 0.000004 0.000001 0.000000 0.000000 0.000000
    60 11.476563 -0.000001 0.000003 0.000149 0.000000 0.000000
    61 5.558594 0.000000 0.000000 0.000000 0.000000 0.000000
    62 5.558594 -0.000002 0.000000 0.000000 0.000000 0.000000
    63 5.164063 -0.000001 -0.000001 0.000000 0.000000 0.000000
    64 11.476563 0.000000 0.000004 0.001270 0.000000 0.000000
    65 2.078125 1.478516 5.000000 0.000000 0.000000 0.000000
    66 11.687500 -0.000001 0.000001 0.000000 0.000000 -0.029498
  time 12
    0 -2.061005 3.961063 32.590173 1.432589 -0.137286 -0.176239
    1 3.890452 -0.000004 -0.000003 -1.644311 -0.562419 -1.465070
    2 17.848177 0.000000 0.000000 0.000000 0.000000 0.917162
    3 16.525253 0.000000 0.000000 -0.044601 0.280692 -1.215310
    4 6.879454 0.000000 0.000000 -0.007299 -0.001069 -0.584373
    5 -3.890452 0.000004 0.000007 -1.258191 0.424603 -2.013957
    6 17.848173 0.000000 0.000000 0.000000 0.000000 0.501323
    7 16.525257 0.000000 0.000000 0.515375 0.121801 -1.586949
    8 6.878906 0.000000 0.000000 -0.081332 -0.002951 -0.584373
    9 0.425799 3.321690 -2.981901 1.507800 -0.018971 1.536392
    10 4.018331 0.000000 0.000000 -0.022495 0.092593 -0.141458
    11 3.518565 0.000000 0.000000 -0.008183 0.102816 -0.020502
    12 8.942642 0.000000 0.000000 -0.019283 0.105512 0.090058
    13 3.307271 0.000000 0.000000 3.140248 -0.001618 0.504076
    14 3.593712 -0.000001 0.000000 0.290389 -0.121993 0.666980
    15 2.033346 1.000768 1.937660 4.651640 -0.679240 -0.114248
    16 6.028142 0.000001 0.000000 -2.088680 -0.400563 -0.344287
    17 11.692554 0.000000 0.000001 0.000000 0.000000 -1.323662
    18 11.481672 0.000000 -0.000032 2.354651 -0.101336 -0.287550
    19 3.859704 -0.142408 -1.191974 -0.295891 0.297084 -0.191109
    20 1.312564 0.000001 0.000000 0.000000 -0.005292 -0.037708
    21 0.729362 0.000000 0.000000 0.000000 0.000009 -0.198496
    22 3.942326 0.046770 -0.431443 -0.082459 0.080711 -0.134263
    23 1.539095 0.000001 0.000000 0.000000 -0.000502 -0.041705
    24 1.196321 -0.000001 0.000000 0.000000 0.000002 -0.152360
    25 3.883690 -0.046773 0.431443 0.086801 -0.135108 0.058157
    26 1.719576 0.000000 0.000000 0.000000 -0.002681 -0.015057
    27 1.209180 0.000000 0.000000 0.000000 0.000004 -0.157105
    28 3.859859 -0.137950 1.332466 0.289660 -0.311648 0.039709
    29 1.719428 0.000000 0.000000 0.000000 0.012176 -0.013225
    30 1.099666 -0.000001 0.000000 0.000000 0.000007 -0.164288
    31 0.806048 -0.348924 1.321258 -1.727694 -0.983783 -0.293833
    32 1.789784 0.000000 -0.000001 0.007603 -0.035326 0.045409
    33 1.206999 0.000000 -0.000001 0.000000 0.000001 0.303713
    34 2.033353 1.000771 -1.937610 -3.691720 1.128176 0.953641
    35 6.028143 0.000001 0.000000 1.586957 0.217581 -0.609028
    36 11.692554 0.000000 0.000001 0.000000 0.000000 -1.460655
    37 11.481699 0.000000 0.000003 -0.967194 -0.471390 0.021961
    38 3.859672 -0.132569 1.193108 0.498203 0.156931 -0.982261
    39 1.312561 0.000001 0.000000 0.000000 -0.456981 -1.112956
    40 0.729364 0.000000 0.000000 0.000000 -0.000010 -0.672062
    41 3.942294 0.050329 0.431043 0.160536 0.000249 -0.910199
    42 1.539095 0.000000 0.000000 0.000000 -0.214757 -1.281153
    43 1.196326 0.000001 0.000000 0.000000 -0.000003 -0.797323
    44 3.883656 -0.050328 -0.431043 -0.084946 -0.177602 -0.644875
    45 1.719576 0.000002 0.000000 0.000000 -0.031656 -1.425550
    46 1.209181 -0.000001 0.000000 -0.003428 0.022229 -0.934718
    47 3.859830 -0.148937 -1.331282 -0.269649 -0.115063 -0.374578
    48 1.719425 0.000000 0.000000 -0.064177 0.108990 -1.117024
    49 1.099666 0.000001 0.000000 -0.069175 0.051206 -1.337365
    50 0.806017 -0.359835 -1.318334 1.282844 0.248619 -0.715183
    51 1.789784 0.000000 0.000000 0.000000 -0.010076 0.141894
    52 1.206998 0.000000 0.000000 0.000300 0.002007 1.187229
    53 11.687500 -0.000003 0.000003 0.000000 0.000000 -0.029498
    54 5.738281 0.000001 0.000001 0.000687 0.000000 0.000000
    55 5.738281 -0.000002 0.000000 0.000080 0.000000 0.000000
    56 1.500000 -0.000001 0.000002 0.000000 0.000000 0.000000
    57 1.499023 -0.000003 0.000003 0.000000 0.000000 0.000000
    58 2.078125 1.478516 -4.996094 0.000000 0.000000 0.000000
    59 5.164063 0.000004 0.000001 0.000000 0.000000 0.000000
    60 11.476563 -0.000001 0.000003 0.000149 0.000000 0.000000
    61 5.558594 0.000000 0.000000 0.000000 0.000000 0.000000
    62 5.558594 -0.000002 0.000000 0.000000 0.000000 0.000000
    63 5.164063 -0.000001 -0.000001 0.000000 0.000000 0.000000
    64 11.476563 0.000000 0.000004 0.001270 0.000000 0.000000
    65 2.078125 1.478516 5.000000 0.000000 0.000000 0.000000
    66 11.687500 -0.000001 0.000001 0.000000 0.000000 -0.029498
  time 13
    0 -2.041474 4.043097 32.613611 1.436123 -0.134092 -0.180788
    1 3.890452 -0.000004 -0.000003 -1.648892 -0.565337 -1.459116
    2 17.848177 0.000000 0.000000 0.000000 0.000000 0.913830
    3 16.525253 0.000000 0.000000 -0.044650 0.280197 -1.211621
    4 6.879454 0.000000 0.000000 -0.007299 -0.001069 -0.584373
    5 -3.890452 0.000004 0.000007 -1.261654 0.407684 -2.012792
    6 17.848173 0.000000 0.000000 0.000000 0.000000 0.516812
    7 16.525257 0.000000 0.000000 0.513278 0.123162 -1.590260
    8 6.878906 0.000000 0.000000 -0.081332 -0.002951 -0.584373
    9 0.417987 3.321690 -2.981901 1.499754 -0.012369 1.537287
    10 4.018331 0.000000 0.000000 -0.024461 0.092821 -0.138470
    11 3.518565 0.000000 0.000000 -0.010769 0.102133 -0.016321
    12 8.942642 0.000000 0.000000 -0.017845 0.104937 0.092143
    13 3.307271 0.000000 0.000000 3.139864 -0.002133 0.500728
    14 3.593712 -0.000001 0.000000 0.294661 -0.119178 0.681298
    15 2.033346 1.000768 1.937660 4.646373 -0.681557 -0.114919
    16 6.028142 0.000001 0.000000 -2.081321 -0.369560 -0.339148
    17 11.692554 0.000000 0.000001 0.000000 0.000000 -1.322536
    18 11.481672 0.000000 -0.000032 2.340383 -0.097026 -0.282456
    19 3.859704 -0.142408 -1.191974 -0.300936 0.294112 -0.204132
    20 1.312564 0.000001 0.000000 0.000000 -0.004597 -0.045436
    21 0.729362 0.000000 0.000000 0.000000 0.000009 -0.202360
    22 3.942326 0.046770 -0.431443 -0.084317 0.079644 -0.147103
    23 1.539095 0.000001 0.000000 0.000000 -0.000442 -0.048916
    24 1.196321 -0.000001 0.000000 0.000000 0.000002 -0.162308
    25 3.883690 -0.046773 0.431443 0.087160 -0.134006 0.045329
    26 1.719576 0.000000 0.000000 0.000000 -0.002322 -0.025766
    27 1.209180 0.000000 0.000000 0.000000 0.000004 -0.166414
    28 3.859859 -0.137950 1.332466 0.292333 -0.307969 0.026848
    29 1.719428 0.000000 0.000000 0.000000 0.010570 -0.024177
    30 1.099666 -0.000001 0.000000 0.000000 0.000007 -0.172685
    31 0.806048 -0.348924 1.321258 -1.715978 -0.978163 -0.304348
    32 1.789784 0.000000 -0.000001 0.007520 -0.035338 0.047491
    33 1.206999 0.000000 -0.000001 0.000000 0.000001 0.303713
    34 2.033353 1.000771 -1.937610 -3.681593 1.130611 0.962977
    35 6.028143 0.000001 0.000000 1.587400 0.219872 -0.602411
    36 11.692554 0.000000 0.000001 0.000000 0.000000 -1.475905
    37 11.481699 0.000000 0.000003 -0.968487 -0.466195 0.028960
    38 3.859672 -0.132569 1.193108 0.498203 0.156931 -0.982261
    39 1.312561 0.000001 0.000000 0.000000 -0.456981 -1.112956
    40 0.729364 0.000000 0.000000 0.000000 -0.000010 -0.672062
    41 3.942294 0.050329 0.431043 0.160536 0.000249 -0.910199
    42 1.539095 0.000000 0.000000 0.000000 -0.214757 -1.281153
    43 1.196326 0.000001 0.000000 0.000000 -0.000003 -0.797323
    44 3.883656 -0.050328 -0.431043 -0.084946 -0.177602 -0.644875
    45 1.719576 0.000002 0.000000 0.000000 -0.031656 -1.425518
    46 1.209181 -0.000001 0.000000 -0.003428 0.022229 -0.934718
    47 3.859830 -0.148937 -1.331282 -0.269649 -0.115063 -0.374578
    48 1.719425 0.000000 0.000000 -0.064177 0.108990 -1.117024
    49 1.099666 0.000001 0.000000 -0.069175 0.051206 -1.337365
    50 0.806017 -0.359835 -1.318334 1.282844 0.248619 -0.715183
    51 1.789784 0.000000 0.000000 0.000000 -0.010076 0.141894
    52 1.206998 0.000000 0.000000 0.000300 0.002007 1.187229
    53 11.687500 -0.000003 0.000003 0.000000 0.000000 -0.029498
    54 5.738281 0.000001 0.000001 0.000687 0.000000 0.000000
    55 5.738281 -0.000002 0.000000 0.000080 0.000000 0.000000
    56 1.500000 -0.000001 0.000002 0.000000 0.000000 0.000000
    57 1.499023 -0.000003 0.000003 0.000000 0.000000 0.000000
    58 2.078125 1.478516 -4.996094 0.000000 0.000000 0.000000
    59 5.164063 0.000004 0.000001 0.000000 0.000000 0.000000
    60 11.476563 -0.000001 0.000003 0.000149 0.000000 0.000000
    61 5.558594 0.000000 0.000000 0.000000 0.000000 0.000000
    62 5.558594 -0.000002 0.000000 0.000000 0.000000 0.000000
    63 5.164063 -0.000001 -0.000001 0.000000 0.000000 0.000000
    64 11.476563 0.000000 0.000004 0.001270 0.000000 0.000000
    65 2.078125 1.478516 5.000000 0.000000 0.000000 0.000000
    66 11.687500 -0.000001 0.000001 0.000000 0.000000 -0.029498
  time 14
    0 -2.014129 4.121225 32.609704 1.441422 -0.129256 -0.187610
    1 3.890452 -0.000004 -0.000003 -1.656144 -0.571621 -1.449759
    2 17.848177 0.000000 0.000000 0.000000 0.000000 0.915193
    3 16.525253 0.000000 0.000000 -0.044699 0.279507 -1.210392
    4 6.879454 0.000000 0.000000 -0.007299 -0.001069 -0.584373
    5 -3.890452 0.000004 0.000007 -1.266806 0.386634 -2.011316
    6 17.848173 0.000000 0.000000 0.000000 0.000000 0.536053
    7 16.525257 0.000000 0.000000 0.511510 0.124318 -1.595274
    8 6.878906 0.000000 0.000000 -0.081332 -0.002951 -0.584373
    9 0.410174 3.321690 -2.981901 1.492266 -0.004611 1.538778
    10 4.018331 0.000000 0.000000 -0.027253 0.092797 -0.134336
    11 3.518565 0.000000 0.000000 -0.014536 0.100683 -0.010363
    12 8.942642 0.000000 0.000000 -0.015544 0.103631 0.094900
    13 3.307271 0.000000 0.000000 3.139385 -0.002637 0.495667
    14 3.593712 -0.000001 0.000000 0.301164 -0.114902 0.692430
    15 2.033346 1.000768 1.937660 4.641201 -0.688114 -0.115685
    16 6.028142 0.000001 0.000000 -2.071858 -0.338329 -0.329337
    17 11.692554 0.000000 0.000001 0.000000 0.000000 -1.325914
    18 11.481672 0.000000 -0.000032 2.318760 -0.090448 -0.274707
    19 3.859704 -0.142408 -1.191974 -0.308540 0.289462 -0.223976
    20 1.312564 0.000001 0.000000 0.000000 -0.003518 -0.057211
    21 0.729362 0.000000 0.000000 0.000000 0.000009 -0.208242
    22 3.942326 0.046770 -0.431443 -0.087109 0.077966 -0.166647
    23 1.539095 0.000001 0.000000 0.000000 -0.000334 -0.059868
    24 1.196321 -0.000001 0.000000 0.000000 0.000002 -0.177490
    25 3.883690 -0.046773 0.431443 0.087676 -0.132304 0.025712
    26 1.719576 0.000000 0.000000 0.000000 -0.001783 -0.042103
    27 1.209180 0.000000 0.000000 0.000000 0.000004 -0.180653
    28 3.859859 -0.137950 1.332466 0.296300 -0.302312 0.007265
    29 1.719428 0.000000 0.000000 0.000000 0.008113 -0.040898
    30 1.099666 -0.000001 0.000000 0.000000 0.000007 -0.185463
    31 0.806048 -0.348924 1.321258 -1.698404 -0.969433 -0.320011
    32 1.789784 0.000000 -0.000001 0.007412 -0.035350 0.050663
    33 1.206999 0.000000 -0.000001 0.000000 0.000001 0.303713
    34 2.033353 1.000771 -1.937610 -3.665810 1.134223 0.977347
    35 6.028143 0.000001 0.000000 1.587400 0.224407 -0.596819
    36 11.692554 0.000000 0.000001 0.000000 0.000000 -1.494204
    37 11.481699 0.000000 0.000003 -0.970259 -0.458248 0.039582
    38 3.859672 -0.132569 1.193108 0.498203 0.156931 -0.982261
    39 1.312561 0.000001 0.000000 0.000000 -0.456981 -1.112956
    40 0.729364 0.000000 0.000000 0.000000 -0.000010 -0.672062
    41 3.942294 0.050329 0.431043 0.160536 0.000249 -0.910199
    42 1.539095 0.000000 0.000000 0.000000 -0.214757 -1.281153
    43 1.196326 0.000001 0.000000 0.000000 -0.000003 -0.797323
    44 3.883656 -0.050328 -0.431043 -0.084946 -0.177602 -0.644875
    45 1.719576 0.000002 0.000000 0.000000 -0.031656 -1.425518
    46 1.209181 -0.000001 0.000000 -0.003428 0.022229 -0.934718
    47 3.859830 -0.148937 -1.331282 -0.269649 -0.115063 -0.374578
    48 1.719425 0.000000 0.000000 -0.064177 0.108990 -1.117024
    49 1.099666 0.000001 0.000000 -0.069175 0.051206 -1.337365
    50 0.806017 -0.359835 -1.318334 1.282844 0.248619 -0.715183
    51 1.789784 0.000000 0.000000 0.000000 -0.010076 0.141894
    52 1.206998 0.000000 0.000000 0.000300 0.002007 1.187229
    53 11.687500 -0.000003 0.000003 0.000000 0.000000 -0.029498
    54 5.738281 0.000001 0.000001 0.000687 0.000000 0.000000
    55 5.738281 -0.000002 0.000000 0.000080 0.000000 0.000000
    56 1.500000 -0.000001 0.000002 0.000000 0.000000 0.000000
    57 1.499023 -0.000003 0.000003 0.000000 0.000000 0.000000
    58 2.078125 1.478516 -4.996094 0.000000 0.000000 0.000000
    59 5.164063 0.000004 0.000001 0.000000 0.000000 0.000000
    60 11.476563 -0.000001 0.000003 0.000149 0.000000 0.000000
    61 5.558594 0.000000 0.000000 0.000000 0.000000 0.000000
    62 5.558594 -0.000002 0.000000 0.000000 0.000000 0.000000
    63 5.164063 -0.000001 -0.000001 0.000000 0.000000 0.000000
    64 11.476563 0.000000 0.000004 0.001270 0.000000 0.000000
    65 2.078125 1.478516 5.000000 0.000000 0.000000 0.000000
    66 11.687500 -0.000001 0.000001 0.000000 0.000000 -0.029498
  time 15
    0 -1.982878 4.191539 32.586266 1.447429 -0.123721 -0.195380
    1 3.890452 -0.000004 -0.000003 -1.664618 -0.579521 -1.438832
    2 17.848177 0.000000 0.000000 0.000000 0.000000 0.919357
    3 16.525253 0.000000 0.000000 -0.044772 0.278764 -1.210865
    4 6.879454 0.000000 0.000000 -0.007299 -0.001069 -0.584373
    5 -3.890452 0.000004 0.000007 -1.272381 0.364919 -2.009373
    6 17.848173 0.000000 0.000000 0.000000 0.000000 0.555693
    7 16.525257 0.000000 0.000000 0.510071 0.125251 -1.600761
    8 6.878906 0.000000 0.000000 -0.081332 -0.002951 -0.584373
    9 0.398455 3.321690 -2.981901 1.485789 0.003277 1.540518
    10 4.018331 0.000000 0.000000 -0.030333 0.092617 -0.129803
    11 3.518565 0.000000 0.000000 -0.018740 0.098873 -0.003779
    12 8.942642 0.000000 0.000000 -0.012883 0.101965 0.097836
    13 3.307271 0.000000 0.000000 3.139002 -0.003080 0.489867
    14 3.593712 -0.000001 0.000000 0.308591 -0.110035 0.700667
    15 2.033346 1.000768 1.937660 4.636509 -0.696830 -0.116356
    16 6.028142 0.000001 0.000000 -2.062013 -0.309372 -0.317283
    17 11.692554 0.000000 0.000001 0.000000 0.000000 -1.332145
    18 11.481672 0.000000 -0.000032 2.294262 -0.082867 -0.265883
    19 3.859704 -0.142408 -1.191974 -0.317036 0.283997 -0.246479
    20 1.312564 0.000001 0.000000 0.000000 -0.002308 -0.070628
    21 0.729362 0.000000 0.000000 0.000000 0.000009 -0.214959
    22 3.942326 0.046770 -0.431443 -0.090261 0.076001 -0.188913
    23 1.539095 0.000001 0.000000 0.000000 -0.000214 -0.072373
    24 1.196321 -0.000001 0.000000 0.000000 0.000002 -0.194771
    25 3.883690 -0.046773 0.431443 0.088227 -0.130350 0.003412
    26 1.719576 0.000000 0.000000 0.000000 -0.001171 -0.060723
    27 1.209180 0.000000 0.000000 0.000000 0.000004 -0.196868
    28 3.859859 -0.137950 1.332466 0.300662 -0.295781 -0.014949
    29 1.719428 0.000000 0.000000 0.000000 0.005320 -0.059918
    30 1.099666 -0.000001 0.000000 0.000000 0.000007 -0.200005
    31 0.806048 -0.348924 1.321258 -1.679073 -0.959334 -0.337365
    32 1.789784 0.000000 -0.000001 0.007280 -0.035362 0.054256
    33 1.206999 0.000000 -0.000001 0.000000 0.000001 0.303713
    34 2.033353 1.000771 -1.937610 -3.647655 1.138188 0.994096
    35 6.028143 0.000001 0.000000 1.586957 0.229992 -0.592438
    36 11.692554 0.000000 0.000001 0.000000 0.000000 -1.512794
    37 11.481699 0.000000 0.000003 -0.972079 -0.449145 0.051521
    38 3.859672 -0.132569 1.193108 0.498203 0.156931 -0.982261
    39 1.312561 0.000001 0.000000 0.000000 -0.456981 -1.112956
    40 0.729364 0.000000 0.000000 0.000000 -0.000010 -0.672062
    41 3.942294 0.050329 0.431043 0.160536 0.000249 -0.910199
    42 1.539095 0.000000 0.000000 0.000000 -0.214757 -1.281153
    43 1.196326 0.000001 0.000000 0.000000 -0.000003 -0.797323
    44 3.883656 -0.050328 -0.431043 -0.084946 -0.177602 -0.644875
    45 1.719576 0.000002 0.000000 0.000000 -0.031656 -1.425518
    46 1.209181 -0.000001 0.000000 -0.003428 0.022229 -0.934718
    47 3.859830 -0.148937 -1.331282 -0.269649 -0.115063 -0.374578
    48 1.719425 0.000000 0.000000 -0.064177 0.108990 -1.117024
    49 1.099666 0.000001 0.000000 -0.069175 0.051206 -1.337365
    50 0.806017 -0.359835 -1.318334 1.282844 0.248619 -0.715183
    51 1.789784 0.000000 0.000000 0.000000 -0.010076 0.141894
    52 1.206998 0.000000 0.000000 0.000300 0.002007 1.187229
    53 11.687500 -0.000003 0.000003 0.000000 0.000000 -0.029498
    54 5.738281 0.000001 0.000001 0.000687 0.000000 0.000000
    55 5.738281 -0.000002 0.000000 0.000080 0.000000 0.000000
    56 1.500000 -0.000001 0.000002 0.000000 0.000000 0.000000
    57 1.499023 -0.000003 0.000003 0.000000 0.000000 0.000000
    58 2.078125 1.478516 -4.996094 0.000000 0.000000 0.000000
    59 5.164063 0.000004 0.000001 0.000000 0.000000 0.000000
    60 11.476563 -0.000001 0.000003 0.000149 0.000000 0.000000
    61 5.558594 0.000000 0.000000 0.000000 0.000000 0.000000
    62 5.558594 -0.000002 0.000000 0.000000 0.000000 0.000000
    63 5.164063 -0.000001 -0.000001 0.000000 0.000000 0.000000
    64 11.476563 0.000000 0.000004 0.001270 0.000000 0.000000
    65 2.078125 1.478516 5.000000 0.000000 0.000000 0.000000
    66 11.687500 -0.000001 0.000001 0.000000 0.000000 -0.029498
  time 16
    0 -1.951627 4.250135 32.562828 1.453082 -0.118521 -0.202645
    1 3.890452 -0.000004 -0.000003 -1.672786 -0.587241 -1.428363
    2 17.848177 0.000000 0.000000 0.000000 0.000000 0.924506
    3 16.525253 0.000000 0.000000 -0.044821 0.278109 -1.212141
    4 6.879454 0.000000 0.000000 -0.007299 -0.001069 -0.584373
    5 -3.890452 0.000004 0.000007 -1.277280 0.345690 -2.007120
    6 17.848173 0.000000 0.000000 0.000000 0.000000 0.572859
    7 16.525257 0.000000 0.000000 0.509023 0.125941 -1.605633
    8 6.878906 0.000000 0.000000 -0.081332 -0.002951 -0.584373
    9 0.386736 3.325596 -2.981901 1.480678 0.010232 1.542159
    10 4.018331 0.000000 0.000000 -0.033185 0.092353 -0.125653
    11 3.518565 0.000000 0.000000 -0.022652 0.097087 0.002325
    12 8.942642 0.000000 0.000000 -0.010367 0.100311 0.100508
    13 3.307271 0.000000 0.000000 3.138714 -0.003440 0.484463
    14 3.593712 -0.000001 0.000000 0.315557 -0.105463 0.706266
    15 2.033346 1.000768 1.937660 4.632678 -0.705625 -0.116931
    16 6.028142 0.000001 0.000000 -2.053220 -0.285278 -0.305603
    17 11.692554 0.000000 0.000001 0.000000 0.000000 -1.339202
    18 11.481672 0.000000 -0.000032 2.271311 -0.075732 -0.257668
    19 3.859704 -0.142408 -1.191974 -0.324859 0.278699 -0.267531
    20 1.312564 0.000001 0.000000 0.000000 -0.001169 -0.083225
    21 0.729362 0.000000 0.000000 0.000000 0.000009 -0.221259
    22 3.942326 0.046770 -0.431443 -0.093174 0.074083 -0.209793
    23 1.539095 0.000001 0.000000 0.000000 -0.000106 -0.084116
    24 1.196321 -0.000001 0.000000 0.000000 0.000002 -0.211018
    25 3.883690 -0.046773 0.431443 0.088694 -0.128505 -0.017521
    26 1.719576 0.000000 0.000000 0.000000 -0.000596 -0.078186
    27 1.209180 0.000000 0.000000 0.000000 0.000004 -0.212080
    28 3.859859 -0.137950 1.332466 0.304617 -0.289561 -0.035755
    29 1.719428 0.000000 0.000000 0.000000 0.002708 -0.077771
    30 1.099666 -0.000001 0.000000 0.000000 0.000007 -0.213665
    31 0.806048 -0.348924 1.321258 -1.661499 -0.949650 -0.353101
    32 1.789784 0.000000 -0.000001 0.007160 -0.035374 0.057651
    33 1.206999 0.000000 -0.000001 0.000000 0.000001 0.303713
    34 2.033353 1.000771 -1.937610 -3.630230 1.141839 1.010113
    35 6.028143 0.000001 0.000000 1.586247 0.235434 -0.589083
    36 11.692554 0.000000 0.000001 0.000000 0.000000 -1.529206
    37 11.481699 0.000000 0.000003 -0.973563 -0.440529 0.062664
    38 3.859672 -0.132569 1.193108 0.498203 0.156931 -0.982261
    39 1.312561 0.000001 0.000000 0.000000 -0.456981 -1.112956
    40 0.729364 0.000000 0.000000 0.000000 -0.000010 -0.672062
    41 3.942294 0.050329 0.431043 0.160536 0.000249 -0.910199
    42 1.539095 0.000000 0.000000 0.000000 -0.214757 -1.281153
    43 1.196326 0.000001 0.000000 0.000000 -0.000003 -0.797323
    44 3.883656 -0.050328 -0.431043 -0.084946 -0.177602 -0.644875
    45 1.719576 0.000002 0.000000 0.000000 -0.031656 -1.425518
    46 1.209181 -0.000001 0.000000 -0.003428 0.022229 -0.934718
    47 3.859830 -0.148937 -1.331282 -0.269649 -0.115063 -0.374578
    48 1.719425 0.000000 0.000000 -0.064177 0.108990 -1.117024
    49 1.099666 0.000001 0.000000 -0.069175 0.051206 -1.337365
    50 0.806017 -0.359835 -1.318334 1.282844 0.248619 -0.715183
    51 1.789784 0.000000 0.000000 0.000000 -0.010076 0.141894
    52 1.206998 0.000000 0.000000 0.000300 0.002007 1.187229
    53 11.687500 -0.000003 0.000003 0.000000 0.000000 -0.029498
    54 5.738281 0.000001 0.000001 0.000687 0.000000 0.000000
    55 5.738281 -0.000002 0.000000 0.000080 0.000000 0.000000
    56 1.500000 -0.000001 0.000002 0.000000 0.000000 0.000000
    57 1.499023 -0.000003 0.000003 0.000000 0.000000 0.000000
    58 2.078125 1.478516 -4.996094 0.000000 0.000000 0.000000
    59 5.164063 0.000004 0.000001 0.000000 0.000000 0.000000
    60 11.476563 -0.000001 0.000003 0.000149 0.000000 0.000000
    61 5.558594 0.000000 0.000000 0.000000 0.000000 0.000000
    62 5.558594 -0.000002 0.000000 0.000000 0.000000 0.000000
    63 5.164063 -0.000001 -0.000001 0.000000 0.000000 0.000000
    64 11.476563 0.000000 0.000004 0.001270 0.000000 0.000000
    65 2.078125 1.478516 5.000000 0.000000 0.000000 0.000000
    66 11.687500 -0.000001 0.000001 0.000000 0.000000 -0.029498
  time 17
    0 -1.932095 4.289198 32.539390 1.457204 -0.114658 -0.208014
    1 3.890452 -0.000004 -0.000003 -1.678893 -0.593121 -1.420511
    2 17.848177 0.000000 0.000000 0.000000 0.000000 0.928897
    3 16.525253 0.000000 0.000000 -0.044870 0.277632 -1.213466
    4 6.879454 0.000000 0.000000 -0.007299 -0.001069 -0.584373
    5 -3.890452 0.000004 0.000007 -1.281165 0.331924 -2.005722
    6 17.848173 0.000000 0.000000 0.000000 0.000000 0.584835
    7 16.525257 0.000000 0.000000 0.508386 0.126351 -1.609086
    8 6.878906 0.000000 0.000000 -0.081332 -0.002951 -0.584373
    9 0.382829 3.325596 -2.981901 1.477339 0.015180 1.543402
    10 4.018331 0.000000 0.000000 -0.035283 0.092138 -0.122598
    11 3.518565 0.000000 0.000000 -0.025544 0.095733 0.006812
    12 8.942642 0.000000 0.000000 -0.008485 0.099053 0.102450
    13 3.307271 0.000000 0.000000 3.138522 -0.003667 0.480430
    14 3.593712 -0.000001 0.000000 0.320713 -0.102089 0.709451
    15 2.033346 1.000768 1.937660 4.630093 -0.712457 -0.117410
    16 6.028142 0.000001 0.000000 -2.046911 -0.268777 -0.296727
    17 11.692554 0.000000 0.000001 0.000000 0.000000 -1.344982
    18 11.481672 0.000000 -0.000032 2.254444 -0.070419 -0.251570
    19 3.859704 -0.142408 -1.191974 -0.330547 0.274661 -0.283105
    20 1.312564 0.000001 0.000000 0.000000 -0.000330 -0.092565
    21 0.729362 0.000000 0.000000 0.000000 0.000009 -0.225957
    22 3.942326 0.046770 -0.431443 -0.095307 0.072633 -0.225305
    23 1.539095 0.000001 0.000000 0.000000 -0.000022 -0.092818
    24 1.196321 -0.000001 0.000000 0.000000 0.000002 -0.223066
    25 3.883690 -0.046773 0.431443 0.089030 -0.127138 -0.033059
    26 1.719576 0.000000 0.000000 0.000000 -0.000165 -0.091146
    27 1.209180 0.000000 0.000000 0.000000 0.000004 -0.223336
    28 3.859859 -0.137950 1.332466 0.307457 -0.284899 -0.051167
    29 1.719428 0.000000 0.000000 0.000000 0.000766 -0.091060
    30 1.099666 -0.000001 0.000000 0.000000 0.000007 -0.223826
    31 0.806048 -0.348924 1.321258 -1.648832 -0.942350 -0.364499
    32 1.789784 0.000000 -0.000001 0.007076 -0.035374 0.060154
    33 1.206999 0.000000 -0.000001 0.000000 0.000001 0.303713
    34 2.033353 1.000771 -1.937610 -3.617184 1.144470 1.022194
    35 6.028143 0.000001 0.000000 1.585626 0.239634 -0.587032
    36 11.692554 0.000000 0.000001 0.000000 0.000000 -1.540897
    37 11.481699 0.000000 0.000003 -0.974521 -0.434126 0.070871
    38 3.859672 -0.132569 1.193108 0.498203 0.156931 -0.982261
    39 1.312561 0.000001 0.000000 0.000000 -0.456981 -1.112956
    40 0.729364 0.000000 0.000000 0.000000 -0.000010 -0.672062
    41 3.942294 0.050329 0.431043 0.160536 0.000249 -0.910199
    42 1.539095 0.000000 0.000000 0.000000 -0.214757 -1.281153
    43 1.196326 0.000001 0.000000 0.000000 -0.000003 -0.797323
    44 3.883656 -0.050328 -0.431043 -0.084946 -0.177602 -0.644875
    45 1.719576 0.000002 0.000000 0.000000 -0.031656 -1.425518
    46 1.209181 -0.000001 0.000000 -0.003428 0.022229 -0.934718
    47 3.859830 -0.148937 -1.331282 -0.269649 -0.115063 -0.374578
    48 1.719425 0.000000 0.000000 -0.064177 0.108990 -1.117024
    49 1.099666 0.000001 0.000000 -0.069175 0.051206 -1.337365
    50 0.806017 -0.359835 -1.318334 1.282844 0.248619 -0.715183
    51 1.789784 0.000000 0.000000 0.000000 -0.010076 0.141894
    52 1.206998 0.000000 0.000000 0.000300 0.002007 1.187229
    53 11.687500 -0.000003 0.000003 0.000000 0.000000 -0.029498
    54 5.738281 0.000001 0.000001 0.000687 0.000000 0.000000
    55 5.738281 -0.000002 0.000000 0.000080 0.000000 0.000000
    56 1.500000 -0.000001 0.000002 0.000000 0.000000 0.000000
    57 1.499023 -0.000003 0.000003 0.000000 0.000000 0.000000
    58 2.078125 1.478516 -4.996094 0.000000 0.000000 0.000000
    59 5.164063 0.000004 0.000001 0.000000 0.000000 0.000000
    60 11.476563 -0.000001 0.000003 0.000149 0.000000 0.000000
    61 5.558594 0.000000 0.000000 0.000000 0.000000 0.000000
    62 5.558594 -0.000002 0.000000 0.000000 0.000000 0.000000
    63 5.164063 -0.000001 -0.000001 0.000000 0.000000 0.000000
    64 11.476563 0.000000 0.000004 0.001270 0.000000 0.000000
    65 2.078125 1.478516 5.000000 0.000000 0.000000 0.000000
    66 11.687500 -0.000001 0.000001 0.000000 0.000000 -0.029498
  time 18
    0 -1.924282 4.300917 32.527671 1.458853 -0.113168 -0.210099
    1 3.890452 -0.000004 -0.000003 -1.681336 -0.595410 -1.417436
    2 17.848177 0.000000 0.000000 0.000000 0.000000 0.930790
    3 16.525253 0.000000 0.000000 -0.044895 0.277437 -1.214080
    4 6.879454 0.000000 0.000000 -0.007299 -0.001069 -0.584373
    5 -3.890452 0.000004 0.000007 -1.282686 0.326684 -2.004945
    6 17.848173 0.000000 0.000000 0.000000 0.000000 0.589465
    7 16.525257 0.000000 0.000000 0.508160 0.126500 -1.610411
    8 6.878906 0.000000 0.000000 -0.081332 -0.002951 -0.584373
    9 0.378923 3.325596 -2.981901 1.476124 0.017059 1.543849
    10 4.018331 0.000000 0.000000 -0.036098 0.092042 -0.121419
    11 3.518565 0.000000 0.000000 -0.026671 0.095194 0.008560
    12 8.942642 0.000000 0.000000 -0.007754 0.098549 0.103205
    13 3.307271 0.000000 0.000000 3.138426 -0.003763 0.478849
    14 3.593712 -0.000001 0.000000 0.322753 -0.100751 0.710448
    15 2.033346 1.000768 1.937660 4.629231 -0.715166 -0.117505
    16 6.028142 0.000001 0.000000 -2.044426 -0.262685 -0.293176
    17 11.692554 0.000000 0.000001 0.000000 0.000000 -1.347385
    18 11.481672 0.000000 -0.000032 2.247808 -0.068338 -0.249167
    19 3.859704 -0.142408 -1.191974 -0.332755 0.273055 -0.289201
    20 1.312564 0.000001 0.000000 0.000000 0.000005 -0.096216
    21 0.729362 0.000000 0.000000 0.000000 0.000009 -0.227767
    22 3.942326 0.046770 -0.431443 -0.096134 0.072058 -0.231366
    23 1.539095 0.000001 0.000000 0.000000 0.000002 -0.096225
    24 1.196321 -0.000001 0.000000 0.000000 0.000002 -0.227781
    25 3.883690 -0.046773 0.431443 0.089150 -0.126599 -0.039125
    26 1.719576 0.000000 0.000000 0.000000 0.000003 -0.096227
    27 1.209180 0.000000 0.000000 0.000000 0.000004 -0.227748
    28 3.859859 -0.137950 1.332466 0.308536 -0.283065 -0.057172
    29 1.719428 0.000000 0.000000 0.000000 0.000011 -0.096244
    30 1.099666 -0.000001 0.000000 0.000000 0.000007 -0.227781
    31 0.806048 -0.348924 1.321258 -1.643926 -0.939468 -0.368838
    32 1.789784 0.000000 -0.000001 0.007040 -0.035386 0.061145
    33 1.206999 0.000000 -0.000001 0.000000 0.000001 0.303713
    34 2.033353 1.000771 -1.937610 -3.612075 1.145452 1.026953
    35 6.028143 0.000001 0.000000 1.585271 0.241305 -0.586380
    36 11.692554 0.000000 0.000001 0.000000 0.000000 -1.545327
    37 11.481699 0.000000 0.000003 -0.974856 -0.431605 0.074082
    38 3.859672 -0.132569 1.193108 0.498203 0.156931 -0.982261
    39 1.312561 0.000001 0.000000 0.000000 -0.456981 -1.112956
    40 0.729364 0.000000 0.000000 0.000000 -0.000010 -0.672062
    41 3.942294 0.050329 0.431043 0.160536 0.000249 -0.910199
    42 1.539095 0.000000 0.000000 0.000000 -0.214757 -1.281153
    43 1.196326 0.000001 0.000000 0.000000 -0.000003 -0.797323
    44 3.883656 -0.050328 -0.431043 -0.084946 -0.177602 -0.644875
    45 1.719576 0.000002 0.000000 0.000000 -0.031656 -1.425518
    46 1.209181 -0.000001 0.000000 -0.003428 0.022229 -0.934718
    47 3.859830 -0.148937 -1.331282 -0.269649 -0.115063 -0.374578
    48 1.719425 0.000000 0.000000 -0.064177 0.108990 -1.117024
    49 1.099666 0.000001 0.000000 -0.069175 0.051206 -1.337365
    50 0.806017 -0.359835 -1.318334 1.282844 0.248619 -0.715183
    51 1.789784 0.000000 0.000000 0.000000 -0.010076 0.141894
    52 1.206998 0.000000 0.000000 0.000300 0.002007 1.187229
    53 11.687500 -0.000003 0.000003 0.000000 0.000000 -0.029498
    54 5.738281 0.000001 0.000001 0.000687 0.000000 0.000000
    55 5.738281 -0.000002 0.000000 0.000080 0.000000 0.000000
    56 1.500000 -0.000001 0.000002 0.000000 0.000000 0.000000
    57 1.499023 -0.000003 0.000003 0.000000 0.000000 0.000000
    58 2.078125 1.478516 -4.996094 0.000000 0.000000 0.000000
    59 5.164063 0.000004 0.000001 0.000000 0.000000 0.000000
    60 11.476563 -0.000001 0.000003 0.000149 0.000000 0.000000
    61 5.558594 0.000000 0.000000 0.000000 0.000000 0.000000
    62 5.558594 -0.000002 0.000000 0.000000 0.000000 0.000000
    63 5.164063 -0.000001 -0.000001 0.000000 0.000000 0.000000
    64 11.476563 0.000000 0.000004 0.001270 0.000000 0.000000
    65 2.078125 1.478516 5.000000 0.000000 0.000000 0.000000
    66 11.687500 -0.000001 0.000001 0.000000 0.000000 -0.029498
end
