version 1
nodes
0 "ValveBiped.fassassin" -1
1 "ValveBiped.Bip01" -1
2 "ValveBiped.Bip01_Pelvis" 1
3 "ValveBiped.Bip01_L_Thigh" 2
4 "ValveBiped.Bip01_L_Calf" 3
5 "ValveBiped.Bip01_L_Foot" 4
6 "ValveBiped.Bip01_L_Toe0" 5
7 "ValveBiped.Bip01_R_Thigh" 2
8 "ValveBiped.Bip01_R_Calf" 7
9 "ValveBiped.Bip01_R_Foot" 8
10 "ValveBiped.Bip01_R_Toe0" 9
11 "ValveBiped.Bip01_Spine" 1
12 "ValveBiped.Bip01_Spine1" 11
13 "ValveBiped.Bip01_Spine2" 12
14 "ValveBiped.Bip01_Spine4" 13
15 "ValveBiped.Bip01_Neck1" 14
16 "ValveBiped.Bip01_Head1" 15
17 "ValveBiped.Bip01_L_Clavicle" 14
18 "ValveBiped.Bip01_L_UpperArm" 17
19 "ValveBiped.Bip01_L_Forearm" 18
20 "ValveBiped.Bip01_L_Hand" 19
21 "ValveBiped.Bip01_L_Finger4" 20
22 "ValveBiped.Bip01_L_Finger41" 21
23 "ValveBiped.Bip01_L_Finger42" 22
24 "ValveBiped.Bip01_L_Finger3" 20
25 "ValveBiped.Bip01_L_Finger31" 24
26 "ValveBiped.Bip01_L_Finger32" 25
27 "ValveBiped.Bip01_L_Finger2" 20
28 "ValveBiped.Bip01_L_Finger21" 27
29 "ValveBiped.Bip01_L_Finger22" 28
30 "ValveBiped.Bip01_L_Finger1" 20
31 "ValveBiped.Bip01_L_Finger11" 30
32 "ValveBiped.Bip01_L_Finger12" 31
33 "ValveBiped.Bip01_L_Finger0" 20
34 "ValveBiped.Bip01_L_Finger01" 33
35 "ValveBiped.Bip01_L_Finger02" 34
36 "ValveBiped.Bip01_R_Clavicle" 14
37 "ValveBiped.Bip01_R_UpperArm" 36
38 "ValveBiped.Bip01_R_Forearm" 37
39 "ValveBiped.Bip01_R_Hand" 38
40 "ValveBiped.Bip01_R_Finger4" 39
41 "ValveBiped.Bip01_R_Finger41" 40
42 "ValveBiped.Bip01_R_Finger42" 41
43 "ValveBiped.Bip01_R_Finger3" 39
44 "ValveBiped.Bip01_R_Finger31" 43
45 "ValveBiped.Bip01_R_Finger32" 44
46 "ValveBiped.Bip01_R_Finger2" 39
47 "ValveBiped.Bip01_R_Finger21" 46
48 "ValveBiped.Bip01_R_Finger22" 47
49 "ValveBiped.Bip01_R_Finger1" 39
50 "ValveBiped.Bip01_R_Finger11" 49
51 "ValveBiped.Bip01_R_Finger12" 50
52 "ValveBiped.Bip01_R_Finger0" 39
53 "ValveBiped.Bip01_R_Finger01" 52
54 "ValveBiped.Bip01_R_Finger02" 53
end
skeleton
time 0
0 0.000000 0.000000 0.000000 1.570796 0.000000 0.000000
1 -3.487779 -4.963513 40.296005 1.579018 -0.017831 -0.432042
2 0.000000 0.000000 0.000000 0.000000 0.000000 0.000000
3 3.984023 0.000006 0.000007 -2.019373 -0.267206 -1.490476
4 19.319885 0.000000 0.000000 0.000000 0.000000 0.145494
5 16.701586 0.000000 0.000000 -9.455255 -3.097530 9.070214
6 6.534990 0.000000 0.000000 6.277784 -0.004872 -1.089338
7 -3.984013 0.000006 0.000007 -1.554699 0.153514 -1.676767
8 19.319885 0.000000 0.000000 0.000000 0.000000 0.198013
9 16.701586 0.000000 0.000000 0.176053 -0.012977 -0.837803
10 6.534990 0.000000 0.000000 6.203481 -0.004878 -1.089338
11 0.000005 4.212782 -1.689684 1.495762 -0.027724 1.618548
12 3.620122 0.000000 0.000000 -0.076830 -0.061120 -0.218216
13 3.445709 0.000000 0.000000 -0.077337 -0.060477 0.106551
14 7.391221 0.000000 0.000000 0.000000 0.000000 0.155677
15 3.178825 0.000000 0.000000 3.141590 -0.000000 0.364769
16 3.706899 0.000000 0.000000 0.647031 0.123417 0.218792
17 2.023582 0.907751 0.852529 -0.003403 -1.724041 -1.743211
18 4.983666 0.000000 0.000000 -1.689872 -0.566806 -0.136496
19 10.904947 0.000000 0.000000 0.000000 0.000000 -0.459416
20 10.565866 -0.000002 -0.000032 1.502342 -0.079416 0.036397
21 3.464121 0.088918 -0.780280 -0.266522 0.272889 -0.114263
22 1.149897 0.000000 0.000000 0.000000 -0.053881 0.012281
23 0.932722 0.000000 0.000000 0.000000 0.019566 -0.057876
24 3.616507 0.088098 -0.193358 -0.074871 0.173485 -0.083578
25 1.340571 0.000000 0.000000 0.000000 -0.038612 -0.058163
26 0.801953 0.000000 0.000000 0.000000 -0.007693 0.047703
27 3.507634 -0.030219 0.336396 0.087874 -0.039626 -0.002228
28 1.575054 0.000000 0.000000 0.000000 0.054588 -0.133696
29 1.060836 0.000000 0.000000 0.000000 -0.055036 -0.056381
30 3.709198 0.065912 0.920442 0.315356 -0.197665 -0.104771
31 1.321863 0.000000 0.000000 0.000000 0.046519 -0.073857
32 0.977462 0.000000 0.000000 0.000000 0.011737 -0.061857
33 0.820752 -0.193688 0.888224 -1.372855 -0.498548 -0.474342
34 1.123140 0.000000 0.000000 0.000000 -0.012010 0.116354
35 0.860971 0.000000 0.000000 0.000000 -0.000207 -0.180622
36 2.023582 0.907751 -0.852529 -0.104578 1.771300 -1.779966
37 4.983666 0.000000 0.000000 0.660391 1.117379 -1.696517
38 10.904951 0.000000 0.000000 0.000000 0.000000 -0.926035
39 10.565886 0.000000 0.000000 -1.513837 -0.073186 0.340354
40 3.464092 0.095513 0.779500 0.265534 -0.273843 -0.111899
41 1.149897 0.000000 0.000000 0.000000 0.053975 0.011863
42 0.932722 0.000000 0.000000 0.000000 -0.020014 -0.057722
43 3.616478 0.089730 0.192606 0.074650 -0.174185 -0.082089
44 1.340571 0.000000 0.000000 0.000000 0.038126 -0.058483
45 0.801953 0.000000 0.000000 0.000000 0.008090 0.047637
46 3.507606 -0.033063 -0.336129 -0.087881 0.039606 -0.002554
47 1.575054 0.000000 0.000000 0.000000 -0.055713 -0.133233
48 1.060836 0.000000 0.000000 0.000000 0.054561 -0.056841
49 3.709169 0.058127 -0.920967 -0.315627 0.196774 -0.106443
50 1.321863 0.000000 0.000000 0.000000 -0.047130 -0.073469
51 0.977462 0.000000 0.000000 0.000000 -0.012250 -0.061757
52 0.820726 -0.201215 -0.886554 1.370474 0.494671 -0.478406
53 1.123140 0.000000 0.000000 0.000000 0.012726 0.116278
54 0.860971 0.000000 0.000000 0.000000 -0.000893 -0.180620
time 1
1 -3.487779 -4.963513 40.296005 1.579018 -0.017831 -0.432042
2 0.000000 0.000000 0.000000 0.000000 0.000000 0.000000
3 3.984023 0.000006 0.000007 -2.019373 -0.267206 -1.490476
4 19.319885 0.000000 0.000000 0.000000 0.000000 0.145494
5 16.701586 0.000000 0.000000 -9.455255 -3.097530 9.070214
6 6.534990 0.000000 0.000000 6.277784 -0.004872 -1.089338
7 -3.984013 0.000006 0.000007 -1.554699 0.153514 -1.676767
8 19.319885 0.000000 0.000000 0.000000 0.000000 0.198013
9 16.701586 0.000000 0.000000 0.176053 -0.012977 -0.837803
10 6.534990 0.000000 0.000000 6.203481 -0.004878 -1.089338
11 0.000005 4.212782 -1.689684 1.495762 -0.027724 1.618548
12 3.620122 0.000000 0.000000 -0.076830 -0.061120 -0.218216
13 3.445709 0.000000 0.000000 -0.077337 -0.060477 0.106551
14 7.391221 0.000000 0.000000 0.000000 0.000000 0.155677
15 3.178825 0.000000 0.000000 3.141590 -0.000000 0.364769
16 3.706899 0.000000 0.000000 0.647031 0.123417 0.218792
17 2.023582 0.907751 0.852529 -0.003403 -1.724041 -1.743211
18 4.983666 0.000000 0.000000 -1.689872 -0.566806 -0.136496
19 10.904947 0.000000 0.000000 0.000000 0.000000 -0.459416
20 10.565866 -0.000002 -0.000032 1.502342 -0.079416 0.036397
21 3.464121 0.088918 -0.780280 -0.266522 0.272889 -0.114263
22 1.149897 0.000000 0.000000 0.000000 -0.053881 0.012281
23 0.932722 0.000000 0.000000 0.000000 0.019566 -0.057876
24 3.616507 0.088098 -0.193358 -0.074871 0.173485 -0.083578
25 1.340571 0.000000 0.000000 0.000000 -0.038612 -0.058163
26 0.801953 0.000000 0.000000 0.000000 -0.007693 0.047703
27 3.507634 -0.030219 0.336396 0.087874 -0.039626 -0.002228
28 1.575054 0.000000 0.000000 0.000000 0.054588 -0.133696
29 1.060836 0.000000 0.000000 0.000000 -0.055036 -0.056381
30 3.709198 0.065912 0.920442 0.315356 -0.197665 -0.104771
31 1.321863 0.000000 0.000000 0.000000 0.046519 -0.073857
32 0.977462 0.000000 0.000000 0.000000 0.011737 -0.061857
33 0.820752 -0.193688 0.888224 -1.372855 -0.498548 -0.474342
34 1.123140 0.000000 0.000000 0.000000 -0.012010 0.116354
35 0.860971 0.000000 0.000000 0.000000 -0.000207 -0.180622
36 2.023582 0.907751 -0.852529 -0.104578 1.771300 -1.779966
37 4.983666 0.000000 0.000000 0.660391 1.117379 -1.696517
38 10.904951 0.000000 0.000000 0.000000 0.000000 -0.926035
39 10.565886 0.000000 0.000000 -1.513837 -0.073186 0.340354
40 3.464092 0.095513 0.779500 0.265534 -0.273843 -0.111899
41 1.149897 0.000000 0.000000 0.000000 0.053975 0.011863
42 0.932722 0.000000 0.000000 0.000000 -0.020014 -0.057722
43 3.616478 0.089730 0.192606 0.074650 -0.174185 -0.082089
44 1.340571 0.000000 0.000000 0.000000 0.038126 -0.058483
45 0.801953 0.000000 0.000000 0.000000 0.008090 0.047637
46 3.507606 -0.033063 -0.336129 -0.087881 0.039606 -0.002554
47 1.575054 0.000000 0.000000 0.000000 -0.055713 -0.133233
48 1.060836 0.000000 0.000000 0.000000 0.054561 -0.056841
49 3.709169 0.058127 -0.920967 -0.315627 0.196774 -0.106443
50 1.321863 0.000000 0.000000 0.000000 -0.047130 -0.073469
51 0.977462 0.000000 0.000000 0.000000 -0.012250 -0.061757
52 0.820726 -0.201215 -0.886554 1.370474 0.494671 -0.478406
53 1.123140 0.000000 0.000000 0.000000 0.012726 0.116278
54 0.860971 0.000000 0.000000 0.000000 -0.000893 -0.180620
time 2
1 -3.487779 -4.963513 40.296005 1.579018 -0.017831 -0.432042
2 0.000000 0.000000 0.000000 0.000000 0.000000 0.000000
3 3.984023 0.000006 0.000007 -2.019373 -0.267206 -1.490476
4 19.319885 0.000000 0.000000 0.000000 0.000000 0.145494
5 16.701586 0.000000 0.000000 -9.455255 -3.097530 9.070214
6 6.534990 0.000000 0.000000 6.277784 -0.004872 -1.089338
7 -3.984013 0.000006 0.000007 -1.554699 0.153514 -1.676767
8 19.319885 0.000000 0.000000 0.000000 0.000000 0.198013
9 16.701586 0.000000 0.000000 0.176053 -0.012977 -0.837803
10 6.534990 0.000000 0.000000 6.203481 -0.004878 -1.089338
11 0.000005 4.212782 -1.689684 1.495762 -0.027724 1.618548
12 3.620122 0.000000 0.000000 -0.076830 -0.061120 -0.218216
13 3.445709 0.000000 0.000000 -0.077337 -0.060477 0.106551
14 7.391221 0.000000 0.000000 0.000000 0.000000 0.155677
15 3.178825 0.000000 0.000000 3.141590 -0.000000 0.364769
16 3.706899 0.000000 0.000000 0.647031 0.123417 0.218792
17 2.023582 0.907751 0.852529 -0.003403 -1.724041 -1.743211
18 4.983666 0.000000 0.000000 -1.689872 -0.566806 -0.136496
19 10.904947 0.000000 0.000000 0.000000 0.000000 -0.459416
20 10.565866 -0.000002 -0.000032 1.502342 -0.079416 0.036397
21 3.464121 0.088918 -0.780280 -0.266522 0.272889 -0.114263
22 1.149897 0.000000 0.000000 0.000000 -0.053881 0.012281
23 0.932722 0.000000 0.000000 0.000000 0.019566 -0.057876
24 3.616507 0.088098 -0.193358 -0.074871 0.173485 -0.083578
25 1.340571 0.000000 0.000000 0.000000 -0.038612 -0.058163
26 0.801953 0.000000 0.000000 0.000000 -0.007693 0.047703
27 3.507634 -0.030219 0.336396 0.087874 -0.039626 -0.002228
28 1.575054 0.000000 0.000000 0.000000 0.054588 -0.133696
29 1.060836 0.000000 0.000000 0.000000 -0.055036 -0.056381
30 3.709198 0.065912 0.920442 0.315356 -0.197665 -0.104771
31 1.321863 0.000000 0.000000 0.000000 0.046519 -0.073857
32 0.977462 0.000000 0.000000 0.000000 0.011737 -0.061857
33 0.820752 -0.193688 0.888224 -1.372855 -0.498548 -0.474342
34 1.123140 0.000000 0.000000 0.000000 -0.012010 0.116354
35 0.860971 0.000000 0.000000 0.000000 -0.000207 -0.180622
36 2.023582 0.907751 -0.852529 -0.104578 1.771300 -1.779966
37 4.983666 0.000000 0.000000 0.660391 1.117379 -1.696517
38 10.904951 0.000000 0.000000 0.000000 0.000000 -0.926035
39 10.565886 0.000000 0.000000 -1.513837 -0.073186 0.340354
40 3.464092 0.095513 0.779500 0.265534 -0.273843 -0.111899
41 1.149897 0.000000 0.000000 0.000000 0.053975 0.011863
42 0.932722 0.000000 0.000000 0.000000 -0.020014 -0.057722
43 3.616478 0.089730 0.192606 0.074650 -0.174185 -0.082089
44 1.340571 0.000000 0.000000 0.000000 0.038126 -0.058483
45 0.801953 0.000000 0.000000 0.000000 0.008090 0.047637
46 3.507606 -0.033063 -0.336129 -0.087881 0.039606 -0.002554
47 1.575054 0.000000 0.000000 0.000000 -0.055713 -0.133233
48 1.060836 0.000000 0.000000 0.000000 0.054561 -0.056841
49 3.709169 0.058127 -0.920967 -0.315627 0.196774 -0.106443
50 1.321863 0.000000 0.000000 0.000000 -0.047130 -0.073469
51 0.977462 0.000000 0.000000 0.000000 -0.012250 -0.061757
52 0.820726 -0.201215 -0.886554 1.370474 0.494671 -0.478406
53 1.123140 0.000000 0.000000 0.000000 0.012726 0.116278
54 0.860971 0.000000 0.000000 0.000000 -0.000893 -0.180620
time 3
1 -3.487779 -4.963513 40.296005 1.579018 -0.017831 -0.432042
2 0.000000 0.000000 0.000000 0.000000 0.000000 0.000000
3 3.984023 0.000006 0.000007 -2.019373 -0.267206 -1.490476
4 19.319885 0.000000 0.000000 0.000000 0.000000 0.145494
5 16.701586 0.000000 0.000000 -9.455255 -3.097530 9.070214
6 6.534990 0.000000 0.000000 6.277784 -0.004872 -1.089338
7 -3.984013 0.000006 0.000007 -1.554699 0.153514 -1.676767
8 19.319885 0.000000 0.000000 0.000000 0.000000 0.198013
9 16.701586 0.000000 0.000000 0.176053 -0.012977 -0.837803
10 6.534990 0.000000 0.000000 6.203481 -0.004878 -1.089338
11 0.000005 4.212782 -1.689684 1.495762 -0.027724 1.618548
12 3.620122 0.000000 0.000000 -0.076830 -0.061120 -0.218216
13 3.445709 0.000000 0.000000 -0.077337 -0.060477 0.106551
14 7.391221 0.000000 0.000000 0.000000 0.000000 0.155677
15 3.178825 0.000000 0.000000 3.141590 -0.000000 0.364769
16 3.706899 0.000000 0.000000 0.647031 0.123417 0.218792
17 2.023582 0.907751 0.852529 -0.003403 -1.724041 -1.743211
18 4.983666 0.000000 0.000000 -1.689872 -0.566806 -0.136496
19 10.904947 0.000000 0.000000 0.000000 0.000000 -0.459416
20 10.565866 -0.000002 -0.000032 1.502342 -0.079416 0.036397
21 3.464121 0.088918 -0.780280 -0.266522 0.272889 -0.114263
22 1.149897 0.000000 0.000000 0.000000 -0.053881 0.012281
23 0.932722 0.000000 0.000000 0.000000 0.019566 -0.057876
24 3.616507 0.088098 -0.193358 -0.074871 0.173485 -0.083578
25 1.340571 0.000000 0.000000 0.000000 -0.038612 -0.058163
26 0.801953 0.000000 0.000000 0.000000 -0.007693 0.047703
27 3.507634 -0.030219 0.336396 0.087874 -0.039626 -0.002228
28 1.575054 0.000000 0.000000 0.000000 0.054588 -0.133696
29 1.060836 0.000000 0.000000 0.000000 -0.055036 -0.056381
30 3.709198 0.065912 0.920442 0.315356 -0.197665 -0.104771
31 1.321863 0.000000 0.000000 0.000000 0.046519 -0.073857
32 0.977462 0.000000 0.000000 0.000000 0.011737 -0.061857
33 0.820752 -0.193688 0.888224 -1.372855 -0.498548 -0.474342
34 1.123140 0.000000 0.000000 0.000000 -0.012010 0.116354
35 0.860971 0.000000 0.000000 0.000000 -0.000207 -0.180622
36 2.023582 0.907751 -0.852529 -0.104578 1.771300 -1.779966
37 4.983666 0.000000 0.000000 0.660391 1.117379 -1.696517
38 10.904951 0.000000 0.000000 0.000000 0.000000 -0.926035
39 10.565886 0.000000 0.000000 -1.513837 -0.073186 0.340354
40 3.464092 0.095513 0.779500 0.265534 -0.273843 -0.111899
41 1.149897 0.000000 0.000000 0.000000 0.053975 0.011863
42 0.932722 0.000000 0.000000 0.000000 -0.020014 -0.057722
43 3.616478 0.089730 0.192606 0.074650 -0.174185 -0.082089
44 1.340571 0.000000 0.000000 0.000000 0.038126 -0.058483
45 0.801953 0.000000 0.000000 0.000000 0.008090 0.047637
46 3.507606 -0.033063 -0.336129 -0.087881 0.039606 -0.002554
47 1.575054 0.000000 0.000000 0.000000 -0.055713 -0.133233
48 1.060836 0.000000 0.000000 0.000000 0.054561 -0.056841
49 3.709169 0.058127 -0.920967 -0.315627 0.196774 -0.106443
50 1.321863 0.000000 0.000000 0.000000 -0.047130 -0.073469
51 0.977462 0.000000 0.000000 0.000000 -0.012250 -0.061757
52 0.820726 -0.201215 -0.886554 1.370474 0.494671 -0.478406
53 1.123140 0.000000 0.000000 0.000000 0.012726 0.116278
54 0.860971 0.000000 0.000000 0.000000 -0.000893 -0.180620
time 4
1 -3.487779 -4.963513 40.296005 1.579018 -0.017831 -0.432042
2 0.000000 0.000000 0.000000 0.000000 0.000000 0.000000
3 3.984023 0.000006 0.000007 -2.019373 -0.267206 -1.490476
4 19.319885 0.000000 0.000000 0.000000 0.000000 0.145494
5 16.701586 0.000000 0.000000 -9.455255 -3.097530 9.070214
6 6.534990 0.000000 0.000000 6.277784 -0.004872 -1.089338
7 -3.984013 0.000006 0.000007 -1.554699 0.153514 -1.676767
8 19.319885 0.000000 0.000000 0.000000 0.000000 0.198013
9 16.701586 0.000000 0.000000 0.176053 -0.012977 -0.837803
10 6.534990 0.000000 0.000000 6.203481 -0.004878 -1.089338
11 0.000005 4.212782 -1.689684 1.495762 -0.027724 1.618548
12 3.620122 0.000000 0.000000 -0.076830 -0.061120 -0.218216
13 3.445709 0.000000 0.000000 -0.077337 -0.060477 0.106551
14 7.391221 0.000000 0.000000 0.000000 0.000000 0.155677
15 3.178825 0.000000 0.000000 3.141590 -0.000000 0.364769
16 3.706899 0.000000 0.000000 0.647031 0.123417 0.218792
17 2.023582 0.907751 0.852529 -0.003403 -1.724041 -1.743211
18 4.983666 0.000000 0.000000 -1.689872 -0.566806 -0.136496
19 10.904947 0.000000 0.000000 0.000000 0.000000 -0.459416
20 10.565866 -0.000002 -0.000032 1.502342 -0.079416 0.036397
21 3.464121 0.088918 -0.780280 -0.266522 0.272889 -0.114263
22 1.149897 0.000000 0.000000 0.000000 -0.053881 0.012281
23 0.932722 0.000000 0.000000 0.000000 0.019566 -0.057876
24 3.616507 0.088098 -0.193358 -0.074871 0.173485 -0.083578
25 1.340571 0.000000 0.000000 0.000000 -0.038612 -0.058163
26 0.801953 0.000000 0.000000 0.000000 -0.007693 0.047703
27 3.507634 -0.030219 0.336396 0.087874 -0.039626 -0.002228
28 1.575054 0.000000 0.000000 0.000000 0.054588 -0.133696
29 1.060836 0.000000 0.000000 0.000000 -0.055036 -0.056381
30 3.709198 0.065912 0.920442 0.315356 -0.197665 -0.104771
31 1.321863 0.000000 0.000000 0.000000 0.046519 -0.073857
32 0.977462 0.000000 0.000000 0.000000 0.011737 -0.061857
33 0.820752 -0.193688 0.888224 -1.372855 -0.498548 -0.474342
34 1.123140 0.000000 0.000000 0.000000 -0.012010 0.116354
35 0.860971 0.000000 0.000000 0.000000 -0.000207 -0.180622
36 2.023582 0.907751 -0.852529 -0.104578 1.771300 -1.779966
37 4.983666 0.000000 0.000000 0.660391 1.117379 -1.696517
38 10.904951 0.000000 0.000000 0.000000 0.000000 -0.926035
39 10.565886 0.000000 0.000000 -1.513837 -0.073186 0.340354
40 3.464092 0.095513 0.779500 0.265534 -0.273843 -0.111899
41 1.149897 0.000000 0.000000 0.000000 0.053975 0.011863
42 0.932722 0.000000 0.000000 0.000000 -0.020014 -0.057722
43 3.616478 0.089730 0.192606 0.074650 -0.174185 -0.082089
44 1.340571 0.000000 0.000000 0.000000 0.038126 -0.058483
45 0.801953 0.000000 0.000000 0.000000 0.008090 0.047637
46 3.507606 -0.033063 -0.336129 -0.087881 0.039606 -0.002554
47 1.575054 0.000000 0.000000 0.000000 -0.055713 -0.133233
48 1.060836 0.000000 0.000000 0.000000 0.054561 -0.056841
49 3.709169 0.058127 -0.920967 -0.315627 0.196774 -0.106443
50 1.321863 0.000000 0.000000 0.000000 -0.047130 -0.073469
51 0.977462 0.000000 0.000000 0.000000 -0.012250 -0.061757
52 0.820726 -0.201215 -0.886554 1.370474 0.494671 -0.478406
53 1.123140 0.000000 0.000000 0.000000 0.012726 0.116278
54 0.860971 0.000000 0.000000 0.000000 -0.000893 -0.180620
time 5
1 -3.487779 -4.963513 40.296005 1.579018 -0.017831 -0.432042
2 0.000000 0.000000 0.000000 0.000000 0.000000 0.000000
3 3.984023 0.000006 0.000007 -2.019373 -0.267206 -1.490476
4 19.319885 0.000000 0.000000 0.000000 0.000000 0.145494
5 16.701586 0.000000 0.000000 -9.455255 -3.097530 9.070214
6 6.534990 0.000000 0.000000 6.277784 -0.004872 -1.089338
7 -3.984013 0.000006 0.000007 -1.554699 0.153514 -1.676767
8 19.319885 0.000000 0.000000 0.000000 0.000000 0.198013
9 16.701586 0.000000 0.000000 0.176053 -0.012977 -0.837803
10 6.534990 0.000000 0.000000 6.203481 -0.004878 -1.089338
11 0.000005 4.212782 -1.689684 1.495762 -0.027724 1.618548
12 3.620122 0.000000 0.000000 -0.076830 -0.061120 -0.218216
13 3.445709 0.000000 0.000000 -0.077337 -0.060477 0.106551
14 7.391221 0.000000 0.000000 0.000000 0.000000 0.155677
15 3.178825 0.000000 0.000000 3.141590 -0.000000 0.364769
16 3.706899 0.000000 0.000000 0.647031 0.123417 0.218792
17 2.023582 0.907751 0.852529 -0.003403 -1.724041 -1.743211
18 4.983666 0.000000 0.000000 -1.689872 -0.566806 -0.136496
19 10.904947 0.000000 0.000000 0.000000 0.000000 -0.459416
20 10.565866 -0.000002 -0.000032 1.502342 -0.079416 0.036397
21 3.464121 0.088918 -0.780280 -0.266522 0.272889 -0.114263
22 1.149897 0.000000 0.000000 0.000000 -0.053881 0.012281
23 0.932722 0.000000 0.000000 0.000000 0.019566 -0.057876
24 3.616507 0.088098 -0.193358 -0.074871 0.173485 -0.083578
25 1.340571 0.000000 0.000000 0.000000 -0.038612 -0.058163
26 0.801953 0.000000 0.000000 0.000000 -0.007693 0.047703
27 3.507634 -0.030219 0.336396 0.087874 -0.039626 -0.002228
28 1.575054 0.000000 0.000000 0.000000 0.054588 -0.133696
29 1.060836 0.000000 0.000000 0.000000 -0.055036 -0.056381
30 3.709198 0.065912 0.920442 0.315356 -0.197665 -0.104771
31 1.321863 0.000000 0.000000 0.000000 0.046519 -0.073857
32 0.977462 0.000000 0.000000 0.000000 0.011737 -0.061857
33 0.820752 -0.193688 0.888224 -1.372855 -0.498548 -0.474342
34 1.123140 0.000000 0.000000 0.000000 -0.012010 0.116354
35 0.860971 0.000000 0.000000 0.000000 -0.000207 -0.180622
36 2.023582 0.907751 -0.852529 -0.104578 1.771300 -1.779966
37 4.983666 0.000000 0.000000 0.660391 1.117379 -1.696517
38 10.904951 0.000000 0.000000 0.000000 0.000000 -0.926035
39 10.565886 0.000000 0.000000 -1.513837 -0.073186 0.340354
40 3.464092 0.095513 0.779500 0.265534 -0.273843 -0.111899
41 1.149897 0.000000 0.000000 0.000000 0.053975 0.011863
42 0.932722 0.000000 0.000000 0.000000 -0.020014 -0.057722
43 3.616478 0.089730 0.192606 0.074650 -0.174185 -0.082089
44 1.340571 0.000000 0.000000 0.000000 0.038126 -0.058483
45 0.801953 0.000000 0.000000 0.000000 0.008090 0.047637
46 3.507606 -0.033063 -0.336129 -0.087881 0.039606 -0.002554
47 1.575054 0.000000 0.000000 0.000000 -0.055713 -0.133233
48 1.060836 0.000000 0.000000 0.000000 0.054561 -0.056841
49 3.709169 0.058127 -0.920967 -0.315627 0.196774 -0.106443
50 1.321863 0.000000 0.000000 0.000000 -0.047130 -0.073469
51 0.977462 0.000000 0.000000 0.000000 -0.012250 -0.061757
52 0.820726 -0.201215 -0.886554 1.370474 0.494671 -0.478406
53 1.123140 0.000000 0.000000 0.000000 0.012726 0.116278
54 0.860971 0.000000 0.000000 0.000000 -0.000893 -0.180620
time 6
1 -3.487779 -4.963513 40.296005 1.579018 -0.017831 -0.432042
2 0.000000 0.000000 0.000000 0.000000 0.000000 0.000000
3 3.984023 0.000006 0.000007 -2.019373 -0.267206 -1.490476
4 19.319885 0.000000 0.000000 0.000000 0.000000 0.145494
5 16.701586 0.000000 0.000000 -9.455255 -3.097530 9.070214
6 6.534990 0.000000 0.000000 6.277784 -0.004872 -1.089338
7 -3.984013 0.000006 0.000007 -1.554699 0.153514 -1.676767
8 19.319885 0.000000 0.000000 0.000000 0.000000 0.198013
9 16.701586 0.000000 0.000000 0.176053 -0.012977 -0.837803
10 6.534990 0.000000 0.000000 6.203481 -0.004878 -1.089338
11 0.000005 4.212782 -1.689684 1.495762 -0.027724 1.618548
12 3.620122 0.000000 0.000000 -0.076830 -0.061120 -0.218216
13 3.445709 0.000000 0.000000 -0.077337 -0.060477 0.106551
14 7.391221 0.000000 0.000000 0.000000 0.000000 0.155677
15 3.178825 0.000000 0.000000 3.141590 -0.000000 0.364769
16 3.706899 0.000000 0.000000 0.647031 0.123417 0.218792
17 2.023582 0.907751 0.852529 -0.003403 -1.724041 -1.743211
18 4.983666 0.000000 0.000000 -1.689872 -0.566806 -0.136496
19 10.904947 0.000000 0.000000 0.000000 0.000000 -0.459416
20 10.565866 -0.000002 -0.000032 1.502342 -0.079416 0.036397
21 3.464121 0.088918 -0.780280 -0.266522 0.272889 -0.114263
22 1.149897 0.000000 0.000000 0.000000 -0.053881 0.012281
23 0.932722 0.000000 0.000000 0.000000 0.019566 -0.057876
24 3.616507 0.088098 -0.193358 -0.074871 0.173485 -0.083578
25 1.340571 0.000000 0.000000 0.000000 -0.038612 -0.058163
26 0.801953 0.000000 0.000000 0.000000 -0.007693 0.047703
27 3.507634 -0.030219 0.336396 0.087874 -0.039626 -0.002228
28 1.575054 0.000000 0.000000 0.000000 0.054588 -0.133696
29 1.060836 0.000000 0.000000 0.000000 -0.055036 -0.056381
30 3.709198 0.065912 0.920442 0.315356 -0.197665 -0.104771
31 1.321863 0.000000 0.000000 0.000000 0.046519 -0.073857
32 0.977462 0.000000 0.000000 0.000000 0.011737 -0.061857
33 0.820752 -0.193688 0.888224 -1.372855 -0.498548 -0.474342
34 1.123140 0.000000 0.000000 0.000000 -0.012010 0.116354
35 0.860971 0.000000 0.000000 0.000000 -0.000207 -0.180622
36 2.023582 0.907751 -0.852529 -0.104578 1.771300 -1.779966
37 4.983666 0.000000 0.000000 0.660391 1.117379 -1.696517
38 10.904951 0.000000 0.000000 0.000000 0.000000 -0.926035
39 10.565886 0.000000 0.000000 -1.513837 -0.073186 0.340354
40 3.464092 0.095513 0.779500 0.265534 -0.273843 -0.111899
41 1.149897 0.000000 0.000000 0.000000 0.053975 0.011863
42 0.932722 0.000000 0.000000 0.000000 -0.020014 -0.057722
43 3.616478 0.089730 0.192606 0.074650 -0.174185 -0.082089
44 1.340571 0.000000 0.000000 0.000000 0.038126 -0.058483
45 0.801953 0.000000 0.000000 0.000000 0.008090 0.047637
46 3.507606 -0.033063 -0.336129 -0.087881 0.039606 -0.002554
47 1.575054 0.000000 0.000000 0.000000 -0.055713 -0.133233
48 1.060836 0.000000 0.000000 0.000000 0.054561 -0.056841
49 3.709169 0.058127 -0.920967 -0.315627 0.196774 -0.106443
50 1.321863 0.000000 0.000000 0.000000 -0.047130 -0.073469
51 0.977462 0.000000 0.000000 0.000000 -0.012250 -0.061757
52 0.820726 -0.201215 -0.886554 1.370474 0.494671 -0.478406
53 1.123140 0.000000 0.000000 0.000000 0.012726 0.116278
54 0.860971 0.000000 0.000000 0.000000 -0.000893 -0.180620
time 7
1 -3.487779 -4.963513 40.296005 1.579018 -0.017831 -0.432042
2 0.000000 0.000000 0.000000 0.000000 0.000000 0.000000
3 3.984023 0.000006 0.000007 -2.019373 -0.267206 -1.490476
4 19.319885 0.000000 0.000000 0.000000 0.000000 0.145494
5 16.701586 0.000000 0.000000 -9.455255 -3.097530 9.070214
6 6.534990 0.000000 0.000000 6.277784 -0.004872 -1.089338
7 -3.984013 0.000006 0.000007 -1.554699 0.153514 -1.676767
8 19.319885 0.000000 0.000000 0.000000 0.000000 0.198013
9 16.701586 0.000000 0.000000 0.176053 -0.012977 -0.837803
10 6.534990 0.000000 0.000000 6.203481 -0.004878 -1.089338
11 0.000005 4.212782 -1.689684 1.495762 -0.027724 1.618548
12 3.620122 0.000000 0.000000 -0.076830 -0.061120 -0.218216
13 3.445709 0.000000 0.000000 -0.077337 -0.060477 0.106551
14 7.391221 0.000000 0.000000 0.000000 0.000000 0.155677
15 3.178825 0.000000 0.000000 3.141590 -0.000000 0.364769
16 3.706899 0.000000 0.000000 0.647031 0.123417 0.218792
17 2.023582 0.907751 0.852529 -0.003403 -1.724041 -1.743211
18 4.983666 0.000000 0.000000 -1.689872 -0.566806 -0.136496
19 10.904947 0.000000 0.000000 0.000000 0.000000 -0.459416
20 10.565866 -0.000002 -0.000032 1.502342 -0.079416 0.036397
21 3.464121 0.088918 -0.780280 -0.266522 0.272889 -0.114263
22 1.149897 0.000000 0.000000 0.000000 -0.053881 0.012281
23 0.932722 0.000000 0.000000 0.000000 0.019566 -0.057876
24 3.616507 0.088098 -0.193358 -0.074871 0.173485 -0.083578
25 1.340571 0.000000 0.000000 0.000000 -0.038612 -0.058163
26 0.801953 0.000000 0.000000 0.000000 -0.007693 0.047703
27 3.507634 -0.030219 0.336396 0.087874 -0.039626 -0.002228
28 1.575054 0.000000 0.000000 0.000000 0.054588 -0.133696
29 1.060836 0.000000 0.000000 0.000000 -0.055036 -0.056381
30 3.709198 0.065912 0.920442 0.315356 -0.197665 -0.104771
31 1.321863 0.000000 0.000000 0.000000 0.046519 -0.073857
32 0.977462 0.000000 0.000000 0.000000 0.011737 -0.061857
33 0.820752 -0.193688 0.888224 -1.372855 -0.498548 -0.474342
34 1.123140 0.000000 0.000000 0.000000 -0.012010 0.116354
35 0.860971 0.000000 0.000000 0.000000 -0.000207 -0.180622
36 2.023582 0.907751 -0.852529 -0.104578 1.771300 -1.779966
37 4.983666 0.000000 0.000000 0.660391 1.117379 -1.696517
38 10.904951 0.000000 0.000000 0.000000 0.000000 -0.926035
39 10.565886 0.000000 0.000000 -1.513837 -0.073186 0.340354
40 3.464092 0.095513 0.779500 0.265534 -0.273843 -0.111899
41 1.149897 0.000000 0.000000 0.000000 0.053975 0.011863
42 0.932722 0.000000 0.000000 0.000000 -0.020014 -0.057722
43 3.616478 0.089730 0.192606 0.074650 -0.174185 -0.082089
44 1.340571 0.000000 0.000000 0.000000 0.038126 -0.058483
45 0.801953 0.000000 0.000000 0.000000 0.008090 0.047637
46 3.507606 -0.033063 -0.336129 -0.087881 0.039606 -0.002554
47 1.575054 0.000000 0.000000 0.000000 -0.055713 -0.133233
48 1.060836 0.000000 0.000000 0.000000 0.054561 -0.056841
49 3.709169 0.058127 -0.920967 -0.315627 0.196774 -0.106443
50 1.321863 0.000000 0.000000 0.000000 -0.047130 -0.073469
51 0.977462 0.000000 0.000000 0.000000 -0.012250 -0.061757
52 0.820726 -0.201215 -0.886554 1.370474 0.494671 -0.478406
53 1.123140 0.000000 0.000000 0.000000 0.012726 0.116278
54 0.860971 0.000000 0.000000 0.000000 -0.000893 -0.180620
time 8
1 -3.487779 -4.963513 40.296005 1.579018 -0.017831 -0.432042
2 0.000000 0.000000 0.000000 0.000000 0.000000 0.000000
3 3.984023 0.000006 0.000007 -2.019373 -0.267206 -1.490476
4 19.319885 0.000000 0.000000 0.000000 0.000000 0.145494
5 16.701586 0.000000 0.000000 -9.455255 -3.097530 9.070214
6 6.534990 0.000000 0.000000 6.277784 -0.004872 -1.089338
7 -3.984013 0.000006 0.000007 -1.554699 0.153514 -1.676767
8 19.319885 0.000000 0.000000 0.000000 0.000000 0.198013
9 16.701586 0.000000 0.000000 0.176053 -0.012977 -0.837803
10 6.534990 0.000000 0.000000 6.203481 -0.004878 -1.089338
11 0.000005 4.212782 -1.689684 1.495762 -0.027724 1.618548
12 3.620122 0.000000 0.000000 -0.076830 -0.061120 -0.218216
13 3.445709 0.000000 0.000000 -0.077337 -0.060477 0.106551
14 7.391221 0.000000 0.000000 0.000000 0.000000 0.155677
15 3.178825 0.000000 0.000000 3.141590 -0.000000 0.364769
16 3.706899 0.000000 0.000000 0.647031 0.123417 0.218792
17 2.023582 0.907751 0.852529 -0.003403 -1.724041 -1.743211
18 4.983666 0.000000 0.000000 -1.689872 -0.566806 -0.136496
19 10.904947 0.000000 0.000000 0.000000 0.000000 -0.459416
20 10.565866 -0.000002 -0.000032 1.502342 -0.079416 0.036397
21 3.464121 0.088918 -0.780280 -0.266522 0.272889 -0.114263
22 1.149897 0.000000 0.000000 0.000000 -0.053881 0.012281
23 0.932722 0.000000 0.000000 0.000000 0.019566 -0.057876
24 3.616507 0.088098 -0.193358 -0.074871 0.173485 -0.083578
25 1.340571 0.000000 0.000000 0.000000 -0.038612 -0.058163
26 0.801953 0.000000 0.000000 0.000000 -0.007693 0.047703
27 3.507634 -0.030219 0.336396 0.087874 -0.039626 -0.002228
28 1.575054 0.000000 0.000000 0.000000 0.054588 -0.133696
29 1.060836 0.000000 0.000000 0.000000 -0.055036 -0.056381
30 3.709198 0.065912 0.920442 0.315356 -0.197665 -0.104771
31 1.321863 0.000000 0.000000 0.000000 0.046519 -0.073857
32 0.977462 0.000000 0.000000 0.000000 0.011737 -0.061857
33 0.820752 -0.193688 0.888224 -1.372855 -0.498548 -0.474342
34 1.123140 0.000000 0.000000 0.000000 -0.012010 0.116354
35 0.860971 0.000000 0.000000 0.000000 -0.000207 -0.180622
36 2.023582 0.907751 -0.852529 -0.104578 1.771300 -1.779966
37 4.983666 0.000000 0.000000 0.660391 1.117379 -1.696517
38 10.904951 0.000000 0.000000 0.000000 0.000000 -0.926035
39 10.565886 0.000000 0.000000 -1.513837 -0.073186 0.340354
40 3.464092 0.095513 0.779500 0.265534 -0.273843 -0.111899
41 1.149897 0.000000 0.000000 0.000000 0.053975 0.011863
42 0.932722 0.000000 0.000000 0.000000 -0.020014 -0.057722
43 3.616478 0.089730 0.192606 0.074650 -0.174185 -0.082089
44 1.340571 0.000000 0.000000 0.000000 0.038126 -0.058483
45 0.801953 0.000000 0.000000 0.000000 0.008090 0.047637
46 3.507606 -0.033063 -0.336129 -0.087881 0.039606 -0.002554
47 1.575054 0.000000 0.000000 0.000000 -0.055713 -0.133233
48 1.060836 0.000000 0.000000 0.000000 0.054561 -0.056841
49 3.709169 0.058127 -0.920967 -0.315627 0.196774 -0.106443
50 1.321863 0.000000 0.000000 0.000000 -0.047130 -0.073469
51 0.977462 0.000000 0.000000 0.000000 -0.012250 -0.061757
52 0.820726 -0.201215 -0.886554 1.370474 0.494671 -0.478406
53 1.123140 0.000000 0.000000 0.000000 0.012726 0.116278
54 0.860971 0.000000 0.000000 0.000000 -0.000893 -0.180620
time 9
1 -3.487779 -4.963513 40.296005 1.579018 -0.017831 -0.432042
2 0.000000 0.000000 0.000000 0.000000 0.000000 0.000000
3 3.984023 0.000006 0.000007 -2.019373 -0.267206 -1.490476
4 19.319885 0.000000 0.000000 0.000000 0.000000 0.145494
5 16.701586 0.000000 0.000000 -9.455255 -3.097530 9.070214
6 6.534990 0.000000 0.000000 6.277784 -0.004872 -1.089338
7 -3.984013 0.000006 0.000007 -1.554699 0.153514 -1.676767
8 19.319885 0.000000 0.000000 0.000000 0.000000 0.198013
9 16.701586 0.000000 0.000000 0.176053 -0.012977 -0.837803
10 6.534990 0.000000 0.000000 6.203481 -0.004878 -1.089338
11 0.000005 4.212782 -1.689684 1.495762 -0.027724 1.618548
12 3.620122 0.000000 0.000000 -0.076830 -0.061120 -0.218216
13 3.445709 0.000000 0.000000 -0.077337 -0.060477 0.106551
14 7.391221 0.000000 0.000000 0.000000 0.000000 0.155677
15 3.178825 0.000000 0.000000 3.141590 -0.000000 0.364769
16 3.706899 0.000000 0.000000 0.647031 0.123417 0.218792
17 2.023582 0.907751 0.852529 -0.003403 -1.724041 -1.743211
18 4.983666 0.000000 0.000000 -1.689872 -0.566806 -0.136496
19 10.904947 0.000000 0.000000 0.000000 0.000000 -0.459416
20 10.565866 -0.000002 -0.000032 1.502342 -0.079416 0.036397
21 3.464121 0.088918 -0.780280 -0.266522 0.272889 -0.114263
22 1.149897 0.000000 0.000000 0.000000 -0.053881 0.012281
23 0.932722 0.000000 0.000000 0.000000 0.019566 -0.057876
24 3.616507 0.088098 -0.193358 -0.074871 0.173485 -0.083578
25 1.340571 0.000000 0.000000 0.000000 -0.038612 -0.058163
26 0.801953 0.000000 0.000000 0.000000 -0.007693 0.047703
27 3.507634 -0.030219 0.336396 0.087874 -0.039626 -0.002228
28 1.575054 0.000000 0.000000 0.000000 0.054588 -0.133696
29 1.060836 0.000000 0.000000 0.000000 -0.055036 -0.056381
30 3.709198 0.065912 0.920442 0.315356 -0.197665 -0.104771
31 1.321863 0.000000 0.000000 0.000000 0.046519 -0.073857
32 0.977462 0.000000 0.000000 0.000000 0.011737 -0.061857
33 0.820752 -0.193688 0.888224 -1.372855 -0.498548 -0.474342
34 1.123140 0.000000 0.000000 0.000000 -0.012010 0.116354
35 0.860971 0.000000 0.000000 0.000000 -0.000207 -0.180622
36 2.023582 0.907751 -0.852529 -0.104578 1.771300 -1.779966
37 4.983666 0.000000 0.000000 0.660391 1.117379 -1.696517
38 10.904951 0.000000 0.000000 0.000000 0.000000 -0.926035
39 10.565886 0.000000 0.000000 -1.513837 -0.073186 0.340354
40 3.464092 0.095513 0.779500 0.265534 -0.273843 -0.111899
41 1.149897 0.000000 0.000000 0.000000 0.053975 0.011863
42 0.932722 0.000000 0.000000 0.000000 -0.020014 -0.057722
43 3.616478 0.089730 0.192606 0.074650 -0.174185 -0.082089
44 1.340571 0.000000 0.000000 0.000000 0.038126 -0.058483
45 0.801953 0.000000 0.000000 0.000000 0.008090 0.047637
46 3.507606 -0.033063 -0.336129 -0.087881 0.039606 -0.002554
47 1.575054 0.000000 0.000000 0.000000 -0.055713 -0.133233
48 1.060836 0.000000 0.000000 0.000000 0.054561 -0.056841
49 3.709169 0.058127 -0.920967 -0.315627 0.196774 -0.106443
50 1.321863 0.000000 0.000000 0.000000 -0.047130 -0.073469
51 0.977462 0.000000 0.000000 0.000000 -0.012250 -0.061757
52 0.820726 -0.201215 -0.886554 1.370474 0.494671 -0.478406
53 1.123140 0.000000 0.000000 0.000000 0.012726 0.116278
54 0.860971 0.000000 0.000000 0.000000 -0.000893 -0.180620
time 10
1 -3.487779 -4.963513 40.296005 1.579018 -0.017831 -0.432042
2 0.000000 0.000000 0.000000 0.000000 0.000000 0.000000
3 3.984023 0.000006 0.000007 -2.019373 -0.267206 -1.490476
4 19.319885 0.000000 0.000000 0.000000 0.000000 0.145494
5 16.701586 0.000000 0.000000 -9.455255 -3.097530 9.070214
6 6.534990 0.000000 0.000000 6.277784 -0.004872 -1.089338
7 -3.984013 0.000006 0.000007 -1.554699 0.153514 -1.676767
8 19.319885 0.000000 0.000000 0.000000 0.000000 0.198013
9 16.701586 0.000000 0.000000 0.176053 -0.012977 -0.837803
10 6.534990 0.000000 0.000000 6.203481 -0.004878 -1.089338
11 0.000005 4.212782 -1.689684 1.495762 -0.027724 1.618548
12 3.620122 0.000000 0.000000 -0.076830 -0.061120 -0.218216
13 3.445709 0.000000 0.000000 -0.077337 -0.060477 0.106551
14 7.391221 0.000000 0.000000 0.000000 0.000000 0.155677
15 3.178825 0.000000 0.000000 3.141590 -0.000000 0.364769
16 3.706899 0.000000 0.000000 0.647031 0.123417 0.218792
17 2.023582 0.907751 0.852529 -0.003403 -1.724041 -1.743211
18 4.983666 0.000000 0.000000 -1.689872 -0.566806 -0.136496
19 10.904947 0.000000 0.000000 0.000000 0.000000 -0.459416
20 10.565866 -0.000002 -0.000032 1.502342 -0.079416 0.036397
21 3.464121 0.088918 -0.780280 -0.266522 0.272889 -0.114263
22 1.149897 0.000000 0.000000 0.000000 -0.053881 0.012281
23 0.932722 0.000000 0.000000 0.000000 0.019566 -0.057876
24 3.616507 0.088098 -0.193358 -0.074871 0.173485 -0.083578
25 1.340571 0.000000 0.000000 0.000000 -0.038612 -0.058163
26 0.801953 0.000000 0.000000 0.000000 -0.007693 0.047703
27 3.507634 -0.030219 0.336396 0.087874 -0.039626 -0.002228
28 1.575054 0.000000 0.000000 0.000000 0.054588 -0.133696
29 1.060836 0.000000 0.000000 0.000000 -0.055036 -0.056381
30 3.709198 0.065912 0.920442 0.315356 -0.197665 -0.104771
31 1.321863 0.000000 0.000000 0.000000 0.046519 -0.073857
32 0.977462 0.000000 0.000000 0.000000 0.011737 -0.061857
33 0.820752 -0.193688 0.888224 -1.372855 -0.498548 -0.474342
34 1.123140 0.000000 0.000000 0.000000 -0.012010 0.116354
35 0.860971 0.000000 0.000000 0.000000 -0.000207 -0.180622
36 2.023582 0.907751 -0.852529 -0.104578 1.771300 -1.779966
37 4.983666 0.000000 0.000000 0.660391 1.117379 -1.696517
38 10.904951 0.000000 0.000000 0.000000 0.000000 -0.926035
39 10.565886 0.000000 0.000000 -1.513837 -0.073186 0.340354
40 3.464092 0.095513 0.779500 0.265534 -0.273843 -0.111899
41 1.149897 0.000000 0.000000 0.000000 0.053975 0.011863
42 0.932722 0.000000 0.000000 0.000000 -0.020014 -0.057722
43 3.616478 0.089730 0.192606 0.074650 -0.174185 -0.082089
44 1.340571 0.000000 0.000000 0.000000 0.038126 -0.058483
45 0.801953 0.000000 0.000000 0.000000 0.008090 0.047637
46 3.507606 -0.033063 -0.336129 -0.087881 0.039606 -0.002554
47 1.575054 0.000000 0.000000 0.000000 -0.055713 -0.133233
48 1.060836 0.000000 0.000000 0.000000 0.054561 -0.056841
49 3.709169 0.058127 -0.920967 -0.315627 0.196774 -0.106443
50 1.321863 0.000000 0.000000 0.000000 -0.047130 -0.073469
51 0.977462 0.000000 0.000000 0.000000 -0.012250 -0.061757
52 0.820726 -0.201215 -0.886554 1.370474 0.494671 -0.478406
53 1.123140 0.000000 0.000000 0.000000 0.012726 0.116278
54 0.860971 0.000000 0.000000 0.000000 -0.000893 -0.180620
end
