version 1
nodes
  0 "ValveBiped.Bip01_Pelvis" -1
  1 "ValveBiped.Bip01_Spine" 0
  2 "ValveBiped.Bip01_Spine1" 1
  3 "ValveBiped.Bip01_Spine2" 2
  4 "ValveBiped.Bip01_Spine4" 3
  5 "ValveBiped.Bip01_Neck1" 4
  6 "ValveBiped.Bip01_Head1" 5
  7 "ValveBiped.Bip01_R_Clavicle" 4
  8 "ValveBiped.Bip01_R_UpperArm" 7
  9 "ValveBiped.Bip01_R_Forearm" 8
  10 "ValveBiped.Bip01_R_Hand" 9
  11 "ValveBiped.Bip01_R_Finger4" 10
  12 "ValveBiped.Bip01_R_Finger41" 11
  13 "ValveBiped.Bip01_R_Finger42" 12
  14 "ValveBiped.Bip01_R_Finger3" 10
  15 "ValveBiped.Bip01_R_Finger31" 14
  16 "ValveBiped.Bip01_R_Finger32" 15
  17 "ValveBiped.Bip01_R_Finger2" 10
  18 "ValveBiped.Bip01_R_Finger21" 17
  19 "ValveBiped.Bip01_R_Finger22" 18
  20 "ValveBiped.Bip01_R_Finger1" 10
  21 "ValveBiped.Bip01_R_Finger11" 20
  22 "ValveBiped.Bip01_R_Finger12" 21
  23 "ValveBiped.Bip01_R_Finger0" 10
  24 "ValveBiped.Bip01_R_Finger01" 23
  25 "ValveBiped.Bip01_R_Finger02" 24
  26 "ValveBiped.Bip01_L_Clavicle" 4
  27 "ValveBiped.Bip01_L_UpperArm" 26
  28 "ValveBiped.Bip01_L_Forearm" 27
  29 "ValveBiped.Bip01_L_Hand" 28
  30 "ValveBiped.Bip01_L_Finger4" 29
  31 "ValveBiped.Bip01_L_Finger41" 30
  32 "ValveBiped.Bip01_L_Finger42" 31
  33 "ValveBiped.Bip01_L_Finger3" 29
  34 "ValveBiped.Bip01_L_Finger31" 33
  35 "ValveBiped.Bip01_L_Finger32" 34
  36 "ValveBiped.Bip01_L_Finger2" 29
  37 "ValveBiped.Bip01_L_Finger21" 36
  38 "ValveBiped.Bip01_L_Finger22" 37
  39 "ValveBiped.Bip01_L_Finger1" 29
  40 "ValveBiped.Bip01_L_Finger11" 39
  41 "ValveBiped.Bip01_L_Finger12" 40
  42 "ValveBiped.Bip01_L_Finger0" 29
  43 "ValveBiped.Bip01_L_Finger01" 42
  44 "ValveBiped.Bip01_L_Finger02" 43
  45 "ValveBiped.Bip01_R_Thigh" 0
  46 "ValveBiped.Bip01_R_Calf" 45
  47 "ValveBiped.Bip01_R_Foot" 46
  48 "ValveBiped.Bip01_R_Toe0" 47
  49 "ValveBiped.Bip01_L_Thigh" 0
  50 "ValveBiped.Bip01_L_Calf" 49
  51 "ValveBiped.Bip01_L_Foot" 50
  52 "ValveBiped.Bip01_L_Toe0" 51
end
skeleton
time 0
    0 -0.100008 -0.070310 38.426288 1.536347 -0.002190 -0.072516
    1 0.003911 3.345130 -2.981901 1.570796 0.086294 1.568608
    2 4.018332 0.000000 0.000000 0.035019 0.007922 -0.068757
    3 3.518568 0.000000 0.000000 0.027440 0.006287 0.139454
    4 8.942644 0.000001 0.000000 -0.030596 0.051335 0.235890
    5 3.307229 0.000016 0.000000 3.141590 0.000000 0.400478
    6 3.593715 -0.000001 0.000000 0.020473 0.049761 0.479967
    7 2.033438 1.000749 -1.937609 -1.461304 1.261595 3.146368
    8 6.028158 -0.000003 0.000000 1.197562 0.167406 -0.982584
    9 11.692549 0.000000 0.000000 -0.000015 0.000263 -0.126400
    10 11.481700 0.000000 0.000001 -1.740025 -0.089517 0.342986
    11 4.082334 0.078346 1.450916 0.410197 -0.260802 -0.745701
    12 1.023488 -0.000013 -0.000005 0.082425 -0.261829 -0.606990
    13 0.940310 -0.000007 0.000000 0.205117 -0.375115 -0.993792
    14 4.133708 0.077641 0.528688 0.101461 -0.342382 -0.531328
    15 1.222685 -0.000009 -0.000006 0.051545 -0.155705 -0.638320
    16 1.161169 0.000002 0.000000 0.193934 -0.249755 -1.318422
    17 4.008658 -0.073795 -0.524809 -0.216563 -0.173836 -0.389808
    18 1.426600 -0.000003 -0.000001 0.029445 -0.067083 -0.826901
    19 1.318563 -0.000009 -0.000003 0.029434 -0.067092 -0.826926
    20 4.035605 -0.051299 -1.534428 -0.385150 -0.033169 -0.308143
    21 1.246750 0.000008 0.000006 -0.021800 0.075380 -0.562726
    22 1.134820 -0.000006 -0.000003 -0.020495 0.073301 -0.545308
    23 1.083362 -0.316874 -1.939450 1.056204 0.100088 -1.187492
    24 1.168670 -0.000019 -0.000002 0.016650 0.092777 0.355083
    25 1.206998 -0.000001 0.000001 0.015871 0.090657 0.346597
    26 2.033432 1.000746 1.937661 1.165511 -1.300337 3.367594
    27 6.028153 0.000003 0.000000 -1.479921 0.030981 -1.208862
    28 11.692553 0.000000 0.000000 -0.000021 0.000396 -0.126426
    29 11.481668 0.000000 0.000001 1.893104 0.002044 0.339158
    30 4.078465 0.060731 -1.453695 -0.132993 0.029846 -0.983587
    31 1.019594 0.000011 -0.000001 -0.152414 0.299809 -0.936147
    32 0.940314 0.000010 -0.000004 -0.152412 0.299797 -0.936145
    33 4.133739 0.070217 -0.529097 -0.041567 0.068556 -0.975538
    34 1.222682 0.000004 -0.000001 -0.093145 0.179138 -0.957407
    35 1.157261 -0.000005 0.000004 -0.093154 0.179141 -0.957388
    36 4.008691 -0.074109 0.525203 0.114941 0.063675 -0.976457
    37 1.426598 -0.000013 0.000016 -0.029682 0.056494 -0.967522
    38 1.318564 -0.000004 0.000005 -0.029686 0.056492 -0.967514
    39 4.031740 -0.044193 1.531699 0.328358 0.063672 -0.976444
    40 1.246759 -0.000007 -0.000001 0.062382 -0.119189 -0.963710
    41 1.134815 -0.000006 0.000009 0.062392 -0.119194 -0.963681
    42 1.083394 -0.302051 1.942373 -1.268949 -0.549828 -0.692311
    43 1.164769 -0.000017 0.000002 0.003359 0.026646 0.251691
    44 1.206993 -0.000001 0.000000 0.000002 0.000011 0.000040
    45 -3.890452 0.000007 0.000007 -1.453896 0.055719 -1.611657
    46 17.848173 0.000000 0.000000 0.000000 0.000000 0.100333
    47 15.638507 0.000083 0.000001 0.023112 -0.061813 -1.011170
    48 7.336499 -0.000038 0.000002 -0.080999 -0.003276 -0.673341
    49 3.890452 -0.000004 -0.000003 -1.848767 0.041813 -1.590201
    50 17.848175 0.000000 0.000000 -0.000001 0.000000 0.196025
    51 15.638496 -0.000101 -0.000001 0.011402 0.010835 -1.093310
    52 7.332594 0.000039 0.000001 -0.006964 -0.003276 -0.673367
time 1
    0 0.056247 -0.070310 38.328629 1.536347 -0.002494 -0.081543
    1 0.003911 3.345130 -2.981901 1.566655 0.086328 1.571940
    2 4.018332 0.000000 0.000000 0.008964 0.007023 -0.065553
    3 3.518568 0.000000 0.000000 0.018727 0.006874 0.152901
    4 8.942644 0.000001 0.000000 -0.047937 0.058454 0.243812
    5 3.307229 0.000016 0.000000 3.141590 0.000000 0.400478
    6 3.593715 -0.000001 0.000000 0.087361 0.068884 0.505579
    7 2.033438 1.000749 -1.937609 -1.403066 1.298606 3.204119
    8 6.028158 -0.000003 0.000000 1.127029 0.186023 -1.016324
    9 11.692549 0.000000 0.000000 -0.000015 0.000263 -0.126400
    10 11.481700 0.000000 0.000001 -1.703837 -0.089451 0.354190
    11 4.082334 0.078346 1.450916 0.410362 -0.239864 -0.746384
    12 1.023488 -0.000013 -0.000005 0.082425 -0.261829 -0.606990
    13 0.940310 -0.000007 0.000000 0.205117 -0.375115 -0.993792
    14 4.133708 0.077641 0.528688 0.107441 -0.328024 -0.544801
    15 1.222685 -0.000009 -0.000006 0.051545 -0.155705 -0.638320
    16 1.157263 0.000002 0.000000 0.193934 -0.249755 -1.318422
    17 4.008658 -0.073795 -0.524809 -0.210523 -0.165723 -0.411528
    18 1.426600 -0.000003 -0.000001 0.028810 -0.066484 -0.817387
    19 1.318563 -0.000009 -0.000003 0.032239 -0.069548 -0.867860
    20 4.035605 -0.051299 -1.534428 -0.383509 -0.016786 -0.295108
    21 1.246750 0.000008 0.000006 -0.021692 0.075213 -0.561298
    22 1.134820 -0.000006 -0.000003 -0.022412 0.076357 -0.570927
    23 1.083362 -0.316874 -1.939450 1.056204 0.100088 -1.187492
    24 1.168670 -0.000019 -0.000002 0.016650 0.092777 0.355083
    25 1.206998 -0.000001 0.000001 0.015871 0.090657 0.346597
    26 2.033432 1.000746 1.937661 1.242121 -1.293309 3.291712
    27 6.028153 0.000003 0.000000 -1.466731 -0.051262 -1.181299
    28 11.692553 0.000000 0.000000 -0.000021 0.000396 -0.126426
    29 11.481668 0.000000 0.000001 1.869825 0.024674 0.270334
    30 4.078465 0.060731 -1.453695 -0.136459 0.023111 -0.942517
    31 1.019594 0.000011 -0.000001 -0.161872 0.306233 -0.967842
    32 0.940314 0.000010 -0.000004 -0.145581 0.294871 -0.912825
    33 4.137646 0.070217 -0.529097 -0.039086 0.061725 -0.937390
    34 1.222682 0.000004 -0.000001 -0.096944 0.181715 -0.978566
    35 1.157261 -0.000005 0.000004 -0.087593 0.175162 -0.925839
    36 4.008691 -0.074109 0.525203 0.117110 0.056976 -0.940540
    37 1.426598 -0.000013 0.000016 -0.031096 0.057441 -0.992226
    38 1.318564 -0.000004 0.000005 -0.028128 0.055378 -0.939484
    39 4.035646 -0.044193 1.531699 0.329412 0.060508 -0.959393
    40 1.242853 -0.000007 -0.000001 0.062334 -0.119154 -0.963345
    41 1.134815 -0.000006 0.000009 0.060810 -0.118092 -0.950383
    42 1.083394 -0.302051 1.942373 -1.251302 -0.532703 -0.719151
    43 1.164769 -0.000017 0.000002 0.003359 0.026646 0.251691
    44 1.206993 -0.000001 0.000000 0.000002 0.000011 0.000040
    45 -3.890452 0.000007 0.000007 -1.446294 0.044237 -1.626344
    46 17.848173 0.000000 0.000000 0.000000 0.000000 0.169491
    47 15.634601 0.000083 0.000001 0.074896 -0.022488 -1.042815
    48 7.336499 -0.000038 0.000002 -0.080999 -0.003276 -0.673341
    49 3.890452 -0.000004 -0.000003 -1.849150 0.034912 -1.593828
    50 17.848175 0.000000 0.000000 -0.000001 0.000000 0.214123
    51 15.638496 -0.000101 -0.000001 0.009818 0.001012 -1.113125
    52 7.332594 0.000039 0.000001 -0.006964 -0.003276 -0.673367
time 2
    0 0.247659 -0.070310 38.234876 1.536347 -0.002798 -0.090570
    1 0.003911 3.345130 -2.981901 1.562248 0.086446 1.577011
    2 4.018332 0.000000 0.000000 -0.018648 0.006076 -0.062216
    3 3.518568 0.000000 0.000000 0.009642 0.008420 0.166813
    4 8.942644 0.000001 0.000000 -0.066250 0.067322 0.251758
    5 3.307229 0.000016 0.000000 3.141590 0.000000 0.400478
    6 3.593715 -0.000001 0.000000 0.157399 0.091294 0.533700
    7 2.033438 1.000749 -1.937609 -1.322393 1.337226 3.284759
    8 6.028158 -0.000003 0.000000 1.061820 0.101101 -0.993768
    9 11.692549 0.000000 0.000000 0.000009 0.000000 -0.361373
    10 11.481700 0.000000 0.000001 -1.666120 -0.089649 0.302199
    11 4.082334 0.078346 1.450916 0.410500 -0.218029 -0.746999
    12 1.023488 -0.000013 -0.000005 0.082425 -0.261829 -0.606990
    13 0.940310 -0.000007 0.000000 0.205117 -0.375115 -0.993792
    14 4.133708 0.077641 0.528688 0.113445 -0.312960 -0.558695
    15 1.222685 -0.000009 -0.000006 0.051545 -0.155705 -0.638320
    16 1.157263 0.000002 0.000000 0.193934 -0.249755 -1.318422
    17 4.008658 -0.073795 -0.524809 -0.204423 -0.157142 -0.434085
    18 1.426600 -0.000003 -0.000001 0.028151 -0.065873 -0.807451
    19 1.318563 -0.000009 -0.000003 0.035259 -0.071993 -0.910613
    20 4.035605 -0.051299 -1.534428 -0.381579 0.000268 -0.281500
    21 1.246750 0.000008 0.000006 -0.021560 0.075033 -0.559806
    22 1.134820 -0.000006 -0.000003 -0.024486 0.079497 -0.597614
    23 1.083362 -0.316874 -1.939450 1.056204 0.100088 -1.187492
    24 1.164764 -0.000019 -0.000002 0.016650 0.092777 0.355083
    25 1.206998 -0.000001 0.000001 0.015871 0.090657 0.346597
    26 2.033432 1.000746 1.937661 1.313176 -1.285025 3.221483
    27 6.028153 0.000003 0.000000 -1.453733 -0.134531 -1.149343
    28 11.692553 0.000000 0.000000 -0.000021 0.000396 -0.126426
    29 11.481668 0.000000 0.000001 1.856725 0.047341 0.191531
    30 4.078465 0.060731 -1.453695 -0.140129 0.016651 -0.902321
    31 1.019594 0.000011 -0.000001 -0.171368 0.312249 -0.999028
    32 0.940314 0.000010 -0.000004 -0.139013 0.289898 -0.890066
    33 4.133739 0.070217 -0.529097 -0.036905 0.054942 -0.900057
    34 1.222682 0.000004 -0.000001 -0.100720 0.184160 -0.999352
    35 1.157261 -0.000005 0.000004 -0.082272 0.171087 -0.894989
    36 4.008691 -0.074109 0.525203 0.118979 0.050348 -0.905396
    37 1.426598 -0.000013 0.000016 -0.032486 0.058328 -1.016418
    38 1.318564 -0.000004 0.000005 -0.026618 0.054251 -0.912035
    39 4.035646 -0.044193 1.531699 0.330395 0.057380 -0.942694
    40 1.246759 -0.000007 -0.000001 0.062298 -0.119130 -0.962980
    41 1.134815 -0.000006 0.000009 0.059288 -0.116989 -0.937332
    42 1.083394 -0.302051 1.942373 -1.234681 -0.515552 -0.744741
    43 1.164769 -0.000017 0.000002 0.003359 0.026646 0.251691
    44 1.206993 -0.000001 0.000000 0.000002 0.000011 0.000040
    45 -3.890452 0.000007 0.000007 -1.437679 0.032756 -1.642732
    46 17.848173 0.000000 0.000000 0.000000 0.000000 0.244826
    47 15.638507 0.000083 0.000001 0.134132 0.020567 -1.073372
    48 7.336499 -0.000038 0.000002 -0.080999 -0.003276 -0.673341
    49 3.890452 -0.000004 -0.000003 -1.849534 0.018664 -1.595737
    50 17.848175 0.000000 0.000000 -0.000001 0.000000 0.251219
    51 15.638496 -0.000101 -0.000001 0.008867 -0.009632 -1.138615
    52 7.332594 0.000039 0.000001 -0.006964 -0.003276 -0.673367
time 3
    0 0.427352 -0.070310 38.145030 1.536347 -0.003133 -0.099597
    1 0.003911 3.345130 -2.981901 1.557788 0.086599 1.582629
    2 4.018332 0.000000 0.000000 -0.046704 0.005213 -0.058830
    3 3.518568 0.000000 0.000000 0.000491 0.010290 0.180813
    4 8.942644 0.000001 0.000000 -0.084754 0.076730 0.259560
    5 3.307229 0.000016 0.000000 3.141590 0.000000 0.400478
    6 3.593715 -0.000001 0.000000 0.228661 0.113492 0.563881
    7 2.033438 1.000749 -1.937609 -1.209545 1.374361 3.398250
    8 6.028158 -0.000003 0.000000 0.995369 0.031360 -0.962266
    9 11.692549 0.000000 0.000000 0.000009 0.000000 -0.579127
    10 11.481700 0.000000 0.000001 -1.628070 -0.090504 0.314209
    11 4.078427 0.078346 1.450916 0.410638 -0.195965 -0.747682
    12 1.023488 -0.000013 -0.000005 0.082425 -0.261829 -0.606990
    13 0.940310 -0.000007 0.000000 0.205117 -0.375115 -0.993792
    14 4.133708 0.077641 0.528688 0.119258 -0.297667 -0.572589
    15 1.222685 -0.000009 -0.000006 0.051545 -0.155705 -0.638320
    16 1.161169 0.000002 0.000000 0.193934 -0.249755 -1.318422
    17 4.008658 -0.073795 -0.524809 -0.198478 -0.148333 -0.456790
    18 1.426600 -0.000003 -0.000001 0.027492 -0.065237 -0.797409
    19 1.318563 -0.000009 -0.000003 0.038423 -0.074330 -0.953789
    20 4.035605 -0.051299 -1.534428 -0.379386 0.017478 -0.267736
    21 1.246750 0.000008 0.000006 -0.021453 0.074853 -0.558313
    22 1.134820 -0.000006 -0.000003 -0.026679 0.082601 -0.624634
    23 1.083362 -0.316874 -1.939450 1.056204 0.100088 -1.187492
    24 1.168670 -0.000019 -0.000002 0.016650 0.092777 0.355083
    25 1.206998 -0.000001 0.000001 0.015871 0.090657 0.346597
    26 2.033432 1.000746 1.937661 1.379635 -1.275366 3.156045
    27 6.028153 0.000003 0.000000 -1.442454 -0.217214 -1.113557
    28 11.692553 0.000000 0.000000 -0.000021 0.000396 -0.126426
    29 11.481668 0.000000 0.000001 1.844572 0.069525 0.110003
    30 4.078465 0.060731 -1.453695 -0.144019 0.010383 -0.862288
    31 1.019594 0.000011 -0.000001 -0.181018 0.317954 -1.030175
    32 0.940314 0.000010 -0.000004 -0.132614 0.284804 -0.867482
    33 4.137646 0.070217 -0.529097 -0.034999 0.048122 -0.862973
    34 1.222682 0.000004 -0.000001 -0.104531 0.186509 -1.020025
    35 1.157261 -0.000005 0.000004 -0.077119 0.166881 -0.864321
    36 4.008691 -0.074109 0.525203 0.120621 0.043697 -0.870431
    37 1.426598 -0.000013 0.000016 -0.033900 0.059179 -1.040464
    38 1.318564 -0.000004 0.000005 -0.025156 0.053089 -0.884767
    39 4.035646 -0.044193 1.531699 0.331330 0.054264 -0.926090
    40 1.242853 -0.000007 -0.000001 0.062250 -0.119094 -0.962615
    41 1.134815 -0.000006 0.000009 0.057778 -0.115875 -0.924388
    42 1.083394 -0.302051 1.942373 -1.218792 -0.498120 -0.769743
    43 1.164769 -0.000017 0.000002 0.003359 0.026646 0.251691
    44 1.206993 -0.000001 0.000000 0.000002 0.000011 0.000040
    45 -3.890452 0.000007 0.000007 -1.429401 0.022368 -1.657960
    46 17.848173 0.000000 0.000000 0.000000 0.000000 0.314959
    47 15.634601 0.000083 0.000001 0.190278 0.059091 -1.098443
    48 7.336499 -0.000038 0.000002 -0.080999 -0.003276 -0.673341
    49 3.890452 -0.000004 -0.000003 -1.849630 -0.002430 -1.595737
    50 17.848175 0.000000 0.000000 -0.000001 0.000000 0.297852
    51 15.638496 -0.000101 -0.000001 0.007478 -0.020198 -1.164957
    52 7.332594 0.000039 0.000001 -0.006964 -0.003276 -0.673367
time 4
    0 0.532824 -0.070310 38.051277 1.536347 -0.003437 -0.108719
    1 0.003911 3.345130 -2.981901 1.553488 0.086768 1.587252
    2 4.018332 0.000000 0.000000 -0.073957 0.004506 -0.055476
    3 3.518568 0.000000 0.000000 -0.008435 0.011872 0.194579
    4 8.942644 0.000001 0.000000 -0.102707 0.085467 0.267158
    5 3.307229 0.000016 0.000000 3.141590 0.000000 0.400478
    6 3.593715 -0.000001 0.000000 0.298961 0.132188 0.595026
    7 2.033438 1.000749 -1.937609 -1.053258 1.406709 3.555892
    8 6.028158 -0.000003 0.000000 0.932378 -0.010648 -0.931602
    9 11.692549 0.000000 0.000000 0.000009 0.000000 -0.752293
    10 11.481700 0.000000 0.000001 -1.590884 -0.091919 0.326104
    11 4.082334 0.078346 1.450916 0.410748 -0.174345 -0.748297
    12 1.023488 -0.000013 -0.000005 0.082425 -0.261829 -0.606990
    13 0.940310 -0.000007 0.000000 0.205117 -0.375115 -0.993792
    14 4.133708 0.077641 0.528688 0.124711 -0.282627 -0.586009
    15 1.222685 -0.000009 -0.000006 0.051545 -0.155693 -0.638320
    16 1.161169 0.000002 0.000000 0.193934 -0.249755 -1.318422
    17 4.008658 -0.073795 -0.524809 -0.192857 -0.139572 -0.478953
    18 1.426600 -0.000003 -0.000001 0.026856 -0.064602 -0.787578
    19 1.318563 -0.000009 -0.000003 0.041610 -0.076487 -0.996119
    20 4.035605 -0.051299 -1.534428 -0.377013 0.034292 -0.254180
    21 1.246750 0.000008 0.000006 -0.021345 0.074685 -0.556853
    22 1.134820 -0.000006 -0.000003 -0.028896 0.085585 -0.651087
    23 1.083362 -0.316874 -1.939450 1.056204 0.100088 -1.187492
    24 1.164764 -0.000019 -0.000002 0.016650 0.092777 0.355083
    25 1.206998 -0.000001 0.000001 0.015871 0.090657 0.346597
    26 2.033432 1.000746 1.937661 1.442455 -1.264451 3.094534
    27 6.028153 0.000003 0.000000 -1.433948 -0.297452 -1.074034
    28 11.692553 0.000000 0.000000 -0.000021 0.000396 -0.126426
    29 11.481668 0.000000 0.000001 1.824765 0.089406 0.032710
    30 4.078465 0.060731 -1.453695 -0.148201 0.004211 -0.821791
    31 1.019594 0.000011 -0.000001 -0.190978 0.323430 -1.061753
    32 0.940314 0.000010 -0.000004 -0.126274 0.279531 -0.844723
    33 4.137646 0.070217 -0.529097 -0.033321 0.041159 -0.825492
    34 1.222682 0.000004 -0.000001 -0.108438 0.188810 -1.040922
    35 1.157261 -0.000005 0.000004 -0.072049 0.162483 -0.833411
    36 4.008691 -0.074109 0.525203 0.122060 0.036914 -0.835169
    37 1.430504 -0.000013 0.000016 -0.035351 0.060006 -1.064802
    38 1.318564 -0.000004 0.000005 -0.023706 0.051866 -0.857172
    39 4.035646 -0.044193 1.531699 0.332205 0.051100 -0.909327
    40 1.242853 -0.000007 -0.000001 0.062202 -0.119070 -0.962250
    41 1.134815 -0.000006 0.000009 0.056280 -0.114736 -0.911302
    42 1.083394 -0.302051 1.942373 -1.203489 -0.480178 -0.794230
    43 1.164769 -0.000017 0.000002 0.003359 0.026646 0.251691
    44 1.206993 -0.000001 0.000000 0.000002 0.000011 0.000040
    45 -3.890452 0.000007 0.000007 -1.422982 0.015169 -1.669168
    46 17.848173 0.000000 0.000000 0.000000 0.000000 0.366320
    47 15.634601 0.000083 0.000001 0.232343 0.086464 -1.114809
    48 7.336499 -0.000038 0.000002 -0.080999 -0.003276 -0.673341
    49 3.890452 -0.000004 -0.000003 -1.849438 -0.025090 -1.593351
    50 17.848175 0.000000 0.000000 -0.000001 0.000000 0.347489
    51 15.638496 -0.000101 -0.000001 0.004479 -0.029904 -1.189171
    52 7.332594 0.000039 0.000001 -0.006964 -0.003276 -0.673367
time 5
    0 0.540637 -0.070310 37.953617 1.536347 -0.003741 -0.117746
    1 0.003911 3.345130 -2.981901 1.549240 0.086869 1.589838
    2 4.018332 0.000000 0.000000 -0.099196 0.004015 -0.052255
    3 3.518568 0.000000 0.000000 -0.016923 0.012519 0.207778
    4 8.942644 0.000001 0.000000 -0.119330 0.092322 0.274493
    5 3.307229 0.000016 0.000000 3.141590 0.000000 0.400478
    6 3.593715 -0.000001 0.000000 0.365937 0.144291 0.625529
    7 2.033438 1.000749 -1.937609 -0.849522 1.430806 3.761133
    8 6.028158 -0.000003 0.000000 0.877904 -0.035852 -0.899261
    9 11.692549 0.000000 0.000000 0.000009 0.000000 -0.905457
    10 11.481700 0.000000 0.000001 -1.555894 -0.093926 0.337499
    11 4.082334 0.078346 1.450916 0.410859 -0.153887 -0.748844
    12 1.023488 -0.000013 -0.000005 0.082425 -0.261829 -0.606990
    13 0.940310 -0.000007 0.000000 0.205117 -0.375115 -0.993792
    14 4.133708 0.077641 0.528688 0.129661 -0.268293 -0.598640
    15 1.222685 -0.000009 -0.000006 0.051545 -0.155705 -0.638320
    16 1.157263 0.000002 0.000000 0.193934 -0.249755 -1.318422
    17 4.008658 -0.073795 -0.524809 -0.187704 -0.131159 -0.499934
    18 1.426600 -0.000003 -0.000001 0.026257 -0.064003 -0.778275
    19 1.318563 -0.000009 -0.000003 0.044714 -0.078405 -1.036250
    20 4.035605 -0.051299 -1.534428 -0.374544 0.050184 -0.241301
    21 1.246750 0.000008 0.000006 -0.021249 0.074518 -0.555457
    22 1.134820 -0.000006 -0.000003 -0.031077 0.088366 -0.676172
    23 1.083362 -0.316874 -1.939450 1.056204 0.100088 -1.187492
    24 1.168670 -0.000019 -0.000002 0.016650 0.092777 0.355083
    25 1.206998 -0.000001 0.000001 0.015871 0.090657 0.346597
    26 2.033432 1.000746 1.937661 1.502498 -1.252083 3.036186
    27 6.028153 0.000003 0.000000 -1.428978 -0.373436 -1.031707
    28 11.692553 0.000000 0.000000 -0.000021 0.000396 -0.126426
    29 11.481668 0.000000 0.000001 1.789412 0.104158 -0.033757
    30 4.078465 0.060731 -1.453695 -0.152763 -0.001949 -0.780202
    31 1.019594 0.000011 -0.000001 -0.201387 0.328728 -1.094272
    32 0.940314 0.000010 -0.000004 -0.119910 0.273970 -0.821438
    33 4.133739 0.070217 -0.529097 -0.031883 0.033957 -0.787120
    34 1.222682 0.000004 -0.000001 -0.112488 0.191087 -1.062418
    35 1.157261 -0.000005 0.000004 -0.066992 0.157809 -0.801709
    36 4.008691 -0.074109 0.525203 0.123270 0.029915 -0.798954
    37 1.426598 -0.000013 0.000016 -0.036861 0.060809 -1.089762
    38 1.318564 -0.000004 0.000005 -0.022243 0.050584 -0.828889
    39 4.035646 -0.044193 1.531699 0.333055 0.047829 -0.892116
    40 1.242853 -0.000007 -0.000001 0.062166 -0.119034 -0.961885
    41 1.134815 -0.000006 0.000009 0.054746 -0.113538 -0.897862
    42 1.083394 -0.302051 1.942373 -1.188405 -0.461419 -0.818937
    43 1.164769 -0.000017 0.000002 0.003359 0.026646 0.251691
    44 1.206993 -0.000001 0.000000 0.000002 0.000011 0.000040
    45 -3.890452 0.000007 0.000007 -1.420448 0.013256 -1.673343
    46 17.848173 0.000000 0.000000 0.000000 0.000000 0.385093
    47 15.638507 0.000083 0.000001 0.248890 0.096888 -1.120296
    48 7.336499 -0.000038 0.000002 -0.080999 -0.003276 -0.673341
    49 3.890452 -0.000004 -0.000003 -1.848959 -0.046819 -1.588292
    50 17.848175 0.000000 0.000000 -0.000001 0.000000 0.395173
    51 15.638496 -0.000101 -0.000001 -0.001224 -0.037931 -1.209743
    52 7.332594 0.000039 0.000001 -0.006964 -0.003276 -0.673367
time 6
    0 0.427352 -0.070310 37.859865 1.536347 -0.004045 -0.126773
    1 0.003911 3.345130 -2.981901 1.545364 0.086886 1.588943
    2 4.018332 0.000000 0.000000 -0.121248 0.003775 -0.049284
    3 3.518568 0.000000 0.000000 -0.024761 0.011572 0.220073
    4 8.942644 0.000001 0.000000 -0.133927 0.096050 0.281588
    5 3.307229 0.000016 0.000000 3.141590 0.000000 0.400478
    6 3.593715 -0.000001 0.000000 0.426919 0.147116 0.653232
    7 2.033438 1.000749 -1.937609 -0.620294 1.444339 3.992232
    8 6.028158 -0.000003 0.000000 0.835318 -0.047929 -0.866546
    9 11.692549 0.000000 0.000000 0.000009 0.000000 -1.046140
    10 11.481700 0.000000 0.000001 -1.524030 -0.096459 0.347974
    11 4.082334 0.078346 1.450916 0.410941 -0.135203 -0.749390
    12 1.023488 -0.000013 -0.000005 0.082425 -0.261829 -0.606990
    13 0.940310 -0.000007 0.000000 0.205117 -0.375115 -0.993792
    14 4.133708 0.077641 0.528688 0.133999 -0.255170 -0.610061
    15 1.222685 -0.000009 -0.000006 0.051545 -0.155705 -0.638320
    16 1.161169 0.000002 0.000000 0.193934 -0.249755 -1.318422
    17 4.008658 -0.073795 -0.524809 -0.183174 -0.123393 -0.518944
    18 1.430506 -0.000003 -0.000001 0.025718 -0.063452 -0.769784
    19 1.318563 -0.000009 -0.000003 0.047615 -0.080047 -1.072871
    20 4.035605 -0.051299 -1.534428 -0.372123 0.064673 -0.229514
    21 1.246750 0.000008 0.000006 -0.021153 0.074362 -0.554192
    22 1.134820 -0.000006 -0.000003 -0.033127 0.090859 -0.699056
    23 1.083362 -0.316874 -1.939450 1.056204 0.100088 -1.187492
    24 1.164764 -0.000019 -0.000002 0.016650 0.092777 0.355083
    25 1.206998 -0.000001 0.000001 0.015871 0.090669 0.346597
    26 2.033432 1.000746 1.937661 1.560051 -1.238184 2.980424
    27 6.028153 0.000003 0.000000 -1.427926 -0.443699 -0.987605
    28 11.692553 0.000000 0.000000 -0.000021 0.000396 -0.126426
    29 11.481668 0.000000 0.000001 1.731095 0.110847 -0.082328
    30 4.078465 0.060731 -1.453695 -0.157764 -0.008145 -0.736947
    31 1.019594 0.000011 -0.000001 -0.212440 0.333893 -1.128243
    32 0.940314 0.000010 -0.000004 -0.113450 0.268038 -0.797311
    33 4.133739 0.070217 -0.529097 -0.030673 0.026406 -0.747116
    34 1.222682 0.000004 -0.000001 -0.116767 0.193364 -1.084773
    35 1.157261 -0.000005 0.000004 -0.061898 0.152775 -0.768790
    36 4.008691 -0.074109 0.525203 0.124265 0.022580 -0.761341
    37 1.430504 -0.000013 0.000016 -0.038455 0.061612 -1.115745
    38 1.322470 -0.000004 0.000005 -0.020781 0.049194 -0.799481
    39 4.031740 -0.044193 1.531699 0.333882 0.044413 -0.874235
    40 1.242853 -0.000007 -0.000001 0.062118 -0.119010 -0.961483
    41 1.134815 -0.000006 0.000009 0.053176 -0.112267 -0.883891
    42 1.083394 -0.302051 1.942373 -1.173322 -0.441562 -0.844086
    43 1.164769 -0.000017 0.000002 0.003359 0.026646 0.251691
    44 1.206993 -0.000001 0.000000 0.000002 0.000011 0.000040
    45 -3.890452 0.000007 0.000007 -1.417238 0.025603 -1.672647
    46 17.848173 0.000000 0.000000 0.000000 0.000000 0.372090
    47 15.638507 0.000083 0.000001 0.259207 0.112196 -1.130656
    48 7.336499 -0.000038 0.000002 -0.080999 -0.003276 -0.673341
    49 3.890452 -0.000004 -0.000003 -1.848096 -0.065319 -1.581133
    50 17.848175 0.000000 0.000000 -0.000001 0.000000 0.436400
    51 15.638496 -0.000101 -0.000001 -0.009536 -0.044278 -1.225916
    52 7.332594 0.000039 0.000001 -0.006964 -0.003276 -0.673367
time 7
    0 0.255472 -0.070310 37.770018 1.536347 -0.004380 -0.135895
    1 0.003911 3.345130 -2.981901 1.541913 0.086734 1.583524
    2 4.018332 0.000000 0.000000 -0.138889 0.003859 -0.046661
    3 3.518568 0.000000 0.000000 -0.031671 0.008372 0.231174
    4 8.942644 0.000001 0.000000 -0.145744 0.095414 0.288479
    5 3.307229 0.000016 0.000000 3.141590 0.000000 0.400478
    6 3.593715 -0.000001 0.000000 0.479152 0.138213 0.675819
    7 2.033438 1.000749 -1.937609 -0.418658 1.447970 4.195654
    8 6.028158 -0.000003 0.000000 0.807904 -0.049409 -0.835883
    9 11.692549 0.000000 0.000000 0.000009 0.000000 -1.177349
    10 11.481700 0.000000 0.000001 -1.496624 -0.099454 0.357183
    11 4.082334 0.078346 1.450916 0.410997 -0.118988 -0.749868
    12 1.023488 -0.000013 -0.000005 0.082425 -0.261829 -0.606990
    13 0.940310 -0.000007 0.000000 0.205117 -0.375115 -0.993792
    14 4.133708 0.077641 0.528688 0.137618 -0.243749 -0.619850
    15 1.222685 -0.000009 -0.000006 0.051545 -0.155705 -0.638320
    16 1.161169 0.000002 0.000000 0.193934 -0.249755 -1.318422
    17 4.008658 -0.073795 -0.524809 -0.179375 -0.116586 -0.535444
    18 1.430506 -0.000003 -0.000001 0.025250 -0.062972 -0.762419
    19 1.318563 -0.000009 -0.000003 0.050167 -0.081389 -1.104629
    20 4.035605 -0.051299 -1.534428 -0.369870 0.077221 -0.219237
    21 1.246750 0.000008 0.000006 -0.021081 0.074230 -0.553089
    22 1.134820 -0.000006 -0.000003 -0.034948 0.092968 -0.718938
    23 1.083362 -0.316874 -1.939450 1.056204 0.100088 -1.187492
    24 1.164764 -0.000019 -0.000002 0.016650 0.092777 0.355083
    25 1.206998 -0.000001 0.000001 0.015871 0.090657 0.346597
    26 2.033432 1.000746 1.937661 1.615498 -1.222479 2.927154
    27 6.028153 0.000003 0.000000 -1.432801 -0.471765 -0.938177
    28 11.692553 0.000000 0.000000 -0.000009 0.000000 -0.197263
    29 11.481668 0.000000 0.000001 1.642713 0.107837 -0.169232
    30 4.078465 0.060731 -1.453695 -0.163306 -0.014425 -0.691262
    31 1.019594 0.000011 -0.000001 -0.224291 0.338951 -1.164136
    32 0.940314 0.000010 -0.000004 -0.106811 0.261614 -0.771957
    33 4.137646 0.070217 -0.529097 -0.029726 0.018413 -0.705034
    34 1.222682 0.000004 -0.000001 -0.121321 0.195653 -1.108362
    35 1.157261 -0.000005 0.000004 -0.056721 0.147298 -0.734168
    36 4.008691 -0.074109 0.525203 0.124996 0.014850 -0.721675
    37 1.430504 -0.000013 0.000016 -0.040144 0.062415 -1.143116
    38 1.318564 -0.000004 0.000005 -0.019271 0.047696 -0.768442
    39 4.035646 -0.044193 1.531699 0.334685 0.040806 -0.855396
    40 1.242853 -0.000007 -0.000001 0.062070 -0.118974 -0.961081
    41 1.134815 -0.000006 0.000009 0.051534 -0.110913 -0.869178
    42 1.083394 -0.302051 1.942373 -1.158238 -0.420277 -0.869970
    43 1.164769 -0.000017 0.000002 0.003359 0.026646 0.251691
    44 1.206993 -0.000001 0.000000 0.000002 0.000011 0.000040
    45 -3.890452 0.000007 0.000007 -1.409890 0.049978 -1.671719
    46 17.848173 0.000000 0.000000 0.000000 0.000000 0.348523
    47 15.638507 0.000083 0.000001 0.281860 0.145909 -1.155016
    48 7.336499 -0.000038 0.000002 -0.080999 -0.003276 -0.673341
    49 3.890452 -0.000004 -0.000003 -1.847042 -0.078387 -1.574165
    50 17.848175 0.000000 0.000000 -0.000001 0.000000 0.466813
    51 15.638496 -0.000101 -0.000001 -0.019164 -0.049844 -1.237739
    52 7.332594 0.000039 0.000001 -0.006964 -0.003276 -0.673367
time 8
    0 0.036715 -0.074216 37.676265 1.536347 -0.004684 -0.144922
    1 0.003911 3.345130 -2.981901 1.539630 0.086176 1.566023
    2 4.018332 0.000000 0.000000 -0.149831 0.004039 -0.044934
    3 3.518568 0.000000 0.000000 -0.036074 -0.000796 0.238837
    4 8.942644 0.000001 0.000000 -0.154708 0.083993 0.294687
    5 3.307229 0.000016 0.000000 3.141590 0.000000 0.400478
    6 3.593715 -0.000001 0.000000 0.516686 0.101549 0.684378
    7 2.033438 1.000749 -1.937609 -0.319845 1.445082 4.295353
    8 6.028158 -0.000003 0.000000 0.800008 -0.055710 -0.805685
    9 11.692549 0.000000 0.000000 0.000009 0.000000 -1.319160
    10 11.481700 0.000000 0.000001 -1.477665 -0.103336 0.364051
    11 4.078427 0.078346 1.450916 0.411024 -0.107483 -0.750210
    12 1.023488 -0.000013 -0.000005 0.082425 -0.261829 -0.606990
    13 0.940310 -0.000007 0.000000 0.205117 -0.375115 -0.993792
    14 4.133708 0.077641 0.528688 0.140123 -0.235611 -0.626797
    15 1.222685 -0.000009 -0.000006 0.051545 -0.155705 -0.638320
    16 1.161169 0.000002 0.000000 0.193934 -0.249755 -1.318422
    17 4.004752 -0.073795 -0.524809 -0.176738 -0.111708 -0.547116
    18 1.430506 -0.000003 -0.000001 0.024915 -0.062625 -0.757169
    19 1.318563 -0.000009 -0.000003 0.052013 -0.082288 -1.127211
    20 4.035605 -0.051299 -1.534428 -0.368192 0.086114 -0.211899
    21 1.246750 0.000008 0.000006 -0.021021 0.074134 -0.552310
    22 1.134820 -0.000006 -0.000003 -0.036267 0.094454 -0.733081
    23 1.083362 -0.316874 -1.939450 1.056204 0.100088 -1.187492
    24 1.164764 -0.000019 -0.000002 0.016650 0.092777 0.355083
    25 1.206998 -0.000001 0.000001 0.015871 0.090657 0.346597
    26 2.033432 1.000746 1.937661 1.669412 -1.204850 2.875895
    27 6.028153 0.000003 0.000000 -1.432992 -0.473281 -0.876509
    28 11.692553 0.000000 0.000000 -0.000009 0.000000 -0.301619
    29 11.481668 0.000000 0.000001 1.522922 0.096726 -0.165439
    30 4.078465 0.060731 -1.453695 -0.169506 -0.020801 -0.642873
    31 1.019594 0.000011 -0.000001 -0.237094 0.343876 -1.202344
    32 0.940314 0.000010 -0.000004 -0.099980 0.254651 -0.745165
    33 4.137646 0.070217 -0.529097 -0.029103 0.009904 -0.660428
    34 1.222682 0.000004 -0.000001 -0.126211 0.197966 -1.133372
    35 1.157261 -0.000005 0.000004 -0.051460 0.141294 -0.697537
    36 4.008691 -0.074109 0.525203 0.125439 0.006605 -0.679687
    37 1.426598 -0.000013 0.000016 -0.041966 0.063206 -1.172132
    38 1.322470 -0.000004 0.000005 -0.017737 0.046054 -0.735589
    39 4.035646 -0.044193 1.531699 0.335464 0.036971 -0.835408
    40 1.246759 -0.000007 -0.000001 0.062010 -0.118938 -0.960643
    41 1.134815 -0.000006 0.000009 0.049820 -0.109451 -0.853581
    42 1.083394 -0.302051 1.942373 -1.143008 -0.397332 -0.896811
    43 1.164769 -0.000017 0.000002 0.003359 0.026646 0.251691
    44 1.206993 -0.000001 0.000000 0.000002 0.000011 0.000040
    45 -3.890452 0.000007 0.000007 -1.402710 0.068202 -1.673188
    46 17.848173 0.000000 0.000000 0.000000 0.000000 0.338608
    47 15.638507 0.000083 0.000001 0.305385 0.178914 -1.185574
    48 7.336499 -0.000038 0.000002 -0.080999 -0.003276 -0.673341
    49 3.890452 -0.000004 -0.000003 -1.845508 -0.080980 -1.569965
    50 17.848175 0.000000 0.000000 -0.000001 0.000000 0.475448
    51 15.638496 -0.000101 -0.000001 -0.028695 -0.055605 -1.242563
    52 7.332594 0.000039 0.000001 -0.006964 -0.003276 -0.673367
time 9
    0 -0.209386 -0.074216 37.578606 1.536347 -0.004988 -0.153948
    1 0.003911 3.345130 -2.981901 1.538568 0.085110 1.536441
    2 4.018332 0.000000 0.000000 -0.153942 0.004255 -0.044121
    3 3.518568 0.000000 0.000000 -0.037957 -0.016124 0.243047
    4 8.942644 0.000001 0.000000 -0.160820 0.061618 0.300319
    5 3.307229 0.000016 0.000000 3.141590 0.000000 0.400478
    6 3.593715 -0.000001 0.000000 0.539915 0.037249 0.678618
    7 2.033438 1.000749 -1.937609 -0.329965 1.439553 4.285297
    8 6.028158 -0.000003 0.000000 0.809855 -0.069267 -0.777072
    9 11.692549 0.000000 0.000000 0.000009 0.000000 -1.471723
    10 11.481700 0.000000 0.000001 -1.467421 -0.108107 0.368502
    11 4.082334 0.078346 1.450916 0.411052 -0.100735 -0.750415
    12 1.023488 -0.000013 -0.000005 0.082425 -0.261829 -0.606990
    13 0.940310 -0.000007 0.000000 0.205117 -0.375115 -0.993792
    14 4.133708 0.077641 0.528688 0.141549 -0.230841 -0.630796
    15 1.222685 -0.000009 -0.000006 0.051545 -0.155705 -0.638320
    16 1.161169 0.000002 0.000000 0.193934 -0.249755 -1.318422
    17 4.008658 -0.073795 -0.524809 -0.175228 -0.108844 -0.553962
    18 1.426600 -0.000003 -0.000001 0.024723 -0.062421 -0.754104
    19 1.318563 -0.000009 -0.000003 0.053116 -0.082791 -1.140447
    20 4.035605 -0.051299 -1.534428 -0.367186 0.091315 -0.207606
    21 1.246750 0.000008 0.000006 -0.020985 0.074086 -0.551856
    22 1.134820 -0.000006 -0.000003 -0.037057 0.095317 -0.741321
    23 1.083362 -0.316874 -1.939450 1.056204 0.100088 -1.187492
    24 1.164764 -0.000019 -0.000002 0.016650 0.092777 0.355083
    25 1.206998 -0.000001 0.000001 0.015871 0.090657 0.346597
    26 2.033432 1.000746 1.937661 1.720645 -1.185455 2.827703
    27 6.028153 0.000003 0.000000 -1.419133 -0.487998 -0.809516
    28 11.692553 0.000000 0.000000 -0.000009 0.000000 -0.361056
    29 11.481668 0.000000 0.000001 1.378353 0.083535 -0.140510
    30 4.078465 0.060731 -1.453695 -0.176335 -0.027152 -0.592108
    31 1.019594 0.000011 -0.000001 -0.250695 0.348526 -1.242434
    32 0.940314 0.000010 -0.000004 -0.093052 0.247161 -0.717251
    33 4.133739 0.070217 -0.529097 -0.028851 0.000975 -0.613794
    34 1.222682 0.000004 -0.000001 -0.131400 0.200267 -1.159578
    35 1.157261 -0.000005 0.000004 -0.046187 0.134822 -0.659234
    36 4.008691 -0.074109 0.525203 0.125547 -0.002036 -0.635735
    37 1.426598 -0.000013 0.000016 -0.043896 0.063985 -1.202500
    38 1.318564 -0.000004 0.000005 -0.016179 0.044280 -0.701214
    39 4.035646 -0.044193 1.531699 0.336195 0.032932 -0.814525
    40 1.246759 -0.000007 -0.000001 0.061962 -0.118902 -0.960205
    41 1.134815 -0.000006 0.000009 0.048034 -0.107893 -0.837277
    42 1.083394 -0.302051 1.942373 -1.127924 -0.372958 -0.924165
    43 1.164769 -0.000017 0.000002 0.003359 0.026646 0.251691
    44 1.206993 -0.000001 0.000000 0.000002 0.000011 0.000040
    45 -3.890452 0.000007 0.000007 -1.399585 0.066152 -1.678599
    46 17.848173 0.000000 0.000000 0.000000 0.000000 0.358031
    47 15.634601 0.000083 0.000001 0.318194 0.192078 -1.211685
    48 7.336499 -0.000038 0.000002 -0.080999 -0.003276 -0.673341
    49 3.890452 -0.000004 -0.000003 -1.843783 -0.070654 -1.570347
    50 17.848175 0.000000 0.000000 -0.000001 0.000000 0.457801
    51 15.638496 -0.000101 -0.000001 -0.037299 -0.062011 -1.241003
    52 7.332594 0.000039 0.000001 -0.006964 -0.003276 -0.673367
time 10
    0 -0.459394 -0.074216 37.484853 1.536406 -0.005292 -0.163070
    1 0.003911 3.345130 -2.981901 1.537719 0.083942 1.504125
    2 4.018332 0.000000 0.000000 -0.153235 0.004914 -0.043506
    3 3.518568 0.000000 0.000000 -0.039509 -0.032783 0.246762
    4 8.942644 0.000001 0.000000 -0.163433 0.036366 0.306048
    5 3.307229 0.000016 0.000000 3.141590 0.000000 0.400478
    6 3.593715 -0.000001 0.000000 0.555270 -0.033093 0.670027
    7 2.033438 1.000749 -1.937609 -0.397272 1.431961 4.217490
    8 6.028158 -0.000003 0.000000 0.832834 -0.073277 -0.755355
    9 11.692549 0.000000 0.000000 0.000009 0.000000 -1.608195
    10 11.481700 0.000000 0.000001 -1.461101 -0.112943 0.371840
    11 4.078427 0.078346 1.450916 0.411052 -0.096241 -0.750483
    12 1.023488 -0.000013 -0.000005 0.082425 -0.261829 -0.606990
    13 0.940310 -0.000007 0.000000 0.205117 -0.375115 -0.993792
    14 4.133708 0.077641 0.528688 0.142496 -0.227653 -0.633480
    15 1.222685 -0.000009 -0.000006 0.051545 -0.155705 -0.638320
    16 1.157263 0.000002 0.000000 0.193934 -0.249755 -1.318422
    17 4.008658 -0.073795 -0.524809 -0.174233 -0.106926 -0.558493
    18 1.426600 -0.000003 -0.000001 0.024603 -0.062289 -0.752060
    19 1.318563 -0.000009 -0.000003 0.053847 -0.083127 -1.149243
    20 4.035605 -0.051299 -1.534428 -0.366490 0.094791 -0.204744
    21 1.246750 0.000008 0.000006 -0.020961 0.074050 -0.551531
    22 1.134820 -0.000006 -0.000003 -0.037585 0.095880 -0.746858
    23 1.083362 -0.316874 -1.939450 1.056204 0.100088 -1.187492
    24 1.164764 -0.000019 -0.000002 0.016650 0.092777 0.355083
    25 1.206998 -0.000001 0.000001 0.015871 0.090657 0.346597
    26 2.033432 1.000746 1.937661 1.768622 -1.164606 2.783247
    27 6.028153 0.000003 0.000000 -1.397723 -0.509366 -0.751211
    28 11.692553 0.000000 0.000000 -0.000009 0.000000 -0.402555
    29 11.481668 0.000000 0.000001 1.215003 0.073799 -0.097573
    30 4.078465 0.060731 -1.453695 -0.183690 -0.033324 -0.539760
    31 1.019594 0.000011 -0.000001 -0.264952 0.352769 -1.283936
    32 0.940314 0.000010 -0.000004 -0.086137 0.239251 -0.688600
    33 4.133739 0.070217 -0.529097 -0.029019 -0.008229 -0.565625
    34 1.222682 0.000004 -0.000001 -0.136817 0.202496 -1.186644
    35 1.157261 -0.000005 0.000004 -0.041021 0.127943 -0.619835
    36 4.008691 -0.074109 0.525203 0.125247 -0.010953 -0.590385
    37 1.430504 -0.000013 0.000016 -0.045921 0.064728 -1.233818
    38 1.318564 -0.000004 0.000005 -0.014645 0.042386 -0.665787
    39 4.031740 -0.044193 1.531699 0.336855 0.028749 -0.792972
    40 1.246759 -0.000007 -0.000001 0.061903 -0.118866 -0.959731
    41 1.134815 -0.000006 0.000009 0.046249 -0.106251 -0.820441
    42 1.083394 -0.302051 1.942373 -1.113353 -0.347410 -0.951741
    43 1.164769 -0.000017 0.000002 0.003359 0.026646 0.251691
    44 1.206993 -0.000001 0.000000 0.000002 0.000011 0.000040
    45 -3.890452 0.000007 0.000007 -1.397220 0.049614 -1.680763
    46 17.848173 0.000000 0.000000 0.000000 0.000000 0.399396
    47 15.638507 0.000083 0.000001 0.307802 0.185216 -1.247871
    48 7.336499 -0.000038 0.000002 -0.080999 -0.003276 -0.673341
    49 3.890452 -0.000004 -0.000003 -1.843016 -0.092726 -1.561852
    50 17.848175 0.000000 0.000000 -0.000001 0.000000 0.451644
    51 15.638496 -0.000101 -0.000001 -0.045246 -0.068436 -1.221897
    52 7.332594 0.000039 0.000001 -0.006964 -0.003276 -0.673367
time 11
    0 -0.682057 -0.074216 37.395007 1.536406 -0.005596 -0.172097
    1 0.003911 3.345130 -2.981901 1.536073 0.082977 1.478620
    2 4.018332 0.000000 0.000000 -0.149712 0.006400 -0.042394
    3 3.518568 0.000000 0.000000 -0.042931 -0.045942 0.253011
    4 8.942644 0.000001 0.000000 -0.161863 0.016340 0.312496
    5 3.307229 0.000016 0.000000 3.141590 0.000000 0.400478
    6 3.593715 -0.000001 0.000000 0.567257 -0.088168 0.669480
    7 2.033438 1.000749 -1.937609 -0.474223 1.422058 4.139722
    8 6.028158 -0.000003 0.000000 0.866991 -0.049982 -0.744730
    9 11.692549 0.000000 0.000000 0.000009 0.000000 -1.703312
    10 11.481700 0.000000 0.000001 -1.453917 -0.116727 0.375102
    11 4.078427 0.078346 1.450916 0.411079 -0.091459 -0.750620
    12 1.023488 -0.000013 -0.000005 0.082425 -0.261829 -0.606990
    13 0.940310 -0.000007 0.000000 0.205117 -0.375115 -0.993792
    14 4.133708 0.077641 0.528688 0.143491 -0.224274 -0.636375
    15 1.222685 -0.000009 -0.000006 0.051545 -0.155705 -0.638320
    16 1.161169 0.000002 0.000000 0.193934 -0.249755 -1.318422
    17 4.008658 -0.073795 -0.524809 -0.173179 -0.104877 -0.563320
    18 1.426600 -0.000003 -0.000001 0.024460 -0.062145 -0.749910
    19 1.318563 -0.000009 -0.000003 0.054626 -0.083462 -1.158631
    20 4.035605 -0.051299 -1.534428 -0.365747 0.098470 -0.201700
    21 1.246750 0.000008 0.000006 -0.020937 0.074002 -0.551207
    22 1.134820 -0.000006 -0.000003 -0.038148 0.096479 -0.752729
    23 1.083362 -0.316874 -1.939450 1.056204 0.100088 -1.187492
    24 1.164764 -0.000019 -0.000002 0.016650 0.092777 0.355083
    25 1.206998 -0.000001 0.000001 0.015871 0.090657 0.346597
    26 2.033432 1.000746 1.937661 1.812864 -1.142658 2.743007
    27 6.028153 0.000003 0.000000 -1.377078 -0.539534 -0.714024
    28 11.692553 0.000000 0.000000 -0.000009 0.000000 -0.437973
    29 11.481668 0.000000 0.000001 1.038948 0.072610 -0.041490
    30 4.078465 0.060731 -1.453695 -0.191484 -0.039209 -0.486401
    31 1.019594 0.000011 -0.000001 -0.279659 0.356532 -1.326263
    32 0.940314 0.000010 -0.000004 -0.079378 0.231005 -0.659529
    33 4.137646 0.070217 -0.529097 -0.029654 -0.017589 -0.516665
    34 1.222682 0.000004 -0.000001 -0.142378 0.204618 -1.214195
    35 1.157261 -0.000005 0.000004 -0.036060 0.120740 -0.579827
    36 4.008691 -0.074109 0.525203 0.124528 -0.019989 -0.544321
    37 1.426598 -0.000013 0.000016 -0.047994 0.065411 -1.265721
    38 1.318564 -0.000004 0.000005 -0.013159 0.040421 -0.629708
    39 4.035646 -0.044193 1.531699 0.337442 0.024483 -0.771068
    40 1.246759 -0.000007 -0.000001 0.061855 -0.118818 -0.959256
    41 1.134815 -0.000006 0.000009 0.044451 -0.104561 -0.803359
    42 1.083394 -0.302051 1.942373 -1.099368 -0.321071 -0.979169
    43 1.164769 -0.000017 0.000002 0.003359 0.026646 0.251691
    44 1.206993 -0.000001 0.000000 0.000002 0.000011 0.000040
    45 -3.890452 0.000007 0.000007 -1.392321 0.026058 -1.684629
    46 17.848173 0.000000 0.000000 0.000000 0.000000 0.453601
    47 15.634601 0.000083 0.000001 0.297809 0.175091 -1.280983
    48 7.336499 -0.000038 0.000002 -0.080999 -0.003276 -0.673341
    49 3.890452 -0.000004 -0.000003 -1.844549 -0.172158 -1.535411
    50 17.848175 0.000000 0.000000 -0.000001 0.000000 0.483258
    51 15.638496 -0.000101 -0.000001 -0.055044 -0.073651 -1.169875
    52 7.332594 0.000039 0.000001 -0.006964 -0.003276 -0.673367
time 12
    0 -0.869563 -0.074216 37.301254 1.536465 -0.005931 -0.181124
    1 0.003911 3.345130 -2.981901 1.532516 0.082554 1.469373
    2 4.018332 0.000000 0.000000 -0.145385 0.009084 -0.040037
    3 3.518568 0.000000 0.000000 -0.050437 -0.050700 0.264811
    4 8.942644 0.000001 0.000000 -0.155343 0.009617 0.320262
    5 3.307229 0.000016 0.000000 3.141590 0.000000 0.400478
    6 3.593715 -0.000001 0.000000 0.579024 -0.106136 0.687016
    7 2.033438 1.000749 -1.937609 -0.523772 1.410959 4.089537
    8 6.028158 -0.000003 0.000000 0.909488 0.020524 -0.746967
    9 11.692549 0.000000 0.000000 0.000009 0.000000 -1.731660
    10 11.481700 0.000000 0.000001 -1.440945 -0.118010 0.379322
    11 4.082334 0.078346 1.450916 0.411079 -0.083861 -0.750893
    12 1.023488 -0.000013 -0.000005 0.082425 -0.261829 -0.606990
    13 0.940310 -0.000007 0.000000 0.205117 -0.375115 -0.993792
    14 4.133708 0.077641 0.528688 0.145049 -0.218881 -0.640901
    15 1.222685 -0.000009 -0.000006 0.051545 -0.155705 -0.638320
    16 1.157263 0.000002 0.000000 0.193934 -0.249755 -1.318422
    17 4.008658 -0.073795 -0.524809 -0.171525 -0.101629 -0.571003
    18 1.430506 -0.000003 -0.000001 0.024256 -0.061918 -0.746457
    19 1.318563 -0.000009 -0.000003 0.055872 -0.084002 -1.173516
    20 4.035605 -0.051299 -1.534428 -0.364549 0.104318 -0.196834
    21 1.246750 0.000008 0.000006 -0.020901 0.073942 -0.550687
    22 1.134820 -0.000006 -0.000003 -0.039047 0.097438 -0.762036
    23 1.083362 -0.316874 -1.939450 1.056204 0.100088 -1.187492
    24 1.168670 -0.000019 -0.000002 0.016650 0.092777 0.355083
    25 1.206998 -0.000001 0.000001 0.015871 0.090657 0.346597
    26 2.033432 1.000746 1.937661 1.853276 -1.120004 2.706886
    27 6.028153 0.000003 0.000000 -1.366182 -0.584078 -0.708604
    28 11.692553 0.000000 0.000000 -0.000009 0.000000 -0.475444
    29 11.481668 0.000000 0.000001 0.856421 0.083200 0.021479
    30 4.078465 0.060731 -1.453695 -0.199629 -0.044674 -0.432797
    31 1.019594 0.000011 -0.000001 -0.294611 0.359708 -1.368903
    32 0.940314 0.000010 -0.000004 -0.072834 0.222544 -0.630457
    33 4.137646 0.070217 -0.529097 -0.030757 -0.026925 -0.467458
    34 1.222682 0.000004 -0.000001 -0.148035 0.206595 -1.241859
    35 1.157261 -0.000005 0.000004 -0.031374 0.113310 -0.539698
    36 4.008691 -0.074109 0.525203 0.123402 -0.029026 -0.497959
    37 1.426598 -0.000013 0.000016 -0.050092 0.066034 -1.297734
    38 1.318564 -0.000004 0.000005 -0.011733 0.038384 -0.593483
    39 4.035646 -0.044193 1.531699 0.337933 0.020180 -0.749068
    40 1.242853 -0.000007 -0.000001 0.061795 -0.118782 -0.958781
    41 1.134815 -0.000006 0.000009 0.042665 -0.102823 -0.786170
    42 1.083394 -0.302051 1.942373 -1.086188 -0.294247 -1.006010
    43 1.164769 -0.000017 0.000002 0.003359 0.026646 0.251691
    44 1.206993 -0.000001 0.000000 0.000002 0.000011 0.000040
    45 -3.890452 0.000007 0.000007 -1.384719 0.011433 -1.686638
    46 17.848173 0.000000 0.000000 0.000000 0.000000 0.487733
    47 15.638507 0.000083 0.000001 0.285947 0.163474 -1.303452
    48 7.336499 -0.000038 0.000002 -0.080999 -0.003276 -0.673341
    49 3.890452 -0.000004 -0.000003 -1.849150 -0.249387 -1.506203
    50 17.848175 0.000000 0.000000 -0.000001 0.000000 0.480855
    51 15.638496 -0.000101 -0.000001 -0.066013 -0.076424 -1.085365
    52 7.332594 0.000039 0.000001 -0.006964 -0.003276 -0.673367
time 13
    0 -0.998473 -0.074216 37.199688 1.536524 -0.006235 -0.190246
    1 0.003911 3.345130 -2.981901 1.527100 0.082690 1.475289
    2 4.018332 0.000000 0.000000 -0.140471 0.012955 -0.036467
    3 3.518568 0.000000 0.000000 -0.061936 -0.047728 0.282104
    4 8.942644 0.000001 0.000000 -0.144138 0.014938 0.329574
    5 3.307229 0.000016 0.000000 3.141590 0.000000 0.400478
    6 3.593715 -0.000001 0.000000 0.591011 -0.089803 0.721605
    7 2.033438 1.000749 -1.937609 -0.546686 1.400685 4.066360
    8 6.028158 -0.000003 0.000000 0.955090 0.157764 -0.773343
    9 11.692549 0.000000 0.000000 0.000009 0.000000 -1.669927
    10 11.481700 0.000000 0.000001 -1.423983 -0.115707 0.383658
    11 4.082334 0.078346 1.450916 0.411107 -0.074645 -0.751098
    12 1.023488 -0.000013 -0.000005 0.082425 -0.261829 -0.606990
    13 0.940310 -0.000007 0.000000 0.205117 -0.375115 -0.993792
    14 4.133708 0.077641 0.528688 0.146906 -0.212337 -0.646322
    15 1.222685 -0.000009 -0.000006 0.051545 -0.155705 -0.638320
    16 1.157263 0.000002 0.000000 0.193934 -0.249755 -1.318422
    17 4.008658 -0.073795 -0.524809 -0.169559 -0.097662 -0.580311
    18 1.430506 -0.000003 -0.000001 0.023992 -0.061630 -0.742264
    19 1.318563 -0.000009 -0.000003 0.057382 -0.084613 -1.191573
    20 4.035605 -0.051299 -1.534428 -0.363039 0.111413 -0.190928
    21 1.246750 0.000008 0.000006 -0.020853 0.073870 -0.550071
    22 1.134820 -0.000006 -0.000003 -0.040150 0.098577 -0.773345
    23 1.083362 -0.316874 -1.939450 1.056204 0.100088 -1.187492
    24 1.168670 -0.000019 -0.000002 0.016650 0.092777 0.355083
    25 1.206998 -0.000001 0.000001 0.015871 0.090657 0.346597
    26 2.033432 1.000746 1.937661 1.889857 -1.096996 2.674981
    27 6.028153 0.000003 0.000000 -1.365705 -0.639037 -0.724862
    28 11.692553 0.000000 0.000000 -0.000009 0.000000 -0.521048
    29 11.481668 0.000000 0.000001 0.673737 0.106165 0.084448
    30 4.078465 0.060731 -1.453695 -0.207993 -0.049671 -0.379548
    31 1.019594 0.000011 -0.000001 -0.309563 0.362261 -1.411268
    32 0.940314 0.000010 -0.000004 -0.066614 0.213975 -0.601737
    33 4.137646 0.070217 -0.529097 -0.032291 -0.036129 -0.418646
    34 1.222682 0.000004 -0.000001 -0.153691 0.208393 -1.269336
    35 1.157261 -0.000005 0.000004 -0.027023 0.105771 -0.499995
    36 4.008691 -0.074109 0.525203 0.121868 -0.037918 -0.451984
    37 1.426598 -0.000013 0.000016 -0.052201 0.066585 -1.329454
    38 1.322470 -0.000004 0.000005 -0.010403 0.036322 -0.557621
    39 4.035646 -0.044193 1.531699 0.338329 0.015914 -0.727259
    40 1.242853 -0.000007 -0.000001 0.061735 -0.118746 -0.958307
    41 1.134815 -0.000006 0.000009 0.040927 -0.101074 -0.769158
    42 1.083394 -0.302051 1.942373 -1.073960 -0.267347 -1.032114
    43 1.164769 -0.000017 0.000002 0.003359 0.026646 0.251691
    44 1.206993 -0.000001 0.000000 0.000002 0.000011 0.000040
    45 -3.890452 0.000007 0.000007 -1.375597 0.003506 -1.687952
    46 17.848173 0.000000 0.000000 0.000000 0.000000 0.506343
    47 15.638507 0.000083 0.000001 0.273138 0.150347 -1.317075
    48 7.336499 -0.000038 0.000002 -0.080999 -0.003276 -0.673341
    49 3.890452 -0.000004 -0.000003 -1.854806 -0.303027 -1.481958
    50 17.848175 0.000000 0.000000 -0.000001 0.000000 0.454197
    51 15.638496 -0.000101 -0.000001 -0.077055 -0.077342 -0.997638
    52 7.332594 0.000039 0.000001 -0.006964 -0.003276 -0.673367
time 14
    0 -1.049256 -0.074216 37.105935 1.536524 -0.006539 -0.199273
    1 0.003911 3.345130 -2.981901 1.520729 0.083130 1.487768
    2 4.018332 0.000000 0.000000 -0.134072 0.017545 -0.032250
    3 3.518568 0.000000 0.000000 -0.075331 -0.041400 0.302193
    4 8.942644 0.000001 0.000000 -0.129636 0.024885 0.340024
    5 3.307229 0.000016 0.000000 3.141590 0.000000 0.400478
    6 3.593715 -0.000001 0.000000 0.601860 -0.058987 0.764076
    7 2.033438 1.000749 -1.937609 -0.566639 1.390411 4.045865
    8 6.028158 -0.000003 0.000000 0.990933 0.351379 -0.821436
    9 11.692549 0.000000 0.000000 0.000009 0.000000 -1.534583
    10 11.481700 0.000000 0.000001 -1.406221 -0.110969 0.387457
    11 4.082334 0.078346 1.450916 0.411134 -0.065501 -0.751371
    12 1.023488 -0.000013 -0.000005 0.082425 -0.261829 -0.606990
    13 0.940310 -0.000007 0.000000 0.205117 -0.375115 -0.993792
    14 4.133708 0.077641 0.528688 0.148704 -0.205829 -0.651742
    15 1.222685 -0.000009 -0.000006 0.051545 -0.155705 -0.638320
    16 1.157263 0.000002 0.000000 0.193934 -0.249755 -1.318422
    17 4.008658 -0.073795 -0.524809 -0.167642 -0.093707 -0.589423
    18 1.426600 -0.000003 -0.000001 0.023740 -0.061354 -0.738106
    19 1.318563 -0.000009 -0.000003 0.058892 -0.085212 -1.209503
    20 4.035605 -0.051299 -1.534428 -0.361517 0.118436 -0.185048
    21 1.246750 0.000008 0.000006 -0.020793 0.073799 -0.549454
    22 1.134820 -0.000006 -0.000003 -0.041264 0.099691 -0.784586
    23 1.083362 -0.316874 -1.939450 1.056204 0.100088 -1.187492
    24 1.164764 -0.000019 -0.000002 0.016650 0.092777 0.355083
    25 1.206998 -0.000001 0.000001 0.015871 0.090657 0.346597
    26 2.033432 1.000746 1.937661 1.922799 -1.074106 2.647101
    27 6.028153 0.000003 0.000000 -1.370961 -0.690524 -0.741307
    28 11.692553 0.000000 0.000000 -0.000009 0.000000 -0.579648
    29 11.481668 0.000000 0.000001 0.496972 0.139311 0.141009
    30 4.078465 0.060731 -1.453695 -0.216416 -0.054118 -0.327445
    31 1.019594 0.000011 -0.000001 -0.324322 0.364190 -1.452771
    32 0.940314 0.000010 -0.000004 -0.060790 0.205418 -0.573753
    33 4.137646 0.070217 -0.529097 -0.034232 -0.045058 -0.370899
    34 1.222682 0.000004 -0.000001 -0.159288 0.210011 -1.296252
    35 1.157261 -0.000005 0.000004 -0.023080 0.098233 -0.461204
    36 4.008691 -0.074109 0.525203 0.119950 -0.046547 -0.406961
    37 1.426598 -0.000013 0.000016 -0.054274 0.067065 -1.360516
    38 1.318564 -0.000004 0.000005 -0.009144 0.034261 -0.522484
    39 4.035646 -0.044193 1.531699 0.338616 0.011731 -0.705930
    40 1.246759 -0.000007 -0.000001 0.061687 -0.118698 -0.957832
    41 1.134815 -0.000006 0.000009 0.039262 -0.099336 -0.752500
    42 1.083394 -0.302051 1.946279 -1.062830 -0.240727 -1.057116
    43 1.164769 -0.000017 0.000002 0.003359 0.026646 0.251691
    44 1.206993 -0.000001 0.000000 0.000002 0.000011 0.000040
    45 -3.890452 0.000007 0.000007 -1.365208 -0.001916 -1.690658
    46 17.848173 0.000000 0.000000 0.000000 0.000000 0.518534
    47 15.638507 0.000083 0.000001 0.260927 0.135038 -1.326109
    48 7.336499 -0.000038 0.000002 -0.080999 -0.003276 -0.673341
    49 3.890452 -0.000004 -0.000003 -1.859406 -0.339194 -1.464586
    50 17.848175 0.000000 0.000000 -0.000001 0.000000 0.470417
    51 15.638496 -0.000101 -0.000001 -0.087268 -0.079217 -0.963730
    52 7.332594 0.000039 0.000001 -0.006964 -0.003276 -0.673367
time 15
    0 -0.975035 -0.074216 37.012182 1.536583 -0.006843 -0.208300
    1 0.003911 3.345130 -2.981901 1.513721 0.083908 1.504970
    2 4.018332 0.000000 0.000000 -0.126569 0.022627 -0.027619
    3 3.518568 0.000000 0.000000 -0.089880 -0.032411 0.324103
    4 8.942644 0.000001 0.000000 -0.112666 0.038236 0.351350
    5 3.307229 0.000016 0.000000 3.141590 0.000000 0.400478
    6 3.593715 -0.000001 0.000000 0.612928 -0.017187 0.811824
    7 2.033438 1.000749 -1.937609 -0.589075 1.377868 4.022784
    8 6.028158 -0.000003 0.000000 1.000249 0.576643 -0.879874
    9 11.692549 0.000000 0.000000 0.000009 0.000000 -1.359011
    10 11.481700 0.000000 0.000001 -1.385068 -0.105738 0.392023
    11 4.078427 0.078346 1.450916 0.411134 -0.054631 -0.751713
    12 1.019582 -0.000013 -0.000005 0.082425 -0.261829 -0.606990
    13 0.940310 -0.000007 0.000000 0.205117 -0.375115 -0.993792
    14 4.133708 0.077641 0.528688 0.150789 -0.198075 -0.658163
    15 1.222685 -0.000009 -0.000006 0.051545 -0.155705 -0.638320
    16 1.161169 0.000002 0.000000 0.193934 -0.249755 -1.318422
    17 4.008658 -0.073795 -0.524809 -0.165413 -0.088974 -0.600406
    18 1.430506 -0.000003 -0.000001 0.023429 -0.061019 -0.733138
    19 1.318563 -0.000009 -0.000003 0.060738 -0.085871 -1.230858
    20 4.035605 -0.051299 -1.534428 -0.359635 0.126778 -0.178023
    21 1.246750 0.000008 0.000006 -0.020745 0.073703 -0.548708
    22 1.134820 -0.000006 -0.000003 -0.042606 0.101010 -0.797930
    23 1.083362 -0.316874 -1.939450 1.056204 0.100088 -1.187492
    24 1.168670 -0.000019 -0.000002 0.016650 0.092777 0.355083
    25 1.206998 -0.000001 0.000001 0.015871 0.090657 0.346597
    26 2.033432 1.000746 1.937661 1.952198 -1.051648 2.622861
    27 6.028153 0.000003 0.000000 -1.383865 -0.731401 -0.749716
    28 11.692553 0.000000 0.000000 -0.000009 0.000000 -0.654818
    29 11.481668 0.000000 0.000001 0.331254 0.177920 0.185824
    30 4.078465 0.060731 -1.453695 -0.224751 -0.057989 -0.277036
    31 1.019594 0.000011 -0.000001 -0.338643 0.365496 -1.492900
    32 0.940314 0.000010 -0.000004 -0.055409 0.197017 -0.546855
    33 4.133739 0.070217 -0.529097 -0.036509 -0.053567 -0.324709
    34 1.222682 0.000004 -0.000001 -0.164717 0.211437 -1.322234
    35 1.157261 -0.000005 0.000004 -0.019545 0.090815 -0.423874
    36 4.008691 -0.074109 0.525203 0.117757 -0.054792 -0.363486
    37 1.426598 -0.000013 0.000016 -0.056288 0.067460 -1.390482
    38 1.318564 -0.000004 0.000005 -0.008030 0.032224 -0.488580
    39 4.031740 -0.044193 1.531699 0.338820 0.007692 -0.685334
    40 1.246759 -0.000007 -0.000001 0.061627 -0.118662 -0.957394
    41 1.134815 -0.000006 0.000009 0.037692 -0.097622 -0.736443
    42 1.083394 -0.302051 1.942373 -1.052726 -0.214796 -1.080794
    43 1.164769 -0.000017 0.000002 0.003359 0.026646 0.251691
    44 1.206993 -0.000001 0.000000 0.000002 0.000011 0.000040
    45 -3.890452 0.000007 0.000007 -1.354143 -0.006153 -1.696378
    46 17.848173 0.000000 0.000000 0.000000 0.000000 0.526091
    47 15.638507 0.000083 0.000001 0.250685 0.117194 -1.330745
    48 7.336499 -0.000038 0.000002 -0.080999 -0.003276 -0.673341
    49 3.890452 -0.000004 -0.000003 -1.860748 -0.344871 -1.461818
    50 17.848175 0.000000 0.000000 -0.000001 0.000000 0.487163
    51 15.638496 -0.000101 -0.000001 -0.092484 -0.085779 -0.984586
    52 7.332594 0.000039 0.000001 -0.006964 -0.003276 -0.673367
time 16
    0 -0.771904 -0.074216 36.922336 1.536701 -0.007178 -0.217422
    1 0.003911 3.345130 -2.981901 1.506341 0.084957 1.525205
    2 4.018332 0.000000 0.000000 -0.118396 0.027936 -0.022655
    3 3.518568 0.000000 0.000000 -0.104946 -0.021445 0.346902
    4 8.942644 0.000001 0.000000 -0.094054 0.053780 0.363298
    5 3.307229 0.000016 0.000000 3.141590 0.000000 0.400478
    6 3.593715 -0.000001 0.000000 0.625177 0.031953 0.862469
    7 2.033438 1.000749 -1.937609 -0.616762 1.360745 3.994052
    8 6.028158 -0.000003 0.000000 0.967245 0.804772 -0.949404
    9 11.692549 0.000000 0.000000 0.000009 0.000000 -1.177124
    10 11.481700 0.000000 0.000001 -1.357661 -0.101428 0.398546
    11 4.082334 0.078346 1.450916 0.411162 -0.040237 -0.752122
    12 1.023488 -0.000013 -0.000005 0.082425 -0.261829 -0.606990
    13 0.940310 -0.000007 0.000000 0.205117 -0.375115 -0.993792
    14 4.133708 0.077641 0.528688 0.153474 -0.187793 -0.666584
    15 1.222685 -0.000009 -0.000006 0.051545 -0.155705 -0.638320
    16 1.161169 0.000002 0.000000 0.193934 -0.249755 -1.318422
    17 4.008658 -0.073795 -0.524809 -0.162548 -0.082682 -0.614886
    18 1.430506 -0.000003 -0.000001 0.023033 -0.060575 -0.726619
    19 1.318563 -0.000009 -0.000003 0.063171 -0.086686 -1.259064
    20 4.035605 -0.051299 -1.534428 -0.357059 0.137803 -0.168708
    21 1.246750 0.000008 0.000006 -0.020674 0.073595 -0.547734
    22 1.134820 -0.000006 -0.000003 -0.044404 0.102723 -0.815610
    23 1.083362 -0.316874 -1.939450 1.056204 0.100088 -1.187492
    24 1.164764 -0.000019 -0.000002 0.016650 0.092777 0.355083
    25 1.206998 -0.000001 0.000001 0.015871 0.090657 0.346597
    26 2.033432 1.000746 1.937661 1.979873 -1.028679 2.600824
    27 6.028153 0.000003 0.000000 -1.417317 -0.742501 -0.737663
    28 11.692553 0.000000 0.000000 -0.000009 0.000000 -0.760922
    29 11.481668 0.000000 0.000001 0.164747 0.224369 0.224526
    30 4.078465 0.060731 -1.453695 -0.233393 -0.061476 -0.226025
    31 1.019594 0.000011 -0.000001 -0.353196 0.366275 -1.533540
    32 0.940314 0.000010 -0.000004 -0.050208 0.188364 -0.519678
    33 4.133739 0.070217 -0.529097 -0.039218 -0.062076 -0.277951
    34 1.222682 0.000004 -0.000001 -0.170266 0.212731 -1.348552
    35 1.157261 -0.000005 0.000004 -0.016261 0.083180 -0.386088
    36 4.008691 -0.074109 0.525203 0.115156 -0.063026 -0.319415
    37 1.426598 -0.000013 0.000016 -0.058337 0.067808 -1.420850
    38 1.318564 -0.000004 0.000005 -0.006963 0.030126 -0.454277
    39 4.031740 -0.044193 1.531699 0.338940 0.003593 -0.664484
    40 1.242853 -0.000007 -0.000001 0.061579 -0.118626 -0.956919
    41 1.134815 -0.000006 0.000009 0.036122 -0.095872 -0.720209
    42 1.083394 -0.302051 1.942373 -1.043280 -0.188304 -1.104399
    43 1.164769 -0.000017 0.000002 0.003359 0.026646 0.251691
    44 1.206993 -0.000001 0.000000 0.000002 0.000011 0.000040
    45 -3.890452 0.000007 0.000007 -1.343078 -0.010072 -1.705422
    46 17.848173 0.000000 0.000000 0.000000 0.000000 0.530967
    47 15.638507 0.000083 0.000001 0.242660 0.097037 -1.331786
    48 7.336499 -0.000038 0.000002 -0.080999 -0.003276 -0.673341
    49 3.890452 -0.000004 -0.000003 -1.862665 -0.360924 -1.459336
    50 17.848175 0.000000 0.000000 -0.000001 0.000000 0.521255
    51 15.638496 -0.000101 -0.000001 -0.096141 -0.094528 -1.004637
    52 7.332594 0.000039 0.000001 -0.006964 -0.003276 -0.673367
time 17
    0 -0.494551 -0.074216 36.824677 1.536701 -0.007482 -0.226449
    1 0.003911 3.345130 -2.981901 1.498961 0.086209 1.546832
    2 4.018332 0.000000 0.000000 -0.109923 0.033281 -0.017608
    3 3.518568 0.000000 0.000000 -0.119880 -0.009293 0.369671
    4 8.942644 0.000001 0.000000 -0.074675 0.070367 0.375535
    5 3.307229 0.000016 0.000000 3.141590 0.000000 0.400478
    6 3.593715 -0.000001 0.000000 0.639219 0.084736 0.913820
    7 2.033438 1.000749 -1.937609 -0.650081 1.336566 3.959095
    8 6.028158 -0.000003 0.000000 0.878347 1.003925 -1.037294
    9 11.692549 0.000000 0.000000 0.000009 0.000000 -1.026515
    10 11.481700 0.000000 0.000001 -1.321274 -0.099190 0.408138
    11 4.082334 0.078346 1.450916 0.411190 -0.020510 -0.752669
    12 1.023488 -0.000013 -0.000005 0.082425 -0.261829 -0.606990
    13 0.940310 -0.000007 0.000000 0.205117 -0.375115 -0.993792
    14 4.133708 0.077641 0.528688 0.156985 -0.173675 -0.678057
    15 1.222685 -0.000009 -0.000006 0.051545 -0.155705 -0.638320
    16 1.161169 0.000002 0.000000 0.193934 -0.249755 -1.318422
    17 4.008658 -0.073795 -0.524809 -0.158761 -0.073993 -0.634635
    18 1.430506 -0.000003 -0.000001 0.022494 -0.059964 -0.717634
    19 1.318563 -0.000009 -0.000003 0.066526 -0.087705 -1.297800
    20 4.035605 -0.051299 -1.534428 -0.353367 0.152868 -0.155881
    21 1.246750 0.000008 0.000006 -0.020566 0.073427 -0.546404
    22 1.134820 -0.000006 -0.000003 -0.046921 0.105024 -0.839828
    23 1.083362 -0.316874 -1.939450 1.056204 0.100088 -1.187492
    24 1.164764 -0.000019 -0.000002 0.016650 0.092777 0.355083
    25 1.206998 -0.000001 0.000001 0.015871 0.090669 0.346597
    26 2.033432 1.000746 1.937661 2.006495 -1.004729 2.580321
    27 6.028153 0.000003 0.000000 -1.472179 -0.719715 -0.709259
    28 11.692553 0.000000 0.000000 -0.000009 0.000000 -0.893856
    29 11.481668 0.000000 0.000001 -0.010598 0.282933 0.260760
    30 4.078465 0.060731 -1.453695 -0.242474 -0.064604 -0.173349
    31 1.019594 0.000011 -0.000001 -0.368225 0.366503 -1.575513
    32 0.940314 0.000010 -0.000004 -0.045102 0.179304 -0.491764
    33 4.137646 0.070217 -0.529097 -0.042418 -0.070705 -0.229659
    34 1.222682 0.000004 -0.000001 -0.176019 0.213930 -1.375730
    35 1.157261 -0.000005 0.000004 -0.013181 0.075187 -0.347145
    36 4.008691 -0.074109 0.525203 0.112100 -0.071391 -0.273916
    37 1.426598 -0.000013 0.000016 -0.060458 0.068096 -1.452169
    38 1.318564 -0.000004 0.000005 -0.005920 0.027921 -0.418923
    39 4.035646 -0.044193 1.531699 0.338976 -0.000637 -0.642963
    40 1.246759 -0.000007 -0.000001 0.061519 -0.118590 -0.956481
    41 1.134815 -0.000006 0.000009 0.034540 -0.094039 -0.703444
    42 1.083394 -0.302051 1.942373 -1.034201 -0.160765 -1.128371
    43 1.164769 -0.000017 0.000002 0.003359 0.026646 0.251691
    44 1.206993 -0.000001 0.000000 0.000002 0.000011 0.000040
    45 -3.890452 0.000007 0.000007 -1.331844 -0.014218 -1.716554
    46 17.848173 0.000000 0.000000 0.000000 0.000000 0.534706
    47 15.634601 0.000083 0.000001 0.236007 0.075444 -1.330698
    48 7.336499 -0.000038 0.000002 -0.080999 -0.003276 -0.673341
    49 3.890452 -0.000004 -0.000003 -1.864678 -0.379815 -1.458286
    50 17.848175 0.000000 0.000000 -0.000001 0.000000 0.558802
    51 15.638496 -0.000101 -0.000001 -0.098456 -0.104918 -1.023601
    52 7.332594 0.000039 0.000001 -0.006964 -0.003276 -0.673367
time 18
    0 -0.174229 -0.074216 36.730924 1.536760 -0.007786 -0.235476
    1 0.003911 3.345130 -2.981901 1.491740 0.087563 1.568111
    2 4.018332 0.000000 0.000000 -0.101569 0.038447 -0.012661
    3 3.518568 0.000000 0.000000 -0.134044 0.003195 0.391538
    4 8.942644 0.000001 0.000000 -0.055440 0.086821 0.387663
    5 3.307229 0.000016 0.000000 3.141590 0.000000 0.400478
    6 3.593715 -0.000001 0.000000 0.655143 0.137288 0.963853
    7 2.033438 1.000749 -1.937609 -0.693903 1.295800 3.911687
    8 6.028158 -0.000003 0.000000 0.656193 1.159495 -1.217362
    9 11.692549 0.000000 0.000000 0.000009 0.000000 -0.911849
    10 11.481700 0.000000 0.000001 -1.263001 -0.099783 0.424407
    11 4.082334 0.078346 1.450916 0.411190 0.011848 -0.753557
    12 1.023488 -0.000013 -0.000005 0.082425 -0.261829 -0.606990
    13 0.940310 -0.000007 0.000000 0.205117 -0.375115 -0.993792
    14 4.133708 0.077641 0.528688 0.162391 -0.150425 -0.696740
    15 1.222685 -0.000009 -0.000006 0.051545 -0.155705 -0.638320
    16 1.157263 0.000002 0.000000 0.193934 -0.249755 -1.318422
    17 4.008658 -0.073795 -0.524809 -0.152949 -0.059575 -0.667042
    18 1.430506 -0.000003 -0.000001 0.021619 -0.058946 -0.702941
    19 1.318563 -0.000009 -0.000003 0.072135 -0.089071 -1.361274
    20 4.035605 -0.051299 -1.534428 -0.346848 0.177472 -0.134597
    21 1.246750 0.000008 0.000006 -0.020422 0.073163 -0.544197
    22 1.134820 -0.000006 -0.000003 -0.051163 0.108656 -0.879624
    23 1.083362 -0.316874 -1.939450 1.056204 0.100088 -1.187492
    24 1.168670 -0.000019 -0.000002 0.016650 0.092777 0.355083
    25 1.206998 -0.000001 0.000001 0.015871 0.090669 0.346597
    26 2.033432 1.000746 1.937661 2.030819 -0.981132 2.562309
    27 6.028153 0.000003 0.000000 -1.533732 -0.676638 -0.679172
    28 11.692553 0.000000 0.000000 -0.000009 0.000000 -1.034314
    29 11.481668 0.000000 0.000001 -0.184917 0.348519 0.288894
    30 4.078465 0.060731 -1.453695 -0.251496 -0.067193 -0.121848
    31 1.019594 0.000011 -0.000001 -0.382894 0.366168 -1.616506
    32 0.940314 0.000010 -0.000004 -0.040380 0.170315 -0.464586
    33 4.137646 0.070217 -0.529097 -0.045953 -0.078974 -0.182406
    34 1.222682 0.000004 -0.000001 -0.181663 0.214936 -1.402272
    35 1.157261 -0.000005 0.000004 -0.010473 0.067265 -0.309146
    36 4.008691 -0.074109 0.525203 0.108757 -0.079421 -0.229429
    37 1.426598 -0.000013 0.000016 -0.062544 0.068311 -1.482793
    38 1.318564 -0.000004 0.000005 -0.005010 0.025740 -0.384330
    39 4.031740 -0.044193 1.531699 0.338916 -0.004772 -0.621952
    40 1.246759 -0.000007 -0.000001 0.061471 -0.118554 -0.956007
    41 1.134815 -0.000006 0.000009 0.033018 -0.092229 -0.687069
    42 1.083394 -0.302051 1.942373 -1.026000 -0.133686 -1.151461
    43 1.164769 -0.000017 0.000002 0.003359 0.026646 0.251691
    44 1.206993 -0.000001 0.000000 0.000002 0.000011 0.000040
    45 -3.890452 0.000007 0.000007 -1.320610 -0.018865 -1.728767
    46 17.848173 0.000000 0.000000 0.000000 0.000000 0.538688
    47 15.634601 0.000083 0.000001 0.229901 0.053236 -1.328853
    48 7.336499 -0.000038 0.000002 -0.080999 -0.003276 -0.673341
    49 3.890452 -0.000004 -0.000003 -1.866595 -0.397973 -1.458859
    50 17.848175 0.000000 0.000000 -0.000001 0.000000 0.593871
    51 15.638496 -0.000101 -0.000001 -0.099894 -0.116206 -1.041289
    52 7.332594 0.000039 0.000001 -0.006964 -0.003276 -0.673367
time 19
    0 0.130468 -0.074216 36.641077 1.536818 -0.008090 -0.244503
    1 0.003911 3.345130 -2.981901 1.485103 0.088934 1.587203
    2 4.018332 0.000000 0.000000 -0.093779 0.043192 -0.008029
    3 3.518568 0.000000 0.000000 -0.146975 0.015215 0.411671
    4 8.942644 0.000001 0.000000 -0.037295 0.102078 0.399204
    5 3.307229 0.000016 0.000000 3.141590 0.000000 0.400478
    6 3.593715 -0.000001 0.000000 0.672423 0.185806 1.010508
    7 2.033438 1.000749 -1.937609 -0.734860 1.240882 3.864663
    8 6.028158 -0.000003 0.000000 0.199196 1.243319 -1.605459
    9 11.692549 0.000000 0.000000 0.000009 0.000000 -0.811919
    10 11.481700 0.000000 0.000001 -1.186302 -0.103402 0.446009
    11 4.082334 0.078346 1.450916 0.411134 0.054765 -0.754787
    12 1.023488 -0.000013 -0.000005 0.082425 -0.261829 -0.606990
    13 0.940310 -0.000007 0.000000 0.205117 -0.375115 -0.993792
    14 4.133708 0.077641 0.528688 0.168874 -0.119444 -0.721212
    15 1.222685 -0.000009 -0.000006 0.051545 -0.155705 -0.638320
    16 1.161169 0.000002 0.000000 0.193934 -0.249755 -1.318422
    17 4.008658 -0.073795 -0.524809 -0.145962 -0.040196 -0.709792
    18 1.430506 -0.000003 -0.000001 0.020493 -0.057579 -0.683455
    19 1.318563 -0.000009 -0.000003 0.079698 -0.090342 -1.445511
    20 4.035605 -0.051299 -1.534428 -0.337308 0.209891 -0.106002
    21 1.246750 0.000008 0.000006 -0.020206 0.072816 -0.541277
    22 1.134820 -0.000006 -0.000003 -0.057012 0.113210 -0.932463
    23 1.083362 -0.316874 -1.939450 1.056204 0.100088 -1.187492
    24 1.168670 -0.000019 -0.000002 0.016650 0.092777 0.355083
    25 1.206998 -0.000001 0.000001 0.015871 0.090657 0.346597
    26 2.033432 1.000746 1.937661 2.051982 -0.959263 2.547362
    27 6.028153 0.000003 0.000000 -1.590697 -0.626031 -0.655626
    28 11.692553 0.000000 0.000000 -0.000009 0.000000 -1.167400
    29 11.481668 0.000000 0.000001 -0.348662 0.414217 0.306054
    30 4.078465 0.060731 -1.453695 -0.259919 -0.069170 -0.074387
    31 1.019594 0.000011 -0.000001 -0.396391 0.365341 -1.654203
    32 0.940314 0.000010 -0.000004 -0.036245 0.161938 -0.439618
    33 4.137646 0.070217 -0.529097 -0.049549 -0.086441 -0.138864
    34 1.222682 0.000004 -0.000001 -0.186889 0.215739 -1.426721
    35 1.157261 -0.000005 0.000004 -0.008255 0.059870 -0.274188
    36 4.008691 -0.074109 0.525203 0.105341 -0.086683 -0.188394
    37 1.426598 -0.000013 0.000016 -0.064473 0.068443 -1.510931
    38 1.318564 -0.000004 0.000005 -0.004219 0.023703 -0.352529
    39 4.035646 -0.044193 1.531699 0.338784 -0.008571 -0.602635
    40 1.246759 -0.000007 -0.000001 0.061411 -0.118518 -0.955605
    41 1.134815 -0.000006 0.000009 0.031627 -0.090527 -0.672002
    42 1.083394 -0.302051 1.942373 -1.019044 -0.108546 -1.172418
    43 1.164769 -0.000017 0.000002 0.003359 0.026646 0.251691
    44 1.206993 -0.000001 0.000000 0.000002 0.000011 0.000040
    45 -3.890452 0.000007 0.000007 -1.309461 -0.028843 -1.742218
    46 17.848173 0.000000 0.000000 0.000000 0.000000 0.552991
    47 15.634601 0.000083 0.000001 0.223895 0.031308 -1.327670
    48 7.336499 -0.000038 0.000002 -0.080999 -0.003276 -0.673341
    49 3.890452 -0.000004 -0.000003 -1.868417 -0.414759 -1.459909
    50 17.848175 0.000000 0.000000 -0.000001 0.000000 0.625785
    51 15.638496 -0.000101 -0.000001 -0.101333 -0.127553 -1.057226
    52 7.332594 0.000039 0.000001 -0.006964 -0.003276 -0.673367
time 20
    0 0.376569 -0.074216 36.547325 1.536877 -0.008394 -0.253625
    1 0.003911 3.345130 -2.981901 1.479316 0.090101 1.602516
    2 4.018332 0.000000 0.000000 -0.086936 0.047339 -0.003928
    3 3.518568 0.000000 0.000000 -0.158155 0.025834 0.429298
    4 8.942644 0.000001 0.000000 -0.021272 0.115069 0.409643
    5 3.307229 0.000016 0.000000 3.141590 0.000000 0.400478
    6 3.593715 -0.000001 0.000000 0.690140 0.226575 1.051531
    7 2.033438 1.000749 -1.937609 -0.761688 1.187738 3.830568
    8 6.028158 -0.000003 0.000000 -0.288143 1.231528 -2.020679
    9 11.692549 0.000000 0.000000 0.000009 0.000000 -0.730637
    10 11.481700 0.000000 0.000001 -1.112929 -0.108864 0.466345
    11 4.082334 0.078346 1.450916 0.411052 0.095920 -0.755948
    12 1.023488 -0.000013 -0.000005 0.082425 -0.261829 -0.606990
    13 0.940310 -0.000007 0.000000 0.205117 -0.375115 -0.993792
    14 4.133708 0.077641 0.528688 0.174351 -0.089603 -0.744421
    15 1.222685 -0.000009 -0.000006 0.051545 -0.155705 -0.638320
    16 1.161169 0.000002 0.000000 0.193934 -0.249755 -1.318422
    17 4.008658 -0.073795 -0.524809 -0.140041 -0.021356 -0.750671
    18 1.430506 -0.000003 -0.000001 0.019426 -0.056249 -0.664745
    19 1.318563 -0.000009 -0.000003 0.087020 -0.090965 -1.526323
    20 4.035605 -0.051299 -1.534428 -0.327205 0.240703 -0.078058
    21 1.246750 0.000008 0.000006 -0.019990 0.072480 -0.538486
    22 1.134820 -0.000006 -0.000003 -0.062836 0.117285 -0.983134
    23 1.083362 -0.316874 -1.939450 1.056204 0.100088 -1.187492
    24 1.164764 -0.000019 -0.000002 0.016650 0.092777 0.355083
    25 1.206998 -0.000001 0.000001 0.015871 0.090657 0.346597
    26 2.033432 1.000746 1.937661 2.069220 -0.940534 2.535769
    27 6.028153 0.000003 0.000000 -1.637340 -0.580998 -0.640676
    28 11.692553 0.000000 0.000000 -0.000009 0.000000 -1.279965
    29 11.481668 0.000000 0.000001 -0.491732 0.472409 0.312277
    30 4.078465 0.060731 -1.453695 -0.267172 -0.070537 -0.033863
    31 1.019594 0.000011 -0.000001 -0.407895 0.364274 -1.686409
    32 0.940314 0.000010 -0.000004 -0.032890 0.154687 -0.418331
    33 4.137646 0.070217 -0.529097 -0.052880 -0.092685 -0.101581
    34 1.222682 0.000004 -0.000001 -0.191371 0.216339 -1.447656
    35 1.157261 -0.000005 0.000004 -0.006566 0.053507 -0.244343
    36 4.008691 -0.074109 0.525203 0.102189 -0.092760 -0.153280
    37 1.426598 -0.000013 0.000016 -0.066127 0.068527 -1.534977
    38 1.318564 -0.000004 0.000005 -0.003583 0.021941 -0.325334
    39 4.035646 -0.044193 1.531699 0.338616 -0.011819 -0.586095
    40 1.242853 -0.000007 -0.000001 0.061375 -0.118494 -0.955240
    41 1.134815 -0.000006 0.000009 0.030489 -0.089065 -0.659129
    42 1.083394 -0.302051 1.942373 -1.013552 -0.087005 -1.190140
    43 1.164769 -0.000017 0.000002 0.003359 0.026646 0.251691
    44 1.206993 -0.000001 0.000000 0.000002 0.000011 0.000040
    45 -3.890452 0.000007 0.000007 -1.298396 -0.043832 -1.755977
    46 17.848173 0.000000 0.000000 0.000000 0.000000 0.578184
    47 15.638507 0.000083 0.000001 0.217092 0.010573 -1.328002
    48 7.336499 -0.000038 0.000002 -0.080999 -0.003276 -0.673341
    49 3.890452 -0.000004 -0.000003 -1.870717 -0.432868 -1.458859
    50 17.848175 0.000000 0.000000 -0.000001 0.000000 0.659878
    51 15.638496 -0.000101 -0.000001 -0.104428 -0.137259 -1.069144
    52 7.332594 0.000039 0.000001 -0.006964 -0.003276 -0.673367
time 21
    0 0.525011 -0.074216 36.449665 1.536877 -0.008729 -0.262652
    1 0.003911 3.345130 -2.981901 1.474591 0.090880 1.612360
    2 4.018332 0.000000 0.000000 -0.081471 0.050695 -0.000575
    3 3.518568 0.000000 0.000000 -0.167174 0.034103 0.443618
    4 8.942644 0.000001 0.000000 -0.008376 0.124741 0.418344
    5 3.307229 0.000016 0.000000 3.141590 0.000000 0.400478
    6 3.593715 -0.000001 0.000000 0.706807 0.255970 1.084382
    7 2.033438 1.000749 -1.937609 -0.774767 1.152749 3.811988
    8 6.028158 -0.000003 0.000000 -0.573289 1.188518 -2.254711
    9 11.692549 0.000000 0.000000 0.000009 0.000000 -0.673041
    10 11.481700 0.000000 0.000001 -1.064635 -0.113272 0.479429
    11 4.082334 0.078346 1.450916 0.410969 0.123005 -0.756699
    12 1.023488 -0.000013 -0.000005 0.082425 -0.261829 -0.606990
    13 0.940310 -0.000007 0.000000 0.205117 -0.375115 -0.993792
    14 4.133708 0.077641 0.528688 0.177563 -0.069924 -0.759578
    15 1.222685 -0.000009 -0.000006 0.051545 -0.155705 -0.638320
    16 1.161169 0.000002 0.000000 0.193934 -0.249755 -1.318422
    17 4.008658 -0.073795 -0.524809 -0.136578 -0.008821 -0.777463
    18 1.430506 -0.000003 -0.000001 0.018731 -0.055374 -0.652448
    19 1.318563 -0.000009 -0.000003 0.091850 -0.091049 -1.579478
    20 4.035605 -0.051299 -1.534428 -0.320038 0.260825 -0.059376
    21 1.246750 0.000008 0.000006 -0.019859 0.072252 -0.536669
    22 1.134820 -0.000006 -0.000003 -0.066791 0.119801 -1.016526
    23 1.083362 -0.316874 -1.939450 1.056204 0.100088 -1.187492
    24 1.164764 -0.000019 -0.000002 0.016650 0.092777 0.355083
    25 1.206998 -0.000001 0.000001 0.015871 0.090657 0.346597
    26 2.033432 1.000746 1.937661 2.081860 -0.926243 2.527529
    27 6.028153 0.000003 0.000000 -1.669359 -0.554643 -0.631987
    28 11.692553 0.000000 0.000000 -0.000009 0.000000 -1.358859
    29 11.481668 0.000000 0.000001 -0.602368 0.515774 0.310657
    30 4.078465 0.060731 -1.453695 -0.272714 -0.071376 -0.003060
    31 1.019594 0.000011 -0.000001 -0.416567 0.363231 -1.710887
    32 0.940314 0.000010 -0.000004 -0.030457 0.149151 -0.402235
    33 4.137646 0.070217 -0.529097 -0.055565 -0.097335 -0.073279
    34 1.222682 0.000004 -0.000001 -0.194787 0.216722 -1.463507
    35 1.157261 -0.000005 0.000004 -0.005415 0.048641 -0.221738
    36 4.008691 -0.074109 0.525203 0.099660 -0.097302 -0.126648
    37 1.426598 -0.000013 0.000016 -0.067373 0.068563 -1.553249
    38 1.318564 -0.000004 0.000005 -0.003152 0.020599 -0.304701
    39 4.031740 -0.044193 1.531699 0.338461 -0.014276 -0.573546
    40 1.242853 -0.000007 -0.000001 0.061339 -0.118470 -0.954948
    41 1.134815 -0.000006 0.000009 0.029614 -0.087939 -0.649367
    42 1.083394 -0.302051 1.942373 -1.009672 -0.070569 -1.203524
    43 1.164769 -0.000017 0.000002 0.003359 0.026646 0.251691
    44 1.206993 -0.000001 0.000000 0.000002 0.000011 0.000040
    45 -3.890452 0.000007 0.000007 -1.287500 -0.058366 -1.767572
    46 17.848173 0.000000 0.000000 0.000000 0.000000 0.604352
    47 15.638507 0.000083 0.000001 0.208494 -0.008223 -1.331407
    48 7.336499 -0.000038 0.000002 -0.080999 -0.003276 -0.673341
    49 3.890452 -0.000004 -0.000003 -1.873113 -0.450095 -1.455232
    50 17.848175 0.000000 0.000000 -0.000001 0.000000 0.692994
    51 15.638496 -0.000101 -0.000001 -0.109961 -0.144466 -1.076994
    52 7.336500 0.000039 0.000001 -0.006964 -0.003276 -0.673367
time 22
    0 0.540637 -0.074216 36.355912 1.536936 -0.009033 -0.271679
    1 0.003911 3.345130 -2.981901 1.471936 0.090863 1.612708
    2 4.018332 0.000000 0.000000 -0.078523 0.052528 0.001301
    3 3.518568 0.000000 0.000000 -0.172134 0.038454 0.451543
    4 8.942644 0.000001 0.000000 -0.001353 0.129642 0.423257
    5 3.307229 0.000016 0.000000 3.141590 0.000000 0.400478
    6 3.593715 -0.000001 0.000000 0.717175 0.266811 1.101114
    7 2.033438 1.000749 -1.937609 -0.778873 1.139587 3.805667
    8 6.028158 -0.000003 0.000000 -0.686318 1.163314 -2.349126
    9 11.692549 0.000000 0.000000 0.000009 0.000000 -0.644694
    10 11.481700 0.000000 0.000001 -1.046408 -0.115016 0.484263
    11 4.082334 0.078346 1.450916 0.410941 0.133204 -0.756972
    12 1.023488 -0.000013 -0.000005 0.082425 -0.261829 -0.606990
    13 0.940310 -0.000007 0.000000 0.205117 -0.375115 -0.993792
    14 4.133708 0.077641 0.528688 0.178702 -0.062482 -0.765262
    15 1.222685 -0.000009 -0.000006 0.051545 -0.155705 -0.638320
    16 1.161169 0.000002 0.000000 0.193934 -0.249755 -1.318422
    17 4.008658 -0.073795 -0.524809 -0.135355 -0.004075 -0.787560
    18 1.426600 -0.000003 -0.000001 0.018479 -0.055039 -0.647796
    19 1.318563 -0.000009 -0.000003 0.093672 -0.091013 -1.599565
    20 4.035605 -0.051299 -1.534428 -0.317222 0.268376 -0.052299
    21 1.246750 0.000008 0.000006 -0.019811 0.072169 -0.535955
    22 1.134820 -0.000006 -0.000003 -0.068301 0.120712 -1.029135
    23 1.083362 -0.316874 -1.939450 1.056204 0.100088 -1.187492
    24 1.164764 -0.000019 -0.000002 0.016650 0.092777 0.355083
    25 1.206998 -0.000001 0.000001 0.015871 0.090657 0.346597
    26 2.033432 1.000746 1.937661 2.088181 -0.918861 2.523505
    27 6.028153 0.000003 0.000000 -1.685511 -0.543935 -0.624792
    28 11.692553 0.000000 0.000000 -0.000009 0.000000 -1.395721
    29 11.481668 0.000000 0.000001 -0.660290 0.537290 0.307342
    30 4.078465 0.060731 -1.453695 -0.275609 -0.071747 0.012860
    31 1.019594 0.000011 -0.000001 -0.421071 0.362608 -1.723518
    32 0.940314 0.000010 -0.000004 -0.029222 0.146262 -0.393889
    33 4.137646 0.070217 -0.529097 -0.057015 -0.099719 -0.058633
    34 1.222682 0.000004 -0.000001 -0.196548 0.216902 -1.471731
    35 1.157261 -0.000005 0.000004 -0.004852 0.046112 -0.209994
    36 4.008691 -0.074109 0.525203 0.098306 -0.099639 -0.112810
    37 1.426598 -0.000013 0.000016 -0.068021 0.068575 -1.562751
    38 1.322470 -0.000004 0.000005 -0.002924 0.019891 -0.294004
    39 4.035646 -0.044193 1.531699 0.338353 -0.015546 -0.567032
    40 1.242853 -0.000007 -0.000001 0.061327 -0.118458 -0.954802
    41 1.134815 -0.000006 0.000009 0.029171 -0.087363 -0.644309
    42 1.083394 -0.302051 1.942373 -1.007695 -0.062019 -1.210436
    43 1.164769 -0.000017 0.000002 0.003359 0.026646 0.251691
    44 1.206993 -0.000001 0.000000 0.000002 0.000011 0.000040
    45 -3.890452 0.000007 0.000007 -1.276857 -0.071807 -1.776539
    46 17.848173 0.000000 0.000000 0.000000 0.000000 0.631739
    47 15.638507 0.000083 0.000001 0.198128 -0.024912 -1.340111
    48 7.336499 -0.000038 0.000002 -0.080999 -0.003276 -0.673341
    49 3.890452 -0.000004 -0.000003 -1.875030 -0.462526 -1.449409
    50 17.848175 0.000000 0.000000 -0.000001 0.000000 0.718976
    51 15.638496 -0.000101 -0.000001 -0.118029 -0.149192 -1.081771
    52 7.332594 0.000039 0.000001 -0.006964 -0.003276 -0.673367
time 23
    0 0.435165 -0.074216 36.266066 1.536995 -0.009337 -0.280801
    1 0.003911 3.345130 -2.981901 1.471618 0.089983 1.603709
    2 4.018332 0.000000 0.000000 -0.078152 0.052756 0.001534
    3 3.518568 0.000000 0.000000 -0.172744 0.039005 0.452534
    4 8.942644 0.000001 0.000000 -0.000478 0.130254 0.423881
    5 3.307229 0.000016 0.000000 3.141590 0.000000 0.400478
    6 3.593715 -0.000001 0.000000 0.719100 0.259560 1.100277
    7 2.033438 1.000749 -1.937609 -0.779350 1.137936 3.804901
    8 6.028158 -0.000003 0.000000 -0.694747 1.152669 -2.360963
    9 11.692549 0.000000 0.000000 0.000009 0.000000 -0.641160
    10 11.481700 0.000000 0.000001 -1.044146 -0.115247 0.484877
    11 4.082334 0.078346 1.450916 0.410941 0.134474 -0.757041
    12 1.023488 -0.000013 -0.000005 0.082425 -0.261829 -0.606990
    13 0.940310 -0.000007 0.000000 0.205117 -0.375115 -0.993792
    14 4.133708 0.077641 0.528688 0.178833 -0.061559 -0.765946
    15 1.222685 -0.000009 -0.000006 0.051545 -0.155705 -0.638320
    16 1.161169 0.000002 0.000000 0.193934 -0.249755 -1.318422
    17 4.008658 -0.073795 -0.524809 -0.135212 -0.003487 -0.788840
    18 1.426600 -0.000003 -0.000001 0.018443 -0.054991 -0.647233
    19 1.318563 -0.000009 -0.000003 0.093887 -0.091013 -1.602060
    20 4.035605 -0.051299 -1.534428 -0.316862 0.269322 -0.051389
    21 1.246750 0.000008 0.000006 -0.019799 0.072157 -0.535890
    22 1.134820 -0.000006 -0.000003 -0.068493 0.120832 -1.030703
    23 1.083362 -0.316874 -1.939450 1.056204 0.100088 -1.187492
    24 1.164764 -0.000019 -0.000002 0.016650 0.092777 0.355083
    25 1.206998 -0.000001 0.000001 0.015871 0.090657 0.346597
    26 2.033432 1.000746 1.937661 2.088947 -0.917919 2.523026
    27 6.028153 0.000003 0.000000 -1.690577 -0.536161 -0.616476
    28 11.692553 0.000000 0.000000 -0.000009 0.000000 -1.400358
    29 11.481668 0.000000 0.000001 -0.667550 0.539965 0.306827
    30 4.078465 0.060731 -1.453695 -0.275960 -0.071795 0.014908
    31 1.019594 0.000011 -0.000001 -0.421637 0.362524 -1.725087
    32 0.940314 0.000010 -0.000004 -0.029079 0.145903 -0.392837
    33 4.137646 0.070217 -0.529097 -0.057195 -0.100019 -0.056802
    34 1.222682 0.000004 -0.000001 -0.196776 0.216914 -1.472778
    35 1.157261 -0.000005 0.000004 -0.004780 0.045801 -0.208534
    36 4.008691 -0.074109 0.525203 0.098126 -0.099926 -0.111084
    37 1.426598 -0.000013 0.000016 -0.068104 0.068575 -1.563920
    38 1.318564 -0.000004 0.000005 -0.002900 0.019808 -0.292663
    39 4.035646 -0.044193 1.531699 0.338341 -0.015702 -0.566234
    40 1.246759 -0.000007 -0.000001 0.061327 -0.118458 -0.954802
    41 1.134815 -0.000006 0.000009 0.029123 -0.087291 -0.643673
    42 1.083394 -0.302051 1.942373 -1.007475 -0.060972 -1.211318
    43 1.164769 -0.000017 0.000002 0.003359 0.026646 0.251691
    44 1.206993 -0.000001 0.000000 0.000002 0.000011 0.000040
    45 -3.890452 0.000007 0.000007 -1.267144 -0.083607 -1.783342
    46 17.848173 0.000000 0.000000 0.000000 0.000000 0.658882
    47 15.638507 0.000083 0.000001 0.186988 -0.039810 -1.353639
    48 7.336499 -0.000038 0.000002 -0.080999 -0.003276 -0.673341
    49 3.890452 -0.000004 -0.000003 -1.876276 -0.469427 -1.442632
    50 17.848175 0.000000 0.000000 -0.000001 0.000000 0.736623
    51 15.638496 -0.000101 -0.000001 -0.127877 -0.152434 -1.084844
    52 7.332594 0.000039 0.000001 -0.006964 -0.003276 -0.673367
time 24
    0 0.267191 -0.082029 36.172313 1.537054 -0.009611 -0.289828
    1 0.003911 3.345130 -2.981901 1.472520 0.088595 1.589241
    2 4.018332 0.000000 0.000000 -0.079254 0.052073 0.000836
    3 3.518568 0.000000 0.000000 -0.170874 0.037363 0.449562
    4 8.942644 0.000001 0.000000 -0.003115 0.128420 0.422023
    5 3.307229 0.000016 0.000000 3.141590 0.000000 0.400478
    6 3.593715 -0.000001 0.000000 0.716256 0.241948 1.089466
    7 2.033438 1.000749 -1.937609 -0.777822 1.142846 3.807199
    8 6.028158 -0.000003 0.000000 -0.648612 1.151667 -2.331045
    9 11.692549 0.000000 0.000000 0.000009 0.000000 -0.651912
    10 11.481700 0.000000 0.000001 -1.050998 -0.114588 0.483035
    11 4.082334 0.078346 1.450916 0.410941 0.130651 -0.756904
    12 1.023488 -0.000013 -0.000005 0.082425 -0.261829 -0.606990
    13 0.940310 -0.000007 0.000000 0.205117 -0.375115 -0.993792
    14 4.133708 0.077641 0.528688 0.178426 -0.064339 -0.763841
    15 1.222685 -0.000009 -0.000006 0.051545 -0.155705 -0.638320
    16 1.161169 0.000002 0.000000 0.193934 -0.249755 -1.318422
    17 4.008658 -0.073795 -0.524809 -0.135655 -0.005261 -0.785048
    18 1.426600 -0.000003 -0.000001 0.018539 -0.055122 -0.648959
    19 1.318563 -0.000009 -0.000003 0.093204 -0.091025 -1.594575
    20 4.035605 -0.051299 -1.534428 -0.317929 0.266494 -0.054069
    21 1.246750 0.000008 0.000006 -0.019823 0.072193 -0.536150
    22 1.134820 -0.000006 -0.000003 -0.067918 0.120497 -1.025966
    23 1.083362 -0.316874 -1.939450 1.056204 0.100088 -1.187492
    24 1.164764 -0.000019 -0.000002 0.016650 0.092777 0.355083
    25 1.206998 -0.000001 0.000001 0.015871 0.090657 0.346597
    26 2.033432 1.000746 1.937661 2.086648 -0.920707 2.524464
    27 6.028153 0.000003 0.000000 -1.689143 -0.530049 -0.607226
    28 11.692553 0.000000 0.000000 -0.000009 0.000000 -1.386525
    29 11.481668 0.000000 0.000001 -0.645691 0.531939 0.308300
    30 4.078465 0.060731 -1.453695 -0.274878 -0.071663 0.008873
    31 1.019594 0.000011 -0.000001 -0.419939 0.362776 -1.720380
    32 0.940314 0.000010 -0.000004 -0.029534 0.146993 -0.395958
    33 4.133739 0.070217 -0.529097 -0.056655 -0.099132 -0.062295
    34 1.222682 0.000004 -0.000001 -0.196117 0.216854 -1.469675
    35 1.157261 -0.000005 0.000004 -0.004996 0.046747 -0.212945
    36 4.008691 -0.074109 0.525203 0.098654 -0.099052 -0.116262
    37 1.430504 -0.000013 0.000016 -0.067865 0.068563 -1.560375
    38 1.318564 -0.000004 0.000005 -0.002984 0.020071 -0.296687
    39 4.031740 -0.044193 1.531699 0.338389 -0.015234 -0.568661
    40 1.246759 -0.000007 -0.000001 0.061327 -0.118458 -0.954838
    41 1.134815 -0.000006 0.000009 0.029278 -0.087507 -0.645583
    42 1.083394 -0.302051 1.942373 -1.008207 -0.064163 -1.208671
    43 1.164769 -0.000017 0.000002 0.003359 0.026646 0.251691
    44 1.206993 -0.000001 0.000000 0.000002 0.000011 0.000040
    45 -3.890452 0.000007 0.000007 -1.258866 -0.092902 -1.788134
    46 17.848173 0.000000 0.000000 0.000000 0.000000 0.682856
    47 15.638507 0.000083 0.000001 0.176198 -0.052900 -1.370290
    48 7.336499 -0.000038 0.000002 -0.080999 -0.003276 -0.673341
    49 3.890452 -0.000004 -0.000003 -1.876756 -0.471580 -1.436428
    50 17.848175 0.000000 0.000000 -0.000001 0.000000 0.747212
    51 15.638496 -0.000101 -0.000001 -0.138334 -0.155305 -1.088297
    52 7.332594 0.000039 0.000001 -0.006964 -0.003276 -0.673367
time 25
    0 0.079685 -0.082029 36.074654 1.537172 -0.009915 -0.298854
    1 0.003911 3.345130 -2.981901 1.473848 0.087106 1.573332
    2 4.018332 0.000000 0.000000 -0.080740 0.051150 -0.000110
    3 3.518568 0.000000 0.000000 -0.168407 0.035182 0.445599
    4 8.942644 0.000001 0.000000 -0.006626 0.125975 0.419566
    5 3.307229 0.000016 0.000000 3.141590 0.000000 0.400478
    6 3.593715 -0.000001 0.000000 0.712363 0.221777 1.076210
    7 2.033438 1.000749 -1.937609 -0.775818 1.149448 3.810360
    8 6.028158 -0.000003 0.000000 -0.588637 1.151905 -2.290315
    9 11.692549 0.000000 0.000000 0.000009 0.000000 -0.666048
    10 11.481700 0.000000 0.000001 -1.060111 -0.113700 0.480618
    11 4.082334 0.078346 1.450916 0.410969 0.125546 -0.756768
    12 1.023488 -0.000013 -0.000005 0.082425 -0.261829 -0.606990
    13 0.940310 -0.000007 0.000000 0.205117 -0.375115 -0.993792
    14 4.133708 0.077641 0.528688 0.177851 -0.068066 -0.760999
    15 1.222685 -0.000009 -0.000006 0.051545 -0.155705 -0.638320
    16 1.161169 0.000002 0.000000 0.193934 -0.249755 -1.318422
    17 4.008658 -0.073795 -0.524809 -0.136266 -0.007634 -0.779975
    18 1.430506 -0.000003 -0.000001 0.018671 -0.055290 -0.651285
    19 1.318563 -0.000009 -0.000003 0.092293 -0.091049 -1.584511
    20 4.035605 -0.051299 -1.534428 -0.319343 0.262719 -0.057607
    21 1.246750 0.000008 0.000006 -0.019847 0.072229 -0.536474
    22 1.134820 -0.000006 -0.000003 -0.067163 0.120029 -1.019695
    23 1.083362 -0.316874 -1.939450 1.056204 0.100088 -1.187492
    24 1.168670 -0.000019 -0.000002 0.016650 0.092777 0.355083
    25 1.206998 -0.000001 0.000001 0.015871 0.090657 0.346597
    26 2.033432 1.000746 1.937661 2.083392 -0.924397 2.526476
    27 6.028153 0.000003 0.000000 -1.685702 -0.524474 -0.597789
    28 11.692553 0.000000 0.000000 -0.000009 0.000000 -1.368131
    29 11.481668 0.000000 0.000001 -0.616730 0.521163 0.309957
    30 4.078465 0.060731 -1.453695 -0.273445 -0.071471 0.000926
    31 1.019594 0.000011 -0.000001 -0.417687 0.363076 -1.714025
    32 0.940314 0.000010 -0.000004 -0.030145 0.148431 -0.400131
    33 4.133739 0.070217 -0.529097 -0.055924 -0.097934 -0.069642
    34 1.222682 0.000004 -0.000001 -0.195230 0.216770 -1.465563
    35 1.157261 -0.000005 0.000004 -0.005271 0.048018 -0.218786
    36 4.008691 -0.074109 0.525203 0.099337 -0.097889 -0.123166
    37 1.426598 -0.000013 0.000016 -0.067529 0.068563 -1.555661
    38 1.318564 -0.000004 0.000005 -0.003104 0.020419 -0.302018
    39 4.031740 -0.044193 1.531699 0.338437 -0.014587 -0.571917
    40 1.246759 -0.000007 -0.000001 0.061339 -0.118458 -0.954911
    41 1.134815 -0.000006 0.000009 0.029494 -0.087795 -0.648094
    42 1.083394 -0.302051 1.942373 -1.009159 -0.068425 -1.205288
    43 1.164769 -0.000017 0.000002 0.003359 0.026646 0.251691
    44 1.206993 -0.000001 0.000000 0.000002 0.000011 0.000040
    45 -3.890452 0.000007 0.000007 -1.253207 -0.099007 -1.791072
    46 17.848173 0.000000 0.000000 0.000000 0.000000 0.701141
    47 15.634601 0.000083 0.000001 0.166778 -0.064070 -1.388312
    48 7.336499 -0.000038 0.000002 -0.080999 -0.003276 -0.673341
    49 3.890452 -0.000004 -0.000003 -1.876276 -0.469622 -1.431369
    50 17.848175 0.000000 0.000000 -0.000001 0.000000 0.751342
    51 15.638496 -0.000101 -0.000001 -0.148181 -0.158918 -1.094208
    52 7.332594 0.000039 0.000001 -0.006964 -0.003276 -0.673367
time 26
    0 -0.072663 -0.082029 35.980901 1.537290 -0.010219 -0.307976
    1 0.003911 3.345130 -2.981901 1.474538 0.085905 1.560355
    2 4.018332 0.000000 0.000000 -0.081471 0.050695 -0.000575
    3 3.518568 0.000000 0.000000 -0.167174 0.034103 0.443618
    4 8.942644 0.000001 0.000000 -0.008376 0.124741 0.418344
    5 3.307229 0.000016 0.000000 3.141590 0.000000 0.400478
    6 3.593715 -0.000001 0.000000 0.710919 0.206742 1.067973
    7 2.033438 1.000749 -1.937609 -0.774767 1.152749 3.811988
    8 6.028158 -0.000003 0.000000 -0.556964 1.147418 -2.271488
    9 11.692549 0.000000 0.000000 0.000009 0.000000 -0.673041
    10 11.481700 0.000000 0.000001 -1.064635 -0.113272 0.479429
    11 4.082334 0.078346 1.450916 0.410969 0.123005 -0.756699
    12 1.023488 -0.000013 -0.000005 0.082425 -0.261829 -0.606990
    13 0.940310 -0.000007 0.000000 0.205117 -0.375115 -0.993792
    14 4.133708 0.077641 0.528688 0.177563 -0.069924 -0.759578
    15 1.222685 -0.000009 -0.000006 0.051545 -0.155705 -0.638320
    16 1.157263 0.000002 0.000000 0.193934 -0.249755 -1.318422
    17 4.008658 -0.073795 -0.524809 -0.136578 -0.008821 -0.777463
    18 1.430506 -0.000003 -0.000001 0.018731 -0.055374 -0.652448
    19 1.318563 -0.000009 -0.000003 0.091850 -0.091049 -1.579478
    20 4.035605 -0.051299 -1.534428 -0.320038 0.260825 -0.059376
    21 1.246750 0.000008 0.000006 -0.019859 0.072252 -0.536669
    22 1.134820 -0.000006 -0.000003 -0.066791 0.119801 -1.016526
    23 1.083362 -0.316874 -1.939450 1.056204 0.100088 -1.187492
    24 1.164764 -0.000019 -0.000002 0.016650 0.092777 0.355083
    25 1.206998 -0.000001 0.000001 0.015871 0.090657 0.346597
    26 2.033432 1.000746 1.937661 2.081860 -0.926243 2.527529
    27 6.028153 0.000003 0.000000 -1.685416 -0.518020 -0.588913
    28 11.692553 0.000000 0.000000 -0.000009 0.000000 -1.358859
    29 11.481668 0.000000 0.000001 -0.602368 0.515774 0.310657
    30 4.078465 0.060731 -1.453695 -0.272714 -0.071376 -0.003060
    31 1.019594 0.000011 -0.000001 -0.416567 0.363231 -1.710887
    32 0.940314 0.000010 -0.000004 -0.030457 0.149151 -0.402235
    33 4.137646 0.070217 -0.529097 -0.055565 -0.097335 -0.073279
    34 1.222682 0.000004 -0.000001 -0.194787 0.216722 -1.463507
    35 1.157261 -0.000005 0.000004 -0.005415 0.048641 -0.221738
    36 4.008691 -0.074109 0.525203 0.099660 -0.097302 -0.126648
    37 1.426598 -0.000013 0.000016 -0.067373 0.068563 -1.553286
    38 1.322470 -0.000004 0.000005 -0.003164 0.020599 -0.304701
    39 4.031740 -0.044193 1.531699 0.338461 -0.014276 -0.573546
    40 1.242853 -0.000007 -0.000001 0.061339 -0.118470 -0.954948
    41 1.134815 -0.000006 0.000009 0.029614 -0.087939 -0.649367
    42 1.083394 -0.302051 1.942373 -1.009672 -0.070569 -1.203524
    43 1.164769 -0.000017 0.000002 0.003359 0.026646 0.251691
    44 1.206993 -0.000001 0.000000 0.000002 0.000011 0.000040
    45 -3.890452 0.000007 0.000007 -1.250673 -0.101467 -1.792386
    46 17.848173 0.000000 0.000000 0.000000 0.000000 0.710893
    47 15.638507 0.000083 0.000001 0.159800 -0.073113 -1.406003
    48 7.336499 -0.000038 0.000002 -0.080999 -0.003276 -0.673341
    49 3.890452 -0.000004 -0.000003 -1.875414 -0.463994 -1.428887
    50 17.848175 0.000000 0.000000 -0.000001 0.000000 0.749089
    51 15.638496 -0.000101 -0.000001 -0.156201 -0.164288 -1.104281
    52 7.332594 0.000039 0.000001 -0.006964 -0.003276 -0.673367
end
