version 1
nodes
  0 "ValveBiped.Bip01_Pelvis" -1
  1 "ValveBiped.Bip01_Spine" 0
  2 "ValveBiped.Bip01_Spine1" 1
  3 "ValveBiped.Bip01_Spine2" 2
  4 "ValveBiped.Bip01_Spine4" 3
  5 "ValveBiped.Bip01_Neck1" 4
  6 "ValveBiped.Bip01_Head1" 5
  7 "ValveBiped.Bip01_R_Clavicle" 4
  8 "ValveBiped.Bip01_R_UpperArm" 7
  9 "ValveBiped.Bip01_R_Forearm" 8
  10 "ValveBiped.Bip01_R_Hand" 9
  11 "ValveBiped.Bip01_R_Finger4" 10
  12 "ValveBiped.Bip01_R_Finger41" 11
  13 "ValveBiped.Bip01_R_Finger42" 12
  14 "ValveBiped.Bip01_R_Finger3" 10
  15 "ValveBiped.Bip01_R_Finger31" 14
  16 "ValveBiped.Bip01_R_Finger32" 15
  17 "ValveBiped.Bip01_R_Finger2" 10
  18 "ValveBiped.Bip01_R_Finger21" 17
  19 "ValveBiped.Bip01_R_Finger22" 18
  20 "ValveBiped.Bip01_R_Finger1" 10
  21 "ValveBiped.Bip01_R_Finger11" 20
  22 "ValveBiped.Bip01_R_Finger12" 21
  23 "ValveBiped.Bip01_R_Finger0" 10
  24 "ValveBiped.Bip01_R_Finger01" 23
  25 "ValveBiped.Bip01_R_Finger02" 24
  26 "ValveBiped.Bip01_L_Clavicle" 4
  27 "ValveBiped.Bip01_L_UpperArm" 26
  28 "ValveBiped.Bip01_L_Forearm" 27
  29 "ValveBiped.Bip01_L_Hand" 28
  30 "ValveBiped.Bip01_L_Finger4" 29
  31 "ValveBiped.Bip01_L_Finger41" 30
  32 "ValveBiped.Bip01_L_Finger42" 31
  33 "ValveBiped.Bip01_L_Finger3" 29
  34 "ValveBiped.Bip01_L_Finger31" 33
  35 "ValveBiped.Bip01_L_Finger32" 34
  36 "ValveBiped.Bip01_L_Finger2" 29
  37 "ValveBiped.Bip01_L_Finger21" 36
  38 "ValveBiped.Bip01_L_Finger22" 37
  39 "ValveBiped.Bip01_L_Finger1" 29
  40 "ValveBiped.Bip01_L_Finger11" 39
  41 "ValveBiped.Bip01_L_Finger12" 40
  42 "ValveBiped.Bip01_L_Finger0" 29
  43 "ValveBiped.Bip01_L_Finger01" 42
  44 "ValveBiped.Bip01_L_Finger02" 43
  45 "ValveBiped.Bip01_R_Thigh" 0
  46 "ValveBiped.Bip01_R_Calf" 45
  47 "ValveBiped.Bip01_R_Foot" 46
  48 "ValveBiped.Bip01_R_Toe0" 47
  49 "ValveBiped.Bip01_L_Thigh" 0
  50 "ValveBiped.Bip01_L_Calf" 49
  51 "ValveBiped.Bip01_L_Foot" 50
  52 "ValveBiped.Bip01_L_Toe0" 51
end
skeleton
time 0
    0 0.000000 0.000000 0.000000 -0.000132 0.000000 -1.570796
    1 -0.000001 0.000396 0.000442 0.000000 0.000000 0.000132
    2 0.000001 0.000000 0.000000 0.000000 0.000000 0.000000
    3 0.000000 0.000000 0.000000 0.000000 0.000000 0.000000
    4 0.000001 0.000000 0.000000 0.000000 0.000000 0.000000
    5 -0.000002 0.000001 0.000000 -0.000002 0.000000 0.000000
    6 0.000002 -0.000001 0.000001 1.032735 0.221069 0.125859
    7 -0.000001 0.000000 0.000000 0.000000 0.000000 0.000000
    8 0.000000 -0.000001 -0.000001 0.000000 0.000000 0.000001
    9 0.000002 0.000000 0.000005 0.000000 0.000000 -0.000001
    10 -0.000001 0.000002 0.000000 0.000000 0.000000 -0.000001
    11 0.000003 -0.000001 0.000000 0.000000 0.000000 0.000000
    12 -0.000001 -0.000001 0.000001 0.000000 0.000001 0.000000
    13 -0.000002 0.000000 0.000000 0.000000 0.000000 0.000000
    14 0.000002 0.000000 0.000000 0.000001 0.000000 0.000000
    15 -0.000001 0.000001 0.000000 0.000000 0.000000 0.000000
    16 0.000003 0.000001 0.000000 0.000000 0.000000 0.000000
    17 0.000003 0.000000 0.000000 0.000000 -0.000001 0.000000
    18 0.000002 -0.000001 0.000000 0.000000 0.000000 0.000000
    19 0.000000 0.000001 0.000000 0.000000 0.000000 -0.000001
    20 0.000000 0.000000 0.000000 -0.000001 0.000000 0.000000
    21 0.000002 0.000003 0.000001 0.000000 0.000001 0.000000
    22 0.000000 -0.000001 0.000000 0.000000 0.000000 0.000000
    23 0.000000 -0.000002 -0.000001 0.000000 0.000000 -0.000001
    24 -0.000003 0.000001 0.000003 0.000000 -0.000001 0.000001
    25 0.000001 -0.000001 0.000001 0.000001 0.000000 -0.000001
    26 -0.000001 0.000001 0.000000 0.000000 0.000000 0.000000
    27 0.000002 -0.000002 0.000000 0.000000 0.000000 0.000000
    28 -0.000001 0.000000 0.000001 0.000000 0.000000 0.000001
    29 0.000001 -0.000001 -0.000001 0.000000 0.000002 0.000000
    30 0.000001 0.000005 0.000000 0.000001 -0.000001 -0.000001
    31 -0.000002 0.000001 0.000000 -0.000001 0.000001 0.000001
    32 0.000002 0.000000 0.000000 0.000000 0.000000 0.000000
    33 0.000002 0.000004 0.000000 0.000000 0.000000 0.000000
    34 -0.000003 0.000002 0.000000 0.000000 0.000000 0.000000
    35 0.000001 -0.000001 0.000000 0.000000 0.000000 0.000001
    36 0.000000 0.000005 0.000000 0.000000 -0.000001 0.000000
    37 -0.000001 0.000002 0.000000 0.000000 0.000001 0.000000
    38 0.000003 0.000000 0.000000 0.000000 0.000000 0.000000
    39 0.000000 0.000005 0.000000 0.000000 -0.000001 0.000000
    40 -0.000004 -0.000001 0.000001 0.000000 0.000000 0.000000
    41 0.000000 0.000000 0.000001 0.000000 0.000000 0.000000
    42 0.000000 0.000004 0.000000 0.000000 -0.000001 -0.000001
    43 -0.000001 -0.000001 0.000001 0.000000 0.000000 0.000000
    44 0.000003 -0.000001 0.000001 0.000000 0.000000 0.000000
    45 0.000001 0.000002 0.000000 0.045370 0.000023 -0.000042
    46 0.000005 0.000000 0.000000 0.000000 0.000000 0.000363
    47 0.000000 0.000000 0.000000 -0.022553 -0.039254 0.003590
    48 0.000000 0.000000 0.000000 0.000000 0.000000 -0.000002
    49 -0.000001 0.000002 0.000000 -0.041202 -0.000032 0.000138
    50 -0.000001 0.000000 0.000000 0.000000 0.000000 -0.000011
    51 -0.000003 0.000000 0.000000 0.020465 0.035683 0.002880
    52 0.000000 0.000000 0.000000 0.000000 0.000000 0.000000
end
