version 1
nodes
  0 "ValveBiped.Bip01_Pelvis" -1
  1 "ValveBiped.Bip01_Spine" 0
  2 "ValveBiped.Bip01_Spine1" 1
  3 "ValveBiped.Bip01_Spine2" 2
  4 "ValveBiped.Bip01_Spine4" 3
  5 "ValveBiped.Bip01_Neck1" 4
  6 "ValveBiped.Bip01_Head1" 5
  7 "ValveBiped.Bip01_R_Clavicle" 4
  8 "ValveBiped.Bip01_R_UpperArm" 7
  9 "ValveBiped.Bip01_R_Forearm" 8
  10 "ValveBiped.Bip01_R_Hand" 9
  11 "ValveBiped.Bip01_R_Finger4" 10
  12 "ValveBiped.Bip01_R_Finger41" 11
  13 "ValveBiped.Bip01_R_Finger42" 12
  14 "ValveBiped.Bip01_R_Finger3" 10
  15 "ValveBiped.Bip01_R_Finger31" 14
  16 "ValveBiped.Bip01_R_Finger32" 15
  17 "ValveBiped.Bip01_R_Finger2" 10
  18 "ValveBiped.Bip01_R_Finger21" 17
  19 "ValveBiped.Bip01_R_Finger22" 18
  20 "ValveBiped.Bip01_R_Finger1" 10
  21 "ValveBiped.Bip01_R_Finger11" 20
  22 "ValveBiped.Bip01_R_Finger12" 21
  23 "ValveBiped.Bip01_R_Finger0" 10
  24 "ValveBiped.Bip01_R_Finger01" 23
  25 "ValveBiped.Bip01_R_Finger02" 24
  26 "ValveBiped.Bip01_L_Clavicle" 4
  27 "ValveBiped.Bip01_L_UpperArm" 26
  28 "ValveBiped.Bip01_L_Forearm" 27
  29 "ValveBiped.Bip01_L_Hand" 28
  30 "ValveBiped.Bip01_L_Finger4" 29
  31 "ValveBiped.Bip01_L_Finger41" 30
  32 "ValveBiped.Bip01_L_Finger42" 31
  33 "ValveBiped.Bip01_L_Finger3" 29
  34 "ValveBiped.Bip01_L_Finger31" 33
  35 "ValveBiped.Bip01_L_Finger32" 34
  36 "ValveBiped.Bip01_L_Finger2" 29
  37 "ValveBiped.Bip01_L_Finger21" 36
  38 "ValveBiped.Bip01_L_Finger22" 37
  39 "ValveBiped.Bip01_L_Finger1" 29
  40 "ValveBiped.Bip01_L_Finger11" 39
  41 "ValveBiped.Bip01_L_Finger12" 40
  42 "ValveBiped.Bip01_L_Finger0" 29
  43 "ValveBiped.Bip01_L_Finger01" 42
  44 "ValveBiped.Bip01_L_Finger02" 43
  45 "ValveBiped.Bip01_R_Thigh" 0
  46 "ValveBiped.Bip01_R_Calf" 45
  47 "ValveBiped.Bip01_R_Foot" 46
  48 "ValveBiped.Bip01_R_Toe0" 47
  49 "ValveBiped.Bip01_L_Thigh" 0
  50 "ValveBiped.Bip01_L_Calf" 49
  51 "ValveBiped.Bip01_L_Foot" 50
  52 "ValveBiped.Bip01_L_Toe0" 51
end
skeleton
time 0
    0 0.630483 0.644556 31.558891 1.731556 0.172626 -0.580210
    1 -0.191407 3.341225 -2.981901 1.570796 0.008424 1.629611
    2 4.018334 -0.000001 0.000000 -0.236084 0.011541 0.167052
    3 3.518564 0.000002 0.000000 -0.295913 -0.149381 0.280894
    4 8.942647 0.000001 -0.000001 0.213782 -0.036548 0.266571
    5 3.307275 -0.000002 -0.000001 3.141590 0.000000 0.164884
    6 3.593717 -0.000001 0.000000 0.875536 -0.153783 0.592935
    7 2.033354 1.000774 -1.937610 -2.482183 1.097748 2.078023
    8 6.028141 0.000000 0.000000 4.379060 1.498466 2.467137
    9 11.692555 -0.000001 0.000004 0.000009 0.000000 -1.355327
    10 11.481701 0.000000 0.000001 -0.738548 0.051797 0.659574
    11 3.859676 -0.132570 1.193108 0.498198 0.156933 -0.982260
    12 1.312561 -0.000001 -0.000002 -0.000005 -0.456973 -1.112927
    13 0.729364 0.000000 -0.000002 0.000001 -0.000022 -0.672028
    14 3.942296 0.050328 0.431047 0.160533 0.000246 -0.910148
    15 1.539096 -0.000002 -0.000001 -0.000001 -0.214753 -1.281129
    16 1.196324 0.000000 0.000004 -0.000001 -0.000008 -0.797295
    17 3.883660 -0.050327 -0.431043 -0.084948 -0.177600 -0.644830
    18 1.719575 -0.000003 -0.000001 -0.000001 -0.031645 -1.425491
    19 1.209184 -0.000001 0.000000 -0.003428 0.022218 -0.934675
    20 3.859832 -0.148936 -1.331279 -0.269643 -0.115059 -0.374596
    21 1.719424 0.000000 -0.000001 -0.064166 0.108985 -1.117000
    22 1.099665 -0.000002 0.000001 -0.069164 0.051202 -1.337365
    23 0.806018 -0.359834 -1.318337 1.282836 0.248639 -0.715189
    24 1.789781 0.000000 0.000000 0.000003 -0.010075 0.141901
    25 1.207000 -0.000003 0.000000 0.000291 0.001995 1.187223
    26 2.033350 1.000767 1.937659 4.630766 -1.481573 -0.092593
    27 6.028143 -0.000003 0.000000 -3.201869 -0.707785 0.339657
    28 11.692554 -0.000002 -0.000001 -0.000009 0.000000 -0.840424
    29 11.481679 0.000000 -0.000035 1.137510 0.369849 0.230565
    30 3.859710 -0.142404 -1.191977 -0.463424 -0.186140 -1.428480
    31 1.312559 0.000000 0.000001 -0.000001 0.066181 -0.827605
    32 0.729364 -0.000001 0.000003 -0.000004 0.000014 -0.594022
    33 3.942328 0.046772 -0.431442 -0.161988 -0.106335 -1.434461
    34 1.539094 0.000001 0.000002 -0.000001 0.006381 -0.777630
    35 1.196323 0.000000 0.000001 0.000002 0.000007 -1.170538
    36 3.883689 -0.046770 0.431442 0.049936 -0.030476 -1.249510
    37 1.719577 0.000001 0.000002 0.000004 0.033580 -1.110921
    38 1.209184 0.000001 -0.000006 0.000000 0.000009 -1.111180
    39 3.859863 -0.137947 1.332468 0.283499 0.115913 -1.212794
    40 1.719429 0.000001 0.000000 0.000002 -0.152207 -1.133729
    41 1.099669 0.000002 0.000003 0.000000 0.000016 -1.021260
    42 0.806050 -0.348920 1.321261 -1.241125 -0.251344 -0.849454
    43 1.789784 -0.000004 0.000004 0.000001 -0.036069 0.257589
    44 1.206998 0.000000 0.000002 0.000002 0.000011 0.303734
    45 -3.890453 0.000005 0.000007 -1.551791 -0.245987 -1.825239
    46 17.848175 0.000000 0.000001 0.000000 0.000000 0.696915
    47 16.525253 -0.000001 0.000002 0.557006 0.094482 -1.522273
    48 6.879454 0.000000 0.000000 -0.081334 -0.002951 -0.584373
    49 3.890452 -0.000003 -0.000003 -2.148209 -0.780546 -0.888344
    50 17.848179 0.000000 0.000000 -0.000001 0.000000 1.304330
    51 16.525255 -0.000001 0.000000 -0.055898 0.148012 -1.549630
    52 6.879455 0.000001 0.000000 -0.007300 -0.001070 -0.584369
time 1
    0 0.513292 1.074257 31.133097 1.722841 0.163198 -0.567952
    1 -0.171875 3.341225 -2.981901 1.567982 0.036140 1.626280
    2 4.018334 -0.000001 0.000000 -0.227515 0.016671 0.153886
    3 3.518564 0.000002 0.000000 -0.286032 -0.133465 0.283356
    4 8.942647 0.000001 -0.000001 0.203056 -0.034511 0.259212
    5 3.307275 -0.000002 -0.000001 3.141590 0.000000 0.176483
    6 3.593717 -0.000001 0.000000 0.853182 -0.115306 0.545251
    7 2.033354 1.000774 -1.937610 -2.513975 1.107527 2.049100
    8 6.028141 0.000000 0.000000 0.847739 1.501616 -1.094241
    9 11.692555 -0.000001 0.000004 0.000009 0.000000 -1.433000
    10 11.481701 0.000000 0.000001 -0.756841 0.037452 0.637435
    11 3.859676 -0.132570 1.193108 0.498198 0.156933 -0.982260
    12 1.312561 -0.000001 -0.000002 -0.000005 -0.456973 -1.112927
    13 0.729364 0.000000 -0.000002 0.000001 -0.000022 -0.672028
    14 3.942296 0.050328 0.431047 0.160533 0.000246 -0.910148
    15 1.539096 -0.000002 -0.000001 -0.000001 -0.214753 -1.281129
    16 1.196324 0.000000 0.000004 -0.000001 -0.000008 -0.797295
    17 3.883660 -0.050327 -0.431043 -0.084948 -0.177600 -0.644830
    18 1.719575 -0.000003 -0.000001 -0.000001 -0.031645 -1.425491
    19 1.209184 -0.000001 0.000000 -0.003428 0.022218 -0.934675
    20 3.859832 -0.148936 -1.331279 -0.269643 -0.115059 -0.374596
    21 1.719424 0.000000 -0.000001 -0.064166 0.108985 -1.117000
    22 1.099665 -0.000002 0.000001 -0.069164 0.051202 -1.337365
    23 0.806018 -0.359834 -1.318337 1.282836 0.248639 -0.715189
    24 1.789781 0.000000 0.000000 0.000003 -0.010075 0.141901
    25 1.207000 -0.000003 0.000000 0.000291 0.001995 1.187223
    26 2.033350 1.000767 1.937659 4.637182 -1.454993 -0.098725
    27 6.028143 -0.000003 0.000000 -2.999147 -0.679914 0.241923
    28 11.692554 -0.000002 -0.000001 -0.000009 0.000000 -0.860565
    29 11.481679 0.000000 -0.000035 1.170654 0.354688 0.211085
    30 3.859710 -0.142404 -1.191977 -0.470179 -0.168511 -1.386399
    31 1.312559 0.000000 0.000001 -0.000001 0.063748 -0.800616
    32 0.729364 -0.000001 0.000003 -0.000004 0.000014 -0.580486
    33 3.942328 0.046772 -0.431442 -0.163666 -0.099060 -1.390004
    34 1.539094 0.000001 0.000002 -0.000001 0.006141 -0.752508
    35 1.196323 0.000000 0.000001 0.000002 0.000007 -1.135764
    36 3.883689 -0.046770 0.431442 0.053304 -0.032777 -1.204903
    37 1.719577 0.000001 0.000002 0.000004 0.032346 -1.073463
    38 1.209184 0.000001 -0.000006 0.000000 0.000009 -1.078581
    39 3.859863 -0.137947 1.332468 0.292607 0.103209 -1.169687
    40 1.719429 0.000001 0.000000 0.000002 -0.146586 -1.095432
    41 1.099669 0.000002 0.000003 0.000000 0.000016 -0.992011
    42 0.806050 -0.348920 1.321261 -1.243028 -0.277428 -0.837100
    43 1.789784 -0.000004 0.000004 0.000241 -0.036033 0.250328
    44 1.206998 0.000000 0.000002 0.000002 0.000011 0.303734
    45 -3.890453 0.000005 0.000007 -1.540726 -0.239290 -1.839694
    46 17.848175 0.000000 0.000001 0.000000 0.000000 0.747870
    47 16.525253 -0.000001 0.000002 0.560445 0.092207 -1.565602
    48 6.879454 0.000000 0.000000 -0.081334 -0.002951 -0.584373
    49 3.890452 -0.000003 -0.000003 -2.157219 -0.798703 -0.872499
    50 17.848179 0.000000 0.000000 -0.000001 0.000000 1.332340
    51 16.525255 -0.000001 0.000000 -0.054679 0.162777 -1.546698
    52 6.879455 0.000001 0.000000 -0.007300 -0.001070 -0.584369
time 2
    0 0.216408 2.050849 30.211194 1.699169 0.137316 -0.534790
    1 -0.113280 3.345132 -2.981901 1.561929 0.096819 1.617083
    2 4.018334 -0.000001 0.000000 -0.206159 0.028871 0.121231
    3 3.518564 0.000002 0.000000 -0.260926 -0.095474 0.285352
    4 8.942647 0.000001 -0.000001 0.176690 -0.028386 0.240840
    5 3.307275 -0.000002 -0.000001 3.141590 0.000072 0.207431
    6 3.593717 -0.000001 0.000000 0.796312 -0.030125 0.439040
    7 2.033354 1.000774 -1.937610 -2.605150 1.131459 1.965778
    8 6.028141 0.000000 0.000000 1.083823 1.183315 -0.921350
    9 11.692555 -0.000001 0.000004 0.000009 0.000000 -1.585638
    10 11.481701 0.000000 0.000001 -0.802408 -0.003018 0.579113
    11 3.859676 -0.132570 1.193108 0.498198 0.156933 -0.982260
    12 1.312561 -0.000001 -0.000002 -0.000005 -0.456973 -1.112927
    13 0.729364 0.000000 -0.000002 0.000001 -0.000022 -0.672028
    14 3.942296 0.050328 0.431047 0.160533 0.000246 -0.910148
    15 1.539096 -0.000002 -0.000001 -0.000001 -0.214753 -1.281129
    16 1.196324 0.000000 0.000004 -0.000001 -0.000008 -0.797295
    17 3.883660 -0.050327 -0.431043 -0.084948 -0.177600 -0.644830
    18 1.719575 -0.000003 -0.000001 -0.000001 -0.031645 -1.425491
    19 1.209184 -0.000001 0.000000 -0.003428 0.022218 -0.934675
    20 3.859832 -0.148936 -1.331279 -0.269643 -0.115059 -0.374596
    21 1.719424 0.000000 -0.000001 -0.064166 0.108985 -1.117000
    22 1.099665 -0.000002 0.000001 -0.069164 0.051202 -1.337365
    23 0.806018 -0.359834 -1.318337 1.282836 0.248639 -0.715189
    24 1.789781 0.000000 0.000000 0.000003 -0.010075 0.141901
    25 1.207000 -0.000003 0.000000 0.000291 0.001995 1.187223
    26 2.033350 1.000767 1.937659 4.645705 -1.383888 -0.106581
    27 6.028143 -0.000003 0.000000 -2.427777 -0.543153 0.125781
    28 11.692554 -0.000002 -0.000001 -0.000009 0.000000 -0.923726
    29 11.481679 0.000000 -0.000035 1.262193 0.313218 0.160342
    30 3.859710 -0.142404 -1.191977 -0.483749 -0.120273 -1.275149
    31 1.312559 0.000000 0.000001 -0.000001 0.057217 -0.728556
    32 0.729364 -0.000001 0.000003 -0.000004 0.000014 -0.544401
    33 3.942328 0.046772 -0.431442 -0.166518 -0.079370 -1.271476
    34 1.539094 0.000001 0.000002 -0.000001 0.005518 -0.685367
    35 1.196323 0.000000 0.000001 0.000002 0.000007 -1.042879
    36 3.883689 -0.046770 0.431442 0.061729 -0.039644 -1.085755
    37 1.719577 0.000001 0.000002 0.000004 0.029038 -0.973479
    38 1.209184 0.000001 -0.000006 0.000000 0.000009 -0.991555
    39 3.859863 -0.137947 1.332468 0.314108 0.067519 -1.055344
    40 1.719429 0.000001 0.000000 0.000002 -0.131594 -0.993209
    41 1.099669 0.000002 0.000003 0.000000 0.000016 -0.913813
    42 0.806050 -0.348920 1.321261 -1.251668 -0.347589 -0.804083
    43 1.789784 -0.000004 0.000004 0.000936 -0.035973 0.230974
    44 1.206998 0.000000 0.000002 0.000002 0.000011 0.303734
    45 -3.890453 0.000005 0.000007 -1.513444 -0.208445 -1.875561
    46 17.848175 0.000000 0.000001 0.000000 0.000000 0.846853
    47 16.525253 -0.000001 0.000002 0.567647 0.087452 -1.656659
    48 6.879454 0.000000 0.000000 -0.081334 -0.002951 -0.584373
    49 3.890452 -0.000003 -0.000003 -2.166325 -0.838492 -0.849495
    50 17.848179 0.000000 0.000000 -0.000001 0.000000 1.385206
    51 16.525255 -0.000001 0.000000 -0.051924 0.195450 -1.532037
    52 6.879455 0.000001 0.000000 -0.007300 -0.001070 -0.584369
time 3
    0 -0.154697 3.129007 29.304916 1.663896 0.098813 -0.485854
    1 -0.031246 3.345132 -2.981901 1.556355 0.156871 1.603212
    2 4.018334 -0.000001 0.000000 -0.178451 0.043432 0.079395
    3 3.518564 0.000002 0.000000 -0.227319 -0.049993 0.278753
    4 8.942647 0.000001 -0.000001 0.143433 -0.018188 0.217062
    5 3.307275 -0.000002 -0.000001 3.141686 0.000144 0.252033
    6 3.593717 -0.000001 0.000000 0.720631 0.056461 0.330641
    7 2.033354 1.000774 -1.937610 -2.752463 1.159516 1.829685
    8 6.028141 0.000000 0.000000 1.172809 0.820811 -0.904294
    9 11.692555 -0.000001 0.000004 0.000009 0.000000 -1.717674
    10 11.481701 0.000000 0.000001 -0.859417 -0.066321 0.496772
    11 3.859676 -0.132570 1.193108 0.498198 0.156933 -0.982260
    12 1.312561 -0.000001 -0.000002 -0.000005 -0.456973 -1.112927
    13 0.729364 0.000000 -0.000002 0.000001 -0.000022 -0.672028
    14 3.942296 0.050328 0.431047 0.160533 0.000246 -0.910148
    15 1.539096 -0.000002 -0.000001 -0.000001 -0.214753 -1.281129
    16 1.196324 0.000000 0.000004 -0.000001 -0.000008 -0.797295
    17 3.883660 -0.050327 -0.431043 -0.084948 -0.177600 -0.644830
    18 1.719575 -0.000003 -0.000001 -0.000001 -0.031645 -1.425491
    19 1.209184 -0.000001 0.000000 -0.003428 0.022218 -0.934675
    20 3.859832 -0.148936 -1.331279 -0.269643 -0.115059 -0.374596
    21 1.719424 0.000000 -0.000001 -0.064166 0.108985 -1.117000
    22 1.099665 -0.000002 0.000001 -0.069164 0.051202 -1.337365
    23 0.806018 -0.359834 -1.318337 1.282836 0.248639 -0.715189
    24 1.789781 0.000000 0.000000 0.000003 -0.010075 0.141901
    25 1.207000 -0.000003 0.000000 0.000291 0.001995 1.187223
    26 2.033350 1.000767 1.937659 4.651642 -1.281413 -0.110988
    27 6.028143 -0.000003 0.000000 -1.862523 -0.463550 0.158858
    28 11.692554 -0.000002 -0.000001 -0.000009 0.000000 -1.027550
    29 11.481679 0.000000 -0.000035 1.401948 0.251459 0.089934
    30 3.859710 -0.142404 -1.191977 -0.492026 -0.048988 -1.116848
    31 1.312559 0.000000 0.000001 -0.000001 0.047821 -0.624721
    32 0.729364 -0.000001 0.000003 -0.000004 0.000014 -0.492430
    33 3.942328 0.046772 -0.431442 -0.166494 -0.050726 -1.101068
    34 1.539094 0.000001 0.000002 -0.000001 0.004607 -0.588656
    35 1.196323 0.000000 0.000001 0.000002 0.000007 -0.909045
    36 3.883689 -0.046770 0.431442 0.072323 -0.051173 -0.914145
    37 1.719577 0.000001 0.000002 0.000004 0.024268 -0.829459
    38 1.209184 0.000001 -0.000006 0.000000 0.000009 -0.866165
    39 3.859863 -0.137947 1.332468 0.337562 0.012354 -0.892340
    40 1.719429 0.000001 0.000000 0.000002 -0.109985 -0.845971
    41 1.099669 0.000002 0.000003 0.000000 0.000016 -0.801201
    42 0.806050 -0.348920 1.321261 -1.273781 -0.449423 -0.755109
    43 1.789784 -0.000004 0.000004 0.001932 -0.035877 0.203145
    44 1.206998 0.000000 0.000002 0.000002 0.000011 0.303734
    45 -3.890453 0.000005 0.000007 -1.476111 -0.148213 -1.921710
    46 17.848175 0.000000 0.000001 0.000000 0.000000 0.932996
    47 16.525253 -0.000001 0.000002 0.573454 0.083611 -1.746392
    48 6.879454 0.000000 0.000000 -0.081334 -0.002951 -0.584373
    49 3.890452 -0.000003 -0.000003 -2.145716 -0.878575 -0.860950
    50 17.848179 0.000000 0.000000 -0.000001 0.000000 1.421401
    51 16.525255 -0.000001 0.000000 -0.049024 0.229588 -1.501629
    52 6.879455 0.000001 0.000000 -0.007300 -0.001070 -0.584369
time 4
    0 -0.517990 3.839966 28.929905 1.620732 0.051703 -0.426277
    1 0.058601 3.345132 -2.981901 1.553116 0.182574 1.585960
    2 4.018334 -0.000001 0.000000 -0.150874 0.055632 0.038655
    3 3.518564 0.000002 0.000000 -0.192001 -0.011642 0.255313
    4 8.942647 0.000001 -0.000001 0.112033 -0.003974 0.193728
    5 3.307275 -0.000002 -0.000001 3.141686 0.000204 0.304518
    6 3.593717 -0.000001 0.000000 0.643550 0.099718 0.278452
    7 2.033354 1.000774 -1.937610 -2.947034 1.180806 1.648291
    8 6.028141 0.000000 0.000000 1.264279 0.546904 -0.899167
    9 11.692555 -0.000001 0.000004 0.000009 0.000000 -1.781286
    10 11.481701 0.000000 0.000001 -0.913033 -0.146668 0.401577
    11 3.859676 -0.132570 1.193108 0.498198 0.156933 -0.982260
    12 1.312561 -0.000001 -0.000002 -0.000005 -0.456973 -1.112927
    13 0.729364 0.000000 -0.000002 0.000001 -0.000022 -0.672028
    14 3.942296 0.050328 0.431047 0.160533 0.000246 -0.910148
    15 1.539096 -0.000002 -0.000001 -0.000001 -0.214753 -1.281129
    16 1.196324 0.000000 0.000004 -0.000001 -0.000008 -0.797295
    17 3.883660 -0.050327 -0.431043 -0.084948 -0.177600 -0.644830
    18 1.719575 -0.000003 -0.000001 -0.000001 -0.031645 -1.425491
    19 1.209184 -0.000001 0.000000 -0.003428 0.022218 -0.934675
    20 3.859832 -0.148936 -1.331279 -0.269643 -0.115059 -0.374596
    21 1.719424 0.000000 -0.000001 -0.064166 0.108985 -1.117000
    22 1.099665 -0.000002 0.000001 -0.069164 0.051202 -1.337365
    23 0.806018 -0.359834 -1.318337 1.282836 0.248639 -0.715189
    24 1.789781 0.000000 0.000000 0.000003 -0.010075 0.141901
    25 1.207000 -0.000003 0.000000 0.000291 0.001995 1.187223
    26 2.033350 1.000767 1.937659 4.655951 -1.160523 -0.113096
    27 6.028143 -0.000003 0.000000 -1.668594 -0.499195 0.102142
    28 11.692554 -0.000002 -0.000001 -0.000009 0.000000 -1.159800
    29 11.481679 0.000000 -0.000035 1.577846 0.176917 0.010100
    30 3.859710 -0.142404 -1.191977 -0.484787 0.035072 -0.931294
    31 1.312559 0.000000 0.000001 -0.000001 0.036759 -0.502528
    32 0.729364 -0.000001 0.000003 -0.000004 0.000014 -0.431236
    33 3.942328 0.046772 -0.431442 -0.160250 -0.017589 -0.900701
    34 1.539094 0.000001 0.000002 -0.000001 0.003564 -0.474785
    35 1.196323 0.000000 0.000001 0.000002 0.000007 -0.751509
    36 3.883689 -0.046770 0.431442 0.082067 -0.066825 -0.712152
    37 1.719577 0.000001 0.000002 0.000004 0.018647 -0.659895
    38 1.209184 0.000001 -0.000006 0.000000 0.000009 -0.718547
    39 3.859863 -0.137947 1.332468 0.353297 -0.056377 -0.701842
    40 1.719429 0.000001 0.000000 0.000002 -0.084554 -0.672593
    41 1.099669 0.000002 0.000003 0.000000 0.000016 -0.668572
    42 0.806050 -0.348920 1.321261 -1.316103 -0.569327 -0.692311
    43 1.789784 -0.000004 0.000004 0.003107 -0.035770 0.170310
    44 1.206998 0.000000 0.000002 0.000002 0.000011 0.303734
    45 -3.890453 0.000005 0.000007 -1.434807 -0.072035 -1.966081
    46 17.848175 0.000000 0.000001 0.000000 0.000000 0.975662
    47 16.525253 -0.000001 0.000002 0.571834 0.084674 -1.798330
    48 6.879454 0.000000 0.000000 -0.081334 -0.002951 -0.584373
    49 3.890452 -0.000003 -0.000003 -2.066063 -0.893453 -0.946665
    50 17.848179 0.000000 0.000000 -0.000001 0.000000 1.411639
    51 16.525255 -0.000001 0.000000 -0.047098 0.251930 -1.462471
    52 6.879455 0.000001 0.000000 -0.007300 -0.001070 -0.584369
time 5
    0 -0.889095 4.027472 29.398669 1.573269 0.001095 -0.361758
    1 0.156260 3.345132 -2.981901 1.552001 0.152760 1.570100
    2 4.018334 -0.000001 0.000000 -0.119798 0.065376 -0.005788
    3 3.518564 0.000002 0.000000 -0.148951 0.019626 0.199751
    4 8.942647 0.000001 -0.000001 0.079603 0.018905 0.168093
    5 3.307275 -0.000002 -0.000001 3.141782 0.000240 0.359217
    6 3.593717 -0.000001 0.000000 0.556889 0.075424 0.315712
    7 2.033354 1.000774 -1.937610 -3.164137 1.187449 1.444870
    8 6.028141 0.000000 0.000000 1.384495 0.403220 -0.862445
    9 11.692555 -0.000001 0.000004 0.000009 0.000000 -1.765195
    10 11.481701 0.000000 0.000001 -0.952546 -0.234845 0.302583
    11 3.859676 -0.132570 1.193108 0.498198 0.156933 -0.982260
    12 1.312561 -0.000001 -0.000002 -0.000005 -0.456973 -1.112927
    13 0.729364 0.000000 -0.000002 0.000001 -0.000022 -0.672028
    14 3.942296 0.050328 0.431047 0.160533 0.000246 -0.910148
    15 1.539096 -0.000002 -0.000001 -0.000001 -0.214753 -1.281129
    16 1.196324 0.000000 0.000004 -0.000001 -0.000008 -0.797295
    17 3.883660 -0.050327 -0.431043 -0.084948 -0.177600 -0.644830
    18 1.719575 -0.000003 -0.000001 -0.000001 -0.031645 -1.425491
    19 1.209184 -0.000001 0.000000 -0.003428 0.022218 -0.934675
    20 3.859832 -0.148936 -1.331279 -0.269643 -0.115059 -0.374596
    21 1.719424 0.000000 -0.000001 -0.064166 0.108985 -1.117000
    22 1.099665 -0.000002 0.000001 -0.069164 0.051202 -1.337365
    23 0.806018 -0.359834 -1.318337 1.282836 0.248639 -0.715189
    24 1.789781 0.000000 0.000000 0.000003 -0.010075 0.141901
    25 1.207000 -0.000003 0.000000 0.000291 0.001995 1.187223
    26 2.033350 1.000767 1.937659 4.659686 -1.034294 -0.113863
    27 6.028143 -0.000003 0.000000 -1.710553 -0.506676 -0.013532
    28 11.692554 -0.000002 -0.000001 -0.000009 0.000000 -1.319184
    29 11.481679 0.000000 -0.000035 1.774024 0.098547 -0.071097
    30 3.859710 -0.142404 -1.191977 -0.457969 0.119275 -0.736155
    31 1.312559 0.000000 0.000001 -0.000001 0.025242 -0.375274
    32 0.729364 -0.000001 0.000003 -0.000004 0.000014 -0.367483
    33 3.942328 0.046772 -0.431442 -0.146899 0.014877 -0.691773
    34 1.539094 0.000001 0.000002 -0.000001 0.002450 -0.356167
    35 1.196323 0.000000 0.000001 0.000002 0.000007 -0.587433
    36 3.883689 -0.046770 0.431442 0.088622 -0.084850 -0.501679
    37 1.719577 0.000001 0.000002 0.000004 0.012811 -0.483314
    38 1.209184 0.000001 -0.000006 0.000000 0.000009 -0.564764
    39 3.859863 -0.137947 1.332468 0.355515 -0.129795 -0.503331
    40 1.719429 0.000001 0.000000 0.000002 -0.058056 -0.492022
    41 1.099669 0.000002 0.000003 0.000000 0.000016 -0.530460
    42 0.806050 -0.348920 1.321261 -1.382369 -0.692192 -0.616129
    43 1.789784 -0.000004 0.000004 0.004342 -0.035650 0.136087
    44 1.206998 0.000000 0.000002 0.000002 0.000011 0.303734
    45 -3.890453 0.000005 0.000007 -1.392490 0.030068 -1.997619
    46 17.848175 0.000000 0.000001 0.000000 0.000000 0.935272
    47 16.525253 -0.000001 0.000002 0.560719 0.092021 -1.792228
    48 6.879454 0.000000 0.000000 -0.081334 -0.002951 -0.584373
    49 3.890452 -0.000003 -0.000003 -1.937622 -0.855573 -1.096715
    50 17.848179 0.000000 0.000000 -0.000001 0.000000 1.338272
    51 16.525255 -0.000001 0.000000 -0.046148 0.262750 -1.417260
    52 6.879455 0.000001 0.000000 -0.007300 -0.001070 -0.584369
time 6
    0 -1.314889 3.945438 30.390887 1.526454 -0.047232 -0.298949
    1 0.253919 3.337319 -2.981901 1.549983 0.089526 1.558914
    2 4.018334 -0.000001 0.000000 -0.083533 0.074796 -0.056821
    3 3.518564 0.000002 0.000000 -0.097148 0.050330 0.120720
    4 8.942647 0.000001 -0.000001 0.043229 0.048950 0.138432
    5 3.307275 -0.000002 -0.000001 3.141782 0.000228 0.410278
    6 3.593717 -0.000001 0.000000 0.457585 0.010840 0.407090
    7 2.033354 1.000774 -1.937610 -3.365773 1.178578 1.256006
    8 6.028141 0.000000 0.000000 1.493620 0.321926 -0.781732
    9 11.692555 -0.000001 0.000004 0.000009 0.000000 -1.681808
    10 11.481701 0.000000 0.000001 -0.973368 -0.319239 0.208079
    11 3.859676 -0.132570 1.193108 0.498198 0.156933 -0.982260
    12 1.312561 -0.000001 -0.000002 -0.000005 -0.456973 -1.112927
    13 0.729364 0.000000 -0.000002 0.000001 -0.000010 -0.672028
    14 3.942296 0.050328 0.431047 0.160533 0.000246 -0.910148
    15 1.539096 -0.000002 -0.000001 -0.000001 -0.214753 -1.281129
    16 1.196324 0.000000 0.000004 -0.000001 -0.000008 -0.797295
    17 3.883660 -0.050327 -0.431043 -0.084948 -0.177600 -0.644830
    18 1.719575 -0.000003 -0.000001 -0.000001 -0.031645 -1.425491
    19 1.209184 -0.000001 0.000000 -0.003428 0.022218 -0.934675
    20 3.859832 -0.148936 -1.331279 -0.269643 -0.115059 -0.374596
    21 1.719424 0.000000 -0.000001 -0.064166 0.108985 -1.117000
    22 1.099665 -0.000002 0.000001 -0.069164 0.051202 -1.337365
    23 0.806018 -0.359834 -1.318337 1.282836 0.248639 -0.715189
    24 1.789781 0.000000 0.000000 0.000003 -0.010075 0.141901
    25 1.207000 -0.000003 0.000000 0.000291 0.001995 1.187223
    26 2.033350 1.000767 1.937659 4.662750 -0.915799 -0.113767
    27 6.028143 -0.000003 0.000000 -1.846179 -0.493181 -0.127805
    28 11.692554 -0.000002 -0.000001 -0.000009 0.000000 -1.426960
    29 11.481679 0.000000 -0.000035 1.968861 0.025937 -0.146512
    30 3.859710 -0.142404 -1.191977 -0.415373 0.191518 -0.549427
    31 1.312559 0.000000 0.000001 -0.000001 0.014468 -0.256259
    32 0.729364 -0.000001 0.000003 -0.000004 0.000014 -0.307867
    33 3.942328 0.046772 -0.431442 -0.128539 0.042106 -0.495859
    34 1.539094 0.000001 0.000002 -0.000001 0.001407 -0.245325
    35 1.196323 0.000000 0.000001 0.000002 0.000007 -0.433975
    36 3.883689 -0.046770 0.431442 0.091211 -0.102599 -0.304596
    37 1.719577 0.000001 0.000002 0.000004 0.007334 -0.318208
    38 1.209184 0.000001 -0.000006 0.000000 0.000009 -0.420990
    39 3.859863 -0.137947 1.332468 0.344273 -0.197592 -0.315612
    40 1.719429 0.000001 0.000000 0.000002 -0.033284 -0.323208
    41 1.099669 0.000002 0.000003 0.000000 0.000016 -0.401297
    42 0.806050 -0.348920 1.321261 -1.470601 -0.802934 -0.528255
    43 1.789784 -0.000004 0.000004 0.005482 -0.035530 0.104119
    44 1.206998 0.000000 0.000002 0.000002 0.000011 0.303734
    45 -3.890453 0.000005 0.000007 -1.351102 0.162013 -2.013002
    46 17.848175 0.000000 0.000001 0.000000 0.000000 0.814996
    47 16.525253 -0.000001 0.000002 0.546266 0.101549 -1.742939
    48 6.879454 0.000000 0.000000 -0.081334 -0.002951 -0.584373
    49 3.890452 -0.000003 -0.000003 -1.817136 -0.774086 -1.243806
    50 17.848179 0.000000 0.000000 -0.000001 0.000000 1.220300
    51 16.525255 -0.000001 0.000000 -0.045489 0.270249 -1.363536
    52 6.879455 0.000001 0.000000 -0.007300 -0.001070 -0.584369
time 7
    0 -1.693807 3.777464 31.433887 1.485999 -0.087347 -0.245453
    1 0.324234 3.329506 -2.981901 1.545258 0.024160 1.551058
    2 4.018334 -0.000001 0.000000 -0.051546 0.082502 -0.101545
    3 3.518564 0.000002 0.000000 -0.050875 0.075438 0.045885
    4 8.942647 0.000001 -0.000001 0.011614 0.076778 0.112329
    5 3.307275 -0.000002 -0.000001 3.141686 0.000156 0.452140
    6 3.593717 -0.000001 0.000000 0.371580 -0.059609 0.508121
    7 2.033354 1.000774 -1.937610 -3.520342 1.161043 1.111869
    8 6.028141 0.000000 0.000000 1.555015 0.280635 -0.695799
    9 11.692555 -0.000001 0.000004 0.000009 0.000000 -1.561652
    10 11.481701 0.000000 0.000001 -0.978091 -0.388136 0.127733
    11 3.859676 -0.132570 1.193108 0.498198 0.156933 -0.982260
    12 1.312561 -0.000001 -0.000002 -0.000005 -0.456973 -1.112927
    13 0.729364 0.000000 -0.000002 0.000001 -0.000022 -0.672028
    14 3.942296 0.050328 0.431047 0.160533 0.000246 -0.910148
    15 1.539096 -0.000002 -0.000001 -0.000001 -0.214753 -1.281129
    16 1.196324 0.000000 0.000004 -0.000001 -0.000008 -0.797295
    17 3.883660 -0.050327 -0.431043 -0.084948 -0.177600 -0.644830
    18 1.719575 -0.000003 -0.000001 -0.000001 -0.031645 -1.425491
    19 1.209184 -0.000001 0.000000 -0.003428 0.022218 -0.934675
    20 3.859832 -0.148936 -1.331279 -0.269643 -0.115059 -0.374596
    21 1.719424 0.000000 -0.000001 -0.064166 0.108985 -1.117000
    22 1.099665 -0.000002 0.000001 -0.069164 0.051202 -1.337365
    23 0.806018 -0.359834 -1.318337 1.282836 0.248639 -0.715189
    24 1.789781 0.000000 0.000000 0.000003 -0.010075 0.141901
    25 1.207000 -0.000003 0.000000 0.000291 0.001995 1.187223
    26 2.033350 1.000767 1.937659 4.664953 -0.818153 -0.113384
    27 6.028143 -0.000003 0.000000 -1.985247 -0.483402 -0.217690
    28 11.692554 -0.000002 -0.000001 -0.000009 0.000000 -1.429012
    29 11.481679 0.000000 -0.000035 2.136472 -0.032106 -0.208707
    30 3.859710 -0.142404 -1.191977 -0.368361 0.243723 -0.392300
    31 1.312559 0.000000 0.000001 -0.000001 0.005671 -0.158779
    32 0.729364 -0.000001 0.000003 -0.000004 0.000014 -0.259053
    33 3.942328 0.046772 -0.431442 -0.109747 0.061377 -0.334902
    34 1.539094 0.000001 0.000002 -0.000001 0.000556 -0.154520
    35 1.196323 0.000000 0.000001 0.000002 0.000007 -0.308415
    36 3.883689 -0.046770 0.431442 0.090732 -0.117280 -0.142984
    37 1.719577 0.000001 0.000002 0.000004 0.002887 -0.182995
    38 1.209184 0.000001 -0.000006 0.000000 0.000009 -0.303251
    39 3.859863 -0.137947 1.332468 0.325313 -0.250744 -0.159248
    40 1.719429 0.000001 0.000000 0.000002 -0.012994 -0.184987
    41 1.099669 0.000002 0.000003 0.000000 0.000016 -0.295582
    42 0.806050 -0.348920 1.321261 -1.567326 -0.888357 -0.438322
    43 1.789784 -0.000004 0.000004 0.006417 -0.035434 0.077925
    44 1.206998 0.000000 0.000002 0.000002 0.000011 0.303734
    45 -3.890453 0.000005 0.000007 -1.311995 0.293958 -2.014239
    46 17.848175 0.000000 0.000001 0.000000 0.000000 0.659776
    47 16.525253 -0.000001 0.000002 0.533581 0.109884 -1.671843
    48 6.879454 0.000000 0.000000 -0.081334 -0.002951 -0.584373
    49 3.890452 -0.000003 -0.000003 -1.731061 -0.680804 -1.352430
    50 17.848179 0.000000 0.000000 -0.000001 0.000000 1.093693
    51 16.525255 -0.000001 0.000000 -0.045051 0.275268 -1.308583
    52 6.879455 0.000001 0.000000 -0.007300 -0.001070 -0.584369
time 8
    0 -1.908657 3.703243 32.055000 1.458912 -0.113168 -0.210200
    1 0.378923 3.325600 -2.981901 1.538993 -0.012372 1.545043
    2 4.018334 -0.000001 0.000000 -0.033305 0.087092 -0.126963
    3 3.518564 0.000002 0.000000 -0.024403 0.089999 0.002968
    4 8.942647 0.000001 -0.000001 -0.006543 0.093017 0.097528
    5 3.307275 -0.000002 -0.000001 3.141590 0.000000 0.479001
    6 3.593717 -0.000001 0.000000 0.322716 -0.100733 0.572986
    7 2.033354 1.000774 -1.937610 -3.611994 1.145446 1.027014
    8 6.028141 0.000000 0.000000 1.575509 0.257388 -0.649383
    9 11.692555 -0.000001 0.000004 0.000009 0.000000 -1.480295
    10 11.481701 0.000000 0.000001 -0.974898 -0.431599 0.074054
    11 3.859676 -0.132570 1.193108 0.498198 0.156933 -0.982260
    12 1.312561 -0.000001 -0.000002 -0.000005 -0.456973 -1.112927
    13 0.729364 0.000000 -0.000002 0.000001 -0.000022 -0.672028
    14 3.942296 0.050328 0.431047 0.160533 0.000246 -0.910148
    15 1.539096 -0.000002 -0.000001 -0.000001 -0.214753 -1.281129
    16 1.196324 0.000000 0.000004 -0.000001 -0.000008 -0.797295
    17 3.883660 -0.050327 -0.431043 -0.084948 -0.177600 -0.644830
    18 1.719575 -0.000003 -0.000001 -0.000001 -0.031645 -1.425491
    19 1.209184 -0.000001 0.000000 -0.003428 0.022218 -0.934675
    20 3.859832 -0.148936 -1.331279 -0.269643 -0.115059 -0.374596
    21 1.719424 0.000000 -0.000001 -0.064166 0.108985 -1.117000
    22 1.099665 -0.000002 0.000001 -0.069164 0.051202 -1.337365
    23 0.806018 -0.359834 -1.318337 1.282836 0.248639 -0.715189
    24 1.789781 0.000000 0.000000 0.000003 -0.010075 0.141901
    25 1.207000 -0.000003 0.000000 0.000291 0.001995 1.187223
    26 2.033350 1.000767 1.937659 4.665336 -0.754312 -0.113096
    27 6.028143 -0.000003 0.000000 -2.059416 -0.479686 -0.274593
    28 11.692554 -0.000002 -0.000001 -0.000009 0.000000 -1.386905
    29 11.481679 0.000000 -0.000035 2.247819 -0.068374 -0.249177
    30 3.859710 -0.142404 -1.191977 -0.332769 0.273050 -0.289242
    31 1.312559 0.000000 0.000001 -0.000001 0.000014 -0.096250
    32 0.729364 -0.000001 0.000003 -0.000004 0.000014 -0.227807
    33 3.942328 0.046772 -0.431442 -0.096145 0.072068 -0.231366
    34 1.539094 0.000001 0.000002 -0.000001 0.000005 -0.096276
    35 1.196323 0.000000 0.000001 0.000002 0.000007 -0.227792
    36 3.883689 -0.046770 0.431442 0.089150 -0.126592 -0.039131
    37 1.719577 0.000001 0.000002 0.000004 0.000011 -0.096240
    38 1.209184 0.000001 -0.000006 0.000000 0.000009 -0.227719
    39 3.859863 -0.137947 1.332468 0.308559 -0.283054 -0.057199
    40 1.719429 0.000001 0.000000 0.000002 0.000021 -0.096272
    41 1.099669 0.000002 0.000003 0.000000 0.000016 -0.227782
    42 0.806050 -0.348920 1.321261 -1.643916 -0.939453 -0.368905
    43 1.789784 -0.000004 0.000004 0.007029 -0.035386 0.061148
    44 1.206998 0.000000 0.000002 0.000002 0.000011 0.303734
    45 -3.890453 0.000005 0.000007 -1.283699 0.381527 -2.011765
    46 17.848175 0.000000 0.000001 0.000000 0.000000 0.549984
    47 16.525253 -0.000001 0.000002 0.526404 0.114583 -1.619574
    48 6.879454 0.000000 0.000000 -0.081334 -0.002951 -0.584373
    49 3.890452 -0.000003 -0.000003 -1.683806 -0.618012 -1.413615
    50 17.848179 0.000000 0.000000 -0.000001 0.000000 1.008987
    51 16.525255 -0.000001 0.000000 -0.044807 0.278178 -1.269425
    52 6.879455 0.000001 0.000000 -0.007300 -0.001070 -0.584369
time 9
    0 -1.990691 3.746213 32.277663 1.444249 -0.126702 -0.191196
    1 0.402361 3.321693 -2.981901 1.532144 -0.021070 1.540369
    2 4.018334 -0.000001 0.000000 -0.026762 0.089345 -0.136060
    3 3.518564 0.000002 0.000000 -0.014894 0.096327 -0.011178
    4 8.942647 0.000001 -0.000001 -0.013506 0.099106 0.092363
    5 3.307275 -0.000002 -0.000001 3.141398 -0.000264 0.493131
    6 3.593717 -0.000001 0.000000 0.304517 -0.112694 0.602459
    7 2.033354 1.000774 -1.937610 -3.657534 1.136038 0.985065
    8 6.028141 0.000000 0.000000 1.581542 0.236861 -0.636987
    9 11.692555 -0.000001 0.000004 0.000009 0.000000 -1.458865
    10 11.481701 0.000000 0.000001 -0.971106 -0.454104 0.044969
    11 3.859676 -0.132570 1.193108 0.498198 0.156933 -0.982260
    12 1.312561 -0.000001 -0.000002 -0.000005 -0.456973 -1.112927
    13 0.729364 0.000000 -0.000002 0.000001 -0.000010 -0.672028
    14 3.942296 0.050328 0.431047 0.160533 0.000246 -0.910148
    15 1.539096 -0.000002 -0.000001 -0.000001 -0.214753 -1.281129
    16 1.196324 0.000000 0.000004 -0.000001 -0.000008 -0.797295
    17 3.883660 -0.050327 -0.431043 -0.084948 -0.177600 -0.644830
    18 1.719575 -0.000003 -0.000001 -0.000001 -0.031645 -1.425491
    19 1.209184 -0.000001 0.000000 -0.003428 0.022218 -0.934675
    20 3.859832 -0.148936 -1.331279 -0.269643 -0.115059 -0.374596
    21 1.719424 0.000000 -0.000001 -0.064166 0.108985 -1.117000
    22 1.099665 -0.000002 0.000001 -0.069164 0.051202 -1.337365
    23 0.806018 -0.359834 -1.318337 1.282836 0.248639 -0.715189
    24 1.789781 0.000000 0.000000 0.000003 -0.010075 0.141901
    25 1.207000 -0.000003 0.000000 0.000291 0.002007 1.187223
    26 2.033350 1.000767 1.937659 4.663804 -0.718740 -0.113001
    27 6.028143 -0.000003 0.000000 -2.079965 -0.470200 -0.309351
    28 11.692554 -0.000002 -0.000001 -0.000009 0.000000 -1.363419
    29 11.481679 0.000000 -0.000035 2.307556 -0.087028 -0.270682
    30 3.859710 -0.142404 -1.191977 -0.312444 0.287000 -0.234218
    31 1.312559 0.000000 0.000001 -0.000001 -0.002970 -0.063339
    32 0.729364 -0.000001 0.000003 -0.000004 0.000014 -0.211325
    33 3.942328 0.046772 -0.431442 -0.088558 0.077077 -0.176790
    34 1.539094 0.000001 0.000002 -0.000001 -0.000283 -0.065547
    35 1.196323 0.000000 0.000001 0.000002 0.000007 -0.185351
    36 3.883689 -0.046770 0.431442 0.087915 -0.131410 0.015563
    37 1.719577 0.000001 0.000002 0.000004 -0.001499 -0.050560
    38 1.209184 0.000001 -0.000006 0.000000 0.000009 -0.188050
    39 3.859863 -0.137947 1.332468 0.298312 -0.299341 -0.002885
    40 1.719429 0.000001 0.000000 0.000002 0.006840 -0.049578
    41 1.099669 0.000002 0.000003 0.000000 0.000016 -0.192060
    42 0.806050 -0.348920 1.321261 -1.689533 -0.964848 -0.328020
    43 1.789784 -0.000004 0.000004 0.007340 -0.035350 0.052301
    44 1.206998 0.000000 0.000002 0.000002 0.000011 0.303734
    45 -3.890453 0.000005 0.000007 -1.269509 0.415287 -2.013930
    46 17.848175 0.000000 0.000001 0.000000 0.000000 0.515364
    47 16.525253 -0.000001 0.000002 0.523239 0.116653 -1.602450
    48 6.879454 0.000000 0.000000 -0.081334 -0.002951 -0.584373
    49 3.890452 -0.000003 -0.000003 -1.661376 -0.591339 -1.442441
    50 17.848179 0.000000 0.000000 -0.000001 0.000000 0.971666
    51 16.525255 -0.000001 0.000000 -0.044661 0.279702 -1.248900
    52 6.879455 0.000001 0.000000 -0.007300 -0.001070 -0.584369
time 10
    0 -2.037567 3.808715 32.433918 1.435593 -0.134579 -0.180079
    1 0.417987 3.321693 -2.981901 1.524392 -0.024369 1.537635
    2 4.018334 -0.000001 0.000000 -0.023106 0.090939 -0.141007
    3 3.518564 0.000002 0.000000 -0.009509 0.100306 -0.019059
    4 8.942647 0.000001 -0.000001 -0.017616 0.102965 0.089702
    5 3.307275 -0.000002 -0.000001 3.141207 -0.000635 0.501303
    6 3.593717 -0.000001 0.000000 0.293974 -0.119625 0.627813
    7 2.033354 1.000774 -1.937610 -3.683121 1.130221 0.961505
    8 6.028141 0.000000 0.000000 1.584558 0.224593 -0.626176
    9 11.692555 -0.000001 0.000004 0.000009 0.000000 -1.449692
    10 11.481701 0.000000 0.000001 -0.968312 -0.467002 0.027895
    11 3.859676 -0.132570 1.193108 0.498198 0.156933 -0.982260
    12 1.312561 -0.000001 -0.000002 -0.000005 -0.456973 -1.112927
    13 0.729364 0.000000 -0.000002 0.000001 -0.000022 -0.672028
    14 3.942296 0.050328 0.431047 0.160533 0.000246 -0.910148
    15 1.539096 -0.000002 -0.000001 -0.000001 -0.214753 -1.281129
    16 1.196324 0.000000 0.000004 -0.000001 -0.000008 -0.797295
    17 3.883660 -0.050327 -0.431043 -0.084948 -0.177600 -0.644830
    18 1.719575 -0.000003 -0.000001 -0.000001 -0.031645 -1.425491
    19 1.209184 -0.000001 0.000000 -0.003428 0.022218 -0.934675
    20 3.859832 -0.148936 -1.331279 -0.269643 -0.115059 -0.374596
    21 1.719424 0.000000 -0.000001 -0.064166 0.108985 -1.117000
    22 1.099665 -0.000002 0.000001 -0.069164 0.051202 -1.337365
    23 0.806018 -0.359834 -1.318337 1.282836 0.248639 -0.715189
    24 1.789781 0.000000 0.000000 0.000003 -0.010075 0.141901
    25 1.207000 -0.000003 0.000000 0.000291 0.001995 1.187223
    26 2.033350 1.000767 1.937659 4.660739 -0.695771 -0.113288
    27 6.028143 -0.000003 0.000000 -2.090097 -0.452793 -0.331402
    28 11.692554 -0.000002 -0.000001 -0.000009 0.000000 -1.344037
    29 11.481679 0.000000 -0.000035 2.342594 -0.097730 -0.283239
    30 3.859710 -0.142404 -1.191977 -0.300160 0.294586 -0.202104
    31 1.312559 0.000000 0.000001 -0.000001 -0.004696 -0.044235
    32 0.729364 -0.000001 0.000003 -0.000004 0.000014 -0.201751
    33 3.942328 0.046772 -0.431442 -0.084028 0.079810 -0.145074
    34 1.539094 0.000001 0.000002 -0.000001 -0.000451 -0.047752
    35 1.196323 0.000000 0.000001 0.000002 0.000007 -0.160738
    36 3.883689 -0.046770 0.431442 0.087088 -0.134166 0.047343
    37 1.719577 0.000001 0.000002 0.000004 -0.002374 -0.024066
    38 1.209184 0.000001 -0.000006 0.000000 0.000009 -0.164952
    39 3.859863 -0.137947 1.332468 0.291924 -0.308545 0.028822
    40 1.719429 0.000001 0.000000 0.000002 0.010819 -0.022489
    41 1.099669 0.000002 0.000003 0.000000 0.000016 -0.171370
    42 0.806050 -0.348920 1.321261 -1.717796 -0.979038 -0.302724
    43 1.789784 -0.000004 0.000004 0.007520 -0.035338 0.047172
    44 1.206998 0.000000 0.000002 0.000002 0.000011 0.303734
    45 -3.890453 0.000005 0.000007 -1.260978 0.431826 -2.014703
    46 17.848175 0.000000 0.000001 0.000000 0.000000 0.497079
    47 16.525253 -0.000001 0.000002 0.520348 0.118536 -1.591666
    48 6.879454 0.000000 0.000000 -0.081334 -0.002951 -0.584373
    49 3.890452 -0.000003 -0.000003 -1.648820 -0.573916 -1.459050
    50 17.848179 0.000000 0.000000 -0.000001 0.000000 0.944632
    51 16.525255 -0.000001 0.000000 -0.044588 0.280580 -1.233341
    52 6.879455 0.000001 0.000000 -0.007300 -0.001070 -0.584369
time 11
    0 -2.061005 3.882936 32.535483 1.432059 -0.137742 -0.175613
    1 0.421893 3.317787 -2.981901 1.516163 -0.023303 1.536392
    2 4.018334 -0.000001 0.000000 -0.021872 0.091994 -0.142551
    3 3.518564 0.000002 0.000000 -0.007520 0.102331 -0.021798
    4 8.942647 0.000001 -0.000001 -0.019378 0.104978 0.089091
    5 3.307275 -0.000002 -0.000001 3.140727 -0.001115 0.504598
    6 3.593717 -0.000001 0.000000 0.289687 -0.122433 0.649210
    7 2.033354 1.000774 -1.937610 -3.693241 1.127786 0.952215
    8 6.028141 0.000000 0.000000 1.586155 0.218674 -0.616949
    9 11.692555 -0.000001 0.000004 0.000009 0.000000 -1.451046
    10 11.481701 0.000000 0.000001 -0.966982 -0.472201 0.020912
    11 3.859676 -0.132570 1.193108 0.498198 0.156933 -0.982260
    12 1.312561 -0.000001 -0.000002 -0.000005 -0.456973 -1.112927
    13 0.729364 0.000000 -0.000002 0.000001 -0.000010 -0.672028
    14 3.942296 0.050328 0.431047 0.160533 0.000246 -0.910148
    15 1.539096 -0.000002 -0.000001 -0.000001 -0.214753 -1.281129
    16 1.196324 0.000000 0.000004 -0.000001 -0.000008 -0.797295
    17 3.883660 -0.050327 -0.431043 -0.084948 -0.177600 -0.644830
    18 1.719575 -0.000003 -0.000001 -0.000001 -0.031645 -1.425491
    19 1.209184 -0.000001 0.000000 -0.003428 0.022218 -0.934675
    20 3.859832 -0.148936 -1.331279 -0.269643 -0.115059 -0.374596
    21 1.719424 0.000000 -0.000001 -0.064166 0.108985 -1.117000
    22 1.099665 -0.000002 0.000001 -0.069164 0.051202 -1.337365
    23 0.806018 -0.359834 -1.318337 1.282836 0.248639 -0.715189
    24 1.789781 0.000000 0.000000 0.000003 -0.010075 0.141901
    25 1.207000 -0.000003 0.000000 0.000291 0.002007 1.187223
    26 2.033350 1.000767 1.937659 4.656526 -0.683286 -0.113671
    27 6.028143 -0.000003 0.000000 -2.092199 -0.428932 -0.342428
    28 11.692554 -0.000002 -0.000001 -0.000009 0.000000 -1.330584
    29 11.481679 0.000000 -0.000035 2.356877 -0.102040 -0.288357
    30 3.859710 -0.142404 -1.191977 -0.295101 0.297534 -0.189051
    31 1.312559 0.000000 0.000001 -0.000001 -0.005391 -0.036507
    32 0.729364 -0.000001 0.000003 -0.000004 0.000014 -0.197894
    33 3.942328 0.046772 -0.431442 -0.082183 0.080876 -0.132283
    34 1.539094 0.000001 0.000002 -0.000001 -0.000511 -0.040575
    35 1.196323 0.000000 0.000001 0.000002 0.000007 -0.150789
    36 3.883689 -0.046770 0.431442 0.086741 -0.135281 0.060169
    37 1.719577 0.000001 0.000002 0.000004 -0.002733 -0.013358
    38 1.209184 0.000001 -0.000006 0.000000 0.000009 -0.155633
    39 3.859863 -0.137947 1.332468 0.289252 -0.312213 0.041690
    40 1.719429 0.000001 0.000000 0.000002 0.012425 -0.011536
    41 1.099669 0.000002 0.000003 0.000000 0.000016 -0.162988
    42 0.806050 -0.348920 1.321261 -1.729585 -0.984653 -0.292209
    43 1.789784 -0.000004 0.000004 0.007604 -0.035314 0.045090
    44 1.206998 0.000000 0.000002 0.000002 0.000011 0.303734
    45 -3.890453 0.000005 0.000007 -1.257515 0.433831 -2.014471
    46 17.848175 0.000000 0.000001 0.000000 0.000000 0.493422
    47 16.525253 -0.000001 0.000002 0.517732 0.120252 -1.586888
    48 6.879454 0.000000 0.000000 -0.081334 -0.002951 -0.584373
    49 3.890452 -0.000003 -0.000003 -1.643739 -0.564715 -1.465827
    50 17.848179 0.000000 0.000000 -0.000001 0.000000 0.926910
    51 16.525255 -0.000001 0.000000 -0.044563 0.280854 -1.222275
    52 6.879455 0.000001 0.000000 -0.007300 -0.001070 -0.584369
time 12
    0 -2.061005 3.957157 32.590173 1.432589 -0.137286 -0.176278
    1 0.421893 3.321693 -2.981901 1.507827 -0.018955 1.536441
    2 4.018334 -0.000001 0.000000 -0.022483 0.092593 -0.141456
    3 3.518564 0.000002 0.000000 -0.008183 0.102811 -0.020501
    4 8.942647 0.000001 -0.000001 -0.019282 0.105505 0.090062
    5 3.307275 -0.000002 -0.000001 3.140344 -0.001618 0.504071
    6 3.593717 -0.000001 0.000000 0.290387 -0.121989 0.666971
    7 2.033354 1.000774 -1.937610 -3.691618 1.128199 0.953652
    8 6.028141 0.000000 0.000000 1.587042 0.217576 -0.609027
    9 11.692555 -0.000001 0.000004 0.000009 0.000000 -1.460595
    10 11.481701 0.000000 0.000001 -0.967181 -0.471378 0.022024
    11 3.859676 -0.132570 1.193108 0.498198 0.156933 -0.982260
    12 1.312561 -0.000001 -0.000002 -0.000005 -0.456973 -1.112927
    13 0.729364 0.000000 -0.000002 0.000001 -0.000010 -0.672028
    14 3.942296 0.050328 0.431047 0.160533 0.000246 -0.910148
    15 1.539096 -0.000002 -0.000001 -0.000001 -0.214753 -1.281129
    16 1.196324 0.000000 0.000004 -0.000001 -0.000008 -0.797295
    17 3.883660 -0.050327 -0.431043 -0.084948 -0.177600 -0.644830
    18 1.719575 -0.000003 -0.000001 -0.000001 -0.031645 -1.425491
    19 1.209184 -0.000001 0.000000 -0.003428 0.022218 -0.934675
    20 3.859832 -0.148936 -1.331279 -0.269643 -0.115059 -0.374596
    21 1.719424 0.000000 -0.000001 -0.064166 0.108985 -1.117000
    22 1.099665 -0.000002 0.000001 -0.069164 0.051202 -1.337365
    23 0.806018 -0.359834 -1.318337 1.282836 0.248639 -0.715189
    24 1.789781 0.000000 0.000000 0.000003 -0.010075 0.141901
    25 1.207000 -0.000003 0.000000 0.000291 0.001995 1.187223
    26 2.033350 1.000767 1.937659 4.651546 -0.679242 -0.114246
    27 6.028143 -0.000003 0.000000 -2.088663 -0.400524 -0.344296
    28 11.692554 -0.000002 -0.000001 -0.000009 0.000000 -1.323592
    29 11.481679 0.000000 -0.000035 2.354589 -0.101371 -0.287547
    30 3.859710 -0.142404 -1.191977 -0.295905 0.297079 -0.191099
    31 1.312559 0.000000 0.000001 -0.000001 -0.005283 -0.037723
    32 0.729364 -0.000001 0.000003 -0.000004 0.000014 -0.198490
    33 3.942328 0.046772 -0.431442 -0.082470 0.080709 -0.134287
    34 1.539094 0.000001 0.000002 -0.000001 -0.000499 -0.041696
    35 1.196323 0.000000 0.000001 0.000002 0.000007 -0.152371
    36 3.883689 -0.046770 0.431442 0.086801 -0.135101 0.058145
    37 1.719577 0.000001 0.000002 0.000004 -0.002673 -0.015039
    38 1.209184 0.000001 -0.000006 0.000000 0.000009 -0.157119
    39 3.859863 -0.137947 1.332468 0.289671 -0.311637 0.039678
    40 1.719429 0.000001 0.000000 0.000002 0.012174 -0.013252
    41 1.099669 0.000002 0.000003 0.000000 0.000016 -0.164296
    42 0.806050 -0.348920 1.321261 -1.727681 -0.983786 -0.293900
    43 1.789784 -0.000004 0.000004 0.007592 -0.035314 0.045412
    44 1.206998 0.000000 0.000002 0.000002 0.000011 0.303734
    45 -3.890453 0.000005 0.000007 -1.258275 0.424582 -2.013930
    46 17.848175 0.000000 0.000001 0.000000 0.000000 0.501305
    47 16.525253 -0.000001 0.000002 0.515339 0.121799 -1.586935
    48 6.879454 0.000000 0.000000 -0.081334 -0.002951 -0.584373
    49 3.890452 -0.000003 -0.000003 -1.644315 -0.562415 -1.465064
    50 17.848179 0.000000 0.000000 -0.000001 0.000000 0.917148
    51 16.525255 -0.000001 0.000000 -0.044588 0.280678 -1.215276
    52 6.879455 0.000001 0.000000 -0.007300 -0.001070 -0.584369
time 13
    0 -2.041474 4.039191 32.613611 1.436181 -0.134062 -0.180839
    1 0.417987 3.321693 -2.981901 1.499757 -0.012372 1.537336
    2 4.018334 -0.000001 0.000000 -0.024461 0.092821 -0.138467
    3 3.518564 0.000002 0.000000 -0.010756 0.102128 -0.016320
    4 8.942647 0.000001 -0.000001 -0.017844 0.104930 0.092147
    5 3.307275 -0.000002 -0.000001 3.139864 -0.002121 0.500723
    6 3.593717 -0.000001 0.000000 0.294631 -0.119181 0.681289
    7 2.033354 1.000774 -1.937610 -3.681498 1.130592 0.963038
    8 6.028141 0.000000 0.000000 1.587486 0.219868 -0.602409
    9 11.692555 -0.000001 0.000004 0.000009 0.000000 -1.475859
    10 11.481701 0.000000 0.000001 -0.968512 -0.466179 0.029008
    11 3.859676 -0.132570 1.193108 0.498198 0.156933 -0.982260
    12 1.312561 -0.000001 -0.000002 -0.000005 -0.456973 -1.112927
    13 0.729364 0.000000 -0.000002 0.000001 -0.000022 -0.672028
    14 3.942296 0.050328 0.431047 0.160533 0.000246 -0.910148
    15 1.539096 -0.000002 -0.000001 -0.000001 -0.214753 -1.281129
    16 1.196324 0.000000 0.000004 -0.000001 -0.000008 -0.797295
    17 3.883660 -0.050327 -0.431043 -0.084948 -0.177600 -0.644830
    18 1.719575 -0.000003 -0.000001 -0.000001 -0.031645 -1.425491
    19 1.209184 -0.000001 0.000000 -0.003428 0.022218 -0.934675
    20 3.859832 -0.148936 -1.331279 -0.269643 -0.115059 -0.374596
    21 1.719424 0.000000 -0.000001 -0.064166 0.108985 -1.117000
    22 1.099665 -0.000002 0.000001 -0.069164 0.051202 -1.337365
    23 0.806018 -0.359834 -1.318337 1.282836 0.248639 -0.715189
    24 1.789781 0.000000 0.000000 0.000003 -0.010075 0.141901
    25 1.207000 -0.000003 0.000000 0.000291 0.001995 1.187223
    26 2.033350 1.000767 1.937659 4.646279 -0.681558 -0.114917
    27 6.028143 -0.000003 0.000000 -2.081303 -0.369524 -0.339157
    28 11.692554 -0.000002 -0.000001 -0.000009 0.000000 -1.322452
    29 11.481679 0.000000 -0.000035 2.340384 -0.097061 -0.282466
    30 3.859710 -0.142404 -1.191977 -0.300950 0.294107 -0.204152
    31 1.312559 0.000000 0.000001 -0.000001 -0.004588 -0.045451
    32 0.729364 -0.000001 0.000003 -0.000004 0.000014 -0.202383
    33 3.942328 0.046772 -0.431442 -0.084328 0.079642 -0.147127
    34 1.539094 0.000001 0.000002 -0.000001 -0.000439 -0.048911
    35 1.196323 0.000000 0.000001 0.000002 0.000007 -0.162320
    36 3.883689 -0.046770 0.431442 0.087148 -0.133999 0.045320
    37 1.719577 0.000001 0.000002 0.000004 -0.002314 -0.025783
    38 1.209184 0.000001 -0.000006 0.000000 0.000009 -0.166438
    39 3.859863 -0.137947 1.332468 0.292344 -0.307958 0.026810
    40 1.719429 0.000001 0.000000 0.000002 0.010568 -0.024205
    41 1.099669 0.000002 0.000003 0.000000 0.000016 -0.172679
    42 0.806050 -0.348920 1.321261 -1.715966 -0.978145 -0.304415
    43 1.789784 -0.000004 0.000004 0.007508 -0.035326 0.047494
    44 1.206998 0.000000 0.000002 0.000002 0.000011 0.303734
    45 -3.890453 0.000005 0.000007 -1.261738 0.407633 -2.012770
    46 17.848175 0.000000 0.000001 0.000000 0.000000 0.516827
    47 16.525253 -0.000001 0.000002 0.513246 0.123161 -1.590246
    48 6.879454 0.000000 0.000000 -0.081334 -0.002951 -0.584373
    49 3.890452 -0.000003 -0.000003 -1.648820 -0.565302 -1.459145
    50 17.848179 0.000000 0.000000 -0.000001 0.000000 0.913769
    51 16.525255 -0.000001 0.000000 -0.044636 0.280190 -1.211587
    52 6.879455 0.000001 0.000000 -0.007300 -0.001070 -0.584369
time 14
    0 -2.014129 4.121225 32.609704 1.441422 -0.129226 -0.187681
    1 0.410174 3.321693 -2.981901 1.492324 -0.004606 1.538778
    2 4.018334 -0.000001 0.000000 -0.027253 0.092797 -0.134334
    3 3.518564 0.000002 0.000000 -0.014536 0.100678 -0.010362
    4 8.942647 0.000001 -0.000001 -0.015543 0.103624 0.094904
    5 3.307275 -0.000002 -0.000001 3.139481 -0.002637 0.495661
    6 3.593717 -0.000001 0.000000 0.301149 -0.114898 0.692421
    7 2.033354 1.000774 -1.937610 -3.665745 1.134223 0.977499
    8 6.028141 0.000000 0.000000 1.587486 0.224402 -0.596817
    9 11.692555 -0.000001 0.000004 0.000009 0.000000 -1.494130
    10 11.481701 0.000000 0.000001 -0.970308 -0.458217 0.039598
    11 3.859676 -0.132570 1.193108 0.498198 0.156933 -0.982260
    12 1.312561 -0.000001 -0.000002 -0.000005 -0.456973 -1.112927
    13 0.729364 0.000000 -0.000002 0.000001 -0.000010 -0.672028
    14 3.942296 0.050328 0.431047 0.160533 0.000246 -0.910148
    15 1.539096 -0.000002 -0.000001 -0.000001 -0.214753 -1.281129
    16 1.196324 0.000000 0.000004 -0.000001 -0.000008 -0.797295
    17 3.883660 -0.050327 -0.431043 -0.084948 -0.177600 -0.644830
    18 1.719575 -0.000003 -0.000001 -0.000001 -0.031645 -1.425491
    19 1.209184 -0.000001 0.000000 -0.003428 0.022218 -0.934675
    20 3.859832 -0.148936 -1.331279 -0.269643 -0.115059 -0.374596
    21 1.719424 0.000000 -0.000001 -0.064166 0.108985 -1.117000
    22 1.099665 -0.000002 0.000001 -0.069164 0.051202 -1.337365
    23 0.806018 -0.359834 -1.318337 1.282836 0.248639 -0.715189
    24 1.789781 0.000000 0.000000 0.000003 -0.010075 0.141901
    25 1.207000 -0.000003 0.000000 0.000291 0.001995 1.187223
    26 2.033350 1.000767 1.937659 4.641108 -0.688115 -0.115683
    27 6.028143 -0.000003 0.000000 -2.071841 -0.338280 -0.329347
    28 11.692554 -0.000002 -0.000001 -0.000009 0.000000 -1.325872
    29 11.481679 0.000000 -0.000035 2.318762 -0.090484 -0.274696
    30 3.859710 -0.142404 -1.191977 -0.308554 0.289457 -0.223977
    31 1.312559 0.000000 0.000001 -0.000001 -0.003509 -0.057219
    32 0.729364 -0.000001 0.000003 -0.000004 0.000014 -0.208274
    33 3.942328 0.046772 -0.431442 -0.087120 0.077964 -0.166647
    34 1.539094 0.000001 0.000002 -0.000001 -0.000331 -0.059902
    35 1.196323 0.000000 0.000001 0.000002 0.000007 -0.177501
    36 3.883689 -0.046770 0.431442 0.087676 -0.132297 0.025710
    37 1.719577 0.000001 0.000002 0.000004 -0.001775 -0.042118
    38 1.209184 0.000001 -0.000006 0.000000 0.000009 -0.180689
    39 3.859863 -0.137947 1.332468 0.296311 -0.302301 0.007237
    40 1.719429 0.000001 0.000000 0.000002 0.008111 -0.040925
    41 1.099669 0.000002 0.000003 0.000000 0.000016 -0.185446
    42 0.806050 -0.348920 1.321261 -1.698392 -0.969442 -0.320078
    43 1.789784 -0.000004 0.000004 0.007400 -0.035350 0.050666
    44 1.206998 0.000000 0.000002 0.000002 0.000011 0.303734
    45 -3.890453 0.000005 0.000007 -1.266806 0.386584 -2.011302
    46 17.848175 0.000000 0.000001 0.000000 0.000000 0.536087
    47 16.525253 -0.000001 0.000002 0.511477 0.124317 -1.595261
    48 6.879454 0.000000 0.000000 -0.081334 -0.002951 -0.584373
    49 3.890452 -0.000003 -0.000003 -1.656104 -0.571616 -1.449791
    50 17.848179 0.000000 0.000000 -0.000001 0.000000 0.915121
    51 16.525255 -0.000001 0.000000 -0.044685 0.279487 -1.210357
    52 6.879455 0.000001 0.000000 -0.007300 -0.001070 -0.584369
time 15
    0 -1.982878 4.187633 32.586266 1.447488 -0.123691 -0.195472
    1 0.398455 3.321693 -2.981901 1.485847 0.003280 1.540518
    2 4.018334 -0.000001 0.000000 -0.030333 0.092617 -0.129801
    3 3.518564 0.000002 0.000000 -0.018740 0.098868 -0.003777
    4 8.942647 0.000001 -0.000001 -0.012882 0.101958 0.097840
    5 3.307275 -0.000002 -0.000001 3.139001 -0.003068 0.489862
    6 3.593717 -0.000001 0.000000 0.308542 -0.110010 0.700658
    7 2.033354 1.000774 -1.937610 -3.647605 1.138225 0.994260
    8 6.028141 0.000000 0.000000 1.587042 0.229987 -0.592436
    9 11.692555 -0.000001 0.000004 0.000009 0.000000 -1.512702
    10 11.481701 0.000000 0.000001 -0.972104 -0.449136 0.051492
    11 3.859676 -0.132570 1.193108 0.498198 0.156933 -0.982260
    12 1.312561 -0.000001 -0.000002 -0.000005 -0.456973 -1.112927
    13 0.729364 0.000000 -0.000002 0.000001 -0.000010 -0.672028
    14 3.942296 0.050328 0.431047 0.160533 0.000246 -0.910148
    15 1.539096 -0.000002 -0.000001 -0.000001 -0.214753 -1.281129
    16 1.196324 0.000000 0.000004 -0.000001 -0.000008 -0.797295
    17 3.883660 -0.050327 -0.431043 -0.084948 -0.177600 -0.644830
    18 1.719575 -0.000003 -0.000001 -0.000001 -0.031645 -1.425491
    19 1.209184 -0.000001 0.000000 -0.003428 0.022218 -0.934675
    20 3.859832 -0.148936 -1.331279 -0.269643 -0.115059 -0.374596
    21 1.719424 0.000000 -0.000001 -0.064166 0.108985 -1.117000
    22 1.099665 -0.000002 0.000001 -0.069164 0.051202 -1.337365
    23 0.806018 -0.359834 -1.318337 1.282836 0.248639 -0.715189
    24 1.789781 0.000000 0.000000 0.000003 -0.010075 0.141901
    25 1.207000 -0.000003 0.000000 0.000291 0.001995 1.187223
    26 2.033350 1.000767 1.937659 4.636416 -0.696831 -0.116354
    27 6.028143 -0.000003 0.000000 -2.061996 -0.309284 -0.317293
    28 11.692554 -0.000002 -0.000001 -0.000009 0.000000 -1.332029
    29 11.481679 0.000000 -0.000035 2.294220 -0.082903 -0.265895
    30 3.859710 -0.142404 -1.191977 -0.317050 0.283992 -0.246479
    31 1.312559 0.000000 0.000001 -0.000001 -0.002299 -0.070635
    32 0.729364 -0.000001 0.000003 -0.000004 0.000014 -0.214972
    33 3.942328 0.046772 -0.431442 -0.090272 0.075999 -0.188938
    34 1.539094 0.000001 0.000002 -0.000001 -0.000211 -0.072388
    35 1.196323 0.000000 0.000001 0.000002 0.000007 -0.194782
    36 3.883689 -0.046770 0.431442 0.088215 -0.130343 0.003422
    37 1.719577 0.000001 0.000002 0.000004 -0.001163 -0.060719
    38 1.209184 0.000001 -0.000006 0.000000 0.000009 -0.196861
    39 3.859863 -0.137947 1.332468 0.300673 -0.295770 -0.014986
    40 1.719429 0.000001 0.000000 0.000002 0.005318 -0.059946
    41 1.099669 0.000002 0.000003 0.000000 0.000016 -0.200018
    42 0.806050 -0.348920 1.321261 -1.679062 -0.959310 -0.337432
    43 1.789784 -0.000004 0.000004 0.007268 -0.035350 0.054259
    44 1.206998 0.000000 0.000002 0.000002 0.000011 0.303734
    45 -3.890453 0.000005 0.000007 -1.272465 0.364851 -2.009369
    46 17.848175 0.000000 0.000001 0.000000 0.000000 0.555754
    47 16.525253 -0.000001 0.000002 0.510056 0.125249 -1.600748
    48 6.879454 0.000000 0.000000 -0.081334 -0.002951 -0.584373
    49 3.890452 -0.000003 -0.000003 -1.664539 -0.579495 -1.438814
    50 17.848179 0.000000 0.000000 -0.000001 0.000000 0.919326
    51 16.525255 -0.000001 0.000000 -0.044758 0.278764 -1.210830
    52 6.879455 0.000001 0.000000 -0.007300 -0.001070 -0.584369
time 16
    0 -1.951627 4.250135 32.566734 1.453141 -0.118521 -0.202694
    1 0.386736 3.325600 -2.981901 1.480750 0.010234 1.542209
    2 4.018334 -0.000001 0.000000 -0.033173 0.092341 -0.125651
    3 3.518564 0.000002 0.000000 -0.022639 0.097082 0.002327
    4 8.942647 0.000001 -0.000001 -0.010366 0.100304 0.100512
    5 3.307275 -0.000002 -0.000001 3.138810 -0.003440 0.484458
    6 3.593717 -0.000001 0.000000 0.315541 -0.105461 0.706257
    7 2.033354 1.000774 -1.937610 -3.630229 1.141856 1.010254
    8 6.028141 0.000000 0.000000 1.586333 0.235429 -0.589081
    9 11.692555 -0.000001 0.000004 0.000009 0.000000 -1.529094
    10 11.481701 0.000000 0.000001 -0.973567 -0.440516 0.062658
    11 3.859676 -0.132570 1.193108 0.498198 0.156933 -0.982260
    12 1.312561 -0.000001 -0.000002 -0.000005 -0.456973 -1.112927
    13 0.729364 0.000000 -0.000002 0.000001 -0.000010 -0.672028
    14 3.942296 0.050328 0.431047 0.160533 0.000246 -0.910148
    15 1.539096 -0.000002 -0.000001 -0.000001 -0.214753 -1.281129
    16 1.196324 0.000000 0.000004 -0.000001 -0.000008 -0.797295
    17 3.883660 -0.050327 -0.431043 -0.084948 -0.177600 -0.644830
    18 1.719575 -0.000003 -0.000001 -0.000001 -0.031645 -1.425491
    19 1.209184 -0.000001 0.000000 -0.003428 0.022218 -0.934675
    20 3.859832 -0.148936 -1.331279 -0.269643 -0.115059 -0.374596
    21 1.719424 0.000000 -0.000001 -0.064166 0.108985 -1.117000
    22 1.099665 -0.000002 0.000001 -0.069164 0.051202 -1.337365
    23 0.806018 -0.359834 -1.318337 1.282836 0.248639 -0.715189
    24 1.789781 0.000000 0.000000 0.000003 -0.010075 0.141901
    25 1.207000 -0.000003 0.000000 0.000291 0.001995 1.187223
    26 2.033350 1.000767 1.937659 4.632585 -0.705626 -0.116929
    27 6.028143 -0.000003 0.000000 -2.053203 -0.285228 -0.305614
    28 11.692554 -0.000002 -0.000001 -0.000009 0.000000 -1.339097
    29 11.481679 0.000000 -0.000035 2.271335 -0.075768 -0.257646
    30 3.859710 -0.142404 -1.191977 -0.324873 0.278694 -0.267533
    31 1.312559 0.000000 0.000001 -0.000001 -0.001160 -0.083227
    32 0.729364 -0.000001 0.000003 -0.000004 0.000014 -0.221284
    33 3.942328 0.046772 -0.431442 -0.093184 0.074081 -0.209793
    34 1.539094 0.000001 0.000002 -0.000001 -0.000103 -0.084164
    35 1.196323 0.000000 0.000001 0.000002 0.000007 -0.211028
    36 3.883689 -0.046770 0.431442 0.088682 -0.128498 -0.017528
    37 1.719577 0.000001 0.000002 0.000004 -0.000588 -0.078187
    38 1.209184 0.000001 -0.000006 0.000000 0.000009 -0.212091
    39 3.859863 -0.137947 1.332468 0.304628 -0.289550 -0.035805
    40 1.719429 0.000001 0.000000 0.000002 0.002718 -0.077799
    41 1.099669 0.000002 0.000003 0.000000 0.000016 -0.213670
    42 0.806050 -0.348920 1.321261 -1.661489 -0.949637 -0.353169
    43 1.789784 -0.000004 0.000004 0.007149 -0.035362 0.057654
    44 1.206998 0.000000 0.000002 0.000002 0.000011 0.303734
    45 -3.890453 0.000005 0.000007 -1.277364 0.345624 -2.007050
    46 17.848175 0.000000 0.000001 0.000000 0.000000 0.572820
    47 16.525253 -0.000001 0.000002 0.509010 0.125939 -1.605620
    48 6.879454 0.000000 0.000000 -0.081334 -0.002951 -0.584373
    49 3.890452 -0.000003 -0.000003 -1.672783 -0.587228 -1.428505
    50 17.848179 0.000000 0.000000 -0.000001 0.000000 0.924432
    51 16.525255 -0.000001 0.000000 -0.044807 0.278100 -1.212107
    52 6.879455 0.000001 0.000000 -0.007300 -0.001070 -0.584369
time 17
    0 -1.932095 4.285292 32.543296 1.457263 -0.114628 -0.208110
    1 0.378923 3.325600 -2.981901 1.477405 0.015175 1.543452
    2 4.018334 -0.000001 0.000000 -0.035283 0.092138 -0.122596
    3 3.518564 0.000002 0.000000 -0.025544 0.095728 0.006814
    4 8.942647 0.000001 -0.000001 -0.008484 0.099046 0.102454
    5 3.307275 -0.000002 -0.000001 3.138522 -0.003655 0.480425
    6 3.593717 -0.000001 0.000000 0.320703 -0.102084 0.709442
    7 2.033354 1.000774 -1.937610 -3.617150 1.144456 1.022321
    8 6.028141 0.000000 0.000000 1.585712 0.239630 -0.587031
    9 11.692555 -0.000001 0.000004 0.000009 0.000000 -1.540824
    10 11.481701 0.000000 0.000001 -0.974565 -0.434133 0.070869
    11 3.859676 -0.132570 1.193108 0.498198 0.156933 -0.982260
    12 1.312561 -0.000001 -0.000002 -0.000005 -0.456973 -1.112927
    13 0.729364 0.000000 -0.000002 0.000001 -0.000010 -0.672028
    14 3.942296 0.050328 0.431047 0.160533 0.000246 -0.910148
    15 1.539096 -0.000002 -0.000001 -0.000001 -0.214753 -1.281129
    16 1.196324 0.000000 0.000004 -0.000001 -0.000008 -0.797295
    17 3.883660 -0.050327 -0.431043 -0.084948 -0.177600 -0.644830
    18 1.719575 -0.000003 -0.000001 -0.000001 -0.031645 -1.425491
    19 1.209184 -0.000001 0.000000 -0.003428 0.022218 -0.934675
    20 3.859832 -0.148936 -1.331279 -0.269643 -0.115059 -0.374596
    21 1.719424 0.000000 -0.000001 -0.064166 0.108985 -1.117000
    22 1.099665 -0.000002 0.000001 -0.069164 0.051202 -1.337365
    23 0.806018 -0.359834 -1.318337 1.282836 0.248639 -0.715189
    24 1.789781 0.000000 0.000000 0.000003 -0.010075 0.141901
    25 1.207000 -0.000003 0.000000 0.000291 0.001995 1.187223
    26 2.033350 1.000767 1.937659 4.630000 -0.712458 -0.117408
    27 6.028143 -0.000003 0.000000 -2.046895 -0.268750 -0.296737
    28 11.692554 -0.000002 -0.000001 -0.000009 0.000000 -1.344873
    29 11.481679 0.000000 -0.000035 2.254369 -0.070455 -0.251570
    30 3.859710 -0.142404 -1.191977 -0.330561 0.274656 -0.283125
    31 1.312559 0.000000 0.000001 -0.000001 -0.000321 -0.092563
    32 0.729364 -0.000001 0.000003 -0.000004 0.000014 -0.225983
    33 3.942328 0.046772 -0.431442 -0.095318 0.072643 -0.225305
    34 1.539094 0.000001 0.000002 -0.000001 -0.000019 -0.092874
    35 1.196323 0.000000 0.000001 0.000002 0.000007 -0.223076
    36 3.883689 -0.046770 0.431442 0.089018 -0.127131 -0.033061
    37 1.719577 0.000001 0.000002 0.000004 -0.000157 -0.091160
    38 1.209184 0.000001 -0.000006 0.000000 0.000009 -0.223295
    39 3.859863 -0.137947 1.332468 0.307468 -0.284888 -0.051196
    40 1.719429 0.000001 0.000000 0.000002 0.000776 -0.091088
    41 1.099669 0.000002 0.000003 0.000000 0.000016 -0.223821
    42 0.806050 -0.348920 1.321261 -1.648822 -0.942337 -0.364567
    43 1.789784 -0.000004 0.000004 0.007065 -0.035362 0.060157
    44 1.206998 0.000000 0.000002 0.000002 0.000011 0.303734
    45 -3.890453 0.000005 0.000007 -1.281165 0.331910 -2.005659
    46 17.848175 0.000000 0.000001 0.000000 0.000000 0.584848
    47 16.525253 -0.000001 0.000002 0.508362 0.126349 -1.609073
    48 6.879454 0.000000 0.000000 -0.081334 -0.002951 -0.584373
    49 3.890452 -0.000003 -0.000003 -1.678821 -0.593101 -1.420678
    50 17.848179 0.000000 0.000000 -0.000001 0.000000 0.928863
    51 16.525255 -0.000001 0.000000 -0.044856 0.277612 -1.213431
    52 6.879455 0.000001 0.000000 -0.007300 -0.001070 -0.584369
time 18
    0 -1.920376 4.297011 32.531577 1.458912 -0.113168 -0.210200
    1 0.378923 3.325600 -2.981901 1.476184 0.017053 1.543849
    2 4.018334 -0.000001 0.000000 -0.036098 0.092042 -0.121418
    3 3.518564 0.000002 0.000000 -0.026671 0.095189 0.008562
    4 8.942647 0.000001 -0.000001 -0.007753 0.098542 0.103209
    5 3.307275 -0.000002 -0.000001 3.138426 -0.003751 0.478843
    6 3.593717 -0.000001 0.000000 0.322716 -0.100751 0.710440
    7 2.033354 1.000774 -1.937610 -3.611994 1.145446 1.027014
    8 6.028141 0.000000 0.000000 1.585357 0.241301 -0.586471
    9 11.692555 -0.000001 0.000004 0.000009 0.000000 -1.545260
    10 11.481701 0.000000 0.000001 -0.974898 -0.431599 0.074054
    11 3.859676 -0.132570 1.193108 0.498198 0.156933 -0.982260
    12 1.312561 -0.000001 -0.000002 -0.000005 -0.456973 -1.112927
    13 0.729364 0.000000 -0.000002 0.000001 -0.000022 -0.672028
    14 3.942296 0.050328 0.431047 0.160533 0.000246 -0.910148
    15 1.539096 -0.000002 -0.000001 -0.000001 -0.214753 -1.281129
    16 1.196324 0.000000 0.000004 -0.000001 -0.000008 -0.797295
    17 3.883660 -0.050327 -0.431043 -0.084948 -0.177600 -0.644830
    18 1.719575 -0.000003 -0.000001 -0.000001 -0.031645 -1.425491
    19 1.209184 -0.000001 0.000000 -0.003428 0.022218 -0.934675
    20 3.859832 -0.148936 -1.331279 -0.269643 -0.115059 -0.374596
    21 1.719424 0.000000 -0.000001 -0.064166 0.108985 -1.117000
    22 1.099665 -0.000002 0.000001 -0.069164 0.051202 -1.337365
    23 0.806018 -0.359834 -1.318337 1.282836 0.248639 -0.715189
    24 1.789781 0.000000 0.000000 0.000003 -0.010075 0.141901
    25 1.207000 -0.000003 0.000000 0.000291 0.001995 1.187223
    26 2.033350 1.000767 1.937659 4.629138 -0.715167 -0.117504
    27 6.028143 -0.000003 0.000000 -2.044410 -0.262638 -0.293187
    28 11.692554 -0.000002 -0.000001 -0.000009 0.000000 -1.347306
    29 11.481679 0.000000 -0.000035 2.247819 -0.068374 -0.249177
    30 3.859710 -0.142404 -1.191977 -0.332769 0.273050 -0.289242
    31 1.312559 0.000000 0.000001 -0.000001 0.000014 -0.096250
    32 0.729364 -0.000001 0.000003 -0.000004 0.000014 -0.227807
    33 3.942328 0.046772 -0.431442 -0.096145 0.072068 -0.231366
    34 1.539094 0.000001 0.000002 -0.000001 0.000005 -0.096276
    35 1.196323 0.000000 0.000001 0.000002 0.000007 -0.227792
    36 3.883689 -0.046770 0.431442 0.089150 -0.126592 -0.039131
    37 1.719577 0.000001 0.000002 0.000004 0.000011 -0.096240
    38 1.209184 0.000001 -0.000006 0.000000 0.000009 -0.227719
    39 3.859863 -0.137947 1.332468 0.308547 -0.283054 -0.057199
    40 1.719429 0.000001 0.000000 0.000002 0.000021 -0.096272
    41 1.099669 0.000002 0.000003 0.000000 0.000016 -0.227782
    42 0.806050 -0.348920 1.321261 -1.643916 -0.939453 -0.368905
    43 1.789784 -0.000004 0.000004 0.007029 -0.035386 0.061148
    44 1.206998 0.000000 0.000002 0.000002 0.000011 0.303734
    45 -3.890453 0.000005 0.000007 -1.282770 0.326625 -2.004886
    46 17.848175 0.000000 0.000001 0.000000 0.000000 0.589399
    47 16.525253 -0.000001 0.000002 0.508137 0.126498 -1.610397
    48 6.879454 0.000000 0.000000 -0.081334 -0.002951 -0.584373
    49 3.890452 -0.000003 -0.000003 -1.681218 -0.595401 -1.417433
    50 17.848179 0.000000 0.000000 -0.000001 0.000000 0.930740
    51 16.525255 -0.000001 0.000000 -0.044880 0.277436 -1.214046
    52 6.879455 0.000001 0.000000 -0.007300 -0.001070 -0.584369
end
