version 1
nodes
0 "Antlion.AntLionMesh" -1
1 "Antlion.Body_Bone" -1
2 "Antlion.Chest_Bone" 1
3 "Antlion.ArmR1_Bone" 2
4 "Antlion.ArmR2_Bone" 3
5 "Antlion.ArmR3_Bone" 4
6 "Antlion.ArmL1_Bone" 2
7 "Antlion.ArmL2_Bone" 6
8 "Antlion.ArmL3_Bone" 7
9 "Antlion.Head_Bone" 2
10 "Antlion.FangBottomL1_Bone" 9
11 "Antlion.FangBottomL2_Bone" 10
12 "Antlion.FangBottomR1_Bone" 9
13 "Antlion.FangBottomR2_Bone" 12
14 "Antlion.FangTopL1_Bone" 9
15 "Antlion.FangTopL2_Bone" 14
16 "Antlion.FangTopR1_Bone" 9
17 "Antlion.FangTopR2_Bone" 16
18 "Antlion.LegMidL1_Bone" 1
19 "Antlion.LegMidL2_Bone" 18
20 "Antlion.LegMidL3_Bone" 19
21 "Antlion.LegMidR1_Bone" 1
22 "Antlion.LegMidR2_Bone" 21
23 "Antlion.LegMidR3_Bone" 22
24 "Antlion.Back_Bone" 1
25 "Antlion.LegShoulder_R_Bone" 24
26 "Antlion.LegL1_Bone" 25
27 "Antlion.LegL2_Bone" 26
28 "Antlion.LegL3_Bone" 27
29 "Antlion.LegShoulder_L_Bone" 24
30 "Antlion.LegR1_Bone" 29
31 "Antlion.LegR2_Bone" 30
32 "Antlion.LegR3_Bone" 31
33 "Antlion.WingL_Bone" 1
34 "Antlion.WingR_Bone" 1
end
skeleton
time 0
0 -0.077740 -0.000000 0.000001 1.570796 0.000000 0.000000
1 -0.063165 -3.570869 29.250538 1.501355 -0.355025 1.649916
2 -5.577779 -0.123184 0.054231 0.000995 -0.070679 -0.212966
3 -5.512521 -2.697434 -3.989360 0.406065 -0.135634 -0.988897
4 10.569404 0.000000 0.000000 0.000000 0.000000 -2.438890
5 13.357942 0.000000 0.000000 0.000000 0.000000 2.881873
6 -5.435715 -2.622672 3.516682 2.747960 0.105401 -1.032852
7 10.523520 0.000000 0.000000 0.000000 0.000000 2.454559
8 13.611951 0.000000 0.000000 0.000000 0.000000 -2.922817
9 -8.416650 1.073514 -0.018171 0.143239 -0.009886 -0.341342
10 -9.984111 -4.710447 3.170796 0.239078 -3.136061 0.423822
11 5.945618 0.000000 0.000000 0.000000 0.000000 0.734878
12 -9.984111 -4.710445 -2.998739 -0.207111 0.046955 -2.710082
13 5.945623 0.000000 0.000000 0.000000 0.000000 -0.747881
14 -13.167567 0.616876 1.590356 0.000000 0.000000 -0.000000
15 -1.915743 -0.010427 0.304297 -0.000000 -0.000000 0.691150
16 -13.157713 0.632508 -1.795553 0.000000 0.000000 0.000000
17 -2.207746 -0.183759 -0.037490 -0.000000 -0.000000 0.691150
18 -2.622040 -6.273479 8.263164 -2.544126 -0.000817 -1.341326
19 11.485749 0.000000 0.000000 0.000000 0.000000 -1.702526
20 24.536903 0.000000 0.000000 0.000000 0.000000 1.907636
21 -2.622039 -6.273479 -8.136835 -0.472023 0.083232 -1.384266
22 11.659969 0.000000 0.000000 0.000000 0.000000 1.824286
23 25.724375 0.000000 0.000000 0.000000 0.000000 -2.096727
24 3.880158 -0.980432 0.090609 -0.000000 -0.000000 0.429351
25 13.389689 0.268266 -6.517195 0.542283 1.306249 -0.395924
26 9.913784 0.000000 0.000000 1.301534 0.458078 -1.587294
27 21.016008 0.000000 0.000000 0.000000 0.000000 -1.739507
28 28.471622 0.000000 0.000000 0.000000 0.000000 1.877655
29 13.389685 0.268266 6.023556 -0.462585 -1.348926 -0.488759
30 9.768896 0.000000 0.000000 -1.269210 -0.478303 -1.692558
31 19.931143 0.000000 0.000000 0.000000 0.000000 -1.604745
32 26.044123 0.000000 0.000000 0.000000 0.000000 1.791822
33 -5.849912 4.319726 0.063164 0.461553 0.000000 0.439300
34 -5.827132 4.411093 0.063164 -0.329881 0.005779 0.439298
time 1
1 0.676911 -3.229586 28.396641 1.420940 -0.232216 1.543325
2 -5.577779 -0.123184 0.054231 0.000995 -0.070679 -0.212965
3 -5.512521 -2.697434 -3.989360 0.406066 -0.135632 -0.988903
4 10.569404 0.000000 0.000000 0.000000 0.000000 -2.438891
5 13.357942 0.000000 0.000000 0.000000 0.000000 2.881877
6 -5.435715 -2.622672 3.516682 2.747960 0.105400 -1.032856
7 10.523520 0.000000 0.000000 0.000000 0.000000 2.454559
8 13.611951 0.000000 0.000000 0.000000 0.000000 -2.922818
9 -8.416650 1.073514 -0.018171 0.143239 -0.009885 -0.341343
10 -9.984111 -4.710447 3.170796 0.239079 -3.136085 0.423726
11 5.945618 0.000000 0.000000 0.000000 0.000000 0.734671
12 -9.984111 -4.710445 -2.998739 -0.207115 0.046936 -2.710186
13 5.945623 0.000000 0.000000 0.000000 0.000000 -0.747658
14 -13.167567 0.616876 1.590356 0.000000 -0.000000 -0.000000
15 -1.915743 -0.010427 0.304297 0.000000 0.000000 0.691151
16 -13.157713 0.632508 -1.795553 -0.000000 0.000000 0.000001
17 -2.207746 -0.183759 -0.037490 0.000000 -0.000000 0.691150
18 -2.622040 -6.273479 8.263164 -2.631575 0.154979 -1.203918
19 11.485749 0.000000 0.000000 0.000000 0.000000 -1.680575
20 24.536903 0.000000 0.000000 0.000000 0.000000 1.861075
21 -2.622039 -6.273479 -8.136835 -0.553897 0.247102 -1.224204
22 11.659969 0.000000 0.000000 0.000000 0.000000 1.838751
23 25.724375 0.000000 0.000000 0.000000 0.000000 -2.127395
24 3.880158 -0.980432 0.090609 0.000000 -0.000000 0.429268
25 13.389689 0.268266 -6.517195 0.542283 1.306249 -0.395924
26 9.913784 0.000000 0.000000 1.212649 0.430317 -1.579707
27 21.016008 0.000000 0.000000 0.000000 0.000000 -1.722284
28 28.471622 0.000000 0.000000 0.000000 0.000000 1.845972
29 13.389685 0.268266 6.023556 -0.462585 -1.348926 -0.488759
30 9.768896 0.000000 0.000000 -1.382637 -0.371934 -1.685125
31 19.931143 0.000000 0.000000 0.000000 0.000000 -1.632500
32 26.044123 0.000000 0.000000 0.000000 0.000000 1.848911
33 -5.849912 4.319726 0.063164 0.461552 0.000000 0.439300
34 -5.827132 4.411093 0.063164 -0.329881 0.005779 0.439298
time 2
1 1.435956 -2.030817 26.751951 1.352619 -0.122190 1.453236
2 -5.577779 -0.123184 0.054231 0.000995 -0.070679 -0.212965
3 -5.512521 -2.697434 -3.989360 0.406066 -0.135631 -0.988906
4 10.569404 0.000000 0.000000 0.000000 0.000000 -2.438892
5 13.357942 0.000000 0.000000 0.000000 0.000000 2.881879
6 -5.435715 -2.622672 3.516682 2.747960 0.105400 -1.032856
7 10.523520 0.000000 0.000000 0.000000 0.000000 2.454559
8 13.611951 0.000000 0.000000 0.000000 0.000000 -2.922817
9 -8.416650 1.073514 -0.018171 0.143239 -0.009886 -0.341343
10 -9.984111 -4.710447 3.170796 0.239079 -3.136103 0.423653
11 5.945618 0.000000 0.000000 0.000000 0.000000 0.734512
12 -9.984111 -4.710445 -2.998739 -0.207118 0.046920 -2.710265
13 5.945623 0.000000 0.000000 0.000000 0.000000 -0.747488
14 -13.167567 0.616876 1.590356 0.000000 0.000000 0.000000
15 -1.915743 -0.010427 0.304297 -0.000000 0.000000 0.691150
16 -13.157713 0.632508 -1.795553 0.000000 0.000000 0.000000
17 -2.207746 -0.183759 -0.037490 -0.000000 -0.000000 0.691150
18 -2.622040 -6.273479 8.263164 -2.674924 0.267008 -1.064062
19 11.485749 0.000000 0.000000 0.000000 0.000000 -1.688257
20 24.536903 0.000000 0.000000 0.000000 0.000000 1.877538
21 -2.622039 -6.273479 -8.136835 -0.598458 0.398404 -1.058673
22 11.659969 0.000000 0.000000 0.000000 0.000000 1.868187
23 25.724375 0.000000 0.000000 0.000000 0.000000 -2.189984
24 3.880158 -0.980432 0.090609 -0.000000 -0.000000 0.429026
25 13.389689 0.268266 -6.517195 0.542283 1.306249 -0.395924
26 9.913784 0.000000 0.000000 1.157794 0.407601 -1.579280
27 21.016008 0.000000 0.000000 0.000000 0.000000 -1.701815
28 28.471622 0.000000 0.000000 0.000000 0.000000 1.809056
29 13.389685 0.268266 6.023556 -0.462585 -1.348926 -0.488759
30 9.768896 0.000000 0.000000 -1.462937 -0.295398 -1.685389
31 19.931143 0.000000 0.000000 0.000000 0.000000 -1.651312
32 26.044123 0.000000 0.000000 0.000000 0.000000 1.888697
33 -5.849912 4.319726 0.063164 0.461552 0.000000 0.439300
34 -5.827132 4.411093 0.063164 -0.329881 0.005779 0.439298
time 3
1 2.213970 -0.185305 25.027733 1.296391 -0.024945 1.378523
2 -5.577779 -0.123184 0.054231 0.000994 -0.070679 -0.212965
3 -5.512521 -2.697434 -3.989360 0.406066 -0.135629 -0.988908
4 10.569404 0.000000 0.000000 0.000000 0.000000 -2.438893
5 13.357942 0.000000 0.000000 0.000000 0.000000 2.881881
6 -5.435715 -2.622672 3.516682 2.747959 0.105400 -1.032857
7 10.523520 0.000000 0.000000 0.000000 0.000000 2.454558
8 13.611951 0.000000 0.000000 0.000000 0.000000 -2.922816
9 -8.416650 1.073514 -0.018171 0.143239 -0.009885 -0.341343
10 -9.984111 -4.710447 3.170796 0.239079 -3.136115 0.423601
11 5.945618 0.000000 0.000000 0.000000 0.000000 0.734399
12 -9.984111 -4.710445 -2.998739 -0.207120 0.046910 -2.710321
13 5.945623 0.000000 0.000000 0.000000 0.000000 -0.747368
14 -13.167567 0.616876 1.590356 0.000000 0.000000 -0.000000
15 -1.915743 -0.010427 0.304297 -0.000000 -0.000000 0.691150
16 -13.157713 0.632508 -1.795553 0.000000 0.000000 0.000000
17 -2.207746 -0.183759 -0.037490 -0.000000 -0.000000 0.691150
18 -2.622040 -6.273479 8.263164 -2.688325 0.344957 -0.932041
19 11.485749 0.000000 0.000000 0.000000 0.000000 -1.715051
20 24.536903 0.000000 0.000000 0.000000 0.000000 1.934691
21 -2.622039 -6.273479 -8.136835 -0.619586 0.531192 -0.900694
22 11.659969 0.000000 0.000000 0.000000 0.000000 1.903249
23 25.724375 0.000000 0.000000 0.000000 0.000000 -2.264282
24 3.880158 -0.980432 0.090609 -0.000000 -0.000000 0.428638
25 13.389689 0.268266 -6.517195 0.542283 1.306249 -0.395924
26 9.913784 0.000000 0.000000 1.131290 0.377640 -1.583908
27 21.016008 0.000000 0.000000 0.000000 0.000000 -1.670145
28 28.471622 0.000000 0.000000 0.000000 0.000000 1.751959
29 13.389685 0.268266 6.023556 -0.462585 -1.348926 -0.488759
30 9.768896 0.000000 0.000000 -1.518285 -0.233700 -1.686289
31 19.931143 0.000000 0.000000 0.000000 0.000000 -1.655775
32 26.044123 0.000000 0.000000 0.000000 0.000000 1.898214
33 -5.849912 4.319726 0.063164 0.461552 0.000000 0.439300
34 -5.827132 4.411093 0.063164 -0.329881 0.005779 0.439298
time 4
1 3.010952 2.096204 23.935255 1.252258 0.059517 1.318061
2 -5.577779 -0.123184 0.054231 0.000995 -0.070679 -0.212965
3 -5.512521 -2.697434 -3.989360 0.406067 -0.135629 -0.988910
4 10.569404 0.000000 0.000000 0.000000 0.000000 -2.438893
5 13.357942 0.000000 0.000000 0.000000 0.000000 2.881882
6 -5.435715 -2.622672 3.516682 2.747959 0.105399 -1.032857
7 10.523520 0.000000 0.000000 0.000000 0.000000 2.454558
8 13.611951 0.000000 0.000000 0.000000 0.000000 -2.922816
9 -8.416650 1.073514 -0.018171 0.143239 -0.009885 -0.341343
10 -9.984111 -4.710447 3.170796 0.239080 -3.136125 0.423562
11 5.945618 0.000000 0.000000 0.000000 0.000000 0.734316
12 -9.984111 -4.710445 -2.998739 -0.207122 0.046902 -2.710363
13 5.945623 0.000000 0.000000 0.000000 0.000000 -0.747279
14 -13.167567 0.616876 1.590356 -0.000000 0.000000 -0.000000
15 -1.915743 -0.010427 0.304297 -0.000000 -0.000000 0.691150
16 -13.157713 0.632508 -1.795553 -0.000000 0.000000 0.000000
17 -2.207746 -0.183759 -0.037490 0.000000 -0.000000 0.691150
18 -2.622040 -6.273479 8.263164 -2.688639 0.397712 -0.826042
19 11.485749 0.000000 0.000000 0.000000 0.000000 -1.748268
20 24.536903 0.000000 0.000000 0.000000 0.000000 2.006485
21 -2.622039 -6.273479 -8.136835 -0.643255 0.638804 -0.775195
22 11.659969 0.000000 0.000000 0.000000 0.000000 1.935746
23 25.724375 0.000000 0.000000 0.000000 0.000000 -2.332513
24 3.880158 -0.980432 0.090609 -0.000000 0.000000 0.428115
25 13.389689 0.268266 -6.517195 0.542283 1.306249 -0.395924
26 9.913784 0.000000 0.000000 1.130365 0.332910 -1.589212
27 21.016008 0.000000 0.000000 0.000000 0.000000 -1.622875
28 28.471622 0.000000 0.000000 0.000000 0.000000 1.669015
29 13.389685 0.268266 6.023556 -0.462585 -1.348926 -0.488759
30 9.768896 0.000000 0.000000 -1.553364 -0.171456 -1.687602
31 19.931143 0.000000 0.000000 0.000000 0.000000 -1.641752
32 26.044123 0.000000 0.000000 0.000000 0.000000 1.868413
33 -5.849912 4.319726 0.063164 0.461552 0.000000 0.439300
34 -5.827132 4.411093 0.063164 -0.329881 0.005779 0.439298
time 5
1 4.002038 4.367184 24.058376 1.220218 0.131198 1.270724
2 -5.577779 -0.123184 0.054231 0.000995 -0.070679 -0.212965
3 -5.512521 -2.697434 -3.989360 0.406067 -0.135629 -0.988911
4 10.569404 0.000000 0.000000 0.000000 0.000000 -2.438894
5 13.357942 0.000000 0.000000 0.000000 0.000000 2.881884
6 -5.435715 -2.622672 3.516682 2.747959 0.105399 -1.032857
7 10.523520 0.000000 0.000000 0.000000 0.000000 2.454558
8 13.611951 0.000000 0.000000 0.000000 0.000000 -2.922816
9 -8.416650 1.073514 -0.018171 0.143239 -0.009885 -0.341343
10 -9.984111 -4.710447 3.170796 0.239080 -3.136132 0.423534
11 5.945618 0.000000 0.000000 0.000000 0.000000 0.734253
12 -9.984111 -4.710445 -2.998739 -0.207123 0.046896 -2.710393
13 5.945623 0.000000 0.000000 0.000000 0.000000 -0.747213
14 -13.167567 0.616876 1.590356 0.000000 0.000000 -0.000000
15 -1.915743 -0.010427 0.304297 -0.000000 -0.000000 0.691150
16 -13.157713 0.632508 -1.795553 0.000000 0.000000 0.000000
17 -2.207746 -0.183759 -0.037490 -0.000000 -0.000000 0.691151
18 -2.622040 -6.273479 8.263164 -2.699174 0.439793 -0.766897
19 11.485749 0.000000 0.000000 0.000000 0.000000 -1.772837
20 24.536903 0.000000 0.000000 0.000000 0.000000 2.059918
21 -2.622039 -6.273479 -8.136835 -0.703940 0.713375 -0.714772
22 11.659969 0.000000 0.000000 0.000000 0.000000 1.952672
23 25.724375 0.000000 0.000000 0.000000 0.000000 -2.367712
24 3.880158 -0.980432 0.090609 0.000000 -0.000000 0.427467
25 13.389689 0.268266 -6.517195 0.542283 1.306249 -0.395924
26 9.913784 0.000000 0.000000 1.155295 0.272175 -1.589330
27 21.016008 0.000000 0.000000 0.000000 0.000000 -1.565178
28 28.471622 0.000000 0.000000 0.000000 0.000000 1.569470
29 13.389685 0.268266 6.023556 -0.462585 -1.348926 -0.488759
30 9.768896 0.000000 0.000000 -1.569637 -0.100211 -1.693541
31 19.931143 0.000000 0.000000 0.000000 0.000000 -1.611686
32 26.044123 0.000000 0.000000 0.000000 0.000000 1.806110
33 -5.849912 4.319726 0.063164 0.461552 0.000000 0.439300
34 -5.827132 4.411093 0.063164 -0.329881 0.005779 0.439298
time 6
1 5.274792 6.287990 25.274117 1.200272 0.190097 1.235386
2 -5.577779 -0.123184 0.054231 0.000995 -0.070679 -0.212965
3 -5.512521 -2.697434 -3.989360 0.406067 -0.135628 -0.988912
4 10.569404 0.000000 0.000000 0.000000 0.000000 -2.438894
5 13.357942 0.000000 0.000000 0.000000 0.000000 2.881884
6 -5.435715 -2.622672 3.516682 2.747959 0.105399 -1.032857
7 10.523520 0.000000 0.000000 0.000000 0.000000 2.454558
8 13.611951 0.000000 0.000000 0.000000 0.000000 -2.922816
9 -8.416650 1.073514 -0.018171 0.143239 -0.009885 -0.341343
10 -9.984111 -4.710447 3.170796 0.239080 -3.136137 0.423513
11 5.945618 0.000000 0.000000 0.000000 0.000000 0.734209
12 -9.984111 -4.710445 -2.998739 -0.207124 0.046892 -2.710415
13 5.945623 0.000000 0.000000 0.000000 0.000000 -0.747166
14 -13.167567 0.616876 1.590356 0.000000 0.000000 -0.000000
15 -1.915743 -0.010427 0.304297 -0.000000 0.000000 0.691150
16 -13.157713 0.632508 -1.795553 -0.000000 0.000000 0.000000
17 -2.207746 -0.183759 -0.037490 -0.000000 0.000000 0.691150
18 -2.622040 -6.273479 8.263164 -2.734194 0.478390 -0.756029
19 11.485749 0.000000 0.000000 0.000000 0.000000 -1.782064
20 24.536903 0.000000 0.000000 0.000000 0.000000 2.080043
21 -2.622039 -6.273479 -8.136835 -0.810043 0.749874 -0.721775
22 11.659969 0.000000 0.000000 0.000000 0.000000 1.948497
23 25.724375 0.000000 0.000000 0.000000 0.000000 -2.359046
24 3.880158 -0.980432 0.090609 0.000000 -0.000000 0.426708
25 13.389689 0.268266 -6.517195 0.542283 1.306249 -0.395924
26 9.913784 0.000000 0.000000 1.207074 0.204518 -1.588317
27 21.016008 0.000000 0.000000 0.000000 0.000000 -1.504154
28 28.471622 0.000000 0.000000 0.000000 0.000000 1.467988
29 13.389685 0.268266 6.023556 -0.462585 -1.348926 -0.488759
30 9.768896 0.000000 0.000000 -1.570243 -0.025755 -1.704066
31 19.931143 0.000000 0.000000 0.000000 0.000000 -1.573875
32 26.044123 0.000000 0.000000 0.000000 0.000000 1.729101
33 -5.849912 4.319726 0.063164 0.461552 0.000000 0.439300
34 -5.827132 4.411093 0.063164 -0.329881 0.005779 0.439298
time 7
1 6.697865 7.808192 27.233486 1.192420 0.236214 1.210922
2 -5.577779 -0.123184 0.054231 0.000995 -0.070679 -0.212965
3 -5.512521 -2.697434 -3.989360 0.406067 -0.135628 -0.988912
4 10.569404 0.000000 0.000000 0.000000 0.000000 -2.438894
5 13.357942 0.000000 0.000000 0.000000 0.000000 2.881884
6 -5.435715 -2.622672 3.516682 2.747959 0.105399 -1.032857
7 10.523520 0.000000 0.000000 0.000000 0.000000 2.454558
8 13.611951 0.000000 0.000000 0.000000 0.000000 -2.922815
9 -8.416650 1.073514 -0.018171 0.143239 -0.009885 -0.341343
10 -9.984111 -4.710447 3.170796 0.239080 -3.136141 0.423498
11 5.945618 0.000000 0.000000 0.000000 0.000000 0.734175
12 -9.984111 -4.710445 -2.998739 -0.207124 0.046889 -2.710431
13 5.945623 0.000000 0.000000 0.000000 0.000000 -0.747132
14 -13.167567 0.616876 1.590356 0.000000 0.000000 -0.000000
15 -1.915743 -0.010427 0.304297 -0.000000 -0.000000 0.691150
16 -13.157713 0.632508 -1.795553 0.000000 0.000000 0.000000
17 -2.207746 -0.183759 -0.037490 -0.000000 -0.000000 0.691150
18 -2.622040 -6.273479 8.263164 -2.794011 0.509909 -0.784813
19 11.485749 0.000000 0.000000 0.000000 0.000000 -1.776295
20 24.536903 0.000000 0.000000 0.000000 0.000000 2.067458
21 -2.622039 -6.273479 -8.136835 -0.941247 0.747110 -0.771895
22 11.659969 0.000000 0.000000 0.000000 0.000000 1.926633
23 25.724375 0.000000 0.000000 0.000000 0.000000 -2.313402
24 3.880158 -0.980432 0.090609 -0.000000 -0.000000 0.425849
25 13.389689 0.268266 -6.517195 0.542283 1.306249 -0.395924
26 9.913784 0.000000 0.000000 1.281899 0.137028 -1.592722
27 21.016008 0.000000 0.000000 0.000000 0.000000 -1.442864
28 28.471622 0.000000 0.000000 0.000000 0.000000 1.368532
29 13.389685 0.268266 6.023556 -0.462585 -1.348926 -0.488759
30 9.768896 0.000000 0.000000 -1.559730 0.044049 -1.714598
31 19.931143 0.000000 0.000000 0.000000 0.000000 -1.531681
32 26.044123 0.000000 0.000000 0.000000 0.000000 1.646743
33 -5.849912 4.319726 0.063164 0.461553 0.000000 0.439300
34 -5.827132 4.411093 0.063164 -0.329881 0.005779 0.439298
time 8
1 8.139908 8.877365 29.587519 1.196661 0.269549 1.196205
2 -5.577779 -0.123184 0.054231 0.000995 -0.070679 -0.212965
3 -5.512521 -2.697434 -3.989360 0.406067 -0.135628 -0.988913
4 10.569404 0.000000 0.000000 0.000000 0.000000 -2.438894
5 13.357942 0.000000 0.000000 0.000000 0.000000 2.881884
6 -5.435715 -2.622672 3.516682 2.747959 0.105399 -1.032857
7 10.523520 0.000000 0.000000 0.000000 0.000000 2.454558
8 13.611951 0.000000 0.000000 0.000000 0.000000 -2.922816
9 -8.416650 1.073514 -0.018171 0.143239 -0.009885 -0.341343
10 -9.984111 -4.710447 3.170796 0.239080 -3.136144 0.423486
11 5.945618 0.000000 0.000000 0.000000 0.000000 0.734149
12 -9.984111 -4.710445 -2.998739 -0.207125 0.046887 -2.710445
13 5.945623 0.000000 0.000000 0.000000 0.000000 -0.747103
14 -13.167567 0.616876 1.590356 0.000000 0.000000 0.000000
15 -1.915743 -0.010427 0.304297 -0.000000 0.000000 0.691150
16 -13.157713 0.632508 -1.795553 0.000000 0.000000 0.000000
17 -2.207746 -0.183759 -0.037490 -0.000000 -0.000000 0.691150
18 -2.622040 -6.273479 8.263164 -2.871748 0.528592 -0.839742
19 11.485749 0.000000 0.000000 0.000000 0.000000 -1.757535
20 24.536903 0.000000 0.000000 0.000000 0.000000 2.026561
21 -2.622039 -6.273479 -8.136835 -1.067462 0.711287 -0.834461
22 11.659969 0.000000 0.000000 0.000000 0.000000 1.891987
23 25.724375 0.000000 0.000000 0.000000 0.000000 -2.240475
24 3.880158 -0.980432 0.090609 0.000000 -0.000000 0.424900
25 13.389689 0.268266 -6.517195 0.542283 1.306249 -0.395924
26 9.913784 0.000000 0.000000 1.479931 0.371110 -1.514684
27 21.016008 0.000000 0.000000 0.000000 0.000000 -1.605671
28 28.471622 0.000000 0.000000 0.000000 0.000000 1.639020
29 13.389685 0.268266 6.023556 -0.462585 -1.348926 -0.488759
30 9.768896 0.000000 0.000000 -1.540777 0.104309 -1.721032
31 19.931143 0.000000 0.000000 0.000000 0.000000 -1.490513
32 26.044123 0.000000 0.000000 0.000000 0.000000 1.567800
33 -5.849912 4.319726 0.063164 0.461553 0.000000 0.439300
34 -5.827132 4.411093 0.063164 -0.329881 0.005779 0.439298
time 9
1 9.469567 9.445076 31.987207 1.212996 0.290102 1.190110
2 -5.577779 -0.123184 0.054231 0.000995 -0.070679 -0.212965
3 -5.512521 -2.697434 -3.989360 0.406067 -0.135627 -0.988913
4 10.569404 0.000000 0.000000 0.000000 0.000000 -2.438894
5 13.357942 0.000000 0.000000 0.000000 0.000000 2.881885
6 -5.435715 -2.622672 3.516682 2.747959 0.105399 -1.032857
7 10.523520 0.000000 0.000000 0.000000 0.000000 2.454558
8 13.611951 0.000000 0.000000 0.000000 0.000000 -2.922815
9 -8.416650 1.073514 -0.018171 0.143239 -0.009885 -0.341343
10 -9.984111 -4.710447 3.170796 0.239080 -3.136145 0.423482
11 5.945618 0.000000 0.000000 0.000000 0.000000 0.734141
12 -9.984111 -4.710445 -2.998739 -0.207125 0.046886 -2.710449
13 5.945623 0.000000 0.000000 0.000000 0.000000 -0.747093
14 -13.167567 0.616876 1.590356 -0.000000 0.000000 0.000000
15 -1.915743 -0.010427 0.304297 -0.000000 -0.000000 0.691150
16 -13.157713 0.632508 -1.795553 -0.000000 0.000000 0.000000
17 -2.207746 -0.183759 -0.037490 0.000000 0.000000 0.691150
18 -2.622040 -6.273479 8.263164 -2.954318 0.530363 -0.904253
19 11.485749 0.000000 0.000000 0.000000 0.000000 -1.729852
20 24.536903 0.000000 0.000000 0.000000 0.000000 1.966735
21 -2.622039 -6.273479 -8.136835 -1.167867 0.654506 -0.890654
22 11.659969 0.000000 0.000000 0.000000 0.000000 1.850854
23 25.724375 0.000000 0.000000 0.000000 0.000000 -2.153006
24 3.880158 -0.980432 0.090609 -0.000000 -0.000000 0.423874
25 13.389689 0.268266 -6.517195 0.542283 1.306249 -0.395924
26 9.913784 0.000000 0.000000 1.544908 0.597356 -1.563664
27 21.016008 0.000000 0.000000 0.000000 0.000000 -1.564863
28 28.471622 0.000000 0.000000 0.000000 0.000000 1.568934
29 13.389685 0.268266 6.023556 -0.462585 -1.348926 -0.488759
30 9.768896 0.000000 0.000000 -1.514865 0.149234 -1.720162
31 19.931143 0.000000 0.000000 0.000000 0.000000 -1.454938
32 26.044123 0.000000 0.000000 0.000000 0.000000 1.502657
33 -5.849912 4.319726 0.063164 0.461552 0.000000 0.439300
34 -5.827132 4.411093 0.063164 -0.329881 0.005779 0.439298
time 10
1 10.555496 9.460900 34.083584 1.241425 0.297873 1.191511
2 -5.577779 -0.123184 0.054231 0.000995 -0.070679 -0.212965
3 -5.512521 -2.697434 -3.989360 0.406067 -0.135628 -0.988913
4 10.569404 0.000000 0.000000 0.000000 0.000000 -2.438894
5 13.357942 0.000000 0.000000 0.000000 0.000000 2.881885
6 -5.435715 -2.622672 3.516682 2.747959 0.105399 -1.032857
7 10.523520 0.000000 0.000000 0.000000 0.000000 2.454558
8 13.611951 0.000000 0.000000 0.000000 0.000000 -2.922815
9 -8.416650 1.073514 -0.018171 0.143239 -0.009885 -0.341343
10 -9.984111 -4.710447 3.170796 0.239080 -3.136146 0.423477
11 5.945618 0.000000 0.000000 0.000000 0.000000 0.734131
12 -9.984111 -4.710445 -2.998739 -0.207125 0.046885 -2.710452
13 5.945623 0.000000 0.000000 0.000000 0.000000 -0.747087
14 -13.167567 0.616876 1.590356 0.000000 0.000000 -0.000000
15 -1.915743 -0.010427 0.304297 -0.000000 0.000000 0.691150
16 -13.157713 0.632508 -1.795553 -0.000000 0.000000 0.000000
17 -2.207746 -0.183759 -0.037490 -0.000000 -0.000000 0.691150
18 -2.622040 -6.273479 8.263164 -3.026796 0.515208 -0.963015
19 11.485749 0.000000 0.000000 0.000000 0.000000 -1.699343
20 24.536903 0.000000 0.000000 0.000000 0.000000 1.901157
21 -2.622039 -6.273479 -8.136835 -1.234910 0.588823 -0.936021
22 11.659969 0.000000 0.000000 0.000000 0.000000 1.809825
23 25.724375 0.000000 0.000000 0.000000 0.000000 -2.065899
24 3.880158 -0.980432 0.090609 0.000000 -0.000000 0.422783
25 13.389689 0.268266 -6.517195 0.542283 1.306249 -0.395924
26 9.913784 0.000000 0.000000 1.487481 0.782453 -1.749882
27 21.016008 0.000000 0.000000 0.000000 0.000000 -1.395411
28 28.471622 0.000000 0.000000 0.000000 0.000000 1.294982
29 13.389685 0.268266 6.023556 -0.462585 -1.348926 -0.488759
30 9.768896 0.000000 0.000000 -1.482942 0.175532 -1.709710
31 19.931143 0.000000 0.000000 0.000000 0.000000 -1.433284
32 26.044123 0.000000 0.000000 0.000000 0.000000 1.463143
33 -5.849912 4.319726 0.063164 0.461552 0.000000 0.439300
34 -5.827132 4.411093 0.063164 -0.329881 0.005779 0.439298
time 11
1 11.266341 8.874409 35.527653 1.281948 0.292862 1.199283
2 -5.577779 -0.123184 0.054231 0.000995 -0.070679 -0.212965
3 -5.512521 -2.697434 -3.989360 0.406067 -0.135627 -0.988914
4 10.569404 0.000000 0.000000 0.000000 0.000000 -2.438895
5 13.357942 0.000000 0.000000 0.000000 0.000000 2.881886
6 -5.435715 -2.622672 3.516682 2.747960 0.105399 -1.032857
7 10.523520 0.000000 0.000000 0.000000 0.000000 2.454558
8 13.611951 0.000000 0.000000 0.000000 0.000000 -2.922815
9 -8.416650 1.073514 -0.018171 0.143239 -0.009886 -0.341343
10 -9.984111 -4.710447 3.170796 0.239080 -3.136146 0.423474
11 5.945618 0.000000 0.000000 0.000000 0.000000 0.734124
12 -9.984111 -4.710445 -2.998739 -0.207126 0.046884 -2.710457
13 5.945623 0.000000 0.000000 0.000000 0.000000 -0.747077
14 -13.167567 0.616876 1.590356 -0.000000 0.000000 -0.000000
15 -1.915743 -0.010427 0.304297 -0.000000 -0.000000 0.691150
16 -13.157713 0.632508 -1.795553 -0.000000 0.000000 0.000000
17 -2.207746 -0.183759 -0.037490 -0.000000 -0.000000 0.691150
18 -2.622040 -6.273479 8.263164 -3.077058 0.486070 -1.004438
19 11.485749 0.000000 0.000000 0.000000 0.000000 -1.672893
20 24.536903 0.000000 0.000000 0.000000 0.000000 1.844641
21 -2.622039 -6.273479 -8.136835 -1.267642 0.522291 -0.972674
22 11.659969 0.000000 0.000000 0.000000 0.000000 1.776302
23 25.724375 0.000000 0.000000 0.000000 0.000000 -1.994819
24 3.880158 -0.980432 0.090609 0.000000 -0.000000 0.421637
25 13.389689 0.268266 -6.517195 0.542283 1.306249 -0.395924
26 9.913784 0.000000 0.000000 1.479665 1.004826 -1.814010
27 21.016008 0.000000 0.000000 0.000000 0.000000 -1.385361
28 28.471622 0.000000 0.000000 0.000000 0.000000 1.279442
29 13.389685 0.268266 6.023556 -0.462585 -1.348926 -0.488759
30 9.768896 0.000000 0.000000 -1.446034 0.178309 -1.688568
31 19.931143 0.000000 0.000000 0.000000 0.000000 -1.433270
32 26.044123 0.000000 0.000000 0.000000 0.000000 1.463117
33 -5.849912 4.319726 0.063164 0.461552 0.000000 0.439300
34 -5.827132 4.411093 0.063164 -0.329881 0.005779 0.439298
time 12
1 11.470756 7.635175 35.970440 1.334565 0.275069 1.212299
2 -5.577779 -0.123184 0.054231 0.000995 -0.070679 -0.212965
3 -5.512521 -2.697434 -3.989360 0.406067 -0.135627 -0.988914
4 10.569404 0.000000 0.000000 0.000000 0.000000 -2.438895
5 13.357942 0.000000 0.000000 0.000000 0.000000 2.881886
6 -5.435715 -2.622672 3.516682 2.747960 0.105399 -1.032857
7 10.523520 0.000000 0.000000 0.000000 0.000000 2.454558
8 13.611951 0.000000 0.000000 0.000000 0.000000 -2.922815
9 -8.416650 1.073514 -0.018171 0.143239 -0.009885 -0.341343
10 -9.984111 -4.710447 3.170796 0.239080 -3.136148 0.423471
11 5.945618 0.000000 0.000000 0.000000 0.000000 0.734117
12 -9.984111 -4.710445 -2.998739 -0.207126 0.046884 -2.710460
13 5.945623 0.000000 0.000000 0.000000 0.000000 -0.747071
14 -13.167567 0.616876 1.590356 -0.000000 0.000000 -0.000000
15 -1.915743 -0.010427 0.304297 -0.000000 -0.000000 0.691150
16 -13.157713 0.632508 -1.795553 -0.000000 0.000000 0.000000
17 -2.207746 -0.183759 -0.037490 -0.000000 -0.000000 0.691151
18 -2.622040 -6.273479 8.263164 -3.098531 0.445951 -1.020620
19 11.485749 0.000000 0.000000 0.000000 0.000000 -1.657118
20 24.536903 0.000000 0.000000 0.000000 0.000000 1.810993
21 -2.622039 -6.273479 -8.136835 -1.265467 0.459738 -1.001972
22 11.659969 0.000000 0.000000 0.000000 0.000000 1.757315
23 25.724375 0.000000 0.000000 0.000000 0.000000 -1.954525
24 3.880158 -0.980432 0.090609 0.000000 -0.000000 0.420449
25 13.389689 0.268266 -6.517195 0.542283 1.306249 -0.395924
26 9.913784 0.000000 0.000000 2.159589 1.286355 -0.987510
27 21.016008 0.000000 0.000000 0.000000 0.000000 -1.560383
28 28.471622 0.000000 0.000000 0.000000 0.000000 1.561829
29 13.389685 0.268266 6.023556 -0.462585 -1.348926 -0.488759
30 9.768896 0.000000 0.000000 -1.405684 0.151783 -1.656931
31 19.931143 0.000000 0.000000 0.000000 0.000000 -1.462089
32 26.044123 0.000000 0.000000 0.000000 0.000000 1.515836
33 -5.849912 4.319726 0.063164 0.461552 -0.000000 0.439300
34 -5.827132 4.411093 0.063164 -0.329881 0.005779 0.439298
time 13
1 11.037386 5.692768 35.062958 1.399276 0.244494 1.229435
2 -5.577779 -0.123184 0.054231 0.000995 -0.070679 -0.212965
3 -5.512521 -2.697434 -3.989360 0.406067 -0.135627 -0.988914
4 10.569404 0.000000 0.000000 0.000000 0.000000 -2.438894
5 13.357942 0.000000 0.000000 0.000000 0.000000 2.881885
6 -5.435715 -2.622672 3.516682 2.747960 0.105399 -1.032857
7 10.523520 0.000000 0.000000 0.000000 0.000000 2.454558
8 13.611951 0.000000 0.000000 0.000000 0.000000 -2.922815
9 -8.416650 1.073514 -0.018171 0.143239 -0.009885 -0.341343
10 -9.984111 -4.710447 3.170796 0.239080 -3.136148 0.423468
11 5.945618 0.000000 0.000000 0.000000 0.000000 0.734112
12 -9.984111 -4.710445 -2.998739 -0.207126 0.046884 -2.710462
13 5.945623 0.000000 0.000000 0.000000 0.000000 -0.747067
14 -13.167567 0.616876 1.590356 0.000000 0.000000 -0.000000
15 -1.915743 -0.010427 0.304297 -0.000000 -0.000000 0.691150
16 -13.157713 0.632508 -1.795553 0.000000 0.000000 0.000000
17 -2.207746 -0.183759 -0.037490 -0.000000 -0.000000 0.691150
18 -2.622040 -6.273479 8.263164 -3.090695 0.395235 -1.004586
19 11.485749 0.000000 0.000000 0.000000 0.000000 -1.655879
20 24.536903 0.000000 0.000000 0.000000 0.000000 1.808355
21 -2.622039 -6.273479 -8.136835 -1.225731 0.404294 -1.020602
22 11.659969 0.000000 0.000000 0.000000 0.000000 1.758058
23 25.724375 0.000000 0.000000 0.000000 0.000000 -1.956100
24 3.880158 -0.980432 0.090609 0.000000 -0.000000 0.419230
25 13.389689 0.268266 -6.517195 0.542283 1.306249 -0.395924
26 9.913784 0.000000 0.000000 2.840217 1.318888 -0.311484
27 21.016008 0.000000 0.000000 0.000000 0.000000 -1.681697
28 28.471622 0.000000 0.000000 0.000000 0.000000 1.772702
29 13.389685 0.268266 6.023556 -0.462585 -1.348926 -0.488759
30 9.768896 0.000000 0.000000 -1.372959 0.001241 -1.606739
31 19.931143 0.000000 0.000000 0.000000 0.000000 -1.513901
32 26.044123 0.000000 0.000000 0.000000 0.000000 1.612376
33 -5.849912 4.319726 0.063164 0.461553 0.000000 0.439300
34 -5.827132 4.411093 0.063164 -0.329881 0.005779 0.439298
time 14
1 10.167644 -1.115548 32.820137 1.495612 0.206122 1.365407
2 -5.577779 -0.123184 0.054231 0.000995 -0.070679 -0.212965
3 -5.512521 -2.697434 -3.989360 0.406067 -0.135627 -0.988915
4 10.569404 0.000000 0.000000 0.000000 0.000000 -2.438895
5 13.357942 0.000000 0.000000 0.000000 0.000000 2.881886
6 -5.435715 -2.622672 3.516682 2.747959 0.105399 -1.032857
7 10.523520 0.000000 0.000000 0.000000 0.000000 2.454558
8 13.611951 0.000000 0.000000 0.000000 0.000000 -2.922815
9 -8.416650 1.073514 -0.018171 0.143239 -0.009885 -0.341343
10 -9.984111 -4.710447 3.170796 0.239080 -3.136149 0.423466
11 5.945618 0.000000 0.000000 0.000000 0.000000 0.734106
12 -9.984111 -4.710445 -2.998739 -0.207126 0.046883 -2.710465
13 5.945623 0.000000 0.000000 0.000000 0.000000 -0.747059
14 -13.167567 0.616876 1.590356 0.000000 0.000000 -0.000000
15 -1.915743 -0.010427 0.304297 -0.000000 -0.000000 0.691150
16 -13.157713 0.632508 -1.795553 0.000000 0.000000 0.000000
17 -2.207746 -0.183759 -0.037490 -0.000000 -0.000000 0.691150
18 -2.622040 -6.273479 8.263164 -2.992042 0.287449 -0.916171
19 11.485749 0.000000 0.000000 0.000000 0.000000 -1.603453
20 24.536903 0.000000 0.000000 0.000000 0.000000 1.698560
21 -2.622039 -6.273479 -8.136835 -0.950917 0.274678 -0.952862
22 11.659969 0.000000 0.000000 0.000000 0.000000 1.699400
23 25.724375 0.000000 0.000000 0.000000 0.000000 -1.832996
24 3.880158 -0.980432 0.090609 -0.000000 -0.000000 0.417992
25 13.389689 0.268266 -6.517195 0.542283 1.306249 -0.395924
26 9.913784 0.000000 0.000000 -2.754801 1.252806 0.346492
27 21.016008 0.000000 0.000000 0.000000 0.000000 -1.863722
28 28.471622 0.000000 0.000000 0.000000 0.000000 2.111996
29 13.389685 0.268266 6.023556 -0.462585 -1.348926 -0.488759
30 9.768896 0.000000 0.000000 -1.265503 -0.124457 -1.602183
31 19.931143 0.000000 0.000000 0.000000 0.000000 -1.496341
32 26.044123 0.000000 0.000000 0.000000 0.000000 1.578840
33 -5.849912 4.319726 0.063164 0.461552 0.000000 0.439300
34 -5.827132 4.411093 0.063164 -0.329881 0.005779 0.439298
time 15
1 8.922822 -12.522541 29.925020 1.604043 0.154969 1.627452
2 -5.577779 -0.123184 0.054231 0.000995 -0.070679 -0.212963
3 -5.512521 -2.697434 -3.989360 0.406067 -0.135627 -0.988915
4 10.569404 0.000000 0.000000 0.000000 0.000000 -2.438894
5 13.357942 0.000000 0.000000 0.000000 0.000000 2.881885
6 -5.435715 -2.622672 3.516682 2.747959 0.105399 -1.032858
7 10.523520 0.000000 0.000000 0.000000 0.000000 2.454558
8 13.611951 0.000000 0.000000 0.000000 0.000000 -2.922814
9 -8.416650 1.073514 -0.018171 0.143239 -0.009885 -0.341344
10 -9.984111 -4.710447 3.170796 0.239080 -3.136149 0.423465
11 5.945618 0.000000 0.000000 0.000000 0.000000 0.734105
12 -9.984111 -4.710445 -2.998739 -0.207126 0.046883 -2.710465
13 5.945623 0.000000 0.000000 0.000000 0.000000 -0.747059
14 -13.167567 0.616876 1.590356 0.000000 0.000000 0.000000
15 -1.915743 -0.010427 0.304297 -0.000000 0.000000 0.691150
16 -13.157713 0.632508 -1.795553 0.000000 0.000000 0.000000
17 -2.207746 -0.183759 -0.037490 -0.000000 0.000000 0.691150
18 -2.622040 -6.273479 8.263164 -2.827559 0.084358 -0.818186
19 11.485749 0.000000 0.000000 0.000000 0.000000 -1.449374
20 24.536903 0.000000 0.000000 0.000000 0.000000 1.388832
21 -2.622039 -6.273479 -8.136835 -0.586304 0.022304 -0.865372
22 11.659969 0.000000 0.000000 0.000000 0.000000 1.496388
23 25.724375 0.000000 0.000000 0.000000 0.000000 -1.424794
24 3.880158 -0.980432 0.090609 -0.000000 0.000000 0.416747
25 13.389689 0.268266 -6.517195 0.542283 1.306249 -0.395924
26 9.913784 0.000000 0.000000 -2.624262 1.047386 0.514763
27 21.016008 0.000000 0.000000 0.000000 0.000000 -1.946836
28 28.471622 0.000000 0.000000 0.000000 0.000000 2.275014
29 13.389685 0.268266 6.023556 -0.462585 -1.348926 -0.488759
30 9.768896 0.000000 0.000000 -1.078383 -0.199488 -1.671085
31 19.931143 0.000000 0.000000 0.000000 0.000000 -1.464763
32 26.044123 0.000000 0.000000 0.000000 0.000000 1.520781
33 -5.849912 4.319726 0.063164 0.461552 0.000000 0.439301
34 -5.827132 4.411093 0.063164 -0.329881 0.005779 0.439300
time 16
1 6.961383 -21.933693 27.030752 1.665969 0.076078 1.853227
2 -5.577779 -0.123184 0.054231 0.000995 -0.070679 -0.212966
3 -5.512521 -2.697434 -3.989360 0.406067 -0.135627 -0.988914
4 10.569404 0.000000 0.000000 0.000000 0.000000 -2.438895
5 13.357942 0.000000 0.000000 0.000000 0.000000 2.881886
6 -5.435715 -2.622672 3.516682 2.747960 0.105399 -1.032857
7 10.523520 0.000000 0.000000 0.000000 0.000000 2.454558
8 13.611951 0.000000 0.000000 0.000000 0.000000 -2.922815
9 -8.416650 1.073514 -0.018171 0.143239 -0.009885 -0.341342
10 -9.984111 -4.710447 3.170796 0.239080 -3.136150 0.423461
11 5.945618 0.000000 0.000000 0.000000 0.000000 0.734098
12 -9.984111 -4.710445 -2.998739 -0.207126 0.046882 -2.710471
13 5.945623 0.000000 0.000000 0.000000 0.000000 -0.747052
14 -13.167567 0.616876 1.590356 0.000000 0.000000 -0.000001
15 -1.915743 -0.010427 0.304297 -0.000000 -0.000000 0.691150
16 -13.157713 0.632508 -1.795553 0.000000 0.000000 -0.000000
17 -2.207746 -0.183759 -0.037490 -0.000000 0.000000 0.691150
18 -2.622040 -6.273479 8.263164 -2.680674 -0.124149 -0.790859
19 11.485749 0.000000 0.000000 0.000000 0.000000 -1.264774
20 24.536903 0.000000 0.000000 0.000000 0.000000 1.054055
21 -2.622039 -6.273479 -8.136835 -0.344685 -0.194048 -0.846840
22 11.659969 0.000000 0.000000 0.000000 0.000000 1.216990
23 25.724375 0.000000 0.000000 0.000000 0.000000 -0.936010
24 3.880158 -0.980432 0.090609 -0.000000 -0.000000 0.415504
25 13.389689 0.268266 -6.517195 0.542283 1.306249 -0.395924
26 9.913784 0.000000 0.000000 -2.525906 1.083056 0.342504
27 21.016008 0.000000 0.000000 0.000000 0.000000 -1.957592
28 28.471622 0.000000 0.000000 0.000000 0.000000 2.296545
29 13.389685 0.268266 6.023556 -0.462585 -1.348926 -0.488759
30 9.768896 0.000000 0.000000 -0.936330 -0.215093 -1.725137
31 19.931143 0.000000 0.000000 0.000000 0.000000 -1.372947
32 26.044123 0.000000 0.000000 0.000000 0.000000 1.356235
33 -5.849912 4.319726 0.063164 0.461552 0.000000 0.439299
34 -5.827132 4.411093 0.063164 -0.329881 0.005779 0.439298
time 17
1 4.535779 -27.186474 24.032766 1.637413 -0.058553 1.984204
2 -5.577779 -0.123184 0.054231 0.000995 -0.070679 -0.212965
3 -5.512521 -2.697434 -3.989360 0.406067 -0.135627 -0.988914
4 10.569404 0.000000 0.000000 0.000000 0.000000 -2.438895
5 13.357942 0.000000 0.000000 0.000000 0.000000 2.881885
6 -5.435715 -2.622672 3.516682 2.747960 0.105399 -1.032856
7 10.523520 0.000000 0.000000 0.000000 0.000000 2.454558
8 13.611951 0.000000 0.000000 0.000000 0.000000 -2.922815
9 -8.416650 1.073514 -0.018171 0.143239 -0.009886 -0.341343
10 -9.984111 -4.710447 3.170796 0.239080 -3.136150 0.423461
11 5.945618 0.000000 0.000000 0.000000 0.000000 0.734096
12 -9.984111 -4.710445 -2.998739 -0.207126 0.046882 -2.710471
13 5.945623 0.000000 0.000000 0.000000 0.000000 -0.747050
14 -13.167567 0.616876 1.590356 0.000000 0.000000 -0.000000
15 -1.915743 -0.010427 0.304297 0.000000 0.000000 0.691150
16 -13.157713 0.632508 -1.795553 0.000000 0.000000 -0.000000
17 -2.207746 -0.183759 -0.037490 -0.000000 -0.000000 0.691150
18 -2.622040 -6.273479 8.263164 -2.545684 -0.243051 -0.869740
19 11.485749 0.000000 0.000000 0.000000 0.000000 -1.156927
20 24.536903 0.000000 0.000000 0.000000 0.000000 0.880527
21 -2.622039 -6.273479 -8.136835 -0.183460 -0.289386 -0.896870
22 11.659969 0.000000 0.000000 0.000000 0.000000 1.024092
23 25.724375 0.000000 0.000000 0.000000 0.000000 -0.662922
24 3.880158 -0.980432 0.090609 -0.000000 -0.000000 0.414277
25 13.389689 0.268266 -6.517195 0.542283 1.306249 -0.395924
26 9.913784 0.000000 0.000000 -0.210691 1.814607 2.207623
27 21.016008 0.000000 0.000000 0.000000 0.000000 -1.835504
28 28.471622 0.000000 0.000000 0.000000 0.000000 2.057757
29 13.389685 0.268266 6.023556 -0.462585 -1.348926 -0.488759
30 9.768896 0.000000 0.000000 -0.884135 -0.333954 -1.827691
31 19.931143 0.000000 0.000000 0.000000 0.000000 -1.474682
32 26.044123 0.000000 0.000000 0.000000 0.000000 1.538558
33 -5.849912 4.319726 0.063164 0.461553 0.000000 0.439300
34 -5.827132 4.411093 0.063164 -0.329881 0.005779 0.439298
time 18
1 2.138542 -30.710255 20.820774 1.546055 -0.236268 2.075967
2 -5.577779 -0.123184 0.054231 0.000995 -0.070679 -0.212965
3 -5.512521 -2.697434 -3.989360 0.406067 -0.135627 -0.988914
4 10.569404 0.000000 0.000000 0.000000 0.000000 -2.438895
5 13.357942 0.000000 0.000000 0.000000 0.000000 2.881886
6 -5.435715 -2.622672 3.516682 2.747960 0.105399 -1.032857
7 10.523520 0.000000 0.000000 0.000000 0.000000 2.454558
8 13.611951 0.000000 0.000000 0.000000 0.000000 -2.922815
9 -8.416650 1.073514 -0.018171 0.143239 -0.009885 -0.341343
10 -9.984111 -4.710447 3.170796 0.239080 -3.136150 0.423462
11 5.945618 0.000000 0.000000 0.000000 0.000000 0.734096
12 -9.984111 -4.710445 -2.998739 -0.207126 0.046882 -2.710469
13 5.945623 0.000000 0.000000 0.000000 0.000000 -0.747049
14 -13.167567 0.616876 1.590356 0.000000 0.000000 0.000000
15 -1.915743 -0.010427 0.304297 -0.000000 0.000000 0.691150
16 -13.157713 0.632508 -1.795553 -0.000000 -0.000000 0.000000
17 -2.207746 -0.183759 -0.037490 0.000000 0.000000 0.691151
18 -2.622040 -6.273479 8.263164 -2.411327 -0.285850 -1.030731
19 11.485749 0.000000 0.000000 0.000000 0.000000 -1.096156
20 24.536903 0.000000 0.000000 0.000000 0.000000 0.790524
21 -2.622039 -6.273479 -8.136835 -0.040014 -0.317884 -1.040045
22 11.659969 0.000000 0.000000 0.000000 0.000000 1.144580
23 25.724375 0.000000 0.000000 0.000000 0.000000 -0.826779
24 3.880158 -0.980432 0.090609 -0.000000 0.000000 0.413077
25 13.389689 0.268266 -6.517195 0.542283 1.306249 -0.395924
26 9.913784 0.000000 0.000000 -1.068285 2.044569 1.253042
27 21.016008 0.000000 0.000000 0.000000 0.000000 -0.616057
28 28.471622 0.000000 0.000000 0.000000 0.000000 0.382050
29 13.389685 0.268266 6.023556 -0.462585 -1.348926 -0.488759
30 9.768896 0.000000 0.000000 -0.876071 -0.480842 -1.949424
31 19.931143 0.000000 0.000000 0.000000 0.000000 -1.540762
32 26.044123 0.000000 0.000000 0.000000 0.000000 1.664460
33 -5.849912 4.319726 0.063164 0.461552 0.000000 0.439300
34 -5.827132 4.411093 0.063164 -0.329881 0.005779 0.439298
time 19
1 -0.211734 -32.798382 18.039358 1.440789 -0.411021 2.137343
2 -5.577779 -0.123184 0.054231 0.000995 -0.070679 -0.212965
3 -5.512521 -2.697434 -3.989360 0.406067 -0.135627 -0.988914
4 10.569404 0.000000 0.000000 0.000000 0.000000 -2.438895
5 13.357942 0.000000 0.000000 0.000000 0.000000 2.881886
6 -5.435715 -2.622672 3.516682 2.747960 0.105399 -1.032856
7 10.523520 0.000000 0.000000 0.000000 0.000000 2.454558
8 13.611951 0.000000 0.000000 0.000000 0.000000 -2.922814
9 -8.416650 1.073514 -0.018171 0.143239 -0.009885 -0.341343
10 -9.984111 -4.710447 3.170796 0.239080 -3.136150 0.423460
11 5.945618 0.000000 0.000000 0.000000 0.000000 0.734093
12 -9.984111 -4.710445 -2.998739 -0.207126 0.046882 -2.710472
13 5.945623 0.000000 0.000000 0.000000 0.000000 -0.747046
14 -13.167567 0.616876 1.590356 0.000000 0.000000 -0.000000
15 -1.915743 -0.010427 0.304297 -0.000000 0.000000 0.691150
16 -13.157713 0.632508 -1.795553 0.000000 0.000000 0.000000
17 -2.207746 -0.183759 -0.037490 -0.000000 -0.000000 0.691150
18 -2.622040 -6.273479 8.263164 -2.317132 -0.276539 -1.206259
19 11.485749 0.000000 0.000000 0.000000 0.000000 -1.060871
20 24.536903 0.000000 0.000000 0.000000 0.000000 0.740932
21 -2.622039 -6.273479 -8.136835 0.042804 -0.303659 -1.150781
22 11.659969 0.000000 0.000000 0.000000 0.000000 1.405850
23 25.724375 0.000000 0.000000 0.000000 0.000000 -1.255285
24 3.880158 -0.980432 0.090609 -0.000000 -0.000000 0.411916
25 13.389689 0.268266 -6.517195 0.542283 1.306249 -0.395924
26 9.913784 0.000000 0.000000 -1.059079 2.308470 1.248627
27 21.016008 0.000000 0.000000 0.000000 0.000000 -1.407016
28 28.471622 0.000000 0.000000 0.000000 0.000000 1.312553
29 13.389685 0.268266 6.023556 -0.462585 -1.348926 -0.488759
30 9.768896 0.000000 0.000000 -0.891372 -0.632610 -2.053715
31 19.931143 0.000000 0.000000 0.000000 0.000000 -1.593900
32 26.044123 0.000000 0.000000 0.000000 0.000000 1.769634
33 -5.849912 4.319726 0.063164 0.461552 0.000000 0.439300
34 -5.827132 4.411093 0.063164 -0.329881 0.005779 0.439298
time 20
1 -2.496457 -33.744194 16.333101 1.370510 -0.536765 2.177158
2 -5.577779 -0.123184 0.054231 0.000995 -0.070679 -0.212966
3 -5.512521 -2.697434 -3.989360 0.406067 -0.135627 -0.988914
4 10.569404 0.000000 0.000000 0.000000 0.000000 -2.438895
5 13.357942 0.000000 0.000000 0.000000 0.000000 2.881886
6 -5.435715 -2.622672 3.516682 2.747960 0.105399 -1.032856
7 10.523520 0.000000 0.000000 0.000000 0.000000 2.454558
8 13.611951 0.000000 0.000000 0.000000 0.000000 -2.922815
9 -8.416650 1.073514 -0.018171 0.143239 -0.009885 -0.341343
10 -9.984111 -4.710447 3.170796 0.239080 -3.136150 0.423458
11 5.945618 0.000000 0.000000 0.000000 0.000000 0.734091
12 -9.984111 -4.710445 -2.998739 -0.207126 0.046882 -2.710473
13 5.945623 0.000000 0.000000 0.000000 0.000000 -0.747044
14 -13.167567 0.616876 1.590356 0.000000 0.000000 -0.000000
15 -1.915743 -0.010427 0.304297 -0.000000 -0.000000 0.691150
16 -13.157713 0.632508 -1.795553 0.000000 0.000000 -0.000000
17 -2.207746 -0.183759 -0.037490 -0.000000 -0.000000 0.691151
18 -2.622040 -6.273479 8.263164 -2.266849 -0.271785 -1.337017
19 11.485749 0.000000 0.000000 0.000000 0.000000 -1.035357
20 24.536903 0.000000 0.000000 0.000000 0.000000 0.706085
21 -2.622039 -6.273479 -8.136835 0.081767 -0.290428 -1.242047
22 11.659969 0.000000 0.000000 0.000000 0.000000 1.575045
23 25.724375 0.000000 0.000000 0.000000 0.000000 -1.578474
24 3.880158 -0.980432 0.090609 -0.000000 -0.000000 0.410805
25 13.389689 0.268266 -6.517195 0.542283 1.306249 -0.395924
26 9.913784 0.000000 0.000000 -1.060106 2.226138 1.316147
27 21.016008 0.000000 0.000000 0.000000 0.000000 -1.657010
28 28.471622 0.000000 0.000000 0.000000 0.000000 1.728492
29 13.389685 0.268266 6.023556 -0.462585 -1.348926 -0.488759
30 9.768896 0.000000 0.000000 -0.910495 -0.749544 -2.111530
31 19.931143 0.000000 0.000000 0.000000 0.000000 -1.625215
32 26.044123 0.000000 0.000000 0.000000 0.000000 1.833642
33 -5.849912 4.319726 0.063164 0.461553 0.000000 0.439299
34 -5.827132 4.411093 0.063164 -0.329881 0.005779 0.439298
time 21
1 -4.057066 -32.874981 15.867419 1.348437 -0.599206 2.195198
2 -5.577779 -0.123184 0.054231 0.000995 -0.070679 -0.212965
3 -5.512521 -2.697434 -3.989360 0.406067 -0.135627 -0.988915
4 10.569404 0.000000 0.000000 0.000000 0.000000 -2.438895
5 13.357942 0.000000 0.000000 0.000000 0.000000 2.881886
6 -5.435715 -2.622672 3.516682 2.747960 0.105399 -1.032857
7 10.523520 0.000000 0.000000 0.000000 0.000000 2.454558
8 13.611951 0.000000 0.000000 0.000000 0.000000 -2.922815
9 -8.416650 1.073514 -0.018171 0.143239 -0.009885 -0.341343
10 -9.984111 -4.710447 3.170796 0.239080 -3.136151 0.423457
11 5.945618 0.000000 0.000000 0.000000 0.000000 0.734089
12 -9.984111 -4.710445 -2.998739 -0.207126 0.046882 -2.710474
13 5.945623 0.000000 0.000000 0.000000 0.000000 -0.747042
14 -13.167567 0.616876 1.590356 0.000000 -0.000000 -0.000000
15 -1.915743 -0.010427 0.304297 -0.000000 0.000000 0.691150
16 -13.157713 0.632508 -1.795553 0.000000 0.000000 -0.000000
17 -2.207746 -0.183759 -0.037490 -0.000000 -0.000000 0.691150
18 -2.622040 -6.273479 8.263164 -2.227508 -0.296857 -1.433912
19 11.485749 0.000000 0.000000 0.000000 0.000000 -1.343663
20 24.536903 0.000000 0.000000 0.000000 0.000000 1.191371
21 -2.622039 -6.273479 -8.136835 0.103885 -0.258474 -1.385366
22 11.659969 0.000000 0.000000 0.000000 0.000000 1.685846
23 25.724375 0.000000 0.000000 0.000000 0.000000 -1.804664
24 3.880158 -0.980432 0.090609 -0.000000 0.000000 0.409756
25 13.389689 0.268266 -6.517195 0.542283 1.306249 -0.395924
26 9.913784 0.000000 0.000000 -0.996337 2.182836 1.432669
27 21.016008 0.000000 0.000000 0.000000 0.000000 -1.814695
28 28.471622 0.000000 0.000000 0.000000 0.000000 2.018107
29 13.389685 0.268266 6.023556 -0.462585 -1.348926 -0.488759
30 9.768896 0.000000 0.000000 -0.915492 -0.802555 -2.126766
31 19.931143 0.000000 0.000000 0.000000 0.000000 -1.612992
32 26.044123 0.000000 0.000000 0.000000 0.000000 1.808806
33 -5.849912 4.319726 0.063164 0.461552 0.000000 0.439300
34 -5.827132 4.411093 0.063164 -0.329881 0.005779 0.439298
time 22
1 -4.580394 -30.376995 16.327295 1.350125 -0.621367 2.187049
2 -5.577779 -0.123184 0.054231 0.000995 -0.070679 -0.212965
3 -5.512521 -2.697434 -3.989360 0.406067 -0.135627 -0.988914
4 10.569404 0.000000 0.000000 0.000000 0.000000 -2.438895
5 13.357942 0.000000 0.000000 0.000000 0.000000 2.881886
6 -5.435715 -2.622672 3.516682 2.747959 0.105399 -1.032857
7 10.523520 0.000000 0.000000 0.000000 0.000000 2.454558
8 13.611951 0.000000 0.000000 0.000000 0.000000 -2.922815
9 -8.416650 1.073514 -0.018171 0.143239 -0.009885 -0.341343
10 -9.984111 -4.710447 3.170796 0.239080 -3.136151 0.423457
11 5.945618 0.000000 0.000000 0.000000 0.000000 0.734086
12 -9.984111 -4.710445 -2.998739 -0.207126 0.046881 -2.710474
13 5.945623 0.000000 0.000000 0.000000 0.000000 -0.747041
14 -13.167567 0.616876 1.590356 0.000000 0.000000 -0.000000
15 -1.915743 -0.010427 0.304297 -0.000000 0.000000 0.691151
16 -13.157713 0.632508 -1.795553 0.000000 0.000000 0.000000
17 -2.207746 -0.183759 -0.037490 -0.000000 -0.000000 0.691150
18 -2.622040 -6.273479 8.263164 -2.177835 -0.425014 -1.455309
19 11.485749 0.000000 0.000000 0.000000 0.000000 -1.682838
20 24.536903 0.000000 0.000000 0.000000 0.000000 1.865923
21 -2.622039 -6.273479 -8.136835 0.093220 -0.251484 -1.402508
22 11.659969 0.000000 0.000000 0.000000 0.000000 1.744397
23 25.724375 0.000000 0.000000 0.000000 0.000000 -1.927157
24 3.880158 -0.980432 0.090609 -0.000000 -0.000000 0.408781
25 13.389689 0.268266 -6.517195 0.542283 1.306249 -0.395924
26 9.913784 0.000000 0.000000 -0.920281 2.167048 1.566350
27 21.016008 0.000000 0.000000 0.000000 0.000000 -1.911643
28 28.471622 0.000000 0.000000 0.000000 0.000000 2.204962
29 13.389685 0.268266 6.023556 -0.462585 -1.348926 -0.488759
30 9.768896 0.000000 0.000000 -0.916841 -0.807912 -2.116789
31 19.931143 0.000000 0.000000 0.000000 0.000000 -1.565550
32 26.044123 0.000000 0.000000 0.000000 0.000000 1.712457
33 -5.849912 4.319726 0.063164 0.461552 0.000000 0.439300
34 -5.827132 4.411093 0.063164 -0.329881 0.005779 0.439298
time 23
1 -4.565935 -27.831987 17.636654 1.367964 -0.613178 2.155240
2 -5.577779 -0.123184 0.054231 0.000995 -0.070679 -0.212965
3 -5.512521 -2.697434 -3.989360 0.406067 -0.135627 -0.988915
4 10.569404 0.000000 0.000000 0.000000 0.000000 -2.438895
5 13.357942 0.000000 0.000000 0.000000 0.000000 2.881886
6 -5.435715 -2.622672 3.516682 2.747960 0.105399 -1.032857
7 10.523520 0.000000 0.000000 0.000000 0.000000 2.454558
8 13.611951 0.000000 0.000000 0.000000 0.000000 -2.922815
9 -8.416650 1.073514 -0.018171 0.143239 -0.009885 -0.341343
10 -9.984111 -4.710447 3.170796 0.239080 -3.136151 0.423457
11 5.945618 0.000000 0.000000 0.000000 0.000000 0.734087
12 -9.984111 -4.710445 -2.998739 -0.207126 0.046881 -2.710474
13 5.945623 0.000000 0.000000 0.000000 0.000000 -0.747040
14 -13.167567 0.616876 1.590356 0.000000 0.000000 -0.000000
15 -1.915743 -0.010427 0.304297 -0.000000 -0.000000 0.691150
16 -13.157713 0.632508 -1.795553 0.000000 0.000000 0.000000
17 -2.207746 -0.183759 -0.037490 -0.000000 -0.000000 0.691150
18 -2.622040 -6.273479 8.263164 -2.109956 -0.512425 -1.491731
19 11.485749 0.000000 0.000000 0.000000 0.000000 -1.846983
20 24.536903 0.000000 0.000000 0.000000 0.000000 2.221522
21 -2.622039 -6.273479 -8.136835 0.063250 -0.227768 -1.402535
22 11.659969 0.000000 0.000000 0.000000 0.000000 1.791005
23 25.724375 0.000000 0.000000 0.000000 0.000000 -2.025798
24 3.880158 -0.980432 0.090609 -0.000000 -0.000000 0.407890
25 13.389689 0.268266 -6.517195 0.542283 1.306249 -0.395924
26 9.913784 0.000000 0.000000 2.188691 0.932309 -1.519139
27 21.016008 0.000000 0.000000 0.000000 0.000000 -1.932460
28 28.471622 0.000000 0.000000 0.000000 0.000000 2.246173
29 13.389685 0.268266 6.023556 -0.462585 -1.348926 -0.488759
30 9.768896 0.000000 0.000000 -0.934026 -0.782087 -2.078478
31 19.931143 0.000000 0.000000 0.000000 0.000000 -1.504843
32 26.044123 0.000000 0.000000 0.000000 0.000000 1.595027
33 -5.849912 4.319726 0.063164 0.461553 0.000000 0.439300
34 -5.827132 4.411093 0.063164 -0.329881 0.005779 0.439298
time 24
1 -4.341210 -26.016413 20.007931 1.394350 -0.584565 2.102298
2 -5.577779 -0.123184 0.054231 0.000995 -0.070679 -0.212965
3 -5.512521 -2.697434 -3.989360 0.406067 -0.135627 -0.988915
4 10.569404 0.000000 0.000000 0.000000 0.000000 -2.438895
5 13.357942 0.000000 0.000000 0.000000 0.000000 2.881886
6 -5.435715 -2.622672 3.516682 2.747959 0.105399 -1.032857
7 10.523520 0.000000 0.000000 0.000000 0.000000 2.454558
8 13.611951 0.000000 0.000000 0.000000 0.000000 -2.922815
9 -8.416650 1.073514 -0.018171 0.143239 -0.009885 -0.341343
10 -9.984111 -4.710447 3.170796 0.239080 -3.136152 0.423455
11 5.945618 0.000000 0.000000 0.000000 0.000000 0.734084
12 -9.984111 -4.710445 -2.998739 -0.207126 0.046882 -2.710476
13 5.945623 0.000000 0.000000 0.000000 0.000000 -0.747038
14 -13.167567 0.616876 1.590356 0.000000 0.000000 -0.000000
15 -1.915743 -0.010427 0.304297 -0.000000 -0.000000 0.691150
16 -13.157713 0.632508 -1.795553 0.000000 0.000000 0.000000
17 -2.207746 -0.183759 -0.037490 -0.000000 -0.000000 0.691150
18 -2.622040 -6.273479 8.263164 -2.076641 -0.406854 -1.555133
19 11.485749 0.000000 0.000000 0.000000 0.000000 -1.836982
20 24.536903 0.000000 0.000000 0.000000 0.000000 2.199736
21 -2.622039 -6.273479 -8.136835 0.021119 -0.189635 -1.413401
22 11.659969 0.000000 0.000000 0.000000 0.000000 1.811398
23 25.724375 0.000000 0.000000 0.000000 0.000000 -2.069251
24 3.880158 -0.980432 0.090609 -0.000000 -0.000000 0.407096
25 13.389689 0.268266 -6.517195 0.542283 1.306249 -0.395924
26 9.913784 0.000000 0.000000 2.017498 0.831432 -1.561792
27 21.016008 0.000000 0.000000 0.000000 0.000000 -1.857013
28 28.471622 0.000000 0.000000 0.000000 0.000000 2.099092
29 13.389685 0.268266 6.023556 -0.462585 -1.348926 -0.488759
30 9.768896 0.000000 0.000000 -0.974870 -0.732092 -2.013383
31 19.931143 0.000000 0.000000 0.000000 0.000000 -1.443144
32 26.044123 0.000000 0.000000 0.000000 0.000000 1.481061
33 -5.849912 4.319726 0.063164 0.461552 0.000000 0.439300
34 -5.827132 4.411093 0.063164 -0.329881 0.005779 0.439298
time 25
1 -3.946610 -24.608997 23.262880 1.421675 -0.545456 2.030750
2 -5.577779 -0.123184 0.054231 0.000995 -0.070679 -0.212965
3 -5.512521 -2.697434 -3.989360 0.406067 -0.135627 -0.988914
4 10.569404 0.000000 0.000000 0.000000 0.000000 -2.438895
5 13.357942 0.000000 0.000000 0.000000 0.000000 2.881886
6 -5.435715 -2.622672 3.516682 2.747960 0.105399 -1.032857
7 10.523520 0.000000 0.000000 0.000000 0.000000 2.454558
8 13.611951 0.000000 0.000000 0.000000 0.000000 -2.922815
9 -8.416650 1.073514 -0.018171 0.143239 -0.009885 -0.341343
10 -9.984111 -4.710447 3.170796 0.239080 -3.136150 0.423457
11 5.945618 0.000000 0.000000 0.000000 0.000000 0.734088
12 -9.984111 -4.710445 -2.998739 -0.207126 0.046881 -2.710475
13 5.945623 0.000000 0.000000 0.000000 0.000000 -0.747039
14 -13.167567 0.616876 1.590356 0.000000 0.000000 -0.000000
15 -1.915743 -0.010427 0.304297 -0.000000 0.000000 0.691150
16 -13.157713 0.632508 -1.795553 0.000000 0.000001 0.000000
17 -2.207746 -0.183759 -0.037490 -0.000000 -0.000000 0.691150
18 -2.622040 -6.273479 8.263164 -2.104459 -0.324598 -1.551127
19 11.485749 0.000000 0.000000 0.000000 0.000000 -1.825891
20 24.536903 0.000000 0.000000 0.000000 0.000000 2.175482
21 -2.622039 -6.273479 -8.136835 -0.038913 -0.138463 -1.441682
22 11.659969 0.000000 0.000000 0.000000 0.000000 1.812756
23 25.724375 0.000000 0.000000 0.000000 0.000000 -2.072145
24 3.880158 -0.980432 0.090609 0.000000 0.000000 0.406411
25 13.389689 0.268266 -6.517195 0.542283 1.306249 -0.395924
26 9.913784 0.000000 0.000000 1.846872 0.711906 -1.584120
27 21.016008 0.000000 0.000000 0.000000 0.000000 -1.768449
28 28.471622 0.000000 0.000000 0.000000 0.000000 1.931107
29 13.389685 0.268266 6.023556 -0.462585 -1.348926 -0.488759
30 9.768896 0.000000 0.000000 -1.031264 -0.665617 -1.935135
31 19.931143 0.000000 0.000000 0.000000 0.000000 -1.378865
32 26.044123 0.000000 0.000000 0.000000 0.000000 1.366523
33 -5.849912 4.319726 0.063164 0.461552 0.000000 0.439300
34 -5.827132 4.411093 0.063164 -0.329881 0.005779 0.439298
time 26
1 -3.450927 -23.544893 26.739397 1.456458 -0.481315 1.921246
2 -5.577779 -0.123184 0.054231 0.000994 -0.070679 -0.212965
3 -5.512521 -2.697434 -3.989360 0.406067 -0.135627 -0.988914
4 10.569404 0.000000 0.000000 0.000000 0.000000 -2.438895
5 13.357942 0.000000 0.000000 0.000000 0.000000 2.881886
6 -5.435715 -2.622672 3.516682 2.747960 0.105399 -1.032857
7 10.523520 0.000000 0.000000 0.000000 0.000000 2.454558
8 13.611951 0.000000 0.000000 0.000000 0.000000 -2.922815
9 -8.416650 1.073514 -0.018171 0.143239 -0.009885 -0.341343
10 -9.984111 -4.710447 3.170796 0.239080 -3.136152 0.423454
11 5.945618 0.000000 0.000000 0.000000 0.000000 0.734081
12 -9.984111 -4.710445 -2.998739 -0.207126 0.046881 -2.710476
13 5.945623 0.000000 0.000000 0.000000 0.000000 -0.747037
14 -13.167567 0.616876 1.590356 0.000000 0.000000 -0.000000
15 -1.915743 -0.010427 0.304297 -0.000000 -0.000000 0.691150
16 -13.157713 0.632508 -1.795553 0.000000 0.000000 -0.000000
17 -2.207746 -0.183759 -0.037490 0.000000 0.000000 0.691150
18 -2.622040 -6.273479 8.263164 -2.185330 -0.222624 -1.511825
19 11.485749 0.000000 0.000000 0.000000 0.000000 -1.796183
20 24.536903 0.000000 0.000000 0.000000 0.000000 2.110696
21 -2.622039 -6.273479 -8.136835 -0.136040 -0.083833 -1.452955
22 11.659969 0.000000 0.000000 0.000000 0.000000 1.799288
23 25.724375 0.000000 0.000000 0.000000 0.000000 -2.043447
24 3.880158 -0.980432 0.090609 -0.000000 0.000000 0.405845
25 13.389689 0.268266 -6.517195 0.542283 1.306249 -0.395924
26 9.913784 0.000000 0.000000 1.670760 0.581866 -1.607566
27 21.016008 0.000000 0.000000 0.000000 0.000000 -1.661383
28 28.471622 0.000000 0.000000 0.000000 0.000000 1.736290
29 13.389685 0.268266 6.023556 -0.462585 -1.348926 -0.488759
30 9.768896 0.000000 0.000000 -1.110172 -0.582458 -1.836950
31 19.931143 0.000000 0.000000 0.000000 0.000000 -1.325171
32 26.044123 0.000000 0.000000 0.000000 0.000000 1.275653
33 -5.849912 4.319726 0.063164 0.461552 0.000000 0.439300
34 -5.827132 4.411093 0.063164 -0.329881 0.005779 0.439298
time 27
1 -2.922957 -22.759277 29.775404 1.501596 -0.390368 1.778552
2 -5.577779 -0.123184 0.054231 0.000995 -0.070679 -0.212966
3 -5.512521 -2.697434 -3.989360 0.406067 -0.135627 -0.988914
4 10.569404 0.000000 0.000000 0.000000 0.000000 -2.438895
5 13.357942 0.000000 0.000000 0.000000 0.000000 2.881886
6 -5.435715 -2.622672 3.516682 2.747960 0.105399 -1.032856
7 10.523520 0.000000 0.000000 0.000000 0.000000 2.454558
8 13.611951 0.000000 0.000000 0.000000 0.000000 -2.922815
9 -8.416650 1.073514 -0.018171 0.143239 -0.009886 -0.341342
10 -9.984111 -4.710447 3.170796 0.239080 -3.136151 0.423454
11 5.945618 0.000000 0.000000 0.000000 0.000000 0.734084
12 -9.984111 -4.710445 -2.998739 -0.207126 0.046881 -2.710477
13 5.945623 0.000000 0.000000 0.000000 0.000000 -0.747037
14 -13.167567 0.616876 1.590356 0.000000 0.000000 -0.000001
15 -1.915743 -0.010427 0.304297 -0.000000 -0.000000 0.691150
16 -13.157713 0.632508 -1.795553 0.000000 0.000000 -0.000001
17 -2.207746 -0.183759 -0.037490 0.000000 0.000000 0.691150
18 -2.622040 -6.273479 8.263164 -2.316733 -0.131911 -1.436137
19 11.485749 0.000000 0.000000 0.000000 0.000000 -1.755308
20 24.536903 0.000000 0.000000 0.000000 0.000000 2.021708
21 -2.622039 -6.273479 -8.136835 -0.269426 -0.043623 -1.432159
22 11.659969 0.000000 0.000000 0.000000 0.000000 1.778658
23 25.724375 0.000000 0.000000 0.000000 0.000000 -1.999823
24 3.880158 -0.980432 0.090609 -0.000000 -0.000000 0.405410
25 13.389689 0.268266 -6.517195 0.542283 1.306249 -0.395924
26 9.913784 0.000000 0.000000 1.512066 0.451688 -1.645113
27 21.016008 0.000000 0.000000 0.000000 0.000000 -1.540493
28 28.471622 0.000000 0.000000 0.000000 0.000000 1.528491
29 13.389685 0.268266 6.023556 -0.462585 -1.348926 -0.488759
30 9.768896 0.000000 0.000000 -1.196803 -0.487390 -1.723454
31 19.931143 0.000000 0.000000 0.000000 0.000000 -1.302788
32 26.044123 0.000000 0.000000 0.000000 0.000000 1.239167
33 -5.849912 4.319726 0.063164 0.461552 0.000000 0.439300
34 -5.827132 4.411093 0.063164 -0.329881 0.005779 0.439298
time 28
1 -2.431495 -22.187307 31.708796 1.544054 -0.301688 1.641367
2 -5.577779 -0.123184 0.054231 0.000995 -0.070679 -0.212964
3 -5.512521 -2.697434 -3.989360 0.406067 -0.135627 -0.988916
4 10.569404 0.000000 0.000000 0.000000 0.000000 -2.438895
5 13.357942 0.000000 0.000000 0.000000 0.000000 2.881887
6 -5.435715 -2.622672 3.516682 2.747959 0.105399 -1.032859
7 10.523520 0.000000 0.000000 0.000000 0.000000 2.454558
8 13.611951 0.000000 0.000000 0.000000 0.000000 -2.922816
9 -8.416650 1.073514 -0.018171 0.143239 -0.009885 -0.341344
10 -9.984111 -4.710447 3.170796 0.239080 -3.136152 0.423454
11 5.945618 0.000000 0.000000 0.000000 0.000000 0.734083
12 -9.984111 -4.710445 -2.998739 -0.207126 0.046881 -2.710476
13 5.945623 0.000000 0.000000 0.000000 0.000000 -0.747038
14 -13.167567 0.616876 1.590356 0.000000 -0.000000 -0.000000
15 -1.915743 -0.010427 0.304297 0.000000 -0.000000 0.691150
16 -13.157713 0.632508 -1.795553 -0.000000 0.000000 0.000000
17 -2.207746 -0.183759 -0.037490 0.000000 -0.000000 0.691150
18 -2.622040 -6.273479 8.263164 -2.454510 -0.071296 -1.357031
19 11.485749 0.000000 0.000000 0.000000 0.000000 -1.719524
20 24.536903 0.000000 0.000000 0.000000 0.000000 1.944368
21 -2.622039 -6.273479 -8.136835 -0.406001 -0.021651 -1.394868
22 11.659969 0.000000 0.000000 0.000000 0.000000 1.764344
23 25.724375 0.000000 0.000000 0.000000 0.000000 -1.969433
24 3.880158 -0.980432 0.090609 -0.000000 -0.000000 0.405118
25 13.389689 0.268266 -6.517195 0.542283 1.306249 -0.395924
26 9.913784 0.000000 0.000000 1.396490 0.348642 -1.689797
27 21.016008 0.000000 0.000000 0.000000 0.000000 -1.432806
28 28.471622 0.000000 0.000000 0.000000 0.000000 1.352518
29 13.389685 0.268266 6.023556 -0.462585 -1.348926 -0.488759
30 9.768896 0.000000 0.000000 -1.266765 -0.406517 -1.620916
31 19.931143 0.000000 0.000000 0.000000 0.000000 -1.318328
32 26.044123 0.000000 0.000000 0.000000 0.000000 1.264658
33 -5.849912 4.319726 0.063164 0.461552 0.000000 0.439300
34 -5.827132 4.411093 0.063164 -0.329881 0.005779 0.439298
time 29
1 -1.938350 -21.943037 32.239338 1.570796 -0.244344 1.548393
2 -5.577779 -0.123184 0.054231 0.000995 -0.070679 -0.212963
3 -5.512521 -2.697434 -3.989360 0.406067 -0.135628 -0.988914
4 10.569404 0.000000 0.000000 0.000000 0.000000 -2.438894
5 13.357942 0.000000 0.000000 0.000000 0.000000 2.881884
6 -5.435715 -2.622672 3.516682 2.747960 0.105400 -1.032855
7 10.523520 0.000000 0.000000 0.000000 0.000000 2.454557
8 13.611951 0.000000 0.000000 0.000000 0.000000 -2.922813
9 -8.416650 1.073514 -0.018171 0.143239 -0.009885 -0.341343
10 -9.984111 -4.710447 3.170796 0.239080 -3.136151 0.423457
11 5.945618 0.000000 0.000000 0.000000 0.000000 0.734085
12 -9.984111 -4.710445 -2.998739 -0.207126 0.046881 -2.710474
13 5.945623 0.000000 0.000000 0.000000 0.000000 -0.747039
14 -13.167567 0.616876 1.590356 -0.000000 0.000000 -0.000000
15 -1.915743 -0.010427 0.304297 -0.000000 -0.000000 0.691150
16 -13.157713 0.632508 -1.795553 -0.000000 -0.000000 -0.000000
17 -2.207746 -0.183759 -0.037490 0.000000 0.000000 0.691150
18 -2.622040 -6.273479 8.263164 -2.556460 -0.038730 -1.296843
19 11.485749 0.000000 0.000000 0.000000 0.000000 -1.702444
20 24.536903 0.000000 0.000000 0.000000 0.000000 1.907461
21 -2.622039 -6.273479 -8.136835 -0.505799 -0.005783 -1.357072
22 11.659969 0.000000 0.000000 0.000000 0.000000 1.761830
23 25.724375 0.000000 0.000000 0.000000 0.000000 -1.964099
24 3.880158 -0.980432 0.090609 -0.000000 -0.000000 0.404984
25 13.389689 0.268266 -6.517195 0.542283 1.306249 -0.395924
26 9.913784 0.000000 0.000000 1.331026 0.294487 -1.723206
27 21.016008 0.000000 0.000000 0.000000 0.000000 -1.370805
28 28.471622 0.000000 0.000000 0.000000 0.000000 1.257098
29 13.389685 0.268266 6.023556 -0.462585 -1.348926 -0.488759
30 9.768896 0.000000 0.000000 -1.307622 -0.363607 -1.555829
31 19.931143 0.000000 0.000000 0.000000 0.000000 -1.354051
32 26.044123 0.000000 0.000000 0.000000 0.000000 1.323978
33 -5.849912 4.319726 0.063164 0.461552 0.000000 0.439302
34 -5.827132 4.411093 0.063164 -0.329881 0.005779 0.439301
time 30
1 -1.397658 -22.069685 31.808414 1.574091 -0.233456 1.520079
2 -5.577779 -0.123184 0.054231 0.000995 -0.070679 -0.212965
3 -5.512521 -2.697434 -3.989360 0.406067 -0.135627 -0.988915
4 10.569404 0.000000 0.000000 0.000000 0.000000 -2.438895
5 13.357942 0.000000 0.000000 0.000000 0.000000 2.881886
6 -5.435715 -2.622672 3.516682 2.747959 0.105399 -1.032857
7 10.523520 0.000000 0.000000 0.000000 0.000000 2.454558
8 13.611951 0.000000 0.000000 0.000000 0.000000 -2.922815
9 -8.416650 1.073514 -0.018171 0.143239 -0.009885 -0.341343
10 -9.984111 -4.710447 3.170796 0.239080 -3.136152 0.423453
11 5.945618 0.000000 0.000000 0.000000 0.000000 0.734079
12 -9.984111 -4.710445 -2.998739 -0.207126 0.046881 -2.710477
13 5.945623 0.000000 0.000000 0.000000 0.000000 -0.747036
14 -13.167567 0.616876 1.590356 -0.000000 0.000000 -0.000000
15 -1.915743 -0.010427 0.304297 -0.000000 0.000000 0.691150
16 -13.157713 0.632508 -1.795553 -0.000000 0.000000 0.000000
17 -2.207746 -0.183759 -0.037490 -0.000000 -0.000000 0.691151
18 -2.622040 -6.273479 8.263164 -2.599308 -0.022849 -1.273103
19 11.485749 0.000000 0.000000 0.000000 0.000000 -1.704360
20 24.536903 0.000000 0.000000 0.000000 0.000000 1.911595
21 -2.622039 -6.273479 -8.136835 -0.543965 0.013448 -1.336356
22 11.659969 0.000000 0.000000 0.000000 0.000000 1.765295
23 25.724375 0.000000 0.000000 0.000000 0.000000 -1.971451
24 3.880158 -0.980432 0.090609 0.000000 0.000000 0.405010
25 13.389689 0.268266 -6.517195 0.542283 1.306249 -0.395924
26 9.913784 0.000000 0.000000 1.319856 0.290882 -1.732508
27 21.016008 0.000000 0.000000 0.000000 0.000000 -1.366890
28 28.471622 0.000000 0.000000 0.000000 0.000000 1.251120
29 13.389685 0.268266 6.023556 -0.462585 -1.348926 -0.488759
30 9.768896 0.000000 0.000000 -1.317692 -0.362114 -1.544549
31 19.931143 0.000000 0.000000 0.000000 0.000000 -1.380011
32 26.044123 0.000000 0.000000 0.000000 0.000000 1.368520
33 -5.849912 4.319726 0.063164 0.461552 0.000000 0.439300
34 -5.827132 4.411093 0.063164 -0.329881 0.005779 0.439298
time 31
1 -0.866706 -22.396177 30.866394 1.560457 -0.254481 1.537075
2 -5.577779 -0.123184 0.054231 0.000995 -0.070678 -0.212965
3 -5.512521 -2.697434 -3.989360 0.406067 -0.135627 -0.988914
4 10.569404 0.000000 0.000000 0.000000 0.000000 -2.438894
5 13.357942 0.000000 0.000000 0.000000 0.000000 2.881885
6 -5.435715 -2.622672 3.516682 2.747960 0.105399 -1.032856
7 10.523520 0.000000 0.000000 0.000000 0.000000 2.454558
8 13.611951 0.000000 0.000000 0.000000 0.000000 -2.922814
9 -8.416650 1.073514 -0.018171 0.143239 -0.009886 -0.341343
10 -9.984111 -4.710447 3.170796 0.239080 -3.136151 0.423456
11 5.945618 0.000000 0.000000 0.000000 0.000000 0.734082
12 -9.984111 -4.710445 -2.998739 -0.207126 0.046881 -2.710475
13 5.945623 0.000000 0.000000 0.000000 0.000000 -0.747035
14 -13.167567 0.616876 1.590356 -0.000000 0.000000 0.000000
15 -1.915743 -0.010427 0.304297 -0.000000 -0.000000 0.691150
16 -13.157713 0.632508 -1.795553 -0.000000 0.000000 0.000001
17 -2.207746 -0.183759 -0.037490 0.000000 -0.000000 0.691150
18 -2.622040 -6.273479 8.263164 -2.599165 -0.016742 -1.274693
19 11.485749 0.000000 0.000000 0.000000 0.000000 -1.718110
20 24.536903 0.000000 0.000000 0.000000 0.000000 1.941308
21 -2.622039 -6.273479 -8.136835 -0.535776 0.035276 -1.328645
22 11.659969 0.000000 0.000000 0.000000 0.000000 1.771217
23 25.724375 0.000000 0.000000 0.000000 0.000000 -1.984022
24 3.880158 -0.980432 0.090609 0.000000 0.000000 0.405217
25 13.389689 0.268266 -6.517195 0.542283 1.306249 -0.395924
26 9.913784 0.000000 0.000000 1.349227 0.320586 -1.727009
27 21.016008 0.000000 0.000000 0.000000 0.000000 -1.399376
28 28.471622 0.000000 0.000000 0.000000 0.000000 1.300814
29 13.389685 0.268266 6.023556 -0.462585 -1.348926 -0.488759
30 9.768896 0.000000 0.000000 -1.308532 -0.386128 -1.570916
31 19.931143 0.000000 0.000000 0.000000 0.000000 -1.393507
32 26.044123 0.000000 0.000000 0.000000 0.000000 1.392108
33 -5.849912 4.319726 0.063164 0.461552 0.000000 0.439301
34 -5.827132 4.411093 0.063164 -0.329881 0.005779 0.439299
time 32
1 -0.402779 -22.751440 29.863649 1.538231 -0.292021 1.578380
2 -5.577779 -0.123184 0.054231 0.000995 -0.070679 -0.212965
3 -5.512521 -2.697434 -3.989360 0.406067 -0.135627 -0.988915
4 10.569404 0.000000 0.000000 0.000000 0.000000 -2.438895
5 13.357942 0.000000 0.000000 0.000000 0.000000 2.881886
6 -5.435715 -2.622672 3.516682 2.747959 0.105399 -1.032857
7 10.523520 0.000000 0.000000 0.000000 0.000000 2.454558
8 13.611951 0.000000 0.000000 0.000000 0.000000 -2.922815
9 -8.416650 1.073514 -0.018171 0.143239 -0.009885 -0.341344
10 -9.984111 -4.710447 3.170796 0.239080 -3.136152 0.423454
11 5.945618 0.000000 0.000000 0.000000 0.000000 0.734080
12 -9.984111 -4.710445 -2.998739 -0.207126 0.046881 -2.710477
13 5.945623 0.000000 0.000000 0.000000 0.000000 -0.747035
14 -13.167567 0.616876 1.590356 -0.000000 0.000000 0.000000
15 -1.915743 -0.010427 0.304297 -0.000000 -0.000000 0.691150
16 -13.157713 0.632508 -1.795553 -0.000000 0.000000 0.000001
17 -2.207746 -0.183759 -0.037490 -0.000000 -0.000000 0.691150
18 -2.622040 -6.273479 8.263164 -2.574230 -0.016991 -1.294497
19 11.485749 0.000000 0.000000 0.000000 0.000000 -1.735758
20 24.536903 0.000000 0.000000 0.000000 0.000000 1.979539
21 -2.622039 -6.273479 -8.136835 -0.502887 0.053506 -1.332841
22 11.659969 0.000000 0.000000 0.000000 0.000000 1.776540
23 25.724375 0.000000 0.000000 0.000000 0.000000 -1.995325
24 3.880158 -0.980432 0.090609 -0.000000 0.000000 0.405613
25 13.389689 0.268266 -6.517195 0.542283 1.306249 -0.395924
26 9.913784 0.000000 0.000000 1.408480 0.366424 -1.718939
27 21.016008 0.000000 0.000000 0.000000 0.000000 -1.444559
28 28.471622 0.000000 0.000000 0.000000 0.000000 1.371240
29 13.389685 0.268266 6.023556 -0.462585 -1.348926 -0.488759
30 9.768896 0.000000 0.000000 -1.288340 -0.420642 -1.615906
31 19.931143 0.000000 0.000000 0.000000 0.000000 -1.397295
32 26.044123 0.000000 0.000000 0.000000 0.000000 1.398788
33 -5.849912 4.319726 0.063164 0.461552 0.000000 0.439300
34 -5.827132 4.411093 0.063164 -0.329881 0.005779 0.439298
time 33
1 -0.063165 -22.964394 29.250536 1.515751 -0.330670 1.622995
2 -5.577779 -0.123184 0.054231 0.000995 -0.070679 -0.212966
3 -5.512521 -2.697434 -3.989360 0.406067 -0.135627 -0.988913
4 10.569404 0.000000 0.000000 0.000000 0.000000 -2.438894
5 13.357942 0.000000 0.000000 0.000000 0.000000 2.881885
6 -5.435715 -2.622672 3.516682 2.747960 0.105399 -1.032856
7 10.523520 0.000000 0.000000 0.000000 0.000000 2.454558
8 13.611951 0.000000 0.000000 0.000000 0.000000 -2.922814
9 -8.416650 1.073514 -0.018171 0.143239 -0.009885 -0.341343
10 -9.984111 -4.710447 3.170796 0.239080 -3.136151 0.423455
11 5.945618 0.000000 0.000000 0.000000 0.000000 0.734081
12 -9.984111 -4.710445 -2.998739 -0.207126 0.046881 -2.710476
13 5.945623 0.000000 0.000000 0.000000 0.000000 -0.747035
14 -13.167567 0.616876 1.590356 -0.000000 0.000000 0.000000
15 -1.915743 -0.010427 0.304297 -0.000000 -0.000000 0.691150
16 -13.157713 0.632508 -1.795553 -0.000000 0.000000 0.000000
17 -2.207746 -0.183759 -0.037490 -0.000000 -0.000000 0.691150
18 -2.622040 -6.273479 8.263164 -2.541634 -0.018565 -1.326582
19 11.485749 0.000000 0.000000 0.000000 0.000000 -1.750275
20 24.536903 0.000000 0.000000 0.000000 0.000000 2.010746
21 -2.622039 -6.273479 -8.136835 -0.467709 0.064541 -1.349020
22 11.659969 0.000000 0.000000 0.000000 0.000000 1.779430
23 25.724375 0.000000 0.000000 0.000000 0.000000 -2.001464
24 3.880158 -0.980432 0.090609 -0.000000 -0.000000 0.406209
25 13.389689 0.268266 -6.517195 0.542283 1.306249 -0.395924
26 9.913784 0.000000 0.000000 1.435222 0.413115 -1.690553
27 21.016008 0.000000 0.000000 0.000000 0.000000 -1.480500
28 28.471622 0.000000 0.000000 0.000000 0.000000 1.429203
29 13.389685 0.268266 6.023556 -0.462585 -1.348926 -0.488759
30 9.768896 0.000000 0.000000 -1.266049 -0.450770 -1.660466
31 19.931143 0.000000 0.000000 0.000000 0.000000 -1.392333
32 26.044123 0.000000 0.000000 0.000000 0.000000 1.390098
33 -5.849912 4.319726 0.063164 0.461552 0.000000 0.439299
34 -5.827132 4.411093 0.063164 -0.329881 0.005779 0.439298
time 34
1 0.152138 -23.035038 29.027056 1.501354 -0.355025 1.649917
2 -5.577779 -0.123184 0.054231 0.000995 -0.070679 -0.212966
3 -5.512521 -2.697434 -3.989360 0.406067 -0.135627 -0.988914
4 10.569404 0.000000 0.000000 0.000000 0.000000 -2.438895
5 13.357942 0.000000 0.000000 0.000000 0.000000 2.881886
6 -5.435715 -2.622672 3.516682 2.747960 0.105399 -1.032857
7 10.523520 0.000000 0.000000 0.000000 0.000000 2.454558
8 13.611951 0.000000 0.000000 0.000000 0.000000 -2.922815
9 -8.416650 1.073514 -0.018171 0.143239 -0.009885 -0.341343
10 -9.984111 -4.710447 3.170796 0.239080 -3.136152 0.423453
11 5.945618 0.000000 0.000000 0.000000 0.000000 0.734079
12 -9.984111 -4.710445 -2.998739 -0.207126 0.046881 -2.710477
13 5.945623 0.000000 0.000000 0.000000 0.000000 -0.747034
14 -13.167567 0.616876 1.590356 0.000000 0.000000 -0.000000
15 -1.915743 -0.010427 0.304297 -0.000000 0.000000 0.691150
16 -13.157713 0.632508 -1.795553 -0.000000 0.000000 0.000000
17 -2.207746 -0.183759 -0.037490 -0.000000 -0.000000 0.691150
18 -2.622040 -6.273479 8.263164 -2.521584 -0.017452 -1.351385
19 11.485749 0.000000 0.000000 0.000000 0.000000 -1.757916
20 24.536903 0.000000 0.000000 0.000000 0.000000 2.027390
21 -2.622039 -6.273479 -8.136835 -0.448575 0.071080 -1.364056
22 11.659969 0.000000 0.000000 0.000000 0.000000 1.780534
23 25.724375 0.000000 0.000000 0.000000 0.000000 -2.003810
24 3.880158 -0.980432 0.090609 -0.000000 -0.000000 0.407019
25 13.389689 0.268266 -6.517195 0.542283 1.306249 -0.395924
26 9.913784 0.000000 0.000000 1.452238 0.441021 -1.672948
27 21.016008 0.000000 0.000000 0.000000 0.000000 -1.498378
28 28.471622 0.000000 0.000000 0.000000 0.000000 1.458474
29 13.389685 0.268266 6.023556 -0.462585 -1.348926 -0.488759
30 9.768896 0.000000 0.000000 -1.252196 -0.467821 -1.687534
31 19.931143 0.000000 0.000000 0.000000 0.000000 -1.386917
32 26.044123 0.000000 0.000000 0.000000 0.000000 1.380589
33 -5.849912 4.319726 0.063164 0.461552 0.000000 0.439300
34 -5.827132 4.411093 0.063164 -0.329881 0.005779 0.439298
time 35
1 0.281320 -23.077421 28.892967 1.495041 -0.365086 1.659146
2 -5.577779 -0.123184 0.054231 0.000995 -0.070679 -0.212965
3 -5.512521 -2.697434 -3.989360 0.406067 -0.135627 -0.988915
4 10.569404 0.000000 0.000000 0.000000 0.000000 -2.438895
5 13.357942 0.000000 0.000000 0.000000 0.000000 2.881886
6 -5.435715 -2.622672 3.516682 2.747959 0.105399 -1.032857
7 10.523520 0.000000 0.000000 0.000000 0.000000 2.454558
8 13.611951 0.000000 0.000000 0.000000 0.000000 -2.922815
9 -8.416650 1.073514 -0.018171 0.143239 -0.009885 -0.341343
10 -9.984111 -4.710447 3.170796 0.239080 -3.136152 0.423452
11 5.945618 0.000000 0.000000 0.000000 0.000000 0.734079
12 -9.984111 -4.710445 -2.998739 -0.207126 0.046881 -2.710479
13 5.945623 0.000000 0.000000 0.000000 0.000000 -0.747034
14 -13.167567 0.616876 1.590356 -0.000000 0.000000 -0.000001
15 -1.915743 -0.010427 0.304297 -0.000000 -0.000000 0.691150
16 -13.157713 0.632508 -1.795553 -0.000000 0.000000 -0.000000
17 -2.207746 -0.183759 -0.037490 -0.000000 -0.000000 0.691150
18 -2.622040 -6.273479 8.263164 -2.516409 -0.015203 -1.360392
19 11.485749 0.000000 0.000000 0.000000 0.000000 -1.761204
20 24.536903 0.000000 0.000000 0.000000 0.000000 2.034556
21 -2.622039 -6.273479 -8.136835 -0.443110 0.075936 -1.369158
22 11.659969 0.000000 0.000000 0.000000 0.000000 1.781303
23 25.724375 0.000000 0.000000 0.000000 0.000000 -2.005444
24 3.880158 -0.980432 0.090609 -0.000000 -0.000000 0.408053
25 13.389689 0.268266 -6.517195 0.542283 1.306249 -0.395924
26 9.913784 0.000000 0.000000 1.458400 0.453847 -1.666235
27 21.016008 0.000000 0.000000 0.000000 0.000000 -1.505788
28 28.471622 0.000000 0.000000 0.000000 0.000000 1.470686
29 13.389685 0.268266 6.023556 -0.462585 -1.348926 -0.488759
30 9.768896 0.000000 0.000000 -1.247394 -0.475931 -1.698539
31 19.931143 0.000000 0.000000 0.000000 0.000000 -1.386815
32 26.044123 0.000000 0.000000 0.000000 0.000000 1.380411
33 -5.849912 4.319726 0.063164 0.461552 -0.000000 0.439300
34 -5.827132 4.411093 0.063164 -0.329881 0.005779 0.439298
time 36
1 0.324380 -23.091553 28.848274 1.491254 -0.371123 1.664683
2 -5.577779 -0.123184 0.054231 0.000995 -0.070679 -0.212966
3 -5.512521 -2.697434 -3.989360 0.406067 -0.135627 -0.988914
4 10.569404 0.000000 0.000000 0.000000 0.000000 -2.438895
5 13.357942 0.000000 0.000000 0.000000 0.000000 2.881886
6 -5.435715 -2.622672 3.516682 2.747960 0.105399 -1.032856
7 10.523520 0.000000 0.000000 0.000000 0.000000 2.454558
8 13.611951 0.000000 0.000000 0.000000 0.000000 -2.922815
9 -8.416650 1.073514 -0.018171 0.143239 -0.009885 -0.341343
10 -9.984111 -4.710447 3.170796 0.239080 -3.136151 0.423455
11 5.945618 0.000000 0.000000 0.000000 0.000000 0.734082
12 -9.984111 -4.710445 -2.998739 -0.207126 0.046881 -2.710475
13 5.945623 0.000000 0.000000 0.000000 0.000000 -0.747037
14 -13.167567 0.616876 1.590356 0.000000 0.000000 0.000000
15 -1.915743 -0.010427 0.304297 -0.000000 -0.000000 0.691150
16 -13.157713 0.632508 -1.795553 -0.000000 0.000000 0.000000
17 -2.207746 -0.183759 -0.037490 -0.000000 -0.000000 0.691150
18 -2.622040 -6.273479 8.263164 -2.512307 -0.014046 -1.366783
19 11.485749 0.000000 0.000000 0.000000 0.000000 -1.762731
20 24.536903 0.000000 0.000000 0.000000 0.000000 2.037885
21 -2.622039 -6.273479 -8.136835 -0.439359 0.078181 -1.373260
22 11.659969 0.000000 0.000000 0.000000 0.000000 1.781740
23 25.724375 0.000000 0.000000 0.000000 0.000000 -2.006371
24 3.880158 -0.980432 0.090609 -0.000000 -0.000000 0.409322
25 13.389689 0.268266 -6.517195 0.542283 1.306249 -0.395924
26 9.913784 0.000000 0.000000 1.461651 0.461536 -1.662624
27 21.016008 0.000000 0.000000 0.000000 0.000000 -1.509580
28 28.471622 0.000000 0.000000 0.000000 0.000000 1.476952
29 13.389685 0.268266 6.023556 -0.462585 -1.348926 -0.488759
30 9.768896 0.000000 0.000000 -1.245027 -0.480818 -1.704766
31 19.931143 0.000000 0.000000 0.000000 0.000000 -1.385935
32 26.044123 0.000000 0.000000 0.000000 0.000000 1.378869
33 -5.849912 4.319726 0.063164 0.461552 0.000000 0.439300
34 -5.827132 4.411093 0.063164 -0.329881 0.005779 0.439299
time 37
1 0.281320 -23.077425 28.892971 1.489991 -0.373136 1.666529
2 -5.577779 -0.123184 0.054231 0.000995 -0.070679 -0.212965
3 -5.512521 -2.697434 -3.989360 0.406067 -0.135627 -0.988915
4 10.569404 0.000000 0.000000 0.000000 0.000000 -2.438895
5 13.357942 0.000000 0.000000 0.000000 0.000000 2.881886
6 -5.435715 -2.622672 3.516682 2.747959 0.105399 -1.032857
7 10.523520 0.000000 0.000000 0.000000 0.000000 2.454558
8 13.611951 0.000000 0.000000 0.000000 0.000000 -2.922816
9 -8.416650 1.073514 -0.018171 0.143239 -0.009885 -0.341343
10 -9.984111 -4.710447 3.170796 0.239080 -3.136152 0.423454
11 5.945618 0.000000 0.000000 0.000000 0.000000 0.734079
12 -9.984111 -4.710445 -2.998739 -0.207126 0.046881 -2.710477
13 5.945623 0.000000 0.000000 0.000000 0.000000 -0.747034
14 -13.167567 0.616876 1.590356 0.000000 0.000000 0.000000
15 -1.915743 -0.010427 0.304297 -0.000000 -0.000000 0.691150
16 -13.157713 0.632508 -1.795553 0.000000 0.000000 0.000000
17 -2.207746 -0.183759 -0.037490 -0.000000 0.000000 0.691150
18 -2.622040 -6.273479 8.263164 -2.509202 -0.013975 -1.370541
19 11.485749 0.000000 0.000000 0.000000 0.000000 -1.762535
20 24.536903 0.000000 0.000000 0.000000 0.000000 2.037457
21 -2.622039 -6.273479 -8.136835 -0.437274 0.077860 -1.376337
22 11.659969 0.000000 0.000000 0.000000 0.000000 1.781861
23 25.724375 0.000000 0.000000 0.000000 0.000000 -2.006630
24 3.880158 -0.980432 0.090609 -0.000000 -0.000000 0.410838
25 13.389689 0.268266 -6.517195 0.542283 1.306249 -0.395924
26 9.913784 0.000000 0.000000 1.461877 0.464082 -1.662124
27 21.016008 0.000000 0.000000 0.000000 0.000000 -1.509753
28 28.471622 0.000000 0.000000 0.000000 0.000000 1.477238
29 13.389685 0.268266 6.023556 -0.462585 -1.348926 -0.488759
30 9.768896 0.000000 0.000000 -1.245186 -0.482464 -1.706236
31 19.931143 0.000000 0.000000 0.000000 0.000000 -1.384164
32 26.044123 0.000000 0.000000 0.000000 0.000000 1.375771
33 -5.849912 4.319726 0.063164 0.461552 0.000000 0.439299
34 -5.827132 4.411093 0.063164 -0.329881 0.005779 0.439298
time 38
1 0.152138 -23.035038 29.027058 1.491254 -0.371124 1.664683
2 -5.577779 -0.123184 0.054231 0.000995 -0.070679 -0.212965
3 -5.512521 -2.697434 -3.989360 0.406067 -0.135627 -0.988915
4 10.569404 0.000000 0.000000 0.000000 0.000000 -2.438895
5 13.357942 0.000000 0.000000 0.000000 0.000000 2.881886
6 -5.435715 -2.622672 3.516682 2.747960 0.105399 -1.032856
7 10.523520 0.000000 0.000000 0.000000 0.000000 2.454558
8 13.611951 0.000000 0.000000 0.000000 0.000000 -2.922814
9 -8.416650 1.073514 -0.018171 0.143239 -0.009885 -0.341343
10 -9.984111 -4.710447 3.170796 0.239080 -3.136152 0.423453
11 5.945618 0.000000 0.000000 0.000000 0.000000 0.734079
12 -9.984111 -4.710445 -2.998739 -0.207126 0.046881 -2.710477
13 5.945623 0.000000 0.000000 0.000000 0.000000 -0.747034
14 -13.167567 0.616876 1.590356 0.000000 0.000000 -0.000000
15 -1.915743 -0.010427 0.304297 -0.000000 0.000000 0.691150
16 -13.157713 0.632508 -1.795553 0.000000 0.000000 -0.000000
17 -2.207746 -0.183759 -0.037490 -0.000000 0.000000 0.691151
18 -2.622040 -6.273479 8.263164 -2.507065 -0.014978 -1.371654
19 11.485749 0.000000 0.000000 0.000000 0.000000 -1.760591
20 24.536903 0.000000 0.000000 0.000000 0.000000 2.033220
21 -2.622039 -6.273479 -8.136835 -0.436807 0.074979 -1.378374
22 11.659969 0.000000 0.000000 0.000000 0.000000 1.781655
23 25.724375 0.000000 0.000000 0.000000 0.000000 -2.006191
24 3.880158 -0.980432 0.090609 -0.000000 -0.000000 0.412613
25 13.389689 0.268266 -6.517195 0.542283 1.306249 -0.395924
26 9.913784 0.000000 0.000000 1.459045 0.461506 -1.664729
27 21.016008 0.000000 0.000000 0.000000 0.000000 -1.506348
28 28.471622 0.000000 0.000000 0.000000 0.000000 1.471610
29 13.389685 0.268266 6.023556 -0.462585 -1.348926 -0.488759
30 9.768896 0.000000 0.000000 -1.247903 -0.480864 -1.702962
31 19.931143 0.000000 0.000000 0.000000 0.000000 -1.381446
32 26.044123 0.000000 0.000000 0.000000 0.000000 1.371022
33 -5.849912 4.319726 0.063164 0.461553 0.000000 0.439300
34 -5.827132 4.411093 0.063164 -0.329881 0.005779 0.439298
time 39
1 -0.063165 -22.964394 29.250536 1.495041 -0.365086 1.659146
2 -5.577779 -0.123184 0.054231 0.000995 -0.070679 -0.212966
3 -5.512521 -2.697434 -3.989360 0.406067 -0.135627 -0.988913
4 10.569404 0.000000 0.000000 0.000000 0.000000 -2.438894
5 13.357942 0.000000 0.000000 0.000000 0.000000 2.881885
6 -5.435715 -2.622672 3.516682 2.747960 0.105399 -1.032856
7 10.523520 0.000000 0.000000 0.000000 0.000000 2.454558
8 13.611951 0.000000 0.000000 0.000000 0.000000 -2.922814
9 -8.416650 1.073514 -0.018171 0.143239 -0.009885 -0.341343
10 -9.984111 -4.710447 3.170796 0.239080 -3.136152 0.423456
11 5.945618 0.000000 0.000000 0.000000 0.000000 0.734081
12 -9.984111 -4.710445 -2.998739 -0.207126 0.046881 -2.710475
13 5.945623 0.000000 0.000000 0.000000 0.000000 -0.747036
14 -13.167567 0.616876 1.590356 0.000000 0.000000 0.000000
15 -1.915743 -0.010427 0.304297 -0.000000 -0.000000 0.691150
16 -13.157713 0.632508 -1.795553 0.000000 0.000000 0.000000
17 -2.207746 -0.183759 -0.037490 0.000000 -0.000000 0.691151
18 -2.622040 -6.273479 8.263164 -2.505921 -0.017055 -1.370081
19 11.485749 0.000000 0.000000 0.000000 0.000000 -1.756874
20 24.536903 0.000000 0.000000 0.000000 0.000000 2.025120
21 -2.622039 -6.273479 -8.136835 -0.437909 0.069507 -1.379385
22 11.659969 0.000000 0.000000 0.000000 0.000000 1.781062
23 25.724375 0.000000 0.000000 0.000000 0.000000 -2.004932
24 3.880158 -0.980432 0.090609 -0.000000 -0.000000 0.414660
25 13.389689 0.268266 -6.517195 0.542283 1.306249 -0.395924
26 9.913784 0.000000 0.000000 1.453206 0.453824 -1.670412
27 21.016008 0.000000 0.000000 0.000000 0.000000 -1.499231
28 28.471622 0.000000 0.000000 0.000000 0.000000 1.459877
29 13.389685 0.268266 6.023556 -0.462585 -1.348926 -0.488759
30 9.768896 0.000000 0.000000 -1.253148 -0.476029 -1.694955
31 19.931143 0.000000 0.000000 0.000000 0.000000 -1.377798
32 26.044123 0.000000 0.000000 0.000000 0.000000 1.364664
33 -5.849912 4.319726 0.063164 0.461553 0.000000 0.439300
34 -5.827132 4.411093 0.063164 -0.329881 0.005779 0.439298
time 40
1 -0.063165 -22.964394 29.250536 1.501355 -0.355025 1.649916
2 -5.577779 -0.123184 0.054231 0.000995 -0.070679 -0.212966
3 -5.512521 -2.697434 -3.989360 0.406067 -0.135627 -0.988914
4 10.569404 0.000000 0.000000 0.000000 0.000000 -2.438895
5 13.357942 0.000000 0.000000 0.000000 0.000000 2.881886
6 -5.435715 -2.622672 3.516682 2.747960 0.105399 -1.032856
7 10.523520 0.000000 0.000000 0.000000 0.000000 2.454558
8 13.611951 0.000000 0.000000 0.000000 0.000000 -2.922815
9 -8.416650 1.073514 -0.018171 0.143239 -0.009885 -0.341343
10 -9.984111 -4.710447 3.170796 0.239080 -3.136152 0.423453
11 5.945618 0.000000 0.000000 0.000000 0.000000 0.734078
12 -9.984111 -4.710445 -2.998739 -0.207126 0.046881 -2.710477
13 5.945623 0.000000 0.000000 0.000000 0.000000 -0.747033
14 -13.167567 0.616876 1.590356 0.000000 -0.000000 0.000000
15 -1.915743 -0.010427 0.304297 -0.000000 0.000000 0.691150
16 -13.157713 0.632508 -1.795553 -0.000000 0.000000 0.000000
17 -2.207746 -0.183759 -0.037490 0.000000 -0.000000 0.691150
18 -2.622040 -6.273479 8.263164 -2.515042 -0.018648 -1.357407
19 11.485749 0.000000 0.000000 0.000000 0.000000 -1.755209
20 24.536903 0.000000 0.000000 0.000000 0.000000 2.021493
21 -2.622039 -6.273479 -8.136835 -0.445276 0.067024 -1.370420
22 11.659969 0.000000 0.000000 0.000000 0.000000 1.780364
23 25.724375 0.000000 0.000000 0.000000 0.000000 -2.003448
24 3.880158 -0.980432 0.090609 -0.000000 0.000000 0.416987
25 13.389689 0.268266 -6.517195 0.542283 1.306249 -0.395924
26 9.913784 0.000000 0.000000 1.449364 0.445603 -1.676571
27 21.016008 0.000000 0.000000 0.000000 0.000000 -1.494718
28 28.471622 0.000000 0.000000 0.000000 0.000000 1.452459
29 13.389685 0.268266 6.023556 -0.462585 -1.348926 -0.488759
30 9.768896 0.000000 0.000000 -1.255750 -0.472512 -1.686289
31 19.931143 0.000000 0.000000 0.000000 0.000000 -1.381663
32 26.044123 0.000000 0.000000 0.000000 0.000000 1.371402
33 -5.849912 4.319726 0.063164 0.461552 0.000000 0.439300
34 -5.827132 4.411093 0.063164 -0.329881 0.005779 0.439298
time 41
1 -0.063165 -22.964394 29.250536 1.501355 -0.355025 1.649916
2 -5.577779 -0.123184 0.054231 0.000995 -0.070679 -0.212965
3 -5.512521 -2.697434 -3.989360 0.406067 -0.135627 -0.988915
4 10.569404 0.000000 0.000000 0.000000 0.000000 -2.438895
5 13.357942 0.000000 0.000000 0.000000 0.000000 2.881886
6 -5.435715 -2.622672 3.516682 2.747959 0.105399 -1.032858
7 10.523520 0.000000 0.000000 0.000000 0.000000 2.454558
8 13.611951 0.000000 0.000000 0.000000 0.000000 -2.922816
9 -8.416650 1.073514 -0.018171 0.143239 -0.009885 -0.341344
10 -9.984111 -4.710447 3.170796 0.239080 -3.136152 0.423453
11 5.945618 0.000000 0.000000 0.000000 0.000000 0.734078
12 -9.984111 -4.710445 -2.998739 -0.207126 0.046881 -2.710477
13 5.945623 0.000000 0.000000 0.000000 0.000000 -0.747033
14 -13.167567 0.616876 1.590356 0.000000 0.000000 0.000000
15 -1.915743 -0.010427 0.304297 -0.000000 0.000000 0.691150
16 -13.157713 0.632508 -1.795553 -0.000000 0.000000 0.000000
17 -2.207746 -0.183759 -0.037490 0.000000 -0.000000 0.691150
18 -2.622040 -6.273479 8.263164 -2.515042 -0.018647 -1.357409
19 11.485749 0.000000 0.000000 0.000000 0.000000 -1.755205
20 24.536903 0.000000 0.000000 0.000000 0.000000 2.021484
21 -2.622039 -6.273479 -8.136835 -0.445276 0.067024 -1.370422
22 11.659969 0.000000 0.000000 0.000000 0.000000 1.780361
23 25.724375 0.000000 0.000000 0.000000 0.000000 -2.003442
24 3.880158 -0.980432 0.090609 -0.000000 -0.000000 0.419608
25 13.389689 0.268266 -6.517195 0.542283 1.306249 -0.395924
26 9.913784 0.000000 0.000000 1.449521 0.447656 -1.677035
27 21.016008 0.000000 0.000000 0.000000 0.000000 -1.494885
28 28.471622 0.000000 0.000000 0.000000 0.000000 1.452734
29 13.389685 0.268266 6.023556 -0.462585 -1.348926 -0.488759
30 9.768896 0.000000 0.000000 -1.255725 -0.474611 -1.686740
31 19.931143 0.000000 0.000000 0.000000 0.000000 -1.381856
32 26.044123 0.000000 0.000000 0.000000 0.000000 1.371738
33 -5.849912 4.319726 0.063164 0.461552 0.000000 0.439300
34 -5.827132 4.411093 0.063164 -0.329881 0.005779 0.439298
time 42
1 -0.063165 -22.964394 29.250536 1.501355 -0.355025 1.649916
2 -5.577779 -0.123184 0.054231 0.000995 -0.070679 -0.212965
3 -5.512521 -2.697434 -3.989360 0.406067 -0.135627 -0.988916
4 10.569404 0.000000 0.000000 0.000000 0.000000 -2.438895
5 13.357942 0.000000 0.000000 0.000000 0.000000 2.881886
6 -5.435715 -2.622672 3.516682 2.747959 0.105399 -1.032858
7 10.523520 0.000000 0.000000 0.000000 0.000000 2.454558
8 13.611951 0.000000 0.000000 0.000000 0.000000 -2.922816
9 -8.416650 1.073514 -0.018171 0.143239 -0.009885 -0.341343
10 -9.984111 -4.710447 3.170796 0.239080 -3.136152 0.423452
11 5.945618 0.000000 0.000000 0.000000 0.000000 0.734077
12 -9.984111 -4.710445 -2.998739 -0.207126 0.046881 -2.710479
13 5.945623 0.000000 0.000000 0.000000 0.000000 -0.747032
14 -13.167567 0.616876 1.590356 0.000000 -0.000000 -0.000000
15 -1.915743 -0.010427 0.304297 -0.000000 0.000000 0.691150
16 -13.157713 0.632508 -1.795553 -0.000000 -0.000000 -0.000000
17 -2.207746 -0.183759 -0.037490 0.000000 -0.000000 0.691150
18 -2.622040 -6.273479 8.263164 -2.515042 -0.018646 -1.357409
19 11.485749 0.000000 0.000000 0.000000 0.000000 -1.755204
20 24.536903 0.000000 0.000000 0.000000 0.000000 2.021481
21 -2.622039 -6.273479 -8.136835 -0.445276 0.067023 -1.370422
22 11.659969 0.000000 0.000000 0.000000 0.000000 1.780360
23 25.724375 0.000000 0.000000 0.000000 0.000000 -2.003441
24 3.880158 -0.980432 0.090609 -0.000000 0.000000 0.422535
25 13.389689 0.268266 -6.517195 0.542283 1.306249 -0.395924
26 9.913784 0.000000 0.000000 1.449694 0.449956 -1.677555
27 21.016008 0.000000 0.000000 0.000000 0.000000 -1.495123
28 28.471622 0.000000 0.000000 0.000000 0.000000 1.453125
29 13.389685 0.268266 6.023556 -0.462585 -1.348926 -0.488759
30 9.768896 0.000000 0.000000 -1.255697 -0.476953 -1.687245
31 19.931143 0.000000 0.000000 0.000000 0.000000 -1.382069
32 26.044123 0.000000 0.000000 0.000000 0.000000 1.372111
33 -5.849912 4.319726 0.063164 0.461552 0.000000 0.439300
34 -5.827132 4.411093 0.063164 -0.329881 0.005779 0.439299
time 43
1 -0.063165 -22.964394 29.250536 1.501355 -0.355025 1.649916
2 -5.577779 -0.123184 0.054231 0.000995 -0.070679 -0.212965
3 -5.512521 -2.697434 -3.989360 0.406067 -0.135627 -0.988915
4 10.569404 0.000000 0.000000 0.000000 0.000000 -2.438895
5 13.357942 0.000000 0.000000 0.000000 0.000000 2.881886
6 -5.435715 -2.622672 3.516682 2.747959 0.105399 -1.032857
7 10.523520 0.000000 0.000000 0.000000 0.000000 2.454558
8 13.611951 0.000000 0.000000 0.000000 0.000000 -2.922815
9 -8.416650 1.073514 -0.018171 0.143239 -0.009885 -0.341343
10 -9.984111 -4.710447 3.170796 0.239080 -3.136152 0.423452
11 5.945618 0.000000 0.000000 0.000000 0.000000 0.734077
12 -9.984111 -4.710445 -2.998739 -0.207126 0.046881 -2.710478
13 5.945623 0.000000 0.000000 0.000000 0.000000 -0.747032
14 -13.167567 0.616876 1.590356 0.000000 -0.000000 -0.000000
15 -1.915743 -0.010427 0.304297 -0.000000 0.000000 0.691150
16 -13.157713 0.632508 -1.795553 -0.000000 -0.000000 0.000000
17 -2.207746 -0.183759 -0.037490 0.000000 -0.000000 0.691150
18 -2.622040 -6.273479 8.263164 -2.515042 -0.018646 -1.357410
19 11.485749 0.000000 0.000000 0.000000 0.000000 -1.755203
20 24.536903 0.000000 0.000000 0.000000 0.000000 2.021481
21 -2.622039 -6.273479 -8.136835 -0.445276 0.067023 -1.370422
22 11.659969 0.000000 0.000000 0.000000 0.000000 1.780360
23 25.724375 0.000000 0.000000 0.000000 0.000000 -2.003441
24 3.880158 -0.980432 0.090609 -0.000000 0.000000 0.425778
25 13.389689 0.268266 -6.517195 0.542283 1.306249 -0.395924
26 9.913784 0.000000 0.000000 1.449886 0.452505 -1.678131
27 21.016008 0.000000 0.000000 0.000000 0.000000 -1.495387
28 28.471622 0.000000 0.000000 0.000000 0.000000 1.453558
29 13.389685 0.268266 6.023556 -0.462585 -1.348926 -0.488759
30 9.768896 0.000000 0.000000 -1.255663 -0.479550 -1.687806
31 19.931143 0.000000 0.000000 0.000000 0.000000 -1.382306
32 26.044123 0.000000 0.000000 0.000000 0.000000 1.372525
33 -5.849912 4.319726 0.063164 0.461552 0.000000 0.439300
34 -5.827132 4.411093 0.063164 -0.329882 0.005779 0.439301
time 44
1 -0.063165 -22.964394 29.250536 1.501355 -0.355025 1.649916
2 -5.577779 -0.123184 0.054231 0.000995 -0.070679 -0.212965
3 -5.512521 -2.697434 -3.989360 0.406067 -0.135627 -0.988915
4 10.569404 0.000000 0.000000 0.000000 0.000000 -2.438895
5 13.357942 0.000000 0.000000 0.000000 0.000000 2.881886
6 -5.435715 -2.622672 3.516682 2.747959 0.105399 -1.032858
7 10.523520 0.000000 0.000000 0.000000 0.000000 2.454558
8 13.611951 0.000000 0.000000 0.000000 0.000000 -2.922815
9 -8.416650 1.073514 -0.018171 0.143239 -0.009885 -0.341345
10 -9.984111 -4.710447 3.170796 0.239080 -3.136152 0.423455
11 5.945618 0.000000 0.000000 0.000000 0.000000 0.734079
12 -9.984111 -4.710445 -2.998739 -0.207126 0.046881 -2.710475
13 5.945623 0.000000 0.000000 0.000000 0.000000 -0.747034
14 -13.167567 0.616876 1.590356 -0.000000 0.000000 0.000001
15 -1.915743 -0.010427 0.304297 -0.000000 0.000000 0.691150
16 -13.157713 0.632508 -1.795553 -0.000000 0.000000 0.000001
17 -2.207746 -0.183759 -0.037490 0.000000 -0.000000 0.691149
18 -2.622040 -6.273479 8.263164 -2.515042 -0.018646 -1.357410
19 11.485749 0.000000 0.000000 0.000000 0.000000 -1.755203
20 24.536903 0.000000 0.000000 0.000000 0.000000 2.021481
21 -2.622039 -6.273479 -8.136835 -0.445276 0.067023 -1.370422
22 11.659969 0.000000 0.000000 0.000000 0.000000 1.780360
23 25.724375 0.000000 0.000000 0.000000 0.000000 -2.003441
24 3.880158 -0.980432 0.090609 -0.000000 -0.000000 0.429350
25 13.389689 0.268266 -6.517195 0.542283 1.306249 -0.395924
26 9.913784 0.000000 0.000000 1.450095 0.455314 -1.678767
27 21.016008 0.000000 0.000000 0.000000 0.000000 -1.495688
28 28.471622 0.000000 0.000000 0.000000 0.000000 1.454051
29 13.389685 0.268266 6.023556 -0.462585 -1.348926 -0.488759
30 9.768896 0.000000 0.000000 -1.255625 -0.482410 -1.688425
31 19.931143 0.000000 0.000000 0.000000 0.000000 -1.382570
32 26.044123 0.000000 0.000000 0.000000 0.000000 1.372986
33 -5.849912 4.319726 0.063164 0.461552 0.000000 0.439300
34 -5.827132 4.411093 0.063164 -0.329881 0.005779 0.439298
end
