version 1
nodes
0 "Antlion.AntLionMesh" -1
1 "Antlion.Body_Bone" -1
2 "Antlion.Chest_Bone" 1
3 "Antlion.ArmR1_Bone" 2
4 "Antlion.ArmR2_Bone" 3
5 "Antlion.ArmR3_Bone" 4
6 "Antlion.ArmL1_Bone" 2
7 "Antlion.ArmL2_Bone" 6
8 "Antlion.ArmL3_Bone" 7
9 "Antlion.Head_Bone" 2
10 "Antlion.FangBottomL1_Bone" 9
11 "Antlion.FangBottomL2_Bone" 10
12 "Antlion.FangBottomR1_Bone" 9
13 "Antlion.FangBottomR2_Bone" 12
14 "Antlion.FangTopL1_Bone" 9
15 "Antlion.FangTopL2_Bone" 14
16 "Antlion.FangTopR1_Bone" 9
17 "Antlion.FangTopR2_Bone" 16
18 "Antlion.LegMidL1_Bone" 1
19 "Antlion.LegMidL2_Bone" 18
20 "Antlion.LegMidL3_Bone" 19
21 "Antlion.LegMidR1_Bone" 1
22 "Antlion.LegMidR2_Bone" 21
23 "Antlion.LegMidR3_Bone" 22
24 "Antlion.Back_Bone" 1
25 "Antlion.LegShoulder_R_Bone" 24
26 "Antlion.LegL1_Bone" 25
27 "Antlion.LegL2_Bone" 26
28 "Antlion.LegL3_Bone" 27
29 "Antlion.LegShoulder_L_Bone" 24
30 "Antlion.LegR1_Bone" 29
31 "Antlion.LegR2_Bone" 30
32 "Antlion.LegR3_Bone" 31
33 "Antlion.WingL_Bone" 1
34 "Antlion.WingR_Bone" 1
35 "Antlion.LegFrontR_IK_Control" -1
36 "Antlion.LegFrontL_IK_Control" -1
37 "Antlion.LegHindL_IK_Control" -1
38 "Antlion.LegHindR_IK_Control" -1
39 "Antlion.Body_Control_Parent" -1
40 "Antlion.Body_Bone_Control" 39
41 "Antlion.Body_Control_Buffer" 40
42 "Antlion.Chest_Control_Parent" 40
43 "Antlion.Chest_Control" 42
44 "Antlion.Chest_Control_Buffer" 43
45 "Antlion.Head_Control_Parent" 43
46 "Antlion.Head_Control" 45
47 "Antlion.Head_Control_Buffer" 46
48 "Antlion.FangBottomR_IK_Control" 46
49 "Antlion.FangBottomL_IK_Control" 46
50 "Antlion.ArmR_IK_Control" 43
51 "Antlion.ArmL_IK_Control" 43
52 "Antlion.UpVector_LegsFront_Parent" -1
53 "Antlion.UpVector_LegFrontL" 52
54 "Antlion.UpVector_LegFrontR" 52
55 "Antlion.UpVector_LegsHind_Parent" -1
56 "Antlion.UpVector_LegHindR" 55
57 "Antlion.UpVector_LegHindR1" 55
end
skeleton
time 0
0 -0.077740 -0.000000 0.000001 1.570796 0.000000 0.000000
1 0.062619 -31.775248 25.151169 1.584700 0.076607 1.695080
2 -5.577779 -0.123184 0.054231 0.019286 -0.004261 0.196458
3 -5.512521 -2.697434 -3.989360 0.363347 0.009739 -0.866453
4 10.569404 0.000000 0.000000 0.000000 0.000000 -2.472042
5 13.357942 0.000000 0.000000 0.000000 0.000000 3.039912
6 -5.435715 -2.622672 3.516682 2.817252 0.025838 -0.650764
7 10.523520 0.000000 0.000000 0.000000 0.000000 2.451058
8 13.611951 0.000000 0.000000 0.000000 0.000000 -2.911770
9 -8.416650 1.073514 -0.018171 0.055985 -0.122854 -0.577271
10 -9.984111 -4.710447 3.170796 0.239080 -3.136150 0.423463
11 5.945618 0.000000 0.000000 0.000000 0.000000 0.734094
12 -9.984111 -4.710445 -2.998739 -0.207126 0.046882 -2.710469
13 5.945623 0.000000 0.000000 0.000000 0.000000 -0.747044
14 -13.167567 0.616876 1.590356 0.000000 0.000000 0.000001
15 -1.915743 -0.010427 0.304297 -0.000000 -0.000000 0.691150
16 -13.157713 0.632508 -1.795553 0.000000 0.000000 0.000001
17 -2.207746 -0.183759 -0.037490 -0.000000 0.000000 0.691151
18 -2.622040 -6.273479 8.263164 -2.768065 -0.087016 -0.444020
19 11.485749 0.000000 0.000000 0.000000 0.000000 -1.950595
20 24.536903 0.000000 0.000000 0.000000 0.000000 2.445132
21 -2.622039 -6.273479 -8.136835 -0.272822 -0.153411 -0.910596
22 11.659969 0.000000 0.000000 0.000000 0.000000 1.801891
23 25.724375 0.000000 0.000000 0.000000 0.000000 -2.048994
24 3.880158 -0.980432 0.090609 -0.012308 -0.097351 0.923632
25 13.389689 0.268266 -6.517195 0.542283 1.306249 -0.395924
26 9.913784 0.000000 0.000000 1.388864 1.054165 -1.955547
27 21.016008 0.000000 0.000000 0.000000 0.000000 0.000000
28 28.471622 0.000000 0.000000 0.000000 0.000000 0.000000
29 13.389685 0.268266 6.023556 -0.462585 -1.348926 -0.488759
30 9.768896 0.000000 0.000000 -1.687535 -0.901380 -1.674528
31 19.931143 0.000000 0.000000 0.000000 0.000000 -1.760245
32 26.044123 0.000000 0.000000 0.000000 0.000000 2.130261
33 -5.849912 4.319726 0.063164 0.469533 -0.012434 0.892928
34 -5.827132 4.411093 0.063164 -0.050407 -0.038014 0.880954
35 -22.049992 -108.733093 -0.163430 1.570796 0.000000 0.000000
36 27.198860 -68.773865 9.873449 1.570796 0.000000 0.000000
37 10.308908 -4.149539 10.721575 1.570796 0.000000 0.000000
38 -11.376868 -2.162308 -1.546600 1.570796 0.000000 0.000000
39 -0.063165 1.526461 24.721458 1.570796 0.251328 -1.570796
40 32.148609 8.698010 -0.125784 3.136381 -3.265477 -2.820100
41 0.000000 0.000000 0.000000 0.000000 3.141593 0.006981
42 5.578503 -0.084241 -0.054231 0.000000 0.000000 0.219911
43 0.000000 0.000000 0.000000 -0.019286 -0.004261 -0.409389
44 0.000000 0.000000 0.000000 0.000000 -3.141593 0.000000
45 8.416650 1.073514 0.018171 0.000000 0.000000 -0.172788
46 0.000000 0.000000 0.000000 -0.055985 -0.122854 0.750059
47 0.000000 0.000000 0.000000 0.000000 3.141593 0.000000
48 20.519207 -5.595302 2.708077 -0.102102 1.570796 0.102102
49 20.519201 -5.595301 -2.366483 -0.102102 1.570796 0.102102
50 -8.155186 -14.449968 3.096135 -0.015708 1.570796 0.015708
51 -10.408078 -13.629554 -2.735800 -0.015708 1.570796 0.015708
52 0.805320 -37.296669 25.454485 1.570796 0.000000 0.000000
53 25.467180 21.249512 3.970820 0.000000 0.000000 0.000000
54 -20.297680 -3.921751 30.982069 0.000000 0.000000 0.000000
55 0.062619 -31.775248 25.151169 1.570796 0.000000 0.000000
56 -16.395044 1.986935 -18.881271 0.000000 0.000000 0.000000
57 15.361738 10.685438 -9.907991 0.000000 0.000000 0.000000
time 1
1 0.062669 -43.605251 24.716888 1.621558 0.103317 1.671261
2 -5.577779 -0.123184 0.054231 -0.068304 0.051289 0.187940
3 -5.512521 -2.697434 -3.989360 0.368420 -0.000659 -0.917944
4 10.569404 0.000000 0.000000 0.000000 0.000000 -2.471672
5 13.357942 0.000000 0.000000 0.000000 0.000000 3.081277
6 -5.435715 -2.622672 3.516682 2.808929 0.002132 -0.799254
7 10.523520 0.000000 0.000000 0.000000 0.000000 2.475620
8 13.611951 0.000000 0.000000 0.000000 0.000000 -3.046492
9 -8.416650 1.073514 -0.018171 0.149339 -0.063704 -0.656705
10 -9.984111 -4.710447 3.170796 0.239080 -3.136150 0.423461
11 5.945618 0.000000 0.000000 0.000000 0.000000 0.734094
12 -9.984111 -4.710445 -2.998739 -0.207126 0.046882 -2.710471
13 5.945623 0.000000 0.000000 0.000000 0.000000 -0.747047
14 -13.167567 0.616876 1.590356 0.000000 0.000000 0.000001
15 -1.915743 -0.010427 0.304297 -0.000000 0.000000 0.691150
16 -13.157713 0.632508 -1.795553 0.000000 0.000000 0.000001
17 -2.207746 -0.183759 -0.037490 -0.000000 0.000000 0.691150
18 -2.622040 -6.273479 8.263164 -2.873116 -0.466511 -0.329392
19 11.485749 0.000000 0.000000 0.000000 0.000000 -2.207561
20 24.536903 0.000000 0.000000 0.000000 0.000000 3.156910
21 -2.622039 -6.273479 -8.136835 -0.469206 -0.309991 -0.806997
22 11.659969 0.000000 0.000000 0.000000 0.000000 1.560576
23 25.724375 0.000000 0.000000 0.000000 0.000000 -1.549579
24 3.880158 -0.980432 0.090609 0.031962 -0.091193 1.008544
25 13.389689 0.268266 -6.517195 0.542283 1.306249 -0.395924
26 9.913784 0.000000 0.000000 1.572346 0.624825 -1.952046
27 21.016008 0.000000 0.000000 0.000000 0.000000 -1.057420
28 28.471622 0.000000 0.000000 0.000000 0.000000 0.828199
29 13.389685 0.268266 6.023556 -0.462585 -1.348926 -0.488759
30 9.768896 0.000000 0.000000 -1.531923 -0.914128 -1.799807
31 19.931143 0.000000 0.000000 0.000000 0.000000 -1.362609
32 26.044123 0.000000 0.000000 0.000000 0.000000 1.338657
33 -5.849912 4.319726 0.063164 0.408990 -0.226052 0.832339
34 -5.827132 4.411093 0.063164 -0.067935 0.028857 0.884081
35 -22.191347 -108.823639 -0.175426 1.570796 0.000000 0.000000
36 28.566082 -101.283546 13.311171 1.570796 0.000000 0.000000
37 12.146887 -35.141262 7.259372 1.570796 0.000000 0.000000
38 -11.576246 -2.227254 -1.653593 1.570796 0.000000 0.000000
40 43.714954 11.219377 -0.125834 3.100528 -3.241235 -2.793438
43 0.000000 0.000000 0.000000 0.068304 0.051289 -0.400870
46 0.000000 0.000000 0.000000 -0.149339 -0.063704 0.829492
48 20.519205 -5.595275 2.708077 -0.102102 1.570796 0.102102
49 20.519203 -5.595278 -2.366480 -0.102102 1.570796 0.102102
50 -7.765030 -14.338509 2.636179 -0.015708 1.570796 0.015708
51 -9.223219 -13.346816 -2.431367 -0.015708 1.570796 0.015708
52 0.668082 -49.133411 25.167042 1.570796 0.000000 0.000000
53 26.712942 16.868599 16.269106 0.000000 0.000000 0.000000
54 -21.980999 7.400887 27.426920 0.000000 0.000000 0.000000
55 0.062669 -43.605251 24.716888 1.570796 0.000000 0.000000
56 -18.882620 -1.695293 -23.360788 0.000000 0.000000 0.000000
57 15.819402 9.763574 -9.845463 0.000000 0.000000 0.000000
time 2
1 0.062719 -55.435268 23.664120 1.634604 0.125078 1.622631
2 -5.577779 -0.123184 0.054231 -0.124565 0.082488 0.163514
3 -5.512521 -2.697434 -3.989360 0.368181 -0.007913 -0.920206
4 10.569404 0.000000 0.000000 0.000000 0.000000 -2.468784
5 13.357942 0.000000 0.000000 0.000000 0.000000 3.091373
6 -5.435715 -2.622672 3.516682 2.803150 -0.022821 -0.913467
7 10.523520 0.000000 0.000000 0.000000 0.000000 2.465823
8 13.611951 0.000000 0.000000 0.000000 0.000000 -3.128422
9 -8.416650 1.073514 -0.018171 0.125107 -0.087688 -0.616435
10 -9.984111 -4.710447 3.170796 0.239080 -3.136152 0.423453
11 5.945618 0.000000 0.000000 0.000000 0.000000 0.734079
12 -9.984111 -4.710445 -2.998739 -0.207126 0.046881 -2.710478
13 5.945623 0.000000 0.000000 0.000000 0.000000 -0.747034
14 -13.167567 0.616876 1.590356 0.000000 0.000000 -0.000000
15 -1.915743 -0.010427 0.304297 -0.000000 0.000000 0.691150
16 -13.157713 0.632508 -1.795553 -0.000000 0.000000 -0.000000
17 -2.207746 -0.183759 -0.037490 -0.000000 -0.000000 0.691150
18 -2.622040 -6.273479 8.263164 -2.538760 -0.250307 -1.204920
19 11.485749 0.000000 0.000000 0.000000 0.000000 -2.191092
20 24.536903 0.000000 0.000000 0.000000 0.000000 2.983364
21 -2.622039 -6.273479 -8.136835 -0.635040 -0.372059 -0.667599
22 11.659969 0.000000 0.000000 0.000000 0.000000 1.189750
23 25.724375 0.000000 0.000000 0.000000 0.000000 -0.894064
24 3.880158 -0.980432 0.090609 0.083954 -0.075413 1.060019
25 13.389689 0.268266 -6.517195 0.542283 1.306249 -0.395924
26 9.913784 0.000000 0.000000 1.631816 0.591077 -1.979594
27 21.016008 0.000000 0.000000 0.000000 0.000000 -1.470342
28 28.471622 0.000000 0.000000 0.000000 0.000000 1.412694
29 13.389685 0.268266 6.023556 -0.462585 -1.348926 -0.488759
30 9.768896 0.000000 0.000000 -1.375497 -1.211064 -1.953429
31 19.931143 0.000000 0.000000 0.000000 0.000000 -0.282510
32 26.044123 0.000000 0.000000 0.000000 0.000000 0.154366
33 -5.849912 4.319726 0.063164 0.299726 -0.048366 0.968081
34 -5.827132 4.411093 0.063164 -0.071813 0.243649 0.913512
35 -22.322321 -108.905655 -0.180316 1.570796 0.000000 0.000000
36 29.351591 -129.773071 13.341340 1.570796 0.000000 0.000000
37 10.280601 -55.661476 -1.639249 1.570796 0.000000 0.000000
38 -11.767056 -2.287289 -1.839685 1.570796 0.000000 0.000000
40 55.435123 13.141687 -0.125884 3.083900 -3.192620 -2.772000
43 0.000000 0.000000 0.000000 0.124565 0.082488 -0.376444
46 0.000000 0.000000 0.000000 -0.125107 -0.087688 0.789223
48 20.519234 -5.595262 2.708077 -0.102102 1.570796 0.102102
49 20.519236 -5.595267 -2.366484 -0.102102 1.570796 0.102102
50 -7.794315 -14.144948 2.443323 -0.015708 1.570796 0.015708
51 -8.398533 -13.275273 -2.337890 -0.015708 1.570796 0.015708
52 0.396474 -60.975391 24.234554 1.570796 0.000000 0.000000
53 25.115343 5.721507 26.099257 0.000000 0.000000 0.000000
54 -23.036480 13.680030 22.191221 0.000000 0.000000 0.000000
55 0.062719 -55.435268 23.664120 1.570796 0.000000 0.000000
56 -17.566896 -6.901340 -28.285175 0.000000 0.000000 0.000000
57 16.739773 7.847586 -10.065779 0.000000 0.000000 0.000000
time 3
1 0.062769 -67.265282 22.456915 1.634732 0.132641 1.589150
2 -5.577779 -0.123184 0.054231 -0.149013 0.089607 0.130302
3 -5.512521 -2.697434 -3.989360 0.358593 -0.008695 -0.868685
4 10.569404 0.000000 0.000000 0.000000 0.000000 -2.471820
5 13.357942 0.000000 0.000000 0.000000 0.000000 3.078971
6 -5.435715 -2.622672 3.516682 2.800692 -0.042861 -0.973487
7 10.523520 0.000000 0.000000 0.000000 0.000000 2.456019
8 13.611951 0.000000 0.000000 0.000000 0.000000 -3.159436
9 -8.416650 1.073514 -0.018171 0.041212 -0.141251 -0.509068
10 -9.984111 -4.710447 3.170796 0.239080 -3.136152 0.423455
11 5.945618 0.000000 0.000000 0.000000 0.000000 0.734083
12 -9.984111 -4.710445 -2.998739 -0.207126 0.046881 -2.710476
13 5.945623 0.000000 0.000000 0.000000 0.000000 -0.747037
14 -13.167567 0.616876 1.590356 0.000000 0.000000 -0.000000
15 -1.915743 -0.010427 0.304297 -0.000000 -0.000000 0.691150
16 -13.157713 0.632508 -1.795553 0.000000 0.000000 -0.000000
17 -2.207746 -0.183759 -0.037490 -0.000000 0.000000 0.691151
18 -2.622040 -6.273479 8.263164 -2.706257 -0.133773 -0.799199
19 11.485749 0.000000 0.000000 0.000000 0.000000 -2.108441
20 24.536903 0.000000 0.000000 0.000000 0.000000 2.781772
21 -2.622039 -6.273479 -8.136835 -0.724455 -0.375316 -0.506499
22 11.659969 0.000000 0.000000 0.000000 0.000000 1.029860
23 25.724375 0.000000 0.000000 0.000000 0.000000 -0.670298
24 3.880158 -0.980432 0.090609 0.102378 -0.068626 1.073163
25 13.389689 0.268266 -6.517195 0.542283 1.306249 -0.395924
26 9.913784 0.000000 0.000000 1.690124 0.605009 -1.974697
27 21.016008 0.000000 0.000000 0.000000 0.000000 -1.730329
28 28.471622 0.000000 0.000000 0.000000 0.000000 1.860746
29 13.389685 0.268266 6.023556 -0.462585 -1.348926 -0.488759
30 9.768896 0.000000 0.000000 -0.876434 -1.317354 -2.098771
31 19.931143 0.000000 0.000000 0.000000 0.000000 0.000000
32 26.044123 0.000000 0.000000 0.000000 0.000000 0.000000
33 -5.849912 4.319726 0.063164 0.265736 0.034315 1.016463
34 -5.827132 4.411093 0.063164 -0.063268 0.019061 1.009421
35 -22.447418 -108.922935 -0.183116 1.570796 0.000000 0.000000
36 26.724667 -147.790024 7.667698 1.570796 0.000000 0.000000
37 10.496691 -55.695835 -1.688393 1.570796 0.000000 0.000000
38 -10.515493 -9.515436 2.321687 1.570796 0.000000 0.000000
40 67.193695 14.914416 -0.125934 3.079959 -3.159356 -2.764571
43 0.000000 0.000000 0.000000 0.149013 0.089607 -0.343232
46 0.000000 0.000000 0.000000 -0.041212 -0.141251 0.681856
48 20.519224 -5.595268 2.708078 -0.102102 1.570796 0.102102
49 20.519226 -5.595271 -2.366480 -0.102102 1.570796 0.102102
50 -8.314041 -13.699942 2.545367 -0.015708 1.570796 0.015708
51 -7.934007 -13.416948 -2.452294 -0.015708 1.570796 0.015708
52 0.210786 -72.808998 23.069305 1.570796 0.000000 0.000000
53 21.870932 -4.084675 30.660414 0.000000 0.000000 0.000000
54 -24.218416 17.901449 15.675132 0.000000 0.000000 0.000000
55 0.062769 -67.265282 22.456915 1.570796 0.000000 0.000000
56 -15.986768 -6.212038 -30.011551 0.000000 0.000000 0.000000
57 17.443924 6.211884 -11.180790 0.000000 0.000000 0.000000
time 4
1 0.062819 -79.095299 21.694477 1.615384 0.111850 1.587837
2 -5.577779 -0.123184 0.054231 -0.115229 0.064730 0.111194
3 -5.512521 -2.697434 -3.989360 0.348136 -0.020154 -0.766216
4 10.569404 0.000000 0.000000 0.000000 0.000000 -2.469391
5 13.357942 0.000000 0.000000 0.000000 0.000000 3.008950
6 -5.435715 -2.622672 3.516682 2.799890 -0.057962 -0.946053
7 10.523520 0.000000 0.000000 0.000000 0.000000 2.468500
8 13.611951 0.000000 0.000000 0.000000 0.000000 -3.116157
9 -8.416650 1.073514 -0.018171 0.062812 -0.127907 -0.379484
10 -9.984111 -4.710447 3.170796 0.239080 -3.136152 0.423455
11 5.945618 0.000000 0.000000 0.000000 0.000000 0.734080
12 -9.984111 -4.710445 -2.998739 -0.207126 0.046881 -2.710477
13 5.945623 0.000000 0.000000 0.000000 0.000000 -0.747033
14 -13.167567 0.616876 1.590356 0.000000 0.000000 0.000000
15 -1.915743 -0.010427 0.304297 -0.000000 0.000000 0.691150
16 -13.157713 0.632508 -1.795553 0.000000 0.000000 0.000001
17 -2.207746 -0.183759 -0.037490 -0.000000 0.000000 0.691150
18 -2.622040 -6.273479 8.263164 -2.798951 -0.011660 -0.716724
19 11.485749 0.000000 0.000000 0.000000 0.000000 -1.932434
20 24.536903 0.000000 0.000000 0.000000 0.000000 2.406181
21 -2.622039 -6.273479 -8.136835 -0.673969 -0.391857 -0.468493
22 11.659969 0.000000 0.000000 0.000000 0.000000 1.337572
23 25.724375 0.000000 0.000000 0.000000 0.000000 -1.133845
24 3.880158 -0.980432 0.090609 0.099036 -0.056510 1.055697
25 13.389689 0.268266 -6.517195 0.542283 1.306249 -0.395924
26 9.913784 0.000000 0.000000 1.797401 0.640677 -1.901038
27 21.016008 0.000000 0.000000 0.000000 0.000000 -1.939560
28 28.471622 0.000000 0.000000 0.000000 0.000000 2.260226
29 13.389685 0.268266 6.023556 -0.462585 -1.348926 -0.488759
30 9.768896 0.000000 0.000000 -1.171545 -1.233088 -2.027305
31 19.931143 0.000000 0.000000 0.000000 0.000000 0.000000
32 26.044123 0.000000 0.000000 0.000000 0.000000 0.000000
33 -5.849912 4.319726 0.063164 0.265321 -0.018286 1.051224
34 -5.827132 4.411093 0.063164 -0.052872 -0.035043 1.064510
35 -22.573681 -108.934624 -0.190800 1.570796 0.000000 0.000000
36 24.831301 -157.600815 -0.293098 1.570796 0.000000 0.000000
37 10.310987 -55.601631 -1.649928 1.570796 0.000000 0.000000
38 -9.094766 -25.914846 8.223671 1.570796 0.000000 0.000000
40 78.841660 17.117937 -0.125984 3.098790 -3.158229 -2.785375
43 0.000000 0.000000 0.000000 0.115229 0.064730 -0.324124
46 0.000000 0.000000 0.000000 -0.062812 -0.127907 0.552272
48 20.519234 -5.595281 2.708080 -0.102102 1.570796 0.102102
49 20.519230 -5.595276 -2.366479 -0.102102 1.570796 0.102102
50 -9.145407 -13.583845 2.782197 -0.015708 1.570796 0.015708
51 -7.983954 -14.010143 -3.003128 -0.015708 1.570796 0.015708
52 0.206190 -84.650597 22.192360 1.570796 0.000000 0.000000
53 21.118389 -6.224194 30.087399 0.000000 0.000000 0.000000
54 -25.535406 20.409365 7.700085 0.000000 0.000000 0.000000
55 0.062819 -79.095299 21.694477 1.570796 0.000000 0.000000
56 -18.095049 0.956461 -26.551674 0.000000 0.000000 0.000000
57 16.840664 6.402412 -16.973232 0.000000 0.000000 0.000000
time 5
1 0.062869 -90.925308 21.646860 1.576325 0.069477 1.604139
2 -5.577779 -0.123184 0.054231 -0.029480 0.015245 0.113148
3 -5.512521 -2.697434 -3.989360 0.344513 -0.058510 -0.619577
4 10.569404 0.000000 0.000000 0.000000 0.000000 -2.414285
5 13.357942 0.000000 0.000000 0.000000 0.000000 2.819888
6 -5.435715 -2.622672 3.516682 2.793259 -0.063166 -0.840505
7 10.523520 0.000000 0.000000 0.000000 0.000000 2.471302
8 13.611951 0.000000 0.000000 0.000000 0.000000 -2.993946
9 -8.416650 1.073514 -0.018171 0.116712 -0.109659 -0.307248
10 -9.984111 -4.710447 3.170796 0.239080 -3.136151 0.423456
11 5.945618 0.000000 0.000000 0.000000 0.000000 0.734085
12 -9.984111 -4.710445 -2.998739 -0.207126 0.046882 -2.710474
13 5.945623 0.000000 0.000000 0.000000 0.000000 -0.747041
14 -13.167567 0.616876 1.590356 0.000000 0.000000 0.000000
15 -1.915743 -0.010427 0.304297 -0.000000 0.000000 0.691150
16 -13.157713 0.632508 -1.795553 -0.000000 0.000000 0.000001
17 -2.207746 -0.183759 -0.037490 -0.000000 -0.000000 0.691150
18 -2.622040 -6.273479 8.263164 -2.804975 0.069176 -0.752511
19 11.485749 0.000000 0.000000 0.000000 0.000000 -1.722208
20 24.536903 0.000000 0.000000 0.000000 0.000000 1.950178
21 -2.622039 -6.273479 -8.136835 -0.577760 -0.294853 -0.456470
22 11.659969 0.000000 0.000000 0.000000 0.000000 1.768517
23 25.724375 0.000000 0.000000 0.000000 0.000000 -1.978289
24 3.880158 -0.980432 0.090609 0.056705 -0.029936 0.997084
25 13.389689 0.268266 -6.517195 0.542283 1.306249 -0.395924
26 9.913784 0.000000 0.000000 1.745349 0.749847 -1.821770
27 21.016008 0.000000 0.000000 0.000000 0.000000 -2.060708
28 28.471622 0.000000 0.000000 0.000000 0.000000 2.514245
29 13.389685 0.268266 6.023556 -0.462585 -1.348926 -0.488759
30 9.768896 0.000000 0.000000 -1.516421 -0.809886 -1.905280
31 19.931143 0.000000 0.000000 0.000000 0.000000 -0.844191
32 26.044123 0.000000 0.000000 0.000000 0.000000 0.616979
33 -5.849912 4.319726 0.063164 0.296624 -0.235706 1.009064
34 -5.827132 4.411093 0.063164 -0.042686 0.032277 1.073734
35 -21.118647 -115.837654 2.559654 1.570796 0.000000 0.000000
36 24.830200 -157.334122 -0.227458 1.570796 0.000000 0.000000
37 10.074934 -55.555820 -1.585406 1.570796 0.000000 0.000000
38 -8.516727 -53.310768 10.062273 1.570796 0.000000 0.000000
40 90.311852 20.013821 -0.126034 3.138148 -3.174832 -2.827735
43 0.000000 0.000000 0.000000 0.029480 0.015245 -0.326079
46 0.000000 0.000000 0.000000 -0.116712 -0.109659 0.480036
48 20.519217 -5.595268 2.708078 -0.102102 1.570796 0.102102
49 20.519222 -5.595268 -2.366480 -0.102102 1.570796 0.102102
50 -10.330003 -14.689186 3.028371 -0.015708 1.570796 0.015708
51 -8.497169 -14.976706 -3.908551 -0.015708 1.570796 0.015708
52 0.302170 -96.493317 21.910894 1.570796 0.000000 0.000000
53 24.190794 5.828229 24.348286 0.000000 0.000000 0.000000
54 -23.676046 22.427547 0.284787 0.000000 0.000000 0.000000
55 0.062869 -90.925308 21.646860 1.570796 0.000000 0.000000
56 -20.032509 7.323593 -15.762627 0.000000 0.000000 0.000000
57 16.098969 4.792936 -23.188034 0.000000 0.000000 0.000000
time 6
1 0.062919 -102.755318 22.284401 1.537935 0.027676 1.630661
2 -5.577779 -0.123184 0.054231 0.059903 -0.036116 0.122283
3 -5.512521 -2.697434 -3.989360 0.343871 -0.080248 -0.537912
4 10.569404 0.000000 0.000000 0.000000 0.000000 -2.339769
5 13.357942 0.000000 0.000000 0.000000 0.000000 2.665422
6 -5.435715 -2.622672 3.516682 2.783318 -0.062838 -0.740325
7 10.523520 0.000000 0.000000 0.000000 0.000000 2.434113
8 13.611951 0.000000 0.000000 0.000000 0.000000 -2.863482
9 -8.416650 1.073514 -0.018171 0.004716 -0.138295 -0.230417
10 -9.984111 -4.710447 3.170796 0.239080 -3.136151 0.423457
11 5.945618 0.000000 0.000000 0.000000 0.000000 0.734087
12 -9.984111 -4.710445 -2.998739 -0.207126 0.046881 -2.710478
13 5.945623 0.000000 0.000000 0.000000 0.000000 -0.747033
14 -13.167567 0.616876 1.590356 0.000000 0.000000 0.000000
15 -1.915743 -0.010427 0.304297 0.000000 -0.000000 0.691150
16 -13.157713 0.632508 -1.795553 0.000000 0.000000 0.000001
17 -2.207746 -0.183759 -0.037490 -0.000000 -0.000000 0.691150
18 -2.622040 -6.273479 8.263164 -2.785217 0.121877 -0.810516
19 11.485749 0.000000 0.000000 0.000000 0.000000 -1.447451
20 24.536903 0.000000 0.000000 0.000000 0.000000 1.385111
21 -2.622039 -6.273479 -8.136835 -0.520677 -0.098830 -0.418593
22 11.659969 0.000000 0.000000 0.000000 0.000000 2.023948
23 25.724375 0.000000 0.000000 0.000000 0.000000 -2.514612
24 3.880158 -0.980432 0.090609 -0.012436 -0.007233 0.913428
25 13.389689 0.268266 -6.517195 0.542283 1.306249 -0.395924
26 9.913784 0.000000 0.000000 1.636945 0.865976 -1.838091
27 21.016008 0.000000 0.000000 0.000000 0.000000 -1.923833
28 28.471622 0.000000 0.000000 0.000000 0.000000 2.229149
29 13.389685 0.268266 6.023556 -0.462585 -1.348926 -0.488759
30 9.768896 0.000000 0.000000 -1.611549 -0.672081 -1.890466
31 19.931143 0.000000 0.000000 0.000000 0.000000 -1.312684
32 26.044123 0.000000 0.000000 0.000000 0.000000 1.255291
33 -5.849912 4.319726 0.063164 0.324532 -0.055423 1.010975
34 -5.827132 4.411093 0.063164 -0.035070 0.239594 1.043856
35 -22.681211 -140.611115 9.767900 1.570796 0.000000 0.000000
36 24.867853 -157.324631 -0.232029 1.570796 0.000000 0.000000
37 9.825118 -55.531780 -1.514076 1.570796 0.000000 0.000000
38 -10.755909 -77.777954 10.455707 1.570796 0.000000 0.000000
40 101.611649 23.573336 -0.126084 3.175693 -3.201674 -2.869529
43 0.000000 0.000000 0.000000 -0.059903 -0.036116 -0.335213
46 0.000000 0.000000 0.000000 -0.004716 -0.138295 0.403204
48 20.519234 -5.595265 2.708079 -0.102102 1.570796 0.102102
49 20.519218 -5.595265 -2.366480 -0.102102 1.570796 0.102102
50 -11.287865 -15.881234 3.261017 -0.015708 1.570796 0.015708
51 -9.163974 -15.832864 -4.719704 -0.015708 1.570796 0.015708
52 0.454848 -108.320839 22.317465 1.570796 0.000000 0.000000
53 24.565948 11.772269 18.410645 0.000000 0.000000 0.000000
54 -25.599293 23.399929 3.735313 0.000000 0.000000 0.000000
55 0.062919 -102.755318 22.284401 1.570796 0.000000 0.000000
56 -18.727949 8.882498 -3.663239 0.000000 0.000000 0.000000
57 14.772592 0.823719 -28.798187 0.000000 0.000000 0.000000
time 7
1 0.062968 -114.585335 23.577438 1.520597 0.008596 1.660007
2 -5.577779 -0.123184 0.054231 0.105914 -0.064477 0.139261
3 -5.512521 -2.697434 -3.989360 0.345767 -0.082226 -0.529218
4 10.569404 0.000000 0.000000 0.000000 0.000000 -2.321167
5 13.357942 0.000000 0.000000 0.000000 0.000000 2.631236
6 -5.435715 -2.622672 3.516682 2.780595 -0.056929 -0.687145
7 10.523520 0.000000 0.000000 0.000000 0.000000 2.407432
8 13.611951 0.000000 0.000000 0.000000 0.000000 -2.800097
9 -8.416650 1.073514 -0.018171 0.005706 -0.131516 -0.209325
10 -9.984111 -4.710447 3.170796 0.239080 -3.136151 0.423456
11 5.945618 0.000000 0.000000 0.000000 0.000000 0.734084
12 -9.984111 -4.710445 -2.998739 -0.207126 0.046882 -2.710472
13 5.945623 0.000000 0.000000 0.000000 0.000000 -0.747044
14 -13.167567 0.616876 1.590356 0.000000 0.000000 0.000000
15 -1.915743 -0.010427 0.304297 -0.000000 0.000000 0.691150
16 -13.157713 0.632508 -1.795553 0.000000 0.000001 0.000001
17 -2.207746 -0.183759 -0.037490 -0.000000 -0.000000 0.691150
18 -2.622040 -6.273479 8.263164 -2.741811 0.111388 -0.746687
19 11.485749 0.000000 0.000000 0.000000 0.000000 -0.861211
20 24.536903 0.000000 0.000000 0.000000 0.000000 0.495898
21 -2.622039 -6.273479 -8.136835 -0.528457 0.147373 -0.545107
22 11.659969 0.000000 0.000000 0.000000 0.000000 2.194589
23 25.724375 0.000000 0.000000 0.000000 0.000000 -2.855808
24 3.880158 -0.980432 0.090609 -0.058656 -0.006318 0.859930
25 13.389689 0.268266 -6.517195 0.542283 1.306249 -0.395924
26 9.913784 0.000000 0.000000 1.543075 0.834171 -1.839380
27 21.016008 0.000000 0.000000 0.000000 0.000000 -1.450854
28 28.471622 0.000000 0.000000 0.000000 0.000000 1.381317
29 13.389685 0.268266 6.023556 -0.462585 -1.348926 -0.488759
30 9.768896 0.000000 0.000000 -1.688151 -0.624572 -1.849547
31 19.931143 0.000000 0.000000 0.000000 0.000000 -1.561734
32 26.044123 0.000000 0.000000 0.000000 0.000000 1.705483
33 -5.849912 4.319726 0.063164 0.346482 0.023390 1.062806
34 -5.827132 4.411093 0.063164 -0.029393 0.031835 0.998625
35 -25.621208 -175.116455 15.295412 1.570796 0.000000 0.000000
36 24.890368 -157.313889 -0.234721 1.570796 0.000000 0.000000
37 9.567498 -55.517361 -1.439245 1.570796 0.000000 0.000000
38 -12.681291 -99.930611 7.315329 1.570796 0.000000 0.000000
40 112.748436 27.767757 -0.126133 3.191936 -3.231153 -2.888635
43 0.000000 0.000000 0.000000 -0.105914 -0.064477 -0.352192
46 0.000000 0.000000 0.000000 -0.005706 -0.131516 0.382113
48 20.519211 -5.595274 2.708076 -0.102102 1.570796 0.102102
49 20.519224 -5.595274 -2.366482 -0.102102 1.570796 0.102102
50 -11.428285 -16.272406 3.363523 -0.015708 1.570796 0.015708
51 -9.673983 -16.101223 -4.985446 -0.015708 1.570796 0.015708
52 0.620080 -120.136383 23.505083 1.570796 0.000000 0.000000
53 24.408695 14.872416 12.217042 0.000000 0.000000 0.000000
54 -26.267790 18.946997 17.881075 0.000000 0.000000 0.000000
55 0.062968 -114.585335 23.577438 1.570796 0.000000 0.000000
56 -13.728292 7.320143 4.965706 0.000000 0.000000 0.000000
57 12.106203 -7.897483 -33.164024 0.000000 0.000000 0.000000
time 8
1 0.063018 -126.415344 24.765100 1.528212 0.021166 1.681817
2 -5.577779 -0.123184 0.054231 0.101990 -0.063466 0.163869
3 -5.512521 -2.697434 -3.989360 0.349840 -0.074185 -0.563440
4 10.569404 0.000000 0.000000 0.000000 0.000000 -2.344274
5 13.357942 0.000000 0.000000 0.000000 0.000000 2.674056
6 -5.435715 -2.622672 3.516682 2.787930 -0.041444 -0.666795
7 10.523520 0.000000 0.000000 0.000000 0.000000 2.410146
8 13.611951 0.000000 0.000000 0.000000 0.000000 -2.806200
9 -8.416650 1.073514 -0.018171 0.103185 -0.102700 -0.248024
10 -9.984111 -4.710447 3.170796 0.239080 -3.136151 0.423455
11 5.945618 0.000000 0.000000 0.000000 0.000000 0.734084
12 -9.984111 -4.710445 -2.998739 -0.207126 0.046881 -2.710478
13 5.945623 0.000000 0.000000 0.000000 0.000000 -0.747033
14 -13.167567 0.616876 1.590356 0.000000 0.000000 -0.000000
15 -1.915743 -0.010427 0.304297 -0.000000 0.000000 0.691150
16 -13.157713 0.632508 -1.795553 0.000000 0.000000 0.000000
17 -2.207746 -0.183759 -0.037490 -0.000000 0.000000 0.691151
18 -2.622040 -6.273479 8.263164 -2.762115 0.095564 -0.607080
19 11.485749 0.000000 0.000000 0.000000 0.000000 -0.907184
20 24.536903 0.000000 0.000000 0.000000 0.000000 0.546871
21 -2.622039 -6.273479 -8.136835 -0.654365 0.077426 -1.190544
22 11.659969 0.000000 0.000000 0.000000 0.000000 2.170018
23 25.724375 0.000000 0.000000 0.000000 0.000000 -2.806360
24 3.880158 -0.980432 0.090609 -0.064474 -0.023098 0.853398
25 13.389689 0.268266 -6.517195 0.542283 1.306249 -0.395924
26 9.913784 0.000000 0.000000 1.418608 1.159955 -1.837321
27 21.016008 0.000000 0.000000 0.000000 0.000000 -0.208879
28 28.471622 0.000000 0.000000 0.000000 0.000000 0.109442
29 13.389685 0.268266 6.023556 -0.462585 -1.348926 -0.488759
30 9.768896 0.000000 0.000000 -1.814235 -0.625061 -1.780876
31 19.931143 0.000000 0.000000 0.000000 0.000000 -1.743547
32 26.044123 0.000000 0.000000 0.000000 0.000000 2.091932
33 -5.849912 4.319726 0.063164 0.383593 -0.254602 0.949180
34 -5.827132 4.411093 0.063164 -0.030920 0.002768 0.942793
35 -27.171082 -205.243164 15.747398 1.570796 0.000000 0.000000
36 24.881243 -157.305847 -0.237784 1.570796 0.000000 0.000000
37 8.136158 -65.564919 8.694986 1.570796 0.000000 0.000000
38 -11.151844 -120.577698 -1.487335 1.570796 0.000000 0.000000
40 123.911423 31.860109 -0.126183 3.185757 -3.252899 -2.875986
43 0.000000 0.000000 0.000000 -0.101990 -0.063466 -0.376800
46 0.000000 0.000000 0.000000 -0.103185 -0.102700 0.420812
48 20.519234 -5.595267 2.708076 -0.102102 1.570796 0.102102
49 20.519224 -5.595266 -2.366482 -0.102102 1.570796 0.102102
50 -10.953258 -16.165493 3.368403 -0.015708 1.570796 0.015708
51 -9.974399 -15.703970 -4.630963 -0.015708 1.570796 0.015708
52 0.740200 -131.953491 24.762415 1.570796 0.000000 0.000000
53 25.431217 15.774137 4.145363 0.000000 0.000000 0.000000
54 -23.930258 5.845848 29.963844 0.000000 0.000000 0.000000
55 0.063018 -126.415344 24.765100 1.570796 0.000000 0.000000
56 -17.436518 3.745169 -3.966042 0.000000 0.000000 0.000000
57 11.422425 -2.305611 -33.098473 0.000000 0.000000 0.000000
time 9
1 0.063068 -138.245377 25.232866 1.550086 0.049074 1.692560
2 -5.577779 -0.123184 0.054231 0.072799 -0.043845 0.185834
3 -5.512521 -2.697434 -3.989360 0.356418 -0.050652 -0.655706
4 10.569404 0.000000 0.000000 0.000000 0.000000 -2.406293
5 13.357942 0.000000 0.000000 0.000000 0.000000 2.801729
6 -5.435715 -2.622672 3.516682 2.801080 -0.015275 -0.655546
7 10.523520 0.000000 0.000000 0.000000 0.000000 2.427042
8 13.611951 0.000000 0.000000 0.000000 0.000000 -2.845509
9 -8.416650 1.073514 -0.018171 0.103004 -0.091914 -0.410459
10 -9.984111 -4.710447 3.170796 0.239080 -3.136152 0.423450
11 5.945618 0.000000 0.000000 0.000000 0.000000 0.734071
12 -9.984111 -4.710445 -2.998739 -0.207127 0.046879 -2.710481
13 5.945623 0.000000 0.000000 0.000000 0.000000 -0.747024
14 -13.167567 0.616876 1.590356 0.000000 0.000000 0.000000
15 -1.915743 -0.010427 0.304297 -0.000000 0.000000 0.691150
16 -13.157713 0.632508 -1.795553 -0.000000 0.000000 0.000000
17 -2.207746 -0.183759 -0.037490 -0.000000 -0.000000 0.691150
18 -2.622040 -6.273479 8.263164 -2.813959 0.108332 -0.599169
19 11.485749 0.000000 0.000000 0.000000 0.000000 -1.352794
20 24.536903 0.000000 0.000000 0.000000 0.000000 1.207907
21 -2.622039 -6.273479 -8.136835 -0.381850 -0.071375 -1.000166
22 11.659969 0.000000 0.000000 0.000000 0.000000 2.005275
23 25.724375 0.000000 0.000000 0.000000 0.000000 -2.476334
24 3.880158 -0.980432 0.090609 -0.048300 -0.052854 0.874962
25 13.389689 0.268266 -6.517195 0.542283 1.306249 -0.395924
26 9.913784 0.000000 0.000000 1.354751 1.154040 -1.900525
27 21.016008 0.000000 0.000000 0.000000 0.000000 0.000000
28 28.471622 0.000000 0.000000 0.000000 0.000000 0.000000
29 13.389685 0.268266 6.023556 -0.462585 -1.348926 -0.488759
30 9.768896 0.000000 0.000000 -1.870354 -0.759420 -1.674625
31 19.931143 0.000000 0.000000 0.000000 0.000000 -1.870769
32 26.044123 0.000000 0.000000 0.000000 0.000000 2.404480
33 -5.849912 4.319726 0.063164 0.427781 -0.079886 0.933378
34 -5.827132 4.411093 0.063164 -0.038708 0.202527 0.894407
35 -24.543571 -216.875687 7.774636 1.570796 0.000000 0.000000
36 24.589697 -162.827911 3.729204 1.570796 0.000000 0.000000
37 6.117473 -85.231972 11.643207 1.570796 0.000000 0.000000
38 -11.204085 -120.710556 -1.494538 1.570796 0.000000 0.000000
40 135.253464 35.255188 -0.126233 3.167452 -3.263393 -2.847857
43 0.000000 0.000000 0.000000 -0.072799 -0.043845 -0.398765
46 0.000000 0.000000 0.000000 -0.103004 -0.091914 0.583246
48 20.519251 -5.595282 2.708072 -0.102102 1.570796 0.102102
49 20.519249 -5.595280 -2.366486 -0.102102 1.570796 0.102102
50 -9.862448 -15.558107 3.279432 -0.015708 1.570796 0.015708
51 -10.219363 -14.879915 -3.881811 -0.015708 1.570796 0.015708
52 0.796824 -143.774246 25.384594 1.570796 0.000000 0.000000
53 23.593927 17.661774 -4.780510 0.000000 0.000000 0.000000
54 -22.140482 1.075870 31.215645 0.000000 0.000000 0.000000
55 0.063068 -138.245377 25.232866 1.570796 0.000000 0.000000
56 -17.163982 2.795177 -11.141060 0.000000 0.000000 0.000000
57 12.108454 5.409044 -29.070808 0.000000 0.000000 0.000000
end
