version 1
nodes
0 "Antlion.AntLionMesh" -1
1 "Antlion.Body_Bone" -1
2 "Antlion.Chest_Bone" 1
3 "Antlion.ArmR1_Bone" 2
4 "Antlion.ArmR2_Bone" 3
5 "Antlion.ArmR3_Bone" 4
6 "Antlion.ArmL1_Bone" 2
7 "Antlion.ArmL2_Bone" 6
8 "Antlion.ArmL3_Bone" 7
9 "Antlion.Head_Bone" 2
10 "Antlion.FangBottomL1_Bone" 9
11 "Antlion.FangBottomL2_Bone" 10
12 "Antlion.FangBottomR1_Bone" 9
13 "Antlion.FangBottomR2_Bone" 12
14 "Antlion.FangTopL1_Bone" 9
15 "Antlion.FangTopL2_Bone" 14
16 "Antlion.FangTopR1_Bone" 9
17 "Antlion.FangTopR2_Bone" 16
18 "Antlion.LegMidL1_Bone" 1
19 "Antlion.LegMidL2_Bone" 18
20 "Antlion.LegMidL3_Bone" 19
21 "Antlion.LegMidR1_Bone" 1
22 "Antlion.LegMidR2_Bone" 21
23 "Antlion.LegMidR3_Bone" 22
24 "Antlion.Back_Bone" 1
25 "Antlion.LegShoulder_R_Bone" 24
26 "Antlion.LegL1_Bone" 25
27 "Antlion.LegL2_Bone" 26
28 "Antlion.LegL3_Bone" 27
29 "Antlion.LegShoulder_L_Bone" 24
30 "Antlion.LegR1_Bone" 29
31 "Antlion.LegR2_Bone" 30
32 "Antlion.LegR3_Bone" 31
33 "Antlion.WingL_Bone" 1
34 "Antlion.WingR_Bone" 1
end
skeleton
time 0
0 -0.077740 -0.000000 0.000001 1.570796 0.000000 0.000000
1 -0.063165 1.526461 24.601475 1.570796 -0.244346 1.570796
2 -5.577779 -0.123184 0.054231 0.000000 0.000000 -0.212930
3 -5.512521 -2.697434 -3.989360 0.406065 -0.135633 -0.988899
4 10.569404 0.000000 0.000000 0.000000 0.000000 -2.438890
5 13.357942 0.000000 0.000000 0.000000 0.000000 2.881874
6 -5.435715 -2.622672 3.516682 2.747960 0.105401 -1.032854
7 10.523520 0.000000 0.000000 0.000000 0.000000 2.454559
8 13.611951 0.000000 0.000000 0.000000 0.000000 -2.922818
9 -8.416650 1.073514 -0.018171 -0.000000 -0.000000 0.172787
10 -9.984111 -4.710447 3.170796 0.239078 -3.136047 0.423882
11 5.945618 0.000000 0.000000 0.000000 0.000000 0.735011
12 -9.984111 -4.710445 -2.998739 -0.207111 0.046955 -2.710083
13 5.945623 0.000000 0.000000 0.000000 0.000000 -0.747882
14 -13.167567 0.616876 1.590356 -0.000000 0.000000 0.000000
15 -1.915743 -0.010427 0.304297 -0.000000 -0.000000 0.691150
16 -13.157713 0.632508 -1.795553 -0.000000 0.000000 0.000000
17 -2.207746 -0.183759 -0.037490 -0.000000 -0.000000 0.691151
18 -2.622040 -6.273479 8.263164 -2.468645 -0.217126 -1.123865
19 11.485749 0.000000 0.000000 0.000000 0.000000 -1.772905
20 24.536903 0.000000 0.000000 0.000000 0.000000 2.060065
21 -2.622039 -6.273479 -8.136835 -0.746295 0.249320 -1.187762
22 11.659969 0.000000 0.000000 0.000000 0.000000 1.761569
23 25.724375 0.000000 0.000000 0.000000 0.000000 -1.963547
24 3.880158 -0.980432 0.090609 0.000000 0.000000 0.769690
25 13.389689 0.268266 -6.517195 0.542283 1.306249 -0.395924
26 9.913784 0.000000 0.000000 1.834193 0.672510 -1.571872
27 21.016008 0.000000 0.000000 0.000000 0.000000 -1.785777
28 28.471622 0.000000 0.000000 0.000000 0.000000 1.963597
29 13.389685 0.268266 6.023556 -0.462585 -1.348926 -0.488759
30 9.768896 0.000000 0.000000 -1.807698 -0.756965 -1.525766
31 19.931143 0.000000 0.000000 0.000000 0.000000 -1.562162
32 26.044123 0.000000 0.000000 0.000000 0.000000 1.706021
33 -5.849912 4.319726 0.063164 0.461552 0.000000 0.696736
34 -5.827132 4.411093 0.063164 -0.329881 0.005779 0.696734
time 1
1 -0.571668 1.493854 26.708834 1.522749 -0.244345 1.570796
2 -5.577779 -0.123184 0.054231 0.002905 0.038898 -0.027270
3 -5.512521 -2.697434 -3.989360 0.406066 -0.135632 -0.988903
4 10.569404 0.000000 0.000000 0.000000 0.000000 -2.438891
5 13.357942 0.000000 0.000000 0.000000 0.000000 2.881877
6 -5.435715 -2.622672 3.516682 2.747960 0.105400 -1.032855
7 10.523520 0.000000 0.000000 0.000000 0.000000 2.454559
8 13.611951 0.000000 0.000000 0.000000 0.000000 -2.922817
9 -8.416650 1.073514 -0.018171 -0.002031 -0.004115 0.094015
10 -9.984111 -4.710447 3.170796 0.239078 -3.136074 0.423769
11 5.945618 0.000000 0.000000 0.000000 0.000000 0.734766
12 -9.984111 -4.710445 -2.998739 -0.207115 0.046935 -2.710187
13 5.945623 0.000000 0.000000 0.000000 0.000000 -0.747655
14 -13.167567 0.616876 1.590356 0.000000 0.000000 -0.000000
15 -1.915743 -0.010427 0.304297 -0.000000 0.000000 0.691150
16 -13.157713 0.632508 -1.795553 -0.000000 0.000000 0.000000
17 -2.207746 -0.183759 -0.037490 -0.000000 0.000000 0.691150
18 -2.622040 -6.273479 8.263164 -2.427919 -0.142616 -1.188531
19 11.485749 0.000000 0.000000 0.000000 0.000000 -1.742725
20 24.536903 0.000000 0.000000 0.000000 0.000000 1.994657
21 -2.622039 -6.273479 -8.136835 -0.741048 0.270067 -1.222646
22 11.659969 0.000000 0.000000 0.000000 0.000000 1.747629
23 25.724375 0.000000 0.000000 0.000000 0.000000 -1.933999
24 3.880158 -0.980432 0.090609 -0.086124 -0.030562 0.359360
25 13.389689 0.268266 -6.517195 0.542283 1.306249 -0.395924
26 9.913784 0.000000 0.000000 1.599809 0.393584 -1.506855
27 21.016008 0.000000 0.000000 0.000000 0.000000 -1.739093
28 28.471622 0.000000 0.000000 0.000000 0.000000 1.876891
29 13.389685 0.268266 6.023556 -0.462585 -1.348926 -0.488759
30 9.768896 0.000000 0.000000 -1.836897 -0.340258 -1.514276
31 19.931143 0.000000 0.000000 0.000000 0.000000 -1.515236
32 26.044123 0.000000 0.000000 0.000000 0.000000 1.614941
33 -5.849912 4.319726 0.063164 0.469284 0.006441 0.617047
34 -5.827132 4.411093 0.063164 -0.322149 0.012219 0.617090
time 2
1 -1.186870 1.502570 28.381268 1.474702 -0.244346 1.570796
2 -5.577779 -0.123184 0.054231 0.012947 0.076572 0.158932
3 -5.512521 -2.697434 -3.989360 0.406066 -0.135630 -0.988906
4 10.569404 0.000000 0.000000 0.000000 0.000000 -2.438892
5 13.357942 0.000000 0.000000 0.000000 0.000000 2.881879
6 -5.435715 -2.622672 3.516682 2.747960 0.105400 -1.032856
7 10.523520 0.000000 0.000000 0.000000 0.000000 2.454558
8 13.611951 0.000000 0.000000 0.000000 0.000000 -2.922817
9 -8.416650 1.073514 -0.018171 -0.003726 -0.008371 0.015243
10 -9.984111 -4.710447 3.170796 0.239079 -3.136095 0.423687
11 5.945618 0.000000 0.000000 0.000000 0.000000 0.734586
12 -9.984111 -4.710445 -2.998739 -0.207118 0.046921 -2.710265
13 5.945623 0.000000 0.000000 0.000000 0.000000 -0.747489
14 -13.167567 0.616876 1.590356 0.000000 0.000000 -0.000000
15 -1.915743 -0.010427 0.304297 -0.000000 -0.000000 0.691150
16 -13.157713 0.632508 -1.795553 0.000000 -0.000000 0.000000
17 -2.207746 -0.183759 -0.037490 0.000000 0.000000 0.691150
18 -2.622040 -6.273479 8.263164 -2.394358 -0.073536 -1.237671
19 11.485749 0.000000 0.000000 0.000000 0.000000 -1.714266
20 24.536903 0.000000 0.000000 0.000000 0.000000 1.932994
21 -2.622039 -6.273479 -8.136835 -0.732907 0.296377 -1.247883
22 11.659969 0.000000 0.000000 0.000000 0.000000 1.738363
23 25.724375 0.000000 0.000000 0.000000 0.000000 -1.914389
24 3.880158 -0.980432 0.090609 -0.153128 -0.092776 -0.048198
25 13.389689 0.268266 -6.517195 0.542283 1.306249 -0.395924
26 9.913784 0.000000 0.000000 1.380674 0.159459 -1.406613
27 21.016008 0.000000 0.000000 0.000000 0.000000 -1.736719
28 28.471622 0.000000 0.000000 0.000000 0.000000 1.872512
29 13.389685 0.268266 6.023556 -0.462585 -1.348926 -0.488759
30 9.768896 0.000000 0.000000 -1.875852 0.052110 -1.498742
31 19.931143 0.000000 0.000000 0.000000 0.000000 -1.520045
32 26.044123 0.000000 0.000000 0.000000 0.000000 1.624204
33 -5.849912 4.319726 0.063164 0.476480 0.013476 0.537399
34 -5.827132 4.411093 0.063164 -0.314952 0.019254 0.537483
time 3
1 -1.908771 1.552608 29.618763 1.483530 -0.244346 1.570796
2 -5.577779 -0.123184 0.054231 -0.001106 0.078532 0.284445
3 -5.512521 -2.697434 -3.989360 0.406066 -0.135630 -0.988908
4 10.569404 0.000000 0.000000 0.000000 0.000000 -2.438893
5 13.357942 0.000000 0.000000 0.000000 0.000000 2.881881
6 -5.435715 -2.622672 3.516682 2.747960 0.105400 -1.032856
7 10.523520 0.000000 0.000000 0.000000 0.000000 2.454558
8 13.611951 0.000000 0.000000 0.000000 0.000000 -2.922816
9 -8.416650 1.073514 -0.018171 0.020858 0.014671 -0.017350
10 -9.984111 -4.710447 3.170796 0.239079 -3.136110 0.423625
11 5.945618 0.000000 0.000000 0.000000 0.000000 0.734453
12 -9.984111 -4.710445 -2.998739 -0.207120 0.046910 -2.710322
13 5.945623 0.000000 0.000000 0.000000 0.000000 -0.747366
14 -13.167567 0.616876 1.590356 0.000000 0.000000 0.000000
15 -1.915743 -0.010427 0.304297 -0.000000 0.000000 0.691150
16 -13.157713 0.632508 -1.795553 0.000000 0.000000 0.000000
17 -2.207746 -0.183759 -0.037490 -0.000000 -0.000000 0.691150
18 -2.622040 -6.273479 8.263164 -2.376295 -0.076507 -1.263626
19 11.485749 0.000000 0.000000 0.000000 0.000000 -1.693596
20 24.536903 0.000000 0.000000 0.000000 0.000000 1.888998
21 -2.622039 -6.273479 -8.136835 -0.733323 0.262990 -1.277012
22 11.659969 0.000000 0.000000 0.000000 0.000000 1.732448
23 25.724375 0.000000 0.000000 0.000000 0.000000 -1.902249
24 3.880158 -0.980432 0.090609 -0.194564 -0.128479 -0.378952
25 13.389689 0.268266 -6.517195 0.542283 1.306249 -0.395924
26 9.913784 0.000000 0.000000 1.239042 -0.024822 -1.298342
27 21.016008 0.000000 0.000000 0.000000 0.000000 -1.781701
28 28.471622 0.000000 0.000000 0.000000 0.000000 1.955937
29 13.389685 0.268266 6.023556 -0.462585 -1.348926 -0.488759
30 9.768896 0.000000 0.000000 -1.852434 0.345407 -1.474859
31 19.931143 0.000000 0.000000 0.000000 0.000000 -1.544601
32 26.044123 0.000000 0.000000 0.000000 0.000000 1.671983
33 -5.849912 4.319726 0.063164 0.508781 0.007158 0.467469
34 -5.827132 4.411093 0.063164 -0.282650 0.012930 0.467740
time 4
1 -2.816883 1.662466 30.311926 1.557687 -0.244350 1.570796
2 -5.577779 -0.123184 0.054231 -0.064809 0.037661 0.350354
3 -5.512521 -2.697434 -3.989360 0.406067 -0.135629 -0.988910
4 10.569404 0.000000 0.000000 0.000000 0.000000 -2.438894
5 13.357942 0.000000 0.000000 0.000000 0.000000 2.881884
6 -5.435715 -2.622672 3.516682 2.747960 0.105399 -1.032857
7 10.523520 0.000000 0.000000 0.000000 0.000000 2.454559
8 13.611951 0.000000 0.000000 0.000000 0.000000 -2.922817
9 -8.416650 1.073514 -0.018171 0.090978 0.087209 0.031443
10 -9.984111 -4.710447 3.170796 0.239079 -3.136120 0.423580
11 5.945618 0.000000 0.000000 0.000000 0.000000 0.734358
12 -9.984111 -4.710445 -2.998739 -0.207122 0.046902 -2.710363
13 5.945623 0.000000 0.000000 0.000000 0.000000 -0.747283
14 -13.167567 0.616876 1.590356 0.000000 0.000000 0.000000
15 -1.915743 -0.010427 0.304297 -0.000000 0.000000 0.691150
16 -13.157713 0.632508 -1.795553 0.000000 0.000000 0.000001
17 -2.207746 -0.183759 -0.037490 0.000000 0.000000 0.691150
18 -2.622040 -6.273479 8.263164 -2.369758 -0.164305 -1.265417
19 11.485749 0.000000 0.000000 0.000000 0.000000 -1.683366
20 24.536903 0.000000 0.000000 0.000000 0.000000 1.867053
21 -2.622039 -6.273479 -8.136835 -0.735705 0.159372 -1.307755
22 11.659969 0.000000 0.000000 0.000000 0.000000 1.731189
23 25.724375 0.000000 0.000000 0.000000 0.000000 -1.899592
24 3.880158 -0.980432 0.090609 -0.227783 -0.100480 -0.607096
25 13.389689 0.268266 -6.517195 0.542283 1.306249 -0.395924
26 9.913784 0.000000 0.000000 1.208850 -0.170330 -1.196445
27 21.016008 0.000000 0.000000 0.000000 0.000000 -1.858983
28 28.471622 0.000000 0.000000 0.000000 0.000000 2.102880
29 13.389685 0.268266 6.023556 -0.462585 -1.348926 -0.488759
30 9.768896 0.000000 0.000000 -1.726692 0.505079 -1.437813
31 19.931143 0.000000 0.000000 0.000000 0.000000 -1.549775
32 26.044123 0.000000 0.000000 0.000000 0.000000 1.682153
33 -5.849912 4.319726 0.063164 0.610127 -0.028257 0.451504
34 -5.827132 4.411093 0.063164 -0.181328 -0.022542 0.452357
time 5
1 -3.831694 1.813647 30.570160 1.659236 -0.244346 1.570796
2 -5.577779 -0.123184 0.054231 -0.158207 -0.023742 0.391968
3 -5.512521 -2.697434 -3.989360 0.406067 -0.135629 -0.988911
4 10.569404 0.000000 0.000000 0.000000 0.000000 -2.438894
5 13.357942 0.000000 0.000000 0.000000 0.000000 2.881883
6 -5.435715 -2.622672 3.516682 2.747960 0.105399 -1.032856
7 10.523520 0.000000 0.000000 0.000000 0.000000 2.454558
8 13.611951 0.000000 0.000000 0.000000 0.000000 -2.922815
9 -8.416650 1.073514 -0.018171 0.195421 0.179601 0.134346
10 -9.984111 -4.710447 3.170796 0.239080 -3.136129 0.423545
11 5.945618 0.000000 0.000000 0.000000 0.000000 0.734281
12 -9.984111 -4.710445 -2.998739 -0.207123 0.046897 -2.710396
13 5.945623 0.000000 0.000000 0.000000 0.000000 -0.747212
14 -13.167567 0.616876 1.590356 0.000000 0.000000 -0.000000
15 -1.915743 -0.010427 0.304297 -0.000000 -0.000000 0.691150
16 -13.157713 0.632508 -1.795553 0.000000 -0.000000 -0.000000
17 -2.207746 -0.183759 -0.037490 -0.000000 0.000000 0.691150
18 -2.622040 -6.273479 8.263164 -2.370887 -0.290394 -1.250565
19 11.485749 0.000000 0.000000 0.000000 0.000000 -1.677260
20 24.536903 0.000000 0.000000 0.000000 0.000000 1.853979
21 -2.622039 -6.273479 -8.136835 -0.732027 0.027958 -1.332591
22 11.659969 0.000000 0.000000 0.000000 0.000000 1.731882
23 25.724375 0.000000 0.000000 0.000000 0.000000 -1.901055
24 3.880158 -0.980432 0.090609 -0.276114 -0.031279 -0.761128
25 13.389689 0.268266 -6.517195 0.542283 1.306249 -0.395924
26 9.913784 0.000000 0.000000 1.247480 -0.277839 -1.102646
27 21.016008 0.000000 0.000000 0.000000 0.000000 -1.941646
28 28.471622 0.000000 0.000000 0.000000 0.000000 2.264364
29 13.389685 0.268266 6.023556 -0.462585 -1.348926 -0.488759
30 9.768896 0.000000 0.000000 -1.561974 0.572891 -1.414911
31 19.931143 0.000000 0.000000 0.000000 0.000000 -1.526270
32 26.044123 0.000000 0.000000 0.000000 0.000000 1.636241
33 -5.849912 4.319726 0.063164 0.735892 -0.079712 0.375767
34 -5.827132 4.411093 0.063164 -0.055662 -0.074149 0.377335
time 6
1 -4.714671 1.950653 30.721647 1.775468 -0.244346 1.570796
2 -5.577779 -0.123184 0.054231 -0.247763 -0.095326 0.396237
3 -5.512521 -2.697434 -3.989360 0.406067 -0.135628 -0.988912
4 10.569404 0.000000 0.000000 0.000000 0.000000 -2.438894
5 13.357942 0.000000 0.000000 0.000000 0.000000 2.881883
6 -5.435715 -2.622672 3.516682 2.747959 0.105399 -1.032857
7 10.523520 0.000000 0.000000 0.000000 0.000000 2.454558
8 13.611951 0.000000 0.000000 0.000000 0.000000 -2.922815
9 -8.416650 1.073514 -0.018171 0.303596 0.249724 0.236486
10 -9.984111 -4.710447 3.170796 0.239080 -3.136135 0.423521
11 5.945618 0.000000 0.000000 0.000000 0.000000 0.734227
12 -9.984111 -4.710445 -2.998739 -0.207124 0.046892 -2.710417
13 5.945623 0.000000 0.000000 0.000000 0.000000 -0.747163
14 -13.167567 0.616876 1.590356 0.000000 0.000000 -0.000000
15 -1.915743 -0.010427 0.304297 -0.000000 0.000000 0.691150
16 -13.157713 0.632508 -1.795553 -0.000000 0.000000 0.000000
17 -2.207746 -0.183759 -0.037490 -0.000000 -0.000000 0.691150
18 -2.622040 -6.273479 8.263164 -2.384073 -0.431454 -1.225237
19 11.485749 0.000000 0.000000 0.000000 0.000000 -1.670234
20 24.536903 0.000000 0.000000 0.000000 0.000000 1.838959
21 -2.622039 -6.273479 -8.136835 -0.726678 -0.117542 -1.355394
22 11.659969 0.000000 0.000000 0.000000 0.000000 1.727273
23 25.724375 0.000000 0.000000 0.000000 0.000000 -1.891526
24 3.880158 -0.980432 0.090609 -0.358292 0.041951 -0.851452
25 13.389689 0.268266 -6.517195 0.542283 1.306249 -0.395924
26 9.913784 0.000000 0.000000 1.320430 -0.335213 -1.017810
27 21.016008 0.000000 0.000000 0.000000 0.000000 -2.007739
28 28.471622 0.000000 0.000000 0.000000 0.000000 2.399472
29 13.389685 0.268266 6.023556 -0.462585 -1.348926 -0.488759
30 9.768896 0.000000 0.000000 -1.430774 0.588520 -1.438164
31 19.931143 0.000000 0.000000 0.000000 0.000000 -1.471944
32 26.044123 0.000000 0.000000 0.000000 0.000000 1.533600
33 -5.849912 4.319726 0.063164 0.867160 -0.124594 0.106952
34 -5.827132 4.411093 0.063164 0.075447 -0.119283 0.109247
time 7
1 -5.380639 2.031578 30.879364 1.893674 -0.244346 1.570796
2 -5.577779 -0.123184 0.054231 -0.296015 -0.169717 0.344295
3 -5.512521 -2.697434 -3.989360 0.406067 -0.135628 -0.988913
4 10.569404 0.000000 0.000000 0.000000 0.000000 -2.438894
5 13.357942 0.000000 0.000000 0.000000 0.000000 2.881884
6 -5.435715 -2.622672 3.516682 2.747959 0.105399 -1.032857
7 10.523520 0.000000 0.000000 0.000000 0.000000 2.454558
8 13.611951 0.000000 0.000000 0.000000 0.000000 -2.922815
9 -8.416650 1.073514 -0.018171 0.367530 0.273870 0.268012
10 -9.984111 -4.710447 3.170796 0.239080 -3.136140 0.423503
11 5.945618 0.000000 0.000000 0.000000 0.000000 0.734188
12 -9.984111 -4.710445 -2.998739 -0.207124 0.046889 -2.710434
13 5.945623 0.000000 0.000000 0.000000 0.000000 -0.747129
14 -13.167567 0.616876 1.590356 -0.000000 0.000000 -0.000000
15 -1.915743 -0.010427 0.304297 -0.000000 -0.000000 0.691150
16 -13.157713 0.632508 -1.795553 0.000000 0.000000 0.000000
17 -2.207746 -0.183759 -0.037490 -0.000000 -0.000000 0.691150
18 -2.622040 -6.273479 8.263164 -2.409906 -0.569081 -1.191950
19 11.485749 0.000000 0.000000 0.000000 0.000000 -1.660410
20 24.536903 0.000000 0.000000 0.000000 0.000000 1.818003
21 -2.622039 -6.273479 -8.136835 -0.721164 -0.262276 -1.376404
22 11.659969 0.000000 0.000000 0.000000 0.000000 1.716109
23 25.724375 0.000000 0.000000 0.000000 0.000000 -1.868043
24 3.880158 -0.980432 0.090609 -0.498849 0.114887 -0.861780
25 13.389689 0.268266 -6.517195 0.542283 1.306249 -0.395924
26 9.913784 0.000000 0.000000 1.409059 -0.292817 -0.934699
27 21.016008 0.000000 0.000000 0.000000 0.000000 -2.051745
28 28.471622 0.000000 0.000000 0.000000 0.000000 2.494491
29 13.389685 0.268266 6.023556 -0.462585 -1.348926 -0.488759
30 9.768896 0.000000 0.000000 -1.398200 0.567045 -1.548482
31 19.931143 0.000000 0.000000 0.000000 0.000000 -1.371537
32 26.044123 0.000000 0.000000 0.000000 0.000000 1.353791
33 -5.849912 4.319726 0.063164 1.002100 -0.127561 -0.223096
34 -5.827132 4.411093 0.063164 0.210293 -0.122604 -0.220101
time 8
1 -5.905708 2.060879 30.936066 2.001144 -0.244346 1.570796
2 -5.577779 -0.123184 0.054231 -0.288672 -0.251702 0.218719
3 -5.512521 -2.697434 -3.989360 0.406067 -0.135628 -0.988913
4 10.569404 0.000000 0.000000 0.000000 0.000000 -2.438894
5 13.357942 0.000000 0.000000 0.000000 0.000000 2.881885
6 -5.435715 -2.622672 3.516682 2.747959 0.105399 -1.032857
7 10.523520 0.000000 0.000000 0.000000 0.000000 2.454558
8 13.611951 0.000000 0.000000 0.000000 0.000000 -2.922815
9 -8.416650 1.073514 -0.018171 0.383813 0.261617 0.226675
10 -9.984111 -4.710447 3.170796 0.239080 -3.136143 0.423491
11 5.945618 0.000000 0.000000 0.000000 0.000000 0.734160
12 -9.984111 -4.710445 -2.998739 -0.207125 0.046887 -2.710444
13 5.945623 0.000000 0.000000 0.000000 0.000000 -0.747105
14 -13.167567 0.616876 1.590356 0.000000 0.000001 0.000000
15 -1.915743 -0.010427 0.304297 -0.000000 -0.000000 0.691150
16 -13.157713 0.632508 -1.795553 0.000000 -0.000000 0.000000
17 -2.207746 -0.183759 -0.037490 0.000000 0.000000 0.691150
18 -2.622040 -6.273479 8.263164 -2.446201 -0.690763 -1.150557
19 11.485749 0.000000 0.000000 0.000000 0.000000 -1.649014
20 24.536903 0.000000 0.000000 0.000000 0.000000 1.793762
21 -2.622039 -6.273479 -8.136835 -0.715193 -0.390781 -1.392059
22 11.659969 0.000000 0.000000 0.000000 0.000000 1.703122
23 25.724375 0.000000 0.000000 0.000000 0.000000 -1.840792
24 3.880158 -0.980432 0.090609 -0.660368 0.208173 -0.819337
25 13.389689 0.268266 -6.517195 0.542283 1.306249 -0.395924
26 9.913784 0.000000 0.000000 1.519790 -0.181021 -0.865309
27 21.016008 0.000000 0.000000 0.000000 0.000000 -2.078670
28 28.471622 0.000000 0.000000 0.000000 0.000000 2.555343
29 13.389685 0.268266 6.023556 -0.462585 -1.348926 -0.488759
30 9.768896 0.000000 0.000000 -1.422028 0.492889 -1.698015
31 19.931143 0.000000 0.000000 0.000000 0.000000 -1.231600
32 26.044123 0.000000 0.000000 0.000000 0.000000 1.125641
33 -5.849912 4.319726 0.063164 1.051826 -0.084494 -0.425924
34 -5.827132 4.411093 0.063164 0.260127 -0.079692 -0.422698
time 9
1 -6.293279 2.052600 30.889603 2.085169 -0.244346 1.570796
2 -5.577779 -0.123184 0.054231 -0.236972 -0.338683 0.030791
3 -5.512521 -2.697434 -3.989360 0.406067 -0.135628 -0.988913
4 10.569404 0.000000 0.000000 0.000000 0.000000 -2.438894
5 13.357942 0.000000 0.000000 0.000000 0.000000 2.881885
6 -5.435715 -2.622672 3.516682 2.747960 0.105399 -1.032857
7 10.523520 0.000000 0.000000 0.000000 0.000000 2.454558
8 13.611951 0.000000 0.000000 0.000000 0.000000 -2.922815
9 -8.416650 1.073514 -0.018171 0.387282 0.235066 0.163524
10 -9.984111 -4.710447 3.170796 0.239080 -3.136144 0.423486
11 5.945618 0.000000 0.000000 0.000000 0.000000 0.734149
12 -9.984111 -4.710445 -2.998739 -0.207125 0.046886 -2.710449
13 5.945623 0.000000 0.000000 0.000000 0.000000 -0.747093
14 -13.167567 0.616876 1.590356 -0.000000 0.000000 0.000000
15 -1.915743 -0.010427 0.304297 -0.000000 0.000000 0.691150
16 -13.157713 0.632508 -1.795553 -0.000000 -0.000000 0.000000
17 -2.207746 -0.183759 -0.037490 -0.000000 -0.000000 0.691150
18 -2.622040 -6.273479 8.263164 -2.486326 -0.783497 -1.107224
19 11.485749 0.000000 0.000000 0.000000 0.000000 -1.638438
20 24.536903 0.000000 0.000000 0.000000 0.000000 1.771335
21 -2.622039 -6.273479 -8.136835 -0.710466 -0.488998 -1.401343
22 11.659969 0.000000 0.000000 0.000000 0.000000 1.692100
23 25.724375 0.000000 0.000000 0.000000 0.000000 -1.817726
24 3.880158 -0.980432 0.090609 -0.766617 0.304581 -0.789362
25 13.389689 0.268266 -6.517195 0.542283 1.306249 -0.395924
26 9.913784 0.000000 0.000000 1.636990 -0.106899 -0.824777
27 21.016008 0.000000 0.000000 0.000000 0.000000 -2.094818
28 28.471622 0.000000 0.000000 0.000000 0.000000 2.593103
29 13.389685 0.268266 6.023556 -0.462585 -1.348926 -0.488759
30 9.768896 0.000000 0.000000 -1.414554 0.397861 -1.795681
31 19.931143 0.000000 0.000000 0.000000 0.000000 -1.106808
32 26.044123 0.000000 0.000000 0.000000 0.000000 0.941504
33 -5.849912 4.319726 0.063164 0.992792 -0.024025 -0.449864
34 -5.827132 4.411093 0.063164 0.201295 -0.019041 -0.446937
time 10
1 -6.546749 2.020782 30.737822 2.133039 -0.244346 1.570796
2 -5.577779 -0.123184 0.054231 -0.146346 -0.407795 -0.197628
3 -5.512521 -2.697434 -3.989360 0.406067 -0.135628 -0.988914
4 10.569404 0.000000 0.000000 0.000000 0.000000 -2.438894
5 13.357942 0.000000 0.000000 0.000000 0.000000 2.881885
6 -5.435715 -2.622672 3.516682 2.747960 0.105399 -1.032857
7 10.523520 0.000000 0.000000 0.000000 0.000000 2.454558
8 13.611951 0.000000 0.000000 0.000000 0.000000 -2.922815
9 -8.416650 1.073514 -0.018171 0.382665 0.198077 0.084020
10 -9.984111 -4.710447 3.170796 0.239080 -3.136145 0.423481
11 5.945618 0.000000 0.000000 0.000000 0.000000 0.734138
12 -9.984111 -4.710445 -2.998739 -0.207125 0.046885 -2.710454
13 5.945623 0.000000 0.000000 0.000000 0.000000 -0.747083
14 -13.167567 0.616876 1.590356 0.000000 0.000000 -0.000000
15 -1.915743 -0.010427 0.304297 -0.000000 0.000000 0.691150
16 -13.157713 0.632508 -1.795553 0.000000 0.000000 0.000000
17 -2.207746 -0.183759 -0.037490 -0.000000 -0.000000 0.691151
18 -2.622040 -6.273479 8.263164 -2.517442 -0.836213 -1.073863
19 11.485749 0.000000 0.000000 0.000000 0.000000 -1.631763
20 24.536903 0.000000 0.000000 0.000000 0.000000 1.757557
21 -2.622039 -6.273479 -8.136835 -0.707806 -0.543554 -1.403323
22 11.659969 0.000000 0.000000 0.000000 0.000000 1.686977
23 25.724375 0.000000 0.000000 0.000000 0.000000 -1.807024
24 3.880158 -0.980432 0.090609 -0.736261 0.396939 -0.786673
25 13.389689 0.268266 -6.517195 0.542283 1.306249 -0.395924
26 9.913784 0.000000 0.000000 1.774618 -0.174407 -0.856449
27 21.016008 0.000000 0.000000 0.000000 0.000000 -2.097563
28 28.471622 0.000000 0.000000 0.000000 0.000000 2.599614
29 13.389685 0.268266 6.023556 -0.462585 -1.348926 -0.488759
30 9.768896 0.000000 0.000000 -1.309435 0.310421 -1.790697
31 19.931143 0.000000 0.000000 0.000000 0.000000 -1.045358
32 26.044123 0.000000 0.000000 0.000000 0.000000 0.858129
33 -5.849912 4.319726 0.063164 0.880885 0.049424 -0.397109
34 -5.827132 4.411093 0.063164 0.089574 0.054703 -0.394753
time 11
1 -6.669519 1.979471 30.478580 2.141431 -0.244346 1.570796
2 -5.577779 -0.123184 0.054231 -0.036938 -0.442822 -0.434646
3 -5.512521 -2.697434 -3.989360 0.406067 -0.135627 -0.988914
4 10.569404 0.000000 0.000000 0.000000 0.000000 -2.438895
5 13.357942 0.000000 0.000000 0.000000 0.000000 2.881885
6 -5.435715 -2.622672 3.516682 2.747960 0.105399 -1.032856
7 10.523520 0.000000 0.000000 0.000000 0.000000 2.454558
8 13.611951 0.000000 0.000000 0.000000 0.000000 -2.922815
9 -8.416650 1.073514 -0.018171 0.374380 0.154599 -0.006570
10 -9.984111 -4.710447 3.170796 0.239080 -3.136146 0.423478
11 5.945618 0.000000 0.000000 0.000000 0.000000 0.734134
12 -9.984111 -4.710445 -2.998739 -0.207125 0.046885 -2.710456
13 5.945623 0.000000 0.000000 0.000000 0.000000 -0.747079
14 -13.167567 0.616876 1.590356 -0.000000 -0.000000 -0.000000
15 -1.915743 -0.010427 0.304297 0.000000 0.000000 0.691150
16 -13.157713 0.632508 -1.795553 -0.000000 0.000000 0.000000
17 -2.207746 -0.183759 -0.037490 -0.000000 -0.000000 0.691150
18 -2.622040 -6.273479 8.263164 -2.529414 -0.847812 -1.059883
19 11.485749 0.000000 0.000000 0.000000 0.000000 -1.631369
20 24.536903 0.000000 0.000000 0.000000 0.000000 1.756726
21 -2.622039 -6.273479 -8.136835 -0.707341 -0.551488 -1.398137
22 11.659969 0.000000 0.000000 0.000000 0.000000 1.689482
23 25.724375 0.000000 0.000000 0.000000 0.000000 -1.812255
24 3.880158 -0.980432 0.090609 -0.623121 0.464608 -0.752275
25 13.389689 0.268266 -6.517195 0.542283 1.306249 -0.395924
26 9.913784 0.000000 0.000000 1.900186 -0.277940 -0.958347
27 21.016008 0.000000 0.000000 0.000000 0.000000 -2.080221
28 28.471622 0.000000 0.000000 0.000000 0.000000 2.558901
29 13.389685 0.268266 6.023556 -0.462585 -1.348926 -0.488759
30 9.768896 0.000000 0.000000 -1.198283 0.230059 -1.739652
31 19.931143 0.000000 0.000000 0.000000 0.000000 -1.038116
32 26.044123 0.000000 0.000000 0.000000 0.000000 0.848544
33 -5.849912 4.319726 0.063164 0.758431 0.128632 -0.313466
34 -5.827132 4.411093 0.063164 -0.032780 0.134158 -0.311762
time 12
1 -6.664990 1.942710 30.109737 2.120534 -0.244346 1.570796
2 -5.577779 -0.123184 0.054231 0.060563 -0.443166 -0.639131
3 -5.512521 -2.697434 -3.989360 0.406067 -0.135627 -0.988914
4 10.569404 0.000000 0.000000 0.000000 0.000000 -2.438894
5 13.357942 0.000000 0.000000 0.000000 0.000000 2.881885
6 -5.435715 -2.622672 3.516682 2.747960 0.105399 -1.032856
7 10.523520 0.000000 0.000000 0.000000 0.000000 2.454558
8 13.611951 0.000000 0.000000 0.000000 0.000000 -2.922814
9 -8.416650 1.073514 -0.018171 0.365912 0.109016 -0.103499
10 -9.984111 -4.710447 3.170796 0.239080 -3.136147 0.423474
11 5.945618 0.000000 0.000000 0.000000 0.000000 0.734123
12 -9.984111 -4.710445 -2.998739 -0.207125 0.046884 -2.710460
13 5.945623 0.000000 0.000000 0.000000 0.000000 -0.747069
14 -13.167567 0.616876 1.590356 0.000000 -0.000000 -0.000000
15 -1.915743 -0.010427 0.304297 -0.000000 0.000000 0.691150
16 -13.157713 0.632508 -1.795553 0.000000 0.000000 0.000000
17 -2.207746 -0.183759 -0.037490 -0.000000 0.000000 0.691150
18 -2.622040 -6.273479 8.263164 -2.525684 -0.829710 -1.061525
19 11.485749 0.000000 0.000000 0.000000 0.000000 -1.636897
20 24.536903 0.000000 0.000000 0.000000 0.000000 1.768072
21 -2.622039 -6.273479 -8.136835 -0.709143 -0.524228 -1.387209
22 11.659969 0.000000 0.000000 0.000000 0.000000 1.698102
23 25.724375 0.000000 0.000000 0.000000 0.000000 -1.830280
24 3.880158 -0.980432 0.090609 -0.467523 0.458639 -0.648052
25 13.389689 0.268266 -6.517195 0.542283 1.306249 -0.395924
26 9.913784 0.000000 0.000000 1.964349 -0.331126 -1.122208
27 21.016008 0.000000 0.000000 0.000000 0.000000 -2.036091
28 28.471622 0.000000 0.000000 0.000000 0.000000 2.460500
29 13.389685 0.268266 6.023556 -0.462585 -1.348926 -0.488759
30 9.768896 0.000000 0.000000 -1.147113 0.147856 -1.651516
31 19.931143 0.000000 0.000000 0.000000 0.000000 -1.092088
32 26.044123 0.000000 0.000000 0.000000 0.000000 0.921091
33 -5.849912 4.319726 0.063164 0.660014 0.195207 -0.237231
34 -5.827132 4.411093 0.063164 -0.131191 0.200873 -0.236070
time 13
1 -6.536560 1.924542 29.629137 2.077909 -0.244346 1.570796
2 -5.577779 -0.123184 0.054231 0.139854 -0.391850 -0.809750
3 -5.512521 -2.697434 -3.989360 0.406067 -0.135628 -0.988914
4 10.569404 0.000000 0.000000 0.000000 0.000000 -2.438895
5 13.357942 0.000000 0.000000 0.000000 0.000000 2.881886
6 -5.435715 -2.622672 3.516682 2.747959 0.105399 -1.032857
7 10.523520 0.000000 0.000000 0.000000 0.000000 2.454558
8 13.611951 0.000000 0.000000 0.000000 0.000000 -2.922815
9 -8.416650 1.073514 -0.018171 0.359508 0.066204 -0.202547
10 -9.984111 -4.710447 3.170796 0.239080 -3.136148 0.423471
11 5.945618 0.000000 0.000000 0.000000 0.000000 0.734117
12 -9.984111 -4.710445 -2.998739 -0.207126 0.046884 -2.710461
13 5.945623 0.000000 0.000000 0.000000 0.000000 -0.747068
14 -13.167567 0.616876 1.590356 0.000000 -0.000000 -0.000000
15 -1.915743 -0.010427 0.304297 0.000000 0.000000 0.691150
16 -13.157713 0.632508 -1.795553 -0.000000 -0.000000 0.000000
17 -2.207746 -0.183759 -0.037490 0.000000 0.000000 0.691151
18 -2.622040 -6.273479 8.263164 -2.512172 -0.789683 -1.072465
19 11.485749 0.000000 0.000000 0.000000 0.000000 -1.647190
20 24.536903 0.000000 0.000000 0.000000 0.000000 1.789888
21 -2.622039 -6.273479 -8.136835 -0.712762 -0.469824 -1.371533
22 11.659969 0.000000 0.000000 0.000000 0.000000 1.711323
23 25.724375 0.000000 0.000000 0.000000 0.000000 -1.857993
24 3.880158 -0.980432 0.090609 -0.348242 0.427994 -0.555634
25 13.389689 0.268266 -6.517195 0.542283 1.306249 -0.395924
26 9.913784 0.000000 0.000000 1.973231 -0.332885 -1.230693
27 21.016008 0.000000 0.000000 0.000000 0.000000 -2.000551
28 28.471622 0.000000 0.000000 0.000000 0.000000 2.384552
29 13.389685 0.268266 6.023556 -0.462585 -1.348926 -0.488759
30 9.768896 0.000000 0.000000 -1.145851 0.091512 -1.585806
31 19.931143 0.000000 0.000000 0.000000 0.000000 -1.152408
32 26.044123 0.000000 0.000000 0.000000 0.000000 1.006685
33 -5.849912 4.319726 0.063164 0.590886 0.229271 -0.153490
34 -5.827132 4.411093 0.063164 -0.200371 0.235001 -0.152724
time 14
1 -6.287627 1.939010 29.034637 2.021114 -0.244346 1.570796
2 -5.577779 -0.123184 0.054231 0.186793 -0.302760 -0.926437
3 -5.512521 -2.697434 -3.989360 0.406067 -0.135627 -0.988914
4 10.569404 0.000000 0.000000 0.000000 0.000000 -2.438895
5 13.357942 0.000000 0.000000 0.000000 0.000000 2.881885
6 -5.435715 -2.622672 3.516682 2.747960 0.105399 -1.032857
7 10.523520 0.000000 0.000000 0.000000 0.000000 2.454558
8 13.611951 0.000000 0.000000 0.000000 0.000000 -2.922815
9 -8.416650 1.073514 -0.018171 0.356086 0.031406 -0.299791
10 -9.984111 -4.710447 3.170796 0.239080 -3.136148 0.423470
11 5.945618 0.000000 0.000000 0.000000 0.000000 0.734114
12 -9.984111 -4.710445 -2.998739 -0.207126 0.046883 -2.710463
13 5.945623 0.000000 0.000000 0.000000 0.000000 -0.747063
14 -13.167567 0.616876 1.590356 0.000000 -0.000000 -0.000000
15 -1.915743 -0.010427 0.304297 0.000000 0.000000 0.691150
16 -13.157713 0.632508 -1.795553 0.000000 0.000000 0.000000
17 -2.207746 -0.183759 -0.037490 -0.000000 0.000000 0.691150
18 -2.622040 -6.273479 8.263164 -2.495010 -0.735014 -1.086314
19 11.485749 0.000000 0.000000 0.000000 0.000000 -1.661251
20 24.536903 0.000000 0.000000 0.000000 0.000000 1.819795
21 -2.622039 -6.273479 -8.136835 -0.717646 -0.396176 -1.351931
22 11.659969 0.000000 0.000000 0.000000 0.000000 1.727471
23 25.724375 0.000000 0.000000 0.000000 0.000000 -1.891944
24 3.880158 -0.980432 0.090609 -0.309116 0.427432 -0.507417
25 13.389689 0.268266 -6.517195 0.542283 1.306249 -0.395924
26 9.913784 0.000000 0.000000 1.938502 -0.286877 -1.224745
27 21.016008 0.000000 0.000000 0.000000 0.000000 -1.997983
28 28.471622 0.000000 0.000000 0.000000 0.000000 2.379239
29 13.389685 0.268266 6.023556 -0.462585 -1.348926 -0.488759
30 9.768896 0.000000 0.000000 -1.181069 0.083305 -1.586822
31 19.931143 0.000000 0.000000 0.000000 0.000000 -1.178706
32 26.044123 0.000000 0.000000 0.000000 0.000000 1.045422
33 -5.849912 4.319726 0.063164 0.537921 0.245024 -0.045095
34 -5.827132 4.411093 0.063164 -0.253401 0.250787 -0.044641
time 15
1 -5.921593 2.000158 28.324091 1.957712 -0.244346 1.570796
2 -5.577779 -0.123184 0.054231 0.185290 -0.240595 -0.938297
3 -5.512521 -2.697434 -3.989360 0.406067 -0.135627 -0.988914
4 10.569404 0.000000 0.000000 0.000000 0.000000 -2.438894
5 13.357942 0.000000 0.000000 0.000000 0.000000 2.881885
6 -5.435715 -2.622672 3.516682 2.747960 0.105399 -1.032856
7 10.523520 0.000000 0.000000 0.000000 0.000000 2.454558
8 13.611951 0.000000 0.000000 0.000000 0.000000 -2.922814
9 -8.416650 1.073514 -0.018171 0.355348 0.010005 -0.391309
10 -9.984111 -4.710447 3.170796 0.239080 -3.136148 0.423468
11 5.945618 0.000000 0.000000 0.000000 0.000000 0.734111
12 -9.984111 -4.710445 -2.998739 -0.207126 0.046883 -2.710465
13 5.945623 0.000000 0.000000 0.000000 0.000000 -0.747060
14 -13.167567 0.616876 1.590356 -0.000000 0.000000 -0.000000
15 -1.915743 -0.010427 0.304297 0.000000 -0.000000 0.691150
16 -13.157713 0.632508 -1.795553 -0.000000 0.000000 0.000000
17 -2.207746 -0.183759 -0.037490 -0.000000 -0.000000 0.691150
18 -2.622040 -6.273479 8.263164 -2.479199 -0.673367 -1.097795
19 11.485749 0.000000 0.000000 0.000000 0.000000 -1.678140
20 24.536903 0.000000 0.000000 0.000000 0.000000 1.855862
21 -2.622039 -6.273479 -8.136835 -0.723295 -0.311386 -1.329262
22 11.659969 0.000000 0.000000 0.000000 0.000000 1.745182
23 25.724375 0.000000 0.000000 0.000000 0.000000 -1.928818
24 3.880158 -0.980432 0.090609 -0.277028 0.430048 -0.460257
25 13.389689 0.268266 -6.517195 0.542283 1.306249 -0.395924
26 9.913784 0.000000 0.000000 1.898628 -0.229016 -1.203927
27 21.016008 0.000000 0.000000 0.000000 0.000000 -1.998671
28 28.471622 0.000000 0.000000 0.000000 0.000000 2.380662
29 13.389685 0.268266 6.023556 -0.462585 -1.348926 -0.488759
30 9.768896 0.000000 0.000000 -1.223638 0.079921 -1.599227
31 19.931143 0.000000 0.000000 0.000000 0.000000 -1.201923
32 26.044123 0.000000 0.000000 0.000000 0.000000 1.080206
33 -5.849912 4.319726 0.063164 0.502960 0.262360 0.056019
34 -5.827132 4.411093 0.063164 -0.288410 0.268134 0.056266
time 16
1 -5.441855 2.122029 27.495348 1.895261 -0.244346 1.570796
2 -5.577779 -0.123184 0.054231 0.154395 -0.212151 -0.873497
3 -5.512521 -2.697434 -3.989360 0.406067 -0.135627 -0.988914
4 10.569404 0.000000 0.000000 0.000000 0.000000 -2.438895
5 13.357942 0.000000 0.000000 0.000000 0.000000 2.881886
6 -5.435715 -2.622672 3.516682 2.747960 0.105399 -1.032856
7 10.523520 0.000000 0.000000 0.000000 0.000000 2.454558
8 13.611951 0.000000 0.000000 0.000000 0.000000 -2.922814
9 -8.416650 1.073514 -0.018171 0.350284 0.007791 -0.486824
10 -9.984111 -4.710447 3.170796 0.239080 -3.136149 0.423465
11 5.945618 0.000000 0.000000 0.000000 0.000000 0.734105
12 -9.984111 -4.710445 -2.998739 -0.207126 0.046883 -2.710468
13 5.945623 0.000000 0.000000 0.000000 0.000000 -0.747054
14 -13.167567 0.616876 1.590356 -0.000000 0.000000 -0.000000
15 -1.915743 -0.010427 0.304297 -0.000000 -0.000000 0.691150
16 -13.157713 0.632508 -1.795553 -0.000000 0.000000 0.000000
17 -2.207746 -0.183759 -0.037490 -0.000000 -0.000000 0.691150
18 -2.622040 -6.273479 8.263164 -2.468139 -0.612814 -1.103332
19 11.485749 0.000000 0.000000 0.000000 0.000000 -1.697405
20 24.536903 0.000000 0.000000 0.000000 0.000000 1.896989
21 -2.622039 -6.273479 -8.136835 -0.729722 -0.223308 -1.303868
22 11.659969 0.000000 0.000000 0.000000 0.000000 1.762622
23 25.724375 0.000000 0.000000 0.000000 0.000000 -1.965779
24 3.880158 -0.980432 0.090609 -0.250195 0.434778 -0.414215
25 13.389689 0.268266 -6.517195 0.542283 1.306249 -0.395924
26 9.913784 0.000000 0.000000 1.862691 -0.164513 -1.176715
27 21.016008 0.000000 0.000000 0.000000 0.000000 -2.000460
28 28.471622 0.000000 0.000000 0.000000 0.000000 2.384362
29 13.389685 0.268266 6.023556 -0.462585 -1.348926 -0.488759
30 9.768896 0.000000 0.000000 -1.266852 0.075780 -1.619770
31 19.931143 0.000000 0.000000 0.000000 0.000000 -1.221405
32 26.044123 0.000000 0.000000 0.000000 0.000000 1.110006
33 -5.849912 4.319726 0.063164 0.490620 0.295319 0.151913
34 -5.827132 4.411093 0.063164 -0.300763 0.301095 0.152087
time 17
1 -4.851815 2.318668 26.546265 1.841322 -0.244346 1.570796
2 -5.577779 -0.123184 0.054231 0.118333 -0.182567 -0.792766
3 -5.512521 -2.697434 -3.989360 0.406067 -0.135627 -0.988914
4 10.569404 0.000000 0.000000 0.000000 0.000000 -2.438894
5 13.357942 0.000000 0.000000 0.000000 0.000000 2.881885
6 -5.435715 -2.622672 3.516682 2.747960 0.105399 -1.032856
7 10.523520 0.000000 0.000000 0.000000 0.000000 2.454558
8 13.611951 0.000000 0.000000 0.000000 0.000000 -2.922814
9 -8.416650 1.073514 -0.018171 0.335422 0.021326 -0.592488
10 -9.984111 -4.710447 3.170796 0.239080 -3.136149 0.423463
11 5.945618 0.000000 0.000000 0.000000 0.000000 0.734101
12 -9.984111 -4.710445 -2.998739 -0.207126 0.046882 -2.710469
13 5.945623 0.000000 0.000000 0.000000 0.000000 -0.747052
14 -13.167567 0.616876 1.590356 -0.000000 0.000000 -0.000000
15 -1.915743 -0.010427 0.304297 0.000000 -0.000000 0.691150
16 -13.157713 0.632508 -1.795553 -0.000001 0.000000 0.000000
17 -2.207746 -0.183759 -0.037490 0.000000 -0.000000 0.691151
18 -2.622040 -6.273479 8.263164 -2.464488 -0.561962 -1.100140
19 11.485749 0.000000 0.000000 0.000000 0.000000 -1.718845
20 24.536903 0.000000 0.000000 0.000000 0.000000 1.942898
21 -2.622039 -6.273479 -8.136835 -0.737373 -0.140473 -1.276882
22 11.659969 0.000000 0.000000 0.000000 0.000000 1.779111
23 25.724375 0.000000 0.000000 0.000000 0.000000 -2.000788
24 3.880158 -0.980432 0.090609 -0.227019 0.440415 -0.369521
25 13.389689 0.268266 -6.517195 0.542283 1.306249 -0.395924
26 9.913784 0.000000 0.000000 1.837989 -0.099645 -1.149977
27 21.016008 0.000000 0.000000 0.000000 0.000000 -2.001469
28 28.471622 0.000000 0.000000 0.000000 0.000000 2.386452
29 13.389685 0.268266 6.023556 -0.462585 -1.348926 -0.488759
30 9.768896 0.000000 0.000000 -1.303850 0.065897 -1.644251
31 19.931143 0.000000 0.000000 0.000000 0.000000 -1.237402
32 26.044123 0.000000 0.000000 0.000000 0.000000 1.134681
33 -5.849912 4.319726 0.063164 0.495521 0.332184 0.252621
34 -5.827132 4.411093 0.063164 -0.295845 0.337959 0.252828
time 18
1 -4.151237 2.584775 25.455593 1.790192 -0.244346 1.570796
2 -5.577779 -0.123184 0.054231 0.079555 -0.150833 -0.700136
3 -5.512521 -2.697434 -3.989360 0.406067 -0.135627 -0.988915
4 10.569404 0.000000 0.000000 0.000000 0.000000 -2.438895
5 13.357942 0.000000 0.000000 0.000000 0.000000 2.881886
6 -5.435715 -2.622672 3.516682 2.747960 0.105399 -1.032857
7 10.523520 0.000000 0.000000 0.000000 0.000000 2.454558
8 13.611951 0.000000 0.000000 0.000000 0.000000 -2.922815
9 -8.416650 1.073514 -0.018171 0.313094 0.042393 -0.699087
10 -9.984111 -4.710447 3.170796 0.239080 -3.136150 0.423462
11 5.945618 0.000000 0.000000 0.000000 0.000000 0.734099
12 -9.984111 -4.710445 -2.998739 -0.207126 0.046882 -2.710469
13 5.945623 0.000000 0.000000 0.000000 0.000000 -0.747051
14 -13.167567 0.616876 1.590356 0.000000 0.000000 0.000000
15 -1.915743 -0.010427 0.304297 -0.000000 0.000000 0.691150
16 -13.157713 0.632508 -1.795553 -0.000000 0.000000 0.000000
17 -2.207746 -0.183759 -0.037490 -0.000000 -0.000000 0.691150
18 -2.622040 -6.273479 8.263164 -2.465141 -0.515197 -1.090450
19 11.485749 0.000000 0.000000 0.000000 0.000000 -1.742635
20 24.536903 0.000000 0.000000 0.000000 0.000000 1.994462
21 -2.622039 -6.273479 -8.136835 -0.744741 -0.056012 -1.246991
22 11.659969 0.000000 0.000000 0.000000 0.000000 1.795395
23 25.724375 0.000000 0.000000 0.000000 0.000000 -2.035150
24 3.880158 -0.980432 0.090609 -0.206078 0.445631 -0.326538
25 13.389689 0.268266 -6.517195 0.542283 1.306249 -0.395924
26 9.913784 0.000000 0.000000 1.818337 -0.032766 -1.121363
27 21.016008 0.000000 0.000000 0.000000 0.000000 -2.001901
28 28.471622 0.000000 0.000000 0.000000 0.000000 2.387347
29 13.389685 0.268266 6.023556 -0.462585 -1.348926 -0.488759
30 9.768896 0.000000 0.000000 -1.338178 0.053470 -1.671680
31 19.931143 0.000000 0.000000 0.000000 0.000000 -1.252567
32 26.044123 0.000000 0.000000 0.000000 0.000000 1.158179
33 -5.849912 4.319726 0.063164 0.501774 0.353735 0.335121
34 -5.827132 4.411093 0.063164 -0.289574 0.359509 0.335367
time 19
1 -3.331292 2.888201 24.250309 1.732719 -0.244346 1.570796
2 -5.577779 -0.123184 0.054231 0.040353 -0.116358 -0.599496
3 -5.512521 -2.697434 -3.989360 0.406067 -0.135627 -0.988915
4 10.569404 0.000000 0.000000 0.000000 0.000000 -2.438895
5 13.357942 0.000000 0.000000 0.000000 0.000000 2.881886
6 -5.435715 -2.622672 3.516682 2.747959 0.105399 -1.032857
7 10.523520 0.000000 0.000000 0.000000 0.000000 2.454558
8 13.611951 0.000000 0.000000 0.000000 0.000000 -2.922815
9 -8.416650 1.073514 -0.018171 0.287485 0.063755 -0.797252
10 -9.984111 -4.710447 3.170796 0.239080 -3.136150 0.423461
11 5.945618 0.000000 0.000000 0.000000 0.000000 0.734096
12 -9.984111 -4.710445 -2.998739 -0.207126 0.046883 -2.710470
13 5.945623 0.000000 0.000000 0.000000 0.000000 -0.747049
14 -13.167567 0.616876 1.590356 0.000000 -0.000000 -0.000000
15 -1.915743 -0.010427 0.304297 -0.000000 0.000000 0.691150
16 -13.157713 0.632508 -1.795553 0.000000 -0.000000 0.000000
17 -2.207746 -0.183759 -0.037490 0.000000 -0.000000 0.691151
18 -2.622040 -6.273479 8.263164 -2.465312 -0.461639 -1.078566
19 11.485749 0.000000 0.000000 0.000000 0.000000 -1.768303
20 24.536903 0.000000 0.000000 0.000000 0.000000 2.050031
21 -2.622039 -6.273479 -8.136835 -0.748418 0.040316 -1.212527
22 11.659969 0.000000 0.000000 0.000000 0.000000 1.810687
23 25.724375 0.000000 0.000000 0.000000 0.000000 -2.067736
24 3.880158 -0.980432 0.090609 -0.186113 0.448996 -0.285743
25 13.389689 0.268266 -6.517195 0.542283 1.306249 -0.395924
26 9.913784 0.000000 0.000000 1.795442 0.039264 -1.087635
27 21.016008 0.000000 0.000000 0.000000 0.000000 -2.001745
28 28.471622 0.000000 0.000000 0.000000 0.000000 2.387023
29 13.389685 0.268266 6.023556 -0.462585 -1.348926 -0.488759
30 9.768896 0.000000 0.000000 -1.376567 0.043657 -1.702472
31 19.931143 0.000000 0.000000 0.000000 0.000000 -1.269268
32 26.044123 0.000000 0.000000 0.000000 0.000000 1.184768
33 -5.849912 4.319726 0.063164 0.489593 0.343670 0.374148
34 -5.827132 4.411093 0.063164 -0.301783 0.349446 0.374320
time 20
1 -2.382481 3.202707 23.000580 1.671292 -0.244346 1.570796
2 -5.577779 -0.123184 0.054231 0.002791 -0.079111 -0.494550
3 -5.512521 -2.697434 -3.989360 0.406067 -0.135627 -0.988915
4 10.569404 0.000000 0.000000 0.000000 0.000000 -2.438895
5 13.357942 0.000000 0.000000 0.000000 0.000000 2.881886
6 -5.435715 -2.622672 3.516682 2.747959 0.105399 -1.032857
7 10.523520 0.000000 0.000000 0.000000 0.000000 2.454558
8 13.611951 0.000000 0.000000 0.000000 0.000000 -2.922815
9 -8.416650 1.073514 -0.018171 0.264560 0.079603 -0.877086
10 -9.984111 -4.710447 3.170796 0.239080 -3.136150 0.423458
11 5.945618 0.000000 0.000000 0.000000 0.000000 0.734090
12 -9.984111 -4.710445 -2.998739 -0.207126 0.046881 -2.710473
13 5.945623 0.000000 0.000000 0.000000 0.000000 -0.747044
14 -13.167567 0.616876 1.590356 0.000000 0.000000 -0.000000
15 -1.915743 -0.010427 0.304297 -0.000000 0.000000 0.691150
16 -13.157713 0.632508 -1.795553 -0.000000 0.000000 -0.000000
17 -2.207746 -0.183759 -0.037490 0.000000 -0.000000 0.691150
18 -2.622040 -6.273479 8.263164 -2.465361 -0.402414 -1.064696
19 11.485749 0.000000 0.000000 0.000000 0.000000 -1.794428
20 24.536903 0.000000 0.000000 0.000000 0.000000 2.106860
21 -2.622039 -6.273479 -8.136835 -0.747075 0.144235 -1.174663
22 11.659969 0.000000 0.000000 0.000000 0.000000 1.822872
23 25.724375 0.000000 0.000000 0.000000 0.000000 -2.093716
24 3.880158 -0.980432 0.090609 -0.166025 0.448997 -0.247730
25 13.389689 0.268266 -6.517195 0.542283 1.306249 -0.395924
26 9.913784 0.000000 0.000000 1.771585 0.111491 -1.052999
27 21.016008 0.000000 0.000000 0.000000 0.000000 -1.999126
28 28.471622 0.000000 0.000000 0.000000 0.000000 2.381602
29 13.389685 0.268266 6.023556 -0.462585 -1.348926 -0.488759
30 9.768896 0.000000 0.000000 -1.416849 0.035408 -1.733913
31 19.931143 0.000000 0.000000 0.000000 0.000000 -1.288133
32 26.044123 0.000000 0.000000 0.000000 0.000000 1.215213
33 -5.849912 4.319726 0.063164 0.449138 0.298002 0.361771
34 -5.827132 4.411093 0.063164 -0.342319 0.303780 0.361695
time 21
1 -1.136041 3.594901 21.512941 1.608300 -0.244347 1.570796
2 -5.577779 -0.123184 0.054231 -0.031390 -0.039650 -0.388789
3 -5.512521 -2.697434 -3.989360 0.406067 -0.135627 -0.988915
4 10.569404 0.000000 0.000000 0.000000 0.000000 -2.438895
5 13.357942 0.000000 0.000000 0.000000 0.000000 2.881886
6 -5.435715 -2.622672 3.516682 2.747960 0.105399 -1.032856
7 10.523520 0.000000 0.000000 0.000000 0.000000 2.454558
8 13.611951 0.000000 0.000000 0.000000 0.000000 -2.922815
9 -8.416650 1.073514 -0.018171 0.237404 0.096131 -0.957712
10 -9.984111 -4.710447 3.170796 0.239080 -3.136151 0.423459
11 5.945618 0.000000 0.000000 0.000000 0.000000 0.734091
12 -9.984111 -4.710445 -2.998739 -0.207126 0.046882 -2.710472
13 5.945623 0.000000 0.000000 0.000000 0.000000 -0.747042
14 -13.167567 0.616876 1.590356 0.000000 0.000000 0.000000
15 -1.915743 -0.010427 0.304297 -0.000000 0.000000 0.691150
16 -13.157713 0.632508 -1.795553 0.000000 0.000000 0.000000
17 -2.207746 -0.183759 -0.037490 -0.000000 -0.000000 0.691151
18 -2.622040 -6.273479 8.263164 -2.470667 -0.340980 -1.041251
19 11.485749 0.000000 0.000000 0.000000 0.000000 -1.825198
20 24.536903 0.000000 0.000000 0.000000 0.000000 2.173965
21 -2.622039 -6.273479 -8.136835 -0.741857 0.258012 -1.129208
22 11.659969 0.000000 0.000000 0.000000 0.000000 1.831953
23 25.724375 0.000000 0.000000 0.000000 0.000000 -2.112899
24 3.880158 -0.980432 0.090609 -0.144852 0.444063 -0.213205
25 13.389689 0.268266 -6.517195 0.542283 1.306249 -0.395924
26 9.913784 0.000000 0.000000 1.749935 0.183397 -1.018163
27 21.016008 0.000000 0.000000 0.000000 0.000000 -1.991894
28 28.471622 0.000000 0.000000 0.000000 0.000000 2.366684
29 13.389685 0.268266 6.023556 -0.462585 -1.348926 -0.488759
30 9.768896 0.000000 0.000000 -1.455400 0.024305 -1.765637
31 19.931143 0.000000 0.000000 0.000000 0.000000 -1.311685
32 26.044123 0.000000 0.000000 0.000000 0.000000 1.253838
33 -5.849912 4.319726 0.063164 0.394108 0.228470 0.320558
34 -5.827132 4.411093 0.063164 -0.397418 0.234236 0.320157
time 22
1 0.239265 3.998177 19.980864 1.546132 -0.244348 1.570796
2 -5.577779 -0.123184 0.054231 -0.060864 0.000935 -0.285484
3 -5.512521 -2.697434 -3.989360 0.406067 -0.135627 -0.988915
4 10.569404 0.000000 0.000000 0.000000 0.000000 -2.438895
5 13.357942 0.000000 0.000000 0.000000 0.000000 2.881887
6 -5.435715 -2.622672 3.516682 2.747959 0.105399 -1.032857
7 10.523520 0.000000 0.000000 0.000000 0.000000 2.454558
8 13.611951 0.000000 0.000000 0.000000 0.000000 -2.922816
9 -8.416650 1.073514 -0.018171 0.204611 0.115238 -1.035072
10 -9.984111 -4.710447 3.170796 0.239080 -3.136151 0.423457
11 5.945618 0.000000 0.000000 0.000000 0.000000 0.734086
12 -9.984111 -4.710445 -2.998739 -0.207126 0.046881 -2.710475
13 5.945623 0.000000 0.000000 0.000000 0.000000 -0.747039
14 -13.167567 0.616876 1.590356 0.000000 0.000000 -0.000000
15 -1.915743 -0.010427 0.304297 -0.000000 -0.000000 0.691150
16 -13.157713 0.632508 -1.795553 -0.000000 0.000000 0.000000
17 -2.207746 -0.183759 -0.037490 0.000000 -0.000000 0.691150
18 -2.622040 -6.273479 8.263164 -2.477119 -0.278369 -1.012509
19 11.485749 0.000000 0.000000 0.000000 0.000000 -1.855832
20 24.536903 0.000000 0.000000 0.000000 0.000000 2.240811
21 -2.622039 -6.273479 -8.136835 -0.728434 0.371949 -1.079377
22 11.659969 0.000000 0.000000 0.000000 0.000000 1.835585
23 25.724375 0.000000 0.000000 0.000000 0.000000 -2.120645
24 3.880158 -0.980432 0.090609 -0.121747 0.432596 -0.183005
25 13.389689 0.268266 -6.517195 0.542283 1.306249 -0.395924
26 9.913784 0.000000 0.000000 1.729145 0.247948 -0.990198
27 21.016008 0.000000 0.000000 0.000000 0.000000 -1.978999
28 28.471622 0.000000 0.000000 0.000000 0.000000 2.340267
29 13.389685 0.268266 6.023556 -0.462585 -1.348926 -0.488759
30 9.768896 0.000000 0.000000 -1.491443 0.011126 -1.792550
31 19.931143 0.000000 0.000000 0.000000 0.000000 -1.337920
32 26.044123 0.000000 0.000000 0.000000 0.000000 1.297073
33 -5.849912 4.319726 0.063164 0.339113 0.144119 0.269877
34 -5.827132 4.411093 0.063164 -0.452426 0.149855 0.269162
time 23
1 1.246652 4.186471 19.054916 1.487178 -0.244346 1.570796
2 -5.577779 -0.123184 0.054231 -0.084773 0.041150 -0.187738
3 -5.512521 -2.697434 -3.989360 0.406067 -0.135627 -0.988914
4 10.569404 0.000000 0.000000 0.000000 0.000000 -2.438895
5 13.357942 0.000000 0.000000 0.000000 0.000000 2.881885
6 -5.435715 -2.622672 3.516682 2.747960 0.105400 -1.032856
7 10.523520 0.000000 0.000000 0.000000 0.000000 2.454558
8 13.611951 0.000000 0.000000 0.000000 0.000000 -2.922814
9 -8.416650 1.073514 -0.018171 0.183746 0.129476 -1.063063
10 -9.984111 -4.710447 3.170796 0.239080 -3.136151 0.423456
11 5.945618 0.000000 0.000000 0.000000 0.000000 0.734085
12 -9.984111 -4.710445 -2.998739 -0.207126 0.046881 -2.710475
13 5.945623 0.000000 0.000000 0.000000 0.000000 -0.747040
14 -13.167567 0.616876 1.590356 0.000000 0.000000 -0.000001
15 -1.915743 -0.010427 0.304297 -0.000000 0.000000 0.691150
16 -13.157713 0.632508 -1.795553 -0.000000 0.000000 -0.000000
17 -2.207746 -0.183759 -0.037490 0.000000 -0.000000 0.691150
18 -2.622040 -6.273479 8.263164 -2.472684 -0.212890 -0.999340
19 11.485749 0.000000 0.000000 0.000000 0.000000 -1.873071
20 24.536903 0.000000 0.000000 0.000000 0.000000 2.278270
21 -2.622039 -6.273479 -8.136835 -0.705542 0.463801 -1.039167
22 11.659969 0.000000 0.000000 0.000000 0.000000 1.832254
23 25.724375 0.000000 0.000000 0.000000 0.000000 -2.113542
24 3.880158 -0.980432 0.090609 -0.095931 0.413000 -0.158105
25 13.389689 0.268266 -6.517195 0.542283 1.306249 -0.395924
26 9.913784 0.000000 0.000000 1.703645 0.292291 -0.981018
27 21.016008 0.000000 0.000000 0.000000 0.000000 -1.963350
28 28.471622 0.000000 0.000000 0.000000 0.000000 2.308120
29 13.389685 0.268266 6.023556 -0.462585 -1.348926 -0.488759
30 9.768896 0.000000 0.000000 -1.527236 0.003139 -1.805502
31 19.931143 0.000000 0.000000 0.000000 0.000000 -1.362087
32 26.044123 0.000000 0.000000 0.000000 0.000000 1.337759
33 -5.849912 4.319726 0.063164 0.294761 0.056594 0.225310
34 -5.827132 4.411093 0.063164 -0.496730 0.062292 0.224348
time 24
1 1.555894 3.962972 19.268370 1.433826 -0.244346 1.570796
2 -5.577779 -0.123184 0.054231 -0.102730 0.079257 -0.098591
3 -5.512521 -2.697434 -3.989360 0.406067 -0.135627 -0.988915
4 10.569404 0.000000 0.000000 0.000000 0.000000 -2.438895
5 13.357942 0.000000 0.000000 0.000000 0.000000 2.881886
6 -5.435715 -2.622672 3.516682 2.747960 0.105400 -1.032856
7 10.523520 0.000000 0.000000 0.000000 0.000000 2.454558
8 13.611951 0.000000 0.000000 0.000000 0.000000 -2.922815
9 -8.416650 1.073514 -0.018171 0.193909 0.132976 -0.994747
10 -9.984111 -4.710447 3.170796 0.239080 -3.136151 0.423457
11 5.945618 0.000000 0.000000 0.000000 0.000000 0.734086
12 -9.984111 -4.710445 -2.998739 -0.207126 0.046881 -2.710474
13 5.945623 0.000000 0.000000 0.000000 0.000000 -0.747039
14 -13.167567 0.616876 1.590356 0.000000 0.000000 0.000000
15 -1.915743 -0.010427 0.304297 -0.000000 -0.000000 0.691150
16 -13.157713 0.632508 -1.795553 -0.000000 0.000000 0.000001
17 -2.207746 -0.183759 -0.037490 0.000000 -0.000000 0.691150
18 -2.622040 -6.273479 8.263164 -2.452988 -0.142805 -1.019288
19 11.485749 0.000000 0.000000 0.000000 0.000000 -1.867296
20 24.536903 0.000000 0.000000 0.000000 0.000000 2.265731
21 -2.622039 -6.273479 -8.136835 -0.681442 0.518321 -1.023780
22 11.659969 0.000000 0.000000 0.000000 0.000000 1.822522
23 25.724375 0.000000 0.000000 0.000000 0.000000 -2.092970
24 3.880158 -0.980432 0.090609 -0.061169 0.322476 -0.237634
25 13.389689 0.268266 -6.517195 0.542283 1.306249 -0.395924
26 9.913784 0.000000 0.000000 1.602520 0.224123 -1.056514
27 21.016008 0.000000 0.000000 0.000000 0.000000 -1.928173
28 28.471622 0.000000 0.000000 0.000000 0.000000 2.237707
29 13.389685 0.268266 6.023556 -0.462585 -1.348926 -0.488759
30 9.768896 0.000000 0.000000 -1.560982 0.056219 -1.726491
31 19.931143 0.000000 0.000000 0.000000 0.000000 -1.424877
32 26.044123 0.000000 0.000000 0.000000 0.000000 1.447963
33 -5.849912 4.319726 0.063164 0.267765 -0.020361 0.199249
34 -5.827132 4.411093 0.063164 -0.523650 -0.014691 0.198135
time 25
1 1.332586 3.403033 20.404366 1.388465 -0.244346 1.570796
2 -5.577779 -0.123184 0.054231 -0.114764 0.113438 -0.021102
3 -5.512521 -2.697434 -3.989360 0.406067 -0.135627 -0.988914
4 10.569404 0.000000 0.000000 0.000000 0.000000 -2.438895
5 13.357942 0.000000 0.000000 0.000000 0.000000 2.881886
6 -5.435715 -2.622672 3.516682 2.747960 0.105399 -1.032857
7 10.523520 0.000000 0.000000 0.000000 0.000000 2.454558
8 13.611951 0.000000 0.000000 0.000000 0.000000 -2.922815
9 -8.416650 1.073514 -0.018171 0.251830 0.117155 -0.792184
10 -9.984111 -4.710447 3.170796 0.239080 -3.136152 0.423455
11 5.945618 0.000000 0.000000 0.000000 0.000000 0.734083
12 -9.984111 -4.710445 -2.998739 -0.207126 0.046882 -2.710476
13 5.945623 0.000000 0.000000 0.000000 0.000000 -0.747038
14 -13.167567 0.616876 1.590356 0.000000 0.000000 -0.000000
15 -1.915743 -0.010427 0.304297 -0.000000 -0.000000 0.691150
16 -13.157713 0.632508 -1.795553 0.000000 0.000000 0.000000
17 -2.207746 -0.183759 -0.037490 -0.000000 0.000000 0.691150
18 -2.622040 -6.273479 8.263164 -2.428106 -0.072022 -1.062369
19 11.485749 0.000000 0.000000 0.000000 0.000000 -1.843186
20 24.536903 0.000000 0.000000 0.000000 0.000000 2.213197
21 -2.622039 -6.273479 -8.136835 -0.664055 0.541689 -1.033012
22 11.659969 0.000000 0.000000 0.000000 0.000000 1.808365
23 25.724375 0.000000 0.000000 0.000000 0.000000 -2.062788
24 3.880158 -0.980432 0.090609 0.001236 0.188876 -0.292199
25 13.389689 0.268266 -6.517195 0.542283 1.306249 -0.395924
26 9.913784 0.000000 0.000000 1.509059 0.133574 -1.181472
27 21.016008 0.000000 0.000000 0.000000 0.000000 -1.874752
28 28.471622 0.000000 0.000000 0.000000 0.000000 2.133242
29 13.389685 0.268266 6.023556 -0.462585 -1.348926 -0.488759
30 9.768896 0.000000 0.000000 -1.602423 0.083421 -1.602906
31 19.931143 0.000000 0.000000 0.000000 0.000000 -1.502066
32 26.044123 0.000000 0.000000 0.000000 0.000000 1.589729
33 -5.849912 4.319726 0.063164 0.262689 -0.072417 0.202791
34 -5.827132 4.411093 0.063164 -0.528665 -0.066753 0.201646
time 26
1 0.823675 2.688841 21.988285 1.353485 -0.244346 1.570796
2 -5.577779 -0.123184 0.054231 -0.121216 0.141938 0.041554
3 -5.512521 -2.697434 -3.989360 0.406067 -0.135627 -0.988914
4 10.569404 0.000000 0.000000 0.000000 0.000000 -2.438895
5 13.357942 0.000000 0.000000 0.000000 0.000000 2.881885
6 -5.435715 -2.622672 3.516682 2.747959 0.105399 -1.032857
7 10.523520 0.000000 0.000000 0.000000 0.000000 2.454558
8 13.611951 0.000000 0.000000 0.000000 0.000000 -2.922815
9 -8.416650 1.073514 -0.018171 0.334828 0.069187 -0.496598
10 -9.984111 -4.710447 3.170796 0.239080 -3.136152 0.423452
11 5.945618 0.000000 0.000000 0.000000 0.000000 0.734082
12 -9.984111 -4.710445 -2.998739 -0.207126 0.046881 -2.710479
13 5.945623 0.000000 0.000000 0.000000 0.000000 -0.747037
14 -13.167567 0.616876 1.590356 0.000000 0.000000 -0.000001
15 -1.915743 -0.010427 0.304297 -0.000000 0.000000 0.691151
16 -13.157713 0.632508 -1.795553 0.000000 0.000000 -0.000001
17 -2.207746 -0.183759 -0.037490 -0.000000 0.000000 0.691151
18 -2.622040 -6.273479 8.263164 -2.406618 -0.008964 -1.111123
19 11.485749 0.000000 0.000000 0.000000 0.000000 -1.809525
20 24.536903 0.000000 0.000000 0.000000 0.000000 2.139855
21 -2.622039 -6.273479 -8.136835 -0.654489 0.544506 -1.057925
22 11.659969 0.000000 0.000000 0.000000 0.000000 1.791897
23 25.724375 0.000000 0.000000 0.000000 0.000000 -2.027698
24 3.880158 -0.980432 0.090609 0.076091 0.043203 -0.168442
25 13.389689 0.268266 -6.517195 0.542283 1.306249 -0.395924
26 9.913784 0.000000 0.000000 1.497814 0.145593 -1.333497
27 21.016008 0.000000 0.000000 0.000000 0.000000 -1.805648
28 28.471622 0.000000 0.000000 0.000000 0.000000 2.000920
29 13.389685 0.268266 6.023556 -0.462585 -1.348926 -0.488759
30 9.768896 0.000000 0.000000 -1.677085 -0.017614 -1.507148
31 19.931143 0.000000 0.000000 0.000000 0.000000 -1.547897
32 26.044123 0.000000 0.000000 0.000000 0.000000 1.678457
33 -5.849912 4.319726 0.063164 0.281368 -0.101382 0.235595
34 -5.827132 4.411093 0.063164 -0.509963 -0.095697 0.234554
time 27
1 0.276109 2.002588 23.545527 1.331275 -0.244346 1.570796
2 -5.577779 -0.123184 0.054231 -0.122577 0.163170 0.086040
3 -5.512521 -2.697434 -3.989360 0.406067 -0.135627 -0.988914
4 10.569404 0.000000 0.000000 0.000000 0.000000 -2.438895
5 13.357942 0.000000 0.000000 0.000000 0.000000 2.881886
6 -5.435715 -2.622672 3.516682 2.747960 0.105399 -1.032857
7 10.523520 0.000000 0.000000 0.000000 0.000000 2.454558
8 13.611951 0.000000 0.000000 0.000000 0.000000 -2.922815
9 -8.416650 1.073514 -0.018171 0.401057 -0.010079 -0.178594
10 -9.984111 -4.710447 3.170796 0.239080 -3.136152 0.423454
11 5.945618 0.000000 0.000000 0.000000 0.000000 0.734082
12 -9.984111 -4.710445 -2.998739 -0.207126 0.046882 -2.710476
13 5.945623 0.000000 0.000000 0.000000 0.000000 -0.747037
14 -13.167567 0.616876 1.590356 0.000000 -0.000000 -0.000000
15 -1.915743 -0.010427 0.304297 -0.000000 0.000000 0.691150
16 -13.157713 0.632508 -1.795553 0.000000 -0.000000 -0.000000
17 -2.207746 -0.183759 -0.037490 -0.000000 -0.000000 0.691150
18 -2.622040 -6.273479 8.263164 -2.392553 0.037916 -1.152501
19 11.485749 0.000000 0.000000 0.000000 0.000000 -1.775975
20 24.536903 0.000000 0.000000 0.000000 0.000000 2.066760
21 -2.622039 -6.273479 -8.136835 -0.651182 0.535529 -1.087477
22 11.659969 0.000000 0.000000 0.000000 0.000000 1.775490
23 25.724375 0.000000 0.000000 0.000000 0.000000 -1.993094
24 3.880158 -0.980432 0.090609 0.127709 -0.116927 0.005947
25 13.389689 0.268266 -6.517195 0.542283 1.306249 -0.395924
26 9.913784 0.000000 0.000000 1.505883 0.199261 -1.493560
27 21.016008 0.000000 0.000000 0.000000 0.000000 -1.734361
28 28.471622 0.000000 0.000000 0.000000 0.000000 1.868167
29 13.389685 0.268266 6.023556 -0.462585 -1.348926 -0.488759
30 9.768896 0.000000 0.000000 -1.771877 -0.166553 -1.410188
31 19.931143 0.000000 0.000000 0.000000 0.000000 -1.589097
32 26.044123 0.000000 0.000000 0.000000 0.000000 1.759861
33 -5.849912 4.319726 0.063164 0.317957 -0.120411 0.285757
34 -5.827132 4.411093 0.063164 -0.473378 -0.114691 0.284924
time 28
1 -0.063165 1.526461 24.601475 1.326786 -0.244346 1.570796
2 -5.577779 -0.123184 0.054231 -0.118809 0.170971 0.103748
3 -5.512521 -2.697434 -3.989360 0.406067 -0.135627 -0.988914
4 10.569404 0.000000 0.000000 0.000000 0.000000 -2.438895
5 13.357942 0.000000 0.000000 0.000000 0.000000 2.881886
6 -5.435715 -2.622672 3.516682 2.747960 0.105399 -1.032856
7 10.523520 0.000000 0.000000 0.000000 0.000000 2.454558
8 13.611951 0.000000 0.000000 0.000000 0.000000 -2.922814
9 -8.416650 1.073514 -0.018171 0.424681 -0.092400 0.099375
10 -9.984111 -4.710447 3.170796 0.239080 -3.136151 0.423455
11 5.945618 0.000000 0.000000 0.000000 0.000000 0.734082
12 -9.984111 -4.710445 -2.998739 -0.207126 0.046881 -2.710476
13 5.945623 0.000000 0.000000 0.000000 0.000000 -0.747036
14 -13.167567 0.616876 1.590356 -0.000000 0.000000 0.000000
15 -1.915743 -0.010427 0.304297 -0.000000 -0.000000 0.691150
16 -13.157713 0.632508 -1.795553 -0.000000 0.000000 0.000000
17 -2.207746 -0.183759 -0.037490 -0.000000 -0.000000 0.691151
18 -2.622040 -6.273479 8.263164 -2.388367 0.057910 -1.176741
19 11.485749 0.000000 0.000000 0.000000 0.000000 -1.753690
20 24.536903 0.000000 0.000000 0.000000 0.000000 2.018184
21 -2.622039 -6.273479 -8.136835 -0.654074 0.519035 -1.111652
22 11.659969 0.000000 0.000000 0.000000 0.000000 1.763381
23 25.724375 0.000000 0.000000 0.000000 0.000000 -1.967390
24 3.880158 -0.980432 0.090609 0.132481 -0.207386 0.153674
25 13.389689 0.268266 -6.517195 0.542283 1.306249 -0.395924
26 9.913784 0.000000 0.000000 1.521279 0.264522 -1.585548
27 21.016008 0.000000 0.000000 0.000000 0.000000 -1.699120
28 28.471622 0.000000 0.000000 0.000000 0.000000 1.804170
29 13.389685 0.268266 6.023556 -0.462585 -1.348926 -0.488759
30 9.768896 0.000000 0.000000 -1.843370 -0.281895 -1.360981
31 19.931143 0.000000 0.000000 0.000000 0.000000 -1.607569
32 26.044123 0.000000 0.000000 0.000000 0.000000 1.797627
33 -5.849912 4.319726 0.063164 0.365762 -0.132840 0.347674
34 -5.827132 4.411093 0.063164 -0.425598 -0.127088 0.347116
time 29
1 -0.194146 1.260460 25.156132 1.340565 -0.244346 1.570796
2 -5.577779 -0.123184 0.054231 -0.110588 0.162693 0.092671
3 -5.512521 -2.697434 -3.989360 0.406067 -0.135627 -0.988914
4 10.569404 0.000000 0.000000 0.000000 0.000000 -2.438894
5 13.357942 0.000000 0.000000 0.000000 0.000000 2.881885
6 -5.435715 -2.622672 3.516682 2.747960 0.105399 -1.032856
7 10.523520 0.000000 0.000000 0.000000 0.000000 2.454558
8 13.611951 0.000000 0.000000 0.000000 0.000000 -2.922814
9 -8.416650 1.073514 -0.018171 0.405776 -0.139622 0.277981
10 -9.984111 -4.710447 3.170796 0.239080 -3.136152 0.423452
11 5.945618 0.000000 0.000000 0.000000 0.000000 0.734077
12 -9.984111 -4.710445 -2.998739 -0.207126 0.046881 -2.710479
13 5.945623 0.000000 0.000000 0.000000 0.000000 -0.747031
14 -13.167567 0.616876 1.590356 0.000000 0.000000 -0.000000
15 -1.915743 -0.010427 0.304297 -0.000000 0.000000 0.691150
16 -13.157713 0.632508 -1.795553 0.000000 0.000001 -0.000000
17 -2.207746 -0.183759 -0.037490 -0.000000 -0.000000 0.691150
18 -2.622040 -6.273479 8.263164 -2.392071 0.050630 -1.186062
19 11.485749 0.000000 0.000000 0.000000 0.000000 -1.743449
20 24.536903 0.000000 0.000000 0.000000 0.000000 1.996228
21 -2.622039 -6.273479 -8.136835 -0.662782 0.493451 -1.130187
22 11.659969 0.000000 0.000000 0.000000 0.000000 1.756216
23 25.724375 0.000000 0.000000 0.000000 0.000000 -1.952195
24 3.880158 -0.980432 0.090609 0.110242 -0.216988 0.267013
25 13.389689 0.268266 -6.517195 0.542283 1.306249 -0.395924
26 9.913784 0.000000 0.000000 1.549475 0.328103 -1.608115
27 21.016008 0.000000 0.000000 0.000000 0.000000 -1.698495
28 28.471622 0.000000 0.000000 0.000000 0.000000 1.803037
29 13.389685 0.268266 6.023556 -0.462585 -1.348926 -0.488759
30 9.768896 0.000000 0.000000 -1.870702 -0.355557 -1.370564
31 19.931143 0.000000 0.000000 0.000000 0.000000 -1.602124
32 26.044123 0.000000 0.000000 0.000000 0.000000 1.786446
33 -5.849912 4.319726 0.063164 0.418232 -0.141370 0.416005
34 -5.827132 4.411093 0.063164 -0.373166 -0.135597 0.415751
time 30
1 -0.281467 1.083126 25.525904 1.368397 -0.244346 1.570796
2 -5.577779 -0.123184 0.054231 -0.098537 0.142392 0.059304
3 -5.512521 -2.697434 -3.989360 0.406067 -0.135627 -0.988914
4 10.569404 0.000000 0.000000 0.000000 0.000000 -2.438895
5 13.357942 0.000000 0.000000 0.000000 0.000000 2.881886
6 -5.435715 -2.622672 3.516682 2.747960 0.105400 -1.032856
7 10.523520 0.000000 0.000000 0.000000 0.000000 2.454558
8 13.611951 0.000000 0.000000 0.000000 0.000000 -2.922814
9 -8.416650 1.073514 -0.018171 0.360098 -0.143151 0.349229
10 -9.984111 -4.710447 3.170796 0.239080 -3.136152 0.423455
11 5.945618 0.000000 0.000000 0.000000 0.000000 0.734080
12 -9.984111 -4.710445 -2.998739 -0.207126 0.046881 -2.710476
13 5.945623 0.000000 0.000000 0.000000 0.000000 -0.747035
14 -13.167567 0.616876 1.590356 0.000000 0.000000 0.000000
15 -1.915743 -0.010427 0.304297 -0.000000 -0.000000 0.691150
16 -13.157713 0.632508 -1.795553 -0.000000 0.000000 0.000000
17 -2.207746 -0.183759 -0.037490 -0.000000 -0.000000 0.691150
18 -2.622040 -6.273479 8.263164 -2.399688 0.024572 -1.189050
19 11.485749 0.000000 0.000000 0.000000 0.000000 -1.738511
20 24.536903 0.000000 0.000000 0.000000 0.000000 1.985512
21 -2.622039 -6.273479 -8.136835 -0.675490 0.455983 -1.148576
22 11.659969 0.000000 0.000000 0.000000 0.000000 1.751435
23 25.724375 0.000000 0.000000 0.000000 0.000000 -1.942063
24 3.880158 -0.980432 0.090609 0.080432 -0.198158 0.385829
25 13.389689 0.268266 -6.517195 0.542283 1.306249 -0.395924
26 9.913784 0.000000 0.000000 1.591273 0.400092 -1.614025
27 21.016008 0.000000 0.000000 0.000000 0.000000 -1.709092
28 28.471622 0.000000 0.000000 0.000000 0.000000 1.822278
29 13.389685 0.268266 6.023556 -0.462585 -1.348926 -0.488759
30 9.768896 0.000000 0.000000 -1.881345 -0.433460 -1.397460
31 19.931143 0.000000 0.000000 0.000000 0.000000 -1.590402
32 26.044123 0.000000 0.000000 0.000000 0.000000 1.762514
33 -5.849912 4.319726 0.063164 0.468795 -0.147516 0.485442
34 -5.827132 4.411093 0.063164 -0.322645 -0.141737 0.485484
time 31
1 -0.325128 0.994458 25.710785 1.406066 -0.244346 1.570796
2 -5.577779 -0.123184 0.054231 -0.082788 0.114221 0.010163
3 -5.512521 -2.697434 -3.989360 0.406067 -0.135627 -0.988915
4 10.569404 0.000000 0.000000 0.000000 0.000000 -2.438895
5 13.357942 0.000000 0.000000 0.000000 0.000000 2.881886
6 -5.435715 -2.622672 3.516682 2.747959 0.105399 -1.032857
7 10.523520 0.000000 0.000000 0.000000 0.000000 2.454558
8 13.611951 0.000000 0.000000 0.000000 0.000000 -2.922815
9 -8.416650 1.073514 -0.018171 0.299703 -0.122809 0.359390
10 -9.984111 -4.710447 3.170796 0.239080 -3.136152 0.423453
11 5.945618 0.000000 0.000000 0.000000 0.000000 0.734081
12 -9.984111 -4.710445 -2.998739 -0.207126 0.046881 -2.710477
13 5.945623 0.000000 0.000000 0.000000 0.000000 -0.747036
14 -13.167567 0.616876 1.590356 0.000000 -0.000000 -0.000001
15 -1.915743 -0.010427 0.304297 -0.000000 -0.000000 0.691150
16 -13.157713 0.632508 -1.795553 -0.000000 0.000000 -0.000001
17 -2.207746 -0.183759 -0.037490 -0.000000 -0.000000 0.691151
18 -2.622040 -6.273479 8.263164 -2.410182 -0.015417 -1.186152
19 11.485749 0.000000 0.000000 0.000000 0.000000 -1.738233
20 24.536903 0.000000 0.000000 0.000000 0.000000 1.984909
21 -2.622039 -6.273479 -8.136835 -0.690157 0.410973 -1.164967
22 11.659969 0.000000 0.000000 0.000000 0.000000 1.748907
23 25.724375 0.000000 0.000000 0.000000 0.000000 -1.936705
24 3.880158 -0.980432 0.090609 0.051198 -0.158726 0.500279
25 13.389689 0.268266 -6.517195 0.542283 1.306249 -0.395924
26 9.913784 0.000000 0.000000 1.642865 0.474754 -1.607557
27 21.016008 0.000000 0.000000 0.000000 0.000000 -1.727062
28 28.471622 0.000000 0.000000 0.000000 0.000000 1.854742
29 13.389685 0.268266 6.023556 -0.462585 -1.348926 -0.488759
30 9.768896 0.000000 0.000000 -1.878148 -0.512244 -1.434203
31 19.931143 0.000000 0.000000 0.000000 0.000000 -1.576961
32 26.044123 0.000000 0.000000 0.000000 0.000000 1.735311
33 -5.849912 4.319726 0.063164 0.510860 -0.151429 0.550656
34 -5.827132 4.411093 0.063164 -0.280616 -0.145657 0.550942
time 32
1 -0.325128 0.994458 25.710787 1.449357 -0.244346 1.570796
2 -5.577779 -0.123184 0.054231 -0.063683 0.082268 -0.048257
3 -5.512521 -2.697434 -3.989360 0.406067 -0.135627 -0.988914
4 10.569404 0.000000 0.000000 0.000000 0.000000 -2.438895
5 13.357942 0.000000 0.000000 0.000000 0.000000 2.881885
6 -5.435715 -2.622672 3.516682 2.747960 0.105399 -1.032856
7 10.523520 0.000000 0.000000 0.000000 0.000000 2.454558
8 13.611951 0.000000 0.000000 0.000000 0.000000 -2.922814
9 -8.416650 1.073514 -0.018171 0.229281 -0.089889 0.326663
10 -9.984111 -4.710447 3.170796 0.239080 -3.136152 0.423454
11 5.945618 0.000000 0.000000 0.000000 0.000000 0.734081
12 -9.984111 -4.710445 -2.998739 -0.207126 0.046881 -2.710477
13 5.945623 0.000000 0.000000 0.000000 0.000000 -0.747035
14 -13.167567 0.616876 1.590356 -0.000000 -0.000000 -0.000000
15 -1.915743 -0.010427 0.304297 0.000000 -0.000000 0.691150
16 -13.157713 0.632508 -1.795553 0.000000 -0.000000 0.000000
17 -2.207746 -0.183759 -0.037490 -0.000000 0.000000 0.691150
18 -2.622040 -6.273479 8.263164 -2.422899 -0.064432 -1.177747
19 11.485749 0.000000 0.000000 0.000000 0.000000 -1.742013
20 24.536903 0.000000 0.000000 0.000000 0.000000 1.993111
21 -2.622039 -6.273479 -8.136835 -0.705391 0.362978 -1.177972
22 11.659969 0.000000 0.000000 0.000000 0.000000 1.748560
23 25.724375 0.000000 0.000000 0.000000 0.000000 -1.935971
24 3.880158 -0.980432 0.090609 0.027731 -0.108375 0.602178
25 13.389689 0.268266 -6.517195 0.542283 1.306249 -0.395924
26 9.913784 0.000000 0.000000 1.699848 0.546424 -1.593297
27 21.016008 0.000000 0.000000 0.000000 0.000000 -1.747787
28 28.471622 0.000000 0.000000 0.000000 0.000000 1.892958
29 13.389685 0.268266 6.023556 -0.462585 -1.348926 -0.488759
30 9.768896 0.000000 0.000000 -1.864786 -0.588122 -1.473493
31 19.931143 0.000000 0.000000 0.000000 0.000000 -1.565404
32 26.044123 0.000000 0.000000 0.000000 0.000000 1.712166
33 -5.849912 4.319726 0.063164 0.537869 -0.152087 0.606262
34 -5.827132 4.411093 0.063164 -0.253631 -0.146325 0.606706
time 33
1 -0.281467 1.083125 25.525900 1.494052 -0.244346 1.570796
2 -5.577779 -0.123184 0.054231 -0.042208 0.050380 -0.109414
3 -5.512521 -2.697434 -3.989360 0.406067 -0.135627 -0.988915
4 10.569404 0.000000 0.000000 0.000000 0.000000 -2.438895
5 13.357942 0.000000 0.000000 0.000000 0.000000 2.881886
6 -5.435715 -2.622672 3.516682 2.747959 0.105399 -1.032857
7 10.523520 0.000000 0.000000 0.000000 0.000000 2.454558
8 13.611951 0.000000 0.000000 0.000000 0.000000 -2.922815
9 -8.416650 1.073514 -0.018171 0.152327 -0.054379 0.270591
10 -9.984111 -4.710447 3.170796 0.239080 -3.136152 0.423454
11 5.945618 0.000000 0.000000 0.000000 0.000000 0.734082
12 -9.984111 -4.710445 -2.998739 -0.207126 0.046881 -2.710477
13 5.945623 0.000000 0.000000 0.000000 0.000000 -0.747035
14 -13.167567 0.616876 1.590356 0.000000 0.000000 0.000000
15 -1.915743 -0.010427 0.304297 -0.000000 -0.000000 0.691150
16 -13.157713 0.632508 -1.795553 -0.000000 0.000000 0.000000
17 -2.207746 -0.183759 -0.037490 -0.000000 -0.000000 0.691151
18 -2.622040 -6.273479 8.263164 -2.437323 -0.117527 -1.164279
19 11.485749 0.000000 0.000000 0.000000 0.000000 -1.749447
20 24.536903 0.000000 0.000000 0.000000 0.000000 2.008943
21 -2.622039 -6.273479 -8.136835 -0.720279 0.316746 -1.186591
22 11.659969 0.000000 0.000000 0.000000 0.000000 1.750428
23 25.724375 0.000000 0.000000 0.000000 0.000000 -1.939927
24 3.880158 -0.980432 0.090609 0.011948 -0.057841 0.684938
25 13.389689 0.268266 -6.517195 0.542283 1.306249 -0.395924
26 9.913784 0.000000 0.000000 1.756289 0.608113 -1.577121
27 21.016008 0.000000 0.000000 0.000000 0.000000 -1.767348
28 28.471622 0.000000 0.000000 0.000000 0.000000 1.929050
29 13.389685 0.268266 6.023556 -0.462585 -1.348926 -0.488759
30 9.768896 0.000000 0.000000 -1.845521 -0.657297 -1.507580
31 19.931143 0.000000 0.000000 0.000000 0.000000 -1.557936
32 26.044123 0.000000 0.000000 0.000000 0.000000 1.698267
33 -5.849912 4.319726 0.063164 0.530606 -0.123777 0.645872
34 -5.827132 4.411093 0.063164 -0.260876 -0.118012 0.646272
time 34
1 -0.194146 1.260459 25.156130 1.535938 -0.244346 1.570796
2 -5.577779 -0.123184 0.054231 -0.020146 0.021987 -0.166618
3 -5.512521 -2.697434 -3.989360 0.406067 -0.135627 -0.988915
4 10.569404 0.000000 0.000000 0.000000 0.000000 -2.438895
5 13.357942 0.000000 0.000000 0.000000 0.000000 2.881886
6 -5.435715 -2.622672 3.516682 2.747959 0.105399 -1.032857
7 10.523520 0.000000 0.000000 0.000000 0.000000 2.454558
8 13.611951 0.000000 0.000000 0.000000 0.000000 -2.922815
9 -8.416650 1.073514 -0.018171 0.073684 -0.023344 0.211986
10 -9.984111 -4.710447 3.170796 0.239080 -3.136152 0.423450
11 5.945618 0.000000 0.000000 0.000000 0.000000 0.734077
12 -9.984111 -4.710445 -2.998739 -0.207126 0.046881 -2.710481
13 5.945623 0.000000 0.000000 0.000000 0.000000 -0.747031
14 -13.167567 0.616876 1.590356 0.000000 0.000001 -0.000001
15 -1.915743 -0.010427 0.304297 -0.000000 -0.000000 0.691150
16 -13.157713 0.632508 -1.795553 0.000000 0.000000 -0.000001
17 -2.207746 -0.183759 -0.037490 -0.000000 -0.000000 0.691150
18 -2.622040 -6.273479 8.263164 -2.452878 -0.170032 -1.146052
19 11.485749 0.000000 0.000000 0.000000 0.000000 -1.759798
20 24.536903 0.000000 0.000000 0.000000 0.000000 2.031491
21 -2.622039 -6.273479 -8.136835 -0.734149 0.277190 -1.190070
22 11.659969 0.000000 0.000000 0.000000 0.000000 1.754694
23 25.724375 0.000000 0.000000 0.000000 0.000000 -1.948968
24 3.880158 -0.980432 0.090609 0.003264 -0.018121 0.742729
25 13.389689 0.268266 -6.517195 0.542283 1.306249 -0.395924
26 9.913784 0.000000 0.000000 1.804239 0.652786 -1.566811
27 21.016008 0.000000 0.000000 0.000000 0.000000 -1.781294
28 28.471622 0.000000 0.000000 0.000000 0.000000 1.955173
29 13.389685 0.268266 6.023556 -0.462585 -1.348926 -0.488759
30 9.768896 0.000000 0.000000 -1.824847 -0.714908 -1.528179
31 19.931143 0.000000 0.000000 0.000000 0.000000 -1.556726
32 26.044123 0.000000 0.000000 0.000000 0.000000 1.695873
33 -5.849912 4.319726 0.063164 0.495224 -0.062324 0.672427
34 -5.827132 4.411093 0.063164 -0.296221 -0.056549 0.672621
time 35
1 -0.063165 1.526461 24.601475 1.570796 -0.244346 1.570796
2 -5.577779 -0.123184 0.054231 0.000000 0.000000 -0.212930
3 -5.512521 -2.697434 -3.989360 0.406067 -0.135627 -0.988915
4 10.569404 0.000000 0.000000 0.000000 0.000000 -2.438895
5 13.357942 0.000000 0.000000 0.000000 0.000000 2.881886
6 -5.435715 -2.622672 3.516682 2.747960 0.105399 -1.032857
7 10.523520 0.000000 0.000000 0.000000 0.000000 2.454558
8 13.611951 0.000000 0.000000 0.000000 0.000000 -2.922815
9 -8.416650 1.073514 -0.018171 -0.000000 -0.000000 0.172787
10 -9.984111 -4.710447 3.170796 0.239080 -3.136152 0.423454
11 5.945618 0.000000 0.000000 0.000000 0.000000 0.734079
12 -9.984111 -4.710445 -2.998739 -0.207126 0.046881 -2.710477
13 5.945623 0.000000 0.000000 0.000000 0.000000 -0.747033
14 -13.167567 0.616876 1.590356 0.000000 0.000000 -0.000000
15 -1.915743 -0.010427 0.304297 -0.000000 0.000000 0.691150
16 -13.157713 0.632508 -1.795553 0.000000 0.000000 0.000000
17 -2.207746 -0.183759 -0.037490 -0.000000 0.000000 0.691150
18 -2.622040 -6.273479 8.263164 -2.468646 -0.217123 -1.123870
19 11.485749 0.000000 0.000000 0.000000 0.000000 -1.772896
20 24.536903 0.000000 0.000000 0.000000 0.000000 2.060047
21 -2.622039 -6.273479 -8.136835 -0.746295 0.249318 -1.187767
22 11.659969 0.000000 0.000000 0.000000 0.000000 1.761558
23 25.724375 0.000000 0.000000 0.000000 0.000000 -1.963523
24 3.880158 -0.980432 0.090609 0.000000 0.000000 0.769690
25 13.389689 0.268266 -6.517195 0.542283 1.306249 -0.395924
26 9.913784 0.000000 0.000000 1.834192 0.672503 -1.571874
27 21.016008 0.000000 0.000000 0.000000 0.000000 -1.785759
28 28.471622 0.000000 0.000000 0.000000 0.000000 1.963563
29 13.389685 0.268266 6.023556 -0.462585 -1.348926 -0.488759
30 9.768896 0.000000 0.000000 -1.807695 -0.756949 -1.525771
31 19.931143 0.000000 0.000000 0.000000 0.000000 -1.562128
32 26.044123 0.000000 0.000000 0.000000 0.000000 1.705955
33 -5.849912 4.319726 0.063164 0.461552 0.000000 0.696735
34 -5.827132 4.411093 0.063164 -0.329881 0.005779 0.696734
end
