version 1
nodes
0 "Antlion.AntLionMesh" -1
1 "Antlion.Body_Bone" -1
2 "Antlion.Chest_Bone" 1
3 "Antlion.ArmR1_Bone" 2
4 "Antlion.ArmR2_Bone" 3
5 "Antlion.ArmR3_Bone" 4
6 "Antlion.ArmL1_Bone" 2
7 "Antlion.ArmL2_Bone" 6
8 "Antlion.ArmL3_Bone" 7
9 "Antlion.Head_Bone" 2
10 "Antlion.FangBottomL1_Bone" 9
11 "Antlion.FangBottomL2_Bone" 10
12 "Antlion.FangBottomR1_Bone" 9
13 "Antlion.FangBottomR2_Bone" 12
14 "Antlion.FangTopL1_Bone" 9
15 "Antlion.FangTopL2_Bone" 14
16 "Antlion.FangTopR1_Bone" 9
17 "Antlion.FangTopR2_Bone" 16
18 "Antlion.LegMidL1_Bone" 1
19 "Antlion.LegMidL2_Bone" 18
20 "Antlion.LegMidL3_Bone" 19
21 "Antlion.LegMidR1_Bone" 1
22 "Antlion.LegMidR2_Bone" 21
23 "Antlion.LegMidR3_Bone" 22
24 "Antlion.Back_Bone" 1
25 "Antlion.LegShoulder_R_Bone" 24
26 "Antlion.LegL1_Bone" 25
27 "Antlion.LegL2_Bone" 26
28 "Antlion.LegL3_Bone" 27
29 "Antlion.LegShoulder_L_Bone" 24
30 "Antlion.LegR1_Bone" 29
31 "Antlion.LegR2_Bone" 30
32 "Antlion.LegR3_Bone" 31
33 "Antlion.WingL_Bone" 1
34 "Antlion.WingR_Bone" 1
end
skeleton
time 0
0 -0.077740 -0.000000 0.000001 1.570796 0.000000 0.000000
1 0.062619 -31.775248 25.151169 1.584699 0.453612 1.695080
2 -5.577779 -0.123184 0.054231 0.018488 -0.006950 0.338595
3 -5.512521 -2.697434 -3.989360 0.363347 0.009738 -0.866452
4 10.569404 0.000000 0.000000 0.000000 0.000000 -2.472042
5 13.357942 0.000000 0.000000 0.000000 0.000000 3.039910
6 -5.435715 -2.622672 3.516682 2.817252 0.025838 -0.650765
7 10.523520 0.000000 0.000000 0.000000 0.000000 2.451059
8 13.611951 0.000000 0.000000 0.000000 0.000000 -2.911771
9 -8.416650 1.073514 -0.018171 0.084412 -0.030420 0.002885
10 -9.984111 -4.710447 3.170796 0.239080 -3.136152 0.423455
11 5.945618 0.000000 0.000000 0.000000 0.000000 0.734084
12 -9.984111 -4.710445 -2.998739 -0.207126 0.046881 -2.710476
13 5.945623 0.000000 0.000000 0.000000 0.000000 -0.747037
14 -13.167567 0.616876 1.590356 0.000000 -0.000000 -0.000000
15 -1.915743 -0.010427 0.304297 -0.000000 0.000000 0.691150
16 -13.157713 0.632508 -1.795553 -0.000000 -0.000000 0.000000
17 -2.207746 -0.183759 -0.037490 0.000000 0.000000 0.691150
18 -2.622040 -6.273479 8.263164 -2.768564 -0.052540 -0.135044
19 11.485749 0.000000 0.000000 0.000000 0.000000 -1.901816
20 24.536903 0.000000 0.000000 0.000000 0.000000 2.340361
21 -2.622039 -6.273479 -8.136835 -0.274067 -0.155230 -0.565617
22 11.659969 0.000000 0.000000 0.000000 0.000000 1.748560
23 25.724375 0.000000 0.000000 0.000000 0.000000 -1.935972
24 3.880158 -0.980432 0.090609 0.028694 -0.093848 0.500463
25 13.389689 0.268266 -6.517195 0.542283 1.306249 -0.395924
26 9.913784 0.000000 0.000000 1.421485 0.417680 -1.734573
27 21.016008 0.000000 0.000000 0.000000 0.000000 0.000000
28 28.471622 0.000000 0.000000 0.000000 0.000000 0.000000
29 13.389685 0.268266 6.023556 -0.462585 -1.348926 -0.488759
30 9.768896 0.000000 0.000000 -1.818388 -0.418945 -1.466441
31 19.931143 0.000000 0.000000 0.000000 0.000000 -1.968491
32 26.044123 0.000000 0.000000 0.000000 0.000000 2.731988
33 -5.849912 4.319726 0.063164 0.472607 -0.110452 0.611740
34 -5.827132 4.411093 0.063164 -0.050407 -0.038014 0.600565
time 1
1 0.062669 -43.605251 24.716888 1.621558 0.480323 1.671261
2 -5.577779 -0.123184 0.054231 -0.060357 0.060443 0.330028
3 -5.512521 -2.697434 -3.989360 0.368420 -0.000659 -0.917945
4 10.569404 0.000000 0.000000 0.000000 0.000000 -2.471672
5 13.357942 0.000000 0.000000 0.000000 0.000000 3.081277
6 -5.435715 -2.622672 3.516682 2.808929 0.002132 -0.799255
7 10.523520 0.000000 0.000000 0.000000 0.000000 2.475620
8 13.611951 0.000000 0.000000 0.000000 0.000000 -3.046492
9 -8.416650 1.073514 -0.018171 0.121272 -0.007411 -0.005181
10 -9.984111 -4.710447 3.170796 0.239080 -3.136151 0.423457
11 5.945618 0.000000 0.000000 0.000000 0.000000 0.734088
12 -9.984111 -4.710445 -2.998739 -0.207126 0.046881 -2.710476
13 5.945623 0.000000 0.000000 0.000000 0.000000 -0.747038
14 -13.167567 0.616876 1.590356 0.000000 0.000000 -0.000000
15 -1.915743 -0.010427 0.304297 -0.000000 -0.000000 0.691150
16 -13.157713 0.632508 -1.795553 -0.000000 0.000000 0.000000
17 -2.207746 -0.183759 -0.037490 0.000000 -0.000000 0.691150
18 -2.622040 -6.273479 8.263164 -2.638290 -0.359373 -0.154089
19 11.485749 0.000000 0.000000 0.000000 0.000000 -2.200666
20 24.536903 0.000000 0.000000 0.000000 0.000000 3.015534
21 -2.622039 -6.273479 -8.136835 -0.477710 -0.299949 -0.453122
22 11.659969 0.000000 0.000000 0.000000 0.000000 1.495641
23 25.724375 0.000000 0.000000 0.000000 0.000000 -1.423355
24 3.880158 -0.980432 0.090609 0.066489 -0.070152 0.586447
25 13.389689 0.268266 -6.517195 0.542283 1.306249 -0.395924
26 9.913784 0.000000 0.000000 1.586053 -0.005003 -1.765816
27 21.016008 0.000000 0.000000 0.000000 0.000000 -1.098606
28 28.471622 0.000000 0.000000 0.000000 0.000000 0.879256
29 13.389685 0.268266 6.023556 -0.462585 -1.348926 -0.488759
30 9.768896 0.000000 0.000000 -1.543993 -0.295436 -1.585739
31 19.931143 0.000000 0.000000 0.000000 0.000000 -1.646393
32 26.044123 0.000000 0.000000 0.000000 0.000000 1.878243
33 -5.849912 4.319726 0.063164 0.441013 -0.056818 0.624905
34 -5.827132 4.411093 0.063164 -0.067922 0.021557 0.604191
time 2
1 0.062719 -55.435268 23.664120 1.634604 0.502083 1.622631
2 -5.577779 -0.123184 0.054231 -0.111678 0.099269 0.305268
3 -5.512521 -2.697434 -3.989360 0.368181 -0.007929 -0.920170
4 10.569404 0.000000 0.000000 0.000000 0.000000 -2.468788
5 13.357942 0.000000 0.000000 0.000000 0.000000 3.091339
6 -5.435715 -2.622672 3.516682 2.803150 -0.022820 -0.913467
7 10.523520 0.000000 0.000000 0.000000 0.000000 2.465823
8 13.611951 0.000000 0.000000 0.000000 0.000000 -3.128422
9 -8.416650 1.073514 -0.018171 0.145676 0.012195 -0.028889
10 -9.984111 -4.710447 3.170796 0.239080 -3.136152 0.423455
11 5.945618 0.000000 0.000000 0.000000 0.000000 0.734081
12 -9.984111 -4.710445 -2.998739 -0.207126 0.046881 -2.710476
13 5.945623 0.000000 0.000000 0.000000 0.000000 -0.747036
14 -13.167567 0.616876 1.590356 0.000000 0.000000 -0.000000
15 -1.915743 -0.010427 0.304297 -0.000000 0.000000 0.691150
16 -13.157713 0.632508 -1.795553 0.000000 0.000000 -0.000000
17 -2.207746 -0.183759 -0.037490 -0.000000 -0.000000 0.691150
18 -2.622040 -6.273479 8.263164 -2.284249 -0.170288 -0.832114
19 11.485749 0.000000 0.000000 0.000000 0.000000 -2.151154
20 24.536903 0.000000 0.000000 0.000000 0.000000 2.878558
21 -2.622039 -6.273479 -8.136835 -0.652004 -0.339612 -0.286401
22 11.659969 0.000000 0.000000 0.000000 0.000000 1.059898
23 25.724375 0.000000 0.000000 0.000000 0.000000 -0.709320
24 3.880158 -0.980432 0.090609 0.107383 -0.034574 0.640108
25 13.389689 0.268266 -6.517195 0.542283 1.306249 -0.395924
26 9.913784 0.000000 0.000000 1.663641 -0.012465 -1.811456
27 21.016008 0.000000 0.000000 0.000000 0.000000 -1.494916
28 28.471622 0.000000 0.000000 0.000000 0.000000 1.452784
29 13.389685 0.268266 6.023556 -0.462585 -1.348926 -0.488759
30 9.768896 0.000000 0.000000 -1.413332 -0.296681 -1.574437
31 19.931143 0.000000 0.000000 0.000000 0.000000 -0.994485
32 26.044123 0.000000 0.000000 0.000000 0.000000 0.792617
33 -5.849912 4.319726 0.063164 0.395298 0.017945 0.660044
34 -5.827132 4.411093 0.063164 -0.069907 0.079127 0.644943
time 3
1 0.062769 -67.265282 22.456915 1.634732 0.509645 1.589150
2 -5.577779 -0.123184 0.054231 -0.134914 0.109754 0.271731
3 -5.512521 -2.697434 -3.989360 0.358593 -0.008697 -0.868682
4 10.569404 0.000000 0.000000 0.000000 0.000000 -2.471821
5 13.357942 0.000000 0.000000 0.000000 0.000000 3.078969
6 -5.435715 -2.622672 3.516682 2.800692 -0.042862 -0.973487
7 10.523520 0.000000 0.000000 0.000000 0.000000 2.456019
8 13.611951 0.000000 0.000000 0.000000 0.000000 -3.159437
9 -8.416650 1.073514 -0.018171 0.157169 0.028015 -0.069596
10 -9.984111 -4.710447 3.170796 0.239080 -3.136152 0.423456
11 5.945618 0.000000 0.000000 0.000000 0.000000 0.734084
12 -9.984111 -4.710445 -2.998739 -0.207126 0.046881 -2.710475
13 5.945623 0.000000 0.000000 0.000000 0.000000 -0.747036
14 -13.167567 0.616876 1.590356 0.000000 0.000000 0.000000
15 -1.915743 -0.010427 0.304297 -0.000000 -0.000000 0.691150
16 -13.157713 0.632508 -1.795553 0.000000 0.000000 0.000000
17 -2.207746 -0.183759 -0.037490 -0.000000 -0.000000 0.691150
18 -2.622040 -6.273479 8.263164 -2.738287 -0.068193 -0.477865
19 11.485749 0.000000 0.000000 0.000000 0.000000 -2.051431
20 24.536903 0.000000 0.000000 0.000000 0.000000 2.659772
21 -2.622039 -6.273479 -8.136835 -0.746646 -0.315211 -0.101644
22 11.659969 0.000000 0.000000 0.000000 0.000000 0.841848
23 25.724375 0.000000 0.000000 0.000000 0.000000 -0.456500
24 3.880158 -0.980432 0.090609 0.121408 -0.020891 0.654188
25 13.389689 0.268266 -6.517195 0.542283 1.306249 -0.395924
26 9.913784 0.000000 0.000000 1.717615 0.035762 -1.816059
27 21.016008 0.000000 0.000000 0.000000 0.000000 -1.762321
28 28.471622 0.000000 0.000000 0.000000 0.000000 1.919663
29 13.389685 0.268266 6.023556 -0.462585 -1.348926 -0.488759
30 9.768896 0.000000 0.000000 -1.323873 -0.665876 -1.678950
31 19.931143 0.000000 0.000000 0.000000 0.000000 0.000000
32 26.044123 0.000000 0.000000 0.000000 0.000000 0.000000
33 -5.849912 4.319726 0.063164 0.371412 0.044411 0.685216
34 -5.827132 4.411093 0.063164 -0.065725 0.103857 0.723416
time 4
1 0.062819 -79.095299 21.694477 1.615384 0.488855 1.587837
2 -5.577779 -0.123184 0.054231 -0.104942 0.080374 0.252865
3 -5.512521 -2.697434 -3.989360 0.348136 -0.020155 -0.766214
4 10.569404 0.000000 0.000000 0.000000 0.000000 -2.469391
5 13.357942 0.000000 0.000000 0.000000 0.000000 3.008948
6 -5.435715 -2.622672 3.516682 2.799891 -0.057961 -0.946050
7 10.523520 0.000000 0.000000 0.000000 0.000000 2.468501
8 13.611951 0.000000 0.000000 0.000000 0.000000 -3.116155
9 -8.416650 1.073514 -0.018171 0.155924 0.041032 -0.142959
10 -9.984111 -4.710447 3.170796 0.239080 -3.136152 0.423454
11 5.945618 0.000000 0.000000 0.000000 0.000000 0.734078
12 -9.984111 -4.710445 -2.998739 -0.207126 0.046881 -2.710477
13 5.945623 0.000000 0.000000 0.000000 0.000000 -0.747032
14 -13.167567 0.616876 1.590356 0.000000 0.000000 0.000000
15 -1.915743 -0.010427 0.304297 -0.000000 0.000000 0.691150
16 -13.157713 0.632508 -1.795553 0.000000 0.000000 0.000001
17 -2.207746 -0.183759 -0.037490 -0.000000 -0.000000 0.691150
18 -2.622040 -6.273479 8.263164 -2.813337 0.023883 -0.390807
19 11.485749 0.000000 0.000000 0.000000 0.000000 -1.878175
20 24.536903 0.000000 0.000000 0.000000 0.000000 2.289309
21 -2.622039 -6.273479 -8.136835 -0.678981 -0.375810 -0.112812
22 11.659969 0.000000 0.000000 0.000000 0.000000 1.252085
23 25.724375 0.000000 0.000000 0.000000 0.000000 -0.991694
24 3.880158 -0.980432 0.090609 0.113431 -0.011180 0.636641
25 13.389689 0.268266 -6.517195 0.542283 1.306249 -0.395924
26 9.913784 0.000000 0.000000 1.777929 0.129329 -1.750018
27 21.016008 0.000000 0.000000 0.000000 0.000000 -1.989771
28 28.471622 0.000000 0.000000 0.000000 0.000000 2.362320
29 13.389685 0.268266 6.023556 -0.462585 -1.348926 -0.488759
30 9.768896 0.000000 0.000000 -1.401894 -0.581026 -1.696522
31 19.931143 0.000000 0.000000 0.000000 0.000000 0.000000
32 26.044123 0.000000 0.000000 0.000000 0.000000 0.000000
33 -5.849912 4.319726 0.063164 0.355612 0.041859 0.718694
34 -5.827132 4.411093 0.063164 -0.055206 0.095740 0.778126
time 5
1 0.062869 -90.925308 21.646860 1.576325 0.446483 1.604139
2 -5.577779 -0.123184 0.054231 -0.027023 0.019268 0.255273
3 -5.512521 -2.697434 -3.989360 0.344512 -0.058510 -0.619576
4 10.569404 0.000000 0.000000 0.000000 0.000000 -2.414285
5 13.357942 0.000000 0.000000 0.000000 0.000000 2.819887
6 -5.435715 -2.622672 3.516682 2.793261 -0.063183 -0.840512
7 10.523520 0.000000 0.000000 0.000000 0.000000 2.471304
8 13.611951 0.000000 0.000000 0.000000 0.000000 -2.993959
9 -8.416650 1.073514 -0.018171 0.142686 0.043152 -0.204814
10 -9.984111 -4.710447 3.170796 0.239080 -3.136151 0.423457
11 5.945618 0.000000 0.000000 0.000000 0.000000 0.734086
12 -9.984111 -4.710445 -2.998739 -0.207126 0.046881 -2.710474
13 5.945623 0.000000 0.000000 0.000000 0.000000 -0.747038
14 -13.167567 0.616876 1.590356 0.000000 0.000000 0.000000
15 -1.915743 -0.010427 0.304297 -0.000000 0.000000 0.691150
16 -13.157713 0.632508 -1.795553 0.000000 0.000000 0.000000
17 -2.207746 -0.183759 -0.037490 -0.000000 -0.000000 0.691150
18 -2.622040 -6.273479 8.263164 -2.809916 0.084740 -0.414466
19 11.485749 0.000000 0.000000 0.000000 0.000000 -1.665944
20 24.536903 0.000000 0.000000 0.000000 0.000000 1.829802
21 -2.622039 -6.273479 -8.136835 -0.573321 -0.302944 -0.127795
22 11.659969 0.000000 0.000000 0.000000 0.000000 1.719932
23 25.724375 0.000000 0.000000 0.000000 0.000000 -1.876080
24 3.880158 -0.980432 0.090609 0.063980 -0.004152 0.576579
25 13.389689 0.268266 -6.517195 0.542283 1.306249 -0.395924
26 9.913784 0.000000 0.000000 1.722500 0.309942 -1.590576
27 21.016008 0.000000 0.000000 0.000000 0.000000 -2.176488
28 28.471622 0.000000 0.000000 0.000000 0.000000 2.827093
29 13.389685 0.268266 6.023556 -0.462585 -1.348926 -0.488759
30 9.768896 0.000000 0.000000 -1.567505 -0.140026 -1.717342
31 19.931143 0.000000 0.000000 0.000000 0.000000 -0.990250
32 26.044123 0.000000 0.000000 0.000000 0.000000 0.788833
33 -5.849912 4.319726 0.063164 0.348779 0.019270 0.745209
34 -5.827132 4.411093 0.063164 -0.042760 0.067144 0.791856
time 6
1 0.062919 -102.755318 22.284401 1.537935 0.404681 1.630661
2 -5.577779 -0.123184 0.054231 0.054188 -0.044235 0.264325
3 -5.512521 -2.697434 -3.989360 0.343871 -0.080248 -0.537912
4 10.569404 0.000000 0.000000 0.000000 0.000000 -2.339769
5 13.357942 0.000000 0.000000 0.000000 0.000000 2.665422
6 -5.435715 -2.622672 3.516682 2.783318 -0.062838 -0.740324
7 10.523520 0.000000 0.000000 0.000000 0.000000 2.434113
8 13.611951 0.000000 0.000000 0.000000 0.000000 -2.863481
9 -8.416650 1.073514 -0.018171 0.105761 0.019899 -0.204878
10 -9.984111 -4.710447 3.170796 0.239080 -3.136151 0.423457
11 5.945618 0.000000 0.000000 0.000000 0.000000 0.734085
12 -9.984111 -4.710445 -2.998739 -0.207126 0.046881 -2.710477
13 5.945623 0.000000 0.000000 0.000000 0.000000 -0.747034
14 -13.167567 0.616876 1.590356 -0.000000 0.000000 0.000000
15 -1.915743 -0.010427 0.304297 -0.000000 -0.000000 0.691150
16 -13.157713 0.632508 -1.795553 -0.000000 0.000000 0.000000
17 -2.207746 -0.183759 -0.037490 -0.000000 -0.000000 0.691150
18 -2.622040 -6.273479 8.263164 -2.779537 0.121910 -0.457245
19 11.485749 0.000000 0.000000 0.000000 0.000000 -1.370131
20 24.536903 0.000000 0.000000 0.000000 0.000000 1.239504
21 -2.622039 -6.273479 -8.136835 -0.515494 -0.133932 -0.113596
22 11.659969 0.000000 0.000000 0.000000 0.000000 1.973831
23 25.724375 0.000000 0.000000 0.000000 0.000000 -2.411667
24 3.880158 -0.980432 0.090609 -0.008391 -0.011685 0.492211
25 13.389689 0.268266 -6.517195 0.542283 1.306249 -0.395924
26 9.913784 0.000000 0.000000 1.636238 0.462439 -1.621181
27 21.016008 0.000000 0.000000 0.000000 0.000000 -2.097609
28 28.471622 0.000000 0.000000 0.000000 0.000000 2.599722
29 13.389685 0.268266 6.023556 -0.462585 -1.348926 -0.488759
30 9.768896 0.000000 0.000000 -1.641306 -0.057639 -1.756461
31 19.931143 0.000000 0.000000 0.000000 0.000000 -1.403156
32 26.044123 0.000000 0.000000 0.000000 0.000000 1.409155
33 -5.849912 4.319726 0.063164 0.352040 -0.013794 0.747971
34 -5.827132 4.411093 0.063164 -0.032745 0.030492 0.770036
time 7
1 0.062968 -114.585335 23.577438 1.520597 0.385601 1.660007
2 -5.577779 -0.123184 0.054231 0.095746 -0.078811 0.281064
3 -5.512521 -2.697434 -3.989360 0.345767 -0.082226 -0.529221
4 10.569404 0.000000 0.000000 0.000000 0.000000 -2.321168
5 13.357942 0.000000 0.000000 0.000000 0.000000 2.631239
6 -5.435715 -2.622672 3.516682 2.780594 -0.056928 -0.687146
7 10.523520 0.000000 0.000000 0.000000 0.000000 2.407432
8 13.611951 0.000000 0.000000 0.000000 0.000000 -2.800097
9 -8.416650 1.073514 -0.018171 0.055321 -0.014193 -0.160689
10 -9.984111 -4.710447 3.170796 0.239080 -3.136152 0.423451
11 5.945618 0.000000 0.000000 0.000000 0.000000 0.734078
12 -9.984111 -4.710445 -2.998739 -0.207126 0.046881 -2.710479
13 5.945623 0.000000 0.000000 0.000000 0.000000 -0.747033
14 -13.167567 0.616876 1.590356 -0.000000 0.000000 -0.000000
15 -1.915743 -0.010427 0.304297 -0.000000 -0.000000 0.691150
16 -13.157713 0.632508 -1.795553 0.000000 0.000000 -0.000000
17 -2.207746 -0.183759 -0.037490 -0.000000 -0.000000 0.691150
18 -2.622040 -6.273479 8.263164 -2.690209 0.046686 -0.230738
19 11.485749 0.000000 0.000000 0.000000 0.000000 -0.510166
20 24.536903 0.000000 0.000000 0.000000 0.000000 0.208963
21 -2.622039 -6.273479 -8.136835 -0.530680 0.067812 -0.256768
22 11.659969 0.000000 0.000000 0.000000 0.000000 2.135413
23 25.724375 0.000000 0.000000 0.000000 0.000000 -2.737370
24 3.880158 -0.980432 0.090609 -0.050959 -0.029739 0.439281
25 13.389689 0.268266 -6.517195 0.542283 1.306249 -0.395924
26 9.913784 0.000000 0.000000 1.548866 0.292161 -1.616179
27 21.016008 0.000000 0.000000 0.000000 0.000000 -1.686533
28 28.471622 0.000000 0.000000 0.000000 0.000000 1.781415
29 13.389685 0.268266 6.023556 -0.462585 -1.348926 -0.488759
30 9.768896 0.000000 0.000000 -1.680951 -0.054379 -1.749351
31 19.931143 0.000000 0.000000 0.000000 0.000000 -1.649581
32 26.044123 0.000000 0.000000 0.000000 0.000000 1.885014
33 -5.849912 4.319726 0.063164 0.366303 -0.047500 0.709412
34 -5.827132 4.411093 0.063164 -0.029379 -0.001736 0.719224
time 8
1 0.063018 -126.415344 24.765100 1.528213 0.398171 1.681817
2 -5.577779 -0.123184 0.054231 0.092001 -0.077256 0.305711
3 -5.512521 -2.697434 -3.989360 0.349840 -0.074185 -0.563438
4 10.569404 0.000000 0.000000 0.000000 0.000000 -2.344273
5 13.357942 0.000000 0.000000 0.000000 0.000000 2.674054
6 -5.435715 -2.622672 3.516682 2.787930 -0.041452 -0.666799
7 10.523520 0.000000 0.000000 0.000000 0.000000 2.410150
8 13.611951 0.000000 0.000000 0.000000 0.000000 -2.806208
9 -8.416650 1.073514 -0.018171 0.028473 -0.033487 -0.090084
10 -9.984111 -4.710447 3.170796 0.239080 -3.136153 0.423450
11 5.945618 0.000000 0.000000 0.000000 0.000000 0.734070
12 -9.984111 -4.710445 -2.998739 -0.207126 0.046881 -2.710476
13 5.945623 0.000000 0.000000 0.000000 0.000000 -0.747036
14 -13.167567 0.616876 1.590356 0.000000 0.000000 0.000000
15 -1.915743 -0.010427 0.304297 -0.000000 -0.000000 0.691150
16 -13.157713 0.632508 -1.795553 -0.000000 0.000000 0.000000
17 -2.207746 -0.183759 -0.037490 -0.000000 -0.000000 0.691150
18 -2.622040 -6.273479 8.263164 -2.726247 0.051095 -0.136387
19 11.485749 0.000000 0.000000 0.000000 0.000000 -0.619123
20 24.536903 0.000000 0.000000 0.000000 0.000000 0.280985
21 -2.622039 -6.273479 -8.136835 -0.597614 0.021866 -0.821430
22 11.659969 0.000000 0.000000 0.000000 0.000000 2.118417
23 25.724375 0.000000 0.000000 0.000000 0.000000 -2.704005
24 3.880158 -0.980432 0.090609 -0.049414 -0.047431 0.432605
25 13.389689 0.268266 -6.517195 0.542283 1.306249 -0.395924
26 9.913784 0.000000 0.000000 1.480029 0.226102 -1.586241
27 21.016008 0.000000 0.000000 0.000000 0.000000 -1.012902
28 28.471622 0.000000 0.000000 0.000000 0.000000 0.773662
29 13.389685 0.268266 6.023556 -0.462585 -1.348926 -0.488759
30 9.768896 0.000000 0.000000 -1.713586 -0.115604 -1.689681
31 19.931143 0.000000 0.000000 0.000000 0.000000 -1.838129
32 26.044123 0.000000 0.000000 0.000000 0.000000 2.318543
33 -5.849912 4.319726 0.063164 0.400972 -0.078248 0.660247
34 -5.827132 4.411093 0.063164 -0.032619 -0.021917 0.663375
time 9
1 0.063068 -138.245377 25.232866 1.550086 0.426079 1.692560
2 -5.577779 -0.123184 0.054231 0.065864 -0.053710 0.327822
3 -5.512521 -2.697434 -3.989360 0.356418 -0.050652 -0.655707
4 10.569404 0.000000 0.000000 0.000000 0.000000 -2.406293
5 13.357942 0.000000 0.000000 0.000000 0.000000 2.801730
6 -5.435715 -2.622672 3.516682 2.801080 -0.015275 -0.655547
7 10.523520 0.000000 0.000000 0.000000 0.000000 2.427043
8 13.611951 0.000000 0.000000 0.000000 0.000000 -2.845510
9 -8.416650 1.073514 -0.018171 0.045040 -0.040490 -0.025751
10 -9.984111 -4.710447 3.170796 0.239080 -3.136151 0.423458
11 5.945618 0.000000 0.000000 0.000000 0.000000 0.734090
12 -9.984111 -4.710445 -2.998739 -0.207126 0.046880 -2.710480
13 5.945623 0.000000 0.000000 0.000000 0.000000 -0.747029
14 -13.167567 0.616876 1.590356 0.000000 0.000000 -0.000000
15 -1.915743 -0.010427 0.304297 -0.000000 0.000000 0.691150
16 -13.157713 0.632508 -1.795553 0.000000 -0.000000 -0.000000
17 -2.207746 -0.183759 -0.037490 0.000000 0.000000 0.691150
18 -2.622040 -6.273479 8.263164 -2.808975 0.109272 -0.247892
19 11.485749 0.000000 0.000000 0.000000 0.000000 -1.266519
20 24.536903 0.000000 0.000000 0.000000 0.000000 1.057016
21 -2.622039 -6.273479 -8.136835 -0.370796 -0.093272 -0.653829
22 11.659969 0.000000 0.000000 0.000000 0.000000 1.952402
23 25.724375 0.000000 0.000000 0.000000 0.000000 -2.367152
24 3.880158 -0.980432 0.090609 -0.022453 -0.067977 0.453228
25 13.389689 0.268266 -6.517195 0.542283 1.306249 -0.395924
26 9.913784 0.000000 0.000000 1.428917 0.352353 -1.643429
27 21.016008 0.000000 0.000000 0.000000 0.000000 -0.323497
28 28.471622 0.000000 0.000000 0.000000 0.000000 0.176310
29 13.389685 0.268266 6.023556 -0.462585 -1.348926 -0.488759
30 9.768896 0.000000 0.000000 -1.742213 -0.270349 -1.559354
31 19.931143 0.000000 0.000000 0.000000 0.000000 -1.972784
32 26.044123 0.000000 0.000000 0.000000 0.000000 2.753008
33 -5.849912 4.319726 0.063164 0.446071 -0.102093 0.631987
34 -5.827132 4.411093 0.063164 -0.039630 -0.032925 0.623114
end
