version 1
nodes
0 "Antlion.AntLionMesh" -1
1 "Antlion.Body_Bone" -1
2 "Antlion.Chest_Bone" 1
3 "Antlion.ArmR1_Bone" 2
4 "Antlion.ArmR2_Bone" 3
5 "Antlion.ArmR3_Bone" 4
6 "Antlion.ArmL1_Bone" 2
7 "Antlion.ArmL2_Bone" 6
8 "Antlion.ArmL3_Bone" 7
9 "Antlion.Head_Bone" 2
10 "Antlion.FangBottomL1_Bone" 9
11 "Antlion.FangBottomL2_Bone" 10
12 "Antlion.FangBottomR1_Bone" 9
13 "Antlion.FangBottomR2_Bone" 12
14 "Antlion.FangTopL1_Bone" 9
15 "Antlion.FangTopL2_Bone" 14
16 "Antlion.FangTopR1_Bone" 9
17 "Antlion.FangTopR2_Bone" 16
18 "Antlion.LegMidL1_Bone" 1
19 "Antlion.LegMidL2_Bone" 18
20 "Antlion.LegMidL3_Bone" 19
21 "Antlion.LegMidR1_Bone" 1
22 "Antlion.LegMidR2_Bone" 21
23 "Antlion.LegMidR3_Bone" 22
24 "Antlion.Back_Bone" 1
25 "Antlion.LegShoulder_R_Bone" 24
26 "Antlion.LegL1_Bone" 25
27 "Antlion.LegL2_Bone" 26
28 "Antlion.LegL3_Bone" 27
29 "Antlion.LegShoulder_L_Bone" 24
30 "Antlion.LegR1_Bone" 29
31 "Antlion.LegR2_Bone" 30
32 "Antlion.LegR3_Bone" 31
33 "Antlion.WingL_Bone" 1
34 "Antlion.WingR_Bone" 1
end
skeleton
time 0
0 -0.077740 -0.000000 0.000001 1.570796 0.000000 0.000000
1 -0.063165 1.526461 24.601475 1.570796 -0.244346 1.570796
2 -5.577779 -0.123184 0.054231 0.000000 0.000000 -0.212930
3 -5.512521 -2.697434 -3.989360 0.406065 -0.135633 -0.988899
4 10.569404 0.000000 0.000000 0.000000 0.000000 -2.438890
5 13.357942 0.000000 0.000000 0.000000 0.000000 2.881874
6 -5.435715 -2.622672 3.516682 2.747960 0.105401 -1.032854
7 10.523520 0.000000 0.000000 0.000000 0.000000 2.454559
8 13.611951 0.000000 0.000000 0.000000 0.000000 -2.922818
9 -8.416650 1.073514 -0.018171 -0.000000 -0.000000 0.172787
10 -9.984111 -4.710447 3.170796 0.239078 -3.136047 0.423881
11 5.945618 0.000000 0.000000 0.000000 0.000000 0.735011
12 -9.984111 -4.710445 -2.998739 -0.207111 0.046955 -2.710083
13 5.945623 0.000000 0.000000 0.000000 0.000000 -0.747882
14 -13.167567 0.616876 1.590356 -0.000000 0.000000 -0.000000
15 -1.915743 -0.010427 0.304297 0.000000 -0.000000 0.691150
16 -13.157713 0.632508 -1.795553 -0.000000 0.000000 0.000000
17 -2.207746 -0.183759 -0.037490 -0.000000 -0.000000 0.691151
18 -2.622040 -6.273479 8.263164 -2.468645 -0.217126 -1.123865
19 11.485749 0.000000 0.000000 0.000000 0.000000 -1.772905
20 24.536903 0.000000 0.000000 0.000000 0.000000 2.060065
21 -2.622039 -6.273479 -8.136835 -0.746295 0.249320 -1.187762
22 11.659969 0.000000 0.000000 0.000000 0.000000 1.761569
23 25.724375 0.000000 0.000000 0.000000 0.000000 -1.963547
24 3.880158 -0.980432 0.090609 0.000000 0.000000 0.769690
25 13.389689 0.268266 -6.517195 0.542283 1.306249 -0.395924
26 9.913784 0.000000 0.000000 1.834193 0.672510 -1.571872
27 21.016008 0.000000 0.000000 0.000000 0.000000 -1.785777
28 28.471622 0.000000 0.000000 0.000000 0.000000 1.963597
29 13.389685 0.268266 6.023556 -0.462585 -1.348926 -0.488759
30 9.768896 0.000000 0.000000 -1.807698 -0.756965 -1.525766
31 19.931143 0.000000 0.000000 0.000000 0.000000 -1.562162
32 26.044123 0.000000 0.000000 0.000000 0.000000 1.706021
33 -5.849912 4.319726 0.063164 0.461552 0.000000 0.696736
34 -5.827132 4.411093 0.063164 -0.329881 0.005779 0.696734
time 1
1 -0.542246 2.450851 24.376612 1.613486 -0.258763 1.545711
2 -5.577779 -0.123184 0.054231 0.000000 0.000000 -0.212929
3 -5.512521 -2.697434 -3.989360 0.406066 -0.135632 -0.988904
4 10.569404 0.000000 0.000000 0.000000 0.000000 -2.438891
5 13.357942 0.000000 0.000000 0.000000 0.000000 2.881877
6 -5.435715 -2.622672 3.516682 2.747960 0.105400 -1.032856
7 10.523520 0.000000 0.000000 0.000000 0.000000 2.454559
8 13.611951 0.000000 0.000000 0.000000 0.000000 -2.922817
9 -8.416650 1.073514 -0.018171 -0.000000 -0.000000 0.172787
10 -9.984111 -4.710447 3.170796 0.239078 -3.136074 0.423768
11 5.945618 0.000000 0.000000 0.000000 0.000000 0.734764
12 -9.984111 -4.710445 -2.998739 -0.207115 0.046935 -2.710189
13 5.945623 0.000000 0.000000 0.000000 0.000000 -0.747653
14 -13.167567 0.616876 1.590356 0.000000 0.000000 -0.000000
15 -1.915743 -0.010427 0.304297 -0.000000 -0.000000 0.691151
16 -13.157713 0.632508 -1.795553 0.000000 0.000000 0.000000
17 -2.207746 -0.183759 -0.037490 -0.000000 -0.000000 0.691151
18 -2.622040 -6.273479 8.263164 -2.486270 -0.268588 -1.120727
19 11.485749 0.000000 0.000000 0.000000 0.000000 -1.785774
20 24.536903 0.000000 0.000000 0.000000 0.000000 2.088151
21 -2.622039 -6.273479 -8.136835 -0.786655 0.224519 -1.217405
22 11.659969 0.000000 0.000000 0.000000 0.000000 1.786972
23 25.724375 0.000000 0.000000 0.000000 0.000000 -2.017207
24 3.880158 -0.980432 0.090609 -0.000000 0.000000 0.769691
25 13.389689 0.268266 -6.517195 0.542283 1.306249 -0.395924
26 9.913784 0.000000 0.000000 1.807304 0.669585 -1.633311
27 21.016008 0.000000 0.000000 0.000000 0.000000 -1.761487
28 28.471622 0.000000 0.000000 0.000000 0.000000 1.918107
29 13.389685 0.268266 6.023556 -0.462585 -1.348926 -0.488759
30 9.768896 0.000000 0.000000 -1.783041 -0.784594 -1.443538
31 19.931143 0.000000 0.000000 0.000000 0.000000 -1.562784
32 26.044123 0.000000 0.000000 0.000000 0.000000 1.707261
33 -5.849912 4.319726 0.063164 0.461552 0.000000 0.696736
34 -5.827132 4.411093 0.063164 -0.329881 0.005779 0.696735
time 2
1 -1.015808 3.516051 24.136940 1.656702 -0.272126 1.519915
2 -5.577779 -0.123184 0.054231 0.000000 0.000000 -0.212930
3 -5.512521 -2.697434 -3.989360 0.406066 -0.135630 -0.988907
4 10.569404 0.000000 0.000000 0.000000 0.000000 -2.438893
5 13.357942 0.000000 0.000000 0.000000 0.000000 2.881880
6 -5.435715 -2.622672 3.516682 2.747959 0.105400 -1.032857
7 10.523520 0.000000 0.000000 0.000000 0.000000 2.454559
8 13.611951 0.000000 0.000000 0.000000 0.000000 -2.922817
9 -8.416650 1.073514 -0.018171 -0.000000 -0.000000 0.172787
10 -9.984111 -4.710447 3.170796 0.239079 -3.136095 0.423687
11 5.945618 0.000000 0.000000 0.000000 0.000000 0.734587
12 -9.984111 -4.710445 -2.998739 -0.207118 0.046921 -2.710264
13 5.945623 0.000000 0.000000 0.000000 0.000000 -0.747491
14 -13.167567 0.616876 1.590356 0.000000 0.000000 0.000000
15 -1.915743 -0.010427 0.304297 -0.000000 -0.000000 0.691150
16 -13.157713 0.632508 -1.795553 0.000000 -0.000000 0.000001
17 -2.207746 -0.183759 -0.037490 -0.000000 0.000000 0.691150
18 -2.622040 -6.273479 8.263164 -2.502857 -0.322718 -1.115215
19 11.485749 0.000000 0.000000 0.000000 0.000000 -1.800131
20 24.536903 0.000000 0.000000 0.000000 0.000000 2.119327
21 -2.622039 -6.273479 -8.136835 -0.828652 0.200086 -1.247441
22 11.659969 0.000000 0.000000 0.000000 0.000000 1.813441
23 25.724375 0.000000 0.000000 0.000000 0.000000 -2.073602
24 3.880158 -0.980432 0.090609 -0.000000 -0.000000 0.769690
25 13.389689 0.268266 -6.517195 0.542283 1.306249 -0.395924
26 9.913784 0.000000 0.000000 1.780269 0.667194 -1.694221
27 21.016008 0.000000 0.000000 0.000000 0.000000 -1.734945
28 28.471622 0.000000 0.000000 0.000000 0.000000 1.869243
29 13.389685 0.268266 6.023556 -0.462585 -1.348926 -0.488759
30 9.768896 0.000000 0.000000 -1.877119 -0.847957 -1.292287
31 19.931143 0.000000 0.000000 0.000000 0.000000 -1.643164
32 26.044123 0.000000 0.000000 0.000000 0.000000 1.871401
33 -5.849912 4.319726 0.063164 0.461552 0.000000 0.696736
34 -5.827132 4.411093 0.063164 -0.329881 0.005779 0.696734
time 3
1 -1.483851 4.722062 23.882452 1.681761 -0.293068 1.525016
2 -5.577779 -0.123184 0.054231 0.000000 0.000000 -0.212930
3 -5.512521 -2.697434 -3.989360 0.406066 -0.135630 -0.988908
4 10.569404 0.000000 0.000000 0.000000 0.000000 -2.438893
5 13.357942 0.000000 0.000000 0.000000 0.000000 2.881881
6 -5.435715 -2.622672 3.516682 2.747960 0.105400 -1.032856
7 10.523520 0.000000 0.000000 0.000000 0.000000 2.454558
8 13.611951 0.000000 0.000000 0.000000 0.000000 -2.922816
9 -8.416650 1.073514 -0.018171 0.000000 -0.000000 0.172788
10 -9.984111 -4.710447 3.170796 0.239079 -3.136109 0.423625
11 5.945618 0.000000 0.000000 0.000000 0.000000 0.734452
12 -9.984111 -4.710445 -2.998739 -0.207120 0.046910 -2.710323
13 5.945623 0.000000 0.000000 0.000000 0.000000 -0.747365
14 -13.167567 0.616876 1.590356 0.000000 0.000000 -0.000000
15 -1.915743 -0.010427 0.304297 -0.000000 -0.000000 0.691151
16 -13.157713 0.632508 -1.795553 -0.000000 0.000000 -0.000000
17 -2.207746 -0.183759 -0.037490 -0.000000 -0.000000 0.691150
18 -2.622040 -6.273479 8.263164 -2.480974 -0.384407 -1.129150
19 11.485749 0.000000 0.000000 0.000000 0.000000 -1.820078
20 24.536903 0.000000 0.000000 0.000000 0.000000 2.162759
21 -2.622039 -6.273479 -8.136835 -0.837685 0.178534 -1.272839
22 11.659969 0.000000 0.000000 0.000000 0.000000 1.838759
23 25.724375 0.000000 0.000000 0.000000 0.000000 -2.127413
24 3.880158 -0.980432 0.090609 0.000000 -0.000000 0.769690
25 13.389689 0.268266 -6.517195 0.542283 1.306249 -0.395924
26 9.913784 0.000000 0.000000 1.781474 0.676874 -1.722567
27 21.016008 0.000000 0.000000 0.000000 0.000000 -1.721006
28 28.471622 0.000000 0.000000 0.000000 0.000000 1.843629
29 13.389685 0.268266 6.023556 -0.462585 -1.348926 -0.488759
30 9.768896 0.000000 0.000000 -2.072120 -0.924544 -1.091791
31 19.931143 0.000000 0.000000 0.000000 0.000000 -1.759603
32 26.044123 0.000000 0.000000 0.000000 0.000000 2.128783
33 -5.849912 4.319726 0.063164 0.461552 0.000000 0.696736
34 -5.827132 4.411093 0.063164 -0.329881 0.005779 0.696734
time 4
1 -1.908837 6.361498 23.446514 1.685951 -0.329852 1.558335
2 -5.577779 -0.123184 0.054231 0.000000 0.000000 -0.212930
3 -5.512521 -2.697434 -3.989360 0.406067 -0.135629 -0.988910
4 10.569404 0.000000 0.000000 0.000000 0.000000 -2.438893
5 13.357942 0.000000 0.000000 0.000000 0.000000 2.881882
6 -5.435715 -2.622672 3.516682 2.747960 0.105399 -1.032856
7 10.523520 0.000000 0.000000 0.000000 0.000000 2.454558
8 13.611951 0.000000 0.000000 0.000000 0.000000 -2.922816
9 -8.416650 1.073514 -0.018171 -0.000000 -0.000000 0.172787
10 -9.984111 -4.710447 3.170796 0.239079 -3.136120 0.423582
11 5.945618 0.000000 0.000000 0.000000 0.000000 0.734357
12 -9.984111 -4.710445 -2.998739 -0.207122 0.046902 -2.710362
13 5.945623 0.000000 0.000000 0.000000 0.000000 -0.747280
14 -13.167567 0.616876 1.590356 0.000000 0.000000 0.000000
15 -1.915743 -0.010427 0.304297 -0.000000 -0.000000 0.691150
16 -13.157713 0.632508 -1.795553 0.000000 0.000000 0.000001
17 -2.207746 -0.183759 -0.037490 -0.000000 -0.000000 0.691151
18 -2.622040 -6.273479 8.263164 -2.414322 -0.457616 -1.173485
19 11.485749 0.000000 0.000000 0.000000 0.000000 -1.851605
20 24.536903 0.000000 0.000000 0.000000 0.000000 2.231602
21 -2.622039 -6.273479 -8.136835 -0.821326 0.173049 -1.299946
22 11.659969 0.000000 0.000000 0.000000 0.000000 1.869927
23 25.724375 0.000000 0.000000 0.000000 0.000000 -2.193684
24 3.880158 -0.980432 0.090609 0.000000 -0.000000 0.769690
25 13.389689 0.268266 -6.517195 0.542283 1.306249 -0.395924
26 9.913784 0.000000 0.000000 1.807324 0.709279 -1.719314
27 21.016008 0.000000 0.000000 0.000000 0.000000 -1.716792
28 28.471622 0.000000 0.000000 0.000000 0.000000 1.835911
29 13.389685 0.268266 6.023556 -0.462585 -1.348926 -0.488759
30 9.768896 0.000000 0.000000 -2.292621 -0.998707 -0.900802
31 19.931143 0.000000 0.000000 0.000000 0.000000 -1.860299
32 26.044123 0.000000 0.000000 0.000000 0.000000 2.376571
33 -5.849912 4.319726 0.063164 0.461552 0.000000 0.696736
34 -5.827132 4.411093 0.063164 -0.329881 0.005779 0.696734
time 5
1 -2.303278 8.336823 22.884670 1.677714 -0.375350 1.605874
2 -5.577779 -0.123184 0.054231 -0.000000 0.000000 -0.212930
3 -5.512521 -2.697434 -3.989360 0.406067 -0.135629 -0.988911
4 10.569404 0.000000 0.000000 0.000000 0.000000 -2.438894
5 13.357942 0.000000 0.000000 0.000000 0.000000 2.881883
6 -5.435715 -2.622672 3.516682 2.747959 0.105399 -1.032857
7 10.523520 0.000000 0.000000 0.000000 0.000000 2.454558
8 13.611951 0.000000 0.000000 0.000000 0.000000 -2.922815
9 -8.416650 1.073514 -0.018171 -0.000000 -0.000000 0.172787
10 -9.984111 -4.710447 3.170796 0.239080 -3.136129 0.423548
11 5.945618 0.000000 0.000000 0.000000 0.000000 0.734282
12 -9.984111 -4.710445 -2.998739 -0.207123 0.046896 -2.710394
13 5.945623 0.000000 0.000000 0.000000 0.000000 -0.747212
14 -13.167567 0.616876 1.590356 0.000000 0.000001 0.000000
15 -1.915743 -0.010427 0.304297 -0.000000 -0.000000 0.691151
16 -13.157713 0.632508 -1.795553 0.000000 0.000000 0.000000
17 -2.207746 -0.183759 -0.037490 -0.000000 -0.000000 0.691151
18 -2.622040 -6.273479 8.263164 -2.314450 -0.539586 -1.244689
19 11.485749 0.000000 0.000000 0.000000 0.000000 -1.889073
20 24.536903 0.000000 0.000000 0.000000 0.000000 2.312816
21 -2.622039 -6.273479 -8.136835 -0.796253 0.181752 -1.328435
22 11.659969 0.000000 0.000000 0.000000 0.000000 1.905899
23 25.724375 0.000000 0.000000 0.000000 0.000000 -2.269867
24 3.880158 -0.980432 0.090609 -0.000000 -0.000000 0.769691
25 13.389689 0.268266 -6.517195 0.542283 1.306249 -0.395924
26 9.913784 0.000000 0.000000 1.847912 0.754885 -1.696674
27 21.016008 0.000000 0.000000 0.000000 0.000000 -1.716297
28 28.471622 0.000000 0.000000 0.000000 0.000000 1.835007
29 13.389685 0.268266 6.023556 -0.462585 -1.348926 -0.488759
30 9.768896 0.000000 0.000000 -2.668675 -1.037890 -0.593451
31 19.931143 0.000000 0.000000 0.000000 0.000000 -1.951132
32 26.044123 0.000000 0.000000 0.000000 0.000000 2.659240
33 -5.849912 4.319726 0.063164 0.461552 0.000000 0.696736
34 -5.827132 4.411093 0.063164 -0.329881 0.005779 0.696735
time 6
1 -2.742250 10.062802 22.530199 1.653643 -0.415566 1.683119
2 -5.577779 -0.123184 0.054231 0.000000 0.000000 -0.212930
3 -5.512521 -2.697434 -3.989360 0.406067 -0.135628 -0.988912
4 10.569404 0.000000 0.000000 0.000000 0.000000 -2.438894
5 13.357942 0.000000 0.000000 0.000000 0.000000 2.881884
6 -5.435715 -2.622672 3.516682 2.747959 0.105399 -1.032857
7 10.523520 0.000000 0.000000 0.000000 0.000000 2.454558
8 13.611951 0.000000 0.000000 0.000000 0.000000 -2.922816
9 -8.416650 1.073514 -0.018171 -0.000000 -0.000000 0.172787
10 -9.984111 -4.710447 3.170796 0.239080 -3.136135 0.423522
11 5.945618 0.000000 0.000000 0.000000 0.000000 0.734228
12 -9.984111 -4.710445 -2.998739 -0.207124 0.046892 -2.710416
13 5.945623 0.000000 0.000000 0.000000 0.000000 -0.747164
14 -13.167567 0.616876 1.590356 0.000000 0.000000 0.000000
15 -1.915743 -0.010427 0.304297 -0.000000 -0.000000 0.691150
16 -13.157713 0.632508 -1.795553 0.000000 0.000000 0.000000
17 -2.207746 -0.183759 -0.037490 -0.000000 -0.000000 0.691151
18 -2.622040 -6.273479 8.263164 -2.163893 -0.617356 -1.352199
19 11.485749 0.000000 0.000000 0.000000 0.000000 -1.919310
20 24.536903 0.000000 0.000000 0.000000 0.000000 2.377860
21 -2.622039 -6.273479 -8.136835 -0.739971 0.183409 -1.343217
22 11.659969 0.000000 0.000000 0.000000 0.000000 1.933476
23 25.724375 0.000000 0.000000 0.000000 0.000000 -2.327687
24 3.880158 -0.980432 0.090609 -0.000000 -0.000000 0.769690
25 13.389689 0.268266 -6.517195 0.542283 1.306249 -0.395924
26 9.913784 0.000000 0.000000 1.923855 0.794235 -1.637899
27 21.016008 0.000000 0.000000 0.000000 0.000000 -1.729050
28 28.471622 0.000000 0.000000 0.000000 0.000000 1.858395
29 13.389685 0.268266 6.023556 -0.462585 -1.348926 -0.488759
30 9.768896 0.000000 0.000000 -3.031192 -0.901298 -0.378002
31 19.931143 0.000000 0.000000 0.000000 0.000000 -1.988425
32 26.044123 0.000000 0.000000 0.000000 0.000000 2.873992
33 -5.849912 4.319726 0.063164 0.461552 0.000000 0.696736
34 -5.827132 4.411093 0.063164 -0.329881 0.005779 0.696734
time 7
1 -3.300829 10.954203 22.716375 1.611834 -0.434674 1.804458
2 -5.577779 -0.123184 0.054231 -0.000000 -0.000000 -0.212929
3 -5.512521 -2.697434 -3.989360 0.406067 -0.135628 -0.988913
4 10.569404 0.000000 0.000000 0.000000 0.000000 -2.438894
5 13.357942 0.000000 0.000000 0.000000 0.000000 2.881885
6 -5.435715 -2.622672 3.516682 2.747959 0.105399 -1.032858
7 10.523520 0.000000 0.000000 0.000000 0.000000 2.454558
8 13.611951 0.000000 0.000000 0.000000 0.000000 -2.922816
9 -8.416650 1.073514 -0.018171 -0.000000 0.000000 0.172787
10 -9.984111 -4.710447 3.170796 0.239080 -3.136140 0.423504
11 5.945618 0.000000 0.000000 0.000000 0.000000 0.734189
12 -9.984111 -4.710445 -2.998739 -0.207124 0.046889 -2.710433
13 5.945623 0.000000 0.000000 0.000000 0.000000 -0.747129
14 -13.167567 0.616876 1.590356 0.000000 0.000000 -0.000000
15 -1.915743 -0.010427 0.304297 -0.000000 -0.000000 0.691150
16 -13.157713 0.632508 -1.795553 0.000000 0.000000 0.000000
17 -2.207746 -0.183759 -0.037490 -0.000000 -0.000000 0.691150
18 -2.622040 -6.273479 8.263164 -1.950448 -0.663951 -1.498100
19 11.485749 0.000000 0.000000 0.000000 0.000000 -1.930041
20 24.536903 0.000000 0.000000 0.000000 0.000000 2.401060
21 -2.622039 -6.273479 -8.136835 -0.630290 0.151558 -1.334016
22 11.659969 0.000000 0.000000 0.000000 0.000000 1.939417
23 25.724375 0.000000 0.000000 0.000000 0.000000 -2.340177
24 3.880158 -0.980432 0.090609 -0.000000 0.000000 0.769690
25 13.389689 0.268266 -6.517195 0.542283 1.306249 -0.395924
26 9.913784 0.000000 0.000000 2.052240 0.802584 -1.531015
27 21.016008 0.000000 0.000000 0.000000 0.000000 -1.763934
28 28.471622 0.000000 0.000000 0.000000 0.000000 1.922674
29 13.389685 0.268266 6.023556 -0.462585 -1.348926 -0.488759
30 9.768896 0.000000 0.000000 3.123991 -0.571038 -0.589442
31 19.931143 0.000000 0.000000 0.000000 0.000000 -1.983662
32 26.044123 0.000000 0.000000 0.000000 0.000000 2.829389
33 -5.849912 4.319726 0.063164 0.461552 0.000000 0.696736
34 -5.827132 4.411093 0.063164 -0.329881 0.005779 0.696735
time 8
1 -4.142454 10.399512 23.752186 1.556074 -0.429539 1.966989
2 -5.577779 -0.123184 0.054231 -0.000000 0.000000 -0.212930
3 -5.512521 -2.697434 -3.989360 0.406067 -0.135628 -0.988913
4 10.569404 0.000000 0.000000 0.000000 0.000000 -2.438894
5 13.357942 0.000000 0.000000 0.000000 0.000000 2.881885
6 -5.435715 -2.622672 3.516682 2.747959 0.105399 -1.032857
7 10.523520 0.000000 0.000000 0.000000 0.000000 2.454558
8 13.611951 0.000000 0.000000 0.000000 0.000000 -2.922816
9 -8.416650 1.073514 -0.018171 -0.000000 -0.000000 0.172787
10 -9.984111 -4.710447 3.170796 0.239080 -3.136142 0.423491
11 5.945618 0.000000 0.000000 0.000000 0.000000 0.734161
12 -9.984111 -4.710445 -2.998739 -0.207125 0.046887 -2.710445
13 5.945623 0.000000 0.000000 0.000000 0.000000 -0.747103
14 -13.167567 0.616876 1.590356 0.000000 0.000000 -0.000000
15 -1.915743 -0.010427 0.304297 -0.000000 0.000000 0.691151
16 -13.157713 0.632508 -1.795553 -0.000000 -0.000000 0.000000
17 -2.207746 -0.183759 -0.037490 0.000000 0.000000 0.691150
18 -2.622040 -6.273479 8.263164 -1.703369 -0.644663 -1.655760
19 11.485749 0.000000 0.000000 0.000000 0.000000 -1.909121
20 24.536903 0.000000 0.000000 0.000000 0.000000 2.356029
21 -2.622039 -6.273479 -8.136835 -0.453208 0.098595 -1.219404
22 11.659969 0.000000 0.000000 0.000000 0.000000 1.888803
23 25.724375 0.000000 0.000000 0.000000 0.000000 -2.233731
24 3.880158 -0.980432 0.090609 -0.000000 0.000000 0.769690
25 13.389689 0.268266 -6.517195 0.542283 1.306249 -0.395924
26 9.913784 0.000000 0.000000 2.221402 0.764183 -1.393806
27 21.016008 0.000000 0.000000 0.000000 0.000000 -1.825221
28 28.471622 0.000000 0.000000 0.000000 0.000000 2.038047
29 13.389685 0.268266 6.023556 -0.462585 -1.348926 -0.488759
30 9.768896 0.000000 0.000000 2.932662 -0.317448 -0.991166
31 19.931143 0.000000 0.000000 0.000000 0.000000 -1.861389
32 26.044123 0.000000 0.000000 0.000000 0.000000 2.379449
33 -5.849912 4.319726 0.063164 0.461553 0.000000 0.696736
34 -5.827132 4.411093 0.063164 -0.329881 0.005779 0.696734
time 9
1 -5.279895 8.520019 25.555473 1.494410 -0.407309 2.151867
2 -5.577779 -0.123184 0.054231 0.000000 -0.000000 -0.212930
3 -5.512521 -2.697434 -3.989360 0.406067 -0.135628 -0.988913
4 10.569404 0.000000 0.000000 0.000000 0.000000 -2.438894
5 13.357942 0.000000 0.000000 0.000000 0.000000 2.881885
6 -5.435715 -2.622672 3.516682 2.747959 0.105399 -1.032857
7 10.523520 0.000000 0.000000 0.000000 0.000000 2.454558
8 13.611951 0.000000 0.000000 0.000000 0.000000 -2.922815
9 -8.416650 1.073514 -0.018171 -0.000000 0.000000 0.172787
10 -9.984111 -4.710447 3.170796 0.239080 -3.136144 0.423485
11 5.945618 0.000000 0.000000 0.000000 0.000000 0.734148
12 -9.984111 -4.710445 -2.998739 -0.207125 0.046886 -2.710450
13 5.945623 0.000000 0.000000 0.000000 0.000000 -0.747093
14 -13.167567 0.616876 1.590356 0.000000 0.000000 0.000000
15 -1.915743 -0.010427 0.304297 -0.000000 -0.000000 0.691150
16 -13.157713 0.632508 -1.795553 0.000000 0.000000 0.000000
17 -2.207746 -0.183759 -0.037490 -0.000000 0.000000 0.691150
18 -2.622040 -6.273479 8.263164 -1.473028 -0.565537 -1.778845
19 11.485749 0.000000 0.000000 0.000000 0.000000 -1.858080
20 24.536903 0.000000 0.000000 0.000000 0.000000 2.245724
21 -2.622039 -6.273479 -8.136835 -0.450806 0.192895 -1.179565
22 11.659969 0.000000 0.000000 0.000000 0.000000 1.953539
23 25.724375 0.000000 0.000000 0.000000 0.000000 -2.369510
24 3.880158 -0.980432 0.090609 -0.000000 -0.000000 0.769690
25 13.389689 0.268266 -6.517195 0.542283 1.306249 -0.395924
26 9.913784 0.000000 0.000000 2.399737 0.682314 -1.263514
27 21.016008 0.000000 0.000000 0.000000 0.000000 -1.902130
28 28.471622 0.000000 0.000000 0.000000 0.000000 2.186413
29 13.389685 0.268266 6.023556 -0.462585 -1.348926 -0.488759
30 9.768896 0.000000 0.000000 2.973151 -0.454273 -1.134242
31 19.931143 0.000000 0.000000 0.000000 0.000000 -1.781909
32 26.044123 0.000000 0.000000 0.000000 0.000000 2.180827
33 -5.849912 4.319726 0.063164 0.461552 0.000000 0.696736
34 -5.827132 4.411093 0.063164 -0.329881 0.005779 0.696734
time 10
1 -6.562226 5.829698 27.872789 1.435575 -0.367917 2.346695
2 -5.577779 -0.123184 0.054231 0.000000 -0.000000 -0.212930
3 -5.512521 -2.697434 -3.989360 0.406067 -0.135627 -0.988914
4 10.569404 0.000000 0.000000 0.000000 0.000000 -2.438894
5 13.357942 0.000000 0.000000 0.000000 0.000000 2.881885
6 -5.435715 -2.622672 3.516682 2.747959 0.105399 -1.032857
7 10.523520 0.000000 0.000000 0.000000 0.000000 2.454558
8 13.611951 0.000000 0.000000 0.000000 0.000000 -2.922815
9 -8.416650 1.073514 -0.018171 -0.000000 -0.000000 0.172787
10 -9.984111 -4.710447 3.170796 0.239080 -3.136145 0.423481
11 5.945618 0.000000 0.000000 0.000000 0.000000 0.734139
12 -9.984111 -4.710445 -2.998739 -0.207125 0.046885 -2.710453
13 5.945623 0.000000 0.000000 0.000000 0.000000 -0.747085
14 -13.167567 0.616876 1.590356 0.000000 0.000000 0.000000
15 -1.915743 -0.010427 0.304297 -0.000000 -0.000000 0.691150
16 -13.157713 0.632508 -1.795553 0.000000 0.000000 0.000000
17 -2.207746 -0.183759 -0.037490 -0.000000 -0.000000 0.691150
18 -2.622040 -6.273479 8.263164 -1.268520 -0.460429 -1.850233
19 11.485749 0.000000 0.000000 0.000000 0.000000 -1.785786
20 24.536903 0.000000 0.000000 0.000000 0.000000 2.088176
21 -2.622039 -6.273479 -8.136835 -0.703920 0.466739 -1.240408
22 11.659969 0.000000 0.000000 0.000000 0.000000 2.010598
23 25.724375 0.000000 0.000000 0.000000 0.000000 -2.487273
24 3.880158 -0.980432 0.090609 0.000000 0.000000 0.769690
25 13.389689 0.268266 -6.517195 0.542283 1.306249 -0.395924
26 9.913784 0.000000 0.000000 2.574307 0.559640 -1.163855
27 21.016008 0.000000 0.000000 0.000000 0.000000 -1.978615
28 28.471622 0.000000 0.000000 0.000000 0.000000 2.339484
29 13.389685 0.268266 6.023556 -0.462585 -1.348926 -0.488759
30 9.768896 0.000000 0.000000 -0.027760 -2.591014 1.828400
31 19.931143 0.000000 0.000000 0.000000 0.000000 -1.672807
32 26.044123 0.000000 0.000000 0.000000 0.000000 1.934497
33 -5.849912 4.319726 0.063164 0.461552 0.000000 0.696736
34 -5.827132 4.411093 0.063164 -0.329881 0.005779 0.696734
time 11
1 -7.838522 2.842529 30.450710 1.386825 -0.314582 2.540568
2 -5.577779 -0.123184 0.054231 0.000000 0.000000 -0.212930
3 -5.512521 -2.697434 -3.989360 0.406067 -0.135627 -0.988914
4 10.569404 0.000000 0.000000 0.000000 0.000000 -2.438894
5 13.357942 0.000000 0.000000 0.000000 0.000000 2.881885
6 -5.435715 -2.622672 3.516682 2.747960 0.105399 -1.032856
7 10.523520 0.000000 0.000000 0.000000 0.000000 2.454558
8 13.611951 0.000000 0.000000 0.000000 0.000000 -2.922815
9 -8.416650 1.073514 -0.018171 0.000000 -0.000000 0.172787
10 -9.984111 -4.710447 3.170796 0.239080 -3.136146 0.423477
11 5.945618 0.000000 0.000000 0.000000 0.000000 0.734129
12 -9.984111 -4.710445 -2.998739 -0.207125 0.046885 -2.710457
13 5.945623 0.000000 0.000000 0.000000 0.000000 -0.747077
14 -13.167567 0.616876 1.590356 0.000000 0.000000 -0.000000
15 -1.915743 -0.010427 0.304297 0.000000 0.000000 0.691150
16 -13.157713 0.632508 -1.795553 -0.000000 0.000000 0.000000
17 -2.207746 -0.183759 -0.037490 -0.000000 -0.000000 0.691150
18 -2.622040 -6.273479 8.263164 -1.080112 -0.356178 -1.879444
19 11.485749 0.000000 0.000000 0.000000 0.000000 -1.699149
20 24.536903 0.000000 0.000000 0.000000 0.000000 1.900740
21 -2.622039 -6.273479 -8.136835 -0.959896 0.586360 -1.348373
22 11.659969 0.000000 0.000000 0.000000 0.000000 1.961127
23 25.724375 0.000000 0.000000 0.000000 0.000000 -2.385218
24 3.880158 -0.980432 0.090609 0.000000 -0.000000 0.769690
25 13.389689 0.268266 -6.517195 0.542283 1.306249 -0.395924
26 9.913784 0.000000 0.000000 2.751731 0.403713 -1.107259
27 21.016008 0.000000 0.000000 0.000000 0.000000 -2.040680
28 28.471622 0.000000 0.000000 0.000000 0.000000 2.470401
29 13.389685 0.268266 6.023556 -0.462585 -1.348926 -0.488759
30 9.768896 0.000000 0.000000 0.224447 -2.566302 1.642377
31 19.931143 0.000000 0.000000 0.000000 0.000000 -1.535570
32 26.044123 0.000000 0.000000 0.000000 0.000000 1.654317
33 -5.849912 4.319726 0.063164 0.461552 0.000000 0.696736
34 -5.827132 4.411093 0.063164 -0.329881 0.005779 0.696734
time 12
1 -8.957853 0.072486 33.035782 1.352331 -0.253131 2.725024
2 -5.577779 -0.123184 0.054231 0.000000 0.000000 -0.212930
3 -5.512521 -2.697434 -3.989360 0.406067 -0.135627 -0.988914
4 10.569404 0.000000 0.000000 0.000000 0.000000 -2.438895
5 13.357942 0.000000 0.000000 0.000000 0.000000 2.881886
6 -5.435715 -2.622672 3.516682 2.747960 0.105399 -1.032857
7 10.523520 0.000000 0.000000 0.000000 0.000000 2.454558
8 13.611951 0.000000 0.000000 0.000000 0.000000 -2.922815
9 -8.416650 1.073514 -0.018171 0.000000 -0.000000 0.172787
10 -9.984111 -4.710447 3.170796 0.239080 -3.136147 0.423473
11 5.945618 0.000000 0.000000 0.000000 0.000000 0.734122
12 -9.984111 -4.710445 -2.998739 -0.207126 0.046884 -2.710460
13 5.945623 0.000000 0.000000 0.000000 0.000000 -0.747070
14 -13.167567 0.616876 1.590356 -0.000000 0.000000 -0.000000
15 -1.915743 -0.010427 0.304297 -0.000000 -0.000000 0.691150
16 -13.157713 0.632508 -1.795553 -0.000000 0.000001 0.000000
17 -2.207746 -0.183759 -0.037490 -0.000000 -0.000000 0.691151
18 -2.622040 -6.273479 8.263164 -0.899191 -0.267405 -1.882130
19 11.485749 0.000000 0.000000 0.000000 0.000000 -1.605585
20 24.536903 0.000000 0.000000 0.000000 0.000000 1.703013
21 -2.622039 -6.273479 -8.136835 -1.030922 0.525190 -1.400805
22 11.659969 0.000000 0.000000 0.000000 0.000000 1.917520
23 25.724375 0.000000 0.000000 0.000000 0.000000 -2.294324
24 3.880158 -0.980432 0.090609 -0.000000 -0.000000 0.769690
25 13.389689 0.268266 -6.517195 0.542283 1.306249 -0.395924
26 9.913784 0.000000 0.000000 2.955970 0.227988 -1.096761
27 21.016008 0.000000 0.000000 0.000000 0.000000 -2.079892
28 28.471622 0.000000 0.000000 0.000000 0.000000 2.558144
29 13.389685 0.268266 6.023556 -0.462585 -1.348926 -0.488759
30 9.768896 0.000000 0.000000 0.516870 -2.605817 1.499437
31 19.931143 0.000000 0.000000 0.000000 0.000000 -1.371452
32 26.044123 0.000000 0.000000 0.000000 0.000000 1.353644
33 -5.849912 4.319726 0.063164 0.461553 0.000000 0.696736
34 -5.827132 4.411093 0.063164 -0.329881 0.005779 0.696734
time 13
1 -9.769295 -1.966456 35.374573 1.332811 -0.190686 2.893674
2 -5.577779 -0.123184 0.054231 -0.000000 0.000000 -0.212930
3 -5.512521 -2.697434 -3.989360 0.406067 -0.135627 -0.988914
4 10.569404 0.000000 0.000000 0.000000 0.000000 -2.438895
5 13.357942 0.000000 0.000000 0.000000 0.000000 2.881886
6 -5.435715 -2.622672 3.516682 2.747959 0.105399 -1.032857
7 10.523520 0.000000 0.000000 0.000000 0.000000 2.454558
8 13.611951 0.000000 0.000000 0.000000 0.000000 -2.922815
9 -8.416650 1.073514 -0.018171 0.000000 -0.000000 0.172787
10 -9.984111 -4.710447 3.170796 0.239080 -3.136148 0.423471
11 5.945618 0.000000 0.000000 0.000000 0.000000 0.734118
12 -9.984111 -4.710445 -2.998739 -0.207126 0.046884 -2.710463
13 5.945623 0.000000 0.000000 0.000000 0.000000 -0.747066
14 -13.167567 0.616876 1.590356 -0.000000 0.000000 0.000000
15 -1.915743 -0.010427 0.304297 -0.000000 -0.000000 0.691150
16 -13.157713 0.632508 -1.795553 0.000000 0.000000 0.000000
17 -2.207746 -0.183759 -0.037490 -0.000000 0.000000 0.691150
18 -2.622040 -6.273479 8.263164 -0.849654 -0.268779 -1.855317
19 11.485749 0.000000 0.000000 0.000000 0.000000 -1.572475
20 24.536903 0.000000 0.000000 0.000000 0.000000 1.634276
21 -2.622039 -6.273479 -8.136835 -1.106855 0.412307 -1.470404
22 11.659969 0.000000 0.000000 0.000000 0.000000 1.876187
23 25.724375 0.000000 0.000000 0.000000 0.000000 -2.206989
24 3.880158 -0.980432 0.090609 -0.000000 -0.000000 0.769690
25 13.389689 0.268266 -6.517195 0.542283 1.306249 -0.395924
26 9.913784 0.000000 0.000000 -3.072390 0.055255 -1.124199
27 21.016008 0.000000 0.000000 0.000000 0.000000 -2.095738
28 28.471622 0.000000 0.000000 0.000000 0.000000 2.595281
29 13.389685 0.268266 6.023556 -0.462585 -1.348926 -0.488759
30 9.768896 0.000000 0.000000 -2.315443 -0.465286 -1.704430
31 19.931143 0.000000 0.000000 0.000000 0.000000 -1.183660
32 26.044123 0.000000 0.000000 0.000000 0.000000 1.052692
33 -5.849912 4.319726 0.063164 0.461552 0.000000 0.696736
34 -5.827132 4.411093 0.063164 -0.329881 0.005779 0.696734
time 14
1 -10.121920 -2.760320 37.213642 1.326092 -0.134360 3.041033
2 -5.577779 -0.123184 0.054231 -0.000000 -0.000000 -0.212930
3 -5.512521 -2.697434 -3.989360 0.406067 -0.135627 -0.988914
4 10.569404 0.000000 0.000000 0.000000 0.000000 -2.438895
5 13.357942 0.000000 0.000000 0.000000 0.000000 2.881886
6 -5.435715 -2.622672 3.516682 2.747960 0.105399 -1.032856
7 10.523520 0.000000 0.000000 0.000000 0.000000 2.454558
8 13.611951 0.000000 0.000000 0.000000 0.000000 -2.922815
9 -8.416650 1.073514 -0.018171 -0.000000 0.000000 0.172787
10 -9.984111 -4.710447 3.170796 0.239080 -3.136148 0.423468
11 5.945618 0.000000 0.000000 0.000000 0.000000 0.734111
12 -9.984111 -4.710445 -2.998739 -0.207126 0.046883 -2.710465
13 5.945623 0.000000 0.000000 0.000000 0.000000 -0.747060
14 -13.167567 0.616876 1.590356 0.000000 0.000000 -0.000000
15 -1.915743 -0.010427 0.304297 0.000000 -0.000000 0.691150
16 -13.157713 0.632508 -1.795553 0.000000 -0.000000 0.000000
17 -2.207746 -0.183759 -0.037490 -0.000000 0.000000 0.691150
18 -2.622040 -6.273479 8.263164 -0.928607 -0.261249 -1.760599
19 11.485749 0.000000 0.000000 0.000000 0.000000 -1.622579
20 24.536903 0.000000 0.000000 0.000000 0.000000 1.738201
21 -2.622039 -6.273479 -8.136835 -0.906074 0.326396 -1.416816
22 11.659969 0.000000 0.000000 0.000000 0.000000 1.841729
23 25.724375 0.000000 0.000000 0.000000 0.000000 -2.133744
24 3.880158 -0.980432 0.090609 -0.000000 0.000000 0.769690
25 13.389689 0.268266 -6.517195 0.542283 1.306249 -0.395924
26 9.913784 0.000000 0.000000 -2.790059 -0.088642 -1.166141
27 21.016008 0.000000 0.000000 0.000000 0.000000 -2.093983
28 28.471622 0.000000 0.000000 0.000000 0.000000 2.591132
29 13.389685 0.268266 6.023556 -0.462585 -1.348926 -0.488759
30 9.768896 0.000000 0.000000 -1.982077 -0.412590 -1.687701
31 19.931143 0.000000 0.000000 0.000000 0.000000 -0.992579
32 26.044123 0.000000 0.000000 0.000000 0.000000 0.790203
33 -5.849912 4.319726 0.063164 0.461552 -0.000000 0.696736
34 -5.827132 4.411093 0.063164 -0.329881 0.005779 0.696734
time 15
1 -9.913356 -2.442780 38.443623 1.328040 -0.090347 -3.121805
2 -5.577779 -0.123184 0.054231 0.000000 0.000000 -0.212930
3 -5.512521 -2.697434 -3.989360 0.406067 -0.135627 -0.988915
4 10.569404 0.000000 0.000000 0.000000 0.000000 -2.438895
5 13.357942 0.000000 0.000000 0.000000 0.000000 2.881886
6 -5.435715 -2.622672 3.516682 2.747960 0.105399 -1.032857
7 10.523520 0.000000 0.000000 0.000000 0.000000 2.454558
8 13.611951 0.000000 0.000000 0.000000 0.000000 -2.922815
9 -8.416650 1.073514 -0.018171 -0.000000 -0.000000 0.172787
10 -9.984111 -4.710447 3.170796 0.239080 -3.136148 0.423466
11 5.945618 0.000000 0.000000 0.000000 0.000000 0.734107
12 -9.984111 -4.710445 -2.998739 -0.207126 0.046882 -2.710467
13 5.945623 0.000000 0.000000 0.000000 0.000000 -0.747056
14 -13.167567 0.616876 1.590356 -0.000000 0.000000 -0.000000
15 -1.915743 -0.010427 0.304297 0.000000 0.000000 0.691150
16 -13.157713 0.632508 -1.795553 0.000000 0.000000 0.000000
17 -2.207746 -0.183759 -0.037490 0.000000 0.000000 0.691151
18 -2.622040 -6.273479 8.263164 -1.184981 -0.233210 -1.587128
19 11.485749 0.000000 0.000000 0.000000 0.000000 -1.673000
20 24.536903 0.000000 0.000000 0.000000 0.000000 1.844869
21 -2.622039 -6.273479 -8.136835 -0.766528 0.272103 -1.375241
22 11.659969 0.000000 0.000000 0.000000 0.000000 1.802377
23 25.724375 0.000000 0.000000 0.000000 0.000000 -2.050027
24 3.880158 -0.980432 0.090609 0.000000 0.000000 0.769690
25 13.389689 0.268266 -6.517195 0.542283 1.306249 -0.395924
26 9.913784 0.000000 0.000000 -2.545660 -0.195440 -1.201861
27 21.016008 0.000000 0.000000 0.000000 0.000000 -2.082577
28 28.471622 0.000000 0.000000 0.000000 0.000000 2.564319
29 13.389685 0.268266 6.023556 -0.462585 -1.348926 -0.488759
30 9.768896 0.000000 0.000000 -1.852969 -0.425609 -1.734384
31 19.931143 0.000000 0.000000 0.000000 0.000000 -0.840716
32 26.044123 0.000000 0.000000 0.000000 0.000000 0.612569
33 -5.849912 4.319726 0.063164 0.461553 0.000000 0.696736
34 -5.827132 4.411093 0.063164 -0.329881 0.005779 0.696734
time 16
1 -9.235597 -1.648932 39.113583 1.334401 -0.065045 -3.044104
2 -5.577779 -0.123184 0.054231 -0.000000 0.000000 -0.212930
3 -5.512521 -2.697434 -3.989360 0.406067 -0.135627 -0.988914
4 10.569404 0.000000 0.000000 0.000000 0.000000 -2.438895
5 13.357942 0.000000 0.000000 0.000000 0.000000 2.881885
6 -5.435715 -2.622672 3.516682 2.747960 0.105399 -1.032857
7 10.523520 0.000000 0.000000 0.000000 0.000000 2.454558
8 13.611951 0.000000 0.000000 0.000000 0.000000 -2.922815
9 -8.416650 1.073514 -0.018171 -0.000000 -0.000000 0.172787
10 -9.984111 -4.710447 3.170796 0.239080 -3.136149 0.423464
11 5.945618 0.000000 0.000000 0.000000 0.000000 0.734102
12 -9.984111 -4.710445 -2.998739 -0.207126 0.046882 -2.710468
13 5.945623 0.000000 0.000000 0.000000 0.000000 -0.747052
14 -13.167567 0.616876 1.590356 0.000000 0.000000 -0.000000
15 -1.915743 -0.010427 0.304297 0.000000 -0.000000 0.691150
16 -13.157713 0.632508 -1.795553 0.000000 0.000000 0.000000
17 -2.207746 -0.183759 -0.037490 -0.000000 -0.000000 0.691150
18 -2.622040 -6.273479 8.263164 -1.520263 -0.115395 -1.419286
19 11.485749 0.000000 0.000000 0.000000 0.000000 -1.669642
20 24.536903 0.000000 0.000000 0.000000 0.000000 1.837696
21 -2.622039 -6.273479 -8.136835 -0.684625 0.240284 -1.345217
22 11.659969 0.000000 0.000000 0.000000 0.000000 1.767038
23 25.724375 0.000000 0.000000 0.000000 0.000000 -1.975150
24 3.880158 -0.980432 0.090609 0.000000 0.000000 0.769690
25 13.389689 0.268266 -6.517195 0.542283 1.306249 -0.395924
26 9.913784 0.000000 0.000000 -2.614786 -0.271214 -1.080809
27 21.016008 0.000000 0.000000 0.000000 0.000000 -2.120519
28 28.471622 0.000000 0.000000 0.000000 0.000000 2.657041
29 13.389685 0.268266 6.023556 -0.462585 -1.348926 -0.488759
30 9.768896 0.000000 0.000000 -1.765663 -0.428141 -1.768843
31 19.931143 0.000000 0.000000 0.000000 0.000000 -0.783018
32 26.044123 0.000000 0.000000 0.000000 0.000000 0.551820
33 -5.849912 4.319726 0.063164 0.461552 0.000000 0.696736
34 -5.827132 4.411093 0.063164 -0.329881 0.005779 0.696734
time 17
1 -8.229261 -0.616930 39.207733 1.342815 -0.057880 -3.010221
2 -5.577779 -0.123184 0.054231 0.000000 0.000000 -0.212930
3 -5.512521 -2.697434 -3.989360 0.406067 -0.135627 -0.988914
4 10.569404 0.000000 0.000000 0.000000 0.000000 -2.438895
5 13.357942 0.000000 0.000000 0.000000 0.000000 2.881886
6 -5.435715 -2.622672 3.516682 2.747960 0.105399 -1.032856
7 10.523520 0.000000 0.000000 0.000000 0.000000 2.454558
8 13.611951 0.000000 0.000000 0.000000 0.000000 -2.922815
9 -8.416650 1.073514 -0.018171 -0.000000 -0.000000 0.172787
10 -9.984111 -4.710447 3.170796 0.239080 -3.136150 0.423464
11 5.945618 0.000000 0.000000 0.000000 0.000000 0.734100
12 -9.984111 -4.710445 -2.998739 -0.207126 0.046883 -2.710469
13 5.945623 0.000000 0.000000 0.000000 0.000000 -0.747052
14 -13.167567 0.616876 1.590356 -0.000000 0.000000 -0.000000
15 -1.915743 -0.010427 0.304297 0.000000 -0.000000 0.691151
16 -13.157713 0.632508 -1.795553 0.000000 0.000000 0.000000
17 -2.207746 -0.183759 -0.037490 0.000000 -0.000000 0.691150
18 -2.622040 -6.273479 8.263164 -1.936772 0.106466 -1.349322
19 11.485749 0.000000 0.000000 0.000000 0.000000 -1.608117
20 24.536903 0.000000 0.000000 0.000000 0.000000 1.708304
21 -2.622039 -6.273479 -8.136835 -0.651688 0.226937 -1.323506
22 11.659969 0.000000 0.000000 0.000000 0.000000 1.740427
23 25.724375 0.000000 0.000000 0.000000 0.000000 -1.918754
24 3.880158 -0.980432 0.090609 0.000000 -0.000000 0.769690
25 13.389689 0.268266 -6.517195 0.542283 1.306249 -0.395924
26 9.913784 0.000000 0.000000 -2.953065 -0.171842 -0.911825
27 21.016008 0.000000 0.000000 0.000000 0.000000 -2.144246
28 28.471622 0.000000 0.000000 0.000000 0.000000 2.720910
29 13.389685 0.268266 6.023556 -0.462585 -1.348926 -0.488759
30 9.768896 0.000000 0.000000 -1.720219 -0.410385 -1.787096
31 19.931143 0.000000 0.000000 0.000000 0.000000 -0.835427
32 26.044123 0.000000 0.000000 0.000000 0.000000 0.606937
33 -5.849912 4.319726 0.063164 0.461552 -0.000000 0.696736
34 -5.827132 4.411093 0.063164 -0.329881 0.005779 0.696734
time 18
1 -7.034965 0.415073 38.710262 1.353449 -0.063654 -3.004989
2 -5.577779 -0.123184 0.054231 0.000000 0.000000 -0.212930
3 -5.512521 -2.697434 -3.989360 0.406067 -0.135627 -0.988915
4 10.569404 0.000000 0.000000 0.000000 0.000000 -2.438895
5 13.357942 0.000000 0.000000 0.000000 0.000000 2.881886
6 -5.435715 -2.622672 3.516682 2.747960 0.105399 -1.032857
7 10.523520 0.000000 0.000000 0.000000 0.000000 2.454558
8 13.611951 0.000000 0.000000 0.000000 0.000000 -2.922815
9 -8.416650 1.073514 -0.018171 0.000000 -0.000000 0.172787
10 -9.984111 -4.710447 3.170796 0.239080 -3.136150 0.423462
11 5.945618 0.000000 0.000000 0.000000 0.000000 0.734097
12 -9.984111 -4.710445 -2.998739 -0.207126 0.046882 -2.710470
13 5.945623 0.000000 0.000000 0.000000 0.000000 -0.747048
14 -13.167567 0.616876 1.590356 0.000000 0.000000 -0.000000
15 -1.915743 -0.010427 0.304297 -0.000000 -0.000000 0.691150
16 -13.157713 0.632508 -1.795553 -0.000000 0.000000 0.000000
17 -2.207746 -0.183759 -0.037490 0.000000 -0.000000 0.691151
18 -2.622040 -6.273479 8.263164 -1.983245 0.096763 -1.342088
19 11.485749 0.000000 0.000000 0.000000 0.000000 -1.617480
20 24.536903 0.000000 0.000000 0.000000 0.000000 1.727705
21 -2.622039 -6.273479 -8.136835 -0.644732 0.225038 -1.304803
22 11.659969 0.000000 0.000000 0.000000 0.000000 1.724071
23 25.724375 0.000000 0.000000 0.000000 0.000000 -1.884786
24 3.880158 -0.980432 0.090609 0.000000 0.000000 0.769690
25 13.389689 0.268266 -6.517195 0.542283 1.306249 -0.395924
26 9.913784 0.000000 0.000000 2.978896 0.062967 -0.817637
27 21.016008 0.000000 0.000000 0.000000 0.000000 -2.122694
28 28.471622 0.000000 0.000000 0.000000 0.000000 2.662585
29 13.389685 0.268266 6.023556 -0.462585 -1.348926 -0.488759
30 9.768896 0.000000 0.000000 -1.703539 -0.393490 -1.789677
31 19.931143 0.000000 0.000000 0.000000 0.000000 -0.945459
32 26.044123 0.000000 0.000000 0.000000 0.000000 0.732658
33 -5.849912 4.319726 0.063164 0.461552 0.000000 0.696736
34 -5.827132 4.411093 0.063164 -0.329881 0.005779 0.696734
time 19
1 -5.793327 1.208920 37.605385 1.367888 -0.077314 -3.013323
2 -5.577779 -0.123184 0.054231 -0.000000 0.000000 -0.212930
3 -5.512521 -2.697434 -3.989360 0.406067 -0.135627 -0.988914
4 10.569404 0.000000 0.000000 0.000000 0.000000 -2.438895
5 13.357942 0.000000 0.000000 0.000000 0.000000 2.881886
6 -5.435715 -2.622672 3.516682 2.747960 0.105399 -1.032857
7 10.523520 0.000000 0.000000 0.000000 0.000000 2.454558
8 13.611951 0.000000 0.000000 0.000000 0.000000 -2.922815
9 -8.416650 1.073514 -0.018171 0.000000 -0.000000 0.172788
10 -9.984111 -4.710447 3.170796 0.239080 -3.136149 0.423461
11 5.945618 0.000000 0.000000 0.000000 0.000000 0.734096
12 -9.984111 -4.710445 -2.998739 -0.207126 0.046881 -2.710472
13 5.945623 0.000000 0.000000 0.000000 0.000000 -0.747046
14 -13.167567 0.616876 1.590356 -0.000000 0.000000 -0.000000
15 -1.915743 -0.010427 0.304297 0.000000 -0.000000 0.691150
16 -13.157713 0.632508 -1.795553 -0.000000 0.000000 0.000000
17 -2.207746 -0.183759 -0.037490 -0.000000 0.000000 0.691150
18 -2.622040 -6.273479 8.263164 -2.042280 0.073738 -1.329773
19 11.485749 0.000000 0.000000 0.000000 0.000000 -1.632448
20 24.536903 0.000000 0.000000 0.000000 0.000000 1.759003
21 -2.622039 -6.273479 -8.136835 -0.644114 0.226820 -1.285717
22 11.659969 0.000000 0.000000 0.000000 0.000000 1.720105
23 25.724375 0.000000 0.000000 0.000000 0.000000 -1.876443
24 3.880158 -0.980432 0.090609 0.000000 0.000000 0.769690
25 13.389689 0.268266 -6.517195 0.542283 1.306249 -0.395924
26 9.913784 0.000000 0.000000 2.745119 0.256823 -0.854066
27 21.016008 0.000000 0.000000 0.000000 0.000000 -2.056569
28 28.471622 0.000000 0.000000 0.000000 0.000000 2.505093
29 13.389685 0.268266 6.023556 -0.462585 -1.348926 -0.488759
30 9.768896 0.000000 0.000000 -1.702927 -0.394580 -1.779648
31 19.931143 0.000000 0.000000 0.000000 0.000000 -1.065324
32 26.044123 0.000000 0.000000 0.000000 0.000000 0.884875
33 -5.849912 4.319726 0.063164 0.461552 0.000000 0.696736
34 -5.827132 4.411093 0.063164 -0.329881 0.005779 0.696734
time 20
1 -4.644964 1.526460 35.877304 1.387807 -0.094048 -3.020136
2 -5.577779 -0.123184 0.054231 -0.000000 0.000000 -0.212930
3 -5.512521 -2.697434 -3.989360 0.406067 -0.135627 -0.988914
4 10.569404 0.000000 0.000000 0.000000 0.000000 -2.438895
5 13.357942 0.000000 0.000000 0.000000 0.000000 2.881886
6 -5.435715 -2.622672 3.516682 2.747960 0.105399 -1.032856
7 10.523520 0.000000 0.000000 0.000000 0.000000 2.454558
8 13.611951 0.000000 0.000000 0.000000 0.000000 -2.922814
9 -8.416650 1.073514 -0.018171 -0.000000 -0.000000 0.172787
10 -9.984111 -4.710447 3.170796 0.239080 -3.136150 0.423460
11 5.945618 0.000000 0.000000 0.000000 0.000000 0.734092
12 -9.984111 -4.710445 -2.998739 -0.207126 0.046882 -2.710472
13 5.945623 0.000000 0.000000 0.000000 0.000000 -0.747044
14 -13.167567 0.616876 1.590356 -0.000000 0.000000 -0.000000
15 -1.915743 -0.010427 0.304297 0.000000 -0.000000 0.691150
16 -13.157713 0.632508 -1.795553 0.000000 0.000000 0.000000
17 -2.207746 -0.183759 -0.037490 -0.000000 -0.000000 0.691150
18 -2.622040 -6.273479 8.263164 -2.088230 0.028758 -1.309105
19 11.485749 0.000000 0.000000 0.000000 0.000000 -1.653205
20 24.536903 0.000000 0.000000 0.000000 0.000000 1.802668
21 -2.622039 -6.273479 -8.136835 -0.631206 0.223768 -1.261136
22 11.659969 0.000000 0.000000 0.000000 0.000000 1.729551
23 25.724375 0.000000 0.000000 0.000000 0.000000 -1.896322
24 3.880158 -0.980432 0.090609 -0.000000 -0.000000 0.769690
25 13.389689 0.268266 -6.517195 0.542283 1.306249 -0.395924
26 9.913784 0.000000 0.000000 2.537751 0.387914 -0.967923
27 21.016008 0.000000 0.000000 0.000000 0.000000 -1.977678
28 28.471622 0.000000 0.000000 0.000000 0.000000 2.337415
29 13.389685 0.268266 6.023556 -0.462585 -1.348926 -0.488759
30 9.768896 0.000000 0.000000 -1.706522 -0.418808 -1.760322
31 19.931143 0.000000 0.000000 0.000000 0.000000 -1.171396
32 26.044123 0.000000 0.000000 0.000000 0.000000 1.034570
33 -5.849912 4.319726 0.063164 0.461552 0.000000 0.696736
34 -5.827132 4.411093 0.063164 -0.329881 0.005779 0.696734
time 21
1 -3.200387 1.526460 32.567101 1.417168 -0.118171 -3.030509
2 -5.577779 -0.123184 0.054231 0.000000 0.000000 -0.212930
3 -5.512521 -2.697434 -3.989360 0.406067 -0.135627 -0.988914
4 10.569404 0.000000 0.000000 0.000000 0.000000 -2.438895
5 13.357942 0.000000 0.000000 0.000000 0.000000 2.881886
6 -5.435715 -2.622672 3.516682 2.747959 0.105399 -1.032857
7 10.523520 0.000000 0.000000 0.000000 0.000000 2.454558
8 13.611951 0.000000 0.000000 0.000000 0.000000 -2.922815
9 -8.416650 1.073514 -0.018171 -0.000000 -0.000000 0.172787
10 -9.984111 -4.710447 3.170796 0.239080 -3.136150 0.423459
11 5.945618 0.000000 0.000000 0.000000 0.000000 0.734092
12 -9.984111 -4.710445 -2.998739 -0.207126 0.046882 -2.710473
13 5.945623 0.000000 0.000000 0.000000 0.000000 -0.747043
14 -13.167567 0.616876 1.590356 -0.000000 0.000000 0.000000
15 -1.915743 -0.010427 0.304297 -0.000000 0.000000 0.691150
16 -13.157713 0.632508 -1.795553 -0.000000 0.000000 0.000000
17 -2.207746 -0.183759 -0.037490 0.000000 -0.000000 0.691150
18 -2.622040 -6.273479 8.263164 -2.144255 -0.054206 -1.261599
19 11.485749 0.000000 0.000000 0.000000 0.000000 -1.688405
20 24.536903 0.000000 0.000000 0.000000 0.000000 1.877857
21 -2.622039 -6.273479 -8.136835 -0.602803 0.222005 -1.209177
22 11.659969 0.000000 0.000000 0.000000 0.000000 1.758036
23 25.724375 0.000000 0.000000 0.000000 0.000000 -1.956053
24 3.880158 -0.980432 0.090609 0.000000 -0.000000 0.769690
25 13.389689 0.268266 -6.517195 0.542283 1.306249 -0.395924
26 9.913784 0.000000 0.000000 2.315284 0.490480 -1.121033
27 21.016008 0.000000 0.000000 0.000000 0.000000 -1.884371
28 28.471622 0.000000 0.000000 0.000000 0.000000 2.151800
29 13.389685 0.268266 6.023556 -0.462585 -1.348926 -0.488759
30 9.768896 0.000000 0.000000 -1.720129 -0.479538 -1.724217
31 19.931143 0.000000 0.000000 0.000000 0.000000 -1.302289
32 26.044123 0.000000 0.000000 0.000000 0.000000 1.238346
33 -5.849912 4.319726 0.063164 0.461552 0.000000 0.696736
34 -5.827132 4.411093 0.063164 -0.329881 0.005779 0.696734
time 22
1 -1.440868 1.526461 28.114462 1.455778 -0.152005 -3.055517
2 -5.577779 -0.123184 0.054231 0.000000 0.000000 -0.212930
3 -5.512521 -2.697434 -3.989360 0.406067 -0.135627 -0.988914
4 10.569404 0.000000 0.000000 0.000000 0.000000 -2.438895
5 13.357942 0.000000 0.000000 0.000000 0.000000 2.881886
6 -5.435715 -2.622672 3.516682 2.747959 0.105399 -1.032857
7 10.523520 0.000000 0.000000 0.000000 0.000000 2.454558
8 13.611951 0.000000 0.000000 0.000000 0.000000 -2.922815
9 -8.416650 1.073514 -0.018171 0.000000 -0.000000 0.172787
10 -9.984111 -4.710447 3.170796 0.239080 -3.136150 0.423458
11 5.945618 0.000000 0.000000 0.000000 0.000000 0.734090
12 -9.984111 -4.710445 -2.998739 -0.207126 0.046881 -2.710473
13 5.945623 0.000000 0.000000 0.000000 0.000000 -0.747041
14 -13.167567 0.616876 1.590356 -0.000000 0.000000 -0.000000
15 -1.915743 -0.010427 0.304297 0.000000 -0.000000 0.691150
16 -13.157713 0.632508 -1.795553 -0.000000 0.000000 0.000000
17 -2.207746 -0.183759 -0.037490 -0.000000 0.000000 0.691150
18 -2.622040 -6.273479 8.263164 -2.234270 -0.152269 -1.183666
19 11.485749 0.000000 0.000000 0.000000 0.000000 -1.724956
20 24.536903 0.000000 0.000000 0.000000 0.000000 1.956127
21 -2.622039 -6.273479 -8.136835 -0.580351 0.226206 -1.137436
22 11.659969 0.000000 0.000000 0.000000 0.000000 1.791245
23 25.724375 0.000000 0.000000 0.000000 0.000000 -2.026311
24 3.880158 -0.980432 0.090609 0.000000 0.000000 0.769690
25 13.389689 0.268266 -6.517195 0.542283 1.306249 -0.395924
26 9.913784 0.000000 0.000000 2.061999 0.560578 -1.315467
27 21.016008 0.000000 0.000000 0.000000 0.000000 -1.754334
28 28.471622 0.000000 0.000000 0.000000 0.000000 1.905090
29 13.389685 0.268266 6.023556 -0.462585 -1.348926 -0.488759
30 9.768896 0.000000 0.000000 -1.754332 -0.579650 -1.664194
31 19.931143 0.000000 0.000000 0.000000 0.000000 -1.442715
32 26.044123 0.000000 0.000000 0.000000 0.000000 1.480278
33 -5.849912 4.319726 0.063164 0.461553 0.000001 0.696736
34 -5.827132 4.411093 0.063164 -0.329881 0.005779 0.696734
time 23
1 -0.063165 1.526461 24.601475 1.498472 -0.188382 -3.088531
2 -5.577779 -0.123184 0.054231 0.000000 0.000000 -0.212930
3 -5.512521 -2.697434 -3.989360 0.406067 -0.135627 -0.988914
4 10.569404 0.000000 0.000000 0.000000 0.000000 -2.438895
5 13.357942 0.000000 0.000000 0.000000 0.000000 2.881886
6 -5.435715 -2.622672 3.516682 2.747959 0.105399 -1.032857
7 10.523520 0.000000 0.000000 0.000000 0.000000 2.454558
8 13.611951 0.000000 0.000000 0.000000 0.000000 -2.922815
9 -8.416650 1.073514 -0.018171 -0.000000 -0.000000 0.172787
10 -9.984111 -4.710447 3.170796 0.239080 -3.136151 0.423458
11 5.945618 0.000000 0.000000 0.000000 0.000000 0.734089
12 -9.984111 -4.710445 -2.998739 -0.207126 0.046881 -2.710475
13 5.945623 0.000000 0.000000 0.000000 0.000000 -0.747040
14 -13.167567 0.616876 1.590356 0.000000 0.000000 -0.000000
15 -1.915743 -0.010427 0.304297 0.000000 -0.000000 0.691150
16 -13.157713 0.632508 -1.795553 0.000000 0.000000 0.000000
17 -2.207746 -0.183759 -0.037490 -0.000000 -0.000000 0.691150
18 -2.622040 -6.273479 8.263164 -2.328375 -0.224770 -1.114197
19 11.485749 0.000000 0.000000 0.000000 0.000000 -1.743768
20 24.536903 0.000000 0.000000 0.000000 0.000000 1.996922
21 -2.622039 -6.273479 -8.136835 -0.581665 0.226084 -1.093194
22 11.659969 0.000000 0.000000 0.000000 0.000000 1.812818
23 25.724375 0.000000 0.000000 0.000000 0.000000 -2.072276
24 3.880158 -0.980432 0.090609 -0.000000 0.000000 0.769690
25 13.389689 0.268266 -6.517195 0.542283 1.306249 -0.395924
26 9.913784 0.000000 0.000000 2.084569 0.622333 -1.334941
27 21.016008 0.000000 0.000000 0.000000 0.000000 -1.792878
28 28.471622 0.000000 0.000000 0.000000 0.000000 1.976719
29 13.389685 0.268266 6.023556 -0.462585 -1.348926 -0.488759
30 9.768896 0.000000 0.000000 -1.801015 -0.681206 -1.590304
31 19.931143 0.000000 0.000000 0.000000 0.000000 -1.542610
32 26.044123 0.000000 0.000000 0.000000 0.000000 1.668079
33 -5.849912 4.319726 0.063164 0.461552 0.000000 0.696736
34 -5.827132 4.411093 0.063164 -0.329881 0.005779 0.696734
time 24
1 0.700469 1.526461 22.722172 1.539194 -0.220940 -3.121940
2 -5.577779 -0.123184 0.054231 -0.000000 0.000000 -0.212930
3 -5.512521 -2.697434 -3.989360 0.406067 -0.135627 -0.988915
4 10.569404 0.000000 0.000000 0.000000 0.000000 -2.438895
5 13.357942 0.000000 0.000000 0.000000 0.000000 2.881886
6 -5.435715 -2.622672 3.516682 2.747960 0.105399 -1.032856
7 10.523520 0.000000 0.000000 0.000000 0.000000 2.454558
8 13.611951 0.000000 0.000000 0.000000 0.000000 -2.922815
9 -8.416650 1.073514 -0.018171 -0.000000 -0.000000 0.172787
10 -9.984111 -4.710447 3.170796 0.239080 -3.136151 0.423456
11 5.945618 0.000000 0.000000 0.000000 0.000000 0.734085
12 -9.984111 -4.710445 -2.998739 -0.207126 0.046881 -2.710475
13 5.945623 0.000000 0.000000 0.000000 0.000000 -0.747038
14 -13.167567 0.616876 1.590356 -0.000000 0.000000 -0.000000
15 -1.915743 -0.010427 0.304297 0.000000 0.000000 0.691150
16 -13.157713 0.632508 -1.795553 0.000000 0.000000 0.000000
17 -2.207746 -0.183759 -0.037490 -0.000000 0.000000 0.691150
18 -2.622040 -6.273479 8.263164 -2.402440 -0.266078 -1.077237
19 11.485749 0.000000 0.000000 0.000000 0.000000 -1.749654
20 24.536903 0.000000 0.000000 0.000000 0.000000 2.009394
21 -2.622039 -6.273479 -8.136835 -0.604260 0.219653 -1.089927
22 11.659969 0.000000 0.000000 0.000000 0.000000 1.824555
23 25.724375 0.000000 0.000000 0.000000 0.000000 -2.097301
24 3.880158 -0.980432 0.090609 -0.000000 -0.000000 0.769690
25 13.389689 0.268266 -6.517195 0.542283 1.306249 -0.395924
26 9.913784 0.000000 0.000000 2.091404 0.658769 -1.371019
27 21.016008 0.000000 0.000000 0.000000 0.000000 -1.803770
28 28.471622 0.000000 0.000000 0.000000 0.000000 1.997355
29 13.389685 0.268266 6.023556 -0.462585 -1.348926 -0.488759
30 9.768896 0.000000 0.000000 -1.847963 -0.756146 -1.518604
31 19.931143 0.000000 0.000000 0.000000 0.000000 -1.600842
32 26.044123 0.000000 0.000000 0.000000 0.000000 1.783818
33 -5.849912 4.319726 0.063164 0.461552 0.000000 0.696736
34 -5.827132 4.411093 0.063164 -0.329881 0.005779 0.696734
time 25
1 1.082285 1.526461 21.782520 1.570796 -0.244346 3.136138
2 -5.577779 -0.123184 0.054231 0.000000 0.000000 -0.212930
3 -5.512521 -2.697434 -3.989360 0.406067 -0.135627 -0.988914
4 10.569404 0.000000 0.000000 0.000000 0.000000 -2.438894
5 13.357942 0.000000 0.000000 0.000000 0.000000 2.881885
6 -5.435715 -2.622672 3.516682 2.747960 0.105399 -1.032857
7 10.523520 0.000000 0.000000 0.000000 0.000000 2.454558
8 13.611951 0.000000 0.000000 0.000000 0.000000 -2.922815
9 -8.416650 1.073514 -0.018171 -0.000000 -0.000000 0.172787
10 -9.984111 -4.710447 3.170796 0.239080 -3.136152 0.423455
11 5.945618 0.000000 0.000000 0.000000 0.000000 0.734081
12 -9.984111 -4.710445 -2.998739 -0.207126 0.046881 -2.710477
13 5.945623 0.000000 0.000000 0.000000 0.000000 -0.747034
14 -13.167567 0.616876 1.590356 0.000000 -0.000000 0.000000
15 -1.915743 -0.010427 0.304297 -0.000000 0.000000 0.691150
16 -13.157713 0.632508 -1.795553 -0.000000 0.000000 0.000000
17 -2.207746 -0.183759 -0.037490 0.000000 -0.000000 0.691150
18 -2.622040 -6.273479 8.263164 -2.451581 -0.290595 -1.059744
19 11.485749 0.000000 0.000000 0.000000 0.000000 -1.751451
20 24.536903 0.000000 0.000000 0.000000 0.000000 2.013307
21 -2.622039 -6.273479 -8.136835 -0.627366 0.211400 -1.100290
22 11.659969 0.000000 0.000000 0.000000 0.000000 1.831417
23 25.724375 0.000000 0.000000 0.000000 0.000000 -2.111754
24 3.880158 -0.980432 0.090609 -0.000000 0.000000 0.769690
25 13.389689 0.268266 -6.517195 0.542283 1.306249 -0.395924
26 9.913784 0.000000 0.000000 2.092050 0.677842 -1.404772
27 21.016008 0.000000 0.000000 0.000000 0.000000 -1.804354
28 28.471622 0.000000 0.000000 0.000000 0.000000 1.998464
29 13.389685 0.268266 6.023556 -0.462585 -1.348926 -0.488759
30 9.768896 0.000000 0.000000 -1.884542 -0.804822 -1.462727
31 19.931143 0.000000 0.000000 0.000000 0.000000 -1.633530
32 26.044123 0.000000 0.000000 0.000000 0.000000 1.851076
33 -5.849912 4.319726 0.063164 0.461552 0.000000 0.696736
34 -5.827132 4.411093 0.063164 -0.329881 0.005779 0.696734
time 26
1 1.082285 1.526461 21.782516 1.581703 -0.251980 3.128155
2 -5.577779 -0.123184 0.054231 -0.000000 -0.000000 -0.212930
3 -5.512521 -2.697434 -3.989360 0.406067 -0.135627 -0.988914
4 10.569404 0.000000 0.000000 0.000000 0.000000 -2.438895
5 13.357942 0.000000 0.000000 0.000000 0.000000 2.881886
6 -5.435715 -2.622672 3.516682 2.747960 0.105399 -1.032856
7 10.523520 0.000000 0.000000 0.000000 0.000000 2.454558
8 13.611951 0.000000 0.000000 0.000000 0.000000 -2.922815
9 -8.416650 1.073514 -0.018171 -0.000000 -0.000000 0.172787
10 -9.984111 -4.710447 3.170796 0.239080 -3.136151 0.423456
11 5.945618 0.000000 0.000000 0.000000 0.000000 0.734085
12 -9.984111 -4.710445 -2.998739 -0.207126 0.046881 -2.710475
13 5.945623 0.000000 0.000000 0.000000 0.000000 -0.747038
14 -13.167567 0.616876 1.590356 -0.000000 0.000000 -0.000000
15 -1.915743 -0.010427 0.304297 0.000000 -0.000000 0.691150
16 -13.157713 0.632508 -1.795553 -0.000000 -0.000000 0.000000
17 -2.207746 -0.183759 -0.037490 0.000000 0.000000 0.691151
18 -2.622040 -6.273479 8.263164 -2.462790 -0.296946 -1.062083
19 11.485749 0.000000 0.000000 0.000000 0.000000 -1.751508
20 24.536903 0.000000 0.000000 0.000000 0.000000 2.013432
21 -2.622039 -6.273479 -8.136835 -0.638796 0.205826 -1.112369
22 11.659969 0.000000 0.000000 0.000000 0.000000 1.833016
23 25.724375 0.000000 0.000000 0.000000 0.000000 -2.115165
24 3.880158 -0.980432 0.090609 -0.000000 -0.000000 0.769690
25 13.389689 0.268266 -6.517195 0.542283 1.306249 -0.395924
26 9.913784 0.000000 0.000000 2.088799 0.678943 -1.420859
27 21.016008 0.000000 0.000000 0.000000 0.000000 -1.799429
28 28.471622 0.000000 0.000000 0.000000 0.000000 1.989124
29 13.389685 0.268266 6.023556 -0.462585 -1.348926 -0.488759
30 9.768896 0.000000 0.000000 -1.893722 -0.815327 -1.446981
31 19.931143 0.000000 0.000000 0.000000 0.000000 -1.638571
32 26.044123 0.000000 0.000000 0.000000 0.000000 1.861694
33 -5.849912 4.319726 0.063164 0.461552 0.000000 0.696736
34 -5.827132 4.411093 0.063164 -0.329881 0.005779 0.696734
time 27
1 0.700469 1.526461 22.722172 1.576239 -0.248174 3.132159
2 -5.577779 -0.123184 0.054231 0.000000 -0.000000 -0.212930
3 -5.512521 -2.697434 -3.989360 0.406067 -0.135627 -0.988914
4 10.569404 0.000000 0.000000 0.000000 0.000000 -2.438895
5 13.357942 0.000000 0.000000 0.000000 0.000000 2.881886
6 -5.435715 -2.622672 3.516682 2.747960 0.105399 -1.032856
7 10.523520 0.000000 0.000000 0.000000 0.000000 2.454558
8 13.611951 0.000000 0.000000 0.000000 0.000000 -2.922815
9 -8.416650 1.073514 -0.018171 0.000000 -0.000000 0.172787
10 -9.984111 -4.710447 3.170796 0.239080 -3.136151 0.423454
11 5.945618 0.000000 0.000000 0.000000 0.000000 0.734081
12 -9.984111 -4.710445 -2.998739 -0.207126 0.046881 -2.710477
13 5.945623 0.000000 0.000000 0.000000 0.000000 -0.747033
14 -13.167567 0.616876 1.590356 -0.000000 0.000000 -0.000000
15 -1.915743 -0.010427 0.304297 0.000000 0.000000 0.691150
16 -13.157713 0.632508 -1.795553 -0.000000 0.000000 0.000000
17 -2.207746 -0.183759 -0.037490 -0.000000 0.000000 0.691150
18 -2.622040 -6.273479 8.263164 -2.442317 -0.287221 -1.085989
19 11.485749 0.000000 0.000000 0.000000 0.000000 -1.749775
20 24.536903 0.000000 0.000000 0.000000 0.000000 2.009657
21 -2.622039 -6.273479 -8.136835 -0.645365 0.201863 -1.132457
22 11.659969 0.000000 0.000000 0.000000 0.000000 1.830519
23 25.724375 0.000000 0.000000 0.000000 0.000000 -2.109839
24 3.880158 -0.980432 0.090609 0.000000 0.000000 0.769690
25 13.389689 0.268266 -6.517195 0.542283 1.306249 -0.395924
26 9.913784 0.000000 0.000000 2.078102 0.663892 -1.427441
27 21.016008 0.000000 0.000000 0.000000 0.000000 -1.785565
28 28.471622 0.000000 0.000000 0.000000 0.000000 1.963197
29 13.389685 0.268266 6.023556 -0.462585 -1.348926 -0.488759
30 9.768896 0.000000 0.000000 -1.879154 -0.792358 -1.466026
31 19.931143 0.000000 0.000000 0.000000 0.000000 -1.619399
32 26.044123 0.000000 0.000000 0.000000 0.000000 1.822070
33 -5.849912 4.319726 0.063164 0.461552 -0.000000 0.696736
34 -5.827132 4.411093 0.063164 -0.329881 0.005779 0.696734
end
