version 1
nodes
  0 "hc_body" -1
  1 "BoxHC_Clavicle" 0
  2 "Bone_Shoulder_L" 1
  3 "Bone_UppArm_L" 2
  4 "Bone_Finger_L" 3
  5 "Bone_Shoulder_R" 1
  6 "Bone_UpArm_R" 5
  7 "Bone_Finger_R" 6
  8 "HC_Hips" 0
  9 "DummyHip_L" 8
  10 "Bone05" 9
  11 "Bone_Knee_L" 10
  12 "Bone07" 11
  13 "DummyHip_R" 8
  14 "Bone01" 13
  15 "Bone_Knee_R" 14
  16 "Bone03" 15
  17 "Box_Body_Back" 0
  18 "Box_Body_Right" 0
  19 "Box_Body_Left" 0
  20 "Box_Body_Front" 0
  21 "Box_Hole_Left" 0
  22 "Box_Hole_Right" 0
  23 "Box_Hole_Front" 0
  24 "Box_Hole_Back" 0
  25 "Headcrab Mesh02" -1
end
skeleton
time 0
    0 0.000300 0.074221 8.372408 -0.113407 0.000000 -0.000008
    1 0.499394 -1.112959 -1.743087 0.000000 0.000000 0.000000
    2 0.811076 0.000000 0.000000 -0.000227 0.235591 -0.002075
    3 3.217810 -1.313908 -0.117041 0.002500 0.000000 0.005622
    4 5.020581 -12.365363 -0.141199 0.009075 0.000000 0.309655
    5 -0.814324 0.000000 0.000000 0.629581 -0.122746 -0.085596
    6 -3.014840 -1.425123 -0.117041 -0.645055 -0.135041 0.186183
    7 -5.182895 -12.052588 -0.133394 -0.085010 0.000000 -0.327483
    8 0.685547 4.328125 0.566406 0.000000 0.000000 0.000000
    9 2.880558 0.002299 0.002923 0.106800 0.067652 0.009946
    10 0.000000 0.000000 0.000000 -0.243339 0.000000 -0.460361
    11 -0.109736 6.529850 7.636820 0.587319 0.000000 0.000000
    12 2.192401 4.260851 -9.219817 -0.003547 0.000000 0.000000
    13 -2.880557 -0.002451 -0.004128 0.113622 -0.060719 -0.006354
    14 0.000000 0.000000 0.000000 -0.292861 0.000000 0.508396
    15 0.109736 6.529850 7.636822 0.653759 0.000000 0.000000
    16 -2.192400 4.260849 -9.219818 0.055735 0.000000 0.000000
    17 0.580877 3.320285 3.955252 0.000101 0.005011 0.000271
    18 -3.963383 1.536854 1.194632 0.000000 0.000000 0.000000
    19 5.173094 1.495372 1.211121 0.000108 0.005010 0.000276
    20 0.580877 -2.298774 1.057940 0.366519 0.000000 0.000000
    21 0.315750 2.592530 -4.520530 0.000000 0.000000 0.044331
    22 1.050236 2.591210 -4.628012 0.000000 0.000000 0.044331
    23 0.499394 1.376249 -4.985539 0.000000 0.000000 0.044331
    24 0.498970 4.456954 -3.014557 0.000000 0.000000 0.044331
    25 -2.628906 -0.510254 6.773438 0.000000 0.000000 -1.570796
time 1
    0 0.000300 0.031251 10.169337 -0.368080 0.000000 -0.000008
    1 0.499394 -1.062176 -1.723555 0.000000 0.000000 0.000000
    2 0.811076 0.000000 0.000000 -0.041796 -0.093681 -0.110706
    3 3.217810 -1.313908 -0.117041 0.436255 0.000000 -0.129330
    4 5.020581 -12.365363 -0.141199 0.139708 0.000000 0.138875
    5 -0.814324 0.000000 0.000000 0.624597 -0.038764 -0.024215
    6 -3.014840 -1.425123 -0.117041 -0.259993 -0.135041 0.062573
    7 -5.182895 -12.052588 -0.133394 0.165039 0.000000 -0.424102
    8 0.685547 4.328125 0.566406 0.000000 0.000000 0.000000
    9 2.880558 0.002299 0.002923 0.355806 0.234538 0.041663
    10 0.000000 0.000000 0.000000 -0.374659 0.000000 -0.373291
    11 -0.109736 6.529850 7.636820 0.484703 0.000000 0.000000
    12 2.192401 4.260851 -9.219817 -0.019854 0.000000 0.000000
    13 -2.880557 -0.002451 -0.004128 0.363697 -0.219996 -0.036653
    14 0.000000 0.000000 0.000000 -0.314772 0.000000 0.529812
    15 0.109736 6.529850 7.636822 0.531640 0.000000 0.000000
    16 -2.192400 4.260849 -9.219818 -0.010223 0.000000 0.000000
    17 0.580877 3.039026 4.244323 0.000371 0.015928 0.002968
    18 -4.100106 1.341536 1.257134 0.000000 0.000000 0.000000
    19 5.204345 1.456308 1.222840 0.000372 0.015940 0.002960
    20 0.580877 -2.247991 1.077472 0.366519 0.000000 0.000000
    21 0.315750 2.592530 -4.520530 0.000000 0.000000 0.044331
    22 1.050236 2.591210 -4.628012 0.000000 0.000000 0.044331
    23 0.499394 1.376249 -4.985539 0.000000 0.000000 0.044331
    24 0.498970 4.456954 -3.014557 0.000000 0.000000 0.044331
    25 -2.628906 -0.510254 6.773438 0.000000 0.000000 -1.570796
time 2
    0 0.000300 0.000000 11.747511 -0.711029 0.000000 -0.000008
    1 0.499394 -1.112959 -1.743087 0.000000 0.000000 0.000000
    2 0.811076 0.000000 0.000000 -0.070594 0.006816 -0.260512
    3 3.217810 -1.313908 -0.117041 0.722524 0.000000 -0.235637
    4 5.020581 -12.365363 -0.141199 0.564488 0.000000 0.000000
    5 -0.814324 0.000000 0.000000 0.628143 0.106341 0.080704
    6 -3.014840 -1.425123 -0.117041 0.285467 -0.135041 0.100350
    7 -5.182895 -12.052588 -0.133394 0.309710 0.000000 -0.370855
    8 0.685547 4.328125 0.566406 0.000000 0.000000 0.000000
    9 2.880558 0.002299 0.002923 0.726176 0.411514 0.218141
    10 0.000000 0.000000 0.000000 -0.766779 0.000000 -0.326150
    11 -0.109736 6.529850 7.636820 0.678593 0.000000 0.000000
    12 2.192401 4.260851 -9.219817 0.050656 0.000000 0.000000
    13 -2.880557 -0.002451 -0.004128 0.731288 -0.388827 -0.204373
    14 0.000000 0.000000 0.000000 -0.445842 0.000000 0.584108
    15 0.109736 6.529850 7.636822 0.529896 0.000000 0.000000
    16 -2.192400 4.260849 -9.219818 -0.003064 0.000000 0.000000
    17 0.580877 2.953086 4.275574 0.000793 0.028913 0.010741
    18 -4.045416 1.423570 1.229789 0.000000 0.000000 0.000000
    19 5.083248 1.616469 1.172057 0.000791 0.028919 0.010750
    20 0.580877 -2.298774 1.057940 0.366519 0.000000 0.000000
    21 0.315750 2.592530 -4.520530 0.000000 0.000000 0.044331
    22 1.050236 2.591210 -4.628012 0.000000 0.000000 0.044331
    23 0.499394 1.376249 -4.985539 0.000000 0.000000 0.044331
    24 0.498970 4.456954 -3.014557 0.000000 0.000000 0.044331
    25 -2.628906 -0.510254 6.773438 0.000000 0.000000 -1.570796
time 3
    0 0.000300 0.019532 12.028769 -1.020977 0.000000 -0.000008
    1 0.499394 -1.261401 -1.801682 0.000000 0.000000 0.000000
    2 0.811076 0.000000 0.000000 -0.085675 0.227516 -0.341076
    3 3.217810 -1.313908 -0.117041 0.854423 0.000000 -0.405845
    4 5.020581 -12.365363 -0.141199 1.059832 0.000000 0.056154
    5 -0.814324 0.000000 0.000000 0.638472 0.198062 0.148807
    6 -3.014840 -1.425123 -0.117041 0.474393 -0.135041 0.401786
    7 -5.182895 -12.052588 -0.133394 0.536729 0.000000 0.000000
    8 0.685547 4.328125 0.566406 0.000000 0.000000 0.000000
    9 2.880558 0.002299 0.002923 1.112362 0.499962 0.526031
    10 0.000000 0.000000 0.000000 -1.045733 0.000000 -0.461219
    11 -0.109736 6.529850 7.636820 1.016060 0.000000 0.000000
    12 2.192401 4.260851 -9.219817 0.041761 0.000000 0.000000
    13 -2.880557 -0.002451 -0.004128 1.109144 -0.473599 -0.495075
    14 0.000000 0.000000 0.000000 -0.556020 0.000000 0.677228
    15 0.109736 6.529850 7.636822 0.632467 0.000000 0.000000
    16 -2.192400 4.260849 -9.219818 0.057056 0.000000 0.000000
    17 0.580877 2.894490 4.174009 0.001232 0.037762 0.021182
    18 -3.904787 1.618888 1.171194 0.000000 0.000000 0.000000
    19 5.083248 1.616469 1.172057 0.001234 0.037775 0.021189
    20 0.580877 -2.447216 0.999344 0.366519 0.000000 0.000000
    21 1.671260 2.651126 -4.379901 0.000000 0.000000 0.044331
    22 -0.461529 2.591210 -4.628012 0.000000 0.000000 0.044331
    23 0.499394 1.102803 -5.196483 0.000000 0.000000 0.044331
    24 0.498970 5.046816 -3.221594 0.000000 0.000000 0.044331
    25 -2.628906 -0.510254 6.773438 0.000000 0.000000 -1.570796
time 4
    0 0.000300 0.046876 12.204556 -1.291452 0.000000 -0.000008
    1 0.499394 -1.503595 -1.903248 0.000000 0.000000 0.000000
    2 0.811076 0.000000 0.000000 0.383626 0.214450 -0.240294
    3 3.217810 -1.313908 -0.117041 0.233576 0.000000 -0.313047
    4 5.020581 -12.365363 -0.141199 1.427644 0.000000 0.122176
    5 -0.814324 0.000000 0.000000 0.631791 0.145783 0.109688
    6 -3.014840 -1.425123 -0.117041 0.374656 -0.135041 0.801579
    7 -5.182895 -12.052588 -0.133394 0.952186 0.000000 0.000000
    8 0.685547 4.328125 0.566406 0.000000 0.000000 0.000000
    9 2.880558 0.002299 0.002923 1.441244 0.455619 0.860065
    10 0.000000 0.000000 0.000000 -1.056449 0.000000 -0.635530
    11 -0.109736 6.529850 7.636820 1.228408 0.000000 0.000000
    12 2.192401 4.260851 -9.219817 0.035210 0.000000 0.000000
    13 -2.880557 -0.002451 -0.004128 1.431900 -0.432491 -0.811297
    14 0.000000 0.000000 0.000000 -0.701358 0.000000 0.744278
    15 0.109736 6.529850 7.636822 0.952351 0.000000 0.000000
    16 -2.192400 4.260849 -9.219818 0.067551 0.000000 0.000000
    17 0.580877 2.703078 4.111507 0.001620 0.042581 0.032134
    18 -3.904787 1.618888 1.171194 0.000000 0.000000 0.000000
    19 5.083248 1.616469 1.172057 0.001618 0.042581 0.032143
    20 0.580877 -2.689410 0.897779 0.366519 0.000000 0.000000
    21 2.983800 2.635500 -4.227553 0.000000 0.000000 0.044331
    22 -1.930324 2.591210 -4.620200 0.000000 0.000000 0.044331
    23 0.499394 0.919203 -5.473835 0.000000 0.000000 0.044331
    24 0.498970 5.699179 -3.030182 0.000000 0.000000 0.044331
    25 -2.628906 -0.510254 6.773438 0.000000 0.000000 -1.570796
time 5
    0 0.000300 0.082034 12.282683 -1.561166 0.000000 -0.000008
    1 0.499394 -1.847356 -2.039971 0.000000 0.000000 0.000000
    2 0.811076 0.000000 0.000000 0.164379 0.178158 -0.109206
    3 3.217810 -1.313908 -0.117041 0.251778 0.000000 -0.486650
    4 5.020581 -12.365363 -0.141199 1.502809 0.000000 0.185162
    5 -0.814324 0.000000 0.000000 0.624134 0.016261 0.015417
    6 -3.014840 -1.425123 -0.117041 0.206114 -0.135041 0.920538
    7 -5.182895 -12.052588 -0.133394 1.231050 0.000000 -0.009837
    8 0.685547 4.328125 0.566406 0.000000 0.000000 0.000000
    9 2.880558 0.002299 0.002923 1.621421 0.245261 0.922400
    10 0.000000 0.000000 0.000000 -1.074605 0.000000 -0.675115
    11 -0.109736 6.529850 7.636820 1.290823 0.000000 0.000000
    12 2.192401 4.260851 -9.219817 0.033130 0.000000 0.000000
    13 -2.880557 -0.002451 -0.004128 1.621506 -0.230598 -0.873470
    14 0.000000 0.000000 0.000000 -1.011453 0.000000 0.751776
    15 0.109736 6.529850 7.636822 1.324509 0.000000 0.000000
    16 -2.192400 4.260849 -9.219818 0.093475 0.000000 0.000000
    17 0.580877 2.171812 4.256042 0.001941 0.044265 0.043945
    18 -3.916506 1.599356 1.175100 0.000000 0.000000 0.000000
    19 5.118405 1.569593 1.187683 0.001953 0.044283 0.043947
    20 0.580877 -3.033171 0.761056 0.366519 0.000000 0.000000
    21 4.147898 2.549560 -4.110361 0.000000 0.000000 0.044331
    22 -3.254583 2.591210 -4.538166 0.000000 0.000000 0.044331
    23 0.499394 0.333248 -5.520711 0.000000 0.000000 0.044331
    24 0.498970 6.312479 -1.994994 0.000000 0.000000 0.044331
    25 -2.628906 -0.510254 6.773438 0.000000 0.000000 -1.570796
time 6
    0 0.000300 0.113285 12.317840 -1.776747 0.000000 -0.000008
    1 0.499394 -2.362997 -2.247008 0.000000 0.000000 0.000000
    2 0.811076 0.000000 0.000000 0.153579 0.343814 0.042244
    3 3.217810 -1.313908 -0.117041 0.004635 0.000000 -0.309471
    4 5.020581 -12.365363 -0.141199 1.412755 0.000000 0.118594
    5 -0.814324 0.000000 0.000000 0.632048 -0.148208 -0.104056
    6 -3.014840 -1.425123 -0.117041 -0.059095 -0.135041 0.734838
    7 -5.182895 -12.052588 -0.133394 1.277327 0.000000 -0.011312
    8 0.685547 4.328125 0.566406 0.000000 0.000000 0.000000
    9 2.880558 0.002299 0.002923 1.751289 0.071825 0.942972
    10 0.000000 0.000000 0.000000 -0.924582 0.000000 -0.763730
    11 -0.109736 6.529850 7.636820 1.161117 0.000000 0.000000
    12 2.192401 4.260851 -9.219817 -0.045413 0.000000 0.000000
    13 -2.880557 -0.002451 -0.004128 1.759552 -0.063652 -0.893844
    14 0.000000 0.000000 0.000000 -1.175418 0.000000 0.793532
    15 0.109736 6.529850 7.636822 1.478181 0.000000 0.000000
    16 -2.192400 4.260849 -9.219818 0.109843 0.000000 0.000000
    17 0.580877 1.773362 4.322451 0.002110 0.043327 0.053436
    18 -4.045416 1.423570 1.229789 0.000000 0.000000 0.000000
    19 5.302004 1.331304 1.265810 0.002109 0.043336 0.053439
    20 0.580877 -3.548812 0.554018 0.366519 0.000000 0.000000
    21 4.476033 2.475339 -4.098642 0.000000 0.000000 0.044331
    22 -3.637407 2.591210 -4.491289 0.000000 0.000000 0.044331
    23 0.499394 -0.158955 -5.501179 0.000000 0.000000 0.044331
    24 0.498970 6.429670 -1.299661 0.000000 0.000000 0.044331
    25 -2.628906 -0.510254 6.773438 0.000000 0.000000 -1.570796
time 7
    0 0.000300 0.136723 12.356904 -1.884949 0.000000 -0.000008
    1 0.499394 -3.023173 -2.512642 0.000000 0.000000 0.000000
    2 0.811076 0.000000 0.000000 0.086964 0.411665 0.145738
    3 3.217810 -1.313908 -0.117041 -0.070361 0.000000 -0.216312
    4 5.020581 -12.365363 -0.141199 1.243402 0.000000 0.079578
    5 -0.814324 0.000000 0.000000 0.664578 -0.325657 -0.242009
    6 -3.014840 -1.425123 -0.117041 -0.260482 -0.135041 0.434136
    7 -5.182895 -12.052588 -0.133394 1.197925 0.000000 -0.010316
    8 0.685547 4.328125 0.566406 0.000000 0.000000 0.000000
    9 2.880558 0.002299 0.002923 1.814792 -0.015805 0.944761
    10 0.000000 0.000000 0.000000 -0.627472 0.000000 -0.898456
    11 -0.109736 6.529850 7.636820 0.854930 0.000000 0.000000
    12 2.192401 4.260851 -9.219817 -0.057009 0.000000 0.000000
    13 -2.880557 -0.002451 -0.004128 1.827277 0.020701 -0.895262
    14 0.000000 0.000000 0.000000 -1.218391 0.000000 0.865796
    15 0.109736 6.529850 7.636822 1.455078 0.000000 0.000000
    16 -2.192400 4.260849 -9.219818 0.085448 0.000000 0.000000
    17 0.580877 1.746018 4.213072 0.002143 0.042090 0.058076
    18 -4.076667 1.380599 1.245415 0.000000 0.000000 0.000000
    19 5.192626 1.471934 1.218934 0.002157 0.042102 0.058077
    20 0.580877 -4.208988 0.288385 0.366519 0.000000 0.000000
    21 4.519003 2.440182 -4.106455 0.000000 0.000000 0.044331
    22 -3.684284 2.591210 -4.487383 0.000000 0.000000 0.044331
    23 0.499394 -0.463651 -5.532430 0.000000 0.000000 0.044331
    24 0.498970 6.390607 -1.053559 0.000000 0.000000 0.044331
    25 -2.628906 -0.510254 6.773438 0.000000 0.000000 -1.570796
time 8
    0 0.000300 0.152348 12.462376 -1.921123 -0.000723 0.000994
    1 0.503300 -3.687256 -2.778275 0.000000 0.000000 0.000000
    2 0.811076 0.000000 0.000000 0.036604 0.431070 0.200208
    3 3.217810 -1.313908 -0.117041 -0.144771 0.000000 -0.145621
    4 5.020581 -12.365363 -0.141199 1.061900 0.000000 0.000000
    5 -0.814324 0.000000 0.000000 0.696440 -0.425330 -0.328695
    6 -3.014840 -1.425123 -0.117041 -0.487015 -0.135041 0.187855
    7 -5.182895 -12.052588 -0.133394 1.106571 0.000000 -0.016929
    8 0.685547 4.328125 0.566406 0.000000 0.000000 0.000000
    9 2.880558 0.002299 0.002923 1.836570 -0.044698 0.945105
    10 0.000000 0.000000 0.000000 -0.397047 0.000000 -1.034213
    11 -0.109736 6.529850 7.636820 0.667685 0.000000 0.000000
    12 2.192401 4.260851 -9.219817 -0.062676 0.000000 0.000000
    13 -2.880557 -0.002451 -0.004128 1.849341 0.049405 -0.893477
    14 0.000000 0.000000 0.000000 -1.103174 0.000000 0.918411
    15 0.109736 6.529850 7.636822 1.237665 0.000000 0.000000
    16 -2.192400 4.260849 -9.219818 0.003538 0.000000 0.000000
    17 0.580877 1.867115 4.076349 0.002126 0.041578 0.059583
    18 -4.092293 1.357161 1.253227 0.000000 0.000000 0.000000
    19 5.083248 1.616469 1.172057 0.002121 0.041575 0.059587
    20 0.584783 -4.873071 0.022752 0.366519 0.000000 0.000000
    21 4.561973 2.432369 -4.110361 0.000000 0.000000 0.044331
    22 -3.735067 2.591210 -4.479570 0.000000 0.000000 0.044331
    23 0.499394 -0.783974 -5.540243 0.000000 0.000000 0.044331
    24 0.498970 6.398419 -0.905117 0.000000 0.000000 0.044331
    25 -2.628906 -0.510254 6.773438 0.000000 0.000000 -1.570796
time 9
    0 0.000300 0.160161 12.630350 -1.955837 -0.002627 0.003866
    1 0.503300 -4.202897 -2.993125 0.000000 0.000000 0.000000
    2 0.811076 0.000000 0.000000 0.030390 0.410840 0.208324
    3 3.217810 -1.313908 -0.117041 -0.191905 0.000000 -0.057519
    4 5.020581 -12.365363 -0.141199 0.877555 0.000000 0.000000
    5 -0.814324 0.000000 0.000000 0.704714 -0.446370 -0.348305
    6 -3.014840 -1.425123 -0.117041 -0.638957 -0.135041 0.011457
    7 -5.182895 -12.052588 -0.133394 0.957480 0.000000 0.000000
    8 0.685547 4.328125 0.566406 0.000000 0.000000 0.000000
    9 2.880558 0.002299 0.002923 1.858506 -0.071662 0.946687
    10 0.000000 0.000000 0.000000 -0.270026 0.000000 -1.126005
    11 -0.109736 6.529850 7.636820 0.585296 0.000000 0.000000
    12 2.192401 4.260851 -9.219817 -0.061958 0.000000 0.000000
    13 -2.880557 -0.002451 -0.004128 1.869635 0.077648 -0.889381
    14 0.000000 0.000000 0.000000 -0.873419 0.000000 0.893590
    15 0.109736 6.529850 7.636822 0.860108 0.000000 0.000000
    16 -2.192400 4.260849 -9.219818 -0.030310 0.000000 0.000000
    17 0.584783 1.874928 4.029473 0.002042 0.041024 0.061014
    18 -4.174327 1.239970 1.288385 0.000000 0.000000 0.000000
    19 5.083248 1.616469 1.172057 0.002037 0.041023 0.061026
    20 0.584783 -5.388712 -0.192098 0.366519 0.000000 0.000000
    21 4.604944 2.432369 -4.122081 0.000000 0.000000 0.044331
    22 -3.785849 2.579491 -4.467851 0.000000 0.000000 0.044331
    23 0.507207 -1.069139 -5.567588 0.000000 0.000000 0.044331
    24 0.498970 6.398419 -0.756675 0.000000 0.000000 0.044331
    25 -2.628906 -0.510254 6.773438 0.000000 0.000000 -1.570796
time 10
    0 0.000300 0.160161 12.802230 -1.988012 -0.005375 0.008274
    1 0.507207 -4.511500 -3.133754 0.000000 0.000000 0.000000
    2 0.811076 0.000000 0.000000 0.026222 0.387615 0.215186
    3 3.217810 -1.313908 -0.117041 -0.197082 0.000000 -0.009368
    4 5.020581 -12.365363 -0.141199 0.715283 0.000000 0.000000
    5 -0.814324 0.000000 0.000000 0.704919 -0.446905 -0.348840
    6 -3.014840 -1.425123 -0.117041 -0.706339 -0.135041 -0.078375
    7 -5.182895 -12.052588 -0.133394 0.796656 0.000000 -0.090420
    8 0.685547 4.328125 0.566406 0.000000 0.000000 0.000000
    9 2.880558 0.002299 0.002923 1.879806 -0.096092 0.949164
    10 0.000000 0.000000 0.000000 -0.177746 0.000000 -1.183622
    11 -0.109736 6.529850 7.636820 0.519378 0.000000 0.000000
    12 2.192401 4.260851 -9.219817 -0.061887 0.000000 0.000000
    13 -2.880557 -0.002451 -0.004128 1.887805 0.104467 -0.883500
    14 0.000000 0.000000 0.000000 -0.660253 0.000000 0.831625
    15 0.109736 6.529850 7.636822 0.532478 0.000000 0.000000
    16 -2.192400 4.260849 -9.219818 -0.054497 0.000000 0.000000
    17 0.588690 1.839771 4.017754 0.001907 0.040470 0.062325
    18 -4.225109 1.173562 1.307917 0.000000 0.000000 0.000000
    19 5.083248 1.616469 1.172057 0.001918 0.040472 0.062332
    20 0.588690 -5.697315 -0.332727 0.366519 0.000000 0.000000
    21 4.647914 2.436275 -4.129893 0.000000 0.000000 0.044331
    22 -3.832726 2.563865 -4.452226 0.000000 0.000000 0.044331
    23 0.511113 -1.315240 -5.606651 0.000000 0.000000 0.044331
    24 0.498970 6.402326 -0.616046 0.000000 0.000000 0.044331
    25 -2.628906 -0.510254 6.773438 0.000000 0.000000 -1.570796
time 11
    0 0.000300 0.156255 12.931140 -2.016887 -0.008629 0.013685
    1 0.511113 -4.687286 -3.227507 0.000000 0.000000 0.000000
    2 0.811076 0.000000 0.000000 0.023835 0.361829 0.220734
    3 3.217810 -1.313908 -0.117041 -0.200552 0.000000 0.028343
    4 5.020581 -12.365363 -0.141199 0.613961 0.000000 0.000000
    5 -0.814324 0.000000 0.000000 0.699164 -0.432391 -0.335314
    6 -3.014840 -1.425123 -0.117041 -0.731929 -0.135041 -0.085799
    7 -5.182895 -12.052588 -0.133394 0.627210 0.000000 0.000000
    8 0.685547 4.328125 0.566406 0.000000 0.000000 0.000000
    9 2.880558 0.002299 0.002923 1.899516 -0.117458 0.952260
    10 0.000000 0.000000 0.000000 -0.103008 0.000000 -1.213590
    11 -0.109736 6.529850 7.636820 0.450281 0.000000 0.000000
    12 2.192401 4.260851 -9.219817 -0.062126 0.000000 0.000000
    13 -2.880557 -0.002451 -0.004128 1.903497 0.128939 -0.876411
    14 0.000000 0.000000 0.000000 -0.528617 0.000000 0.786336
    15 0.109736 6.529850 7.636822 0.343096 0.000000 0.000000
    16 -2.192400 4.260849 -9.219818 -0.061516 0.000000 0.000000
    17 0.592596 1.828052 3.990409 0.001755 0.039937 0.063485
    18 -4.217297 1.181375 1.304010 0.000000 0.000000 0.000000
    19 5.083248 1.616469 1.172057 0.001762 0.039945 0.063494
    20 0.592596 -5.873101 -0.426480 0.366519 0.000000 0.000000
    21 4.694790 2.444088 -4.141612 0.000000 0.000000 0.044331
    22 -3.883509 2.544333 -4.432694 0.000000 0.000000 0.044331
    23 0.522832 -1.530090 -5.657434 0.000000 0.000000 0.044331
    24 0.495064 6.398419 -0.475417 0.000000 0.000000 0.044331
    25 -2.628906 -0.510254 6.773438 0.000000 0.000000 -1.570796
time 12
    0 0.000300 0.148442 12.958485 -2.041383 -0.012149 0.019763
    1 0.515019 -4.781039 -3.290009 0.000000 0.000000 0.000000
    2 0.811076 0.000000 0.000000 0.022887 0.333873 0.224884
    3 3.217810 -1.313908 -0.117041 -0.219875 0.000000 0.052148
    4 5.020581 -12.365363 -0.141199 0.593127 0.000000 0.116783
    5 -0.814324 0.000000 0.000000 0.690171 -0.408177 -0.313257
    6 -3.014840 -1.425123 -0.117041 -0.777280 -0.135041 -0.067727
    7 -5.182895 -12.052588 -0.133394 0.563142 0.000000 0.000000
    8 0.685547 4.328125 0.566406 0.000000 0.000000 0.000000
    9 2.880558 0.002299 0.002923 1.917002 -0.135153 0.955907
    10 0.000000 0.000000 0.000000 -0.036597 0.000000 -1.221404
    11 -0.109736 6.529850 7.636820 0.372912 0.000000 0.000000
    12 2.192401 4.260851 -9.219817 -0.064899 0.000000 0.000000
    13 -2.880557 -0.002451 -0.004128 1.916299 0.150184 -0.868797
    14 0.000000 0.000000 0.000000 -0.426082 0.000000 0.748760
    15 0.109736 6.529850 7.636822 0.222184 0.000000 0.000000
    16 -2.192400 4.260849 -9.219818 -0.066243 0.000000 0.000000
    17 0.600409 1.835864 3.955252 0.001603 0.039468 0.064464
    18 -4.182139 1.228251 1.292291 0.000000 0.000000 0.000000
    19 5.083248 1.616469 1.172057 0.001606 0.039477 0.064465
    20 0.596502 -5.966854 -0.488982 0.366519 0.000000 0.000000
    21 4.737760 2.455807 -4.153332 0.000000 0.000000 0.044331
    22 -3.934291 2.524802 -4.417068 0.000000 0.000000 0.044331
    23 0.534551 -1.705877 -5.704311 0.000000 0.000000 0.044331
    24 0.495064 6.402326 -0.342600 0.000000 0.000000 0.044331
    25 -2.628906 -0.510254 6.773438 0.000000 0.000000 -1.570796
time 13
    0 0.000300 0.136723 12.833481 -2.060612 -0.015644 0.026042
    1 0.515019 -4.851354 -3.344698 0.000000 0.000000 0.000000
    2 0.811076 0.000000 0.000000 0.023077 0.304267 0.227576
    3 3.217810 -1.313908 -0.117041 -0.239999 0.000000 0.076097
    4 5.020581 -12.365363 -0.141199 0.583254 0.000000 0.155014
    5 -0.814324 0.000000 0.000000 0.680509 -0.379648 -0.288055
    6 -3.014840 -1.425123 -0.117041 -0.826815 -0.135041 -0.037212
    7 -5.182895 -12.052588 -0.133394 0.534601 0.000000 0.000000
    8 0.685547 4.328125 0.566406 0.000000 0.000000 0.000000
    9 2.880558 0.002299 0.002923 1.931387 -0.148543 0.959897
    10 0.000000 0.000000 0.000000 0.030633 0.000000 -1.211014
    11 -0.109736 6.529850 7.636820 0.282468 0.000000 0.000000
    12 2.192401 4.260851 -9.219817 -0.065019 0.000000 0.000000
    13 -2.880557 -0.002451 -0.004128 1.925856 0.167323 -0.861288
    14 0.000000 0.000000 0.000000 -0.338891 0.000000 0.720449
    15 0.109736 6.529850 7.636822 0.141241 0.000000 0.000000
    16 -2.192400 4.260849 -9.219818 -0.065478 0.000000 0.000000
    17 0.608222 1.863209 3.912282 0.001434 0.039084 0.065217
    18 -4.135263 1.298566 1.268853 0.000000 0.000000 0.000000
    19 5.083248 1.616469 1.172057 0.001438 0.039082 0.065208
    20 0.596502 -6.037169 -0.543671 0.366519 0.000000 0.000000
    21 4.780730 2.471433 -4.165051 0.000000 0.000000 0.044331
    22 -3.981168 2.501363 -4.397537 0.000000 0.000000 0.044331
    23 0.546270 -1.850412 -5.747281 0.000000 0.000000 0.044331
    24 0.495064 6.406232 -0.217596 0.000000 0.000000 0.044331
    25 -2.628906 -0.510254 6.773438 0.000000 0.000000 -1.570796
time 14
    0 0.000300 0.128910 12.501440 -2.073622 -0.018970 0.032053
    1 0.518926 -4.956826 -3.407200 0.000000 0.000000 0.000000
    2 0.811076 0.000000 0.000000 0.024138 0.273401 0.228788
    3 3.217810 -1.313908 -0.117041 -0.254945 0.000000 0.097120
    4 5.020581 -12.365363 -0.141199 0.573380 0.000000 0.177518
    5 -0.814324 0.000000 0.000000 0.672081 -0.352332 -0.264600
    6 -3.014840 -1.425123 -0.117041 -0.857568 -0.135041 -0.006412
    7 -5.182895 -12.052588 -0.133394 0.499347 0.000000 0.000000
    8 0.685547 4.328125 0.566406 0.000000 0.000000 0.000000
    9 2.880558 0.002299 0.002923 1.941958 -0.157020 0.964025
    10 0.000000 0.000000 0.000000 0.103802 0.000000 -1.186627
    11 -0.109736 6.529850 7.636820 0.183753 0.000000 0.000000
    12 2.192401 4.260851 -9.219817 -0.066956 0.000000 0.000000
    13 -2.880557 -0.002451 -0.004128 1.931578 0.179517 -0.854514
    14 0.000000 0.000000 0.000000 -0.259173 0.000000 0.698429
    15 0.109736 6.529850 7.636822 0.081824 0.000000 0.000000
    16 -2.192400 4.260849 -9.219818 -0.062107 0.000000 0.000000
    17 0.616034 1.902273 3.865405 0.001283 0.038807 0.065714
    18 -4.072761 1.380599 1.241508 0.000000 0.000000 0.000000
    19 5.083248 1.616469 1.172057 0.001294 0.038818 0.065712
    20 0.600409 -6.142641 -0.606173 0.366519 0.000000 0.000000
    21 4.827607 2.487058 -4.176770 0.000000 0.000000 0.044331
    22 -4.031951 2.481832 -4.381911 0.000000 0.000000 0.044331
    23 0.557990 -1.963697 -5.778532 0.000000 0.000000 0.044331
    24 0.495064 6.417951 -0.096499 0.000000 0.000000 0.044331
    25 -2.628906 -0.510254 6.773438 0.000000 0.000000 -1.570796
time 15
    0 0.000300 0.121097 11.903765 -2.079524 -0.021935 0.037330
    1 0.522832 -5.140425 -3.493140 0.000000 0.000000 0.000000
    2 0.811076 0.000000 0.000000 0.025805 0.241798 0.228480
    3 3.217810 -1.313908 -0.117041 -0.258628 0.000000 0.108498
    4 5.020581 -12.365363 -0.141199 0.551513 0.000000 0.225217
    5 -0.814324 0.000000 0.000000 0.666377 -0.331969 -0.247518
    6 -3.014840 -1.425123 -0.117041 -0.851249 -0.135041 0.017862
    7 -5.182895 -12.052588 -0.133394 0.440901 0.000000 -0.017007
    8 0.685547 4.328125 0.566406 0.000000 0.000000 0.000000
    9 2.880558 0.002299 0.002923 1.947919 -0.159952 0.968222
    10 0.000000 0.000000 0.000000 0.192873 0.000000 -1.152366
    11 -0.109736 6.529850 7.636820 0.076514 0.000000 0.000000
    12 2.192401 4.260851 -9.219817 -0.070040 0.000000 0.000000
    13 -2.880557 -0.002451 -0.004128 1.932994 0.185886 -0.849105
    14 0.000000 0.000000 0.000000 -0.178040 0.000000 0.676237
    15 0.109736 6.529850 7.636822 0.026565 0.000000 0.000000
    16 -2.192400 4.260849 -9.219818 -0.059258 0.000000 0.000000
    17 0.619941 1.949149 3.822435 0.001148 0.038700 0.065940
    18 -4.006353 1.478259 1.214164 0.000000 0.000000 0.000000
    19 5.083248 1.616469 1.172057 0.001151 0.038698 0.065939
    20 0.604315 -6.326240 -0.692113 0.366519 0.000000 0.000000
    21 4.870577 2.498777 -4.180676 0.000000 0.000000 0.044331
    22 -4.078827 2.462300 -4.362379 0.000000 0.000000 0.044331
    23 0.569709 -2.041824 -5.786344 0.000000 0.000000 0.044331
    24 0.495064 6.441389 0.012879 0.000000 0.000000 0.044331
    25 -2.628906 -0.510254 6.773438 0.000000 0.000000 -1.570796
time 16
    0 0.000300 0.109378 11.321716 -2.077239 -0.024345 0.041337
    1 0.530645 -5.347463 -3.579080 0.000000 0.000000 0.000000
    2 0.811076 0.000000 0.000000 0.027813 0.209935 0.226672
    3 3.217810 -1.313908 -0.117041 -0.260870 0.000000 0.112652
    4 5.020581 -12.365363 -0.141199 0.527940 0.000000 0.280959
    5 -0.814324 0.000000 0.000000 0.662368 -0.316813 -0.234999
    6 -3.014840 -1.425123 -0.117041 -0.817380 -0.135041 0.051150
    7 -5.182895 -12.052588 -0.133394 0.390476 0.000000 -0.125819
    8 0.685547 4.328125 0.566406 0.000000 0.000000 0.000000
    9 2.880558 0.002299 0.002923 1.948475 -0.156677 0.972213
    10 0.000000 0.000000 0.000000 0.275051 0.000000 -1.118964
    11 -0.109736 6.529850 7.636820 -0.010752 0.000000 0.000000
    12 2.192401 4.260851 -9.219817 -0.068318 0.000000 0.000000
    13 -2.880557 -0.002451 -0.004128 1.929631 0.185677 -0.845692
    14 0.000000 0.000000 0.000000 -0.114741 0.000000 0.662706
    15 0.109736 6.529850 7.636822 -0.012297 0.000000 0.000000
    16 -2.192400 4.260849 -9.219818 -0.055504 0.000000 0.000000
    17 0.623847 1.992119 3.791184 0.001046 0.038743 0.065850
    18 -3.947757 1.556386 1.190725 0.000000 0.000000 0.000000
    19 5.083248 1.616469 1.172057 0.001055 0.038746 0.065843
    20 0.612128 -6.533278 -0.778054 0.366519 0.000000 0.000000
    21 4.913547 2.514403 -4.184582 0.000000 0.000000 0.044331
    22 -4.125704 2.446674 -4.350660 0.000000 0.000000 0.044331
    23 0.577521 -2.096514 -5.778532 0.000000 0.000000 0.044331
    24 0.495064 6.476547 0.114445 0.000000 0.000000 0.044331
    25 -2.628906 -0.510254 6.773438 0.000000 0.000000 -1.570796
time 17
    0 0.000300 0.089846 11.063896 -2.065816 -0.026033 0.043608
    1 0.534551 -5.495905 -3.649395 0.000000 0.000000 0.000000
    2 0.811076 0.000000 0.000000 0.029935 0.178245 0.223384
    3 3.217810 -1.313908 -0.117041 -0.264926 0.000000 0.108932
    4 5.020581 -12.365363 -0.141199 0.502609 0.000000 0.338019
    5 -0.814324 0.000000 0.000000 0.658566 -0.301372 -0.222419
    6 -3.014840 -1.425123 -0.117041 -0.777058 -0.135041 0.082522
    7 -5.182895 -12.052588 -0.133394 0.347746 0.000000 -0.191569
    8 0.685547 4.328125 0.566406 0.000000 0.000000 0.000000
    9 2.880558 0.002299 0.002923 1.942991 -0.146536 0.975653
    10 0.000000 0.000000 0.000000 0.317642 0.000000 -1.102735
    11 -0.109736 6.529850 7.636820 -0.045318 0.000000 0.000000
    12 2.192401 4.260851 -9.219817 -0.059137 0.000000 0.000000
    13 -2.880557 -0.002451 -0.004128 1.921018 0.177924 -0.844641
    14 0.000000 0.000000 0.000000 -0.090113 0.000000 0.649133
    15 0.109736 6.529850 7.636822 -0.009480 0.000000 0.000000
    16 -2.192400 4.260849 -9.219818 -0.043307 0.000000 0.000000
    17 0.627753 2.011651 3.791184 0.000979 0.038998 0.065398
    18 -3.932132 1.575918 1.182913 0.000000 0.000000 0.000000
    19 5.083248 1.616469 1.172057 0.000983 0.038998 0.065400
    20 0.616034 -6.681720 -0.848368 0.366519 0.000000 0.000000
    21 4.956517 2.526122 -4.184582 0.000000 0.000000 0.044331
    22 -4.176486 2.438861 -4.338941 0.000000 0.000000 0.044331
    23 0.581428 -2.119952 -5.743374 0.000000 0.000000 0.044331
    24 0.495064 6.527329 0.204292 0.000000 0.000000 0.044331
    25 -2.628906 -0.510254 6.773438 0.000000 0.000000 -1.570796
time 18
    0 0.000300 0.050783 11.071709 -2.044430 -0.026756 0.043742
    1 0.534551 -5.488092 -3.680646 0.000000 0.000000 0.000000
    2 0.811076 0.000000 0.000000 0.031944 0.147163 0.218617
    3 3.217810 -1.313908 -0.117041 -0.272666 0.000000 0.093616
    4 5.020581 -12.365363 -0.141199 0.471799 0.000000 0.409194
    5 -0.814324 0.000000 0.000000 0.654865 -0.285717 -0.209818
    6 -3.014840 -1.425123 -0.117041 -0.749153 -0.135041 0.095495
    7 -5.182895 -12.052588 -0.133394 0.352330 0.000000 -0.168712
    8 0.685547 4.328125 0.566406 0.000000 0.000000 0.000000
    9 2.880558 0.002299 0.002923 1.930672 -0.128920 0.977992
    10 0.000000 0.000000 0.000000 0.338323 0.000000 -1.095007
    11 -0.109736 6.529850 7.636820 -0.042356 0.000000 0.000000
    12 2.192401 4.260851 -9.219817 -0.051151 0.000000 0.000000
    13 -2.880557 -0.002451 -0.004128 1.906742 0.161750 -0.846374
    14 0.000000 0.000000 0.000000 -0.119101 0.000000 0.639523
    15 0.109736 6.529850 7.636822 0.038368 0.000000 0.000000
    16 -2.192400 4.260849 -9.219818 -0.003342 0.000000 0.000000
    17 0.627753 1.992119 3.830248 0.000962 0.039425 0.064554
    18 -3.975102 1.517322 1.202445 0.000000 0.000000 0.000000
    19 5.083248 1.616469 1.172057 0.000959 0.039441 0.064561
    20 0.616034 -6.673907 -0.879619 0.366519 0.000000 0.000000
    21 4.999487 2.530028 -4.176770 0.000000 0.000000 0.044331
    22 -4.227269 2.438861 -4.331128 0.000000 0.000000 0.044331
    23 0.581428 -2.112139 -5.684779 0.000000 0.000000 0.044331
    24 0.495064 6.593738 0.282419 0.000000 0.000000 0.044331
    25 -2.628906 -0.510254 6.773438 0.000000 0.000000 -1.570796
time 19
    0 0.000300 0.015625 11.243589 -2.012000 -0.026177 0.041270
    1 0.538458 -5.312305 -3.665020 0.000000 0.000000 0.000000
    2 0.811076 0.000000 0.000000 0.033573 0.117209 0.212453
    3 3.217810 -1.313908 -0.117041 -0.287132 0.000000 0.074002
    4 5.020581 -12.365363 -0.141199 0.435974 0.000000 0.436319
    5 -0.814324 0.000000 0.000000 0.651422 -0.269848 -0.197176
    6 -3.014840 -1.425123 -0.117041 -0.728591 -0.135041 0.097820
    7 -5.182895 -12.052588 -0.133394 0.374705 0.000000 -0.129766
    8 0.685547 4.328125 0.566406 0.000000 0.000000 0.000000
    9 2.880558 0.002299 0.002923 1.910882 -0.103170 0.978680
    10 0.000000 0.000000 0.000000 0.313751 0.000000 -1.094835
    11 -0.109736 6.529850 7.636820 -0.012449 0.000000 0.000000
    12 2.192401 4.260851 -9.219817 -0.020045 0.000000 0.000000
    13 -2.880557 -0.002451 -0.004128 1.886625 0.136146 -0.850943
    14 0.000000 0.000000 0.000000 -0.194912 0.000000 0.660207
    15 0.109736 6.529850 7.636822 0.130813 0.000000 0.000000
    16 -2.192400 4.260849 -9.219818 0.036865 0.000000 0.000000
    17 0.623847 1.953055 3.900563 0.000996 0.040065 0.063274
    18 -4.049323 1.411850 1.233696 0.000000 0.000000 0.000000
    19 5.083248 1.616469 1.172057 0.000995 0.040064 0.063279
    20 0.619941 -6.498120 -0.863994 0.366519 0.000000 0.000000
    21 5.042457 2.533934 -4.165051 0.000000 0.000000 0.044331
    22 -4.278052 2.446674 -4.327222 0.000000 0.000000 0.044331
    23 0.573615 -2.080888 -5.598839 0.000000 0.000000 0.044331
    24 0.495064 6.687491 0.348827 0.000000 0.000000 0.044331
    25 -2.628906 -0.510254 6.773438 0.000000 0.000000 -1.570796
time 20
    0 0.000300 0.000000 11.485784 -1.967640 -0.023863 0.035860
    1 0.538458 -5.011515 -3.622050 0.000000 0.000000 0.000000
    2 0.811076 0.000000 0.000000 0.034520 0.088862 0.204933
    3 3.217810 -1.313908 -0.117041 -0.306989 0.000000 0.051570
    4 5.020581 -12.365363 -0.141199 0.393739 0.000000 0.436319
    5 -0.814324 0.000000 0.000000 0.648133 -0.253764 -0.184554
    6 -3.014840 -1.425123 -0.117041 -0.724942 -0.135041 0.079218
    7 -5.182895 -12.052588 -0.133394 0.438227 0.000000 -0.059615
    8 0.685547 4.328125 0.566406 0.000000 0.000000 0.000000
    9 2.880558 0.002299 0.002923 1.882747 -0.068731 0.976823
    10 0.000000 0.000000 0.000000 0.261605 0.000000 -1.093461
    11 -0.109736 6.529850 7.636820 0.042019 0.000000 0.000000
    12 2.192401 4.260851 -9.219817 0.012472 0.000000 0.000000
    13 -2.880557 -0.002451 -0.004128 1.860432 0.100193 -0.858347
    14 0.000000 0.000000 0.000000 -0.298523 0.000000 0.730058
    15 0.109736 6.529850 7.636822 0.259604 0.000000 0.000000
    16 -2.192400 4.260849 -9.219818 0.057855 0.000000 0.000000
    17 0.619941 1.941336 3.963065 0.001097 0.040854 0.061481
    18 -4.104012 1.341536 1.257134 0.000000 0.000000 0.000000
    19 5.083248 1.616469 1.172057 0.001103 0.040867 0.061481
    20 0.619941 -6.197330 -0.821024 0.366519 0.000000 0.000000
    21 5.042457 2.530028 -4.149425 0.000000 0.000000 0.044331
    22 -4.278052 2.466206 -4.335035 0.000000 0.000000 0.044331
    23 0.561896 -1.979323 -5.501179 0.000000 0.000000 0.044331
    24 0.495064 6.773431 0.348827 0.000000 0.000000 0.044331
    25 -2.628906 -0.510254 6.773438 0.000000 0.000000 -1.570796
time 21
    0 0.000300 0.007813 11.704540 -1.910461 -0.019283 0.027244
    1 0.538458 -4.589627 -3.543923 0.000000 0.000000 0.000000
    2 0.811076 0.000000 0.000000 0.034520 0.062468 0.196139
    3 3.217810 -1.313908 -0.117041 -0.322629 0.000000 0.018121
    4 5.020581 -12.365363 -0.141199 0.327104 0.000000 0.436319
    5 -0.814324 0.000000 0.000000 0.645101 -0.237574 -0.171933
    6 -3.014840 -1.425123 -0.117041 -0.698595 -0.135041 0.065184
    7 -5.182895 -12.052588 -0.133394 0.500603 0.000000 -0.117509
    8 0.685547 4.328125 0.566406 0.000000 0.000000 0.000000
    9 2.880558 0.002299 0.002923 1.845392 -0.025180 0.971181
    10 0.000000 0.000000 0.000000 0.202292 0.000000 -1.092345
    11 -0.109736 6.529850 7.636820 0.113609 0.000000 0.000000
    12 2.192401 4.260851 -9.219817 0.033895 0.000000 0.000000
    13 -2.880557 -0.002451 -0.004128 1.828162 0.052673 -0.868219
    14 0.000000 0.000000 0.000000 -0.418382 0.000000 0.862823
    15 0.109736 6.529850 7.636822 0.417769 0.000000 0.000000
    16 -2.192400 4.260849 -9.219818 0.062963 0.000000 0.000000
    17 0.612128 2.019464 3.970877 0.001299 0.041770 0.059116
    18 -4.053229 1.411850 1.233696 0.000000 0.000000 0.000000
    19 5.083248 1.616469 1.172057 0.001306 0.041766 0.059120
    20 0.619941 -5.775442 -0.742896 0.366519 0.000000 0.000000
    21 5.038550 2.518309 -4.125987 0.000000 0.000000 0.044331
    22 -4.278052 2.497457 -4.350660 0.000000 0.000000 0.044331
    23 0.542364 -1.846506 -5.387895 0.000000 0.000000 0.044331
    24 0.495064 6.890622 0.325389 0.000000 0.000000 0.044331
    25 -2.628906 -0.510254 6.773438 0.000000 0.000000 -1.570796
time 22
    0 0.000300 0.066408 11.810012 -1.839511 -0.011618 0.015221
    1 0.538458 -4.042735 -3.430638 0.000000 0.000000 0.000000
    2 0.811076 0.000000 0.000000 0.033270 0.038592 0.186174
    3 3.217810 -1.313908 -0.117041 -0.365171 0.000000 0.038168
    4 5.020581 -12.365363 -0.141199 0.396220 0.000000 0.290466
    5 -0.814324 0.000000 0.000000 0.642223 -0.221277 -0.159373
    6 -3.014840 -1.425123 -0.117041 -0.621823 -0.135041 0.075546
    7 -5.182895 -12.052588 -0.133394 0.477082 0.000000 -0.424102
    8 0.685547 4.328125 0.566406 0.000000 0.000000 0.000000
    9 2.880558 0.002299 0.002923 1.797625 0.027825 0.960173
    10 0.000000 0.000000 0.000000 0.140113 0.000000 -1.092087
    11 -0.109736 6.529850 7.636820 0.197479 0.000000 0.000000
    12 2.192401 4.260851 -9.219817 0.044606 0.000000 0.000000
    13 -2.880557 -0.002451 -0.004128 1.789816 -0.007417 -0.879981
    14 0.000000 0.000000 0.000000 -0.630019 0.000000 1.111417
    15 0.109736 6.529850 7.636822 0.710225 0.000000 0.000000
    16 -2.192400 4.260849 -9.219818 0.066786 0.000000 0.000000
    17 0.596502 2.253846 3.873218 0.001620 0.042709 0.056133
    18 -3.904787 1.618888 1.171194 0.000000 0.000000 0.000000
    19 5.083248 1.616469 1.172057 0.001630 0.042701 0.056136
    20 0.619941 -5.228550 -0.629611 0.366519 0.000000 0.000000
    21 5.034644 2.502684 -4.090830 0.000000 0.000000 0.044331
    22 -4.278052 2.540427 -4.378005 0.000000 0.000000 0.044331
    23 0.522832 -1.678532 -5.274610 0.000000 0.000000 0.044331
    24 0.495064 7.027345 0.274606 0.000000 0.000000 0.044331
    25 -2.628906 -0.510254 6.773438 0.000000 0.000000 -1.570796
time 23
    0 0.000300 0.171880 11.810012 -1.754027 0.000000 -0.000008
    1 0.534551 -3.374746 -3.290009 0.000000 0.000000 0.000000
    2 0.811076 0.000000 0.000000 0.029556 0.021575 0.166018
    3 3.217810 -1.313908 -0.117041 -0.442410 0.000000 0.105717
    4 5.020581 -12.365363 -0.141199 0.727432 0.000000 0.000000
    5 -0.814324 0.000000 0.000000 0.639603 -0.204873 -0.146854
    6 -3.014840 -1.425123 -0.117041 -0.524623 -0.135041 0.060329
    7 -5.182895 -12.052588 -0.133394 0.383054 0.000000 -0.424102
    8 0.685547 4.328125 0.566406 0.000000 0.000000 0.000000
    9 2.880558 0.002299 0.002923 1.214810 -0.285744 1.101905
    10 0.000000 0.000000 0.000000 -0.162730 0.000000 -1.498755
    11 -0.109736 6.529850 7.636820 0.711462 0.000000 0.000000
    12 2.192401 4.260851 -9.219817 0.047930 0.000000 0.000000
    13 -2.880557 -0.002451 -0.004128 1.278162 0.427672 -1.067919
    14 0.000000 0.000000 0.000000 -0.810913 0.000000 1.603305
    15 0.109736 6.529850 7.636822 1.205810 0.000000 0.000000
    16 -2.192400 4.260849 -9.219818 0.082667 0.000000 0.000000
    17 0.580877 2.156187 4.049005 0.002093 0.043519 0.052442
    18 -3.904787 1.618888 1.171194 0.000000 0.000000 0.000000
    19 5.126218 1.557874 1.191589 0.002097 0.043528 0.052457
    20 0.616034 -4.560561 -0.488982 0.366519 0.000000 0.000000
    21 5.030738 2.483152 -4.043953 0.000000 0.000000 0.044331
    22 -4.281958 2.591210 -4.417068 0.000000 0.000000 0.044331
    23 0.499394 -1.475401 -5.169138 0.000000 0.000000 0.044331
    24 0.498970 7.191412 0.184760 0.000000 0.000000 0.044331
    25 -2.628906 -0.510254 6.773438 0.000000 0.000000 -1.570796
time 24
    0 0.000300 0.156255 10.559974 -1.481521 0.061177 -0.055981
    1 0.534551 -3.374746 -3.290009 0.000000 0.000000 0.000000
    2 0.811076 0.000000 0.000000 0.023152 0.012980 0.130903
    3 3.217810 -1.313908 -0.117041 -0.628541 0.000000 0.092207
    4 5.020581 -12.365363 -0.141199 1.097621 0.000000 0.000000
    5 -0.814324 0.000000 0.000000 0.637136 -0.188433 -0.134397
    6 -3.014840 -1.425123 -0.117041 -0.634062 -0.135041 0.071874
    7 -5.182895 -12.052588 -0.133394 0.253937 0.000000 -0.213209
    8 0.685547 4.328125 0.566406 0.000000 0.000000 0.000000
    9 2.880558 0.002299 0.002923 0.693431 -0.251437 1.227056
    10 0.000000 0.000000 0.000000 -0.743368 0.000000 -1.723041
    11 -0.109736 6.529850 7.636820 1.382350 0.000000 0.000000
    12 2.192401 4.260851 -9.219817 0.031934 0.000000 0.000000
    13 -2.880557 -0.002451 -0.004128 0.869275 0.427128 -1.339874
    14 0.000000 0.000000 0.000000 -0.969329 0.000000 1.868964
    15 0.109736 6.529850 7.636822 1.318407 0.000000 0.000000
    16 -2.192400 4.260849 -9.219818 0.092884 0.000000 0.000000
    17 0.510562 2.667921 3.959158 0.004573 0.043903 0.040480
    18 -3.904787 1.618888 1.171194 0.000000 0.000000 0.000000
    19 5.083248 1.616469 1.172057 0.004566 0.043912 0.040484
    20 0.616034 -4.560561 -0.488982 0.366519 0.000000 0.000000
    21 4.679165 2.424556 -3.887698 0.000000 0.000000 0.044331
    22 -3.914760 2.766997 -4.612387 0.000000 0.000000 0.044331
    23 0.421267 -1.209768 -4.798033 0.000000 0.000000 0.044331
    24 0.545846 7.363292 -0.436353 0.000000 0.000000 0.044331
    25 -2.628906 -0.510254 6.773438 0.000000 0.000000 -1.570796
time 25
    0 0.000300 0.035157 8.263029 -0.978902 0.202114 -0.107947
    1 0.534551 -3.374746 -3.290009 0.000000 0.000000 0.000000
    2 0.811076 0.000000 0.000000 0.015233 0.008986 0.087221
    3 3.217810 -1.313908 -0.117041 -0.886520 0.000000 0.041130
    4 5.020581 -12.365363 -0.141199 1.206026 0.000000 0.043770
    5 -0.814324 0.000000 0.000000 0.634926 -0.171958 -0.122022
    6 -3.014840 -1.425123 -0.117041 -1.028025 -0.135041 0.125520
    7 -5.182895 -12.052588 -0.133394 0.163456 0.000000 0.000000
    8 0.685547 4.328125 0.566406 0.000000 0.000000 0.000000
    9 2.880558 0.002299 0.002923 0.448399 -0.001358 0.881463
    10 0.000000 0.000000 0.000000 -0.817833 0.000000 -1.649710
    11 -0.109736 6.529850 7.636820 1.211106 0.000000 0.000000
    12 2.192401 4.260851 -9.219817 -0.040703 0.000000 0.000000
    13 -2.880557 -0.002451 -0.004128 0.877239 -0.050662 -1.161599
    14 0.000000 0.000000 0.000000 -0.904162 0.000000 1.829406
    15 0.109736 6.529850 7.636822 1.009219 0.000000 0.000000
    16 -2.192400 4.260849 -9.219818 -0.020266 0.000000 0.000000
    17 0.408997 3.156217 3.994316 0.010058 0.035715 0.020278
    18 -3.904787 1.618888 1.171194 0.000000 0.000000 0.000000
    19 5.083248 1.616469 1.172057 0.010055 0.035726 0.020278
    20 0.616034 -4.560561 -0.488982 0.366519 0.000000 0.000000
    21 3.831482 2.483152 -3.766601 0.000000 0.000000 0.044331
    22 -2.977231 2.829498 -4.878020 0.000000 0.000000 0.044331
    23 0.311888 -0.662876 -4.360520 0.000000 0.000000 0.044331
    24 0.678663 6.980468 -1.471541 0.000000 0.000000 0.044331
    25 -2.628906 -0.510254 6.773438 0.000000 0.000000 -1.570796
time 26
    0 0.000300 -0.078127 6.110620 -0.419230 0.341605 -0.073414
    1 0.534551 -3.374746 -3.290009 0.000000 0.000000 0.000000
    2 0.811076 0.000000 0.000000 0.007010 0.005817 0.041443
    3 3.217810 -1.313908 -0.117041 -0.940006 0.000000 0.006706
    4 5.020581 -12.365363 -0.141199 1.010411 0.000000 0.000000
    5 -0.814324 0.000000 0.000000 0.632922 -0.155482 -0.109770
    6 -3.014840 -1.425123 -0.117041 -1.529557 -0.135041 0.249293
    7 -5.182895 -12.052588 -0.133394 0.459674 0.000000 0.000000
    8 0.685547 4.328125 0.566406 0.000000 0.000000 0.000000
    9 2.880558 0.002299 0.002923 0.142009 -0.011843 0.352512
    10 0.000000 0.000000 0.000000 -0.694088 0.000000 -1.379142
    11 -0.109736 6.529850 7.636820 0.736638 0.000000 0.000000
    12 2.192401 4.260851 -9.219817 -0.060715 0.000000 0.000000
    13 -2.880557 -0.002451 -0.004128 0.553658 -0.536832 -0.644574
    14 0.000000 0.000000 0.000000 -0.724684 0.000000 1.510012
    15 0.109736 6.529850 7.636822 0.591492 0.000000 0.000000
    16 -2.192400 4.260849 -9.219818 -0.047998 0.000000 0.000000
    17 0.381652 3.632794 3.756027 0.015273 0.016610 0.006297
    18 -3.904787 1.618888 1.171194 0.000000 0.000000 0.000000
    19 5.083248 1.616469 1.172057 0.015268 0.016611 0.006304
    20 0.616034 -4.560561 -0.488982 0.366519 0.000000 0.000000
    21 2.811920 2.619875 -3.985358 0.000000 0.000000 0.044331
    22 -1.820946 2.669337 -4.799893 0.000000 0.000000 0.044331
    23 0.331420 -0.049576 -4.411302 0.000000 0.000000 0.044331
    24 0.694288 6.042940 -1.838740 0.000000 0.000000 0.044331
    25 -2.628906 -0.510254 6.773438 0.000000 0.000000 -1.570796
time 27
    0 0.000300 -0.085940 5.274657 0.000000 0.383957 -0.000008
    1 0.534551 -3.374746 -3.290009 0.000000 0.000000 0.000000
    2 0.811076 0.000000 0.000000 0.000000 0.000000 0.000000
    3 3.217810 -1.313908 -0.117041 -0.600464 0.000000 0.004864
    4 5.020581 -12.365363 -0.141199 0.436284 0.000000 0.436319
    5 -0.814324 0.000000 0.000000 0.631175 -0.139078 -0.097622
    6 -3.014840 -1.425123 -0.117041 -1.615186 -0.135041 0.367722
    7 -5.182895 -12.052588 -0.133394 0.637142 0.000000 0.000000
    8 0.685547 4.328125 0.566406 0.000000 0.000000 0.000000
    9 2.880558 0.002299 0.002923 -0.007808 -0.315641 0.002309
    10 0.000000 0.000000 0.000000 -0.505434 0.000000 -0.731444
    11 -0.109736 6.529850 7.636820 0.370095 0.000000 0.000000
    12 2.192401 4.260851 -9.219817 -0.070542 0.000000 0.000000
    13 -2.880557 -0.002451 -0.004128 -0.000236 -0.445021 0.000578
    14 0.000000 0.000000 0.000000 -0.540393 0.000000 0.730231
    15 0.109736 6.529850 7.636822 0.352820 0.000000 0.000000
    16 -2.192400 4.260849 -9.219818 -0.058423 0.000000 0.000000
    17 0.424622 3.707015 3.572428 0.016589 -0.000384 0.003224
    18 -3.904787 1.618888 1.171194 0.000000 0.000000 0.000000
    19 5.083248 1.616469 1.172057 0.016599 -0.000384 0.003224
    20 0.616034 -4.560561 -0.488982 0.366519 0.000000 0.000000
    21 1.866579 2.592530 -4.379901 0.000000 0.000000 0.044331
    22 -0.754507 2.591210 -4.417068 0.000000 0.000000 0.044331
    23 0.499394 0.176993 -4.837097 0.000000 0.000000 0.044331
    24 0.498970 5.402295 -1.420758 0.000000 0.000000 0.044331
    25 -2.628906 -0.510254 6.773438 0.000000 0.000000 -1.570796
time 28
    0 0.000300 0.117191 6.720013 0.116643 0.304533 0.017893
    1 0.534551 -3.374746 -3.290009 0.000000 0.000000 0.000000
    2 0.811076 0.000000 0.000000 0.000000 0.000000 0.000000
    3 3.217810 -1.313908 -0.117041 -0.584878 0.000000 -0.023637
    4 5.020581 -12.365363 -0.141199 0.332687 0.000000 0.436319
    5 -0.814324 0.000000 0.000000 0.629581 -0.122746 -0.085596
    6 -3.014840 -1.425123 -0.117041 -1.119172 -0.135041 0.404723
    7 -5.182895 -12.052588 -0.133394 0.320897 0.000000 -0.424102
    8 0.685547 4.328125 0.566406 0.000000 0.000000 0.000000
    9 2.880558 0.002299 0.002923 -0.122018 -0.236410 0.012010
    10 0.000000 0.000000 0.000000 -0.108059 0.000000 -0.469806
    11 -0.109736 6.529850 7.636820 0.555389 0.000000 0.000000
    12 2.192401 4.260851 -9.219817 -0.008114 0.000000 0.000000
    13 -2.880557 -0.002451 -0.004128 -0.119345 -0.365110 0.026098
    14 0.000000 0.000000 0.000000 -0.242301 0.000000 0.507922
    15 0.109736 6.529850 7.636822 0.612550 0.000000 0.000000
    16 -2.192400 4.260849 -9.219818 0.059488 0.000000 0.000000
    17 0.471499 3.664045 3.548990 0.013164 -0.005224 0.002290
    18 -3.904787 1.618888 1.171194 0.000000 0.000000 0.000000
    19 5.145749 1.534436 1.199402 0.013171 -0.005225 0.002289
    20 0.616034 -4.560561 -0.488982 0.366519 0.000000 0.000000
    21 1.866579 2.592530 -4.379901 0.000000 0.000000 0.044331
    22 -0.754507 2.591210 -4.417068 0.000000 0.000000 0.044331
    23 0.499394 0.176993 -4.837097 0.000000 0.000000 0.044331
    24 0.498970 5.402295 -1.420758 0.000000 0.000000 0.044331
    25 -2.628906 -0.510254 6.773438 0.000000 0.000000 -1.570796
time 29
    0 0.000300 0.394543 9.087273 0.056989 0.152387 0.004334
    1 0.534551 -3.374746 -3.290009 0.000000 0.000000 0.000000
    2 0.811076 0.000000 0.000000 0.000000 0.000000 0.000000
    3 3.217810 -1.313908 -0.117041 -0.281581 0.000000 -0.041842
    4 5.020581 -12.365363 -0.141199 0.260107 0.000000 0.436319
    5 -0.814324 0.000000 0.000000 0.629581 -0.122746 -0.085596
    6 -3.014840 -1.425123 -0.117041 -0.934608 -0.135041 0.312077
    7 -5.182895 -12.052588 -0.133394 0.229434 0.000000 -0.424102
    8 0.685547 4.328125 0.566406 0.000000 0.000000 0.000000
    9 2.880558 0.002299 0.002923 -0.063840 -0.084049 0.002653
    10 0.000000 0.000000 0.000000 -0.284427 0.000000 -0.484661
    11 -0.109736 6.529850 7.636820 0.616215 0.000000 0.000000
    12 2.192401 4.260851 -9.219817 0.024833 0.000000 0.000000
    13 -2.880557 -0.002451 -0.004128 -0.057755 -0.213333 0.008454
    14 0.000000 0.000000 0.000000 -0.365218 0.000000 0.512447
    15 0.109736 6.529850 7.636822 0.659895 0.000000 0.000000
    16 -2.192400 4.260849 -9.219818 0.061956 0.000000 0.000000
    17 0.522281 3.753892 3.529458 0.006666 -0.002644 0.000572
    18 -3.904787 1.618888 1.171194 0.000000 0.000000 0.000000
    19 5.083248 1.616469 1.172057 0.006663 -0.002637 0.000575
    20 0.616034 -4.560561 -0.488982 0.366519 0.000000 0.000000
    21 1.866579 2.592530 -4.379901 0.000000 0.000000 0.044331
    22 -0.754507 2.591210 -4.417068 0.000000 0.000000 0.044331
    23 0.499394 0.176993 -4.837097 0.000000 0.000000 0.044331
    24 0.498970 5.402295 -1.420758 0.000000 0.000000 0.044331
    25 -2.628906 -0.510254 6.773438 0.000000 0.000000 -1.570796
time 30
    0 0.000300 0.480483 10.122461 0.000000 0.000000 -0.000008
    1 0.534551 -3.374746 -3.290009 0.000000 0.000000 0.000000
    2 0.811076 0.000000 0.000000 0.000000 0.000000 0.000000
    3 3.217810 -1.313908 -0.117041 -0.059526 0.000000 -0.123298
    4 5.020581 -12.365363 -0.141199 0.198434 0.000000 0.436319
    5 -0.814324 0.000000 0.000000 0.629581 -0.122746 -0.085596
    6 -3.014840 -1.425123 -0.117041 -0.853652 -0.135041 0.211394
    7 -5.182895 -12.052588 -0.133394 0.202530 0.000000 -0.424102
    8 0.685547 4.328125 0.566406 0.000000 0.000000 0.000000
    9 2.880558 0.002299 0.002923 -0.006933 0.068338 0.002240
    10 0.000000 0.000000 0.000000 -0.390767 0.000000 -0.494364
    11 -0.109736 6.529850 7.636820 0.678268 0.000000 0.000000
    12 2.192401 4.260851 -9.219817 0.037218 0.000000 0.000000
    13 -2.880557 -0.002451 -0.004128 0.000000 -0.061054 0.000525
    14 0.000000 0.000000 0.000000 -0.394320 0.000000 0.511240
    15 0.109736 6.529850 7.636822 0.668647 0.000000 0.000000
    16 -2.192400 4.260849 -9.219818 0.059245 0.000000 0.000000
    17 0.580877 3.757798 3.564615 0.000000 0.000000 0.000000
    18 -3.904787 1.618888 1.171194 0.000000 0.000000 0.000000
    19 5.083248 1.616469 1.172057 0.000000 0.000000 0.000000
    20 0.616034 -4.560561 -0.488982 0.366519 0.000000 0.000000
    21 1.866579 2.592530 -4.379901 0.000000 0.000000 0.044331
    22 -0.754507 2.591210 -4.417068 0.000000 0.000000 0.044331
    23 0.499394 0.176993 -4.837097 0.000000 0.000000 0.044331
    24 0.498970 5.402295 -1.420758 0.000000 0.000000 0.044331
    25 -2.628906 -0.510254 6.773438 0.000000 0.000000 -1.570796
time 31
    0 0.000300 0.199225 8.552101 0.000000 0.000000 -0.000008
    1 0.534551 -3.374746 -3.290009 0.000000 0.000000 0.000000
    2 0.811076 0.000000 0.000000 0.000000 0.000000 0.000000
    3 3.217810 -1.313908 -0.117041 -0.172528 0.000000 -0.093244
    4 5.020581 -12.365363 -0.141199 0.303893 0.000000 0.376090
    5 -0.814324 0.000000 0.000000 0.629581 -0.122746 -0.085596
    6 -3.014840 -1.425123 -0.117041 -0.920054 -0.135041 0.146489
    7 -5.182895 -12.052588 -0.133394 0.208587 0.000000 -0.093396
    8 0.685547 4.328125 0.566406 0.000000 0.000000 0.000000
    9 2.880558 0.002299 0.002923 -0.006933 0.068338 0.002240
    10 0.000000 0.000000 0.000000 -0.295212 0.000000 -0.483631
    11 -0.109736 6.529850 7.636820 0.649770 0.000000 0.000000
    12 2.192401 4.260851 -9.219817 0.007714 0.000000 0.000000
    13 -2.880557 -0.002451 -0.004128 0.000000 -0.061054 0.000525
    14 0.000000 0.000000 0.000000 -0.297277 0.000000 0.500553
    15 0.109736 6.529850 7.636822 0.636558 0.000000 0.000000
    16 -2.192400 4.260849 -9.219818 0.035127 0.000000 0.000000
    17 0.580877 3.597637 3.685712 0.000000 0.000000 0.000000
    18 -3.904787 1.618888 1.171194 0.000000 0.000000 0.000000
    19 5.083248 1.616469 1.172057 0.000000 0.000000 0.000000
    20 0.616034 -4.560561 -0.488982 0.366519 0.000000 0.000000
    21 1.866579 2.592530 -4.379901 0.000000 0.000000 0.044331
    22 -0.754507 2.591210 -4.417068 0.000000 0.000000 0.044331
    23 0.499394 0.176993 -4.837097 0.000000 0.000000 0.044331
    24 0.498970 5.402295 -1.420758 0.000000 0.000000 0.044331
    25 -2.628906 -0.510254 6.773438 0.000000 0.000000 -1.570796
time 32
    0 0.000300 -0.113285 6.677043 0.000000 0.000000 -0.000008
    1 0.534551 -3.374746 -3.290009 0.000000 0.000000 0.000000
    2 0.811076 0.000000 0.000000 0.000000 0.000000 0.000000
    3 3.217810 -1.313908 -0.117041 -0.309818 0.000000 -0.053221
    4 5.020581 -12.365363 -0.141199 0.397358 0.000000 0.224165
    5 -0.814324 0.000000 0.000000 0.629581 -0.122746 -0.085596
    6 -3.014840 -1.425123 -0.117041 -1.053615 -0.135041 0.157504
    7 -5.182895 -12.052588 -0.133394 0.285862 0.000000 0.000000
    8 0.685547 4.328125 0.566406 0.000000 0.000000 0.000000
    9 2.880558 0.002299 0.002923 -0.006933 0.068338 0.002240
    10 0.000000 0.000000 0.000000 -0.167508 0.000000 -0.470493
    11 -0.109736 6.529850 7.636820 0.608449 0.000000 0.000000
    12 2.192401 4.260851 -9.219817 -0.019543 0.000000 0.000000
    13 -2.880557 -0.002451 -0.004128 0.000000 -0.061054 0.000525
    14 0.000000 0.000000 0.000000 -0.168528 0.000000 0.487411
    15 0.109736 6.529850 7.636822 0.592230 0.000000 0.000000
    16 -2.192400 4.260849 -9.219818 0.012504 0.000000 0.000000
    17 0.580877 3.386693 3.853686 0.000000 0.000000 0.000000
    18 -3.979008 1.513416 1.202445 0.000000 0.000000 0.000000
    19 5.137937 1.542248 1.195495 0.000000 0.000000 0.000000
    20 0.616034 -4.560561 -0.488982 0.366519 0.000000 0.000000
    21 1.866579 2.592530 -4.379901 0.000000 0.000000 0.044331
    22 -0.754507 2.591210 -4.417068 0.000000 0.000000 0.044331
    23 0.499394 0.176993 -4.837097 0.000000 0.000000 0.044331
    24 0.498970 5.402295 -1.420758 0.000000 0.000000 0.044331
    25 -2.628906 -0.510254 6.773438 0.000000 0.000000 -1.570796
time 33
    0 0.000300 -0.234382 6.044212 0.000000 0.000000 -0.000008
    1 0.534551 -3.374746 -3.290009 0.000000 0.000000 0.000000
    2 0.811076 0.000000 0.000000 0.000000 0.000000 0.000000
    3 3.217810 -1.313908 -0.117041 -0.354015 0.000000 -0.034834
    4 5.020581 -12.365363 -0.141199 0.410230 0.000000 0.115651
    5 -0.814324 0.000000 0.000000 0.629581 -0.122746 -0.085596
    6 -3.014840 -1.425123 -0.117041 -1.103951 -0.135041 0.171537
    7 -5.182895 -12.052588 -0.133394 0.318386 0.000000 0.000000
    8 0.685547 4.328125 0.566406 0.000000 0.000000 0.000000
    9 2.880558 0.002299 0.002923 -0.006933 0.068338 0.002240
    10 0.000000 0.000000 0.000000 -0.125737 0.000000 -0.465770
    11 -0.109736 6.529850 7.636820 0.596060 0.000000 0.000000
    12 2.192401 4.260851 -9.219817 -0.022962 0.000000 0.000000
    13 -2.880557 -0.002451 -0.004128 0.000000 -0.061054 0.000525
    14 0.000000 0.000000 0.000000 -0.129349 0.000000 0.482800
    15 0.109736 6.529850 7.636822 0.581836 0.000000 0.000000
    16 -2.192400 4.260849 -9.219818 0.009967 0.000000 0.000000
    17 0.580877 3.316378 3.904469 0.000000 0.000000 0.000000
    18 -4.025885 1.450914 1.221976 0.000000 0.000000 0.000000
    19 5.188720 1.475840 1.218934 0.000000 0.000000 0.000000
    20 0.616034 -4.560561 -0.488982 0.366519 0.000000 0.000000
    21 1.866579 2.592530 -4.379901 0.000000 0.000000 0.044331
    22 -0.754507 2.591210 -4.417068 0.000000 0.000000 0.044331
    23 0.499394 0.176993 -4.837097 0.000000 0.000000 0.044331
    24 0.498970 5.402295 -1.420758 0.000000 0.000000 0.044331
    25 -2.628906 -0.510254 6.773438 0.000000 0.000000 -1.570796
time 34
    0 0.000300 -0.234382 6.134058 0.000000 0.000000 -0.000008
    1 0.534551 -3.374746 -3.290009 0.000000 0.000000 0.000000
    2 0.811076 0.000000 0.000000 0.000000 0.000000 0.000000
    3 3.217810 -1.313908 -0.117041 -0.348571 0.000000 -0.032559
    4 5.020581 -12.365363 -0.141199 0.406508 0.000000 0.103121
    5 -0.814324 0.000000 0.000000 0.629581 -0.122746 -0.085596
    6 -3.014840 -1.425123 -0.117041 -1.102037 -0.135041 0.171007
    7 -5.182895 -12.052588 -0.133394 0.326463 0.000000 0.000000
    8 0.685547 4.328125 0.566406 0.000000 0.000000 0.000000
    9 2.880558 0.002299 0.002923 -0.006933 0.068338 0.002240
    10 0.000000 0.000000 0.000000 -0.125737 0.000000 -0.465770
    11 -0.109736 6.529850 7.636820 0.596060 0.000000 0.000000
    12 2.192401 4.260851 -9.219817 -0.022962 0.000000 0.000000
    13 -2.880557 -0.002451 -0.004128 0.000000 -0.061054 0.000525
    14 0.000000 0.000000 0.000000 -0.129349 0.000000 0.482800
    15 0.109736 6.529850 7.636822 0.581836 0.000000 0.000000
    16 -2.192400 4.260849 -9.219818 0.009967 0.000000 0.000000
    17 0.580877 3.316378 3.904469 0.000000 0.000000 0.000000
    18 -4.025885 1.450914 1.221976 0.000000 0.000000 0.000000
    19 5.188720 1.475840 1.218934 0.000000 0.000000 0.000000
    20 0.616034 -4.560561 -0.488982 0.366519 0.000000 0.000000
    21 1.866579 2.592530 -4.379901 0.000000 0.000000 0.044331
    22 -0.754507 2.591210 -4.417068 0.000000 0.000000 0.044331
    23 0.499394 0.176993 -4.837097 0.000000 0.000000 0.044331
    24 0.498970 5.402295 -1.420758 0.000000 0.000000 0.044331
    25 -2.628906 -0.510254 6.773438 0.000000 0.000000 -1.570796
time 35
    0 0.000300 -0.113285 6.954396 0.000000 0.000000 -0.000008
    1 0.534551 -3.374746 -3.290009 0.000000 0.000000 0.000000
    2 0.811076 0.000000 0.000000 0.000000 0.000000 0.000000
    3 3.217810 -1.313908 -0.117041 -0.295085 0.000000 -0.037146
    4 5.020581 -12.365363 -0.141199 0.380040 0.000000 0.137184
    5 -0.814324 0.000000 0.000000 0.629581 -0.122746 -0.085596
    6 -3.014840 -1.425123 -0.117041 -1.067323 -0.135041 0.190262
    7 -5.182895 -12.052588 -0.133394 0.352276 0.000000 -0.161593
    8 0.685547 4.328125 0.566406 0.000000 0.000000 0.000000
    9 2.880558 0.002299 0.002923 -0.006933 0.068338 0.002240
    10 0.000000 0.000000 0.000000 -0.172081 0.000000 -0.470321
    11 -0.109736 6.529850 7.636820 0.602200 0.000000 0.000000
    12 2.192401 4.260851 -9.219817 -0.013996 0.000000 0.000000
    13 -2.880557 -0.002451 -0.004128 0.000000 -0.061054 0.000525
    14 0.000000 0.000000 0.000000 -0.173511 0.000000 0.487238
    15 0.109736 6.529850 7.636822 0.586228 0.000000 0.000000
    16 -2.192400 4.260849 -9.219818 0.017891 0.000000 0.000000
    17 0.580877 3.394506 3.845874 0.000000 0.000000 0.000000
    18 -3.975102 1.521229 1.198538 0.000000 0.000000 0.000000
    19 5.130124 1.550061 1.191589 0.000000 0.000000 0.000000
    20 0.616034 -4.560561 -0.488982 0.366519 0.000000 0.000000
    21 1.866579 2.592530 -4.379901 0.000000 0.000000 0.044331
    22 -0.754507 2.591210 -4.417068 0.000000 0.000000 0.044331
    23 0.499394 0.176993 -4.837097 0.000000 0.000000 0.044331
    24 0.498970 5.402295 -1.420758 0.000000 0.000000 0.044331
    25 -2.628906 -0.510254 6.773438 0.000000 0.000000 -1.570796
end
