version 1
nodes
  0 "hc_body" -1
  1 "BoxHC_Clavicle" 0
  2 "Bone_Shoulder_L" 1
  3 "Bone_UppArm_L" 2
  4 "Bone_Finger_L" 3
  5 "Bone_Shoulder_R" 1
  6 "Bone_UpArm_R" 5
  7 "Bone_Finger_R" 6
  8 "HC_Hips" 0
  9 "DummyHip_L" 8
  10 "Bone05" 9
  11 "Bone_Knee_L" 10
  12 "Bone07" 11
  13 "DummyHip_R" 8
  14 "Bone01" 13
  15 "Bone_Knee_R" 14
  16 "Bone03" 15
  17 "Box_Body_Back" 0
  18 "Box_Body_Right" 0
  19 "Box_Body_Left" 0
  20 "Box_Body_Front" 0
  21 "Box_Hole_Left" 0
  22 "Box_Hole_Right" 0
  23 "Box_Hole_Front" 0
  24 "Box_Hole_Back" 0
  25 "Headcrab Mesh02" -1
end
skeleton
time 0
    0 0.000300 -0.367199 7.438785 -0.077931 -0.003447 0.000126
    1 0.499394 -1.847356 -2.039971 0.000000 0.000000 0.000000
    2 0.811076 0.000000 0.000000 0.000000 0.000000 0.000000
    3 3.217810 -1.313908 -0.117041 -0.036199 0.000000 -0.000843
    4 5.020581 -12.365363 -0.141199 0.110190 0.000000 0.000000
    5 -0.814324 0.000000 0.000000 0.000000 0.000000 0.000000
    6 -3.014840 -1.425123 -0.117041 -0.065415 -0.135041 -0.052306
    7 -5.182895 -12.052588 -0.133394 0.105119 0.000000 0.000000
    8 0.685731 4.330293 0.566755 0.000000 0.000000 0.000000
    9 2.880558 0.002299 0.002923 0.014446 0.364134 0.008019
    10 0.000000 0.000000 0.000000 -0.037962 0.000000 -0.499087
    11 -0.109736 6.529850 7.636820 0.676426 0.000000 0.000000
    12 2.192401 4.260851 -9.219817 0.050464 0.000000 0.000000
    13 -2.880557 -0.002451 -0.004128 0.077931 0.003436 0.000105
    14 0.000000 0.000000 0.000000 -0.306449 0.000000 0.449447
    15 0.109736 6.529850 7.636822 0.686049 0.000000 0.000000
    16 -2.192400 4.260849 -9.219818 0.065465 0.000000 0.000000
    17 0.576971 3.316378 3.658368 -0.365979 -0.020491 -0.041535
    18 -3.920413 1.599356 1.175100 0.000000 0.000000 -0.044331
    19 5.157469 1.518810 1.203308 -0.000228 0.003440 -0.044187
    20 0.580877 -3.033171 0.761056 0.366519 0.000000 0.000000
    21 2.558006 2.592530 -4.317399 0.000072 -0.003452 0.044199
    22 -1.559219 2.591210 -4.327222 0.000000 0.000000 0.000012
    23 0.499394 -0.354273 -4.774595 0.000000 0.000000 0.000012
    24 0.498970 5.824183 -0.709799 0.000072 -0.003452 0.044199
    25 -2.628906 -0.510254 6.773438 0.000000 0.000000 -1.570796
time 1
    0 0.000300 -0.082034 8.095055 0.023798 0.097285 0.006605
    1 0.499394 -1.847356 -2.039971 0.000000 0.000000 0.000000
    2 0.811076 0.000000 0.000000 0.000909 0.087516 0.002014
    3 3.217810 -1.313908 -0.117041 -0.027285 0.000000 0.058794
    4 5.020581 -12.365363 -0.141199 -0.282435 0.000000 0.000000
    5 -0.814324 0.000000 0.000000 0.000000 0.155661 0.000000
    6 -3.014840 -1.425123 -0.117041 -0.361243 -0.135041 -0.094040
    7 -5.182895 -12.052588 -0.133394 0.480247 0.000000 0.000000
    8 0.685731 4.330293 0.566755 0.000000 0.000000 0.121047
    9 2.880558 0.002299 0.002923 -0.084107 0.223763 -0.186966
    10 0.000000 0.000000 0.000000 0.101276 0.000000 -0.514715
    11 -0.109736 6.529850 7.636820 0.266792 0.000000 0.000000
    12 2.192401 4.260851 -9.219817 -0.071211 0.000000 0.000000
    13 -2.880557 -0.002451 -0.004128 -0.032565 -0.304265 -0.103762
    14 0.000000 0.000000 0.000000 0.147569 0.000000 0.414241
    15 0.109736 6.529850 7.636822 0.366434 0.000000 0.000000
    16 -2.192400 4.260849 -9.219818 -0.056721 0.000000 0.000000
    17 0.424622 2.593700 4.705275 -0.409807 0.018870 0.031742
    18 -3.682124 0.849333 1.366512 0.000000 0.000000 -0.044319
    19 4.614483 1.104735 1.078304 0.004326 -0.000947 -0.044103
    20 0.471499 -3.154268 1.546236 0.464605 0.000000 0.000000
    21 2.558006 2.592530 -4.317399 -0.004278 0.001139 0.044115
    22 -1.559219 2.591210 -4.327222 0.000000 0.000000 0.000012
    23 0.499394 -0.354273 -4.774595 0.000000 0.000000 0.000012
    24 0.498970 5.824183 -0.709799 -0.004278 0.001139 0.044115
    25 -2.628906 -0.510254 6.773438 0.000000 0.000000 -1.570796
time 2
    0 0.000300 0.187506 8.470067 0.113978 0.189435 0.021433
    1 0.499394 -1.847356 -2.039971 0.000000 0.000000 0.000000
    2 0.811076 0.000000 0.000000 0.003562 0.178722 0.007274
    3 3.217810 -1.313908 -0.117041 -0.155554 0.000000 0.064285
    4 5.020581 -12.365363 -0.141199 -0.394820 0.000000 0.000000
    5 -0.814324 0.000000 0.000000 0.000000 0.291102 0.000000
    6 -3.014840 -1.425123 -0.117041 -0.537440 -0.135041 -0.194682
    7 -5.182895 -12.052588 -0.133394 0.623772 0.000000 0.000000
    8 0.685731 4.330293 0.566755 0.000000 0.000000 0.227544
    9 2.880558 0.002299 0.002923 -0.153333 0.075760 -0.347413
    10 0.000000 0.000000 0.000000 0.137519 0.000000 -0.498400
    11 -0.109736 6.529850 7.636820 -0.029534 0.000000 0.000000
    12 2.192401 4.260851 -9.219817 -0.074152 0.000000 0.000000
    13 -2.880557 -0.002451 -0.004128 -0.156865 -0.583681 -0.135846
    14 0.000000 0.000000 0.000000 0.549781 0.000000 0.288328
    15 0.109736 6.529850 7.636822 0.136077 0.000000 0.000000
    16 -2.192400 4.260849 -9.219818 -0.066138 0.000000 0.000000
    17 0.158989 2.300722 5.420140 -0.458427 0.056056 0.080433
    18 -3.471180 0.294629 1.632145 0.000000 0.000000 -0.044319
    19 4.126187 0.874259 0.843922 0.008449 -0.004770 -0.043264
    20 0.385559 -3.248021 2.143911 0.576657 0.000000 0.000000
    21 2.558006 2.592530 -4.317399 -0.008233 0.005129 0.043240
    22 -1.559219 2.591210 -4.327222 0.000000 0.000000 0.000012
    23 0.499394 -0.354273 -4.774595 0.000000 0.000000 0.000012
    24 0.498970 5.824183 -0.709799 -0.008233 0.005129 0.043240
    25 -2.628906 -0.510254 6.773438 0.000000 0.000000 -1.570796
time 3
    0 0.000300 0.453139 8.536475 0.077614 0.212768 0.020030
    1 0.499394 -1.847356 -2.039971 0.000000 0.000000 0.000000
    2 0.811076 0.000000 0.000000 0.007654 0.271839 0.014609
    3 3.217810 -1.313908 -0.117041 -0.376061 0.000000 0.050811
    4 5.020581 -12.365363 -0.141199 0.021171 0.000000 0.000000
    5 -0.814324 0.000000 0.000000 0.000000 0.237111 0.000000
    6 -3.014840 -1.425123 -0.117041 -0.693165 -0.135041 -0.256854
    7 -5.182895 -12.052588 -0.133394 0.609310 0.000000 0.000000
    8 0.685731 4.330293 0.566755 0.000000 0.000000 0.185720
    9 2.880558 0.002299 0.002923 -0.099685 0.008836 -0.333859
    10 0.000000 0.000000 0.000000 0.184614 0.000000 -0.382908
    11 -0.109736 6.529850 7.636820 -0.244410 0.000000 0.000000
    12 2.192401 4.260851 -9.219817 -0.071092 0.000000 0.000000
    13 -2.880557 -0.002451 -0.004128 -0.135450 -0.655044 -0.073673
    14 0.000000 0.000000 0.000000 0.834002 0.000000 0.066623
    15 0.109736 6.529850 7.636822 0.023145 0.000000 0.000000
    16 -2.192400 4.260849 -9.219818 -0.073019 0.000000 0.000000
    17 -0.024610 1.929617 5.967032 -0.513714 0.043220 0.016361
    18 -3.271955 -0.099914 1.761055 0.000000 0.000000 -0.044319
    19 3.934775 0.530499 0.687667 0.009432 -0.003152 -0.043204
    20 0.326963 -3.310523 2.550173 0.684694 0.000000 0.000000
    21 2.558006 2.592530 -4.317399 -0.009276 0.003559 0.043192
    22 -1.559219 2.591210 -4.327222 0.000000 0.000000 0.000012
    23 0.499394 -0.354273 -4.774595 0.000000 0.000000 0.000012
    24 0.498970 5.824183 -0.709799 -0.009276 0.003559 0.043192
    25 -2.628906 -0.510254 6.773438 0.000000 0.000000 -1.570796
time 4
    0 0.000300 0.714866 8.044273 -0.065556 0.194931 0.003933
    1 0.499394 -1.847356 -2.039971 0.000000 0.000000 0.000000
    2 0.811076 0.000000 0.000000 0.012732 0.365172 0.022766
    3 3.217810 -1.313908 -0.117041 -0.676102 0.000000 0.007717
    4 5.020581 -12.365363 -0.141199 0.723916 0.000000 0.000000
    5 -0.814324 0.000000 0.000000 0.000000 0.023608 0.000000
    6 -3.014840 -1.425123 -0.117041 -0.818226 -0.135041 -0.138996
    7 -5.182895 -12.052588 -0.133394 0.337705 0.000000 0.000000
    8 0.685731 4.330293 0.566755 0.000000 0.000000 -0.071955
    9 2.880558 0.002299 0.002923 0.050371 0.008123 -0.095322
    10 0.000000 0.000000 0.000000 0.392243 0.000000 -0.106930
    11 -0.109736 6.529850 7.636820 -0.433027 0.000000 0.000000
    12 2.192401 4.260851 -9.219817 -0.064828 0.000000 0.000000
    13 -2.880557 -0.002451 -0.004128 0.028258 -0.480346 0.151810
    14 0.000000 0.000000 0.000000 0.937612 0.000000 -0.141336
    15 0.109736 6.529850 7.636822 0.125582 0.000000 0.000000
    16 -2.192400 4.260849 -9.219818 -0.036565 0.000000 0.000000
    17 -0.079299 1.152250 6.490486 -0.553002 -0.072880 -0.207810
    18 -3.174296 -0.467113 1.698553 0.000000 0.000000 -0.044319
    19 4.247285 -0.180460 0.703293 0.008521 0.003032 -0.043384
    20 0.295712 -3.345680 2.768930 0.770767 0.000000 0.000000
    21 2.558006 2.592530 -4.317399 -0.008641 -0.002661 0.043420
    22 -1.559219 2.591210 -4.327222 0.000000 0.000000 0.000012
    23 0.499394 -0.354273 -4.774595 0.000000 0.000000 0.000012
    24 0.498970 5.824183 -0.709799 -0.008641 -0.002661 0.043420
    25 -2.628906 -0.510254 6.773438 0.000000 0.000000 -1.570796
time 5
    0 0.000300 0.972686 7.153620 -0.253277 0.156027 -0.011964
    1 0.499394 -1.847356 -2.039971 0.000000 0.000000 0.000000
    2 0.811076 0.000000 0.000000 0.017961 0.456899 0.030224
    3 3.217810 -1.313908 -0.117041 -0.931145 0.000000 -0.119758
    4 5.020581 -12.365363 -0.141199 1.189070 0.000000 0.000000
    5 -0.814324 0.000000 0.000000 0.000000 -0.260362 0.000000
    6 -3.014840 -1.425123 -0.117041 -0.681460 -0.135041 0.057311
    7 -5.182895 -12.052588 -0.133394 -0.175600 0.000000 0.000000
    8 0.685731 4.330293 0.566755 0.000000 0.000000 -0.323928
    9 2.880558 0.002299 0.002923 0.238019 0.051066 0.148720
    10 0.000000 0.000000 0.000000 0.718634 0.000000 0.189055
    11 -0.109736 6.529850 7.636820 -0.477382 0.000000 0.000000
    12 2.192401 4.260851 -9.219817 -0.060237 0.000000 0.000000
    13 -2.880557 -0.002451 -0.004128 0.227775 -0.315034 0.405753
    14 0.000000 0.000000 0.000000 0.781687 0.000000 -0.215712
    15 0.109736 6.529850 7.636822 0.504111 0.000000 0.000000
    16 -2.192400 4.260849 -9.219818 0.065500 0.000000 0.000000
    17 -0.048048 0.656141 6.560800 -0.541897 -0.184758 -0.405556
    18 -3.264143 -0.869469 1.518860 0.000000 0.000000 -0.044319
    19 4.262910 -0.211711 0.547038 0.006651 0.011110 -0.042354
    20 0.291806 -3.349587 2.800181 0.816910 0.000000 0.000000
    21 2.558006 2.592530 -4.317399 -0.007119 -0.010822 0.042437
    22 -1.559219 2.591210 -4.327222 0.000000 0.000000 0.000012
    23 0.499394 -0.354273 -4.774595 0.000000 0.000000 0.000012
    24 0.498970 5.824183 -0.709799 -0.007119 -0.010822 0.042437
    25 -2.628906 -0.510254 6.773438 0.000000 0.000000 -1.570796
time 6
    0 0.000300 1.218787 6.130152 -0.440617 0.103190 -0.018310
    1 0.499394 -1.847356 -2.039971 0.000000 0.000000 0.000000
    2 0.811076 0.000000 0.000000 0.022016 0.545327 0.035238
    3 3.217810 -1.313908 -0.117041 -1.025785 0.000000 -0.251965
    4 5.020581 -12.365363 -0.141199 1.252087 0.000000 0.000000
    5 -0.814324 0.000000 0.000000 0.000000 -0.549288 0.000000
    6 -3.014840 -1.425123 -0.117041 -0.579008 -0.135041 0.140451
    7 -5.182895 -12.052588 -0.133394 -0.203159 0.000000 0.000000
    8 0.685731 4.330293 0.566755 0.000000 0.000000 -0.389932
    9 2.880558 0.002299 0.002923 0.420899 0.124856 0.229631
    10 0.000000 0.000000 0.000000 0.817330 0.000000 0.346965
    11 -0.109736 6.529850 7.636820 -0.303430 0.000000 0.000000
    12 2.192401 4.260851 -9.219817 0.045276 0.000000 0.000000
    13 -2.880557 -0.002451 -0.004128 0.435080 -0.339213 0.415258
    14 0.000000 0.000000 0.000000 0.390855 0.000000 -0.329387
    15 0.109736 6.529850 7.636822 1.154609 0.000000 0.000000
    16 -2.192400 4.260849 -9.219818 0.078324 0.000000 0.000000
    17 0.026173 0.738175 6.181882 -0.497462 -0.182775 -0.435701
    18 -3.412585 -1.029630 1.225883 0.000000 0.000000 -0.044331
    19 4.044153 0.354712 0.273592 0.004183 0.018888 -0.039837
    20 0.315244 -3.326149 2.643926 0.797048 0.000000 0.000000
    21 2.558006 2.592530 -4.317399 -0.004938 -0.018708 0.039933
    22 -1.559219 2.591210 -4.327222 0.000000 0.000000 0.000000
    23 0.499394 -0.354273 -4.774595 0.000000 0.000000 0.000000
    24 0.498970 5.824183 -0.709799 -0.004938 -0.018708 0.039933
    25 -2.628906 -0.510254 6.773438 0.000000 0.000000 -1.570796
time 7
    0 0.000300 1.445357 5.231687 -0.585120 0.046690 -0.012432
    1 0.499394 -1.847356 -2.039971 0.000000 0.000000 0.000000
    2 0.811076 0.000000 0.000000 0.023228 0.628806 0.035443
    3 3.217810 -1.313908 -0.117041 -0.974008 0.000000 -0.316226
    4 5.020581 -12.365363 -0.141199 1.028712 0.000000 0.000000
    5 -0.814324 0.000000 0.000000 0.006732 -0.783546 0.001501
    6 -3.014840 -1.425123 -0.117041 -0.668776 -0.135041 0.085990
    7 -5.182895 -12.052588 -0.133394 0.308291 0.000000 0.000000
    8 0.685731 4.330293 0.566755 0.000000 0.000000 -0.411359
    9 2.880558 0.002299 0.002923 0.561179 0.211905 0.296920
    10 0.000000 0.000000 0.000000 0.629290 0.000000 0.388181
    11 -0.109736 6.529850 7.636820 0.060874 0.000000 0.000000
    12 2.192401 4.260851 -9.219817 0.063328 0.000000 0.000000
    13 -2.880557 -0.002451 -0.004128 0.612593 -0.393102 0.333971
    14 0.000000 0.000000 0.000000 -0.038704 0.000000 -0.457713
    15 0.109736 6.529850 7.636822 1.738682 0.000000 0.000000
    16 -2.192400 4.260849 -9.219818 0.151197 0.000000 0.000000
    17 0.096487 1.238190 5.717024 -0.392205 -0.136548 -0.434586
    18 -3.299300 -0.478832 0.776650 0.000000 0.000000 -0.044331
    19 4.473854 0.409401 0.246248 0.001618 0.024485 -0.036889
    20 0.362120 -3.271459 2.300165 0.695292 0.000000 0.000000
    21 2.558006 2.592530 -4.317399 -0.002517 -0.024413 0.036948
    22 -1.559219 2.591210 -4.327222 0.000000 0.000000 0.000012
    23 0.499394 -0.354273 -4.774595 0.000000 0.000000 0.000012
    24 0.498970 5.824183 -0.709799 -0.002517 -0.024413 0.036948
    25 -2.628906 -0.510254 6.773438 0.000000 0.000000 -1.570796
time 8
    0 0.000300 1.648488 4.735578 -0.645155 -0.003447 0.000126
    1 0.499394 -1.847356 -2.039971 0.000000 0.000000 0.000000
    2 0.811076 0.000000 0.000000 0.019098 0.705556 0.027985
    3 3.217810 -1.313908 -0.117041 -0.834209 0.000000 -0.312650
    4 5.020581 -12.365363 -0.141199 0.680027 0.000000 0.000000
    5 -0.814324 0.000000 0.000000 0.066550 -0.981358 0.004728
    6 -3.014840 -1.425123 -0.117041 -0.869852 -0.135041 -0.018446
    7 -5.182895 -12.052588 -0.133394 0.803478 0.000000 0.000000
    8 0.685731 4.330293 0.566755 0.000000 0.000000 -0.410002
    9 2.880558 0.002299 0.002923 0.623728 0.309068 0.392211
    10 0.000000 0.000000 0.000000 0.476128 0.000000 0.357527
    11 -0.109736 6.529850 7.636820 0.283516 0.000000 0.000000
    12 2.192401 4.260851 -9.219817 0.056131 0.000000 0.000000
    13 -2.880557 -0.002451 -0.004128 0.713826 -0.459059 0.214140
    14 0.000000 0.000000 0.000000 -0.188628 0.000000 -0.533123
    15 0.109736 6.529850 7.636822 1.747434 0.000000 0.000000
    16 -2.192400 4.260849 -9.219818 0.153178 0.000000 0.000000
    17 0.112113 1.871022 5.494361 -0.253954 -0.070364 -0.426210
    18 -3.588371 -0.357735 0.577425 0.000000 0.000000 -0.044331
    19 5.102779 0.288304 0.281405 -0.000623 0.026642 -0.035426
    20 0.440248 -3.189426 1.764993 0.551077 0.000000 0.000000
    21 2.558006 2.592530 -4.317399 -0.000312 -0.026654 0.035438
    22 -1.559219 2.591210 -4.327222 0.000000 0.000000 0.000012
    23 0.499394 -0.354273 -4.774595 0.000000 0.000000 0.000012
    24 0.498970 5.824183 -0.709799 -0.000312 -0.026654 0.035438
    25 -2.628906 -0.510254 6.773438 0.000000 0.000000 -1.570796
time 9
    0 0.000300 1.835994 4.688701 -0.553199 -0.060550 0.013952
    1 0.499394 -1.847356 -2.039971 0.000000 0.000000 0.000000
    2 0.811076 0.000000 0.000000 0.006555 0.773755 0.009308
    3 3.217810 -1.313908 -0.117041 -0.752380 0.000000 -0.347977
    4 5.020581 -12.365363 -0.141199 0.331136 0.000000 0.000000
    5 -0.814324 0.000000 0.000000 0.057043 -1.123895 -0.004193
    6 -3.014840 -1.425123 -0.117041 -0.991530 -0.135041 -0.040394
    7 -5.182895 -12.052588 -0.133394 1.059311 0.000000 0.000000
    8 0.685731 4.330293 0.566755 0.000000 0.000000 -0.391159
    9 2.880558 0.002299 0.002923 0.541548 0.431876 0.463214
    10 0.000000 0.000000 0.000000 0.416132 0.000000 0.255516
    11 -0.109736 6.529850 7.636820 0.277303 0.000000 0.000000
    12 2.192401 4.260851 -9.219817 0.042574 0.000000 0.000000
    13 -2.880557 -0.002451 -0.004128 0.656130 -0.556192 0.137842
    14 0.000000 0.000000 0.000000 -0.191911 0.000000 -0.514421
    15 0.109736 6.529850 7.636822 1.439017 0.000000 0.000000
    16 -2.192400 4.260849 -9.219818 0.028942 0.000000 0.000000
    17 0.065236 2.871052 5.107631 -0.115586 -0.004094 -0.411506
    18 -3.912600 -0.400705 0.577425 0.000000 0.000000 -0.044319
    19 5.735611 -0.055457 0.363439 -0.003116 0.023190 -0.037680
    20 0.541813 -3.076141 1.038408 0.406944 0.000000 0.000000
    21 2.558006 2.592530 -4.317399 0.002241 -0.023286 0.037632
    22 -1.559219 2.591210 -4.327222 0.000000 0.000000 0.000012
    23 0.499394 -0.354273 -4.774595 0.000000 0.000000 0.000012
    24 0.498970 5.824183 -0.709799 0.002241 -0.023286 0.037632
    25 -2.628906 -0.510254 6.773438 0.000000 0.000000 -1.570796
time 10
    0 0.000300 2.003967 4.809799 -0.336222 -0.129006 0.016690
    1 0.499394 -1.847356 -2.039971 0.000000 0.000000 0.000000
    2 0.811076 0.000000 0.000000 -0.027965 0.832012 -0.040621
    3 3.217810 -1.313908 -0.117041 -0.752166 0.000000 -0.405159
    4 5.020581 -12.365363 -0.141199 0.099024 0.000000 0.000000
    5 -0.814324 0.000000 0.000000 -0.262604 -1.168543 0.038296
    6 -3.014840 -1.425123 -0.117041 -0.760813 -0.135041 0.044909
    7 -5.182895 -12.052588 -0.133394 1.113829 0.000000 0.000000
    8 0.685731 4.330293 0.566755 0.000000 0.000000 -0.360101
    9 2.880558 0.002299 0.002923 0.323697 0.592503 0.439409
    10 0.000000 0.000000 0.000000 0.351223 0.000000 0.063001
    11 -0.109736 6.529850 7.636820 0.222871 0.000000 0.000000
    12 2.192401 4.260851 -9.219817 0.005084 0.000000 0.000000
    13 -2.880557 -0.002451 -0.004128 0.442867 -0.687352 0.171029
    14 0.000000 0.000000 0.000000 -0.249095 0.000000 -0.392947
    15 0.109736 6.529850 7.636822 1.132847 0.000000 0.000000
    16 -2.192400 4.260849 -9.219818 -0.008868 0.000000 0.000000
    17 0.006641 3.671858 4.306825 -0.074745 0.010512 -0.387673
    18 -3.873536 -0.096008 0.647740 0.000000 0.000000 -0.044331
    19 5.958274 -0.172648 0.382971 -0.005992 0.014382 -0.041539
    20 0.580877 -3.033171 0.761056 0.366519 0.000000 0.000000
    21 2.558006 2.592530 -4.317399 0.005393 -0.014609 0.041467
    22 -1.559219 2.591210 -4.327222 0.000000 0.000000 0.000012
    23 0.499394 -0.354273 -4.774595 0.000000 0.000000 0.000012
    24 0.498970 5.824183 -0.709799 0.005393 -0.014609 0.041467
    25 -2.628906 -0.510254 6.773438 0.000000 0.000000 -1.570796
time 11
    0 0.000300 2.121158 4.860582 -0.093289 -0.183771 0.002063
    1 0.499394 -1.847356 -2.039971 0.000000 0.000000 0.000000
    2 0.811076 0.000000 0.000000 -0.111177 0.868434 -0.159258
    3 3.217810 -1.313908 -0.117041 -0.738021 0.000000 -0.375322
    4 5.020581 -12.365363 -0.141199 -0.043293 0.000000 0.000000
    5 -0.814324 0.000000 0.000000 -0.791101 -1.114445 0.066726
    6 -3.014840 -1.425123 -0.117041 -0.188606 -0.135041 0.123521
    7 -5.182895 -12.052588 -0.133394 1.054564 0.000000 0.000000
    8 0.685731 4.330293 0.566755 0.000000 0.000000 -0.322140
    9 2.880558 0.002299 0.002923 0.035588 0.723234 0.291278
    10 0.000000 0.000000 0.000000 0.287746 0.000000 -0.132862
    11 -0.109736 6.529850 7.636820 0.205931 0.000000 0.000000
    12 2.192401 4.260851 -9.219817 -0.004145 0.000000 0.000000
    13 -2.880557 -0.002451 -0.004128 0.153915 -0.813022 0.307505
    14 0.000000 0.000000 0.000000 -0.427271 0.000000 -0.197226
    15 0.109736 6.529850 7.636822 1.060287 0.000000 0.000000
    16 -2.192400 4.260849 -9.219818 0.063936 0.000000 0.000000
    17 -0.036329 4.402349 3.326326 -0.073597 0.004051 -0.353972
    18 -3.838379 0.216501 0.854778 0.000000 0.000000 -0.044319
    19 5.837177 0.135955 0.316562 -0.008185 0.003883 -0.043408
    20 0.580877 -3.033171 0.761056 0.366519 0.000000 0.000000
    21 2.558006 2.592530 -4.317399 0.008006 -0.004231 0.043384
    22 -1.559219 2.591210 -4.327222 0.000000 0.000000 0.000012
    23 0.499394 -0.354273 -4.774595 0.000000 0.000000 0.000012
    24 0.498970 5.824183 -0.709799 0.008006 -0.004231 0.043384
    25 -2.628906 -0.510254 6.773438 0.000000 0.000000 -1.570796
time 12
    0 0.000300 2.156316 4.844956 0.071839 -0.203657 -0.014235
    1 0.499394 -1.847356 -2.039971 0.000000 0.000000 0.000000
    2 0.811076 0.000000 0.000000 -0.210645 0.858753 -0.298524
    3 3.217810 -1.313908 -0.117041 -0.616478 0.000000 -0.237299
    4 5.020581 -12.365363 -0.141199 -0.250125 0.000000 0.000000
    5 -0.814324 0.000000 0.000000 -1.116966 -1.055890 0.000000
    6 -3.014840 -1.425123 -0.117041 0.284577 -0.135041 0.299390
    7 -5.182895 -12.052588 -0.133394 0.912731 0.000000 0.000000
    8 0.685731 4.330293 0.566755 0.000000 0.000000 -0.282574
    9 2.880558 0.002299 0.002923 -0.191959 0.799243 0.127873
    10 0.000000 0.000000 0.000000 0.278600 0.000000 -0.174250
    11 -0.109736 6.529850 7.636820 0.238113 0.000000 0.000000
    12 2.192401 4.260851 -9.219817 0.013381 0.000000 0.000000
    13 -2.880557 -0.002451 -0.004128 -0.082768 -0.911412 0.447290
    14 0.000000 0.000000 0.000000 -0.623565 0.000000 -0.029988
    15 0.109736 6.529850 7.636822 1.217043 0.000000 0.000000
    16 -2.192400 4.260849 -9.219818 0.083571 0.000000 0.000000
    17 -0.071487 4.554697 2.881000 -0.072484 0.000362 -0.316972
    18 -4.123544 0.177438 1.147755 0.000000 0.000000 -0.044319
    19 5.895772 0.319555 0.293124 -0.008893 -0.003308 -0.043288
    20 0.580877 -3.033171 0.761056 0.366519 0.000000 0.000000
    21 2.558006 2.592530 -4.317399 0.009024 0.002912 0.043324
    22 -1.559219 2.591210 -4.327222 0.000000 0.000000 0.000012
    23 0.499394 -0.354273 -4.774595 0.000000 0.000000 0.000012
    24 0.498970 5.824183 -0.709799 0.009024 0.002912 0.043324
    25 -2.628906 -0.510254 6.773438 0.000000 0.000000 -1.570796
time 13
    0 0.000300 2.148503 4.805892 0.074695 -0.145445 -0.010227
    1 0.499394 -1.878607 -2.043877 0.000000 0.000000 0.000000
    2 0.811076 0.000000 0.000000 -0.274419 0.789730 -0.389628
    3 3.217810 -1.313908 -0.117041 -0.368374 0.000000 -0.019519
    4 5.020581 -12.365363 -0.141199 -0.518010 0.000000 0.000000
    5 -0.814324 0.000000 0.000000 -1.102988 -1.026719 -0.111353
    6 -3.014840 -1.425123 -0.117041 0.465803 -0.135041 0.420062
    7 -5.182895 -12.052588 -0.133394 0.791690 0.000000 0.000000
    8 0.685731 4.330293 0.566755 0.000000 0.000000 -0.182837
    9 2.880558 0.002299 0.002923 -0.195695 0.812712 0.035471
    10 0.000000 0.000000 0.000000 0.322283 0.000000 -0.185241
    11 -0.109736 6.529850 7.636820 0.235151 0.000000 0.000000
    12 2.192401 4.260851 -9.219817 0.010248 0.000000 0.000000
    13 -2.880557 -0.002451 -0.004128 -0.112383 -1.061429 0.362799
    14 0.000000 0.000000 0.000000 -0.695639 0.000000 0.039863
    15 0.109736 6.529850 7.636822 1.316965 0.000000 0.000000
    16 -2.192400 4.260849 -9.219818 0.092676 0.000000 0.000000
    17 -0.048048 4.558604 2.830218 -0.070003 0.007697 -0.221534
    18 -4.443866 0.185251 1.186819 0.000000 0.000000 -0.044331
    19 6.239533 0.331274 0.297030 -0.006352 -0.003404 -0.043720
    20 0.580877 -3.064422 0.757150 0.366519 0.000000 0.000000
    21 2.558006 2.592530 -4.317399 0.006484 0.003128 0.043756
    22 -1.559219 2.591210 -4.327222 0.000000 0.000000 0.000012
    23 0.499394 -0.354273 -4.774595 0.000000 0.000000 0.000012
    24 0.498970 5.824183 -0.709799 0.006484 0.003128 0.043756
    25 -2.628906 -0.510254 6.773438 0.000000 0.000000 -1.570796
time 14
    0 0.000300 2.156316 4.759016 -0.009900 -0.043725 -0.001144
    1 0.499394 -1.980173 -2.059503 0.000000 0.000000 0.000000
    2 0.811076 0.000000 0.000000 -0.261687 0.603324 -0.368588
    3 3.217810 -1.313908 -0.117041 -0.046234 0.000000 0.154157
    4 5.020581 -12.365363 -0.141199 -0.785016 0.000000 0.000000
    5 -0.814324 0.000000 0.000000 -0.957451 -0.992591 -0.217568
    6 -3.014840 -1.425123 -0.117041 0.531449 -0.135041 0.411454
    7 -5.182895 -12.052588 -0.133394 0.699845 0.000000 0.000000
    8 0.685731 4.330293 0.566755 0.000000 0.000000 -0.046900
    9 2.880558 0.002299 0.002923 -0.069403 0.788916 -0.004365
    10 0.000000 0.000000 0.000000 0.417497 0.000000 -0.178887
    11 -0.109736 6.529850 7.636820 0.200802 0.000000 0.000000
    12 2.192401 4.260851 -9.219817 -0.010409 0.000000 0.000000
    13 -2.880557 -0.002451 -0.004128 0.089730 -1.236294 0.019377
    14 0.000000 0.000000 0.000000 -0.671860 0.000000 0.055592
    15 0.109736 6.529850 7.636822 1.314685 0.000000 0.000000
    16 -2.192400 4.260849 -9.219818 0.090348 0.000000 0.000000
    17 0.002734 4.488289 3.006004 -0.064332 0.021024 -0.090662
    18 -4.779814 0.220408 1.034471 0.000000 0.000000 -0.044319
    19 6.751267 0.221896 0.386877 -0.001942 0.000395 -0.044283
    20 0.580877 -3.165987 0.741524 0.366519 0.000000 0.000000
    21 2.558006 2.592530 -4.317399 0.001918 -0.000479 0.044295
    22 -1.559219 2.591210 -4.327222 0.000000 0.000000 0.000012
    23 0.499394 -0.354273 -4.774595 0.000000 0.000000 0.000012
    24 0.498970 5.824183 -0.709799 0.001918 -0.000479 0.044295
    25 -2.628906 -0.510254 6.773438 0.000000 0.000000 -1.570796
time 15
    0 0.000300 2.230537 4.723859 -0.062129 0.003977 0.000126
    1 0.499394 -2.128615 -2.079035 0.000000 0.000000 0.000000
    2 0.811076 0.000000 0.000000 -0.216292 0.254084 -0.269388
    3 3.217810 -1.313908 -0.117041 0.252205 0.000000 0.153868
    4 5.020581 -12.365363 -0.141199 -0.846947 0.000000 0.000000
    5 -0.814324 0.000000 0.000000 -0.916185 -0.973477 -0.235225
    6 -3.014840 -1.425123 -0.117041 0.592421 -0.135041 0.363764
    7 -5.182895 -12.052588 -0.133394 0.615477 0.000000 0.000000
    8 0.685731 4.330293 0.566755 0.000000 0.000000 0.005376
    9 2.880558 0.002299 0.002923 0.004909 0.806955 0.007882
    10 0.000000 0.000000 0.000000 0.469370 0.000000 -0.185156
    11 -0.109736 6.529850 7.636820 0.192494 0.000000 0.000000
    12 2.192401 4.260851 -9.219817 -0.013398 0.000000 0.000000
    13 -2.880557 -0.002451 -0.004128 0.367060 -1.320563 -0.322576
    14 0.000000 0.000000 0.000000 -0.623678 0.000000 0.055549
    15 0.109736 6.529850 7.636822 1.284608 0.000000 0.000000
    16 -2.192400 4.260849 -9.219818 0.065778 0.000000 0.000000
    17 0.022266 4.480476 3.099757 -0.061042 0.026802 -0.040073
    18 -5.006383 0.255565 0.925092 0.000000 0.000000 -0.044319
    19 7.001275 0.221896 0.437660 0.000108 0.002744 -0.044235
    20 0.580877 -3.314430 0.721992 0.366519 0.000000 0.000000
    21 2.558006 2.592530 -4.317399 -0.000228 -0.002744 0.044247
    22 -1.559219 2.591210 -4.327222 0.000000 0.000000 0.000012
    23 0.499394 -0.354273 -4.774595 0.000000 0.000000 0.000012
    24 0.498970 5.824183 -0.709799 -0.000228 -0.002744 0.044247
    25 -2.628906 -0.510254 6.773438 0.000000 0.000000 -1.570796
time 16
    0 0.000300 2.351634 4.692608 -0.089862 0.015403 -0.000075
    1 0.499394 -2.323933 -2.110286 0.000000 0.000000 0.000000
    2 0.811076 0.000000 0.000000 -0.203976 0.013588 -0.207522
    3 3.217810 -1.313908 -0.117041 0.424778 0.000000 0.059914
    4 5.020581 -12.365363 -0.141199 -0.854805 0.000000 0.000000
    5 -0.814324 0.000000 0.000000 -0.944038 -0.967450 -0.200280
    6 -3.014840 -1.425123 -0.117041 0.634924 -0.135041 0.272342
    7 -5.182895 -12.052588 -0.133394 0.583225 0.000000 0.000000
    8 0.685731 4.330293 0.566755 0.000000 0.000000 0.003419
    9 2.880558 0.002299 0.002923 0.047827 0.852539 0.055768
    10 0.000000 0.000000 0.000000 0.506910 0.000000 -0.192969
    11 -0.109736 6.529850 7.636820 0.192313 0.000000 0.000000
    12 2.192401 4.260851 -9.219817 -0.012179 0.000000 0.000000
    13 -2.880557 -0.002451 -0.004128 0.620498 -1.352369 -0.590120
    14 0.000000 0.000000 0.000000 -0.567966 0.000000 0.062616
    15 0.109736 6.529850 7.636822 1.242124 0.000000 0.000000
    16 -2.192400 4.260849 -9.219818 0.043468 0.000000 0.000000
    17 0.026173 4.500008 3.134914 -0.060586 0.027975 -0.041957
    18 -5.002477 0.263378 0.874310 0.000000 0.000000 -0.044319
    19 6.989556 0.268772 0.422034 0.000587 0.003991 -0.044139
    20 0.580877 -3.509748 0.690741 0.366519 0.000000 0.000000
    21 2.558006 2.592530 -4.317399 -0.000767 -0.003955 0.044151
    22 -1.559219 2.591210 -4.327222 0.000000 0.000000 0.000012
    23 0.499394 -0.354273 -4.774595 0.000000 0.000000 0.000012
    24 0.498970 5.824183 -0.709799 -0.000767 -0.003955 0.044151
    25 -2.628906 -0.510254 6.773438 0.000000 0.000000 -1.570796
time 17
    0 0.000300 2.507889 4.661357 -0.114295 0.015065 -0.000275
    1 0.499394 -2.550502 -2.141536 0.000000 0.000000 0.000000
    2 0.811076 0.000000 0.000000 -0.203976 -0.015064 -0.201584
    3 3.217810 -1.313908 -0.117041 0.480826 0.000000 0.043695
    4 5.020581 -12.365363 -0.141199 -0.856097 0.000000 0.000000
    5 -0.814324 0.000000 0.000000 -0.989570 -0.965346 -0.143709
    6 -3.014840 -1.425123 -0.117041 0.647742 -0.135041 0.130130
    7 -5.182895 -12.052588 -0.133394 0.596267 0.000000 0.000000
    8 0.685731 4.330293 0.566755 0.000000 0.000000 -0.018374
    9 2.880558 0.002299 0.002923 0.091858 0.900130 0.125808
    10 0.000000 0.000000 0.000000 0.542539 0.000000 -0.193055
    11 -0.109736 6.529850 7.636820 0.193072 0.000000 0.000000
    12 2.192401 4.260851 -9.219817 -0.010481 0.000000 0.000000
    13 -2.880557 -0.002451 -0.004128 0.894171 -1.365526 -0.858662
    14 0.000000 0.000000 0.000000 -0.538582 0.000000 0.083472
    15 0.109736 6.529850 7.636822 1.234211 0.000000 0.000000
    16 -2.192400 4.260849 -9.219818 0.043225 0.000000 0.000000
    17 0.026173 4.523446 3.166165 -0.061244 0.027740 -0.063018
    18 -5.002477 0.271191 0.843059 0.000000 0.000000 -0.044319
    19 6.962211 0.327368 0.386877 0.000551 0.005057 -0.044031
    20 0.580877 -3.736317 0.659490 0.366519 0.000000 0.000000
    21 2.558006 2.592530 -4.317399 -0.000779 -0.005034 0.044043
    22 -1.559219 2.591210 -4.327222 0.000000 0.000000 0.000012
    23 0.499394 -0.354273 -4.774595 0.000000 0.000000 0.000012
    24 0.498970 5.824183 -0.709799 -0.000779 -0.005034 0.044043
    25 -2.628906 -0.510254 6.773438 0.000000 0.000000 -1.570796
time 18
    0 0.000300 2.699301 4.626199 -0.136888 0.008292 -0.000275
    1 0.499394 -2.800510 -2.180600 0.000000 0.000000 0.000000
    2 0.811076 0.000000 0.000000 -0.204128 0.037724 -0.212515
    3 3.217810 -1.313908 -0.117041 0.469403 0.000000 0.067861
    4 5.020581 -12.365363 -0.141199 -0.856459 0.000000 0.000000
    5 -0.814324 0.000000 0.000000 -1.041834 -0.963741 -0.078915
    6 -3.014840 -1.425123 -0.117041 0.641912 -0.135041 -0.039456
    7 -5.182895 -12.052588 -0.133394 0.622080 0.000000 0.000000
    8 0.685731 4.330293 0.566755 0.000000 0.000000 -0.051063
    9 2.880558 0.002299 0.002923 0.139307 0.942307 0.209885
    10 0.000000 0.000000 0.000000 0.571137 0.000000 -0.191681
    11 -0.109736 6.529850 7.636820 0.202102 0.000000 0.000000
    12 2.192401 4.260851 -9.219817 -0.003093 0.000000 0.000000
    13 -2.880557 -0.002451 -0.004128 1.241114 -1.373111 -1.192160
    14 0.000000 0.000000 0.000000 -0.503932 0.000000 0.104328
    15 0.109736 6.529850 7.636822 1.232132 0.000000 0.000000
    16 -2.192400 4.260849 -9.219818 0.045240 0.000000 0.000000
    17 0.026173 4.550791 3.193510 -0.062476 0.026653 -0.094594
    18 -5.002477 0.279003 0.819620 0.000000 0.000000 -0.044319
    19 6.923147 0.393776 0.340001 0.000228 0.006052 -0.043912
    20 0.580877 -3.986325 0.620427 0.366519 0.000000 0.000000
    21 2.558006 2.592530 -4.317399 -0.000491 -0.006040 0.043924
    22 -1.559219 2.591210 -4.327222 0.000000 0.000000 0.000012
    23 0.499394 -0.354273 -4.774595 0.000000 0.000000 0.000012
    24 0.498970 5.824183 -0.709799 -0.000491 -0.006040 0.043924
    25 -2.628906 -0.510254 6.773438 0.000000 0.000000 -1.570796
time 19
    0 0.000300 2.918058 4.594949 -0.159163 0.000362 -0.000075
    1 0.499394 -3.058330 -2.219664 0.000000 0.000000 0.000000
    2 0.811076 0.000000 0.000000 -0.205454 0.119076 -0.229446
    3 3.217810 -1.313908 -0.117041 0.440045 0.000000 0.101779
    4 5.020581 -12.365363 -0.141199 -0.856511 0.000000 0.000000
    5 -0.814324 0.000000 0.000000 -1.089370 -0.960496 -0.019940
    6 -3.014840 -1.425123 -0.117041 0.616632 -0.135041 -0.205574
    7 -5.182895 -12.052588 -0.133394 0.670649 0.000000 0.000000
    8 0.685731 4.330293 0.566755 0.000000 0.000000 -0.085735
    9 2.880558 0.002299 0.002923 0.189776 0.970434 0.296920
    10 0.000000 0.000000 0.000000 0.551548 0.000000 -0.202844
    11 -0.109736 6.529850 7.636820 0.264011 0.000000 0.000000
    12 2.192401 4.260851 -9.219817 0.024092 0.000000 0.000000
    13 -2.880557 -0.002451 -0.004128 1.643216 -1.363222 -1.582318
    14 0.000000 0.000000 0.000000 -0.468093 0.000000 0.118979
    15 0.109736 6.529850 7.636822 1.228310 0.000000 0.000000
    16 -2.192400 4.260849 -9.219818 0.066612 0.000000 0.000000
    17 0.022266 4.582042 3.220855 -0.063809 0.025352 -0.128054
    18 -5.006383 0.282910 0.800089 0.000000 0.000000 -0.044319
    19 6.876271 0.467997 0.285311 -0.000132 0.007023 -0.043768
    20 0.580877 -4.244145 0.581363 0.366519 0.000000 0.000000
    21 2.558006 2.592530 -4.317399 -0.000168 -0.007023 0.043780
    22 -1.559219 2.591210 -4.327222 0.000000 0.000000 0.000012
    23 0.499394 -0.354273 -4.774595 0.000000 0.000000 0.000012
    24 0.498970 5.824183 -0.709799 -0.000168 -0.007023 0.043780
    25 -2.628906 -0.510254 6.773438 0.000000 0.000000 -1.570796
time 20
    0 0.000300 3.175878 4.559791 -0.182644 -0.003447 0.000126
    1 0.499394 -3.320057 -2.258728 0.000000 0.000000 0.000000
    2 0.811076 0.000000 0.000000 -0.207197 0.175901 -0.241486
    3 3.217810 -1.313908 -0.117041 0.428889 0.000000 0.121213
    4 5.020581 -12.365363 -0.141199 -0.856407 0.000000 0.000000
    5 -0.814324 0.000000 0.000000 -1.120512 -0.955040 0.019015
    6 -3.014840 -1.425123 -0.117041 0.578803 -0.135041 -0.345257
    7 -5.182895 -12.052588 -0.133394 0.744867 0.000000 0.000000
    8 0.685731 4.330293 0.566755 0.000000 0.000000 -0.113439
    9 2.880558 0.002299 0.002923 0.233886 0.966367 0.363245
    10 0.000000 0.000000 0.000000 0.497218 0.000000 -0.217957
    11 -0.109736 6.529850 7.636820 0.367855 0.000000 0.000000
    12 2.192401 4.260851 -9.219817 0.045156 0.000000 0.000000
    13 -2.880557 -0.002451 -0.004128 1.798075 -1.335900 -1.720685
    14 0.000000 0.000000 0.000000 -0.447371 0.000000 0.121392
    15 0.109736 6.529850 7.636822 1.216674 0.000000 0.000000
    16 -2.192400 4.260849 -9.219818 0.080304 0.000000 0.000000
    17 0.022266 4.593761 3.256012 -0.064771 0.024499 -0.154750
    18 -5.006383 0.294629 0.772744 0.000000 0.000000 -0.044319
    19 6.856739 0.514873 0.254060 -0.000324 0.008042 -0.043588
    20 0.580877 -4.505872 0.542299 0.366519 0.000000 0.000000
    21 2.558006 2.592530 -4.317399 -0.000012 -0.008042 0.043600
    22 -1.559219 2.591210 -4.327222 0.000000 0.000000 0.000012
    23 0.499394 -0.354273 -4.774595 0.000000 0.000000 0.000012
    24 0.498970 5.824183 -0.709799 -0.000012 -0.008042 0.043600
    25 -2.628906 -0.510254 6.773438 0.000000 0.000000 -1.570796
time 21
    0 0.000300 3.175878 4.559791 -0.182644 -0.003447 0.000126
    1 0.499394 -3.320057 -2.258728 0.000000 0.000000 0.000000
    2 0.811076 0.000000 0.000000 -0.207766 0.190313 -0.244568
    3 3.217810 -1.313908 -0.117041 0.416878 0.000000 0.114278
    4 5.020581 -12.365363 -0.141199 -0.856355 0.000000 0.000000
    5 -0.814324 0.000000 0.000000 -1.117840 -0.949013 0.016054
    6 -3.014840 -1.425123 -0.117041 0.578803 -0.135041 -0.345257
    7 -5.182895 -12.052588 -0.133394 0.744867 0.000000 0.000000
    8 0.685731 4.330293 0.566755 0.000000 0.000000 -0.113439
    9 2.880558 0.002299 0.002923 0.227528 0.942228 0.351686
    10 0.000000 0.000000 0.000000 0.483363 0.000000 -0.221220
    11 -0.109736 6.529850 7.636820 0.370600 0.000000 0.000000
    12 2.192401 4.260851 -9.219817 0.042215 0.000000 0.000000
    13 -2.880557 -0.002451 -0.004128 1.710056 -1.338666 -1.625324
    14 0.000000 0.000000 0.000000 -0.486776 0.000000 0.120444
    15 0.109736 6.529850 7.636822 1.258051 0.000000 0.000000
    16 -2.192400 4.260849 -9.219818 0.087220 0.000000 0.000000
    17 0.022266 4.578135 3.271637 -0.064771 0.024499 -0.154750
    18 -5.006383 0.294629 0.772744 0.000000 0.000000 -0.044319
    19 6.880177 0.479716 0.265779 -0.000324 0.008042 -0.043588
    20 0.580877 -4.505872 0.542299 0.366519 0.000000 0.000000
    21 2.558006 2.592530 -4.317399 -0.000012 -0.008042 0.043600
    22 -1.559219 2.591210 -4.327222 0.000000 0.000000 0.000012
    23 0.499394 -0.354273 -4.774595 0.000000 0.000000 0.000012
    24 0.498970 5.824183 -0.709799 -0.000012 -0.008042 0.043600
    25 -2.628906 -0.510254 6.773438 0.000000 0.000000 -1.570796
time 22
    0 0.000300 3.175878 4.559791 -0.182644 -0.003447 0.000126
    1 0.499394 -3.320057 -2.258728 0.000000 0.000000 0.000000
    2 0.811076 0.000000 0.000000 -0.207804 0.191268 -0.244773
    3 3.217810 -1.313908 -0.117041 0.420401 0.000000 0.100515
    4 5.020581 -12.365363 -0.141199 -0.856355 0.000000 0.000000
    5 -0.814324 0.000000 0.000000 -1.092196 -0.943236 -0.015726
    6 -3.014840 -1.425123 -0.117041 0.595047 -0.135041 -0.299281
    7 -5.182895 -12.052588 -0.133394 0.744485 0.000000 0.000000
    8 0.685731 4.330293 0.566755 0.000000 0.000000 -0.113439
    9 2.880558 0.002299 0.002923 0.217832 0.906099 0.333178
    10 0.000000 0.000000 0.000000 0.463364 0.000000 -0.224311
    11 -0.109736 6.529850 7.636820 0.372876 0.000000 0.000000
    12 2.192401 4.260851 -9.219817 0.039322 0.000000 0.000000
    13 -2.880557 -0.002451 -0.004128 1.498209 -1.338582 -1.397531
    14 0.000000 0.000000 0.000000 -0.538129 0.000000 0.113420
    15 0.109736 6.529850 7.636822 1.298154 0.000000 0.000000
    16 -2.192400 4.260849 -9.219818 0.090938 0.000000 0.000000
    17 0.022266 4.550791 3.291169 -0.064771 0.024499 -0.154750
    18 -5.006383 0.294629 0.772744 0.000000 0.000000 -0.044319
    19 6.919241 0.432840 0.281405 -0.000324 0.008042 -0.043588
    20 0.580877 -4.505872 0.542299 0.366519 0.000000 0.000000
    21 2.558006 2.592530 -4.317399 -0.000012 -0.008042 0.043600
    22 -1.559219 2.591210 -4.327222 0.000000 0.000000 0.000012
    23 0.499394 -0.354273 -4.774595 0.000000 0.000000 0.000012
    24 0.498970 5.824183 -0.709799 -0.000012 -0.008042 0.043600
    25 -2.628906 -0.510254 6.773438 0.000000 0.000000 -1.570796
end
