version 1
nodes
  0 "Bip01"             -1
  1 "Bip01 Pelvis"       0
  2 "Bip01 Spine"        1
  3 "Bip01 Spine1"       2
  4 "Bip01 Spine2"       3
  5 "Bip01 Spine3"       4
  6 "Bip01 Neck"         5
  7 "Bip01 Head"         6
  8 "Bip01 L Clavicle"   6
  9 "Bip01 L UpperArm"   8
 10 "Bip01 L Forearm"    9
 11 "Bip01 L Hand"      10
 12 "Bip01 L Finger0"   11
 13 "Bip01 L Finger01"  12
 14 "Bip01 L Finger02"  13
 15 "Bip01 L Finger1"   11
 16 "Bip01 L Finger11"  15
 17 "Bip01 L Finger12"  16
 18 "Bip01 L Finger2"   11
 19 "Bip01 L Finger21"  18
 20 "Bip01 L Finger22"  19
 21 "Bip01 L Finger3"   11
 22 "Bip01 L Finger31"  21
 23 "Bip01 L Finger32"  22
 24 "Bip01 L Finger4"   11
 25 "Bip01 L Finger41"  24
 26 "Bip01 L Finger42"  25
 27 "Bip01 R Clavicle"   6
 28 "Bip01 R UpperArm"  27
 29 "Bip01 R Forearm"   28
 30 "Bip01 R Hand"      29
 31 "Bip01 R Finger0"   30
 32 "Bip01 R Finger01"  31
 33 "Bip01 R Finger02"  32
 34 "Bip01 R Finger1"   30
 35 "Bip01 R Finger11"  34
 36 "Bip01 R Finger12"  35
 37 "Bip01 R Finger2"   30
 38 "Bip01 R Finger21"  37
 39 "Bip01 R Finger22"  38
 40 "Bip01 R Finger3"   30
 41 "Bip01 R Finger31"  40
 42 "Bip01 R Finger32"  41
 43 "Bip01 R Finger4"   30
 44 "Bip01 R Finger41"  43
 45 "Bip01 R Finger42"  44
 46 "Bip01 L Thigh"      2
 47 "Bip01 L Calf"      46
 48 "Bip01 L Foot"      47
 49 "Bip01 L Toe0"      48
 50 "Bip01 L Toe01"     49
 51 "Bip01 L Toe02"     50
 52 "Bip01 L Toe1"      48
 53 "Bip01 L Toe11"     52
 54 "Bip01 L Toe12"     53
 55 "Bip01 L Toe2"      48
 56 "Bip01 L Toe21"     55
 57 "Bip01 L Toe22"     56
 58 "Bip01 L Toe3"      48
 59 "Bip01 L Toe31"     58
 60 "Bip01 L Toe32"     59
 61 "Bip01 L Toe4"      48
 62 "Bip01 L Toe41"     61
 63 "Bip01 L Toe42"     62
 64 "Bip01 R Thigh"      2
 65 "Bip01 R Calf"      64
 66 "Bip01 R Foot"      65
 67 "Bip01 R Toe0"      66
 68 "Bip01 R Toe01"     67
 69 "Bip01 R Toe02"     68
 70 "Bip01 R Toe1"      66
 71 "Bip01 R Toe11"     70
 72 "Bip01 R Toe12"     71
 73 "Bip01 R Toe2"      66
 74 "Bip01 R Toe21"     73
 75 "Bip01 R Toe22"     74
 76 "Bip01 R Toe3"      66
 77 "Bip01 R Toe31"     76
 78 "Bip01 R Toe32"     77
 79 "Bip01 R Toe4"      66
 80 "Bip01 R Toe41"     79
 81 "Bip01 R Toe42"     80
end
skeleton
time 0
  0   -2.826350 -160.908142   32.017822    0.000000   -0.258099   -2.012453
  1    0.000000    0.000000    0.000000    3.141593   -1.538728    1.570796
  2    3.874912   -0.003265   -0.124107   -0.048020    0.022886    0.359227
  3    4.381210   -0.003510    0.000000   -0.000000   -0.000000    0.000000
  4    4.381470   -0.003464    0.000046   -0.012139   -0.010516    0.076533
  5    4.381477   -0.003479    0.000038   -0.012139   -0.010516    0.076533
  6    4.380219   -0.001755   -0.000130    0.065102    0.057207   -0.509840
  7    2.527626    0.000000    0.000000    0.239318   -0.058029    0.893210
  8   -0.067436    0.078613    1.175133   -1.112141   -1.024773   -1.573514
  9    4.381208    0.000000    0.000008    0.031728   -0.071410   -0.258066
 10   12.536993   -0.000015    0.000000   -0.000000   -0.000000   -0.794111
 11   11.424835    0.000000    0.000000   -1.746284   -0.015258   -0.062700
 12    0.869415    0.016609   -1.477257    1.438843    0.802124    0.297009
 13    0.842560   -0.000002    0.000008    0.000000   -0.000000    0.000000
 14    0.842529    0.000004   -0.000008    0.000000   -0.000000    0.000000
 15    2.373810   -0.009155   -1.112221   -0.016058    0.191323   -0.080157
 16    1.011047    0.000000   -0.000004    0.000000   -0.000000    0.000000
 17    1.011047    0.000004    0.000004    0.000000   -0.000000    0.000000
 18    2.348587    0.010056   -0.214897   -0.000796   -0.000021   -0.026180
 19    1.179581   -0.000008    0.000000    0.000000   -0.000000    0.000000
 20    1.179535    0.000000   -0.000008    0.000000   -0.000000    0.000000
 21    2.433151    0.016991    0.536499   -0.000816   -0.218166    0.000177
 22    1.011032    0.000000    0.000008    0.000000   -0.000000    0.000000
 23    1.011078    0.000000   -0.000008    0.000000   -0.000000    0.000000
 24    2.370209    0.027451    1.328773   -0.000868   -0.410152    0.000346
 25    0.842545   -0.000008    0.000015    0.000000   -0.000000    0.000000
 26    0.842545    0.000000    0.000000    0.000000   -0.000000    0.000000
 27    0.067448   -0.074600   -1.175140    0.840927    1.037330   -1.871094
 28    4.381210    0.000000    0.000000   -0.749833   -0.344914    0.648064
 29   10.110489   -0.000004    0.000002   -0.000000    0.000000   -0.910349
 30   10.110481    0.000000    0.000001    1.671030    0.011883   -0.056687
 31    0.550644    0.001230    1.514496   -1.942638   -0.546231    0.657312
 32    0.842541   -0.000015    0.000002    0.000000   -0.000000    0.000000
 33    0.842533    0.000015    0.000000    0.000000   -0.000000    0.000000
 34    2.532188    0.000628    0.905273    0.000796   -0.000000   -0.000000
 35    1.011047    0.000000   -0.000015    0.000000   -0.000000    0.000000
 36    1.011047   -0.000004   -0.000015    0.000000   -0.000000    0.000000
 37    2.530487    0.002539    0.129761    0.000794   -0.000062    0.078540
 38    1.179558    0.000000    0.000015    0.000000   -0.000000    0.000000
 39    1.179558    0.000000    0.000000    0.000000   -0.000000    0.000000
 40    2.529480    0.003880   -0.604263    0.000710   -0.000362    0.471239
 41    1.011051    0.000000    0.000000    0.000000   -0.000000    0.000000
 42    1.011047   -0.000004    0.000000    0.000000   -0.000000    0.000000
 43    2.273987    0.004583   -1.283905    0.000799    0.087266    0.000070
 44    0.842537   -0.000002    0.000008    0.000000   -0.000000    0.000000
 45    0.842545    0.000000   -0.000015    0.000000   -0.000000    0.000000
 46   -3.705444    1.199997    3.471970   -0.180003   -2.833231   -0.836503
 47   16.850807    0.000015   -0.000002   -0.000000   -0.000000   -1.177140
 48   16.850800    0.000015    0.000002   -0.085471    0.029194    0.297011
 49    3.875684    4.886734   -1.600827    0.000000   -0.000000    1.570797
 50    0.505524   -0.000001    0.000002    0.000000   -0.000000    0.000000
 51    0.505524    0.000001   -0.000002    0.000000   -0.000000    0.000000
 52    3.875684    4.886749   -0.800413    0.000000   -0.000000    1.570797
 53    0.539215    0.000000    0.000001    0.000000   -0.000000    0.000000
 54    0.539230    0.000000   -0.000001    0.000000   -0.000000    0.000000
 55    3.875684    4.886749    0.000000    0.000000   -0.000000    1.570797
 56    0.572906   -0.000001    0.000000    0.000000   -0.000000    0.000000
 57    0.572937    0.000000   -0.000001    0.000000   -0.000000    0.000000
 58    3.875683    4.886749    0.800413    0.000000   -0.000000    1.570797
 59    0.606644    0.000001    0.000000    0.000000   -0.000000    0.000000
 60    0.606628    0.000000   -0.000001    0.000000   -0.000000    0.000000
 61    3.875685    4.886734    1.600826    0.000000   -0.000000    1.570797
 62    0.640335    0.000000   -0.000001    0.000000   -0.000000    0.000000
 63    0.640335    0.000001   -0.000001    0.000000   -0.000000    0.000000
 64   -3.551197    1.523438   -3.258827    0.051532   -3.067154   -0.812351
 65   16.850800    0.000008   -0.000008   -0.000000    0.000000   -1.190626
 66   16.850800    0.000015    0.000000    0.297567   -0.108940    0.320548
 67    3.875683    4.886734    1.600822   -0.000000   -0.000000    1.570796
 68    0.505524   -0.000002    0.000015    0.000000   -0.000000    0.000000
 69    0.505531    0.000004   -0.000015    0.000000   -0.000000    0.000000
 70    3.875685    4.886734    0.800423   -0.000000   -0.000000    1.570796
 71    0.539230    0.000002   -0.000008    0.000000   -0.000000    0.000000
 72    0.539223   -0.000002    0.000000    0.000000   -0.000000    0.000000
 73    3.875685    4.886734    0.000008   -0.000000   -0.000000    1.570796
 74    0.572929    0.000002   -0.000008    0.000000   -0.000000    0.000000
 75    0.572922   -0.000002    0.000008    0.000000   -0.000000    0.000000
 76    3.875687    4.886734   -0.800407   -0.000000   -0.000000    1.570796
 77    0.606628    0.000002    0.000000    0.000000   -0.000000    0.000000
 78    0.606628   -0.000002    0.000000    0.000000   -0.000000    0.000000
 79    3.875685    4.886742   -1.600830   -0.000000   -0.000000    1.570796
 80    0.640335    0.000002   -0.000008    0.000000   -0.000000    0.000000
 81    0.640320   -0.000002    0.000000    0.000000   -0.000000    0.000000
time 1
  0   -2.146225 -161.852203   28.340004    0.000000   -0.229649   -2.043934
  1    0.000000    0.000000    0.000000   -3.141590   -1.510688    1.570794
  2    3.870136   -0.003174   -0.232857    0.007120    0.048742    0.432442
  3    4.381203   -0.003479   -0.000008    0.000000   -0.000000    0.000000
  4    4.381531   -0.003464    0.000023   -0.004072   -0.015339    0.092158
  5    4.381531   -0.003487    0.000008   -0.004071   -0.015339    0.092158
  6    4.380051   -0.001633   -0.000008    0.004290    0.043049   -0.615498
  7    2.527622    0.000015   -0.000008    0.265469    0.002257    0.941875
  8   -0.050758    0.007065    1.178452   -0.923785   -1.034431   -1.661986
  9    4.381208    0.000015    0.000000    0.051698   -0.044072   -0.208357
 10   12.536999    0.000000    0.000008    0.000000    0.000000   -0.774321
 11   11.424835    0.000008    0.000000   -1.730922   -0.014541   -0.065539
 12    0.869400    0.016617   -1.477257    1.438843    0.802124    0.297009
 13    0.842529   -0.000002    0.000000    0.000000   -0.000000    0.000000
 14    0.842545    0.000000    0.000000    0.000000   -0.000000    0.000000
 15    2.373779   -0.009155   -1.112213   -0.016058    0.191323   -0.080157
 16    1.011063    0.000000   -0.000004    0.000000   -0.000000    0.000000
 17    1.011032    0.000000    0.000004    0.000000   -0.000000    0.000000
 18    2.348587    0.010048   -0.214897   -0.000796   -0.000021   -0.026180
 19    1.179535   -0.000008    0.000000    0.000000   -0.000000    0.000000
 20    1.179565    0.000008    0.000000    0.000000   -0.000000    0.000000
 21    2.433136    0.016998    0.536491   -0.000816   -0.218166    0.000177
 22    1.011055    0.000000    0.000008    0.000000   -0.000000    0.000000
 23    1.011047    0.000000    0.000000    0.000000   -0.000000    0.000000
 24    2.370209    0.027451    1.328773   -0.000868   -0.410152    0.000346
 25    0.842552    0.000000   -0.000023    0.000000   -0.000000    0.000000
 26    0.842522    0.000000    0.000015    0.000000   -0.000000    0.000000
 27    0.050766   -0.003036   -1.178452    0.852744    1.018296   -1.768002
 28    4.381210   -0.000015   -0.000004   -0.675330   -0.273330    0.607602
 29   10.110474   -0.000002   -0.000002    0.000000    0.000000   -0.988535
 30   10.110481   -0.000008   -0.000002    1.667146    0.011713   -0.050064
 31    0.550636    0.001230    1.514511   -1.942638   -0.546231    0.657312
 32    0.842541    0.000000   -0.000001    0.000000   -0.000000    0.000000
 33    0.842537    0.000000    0.000001    0.000000   -0.000000    0.000000
 34    2.532188    0.000629    0.905273    0.000796   -0.000000   -0.000000
 35    1.011047    0.000000   -0.000015    0.000000   -0.000000    0.000000
 36    1.011047    0.000002    0.000015    0.000000   -0.000000    0.000000
 37    2.530479    0.002539    0.129791    0.000794   -0.000062    0.078540
 38    1.179558   -0.000004   -0.000031    0.000000   -0.000000    0.000000
 39    1.179550    0.000004    0.000000    0.000000   -0.000000    0.000000
 40    2.529488    0.003887   -0.604233    0.000710   -0.000362    0.471239
 41    1.011047    0.000004    0.000000    0.000000   -0.000000    0.000000
 42    1.011047    0.000000    0.000000    0.000000   -0.000000    0.000000
 43    2.273987    0.004585   -1.283905    0.000799    0.087266    0.000070
 44    0.842545   -0.000008   -0.000008    0.000000   -0.000000    0.000000
 45    0.842545    0.000002    0.000008    0.000000   -0.000000    0.000000
 46   -3.683929    1.649185    3.415924   -0.123192   -2.851260   -1.116821
 47   16.850807    0.000000    0.000000    0.000000    0.000000   -1.530518
 48   16.850800   -0.000015   -0.000004   -0.113163    0.062280    0.501280
 49    3.875684    4.886734   -1.600827    0.000000   -0.000000    1.570796
 50    0.505524    0.000001    0.000002    0.000000   -0.000000    0.000000
 51    0.505524   -0.000001   -0.000002    0.000000   -0.000000    0.000000
 52    3.875685    4.886749   -0.800412    0.000000   -0.000000    1.570796
 53    0.539215   -0.000001    0.000000    0.000000   -0.000000    0.000000
 54    0.539230    0.000001   -0.000001    0.000000   -0.000000    0.000000
 55    3.875685    4.886734    0.000000    0.000000   -0.000000    1.570796
 56    0.572922    0.000001   -0.000002    0.000000   -0.000000    0.000000
 57    0.572937    0.000000    0.000001    0.000000   -0.000000    0.000000
 58    3.875684    4.886734    0.800412    0.000000   -0.000000    1.570796
 59    0.606628    0.000000    0.000001    0.000000   -0.000000    0.000000
 60    0.606628    0.000000    0.000000    0.000000   -0.000000    0.000000
 61    3.875685    4.886734    1.600826    0.000000   -0.000000    1.570796
 62    0.640320   -0.000001    0.000000    0.000000   -0.000000    0.000000
 63    0.640335    0.000000    0.000000    0.000000   -0.000000    0.000000
 64   -3.355515    1.601227   -3.316223    0.034353   -3.062914   -1.082618
 65   16.850800    0.000000   -0.000008   -0.000000   -0.000000   -1.535316
 66   16.850800    0.000015    0.000000    0.364391   -0.221429    0.529359
 67    3.875687    4.886726    1.600822   -0.000000   -0.000000    1.570796
 68    0.505531    0.000000   -0.000008    0.000000   -0.000000    0.000000
 69    0.505524    0.000002    0.000000    0.000000   -0.000000    0.000000
 70    3.875685    4.886726    0.800400   -0.000000   -0.000000    1.570796
 71    0.539238    0.000002    0.000000    0.000000   -0.000000    0.000000
 72    0.539223    0.000000    0.000008    0.000000   -0.000000    0.000000
 73    3.875685    4.886734   -0.000008   -0.000000   -0.000000    1.570796
 74    0.572929    0.000000   -0.000008    0.000000   -0.000000    0.000000
 75    0.572914   -0.000002    0.000015    0.000000   -0.000000    0.000000
 76    3.875685    4.886734   -0.800423   -0.000000   -0.000000    1.570796
 77    0.606628    0.000000   -0.000008    0.000000   -0.000000    0.000000
 78    0.606621   -0.000004    0.000015    0.000000   -0.000000    0.000000
 79    3.875685    4.886734   -1.600838   -0.000000   -0.000000    1.570796
 80    0.640335    0.000002   -0.000008    0.000000   -0.000000    0.000000
 81    0.640320   -0.000004    0.000015    0.000000   -0.000000    0.000000
time 2
  0   -1.455990 -162.491791   25.625175    0.000000   -0.184334   -2.054620
  1    0.000000    0.000000    0.000000   -3.141591   -1.501402    1.570796
  2    3.868004   -0.003067   -0.268890    0.044822    0.055575    0.498104
  3    4.381210   -0.003479    0.000000    0.000000   -0.000000    0.000000
  4    4.381569   -0.003479   -0.000008    0.000891   -0.015966    0.106341
  5    4.381577   -0.003464    0.000000    0.000891   -0.015966    0.106341
  6    4.379898   -0.001511    0.000069   -0.033720    0.023367   -0.709447
  7    2.527624    0.000000    0.000000    0.298284    0.055309    0.980364
  8   -0.027555   -0.037766    1.178558   -0.694376   -1.118400   -1.779147
  9    4.381209    0.000000    0.000000    0.072940    0.023454   -0.185523
 10   12.536993    0.000000    0.000000   -0.000000   -0.000000   -0.736629
 11   11.424858   -0.000008    0.000000   -1.721993   -0.014192   -0.069514
 12    0.869392    0.016609   -1.477257    1.438843    0.802124    0.297009
 13    0.842545    0.000001    0.000000    0.000000   -0.000000    0.000000
 14    0.842545   -0.000001    0.000000    0.000000   -0.000000    0.000000
 15    2.373787   -0.009155   -1.112221   -0.016058    0.191323   -0.080157
 16    1.011047    0.000000    0.000000    0.000000   -0.000000    0.000000
 17    1.011047    0.000000    0.000000    0.000000   -0.000000    0.000000
 18    2.348595    0.010056   -0.214905   -0.000796   -0.000021   -0.026180
 19    1.179565    0.000000    0.000008    0.000000   -0.000000    0.000000
 20    1.179543   -0.000008   -0.000008    0.000000   -0.000000    0.000000
 21    2.433144    0.016991    0.536484   -0.000816   -0.218166    0.000177
 22    1.011055    0.000000    0.000000    0.000000   -0.000000    0.000000
 23    1.011040   -0.000008    0.000000    0.000000   -0.000000    0.000000
 24    2.370201    0.027458    1.328773   -0.000868   -0.410152    0.000346
 25    0.842545   -0.000008    0.000000    0.000000   -0.000000    0.000000
 26    0.842537    0.000008   -0.000008    0.000000   -0.000000    0.000000
 27    0.027565    0.041748   -1.178566    0.898026    1.004905   -1.637644
 28    4.381195   -0.000008    0.000000   -0.609439   -0.269686    0.563993
 29   10.110474    0.000002   -0.000002   -0.000000   -0.000000   -1.033328
 30   10.110481   -0.000015    0.000001    1.660946    0.011337   -0.045586
 31    0.550636    0.001228    1.514503   -1.942638   -0.546231    0.657312
 32    0.842537    0.000031   -0.000002    0.000000   -0.000000    0.000000
 33    0.842546   -0.000015    0.000001    0.000000   -0.000000    0.000000
 34    2.532188    0.000624    0.905266    0.000796    0.000000   -0.000000
 35    1.011040    0.000000    0.000000    0.000000   -0.000000    0.000000
 36    1.011055    0.000002    0.000000    0.000000   -0.000000    0.000000
 37    2.530487    0.002535    0.129768    0.000794   -0.000062    0.078540
 38    1.179550    0.000000    0.000023    0.000000   -0.000000    0.000000
 39    1.179558   -0.000003   -0.000015    0.000000   -0.000000    0.000000
 40    2.529480    0.003885   -0.604240    0.000710   -0.000362    0.471239
 41    1.011047    0.000000    0.000000    0.000000   -0.000000    0.000000
 42    1.011055   -0.000004   -0.000015    0.000000   -0.000000    0.000000
 43    2.273987    0.004587   -1.283905    0.000799    0.087266    0.000070
 44    0.842537    0.000002   -0.000008    0.000000   -0.000000    0.000000
 45    0.842545   -0.000002    0.000008    0.000000   -0.000000    0.000000
 46   -3.593437    2.003174    3.358398   -0.095000   -2.895659   -1.375381
 47   16.850800    0.000000    0.000000   -0.000000   -0.000000   -1.784188
 48   16.850800   -0.000008    0.000000   -0.153239    0.102212    0.583051
 49    3.875686    4.886749   -1.600826    0.000000    0.000000    1.570796
 50    0.505508    0.000000    0.000000    0.000000   -0.000000    0.000000
 51    0.505524    0.000000    0.000000    0.000000   -0.000000    0.000000
 52    3.875686    4.886734   -0.800414    0.000000    0.000000    1.570796
 53    0.539230   -0.000001    0.000000    0.000000   -0.000000    0.000000
 54    0.539230    0.000001   -0.000001    0.000000   -0.000000    0.000000
 55    3.875686    4.886734   -0.000001    0.000000    0.000000    1.570796
 56    0.572922   -0.000001    0.000001    0.000000   -0.000000    0.000000
 57    0.572937    0.000001   -0.000001    0.000000   -0.000000    0.000000
 58    3.875686    4.886734    0.800414    0.000000    0.000000    1.570796
 59    0.606628    0.000001   -0.000001    0.000000   -0.000000    0.000000
 60    0.606628    0.000000    0.000000    0.000000   -0.000000    0.000000
 61    3.875686    4.886734    1.600826    0.000000    0.000000    1.570796
 62    0.640335    0.000001    0.000000    0.000000   -0.000000    0.000000
 63    0.640335   -0.000002   -0.000001    0.000000   -0.000000    0.000000
 64   -3.219032    1.701614   -3.364777    0.028618   -3.090646   -1.353836
 65   16.850807    0.000000   -0.000008    0.000000   -0.000000   -1.798309
 66   16.850800    0.000000    0.000008    0.397448   -0.277228    0.592895
 67    3.875683    4.886734    1.600822   -0.000000   -0.000000    1.570796
 68    0.505539    0.000000   -0.000008    0.000000   -0.000000    0.000000
 69    0.505516    0.000000    0.000000    0.000000   -0.000000    0.000000
 70    3.875683    4.886734    0.800415   -0.000000   -0.000000    1.570796
 71    0.539215    0.000000    0.000000    0.000000   -0.000000    0.000000
 72    0.539230    0.000000   -0.000015    0.000000   -0.000000    0.000000
 73    3.875687    4.886726    0.000000   -0.000000   -0.000000    1.570796
 74    0.572922    0.000000    0.000000    0.000000   -0.000000    0.000000
 75    0.572922    0.000004    0.000008    0.000000   -0.000000    0.000000
 76    3.875687    4.886726   -0.800415   -0.000000   -0.000000    1.570796
 77    0.606636   -0.000004    0.000000    0.000000   -0.000000    0.000000
 78    0.606621    0.000004    0.000000    0.000000   -0.000000    0.000000
 79    3.875683    4.886734   -1.600830   -0.000000   -0.000000    1.570796
 80    0.640327   -0.000008    0.000000    0.000000   -0.000000    0.000000
 81    0.640343    0.000004    0.000008    0.000000   -0.000000    0.000000
time 3
  0   -0.928174 -162.999466   23.934813    0.000000   -0.140521   -2.081513
  1    0.000000    0.000000    0.000000    0.000001   -1.648399   -1.570795
  2    3.865851   -0.002960   -0.300644    0.051132    0.055001    0.559118
  3    4.381210   -0.003464    0.000000    0.000000   -0.000000    0.000000
  4    4.381622   -0.003464    0.000008   -0.000766   -0.018640    0.119415
  5    4.381622   -0.003464    0.000000   -0.000766   -0.018640    0.119415
  6    4.379776   -0.001411    0.000076   -0.038084    0.032478   -0.796764
  7    2.527617    0.000015    0.000000    0.320798    0.055451    0.983037
  8   -0.038300   -0.042877    1.178078   -0.575849   -1.204598   -1.791427
  9    4.381212   -0.000008    0.000031    0.071845    0.116387   -0.269934
 10   12.536999    0.000000    0.000000    0.000000    0.000000   -0.702974
 11   11.424850    0.000000    0.000000   -1.731192   -0.014794   -0.072393
 12    0.869408    0.016602   -1.477257    1.438843    0.802124    0.297009
 13    0.842529    0.000001    0.000015    0.000000   -0.000000    0.000000
 14    0.842545    0.000001   -0.000015    0.000000   -0.000000    0.000000
 15    2.373795   -0.009155   -1.112217   -0.016058    0.191323   -0.080157
 16    1.011047    0.000000    0.000002    0.000000   -0.000000    0.000000
 17    1.011047    0.000000    0.000000    0.000000   -0.000000    0.000000
 18    2.348587    0.010056   -0.214905   -0.000796   -0.000021   -0.026180
 19    1.179543    0.000015    0.000004    0.000000   -0.000000    0.000000
 20    1.179558   -0.000015    0.000004    0.000000   -0.000000    0.000000
 21    2.433136    0.016983    0.536495   -0.000816   -0.218166    0.000177
 22    1.011055    0.000000   -0.000008    0.000000   -0.000000    0.000000
 23    1.011032    0.000000    0.000008    0.000000   -0.000000    0.000000
 24    2.370209    0.027451    1.328770   -0.000868   -0.410152    0.000346
 25    0.842545    0.000000   -0.000008    0.000000   -0.000000    0.000000
 26    0.842545    0.000000    0.000000    0.000000   -0.000000    0.000000
 27    0.038298    0.046906   -1.178085    0.992199    1.003516   -1.459689
 28    4.381226    0.000004    0.000008   -0.562781   -0.334403    0.495842
 29   10.110474    0.000000    0.000000   -0.000000    0.000000   -1.061532
 30   10.110489    0.000008    0.000000    1.660246    0.011211   -0.042623
 31    0.550644    0.001230    1.514511   -1.942638   -0.546231    0.657312
 32    0.842543    0.000000    0.000000    0.000000   -0.000000    0.000000
 33    0.842531    0.000000   -0.000001    0.000000   -0.000000    0.000000
 34    2.532196    0.000628    0.905273    0.000796   -0.000000   -0.000000
 35    1.011047   -0.000002   -0.000015    0.000000   -0.000000    0.000000
 36    1.011040   -0.000002    0.000008    0.000000   -0.000000    0.000000
 37    2.530487    0.002535    0.129761    0.000794   -0.000062    0.078540
 38    1.179550   -0.000001    0.000000    0.000000   -0.000000    0.000000
 39    1.179558    0.000001   -0.000008    0.000000   -0.000000    0.000000
 40    2.529488    0.003885   -0.604233    0.000710   -0.000362    0.471239
 41    1.011047    0.000000    0.000015    0.000000   -0.000000    0.000000
 42    1.011047    0.000004    0.000000    0.000000   -0.000000    0.000000
 43    2.273994    0.004583   -1.283913    0.000799    0.087266    0.000070
 44    0.842537    0.000004    0.000008    0.000000   -0.000000    0.000000
 45    0.842537   -0.000002   -0.000008    0.000000   -0.000000    0.000000
 46   -3.472443    2.228577    3.375702   -0.085922   -2.904019   -1.567047
 47   16.850784   -0.000008    0.000000    0.000000    0.000000   -1.934005
 48   16.850800    0.000000    0.000000   -0.182615    0.127272    0.601038
 49    3.875685    4.886719   -1.600826   -0.000000   -0.000000    1.570796
 50    0.505539   -0.000002    0.000000    0.000000   -0.000000    0.000000
 51    0.505524    0.000004   -0.000002    0.000000   -0.000000    0.000000
 52    3.875685    4.886719   -0.800413   -0.000000   -0.000000    1.570796
 53    0.539246    0.000000    0.000000    0.000000   -0.000000    0.000000
 54    0.539200   -0.000002    0.000000    0.000000   -0.000000    0.000000
 55    3.875687    4.886734   -0.000002   -0.000000   -0.000000    1.570796
 56    0.572937    0.000004   -0.000002    0.000000   -0.000000    0.000000
 57    0.572891   -0.000002    0.000000    0.000000   -0.000000    0.000000
 58    3.875685    4.886734    0.800411   -0.000000   -0.000000    1.570796
 59    0.606613   -0.000002    0.000000    0.000000   -0.000000    0.000000
 60    0.606628    0.000000    0.000000    0.000000   -0.000000    0.000000
 61    3.875685    4.886719    1.600825   -0.000000   -0.000000    1.570796
 62    0.640320    0.000000    0.000002    0.000000   -0.000000    0.000000
 63    0.640335    0.000002   -0.000002    0.000000   -0.000000    0.000000
 64   -3.101913    1.884583   -3.345642    0.017083   -3.085413   -1.554722
 65   16.850784    0.000000    0.000008   -0.000000    0.000000   -1.931134
 66   16.850800    0.000015   -0.000008    0.418737   -0.289513    0.581503
 67    3.875683    4.886726    1.600822    0.000000    0.000000    1.570796
 68    0.505524   -0.000004    0.000000    0.000000   -0.000000    0.000000
 69    0.505524    0.000000    0.000000    0.000000   -0.000000    0.000000
 70    3.875683    4.886734    0.800415    0.000000    0.000000    1.570796
 71    0.539215   -0.000004   -0.000008    0.000000   -0.000000    0.000000
 72    0.539230    0.000004    0.000000    0.000000   -0.000000    0.000000
 73    3.875683    4.886726   -0.000008    0.000000    0.000000    1.570796
 74    0.572922    0.000000    0.000000    0.000000   -0.000000    0.000000
 75    0.572929    0.000000    0.000008    0.000000   -0.000000    0.000000
 76    3.875683    4.886726   -0.800415    0.000000    0.000000    1.570796
 77    0.606621    0.000000    0.000008    0.000000   -0.000000    0.000000
 78    0.606636    0.000000   -0.000008    0.000000   -0.000000    0.000000
 79    3.875683    4.886726   -1.600838    0.000000    0.000000    1.570796
 80    0.640327    0.000000    0.000008    0.000000   -0.000000    0.000000
 81    0.640343    0.000000   -0.000008    0.000000   -0.000000    0.000000
time 4
  0   -0.512020 -163.496933   22.982063    0.000000   -0.100155   -2.132205
  1    0.000000    0.000000    0.000000   -3.141591   -1.486324    1.570796
  2    3.863846   -0.002869   -0.327019    0.005244    0.042899    0.606221
  3    4.381203   -0.003502    0.000000    0.000000    0.000000    0.000000
  4    4.381653   -0.003464    0.000038   -0.012622   -0.025765    0.129204
  5    4.381660   -0.003448    0.000061   -0.012622   -0.025765    0.129204
  6    4.379684   -0.001305   -0.000008    0.000881    0.100128   -0.863544
  7    2.527626   -0.000015   -0.000008    0.306978    0.014844    0.937136
  8   -0.117903    0.003036    1.173653   -0.573824   -1.219352   -1.718609
  9    4.381212    0.000008    0.000015    0.036354    0.143449   -0.438561
 10   12.537003    0.000008    0.000015    0.000000    0.000000   -0.696722
 11   11.424843    0.000001   -0.000015   -1.752638   -0.016345   -0.072060
 12    0.869415    0.016602   -1.477262    1.438843    0.802124    0.297009
 13    0.842545    0.000000    0.000031    0.000000   -0.000000    0.000000
 14    0.842545    0.000000   -0.000031    0.000000   -0.000000    0.000000
 15    2.373802   -0.009171   -1.112225   -0.016058    0.191323   -0.080157
 16    1.011055    0.000000   -0.000002    0.000000   -0.000000    0.000000
 17    1.011047    0.000015    0.000003    0.000000   -0.000000    0.000000
 18    2.348602    0.010025   -0.214909   -0.000796   -0.000021   -0.026180
 19    1.179550    0.000000   -0.000004    0.000000   -0.000000    0.000000
 20    1.179558    0.000000    0.000006    0.000000   -0.000000    0.000000
 21    2.433144    0.016983    0.536489   -0.000816   -0.218166    0.000177
 22    1.011047    0.000000    0.000004    0.000000   -0.000000    0.000000
 23    1.011063   -0.000015   -0.000011    0.000000   -0.000000    0.000000
 24    2.370201    0.027451    1.328773   -0.000868   -0.410152    0.000346
 25    0.842537   -0.000015   -0.000008    0.000000   -0.000000    0.000000
 26    0.842545    0.000000    0.000008    0.000000   -0.000000    0.000000
 27    0.117910    0.000977   -1.173653    1.067387    0.991761   -1.322729
 28    4.381226   -0.000002    0.000000   -0.500150   -0.409280    0.409982
 29   10.110474    0.000000    0.000001    0.000000   -0.000000   -1.081813
 30   10.110489    0.000000   -0.000001    1.667995    0.011510   -0.040434
 31    0.550644    0.001228    1.514496   -1.942638   -0.546231    0.657312
 32    0.842537   -0.000015    0.000000    0.000000   -0.000000    0.000000
 33    0.842545    0.000000    0.000001    0.000000   -0.000000    0.000000
 34    2.532181    0.000626    0.905266    0.000796   -0.000000   -0.000000
 35    1.011063    0.000000    0.000008    0.000000   -0.000000    0.000000
 36    1.011040    0.000000    0.000008    0.000000   -0.000000    0.000000
 37    2.530479    0.002539    0.129768    0.000794   -0.000062    0.078540
 38    1.179550    0.000001   -0.000008    0.000000   -0.000000    0.000000
 39    1.179565   -0.000001    0.000015    0.000000   -0.000000    0.000000
 40    2.529488    0.003883   -0.604233    0.000710   -0.000362    0.471239
 41    1.011055   -0.000004    0.000000    0.000000   -0.000000    0.000000
 42    1.011040    0.000004    0.000008    0.000000   -0.000000    0.000000
 43    2.273979    0.004587   -1.283913    0.000799    0.087266    0.000070
 44    0.842545   -0.000002    0.000000    0.000000   -0.000000    0.000000
 45    0.842529    0.000004    0.000000    0.000000   -0.000000    0.000000
 46   -3.329346    2.222473    3.546059    3.066801   -0.296479    1.452099
 47   16.850784   -0.000008    0.000004    0.000000    0.000000   -2.015651
 48   16.850800    0.000008   -0.000004   -0.207174    0.150341    0.618088
 49    3.875683    4.886734   -1.600828   -0.000000   -0.000000    1.570796
 50    0.505524    0.000002   -0.000002    0.000000   -0.000000    0.000000
 51    0.505524    0.000000    0.000000    0.000000   -0.000000    0.000000
 52    3.875685    4.886719   -0.800411   -0.000000   -0.000000    1.570796
 53    0.539246    0.000004   -0.000002    0.000000   -0.000000    0.000000
 54    0.539230   -0.000002    0.000000    0.000000   -0.000000    0.000000
 55    3.875685    4.886734    0.000000   -0.000000   -0.000000    1.570796
 56    0.572922   -0.000002    0.000002    0.000000   -0.000000    0.000000
 57    0.572922    0.000002    0.000000    0.000000   -0.000000    0.000000
 58    3.875685    4.886734    0.800413   -0.000000   -0.000000    1.570796
 59    0.606644    0.000002    0.000000    0.000000   -0.000000    0.000000
 60    0.606613    0.000000    0.000000    0.000000   -0.000000    0.000000
 61    3.875683    4.886734    1.600826   -0.000000   -0.000000    1.570796
 62    0.640335    0.000000    0.000000    0.000000   -0.000000    0.000000
 63    0.640305    0.000000    0.000000    0.000000   -0.000000    0.000000
 64   -3.040283    2.187157   -3.187973   -3.119565   -0.122513    1.445403
 65   16.850800    0.000000   -0.000008    0.000000    0.000000   -2.002056
 66   16.850800    0.000000    0.000000    0.424151   -0.292708    0.579969
 67    3.875679    4.886742    1.600822   -0.000000    0.000000    1.570796
 68    0.505531    0.000000   -0.000015    0.000000   -0.000000    0.000000
 69    0.505516    0.000000    0.000008    0.000000   -0.000000    0.000000
 70    3.875683    4.886742    0.800415   -0.000000    0.000000    1.570796
 71    0.539223   -0.000004    0.000000    0.000000   -0.000000    0.000000
 72    0.539223    0.000000    0.000015    0.000000   -0.000000    0.000000
 73    3.875679    4.886742   -0.000008   -0.000000    0.000000    1.570796
 74    0.572929    0.000000    0.000000    0.000000   -0.000000    0.000000
 75    0.572937    0.000004   -0.000008    0.000000   -0.000000    0.000000
 76    3.875683    4.886742   -0.800415   -0.000000    0.000000    1.570796
 77    0.606636   -0.000004    0.000008    0.000000   -0.000000    0.000000
 78    0.606628    0.000004    0.000000    0.000000   -0.000000    0.000000
 79    3.875679    4.886742   -1.600838   -0.000000    0.000000    1.570796
 80    0.640327    0.000000    0.000008    0.000000   -0.000000    0.000000
 81    0.640327    0.000000    0.000008    0.000000   -0.000000    0.000000
time 5
  0   -0.166926 -164.045212   22.510805   -0.000000   -0.063665   -2.190659
  1    0.000000    0.000000    0.000000    0.000001   -1.651669   -1.570795
  2    3.865059   -0.002792   -0.312813   -0.081839    0.019753    0.629612
  3    4.381203   -0.003487    0.000000    0.000000   -0.000000    0.000000
  4    4.381668   -0.003471    0.000099   -0.030432   -0.033421    0.133497
  5    4.381668   -0.003448    0.000107   -0.030432   -0.033421    0.133496
  6    4.379639   -0.001236   -0.000137    0.070682    0.202673   -0.889363
  7    2.527622    0.000000    0.000000    0.265109   -0.016732    0.869305
  8   -0.237427    0.083618    1.152527   -0.522149   -1.197351   -1.733380
  9    4.381210    0.000000    0.000015   -0.007685    0.103062   -0.580911
 10   12.536999   -0.000004    0.000000    0.000000    0.000000   -0.715994
 11   11.424850    0.000000   -0.000015   -1.769906   -0.017409   -0.069132
 12    0.869400    0.016617   -1.477261    1.438843    0.802124    0.297008
 13    0.842537    0.000002    0.000015    0.000000   -0.000000    0.000000
 14    0.842545   -0.000002    0.000000    0.000000   -0.000000    0.000000
 15    2.373787   -0.009140   -1.112223   -0.016058    0.191323   -0.080157
 16    1.011055    0.000015   -0.000001    0.000000   -0.000000    0.000000
 17    1.011040   -0.000015    0.000000    0.000000   -0.000000    0.000000
 18    2.348587    0.010056   -0.214908   -0.000796   -0.000021   -0.026180
 19    1.179550    0.000015   -0.000001    0.000000   -0.000000    0.000000
 20    1.179565   -0.000015    0.000000    0.000000   -0.000000    0.000000
 21    2.433128    0.016998    0.536489   -0.000816   -0.218166    0.000177
 22    1.011040   -0.000015    0.000004    0.000000   -0.000000    0.000000
 23    1.011055    0.000015    0.000000    0.000000   -0.000000    0.000000
 24    2.370209    0.027435    1.328772   -0.000868   -0.410152    0.000346
 25    0.842537    0.000000    0.000000    0.000000   -0.000000    0.000000
 26    0.842545    0.000015   -0.000004    0.000000   -0.000000    0.000000
 27    0.237427   -0.079559   -1.152527    1.080837    0.993282   -1.274196
 28    4.381195    0.000002    0.000000   -0.421777   -0.468238    0.348687
 29   10.110489    0.000004    0.000000    0.000000    0.000000   -1.100641
 30   10.110489    0.000008    0.000000    1.676813    0.011779   -0.037883
 31    0.550636    0.001226    1.514503   -1.942638   -0.546231    0.657312
 32    0.842543   -0.000015   -0.000001    0.000000   -0.000000    0.000000
 33    0.842537    0.000000    0.000000    0.000000   -0.000000    0.000000
 34    2.532181    0.000628    0.905266    0.000796   -0.000000   -0.000000
 35    1.011040   -0.000002    0.000000    0.000000   -0.000000    0.000000
 36    1.011047   -0.000002    0.000000    0.000000   -0.000000    0.000000
 37    2.530472    0.002533    0.129776    0.000794   -0.000062    0.078540
 38    1.179543    0.000004   -0.000008    0.000000   -0.000000    0.000000
 39    1.179565   -0.000002    0.000000    0.000000   -0.000000    0.000000
 40    2.529472    0.003885   -0.604240    0.000710   -0.000362    0.471239
 41    1.011047   -0.000008    0.000000    0.000000   -0.000000    0.000000
 42    1.011047    0.000004    0.000000    0.000000   -0.000000    0.000000
 43    2.273972    0.004587   -1.283913    0.000799    0.087266    0.000070
 44    0.842529    0.000000    0.000000    0.000000   -0.000000    0.000000
 45    0.842537    0.000004    0.000008    0.000000   -0.000000    0.000000
 46   -3.194443    1.974541    3.794693    3.080887   -0.384094    1.387055
 47   16.850815    0.000000    0.000004    0.000000    0.000000   -2.058435
 48   16.850807    0.000000    0.000000   -0.244966    0.189774    0.645876
 49    3.875685    4.886734   -1.600826    0.000000   -0.000000    1.570796
 50    0.505524    0.000000    0.000002    0.000000   -0.000000    0.000000
 51    0.505524    0.000000   -0.000002    0.000000   -0.000000    0.000000
 52    3.875687    4.886719   -0.800413    0.000000   -0.000000    1.570796
 53    0.539230    0.000000    0.000002    0.000000   -0.000000    0.000000
 54    0.539246    0.000000    0.000000    0.000000   -0.000000    0.000000
 55    3.875685    4.886734    0.000000    0.000000   -0.000000    1.570796
 56    0.572937    0.000000    0.000000    0.000000   -0.000000    0.000000
 57    0.572937    0.000000   -0.000002    0.000000   -0.000000    0.000000
 58    3.875685    4.886719    0.800415    0.000000   -0.000000    1.570796
 59    0.606644    0.000000   -0.000002    0.000000   -0.000000    0.000000
 60    0.606628   -0.000002    0.000002    0.000000   -0.000000    0.000000
 61    3.875687    4.886719    1.600826    0.000000   -0.000000    1.570796
 62    0.640335    0.000000    0.000000    0.000000   -0.000000    0.000000
 63    0.640320   -0.000002    0.000000    0.000000   -0.000000    0.000000
 64   -3.061310    2.525429   -2.921753   -3.089477   -0.212751    1.361034
 65   16.850815    0.000008   -0.000008    0.000000    0.000000   -2.031896
 66   16.850800    0.000000    0.000008    0.421827   -0.299143    0.594306
 67    3.875687    4.886726    1.600830    0.000000   -0.000000    1.570796
 68    0.505524    0.000004   -0.000008    0.000000   -0.000000    0.000000
 69    0.505531    0.000000    0.000000    0.000000   -0.000000    0.000000
 70    3.875683    4.886734    0.800415    0.000000   -0.000000    1.570796
 71    0.539223    0.000004   -0.000015    0.000000   -0.000000    0.000000
 72    0.539215   -0.000004    0.000008    0.000000   -0.000000    0.000000
 73    3.875683    4.886726    0.000000    0.000000   -0.000000    1.570796
 74    0.572929    0.000000    0.000008    0.000000   -0.000000    0.000000
 75    0.572929    0.000000   -0.000008    0.000000   -0.000000    0.000000
 76    3.875687    4.886726   -0.800407    0.000000   -0.000000    1.570796
 77    0.606613   -0.000004    0.000008    0.000000   -0.000000    0.000000
 78    0.606636    0.000000   -0.000008    0.000000   -0.000000    0.000000
 79    3.875683    4.886726   -1.600830    0.000000   -0.000000    1.570796
 80    0.640327    0.000000    0.000015    0.000000   -0.000000    0.000000
 81    0.640335    0.000000    0.000000    0.000000   -0.000000    0.000000
time 6
  0    0.117260 -164.684860   22.428856   -0.000000   -0.035716   -2.245257
  1    0.000000    0.000000    0.000000   -3.141590   -1.502546    1.570796
  2    3.868690   -0.002792   -0.263794   -0.149447   -0.006317    0.634018
  3    4.381210   -0.003494    0.000000    0.000000   -0.000000    0.000000
  4    4.381660   -0.003456    0.000145   -0.041844   -0.037210    0.133867
  5    4.381676   -0.003456    0.000153   -0.041843   -0.037210    0.133867
  6    4.379639   -0.001209   -0.000221    0.121030    0.272748   -0.884973
  7    2.527622   -0.000015   -0.000008    0.250415   -0.029381    0.823936
  8   -0.317741    0.139145    1.127640   -0.438255   -1.196991   -1.806354
  9    4.381210    0.000000    0.000000   -0.035653    0.056874   -0.655317
 10   12.537003    0.000004    0.000000   -0.000000   -0.000000   -0.749850
 11   11.424843   -0.000004   -0.000015   -1.771252   -0.017245   -0.065241
 12    0.869408    0.016602   -1.477262    1.438843    0.802124    0.297009
 13    0.842543    0.000002    0.000015    0.000000   -0.000000    0.000000
 14    0.842535   -0.000002    0.000015    0.000000   -0.000000    0.000000
 15    2.373795   -0.009155   -1.112222   -0.016058    0.191323   -0.080157
 16    1.011040    0.000000   -0.000004    0.000000   -0.000000    0.000000
 17    1.011055    0.000000    0.000000    0.000000   -0.000000    0.000000
 18    2.348579    0.010056   -0.214910   -0.000796   -0.000021   -0.026180
 19    1.179543    0.000015   -0.000001    0.000000   -0.000000    0.000000
 20    1.179565   -0.000015    0.000000    0.000000   -0.000000    0.000000
 21    2.433136    0.016983    0.536489   -0.000816   -0.218166    0.000177
 22    1.011055   -0.000015   -0.000001    0.000000   -0.000000    0.000000
 23    1.011047    0.000000    0.000000    0.000000   -0.000000    0.000000
 24    2.370201    0.027435    1.328771   -0.000868   -0.410152    0.000346
 25    0.842545    0.000000   -0.000002    0.000000   -0.000000    0.000000
 26    0.842537    0.000000    0.000000    0.000000   -0.000000    0.000000
 27    0.317749   -0.135147   -1.127647    1.060748    1.010925   -1.282410
 28    4.381210    0.000000    0.000000   -0.355654   -0.498479    0.311913
 29   10.110504    0.000004    0.000002   -0.000000   -0.000000   -1.117637
 30   10.110481    0.000000    0.000000    1.680083    0.011673   -0.035762
 31    0.550644    0.001225    1.514511   -1.942638   -0.546231    0.657312
 32    0.842545   -0.000015    0.000000    0.000000   -0.000000    0.000000
 33    0.842537    0.000031    0.000001    0.000000   -0.000000    0.000000
 34    2.532188    0.000628    0.905273    0.000796    0.000000    0.000000
 35    1.011047    0.000002    0.000000    0.000000   -0.000000    0.000000
 36    1.011047    0.000004    0.000000    0.000000   -0.000000    0.000000
 37    2.530495    0.002531    0.129776    0.000794   -0.000062    0.078540
 38    1.179558   -0.000002    0.000015    0.000000   -0.000000    0.000000
 39    1.179558   -0.000010   -0.000015    0.000000   -0.000000    0.000000
 40    2.529488    0.003889   -0.604218    0.000710   -0.000362    0.471239
 41    1.011040    0.000008    0.000000    0.000000   -0.000000    0.000000
 42    1.011047   -0.000004   -0.000015    0.000000   -0.000000    0.000000
 43    2.273994    0.004583   -1.283905    0.000799    0.087266    0.000070
 44    0.842545    0.000004    0.000015    0.000000   -0.000000    0.000000
 45    0.842537   -0.000006   -0.000008    0.000000   -0.000000    0.000000
 46   -3.092171    1.724457    3.954399    3.085358   -0.432205    1.365240
 47   16.850800    0.000008    0.000000    0.000000    0.000000   -2.081819
 48   16.850800    0.000000    0.000000   -0.294633    0.240559    0.665479
 49    3.875685    4.886734   -1.600826   -0.000000   -0.000000    1.570796
 50    0.505508    0.000000    0.000000    0.000000   -0.000000    0.000000
 51    0.505539    0.000002   -0.000002    0.000000   -0.000000    0.000000
 52    3.875685    4.886719   -0.800409   -0.000000   -0.000000    1.570796
 53    0.539230    0.000000    0.000002    0.000000   -0.000000    0.000000
 54    0.539230    0.000002    0.000000    0.000000   -0.000000    0.000000
 55    3.875685    4.886734    0.000002   -0.000000   -0.000000    1.570796
 56    0.572922    0.000000    0.000000    0.000000   -0.000000    0.000000
 57    0.572937   -0.000002   -0.000002    0.000000   -0.000000    0.000000
 58    3.875685    4.886734    0.800415   -0.000000   -0.000000    1.570796
 59    0.606598    0.000000    0.000000    0.000000   -0.000000    0.000000
 60    0.606644    0.000000    0.000000    0.000000   -0.000000    0.000000
 61    3.875683    4.886749    1.600826   -0.000000   -0.000000    1.570796
 62    0.640320    0.000000    0.000000    0.000000   -0.000000    0.000000
 63    0.640335    0.000000    0.000002    0.000000   -0.000000    0.000000
 64   -3.134750    2.727989   -2.710663   -3.050802   -0.263745    1.327701
 65   16.850807    0.000000    0.000008   -0.000000    0.000000   -2.030682
 66   16.850800    0.000008   -0.000008    0.434118   -0.315464    0.605219
 67    3.875687    4.886742    1.600830   -0.000000    0.000000    1.570797
 68    0.505524    0.000000   -0.000008    0.000000   -0.000000    0.000000
 69    0.505524    0.000000    0.000000    0.000000   -0.000000    0.000000
 70    3.875679    4.886734    0.800407   -0.000000    0.000000    1.570797
 71    0.539230    0.000000    0.000008    0.000000   -0.000000    0.000000
 72    0.539230    0.000000   -0.000008    0.000000   -0.000000    0.000000
 73    3.875687    4.886734    0.000008   -0.000000    0.000000    1.570797
 74    0.572929    0.000008    0.000000    0.000000   -0.000000    0.000000
 75    0.572922   -0.000008    0.000008    0.000000   -0.000000    0.000000
 76    3.875687    4.886742   -0.800415   -0.000000    0.000000    1.570797
 77    0.606613   -0.000004    0.000000    0.000000   -0.000000    0.000000
 78    0.606636    0.000000    0.000000    0.000000   -0.000000    0.000000
 79    3.875683    4.886726   -1.600838   -0.000000    0.000000    1.570797
 80    0.640327    0.000000    0.000023    0.000000   -0.000000    0.000000
 81    0.640335    0.000000   -0.000008    0.000000   -0.000000    0.000000
time 7
  0    0.350692 -165.405640   22.695210    0.000000   -0.019035   -2.299433
  1    0.000000    0.000000    0.000000   -3.141590   -1.519697    1.570792
  2    3.872597   -0.002785   -0.197227   -0.207598   -0.031159    0.624996
  3    4.381210   -0.003502   -0.000008   -0.000000   -0.000000   -0.000000
  4    4.381660   -0.003452    0.000168   -0.050162   -0.038363    0.131437
  5    4.381653   -0.003452    0.000175   -0.050162   -0.038363    0.131437
  6    4.379639   -0.001219   -0.000320    0.168790    0.321302   -0.859158
  7    2.527618   -0.000015   -0.000008    0.246274   -0.027920    0.787179
  8   -0.372501    0.190018    1.103279   -0.358725   -1.219371   -1.894336
  9    4.381210   -0.000008    0.000000   -0.031863    0.023888   -0.670319
 10   12.536995   -0.000002    0.000000   -0.000000    0.000000   -0.788114
 11   11.424850    0.000000   -0.000015   -1.767590   -0.016616   -0.061644
 12    0.869408    0.016602   -1.477257    1.438843    0.802124    0.297009
 13    0.842540    0.000002   -0.000015    0.000000   -0.000000    0.000000
 14    0.842539   -0.000004   -0.000015    0.000000   -0.000000    0.000000
 15    2.373795   -0.009171   -1.112221   -0.016058    0.191323   -0.080157
 16    1.011055   -0.000015    0.000000    0.000000   -0.000000    0.000000
 17    1.011040    0.000015    0.000000    0.000000   -0.000000    0.000000
 18    2.348602    0.010040   -0.214909   -0.000796   -0.000021   -0.026180
 19    1.179550    0.000000    0.000000    0.000000   -0.000000    0.000000
 20    1.179558    0.000000    0.000000    0.000000   -0.000000    0.000000
 21    2.433144    0.016983    0.536491   -0.000816   -0.218166    0.000177
 22    1.011047    0.000000    0.000000    0.000000   -0.000000    0.000000
 23    1.011047    0.000000    0.000001    0.000000   -0.000000    0.000000
 24    2.370201    0.027451    1.328770   -0.000868   -0.410152    0.000346
 25    0.842537    0.000000   -0.000001    0.000000   -0.000000    0.000000
 26    0.842537    0.000015    0.000000    0.000000   -0.000000    0.000000
 27    0.372501   -0.186005   -1.103294    1.034582    1.030048   -1.315301
 28    4.381210    0.000002    0.000000   -0.304392   -0.509732    0.281745
 29   10.110474   -0.000004    0.000000    0.000000   -0.000000   -1.133576
 30   10.110481   -0.000015    0.000004    1.680530    0.011651   -0.033830
 31    0.550644    0.001230    1.514511   -1.942638   -0.546231    0.657312
 32    0.842541    0.000000   -0.000001    0.000000   -0.000000    0.000000
 33    0.842537    0.000015    0.000000    0.000000   -0.000000    0.000000
 34    2.532181    0.000628    0.905273    0.000796   -0.000000    0.000000
 35    1.011040    0.000004   -0.000015    0.000000   -0.000000    0.000000
 36    1.011055   -0.000002    0.000015    0.000000   -0.000000    0.000000
 37    2.530479    0.002537    0.129761    0.000794   -0.000062    0.078540
 38    1.179550    0.000000    0.000000    0.000000   -0.000000    0.000000
 39    1.179565   -0.000002    0.000000    0.000000   -0.000000    0.000000
 40    2.529480    0.003887   -0.604248    0.000710   -0.000362    0.471239
 41    1.011047    0.000008    0.000000    0.000000   -0.000000    0.000000
 42    1.011047    0.000008    0.000015    0.000000   -0.000000    0.000000
 43    2.273979    0.004585   -1.283905    0.000799    0.087266    0.000070
 44    0.842537    0.000004    0.000008    0.000000   -0.000000    0.000000
 45    0.842537   -0.000004    0.000008    0.000000   -0.000000    0.000000
 46   -3.026245    1.464329    4.052261    3.076303   -0.467036    1.382186
 47   16.850792    0.000000   -0.000008    0.000000   -0.000000   -2.082830
 48   16.850800    0.000000    0.000000   -0.343340    0.281277    0.660412
 49    3.875685    4.886719   -1.600826    0.000000    0.000000    1.570796
 50    0.505524    0.000000    0.000000    0.000000   -0.000000    0.000000
 51    0.505524   -0.000002   -0.000002    0.000000   -0.000000    0.000000
 52    3.875685    4.886719   -0.800411    0.000000    0.000000    1.570796
 53    0.539215   -0.000002    0.000000    0.000000   -0.000000    0.000000
 54    0.539230    0.000000    0.000002    0.000000   -0.000000    0.000000
 55    3.875683    4.886734   -0.000002    0.000000    0.000000    1.570796
 56    0.572937    0.000000   -0.000002    0.000000   -0.000000    0.000000
 57    0.572937    0.000004    0.000000    0.000000   -0.000000    0.000000
 58    3.875685    4.886734    0.800411    0.000000    0.000000    1.570796
 59    0.606628   -0.000002    0.000004    0.000000   -0.000000    0.000000
 60    0.606613    0.000000   -0.000004    0.000000   -0.000000    0.000000
 61    3.875685    4.886719    1.600824    0.000000    0.000000    1.570796
 62    0.640350    0.000002    0.000000    0.000000   -0.000000    0.000000
 63    0.640320    0.000002    0.000002    0.000000   -0.000000    0.000000
 64   -3.236237    2.852886   -2.540138   -3.023919   -0.299861    1.339327
 65   16.850807    0.000000   -0.000008   -0.000000    0.000000   -2.005579
 66   16.850807    0.000000    0.000008    0.448333   -0.328091    0.608013
 67    3.875690    4.886734    1.600845   -0.000000   -0.000000    1.570796
 68    0.505516   -0.000004    0.000000    0.000000   -0.000000    0.000000
 69    0.505539    0.000000    0.000015    0.000000   -0.000000    0.000000
 70    3.875683    4.886742    0.800446   -0.000000   -0.000000    1.570796
 71    0.539223    0.000008   -0.000031    0.000000   -0.000000    0.000000
 72    0.539230   -0.000008    0.000000    0.000000   -0.000000    0.000000
 73    3.875687    4.886742    0.000031   -0.000000   -0.000000    1.570796
 74    0.572922    0.000004    0.000000    0.000000   -0.000000    0.000000
 75    0.572929   -0.000004   -0.000015    0.000000   -0.000000    0.000000
 76    3.875683    4.886734   -0.800400   -0.000000   -0.000000    1.570796
 77    0.606621   -0.000011    0.000015    0.000000   -0.000000    0.000000
 78    0.606636    0.000004    0.000000    0.000000   -0.000000    0.000000
 79    3.875683    4.886742   -1.600815   -0.000000   -0.000000    1.570796
 80    0.640327    0.000000   -0.000015    0.000000   -0.000000    0.000000
 81    0.640335    0.000000    0.000000    0.000000   -0.000000    0.000000
time 8
  0    0.543518 -166.238205   23.330374    0.000000   -0.009631   -2.360272
  1    0.000000    0.000000    0.000000   -0.000001   -1.601283   -1.570792
  2    3.875738   -0.002800   -0.117226   -0.267159   -0.054590    0.601627
  3    4.381210   -0.003490    0.000000    0.000000   -0.000000    0.000000
  4    4.381615   -0.003448    0.000198   -0.058274   -0.037541    0.125971
  5    4.381638   -0.003454    0.000214   -0.058274   -0.037541    0.125971
  6    4.379684   -0.001236   -0.000404    0.229323    0.357948   -0.808612
  7    2.527622    0.000000    0.000000    0.225814   -0.031589    0.724488
  8   -0.413258    0.253143    1.075867   -0.285226   -1.251768   -1.999085
  9    4.381218   -0.000011    0.000015   -0.026291    0.013373   -0.643034
 10   12.536987    0.000002    0.000015    0.000000   -0.000000   -0.824670
 11   11.424850    0.000000    0.000000   -1.762228   -0.015958   -0.058239
 12    0.869400    0.016602   -1.477257    1.438843    0.802124    0.297009
 13    0.842539    0.000000   -0.000015    0.000000   -0.000000    0.000000
 14    0.842541    0.000000    0.000015    0.000000   -0.000000    0.000000
 15    2.373779   -0.009155   -1.112221   -0.016058    0.191323   -0.080157
 16    1.011047    0.000000    0.000000    0.000000   -0.000000    0.000000
 17    1.011047    0.000000    0.000008    0.000000   -0.000000    0.000000
 18    2.348579    0.010056   -0.214909   -0.000796   -0.000021   -0.026180
 19    1.179543    0.000000   -0.000004    0.000000   -0.000000    0.000000
 20    1.179558    0.000000    0.000004    0.000000   -0.000000    0.000000
 21    2.433128    0.016983    0.536495   -0.000816   -0.218166    0.000177
 22    1.011047    0.000000    0.000002    0.000000   -0.000000    0.000000
 23    1.011040    0.000000    0.000000    0.000000   -0.000000    0.000000
 24    2.370201    0.027435    1.328777   -0.000868   -0.410152    0.000346
 25    0.842537    0.000000   -0.000001    0.000000   -0.000000    0.000000
 26    0.842545    0.000015    0.000001    0.000000   -0.000000    0.000000
 27    0.413254   -0.249123   -1.075874    1.014179    1.060794   -1.358215
 28    4.381195    0.000000    0.000000   -0.263461   -0.524015    0.257594
 29   10.110489   -0.000004    0.000004    0.000000    0.000000   -1.153406
 30   10.110481    0.000000   -0.000002    1.679699    0.011399   -0.031755
 31    0.550629    0.001228    1.514511   -1.942638   -0.546231    0.657312
 32    0.842537    0.000000   -0.000002    0.000000   -0.000000    0.000000
 33    0.842545   -0.000015    0.000006    0.000000   -0.000000    0.000000
 34    2.532181    0.000624    0.905273    0.000796    0.000000    0.000000
 35    1.011047    0.000006    0.000031    0.000000   -0.000000    0.000000
 36    1.011047   -0.000008    0.000000    0.000000   -0.000000    0.000000
 37    2.530487    0.002537    0.129761    0.000794   -0.000062    0.078540
 38    1.179558    0.000004    0.000015    0.000000   -0.000000    0.000000
 39    1.179558   -0.000004   -0.000015    0.000000   -0.000000    0.000000
 40    2.529480    0.003883   -0.604233    0.000710   -0.000362    0.471239
 41    1.011047    0.000004    0.000000    0.000000   -0.000000    0.000000
 42    1.011051   -0.000004   -0.000015    0.000000   -0.000000    0.000000
 43    2.273979    0.004585   -1.283920    0.000799    0.087266    0.000070
 44    0.842537    0.000000   -0.000008    0.000000   -0.000000    0.000000
 45    0.842537    0.000008    0.000008    0.000000   -0.000000    0.000000
 46   -2.998611    1.152763    4.106445    3.041863   -0.510921    1.445862
 47   16.850815    0.000008    0.000000    0.000000   -0.000000   -2.053647
 48   16.850800    0.000000    0.000008   -0.385249    0.306372    0.639903
 49    3.875685    4.886719   -1.600822    0.000000    0.000000    1.570796
 50    0.505524    0.000000    0.000004    0.000000   -0.000000    0.000000
 51    0.505539    0.000002    0.000000    0.000000   -0.000000    0.000000
 52    3.875683    4.886749   -0.800415    0.000000    0.000000    1.570796
 53    0.539215   -0.000004    0.000004    0.000000   -0.000000    0.000000
 54    0.539230    0.000002   -0.000004    0.000000   -0.000000    0.000000
 55    3.875687    4.886719   -0.000004    0.000000    0.000000    1.570796
 56    0.572922    0.000002    0.000000    0.000000   -0.000000    0.000000
 57    0.572922    0.000000    0.000000    0.000000   -0.000000    0.000000
 58    3.875685    4.886719    0.800415    0.000000    0.000000    1.570796
 59    0.606628   -0.000002    0.000004    0.000000   -0.000000    0.000000
 60    0.606628    0.000002    0.000000    0.000000   -0.000000    0.000000
 61    3.875683    4.886734    1.600822    0.000000    0.000000    1.570796
 62    0.640335   -0.000002    0.000004    0.000000   -0.000000    0.000000
 63    0.640335    0.000000   -0.000004    0.000000   -0.000000    0.000000
 64   -3.366364    2.929493   -2.385078   -3.030587   -0.339487    1.393200
 65   16.850815    0.000000    0.000000    0.000000    0.000000   -1.958817
 66   16.850807   -0.000008    0.000000    0.434545   -0.315113    0.607679
 67    3.875683    4.886726    1.600830   -0.000000    0.000000    1.570796
 68    0.505524   -0.000004    0.000000    0.000000   -0.000000    0.000000
 69    0.505531    0.000000    0.000000    0.000000   -0.000000    0.000000
 70    3.875683    4.886734    0.800415   -0.000000    0.000000    1.570796
 71    0.539230   -0.000004   -0.000015    0.000000   -0.000000    0.000000
 72    0.539230    0.000004    0.000015    0.000000   -0.000000    0.000000
 73    3.875687    4.886734    0.000000   -0.000000    0.000000    1.570796
 74    0.572929    0.000000   -0.000015    0.000000   -0.000000    0.000000
 75    0.572922    0.000004    0.000015    0.000000   -0.000000    0.000000
 76    3.875687    4.886726   -0.800415   -0.000000    0.000000    1.570796
 77    0.606628   -0.000008    0.000000    0.000000   -0.000000    0.000000
 78    0.606628    0.000004    0.000000    0.000000   -0.000000    0.000000
 79    3.875683    4.886726   -1.600815   -0.000000    0.000000    1.570796
 80    0.640335    0.000000   -0.000015    0.000000   -0.000000    0.000000
 81    0.640320   -0.000004    0.000000    0.000000   -0.000000    0.000000
time 9
  0    0.716043 -167.131561   24.313864    0.000000   -0.000944   -2.430728
  1    0.000000    0.000000    0.000000    3.141593   -1.563620    1.570796
  2    3.877304   -0.002861   -0.026848   -0.284174   -0.074423    0.563817
  3    4.381210   -0.003490    0.000031    0.000000    0.000000    0.000000
  4    4.381607   -0.003464    0.000198   -0.057588   -0.032179    0.118099
  5    4.381615   -0.003460    0.000198   -0.057588   -0.032179    0.118099
  6    4.379761   -0.001312   -0.000488    0.253875    0.341757   -0.750168
  7    2.527618    0.000000    0.000000    0.220294   -0.055873    0.643144
  8   -0.395317    0.281143    1.075729   -0.228292   -1.294914   -2.110037
  9    4.381203    0.000019   -0.000015   -0.041093    0.035121   -0.588451
 10   12.537003   -0.000002    0.000000   -0.000000    0.000000   -0.854152
 11   11.424850   -0.000008    0.000000   -1.751389   -0.015164   -0.055600
 12    0.869408    0.016617   -1.477264    1.438843    0.802124    0.297009
 13    0.842537    0.000008    0.000000    0.000000   -0.000000    0.000000
 14    0.842543   -0.000004    0.000015    0.000000   -0.000000    0.000000
 15    2.373779   -0.009140   -1.112236   -0.016058    0.191323   -0.080157
 16    1.011063   -0.000015    0.000008    0.000000   -0.000000    0.000000
 17    1.011047    0.000000   -0.000008    0.000000   -0.000000    0.000000
 18    2.348587    0.010071   -0.214912   -0.000796   -0.000021   -0.026180
 19    1.179550    0.000015   -0.000008    0.000000   -0.000000    0.000000
 20    1.179550   -0.000015    0.000008    0.000000   -0.000000    0.000000
 21    2.433128    0.016998    0.536484   -0.000816   -0.218166    0.000177
 22    1.011040    0.000015    0.000004    0.000000   -0.000000    0.000000
 23    1.011055    0.000000    0.000000    0.000000   -0.000000    0.000000
 24    2.370201    0.027451    1.328766   -0.000868   -0.410152    0.000346
 25    0.842545   -0.000015   -0.000002    0.000000   -0.000000    0.000000
 26    0.842529    0.000015    0.000002    0.000000   -0.000000    0.000000
 27    0.395313   -0.277107   -1.075722    1.004499    1.099170   -1.410768
 28    4.381180    0.000000    0.000000   -0.237339   -0.524520    0.229490
 29   10.110474   -0.000002   -0.000004    0.000000   -0.000000   -1.174357
 30   10.110474    0.000000    0.000006    1.677674    0.011282   -0.029678
 31    0.550636    0.001228    1.514542   -1.942638   -0.546231    0.657312
 32    0.842556    0.000015    0.000000    0.000000   -0.000000    0.000000
 33    0.842533   -0.000015    0.000002    0.000000   -0.000000    0.000000
 34    2.532188    0.000626    0.905304    0.000796    0.000000    0.000000
 35    1.011040    0.000000   -0.000015    0.000000   -0.000000    0.000000
 36    1.011055    0.000000    0.000000    0.000000   -0.000000    0.000000
 37    2.530487    0.002541    0.129791    0.000794   -0.000062    0.078540
 38    1.179550    0.000008    0.000000    0.000000   -0.000000    0.000000
 39    1.179558   -0.000004    0.000000    0.000000   -0.000000    0.000000
 40    2.529480    0.003883   -0.604218    0.000710   -0.000362    0.471239
 41    1.011047    0.000000   -0.000015    0.000000   -0.000000    0.000000
 42    1.011047    0.000008    0.000031    0.000000   -0.000000    0.000000
 43    2.273987    0.004585   -1.283890    0.000799    0.087266    0.000070
 44    0.842537   -0.000004    0.000015    0.000000   -0.000000    0.000000
 45    0.842545    0.000000   -0.000008    0.000000   -0.000000    0.000000
 46   -3.014015    0.973270    4.067169    2.967634   -0.520039    1.557705
 47   16.850807   -0.000008   -0.000015    0.000000    0.000000   -1.998718
 48   16.850784    0.000000    0.000015   -0.422047    0.327053    0.621629
 49    3.875687    4.886719   -1.600826    0.000000    0.000000    1.570796
 50    0.505524    0.000002   -0.000004    0.000000   -0.000000    0.000000
 51    0.505524    0.000000    0.000004    0.000000   -0.000000    0.000000
 52    3.875685    4.886734   -0.800415    0.000000    0.000000    1.570796
 53    0.539246    0.000000    0.000000    0.000000   -0.000000    0.000000
 54    0.539215    0.000002    0.000000    0.000000   -0.000000    0.000000
 55    3.875685    4.886719    0.000004    0.000000    0.000000    1.570796
 56    0.572937    0.000002   -0.000004    0.000000   -0.000000    0.000000
 57    0.572937    0.000000    0.000000    0.000000   -0.000000    0.000000
 58    3.875687    4.886719    0.800415    0.000000    0.000000    1.570796
 59    0.606628    0.000002   -0.000008    0.000000   -0.000000    0.000000
 60    0.606613    0.000000    0.000008    0.000000   -0.000000    0.000000
 61    3.875685    4.886719    1.600826    0.000000    0.000000    1.570796
 62    0.640366    0.000002   -0.000004    0.000000   -0.000000    0.000000
 63    0.640320   -0.000002    0.000000    0.000000   -0.000000    0.000000
 64   -3.515175    2.857777   -2.384918   -3.081725   -0.341142    1.485574
 65   16.850800    0.000000    0.000000    0.000000   -0.000000   -1.889489
 66   16.850800    0.000000   -0.000008    0.393482   -0.279378    0.603959
 67    3.875679    4.886726    1.600830    0.000000   -0.000000    1.570796
 68    0.505531    0.000000   -0.000015    0.000000   -0.000000    0.000000
 69    0.505524    0.000000    0.000015    0.000000   -0.000000    0.000000
 70    3.875687    4.886734    0.800430    0.000000   -0.000000    1.570796
 71    0.539230    0.000004   -0.000015    0.000000   -0.000000    0.000000
 72    0.539223    0.000004    0.000000    0.000000   -0.000000    0.000000
 73    3.875687    4.886734    0.000015    0.000000   -0.000000    1.570796
 74    0.572922    0.000000    0.000000    0.000000   -0.000000    0.000000
 75    0.572922    0.000000    0.000000    0.000000   -0.000000    0.000000
 76    3.875687    4.886726   -0.800400    0.000000   -0.000000    1.570796
 77    0.606636    0.000000    0.000000    0.000000   -0.000000    0.000000
 78    0.606636    0.000004    0.000000    0.000000   -0.000000    0.000000
 79    3.875683    4.886734   -1.600815    0.000000   -0.000000    1.570796
 80    0.640327    0.000004    0.000000    0.000000   -0.000000    0.000000
 81    0.640320   -0.000004    0.000015    0.000000   -0.000000    0.000000
time 10
  0    0.766757 -168.085892   25.594439   -0.000000    0.002788   -2.505817
  1    0.000000    0.000000    0.000000   -0.000003   -1.552200   -1.570796
  2    3.876600   -0.002960    0.073013   -0.267532   -0.095907    0.519511
  3    4.381195   -0.003487    0.000000    0.000000   -0.000000    0.000000
  4    4.381584   -0.003464    0.000153   -0.049983   -0.024310    0.109164
  5    4.381592   -0.003464    0.000168   -0.049983   -0.024310    0.109163
  6    4.379845   -0.001413   -0.000458    0.240423    0.293467   -0.693790
  7    2.527622   -0.000008    0.000000    0.230085   -0.085740    0.568873
  8   -0.341213    0.270874    1.096664   -0.219704   -1.337849   -2.183654
  9    4.381203    0.000008    0.000000   -0.058046    0.076151   -0.527650
 10   12.536987    0.000002    0.000000    0.000000   -0.000000   -0.876686
 11   11.424843    0.000000    0.000000   -1.738986   -0.014292   -0.053689
 12    0.869400    0.016647   -1.477264    1.438843    0.802124    0.297008
 13    0.842541   -0.000004    0.000000    0.000000   -0.000000    0.000000
 14    0.842539    0.000004    0.000015    0.000000   -0.000000    0.000000
 15    2.373787   -0.009140   -1.112228   -0.016058    0.191323   -0.080157
 16    1.011040   -0.000015   -0.000008    0.000000   -0.000000    0.000000
 17    1.011055    0.000015    0.000000    0.000000   -0.000000    0.000000
 18    2.348579    0.010071   -0.214912   -0.000796   -0.000021   -0.026180
 19    1.179565    0.000000    0.000000    0.000000   -0.000000    0.000000
 20    1.179558    0.000000    0.000000    0.000000   -0.000000    0.000000
 21    2.433136    0.017014    0.536491   -0.000816   -0.218166    0.000177
 22    1.011040    0.000015    0.000000    0.000000   -0.000000    0.000000
 23    1.011055   -0.000031    0.000004    0.000000   -0.000000    0.000000
 24    2.370201    0.027451    1.328773   -0.000868   -0.410152    0.000346
 25    0.842552    0.000015    0.000000    0.000000   -0.000000    0.000000
 26    0.842545    0.000000    0.000004    0.000000   -0.000000    0.000000
 27    0.341213   -0.266846   -1.096664    0.967272    1.114434   -1.509892
 28    4.381210    0.000002    0.000000   -0.226170   -0.470352    0.185264
 29   10.110458   -0.000002    0.000004   -0.000000   -0.000000   -1.183964
 30   10.110481    0.000000   -0.000006    1.673812    0.011096   -0.029026
 31    0.550644    0.001225    1.514496   -1.942638   -0.546231    0.657312
 32    0.842529    0.000031   -0.000004    0.000000   -0.000000    0.000000
 33    0.842548   -0.000031    0.000000    0.000000   -0.000000    0.000000
 34    2.532181    0.000618    0.905258    0.000796   -0.000000   -0.000000
 35    1.011047   -0.000004    0.000015    0.000000   -0.000000    0.000000
 36    1.011047    0.000008   -0.000015    0.000000   -0.000000    0.000000
 37    2.530487    0.002537    0.129761    0.000794   -0.000063    0.078540
 38    1.179565   -0.000008   -0.000015    0.000000   -0.000000    0.000000
 39    1.179550    0.000000    0.000015    0.000000   -0.000000    0.000000
 40    2.529480    0.003887   -0.604248    0.000710   -0.000362    0.471239
 41    1.011051   -0.000008   -0.000015    0.000000   -0.000000    0.000000
 42    1.011044    0.000000    0.000015    0.000000   -0.000000    0.000000
 43    2.273987    0.004578   -1.283920    0.000799    0.087266    0.000070
 44    0.842545    0.000000    0.000015    0.000000   -0.000000    0.000000
 45    0.842545    0.000000   -0.000015    0.000000   -0.000000    0.000000
 46   -3.032478    0.905830    3.985352   -0.270626   -2.644756   -1.432946
 47   16.850807    0.000015    0.000000    0.000000   -0.000000   -1.917040
 48   16.850815   -0.000004    0.000000   -0.452922    0.345289    0.608526
 49    3.875683    4.886719   -1.600822   -0.000000   -0.000000    1.570796
 50    0.505539   -0.000002    0.000000    0.000000   -0.000000    0.000000
 51    0.505524    0.000000    0.000000    0.000000   -0.000000    0.000000
 52    3.875679    4.886734   -0.800415   -0.000000   -0.000000    1.570796
 53    0.539230    0.000000    0.000000    0.000000   -0.000000    0.000000
 54    0.539215   -0.000002    0.000004    0.000000   -0.000000    0.000000
 55    3.875681    4.886734    0.000000   -0.000000   -0.000000    1.570796
 56    0.572937    0.000002    0.000004    0.000000   -0.000000    0.000000
 57    0.572922    0.000000   -0.000004    0.000000   -0.000000    0.000000
 58    3.875681    4.886703    0.800415   -0.000000   -0.000000    1.570796
 59    0.606644    0.000000    0.000004    0.000000   -0.000000    0.000000
 60    0.606628    0.000000    0.000000    0.000000   -0.000000    0.000000
 61    3.875683    4.886703    1.600830   -0.000000   -0.000000    1.570796
 62    0.640350    0.000000    0.000000    0.000000   -0.000000    0.000000
 63    0.640320    0.000000    0.000000    0.000000   -0.000000    0.000000
 64   -3.677933    2.679447   -2.485336   -0.002173   -2.831741   -1.534023
 65   16.850807    0.000008    0.000008    0.000000    0.000000   -1.794639
 66   16.850800   -0.000008   -0.000008    0.350684   -0.240692    0.592465
 67    3.875687    4.886730    1.600815    0.000000    0.000000    1.570796
 68    0.505524    0.000000    0.000000    0.000000   -0.000000    0.000000
 69    0.505524    0.000000    0.000000    0.000000   -0.000000    0.000000
 70    3.875687    4.886730    0.800400    0.000000    0.000000    1.570796
 71    0.539223    0.000000    0.000000    0.000000   -0.000000    0.000000
 72    0.539238    0.000004    0.000000    0.000000   -0.000000    0.000000
 73    3.875683    4.886738    0.000000    0.000000    0.000000    1.570796
 74    0.572929    0.000000   -0.000031    0.000000   -0.000000    0.000000
 75    0.572929    0.000000    0.000000    0.000000   -0.000000    0.000000
 76    3.875687    4.886738   -0.800415    0.000000    0.000000    1.570796
 77    0.606628    0.000004    0.000015    0.000000   -0.000000    0.000000
 78    0.606628   -0.000004   -0.000015    0.000000   -0.000000    0.000000
 79    3.875690    4.886730   -1.600830    0.000000    0.000000    1.570796
 80    0.640343    0.000004    0.000015    0.000000   -0.000000    0.000000
 81    0.640327   -0.000004   -0.000015    0.000000   -0.000000    0.000000
end
