version 1
nodes
  0 "Bip01"  -1
  1 "Bip01 Footsteps"   0
  2 "Bip01 Pelvis"   0
  3 "Bip01 Spine"   2
  4 "Bip01 Neck"   3
  5 "Bip01 Head"   4
  6 "Dummy13"   5
  7 "Bip01 L Clavicle"   4
  8 "Bip01 L UpperArm"   7
  9 "Bip01 L Forearm"   8
 10 "Bip01 L Hand"   9
 11 "Bip01 L Finger0"  10
 12 "Bip01 L Finger01"  11
 13 "Bip01 L Finger02"  12
 14 "Dummy06"  13
 15 "Bip01 L Finger1"  10
 16 "Bip01 L Finger11"  15
 17 "Bip01 L Finger12"  16
 18 "Dummy07"  17
 19 "Bip01 L Finger2"  10
 20 "Bip01 L Finger21"  19
 21 "Bip01 L Finger22"  20
 22 "Dummy08"  21
 23 "Bip01 L Finger3"  10
 24 "Bip01 L Finger31"  23
 25 "Bip01 L Finger32"  24
 26 "Dummy09"  25
 27 "Bip01 L Finger4"  10
 28 "Bip01 L Finger41"  27
 29 "Bip01 L Finger42"  28
 30 "Dummy10"  29
 31 "Bip01 R Clavicle"   4
 32 "Bip01 R UpperArm"  31
 33 "Bip01 R Forearm"  32
 34 "Bip01 R Hand"  33
 35 "Bip01 R Finger0"  34
 36 "Bip01 R Finger01"  35
 37 "Bip01 R Finger02"  36
 38 "Dummy01"  37
 39 "Bip01 R Finger1"  34
 40 "Bip01 R Finger11"  39
 41 "Bip01 R Finger12"  40
 42 "Dummy02"  41
 43 "Bip01 R Finger2"  34
 44 "Bip01 R Finger21"  43
 45 "Bip01 R Finger22"  44
 46 "Dummy03"  45
 47 "Bip01 R Finger3"  34
 48 "Bip01 R Finger31"  47
 49 "Bip01 R Finger32"  48
 50 "Dummy04"  49
 51 "Bip01 R Finger4"  34
 52 "Bip01 R Finger41"  51
 53 "Bip01 R Finger42"  52
 54 "Dummy05"  53
 55 "Bip01 L Thigh"   3
 56 "Bip01 L Calf"  55
 57 "Bip01 L Foot"  56
 58 "Bip01 L Toe0"  57
 59 "Dummy12"  58
 60 "Bip01 R Thigh"   3
 61 "Bip01 R Calf"  60
 62 "Bip01 R Foot"  61
 63 "Bip01 R Toe0"  62
 64 "Dummy11"  63
 65 "v_hand"   2
end
skeleton
time 0
  0 0.134138 -5.181461 43.181469 0.000000 0.000000 -1.570795
  1 0.000000 0.000000 -42.890667 0.000000 0.000000 1.570795
  2 0.000000 0.000000 0.000000 -1.570795 -1.570451 0.000000
  3 4.443615 -0.009642 0.000006 -0.000004 -0.000001 0.000796
  4 12.111414 -0.011445 -0.000000 0.000000 0.000000 0.000000
  5 14.374118 0.000000 -0.000000 -0.000000 0.000000 -0.000798
  6 9.660028 0.000000 -0.000000 0.000000 0.000000 0.000000
  7 0.000007 0.011442 1.352403 -0.000014 -1.370796 3.140810
  8 6.078088 -0.000000 -0.000000 -0.183946 1.264601 -0.174454
  9 13.446755 0.000000 -0.000000 -0.000000 0.000000 -0.069100
 10 15.996998 -0.000001 -0.000001 -1.683446 -0.000000 0.000000
 11 1.885327 0.833277 -2.177875 -1.598016 0.698132 -0.000668
 12 1.506963 0.000001 0.000000 -0.000000 0.000000 -0.139626
 13 0.798351 -0.000001 0.000001 -0.000000 -0.000000 -0.113446
 14 1.468323 0.000000 -0.000000 0.000000 0.000000 0.000000
 15 3.950302 -0.539875 -2.108870 -0.000806 0.157080 -0.000126
 16 1.545799 0.000000 0.000002 -0.000000 0.000000 0.471239
 17 1.667396 -0.000000 -0.000000 0.000000 -0.000000 0.436332
 18 1.530149 0.000000 -0.000001 0.000000 0.000000 0.000000
 19 3.899459 -0.475376 -1.170890 -0.000796 -0.000000 0.000000
 20 1.528216 -0.000000 -0.000000 0.000000 -0.000000 0.331613
 21 1.528215 -0.000000 -0.000001 0.000000 0.000000 0.479966
 22 1.940835 0.000000 0.000001 0.000000 0.000000 0.000000
 23 3.899459 -0.431804 0.168227 -0.000796 -0.000000 0.000000
 24 1.506963 -0.000000 -0.000000 -0.000000 -0.000000 0.427606
 25 1.506963 -0.000000 -0.000000 0.000000 0.000000 0.340339
 26 1.506965 -0.000000 -0.000001 0.000000 0.000000 0.000000
 27 3.915633 -0.278019 1.402611 -0.000796 -0.000000 0.000000
 28 1.333086 -0.000000 0.000000 0.000000 0.000000 0.637045
 29 1.159202 -0.000000 0.000000 0.000000 -0.000000 0.218166
 30 1.341584 0.000000 -0.000000 0.000000 0.000000 0.000000
 31 0.000007 0.011450 -1.352403 -0.000014 1.370796 3.140783
 32 6.078088 -0.000000 0.000001 0.662667 -0.895991 -0.776378
 33 13.446751 0.000000 0.000001 0.000000 0.000000 -1.296177
 34 15.996998 0.000000 -0.000001 2.023426 -0.208589 -0.028111
 35 1.885327 0.833277 2.177877 1.264229 -0.638131 0.530106
 36 1.506965 0.000001 -0.000000 0.000000 0.000000 -0.488692
 37 0.798350 -0.000000 -0.000000 0.000000 -0.000000 -0.986111
 38 1.468324 0.000001 -0.000000 0.000000 0.000000 3.141593
 39 3.950305 -0.539876 2.108871 -0.037816 0.038147 -0.197091
 40 1.545796 0.000000 -0.000004 -0.000000 0.000000 1.396263
 41 1.667397 -0.000001 0.000002 -0.000000 0.000000 1.466077
 42 1.530149 0.000000 0.000003 0.000000 0.000000 3.141593
 43 3.899459 -0.475376 1.170891 -0.069015 0.069834 -0.026124
 44 1.528217 -0.000000 -0.000000 -0.000000 0.000000 1.047198
 45 1.528216 -0.000002 0.000002 0.000000 -0.000000 1.815142
 46 1.940836 0.000000 0.000001 0.000000 0.000000 3.141593
 47 3.899459 -0.431804 -0.168224 -0.003768 -0.034712 0.130951
 48 1.506966 -0.000001 0.000001 -0.000000 -0.000000 1.082104
 49 1.506964 -0.000001 0.000001 0.000000 -0.000000 1.727876
 50 1.506969 -0.000000 0.000001 0.000000 0.000000 3.141593
 51 3.915632 -0.278019 -1.402609 0.304321 -0.057152 -0.007502
 52 1.333087 -0.000002 -0.000003 -0.000000 -0.000000 1.265364
 53 1.159205 0.000000 0.000005 0.000000 -0.000000 1.527163
 54 1.341588 0.000001 -0.000000 0.000000 0.000000 3.141593
 55 -4.443606 0.013172 3.864010 -0.000003 -3.141592 -0.100796
 56 19.320051 -0.000000 -0.000000 0.000000 0.000000 -0.200000
 57 19.320045 -0.000000 0.000000 0.000000 -0.000000 0.100000
 58 4.443612 5.602815 0.000000 -0.000000 0.000000 1.570796
 59 0.579601 -0.000000 0.000000 0.000000 0.000000 3.141593
 60 -4.443606 0.013193 -3.864010 -0.000003 -3.141592 -0.100796
 61 19.320051 0.000000 -0.000000 0.000000 0.000000 -0.200000
 62 19.320045 0.000000 0.000000 0.000000 -0.000000 0.100000
 63 4.443612 5.602815 0.000000 -0.000000 0.000000 1.570796
 64 0.579601 -0.000000 0.000000 0.000000 0.000000 0.000000
 65 15.505088 21.164101 -7.454382 3.141590 -0.000002 0.000000
time 1
  0 0.134138 -5.181461 43.181469 0.000000 0.000000 -1.570795
  1 0.000000 0.000000 -42.890667 0.000000 0.000000 1.570795
  2 0.000000 0.000000 0.000000 -1.570795 -1.570451 0.000000
  3 4.443615 -0.009642 0.000006 -0.000004 -0.000001 0.000796
  4 12.111414 -0.011445 -0.000000 0.000000 0.000000 0.000000
  5 14.374118 0.000000 -0.000000 -0.000000 0.000000 -0.000798
  6 9.660028 0.000000 -0.000000 0.000000 0.000000 0.000000
  7 0.000007 0.011442 1.352403 -0.000014 -1.370796 3.140810
  8 6.078088 -0.000000 -0.000000 -0.183946 1.264601 -0.174454
  9 13.446755 0.000000 -0.000000 -0.000000 0.000000 -0.069100
 10 15.996998 -0.000001 -0.000001 -1.683446 -0.000000 0.000000
 11 1.885327 0.833277 -2.177875 -1.598016 0.698132 -0.000668
 12 1.506963 0.000001 0.000000 -0.000000 0.000000 -0.139626
 13 0.798351 -0.000001 0.000001 -0.000000 -0.000000 -0.113446
 14 1.468323 0.000000 -0.000000 0.000000 0.000000 0.000000
 15 3.950302 -0.539875 -2.108870 -0.000806 0.157080 -0.000126
 16 1.545799 0.000000 0.000002 -0.000000 0.000000 0.471239
 17 1.667396 -0.000000 -0.000000 0.000000 -0.000000 0.436332
 18 1.530149 0.000000 -0.000001 0.000000 0.000000 0.000000
 19 3.899459 -0.475376 -1.170890 -0.000796 -0.000000 0.000000
 20 1.528216 -0.000000 -0.000000 0.000000 -0.000000 0.331613
 21 1.528215 -0.000000 -0.000001 0.000000 0.000000 0.479966
 22 1.940835 0.000000 0.000001 0.000000 0.000000 0.000000
 23 3.899459 -0.431804 0.168227 -0.000796 -0.000000 0.000000
 24 1.506963 -0.000000 -0.000000 -0.000000 -0.000000 0.427606
 25 1.506963 -0.000000 -0.000000 0.000000 0.000000 0.340339
 26 1.506965 -0.000000 -0.000001 0.000000 0.000000 0.000000
 27 3.915633 -0.278019 1.402611 -0.000796 -0.000000 0.000000
 28 1.333086 -0.000000 0.000000 0.000000 0.000000 0.637045
 29 1.159202 -0.000000 0.000000 0.000000 -0.000000 0.218166
 30 1.341584 0.000000 -0.000000 0.000000 0.000000 0.000000
 31 0.000007 0.011450 -1.352403 -0.000014 1.370796 3.140783
 32 6.078088 -0.000000 0.000001 0.622101 -0.896686 -0.742351
 33 13.446754 0.000001 0.000001 -0.000000 -0.000000 -1.491952
 34 15.996997 -0.000001 -0.000001 2.248158 -0.091941 -0.305155
 35 1.885326 0.833277 2.177878 1.264229 -0.638131 0.530106
 36 1.506961 -0.000000 0.000001 -0.000000 -0.000000 -0.488692
 37 0.798350 0.000004 0.000001 0.000000 0.000000 -0.986111
 38 1.468325 -0.000002 0.000001 0.000000 0.000000 3.141593
 39 3.950303 -0.539875 2.108873 -0.037816 0.038147 -0.197091
 40 1.545797 0.000000 0.000002 0.000000 -0.000000 1.396263
 41 1.667397 0.000001 0.000002 0.000000 0.000000 1.466077
 42 1.530148 0.000000 -0.000003 0.000000 0.000000 3.141593
 43 3.899458 -0.475377 1.170891 -0.069015 0.069834 -0.026124
 44 1.528216 0.000001 0.000001 -0.000000 0.000000 1.047198
 45 1.528214 0.000001 -0.000001 0.000000 -0.000000 1.815142
 46 1.940833 0.000000 -0.000001 0.000000 0.000000 3.141593
 47 3.899457 -0.431803 -0.168225 -0.003768 -0.034712 0.130951
 48 1.506962 0.000000 -0.000003 -0.000000 0.000000 1.082104
 49 1.506964 -0.000001 0.000002 -0.000000 -0.000000 1.727876
 50 1.506964 -0.000001 -0.000001 0.000000 0.000000 3.141593
 51 3.915632 -0.278019 -1.402609 0.304321 -0.057152 -0.007502
 52 1.333086 0.000001 0.000001 -0.000000 0.000000 1.265364
 53 1.159203 -0.000000 0.000000 0.000000 -0.000000 1.527163
 54 1.341586 -0.000000 0.000001 0.000000 0.000000 3.141593
 55 -4.443606 0.013172 3.864010 -0.000003 -3.141592 -0.100796
 56 19.320051 -0.000000 -0.000000 0.000000 0.000000 -0.200000
 57 19.320045 -0.000000 0.000000 0.000000 -0.000000 0.100000
 58 4.443612 5.602815 0.000000 -0.000000 0.000000 1.570796
 59 0.579601 -0.000000 0.000000 0.000000 0.000000 3.141593
 60 -4.443606 0.013193 -3.864010 -0.000003 -3.141592 -0.100796
 61 19.320051 0.000000 -0.000000 0.000000 0.000000 -0.200000
 62 19.320045 0.000000 0.000000 0.000000 -0.000000 0.100000
 63 4.443612 5.602815 0.000000 -0.000000 0.000000 1.570796
 64 0.579601 -0.000000 0.000000 0.000000 0.000000 0.000000
 65 15.505088 21.164101 -7.454382 3.141590 -0.000002 0.000000
time 2
  0 0.134138 -5.181461 43.181469 0.000000 0.000000 -1.570795
  1 0.000000 0.000000 -42.890667 0.000000 0.000000 1.570795
  2 0.000000 0.000000 0.000000 -1.570795 -1.570451 0.000000
  3 4.443615 -0.009642 0.000006 -0.000004 -0.000001 0.000796
  4 12.111414 -0.011445 -0.000000 0.000000 0.000000 0.000000
  5 14.374118 0.000000 -0.000000 -0.000000 0.000000 -0.000798
  6 9.660028 0.000000 -0.000000 0.000000 0.000000 0.000000
  7 0.000007 0.011442 1.352403 -0.000014 -1.370796 3.140810
  8 6.078088 -0.000000 -0.000000 -0.183946 1.264601 -0.174454
  9 13.446755 0.000000 -0.000000 -0.000000 0.000000 -0.069100
 10 15.996998 -0.000001 -0.000001 -1.683446 -0.000000 0.000000
 11 1.885327 0.833277 -2.177875 -1.598016 0.698132 -0.000668
 12 1.506963 0.000001 0.000000 -0.000000 0.000000 -0.139626
 13 0.798351 -0.000001 0.000001 -0.000000 -0.000000 -0.113446
 14 1.468323 0.000000 -0.000000 0.000000 0.000000 0.000000
 15 3.950302 -0.539875 -2.108870 -0.000806 0.157080 -0.000126
 16 1.545799 0.000000 0.000002 -0.000000 0.000000 0.471239
 17 1.667396 -0.000000 -0.000000 0.000000 -0.000000 0.436332
 18 1.530149 0.000000 -0.000001 0.000000 0.000000 0.000000
 19 3.899459 -0.475376 -1.170890 -0.000796 -0.000000 0.000000
 20 1.528216 -0.000000 -0.000000 0.000000 -0.000000 0.331613
 21 1.528215 -0.000000 -0.000001 0.000000 0.000000 0.479966
 22 1.940835 0.000000 0.000001 0.000000 0.000000 0.000000
 23 3.899459 -0.431804 0.168227 -0.000796 -0.000000 0.000000
 24 1.506963 -0.000000 -0.000000 -0.000000 -0.000000 0.427606
 25 1.506963 -0.000000 -0.000000 0.000000 0.000000 0.340339
 26 1.506965 -0.000000 -0.000001 0.000000 0.000000 0.000000
 27 3.915633 -0.278019 1.402611 -0.000796 -0.000000 0.000000
 28 1.333086 -0.000000 0.000000 0.000000 0.000000 0.637045
 29 1.159202 -0.000000 0.000000 0.000000 -0.000000 0.218166
 30 1.341584 0.000000 -0.000000 0.000000 0.000000 0.000000
 31 0.000007 0.011450 -1.352403 -0.000014 1.370796 3.140783
 32 6.078088 -0.000000 0.000001 0.662668 -0.895991 -0.776378
 33 13.446751 0.000000 -0.000001 -0.000000 0.000000 -1.557977
 34 15.997000 -0.000001 -0.000001 2.364991 0.013335 -0.484419
 35 1.885326 0.833277 2.177875 1.264229 -0.638131 0.530106
 36 1.506966 0.000001 -0.000002 -0.000000 -0.000000 -0.488692
 37 0.798350 -0.000002 -0.000000 0.000000 -0.000000 -0.986111
 38 1.468323 0.000002 -0.000001 0.000000 0.000000 3.141593
 39 3.950304 -0.539875 2.108872 -0.037816 0.038147 -0.197091
 40 1.545796 -0.000000 -0.000001 -0.000000 0.000000 1.396263
 41 1.667398 0.000001 -0.000000 -0.000000 -0.000000 1.466077
 42 1.530146 -0.000001 0.000000 0.000000 0.000000 3.141593
 43 3.899458 -0.475376 1.170889 -0.069015 0.069834 -0.026124
 44 1.528216 0.000001 0.000002 -0.000000 0.000000 1.047198
 45 1.528213 0.000002 -0.000003 0.000000 -0.000000 1.815142
 46 1.940831 -0.000001 0.000002 0.000000 0.000000 3.141593
 47 3.899459 -0.431803 -0.168225 -0.003768 -0.034712 0.130951
 48 1.506962 0.000001 -0.000001 -0.000000 0.000000 1.082104
 49 1.506965 -0.000001 0.000002 -0.000000 -0.000000 1.727876
 50 1.506964 0.000000 -0.000001 0.000000 0.000000 3.141593
 51 3.915634 -0.278019 -1.402609 0.304321 -0.057152 -0.007502
 52 1.333080 0.000000 -0.000000 0.000000 -0.000000 1.265364
 53 1.159203 -0.000000 0.000000 0.000000 0.000000 1.527163
 54 1.341584 -0.000000 -0.000000 0.000000 0.000000 3.141593
 55 -4.443606 0.013172 3.864010 -0.000003 -3.141592 -0.100796
 56 19.320051 -0.000000 -0.000000 0.000000 0.000000 -0.200000
 57 19.320045 -0.000000 0.000000 0.000000 -0.000000 0.100000
 58 4.443612 5.602815 0.000000 -0.000000 0.000000 1.570796
 59 0.579601 -0.000000 0.000000 0.000000 0.000000 3.141593
 60 -4.443606 0.013193 -3.864010 -0.000003 -3.141592 -0.100796
 61 19.320051 0.000000 -0.000000 0.000000 0.000000 -0.200000
 62 19.320045 0.000000 0.000000 0.000000 -0.000000 0.100000
 63 4.443612 5.602815 0.000000 -0.000000 0.000000 1.570796
 64 0.579601 -0.000000 0.000000 0.000000 0.000000 0.000000
 65 15.505088 21.164101 -7.454382 3.141590 -0.000002 0.000000
time 3
  0 0.134138 -5.181461 43.181469 0.000000 0.000000 -1.570795
  1 0.000000 0.000000 -42.890667 0.000000 0.000000 1.570795
  2 0.000000 0.000000 0.000000 -1.570795 -1.570451 0.000000
  3 4.443615 -0.009642 0.000006 -0.000004 -0.000001 0.000796
  4 12.111414 -0.011445 -0.000000 0.000000 0.000000 0.000000
  5 14.374118 0.000000 -0.000000 -0.000000 0.000000 -0.000798
  6 9.660028 0.000000 -0.000000 0.000000 0.000000 0.000000
  7 0.000007 0.011442 1.352403 -0.000014 -1.370796 3.140810
  8 6.078088 -0.000000 -0.000000 -0.183946 1.264601 -0.174454
  9 13.446755 0.000000 -0.000000 -0.000000 0.000000 -0.069100
 10 15.996998 -0.000001 -0.000001 -1.683446 -0.000000 0.000000
 11 1.885327 0.833277 -2.177875 -1.598016 0.698132 -0.000668
 12 1.506963 0.000001 0.000000 -0.000000 0.000000 -0.139626
 13 0.798351 -0.000001 0.000001 -0.000000 -0.000000 -0.113446
 14 1.468323 0.000000 -0.000000 0.000000 0.000000 0.000000
 15 3.950302 -0.539875 -2.108870 -0.000806 0.157080 -0.000126
 16 1.545799 0.000000 0.000002 -0.000000 0.000000 0.471239
 17 1.667396 -0.000000 -0.000000 0.000000 -0.000000 0.436332
 18 1.530149 0.000000 -0.000001 0.000000 0.000000 0.000000
 19 3.899459 -0.475376 -1.170890 -0.000796 -0.000000 0.000000
 20 1.528216 -0.000000 -0.000000 0.000000 -0.000000 0.331613
 21 1.528215 -0.000000 -0.000001 0.000000 0.000000 0.479966
 22 1.940835 0.000000 0.000001 0.000000 0.000000 0.000000
 23 3.899459 -0.431804 0.168227 -0.000796 -0.000000 0.000000
 24 1.506963 -0.000000 -0.000000 -0.000000 -0.000000 0.427606
 25 1.506963 -0.000000 -0.000000 0.000000 0.000000 0.340339
 26 1.506965 -0.000000 -0.000001 0.000000 0.000000 0.000000
 27 3.915633 -0.278019 1.402611 -0.000796 -0.000000 0.000000
 28 1.333086 -0.000000 0.000000 0.000000 0.000000 0.637045
 29 1.159202 -0.000000 0.000000 0.000000 -0.000000 0.218166
 30 1.341584 0.000000 -0.000000 0.000000 0.000000 0.000000
 31 0.000007 0.011450 -1.352403 -0.000014 1.370796 3.140783
 32 6.078088 -0.000000 0.000001 0.990860 -0.879376 -1.036406
 33 13.446754 0.000002 0.000001 -0.000000 -0.000000 -1.217074
 34 15.997000 -0.000001 -0.000000 2.237171 -0.040285 -0.464239
 35 1.885328 0.833278 2.177877 1.264229 -0.638131 0.530106
 36 1.506960 0.000002 -0.000001 0.000000 0.000000 -0.488692
 37 0.798349 -0.000002 0.000002 0.000000 -0.000000 -0.986111
 38 1.468324 0.000002 -0.000000 0.000000 0.000000 3.141593
 39 3.950304 -0.539876 2.108870 -0.037816 0.038147 -0.197091
 40 1.545795 -0.000001 -0.000000 -0.000000 0.000000 1.396263
 41 1.667400 -0.000002 0.000002 -0.000000 0.000000 1.466077
 42 1.530150 0.000000 -0.000000 0.000000 0.000000 3.141593
 43 3.899462 -0.475376 1.170891 -0.069015 0.069834 -0.026124
 44 1.528216 -0.000000 0.000000 0.000000 0.000000 1.047198
 45 1.528216 -0.000003 0.000000 -0.000000 0.000000 1.815142
 46 1.940837 0.000000 0.000000 0.000000 0.000000 3.141593
 47 3.899461 -0.431803 -0.168225 -0.003768 -0.034712 0.130951
 48 1.506966 -0.000001 -0.000001 -0.000000 -0.000000 1.082104
 49 1.506964 0.000001 0.000002 0.000000 -0.000000 1.727876
 50 1.506963 -0.000001 0.000001 0.000000 0.000000 3.141593
 51 3.915635 -0.278019 -1.402611 0.304321 -0.057152 -0.007502
 52 1.333085 0.000000 -0.000000 -0.000000 0.000000 1.265364
 53 1.159203 0.000002 -0.000000 -0.000000 -0.000000 1.527163
 54 1.341584 0.000001 -0.000000 0.000000 0.000000 3.141593
 55 -4.443606 0.013172 3.864010 -0.000003 -3.141592 -0.100796
 56 19.320051 -0.000000 -0.000000 0.000000 0.000000 -0.200000
 57 19.320045 -0.000000 0.000000 0.000000 -0.000000 0.100000
 58 4.443612 5.602815 0.000000 -0.000000 0.000000 1.570796
 59 0.579601 -0.000000 0.000000 0.000000 0.000000 3.141593
 60 -4.443606 0.013193 -3.864010 -0.000003 -3.141592 -0.100796
 61 19.320051 0.000000 -0.000000 0.000000 0.000000 -0.200000
 62 19.320045 0.000000 0.000000 0.000000 -0.000000 0.100000
 63 4.443612 5.602815 0.000000 -0.000000 0.000000 1.570796
 64 0.579601 -0.000000 0.000000 0.000000 0.000000 0.000000
 65 15.505088 21.164101 -7.454382 3.141590 -0.000002 0.000000
time 4
  0 0.134138 -5.181461 43.181469 0.000000 0.000000 -1.570795
  1 0.000000 0.000000 -42.890667 0.000000 0.000000 1.570795
  2 0.000000 0.000000 0.000000 -1.570795 -1.570451 0.000000
  3 4.443615 -0.009642 0.000006 -0.000004 -0.000001 0.000796
  4 12.111414 -0.011445 -0.000000 0.000000 0.000000 0.000000
  5 14.374118 0.000000 -0.000000 -0.000000 0.000000 -0.000798
  6 9.660028 0.000000 -0.000000 0.000000 0.000000 0.000000
  7 0.000007 0.011442 1.352403 -0.000014 -1.370796 3.140810
  8 6.078088 -0.000000 -0.000000 -0.183946 1.264601 -0.174454
  9 13.446755 0.000000 -0.000000 -0.000000 0.000000 -0.069100
 10 15.996998 -0.000001 -0.000001 -1.683446 -0.000000 0.000000
 11 1.885327 0.833277 -2.177875 -1.598016 0.698132 -0.000668
 12 1.506963 0.000001 0.000000 -0.000000 0.000000 -0.139626
 13 0.798351 -0.000001 0.000001 -0.000000 -0.000000 -0.113446
 14 1.468323 0.000000 -0.000000 0.000000 0.000000 0.000000
 15 3.950302 -0.539875 -2.108870 -0.000806 0.157080 -0.000126
 16 1.545799 0.000000 0.000002 -0.000000 0.000000 0.471239
 17 1.667396 -0.000000 -0.000000 0.000000 -0.000000 0.436332
 18 1.530149 0.000000 -0.000001 0.000000 0.000000 0.000000
 19 3.899459 -0.475376 -1.170890 -0.000796 -0.000000 0.000000
 20 1.528216 -0.000000 -0.000000 0.000000 -0.000000 0.331613
 21 1.528215 -0.000000 -0.000001 0.000000 0.000000 0.479966
 22 1.940835 0.000000 0.000001 0.000000 0.000000 0.000000
 23 3.899459 -0.431804 0.168227 -0.000796 -0.000000 0.000000
 24 1.506963 -0.000000 -0.000000 -0.000000 -0.000000 0.427606
 25 1.506963 -0.000000 -0.000000 0.000000 0.000000 0.340339
 26 1.506965 -0.000000 -0.000001 0.000000 0.000000 0.000000
 27 3.915633 -0.278019 1.402611 -0.000796 -0.000000 0.000000
 28 1.333086 -0.000000 0.000000 0.000000 0.000000 0.637045
 29 1.159202 -0.000000 0.000000 0.000000 -0.000000 0.218166
 30 1.341584 0.000000 -0.000000 0.000000 0.000000 0.000000
 31 0.000007 0.011450 -1.352403 -0.000014 1.370796 3.140783
 32 6.078088 -0.000000 0.000001 1.248184 -0.778069 -1.255552
 33 13.446754 0.000003 0.000000 -0.000000 0.000000 -0.781785
 34 15.997001 -0.000001 0.000000 2.075494 -0.172629 -0.329707
 35 1.885327 0.833277 2.177873 1.264229 -0.638131 0.530106
 36 1.506964 -0.000001 0.000000 0.000000 0.000000 -0.488692
 37 0.798349 0.000000 0.000001 0.000000 -0.000000 -0.986111
 38 1.468324 0.000001 0.000001 0.000000 0.000000 3.141593
 39 3.950307 -0.539876 2.108870 -0.037816 0.038147 -0.197091
 40 1.545799 -0.000000 0.000000 0.000000 0.000000 1.396263
 41 1.667396 0.000003 0.000001 -0.000000 0.000000 1.466077
 42 1.530146 -0.000002 0.000001 0.000000 0.000000 3.141593
 43 3.899462 -0.475377 1.170887 -0.069015 0.069834 -0.026124
 44 1.528216 -0.000001 0.000001 -0.000000 0.000000 1.047198
 45 1.528217 -0.000003 0.000002 0.000000 0.000000 1.815142
 46 1.940836 0.000000 -0.000002 0.000000 0.000000 3.141593
 47 3.899460 -0.431803 -0.168226 -0.003768 -0.034712 0.130951
 48 1.506964 -0.000001 -0.000002 0.000000 0.000000 1.082104
 49 1.506966 0.000000 0.000002 -0.000000 0.000000 1.727876
 50 1.506966 0.000001 -0.000002 0.000000 0.000000 3.141593
 51 3.915634 -0.278019 -1.402611 0.304321 -0.057152 -0.007502
 52 1.333084 0.000002 0.000003 0.000000 -0.000000 1.265364
 53 1.159202 -0.000000 -0.000002 0.000000 0.000000 1.527163
 54 1.341582 -0.000001 0.000002 0.000000 0.000000 3.141593
 55 -4.443606 0.013172 3.864010 -0.000003 -3.141592 -0.100796
 56 19.320051 -0.000000 -0.000000 0.000000 0.000000 -0.200000
 57 19.320045 -0.000000 0.000000 0.000000 -0.000000 0.100000
 58 4.443612 5.602815 0.000000 -0.000000 0.000000 1.570796
 59 0.579601 -0.000000 0.000000 0.000000 0.000000 3.141593
 60 -4.443606 0.013193 -3.864010 -0.000003 -3.141592 -0.100796
 61 19.320051 0.000000 -0.000000 0.000000 0.000000 -0.200000
 62 19.320045 0.000000 0.000000 0.000000 -0.000000 0.100000
 63 4.443612 5.602815 0.000000 -0.000000 0.000000 1.570796
 64 0.579601 -0.000000 0.000000 0.000000 0.000000 0.000000
 65 15.505088 21.164101 -7.454382 3.141590 -0.000002 0.000000
time 5
  0 0.134138 -5.181461 43.181469 0.000000 0.000000 -1.570795
  1 0.000000 0.000000 -42.890667 0.000000 0.000000 1.570795
  2 0.000000 0.000000 0.000000 -1.570795 -1.570451 0.000000
  3 4.443615 -0.009642 0.000006 -0.000004 -0.000001 0.000796
  4 12.111414 -0.011445 -0.000000 0.000000 0.000000 0.000000
  5 14.374118 0.000000 -0.000000 -0.000000 0.000000 -0.000798
  6 9.660028 0.000000 -0.000000 0.000000 0.000000 0.000000
  7 0.000007 0.011442 1.352403 -0.000014 -1.370796 3.140810
  8 6.078088 -0.000000 -0.000000 -0.183946 1.264601 -0.174454
  9 13.446755 0.000000 -0.000000 -0.000000 0.000000 -0.069100
 10 15.996998 -0.000001 -0.000001 -1.683446 -0.000000 0.000000
 11 1.885327 0.833277 -2.177875 -1.598016 0.698132 -0.000668
 12 1.506963 0.000001 0.000000 -0.000000 0.000000 -0.139626
 13 0.798351 -0.000001 0.000001 -0.000000 -0.000000 -0.113446
 14 1.468323 0.000000 -0.000000 0.000000 0.000000 0.000000
 15 3.950302 -0.539875 -2.108870 -0.000806 0.157080 -0.000126
 16 1.545799 0.000000 0.000002 -0.000000 0.000000 0.471239
 17 1.667396 -0.000000 -0.000000 0.000000 -0.000000 0.436332
 18 1.530149 0.000000 -0.000001 0.000000 0.000000 0.000000
 19 3.899459 -0.475376 -1.170890 -0.000796 -0.000000 0.000000
 20 1.528216 -0.000000 -0.000000 0.000000 -0.000000 0.331613
 21 1.528215 -0.000000 -0.000001 0.000000 0.000000 0.479966
 22 1.940835 0.000000 0.000001 0.000000 0.000000 0.000000
 23 3.899459 -0.431804 0.168227 -0.000796 -0.000000 0.000000
 24 1.506963 -0.000000 -0.000000 -0.000000 -0.000000 0.427606
 25 1.506963 -0.000000 -0.000000 0.000000 0.000000 0.340339
 26 1.506965 -0.000000 -0.000001 0.000000 0.000000 0.000000
 27 3.915633 -0.278019 1.402611 -0.000796 -0.000000 0.000000
 28 1.333086 -0.000000 0.000000 0.000000 0.000000 0.637045
 29 1.159202 -0.000000 0.000000 0.000000 -0.000000 0.218166
 30 1.341584 0.000000 -0.000000 0.000000 0.000000 0.000000
 31 0.000007 0.011450 -1.352403 -0.000014 1.370796 3.140783
 32 6.078088 -0.000000 0.000001 1.112749 -0.600498 -1.248016
 33 13.446754 -0.000001 0.000001 0.000000 -0.000000 -0.467746
 34 15.996999 -0.000003 0.000000 2.079325 -0.388388 -0.158756
 35 1.885326 0.833277 2.177877 1.264229 -0.638131 0.530106
 36 1.506964 0.000001 -0.000002 -0.000000 0.000000 -0.488692
 37 0.798350 0.000001 0.000001 0.000000 0.000000 -0.986111
 38 1.468323 -0.000001 0.000001 0.000000 0.000000 3.141593
 39 3.950303 -0.539876 2.108871 -0.037816 0.038147 -0.197091
 40 1.545797 0.000000 0.000003 -0.000000 0.000000 1.396263
 41 1.667396 0.000002 -0.000002 -0.000000 0.000000 1.466077
 42 1.530147 -0.000000 0.000002 0.000000 0.000000 3.141593
 43 3.899459 -0.475376 1.170892 -0.069015 0.069834 -0.026124
 44 1.528215 -0.000000 -0.000002 -0.000000 -0.000000 1.047198
 45 1.528216 -0.000001 0.000003 -0.000000 -0.000000 1.815142
 46 1.940833 -0.000000 -0.000001 0.000000 0.000000 3.141593
 47 3.899461 -0.431805 -0.168225 -0.003768 -0.034712 0.130951
 48 1.506961 0.000001 -0.000000 0.000000 0.000000 1.082104
 49 1.506965 0.000000 0.000004 0.000000 0.000000 1.727876
 50 1.506963 0.000000 -0.000000 0.000000 0.000000 3.141593
 51 3.915633 -0.278019 -1.402608 0.304321 -0.057152 -0.007502
 52 1.333081 0.000002 0.000001 -0.000000 -0.000000 1.265364
 53 1.159201 0.000001 -0.000000 0.000000 -0.000000 1.527163
 54 1.341582 -0.000000 -0.000001 0.000000 0.000000 3.141593
 55 -4.443606 0.013172 3.864010 -0.000003 -3.141592 -0.100796
 56 19.320051 -0.000000 -0.000000 0.000000 0.000000 -0.200000
 57 19.320045 -0.000000 0.000000 0.000000 -0.000000 0.100000
 58 4.443612 5.602815 0.000000 -0.000000 0.000000 1.570796
 59 0.579601 -0.000000 0.000000 0.000000 0.000000 3.141593
 60 -4.443606 0.013193 -3.864010 -0.000003 -3.141592 -0.100796
 61 19.320051 0.000000 -0.000000 0.000000 0.000000 -0.200000
 62 19.320045 0.000000 0.000000 0.000000 -0.000000 0.100000
 63 4.443612 5.602815 0.000000 -0.000000 0.000000 1.570796
 64 0.579601 -0.000000 0.000000 0.000000 0.000000 0.000000
 65 15.505088 21.164101 -7.454382 3.141590 -0.000002 0.000000
time 6
  0 0.134138 -5.181461 43.181469 0.000000 0.000000 -1.570795
  1 0.000000 0.000000 -42.890667 0.000000 0.000000 1.570795
  2 0.000000 0.000000 0.000000 -1.570795 -1.570451 0.000000
  3 4.443615 -0.009642 0.000006 -0.000004 -0.000001 0.000796
  4 12.111414 -0.011445 -0.000000 0.000000 0.000000 0.000000
  5 14.374118 0.000000 -0.000000 -0.000000 0.000000 -0.000798
  6 9.660028 0.000000 -0.000000 0.000000 0.000000 0.000000
  7 0.000007 0.011442 1.352403 -0.000014 -1.370796 3.140810
  8 6.078088 -0.000000 -0.000000 -0.183946 1.264601 -0.174454
  9 13.446755 0.000000 -0.000000 -0.000000 0.000000 -0.069100
 10 15.996998 -0.000001 -0.000001 -1.683446 -0.000000 0.000000
 11 1.885327 0.833277 -2.177875 -1.598016 0.698132 -0.000668
 12 1.506963 0.000001 0.000000 -0.000000 0.000000 -0.139626
 13 0.798351 -0.000001 0.000001 -0.000000 -0.000000 -0.113446
 14 1.468323 0.000000 -0.000000 0.000000 0.000000 0.000000
 15 3.950302 -0.539875 -2.108870 -0.000806 0.157080 -0.000126
 16 1.545799 0.000000 0.000002 -0.000000 0.000000 0.471239
 17 1.667396 -0.000000 -0.000000 0.000000 -0.000000 0.436332
 18 1.530149 0.000000 -0.000001 0.000000 0.000000 0.000000
 19 3.899459 -0.475376 -1.170890 -0.000796 -0.000000 0.000000
 20 1.528216 -0.000000 -0.000000 0.000000 -0.000000 0.331613
 21 1.528215 -0.000000 -0.000001 0.000000 0.000000 0.479966
 22 1.940835 0.000000 0.000001 0.000000 0.000000 0.000000
 23 3.899459 -0.431804 0.168227 -0.000796 -0.000000 0.000000
 24 1.506963 -0.000000 -0.000000 -0.000000 -0.000000 0.427606
 25 1.506963 -0.000000 -0.000000 0.000000 0.000000 0.340339
 26 1.506965 -0.000000 -0.000001 0.000000 0.000000 0.000000
 27 3.915633 -0.278019 1.402611 -0.000796 -0.000000 0.000000
 28 1.333086 -0.000000 0.000000 0.000000 0.000000 0.637045
 29 1.159202 -0.000000 0.000000 0.000000 -0.000000 0.218166
 30 1.341584 0.000000 -0.000000 0.000000 0.000000 0.000000
 31 0.000007 0.011450 -1.352403 -0.000014 1.370796 3.140783
 32 6.078088 -0.000000 0.000001 0.975654 -0.498045 -1.249254
 33 13.446753 -0.000001 0.000001 0.000000 -0.000000 -0.288494
 34 15.997001 -0.000001 0.000001 2.031463 -0.603217 0.091206
 35 1.885328 0.833276 2.177875 1.264229 -0.638131 0.530106
 36 1.506962 -0.000001 -0.000002 -0.000000 0.000000 -0.488692
 37 0.798352 -0.000002 0.000004 0.000000 -0.000000 -0.986111
 38 1.468322 -0.000002 -0.000002 0.000000 0.000000 3.141593
 39 3.950305 -0.539876 2.108872 -0.037816 0.038147 -0.197091
 40 1.545797 0.000000 -0.000000 -0.000000 -0.000000 1.396263
 41 1.667398 -0.000000 0.000001 -0.000000 -0.000000 1.466077
 42 1.530149 0.000001 -0.000000 0.000000 0.000000 3.141593
 43 3.899459 -0.475377 1.170891 -0.069015 0.069834 -0.026124
 44 1.528215 0.000001 0.000001 -0.000000 -0.000000 1.047198
 45 1.528216 -0.000000 -0.000000 -0.000000 -0.000000 1.815142
 46 1.940834 0.000000 -0.000000 0.000000 0.000000 3.141593
 47 3.899462 -0.431805 -0.168224 -0.003768 -0.034712 0.130951
 48 1.506963 -0.000000 0.000002 -0.000000 0.000000 1.082104
 49 1.506963 -0.000004 -0.000004 0.000000 -0.000000 1.727876
 50 1.506966 -0.000001 0.000000 0.000000 0.000000 3.141593
 51 3.915637 -0.278021 -1.402609 0.304321 -0.057152 -0.007502
 52 1.333083 -0.000001 -0.000000 -0.000000 -0.000000 1.265364
 53 1.159203 -0.000001 0.000001 0.000000 -0.000000 1.527163
 54 1.341585 0.000000 0.000002 0.000000 0.000000 3.141593
 55 -4.443606 0.013172 3.864010 -0.000003 -3.141592 -0.100796
 56 19.320051 -0.000000 -0.000000 0.000000 0.000000 -0.200000
 57 19.320045 -0.000000 0.000000 0.000000 -0.000000 0.100000
 58 4.443612 5.602815 0.000000 -0.000000 0.000000 1.570796
 59 0.579601 -0.000000 0.000000 0.000000 0.000000 3.141593
 60 -4.443606 0.013193 -3.864010 -0.000003 -3.141592 -0.100796
 61 19.320051 0.000000 -0.000000 0.000000 0.000000 -0.200000
 62 19.320045 0.000000 0.000000 0.000000 -0.000000 0.100000
 63 4.443612 5.602815 0.000000 -0.000000 0.000000 1.570796
 64 0.579601 -0.000000 0.000000 0.000000 0.000000 0.000000
 65 15.505088 21.164101 -7.454382 3.141590 -0.000002 0.000000
time 7
  0 0.134138 -5.181461 43.181469 0.000000 0.000000 -1.570795
  1 0.000000 0.000000 -42.890667 0.000000 0.000000 1.570795
  2 0.000000 0.000000 0.000000 -1.570795 -1.570451 0.000000
  3 4.443615 -0.009642 0.000006 -0.000004 -0.000001 0.000796
  4 12.111414 -0.011445 -0.000000 0.000000 0.000000 0.000000
  5 14.374118 0.000000 -0.000000 -0.000000 0.000000 -0.000798
  6 9.660028 0.000000 -0.000000 0.000000 0.000000 0.000000
  7 0.000007 0.011442 1.352403 -0.000014 -1.370796 3.140810
  8 6.078088 -0.000000 -0.000000 -0.183946 1.264601 -0.174454
  9 13.446755 0.000000 -0.000000 -0.000000 0.000000 -0.069100
 10 15.996998 -0.000001 -0.000001 -1.683446 -0.000000 0.000000
 11 1.885327 0.833277 -2.177875 -1.598016 0.698132 -0.000668
 12 1.506963 0.000001 0.000000 -0.000000 0.000000 -0.139626
 13 0.798351 -0.000001 0.000001 -0.000000 -0.000000 -0.113446
 14 1.468323 0.000000 -0.000000 0.000000 0.000000 0.000000
 15 3.950302 -0.539875 -2.108870 -0.000806 0.157080 -0.000126
 16 1.545799 0.000000 0.000002 -0.000000 0.000000 0.471239
 17 1.667396 -0.000000 -0.000000 0.000000 -0.000000 0.436332
 18 1.530149 0.000000 -0.000001 0.000000 0.000000 0.000000
 19 3.899459 -0.475376 -1.170890 -0.000796 -0.000000 0.000000
 20 1.528216 -0.000000 -0.000000 0.000000 -0.000000 0.331613
 21 1.528215 -0.000000 -0.000001 0.000000 0.000000 0.479966
 22 1.940835 0.000000 0.000001 0.000000 0.000000 0.000000
 23 3.899459 -0.431804 0.168227 -0.000796 -0.000000 0.000000
 24 1.506963 -0.000000 -0.000000 -0.000000 -0.000000 0.427606
 25 1.506963 -0.000000 -0.000000 0.000000 0.000000 0.340339
 26 1.506965 -0.000000 -0.000001 0.000000 0.000000 0.000000
 27 3.915633 -0.278019 1.402611 -0.000796 -0.000000 0.000000
 28 1.333086 -0.000000 0.000000 0.000000 0.000000 0.637045
 29 1.159202 -0.000000 0.000000 0.000000 -0.000000 0.218166
 30 1.341584 0.000000 -0.000000 0.000000 0.000000 0.000000
 31 0.000007 0.011450 -1.352403 -0.000014 1.370796 3.140783
 32 6.078088 -0.000000 0.000001 1.066631 -0.582920 -1.350253
 33 13.446754 -0.000000 -0.000000 0.000000 0.000000 -0.273195
 34 15.997003 0.000003 0.000001 1.772650 -0.690028 0.529975
 35 1.885328 0.833276 2.177881 1.264229 -0.638131 0.530106
 36 1.506964 -0.000003 0.000002 0.000000 0.000000 -0.488692
 37 0.798348 0.000000 -0.000001 -0.000000 -0.000000 -0.986111
 38 1.468324 0.000002 0.000001 0.000000 0.000000 3.141593
 39 3.950303 -0.539875 2.108873 -0.037816 0.038147 -0.197091
 40 1.545796 0.000000 0.000001 -0.000000 0.000000 1.396263
 41 1.667397 -0.000003 -0.000001 -0.000000 -0.000000 1.466077
 42 1.530147 0.000001 0.000005 0.000000 0.000000 3.141593
 43 3.899461 -0.475377 1.170891 -0.069015 0.069834 -0.026124
 44 1.528216 -0.000001 0.000001 -0.000000 0.000000 1.047198
 45 1.528215 0.000002 0.000001 0.000000 0.000000 1.815142
 46 1.940834 0.000000 0.000001 0.000000 0.000000 3.141593
 47 3.899459 -0.431804 -0.168224 -0.003768 -0.034712 0.130951
 48 1.506962 0.000001 -0.000002 -0.000000 0.000000 1.082104
 49 1.506963 -0.000000 0.000000 0.000000 -0.000000 1.727876
 50 1.506963 0.000000 -0.000001 0.000000 0.000000 3.141593
 51 3.915636 -0.278021 -1.402608 0.304321 -0.057152 -0.007502
 52 1.333082 -0.000001 -0.000002 -0.000000 -0.000000 1.265364
 53 1.159203 -0.000000 -0.000002 0.000000 0.000000 1.527163
 54 1.341584 -0.000001 -0.000000 0.000000 0.000000 3.141593
 55 -4.443606 0.013172 3.864010 -0.000003 -3.141592 -0.100796
 56 19.320051 -0.000000 -0.000000 0.000000 0.000000 -0.200000
 57 19.320045 -0.000000 0.000000 0.000000 -0.000000 0.100000
 58 4.443612 5.602815 0.000000 -0.000000 0.000000 1.570796
 59 0.579601 -0.000000 0.000000 0.000000 0.000000 3.141593
 60 -4.443606 0.013193 -3.864010 -0.000003 -3.141592 -0.100796
 61 19.320051 0.000000 -0.000000 0.000000 0.000000 -0.200000
 62 19.320045 0.000000 0.000000 0.000000 -0.000000 0.100000
 63 4.443612 5.602815 0.000000 -0.000000 0.000000 1.570796
 64 0.579601 -0.000000 0.000000 0.000000 0.000000 0.000000
 65 15.505088 21.164101 -7.454382 3.141590 -0.000002 0.000000
time 8
  0 0.134138 -5.181461 43.181469 0.000000 0.000000 -1.570795
  1 0.000000 0.000000 -42.890667 0.000000 0.000000 1.570795
  2 0.000000 0.000000 0.000000 -1.570795 -1.570451 0.000000
  3 4.443615 -0.009642 0.000006 -0.000004 -0.000001 0.000796
  4 12.111414 -0.011445 -0.000000 0.000000 0.000000 0.000000
  5 14.374118 0.000000 -0.000000 -0.000000 0.000000 -0.000798
  6 9.660028 0.000000 -0.000000 0.000000 0.000000 0.000000
  7 0.000007 0.011442 1.352403 -0.000014 -1.370796 3.140810
  8 6.078088 -0.000000 -0.000000 -0.183946 1.264601 -0.174454
  9 13.446755 0.000000 -0.000000 -0.000000 0.000000 -0.069100
 10 15.996998 -0.000001 -0.000001 -1.683446 -0.000000 0.000000
 11 1.885327 0.833277 -2.177875 -1.598016 0.698132 -0.000668
 12 1.506963 0.000001 0.000000 -0.000000 0.000000 -0.139626
 13 0.798351 -0.000001 0.000001 -0.000000 -0.000000 -0.113446
 14 1.468323 0.000000 -0.000000 0.000000 0.000000 0.000000
 15 3.950302 -0.539875 -2.108870 -0.000806 0.157080 -0.000126
 16 1.545799 0.000000 0.000002 -0.000000 0.000000 0.471239
 17 1.667396 -0.000000 -0.000000 0.000000 -0.000000 0.436332
 18 1.530149 0.000000 -0.000001 0.000000 0.000000 0.000000
 19 3.899459 -0.475376 -1.170890 -0.000796 -0.000000 0.000000
 20 1.528216 -0.000000 -0.000000 0.000000 -0.000000 0.331613
 21 1.528215 -0.000000 -0.000001 0.000000 0.000000 0.479966
 22 1.940835 0.000000 0.000001 0.000000 0.000000 0.000000
 23 3.899459 -0.431804 0.168227 -0.000796 -0.000000 0.000000
 24 1.506963 -0.000000 -0.000000 -0.000000 -0.000000 0.427606
 25 1.506963 -0.000000 -0.000000 0.000000 0.000000 0.340339
 26 1.506965 -0.000000 -0.000001 0.000000 0.000000 0.000000
 27 3.915633 -0.278019 1.402611 -0.000796 -0.000000 0.000000
 28 1.333086 -0.000000 0.000000 0.000000 0.000000 0.637045
 29 1.159202 -0.000000 0.000000 0.000000 -0.000000 0.218166
 30 1.341584 0.000000 -0.000000 0.000000 0.000000 0.000000
 31 0.000007 0.011450 -1.352403 -0.000014 1.370796 3.140783
 32 6.078088 -0.000000 0.000001 1.255442 -0.728257 -1.505259
 33 13.446754 -0.000002 0.000000 -0.000000 -0.000000 -0.346272
 34 15.996999 0.000001 0.000001 1.479040 -0.629464 0.998569
 35 1.885326 0.833277 2.177876 1.264229 -0.638131 0.530106
 36 1.506962 -0.000002 -0.000003 -0.000000 -0.000000 -0.488692
 37 0.798348 -0.000000 -0.000001 0.000000 -0.000000 -0.986111
 38 1.468320 0.000001 0.000002 0.000000 0.000000 3.141593
 39 3.950305 -0.539877 2.108866 -0.037816 0.038147 -0.197091
 40 1.545796 0.000000 0.000001 -0.000000 0.000000 1.396263
 41 1.667398 0.000006 0.000003 -0.000000 0.000000 1.466077
 42 1.530148 0.000000 -0.000001 0.000000 0.000000 3.141593
 43 3.899460 -0.475377 1.170889 -0.069015 0.069834 -0.026124
 44 1.528214 -0.000001 0.000001 -0.000000 0.000000 1.047198
 45 1.528216 -0.000003 -0.000000 0.000000 -0.000000 1.815142
 46 1.940835 -0.000001 -0.000000 0.000000 0.000000 3.141593
 47 3.899461 -0.431805 -0.168227 -0.003768 -0.034712 0.130951
 48 1.506963 0.000001 0.000000 0.000000 0.000000 1.082104
 49 1.506963 -0.000002 0.000000 -0.000000 0.000000 1.727876
 50 1.506963 0.000000 -0.000000 0.000000 0.000000 3.141593
 51 3.915633 -0.278020 -1.402611 0.304321 -0.057152 -0.007502
 52 1.333084 -0.000001 -0.000000 0.000000 -0.000000 1.265364
 53 1.159204 0.000003 -0.000001 -0.000000 -0.000000 1.527163
 54 1.341582 -0.000000 -0.000001 0.000000 0.000000 3.141593
 55 -4.443606 0.013172 3.864010 -0.000003 -3.141592 -0.100796
 56 19.320051 -0.000000 -0.000000 0.000000 0.000000 -0.200000
 57 19.320045 -0.000000 0.000000 0.000000 -0.000000 0.100000
 58 4.443612 5.602815 0.000000 -0.000000 0.000000 1.570796
 59 0.579601 -0.000000 0.000000 0.000000 0.000000 3.141593
 60 -4.443606 0.013193 -3.864010 -0.000003 -3.141592 -0.100796
 61 19.320051 0.000000 -0.000000 0.000000 0.000000 -0.200000
 62 19.320045 0.000000 0.000000 0.000000 -0.000000 0.100000
 63 4.443612 5.602815 0.000000 -0.000000 0.000000 1.570796
 64 0.579601 -0.000000 0.000000 0.000000 0.000000 0.000000
 65 15.505088 21.164101 -7.454382 3.141590 -0.000002 0.000000
time 9
  0 0.134138 -5.181461 43.181469 0.000000 0.000000 -1.570795
  1 0.000000 0.000000 -42.890667 0.000000 0.000000 1.570795
  2 0.000000 0.000000 0.000000 -1.570795 -1.570451 0.000000
  3 4.443615 -0.009642 0.000006 -0.000004 -0.000001 0.000796
  4 12.111414 -0.011445 -0.000000 0.000000 0.000000 0.000000
  5 14.374118 0.000000 -0.000000 -0.000000 0.000000 -0.000798
  6 9.660028 0.000000 -0.000000 0.000000 0.000000 0.000000
  7 0.000007 0.011442 1.352403 -0.000014 -1.370796 3.140810
  8 6.078088 -0.000000 -0.000000 -0.183946 1.264601 -0.174454
  9 13.446755 0.000000 -0.000000 -0.000000 0.000000 -0.069100
 10 15.996998 -0.000001 -0.000001 -1.683446 -0.000000 0.000000
 11 1.885327 0.833277 -2.177875 -1.598016 0.698132 -0.000668
 12 1.506963 0.000001 0.000000 -0.000000 0.000000 -0.139626
 13 0.798351 -0.000001 0.000001 -0.000000 -0.000000 -0.113446
 14 1.468323 0.000000 -0.000000 0.000000 0.000000 0.000000
 15 3.950302 -0.539875 -2.108870 -0.000806 0.157080 -0.000126
 16 1.545799 0.000000 0.000002 -0.000000 0.000000 0.471239
 17 1.667396 -0.000000 -0.000000 0.000000 -0.000000 0.436332
 18 1.530149 0.000000 -0.000001 0.000000 0.000000 0.000000
 19 3.899459 -0.475376 -1.170890 -0.000796 -0.000000 0.000000
 20 1.528216 -0.000000 -0.000000 0.000000 -0.000000 0.331613
 21 1.528215 -0.000000 -0.000001 0.000000 0.000000 0.479966
 22 1.940835 0.000000 0.000001 0.000000 0.000000 0.000000
 23 3.899459 -0.431804 0.168227 -0.000796 -0.000000 0.000000
 24 1.506963 -0.000000 -0.000000 -0.000000 -0.000000 0.427606
 25 1.506963 -0.000000 -0.000000 0.000000 0.000000 0.340339
 26 1.506965 -0.000000 -0.000001 0.000000 0.000000 0.000000
 27 3.915633 -0.278019 1.402611 -0.000796 -0.000000 0.000000
 28 1.333086 -0.000000 0.000000 0.000000 0.000000 0.637045
 29 1.159202 -0.000000 0.000000 0.000000 -0.000000 0.218166
 30 1.341584 0.000000 -0.000000 0.000000 0.000000 0.000000
 31 0.000007 0.011450 -1.352403 -0.000014 1.370796 3.140783
 32 6.078088 -0.000000 0.000001 1.394557 -0.918962 -1.594710
 33 13.446754 -0.000001 -0.000001 -0.000000 -0.000000 -0.542794
 34 15.997000 0.000001 -0.000000 1.359820 -0.516230 1.196045
 35 1.885328 0.833276 2.177874 1.264229 -0.638131 0.530106
 36 1.506963 -0.000000 -0.000001 -0.000000 0.000000 -0.488692
 37 0.798350 -0.000001 0.000002 0.000000 0.000000 -0.986111
 38 1.468323 0.000000 0.000000 0.000000 0.000000 3.141593
 39 3.950303 -0.539875 2.108870 -0.037816 0.038147 -0.197091
 40 1.545798 -0.000001 -0.000001 -0.000000 0.000000 1.396263
 41 1.667398 0.000003 -0.000002 0.000000 0.000000 1.466077
 42 1.530149 0.000000 0.000002 0.000000 0.000000 3.141593
 43 3.899461 -0.475377 1.170890 -0.069015 0.069834 -0.026124
 44 1.528216 0.000000 0.000000 0.000000 -0.000000 1.047198
 45 1.528216 0.000002 0.000000 0.000000 0.000000 1.815142
 46 1.940834 -0.000000 -0.000000 0.000000 0.000000 3.141593
 47 3.899458 -0.431803 -0.168225 -0.003768 -0.034712 0.130951
 48 1.506963 -0.000001 0.000001 0.000000 0.000000 1.082104
 49 1.506963 -0.000001 0.000002 -0.000000 0.000000 1.727876
 50 1.506965 0.000000 0.000002 0.000000 0.000000 3.141593
 51 3.915634 -0.278020 -1.402609 0.304321 -0.057152 -0.007502
 52 1.333087 -0.000002 0.000001 -0.000000 -0.000000 1.265364
 53 1.159203 0.000000 -0.000001 0.000000 -0.000000 1.527163
 54 1.341585 -0.000000 0.000000 0.000000 0.000000 3.141593
 55 -4.443606 0.013172 3.864010 -0.000003 -3.141592 -0.100796
 56 19.320051 -0.000000 -0.000000 0.000000 0.000000 -0.200000
 57 19.320045 -0.000000 0.000000 0.000000 -0.000000 0.100000
 58 4.443612 5.602815 0.000000 -0.000000 0.000000 1.570796
 59 0.579601 -0.000000 0.000000 0.000000 0.000000 3.141593
 60 -4.443606 0.013193 -3.864010 -0.000003 -3.141592 -0.100796
 61 19.320051 0.000000 -0.000000 0.000000 0.000000 -0.200000
 62 19.320045 0.000000 0.000000 0.000000 -0.000000 0.100000
 63 4.443612 5.602815 0.000000 -0.000000 0.000000 1.570796
 64 0.579601 -0.000000 0.000000 0.000000 0.000000 0.000000
 65 15.505088 21.164101 -7.454382 3.141590 -0.000002 0.000000
time 10
  0 0.134138 -5.181461 43.181469 0.000000 0.000000 -1.570795
  1 0.000000 0.000000 -42.890667 0.000000 0.000000 1.570795
  2 0.000000 0.000000 0.000000 -1.570795 -1.570451 0.000000
  3 4.443615 -0.009642 0.000006 -0.000004 -0.000001 0.000796
  4 12.111414 -0.011445 -0.000000 0.000000 0.000000 0.000000
  5 14.374118 0.000000 -0.000000 -0.000000 0.000000 -0.000798
  6 9.660028 0.000000 -0.000000 0.000000 0.000000 0.000000
  7 0.000007 0.011442 1.352403 -0.000014 -1.370796 3.140810
  8 6.078088 -0.000000 -0.000000 -0.183946 1.264601 -0.174454
  9 13.446755 0.000000 -0.000000 -0.000000 0.000000 -0.069100
 10 15.996998 -0.000001 -0.000001 -1.683446 -0.000000 0.000000
 11 1.885327 0.833277 -2.177875 -1.598016 0.698132 -0.000668
 12 1.506963 0.000001 0.000000 -0.000000 0.000000 -0.139626
 13 0.798351 -0.000001 0.000001 -0.000000 -0.000000 -0.113446
 14 1.468323 0.000000 -0.000000 0.000000 0.000000 0.000000
 15 3.950302 -0.539875 -2.108870 -0.000806 0.157080 -0.000126
 16 1.545799 0.000000 0.000002 -0.000000 0.000000 0.471239
 17 1.667396 -0.000000 -0.000000 0.000000 -0.000000 0.436332
 18 1.530149 0.000000 -0.000001 0.000000 0.000000 0.000000
 19 3.899459 -0.475376 -1.170890 -0.000796 -0.000000 0.000000
 20 1.528216 -0.000000 -0.000000 0.000000 -0.000000 0.331613
 21 1.528215 -0.000000 -0.000001 0.000000 0.000000 0.479966
 22 1.940835 0.000000 0.000001 0.000000 0.000000 0.000000
 23 3.899459 -0.431804 0.168227 -0.000796 -0.000000 0.000000
 24 1.506963 -0.000000 -0.000000 -0.000000 -0.000000 0.427606
 25 1.506963 -0.000000 -0.000000 0.000000 0.000000 0.340339
 26 1.506965 -0.000000 -0.000001 0.000000 0.000000 0.000000
 27 3.915633 -0.278019 1.402611 -0.000796 -0.000000 0.000000
 28 1.333086 -0.000000 0.000000 0.000000 0.000000 0.637045
 29 1.159202 -0.000000 0.000000 0.000000 -0.000000 0.218166
 30 1.341584 0.000000 -0.000000 0.000000 0.000000 0.000000
 31 0.000007 0.011450 -1.352403 -0.000014 1.370796 3.140783
 32 6.078088 -0.000000 0.000001 0.901456 -1.307253 -1.013905
 33 13.446748 0.000001 -0.000000 0.000000 0.000000 -1.125723
 34 15.997000 0.000002 -0.000000 1.501047 -0.467103 0.873287
 35 1.885326 0.833277 2.177878 1.264229 -0.638131 0.530106
 36 1.506964 0.000003 -0.000001 0.000000 0.000000 -0.488692
 37 0.798349 -0.000001 0.000001 -0.000000 -0.000000 -0.986111
 38 1.468325 0.000000 0.000000 0.000000 0.000000 3.141593
 39 3.950302 -0.539876 2.108872 -0.037816 0.038147 -0.197091
 40 1.545796 -0.000000 0.000001 0.000000 -0.000000 1.396263
 41 1.667398 -0.000001 -0.000001 -0.000000 0.000000 1.466077
 42 1.530149 0.000000 -0.000001 0.000000 0.000000 3.141593
 43 3.899458 -0.475376 1.170893 -0.069015 0.069834 -0.026124
 44 1.528216 -0.000000 0.000001 -0.000000 -0.000000 1.047198
 45 1.528216 -0.000001 0.000000 -0.000000 -0.000000 1.815142
 46 1.940835 -0.000000 0.000001 0.000000 0.000000 3.141593
 47 3.899458 -0.431804 -0.168224 -0.003768 -0.034712 0.130951
 48 1.506965 -0.000002 -0.000000 -0.000000 0.000000 1.082104
 49 1.506964 0.000002 0.000000 -0.000000 0.000000 1.727876
 50 1.506966 -0.000001 -0.000000 0.000000 0.000000 3.141593
 51 3.915633 -0.278020 -1.402608 0.304321 -0.057152 -0.007502
 52 1.333083 -0.000000 -0.000002 -0.000000 -0.000000 1.265364
 53 1.159203 0.000001 0.000003 -0.000000 -0.000000 1.527163
 54 1.341583 -0.000000 -0.000001 0.000000 0.000000 3.141593
 55 -4.443606 0.013172 3.864010 -0.000003 -3.141592 -0.100796
 56 19.320051 -0.000000 -0.000000 0.000000 0.000000 -0.200000
 57 19.320045 -0.000000 0.000000 0.000000 -0.000000 0.100000
 58 4.443612 5.602815 0.000000 -0.000000 0.000000 1.570796
 59 0.579601 -0.000000 0.000000 0.000000 0.000000 3.141593
 60 -4.443606 0.013193 -3.864010 -0.000003 -3.141592 -0.100796
 61 19.320051 0.000000 -0.000000 0.000000 0.000000 -0.200000
 62 19.320045 0.000000 0.000000 0.000000 -0.000000 0.100000
 63 4.443612 5.602815 0.000000 -0.000000 0.000000 1.570796
 64 0.579601 -0.000000 0.000000 0.000000 0.000000 0.000000
 65 15.505088 21.164101 -7.454382 3.141590 -0.000002 0.000000
time 11
  0 0.134138 -5.181461 43.181469 0.000000 0.000000 -1.570795
  1 0.000000 0.000000 -42.890667 0.000000 0.000000 1.570795
  2 0.000000 0.000000 0.000000 -1.570795 -1.570451 0.000000
  3 4.443615 -0.009642 0.000006 -0.000004 -0.000001 0.000796
  4 12.111414 -0.011445 -0.000000 0.000000 0.000000 0.000000
  5 14.374118 0.000000 -0.000000 -0.000000 0.000000 -0.000798
  6 9.660028 0.000000 -0.000000 0.000000 0.000000 0.000000
  7 0.000007 0.011442 1.352403 -0.000014 -1.370796 3.140810
  8 6.078088 -0.000000 -0.000000 -0.183946 1.264601 -0.174454
  9 13.446755 0.000000 -0.000000 -0.000000 0.000000 -0.069100
 10 15.996998 -0.000001 -0.000001 -1.683446 -0.000000 0.000000
 11 1.885327 0.833277 -2.177875 -1.598016 0.698132 -0.000668
 12 1.506963 0.000001 0.000000 -0.000000 0.000000 -0.139626
 13 0.798351 -0.000001 0.000001 -0.000000 -0.000000 -0.113446
 14 1.468323 0.000000 -0.000000 0.000000 0.000000 0.000000
 15 3.950302 -0.539875 -2.108870 -0.000806 0.157080 -0.000126
 16 1.545799 0.000000 0.000002 -0.000000 0.000000 0.471239
 17 1.667396 -0.000000 -0.000000 0.000000 -0.000000 0.436332
 18 1.530149 0.000000 -0.000001 0.000000 0.000000 0.000000
 19 3.899459 -0.475376 -1.170890 -0.000796 -0.000000 0.000000
 20 1.528216 -0.000000 -0.000000 0.000000 -0.000000 0.331613
 21 1.528215 -0.000000 -0.000001 0.000000 0.000000 0.479966
 22 1.940835 0.000000 0.000001 0.000000 0.000000 0.000000
 23 3.899459 -0.431804 0.168227 -0.000796 -0.000000 0.000000
 24 1.506963 -0.000000 -0.000000 -0.000000 -0.000000 0.427606
 25 1.506963 -0.000000 -0.000000 0.000000 0.000000 0.340339
 26 1.506965 -0.000000 -0.000001 0.000000 0.000000 0.000000
 27 3.915633 -0.278019 1.402611 -0.000796 -0.000000 0.000000
 28 1.333086 -0.000000 0.000000 0.000000 0.000000 0.637045
 29 1.159202 -0.000000 0.000000 0.000000 -0.000000 0.218166
 30 1.341584 0.000000 -0.000000 0.000000 0.000000 0.000000
 31 0.000007 0.011450 -1.352403 -0.000014 1.370796 3.140783
 32 6.078088 -0.000000 0.000001 -0.416970 -1.200891 0.381104
 33 13.446752 -0.000000 0.000001 0.000000 -0.000000 -1.638163
 34 15.996999 0.000000 -0.000000 1.717551 -0.346731 0.330478
 35 1.885326 0.833277 2.177877 1.264229 -0.638131 0.530106
 36 1.506964 -0.000001 -0.000001 -0.000000 0.000000 -0.488692
 37 0.798348 0.000003 -0.000001 -0.000000 -0.000000 -0.986111
 38 1.468326 -0.000001 0.000001 0.000000 0.000000 3.141593
 39 3.950303 -0.539876 2.108871 -0.037816 0.038147 -0.197091
 40 1.545798 -0.000000 -0.000003 -0.000000 0.000000 1.396263
 41 1.667397 -0.000001 0.000003 -0.000000 0.000000 1.466077
 42 1.530149 0.000000 -0.000001 0.000000 0.000000 3.141593
 43 3.899459 -0.475376 1.170890 -0.069015 0.069834 -0.026124
 44 1.528217 0.000000 -0.000004 0.000000 0.000000 1.047198
 45 1.528216 0.000000 0.000001 0.000000 0.000000 1.815142
 46 1.940835 -0.000000 0.000001 0.000000 0.000000 3.141593
 47 3.899460 -0.431804 -0.168225 -0.003768 -0.034712 0.130951
 48 1.506965 -0.000000 -0.000004 -0.000000 -0.000000 1.082104
 49 1.506964 0.000000 0.000001 -0.000000 0.000000 1.727876
 50 1.506964 -0.000000 0.000002 0.000000 0.000000 3.141593
 51 3.915633 -0.278019 -1.402611 0.304321 -0.057152 -0.007502
 52 1.333082 0.000000 0.000000 -0.000000 -0.000000 1.265364
 53 1.159203 -0.000001 -0.000001 0.000000 -0.000000 1.527163
 54 1.341584 -0.000001 0.000000 0.000000 0.000000 3.141593
 55 -4.443606 0.013172 3.864010 -0.000003 -3.141592 -0.100796
 56 19.320051 -0.000000 -0.000000 0.000000 0.000000 -0.200000
 57 19.320045 -0.000000 0.000000 0.000000 -0.000000 0.100000
 58 4.443612 5.602815 0.000000 -0.000000 0.000000 1.570796
 59 0.579601 -0.000000 0.000000 0.000000 0.000000 3.141593
 60 -4.443606 0.013193 -3.864010 -0.000003 -3.141592 -0.100796
 61 19.320051 0.000000 -0.000000 0.000000 0.000000 -0.200000
 62 19.320045 0.000000 0.000000 0.000000 -0.000000 0.100000
 63 4.443612 5.602815 0.000000 -0.000000 0.000000 1.570796
 64 0.579601 -0.000000 0.000000 0.000000 0.000000 0.000000
 65 15.505088 21.164101 -7.454382 3.141590 -0.000002 0.000000
time 12
  0 0.134138 -5.181461 43.181469 0.000000 0.000000 -1.570795
  1 0.000000 0.000000 -42.890667 0.000000 0.000000 1.570795
  2 0.000000 0.000000 0.000000 -1.570795 -1.570451 0.000000
  3 4.443615 -0.009642 0.000006 -0.000004 -0.000001 0.000796
  4 12.111414 -0.011445 -0.000000 0.000000 0.000000 0.000000
  5 14.374118 0.000000 -0.000000 -0.000000 0.000000 -0.000798
  6 9.660028 0.000000 -0.000000 0.000000 0.000000 0.000000
  7 0.000007 0.011442 1.352403 -0.000014 -1.370796 3.140810
  8 6.078088 -0.000000 -0.000000 -0.183946 1.264601 -0.174454
  9 13.446755 0.000000 -0.000000 -0.000000 0.000000 -0.069100
 10 15.996998 -0.000001 -0.000001 -1.683446 -0.000000 0.000000
 11 1.885327 0.833277 -2.177875 -1.598016 0.698132 -0.000668
 12 1.506963 0.000001 0.000000 -0.000000 0.000000 -0.139626
 13 0.798351 -0.000001 0.000001 -0.000000 -0.000000 -0.113446
 14 1.468323 0.000000 -0.000000 0.000000 0.000000 0.000000
 15 3.950302 -0.539875 -2.108870 -0.000806 0.157080 -0.000126
 16 1.545799 0.000000 0.000002 -0.000000 0.000000 0.471239
 17 1.667396 -0.000000 -0.000000 0.000000 -0.000000 0.436332
 18 1.530149 0.000000 -0.000001 0.000000 0.000000 0.000000
 19 3.899459 -0.475376 -1.170890 -0.000796 -0.000000 0.000000
 20 1.528216 -0.000000 -0.000000 0.000000 -0.000000 0.331613
 21 1.528215 -0.000000 -0.000001 0.000000 0.000000 0.479966
 22 1.940835 0.000000 0.000001 0.000000 0.000000 0.000000
 23 3.899459 -0.431804 0.168227 -0.000796 -0.000000 0.000000
 24 1.506963 -0.000000 -0.000000 -0.000000 -0.000000 0.427606
 25 1.506963 -0.000000 -0.000000 0.000000 0.000000 0.340339
 26 1.506965 -0.000000 -0.000001 0.000000 0.000000 0.000000
 27 3.915633 -0.278019 1.402611 -0.000796 -0.000000 0.000000
 28 1.333086 -0.000000 0.000000 0.000000 0.000000 0.637045
 29 1.159202 -0.000000 0.000000 0.000000 -0.000000 0.218166
 30 1.341584 0.000000 -0.000000 0.000000 0.000000 0.000000
 31 0.000007 0.011450 -1.352403 -0.000014 1.370796 3.140783
 32 6.078088 -0.000000 0.000001 0.662667 -0.895991 -0.776378
 33 13.446751 0.000000 0.000001 0.000000 0.000000 -0.929658
 34 15.997000 0.000004 0.000001 1.837509 -0.141937 -0.162740
 35 1.885325 0.833277 2.177878 1.264229 -0.638131 0.530106
 36 1.506966 -0.000003 0.000002 -0.000000 0.000000 -0.488692
 37 0.798348 0.000002 -0.000003 0.000000 0.000000 -0.986111
 38 1.468323 -0.000000 0.000002 0.000000 0.000000 3.141593
 39 3.950303 -0.539876 2.108875 -0.037816 0.038147 -0.197091
 40 1.545798 -0.000000 0.000000 0.000000 0.000000 1.396263
 41 1.667397 -0.000002 -0.000004 0.000000 0.000000 1.466077
 42 1.530150 0.000001 0.000001 0.000000 0.000000 3.141593
 43 3.899457 -0.475376 1.170891 -0.069015 0.069834 -0.026124
 44 1.528221 -0.000000 0.000001 -0.000000 -0.000000 1.047198
 45 1.528215 0.000001 0.000002 0.000000 -0.000000 1.815142
 46 1.940836 0.000000 -0.000002 0.000000 0.000000 3.141593
 47 3.899460 -0.431804 -0.168223 -0.003768 -0.034712 0.130951
 48 1.506966 -0.000000 -0.000002 -0.000000 0.000000 1.082104
 49 1.506964 0.000001 0.000003 -0.000000 0.000000 1.727876
 50 1.506967 0.000001 -0.000001 0.000000 0.000000 3.141593
 51 3.915634 -0.278019 -1.402609 0.304321 -0.057152 -0.007502
 52 1.333082 -0.000000 -0.000001 -0.000000 -0.000000 1.265364
 53 1.159203 0.000002 -0.000001 -0.000000 -0.000000 1.527163
 54 1.341583 -0.000000 -0.000000 0.000000 0.000000 3.141593
 55 -4.443606 0.013172 3.864010 -0.000003 -3.141592 -0.100796
 56 19.320051 -0.000000 -0.000000 0.000000 0.000000 -0.200000
 57 19.320045 -0.000000 0.000000 0.000000 -0.000000 0.100000
 58 4.443612 5.602815 0.000000 -0.000000 0.000000 1.570796
 59 0.579601 -0.000000 0.000000 0.000000 0.000000 3.141593
 60 -4.443606 0.013193 -3.864010 -0.000003 -3.141592 -0.100796
 61 19.320051 0.000000 -0.000000 0.000000 0.000000 -0.200000
 62 19.320045 0.000000 0.000000 0.000000 -0.000000 0.100000
 63 4.443612 5.602815 0.000000 -0.000000 0.000000 1.570796
 64 0.579601 -0.000000 0.000000 0.000000 0.000000 0.000000
 65 15.505088 21.164101 -7.454382 3.141590 -0.000002 0.000000
end
