version 1
nodes
  0 "Bip01"  -1
  1 "Bip01 Footsteps"   0
  2 "Bip01 Pelvis"   0
  3 "Bip01 Spine"   2
  4 "Bip01 Neck"   3
  5 "Bip01 Head"   4
  6 "Dummy13"   5
  7 "Bip01 L Clavicle"   4
  8 "Bip01 L UpperArm"   7
  9 "Bip01 L Forearm"   8
 10 "Bip01 L Hand"   9
 11 "Bip01 L Finger0"  10
 12 "Bip01 L Finger01"  11
 13 "Bip01 L Finger02"  12
 14 "Dummy06"  13
 15 "Bip01 L Finger1"  10
 16 "Bip01 L Finger11"  15
 17 "Bip01 L Finger12"  16
 18 "Dummy07"  17
 19 "Bip01 L Finger2"  10
 20 "Bip01 L Finger21"  19
 21 "Bip01 L Finger22"  20
 22 "Dummy08"  21
 23 "Bip01 L Finger3"  10
 24 "Bip01 L Finger31"  23
 25 "Bip01 L Finger32"  24
 26 "Dummy09"  25
 27 "Bip01 L Finger4"  10
 28 "Bip01 L Finger41"  27
 29 "Bip01 L Finger42"  28
 30 "Dummy10"  29
 31 "Bip01 R Clavicle"   4
 32 "Bip01 R UpperArm"  31
 33 "Bip01 R Forearm"  32
 34 "Bip01 R Hand"  33
 35 "Bip01 R Finger0"  34
 36 "Bip01 R Finger01"  35
 37 "Bip01 R Finger02"  36
 38 "Dummy01"  37
 39 "Bip01 R Finger1"  34
 40 "Bip01 R Finger11"  39
 41 "Bip01 R Finger12"  40
 42 "Dummy02"  41
 43 "Bip01 R Finger2"  34
 44 "Bip01 R Finger21"  43
 45 "Bip01 R Finger22"  44
 46 "Dummy03"  45
 47 "Bip01 R Finger3"  34
 48 "Bip01 R Finger31"  47
 49 "Bip01 R Finger32"  48
 50 "Dummy04"  49
 51 "Bip01 R Finger4"  34
 52 "Bip01 R Finger41"  51
 53 "Bip01 R Finger42"  52
 54 "Dummy05"  53
 55 "Bip01 L Thigh"   3
 56 "Bip01 L Calf"  55
 57 "Bip01 L Foot"  56
 58 "Bip01 L Toe0"  57
 59 "Dummy12"  58
 60 "Bip01 R Thigh"   3
 61 "Bip01 R Calf"  60
 62 "Bip01 R Foot"  61
 63 "Bip01 R Toe0"  62
 64 "Dummy11"  63
 65 "v_hand"   2
end
skeleton
time 0
  0 0.134138 -5.181461 43.181469 0.000000 0.000000 -1.570795
  1 0.000000 0.000000 -42.890667 0.000000 0.000000 1.570795
  2 0.000000 0.000000 0.000000 -1.570795 -1.570451 0.000000
  3 4.443615 -0.009642 0.000006 -0.000004 -0.000001 0.000796
  4 12.111414 -0.011445 -0.000000 0.000000 0.000000 0.000000
  5 14.374118 0.000000 -0.000000 -0.000000 0.000000 -0.000798
  6 9.660028 0.000000 -0.000000 0.000000 0.000000 0.000000
  7 0.000007 0.011442 1.352403 -0.000014 -1.370796 3.140810
  8 6.078088 -0.000000 -0.000000 -0.183946 1.264601 -0.174454
  9 13.446755 0.000000 -0.000000 -0.000000 0.000000 -0.069100
 10 15.996998 -0.000001 -0.000001 -1.683446 -0.000000 0.000000
 11 1.885327 0.833277 -2.177875 -1.598016 0.698132 -0.000668
 12 1.506963 0.000001 0.000000 -0.000000 0.000000 -0.139626
 13 0.798351 -0.000001 0.000001 -0.000000 -0.000000 -0.113446
 14 1.468323 0.000000 -0.000000 0.000000 0.000000 0.000000
 15 3.950302 -0.539875 -2.108870 -0.000806 0.157080 -0.000126
 16 1.545799 0.000000 0.000002 -0.000000 0.000000 0.471239
 17 1.667396 -0.000000 -0.000000 0.000000 -0.000000 0.436332
 18 1.530149 0.000000 -0.000001 0.000000 0.000000 0.000000
 19 3.899459 -0.475376 -1.170890 -0.000796 -0.000000 0.000000
 20 1.528216 -0.000000 -0.000000 0.000000 -0.000000 0.331613
 21 1.528215 -0.000000 -0.000001 0.000000 0.000000 0.479966
 22 1.940835 0.000000 0.000001 0.000000 0.000000 0.000000
 23 3.899459 -0.431804 0.168227 -0.000796 -0.000000 0.000000
 24 1.506963 -0.000000 -0.000000 -0.000000 -0.000000 0.427606
 25 1.506963 -0.000000 -0.000000 0.000000 0.000000 0.340339
 26 1.506965 -0.000000 -0.000001 0.000000 0.000000 0.000000
 27 3.915633 -0.278019 1.402611 -0.000796 -0.000000 0.000000
 28 1.333086 -0.000000 0.000000 0.000000 0.000000 0.637045
 29 1.159202 -0.000000 0.000000 0.000000 -0.000000 0.218166
 30 1.341584 0.000000 -0.000000 0.000000 0.000000 0.000000
 31 0.000007 0.011450 -1.352403 -0.000014 1.370796 3.140783
 32 6.078088 -0.000000 0.000001 0.588738 -1.071373 -0.594087
 33 13.446749 0.000000 -0.000001 -0.000000 0.000000 -1.396064
 34 15.996999 -0.000002 -0.000001 1.767696 -0.141937 -0.162740
 35 1.885327 0.833276 2.177875 1.264229 -0.638131 0.530106
 36 1.506963 0.000001 -0.000002 -0.000000 -0.000000 -0.488692
 37 0.798350 -0.000000 -0.000002 0.000000 0.000000 -0.986111
 38 1.468324 -0.000002 0.000002 0.000000 0.000000 3.141593
 39 3.950304 -0.539877 2.108872 -0.037816 0.038147 -0.197091
 40 1.545794 -0.000000 -0.000001 -0.000000 0.000000 1.396263
 41 1.667398 0.000001 -0.000001 -0.000000 -0.000000 1.466077
 42 1.530146 0.000000 -0.000002 0.000000 0.000000 3.141593
 43 3.899460 -0.475377 1.170891 -0.069015 0.069834 -0.026124
 44 1.528216 0.000000 0.000000 0.000000 0.000000 1.047198
 45 1.528216 -0.000001 -0.000001 0.000000 0.000000 1.815142
 46 1.940834 -0.000000 -0.000001 0.000000 0.000000 3.141593
 47 3.899460 -0.431804 -0.168224 -0.003768 -0.034712 0.130951
 48 1.506964 0.000000 -0.000002 -0.000000 0.000000 1.082104
 49 1.506963 -0.000001 0.000005 -0.000000 -0.000000 1.727876
 50 1.506965 0.000000 0.000001 0.000000 0.000000 3.141593
 51 3.915634 -0.278020 -1.402611 0.304321 -0.057152 -0.007502
 52 1.333083 -0.000001 -0.000001 0.000000 0.000000 1.265364
 53 1.159204 -0.000000 0.000001 -0.000000 0.000000 1.527163
 54 1.341586 0.000001 0.000000 0.000000 0.000000 3.141593
 55 -4.443606 0.013172 3.864010 -0.000003 -3.141592 -0.100796
 56 19.320051 -0.000000 -0.000000 0.000000 0.000000 -0.200000
 57 19.320045 -0.000000 0.000000 0.000000 -0.000000 0.100000
 58 4.443612 5.602815 0.000000 -0.000000 0.000000 1.570796
 59 0.579601 -0.000000 0.000000 0.000000 0.000000 3.141593
 60 -4.443606 0.013193 -3.864010 -0.000003 -3.141592 -0.100796
 61 19.320051 0.000000 -0.000000 0.000000 0.000000 -0.200000
 62 19.320045 0.000000 0.000000 0.000000 -0.000000 0.100000
 63 4.443612 5.602815 0.000000 -0.000000 0.000000 1.570796
 64 0.579601 -0.000000 0.000000 0.000000 0.000000 0.000000
 65 15.505088 21.164101 -7.454382 3.141590 -0.000002 0.000000
time 1
  0 0.134138 -5.181461 43.181469 0.000000 0.000000 -1.570795
  1 0.000000 0.000000 -42.890667 0.000000 0.000000 1.570795
  2 0.000000 0.000000 0.000000 -1.570795 -1.570451 0.000000
  3 4.443615 -0.009642 0.000006 -0.000004 -0.000001 0.000796
  4 12.111414 -0.011445 -0.000000 0.000000 0.000000 0.000000
  5 14.374118 0.000000 -0.000000 -0.000000 0.000000 -0.000798
  6 9.660028 0.000000 -0.000000 0.000000 0.000000 0.000000
  7 0.000007 0.011442 1.352403 -0.000014 -1.370796 3.140810
  8 6.078088 -0.000000 -0.000000 -0.183946 1.264601 -0.174454
  9 13.446755 0.000000 -0.000000 -0.000000 0.000000 -0.069100
 10 15.996998 -0.000001 -0.000001 -1.683446 -0.000000 0.000000
 11 1.885327 0.833277 -2.177875 -1.598016 0.698132 -0.000668
 12 1.506963 0.000001 0.000000 -0.000000 0.000000 -0.139626
 13 0.798351 -0.000001 0.000001 -0.000000 -0.000000 -0.113446
 14 1.468323 0.000000 -0.000000 0.000000 0.000000 0.000000
 15 3.950302 -0.539875 -2.108870 -0.000806 0.157080 -0.000126
 16 1.545799 0.000000 0.000002 -0.000000 0.000000 0.471239
 17 1.667396 -0.000000 -0.000000 0.000000 -0.000000 0.436332
 18 1.530149 0.000000 -0.000001 0.000000 0.000000 0.000000
 19 3.899459 -0.475376 -1.170890 -0.000796 -0.000000 0.000000
 20 1.528216 -0.000000 -0.000000 0.000000 -0.000000 0.331613
 21 1.528215 -0.000000 -0.000001 0.000000 0.000000 0.479966
 22 1.940835 0.000000 0.000001 0.000000 0.000000 0.000000
 23 3.899459 -0.431804 0.168227 -0.000796 -0.000000 0.000000
 24 1.506963 -0.000000 -0.000000 -0.000000 -0.000000 0.427606
 25 1.506963 -0.000000 -0.000000 0.000000 0.000000 0.340339
 26 1.506965 -0.000000 -0.000001 0.000000 0.000000 0.000000
 27 3.915633 -0.278019 1.402611 -0.000796 -0.000000 0.000000
 28 1.333086 -0.000000 0.000000 0.000000 0.000000 0.637045
 29 1.159202 -0.000000 0.000000 0.000000 -0.000000 0.218166
 30 1.341584 0.000000 -0.000000 0.000000 0.000000 0.000000
 31 0.000007 0.011450 -1.352403 -0.000014 1.370796 3.140783
 32 6.078088 -0.000000 0.000001 0.624747 -0.939614 -0.778240
 33 13.446753 0.000001 0.000000 0.000000 0.000000 -1.341447
 34 15.996999 0.000000 0.000001 1.709648 -0.089703 -0.140984
 35 1.885327 0.833276 2.177877 1.264229 -0.638131 0.530106
 36 1.506965 0.000001 0.000001 0.000000 0.000000 -0.488692
 37 0.798349 -0.000000 0.000001 -0.000000 -0.000000 -0.986111
 38 1.468325 -0.000001 0.000001 0.000000 0.000000 3.141593
 39 3.950304 -0.539877 2.108872 -0.037816 0.038147 -0.197091
 40 1.545798 0.000000 -0.000001 -0.000000 0.000000 1.396263
 41 1.667398 -0.000001 0.000000 -0.000000 -0.000000 1.466077
 42 1.530149 0.000000 0.000001 0.000000 0.000000 3.141593
 43 3.899460 -0.475377 1.170891 -0.069015 0.069834 -0.026124
 44 1.528216 0.000000 0.000001 -0.000000 0.000000 1.047198
 45 1.528216 0.000001 -0.000002 -0.000000 -0.000000 1.815142
 46 1.940832 -0.000000 0.000002 0.000000 0.000000 3.141593
 47 3.899460 -0.431805 -0.168224 -0.003768 -0.034712 0.130951
 48 1.506962 -0.000001 0.000000 0.000000 0.000000 1.082104
 49 1.506964 0.000001 0.000000 -0.000000 -0.000000 1.727876
 50 1.506964 0.000000 0.000001 0.000000 0.000000 3.141593
 51 3.915635 -0.278021 -1.402610 0.304321 -0.057152 -0.007502
 52 1.333084 0.000002 0.000002 -0.000000 0.000000 1.265364
 53 1.159203 -0.000002 -0.000001 -0.000000 -0.000000 1.527163
 54 1.341584 0.000000 -0.000002 0.000000 0.000000 3.141593
 55 -4.443606 0.013172 3.864010 -0.000003 -3.141592 -0.100796
 56 19.320051 -0.000000 -0.000000 0.000000 0.000000 -0.200000
 57 19.320045 -0.000000 0.000000 0.000000 -0.000000 0.100000
 58 4.443612 5.602815 0.000000 -0.000000 0.000000 1.570796
 59 0.579601 -0.000000 0.000000 0.000000 0.000000 3.141593
 60 -4.443606 0.013193 -3.864010 -0.000003 -3.141592 -0.100796
 61 19.320051 0.000000 -0.000000 0.000000 0.000000 -0.200000
 62 19.320045 0.000000 0.000000 0.000000 -0.000000 0.100000
 63 4.443612 5.602815 0.000000 -0.000000 0.000000 1.570796
 64 0.579601 -0.000000 0.000000 0.000000 0.000000 0.000000
 65 15.505088 21.164101 -7.454382 3.141590 -0.000002 0.000000
time 2
  0 0.134138 -5.181461 43.181469 0.000000 0.000000 -1.570795
  1 0.000000 0.000000 -42.890667 0.000000 0.000000 1.570795
  2 0.000000 0.000000 0.000000 -1.570795 -1.570451 0.000000
  3 4.443615 -0.009642 0.000006 -0.000004 -0.000001 0.000796
  4 12.111414 -0.011445 -0.000000 0.000000 0.000000 0.000000
  5 14.374118 0.000000 -0.000000 -0.000000 0.000000 -0.000798
  6 9.660028 0.000000 -0.000000 0.000000 0.000000 0.000000
  7 0.000007 0.011442 1.352403 -0.000014 -1.370796 3.140810
  8 6.078088 -0.000000 -0.000000 -0.183946 1.264601 -0.174454
  9 13.446755 0.000000 -0.000000 -0.000000 0.000000 -0.069100
 10 15.996998 -0.000001 -0.000001 -1.683446 -0.000000 0.000000
 11 1.885327 0.833277 -2.177875 -1.598016 0.698132 -0.000668
 12 1.506963 0.000001 0.000000 -0.000000 0.000000 -0.139626
 13 0.798351 -0.000001 0.000001 -0.000000 -0.000000 -0.113446
 14 1.468323 0.000000 -0.000000 0.000000 0.000000 0.000000
 15 3.950302 -0.539875 -2.108870 -0.000806 0.157080 -0.000126
 16 1.545799 0.000000 0.000002 -0.000000 0.000000 0.471239
 17 1.667396 -0.000000 -0.000000 0.000000 -0.000000 0.436332
 18 1.530149 0.000000 -0.000001 0.000000 0.000000 0.000000
 19 3.899459 -0.475376 -1.170890 -0.000796 -0.000000 0.000000
 20 1.528216 -0.000000 -0.000000 0.000000 -0.000000 0.331613
 21 1.528215 -0.000000 -0.000001 0.000000 0.000000 0.479966
 22 1.940835 0.000000 0.000001 0.000000 0.000000 0.000000
 23 3.899459 -0.431804 0.168227 -0.000796 -0.000000 0.000000
 24 1.506963 -0.000000 -0.000000 -0.000000 -0.000000 0.427606
 25 1.506963 -0.000000 -0.000000 0.000000 0.000000 0.340339
 26 1.506965 -0.000000 -0.000001 0.000000 0.000000 0.000000
 27 3.915633 -0.278019 1.402611 -0.000796 -0.000000 0.000000
 28 1.333086 -0.000000 0.000000 0.000000 0.000000 0.637045
 29 1.159202 -0.000000 0.000000 0.000000 -0.000000 0.218166
 30 1.341584 0.000000 -0.000000 0.000000 0.000000 0.000000
 31 0.000007 0.011450 -1.352403 -0.000014 1.370796 3.140783
 32 6.078088 -0.000000 0.000001 0.617780 -0.801441 -0.933302
 33 13.446754 -0.000000 0.000000 0.000000 0.000000 -1.289422
 34 15.996999 -0.000001 -0.000001 1.653739 -0.033831 -0.111589
 35 1.885328 0.833277 2.177876 1.264229 -0.638131 0.530106
 36 1.506964 -0.000000 0.000001 -0.000000 0.000000 -0.488692
 37 0.798346 -0.000000 0.000000 -0.000000 0.000000 -0.986111
 38 1.468323 -0.000000 0.000000 0.000000 0.000000 3.141593
 39 3.950304 -0.539876 2.108871 -0.037816 0.038147 -0.197091
 40 1.545802 0.000000 -0.000004 -0.000000 -0.000000 1.396263
 41 1.667397 0.000002 -0.000002 0.000000 0.000000 1.466077
 42 1.530150 0.000001 0.000000 0.000000 0.000000 3.141593
 43 3.899460 -0.475377 1.170891 -0.069015 0.069834 -0.026124
 44 1.528221 -0.000001 -0.000002 0.000000 -0.000000 1.047198
 45 1.528215 0.000001 0.000000 -0.000000 0.000000 1.815142
 46 1.940835 0.000001 0.000003 0.000000 0.000000 3.141593
 47 3.899460 -0.431804 -0.168224 -0.003768 -0.034712 0.130951
 48 1.506964 0.000000 -0.000002 -0.000000 0.000000 1.082104
 49 1.506963 0.000001 0.000001 -0.000000 -0.000000 1.727876
 50 1.506966 -0.000000 0.000003 0.000000 0.000000 3.141593
 51 3.915636 -0.278020 -1.402609 0.304321 -0.057152 -0.007502
 52 1.333079 0.000001 0.000000 -0.000000 -0.000000 1.265364
 53 1.159203 -0.000003 -0.000001 -0.000000 -0.000000 1.527163
 54 1.341584 0.000000 -0.000000 0.000000 0.000000 3.141593
 55 -4.443606 0.013172 3.864010 -0.000003 -3.141592 -0.100796
 56 19.320051 -0.000000 -0.000000 0.000000 0.000000 -0.200000
 57 19.320045 -0.000000 0.000000 0.000000 -0.000000 0.100000
 58 4.443612 5.602815 0.000000 -0.000000 0.000000 1.570796
 59 0.579601 -0.000000 0.000000 0.000000 0.000000 3.141593
 60 -4.443606 0.013193 -3.864010 -0.000003 -3.141592 -0.100796
 61 19.320051 0.000000 -0.000000 0.000000 0.000000 -0.200000
 62 19.320045 0.000000 0.000000 0.000000 -0.000000 0.100000
 63 4.443612 5.602815 0.000000 -0.000000 0.000000 1.570796
 64 0.579601 -0.000000 0.000000 0.000000 0.000000 0.000000
 65 15.505088 21.164101 -7.454382 3.141590 -0.000002 0.000000
time 3
  0 0.134138 -5.181461 43.181469 0.000000 0.000000 -1.570795
  1 0.000000 0.000000 -42.890667 0.000000 0.000000 1.570795
  2 0.000000 0.000000 0.000000 -1.570795 -1.570451 0.000000
  3 4.443615 -0.009642 0.000006 -0.000004 -0.000001 0.000796
  4 12.111414 -0.011445 -0.000000 0.000000 0.000000 0.000000
  5 14.374118 0.000000 -0.000000 -0.000000 0.000000 -0.000798
  6 9.660028 0.000000 -0.000000 0.000000 0.000000 0.000000
  7 0.000007 0.011442 1.352403 -0.000014 -1.370796 3.140810
  8 6.078088 -0.000000 -0.000000 -0.183946 1.264601 -0.174454
  9 13.446755 0.000000 -0.000000 -0.000000 0.000000 -0.069100
 10 15.996998 -0.000001 -0.000001 -1.683446 -0.000000 0.000000
 11 1.885327 0.833277 -2.177875 -1.598016 0.698132 -0.000668
 12 1.506963 0.000001 0.000000 -0.000000 0.000000 -0.139626
 13 0.798351 -0.000001 0.000001 -0.000000 -0.000000 -0.113446
 14 1.468323 0.000000 -0.000000 0.000000 0.000000 0.000000
 15 3.950302 -0.539875 -2.108870 -0.000806 0.157080 -0.000126
 16 1.545799 0.000000 0.000002 -0.000000 0.000000 0.471239
 17 1.667396 -0.000000 -0.000000 0.000000 -0.000000 0.436332
 18 1.530149 0.000000 -0.000001 0.000000 0.000000 0.000000
 19 3.899459 -0.475376 -1.170890 -0.000796 -0.000000 0.000000
 20 1.528216 -0.000000 -0.000000 0.000000 -0.000000 0.331613
 21 1.528215 -0.000000 -0.000001 0.000000 0.000000 0.479966
 22 1.940835 0.000000 0.000001 0.000000 0.000000 0.000000
 23 3.899459 -0.431804 0.168227 -0.000796 -0.000000 0.000000
 24 1.506963 -0.000000 -0.000000 -0.000000 -0.000000 0.427606
 25 1.506963 -0.000000 -0.000000 0.000000 0.000000 0.340339
 26 1.506965 -0.000000 -0.000001 0.000000 0.000000 0.000000
 27 3.915633 -0.278019 1.402611 -0.000796 -0.000000 0.000000
 28 1.333086 -0.000000 0.000000 0.000000 0.000000 0.637045
 29 1.159202 -0.000000 0.000000 0.000000 -0.000000 0.218166
 30 1.341584 0.000000 -0.000000 0.000000 0.000000 0.000000
 31 0.000007 0.011450 -1.352403 -0.000014 1.370796 3.140783
 32 6.078088 -0.000000 0.000001 0.586224 -0.667815 -1.069180
 33 13.446756 0.000001 0.000004 -0.000000 -0.000000 -1.236101
 34 15.997001 -0.000001 -0.000001 1.598916 0.022208 -0.090742
 35 1.885328 0.833278 2.177876 1.264229 -0.638131 0.530106
 36 1.506966 0.000002 0.000003 -0.000000 0.000000 -0.488692
 37 0.798349 -0.000003 -0.000005 0.000000 -0.000000 -0.986111
 38 1.468324 -0.000001 -0.000000 0.000000 0.000000 3.141593
 39 3.950303 -0.539874 2.108871 -0.037816 0.038147 -0.197091
 40 1.545799 0.000001 -0.000003 -0.000000 0.000000 1.396263
 41 1.667396 -0.000004 0.000004 -0.000000 0.000000 1.466077
 42 1.530150 0.000001 -0.000000 0.000000 0.000000 3.141593
 43 3.899461 -0.475375 1.170889 -0.069015 0.069834 -0.026124
 44 1.528219 -0.000001 0.000001 0.000000 0.000000 1.047198
 45 1.528216 0.000001 0.000000 0.000000 0.000000 1.815142
 46 1.940835 -0.000000 0.000001 0.000000 0.000000 3.141593
 47 3.899462 -0.431803 -0.168228 -0.003768 -0.034712 0.130951
 48 1.506964 -0.000001 0.000001 0.000000 -0.000000 1.082104
 49 1.506963 -0.000001 -0.000001 0.000000 0.000000 1.727876
 50 1.506965 -0.000000 0.000000 0.000000 0.000000 3.141593
 51 3.915636 -0.278018 -1.402612 0.304321 -0.057152 -0.007502
 52 1.333086 -0.000000 -0.000002 -0.000000 -0.000000 1.265364
 53 1.159204 0.000005 0.000003 -0.000000 -0.000000 1.527163
 54 1.341581 0.000000 -0.000001 0.000000 0.000000 3.141593
 55 -4.443606 0.013172 3.864010 -0.000003 -3.141592 -0.100796
 56 19.320051 -0.000000 -0.000000 0.000000 0.000000 -0.200000
 57 19.320045 -0.000000 0.000000 0.000000 -0.000000 0.100000
 58 4.443612 5.602815 0.000000 -0.000000 0.000000 1.570796
 59 0.579601 -0.000000 0.000000 0.000000 0.000000 3.141593
 60 -4.443606 0.013193 -3.864010 -0.000003 -3.141592 -0.100796
 61 19.320051 0.000000 -0.000000 0.000000 0.000000 -0.200000
 62 19.320045 0.000000 0.000000 0.000000 -0.000000 0.100000
 63 4.443612 5.602815 0.000000 -0.000000 0.000000 1.570796
 64 0.579601 -0.000000 0.000000 0.000000 0.000000 0.000000
 65 15.505088 21.164101 -7.454382 3.141590 -0.000002 0.000000
time 4
  0 0.134138 -5.181461 43.181469 0.000000 0.000000 -1.570795
  1 0.000000 0.000000 -42.890667 0.000000 0.000000 1.570795
  2 0.000000 0.000000 0.000000 -1.570795 -1.570451 0.000000
  3 4.443615 -0.009642 0.000006 -0.000004 -0.000001 0.000796
  4 12.111414 -0.011445 -0.000000 0.000000 0.000000 0.000000
  5 14.374118 0.000000 -0.000000 -0.000000 0.000000 -0.000798
  6 9.660028 0.000000 -0.000000 0.000000 0.000000 0.000000
  7 0.000007 0.011442 1.352403 -0.000014 -1.370796 3.140810
  8 6.078088 -0.000000 -0.000000 -0.183946 1.264601 -0.174454
  9 13.446755 0.000000 -0.000000 -0.000000 0.000000 -0.069100
 10 15.996998 -0.000001 -0.000001 -1.683446 -0.000000 0.000000
 11 1.885327 0.833277 -2.177875 -1.598016 0.698132 -0.000668
 12 1.506963 0.000001 0.000000 -0.000000 0.000000 -0.139626
 13 0.798351 -0.000001 0.000001 -0.000000 -0.000000 -0.113446
 14 1.468323 0.000000 -0.000000 0.000000 0.000000 0.000000
 15 3.950302 -0.539875 -2.108870 -0.000806 0.157080 -0.000126
 16 1.545799 0.000000 0.000002 -0.000000 0.000000 0.471239
 17 1.667396 -0.000000 -0.000000 0.000000 -0.000000 0.436332
 18 1.530149 0.000000 -0.000001 0.000000 0.000000 0.000000
 19 3.899459 -0.475376 -1.170890 -0.000796 -0.000000 0.000000
 20 1.528216 -0.000000 -0.000000 0.000000 -0.000000 0.331613
 21 1.528215 -0.000000 -0.000001 0.000000 0.000000 0.479966
 22 1.940835 0.000000 0.000001 0.000000 0.000000 0.000000
 23 3.899459 -0.431804 0.168227 -0.000796 -0.000000 0.000000
 24 1.506963 -0.000000 -0.000000 -0.000000 -0.000000 0.427606
 25 1.506963 -0.000000 -0.000000 0.000000 0.000000 0.340339
 26 1.506965 -0.000000 -0.000001 0.000000 0.000000 0.000000
 27 3.915633 -0.278019 1.402611 -0.000796 -0.000000 0.000000
 28 1.333086 -0.000000 0.000000 0.000000 0.000000 0.637045
 29 1.159202 -0.000000 0.000000 0.000000 -0.000000 0.218166
 30 1.341584 0.000000 -0.000000 0.000000 0.000000 0.000000
 31 0.000007 0.011450 -1.352403 -0.000014 1.370796 3.140783
 32 6.078088 -0.000000 0.000001 0.543811 -0.547646 -1.188882
 33 13.446752 0.000001 -0.000001 -0.000000 0.000000 -1.177594
 34 15.996999 0.000002 -0.000001 1.542233 0.073217 -0.094291
 35 1.885327 0.833279 2.177874 1.264229 -0.638131 0.530106
 36 1.506964 0.000000 -0.000000 -0.000000 0.000000 -0.488692
 37 0.798348 -0.000001 -0.000002 0.000000 0.000000 -0.986111
 38 1.468324 0.000001 0.000003 0.000000 0.000000 3.141593
 39 3.950304 -0.539875 2.108871 -0.037816 0.038147 -0.197091
 40 1.545800 -0.000001 0.000001 0.000000 -0.000000 1.396263
 41 1.667398 -0.000004 -0.000004 -0.000000 0.000000 1.466076
 42 1.530152 0.000001 0.000002 0.000000 0.000000 3.141593
 43 3.899460 -0.475375 1.170889 -0.069015 0.069834 -0.026124
 44 1.528219 -0.000001 -0.000000 -0.000000 -0.000000 1.047198
 45 1.528216 0.000003 -0.000001 0.000000 -0.000000 1.815142
 46 1.940837 0.000001 0.000003 0.000000 0.000000 3.141593
 47 3.899461 -0.431802 -0.168228 -0.003768 -0.034712 0.130951
 48 1.506962 0.000001 0.000001 0.000000 0.000000 1.082104
 49 1.506962 -0.000004 0.000002 -0.000000 -0.000000 1.727876
 50 1.506963 -0.000000 -0.000001 0.000000 0.000000 3.141593
 51 3.915635 -0.278019 -1.402610 0.304321 -0.057152 -0.007502
 52 1.333082 0.000001 -0.000000 0.000000 0.000000 1.265364
 53 1.159202 -0.000002 -0.000002 -0.000000 0.000000 1.527163
 54 1.341583 0.000000 0.000001 0.000000 0.000000 3.141593
 55 -4.443606 0.013172 3.864010 -0.000003 -3.141592 -0.100796
 56 19.320051 -0.000000 -0.000000 0.000000 0.000000 -0.200000
 57 19.320045 -0.000000 0.000000 0.000000 -0.000000 0.100000
 58 4.443612 5.602815 0.000000 -0.000000 0.000000 1.570796
 59 0.579601 -0.000000 0.000000 0.000000 0.000000 3.141593
 60 -4.443606 0.013193 -3.864010 -0.000003 -3.141592 -0.100796
 61 19.320051 0.000000 -0.000000 0.000000 0.000000 -0.200000
 62 19.320045 0.000000 0.000000 0.000000 -0.000000 0.100000
 63 4.443612 5.602815 0.000000 -0.000000 0.000000 1.570796
 64 0.579601 -0.000000 0.000000 0.000000 0.000000 0.000000
 65 15.505088 21.164101 -7.454382 3.141590 -0.000002 0.000000
time 5
  0 0.134138 -5.181461 43.181469 0.000000 0.000000 -1.570795
  1 0.000000 0.000000 -42.890667 0.000000 0.000000 1.570795
  2 0.000000 0.000000 0.000000 -1.570795 -1.570451 0.000000
  3 4.443615 -0.009642 0.000006 -0.000004 -0.000001 0.000796
  4 12.111414 -0.011445 -0.000000 0.000000 0.000000 0.000000
  5 14.374118 0.000000 -0.000000 -0.000000 0.000000 -0.000798
  6 9.660028 0.000000 -0.000000 0.000000 0.000000 0.000000
  7 0.000007 0.011442 1.352403 -0.000014 -1.370796 3.140810
  8 6.078088 -0.000000 -0.000000 -0.183946 1.264601 -0.174454
  9 13.446755 0.000000 -0.000000 -0.000000 0.000000 -0.069100
 10 15.996998 -0.000001 -0.000001 -1.683446 -0.000000 0.000000
 11 1.885327 0.833277 -2.177875 -1.598016 0.698132 -0.000668
 12 1.506963 0.000001 0.000000 -0.000000 0.000000 -0.139626
 13 0.798351 -0.000001 0.000001 -0.000000 -0.000000 -0.113446
 14 1.468323 0.000000 -0.000000 0.000000 0.000000 0.000000
 15 3.950302 -0.539875 -2.108870 -0.000806 0.157080 -0.000126
 16 1.545799 0.000000 0.000002 -0.000000 0.000000 0.471239
 17 1.667396 -0.000000 -0.000000 0.000000 -0.000000 0.436332
 18 1.530149 0.000000 -0.000001 0.000000 0.000000 0.000000
 19 3.899459 -0.475376 -1.170890 -0.000796 -0.000000 0.000000
 20 1.528216 -0.000000 -0.000000 0.000000 -0.000000 0.331613
 21 1.528215 -0.000000 -0.000001 0.000000 0.000000 0.479966
 22 1.940835 0.000000 0.000001 0.000000 0.000000 0.000000
 23 3.899459 -0.431804 0.168227 -0.000796 -0.000000 0.000000
 24 1.506963 -0.000000 -0.000000 -0.000000 -0.000000 0.427606
 25 1.506963 -0.000000 -0.000000 0.000000 0.000000 0.340339
 26 1.506965 -0.000000 -0.000001 0.000000 0.000000 0.000000
 27 3.915633 -0.278019 1.402611 -0.000796 -0.000000 0.000000
 28 1.333086 -0.000000 0.000000 0.000000 0.000000 0.637045
 29 1.159202 -0.000000 0.000000 0.000000 -0.000000 0.218166
 30 1.341584 0.000000 -0.000000 0.000000 0.000000 0.000000
 31 0.000007 0.011450 -1.352403 -0.000014 1.370796 3.140783
 32 6.078088 -0.000000 0.000001 0.502245 -0.447698 -1.290348
 33 13.446754 0.000001 0.000001 -0.000000 -0.000000 -1.110010
 34 15.997001 0.000000 -0.000001 1.479594 0.112040 -0.137776
 35 1.885327 0.833276 2.177876 1.264229 -0.638131 0.530106
 36 1.506963 -0.000000 0.000000 -0.000000 0.000000 -0.488692
 37 0.798348 0.000000 0.000003 -0.000000 -0.000000 -0.986111
 38 1.468324 0.000000 -0.000002 0.000000 0.000000 3.141593
 39 3.950304 -0.539878 2.108871 -0.037816 0.038147 -0.197091
 40 1.545797 0.000001 -0.000001 0.000000 -0.000000 1.396263
 41 1.667398 -0.000005 -0.000001 -0.000000 -0.000000 1.466077
 42 1.530148 0.000001 0.000003 0.000000 0.000000 3.141593
 43 3.899460 -0.475379 1.170892 -0.069015 0.069834 -0.026124
 44 1.528215 0.000001 -0.000000 0.000000 -0.000000 1.047198
 45 1.528216 -0.000002 -0.000001 0.000000 0.000000 1.815142
 46 1.940835 -0.000001 -0.000001 0.000000 0.000000 3.141593
 47 3.899462 -0.431806 -0.168226 -0.003768 -0.034712 0.130951
 48 1.506962 0.000001 0.000001 -0.000000 -0.000000 1.082104
 49 1.506963 -0.000003 -0.000002 -0.000000 0.000000 1.727876
 50 1.506964 0.000001 -0.000000 0.000000 0.000000 3.141593
 51 3.915634 -0.278021 -1.402610 0.304321 -0.057152 -0.007502
 52 1.333081 0.000001 0.000001 0.000000 0.000000 1.265364
 53 1.159203 -0.000004 -0.000003 0.000000 -0.000000 1.527163
 54 1.341583 -0.000000 0.000002 0.000000 0.000000 3.141593
 55 -4.443606 0.013172 3.864010 -0.000003 -3.141592 -0.100796
 56 19.320051 -0.000000 -0.000000 0.000000 0.000000 -0.200000
 57 19.320045 -0.000000 0.000000 0.000000 -0.000000 0.100000
 58 4.443612 5.602815 0.000000 -0.000000 0.000000 1.570796
 59 0.579601 -0.000000 0.000000 0.000000 0.000000 3.141593
 60 -4.443606 0.013193 -3.864010 -0.000003 -3.141592 -0.100796
 61 19.320051 0.000000 -0.000000 0.000000 0.000000 -0.200000
 62 19.320045 0.000000 0.000000 0.000000 -0.000000 0.100000
 63 4.443612 5.602815 0.000000 -0.000000 0.000000 1.570796
 64 0.579601 -0.000000 0.000000 0.000000 0.000000 0.000000
 65 15.505088 21.164101 -7.454382 3.141590 -0.000002 0.000000
time 6
  0 0.134138 -5.181461 43.181469 0.000000 0.000000 -1.570795
  1 0.000000 0.000000 -42.890667 0.000000 0.000000 1.570795
  2 0.000000 0.000000 0.000000 -1.570795 -1.570451 0.000000
  3 4.443615 -0.009642 0.000006 -0.000004 -0.000001 0.000796
  4 12.111414 -0.011445 -0.000000 0.000000 0.000000 0.000000
  5 14.374118 0.000000 -0.000000 -0.000000 0.000000 -0.000798
  6 9.660028 0.000000 -0.000000 0.000000 0.000000 0.000000
  7 0.000007 0.011442 1.352403 -0.000014 -1.370796 3.140810
  8 6.078088 -0.000000 -0.000000 -0.183946 1.264601 -0.174454
  9 13.446755 0.000000 -0.000000 -0.000000 0.000000 -0.069100
 10 15.996998 -0.000001 -0.000001 -1.683446 -0.000000 0.000000
 11 1.885327 0.833277 -2.177875 -1.598016 0.698132 -0.000668
 12 1.506963 0.000001 0.000000 -0.000000 0.000000 -0.139626
 13 0.798351 -0.000001 0.000001 -0.000000 -0.000000 -0.113446
 14 1.468323 0.000000 -0.000000 0.000000 0.000000 0.000000
 15 3.950302 -0.539875 -2.108870 -0.000806 0.157080 -0.000126
 16 1.545799 0.000000 0.000002 -0.000000 0.000000 0.471239
 17 1.667396 -0.000000 -0.000000 0.000000 -0.000000 0.436332
 18 1.530149 0.000000 -0.000001 0.000000 0.000000 0.000000
 19 3.899459 -0.475376 -1.170890 -0.000796 -0.000000 0.000000
 20 1.528216 -0.000000 -0.000000 0.000000 -0.000000 0.331613
 21 1.528215 -0.000000 -0.000001 0.000000 0.000000 0.479966
 22 1.940835 0.000000 0.000001 0.000000 0.000000 0.000000
 23 3.899459 -0.431804 0.168227 -0.000796 -0.000000 0.000000
 24 1.506963 -0.000000 -0.000000 -0.000000 -0.000000 0.427606
 25 1.506963 -0.000000 -0.000000 0.000000 0.000000 0.340339
 26 1.506965 -0.000000 -0.000001 0.000000 0.000000 0.000000
 27 3.915633 -0.278019 1.402611 -0.000796 -0.000000 0.000000
 28 1.333086 -0.000000 0.000000 0.000000 0.000000 0.637045
 29 1.159202 -0.000000 0.000000 0.000000 -0.000000 0.218166
 30 1.341584 0.000000 -0.000000 0.000000 0.000000 0.000000
 31 0.000007 0.011450 -1.352403 -0.000014 1.370796 3.140783
 32 6.078088 -0.000000 0.000001 0.500962 -0.396132 -1.335523
 33 13.446753 -0.000002 -0.000002 0.000000 -0.000000 -0.985111
 34 15.996998 -0.000001 -0.000004 1.400343 0.095016 -0.408221
 35 1.885325 0.833276 2.177874 1.264229 -0.638131 0.530106
 36 1.506964 -0.000000 0.000001 -0.000000 -0.000000 -0.488692
 37 0.798350 0.000001 0.000003 0.000000 0.000000 -0.986111
 38 1.468324 -0.000001 -0.000002 0.000000 0.000000 3.141593
 39 3.950302 -0.539877 2.108870 -0.037816 0.038147 -0.197091
 40 1.545796 -0.000000 0.000002 -0.000000 0.000000 1.396263
 41 1.667399 0.000004 -0.000003 -0.000000 0.000000 1.466077
 42 1.530148 0.000000 0.000001 0.000000 0.000000 3.141593
 43 3.899458 -0.475378 1.170890 -0.069015 0.069834 -0.026124
 44 1.528218 -0.000002 -0.000000 0.000000 0.000000 1.047198
 45 1.528217 0.000000 -0.000002 0.000000 -0.000000 1.815142
 46 1.940838 -0.000001 0.000002 0.000000 0.000000 3.141593
 47 3.899460 -0.431806 -0.168227 -0.003768 -0.034712 0.130951
 48 1.506966 -0.000003 -0.000001 0.000000 -0.000000 1.082104
 49 1.506965 0.000003 0.000001 0.000000 0.000000 1.727876
 50 1.506964 0.000000 -0.000001 0.000000 0.000000 3.141593
 51 3.915632 -0.278020 -1.402612 0.304321 -0.057152 -0.007502
 52 1.333083 -0.000002 0.000000 0.000000 -0.000000 1.265364
 53 1.159203 0.000001 0.000003 0.000000 -0.000000 1.527163
 54 1.341584 -0.000000 -0.000002 0.000000 0.000000 3.141593
 55 -4.443606 0.013172 3.864010 -0.000003 -3.141592 -0.100796
 56 19.320051 -0.000000 -0.000000 0.000000 0.000000 -0.200000
 57 19.320045 -0.000000 0.000000 0.000000 -0.000000 0.100000
 58 4.443612 5.602815 0.000000 -0.000000 0.000000 1.570796
 59 0.579601 -0.000000 0.000000 0.000000 0.000000 3.141593
 60 -4.443606 0.013193 -3.864010 -0.000003 -3.141592 -0.100796
 61 19.320051 0.000000 -0.000000 0.000000 0.000000 -0.200000
 62 19.320045 0.000000 0.000000 0.000000 -0.000000 0.100000
 63 4.443612 5.602815 0.000000 -0.000000 0.000000 1.570796
 64 0.579601 -0.000000 0.000000 0.000000 0.000000 0.000000
 65 15.505088 21.164101 -7.454382 3.141590 -0.000002 0.000000
time 7
  0 0.134138 -5.181461 43.181469 0.000000 0.000000 -1.570795
  1 0.000000 0.000000 -42.890667 0.000000 0.000000 1.570795
  2 0.000000 0.000000 0.000000 -1.570795 -1.570451 0.000000
  3 4.443615 -0.009642 0.000006 -0.000004 -0.000001 0.000796
  4 12.111414 -0.011445 -0.000000 0.000000 0.000000 0.000000
  5 14.374118 0.000000 -0.000000 -0.000000 0.000000 -0.000798
  6 9.660028 0.000000 -0.000000 0.000000 0.000000 0.000000
  7 0.000007 0.011442 1.352403 -0.000014 -1.370796 3.140810
  8 6.078088 -0.000000 -0.000000 -0.183946 1.264601 -0.174454
  9 13.446755 0.000000 -0.000000 -0.000000 0.000000 -0.069100
 10 15.996998 -0.000001 -0.000001 -1.683446 -0.000000 0.000000
 11 1.885327 0.833277 -2.177875 -1.598016 0.698132 -0.000668
 12 1.506963 0.000001 0.000000 -0.000000 0.000000 -0.139626
 13 0.798351 -0.000001 0.000001 -0.000000 -0.000000 -0.113446
 14 1.468323 0.000000 -0.000000 0.000000 0.000000 0.000000
 15 3.950302 -0.539875 -2.108870 -0.000806 0.157080 -0.000126
 16 1.545799 0.000000 0.000002 -0.000000 0.000000 0.471239
 17 1.667396 -0.000000 -0.000000 0.000000 -0.000000 0.436332
 18 1.530149 0.000000 -0.000001 0.000000 0.000000 0.000000
 19 3.899459 -0.475376 -1.170890 -0.000796 -0.000000 0.000000
 20 1.528216 -0.000000 -0.000000 0.000000 -0.000000 0.331613
 21 1.528215 -0.000000 -0.000001 0.000000 0.000000 0.479966
 22 1.940835 0.000000 0.000001 0.000000 0.000000 0.000000
 23 3.899459 -0.431804 0.168227 -0.000796 -0.000000 0.000000
 24 1.506963 -0.000000 -0.000000 -0.000000 -0.000000 0.427606
 25 1.506963 -0.000000 -0.000000 0.000000 0.000000 0.340339
 26 1.506965 -0.000000 -0.000001 0.000000 0.000000 0.000000
 27 3.915633 -0.278019 1.402611 -0.000796 -0.000000 0.000000
 28 1.333086 -0.000000 0.000000 0.000000 0.000000 0.637045
 29 1.159202 -0.000000 0.000000 0.000000 -0.000000 0.218166
 30 1.341584 0.000000 -0.000000 0.000000 0.000000 0.000000
 31 0.000007 0.011450 -1.352403 -0.000014 1.370796 3.140783
 32 6.078088 -0.000000 0.000001 0.548618 -0.407683 -1.324523
 33 13.446752 0.000000 -0.000002 0.000000 0.000000 -0.882131
 34 15.997000 0.000000 0.000001 1.316527 0.024951 -0.597445
 35 1.885329 0.833275 2.177876 1.264229 -0.638131 0.530106
 36 1.506963 -0.000001 -0.000002 0.000000 -0.000000 -0.488692
 37 0.798349 0.000001 -0.000001 0.000000 0.000000 -0.986111
 38 1.468323 0.000000 -0.000000 0.000000 0.000000 3.141593
 39 3.950304 -0.539877 2.108870 -0.037816 0.038147 -0.197091
 40 1.545800 -0.000002 -0.000001 -0.000000 -0.000000 1.396263
 41 1.667398 0.000003 -0.000002 -0.000000 0.000000 1.466077
 42 1.530149 0.000001 0.000003 0.000000 0.000000 3.141593
 43 3.899462 -0.475378 1.170889 -0.069015 0.069834 -0.026124
 44 1.528215 -0.000001 0.000001 0.000000 0.000000 1.047198
 45 1.528218 -0.000004 -0.000005 0.000000 -0.000000 1.815142
 46 1.940837 0.000001 0.000001 0.000000 0.000000 3.141593
 47 3.899461 -0.431804 -0.168228 -0.003768 -0.034712 0.130951
 48 1.506962 -0.000000 -0.000000 0.000000 0.000000 1.082104
 49 1.506962 -0.000002 0.000001 -0.000000 0.000000 1.727876
 50 1.506962 -0.000001 0.000000 0.000000 0.000000 3.141593
 51 3.915635 -0.278020 -1.402612 0.304321 -0.057152 -0.007502
 52 1.333084 0.000000 0.000003 0.000000 -0.000000 1.265364
 53 1.159203 -0.000001 -0.000001 -0.000000 0.000000 1.527163
 54 1.341581 0.000000 0.000001 0.000000 0.000000 3.141593
 55 -4.443606 0.013172 3.864010 -0.000003 -3.141592 -0.100796
 56 19.320051 -0.000000 -0.000000 0.000000 0.000000 -0.200000
 57 19.320045 -0.000000 0.000000 0.000000 -0.000000 0.100000
 58 4.443612 5.602815 0.000000 -0.000000 0.000000 1.570796
 59 0.579601 -0.000000 0.000000 0.000000 0.000000 3.141593
 60 -4.443606 0.013193 -3.864010 -0.000003 -3.141592 -0.100796
 61 19.320051 0.000000 -0.000000 0.000000 0.000000 -0.200000
 62 19.320045 0.000000 0.000000 0.000000 -0.000000 0.100000
 63 4.443612 5.602815 0.000000 -0.000000 0.000000 1.570796
 64 0.579601 -0.000000 0.000000 0.000000 0.000000 0.000000
 65 15.505088 21.164101 -7.454382 3.141590 -0.000002 0.000000
time 8
  0 0.134138 -5.181461 43.181469 0.000000 0.000000 -1.570795
  1 0.000000 0.000000 -42.890667 0.000000 0.000000 1.570795
  2 0.000000 0.000000 0.000000 -1.570795 -1.570451 0.000000
  3 4.443615 -0.009642 0.000006 -0.000004 -0.000001 0.000796
  4 12.111414 -0.011445 -0.000000 0.000000 0.000000 0.000000
  5 14.374118 0.000000 -0.000000 -0.000000 0.000000 -0.000798
  6 9.660028 0.000000 -0.000000 0.000000 0.000000 0.000000
  7 0.000007 0.011442 1.352403 -0.000014 -1.370796 3.140810
  8 6.078088 -0.000000 -0.000000 -0.183946 1.264601 -0.174454
  9 13.446755 0.000000 -0.000000 -0.000000 0.000000 -0.069100
 10 15.996998 -0.000001 -0.000001 -1.683446 -0.000000 0.000000
 11 1.885327 0.833277 -2.177875 -1.598016 0.698132 -0.000668
 12 1.506963 0.000001 0.000000 -0.000000 0.000000 -0.139626
 13 0.798351 -0.000001 0.000001 -0.000000 -0.000000 -0.113446
 14 1.468323 0.000000 -0.000000 0.000000 0.000000 0.000000
 15 3.950302 -0.539875 -2.108870 -0.000806 0.157080 -0.000126
 16 1.545799 0.000000 0.000002 -0.000000 0.000000 0.471239
 17 1.667396 -0.000000 -0.000000 0.000000 -0.000000 0.436332
 18 1.530149 0.000000 -0.000001 0.000000 0.000000 0.000000
 19 3.899459 -0.475376 -1.170890 -0.000796 -0.000000 0.000000
 20 1.528216 -0.000000 -0.000000 0.000000 -0.000000 0.331613
 21 1.528215 -0.000000 -0.000001 0.000000 0.000000 0.479966
 22 1.940835 0.000000 0.000001 0.000000 0.000000 0.000000
 23 3.899459 -0.431804 0.168227 -0.000796 -0.000000 0.000000
 24 1.506963 -0.000000 -0.000000 -0.000000 -0.000000 0.427606
 25 1.506963 -0.000000 -0.000000 0.000000 0.000000 0.340339
 26 1.506965 -0.000000 -0.000001 0.000000 0.000000 0.000000
 27 3.915633 -0.278019 1.402611 -0.000796 -0.000000 0.000000
 28 1.333086 -0.000000 0.000000 0.000000 0.000000 0.637045
 29 1.159202 -0.000000 0.000000 0.000000 -0.000000 0.218166
 30 1.341584 0.000000 -0.000000 0.000000 0.000000 0.000000
 31 0.000007 0.011450 -1.352403 -0.000014 1.370796 3.140783
 32 6.078088 -0.000000 0.000001 0.620884 -0.469662 -1.292216
 33 13.446754 -0.000003 -0.000000 -0.000000 0.000000 -0.882596
 34 15.997001 0.000000 -0.000002 1.200141 -0.039659 -0.368416
 35 1.885326 0.833276 2.177876 1.264229 -0.638131 0.530106
 36 1.506964 -0.000001 0.000000 -0.000000 -0.000000 -0.488692
 37 0.798349 0.000001 0.000001 0.000000 0.000000 -0.986111
 38 1.468325 -0.000000 0.000001 0.000000 0.000000 3.141593
 39 3.950303 -0.539877 2.108870 -0.037816 0.038147 -0.197091
 40 1.545793 -0.000002 0.000002 0.000000 0.000000 1.396263
 41 1.667397 -0.000003 -0.000001 -0.000000 0.000000 1.466077
 42 1.530145 0.000000 -0.000001 0.000000 0.000000 3.141593
 43 3.899459 -0.475376 1.170889 -0.069015 0.069834 -0.026124
 44 1.528214 -0.000000 -0.000001 -0.000000 -0.000000 1.047198
 45 1.528216 -0.000005 -0.000000 0.000000 0.000000 1.815142
 46 1.940834 0.000000 -0.000000 0.000000 0.000000 3.141593
 47 3.899458 -0.431804 -0.168226 -0.003768 -0.034712 0.130951
 48 1.506965 -0.000001 -0.000000 0.000000 0.000000 1.082104
 49 1.506963 0.000003 0.000001 0.000000 0.000000 1.727876
 50 1.506966 0.000000 -0.000001 0.000000 0.000000 3.141593
 51 3.915634 -0.278019 -1.402612 0.304321 -0.057152 -0.007502
 52 1.333082 -0.000000 0.000000 0.000000 0.000000 1.265364
 53 1.159204 -0.000001 -0.000001 0.000000 -0.000000 1.527163
 54 1.341585 0.000000 0.000002 0.000000 0.000000 3.141593
 55 -4.443606 0.013172 3.864010 -0.000003 -3.141592 -0.100796
 56 19.320051 -0.000000 -0.000000 0.000000 0.000000 -0.200000
 57 19.320045 -0.000000 0.000000 0.000000 -0.000000 0.100000
 58 4.443612 5.602815 0.000000 -0.000000 0.000000 1.570796
 59 0.579601 -0.000000 0.000000 0.000000 0.000000 3.141593
 60 -4.443606 0.013193 -3.864010 -0.000003 -3.141592 -0.100796
 61 19.320051 0.000000 -0.000000 0.000000 0.000000 -0.200000
 62 19.320045 0.000000 0.000000 0.000000 -0.000000 0.100000
 63 4.443612 5.602815 0.000000 -0.000000 0.000000 1.570796
 64 0.579601 -0.000000 0.000000 0.000000 0.000000 0.000000
 65 15.505088 21.164101 -7.454382 3.141590 -0.000002 0.000000
time 9
  0 0.134138 -5.181461 43.181469 0.000000 0.000000 -1.570795
  1 0.000000 0.000000 -42.890667 0.000000 0.000000 1.570795
  2 0.000000 0.000000 0.000000 -1.570795 -1.570451 0.000000
  3 4.443615 -0.009642 0.000006 -0.000004 -0.000001 0.000796
  4 12.111414 -0.011445 -0.000000 0.000000 0.000000 0.000000
  5 14.374118 0.000000 -0.000000 -0.000000 0.000000 -0.000798
  6 9.660028 0.000000 -0.000000 0.000000 0.000000 0.000000
  7 0.000007 0.011442 1.352403 -0.000014 -1.370796 3.140810
  8 6.078088 -0.000000 -0.000000 -0.183946 1.264601 -0.174454
  9 13.446755 0.000000 -0.000000 -0.000000 0.000000 -0.069100
 10 15.996998 -0.000001 -0.000001 -1.683446 -0.000000 0.000000
 11 1.885327 0.833277 -2.177875 -1.598016 0.698132 -0.000668
 12 1.506963 0.000001 0.000000 -0.000000 0.000000 -0.139626
 13 0.798351 -0.000001 0.000001 -0.000000 -0.000000 -0.113446
 14 1.468323 0.000000 -0.000000 0.000000 0.000000 0.000000
 15 3.950302 -0.539875 -2.108870 -0.000806 0.157080 -0.000126
 16 1.545799 0.000000 0.000002 -0.000000 0.000000 0.471239
 17 1.667396 -0.000000 -0.000000 0.000000 -0.000000 0.436332
 18 1.530149 0.000000 -0.000001 0.000000 0.000000 0.000000
 19 3.899459 -0.475376 -1.170890 -0.000796 -0.000000 0.000000
 20 1.528216 -0.000000 -0.000000 0.000000 -0.000000 0.331613
 21 1.528215 -0.000000 -0.000001 0.000000 0.000000 0.479966
 22 1.940835 0.000000 0.000001 0.000000 0.000000 0.000000
 23 3.899459 -0.431804 0.168227 -0.000796 -0.000000 0.000000
 24 1.506963 -0.000000 -0.000000 -0.000000 -0.000000 0.427606
 25 1.506963 -0.000000 -0.000000 0.000000 0.000000 0.340339
 26 1.506965 -0.000000 -0.000001 0.000000 0.000000 0.000000
 27 3.915633 -0.278019 1.402611 -0.000796 -0.000000 0.000000
 28 1.333086 -0.000000 0.000000 0.000000 0.000000 0.637045
 29 1.159202 -0.000000 0.000000 0.000000 -0.000000 0.218166
 30 1.341584 0.000000 -0.000000 0.000000 0.000000 0.000000
 31 0.000007 0.011450 -1.352403 -0.000014 1.370796 3.140783
 32 6.078088 -0.000000 0.000001 0.708818 -0.561564 -1.250078
 33 13.446752 0.000001 -0.000001 -0.000000 0.000000 -0.920552
 34 15.997001 -0.000002 -0.000003 1.059235 -0.050720 0.006185
 35 1.885325 0.833275 2.177876 1.264229 -0.638131 0.530106
 36 1.506965 -0.000001 0.000003 0.000000 0.000000 -0.488692
 37 0.798351 -0.000002 -0.000002 0.000000 -0.000000 -0.986111
 38 1.468323 -0.000000 -0.000000 0.000000 0.000000 3.141593
 39 3.950304 -0.539877 2.108870 -0.037816 0.038147 -0.197091
 40 1.545796 0.000002 -0.000001 0.000000 0.000000 1.396263
 41 1.667396 0.000000 0.000000 -0.000000 -0.000000 1.466077
 42 1.530146 -0.000001 -0.000000 0.000000 0.000000 3.141593
 43 3.899460 -0.475380 1.170891 -0.069015 0.069834 -0.026124
 44 1.528214 0.000002 0.000000 -0.000000 -0.000000 1.047198
 45 1.528217 -0.000004 0.000000 -0.000000 0.000000 1.815142
 46 1.940837 0.000000 0.000000 0.000000 0.000000 3.141593
 47 3.899461 -0.431805 -0.168227 -0.003768 -0.034712 0.130951
 48 1.506960 0.000001 0.000001 0.000000 -0.000000 1.082104
 49 1.506966 -0.000000 -0.000002 0.000000 0.000000 1.727876
 50 1.506964 0.000002 0.000001 0.000000 0.000000 3.141593
 51 3.915636 -0.278021 -1.402610 0.304321 -0.057152 -0.007502
 52 1.333084 -0.000001 0.000001 -0.000000 -0.000000 1.265364
 53 1.159204 -0.000001 0.000000 -0.000000 -0.000000 1.527163
 54 1.341587 -0.000000 -0.000001 0.000000 0.000000 3.141593
 55 -4.443606 0.013172 3.864010 -0.000003 -3.141592 -0.100796
 56 19.320051 -0.000000 -0.000000 0.000000 0.000000 -0.200000
 57 19.320045 -0.000000 0.000000 0.000000 -0.000000 0.100000
 58 4.443612 5.602815 0.000000 -0.000000 0.000000 1.570796
 59 0.579601 -0.000000 0.000000 0.000000 0.000000 3.141593
 60 -4.443606 0.013193 -3.864010 -0.000003 -3.141592 -0.100796
 61 19.320051 0.000000 -0.000000 0.000000 0.000000 -0.200000
 62 19.320045 0.000000 0.000000 0.000000 -0.000000 0.100000
 63 4.443612 5.602815 0.000000 -0.000000 0.000000 1.570796
 64 0.579601 -0.000000 0.000000 0.000000 0.000000 0.000000
 65 15.505088 21.164101 -7.454382 3.141590 -0.000002 0.000000
time 10
  0 0.134138 -5.181461 43.181469 0.000000 0.000000 -1.570795
  1 0.000000 0.000000 -42.890667 0.000000 0.000000 1.570795
  2 0.000000 0.000000 0.000000 -1.570795 -1.570451 0.000000
  3 4.443615 -0.009642 0.000006 -0.000004 -0.000001 0.000796
  4 12.111414 -0.011445 -0.000000 0.000000 0.000000 0.000000
  5 14.374118 0.000000 -0.000000 -0.000000 0.000000 -0.000798
  6 9.660028 0.000000 -0.000000 0.000000 0.000000 0.000000
  7 0.000007 0.011442 1.352403 -0.000014 -1.370796 3.140810
  8 6.078088 -0.000000 -0.000000 -0.183946 1.264601 -0.174454
  9 13.446755 0.000000 -0.000000 -0.000000 0.000000 -0.069100
 10 15.996998 -0.000001 -0.000001 -1.683446 -0.000000 0.000000
 11 1.885327 0.833277 -2.177875 -1.598016 0.698132 -0.000668
 12 1.506963 0.000001 0.000000 -0.000000 0.000000 -0.139626
 13 0.798351 -0.000001 0.000001 -0.000000 -0.000000 -0.113446
 14 1.468323 0.000000 -0.000000 0.000000 0.000000 0.000000
 15 3.950302 -0.539875 -2.108870 -0.000806 0.157080 -0.000126
 16 1.545799 0.000000 0.000002 -0.000000 0.000000 0.471239
 17 1.667396 -0.000000 -0.000000 0.000000 -0.000000 0.436332
 18 1.530149 0.000000 -0.000001 0.000000 0.000000 0.000000
 19 3.899459 -0.475376 -1.170890 -0.000796 -0.000000 0.000000
 20 1.528216 -0.000000 -0.000000 0.000000 -0.000000 0.331613
 21 1.528215 -0.000000 -0.000001 0.000000 0.000000 0.479966
 22 1.940835 0.000000 0.000001 0.000000 0.000000 0.000000
 23 3.899459 -0.431804 0.168227 -0.000796 -0.000000 0.000000
 24 1.506963 -0.000000 -0.000000 -0.000000 -0.000000 0.427606
 25 1.506963 -0.000000 -0.000000 0.000000 0.000000 0.340339
 26 1.506965 -0.000000 -0.000001 0.000000 0.000000 0.000000
 27 3.915633 -0.278019 1.402611 -0.000796 -0.000000 0.000000
 28 1.333086 -0.000000 0.000000 0.000000 0.000000 0.637045
 29 1.159202 -0.000000 0.000000 0.000000 -0.000000 0.218166
 30 1.341584 0.000000 -0.000000 0.000000 0.000000 0.000000
 31 0.000007 0.011450 -1.352403 -0.000014 1.370796 3.140783
 32 6.078088 -0.000000 0.000001 0.797208 -0.657330 -1.214755
 33 13.446750 -0.000001 0.000001 0.000000 0.000000 -0.962104
 34 15.996999 0.000000 -0.000000 0.966259 0.035954 0.309028
 35 1.885329 0.833275 2.177877 1.264229 -0.638131 0.530106
 36 1.506964 -0.000001 -0.000000 0.000000 -0.000000 -0.488692
 37 0.798348 0.000001 0.000001 -0.000000 0.000000 -0.986111
 38 1.468325 0.000001 0.000001 0.000000 0.000000 3.141593
 39 3.950306 -0.539877 2.108872 -0.037816 0.038147 -0.197091
 40 1.545796 -0.000000 -0.000001 0.000000 -0.000000 1.396263
 41 1.667397 0.000001 -0.000001 -0.000000 0.000000 1.466077
 42 1.530147 0.000000 -0.000001 0.000000 0.000000 3.141593
 43 3.899461 -0.475376 1.170891 -0.069015 0.069834 -0.026124
 44 1.528216 0.000004 -0.000001 0.000000 0.000000 1.047198
 45 1.528211 -0.000002 0.000003 0.000000 0.000000 1.815142
 46 1.940835 -0.000001 0.000000 0.000000 0.000000 3.141593
 47 3.899464 -0.431803 -0.168225 -0.003768 -0.034712 0.130951
 48 1.506965 -0.000002 0.000001 -0.000000 0.000000 1.082104
 49 1.506963 -0.000000 -0.000000 -0.000000 -0.000000 1.727876
 50 1.506965 -0.000001 0.000001 0.000000 0.000000 3.141593
 51 3.915637 -0.278021 -1.402608 0.304321 -0.057152 -0.007502
 52 1.333084 -0.000003 0.000003 -0.000000 -0.000000 1.265364
 53 1.159203 0.000001 -0.000001 0.000000 0.000000 1.527163
 54 1.341587 -0.000001 -0.000002 0.000000 0.000000 3.141593
 55 -4.443606 0.013172 3.864010 -0.000003 -3.141592 -0.100796
 56 19.320051 -0.000000 -0.000000 0.000000 0.000000 -0.200000
 57 19.320045 -0.000000 0.000000 0.000000 -0.000000 0.100000
 58 4.443612 5.602815 0.000000 -0.000000 0.000000 1.570796
 59 0.579601 -0.000000 0.000000 0.000000 0.000000 3.141593
 60 -4.443606 0.013193 -3.864010 -0.000003 -3.141592 -0.100796
 61 19.320051 0.000000 -0.000000 0.000000 0.000000 -0.200000
 62 19.320045 0.000000 0.000000 0.000000 -0.000000 0.100000
 63 4.443612 5.602815 0.000000 -0.000000 0.000000 1.570796
 64 0.579601 -0.000000 0.000000 0.000000 0.000000 0.000000
 65 15.505088 21.164101 -7.454382 3.141590 -0.000002 0.000000
time 11
  0 0.134138 -5.181461 43.181469 0.000000 0.000000 -1.570795
  1 0.000000 0.000000 -42.890667 0.000000 0.000000 1.570795
  2 0.000000 0.000000 0.000000 -1.570795 -1.570451 0.000000
  3 4.443615 -0.009642 0.000006 -0.000004 -0.000001 0.000796
  4 12.111414 -0.011445 -0.000000 0.000000 0.000000 0.000000
  5 14.374118 0.000000 -0.000000 -0.000000 0.000000 -0.000798
  6 9.660028 0.000000 -0.000000 0.000000 0.000000 0.000000
  7 0.000007 0.011442 1.352403 -0.000014 -1.370796 3.140810
  8 6.078088 -0.000000 -0.000000 -0.183946 1.264601 -0.174454
  9 13.446755 0.000000 -0.000000 -0.000000 0.000000 -0.069100
 10 15.996998 -0.000001 -0.000001 -1.683446 -0.000000 0.000000
 11 1.885327 0.833277 -2.177875 -1.598016 0.698132 -0.000668
 12 1.506963 0.000001 0.000000 -0.000000 0.000000 -0.139626
 13 0.798351 -0.000001 0.000001 -0.000000 -0.000000 -0.113446
 14 1.468323 0.000000 -0.000000 0.000000 0.000000 0.000000
 15 3.950302 -0.539875 -2.108870 -0.000806 0.157080 -0.000126
 16 1.545799 0.000000 0.000002 -0.000000 0.000000 0.471239
 17 1.667396 -0.000000 -0.000000 0.000000 -0.000000 0.436332
 18 1.530149 0.000000 -0.000001 0.000000 0.000000 0.000000
 19 3.899459 -0.475376 -1.170890 -0.000796 -0.000000 0.000000
 20 1.528216 -0.000000 -0.000000 0.000000 -0.000000 0.331613
 21 1.528215 -0.000000 -0.000001 0.000000 0.000000 0.479966
 22 1.940835 0.000000 0.000001 0.000000 0.000000 0.000000
 23 3.899459 -0.431804 0.168227 -0.000796 -0.000000 0.000000
 24 1.506963 -0.000000 -0.000000 -0.000000 -0.000000 0.427606
 25 1.506963 -0.000000 -0.000000 0.000000 0.000000 0.340339
 26 1.506965 -0.000000 -0.000001 0.000000 0.000000 0.000000
 27 3.915633 -0.278019 1.402611 -0.000796 -0.000000 0.000000
 28 1.333086 -0.000000 0.000000 0.000000 0.000000 0.637045
 29 1.159202 -0.000000 0.000000 0.000000 -0.000000 0.218166
 30 1.341584 0.000000 -0.000000 0.000000 0.000000 0.000000
 31 0.000007 0.011450 -1.352403 -0.000014 1.370796 3.140783
 32 6.078088 -0.000000 0.000001 0.893948 -0.755694 -1.187774
 33 13.446753 0.000001 0.000000 0.000000 0.000000 -1.003564
 34 15.996998 0.000000 0.000000 1.004045 0.270447 0.405376
 35 1.885329 0.833278 2.177874 1.264229 -0.638131 0.530106
 36 1.506964 0.000001 0.000003 -0.000000 0.000000 -0.488692
 37 0.798351 -0.000001 -0.000002 0.000000 -0.000000 -0.986111
 38 1.468323 0.000000 0.000003 0.000000 0.000000 3.141593
 39 3.950307 -0.539875 2.108870 -0.037816 0.038147 -0.197091
 40 1.545798 0.000003 -0.000000 0.000000 -0.000000 1.396263
 41 1.667397 -0.000000 -0.000000 -0.000000 0.000000 1.466077
 42 1.530148 -0.000000 0.000000 0.000000 0.000000 3.141593
 43 3.899461 -0.475375 1.170889 -0.069015 0.069834 -0.026124
 44 1.528217 -0.000003 0.000000 0.000000 -0.000000 1.047198
 45 1.528217 0.000000 -0.000000 0.000000 0.000000 1.815142
 46 1.940835 -0.000003 -0.000001 0.000000 0.000000 3.141593
 47 3.899460 -0.431801 -0.168228 -0.003768 -0.034712 0.130951
 48 1.506965 0.000002 -0.000001 -0.000000 0.000000 1.082104
 49 1.506964 0.000003 -0.000002 -0.000000 0.000000 1.727876
 50 1.506961 -0.000000 0.000002 0.000000 0.000000 3.141593
 51 3.915635 -0.278019 -1.402611 0.304321 -0.057152 -0.007502
 52 1.333083 0.000001 -0.000001 -0.000000 -0.000000 1.265364
 53 1.159203 -0.000000 -0.000001 0.000000 -0.000000 1.527163
 54 1.341584 0.000000 0.000000 0.000000 0.000000 3.141593
 55 -4.443606 0.013172 3.864010 -0.000003 -3.141592 -0.100796
 56 19.320051 -0.000000 -0.000000 0.000000 0.000000 -0.200000
 57 19.320045 -0.000000 0.000000 0.000000 -0.000000 0.100000
 58 4.443612 5.602815 0.000000 -0.000000 0.000000 1.570796
 59 0.579601 -0.000000 0.000000 0.000000 0.000000 3.141593
 60 -4.443606 0.013193 -3.864010 -0.000003 -3.141592 -0.100796
 61 19.320051 0.000000 -0.000000 0.000000 0.000000 -0.200000
 62 19.320045 0.000000 0.000000 0.000000 -0.000000 0.100000
 63 4.443612 5.602815 0.000000 -0.000000 0.000000 1.570796
 64 0.579601 -0.000000 0.000000 0.000000 0.000000 0.000000
 65 15.505088 21.164101 -7.454382 3.141590 -0.000002 0.000000
time 12
  0 0.134138 -5.181461 43.181469 0.000000 0.000000 -1.570795
  1 0.000000 0.000000 -42.890667 0.000000 0.000000 1.570795
  2 0.000000 0.000000 0.000000 -1.570795 -1.570451 0.000000
  3 4.443615 -0.009642 0.000006 -0.000004 -0.000001 0.000796
  4 12.111414 -0.011445 -0.000000 0.000000 0.000000 0.000000
  5 14.374118 0.000000 -0.000000 -0.000000 0.000000 -0.000798
  6 9.660028 0.000000 -0.000000 0.000000 0.000000 0.000000
  7 0.000007 0.011442 1.352403 -0.000014 -1.370796 3.140810
  8 6.078088 -0.000000 -0.000000 -0.183946 1.264601 -0.174454
  9 13.446755 0.000000 -0.000000 -0.000000 0.000000 -0.069100
 10 15.996998 -0.000001 -0.000001 -1.683446 -0.000000 0.000000
 11 1.885327 0.833277 -2.177875 -1.598016 0.698132 -0.000668
 12 1.506963 0.000001 0.000000 -0.000000 0.000000 -0.139626
 13 0.798351 -0.000001 0.000001 -0.000000 -0.000000 -0.113446
 14 1.468323 0.000000 -0.000000 0.000000 0.000000 0.000000
 15 3.950302 -0.539875 -2.108870 -0.000806 0.157080 -0.000126
 16 1.545799 0.000000 0.000002 -0.000000 0.000000 0.471239
 17 1.667396 -0.000000 -0.000000 0.000000 -0.000000 0.436332
 18 1.530149 0.000000 -0.000001 0.000000 0.000000 0.000000
 19 3.899459 -0.475376 -1.170890 -0.000796 -0.000000 0.000000
 20 1.528216 -0.000000 -0.000000 0.000000 -0.000000 0.331613
 21 1.528215 -0.000000 -0.000001 0.000000 0.000000 0.479966
 22 1.940835 0.000000 0.000001 0.000000 0.000000 0.000000
 23 3.899459 -0.431804 0.168227 -0.000796 -0.000000 0.000000
 24 1.506963 -0.000000 -0.000000 -0.000000 -0.000000 0.427606
 25 1.506963 -0.000000 -0.000000 0.000000 0.000000 0.340339
 26 1.506965 -0.000000 -0.000001 0.000000 0.000000 0.000000
 27 3.915633 -0.278019 1.402611 -0.000796 -0.000000 0.000000
 28 1.333086 -0.000000 0.000000 0.000000 0.000000 0.637045
 29 1.159202 -0.000000 0.000000 0.000000 -0.000000 0.218166
 30 1.341584 0.000000 -0.000000 0.000000 0.000000 0.000000
 31 0.000007 0.011450 -1.352403 -0.000014 1.370796 3.140783
 32 6.078088 -0.000000 0.000001 0.970679 -0.841245 -1.173176
 33 13.446754 0.000001 0.000000 0.000000 0.000000 -1.042378
 34 15.997001 0.000000 -0.000000 1.081700 0.490019 0.420501
 35 1.885327 0.833278 2.177874 1.264229 -0.638131 0.530106
 36 1.506960 -0.000001 -0.000002 -0.000000 -0.000000 -0.488692
 37 0.798353 0.000002 0.000003 0.000000 -0.000000 -0.986111
 38 1.468323 -0.000002 0.000000 0.000000 0.000000 3.141593
 39 3.950303 -0.539877 2.108872 -0.037816 0.038147 -0.197091
 40 1.545797 -0.000001 -0.000001 0.000000 0.000000 1.396263
 41 1.667397 0.000001 -0.000004 0.000000 0.000000 1.466077
 42 1.530148 0.000000 0.000001 0.000000 0.000000 3.141593
 43 3.899460 -0.475376 1.170891 -0.069015 0.069834 -0.026124
 44 1.528215 0.000001 0.000001 0.000000 -0.000000 1.047198
 45 1.528217 -0.000001 0.000002 0.000000 -0.000000 1.815142
 46 1.940836 -0.000001 0.000000 0.000000 0.000000 3.141593
 47 3.899461 -0.431803 -0.168224 -0.003768 -0.034712 0.130951
 48 1.506962 0.000000 -0.000002 0.000000 0.000000 1.082104
 49 1.506963 -0.000005 0.000006 -0.000000 0.000000 1.727876
 50 1.506964 -0.000000 -0.000000 0.000000 0.000000 3.141593
 51 3.915635 -0.278018 -1.402609 0.304321 -0.057152 -0.007502
 52 1.333082 -0.000000 0.000001 -0.000000 -0.000000 1.265364
 53 1.159204 -0.000000 -0.000000 0.000000 0.000000 1.527163
 54 1.341583 -0.000000 0.000000 0.000000 0.000000 3.141593
 55 -4.443606 0.013172 3.864010 -0.000003 -3.141592 -0.100796
 56 19.320051 -0.000000 -0.000000 0.000000 0.000000 -0.200000
 57 19.320045 -0.000000 0.000000 0.000000 -0.000000 0.100000
 58 4.443612 5.602815 0.000000 -0.000000 0.000000 1.570796
 59 0.579601 -0.000000 0.000000 0.000000 0.000000 3.141593
 60 -4.443606 0.013193 -3.864010 -0.000003 -3.141592 -0.100796
 61 19.320051 0.000000 -0.000000 0.000000 0.000000 -0.200000
 62 19.320045 0.000000 0.000000 0.000000 -0.000000 0.100000
 63 4.443612 5.602815 0.000000 -0.000000 0.000000 1.570796
 64 0.579601 -0.000000 0.000000 0.000000 0.000000 0.000000
 65 15.505088 21.164101 -7.454382 3.141590 -0.000002 0.000000
time 13
  0 0.134138 -5.181461 43.181469 0.000000 0.000000 -1.570795
  1 0.000000 0.000000 -42.890667 0.000000 0.000000 1.570795
  2 0.000000 0.000000 0.000000 -1.570795 -1.570451 0.000000
  3 4.443615 -0.009642 0.000006 -0.000004 -0.000001 0.000796
  4 12.111414 -0.011445 -0.000000 0.000000 0.000000 0.000000
  5 14.374118 0.000000 -0.000000 -0.000000 0.000000 -0.000798
  6 9.660028 0.000000 -0.000000 0.000000 0.000000 0.000000
  7 0.000007 0.011442 1.352403 -0.000014 -1.370796 3.140810
  8 6.078088 -0.000000 -0.000000 -0.183946 1.264601 -0.174454
  9 13.446755 0.000000 -0.000000 -0.000000 0.000000 -0.069100
 10 15.996998 -0.000001 -0.000001 -1.683446 -0.000000 0.000000
 11 1.885327 0.833277 -2.177875 -1.598016 0.698132 -0.000668
 12 1.506963 0.000001 0.000000 -0.000000 0.000000 -0.139626
 13 0.798351 -0.000001 0.000001 -0.000000 -0.000000 -0.113446
 14 1.468323 0.000000 -0.000000 0.000000 0.000000 0.000000
 15 3.950302 -0.539875 -2.108870 -0.000806 0.157080 -0.000126
 16 1.545799 0.000000 0.000002 -0.000000 0.000000 0.471239
 17 1.667396 -0.000000 -0.000000 0.000000 -0.000000 0.436332
 18 1.530149 0.000000 -0.000001 0.000000 0.000000 0.000000
 19 3.899459 -0.475376 -1.170890 -0.000796 -0.000000 0.000000
 20 1.528216 -0.000000 -0.000000 0.000000 -0.000000 0.331613
 21 1.528215 -0.000000 -0.000001 0.000000 0.000000 0.479966
 22 1.940835 0.000000 0.000001 0.000000 0.000000 0.000000
 23 3.899459 -0.431804 0.168227 -0.000796 -0.000000 0.000000
 24 1.506963 -0.000000 -0.000000 -0.000000 -0.000000 0.427606
 25 1.506963 -0.000000 -0.000000 0.000000 0.000000 0.340339
 26 1.506965 -0.000000 -0.000001 0.000000 0.000000 0.000000
 27 3.915633 -0.278019 1.402611 -0.000796 -0.000000 0.000000
 28 1.333086 -0.000000 0.000000 0.000000 0.000000 0.637045
 29 1.159202 -0.000000 0.000000 0.000000 -0.000000 0.218166
 30 1.341584 0.000000 -0.000000 0.000000 0.000000 0.000000
 31 0.000007 0.011450 -1.352403 -0.000014 1.370796 3.140783
 32 6.078088 -0.000000 0.000001 0.909592 -0.841245 -1.173176
 33 13.446754 -0.000000 -0.000001 -0.000000 -0.000000 -1.042378
 34 15.996999 -0.000002 0.000001 1.033414 0.337005 0.317815
 35 1.885328 0.833278 2.177877 1.264229 -0.638131 0.530106
 36 1.506961 0.000001 -0.000001 0.000000 -0.000000 -0.488692
 37 0.798353 0.000000 -0.000001 -0.000000 0.000000 -0.986111
 38 1.468322 -0.000001 -0.000001 0.000000 0.000000 3.141593
 39 3.950306 -0.539876 2.108874 -0.037816 0.038147 -0.197091
 40 1.545799 0.000004 -0.000002 0.000000 -0.000000 1.396263
 41 1.667396 0.000001 0.000001 0.000000 0.000000 1.466077
 42 1.530146 0.000001 0.000003 0.000000 0.000000 3.141593
 43 3.899461 -0.475378 1.170894 -0.069015 0.069834 -0.026124
 44 1.528219 0.000001 -0.000002 -0.000000 0.000000 1.047198
 45 1.528215 0.000001 -0.000002 -0.000000 0.000000 1.815142
 46 1.940835 0.000000 0.000001 0.000000 0.000000 3.141593
 47 3.899462 -0.431803 -0.168224 -0.003768 -0.034712 0.130951
 48 1.506965 -0.000001 -0.000001 0.000000 -0.000000 1.082104
 49 1.506964 0.000002 -0.000002 0.000000 0.000000 1.727876
 50 1.506965 0.000000 -0.000002 0.000000 0.000000 3.141593
 51 3.915635 -0.278019 -1.402608 0.304321 -0.057152 -0.007502
 52 1.333084 -0.000000 0.000002 -0.000000 -0.000000 1.265364
 53 1.159203 0.000003 -0.000003 0.000000 0.000000 1.527163
 54 1.341582 -0.000001 0.000001 0.000000 0.000000 3.141593
 55 -4.443606 0.013172 3.864010 -0.000003 -3.141592 -0.100796
 56 19.320051 -0.000000 -0.000000 0.000000 0.000000 -0.200000
 57 19.320045 -0.000000 0.000000 0.000000 -0.000000 0.100000
 58 4.443612 5.602815 0.000000 -0.000000 0.000000 1.570796
 59 0.579601 -0.000000 0.000000 0.000000 0.000000 3.141593
 60 -4.443606 0.013193 -3.864010 -0.000003 -3.141592 -0.100796
 61 19.320051 0.000000 -0.000000 0.000000 0.000000 -0.200000
 62 19.320045 0.000000 0.000000 0.000000 -0.000000 0.100000
 63 4.443612 5.602815 0.000000 -0.000000 0.000000 1.570796
 64 0.579601 -0.000000 0.000000 0.000000 0.000000 0.000000
 65 15.505088 21.164101 -7.454382 3.141590 -0.000002 0.000000
time 14
  0 0.134138 -5.181461 43.181469 0.000000 0.000000 -1.570795
  1 0.000000 0.000000 -42.890667 0.000000 0.000000 1.570795
  2 0.000000 0.000000 0.000000 -1.570795 -1.570451 0.000000
  3 4.443615 -0.009642 0.000006 -0.000004 -0.000001 0.000796
  4 12.111414 -0.011445 -0.000000 0.000000 0.000000 0.000000
  5 14.374118 0.000000 -0.000000 -0.000000 0.000000 -0.000798
  6 9.660028 0.000000 -0.000000 0.000000 0.000000 0.000000
  7 0.000007 0.011442 1.352403 -0.000014 -1.370796 3.140810
  8 6.078088 -0.000000 -0.000000 -0.183946 1.264601 -0.174454
  9 13.446755 0.000000 -0.000000 -0.000000 0.000000 -0.069100
 10 15.996998 -0.000001 -0.000001 -1.683446 -0.000000 0.000000
 11 1.885327 0.833277 -2.177875 -1.598016 0.698132 -0.000668
 12 1.506963 0.000001 0.000000 -0.000000 0.000000 -0.139626
 13 0.798351 -0.000001 0.000001 -0.000000 -0.000000 -0.113446
 14 1.468323 0.000000 -0.000000 0.000000 0.000000 0.000000
 15 3.950302 -0.539875 -2.108870 -0.000806 0.157080 -0.000126
 16 1.545799 0.000000 0.000002 -0.000000 0.000000 0.471239
 17 1.667396 -0.000000 -0.000000 0.000000 -0.000000 0.436332
 18 1.530149 0.000000 -0.000001 0.000000 0.000000 0.000000
 19 3.899459 -0.475376 -1.170890 -0.000796 -0.000000 0.000000
 20 1.528216 -0.000000 -0.000000 0.000000 -0.000000 0.331613
 21 1.528215 -0.000000 -0.000001 0.000000 0.000000 0.479966
 22 1.940835 0.000000 0.000001 0.000000 0.000000 0.000000
 23 3.899459 -0.431804 0.168227 -0.000796 -0.000000 0.000000
 24 1.506963 -0.000000 -0.000000 -0.000000 -0.000000 0.427606
 25 1.506963 -0.000000 -0.000000 0.000000 0.000000 0.340339
 26 1.506965 -0.000000 -0.000001 0.000000 0.000000 0.000000
 27 3.915633 -0.278019 1.402611 -0.000796 -0.000000 0.000000
 28 1.333086 -0.000000 0.000000 0.000000 0.000000 0.637045
 29 1.159202 -0.000000 0.000000 0.000000 -0.000000 0.218166
 30 1.341584 0.000000 -0.000000 0.000000 0.000000 0.000000
 31 0.000007 0.011450 -1.352403 -0.000014 1.370796 3.140783
 32 6.078088 -0.000000 0.000001 0.883412 -0.841245 -1.173176
 33 13.446751 0.000001 0.000000 0.000000 0.000000 -1.094738
 34 15.997000 0.000002 -0.000001 1.125293 0.529298 0.509791
 35 1.885326 0.833277 2.177877 1.264229 -0.638131 0.530106
 36 1.506965 0.000001 0.000004 0.000000 -0.000000 -0.488692
 37 0.798348 0.000001 -0.000001 0.000000 -0.000000 -0.986111
 38 1.468324 0.000000 -0.000002 0.000000 0.000000 3.141593
 39 3.950304 -0.539874 2.108871 -0.037816 0.038147 -0.197091
 40 1.545795 0.000000 -0.000002 0.000000 -0.000000 1.396263
 41 1.667397 -0.000003 -0.000000 0.000000 -0.000000 1.466077
 42 1.530146 0.000001 0.000001 0.000000 0.000000 3.141593
 43 3.899461 -0.475375 1.170892 -0.069015 0.069834 -0.026124
 44 1.528219 0.000002 0.000002 0.000000 0.000000 1.047198
 45 1.528213 -0.000000 -0.000002 -0.000000 0.000000 1.815142
 46 1.940835 -0.000001 -0.000002 0.000000 0.000000 3.141593
 47 3.899460 -0.431801 -0.168225 -0.003768 -0.034712 0.130951
 48 1.506965 0.000000 -0.000002 -0.000000 0.000000 1.082104
 49 1.506962 -0.000000 -0.000002 0.000000 0.000000 1.727876
 50 1.506966 0.000001 -0.000001 0.000000 0.000000 3.141593
 51 3.915634 -0.278017 -1.402610 0.304321 -0.057152 -0.007502
 52 1.333085 -0.000001 0.000000 0.000000 -0.000000 1.265364
 53 1.159202 -0.000002 0.000000 0.000000 0.000000 1.527163
 54 1.341585 -0.000000 -0.000002 0.000000 0.000000 3.141593
 55 -4.443606 0.013172 3.864010 -0.000003 -3.141592 -0.100796
 56 19.320051 -0.000000 -0.000000 0.000000 0.000000 -0.200000
 57 19.320045 -0.000000 0.000000 0.000000 -0.000000 0.100000
 58 4.443612 5.602815 0.000000 -0.000000 0.000000 1.570796
 59 0.579601 -0.000000 0.000000 0.000000 0.000000 3.141593
 60 -4.443606 0.013193 -3.864010 -0.000003 -3.141592 -0.100796
 61 19.320051 0.000000 -0.000000 0.000000 0.000000 -0.200000
 62 19.320045 0.000000 0.000000 0.000000 -0.000000 0.100000
 63 4.443612 5.602815 0.000000 -0.000000 0.000000 1.570796
 64 0.579601 -0.000000 0.000000 0.000000 0.000000 0.000000
 65 15.505088 21.164101 -7.454382 3.141590 -0.000002 0.000000
time 15
  0 0.134138 -5.181461 43.181469 0.000000 0.000000 -1.570795
  1 0.000000 0.000000 -42.890667 0.000000 0.000000 1.570795
  2 0.000000 0.000000 0.000000 -1.570795 -1.570451 0.000000
  3 4.443615 -0.009642 0.000006 -0.000004 -0.000001 0.000796
  4 12.111414 -0.011445 -0.000000 0.000000 0.000000 0.000000
  5 14.374118 0.000000 -0.000000 -0.000000 0.000000 -0.000798
  6 9.660028 0.000000 -0.000000 0.000000 0.000000 0.000000
  7 0.000007 0.011442 1.352403 -0.000014 -1.370796 3.140810
  8 6.078088 -0.000000 -0.000000 -0.183946 1.264601 -0.174454
  9 13.446755 0.000000 -0.000000 -0.000000 0.000000 -0.069100
 10 15.996998 -0.000001 -0.000001 -1.683446 -0.000000 0.000000
 11 1.885327 0.833277 -2.177875 -1.598016 0.698132 -0.000668
 12 1.506963 0.000001 0.000000 -0.000000 0.000000 -0.139626
 13 0.798351 -0.000001 0.000001 -0.000000 -0.000000 -0.113446
 14 1.468323 0.000000 -0.000000 0.000000 0.000000 0.000000
 15 3.950302 -0.539875 -2.108870 -0.000806 0.157080 -0.000126
 16 1.545799 0.000000 0.000002 -0.000000 0.000000 0.471239
 17 1.667396 -0.000000 -0.000000 0.000000 -0.000000 0.436332
 18 1.530149 0.000000 -0.000001 0.000000 0.000000 0.000000
 19 3.899459 -0.475376 -1.170890 -0.000796 -0.000000 0.000000
 20 1.528216 -0.000000 -0.000000 0.000000 -0.000000 0.331613
 21 1.528215 -0.000000 -0.000001 0.000000 0.000000 0.479966
 22 1.940835 0.000000 0.000001 0.000000 0.000000 0.000000
 23 3.899459 -0.431804 0.168227 -0.000796 -0.000000 0.000000
 24 1.506963 -0.000000 -0.000000 -0.000000 -0.000000 0.427606
 25 1.506963 -0.000000 -0.000000 0.000000 0.000000 0.340339
 26 1.506965 -0.000000 -0.000001 0.000000 0.000000 0.000000
 27 3.915633 -0.278019 1.402611 -0.000796 -0.000000 0.000000
 28 1.333086 -0.000000 0.000000 0.000000 0.000000 0.637045
 29 1.159202 -0.000000 0.000000 0.000000 -0.000000 0.218166
 30 1.341584 0.000000 -0.000000 0.000000 0.000000 0.000000
 31 0.000007 0.011450 -1.352403 -0.000014 1.370796 3.140783
 32 6.078088 -0.000000 0.000001 0.873346 -0.855189 -1.118382
 33 13.446753 0.000003 0.000001 0.000000 -0.000000 -1.062228
 34 15.997000 -0.000004 -0.000002 1.144458 0.364056 0.289484
 35 1.885327 0.833278 2.177875 1.264229 -0.638131 0.530106
 36 1.506963 0.000003 0.000001 0.000000 0.000000 -0.488692
 37 0.798350 -0.000002 -0.000003 -0.000000 -0.000000 -0.986111
 38 1.468324 0.000002 0.000002 0.000000 0.000000 3.141593
 39 3.950305 -0.539876 2.108871 -0.037816 0.038147 -0.197091
 40 1.545796 0.000002 -0.000003 -0.000000 0.000000 1.396263
 41 1.667397 -0.000001 0.000001 -0.000000 -0.000000 1.466077
 42 1.530148 0.000001 0.000002 0.000000 0.000000 3.141593
 43 3.899459 -0.475375 1.170890 -0.069015 0.069834 -0.026124
 44 1.528217 0.000001 -0.000002 -0.000000 -0.000000 1.047198
 45 1.528216 0.000003 0.000002 0.000000 -0.000000 1.815142
 46 1.940835 0.000002 -0.000001 0.000000 0.000000 3.141593
 47 3.899462 -0.431802 -0.168225 -0.003768 -0.034712 0.130951
 48 1.506964 0.000002 -0.000000 -0.000000 0.000000 1.082104
 49 1.506962 0.000001 0.000001 0.000000 -0.000000 1.727876
 50 1.506962 -0.000002 0.000000 0.000000 0.000000 3.141593
 51 3.915637 -0.278018 -1.402610 0.304321 -0.057152 -0.007502
 52 1.333083 0.000001 0.000000 -0.000000 -0.000000 1.265364
 53 1.159203 0.000001 0.000001 0.000000 -0.000000 1.527163
 54 1.341583 0.000000 0.000002 0.000000 0.000000 3.141593
 55 -4.443606 0.013172 3.864010 -0.000003 -3.141592 -0.100796
 56 19.320051 -0.000000 -0.000000 0.000000 0.000000 -0.200000
 57 19.320045 -0.000000 0.000000 0.000000 -0.000000 0.100000
 58 4.443612 5.602815 0.000000 -0.000000 0.000000 1.570796
 59 0.579601 -0.000000 0.000000 0.000000 0.000000 3.141593
 60 -4.443606 0.013193 -3.864010 -0.000003 -3.141592 -0.100796
 61 19.320051 0.000000 -0.000000 0.000000 0.000000 -0.200000
 62 19.320045 0.000000 0.000000 0.000000 -0.000000 0.100000
 63 4.443612 5.602815 0.000000 -0.000000 0.000000 1.570796
 64 0.579601 -0.000000 0.000000 0.000000 0.000000 0.000000
 65 15.505088 21.164101 -7.454382 3.141590 -0.000002 0.000000
time 16
  0 0.134138 -5.181461 43.181469 0.000000 0.000000 -1.570795
  1 0.000000 0.000000 -42.890667 0.000000 0.000000 1.570795
  2 0.000000 0.000000 0.000000 -1.570795 -1.570451 0.000000
  3 4.443615 -0.009642 0.000006 -0.000004 -0.000001 0.000796
  4 12.111414 -0.011445 -0.000000 0.000000 0.000000 0.000000
  5 14.374118 0.000000 -0.000000 -0.000000 0.000000 -0.000798
  6 9.660028 0.000000 -0.000000 0.000000 0.000000 0.000000
  7 0.000007 0.011442 1.352403 -0.000014 -1.370796 3.140810
  8 6.078088 -0.000000 -0.000000 -0.183946 1.264601 -0.174454
  9 13.446755 0.000000 -0.000000 -0.000000 0.000000 -0.069100
 10 15.996998 -0.000001 -0.000001 -1.683446 -0.000000 0.000000
 11 1.885327 0.833277 -2.177875 -1.598016 0.698132 -0.000668
 12 1.506963 0.000001 0.000000 -0.000000 0.000000 -0.139626
 13 0.798351 -0.000001 0.000001 -0.000000 -0.000000 -0.113446
 14 1.468323 0.000000 -0.000000 0.000000 0.000000 0.000000
 15 3.950302 -0.539875 -2.108870 -0.000806 0.157080 -0.000126
 16 1.545799 0.000000 0.000002 -0.000000 0.000000 0.471239
 17 1.667396 -0.000000 -0.000000 0.000000 -0.000000 0.436332
 18 1.530149 0.000000 -0.000001 0.000000 0.000000 0.000000
 19 3.899459 -0.475376 -1.170890 -0.000796 -0.000000 0.000000
 20 1.528216 -0.000000 -0.000000 0.000000 -0.000000 0.331613
 21 1.528215 -0.000000 -0.000001 0.000000 0.000000 0.479966
 22 1.940835 0.000000 0.000001 0.000000 0.000000 0.000000
 23 3.899459 -0.431804 0.168227 -0.000796 -0.000000 0.000000
 24 1.506963 -0.000000 -0.000000 -0.000000 -0.000000 0.427606
 25 1.506963 -0.000000 -0.000000 0.000000 0.000000 0.340339
 26 1.506965 -0.000000 -0.000001 0.000000 0.000000 0.000000
 27 3.915633 -0.278019 1.402611 -0.000796 -0.000000 0.000000
 28 1.333086 -0.000000 0.000000 0.000000 0.000000 0.637045
 29 1.159202 -0.000000 0.000000 0.000000 -0.000000 0.218166
 30 1.341584 0.000000 -0.000000 0.000000 0.000000 0.000000
 31 0.000007 0.011450 -1.352403 -0.000014 1.370796 3.140783
 32 6.078088 -0.000000 0.000001 0.863810 -0.871325 -1.051943
 33 13.446752 -0.000002 0.000000 0.000000 -0.000000 -1.014325
 34 15.996999 -0.000000 -0.000001 1.209234 0.144526 0.008762
 35 1.885325 0.833278 2.177874 1.264229 -0.638131 0.530106
 36 1.506964 0.000001 0.000000 0.000000 0.000000 -0.488692
 37 0.798351 0.000000 0.000001 0.000000 0.000000 -0.986111
 38 1.468324 -0.000001 -0.000000 0.000000 0.000000 3.141593
 39 3.950305 -0.539876 2.108872 -0.037816 0.038147 -0.197091
 40 1.545796 0.000000 0.000001 -0.000000 0.000000 1.396263
 41 1.667398 0.000001 0.000000 -0.000000 -0.000000 1.466077
 42 1.530145 -0.000000 0.000001 0.000000 0.000000 3.141593
 43 3.899460 -0.475376 1.170891 -0.069015 0.069834 -0.026124
 44 1.528211 0.000000 0.000001 -0.000000 0.000000 1.047198
 45 1.528220 -0.000003 -0.000000 -0.000000 -0.000000 1.815142
 46 1.940834 0.000001 0.000000 0.000000 0.000000 3.141593
 47 3.899459 -0.431803 -0.168226 -0.003768 -0.034712 0.130951
 48 1.506965 0.000000 0.000002 0.000000 0.000000 1.082104
 49 1.506963 -0.000003 0.000003 -0.000000 0.000000 1.727876
 50 1.506964 -0.000001 -0.000002 0.000000 0.000000 3.141593
 51 3.915636 -0.278019 -1.402609 0.304321 -0.057152 -0.007502
 52 1.333080 0.000001 0.000001 -0.000000 -0.000000 1.265364
 53 1.159204 -0.000004 0.000002 0.000000 -0.000000 1.527163
 54 1.341584 0.000000 0.000002 0.000000 0.000000 3.141593
 55 -4.443606 0.013172 3.864010 -0.000003 -3.141592 -0.100796
 56 19.320051 -0.000000 -0.000000 0.000000 0.000000 -0.200000
 57 19.320045 -0.000000 0.000000 0.000000 -0.000000 0.100000
 58 4.443612 5.602815 0.000000 -0.000000 0.000000 1.570796
 59 0.579601 -0.000000 0.000000 0.000000 0.000000 3.141593
 60 -4.443606 0.013193 -3.864010 -0.000003 -3.141592 -0.100796
 61 19.320051 0.000000 -0.000000 0.000000 0.000000 -0.200000
 62 19.320045 0.000000 0.000000 0.000000 -0.000000 0.100000
 63 4.443612 5.602815 0.000000 -0.000000 0.000000 1.570796
 64 0.579601 -0.000000 0.000000 0.000000 0.000000 0.000000
 65 15.505088 21.164101 -7.454382 3.141590 -0.000002 0.000000
time 17
  0 0.134138 -5.181461 43.181469 0.000000 0.000000 -1.570795
  1 0.000000 0.000000 -42.890667 0.000000 0.000000 1.570795
  2 0.000000 0.000000 0.000000 -1.570795 -1.570451 0.000000
  3 4.443615 -0.009642 0.000006 -0.000004 -0.000001 0.000796
  4 12.111414 -0.011445 -0.000000 0.000000 0.000000 0.000000
  5 14.374118 0.000000 -0.000000 -0.000000 0.000000 -0.000798
  6 9.660028 0.000000 -0.000000 0.000000 0.000000 0.000000
  7 0.000007 0.011442 1.352403 -0.000014 -1.370796 3.140810
  8 6.078088 -0.000000 -0.000000 -0.183946 1.264601 -0.174454
  9 13.446755 0.000000 -0.000000 -0.000000 0.000000 -0.069100
 10 15.996998 -0.000001 -0.000001 -1.683446 -0.000000 0.000000
 11 1.885327 0.833277 -2.177875 -1.598016 0.698132 -0.000668
 12 1.506963 0.000001 0.000000 -0.000000 0.000000 -0.139626
 13 0.798351 -0.000001 0.000001 -0.000000 -0.000000 -0.113446
 14 1.468323 0.000000 -0.000000 0.000000 0.000000 0.000000
 15 3.950302 -0.539875 -2.108870 -0.000806 0.157080 -0.000126
 16 1.545799 0.000000 0.000002 -0.000000 0.000000 0.471239
 17 1.667396 -0.000000 -0.000000 0.000000 -0.000000 0.436332
 18 1.530149 0.000000 -0.000001 0.000000 0.000000 0.000000
 19 3.899459 -0.475376 -1.170890 -0.000796 -0.000000 0.000000
 20 1.528216 -0.000000 -0.000000 0.000000 -0.000000 0.331613
 21 1.528215 -0.000000 -0.000001 0.000000 0.000000 0.479966
 22 1.940835 0.000000 0.000001 0.000000 0.000000 0.000000
 23 3.899459 -0.431804 0.168227 -0.000796 -0.000000 0.000000
 24 1.506963 -0.000000 -0.000000 -0.000000 -0.000000 0.427606
 25 1.506963 -0.000000 -0.000000 0.000000 0.000000 0.340339
 26 1.506965 -0.000000 -0.000001 0.000000 0.000000 0.000000
 27 3.915633 -0.278019 1.402611 -0.000796 -0.000000 0.000000
 28 1.333086 -0.000000 0.000000 0.000000 0.000000 0.637045
 29 1.159202 -0.000000 0.000000 0.000000 -0.000000 0.218166
 30 1.341584 0.000000 -0.000000 0.000000 0.000000 0.000000
 31 0.000007 0.011450 -1.352403 -0.000014 1.370796 3.140783
 32 6.078088 -0.000000 0.000001 0.839020 -0.884964 -0.983224
 33 13.446754 0.000003 -0.000000 -0.000000 0.000000 -0.974746
 34 15.997003 0.000002 0.000000 1.341603 -0.012179 -0.193037
 35 1.885329 0.833276 2.177875 1.264229 -0.638131 0.530106
 36 1.506965 -0.000001 0.000000 -0.000000 -0.000000 -0.488692
 37 0.798347 0.000001 -0.000001 0.000000 0.000000 -0.986111
 38 1.468326 0.000001 -0.000001 0.000000 0.000000 3.141593
 39 3.950306 -0.539877 2.108871 -0.037816 0.038147 -0.197091
 40 1.545796 0.000002 -0.000004 -0.000000 0.000000 1.396263
 41 1.667396 -0.000001 0.000001 -0.000000 -0.000000 1.466077
 42 1.530148 0.000000 0.000001 0.000000 0.000000 3.141593
 43 3.899463 -0.475377 1.170891 -0.069015 0.069834 -0.026124
 44 1.528213 -0.000001 0.000003 -0.000000 -0.000000 1.047198
 45 1.528217 -0.000003 -0.000001 -0.000000 -0.000000 1.815142
 46 1.940832 -0.000001 -0.000001 0.000000 0.000000 3.141593
 47 3.899461 -0.431804 -0.168226 -0.003768 -0.034712 0.130951
 48 1.506962 -0.000003 -0.000000 -0.000000 0.000000 1.082104
 49 1.506965 -0.000004 -0.000000 -0.000000 -0.000000 1.727876
 50 1.506963 0.000000 -0.000000 0.000000 0.000000 3.141593
 51 3.915637 -0.278021 -1.402609 0.304321 -0.057152 -0.007502
 52 1.333085 -0.000001 0.000000 -0.000000 -0.000000 1.265364
 53 1.159203 -0.000001 0.000003 0.000000 -0.000000 1.527163
 54 1.341586 0.000000 -0.000002 0.000000 0.000000 3.141593
 55 -4.443606 0.013172 3.864010 -0.000003 -3.141592 -0.100796
 56 19.320051 -0.000000 -0.000000 0.000000 0.000000 -0.200000
 57 19.320045 -0.000000 0.000000 0.000000 -0.000000 0.100000
 58 4.443612 5.602815 0.000000 -0.000000 0.000000 1.570796
 59 0.579601 -0.000000 0.000000 0.000000 0.000000 3.141593
 60 -4.443606 0.013193 -3.864010 -0.000003 -3.141592 -0.100796
 61 19.320051 0.000000 -0.000000 0.000000 0.000000 -0.200000
 62 19.320045 0.000000 0.000000 0.000000 -0.000000 0.100000
 63 4.443612 5.602815 0.000000 -0.000000 0.000000 1.570796
 64 0.579601 -0.000000 0.000000 0.000000 0.000000 0.000000
 65 15.505088 21.164101 -7.454382 3.141590 -0.000002 0.000000
time 18
  0 0.134138 -5.181461 43.181469 0.000000 0.000000 -1.570795
  1 0.000000 0.000000 -42.890667 0.000000 0.000000 1.570795
  2 0.000000 0.000000 0.000000 -1.570795 -1.570451 0.000000
  3 4.443615 -0.009642 0.000006 -0.000004 -0.000001 0.000796
  4 12.111414 -0.011445 -0.000000 0.000000 0.000000 0.000000
  5 14.374118 0.000000 -0.000000 -0.000000 0.000000 -0.000798
  6 9.660028 0.000000 -0.000000 0.000000 0.000000 0.000000
  7 0.000007 0.011442 1.352403 -0.000014 -1.370796 3.140810
  8 6.078088 -0.000000 -0.000000 -0.183946 1.264601 -0.174454
  9 13.446755 0.000000 -0.000000 -0.000000 0.000000 -0.069100
 10 15.996998 -0.000001 -0.000001 -1.683446 -0.000000 0.000000
 11 1.885327 0.833277 -2.177875 -1.598016 0.698132 -0.000668
 12 1.506963 0.000001 0.000000 -0.000000 0.000000 -0.139626
 13 0.798351 -0.000001 0.000001 -0.000000 -0.000000 -0.113446
 14 1.468323 0.000000 -0.000000 0.000000 0.000000 0.000000
 15 3.950302 -0.539875 -2.108870 -0.000806 0.157080 -0.000126
 16 1.545799 0.000000 0.000002 -0.000000 0.000000 0.471239
 17 1.667396 -0.000000 -0.000000 0.000000 -0.000000 0.436332
 18 1.530149 0.000000 -0.000001 0.000000 0.000000 0.000000
 19 3.899459 -0.475376 -1.170890 -0.000796 -0.000000 0.000000
 20 1.528216 -0.000000 -0.000000 0.000000 -0.000000 0.331613
 21 1.528215 -0.000000 -0.000001 0.000000 0.000000 0.479966
 22 1.940835 0.000000 0.000001 0.000000 0.000000 0.000000
 23 3.899459 -0.431804 0.168227 -0.000796 -0.000000 0.000000
 24 1.506963 -0.000000 -0.000000 -0.000000 -0.000000 0.427606
 25 1.506963 -0.000000 -0.000000 0.000000 0.000000 0.340339
 26 1.506965 -0.000000 -0.000001 0.000000 0.000000 0.000000
 27 3.915633 -0.278019 1.402611 -0.000796 -0.000000 0.000000
 28 1.333086 -0.000000 0.000000 0.000000 0.000000 0.637045
 29 1.159202 -0.000000 0.000000 0.000000 -0.000000 0.218166
 30 1.341584 0.000000 -0.000000 0.000000 0.000000 0.000000
 31 0.000007 0.011450 -1.352403 -0.000014 1.370796 3.140783
 32 6.078088 -0.000000 0.000001 0.789814 -0.892745 -0.915416
 33 13.446753 -0.000001 0.000000 0.000000 -0.000000 -0.954168
 34 15.996998 -0.000001 -0.000001 1.501307 -0.072929 -0.237503
 35 1.885326 0.833276 2.177876 1.264229 -0.638131 0.530106
 36 1.506963 -0.000000 -0.000001 -0.000000 0.000000 -0.488692
 37 0.798349 0.000002 -0.000000 0.000000 0.000000 -0.986111
 38 1.468324 0.000000 -0.000000 0.000000 0.000000 3.141593
 39 3.950302 -0.539877 2.108872 -0.037816 0.038147 -0.197091
 40 1.545799 -0.000001 0.000001 0.000000 -0.000000 1.396263
 41 1.667398 -0.000001 0.000001 0.000000 -0.000000 1.466076
 42 1.530148 -0.000000 0.000002 0.000000 0.000000 3.141593
 43 3.899458 -0.475377 1.170890 -0.069015 0.069834 -0.026124
 44 1.528218 -0.000000 0.000001 0.000000 -0.000000 1.047198
 45 1.528214 0.000000 0.000004 -0.000000 0.000000 1.815142
 46 1.940837 0.000000 -0.000001 0.000000 0.000000 3.141593
 47 3.899456 -0.431805 -0.168224 -0.003768 -0.034712 0.130951
 48 1.506970 -0.000001 -0.000004 -0.000000 -0.000000 1.082104
 49 1.506964 0.000002 0.000002 0.000000 -0.000000 1.727876
 50 1.506962 -0.000000 -0.000003 0.000000 0.000000 3.141593
 51 3.915631 -0.278020 -1.402610 0.304321 -0.057152 -0.007502
 52 1.333086 -0.000000 0.000001 -0.000000 -0.000000 1.265364
 53 1.159203 -0.000005 0.000003 -0.000000 0.000000 1.527163
 54 1.341586 -0.000000 -0.000002 0.000000 0.000000 3.141593
 55 -4.443606 0.013172 3.864010 -0.000003 -3.141592 -0.100796
 56 19.320051 -0.000000 -0.000000 0.000000 0.000000 -0.200000
 57 19.320045 -0.000000 0.000000 0.000000 -0.000000 0.100000
 58 4.443612 5.602815 0.000000 -0.000000 0.000000 1.570796
 59 0.579601 -0.000000 0.000000 0.000000 0.000000 3.141593
 60 -4.443606 0.013193 -3.864010 -0.000003 -3.141592 -0.100796
 61 19.320051 0.000000 -0.000000 0.000000 0.000000 -0.200000
 62 19.320045 0.000000 0.000000 0.000000 -0.000000 0.100000
 63 4.443612 5.602815 0.000000 -0.000000 0.000000 1.570796
 64 0.579601 -0.000000 0.000000 0.000000 0.000000 0.000000
 65 15.505088 21.164101 -7.454382 3.141590 -0.000002 0.000000
time 19
  0 0.134138 -5.181461 43.181469 0.000000 0.000000 -1.570795
  1 0.000000 0.000000 -42.890667 0.000000 0.000000 1.570795
  2 0.000000 0.000000 0.000000 -1.570795 -1.570451 0.000000
  3 4.443615 -0.009642 0.000006 -0.000004 -0.000001 0.000796
  4 12.111414 -0.011445 -0.000000 0.000000 0.000000 0.000000
  5 14.374118 0.000000 -0.000000 -0.000000 0.000000 -0.000798
  6 9.660028 0.000000 -0.000000 0.000000 0.000000 0.000000
  7 0.000007 0.011442 1.352403 -0.000014 -1.370796 3.140810
  8 6.078088 -0.000000 -0.000000 -0.183946 1.264601 -0.174454
  9 13.446755 0.000000 -0.000000 -0.000000 0.000000 -0.069100
 10 15.996998 -0.000001 -0.000001 -1.683446 -0.000000 0.000000
 11 1.885327 0.833277 -2.177875 -1.598016 0.698132 -0.000668
 12 1.506963 0.000001 0.000000 -0.000000 0.000000 -0.139626
 13 0.798351 -0.000001 0.000001 -0.000000 -0.000000 -0.113446
 14 1.468323 0.000000 -0.000000 0.000000 0.000000 0.000000
 15 3.950302 -0.539875 -2.108870 -0.000806 0.157080 -0.000126
 16 1.545799 0.000000 0.000002 -0.000000 0.000000 0.471239
 17 1.667396 -0.000000 -0.000000 0.000000 -0.000000 0.436332
 18 1.530149 0.000000 -0.000001 0.000000 0.000000 0.000000
 19 3.899459 -0.475376 -1.170890 -0.000796 -0.000000 0.000000
 20 1.528216 -0.000000 -0.000000 0.000000 -0.000000 0.331613
 21 1.528215 -0.000000 -0.000001 0.000000 0.000000 0.479966
 22 1.940835 0.000000 0.000001 0.000000 0.000000 0.000000
 23 3.899459 -0.431804 0.168227 -0.000796 -0.000000 0.000000
 24 1.506963 -0.000000 -0.000000 -0.000000 -0.000000 0.427606
 25 1.506963 -0.000000 -0.000000 0.000000 0.000000 0.340339
 26 1.506965 -0.000000 -0.000001 0.000000 0.000000 0.000000
 27 3.915633 -0.278019 1.402611 -0.000796 -0.000000 0.000000
 28 1.333086 -0.000000 0.000000 0.000000 0.000000 0.637045
 29 1.159202 -0.000000 0.000000 0.000000 -0.000000 0.218166
 30 1.341584 0.000000 -0.000000 0.000000 0.000000 0.000000
 31 0.000007 0.011450 -1.352403 -0.000014 1.370796 3.140783
 32 6.078088 -0.000000 0.000001 0.726395 -0.895751 -0.846050
 33 13.446755 -0.000000 0.000001 -0.000000 -0.000000 -0.941913
 34 15.997000 -0.000004 -0.000002 1.669803 -0.104317 -0.197272
 35 1.885327 0.833277 2.177874 1.264229 -0.638131 0.530106
 36 1.506963 0.000000 0.000000 -0.000000 -0.000000 -0.488692
 37 0.798349 0.000004 0.000001 0.000000 0.000000 -0.986111
 38 1.468325 0.000000 0.000002 0.000000 0.000000 3.141593
 39 3.950302 -0.539876 2.108869 -0.037816 0.038147 -0.197091
 40 1.545799 0.000000 -0.000003 0.000000 0.000000 1.396263
 41 1.667398 -0.000002 0.000001 -0.000000 0.000000 1.466077
 42 1.530150 0.000001 0.000001 0.000000 0.000000 3.141593
 43 3.899457 -0.475377 1.170890 -0.069015 0.069834 -0.026124
 44 1.528222 -0.000000 0.000000 -0.000000 0.000000 1.047198
 45 1.528215 -0.000001 0.000002 -0.000000 -0.000000 1.815142
 46 1.940836 0.000001 -0.000000 0.000000 0.000000 3.141593
 47 3.899459 -0.431804 -0.168225 -0.003768 -0.034712 0.130951
 48 1.506965 0.000000 0.000003 0.000000 0.000000 1.082104
 49 1.506964 -0.000003 -0.000002 -0.000000 0.000000 1.727876
 50 1.506965 0.000001 0.000003 0.000000 0.000000 3.141593
 51 3.915632 -0.278020 -1.402611 0.304321 -0.057152 -0.007502
 52 1.333084 -0.000001 -0.000001 -0.000000 -0.000000 1.265364
 53 1.159203 0.000001 -0.000001 -0.000000 0.000000 1.527163
 54 1.341586 0.000001 -0.000002 0.000000 0.000000 3.141593
 55 -4.443606 0.013172 3.864010 -0.000003 -3.141592 -0.100796
 56 19.320051 -0.000000 -0.000000 0.000000 0.000000 -0.200000
 57 19.320045 -0.000000 0.000000 0.000000 -0.000000 0.100000
 58 4.443612 5.602815 0.000000 -0.000000 0.000000 1.570796
 59 0.579601 -0.000000 0.000000 0.000000 0.000000 3.141593
 60 -4.443606 0.013193 -3.864010 -0.000003 -3.141592 -0.100796
 61 19.320051 0.000000 -0.000000 0.000000 0.000000 -0.200000
 62 19.320045 0.000000 0.000000 0.000000 -0.000000 0.100000
 63 4.443612 5.602815 0.000000 -0.000000 0.000000 1.570796
 64 0.579601 -0.000000 0.000000 0.000000 0.000000 0.000000
 65 15.505088 21.164101 -7.454382 3.141590 -0.000002 0.000000
time 20
  0 0.134138 -5.181461 43.181469 0.000000 0.000000 -1.570795
  1 0.000000 0.000000 -42.890667 0.000000 0.000000 1.570795
  2 0.000000 0.000000 0.000000 -1.570795 -1.570451 0.000000
  3 4.443615 -0.009642 0.000006 -0.000004 -0.000001 0.000796
  4 12.111414 -0.011445 -0.000000 0.000000 0.000000 0.000000
  5 14.374118 0.000000 -0.000000 -0.000000 0.000000 -0.000798
  6 9.660028 0.000000 -0.000000 0.000000 0.000000 0.000000
  7 0.000007 0.011442 1.352403 -0.000014 -1.370796 3.140810
  8 6.078088 -0.000000 -0.000000 -0.183946 1.264601 -0.174454
  9 13.446755 0.000000 -0.000000 -0.000000 0.000000 -0.069100
 10 15.996998 -0.000001 -0.000001 -1.683446 -0.000000 0.000000
 11 1.885327 0.833277 -2.177875 -1.598016 0.698132 -0.000668
 12 1.506963 0.000001 0.000000 -0.000000 0.000000 -0.139626
 13 0.798351 -0.000001 0.000001 -0.000000 -0.000000 -0.113446
 14 1.468323 0.000000 -0.000000 0.000000 0.000000 0.000000
 15 3.950302 -0.539875 -2.108870 -0.000806 0.157080 -0.000126
 16 1.545799 0.000000 0.000002 -0.000000 0.000000 0.471239
 17 1.667396 -0.000000 -0.000000 0.000000 -0.000000 0.436332
 18 1.530149 0.000000 -0.000001 0.000000 0.000000 0.000000
 19 3.899459 -0.475376 -1.170890 -0.000796 -0.000000 0.000000
 20 1.528216 -0.000000 -0.000000 0.000000 -0.000000 0.331613
 21 1.528215 -0.000000 -0.000001 0.000000 0.000000 0.479966
 22 1.940835 0.000000 0.000001 0.000000 0.000000 0.000000
 23 3.899459 -0.431804 0.168227 -0.000796 -0.000000 0.000000
 24 1.506963 -0.000000 -0.000000 -0.000000 -0.000000 0.427606
 25 1.506963 -0.000000 -0.000000 0.000000 0.000000 0.340339
 26 1.506965 -0.000000 -0.000001 0.000000 0.000000 0.000000
 27 3.915633 -0.278019 1.402611 -0.000796 -0.000000 0.000000
 28 1.333086 -0.000000 0.000000 0.000000 0.000000 0.637045
 29 1.159202 -0.000000 0.000000 0.000000 -0.000000 0.218166
 30 1.341584 0.000000 -0.000000 0.000000 0.000000 0.000000
 31 0.000007 0.011450 -1.352403 -0.000014 1.370796 3.140783
 32 6.078088 -0.000000 0.000001 0.662667 -0.895991 -0.776378
 33 13.446751 0.000000 0.000001 0.000000 0.000000 -0.929658
 34 15.997000 0.000004 0.000001 1.837509 -0.141937 -0.162740
 35 1.885325 0.833277 2.177878 1.264229 -0.638131 0.530106
 36 1.506966 -0.000003 0.000002 -0.000000 0.000000 -0.488692
 37 0.798348 0.000002 -0.000003 0.000000 0.000000 -0.986111
 38 1.468323 -0.000000 0.000002 0.000000 0.000000 3.141593
 39 3.950303 -0.539876 2.108875 -0.037816 0.038147 -0.197091
 40 1.545798 -0.000000 0.000000 0.000000 0.000000 1.396263
 41 1.667397 -0.000002 -0.000004 0.000000 0.000000 1.466077
 42 1.530150 0.000001 0.000001 0.000000 0.000000 3.141593
 43 3.899457 -0.475376 1.170891 -0.069015 0.069834 -0.026124
 44 1.528221 -0.000000 0.000001 -0.000000 -0.000000 1.047198
 45 1.528215 0.000001 0.000002 0.000000 -0.000000 1.815142
 46 1.940836 0.000000 -0.000002 0.000000 0.000000 3.141593
 47 3.899460 -0.431804 -0.168223 -0.003768 -0.034712 0.130951
 48 1.506966 -0.000000 -0.000002 -0.000000 0.000000 1.082104
 49 1.506964 0.000001 0.000003 -0.000000 0.000000 1.727876
 50 1.506967 0.000001 -0.000001 0.000000 0.000000 3.141593
 51 3.915634 -0.278019 -1.402609 0.304321 -0.057152 -0.007502
 52 1.333082 -0.000000 -0.000001 -0.000000 -0.000000 1.265364
 53 1.159203 0.000002 -0.000001 -0.000000 -0.000000 1.527163
 54 1.341583 -0.000000 -0.000000 0.000000 0.000000 3.141593
 55 -4.443606 0.013172 3.864010 -0.000003 -3.141592 -0.100796
 56 19.320051 -0.000000 -0.000000 0.000000 0.000000 -0.200000
 57 19.320045 -0.000000 0.000000 0.000000 -0.000000 0.100000
 58 4.443612 5.602815 0.000000 -0.000000 0.000000 1.570796
 59 0.579601 -0.000000 0.000000 0.000000 0.000000 3.141593
 60 -4.443606 0.013193 -3.864010 -0.000003 -3.141592 -0.100796
 61 19.320051 0.000000 -0.000000 0.000000 0.000000 -0.200000
 62 19.320045 0.000000 0.000000 0.000000 -0.000000 0.100000
 63 4.443612 5.602815 0.000000 -0.000000 0.000000 1.570796
 64 0.579601 -0.000000 0.000000 0.000000 0.000000 0.000000
 65 15.505088 21.164101 -7.454382 3.141590 -0.000002 0.000000
end
