version 1
nodes
0 "ValveBiped.Bip01_R_Hand" -1
1 "Cylinder01" 0
2 "fire" 1
end
skeleton
time 0
0  1.395145 3.180122 -1.893364  0.002581 3.110947 0.762288
1  3.151128 -1.347904 -1.987387  -0.019291 -3.117640 0.762137
2  0.000000 0.882910 4.372376  1.570796 -0.000000 1.570795
end
triangles
molotov
0  -0.265071 -0.312301 5.620133  -0.421302 0.906920 -0.000313  0.083300 0.971500 1 1 1.000000
0  0.000404 -0.241110 5.620109  0.088649 0.996063 -0.000344  0.000000 0.971500 1 1 1.000000
0  0.000404 -0.241792 3.643409  -0.002015 0.990358 0.138515  0.000000 0.822900 1 1 1.000000
molotov
0  -0.459304 -0.506768 5.620200  -0.818280 0.574820 -0.000199  0.166700 0.971500 1 1 1.000000
0  -0.265071 -0.312301 5.620133  -0.421302 0.906920 -0.000313  0.083300 0.971500 1 1 1.000000
0  -0.265071 -0.312984 3.643433  -0.496889 0.856659 0.138697  0.083300 0.822900 1 1 1.000000
molotov
0  0.000404 -0.241792 3.643409  -0.002015 0.990358 0.138515  0.000000 0.822900 1 1 1.000000
0  -0.265071 -0.312984 3.643433  -0.496889 0.856659 0.138697  0.083300 0.822900 1 1 1.000000
0  -0.265071 -0.312301 5.620133  -0.421302 0.906920 -0.000313  0.083300 0.971500 1 1 1.000000
molotov
0  0.000404 -0.241792 3.643409  -0.002015 0.990358 0.138515  0.000000 0.822900 1 1 1.000000
0  0.000296 0.072628 2.542800  -0.003142 0.932704 0.360630  0.000000 0.740200 1 1 1.000000
0  -0.265071 -0.312984 3.643433  -0.496889 0.856659 0.138697  0.083300 0.822900 1 1 1.000000
molotov
0  0.000118 0.588268 1.500322  0.002965 0.941047 0.338264  0.000000 0.661900 1 1 1.000000
0  -0.422565 -0.040818 2.542839  -0.469005 0.806181 0.360704  0.083300 0.740200 1 1 1.000000
0  0.000296 0.072628 2.542800  -0.003142 0.932704 0.360630  0.000000 0.740200 1 1 1.000000
molotov
0  -0.422565 -0.040818 2.542839  -0.469005 0.806181 0.360704  0.083300 0.740200 1 1 1.000000
0  -0.265071 -0.312984 3.643433  -0.496889 0.856659 0.138697  0.083300 0.822900 1 1 1.000000
0  0.000296 0.072628 2.542800  -0.003142 0.932704 0.360630  0.000000 0.740200 1 1 1.000000
molotov
0  -0.459304 -0.507451 3.643500  -0.858625 0.493457 0.138792  0.166700 0.822900 1 1 1.000000
0  -0.265071 -0.312984 3.643433  -0.496889 0.856659 0.138697  0.083300 0.822900 1 1 1.000000
0  -0.422565 -0.040818 2.542839  -0.469005 0.806181 0.360704  0.083300 0.740200 1 1 1.000000
molotov
0  -0.265071 -0.312984 3.643433  -0.496889 0.856659 0.138697  0.083300 0.822900 1 1 1.000000
0  -0.459304 -0.507451 3.643500  -0.858625 0.493457 0.138792  0.166700 0.822900 1 1 1.000000
0  -0.459304 -0.506768 5.620200  -0.818280 0.574820 -0.000199  0.166700 0.971500 1 1 1.000000
molotov
0  -0.530413 -0.772193 5.620292  -0.996062 0.088654 -0.000031  0.250000 0.971500 1 1 1.000000
0  -0.459304 -0.506768 5.620200  -0.818280 0.574820 -0.000199  0.166700 0.971500 1 1 1.000000
0  -0.459304 -0.507451 3.643500  -0.858625 0.493457 0.138792  0.166700 0.822900 1 1 1.000000
molotov
0  -0.264754 -1.232684 3.643750  -0.493409 -0.858577 0.139259  0.416700 0.822900 1 1 1.000000
0  0.000771 -1.303693 3.643775  0.002012 -0.990261 0.139208  0.500000 0.822900 1 1 1.000000
0  0.000771 -1.303010 5.620475  -0.088647 -0.996063 0.000344  0.500000 0.971500 1 1 1.000000
molotov
0  0.000771 -1.303010 5.620475  -0.088647 -0.996063 0.000344  0.500000 0.971500 1 1 1.000000
0  -0.264754 -1.232002 5.620450  -0.574816 -0.818282 0.000283  0.416700 0.971500 1 1 1.000000
0  -0.264754 -1.232684 3.643750  -0.493409 -0.858577 0.139259  0.416700 0.822900 1 1 1.000000
molotov
0  -0.459121 -1.038351 3.643683  -0.856621 -0.496807 0.139225  0.333300 0.822900 1 1 1.000000
0  -0.264754 -1.232684 3.643750  -0.493409 -0.858577 0.139259  0.416700 0.822900 1 1 1.000000
0  -0.264754 -1.232002 5.620450  -0.574816 -0.818282 0.000283  0.416700 0.971500 1 1 1.000000
molotov
0  -0.264754 -1.232002 5.620450  -0.574816 -0.818282 0.000283  0.416700 0.971500 1 1 1.000000
0  -0.459121 -1.037668 5.620384  -0.906928 -0.421286 0.000145  0.333300 0.971500 1 1 1.000000
0  -0.459121 -1.038351 3.643683  -0.856621 -0.496807 0.139225  0.333300 0.822900 1 1 1.000000
molotov
0  -0.530412 -0.772875 3.643592  -0.990280 -0.001855 0.139073  0.250000 0.822900 1 1 1.000000
0  -0.459121 -1.038351 3.643683  -0.856621 -0.496807 0.139225  0.333300 0.822900 1 1 1.000000
0  -0.459121 -1.037668 5.620384  -0.906928 -0.421286 0.000145  0.333300 0.971500 1 1 1.000000
molotov
0  -0.459121 -1.037668 5.620384  -0.906928 -0.421286 0.000145  0.333300 0.971500 1 1 1.000000
0  -0.530413 -0.772193 5.620292  -0.996062 0.088654 -0.000031  0.250000 0.971500 1 1 1.000000
0  -0.530412 -0.772875 3.643592  -0.990280 -0.001855 0.139073  0.250000 0.822900 1 1 1.000000
molotov
0  -0.459304 -0.507451 3.643500  -0.858625 0.493457 0.138792  0.166700 0.822900 1 1 1.000000
0  -0.530412 -0.772875 3.643592  -0.990280 -0.001855 0.139073  0.250000 0.822900 1 1 1.000000
0  -0.530413 -0.772193 5.620292  -0.996062 0.088654 -0.000031  0.250000 0.971500 1 1 1.000000
molotov
0  -0.530412 -0.772875 3.643592  -0.990280 -0.001855 0.139073  0.250000 0.822900 1 1 1.000000
0  -0.459304 -0.507451 3.643500  -0.858625 0.493457 0.138792  0.166700 0.822900 1 1 1.000000
0  -0.731958 -0.350525 2.542946  -0.809160 0.463743 0.360836  0.166700 0.740200 1 1 1.000000
molotov
0  -0.422565 -0.040818 2.542839  -0.469005 0.806181 0.360704  0.083300 0.740200 1 1 1.000000
0  -0.731958 -0.350525 2.542946  -0.809160 0.463743 0.360836  0.166700 0.740200 1 1 1.000000
0  -0.459304 -0.507451 3.643500  -0.858625 0.493457 0.138792  0.166700 0.822900 1 1 1.000000
molotov
0  -0.680719 0.405633 1.500385  -0.467883 0.816466 0.338331  0.083300 0.661900 1 1 1.000000
0  -0.731958 -0.350525 2.542946  -0.809160 0.463743 0.360836  0.166700 0.740200 1 1 1.000000
0  -0.422565 -0.040818 2.542839  -0.469005 0.806181 0.360704  0.083300 0.740200 1 1 1.000000
molotov
0  0.000118 0.588268 1.500322  0.002965 0.941047 0.338264  0.000000 0.661900 1 1 1.000000
0  -0.680719 0.405633 1.500385  -0.467883 0.816466 0.338331  0.083300 0.661900 1 1 1.000000
0  -0.422565 -0.040818 2.542839  -0.469005 0.806181 0.360704  0.083300 0.740200 1 1 1.000000
molotov
0  0.000118 0.588268 1.500322  0.002965 0.941047 0.338264  0.000000 0.661900 1 1 1.000000
0  0.000084 0.685924 1.083888  0.000772 0.993378 0.114893  0.000000 0.630600 1 1 1.000000
0  -0.680719 0.405633 1.500385  -0.467883 0.816466 0.338331  0.083300 0.661900 1 1 1.000000
molotov
0  -0.729649 0.490172 1.083955  -0.496043 0.860672 0.114829  0.083300 0.630600 1 1 1.000000
0  -0.680719 0.405633 1.500385  -0.467883 0.816466 0.338331  0.083300 0.661900 1 1 1.000000
0  0.000084 0.685924 1.083888  0.000772 0.993378 0.114893  0.000000 0.630600 1 1 1.000000
molotov
0  0.000086 0.683105 -7.077813  -0.004736 0.973877 -0.227026  0.000000 0.017100 1 1 1.000000
0  -0.729649 0.490172 1.083955  -0.496043 0.860672 0.114829  0.083300 0.630600 1 1 1.000000
0  0.000084 0.685924 1.083888  0.000772 0.993378 0.114893  0.000000 0.630600 1 1 1.000000
molotov
0  0.000086 0.683105 -7.077813  -0.004736 0.973877 -0.227026  0.000000 0.017100 1 1 1.000000
0  -0.729647 0.487354 -7.077745  -0.491067 0.841037 -0.226958  0.083300 0.017100 1 1 1.000000
0  -0.729649 0.490172 1.083955  -0.496043 0.860672 0.114829  0.083300 0.630600 1 1 1.000000
molotov
0  0.000123 0.574929 -7.298275  -0.080200 0.894841 -0.439121  0.000000 0.000500 1 1 1.000000
0  -0.729647 0.487354 -7.077745  -0.491067 0.841037 -0.226958  0.083300 0.017100 1 1 1.000000
0  0.000086 0.683105 -7.077813  -0.004736 0.973877 -0.227026  0.000000 0.017100 1 1 1.000000
molotov
0  0.000123 0.574929 -7.298275  -0.080200 0.894841 -0.439121  0.000000 0.000500 1 1 1.000000
0  -0.675515 0.393596 -7.298213  -0.516955 0.734847 -0.439042  0.083300 0.000500 1 1 1.000000
0  -0.729647 0.487354 -7.077745  -0.491067 0.841037 -0.226958  0.083300 0.017100 1 1 1.000000
molotov
0  -0.675515 0.393596 -7.298213  -0.516955 0.734847 -0.439042  0.083300 0.000500 1 1 1.000000
0  -1.263663 -0.047131 -7.077560  -0.845832 0.482806 -0.226863  0.166700 0.017100 1 1 1.000000
0  -0.729647 0.487354 -7.077745  -0.491067 0.841037 -0.226958  0.083300 0.017100 1 1 1.000000
molotov
0  -0.680719 0.405633 1.500385  -0.467883 0.816466 0.338331  0.083300 0.661900 1 1 1.000000
0  -1.178947 -0.092939 1.500557  -0.813387 0.473143 0.338434  0.166700 0.661900 1 1 1.000000
0  -0.731958 -0.350525 2.542946  -0.809160 0.463743 0.360836  0.166700 0.740200 1 1 1.000000
molotov
0  -1.178947 -0.092939 1.500557  -0.813387 0.473143 0.338434  0.166700 0.661900 1 1 1.000000
0  -0.845112 -0.773364 2.543092  -0.932541 -0.002961 0.361052  0.250000 0.740200 1 1 1.000000
0  -0.731958 -0.350525 2.542946  -0.809160 0.463743 0.360836  0.166700 0.740200 1 1 1.000000
molotov
0  -0.731958 -0.350525 2.542946  -0.809160 0.463743 0.360836  0.166700 0.740200 1 1 1.000000
0  -0.845112 -0.773364 2.543092  -0.932541 -0.002961 0.361052  0.250000 0.740200 1 1 1.000000
0  -0.530412 -0.772875 3.643592  -0.990280 -0.001855 0.139073  0.250000 0.822900 1 1 1.000000
molotov
0  -0.530412 -0.772875 3.643592  -0.990280 -0.001855 0.139073  0.250000 0.822900 1 1 1.000000
0  -0.845112 -0.773364 2.543092  -0.932541 -0.002961 0.361052  0.250000 0.740200 1 1 1.000000
0  -0.459121 -1.038351 3.643683  -0.856621 -0.496807 0.139225  0.333300 0.822900 1 1 1.000000
molotov
0  -0.731666 -1.196225 2.543238  -0.806055 -0.468863 0.361169  0.333300 0.740200 1 1 1.000000
0  -0.459121 -1.038351 3.643683  -0.856621 -0.496807 0.139225  0.333300 0.822900 1 1 1.000000
0  -0.845112 -0.773364 2.543092  -0.932541 -0.002961 0.361052  0.250000 0.740200 1 1 1.000000
molotov
0  -0.459121 -1.038351 3.643683  -0.856621 -0.496807 0.139225  0.333300 0.822900 1 1 1.000000
0  -0.731666 -1.196225 2.543238  -0.806055 -0.468863 0.361169  0.333300 0.740200 1 1 1.000000
0  -0.264754 -1.232684 3.643750  -0.493409 -0.858577 0.139259  0.416700 0.822900 1 1 1.000000
molotov
0  -0.422059 -1.505618 2.543345  -0.463614 -0.809047 0.361256  0.416700 0.740200 1 1 1.000000
0  -0.264754 -1.232684 3.643750  -0.493409 -0.858577 0.139259  0.416700 0.822900 1 1 1.000000
0  -0.731666 -1.196225 2.543238  -0.806055 -0.468863 0.361169  0.333300 0.740200 1 1 1.000000
molotov
0  -0.264754 -1.232684 3.643750  -0.493409 -0.858577 0.139259  0.416700 0.822900 1 1 1.000000
0  -0.422059 -1.505618 2.543345  -0.463614 -0.809047 0.361256  0.416700 0.740200 1 1 1.000000
0  0.000771 -1.303693 3.643775  0.002012 -0.990261 0.139208  0.500000 0.822900 1 1 1.000000
molotov
0  0.000880 -1.618772 2.543384  0.003117 -0.932438 0.361316  0.500000 0.740200 1 1 1.000000
0  0.000771 -1.303693 3.643775  0.002012 -0.990261 0.139208  0.500000 0.822900 1 1 1.000000
0  -0.422059 -1.505618 2.543345  -0.463614 -0.809047 0.361256  0.416700 0.740200 1 1 1.000000
molotov
0  0.000771 -1.303693 3.643775  0.002012 -0.990261 0.139208  0.500000 0.822900 1 1 1.000000
0  0.000880 -1.618772 2.543384  0.003117 -0.932438 0.361316  0.500000 0.740200 1 1 1.000000
0  0.266247 -1.232501 3.643750  0.496881 -0.856565 0.139303  0.583300 0.822900 1 1 1.000000
molotov
0  0.423741 -1.505327 2.543345  0.468956 -0.805928 0.361332  0.583300 0.740200 1 1 1.000000
0  0.266247 -1.232501 3.643750  0.496881 -0.856565 0.139303  0.583300 0.822900 1 1 1.000000
0  0.000880 -1.618772 2.543384  0.003117 -0.932438 0.361316  0.500000 0.740200 1 1 1.000000
molotov
0  0.266247 -1.232501 3.643750  0.496881 -0.856565 0.139303  0.583300 0.822900 1 1 1.000000
0  0.423741 -1.505327 2.543345  0.468956 -0.805928 0.361332  0.583300 0.740200 1 1 1.000000
0  0.460480 -1.038034 3.643683  0.858602 -0.493385 0.139193  0.666700 0.822900 1 1 1.000000
molotov
0  0.733134 -1.195720 2.543238  0.809148 -0.463499 0.361175  0.666700 0.740200 1 1 1.000000
0  0.460480 -1.038034 3.643683  0.858602 -0.493385 0.139193  0.666700 0.822900 1 1 1.000000
0  0.423741 -1.505327 2.543345  0.468956 -0.805928 0.361332  0.583300 0.740200 1 1 1.000000
molotov
0  0.460480 -1.038034 3.643683  0.858602 -0.493385 0.139193  0.666700 0.822900 1 1 1.000000
0  0.733134 -1.195720 2.543238  0.809148 -0.463499 0.361175  0.666700 0.740200 1 1 1.000000
0  0.531588 -0.772509 3.643592  0.990274 0.001930 0.139118  0.750000 0.822900 1 1 1.000000
molotov
0  0.846288 -0.772781 2.543092  0.932597 0.003291 0.360904  0.750000 0.740200 1 1 1.000000
0  0.531588 -0.772509 3.643592  0.990274 0.001930 0.139118  0.750000 0.822900 1 1 1.000000
0  0.733134 -1.195720 2.543238  0.809148 -0.463499 0.361175  0.666700 0.740200 1 1 1.000000
molotov
0  0.531588 -0.772509 3.643592  0.990274 0.001930 0.139118  0.750000 0.822900 1 1 1.000000
0  0.846288 -0.772781 2.543092  0.932597 0.003291 0.360904  0.750000 0.740200 1 1 1.000000
0  0.460296 -0.507134 3.643500  0.856623 0.496893 0.138902  0.833300 0.822900 1 1 1.000000
molotov
0  0.732842 -0.350020 2.542946  0.806053 0.469087 0.360882  0.833300 0.740200 1 1 1.000000
0  0.460296 -0.507134 3.643500  0.856623 0.496893 0.138902  0.833300 0.822900 1 1 1.000000
0  0.846288 -0.772781 2.543092  0.932597 0.003291 0.360904  0.750000 0.740200 1 1 1.000000
molotov
0  0.460296 -0.507134 3.643500  0.856623 0.496893 0.138902  0.833300 0.822900 1 1 1.000000
0  0.732842 -0.350020 2.542946  0.806053 0.469087 0.360882  0.833300 0.740200 1 1 1.000000
0  0.265929 -0.312801 3.643433  0.493419 0.858663 0.138692  0.916700 0.822900 1 1 1.000000
molotov
0  -1.361212 -0.773902 1.500792  -0.940922 0.003092 0.338608  0.250000 0.661900 1 1 1.000000
0  -1.178477 -1.454739 1.501027  -0.816349 -0.467741 0.338812  0.333300 0.661900 1 1 1.000000
0  -0.731666 -1.196225 2.543238  -0.806055 -0.468863 0.361169  0.333300 0.740200 1 1 1.000000
molotov
0  -1.178477 -1.454739 1.501027  -0.816349 -0.467741 0.338812  0.333300 0.661900 1 1 1.000000
0  -0.422059 -1.505618 2.543345  -0.463614 -0.809047 0.361256  0.416700 0.740200 1 1 1.000000
0  -0.731666 -1.196225 2.543238  -0.806055 -0.468863 0.361169  0.333300 0.740200 1 1 1.000000
molotov
0  -1.178477 -1.454739 1.501027  -0.816349 -0.467741 0.338812  0.333300 0.661900 1 1 1.000000
0  -0.679905 -1.953067 1.501199  -0.473026 -0.813270 0.338877  0.416700 0.661900 1 1 1.000000
0  -0.422059 -1.505618 2.543345  -0.463614 -0.809047 0.361256  0.416700 0.740200 1 1 1.000000
molotov
0  -0.679905 -1.953067 1.501199  -0.473026 -0.813270 0.338877  0.416700 0.661900 1 1 1.000000
0  0.000880 -1.618772 2.543384  0.003117 -0.932438 0.361316  0.500000 0.740200 1 1 1.000000
0  -0.422059 -1.505618 2.543345  -0.463614 -0.809047 0.361256  0.416700 0.740200 1 1 1.000000
molotov
0  -0.679905 -1.953067 1.501199  -0.473026 -0.813270 0.338877  0.416700 0.661900 1 1 1.000000
0  0.001058 -2.135233 1.501262  -0.002952 -0.940821 0.338891  0.500000 0.661900 1 1 1.000000
0  0.000880 -1.618772 2.543384  0.003117 -0.932438 0.361316  0.500000 0.740200 1 1 1.000000
molotov
0  0.001058 -2.135233 1.501262  -0.002952 -0.940821 0.338891  0.500000 0.661900 1 1 1.000000
0  0.423741 -1.505327 2.543345  0.468956 -0.805928 0.361332  0.583300 0.740200 1 1 1.000000
0  0.000880 -1.618772 2.543384  0.003117 -0.932438 0.361316  0.500000 0.740200 1 1 1.000000
molotov
0  0.001058 -2.135233 1.501262  -0.002952 -0.940821 0.338891  0.500000 0.661900 1 1 1.000000
0  0.681896 -1.952598 1.501199  0.467868 -0.816232 0.338916  0.583300 0.661900 1 1 1.000000
0  0.423741 -1.505327 2.543345  0.468956 -0.805928 0.361332  0.583300 0.740200 1 1 1.000000
molotov
0  0.681896 -1.952598 1.501199  0.467868 -0.816232 0.338916  0.583300 0.661900 1 1 1.000000
0  0.733134 -1.195720 2.543238  0.809148 -0.463499 0.361175  0.666700 0.740200 1 1 1.000000
0  0.423741 -1.505327 2.543345  0.468956 -0.805928 0.361332  0.583300 0.740200 1 1 1.000000
molotov
0  0.681896 -1.952598 1.501199  0.467868 -0.816232 0.338916  0.583300 0.661900 1 1 1.000000
0  1.180124 -1.453926 1.501027  0.813414 -0.472897 0.338713  0.666700 0.661900 1 1 1.000000
0  0.733134 -1.195720 2.543238  0.809148 -0.463499 0.361175  0.666700 0.740200 1 1 1.000000
molotov
0  1.180124 -1.453926 1.501027  0.813414 -0.472897 0.338713  0.666700 0.661900 1 1 1.000000
0  0.846288 -0.772781 2.543092  0.932597 0.003291 0.360904  0.750000 0.740200 1 1 1.000000
0  0.733134 -1.195720 2.543238  0.809148 -0.463499 0.361175  0.666700 0.740200 1 1 1.000000
molotov
0  1.180124 -1.453926 1.501027  0.813414 -0.472897 0.338713  0.666700 0.661900 1 1 1.000000
0  1.362388 -0.772963 1.500792  0.940921 -0.002861 0.338613  0.750000 0.661900 1 1 1.000000
0  0.846288 -0.772781 2.543092  0.932597 0.003291 0.360904  0.750000 0.740200 1 1 1.000000
molotov
0  1.362388 -0.772963 1.500792  0.940921 -0.002861 0.338613  0.750000 0.661900 1 1 1.000000
0  0.732842 -0.350020 2.542946  0.806053 0.469087 0.360882  0.833300 0.740200 1 1 1.000000
0  0.846288 -0.772781 2.543092  0.932597 0.003291 0.360904  0.750000 0.740200 1 1 1.000000
molotov
0  1.362388 -0.772963 1.500792  0.940921 -0.002861 0.338613  0.750000 0.661900 1 1 1.000000
0  1.179653 -0.092126 1.500557  0.816349 0.467986 0.338472  0.833300 0.661900 1 1 1.000000
0  0.732842 -0.350020 2.542946  0.806053 0.469087 0.360882  0.833300 0.740200 1 1 1.000000
molotov
0  -1.361212 -0.773902 1.500792  -0.940922 0.003092 0.338608  0.250000 0.661900 1 1 1.000000
0  -0.731666 -1.196225 2.543238  -0.806055 -0.468863 0.361169  0.333300 0.740200 1 1 1.000000
0  -0.845112 -0.773364 2.543092  -0.932541 -0.002961 0.361052  0.250000 0.740200 1 1 1.000000
molotov
0  -1.178947 -0.092939 1.500557  -0.813387 0.473143 0.338434  0.166700 0.661900 1 1 1.000000
0  -1.361212 -0.773902 1.500792  -0.940922 0.003092 0.338608  0.250000 0.661900 1 1 1.000000
0  -0.845112 -0.773364 2.543092  -0.932541 -0.002961 0.361052  0.250000 0.740200 1 1 1.000000
molotov
0  -1.178947 -0.092939 1.500557  -0.813387 0.473143 0.338434  0.166700 0.661900 1 1 1.000000
0  -1.263664 -0.044312 1.084140  -0.859840 0.497404 0.115169  0.166700 0.630600 1 1 1.000000
0  -1.361212 -0.773902 1.500792  -0.940922 0.003092 0.338608  0.250000 0.661900 1 1 1.000000
molotov
0  -1.459012 -0.774080 1.084392  -0.993320 0.000886 0.115387  0.250000 0.630600 1 1 1.000000
0  -1.361212 -0.773902 1.500792  -0.940922 0.003092 0.338608  0.250000 0.661900 1 1 1.000000
0  -1.263664 -0.044312 1.084140  -0.859840 0.497404 0.115169  0.166700 0.630600 1 1 1.000000
molotov
0  -1.361212 -0.773902 1.500792  -0.940922 0.003092 0.338608  0.250000 0.661900 1 1 1.000000
0  -1.459012 -0.774080 1.084392  -0.993320 0.000886 0.115387  0.250000 0.630600 1 1 1.000000
0  -1.178477 -1.454739 1.501027  -0.816349 -0.467741 0.338812  0.333300 0.661900 1 1 1.000000
molotov
0  -1.263160 -1.503812 1.084644  -0.860682 -0.495840 0.115626  0.333300 0.630600 1 1 1.000000
0  -1.178477 -1.454739 1.501027  -0.816349 -0.467741 0.338812  0.333300 0.661900 1 1 1.000000
0  -1.459012 -0.774080 1.084392  -0.993320 0.000886 0.115387  0.250000 0.630600 1 1 1.000000
molotov
0  -1.178477 -1.454739 1.501027  -0.816349 -0.467741 0.338812  0.333300 0.661900 1 1 1.000000
0  -1.263160 -1.503812 1.084644  -0.860682 -0.495840 0.115626  0.333300 0.630600 1 1 1.000000
0  -0.679905 -1.953067 1.501199  -0.473026 -0.813270 0.338877  0.416700 0.661900 1 1 1.000000
molotov
0  -0.728776 -2.037828 1.084828  -0.497275 -0.859885 0.115390  0.416700 0.630600 1 1 1.000000
0  -0.679905 -1.953067 1.501199  -0.473026 -0.813270 0.338877  0.416700 0.661900 1 1 1.000000
0  -1.263160 -1.503812 1.084644  -0.860682 -0.495840 0.115626  0.333300 0.630600 1 1 1.000000
molotov
0  -0.679905 -1.953067 1.501199  -0.473026 -0.813270 0.338877  0.416700 0.661900 1 1 1.000000
0  -0.728776 -2.037828 1.084828  -0.497275 -0.859885 0.115390  0.416700 0.630600 1 1 1.000000
0  0.001058 -2.135233 1.501262  -0.002952 -0.940821 0.338891  0.500000 0.661900 1 1 1.000000
molotov
0  0.001092 -2.233176 1.084896  -0.000676 -0.993321 0.115379  0.500000 0.630600 1 1 1.000000
0  0.001058 -2.135233 1.501262  -0.002952 -0.940821 0.338891  0.500000 0.661900 1 1 1.000000
0  -0.728776 -2.037828 1.084828  -0.497275 -0.859885 0.115390  0.416700 0.630600 1 1 1.000000
molotov
0  0.001058 -2.135233 1.501262  -0.002952 -0.940821 0.338891  0.500000 0.661900 1 1 1.000000
0  0.001092 -2.233176 1.084896  -0.000676 -0.993321 0.115379  0.500000 0.630600 1 1 1.000000
0  0.681896 -1.952598 1.501199  0.467868 -0.816232 0.338916  0.583300 0.661900 1 1 1.000000
molotov
0  0.730825 -2.037325 1.084828  0.495890 -0.860639 0.115731  0.583300 0.630600 1 1 1.000000
0  0.681896 -1.952598 1.501199  0.467868 -0.816232 0.338916  0.583300 0.661900 1 1 1.000000
0  0.001092 -2.233176 1.084896  -0.000676 -0.993321 0.115379  0.500000 0.630600 1 1 1.000000
molotov
0  0.681896 -1.952598 1.501199  0.467868 -0.816232 0.338916  0.583300 0.661900 1 1 1.000000
0  0.730825 -2.037325 1.084828  0.495890 -0.860639 0.115731  0.583300 0.630600 1 1 1.000000
0  1.180124 -1.453926 1.501027  0.813414 -0.472897 0.338713  0.666700 0.661900 1 1 1.000000
molotov
0  1.264841 -1.502940 1.084644  0.859821 -0.497343 0.115573  0.666700 0.630600 1 1 1.000000
0  1.180124 -1.453926 1.501027  0.813414 -0.472897 0.338713  0.666700 0.661900 1 1 1.000000
0  0.730825 -2.037325 1.084828  0.495890 -0.860639 0.115731  0.583300 0.630600 1 1 1.000000
molotov
0  1.180124 -1.453926 1.501027  0.813414 -0.472897 0.338713  0.666700 0.661900 1 1 1.000000
0  1.264841 -1.502940 1.084644  0.859821 -0.497343 0.115573  0.666700 0.630600 1 1 1.000000
0  1.362388 -0.772963 1.500792  0.940921 -0.002861 0.338613  0.750000 0.661900 1 1 1.000000
molotov
0  1.460189 -0.773073 1.084392  0.993322 -0.000802 0.115372  0.750000 0.630600 1 1 1.000000
0  1.362388 -0.772963 1.500792  0.940921 -0.002861 0.338613  0.750000 0.661900 1 1 1.000000
0  1.264841 -1.502940 1.084644  0.859821 -0.497343 0.115573  0.666700 0.630600 1 1 1.000000
molotov
0  1.362388 -0.772963 1.500792  0.940921 -0.002861 0.338613  0.750000 0.661900 1 1 1.000000
0  1.460189 -0.773073 1.084392  0.993322 -0.000802 0.115372  0.750000 0.630600 1 1 1.000000
0  1.179653 -0.092126 1.500557  0.816349 0.467986 0.338472  0.833300 0.661900 1 1 1.000000
molotov
0  1.264337 -0.043440 1.084140  0.860664 0.495976 0.115173  0.833300 0.630600 1 1 1.000000
0  1.179653 -0.092126 1.500557  0.816349 0.467986 0.338472  0.833300 0.661900 1 1 1.000000
0  1.460189 -0.773073 1.084392  0.993322 -0.000802 0.115372  0.750000 0.630600 1 1 1.000000
molotov
0  1.460190 -0.775891 -7.077309  0.973949 0.004671 -0.226719  0.750000 0.017100 1 1 1.000000
0  1.264337 -0.043440 1.084140  0.860664 0.495976 0.115173  0.833300 0.630600 1 1 1.000000
0  1.460189 -0.773073 1.084392  0.993322 -0.000802 0.115372  0.750000 0.630600 1 1 1.000000
molotov
0  1.460190 -0.775891 -7.077309  0.973949 0.004671 -0.226719  0.750000 0.017100 1 1 1.000000
0  1.264338 -0.046259 -7.077560  0.841084 0.491011 -0.226905  0.833300 0.017100 1 1 1.000000
0  1.264337 -0.043440 1.084140  0.860664 0.495976 0.115173  0.833300 0.630600 1 1 1.000000
molotov
0  1.264842 -1.505759 -7.077056  0.845833 -0.482945 -0.226561  0.666700 0.017100 1 1 1.000000
0  1.460190 -0.775891 -7.077309  0.973949 0.004671 -0.226719  0.750000 0.017100 1 1 1.000000
0  1.460189 -0.773073 1.084392  0.993322 -0.000802 0.115372  0.750000 0.630600 1 1 1.000000
molotov
0  1.264842 -1.505759 -7.077056  0.845833 -0.482945 -0.226561  0.666700 0.017100 1 1 1.000000
0  1.460189 -0.773073 1.084392  0.993322 -0.000802 0.115372  0.750000 0.630600 1 1 1.000000
0  1.264841 -1.502940 1.084644  0.859821 -0.497343 0.115573  0.666700 0.630600 1 1 1.000000
molotov
0  0.730826 -2.040143 -7.076872  0.491083 -0.841171 -0.226426  0.583300 0.017100 1 1 1.000000
0  1.264842 -1.505759 -7.077056  0.845833 -0.482945 -0.226561  0.666700 0.017100 1 1 1.000000
0  1.264841 -1.502940 1.084644  0.859821 -0.497343 0.115573  0.666700 0.630600 1 1 1.000000
molotov
0  0.730826 -2.040143 -7.076872  0.491083 -0.841171 -0.226426  0.583300 0.017100 1 1 1.000000
0  1.264841 -1.502940 1.084644  0.859821 -0.497343 0.115573  0.666700 0.630600 1 1 1.000000
0  0.730825 -2.037325 1.084828  0.495890 -0.860639 0.115731  0.583300 0.630600 1 1 1.000000
molotov
0  0.001094 -2.235995 -7.076805  0.004707 -0.974047 -0.226298  0.500000 0.017100 1 1 1.000000
0  0.730826 -2.040143 -7.076872  0.491083 -0.841171 -0.226426  0.583300 0.017100 1 1 1.000000
0  0.730825 -2.037325 1.084828  0.495890 -0.860639 0.115731  0.583300 0.630600 1 1 1.000000
molotov
0  0.001094 -2.235995 -7.076805  0.004707 -0.974047 -0.226298  0.500000 0.017100 1 1 1.000000
0  0.730825 -2.037325 1.084828  0.495890 -0.860639 0.115731  0.583300 0.630600 1 1 1.000000
0  0.001092 -2.233176 1.084896  -0.000676 -0.993321 0.115379  0.500000 0.630600 1 1 1.000000
molotov
0  -0.728774 -2.040647 -7.076872  -0.482867 -0.845911 -0.226437  0.416700 0.017100 1 1 1.000000
0  0.001094 -2.235995 -7.076805  0.004707 -0.974047 -0.226298  0.500000 0.017100 1 1 1.000000
0  0.001092 -2.233176 1.084896  -0.000676 -0.993321 0.115379  0.500000 0.630600 1 1 1.000000
molotov
0  -0.728774 -2.040647 -7.076872  -0.482867 -0.845911 -0.226437  0.416700 0.017100 1 1 1.000000
0  0.001092 -2.233176 1.084896  -0.000676 -0.993321 0.115379  0.500000 0.630600 1 1 1.000000
0  -0.728776 -2.037828 1.084828  -0.497275 -0.859885 0.115390  0.416700 0.630600 1 1 1.000000
molotov
0  -1.263159 -1.506631 -7.077057  -0.841102 -0.491154 -0.226529  0.333300 0.017100 1 1 1.000000
0  -0.728774 -2.040647 -7.076872  -0.482867 -0.845911 -0.226437  0.416700 0.017100 1 1 1.000000
0  -0.728776 -2.037828 1.084828  -0.497275 -0.859885 0.115390  0.416700 0.630600 1 1 1.000000
molotov
0  -1.263159 -1.506631 -7.077057  -0.841102 -0.491154 -0.226529  0.333300 0.017100 1 1 1.000000
0  -0.728776 -2.037828 1.084828  -0.497275 -0.859885 0.115390  0.416700 0.630600 1 1 1.000000
0  -1.263160 -1.503812 1.084644  -0.860682 -0.495840 0.115626  0.333300 0.630600 1 1 1.000000
molotov
0  -1.459011 -0.776898 -7.077309  -0.973941 -0.004847 -0.226750  0.250000 0.017100 1 1 1.000000
0  -1.263159 -1.506631 -7.077057  -0.841102 -0.491154 -0.226529  0.333300 0.017100 1 1 1.000000
0  -1.263160 -1.503812 1.084644  -0.860682 -0.495840 0.115626  0.333300 0.630600 1 1 1.000000
molotov
0  -1.459011 -0.776898 -7.077309  -0.973941 -0.004847 -0.226750  0.250000 0.017100 1 1 1.000000
0  -1.263160 -1.503812 1.084644  -0.860682 -0.495840 0.115626  0.333300 0.630600 1 1 1.000000
0  -1.459012 -0.774080 1.084392  -0.993320 0.000886 0.115387  0.250000 0.630600 1 1 1.000000
molotov
0  -1.263663 -0.047131 -7.077560  -0.845832 0.482806 -0.226863  0.166700 0.017100 1 1 1.000000
0  -1.459011 -0.776898 -7.077309  -0.973941 -0.004847 -0.226750  0.250000 0.017100 1 1 1.000000
0  -1.459012 -0.774080 1.084392  -0.993320 0.000886 0.115387  0.250000 0.630600 1 1 1.000000
molotov
0  -1.263663 -0.047131 -7.077560  -0.845832 0.482806 -0.226863  0.166700 0.017100 1 1 1.000000
0  -1.459012 -0.774080 1.084392  -0.993320 0.000886 0.115387  0.250000 0.630600 1 1 1.000000
0  -1.263664 -0.044312 1.084140  -0.859840 0.497404 0.115169  0.166700 0.630600 1 1 1.000000
molotov
0  -0.729647 0.487354 -7.077745  -0.491067 0.841037 -0.226958  0.083300 0.017100 1 1 1.000000
0  -1.263663 -0.047131 -7.077560  -0.845832 0.482806 -0.226863  0.166700 0.017100 1 1 1.000000
0  -1.263664 -0.044312 1.084140  -0.859840 0.497404 0.115169  0.166700 0.630600 1 1 1.000000
molotov
0  -0.729647 0.487354 -7.077745  -0.491067 0.841037 -0.226958  0.083300 0.017100 1 1 1.000000
0  -1.263664 -0.044312 1.084140  -0.859840 0.497404 0.115169  0.166700 0.630600 1 1 1.000000
0  -0.729649 0.490172 1.083955  -0.496043 0.860672 0.114829  0.083300 0.630600 1 1 1.000000
molotov
0  -1.263664 -0.044312 1.084140  -0.859840 0.497404 0.115169  0.166700 0.630600 1 1 1.000000
0  -1.178947 -0.092939 1.500557  -0.813387 0.473143 0.338434  0.166700 0.661900 1 1 1.000000
0  -0.729649 0.490172 1.083955  -0.496043 0.860672 0.114829  0.083300 0.630600 1 1 1.000000
molotov
0  -0.680719 0.405633 1.500385  -0.467883 0.816466 0.338331  0.083300 0.661900 1 1 1.000000
0  -0.729649 0.490172 1.083955  -0.496043 0.860672 0.114829  0.083300 0.630600 1 1 1.000000
0  -1.178947 -0.092939 1.500557  -0.813387 0.473143 0.338434  0.166700 0.661900 1 1 1.000000
molotov
0  -0.675515 0.393596 -7.298213  -0.516955 0.734847 -0.439042  0.083300 0.000500 1 1 1.000000
0  -1.170044 -0.101174 -7.298042  -0.815216 0.377849 -0.438922  0.166700 0.000500 1 1 1.000000
0  -1.263663 -0.047131 -7.077560  -0.845832 0.482806 -0.226863  0.166700 0.017100 1 1 1.000000
molotov
0  -1.170044 -0.101174 -7.298042  -0.815216 0.377849 -0.438922  0.166700 0.000500 1 1 1.000000
0  -1.459011 -0.776898 -7.077309  -0.973941 -0.004847 -0.226750  0.250000 0.017100 1 1 1.000000
0  -1.263663 -0.047131 -7.077560  -0.845832 0.482806 -0.226863  0.166700 0.017100 1 1 1.000000
molotov
0  -1.170044 -0.101174 -7.298042  -0.815216 0.377849 -0.438922  0.166700 0.000500 1 1 1.000000
0  -1.350811 -0.776937 -7.297809  -0.894994 -0.080341 -0.438783  0.250000 0.000500 1 1 1.000000
0  -1.459011 -0.776898 -7.077309  -0.973941 -0.004847 -0.226750  0.250000 0.017100 1 1 1.000000
molotov
0  -1.350811 -0.776937 -7.297809  -0.894994 -0.080341 -0.438783  0.250000 0.000500 1 1 1.000000
0  -1.263159 -1.506631 -7.077057  -0.841102 -0.491154 -0.226529  0.333300 0.017100 1 1 1.000000
0  -1.459011 -0.776898 -7.077309  -0.973941 -0.004847 -0.226750  0.250000 0.017100 1 1 1.000000
molotov
0  -1.350811 -0.776937 -7.297809  -0.894994 -0.080341 -0.438783  0.250000 0.000500 1 1 1.000000
0  -1.169577 -1.452675 -7.297575  -0.735007 -0.517089 -0.438615  0.333300 0.000500 1 1 1.000000
0  -1.263159 -1.506631 -7.077057  -0.841102 -0.491154 -0.226529  0.333300 0.017100 1 1 1.000000
molotov
0  -1.169577 -1.452675 -7.297575  -0.735007 -0.517089 -0.438615  0.333300 0.000500 1 1 1.000000
0  -0.728774 -2.040647 -7.076872  -0.482867 -0.845911 -0.226437  0.416700 0.017100 1 1 1.000000
0  -1.263159 -1.506631 -7.077057  -0.841102 -0.491154 -0.226529  0.333300 0.017100 1 1 1.000000
molotov
0  -1.169577 -1.452675 -7.297575  -0.735007 -0.517089 -0.438615  0.333300 0.000500 1 1 1.000000
0  -0.674707 -1.947104 -7.297405  -0.378008 -0.815365 -0.438509  0.416700 0.000500 1 1 1.000000
0  -0.728774 -2.040647 -7.076872  -0.482867 -0.845911 -0.226437  0.416700 0.017100 1 1 1.000000
molotov
0  -0.674707 -1.947104 -7.297405  -0.378008 -0.815365 -0.438509  0.416700 0.000500 1 1 1.000000
0  0.001094 -2.235995 -7.076805  0.004707 -0.974047 -0.226298  0.500000 0.017100 1 1 1.000000
0  -0.728774 -2.040647 -7.076872  -0.482867 -0.845911 -0.226437  0.416700 0.017100 1 1 1.000000
molotov
0  -0.674707 -1.947104 -7.297405  -0.378008 -0.815365 -0.438509  0.416700 0.000500 1 1 1.000000
0  0.001056 -2.127971 -7.297342  0.080197 -0.895146 -0.438501  0.500000 0.000500 1 1 1.000000
0  0.001094 -2.235995 -7.076805  0.004707 -0.974047 -0.226298  0.500000 0.017100 1 1 1.000000
molotov
0  0.001056 -2.127971 -7.297342  0.080197 -0.895146 -0.438501  0.500000 0.000500 1 1 1.000000
0  0.730826 -2.040143 -7.076872  0.491083 -0.841171 -0.226426  0.583300 0.017100 1 1 1.000000
0  0.001094 -2.235995 -7.076805  0.004707 -0.974047 -0.226298  0.500000 0.017100 1 1 1.000000
molotov
0  0.001056 -2.127971 -7.297342  0.080197 -0.895146 -0.438501  0.500000 0.000500 1 1 1.000000
0  0.676694 -1.946638 -7.297404  0.516941 -0.735159 -0.438535  0.583300 0.000500 1 1 1.000000
0  0.730826 -2.040143 -7.076872  0.491083 -0.841171 -0.226426  0.583300 0.017100 1 1 1.000000
molotov
0  0.676694 -1.946638 -7.297404  0.516941 -0.735159 -0.438535  0.583300 0.000500 1 1 1.000000
0  1.264842 -1.505759 -7.077056  0.845833 -0.482945 -0.226561  0.666700 0.017100 1 1 1.000000
0  0.730826 -2.040143 -7.076872  0.491083 -0.841171 -0.226426  0.583300 0.017100 1 1 1.000000
molotov
0  0.676694 -1.946638 -7.297404  0.516941 -0.735159 -0.438535  0.583300 0.000500 1 1 1.000000
0  1.171224 -1.451867 -7.297575  0.815224 -0.378136 -0.438661  0.666700 0.000500 1 1 1.000000
0  1.264842 -1.505759 -7.077056  0.845833 -0.482945 -0.226561  0.666700 0.017100 1 1 1.000000
molotov
0  1.171224 -1.451867 -7.297575  0.815224 -0.378136 -0.438661  0.666700 0.000500 1 1 1.000000
0  1.460190 -0.775891 -7.077309  0.973949 0.004671 -0.226719  0.750000 0.017100 1 1 1.000000
0  1.264842 -1.505759 -7.077056  0.845833 -0.482945 -0.226561  0.666700 0.017100 1 1 1.000000
molotov
0  1.171224 -1.451867 -7.297575  0.815224 -0.378136 -0.438661  0.666700 0.000500 1 1 1.000000
0  1.351990 -0.776005 -7.297809  0.894990 0.080072 -0.438840  0.750000 0.000500 1 1 1.000000
0  1.460190 -0.775891 -7.077309  0.973949 0.004671 -0.226719  0.750000 0.017100 1 1 1.000000
molotov
0  1.351990 -0.776005 -7.297809  0.894990 0.080072 -0.438840  0.750000 0.000500 1 1 1.000000
0  1.264338 -0.046259 -7.077560  0.841084 0.491011 -0.226905  0.833300 0.017100 1 1 1.000000
0  1.460190 -0.775891 -7.077309  0.973949 0.004671 -0.226719  0.750000 0.017100 1 1 1.000000
molotov
0  1.351990 -0.776005 -7.297809  0.894990 0.080072 -0.438840  0.750000 0.000500 1 1 1.000000
0  1.170757 -0.100367 -7.298042  0.735019 0.516771 -0.438970  0.833300 0.000500 1 1 1.000000
0  1.264338 -0.046259 -7.077560  0.841084 0.491011 -0.226905  0.833300 0.017100 1 1 1.000000
molotov
0  1.170757 -0.100367 -7.298042  0.735019 0.516771 -0.438970  0.833300 0.000500 1 1 1.000000
0  0.729953 0.487857 -7.077745  0.482880 0.845754 -0.226996  0.916700 0.017100 1 1 1.000000
0  1.264338 -0.046259 -7.077560  0.841084 0.491011 -0.226905  0.833300 0.017100 1 1 1.000000
molotov
0  1.170757 -0.100367 -7.298042  0.735019 0.516771 -0.438970  0.833300 0.000500 1 1 1.000000
0  0.675886 0.394062 -7.298213  0.377994 0.815070 -0.439069  0.916700 0.000500 1 1 1.000000
0  0.729953 0.487857 -7.077745  0.482880 0.845754 -0.226996  0.916700 0.017100 1 1 1.000000
molotov
0  0.675886 0.394062 -7.298213  0.377994 0.815070 -0.439069  0.916700 0.000500 1 1 1.000000
0  0.000086 0.683105 -7.077813  -0.004736 0.973877 -0.227026  1.000000 0.017100 1 1 1.000000
0  0.729953 0.487857 -7.077745  0.482880 0.845754 -0.226996  0.916700 0.017100 1 1 1.000000
molotov
0  0.675886 0.394062 -7.298213  0.377994 0.815070 -0.439069  0.916700 0.000500 1 1 1.000000
0  0.000123 0.574929 -7.298275  -0.080200 0.894841 -0.439121  1.000000 0.000500 1 1 1.000000
0  0.000086 0.683105 -7.077813  -0.004736 0.973877 -0.227026  1.000000 0.017100 1 1 1.000000
molotov
0  0.423235 -0.040526 2.542839  0.463600 0.809323 0.360653  0.916700 0.740200 1 1 1.000000
0  0.265929 -0.312801 3.643433  0.493419 0.858663 0.138692  0.916700 0.822900 1 1 1.000000
0  0.732842 -0.350020 2.542946  0.806053 0.469087 0.360882  0.833300 0.740200 1 1 1.000000
molotov
0  1.179653 -0.092126 1.500557  0.816349 0.467986 0.338472  0.833300 0.661900 1 1 1.000000
0  0.423235 -0.040526 2.542839  0.463600 0.809323 0.360653  0.916700 0.740200 1 1 1.000000
0  0.732842 -0.350020 2.542946  0.806053 0.469087 0.360882  0.833300 0.740200 1 1 1.000000
molotov
0  1.179653 -0.092126 1.500557  0.816349 0.467986 0.338472  0.833300 0.661900 1 1 1.000000
0  0.681081 0.406103 1.500385  0.473035 0.813485 0.338349  0.916700 0.661900 1 1 1.000000
0  0.423235 -0.040526 2.542839  0.463600 0.809323 0.360653  0.916700 0.740200 1 1 1.000000
molotov
0  1.179653 -0.092126 1.500557  0.816349 0.467986 0.338472  0.833300 0.661900 1 1 1.000000
0  1.264337 -0.043440 1.084140  0.860664 0.495976 0.115173  0.833300 0.630600 1 1 1.000000
0  0.681081 0.406103 1.500385  0.473035 0.813485 0.338349  0.916700 0.661900 1 1 1.000000
molotov
0  0.729952 0.490676 1.083955  0.497347 0.859896 0.115001  0.916700 0.630600 1 1 1.000000
0  0.681081 0.406103 1.500385  0.473035 0.813485 0.338349  0.916700 0.661900 1 1 1.000000
0  1.264337 -0.043440 1.084140  0.860664 0.495976 0.115173  0.833300 0.630600 1 1 1.000000
molotov
0  1.264338 -0.046259 -7.077560  0.841084 0.491011 -0.226905  0.833300 0.017100 1 1 1.000000
0  0.729952 0.490676 1.083955  0.497347 0.859896 0.115001  0.916700 0.630600 1 1 1.000000
0  1.264337 -0.043440 1.084140  0.860664 0.495976 0.115173  0.833300 0.630600 1 1 1.000000
molotov
0  1.264338 -0.046259 -7.077560  0.841084 0.491011 -0.226905  0.833300 0.017100 1 1 1.000000
0  0.729953 0.487857 -7.077745  0.482880 0.845754 -0.226996  0.916700 0.017100 1 1 1.000000
0  0.729952 0.490676 1.083955  0.497347 0.859896 0.115001  0.916700 0.630600 1 1 1.000000
molotov
0  0.729953 0.487857 -7.077745  0.482880 0.845754 -0.226996  0.916700 0.017100 1 1 1.000000
0  0.000084 0.685924 1.083888  0.000772 0.993378 0.114893  1.000000 0.630600 1 1 1.000000
0  0.729952 0.490676 1.083955  0.497347 0.859896 0.115001  0.916700 0.630600 1 1 1.000000
molotov
0  0.729953 0.487857 -7.077745  0.482880 0.845754 -0.226996  0.916700 0.017100 1 1 1.000000
0  0.000086 0.683105 -7.077813  -0.004736 0.973877 -0.227026  1.000000 0.017100 1 1 1.000000
0  0.000084 0.685924 1.083888  0.000772 0.993378 0.114893  1.000000 0.630600 1 1 1.000000
molotov
0  0.000084 0.685924 1.083888  0.000772 0.993378 0.114893  1.000000 0.630600 1 1 1.000000
0  0.000118 0.588268 1.500322  0.002965 0.941047 0.338264  1.000000 0.661900 1 1 1.000000
0  0.729952 0.490676 1.083955  0.497347 0.859896 0.115001  0.916700 0.630600 1 1 1.000000
molotov
0  0.681081 0.406103 1.500385  0.473035 0.813485 0.338349  0.916700 0.661900 1 1 1.000000
0  0.729952 0.490676 1.083955  0.497347 0.859896 0.115001  0.916700 0.630600 1 1 1.000000
0  0.000118 0.588268 1.500322  0.002965 0.941047 0.338264  1.000000 0.661900 1 1 1.000000
molotov
0  0.681081 0.406103 1.500385  0.473035 0.813485 0.338349  0.916700 0.661900 1 1 1.000000
0  0.000118 0.588268 1.500322  0.002965 0.941047 0.338264  1.000000 0.661900 1 1 1.000000
0  0.000296 0.072628 2.542800  -0.003142 0.932704 0.360630  1.000000 0.740200 1 1 1.000000
molotov
0  0.681081 0.406103 1.500385  0.473035 0.813485 0.338349  0.916700 0.661900 1 1 1.000000
0  0.000296 0.072628 2.542800  -0.003142 0.932704 0.360630  1.000000 0.740200 1 1 1.000000
0  0.423235 -0.040526 2.542839  0.463600 0.809323 0.360653  0.916700 0.740200 1 1 1.000000
molotov
0  0.000296 0.072628 2.542800  -0.003142 0.932704 0.360630  1.000000 0.740200 1 1 1.000000
0  0.000404 -0.241792 3.643409  -0.002015 0.990358 0.138515  1.000000 0.822900 1 1 1.000000
0  0.423235 -0.040526 2.542839  0.463600 0.809323 0.360653  0.916700 0.740200 1 1 1.000000
molotov
0  0.265929 -0.312801 3.643433  0.493419 0.858663 0.138692  0.916700 0.822900 1 1 1.000000
0  0.423235 -0.040526 2.542839  0.463600 0.809323 0.360653  0.916700 0.740200 1 1 1.000000
0  0.000404 -0.241792 3.643409  -0.002015 0.990358 0.138515  1.000000 0.822900 1 1 1.000000
molotov
0  0.265929 -0.312801 3.643433  0.493419 0.858663 0.138692  0.916700 0.822900 1 1 1.000000
0  0.000404 -0.241792 3.643409  -0.002015 0.990358 0.138515  1.000000 0.822900 1 1 1.000000
0  0.000404 -0.241110 5.620109  0.088649 0.996063 -0.000344  1.000000 0.971500 1 1 1.000000
molotov
0  0.000404 -0.241110 5.620109  0.088649 0.996063 -0.000344  1.000000 0.971500 1 1 1.000000
0  0.265929 -0.312118 5.620133  0.574815 0.818283 -0.000282  0.916700 0.971500 1 1 1.000000
0  0.265929 -0.312801 3.643433  0.493419 0.858663 0.138692  0.916700 0.822900 1 1 1.000000
molotov
0  0.460296 -0.507134 3.643500  0.856623 0.496893 0.138902  0.833300 0.822900 1 1 1.000000
0  0.265929 -0.312801 3.643433  0.493419 0.858663 0.138692  0.916700 0.822900 1 1 1.000000
0  0.265929 -0.312118 5.620133  0.574815 0.818283 -0.000282  0.916700 0.971500 1 1 1.000000
molotov
0  0.265929 -0.312118 5.620133  0.574815 0.818283 -0.000282  0.916700 0.971500 1 1 1.000000
0  0.460296 -0.506451 5.620201  0.906929 0.421284 -0.000146  0.833300 0.971500 1 1 1.000000
0  0.460296 -0.507134 3.643500  0.856623 0.496893 0.138902  0.833300 0.822900 1 1 1.000000
molotov
0  0.531588 -0.772509 3.643592  0.990274 0.001930 0.139118  0.750000 0.822900 1 1 1.000000
0  0.460296 -0.507134 3.643500  0.856623 0.496893 0.138902  0.833300 0.822900 1 1 1.000000
0  0.460296 -0.506451 5.620201  0.906929 0.421284 -0.000146  0.833300 0.971500 1 1 1.000000
molotov
0  0.460296 -0.506451 5.620201  0.906929 0.421284 -0.000146  0.833300 0.971500 1 1 1.000000
0  0.531588 -0.771827 5.620292  0.996062 -0.088666 0.000031  0.750000 0.971500 1 1 1.000000
0  0.531588 -0.772509 3.643592  0.990274 0.001930 0.139118  0.750000 0.822900 1 1 1.000000
molotov
0  0.460480 -1.038034 3.643683  0.858602 -0.493385 0.139193  0.666700 0.822900 1 1 1.000000
0  0.531588 -0.772509 3.643592  0.990274 0.001930 0.139118  0.750000 0.822900 1 1 1.000000
0  0.531588 -0.771827 5.620292  0.996062 -0.088666 0.000031  0.750000 0.971500 1 1 1.000000
molotov
0  0.531588 -0.771827 5.620292  0.996062 -0.088666 0.000031  0.750000 0.971500 1 1 1.000000
0  0.460479 -1.037351 5.620384  0.818276 -0.574826 0.000199  0.666700 0.971500 1 1 1.000000
0  0.460480 -1.038034 3.643683  0.858602 -0.493385 0.139193  0.666700 0.822900 1 1 1.000000
molotov
0  0.266247 -1.232501 3.643750  0.496881 -0.856565 0.139303  0.583300 0.822900 1 1 1.000000
0  0.460480 -1.038034 3.643683  0.858602 -0.493385 0.139193  0.666700 0.822900 1 1 1.000000
0  0.460479 -1.037351 5.620384  0.818276 -0.574826 0.000199  0.666700 0.971500 1 1 1.000000
molotov
0  0.460479 -1.037351 5.620384  0.818276 -0.574826 0.000199  0.666700 0.971500 1 1 1.000000
0  0.266246 -1.231818 5.620450  0.421304 -0.906920 0.000314  0.583300 0.971500 1 1 1.000000
0  0.266247 -1.232501 3.643750  0.496881 -0.856565 0.139303  0.583300 0.822900 1 1 1.000000
molotov
0  0.000771 -1.303693 3.643775  0.002012 -0.990261 0.139208  0.500000 0.822900 1 1 1.000000
0  0.266247 -1.232501 3.643750  0.496881 -0.856565 0.139303  0.583300 0.822900 1 1 1.000000
0  0.266246 -1.231818 5.620450  0.421304 -0.906920 0.000314  0.583300 0.971500 1 1 1.000000
molotov
0  0.266246 -1.231818 5.620450  0.421304 -0.906920 0.000314  0.583300 0.971500 1 1 1.000000
0  0.000771 -1.303010 5.620475  -0.088647 -0.996063 0.000344  0.500000 0.971500 1 1 1.000000
0  0.000771 -1.303693 3.643775  0.002012 -0.990261 0.139208  0.500000 0.822900 1 1 1.000000
molotov
0  -0.530413 -0.772193 5.620292  -0.369177 -0.033450 -0.928757  0.250000 0.971500 1 1 1.000000
0  -0.583513 -0.772204 5.641392  -0.369199 0.032579 -0.928779  0.250000 0.973100 1 1 1.000000
0  -0.459304 -0.506768 5.620200  -0.336247 0.155562 -0.928837  0.166700 0.971500 1 1 1.000000
molotov
0  -0.505314 -0.480177 5.641291  -0.303247 0.212802 -0.928847  0.166700 0.973100 1 1 1.000000
0  -0.459304 -0.506768 5.620200  -0.336247 0.155562 -0.928837  0.166700 0.971500 1 1 1.000000
0  -0.583513 -0.772204 5.641392  -0.369199 0.032579 -0.928779  0.250000 0.973100 1 1 1.000000
molotov
0  -0.459304 -0.506768 5.620200  -0.336247 0.155562 -0.928837  0.166700 0.971500 1 1 1.000000
0  -0.505314 -0.480177 5.641291  -0.303247 0.212802 -0.928847  0.166700 0.973100 1 1 1.000000
0  -0.265071 -0.312301 5.620133  -0.213301 0.302797 -0.928879  0.083300 0.971500 1 1 1.000000
molotov
0  -0.291587 -0.266303 5.641217  -0.156103 0.335827 -0.928898  0.083300 0.973100 1 1 1.000000
0  -0.265071 -0.312301 5.620133  -0.213301 0.302797 -0.928879  0.083300 0.971500 1 1 1.000000
0  -0.505314 -0.480177 5.641291  -0.303247 0.212802 -0.928847  0.166700 0.973100 1 1 1.000000
molotov
0  -0.265071 -0.312301 5.620133  -0.213301 0.302797 -0.928879  0.083300 0.971500 1 1 1.000000
0  -0.291587 -0.266303 5.641217  -0.156103 0.335827 -0.928898  0.083300 0.973100 1 1 1.000000
0  0.000404 -0.241110 5.620109  -0.033129 0.368857 -0.928896  0.000000 0.971500 1 1 1.000000
molotov
0  0.000386 -0.188002 5.641190  0.032862 0.368877 -0.928897  0.000000 0.973100 1 1 1.000000
0  0.000404 -0.241110 5.620109  -0.033129 0.368857 -0.928896  0.000000 0.971500 1 1 1.000000
0  -0.291587 -0.266303 5.641217  -0.156103 0.335827 -0.928898  0.083300 0.973100 1 1 1.000000
molotov
0  0.000404 -0.241110 5.620109  -0.033129 0.368857 -0.928896  1.000000 0.971500 1 1 1.000000
0  0.000386 -0.188002 5.641190  0.032862 0.368877 -0.928897  1.000000 0.973100 1 1 1.000000
0  0.265929 -0.312118 5.620133  0.155889 0.335924 -0.928899  0.916700 0.971500 1 1 1.000000
molotov
0  0.292413 -0.266102 5.641217  0.213082 0.302951 -0.928879  0.916700 0.973100 1 1 1.000000
0  0.265929 -0.312118 5.620133  0.155889 0.335924 -0.928899  0.916700 0.971500 1 1 1.000000
0  0.000386 -0.188002 5.641190  0.032862 0.368877 -0.928897  1.000000 0.973100 1 1 1.000000
molotov
0  0.265929 -0.312118 5.620133  0.155889 0.335924 -0.928899  0.916700 0.971500 1 1 1.000000
0  0.292413 -0.266102 5.641217  0.213082 0.302951 -0.928879  0.916700 0.973100 1 1 1.000000
0  0.460296 -0.506451 5.620201  0.303110 0.212995 -0.928847  0.833300 0.971500 1 1 1.000000
molotov
0  0.506287 -0.479828 5.641292  0.336149 0.155779 -0.928836  0.833300 0.973100 1 1 1.000000
0  0.460296 -0.506451 5.620201  0.303110 0.212995 -0.928847  0.833300 0.971500 1 1 1.000000
0  0.292413 -0.266102 5.641217  0.213082 0.302951 -0.928879  0.916700 0.973100 1 1 1.000000
molotov
0  0.460296 -0.506451 5.620201  0.303110 0.212995 -0.928847  0.833300 0.971500 1 1 1.000000
0  0.506287 -0.479828 5.641292  0.336149 0.155779 -0.928836  0.833300 0.973100 1 1 1.000000
0  0.531588 -0.771827 5.620292  0.369178 0.032797 -0.928780  0.750000 0.971500 1 1 1.000000
molotov
0  0.584688 -0.771801 5.641392  0.369199 -0.033192 -0.928758  0.750000 0.973100 1 1 1.000000
0  0.531588 -0.771827 5.620292  0.369178 0.032797 -0.928780  0.750000 0.971500 1 1 1.000000
0  0.506287 -0.479828 5.641292  0.336149 0.155779 -0.928836  0.833300 0.973100 1 1 1.000000
molotov
0  0.531588 -0.771827 5.620292  0.369178 0.032797 -0.928780  0.750000 0.971500 1 1 1.000000
0  0.584688 -0.771801 5.641392  0.369199 -0.033192 -0.928758  0.750000 0.973100 1 1 1.000000
0  0.460479 -1.037351 5.620384  0.336259 -0.156183 -0.928728  0.666700 0.971500 1 1 1.000000
molotov
0  0.506488 -1.063928 5.641493  0.303275 -0.213393 -0.928702  0.666700 0.973100 1 1 1.000000
0  0.460479 -1.037351 5.620384  0.336259 -0.156183 -0.928728  0.666700 0.971500 1 1 1.000000
0  0.584688 -0.771801 5.641392  0.369199 -0.033192 -0.928758  0.750000 0.973100 1 1 1.000000
molotov
0  0.460479 -1.037351 5.620384  0.336259 -0.156183 -0.928728  0.666700 0.971500 1 1 1.000000
0  0.506488 -1.063928 5.641493  0.303275 -0.213393 -0.928702  0.666700 0.973100 1 1 1.000000
0  0.266246 -1.231818 5.620450  0.213282 -0.303449 -0.928671  0.583300 0.971500 1 1 1.000000
molotov
0  0.292762 -1.277702 5.641567  0.156113 -0.336460 -0.928668  0.583300 0.973100 1 1 1.000000
0  0.266246 -1.231818 5.620450  0.213282 -0.303449 -0.928671  0.583300 0.971500 1 1 1.000000
0  0.506488 -1.063928 5.641493  0.303275 -0.213393 -0.928702  0.666700 0.973100 1 1 1.000000
molotov
0  0.266246 -1.231818 5.620450  0.213282 -0.303449 -0.928671  0.583300 0.971500 1 1 1.000000
0  0.292762 -1.277702 5.641567  0.156113 -0.336460 -0.928668  0.583300 0.973100 1 1 1.000000
0  0.000771 -1.303010 5.620475  0.033141 -0.369496 -0.928641  0.500000 0.971500 1 1 1.000000
molotov
0  0.000789 -1.356103 5.641593  -0.032873 -0.369522 -0.928640  0.500000 0.973100 1 1 1.000000
0  0.000771 -1.303010 5.620475  0.033141 -0.369496 -0.928641  0.500000 0.971500 1 1 1.000000
0  0.292762 -1.277702 5.641567  0.156113 -0.336460 -0.928668  0.583300 0.973100 1 1 1.000000
molotov
0  0.000771 -1.303010 5.620475  0.033141 -0.369496 -0.928641  0.500000 0.971500 1 1 1.000000
0  0.000789 -1.356103 5.641593  -0.032873 -0.369522 -0.928640  0.500000 0.973100 1 1 1.000000
0  -0.264754 -1.232002 5.620450  -0.155887 -0.336565 -0.928667  0.416700 0.971500 1 1 1.000000
molotov
0  -0.291238 -1.277903 5.641566  -0.213111 -0.303571 -0.928670  0.416700 0.973100 1 1 1.000000
0  -0.264754 -1.232002 5.620450  -0.155887 -0.336565 -0.928667  0.416700 0.971500 1 1 1.000000
0  0.000789 -1.356103 5.641593  -0.032873 -0.369522 -0.928640  0.500000 0.973100 1 1 1.000000
molotov
0  -0.264754 -1.232002 5.620450  -0.155887 -0.336565 -0.928667  0.416700 0.971500 1 1 1.000000
0  -0.291238 -1.277903 5.641566  -0.213111 -0.303571 -0.928670  0.416700 0.973100 1 1 1.000000
0  -0.459121 -1.037668 5.620384  -0.303122 -0.213614 -0.928701  0.333300 0.971500 1 1 1.000000
molotov
0  -0.505112 -1.064277 5.641493  -0.336137 -0.156436 -0.928730  0.333300 0.973100 1 1 1.000000
0  -0.459121 -1.037668 5.620384  -0.303122 -0.213614 -0.928701  0.333300 0.971500 1 1 1.000000
0  -0.291238 -1.277903 5.641566  -0.213111 -0.303571 -0.928670  0.416700 0.973100 1 1 1.000000
molotov
0  -0.459121 -1.037668 5.620384  -0.303122 -0.213614 -0.928701  0.333300 0.971500 1 1 1.000000
0  -0.505112 -1.064277 5.641493  -0.336137 -0.156436 -0.928730  0.333300 0.973100 1 1 1.000000
0  -0.530413 -0.772193 5.620292  -0.369177 -0.033450 -0.928757  0.250000 0.971500 1 1 1.000000
molotov
0  -0.583513 -0.772204 5.641392  -0.369199 0.032579 -0.928779  0.250000 0.973100 1 1 1.000000
0  -0.530413 -0.772193 5.620292  -0.369177 -0.033450 -0.928757  0.250000 0.971500 1 1 1.000000
0  -0.505112 -1.064277 5.641493  -0.336137 -0.156436 -0.928730  0.333300 0.973100 1 1 1.000000
molotov
0  0.584688 -0.771801 5.641392  0.996003 0.089323 -0.000031  0.750000 0.973100 1 1 1.000000
0  0.506287 -0.479707 5.992492  0.906919 0.421306 -0.000145  0.833300 0.999500 1 1 1.000000
0  0.584688 -0.771680 5.992592  0.996062 -0.088658 0.000031  0.750000 0.999500 1 1 1.000000
molotov
0  0.584688 -0.771801 5.641392  0.996003 0.089323 -0.000031  0.750000 0.973100 1 1 1.000000
0  0.506287 -0.479828 5.641292  0.817877 0.575394 -0.000199  0.833300 0.973100 1 1 1.000000
0  0.506287 -0.479707 5.992492  0.906919 0.421306 -0.000145  0.833300 0.999500 1 1 1.000000
molotov
0  0.506287 -0.479828 5.641292  0.817877 0.575394 -0.000199  0.833300 0.973100 1 1 1.000000
0  0.292413 -0.265980 5.992417  0.574789 0.818301 -0.000283  0.916700 0.999500 1 1 1.000000
0  0.506287 -0.479707 5.992492  0.906919 0.421306 -0.000145  0.833300 0.999500 1 1 1.000000
molotov
0  0.506287 -0.479828 5.641292  0.817877 0.575394 -0.000199  0.833300 0.973100 1 1 1.000000
0  0.292413 -0.266102 5.641217  0.420675 0.907211 -0.000314  0.916700 0.973100 1 1 1.000000
0  0.292413 -0.265980 5.992417  0.574789 0.818301 -0.000283  0.916700 0.999500 1 1 1.000000
molotov
0  0.292413 -0.266102 5.641217  0.420675 0.907211 -0.000314  0.916700 0.973100 1 1 1.000000
0  0.000386 -0.187881 5.992391  0.088637 0.996064 -0.000344  1.000000 0.999500 1 1 1.000000
0  0.292413 -0.265980 5.992417  0.574789 0.818301 -0.000283  0.916700 0.999500 1 1 1.000000
molotov
0  0.292413 -0.266102 5.641217  0.420675 0.907211 -0.000314  0.916700 0.973100 1 1 1.000000
0  0.000386 -0.188002 5.641190  -0.089377 0.995998 -0.000343  1.000000 0.973100 1 1 1.000000
0  0.000386 -0.187881 5.992391  0.088637 0.996064 -0.000344  1.000000 0.999500 1 1 1.000000
molotov
0  0.000386 -0.188002 5.641190  -0.089377 0.995998 -0.000343  0.000000 0.973100 1 1 1.000000
0  -0.291587 -0.266182 5.992417  -0.421300 0.906921 -0.000312  0.083300 0.999500 1 1 1.000000
0  0.000386 -0.187881 5.992391  0.088637 0.996064 -0.000344  0.000000 0.999500 1 1 1.000000
molotov
0  0.000386 -0.188002 5.641190  -0.089377 0.995998 -0.000343  0.000000 0.973100 1 1 1.000000
0  -0.291587 -0.266303 5.641217  -0.575397 0.817874 -0.000282  0.083300 0.973100 1 1 1.000000
0  -0.291587 -0.266182 5.992417  -0.421300 0.906921 -0.000312  0.083300 0.999500 1 1 1.000000
molotov
0  -0.291587 -0.266303 5.641217  -0.575397 0.817874 -0.000282  0.083300 0.973100 1 1 1.000000
0  -0.505314 -0.480056 5.992491  -0.818274 0.574829 -0.000198  0.166700 0.999500 1 1 1.000000
0  -0.291587 -0.266182 5.992417  -0.421300 0.906921 -0.000312  0.083300 0.999500 1 1 1.000000
molotov
0  -0.291587 -0.266303 5.641217  -0.575397 0.817874 -0.000282  0.083300 0.973100 1 1 1.000000
0  -0.505314 -0.480177 5.641291  -0.907209 0.420681 -0.000145  0.166700 0.973100 1 1 1.000000
0  -0.505314 -0.480056 5.992491  -0.818274 0.574829 -0.000198  0.166700 0.999500 1 1 1.000000
molotov
0  -0.505314 -0.480177 5.641291  -0.907209 0.420681 -0.000145  0.166700 0.973100 1 1 1.000000
0  -0.583513 -0.772083 5.992592  -0.996064 0.088635 -0.000031  0.250000 0.999500 1 1 1.000000
0  -0.505314 -0.480056 5.992491  -0.818274 0.574829 -0.000198  0.166700 0.999500 1 1 1.000000
molotov
0  -0.505314 -0.480177 5.641291  -0.907209 0.420681 -0.000145  0.166700 0.973100 1 1 1.000000
0  -0.583513 -0.772204 5.641392  -0.996001 -0.089345 0.000031  0.250000 0.973100 1 1 1.000000
0  -0.583513 -0.772083 5.992592  -0.996064 0.088635 -0.000031  0.250000 0.999500 1 1 1.000000
molotov
0  -0.583513 -0.772204 5.641392  -0.996001 -0.089345 0.000031  0.250000 0.973100 1 1 1.000000
0  -0.505112 -1.064156 5.992693  -0.906912 -0.421320 0.000145  0.333300 0.999500 1 1 1.000000
0  -0.583513 -0.772083 5.992592  -0.996064 0.088635 -0.000031  0.250000 0.999500 1 1 1.000000
molotov
0  -0.583513 -0.772204 5.641392  -0.996001 -0.089345 0.000031  0.250000 0.973100 1 1 1.000000
0  -0.505112 -1.064277 5.641493  -0.817892 -0.575372 0.000198  0.333300 0.973100 1 1 1.000000
0  -0.505112 -1.064156 5.992693  -0.906912 -0.421320 0.000145  0.333300 0.999500 1 1 1.000000
molotov
0  -0.505112 -1.064277 5.641493  -0.817892 -0.575372 0.000198  0.333300 0.973100 1 1 1.000000
0  -0.291238 -1.277782 5.992766  -0.574816 -0.818283 0.000282  0.416700 0.999500 1 1 1.000000
0  -0.505112 -1.064156 5.992693  -0.906912 -0.421320 0.000145  0.333300 0.999500 1 1 1.000000
molotov
0  -0.505112 -1.064277 5.641493  -0.817892 -0.575372 0.000198  0.333300 0.973100 1 1 1.000000
0  -0.291238 -1.277903 5.641566  -0.420673 -0.907212 0.000313  0.416700 0.973100 1 1 1.000000
0  -0.291238 -1.277782 5.992766  -0.574816 -0.818283 0.000282  0.416700 0.999500 1 1 1.000000
molotov
0  -0.291238 -1.277903 5.641566  -0.420673 -0.907212 0.000313  0.416700 0.973100 1 1 1.000000
0  0.000789 -1.355981 5.992794  -0.088647 -0.996063 0.000345  0.500000 0.999500 1 1 1.000000
0  -0.291238 -1.277782 5.992766  -0.574816 -0.818283 0.000282  0.416700 0.999500 1 1 1.000000
molotov
0  -0.291238 -1.277903 5.641566  -0.420673 -0.907212 0.000313  0.416700 0.973100 1 1 1.000000
0  0.000789 -1.356103 5.641593  0.089334 -0.996002 0.000346  0.500000 0.973100 1 1 1.000000
0  0.000789 -1.355981 5.992794  -0.088647 -0.996063 0.000345  0.500000 0.999500 1 1 1.000000
molotov
0  0.000789 -1.356103 5.641593  0.089334 -0.996002 0.000346  0.500000 0.973100 1 1 1.000000
0  0.292762 -1.277580 5.992767  0.421300 -0.906921 0.000315  0.583300 0.999500 1 1 1.000000
0  0.000789 -1.355981 5.992794  -0.088647 -0.996063 0.000345  0.500000 0.999500 1 1 1.000000
molotov
0  0.000789 -1.356103 5.641593  0.089334 -0.996002 0.000346  0.500000 0.973100 1 1 1.000000
0  0.292762 -1.277702 5.641567  0.575381 -0.817886 0.000283  0.583300 0.973100 1 1 1.000000
0  0.292762 -1.277580 5.992767  0.421300 -0.906921 0.000315  0.583300 0.999500 1 1 1.000000
molotov
0  0.292762 -1.277702 5.641567  0.575381 -0.817886 0.000283  0.583300 0.973100 1 1 1.000000
0  0.506488 -1.063807 5.992693  0.818289 -0.574807 0.000199  0.666700 0.999500 1 1 1.000000
0  0.292762 -1.277580 5.992767  0.421300 -0.906921 0.000315  0.583300 0.999500 1 1 1.000000
molotov
0  0.292762 -1.277702 5.641567  0.575381 -0.817886 0.000283  0.583300 0.973100 1 1 1.000000
0  0.506488 -1.063928 5.641493  0.907203 -0.420694 0.000145  0.666700 0.973100 1 1 1.000000
0  0.506488 -1.063807 5.992693  0.818289 -0.574807 0.000199  0.666700 0.999500 1 1 1.000000
molotov
0  0.506488 -1.063928 5.641493  0.907203 -0.420694 0.000145  0.666700 0.973100 1 1 1.000000
0  0.584688 -0.771680 5.992592  0.996062 -0.088658 0.000031  0.750000 0.999500 1 1 1.000000
0  0.506488 -1.063807 5.992693  0.818289 -0.574807 0.000199  0.666700 0.999500 1 1 1.000000
molotov
0  0.506488 -1.063928 5.641493  0.907203 -0.420694 0.000145  0.666700 0.973100 1 1 1.000000
0  0.584688 -0.771801 5.641392  0.996003 0.089323 -0.000031  0.750000 0.973100 1 1 1.000000
0  0.584688 -0.771680 5.992592  0.996062 -0.088658 0.000031  0.750000 0.999500 1 1 1.000000
molotov
0  0.000590 -0.776471 -7.297809  0.000000 -0.000345 -1.000000  0.500000 0.000500 1 1 1.000000
0  -0.675515 0.393596 -7.298213  -0.000000 -0.000345 -1.000000  0.083300 0.000500 1 1 1.000000
0  0.000123 0.574929 -7.298275  0.000000 -0.000345 -1.000000  0.000000 0.000500 1 1 1.000000
molotov
0  0.000590 -0.776471 -7.297809  0.000000 -0.000345 -1.000000  0.500000 0.000500 1 1 1.000000
0  -1.170044 -0.101174 -7.298042  0.000000 -0.000345 -1.000000  0.166700 0.000500 1 1 1.000000
0  -0.675515 0.393596 -7.298213  -0.000000 -0.000345 -1.000000  0.083300 0.000500 1 1 1.000000
molotov
0  0.000590 -0.776471 -7.297809  0.000000 -0.000345 -1.000000  0.500000 0.000500 1 1 1.000000
0  -1.350811 -0.776937 -7.297809  0.000000 -0.000345 -1.000000  0.250000 0.000500 1 1 1.000000
0  -1.170044 -0.101174 -7.298042  0.000000 -0.000345 -1.000000  0.166700 0.000500 1 1 1.000000
molotov
0  0.000590 -0.776471 -7.297809  0.000000 -0.000345 -1.000000  0.500000 0.000500 1 1 1.000000
0  -1.169577 -1.452675 -7.297575  0.000000 -0.000346 -1.000000  0.333300 0.000500 1 1 1.000000
0  -1.350811 -0.776937 -7.297809  0.000000 -0.000345 -1.000000  0.250000 0.000500 1 1 1.000000
molotov
0  0.000590 -0.776471 -7.297809  0.000000 -0.000345 -1.000000  0.500000 0.000500 1 1 1.000000
0  -0.674707 -1.947104 -7.297405  0.000000 -0.000345 -1.000000  0.416700 0.000500 1 1 1.000000
0  -1.169577 -1.452675 -7.297575  0.000000 -0.000346 -1.000000  0.333300 0.000500 1 1 1.000000
molotov
0  0.000590 -0.776471 -7.297809  0.000000 -0.000345 -1.000000  0.500000 0.000500 1 1 1.000000
0  0.001056 -2.127971 -7.297342  0.000000 -0.000346 -1.000000  0.500000 0.000500 1 1 1.000000
0  -0.674707 -1.947104 -7.297405  0.000000 -0.000345 -1.000000  0.416700 0.000500 1 1 1.000000
molotov
0  0.000590 -0.776471 -7.297809  0.000000 -0.000345 -1.000000  0.500000 0.000500 1 1 1.000000
0  0.676694 -1.946638 -7.297404  0.000001 -0.000346 -1.000000  0.583300 0.000500 1 1 1.000000
0  0.001056 -2.127971 -7.297342  0.000000 -0.000346 -1.000000  0.500000 0.000500 1 1 1.000000
molotov
0  0.000590 -0.776471 -7.297809  0.000000 -0.000345 -1.000000  0.500000 0.000500 1 1 1.000000
0  1.171224 -1.451867 -7.297575  0.000001 -0.000346 -1.000000  0.666700 0.000500 1 1 1.000000
0  0.676694 -1.946638 -7.297404  0.000001 -0.000346 -1.000000  0.583300 0.000500 1 1 1.000000
molotov
0  0.000590 -0.776471 -7.297809  0.000000 -0.000345 -1.000000  0.500000 0.000500 1 1 1.000000
0  1.351990 -0.776005 -7.297809  0.000001 -0.000345 -1.000000  0.750000 0.000500 1 1 1.000000
0  1.171224 -1.451867 -7.297575  0.000001 -0.000346 -1.000000  0.666700 0.000500 1 1 1.000000
molotov
0  0.000590 -0.776471 -7.297809  0.000000 -0.000345 -1.000000  0.500000 0.000500 1 1 1.000000
0  1.170757 -0.100367 -7.298042  -0.000000 -0.000345 -1.000000  0.833300 0.000500 1 1 1.000000
0  1.351990 -0.776005 -7.297809  0.000001 -0.000345 -1.000000  0.750000 0.000500 1 1 1.000000
molotov
0  0.000590 -0.776471 -7.297809  0.000000 -0.000345 -1.000000  0.500000 0.000500 1 1 1.000000
0  0.675886 0.394062 -7.298213  0.000001 -0.000345 -1.000000  0.916700 0.000500 1 1 1.000000
0  1.170757 -0.100367 -7.298042  -0.000000 -0.000345 -1.000000  0.833300 0.000500 1 1 1.000000
molotov
0  0.000590 -0.776471 -7.297809  0.000000 -0.000345 -1.000000  0.500000 0.000500 1 1 1.000000
0  0.000123 0.574929 -7.298275  0.000000 -0.000345 -1.000000  1.000000 0.000500 1 1 1.000000
0  0.675886 0.394062 -7.298213  0.000001 -0.000345 -1.000000  0.916700 0.000500 1 1 1.000000
molotov
0  0.584688 -0.771680 5.992592  -0.000003 0.000344 1.000000  0.750000 0.999500 1 1 1.000000
0  0.506287 -0.479707 5.992492  -0.000001 0.000345 1.000000  0.833300 0.999500 1 1 1.000000
0  0.371153 -0.672453 5.992558  -0.000001 0.000343 1.000000  0.833300 0.999500 1 1 1.000000
molotov
0  0.199069 -0.427913 5.992474  -0.000001 0.000352 1.000000  0.916700 0.999500 1 1 1.000000
0  0.371153 -0.672453 5.992558  -0.000001 0.000343 1.000000  0.833300 0.999500 1 1 1.000000
0  0.506287 -0.479707 5.992492  -0.000001 0.000345 1.000000  0.833300 0.999500 1 1 1.000000
molotov
0  0.506287 -0.479707 5.992492  -0.000001 0.000345 1.000000  0.833300 0.999500 1 1 1.000000
0  0.292413 -0.265980 5.992417  0.000000 0.000351 1.000000  0.916700 0.999500 1 1 1.000000
0  0.199069 -0.427913 5.992474  -0.000001 0.000352 1.000000  0.916700 0.999500 1 1 1.000000
molotov
0  -0.098841 -0.401415 5.992464  0.000000 0.000346 1.000000  1.000000 0.999500 1 1 1.000000
0  0.199069 -0.427913 5.992474  -0.000001 0.000352 1.000000  0.916700 0.999500 1 1 1.000000
0  0.292413 -0.265980 5.992417  0.000000 0.000351 1.000000  0.916700 0.999500 1 1 1.000000
molotov
0  0.292413 -0.265980 5.992417  0.000000 0.000351 1.000000  0.916700 0.999500 1 1 1.000000
0  0.000386 -0.187881 5.992391  0.000001 0.000341 1.000000  1.000000 0.999500 1 1 1.000000
0  -0.098841 -0.401415 5.992464  0.000000 0.000346 1.000000  1.000000 0.999500 1 1 1.000000
molotov
0  0.000789 -1.355981 5.992794  -0.000002 0.000347 1.000000  0.500000 0.999500 1 1 1.000000
0  0.292762 -1.277580 5.992767  -0.000001 0.000345 1.000000  0.583300 0.999500 1 1 1.000000
0  0.100015 -1.142447 5.992720  -0.000002 0.000345 1.000000  0.583300 0.999500 1 1 1.000000
molotov
0  0.344556 -0.970363 5.992661  0.000003 0.000345 1.000000  0.666700 0.999500 1 1 1.000000
0  0.100015 -1.142447 5.992720  -0.000002 0.000345 1.000000  0.583300 0.999500 1 1 1.000000
0  0.292762 -1.277580 5.992767  -0.000001 0.000345 1.000000  0.583300 0.999500 1 1 1.000000
molotov
0  0.292762 -1.277580 5.992767  -0.000001 0.000345 1.000000  0.583300 0.999500 1 1 1.000000
0  0.506488 -1.063807 5.992693  0.000003 0.000345 1.000000  0.666700 0.999500 1 1 1.000000
0  0.344556 -0.970363 5.992661  0.000003 0.000345 1.000000  0.666700 0.999500 1 1 1.000000
molotov
0  0.371153 -0.672453 5.992558  -0.000001 0.000343 1.000000  0.750000 0.999500 1 1 1.000000
0  0.344556 -0.970363 5.992661  0.000003 0.000345 1.000000  0.666700 0.999500 1 1 1.000000
0  0.506488 -1.063807 5.992693  0.000003 0.000345 1.000000  0.666700 0.999500 1 1 1.000000
molotov
0  0.506488 -1.063807 5.992693  0.000003 0.000345 1.000000  0.666700 0.999500 1 1 1.000000
0  0.584688 -0.771680 5.992592  -0.000003 0.000344 1.000000  0.750000 0.999500 1 1 1.000000
0  0.371153 -0.672453 5.992558  -0.000001 0.000343 1.000000  0.750000 0.999500 1 1 1.000000
molotov
0  -0.583513 -0.772083 5.992592  -0.000005 0.000346 1.000000  0.250000 0.999500 1 1 1.000000
0  -0.505112 -1.064156 5.992693  -0.000004 0.000342 1.000000  0.333300 0.999500 1 1 1.000000
0  -0.369978 -0.871309 5.992627  -0.000004 0.000345 1.000000  0.333300 0.999500 1 1 1.000000
molotov
0  -0.197894 -1.115950 5.992711  -0.000001 0.000340 1.000000  0.416700 0.999500 1 1 1.000000
0  -0.369978 -0.871309 5.992627  -0.000004 0.000345 1.000000  0.333300 0.999500 1 1 1.000000
0  -0.505112 -1.064156 5.992693  -0.000004 0.000342 1.000000  0.333300 0.999500 1 1 1.000000
molotov
0  -0.505112 -1.064156 5.992693  -0.000004 0.000342 1.000000  0.333300 0.999500 1 1 1.000000
0  -0.291238 -1.277782 5.992766  -0.000002 0.000341 1.000000  0.416700 0.999500 1 1 1.000000
0  -0.197894 -1.115950 5.992711  -0.000001 0.000340 1.000000  0.416700 0.999500 1 1 1.000000
molotov
0  0.100015 -1.142447 5.992720  -0.000002 0.000345 1.000000  0.500000 0.999500 1 1 1.000000
0  -0.197894 -1.115950 5.992711  -0.000001 0.000340 1.000000  0.416700 0.999500 1 1 1.000000
0  -0.291238 -1.277782 5.992766  -0.000002 0.000341 1.000000  0.416700 0.999500 1 1 1.000000
molotov
0  -0.291238 -1.277782 5.992766  -0.000002 0.000341 1.000000  0.416700 0.999500 1 1 1.000000
0  0.000789 -1.355981 5.992794  -0.000002 0.000347 1.000000  0.500000 0.999500 1 1 1.000000
0  0.100015 -1.142447 5.992720  -0.000002 0.000345 1.000000  0.500000 0.999500 1 1 1.000000
molotov
0  0.000386 -0.187881 5.992391  0.000001 0.000341 1.000000  0.000000 0.999500 1 1 1.000000
0  -0.291587 -0.266182 5.992417  -0.000002 0.000347 1.000000  0.083300 0.999500 1 1 1.000000
0  -0.098841 -0.401415 5.992464  0.000000 0.000346 1.000000  0.083300 0.999500 1 1 1.000000
molotov
0  -0.343381 -0.573500 5.992524  -0.000004 0.000348 1.000000  0.166700 0.999500 1 1 1.000000
0  -0.098841 -0.401415 5.992464  0.000000 0.000346 1.000000  0.083300 0.999500 1 1 1.000000
0  -0.291587 -0.266182 5.992417  -0.000002 0.000347 1.000000  0.083300 0.999500 1 1 1.000000
molotov
0  -0.291587 -0.266182 5.992417  -0.000002 0.000347 1.000000  0.083300 0.999500 1 1 1.000000
0  -0.505314 -0.480056 5.992491  -0.000007 0.000348 1.000000  0.166700 0.999500 1 1 1.000000
0  -0.343381 -0.573500 5.992524  -0.000004 0.000348 1.000000  0.166700 0.999500 1 1 1.000000
molotov
0  -0.369978 -0.871309 5.992627  -0.000004 0.000345 1.000000  0.250000 0.999500 1 1 1.000000
0  -0.343381 -0.573500 5.992524  -0.000004 0.000348 1.000000  0.166700 0.999500 1 1 1.000000
0  -0.505314 -0.480056 5.992491  -0.000007 0.000348 1.000000  0.166700 0.999500 1 1 1.000000
molotov
0  -0.505314 -0.480056 5.992491  -0.000007 0.000348 1.000000  0.166700 0.999500 1 1 1.000000
0  -0.583513 -0.772083 5.992592  -0.000005 0.000346 1.000000  0.250000 0.999500 1 1 1.000000
0  -0.369978 -0.871309 5.992627  -0.000004 0.000345 1.000000  0.250000 0.999500 1 1 1.000000
rag
0  -0.073088 0.316230 3.781116  0.507089 0.530908 -0.678968  0.486200 0.388500 1 1 1.000000
0  -0.468699 0.925556 3.962106  0.507089 0.530908 -0.678968  0.388500 0.561900 1 1 1.000000
0  0.050341 1.100116 4.486246  0.507089 0.530908 -0.678968  0.516800 0.611500 1 1 1.000000
rag
0  0.344556 -0.970363 5.992661  0.866262 -0.499584 0.002472  0.536800 0.850500 1 1 1.000000
0  0.371153 -0.672453 5.992558  0.939380 0.328211 -0.099215  0.546800 0.850500 1 1 1.000000
0  0.439098 -0.802331 6.859203  0.945456 -0.228174 0.232486  0.554800 0.943800 1 1 1.000000
rag
0  0.409025 -0.590628 6.607929  0.901215 0.407293 -0.148065  0.554900 0.920700 1 1 1.000000
0  0.439098 -0.802331 6.859203  0.945456 -0.228174 0.232486  0.554800 0.943800 1 1 1.000000
0  0.371153 -0.672453 5.992558  0.939380 0.328211 -0.099215  0.546800 0.850500 1 1 1.000000
rag
0  0.409025 -0.590628 6.607929  0.901215 0.407293 -0.148065  0.554900 0.920700 1 1 1.000000
0  0.246295 -0.215862 6.671000  0.628359 0.038940 -0.776948  0.567700 0.932500 1 1 1.000000
0  0.439098 -0.802331 6.859203  0.945456 -0.228174 0.232486  0.554800 0.943800 1 1 1.000000
rag
0  0.376353 -0.383053 6.857258  0.990951 -0.077792 -0.109383  0.562500 0.949100 1 1 1.000000
0  0.439098 -0.802331 6.859203  0.945456 -0.228174 0.232486  0.554800 0.943800 1 1 1.000000
0  0.246295 -0.215862 6.671000  0.628359 0.038940 -0.776948  0.567700 0.932500 1 1 1.000000
rag
0  0.376353 -0.383053 6.857258  0.990951 -0.077792 -0.109383  0.562500 0.949100 1 1 1.000000
0  0.246295 -0.215862 6.671000  0.628359 0.038940 -0.776948  0.567700 0.932500 1 1 1.000000
0  0.317152 -0.089435 6.677856  0.665467 -0.217911 -0.713911  0.578800 0.928700 1 1 1.000000
rag
0  0.246295 -0.215862 6.671000  0.628359 0.038940 -0.776948  0.550700 0.927500 1 1 1.000000
0  0.149201 0.058371 6.575005  0.343994 -0.573326 -0.743617  0.566100 0.917000 1 1 1.000000
0  0.317152 -0.089435 6.677856  0.665467 -0.217911 -0.713911  0.578800 0.928700 1 1 1.000000
rag
0  -0.039515 -0.185377 6.623290  -0.191660 -0.086286 -0.977661  0.514200 0.922500 1 1 1.000000
0  -0.066590 0.030275 6.510815  -0.054358 -0.663171 -0.746491  0.513900 0.909700 1 1 1.000000
0  0.246295 -0.215862 6.671000  0.628359 0.038940 -0.776948  0.550700 0.927500 1 1 1.000000
rag
0  0.149201 0.058371 6.575005  0.343994 -0.573326 -0.743617  0.566100 0.917000 1 1 1.000000
0  0.246295 -0.215862 6.671000  0.628359 0.038940 -0.776948  0.550700 0.927500 1 1 1.000000
0  -0.066590 0.030275 6.510815  -0.054358 -0.663171 -0.746491  0.513900 0.909700 1 1 1.000000
rag
0  0.149201 0.058371 6.575005  0.343994 -0.573326 -0.743617  0.566100 0.917000 1 1 1.000000
0  -0.066590 0.030275 6.510815  -0.054358 -0.663171 -0.746491  0.513900 0.909700 1 1 1.000000
0  0.000175 0.423477 5.871480  -0.049268 -0.948812 -0.311976  0.618900 0.836800 1 1 1.000000
rag
0  -0.483880 0.579642 5.961725  -0.755770 -0.624415 -0.197277  0.217900 0.847100 1 1 1.000000
0  -0.558834 0.735947 6.051871  -0.995853 -0.065036 0.063622  0.158500 0.857400 1 1 1.000000
0  -0.468699 0.925556 3.962106  -0.931457 -0.351560 -0.093770  0.080500 0.628300 1 1 1.000000
rag
0  -0.558834 0.735947 6.051871  -0.995853 -0.065036 0.063622  0.158500 0.857400 1 1 1.000000
0  -0.483880 0.579642 5.961725  -0.755770 -0.624415 -0.197277  0.217900 0.847100 1 1 1.000000
0  -0.359127 0.137251 6.733678  -0.918001 -0.380380 -0.112184  0.431900 0.935100 1 1 1.000000
rag
0  -0.246499 0.058242 6.596305  -0.587092 -0.599110 -0.544418  0.469000 0.919400 1 1 1.000000
0  -0.359127 0.137251 6.733678  -0.918001 -0.380380 -0.112184  0.431900 0.935100 1 1 1.000000
0  -0.483880 0.579642 5.961725  -0.755770 -0.624415 -0.197277  0.217900 0.847100 1 1 1.000000
rag
0  -0.246499 0.058242 6.596305  -0.587092 -0.599110 -0.544418  0.469000 0.919400 1 1 1.000000
0  -0.262127 -0.152411 6.745778  -0.850601 -0.034173 -0.524699  0.482700 0.931700 1 1 1.000000
0  -0.359127 0.137251 6.733678  -0.918001 -0.380380 -0.112184  0.431900 0.935100 1 1 1.000000
rag
0  -0.262127 -0.152411 6.745778  -0.850601 -0.034173 -0.524699  0.482700 0.931700 1 1 1.000000
0  -0.246499 0.058242 6.596305  -0.587092 -0.599110 -0.544418  0.469000 0.919400 1 1 1.000000
0  -0.039515 -0.185377 6.623290  -0.191660 -0.086286 -0.977661  0.514200 0.922500 1 1 1.000000
rag
0  -0.066590 0.030275 6.510815  -0.054358 -0.663171 -0.746491  0.513900 0.909700 1 1 1.000000
0  -0.039515 -0.185377 6.623290  -0.191660 -0.086286 -0.977661  0.514200 0.922500 1 1 1.000000
0  -0.246499 0.058242 6.596305  -0.587092 -0.599110 -0.544418  0.469000 0.919400 1 1 1.000000
rag
0  -0.066590 0.030275 6.510815  -0.054358 -0.663171 -0.746491  0.513900 0.909700 1 1 1.000000
0  -0.246499 0.058242 6.596305  -0.587092 -0.599110 -0.544418  0.469000 0.919400 1 1 1.000000
0  -0.279340 0.465289 5.895665  -0.357404 -0.861560 -0.360523  0.324900 0.839500 1 1 1.000000
rag
0  -0.279340 0.465289 5.895665  -0.357404 -0.861560 -0.360523  0.324900 0.839500 1 1 1.000000
0  0.000175 0.423477 5.871480  -0.049268 -0.948812 -0.311976  0.618900 0.836800 1 1 1.000000
0  -0.066590 0.030275 6.510815  -0.054358 -0.663171 -0.746491  0.513900 0.909700 1 1 1.000000
rag
0  0.000175 0.423477 5.871480  -0.049268 -0.948812 -0.311976  0.618900 0.836800 1 1 1.000000
0  -0.279340 0.465289 5.895665  -0.357404 -0.861560 -0.360523  0.324900 0.839500 1 1 1.000000
0  -0.468699 0.925556 3.962106  -0.931457 -0.351560 -0.093770  0.191900 0.596900 1 1 1.000000
rag
0  -0.468699 0.925556 3.962106  -0.931457 -0.351560 -0.093770  0.191900 0.596900 1 1 1.000000
0  -0.073088 0.316230 3.781116  -0.056867 -0.997054 0.051470  0.428700 0.598500 1 1 1.000000
0  0.000175 0.423477 5.871480  -0.049268 -0.948812 -0.311976  0.618900 0.836800 1 1 1.000000
rag
0  0.280140 0.522680 5.890145  0.708529 -0.682615 -0.178953  0.719300 0.839500 1 1 1.000000
0  0.000175 0.423477 5.871480  -0.049268 -0.948812 -0.311976  0.618900 0.836800 1 1 1.000000
0  -0.073088 0.316230 3.781116  -0.056867 -0.997054 0.051470  0.428700 0.598500 1 1 1.000000
rag
0  0.000175 0.423477 5.871480  -0.049268 -0.948812 -0.311976  0.618900 0.836800 1 1 1.000000
0  0.280140 0.522680 5.890145  0.708529 -0.682615 -0.178953  0.719300 0.839500 1 1 1.000000
0  0.149201 0.058371 6.575005  0.343994 -0.573326 -0.743617  0.566100 0.917000 1 1 1.000000
rag
0  0.295173 0.137422 6.576578  0.791606 -0.333220 -0.512177  0.608700 0.917200 1 1 1.000000
0  0.149201 0.058371 6.575005  0.343994 -0.573326 -0.743617  0.566100 0.917000 1 1 1.000000
0  0.280140 0.522680 5.890145  0.708529 -0.682615 -0.178953  0.719300 0.839500 1 1 1.000000
rag
0  0.295173 0.137422 6.576578  0.791606 -0.333220 -0.512177  0.608700 0.917200 1 1 1.000000
0  0.317152 -0.089435 6.677856  0.665467 -0.217911 -0.713911  0.578800 0.928700 1 1 1.000000
0  0.149201 0.058371 6.575005  0.343994 -0.573326 -0.743617  0.566100 0.917000 1 1 1.000000
rag
0  0.317152 -0.089435 6.677856  0.665467 -0.217911 -0.713911  0.578800 0.928700 1 1 1.000000
0  0.295173 0.137422 6.576578  0.791606 -0.333220 -0.512177  0.608700 0.917200 1 1 1.000000
0  0.423628 -0.019116 6.915032  0.995947 -0.072141 0.053709  0.603100 0.955700 1 1 1.000000
rag
0  0.317152 -0.089435 6.677856  0.665467 -0.217911 -0.713911  0.578800 0.928700 1 1 1.000000
0  0.423628 -0.019116 6.915032  0.995947 -0.072141 0.053709  0.603100 0.955700 1 1 1.000000
0  0.376353 -0.383053 6.857258  0.990951 -0.077792 -0.109383  0.562500 0.949100 1 1 1.000000
rag
0  0.233577 -0.451536 7.049682  0.678883 -0.222539 0.699710  0.551900 0.970400 1 1 1.000000
0  0.376353 -0.383053 6.857258  0.990951 -0.077792 -0.109383  0.562500 0.949100 1 1 1.000000
0  0.423628 -0.019116 6.915032  0.995947 -0.072141 0.053709  0.603100 0.955700 1 1 1.000000
rag
0  0.233577 -0.451536 7.049682  0.678883 -0.222539 0.699710  0.551900 0.970400 1 1 1.000000
0  0.439098 -0.802331 6.859203  0.945456 -0.228174 0.232486  0.543800 0.955000 1 1 1.000000
0  0.376353 -0.383053 6.857258  0.990951 -0.077792 -0.109383  0.562500 0.949100 1 1 1.000000
rag
0  0.439098 -0.802331 6.859203  0.945456 -0.228174 0.232486  0.543800 0.955000 1 1 1.000000
0  0.233577 -0.451536 7.049682  0.678883 -0.222539 0.699710  0.551900 0.970400 1 1 1.000000
0  0.228605 -0.821469 6.958709  0.287824 -0.665842 0.688340  0.530900 0.960700 1 1 1.000000
rag
0  0.439098 -0.802331 6.859203  0.945456 -0.228174 0.232486  0.543800 0.955000 1 1 1.000000
0  0.228605 -0.821469 6.958709  0.287824 -0.665842 0.688340  0.530900 0.960700 1 1 1.000000
0  0.100015 -1.142447 5.992720  0.257238 -0.939227 0.227335  0.523400 0.850500 1 1 1.000000
rag
0  0.100015 -1.142447 5.992720  0.257238 -0.939227 0.227335  0.523400 0.850500 1 1 1.000000
0  0.344556 -0.970363 5.992661  0.866262 -0.499584 0.002472  0.536800 0.850500 1 1 1.000000
0  0.439098 -0.802331 6.859203  0.945456 -0.228174 0.232486  0.543800 0.955000 1 1 1.000000
rag
0  -0.483880 0.579642 5.961725  -0.755770 -0.624415 -0.197277  0.217900 0.847100 1 1 1.000000
0  -0.279340 0.465289 5.895665  -0.357404 -0.861560 -0.360523  0.324900 0.839500 1 1 1.000000
0  -0.246499 0.058242 6.596305  -0.587092 -0.599110 -0.544418  0.469000 0.919400 1 1 1.000000
rag
0  -0.279340 0.465289 5.895665  -0.357404 -0.861560 -0.360523  0.324900 0.839500 1 1 1.000000
0  -0.483880 0.579642 5.961725  -0.755770 -0.624415 -0.197277  0.217900 0.847100 1 1 1.000000
0  -0.468699 0.925556 3.962106  -0.931457 -0.351560 -0.093770  0.127200 0.608000 1 1 1.000000
rag
0  0.423628 -0.019116 6.915032  0.995947 -0.072141 0.053709  0.603100 0.955700 1 1 1.000000
0  0.338688 0.094619 7.103593  0.806525 -0.010124 0.591113  0.620000 0.973600 1 1 1.000000
0  0.233577 -0.451536 7.049682  0.678883 -0.222539 0.699710  0.551900 0.970400 1 1 1.000000
rag
0  0.423628 -0.019116 6.915032  0.995947 -0.072141 0.053709  0.603100 0.955700 1 1 1.000000
0  0.397317 0.301768 6.895221  0.988332 0.116282 0.098376  0.653300 0.944700 1 1 1.000000
0  0.338688 0.094619 7.103593  0.806525 -0.010124 0.591113  0.620000 0.973600 1 1 1.000000
rag
0  0.397317 0.301768 6.895221  0.988332 0.116282 0.098376  0.653300 0.944700 1 1 1.000000
0  0.423628 -0.019116 6.915032  0.995947 -0.072141 0.053709  0.603100 0.955700 1 1 1.000000
0  0.295173 0.137422 6.576578  0.791606 -0.333220 -0.512177  0.608700 0.917200 1 1 1.000000
rag
0  0.397317 0.301768 6.895221  0.988332 0.116282 0.098376  0.653300 0.944700 1 1 1.000000
0  0.295173 0.137422 6.576578  0.791606 -0.333220 -0.512177  0.608700 0.917200 1 1 1.000000
0  0.280140 0.522680 5.890145  0.708529 -0.682615 -0.178953  0.778500 0.838300 1 1 1.000000
rag
0  0.280140 0.522680 5.890145  0.708529 -0.682615 -0.178953  0.778500 0.838300 1 1 1.000000
0  0.348640 0.814445 6.007444  0.851787 0.506265 0.134739  0.831700 0.846300 1 1 1.000000
0  0.397317 0.301768 6.895221  0.988332 0.116282 0.098376  0.653300 0.944700 1 1 1.000000
rag
0  0.348640 0.814445 6.007444  0.851787 0.506265 0.134739  0.831700 0.846300 1 1 1.000000
0  0.280140 0.522680 5.890145  0.708529 -0.682615 -0.178953  0.778500 0.838300 1 1 1.000000
0  0.434037 0.531916 4.391841  0.950565 0.310505 0.003596  0.727600 0.622000 1 1 1.000000
rag
0  -0.073088 0.316230 3.781116  -0.056867 -0.997054 0.051470  0.596400 0.598400 1 1 1.000000
0  0.434037 0.531916 4.391841  0.950565 0.310505 0.003596  0.727600 0.622000 1 1 1.000000
0  0.280140 0.522680 5.890145  0.708529 -0.682615 -0.178953  0.778500 0.838300 1 1 1.000000
rag
0  0.276617 0.300903 7.117822  0.714132 0.490295 0.499626  0.648200 0.978900 1 1 1.000000
0  0.397317 0.301768 6.895221  0.988332 0.116282 0.098376  0.684200 0.962300 1 1 1.000000
0  0.348640 0.814445 6.007444  0.851787 0.506265 0.134739  0.882100 0.858300 1 1 1.000000
rag
0  0.276617 0.300903 7.117822  0.714132 0.490295 0.499626  0.648200 0.978900 1 1 1.000000
0  0.338688 0.094619 7.103593  0.806525 -0.010124 0.591113  0.595400 0.980900 1 1 1.000000
0  0.397317 0.301768 6.895221  0.988332 0.116282 0.098376  0.684200 0.962300 1 1 1.000000
rag
0  0.338688 0.094619 7.103593  0.806525 -0.010124 0.591113  0.595400 0.980900 1 1 1.000000
0  0.276617 0.300903 7.117822  0.714132 0.490295 0.499626  0.648200 0.978900 1 1 1.000000
0  0.121540 0.235111 7.294744  0.411350 0.111963 0.904575  0.590300 0.999100 1 1 1.000000
rag
0  0.338688 0.094619 7.103593  0.806525 -0.010124 0.591113  0.595400 0.980900 1 1 1.000000
0  0.121540 0.235111 7.294744  0.411350 0.111963 0.904575  0.590300 0.999100 1 1 1.000000
0  0.082315 -0.561039 7.191520  0.424965 -0.460302 0.779440  0.522600 0.987300 1 1 1.000000
rag
0  -0.114096 -0.531870 7.298909  -0.029851 -0.440074 0.897465  0.501100 0.999500 1 1 1.000000
0  0.082315 -0.561039 7.191520  0.424965 -0.460302 0.779440  0.522600 0.987300 1 1 1.000000
0  0.121540 0.235111 7.294744  0.411350 0.111963 0.904575  0.590300 0.999100 1 1 1.000000
rag
0  -0.114096 -0.531870 7.298909  -0.029851 -0.440074 0.897465  0.501100 0.999500 1 1 1.000000
0  -0.269326 -0.733478 6.850679  -0.627190 -0.686586 0.367740  0.493100 0.953800 1 1 1.000000
0  0.082315 -0.561039 7.191520  0.424965 -0.460302 0.779440  0.522600 0.987300 1 1 1.000000
rag
0  -0.008869 -0.898053 6.953936  -0.023217 -0.788899 0.614084  0.509700 0.960200 1 1 1.000000
0  0.082315 -0.561039 7.191520  0.424965 -0.460302 0.779440  0.522600 0.987300 1 1 1.000000
0  -0.269326 -0.733478 6.850679  -0.627190 -0.686586 0.367740  0.493100 0.953800 1 1 1.000000
rag
0  -0.008869 -0.898053 6.953936  -0.023217 -0.788899 0.614084  0.509700 0.960200 1 1 1.000000
0  -0.269326 -0.733478 6.850679  -0.627190 -0.686586 0.367740  0.493100 0.953800 1 1 1.000000
0  -0.197894 -1.115950 5.992711  -0.525817 -0.812511 0.251679  0.494600 0.850500 1 1 1.000000
rag
0  -0.197894 -1.115950 5.992711  -0.525817 -0.812511 0.251679  0.494600 0.850500 1 1 1.000000
0  0.100015 -1.142447 5.992720  0.257238 -0.939227 0.227335  0.508800 0.850500 1 1 1.000000
0  -0.008869 -0.898053 6.953936  -0.023217 -0.788899 0.614084  0.509700 0.960200 1 1 1.000000
rag
0  0.228605 -0.821469 6.958709  0.287824 -0.665842 0.688340  0.530900 0.960700 1 1 1.000000
0  -0.008869 -0.898053 6.953936  -0.023217 -0.788899 0.614084  0.509700 0.960200 1 1 1.000000
0  0.100015 -1.142447 5.992720  0.257238 -0.939227 0.227335  0.508800 0.850500 1 1 1.000000
rag
0  0.228605 -0.821469 6.958709  0.287824 -0.665842 0.688340  0.530900 0.960700 1 1 1.000000
0  0.233577 -0.451536 7.049682  0.678883 -0.222539 0.699710  0.533500 0.971800 1 1 1.000000
0  -0.008869 -0.898053 6.953936  -0.023217 -0.788899 0.614084  0.509700 0.960200 1 1 1.000000
rag
0  0.082315 -0.561039 7.191520  0.424965 -0.460302 0.779440  0.522600 0.987300 1 1 1.000000
0  -0.008869 -0.898053 6.953936  -0.023217 -0.788899 0.614084  0.509700 0.960200 1 1 1.000000
0  0.233577 -0.451536 7.049682  0.678883 -0.222539 0.699710  0.533500 0.971800 1 1 1.000000
rag
0  0.082315 -0.561039 7.191520  0.424965 -0.460302 0.779440  0.522600 0.987300 1 1 1.000000
0  0.233577 -0.451536 7.049682  0.678883 -0.222539 0.699710  0.533500 0.971800 1 1 1.000000
0  0.338688 0.094619 7.103593  0.806525 -0.010124 0.591113  0.595400 0.980900 1 1 1.000000
rag
0  -0.369978 -0.871309 5.992627  -0.942364 -0.323319 0.086106  0.482500 0.850500 1 1 1.000000
0  -0.197894 -1.115950 5.992711  -0.525817 -0.812511 0.251679  0.494600 0.850500 1 1 1.000000
0  -0.269326 -0.733478 6.850679  -0.627190 -0.686586 0.367740  0.493100 0.953800 1 1 1.000000
rag
0  0.139217 0.880929 6.172122  0.614638 0.771265 0.165437  0.919100 0.871100 1 1 1.000000
0  0.348640 0.814445 6.007444  0.851787 0.506265 0.134739  0.882100 0.858300 1 1 1.000000
0  0.434037 0.531916 4.391841  0.950565 0.310505 0.003596  0.770500 0.720400 1 1 1.000000
rag
0  0.348640 0.814445 6.007444  0.851787 0.506265 0.134739  0.882100 0.858300 1 1 1.000000
0  0.139217 0.880929 6.172122  0.614638 0.771265 0.165437  0.919100 0.871100 1 1 1.000000
0  0.276617 0.300903 7.117822  0.714132 0.490295 0.499626  0.648200 0.978900 1 1 1.000000
rag
0  0.099263 0.457271 7.202068  0.171171 0.659292 0.732144  0.689000 0.988500 1 1 1.000000
0  0.276617 0.300903 7.117822  0.714132 0.490295 0.499626  0.648200 0.978900 1 1 1.000000
0  0.139217 0.880929 6.172122  0.614638 0.771265 0.165437  0.919100 0.871100 1 1 1.000000
rag
0  0.099263 0.457271 7.202068  0.171171 0.659292 0.732144  0.689000 0.988500 1 1 1.000000
0  0.121540 0.235111 7.294744  0.411350 0.111963 0.904575  0.590300 0.999100 1 1 1.000000
0  0.276617 0.300903 7.117822  0.714132 0.490295 0.499626  0.648200 0.978900 1 1 1.000000
rag
0  0.121540 0.235111 7.294744  0.411350 0.111963 0.904575  0.590300 0.999100 1 1 1.000000
0  0.099263 0.457271 7.202068  0.171171 0.659292 0.732144  0.689000 0.988500 1 1 1.000000
0  -0.060227 0.137149 7.298078  -0.388420 0.271093 0.880704  0.519600 0.999400 1 1 1.000000
rag
0  0.121540 0.235111 7.294744  0.411350 0.111963 0.904575  0.590300 0.999100 1 1 1.000000
0  -0.060227 0.137149 7.298078  -0.388420 0.271093 0.880704  0.519600 0.999400 1 1 1.000000
0  -0.114096 -0.531870 7.298909  -0.029851 -0.440074 0.897465  0.501100 0.999500 1 1 1.000000
rag
0  -0.413526 -0.445205 7.204279  -0.884871 -0.052844 0.462830  0.464900 0.988700 1 1 1.000000
0  -0.114096 -0.531870 7.298909  -0.029851 -0.440074 0.897465  0.501100 0.999500 1 1 1.000000
0  -0.060227 0.137149 7.298078  -0.388420 0.271093 0.880704  0.519600 0.999400 1 1 1.000000
rag
0  -0.413526 -0.445205 7.204279  -0.884871 -0.052844 0.462830  0.464900 0.988700 1 1 1.000000
0  -0.269326 -0.733478 6.850679  -0.627190 -0.686586 0.367740  0.479200 0.943000 1 1 1.000000
0  -0.114096 -0.531870 7.298909  -0.029851 -0.440074 0.897465  0.501100 0.999500 1 1 1.000000
rag
0  -0.269326 -0.733478 6.850679  -0.627190 -0.686586 0.367740  0.479200 0.943000 1 1 1.000000
0  -0.413526 -0.445205 7.204279  -0.884871 -0.052844 0.462830  0.464900 0.988700 1 1 1.000000
0  -0.417005 -0.505788 6.679100  -0.986865 0.155142 -0.045047  0.466500 0.928800 1 1 1.000000
rag
0  -0.269326 -0.733478 6.850679  -0.627190 -0.686586 0.367740  0.479200 0.943000 1 1 1.000000
0  -0.417005 -0.505788 6.679100  -0.986865 0.155142 -0.045047  0.466500 0.928800 1 1 1.000000
0  -0.369978 -0.871309 5.992627  -0.942364 -0.323319 0.086106  0.475000 0.850500 1 1 1.000000
rag
0  -0.343381 -0.573500 5.992524  -0.837688 0.519577 -0.168282  0.476300 0.850500 1 1 1.000000
0  -0.369978 -0.871309 5.992627  -0.942364 -0.323319 0.086106  0.475000 0.850500 1 1 1.000000
0  -0.417005 -0.505788 6.679100  -0.986865 0.155142 -0.045047  0.466500 0.928800 1 1 1.000000
rag
0  -0.417005 -0.505788 6.679100  -0.986865 0.155142 -0.045047  0.466500 0.928800 1 1 1.000000
0  -0.324542 -0.397085 6.595963  -0.598435 0.775402 -0.201561  0.474200 0.919400 1 1 1.000000
0  -0.343381 -0.573500 5.992524  -0.837688 0.519577 -0.168282  0.476300 0.850500 1 1 1.000000
rag
0  -0.098841 -0.401415 5.992464  -0.205331 0.966383 -0.154734  0.490700 0.850500 1 1 1.000000
0  -0.343381 -0.573500 5.992524  -0.837688 0.519577 -0.168282  0.476300 0.850500 1 1 1.000000
0  -0.324542 -0.397085 6.595963  -0.598435 0.775402 -0.201561  0.474200 0.919400 1 1 1.000000
rag
0  -0.324542 -0.397085 6.595963  -0.598435 0.775402 -0.201561  0.474200 0.919400 1 1 1.000000
0  -0.144263 -0.336237 6.555041  -0.322593 0.843905 -0.428670  0.497200 0.914700 1 1 1.000000
0  -0.098841 -0.401415 5.992464  -0.205331 0.966383 -0.154734  0.490700 0.850500 1 1 1.000000
rag
0  -0.324542 -0.397085 6.595963  -0.598435 0.775402 -0.201561  0.474200 0.919400 1 1 1.000000
0  -0.311865 -0.331823 6.760940  -0.840962 0.473509 -0.261864  0.465500 0.932500 1 1 1.000000
0  -0.144263 -0.336237 6.555041  -0.322593 0.843905 -0.428670  0.497200 0.914700 1 1 1.000000
rag
0  -0.262127 -0.152411 6.745778  -0.850601 -0.034173 -0.524699  0.482700 0.931100 1 1 1.000000
0  -0.144263 -0.336237 6.555041  -0.322593 0.843905 -0.428670  0.497200 0.914700 1 1 1.000000
0  -0.311865 -0.331823 6.760940  -0.840962 0.473509 -0.261864  0.465500 0.932500 1 1 1.000000
rag
0  -0.144263 -0.336237 6.555041  -0.322593 0.843905 -0.428670  0.497200 0.914700 1 1 1.000000
0  -0.262127 -0.152411 6.745778  -0.850601 -0.034173 -0.524699  0.482700 0.931100 1 1 1.000000
0  0.076239 -0.342359 6.560144  0.068606 0.827072 -0.557894  0.527400 0.915300 1 1 1.000000
rag
0  -0.039515 -0.185377 6.623290  -0.191660 -0.086286 -0.977661  0.514200 0.922500 1 1 1.000000
0  0.076239 -0.342359 6.560144  0.068606 0.827072 -0.557894  0.527400 0.915300 1 1 1.000000
0  -0.262127 -0.152411 6.745778  -0.850601 -0.034173 -0.524699  0.482700 0.931100 1 1 1.000000
rag
0  0.434037 0.531916 4.391841  0.950565 0.310505 0.003596  0.855700 0.718500 1 1 1.000000
0  0.050341 1.100116 4.486246  -0.144551 0.988893 0.034565  0.945400 0.699700 1 1 1.000000
0  -0.069862 1.109478 6.232343  0.009182 0.947845 0.318598  0.988800 0.878000 1 1 1.000000
rag
0  -0.069862 1.109478 6.232343  0.009182 0.947845 0.318598  0.988800 0.878000 1 1 1.000000
0  0.139217 0.880929 6.172122  0.614638 0.771265 0.165437  0.919100 0.871100 1 1 1.000000
0  0.434037 0.531916 4.391841  0.950565 0.310505 0.003596  0.855700 0.718500 1 1 1.000000
rag
0  0.139217 0.880929 6.172122  0.614638 0.771265 0.165437  0.919100 0.871100 1 1 1.000000
0  -0.069862 1.109478 6.232343  0.009182 0.947845 0.318598  0.988800 0.878000 1 1 1.000000
0  0.099263 0.457271 7.202068  0.171171 0.659292 0.732144  0.689000 0.988500 1 1 1.000000
rag
0  -0.072494 0.331796 7.158211  -0.491177 0.535087 0.687334  0.531700 0.983500 1 1 1.000000
0  0.099263 0.457271 7.202068  0.171171 0.659292 0.732144  0.689000 0.988500 1 1 1.000000
0  -0.069862 1.109478 6.232343  0.009182 0.947845 0.318598  0.988800 0.878000 1 1 1.000000
rag
0  -0.072494 0.331796 7.158211  -0.491177 0.535087 0.687334  0.531700 0.983500 1 1 1.000000
0  -0.060227 0.137149 7.298078  -0.388420 0.271093 0.880704  0.519600 0.999400 1 1 1.000000
0  0.099263 0.457271 7.202068  0.171171 0.659292 0.732144  0.689000 0.988500 1 1 1.000000
rag
0  -0.060227 0.137149 7.298078  -0.388420 0.271093 0.880704  0.519600 0.999400 1 1 1.000000
0  -0.072494 0.331796 7.158211  -0.491177 0.535087 0.687334  0.531700 0.983500 1 1 1.000000
0  -0.275094 0.041727 7.158711  -0.867955 0.187354 0.459948  0.470300 0.991000 1 1 1.000000
rag
0  -0.060227 0.137149 7.298078  -0.388420 0.271093 0.880704  0.519600 0.999400 1 1 1.000000
0  -0.275094 0.041727 7.158711  -0.867955 0.187354 0.459948  0.470300 0.991000 1 1 1.000000
0  -0.413526 -0.445205 7.204279  -0.884871 -0.052844 0.462830  0.464900 0.988700 1 1 1.000000
rag
0  -0.311865 -0.331823 6.760940  -0.840962 0.473509 -0.261864  0.481700 0.943800 1 1 1.000000
0  -0.413526 -0.445205 7.204279  -0.884871 -0.052844 0.462830  0.464900 0.988700 1 1 1.000000
0  -0.275094 0.041727 7.158711  -0.867955 0.187354 0.459948  0.470300 0.991000 1 1 1.000000
rag
0  -0.311865 -0.331823 6.760940  -0.840962 0.473509 -0.261864  0.481700 0.943800 1 1 1.000000
0  -0.417005 -0.505788 6.679100  -0.986865 0.155142 -0.045047  0.466500 0.928800 1 1 1.000000
0  -0.413526 -0.445205 7.204279  -0.884871 -0.052844 0.462830  0.464900 0.988700 1 1 1.000000
rag
0  -0.417005 -0.505788 6.679100  -0.986865 0.155142 -0.045047  0.466500 0.928800 1 1 1.000000
0  -0.311865 -0.331823 6.760940  -0.840962 0.473509 -0.261864  0.481700 0.943800 1 1 1.000000
0  -0.324542 -0.397085 6.595963  -0.598435 0.775402 -0.201561  0.474200 0.919400 1 1 1.000000
rag
0  -0.262802 0.355721 7.128503  -0.491183 0.527580 0.693107  0.412200 0.980100 1 1 1.000000
0  -0.275094 0.041727 7.158711  -0.867955 0.187354 0.459948  0.470300 0.991000 1 1 1.000000
0  -0.072494 0.331796 7.158211  -0.491177 0.535087 0.687334  0.531700 0.983500 1 1 1.000000
rag
0  -0.348265 0.247546 6.999341  -0.961959 -0.026648 0.271890  0.413100 0.965400 1 1 1.000000
0  -0.262802 0.355721 7.128503  -0.491183 0.527580 0.693107  0.412200 0.980100 1 1 1.000000
0  -0.483988 0.892404 6.142118  -0.635689 0.729672 0.251949  0.100900 0.867700 1 1 1.000000
rag
0  -0.348265 0.247546 6.999341  -0.961959 -0.026648 0.271890  0.413100 0.965400 1 1 1.000000
0  -0.275094 0.041727 7.158711  -0.867955 0.187354 0.459948  0.458000 0.976100 1 1 1.000000
0  -0.262802 0.355721 7.128503  -0.491183 0.527580 0.693107  0.412200 0.980100 1 1 1.000000
rag
0  -0.275094 0.041727 7.158711  -0.867955 0.187354 0.459948  0.458000 0.976100 1 1 1.000000
0  -0.262127 -0.152411 6.745778  -0.850601 -0.034173 -0.524699  0.460200 0.946500 1 1 1.000000
0  -0.311865 -0.331823 6.760940  -0.840962 0.473509 -0.261864  0.465500 0.932500 1 1 1.000000
rag
0  -0.275094 0.041727 7.158711  -0.867955 0.187354 0.459948  0.458000 0.976100 1 1 1.000000
0  -0.348265 0.247546 6.999341  -0.961959 -0.026648 0.271890  0.413100 0.965400 1 1 1.000000
0  -0.262127 -0.152411 6.745778  -0.850601 -0.034173 -0.524699  0.460200 0.946500 1 1 1.000000
rag
0  -0.359127 0.137251 6.733678  -0.918001 -0.380380 -0.112184  0.431900 0.935100 1 1 1.000000
0  -0.262127 -0.152411 6.745778  -0.850601 -0.034173 -0.524699  0.460200 0.946500 1 1 1.000000
0  -0.348265 0.247546 6.999341  -0.961959 -0.026648 0.271890  0.413100 0.965400 1 1 1.000000
rag
0  -0.359127 0.137251 6.733678  -0.918001 -0.380380 -0.112184  0.431900 0.935100 1 1 1.000000
0  -0.348265 0.247546 6.999341  -0.961959 -0.026648 0.271890  0.413100 0.965400 1 1 1.000000
0  -0.558834 0.735947 6.051871  -0.995853 -0.065036 0.063622  0.158500 0.857400 1 1 1.000000
rag
0  -0.483988 0.892404 6.142118  -0.635689 0.729672 0.251949  0.100900 0.867700 1 1 1.000000
0  -0.558834 0.735947 6.051871  -0.995853 -0.065036 0.063622  0.158500 0.857400 1 1 1.000000
0  -0.348265 0.247546 6.999341  -0.961959 -0.026648 0.271890  0.413100 0.965400 1 1 1.000000
rag
0  -0.558834 0.735947 6.051871  -0.995853 -0.065036 0.063622  0.158500 0.857400 1 1 1.000000
0  -0.483988 0.892404 6.142118  -0.635689 0.729672 0.251949  0.100900 0.867700 1 1 1.000000
0  -0.468699 0.925556 3.962106  -0.931457 -0.351560 -0.093770  0.034700 0.643200 1 1 1.000000
rag
0  0.050341 1.100116 4.486246  -0.144551 0.988893 0.034565  -0.005000 0.658100 1 1 1.000000
0  -0.468699 0.925556 3.962106  -0.931457 -0.351560 -0.093770  0.034700 0.643200 1 1 1.000000
0  -0.483988 0.892404 6.142118  -0.635689 0.729672 0.251949  0.100900 0.867700 1 1 1.000000
rag
0  -0.483988 0.892404 6.142118  -0.635689 0.729672 0.251949  0.100900 0.867700 1 1 1.000000
0  -0.184493 0.908430 6.208212  -0.437869 0.837929 0.325802  0.018600 0.875200 1 1 1.000000
0  0.050341 1.100116 4.486246  -0.144551 0.988893 0.034565  -0.005000 0.658100 1 1 1.000000
rag
0  -0.184493 0.908430 6.208212  -0.437869 0.837929 0.325802  0.018600 0.875200 1 1 1.000000
0  -0.483988 0.892404 6.142118  -0.635689 0.729672 0.251949  0.100900 0.867700 1 1 1.000000
0  -0.262802 0.355721 7.128503  -0.491183 0.527580 0.693107  0.412200 0.980100 1 1 1.000000
rag
0  -0.262802 0.355721 7.128503  -0.491183 0.527580 0.693107  0.412200 0.980100 1 1 1.000000
0  -0.072494 0.331796 7.158211  -0.491177 0.535087 0.687334  -0.468300 0.983500 1 1 1.000000
0  -0.184493 0.908430 6.208212  -0.437869 0.837929 0.325802  0.018600 0.875200 1 1 1.000000
rag
0  -0.069862 1.109478 6.232343  0.009182 0.947845 0.318598  -0.011200 0.878000 1 1 1.000000
0  -0.184493 0.908430 6.208212  -0.437869 0.837929 0.325802  0.018600 0.875200 1 1 1.000000
0  -0.072494 0.331796 7.158211  -0.491177 0.535087 0.687334  -0.468300 0.983500 1 1 1.000000
rag
0  -0.184493 0.908430 6.208212  -0.437869 0.837929 0.325802  0.018600 0.875200 1 1 1.000000
0  -0.069862 1.109478 6.232343  0.009182 0.947845 0.318598  -0.011200 0.878000 1 1 1.000000
0  0.050341 1.100116 4.486246  -0.144551 0.988893 0.034565  -0.054600 0.699700 1 1 1.000000
rag
0  0.050341 1.100116 4.486246  0.573944 0.495855 -0.651702  0.516800 0.611500 1 1 1.000000
0  0.434037 0.531916 4.391841  0.573944 0.495855 -0.651702  0.611500 0.449800 1 1 1.000000
0  -0.073088 0.316230 3.781116  0.573944 0.495855 -0.651702  0.486200 0.388500 1 1 1.000000
rag
0  0.076239 -0.342359 6.560144  0.068606 0.827072 -0.557894  0.527400 0.915300 1 1 1.000000
0  -0.039515 -0.185377 6.623290  -0.191660 -0.086286 -0.977661  0.514200 0.922500 1 1 1.000000
0  0.279884 -0.472502 6.522789  0.589844 0.655996 -0.470906  0.547000 0.911000 1 1 1.000000
rag
0  0.246295 -0.215862 6.671000  0.628359 0.038940 -0.776948  0.551400 0.923700 1 1 1.000000
0  0.279884 -0.472502 6.522789  0.589844 0.655996 -0.470906  0.547000 0.911000 1 1 1.000000
0  -0.039515 -0.185377 6.623290  -0.191660 -0.086286 -0.977661  0.514200 0.922500 1 1 1.000000
rag
0  0.279884 -0.472502 6.522789  0.589844 0.655996 -0.470906  0.547000 0.911000 1 1 1.000000
0  0.246295 -0.215862 6.671000  0.628359 0.038940 -0.776948  0.551400 0.923700 1 1 1.000000
0  0.409025 -0.590628 6.607929  0.901215 0.407293 -0.148065  0.554900 0.920700 1 1 1.000000
rag
0  0.279884 -0.472502 6.522789  0.589844 0.655996 -0.470906  0.547000 0.911000 1 1 1.000000
0  0.409025 -0.590628 6.607929  0.901215 0.407293 -0.148065  0.554900 0.920700 1 1 1.000000
0  0.371153 -0.672453 5.992558  0.939380 0.328211 -0.099215  0.549400 0.850500 1 1 1.000000
rag
0  0.371153 -0.672453 5.992558  0.939380 0.328211 -0.099215  0.549400 0.850500 1 1 1.000000
0  0.199069 -0.427913 5.992474  0.512416 0.855273 -0.077060  0.539700 0.850500 1 1 1.000000
0  0.279884 -0.472502 6.522789  0.589844 0.655996 -0.470906  0.547000 0.911000 1 1 1.000000
rag
0  0.076239 -0.342359 6.560144  0.068606 0.827072 -0.557894  0.527400 0.915300 1 1 1.000000
0  0.279884 -0.472502 6.522789  0.589844 0.655996 -0.470906  0.547000 0.911000 1 1 1.000000
0  0.199069 -0.427913 5.992474  0.512416 0.855273 -0.077060  0.539700 0.850500 1 1 1.000000
rag
0  0.199069 -0.427913 5.992474  0.512416 0.855273 -0.077060  0.539700 0.850500 1 1 1.000000
0  -0.098841 -0.401415 5.992464  -0.205331 0.966383 -0.154734  0.516500 0.850500 1 1 1.000000
0  0.076239 -0.342359 6.560144  0.068606 0.827072 -0.557894  0.527400 0.915300 1 1 1.000000
rag
0  -0.144263 -0.336237 6.555041  -0.322593 0.843905 -0.428670  0.497200 0.914700 1 1 1.000000
0  0.076239 -0.342359 6.560144  0.068606 0.827072 -0.557894  0.527400 0.915300 1 1 1.000000
0  -0.098841 -0.401415 5.992464  -0.205331 0.966383 -0.154734  0.516500 0.850500 1 1 1.000000
end
