version 1
nodes
0 "ValveBiped.ZombiePoison_Mesh" -1
1 "ValveBiped.Bip01" -1
2 "ValveBiped.Spine" 1
3 "ValveBiped.Bip01_Spine" 2
4 "ValveBiped.Bip01_Spine1" 3
5 "ValveBiped.Bip01_Spine2" 4
6 "ValveBiped.Bip01_Spine4" 5
7 "ValveBiped.Neck1" 6
8 "ValveBiped.Bip01_Neck1" 7
9 "ValveBiped.Bip01_Head1" 8
10 "ValveBiped.Bip01_L_Clavicle" 6
11 "ValveBiped.Bip01_L_UpperArm" 10
12 "ValveBiped.Bip01_L_Forearm" 11
13 "ValveBiped.Bip01_L_Hand" 12
14 "ValveBiped.Bip01_L_Finger1" 13
15 "ValveBiped.Bip01_L_Finger11" 14
16 "ValveBiped.Bip01_L_Finger12" 15
17 "ValveBiped.eff3" 13
18 "ValveBiped.Bip01_L_Finger2" 13
19 "ValveBiped.Bip01_L_Finger21" 18
20 "ValveBiped.Bip01_L_Finger22" 19
21 "ValveBiped.eff4" 13
22 "ValveBiped.Bip01_L_Finger3" 13
23 "ValveBiped.Bip01_L_Finger31" 22
24 "ValveBiped.Bip01_L_Finger32" 23
25 "ValveBiped.eff2" 13
26 "ValveBiped.Bip01_R_Clavicle" 6
27 "ValveBiped.Bip01_R_UpperArm" 26
28 "ValveBiped.Bip01_R_Forearm" 27
29 "ValveBiped.Bip01_R_Hand" 28
30 "ValveBiped.Bip01_R_Finger1" 29
31 "ValveBiped.Bip01_R_Finger11" 30
32 "ValveBiped.Bip01_R_Finger12" 31
33 "ValveBiped.eff5" 29
34 "ValveBiped.Bip01_R_Finger2" 29
35 "ValveBiped.Bip01_R_Finger21" 34
36 "ValveBiped.Bip01_R_Finger22" 35
37 "ValveBiped.eff6" 29
38 "ValveBiped.Bip01_R_Finger3" 29
39 "ValveBiped.Bip01_R_Finger31" 38
40 "ValveBiped.Bip01_R_Finger32" 39
41 "ValveBiped.eff7" 29
42 "ValveBiped.HC_BodyCube" 6
43 "ValveBiped.HC_HeadCube" 42
44 "ValveBiped.HC_BoneLF" 43
45 "ValveBiped.HC_BoneLF1" 44
46 "ValveBiped.HC_BoneRF" 43
47 "ValveBiped.HC_BoneRF1" 46
48 "ValveBiped.HC_BreatheBox_R" 42
49 "ValveBiped.HC_BreatheBox_L" 42
50 "ValveBiped.HC_BoneRB" 42
51 "ValveBiped.HC_BoneRB1" 50
52 "ValveBiped.HC_BoneLB" 42
53 "ValveBiped.HC_BoneLB1" 52
54 "ValveBiped.Bip01_Pelvis" 1
55 "ValveBiped.Bip01_L_Thigh" 54
56 "ValveBiped.Bip01_L_Calf" 55
57 "ValveBiped.Bip01_L_Foot" 56
58 "ValveBiped.Bip01_L_Toe0" 57
59 "ValveBiped.Bip01_R_Thigh" 54
60 "ValveBiped.Bip01_R_Calf" 59
61 "ValveBiped.Bip01_R_Foot" 60
62 "ValveBiped.Bip01_R_Toe0" 61
end
skeleton
time 0
0 0.000000 0.000000 0.000000 1.570796 0.000000 0.000000
1 -3.499458 0.942272 34.456650 1.963495 0.000000 -0.119865
2 0.000005 3.345123 -2.981987 0.000000 0.000000 0.000000
3 0.000000 0.000000 0.000000 0.125414 -0.434055 1.753012
4 4.126702 0.000000 0.000000 -0.054978 -0.314159 0.006827
5 3.613000 0.000000 0.000000 0.023562 -0.298451 -0.202508
6 9.184000 0.000000 0.000000 -0.007071 -0.142039 -0.024033
7 3.115958 0.000373 0.000000 0.000000 0.000000 0.000000
8 0.000000 0.000000 0.000000 -0.024625 0.925927 -0.034405
9 1.721344 0.000000 0.000000 0.000000 -0.392699 0.015097
10 1.667105 -2.621271 1.204551 0.167879 -0.160052 -1.817357
11 6.028141 0.000000 0.000000 -2.406041 -0.857868 0.513757
12 12.693000 0.000000 0.000000 0.000000 0.000000 -1.260846
13 11.576000 0.000000 0.000000 -1.373183 0.602075 0.350723
14 5.591136 0.133427 -1.865050 0.204204 0.169297 -0.060214
15 5.293000 0.000000 0.000000 6.209610 -0.006250 0.809509
16 3.079115 0.000000 0.000000 0.006978 -0.006850 0.667655
17 13.765118 5.451556 -2.095604 0.135231 -0.150933 -4.895883
18 5.739710 0.047597 -0.612883 -0.146203 -0.021738 0.350197
19 5.652500 0.000000 0.000000 6.215440 -0.006072 0.542602
20 3.325017 0.000000 0.000000 0.009338 -0.006636 1.264737
21 10.952394 7.862874 -1.474892 -0.003746 0.203348 -4.126390
22 5.562210 0.327350 0.486441 -0.329867 -0.354521 0.774743
23 5.158500 0.000000 0.000000 6.212903 -0.005680 0.432912
24 3.326000 0.000000 0.000000 0.008885 -0.007390 1.407859
25 7.429285 8.918360 1.190963 -0.294454 0.454032 -3.802776
26 1.659054 2.569644 1.216363 -0.165570 0.036625 1.604596
27 6.028141 0.000000 0.000000 -10.902109 -0.747770 -0.183090
28 12.693000 0.000000 0.000000 0.000000 0.000000 0.973791
29 11.598282 0.138266 0.107485 -0.630719 0.044388 0.130970
30 5.900461 -0.635063 1.689933 0.424115 -0.106558 0.188975
31 5.248500 0.000000 0.000000 0.000000 0.000000 0.483077
32 3.151000 0.000000 0.000000 -0.000000 0.000000 0.524056
33 14.571267 4.990293 4.483231 0.141090 -0.414472 -5.093827
34 6.189646 -0.664553 0.434985 0.204204 0.029273 0.408383
35 5.511000 0.000000 0.000000 0.000000 0.000000 0.844926
36 3.325017 0.000000 0.000000 -0.000000 0.000000 0.524187
37 11.540494 8.531502 1.492552 0.070663 -0.193942 -4.515566
38 5.928183 -0.249670 -0.698117 0.392699 0.156781 0.512254
39 5.074000 0.000000 0.000000 0.000000 -0.000000 0.816814
40 3.326000 0.000000 0.000000 0.000000 -0.000001 1.115265
41 8.669949 7.679729 0.644595 0.013643 -0.421117 -3.873015
42 8.287275 -1.907898 2.210609 -1.796771 -0.490528 -1.607476
43 0.051795 -3.221541 -2.149793 1.570796 -0.003965 -3.124561
44 -6.164043 1.200615 -0.386343 0.792908 0.207810 -1.949927
45 10.055000 0.000000 0.000000 6.283185 0.000000 2.063454
46 7.521430 1.146345 -0.153238 -0.968409 0.358892 -1.264174
47 10.055000 0.000000 0.000000 0.000000 0.000000 4.489839
48 -6.413662 0.939848 3.041163 1.570796 0.000000 0.000000
49 5.565980 0.980325 3.086309 1.570796 0.000000 0.000000
50 -5.270774 5.541527 2.169929 -1.511439 2.142822 -0.888162
51 12.739398 0.000000 0.000000 0.000000 0.000000 -2.071581
52 3.846880 5.541527 2.169929 1.518333 0.899067 1.006039
53 12.907905 0.000000 0.000000 0.000000 0.000000 -2.152311
54 0.000000 0.000000 0.000000 0.000000 0.000000 0.148648
55 3.890452 -0.000009 -0.000089 -1.794183 -1.070448 -1.442449
56 17.591000 0.000000 0.000000 0.000000 0.000000 0.898618
57 17.699579 0.000000 0.000000 -6.262197 -6.670434 11.551718
58 6.879455 0.000000 0.000000 6.197346 -0.002954 -0.584447
59 -3.890442 -0.000009 -0.000089 1.116227 -0.842548 -1.603054
60 17.591000 0.000000 0.000000 0.000000 0.000000 -1.024926
61 17.699579 0.000000 0.000000 -6.219776 6.446625 1.545354
62 6.879455 0.000000 0.000000 -12.663248 0.003781 0.622900
time 1
1 -2.727587 1.679238 35.603050 1.969613 0.000000 -0.122397
2 0.000005 3.345123 -2.981987 0.000000 0.000000 0.000000
3 0.000000 0.000000 0.000000 0.129341 -0.201701 1.753012
4 4.126702 0.000000 0.000000 -0.113122 -0.396669 0.007564
5 3.613000 0.000000 0.000000 -0.032619 -0.443411 -0.201771
6 9.184000 0.000000 0.000000 -0.010908 -0.291340 -0.023651
7 3.115958 0.000373 0.000000 0.000000 0.000000 0.000000
8 0.000000 0.000000 0.000000 -0.024625 0.925927 -0.034405
9 1.721344 0.000000 0.000000 0.000000 -0.392699 0.015097
10 1.667105 -2.621271 1.204551 0.167879 -0.160052 -1.817357
11 6.028141 0.000000 0.000000 -2.821506 -0.884387 0.709659
12 12.693000 0.000000 0.000000 0.000000 0.000000 -1.055795
13 11.576000 0.000000 0.000000 -1.181684 0.322354 0.276482
14 5.591136 0.133427 -1.865050 0.204204 0.169297 -0.060214
15 5.293000 0.000000 0.000000 6.209610 -0.006250 0.809509
16 3.079115 0.000000 0.000000 0.006978 -0.006850 0.667655
17 13.765118 5.451556 -2.095604 0.135231 -0.150933 -4.895883
18 5.739710 0.047597 -0.612883 -0.146203 -0.021738 0.350197
19 5.652500 0.000000 0.000000 6.215440 -0.006072 0.542602
20 3.325017 0.000000 0.000000 0.009338 -0.006636 1.264737
21 10.952394 7.862874 -1.474892 -0.003746 0.203348 -4.126390
22 5.562210 0.327350 0.486441 -0.329867 -0.354521 0.774743
23 5.158500 0.000000 0.000000 6.212903 -0.005680 0.432912
24 3.326000 0.000000 0.000000 0.008885 -0.007390 1.407859
25 7.429285 8.918360 1.190963 -0.294454 0.454032 -3.802776
26 1.659054 2.569644 1.216363 -0.165570 -0.356074 1.282583
27 6.028141 0.000000 0.000000 -10.565679 -0.418852 -0.073767
28 12.693000 0.000000 0.000000 0.000000 0.000000 1.000204
29 11.598282 0.138266 0.107485 -0.617783 0.008734 0.041670
30 5.900461 -0.635063 1.689933 0.424115 -0.106558 0.188975
31 5.248500 0.000000 0.000000 0.000000 0.000000 0.483077
32 3.151000 0.000000 0.000000 -0.000000 0.000000 0.524056
33 14.571267 4.990293 4.483231 0.141090 -0.414472 -5.093827
34 6.189646 -0.664553 0.434985 0.204204 0.029273 0.408383
35 5.511000 0.000000 0.000000 0.000000 0.000000 0.844926
36 3.325017 0.000000 0.000000 -0.000000 0.000000 0.524187
37 11.540494 8.531502 1.492552 0.070663 -0.193942 -4.515566
38 5.928183 -0.249670 -0.698117 0.392699 0.156781 0.512254
39 5.074000 0.000000 0.000000 0.000000 -0.000000 0.816814
40 3.326000 0.000000 0.000000 0.000000 -0.000001 1.115265
41 8.669949 7.679729 0.644595 0.013643 -0.421117 -3.873015
42 8.287275 -1.907898 2.210609 -1.796771 -0.490528 -1.607476
43 0.051795 -3.221541 -2.149793 1.570796 -0.003965 -3.124561
44 -6.164043 1.200615 -0.386343 0.788612 0.226672 -1.957441
45 10.055000 0.000000 0.000000 6.283185 0.000000 2.110896
46 7.521430 1.146345 -0.153238 -0.993379 0.434380 -1.317918
47 10.055000 0.000000 0.000000 0.000000 0.000000 4.470807
48 -6.413662 0.939848 3.041163 1.570796 0.000000 0.000000
49 5.565980 0.980325 3.086309 1.570796 0.000000 0.000000
50 -5.270774 5.541527 2.169929 -1.496615 2.127943 -0.869980
51 12.739398 0.000000 0.000000 0.000000 0.000000 -2.080962
52 3.846880 5.541527 2.169929 1.487322 0.908873 0.968975
53 12.907905 0.000000 0.000000 0.000000 0.000000 -2.186471
54 0.000000 0.000000 0.000000 0.000000 0.000000 0.148648
55 3.890452 -0.000009 -0.000089 -1.863854 -0.996337 -1.463821
56 17.591000 0.000000 0.000000 0.000000 0.000000 0.715104
57 17.699579 0.000000 0.000000 -6.205796 -6.612978 11.611299
58 6.879455 0.000000 0.000000 6.197346 -0.002954 -0.584447
59 -3.890442 -0.000009 -0.000089 1.236201 -0.817984 -1.704587
60 17.591000 0.000000 0.000000 0.000000 0.000000 -0.875106
61 17.699579 0.000000 0.000000 -6.233217 6.516403 1.447911
62 6.879455 0.000000 0.000000 -12.663248 0.003781 0.622900
time 2
1 -2.192596 2.975508 37.053974 1.972256 0.000000 -0.123490
2 0.000005 3.345123 -2.981987 0.000000 0.000000 0.000000
3 0.000000 0.000000 0.000000 0.125414 0.068600 1.753012
4 4.126702 0.000000 0.000000 -0.164934 -0.439823 0.006827
5 3.613000 0.000000 0.000000 -0.086394 -0.565487 -0.202508
6 9.184000 0.000000 0.000000 -0.007071 -0.440491 -0.024033
7 3.115958 0.000373 0.000000 0.000000 0.000000 0.000000
8 0.000000 0.000000 0.000000 -0.024625 0.925927 -0.034405
9 1.721344 0.000000 0.000000 0.000000 -0.392699 0.015097
10 1.667105 -2.621271 1.204551 0.167879 -0.160052 -1.817357
11 6.028141 0.000000 0.000000 -3.496327 -0.995622 0.922718
12 12.693000 0.000000 0.000000 0.000000 0.000000 -0.778179
13 11.576000 0.000000 0.000000 -0.751845 0.161912 0.061742
14 5.591136 0.133427 -1.865050 0.204204 0.169297 -0.060214
15 5.293000 0.000000 0.000000 6.209610 -0.006250 0.809509
16 3.079115 0.000000 0.000000 0.006978 -0.006850 0.667655
17 13.765118 5.451556 -2.095604 0.135231 -0.150933 -4.895883
18 5.739710 0.047597 -0.612883 -0.146203 -0.021738 0.350197
19 5.652500 0.000000 0.000000 6.215440 -0.006072 0.542602
20 3.325017 0.000000 0.000000 0.009338 -0.006636 1.264737
21 10.952394 7.862874 -1.474892 -0.003746 0.203348 -4.126390
22 5.562210 0.327350 0.486441 -0.329867 -0.354521 0.774743
23 5.158500 0.000000 0.000000 6.212903 -0.005680 0.432912
24 3.326000 0.000000 0.000000 0.008885 -0.007390 1.407859
25 7.429285 8.918360 1.190963 -0.294454 0.454032 -3.802776
26 1.659054 2.569644 1.216363 -0.165570 -0.748773 0.960570
27 6.028141 0.000000 0.000000 -10.183099 -0.015829 0.011525
28 12.693000 0.000000 0.000000 0.000000 0.000000 0.958517
29 11.598282 0.138266 0.107485 -0.657887 -0.044856 -0.084746
30 5.900461 -0.635063 1.689933 0.424115 -0.106558 0.188975
31 5.248500 0.000000 0.000000 0.000000 0.000000 0.483077
32 3.151000 0.000000 0.000000 -0.000000 0.000000 0.524056
33 14.571267 4.990293 4.483231 0.141090 -0.414472 -5.093827
34 6.189646 -0.664553 0.434985 0.204204 0.029273 0.408383
35 5.511000 0.000000 0.000000 0.000000 0.000000 0.844926
36 3.325017 0.000000 0.000000 -0.000000 0.000000 0.524187
37 11.540494 8.531502 1.492552 0.070663 -0.193942 -4.515566
38 5.928183 -0.249670 -0.698117 0.392699 0.156781 0.512254
39 5.074000 0.000000 0.000000 0.000000 -0.000000 0.816814
40 3.326000 0.000000 0.000000 0.000000 -0.000001 1.115265
41 8.669949 7.679729 0.644595 0.013643 -0.421117 -3.873015
42 8.287275 -1.907898 2.210609 -1.796771 -0.490528 -1.607476
43 0.051795 -3.221541 -2.149793 1.570796 -0.003965 -3.124561
44 -6.164043 1.200615 -0.386343 0.784681 0.242641 -1.958746
45 10.055000 0.000000 0.000000 6.283185 0.000000 2.156501
46 7.521430 1.146345 -0.153238 -1.015845 0.507617 -1.365227
47 10.055000 0.000000 0.000000 0.000000 0.000000 4.444996
48 -6.413662 0.939848 3.041163 1.570796 0.000000 0.000000
49 5.565980 0.980325 3.086309 1.570796 0.000000 0.000000
50 -5.270774 5.541527 2.169929 -1.478104 2.116635 -0.847281
51 12.739398 0.000000 0.000000 0.000000 0.000000 -2.093515
52 3.846880 5.541527 2.169929 1.460658 0.920653 0.936995
53 12.907905 0.000000 0.000000 0.000000 0.000000 -2.221437
54 0.000000 0.000000 0.000000 0.000000 0.000000 0.148648
55 3.890452 -0.000009 -0.000089 -1.954256 -0.843576 -1.530910
56 17.591000 0.000000 0.000000 0.000000 0.000000 0.348011
57 17.699579 0.000000 0.000000 -6.148520 -6.476489 11.760587
58 6.879455 0.000000 0.000000 6.197346 -0.002954 -0.584447
59 -3.890442 -0.000009 -0.000089 1.410567 -0.809862 -1.802738
60 17.591000 0.000000 0.000000 0.000000 0.000000 -0.914019
61 17.699579 0.000000 0.000000 -6.338050 6.621067 1.348458
62 6.879455 0.000000 0.000000 -12.663248 0.003781 0.622900
time 3
1 -1.907279 4.511672 36.934624 1.972292 0.000000 -0.123505
2 0.000005 3.345123 -2.981987 0.000000 0.000000 0.000000
3 0.000000 0.000000 0.000000 0.125414 0.092266 1.753012
4 4.126702 0.000000 0.000000 -0.097083 -0.330302 0.006827
5 3.613000 0.000000 0.000000 -0.028360 -0.406877 -0.202508
6 9.184000 0.000000 0.000000 0.027290 -0.339258 -0.024033
7 3.115958 0.000373 0.000000 0.000000 0.000000 0.000000
8 0.000000 0.000000 0.000000 -0.024625 0.925927 -0.034405
9 1.721344 0.000000 0.000000 0.000000 -0.392699 0.015097
10 1.667105 -2.621271 1.204551 0.167879 -0.160052 -1.817357
11 6.028141 0.000000 0.000000 -3.004408 -1.276519 0.236376
12 12.693000 0.000000 0.000000 0.000000 0.000000 -0.828930
13 11.576000 0.000000 0.000000 -0.618967 0.361623 0.161972
14 5.591136 0.133427 -1.865050 0.204204 0.169297 -0.060214
15 5.293000 0.000000 0.000000 6.209610 -0.006250 0.809509
16 3.079115 0.000000 0.000000 0.006978 -0.006850 0.667655
17 13.765118 5.451556 -2.095604 0.135231 -0.150933 -4.895883
18 5.739710 0.047597 -0.612883 -0.146203 -0.021738 0.350197
19 5.652500 0.000000 0.000000 6.215440 -0.006072 0.542602
20 3.325017 0.000000 0.000000 0.009338 -0.006636 1.264737
21 10.952394 7.862874 -1.474892 -0.003746 0.203348 -4.126390
22 5.562210 0.327350 0.486441 -0.329867 -0.354521 0.774743
23 5.158500 0.000000 0.000000 6.212903 -0.005680 0.432912
24 3.326000 0.000000 0.000000 0.008885 -0.007390 1.407859
25 7.429285 8.918360 1.190963 -0.294454 0.454032 -3.802776
26 1.659054 2.569644 1.216363 -0.165570 -0.422809 1.028669
27 6.028141 0.000000 0.000000 -10.468812 -0.423746 0.195667
28 12.693000 0.000000 0.000000 0.000000 0.000000 0.884033
29 11.598282 0.138266 0.107485 -0.743491 -0.068571 -0.118814
30 5.900461 -0.635063 1.689933 0.424115 -0.106558 0.188975
31 5.248500 0.000000 0.000000 0.000000 0.000000 0.483077
32 3.151000 0.000000 0.000000 -0.000000 0.000000 0.524056
33 14.571267 4.990293 4.483231 0.141090 -0.414472 -5.093827
34 6.189646 -0.664553 0.434985 0.204204 0.029273 0.408383
35 5.511000 0.000000 0.000000 0.000000 0.000000 0.844926
36 3.325017 0.000000 0.000000 -0.000000 0.000000 0.524187
37 11.540494 8.531502 1.492552 0.070663 -0.193942 -4.515566
38 5.928183 -0.249670 -0.698117 0.392699 0.156781 0.512254
39 5.074000 0.000000 0.000000 0.000000 -0.000000 0.816814
40 3.326000 0.000000 0.000000 0.000000 -0.000001 1.115265
41 8.669949 7.679729 0.644595 0.013643 -0.421117 -3.873015
42 8.287275 -1.907898 2.210609 -1.796771 -0.490528 -1.607476
43 0.051795 -3.221541 -2.149793 1.570796 -0.003965 -3.124561
44 -6.164043 1.200615 -0.386343 0.782115 0.252774 -1.951716
45 10.055000 0.000000 0.000000 6.283185 0.000000 2.129783
46 7.521430 1.146345 -0.153238 -0.994292 0.447523 -1.319516
47 10.055000 0.000000 0.000000 0.000000 0.000000 4.462718
48 -6.413662 0.939848 3.041163 1.570796 0.000000 0.000000
49 5.565980 0.980325 3.086309 1.570796 0.000000 0.000000
50 -5.270774 5.541527 2.169929 -1.479426 2.129445 -0.848800
51 12.739398 0.000000 0.000000 0.000000 0.000000 -2.086541
52 3.846880 5.541527 2.169929 1.464867 0.928364 0.941974
53 12.907905 0.000000 0.000000 0.000000 0.000000 -2.188039
54 0.000000 0.000000 0.000000 0.000000 0.000000 0.148648
55 3.890452 -0.000009 -0.000089 -2.019161 -0.827940 -1.557802
56 17.591000 0.000000 0.000000 0.000000 0.000000 0.223331
57 17.699579 0.000000 0.000000 -6.151495 -6.373689 11.831724
58 6.879455 0.000000 0.000000 6.197346 -0.002954 -0.584447
59 -3.890442 -0.000009 -0.000089 1.509757 -0.825841 -1.869967
60 17.591000 0.000000 0.000000 0.000000 0.000000 -1.037328
61 17.699579 0.000000 0.000000 -6.424493 6.668341 1.298820
62 6.879455 0.000000 0.000000 -12.663248 0.003781 0.622900
time 4
1 -1.877362 5.328011 36.159229 1.970591 0.000000 -0.122801
2 0.000005 3.345123 -2.981987 0.000000 0.000000 0.000000
3 0.000000 0.000000 0.000000 0.125414 0.018752 1.753012
4 4.126702 0.000000 0.000000 -0.023948 -0.211376 0.006827
5 3.613000 0.000000 0.000000 0.054592 -0.209628 -0.202508
6 9.184000 0.000000 0.000000 0.071469 -0.192454 -0.024033
7 3.115958 0.000373 0.000000 0.000000 0.000000 0.000000
8 0.000000 0.000000 0.000000 -0.024625 0.925927 -0.034405
9 1.721344 0.000000 0.000000 0.000000 -0.392699 0.015097
10 1.667105 -2.621271 1.204551 0.167879 -0.160052 -1.817357
11 6.028141 0.000000 0.000000 -2.057747 -1.139384 -0.072649
12 12.693000 0.000000 0.000000 0.000000 0.000000 -0.805088
13 11.576000 0.000000 0.000000 -1.403883 0.364407 -0.111656
14 5.591136 0.133427 -1.865050 0.204204 0.169297 -0.060214
15 5.293000 0.000000 0.000000 6.209610 -0.006250 0.809509
16 3.079115 0.000000 0.000000 0.006978 -0.006850 0.667655
17 13.765118 5.451556 -2.095604 0.135231 -0.150933 -4.895883
18 5.739710 0.047597 -0.612883 -0.146203 -0.021738 0.350197
19 5.652500 0.000000 0.000000 6.215440 -0.006072 0.542602
20 3.325017 0.000000 0.000000 0.009338 -0.006636 1.264737
21 10.952394 7.862874 -1.474892 -0.003746 0.203348 -4.126390
22 5.562210 0.327350 0.486441 -0.329867 -0.354521 0.774743
23 5.158500 0.000000 0.000000 6.212903 -0.005680 0.432912
24 3.326000 0.000000 0.000000 0.008885 -0.007390 1.407859
25 7.429285 8.918360 1.190963 -0.294454 0.454032 -3.802776
26 1.659054 2.569644 1.216363 -0.165570 0.194691 1.171324
27 6.028141 0.000000 0.000000 -11.126145 -0.776145 0.644074
28 12.693000 0.000000 0.000000 0.000000 0.000000 0.789687
29 11.598282 0.138266 0.107485 -0.945513 0.178431 0.097058
30 5.900461 -0.635063 1.689933 0.424115 -0.106558 0.188975
31 5.248500 0.000000 0.000000 0.000000 0.000000 0.483077
32 3.151000 0.000000 0.000000 -0.000000 0.000000 0.524056
33 14.571267 4.990293 4.483231 0.141090 -0.414472 -5.093827
34 6.189646 -0.664553 0.434985 0.204204 0.029273 0.408383
35 5.511000 0.000000 0.000000 0.000000 0.000000 0.844926
36 3.325017 0.000000 0.000000 -0.000000 0.000000 0.524187
37 11.540494 8.531502 1.492552 0.070663 -0.193942 -4.515566
38 5.928183 -0.249670 -0.698117 0.392699 0.156781 0.512254
39 5.074000 0.000000 0.000000 0.000000 -0.000000 0.816814
40 3.326000 0.000000 0.000000 0.000000 -0.000001 1.115265
41 8.669949 7.679729 0.644595 0.013643 -0.421117 -3.873015
42 8.287275 -1.907898 2.210609 -1.796771 -0.490528 -1.607476
43 0.051795 -3.221541 -2.149793 1.570796 -0.003965 -3.124561
44 -6.164043 1.200615 -0.386343 0.781458 0.255811 -1.939557
45 10.055000 0.000000 0.000000 6.283185 0.000000 2.087565
46 7.521430 1.146345 -0.153238 -0.966141 0.359649 -1.258470
47 10.055000 0.000000 0.000000 0.000000 0.000000 4.485999
48 -6.413662 0.939848 3.041163 1.570796 0.000000 0.000000
49 5.565980 0.980325 3.086309 1.570796 0.000000 0.000000
50 -5.270774 5.541527 2.169929 -1.485977 2.148853 -0.856751
51 12.739398 0.000000 0.000000 0.000000 0.000000 -2.078542
52 3.846880 5.541527 2.169929 1.482756 0.936071 0.963334
53 12.907905 0.000000 0.000000 0.000000 0.000000 -2.143656
54 0.000000 0.000000 0.000000 0.000000 0.000000 0.148648
55 3.890452 -0.000009 -0.000089 -1.989323 -0.939195 -1.510022
56 17.591000 0.000000 0.000000 0.000000 0.000000 0.394927
57 17.699579 0.000000 0.000000 -6.241826 -6.389294 11.769568
58 6.879455 0.000000 0.000000 6.197346 -0.002954 -0.584447
59 -3.890442 -0.000009 -0.000089 1.479765 -0.758265 -1.872428
60 17.591000 0.000000 0.000000 0.000000 0.000000 -0.962237
61 17.699579 0.000000 0.000000 -6.329239 6.668826 1.471818
62 6.879455 0.000000 0.000000 -12.663248 0.003781 0.622900
time 5
1 -2.050733 4.536973 35.004841 1.968021 0.000000 -0.121738
2 0.000005 3.345123 -2.981987 0.000000 0.000000 0.000000
3 0.000000 0.000000 0.000000 0.125414 -0.085763 1.753012
4 4.126702 0.000000 0.000000 -0.017841 -0.178171 0.006827
5 3.613000 0.000000 0.000000 0.119603 -0.114155 -0.202508
6 9.184000 0.000000 0.000000 0.119738 -0.114451 -0.024033
7 3.115958 0.000373 0.000000 0.000000 0.000000 0.000000
8 0.000000 0.000000 0.000000 -0.024625 0.925927 -0.034405
9 1.721344 0.000000 0.000000 0.000000 -0.392699 0.015097
10 1.667105 -2.621271 1.204551 0.167879 -0.160052 -1.817357
11 6.028141 0.000000 0.000000 -1.902906 -1.190302 0.275087
12 12.693000 0.000000 0.000000 0.000000 0.000000 -0.725306
13 11.576000 0.000000 0.000000 -1.927742 0.160291 -0.352371
14 5.591136 0.133427 -1.865050 0.204204 0.169297 -0.060214
15 5.293000 0.000000 0.000000 6.209610 -0.006250 0.809509
16 3.079115 0.000000 0.000000 0.006978 -0.006850 0.667655
17 13.765118 5.451556 -2.095604 0.135231 -0.150933 -4.895883
18 5.739710 0.047597 -0.612883 -0.146203 -0.021738 0.350197
19 5.652500 0.000000 0.000000 6.215440 -0.006072 0.542602
20 3.325017 0.000000 0.000000 0.009338 -0.006636 1.264737
21 10.952394 7.862874 -1.474892 -0.003746 0.203348 -4.126390
22 5.562210 0.327350 0.486441 -0.329867 -0.354521 0.774743
23 5.158500 0.000000 0.000000 6.212903 -0.005680 0.432912
24 3.326000 0.000000 0.000000 0.008885 -0.007390 1.407859
25 7.429285 8.918360 1.190963 -0.294454 0.454032 -3.802776
26 1.659054 2.569644 1.216363 -0.165570 0.563138 1.296067
27 6.028141 0.000000 0.000000 -11.206490 -0.809147 0.731513
28 12.693000 0.000000 0.000000 0.000000 0.000000 0.854350
29 11.598282 0.138266 0.107485 -1.210791 0.688273 0.133631
30 5.900461 -0.635063 1.689933 0.424115 -0.106558 0.188975
31 5.248500 0.000000 0.000000 0.000000 0.000000 0.483077
32 3.151000 0.000000 0.000000 -0.000000 0.000000 0.524056
33 14.571267 4.990293 4.483231 0.141090 -0.414472 -5.093827
34 6.189646 -0.664553 0.434985 0.204204 0.029273 0.408383
35 5.511000 0.000000 0.000000 0.000000 0.000000 0.844926
36 3.325017 0.000000 0.000000 -0.000000 0.000000 0.524187
37 11.540494 8.531502 1.492552 0.070663 -0.193942 -4.515566
38 5.928183 -0.249670 -0.698117 0.392699 0.156781 0.512254
39 5.074000 0.000000 0.000000 0.000000 -0.000000 0.816814
40 3.326000 0.000000 0.000000 0.000000 -0.000001 1.115265
41 8.669949 7.679729 0.644595 0.013643 -0.421117 -3.873015
42 8.287275 -1.907898 2.210609 -1.796771 -0.490528 -1.607476
43 0.051795 -3.221541 -2.149793 1.570796 -0.003965 -3.124561
44 -6.164043 1.200615 -0.386343 0.779204 0.265751 -1.927496
45 10.055000 0.000000 0.000000 6.283185 0.000000 2.066015
46 7.521430 1.146345 -0.153238 -0.949127 0.303654 -1.220753
47 10.055000 0.000000 0.000000 0.000000 0.000000 4.498321
48 -6.413662 0.939848 3.041163 1.570796 0.000000 0.000000
49 5.565980 0.980325 3.086309 1.570796 0.000000 0.000000
50 -5.270774 5.541527 2.169929 -1.485717 2.163528 -0.856366
51 12.739398 0.000000 0.000000 0.000000 0.000000 -2.076875
52 3.846880 5.541527 2.169929 1.489720 0.949626 0.971607
53 12.907905 0.000000 0.000000 0.000000 0.000000 -2.115286
54 0.000000 0.000000 0.000000 0.000000 0.000000 0.148648
55 3.890452 -0.000009 -0.000089 -1.909293 -1.071146 -1.460510
56 17.591000 0.000000 0.000000 0.000000 0.000000 0.682374
57 17.699579 0.000000 0.000000 -6.318633 -6.474036 11.644249
58 6.879455 0.000000 0.000000 6.197346 -0.002954 -0.584447
59 -3.890442 -0.000009 -0.000089 1.398713 -0.659083 -1.848632
60 17.591000 0.000000 0.000000 0.000000 0.000000 -0.854308
61 17.699579 0.000000 0.000000 -6.228313 6.603995 1.656637
62 6.879455 0.000000 0.000000 -12.663248 0.003781 0.622900
time 6
1 -2.313319 3.194146 33.598637 1.965451 0.000000 -0.120675
2 0.000005 3.345123 -2.981987 0.000000 0.000000 0.000000
3 0.000000 0.000000 0.000000 0.125414 -0.215220 1.753012
4 4.126702 0.000000 0.000000 -0.028576 -0.164119 0.006827
5 3.613000 0.000000 0.000000 0.187409 -0.034430 -0.202508
6 9.184000 0.000000 0.000000 0.174007 -0.044384 -0.024033
7 3.115958 0.000373 0.000000 0.000000 0.000000 0.000000
8 0.000000 0.000000 0.000000 -0.024625 0.925927 -0.034405
9 1.721344 0.000000 0.000000 0.000000 -0.392699 0.015097
10 1.667105 -2.621271 1.204551 0.167879 -0.160052 -1.817357
11 6.028141 0.000000 0.000000 -1.604224 -1.225341 0.347474
12 12.693000 0.000000 0.000000 0.000000 0.000000 -0.823451
13 11.576000 0.000000 0.000000 -2.132626 -0.090374 -0.356358
14 5.591136 0.133427 -1.865050 0.204204 0.169297 -0.060214
15 5.293000 0.000000 0.000000 6.209610 -0.006250 0.809509
16 3.079115 0.000000 0.000000 0.006978 -0.006850 0.667655
17 13.765118 5.451556 -2.095604 0.135231 -0.150933 -4.895883
18 5.739710 0.047597 -0.612883 -0.146203 -0.021738 0.350197
19 5.652500 0.000000 0.000000 6.215440 -0.006072 0.542602
20 3.325017 0.000000 0.000000 0.009338 -0.006636 1.264737
21 10.952394 7.862874 -1.474892 -0.003746 0.203348 -4.126390
22 5.562210 0.327350 0.486441 -0.329867 -0.354521 0.774743
23 5.158500 0.000000 0.000000 6.212903 -0.005680 0.432912
24 3.326000 0.000000 0.000000 0.008885 -0.007390 1.407859
25 7.429285 8.918360 1.190963 -0.294454 0.454032 -3.802776
26 1.659054 2.569644 1.216363 -0.165570 0.512115 1.367943
27 6.028141 0.000000 0.000000 -11.084445 -0.316853 0.624555
28 12.693000 0.000000 0.000000 0.000000 0.000000 1.310807
29 11.598282 0.138266 0.107485 -1.385439 1.024152 0.018578
30 5.900461 -0.635063 1.689933 0.424115 -0.106558 0.188975
31 5.248500 0.000000 0.000000 0.000000 0.000000 0.483077
32 3.151000 0.000000 0.000000 -0.000000 0.000000 0.524056
33 14.571267 4.990293 4.483231 0.141090 -0.414472 -5.093827
34 6.189646 -0.664553 0.434985 0.204204 0.029273 0.408383
35 5.511000 0.000000 0.000000 0.000000 0.000000 0.844926
36 3.325017 0.000000 0.000000 -0.000000 0.000000 0.524187
37 11.540494 8.531502 1.492552 0.070663 -0.193942 -4.515566
38 5.928183 -0.249670 -0.698117 0.392699 0.156781 0.512254
39 5.074000 0.000000 0.000000 0.000000 -0.000000 0.816814
40 3.326000 0.000000 0.000000 0.000000 -0.000001 1.115265
41 8.669949 7.679729 0.644595 0.013643 -0.421117 -3.873015
42 8.287275 -1.907898 2.210609 -1.796771 -0.490528 -1.607476
43 0.051795 -3.221541 -2.149793 1.570796 -0.003965 -3.124561
44 -6.164043 1.200615 -0.386343 0.776855 0.276850 -1.914221
45 10.055000 0.000000 0.000000 6.283185 0.000000 2.046602
46 7.521430 1.146345 -0.153238 -0.933843 0.248304 -1.186878
47 10.055000 0.000000 0.000000 0.000000 0.000000 4.510432
48 -6.413662 0.939848 3.041163 1.570796 0.000000 0.000000
49 5.565980 0.980325 3.086309 1.570796 0.000000 0.000000
50 -5.270774 5.541527 2.169929 -1.485980 2.178629 -0.856649
51 12.739398 0.000000 0.000000 0.000000 0.000000 -2.076797
52 3.846880 5.541527 2.169929 1.496892 0.965434 0.980146
53 12.907905 0.000000 0.000000 0.000000 0.000000 -2.088170
54 0.000000 0.000000 0.000000 0.000000 0.000000 0.148648
55 3.890452 -0.000009 -0.000089 -1.775196 -1.176164 -1.477917
56 17.591000 0.000000 0.000000 0.000000 0.000000 0.935208
57 17.699579 0.000000 0.000000 -6.365616 -6.583315 11.550275
58 6.879455 0.000000 0.000000 6.197346 -0.002954 -0.584447
59 -3.890442 -0.000009 -0.000089 1.283908 -0.693304 -1.778618
60 17.591000 0.000000 0.000000 0.000000 0.000000 -1.048637
61 17.699579 0.000000 0.000000 -6.215952 6.523651 1.775424
62 6.879455 0.000000 0.000000 -12.663248 0.003781 0.622900
time 7
1 -2.594645 1.815297 32.366753 1.963749 0.000000 -0.119970
2 0.000005 3.345123 -2.981987 0.000000 0.000000 0.000000
3 0.000000 0.000000 0.000000 0.125414 -0.336967 1.753012
4 4.126702 0.000000 0.000000 -0.044754 -0.164048 0.006827
5 3.613000 0.000000 0.000000 0.239953 0.017957 -0.202508
6 9.184000 0.000000 0.000000 0.216276 0.007448 -0.024033
7 3.115958 0.000373 0.000000 0.000000 0.000000 0.000000
8 0.000000 0.000000 0.000000 -0.024625 0.925927 -0.034405
9 1.721344 0.000000 0.000000 0.000000 -0.392699 0.015097
10 1.667105 -2.621271 1.204551 0.167879 -0.160052 -1.817357
11 6.028141 0.000000 0.000000 -1.288255 -1.215898 0.347043
12 12.693000 0.000000 0.000000 0.000000 0.000000 -0.922332
13 11.576000 0.000000 0.000000 -2.191756 -0.323433 -0.359307
14 5.591136 0.133427 -1.865050 0.204204 0.169297 -0.060214
15 5.293000 0.000000 0.000000 6.209610 -0.006250 0.809509
16 3.079115 0.000000 0.000000 0.006978 -0.006850 0.667655
17 13.765118 5.451556 -2.095604 0.135231 -0.150933 -4.895883
18 5.739710 0.047597 -0.612883 -0.146203 -0.021738 0.350197
19 5.652500 0.000000 0.000000 6.215440 -0.006072 0.542602
20 3.325017 0.000000 0.000000 0.009338 -0.006636 1.264737
21 10.952394 7.862874 -1.474892 -0.003746 0.203348 -4.126390
22 5.562210 0.327350 0.486441 -0.329867 -0.354521 0.774743
23 5.158500 0.000000 0.000000 6.212903 -0.005680 0.432912
24 3.326000 0.000000 0.000000 0.008885 -0.007390 1.407859
25 7.429285 8.918360 1.190963 -0.294454 0.454032 -3.802776
26 1.659054 2.569644 1.216363 -0.165570 0.407139 1.431806
27 6.028141 0.000000 0.000000 -11.159997 0.162331 0.496500
28 12.693000 0.000000 0.000000 0.000000 0.000000 1.484341
29 11.598282 0.138266 0.107485 -1.369985 1.001216 0.279641
30 5.900461 -0.635063 1.689933 0.424115 -0.106558 0.188975
31 5.248500 0.000000 0.000000 0.000000 0.000000 0.483077
32 3.151000 0.000000 0.000000 -0.000000 0.000000 0.524056
33 14.571267 4.990293 4.483231 0.141090 -0.414472 -5.093827
34 6.189646 -0.664553 0.434985 0.204204 0.029273 0.408383
35 5.511000 0.000000 0.000000 0.000000 0.000000 0.844926
36 3.325017 0.000000 0.000000 -0.000000 0.000000 0.524187
37 11.540494 8.531502 1.492552 0.070663 -0.193942 -4.515566
38 5.928183 -0.249670 -0.698117 0.392699 0.156781 0.512254
39 5.074000 0.000000 0.000000 0.000000 -0.000000 0.816814
40 3.326000 0.000000 0.000000 0.000000 -0.000001 1.115265
41 8.669949 7.679729 0.644595 0.013643 -0.421117 -3.873015
42 8.287275 -1.907898 2.210609 -1.796771 -0.490528 -1.607476
43 0.051795 -3.221541 -2.149793 1.570796 -0.003965 -3.124561
44 -6.164043 1.200615 -0.386343 0.775503 0.284084 -1.903822
45 10.055000 0.000000 0.000000 6.283185 0.000000 2.031934
46 7.521430 1.146345 -0.153238 -0.922993 0.205732 -1.163248
47 10.055000 0.000000 0.000000 0.000000 0.000000 4.519980
48 -6.413662 0.939848 3.041163 1.570796 0.000000 0.000000
49 5.565980 0.980325 3.086309 1.570796 0.000000 0.000000
50 -5.270774 5.541527 2.169929 -1.487666 2.190236 -0.858714
51 12.739398 0.000000 0.000000 0.000000 0.000000 -2.077354
52 3.846880 5.541527 2.169929 1.504087 0.977290 0.988740
53 12.907905 0.000000 0.000000 0.000000 0.000000 -2.068371
54 0.000000 0.000000 0.000000 0.000000 0.000000 0.148648
55 3.890452 -0.000009 -0.000089 -1.601088 -1.236926 -1.564579
56 17.591000 0.000000 0.000000 0.000000 0.000000 1.116362
57 17.699579 0.000000 0.000000 -6.397320 -6.687075 11.498064
58 6.879455 0.000000 0.000000 6.197346 -0.002954 -0.584447
59 -3.890442 -0.000009 -0.000089 1.192651 -0.713067 -1.707202
60 17.591000 0.000000 0.000000 0.000000 0.000000 -1.228672
61 17.699579 0.000000 0.000000 -6.227667 6.465691 1.820741
62 6.879455 0.000000 0.000000 -12.663248 0.003781 0.622900
time 8
1 -2.824236 0.916196 31.735313 1.963495 0.000000 -0.119865
2 0.000005 3.345123 -2.981987 0.000000 0.000000 0.000000
3 0.000000 0.000000 0.000000 0.125414 -0.418347 1.753012
4 4.126702 0.000000 0.000000 -0.054978 -0.172788 0.006827
5 3.613000 0.000000 0.000000 0.259181 0.031416 -0.202508
6 9.184000 0.000000 0.000000 0.228548 0.030748 -0.024033
7 3.115958 0.000373 0.000000 0.000000 0.000000 0.000000
8 0.000000 0.000000 0.000000 -0.024625 0.925927 -0.034405
9 1.721344 0.000000 0.000000 0.000000 -0.392699 0.015097
10 1.667105 -2.621271 1.204551 0.167879 -0.160052 -1.817357
11 6.028141 0.000000 0.000000 -1.000999 -1.197188 0.190653
12 12.693000 0.000000 0.000000 0.000000 0.000000 -0.887152
13 11.576000 0.000000 0.000000 -2.102079 -0.397846 -0.435133
14 5.591136 0.133427 -1.865050 0.204204 0.169297 -0.060214
15 5.293000 0.000000 0.000000 6.209610 -0.006250 0.809509
16 3.079115 0.000000 0.000000 0.006978 -0.006850 0.667655
17 13.765118 5.451556 -2.095604 0.135231 -0.150933 -4.895883
18 5.739710 0.047597 -0.612883 -0.146203 -0.021738 0.350197
19 5.652500 0.000000 0.000000 6.215440 -0.006072 0.542602
20 3.325017 0.000000 0.000000 0.009338 -0.006636 1.264737
21 10.952394 7.862874 -1.474892 -0.003746 0.203348 -4.126390
22 5.562210 0.327350 0.486441 -0.329867 -0.354521 0.774743
23 5.158500 0.000000 0.000000 6.212903 -0.005680 0.432912
24 3.326000 0.000000 0.000000 0.008885 -0.007390 1.407859
25 7.429285 8.918360 1.190963 -0.294454 0.454032 -3.802776
26 1.659054 2.569644 1.216363 -0.165570 0.290123 1.491366
27 6.028141 0.000000 0.000000 -11.285358 0.189889 0.385686
28 12.693000 0.000000 0.000000 0.000000 0.000000 1.424127
29 11.598282 0.138266 0.107485 -1.248164 0.720868 0.361323
30 5.900461 -0.635063 1.689933 0.424115 -0.106558 0.188975
31 5.248500 0.000000 0.000000 0.000000 0.000000 0.483077
32 3.151000 0.000000 0.000000 -0.000000 0.000000 0.524056
33 14.571267 4.990293 4.483231 0.141090 -0.414472 -5.093827
34 6.189646 -0.664553 0.434985 0.204204 0.029273 0.408383
35 5.511000 0.000000 0.000000 0.000000 0.000000 0.844926
36 3.325017 0.000000 0.000000 -0.000000 0.000000 0.524187
37 11.540494 8.531502 1.492552 0.070663 -0.193942 -4.515566
38 5.928183 -0.249670 -0.698117 0.392699 0.156781 0.512254
39 5.074000 0.000000 0.000000 0.000000 -0.000000 0.816814
40 3.326000 0.000000 0.000000 0.000000 -0.000001 1.115265
41 8.669949 7.679729 0.644595 0.013643 -0.421117 -3.873015
42 8.287275 -1.907898 2.210609 -1.796771 -0.490528 -1.607476
43 0.051795 -3.221541 -2.149793 1.570796 -0.003965 -3.124561
44 -6.164043 1.200615 -0.386343 0.775708 0.283898 -1.900431
45 10.055000 0.000000 0.000000 6.283185 0.000000 2.025038
46 7.521430 1.146345 -0.153238 -0.918770 0.188820 -1.154126
47 10.055000 0.000000 0.000000 0.000000 0.000000 4.523660
48 -6.413662 0.939848 3.041163 1.570796 0.000000 0.000000
49 5.565980 0.980325 3.086309 1.570796 0.000000 0.000000
50 -5.270774 5.541527 2.169929 -1.489682 2.194489 -0.861201
51 12.739398 0.000000 0.000000 0.000000 0.000000 -2.077329
52 3.846880 5.541527 2.169929 1.508982 0.979636 0.994596
53 12.907905 0.000000 0.000000 0.000000 0.000000 -2.061434
54 0.000000 0.000000 0.000000 0.000000 0.000000 0.148648
55 3.890452 -0.000009 -0.000089 -1.462354 -1.253157 -1.651380
56 17.591000 0.000000 0.000000 0.000000 0.000000 1.202483
57 17.699579 0.000000 0.000000 -6.421211 -6.756026 11.485148
58 6.879455 0.000000 0.000000 6.197346 -0.002954 -0.584447
59 -3.890442 -0.000009 -0.000089 1.171908 -0.713600 -1.680486
60 17.591000 0.000000 0.000000 0.000000 0.000000 -1.314248
61 17.699579 0.000000 0.000000 -6.245996 6.450876 1.831455
62 6.879455 0.000000 0.000000 -12.663248 0.003781 0.622900
time 9
1 -3.009808 0.607033 31.897261 1.963495 0.000000 -0.119865
2 0.000005 3.345123 -2.981987 0.000000 0.000000 0.000000
3 0.000000 0.000000 0.000000 0.125414 -0.452180 1.753012
4 4.126702 0.000000 0.000000 -0.057184 -0.194799 0.006827
5 3.613000 0.000000 0.000000 0.232470 -0.009207 -0.202508
6 9.184000 0.000000 0.000000 0.198459 0.016363 -0.024033
7 3.115958 0.000373 0.000000 0.000000 0.000000 0.000000
8 0.000000 0.000000 0.000000 -0.024625 0.925927 -0.034405
9 1.721344 0.000000 0.000000 0.000000 -0.392699 0.015097
10 1.667105 -2.621271 1.204551 0.167879 -0.160052 -1.817357
11 6.028141 0.000000 0.000000 -1.092822 -1.125621 0.174301
12 12.693000 0.000000 0.000000 0.000000 0.000000 -0.825249
13 11.576000 0.000000 0.000000 -1.976258 -0.246734 -0.497253
14 5.591136 0.133427 -1.865050 0.204204 0.169297 -0.060214
15 5.293000 0.000000 0.000000 6.209610 -0.006250 0.809509
16 3.079115 0.000000 0.000000 0.006978 -0.006850 0.667655
17 13.765118 5.451556 -2.095604 0.135231 -0.150933 -4.895883
18 5.739710 0.047597 -0.612883 -0.146203 -0.021738 0.350197
19 5.652500 0.000000 0.000000 6.215440 -0.006072 0.542602
20 3.325017 0.000000 0.000000 0.009338 -0.006636 1.264737
21 10.952394 7.862874 -1.474892 -0.003746 0.203348 -4.126390
22 5.562210 0.327350 0.486441 -0.329867 -0.354521 0.774743
23 5.158500 0.000000 0.000000 6.212903 -0.005680 0.432912
24 3.326000 0.000000 0.000000 0.008885 -0.007390 1.407859
25 7.429285 8.918360 1.190963 -0.294454 0.454032 -3.802776
26 1.659054 2.569644 1.216363 -0.165570 0.172118 1.546103
27 6.028141 0.000000 0.000000 -11.458481 -0.045232 0.352920
28 12.693000 0.000000 0.000000 0.000000 0.000000 1.164113
29 11.598282 0.138266 0.107485 -1.124249 0.335849 0.443218
30 5.900461 -0.635063 1.689933 0.424115 -0.106558 0.188975
31 5.248500 0.000000 0.000000 0.000000 0.000000 0.483077
32 3.151000 0.000000 0.000000 -0.000000 0.000000 0.524056
33 14.571267 4.990293 4.483231 0.141090 -0.414472 -5.093827
34 6.189646 -0.664553 0.434985 0.204204 0.029273 0.408383
35 5.511000 0.000000 0.000000 0.000000 0.000000 0.844926
36 3.325017 0.000000 0.000000 -0.000000 0.000000 0.524187
37 11.540494 8.531502 1.492552 0.070663 -0.193942 -4.515566
38 5.928183 -0.249670 -0.698117 0.392699 0.156781 0.512254
39 5.074000 0.000000 0.000000 0.000000 -0.000000 0.816814
40 3.326000 0.000000 0.000000 0.000000 -0.000001 1.115265
41 8.669949 7.679729 0.644595 0.013643 -0.421117 -3.873015
42 8.287275 -1.907898 2.210609 -1.796771 -0.490528 -1.607476
43 0.051795 -3.221541 -2.149793 1.570796 -0.003965 -3.124561
44 -6.164043 1.200615 -0.386343 0.777815 0.274125 -1.906797
45 10.055000 0.000000 0.000000 6.283185 0.000000 2.028389
46 7.521430 1.146345 -0.153238 -0.923164 0.207395 -1.163359
47 10.055000 0.000000 0.000000 0.000000 0.000000 4.519111
48 -6.413662 0.939848 3.041163 1.570796 0.000000 0.000000
49 5.565980 0.980325 3.086309 1.570796 0.000000 0.000000
50 -5.270774 5.541527 2.169929 -1.491240 2.188578 -0.863128
51 12.739398 0.000000 0.000000 0.000000 0.000000 -2.075991
52 3.846880 5.541527 2.169929 1.509801 0.968959 0.995587
53 12.907905 0.000000 0.000000 0.000000 0.000000 -2.071432
54 0.000000 0.000000 0.000000 0.000000 0.000000 0.148648
55 3.890452 -0.000009 -0.000089 -1.472767 -1.235915 -1.637617
56 17.591000 0.000000 0.000000 0.000000 0.000000 1.193333
57 17.699579 0.000000 0.000000 -6.417973 -6.760390 11.482382
58 6.879455 0.000000 0.000000 6.197346 -0.002954 -0.584447
59 -3.890442 -0.000009 -0.000089 1.159165 -0.731401 -1.656630
60 17.591000 0.000000 0.000000 0.000000 0.000000 -1.341391
61 17.699579 0.000000 0.000000 -6.256304 6.444515 1.815326
62 6.879455 0.000000 0.000000 -12.663248 0.003781 0.622900
time 10
1 -3.191682 0.574515 32.557018 1.963495 0.000000 -0.119865
2 0.000005 3.345123 -2.981987 0.000000 0.000000 0.000000
3 0.000000 0.000000 0.000000 0.125414 -0.460100 1.753012
4 4.126702 0.000000 0.000000 -0.057460 -0.230773 0.006827
5 3.613000 0.000000 0.000000 0.173761 -0.091803 -0.202508
6 9.184000 0.000000 0.000000 0.139327 -0.026040 -0.024033
7 3.115958 0.000373 0.000000 0.000000 0.000000 0.000000
8 0.000000 0.000000 0.000000 -0.024625 0.925927 -0.034405
9 1.721344 0.000000 0.000000 0.000000 -0.392699 0.015097
10 1.667105 -2.621271 1.204551 0.167879 -0.160052 -1.817357
11 6.028141 0.000000 0.000000 -1.552298 -0.992427 0.327948
12 12.693000 0.000000 0.000000 0.000000 0.000000 -0.958332
13 11.576000 0.000000 0.000000 -1.853856 0.081641 -0.351132
14 5.591136 0.133427 -1.865050 0.204204 0.169297 -0.060214
15 5.293000 0.000000 0.000000 6.209610 -0.006250 0.809509
16 3.079115 0.000000 0.000000 0.006978 -0.006850 0.667655
17 13.765118 5.451556 -2.095604 0.135231 -0.150933 -4.895883
18 5.739710 0.047597 -0.612883 -0.146203 -0.021738 0.350197
19 5.652500 0.000000 0.000000 6.215440 -0.006072 0.542602
20 3.325017 0.000000 0.000000 0.009338 -0.006636 1.264737
21 10.952394 7.862874 -1.474892 -0.003746 0.203348 -4.126390
22 5.562210 0.327350 0.486441 -0.329867 -0.354521 0.774743
23 5.158500 0.000000 0.000000 6.212903 -0.005680 0.432912
24 3.326000 0.000000 0.000000 0.008885 -0.007390 1.407859
25 7.429285 8.918360 1.190963 -0.294454 0.454032 -3.802776
26 1.659054 2.569644 1.216363 -0.165570 0.066537 1.592086
27 6.028141 0.000000 0.000000 -11.480284 -0.378333 0.345130
28 12.693000 0.000000 0.000000 0.000000 0.000000 0.695347
29 11.598282 0.138266 0.107485 -0.977018 0.082541 0.641730
30 5.900461 -0.635063 1.689933 0.424115 -0.106558 0.188975
31 5.248500 0.000000 0.000000 0.000000 0.000000 0.483077
32 3.151000 0.000000 0.000000 -0.000000 0.000000 0.524056
33 14.571267 4.990293 4.483231 0.141090 -0.414472 -5.093827
34 6.189646 -0.664553 0.434985 0.204204 0.029273 0.408383
35 5.511000 0.000000 0.000000 0.000000 0.000000 0.844926
36 3.325017 0.000000 0.000000 -0.000000 0.000000 0.524187
37 11.540494 8.531502 1.492552 0.070663 -0.193942 -4.515566
38 5.928183 -0.249670 -0.698117 0.392699 0.156781 0.512254
39 5.074000 0.000000 0.000000 0.000000 -0.000000 0.816814
40 3.326000 0.000000 0.000000 0.000000 -0.000001 1.115265
41 8.669949 7.679729 0.644595 0.013643 -0.421117 -3.873015
42 8.287275 -1.907898 2.210609 -1.796771 -0.490528 -1.607476
43 0.051795 -3.221541 -2.149793 1.570796 -0.003965 -3.124561
44 -6.164043 1.200615 -0.386343 0.781555 0.256922 -1.919628
45 10.055000 0.000000 0.000000 6.283185 0.000000 2.038744
46 7.521430 1.146345 -0.153238 -0.934348 0.250843 -1.187866
47 10.055000 0.000000 0.000000 0.000000 0.000000 4.509565
48 -6.413662 0.939848 3.041163 1.570796 0.000000 0.000000
49 5.565980 0.980325 3.086309 1.570796 0.000000 0.000000
50 -5.270774 5.541527 2.169929 -1.494015 2.175498 -0.866574
51 12.739398 0.000000 0.000000 0.000000 0.000000 -2.074062
52 3.846880 5.541527 2.169929 1.509422 0.949200 0.995177
53 12.907905 0.000000 0.000000 0.000000 0.000000 -2.093649
54 0.000000 0.000000 0.000000 0.000000 0.000000 0.148648
55 3.890452 -0.000009 -0.000089 -1.612928 -1.195874 -1.537609
56 17.591000 0.000000 0.000000 0.000000 0.000000 1.126803
57 17.699579 0.000000 0.000000 -6.363472 -6.730419 11.483636
58 6.879455 0.000000 0.000000 6.197346 -0.002954 -0.584447
59 -3.890442 -0.000009 -0.000089 1.126032 -0.804387 -1.608201
60 17.591000 0.000000 0.000000 0.000000 0.000000 -1.345697
61 17.699579 0.000000 0.000000 -6.254466 6.443072 1.756942
62 6.879455 0.000000 0.000000 -12.663248 0.003781 0.622900
time 11
1 -3.348292 0.699187 33.407936 1.963495 0.000000 -0.119865
2 0.000005 3.345123 -2.981987 0.000000 0.000000 0.000000
3 0.000000 0.000000 0.000000 0.125414 -0.452675 1.753012
4 4.126702 0.000000 0.000000 -0.056633 -0.269878 0.006827
5 3.613000 0.000000 0.000000 0.104845 -0.187075 -0.202508
6 9.184000 0.000000 0.000000 0.071678 -0.078529 -0.024033
7 3.115958 0.000373 0.000000 0.000000 0.000000 0.000000
8 0.000000 0.000000 0.000000 -0.024625 0.925927 -0.034405
9 1.721344 0.000000 0.000000 0.000000 -0.392699 0.015097
10 1.667105 -2.621271 1.204551 0.167879 -0.160052 -1.817357
11 6.028141 0.000000 0.000000 -1.979308 -0.895042 0.412028
12 12.693000 0.000000 0.000000 0.000000 0.000000 -1.150846
13 11.576000 0.000000 0.000000 -1.677364 0.397505 -0.037736
14 5.591136 0.133427 -1.865050 0.204204 0.169297 -0.060214
15 5.293000 0.000000 0.000000 6.209610 -0.006250 0.809509
16 3.079115 0.000000 0.000000 0.006978 -0.006850 0.667655
17 13.765118 5.451556 -2.095604 0.135231 -0.150933 -4.895883
18 5.739710 0.047597 -0.612883 -0.146203 -0.021738 0.350197
19 5.652500 0.000000 0.000000 6.215440 -0.006072 0.542602
20 3.325017 0.000000 0.000000 0.009338 -0.006636 1.264737
21 10.952394 7.862874 -1.474892 -0.003746 0.203348 -4.126390
22 5.562210 0.327350 0.486441 -0.329867 -0.354521 0.774743
23 5.158500 0.000000 0.000000 6.212903 -0.005680 0.432912
24 3.326000 0.000000 0.000000 0.008885 -0.007390 1.407859
25 7.429285 8.918360 1.190963 -0.294454 0.454032 -3.802776
26 1.659054 2.569644 1.216363 -0.165570 0.036625 1.604596
27 6.028141 0.000000 0.000000 -11.313416 -0.600263 0.159541
28 12.693000 0.000000 0.000000 0.000000 0.000000 0.679344
29 11.598282 0.138266 0.107485 -0.791122 -0.005938 0.522599
30 5.900461 -0.635063 1.689933 0.424115 -0.106558 0.188975
31 5.248500 0.000000 0.000000 0.000000 0.000000 0.483077
32 3.151000 0.000000 0.000000 -0.000000 0.000000 0.524056
33 14.571267 4.990293 4.483231 0.141090 -0.414472 -5.093827
34 6.189646 -0.664553 0.434985 0.204204 0.029273 0.408383
35 5.511000 0.000000 0.000000 0.000000 0.000000 0.844926
36 3.325017 0.000000 0.000000 -0.000000 0.000000 0.524187
37 11.540494 8.531502 1.492552 0.070663 -0.193942 -4.515566
38 5.928183 -0.249670 -0.698117 0.392699 0.156781 0.512254
39 5.074000 0.000000 0.000000 0.000000 -0.000000 0.816814
40 3.326000 0.000000 0.000000 0.000000 -0.000001 1.115265
41 8.669949 7.679729 0.644595 0.013643 -0.421117 -3.873015
42 8.287275 -1.907898 2.210609 -1.796771 -0.490528 -1.607476
43 0.051795 -3.221541 -2.149793 1.570796 -0.003965 -3.124561
44 -6.164043 1.200615 -0.386343 0.786389 0.235655 -1.933964
45 10.055000 0.000000 0.000000 6.283185 0.000000 2.050666
46 7.521430 1.146345 -0.153238 -0.948920 0.301280 -1.220532
47 10.055000 0.000000 0.000000 0.000000 0.000000 4.499635
48 -6.413662 0.939848 3.041163 1.570796 0.000000 0.000000
49 5.565980 0.980325 3.086309 1.570796 0.000000 0.000000
50 -5.270774 5.541527 2.169929 -1.499928 2.160293 -0.873909
51 12.739398 0.000000 0.000000 0.000000 0.000000 -2.072504
52 3.846880 5.541527 2.169929 1.511507 0.926322 0.997755
53 12.907905 0.000000 0.000000 0.000000 0.000000 -2.120269
54 0.000000 0.000000 0.000000 0.000000 0.000000 0.148648
55 3.890452 -0.000009 -0.000089 -1.775060 -1.139277 -1.439147
56 17.591000 0.000000 0.000000 0.000000 0.000000 1.031269
57 17.699579 0.000000 0.000000 -6.284916 -6.685265 11.495385
58 6.879455 0.000000 0.000000 6.197346 -0.002954 -0.584447
59 -3.890442 -0.000009 -0.000089 1.103934 -0.856304 -1.582996
60 17.591000 0.000000 0.000000 0.000000 0.000000 -1.229897
61 17.699579 0.000000 0.000000 -6.236655 6.446307 1.659236
62 6.879455 0.000000 0.000000 -12.663248 0.003781 0.622900
time 12
1 -3.458072 0.861591 34.143364 1.963495 0.000000 -0.119865
2 0.000005 3.345123 -2.981987 0.000000 0.000000 0.000000
3 0.000000 0.000000 0.000000 0.125414 -0.440471 1.753012
4 4.126702 0.000000 0.000000 -0.055530 -0.301284 0.006827
5 3.613000 0.000000 0.000000 0.047515 -0.265724 -0.202508
6 9.184000 0.000000 0.000000 0.016037 -0.123173 -0.024033
7 3.115958 0.000373 0.000000 0.000000 0.000000 0.000000
8 0.000000 0.000000 0.000000 -0.024625 0.925927 -0.034405
9 1.721344 0.000000 0.000000 0.000000 -0.392699 0.015097
10 1.667105 -2.621271 1.204551 0.167879 -0.160052 -1.817357
11 6.028141 0.000000 0.000000 -2.303389 -0.882367 0.477274
12 12.693000 0.000000 0.000000 0.000000 0.000000 -1.249282
13 11.576000 0.000000 0.000000 -1.443315 0.575954 0.279591
14 5.591136 0.133427 -1.865050 0.204204 0.169297 -0.060214
15 5.293000 0.000000 0.000000 6.209610 -0.006250 0.809509
16 3.079115 0.000000 0.000000 0.006978 -0.006850 0.667655
17 13.765118 5.451556 -2.095604 0.135231 -0.150933 -4.895883
18 5.739710 0.047597 -0.612883 -0.146203 -0.021738 0.350197
19 5.652500 0.000000 0.000000 6.215440 -0.006072 0.542602
20 3.325017 0.000000 0.000000 0.009338 -0.006636 1.264737
21 10.952394 7.862874 -1.474892 -0.003746 0.203348 -4.126390
22 5.562210 0.327350 0.486441 -0.329867 -0.354521 0.774743
23 5.158500 0.000000 0.000000 6.212903 -0.005680 0.432912
24 3.326000 0.000000 0.000000 0.008885 -0.007390 1.407859
25 7.429285 8.918360 1.190963 -0.294454 0.454032 -3.802776
26 1.659054 2.569644 1.216363 -0.165570 0.036625 1.604596
27 6.028141 0.000000 0.000000 -11.015479 -0.708859 -0.094826
28 12.693000 0.000000 0.000000 0.000000 0.000000 0.933189
29 11.598282 0.138266 0.107485 -0.651230 0.030575 0.191429
30 5.900461 -0.635063 1.689933 0.424115 -0.106558 0.188975
31 5.248500 0.000000 0.000000 0.000000 0.000000 0.483077
32 3.151000 0.000000 0.000000 -0.000000 0.000000 0.524056
33 14.571267 4.990293 4.483231 0.141090 -0.414472 -5.093827
34 6.189646 -0.664553 0.434985 0.204204 0.029273 0.408383
35 5.511000 0.000000 0.000000 0.000000 0.000000 0.844926
36 3.325017 0.000000 0.000000 -0.000000 0.000000 0.524187
37 11.540494 8.531502 1.492552 0.070663 -0.193942 -4.515566
38 5.928183 -0.249670 -0.698117 0.392699 0.156781 0.512254
39 5.074000 0.000000 0.000000 0.000000 -0.000000 0.816814
40 3.326000 0.000000 0.000000 0.000000 -0.000001 1.115265
41 8.669949 7.679729 0.644595 0.013643 -0.421117 -3.873015
42 8.287275 -1.907898 2.210609 -1.796771 -0.490528 -1.607476
43 0.051795 -3.221541 -2.149793 1.570796 -0.003965 -3.124561
44 -6.164043 1.200615 -0.386343 0.790898 0.216351 -1.945336
45 10.055000 0.000000 0.000000 6.283185 0.000000 2.059855
46 7.521430 1.146345 -0.153238 -0.962376 0.342167 -1.250734
47 10.055000 0.000000 0.000000 0.000000 0.000000 4.492505
48 -6.413662 0.939848 3.041163 1.570796 0.000000 0.000000
49 5.565980 0.980325 3.086309 1.570796 0.000000 0.000000
50 -5.270774 5.541527 2.169929 -1.507506 2.147901 -0.883296
51 12.739398 0.000000 0.000000 0.000000 0.000000 -2.071747
52 3.846880 5.541527 2.169929 1.515819 0.907132 1.002997
53 12.907905 0.000000 0.000000 0.000000 0.000000 -2.142806
54 0.000000 0.000000 0.000000 0.000000 0.000000 0.148648
55 3.890452 -0.000009 -0.000089 -1.802946 -1.090881 -1.432823
56 17.591000 0.000000 0.000000 0.000000 0.000000 0.940259
57 17.699579 0.000000 0.000000 -6.261885 -6.670604 11.530888
58 6.879455 0.000000 0.000000 6.197346 -0.002954 -0.584447
59 -3.890442 -0.000009 -0.000089 1.109602 -0.854358 -1.594208
60 17.591000 0.000000 0.000000 0.000000 0.000000 -1.076220
61 17.699579 0.000000 0.000000 -6.221477 6.447190 1.573176
62 6.879455 0.000000 0.000000 -12.663248 0.003781 0.622900
time 13
1 -3.499458 0.942272 34.456650 1.963495 0.000000 -0.119865
2 0.000005 3.345123 -2.981987 0.000000 0.000000 0.000000
3 0.000000 0.000000 0.000000 0.125414 -0.434055 1.753012
4 4.126702 0.000000 0.000000 -0.054978 -0.314159 0.006827
5 3.613000 0.000000 0.000000 0.023562 -0.298451 -0.202508
6 9.184000 0.000000 0.000000 -0.007071 -0.142039 -0.024033
7 3.115958 0.000373 0.000000 0.000000 0.000000 0.000000
8 0.000000 0.000000 0.000000 -0.024625 0.925927 -0.034405
9 1.721344 0.000000 0.000000 0.000000 -0.392699 0.015097
10 1.667105 -2.621271 1.204551 0.167879 -0.160052 -1.817357
11 6.028141 0.000000 0.000000 -2.406041 -0.857868 0.513757
12 12.693000 0.000000 0.000000 0.000000 0.000000 -1.260846
13 11.576000 0.000000 0.000000 -1.373183 0.602075 0.350723
14 5.591136 0.133427 -1.865050 0.204204 0.169297 -0.060214
15 5.293000 0.000000 0.000000 6.209610 -0.006250 0.809509
16 3.079115 0.000000 0.000000 0.006978 -0.006850 0.667655
17 13.765118 5.451556 -2.095604 0.135231 -0.150933 -4.895883
18 5.739710 0.047597 -0.612883 -0.146203 -0.021738 0.350197
19 5.652500 0.000000 0.000000 6.215440 -0.006072 0.542602
20 3.325017 0.000000 0.000000 0.009338 -0.006636 1.264737
21 10.952394 7.862874 -1.474892 -0.003746 0.203348 -4.126390
22 5.562210 0.327350 0.486441 -0.329867 -0.354521 0.774743
23 5.158500 0.000000 0.000000 6.212903 -0.005680 0.432912
24 3.326000 0.000000 0.000000 0.008885 -0.007390 1.407859
25 7.429285 8.918360 1.190963 -0.294454 0.454032 -3.802776
26 1.659054 2.569644 1.216363 -0.165570 0.036625 1.604596
27 6.028141 0.000000 0.000000 -10.902109 -0.747770 -0.183090
28 12.693000 0.000000 0.000000 0.000000 0.000000 0.973791
29 11.598282 0.138266 0.107485 -0.630719 0.044388 0.130970
30 5.900461 -0.635063 1.689933 0.424115 -0.106558 0.188975
31 5.248500 0.000000 0.000000 0.000000 0.000000 0.483077
32 3.151000 0.000000 0.000000 -0.000000 0.000000 0.524056
33 14.571267 4.990293 4.483231 0.141090 -0.414472 -5.093827
34 6.189646 -0.664553 0.434985 0.204204 0.029273 0.408383
35 5.511000 0.000000 0.000000 0.000000 0.000000 0.844926
36 3.325017 0.000000 0.000000 -0.000000 0.000000 0.524187
37 11.540494 8.531502 1.492552 0.070663 -0.193942 -4.515566
38 5.928183 -0.249670 -0.698117 0.392699 0.156781 0.512254
39 5.074000 0.000000 0.000000 0.000000 -0.000000 0.816814
40 3.326000 0.000000 0.000000 0.000000 -0.000001 1.115265
41 8.669949 7.679729 0.644595 0.013643 -0.421117 -3.873015
42 8.287275 -1.907898 2.210609 -1.796771 -0.490528 -1.607476
43 0.051795 -3.221541 -2.149793 1.570796 -0.003965 -3.124561
44 -6.164043 1.200615 -0.386343 0.792908 0.207810 -1.949927
45 10.055000 0.000000 0.000000 6.283185 0.000000 2.063454
46 7.521430 1.146345 -0.153238 -0.968409 0.358892 -1.264174
47 10.055000 0.000000 0.000000 0.000000 0.000000 4.489839
48 -6.413662 0.939848 3.041163 1.570796 0.000000 0.000000
49 5.565980 0.980325 3.086309 1.570796 0.000000 0.000000
50 -5.270774 5.541527 2.169929 -1.511439 2.142822 -0.888162
51 12.739398 0.000000 0.000000 0.000000 0.000000 -2.071581
52 3.846880 5.541527 2.169929 1.518333 0.899067 1.006039
53 12.907905 0.000000 0.000000 0.000000 0.000000 -2.152311
54 0.000000 0.000000 0.000000 0.000000 0.000000 0.148648
55 3.890452 -0.000009 -0.000089 -1.794183 -1.070448 -1.442449
56 17.591000 0.000000 0.000000 0.000000 0.000000 0.898618
57 17.699579 0.000000 0.000000 -6.262197 -6.670434 11.551718
58 6.879455 0.000000 0.000000 6.197346 -0.002954 -0.584447
59 -3.890442 -0.000009 -0.000089 1.116227 -0.842548 -1.603054
60 17.591000 0.000000 0.000000 0.000000 0.000000 -1.024926
61 17.699579 0.000000 0.000000 -6.219776 6.446625 1.545354
62 6.879455 0.000000 0.000000 -12.663248 0.003781 0.622900
end
