version 1
nodes
0 "ValveBiped.ZombiePoison_Mesh" -1
1 "ValveBiped.Bip01" -1
2 "ValveBiped.Spine" 1
3 "ValveBiped.Bip01_Spine" 2
4 "ValveBiped.Bip01_Spine1" 3
5 "ValveBiped.Bip01_Spine2" 4
6 "ValveBiped.Bip01_Spine4" 5
7 "ValveBiped.Neck1" 6
8 "ValveBiped.Bip01_Neck1" 7
9 "ValveBiped.Bip01_Head1" 8
10 "ValveBiped.Bip01_L_Clavicle" 6
11 "ValveBiped.Bip01_L_UpperArm" 10
12 "ValveBiped.Bip01_L_Forearm" 11
13 "ValveBiped.Bip01_L_Hand" 12
14 "ValveBiped.Bip01_L_Finger1" 13
15 "ValveBiped.Bip01_L_Finger11" 14
16 "ValveBiped.Bip01_L_Finger12" 15
17 "ValveBiped.eff3" 13
18 "ValveBiped.Bip01_L_Finger2" 13
19 "ValveBiped.Bip01_L_Finger21" 18
20 "ValveBiped.Bip01_L_Finger22" 19
21 "ValveBiped.eff4" 13
22 "ValveBiped.Bip01_L_Finger3" 13
23 "ValveBiped.Bip01_L_Finger31" 22
24 "ValveBiped.Bip01_L_Finger32" 23
25 "ValveBiped.eff2" 13
26 "ValveBiped.Bip01_R_Clavicle" 6
27 "ValveBiped.Bip01_R_UpperArm" 26
28 "ValveBiped.Bip01_R_Forearm" 27
29 "ValveBiped.Bip01_R_Hand" 28
30 "ValveBiped.Bip01_R_Finger1" 29
31 "ValveBiped.Bip01_R_Finger11" 30
32 "ValveBiped.Bip01_R_Finger12" 31
33 "ValveBiped.eff5" 29
34 "ValveBiped.Bip01_R_Finger2" 29
35 "ValveBiped.Bip01_R_Finger21" 34
36 "ValveBiped.Bip01_R_Finger22" 35
37 "ValveBiped.eff6" 29
38 "ValveBiped.Bip01_R_Finger3" 29
39 "ValveBiped.Bip01_R_Finger31" 38
40 "ValveBiped.Bip01_R_Finger32" 39
41 "ValveBiped.eff7" 29
42 "ValveBiped.Bip01_Pelvis" 1
43 "ValveBiped.Bip01_L_Thigh" 42
44 "ValveBiped.Bip01_L_Calf" 43
45 "ValveBiped.Bip01_L_Foot" 44
46 "ValveBiped.Bip01_L_Toe0" 45
47 "ValveBiped.Bip01_R_Thigh" 42
48 "ValveBiped.Bip01_R_Calf" 47
49 "ValveBiped.Bip01_R_Foot" 48
50 "ValveBiped.Bip01_R_Toe0" 49
51 "ValveBiped.HeadcrabBG_01" -1
52 "ValveBiped.Headcrab_Cube1" 9
53 "ValveBiped.heacrab_black2" -1
54 "ValveBiped.Headcrab_Cube3" 3
55 "ValveBiped.Headcrab_Cube4" 5
56 "ValveBiped.Headcrab_Cube2" 5
57 "ValveBiped.heacrab_black1" -1
58 "ValveBiped.heacrab_black" -1
59 "ValveBiped.heacrab_black3" -1
60 "ValveBiped.HC5_Bodybox" 5
61 "ValveBiped.HCB_hipsFront" 60
62 "ValveBiped.bone" 61
63 "ValveBiped.bone1" 62
64 "ValveBiped.bone2" 63
65 "ValveBiped.bone3" 61
66 "ValveBiped.bone4" 65
67 "ValveBiped.bone5" 66
68 "ValveBiped.HCB_hipsFront01" 60
69 "ValveBiped.bone8" 68
70 "ValveBiped.bone9" 69
71 "ValveBiped.bone6" 68
72 "ValveBiped.bone7" 71
end
skeleton
time 0
0 0.000000 0.000000 0.000000 1.570796 0.000000 0.000000
1 -3.729753 -34.590012 32.968063 2.218750 0.000000 -0.119865
2 0.000005 3.345123 -2.981987 0.000000 0.000000 0.000000
3 0.000000 0.000000 0.000000 0.248041 0.041657 1.395536
4 4.126702 0.000000 0.000000 0.052594 -0.344554 0.026462
5 3.613000 0.000000 0.000000 0.051946 -0.415343 -0.073882
6 9.184000 0.000000 0.000000 0.012564 -0.408625 0.015237
7 3.115958 0.000373 0.000000 0.000000 0.000000 0.000000
8 0.000000 0.000000 0.000000 -0.024625 0.925927 -0.034405
9 1.721344 0.000000 0.000000 0.000000 -0.392699 0.015097
10 1.667105 -2.621271 1.204551 0.167878 -0.324986 -1.385388
11 6.028141 0.000000 0.000000 -64.260163 -0.196253 56.223792
12 12.693000 0.000000 0.000000 0.000000 0.000000 -1.200846
13 11.576000 0.000000 0.000000 -1.816136 -0.299931 0.339941
14 5.591136 0.133427 -1.865050 0.204204 0.483456 0.301069
15 5.293000 0.000000 0.000000 6.209610 -0.006250 0.809509
16 3.079115 0.000000 0.000000 0.006978 -0.006850 0.667655
17 10.923156 7.862633 -4.506746 0.448731 -0.105630 1.708142
18 5.739710 0.047597 -0.612883 -0.146203 -0.021738 0.711480
19 5.652500 0.000000 0.000000 6.215440 -0.006072 0.542602
20 3.325017 0.000000 0.000000 0.009338 -0.006636 1.264737
21 7.853379 9.200903 -1.474892 -0.003746 0.203348 2.518078
22 5.562210 0.327350 0.486441 -0.329867 -0.354521 1.136026
23 5.158500 0.000000 0.000000 6.212903 -0.005680 0.432912
24 3.326000 0.000000 0.000000 0.008885 -0.007390 1.407859
25 4.272048 9.023724 1.190963 -0.294454 0.454032 2.841693
26 1.659054 2.569644 1.216363 -0.165570 0.036625 1.604596
27 6.028141 0.000000 0.000000 -7.410813 -2.558547 4.116402
28 12.693000 0.000000 0.000000 0.000000 0.000000 1.524839
29 11.598282 0.138266 0.107485 -2.654914 0.632991 -0.779649
30 5.900461 -0.635063 1.689933 0.424115 -0.106558 0.188975
31 5.248500 0.000000 0.000000 0.000000 0.000000 0.483077
32 3.151000 0.000000 0.000000 -0.000000 0.000000 0.524056
33 14.571267 4.990293 4.483231 0.141090 -0.414472 1.189359
34 6.189646 -0.664553 0.434985 0.204204 0.029273 0.408383
35 5.511000 0.000000 0.000000 0.000000 0.000000 0.844926
36 3.325017 0.000000 0.000000 -0.000000 0.000000 0.524187
37 11.540494 8.531502 1.492552 0.070663 -0.193942 1.767619
38 5.928183 -0.249670 -0.698117 0.392699 0.156781 0.512254
39 5.074000 0.000000 0.000000 0.000000 -0.000000 0.816814
40 3.326000 0.000000 0.000000 0.000000 -0.000001 1.115265
41 8.669949 7.679729 0.644595 0.013643 -0.421117 2.410171
42 0.000000 0.000000 0.000000 0.000000 0.343804 -0.115197
43 3.890452 -0.000009 -0.000089 -1.331664 0.017379 -1.445434
44 17.591000 0.000000 0.000000 0.000000 0.000000 0.150385
45 17.699579 0.000000 0.000000 -6.109378 -6.491766 11.394831
46 6.879455 0.000000 0.000000 6.197720 -0.007917 -0.643143
47 -3.890442 -0.000009 -0.000089 -1.381688 -1.833059 1.125064
48 17.591000 0.000000 0.000000 0.000000 0.000000 -1.257874
49 17.699579 0.000000 0.000000 -6.368949 6.664741 1.501880
50 6.879455 0.000000 0.000000 -12.663248 0.003781 0.622900
51 0.000000 0.000000 0.000000 1.570796 0.000000 0.000000
52 11.166704 -0.891752 1.987625 -0.816016 -0.202941 -1.717977
53 -3.606493 0.942271 36.701271 1.570796 0.000000 0.000000
54 4.476237 -4.602235 -8.890666 -0.785154 -0.513087 -1.919879
55 7.314485 7.202918 -8.935232 -1.414995 0.615676 -0.826123
56 11.230071 -12.016311 -8.142632 -1.015841 -0.301373 -2.181507
57 -3.606493 0.942271 36.701271 1.570796 0.000000 0.000000
58 -3.606493 0.942271 36.701271 1.570796 0.000000 0.000000
59 28.675329 -0.394760 10.933533 1.570796 0.000000 0.000000
60 2.899380 -1.943127 -8.267844 -1.802387 -0.125818 -1.314910
61 -0.002712 -0.820693 3.883316 -1.570796 0.000000 0.000000
62 4.068215 0.218490 -2.249109 3.141593 0.000000 0.029248
63 3.090772 0.000000 0.000000 1.496983 -0.357675 1.300602
64 10.185577 0.000000 0.000000 0.000000 0.000000 1.834794
65 -4.068000 0.218490 -2.249109 -1.569520 -3.097978 -0.029274
66 3.090993 0.000000 0.000000 -0.677876 1.192125 -0.742966
67 10.185578 0.000000 0.000000 0.000000 0.000000 -2.008862
68 -0.002712 0.339841 -5.552244 -1.570796 0.000000 0.000000
69 -3.889107 -2.343820 -0.389694 1.049346 0.513378 1.803393
70 14.659637 0.000000 0.000000 0.000000 0.000000 -2.308115
71 3.889000 -2.344069 0.000000 1.426305 0.636364 1.001478
72 14.678965 0.000000 0.000000 0.000000 0.000000 -2.196750
time 1
1 -3.489811 -38.278782 33.438011 2.225488 0.000000 -0.119865
2 0.000005 3.345123 -2.981987 0.000000 0.000000 0.000000
3 0.000000 0.000000 0.000000 0.248041 -0.019844 1.414556
4 4.126702 0.000000 0.000000 0.019645 -0.335558 0.026462
5 3.613000 0.000000 0.000000 0.051946 -0.441434 -0.073882
6 9.184000 0.000000 0.000000 0.012564 -0.434716 0.015237
7 3.115958 0.000373 0.000000 0.000000 0.000000 0.000000
8 0.000000 0.000000 0.000000 -0.024625 0.925927 -0.034405
9 1.721344 0.000000 0.000000 0.000000 -0.392699 0.015097
10 1.667105 -2.621271 1.204551 0.167878 -0.324986 -1.385388
11 6.028141 0.000000 0.000000 -64.493448 -0.297878 56.177222
12 12.693000 0.000000 0.000000 0.000000 0.000000 -1.117405
13 11.576000 0.000000 0.000000 -1.666617 -0.224828 0.261058
14 5.591136 0.133427 -1.865050 0.204204 0.483456 0.301069
15 5.293000 0.000000 0.000000 6.209610 -0.006250 0.809509
16 3.079115 0.000000 0.000000 0.006978 -0.006850 0.667655
17 10.923156 7.862633 -4.506746 0.448731 -0.105630 1.708142
18 5.739710 0.047597 -0.612883 -0.146203 -0.021738 0.711480
19 5.652500 0.000000 0.000000 6.215440 -0.006072 0.542602
20 3.325017 0.000000 0.000000 0.009338 -0.006636 1.264737
21 7.853379 9.200903 -1.474892 -0.003746 0.203348 2.518078
22 5.562210 0.327350 0.486441 -0.329867 -0.354521 1.136026
23 5.158500 0.000000 0.000000 6.212903 -0.005680 0.432912
24 3.326000 0.000000 0.000000 0.008885 -0.007390 1.407859
25 4.272048 9.023724 1.190963 -0.294454 0.454032 2.841693
26 1.659054 2.569644 1.216363 -0.165570 0.036625 1.604596
27 6.028141 0.000000 0.000000 -7.194502 -2.363704 4.077490
28 12.693000 0.000000 0.000000 0.000000 0.000000 1.350580
29 11.598282 0.138266 0.107485 -2.785245 0.667769 -0.801472
30 5.900461 -0.635063 1.689933 0.424115 -0.106558 0.188975
31 5.248500 0.000000 0.000000 0.000000 0.000000 0.483077
32 3.151000 0.000000 0.000000 -0.000000 0.000000 0.524056
33 14.571267 4.990293 4.483231 0.141090 -0.414472 1.189359
34 6.189646 -0.664553 0.434985 0.204204 0.029273 0.408383
35 5.511000 0.000000 0.000000 0.000000 0.000000 0.844926
36 3.325017 0.000000 0.000000 -0.000000 0.000000 0.524187
37 11.540494 8.531502 1.492552 0.070663 -0.193942 1.767619
38 5.928183 -0.249670 -0.698117 0.392699 0.156781 0.512254
39 5.074000 0.000000 0.000000 0.000000 -0.000000 0.816814
40 3.326000 0.000000 0.000000 0.000000 -0.000001 1.115265
41 8.669949 7.679729 0.644595 0.013643 -0.421117 2.410171
42 0.000000 0.000000 0.000000 0.000000 0.314755 -0.082505
43 3.890452 -0.000009 -0.000089 -1.353783 -0.157329 -1.525224
44 17.591000 0.000000 0.000000 0.000000 0.000000 0.536950
45 17.699579 0.000000 0.000000 -6.134983 -6.424836 11.374004
46 6.879455 0.000000 0.000000 6.197720 -0.007917 -0.643143
47 -3.890442 -0.000009 -0.000089 1.577066 -1.152688 -1.840498
48 17.591000 0.000000 0.000000 0.000000 0.000000 -1.167517
49 17.699579 0.000000 0.000000 -6.364326 6.644726 1.651202
50 6.879455 0.000000 0.000000 -12.663248 0.003781 0.622900
52 11.166704 -0.891752 1.987625 -0.816016 -0.202941 -1.717977
54 3.952862 -4.416409 -8.409475 -0.785154 -0.513087 -1.919879
55 7.777585 7.526563 -8.266583 -1.354635 0.582587 -0.862121
56 11.076571 -12.288995 -7.144846 -0.865529 -0.275699 -2.303158
60 2.899380 -1.943127 -8.267844 -1.802387 -0.125818 -1.314910
61 -0.002712 -0.820693 3.883316 -1.570796 0.000000 0.000000
62 4.068215 0.218490 -2.249109 3.141593 0.000000 0.029248
63 3.090772 0.000000 0.000000 1.496983 -0.357675 1.300602
64 10.185577 0.000000 0.000000 0.000000 0.000000 1.834794
65 -4.068000 0.218490 -2.249109 -1.569520 -3.097978 -0.029274
66 3.090993 0.000000 0.000000 -0.677876 1.192125 -0.742966
67 10.185578 0.000000 0.000000 0.000000 0.000000 -2.008862
68 -0.002712 0.339841 -5.552244 -1.570796 0.000000 0.000000
69 -3.889107 -2.343820 -0.389694 1.049346 0.513378 1.803393
70 14.659637 0.000000 0.000000 0.000000 0.000000 -2.308115
71 3.889000 -2.344069 0.000000 1.426305 0.636364 1.001478
72 14.678965 0.000000 0.000000 0.000000 0.000000 -2.196750
time 2
1 -2.925652 -42.013130 34.381012 2.230770 0.000000 -0.119865
2 0.000005 3.345123 -2.981987 0.000000 0.000000 0.000000
3 0.000000 0.000000 0.000000 0.248041 -0.080082 1.455691
4 4.126702 0.000000 0.000000 -0.027036 -0.331935 0.026462
5 3.613000 0.000000 0.000000 0.051946 -0.477867 -0.073882
6 9.184000 0.000000 0.000000 0.012564 -0.471149 0.015237
7 3.115958 0.000373 0.000000 0.000000 0.000000 0.000000
8 0.000000 0.000000 0.000000 -0.024625 0.925927 -0.034405
9 1.721344 0.000000 0.000000 0.000000 -0.392699 0.015097
10 1.667105 -2.621271 1.204551 0.167878 -0.324986 -1.385388
11 6.028141 0.000000 0.000000 -64.876368 -0.524546 56.123712
12 12.693000 0.000000 0.000000 0.000000 0.000000 -0.946922
13 11.576000 0.000000 0.000000 -1.370153 -0.080183 0.151095
14 5.591136 0.133427 -1.865050 0.204204 0.483456 0.301069
15 5.293000 0.000000 0.000000 6.209610 -0.006250 0.809509
16 3.079115 0.000000 0.000000 0.006978 -0.006850 0.667655
17 10.923156 7.862633 -4.506746 0.448731 -0.105630 1.708142
18 5.739710 0.047597 -0.612883 -0.146203 -0.021738 0.711480
19 5.652500 0.000000 0.000000 6.215440 -0.006072 0.542602
20 3.325017 0.000000 0.000000 0.009338 -0.006636 1.264737
21 7.853379 9.200903 -1.474892 -0.003746 0.203348 2.518078
22 5.562210 0.327350 0.486441 -0.329867 -0.354521 1.136026
23 5.158500 0.000000 0.000000 6.212903 -0.005680 0.432912
24 3.326000 0.000000 0.000000 0.008885 -0.007390 1.407859
25 4.272048 9.023724 1.190963 -0.294454 0.454032 2.841693
26 1.659054 2.569644 1.216363 -0.165570 0.036625 1.604596
27 6.028141 0.000000 0.000000 -6.919270 -2.204589 3.856809
28 12.693000 0.000000 0.000000 0.000000 0.000000 1.139517
29 11.598282 0.138266 0.107485 -2.637319 0.568100 -0.717205
30 5.900461 -0.635063 1.689933 0.424115 -0.106558 0.188975
31 5.248500 0.000000 0.000000 0.000000 0.000000 0.483077
32 3.151000 0.000000 0.000000 -0.000000 0.000000 0.524056
33 14.571267 4.990293 4.483231 0.141090 -0.414472 1.189359
34 6.189646 -0.664553 0.434985 0.204204 0.029273 0.408383
35 5.511000 0.000000 0.000000 0.000000 0.000000 0.844926
36 3.325017 0.000000 0.000000 -0.000000 0.000000 0.524187
37 11.540494 8.531502 1.492552 0.070663 -0.193942 1.767619
38 5.928183 -0.249670 -0.698117 0.392699 0.156781 0.512254
39 5.074000 0.000000 0.000000 0.000000 -0.000000 0.816814
40 3.326000 0.000000 0.000000 0.000000 -0.000001 1.115265
41 8.669949 7.679729 0.644595 0.013643 -0.421117 2.410171
42 0.000000 0.000000 0.000000 0.000000 0.240794 -0.034041
43 3.890452 -0.000009 -0.000089 -1.414826 -0.259018 -1.601730
44 17.591000 0.000000 0.000000 0.000000 0.000000 0.774519
45 17.699579 0.000000 0.000000 -6.105630 -6.309017 11.470294
46 6.879455 0.000000 0.000000 6.197720 -0.007917 -0.643143
47 -3.890442 -0.000009 -0.000089 1.440828 -0.979442 -1.750108
48 17.591000 0.000000 0.000000 0.000000 0.000000 -1.025651
49 17.699579 0.000000 0.000000 -6.362435 6.608695 1.692212
50 6.879455 0.000000 0.000000 -12.663248 0.003781 0.622900
52 10.939325 -0.891752 2.074667 -0.794336 -0.327704 -1.639846
54 2.990566 -4.071373 -7.520438 -0.785154 -0.513087 -1.919879
55 8.596134 8.160436 -6.984833 -1.237553 0.518956 -0.933025
56 10.809585 -12.725626 -5.358723 -0.591554 -0.239777 -2.511140
60 2.899380 -1.943127 -8.267844 -1.802387 -0.125818 -1.314910
61 -0.002712 -0.820693 3.883316 -1.570796 0.000000 0.000000
62 4.068215 0.218490 -2.249109 3.141593 0.000000 0.029248
63 3.090772 0.000000 0.000000 1.496983 -0.357675 1.300602
64 10.185577 0.000000 0.000000 0.000000 0.000000 1.834794
65 -4.068000 0.218490 -2.249109 -1.569520 -3.097978 -0.029274
66 3.090993 0.000000 0.000000 -0.677876 1.192125 -0.742966
67 10.185578 0.000000 0.000000 0.000000 0.000000 -2.008862
68 -0.002712 0.339841 -5.552244 -1.570796 0.000000 0.000000
69 -3.889107 -2.343820 -0.389694 1.049346 0.513378 1.803393
70 14.659637 0.000000 0.000000 0.000000 0.000000 -2.308115
71 3.889000 -2.344069 0.000000 1.426305 0.636364 1.001478
72 14.678965 0.000000 0.000000 0.000000 0.000000 -2.196750
time 3
1 -2.195315 -45.782581 35.517456 2.234721 0.000000 -0.119865
2 0.000005 3.345123 -2.981987 0.000000 0.000000 0.000000
3 0.000000 0.000000 0.000000 0.248041 -0.048632 1.495059
4 4.126702 0.000000 0.000000 -0.067370 -0.353445 0.026462
5 3.613000 0.000000 0.000000 0.051946 -0.499978 -0.073882
6 9.184000 0.000000 0.000000 0.012564 -0.493260 0.015237
7 3.115958 0.000373 0.000000 0.000000 0.000000 0.000000
8 0.000000 0.000000 0.000000 -0.024625 0.925927 -0.034405
9 1.721344 0.000000 0.000000 0.000000 -0.392699 0.015097
10 1.667105 -2.621271 1.204551 0.167878 -0.324986 -1.385388
11 6.028141 0.000000 0.000000 -65.095765 -0.672880 56.074092
12 12.693000 0.000000 0.000000 0.000000 0.000000 -0.854215
13 11.576000 0.000000 0.000000 -1.153966 0.015611 0.110738
14 5.591136 0.133427 -1.865050 0.204204 0.483456 0.301069
15 5.293000 0.000000 0.000000 6.209610 -0.006250 0.809509
16 3.079115 0.000000 0.000000 0.006978 -0.006850 0.667655
17 10.923156 7.862633 -4.506746 0.448731 -0.105630 1.708142
18 5.739710 0.047597 -0.612883 -0.146203 -0.021738 0.711480
19 5.652500 0.000000 0.000000 6.215440 -0.006072 0.542602
20 3.325017 0.000000 0.000000 0.009338 -0.006636 1.264737
21 7.853379 9.200903 -1.474892 -0.003746 0.203348 2.518078
22 5.562210 0.327350 0.486441 -0.329867 -0.354521 1.136026
23 5.158500 0.000000 0.000000 6.212903 -0.005680 0.432912
24 3.326000 0.000000 0.000000 0.008885 -0.007390 1.407859
25 4.272048 9.023724 1.190963 -0.294454 0.454032 2.841693
26 1.659054 2.569644 1.216363 -0.165570 0.036625 1.604596
27 6.028141 0.000000 0.000000 -6.863750 -2.216246 3.763133
28 12.693000 0.000000 0.000000 0.000000 0.000000 1.075337
29 11.598282 0.138266 0.107485 -2.398606 0.404538 -0.642089
30 5.900461 -0.635063 1.689933 0.424115 -0.106558 0.188975
31 5.248500 0.000000 0.000000 0.000000 0.000000 0.483077
32 3.151000 0.000000 0.000000 -0.000000 0.000000 0.524056
33 14.571267 4.990293 4.483231 0.141090 -0.414472 1.189359
34 6.189646 -0.664553 0.434985 0.204204 0.029273 0.408383
35 5.511000 0.000000 0.000000 0.000000 0.000000 0.844926
36 3.325017 0.000000 0.000000 -0.000000 0.000000 0.524187
37 11.540494 8.531502 1.492552 0.070663 -0.193942 1.767619
38 5.928183 -0.249670 -0.698117 0.392699 0.156781 0.512254
39 5.074000 0.000000 0.000000 0.000000 -0.000000 0.816814
40 3.326000 0.000000 0.000000 0.000000 -0.000001 1.115265
41 8.669949 7.679729 0.644595 0.013643 -0.421117 2.410171
42 0.000000 0.000000 0.000000 0.000000 0.137172 0.014253
43 3.890452 -0.000009 -0.000089 -1.507083 -0.359277 -1.659695
44 17.591000 0.000000 0.000000 0.000000 0.000000 0.968411
45 17.699579 0.000000 0.000000 -6.061242 -6.241458 11.476589
46 6.879455 0.000000 0.000000 6.197720 -0.007917 -0.643143
47 -3.890442 -0.000009 -0.000089 1.337345 -0.795605 -1.723094
48 17.591000 0.000000 0.000000 0.000000 0.000000 -0.822924
49 17.699579 0.000000 0.000000 -6.367548 6.582504 1.646672
50 6.879455 0.000000 0.000000 -12.663248 0.003781 0.622900
52 10.767426 -0.891752 2.014386 -0.776746 -0.418925 -1.560897
54 2.501090 -3.885784 -7.055354 -0.785154 -0.513087 -1.919879
55 9.193902 8.784266 -6.085389 -1.159740 0.478231 -0.983203
56 10.693717 -12.836296 -4.477604 -0.446428 -0.242469 -2.593841
60 2.899380 -1.943127 -8.267844 -1.802387 -0.125818 -1.314910
61 -0.002712 -0.820693 3.883316 -1.570796 0.000000 0.000000
62 4.068215 0.218490 -2.249109 3.141593 0.000000 0.029248
63 3.090772 0.000000 0.000000 1.496983 -0.357675 1.300602
64 10.185577 0.000000 0.000000 0.000000 0.000000 1.834794
65 -4.068000 0.218490 -2.249109 -1.569520 -3.097978 -0.029274
66 3.090993 0.000000 0.000000 -0.677876 1.192125 -0.742966
67 10.185578 0.000000 0.000000 0.000000 0.000000 -2.008862
68 -0.002712 0.339841 -5.552244 -1.570796 0.000000 0.000000
69 -3.889107 -2.343820 -0.389694 1.049346 0.513378 1.803393
70 14.659637 0.000000 0.000000 0.000000 0.000000 -2.308115
71 3.889000 -2.344069 0.000000 1.426305 0.636364 1.001478
72 14.678965 0.000000 0.000000 0.000000 0.000000 -2.196750
time 4
1 -1.393481 -49.579945 36.567738 2.237467 0.000000 -0.119865
2 0.000005 3.345123 -2.981987 0.000000 0.000000 0.000000
3 0.000000 0.000000 0.000000 0.248041 0.010994 1.520998
4 4.126702 0.000000 0.000000 -0.079451 -0.382535 0.026462
5 3.613000 0.000000 0.000000 0.051946 -0.517388 -0.073882
6 9.184000 0.000000 0.000000 0.012564 -0.510670 0.015237
7 3.115958 0.000373 0.000000 0.000000 0.000000 0.000000
8 0.000000 0.000000 0.000000 -0.024625 0.925927 -0.034405
9 1.721344 0.000000 0.000000 0.000000 -0.392699 0.015097
10 1.667105 -2.621271 1.204551 0.167878 -0.324986 -1.385388
11 6.028141 0.000000 0.000000 -65.072602 -0.673550 56.015520
12 12.693000 0.000000 0.000000 0.000000 0.000000 -0.931835
13 11.576000 0.000000 0.000000 -1.133122 0.012578 0.148095
14 5.591136 0.133427 -1.865050 0.204204 0.483456 0.301069
15 5.293000 0.000000 0.000000 6.209610 -0.006250 0.809509
16 3.079115 0.000000 0.000000 0.006978 -0.006850 0.667655
17 10.923156 7.862633 -4.506746 0.448731 -0.105630 1.708142
18 5.739710 0.047597 -0.612883 -0.146203 -0.021738 0.711480
19 5.652500 0.000000 0.000000 6.215440 -0.006072 0.542602
20 3.325017 0.000000 0.000000 0.009338 -0.006636 1.264737
21 7.853379 9.200903 -1.474892 -0.003746 0.203348 2.518078
22 5.562210 0.327350 0.486441 -0.329867 -0.354521 1.136026
23 5.158500 0.000000 0.000000 6.212903 -0.005680 0.432912
24 3.326000 0.000000 0.000000 0.008885 -0.007390 1.407859
25 4.272048 9.023724 1.190963 -0.294454 0.454032 2.841693
26 1.659054 2.569644 1.216363 -0.165570 0.036625 1.604596
27 6.028141 0.000000 0.000000 -6.898877 -2.265306 3.738395
28 12.693000 0.000000 0.000000 0.000000 0.000000 1.077427
29 11.598282 0.138266 0.107485 -2.320070 0.298539 -0.616136
30 5.900461 -0.635063 1.689933 0.424115 -0.106558 0.188975
31 5.248500 0.000000 0.000000 0.000000 0.000000 0.483077
32 3.151000 0.000000 0.000000 -0.000000 0.000000 0.524056
33 14.571267 4.990293 4.483231 0.141090 -0.414472 1.189359
34 6.189646 -0.664553 0.434985 0.204204 0.029273 0.408383
35 5.511000 0.000000 0.000000 0.000000 0.000000 0.844926
36 3.325017 0.000000 0.000000 -0.000000 0.000000 0.524187
37 11.540494 8.531502 1.492552 0.070663 -0.193942 1.767619
38 5.928183 -0.249670 -0.698117 0.392699 0.156781 0.512254
39 5.074000 0.000000 0.000000 0.000000 -0.000000 0.816814
40 3.326000 0.000000 0.000000 0.000000 -0.000001 1.115265
41 8.669949 7.679729 0.644595 0.013643 -0.421117 2.410171
42 0.000000 0.000000 0.000000 0.000000 0.015857 0.048223
43 3.890452 -0.000009 -0.000089 -1.625032 -0.476311 -1.674233
44 17.591000 0.000000 0.000000 0.000000 0.000000 1.139798
45 17.699579 0.000000 0.000000 -6.066785 -6.207833 11.354893
46 6.879455 0.000000 0.000000 6.197720 -0.007917 -0.643143
47 -3.890442 -0.000009 -0.000089 1.254649 -0.600530 -1.739712
48 17.591000 0.000000 0.000000 0.000000 0.000000 -0.545362
49 17.699579 0.000000 0.000000 -6.388318 6.579125 1.517413
50 6.879455 0.000000 0.000000 -12.663248 0.003781 0.622900
52 10.766315 -0.891752 1.650962 -0.773337 -0.406176 -1.497243
54 2.792438 -3.956123 -7.264534 -0.743663 -0.508307 -1.919879
55 9.341522 9.352551 -5.981524 -1.135096 0.468137 -1.004570
56 10.907156 -12.408566 -5.028074 -0.420287 -0.275043 -2.557280
60 2.899380 -1.943127 -8.267844 -1.802387 -0.125818 -1.314910
61 -0.002712 -0.820693 3.883316 -1.570796 0.000000 0.000000
62 4.068215 0.218490 -2.249109 3.141593 0.000000 0.029248
63 3.090772 0.000000 0.000000 1.496983 -0.357675 1.300602
64 10.185577 0.000000 0.000000 0.000000 0.000000 1.834794
65 -4.068000 0.218490 -2.249109 -1.569520 -3.097978 -0.029274
66 3.090993 0.000000 0.000000 -0.677876 1.192125 -0.742966
67 10.185578 0.000000 0.000000 0.000000 0.000000 -2.008862
68 -0.002712 0.339841 -5.552244 -1.570796 0.000000 0.000000
69 -3.889107 -2.343820 -0.389694 1.049346 0.513378 1.803393
70 14.659637 0.000000 0.000000 0.000000 0.000000 -2.308115
71 3.889000 -2.344069 0.000000 1.426305 0.636364 1.001478
72 14.678965 0.000000 0.000000 0.000000 0.000000 -2.196750
time 5
1 -0.631643 -53.399990 37.252243 2.239130 0.000000 -0.119865
2 0.000005 3.345123 -2.981987 0.000000 0.000000 0.000000
3 0.000000 0.000000 0.000000 0.248041 0.054287 1.542410
4 4.126702 0.000000 0.000000 -0.092493 -0.398283 0.026462
5 3.613000 0.000000 0.000000 0.051946 -0.518763 -0.073882
6 9.184000 0.000000 0.000000 0.012564 -0.512045 0.015237
7 3.115958 0.000373 0.000000 0.000000 0.000000 0.000000
8 0.000000 0.000000 0.000000 -0.024625 0.925927 -0.034405
9 1.721344 0.000000 0.000000 0.000000 -0.392699 0.015097
10 1.667105 -2.621271 1.204551 0.167878 -0.324986 -1.385388
11 6.028141 0.000000 0.000000 -64.938417 -0.612204 55.940252
12 12.693000 0.000000 0.000000 0.000000 0.000000 -1.063271
13 11.576000 0.000000 0.000000 -1.173103 -0.036713 0.178850
14 5.591136 0.133427 -1.865050 0.204204 0.483456 0.301069
15 5.293000 0.000000 0.000000 6.209610 -0.006250 0.809509
16 3.079115 0.000000 0.000000 0.006978 -0.006850 0.667655
17 10.923156 7.862633 -4.506746 0.448731 -0.105630 1.708142
18 5.739710 0.047597 -0.612883 -0.146203 -0.021738 0.711480
19 5.652500 0.000000 0.000000 6.215440 -0.006072 0.542602
20 3.325017 0.000000 0.000000 0.009338 -0.006636 1.264737
21 7.853379 9.200903 -1.474892 -0.003746 0.203348 2.518078
22 5.562210 0.327350 0.486441 -0.329867 -0.354521 1.136026
23 5.158500 0.000000 0.000000 6.212903 -0.005680 0.432912
24 3.326000 0.000000 0.000000 0.008885 -0.007390 1.407859
25 4.272048 9.023724 1.190963 -0.294454 0.454032 2.841693
26 1.659054 2.569644 1.216363 -0.165570 0.036625 1.604596
27 6.028141 0.000000 0.000000 -6.970087 -2.348590 3.728966
28 12.693000 0.000000 0.000000 0.000000 0.000000 1.148323
29 11.598282 0.138266 0.107485 -2.314985 0.325419 -0.624973
30 5.900461 -0.635063 1.689933 0.424115 -0.106558 0.188975
31 5.248500 0.000000 0.000000 0.000000 0.000000 0.483077
32 3.151000 0.000000 0.000000 -0.000000 0.000000 0.524056
33 14.571267 4.990293 4.483231 0.141090 -0.414472 1.189359
34 6.189646 -0.664553 0.434985 0.204204 0.029273 0.408383
35 5.511000 0.000000 0.000000 0.000000 0.000000 0.844926
36 3.325017 0.000000 0.000000 -0.000000 0.000000 0.524187
37 11.540494 8.531502 1.492552 0.070663 -0.193942 1.767619
38 5.928183 -0.249670 -0.698117 0.392699 0.156781 0.512254
39 5.074000 0.000000 0.000000 0.000000 -0.000000 0.816814
40 3.326000 0.000000 0.000000 0.000000 -0.000001 1.115265
41 8.669949 7.679729 0.644595 0.013643 -0.421117 2.410171
42 0.000000 0.000000 0.000000 0.000000 -0.112109 0.060399
43 3.890452 -0.000009 -0.000089 -1.771899 -0.606871 -1.617801
44 17.591000 0.000000 0.000000 0.000000 0.000000 1.286759
45 17.699579 0.000000 0.000000 -6.088741 -6.169051 11.192852
46 6.879455 0.000000 0.000000 6.197720 -0.007917 -0.643143
47 -3.890442 -0.000009 -0.000089 1.172800 -0.466554 -1.761291
48 17.591000 0.000000 0.000000 0.000000 0.000000 -0.307771
49 17.699579 0.000000 0.000000 -6.413519 6.577170 1.332305
50 6.879455 0.000000 0.000000 -12.663248 0.003781 0.622900
52 10.798325 -0.891752 1.181006 -0.772383 -0.367656 -1.423089
54 3.409392 -4.125146 -7.735044 -0.645757 -0.496392 -1.919879
55 9.268360 9.910791 -6.259967 -1.113845 0.460719 -1.025505
56 11.119082 -11.881619 -5.881909 -0.439785 -0.320736 -2.466224
60 2.899380 -1.943127 -8.267844 -1.802387 -0.125818 -1.314910
61 -0.002712 -0.820693 3.883316 -1.570796 0.000000 0.000000
62 4.068215 0.218490 -2.249109 3.141593 0.000000 0.029248
63 3.090772 0.000000 0.000000 1.496983 -0.357675 1.300602
64 10.185577 0.000000 0.000000 0.000000 0.000000 1.834794
65 -4.068000 0.218490 -2.249109 -1.569520 -3.097978 -0.029274
66 3.090993 0.000000 0.000000 -0.677876 1.192125 -0.742966
67 10.185578 0.000000 0.000000 0.000000 0.000000 -2.008862
68 -0.002712 0.339841 -5.552244 -1.570796 0.000000 0.000000
69 -3.889107 -2.343820 -0.389694 1.049346 0.513378 1.803393
70 14.659637 0.000000 0.000000 0.000000 0.000000 -2.308115
71 3.889000 -2.344069 0.000000 1.426305 0.636364 1.001478
72 14.678965 0.000000 0.000000 0.000000 0.000000 -2.196750
time 6
1 0.443324 -57.238758 37.024487 2.239837 0.000000 -0.119865
2 0.000005 3.345123 -2.981987 0.000000 0.000000 0.000000
3 0.000000 0.000000 0.000000 0.248041 0.066002 1.562542
4 4.126702 0.000000 0.000000 -0.092673 -0.388237 0.026462
5 3.613000 0.000000 0.000000 0.051946 -0.489137 -0.073882
6 9.184000 0.000000 0.000000 0.012564 -0.482419 0.015237
7 3.115958 0.000373 0.000000 0.000000 0.000000 0.000000
8 0.000000 0.000000 0.000000 -0.024625 0.925927 -0.034405
9 1.721344 0.000000 0.000000 0.000000 -0.392699 0.015097
10 1.667105 -2.621271 1.204551 0.167878 -0.324986 -1.385388
11 6.028141 0.000000 0.000000 -64.718491 -0.519617 55.864030
12 12.693000 0.000000 0.000000 0.000000 0.000000 -1.200020
13 11.576000 0.000000 0.000000 -1.213470 -0.111555 0.171703
14 5.591136 0.133427 -1.865050 0.204204 0.483456 0.301069
15 5.293000 0.000000 0.000000 6.209610 -0.006250 0.809509
16 3.079115 0.000000 0.000000 0.006978 -0.006850 0.667655
17 10.923156 7.862633 -4.506746 0.448731 -0.105630 1.708142
18 5.739710 0.047597 -0.612883 -0.146203 -0.021738 0.711480
19 5.652500 0.000000 0.000000 6.215440 -0.006072 0.542602
20 3.325017 0.000000 0.000000 0.009338 -0.006636 1.264737
21 7.853379 9.200903 -1.474892 -0.003746 0.203348 2.518078
22 5.562210 0.327350 0.486441 -0.329867 -0.354521 1.136026
23 5.158500 0.000000 0.000000 6.212903 -0.005680 0.432912
24 3.326000 0.000000 0.000000 0.008885 -0.007390 1.407859
25 4.272048 9.023724 1.190963 -0.294454 0.454032 2.841693
26 1.659054 2.569644 1.216363 -0.165570 0.036625 1.604596
27 6.028141 0.000000 0.000000 -7.081691 -2.477967 3.752252
28 12.693000 0.000000 0.000000 0.000000 0.000000 1.246842
29 11.598282 0.138266 0.107485 -2.348363 0.406844 -0.696250
30 5.900461 -0.635063 1.689933 0.424115 -0.106558 0.188975
31 5.248500 0.000000 0.000000 0.000000 0.000000 0.483077
32 3.151000 0.000000 0.000000 -0.000000 0.000000 0.524056
33 14.571267 4.990293 4.483231 0.141090 -0.414472 1.189359
34 6.189646 -0.664553 0.434985 0.204204 0.029273 0.408383
35 5.511000 0.000000 0.000000 0.000000 0.000000 0.844926
36 3.325017 0.000000 0.000000 -0.000000 0.000000 0.524187
37 11.540494 8.531502 1.492552 0.070663 -0.193942 1.767619
38 5.928183 -0.249670 -0.698117 0.392699 0.156781 0.512254
39 5.074000 0.000000 0.000000 0.000000 -0.000000 0.816814
40 3.326000 0.000000 0.000000 0.000000 -0.000001 1.115265
41 8.669949 7.679729 0.644595 0.013643 -0.421117 2.410171
42 0.000000 0.000000 0.000000 0.000000 -0.234424 -0.004306
43 3.890452 -0.000009 -0.000089 -1.948889 -0.733276 -1.430429
44 17.591000 0.000000 0.000000 0.000000 0.000000 1.396792
45 17.699579 0.000000 0.000000 -6.079487 -6.147927 11.022129
46 6.879455 0.000000 0.000000 6.197720 -0.007917 -0.643143
47 -3.890442 -0.000009 -0.000089 1.086813 -0.390835 -1.707997
48 17.591000 0.000000 0.000000 0.000000 0.000000 -0.225886
49 17.699579 0.000000 0.000000 -6.430362 6.571822 1.220007
50 6.879455 0.000000 0.000000 -12.663248 0.003781 0.622900
52 10.850057 -0.891752 0.677816 -0.773064 -0.317682 -1.351662
54 4.118865 -4.330929 -8.303824 -0.531291 -0.480975 -1.919879
55 9.086284 10.275230 -6.676306 -1.096472 0.455911 -1.045073
56 11.125542 -11.491686 -6.508152 -0.484053 -0.375566 -2.353950
60 2.899380 -1.943127 -8.267844 -1.802387 -0.125818 -1.314910
61 -0.002712 -0.820693 3.883316 -1.570796 0.000000 0.000000
62 4.068215 0.218490 -2.249109 3.141593 0.000000 0.029248
63 3.090772 0.000000 0.000000 1.496983 -0.357675 1.300602
64 10.185577 0.000000 0.000000 0.000000 0.000000 1.834794
65 -4.068000 0.218490 -2.249109 -1.569520 -3.097978 -0.029274
66 3.090993 0.000000 0.000000 -0.677876 1.192125 -0.742966
67 10.185578 0.000000 0.000000 0.000000 0.000000 -2.008862
68 -0.002712 0.339841 -5.552244 -1.570796 0.000000 0.000000
69 -3.889107 -2.343820 -0.389694 1.049346 0.513378 1.803393
70 14.659637 0.000000 0.000000 0.000000 0.000000 -2.308115
71 3.889000 -2.344069 0.000000 1.426305 0.636364 1.001478
72 14.678965 0.000000 0.000000 0.000000 0.000000 -2.196750
time 7
1 1.614203 -61.093109 34.452164 2.239713 0.000000 -0.119865
2 0.000005 3.345123 -2.981987 0.000000 0.000000 0.000000
3 0.000000 0.000000 0.000000 0.248041 0.061384 1.577708
4 4.126702 0.000000 0.000000 -0.085344 -0.364849 0.026462
5 3.613000 0.000000 0.000000 0.051946 -0.443475 -0.073882
6 9.184000 0.000000 0.000000 0.012564 -0.436757 0.015237
7 3.115958 0.000373 0.000000 0.000000 0.000000 0.000000
8 0.000000 0.000000 0.000000 -0.024625 0.925927 -0.034405
9 1.721344 0.000000 0.000000 0.000000 -0.392699 0.015097
10 1.667105 -2.621271 1.204551 0.167878 -0.324986 -1.385388
11 6.028141 0.000000 0.000000 -64.501390 -0.426906 55.809468
12 12.693000 0.000000 0.000000 0.000000 0.000000 -1.301177
13 11.576000 0.000000 0.000000 -1.224742 -0.187038 0.133490
14 5.591136 0.133427 -1.865050 0.204204 0.483456 0.301069
15 5.293000 0.000000 0.000000 6.209610 -0.006250 0.809509
16 3.079115 0.000000 0.000000 0.006978 -0.006850 0.667655
17 10.923156 7.862633 -4.506746 0.448731 -0.105630 1.708142
18 5.739710 0.047597 -0.612883 -0.146203 -0.021738 0.711480
19 5.652500 0.000000 0.000000 6.215440 -0.006072 0.542602
20 3.325017 0.000000 0.000000 0.009338 -0.006636 1.264737
21 7.853379 9.200903 -1.474892 -0.003746 0.203348 2.518078
22 5.562210 0.327350 0.486441 -0.329867 -0.354521 1.136026
23 5.158500 0.000000 0.000000 6.212903 -0.005680 0.432912
24 3.326000 0.000000 0.000000 0.008885 -0.007390 1.407859
25 4.272048 9.023724 1.190963 -0.294454 0.454032 2.841693
26 1.659054 2.569644 1.216363 -0.165570 0.036625 1.604596
27 6.028141 0.000000 0.000000 -7.218069 -2.618681 3.786506
28 12.693000 0.000000 0.000000 0.000000 0.000000 1.329144
29 11.598282 0.138266 0.107485 -2.410982 0.505887 -0.768722
30 5.900461 -0.635063 1.689933 0.424115 -0.106558 0.188975
31 5.248500 0.000000 0.000000 0.000000 0.000000 0.483077
32 3.151000 0.000000 0.000000 -0.000000 0.000000 0.524056
33 14.571267 4.990293 4.483231 0.141090 -0.414472 1.189359
34 6.189646 -0.664553 0.434985 0.204204 0.029273 0.408383
35 5.511000 0.000000 0.000000 0.000000 0.000000 0.844926
36 3.325017 0.000000 0.000000 -0.000000 0.000000 0.524187
37 11.540494 8.531502 1.492552 0.070663 -0.193942 1.767619
38 5.928183 -0.249670 -0.698117 0.392699 0.156781 0.512254
39 5.074000 0.000000 0.000000 0.000000 -0.000000 0.816814
40 3.326000 0.000000 0.000000 0.000000 -0.000001 1.115265
41 8.669949 7.679729 0.644595 0.013643 -0.421117 2.410171
42 0.000000 0.000000 0.000000 0.000000 -0.334061 -0.044446
43 3.890452 -0.000009 -0.000089 -2.168891 -0.908995 -1.075484
44 17.591000 0.000000 0.000000 0.000000 0.000000 1.363459
45 17.699579 0.000000 0.000000 -6.015915 -6.033851 10.808828
46 6.879455 0.000000 0.000000 6.197720 -0.007917 -0.643143
47 -3.890442 -0.000009 -0.000089 0.994100 -0.357727 -1.652981
48 17.591000 0.000000 0.000000 0.000000 0.000000 -0.444277
49 17.699579 0.000000 0.000000 -6.461053 6.549195 1.368065
50 6.879455 0.000000 0.000000 -12.663248 0.003781 0.622900
52 10.908114 -0.891752 0.214691 -0.774564 -0.270572 -1.296189
54 4.687772 -4.511549 -8.807811 -0.440118 -0.465694 -1.919879
55 8.693643 10.383847 -7.347075 -1.083463 0.453649 -1.062338
56 10.669658 -11.252295 -6.766690 -0.532786 -0.435823 -2.253530
60 2.899380 -1.943127 -8.267844 -1.802387 -0.125818 -1.314910
61 -0.002712 -0.820693 3.883316 -1.570796 0.000000 0.000000
62 4.068215 0.218490 -2.249109 3.141593 0.000000 0.029248
63 3.090772 0.000000 0.000000 1.496983 -0.357675 1.300602
64 10.185577 0.000000 0.000000 0.000000 0.000000 1.834794
65 -4.068000 0.218490 -2.249109 -1.569520 -3.097978 -0.029274
66 3.090993 0.000000 0.000000 -0.677876 1.192125 -0.742966
67 10.185578 0.000000 0.000000 0.000000 0.000000 -2.008862
68 -0.002712 0.339841 -5.552244 -1.570796 0.000000 0.000000
69 -3.889107 -2.343820 -0.389694 1.049346 0.513378 1.803393
70 14.659637 0.000000 0.000000 0.000000 0.000000 -2.308115
71 3.889000 -2.344069 0.000000 1.426305 0.636364 1.001478
72 14.678965 0.000000 0.000000 0.000000 0.000000 -2.196750
time 8
1 2.144112 -64.960487 32.687939 2.238881 0.000000 -0.119865
2 0.000005 3.345123 -2.981987 0.000000 0.000000 0.000000
3 0.000000 0.000000 0.000000 0.248041 0.041657 1.577554
4 4.126702 0.000000 0.000000 -0.067370 -0.344554 0.026462
5 3.613000 0.000000 0.000000 0.051946 -0.415343 -0.073882
6 9.184000 0.000000 0.000000 0.012564 -0.408625 0.015237
7 3.115958 0.000373 0.000000 0.000000 0.000000 0.000000
8 0.000000 0.000000 0.000000 -0.024625 0.925927 -0.034405
9 1.721344 0.000000 0.000000 0.000000 -0.392699 0.015097
10 1.667105 -2.621271 1.204551 0.167878 -0.324986 -1.385388
11 6.028141 0.000000 0.000000 -64.403557 -0.379703 55.798713
12 12.693000 0.000000 0.000000 0.000000 0.000000 -1.343563
13 11.576000 0.000000 0.000000 -1.194225 -0.215593 0.069792
14 5.591136 0.133427 -1.865050 0.204204 0.483456 0.301069
15 5.293000 0.000000 0.000000 6.209610 -0.006250 0.809509
16 3.079115 0.000000 0.000000 0.006978 -0.006850 0.667655
17 10.923156 7.862633 -4.506746 0.448731 -0.105630 1.708142
18 5.739710 0.047597 -0.612883 -0.146203 -0.021738 0.711480
19 5.652500 0.000000 0.000000 6.215440 -0.006072 0.542602
20 3.325017 0.000000 0.000000 0.009338 -0.006636 1.264737
21 7.853379 9.200903 -1.474892 -0.003746 0.203348 2.518078
22 5.562210 0.327350 0.486441 -0.329867 -0.354521 1.136026
23 5.158500 0.000000 0.000000 6.212903 -0.005680 0.432912
24 3.326000 0.000000 0.000000 0.008885 -0.007390 1.407859
25 4.272048 9.023724 1.190963 -0.294454 0.454032 2.841693
26 1.659054 2.569644 1.216363 -0.165570 0.036625 1.604596
27 6.028141 0.000000 0.000000 -7.315521 -2.702916 3.818250
28 12.693000 0.000000 0.000000 0.000000 0.000000 1.384587
29 11.598282 0.138266 0.107485 -2.471626 0.558854 -0.777171
30 5.900461 -0.635063 1.689933 0.424115 -0.106558 0.188975
31 5.248500 0.000000 0.000000 0.000000 0.000000 0.483077
32 3.151000 0.000000 0.000000 -0.000000 0.000000 0.524056
33 14.571267 4.990293 4.483231 0.141090 -0.414472 1.189359
34 6.189646 -0.664553 0.434985 0.204204 0.029273 0.408383
35 5.511000 0.000000 0.000000 0.000000 0.000000 0.844926
36 3.325017 0.000000 0.000000 -0.000000 0.000000 0.524187
37 11.540494 8.531502 1.492552 0.070663 -0.193942 1.767619
38 5.928183 -0.249670 -0.698117 0.392699 0.156781 0.512254
39 5.074000 0.000000 0.000000 0.000000 -0.000000 0.816814
40 3.326000 0.000000 0.000000 0.000000 -0.000001 1.115265
41 8.669949 7.679729 0.644595 0.013643 -0.421117 2.410171
42 0.000000 0.000000 0.000000 0.000000 -0.380419 0.033333
43 3.890452 -0.000009 -0.000089 -2.428879 -1.084469 -0.710282
44 17.591000 0.000000 0.000000 0.000000 0.000000 1.260426
45 17.699579 0.000000 0.000000 -6.045517 -5.936686 10.910423
46 6.879455 0.000000 0.000000 6.197720 -0.007917 -0.643143
47 -3.890442 -0.000009 -0.000089 0.942254 -0.212285 -1.800405
48 17.591000 0.000000 0.000000 0.000000 0.000000 -0.347525
49 17.699579 0.000000 0.000000 -6.494835 6.475110 1.363489
50 6.879455 0.000000 0.000000 -12.663248 0.003781 0.622900
52 10.959104 -0.891752 -0.135071 -0.776064 -0.240642 -1.269895
54 4.883025 -4.605084 -9.083941 -0.412090 -0.454182 -1.919879
55 8.192085 10.298661 -8.155741 -1.075302 0.453866 -1.076364
56 10.029584 -11.542493 -6.433406 -0.564237 -0.497723 -2.201142
60 2.899380 -1.943127 -8.267844 -1.802387 -0.125818 -1.314910
61 -0.002712 -0.820693 3.883316 -1.570796 0.000000 0.000000
62 4.068215 0.218490 -2.249109 3.141593 0.000000 0.029248
63 3.090772 0.000000 0.000000 1.496983 -0.357675 1.300602
64 10.185577 0.000000 0.000000 0.000000 0.000000 1.834794
65 -4.068000 0.218490 -2.249109 -1.569520 -3.097978 -0.029274
66 3.090993 0.000000 0.000000 -0.677876 1.192125 -0.742966
67 10.185578 0.000000 0.000000 0.000000 0.000000 -2.008862
68 -0.002712 0.339841 -5.552244 -1.570796 0.000000 0.000000
69 -3.889107 -2.343820 -0.389694 1.049346 0.513378 1.803393
70 14.659637 0.000000 0.000000 0.000000 0.000000 -2.308115
71 3.889000 -2.344069 0.000000 1.426305 0.636364 1.001478
72 14.678965 0.000000 0.000000 0.000000 0.000000 -2.196750
time 9
1 1.819571 -68.838715 33.047947 2.237467 0.000000 -0.119865
2 0.000005 3.345123 -2.981987 0.000000 0.000000 0.000000
3 0.000000 0.000000 0.000000 0.248041 -0.026562 1.540597
4 4.126702 0.000000 0.000000 -0.012670 -0.332240 0.026462
5 3.613000 0.000000 0.000000 0.051946 -0.439389 -0.073882
6 9.184000 0.000000 0.000000 0.012564 -0.432671 0.015237
7 3.115958 0.000373 0.000000 0.000000 0.000000 0.000000
8 0.000000 0.000000 0.000000 -0.024625 0.925927 -0.034405
9 1.721344 0.000000 0.000000 0.000000 -0.392699 0.015097
10 1.667105 -2.621271 1.204551 0.167878 -0.324986 -1.385388
11 6.028141 0.000000 0.000000 -64.569495 -0.475685 55.872808
12 12.693000 0.000000 0.000000 0.000000 0.000000 -1.272755
13 11.576000 0.000000 0.000000 -1.105194 -0.131198 -0.002460
14 5.591136 0.133427 -1.865050 0.204204 0.483456 0.301069
15 5.293000 0.000000 0.000000 6.209610 -0.006250 0.809509
16 3.079115 0.000000 0.000000 0.006978 -0.006850 0.667655
17 10.923156 7.862633 -4.506746 0.448731 -0.105630 1.708142
18 5.739710 0.047597 -0.612883 -0.146203 -0.021738 0.711480
19 5.652500 0.000000 0.000000 6.215440 -0.006072 0.542602
20 3.325017 0.000000 0.000000 0.009338 -0.006636 1.264737
21 7.853379 9.200903 -1.474892 -0.003746 0.203348 2.518078
22 5.562210 0.327350 0.486441 -0.329867 -0.354521 1.136026
23 5.158500 0.000000 0.000000 6.212903 -0.005680 0.432912
24 3.326000 0.000000 0.000000 0.008885 -0.007390 1.407859
25 4.272048 9.023724 1.190963 -0.294454 0.454032 2.841693
26 1.659054 2.569644 1.216363 -0.165570 0.036625 1.604596
27 6.028141 0.000000 0.000000 -7.221994 -2.614882 3.899033
28 12.693000 0.000000 0.000000 0.000000 0.000000 1.419025
29 11.598282 0.138266 0.107485 -2.616175 0.536768 -0.763133
30 5.900461 -0.635063 1.689933 0.424115 -0.106558 0.188975
31 5.248500 0.000000 0.000000 0.000000 0.000000 0.483077
32 3.151000 0.000000 0.000000 -0.000000 0.000000 0.524056
33 14.571267 4.990293 4.483231 0.141090 -0.414472 1.189359
34 6.189646 -0.664553 0.434985 0.204204 0.029273 0.408383
35 5.511000 0.000000 0.000000 0.000000 0.000000 0.844926
36 3.325017 0.000000 0.000000 -0.000000 0.000000 0.524187
37 11.540494 8.531502 1.492552 0.070663 -0.193942 1.767619
38 5.928183 -0.249670 -0.698117 0.392699 0.156781 0.512254
39 5.074000 0.000000 0.000000 0.000000 -0.000000 0.816814
40 3.326000 0.000000 0.000000 0.000000 -0.000001 1.115265
41 8.669949 7.679729 0.644595 0.013643 -0.421117 2.410171
42 0.000000 0.000000 0.000000 0.000000 -0.349966 0.100788
43 3.890452 -0.000009 -0.000089 -2.188435 -1.100249 -0.937380
44 17.591000 0.000000 0.000000 0.000000 0.000000 1.202358
45 17.699579 0.000000 0.000000 -6.056326 -5.934040 10.924397
46 6.879455 0.000000 0.000000 6.197720 -0.007917 -0.643143
47 -3.890442 -0.000009 -0.000089 0.923032 -0.123924 -1.903138
48 17.591000 0.000000 0.000000 0.000000 0.000000 -0.237447
49 17.699579 0.000000 0.000000 -6.509357 6.403863 1.259863
50 6.879455 0.000000 0.000000 -12.663248 0.003781 0.622900
52 10.989627 -0.891752 -0.298171 -0.776746 -0.242211 -1.286008
54 3.522892 -4.351914 -8.440408 -0.661735 -0.452078 -1.919879
55 7.998427 10.021969 -8.508297 -1.072474 0.456499 -1.086217
56 9.423308 -12.599524 -5.358654 -0.558238 -0.591534 -2.266411
60 2.899380 -1.943127 -8.267844 -1.802387 -0.125818 -1.314910
61 -0.002712 -0.820693 3.883316 -1.570796 0.000000 0.000000
62 4.068215 0.218490 -2.249109 3.141593 0.000000 0.029248
63 3.090772 0.000000 0.000000 1.496983 -0.357675 1.300602
64 10.185577 0.000000 0.000000 0.000000 0.000000 1.834794
65 -4.068000 0.218490 -2.249109 -1.569520 -3.097978 -0.029274
66 3.090993 0.000000 0.000000 -0.677876 1.192125 -0.742966
67 10.185578 0.000000 0.000000 0.000000 0.000000 -2.008862
68 -0.002712 0.339841 -5.552244 -1.570796 0.000000 0.000000
69 -3.889107 -2.343820 -0.389694 1.049346 0.513378 1.803393
70 14.659637 0.000000 0.000000 0.000000 0.000000 -2.308115
71 3.889000 -2.344069 0.000000 1.426305 0.636364 1.001478
72 14.678965 0.000000 0.000000 0.000000 0.000000 -2.196750
time 10
1 1.222805 -72.725891 33.932732 2.235595 0.000000 -0.119865
2 0.000005 3.345123 -2.981987 0.000000 0.000000 0.000000
3 0.000000 0.000000 0.000000 0.248041 -0.080082 1.497087
4 4.126702 0.000000 0.000000 0.042561 -0.331935 0.026462
5 3.613000 0.000000 0.000000 0.051946 -0.477867 -0.073882
6 9.184000 0.000000 0.000000 0.012564 -0.471149 0.015237
7 3.115958 0.000373 0.000000 0.000000 0.000000 0.000000
8 0.000000 0.000000 0.000000 -0.024625 0.925927 -0.034405
9 1.721344 0.000000 0.000000 0.000000 -0.392699 0.015097
10 1.667105 -2.621271 1.204551 0.167878 -0.324986 -1.385388
11 6.028141 0.000000 0.000000 -64.853524 -0.640235 56.010108
12 12.693000 0.000000 0.000000 0.000000 0.000000 -1.094559
13 11.576000 0.000000 0.000000 -1.023308 -0.023673 -0.016953
14 5.591136 0.133427 -1.865050 0.204204 0.483456 0.301069
15 5.293000 0.000000 0.000000 6.209610 -0.006250 0.809509
16 3.079115 0.000000 0.000000 0.006978 -0.006850 0.667655
17 10.923156 7.862633 -4.506746 0.448731 -0.105630 1.708142
18 5.739710 0.047597 -0.612883 -0.146203 -0.021738 0.711480
19 5.652500 0.000000 0.000000 6.215440 -0.006072 0.542602
20 3.325017 0.000000 0.000000 0.009338 -0.006636 1.264737
21 7.853379 9.200903 -1.474892 -0.003746 0.203348 2.518078
22 5.562210 0.327350 0.486441 -0.329867 -0.354521 1.136026
23 5.158500 0.000000 0.000000 6.212903 -0.005680 0.432912
24 3.326000 0.000000 0.000000 0.008885 -0.007390 1.407859
25 4.272048 9.023724 1.190963 -0.294454 0.454032 2.841693
26 1.659054 2.569644 1.216363 -0.165570 0.036625 1.604596
27 6.028141 0.000000 0.000000 -7.079285 -2.411477 3.972025
28 12.693000 0.000000 0.000000 0.000000 0.000000 1.383027
29 11.598282 0.138266 0.107485 -2.805606 0.478823 -0.728173
30 5.900461 -0.635063 1.689933 0.424115 -0.106558 0.188975
31 5.248500 0.000000 0.000000 0.000000 0.000000 0.483077
32 3.151000 0.000000 0.000000 -0.000000 0.000000 0.524056
33 14.571267 4.990293 4.483231 0.141090 -0.414472 1.189359
34 6.189646 -0.664553 0.434985 0.204204 0.029273 0.408383
35 5.511000 0.000000 0.000000 0.000000 0.000000 0.844926
36 3.325017 0.000000 0.000000 -0.000000 0.000000 0.524187
37 11.540494 8.531502 1.492552 0.070663 -0.193942 1.767619
38 5.928183 -0.249670 -0.698117 0.392699 0.156781 0.512254
39 5.074000 0.000000 0.000000 0.000000 -0.000000 0.816814
40 3.326000 0.000000 0.000000 0.000000 -0.000001 1.115265
41 8.669949 7.679729 0.644595 0.013643 -0.421117 2.410171
42 0.000000 0.000000 0.000000 0.000000 -0.268316 0.100788
43 3.890452 -0.000009 -0.000089 -1.787025 -0.967833 -1.285344
44 17.591000 0.000000 0.000000 0.000000 0.000000 1.050779
45 17.699579 0.000000 0.000000 -6.001843 -5.896300 10.928847
46 6.879455 0.000000 0.000000 6.197720 -0.007917 -0.643143
47 -3.890442 -0.000009 -0.000089 0.945720 -0.281680 -1.786929
48 17.591000 0.000000 0.000000 0.000000 0.000000 -0.645389
49 17.699579 0.000000 0.000000 -6.505984 6.440516 1.368468
50 6.879455 0.000000 0.000000 -12.663248 0.003781 0.622900
52 10.939459 -0.891752 0.583795 -0.775344 -0.425850 -1.585353
54 2.016200 -4.091240 -7.810296 -0.902964 -0.454182 -1.919879
55 8.500633 9.433763 -7.872782 -1.075464 0.461480 -1.090960
56 8.841754 -13.921870 -4.033283 -0.542421 -0.696800 -2.402582
60 2.899380 -1.943127 -8.267844 -1.802387 -0.125818 -1.314910
61 -0.002712 -0.820693 3.883316 -1.570796 0.000000 0.000000
62 4.068215 0.218490 -2.249109 3.141593 0.000000 0.029248
63 3.090772 0.000000 0.000000 1.496983 -0.357675 1.300602
64 10.185577 0.000000 0.000000 0.000000 0.000000 1.834794
65 -4.068000 0.218490 -2.249109 -1.569520 -3.097978 -0.029274
66 3.090993 0.000000 0.000000 -0.677876 1.192125 -0.742966
67 10.185578 0.000000 0.000000 0.000000 0.000000 -2.008862
68 -0.002712 0.339841 -5.552244 -1.570796 0.000000 0.000000
69 -3.889107 -2.343820 -0.389694 1.049346 0.513378 1.803393
70 14.659637 0.000000 0.000000 0.000000 0.000000 -2.308115
71 3.889000 -2.344069 0.000000 1.426305 0.636364 1.001478
72 14.678965 0.000000 0.000000 0.000000 0.000000 -2.196750
time 11
1 0.493095 -76.620293 35.073051 2.233391 0.000000 -0.119865
2 0.000005 3.345123 -2.981987 0.000000 0.000000 0.000000
3 0.000000 0.000000 0.000000 0.248041 -0.048632 1.459273
4 4.126702 0.000000 0.000000 0.064391 -0.353445 0.026462
5 3.613000 0.000000 0.000000 0.051946 -0.499978 -0.073882
6 9.184000 0.000000 0.000000 0.012564 -0.493260 0.015237
7 3.115958 0.000373 0.000000 0.000000 0.000000 0.000000
8 0.000000 0.000000 0.000000 -0.024625 0.925927 -0.034405
9 1.721344 0.000000 0.000000 0.000000 -0.392699 0.015097
10 1.667105 -2.621271 1.204551 0.167878 -0.324986 -1.385388
11 6.028141 0.000000 0.000000 -65.007319 -0.668056 56.116771
12 12.693000 0.000000 0.000000 0.000000 0.000000 -0.973183
13 11.576000 0.000000 0.000000 -1.024314 -0.003938 0.014652
14 5.591136 0.133427 -1.865050 0.204204 0.483456 0.301069
15 5.293000 0.000000 0.000000 6.209610 -0.006250 0.809509
16 3.079115 0.000000 0.000000 0.006978 -0.006850 0.667655
17 10.923156 7.862633 -4.506746 0.448731 -0.105630 1.708142
18 5.739710 0.047597 -0.612883 -0.146203 -0.021738 0.711480
19 5.652500 0.000000 0.000000 6.215440 -0.006072 0.542602
20 3.325017 0.000000 0.000000 0.009338 -0.006636 1.264737
21 7.853379 9.200903 -1.474892 -0.003746 0.203348 2.518078
22 5.562210 0.327350 0.486441 -0.329867 -0.354521 1.136026
23 5.158500 0.000000 0.000000 6.212903 -0.005680 0.432912
24 3.326000 0.000000 0.000000 0.008885 -0.007390 1.407859
25 4.272048 9.023724 1.190963 -0.294454 0.454032 2.841693
26 1.659054 2.569644 1.216363 -0.165570 0.036625 1.604596
27 6.028141 0.000000 0.000000 -7.063433 -2.253674 3.992740
28 12.693000 0.000000 0.000000 0.000000 0.000000 1.289316
29 11.598282 0.138266 0.107485 -2.890330 0.407462 -0.674165
30 5.900461 -0.635063 1.689933 0.424115 -0.106558 0.188975
31 5.248500 0.000000 0.000000 0.000000 0.000000 0.483077
32 3.151000 0.000000 0.000000 -0.000000 0.000000 0.524056
33 14.571267 4.990293 4.483231 0.141090 -0.414472 1.189359
34 6.189646 -0.664553 0.434985 0.204204 0.029273 0.408383
35 5.511000 0.000000 0.000000 0.000000 0.000000 0.844926
36 3.325017 0.000000 0.000000 -0.000000 0.000000 0.524187
37 11.540494 8.531502 1.492552 0.070663 -0.193942 1.767619
38 5.928183 -0.249670 -0.698117 0.392699 0.156781 0.512254
39 5.074000 0.000000 0.000000 0.000000 -0.000000 0.816814
40 3.326000 0.000000 0.000000 0.000000 -0.000001 1.115265
41 8.669949 7.679729 0.644595 0.013643 -0.421117 2.410171
42 0.000000 0.000000 0.000000 0.000000 -0.152488 0.100788
43 3.890452 -0.000009 -0.000089 -1.528954 -0.738249 -1.497320
44 17.591000 0.000000 0.000000 0.000000 0.000000 0.759477
45 17.699579 0.000000 0.000000 -5.961967 -5.898721 10.996425
46 6.879455 0.000000 0.000000 6.197720 -0.007917 -0.643143
47 -3.890442 -0.000009 -0.000089 1.031968 -0.461219 -1.731542
48 17.591000 0.000000 0.000000 0.000000 0.000000 -0.996082
49 17.699579 0.000000 0.000000 -6.548445 6.578291 1.411382
50 6.879455 0.000000 0.000000 -12.663248 0.003781 0.622900
52 10.894027 -0.891752 1.651700 -0.776746 -0.595640 -1.894691
54 2.037518 -4.230499 -8.334950 -0.902964 -0.454182 -1.919879
55 9.310738 8.654051 -6.781158 -1.084756 0.468746 -1.089659
56 8.663757 -14.603480 -3.501812 -0.564237 -0.733342 -2.476032
60 2.899380 -1.943127 -8.267844 -1.802387 -0.125818 -1.314910
61 -0.002712 -0.820693 3.883316 -1.570796 0.000000 0.000000
62 4.068215 0.218490 -2.249109 3.141593 0.000000 0.029248
63 3.090772 0.000000 0.000000 1.496983 -0.357675 1.300602
64 10.185577 0.000000 0.000000 0.000000 0.000000 1.834794
65 -4.068000 0.218490 -2.249109 -1.569520 -3.097978 -0.029274
66 3.090993 0.000000 0.000000 -0.677876 1.192125 -0.742966
67 10.185578 0.000000 0.000000 0.000000 0.000000 -2.008862
68 -0.002712 0.339841 -5.552244 -1.570796 0.000000 0.000000
69 -3.889107 -2.343820 -0.389694 1.049346 0.513378 1.803393
70 14.659637 0.000000 0.000000 0.000000 0.000000 -2.308115
71 3.889000 -2.344069 0.000000 1.426305 0.636364 1.001478
72 14.678965 0.000000 0.000000 0.000000 0.000000 -2.196750
time 12
1 -0.316677 -80.520248 36.218227 2.230978 0.000000 -0.119865
2 0.000005 3.345123 -2.981987 0.000000 0.000000 0.000000
3 0.000000 0.000000 0.000000 0.248041 0.010994 1.435476
4 4.126702 0.000000 0.000000 0.069896 -0.382535 0.026462
5 3.613000 0.000000 0.000000 0.051946 -0.517388 -0.073882
6 9.184000 0.000000 0.000000 0.012564 -0.510670 0.015237
7 3.115958 0.000373 0.000000 0.000000 0.000000 0.000000
8 0.000000 0.000000 0.000000 -0.024625 0.925927 -0.034405
9 1.721344 0.000000 0.000000 0.000000 -0.392699 0.015097
10 1.667105 -2.621271 1.204551 0.167878 -0.324986 -1.385388
11 6.028141 0.000000 0.000000 -64.983286 -0.567827 56.174789
12 12.693000 0.000000 0.000000 0.000000 0.000000 -0.984359
13 11.576000 0.000000 0.000000 -1.159331 -0.059408 0.091340
14 5.591136 0.133427 -1.865050 0.204204 0.483456 0.301069
15 5.293000 0.000000 0.000000 6.209610 -0.006250 0.809509
16 3.079115 0.000000 0.000000 0.006978 -0.006850 0.667655
17 10.923156 7.862633 -4.506746 0.448731 -0.105630 1.708142
18 5.739710 0.047597 -0.612883 -0.146203 -0.021738 0.711480
19 5.652500 0.000000 0.000000 6.215440 -0.006072 0.542602
20 3.325017 0.000000 0.000000 0.009338 -0.006636 1.264737
21 7.853379 9.200903 -1.474892 -0.003746 0.203348 2.518078
22 5.562210 0.327350 0.486441 -0.329867 -0.354521 1.136026
23 5.158500 0.000000 0.000000 6.212903 -0.005680 0.432912
24 3.326000 0.000000 0.000000 0.008885 -0.007390 1.407859
25 4.272048 9.023724 1.190963 -0.294454 0.454032 2.841693
26 1.659054 2.569644 1.216363 -0.165570 0.036625 1.604596
27 6.028141 0.000000 0.000000 -7.122852 -2.195360 3.960470
28 12.693000 0.000000 0.000000 0.000000 0.000000 1.241308
29 11.598282 0.138266 0.107485 -2.838016 0.353798 -0.655216
30 5.900461 -0.635063 1.689933 0.424115 -0.106558 0.188975
31 5.248500 0.000000 0.000000 0.000000 0.000000 0.483077
32 3.151000 0.000000 0.000000 -0.000000 0.000000 0.524056
33 14.571267 4.990293 4.483231 0.141090 -0.414472 1.189359
34 6.189646 -0.664553 0.434985 0.204204 0.029273 0.408383
35 5.511000 0.000000 0.000000 0.000000 0.000000 0.844926
36 3.325017 0.000000 0.000000 -0.000000 0.000000 0.524187
37 11.540494 8.531502 1.492552 0.070663 -0.193942 1.767619
38 5.928183 -0.249670 -0.698117 0.392699 0.156781 0.512254
39 5.074000 0.000000 0.000000 0.000000 -0.000000 0.816814
40 3.326000 0.000000 0.000000 0.000000 -0.000001 1.115265
41 8.669949 7.679729 0.644595 0.013643 -0.421117 2.410171
42 0.000000 0.000000 0.000000 0.000000 -0.019496 0.096385
43 3.890452 -0.000009 -0.000089 -1.417589 -0.460210 -1.577476
44 17.591000 0.000000 0.000000 0.000000 0.000000 0.364363
45 17.699579 0.000000 0.000000 -5.915242 -5.974163 11.206448
46 6.879455 0.000000 0.000000 6.197720 -0.007917 -0.643143
47 -3.890442 -0.000009 -0.000089 1.111278 -0.653980 -1.722623
48 17.591000 0.000000 0.000000 0.000000 0.000000 -1.287782
49 17.699579 0.000000 0.000000 -6.608038 6.555774 1.306528
50 6.879455 0.000000 0.000000 -12.663248 0.003781 0.622900
52 10.938576 -0.891752 1.895623 -0.784421 -0.551209 -1.915807
54 2.534847 -4.490321 -9.202501 -0.902964 -0.454182 -1.919879
55 9.681654 8.045150 -6.235304 -1.100835 0.478231 -1.081378
56 9.026692 -14.372320 -4.121195 -0.647332 -0.672710 -2.443830
60 2.899380 -1.943127 -8.267844 -1.802387 -0.125818 -1.314910
61 -0.002712 -0.820693 3.883316 -1.570796 0.000000 0.000000
62 4.068215 0.218490 -2.249109 3.141593 0.000000 0.029248
63 3.090772 0.000000 0.000000 1.496983 -0.357675 1.300602
64 10.185577 0.000000 0.000000 0.000000 0.000000 1.834794
65 -4.068000 0.218490 -2.249109 -1.569520 -3.097978 -0.029274
66 3.090993 0.000000 0.000000 -0.677876 1.192125 -0.742966
67 10.185578 0.000000 0.000000 0.000000 0.000000 -2.008862
68 -0.002712 0.339841 -5.552244 -1.570796 0.000000 0.000000
69 -3.889107 -2.343820 -0.389694 1.049346 0.513378 1.803393
70 14.659637 0.000000 0.000000 0.000000 0.000000 -2.308115
71 3.889000 -2.344069 0.000000 1.426305 0.636364 1.001478
72 14.678965 0.000000 0.000000 0.000000 0.000000 -2.196750
time 13
1 -1.158457 -84.424141 37.081646 2.228482 0.000000 -0.119865
2 0.000005 3.345123 -2.981987 0.000000 0.000000 0.000000
3 0.000000 0.000000 0.000000 0.248041 0.054287 1.420725
4 4.126702 0.000000 0.000000 0.068065 -0.398283 0.026462
5 3.613000 0.000000 0.000000 0.051946 -0.518763 -0.073882
6 9.184000 0.000000 0.000000 0.012564 -0.512045 0.015237
7 3.115958 0.000373 0.000000 0.000000 0.000000 0.000000
8 0.000000 0.000000 0.000000 -0.024625 0.925927 -0.034405
9 1.721344 0.000000 0.000000 0.000000 -0.392699 0.015097
10 1.667105 -2.621271 1.204551 0.167878 -0.324986 -1.385388
11 6.028141 0.000000 0.000000 -64.845126 -0.431250 56.207459
12 12.693000 0.000000 0.000000 0.000000 0.000000 -1.038846
13 11.576000 0.000000 0.000000 -1.373358 -0.132823 0.185663
14 5.591136 0.133427 -1.865050 0.204204 0.483456 0.301069
15 5.293000 0.000000 0.000000 6.209610 -0.006250 0.809509
16 3.079115 0.000000 0.000000 0.006978 -0.006850 0.667655
17 10.923156 7.862633 -4.506746 0.448731 -0.105630 1.708142
18 5.739710 0.047597 -0.612883 -0.146203 -0.021738 0.711480
19 5.652500 0.000000 0.000000 6.215440 -0.006072 0.542602
20 3.325017 0.000000 0.000000 0.009338 -0.006636 1.264737
21 7.853379 9.200903 -1.474892 -0.003746 0.203348 2.518078
22 5.562210 0.327350 0.486441 -0.329867 -0.354521 1.136026
23 5.158500 0.000000 0.000000 6.212903 -0.005680 0.432912
24 3.326000 0.000000 0.000000 0.008885 -0.007390 1.407859
25 4.272048 9.023724 1.190963 -0.294454 0.454032 2.841693
26 1.659054 2.569644 1.216363 -0.165570 0.036625 1.604596
27 6.028141 0.000000 0.000000 -7.234216 -2.244233 3.949085
28 12.693000 0.000000 0.000000 0.000000 0.000000 1.311495
29 11.598282 0.138266 0.107485 -2.730615 0.358223 -0.685236
30 5.900461 -0.635063 1.689933 0.424115 -0.106558 0.188975
31 5.248500 0.000000 0.000000 0.000000 0.000000 0.483077
32 3.151000 0.000000 0.000000 -0.000000 0.000000 0.524056
33 14.571267 4.990293 4.483231 0.141090 -0.414472 1.189359
34 6.189646 -0.664553 0.434985 0.204204 0.029273 0.408383
35 5.511000 0.000000 0.000000 0.000000 0.000000 0.844926
36 3.325017 0.000000 0.000000 -0.000000 0.000000 0.524187
37 11.540494 8.531502 1.492552 0.070663 -0.193942 1.767619
38 5.928183 -0.249670 -0.698117 0.392699 0.156781 0.512254
39 5.074000 0.000000 0.000000 0.000000 -0.000000 0.816814
40 3.326000 0.000000 0.000000 0.000000 -0.000001 1.115265
41 8.669949 7.679729 0.644595 0.013643 -0.421117 2.410171
42 0.000000 0.000000 0.000000 0.000000 0.113644 0.084061
43 3.890452 -0.000009 -0.000089 -1.378028 -0.201184 -1.597291
44 17.591000 0.000000 0.000000 0.000000 0.000000 0.000000
45 17.699579 0.000000 0.000000 -5.898577 -6.120308 11.538008
46 6.879455 0.000000 0.000000 6.236659 -0.007473 -0.661843
47 -3.890442 -0.000009 -0.000089 1.156276 -0.841194 -1.733855
48 17.591000 0.000000 0.000000 0.000000 0.000000 -1.502147
49 17.699579 0.000000 0.000000 -6.611278 6.507672 1.222838
50 6.879455 0.000000 0.000000 -12.663248 0.003781 0.622900
52 11.008224 -0.891752 2.005056 -0.794608 -0.453370 -1.876919
54 3.071093 -4.676795 -9.757402 -0.902964 -0.454182 -1.919879
55 9.256824 7.687020 -6.691475 -1.160968 0.505654 -1.034698
56 9.675143 -13.735440 -5.289211 -0.763846 -0.563618 -2.370592
60 2.899380 -1.943127 -8.267844 -1.802387 -0.125818 -1.314910
61 -0.002712 -0.820693 3.883316 -1.570796 0.000000 0.000000
62 4.068215 0.218490 -2.249109 3.141593 0.000000 0.029248
63 3.090772 0.000000 0.000000 1.496983 -0.357675 1.300602
64 10.185577 0.000000 0.000000 0.000000 0.000000 1.834794
65 -4.068000 0.218490 -2.249109 -1.569520 -3.097978 -0.029274
66 3.090993 0.000000 0.000000 -0.677876 1.192125 -0.742966
67 10.185578 0.000000 0.000000 0.000000 0.000000 -2.008862
68 -0.002712 0.339841 -5.552244 -1.570796 0.000000 0.000000
69 -3.889107 -2.343820 -0.389694 1.049346 0.513378 1.803393
70 14.659637 0.000000 0.000000 0.000000 0.000000 -2.308115
71 3.889000 -2.344069 0.000000 1.426305 0.636364 1.001478
72 14.678965 0.000000 0.000000 0.000000 0.000000 -2.196750
time 14
1 -2.242635 -88.330910 37.140179 2.226029 0.000000 -0.119865
2 0.000005 3.345123 -2.981987 0.000000 0.000000 0.000000
3 0.000000 0.000000 0.000000 0.248041 0.066002 1.408522
4 4.126702 0.000000 0.000000 0.062899 -0.388237 0.026462
5 3.613000 0.000000 0.000000 0.051946 -0.490882 -0.073882
6 9.184000 0.000000 0.000000 0.012564 -0.486782 0.015237
7 3.115958 0.000373 0.000000 0.000000 0.000000 0.000000
8 0.000000 0.000000 0.000000 -0.024625 0.925927 -0.034405
9 1.721344 0.000000 0.000000 0.000000 -0.392699 0.015097
10 1.667105 -2.621271 1.204551 0.167878 -0.324986 -1.385388
11 6.028141 0.000000 0.000000 -64.621620 -0.302127 56.225688
12 12.693000 0.000000 0.000000 0.000000 0.000000 -1.105265
13 11.576000 0.000000 0.000000 -1.600162 -0.202871 0.266250
14 5.591136 0.133427 -1.865050 0.204204 0.483456 0.301069
15 5.293000 0.000000 0.000000 6.209610 -0.006250 0.809509
16 3.079115 0.000000 0.000000 0.006978 -0.006850 0.667655
17 10.923156 7.862633 -4.506746 0.448731 -0.105630 1.708142
18 5.739710 0.047597 -0.612883 -0.146203 -0.021738 0.711480
19 5.652500 0.000000 0.000000 6.215440 -0.006072 0.542602
20 3.325017 0.000000 0.000000 0.009338 -0.006636 1.264737
21 7.853379 9.200903 -1.474892 -0.003746 0.203348 2.518078
22 5.562210 0.327350 0.486441 -0.329867 -0.354521 1.136026
23 5.158500 0.000000 0.000000 6.212903 -0.005680 0.432912
24 3.326000 0.000000 0.000000 0.008885 -0.007390 1.407859
25 4.272048 9.023724 1.190963 -0.294454 0.454032 2.841693
26 1.659054 2.569644 1.216363 -0.165570 0.036625 1.604596
27 6.028141 0.000000 0.000000 -7.359868 -2.366140 3.961965
28 12.693000 0.000000 0.000000 0.000000 0.000000 1.428395
29 11.598282 0.138266 0.107485 -2.577625 0.432060 -0.709214
30 5.900461 -0.635063 1.689933 0.424115 -0.106558 0.188975
31 5.248500 0.000000 0.000000 0.000000 0.000000 0.483077
32 3.151000 0.000000 0.000000 -0.000000 0.000000 0.524056
33 14.571267 4.990293 4.483231 0.141090 -0.414472 1.189359
34 6.189646 -0.664553 0.434985 0.204204 0.029273 0.408383
35 5.511000 0.000000 0.000000 0.000000 0.000000 0.844926
36 3.325017 0.000000 0.000000 -0.000000 0.000000 0.524187
37 11.540494 8.531502 1.492552 0.070663 -0.193942 1.767619
38 5.928183 -0.249670 -0.698117 0.392699 0.156781 0.512254
39 5.074000 0.000000 0.000000 0.000000 -0.000000 0.816814
40 3.326000 0.000000 0.000000 0.000000 -0.000001 1.115265
41 8.669949 7.679729 0.644595 0.013643 -0.421117 2.410171
42 0.000000 0.000000 0.000000 0.000000 0.229917 0.063534
43 3.890452 -0.000009 -0.000089 -1.364784 -0.111276 -1.609621
44 17.591000 0.000000 0.000000 0.000000 0.000000 0.000000
45 17.699579 0.000000 0.000000 -5.960040 -6.261143 11.649316
46 6.879455 0.000000 0.000000 6.264626 -0.006943 -0.656994
47 -3.890442 -0.000009 -0.000089 1.235133 -1.003850 -1.777043
48 17.591000 0.000000 0.000000 0.000000 0.000000 -1.633157
49 17.699579 0.000000 0.000000 -6.584294 6.508422 1.245478
50 6.879455 0.000000 0.000000 -12.663248 0.003781 0.622900
52 11.082865 -0.891752 2.026120 -0.804886 -0.338478 -1.809801
54 3.617615 -4.695317 -9.612720 -0.902964 -0.454182 -1.919879
55 8.449216 7.422673 -7.615764 -1.267733 0.552240 -0.947709
56 10.398757 -12.955423 -6.611617 -0.883973 -0.441646 -2.284002
60 2.899380 -1.943127 -8.267844 -1.802387 -0.125818 -1.314910
61 -0.002712 -0.820693 3.883316 -1.570796 0.000000 0.000000
62 4.068215 0.218490 -2.249109 3.141593 0.000000 0.029248
63 3.090772 0.000000 0.000000 1.496983 -0.357675 1.300602
64 10.185577 0.000000 0.000000 0.000000 0.000000 1.834794
65 -4.068000 0.218490 -2.249109 -1.569520 -3.097978 -0.029274
66 3.090993 0.000000 0.000000 -0.677876 1.192125 -0.742966
67 10.185578 0.000000 0.000000 0.000000 0.000000 -2.008862
68 -0.002712 0.339841 -5.552244 -1.570796 0.000000 0.000000
69 -3.889107 -2.343820 -0.389694 1.049346 0.513378 1.803393
70 14.659637 0.000000 0.000000 0.000000 0.000000 -2.308115
71 3.889000 -2.344069 0.000000 1.426305 0.636364 1.001478
72 14.678965 0.000000 0.000000 0.000000 0.000000 -2.196750
time 15
1 -3.272017 -92.239822 34.872982 2.223741 0.000000 -0.119865
2 0.000005 3.345123 -2.981987 0.000000 0.000000 0.000000
3 0.000000 0.000000 0.000000 0.248041 0.061384 1.399265
4 4.126702 0.000000 0.000000 0.058398 -0.364849 0.026462
5 3.613000 0.000000 0.000000 0.051946 -0.446966 -0.073882
6 9.184000 0.000000 0.000000 0.012564 -0.445484 0.015237
7 3.115958 0.000373 0.000000 0.000000 0.000000 0.000000
8 0.000000 0.000000 0.000000 -0.024625 0.925927 -0.034405
9 1.721344 0.000000 0.000000 0.000000 -0.392699 0.015097
10 1.667105 -2.621271 1.204551 0.167878 -0.324986 -1.385388
11 6.028141 0.000000 0.000000 -64.389563 -0.218403 56.235936
12 12.693000 0.000000 0.000000 0.000000 0.000000 -1.163578
13 11.576000 0.000000 0.000000 -1.753938 -0.268328 0.303911
14 5.591136 0.133427 -1.865050 0.204204 0.483456 0.301069
15 5.293000 0.000000 0.000000 6.209610 -0.006250 0.809509
16 3.079115 0.000000 0.000000 0.006978 -0.006850 0.667655
17 10.923156 7.862633 -4.506746 0.448731 -0.105630 1.708142
18 5.739710 0.047597 -0.612883 -0.146203 -0.021738 0.711480
19 5.652500 0.000000 0.000000 6.215440 -0.006072 0.542602
20 3.325017 0.000000 0.000000 0.009338 -0.006636 1.264737
21 7.853379 9.200903 -1.474892 -0.003746 0.203348 2.518078
22 5.562210 0.327350 0.486441 -0.329867 -0.354521 1.136026
23 5.158500 0.000000 0.000000 6.212903 -0.005680 0.432912
24 3.326000 0.000000 0.000000 0.008885 -0.007390 1.407859
25 4.272048 9.023724 1.190963 -0.294454 0.454032 2.841693
26 1.659054 2.569644 1.216363 -0.165570 0.036625 1.604596
27 6.028141 0.000000 0.000000 -7.441173 -2.501655 4.010216
28 12.693000 0.000000 0.000000 0.000000 0.000000 1.517051
29 11.598282 0.138266 0.107485 -2.486706 0.542620 -0.713865
30 5.900461 -0.635063 1.689933 0.424115 -0.106558 0.188975
31 5.248500 0.000000 0.000000 0.000000 0.000000 0.483077
32 3.151000 0.000000 0.000000 -0.000000 0.000000 0.524056
33 14.571267 4.990293 4.483231 0.141090 -0.414472 1.189359
34 6.189646 -0.664553 0.434985 0.204204 0.029273 0.408383
35 5.511000 0.000000 0.000000 0.000000 0.000000 0.844926
36 3.325017 0.000000 0.000000 -0.000000 0.000000 0.524187
37 11.540494 8.531502 1.492552 0.070663 -0.193942 1.767619
38 5.928183 -0.249670 -0.698117 0.392699 0.156781 0.512254
39 5.074000 0.000000 0.000000 0.000000 -0.000000 0.816814
40 3.326000 0.000000 0.000000 0.000000 -0.000001 1.115265
41 8.669949 7.679729 0.644595 0.013643 -0.421117 2.410171
42 0.000000 0.000000 0.000000 0.000000 0.312308 0.030692
43 3.890452 -0.000009 -0.000089 -1.357327 0.011853 -1.575360
44 17.591000 0.000000 0.000000 0.000000 0.000000 0.000000
45 17.699579 0.000000 0.000000 -6.019409 -6.382643 11.540305
46 6.879455 0.000000 0.000000 6.224503 -0.007636 -0.652938
47 -3.890442 -0.000009 -0.000089 1.432609 -1.137502 -1.861109
48 17.591000 0.000000 0.000000 0.000000 0.000000 -1.517283
49 17.699579 0.000000 0.000000 -6.495802 6.588653 1.466084
50 6.879455 0.000000 0.000000 -12.663248 0.003781 0.622900
52 11.142393 -0.891752 2.004936 -0.812829 -0.242884 -1.746229
54 4.203053 -4.640491 -9.155389 -0.902964 -0.454182 -1.919879
55 7.666035 7.259006 -8.524804 -1.369589 0.596183 -0.863741
56 10.987184 -12.294853 -7.694171 -0.977907 -0.342371 -2.211745
60 2.899380 -1.943127 -8.267844 -1.802387 -0.125818 -1.314910
61 -0.002712 -0.820693 3.883316 -1.570796 0.000000 0.000000
62 4.068215 0.218490 -2.249109 3.141593 0.000000 0.029248
63 3.090772 0.000000 0.000000 1.496983 -0.357675 1.300602
64 10.185577 0.000000 0.000000 0.000000 0.000000 1.834794
65 -4.068000 0.218490 -2.249109 -1.569520 -3.097978 -0.029274
66 3.090993 0.000000 0.000000 -0.677876 1.192125 -0.742966
67 10.185578 0.000000 0.000000 0.000000 0.000000 -2.008862
68 -0.002712 0.339841 -5.552244 -1.570796 0.000000 0.000000
69 -3.889107 -2.343820 -0.389694 1.049346 0.513378 1.803393
70 14.659637 0.000000 0.000000 0.000000 0.000000 -2.308115
71 3.889000 -2.344069 0.000000 1.426305 0.636364 1.001478
72 14.678965 0.000000 0.000000 0.000000 0.000000 -2.196750
time 16
1 -3.729753 -96.149521 32.968060 2.221745 0.000000 -0.119865
2 0.000005 3.345123 -2.981987 0.000000 0.000000 0.000000
3 0.000000 0.000000 0.000000 0.248041 0.041657 1.395537
4 4.126702 0.000000 0.000000 0.057646 -0.344554 0.026462
5 3.613000 0.000000 0.000000 0.051946 -0.415343 -0.073882
6 9.184000 0.000000 0.000000 0.012564 -0.408625 0.015237
7 3.115958 0.000373 0.000000 0.000000 0.000000 0.000000
8 0.000000 0.000000 0.000000 -0.024625 0.925927 -0.034405
9 1.721344 0.000000 0.000000 0.000000 -0.392699 0.015097
10 1.667105 -2.621271 1.204551 0.167878 -0.324986 -1.385388
11 6.028141 0.000000 0.000000 -64.261131 -0.199910 56.229177
12 12.693000 0.000000 0.000000 0.000000 0.000000 -1.200846
13 11.576000 0.000000 0.000000 -1.817259 -0.300999 0.344041
14 5.591136 0.133427 -1.865050 0.204204 0.483456 0.301069
15 5.293000 0.000000 0.000000 6.209610 -0.006250 0.809509
16 3.079115 0.000000 0.000000 0.006978 -0.006850 0.667655
17 10.923156 7.862633 -4.506746 0.448731 -0.105630 1.708142
18 5.739710 0.047597 -0.612883 -0.146203 -0.021738 0.711480
19 5.652500 0.000000 0.000000 6.215440 -0.006072 0.542602
20 3.325017 0.000000 0.000000 0.009338 -0.006636 1.264737
21 7.853379 9.200903 -1.474892 -0.003746 0.203348 2.518078
22 5.562210 0.327350 0.486441 -0.329867 -0.354521 1.136026
23 5.158500 0.000000 0.000000 6.212903 -0.005680 0.432912
24 3.326000 0.000000 0.000000 0.008885 -0.007390 1.407859
25 4.272048 9.023724 1.190963 -0.294454 0.454032 2.841693
26 1.659054 2.569644 1.216363 -0.165570 0.036625 1.604596
27 6.028141 0.000000 0.000000 -7.403036 -2.557667 4.119922
28 12.693000 0.000000 0.000000 0.000000 0.000000 1.523860
29 11.598282 0.138266 0.107485 -2.666169 0.648459 -0.769950
30 5.900461 -0.635063 1.689933 0.424115 -0.106558 0.188975
31 5.248500 0.000000 0.000000 0.000000 0.000000 0.483077
32 3.151000 0.000000 0.000000 -0.000000 0.000000 0.524056
33 14.571267 4.990293 4.483231 0.141090 -0.414472 1.189359
34 6.189646 -0.664553 0.434985 0.204204 0.029273 0.408383
35 5.511000 0.000000 0.000000 0.000000 0.000000 0.844926
36 3.325017 0.000000 0.000000 -0.000000 0.000000 0.524187
37 11.540494 8.531502 1.492552 0.070663 -0.193942 1.767619
38 5.928183 -0.249670 -0.698117 0.392699 0.156781 0.512254
39 5.074000 0.000000 0.000000 0.000000 -0.000000 0.816814
40 3.326000 0.000000 0.000000 0.000000 -0.000001 1.115265
41 8.669949 7.679729 0.644595 0.013643 -0.421117 2.410171
42 0.000000 0.000000 0.000000 0.000000 0.343803 -0.115144
43 3.890452 -0.000009 -0.000089 -1.331819 0.017463 -1.445455
44 17.591000 0.000000 0.000000 0.000000 0.000000 0.150242
45 17.699579 0.000000 0.000000 -6.109305 -6.491627 11.394888
46 6.879455 0.000000 0.000000 6.197720 -0.007917 -0.643143
47 -3.890442 -0.000009 -0.000089 -1.381083 -1.833242 1.124696
48 17.591000 0.000000 0.000000 0.000000 0.000000 -1.257888
49 17.699579 0.000000 0.000000 -6.370156 6.663859 1.504253
50 6.879455 0.000000 0.000000 -12.663248 0.003781 0.622900
52 11.166704 -0.891752 1.987625 -0.816016 -0.202941 -1.717977
54 4.476237 -4.602235 -8.890666 -0.902964 -0.454182 -1.919879
55 7.314485 7.202918 -8.935232 -1.414995 0.615676 -0.826123
56 11.230071 -12.016311 -8.142632 -1.015841 -0.301373 -2.181507
60 2.899380 -1.943127 -8.267844 -1.802387 -0.125818 -1.314910
61 -0.002712 -0.820693 3.883316 -1.570796 0.000000 0.000000
62 4.068215 0.218490 -2.249109 3.141593 0.000000 0.029248
63 3.090772 0.000000 0.000000 1.496983 -0.357675 1.300602
64 10.185577 0.000000 0.000000 0.000000 0.000000 1.834794
65 -4.068000 0.218490 -2.249109 -1.569520 -3.097978 -0.029274
66 3.090993 0.000000 0.000000 -0.677876 1.192125 -0.742966
67 10.185578 0.000000 0.000000 0.000000 0.000000 -2.008862
68 -0.002712 0.339841 -5.552244 -1.570796 0.000000 0.000000
69 -3.889107 -2.343820 -0.389694 1.049346 0.513378 1.803393
70 14.659637 0.000000 0.000000 0.000000 0.000000 -2.308115
71 3.889000 -2.344069 0.000000 1.426305 0.636364 1.001478
72 14.678965 0.000000 0.000000 0.000000 0.000000 -2.196750
end
