version 1
nodes
0 "ValveBiped.Soldier" -1
1 "ValveBiped.Bip01" -1
2 "ValveBiped.Bip01_Pelvis" 1
3 "ValveBiped.Bip01_L_Thigh" 2
4 "ValveBiped.Bip01_L_Calf" 3
5 "ValveBiped.Bip01_L_Foot" 4
6 "ValveBiped.Bip01_L_Toe0" 5
7 "ValveBiped.Bip01_R_Thigh" 2
8 "ValveBiped.Bip01_R_Calf" 7
9 "ValveBiped.Bip01_R_Foot" 8
10 "ValveBiped.Bip01_R_Toe0" 9
11 "ValveBiped.Cod" 2
12 "ValveBiped.Pouch" 2
13 "ValveBiped.Bip01_Spine" 1
14 "ValveBiped.Bip01_Spine1" 13
15 "ValveBiped.Bip01_Spine2" 14
16 "ValveBiped.Bip01_Spine4" 15
17 "ValveBiped.Bip01_Neck1" 16
18 "ValveBiped.Bip01_Head1" 17
19 "ValveBiped.Bip01_L_Clavicle" 16
20 "ValveBiped.Bip01_L_UpperArm" 19
21 "ValveBiped.Bip01_L_Forearm" 20
22 "ValveBiped.Bip01_L_Hand" 21
23 "ValveBiped.Bip01_L_Finger4" 22
24 "ValveBiped.Bip01_L_Finger41" 23
25 "ValveBiped.Bip01_L_Finger42" 24
26 "ValveBiped.Bip01_L_Finger3" 22
27 "ValveBiped.Bip01_L_Finger31" 26
28 "ValveBiped.Bip01_L_Finger32" 27
29 "ValveBiped.Bip01_L_Finger2" 22
30 "ValveBiped.Bip01_L_Finger21" 29
31 "ValveBiped.Bip01_L_Finger22" 30
32 "ValveBiped.Bip01_L_Finger1" 22
33 "ValveBiped.Bip01_L_Finger11" 32
34 "ValveBiped.Bip01_L_Finger12" 33
35 "ValveBiped.Bip01_L_Finger0" 22
36 "ValveBiped.Bip01_L_Finger01" 35
37 "ValveBiped.Bip01_L_Finger02" 36
38 "ValveBiped.Bip01_R_Clavicle" 16
39 "ValveBiped.Bip01_R_UpperArm" 38
40 "ValveBiped.Bip01_R_Forearm" 39
41 "ValveBiped.Bip01_R_Hand" 40
42 "ValveBiped.Bip01_R_Finger4" 41
43 "ValveBiped.Bip01_R_Finger41" 42
44 "ValveBiped.Bip01_R_Finger42" 43
45 "ValveBiped.Bip01_R_Finger3" 41
46 "ValveBiped.Bip01_R_Finger31" 45
47 "ValveBiped.Bip01_R_Finger32" 46
48 "ValveBiped.Bip01_R_Finger2" 41
49 "ValveBiped.Bip01_R_Finger21" 48
50 "ValveBiped.Bip01_R_Finger22" 49
51 "ValveBiped.Bip01_R_Finger1" 41
52 "ValveBiped.Bip01_R_Finger11" 51
53 "ValveBiped.Bip01_R_Finger12" 52
54 "ValveBiped.Bip01_R_Finger0" 41
55 "ValveBiped.Bip01_R_Finger01" 54
56 "ValveBiped.Bip01_R_Finger02" 55
57 "ValveBiped.LeftFootParent" -1
58 "ValveBiped.LeftFoot" 57
59 "ValveBiped.LfootUpVector" 58
60 "ValveBiped.LfootUpVector2" 58
61 "ValveBiped.spacer" 58
62 "ValveBiped.heel" 61
63 "ValveBiped.toe" 62
64 "ValveBiped.mid" 63
65 "ValveBiped.ankle" 64
66 "ValveBiped.spacer3" 64
67 "ValveBiped.LeftToe" 66
68 "ValveBiped.LeftRoll" 61
69 "ValveBiped.LeftToeTarget" 58
70 "ValveBiped.LegRollL_Point_ClsCtr" 58
71 "ValveBiped.RightFootParent" -1
72 "ValveBiped.RightFoot" 71
73 "ValveBiped.RightToeTarget" 72
74 "ValveBiped.spacer1" 72
75 "ValveBiped.heel1" 74
76 "ValveBiped.toe1" 75
77 "ValveBiped.mid1" 76
78 "ValveBiped.ankle1" 77
79 "ValveBiped.spacer4" 77
80 "ValveBiped.RightToe" 79
81 "ValveBiped.RightRoll" 74
82 "ValveBiped.RfootUpVector2" 72
83 "ValveBiped.RfootUpVector1" 72
84 "ValveBiped.LegRollR_Point_ClsCtr" 72
85 "ValveBiped.UpperBodyParent" -1
86 "ValveBiped.UpperBody" 85
87 "ValveBiped.SpineControlParent" 86
88 "ValveBiped.SpineControl" 87
89 "ValveBiped.SpineControlConstrainer" 88
90 "ValveBiped.SpineControl1" 88
91 "ValveBiped.SpineControlConstrainer1" 90
92 "ValveBiped.SpineControl2" 90
93 "ValveBiped.SpineControlConstrainer2" 92
94 "ValveBiped.SpineControl3" 92
95 "ValveBiped.SpineControlConstrainer3" 94
96 "ValveBiped.NeckControl" 94
97 "ValveBiped.NeckControlConstrainer" 96
98 "ValveBiped.HeadControl" 96
99 "ValveBiped.HeadControlConstrainer" 98
100 "ValveBiped.ClavicleControlParentL" 94
101 "ValveBiped.ClavicleControlL" 100
102 "ValveBiped.ClavicleControlParentR" 94
103 "ValveBiped.ClavicleControlR" 102
104 "ValveBiped.HandControlPosParentL" -1
105 "ValveBiped.UpperArmControlL" 104
106 "ValveBiped.HandControlPosL" 105
107 "ValveBiped.ArmRollL_Point_ClsCtr" 106
108 "ValveBiped.ArmRollL" 104
109 "ValveBiped.lArmUpVParent" 108
110 "ValveBiped.lArmUpV" 109
111 "ValveBiped.HandControlRotGrandmaL" -1
112 "ValveBiped.HandControlRotParentL" 111
113 "ValveBiped.HandControlRotL" 112
114 "ValveBiped.HandControlRotL1" 113
115 "ValveBiped.HandControlRotConstrainerL" 114
116 "ValveBiped.HandControlPosParentR" -1
117 "ValveBiped.UpperArmControlR" 116
118 "ValveBiped.HandControlPosR" 117
119 "ValveBiped.ArmRollR_Point_ClsCtr" 118
120 "ValveBiped.ArmRollR" 116
121 "ValveBiped.lArmUpVParent1" 120
122 "ValveBiped.rArmUpV" 121
123 "ValveBiped.HandControlRotGrandmaR" -1
124 "ValveBiped.HandControlRotParentR" 123
125 "ValveBiped.HandControlRotR" 124
126 "ValveBiped.HandControlRotR1" 125
127 "ValveBiped.HandControlRotConstrainerR" 126
128 "ValveBiped.LegRollControlParent_L" -1
129 "ValveBiped.LegRollL" 128
130 "ValveBiped.LUpVParent" 129
131 "ValveBiped.LeftLeg_UpV" 130
132 "ValveBiped.LegRollControlParent_R" -1
133 "ValveBiped.LegRollR" 132
134 "ValveBiped.RUpVParent" 133
135 "ValveBiped.RightLeg_UpV" 134
end
skeleton
time 0
0  0.000000 0.000000 0.000000  1.570796 -0.000000 0.000000
1  -0.021881 -0.314874 36.364441  1.570626 -0.000000 -0.746639
2  -0.000000 -0.000004 0.000000  -0.000000 -0.000000 -0.000000
3  3.890451 -0.000008 -0.000005  -2.201551 -0.306039 -1.301262
4  17.848179 -0.000002 -0.000000  -0.000000 0.000000 0.699420
5  15.638508 0.000000 0.000001  0.052634 0.138818 -1.233820
6  7.109929 -0.000000 0.000001  -0.007119 -0.003131 -0.631738
7  -3.890453 0.000000 0.000008  -1.506726 -0.191212 -1.669107
8  17.848175 -0.000001 0.000001  -0.000000 0.000000 0.672858
9  15.638510 -0.000001 0.000001  0.051397 -0.082141 -1.409127
10  7.109929 -0.000000 0.000001  -0.081154 -0.003131 -0.631749
11  -0.044717 2.528781 4.661499  -0.041547 -0.161153 -0.007014
12  4.041916 4.954655 -8.467940  -0.000000 -0.392699 -0.000000
13  0.000005 3.345124 -2.981900  1.409079 0.084081 1.550109
14  4.018328 -0.000001 0.000000  0.075948 -0.117581 0.193950
15  3.518560 0.000000 -0.000001  0.121888 -0.099652 0.333084
16  8.942640 -0.000002 -0.000000  -0.078838 0.112907 0.222365
17  3.307272 0.000001 0.000001  -3.132870 -0.072854 0.269284
18  3.593712 0.000003 0.000001  0.360338 -0.246610 0.658645
19  2.033343 1.000766 1.101696  -0.756142 -1.613466 -0.995086
20  6.809415 0.000006 -0.000005  -2.881061 -1.098337 0.232523
21  12.391801 0.000006 -0.000001  -0.000000 -0.000000 -1.019635
22  9.337070 0.000004 -0.000033  -0.061854 0.548934 0.252417
23  3.859707 -0.142433 -1.191957  -0.513267 0.072291 -1.288225
24  1.312562 0.000001 0.000005  -0.163028 0.224047 -1.466962
25  0.729362 0.000004 0.000002  -0.068871 0.147979 -0.913117
26  3.942328 0.046732 -0.431428  -0.157261 0.007109 -0.685616
27  1.539093 0.000014 -0.000010  -0.068563 0.062695 -1.808644
28  1.196320 0.000009 -0.000001  -0.005433 0.026725 -0.524005
29  4.454020 -0.070215 0.572072  0.095490 -0.008587 -0.706335
30  1.426594 0.000000 0.000010  0.055908 -0.087976 -1.504206
31  1.322474 0.000004 0.000000  0.009312 -0.033625 -0.575065
32  4.477069 -0.028579 1.582475  0.481653 -0.035390 -1.246096
33  1.344420 0.000001 0.000002  0.023466 -0.208305 -0.755723
34  1.224672 0.000006 -0.000002  0.026043 -0.124620 -0.538676
35  2.630324 -0.345020 1.907211  -0.354022 -0.915164 -1.788195
36  1.059291 0.000000 0.000001  -0.001067 -0.012855 0.250988
37  0.781198 0.000000 0.000000  -0.000096 -0.003210 0.062757
38  2.033353 1.000777 -1.101646  -0.035395 1.947892 -1.725942
39  6.809414 0.000005 0.000001  1.701001 1.148705 -0.450326
40  12.391803 -0.000000 0.000001  -0.000000 -0.000000 -1.849791
41  9.337099 0.000007 0.000006  -0.764803 0.062558 0.784953
42  3.859662 -0.132559 1.193137  0.217767 -0.010340 -1.857608
43  1.312563 -0.000002 -0.000003  0.044560 -0.180938 -0.876601
44  0.729360 -0.000001 -0.000000  0.155228 -0.190276 -1.393021
45  3.942289 0.050339 0.431071  0.139630 -0.069408 -0.865173
46  1.539096 -0.000006 -0.000005  0.049426 -0.072767 -1.413300
47  1.196323 -0.000003 -0.000002  0.018371 -0.045481 -0.841346
48  4.453985 -0.073768 -0.571668  0.047699 -0.153453 -0.767464
49  1.426599 0.000004 -0.000007  -0.053883 0.078890 -1.553256
50  1.322466 -0.000001 0.000002  -0.013603 0.036958 -0.732277
51  4.477031 -0.043462 -1.581285  -0.332631 0.218360 0.154973
52  1.344416 0.000000 -0.000004  -0.042629 0.220735 -0.851579
53  1.224675 0.000001 0.000004  0.008150 -0.000004 -0.000025
54  2.630287 -0.359836 -1.904285  0.415078 0.423437 -0.720800
55  1.059291 0.000002 0.000005  0.015101 0.038905 0.767148
56  0.781206 -0.000006 -0.000012  0.004782 0.022537 0.418308
57  4.069501 1.811269 4.279048  1.570796 -0.000000 0.000000
58  0.000000 -0.000000 -0.000000  0.000000 0.052360 0.000000
59  0.032300 -4.377938 -4.331139  -0.000000 -0.000000 0.000000
60  -0.002340 -4.618855 4.848104  -0.000000 0.000937 -0.001514
61  -0.000000 0.000000 -0.000000  0.000000 -0.000000 0.000000
62  -0.014019 -4.136677 -0.422642  0.000001 -0.000000 0.000000
63  0.014022 0.341392 9.682304  0.000000 0.000937 -0.001514
64  0.003298 0.000005 -3.521831  0.000000 -0.000000 -0.000000
65  -0.000369 3.795277 -5.737836  0.000000 -0.000000 0.000000
66  -0.000000 0.000000 0.000000  -0.000001 0.000000 0.000000
67  -0.000000 -0.000000 -0.000000  -0.000000 -0.000000 -0.000000
68  -0.000000 0.000000 -0.000000  -0.000000 0.000000 0.000000
69  0.000003 -3.795290 9.259664  -0.000000 0.000937 -0.001514
70  7.999999 0.000001 -0.000000  0.000001 -0.052360 -0.000000
71  -4.069616 1.811259 4.279059  1.570796 -0.000000 0.000000
72  0.000000 -0.000000 -0.000000  0.000000 -0.052360 0.000000
73  0.000003 -3.795289 9.259665  -0.001320 -0.008192 0.060729
74  0.000000 0.000000 0.000000  0.000000 0.000000 0.000000
75  0.014020 -4.136677 -0.422641  0.000001 0.000000 -0.000000
76  -0.014018 0.341393 9.682305  -0.000000 0.000937 -0.001514
77  0.003297 0.000005 -3.521831  0.000000 -0.000000 -0.000000
78  -0.000369 3.795275 -5.737837  0.000000 0.000000 0.000000
79  -0.000000 0.000000 0.000000  -0.000000 0.000000 0.000000
80  -0.000000 0.000000 -0.000000  -0.000000 -0.000000 -0.000000
81  0.000000 0.000000 0.000000  -0.000000 -0.000000 -0.000000
82  -0.062978 -4.612901 4.868224  -0.000000 0.000937 -0.001514
83  0.032300 -4.377938 -4.331139  -0.000000 0.000000 -0.000000
84  -8.000000 0.000001 0.000000  0.000001 0.052360 0.000000
85  0.000156 0.385903 39.987263  1.570796 -0.000000 0.000000
86  -0.000161 -1.420346 0.919518  0.000000 -0.000000 0.000000
87  0.000005 3.345128 -2.981901  1.570796 0.083187 1.570796
88  0.000000 -0.000000 -0.000000  0.000000 0.000000 0.000000
89  0.000003 0.000000 -0.000000  -0.000000 -0.000000 -0.003106
90  4.018316 -0.012484 -0.000000  -0.000000 -0.000000 -0.000000
91  0.000005 -0.000000 0.000000  -0.000000 0.000000 -0.032354
92  3.516729 -0.113802 -0.000000  0.000000 -0.000000 -0.000000
93  0.000002 -0.000000 0.000000  0.000000 0.000000 0.067981
94  8.921986 0.607517 -0.000001  -0.000000 -0.000000 -0.000000
95  -0.000000 -0.000000 0.000000  0.000000 0.000000 0.262078
96  3.194337 0.856892 -0.000000  0.000000 -0.000000 -0.000000
97  0.000001 0.000000 0.000000  3.141590 -0.000000 0.662566
98  2.833353 2.210629 -0.000000  0.000000 -0.000000 -0.000000
99  -0.000002 -0.000000 0.000000  3.141590 -0.000000 0.255978
100  1.704618 1.493419 1.937660  -1.544954 -1.855079 0.063449
101  -0.000001 0.000001 0.000000  0.000000 0.000000 0.000001
102  1.704624 1.493426 -1.937611  1.473111 1.855076 0.063436
103  -0.000003 0.000003 0.000001  0.000000 0.000000 -0.000001
104  7.723854 1.956159 58.484589  1.570796 -0.000000 0.000000
105  0.000000 0.000001 -0.000000  0.000000 -0.000000 0.000000
106  14.952688 -17.686636 -0.395722  0.000001 -0.000000 0.000000
107  0.000000 9.000000 -0.000003  0.000000 -0.000000 0.000000
108  0.000000 0.000001 -0.000000  0.000000 -0.000000 0.000000
109  0.000000 0.000002 -9.999998  0.000000 -0.000000 0.000000
110  0.000000 0.000002 0.000000  0.000001 -0.000000 0.000000
111  15.264428 2.505456 49.565292  -0.015813 0.868860 -0.020712
112  11.481673 -0.000034 -0.000029  1.573178 -0.106616 0.044195
113  -0.000001 0.000004 0.000000  -0.000000 0.000000 0.000002
114  -0.000001 0.000000 0.000000  -0.000000 -0.000000 0.000000
115  -0.000001 0.000000 0.000000  0.000000 0.000000 0.000000
116  -7.723807 1.956140 58.484608  1.570796 -0.000000 0.000000
117  0.000000 0.000001 -0.000000  0.000000 -0.000000 0.000000
118  -14.952740 -17.686594 -0.395684  0.000001 -0.000000 0.000000
119  0.000000 9.000000 -0.000003  0.000000 -0.000000 0.000000
120  0.000000 0.000024 -0.000000  0.000000 -0.000000 0.000000
121  0.000000 -0.000021 -9.999999  0.000000 -0.000000 0.000000
122  0.000000 0.000002 0.000000  0.000001 -0.000000 0.000000
123  -15.264407 2.505418 49.565334  0.015813 2.272735 0.020712
124  11.481701 -0.000054 -0.000002  -1.564933 0.106603 0.044183
125  -0.000003 -0.000001 -0.000000  -0.000000 0.000000 -0.000003
126  0.000003 0.000001 -0.000000  -0.000000 -0.000000 -0.000000
127  0.000003 0.000001 0.000000  0.000000 0.000000 -0.000000
128  3.890447 -0.533611 38.566914  1.570796 -0.000000 0.000000
129  0.000000 -0.000000 0.000000  0.000000 -0.000000 0.000000
130  0.000000 -0.000002 -9.999999  0.000000 -0.000000 0.000000
131  0.000000 -0.000002 -0.000000  0.000000 -0.000000 0.000000
132  -3.890457 -0.533622 38.566921  1.570796 -0.000000 0.000000
133  0.000000 -0.000000 0.000000  0.000000 -0.000000 0.000000
134  0.000000 -0.000002 -9.999999  0.000000 -0.000000 0.000000
135  0.000000 -0.000002 -0.000000  0.000000 -0.000000 0.000000
time 1
0  0.000000 0.000000 0.000000  1.570796 -0.000000 0.000000
1  -0.021881 -0.162513 36.364441  1.570626 -0.000000 -0.746639
2  -0.000000 0.000000 0.000000  -0.000000 -0.000000 -0.000000
3  3.890451 -0.000004 -0.000005  -2.205178 -0.296908 -1.287941
4  17.848175 -0.000003 -0.000000  -0.000000 -0.000000 0.696933
5  15.638506 0.000000 0.000001  0.044342 0.152172 -1.232362
6  7.109931 -0.000001 0.000001  -0.007119 -0.003131 -0.631738
7  -3.890453 0.000004 0.000008  -1.508061 -0.208137 -1.658322
8  17.848173 -0.000003 0.000000  -0.000000 0.000000 0.682931
9  15.638512 -0.000001 0.000001  0.042965 -0.073995 -1.402251
10  7.109930 -0.000000 0.000001  -0.081154 -0.003131 -0.631749
11  -0.044717 2.528785 4.661499  -0.042263 -0.080560 -0.003487
12  4.041915 4.954659 -8.467940  -0.000000 -0.392699 -0.000000
13  0.000005 3.345128 -2.981900  1.489964 0.085612 1.560393
14  4.018332 -0.000001 -0.000000  0.032074 -0.118839 0.193915
15  3.518561 -0.000000 -0.000001  0.041328 -0.091574 0.333580
16  8.942643 -0.000005 0.000000  -0.078838 0.112907 0.222365
17  3.307275 -0.000002 -0.000000  -3.138431 -0.036098 0.335010
18  3.593715 0.000005 0.000001  0.415985 -0.219799 0.705523
19  2.033342 1.000766 1.101696  -0.756142 -1.613466 -0.995085
20  6.809417 0.000009 -0.000001  -2.777301 -1.039177 0.136819
21  12.391803 0.000006 -0.000001  0.000000 0.000000 -1.121822
22  9.337077 0.000004 -0.000028  -0.065334 0.547948 0.319287
23  3.859713 -0.142436 -1.191952  -0.513267 0.072291 -1.288225
24  1.312567 -0.000003 0.000001  -0.163028 0.224047 -1.466962
25  0.729361 0.000007 0.000004  -0.068871 0.147979 -0.913117
26  3.942331 0.046739 -0.431428  -0.157261 0.007109 -0.685616
27  1.539086 0.000014 -0.000005  -0.068563 0.062695 -1.808644
28  1.196318 0.000010 -0.000007  -0.005433 0.026725 -0.524005
29  4.454019 -0.070210 0.572073  0.095490 -0.008587 -0.706335
30  1.426592 0.000000 0.000004  0.055908 -0.087976 -1.504206
31  1.322475 0.000011 0.000005  0.009312 -0.033625 -0.575065
32  4.477068 -0.028573 1.582477  0.481653 -0.035390 -1.246096
33  1.344419 -0.000001 0.000004  0.023466 -0.208305 -0.755723
34  1.224672 0.000002 0.000003  0.026043 -0.124620 -0.538676
35  2.630323 -0.345017 1.907214  -0.354022 -0.915164 -1.788195
36  1.059297 -0.000001 -0.000001  -0.001067 -0.012855 0.250988
37  0.781213 -0.000000 -0.000004  -0.000096 -0.003210 0.062757
38  2.033356 1.000773 -1.101647  -0.035395 1.947891 -1.725942
39  6.809415 0.000005 -0.000004  1.571711 1.163158 -0.581426
40  12.391802 0.000000 -0.000007  -0.000000 -0.000000 -1.842752
41  9.337101 0.000006 0.000005  -0.777284 0.074665 0.751019
42  3.859667 -0.132555 1.193135  0.217767 -0.010340 -1.857608
43  1.312562 -0.000006 -0.000002  0.044560 -0.180938 -0.876601
44  0.729362 0.000001 0.000001  0.155228 -0.190276 -1.393021
45  3.942291 0.050339 0.431065  0.139630 -0.069408 -0.865173
46  1.539096 -0.000005 -0.000008  0.049426 -0.072767 -1.413300
47  1.196325 -0.000000 -0.000003  0.018371 -0.045481 -0.841346
48  4.453985 -0.073768 -0.571664  0.047699 -0.153453 -0.767464
49  1.426599 0.000006 0.000002  -0.053883 0.078890 -1.553256
50  1.322465 -0.000001 0.000007  -0.013603 0.036958 -0.732277
51  4.477033 -0.043461 -1.581291  -0.332631 0.218360 0.154973
52  1.344413 -0.000004 -0.000007  -0.042629 0.220735 -0.851579
53  1.224674 0.000007 0.000004  0.008150 -0.000004 -0.000025
54  2.630288 -0.359835 -1.904287  0.415078 0.423437 -0.720800
55  1.059287 0.000005 0.000002  0.015101 0.038905 0.767148
56  0.781207 -0.000003 -0.000010  0.004782 0.022537 0.418308
57  4.069501 1.811269 4.279048  1.570796 -0.000000 0.000000
58  0.000000 -0.000000 -0.000000  0.000000 0.052360 0.000000
59  0.032300 -4.377938 -4.331139  -0.000000 -0.000000 0.000000
60  -0.002340 -4.618855 4.848104  -0.000000 0.000937 -0.001514
61  -0.000000 0.000000 -0.000000  0.000000 -0.000000 0.000000
62  -0.014019 -4.136677 -0.422642  0.000001 -0.000000 0.000000
63  0.014022 0.341392 9.682304  0.000000 0.000937 -0.001514
64  0.003298 0.000005 -3.521831  0.000000 -0.000000 -0.000000
65  -0.000369 3.795277 -5.737836  0.000000 -0.000000 0.000000
66  -0.000000 0.000000 0.000000  -0.000001 0.000000 0.000000
67  -0.000000 -0.000000 -0.000000  -0.000000 -0.000000 -0.000000
68  -0.000000 0.000000 -0.000000  -0.000000 0.000000 0.000000
69  0.000003 -3.795290 9.259664  -0.000000 0.000937 -0.001514
70  7.999999 0.000001 -0.000000  0.000001 -0.052360 -0.000000
71  -4.069616 1.811259 4.279059  1.570796 -0.000000 0.000000
72  0.000000 -0.000000 -0.000000  0.000000 -0.052360 0.000000
73  0.000003 -3.795289 9.259665  -0.001320 -0.008192 0.060729
74  0.000000 0.000000 0.000000  0.000000 0.000000 0.000000
75  0.014020 -4.136677 -0.422641  0.000001 0.000000 -0.000000
76  -0.014018 0.341393 9.682305  -0.000000 0.000937 -0.001514
77  0.003297 0.000005 -3.521831  0.000000 -0.000000 -0.000000
78  -0.000369 3.795275 -5.737837  0.000000 0.000000 0.000000
79  -0.000000 0.000000 0.000000  -0.000000 0.000000 0.000000
80  -0.000000 0.000000 -0.000000  -0.000000 -0.000000 -0.000000
81  0.000000 0.000000 0.000000  -0.000000 -0.000000 -0.000000
82  -0.062978 -4.612901 4.868224  -0.000000 0.000937 -0.001514
83  0.032300 -4.377938 -4.331139  -0.000000 0.000000 -0.000000
84  -8.000000 0.000001 0.000000  0.000001 0.052360 0.000000
85  0.000156 0.385903 39.987263  1.570796 -0.000000 0.000000
86  -0.000161 -1.420346 0.919518  0.000000 -0.000000 0.000000
87  0.000005 3.345128 -2.981901  1.570796 0.083187 1.570796
88  0.000000 -0.000000 -0.000000  0.000000 0.000000 0.000000
89  0.000003 0.000000 -0.000000  -0.000000 -0.000000 -0.003106
90  4.018316 -0.012484 -0.000000  -0.000000 -0.000000 -0.000000
91  0.000005 -0.000000 0.000000  -0.000000 0.000000 -0.032354
92  3.516729 -0.113802 -0.000000  0.000000 -0.000000 -0.000000
93  0.000002 -0.000000 0.000000  0.000000 0.000000 0.067981
94  8.921986 0.607517 -0.000001  -0.000000 -0.000000 -0.000000
95  -0.000000 -0.000000 0.000000  0.000000 0.000000 0.262078
96  3.194337 0.856892 -0.000000  0.000000 -0.000000 -0.000000
97  0.000001 0.000000 0.000000  3.141590 -0.000000 0.662566
98  2.833353 2.210629 -0.000000  0.000000 -0.000000 -0.000000
99  -0.000002 -0.000000 0.000000  3.141590 -0.000000 0.255978
100  1.704618 1.493419 1.937660  -1.544954 -1.855079 0.063449
101  -0.000001 0.000001 0.000000  0.000000 0.000000 0.000001
102  1.704624 1.493426 -1.937611  1.473111 1.855076 0.063436
103  -0.000003 0.000003 0.000001  0.000000 0.000000 -0.000001
104  7.723854 1.956159 58.484589  1.570796 -0.000000 0.000000
105  0.000000 0.000001 -0.000000  0.000000 -0.000000 0.000000
106  14.952688 -17.686636 -0.395722  0.000001 -0.000000 0.000000
107  0.000000 9.000000 -0.000003  0.000000 -0.000000 0.000000
108  0.000000 0.000001 -0.000000  0.000000 -0.000000 0.000000
109  0.000000 0.000002 -9.999998  0.000000 -0.000000 0.000000
110  0.000000 0.000002 0.000000  0.000001 -0.000000 0.000000
111  15.264428 2.505456 49.565292  -0.015813 0.868860 -0.020712
112  11.481673 -0.000034 -0.000029  1.573178 -0.106616 0.044195
113  -0.000001 0.000004 0.000000  -0.000000 0.000000 0.000002
114  -0.000001 0.000000 0.000000  -0.000000 -0.000000 0.000000
115  -0.000001 0.000000 0.000000  0.000000 0.000000 0.000000
116  -7.723807 1.956140 58.484608  1.570796 -0.000000 0.000000
117  0.000000 0.000001 -0.000000  0.000000 -0.000000 0.000000
118  -14.952740 -17.686594 -0.395684  0.000001 -0.000000 0.000000
119  0.000000 9.000000 -0.000003  0.000000 -0.000000 0.000000
120  0.000000 0.000024 -0.000000  0.000000 -0.000000 0.000000
121  0.000000 -0.000021 -9.999999  0.000000 -0.000000 0.000000
122  0.000000 0.000002 0.000000  0.000001 -0.000000 0.000000
123  -15.264407 2.505418 49.565334  0.015813 2.272735 0.020712
124  11.481701 -0.000054 -0.000002  -1.564933 0.106603 0.044183
125  -0.000003 -0.000001 -0.000000  -0.000000 0.000000 -0.000003
126  0.000003 0.000001 -0.000000  -0.000000 -0.000000 -0.000000
127  0.000003 0.000001 0.000000  0.000000 0.000000 -0.000000
128  3.890447 -0.533611 38.566914  1.570796 -0.000000 0.000000
129  0.000000 -0.000000 0.000000  0.000000 -0.000000 0.000000
130  0.000000 -0.000002 -9.999999  0.000000 -0.000000 0.000000
131  0.000000 -0.000002 -0.000000  0.000000 -0.000000 0.000000
132  -3.890457 -0.533622 38.566921  1.570796 -0.000000 0.000000
133  0.000000 -0.000000 0.000000  0.000000 -0.000000 0.000000
134  0.000000 -0.000002 -9.999999  0.000000 -0.000000 0.000000
135  0.000000 -0.000002 -0.000000  0.000000 -0.000000 0.000000
time 2
0  0.000000 0.000000 0.000000  1.570796 -0.000000 0.000000
1  -0.021881 -0.010152 36.364441  1.570626 -0.000000 -0.746639
2  0.000000 -0.000004 -0.000000  -0.000000 -0.000000 -0.000000
3  3.890451 -0.000008 -0.000005  -2.208518 -0.286830 -1.275770
4  17.848173 -0.000003 -0.000000  -0.000000 0.000000 0.694007
5  15.638509 -0.000001 0.000000  0.036208 0.165265 -1.231852
6  7.109931 -0.000001 0.000001  -0.007119 -0.003131 -0.631738
7  -3.890453 0.000000 0.000008  -1.509586 -0.223734 -1.646592
8  17.848171 -0.000003 -0.000002  0.000000 -0.000000 0.691299
9  15.638510 -0.000000 0.000001  0.034257 -0.065211 -1.395280
10  7.109930 -0.000000 0.000001  -0.081154 -0.003131 -0.631749
11  -0.044717 2.528781 4.661499  -0.042719 0.000000 -0.000000
12  4.041916 4.954655 -8.467940  -0.000000 -0.392699 -0.000000
13  0.000005 3.345124 -2.981900  1.570796 0.086293 1.570796
14  4.018327 -0.000001 -0.000000  -0.011799 -0.120110 0.193933
15  3.518561 0.000000 -0.000001  -0.039210 -0.083509 0.333403
16  8.942639 -0.000003 0.000001  -0.078838 0.112907 0.222365
17  3.307278 -0.000000 0.000000  3.141590 -0.000000 0.400478
18  3.593712 -0.000003 0.000002  0.471844 -0.192859 0.751981
19  2.033348 1.000765 1.101695  -0.756142 -1.613466 -0.995086
20  6.809419 0.000001 -0.000005  -2.694293 -0.975312 0.059953
21  12.391803 -0.000002 -0.000002  0.000000 -0.000000 -1.218411
22  9.337076 -0.000001 -0.000027  -0.069616 0.547553 0.380906
23  3.859709 -0.142429 -1.191958  -0.513267 0.072291 -1.288225
24  1.312557 -0.000002 0.000004  -0.163028 0.224047 -1.466962
25  0.729364 0.000001 -0.000003  -0.068871 0.147979 -0.913117
26  3.942330 0.046743 -0.431422  -0.157261 0.007109 -0.685616
27  1.539096 0.000002 -0.000011  -0.068563 0.062695 -1.808644
28  1.196322 0.000008 -0.000000  -0.005433 0.026725 -0.524005
29  4.454021 -0.070210 0.572074  0.095490 -0.008587 -0.706335
30  1.426594 0.000003 0.000008  0.055908 -0.087976 -1.504206
31  1.322475 0.000005 0.000004  0.009312 -0.033625 -0.575065
32  4.477070 -0.028573 1.582477  0.481653 -0.035390 -1.246096
33  1.344427 -0.000001 0.000007  0.023466 -0.208305 -0.755723
34  1.224674 0.000007 0.000000  0.026043 -0.124620 -0.538676
35  2.630324 -0.345015 1.907214  -0.354022 -0.915164 -1.788195
36  1.059290 0.000003 0.000005  -0.001067 -0.012855 0.250988
37  0.781210 -0.000001 -0.000001  -0.000096 -0.003210 0.062757
38  2.033359 1.000774 -1.101647  -0.035395 1.947892 -1.725942
39  6.809416 0.000007 0.000000  1.431063 1.169641 -0.721560
40  12.391798 0.000002 -0.000005  -0.000000 -0.000000 -1.834708
41  9.337103 0.000004 0.000003  -0.790533 0.086238 0.716395
42  3.859666 -0.132555 1.193133  0.217767 -0.010340 -1.857608
43  1.312561 -0.000004 0.000002  0.044560 -0.180938 -0.876601
44  0.729364 -0.000000 -0.000009  0.155228 -0.190276 -1.393021
45  3.942291 0.050343 0.431070  0.139630 -0.069408 -0.865173
46  1.539095 -0.000009 -0.000008  0.049426 -0.072767 -1.413300
47  1.196324 -0.000002 -0.000001  0.018371 -0.045481 -0.841346
48  4.453985 -0.073767 -0.571662  0.047699 -0.153453 -0.767464
49  1.426600 0.000008 -0.000002  -0.053883 0.078890 -1.553256
50  1.322466 -0.000002 0.000005  -0.013603 0.036958 -0.732277
51  4.477032 -0.043462 -1.581288  -0.332631 0.218360 0.154973
52  1.344413 -0.000001 -0.000008  -0.042629 0.220735 -0.851579
53  1.224668 0.000002 0.000002  0.008150 -0.000004 -0.000025
54  2.630287 -0.359836 -1.904284  0.415078 0.423437 -0.720800
55  1.059289 0.000003 0.000009  0.015101 0.038905 0.767148
56  0.781205 -0.000006 -0.000004  0.004782 0.022537 0.418308
57  4.069501 1.811269 4.279048  1.570796 -0.000000 0.000000
58  0.000000 -0.000000 -0.000000  0.000000 0.052360 0.000000
59  0.032300 -4.377938 -4.331139  -0.000000 -0.000000 0.000000
60  -0.002340 -4.618855 4.848104  -0.000000 0.000937 -0.001514
61  -0.000000 0.000000 -0.000000  0.000000 -0.000000 0.000000
62  -0.014019 -4.136677 -0.422642  0.000001 -0.000000 0.000000
63  0.014022 0.341392 9.682304  0.000000 0.000937 -0.001514
64  0.003298 0.000005 -3.521831  0.000000 -0.000000 -0.000000
65  -0.000369 3.795277 -5.737836  0.000000 -0.000000 0.000000
66  -0.000000 0.000000 0.000000  -0.000001 0.000000 0.000000
67  -0.000000 -0.000000 -0.000000  -0.000000 -0.000000 -0.000000
68  -0.000000 0.000000 -0.000000  -0.000000 0.000000 0.000000
69  0.000003 -3.795290 9.259664  -0.000000 0.000937 -0.001514
70  7.999999 0.000001 -0.000000  0.000001 -0.052360 -0.000000
71  -4.069616 1.811259 4.279059  1.570796 -0.000000 0.000000
72  0.000000 -0.000000 -0.000000  0.000000 -0.052360 0.000000
73  0.000003 -3.795289 9.259665  -0.001320 -0.008192 0.060729
74  0.000000 0.000000 0.000000  0.000000 0.000000 0.000000
75  0.014020 -4.136677 -0.422641  0.000001 0.000000 -0.000000
76  -0.014018 0.341393 9.682305  -0.000000 0.000937 -0.001514
77  0.003297 0.000005 -3.521831  0.000000 -0.000000 -0.000000
78  -0.000369 3.795275 -5.737837  0.000000 0.000000 0.000000
79  -0.000000 0.000000 0.000000  -0.000000 0.000000 0.000000
80  -0.000000 0.000000 -0.000000  -0.000000 -0.000000 -0.000000
81  0.000000 0.000000 0.000000  -0.000000 -0.000000 -0.000000
82  -0.062978 -4.612901 4.868224  -0.000000 0.000937 -0.001514
83  0.032300 -4.377938 -4.331139  -0.000000 0.000000 -0.000000
84  -8.000000 0.000001 0.000000  0.000001 0.052360 0.000000
85  0.000156 0.385903 39.987263  1.570796 -0.000000 0.000000
86  -0.000161 -1.420346 0.919518  0.000000 -0.000000 0.000000
87  0.000005 3.345128 -2.981901  1.570796 0.083187 1.570796
88  0.000000 -0.000000 -0.000000  0.000000 0.000000 0.000000
89  0.000003 0.000000 -0.000000  -0.000000 -0.000000 -0.003106
90  4.018316 -0.012484 -0.000000  -0.000000 -0.000000 -0.000000
91  0.000005 -0.000000 0.000000  -0.000000 0.000000 -0.032354
92  3.516729 -0.113802 -0.000000  0.000000 -0.000000 -0.000000
93  0.000002 -0.000000 0.000000  0.000000 0.000000 0.067981
94  8.921986 0.607517 -0.000001  -0.000000 -0.000000 -0.000000
95  -0.000000 -0.000000 0.000000  0.000000 0.000000 0.262078
96  3.194337 0.856892 -0.000000  0.000000 -0.000000 -0.000000
97  0.000001 0.000000 0.000000  3.141590 -0.000000 0.662566
98  2.833353 2.210629 -0.000000  0.000000 -0.000000 -0.000000
99  -0.000002 -0.000000 0.000000  3.141590 -0.000000 0.255978
100  1.704618 1.493419 1.937660  -1.544954 -1.855079 0.063449
101  -0.000001 0.000001 0.000000  0.000000 0.000000 0.000001
102  1.704624 1.493426 -1.937611  1.473111 1.855076 0.063436
103  -0.000003 0.000003 0.000001  0.000000 0.000000 -0.000001
104  7.723854 1.956159 58.484589  1.570796 -0.000000 0.000000
105  0.000000 0.000001 -0.000000  0.000000 -0.000000 0.000000
106  14.952688 -17.686636 -0.395722  0.000001 -0.000000 0.000000
107  0.000000 9.000000 -0.000003  0.000000 -0.000000 0.000000
108  0.000000 0.000001 -0.000000  0.000000 -0.000000 0.000000
109  0.000000 0.000002 -9.999998  0.000000 -0.000000 0.000000
110  0.000000 0.000002 0.000000  0.000001 -0.000000 0.000000
111  15.264428 2.505456 49.565292  -0.015813 0.868860 -0.020712
112  11.481673 -0.000034 -0.000029  1.573178 -0.106616 0.044195
113  -0.000001 0.000004 0.000000  -0.000000 0.000000 0.000002
114  -0.000001 0.000000 0.000000  -0.000000 -0.000000 0.000000
115  -0.000001 0.000000 0.000000  0.000000 0.000000 0.000000
116  -7.723807 1.956140 58.484608  1.570796 -0.000000 0.000000
117  0.000000 0.000001 -0.000000  0.000000 -0.000000 0.000000
118  -14.952740 -17.686594 -0.395684  0.000001 -0.000000 0.000000
119  0.000000 9.000000 -0.000003  0.000000 -0.000000 0.000000
120  0.000000 0.000024 -0.000000  0.000000 -0.000000 0.000000
121  0.000000 -0.000021 -9.999999  0.000000 -0.000000 0.000000
122  0.000000 0.000002 0.000000  0.000001 -0.000000 0.000000
123  -15.264407 2.505418 49.565334  0.015813 2.272735 0.020712
124  11.481701 -0.000054 -0.000002  -1.564933 0.106603 0.044183
125  -0.000003 -0.000001 -0.000000  -0.000000 0.000000 -0.000003
126  0.000003 0.000001 -0.000000  -0.000000 -0.000000 -0.000000
127  0.000003 0.000001 0.000000  0.000000 0.000000 -0.000000
128  3.890447 -0.533611 38.566914  1.570796 -0.000000 0.000000
129  0.000000 -0.000000 0.000000  0.000000 -0.000000 0.000000
130  0.000000 -0.000002 -9.999999  0.000000 -0.000000 0.000000
131  0.000000 -0.000002 -0.000000  0.000000 -0.000000 0.000000
132  -3.890457 -0.533622 38.566921  1.570796 -0.000000 0.000000
133  0.000000 -0.000000 0.000000  0.000000 -0.000000 0.000000
134  0.000000 -0.000002 -9.999999  0.000000 -0.000000 0.000000
135  0.000000 -0.000002 -0.000000  0.000000 -0.000000 0.000000
end
