version 1
nodes
  0 "Bip01" -1
  1 "Bip01 Pelvis" 0
  2 "Bip01 Spine" 1
  3 "Bip01 Spine1" 2
  4 "Bip01 Spine2" 3
  5 "Bip01 Spine3" 4
  6 "Bip01 Neck" 5
  7 "Bip01 Head" 6
  8 "Bip01 L Clavicle" 6
  9 "Bip01 L UpperArm" 8
  10 "Bip01 L Forearm" 9
  11 "Bip01 L Hand" 10
  12 "Bip01 L Finger0" 11
  13 "Bip01 L Finger01" 12
  14 "Bip01 L Finger02" 13
  15 "Bip01 L Finger1" 11
  16 "Bip01 L Finger11" 15
  17 "Bip01 L Finger12" 16
  18 "Bip01 L Finger2" 11
  19 "Bip01 L Finger21" 18
  20 "Bip01 L Finger22" 19
  21 "Bip01 L Finger3" 11
  22 "Bip01 L Finger31" 21
  23 "Bip01 L Finger32" 22
  24 "Bip01 L Finger4" 11
  25 "Bip01 L Finger41" 24
  26 "Bip01 L Finger42" 25
  27 "Bip01 R Clavicle" 6
  28 "Bip01 R UpperArm" 27
  29 "Bip01 R Forearm" 28
  30 "Bip01 R Hand" 29
  31 "Bip01 R Finger0" 30
  32 "Bip01 R Finger01" 31
  33 "Bip01 R Finger02" 32
  34 "Bip01 R Finger1" 30
  35 "Bip01 R Finger11" 34
  36 "Bip01 R Finger12" 35
  37 "Bip01 R Finger2" 30
  38 "Bip01 R Finger21" 37
  39 "Bip01 R Finger22" 38
  40 "Bip01 R Finger3" 30
  41 "Bip01 R Finger31" 40
  42 "Bip01 R Finger32" 41
  43 "Bip01 R Finger4" 30
  44 "Bip01 R Finger41" 43
  45 "Bip01 R Finger42" 44
  46 "Bip01 L Thigh" 2
  47 "Bip01 L Calf" 46
  48 "Bip01 L Foot" 47
  49 "Bip01 L Toe0" 48
  50 "Bip01 L Toe01" 49
  51 "Bip01 L Toe02" 50
  52 "Bip01 R Thigh" 2
  53 "Bip01 R Calf" 52
  54 "Bip01 R Foot" 53
  55 "Bip01 R Toe0" 54
  56 "Bip01 R Toe01" 55
  57 "Bip01 R Toe02" 56
end
skeleton
time 0
    0 0.000525 0.002459 33.426058 -0.005374 0.377611 -1.608790
    1 1.899871 0.000000 0.000000 3.141497 -1.532052 1.570702
    2 2.919839 -0.002997 -0.109374 0.002405 0.040759 0.000275
    3 3.766109 -0.002452 0.000000 0.046500 0.084719 0.178639
    4 3.080003 -0.003973 0.000000 0.045949 0.047759 0.173209
    5 4.991577 -0.004970 0.000000 0.010726 -0.110174 -0.054708
    6 6.273438 -0.002703 0.000000 0.000000 0.000000 0.261798
    7 3.516910 0.000000 0.000000 -0.043443 -0.049642 -0.521225
    8 0.000001 0.002796 1.989891 -0.928677 -1.511558 3.806824
    9 5.983815 0.000000 -0.000004 -0.225186 0.817810 -0.417654
    10 9.993211 0.000000 0.000001 0.000000 0.000000 -1.513181
    11 11.116126 0.000000 -0.000001 -2.083052 -0.341747 -0.462935
    12 1.285841 -0.377133 -0.119223 2.698444 0.251474 1.961775
    13 1.132566 0.000002 0.000000 0.000000 0.000000 0.287977
    14 1.908818 0.000003 -0.000001 0.000000 0.000000 0.287979
    15 4.075336 -0.097302 -0.883967 0.244655 0.080205 1.156446
    16 1.117884 0.000000 0.000001 0.000000 0.000000 1.047179
    17 1.016257 -0.000003 0.000000 0.000000 0.000000 1.047172
    18 4.259248 0.003371 -0.025598 0.220047 0.076947 1.371819
    19 1.304198 0.000001 0.000000 0.000000 0.000000 0.986102
    20 1.185635 0.000003 0.000000 0.000000 0.000000 1.047174
    21 4.189393 -0.033134 0.783651 0.035277 0.136696 1.347459
    22 1.252034 0.000001 0.000000 0.000000 0.000000 0.759211
    23 1.117884 0.000007 0.000000 0.000000 0.000000 1.047172
    24 4.105464 0.164729 1.538865 -0.231503 0.048229 0.970964
    25 0.931573 -0.000002 0.000000 0.000000 0.000000 0.724311
    26 0.846878 -0.000002 0.000000 0.000000 0.000000 1.047172
    27 0.000002 0.002806 -1.989891 0.712895 1.201836 -2.725523
    28 5.983815 0.000000 -0.000002 -0.445798 -0.937034 -0.528088
    29 8.327677 0.000000 0.000004 0.000000 0.000000 -1.625714
    30 11.991853 0.000000 -0.000001 1.432949 -0.167501 -0.359338
    31 1.381536 -0.315501 0.115448 -1.804464 -0.430995 1.842135
    32 1.132564 -0.000002 0.000000 0.000000 0.000000 0.619575
    33 1.908819 0.000003 0.000001 0.000000 0.000000 -0.000015
    34 4.425903 -0.135050 0.983363 -0.111111 -0.195137 0.370693
    35 1.117884 0.000004 0.000002 0.000000 0.000000 0.174550
    36 1.016259 0.000002 0.000000 0.000000 0.000000 0.340335
    37 4.629130 0.010513 0.143671 -0.024003 0.087577 0.622768
    38 1.304198 -0.000003 0.000001 0.000000 0.000000 0.959921
    39 1.185638 0.000005 0.000000 0.000000 0.000000 1.073356
    40 4.548625 -0.043327 -0.686112 0.151096 0.128690 0.732436
    41 1.252033 0.000002 0.000000 0.000000 0.000000 0.645758
    42 1.117883 -0.000001 0.000000 0.000000 0.000000 1.073371
    43 4.467423 0.243167 -1.402988 0.165599 0.189526 0.660554
    44 0.931570 -0.000004 0.000000 0.000000 0.000000 0.759215
    45 0.846881 0.000003 0.000000 0.000000 0.000000 0.907571
    46 -3.072186 0.009220 3.767400 2.930361 -0.201443 2.224926
    47 18.169476 0.000000 0.000000 0.000000 0.000000 -2.298950
    48 15.617543 0.000000 0.000000 -0.070045 0.192491 0.067063
    49 5.333910 2.948816 0.000000 0.000000 0.000000 1.605703
    50 1.530210 0.000000 0.000000 0.000000 0.000000 0.000008
    51 1.529297 0.000000 0.000000 0.000000 0.000000 0.000000
    52 -2.767489 -0.002479 -3.775213 -2.740707 0.160246 2.632038
    53 18.169476 0.000000 0.000000 0.000000 0.000000 -1.076346
    54 15.617540 0.000000 0.000000 -0.130407 0.046176 0.742306
    55 5.333909 2.948817 0.000000 0.000000 0.000000 1.736591
    56 1.530210 0.000000 0.000000 0.000000 0.000000 0.000008
    57 1.529297 0.000000 0.000000 0.000000 0.000000 0.000000
time 1
    0 0.000525 -4.990947 33.590125 -0.003206 0.392691 -1.617872
    1 1.899871 0.000000 0.000000 -3.141497 -1.549394 -4.712292
    2 2.919839 -0.002997 -0.062498 0.008262 0.036571 0.000193
    3 3.766109 -0.002452 0.000000 0.076198 0.063902 0.175127
    4 3.080003 -0.003973 0.000000 0.074197 0.028991 0.169494
    5 4.991577 -0.004970 0.000000 0.003631 -0.105153 -0.052383
    6 6.273438 -0.002703 0.000000 0.000000 0.000000 0.261798
    7 3.516910 0.000000 0.000000 -0.093586 -0.042063 -0.520671
    8 0.000001 0.002796 1.989891 -0.927666 -1.517293 3.805941
    9 5.983815 0.000000 -0.000004 -0.172198 0.678930 -0.299200
    10 9.993211 0.000000 0.000001 0.000000 0.000000 -1.592151
    11 11.116126 0.000000 -0.000001 -2.095354 -0.362243 -0.507569
    12 1.285841 -0.377133 -0.119223 2.698444 0.251474 1.961775
    13 1.132566 0.000002 0.000000 0.000000 0.000000 0.287977
    14 1.908818 0.000003 -0.000001 0.000000 0.000000 0.287979
    15 4.075336 -0.097302 -0.883967 0.244655 0.080205 1.156446
    16 1.117884 0.000000 0.000001 0.000000 0.000000 1.047179
    17 1.016257 -0.000003 0.000000 0.000000 0.000000 1.047172
    18 4.259248 0.003371 -0.025598 0.220047 0.076947 1.371819
    19 1.304198 0.000001 0.000000 0.000000 0.000000 0.986102
    20 1.185635 0.000003 0.000000 0.000000 0.000000 1.047174
    21 4.189393 -0.033134 0.783651 0.035277 0.136696 1.347459
    22 1.252034 0.000001 0.000000 0.000000 0.000000 0.759211
    23 1.117884 0.000007 0.000000 0.000000 0.000000 1.047172
    24 4.105464 0.164729 1.538865 -0.231503 0.048229 0.970964
    25 0.931573 -0.000002 0.000000 0.000000 0.000000 0.724311
    26 0.846878 -0.000002 0.000000 0.000000 0.000000 1.047172
    27 0.000002 0.002806 -1.989891 0.807704 1.265165 -2.620203
    28 5.983815 0.000000 -0.000002 -0.324397 -1.026726 -0.701893
    29 8.327677 0.000000 0.000004 0.000000 0.000000 -1.684146
    30 11.991853 0.000000 -0.000001 1.340425 -0.111706 -0.269559
    31 1.381536 -0.315501 0.115448 -1.804464 -0.431007 1.842135
    32 1.132564 -0.000002 0.000000 0.000000 0.000000 0.619575
    33 1.908819 0.000003 0.000001 0.000000 0.000000 -0.000015
    34 4.425903 -0.135050 0.983363 -0.111111 -0.195137 0.370693
    35 1.117884 0.000004 0.000002 0.000000 0.000000 0.174550
    36 1.016259 0.000002 0.000000 0.000000 0.000000 0.340335
    37 4.629130 0.010513 0.143671 -0.024003 0.087577 0.622768
    38 1.304198 -0.000003 0.000001 0.000000 0.000000 0.959921
    39 1.185638 0.000005 0.000000 0.000000 0.000000 1.073356
    40 4.548625 -0.043327 -0.686112 0.151096 0.128690 0.732436
    41 1.252033 0.000002 0.000000 0.000000 0.000000 0.645758
    42 1.117883 -0.000001 0.000000 0.000000 0.000000 1.073371
    43 4.467423 0.243167 -1.402988 0.165599 0.189526 0.660554
    44 0.931570 -0.000004 0.000000 0.000000 0.000000 0.759215
    45 0.846881 0.000003 0.000000 0.000000 0.000000 0.907571
    46 -3.056560 0.032659 3.728337 3.011850 -0.206472 1.900492
    47 18.169476 0.000000 0.000000 0.000000 0.000000 -2.303954
    48 15.617543 0.000000 0.000000 -0.006412 0.227052 0.127694
    49 5.333910 2.948816 0.000000 0.000000 0.000000 1.605703
    50 1.530210 0.000000 0.000000 0.000000 0.000000 0.000008
    51 1.529297 0.000000 0.000000 0.000000 0.000000 0.000000
    52 -2.783115 -0.025917 -3.814277 -2.787965 0.140594 2.801536
    53 18.169476 0.000000 0.000000 0.000000 0.000000 -0.938689
    54 15.617540 0.000000 0.000000 -0.083817 0.087945 0.653909
    55 5.333909 2.948817 0.000000 0.000000 0.000000 1.754040
    56 1.530210 0.000000 0.000000 0.000000 0.000000 0.000008
    57 1.529297 0.000000 0.000000 0.000000 0.000000 0.000000
time 2
    0 0.000525 -10.652341 34.402650 -0.000943 0.407387 -1.611505
    1 1.899871 0.000000 0.000000 0.000000 -1.548184 -1.570795
    2 2.919839 -0.002997 0.062506 0.014237 0.006085 0.000165
    3 3.766109 -0.002452 0.000000 0.098358 0.041011 0.170825
    4 3.080003 -0.003973 0.000000 0.095433 0.007970 0.165036
    5 4.991577 -0.004970 0.000000 -0.002433 -0.100407 -0.050945
    6 6.273438 -0.002703 0.000000 0.000000 0.000000 0.261798
    7 3.516910 0.000000 0.000000 -0.146698 -0.021561 -0.515605
    8 0.000001 0.002796 1.989891 -0.926387 -1.523028 3.804854
    9 5.983815 0.000000 -0.000004 -0.146609 0.584575 -0.275909
    10 9.993211 0.000000 0.000001 0.000000 0.000000 -1.615474
    11 11.116126 0.000000 -0.000001 -2.107277 -0.383724 -0.553631
    12 1.285841 -0.377133 -0.119223 2.698444 0.251474 1.961775
    13 1.132566 0.000002 0.000000 0.000000 0.000000 0.287977
    14 1.908818 0.000003 -0.000001 0.000000 0.000000 0.287979
    15 4.075336 -0.097302 -0.883967 0.244655 0.080205 1.156446
    16 1.117884 0.000000 0.000001 0.000000 0.000000 1.047179
    17 1.016257 -0.000003 0.000000 0.000000 0.000000 1.047172
    18 4.259248 0.003371 -0.025598 0.220047 0.076947 1.371819
    19 1.304198 0.000001 0.000000 0.000000 0.000000 0.986102
    20 1.185635 0.000003 0.000000 0.000000 0.000000 1.047174
    21 4.189393 -0.033134 0.783651 0.035277 0.136696 1.347459
    22 1.252034 0.000001 0.000000 0.000000 0.000000 0.759211
    23 1.117884 0.000007 0.000000 0.000000 0.000000 1.047172
    24 4.105464 0.164729 1.538865 -0.231503 0.048229 0.970964
    25 0.931573 -0.000002 0.000000 0.000000 0.000000 0.724311
    26 0.846878 -0.000002 0.000000 0.000000 0.000000 1.047172
    27 0.000002 0.002806 -1.989891 0.925292 1.286014 -2.498701
    28 5.983815 0.000000 -0.000002 -0.300640 -1.074109 -0.765468
    29 8.327677 0.000000 0.000004 0.000000 0.000000 -1.707775
    30 11.991853 0.000000 -0.000001 1.311989 -0.054997 -0.261440
    31 1.381536 -0.315501 0.115448 -1.804464 -0.431007 1.842135
    32 1.132564 -0.000002 0.000000 0.000000 0.000000 0.619575
    33 1.908819 0.000003 0.000001 0.000000 0.000000 -0.000015
    34 4.425903 -0.135050 0.983363 -0.111111 -0.195137 0.370693
    35 1.117884 0.000004 0.000002 0.000000 0.000000 0.174550
    36 1.016259 0.000002 0.000000 0.000000 0.000000 0.340335
    37 4.629130 0.010513 0.143671 -0.024003 0.087577 0.622768
    38 1.304198 -0.000003 0.000001 0.000000 0.000000 0.959921
    39 1.185638 0.000005 0.000000 0.000000 0.000000 1.073356
    40 4.548625 -0.043327 -0.686112 0.151096 0.128690 0.732436
    41 1.252033 0.000002 0.000000 0.000000 0.000000 0.645758
    42 1.117883 -0.000001 0.000000 0.000000 0.000000 1.073371
    43 4.467423 0.243167 -1.402988 0.165599 0.189526 0.660554
    44 0.931570 -0.000004 0.000000 0.000000 0.000000 0.759215
    45 0.846881 0.000003 0.000000 0.000000 0.000000 0.907571
    46 -2.939369 0.052190 3.693179 3.052057 -0.207011 1.719580
    47 18.169476 0.000000 0.000000 0.000000 0.000000 -2.112967
    48 15.617543 0.000000 0.000000 0.086531 0.207813 0.158010
    49 5.333910 2.948816 0.000000 0.000000 0.000000 1.605703
    50 1.530210 0.000000 0.000000 0.000000 0.000000 0.000008
    51 1.529297 0.000000 0.000000 0.000000 0.000000 0.000000
    52 -2.896399 -0.049355 -3.857247 -2.821024 0.129038 2.964025
    53 18.169476 0.000000 0.000000 0.000000 0.000000 -0.800954
    54 15.617540 0.000000 0.000000 -0.057421 0.111173 0.516369
    55 5.333909 2.948817 0.000000 0.000000 0.000000 1.771506
    56 1.530210 0.000000 0.000000 0.000000 0.000000 0.000008
    57 1.529297 0.000000 0.000000 0.000000 0.000000 0.000000
time 3
    0 0.000525 -16.325455 35.375336 0.002734 0.417901 -1.589129
    1 1.899871 0.000000 0.000000 0.000000 -1.498460 -1.570795
    2 2.915933 -0.002997 0.210948 0.019031 -0.032372 0.000220
    3 3.766109 -0.002452 0.000000 0.109539 0.018636 0.167325
    4 3.080003 -0.003973 0.000000 0.106219 -0.012680 0.161824
    5 4.991577 -0.004970 0.000000 0.064106 -0.088374 -0.049351
    6 6.273438 -0.002703 0.000000 0.000000 0.000000 0.261798
    7 3.516910 0.000000 0.000000 -0.259623 -0.016335 -0.511646
    8 0.000001 0.002796 1.989891 -0.924838 -1.528763 3.803428
    9 5.983815 0.000000 -0.000004 -0.121457 0.574600 -0.443863
    10 9.993211 0.000000 0.000001 0.000000 0.000000 -1.492061
    11 11.116126 0.000000 -0.000001 -2.117970 -0.405374 -0.598965
    12 1.285841 -0.377133 -0.119223 2.698444 0.251474 1.961775
    13 1.132566 0.000002 0.000000 0.000000 0.000000 0.287977
    14 1.908818 0.000003 -0.000001 0.000000 0.000000 0.287979
    15 4.075336 -0.097302 -0.883967 0.244655 0.080205 1.156446
    16 1.117884 0.000000 0.000001 0.000000 0.000000 1.047179
    17 1.016257 -0.000003 0.000000 0.000000 0.000000 1.047172
    18 4.259248 0.003371 -0.025598 0.220047 0.076947 1.371819
    19 1.304198 0.000001 0.000000 0.000000 0.000000 0.986102
    20 1.185635 0.000003 0.000000 0.000000 0.000000 1.047174
    21 4.189393 -0.033134 0.783651 0.035277 0.136696 1.347459
    22 1.252034 0.000001 0.000000 0.000000 0.000000 0.759211
    23 1.117884 0.000007 0.000000 0.000000 0.000000 1.047172
    24 4.105464 0.164729 1.538865 -0.231503 0.048229 0.970964
    25 0.931573 -0.000002 0.000000 0.000000 0.000000 0.724311
    26 0.846878 -0.000002 0.000000 0.000000 0.000000 1.047172
    27 0.000002 0.002806 -1.989891 0.930869 1.282209 -2.493686
    28 5.983815 0.000000 -0.000002 -0.377139 -1.059833 -0.616704
    29 8.327677 0.000000 0.000004 0.000000 0.000000 -1.700998
    30 11.991853 0.000000 -0.000001 1.336794 -0.037798 -0.272389
    31 1.381536 -0.315501 0.115448 -1.804464 -0.431007 1.842135
    32 1.132564 -0.000002 0.000000 0.000000 0.000000 0.619575
    33 1.908819 0.000003 0.000001 0.000000 0.000000 -0.000015
    34 4.425903 -0.135050 0.983363 -0.111111 -0.195137 0.370693
    35 1.117884 0.000004 0.000002 0.000000 0.000000 0.174550
    36 1.016259 0.000002 0.000000 0.000000 0.000000 0.340335
    37 4.629130 0.010513 0.143671 -0.024003 0.087577 0.622768
    38 1.304198 -0.000003 0.000001 0.000000 0.000000 0.959921
    39 1.185638 0.000005 0.000000 0.000000 0.000000 1.073356
    40 4.548625 -0.043327 -0.686112 0.151096 0.128690 0.732436
    41 1.252033 0.000002 0.000000 0.000000 0.000000 0.645758
    42 1.117883 -0.000001 0.000000 0.000000 0.000000 1.073371
    43 4.467423 0.243167 -1.402988 0.165599 0.189526 0.660554
    44 0.931570 -0.000004 0.000000 0.000000 0.000000 0.759215
    45 0.846881 0.000003 0.000000 0.000000 0.000000 0.907571
    46 -2.798740 0.071722 3.658022 2.998905 -0.215663 1.689955
    47 18.169476 0.000000 0.000000 0.000000 0.000000 -1.828460
    48 15.617543 0.000000 0.000000 0.150967 0.260293 0.233980
    49 5.333910 2.948816 0.000000 0.000000 0.000000 1.605703
    50 1.530210 0.000000 0.000000 0.000000 0.000000 0.000008
    51 1.529297 0.000000 0.000000 0.000000 0.000000 0.000000
    52 -3.037029 -0.068887 -3.888498 -2.807150 0.116998 3.114314
    53 18.169476 0.000000 0.000000 0.000000 0.000000 -0.635390
    54 15.617540 0.000000 0.000000 -0.075127 0.065618 0.219020
    55 5.333909 2.948817 0.000000 0.000000 0.000000 1.688604
    56 1.530210 0.000000 0.000000 0.000000 0.000000 0.000008
    57 1.529297 0.000000 0.000000 0.000000 0.000000 0.000000
time 4
    0 0.000525 -22.006381 36.168329 0.010182 0.420357 -1.553553
    1 1.899871 0.000000 0.000000 0.000000 -1.470224 -1.570795
    2 2.908120 -0.002997 0.292982 0.022857 -0.051358 0.000330
    3 3.766109 -0.002452 0.000000 0.112859 -0.001618 0.164677
    4 3.080003 -0.003973 0.000000 0.109311 -0.031268 0.159511
    5 4.991577 -0.004970 0.000000 0.111073 -0.078451 -0.047913
    6 6.273438 -0.002703 0.000000 0.000000 0.000000 0.261798
    7 3.516910 0.000000 0.000000 -0.347579 -0.003036 -0.513009
    8 0.000001 0.002796 1.989891 -0.922952 -1.534149 3.801663
    9 5.983815 0.000000 -0.000004 -0.086319 0.608062 -0.617221
    10 9.993211 0.000000 0.000001 0.000000 0.000000 -1.378565
    11 11.116126 0.000000 -0.000001 -2.120431 -0.420848 -0.628255
    12 1.285841 -0.377133 -0.119223 2.698444 0.251474 1.961775
    13 1.132566 0.000002 0.000000 0.000000 0.000000 0.287977
    14 1.908818 0.000003 -0.000001 0.000000 0.000000 0.287979
    15 4.075336 -0.097302 -0.883967 0.244655 0.080205 1.156446
    16 1.117884 0.000000 0.000001 0.000000 0.000000 1.047179
    17 1.016257 -0.000003 0.000000 0.000000 0.000000 1.047172
    18 4.259248 0.003371 -0.025598 0.220047 0.076947 1.371819
    19 1.304198 0.000001 0.000000 0.000000 0.000000 0.986102
    20 1.185635 0.000003 0.000000 0.000000 0.000000 1.047174
    21 4.189393 -0.033134 0.783651 0.035277 0.136696 1.347459
    22 1.252034 0.000001 0.000000 0.000000 0.000000 0.759211
    23 1.117884 0.000007 0.000000 0.000000 0.000000 1.047172
    24 4.105464 0.164729 1.538865 -0.231503 0.048229 0.970964
    25 0.931573 -0.000002 0.000000 0.000000 0.000000 0.724311
    26 0.846878 -0.000002 0.000000 0.000000 0.000000 1.047172
    27 0.000002 0.002806 -1.989891 0.844001 1.291842 -2.579797
    28 5.983815 0.000000 -0.000002 -0.477514 -1.025730 -0.391923
    29 8.327677 0.000000 0.000004 0.000000 0.000000 -1.670042
    30 11.991853 0.000000 -0.000001 1.342076 -0.026389 -0.302338
    31 1.381536 -0.315501 0.115448 -1.804464 -0.431007 1.842135
    32 1.132564 -0.000002 0.000000 0.000000 0.000000 0.619575
    33 1.908819 0.000003 0.000001 0.000000 0.000000 -0.000015
    34 4.425903 -0.135050 0.983363 -0.111111 -0.195137 0.370693
    35 1.117884 0.000004 0.000002 0.000000 0.000000 0.174550
    36 1.016259 0.000002 0.000000 0.000000 0.000000 0.340335
    37 4.629130 0.010513 0.143671 -0.024003 0.087577 0.622768
    38 1.304198 -0.000003 0.000001 0.000000 0.000000 0.959921
    39 1.185638 0.000005 0.000000 0.000000 0.000000 1.073356
    40 4.548625 -0.043327 -0.686112 0.151096 0.128690 0.732436
    41 1.252033 0.000002 0.000000 0.000000 0.000000 0.645758
    42 1.117883 -0.000001 0.000000 0.000000 0.000000 1.073371
    43 4.467423 0.243167 -1.402988 0.165599 0.189526 0.660554
    44 0.931570 -0.000004 0.000000 0.000000 0.000000 0.759215
    45 0.846881 0.000003 0.000000 0.000000 0.000000 0.907571
    46 -2.724519 0.083441 3.626771 2.897700 -0.161059 1.764736
    47 18.169476 0.000000 0.000000 0.000000 0.000000 -1.384045
    48 15.617543 0.000000 0.000000 0.169384 0.251818 0.143467
    49 5.333910 2.948816 0.000000 0.000000 0.000000 1.605703
    50 1.530210 0.000000 0.000000 0.000000 0.000000 0.000008
    51 1.529297 0.000000 0.000000 0.000000 0.000000 0.000000
    52 -3.107343 -0.084513 -3.911936 -2.789916 0.099284 3.228956
    53 18.169476 0.000000 0.000000 0.000000 0.000000 -0.525405
    54 15.617540 0.000000 0.000000 -0.099293 -0.006685 -0.105347
    55 5.333909 2.948817 0.000000 0.000000 0.000000 1.605703
    56 1.530210 0.000000 0.000000 0.000000 0.000000 0.000008
    57 1.529297 0.000000 0.000000 0.000000 0.000000 0.000000
time 5
    0 0.000525 -27.699027 36.449587 0.021496 0.413028 -1.511890
    1 1.899871 0.000000 0.000000 0.000000 -1.475881 -1.570795
    2 2.908120 -0.002997 0.273450 0.024888 -0.040290 0.000412
    3 3.766109 -0.002452 0.000000 0.102217 -0.017234 0.164233
    4 3.080003 -0.003973 0.000000 0.098705 -0.045182 0.159235
    5 4.991577 -0.004970 0.000000 0.057478 -0.078739 -0.049064
    6 6.273438 -0.002703 0.000000 0.000000 0.000000 0.261798
    7 3.516910 0.000000 0.000000 -0.316119 0.042322 -0.521225
    8 0.000001 0.002796 1.989891 -0.920594 -1.539309 3.799354
    9 5.983815 0.000000 -0.000004 -0.050682 0.653131 -0.664721
    10 9.993211 0.000000 0.000001 0.000000 0.000000 -1.286372
    11 11.116126 0.000000 -0.000001 -2.115510 -0.429230 -0.639750
    12 1.285841 -0.377133 -0.119223 2.698487 0.251474 1.961775
    13 1.132566 0.000002 0.000000 0.000000 0.000000 0.287977
    14 1.908818 0.000003 -0.000001 0.000000 0.000000 0.287979
    15 4.075336 -0.097302 -0.883967 0.244655 0.080205 1.156446
    16 1.117884 0.000000 0.000001 0.000000 0.000000 1.047179
    17 1.016257 -0.000003 0.000000 0.000000 0.000000 1.047172
    18 4.259248 0.003371 -0.025598 0.220047 0.076947 1.371819
    19 1.304198 0.000001 0.000000 0.000000 0.000000 0.986102
    20 1.185635 0.000003 0.000000 0.000000 0.000000 1.047174
    21 4.189393 -0.033134 0.783651 0.035277 0.136696 1.347459
    22 1.252034 0.000001 0.000000 0.000000 0.000000 0.759211
    23 1.117884 0.000007 0.000000 0.000000 0.000000 1.047172
    24 4.105464 0.164729 1.538865 -0.231503 0.048229 0.970964
    25 0.931573 -0.000002 0.000000 0.000000 0.000000 0.724311
    26 0.846878 -0.000002 0.000000 0.000000 0.000000 1.047172
    27 0.000002 0.002806 -1.989891 0.738606 1.301576 -2.683792
    28 5.983815 0.000000 -0.000002 -0.586560 -1.003437 -0.235989
    29 8.327677 0.000000 0.000004 0.000000 0.000000 -1.614998
    30 11.991853 0.000000 -0.000001 1.356270 -0.025915 -0.399495
    31 1.381536 -0.315501 0.115448 -1.804464 -0.431007 1.842135
    32 1.132564 -0.000002 0.000000 0.000000 0.000000 0.619592
    33 1.908819 0.000003 0.000001 0.000000 0.000000 -0.000015
    34 4.425903 -0.135050 0.983363 -0.111111 -0.195137 0.370693
    35 1.117884 0.000004 0.000002 0.000000 0.000000 0.174550
    36 1.016259 0.000002 0.000000 0.000000 0.000000 0.340335
    37 4.629130 0.010513 0.143671 -0.024003 0.087577 0.622768
    38 1.304198 -0.000003 0.000001 0.000000 0.000000 0.959921
    39 1.185638 0.000005 0.000000 0.000000 0.000000 1.073356
    40 4.548625 -0.043327 -0.686112 0.151096 0.128690 0.732436
    41 1.252033 0.000002 0.000000 0.000000 0.000000 0.645758
    42 1.117883 -0.000001 0.000000 0.000000 0.000000 1.073371
    43 4.467423 0.243167 -1.402988 0.165599 0.189526 0.660554
    44 0.931570 -0.000004 0.000000 0.000000 0.000000 0.759215
    45 0.846881 0.000003 0.000000 0.000000 0.000000 0.907571
    46 -2.763583 0.091254 3.615052 2.803567 -0.095019 1.870580
    47 18.169476 0.000000 0.000000 0.000000 0.000000 -0.968102
    48 15.617543 0.000000 0.000000 0.204952 0.221567 0.087285
    49 5.333910 2.948816 0.000000 0.000000 0.000000 1.605703
    50 1.530210 0.000000 0.000000 0.000000 0.000000 0.000008
    51 1.529297 0.000000 0.000000 0.000000 0.000000 0.000000
    52 -3.064373 -0.092325 -3.927561 -2.832297 0.079493 3.206374
    53 18.169476 0.000000 0.000000 0.000000 0.000000 -0.716765
    54 15.617540 0.000000 0.000000 -0.154759 -0.040698 -0.294230
    55 5.333909 2.948817 0.000000 0.000000 0.000000 1.605703
    56 1.530210 0.000000 0.000000 0.000000 0.000000 0.000008
    57 1.529297 0.000000 0.000000 0.000000 0.000000 0.000000
time 6
    0 0.000525 -33.391672 35.976917 0.035167 0.401363 -1.471632
    1 1.899871 0.000000 0.000000 0.000000 -1.508239 -1.570795
    2 2.915933 -0.002997 0.179697 0.026021 -0.004498 0.000467
    3 3.766109 -0.002452 0.000000 0.083928 -0.029566 0.164797
    4 3.080003 -0.003973 0.000000 0.080560 -0.055812 0.159727
    5 4.991577 -0.004970 0.000000 -0.015676 -0.081172 -0.051532
    6 6.273438 -0.002703 0.000000 0.000000 0.000000 0.261798
    7 3.516910 0.000000 0.000000 -0.251162 0.092340 -0.529441
    8 0.000001 0.002796 1.989891 -0.917968 -1.543649 3.796773
    9 5.983815 0.000000 -0.000004 0.002555 0.726447 -0.648347
    10 9.993211 0.000000 0.000001 0.000000 0.000000 -1.290321
    11 11.116126 0.000000 -0.000001 -2.081727 -0.409785 -0.577536
    12 1.285841 -0.377133 -0.119223 2.698444 0.251456 1.961775
    13 1.132566 0.000002 0.000000 0.000000 0.000000 0.287977
    14 1.908818 0.000003 -0.000001 0.000000 0.000000 0.287979
    15 4.075336 -0.097302 -0.883967 0.244655 0.080205 1.156446
    16 1.117884 0.000000 0.000001 0.000000 0.000000 1.047179
    17 1.016257 -0.000003 0.000000 0.000000 0.000000 1.047172
    18 4.259248 0.003371 -0.025598 0.220047 0.076947 1.371819
    19 1.304198 0.000001 0.000000 0.000000 0.000000 0.986102
    20 1.185635 0.000003 0.000000 0.000000 0.000000 1.047174
    21 4.189393 -0.033134 0.783651 0.035277 0.136696 1.347459
    22 1.252034 0.000001 0.000000 0.000000 0.000000 0.759211
    23 1.117884 0.000007 0.000000 0.000000 0.000000 1.047172
    24 4.105464 0.164729 1.538865 -0.231503 0.048229 0.970964
    25 0.931573 -0.000002 0.000000 0.000000 0.000000 0.724311
    26 0.846878 -0.000002 0.000000 0.000000 0.000000 1.047172
    27 0.000002 0.002806 -1.989891 0.697677 1.288778 -2.726280
    28 5.983815 0.000000 -0.000002 -0.702259 -0.971326 -0.092232
    29 8.327677 0.000000 0.000004 0.000000 0.000000 -1.577631
    30 11.991853 0.000000 -0.000001 1.388479 -0.033600 -0.489004
    31 1.381536 -0.315501 0.115448 -1.804464 -0.431007 1.842135
    32 1.132564 -0.000002 0.000000 0.000000 0.000000 0.619575
    33 1.908819 0.000003 0.000001 0.000000 0.000000 -0.000015
    34 4.425903 -0.135050 0.983363 -0.111111 -0.195137 0.370693
    35 1.117884 0.000004 0.000002 0.000000 0.000000 0.174550
    36 1.016259 0.000002 0.000000 0.000000 0.000000 0.340335
    37 4.629130 0.010513 0.143671 -0.024003 0.087577 0.622768
    38 1.304198 -0.000003 0.000001 0.000000 0.000000 0.959921
    39 1.185638 0.000005 0.000000 0.000000 0.000000 1.073356
    40 4.548625 -0.043327 -0.686112 0.151096 0.128690 0.732436
    41 1.252033 0.000002 0.000000 0.000000 0.000000 0.645758
    42 1.117883 -0.000001 0.000000 0.000000 0.000000 1.073371
    43 4.467423 0.243167 -1.402988 0.165599 0.189526 0.660554
    44 0.931570 -0.000004 0.000000 0.000000 0.000000 0.759215
    45 0.846881 0.000003 0.000000 0.000000 0.000000 0.907571
    46 -2.900306 0.095160 3.607239 2.752115 -0.064394 2.048712
    47 18.169476 0.000000 0.000000 0.000000 0.000000 -0.857456
    48 15.617543 0.000000 0.000000 0.254924 0.110193 0.327712
    49 5.333910 2.948816 0.000000 0.000000 0.000000 1.605703
    50 1.530210 0.000000 0.000000 0.000000 0.000000 0.000008
    51 1.529297 0.000000 0.000000 0.000000 0.000000 0.000000
    52 -2.931557 -0.096232 -3.943187 -2.705967 0.146822 3.120716
    53 18.169476 0.000000 0.000000 0.000000 0.000000 -1.135599
    54 15.617540 0.000000 0.000000 -0.256257 -0.165821 -0.319866
    55 5.333909 2.948817 0.000000 0.000000 0.000000 1.605703
    56 1.530210 0.000000 0.000000 0.000000 0.000000 0.000008
    57 1.529297 0.000000 0.000000 0.000000 0.000000 0.000000
time 7
    0 0.000525 -39.092131 35.004231 0.045633 0.394226 -1.439426
    1 1.899871 0.000000 0.000000 0.000000 -1.533526 -1.570795
    2 2.919839 -0.002997 0.105476 0.026257 0.021867 0.000494
    3 3.766109 -0.002452 0.000000 0.056244 -0.034827 0.165144
    4 3.080003 -0.003973 0.000000 0.053056 -0.059456 0.159223
    5 4.991577 -0.004970 0.000000 -0.016503 -0.076318 -0.056494
    6 6.273438 -0.002703 0.000000 0.000000 0.000000 0.261798
    7 3.516910 0.000000 0.000000 -0.227679 0.110606 -0.541106
    8 0.000001 0.002796 1.989891 -0.914465 -1.547815 3.793310
    9 5.983815 0.000000 -0.000004 -0.094495 0.815316 -0.867477
    10 9.993211 0.000000 0.000001 0.000000 0.000000 -1.201342
    11 11.116126 0.000000 -0.000001 -2.022205 -0.386642 -0.498201
    12 1.285841 -0.377133 -0.119223 2.698444 0.251456 1.961775
    13 1.132566 0.000002 0.000000 0.000000 0.000000 0.287977
    14 1.908818 0.000003 -0.000001 0.000000 0.000000 0.287979
    15 4.075336 -0.097302 -0.883967 0.244655 0.080205 1.156446
    16 1.117884 0.000000 0.000001 0.000000 0.000000 1.047179
    17 1.016257 -0.000003 0.000000 0.000000 0.000000 1.047172
    18 4.259248 0.003371 -0.025598 0.220047 0.076947 1.371819
    19 1.304198 0.000001 0.000000 0.000000 0.000000 0.986102
    20 1.185635 0.000003 0.000000 0.000000 0.000000 1.047174
    21 4.189393 -0.033134 0.783651 0.035277 0.136696 1.347459
    22 1.252034 0.000001 0.000000 0.000000 0.000000 0.759211
    23 1.117884 0.000007 0.000000 0.000000 0.000000 1.047172
    24 4.105464 0.164729 1.538865 -0.231503 0.048229 0.970964
    25 0.931573 -0.000002 0.000000 0.000000 0.000000 0.724311
    26 0.846878 -0.000002 0.000000 0.000000 0.000000 1.047172
    27 0.000002 0.002806 -1.989891 0.782655 1.255712 -2.646698
    28 5.983815 0.000000 -0.000002 -0.800555 -0.894441 0.094593
    29 8.327677 0.000000 0.000004 0.000000 0.000000 -1.614083
    30 11.991853 0.000000 -0.000001 1.386593 -0.025983 -0.495675
    31 1.381536 -0.315501 0.115448 -1.804464 -0.431007 1.842135
    32 1.132564 -0.000002 0.000000 0.000000 0.000000 0.619575
    33 1.908819 0.000003 0.000001 0.000000 0.000000 -0.000015
    34 4.425903 -0.135050 0.983363 -0.111111 -0.195137 0.370693
    35 1.117884 0.000004 0.000002 0.000000 0.000000 0.174550
    36 1.016259 0.000002 0.000000 0.000000 0.000000 0.340335
    37 4.629130 0.010513 0.143671 -0.024003 0.087577 0.622768
    38 1.304198 -0.000003 0.000001 0.000000 0.000000 0.959921
    39 1.185638 0.000005 0.000000 0.000000 0.000000 1.073356
    40 4.548625 -0.043327 -0.686112 0.151096 0.128690 0.732436
    41 1.252033 0.000002 0.000000 0.000000 0.000000 0.645758
    42 1.117883 -0.000001 0.000000 0.000000 0.000000 1.073371
    43 4.467423 0.243167 -1.402988 0.165599 0.189526 0.660554
    44 0.931570 -0.000004 0.000000 0.000000 0.000000 0.759215
    45 0.846881 0.000003 0.000000 0.000000 0.000000 0.907571
    46 -2.994058 0.095160 3.603333 2.744768 -0.050414 2.183893
    47 18.169476 0.000000 0.000000 0.000000 0.000000 -0.889170
    48 15.617543 0.000000 0.000000 0.237832 0.066147 0.317944
    49 5.333910 2.948816 0.000000 0.000000 0.000000 1.605703
    50 1.530210 0.000000 0.000000 0.000000 0.000000 0.000008
    51 1.529297 0.000000 0.000000 0.000000 0.000000 0.000000
    52 -2.833897 -0.096232 -3.943187 -2.712742 0.183081 2.960391
    53 18.169476 0.000000 0.000000 0.000000 0.000000 -1.592658
    54 15.617540 0.000000 0.000000 -0.100455 -0.185038 -0.300825
    55 5.333909 2.948817 0.000000 0.000000 0.000000 1.605703
    56 1.530210 0.000000 0.000000 0.000000 0.000000 0.000008
    57 1.529297 0.000000 0.000000 0.000000 0.000000 0.000000
time 8
    0 0.000525 -44.796495 33.906541 0.048461 0.396567 -1.420046
    1 1.899871 0.000000 0.000000 0.000000 -1.530255 -1.570795
    2 2.919839 -0.002997 0.117195 0.025454 0.016858 0.000439
    3 3.766109 -0.002452 0.000000 0.023897 -0.032862 0.164197
    4 3.080003 -0.003973 0.000000 0.020901 -0.056220 0.157054
    5 4.991577 -0.004970 0.000000 -0.016263 -0.072171 -0.062678
    6 6.273438 -0.002703 0.000000 0.000000 0.000000 0.261798
    7 3.516910 0.000000 0.000000 -0.182061 0.124611 -0.548811
    8 0.000001 0.002796 1.989891 -0.909347 -1.552051 3.788216
    9 5.983815 0.000000 -0.000004 -0.078580 0.867186 -0.857317
    10 9.993211 0.000000 0.000001 0.000000 0.000000 -1.284903
    11 11.116126 0.000000 -0.000001 -1.978297 -0.366044 -0.413858
    12 1.285841 -0.377133 -0.119223 2.698444 0.251474 1.961775
    13 1.132566 0.000002 0.000000 0.000000 0.000000 0.287977
    14 1.908818 0.000003 -0.000001 0.000000 0.000000 0.287979
    15 4.075336 -0.097302 -0.883967 0.244655 0.080205 1.156446
    16 1.117884 0.000000 0.000001 0.000000 0.000000 1.047179
    17 1.016257 -0.000003 0.000000 0.000000 0.000000 1.047172
    18 4.259248 0.003371 -0.025598 0.220047 0.076947 1.371819
    19 1.304198 0.000001 0.000000 0.000000 0.000000 0.986102
    20 1.185635 0.000003 0.000000 0.000000 0.000000 1.047174
    21 4.189393 -0.033134 0.783651 0.035277 0.136696 1.347459
    22 1.252034 0.000001 0.000000 0.000000 0.000000 0.759211
    23 1.117884 0.000007 0.000000 0.000000 0.000000 1.047172
    24 4.105464 0.164729 1.538865 -0.231503 0.048229 0.970964
    25 0.931573 -0.000002 0.000000 0.000000 0.000000 0.724311
    26 0.846878 -0.000002 0.000000 0.000000 0.000000 1.047172
    27 0.000002 0.002806 -1.989891 0.869995 1.216457 -2.565887
    28 5.983815 0.000000 -0.000002 -0.785113 -0.824385 0.083364
    29 8.327677 0.000000 0.000004 0.000000 0.000000 -1.638994
    30 11.991853 0.000000 -0.000001 1.517975 -0.101820 -0.516629
    31 1.381536 -0.315501 0.115448 -1.804464 -0.431007 1.842135
    32 1.132564 -0.000002 0.000000 0.000000 0.000000 0.619575
    33 1.908819 0.000003 0.000001 0.000000 0.000000 -0.000015
    34 4.425903 -0.135050 0.983363 -0.111111 -0.195137 0.370693
    35 1.117884 0.000004 0.000002 0.000000 0.000000 0.174550
    36 1.016259 0.000002 0.000000 0.000000 0.000000 0.340335
    37 4.629130 0.010513 0.143671 -0.024003 0.087577 0.622768
    38 1.304198 -0.000003 0.000001 0.000000 0.000000 0.959921
    39 1.185638 0.000005 0.000000 0.000000 0.000000 1.073356
    40 4.548625 -0.043327 -0.686112 0.151096 0.128690 0.732436
    41 1.252033 0.000002 0.000000 0.000000 0.000000 0.645758
    42 1.117883 -0.000001 0.000000 0.000000 0.000000 1.073371
    43 4.467423 0.243167 -1.402988 0.165599 0.189526 0.660554
    44 0.931570 -0.000004 0.000000 0.000000 0.000000 0.759215
    45 0.846881 0.000003 0.000000 0.000000 0.000000 0.907571
    46 -2.978433 0.095160 3.607239 2.811489 -0.065082 2.273630
    47 18.169476 0.000000 0.000000 0.000000 0.000000 -1.089742
    48 15.617543 0.000000 0.000000 0.217269 -0.016151 0.619871
    49 5.333910 2.948816 0.000000 0.000000 0.000000 1.522807
    50 1.530210 0.000000 0.000000 0.000000 0.000000 0.000008
    51 1.529297 0.000000 0.000000 0.000000 0.000000 0.000000
    52 -2.853429 -0.092325 -3.939281 -2.754093 0.215880 2.721935
    53 18.169476 0.000000 0.000000 0.000000 0.000000 -2.009460
    54 15.617540 0.000000 0.000000 0.032900 -0.228097 -0.190481
    55 5.333909 2.948817 0.000000 0.000000 0.000000 1.605703
    56 1.530210 0.000000 0.000000 0.000000 0.000000 0.000008
    57 1.529297 0.000000 0.000000 0.000000 0.000000 0.000000
time 9
    0 0.000525 -50.504766 33.051046 0.041956 0.405162 -1.416114
    1 1.899871 0.000000 0.000000 0.000000 -1.489435 -1.570795
    2 2.912026 -0.002997 0.234386 0.023022 -0.029665 0.000330
    3 3.766109 -0.002452 0.000000 -0.009168 -0.023550 0.161753
    4 3.080003 -0.003973 0.000000 -0.012021 -0.046249 0.153530
    5 4.991577 -0.004970 0.000000 -0.014849 -0.069367 -0.068347
    6 6.273438 -0.002703 0.000000 0.000000 0.000000 0.261798
    7 3.516910 0.000000 0.000000 -0.118726 0.134168 -0.547236
    8 0.000001 0.002796 1.989891 -0.901197 -1.556304 3.780135
    9 5.983815 0.000000 -0.000004 -0.041820 0.920417 -0.802143
    10 9.993211 0.000000 0.000001 0.000000 0.000000 -1.400878
    11 11.116126 0.000000 -0.000001 -1.936092 -0.348568 -0.328573
    12 1.285841 -0.377133 -0.119223 2.698444 0.251474 1.961775
    13 1.132566 0.000002 0.000000 0.000000 0.000000 0.287977
    14 1.908818 0.000003 -0.000001 0.000000 0.000000 0.287979
    15 4.075336 -0.097302 -0.883967 0.244655 0.080205 1.156446
    16 1.117884 0.000000 0.000001 0.000000 0.000000 1.047179
    17 1.016257 -0.000003 0.000000 0.000000 0.000000 1.047172
    18 4.259248 0.003371 -0.025598 0.220047 0.076947 1.371819
    19 1.304198 0.000001 0.000000 0.000000 0.000000 0.986102
    20 1.185635 0.000003 0.000000 0.000000 0.000000 1.047174
    21 4.189393 -0.033134 0.783651 0.035277 0.136696 1.347459
    22 1.252034 0.000001 0.000000 0.000000 0.000000 0.759211
    23 1.117884 0.000007 0.000000 0.000000 0.000000 1.047172
    24 4.105464 0.164729 1.538865 -0.231503 0.048229 0.970964
    25 0.931573 -0.000002 0.000000 0.000000 0.000000 0.724311
    26 0.846878 -0.000002 0.000000 0.000000 0.000000 1.047172
    27 0.000002 0.002806 -1.989891 0.950341 1.172455 -2.492835
    28 5.983815 0.000000 -0.000002 -0.747220 -0.746361 0.044355
    29 8.327677 0.000000 0.000004 0.000000 0.000000 -1.666104
    30 11.991853 0.000000 -0.000001 1.683876 -0.190862 -0.554157
    31 1.381536 -0.315501 0.115448 -1.804464 -0.431007 1.842135
    32 1.132564 -0.000002 0.000000 0.000000 0.000000 0.619575
    33 1.908819 0.000003 0.000001 0.000000 0.000000 -0.000015
    34 4.425903 -0.135050 0.983363 -0.111111 -0.195137 0.370693
    35 1.117884 0.000004 0.000002 0.000000 0.000000 0.174550
    36 1.016259 0.000002 0.000000 0.000000 0.000000 0.340335
    37 4.629130 0.010513 0.143671 -0.024003 0.087577 0.622768
    38 1.304198 -0.000003 0.000001 0.000000 0.000000 0.959921
    39 1.185638 0.000005 0.000000 0.000000 0.000000 1.073356
    40 4.548625 -0.043327 -0.686112 0.151096 0.128690 0.732436
    41 1.252033 0.000002 0.000000 0.000000 0.000000 0.645758
    42 1.117883 -0.000001 0.000000 0.000000 0.000000 1.073371
    43 4.467423 0.243167 -1.402988 0.165599 0.189526 0.660554
    44 0.931570 -0.000004 0.000000 0.000000 0.000000 0.759215
    45 0.846881 0.000003 0.000000 0.000000 0.000000 0.907571
    46 -2.806553 0.087348 3.622865 2.893177 -0.088313 2.374776
    47 18.169476 0.000000 0.000000 0.000000 0.000000 -1.216526
    48 15.617543 0.000000 0.000000 0.166314 -0.058280 0.659302
    49 5.333910 2.948816 0.000000 0.000000 0.000000 1.788957
    50 1.530210 0.000000 0.000000 0.000000 0.000000 0.000008
    51 1.529297 0.000000 0.000000 0.000000 0.000000 0.000000
    52 -3.025309 -0.084513 -3.919749 -2.839288 0.252831 2.397736
    53 18.169476 0.000000 0.000000 0.000000 0.000000 -2.313385
    54 15.617540 0.000000 0.000000 0.039918 -0.343868 -0.032623
    55 5.333909 2.948817 0.000000 0.000000 0.000000 1.605703
    56 1.530210 0.000000 0.000000 0.000000 0.000000 0.000008
    57 1.529297 0.000000 0.000000 0.000000 0.000000 0.000000
time 10
    0 0.000525 -56.216944 33.293241 0.030076 0.412261 -1.428753
    1 1.899871 0.000000 0.000000 0.000000 -1.464004 -1.570795
    2 2.904214 -0.002997 0.308607 0.018677 -0.065658 0.000193
    3 3.766109 -0.002452 0.000000 -0.039118 -0.008006 0.158613
    4 3.080003 -0.003973 0.000000 -0.041910 -0.030740 0.149983
    5 4.991577 -0.004970 0.000000 -0.012512 -0.068384 -0.071738
    6 6.273438 -0.002703 0.000000 0.000000 0.000000 0.261798
    7 3.516910 0.000000 0.000000 -0.044583 0.135439 -0.534762
    8 0.000001 0.002796 1.989891 -0.886716 -1.560470 3.765670
    9 5.983815 0.000000 -0.000004 -0.011113 0.972650 -0.750482
    10 9.993211 0.000000 0.000001 0.000000 0.000000 -1.517129
    11 11.116126 0.000000 -0.000001 -1.893319 -0.334825 -0.244984
    12 1.285841 -0.377133 -0.119223 2.698444 0.251474 1.961775
    13 1.132566 0.000002 0.000000 0.000000 0.000000 0.287977
    14 1.908818 0.000003 -0.000001 0.000000 0.000000 0.287979
    15 4.075336 -0.097302 -0.883967 0.244655 0.080205 1.156446
    16 1.117884 0.000000 0.000001 0.000000 0.000000 1.047179
    17 1.016257 -0.000003 0.000000 0.000000 0.000000 1.047172
    18 4.259248 0.003371 -0.025598 0.220047 0.076947 1.371819
    19 1.304198 0.000001 0.000000 0.000000 0.000000 0.986102
    20 1.185635 0.000003 0.000000 0.000000 0.000000 1.047174
    21 4.189393 -0.033134 0.783651 0.035277 0.136696 1.347459
    22 1.252034 0.000001 0.000000 0.000000 0.000000 0.759211
    23 1.117884 0.000007 0.000000 0.000000 0.000000 1.047172
    24 4.105464 0.164729 1.538865 -0.231503 0.048229 0.970964
    25 0.931573 -0.000002 0.000000 0.000000 0.000000 0.724311
    26 0.846878 -0.000002 0.000000 0.000000 0.000000 1.047172
    27 0.000002 0.002806 -1.989891 1.011972 1.127953 -2.438802
    28 5.983815 0.000000 -0.000002 -0.699349 -0.670851 -0.006200
    29 8.327677 0.000000 0.000004 0.000000 0.000000 -1.690374
    30 11.991853 0.000000 -0.000001 1.854022 -0.271846 -0.606947
    31 1.381536 -0.315501 0.115448 -1.804464 -0.431007 1.842135
    32 1.132564 -0.000002 0.000000 0.000000 0.000000 0.619575
    33 1.908819 0.000003 0.000001 0.000000 0.000000 -0.000015
    34 4.425903 -0.135050 0.983363 -0.111111 -0.195137 0.370693
    35 1.117884 0.000004 0.000002 0.000000 0.000000 0.174550
    36 1.016259 0.000002 0.000000 0.000000 0.000000 0.340335
    37 4.629130 0.010513 0.143671 -0.024003 0.087577 0.622768
    38 1.304198 -0.000003 0.000001 0.000000 0.000000 0.959921
    39 1.185638 0.000005 0.000000 0.000000 0.000000 1.073356
    40 4.548625 -0.043327 -0.686112 0.151096 0.128690 0.732436
    41 1.252033 0.000002 0.000000 0.000000 0.000000 0.645758
    42 1.117883 -0.000001 0.000000 0.000000 0.000000 1.073371
    43 4.467423 0.243167 -1.402988 0.165599 0.189526 0.660554
    44 0.931570 -0.000004 0.000000 0.000000 0.000000 0.759215
    45 0.846881 0.000003 0.000000 0.000000 0.000000 0.907571
    46 -2.669830 0.067816 3.650209 2.956224 -0.082954 2.585121
    47 18.169476 0.000000 0.000000 0.000000 0.000000 -1.118777
    48 15.617543 0.000000 0.000000 0.115500 -0.094511 0.623995
    49 5.333910 2.948816 0.000000 0.000000 0.000000 1.828218
    50 1.530210 0.000000 0.000000 0.000000 0.000000 0.000008
    51 1.529297 0.000000 0.000000 0.000000 0.000000 0.000000
    52 -3.162032 -0.068887 -3.884591 -2.989029 0.254249 2.051301
    53 18.169476 0.000000 0.000000 0.000000 0.000000 -2.404375
    54 15.617540 0.000000 0.000000 0.016960 -0.408926 0.125767
    55 5.333909 2.948817 0.000000 0.000000 0.000000 1.605703
    56 1.530210 0.000000 0.000000 0.000000 0.000000 0.000008
    57 1.529297 0.000000 0.000000 0.000000 0.000000 0.000000
time 11
    0 0.000525 -61.929121 33.426058 0.018385 0.413642 -1.455623
    1 1.899871 0.000000 0.000000 0.000000 -1.494217 -1.570795
    2 2.912026 -0.002997 0.222667 0.012631 -0.050389 0.000055
    3 3.766109 -0.002452 0.000000 -0.062596 0.011757 0.156168
    4 3.080003 -0.003973 0.000000 -0.065388 -0.011673 0.148125
    5 4.991577 -0.004970 0.000000 -0.009528 -0.069595 -0.071798
    6 6.273438 -0.002703 0.000000 0.000000 0.000000 0.261798
    7 3.516910 0.000000 0.000000 0.030528 0.126094 -0.517010
    8 0.000001 0.002796 1.989891 -0.858159 -1.564217 3.737079
    9 5.983815 0.000000 -0.000004 0.005052 1.002303 -0.700603
    10 9.993211 0.000000 0.000001 0.000000 0.000000 -1.624106
    11 11.116126 0.000000 -0.000001 -1.852060 -0.326273 -0.171652
    12 1.285841 -0.377133 -0.119223 2.698444 0.251474 1.961806
    13 1.132566 0.000002 0.000000 0.000000 0.000000 0.287977
    14 1.908818 0.000003 -0.000001 0.000000 0.000000 0.287979
    15 4.075336 -0.097302 -0.883967 0.244655 0.080205 1.156446
    16 1.117884 0.000000 0.000001 0.000000 0.000000 1.047179
    17 1.016257 -0.000003 0.000000 0.000000 0.000000 1.047172
    18 4.259248 0.003371 -0.025598 0.220047 0.076947 1.371819
    19 1.304198 0.000001 0.000000 0.000000 0.000000 0.986102
    20 1.185635 0.000003 0.000000 0.000000 0.000000 1.047174
    21 4.189393 -0.033134 0.783651 0.035277 0.136696 1.347459
    22 1.252034 0.000001 0.000000 0.000000 0.000000 0.759211
    23 1.117884 0.000007 0.000000 0.000000 0.000000 1.047172
    24 4.105464 0.164729 1.538865 -0.231503 0.048229 0.970964
    25 0.931573 -0.000002 0.000000 0.000000 0.000000 0.724311
    26 0.846878 -0.000002 0.000000 0.000000 0.000000 1.047172
    27 0.000002 0.002806 -1.989891 1.049592 1.088157 -2.408522
    28 5.983815 0.000000 -0.000002 -0.653616 -0.606914 -0.052485
    29 8.327677 0.000000 0.000004 0.000000 0.000000 -1.706951
    30 11.991853 0.000000 -0.000001 1.993233 -0.328521 -0.661960
    31 1.381536 -0.315501 0.115448 -1.804464 -0.431007 1.842135
    32 1.132564 -0.000002 0.000000 0.000000 0.000000 0.619575
    33 1.908819 0.000003 0.000001 0.000000 0.000000 -0.000015
    34 4.425903 -0.135050 0.983363 -0.111111 -0.195137 0.370693
    35 1.117884 0.000004 0.000002 0.000000 0.000000 0.174550
    36 1.016259 0.000002 0.000000 0.000000 0.000000 0.340335
    37 4.629130 0.010513 0.143671 -0.024003 0.087577 0.622768
    38 1.304198 -0.000003 0.000001 0.000000 0.000000 0.959921
    39 1.185638 0.000005 0.000000 0.000000 0.000000 1.073356
    40 4.548625 -0.043327 -0.686112 0.151096 0.128690 0.732436
    41 1.252033 0.000002 0.000000 0.000000 0.000000 0.645758
    42 1.117883 -0.000001 0.000000 0.000000 0.000000 1.073371
    43 4.467423 0.243167 -1.402988 0.165599 0.189526 0.660554
    44 0.931570 -0.000004 0.000000 0.000000 0.000000 0.759215
    45 0.846881 0.000003 0.000000 0.000000 0.000000 0.907571
    46 -2.732332 0.048284 3.697086 2.988210 -0.103910 2.766129
    47 18.169476 0.000000 0.000000 0.000000 0.000000 -1.007568
    48 15.617543 0.000000 0.000000 0.126232 -0.093995 0.387656
    49 5.333910 2.948816 0.000000 0.000000 0.000000 2.188342
    50 1.530210 0.000000 0.000000 0.000000 0.000000 0.000008
    51 1.529297 0.000000 0.000000 0.000000 0.000000 0.000000
    52 -3.107343 -0.045449 -3.845528 -3.045989 0.228785 1.843733
    53 18.169476 0.000000 0.000000 0.000000 0.000000 -2.215516
    54 15.617540 0.000000 0.000000 0.004900 -0.207120 0.292631
    55 5.333909 2.948817 0.000000 0.000000 0.000000 1.605703
    56 1.530210 0.000000 0.000000 0.000000 0.000000 0.000008
    57 1.529297 0.000000 0.000000 0.000000 0.000000 0.000000
time 12
    0 0.000525 -67.637392 34.238582 0.008108 0.407503 -1.491574
    1 1.899871 0.000000 0.000000 0.000000 -1.556046 -1.570795
    2 2.919839 -0.002997 0.042974 0.005522 -0.006815 -0.000027
    3 3.766109 -0.002452 0.000000 -0.075311 0.033665 0.156623
    4 3.080003 -0.003973 0.000000 -0.078187 0.008797 0.150259
    5 4.991577 -0.004970 0.000000 -0.067485 -0.080033 -0.068059
    6 6.273438 -0.002703 0.000000 0.000000 0.000000 0.261798
    7 3.516910 0.000000 0.000000 0.151395 0.129483 -0.499514
    8 0.000001 0.002796 1.989891 -0.845699 -1.565106 3.724652
    9 5.983815 0.000000 -0.000004 0.056854 1.055397 -0.587553
    10 9.993211 0.000000 0.000001 0.000000 0.000000 -1.683150
    11 11.116126 0.000000 -0.000001 -1.826510 -0.330583 -0.166806
    12 1.285841 -0.377133 -0.119223 2.698444 0.251474 1.961775
    13 1.132566 0.000002 0.000000 0.000000 0.000000 0.287977
    14 1.908818 0.000003 -0.000001 0.000000 0.000000 0.287979
    15 4.075336 -0.097302 -0.883967 0.244655 0.080205 1.156446
    16 1.117884 0.000000 0.000001 0.000000 0.000000 1.047179
    17 1.016257 -0.000003 0.000000 0.000000 0.000000 1.047172
    18 4.259248 0.003371 -0.025598 0.220047 0.076947 1.371819
    19 1.304198 0.000001 0.000000 0.000000 0.000000 0.986102
    20 1.185635 0.000003 0.000000 0.000000 0.000000 1.047174
    21 4.189393 -0.033134 0.783651 0.035277 0.136696 1.347459
    22 1.252034 0.000001 0.000000 0.000000 0.000000 0.759211
    23 1.117884 0.000007 0.000000 0.000000 0.000000 1.047172
    24 4.105464 0.164729 1.538865 -0.231503 0.048229 0.970964
    25 0.931573 -0.000002 0.000000 0.000000 0.000000 0.724311
    26 0.846878 -0.000002 0.000000 0.000000 0.000000 1.047172
    27 0.000002 0.002806 -1.989891 1.059707 1.058455 -2.405115
    28 5.983815 0.000000 -0.000002 -0.641796 -0.569918 -0.125022
    29 8.327677 0.000000 0.000004 0.000000 0.000000 -1.710614
    30 11.991853 0.000000 -0.000001 2.060150 -0.352051 -0.697635
    31 1.381536 -0.315501 0.115448 -1.804464 -0.431007 1.842135
    32 1.132564 -0.000002 0.000000 0.000000 0.000000 0.619575
    33 1.908819 0.000003 0.000001 0.000000 0.000000 -0.000015
    34 4.425903 -0.135050 0.983363 -0.111111 -0.195137 0.370693
    35 1.117884 0.000004 0.000002 0.000000 0.000000 0.174550
    36 1.016259 0.000002 0.000000 0.000000 0.000000 0.340335
    37 4.629130 0.010513 0.143671 -0.024003 0.087577 0.622768
    38 1.304198 -0.000003 0.000001 0.000000 0.000000 0.959921
    39 1.185638 0.000005 0.000000 0.000000 0.000000 1.073356
    40 4.548625 -0.043327 -0.686112 0.151096 0.128690 0.732436
    41 1.252033 0.000002 0.000000 0.000000 0.000000 0.645758
    42 1.117883 -0.000001 0.000000 0.000000 0.000000 1.073371
    43 4.467423 0.243167 -1.402988 0.165599 0.189526 0.660554
    44 0.931570 -0.000004 0.000000 0.000000 0.000000 0.759215
    45 0.846881 0.000003 0.000000 0.000000 0.000000 0.907571
    46 -2.896399 0.020939 3.755681 3.001729 -0.111963 2.950493
    47 18.169476 0.000000 0.000000 0.000000 0.000000 -0.890791
    48 15.617543 0.000000 0.000000 0.140415 -0.063187 0.127803
    49 5.333910 2.948816 0.000000 0.000000 0.000000 2.042678
    50 1.530210 0.000000 0.000000 0.000000 0.000000 0.000008
    51 1.529297 0.000000 0.000000 0.000000 0.000000 0.000000
    52 -2.943276 -0.018104 -3.794745 -3.054335 0.205016 1.733764
    53 18.169476 0.000000 0.000000 0.000000 0.000000 -1.956696
    54 15.617540 0.000000 0.000000 0.086995 -0.044218 0.412903
    55 5.333909 2.948817 0.000000 0.000000 0.000000 1.605703
    56 1.530210 0.000000 0.000000 0.000000 0.000000 0.000008
    57 1.529297 0.000000 0.000000 0.000000 0.000000 0.000000
time 13
    0 0.000525 -73.345663 35.211268 -0.001509 0.392614 -1.531832
    1 1.899871 0.000000 0.000000 3.141497 -1.538584 1.570702
    2 2.919839 -0.002997 -0.093749 -0.001610 0.021355 -0.000054
    3 3.766109 -0.002452 0.000000 -0.079721 0.054470 0.158960
    4 3.080003 -0.003973 0.000000 -0.082706 0.027876 0.154286
    5 4.991577 -0.004970 0.000000 -0.108449 -0.089537 -0.063181
    6 6.273438 -0.002703 0.000000 0.000000 0.000000 0.261798
    7 3.516910 0.000000 0.000000 0.243185 0.124493 -0.493426
    8 0.000001 0.002796 1.989891 -0.886177 -1.560574 3.765195
    9 5.983815 0.000000 -0.000004 0.076139 1.115338 -0.524435
    10 9.993211 0.000000 0.000001 0.000000 0.000000 -1.657071
    11 11.116126 0.000000 -0.000001 -1.866917 -0.329497 -0.224578
    12 1.285841 -0.377133 -0.119223 2.698444 0.251474 1.961775
    13 1.132566 0.000002 0.000000 0.000000 0.000000 0.287977
    14 1.908818 0.000003 -0.000001 0.000000 0.000000 0.287979
    15 4.075336 -0.097302 -0.883967 0.244655 0.080205 1.156446
    16 1.117884 0.000000 0.000001 0.000000 0.000000 1.047179
    17 1.016257 -0.000003 0.000000 0.000000 0.000000 1.047172
    18 4.259248 0.003371 -0.025598 0.220047 0.076947 1.371819
    19 1.304198 0.000001 0.000000 0.000000 0.000000 0.986102
    20 1.185635 0.000003 0.000000 0.000000 0.000000 1.047174
    21 4.189393 -0.033134 0.783651 0.035277 0.136696 1.347459
    22 1.252034 0.000001 0.000000 0.000000 0.000000 0.759211
    23 1.117884 0.000007 0.000000 0.000000 0.000000 1.047172
    24 4.105464 0.164729 1.538865 -0.231503 0.048229 0.970964
    25 0.931573 -0.000002 0.000000 0.000000 0.000000 0.724311
    26 0.846878 -0.000002 0.000000 0.000000 0.000000 1.047172
    27 0.000002 0.002806 -1.989891 1.028041 1.041712 -2.443250
    28 5.983815 0.000000 -0.000002 -0.669830 -0.546013 -0.140889
    29 8.327677 0.000000 0.000004 0.000000 0.000000 -1.688725
    30 11.991853 0.000000 -0.000001 1.991818 -0.325000 -0.693795
    31 1.381536 -0.315501 0.115448 -1.804464 -0.431007 1.842135
    32 1.132564 -0.000002 0.000000 0.000000 0.000000 0.619575
    33 1.908819 0.000003 0.000001 0.000000 0.000000 -0.000015
    34 4.425903 -0.135050 0.983363 -0.111111 -0.195137 0.370693
    35 1.117884 0.000004 0.000002 0.000000 0.000000 0.174550
    36 1.016259 0.000002 0.000000 0.000000 0.000000 0.340335
    37 4.629130 0.010513 0.143671 -0.024003 0.087577 0.622768
    38 1.304198 -0.000003 0.000001 0.000000 0.000000 0.959921
    39 1.185638 0.000005 0.000000 0.000000 0.000000 1.073356
    40 4.548625 -0.043327 -0.686112 0.151096 0.128690 0.732436
    41 1.252033 0.000002 0.000000 0.000000 0.000000 0.645758
    42 1.117883 -0.000001 0.000000 0.000000 0.000000 1.073371
    43 4.467423 0.243167 -1.402988 0.165599 0.189526 0.660554
    44 0.931570 -0.000004 0.000000 0.000000 0.000000 0.759215
    45 0.846881 0.000003 0.000000 0.000000 0.000000 0.907571
    46 -2.997965 -0.002499 3.802558 2.993533 -0.069094 3.137829
    47 18.169476 0.000000 0.000000 0.000000 0.000000 -0.782542
    48 15.617543 0.000000 0.000000 0.118729 0.015337 -0.118195
    49 5.333910 2.948816 0.000000 0.000000 0.000000 1.536214
    50 1.530210 0.000000 0.000000 0.000000 0.000000 0.000008
    51 1.529297 0.000000 0.000000 0.000000 0.000000 0.000000
    52 -2.841710 0.005334 -3.743962 -3.013688 0.199930 1.785158
    53 18.169476 0.000000 0.000000 0.000000 0.000000 -1.667780
    54 15.617540 0.000000 0.000000 0.083905 -0.041946 0.432618
    55 5.333909 2.948817 0.000000 0.000000 0.000000 1.605703
    56 1.530210 0.000000 0.000000 0.000000 0.000000 0.000008
    57 1.529297 0.000000 0.000000 0.000000 0.000000 0.000000
time 14
    0 0.000525 -79.050028 36.015980 -0.011031 0.369822 -1.571622
    1 1.899871 0.000000 0.000000 3.141497 -1.525281 -4.712292
    2 2.919839 -0.002997 -0.132813 -0.008364 0.015982 -0.000027
    3 3.766109 -0.002452 0.000000 -0.069031 0.071740 0.165084
    4 3.080003 -0.003973 0.000000 -0.072255 0.042953 0.161668
    5 4.991577 -0.004970 0.000000 -0.063075 -0.091706 -0.059155
    6 6.273438 -0.002703 0.000000 0.000000 0.000000 0.261798
    7 3.516910 0.000000 0.000000 0.221083 0.093541 -0.510369
    8 0.000001 0.002796 1.989891 -0.903756 -1.555188 3.782716
    9 5.983815 0.000000 -0.000004 -0.192669 1.149888 -0.873853
    10 9.993211 0.000000 0.000001 0.000000 0.000000 -1.404184
    11 11.116126 0.000000 -0.000001 -1.858874 -0.375105 -0.424384
    12 1.285841 -0.377133 -0.119223 2.698444 0.251474 1.961775
    13 1.132566 0.000002 0.000000 0.000000 0.000000 0.287977
    14 1.908818 0.000003 -0.000001 0.000000 0.000000 0.287979
    15 4.075336 -0.097302 -0.883967 0.244655 0.080205 1.156446
    16 1.117884 0.000000 0.000001 0.000000 0.000000 1.047179
    17 1.016257 -0.000003 0.000000 0.000000 0.000000 1.047172
    18 4.259248 0.003371 -0.025598 0.220047 0.076947 1.371819
    19 1.304198 0.000001 0.000000 0.000000 0.000000 0.986102
    20 1.185635 0.000003 0.000000 0.000000 0.000000 1.047174
    21 4.189393 -0.033134 0.783651 0.035277 0.136696 1.347459
    22 1.252034 0.000001 0.000000 0.000000 0.000000 0.759211
    23 1.117884 0.000007 0.000000 0.000000 0.000000 1.047172
    24 4.105464 0.164729 1.538865 -0.231503 0.048229 0.970964
    25 0.931573 -0.000002 0.000000 0.000000 0.000000 0.724311
    26 0.846878 -0.000002 0.000000 0.000000 0.000000 1.047172
    27 0.000002 0.002806 -1.989891 0.962630 1.034782 -2.514126
    28 5.983815 0.000000 -0.000002 -0.696854 -0.529317 -0.047582
    29 8.327677 0.000000 0.000004 0.000000 0.000000 -1.645314
    30 11.991853 0.000000 -0.000001 1.817050 -0.254512 -0.666204
    31 1.381536 -0.315501 0.115448 -1.804464 -0.431007 1.842135
    32 1.132564 -0.000002 0.000000 0.000000 0.000000 0.619575
    33 1.908819 0.000003 0.000001 0.000000 0.000000 -0.000015
    34 4.425903 -0.135050 0.983363 -0.111111 -0.195137 0.370693
    35 1.117884 0.000004 0.000002 0.000000 0.000000 0.174550
    36 1.016259 0.000002 0.000000 0.000000 0.000000 0.340335
    37 4.629130 0.010513 0.143671 -0.024003 0.087577 0.622768
    38 1.304198 -0.000003 0.000001 0.000000 0.000000 0.959921
    39 1.185638 0.000005 0.000000 0.000000 0.000000 1.073356
    40 4.548625 -0.043327 -0.686112 0.151096 0.128690 0.732436
    41 1.252033 0.000002 0.000000 0.000000 0.000000 0.645758
    42 1.117883 -0.000001 0.000000 0.000000 0.000000 1.073371
    43 4.467423 0.243167 -1.402988 0.165599 0.189526 0.660554
    44 0.931570 -0.000004 0.000000 0.000000 0.000000 0.759215
    45 0.846881 0.000003 0.000000 0.000000 0.000000 0.907571
    46 -2.978433 -0.025937 3.857247 2.978265 -0.026854 3.274447
    47 18.169476 0.000000 0.000000 0.000000 0.000000 -0.775001
    48 15.617543 0.000000 0.000000 0.079911 0.086541 -0.316187
    49 5.333910 2.948816 0.000000 0.000000 0.000000 1.605703
    50 1.530210 0.000000 0.000000 0.000000 0.000000 0.000008
    51 1.529297 0.000000 0.000000 0.000000 0.000000 0.000000
    52 -2.861242 0.032679 -3.689273 -2.943451 0.181766 1.909317
    53 18.169476 0.000000 0.000000 0.000000 0.000000 -1.364871
    54 15.617540 0.000000 0.000000 0.027533 -0.077863 0.408436
    55 5.333909 2.948817 0.000000 0.000000 0.000000 1.605703
    56 1.530210 0.000000 0.000000 0.000000 0.000000 0.000008
    57 1.529297 0.000000 0.000000 0.000000 0.000000 0.000000
time 15
    0 0.000525 -84.750486 36.328490 -0.019705 0.345226 -1.606356
    1 1.899871 0.000000 0.000000 -3.141497 -1.521518 -4.712292
    2 2.919839 -0.002997 -0.140625 -0.014741 0.001750 0.000055
    3 3.766109 -0.002452 0.000000 -0.050072 0.085834 0.172982
    4 3.080003 -0.003973 0.000000 -0.053619 0.054770 0.170321
    5 4.991577 -0.004970 0.000000 -0.000719 -0.092593 -0.055979
    6 6.273438 -0.002703 0.000000 0.000000 0.000000 0.261798
    7 3.516910 0.000000 0.000000 0.163827 0.056892 -0.533443
    8 0.000001 0.002796 1.989891 -0.912849 -1.549366 3.791680
    9 5.983815 0.000000 -0.000004 -0.432207 1.119555 -1.189281
    10 9.993211 0.000000 0.000001 0.000000 0.000000 -1.169938
    11 11.116126 0.000000 -0.000001 -1.837866 -0.416708 -0.618779
    12 1.285841 -0.377133 -0.119223 2.698444 0.251474 1.961806
    13 1.132566 0.000002 0.000000 0.000000 0.000000 0.287977
    14 1.908818 0.000003 -0.000001 0.000000 0.000000 0.287979
    15 4.075336 -0.097302 -0.883967 0.244655 0.080205 1.156446
    16 1.117884 0.000000 0.000001 0.000000 0.000000 1.047179
    17 1.016257 -0.000003 0.000000 0.000000 0.000000 1.047172
    18 4.259248 0.003371 -0.025598 0.220047 0.076947 1.371819
    19 1.304198 0.000001 0.000000 0.000000 0.000000 0.986102
    20 1.185635 0.000003 0.000000 0.000000 0.000000 1.047174
    21 4.189393 -0.033134 0.783651 0.035277 0.136696 1.347459
    22 1.252034 0.000001 0.000000 0.000000 0.000000 0.759211
    23 1.117884 0.000007 0.000000 0.000000 0.000000 1.047172
    24 4.105464 0.164729 1.538865 -0.231503 0.048229 0.970964
    25 0.931573 -0.000002 0.000000 0.000000 0.000000 0.724311
    26 0.846878 -0.000002 0.000000 0.000000 0.000000 1.047172
    27 0.000002 0.002806 -1.989891 0.889940 1.035083 -2.588881
    28 5.983815 0.000000 -0.000002 -0.715919 -0.537380 0.052631
    29 8.327677 0.000000 0.000004 0.000000 0.000000 -1.600619
    30 11.991853 0.000000 -0.000001 1.626344 -0.173799 -0.639321
    31 1.381536 -0.315501 0.115448 -1.804464 -0.431007 1.842135
    32 1.132564 -0.000002 0.000000 0.000000 0.000000 0.619575
    33 1.908819 0.000003 0.000001 0.000000 0.000000 -0.000015
    34 4.425903 -0.135050 0.983363 -0.111111 -0.195137 0.370693
    35 1.117884 0.000004 0.000002 0.000000 0.000000 0.174550
    36 1.016259 0.000002 0.000000 0.000000 0.000000 0.340335
    37 4.629130 0.010513 0.143671 -0.024003 0.087577 0.622768
    38 1.304198 -0.000003 0.000001 0.000000 0.000000 0.959921
    39 1.185638 0.000005 0.000000 0.000000 0.000000 1.073356
    40 4.548625 -0.043327 -0.686112 0.151096 0.128690 0.732436
    41 1.252033 0.000002 0.000000 0.000000 0.000000 0.645758
    42 1.117883 -0.000001 0.000000 0.000000 0.000000 1.073371
    43 4.467423 0.243167 -1.402988 0.165599 0.189526 0.660554
    44 0.931570 -0.000004 0.000000 0.000000 0.000000 0.759215
    45 0.846881 0.000003 0.000000 0.000000 0.000000 0.907571
    46 -2.919837 -0.053282 3.911936 2.920440 -0.057628 3.156715
    47 18.169476 0.000000 0.000000 0.000000 0.000000 -1.271074
    48 15.617543 0.000000 0.000000 0.080232 0.161292 -0.270026
    49 5.333910 2.948816 0.000000 0.000000 0.000000 1.605703
    50 1.530210 0.000000 0.000000 0.000000 0.000000 0.000008
    51 1.529297 0.000000 0.000000 0.000000 0.000000 0.000000
    52 -2.912025 0.056117 -3.638490 -2.852457 0.113780 2.036159
    53 18.169476 0.000000 0.000000 0.000000 0.000000 -1.067357
    54 15.617540 0.000000 0.000000 -0.036624 -0.143576 0.398082
    55 5.333909 2.948817 0.000000 0.000000 0.000000 1.605703
    56 1.530210 0.000000 0.000000 0.000000 0.000000 0.000008
    57 1.529297 0.000000 0.000000 0.000000 0.000000 0.000000
time 16
    0 0.000525 -90.447038 36.152703 -0.024985 0.328151 -1.633132
    1 1.899871 0.000000 0.000000 3.141592 -1.510312 1.570702
    2 2.915933 -0.002997 -0.175783 -0.019889 -0.001617 0.000138
    3 3.766109 -0.002452 0.000000 -0.021129 0.091383 0.180988
    4 3.080003 -0.003973 0.000000 -0.025144 0.058713 0.177548
    5 4.991577 -0.004970 0.000000 -0.000431 -0.097674 -0.055619
    6 6.273438 -0.002703 0.000000 0.000000 0.000000 0.261798
    7 3.516910 0.000000 0.000000 0.136407 0.046653 -0.551535
    8 0.000001 0.002796 1.989891 -0.918304 -1.543178 3.797113
    9 5.983815 0.000000 -0.000004 -0.545609 1.071675 -1.314004
    10 9.993211 0.000000 0.000001 0.000000 0.000000 -0.989501
    11 11.116126 0.000000 -0.000001 -1.829160 -0.446570 -0.776885
    12 1.285841 -0.377133 -0.119223 2.698487 0.251474 1.961806
    13 1.132566 0.000002 0.000000 0.000000 0.000000 0.287977
    14 1.908818 0.000003 -0.000001 0.000000 0.000000 0.287979
    15 4.075336 -0.097302 -0.883967 0.244655 0.080205 1.156446
    16 1.117884 0.000000 0.000001 0.000000 0.000000 1.047179
    17 1.016257 -0.000003 0.000000 0.000000 0.000000 1.047172
    18 4.259248 0.003371 -0.025598 0.220047 0.076947 1.371851
    19 1.304198 0.000001 0.000000 0.000000 0.000000 0.986102
    20 1.185635 0.000003 0.000000 0.000000 0.000000 1.047174
    21 4.189393 -0.033134 0.783651 0.035277 0.136696 1.347459
    22 1.252034 0.000001 0.000000 0.000000 0.000000 0.759211
    23 1.117884 0.000007 0.000000 0.000000 0.000000 1.047172
    24 4.105464 0.164729 1.538865 -0.231503 0.048229 0.970964
    25 0.931573 -0.000002 0.000000 0.000000 0.000000 0.724311
    26 0.846878 -0.000002 0.000000 0.000000 0.000000 1.047172
    27 0.000002 0.002806 -1.989891 0.836439 1.043915 -2.640548
    28 5.983815 0.000000 -0.000002 -0.740033 -0.587894 0.078936
    29 8.327677 0.000000 0.000004 0.000000 0.000000 -1.574884
    30 11.991853 0.000000 -0.000001 1.501045 -0.123082 -0.613718
    31 1.381536 -0.315501 0.115448 -1.804464 -0.431007 1.842135
    32 1.132564 -0.000002 0.000000 0.000000 0.000000 0.619575
    33 1.908819 0.000003 0.000001 0.000000 0.000000 -0.000015
    34 4.425903 -0.135050 0.983363 -0.111111 -0.195137 0.370693
    35 1.117884 0.000004 0.000002 0.000000 0.000000 0.174550
    36 1.016259 0.000002 0.000000 0.000000 0.000000 0.340335
    37 4.629130 0.010513 0.143671 -0.024003 0.087577 0.622768
    38 1.304198 -0.000003 0.000001 0.000000 0.000000 0.959921
    39 1.185638 0.000005 0.000000 0.000000 0.000000 1.073356
    40 4.548625 -0.043327 -0.686112 0.151096 0.128690 0.732436
    41 1.252033 0.000002 0.000000 0.000000 0.000000 0.645758
    42 1.117883 -0.000001 0.000000 0.000000 0.000000 1.073371
    43 4.467423 0.243167 -1.402988 0.165599 0.189526 0.660554
    44 0.931570 -0.000004 0.000000 0.000000 0.000000 0.759215
    45 0.846881 0.000003 0.000000 0.000000 0.000000 0.907571
    46 -2.908118 -0.072813 3.954906 2.908446 -0.073105 2.985103
    47 18.169476 0.000000 0.000000 0.000000 0.000000 -1.756434
    48 15.617543 0.000000 0.000000 0.000028 0.150280 -0.192429
    49 5.333910 2.948816 0.000000 0.000000 0.000000 1.605703
    50 1.530210 0.000000 0.000000 0.000000 0.000000 0.000008
    51 1.529297 0.000000 0.000000 0.000000 0.000000 0.000000
    52 -2.919837 0.071742 -3.595520 -2.774362 0.031609 2.161617
    53 18.169476 0.000000 0.000000 0.000000 0.000000 -0.805800
    54 15.617540 0.000000 0.000000 -0.127665 -0.189786 0.358050
    55 5.333909 2.948817 0.000000 0.000000 0.000000 1.605703
    56 1.530210 0.000000 0.000000 0.000000 0.000000 0.000008
    57 1.529297 0.000000 0.000000 0.000000 0.000000 0.000000
time 17
    0 0.000525 -96.135777 35.773785 -0.021119 0.337705 -1.630605
    1 1.899871 0.000000 0.000000 -3.141497 -1.513009 -4.712292
    2 2.915933 -0.002997 -0.167970 -0.016465 0.005587 0.000083
    3 3.766109 -0.002452 0.000000 -0.005956 0.090747 0.181455
    4 3.080003 -0.003973 0.000000 -0.009408 0.057131 0.177608
    5 4.991577 -0.004970 0.000000 0.001582 -0.100455 -0.055415
    6 6.273438 -0.002703 0.000000 0.000000 0.000000 0.261798
    7 3.516910 0.000000 0.000000 0.101528 0.027775 -0.550301
    8 0.000001 0.002796 1.989891 -0.922346 -1.535631 3.801051
    9 5.983815 0.000000 -0.000004 -0.461728 1.053357 -1.127514
    10 9.993211 0.000000 0.000001 0.000000 0.000000 -1.060023
    11 11.116126 0.000000 -0.000001 -1.924357 -0.438494 -0.743126
    12 1.285841 -0.377133 -0.119223 2.698444 0.251474 1.961806
    13 1.132566 0.000002 0.000000 0.000000 0.000000 0.287977
    14 1.908818 0.000003 -0.000001 0.000000 0.000000 0.287979
    15 4.075336 -0.097302 -0.883967 0.244655 0.080205 1.156446
    16 1.117884 0.000000 0.000001 0.000000 0.000000 1.047179
    17 1.016257 -0.000003 0.000000 0.000000 0.000000 1.047172
    18 4.259248 0.003371 -0.025598 0.220047 0.076947 1.371819
    19 1.304198 0.000001 0.000000 0.000000 0.000000 0.986102
    20 1.185635 0.000003 0.000000 0.000000 0.000000 1.047174
    21 4.189393 -0.033134 0.783651 0.035277 0.136696 1.347459
    22 1.252034 0.000001 0.000000 0.000000 0.000000 0.759211
    23 1.117884 0.000007 0.000000 0.000000 0.000000 1.047172
    24 4.105464 0.164729 1.538865 -0.231503 0.048229 0.970964
    25 0.931573 -0.000002 0.000000 0.000000 0.000000 0.724311
    26 0.846878 -0.000002 0.000000 0.000000 0.000000 1.047172
    27 0.000002 0.002806 -1.989891 0.806286 1.064404 -2.664961
    28 5.983815 0.000000 -0.000002 -0.737954 -0.651831 0.036869
    29 8.327677 0.000000 0.000004 0.000000 0.000000 -1.572502
    30 11.991853 0.000000 -0.000001 1.454123 -0.112282 -0.576762
    31 1.381536 -0.315501 0.115448 -1.804464 -0.431007 1.842135
    32 1.132564 -0.000002 0.000000 0.000000 0.000000 0.619575
    33 1.908819 0.000003 0.000001 0.000000 0.000000 -0.000015
    34 4.425903 -0.135050 0.983363 -0.111111 -0.195137 0.370693
    35 1.117884 0.000004 0.000002 0.000000 0.000000 0.174550
    36 1.016259 0.000002 0.000000 0.000000 0.000000 0.340335
    37 4.629130 0.010513 0.143671 -0.024003 0.087577 0.622768
    38 1.304198 -0.000003 0.000001 0.000000 0.000000 0.959921
    39 1.185638 0.000005 0.000000 0.000000 0.000000 1.073356
    40 4.548625 -0.043327 -0.686112 0.151096 0.128690 0.732436
    41 1.252033 0.000002 0.000000 0.000000 0.000000 0.645758
    42 1.117883 -0.000001 0.000000 0.000000 0.000000 1.073371
    43 4.467423 0.243167 -1.402988 0.165599 0.189526 0.660554
    44 0.931570 -0.000004 0.000000 0.000000 0.000000 0.759215
    45 0.846881 0.000003 0.000000 0.000000 0.000000 0.907571
    46 -2.935463 -0.061094 3.923655 2.908321 -0.098581 2.830843
    47 18.169476 0.000000 0.000000 0.000000 0.000000 -1.905066
    48 15.617543 0.000000 0.000000 -0.021437 0.152363 -0.138562
    49 5.333910 2.948816 0.000000 0.000000 0.000000 1.605703
    50 1.530210 0.000000 0.000000 0.000000 0.000000 0.000008
    51 1.529297 0.000000 0.000000 0.000000 0.000000 0.000000
    52 -2.896399 0.060023 -3.622865 -2.766016 0.019189 2.258954
    53 18.169476 0.000000 0.000000 0.000000 0.000000 -0.715279
    54 15.617540 0.000000 0.000000 -0.193750 -0.136106 0.156969
    55 5.333909 2.948817 0.000000 0.000000 0.000000 1.605703
    56 1.530210 0.000000 0.000000 0.000000 0.000000 0.000008
    57 1.529297 0.000000 0.000000 0.000000 0.000000 0.000000
time 18
    0 0.000525 -101.812797 35.234707 -0.015934 0.351212 -1.623770
    1 1.899871 0.000000 0.000000 3.141497 -1.517144 1.570702
    2 2.915933 -0.002997 -0.156251 -0.012119 0.013909 0.000028
    3 3.766109 -0.002452 0.000000 0.007766 0.089501 0.181132
    4 3.080003 -0.003973 0.000000 0.004998 0.055009 0.176888
    5 4.991577 -0.004970 0.000000 0.003787 -0.102984 -0.055224
    6 6.273438 -0.002703 0.000000 0.000000 0.000000 0.261798
    7 3.516910 0.000000 0.000000 0.065786 0.008238 -0.545831
    8 0.000001 0.002796 1.989891 -0.925174 -1.527665 3.803700
    9 5.983815 0.000000 -0.000004 -0.338963 1.004253 -0.855858
    10 9.993211 0.000000 0.000001 0.000000 0.000000 -1.208872
    11 11.116126 0.000000 -0.000001 -1.985488 -0.412602 -0.653776
    12 1.285841 -0.377133 -0.119223 2.698444 0.251474 1.961775
    13 1.132566 0.000002 0.000000 0.000000 0.000000 0.287977
    14 1.908818 0.000003 -0.000001 0.000000 0.000000 0.287979
    15 4.075336 -0.097302 -0.883967 0.244655 0.080205 1.156446
    16 1.117884 0.000000 0.000001 0.000000 0.000000 1.047179
    17 1.016257 -0.000003 0.000000 0.000000 0.000000 1.047172
    18 4.259248 0.003371 -0.025598 0.220047 0.076947 1.371819
    19 1.304198 0.000001 0.000000 0.000000 0.000000 0.986102
    20 1.185635 0.000003 0.000000 0.000000 0.000000 1.047174
    21 4.189393 -0.033134 0.783651 0.035277 0.136696 1.347459
    22 1.252034 0.000001 0.000000 0.000000 0.000000 0.759211
    23 1.117884 0.000007 0.000000 0.000000 0.000000 1.047172
    24 4.105464 0.164729 1.538865 -0.231503 0.048229 0.970964
    25 0.931573 -0.000002 0.000000 0.000000 0.000000 0.724311
    26 0.846878 -0.000002 0.000000 0.000000 0.000000 1.047172
    27 0.000002 0.002806 -1.989891 0.782655 1.094486 -2.680386
    28 5.983815 0.000000 -0.000002 -0.710396 -0.731800 -0.053486
    29 8.327677 0.000000 0.000004 0.000000 0.000000 -1.581112
    30 11.991853 0.000000 -0.000001 1.437288 -0.118376 -0.527847
    31 1.381536 -0.315501 0.115448 -1.804464 -0.431007 1.842135
    32 1.132564 -0.000002 0.000000 0.000000 0.000000 0.619575
    33 1.908819 0.000003 0.000001 0.000000 0.000000 -0.000015
    34 4.425903 -0.135050 0.983363 -0.111111 -0.195137 0.370693
    35 1.117884 0.000004 0.000002 0.000000 0.000000 0.174550
    36 1.016259 0.000002 0.000000 0.000000 0.000000 0.340335
    37 4.629130 0.010513 0.143671 -0.024003 0.087577 0.622768
    38 1.304198 -0.000003 0.000001 0.000000 0.000000 0.959921
    39 1.185638 0.000005 0.000000 0.000000 0.000000 1.073356
    40 4.548625 -0.043327 -0.686112 0.151096 0.128690 0.732436
    41 1.252033 0.000002 0.000000 0.000000 0.000000 0.645758
    42 1.117883 -0.000001 0.000000 0.000000 0.000000 1.073371
    43 4.467423 0.243167 -1.402988 0.165599 0.189526 0.660554
    44 0.931570 -0.000004 0.000000 0.000000 0.000000 0.759215
    45 0.846881 0.000003 0.000000 0.000000 0.000000 0.907571
    46 -2.966714 -0.041562 3.888498 2.910969 -0.124536 2.678405
    47 18.169476 0.000000 0.000000 0.000000 0.000000 -2.018460
    48 15.617543 0.000000 0.000000 -0.037145 0.159023 -0.087011
    49 5.333910 2.948816 0.000000 0.000000 0.000000 1.605703
    50 1.530210 0.000000 0.000000 0.000000 0.000000 0.000008
    51 1.529297 0.000000 0.000000 0.000000 0.000000 0.000000
    52 -2.865148 0.044398 -3.661928 -2.760759 0.079286 2.314934
    53 18.169476 0.000000 0.000000 0.000000 0.000000 -0.975038
    54 15.617540 0.000000 0.000000 -0.171234 -0.080237 0.451871
    55 5.333909 2.948817 0.000000 0.000000 0.000000 1.605703
    56 1.530210 0.000000 0.000000 0.000000 0.000000 0.000008
    57 1.529297 0.000000 0.000000 0.000000 0.000000 0.000000
time 19
    0 0.000525 -107.485911 34.613594 -0.010277 0.365563 -1.615531
    1 1.899871 0.000000 0.000000 3.141497 -1.522117 -4.712292
    2 2.919839 -0.002997 -0.140625 -0.007278 0.022863 0.000055
    3 3.766109 -0.002452 0.000000 0.020685 0.087895 0.180317
    4 3.080003 -0.003973 0.000000 0.018648 0.052576 0.175690
    5 4.991577 -0.004970 0.000000 0.006100 -0.105381 -0.055044
    6 6.273438 -0.002703 0.000000 0.000000 0.000000 0.261798
    7 3.516910 0.000000 0.000000 0.029526 -0.011416 -0.538892
    8 0.000001 0.002796 1.989891 -0.926656 -1.521999 3.805058
    9 5.983815 0.000000 -0.000004 -0.276988 0.946080 -0.683095
    10 9.993211 0.000000 0.000001 0.000000 0.000000 -1.315573
    11 11.116126 0.000000 -0.000001 -2.022489 -0.389968 -0.586340
    12 1.285841 -0.377133 -0.119223 2.698444 0.251474 1.961775
    13 1.132566 0.000002 0.000000 0.000000 0.000000 0.287977
    14 1.908818 0.000003 -0.000001 0.000000 0.000000 0.287979
    15 4.075336 -0.097302 -0.883967 0.244655 0.080205 1.156446
    16 1.117884 0.000000 0.000001 0.000000 0.000000 1.047179
    17 1.016257 -0.000003 0.000000 0.000000 0.000000 1.047172
    18 4.259248 0.003371 -0.025598 0.220047 0.076947 1.371819
    19 1.304198 0.000001 0.000000 0.000000 0.000000 0.986102
    20 1.185635 0.000003 0.000000 0.000000 0.000000 1.047174
    21 4.189393 -0.033134 0.783651 0.035277 0.136696 1.347459
    22 1.252034 0.000001 0.000000 0.000000 0.000000 0.759211
    23 1.117884 0.000007 0.000000 0.000000 0.000000 1.047172
    24 4.105464 0.164729 1.538865 -0.231503 0.048229 0.970964
    25 0.931573 -0.000002 0.000000 0.000000 0.000000 0.724311
    26 0.846878 -0.000002 0.000000 0.000000 0.000000 1.047172
    27 0.000002 0.002806 -1.989891 0.762143 1.130256 -2.691930
    28 5.983815 0.000000 -0.000002 -0.650468 -0.814045 -0.186383
    29 8.327677 0.000000 0.000004 0.000000 0.000000 -1.596040
    30 11.991853 0.000000 -0.000001 1.436769 -0.134830 -0.471823
    31 1.381536 -0.315501 0.115448 -1.804464 -0.431007 1.842135
    32 1.132564 -0.000002 0.000000 0.000000 0.000000 0.619575
    33 1.908819 0.000003 0.000001 0.000000 0.000000 -0.000015
    34 4.425903 -0.135050 0.983363 -0.111111 -0.195137 0.370693
    35 1.117884 0.000004 0.000002 0.000000 0.000000 0.174550
    36 1.016259 0.000002 0.000000 0.000000 0.000000 0.340335
    37 4.629130 0.010513 0.143671 -0.024003 0.087577 0.622768
    38 1.304198 -0.000003 0.000001 0.000000 0.000000 0.959921
    39 1.185638 0.000005 0.000000 0.000000 0.000000 1.073356
    40 4.548625 -0.043327 -0.686112 0.151096 0.128690 0.732436
    41 1.252033 0.000002 0.000000 0.000000 0.000000 0.645758
    42 1.117883 -0.000001 0.000000 0.000000 0.000000 1.073371
    43 4.467423 0.243167 -1.402988 0.165599 0.189526 0.660554
    44 0.931570 -0.000004 0.000000 0.000000 0.000000 0.759215
    45 0.846881 0.000003 0.000000 0.000000 0.000000 0.907571
    46 -3.001871 -0.022031 3.849434 2.915717 -0.150611 2.526926
    47 18.169476 0.000000 0.000000 0.000000 0.000000 -2.111839
    48 15.617543 0.000000 0.000000 -0.048720 0.169086 -0.036654
    49 5.333910 2.948816 0.000000 0.000000 0.000000 1.605703
    50 1.530210 0.000000 0.000000 0.000000 0.000000 0.000008
    51 1.529297 0.000000 0.000000 0.000000 0.000000 0.000000
    52 -2.833897 0.028772 -3.700992 -2.744663 0.109386 2.479846
    53 18.169476 0.000000 0.000000 0.000000 0.000000 -1.026083
    54 15.617540 0.000000 0.000000 -0.132614 -0.015055 0.684226
    55 5.333909 2.948817 0.000000 0.000000 0.000000 1.605703
    56 1.530210 0.000000 0.000000 0.000000 0.000000 0.000008
    57 1.529297 0.000000 0.000000 0.000000 0.000000 0.000000
time 20
    0 0.000525 -112.631665 33.988575 -0.005374 0.377611 -1.608790
    1 1.899871 0.000000 0.000000 3.141497 -1.527283 -4.712292
    2 2.919839 -0.002997 -0.125000 -0.002295 0.031966 0.000138
    3 3.766109 -0.002452 0.000000 0.033389 0.086217 0.179370
    4 3.080003 -0.003973 0.000000 0.032107 0.050084 0.174360
    5 4.991577 -0.004970 0.000000 0.008437 -0.107741 -0.054876
    6 6.273438 -0.002703 0.000000 0.000000 0.000000 0.261798
    7 3.516910 0.000000 0.000000 -0.006976 -0.030835 -0.530420
    8 0.000001 0.002796 1.989891 -0.927734 -1.516788 3.806009
    9 5.983815 0.000000 -0.000004 -0.241913 0.883690 -0.542485
    10 9.993211 0.000000 0.000001 0.000000 0.000000 -1.414377
    11 11.116126 0.000000 -0.000001 -2.053717 -0.366723 -0.523964
    12 1.285841 -0.377133 -0.119223 2.698444 0.251474 1.961775
    13 1.132566 0.000002 0.000000 0.000000 0.000000 0.287977
    14 1.908818 0.000003 -0.000001 0.000000 0.000000 0.287979
    15 4.075336 -0.097302 -0.883967 0.244655 0.080205 1.156446
    16 1.117884 0.000000 0.000001 0.000000 0.000000 1.047179
    17 1.016257 -0.000003 0.000000 0.000000 0.000000 1.047172
    18 4.259248 0.003371 -0.025598 0.220047 0.076947 1.371819
    19 1.304198 0.000001 0.000000 0.000000 0.000000 0.986102
    20 1.185635 0.000003 0.000000 0.000000 0.000000 1.047174
    21 4.189393 -0.033134 0.783651 0.035277 0.136696 1.347459
    22 1.252034 0.000001 0.000000 0.000000 0.000000 0.759211
    23 1.117884 0.000007 0.000000 0.000000 0.000000 1.047172
    24 4.105464 0.164729 1.538865 -0.231503 0.048229 0.970964
    25 0.931573 -0.000002 0.000000 0.000000 0.000000 0.724311
    26 0.846878 -0.000002 0.000000 0.000000 0.000000 1.047172
    27 0.000002 0.002806 -1.989891 0.740686 1.167508 -2.704989
    28 5.983815 0.000000 -0.000002 -0.557933 -0.885334 -0.351753
    29 8.327677 0.000000 0.000004 0.000000 0.000000 -1.612434
    30 11.991853 0.000000 -0.000001 1.439410 -0.154128 -0.413947
    31 1.381536 -0.315501 0.115448 -1.804464 -0.431007 1.842135
    32 1.132564 -0.000002 0.000000 0.000000 0.000000 0.619575
    33 1.908819 0.000003 0.000001 0.000000 0.000000 -0.000015
    34 4.425903 -0.135050 0.983363 -0.111111 -0.195137 0.370693
    35 1.117884 0.000004 0.000002 0.000000 0.000000 0.174550
    36 1.016259 0.000002 0.000000 0.000000 0.000000 0.340335
    37 4.629130 0.010513 0.143671 -0.024003 0.087577 0.622768
    38 1.304198 -0.000003 0.000001 0.000000 0.000000 0.959921
    39 1.185638 0.000005 0.000000 0.000000 0.000000 1.073356
    40 4.548625 -0.043327 -0.686112 0.151096 0.128690 0.732436
    41 1.252033 0.000002 0.000000 0.000000 0.000000 0.645758
    42 1.117883 -0.000001 0.000000 0.000000 0.000000 1.073371
    43 4.467423 0.243167 -1.402988 0.165599 0.189526 0.660554
    44 0.931570 -0.000004 0.000000 0.000000 0.000000 0.759215
    45 0.846881 0.000003 0.000000 0.000000 0.000000 0.907571
    46 -3.037029 -0.002499 3.806464 2.922264 -0.176416 2.375830
    47 18.169476 0.000000 0.000000 0.000000 0.000000 -2.200285
    48 15.617543 0.000000 0.000000 -0.058550 0.180779 0.014065
    49 5.333910 2.948816 0.000000 0.000000 0.000000 1.605703
    50 1.530210 0.000000 0.000000 0.000000 0.000000 0.000008
    51 1.529297 0.000000 0.000000 0.000000 0.000000 0.000000
    52 -2.802646 0.009240 -3.740056 -2.742387 0.135370 2.563253
    53 18.169476 0.000000 0.000000 0.000000 0.000000 -1.053364
    54 15.617540 0.000000 0.000000 -0.126689 0.018732 0.729789
    55 5.333909 2.948817 0.000000 0.000000 0.000000 1.671139
    56 1.530210 0.000000 0.000000 0.000000 0.000000 0.000008
    57 1.529297 0.000000 0.000000 0.000000 0.000000 0.000000
time 21
    0 0.000525 -116.753950 33.426058 -0.005374 0.377611 -1.608790
    1 1.899871 0.000000 0.000000 3.141497 -1.532052 1.570702
    2 2.919839 -0.002997 -0.109374 0.002405 0.040759 0.000275
    3 3.766109 -0.002452 0.000000 0.046500 0.084719 0.178639
    4 3.080003 -0.003973 0.000000 0.045949 0.047759 0.173209
    5 4.991577 -0.004970 0.000000 0.010726 -0.110174 -0.054708
    6 6.273438 -0.002703 0.000000 0.000000 0.000000 0.261798
    7 3.516910 0.000000 0.000000 -0.043443 -0.049642 -0.521225
    8 0.000001 0.002796 1.989891 -0.928677 -1.511558 3.806824
    9 5.983815 0.000000 -0.000004 -0.225186 0.817810 -0.417654
    10 9.993211 0.000000 0.000001 0.000000 0.000000 -1.513181
    11 11.116126 0.000000 -0.000001 -2.083052 -0.341747 -0.462935
    12 1.285841 -0.377133 -0.119223 2.698444 0.251474 1.961775
    13 1.132566 0.000002 0.000000 0.000000 0.000000 0.287977
    14 1.908818 0.000003 -0.000001 0.000000 0.000000 0.287979
    15 4.075336 -0.097302 -0.883967 0.244655 0.080205 1.156446
    16 1.117884 0.000000 0.000001 0.000000 0.000000 1.047179
    17 1.016257 -0.000003 0.000000 0.000000 0.000000 1.047172
    18 4.259248 0.003371 -0.025598 0.220047 0.076947 1.371819
    19 1.304198 0.000001 0.000000 0.000000 0.000000 0.986102
    20 1.185635 0.000003 0.000000 0.000000 0.000000 1.047174
    21 4.189393 -0.033134 0.783651 0.035277 0.136696 1.347459
    22 1.252034 0.000001 0.000000 0.000000 0.000000 0.759211
    23 1.117884 0.000007 0.000000 0.000000 0.000000 1.047172
    24 4.105464 0.164729 1.538865 -0.231503 0.048229 0.970964
    25 0.931573 -0.000002 0.000000 0.000000 0.000000 0.724311
    26 0.846878 -0.000002 0.000000 0.000000 0.000000 1.047172
    27 0.000002 0.002806 -1.989891 0.712895 1.201836 -2.725523
    28 5.983815 0.000000 -0.000002 -0.445798 -0.937034 -0.528088
    29 8.327677 0.000000 0.000004 0.000000 0.000000 -1.625714
    30 11.991853 0.000000 -0.000001 1.432949 -0.167501 -0.359338
    31 1.381536 -0.315501 0.115448 -1.804464 -0.430995 1.842135
    32 1.132564 -0.000002 0.000000 0.000000 0.000000 0.619575
    33 1.908819 0.000003 0.000001 0.000000 0.000000 -0.000015
    34 4.425903 -0.135050 0.983363 -0.111111 -0.195137 0.370693
    35 1.117884 0.000004 0.000002 0.000000 0.000000 0.174550
    36 1.016259 0.000002 0.000000 0.000000 0.000000 0.340335
    37 4.629130 0.010513 0.143671 -0.024003 0.087577 0.622768
    38 1.304198 -0.000003 0.000001 0.000000 0.000000 0.959921
    39 1.185638 0.000005 0.000000 0.000000 0.000000 1.073356
    40 4.548625 -0.043327 -0.686112 0.151096 0.128690 0.732436
    41 1.252033 0.000002 0.000000 0.000000 0.000000 0.645758
    42 1.117883 -0.000001 0.000000 0.000000 0.000000 1.073371
    43 4.467423 0.243167 -1.402988 0.165599 0.189526 0.660554
    44 0.931570 -0.000004 0.000000 0.000000 0.000000 0.759215
    45 0.846881 0.000003 0.000000 0.000000 0.000000 0.907571
    46 -3.072186 0.009220 3.767400 2.930361 -0.201443 2.224926
    47 18.169476 0.000000 0.000000 0.000000 0.000000 -2.298950
    48 15.617543 0.000000 0.000000 -0.070045 0.192491 0.067063
    49 5.333910 2.948816 0.000000 0.000000 0.000000 1.605703
    50 1.530210 0.000000 0.000000 0.000000 0.000000 0.000008
    51 1.529297 0.000000 0.000000 0.000000 0.000000 0.000000
    52 -2.767489 -0.002479 -3.775213 -2.740707 0.160246 2.632038
    53 18.169476 0.000000 0.000000 0.000000 0.000000 -1.076346
    54 15.617540 0.000000 0.000000 -0.130407 0.046176 0.742306
    55 5.333909 2.948817 0.000000 0.000000 0.000000 1.736591
    56 1.530210 0.000000 0.000000 0.000000 0.000000 0.000008
    57 1.529297 0.000000 0.000000 0.000000 0.000000 0.000000
end
