version 1
nodes
0 "Point01" -1
1 "Dummy01" 0
2 "Dummy03" 1
3 "Dummy06" 2
4 "Dummy04" 1
5 "Dummy07" 4
6 "Dummy02" 0
7 "Dummy05" 6
8 "Dummy08" 7
9 "blade" 0
10 "manhack" 0
end
skeleton
time 0
0  0.000000 -0.000610 -1.582014  1.570796 -0.000000 1.570796
1  -0.001438 0.168484 -0.000000  0.000000 -3.141593 -0.000000
2  -15.669948 3.969730 0.000001  0.000000 -0.000000 0.000000
3  -7.345604 0.452977 0.000003  0.000000 3.141593 0.000000
4  -15.819247 1.697696 0.000001  0.000000 -0.000000 0.000000
5  -4.181561 -1.080640 0.000003  -0.000000 3.141593 -0.000000
6  -0.000545 -0.165276 -0.000000  0.000000 -3.141593 -0.000000
7  -0.021356 -6.431580 0.000000  0.000000 -0.000000 0.000000
8  6.144617 -1.848603 -0.000001  0.000000 3.141593 0.000000
9  -0.002233 -0.123716 -0.007748  -1.570796 -1.570796 0.000000
10  7.574010 0.385944 0.049126  -1.570796 -1.570796 0.000000
end
triangles
bottom.tga
6  3.308700 7.559000 -1.800600  0.695230 0.085564 0.713676  0.796400 0.992900
6  3.300300 7.553200 -2.681500  0.951553 0.122235 0.282144  0.796100 0.909100
6  3.199400 8.724600 -2.680300  0.932931 0.141545 0.331067  0.853200 0.909200
bottom.tga
6  3.308700 7.559000 -1.800600  0.695230 0.085564 0.713676  0.796400 0.992900
6  3.199400 8.724600 -2.680300  0.932931 0.141545 0.331067  0.853200 0.909200
6  3.097000 8.706300 -1.779800  0.657903 0.147574 0.738502  0.852300 0.994900
bottom.tga
6  3.097000 8.706300 -1.779800  0.657903 0.147574 0.738502  0.852300 0.994900
6  3.199400 8.724600 -2.680300  0.932931 0.141545 0.331067  0.853200 0.909200
6  3.000400 9.557100 -2.683800  0.877621 0.266095 0.398717  0.893700 0.908800
bottom.tga
6  3.097000 8.706300 -1.779800  0.657903 0.147574 0.738502  0.852300 0.994900
6  3.000400 9.557100 -2.683800  0.877621 0.266095 0.398717  0.893700 0.908800
6  2.905600 9.565900 -1.800600  0.647076 0.229008 0.727219  0.894100 0.992900
bottom.tga
6  3.550500 5.821800 -1.800500  0.782087 0.104140 0.614406  0.711800 0.992900
6  3.602300 5.810100 -2.674700  0.941660 0.128802 0.310945  0.711200 0.909700
6  3.300300 7.553200 -2.681500  0.951553 0.122235 0.282144  0.796100 0.909100
bottom.tga
6  3.550500 5.821800 -1.800500  0.782087 0.104140 0.614406  0.711800 0.992900
6  3.300300 7.553200 -2.681500  0.951553 0.122235 0.282144  0.796100 0.909100
6  3.308700 7.559000 -1.800600  0.695230 0.085564 0.713676  0.796400 0.992900
bottom.tga
6  0.549500 -5.291800 -3.408700  0.944145 -0.270386 0.188365  0.170600 0.839800
6  1.655200 -2.804600 -3.746200  0.684813 -0.498600 -0.531441  0.291800 0.807700
6  1.426400 -3.912000 -2.866200  0.668502 -0.739119 0.082508  0.237800 0.891500
bottom.tga
6  4.229600 3.444900 -4.264300  0.978732 -0.081780 -0.188139  0.596100 0.758400
6  3.294300 1.822500 -5.521600  0.860675 -0.339983 -0.379012  0.517100 0.638700
6  3.489700 3.638200 -6.658000  0.876348 -0.252267 -0.410335  0.605500 0.530500
bottom.tga
6  1.630100 -3.566100 -1.800500  0.328075 -0.649294 0.686137  0.254700 0.992900
6  1.603600 -3.585500 -2.565100  0.347024 -0.854296 0.386980  0.253700 0.920100
6  2.850800 -2.762800 -2.584700  0.672577 -0.732371 -0.106176  0.293800 0.918300
bottom.tga
6  1.630100 -3.566100 -1.800500  0.328075 -0.649294 0.686137  0.254700 0.992900
6  2.850800 -2.762800 -2.584700  0.672577 -0.732371 -0.106176  0.293800 0.918300
6  2.933900 -2.721600 -1.800500  0.560224 -0.454306 0.692644  0.295800 0.992900
bottom.tga
6  4.115900 5.938300 -6.882900  0.812303 0.057797 -0.580365  0.717500 0.509100
6  3.585600 8.131900 -6.292700  0.770037 0.238690 -0.591667  0.824300 0.565300
6  4.095800 7.541500 -4.549400  0.994258 0.106904 0.004699  0.795500 0.731200
bottom.tga
6  4.115900 5.938300 -6.882900  0.812303 0.057797 -0.580365  0.717500 0.509100
6  4.095800 7.541500 -4.549400  0.994258 0.106904 0.004699  0.795500 0.731200
6  4.230700 5.786500 -4.605700  0.999976 -0.002577 -0.006379  0.710100 0.725900
bottom.tga
6  2.905600 9.565900 -1.800600  0.647076 0.229008 0.727219  0.894100 0.992900
6  3.000400 9.557100 -2.683800  0.877621 0.266095 0.398717  0.893700 0.908800
6  2.611700 10.424700 -2.690800  0.750569 0.615067 0.241534  0.935900 0.908200
bottom.tga
6  2.905600 9.565900 -1.800600  0.647076 0.229008 0.727219  0.894100 0.992900
6  2.611700 10.424700 -2.690800  0.750569 0.615067 0.241534  0.935900 0.908200
6  2.577700 10.432300 -1.800600  0.534052 0.616131 0.578940  0.936300 0.992900
bottom.tga
6  2.859100 3.641000 -7.379400  0.598708 0.119949 -0.791935  0.605600 0.461800
7  2.151700 1.325400 -9.189900  0.760192 -0.175528 -0.625539  0.492900 0.289400
6  1.640400 2.980500 -8.658600  0.329447 0.681514 -0.653454  0.573500 0.340000
bottom.tga
7  0.997800 -1.729600 -7.340200  0.330128 -0.678544 -0.656197  0.344100 0.465500
6  1.157800 -2.188300 -6.436000  0.771210 -0.556829 -0.308507  0.321800 0.551600
7  0.051500 -2.204900 -7.148500  0.024412 -0.566600 -0.823631  0.321000 0.483800
bottom.tga
6  0.051500 -5.659800 -4.678600  0.000054 -0.481193 -0.876615  0.152700 0.718900
6  0.508600 -5.291600 -4.119100  0.865025 -0.329072 -0.378738  0.170700 0.772200
6  0.051500 -8.453200 -3.519900  -0.000000 -0.576144 -0.817348  0.016700 0.829200
bottom.tga
6  0.051500 -8.453200 -3.519900  -0.000000 -0.576144 -0.817348  0.016700 0.829200
6  0.508600 -5.291600 -4.119100  0.865025 -0.329072 -0.378738  0.170700 0.772200
6  0.549500 -5.291800 -3.408700  0.944145 -0.270386 0.188365  0.170600 0.839800
bottom.tga
6  0.051500 -8.453200 -3.519900  -0.000000 -0.576144 -0.817348  0.016700 0.829200
6  0.549500 -5.291800 -3.408700  0.944145 -0.270386 0.188365  0.170600 0.839800
6  0.051500 -8.796300 -3.189900  -0.000000 -0.985206 -0.171375  0.000000 0.860700
bottom.tga
6  0.051500 -8.796300 -3.189900  -0.000000 -0.985206 -0.171375  0.000000 0.860700
6  0.549500 -5.291800 -3.408700  0.944145 -0.270386 0.188365  0.170600 0.839800
6  0.051500 -8.519600 -2.839200  -0.000010 -0.157607 0.987502  0.013500 0.894000
bottom.tga
6  0.051500 -8.519600 -2.839200  -0.000010 -0.157607 0.987502  0.013500 0.894000
6  0.549500 -5.291800 -3.408700  0.944145 -0.270386 0.188365  0.170600 0.839800
6  0.051500 -5.292100 -2.875700  0.000052 -0.070619 0.997503  0.170600 0.890600
bottom.tga
6  3.294300 1.822500 -5.521600  0.860675 -0.339983 -0.379012  0.517100 0.638700
6  2.606400 -0.610200 -4.496200  0.753672 -0.398499 -0.522664  0.398600 0.736300
6  2.304200 -1.707400 -4.121200  0.634468 -0.469123 -0.614308  0.345200 0.772000
bottom.tga
6  3.294300 1.822500 -5.521600  0.860675 -0.339983 -0.379012  0.517100 0.638700
6  2.304200 -1.707400 -4.121200  0.634468 -0.469123 -0.614308  0.345200 0.772000
6  1.655200 -2.804600 -3.746200  0.684813 -0.498600 -0.531441  0.291800 0.807700
bottom.tga
6  3.294300 1.822500 -5.521600  0.860675 -0.339983 -0.379012  0.517100 0.638700
6  1.655200 -2.804600 -3.746200  0.684813 -0.498600 -0.531441  0.291800 0.807700
6  1.157800 -2.188300 -6.436000  0.771210 -0.556829 -0.308507  0.321800 0.551600
bottom.tga
6  3.294300 1.822500 -5.521600  0.860675 -0.339983 -0.379012  0.517100 0.638700
6  1.157800 -2.188300 -6.436000  0.771210 -0.556829 -0.308507  0.321800 0.551600
6  2.114100 -0.718600 -7.091200  0.866639 -0.493002 -0.076716  0.393300 0.489200
bottom.tga
6  3.489700 3.638200 -6.658000  0.876348 -0.252267 -0.410335  0.605500 0.530500
6  3.294300 1.822500 -5.521600  0.860675 -0.339983 -0.379012  0.517100 0.638700
6  3.162300 3.126300 -6.838500  0.837354 -0.233372 -0.494344  0.580600 0.513300
bottom.tga
6  1.157800 -2.188300 -6.436000  0.771210 -0.556829 -0.308507  0.321800 0.551600
6  1.655200 -2.804600 -3.746200  0.684813 -0.498600 -0.531441  0.291800 0.807700
6  0.549500 -5.291800 -3.408700  0.944145 -0.270386 0.188365  0.170600 0.839800
bottom.tga
6  1.157800 -2.188300 -6.436000  0.771210 -0.556829 -0.308507  0.321800 0.551600
6  0.549500 -5.291800 -3.408700  0.944145 -0.270386 0.188365  0.170600 0.839800
6  0.508600 -5.291600 -4.119100  0.865025 -0.329072 -0.378738  0.170700 0.772200
bottom.tga
7  0.051500 -2.204900 -7.148500  0.024412 -0.566600 -0.823631  0.321000 0.483800
6  1.157800 -2.188300 -6.436000  0.771210 -0.556829 -0.308507  0.321800 0.551600
6  0.508600 -5.291600 -4.119100  0.865025 -0.329072 -0.378738  0.170700 0.772200
bottom.tga
7  0.051500 -2.204900 -7.148500  0.024412 -0.566600 -0.823631  0.321000 0.483800
6  0.508600 -5.291600 -4.119100  0.865025 -0.329072 -0.378738  0.170700 0.772200
6  0.051500 -5.659800 -4.678600  0.000054 -0.481193 -0.876615  0.152700 0.718900
bottom.tga
6  2.114100 -0.718600 -7.091200  0.866639 -0.493002 -0.076716  0.393300 0.489200
6  1.157800 -2.188300 -6.436000  0.771210 -0.556829 -0.308507  0.321800 0.551600
7  0.997800 -1.729600 -7.340200  0.330128 -0.678544 -0.656197  0.344100 0.465500
bottom.tga
6  2.114100 -0.718600 -7.091200  0.866639 -0.493002 -0.076716  0.393300 0.489200
7  0.997800 -1.729600 -7.340200  0.330128 -0.678544 -0.656197  0.344100 0.465500
7  1.612600 -1.361800 -7.488500  0.435888 -0.854257 -0.283278  0.362000 0.451400
bottom.tga
7  2.192500 0.040800 -8.171600  0.732855 -0.408547 -0.544070  0.430300 0.386400
6  2.345300 0.771500 -7.652900  0.951224 -0.166732 -0.259562  0.465900 0.435800
6  2.114100 -0.718600 -7.091200  0.866639 -0.493002 -0.076716  0.393300 0.489200
bottom.tga
7  2.192500 0.040800 -8.171600  0.732855 -0.408547 -0.544070  0.430300 0.386400
6  2.114100 -0.718600 -7.091200  0.866639 -0.493002 -0.076716  0.393300 0.489200
7  1.612600 -1.361800 -7.488500  0.435888 -0.854257 -0.283278  0.362000 0.451400
bottom.tga
6  4.284500 3.492900 -3.469400  0.980177 0.007449 0.197986  0.598400 0.834000
6  4.121100 5.798300 -3.640200  0.955010 0.087617 0.283336  0.710700 0.817800
6  3.602300 5.810100 -2.674700  0.941660 0.128802 0.310945  0.711200 0.909700
bottom.tga
6  4.284500 3.492900 -3.469400  0.980177 0.007449 0.197986  0.598400 0.834000
6  3.602300 5.810100 -2.674700  0.941660 0.128802 0.310945  0.711200 0.909700
6  3.856400 3.541000 -2.674600  0.976330 0.061519 0.207351  0.600700 0.909700
bottom.tga
6  2.859100 3.641000 -7.379400  0.598708 0.119949 -0.791935  0.605600 0.461800
6  4.115900 5.938300 -6.882900  0.812303 0.057797 -0.580365  0.717500 0.509100
6  3.489700 3.638200 -6.658000  0.876348 -0.252267 -0.410335  0.605500 0.530500
bottom.tga
6  3.960900 -0.332900 -1.800500  0.713665 -0.098516 0.693525  0.412100 0.992900
6  3.917000 -0.355000 -2.643600  0.968241 -0.187405 -0.165494  0.411000 0.912700
6  3.928700 1.895600 -2.683000  0.997301 -0.002398 0.073387  0.520600 0.908900
bottom.tga
6  3.960900 -0.332900 -1.800500  0.713665 -0.098516 0.693525  0.412100 0.992900
6  3.928700 1.895600 -2.683000  0.997301 -0.002398 0.073387  0.520600 0.908900
6  3.912500 1.866000 -1.800500  0.701045 0.028824 0.712534  0.519200 0.992900
bottom.tga
6  3.731200 -0.380500 -3.615000  0.862212 -0.317447 -0.394738  0.409800 0.820200
6  2.606400 -0.610200 -4.496200  0.753672 -0.398499 -0.522664  0.398600 0.736300
6  3.294300 1.822500 -5.521600  0.860675 -0.339983 -0.379012  0.517100 0.638700
bottom.tga
6  3.731200 -0.380500 -3.615000  0.862212 -0.317447 -0.394738  0.409800 0.820200
6  3.294300 1.822500 -5.521600  0.860675 -0.339983 -0.379012  0.517100 0.638700
6  4.092900 1.943500 -4.111500  0.957311 -0.145127 -0.249988  0.523000 0.772900
bottom.tga
6  4.092900 1.943500 -4.111500  0.957311 -0.145127 -0.249988  0.523000 0.772900
6  3.294300 1.822500 -5.521600  0.860675 -0.339983 -0.379012  0.517100 0.638700
6  4.229600 3.444900 -4.264300  0.978732 -0.081780 -0.188139  0.596100 0.758400
bottom.tga
6  3.912500 1.866000 -1.800500  0.701045 0.028824 0.712534  0.519200 0.992900
6  3.928700 1.895600 -2.683000  0.997301 -0.002398 0.073387  0.520600 0.908900
6  3.856400 3.541000 -2.674600  0.976330 0.061519 0.207351  0.600700 0.909700
bottom.tga
6  3.912500 1.866000 -1.800500  0.701045 0.028824 0.712534  0.519200 0.992900
6  3.856400 3.541000 -2.674600  0.976330 0.061519 0.207351  0.600700 0.909700
6  3.820100 3.536000 -1.800500  0.549936 0.047305 0.833866  0.600500 0.992900
bottom.tga
6  3.239800 -1.585700 -3.366400  0.744340 -0.459118 -0.484941  0.351100 0.843900
6  2.304200 -1.707400 -4.121200  0.634468 -0.469123 -0.614308  0.345200 0.772000
6  2.606400 -0.610200 -4.496200  0.753672 -0.398499 -0.522664  0.398600 0.736300
bottom.tga
6  3.239800 -1.585700 -3.366400  0.744340 -0.459118 -0.484941  0.351100 0.843900
6  2.606400 -0.610200 -4.496200  0.753672 -0.398499 -0.522664  0.398600 0.736300
6  3.731200 -0.380500 -3.615000  0.862212 -0.317447 -0.394738  0.409800 0.820200
bottom.tga
6  1.515000 -3.748700 -2.715600  0.458022 -0.744730 0.485380  0.245800 0.905800
6  0.051500 -4.203000 -2.652300  0.000005 -0.514584 0.857440  0.223700 0.911800
6  0.051500 -4.436100 -2.748600  -0.000037 -0.490250 0.871582  0.212300 0.902700
bottom.tga
6  1.515000 -3.748700 -2.715600  0.458022 -0.744730 0.485380  0.245800 0.905800
6  0.051500 -4.436100 -2.748600  -0.000037 -0.490250 0.871582  0.212300 0.902700
6  1.426400 -3.912000 -2.866200  0.668502 -0.739119 0.082508  0.237800 0.891500
bottom.tga
6  3.398500 -1.572300 -2.990300  0.829656 -0.438769 -0.345184  0.351800 0.879700
6  2.626200 -2.776900 -2.851200  0.704249 -0.617238 -0.350785  0.293100 0.892900
6  2.401600 -2.790900 -3.117700  0.620103 -0.570074 -0.538970  0.292400 0.867500
bottom.tga
6  3.398500 -1.572300 -2.990300  0.829656 -0.438769 -0.345184  0.351800 0.879700
6  2.401600 -2.790900 -3.117700  0.620103 -0.570074 -0.538970  0.292400 0.867500
6  3.239800 -1.585700 -3.366400  0.744340 -0.459118 -0.484941  0.351100 0.843900
bottom.tga
6  3.850700 8.743400 -3.618300  0.916533 0.106927 0.385400  0.854100 0.819900
6  3.939600 7.547300 -3.615400  0.928907 0.078705 0.361853  0.795800 0.820200
6  4.095800 7.541500 -4.549400  0.994258 0.106904 0.004699  0.795500 0.731200
bottom.tga
6  3.850700 8.743400 -3.618300  0.916533 0.106927 0.385400  0.854100 0.819900
6  4.095800 7.541500 -4.549400  0.994258 0.106904 0.004699  0.795500 0.731200
6  4.018900 8.762200 -4.556300  0.996279 0.080716 -0.030215  0.855000 0.730600
bottom.tga
6  3.939600 7.547300 -3.615400  0.928907 0.078705 0.361853  0.795800 0.820200
6  4.121100 5.798300 -3.640200  0.955010 0.087617 0.283336  0.710700 0.817800
6  4.230700 5.786500 -4.605700  0.999976 -0.002577 -0.006379  0.710100 0.725900
bottom.tga
6  3.939600 7.547300 -3.615400  0.928907 0.078705 0.361853  0.795800 0.820200
6  4.230700 5.786500 -4.605700  0.999976 -0.002577 -0.006379  0.710100 0.725900
6  4.095800 7.541500 -4.549400  0.994258 0.106904 0.004699  0.795500 0.731200
bottom.tga
6  3.729500 9.546700 -3.609100  0.900850 0.187945 0.391339  0.893200 0.820800
6  3.850700 8.743400 -3.618300  0.916533 0.106927 0.385400  0.854100 0.819900
6  4.018900 8.762200 -4.556300  0.996279 0.080716 -0.030215  0.855000 0.730600
bottom.tga
6  3.729500 9.546700 -3.609100  0.900850 0.187945 0.391339  0.893200 0.820800
6  4.018900 8.762200 -4.556300  0.996279 0.080716 -0.030215  0.855000 0.730600
6  3.975700 9.536300 -4.534300  0.994003 0.108605 -0.012779  0.892700 0.732700
bottom.tga
6  3.856400 3.541000 -2.674600  0.976330 0.061519 0.207351  0.600700 0.909700
6  3.602300 5.810100 -2.674700  0.941660 0.128802 0.310945  0.711200 0.909700
6  3.550500 5.821800 -1.800500  0.782087 0.104140 0.614406  0.711800 0.992900
bottom.tga
6  3.856400 3.541000 -2.674600  0.976330 0.061519 0.207351  0.600700 0.909700
6  3.550500 5.821800 -1.800500  0.782087 0.104140 0.614406  0.711800 0.992900
6  3.820100 3.536000 -1.800500  0.549936 0.047305 0.833866  0.600500 0.992900
bottom.tga
6  4.284500 3.492900 -3.469400  0.980177 0.007449 0.197986  0.598400 0.834000
6  4.168700 1.919500 -3.397200  0.988448 -0.091022 0.121182  0.521800 0.840900
6  4.092900 1.943500 -4.111500  0.957311 -0.145127 -0.249988  0.523000 0.772900
bottom.tga
6  4.284500 3.492900 -3.469400  0.980177 0.007449 0.197986  0.598400 0.834000
6  4.092900 1.943500 -4.111500  0.957311 -0.145127 -0.249988  0.523000 0.772900
6  4.229600 3.444900 -4.264300  0.978732 -0.081780 -0.188139  0.596100 0.758400
bottom.tga
6  4.168700 1.919500 -3.397200  0.988448 -0.091022 0.121182  0.521800 0.840900
6  3.824100 -0.367800 -3.129300  0.963184 -0.237043 -0.126838  0.410400 0.866400
6  3.731200 -0.380500 -3.615000  0.862212 -0.317447 -0.394738  0.409800 0.820200
bottom.tga
6  4.168700 1.919500 -3.397200  0.988448 -0.091022 0.121182  0.521800 0.840900
6  3.731200 -0.380500 -3.615000  0.862212 -0.317447 -0.394738  0.409800 0.820200
6  4.092900 1.943500 -4.111500  0.957311 -0.145127 -0.249988  0.523000 0.772900
bottom.tga
6  1.640400 2.980500 -8.658600  0.329447 0.681514 -0.653454  0.573500 0.340000
7  2.151700 1.325400 -9.189900  0.760192 -0.175528 -0.625539  0.492900 0.289400
7  1.786000 0.972600 -10.099400  0.825758 -0.536115 -0.175229  0.475700 0.202900
bottom.tga
6  3.489700 3.638200 -6.658000  0.876348 -0.252267 -0.410335  0.605500 0.530500
6  3.162300 3.126300 -6.838500  0.837354 -0.233372 -0.494344  0.580600 0.513300
6  2.859100 3.641000 -7.379400  0.598708 0.119949 -0.791935  0.605600 0.461800
bottom.tga
6  2.345300 0.771500 -7.652900  0.951224 -0.166732 -0.259562  0.465900 0.435800
6  3.162300 3.126300 -6.838500  0.837354 -0.233372 -0.494344  0.580600 0.513300
6  3.294300 1.822500 -5.521600  0.860675 -0.339983 -0.379012  0.517100 0.638700
bottom.tga
6  2.345300 0.771500 -7.652900  0.951224 -0.166732 -0.259562  0.465900 0.435800
6  3.294300 1.822500 -5.521600  0.860675 -0.339983 -0.379012  0.517100 0.638700
6  2.114100 -0.718600 -7.091200  0.866639 -0.493002 -0.076716  0.393300 0.489200
bottom.tga
6  2.577700 10.432300 -1.800600  0.534052 0.616131 0.578940  0.936300 0.992900
6  2.611700 10.424700 -2.690800  0.750569 0.615067 0.241534  0.935900 0.908200
6  0.051500 11.740400 -2.824000  -0.000000 0.994302 -0.106601  1.000000 0.895500
bottom.tga
6  2.577700 10.432300 -1.800600  0.534052 0.616131 0.578940  0.936300 0.992900
6  0.051500 11.740400 -2.824000  -0.000000 0.994302 -0.106601  1.000000 0.895500
6  0.051500 11.731600 -1.800600  0.000008 0.678112 0.734959  0.999600 0.992900
bottom.tga
6  3.821600 10.489700 -4.573800  0.802265 0.596958 0.003452  0.939100 0.728900
6  0.051500 11.740400 -2.824000  -0.000000 0.994302 -0.106601  1.000000 0.895500
6  3.382900 10.457200 -3.632300  0.670484 0.576540 0.466961  0.937500 0.818500
bottom.tga
6  3.729500 9.546700 -3.609100  0.900850 0.187945 0.391339  0.893200 0.820800
6  3.975700 9.536300 -4.534300  0.994003 0.108605 -0.012779  0.892700 0.732700
6  3.821600 10.489700 -4.573800  0.802265 0.596958 0.003452  0.939100 0.728900
bottom.tga
6  3.729500 9.546700 -3.609100  0.900850 0.187945 0.391339  0.893200 0.820800
6  3.821600 10.489700 -4.573800  0.802265 0.596958 0.003452  0.939100 0.728900
6  3.382900 10.457200 -3.632300  0.670484 0.576540 0.466961  0.937500 0.818500
bottom.tga
6  3.821600 10.489700 -4.573800  0.802265 0.596958 0.003452  0.939100 0.728900
6  3.975700 9.536300 -4.534300  0.994003 0.108605 -0.012779  0.892700 0.732700
6  3.611200 9.601700 -5.783500  0.652278 0.464266 -0.599158  0.895900 0.613700
bottom.tga
6  4.018900 8.762200 -4.556300  0.996279 0.080716 -0.030215  0.855000 0.730600
6  4.095800 7.541500 -4.549400  0.994258 0.106904 0.004699  0.795500 0.731200
6  3.585600 8.131900 -6.292700  0.770037 0.238690 -0.591667  0.824300 0.565300
bottom.tga
6  4.018900 8.762200 -4.556300  0.996279 0.080716 -0.030215  0.855000 0.730600
6  3.585600 8.131900 -6.292700  0.770037 0.238690 -0.591667  0.824300 0.565300
6  3.611200 9.601700 -5.783500  0.652278 0.464266 -0.599158  0.895900 0.613700
bottom.tga
6  4.018900 8.762200 -4.556300  0.996279 0.080716 -0.030215  0.855000 0.730600
6  3.611200 9.601700 -5.783500  0.652278 0.464266 -0.599158  0.895900 0.613700
6  3.975700 9.536300 -4.534300  0.994003 0.108605 -0.012779  0.892700 0.732700
bottom.tga
6  3.489700 3.638200 -6.658000  0.876348 -0.252267 -0.410335  0.605500 0.530500
6  4.115900 5.938300 -6.882900  0.812303 0.057797 -0.580365  0.717500 0.509100
6  4.230700 5.786500 -4.605700  0.999976 -0.002577 -0.006379  0.710100 0.725900
bottom.tga
6  3.489700 3.638200 -6.658000  0.876348 -0.252267 -0.410335  0.605500 0.530500
6  4.230700 5.786500 -4.605700  0.999976 -0.002577 -0.006379  0.710100 0.725900
6  4.229600 3.444900 -4.264300  0.978732 -0.081780 -0.188139  0.596100 0.758400
bottom.tga
6  1.640400 2.980500 -8.658600  0.329447 0.681514 -0.653454  0.573500 0.340000
7  1.786000 0.972600 -10.099400  0.825758 -0.536115 -0.175229  0.475700 0.202900
7  1.469100 0.751000 -10.663800  0.532838 -0.548231 -0.644613  0.464900 0.149100
bottom.tga
7  2.192500 0.040800 -8.171600  0.732855 -0.408547 -0.544070  0.430300 0.386400
7  2.151700 1.325400 -9.189900  0.760192 -0.175528 -0.625539  0.492900 0.289400
6  2.345300 0.771500 -7.652900  0.951224 -0.166732 -0.259562  0.465900 0.435800
bottom.tga
6  2.859100 3.641000 -7.379400  0.598708 0.119949 -0.791935  0.605600 0.461800
6  3.162300 3.126300 -6.838500  0.837354 -0.233372 -0.494344  0.580600 0.513300
6  2.345300 0.771500 -7.652900  0.951224 -0.166732 -0.259562  0.465900 0.435800
bottom.tga
6  2.859100 3.641000 -7.379400  0.598708 0.119949 -0.791935  0.605600 0.461800
6  2.345300 0.771500 -7.652900  0.951224 -0.166732 -0.259562  0.465900 0.435800
7  2.151700 1.325400 -9.189900  0.760192 -0.175528 -0.625539  0.492900 0.289400
bottom.tga
6  2.626200 -2.776900 -2.851200  0.704249 -0.617238 -0.350785  0.293100 0.892900
6  1.515000 -3.748700 -2.715600  0.458022 -0.744730 0.485380  0.245800 0.905800
6  1.426400 -3.912000 -2.866200  0.668502 -0.739119 0.082508  0.237800 0.891500
bottom.tga
6  2.626200 -2.776900 -2.851200  0.704249 -0.617238 -0.350785  0.293100 0.892900
6  1.426400 -3.912000 -2.866200  0.668502 -0.739119 0.082508  0.237800 0.891500
6  2.401600 -2.790900 -3.117700  0.620103 -0.570074 -0.538970  0.292400 0.867500
bottom.tga
6  0.051500 -3.960800 -1.800500  0.000024 -0.900399 0.435065  0.235500 0.992900
6  0.051500 -3.970000 -2.556000  0.000002 -0.823358 0.567522  0.235000 0.921000
6  1.603600 -3.585500 -2.565100  0.347024 -0.854296 0.386980  0.253700 0.920100
bottom.tga
6  0.051500 -3.960800 -1.800500  0.000024 -0.900399 0.435065  0.235500 0.992900
6  1.603600 -3.585500 -2.565100  0.347024 -0.854296 0.386980  0.253700 0.920100
6  1.630100 -3.566100 -1.800500  0.328075 -0.649294 0.686137  0.254700 0.992900
bottom.tga
6  3.824100 -0.367800 -3.129300  0.963184 -0.237043 -0.126838  0.410400 0.866400
6  3.398500 -1.572300 -2.990300  0.829656 -0.438769 -0.345184  0.351800 0.879700
6  3.239800 -1.585700 -3.366400  0.744340 -0.459118 -0.484941  0.351100 0.843900
bottom.tga
6  3.824100 -0.367800 -3.129300  0.963184 -0.237043 -0.126838  0.410400 0.866400
6  3.239800 -1.585700 -3.366400  0.744340 -0.459118 -0.484941  0.351100 0.843900
6  3.731200 -0.380500 -3.615000  0.862212 -0.317447 -0.394738  0.409800 0.820200
bottom.tga
6  2.401600 -2.790900 -3.117700  0.620103 -0.570074 -0.538970  0.292400 0.867500
6  1.655200 -2.804600 -3.746200  0.684813 -0.498600 -0.531441  0.291800 0.807700
6  2.304200 -1.707400 -4.121200  0.634468 -0.469123 -0.614308  0.345200 0.772000
bottom.tga
6  2.401600 -2.790900 -3.117700  0.620103 -0.570074 -0.538970  0.292400 0.867500
6  2.304200 -1.707400 -4.121200  0.634468 -0.469123 -0.614308  0.345200 0.772000
6  3.239800 -1.585700 -3.366400  0.744340 -0.459118 -0.484941  0.351100 0.843900
bottom.tga
6  2.933900 -2.721600 -1.800500  0.560224 -0.454306 0.692644  0.295800 0.992900
6  2.850800 -2.762800 -2.584700  0.672577 -0.732371 -0.106176  0.293800 0.918300
6  3.557300 -1.559000 -2.614200  0.884609 -0.413304 -0.215979  0.352400 0.915500
bottom.tga
6  2.933900 -2.721600 -1.800500  0.560224 -0.454306 0.692644  0.295800 0.992900
6  3.557300 -1.559000 -2.614200  0.884609 -0.413304 -0.215979  0.352400 0.915500
6  3.620800 -1.527300 -1.800500  0.672386 -0.284120 0.683500  0.354000 0.992900
bottom.tga
6  3.960900 -0.332900 -1.800500  0.713665 -0.098516 0.693525  0.412100 0.992900
6  3.620800 -1.527300 -1.800500  0.672386 -0.284120 0.683500  0.354000 0.992900
6  3.557300 -1.559000 -2.614200  0.884609 -0.413304 -0.215979  0.352400 0.915500
bottom.tga
6  3.960900 -0.332900 -1.800500  0.713665 -0.098516 0.693525  0.412100 0.992900
6  3.557300 -1.559000 -2.614200  0.884609 -0.413304 -0.215979  0.352400 0.915500
6  3.917000 -0.355000 -2.643600  0.968241 -0.187405 -0.165494  0.411000 0.912700
bottom.tga
6  3.917000 -0.355000 -2.643600  0.968241 -0.187405 -0.165494  0.411000 0.912700
6  3.557300 -1.559000 -2.614200  0.884609 -0.413304 -0.215979  0.352400 0.915500
6  3.398500 -1.572300 -2.990300  0.829656 -0.438769 -0.345184  0.351800 0.879700
bottom.tga
6  3.917000 -0.355000 -2.643600  0.968241 -0.187405 -0.165494  0.411000 0.912700
6  3.398500 -1.572300 -2.990300  0.829656 -0.438769 -0.345184  0.351800 0.879700
6  3.824100 -0.367800 -3.129300  0.963184 -0.237043 -0.126838  0.410400 0.866400
bottom.tga
6  2.850800 -2.762800 -2.584700  0.672577 -0.732371 -0.106176  0.293800 0.918300
6  1.603600 -3.585500 -2.565100  0.347024 -0.854296 0.386980  0.253700 0.920100
6  1.515000 -3.748700 -2.715600  0.458022 -0.744730 0.485380  0.245800 0.905800
bottom.tga
6  2.850800 -2.762800 -2.584700  0.672577 -0.732371 -0.106176  0.293800 0.918300
6  1.515000 -3.748700 -2.715600  0.458022 -0.744730 0.485380  0.245800 0.905800
6  2.626200 -2.776900 -2.851200  0.704249 -0.617238 -0.350785  0.293100 0.892900
bottom.tga
6  3.000400 9.557100 -2.683800  0.877621 0.266095 0.398717  0.893700 0.908800
6  3.729500 9.546700 -3.609100  0.900850 0.187945 0.391339  0.893200 0.820800
6  3.382900 10.457200 -3.632300  0.670484 0.576540 0.466961  0.937500 0.818500
bottom.tga
6  3.000400 9.557100 -2.683800  0.877621 0.266095 0.398717  0.893700 0.908800
6  3.382900 10.457200 -3.632300  0.670484 0.576540 0.466961  0.937500 0.818500
6  2.611700 10.424700 -2.690800  0.750569 0.615067 0.241534  0.935900 0.908200
bottom.tga
6  3.928700 1.895600 -2.683000  0.997301 -0.002398 0.073387  0.520600 0.908900
6  3.917000 -0.355000 -2.643600  0.968241 -0.187405 -0.165494  0.411000 0.912700
6  3.824100 -0.367800 -3.129300  0.963184 -0.237043 -0.126838  0.410400 0.866400
bottom.tga
6  3.928700 1.895600 -2.683000  0.997301 -0.002398 0.073387  0.520600 0.908900
6  3.824100 -0.367800 -3.129300  0.963184 -0.237043 -0.126838  0.410400 0.866400
6  4.168700 1.919500 -3.397200  0.988448 -0.091022 0.121182  0.521800 0.840900
bottom.tga
6  3.856400 3.541000 -2.674600  0.976330 0.061519 0.207351  0.600700 0.909700
6  3.928700 1.895600 -2.683000  0.997301 -0.002398 0.073387  0.520600 0.908900
6  4.168700 1.919500 -3.397200  0.988448 -0.091022 0.121182  0.521800 0.840900
bottom.tga
6  3.856400 3.541000 -2.674600  0.976330 0.061519 0.207351  0.600700 0.909700
6  4.168700 1.919500 -3.397200  0.988448 -0.091022 0.121182  0.521800 0.840900
6  4.284500 3.492900 -3.469400  0.980177 0.007449 0.197986  0.598400 0.834000
bottom.tga
6  3.000400 9.557100 -2.683800  0.877621 0.266095 0.398717  0.893700 0.908800
6  3.199400 8.724600 -2.680300  0.932931 0.141545 0.331067  0.853200 0.909200
6  3.850700 8.743400 -3.618300  0.916533 0.106927 0.385400  0.854100 0.819900
bottom.tga
6  3.000400 9.557100 -2.683800  0.877621 0.266095 0.398717  0.893700 0.908800
6  3.850700 8.743400 -3.618300  0.916533 0.106927 0.385400  0.854100 0.819900
6  3.729500 9.546700 -3.609100  0.900850 0.187945 0.391339  0.893200 0.820800
bottom.tga
6  3.300300 7.553200 -2.681500  0.951553 0.122235 0.282144  0.796100 0.909100
6  3.602300 5.810100 -2.674700  0.941660 0.128802 0.310945  0.711200 0.909700
6  4.121100 5.798300 -3.640200  0.955010 0.087617 0.283336  0.710700 0.817800
bottom.tga
6  3.300300 7.553200 -2.681500  0.951553 0.122235 0.282144  0.796100 0.909100
6  4.121100 5.798300 -3.640200  0.955010 0.087617 0.283336  0.710700 0.817800
6  3.939600 7.547300 -3.615400  0.928907 0.078705 0.361853  0.795800 0.820200
bottom.tga
6  3.199400 8.724600 -2.680300  0.932931 0.141545 0.331067  0.853200 0.909200
6  3.300300 7.553200 -2.681500  0.951553 0.122235 0.282144  0.796100 0.909100
6  3.939600 7.547300 -3.615400  0.928907 0.078705 0.361853  0.795800 0.820200
bottom.tga
6  3.199400 8.724600 -2.680300  0.932931 0.141545 0.331067  0.853200 0.909200
6  3.939600 7.547300 -3.615400  0.928907 0.078705 0.361853  0.795800 0.820200
6  3.850700 8.743400 -3.618300  0.916533 0.106927 0.385400  0.854100 0.819900
bottom.tga
6  3.557300 -1.559000 -2.614200  0.884609 -0.413304 -0.215979  0.352400 0.915500
6  2.850800 -2.762800 -2.584700  0.672577 -0.732371 -0.106176  0.293800 0.918300
6  2.626200 -2.776900 -2.851200  0.704249 -0.617238 -0.350785  0.293100 0.892900
bottom.tga
6  3.557300 -1.559000 -2.614200  0.884609 -0.413304 -0.215979  0.352400 0.915500
6  2.626200 -2.776900 -2.851200  0.704249 -0.617238 -0.350785  0.293100 0.892900
6  3.398500 -1.572300 -2.990300  0.829656 -0.438769 -0.345184  0.351800 0.879700
bottom.tga
6  1.603600 -3.585500 -2.565100  0.347024 -0.854296 0.386980  0.253700 0.920100
6  0.051500 -3.970000 -2.556000  0.000002 -0.823358 0.567522  0.235000 0.921000
6  0.051500 -4.203000 -2.652300  0.000005 -0.514584 0.857440  0.223700 0.911800
bottom.tga
6  1.603600 -3.585500 -2.565100  0.347024 -0.854296 0.386980  0.253700 0.920100
6  0.051500 -4.203000 -2.652300  0.000005 -0.514584 0.857440  0.223700 0.911800
6  1.515000 -3.748700 -2.715600  0.458022 -0.744730 0.485380  0.245800 0.905800
bottom.tga
6  4.229600 3.444900 -4.264300  0.978732 -0.081780 -0.188139  0.596100 0.758400
6  4.230700 5.786500 -4.605700  0.999976 -0.002577 -0.006379  0.710100 0.725900
6  4.121100 5.798300 -3.640200  0.955010 0.087617 0.283336  0.710700 0.817800
bottom.tga
6  4.229600 3.444900 -4.264300  0.978732 -0.081780 -0.188139  0.596100 0.758400
6  4.121100 5.798300 -3.640200  0.955010 0.087617 0.283336  0.710700 0.817800
6  4.284500 3.492900 -3.469400  0.980177 0.007449 0.197986  0.598400 0.834000
bottom.tga
6  3.382900 10.457200 -3.632300  0.670484 0.576540 0.466961  0.937500 0.818500
6  0.051500 11.740400 -2.824000  -0.000000 0.994302 -0.106601  1.000000 0.895500
6  2.611700 10.424700 -2.690800  0.750569 0.615067 0.241534  0.935900 0.908200
bottom.tga
6  -3.205800 7.559000 -1.800600  -0.695230 0.085566 0.713677  0.796400 0.992900
6  -2.994100 8.706300 -1.779800  -0.657901 0.147594 0.738500  0.852300 0.994900
6  -3.096500 8.724600 -2.680300  -0.932933 0.141534 0.331064  0.853200 0.909200
bottom.tga
6  -3.205800 7.559000 -1.800600  -0.695230 0.085566 0.713677  0.796400 0.992900
6  -3.096500 8.724600 -2.680300  -0.932933 0.141534 0.331064  0.853200 0.909200
6  -3.197400 7.553200 -2.681500  -0.951551 0.122246 0.282147  0.796100 0.909100
bottom.tga
6  -2.994100 8.706300 -1.779800  -0.657901 0.147594 0.738500  0.852300 0.994900
6  -2.802700 9.565900 -1.800600  -0.647065 0.229011 0.727228  0.894100 0.992900
6  -2.897400 9.557100 -2.683800  -0.877618 0.266082 0.398731  0.893700 0.908800
bottom.tga
6  -2.994100 8.706300 -1.779800  -0.657901 0.147594 0.738500  0.852300 0.994900
6  -2.897400 9.557100 -2.683800  -0.877618 0.266082 0.398731  0.893700 0.908800
6  -3.096500 8.724600 -2.680300  -0.932933 0.141534 0.331064  0.853200 0.909200
bottom.tga
6  -3.447600 5.821800 -1.800500  -0.781913 0.105574 0.614382  0.711800 0.992900
6  -3.205800 7.559000 -1.800600  -0.695230 0.085566 0.713677  0.796400 0.992900
6  -3.197400 7.553200 -2.681500  -0.951551 0.122246 0.282147  0.796100 0.909100
bottom.tga
6  -3.447600 5.821800 -1.800500  -0.781913 0.105574 0.614382  0.711800 0.992900
6  -3.197400 7.553200 -2.681500  -0.951551 0.122246 0.282147  0.796100 0.909100
6  -3.499400 5.810100 -2.674700  -0.941661 0.128801 0.310943  0.711200 0.909700
bottom.tga
6  0.051500 -4.436100 -2.748600  -0.000037 -0.490250 0.871582  0.212300 0.902700
6  0.051500 -5.292100 -2.875700  0.000052 -0.070619 0.997503  0.170600 0.890600
6  0.549500 -5.291800 -3.408700  0.944145 -0.270386 0.188365  0.170600 0.839800
bottom.tga
6  0.051500 -4.436100 -2.748600  -0.000037 -0.490250 0.871582  0.212300 0.902700
6  0.549500 -5.291800 -3.408700  0.944145 -0.270386 0.188365  0.170600 0.839800
6  1.426400 -3.912000 -2.866200  0.668502 -0.739119 0.082508  0.237800 0.891500
bottom.tga
6  -4.126700 3.444900 -4.264300  -0.978725 -0.081768 -0.188179  0.596100 0.758400
6  -3.386800 3.638200 -6.658000  -0.876349 -0.252265 -0.410334  0.605500 0.530500
6  -3.191400 1.822600 -5.521600  -0.860675 -0.339986 -0.379011  0.517100 0.638700
bottom.tga
6  -1.527200 -3.566100 -1.800400  -0.328094 -0.649259 0.686161  0.254700 0.992900
6  -2.831000 -2.721600 -1.800500  -0.560235 -0.454318 0.692627  0.295800 0.992900
6  -2.747900 -2.762900 -2.584700  -0.672583 -0.732362 -0.106201  0.293800 0.918300
bottom.tga
6  -1.527200 -3.566100 -1.800400  -0.328094 -0.649259 0.686161  0.254700 0.992900
6  -2.747900 -2.762900 -2.584700  -0.672583 -0.732362 -0.106201  0.293800 0.918300
6  -1.500700 -3.585500 -2.565100  -0.347026 -0.854301 0.386966  0.253700 0.920100
bottom.tga
6  -4.013000 5.938300 -6.882900  -0.812303 0.057793 -0.580366  0.717500 0.509100
6  -4.127800 5.786500 -4.605700  -0.999976 -0.002616 -0.006352  0.710100 0.725900
6  -3.992900 7.541500 -4.549400  -0.994258 0.106910 0.004684  0.795500 0.731200
bottom.tga
6  -4.013000 5.938300 -6.882900  -0.812303 0.057793 -0.580366  0.717500 0.509100
6  -3.992900 7.541500 -4.549400  -0.994258 0.106910 0.004684  0.795500 0.731200
6  -3.482700 8.131900 -6.292700  -0.770035 0.238687 -0.591671  0.824300 0.565300
bottom.tga
6  -2.802700 9.565900 -1.800600  -0.647065 0.229011 0.727228  0.894100 0.992900
6  -2.474800 10.432400 -1.800600  -0.534054 0.616154 0.578913  0.936300 0.992900
6  -2.508800 10.424700 -2.690800  -0.750565 0.615071 0.241534  0.935900 0.908200
bottom.tga
6  -2.802700 9.565900 -1.800600  -0.647065 0.229011 0.727228  0.894100 0.992900
6  -2.508800 10.424700 -2.690800  -0.750565 0.615071 0.241534  0.935900 0.908200
6  -2.897400 9.557100 -2.683800  -0.877618 0.266082 0.398731  0.893700 0.908800
bottom.tga
6  -2.756200 3.641000 -7.379400  -0.554389 0.236422 -0.797971  0.605600 0.461800
6  -1.537500 2.980500 -8.658600  -0.218699 0.681617 -0.698262  0.573500 0.340000
7  -2.048800 1.325400 -9.189900  -0.801122 -0.324473 -0.502913  0.492900 0.289400
bottom.tga
7  -0.894900 -1.729600 -7.340200  -0.291208 -0.724106 -0.625195  0.344100 0.465500
7  0.051500 -2.204900 -7.148500  0.024412 -0.566600 -0.823631  0.321000 0.483800
6  -1.054900 -2.188300 -6.436000  -0.771306 -0.556766 -0.308381  0.321800 0.551600
bottom.tga
6  0.051500 -5.659800 -4.678600  0.000054 -0.481193 -0.876615  0.152700 0.718900
6  0.051500 -8.453200 -3.519900  -0.000000 -0.576144 -0.817348  0.016700 0.829200
6  -0.405700 -5.291600 -4.119100  -0.865059 -0.328926 -0.378788  0.170700 0.772200
bottom.tga
6  0.051500 -8.453200 -3.519900  -0.000000 -0.576144 -0.817348  0.016700 0.829200
6  0.051500 -8.796300 -3.189900  -0.000000 -0.985206 -0.171375  0.000000 0.860700
6  -0.446600 -5.291800 -3.408700  -0.935517 -0.314446 0.161031  0.170600 0.839800
bottom.tga
6  0.051500 -8.453200 -3.519900  -0.000000 -0.576144 -0.817348  0.016700 0.829200
6  -0.446600 -5.291800 -3.408700  -0.935494 -0.314506 0.161048  0.170600 0.839800
6  -0.405700 -5.291600 -4.119100  -0.865059 -0.328926 -0.378788  0.170700 0.772200
bottom.tga
6  0.051500 -8.796300 -3.189900  -0.000000 -0.985206 -0.171375  0.000000 0.860700
6  0.051500 -8.519600 -2.839200  -0.000010 -0.157607 0.987502  0.013500 0.894000
6  -0.446600 -5.291800 -3.408700  -0.935461 -0.314647 0.160965  0.170600 0.839800
bottom.tga
6  0.051500 -8.519600 -2.839200  -0.000010 -0.157607 0.987502  0.013500 0.894000
6  0.051500 -5.292100 -2.875700  0.000052 -0.070619 0.997503  0.170600 0.890600
6  -0.446600 -5.291800 -3.408700  -0.935537 -0.314484 0.160846  0.170600 0.839800
bottom.tga
6  -3.191400 1.822600 -5.521600  -0.860675 -0.339986 -0.379011  0.517100 0.638700
6  -2.011200 -0.718600 -7.091200  -0.866646 -0.492989 -0.076720  0.393300 0.489200
6  -1.054900 -2.188300 -6.436000  -0.771200 -0.556830 -0.308531  0.321800 0.551600
bottom.tga
6  -3.191400 1.822600 -5.521600  -0.860675 -0.339986 -0.379011  0.517100 0.638700
6  -1.054900 -2.188300 -6.436000  -0.771062 -0.557037 -0.308500  0.321800 0.551600
6  -1.552300 -2.804600 -3.746200  -0.658477 -0.460761 -0.595069  0.291800 0.807700
bottom.tga
6  -3.191400 1.822600 -5.521600  -0.860675 -0.339986 -0.379011  0.517100 0.638700
6  -1.552300 -2.804600 -3.746200  -0.658477 -0.460761 -0.595069  0.291800 0.807700
6  -2.201300 -1.707400 -4.121200  -0.634474 -0.469081 -0.614334  0.345200 0.772000
bottom.tga
6  -3.191400 1.822600 -5.521600  -0.860675 -0.339986 -0.379011  0.517100 0.638700
6  -2.201300 -1.707400 -4.121200  -0.634474 -0.469081 -0.614334  0.345200 0.772000
6  -2.503500 -0.610100 -4.496200  -0.753672 -0.398528 -0.522641  0.398600 0.736300
bottom.tga
6  -3.386800 3.638200 -6.658000  -0.876349 -0.252265 -0.410334  0.605500 0.530500
6  -3.059400 3.126300 -6.838500  -0.837351 -0.233374 -0.494349  0.580600 0.513300
6  -3.191400 1.822600 -5.521600  -0.860675 -0.339986 -0.379011  0.517100 0.638700
bottom.tga
6  -1.054900 -2.188300 -6.436000  -0.771184 -0.556890 -0.308462  0.321800 0.551600
6  -0.405700 -5.291600 -4.119100  -0.865006 -0.329091 -0.378765  0.170700 0.772200
6  -0.446600 -5.291800 -3.408700  -0.935488 -0.314485 0.161125  0.170600 0.839800
bottom.tga
6  -1.054900 -2.188300 -6.436000  -0.771031 -0.557078 -0.308506  0.321800 0.551600
6  -0.446600 -5.291800 -3.408700  -0.935546 -0.314363 0.161026  0.170600 0.839800
6  -1.552300 -2.804600 -3.746200  -0.658498 -0.460812 -0.595007  0.291800 0.807700
bottom.tga
7  0.051500 -2.204900 -7.148500  0.024412 -0.566600 -0.823631  0.321000 0.483800
6  0.051500 -5.659800 -4.678600  0.000054 -0.481193 -0.876615  0.152700 0.718900
6  -0.405700 -5.291600 -4.119100  -0.865059 -0.328926 -0.378788  0.170700 0.772200
bottom.tga
7  0.051500 -2.204900 -7.148500  0.024412 -0.566600 -0.823631  0.321000 0.483800
6  -0.405700 -5.291600 -4.119100  -0.865059 -0.328926 -0.378788  0.170700 0.772200
6  -1.054900 -2.188300 -6.436000  -0.771306 -0.556795 -0.308328  0.321800 0.551600
bottom.tga
6  -2.011200 -0.718600 -7.091200  -0.866646 -0.492989 -0.076720  0.393300 0.489200
7  -1.509700 -1.361800 -7.488500  -0.514993 -0.783976 -0.346646  0.362000 0.451400
7  -0.894900 -1.729600 -7.340200  -0.291208 -0.724106 -0.625195  0.344100 0.465500
bottom.tga
6  -2.011200 -0.718600 -7.091200  -0.866646 -0.492989 -0.076720  0.393300 0.489200
7  -0.894900 -1.729600 -7.340200  -0.291208 -0.724106 -0.625195  0.344100 0.465500
6  -1.054900 -2.188300 -6.436000  -0.771434 -0.556695 -0.308188  0.321800 0.551600
bottom.tga
7  -2.089600 0.040800 -8.171600  -0.697244 -0.478286 -0.533942  0.430300 0.386400
7  -1.509700 -1.361800 -7.488500  -0.514993 -0.783976 -0.346646  0.362000 0.451400
6  -2.011200 -0.718600 -7.091200  -0.866646 -0.492989 -0.076720  0.393300 0.489200
bottom.tga
7  -2.089600 0.040800 -8.171600  -0.697244 -0.478286 -0.533942  0.430300 0.386400
6  -2.011200 -0.718600 -7.091200  -0.866646 -0.492989 -0.076720  0.393300 0.489200
6  -2.242300 0.771500 -7.652900  -0.951228 -0.166738 -0.259546  0.465900 0.435800
bottom.tga
6  -4.181600 3.492900 -3.469500  -0.980175 0.007462 0.197995  0.598400 0.834000
6  -3.753500 3.541000 -2.674600  -0.976328 0.061670 0.207316  0.600700 0.909700
6  -3.499400 5.810100 -2.674700  -0.941661 0.128801 0.310943  0.711200 0.909700
bottom.tga
6  -4.181600 3.492900 -3.469500  -0.980175 0.007462 0.197995  0.598400 0.834000
6  -3.499400 5.810100 -2.674700  -0.941661 0.128801 0.310943  0.711200 0.909700
6  -4.018200 5.798300 -3.640200  -0.955011 0.087615 0.283333  0.710700 0.817800
bottom.tga
6  -2.756200 3.641000 -7.379400  -0.554389 0.236422 -0.797971  0.605600 0.461800
6  -3.386800 3.638200 -6.658000  -0.876349 -0.252265 -0.410334  0.605500 0.530500
6  -4.013000 5.938300 -6.882900  -0.812303 0.057793 -0.580366  0.717500 0.509100
bottom.tga
6  -3.858000 -0.332900 -1.800500  -0.713668 -0.098511 0.693523  0.412100 0.992900
6  -3.809600 1.866000 -1.800500  -0.701045 0.028824 0.712534  0.519200 0.992900
6  -3.825800 1.895600 -2.683000  -0.997301 -0.002398 0.073387  0.520600 0.908900
bottom.tga
6  -3.858000 -0.332900 -1.800500  -0.713668 -0.098511 0.693523  0.412100 0.992900
6  -3.825800 1.895600 -2.683000  -0.997301 -0.002398 0.073387  0.520600 0.908900
6  -3.814100 -0.355000 -2.643600  -0.968241 -0.187404 -0.165496  0.411000 0.912700
bottom.tga
6  -3.628300 -0.380500 -3.615000  -0.862209 -0.317451 -0.394742  0.409800 0.820200
6  -3.989900 1.943500 -4.111500  -0.957314 -0.145123 -0.249977  0.523000 0.772900
6  -3.191400 1.822600 -5.521600  -0.860675 -0.339986 -0.379011  0.517100 0.638700
bottom.tga
6  -3.628300 -0.380500 -3.615000  -0.862209 -0.317451 -0.394742  0.409800 0.820200
6  -3.191400 1.822600 -5.521600  -0.860675 -0.339986 -0.379011  0.517100 0.638700
6  -2.503500 -0.610100 -4.496200  -0.753672 -0.398528 -0.522641  0.398600 0.736300
bottom.tga
6  -3.989900 1.943500 -4.111500  -0.957314 -0.145123 -0.249977  0.523000 0.772900
6  -4.126700 3.444900 -4.264300  -0.978725 -0.081768 -0.188179  0.596100 0.758400
6  -3.191400 1.822600 -5.521600  -0.860675 -0.339986 -0.379011  0.517100 0.638700
bottom.tga
6  -3.809600 1.866000 -1.800500  -0.701045 0.028824 0.712534  0.519200 0.992900
6  -3.717200 3.536000 -1.800500  -0.549938 0.047279 0.833867  0.600500 0.992900
6  -3.753500 3.541000 -2.674600  -0.976328 0.061670 0.207316  0.600700 0.909700
bottom.tga
6  -3.809600 1.866000 -1.800500  -0.701045 0.028824 0.712534  0.519200 0.992900
6  -3.753500 3.541000 -2.674600  -0.976328 0.061670 0.207316  0.600700 0.909700
6  -3.825800 1.895600 -2.683000  -0.997301 -0.002398 0.073387  0.520600 0.908900
bottom.tga
6  -3.136900 -1.585700 -3.366400  -0.744341 -0.459117 -0.484942  0.351100 0.843900
6  -3.628300 -0.380500 -3.615000  -0.862209 -0.317451 -0.394742  0.409800 0.820200
6  -2.503500 -0.610100 -4.496200  -0.753672 -0.398528 -0.522641  0.398600 0.736300
bottom.tga
6  -3.136900 -1.585700 -3.366400  -0.744341 -0.459117 -0.484942  0.351100 0.843900
6  -2.503500 -0.610100 -4.496200  -0.753672 -0.398528 -0.522641  0.398600 0.736300
6  -2.201300 -1.707400 -4.121200  -0.634474 -0.469081 -0.614334  0.345200 0.772000
bottom.tga
6  -1.412100 -3.748700 -2.715600  -0.458018 -0.744729 0.485383  0.245800 0.905800
6  -1.323500 -3.912000 -2.866200  -0.593042 -0.716931 0.366484  0.237800 0.891500
6  0.051500 -4.436100 -2.748600  -0.000037 -0.490250 0.871582  0.212300 0.902700
bottom.tga
6  -1.412100 -3.748700 -2.715600  -0.458018 -0.744729 0.485383  0.245800 0.905800
6  0.051500 -4.436100 -2.748600  -0.000037 -0.490250 0.871582  0.212300 0.902700
6  0.051500 -4.203000 -2.652300  0.000005 -0.514584 0.857440  0.223700 0.911800
bottom.tga
6  -3.295600 -1.572300 -2.990300  -0.829658 -0.438768 -0.345182  0.351800 0.879700
6  -3.136900 -1.585700 -3.366400  -0.744341 -0.459117 -0.484942  0.351100 0.843900
6  -2.298700 -2.790900 -3.117700  -0.685011 -0.567872 -0.456379  0.292400 0.867500
bottom.tga
6  -3.295600 -1.572300 -2.990300  -0.829658 -0.438768 -0.345182  0.351800 0.879700
6  -2.298700 -2.790900 -3.117700  -0.685157 -0.568194 -0.455758  0.292400 0.867500
6  -2.523300 -2.776900 -2.851200  -0.704248 -0.617227 -0.350807  0.293100 0.892900
bottom.tga
6  -3.747700 8.743400 -3.618300  -0.916522 0.106889 0.385438  0.854100 0.819900
6  -3.916000 8.762200 -4.556300  -0.996278 0.080735 -0.030215  0.855000 0.730600
6  -3.992900 7.541500 -4.549400  -0.994258 0.106910 0.004684  0.795500 0.731200
bottom.tga
6  -3.747700 8.743400 -3.618300  -0.916522 0.106889 0.385438  0.854100 0.819900
6  -3.992900 7.541500 -4.549400  -0.994258 0.106910 0.004684  0.795500 0.731200
6  -3.836600 7.547300 -3.615400  -0.928908 0.078692 0.361854  0.795800 0.820200
bottom.tga
6  -3.836600 7.547300 -3.615400  -0.928908 0.078692 0.361854  0.795800 0.820200
6  -3.992900 7.541500 -4.549400  -0.994258 0.106910 0.004684  0.795500 0.731200
6  -4.127800 5.786500 -4.605700  -0.999976 -0.002616 -0.006352  0.710100 0.725900
bottom.tga
6  -3.836600 7.547300 -3.615400  -0.928908 0.078692 0.361854  0.795800 0.820200
6  -4.127800 5.786500 -4.605700  -0.999976 -0.002616 -0.006352  0.710100 0.725900
6  -4.018200 5.798300 -3.640200  -0.955011 0.087615 0.283333  0.710700 0.817800
bottom.tga
6  -3.626600 9.546700 -3.609100  -0.900855 0.187945 0.391327  0.893200 0.820800
6  -3.872800 9.536300 -4.534300  -0.994003 0.108607 -0.012767  0.892700 0.732700
6  -3.916000 8.762200 -4.556300  -0.996278 0.080735 -0.030215  0.855000 0.730600
bottom.tga
6  -3.626600 9.546700 -3.609100  -0.900855 0.187945 0.391327  0.893200 0.820800
6  -3.916000 8.762200 -4.556300  -0.996278 0.080735 -0.030215  0.855000 0.730600
6  -3.747700 8.743400 -3.618300  -0.916522 0.106889 0.385438  0.854100 0.819900
bottom.tga
6  -3.753500 3.541000 -2.674600  -0.976328 0.061670 0.207316  0.600700 0.909700
6  -3.717200 3.536000 -1.800500  -0.549938 0.047279 0.833867  0.600500 0.992900
6  -3.447600 5.821800 -1.800500  -0.781913 0.105574 0.614382  0.711800 0.992900
bottom.tga
6  -3.753500 3.541000 -2.674600  -0.976328 0.061670 0.207316  0.600700 0.909700
6  -3.447600 5.821800 -1.800500  -0.781913 0.105574 0.614382  0.711800 0.992900
6  -3.499400 5.810100 -2.674700  -0.941661 0.128801 0.310943  0.711200 0.909700
bottom.tga
6  -4.181600 3.492900 -3.469500  -0.980175 0.007462 0.197995  0.598400 0.834000
6  -4.126700 3.444900 -4.264300  -0.978725 -0.081768 -0.188179  0.596100 0.758400
6  -3.989900 1.943500 -4.111500  -0.957314 -0.145123 -0.249977  0.523000 0.772900
bottom.tga
6  -4.181600 3.492900 -3.469500  -0.980175 0.007462 0.197995  0.598400 0.834000
6  -3.989900 1.943500 -4.111500  -0.957314 -0.145123 -0.249977  0.523000 0.772900
6  -4.065800 1.919500 -3.397200  -0.988449 -0.091022 0.121172  0.521800 0.840900
bottom.tga
6  -4.065800 1.919500 -3.397200  -0.988449 -0.091022 0.121172  0.521800 0.840900
6  -3.989900 1.943500 -4.111500  -0.957314 -0.145123 -0.249977  0.523000 0.772900
6  -3.628300 -0.380500 -3.615000  -0.862209 -0.317451 -0.394742  0.409800 0.820200
bottom.tga
6  -4.065800 1.919500 -3.397200  -0.988449 -0.091022 0.121172  0.521800 0.840900
6  -3.628300 -0.380500 -3.615000  -0.862209 -0.317451 -0.394742  0.409800 0.820200
6  -3.721200 -0.367800 -3.129300  -0.963184 -0.237042 -0.126838  0.410400 0.866400
bottom.tga
6  -1.537500 2.980500 -8.658600  -0.741111 0.426037 -0.518891  0.573500 0.340000
7  -1.683100 0.972600 -10.099400  -0.827985 -0.531551 -0.178590  0.475700 0.202900
7  -2.048800 1.325400 -9.189900  -0.801122 -0.324473 -0.502913  0.492900 0.289400
bottom.tga
6  -3.386800 3.638200 -6.658000  -0.876349 -0.252265 -0.410334  0.605500 0.530500
6  -2.756200 3.641000 -7.379400  -0.554389 0.236422 -0.797971  0.605600 0.461800
6  -3.059400 3.126300 -6.838500  -0.837351 -0.233374 -0.494349  0.580600 0.513300
bottom.tga
6  -2.242300 0.771500 -7.652900  -0.951228 -0.166738 -0.259546  0.465900 0.435800
6  -2.011200 -0.718600 -7.091200  -0.866646 -0.492989 -0.076720  0.393300 0.489200
6  -3.191400 1.822600 -5.521600  -0.860675 -0.339986 -0.379011  0.517100 0.638700
bottom.tga
6  -2.242300 0.771500 -7.652900  -0.951228 -0.166738 -0.259546  0.465900 0.435800
6  -3.191400 1.822600 -5.521600  -0.860675 -0.339986 -0.379011  0.517100 0.638700
6  -3.059400 3.126300 -6.838500  -0.837351 -0.233374 -0.494349  0.580600 0.513300
bottom.tga
6  -2.474800 10.432400 -1.800600  -0.534054 0.616154 0.578913  0.936300 0.992900
6  0.051500 11.731600 -1.800600  0.000008 0.678112 0.734959  0.999600 0.992900
6  0.051500 11.740400 -2.824000  -0.000000 0.994302 -0.106601  1.000000 0.895500
bottom.tga
6  -2.474800 10.432400 -1.800600  -0.534054 0.616154 0.578913  0.936300 0.992900
6  0.051500 11.740400 -2.824000  -0.000000 0.994302 -0.106601  1.000000 0.895500
6  -2.508800 10.424700 -2.690800  -0.750565 0.615071 0.241534  0.935900 0.908200
bottom.tga
6  -3.718700 10.489700 -4.573700  -0.802271 0.596949 0.003491  0.939100 0.728900
6  -3.280000 10.457200 -3.632300  -0.670566 0.576357 0.467070  0.937500 0.818500
6  0.051500 11.740400 -2.824000  -0.000000 0.994302 -0.106601  1.000000 0.895500
bottom.tga
6  -3.626600 9.546700 -3.609100  -0.900855 0.187945 0.391327  0.893200 0.820800
6  -3.280000 10.457200 -3.632300  -0.670430 0.576544 0.467033  0.937500 0.818500
6  -3.718700 10.489700 -4.573700  -0.802271 0.596949 0.003491  0.939100 0.728900
bottom.tga
6  -3.626600 9.546700 -3.609100  -0.900855 0.187945 0.391327  0.893200 0.820800
6  -3.718700 10.489700 -4.573700  -0.802271 0.596949 0.003491  0.939100 0.728900
6  -3.872800 9.536300 -4.534300  -0.994003 0.108607 -0.012767  0.892700 0.732700
bottom.tga
6  -3.718700 10.489700 -4.573700  -0.802271 0.596949 0.003491  0.939100 0.728900
6  -3.508200 9.601700 -5.783500  -0.652246 0.464285 -0.599178  0.895900 0.613700
6  -3.872800 9.536300 -4.534300  -0.994003 0.108607 -0.012767  0.892700 0.732700
bottom.tga
6  -3.916000 8.762200 -4.556300  -0.996278 0.080735 -0.030215  0.855000 0.730600
6  -3.872800 9.536300 -4.534300  -0.994003 0.108607 -0.012767  0.892700 0.732700
6  -3.508200 9.601700 -5.783500  -0.652246 0.464285 -0.599178  0.895900 0.613700
bottom.tga
6  -3.916000 8.762200 -4.556300  -0.996278 0.080735 -0.030215  0.855000 0.730600
6  -3.508200 9.601700 -5.783500  -0.652246 0.464285 -0.599178  0.895900 0.613700
6  -3.482700 8.131900 -6.292700  -0.770035 0.238687 -0.591671  0.824300 0.565300
bottom.tga
6  -3.916000 8.762200 -4.556300  -0.996278 0.080735 -0.030215  0.855000 0.730600
6  -3.482700 8.131900 -6.292700  -0.770035 0.238687 -0.591671  0.824300 0.565300
6  -3.992900 7.541500 -4.549400  -0.994258 0.106910 0.004684  0.795500 0.731200
bottom.tga
6  -3.386800 3.638200 -6.658000  -0.876349 -0.252265 -0.410334  0.605500 0.530500
6  -4.126700 3.444900 -4.264300  -0.978725 -0.081768 -0.188179  0.596100 0.758400
6  -4.127800 5.786500 -4.605700  -0.999976 -0.002616 -0.006352  0.710100 0.725900
bottom.tga
6  -3.386800 3.638200 -6.658000  -0.876349 -0.252265 -0.410334  0.605500 0.530500
6  -4.127800 5.786500 -4.605700  -0.999976 -0.002616 -0.006352  0.710100 0.725900
6  -4.013000 5.938300 -6.882900  -0.812303 0.057793 -0.580366  0.717500 0.509100
bottom.tga
6  -1.537500 2.980500 -8.658600  -0.741111 0.426037 -0.518891  0.573500 0.340000
7  -1.366200 0.751000 -10.663800  -0.544183 -0.582398 -0.603885  0.464900 0.149100
7  -1.683100 0.972600 -10.099400  -0.827985 -0.531551 -0.178590  0.475700 0.202900
bottom.tga
7  -2.089600 0.040800 -8.171600  -0.697244 -0.478286 -0.533942  0.430300 0.386400
6  -2.242300 0.771500 -7.652900  -0.951228 -0.166738 -0.259546  0.465900 0.435800
7  -2.048800 1.325400 -9.189900  -0.801122 -0.324473 -0.502913  0.492900 0.289400
bottom.tga
6  -2.756200 3.641000 -7.379400  -0.554389 0.236422 -0.797971  0.605600 0.461800
7  -2.048800 1.325400 -9.189900  -0.801122 -0.324473 -0.502913  0.492900 0.289400
6  -2.242300 0.771500 -7.652900  -0.951228 -0.166738 -0.259546  0.465900 0.435800
bottom.tga
6  -2.756200 3.641000 -7.379400  -0.554389 0.236422 -0.797971  0.605600 0.461800
6  -2.242300 0.771500 -7.652900  -0.951228 -0.166738 -0.259546  0.465900 0.435800
6  -3.059400 3.126300 -6.838500  -0.837351 -0.233374 -0.494349  0.580600 0.513300
bottom.tga
6  -2.523300 -2.776900 -2.851200  -0.704286 -0.617188 -0.350800  0.293100 0.892900
6  -2.298700 -2.790900 -3.117700  -0.685468 -0.567615 -0.456011  0.292400 0.867500
6  -1.323500 -3.912000 -2.866200  -0.592910 -0.716951 0.366658  0.237800 0.891500
bottom.tga
6  -2.523300 -2.776900 -2.851200  -0.704248 -0.617227 -0.350807  0.293100 0.892900
6  -1.323500 -3.912000 -2.866200  -0.592109 -0.717590 0.366705  0.237800 0.891500
6  -1.412100 -3.748700 -2.715600  -0.458018 -0.744729 0.485383  0.245800 0.905800
bottom.tga
6  0.051500 -3.960800 -1.800500  0.000024 -0.900399 0.435065  0.235500 0.992900
6  -1.527200 -3.566100 -1.800400  -0.328094 -0.649259 0.686161  0.254700 0.992900
6  -1.500700 -3.585500 -2.565100  -0.347026 -0.854301 0.386966  0.253700 0.920100
bottom.tga
6  0.051500 -3.960800 -1.800500  0.000024 -0.900399 0.435065  0.235500 0.992900
6  -1.500700 -3.585500 -2.565100  -0.347026 -0.854301 0.386966  0.253700 0.920100
6  0.051500 -3.970000 -2.556000  0.000002 -0.823358 0.567522  0.235000 0.921000
bottom.tga
6  -3.721200 -0.367800 -3.129300  -0.963184 -0.237042 -0.126838  0.410400 0.866400
6  -3.628300 -0.380500 -3.615000  -0.862209 -0.317451 -0.394742  0.409800 0.820200
6  -3.136900 -1.585700 -3.366400  -0.744341 -0.459117 -0.484942  0.351100 0.843900
bottom.tga
6  -3.721200 -0.367800 -3.129300  -0.963184 -0.237042 -0.126838  0.410400 0.866400
6  -3.136900 -1.585700 -3.366400  -0.744341 -0.459117 -0.484942  0.351100 0.843900
6  -3.295600 -1.572300 -2.990300  -0.829658 -0.438768 -0.345182  0.351800 0.879700
bottom.tga
6  -2.298700 -2.790900 -3.117700  -0.685257 -0.567962 -0.455897  0.292400 0.867500
6  -3.136900 -1.585700 -3.366400  -0.744341 -0.459117 -0.484942  0.351100 0.843900
6  -2.201300 -1.707400 -4.121200  -0.634474 -0.469081 -0.614334  0.345200 0.772000
bottom.tga
6  -2.298700 -2.790900 -3.117700  -0.685252 -0.567947 -0.455923  0.292400 0.867500
6  -2.201300 -1.707400 -4.121200  -0.634474 -0.469081 -0.614334  0.345200 0.772000
6  -1.552300 -2.804600 -3.746200  -0.658477 -0.460761 -0.595069  0.291800 0.807700
bottom.tga
6  -2.831000 -2.721600 -1.800500  -0.560235 -0.454318 0.692627  0.295800 0.992900
6  -3.517900 -1.527300 -1.800500  -0.672310 -0.284131 0.683571  0.354000 0.992900
6  -3.454400 -1.558900 -2.614200  -0.884621 -0.413283 -0.215971  0.352400 0.915500
bottom.tga
6  -2.831000 -2.721600 -1.800500  -0.560235 -0.454318 0.692627  0.295800 0.992900
6  -3.454400 -1.558900 -2.614200  -0.884621 -0.413283 -0.215971  0.352400 0.915500
6  -2.747900 -2.762900 -2.584700  -0.672583 -0.732362 -0.106201  0.293800 0.918300
bottom.tga
6  -3.858000 -0.332900 -1.800500  -0.713668 -0.098511 0.693523  0.412100 0.992900
6  -3.814100 -0.355000 -2.643600  -0.968241 -0.187404 -0.165496  0.411000 0.912700
6  -3.454400 -1.558900 -2.614200  -0.884621 -0.413283 -0.215971  0.352400 0.915500
bottom.tga
6  -3.858000 -0.332900 -1.800500  -0.713668 -0.098511 0.693523  0.412100 0.992900
6  -3.454400 -1.558900 -2.614200  -0.884621 -0.413283 -0.215971  0.352400 0.915500
6  -3.517900 -1.527300 -1.800500  -0.672310 -0.284131 0.683571  0.354000 0.992900
bottom.tga
6  -3.814100 -0.355000 -2.643600  -0.968241 -0.187404 -0.165496  0.411000 0.912700
6  -3.721200 -0.367800 -3.129300  -0.963184 -0.237042 -0.126838  0.410400 0.866400
6  -3.295600 -1.572300 -2.990300  -0.829658 -0.438768 -0.345182  0.351800 0.879700
bottom.tga
6  -3.814100 -0.355000 -2.643600  -0.968241 -0.187404 -0.165496  0.411000 0.912700
6  -3.295600 -1.572300 -2.990300  -0.829658 -0.438768 -0.345182  0.351800 0.879700
6  -3.454400 -1.558900 -2.614200  -0.884621 -0.413283 -0.215971  0.352400 0.915500
bottom.tga
6  -2.747900 -2.762900 -2.584700  -0.672583 -0.732362 -0.106201  0.293800 0.918300
6  -2.523300 -2.776900 -2.851200  -0.704248 -0.617227 -0.350807  0.293100 0.892900
6  -1.412100 -3.748700 -2.715600  -0.458018 -0.744729 0.485383  0.245800 0.905800
bottom.tga
6  -2.747900 -2.762900 -2.584700  -0.672583 -0.732362 -0.106201  0.293800 0.918300
6  -1.412100 -3.748700 -2.715600  -0.458018 -0.744729 0.485383  0.245800 0.905800
6  -1.500700 -3.585500 -2.565100  -0.347026 -0.854301 0.386966  0.253700 0.920100
bottom.tga
6  -2.897400 9.557100 -2.683800  -0.877618 0.266082 0.398731  0.893700 0.908800
6  -2.508800 10.424700 -2.690800  -0.750565 0.615071 0.241534  0.935900 0.908200
6  -3.280000 10.457200 -3.632300  -0.670479 0.576566 0.466936  0.937500 0.818500
bottom.tga
6  -2.897400 9.557100 -2.683800  -0.877618 0.266082 0.398731  0.893700 0.908800
6  -3.280000 10.457200 -3.632300  -0.670484 0.576541 0.466960  0.937500 0.818500
6  -3.626600 9.546700 -3.609100  -0.900855 0.187945 0.391327  0.893200 0.820800
bottom.tga
6  -3.825800 1.895600 -2.683000  -0.997301 -0.002398 0.073387  0.520600 0.908900
6  -4.065800 1.919500 -3.397200  -0.988449 -0.091022 0.121172  0.521800 0.840900
6  -3.721200 -0.367800 -3.129300  -0.963184 -0.237042 -0.126838  0.410400 0.866400
bottom.tga
6  -3.825800 1.895600 -2.683000  -0.997301 -0.002398 0.073387  0.520600 0.908900
6  -3.721200 -0.367800 -3.129300  -0.963184 -0.237042 -0.126838  0.410400 0.866400
6  -3.814100 -0.355000 -2.643600  -0.968241 -0.187404 -0.165496  0.411000 0.912700
bottom.tga
6  -3.753500 3.541000 -2.674600  -0.976328 0.061670 0.207316  0.600700 0.909700
6  -4.181600 3.492900 -3.469500  -0.980175 0.007462 0.197995  0.598400 0.834000
6  -4.065800 1.919500 -3.397200  -0.988449 -0.091022 0.121172  0.521800 0.840900
bottom.tga
6  -3.753500 3.541000 -2.674600  -0.976328 0.061670 0.207316  0.600700 0.909700
6  -4.065800 1.919500 -3.397200  -0.988449 -0.091022 0.121172  0.521800 0.840900
6  -3.825800 1.895600 -2.683000  -0.997301 -0.002398 0.073387  0.520600 0.908900
bottom.tga
6  -2.897400 9.557100 -2.683800  -0.877618 0.266082 0.398731  0.893700 0.908800
6  -3.626600 9.546700 -3.609100  -0.900855 0.187945 0.391327  0.893200 0.820800
6  -3.747700 8.743400 -3.618300  -0.916522 0.106889 0.385438  0.854100 0.819900
bottom.tga
6  -2.897400 9.557100 -2.683800  -0.877618 0.266082 0.398731  0.893700 0.908800
6  -3.747700 8.743400 -3.618300  -0.916522 0.106889 0.385438  0.854100 0.819900
6  -3.096500 8.724600 -2.680300  -0.932933 0.141534 0.331064  0.853200 0.909200
bottom.tga
6  -3.197400 7.553200 -2.681500  -0.951551 0.122246 0.282147  0.796100 0.909100
6  -3.836600 7.547300 -3.615400  -0.928908 0.078692 0.361854  0.795800 0.820200
6  -4.018200 5.798300 -3.640200  -0.955011 0.087615 0.283333  0.710700 0.817800
bottom.tga
6  -3.197400 7.553200 -2.681500  -0.951551 0.122246 0.282147  0.796100 0.909100
6  -4.018200 5.798300 -3.640200  -0.955011 0.087615 0.283333  0.710700 0.817800
6  -3.499400 5.810100 -2.674700  -0.941661 0.128801 0.310943  0.711200 0.909700
bottom.tga
6  -3.096500 8.724600 -2.680300  -0.932933 0.141534 0.331064  0.853200 0.909200
6  -3.747700 8.743400 -3.618300  -0.916522 0.106889 0.385438  0.854100 0.819900
6  -3.836600 7.547300 -3.615400  -0.928908 0.078692 0.361854  0.795800 0.820200
bottom.tga
6  -3.096500 8.724600 -2.680300  -0.932933 0.141534 0.331064  0.853200 0.909200
6  -3.836600 7.547300 -3.615400  -0.928908 0.078692 0.361854  0.795800 0.820200
6  -3.197400 7.553200 -2.681500  -0.951551 0.122246 0.282147  0.796100 0.909100
bottom.tga
6  -3.454400 -1.558900 -2.614200  -0.884621 -0.413283 -0.215971  0.352400 0.915500
6  -3.295600 -1.572300 -2.990300  -0.829658 -0.438768 -0.345182  0.351800 0.879700
6  -2.523300 -2.776900 -2.851200  -0.704248 -0.617227 -0.350807  0.293100 0.892900
bottom.tga
6  -3.454400 -1.558900 -2.614200  -0.884621 -0.413283 -0.215971  0.352400 0.915500
6  -2.523300 -2.776900 -2.851200  -0.704248 -0.617227 -0.350807  0.293100 0.892900
6  -2.747900 -2.762900 -2.584700  -0.672583 -0.732362 -0.106201  0.293800 0.918300
bottom.tga
6  -1.500700 -3.585500 -2.565100  -0.347026 -0.854301 0.386966  0.253700 0.920100
6  -1.412100 -3.748700 -2.715600  -0.458018 -0.744729 0.485383  0.245800 0.905800
6  0.051500 -4.203000 -2.652300  0.000005 -0.514584 0.857440  0.223700 0.911800
bottom.tga
6  -1.500700 -3.585500 -2.565100  -0.347026 -0.854301 0.386966  0.253700 0.920100
6  0.051500 -4.203000 -2.652300  0.000005 -0.514584 0.857440  0.223700 0.911800
6  0.051500 -3.970000 -2.556000  0.000002 -0.823358 0.567522  0.235000 0.921000
bottom.tga
6  -4.126700 3.444900 -4.264300  -0.978725 -0.081768 -0.188179  0.596100 0.758400
6  -4.181600 3.492900 -3.469500  -0.980175 0.007462 0.197995  0.598400 0.834000
6  -4.018200 5.798300 -3.640200  -0.955011 0.087615 0.283333  0.710700 0.817800
bottom.tga
6  -4.126700 3.444900 -4.264300  -0.978725 -0.081768 -0.188179  0.596100 0.758400
6  -4.018200 5.798300 -3.640200  -0.955011 0.087615 0.283333  0.710700 0.817800
6  -4.127800 5.786500 -4.605700  -0.999976 -0.002616 -0.006352  0.710100 0.725900
bottom.tga
6  -3.280000 10.457200 -3.632300  -0.670616 0.576310 0.467056  0.937500 0.818500
6  -2.508800 10.424700 -2.690800  -0.750565 0.615071 0.241534  0.935900 0.908200
6  0.051500 11.740400 -2.824000  -0.000000 0.994302 -0.106601  1.000000 0.895500
bottom.tga
6  1.655200 -2.804600 -3.746200  0.684813 -0.498600 -0.531441  0.291800 0.807700
6  2.401600 -2.790900 -3.117700  0.620103 -0.570074 -0.538970  0.292400 0.867500
6  1.426400 -3.912000 -2.866200  0.668502 -0.739119 0.082508  0.237800 0.891500
bottom.tga
6  0.051500 -4.436100 -2.748600  0.000031 -0.490193 0.871614  0.212300 0.902700
6  -1.323500 -3.912000 -2.866200  -0.592951 -0.716970 0.366556  0.237800 0.891500
6  -0.446600 -5.291800 -3.408700  -0.935550 -0.314426 0.160878  0.170600 0.839800
bottom.tga
6  0.051500 -4.436100 -2.748600  -0.000037 -0.490250 0.871582  0.212300 0.902700
6  -0.446600 -5.291800 -3.408700  -0.935538 -0.314482 0.160840  0.170600 0.839800
6  0.051500 -5.292100 -2.875700  0.000052 -0.070619 0.997503  0.170600 0.890600
bottom.tga
6  -0.446600 -5.291800 -3.408700  -0.935603 -0.314283 0.160851  0.170600 0.839800
6  -1.323500 -3.912000 -2.866200  -0.592712 -0.717086 0.366714  0.237800 0.891500
6  -2.298700 -2.790900 -3.117700  -0.685140 -0.567889 -0.456163  0.292400 0.867500
bottom.tga
6  -0.446600 -5.291800 -3.408700  -0.935548 -0.314389 0.160963  0.170600 0.839800
6  -2.298700 -2.790900 -3.117700  -0.685150 -0.568015 -0.455992  0.292400 0.867500
6  -1.552300 -2.804600 -3.746200  -0.658524 -0.460843 -0.594954  0.291800 0.807700
topfront.tga
6  3.550500 5.821800 -1.800500  0.782087 0.104140 0.614406  0.899900 0.357200
6  3.308700 7.559000 -1.800600  0.695230 0.085564 0.713676  0.906700 0.293500
6  0.051500 7.496900 -1.747100  0.000000 -0.008608 0.999963  0.998300 0.295800
topfront.tga
6  3.550500 5.821800 -1.800500  0.782087 0.104140 0.614406  0.899900 0.357200
6  0.051500 7.496900 -1.747100  0.000000 -0.008608 0.999963  0.998300 0.295800
6  0.051500 5.759700 -1.747100  0.000000 0.000329 1.000000  0.998300 0.359500
topfront.tga
6  2.905600 9.565900 -1.800600  0.647076 0.229008 0.727219  0.918100 0.219900
6  2.577700 10.432300 -1.800600  0.534052 0.616131 0.578940  0.927300 0.188100
6  0.051500 10.370200 -1.747100  0.000001 0.020081 0.999798  0.998300 0.190400
topfront.tga
6  2.905600 9.565900 -1.800600  0.647076 0.229008 0.727219  0.918100 0.219900
6  0.051500 10.370200 -1.747100  0.000001 0.020081 0.999798  0.998300 0.190400
6  0.051500 9.503800 -1.747100  0.000000 0.023548 0.999723  0.998300 0.222100
topfront.tga
6  3.912500 1.866000 -1.800500  0.701045 0.028824 0.712534  0.889800 0.502300
6  3.820100 3.536000 -1.800500  0.549936 0.047305 0.833866  0.892400 0.441000
6  0.051500 3.473900 -1.747000  0.000000 0.000124 1.000000  0.998300 0.443300
topfront.tga
6  3.912500 1.866000 -1.800500  0.701045 0.028824 0.712534  0.889800 0.502300
6  0.051500 3.473900 -1.747000  0.000000 0.000124 1.000000  0.998300 0.443300
6  0.051500 1.803800 -1.747000  0.000000 0.000050 1.000000  0.998300 0.504600
topfront.tga
6  3.820100 3.536000 -1.800500  0.549936 0.047305 0.833866  0.892400 0.441000
6  3.550500 5.821800 -1.800500  0.782087 0.104140 0.614406  0.899900 0.357200
6  0.051500 5.759700 -1.747100  0.000000 0.000329 1.000000  0.998300 0.359500
topfront.tga
6  3.820100 3.536000 -1.800500  0.549936 0.047305 0.833866  0.892400 0.441000
6  0.051500 5.759700 -1.747100  0.000000 0.000329 1.000000  0.998300 0.359500
6  0.051500 3.473900 -1.747000  0.000000 0.000124 1.000000  0.998300 0.443300
topfront.tga
6  3.097000 8.706300 -1.779800  0.657903 0.147574 0.738502  0.912700 0.251400
6  2.905600 9.565900 -1.800600  0.647076 0.229008 0.727219  0.918100 0.219900
6  0.051500 9.503800 -1.747100  0.000000 0.023548 0.999723  0.998300 0.222100
topfront.tga
6  3.097000 8.706300 -1.779800  0.657903 0.147574 0.738502  0.912700 0.251400
6  0.051500 9.503800 -1.747100  0.000000 0.023548 0.999723  0.998300 0.222100
6  0.051500 8.644200 -1.726300  -0.000000 -0.002177 0.999998  0.998300 0.253700
topfront.tga
6  3.960900 -0.332900 -1.800500  0.713665 -0.098516 0.693525  0.888400 0.583000
6  3.912500 1.866000 -1.800500  0.701045 0.028824 0.712534  0.889800 0.502300
6  0.051500 1.803800 -1.747000  0.000000 0.000050 1.000000  0.998300 0.504600
topfront.tga
6  3.960900 -0.332900 -1.800500  0.713665 -0.098516 0.693525  0.888400 0.583000
6  0.051500 1.803800 -1.747000  0.000000 0.000050 1.000000  0.998300 0.504600
6  0.051500 -0.395000 -1.747000  0.000000 -0.000042 1.000000  0.998300 0.585200
topfront.tga
6  3.960900 -0.332900 -1.800500  0.713665 -0.098516 0.693525  0.888400 0.583000
6  0.051500 -0.395000 -1.747000  0.000000 -0.000042 1.000000  0.998300 0.585200
6  0.051500 -1.589400 -1.747100  0.000000 -0.001517 0.999999  0.998300 0.629100
topfront.tga
6  3.960900 -0.332900 -1.800500  0.713665 -0.098516 0.693525  0.888400 0.583000
6  0.051500 -1.589400 -1.747100  0.000000 -0.001517 0.999999  0.998300 0.629100
6  3.620800 -1.527300 -1.800500  0.672386 -0.284120 0.683500  0.898000 0.626800
topfront.tga
6  3.308700 7.559000 -1.800600  0.695230 0.085564 0.713676  0.906700 0.293500
6  3.097000 8.706300 -1.779800  0.657903 0.147574 0.738502  0.912700 0.251400
6  0.051500 8.644200 -1.726300  -0.000000 -0.002177 0.999998  0.998300 0.253700
topfront.tga
6  3.308700 7.559000 -1.800600  0.695230 0.085564 0.713676  0.906700 0.293500
6  0.051500 8.644200 -1.726300  -0.000000 -0.002177 0.999998  0.998300 0.253700
6  0.051500 7.496900 -1.747100  0.000000 -0.008608 0.999963  0.998300 0.295800
topfront.tga
6  1.630100 -3.566100 -1.800500  0.328075 -0.649294 0.686137  0.953900 0.701600
6  2.933900 -2.721600 -1.800500  0.560224 -0.454306 0.692644  0.917300 0.670600
6  0.051500 -2.783800 -1.747100  0.000012 -0.004525 0.999990  0.998300 0.672900
topfront.tga
6  1.630100 -3.566100 -1.800500  0.328075 -0.649294 0.686137  0.953900 0.701600
6  0.051500 -2.783800 -1.747100  0.000012 -0.004525 0.999990  0.998300 0.672900
6  0.051500 -3.628200 -1.747100  -0.000117 -0.072825 0.997345  0.998300 0.703800
topfront.tga
6  2.933900 -2.721600 -1.800500  0.560224 -0.454306 0.692644  0.917300 0.670600
6  3.620800 -1.527300 -1.800500  0.672386 -0.284120 0.683500  0.898000 0.626800
6  0.051500 -1.589400 -1.747100  0.000000 -0.001517 0.999999  0.998300 0.629100
topfront.tga
6  2.933900 -2.721600 -1.800500  0.560224 -0.454306 0.692644  0.917300 0.670600
6  0.051500 -1.589400 -1.747100  0.000000 -0.001517 0.999999  0.998300 0.629100
6  0.051500 -2.783800 -1.747100  0.000012 -0.004525 0.999990  0.998300 0.672900
topfront.tga
6  1.630100 -3.566100 -1.800500  0.328075 -0.649294 0.686137  0.953900 0.701600
6  0.051500 -3.628200 -1.747100  -0.000117 -0.072825 0.997345  0.998300 0.703800
6  0.051500 -3.960800 -1.800500  0.000024 -0.900399 0.435065  0.998300 0.716000
topfront.tga
6  2.577700 10.432300 -1.800600  0.534052 0.616131 0.578940  0.927300 0.188100
6  0.051500 11.731600 -1.800600  0.000008 0.678112 0.734959  0.998300 0.140400
6  0.051500 10.370200 -1.747100  0.000001 0.020081 0.999798  0.998300 0.190400
topfront.tga
6  -3.447600 5.821800 -1.800500  -0.781913 0.105574 0.614382  0.105000 0.357200
6  0.051500 5.759700 -1.747100  0.000000 0.000329 1.000000  0.006600 0.359500
6  0.051500 7.496900 -1.747100  0.000000 -0.008608 0.999963  0.006600 0.295800
topfront.tga
6  -3.447600 5.821800 -1.800500  -0.781913 0.105574 0.614382  0.105000 0.357200
6  0.051500 7.496900 -1.747100  0.000000 -0.008608 0.999963  0.006600 0.295800
6  -3.205800 7.559000 -1.800600  -0.695230 0.085566 0.713677  0.098200 0.293500
topfront.tga
6  -2.802700 9.565900 -1.800600  -0.647065 0.229011 0.727228  0.086800 0.219900
6  0.051500 9.503800 -1.747100  0.000000 0.023548 0.999723  0.006600 0.222100
6  0.051500 10.370200 -1.747100  0.000001 0.020081 0.999798  0.006600 0.190400
topfront.tga
6  -2.802700 9.565900 -1.800600  -0.647065 0.229011 0.727228  0.086800 0.219900
6  0.051500 10.370200 -1.747100  0.000001 0.020081 0.999798  0.006600 0.190400
6  -2.474800 10.432400 -1.800600  -0.534054 0.616154 0.578913  0.077600 0.188100
topfront.tga
6  -3.809600 1.866000 -1.800500  -0.701045 0.028824 0.712534  0.115100 0.502300
6  0.051500 1.803800 -1.747000  0.000000 0.000050 1.000000  0.006600 0.504600
6  0.051500 3.473900 -1.747000  0.000000 0.000124 1.000000  0.006600 0.443300
topfront.tga
6  -3.809600 1.866000 -1.800500  -0.701045 0.028824 0.712534  0.115100 0.502300
6  0.051500 3.473900 -1.747000  0.000000 0.000124 1.000000  0.006600 0.443300
6  -3.717200 3.536000 -1.800500  -0.549938 0.047279 0.833867  0.112500 0.441000
topfront.tga
6  -3.717200 3.536000 -1.800500  -0.549938 0.047279 0.833867  0.112500 0.441000
6  0.051500 3.473900 -1.747000  0.000000 0.000124 1.000000  0.006600 0.443300
6  0.051500 5.759700 -1.747100  0.000000 0.000329 1.000000  0.006600 0.359500
topfront.tga
6  -3.717200 3.536000 -1.800500  -0.549938 0.047279 0.833867  0.112500 0.441000
6  0.051500 5.759700 -1.747100  0.000000 0.000329 1.000000  0.006600 0.359500
6  -3.447600 5.821800 -1.800500  -0.781913 0.105574 0.614382  0.105000 0.357200
topfront.tga
6  -2.994100 8.706300 -1.779800  -0.657901 0.147594 0.738500  0.092200 0.251400
6  0.051500 8.644200 -1.726300  -0.000000 -0.002177 0.999998  0.006600 0.253700
6  0.051500 9.503800 -1.747100  0.000000 0.023548 0.999723  0.006600 0.222100
topfront.tga
6  -2.994100 8.706300 -1.779800  -0.657901 0.147594 0.738500  0.092200 0.251400
6  0.051500 9.503800 -1.747100  0.000000 0.023548 0.999723  0.006600 0.222100
6  -2.802700 9.565900 -1.800600  -0.647065 0.229011 0.727228  0.086800 0.219900
topfront.tga
6  -3.858000 -0.332900 -1.800500  -0.713668 -0.098511 0.693523  0.116500 0.583000
6  0.051500 -0.395000 -1.747000  0.000000 -0.000042 1.000000  0.006600 0.585200
6  0.051500 1.803800 -1.747000  0.000000 0.000050 1.000000  0.006600 0.504600
topfront.tga
6  -3.858000 -0.332900 -1.800500  -0.713668 -0.098511 0.693523  0.116500 0.583000
6  0.051500 1.803800 -1.747000  0.000000 0.000050 1.000000  0.006600 0.504600
6  -3.809600 1.866000 -1.800500  -0.701045 0.028824 0.712534  0.115100 0.502300
topfront.tga
6  -3.858000 -0.332900 -1.800500  -0.713668 -0.098511 0.693523  0.116500 0.583000
6  -3.517900 -1.527300 -1.800500  -0.672310 -0.284131 0.683571  0.106900 0.626800
6  0.051500 -1.589400 -1.747100  0.000000 -0.001517 0.999999  0.006600 0.629100
topfront.tga
6  -3.858000 -0.332900 -1.800500  -0.713668 -0.098511 0.693523  0.116500 0.583000
6  0.051500 -1.589400 -1.747100  0.000000 -0.001517 0.999999  0.006600 0.629100
6  0.051500 -0.395000 -1.747000  0.000000 -0.000042 1.000000  0.006600 0.585200
topfront.tga
6  -3.205800 7.559000 -1.800600  -0.695230 0.085566 0.713677  0.098200 0.293500
6  0.051500 7.496900 -1.747100  0.000000 -0.008608 0.999963  0.006600 0.295800
6  0.051500 8.644200 -1.726300  -0.000000 -0.002177 0.999998  0.006600 0.253700
topfront.tga
6  -3.205800 7.559000 -1.800600  -0.695230 0.085566 0.713677  0.098200 0.293500
6  0.051500 8.644200 -1.726300  -0.000000 -0.002177 0.999998  0.006600 0.253700
6  -2.994100 8.706300 -1.779800  -0.657901 0.147594 0.738500  0.092200 0.251400
topfront.tga
6  -1.527200 -3.566100 -1.800400  -0.328094 -0.649259 0.686161  0.051000 0.701600
6  0.051500 -3.628200 -1.747100  -0.000117 -0.072825 0.997345  0.006600 0.703800
6  0.051500 -2.783800 -1.747100  0.000012 -0.004525 0.999990  0.006600 0.672900
topfront.tga
6  -1.527200 -3.566100 -1.800400  -0.328094 -0.649259 0.686161  0.051000 0.701600
6  0.051500 -2.783800 -1.747100  0.000012 -0.004525 0.999990  0.006600 0.672900
6  -2.831000 -2.721600 -1.800500  -0.560235 -0.454318 0.692627  0.087600 0.670600
topfront.tga
6  -2.831000 -2.721600 -1.800500  -0.560235 -0.454318 0.692627  0.087600 0.670600
6  0.051500 -2.783800 -1.747100  0.000012 -0.004525 0.999990  0.006600 0.672900
6  0.051500 -1.589400 -1.747100  0.000000 -0.001517 0.999999  0.006600 0.629100
topfront.tga
6  -2.831000 -2.721600 -1.800500  -0.560235 -0.454318 0.692627  0.087600 0.670600
6  0.051500 -1.589400 -1.747100  0.000000 -0.001517 0.999999  0.006600 0.629100
6  -3.517900 -1.527300 -1.800500  -0.672310 -0.284131 0.683571  0.106900 0.626800
topfront.tga
6  -1.527200 -3.566100 -1.800400  -0.328094 -0.649259 0.686161  0.051000 0.701600
6  0.051500 -3.960800 -1.800500  0.000024 -0.900399 0.435065  0.006600 0.716000
6  0.051500 -3.628200 -1.747100  -0.000117 -0.072825 0.997345  0.006600 0.703800
topfront.tga
6  -2.474800 10.432400 -1.800600  -0.534054 0.616154 0.578913  0.077600 0.188100
6  0.051500 10.370200 -1.747100  0.000001 0.020081 0.999798  0.006600 0.190400
6  0.051500 11.731600 -1.800600  0.000008 0.678112 0.734959  0.006600 0.140400
under.tga
6  3.821600 10.489700 -4.573800  0.802265 0.596958 0.003452  0.000000 0.918100
6  3.611200 9.601700 -5.783500  0.652278 0.464266 -0.599158  0.027600 0.860000
6  0.051500 11.740400 -2.824000  -0.000000 0.994302 -0.106601  0.499400 1.000000
under.tga
6  3.611200 9.601700 -5.783500  0.652278 0.464266 -0.599158  0.027600 0.860000
6  3.585600 8.131900 -6.292700  0.770037 0.238690 -0.591667  0.030900 0.763700
6  0.051500 9.037600 -6.869000  0.000007 0.390683 -0.920525  0.502700 0.788300
under.tga
6  4.115900 5.938300 -6.882900  0.812303 0.057797 -0.580365  0.000000 0.620100
6  2.859100 3.641000 -7.379400  0.598708 0.119949 -0.791935  0.126200 0.469600
6  0.051500 9.037600 -6.869000  0.000007 0.390683 -0.920525  0.502700 0.788300
under.tga
6  4.115900 5.938300 -6.882900  0.812303 0.057797 -0.580365  0.000000 0.620100
6  0.051500 9.037600 -6.869000  0.000007 0.390683 -0.920525  0.502700 0.788300
6  3.585600 8.131900 -6.292700  0.770037 0.238690 -0.591667  0.030900 0.763700
under.tga
7  0.027300 0.346300 -11.237500  -0.144807 0.533408 -0.833371  0.499700 0.253100
6  1.640400 2.980500 -8.658600  0.329447 0.681514 -0.653454  0.286000 0.426400
7  1.469100 0.751000 -10.663800  0.532838 -0.548231 -0.644613  0.308400 0.280400
under.tga
6  0.051500 9.037600 -6.869000  0.000007 0.390683 -0.920525  0.502700 0.788300
6  0.051500 11.740400 -2.824000  -0.000000 0.994302 -0.106601  0.499400 1.000000
6  3.611200 9.601700 -5.783500  0.652278 0.464266 -0.599158  0.027600 0.860000
under.tga
6  1.640400 2.980500 -8.658600  0.329447 0.681514 -0.653454  0.286000 0.426400
6  -1.537500 2.980500 -8.658600  -0.218699 0.681617 -0.698262  0.719500 0.426400
6  -2.756200 3.641000 -7.379400  -0.554389 0.236422 -0.797971  0.878500 0.469700
under.tga
6  1.640400 2.980500 -8.658600  0.329447 0.681514 -0.653454  0.286000 0.426400
6  -2.756200 3.641000 -7.379400  -0.554389 0.236422 -0.797971  0.878500 0.469700
6  2.859100 3.641000 -7.379400  0.598708 0.119949 -0.791935  0.127000 0.469700
under.tga
6  -2.756200 3.641000 -7.379400  -0.554389 0.236422 -0.797971  0.878500 0.469700
6  0.051500 9.037600 -6.869000  0.000007 0.390683 -0.920525  0.502700 0.788300
6  2.859100 3.641000 -7.379400  0.598708 0.119949 -0.791935  0.127000 0.469700
under.tga
6  -3.718700 10.489700 -4.573700  -0.802271 0.596949 0.003491  1.005500 0.918100
6  0.051500 11.740400 -2.824000  -0.000000 0.994302 -0.106601  0.506100 1.000000
6  -3.508200 9.601700 -5.783500  -0.652246 0.464285 -0.599178  0.977900 0.860000
under.tga
6  -3.508200 9.601700 -5.783500  -0.652246 0.464285 -0.599178  0.977900 0.860000
6  0.051500 9.037600 -6.869000  0.000007 0.390683 -0.920525  0.502700 0.788300
6  -3.482700 8.131900 -6.292700  -0.770035 0.238687 -0.591671  0.974600 0.763700
under.tga
6  -4.013000 5.938300 -6.882900  -0.812303 0.057793 -0.580366  1.005500 0.620100
6  0.051500 9.037600 -6.869000  0.000007 0.390683 -0.920525  0.502700 0.788300
6  -2.756200 3.641000 -7.379400  -0.554389 0.236422 -0.797971  0.879300 0.469600
under.tga
6  -4.013000 5.938300 -6.882900  -0.812303 0.057793 -0.580366  1.005500 0.620100
6  -3.482700 8.131900 -6.292700  -0.770035 0.238687 -0.591671  0.974600 0.763700
6  0.051500 9.037600 -6.869000  0.000007 0.390683 -0.920525  0.502700 0.788300
under.tga
6  0.051500 9.037600 -6.869000  0.000007 0.390683 -0.920525  0.502700 0.788300
6  -3.508200 9.601700 -5.783500  -0.652246 0.464285 -0.599178  0.977900 0.860000
6  0.051500 11.740400 -2.824000  -0.000000 0.994302 -0.106601  0.506100 1.000000
under.tga
7  -1.366200 0.751000 -10.663800  -0.544183 -0.582398 -0.603885  0.686200 0.271300
6  -1.537500 2.980500 -8.658600  -0.218701 0.681368 -0.698503  0.719500 0.426400
7  0.027300 0.346300 -11.237500  -0.378722 -0.913373 -0.149396  0.499700 0.253100
under.tga
7  0.027300 0.346300 -11.237500  -0.378722 -0.913373 -0.149396  0.499700 0.253100
6  -1.537500 2.980500 -8.658600  -0.218701 0.681368 -0.698503  0.719500 0.426400
7  -0.051600 1.615100 -10.330800  -0.027586 0.652455 -0.757325  0.513500 0.336600
under.tga
6  1.640400 2.980500 -8.658600  0.329447 0.681514 -0.653454  0.286000 0.426400
7  -0.051600 1.615100 -10.330800  -0.027751 0.652225 -0.757517  0.513500 0.336600
6  -1.537500 2.980500 -8.658600  -0.218699 0.681617 -0.698262  0.719500 0.426400
under.tga
7  -0.051600 1.615100 -10.330800  -0.027859 0.652468 -0.757304  0.513500 0.336600
6  1.640400 2.980500 -8.658600  0.329447 0.681514 -0.653454  0.286000 0.426400
7  0.027300 0.346300 -11.237500  -0.144807 0.533408 -0.833371  0.499700 0.253100
backcap.tga
7  -2.089600 0.040800 -8.171600  -0.697244 -0.478286 -0.533942  0.103843 0.762500
7  2.192500 0.040800 -8.171600  0.732855 -0.408547 -0.544070  0.855401 0.762500
7  0.997800 -1.729600 -7.340200  0.330128 -0.678544 -0.656197  0.645718 0.942959
backcap.tga
7  -1.366200 0.751000 -10.663800  -0.544183 -0.582398 -0.603885  0.230454 0.501083
7  0.027300 0.346300 -11.237500  -0.378722 -0.913373 -0.149396  0.475210 0.451166
7  1.469100 0.751000 -10.663800  0.532838 -0.548231 -0.644613  0.728449 0.501083
backcap.tga
7  2.151700 1.325400 -9.189900  0.760192 -0.175528 -0.625539  0.848241 0.611256
7  2.192500 0.040800 -8.171600  0.732855 -0.408547 -0.544070  0.855401 0.762500
7  -2.048800 1.325400 -9.189900  -0.801122 -0.324473 -0.502913  0.111004 0.611256
backcap.tga
7  2.192500 0.040800 -8.171600  0.732855 -0.408547 -0.544070  0.855401 0.762500
7  1.612600 -1.361800 -7.488500  0.435888 -0.854257 -0.283278  0.753737 0.906463
7  0.997800 -1.729600 -7.340200  0.330128 -0.678544 -0.656197  0.645718 0.942959
backcap.tga
7  -2.048800 1.325400 -9.189900  -0.801122 -0.324473 -0.502913  0.111004 0.611256
7  2.192500 0.040800 -8.171600  0.732855 -0.408547 -0.544070  0.855401 0.762500
7  -2.089600 0.040800 -8.171600  -0.697244 -0.478286 -0.533942  0.103843 0.762500
backcap.tga
7  0.997800 -1.729600 -7.340200  0.330128 -0.678544 -0.656197  0.645718 0.942959
7  0.051500 -2.204900 -7.148500  0.024412 -0.566600 -0.823631  0.479631 0.990245
7  -0.894900 -1.729600 -7.340200  -0.291208 -0.724106 -0.625195  0.313527 0.942959
backcap.tga
7  -2.089600 0.040800 -8.171600  -0.697244 -0.478286 -0.533942  0.103843 0.762500
7  -0.894900 -1.729600 -7.340200  -0.291208 -0.724106 -0.625195  0.313527 0.942959
7  -1.509700 -1.361800 -7.488500  -0.514993 -0.783976 -0.346646  0.205507 0.906463
backcap.tga
7  0.997800 -1.729600 -7.340200  0.330128 -0.678544 -0.656197  0.645718 0.942959
7  -0.894900 -1.729600 -7.340200  -0.291208 -0.724106 -0.625195  0.313527 0.942959
7  -2.089600 0.040800 -8.171600  -0.697244 -0.478286 -0.533942  0.103843 0.762500
backcap.tga
7  1.469100 0.751000 -10.663800  0.532838 -0.548231 -0.644613  0.728449 0.501083
7  1.786000 0.972600 -10.099400  0.825758 -0.536115 -0.175229  0.784110 0.544194
7  -1.683100 0.972600 -10.099400  -0.827985 -0.531551 -0.178590  0.174793 0.544194
backcap.tga
7  1.786000 0.972600 -10.099400  0.825758 -0.536115 -0.175229  0.784110 0.544194
7  2.151700 1.325400 -9.189900  0.760192 -0.175528 -0.625539  0.848342 0.613554
7  -1.683100 0.972600 -10.099400  -0.827985 -0.531551 -0.178590  0.174793 0.544194
backcap.tga
7  2.151700 1.325400 -9.189900  0.760192 -0.175528 -0.625539  0.848342 0.613554
7  -2.048800 1.325400 -9.189900  -0.801122 -0.324473 -0.502913  0.110561 0.613554
7  -1.683100 0.972600 -10.099400  -0.827985 -0.531551 -0.178590  0.174793 0.544194
backcap.tga
7  -1.683100 0.972600 -10.099400  -0.827985 -0.531551 -0.178590  0.174793 0.544194
7  -1.366200 0.751000 -10.663800  -0.544183 -0.582398 -0.603885  0.230454 0.501083
7  1.469100 0.751000 -10.663800  0.532838 -0.548231 -0.644613  0.728449 0.501083
end
