// Created by Crowbar 0.71
version 1
nodes
  0 "ValveBiped.Bip01" -1
  1 "ValveBiped.Spine" 0
  2 "ValveBiped.Bip01_Spine" 1
  3 "ValveBiped.Bip01_Spine1" 2
  4 "ValveBiped.Bip01_Spine2" 3
  5 "ValveBiped.Bip01_Spine4" 4
  6 "ValveBiped.Eff" 5
  7 "ValveBiped.Neck1" 6
  8 "ValveBiped.Bip01_Neck1" 7
  9 "ValveBiped.Bip01_Head1" 8
  10 "ValveBiped.Bip01_L_Clavicle" 5
  11 "ValveBiped.LShoulderEff" 10
  12 "ValveBiped.Bip01_L_UpperArm" 11
  13 "ValveBiped.Bip01_L_Forearm" 12
  14 "ValveBiped.LArmEff" 13
  15 "ValveBiped.Bip01_L_Hand" 14
  16 "ValveBiped.LHandEffector" 15
  17 "ValveBiped.Bip01_L_Finger1" 16
  18 "ValveBiped.Bip01_L_Finger11" 17
  19 "ValveBiped.Bip01_L_Finger12" 18
  20 "ValveBiped.Bip01_L_Finger2" 16
  21 "ValveBiped.Bip01_L_Finger21" 20
  22 "ValveBiped.Bip01_L_Finger22" 21
  23 "ValveBiped.Bip01_L_Finger3" 16
  24 "ValveBiped.Bip01_L_Finger31" 23
  25 "ValveBiped.Bip01_L_Finger32" 24
  26 "ValveBiped.Bip01_R_Clavicle" 5
  27 "ValveBiped.RShoulderEff" 26
  28 "ValveBiped.Bip01_R_UpperArm" 27
  29 "ValveBiped.Bip01_R_Forearm" 28
  30 "ValveBiped.RArmEff" 29
  31 "ValveBiped.Bip01_R_Hand" 30
  32 "ValveBiped.RHandEffector" 31
  33 "ValveBiped.Bip01_R_Finger1" 32
  34 "ValveBiped.Bip01_R_Finger11" 33
  35 "ValveBiped.Bip01_R_Finger12" 34
  36 "ValveBiped.Bip01_R_Finger2" 32
  37 "ValveBiped.Bip01_R_Finger21" 36
  38 "ValveBiped.Bip01_R_Finger22" 37
  39 "ValveBiped.Bip01_R_Finger3" 32
  40 "ValveBiped.Bip01_R_Finger31" 39
  41 "ValveBiped.Bip01_R_Finger32" 40
  42 "ValveBiped.Bip01_Pelvis" 0
  43 "ValveBiped.Bip01_L_Thigh" 42
  44 "ValveBiped.Bip01_L_Calf" 43
  45 "ValveBiped.LFootEff" 44
  46 "ValveBiped.Bip01_L_Foot" 45
  47 "ValveBiped.Bip01_L_Toe0" 46
  48 "ValveBiped.Bip01_R_Thigh" 42
  49 "ValveBiped.Bip01_R_Calf" 48
  50 "ValveBiped.RFootEff" 49
  51 "ValveBiped.Bip01_R_Foot" 50
  52 "ValveBiped.Bip01_R_Toe0" 51
  53 "ValveBiped.Headcrab_Cube1" 9
  54 "ValveBiped.Headcrab_Cube2" 4
  55 "ValveBiped.Headcrab_Cube3" 2
  56 "ValveBiped.Headcrab_Cube4" 4
  57 "ValveBiped.HC5_Bodybox" -1
  58 "ValveBiped.HCB_hipsFront" 57
  59 "ValveBiped.bone" 58
  60 "ValveBiped.Eff8" 59
  61 "ValveBiped.bone1" 60
  62 "ValveBiped.bone2" 61
  63 "ValveBiped.bone3" 58
  64 "ValveBiped.Eff10" 63
  65 "ValveBiped.bone4" 64
  66 "ValveBiped.bone5" 65
  67 "ValveBiped.HCB_hipsFront01" 57
  68 "ValveBiped.bone8" 67
  69 "ValveBiped.bone9" 68
  70 "ValveBiped.bone6" 67
  71 "ValveBiped.bone7" 70
end
skeleton
  time 0
    0 -3.499271 0.942349 34.459015 1.963495 0.000000 -0.119891
    1 0.000005 3.343750 -2.980469 0.000000 0.000000 0.000000
    2 0.000000 0.000002 0.000001 0.125414 -0.434055 1.753012
    3 4.126702 0.000000 -0.000001 -0.054978 -0.314159 0.006827
    4 3.613000 0.000000 0.000002 0.023562 -0.298451 -0.202508
    5 9.183998 0.000000 0.000002 -0.007071 -0.142039 -0.024033
    6 3.136719 0.000001 0.000006 0.000000 0.000000 0.000000
    7 -0.022110 0.000372 -0.000006 0.000000 0.000000 0.000000
    8 -0.000002 0.000000 -0.000002 -0.024622 0.925925 -0.034403
    9 1.720703 0.000000 0.000002 0.000000 -0.392698 0.015097
    10 1.666992 -2.621094 1.204102 0.167878 -0.160052 -1.817353
    11 6.027344 -0.000001 0.000002 0.000000 0.000000 0.000000
    12 0.000000 0.000000 0.000001 -2.406041 -0.857868 0.513757
    13 12.693000 0.000000 0.000001 0.000000 0.000000 -1.260846
    14 11.570313 0.000004 0.000002 0.000000 0.000000 0.000000
    15 0.000000 0.000000 0.000001 -1.373183 0.602075 0.350723
    16 5.406250 0.000001 0.000001 0.000000 0.000000 0.000000
    17 0.182129 0.133423 -1.864258 0.204203 0.169295 -0.060213
    18 5.292969 -0.000001 0.000001 -0.073574 -0.006249 0.809507
    19 3.078125 0.000000 -0.000001 0.006978 -0.006849 0.667653
    20 0.330566 0.047577 -0.612793 -0.146202 -0.021738 0.350197
    21 5.652344 0.000000 -0.000001 -0.067744 -0.006071 0.542601
    22 3.324219 -0.000001 0.000001 0.009337 -0.006636 1.264736
    23 0.153198 0.327148 0.486328 -0.329866 -0.354521 0.774742
    24 5.156250 0.000001 -0.000001 -0.070281 -0.005679 0.432911
    25 3.324219 0.000001 -0.000001 0.008884 -0.007390 1.407858
    26 1.659054 2.569644 1.216365 -0.165570 0.036625 1.604596
    27 6.027344 0.000000 0.000000 0.000000 0.000000 0.000000
    28 0.000000 0.000000 -0.000001 1.664261 -0.747770 -0.183090
    29 12.693002 0.000000 0.000000 0.000000 0.000000 0.973791
    30 11.570313 -0.000001 0.000003 0.000000 0.000000 0.000000
    31 0.021282 0.135179 0.107485 -0.630719 0.044388 0.130970
    32 5.406250 0.000000 0.000001 0.000000 0.000000 0.000000
    33 0.491455 -0.634766 1.689453 0.424113 -0.106556 0.188975
    34 5.246094 0.000000 0.000002 0.000000 0.000000 0.483077
    35 3.150391 -0.000001 -0.000001 0.000000 0.000000 0.524056
    36 0.780273 -0.664551 0.434814 0.204203 0.029273 0.408381
    37 5.507813 -0.000001 0.000001 0.000000 0.000000 0.844924
    38 3.324219 0.000000 0.000001 0.000000 0.000000 0.524186
    39 0.519043 -0.249634 -0.697754 0.392698 0.156781 0.512253
    40 5.070313 0.000001 0.000001 0.000000 0.000000 0.816812
    41 3.324219 0.000001 0.000001 0.000000 0.000000 1.115264
    42 0.000000 0.000001 -0.000001 0.000000 0.000000 0.148647
    43 3.890452 -0.000007 -0.000090 -1.794177 -1.070427 -1.442465
    44 17.590998 -0.000001 0.000000 0.000000 0.000000 0.898583
    45 17.687500 -0.000001 0.000000 0.000000 0.000000 0.000000
    46 0.000000 0.000000 0.000000 0.020994 -0.387277 -1.014647
    47 6.878906 0.000000 0.000000 -0.085837 -0.002954 -0.584446
    48 -3.890442 -0.000009 -0.000089 1.116249 -0.842517 -1.603075
    49 17.590998 0.000000 0.000000 0.000000 0.000000 -1.024900
    50 17.687500 0.000000 -0.000001 0.000000 0.000000 0.000000
    51 0.000000 0.000000 0.000000 0.063404 0.163435 1.545327
    52 6.878906 0.000000 0.000001 -0.096875 0.003782 0.622898
    53 8.687500 -0.818848 2.572266 -1.012363 -0.183304 -1.560894
    54 10.585938 -10.429688 -4.976563 -0.898031 -0.379909 -2.476024
    55 3.888672 -3.158203 -7.617188 -0.785152 -0.140022 -1.821701
    56 7.511719 7.671875 -6.628906 -1.257911 0.294781 -1.042104
    57 -4.265625 5.093750 50.250000 1.040651 0.000000 -1.570796
    58 -0.002710 -0.820313 3.882813 -1.570795 0.000000 0.000000
    59 4.066406 0.218384 -2.248047 -3.138338 -0.000048 0.029246
    60 3.089844 0.000001 0.000000 0.000000 0.000000 0.000000
    61 0.000000 0.000001 0.000000 1.327537 -0.061616 1.278988
    62 10.179688 0.000001 0.000000 0.000000 0.000000 0.645964
    63 -4.066406 0.218384 -2.248047 1.572069 -0.043930 3.112635
    64 3.089844 -0.000001 -0.000001 0.000000 0.000000 0.000000
    65 0.000000 -0.000001 -0.000001 0.029922 1.270810 -0.265755
    66 10.179688 0.000001 -0.000001 0.000000 0.000000 -0.652765
    67 -0.002710 0.339600 -5.550781 -1.570795 0.000000 0.000000
    68 -3.888672 -2.343750 -0.389648 1.615467 0.035809 2.061134
    69 14.656250 0.000000 0.000000 0.000000 0.000000 -1.039906
    70 3.888672 -2.343750 0.000003 1.525400 0.062341 1.080455
    71 14.671875 0.000000 0.000000 0.000000 0.000000 -1.013399
  time 1
    0 -2.725810 1.680653 35.603581 1.969613 0.000000 -0.122433
    1 0.000005 3.343750 -2.980469 0.000000 0.000000 0.000000
    2 0.000000 0.000002 0.000001 0.129333 -0.201716 1.753012
    3 4.126702 0.000000 -0.000001 -0.113115 -0.396655 0.007558
    4 3.613000 0.000000 0.000002 -0.032614 -0.443385 -0.201784
    5 9.183998 0.000000 0.000002 -0.010898 -0.291331 -0.023661
    6 3.136719 0.000001 0.000006 0.000000 0.000000 0.000000
    7 -0.022110 0.000372 -0.000006 0.000000 0.000000 0.000000
    8 -0.000002 0.000000 -0.000002 -0.024622 0.925925 -0.034403
    9 1.720703 0.000000 0.000002 0.000000 -0.392698 0.015097
    10 1.666992 -2.621094 1.204102 0.167878 -0.160052 -1.817353
    11 6.027344 -0.000001 0.000002 0.000000 0.000000 0.000000
    12 0.000000 0.000000 0.000001 -2.821503 -0.884374 0.709656
    13 12.693000 0.000000 0.000001 0.000000 0.000000 -1.055829
    14 11.570313 0.000004 0.000002 0.000000 0.000000 0.000000
    15 0.000000 0.000000 0.000001 -1.181727 0.322364 0.276504
    16 5.406250 0.000001 0.000001 0.000000 0.000000 0.000000
    17 0.182129 0.133423 -1.864258 0.204203 0.169295 -0.060213
    18 5.292969 -0.000001 0.000001 -0.073574 -0.006249 0.809507
    19 3.078125 0.000000 -0.000001 0.006978 -0.006849 0.667653
    20 0.330566 0.047577 -0.612793 -0.146202 -0.021738 0.350197
    21 5.652344 0.000000 -0.000001 -0.067744 -0.006071 0.542601
    22 3.324219 -0.000001 0.000001 0.009337 -0.006636 1.264736
    23 0.153198 0.327148 0.486328 -0.329866 -0.354521 0.774742
    24 5.156250 0.000001 -0.000001 -0.070281 -0.005679 0.432911
    25 3.324219 0.000001 -0.000001 0.008884 -0.007390 1.407858
    26 1.659054 2.569644 1.216365 -0.165570 -0.356050 1.282590
    27 6.027344 0.000000 0.000000 0.000000 0.000000 0.000000
    28 0.000000 0.000000 -0.000001 2.000616 -0.418901 -0.073797
    29 12.693002 0.000000 0.000000 0.000000 0.000000 1.000193
    30 11.570313 -0.000001 0.000003 0.000000 0.000000 0.000000
    31 0.021282 0.135179 0.107485 -0.617824 0.008746 0.041673
    32 5.406250 0.000000 0.000001 0.000000 0.000000 0.000000
    33 0.491455 -0.634766 1.689453 0.424113 -0.106556 0.188975
    34 5.246094 0.000000 0.000002 0.000000 0.000000 0.483077
    35 3.150391 -0.000001 -0.000001 0.000000 0.000000 0.524056
    36 0.780273 -0.664551 0.434814 0.204203 0.029273 0.408381
    37 5.507813 -0.000001 0.000001 0.000000 0.000000 0.844924
    38 3.324219 0.000000 0.000001 0.000000 0.000000 0.524186
    39 0.519043 -0.249634 -0.697754 0.392698 0.156781 0.512253
    40 5.070313 0.000001 0.000001 0.000000 0.000000 0.816812
    41 3.324219 0.000001 0.000001 0.000000 0.000000 1.115264
    42 0.000000 0.000001 -0.000001 0.000000 0.000000 0.148647
    43 3.890452 -0.000007 -0.000090 -1.863851 -0.996322 -1.463843
    44 17.590998 -0.000001 0.000000 0.000000 0.000000 0.715098
    45 17.687500 -0.000001 0.000000 0.000000 0.000000 0.000000
    46 0.000000 0.000000 0.000000 0.077389 -0.329802 -0.955050
    47 6.878906 0.000000 0.000000 -0.085837 -0.002954 -0.584446
    48 -3.890442 -0.000009 -0.000089 1.236188 -0.817958 -1.704581
    49 17.590998 0.000000 0.000000 0.000000 0.000000 -0.875101
    50 17.687500 0.000000 -0.000001 0.000000 0.000000 0.000000
    51 0.000000 0.000000 0.000000 0.049972 0.233213 1.447884
    52 6.878906 0.000000 0.000001 -0.096875 0.003782 0.622898
    53 8.687500 -0.818848 2.572266 -1.012363 -0.183304 -1.560894
    54 10.585938 -10.429688 -4.976563 -0.898031 -0.379909 -2.476024
    55 3.888672 -3.158203 -7.617188 -0.785152 -0.140022 -1.821701
    56 7.511719 7.671875 -6.628906 -1.257911 0.294781 -1.042104
    57 -4.265625 5.093750 50.250000 1.040651 0.000000 -1.570796
    58 -0.002710 -0.820313 3.882813 -1.570795 0.000000 0.000000
    59 4.066406 0.218384 -2.248047 -3.138338 -0.000048 0.029246
    60 3.089844 0.000001 0.000000 0.000000 0.000000 0.000000
    61 0.000000 0.000001 0.000000 1.327537 -0.061616 1.278988
    62 10.179688 0.000001 0.000000 0.000000 0.000000 0.645964
    63 -4.066406 0.218384 -2.248047 1.572069 -0.043930 3.112635
    64 3.089844 -0.000001 -0.000001 0.000000 0.000000 0.000000
    65 0.000000 -0.000001 -0.000001 0.029922 1.270810 -0.265755
    66 10.179688 0.000001 -0.000001 0.000000 0.000000 -0.652765
    67 -0.002710 0.339600 -5.550781 -1.570795 0.000000 0.000000
    68 -3.888672 -2.343750 -0.389648 1.615467 0.035809 2.061134
    69 14.656250 0.000000 0.000000 0.000000 0.000000 -1.039906
    70 3.888672 -2.343750 0.000003 1.525400 0.062341 1.080455
    71 14.671875 0.000000 0.000000 0.000000 0.000000 -1.013399
  time 2
    0 -2.190637 2.977568 37.052844 1.972245 0.000000 -0.123542
    1 0.000005 3.343750 -2.980469 0.000000 0.000000 0.000000
    2 0.000000 0.000002 0.000001 0.125414 0.068595 1.753012
    3 4.126702 0.000000 -0.000001 -0.164925 -0.439805 0.006827
    4 3.613000 0.000000 0.000002 -0.086382 -0.565454 -0.202508
    5 9.183998 0.000000 0.000002 -0.007071 -0.440479 -0.024033
    6 3.136719 0.000001 0.000006 0.000000 0.000000 0.000000
    7 -0.022110 0.000372 -0.000006 0.000000 0.000000 0.000000
    8 -0.000002 0.000000 -0.000002 -0.024622 0.925925 -0.034403
    9 1.720703 0.000000 0.000002 0.000000 -0.392698 0.015097
    10 1.666992 -2.621094 1.204102 0.167878 -0.160052 -1.817353
    11 6.027344 -0.000001 0.000002 0.000000 0.000000 0.000000
    12 0.000000 0.000000 0.000001 -3.496284 -0.995616 0.922696
    13 12.693000 0.000000 0.000001 0.000000 0.000000 -0.778202
    14 11.570313 0.000004 0.000002 0.000000 0.000000 0.000000
    15 0.000000 0.000000 0.000001 -0.751857 0.161938 0.061767
    16 5.406250 0.000001 0.000001 0.000000 0.000000 0.000000
    17 0.182129 0.133423 -1.864258 0.204203 0.169295 -0.060213
    18 5.292969 -0.000001 0.000001 -0.073574 -0.006249 0.809507
    19 3.078125 0.000000 -0.000001 0.006978 -0.006849 0.667653
    20 0.330566 0.047577 -0.612793 -0.146202 -0.021738 0.350197
    21 5.652344 0.000000 -0.000001 -0.067744 -0.006071 0.542601
    22 3.324219 -0.000001 0.000001 0.009337 -0.006636 1.264736
    23 0.153198 0.327148 0.486328 -0.329866 -0.354521 0.774742
    24 5.156250 0.000001 -0.000001 -0.070281 -0.005679 0.432911
    25 3.324219 0.000001 -0.000001 0.008884 -0.007390 1.407858
    26 1.659054 2.569644 1.216365 -0.165570 -0.748749 0.960585
    27 6.027344 0.000000 0.000000 0.000000 0.000000 0.000000
    28 0.000000 0.000000 -0.000001 2.383215 -0.015866 0.011506
    29 12.693002 0.000000 0.000000 0.000000 0.000000 0.958543
    30 11.570313 -0.000001 0.000003 0.000000 0.000000 0.000000
    31 0.021282 0.135179 0.107485 -0.657820 -0.044836 -0.084743
    32 5.406250 0.000000 0.000001 0.000000 0.000000 0.000000
    33 0.491455 -0.634766 1.689453 0.424113 -0.106556 0.188975
    34 5.246094 0.000000 0.000002 0.000000 0.000000 0.483077
    35 3.150391 -0.000001 -0.000001 0.000000 0.000000 0.524056
    36 0.780273 -0.664551 0.434814 0.204203 0.029273 0.408381
    37 5.507813 -0.000001 0.000001 0.000000 0.000000 0.844924
    38 3.324219 0.000000 0.000001 0.000000 0.000000 0.524186
    39 0.519043 -0.249634 -0.697754 0.392698 0.156781 0.512253
    40 5.070313 0.000001 0.000001 0.000000 0.000000 0.816812
    41 3.324219 0.000001 0.000001 0.000000 0.000000 1.115264
    42 0.000000 0.000001 -0.000001 0.000000 0.000000 0.148647
    43 3.890452 -0.000007 -0.000090 -1.954247 -0.843590 -1.530898
    44 17.590998 -0.000001 0.000000 0.000000 0.000000 0.348015
    45 17.687500 -0.000001 0.000000 0.000000 0.000000 0.000000
    46 0.000000 0.000000 0.000000 0.134663 -0.193320 -0.805799
    47 6.878906 0.000000 0.000000 -0.085837 -0.002954 -0.584446
    48 -3.890442 -0.000009 -0.000089 1.410551 -0.809837 -1.802731
    49 17.590998 0.000000 0.000000 0.000000 0.000000 -0.913994
    50 17.687500 0.000000 -0.000001 0.000000 0.000000 0.000000
    51 0.000000 0.000000 0.000000 -0.054862 0.337882 1.348465
    52 6.878906 0.000000 0.000001 -0.096875 0.003782 0.622898
    53 8.687500 -0.818848 2.572266 -1.012363 -0.183304 -1.560894
    54 10.585938 -10.429688 -4.976563 -0.898031 -0.379909 -2.476024
    55 3.888672 -3.158203 -7.617188 -0.785152 -0.140022 -1.821701
    56 7.511719 7.671875 -6.628906 -1.257911 0.294781 -1.042104
    57 -4.265625 5.093750 50.250000 1.040651 0.000000 -1.570796
    58 -0.002710 -0.820313 3.882813 -1.570795 0.000000 0.000000
    59 4.066406 0.218384 -2.248047 -3.138338 -0.000048 0.029246
    60 3.089844 0.000001 0.000000 0.000000 0.000000 0.000000
    61 0.000000 0.000001 0.000000 1.327537 -0.061616 1.278988
    62 10.179688 0.000001 0.000000 0.000000 0.000000 0.645964
    63 -4.066406 0.218384 -2.248047 1.572069 -0.043930 3.112635
    64 3.089844 -0.000001 -0.000001 0.000000 0.000000 0.000000
    65 0.000000 -0.000001 -0.000001 0.029922 1.270810 -0.265755
    66 10.179688 0.000001 -0.000001 0.000000 0.000000 -0.652765
    67 -0.002710 0.339600 -5.550781 -1.570795 0.000000 0.000000
    68 -3.888672 -2.343750 -0.389648 1.615467 0.035809 2.061134
    69 14.656250 0.000000 0.000000 0.000000 0.000000 -1.039906
    70 3.888672 -2.343750 0.000003 1.525400 0.062341 1.080455
    71 14.671875 0.000000 0.000000 0.000000 0.000000 -1.013399
  time 3
    0 -1.905472 4.508864 36.931747 1.972281 0.000000 -0.123542
    1 0.000005 3.343750 -2.980469 0.000000 0.000000 0.000000
    2 0.000000 0.000002 0.000001 0.125414 0.092260 1.753012
    3 4.126702 0.000000 -0.000001 -0.097080 -0.330301 0.006827
    4 3.613000 0.000000 0.000002 -0.028350 -0.406870 -0.202508
    5 9.183998 0.000000 0.000002 0.027281 -0.339257 -0.024033
    6 3.136719 0.000001 0.000006 0.000000 0.000000 0.000000
    7 -0.022110 0.000372 -0.000006 0.000000 0.000000 0.000000
    8 -0.000002 0.000000 -0.000002 -0.024622 0.925925 -0.034403
    9 1.720703 0.000000 0.000002 0.000000 -0.392698 0.015097
    10 1.666992 -2.621094 1.204102 0.167878 -0.160052 -1.817353
    11 6.027344 -0.000001 0.000002 0.000000 0.000000 0.000000
    12 0.000000 0.000000 0.000001 -3.004367 -1.276504 0.236393
    13 12.693000 0.000000 0.000001 0.000000 0.000000 -0.828956
    14 11.570313 0.000004 0.000002 0.000000 0.000000 0.000000
    15 0.000000 0.000000 0.000001 -0.618983 0.361632 0.161994
    16 5.406250 0.000001 0.000001 0.000000 0.000000 0.000000
    17 0.182129 0.133423 -1.864258 0.204203 0.169295 -0.060213
    18 5.292969 -0.000001 0.000001 -0.073574 -0.006249 0.809507
    19 3.078125 0.000000 -0.000001 0.006978 -0.006849 0.667653
    20 0.330566 0.047577 -0.612793 -0.146202 -0.021738 0.350197
    21 5.652344 0.000000 -0.000001 -0.067744 -0.006071 0.542601
    22 3.324219 -0.000001 0.000001 0.009337 -0.006636 1.264736
    23 0.153198 0.327148 0.486328 -0.329866 -0.354521 0.774742
    24 5.156250 0.000001 -0.000001 -0.070281 -0.005679 0.432911
    25 3.324219 0.000001 -0.000001 0.008884 -0.007390 1.407858
    26 1.659054 2.569644 1.216365 -0.165570 -0.422802 1.028695
    27 6.027344 0.000000 0.000000 0.000000 0.000000 0.000000
    28 0.000000 0.000000 -0.000001 2.097506 -0.423776 0.195661
    29 12.693002 0.000000 0.000000 0.000000 0.000000 0.884065
    30 11.570313 -0.000001 0.000003 0.000000 0.000000 0.000000
    31 0.021282 0.135179 0.107485 -0.743465 -0.068548 -0.118807
    32 5.406250 0.000000 0.000001 0.000000 0.000000 0.000000
    33 0.491455 -0.634766 1.689453 0.424113 -0.106556 0.188975
    34 5.246094 0.000000 0.000002 0.000000 0.000000 0.483077
    35 3.150391 -0.000001 -0.000001 0.000000 0.000000 0.524056
    36 0.780273 -0.664551 0.434814 0.204203 0.029273 0.408381
    37 5.507813 -0.000001 0.000001 0.000000 0.000000 0.844924
    38 3.324219 0.000000 0.000001 0.000000 0.000000 0.524186
    39 0.519043 -0.249634 -0.697754 0.392698 0.156781 0.512253
    40 5.070313 0.000001 0.000001 0.000000 0.000000 0.816812
    41 3.324219 0.000001 0.000001 0.000000 0.000000 1.115264
    42 0.000000 0.000001 -0.000001 0.000000 0.000000 0.148647
    43 3.890452 -0.000007 -0.000090 -2.019159 -0.827954 -1.557799
    44 17.590998 -0.000001 0.000000 0.000000 0.000000 0.223336
    45 17.687500 -0.000001 0.000000 0.000000 0.000000 0.000000
    46 0.000000 0.000000 0.000000 0.131690 -0.090533 -0.734676
    47 6.878906 0.000000 0.000000 -0.085837 -0.002954 -0.584446
    48 -3.890442 -0.000009 -0.000089 1.509757 -0.825822 -1.869957
    49 17.590998 0.000000 0.000000 0.000000 0.000000 -1.037303
    50 17.687500 0.000000 -0.000001 0.000000 0.000000 0.000000
    51 0.000000 0.000000 0.000000 -0.141298 0.385146 1.298839
    52 6.878906 0.000000 0.000001 -0.096875 0.003782 0.622898
    53 8.687500 -0.818848 2.572266 -1.012363 -0.183304 -1.560894
    54 10.585938 -10.429688 -4.976563 -0.898031 -0.379909 -2.476024
    55 3.888672 -3.158203 -7.617188 -0.785152 -0.140022 -1.821701
    56 7.511719 7.671875 -6.628906 -1.257911 0.294781 -1.042104
    57 -4.265625 5.093750 50.250000 1.040651 0.000000 -1.570796
    58 -0.002710 -0.820313 3.882813 -1.570795 0.000000 0.000000
    59 4.066406 0.218384 -2.248047 -3.138338 -0.000048 0.029246
    60 3.089844 0.000001 0.000000 0.000000 0.000000 0.000000
    61 0.000000 0.000001 0.000000 1.327537 -0.061616 1.278988
    62 10.179688 0.000001 0.000000 0.000000 0.000000 0.645964
    63 -4.066406 0.218384 -2.248047 1.572069 -0.043930 3.112635
    64 3.089844 -0.000001 -0.000001 0.000000 0.000000 0.000000
    65 0.000000 -0.000001 -0.000001 0.029922 1.270810 -0.265755
    66 10.179688 0.000001 -0.000001 0.000000 0.000000 -0.652765
    67 -0.002710 0.339600 -5.550781 -1.570795 0.000000 0.000000
    68 -3.888672 -2.343750 -0.389648 1.615467 0.035809 2.061134
    69 14.656250 0.000000 0.000000 0.000000 0.000000 -1.039906
    70 3.888672 -2.343750 0.000003 1.525400 0.062341 1.080455
    71 14.671875 0.000000 0.000000 0.000000 0.000000 -1.013399
  time 4
    0 -1.874221 5.325295 36.162192 1.970573 0.000000 -0.122824
    1 0.000005 3.343750 -2.980469 0.000000 0.000000 0.000000
    2 0.000000 0.000002 0.000001 0.125414 0.018751 1.753012
    3 4.126702 0.000000 -0.000001 -0.023950 -0.211388 0.006827
    4 3.613000 0.000000 0.000002 0.054580 -0.209655 -0.202508
    5 9.183998 0.000000 0.000002 0.071460 -0.192446 -0.024033
    6 3.136719 0.000001 0.000006 0.000000 0.000000 0.000000
    7 -0.022110 0.000372 -0.000006 0.000000 0.000000 0.000000
    8 -0.000002 0.000000 -0.000002 -0.024622 0.925925 -0.034403
    9 1.720703 0.000000 0.000002 0.000000 -0.392698 0.015097
    10 1.666992 -2.621094 1.204102 0.167878 -0.160052 -1.817353
    11 6.027344 -0.000001 0.000002 0.000000 0.000000 0.000000
    12 0.000000 0.000000 0.000001 -2.057796 -1.139351 -0.072626
    13 12.693000 0.000000 0.000001 0.000000 0.000000 -0.805099
    14 11.570313 0.000004 0.000002 0.000000 0.000000 0.000000
    15 0.000000 0.000000 0.000001 -1.403846 0.364421 -0.111642
    16 5.406250 0.000001 0.000001 0.000000 0.000000 0.000000
    17 0.182129 0.133423 -1.864258 0.204203 0.169295 -0.060213
    18 5.292969 -0.000001 0.000001 -0.073574 -0.006249 0.809507
    19 3.078125 0.000000 -0.000001 0.006978 -0.006849 0.667653
    20 0.330566 0.047577 -0.612793 -0.146202 -0.021738 0.350197
    21 5.652344 0.000000 -0.000001 -0.067744 -0.006071 0.542601
    22 3.324219 -0.000001 0.000001 0.009337 -0.006636 1.264736
    23 0.153198 0.327148 0.486328 -0.329866 -0.354521 0.774742
    24 5.156250 0.000001 -0.000001 -0.070281 -0.005679 0.432911
    25 3.324219 0.000001 -0.000001 0.008884 -0.007390 1.407858
    26 1.659054 2.569644 1.216365 -0.165570 0.194673 1.171333
    27 6.027344 0.000000 0.000000 0.000000 0.000000 0.000000
    28 0.000000 0.000000 -0.000001 1.440239 -0.776136 0.644052
    29 12.693002 0.000000 0.000000 0.000000 0.000000 0.789716
    30 11.570313 -0.000001 0.000003 0.000000 0.000000 0.000000
    31 0.021282 0.135179 0.107485 -0.945512 0.178404 0.097092
    32 5.406250 0.000000 0.000001 0.000000 0.000000 0.000000
    33 0.491455 -0.634766 1.689453 0.424113 -0.106556 0.188975
    34 5.246094 0.000000 0.000002 0.000000 0.000000 0.483077
    35 3.150391 -0.000001 -0.000001 0.000000 0.000000 0.524056
    36 0.780273 -0.664551 0.434814 0.204203 0.029273 0.408381
    37 5.507813 -0.000001 0.000001 0.000000 0.000000 0.844924
    38 3.324219 0.000000 0.000001 0.000000 0.000000 0.524186
    39 0.519043 -0.249634 -0.697754 0.392698 0.156781 0.512253
    40 5.070313 0.000001 0.000001 0.000000 0.000000 0.816812
    41 3.324219 0.000001 0.000001 0.000000 0.000000 1.115264
    42 0.000000 0.000001 -0.000001 0.000000 0.000000 0.148647
    43 3.890452 -0.000007 -0.000090 -1.989320 -0.939171 -1.510035
    44 17.590998 -0.000001 0.000000 0.000000 0.000000 0.394931
    45 17.687500 -0.000001 0.000000 0.000000 0.000000 0.000000
    46 0.000000 0.000000 0.000000 0.041359 -0.106109 -0.796824
    47 6.878906 0.000000 0.000000 -0.085837 -0.002954 -0.584446
    48 -3.890442 -0.000009 -0.000089 1.479763 -0.758238 -1.872408
    49 17.590998 0.000000 0.000000 0.000000 0.000000 -0.962224
    50 17.687500 0.000000 -0.000001 0.000000 0.000000 0.000000
    51 0.000000 0.000000 0.000000 -0.046045 0.385639 1.471809
    52 6.878906 0.000000 0.000001 -0.096875 0.003782 0.622898
    53 8.687500 -0.818848 2.572266 -1.012363 -0.183304 -1.560894
    54 10.585938 -10.429688 -4.976563 -0.898031 -0.379909 -2.476024
    55 3.888672 -3.158203 -7.617188 -0.785152 -0.140022 -1.821701
    56 7.511719 7.671875 -6.628906 -1.257911 0.294781 -1.042104
    57 -4.265625 5.093750 50.250000 1.040651 0.000000 -1.570796
    58 -0.002710 -0.820313 3.882813 -1.570795 0.000000 0.000000
    59 4.066406 0.218384 -2.248047 -3.138338 -0.000048 0.029246
    60 3.089844 0.000001 0.000000 0.000000 0.000000 0.000000
    61 0.000000 0.000001 0.000000 1.327537 -0.061616 1.278988
    62 10.179688 0.000001 0.000000 0.000000 0.000000 0.645964
    63 -4.066406 0.218384 -2.248047 1.572069 -0.043930 3.112635
    64 3.089844 -0.000001 -0.000001 0.000000 0.000000 0.000000
    65 0.000000 -0.000001 -0.000001 0.029922 1.270810 -0.265755
    66 10.179688 0.000001 -0.000001 0.000000 0.000000 -0.652765
    67 -0.002710 0.339600 -5.550781 -1.570795 0.000000 0.000000
    68 -3.888672 -2.343750 -0.389648 1.615467 0.035809 2.061134
    69 14.656250 0.000000 0.000000 0.000000 0.000000 -1.039906
    70 3.888672 -2.343750 0.000003 1.525400 0.062341 1.080455
    71 14.671875 0.000000 0.000000 0.000000 0.000000 -1.013399
  time 5
    0 -2.050008 4.536209 35.005907 1.968012 0.000000 -0.121781
    1 0.000005 3.343750 -2.980469 0.000000 0.000000 0.000000
    2 0.000000 0.000002 0.000001 0.125414 -0.085773 1.753012
    3 4.126702 0.000000 -0.000001 -0.017850 -0.178172 0.006827
    4 3.613000 0.000000 0.000002 0.119592 -0.114170 -0.202508
    5 9.183998 0.000000 0.000002 0.119737 -0.114463 -0.024033
    6 3.136719 0.000001 0.000006 0.000000 0.000000 0.000000
    7 -0.022110 0.000372 -0.000006 0.000000 0.000000 0.000000
    8 -0.000002 0.000000 -0.000002 -0.024622 0.925925 -0.034403
    9 1.720703 0.000000 0.000002 0.000000 -0.392698 0.015097
    10 1.666992 -2.621094 1.204102 0.167878 -0.160052 -1.817353
    11 6.027344 -0.000001 0.000002 0.000000 0.000000 0.000000
    12 0.000000 0.000000 0.000001 -1.902956 -1.190298 0.275095
    13 12.693000 0.000000 0.000001 0.000000 0.000000 -0.725332
    14 11.570313 0.000004 0.000002 0.000000 0.000000 0.000000
    15 0.000000 0.000000 0.000001 -1.927692 0.160326 -0.352361
    16 5.406250 0.000001 0.000001 0.000000 0.000000 0.000000
    17 0.182129 0.133423 -1.864258 0.204203 0.169295 -0.060213
    18 5.292969 -0.000001 0.000001 -0.073574 -0.006249 0.809507
    19 3.078125 0.000000 -0.000001 0.006978 -0.006849 0.667653
    20 0.330566 0.047577 -0.612793 -0.146202 -0.021738 0.350197
    21 5.652344 0.000000 -0.000001 -0.067744 -0.006071 0.542601
    22 3.324219 -0.000001 0.000001 0.009337 -0.006636 1.264736
    23 0.153198 0.327148 0.486328 -0.329866 -0.354521 0.774742
    24 5.156250 0.000001 -0.000001 -0.070281 -0.005679 0.432911
    25 3.324219 0.000001 -0.000001 0.008884 -0.007390 1.407858
    26 1.659054 2.569644 1.216365 -0.165570 0.563116 1.296091
    27 6.027344 0.000000 0.000000 0.000000 0.000000 0.000000
    28 0.000000 0.000000 -0.000001 1.359910 -0.809131 0.731513
    29 12.693002 0.000000 0.000000 0.000000 0.000000 0.854380
    30 11.570313 -0.000001 0.000003 0.000000 0.000000 0.000000
    31 0.021282 0.135179 0.107485 -1.210724 0.688245 0.133616
    32 5.406250 0.000000 0.000001 0.000000 0.000000 0.000000
    33 0.491455 -0.634766 1.689453 0.424113 -0.106556 0.188975
    34 5.246094 0.000000 0.000002 0.000000 0.000000 0.483077
    35 3.150391 -0.000001 -0.000001 0.000000 0.000000 0.524056
    36 0.780273 -0.664551 0.434814 0.204203 0.029273 0.408381
    37 5.507813 -0.000001 0.000001 0.000000 0.000000 0.844924
    38 3.324219 0.000000 0.000001 0.000000 0.000000 0.524186
    39 0.519043 -0.249634 -0.697754 0.392698 0.156781 0.512253
    40 5.070313 0.000001 0.000001 0.000000 0.000000 0.816812
    41 3.324219 0.000001 0.000001 0.000000 0.000000 1.115264
    42 0.000000 0.000001 -0.000001 0.000000 0.000000 0.148647
    43 3.890452 -0.000007 -0.000090 -1.909285 -1.071146 -1.460529
    44 17.590998 -0.000001 0.000000 0.000000 0.000000 0.682352
    45 17.687500 -0.000001 0.000000 0.000000 0.000000 0.000000
    46 0.000000 0.000000 0.000000 -0.035432 -0.190852 -0.922120
    47 6.878906 0.000000 0.000000 -0.085837 -0.002954 -0.584446
    48 -3.890442 -0.000009 -0.000089 1.398698 -0.659102 -1.848623
    49 17.590998 0.000000 0.000000 0.000000 0.000000 -0.854301
    50 17.687500 0.000000 -0.000001 0.000000 0.000000 0.000000
    51 0.000000 0.000000 0.000000 0.054886 0.320806 1.656608
    52 6.878906 0.000000 0.000001 -0.096875 0.003782 0.622898
    53 8.687500 -0.818848 2.572266 -1.012363 -0.183304 -1.560894
    54 10.585938 -10.429688 -4.976563 -0.898031 -0.379909 -2.476024
    55 3.888672 -3.158203 -7.617188 -0.785152 -0.140022 -1.821701
    56 7.511719 7.671875 -6.628906 -1.257911 0.294781 -1.042104
    57 -4.265625 5.093750 50.250000 1.040651 0.000000 -1.570796
    58 -0.002710 -0.820313 3.882813 -1.570795 0.000000 0.000000
    59 4.066406 0.218384 -2.248047 -3.138338 -0.000048 0.029246
    60 3.089844 0.000001 0.000000 0.000000 0.000000 0.000000
    61 0.000000 0.000001 0.000000 1.327537 -0.061616 1.278988
    62 10.179688 0.000001 0.000000 0.000000 0.000000 0.645964
    63 -4.066406 0.218384 -2.248047 1.572069 -0.043930 3.112635
    64 3.089844 -0.000001 -0.000001 0.000000 0.000000 0.000000
    65 0.000000 -0.000001 -0.000001 0.029922 1.270810 -0.265755
    66 10.179688 0.000001 -0.000001 0.000000 0.000000 -0.652765
    67 -0.002710 0.339600 -5.550781 -1.570795 0.000000 0.000000
    68 -3.888672 -2.343750 -0.389648 1.615467 0.035809 2.061134
    69 14.656250 0.000000 0.000000 0.000000 0.000000 -1.039906
    70 3.888672 -2.343750 0.000003 1.525400 0.062341 1.080455
    71 14.671875 0.000000 0.000000 0.000000 0.000000 -1.013399
  time 6
    0 -2.311735 3.196324 33.599614 1.965434 0.000000 -0.120738
    1 0.000005 3.343750 -2.980469 0.000000 0.000000 0.000000
    2 0.000000 0.000002 0.000001 0.125414 -0.215239 1.753012
    3 4.126702 0.000000 -0.000001 -0.028588 -0.164125 0.006827
    4 3.613000 0.000000 0.000002 0.187396 -0.034452 -0.202508
    5 9.183998 0.000000 0.000002 0.174000 -0.044389 -0.024033
    6 3.136719 0.000001 0.000006 0.000000 0.000000 0.000000
    7 -0.022110 0.000372 -0.000006 0.000000 0.000000 0.000000
    8 -0.000002 0.000000 -0.000002 -0.024622 0.925925 -0.034403
    9 1.720703 0.000000 0.000002 0.000000 -0.392698 0.015097
    10 1.666992 -2.621094 1.204102 0.167878 -0.160052 -1.817353
    11 6.027344 -0.000001 0.000002 0.000000 0.000000 0.000000
    12 0.000000 0.000000 0.000001 -1.604237 -1.225313 0.347482
    13 12.693000 0.000000 0.000001 0.000000 0.000000 -0.823454
    14 11.570313 0.000004 0.000002 0.000000 0.000000 0.000000
    15 0.000000 0.000000 0.000001 -2.132581 -0.090359 -0.356346
    16 5.406250 0.000001 0.000001 0.000000 0.000000 0.000000
    17 0.182129 0.133423 -1.864258 0.204203 0.169295 -0.060213
    18 5.292969 -0.000001 0.000001 -0.073574 -0.006249 0.809507
    19 3.078125 0.000000 -0.000001 0.006978 -0.006849 0.667653
    20 0.330566 0.047577 -0.612793 -0.146202 -0.021738 0.350197
    21 5.652344 0.000000 -0.000001 -0.067744 -0.006071 0.542601
    22 3.324219 -0.000001 0.000001 0.009337 -0.006636 1.264736
    23 0.153198 0.327148 0.486328 -0.329866 -0.354521 0.774742
    24 5.156250 0.000001 -0.000001 -0.070281 -0.005679 0.432911
    25 3.324219 0.000001 -0.000001 0.008884 -0.007390 1.407858
    26 1.659054 2.569644 1.216365 -0.165570 0.512111 1.367972
    27 6.027344 0.000000 0.000000 0.000000 0.000000 0.000000
    28 0.000000 0.000000 -0.000001 1.482003 -0.316861 0.624549
    29 12.693002 0.000000 0.000000 0.000000 0.000000 1.310774
    30 11.570313 -0.000001 0.000003 0.000000 0.000000 0.000000
    31 0.021282 0.135179 0.107485 -1.385394 1.024122 0.018604
    32 5.406250 0.000000 0.000001 0.000000 0.000000 0.000000
    33 0.491455 -0.634766 1.689453 0.424113 -0.106556 0.188975
    34 5.246094 0.000000 0.000002 0.000000 0.000000 0.483077
    35 3.150391 -0.000001 -0.000001 0.000000 0.000000 0.524056
    36 0.780273 -0.664551 0.434814 0.204203 0.029273 0.408381
    37 5.507813 -0.000001 0.000001 0.000000 0.000000 0.844924
    38 3.324219 0.000000 0.000001 0.000000 0.000000 0.524186
    39 0.519043 -0.249634 -0.697754 0.392698 0.156781 0.512253
    40 5.070313 0.000001 0.000001 0.000000 0.000000 0.816812
    41 3.324219 0.000001 0.000001 0.000000 0.000000 1.115264
    42 0.000000 0.000001 -0.000001 0.000000 0.000000 0.148647
    43 3.890452 -0.000007 -0.000090 -1.775192 -1.176162 -1.477931
    44 17.590998 -0.000001 0.000000 0.000000 0.000000 0.935204
    45 17.687500 -0.000001 0.000000 0.000000 0.000000 0.000000
    46 0.000000 0.000000 0.000000 -0.082428 -0.300138 -1.016068
    47 6.878906 0.000000 0.000000 -0.085837 -0.002954 -0.584446
    48 -3.890442 -0.000009 -0.000089 1.283908 -0.693329 -1.778600
    49 17.590998 0.000000 0.000000 0.000000 0.000000 -1.048628
    50 17.687500 0.000000 -0.000001 0.000000 0.000000 0.000000
    51 0.000000 0.000000 0.000000 0.067223 0.240453 1.775395
    52 6.878906 0.000000 0.000001 -0.096875 0.003782 0.622898
    53 8.687500 -0.818848 2.572266 -1.012363 -0.183304 -1.560894
    54 10.585938 -10.429688 -4.976563 -0.898031 -0.379909 -2.476024
    55 3.888672 -3.158203 -7.617188 -0.785152 -0.140022 -1.821701
    56 7.511719 7.671875 -6.628906 -1.257911 0.294781 -1.042104
    57 -4.265625 5.093750 50.250000 1.040651 0.000000 -1.570796
    58 -0.002710 -0.820313 3.882813 -1.570795 0.000000 0.000000
    59 4.066406 0.218384 -2.248047 -3.138338 -0.000048 0.029246
    60 3.089844 0.000001 0.000000 0.000000 0.000000 0.000000
    61 0.000000 0.000001 0.000000 1.327537 -0.061616 1.278988
    62 10.179688 0.000001 0.000000 0.000000 0.000000 0.645964
    63 -4.066406 0.218384 -2.248047 1.572069 -0.043930 3.112635
    64 3.089844 -0.000001 -0.000001 0.000000 0.000000 0.000000
    65 0.000000 -0.000001 -0.000001 0.029922 1.270810 -0.265755
    66 10.179688 0.000001 -0.000001 0.000000 0.000000 -0.652765
    67 -0.002710 0.339600 -5.550781 -1.570795 0.000000 0.000000
    68 -3.888672 -2.343750 -0.389648 1.615467 0.035809 2.061134
    69 14.656250 0.000000 0.000000 0.000000 0.000000 -1.039906
    70 3.888672 -2.343750 0.000003 1.525400 0.062341 1.080455
    71 14.671875 0.000000 0.000000 0.000000 0.000000 -1.013399
  time 7
    0 -2.592993 1.817376 32.369108 1.963744 0.000000 -0.120021
    1 0.000005 3.343750 -2.980469 0.000000 0.000000 0.000000
    2 0.000000 0.000002 0.000001 0.125414 -0.336980 1.753012
    3 4.126702 0.000000 -0.000001 -0.044755 -0.164067 0.006827
    4 3.613000 0.000000 0.000002 0.239952 0.017932 -0.202508
    5 9.183998 0.000000 0.000002 0.216265 0.007445 -0.024033
    6 3.136719 0.000001 0.000006 0.000000 0.000000 0.000000
    7 -0.022110 0.000372 -0.000006 0.000000 0.000000 0.000000
    8 -0.000002 0.000000 -0.000002 -0.024622 0.925925 -0.034403
    9 1.720703 0.000000 0.000002 0.000000 -0.392698 0.015097
    10 1.666992 -2.621094 1.204102 0.167878 -0.160052 -1.817353
    11 6.027344 -0.000001 0.000002 0.000000 0.000000 0.000000
    12 0.000000 0.000000 0.000001 -1.288295 -1.215894 0.347064
    13 12.693000 0.000000 0.000001 0.000000 0.000000 -0.922345
    14 11.570313 0.000004 0.000002 0.000000 0.000000 0.000000
    15 0.000000 0.000000 0.000001 -2.191747 -0.323393 -0.359297
    16 5.406250 0.000001 0.000001 0.000000 0.000000 0.000000
    17 0.182129 0.133423 -1.864258 0.204203 0.169295 -0.060213
    18 5.292969 -0.000001 0.000001 -0.073574 -0.006249 0.809507
    19 3.078125 0.000000 -0.000001 0.006978 -0.006849 0.667653
    20 0.330566 0.047577 -0.612793 -0.146202 -0.021738 0.350197
    21 5.652344 0.000000 -0.000001 -0.067744 -0.006071 0.542601
    22 3.324219 -0.000001 0.000001 0.009337 -0.006636 1.264736
    23 0.153198 0.327148 0.486328 -0.329866 -0.354521 0.774742
    24 5.156250 0.000001 -0.000001 -0.070281 -0.005679 0.432911
    25 3.324219 0.000001 -0.000001 0.008884 -0.007390 1.407858
    26 1.659054 2.569644 1.216365 -0.165570 0.407129 1.431826
    27 6.027344 0.000000 0.000000 0.000000 0.000000 0.000000
    28 0.000000 0.000000 -0.000001 1.406395 0.162309 0.496487
    29 12.693002 0.000000 0.000000 0.000000 0.000000 1.484331
    30 11.570313 -0.000001 0.000003 0.000000 0.000000 0.000000
    31 0.021282 0.135179 0.107485 -1.369947 1.001188 0.279636
    32 5.406250 0.000000 0.000001 0.000000 0.000000 0.000000
    33 0.491455 -0.634766 1.689453 0.424113 -0.106556 0.188975
    34 5.246094 0.000000 0.000002 0.000000 0.000000 0.483077
    35 3.150391 -0.000001 -0.000001 0.000000 0.000000 0.524056
    36 0.780273 -0.664551 0.434814 0.204203 0.029273 0.408381
    37 5.507813 -0.000001 0.000001 0.000000 0.000000 0.844924
    38 3.324219 0.000000 0.000001 0.000000 0.000000 0.524186
    39 0.519043 -0.249634 -0.697754 0.392698 0.156781 0.512253
    40 5.070313 0.000001 0.000001 0.000000 0.000000 0.816812
    41 3.324219 0.000001 0.000001 0.000000 0.000000 1.115264
    42 0.000000 0.000001 -0.000001 0.000000 0.000000 0.148647
    43 3.890452 -0.000007 -0.000090 -1.601093 -1.236908 -1.564573
    44 17.590998 -0.000001 0.000000 0.000000 0.000000 1.116333
    45 17.687500 -0.000001 0.000000 0.000000 0.000000 0.000000
    46 0.000000 0.000000 0.000000 -0.114126 -0.403870 -1.068304
    47 6.878906 0.000000 0.000000 -0.085837 -0.002954 -0.584446
    48 -3.890442 -0.000009 -0.000089 1.192649 -0.713053 -1.707191
    49 17.590998 0.000000 0.000000 0.000000 0.000000 -1.228647
    50 17.687500 0.000000 -0.000001 0.000000 0.000000 0.000000
    51 0.000000 0.000000 0.000000 0.055534 0.182500 1.820732
    52 6.878906 0.000000 0.000001 -0.096875 0.003782 0.622898
    53 8.687500 -0.818848 2.572266 -1.012363 -0.183304 -1.560894
    54 10.585938 -10.429688 -4.976563 -0.898031 -0.379909 -2.476024
    55 3.888672 -3.158203 -7.617188 -0.785152 -0.140022 -1.821701
    56 7.511719 7.671875 -6.628906 -1.257911 0.294781 -1.042104
    57 -4.265625 5.093750 50.250000 1.040651 0.000000 -1.570796
    58 -0.002710 -0.820313 3.882813 -1.570795 0.000000 0.000000
    59 4.066406 0.218384 -2.248047 -3.138338 -0.000048 0.029246
    60 3.089844 0.000001 0.000000 0.000000 0.000000 0.000000
    61 0.000000 0.000001 0.000000 1.327537 -0.061616 1.278988
    62 10.179688 0.000001 0.000000 0.000000 0.000000 0.645964
    63 -4.066406 0.218384 -2.248047 1.572069 -0.043930 3.112635
    64 3.089844 -0.000001 -0.000001 0.000000 0.000000 0.000000
    65 0.000000 -0.000001 -0.000001 0.029922 1.270810 -0.265755
    66 10.179688 0.000001 -0.000001 0.000000 0.000000 -0.652765
    67 -0.002710 0.339600 -5.550781 -1.570795 0.000000 0.000000
    68 -3.888672 -2.343750 -0.389648 1.615467 0.035809 2.061134
    69 14.656250 0.000000 0.000000 0.000000 0.000000 -1.039906
    70 3.888672 -2.343750 0.000003 1.525400 0.062341 1.080455
    71 14.671875 0.000000 0.000000 0.000000 0.000000 -1.013399
  time 8
    0 -2.823469 0.918911 31.736276 1.963495 0.000000 -0.119891
    1 0.000005 3.343750 -2.980469 0.000000 0.000000 0.000000
    2 0.000000 0.000002 0.000001 0.125414 -0.418351 1.753012
    3 4.126702 0.000000 -0.000001 -0.054978 -0.172797 0.006827
    4 3.613000 0.000000 0.000002 0.259173 0.031412 -0.202508
    5 9.183998 0.000000 0.000002 0.228535 0.030743 -0.024033
    6 3.136719 0.000001 0.000006 0.000000 0.000000 0.000000
    7 -0.022110 0.000372 -0.000006 0.000000 0.000000 0.000000
    8 -0.000002 0.000000 -0.000002 -0.024622 0.925925 -0.034403
    9 1.720703 0.000000 0.000002 0.000000 -0.392698 0.015097
    10 1.666992 -2.621094 1.204102 0.167878 -0.160052 -1.817353
    11 6.027344 -0.000001 0.000002 0.000000 0.000000 0.000000
    12 0.000000 0.000000 0.000001 -1.001005 -1.197161 0.190703
    13 12.693000 0.000000 0.000001 0.000000 0.000000 -0.887175
    14 11.570313 0.000004 0.000002 0.000000 0.000000 0.000000
    15 0.000000 0.000000 0.000001 -2.102035 -0.397832 -0.435120
    16 5.406250 0.000001 0.000001 0.000000 0.000000 0.000000
    17 0.182129 0.133423 -1.864258 0.204203 0.169295 -0.060213
    18 5.292969 -0.000001 0.000001 -0.073574 -0.006249 0.809507
    19 3.078125 0.000000 -0.000001 0.006978 -0.006849 0.667653
    20 0.330566 0.047577 -0.612793 -0.146202 -0.021738 0.350197
    21 5.652344 0.000000 -0.000001 -0.067744 -0.006071 0.542601
    22 3.324219 -0.000001 0.000001 0.009337 -0.006636 1.264736
    23 0.153198 0.327148 0.486328 -0.329866 -0.354521 0.774742
    24 5.156250 0.000001 -0.000001 -0.070281 -0.005679 0.432911
    25 3.324219 0.000001 -0.000001 0.008884 -0.007390 1.407858
    26 1.659054 2.569644 1.216365 -0.165570 0.290115 1.491392
    27 6.027344 0.000000 0.000000 0.000000 0.000000 0.000000
    28 0.000000 0.000000 -0.000001 1.281022 0.189887 0.385683
    29 12.693002 0.000000 0.000000 0.000000 0.000000 1.424114
    30 11.570313 -0.000001 0.000003 0.000000 0.000000 0.000000
    31 0.021282 0.135179 0.107485 -1.248099 0.720867 0.361293
    32 5.406250 0.000000 0.000001 0.000000 0.000000 0.000000
    33 0.491455 -0.634766 1.689453 0.424113 -0.106556 0.188975
    34 5.246094 0.000000 0.000002 0.000000 0.000000 0.483077
    35 3.150391 -0.000001 -0.000001 0.000000 0.000000 0.524056
    36 0.780273 -0.664551 0.434814 0.204203 0.029273 0.408381
    37 5.507813 -0.000001 0.000001 0.000000 0.000000 0.844924
    38 3.324219 0.000000 0.000001 0.000000 0.000000 0.524186
    39 0.519043 -0.249634 -0.697754 0.392698 0.156781 0.512253
    40 5.070313 0.000001 0.000001 0.000000 0.000000 0.816812
    41 3.324219 0.000001 0.000001 0.000000 0.000000 1.115264
    42 0.000000 0.000001 -0.000001 0.000000 0.000000 0.148647
    43 3.890452 -0.000007 -0.000090 -1.462367 -1.253143 -1.651362
    44 17.590998 -0.000001 0.000000 0.000000 0.000000 1.202453
    45 17.687500 -0.000001 0.000000 0.000000 0.000000 0.000000
    46 0.000000 0.000000 0.000000 -0.138024 -0.472818 -1.081218
    47 6.878906 0.000000 0.000000 -0.085837 -0.002954 -0.584446
    48 -3.890442 -0.000009 -0.000089 1.171882 -0.713569 -1.680476
    49 17.590998 0.000000 0.000000 0.000000 0.000000 -1.314223
    50 17.687500 0.000000 -0.000001 0.000000 0.000000 0.000000
    51 0.000000 0.000000 0.000000 0.037204 0.167680 1.831455
    52 6.878906 0.000000 0.000001 -0.096875 0.003782 0.622898
    53 8.687500 -0.818848 2.572266 -1.012363 -0.183304 -1.560894
    54 10.585938 -10.429688 -4.976563 -0.898031 -0.379909 -2.476024
    55 3.888672 -3.158203 -7.617188 -0.785152 -0.140022 -1.821701
    56 7.511719 7.671875 -6.628906 -1.257911 0.294781 -1.042104
    57 -4.265625 5.093750 50.250000 1.040651 0.000000 -1.570796
    58 -0.002710 -0.820313 3.882813 -1.570795 0.000000 0.000000
    59 4.066406 0.218384 -2.248047 -3.138338 -0.000048 0.029246
    60 3.089844 0.000001 0.000000 0.000000 0.000000 0.000000
    61 0.000000 0.000001 0.000000 1.327537 -0.061616 1.278988
    62 10.179688 0.000001 0.000000 0.000000 0.000000 0.645964
    63 -4.066406 0.218384 -2.248047 1.572069 -0.043930 3.112635
    64 3.089844 -0.000001 -0.000001 0.000000 0.000000 0.000000
    65 0.000000 -0.000001 -0.000001 0.029922 1.270810 -0.265755
    66 10.179688 0.000001 -0.000001 0.000000 0.000000 -0.652765
    67 -0.002710 0.339600 -5.550781 -1.570795 0.000000 0.000000
    68 -3.888672 -2.343750 -0.389648 1.615467 0.035809 2.061134
    69 14.656250 0.000000 0.000000 0.000000 0.000000 -1.039906
    70 3.888672 -2.343750 0.000003 1.525400 0.062341 1.080455
    71 14.671875 0.000000 0.000000 0.000000 0.000000 -1.013399
  time 9
    0 -3.007068 0.610308 31.900343 1.963495 0.000000 -0.119891
    1 0.000005 3.343750 -2.980469 0.000000 0.000000 0.000000
    2 0.000000 0.000002 0.000001 0.125414 -0.452177 1.753012
    3 4.126702 0.000000 -0.000001 -0.057183 -0.194799 0.006827
    4 3.613000 0.000000 0.000002 0.232466 -0.009232 -0.202508
    5 9.183998 0.000000 0.000002 0.198458 0.016361 -0.024033
    6 3.136719 0.000001 0.000006 0.000000 0.000000 0.000000
    7 -0.022110 0.000372 -0.000006 0.000000 0.000000 0.000000
    8 -0.000002 0.000000 -0.000002 -0.024622 0.925925 -0.034403
    9 1.720703 0.000000 0.000002 0.000000 -0.392698 0.015097
    10 1.666992 -2.621094 1.204102 0.167878 -0.160052 -1.817353
    11 6.027344 -0.000001 0.000002 0.000000 0.000000 0.000000
    12 0.000000 0.000000 0.000001 -1.092854 -1.125591 0.174338
    13 12.693000 0.000000 0.000001 0.000000 0.000000 -0.825262
    14 11.570313 0.000004 0.000002 0.000000 0.000000 0.000000
    15 0.000000 0.000000 0.000001 -1.976228 -0.246732 -0.497253
    16 5.406250 0.000001 0.000001 0.000000 0.000000 0.000000
    17 0.182129 0.133423 -1.864258 0.204203 0.169295 -0.060213
    18 5.292969 -0.000001 0.000001 -0.073574 -0.006249 0.809507
    19 3.078125 0.000000 -0.000001 0.006978 -0.006849 0.667653
    20 0.330566 0.047577 -0.612793 -0.146202 -0.021738 0.350197
    21 5.652344 0.000000 -0.000001 -0.067744 -0.006071 0.542601
    22 3.324219 -0.000001 0.000001 0.009337 -0.006636 1.264736
    23 0.153198 0.327148 0.486328 -0.329866 -0.354521 0.774742
    24 5.156250 0.000001 -0.000001 -0.070281 -0.005679 0.432911
    25 3.324219 0.000001 -0.000001 0.008884 -0.007390 1.407858
    26 1.659054 2.569644 1.216365 -0.165570 0.172095 1.546124
    27 6.027344 0.000000 0.000000 0.000000 0.000000 0.000000
    28 0.000000 0.000000 -0.000001 1.107965 -0.045266 0.352891
    29 12.693002 0.000000 0.000000 0.000000 0.000000 1.164079
    30 11.570313 -0.000001 0.000003 0.000000 0.000000 0.000000
    31 0.021282 0.135179 0.107485 -1.124182 0.335832 0.443210
    32 5.406250 0.000000 0.000001 0.000000 0.000000 0.000000
    33 0.491455 -0.634766 1.689453 0.424113 -0.106556 0.188975
    34 5.246094 0.000000 0.000002 0.000000 0.000000 0.483077
    35 3.150391 -0.000001 -0.000001 0.000000 0.000000 0.524056
    36 0.780273 -0.664551 0.434814 0.204203 0.029273 0.408381
    37 5.507813 -0.000001 0.000001 0.000000 0.000000 0.844924
    38 3.324219 0.000000 0.000001 0.000000 0.000000 0.524186
    39 0.519043 -0.249634 -0.697754 0.392698 0.156781 0.512253
    40 5.070313 0.000001 0.000001 0.000000 0.000000 0.816812
    41 3.324219 0.000001 0.000001 0.000000 0.000000 1.115264
    42 0.000000 0.000001 -0.000001 0.000000 0.000000 0.148647
    43 3.890452 -0.000007 -0.000090 -1.472771 -1.235889 -1.637617
    44 17.590998 -0.000001 0.000000 0.000000 0.000000 1.193298
    45 17.687500 -0.000001 0.000000 0.000000 0.000000 0.000000
    46 0.000000 0.000000 0.000000 -0.134779 -0.477175 -1.083962
    47 6.878906 0.000000 0.000000 -0.085837 -0.002954 -0.584446
    48 -3.890442 -0.000009 -0.000089 1.159166 -0.731391 -1.656638
    49 17.590998 0.000000 0.000000 0.000000 0.000000 -1.341376
    50 17.687500 0.000000 -0.000001 0.000000 0.000000 0.000000
    51 0.000000 0.000000 0.000000 0.026893 0.161312 1.815304
    52 6.878906 0.000000 0.000001 -0.096875 0.003782 0.622898
    53 8.687500 -0.818848 2.572266 -1.012363 -0.183304 -1.560894
    54 10.585938 -10.429688 -4.976563 -0.898031 -0.379909 -2.476024
    55 3.888672 -3.158203 -7.617188 -0.785152 -0.140022 -1.821701
    56 7.511719 7.671875 -6.628906 -1.257911 0.294781 -1.042104
    57 -4.265625 5.093750 50.250000 1.040651 0.000000 -1.570796
    58 -0.002710 -0.820313 3.882813 -1.570795 0.000000 0.000000
    59 4.066406 0.218384 -2.248047 -3.138338 -0.000048 0.029246
    60 3.089844 0.000001 0.000000 0.000000 0.000000 0.000000
    61 0.000000 0.000001 0.000000 1.327537 -0.061616 1.278988
    62 10.179688 0.000001 0.000000 0.000000 0.000000 0.645964
    63 -4.066406 0.218384 -2.248047 1.572069 -0.043930 3.112635
    64 3.089844 -0.000001 -0.000001 0.000000 0.000000 0.000000
    65 0.000000 -0.000001 -0.000001 0.029922 1.270810 -0.265755
    66 10.179688 0.000001 -0.000001 0.000000 0.000000 -0.652765
    67 -0.002710 0.339600 -5.550781 -1.570795 0.000000 0.000000
    68 -3.888672 -2.343750 -0.389648 1.615467 0.035809 2.061134
    69 14.656250 0.000000 0.000000 0.000000 0.000000 -1.039906
    70 3.888672 -2.343750 0.000003 1.525400 0.062341 1.080455
    71 14.671875 0.000000 0.000000 0.000000 0.000000 -1.013399
  time 10
    0 -3.190668 0.575150 32.560520 1.963495 0.000000 -0.119891
    1 0.000005 3.343750 -2.980469 0.000000 0.000000 0.000000
    2 0.000000 0.000002 0.000001 0.125414 -0.460098 1.753012
    3 4.126702 0.000000 -0.000001 -0.057459 -0.230789 0.006827
    4 3.613000 0.000000 0.000002 0.173759 -0.091818 -0.202508
    5 9.183998 0.000000 0.000002 0.139322 -0.026040 -0.024033
    6 3.136719 0.000001 0.000006 0.000000 0.000000 0.000000
    7 -0.022110 0.000372 -0.000006 0.000000 0.000000 0.000000
    8 -0.000002 0.000000 -0.000002 -0.024622 0.925925 -0.034403
    9 1.720703 0.000000 0.000002 0.000000 -0.392698 0.015097
    10 1.666992 -2.621094 1.204102 0.167878 -0.160052 -1.817353
    11 6.027344 -0.000001 0.000002 0.000000 0.000000 0.000000
    12 0.000000 0.000000 0.000001 -1.552310 -0.992395 0.327952
    13 12.693000 0.000000 0.000001 0.000000 0.000000 -0.958361
    14 11.570313 0.000004 0.000002 0.000000 0.000000 0.000000
    15 0.000000 0.000000 0.000001 -1.853808 0.081660 -0.351119
    16 5.406250 0.000001 0.000001 0.000000 0.000000 0.000000
    17 0.182129 0.133423 -1.864258 0.204203 0.169295 -0.060213
    18 5.292969 -0.000001 0.000001 -0.073574 -0.006249 0.809507
    19 3.078125 0.000000 -0.000001 0.006978 -0.006849 0.667653
    20 0.330566 0.047577 -0.612793 -0.146202 -0.021738 0.350197
    21 5.652344 0.000000 -0.000001 -0.067744 -0.006071 0.542601
    22 3.324219 -0.000001 0.000001 0.009337 -0.006636 1.264736
    23 0.153198 0.327148 0.486328 -0.329866 -0.354521 0.774742
    24 5.156250 0.000001 -0.000001 -0.070281 -0.005679 0.432911
    25 3.324219 0.000001 -0.000001 0.008884 -0.007390 1.407858
    26 1.659054 2.569644 1.216365 -0.165570 0.066514 1.592099
    27 6.027344 0.000000 0.000000 0.000000 0.000000 0.000000
    28 0.000000 0.000000 -0.000001 1.086122 -0.378371 0.345125
    29 12.693002 0.000000 0.000000 0.000000 0.000000 0.695366
    30 11.570313 -0.000001 0.000003 0.000000 0.000000 0.000000
    31 0.021282 0.135179 0.107485 -0.976956 0.082512 0.641705
    32 5.406250 0.000000 0.000001 0.000000 0.000000 0.000000
    33 0.491455 -0.634766 1.689453 0.424113 -0.106556 0.188975
    34 5.246094 0.000000 0.000002 0.000000 0.000000 0.483077
    35 3.150391 -0.000001 -0.000001 0.000000 0.000000 0.524056
    36 0.780273 -0.664551 0.434814 0.204203 0.029273 0.408381
    37 5.507813 -0.000001 0.000001 0.000000 0.000000 0.844924
    38 3.324219 0.000000 0.000001 0.000000 0.000000 0.524186
    39 0.519043 -0.249634 -0.697754 0.392698 0.156781 0.512253
    40 5.070313 0.000001 0.000001 0.000000 0.000000 0.816812
    41 3.324219 0.000001 0.000001 0.000000 0.000000 1.115264
    42 0.000000 0.000001 -0.000001 0.000000 0.000000 0.148647
    43 3.890452 -0.000007 -0.000090 -1.612934 -1.195872 -1.537599
    44 17.590998 -0.000001 0.000000 0.000000 0.000000 1.126780
    45 17.687500 -0.000001 0.000000 0.000000 0.000000 0.000000
    46 0.000000 0.000000 0.000000 -0.080286 -0.447221 -1.082703
    47 6.878906 0.000000 0.000000 -0.085837 -0.002954 -0.584446
    48 -3.890442 -0.000009 -0.000089 1.126062 -0.804358 -1.608216
    49 17.590998 0.000000 0.000000 0.000000 0.000000 -1.345685
    50 17.687500 0.000000 -0.000001 0.000000 0.000000 0.000000
    51 0.000000 0.000000 0.000000 0.028720 0.159872 1.756932
    52 6.878906 0.000000 0.000001 -0.096875 0.003782 0.622898
    53 8.687500 -0.818848 2.572266 -1.012363 -0.183304 -1.560894
    54 10.585938 -10.429688 -4.976563 -0.898031 -0.379909 -2.476024
    55 3.888672 -3.158203 -7.617188 -0.785152 -0.140022 -1.821701
    56 7.511719 7.671875 -6.628906 -1.257911 0.294781 -1.042104
    57 -4.265625 5.093750 50.250000 1.040651 0.000000 -1.570796
    58 -0.002710 -0.820313 3.882813 -1.570795 0.000000 0.000000
    59 4.066406 0.218384 -2.248047 -3.138338 -0.000048 0.029246
    60 3.089844 0.000001 0.000000 0.000000 0.000000 0.000000
    61 0.000000 0.000001 0.000000 1.327537 -0.061616 1.278988
    62 10.179688 0.000001 0.000000 0.000000 0.000000 0.645964
    63 -4.066406 0.218384 -2.248047 1.572069 -0.043930 3.112635
    64 3.089844 -0.000001 -0.000001 0.000000 0.000000 0.000000
    65 0.000000 -0.000001 -0.000001 0.029922 1.270810 -0.265755
    66 10.179688 0.000001 -0.000001 0.000000 0.000000 -0.652765
    67 -0.002710 0.339600 -5.550781 -1.570795 0.000000 0.000000
    68 -3.888672 -2.343750 -0.389648 1.615467 0.035809 2.061134
    69 14.656250 0.000000 0.000000 0.000000 0.000000 -1.039906
    70 3.888672 -2.343750 0.000003 1.525400 0.062341 1.080455
    71 14.671875 0.000000 0.000000 0.000000 0.000000 -1.013399
  time 11
    0 -3.346922 0.700154 33.408202 1.963495 0.000000 -0.119891
    1 0.000005 3.343750 -2.980469 0.000000 0.000000 0.000000
    2 0.000000 0.000002 0.000001 0.125414 -0.452668 1.753012
    3 4.126702 0.000000 -0.000001 -0.056632 -0.269884 0.006827
    4 3.613000 0.000000 0.000002 0.104835 -0.187098 -0.202508
    5 9.183998 0.000000 0.000002 0.071677 -0.078533 -0.024033
    6 3.136719 0.000001 0.000006 0.000000 0.000000 0.000000
    7 -0.022110 0.000372 -0.000006 0.000000 0.000000 0.000000
    8 -0.000002 0.000000 -0.000002 -0.024622 0.925925 -0.034403
    9 1.720703 0.000000 0.000002 0.000000 -0.392698 0.015097
    10 1.666992 -2.621094 1.204102 0.167878 -0.160052 -1.817353
    11 6.027344 -0.000001 0.000002 0.000000 0.000000 0.000000
    12 0.000000 0.000000 0.000001 -1.979358 -0.895019 0.412045
    13 12.693000 0.000000 0.000001 0.000000 0.000000 -1.150873
    14 11.570313 0.000004 0.000002 0.000000 0.000000 0.000000
    15 0.000000 0.000000 0.000001 -1.677363 0.397544 -0.037734
    16 5.406250 0.000001 0.000001 0.000000 0.000000 0.000000
    17 0.182129 0.133423 -1.864258 0.204203 0.169295 -0.060213
    18 5.292969 -0.000001 0.000001 -0.073574 -0.006249 0.809507
    19 3.078125 0.000000 -0.000001 0.006978 -0.006849 0.667653
    20 0.330566 0.047577 -0.612793 -0.146202 -0.021738 0.350197
    21 5.652344 0.000000 -0.000001 -0.067744 -0.006071 0.542601
    22 3.324219 -0.000001 0.000001 0.009337 -0.006636 1.264736
    23 0.153198 0.327148 0.486328 -0.329866 -0.354521 0.774742
    24 5.156250 0.000001 -0.000001 -0.070281 -0.005679 0.432911
    25 3.324219 0.000001 -0.000001 0.008884 -0.007390 1.407858
    26 1.659054 2.569644 1.216365 -0.165570 0.036625 1.604596
    27 6.027344 0.000000 0.000000 0.000000 0.000000 0.000000
    28 0.000000 0.000000 -0.000001 1.253019 -0.600276 0.159503
    29 12.693002 0.000000 0.000000 0.000000 0.000000 0.679376
    30 11.570313 -0.000001 0.000003 0.000000 0.000000 0.000000
    31 0.021282 0.135179 0.107485 -0.791115 -0.005935 0.522593
    32 5.406250 0.000000 0.000001 0.000000 0.000000 0.000000
    33 0.491455 -0.634766 1.689453 0.424113 -0.106556 0.188975
    34 5.246094 0.000000 0.000002 0.000000 0.000000 0.483077
    35 3.150391 -0.000001 -0.000001 0.000000 0.000000 0.524056
    36 0.780273 -0.664551 0.434814 0.204203 0.029273 0.408381
    37 5.507813 -0.000001 0.000001 0.000000 0.000000 0.844924
    38 3.324219 0.000000 0.000001 0.000000 0.000000 0.524186
    39 0.519043 -0.249634 -0.697754 0.392698 0.156781 0.512253
    40 5.070313 0.000001 0.000001 0.000000 0.000000 0.816812
    41 3.324219 0.000001 0.000001 0.000000 0.000000 1.115264
    42 0.000000 0.000001 -0.000001 0.000000 0.000000 0.148647
    43 3.890452 -0.000007 -0.000090 -1.775042 -1.139260 -1.439151
    44 17.590998 -0.000001 0.000000 0.000000 0.000000 1.031239
    45 17.687500 -0.000001 0.000000 0.000000 0.000000 0.000000
    46 0.000000 0.000000 0.000000 -0.001720 -0.402054 -1.070984
    47 6.878906 0.000000 0.000000 -0.085837 -0.002954 -0.584446
    48 -3.890442 -0.000009 -0.000089 1.103948 -0.856278 -1.583019
    49 17.590998 0.000000 0.000000 0.000000 0.000000 -1.229890
    50 17.687500 0.000000 -0.000001 0.000000 0.000000 0.000000
    51 0.000000 0.000000 0.000000 0.046535 0.163112 1.659222
    52 6.878906 0.000000 0.000001 -0.096875 0.003782 0.622898
    53 8.687500 -0.818848 2.572266 -1.012363 -0.183304 -1.560894
    54 10.585938 -10.429688 -4.976563 -0.898031 -0.379909 -2.476024
    55 3.888672 -3.158203 -7.617188 -0.785152 -0.140022 -1.821701
    56 7.511719 7.671875 -6.628906 -1.257911 0.294781 -1.042104
    57 -4.265625 5.093750 50.250000 1.040651 0.000000 -1.570796
    58 -0.002710 -0.820313 3.882813 -1.570795 0.000000 0.000000
    59 4.066406 0.218384 -2.248047 -3.138338 -0.000048 0.029246
    60 3.089844 0.000001 0.000000 0.000000 0.000000 0.000000
    61 0.000000 0.000001 0.000000 1.327537 -0.061616 1.278988
    62 10.179688 0.000001 0.000000 0.000000 0.000000 0.645964
    63 -4.066406 0.218384 -2.248047 1.572069 -0.043930 3.112635
    64 3.089844 -0.000001 -0.000001 0.000000 0.000000 0.000000
    65 0.000000 -0.000001 -0.000001 0.029922 1.270810 -0.265755
    66 10.179688 0.000001 -0.000001 0.000000 0.000000 -0.652765
    67 -0.002710 0.339600 -5.550781 -1.570795 0.000000 0.000000
    68 -3.888672 -2.343750 -0.389648 1.615467 0.035809 2.061134
    69 14.656250 0.000000 0.000000 0.000000 0.000000 -1.039906
    70 3.888672 -2.343750 0.000003 1.525400 0.062341 1.080455
    71 14.671875 0.000000 0.000000 0.000000 0.000000 -1.013399
  time 12
    0 -3.456301 0.864222 34.146506 1.963495 0.000000 -0.119891
    1 0.000005 3.343750 -2.980469 0.000000 0.000000 0.000000
    2 0.000000 0.000002 0.000001 0.125414 -0.440462 1.753012
    3 4.126702 0.000000 -0.000001 -0.055529 -0.301296 0.006827
    4 3.613000 0.000000 0.000002 0.047508 -0.265724 -0.202508
    5 9.183998 0.000000 0.000002 0.016029 -0.123175 -0.024033
    6 3.136719 0.000001 0.000006 0.000000 0.000000 0.000000
    7 -0.022110 0.000372 -0.000006 0.000000 0.000000 0.000000
    8 -0.000002 0.000000 -0.000002 -0.024622 0.925925 -0.034403
    9 1.720703 0.000000 0.000002 0.000000 -0.392698 0.015097
    10 1.666992 -2.621094 1.204102 0.167878 -0.160052 -1.817353
    11 6.027344 -0.000001 0.000002 0.000000 0.000000 0.000000
    12 0.000000 0.000000 0.000001 -2.303441 -0.882343 0.477325
    13 12.693000 0.000000 0.000001 0.000000 0.000000 -1.249302
    14 11.570313 0.000004 0.000002 0.000000 0.000000 0.000000
    15 0.000000 0.000000 0.000001 -1.443271 0.575969 0.279610
    16 5.406250 0.000001 0.000001 0.000000 0.000000 0.000000
    17 0.182129 0.133423 -1.864258 0.204203 0.169295 -0.060213
    18 5.292969 -0.000001 0.000001 -0.073574 -0.006249 0.809507
    19 3.078125 0.000000 -0.000001 0.006978 -0.006849 0.667653
    20 0.330566 0.047577 -0.612793 -0.146202 -0.021738 0.350197
    21 5.652344 0.000000 -0.000001 -0.067744 -0.006071 0.542601
    22 3.324219 -0.000001 0.000001 0.009337 -0.006636 1.264736
    23 0.153198 0.327148 0.486328 -0.329866 -0.354521 0.774742
    24 5.156250 0.000001 -0.000001 -0.070281 -0.005679 0.432911
    25 3.324219 0.000001 -0.000001 0.008884 -0.007390 1.407858
    26 1.659054 2.569644 1.216365 -0.165570 0.036625 1.604596
    27 6.027344 0.000000 0.000000 0.000000 0.000000 0.000000
    28 0.000000 0.000000 -0.000001 1.550970 -0.708865 -0.094853
    29 12.693002 0.000000 0.000000 0.000000 0.000000 0.933199
    30 11.570313 -0.000001 0.000003 0.000000 0.000000 0.000000
    31 0.021282 0.135179 0.107485 -0.651200 0.030604 0.191420
    32 5.406250 0.000000 0.000001 0.000000 0.000000 0.000000
    33 0.491455 -0.634766 1.689453 0.424113 -0.106556 0.188975
    34 5.246094 0.000000 0.000002 0.000000 0.000000 0.483077
    35 3.150391 -0.000001 -0.000001 0.000000 0.000000 0.524056
    36 0.780273 -0.664551 0.434814 0.204203 0.029273 0.408381
    37 5.507813 -0.000001 0.000001 0.000000 0.000000 0.844924
    38 3.324219 0.000000 0.000001 0.000000 0.000000 0.524186
    39 0.519043 -0.249634 -0.697754 0.392698 0.156781 0.512253
    40 5.070313 0.000001 0.000001 0.000000 0.000000 0.816812
    41 3.324219 0.000001 0.000001 0.000000 0.000000 1.115264
    42 0.000000 0.000001 -0.000001 0.000000 0.000000 0.148647
    43 3.890452 -0.000007 -0.000090 -1.802929 -1.090855 -1.432843
    44 17.590998 -0.000001 0.000000 0.000000 0.000000 0.940256
    45 17.687500 -0.000001 0.000000 0.000000 0.000000 0.000000
    46 0.000000 0.000000 0.000000 0.021314 -0.387422 -1.035471
    47 6.878906 0.000000 0.000000 -0.085837 -0.002954 -0.584446
    48 -3.890442 -0.000009 -0.000089 1.109615 -0.854345 -1.594232
    49 17.590998 0.000000 0.000000 0.000000 0.000000 -1.076196
    50 17.687500 0.000000 -0.000001 0.000000 0.000000 0.000000
    51 0.000000 0.000000 0.000000 0.061694 0.164003 1.573172
    52 6.878906 0.000000 0.000001 -0.096875 0.003782 0.622898
    53 8.687500 -0.818848 2.572266 -1.012363 -0.183304 -1.560894
    54 10.585938 -10.429688 -4.976563 -0.898031 -0.379909 -2.476024
    55 3.888672 -3.158203 -7.617188 -0.785152 -0.140022 -1.821701
    56 7.511719 7.671875 -6.628906 -1.257911 0.294781 -1.042104
    57 -4.265625 5.093750 50.250000 1.040651 0.000000 -1.570796
    58 -0.002710 -0.820313 3.882813 -1.570795 0.000000 0.000000
    59 4.066406 0.218384 -2.248047 -3.138338 -0.000048 0.029246
    60 3.089844 0.000001 0.000000 0.000000 0.000000 0.000000
    61 0.000000 0.000001 0.000000 1.327537 -0.061616 1.278988
    62 10.179688 0.000001 0.000000 0.000000 0.000000 0.645964
    63 -4.066406 0.218384 -2.248047 1.572069 -0.043930 3.112635
    64 3.089844 -0.000001 -0.000001 0.000000 0.000000 0.000000
    65 0.000000 -0.000001 -0.000001 0.029922 1.270810 -0.265755
    66 10.179688 0.000001 -0.000001 0.000000 0.000000 -0.652765
    67 -0.002710 0.339600 -5.550781 -1.570795 0.000000 0.000000
    68 -3.888672 -2.343750 -0.389648 1.615467 0.035809 2.061134
    69 14.656250 0.000000 0.000000 0.000000 0.000000 -1.039906
    70 3.888672 -2.343750 0.000003 1.525400 0.062341 1.080455
    71 14.671875 0.000000 0.000000 0.000000 0.000000 -1.013399
  time 13
    0 -3.499271 0.942349 34.459015 1.963495 0.000000 -0.119891
    1 0.000005 3.343750 -2.980469 0.000000 0.000000 0.000000
    2 0.000000 0.000002 0.000001 0.125414 -0.434055 1.753012
    3 4.126702 0.000000 -0.000001 -0.054978 -0.314159 0.006827
    4 3.613000 0.000000 0.000002 0.023562 -0.298451 -0.202508
    5 9.183998 0.000000 0.000002 -0.007071 -0.142039 -0.024033
    6 3.136719 0.000001 0.000006 0.000000 0.000000 0.000000
    7 -0.022110 0.000372 -0.000006 0.000000 0.000000 0.000000
    8 -0.000002 0.000000 -0.000002 -0.024622 0.925925 -0.034403
    9 1.720703 0.000000 0.000002 0.000000 -0.392698 0.015097
    10 1.666992 -2.621094 1.204102 0.167878 -0.160052 -1.817353
    11 6.027344 -0.000001 0.000002 0.000000 0.000000 0.000000
    12 0.000000 0.000000 0.000001 -2.406041 -0.857868 0.513757
    13 12.693000 0.000000 0.000001 0.000000 0.000000 -1.260846
    14 11.570313 0.000004 0.000002 0.000000 0.000000 0.000000
    15 0.000000 0.000000 0.000001 -1.373183 0.602075 0.350723
    16 5.406250 0.000001 0.000001 0.000000 0.000000 0.000000
    17 0.182129 0.133423 -1.864258 0.204203 0.169295 -0.060213
    18 5.292969 -0.000001 0.000001 -0.073574 -0.006249 0.809507
    19 3.078125 0.000000 -0.000001 0.006978 -0.006849 0.667653
    20 0.330566 0.047577 -0.612793 -0.146202 -0.021738 0.350197
    21 5.652344 0.000000 -0.000001 -0.067744 -0.006071 0.542601
    22 3.324219 -0.000001 0.000001 0.009337 -0.006636 1.264736
    23 0.153198 0.327148 0.486328 -0.329866 -0.354521 0.774742
    24 5.156250 0.000001 -0.000001 -0.070281 -0.005679 0.432911
    25 3.324219 0.000001 -0.000001 0.008884 -0.007390 1.407858
    26 1.659054 2.569644 1.216365 -0.165570 0.036625 1.604596
    27 6.027344 0.000000 0.000000 0.000000 0.000000 0.000000
    28 0.000000 0.000000 -0.000001 1.664261 -0.747770 -0.183090
    29 12.693002 0.000000 0.000000 0.000000 0.000000 0.973791
    30 11.570313 -0.000001 0.000003 0.000000 0.000000 0.000000
    31 0.021282 0.135179 0.107485 -0.630719 0.044388 0.130970
    32 5.406250 0.000000 0.000001 0.000000 0.000000 0.000000
    33 0.491455 -0.634766 1.689453 0.424113 -0.106556 0.188975
    34 5.246094 0.000000 0.000002 0.000000 0.000000 0.483077
    35 3.150391 -0.000001 -0.000001 0.000000 0.000000 0.524056
    36 0.780273 -0.664551 0.434814 0.204203 0.029273 0.408381
    37 5.507813 -0.000001 0.000001 0.000000 0.000000 0.844924
    38 3.324219 0.000000 0.000001 0.000000 0.000000 0.524186
    39 0.519043 -0.249634 -0.697754 0.392698 0.156781 0.512253
    40 5.070313 0.000001 0.000001 0.000000 0.000000 0.816812
    41 3.324219 0.000001 0.000001 0.000000 0.000000 1.115264
    42 0.000000 0.000001 -0.000001 0.000000 0.000000 0.148647
    43 3.890452 -0.000007 -0.000090 -1.794177 -1.070427 -1.442465
    44 17.590998 -0.000001 0.000000 0.000000 0.000000 0.898583
    45 17.687500 -0.000001 0.000000 0.000000 0.000000 0.000000
    46 0.000000 0.000000 0.000000 0.020994 -0.387277 -1.014647
    47 6.878906 0.000000 0.000000 -0.085837 -0.002954 -0.584446
    48 -3.890442 -0.000009 -0.000089 1.116249 -0.842517 -1.603075
    49 17.590998 0.000000 0.000000 0.000000 0.000000 -1.024900
    50 17.687500 0.000000 -0.000001 0.000000 0.000000 0.000000
    51 0.000000 0.000000 0.000000 0.063404 0.163435 1.545327
    52 6.878906 0.000000 0.000001 -0.096875 0.003782 0.622898
    53 8.687500 -0.818848 2.572266 -1.012363 -0.183304 -1.560894
    54 10.585938 -10.429688 -4.976563 -0.898031 -0.379909 -2.476024
    55 3.888672 -3.158203 -7.617188 -0.785152 -0.140022 -1.821701
    56 7.511719 7.671875 -6.628906 -1.257911 0.294781 -1.042104
    57 -4.265625 5.093750 50.250000 1.040651 0.000000 -1.570796
    58 -0.002710 -0.820313 3.882813 -1.570795 0.000000 0.000000
    59 4.066406 0.218384 -2.248047 -3.138338 -0.000048 0.029246
    60 3.089844 0.000001 0.000000 0.000000 0.000000 0.000000
    61 0.000000 0.000001 0.000000 1.327537 -0.061616 1.278988
    62 10.179688 0.000001 0.000000 0.000000 0.000000 0.645964
    63 -4.066406 0.218384 -2.248047 1.572069 -0.043930 3.112635
    64 3.089844 -0.000001 -0.000001 0.000000 0.000000 0.000000
    65 0.000000 -0.000001 -0.000001 0.029922 1.270810 -0.265755
    66 10.179688 0.000001 -0.000001 0.000000 0.000000 -0.652765
    67 -0.002710 0.339600 -5.550781 -1.570795 0.000000 0.000000
    68 -3.888672 -2.343750 -0.389648 1.615467 0.035809 2.061134
    69 14.656250 0.000000 0.000000 0.000000 0.000000 -1.039906
    70 3.888672 -2.343750 0.000003 1.525400 0.062341 1.080455
    71 14.671875 0.000000 0.000000 0.000000 0.000000 -1.013399
end
