// Created by Crowbar 0.74
version 1
nodes
  0 "ValveBiped.Bip01_Pelvis" -1
  1 "ValveBiped.Bip01_L_Thigh" 0
  2 "ValveBiped.Bip01_L_Calf" 1
  3 "ValveBiped.Bip01_L_Foot" 2
  4 "ValveBiped.Bip01_L_Toe0" 3
  5 "ValveBiped.Bip01_R_Thigh" 0
  6 "ValveBiped.Bip01_R_Calf" 5
  7 "ValveBiped.Bip01_R_Foot" 6
  8 "ValveBiped.Bip01_R_Toe0" 7
  9 "ValveBiped.Bip01_Spine" 0
  10 "ValveBiped.Bip01_Spine1" 9
  11 "ValveBiped.Bip01_Spine2" 10
  12 "ValveBiped.Bip01_Spine4" 11
  13 "ValveBiped.Bip01_Neck1" 12
  14 "ValveBiped.Bip01_Head1" 13
  15 "ValveBiped.Bip01_L_Clavicle" 12
  16 "ValveBiped.Bip01_L_UpperArm" 15
  17 "ValveBiped.Bip01_L_Forearm" 16
  18 "ValveBiped.Bip01_L_Hand" 17
  19 "ValveBiped.Bip01_L_Finger4" 18
  20 "ValveBiped.Bip01_L_Finger41" 19
  21 "ValveBiped.Bip01_L_Finger42" 20
  22 "ValveBiped.Bip01_L_Finger3" 18
  23 "ValveBiped.Bip01_L_Finger31" 22
  24 "ValveBiped.Bip01_L_Finger32" 23
  25 "ValveBiped.Bip01_L_Finger2" 18
  26 "ValveBiped.Bip01_L_Finger21" 25
  27 "ValveBiped.Bip01_L_Finger22" 26
  28 "ValveBiped.Bip01_L_Finger1" 18
  29 "ValveBiped.Bip01_L_Finger11" 28
  30 "ValveBiped.Bip01_L_Finger12" 29
  31 "ValveBiped.Bip01_L_Finger0" 18
  32 "ValveBiped.Bip01_L_Finger01" 31
  33 "ValveBiped.Bip01_L_Finger02" 32
  34 "ValveBiped.Bip01_R_Clavicle" 12
  35 "ValveBiped.Bip01_R_UpperArm" 34
  36 "ValveBiped.Bip01_R_Forearm" 35
  37 "ValveBiped.Bip01_R_Hand" 36
  38 "ValveBiped.Bip01_R_Finger4" 37
  39 "ValveBiped.Bip01_R_Finger41" 38
  40 "ValveBiped.Bip01_R_Finger42" 39
  41 "ValveBiped.Bip01_R_Finger3" 37
  42 "ValveBiped.Bip01_R_Finger31" 41
  43 "ValveBiped.Bip01_R_Finger32" 42
  44 "ValveBiped.Bip01_R_Finger2" 37
  45 "ValveBiped.Bip01_R_Finger21" 44
  46 "ValveBiped.Bip01_R_Finger22" 45
  47 "ValveBiped.Bip01_R_Finger1" 37
  48 "ValveBiped.Bip01_R_Finger11" 47
  49 "ValveBiped.Bip01_R_Finger12" 48
  50 "ValveBiped.Bip01_R_Finger0" 37
  51 "ValveBiped.Bip01_R_Finger01" 50
  52 "ValveBiped.Bip01_R_Finger02" 51
  53 "ValveBiped.Bip01_L_Elbow" 16
  54 "ValveBiped.Bip01_L_Ulna" 17
  55 "ValveBiped.Bip01_R_Ulna" 36
  56 "ValveBiped.Bip01_R_Shoulder" 35
  57 "ValveBiped.Bip01_L_Shoulder" 16
  58 "ValveBiped.Bip01_R_Trapezius" 34
  59 "ValveBiped.Bip01_R_Wrist" 36
  60 "ValveBiped.Bip01_R_Bicep" 35
  61 "ValveBiped.Bip01_L_Bicep" 16
  62 "ValveBiped.Bip01_L_Trapezius" 15
  63 "ValveBiped.Bip01_L_Wrist" 17
  64 "ValveBiped.Bip01_R_Elbow" 35
end
skeleton
  time 0
    0 -0.101634 1.820267 38.381187 1.595723 0.000000 0.000000
    1 3.890452 -0.000003 -0.000003 -1.571532 -0.142836 -1.541487
    2 17.848175 0.000000 0.000000 0.000000 0.000000 0.244781
    3 16.525251 0.000000 0.000000 -0.300932 -0.379501 -1.046821
    4 6.879453 0.000000 0.000000 -0.007299 -0.002950 -0.584373
    5 -3.890452 0.000008 0.000007 -1.570739 -0.079073 -1.573074
    6 17.848169 0.000000 0.000000 0.000000 0.000000 0.226575
    7 16.525255 0.000000 0.000000 0.214657 0.300443 -1.126630
    8 6.879454 0.000000 0.000000 -0.081333 -0.002951 -0.584373
    9 0.000005 3.345129 -2.981901 1.570796 0.086293 1.570796
    10 4.018333 0.000000 0.000000 0.000000 0.000000 0.068932
    11 3.518567 0.000000 0.000000 0.000000 0.000000 0.200438
    12 8.942639 0.000000 0.000000 0.000000 0.000000 0.194096
    13 3.307270 0.000000 0.000000 3.141590 0.000000 0.400478
    14 3.593713 0.000000 0.000000 0.000000 -0.000001 0.406587
    15 2.033347 1.000766 1.937661 1.596636 -1.286515 2.942962
    16 6.028143 0.000000 0.000001 -1.150993 0.032646 -1.040185
    17 11.692553 0.000000 0.000000 0.000000 0.000000 -1.455115
    18 11.481670 0.000001 -0.000032 1.601221 -0.218095 -0.338093
    19 3.859705 -0.142406 -1.191974 -0.514715 0.321472 -1.110127
    20 1.312561 0.000000 -0.000002 0.000000 0.009665 -1.755222
    21 0.729363 0.000000 0.000001 0.000000 0.004971 -0.460261
    22 3.942325 0.046770 -0.431445 -0.162193 0.196697 -0.910543
    23 1.539098 0.000001 -0.000001 0.000000 0.004460 -1.563327
    24 1.196320 0.000001 0.000000 0.000000 0.007361 -1.039454
    25 3.883687 -0.046772 0.431442 0.067314 0.053337 -0.993118
    26 1.719579 0.000000 -0.000001 0.000000 0.005516 -1.681982
    27 1.209177 0.000001 0.000001 0.000000 0.003084 -1.688980
    28 3.859860 -0.137948 1.332468 0.345413 -0.110223 -0.346864
    29 1.719429 -0.000002 -0.000002 0.000000 0.004074 -1.109126
    30 1.099662 0.000001 -0.000002 0.000000 0.002596 -1.559821
    31 0.806046 -0.348923 1.321259 -1.320936 -0.098256 -0.593706
    32 1.789784 -0.000002 0.000001 0.000000 0.007387 -0.046359
    33 1.207002 0.000004 -0.000001 0.000000 0.011267 -0.481409
    34 2.033352 1.000771 -1.937610 -1.948997 1.265732 2.649987
    35 6.028144 -0.000003 -0.000002 1.539042 0.332760 -0.872068
    36 11.692545 0.000000 -0.000002 0.000000 0.000000 -2.317271
    37 11.481697 0.000001 0.000001 -2.047269 0.272676 -0.424894
    38 3.859670 -0.132567 1.193109 0.283797 -0.030657 -0.113739
    39 1.312561 0.000000 0.000000 0.000000 -0.011932 -0.223702
    40 0.729363 0.000000 0.000001 0.000000 -0.006134 0.010955
    41 3.942294 0.050330 0.431042 0.082588 -0.064001 -0.134456
    42 1.539098 -0.000001 0.000001 0.000000 -0.005854 -0.031801
    43 1.196324 0.000001 0.000000 0.000000 -0.009663 -0.254094
    44 3.883656 -0.050325 -0.431043 -0.085761 0.033028 0.077340
    45 1.719577 -0.000001 0.000000 0.000000 -0.007974 -0.150466
    46 1.209181 -0.000003 0.000001 0.000000 -0.004461 -0.157507
    47 3.859825 -0.148934 -1.331281 -0.283662 0.098370 0.070319
    48 1.719424 0.000001 0.000000 0.000000 -0.006613 -0.009544
    49 1.099663 -0.000001 0.000000 0.000000 -0.004211 -0.126542
    50 0.806015 -0.359833 -1.318333 1.434067 0.440187 -0.298561
    51 1.789785 0.000000 -0.000001 0.000000 -0.000009 -0.164132
    52 1.207001 0.000001 0.000001 0.000000 -0.009618 -0.029794
    53 11.692550 0.000002 0.000004 0.000000 0.000000 -0.029500
    54 5.740849 0.000001 0.000002 0.000688 0.000000 0.000000
    55 5.740849 0.000000 0.000001 0.000081 0.000000 0.000000
    56 1.500003 0.000000 0.000002 0.000000 0.000000 0.000000
    57 1.499997 0.000001 0.000003 0.000000 0.000000 0.000000
    58 5.166962 0.000006 0.000000 0.000000 0.000000 0.000000
    59 11.481698 0.000000 0.000004 0.000150 0.000000 0.000000
    60 5.559997 0.000000 -0.000002 0.000000 0.000000 0.000000
    61 5.559995 0.000002 0.000004 0.000000 0.000000 0.000000
    62 5.166962 0.000001 0.000000 0.000000 0.000000 0.000000
    63 11.481696 0.000001 0.000004 0.001272 0.000000 0.000000
    64 11.692549 0.000000 -0.000001 0.000000 0.000000 -0.029500
  time 1
    0 -0.101634 1.820267 38.381187 1.595723 0.000000 0.000000
    1 3.890452 -0.000003 -0.000003 -1.571532 -0.142836 -1.541487
    2 17.848175 0.000000 0.000000 0.000000 0.000000 0.244781
    3 16.525251 0.000000 0.000000 -0.300932 -0.379501 -1.046821
    4 6.879453 0.000000 0.000000 -0.007299 -0.002950 -0.584373
    5 -3.890452 0.000008 0.000007 -1.570739 -0.079073 -1.573074
    6 17.848169 0.000000 0.000000 0.000000 0.000000 0.226575
    7 16.525255 0.000000 0.000000 0.214657 0.300443 -1.126630
    8 6.879454 0.000000 0.000000 -0.081333 -0.002951 -0.584373
    9 0.000005 3.345129 -2.981901 1.570796 0.086293 1.570796
    10 4.018333 0.000000 0.000000 0.000000 0.000000 0.068932
    11 3.518567 0.000000 0.000000 0.000000 0.000000 0.200438
    12 8.942639 0.000000 0.000000 0.000000 0.000000 0.194096
    13 3.307270 0.000000 0.000000 3.141590 0.000000 0.400478
    14 3.593713 0.000000 0.000000 0.000000 -0.000001 0.406587
    15 2.033347 1.000766 1.937661 1.596636 -1.286515 2.942962
    16 6.028143 0.000000 0.000001 -1.150993 0.032646 -1.040185
    17 11.692553 0.000000 0.000000 0.000000 0.000000 -1.455115
    18 11.481670 0.000001 -0.000032 1.601221 -0.218095 -0.338093
    19 3.859705 -0.142406 -1.191974 -0.514715 0.321472 -1.110127
    20 1.312561 0.000000 -0.000002 0.000000 0.009665 -1.755222
    21 0.729363 0.000000 0.000001 0.000000 0.004971 -0.460261
    22 3.942325 0.046770 -0.431445 -0.162193 0.196697 -0.910543
    23 1.539098 0.000001 -0.000001 0.000000 0.004460 -1.563327
    24 1.196320 0.000001 0.000000 0.000000 0.007361 -1.039454
    25 3.883687 -0.046772 0.431442 0.067314 0.053337 -0.993118
    26 1.719579 0.000000 -0.000001 0.000000 0.005516 -1.681982
    27 1.209177 0.000001 0.000001 0.000000 0.003084 -1.688980
    28 3.859860 -0.137948 1.332468 0.345413 -0.110223 -0.346864
    29 1.719429 -0.000002 -0.000002 0.000000 0.004074 -1.109126
    30 1.099662 0.000001 -0.000002 0.000000 0.002596 -1.559821
    31 0.806046 -0.348923 1.321259 -1.320936 -0.098256 -0.593706
    32 1.789784 -0.000002 0.000001 0.000000 0.007387 -0.046359
    33 1.207002 0.000004 -0.000001 0.000000 0.011267 -0.481409
    34 2.033352 1.000771 -1.937610 -1.948997 1.265732 2.649987
    35 6.028144 -0.000003 -0.000002 1.539042 0.332760 -0.872068
    36 11.692545 0.000000 -0.000002 0.000000 0.000000 -2.317271
    37 11.481697 0.000001 0.000001 -2.039942 0.271350 -0.435296
    38 3.859670 -0.132567 1.193109 0.297149 -0.032970 -0.147486
    39 1.312561 0.000000 0.000000 0.000000 -0.011932 -0.257668
    40 0.729363 0.000000 0.000001 0.000000 -0.006134 -0.037724
    41 3.942294 0.050330 0.431042 0.087454 -0.063941 -0.168454
    42 1.539098 -0.000001 0.000001 0.000000 -0.005854 -0.065767
    43 1.196324 0.000001 0.000000 0.000000 -0.009663 -0.300491
    44 3.883656 -0.050325 -0.431043 -0.086708 0.030103 0.043456
    45 1.719577 -0.000001 0.000000 0.000000 -0.007974 -0.184432
    46 1.209181 -0.000003 0.000001 0.000000 -0.004461 -0.200502
    47 3.859825 -0.148934 -1.331281 -0.285675 0.091731 0.061699
    48 1.719424 0.000001 0.000000 0.000000 -0.006613 -0.047455
    49 1.099663 -0.000001 0.000000 0.000000 -0.004211 -0.166698
    50 0.806015 -0.359833 -1.318333 1.431274 0.428360 -0.296739
    51 1.789785 0.000000 -0.000001 0.000000 -0.000189 -0.162999
    52 1.207001 0.000001 0.000001 0.000000 -0.009618 -0.022423
    53 11.692550 0.000002 0.000004 0.000000 0.000000 -0.029500
    54 5.740849 0.000001 0.000002 0.000688 0.000000 0.000000
    55 5.740849 0.000000 0.000001 0.000081 0.000000 0.000000
    56 1.500003 0.000000 0.000002 0.000000 0.000000 0.000000
    57 1.499997 0.000001 0.000003 0.000000 0.000000 0.000000
    58 5.166962 0.000006 0.000000 0.000000 0.000000 0.000000
    59 11.481698 0.000000 0.000004 0.000150 0.000000 0.000000
    60 5.559997 0.000000 -0.000002 0.000000 0.000000 0.000000
    61 5.559995 0.000002 0.000004 0.000000 0.000000 0.000000
    62 5.166962 0.000001 0.000000 0.000000 0.000000 0.000000
    63 11.481696 0.000001 0.000004 0.001272 0.000000 0.000000
    64 11.692549 0.000000 -0.000001 0.000000 0.000000 -0.029500
  time 2
    0 -0.101634 1.820267 38.381187 1.595723 0.000000 0.000000
    1 3.890452 -0.000003 -0.000003 -1.571532 -0.142836 -1.541487
    2 17.848175 0.000000 0.000000 0.000000 0.000000 0.244781
    3 16.525251 0.000000 0.000000 -0.300932 -0.379501 -1.046821
    4 6.879453 0.000000 0.000000 -0.007299 -0.002950 -0.584373
    5 -3.890452 0.000008 0.000007 -1.570739 -0.079073 -1.573074
    6 17.848169 0.000000 0.000000 0.000000 0.000000 0.226575
    7 16.525255 0.000000 0.000000 0.214657 0.300443 -1.126630
    8 6.879454 0.000000 0.000000 -0.081333 -0.002951 -0.584373
    9 0.000005 3.345129 -2.981901 1.570796 0.086293 1.570796
    10 4.018333 0.000000 0.000000 0.000000 0.000000 0.068932
    11 3.518567 0.000000 0.000000 0.000000 0.000000 0.200438
    12 8.942639 0.000000 0.000000 0.000000 0.000000 0.194096
    13 3.307270 0.000000 0.000000 3.141590 0.000000 0.400478
    14 3.593713 0.000000 0.000000 0.000000 -0.000001 0.406587
    15 2.033347 1.000766 1.937661 1.596636 -1.286515 2.942962
    16 6.028143 0.000000 0.000001 -1.150993 0.032646 -1.040185
    17 11.692553 0.000000 0.000000 0.000000 0.000000 -1.455115
    18 11.481670 0.000001 -0.000032 1.601221 -0.218095 -0.338093
    19 3.859705 -0.142406 -1.191974 -0.514715 0.321472 -1.110127
    20 1.312561 0.000000 -0.000002 0.000000 0.009665 -1.755222
    21 0.729363 0.000000 0.000001 0.000000 0.004971 -0.460261
    22 3.942325 0.046770 -0.431445 -0.162193 0.196697 -0.910543
    23 1.539098 0.000001 -0.000001 0.000000 0.004460 -1.563327
    24 1.196320 0.000001 0.000000 0.000000 0.007361 -1.039454
    25 3.883687 -0.046772 0.431442 0.067314 0.053337 -0.993118
    26 1.719579 0.000000 -0.000001 0.000000 0.005516 -1.681982
    27 1.209177 0.000001 0.000001 0.000000 0.003084 -1.688980
    28 3.859860 -0.137948 1.332468 0.345413 -0.110223 -0.346864
    29 1.719429 -0.000002 -0.000002 0.000000 0.004074 -1.109126
    30 1.099662 0.000001 -0.000002 0.000000 0.002596 -1.559821
    31 0.806046 -0.348923 1.321259 -1.320936 -0.098256 -0.593706
    32 1.789784 -0.000002 0.000001 0.000000 0.007387 -0.046359
    33 1.207002 0.000004 -0.000001 0.000000 0.011267 -0.481409
    34 2.033352 1.000771 -1.937610 -1.948997 1.265732 2.649987
    35 6.028144 -0.000003 -0.000002 1.539042 0.332760 -0.872068
    36 11.692545 0.000000 -0.000002 0.000000 0.000000 -2.317271
    37 11.481697 0.000001 0.000001 -2.012837 0.271350 -0.435159
    38 3.859670 -0.132567 1.193109 0.326612 -0.036470 -0.225703
    39 1.312561 0.000000 0.000000 0.000000 -0.011932 -0.335720
    40 0.729363 0.000000 0.000001 0.000000 -0.006134 -0.149570
    41 3.942294 0.050330 0.431042 0.098276 -0.063198 -0.246712
    42 1.539098 -0.000001 0.000001 0.000000 -0.005854 -0.143819
    43 1.196324 0.000001 0.000000 0.000000 -0.009663 -0.407139
    44 3.883656 -0.050325 -0.431043 -0.088554 0.023260 -0.034312
    45 1.719577 -0.000001 0.000000 0.000000 -0.007974 -0.262484
    46 1.209181 -0.000003 0.000001 0.000000 -0.004461 -0.299331
    47 3.859825 -0.148934 -1.331281 -0.290218 0.076402 0.041934
    48 1.719424 0.000001 0.000000 0.000000 -0.006613 -0.134644
    49 1.099663 -0.000001 0.000000 0.000000 -0.004211 -0.259039
    50 0.806015 -0.359833 -1.318333 1.424806 0.401206 -0.292480
    51 1.789785 0.000000 -0.000001 0.000000 -0.000608 -0.160401
    52 1.207001 0.000001 0.000001 0.000000 -0.009618 -0.005515
    53 11.692550 0.000002 0.000004 0.000000 0.000000 -0.029500
    54 5.740849 0.000001 0.000002 0.000688 0.000000 0.000000
    55 5.740849 0.000000 0.000001 0.000081 0.000000 0.000000
    56 1.500003 0.000000 0.000002 0.000000 0.000000 0.000000
    57 1.499997 0.000001 0.000003 0.000000 0.000000 0.000000
    58 5.166962 0.000006 0.000000 0.000000 0.000000 0.000000
    59 11.481698 0.000000 0.000004 0.000150 0.000000 0.000000
    60 5.559997 0.000000 -0.000002 0.000000 0.000000 0.000000
    61 5.559995 0.000002 0.000004 0.000000 0.000000 0.000000
    62 5.166962 0.000001 0.000000 0.000000 0.000000 0.000000
    63 11.481696 0.000001 0.000004 0.001272 0.000000 0.000000
    64 11.692549 0.000000 -0.000001 0.000000 0.000000 -0.029500
  time 3
    0 -0.101634 1.820267 38.381187 1.595723 0.000000 0.000000
    1 3.890452 -0.000003 -0.000003 -1.571532 -0.142836 -1.541487
    2 17.848175 0.000000 0.000000 0.000000 0.000000 0.244781
    3 16.525251 0.000000 0.000000 -0.300932 -0.379501 -1.046821
    4 6.879453 0.000000 0.000000 -0.007299 -0.002950 -0.584373
    5 -3.890452 0.000008 0.000007 -1.570739 -0.079073 -1.573074
    6 17.848169 0.000000 0.000000 0.000000 0.000000 0.226575
    7 16.525255 0.000000 0.000000 0.214657 0.300443 -1.126630
    8 6.879454 0.000000 0.000000 -0.081333 -0.002951 -0.584373
    9 0.000005 3.345129 -2.981901 1.570796 0.086293 1.570796
    10 4.018333 0.000000 0.000000 0.000000 0.000000 0.068932
    11 3.518567 0.000000 0.000000 0.000000 0.000000 0.200438
    12 8.942639 0.000000 0.000000 0.000000 0.000000 0.194096
    13 3.307270 0.000000 0.000000 3.141590 0.000000 0.400478
    14 3.593713 0.000000 0.000000 0.000000 -0.000001 0.406587
    15 2.033347 1.000766 1.937661 1.596636 -1.286515 2.942962
    16 6.028143 0.000000 0.000001 -1.150993 0.032646 -1.040185
    17 11.692553 0.000000 0.000000 0.000000 0.000000 -1.455115
    18 11.481670 0.000001 -0.000032 1.601221 -0.218095 -0.338093
    19 3.859705 -0.142406 -1.191974 -0.514715 0.321472 -1.110127
    20 1.312561 0.000000 -0.000002 0.000000 0.009665 -1.755222
    21 0.729363 0.000000 0.000001 0.000000 0.004971 -0.460261
    22 3.942325 0.046770 -0.431445 -0.162193 0.196697 -0.910543
    23 1.539098 0.000001 -0.000001 0.000000 0.004460 -1.563327
    24 1.196320 0.000001 0.000000 0.000000 0.007361 -1.039454
    25 3.883687 -0.046772 0.431442 0.067314 0.053337 -0.993118
    26 1.719579 0.000000 -0.000001 0.000000 0.005516 -1.681982
    27 1.209177 0.000001 0.000001 0.000000 0.003084 -1.688980
    28 3.859860 -0.137948 1.332468 0.345413 -0.110223 -0.346864
    29 1.719429 -0.000002 -0.000002 0.000000 0.004074 -1.109126
    30 1.099662 0.000001 -0.000002 0.000000 0.002596 -1.559821
    31 0.806046 -0.348923 1.321259 -1.320936 -0.098256 -0.593706
    32 1.789784 -0.000002 0.000001 0.000000 0.007387 -0.046359
    33 1.207002 0.000004 -0.000001 0.000000 0.011267 -0.481409
    34 2.033352 1.000771 -1.937610 -1.948997 1.265732 2.649987
    35 6.028144 -0.000003 -0.000002 1.539042 0.332760 -0.872068
    36 11.692545 0.000000 -0.000002 0.000000 0.000000 -2.317271
    37 11.481697 0.000001 0.000001 -1.972180 0.272032 -0.429780
    38 3.859670 -0.132567 1.193109 0.362668 -0.037309 -0.329811
    39 1.312561 0.000000 0.000000 0.000000 -0.011932 -0.438540
    40 0.729363 0.000000 0.000001 0.000000 -0.006134 -0.296910
    41 3.942294 0.050330 0.431042 0.111603 -0.060957 -0.349864
    42 1.539098 -0.000001 0.000001 0.000000 -0.005854 -0.246639
    43 1.196324 0.000001 0.000000 0.000000 -0.009663 -0.547626
    44 3.883656 -0.050325 -0.431043 -0.090148 0.014080 -0.136754
    45 1.719577 -0.000001 0.000000 0.000000 -0.007974 -0.365304
    46 1.209181 -0.000003 0.000001 0.000000 -0.004461 -0.429560
    47 3.859825 -0.148934 -1.331281 -0.296066 0.056076 0.016075
    48 1.719424 0.000001 0.000000 0.000000 -0.006613 -0.249442
    49 1.099663 -0.000001 0.000000 0.000000 -0.004211 -0.380700
    50 0.806015 -0.359833 -1.318333 1.416207 0.365489 -0.286655
    51 1.789785 0.000000 -0.000001 0.000000 -0.001160 -0.156969
    52 1.207001 0.000001 0.000001 0.000000 -0.009618 0.016774
    53 11.692550 0.000002 0.000004 0.000000 0.000000 -0.029500
    54 5.740849 0.000001 0.000002 0.000688 0.000000 0.000000
    55 5.740849 0.000000 0.000001 0.000081 0.000000 0.000000
    56 1.500003 0.000000 0.000002 0.000000 0.000000 0.000000
    57 1.499997 0.000001 0.000003 0.000000 0.000000 0.000000
    58 5.166962 0.000006 0.000000 0.000000 0.000000 0.000000
    59 11.481698 0.000000 0.000004 0.000150 0.000000 0.000000
    60 5.559997 0.000000 -0.000002 0.000000 0.000000 0.000000
    61 5.559995 0.000002 0.000004 0.000000 0.000000 0.000000
    62 5.166962 0.000001 0.000000 0.000000 0.000000 0.000000
    63 11.481696 0.000001 0.000004 0.001272 0.000000 0.000000
    64 11.692549 0.000000 -0.000001 0.000000 0.000000 -0.029500
  time 4
    0 -0.101634 1.820267 38.381187 1.595723 0.000000 0.000000
    1 3.890452 -0.000003 -0.000003 -1.571532 -0.142836 -1.541487
    2 17.848175 0.000000 0.000000 0.000000 0.000000 0.244781
    3 16.525251 0.000000 0.000000 -0.300932 -0.379501 -1.046821
    4 6.879453 0.000000 0.000000 -0.007299 -0.002950 -0.584373
    5 -3.890452 0.000008 0.000007 -1.570739 -0.079073 -1.573074
    6 17.848169 0.000000 0.000000 0.000000 0.000000 0.226575
    7 16.525255 0.000000 0.000000 0.214657 0.300443 -1.126630
    8 6.879454 0.000000 0.000000 -0.081333 -0.002951 -0.584373
    9 0.000005 3.345129 -2.981901 1.570796 0.086293 1.570796
    10 4.018333 0.000000 0.000000 0.000000 0.000000 0.068932
    11 3.518567 0.000000 0.000000 0.000000 0.000000 0.200438
    12 8.942639 0.000000 0.000000 0.000000 0.000000 0.194096
    13 3.307270 0.000000 0.000000 3.141590 0.000000 0.400478
    14 3.593713 0.000000 0.000000 0.000000 -0.000001 0.406587
    15 2.033347 1.000766 1.937661 1.596636 -1.286515 2.942962
    16 6.028143 0.000000 0.000001 -1.150993 0.032646 -1.040185
    17 11.692553 0.000000 0.000000 0.000000 0.000000 -1.455115
    18 11.481670 0.000001 -0.000032 1.601221 -0.218095 -0.338093
    19 3.859705 -0.142406 -1.191974 -0.514715 0.321472 -1.110127
    20 1.312561 0.000000 -0.000002 0.000000 0.009665 -1.755222
    21 0.729363 0.000000 0.000001 0.000000 0.004971 -0.460261
    22 3.942325 0.046770 -0.431445 -0.162193 0.196697 -0.910543
    23 1.539098 0.000001 -0.000001 0.000000 0.004460 -1.563327
    24 1.196320 0.000001 0.000000 0.000000 0.007361 -1.039454
    25 3.883687 -0.046772 0.431442 0.067314 0.053337 -0.993118
    26 1.719579 0.000000 -0.000001 0.000000 0.005516 -1.681982
    27 1.209177 0.000001 0.000001 0.000000 0.003084 -1.688980
    28 3.859860 -0.137948 1.332468 0.345413 -0.110223 -0.346864
    29 1.719429 -0.000002 -0.000002 0.000000 0.004074 -1.109126
    30 1.099662 0.000001 -0.000002 0.000000 0.002596 -1.559821
    31 0.806046 -0.348923 1.321259 -1.320936 -0.098256 -0.593706
    32 1.789784 -0.000002 0.000001 0.000000 0.007387 -0.046359
    33 1.207002 0.000004 -0.000001 0.000000 0.011267 -0.481409
    34 2.033352 1.000771 -1.937610 -1.948997 1.265732 2.649987
    35 6.028144 -0.000003 -0.000002 1.539042 0.332760 -0.872068
    36 11.692545 0.000000 -0.000002 0.000000 0.000000 -2.317271
    37 11.481697 0.000001 0.000001 -1.923525 0.273093 -0.421463
    38 3.859670 -0.132567 1.193109 0.399441 -0.033426 -0.450177
    39 1.312561 0.000000 0.000000 0.000000 -0.011932 -0.556184
    40 0.729363 0.000000 0.000001 0.000000 -0.006134 -0.465607
    41 3.942294 0.050330 0.431042 0.125397 -0.056798 -0.467857
    42 1.539098 -0.000001 0.000001 0.000000 -0.005854 -0.364283
    43 1.196324 0.000001 0.000000 0.000000 -0.009663 -0.708445
    44 3.883656 -0.050325 -0.431043 -0.090807 0.003438 -0.253922
    45 1.719577 -0.000001 0.000000 0.000000 -0.007974 -0.482948
    46 1.209181 -0.000003 0.000001 0.000000 -0.004461 -0.578649
    47 3.859825 -0.148934 -1.331281 -0.302538 0.032671 -0.013279
    48 1.719424 0.000001 0.000000 0.000000 -0.006613 -0.380827
    49 1.099663 -0.000001 0.000000 0.000000 -0.004211 -0.519963
    50 0.806015 -0.359833 -1.318333 1.406248 0.324671 -0.279650
    51 1.789785 0.000000 -0.000001 0.000000 -0.001783 -0.153050
    52 1.207001 0.000001 0.000001 0.000000 -0.009618 0.042252
    53 11.692550 0.000002 0.000004 0.000000 0.000000 -0.029500
    54 5.740849 0.000001 0.000002 0.000688 0.000000 0.000000
    55 5.740849 0.000000 0.000001 0.000081 0.000000 0.000000
    56 1.500003 0.000000 0.000002 0.000000 0.000000 0.000000
    57 1.499997 0.000001 0.000003 0.000000 0.000000 0.000000
    58 5.166962 0.000006 0.000000 0.000000 0.000000 0.000000
    59 11.481698 0.000000 0.000004 0.000150 0.000000 0.000000
    60 5.559997 0.000000 -0.000002 0.000000 0.000000 0.000000
    61 5.559995 0.000002 0.000004 0.000000 0.000000 0.000000
    62 5.166962 0.000001 0.000000 0.000000 0.000000 0.000000
    63 11.481696 0.000001 0.000004 0.001272 0.000000 0.000000
    64 11.692549 0.000000 -0.000001 0.000000 0.000000 -0.029500
  time 5
    0 -0.101634 1.820267 38.381187 1.595723 0.000000 0.000000
    1 3.890452 -0.000003 -0.000003 -1.571532 -0.142836 -1.541487
    2 17.848175 0.000000 0.000000 0.000000 0.000000 0.244781
    3 16.525251 0.000000 0.000000 -0.300932 -0.379501 -1.046821
    4 6.879453 0.000000 0.000000 -0.007299 -0.002950 -0.584373
    5 -3.890452 0.000008 0.000007 -1.570739 -0.079073 -1.573074
    6 17.848169 0.000000 0.000000 0.000000 0.000000 0.226575
    7 16.525255 0.000000 0.000000 0.214657 0.300443 -1.126630
    8 6.879454 0.000000 0.000000 -0.081333 -0.002951 -0.584373
    9 0.000005 3.345129 -2.981901 1.570796 0.086293 1.570796
    10 4.018333 0.000000 0.000000 0.000000 0.000000 0.068932
    11 3.518567 0.000000 0.000000 0.000000 0.000000 0.200438
    12 8.942639 0.000000 0.000000 0.000000 0.000000 0.194096
    13 3.307270 0.000000 0.000000 3.141590 0.000000 0.400478
    14 3.593713 0.000000 0.000000 0.000000 -0.000001 0.406587
    15 2.033347 1.000766 1.937661 1.596636 -1.286515 2.942962
    16 6.028143 0.000000 0.000001 -1.150993 0.032646 -1.040185
    17 11.692553 0.000000 0.000000 0.000000 0.000000 -1.455115
    18 11.481670 0.000001 -0.000032 1.601221 -0.218095 -0.338093
    19 3.859705 -0.142406 -1.191974 -0.514715 0.321472 -1.110127
    20 1.312561 0.000000 -0.000002 0.000000 0.009665 -1.755222
    21 0.729363 0.000000 0.000001 0.000000 0.004971 -0.460261
    22 3.942325 0.046770 -0.431445 -0.162193 0.196697 -0.910543
    23 1.539098 0.000001 -0.000001 0.000000 0.004460 -1.563327
    24 1.196320 0.000001 0.000000 0.000000 0.007361 -1.039454
    25 3.883687 -0.046772 0.431442 0.067314 0.053337 -0.993118
    26 1.719579 0.000000 -0.000001 0.000000 0.005516 -1.681982
    27 1.209177 0.000001 0.000001 0.000000 0.003084 -1.688980
    28 3.859860 -0.137948 1.332468 0.345413 -0.110223 -0.346864
    29 1.719429 -0.000002 -0.000002 0.000000 0.004074 -1.109126
    30 1.099662 0.000001 -0.000002 0.000000 0.002596 -1.559821
    31 0.806046 -0.348923 1.321259 -1.320936 -0.098256 -0.593706
    32 1.789784 -0.000002 0.000001 0.000000 0.007387 -0.046359
    33 1.207002 0.000004 -0.000001 0.000000 0.011267 -0.481409
    34 2.033352 1.000771 -1.937610 -1.948997 1.265732 2.649987
    35 6.028144 -0.000003 -0.000002 1.539042 0.332760 -0.872068
    36 11.692545 0.000000 -0.000002 0.000000 0.000000 -2.317271
    37 11.481697 0.000001 0.000001 -1.871950 0.274305 -0.411665
    38 3.859670 -0.132567 1.193109 0.432877 -0.024162 -0.580380
    39 1.312561 0.000000 0.000000 0.000000 -0.011932 -0.682462
    40 0.729363 0.000000 0.000001 0.000000 -0.006134 -0.646587
    41 3.942294 0.050330 0.431042 0.138268 -0.050626 -0.594481
    42 1.539098 -0.000001 0.000001 0.000000 -0.005854 -0.490561
    43 1.196324 0.000001 0.000000 0.000000 -0.009663 -0.881026
    44 3.883656 -0.050325 -0.431043 -0.090136 -0.007984 -0.379708
    45 1.719577 -0.000001 0.000000 0.000000 -0.007974 -0.609226
    46 1.209181 -0.000003 0.000001 0.000000 -0.004461 -0.738587
    47 3.859825 -0.148934 -1.331281 -0.309249 0.007371 -0.044503
    48 1.719424 0.000001 0.000000 0.000000 -0.006613 -0.521826
    49 1.099663 -0.000001 0.000000 0.000000 -0.004211 -0.669398
    50 0.806015 -0.359833 -1.318333 1.395370 0.280934 -0.271799
    51 1.789785 0.000000 -0.000001 0.000000 -0.002466 -0.148847
    52 1.207001 0.000001 0.000001 0.000000 -0.009618 0.069631
    53 11.692550 0.000002 0.000004 0.000000 0.000000 -0.029500
    54 5.740849 0.000001 0.000002 0.000688 0.000000 0.000000
    55 5.740849 0.000000 0.000001 0.000081 0.000000 0.000000
    56 1.500003 0.000000 0.000002 0.000000 0.000000 0.000000
    57 1.499997 0.000001 0.000003 0.000000 0.000000 0.000000
    58 5.166962 0.000006 0.000000 0.000000 0.000000 0.000000
    59 11.481698 0.000000 0.000004 0.000150 0.000000 0.000000
    60 5.559997 0.000000 -0.000002 0.000000 0.000000 0.000000
    61 5.559995 0.000002 0.000004 0.000000 0.000000 0.000000
    62 5.166962 0.000001 0.000000 0.000000 0.000000 0.000000
    63 11.481696 0.000001 0.000004 0.001272 0.000000 0.000000
    64 11.692549 0.000000 -0.000001 0.000000 0.000000 -0.029500
  time 6
    0 -0.101634 1.820267 38.381187 1.595723 0.000000 0.000000
    1 3.890452 -0.000003 -0.000003 -1.571532 -0.142836 -1.541487
    2 17.848175 0.000000 0.000000 0.000000 0.000000 0.244781
    3 16.525251 0.000000 0.000000 -0.300932 -0.379501 -1.046821
    4 6.879453 0.000000 0.000000 -0.007299 -0.002950 -0.584373
    5 -3.890452 0.000008 0.000007 -1.570739 -0.079073 -1.573074
    6 17.848169 0.000000 0.000000 0.000000 0.000000 0.226575
    7 16.525255 0.000000 0.000000 0.214657 0.300443 -1.126630
    8 6.879454 0.000000 0.000000 -0.081333 -0.002951 -0.584373
    9 0.000005 3.345129 -2.981901 1.570796 0.086293 1.570796
    10 4.018333 0.000000 0.000000 0.000000 0.000000 0.068932
    11 3.518567 0.000000 0.000000 0.000000 0.000000 0.200438
    12 8.942639 0.000000 0.000000 0.000000 0.000000 0.194096
    13 3.307270 0.000000 0.000000 3.141590 0.000000 0.400478
    14 3.593713 0.000000 0.000000 0.000000 -0.000001 0.406587
    15 2.033347 1.000766 1.937661 1.596636 -1.286515 2.942962
    16 6.028143 0.000000 0.000001 -1.150993 0.032646 -1.040185
    17 11.692553 0.000000 0.000000 0.000000 0.000000 -1.455115
    18 11.481670 0.000001 -0.000032 1.601221 -0.218095 -0.338093
    19 3.859705 -0.142406 -1.191974 -0.514715 0.321472 -1.110127
    20 1.312561 0.000000 -0.000002 0.000000 0.009665 -1.755222
    21 0.729363 0.000000 0.000001 0.000000 0.004971 -0.460261
    22 3.942325 0.046770 -0.431445 -0.162193 0.196697 -0.910543
    23 1.539098 0.000001 -0.000001 0.000000 0.004460 -1.563327
    24 1.196320 0.000001 0.000000 0.000000 0.007361 -1.039454
    25 3.883687 -0.046772 0.431442 0.067314 0.053337 -0.993118
    26 1.719579 0.000000 -0.000001 0.000000 0.005516 -1.681982
    27 1.209177 0.000001 0.000001 0.000000 0.003084 -1.688980
    28 3.859860 -0.137948 1.332468 0.345413 -0.110223 -0.346864
    29 1.719429 -0.000002 -0.000002 0.000000 0.004074 -1.109126
    30 1.099662 0.000001 -0.000002 0.000000 0.002596 -1.559821
    31 0.806046 -0.348923 1.321259 -1.320936 -0.098256 -0.593706
    32 1.789784 -0.000002 0.000001 0.000000 0.007387 -0.046359
    33 1.207002 0.000004 -0.000001 0.000000 0.011267 -0.481409
    34 2.033352 1.000771 -1.937610 -1.948997 1.265732 2.649987
    35 6.028144 -0.000003 -0.000002 1.539042 0.332760 -0.872068
    36 11.692545 0.000000 -0.000002 0.000000 0.000000 -2.317271
    37 11.481697 0.000001 0.000001 -1.822768 0.275517 -0.401620
    38 3.859670 -0.132567 1.193109 0.460077 -0.009996 -0.715365
    39 1.312561 0.000000 0.000000 0.000000 -0.011932 -0.812702
    40 0.729363 0.000000 0.000001 0.000000 -0.006134 -0.833281
    41 3.942294 0.050330 0.431042 0.149234 -0.042692 -0.725000
    42 1.539098 -0.000001 0.000001 0.000000 -0.005854 -0.620801
    43 1.196324 0.000001 0.000000 0.000000 -0.009663 -1.059038
    44 3.883656 -0.050325 -0.431043 -0.087942 -0.019585 -0.509435
    45 1.719577 -0.000001 0.000000 0.000000 -0.007974 -0.739466
    46 1.209181 -0.000003 0.000001 0.000000 -0.004461 -0.903551
    47 3.859825 -0.148934 -1.331281 -0.315925 -0.018923 -0.076419
    48 1.719424 0.000001 0.000000 0.000000 -0.006613 -0.667290
    49 1.099663 -0.000001 0.000000 0.000000 -0.004211 -0.823521
    50 0.806015 -0.359833 -1.318333 1.383904 0.235921 -0.263280
    51 1.789785 0.000000 -0.000001 0.000000 -0.003161 -0.144502
    52 1.207001 0.000001 0.000001 0.000000 -0.009618 0.097859
    53 11.692550 0.000002 0.000004 0.000000 0.000000 -0.029500
    54 5.740849 0.000001 0.000002 0.000688 0.000000 0.000000
    55 5.740849 0.000000 0.000001 0.000081 0.000000 0.000000
    56 1.500003 0.000000 0.000002 0.000000 0.000000 0.000000
    57 1.499997 0.000001 0.000003 0.000000 0.000000 0.000000
    58 5.166962 0.000006 0.000000 0.000000 0.000000 0.000000
    59 11.481698 0.000000 0.000004 0.000150 0.000000 0.000000
    60 5.559997 0.000000 -0.000002 0.000000 0.000000 0.000000
    61 5.559995 0.000002 0.000004 0.000000 0.000000 0.000000
    62 5.166962 0.000001 0.000000 0.000000 0.000000 0.000000
    63 11.481696 0.000001 0.000004 0.001272 0.000000 0.000000
    64 11.692549 0.000000 -0.000001 0.000000 0.000000 -0.029500
  time 7
    0 -0.101634 1.820267 38.381187 1.595723 0.000000 0.000000
    1 3.890452 -0.000003 -0.000003 -1.571532 -0.142836 -1.541487
    2 17.848175 0.000000 0.000000 0.000000 0.000000 0.244781
    3 16.525251 0.000000 0.000000 -0.300932 -0.379501 -1.046821
    4 6.879453 0.000000 0.000000 -0.007299 -0.002950 -0.584373
    5 -3.890452 0.000008 0.000007 -1.570739 -0.079073 -1.573074
    6 17.848169 0.000000 0.000000 0.000000 0.000000 0.226575
    7 16.525255 0.000000 0.000000 0.214657 0.300443 -1.126630
    8 6.879454 0.000000 0.000000 -0.081333 -0.002951 -0.584373
    9 0.000005 3.345129 -2.981901 1.570796 0.086293 1.570796
    10 4.018333 0.000000 0.000000 0.000000 0.000000 0.068932
    11 3.518567 0.000000 0.000000 0.000000 0.000000 0.200438
    12 8.942639 0.000000 0.000000 0.000000 0.000000 0.194096
    13 3.307270 0.000000 0.000000 3.141590 0.000000 0.400478
    14 3.593713 0.000000 0.000000 0.000000 -0.000001 0.406587
    15 2.033347 1.000766 1.937661 1.596636 -1.286515 2.942962
    16 6.028143 0.000000 0.000001 -1.150993 0.032646 -1.040185
    17 11.692553 0.000000 0.000000 0.000000 0.000000 -1.455115
    18 11.481670 0.000001 -0.000032 1.601221 -0.218095 -0.338093
    19 3.859705 -0.142406 -1.191974 -0.514715 0.321472 -1.110127
    20 1.312561 0.000000 -0.000002 0.000000 0.009665 -1.755222
    21 0.729363 0.000000 0.000001 0.000000 0.004971 -0.460261
    22 3.942325 0.046770 -0.431445 -0.162193 0.196697 -0.910543
    23 1.539098 0.000001 -0.000001 0.000000 0.004460 -1.563327
    24 1.196320 0.000001 0.000000 0.000000 0.007361 -1.039454
    25 3.883687 -0.046772 0.431442 0.067314 0.053337 -0.993118
    26 1.719579 0.000000 -0.000001 0.000000 0.005516 -1.681982
    27 1.209177 0.000001 0.000001 0.000000 0.003084 -1.688980
    28 3.859860 -0.137948 1.332468 0.345413 -0.110223 -0.346864
    29 1.719429 -0.000002 -0.000002 0.000000 0.004074 -1.109126
    30 1.099662 0.000001 -0.000002 0.000000 0.002596 -1.559821
    31 0.806046 -0.348923 1.321259 -1.320936 -0.098256 -0.593706
    32 1.789784 -0.000002 0.000001 0.000000 0.007387 -0.046359
    33 1.207002 0.000004 -0.000001 0.000000 0.011267 -0.481409
    34 2.033352 1.000771 -1.937610 -1.948997 1.265732 2.649987
    35 6.028144 -0.000003 -0.000002 1.539042 0.332760 -0.872068
    36 11.692545 0.000000 -0.000002 0.000000 0.000000 -2.317271
    37 11.481697 0.000001 0.000001 -1.781345 0.276502 -0.393303
    38 3.859670 -0.132567 1.193109 0.479250 0.007765 -0.850896
    39 1.312561 0.000000 0.000000 0.000000 -0.011932 -0.942978
    40 0.729363 0.000000 0.000001 0.000000 -0.006134 -1.019976
    41 3.942294 0.050330 0.431042 0.157636 -0.033488 -0.855360
    42 1.539098 -0.000001 0.000001 0.000000 -0.005854 -0.751077
    43 1.196324 0.000001 0.000000 0.000000 -0.009663 -1.237051
    44 3.883656 -0.050325 -0.431043 -0.084275 -0.030790 -0.639212
    45 1.719577 -0.000001 0.000000 0.000000 -0.007974 -0.869741
    46 1.209181 -0.000003 0.000001 0.000000 -0.004461 -1.068564
    47 3.859825 -0.148934 -1.331281 -0.322348 -0.045385 -0.108092
    48 1.719424 0.000001 0.000000 0.000000 -0.006613 -0.812754
    49 1.099663 -0.000001 0.000000 0.000000 -0.004211 -0.977643
    50 0.806015 -0.359833 -1.318333 1.372144 0.190994 -0.254299
    51 1.789785 0.000000 -0.000001 0.000000 -0.003856 -0.140157
    52 1.207001 0.000001 0.000001 0.000000 -0.009618 0.126057
    53 11.692550 0.000002 0.000004 0.000000 0.000000 -0.029500
    54 5.740849 0.000001 0.000002 0.000688 0.000000 0.000000
    55 5.740849 0.000000 0.000001 0.000081 0.000000 0.000000
    56 1.500003 0.000000 0.000002 0.000000 0.000000 0.000000
    57 1.499997 0.000001 0.000003 0.000000 0.000000 0.000000
    58 5.166962 0.000006 0.000000 0.000000 0.000000 0.000000
    59 11.481698 0.000000 0.000004 0.000150 0.000000 0.000000
    60 5.559997 0.000000 -0.000002 0.000000 0.000000 0.000000
    61 5.559995 0.000002 0.000004 0.000000 0.000000 0.000000
    62 5.166962 0.000001 0.000000 0.000000 0.000000 0.000000
    63 11.481696 0.000001 0.000004 0.001272 0.000000 0.000000
    64 11.692549 0.000000 -0.000001 0.000000 0.000000 -0.029500
  time 8
    0 -0.101634 1.820267 38.381187 1.595723 0.000000 0.000000
    1 3.890452 -0.000003 -0.000003 -1.571532 -0.142836 -1.541487
    2 17.848175 0.000000 0.000000 0.000000 0.000000 0.244781
    3 16.525251 0.000000 0.000000 -0.300932 -0.379501 -1.046821
    4 6.879453 0.000000 0.000000 -0.007299 -0.002950 -0.584373
    5 -3.890452 0.000008 0.000007 -1.570739 -0.079073 -1.573074
    6 17.848169 0.000000 0.000000 0.000000 0.000000 0.226575
    7 16.525255 0.000000 0.000000 0.214657 0.300443 -1.126630
    8 6.879454 0.000000 0.000000 -0.081333 -0.002951 -0.584373
    9 0.000005 3.345129 -2.981901 1.570796 0.086293 1.570796
    10 4.018333 0.000000 0.000000 0.000000 0.000000 0.068932
    11 3.518567 0.000000 0.000000 0.000000 0.000000 0.200438
    12 8.942639 0.000000 0.000000 0.000000 0.000000 0.194096
    13 3.307270 0.000000 0.000000 3.141590 0.000000 0.400478
    14 3.593713 0.000000 0.000000 0.000000 -0.000001 0.406587
    15 2.033347 1.000766 1.937661 1.596636 -1.286515 2.942962
    16 6.028143 0.000000 0.000001 -1.150993 0.032646 -1.040185
    17 11.692553 0.000000 0.000000 0.000000 0.000000 -1.455115
    18 11.481670 0.000001 -0.000032 1.601221 -0.218095 -0.338093
    19 3.859705 -0.142406 -1.191974 -0.514715 0.321472 -1.110127
    20 1.312561 0.000000 -0.000002 0.000000 0.009665 -1.755222
    21 0.729363 0.000000 0.000001 0.000000 0.004971 -0.460261
    22 3.942325 0.046770 -0.431445 -0.162193 0.196697 -0.910543
    23 1.539098 0.000001 -0.000001 0.000000 0.004460 -1.563327
    24 1.196320 0.000001 0.000000 0.000000 0.007361 -1.039454
    25 3.883687 -0.046772 0.431442 0.067314 0.053337 -0.993118
    26 1.719579 0.000000 -0.000001 0.000000 0.005516 -1.681982
    27 1.209177 0.000001 0.000001 0.000000 0.003084 -1.688980
    28 3.859860 -0.137948 1.332468 0.345413 -0.110223 -0.346864
    29 1.719429 -0.000002 -0.000002 0.000000 0.004074 -1.109126
    30 1.099662 0.000001 -0.000002 0.000000 0.002596 -1.559821
    31 0.806046 -0.348923 1.321259 -1.320936 -0.098256 -0.593706
    32 1.789784 -0.000002 0.000001 0.000000 0.007387 -0.046359
    33 1.207002 0.000004 -0.000001 0.000000 0.011267 -0.481409
    34 2.033352 1.000771 -1.937610 -1.948997 1.265732 2.649987
    35 6.028144 -0.000003 -0.000002 1.539042 0.332760 -0.872068
    36 11.692545 0.000000 -0.000002 0.000000 0.000000 -2.317271
    37 11.481697 0.000001 0.000001 -1.763674 0.277335 -0.386003
    38 3.859670 -0.132567 1.193109 0.489761 0.027252 -0.982602
    39 1.312561 0.000000 0.000000 0.000000 -0.011932 -1.069255
    40 0.729363 0.000000 0.000001 0.000000 -0.006134 -1.201006
    41 3.942294 0.050330 0.431042 0.163244 -0.023685 -0.981774
    42 1.539098 -0.000001 0.000001 0.000000 -0.005854 -0.877354
    43 1.196324 0.000001 0.000000 0.000000 -0.009663 -1.409632
    44 3.883656 -0.050325 -0.431043 -0.079349 -0.041121 -0.765146
    45 1.719577 -0.000001 0.000000 0.000000 -0.007974 -0.996019
    46 1.209181 -0.000003 0.000001 0.000000 -0.004461 -1.228502
    47 3.859825 -0.148934 -1.331281 -0.328329 -0.071200 -0.138589
    48 1.719424 0.000001 0.000000 0.000000 -0.006613 -0.953754
    49 1.099663 -0.000001 0.000000 0.000000 -0.004211 -1.127078
    50 0.806015 -0.359833 -1.318333 1.360458 0.147538 -0.245165
    51 1.789785 0.000000 -0.000001 0.000000 -0.004527 -0.135954
    52 1.207001 0.000001 0.000001 0.000000 -0.009618 0.153436
    53 11.692550 0.000002 0.000004 0.000000 0.000000 -0.029500
    54 5.740849 0.000001 0.000002 0.000688 0.000000 0.000000
    55 5.740849 0.000000 0.000001 0.000081 0.000000 0.000000
    56 1.500003 0.000000 0.000002 0.000000 0.000000 0.000000
    57 1.499997 0.000001 0.000003 0.000000 0.000000 0.000000
    58 5.166962 0.000006 0.000000 0.000000 0.000000 0.000000
    59 11.481698 0.000000 0.000004 0.000150 0.000000 0.000000
    60 5.559997 0.000000 -0.000002 0.000000 0.000000 0.000000
    61 5.559995 0.000002 0.000004 0.000000 0.000000 0.000000
    62 5.166962 0.000001 0.000000 0.000000 0.000000 0.000000
    63 11.481696 0.000001 0.000004 0.001272 0.000000 0.000000
    64 11.692549 0.000000 -0.000001 0.000000 0.000000 -0.029500
  time 9
    0 -0.101634 1.820267 38.381187 1.595723 0.000000 0.000000
    1 3.890452 -0.000003 -0.000003 -1.571532 -0.142836 -1.541487
    2 17.848175 0.000000 0.000000 0.000000 0.000000 0.244781
    3 16.525251 0.000000 0.000000 -0.300932 -0.379501 -1.046821
    4 6.879453 0.000000 0.000000 -0.007299 -0.002950 -0.584373
    5 -3.890452 0.000008 0.000007 -1.570739 -0.079073 -1.573074
    6 17.848169 0.000000 0.000000 0.000000 0.000000 0.226575
    7 16.525255 0.000000 0.000000 0.214657 0.300443 -1.126630
    8 6.879454 0.000000 0.000000 -0.081333 -0.002951 -0.584373
    9 0.000005 3.345129 -2.981901 1.570796 0.086293 1.570796
    10 4.018333 0.000000 0.000000 0.000000 0.000000 0.068932
    11 3.518567 0.000000 0.000000 0.000000 0.000000 0.200438
    12 8.942639 0.000000 0.000000 0.000000 0.000000 0.194096
    13 3.307270 0.000000 0.000000 3.141590 0.000000 0.400478
    14 3.593713 0.000000 0.000000 0.000000 -0.000001 0.406587
    15 2.033347 1.000766 1.937661 1.596636 -1.286515 2.942962
    16 6.028143 0.000000 0.000001 -1.150993 0.032646 -1.040185
    17 11.692553 0.000000 0.000000 0.000000 0.000000 -1.455115
    18 11.481670 0.000001 -0.000032 1.601221 -0.218095 -0.338093
    19 3.859705 -0.142406 -1.191974 -0.514715 0.321472 -1.110127
    20 1.312561 0.000000 -0.000002 0.000000 0.009665 -1.755222
    21 0.729363 0.000000 0.000001 0.000000 0.004971 -0.460261
    22 3.942325 0.046770 -0.431445 -0.162193 0.196697 -0.910543
    23 1.539098 0.000001 -0.000001 0.000000 0.004460 -1.563327
    24 1.196320 0.000001 0.000000 0.000000 0.007361 -1.039454
    25 3.883687 -0.046772 0.431442 0.067314 0.053337 -0.993118
    26 1.719579 0.000000 -0.000001 0.000000 0.005516 -1.681982
    27 1.209177 0.000001 0.000001 0.000000 0.003084 -1.688980
    28 3.859860 -0.137948 1.332468 0.345413 -0.110223 -0.346864
    29 1.719429 -0.000002 -0.000002 0.000000 0.004074 -1.109126
    30 1.099662 0.000001 -0.000002 0.000000 0.002596 -1.559821
    31 0.806046 -0.348923 1.321259 -1.320936 -0.098256 -0.593706
    32 1.789784 -0.000002 0.000001 0.000000 0.007387 -0.046359
    33 1.207002 0.000004 -0.000001 0.000000 0.011267 -0.481409
    34 2.033352 1.000771 -1.937610 -1.948997 1.265732 2.649987
    35 6.028144 -0.000003 -0.000002 1.539042 0.332760 -0.872068
    36 11.692545 0.000000 -0.000002 0.000000 0.000000 -2.317271
    37 11.481697 0.000001 0.000001 -1.753617 0.278093 -0.379223
    38 3.859670 -0.132567 1.193109 0.492161 0.046391 -1.105701
    39 1.312561 0.000000 0.000000 0.000000 -0.011932 -1.186935
    40 0.729363 0.000000 0.000001 0.000000 -0.006134 -1.369652
    41 3.942294 0.050330 0.431042 0.166133 -0.014037 -1.099451
    42 1.539098 -0.000001 0.000001 0.000000 -0.005854 -0.995034
    43 1.196324 0.000001 0.000000 0.000000 -0.009663 -1.570501
    44 3.883656 -0.050325 -0.431043 -0.073621 -0.050133 -0.882610
    45 1.719577 -0.000001 0.000000 0.000000 -0.007974 -1.113699
    46 1.209181 -0.000003 0.000001 0.000000 -0.004461 -1.377592
    47 3.859825 -0.148934 -1.331281 -0.333722 -0.095385 -0.166801
    48 1.719424 0.000001 0.000000 0.000000 -0.006613 -1.085173
    49 1.099663 -0.000001 0.000000 0.000000 -0.004211 -1.266341
    50 0.806015 -0.359833 -1.318333 1.349250 0.107152 -0.236235
    51 1.789785 0.000000 -0.000001 0.000000 -0.005162 -0.132034
    52 1.207001 0.000001 0.000001 0.000000 -0.009618 0.178914
    53 11.692550 0.000002 0.000004 0.000000 0.000000 -0.029500
    54 5.740849 0.000001 0.000002 0.000688 0.000000 0.000000
    55 5.740849 0.000000 0.000001 0.000081 0.000000 0.000000
    56 1.500003 0.000000 0.000002 0.000000 0.000000 0.000000
    57 1.499997 0.000001 0.000003 0.000000 0.000000 0.000000
    58 5.166962 0.000006 0.000000 0.000000 0.000000 0.000000
    59 11.481698 0.000000 0.000004 0.000150 0.000000 0.000000
    60 5.559997 0.000000 -0.000002 0.000000 0.000000 0.000000
    61 5.559995 0.000002 0.000004 0.000000 0.000000 0.000000
    62 5.166962 0.000001 0.000000 0.000000 0.000000 0.000000
    63 11.481696 0.000001 0.000004 0.001272 0.000000 0.000000
    64 11.692549 0.000000 -0.000001 0.000000 0.000000 -0.029500
  time 10
    0 -0.101634 1.820267 38.381187 1.595723 0.000000 0.000000
    1 3.890452 -0.000003 -0.000003 -1.571532 -0.142836 -1.541487
    2 17.848175 0.000000 0.000000 0.000000 0.000000 0.244781
    3 16.525251 0.000000 0.000000 -0.300932 -0.379501 -1.046821
    4 6.879453 0.000000 0.000000 -0.007299 -0.002950 -0.584373
    5 -3.890452 0.000008 0.000007 -1.570739 -0.079073 -1.573074
    6 17.848169 0.000000 0.000000 0.000000 0.000000 0.226575
    7 16.525255 0.000000 0.000000 0.214657 0.300443 -1.126630
    8 6.879454 0.000000 0.000000 -0.081333 -0.002951 -0.584373
    9 0.000005 3.345129 -2.981901 1.570796 0.086293 1.570796
    10 4.018333 0.000000 0.000000 0.000000 0.000000 0.068932
    11 3.518567 0.000000 0.000000 0.000000 0.000000 0.200438
    12 8.942639 0.000000 0.000000 0.000000 0.000000 0.194096
    13 3.307270 0.000000 0.000000 3.141590 0.000000 0.400478
    14 3.593713 0.000000 0.000000 0.000000 -0.000001 0.406587
    15 2.033347 1.000766 1.937661 1.596636 -1.286515 2.942962
    16 6.028143 0.000000 0.000001 -1.150993 0.032646 -1.040185
    17 11.692553 0.000000 0.000000 0.000000 0.000000 -1.455115
    18 11.481670 0.000001 -0.000032 1.601221 -0.218095 -0.338093
    19 3.859705 -0.142406 -1.191974 -0.514715 0.321472 -1.110127
    20 1.312561 0.000000 -0.000002 0.000000 0.009665 -1.755222
    21 0.729363 0.000000 0.000001 0.000000 0.004971 -0.460261
    22 3.942325 0.046770 -0.431445 -0.162193 0.196697 -0.910543
    23 1.539098 0.000001 -0.000001 0.000000 0.004460 -1.563327
    24 1.196320 0.000001 0.000000 0.000000 0.007361 -1.039454
    25 3.883687 -0.046772 0.431442 0.067314 0.053337 -0.993118
    26 1.719579 0.000000 -0.000001 0.000000 0.005516 -1.681982
    27 1.209177 0.000001 0.000001 0.000000 0.003084 -1.688980
    28 3.859860 -0.137948 1.332468 0.345413 -0.110223 -0.346864
    29 1.719429 -0.000002 -0.000002 0.000000 0.004074 -1.109126
    30 1.099662 0.000001 -0.000002 0.000000 0.002596 -1.559821
    31 0.806046 -0.348923 1.321259 -1.320936 -0.098256 -0.593706
    32 1.789784 -0.000002 0.000001 0.000000 0.007387 -0.046359
    33 1.207002 0.000004 -0.000001 0.000000 0.011267 -0.481409
    34 2.033352 1.000771 -1.937610 -1.948997 1.265732 2.649987
    35 6.028144 -0.000003 -0.000002 1.539042 0.332760 -0.872068
    36 11.692545 0.000000 -0.000002 0.000000 0.000000 -2.317271
    37 11.481697 0.000001 0.000001 -1.745907 0.278813 -0.372993
    38 3.859670 -0.132567 1.193109 0.488326 0.063098 -1.213498
    39 1.312561 0.000000 0.000000 0.000000 -0.011932 -1.289755
    40 0.729363 0.000000 0.000001 0.000000 -0.006134 -1.517043
    41 3.942294 0.050330 0.431042 0.166756 -0.005444 -1.202287
    42 1.539098 -0.000001 0.000001 0.000000 -0.005854 -1.097853
    43 1.196324 0.000001 0.000000 0.000000 -0.009663 -1.711038
    44 3.883656 -0.050325 -0.431043 -0.067784 -0.057396 -0.985347
    45 1.719577 -0.000001 0.000000 0.000000 -0.007974 -1.216518
    46 1.209181 -0.000003 0.000001 0.000000 -0.004461 -1.507821
    47 3.859825 -0.148934 -1.331281 -0.338264 -0.116598 -0.191310
    48 1.719424 0.000001 0.000000 0.000000 -0.006613 -1.200005
    49 1.099663 -0.000001 0.000000 0.000000 -0.004211 -1.388002
    50 0.806015 -0.359833 -1.318333 1.339217 0.071954 -0.228076
    51 1.789785 0.000000 -0.000001 0.000000 -0.005714 -0.128602
    52 1.207001 0.000001 0.000001 0.000000 -0.009618 0.201204
    53 11.692550 0.000002 0.000004 0.000000 0.000000 -0.029500
    54 5.740849 0.000001 0.000002 0.000688 0.000000 0.000000
    55 5.740849 0.000000 0.000001 0.000081 0.000000 0.000000
    56 1.500003 0.000000 0.000002 0.000000 0.000000 0.000000
    57 1.499997 0.000001 0.000003 0.000000 0.000000 0.000000
    58 5.166962 0.000006 0.000000 0.000000 0.000000 0.000000
    59 11.481698 0.000000 0.000004 0.000150 0.000000 0.000000
    60 5.559997 0.000000 -0.000002 0.000000 0.000000 0.000000
    61 5.559995 0.000002 0.000004 0.000000 0.000000 0.000000
    62 5.166962 0.000001 0.000000 0.000000 0.000000 0.000000
    63 11.481696 0.000001 0.000004 0.001272 0.000000 0.000000
    64 11.692549 0.000000 -0.000001 0.000000 0.000000 -0.029500
  time 11
    0 -0.101634 1.820267 38.381187 1.595723 0.000000 0.000000
    1 3.890452 -0.000003 -0.000003 -1.571532 -0.142836 -1.541487
    2 17.848175 0.000000 0.000000 0.000000 0.000000 0.244781
    3 16.525251 0.000000 0.000000 -0.300932 -0.379501 -1.046821
    4 6.879453 0.000000 0.000000 -0.007299 -0.002950 -0.584373
    5 -3.890452 0.000008 0.000007 -1.570739 -0.079073 -1.573074
    6 17.848169 0.000000 0.000000 0.000000 0.000000 0.226575
    7 16.525255 0.000000 0.000000 0.214657 0.300443 -1.126630
    8 6.879454 0.000000 0.000000 -0.081333 -0.002951 -0.584373
    9 0.000005 3.345129 -2.981901 1.570796 0.086293 1.570796
    10 4.018333 0.000000 0.000000 0.000000 0.000000 0.068932
    11 3.518567 0.000000 0.000000 0.000000 0.000000 0.200438
    12 8.942639 0.000000 0.000000 0.000000 0.000000 0.194096
    13 3.307270 0.000000 0.000000 3.141590 0.000000 0.400478
    14 3.593713 0.000000 0.000000 0.000000 -0.000001 0.406587
    15 2.033347 1.000766 1.937661 1.596636 -1.286515 2.942962
    16 6.028143 0.000000 0.000001 -1.150993 0.032646 -1.040185
    17 11.692553 0.000000 0.000000 0.000000 0.000000 -1.455115
    18 11.481670 0.000001 -0.000032 1.601221 -0.218095 -0.338093
    19 3.859705 -0.142406 -1.191974 -0.514715 0.321472 -1.110127
    20 1.312561 0.000000 -0.000002 0.000000 0.009665 -1.755222
    21 0.729363 0.000000 0.000001 0.000000 0.004971 -0.460261
    22 3.942325 0.046770 -0.431445 -0.162193 0.196697 -0.910543
    23 1.539098 0.000001 -0.000001 0.000000 0.004460 -1.563327
    24 1.196320 0.000001 0.000000 0.000000 0.007361 -1.039454
    25 3.883687 -0.046772 0.431442 0.067314 0.053337 -0.993118
    26 1.719579 0.000000 -0.000001 0.000000 0.005516 -1.681982
    27 1.209177 0.000001 0.000001 0.000000 0.003084 -1.688980
    28 3.859860 -0.137948 1.332468 0.345413 -0.110223 -0.346864
    29 1.719429 -0.000002 -0.000002 0.000000 0.004074 -1.109126
    30 1.099662 0.000001 -0.000002 0.000000 0.002596 -1.559821
    31 0.806046 -0.348923 1.321259 -1.320936 -0.098256 -0.593706
    32 1.789784 -0.000002 0.000001 0.000000 0.007387 -0.046359
    33 1.207002 0.000004 -0.000001 0.000000 0.011267 -0.481409
    34 2.033352 1.000771 -1.937610 -1.948997 1.265732 2.649987
    35 6.028144 -0.000003 -0.000002 1.539042 0.332760 -0.872068
    36 11.692545 0.000000 -0.000002 0.000000 0.000000 -2.317271
    37 11.481697 0.000001 0.000001 -1.739825 0.279419 -0.367504
    38 3.859670 -0.132567 1.193109 0.481761 0.075334 -1.295472
    39 1.312561 0.000000 0.000000 0.000000 -0.011932 -1.367807
    40 0.729363 0.000000 0.000001 0.000000 -0.006134 -1.628939
    41 3.942294 0.050330 0.431042 0.166061 0.001088 -1.280335
    42 1.539098 -0.000001 0.000001 0.000000 -0.005854 -1.175906
    43 1.196324 0.000001 0.000000 0.000000 -0.009663 -1.817686
    44 3.883656 -0.050325 -0.431043 -0.062859 -0.062502 -1.063360
    45 1.719577 -0.000001 0.000000 0.000000 -0.007974 -1.294570
    46 1.209181 -0.000003 0.000001 0.000000 -0.004461 -1.606700
    47 3.859825 -0.148934 -1.331281 -0.341619 -0.132765 -0.209829
    48 1.719424 0.000001 0.000000 0.000000 -0.006613 -1.287160
    49 1.099663 -0.000001 0.000000 0.000000 -0.004211 -1.480387
    50 0.806015 -0.359833 -1.318333 1.331389 0.045275 -0.221661
    51 1.789785 0.000000 -0.000001 0.000000 -0.006121 -0.126005
    52 1.207001 0.000001 0.000001 0.000000 -0.009618 0.218111
    53 11.692550 0.000002 0.000004 0.000000 0.000000 -0.029500
    54 5.740849 0.000001 0.000002 0.000688 0.000000 0.000000
    55 5.740849 0.000000 0.000001 0.000081 0.000000 0.000000
    56 1.500003 0.000000 0.000002 0.000000 0.000000 0.000000
    57 1.499997 0.000001 0.000003 0.000000 0.000000 0.000000
    58 5.166962 0.000006 0.000000 0.000000 0.000000 0.000000
    59 11.481698 0.000000 0.000004 0.000150 0.000000 0.000000
    60 5.559997 0.000000 -0.000002 0.000000 0.000000 0.000000
    61 5.559995 0.000002 0.000004 0.000000 0.000000 0.000000
    62 5.166962 0.000001 0.000000 0.000000 0.000000 0.000000
    63 11.481696 0.000001 0.000004 0.001272 0.000000 0.000000
    64 11.692549 0.000000 -0.000001 0.000000 0.000000 -0.029500
  time 12
    0 -0.101634 1.820267 38.381187 1.595723 0.000000 0.000000
    1 3.890452 -0.000003 -0.000003 -1.571532 -0.142836 -1.541487
    2 17.848175 0.000000 0.000000 0.000000 0.000000 0.244781
    3 16.525251 0.000000 0.000000 -0.300932 -0.379501 -1.046821
    4 6.879453 0.000000 0.000000 -0.007299 -0.002950 -0.584373
    5 -3.890452 0.000008 0.000007 -1.570739 -0.079073 -1.573074
    6 17.848169 0.000000 0.000000 0.000000 0.000000 0.226575
    7 16.525255 0.000000 0.000000 0.214657 0.300443 -1.126630
    8 6.879454 0.000000 0.000000 -0.081333 -0.002951 -0.584373
    9 0.000005 3.345129 -2.981901 1.570796 0.086293 1.570796
    10 4.018333 0.000000 0.000000 0.000000 0.000000 0.068932
    11 3.518567 0.000000 0.000000 0.000000 0.000000 0.200438
    12 8.942639 0.000000 0.000000 0.000000 0.000000 0.194096
    13 3.307270 0.000000 0.000000 3.141590 0.000000 0.400478
    14 3.593713 0.000000 0.000000 0.000000 -0.000001 0.406587
    15 2.033347 1.000766 1.937661 1.596636 -1.286515 2.942962
    16 6.028143 0.000000 0.000001 -1.150993 0.032646 -1.040185
    17 11.692553 0.000000 0.000000 0.000000 0.000000 -1.455115
    18 11.481670 0.000001 -0.000032 1.601221 -0.218095 -0.338093
    19 3.859705 -0.142406 -1.191974 -0.514715 0.321472 -1.110127
    20 1.312561 0.000000 -0.000002 0.000000 0.009665 -1.755222
    21 0.729363 0.000000 0.000001 0.000000 0.004971 -0.460261
    22 3.942325 0.046770 -0.431445 -0.162193 0.196697 -0.910543
    23 1.539098 0.000001 -0.000001 0.000000 0.004460 -1.563327
    24 1.196320 0.000001 0.000000 0.000000 0.007361 -1.039454
    25 3.883687 -0.046772 0.431442 0.067314 0.053337 -0.993118
    26 1.719579 0.000000 -0.000001 0.000000 0.005516 -1.681982
    27 1.209177 0.000001 0.000001 0.000000 0.003084 -1.688980
    28 3.859860 -0.137948 1.332468 0.345413 -0.110223 -0.346864
    29 1.719429 -0.000002 -0.000002 0.000000 0.004074 -1.109126
    30 1.099662 0.000001 -0.000002 0.000000 0.002596 -1.559821
    31 0.806046 -0.348923 1.321259 -1.320936 -0.098256 -0.593706
    32 1.789784 -0.000002 0.000001 0.000000 0.007387 -0.046359
    33 1.207002 0.000004 -0.000001 0.000000 0.011267 -0.481409
    34 2.033352 1.000771 -1.937610 -1.948997 1.265732 2.649987
    35 6.028144 -0.000003 -0.000002 1.539042 0.332760 -0.872068
    36 11.692545 0.000000 -0.000002 0.000000 0.000000 -2.317271
    37 11.481697 0.000001 0.000001 -1.736138 0.279760 -0.364128
    38 3.859670 -0.132567 1.193109 0.477954 0.080464 -1.331131
    39 1.312561 0.000000 0.000000 0.000000 -0.011932 -1.401773
    40 0.729363 0.000000 0.000001 0.000000 -0.006134 -1.677618
    41 3.942294 0.050330 0.431042 0.165438 0.003892 -1.314280
    42 1.539098 -0.000001 0.000001 0.000000 -0.005854 -1.209872
    43 1.196324 0.000001 0.000000 0.000000 -0.009663 -1.864083
    44 3.883656 -0.050325 -0.431043 -0.060606 -0.064587 -1.097294
    45 1.719577 -0.000001 0.000000 0.000000 -0.007974 -1.328536
    46 1.209181 -0.000003 0.000001 0.000000 -0.004461 -1.649695
    47 3.859825 -0.148934 -1.331281 -0.343058 -0.139812 -0.217895
    48 1.719424 0.000001 0.000000 0.000000 -0.006613 -1.325071
    49 1.099663 -0.000001 0.000000 0.000000 -0.004211 -1.520543
    50 0.806015 -0.359833 -1.318333 1.327972 0.033687 -0.218813
    51 1.789785 0.000000 -0.000001 0.000000 -0.006301 -0.124871
    52 1.207001 0.000001 0.000001 0.000000 -0.009618 0.225482
    53 11.692550 0.000002 0.000004 0.000000 0.000000 -0.029500
    54 5.740849 0.000001 0.000002 0.000688 0.000000 0.000000
    55 5.740849 0.000000 0.000001 0.000081 0.000000 0.000000
    56 1.500003 0.000000 0.000002 0.000000 0.000000 0.000000
    57 1.499997 0.000001 0.000003 0.000000 0.000000 0.000000
    58 5.166962 0.000006 0.000000 0.000000 0.000000 0.000000
    59 11.481698 0.000000 0.000004 0.000150 0.000000 0.000000
    60 5.559997 0.000000 -0.000002 0.000000 0.000000 0.000000
    61 5.559995 0.000002 0.000004 0.000000 0.000000 0.000000
    62 5.166962 0.000001 0.000000 0.000000 0.000000 0.000000
    63 11.481696 0.000001 0.000004 0.001272 0.000000 0.000000
    64 11.692549 0.000000 -0.000001 0.000000 0.000000 -0.029500
end
