// Created by Crowbar 0.74
version 1
nodes
  0 "ValveBiped.Bip01_Pelvis" -1
  1 "ValveBiped.Bip01_L_Thigh" 0
  2 "ValveBiped.Bip01_L_Calf" 1
  3 "ValveBiped.Bip01_L_Foot" 2
  4 "ValveBiped.Bip01_L_Toe0" 3
  5 "ValveBiped.Bip01_R_Thigh" 0
  6 "ValveBiped.Bip01_R_Calf" 5
  7 "ValveBiped.Bip01_R_Foot" 6
  8 "ValveBiped.Bip01_R_Toe0" 7
  9 "ValveBiped.Bip01_Spine" 0
  10 "ValveBiped.Bip01_Spine1" 9
  11 "ValveBiped.Bip01_Spine2" 10
  12 "ValveBiped.Bip01_Spine4" 11
  13 "ValveBiped.Bip01_Neck1" 12
  14 "ValveBiped.Bip01_Head1" 13
  15 "ValveBiped.Bip01_L_Clavicle" 12
  16 "ValveBiped.Bip01_L_UpperArm" 15
  17 "ValveBiped.Bip01_L_Forearm" 16
  18 "ValveBiped.Bip01_L_Hand" 17
  19 "ValveBiped.Bip01_L_Finger4" 18
  20 "ValveBiped.Bip01_L_Finger41" 19
  21 "ValveBiped.Bip01_L_Finger42" 20
  22 "ValveBiped.Bip01_L_Finger3" 18
  23 "ValveBiped.Bip01_L_Finger31" 22
  24 "ValveBiped.Bip01_L_Finger32" 23
  25 "ValveBiped.Bip01_L_Finger2" 18
  26 "ValveBiped.Bip01_L_Finger21" 25
  27 "ValveBiped.Bip01_L_Finger22" 26
  28 "ValveBiped.Bip01_L_Finger1" 18
  29 "ValveBiped.Bip01_L_Finger11" 28
  30 "ValveBiped.Bip01_L_Finger12" 29
  31 "ValveBiped.Bip01_L_Finger0" 18
  32 "ValveBiped.Bip01_L_Finger01" 31
  33 "ValveBiped.Bip01_L_Finger02" 32
  34 "ValveBiped.Bip01_R_Clavicle" 12
  35 "ValveBiped.Bip01_R_UpperArm" 34
  36 "ValveBiped.Bip01_R_Forearm" 35
  37 "ValveBiped.Bip01_R_Hand" 36
  38 "ValveBiped.Bip01_R_Finger4" 37
  39 "ValveBiped.Bip01_R_Finger41" 38
  40 "ValveBiped.Bip01_R_Finger42" 39
  41 "ValveBiped.Bip01_R_Finger3" 37
  42 "ValveBiped.Bip01_R_Finger31" 41
  43 "ValveBiped.Bip01_R_Finger32" 42
  44 "ValveBiped.Bip01_R_Finger2" 37
  45 "ValveBiped.Bip01_R_Finger21" 44
  46 "ValveBiped.Bip01_R_Finger22" 45
  47 "ValveBiped.Bip01_R_Finger1" 37
  48 "ValveBiped.Bip01_R_Finger11" 47
  49 "ValveBiped.Bip01_R_Finger12" 48
  50 "ValveBiped.Bip01_R_Finger0" 37
  51 "ValveBiped.Bip01_R_Finger01" 50
  52 "ValveBiped.Bip01_R_Finger02" 51
  53 "ValveBiped.Bip01_L_Elbow" 16
  54 "ValveBiped.Bip01_L_Ulna" 17
  55 "ValveBiped.Bip01_R_Ulna" 36
  56 "ValveBiped.Bip01_R_Shoulder" 35
  57 "ValveBiped.Bip01_L_Shoulder" 16
  58 "ValveBiped.Bip01_R_Trapezius" 34
  59 "ValveBiped.Bip01_R_Wrist" 36
  60 "ValveBiped.Bip01_R_Bicep" 35
  61 "ValveBiped.Bip01_L_Bicep" 16
  62 "ValveBiped.Bip01_L_Trapezius" 15
  63 "ValveBiped.Bip01_L_Wrist" 17
  64 "ValveBiped.Bip01_R_Elbow" 35
end
skeleton
  time 0
    0 -0.002349 0.000005 0.003241 0.000057 0.000000 -1.570796
    1 3.890452 -0.000003 -0.000003 -1.571532 -0.142836 -1.541487
    2 17.848175 0.000000 0.000000 0.000000 0.000000 0.244781
    3 16.525251 0.000000 0.000000 -0.300932 -0.379501 -1.046821
    4 6.879453 0.000000 0.000000 -0.007299 -0.002950 -0.584373
    5 -3.890452 0.000008 0.000007 -1.570739 -0.079073 -1.573074
    6 17.848169 0.000000 0.000000 0.000000 0.000000 0.226575
    7 16.525255 0.000000 0.000000 0.214657 0.300443 -1.126630
    8 6.879454 0.000000 0.000000 -0.081333 -0.002951 -0.584373
    9 0.000005 0.001276 -0.001341 0.000036 0.000016 0.000032
    10 0.002584 0.000000 0.000000 0.000000 0.000000 -0.000005
    11 0.002833 0.000000 0.000000 0.000000 0.000000 0.000009
    12 0.000963 0.000000 0.000000 0.000000 0.000000 0.000006
    13 0.002483 0.000000 0.000000 -0.000002 0.000000 0.000005
    14 0.003758 -0.000001 0.000000 0.000000 -0.000001 0.000023
    15 0.002034 0.000737 0.000101 0.000041 -0.000037 0.000054
    16 0.000614 0.000001 0.000000 -0.000028 0.000030 -0.000058
    17 0.000792 0.000000 0.000001 0.000000 0.000000 -0.000015
    18 0.000853 0.000000 -0.000031 0.000016 -0.000036 0.000035
    19 0.000211 -0.001777 -0.000531 -0.000007 0.000010 -0.000007
    20 0.000023 0.000001 0.000001 0.000000 0.000005 -0.000028
    21 0.002778 0.000000 0.000000 0.000000 0.000009 -0.000022
    22 0.000800 0.003802 -0.001742 -0.000005 0.000006 -0.000029
    23 0.003889 -0.000001 0.000000 0.000000 0.000002 -0.000019
    24 0.000973 0.000001 0.000000 0.000000 0.000002 -0.000023
    25 0.000759 -0.003802 0.001743 0.000008 0.000006 -0.000024
    26 0.000772 -0.000001 0.000000 0.000000 0.000003 -0.000003
    27 0.002115 -0.000002 0.000000 0.000000 0.000004 -0.000007
    28 0.000367 -0.001225 0.000394 0.000005 -0.000001 -0.000027
    29 0.000627 0.000000 0.000000 0.000000 0.000011 -0.000009
    30 0.001977 0.000000 0.000000 0.000000 0.000007 -0.000033
    31 0.001336 -0.001255 0.000905 -0.000056 -0.000010 -0.000062
    32 0.000666 0.000000 0.000001 0.000000 0.000004 0.000008
    33 0.003836 0.000000 0.000000 0.000000 0.000001 0.000014
    34 0.002041 0.000741 -0.000051 -0.000027 0.000009 0.000035
    35 0.000615 0.000001 0.000000 0.000016 -0.000045 -0.000040
    36 0.000790 0.000000 0.000001 0.000000 0.000000 -0.000027
    37 0.000880 0.000000 0.000003 -0.000040 0.000009 0.000004
    38 0.000179 -0.003659 0.001665 0.000010 -0.000001 -0.000068
    39 0.000021 0.000001 0.000000 0.000000 -0.000007 -0.000018
    40 0.002779 0.000000 0.000000 0.000000 -0.000010 -0.000024
    41 0.000767 0.003452 0.001342 0.000002 -0.000003 -0.000043
    42 0.003892 0.000000 0.000000 0.000000 -0.000006 -0.000028
    43 0.000977 0.000001 0.000000 0.000000 -0.000003 -0.000032
    44 0.000725 -0.003451 -0.001342 -0.000011 -0.000002 -0.000033
    45 0.000774 0.000002 0.000000 0.000000 -0.000004 -0.000023
    46 0.002113 -0.000001 0.000000 0.000000 -0.000003 -0.000007
    47 0.000337 -0.000495 -0.003116 -0.000011 0.000001 -0.000021
    48 0.000623 0.000000 0.000000 0.000000 -0.000009 -0.000032
    49 0.001976 0.000001 0.000000 0.000000 -0.000004 -0.000016
    50 0.001305 -0.000449 -0.001887 0.000036 0.000003 -0.000020
    51 0.000667 0.000000 0.000000 0.000000 -0.000009 0.000011
    52 0.003836 0.000000 0.000000 0.000000 -0.000006 0.000013
    53 0.000000 0.000000 0.000000 0.000000 0.000000 0.000000
    54 0.000000 0.000000 0.000000 0.000000 0.000000 0.000000
    55 0.000000 0.000000 0.000000 0.000000 0.000000 0.000000
    56 0.000000 0.000000 0.000000 0.000000 0.000000 0.000000
    57 0.000000 0.000000 0.000000 0.000000 0.000000 0.000000
    58 0.000000 0.000000 0.000000 0.000000 0.000000 0.000000
    59 0.000000 0.000000 0.000000 0.000000 0.000000 0.000000
    60 0.000000 0.000000 0.000000 0.000000 0.000000 0.000000
    61 0.000000 0.000000 0.000000 0.000000 0.000000 0.000000
    62 0.000000 0.000000 0.000000 0.000000 0.000000 0.000000
    63 0.000000 0.000000 0.000000 0.000000 0.000000 0.000000
    64 0.000000 0.000000 0.000000 0.000000 0.000000 0.000000
  time 1
    0 -0.002349 0.000005 0.003241 0.000057 0.000000 -1.570796
    1 3.890452 -0.000003 -0.000003 -1.571532 -0.142836 -1.541487
    2 17.848175 0.000000 0.000000 0.000000 0.000000 0.244781
    3 16.525251 0.000000 0.000000 -0.300932 -0.379501 -1.046821
    4 6.879453 0.000000 0.000000 -0.007299 -0.002950 -0.584373
    5 -3.890452 0.000008 0.000007 -1.570739 -0.079073 -1.573074
    6 17.848169 0.000000 0.000000 0.000000 0.000000 0.226575
    7 16.525255 0.000000 0.000000 0.214657 0.300443 -1.126630
    8 6.879454 0.000000 0.000000 -0.081333 -0.002951 -0.584373
    9 0.000005 0.001276 -0.001341 0.000036 0.000016 0.000032
    10 0.002584 0.000000 0.000000 0.000000 0.000000 -0.000005
    11 0.002833 0.000000 0.000000 0.000000 0.000000 0.000009
    12 0.000963 0.000000 0.000000 0.000000 0.000000 0.000006
    13 0.002483 0.000000 0.000000 -0.000002 0.000000 0.000005
    14 0.003758 -0.000001 0.000000 0.000000 -0.000001 0.000023
    15 0.002034 0.000737 0.000101 0.000041 -0.000037 0.000054
    16 0.000614 0.000001 0.000000 -0.000028 0.000030 -0.000058
    17 0.000792 0.000000 0.000001 0.000000 0.000000 -0.000015
    18 0.000853 0.000000 -0.000031 0.000016 -0.000036 0.000035
    19 0.000211 -0.001777 -0.000531 -0.000007 0.000010 -0.000007
    20 0.000023 0.000001 0.000001 0.000000 0.000005 -0.000028
    21 0.002778 0.000000 0.000000 0.000000 0.000009 -0.000022
    22 0.000800 0.003802 -0.001742 -0.000005 0.000006 -0.000029
    23 0.003889 -0.000001 0.000000 0.000000 0.000002 -0.000019
    24 0.000973 0.000001 0.000000 0.000000 0.000002 -0.000023
    25 0.000759 -0.003802 0.001743 0.000008 0.000006 -0.000024
    26 0.000772 -0.000001 0.000000 0.000000 0.000003 -0.000003
    27 0.002115 -0.000002 0.000000 0.000000 0.000004 -0.000007
    28 0.000367 -0.001225 0.000394 0.000005 -0.000001 -0.000027
    29 0.000627 0.000000 0.000000 0.000000 0.000011 -0.000009
    30 0.001977 0.000000 0.000000 0.000000 0.000007 -0.000033
    31 0.001336 -0.001255 0.000905 -0.000056 -0.000010 -0.000062
    32 0.000666 0.000000 0.000001 0.000000 0.000004 0.000008
    33 0.003836 0.000000 0.000000 0.000000 0.000001 0.000014
    34 0.002041 0.000741 -0.000051 -0.000027 0.000009 0.000035
    35 0.000615 0.000001 0.000000 0.000016 -0.000045 -0.000040
    36 0.000790 0.000000 0.000001 0.000000 0.000000 -0.000027
    37 0.000880 0.000000 0.000003 -0.000040 0.000009 0.000004
    38 0.000179 -0.003659 0.001665 0.000010 -0.000001 -0.000068
    39 0.000021 0.000001 0.000000 0.000000 -0.000007 -0.000018
    40 0.002779 0.000000 0.000000 0.000000 -0.000010 -0.000024
    41 0.000767 0.003452 0.001342 0.000002 -0.000003 -0.000043
    42 0.003892 0.000000 0.000000 0.000000 -0.000006 -0.000028
    43 0.000977 0.000001 0.000000 0.000000 -0.000003 -0.000032
    44 0.000725 -0.003451 -0.001342 -0.000011 -0.000002 -0.000033
    45 0.000774 0.000002 0.000000 0.000000 -0.000004 -0.000023
    46 0.002113 -0.000001 0.000000 0.000000 -0.000003 -0.000007
    47 0.000337 -0.000495 -0.003116 -0.000011 0.000001 -0.000021
    48 0.000623 0.000000 0.000000 0.000000 -0.000009 -0.000032
    49 0.001976 0.000001 0.000000 0.000000 -0.000004 -0.000016
    50 0.001305 -0.000449 -0.001887 0.000036 0.000003 -0.000020
    51 0.000667 0.000000 0.000000 0.000000 -0.000009 0.000011
    52 0.003836 0.000000 0.000000 0.000000 -0.000006 0.000013
    53 0.000000 0.000000 0.000000 0.000000 0.000000 0.000000
    54 0.000000 0.000000 0.000000 0.000000 0.000000 0.000000
    55 0.000000 0.000000 0.000000 0.000000 0.000000 0.000000
    56 0.000000 0.000000 0.000000 0.000000 0.000000 0.000000
    57 0.000000 0.000000 0.000000 0.000000 0.000000 0.000000
    58 0.000000 0.000000 0.000000 0.000000 0.000000 0.000000
    59 0.000000 0.000000 0.000000 0.000000 0.000000 0.000000
    60 0.000000 0.000000 0.000000 0.000000 0.000000 0.000000
    61 0.000000 0.000000 0.000000 0.000000 0.000000 0.000000
    62 0.000000 0.000000 0.000000 0.000000 0.000000 0.000000
    63 0.000000 0.000000 0.000000 0.000000 0.000000 0.000000
    64 0.000000 0.000000 0.000000 0.000000 0.000000 0.000000
  time 2
    0 -0.002349 0.000005 0.003241 0.000057 0.000000 -1.570796
    1 3.890452 -0.000003 -0.000003 -1.571532 -0.142836 -1.541487
    2 17.848175 0.000000 0.000000 0.000000 0.000000 0.244781
    3 16.525251 0.000000 0.000000 -0.300932 -0.379501 -1.046821
    4 6.879453 0.000000 0.000000 -0.007299 -0.002950 -0.584373
    5 -3.890452 0.000008 0.000007 -1.570739 -0.079073 -1.573074
    6 17.848169 0.000000 0.000000 0.000000 0.000000 0.226575
    7 16.525255 0.000000 0.000000 0.214657 0.300443 -1.126630
    8 6.879454 0.000000 0.000000 -0.081333 -0.002951 -0.584373
    9 0.000005 0.001276 -0.001341 0.000036 0.000016 0.000032
    10 0.002584 0.000000 0.000000 0.000000 0.000000 -0.000005
    11 0.002833 0.000000 0.000000 0.000000 0.000000 0.000009
    12 0.000963 0.000000 0.000000 0.000000 0.000000 0.000006
    13 0.002483 0.000000 0.000000 -0.000002 0.000000 0.000005
    14 0.003758 -0.000001 0.000000 0.000000 -0.000001 0.000023
    15 0.002034 0.000737 0.000101 0.000041 -0.000037 0.000054
    16 0.000614 0.000001 0.000000 -0.000028 0.000030 -0.000058
    17 0.000792 0.000000 0.000001 0.000000 0.000000 -0.000015
    18 0.000853 0.000000 -0.000031 0.000016 -0.000036 0.000035
    19 0.000211 -0.001777 -0.000531 -0.000007 0.000010 -0.000007
    20 0.000023 0.000001 0.000001 0.000000 0.000005 -0.000028
    21 0.002778 0.000000 0.000000 0.000000 0.000009 -0.000022
    22 0.000800 0.003802 -0.001742 -0.000005 0.000006 -0.000029
    23 0.003889 -0.000001 0.000000 0.000000 0.000002 -0.000019
    24 0.000973 0.000001 0.000000 0.000000 0.000002 -0.000023
    25 0.000759 -0.003802 0.001743 0.000008 0.000006 -0.000024
    26 0.000772 -0.000001 0.000000 0.000000 0.000003 -0.000003
    27 0.002115 -0.000002 0.000000 0.000000 0.000004 -0.000007
    28 0.000367 -0.001225 0.000394 0.000005 -0.000001 -0.000027
    29 0.000627 0.000000 0.000000 0.000000 0.000011 -0.000009
    30 0.001977 0.000000 0.000000 0.000000 0.000007 -0.000033
    31 0.001336 -0.001255 0.000905 -0.000056 -0.000010 -0.000062
    32 0.000666 0.000000 0.000001 0.000000 0.000004 0.000008
    33 0.003836 0.000000 0.000000 0.000000 0.000001 0.000014
    34 0.002041 0.000741 -0.000051 -0.000027 0.000009 0.000035
    35 0.000615 0.000001 0.000000 0.000016 -0.000045 -0.000040
    36 0.000790 0.000000 0.000001 0.000000 0.000000 -0.000027
    37 0.000880 0.000000 0.000003 -0.000040 0.000009 0.000004
    38 0.000179 -0.003659 0.001665 0.000010 -0.000001 -0.000068
    39 0.000021 0.000001 0.000000 0.000000 -0.000007 -0.000018
    40 0.002779 0.000000 0.000000 0.000000 -0.000010 -0.000024
    41 0.000767 0.003452 0.001342 0.000002 -0.000003 -0.000043
    42 0.003892 0.000000 0.000000 0.000000 -0.000006 -0.000028
    43 0.000977 0.000001 0.000000 0.000000 -0.000003 -0.000032
    44 0.000725 -0.003451 -0.001342 -0.000011 -0.000002 -0.000033
    45 0.000774 0.000002 0.000000 0.000000 -0.000004 -0.000023
    46 0.002113 -0.000001 0.000000 0.000000 -0.000003 -0.000007
    47 0.000337 -0.000495 -0.003116 -0.000011 0.000001 -0.000021
    48 0.000623 0.000000 0.000000 0.000000 -0.000009 -0.000032
    49 0.001976 0.000001 0.000000 0.000000 -0.000004 -0.000016
    50 0.001305 -0.000449 -0.001887 0.000036 0.000003 -0.000020
    51 0.000667 0.000000 0.000000 0.000000 -0.000009 0.000011
    52 0.003836 0.000000 0.000000 0.000000 -0.000006 0.000013
    53 0.000000 0.000000 0.000000 0.000000 0.000000 0.000000
    54 0.000000 0.000000 0.000000 0.000000 0.000000 0.000000
    55 0.000000 0.000000 0.000000 0.000000 0.000000 0.000000
    56 0.000000 0.000000 0.000000 0.000000 0.000000 0.000000
    57 0.000000 0.000000 0.000000 0.000000 0.000000 0.000000
    58 0.000000 0.000000 0.000000 0.000000 0.000000 0.000000
    59 0.000000 0.000000 0.000000 0.000000 0.000000 0.000000
    60 0.000000 0.000000 0.000000 0.000000 0.000000 0.000000
    61 0.000000 0.000000 0.000000 0.000000 0.000000 0.000000
    62 0.000000 0.000000 0.000000 0.000000 0.000000 0.000000
    63 0.000000 0.000000 0.000000 0.000000 0.000000 0.000000
    64 0.000000 0.000000 0.000000 0.000000 0.000000 0.000000
  time 3
    0 -0.002349 0.000005 0.003241 0.000057 0.000000 -1.570796
    1 3.890452 -0.000003 -0.000003 -1.571532 -0.142836 -1.541487
    2 17.848175 0.000000 0.000000 0.000000 0.000000 0.244781
    3 16.525251 0.000000 0.000000 -0.300932 -0.379501 -1.046821
    4 6.879453 0.000000 0.000000 -0.007299 -0.002950 -0.584373
    5 -3.890452 0.000008 0.000007 -1.570739 -0.079073 -1.573074
    6 17.848169 0.000000 0.000000 0.000000 0.000000 0.226575
    7 16.525255 0.000000 0.000000 0.214657 0.300443 -1.126630
    8 6.879454 0.000000 0.000000 -0.081333 -0.002951 -0.584373
    9 0.000005 0.001276 -0.001341 0.000036 0.000016 0.000032
    10 0.002584 0.000000 0.000000 0.000000 0.000000 -0.000005
    11 0.002833 0.000000 0.000000 0.000000 0.000000 0.000009
    12 0.000963 0.000000 0.000000 0.000000 0.000000 0.000006
    13 0.002483 0.000000 0.000000 -0.000002 0.000000 0.000005
    14 0.003758 -0.000001 0.000000 0.000000 -0.000001 0.000023
    15 0.002034 0.000737 0.000101 0.000041 -0.000037 0.000054
    16 0.000614 0.000001 0.000000 -0.000028 0.000030 -0.000058
    17 0.000792 0.000000 0.000001 0.000000 0.000000 -0.000015
    18 0.000853 0.000000 -0.000031 0.000016 -0.000036 0.000035
    19 0.000211 -0.001777 -0.000531 -0.000007 0.000010 -0.000007
    20 0.000023 0.000001 0.000001 0.000000 0.000005 -0.000028
    21 0.002778 0.000000 0.000000 0.000000 0.000009 -0.000022
    22 0.000800 0.003802 -0.001742 -0.000005 0.000006 -0.000029
    23 0.003889 -0.000001 0.000000 0.000000 0.000002 -0.000019
    24 0.000973 0.000001 0.000000 0.000000 0.000002 -0.000023
    25 0.000759 -0.003802 0.001743 0.000008 0.000006 -0.000024
    26 0.000772 -0.000001 0.000000 0.000000 0.000003 -0.000003
    27 0.002115 -0.000002 0.000000 0.000000 0.000004 -0.000007
    28 0.000367 -0.001225 0.000394 0.000005 -0.000001 -0.000027
    29 0.000627 0.000000 0.000000 0.000000 0.000011 -0.000009
    30 0.001977 0.000000 0.000000 0.000000 0.000007 -0.000033
    31 0.001336 -0.001255 0.000905 -0.000056 -0.000010 -0.000062
    32 0.000666 0.000000 0.000001 0.000000 0.000004 0.000008
    33 0.003836 0.000000 0.000000 0.000000 0.000001 0.000014
    34 0.002041 0.000741 -0.000051 -0.000027 0.000009 0.000035
    35 0.000615 0.000001 0.000000 0.000016 -0.000045 -0.000040
    36 0.000790 0.000000 0.000001 0.000000 0.000000 -0.000027
    37 0.000880 0.000000 0.000003 -0.000040 0.000009 0.000004
    38 0.000179 -0.003659 0.001665 0.000010 -0.000001 -0.000068
    39 0.000021 0.000001 0.000000 0.000000 -0.000007 -0.000018
    40 0.002779 0.000000 0.000000 0.000000 -0.000010 -0.000024
    41 0.000767 0.003452 0.001342 0.000002 -0.000003 -0.000043
    42 0.003892 0.000000 0.000000 0.000000 -0.000006 -0.000028
    43 0.000977 0.000001 0.000000 0.000000 -0.000003 -0.000032
    44 0.000725 -0.003451 -0.001342 -0.000011 -0.000002 -0.000033
    45 0.000774 0.000002 0.000000 0.000000 -0.000004 -0.000023
    46 0.002113 -0.000001 0.000000 0.000000 -0.000003 -0.000007
    47 0.000337 -0.000495 -0.003116 -0.000011 0.000001 -0.000021
    48 0.000623 0.000000 0.000000 0.000000 -0.000009 -0.000032
    49 0.001976 0.000001 0.000000 0.000000 -0.000004 -0.000016
    50 0.001305 -0.000449 -0.001887 0.000036 0.000003 -0.000020
    51 0.000667 0.000000 0.000000 0.000000 -0.000009 0.000011
    52 0.003836 0.000000 0.000000 0.000000 -0.000006 0.000013
    53 0.000000 0.000000 0.000000 0.000000 0.000000 0.000000
    54 0.000000 0.000000 0.000000 0.000000 0.000000 0.000000
    55 0.000000 0.000000 0.000000 0.000000 0.000000 0.000000
    56 0.000000 0.000000 0.000000 0.000000 0.000000 0.000000
    57 0.000000 0.000000 0.000000 0.000000 0.000000 0.000000
    58 0.000000 0.000000 0.000000 0.000000 0.000000 0.000000
    59 0.000000 0.000000 0.000000 0.000000 0.000000 0.000000
    60 0.000000 0.000000 0.000000 0.000000 0.000000 0.000000
    61 0.000000 0.000000 0.000000 0.000000 0.000000 0.000000
    62 0.000000 0.000000 0.000000 0.000000 0.000000 0.000000
    63 0.000000 0.000000 0.000000 0.000000 0.000000 0.000000
    64 0.000000 0.000000 0.000000 0.000000 0.000000 0.000000
  time 4
    0 -0.002349 0.000005 0.003241 0.000057 0.000000 -1.570796
    1 3.890452 -0.000003 -0.000003 -1.571532 -0.142836 -1.541487
    2 17.848175 0.000000 0.000000 0.000000 0.000000 0.244781
    3 16.525251 0.000000 0.000000 -0.300932 -0.379501 -1.046821
    4 6.879453 0.000000 0.000000 -0.007299 -0.002950 -0.584373
    5 -3.890452 0.000008 0.000007 -1.570739 -0.079073 -1.573074
    6 17.848169 0.000000 0.000000 0.000000 0.000000 0.226575
    7 16.525255 0.000000 0.000000 0.214657 0.300443 -1.126630
    8 6.879454 0.000000 0.000000 -0.081333 -0.002951 -0.584373
    9 0.000005 0.001276 -0.001341 0.000036 0.000016 0.000032
    10 0.002584 0.000000 0.000000 0.000000 0.000000 -0.000005
    11 0.002833 0.000000 0.000000 0.000000 0.000000 0.000009
    12 0.000963 0.000000 0.000000 0.000000 0.000000 0.000006
    13 0.002483 0.000000 0.000000 -0.000002 0.000000 0.000005
    14 0.003758 -0.000001 0.000000 0.000000 -0.000001 0.000023
    15 0.002034 0.000737 0.000101 0.000041 -0.000037 0.000054
    16 0.000614 0.000001 0.000000 -0.000028 0.000030 -0.000058
    17 0.000792 0.000000 0.000001 0.000000 0.000000 -0.000015
    18 0.000853 0.000000 -0.000031 0.000016 -0.000036 0.000035
    19 0.000211 -0.001777 -0.000531 -0.000007 0.000010 -0.000007
    20 0.000023 0.000001 0.000001 0.000000 0.000005 -0.000028
    21 0.002778 0.000000 0.000000 0.000000 0.000009 -0.000022
    22 0.000800 0.003802 -0.001742 -0.000005 0.000006 -0.000029
    23 0.003889 -0.000001 0.000000 0.000000 0.000002 -0.000019
    24 0.000973 0.000001 0.000000 0.000000 0.000002 -0.000023
    25 0.000759 -0.003802 0.001743 0.000008 0.000006 -0.000024
    26 0.000772 -0.000001 0.000000 0.000000 0.000003 -0.000003
    27 0.002115 -0.000002 0.000000 0.000000 0.000004 -0.000007
    28 0.000367 -0.001225 0.000394 0.000005 -0.000001 -0.000027
    29 0.000627 0.000000 0.000000 0.000000 0.000011 -0.000009
    30 0.001977 0.000000 0.000000 0.000000 0.000007 -0.000033
    31 0.001336 -0.001255 0.000905 -0.000056 -0.000010 -0.000062
    32 0.000666 0.000000 0.000001 0.000000 0.000004 0.000008
    33 0.003836 0.000000 0.000000 0.000000 0.000001 0.000014
    34 0.002041 0.000741 -0.000051 -0.000027 0.000009 0.000035
    35 0.000615 0.000001 0.000000 0.000016 -0.000045 -0.000040
    36 0.000790 0.000000 0.000001 0.000000 0.000000 -0.000027
    37 0.000880 0.000000 0.000003 -0.000040 0.000009 0.000004
    38 0.000179 -0.003659 0.001665 0.000010 -0.000001 -0.000068
    39 0.000021 0.000001 0.000000 0.000000 -0.000007 -0.000018
    40 0.002779 0.000000 0.000000 0.000000 -0.000010 -0.000024
    41 0.000767 0.003452 0.001342 0.000002 -0.000003 -0.000043
    42 0.003892 0.000000 0.000000 0.000000 -0.000006 -0.000028
    43 0.000977 0.000001 0.000000 0.000000 -0.000003 -0.000032
    44 0.000725 -0.003451 -0.001342 -0.000011 -0.000002 -0.000033
    45 0.000774 0.000002 0.000000 0.000000 -0.000004 -0.000023
    46 0.002113 -0.000001 0.000000 0.000000 -0.000003 -0.000007
    47 0.000337 -0.000495 -0.003116 -0.000011 0.000001 -0.000021
    48 0.000623 0.000000 0.000000 0.000000 -0.000009 -0.000032
    49 0.001976 0.000001 0.000000 0.000000 -0.000004 -0.000016
    50 0.001305 -0.000449 -0.001887 0.000036 0.000003 -0.000020
    51 0.000667 0.000000 0.000000 0.000000 -0.000009 0.000011
    52 0.003836 0.000000 0.000000 0.000000 -0.000006 0.000013
    53 0.000000 0.000000 0.000000 0.000000 0.000000 0.000000
    54 0.000000 0.000000 0.000000 0.000000 0.000000 0.000000
    55 0.000000 0.000000 0.000000 0.000000 0.000000 0.000000
    56 0.000000 0.000000 0.000000 0.000000 0.000000 0.000000
    57 0.000000 0.000000 0.000000 0.000000 0.000000 0.000000
    58 0.000000 0.000000 0.000000 0.000000 0.000000 0.000000
    59 0.000000 0.000000 0.000000 0.000000 0.000000 0.000000
    60 0.000000 0.000000 0.000000 0.000000 0.000000 0.000000
    61 0.000000 0.000000 0.000000 0.000000 0.000000 0.000000
    62 0.000000 0.000000 0.000000 0.000000 0.000000 0.000000
    63 0.000000 0.000000 0.000000 0.000000 0.000000 0.000000
    64 0.000000 0.000000 0.000000 0.000000 0.000000 0.000000
  time 5
    0 -0.002349 0.000005 0.003241 0.000057 0.000000 -1.570796
    1 3.890452 -0.000003 -0.000003 -1.571532 -0.142836 -1.541487
    2 17.848175 0.000000 0.000000 0.000000 0.000000 0.244781
    3 16.525251 0.000000 0.000000 -0.300932 -0.379501 -1.046821
    4 6.879453 0.000000 0.000000 -0.007299 -0.002950 -0.584373
    5 -3.890452 0.000008 0.000007 -1.570739 -0.079073 -1.573074
    6 17.848169 0.000000 0.000000 0.000000 0.000000 0.226575
    7 16.525255 0.000000 0.000000 0.214657 0.300443 -1.126630
    8 6.879454 0.000000 0.000000 -0.081333 -0.002951 -0.584373
    9 0.000005 0.001276 -0.001341 0.000036 0.000016 0.000032
    10 0.002584 0.000000 0.000000 0.000000 0.000000 -0.000005
    11 0.002833 0.000000 0.000000 0.000000 0.000000 0.000009
    12 0.000963 0.000000 0.000000 0.000000 0.000000 0.000006
    13 0.002483 0.000000 0.000000 -0.000002 0.000000 0.000005
    14 0.003758 -0.000001 0.000000 0.000000 -0.000001 0.000023
    15 0.002034 0.000737 0.000101 0.000041 -0.000037 0.000054
    16 0.000614 0.000001 0.000000 -0.000028 0.000030 -0.000058
    17 0.000792 0.000000 0.000001 0.000000 0.000000 -0.000015
    18 0.000853 0.000000 -0.000031 0.000016 -0.000036 0.000035
    19 0.000211 -0.001777 -0.000531 -0.000007 0.000010 -0.000007
    20 0.000023 0.000001 0.000001 0.000000 0.000005 -0.000028
    21 0.002778 0.000000 0.000000 0.000000 0.000009 -0.000022
    22 0.000800 0.003802 -0.001742 -0.000005 0.000006 -0.000029
    23 0.003889 -0.000001 0.000000 0.000000 0.000002 -0.000019
    24 0.000973 0.000001 0.000000 0.000000 0.000002 -0.000023
    25 0.000759 -0.003802 0.001743 0.000008 0.000006 -0.000024
    26 0.000772 -0.000001 0.000000 0.000000 0.000003 -0.000003
    27 0.002115 -0.000002 0.000000 0.000000 0.000004 -0.000007
    28 0.000367 -0.001225 0.000394 0.000005 -0.000001 -0.000027
    29 0.000627 0.000000 0.000000 0.000000 0.000011 -0.000009
    30 0.001977 0.000000 0.000000 0.000000 0.000007 -0.000033
    31 0.001336 -0.001255 0.000905 -0.000056 -0.000010 -0.000062
    32 0.000666 0.000000 0.000001 0.000000 0.000004 0.000008
    33 0.003836 0.000000 0.000000 0.000000 0.000001 0.000014
    34 0.002041 0.000741 -0.000051 -0.000027 0.000009 0.000035
    35 0.000615 0.000001 0.000000 0.000016 -0.000045 -0.000040
    36 0.000790 0.000000 0.000001 0.000000 0.000000 -0.000027
    37 0.000880 0.000000 0.000003 -0.000040 0.000009 0.000004
    38 0.000179 -0.003659 0.001665 0.000010 -0.000001 -0.000068
    39 0.000021 0.000001 0.000000 0.000000 -0.000007 -0.000018
    40 0.002779 0.000000 0.000000 0.000000 -0.000010 -0.000024
    41 0.000767 0.003452 0.001342 0.000002 -0.000003 -0.000043
    42 0.003892 0.000000 0.000000 0.000000 -0.000006 -0.000028
    43 0.000977 0.000001 0.000000 0.000000 -0.000003 -0.000032
    44 0.000725 -0.003451 -0.001342 -0.000011 -0.000002 -0.000033
    45 0.000774 0.000002 0.000000 0.000000 -0.000004 -0.000023
    46 0.002113 -0.000001 0.000000 0.000000 -0.000003 -0.000007
    47 0.000337 -0.000495 -0.003116 -0.000011 0.000001 -0.000021
    48 0.000623 0.000000 0.000000 0.000000 -0.000009 -0.000032
    49 0.001976 0.000001 0.000000 0.000000 -0.000004 -0.000016
    50 0.001305 -0.000449 -0.001887 0.000036 0.000003 -0.000020
    51 0.000667 0.000000 0.000000 0.000000 -0.000009 0.000011
    52 0.003836 0.000000 0.000000 0.000000 -0.000006 0.000013
    53 0.000000 0.000000 0.000000 0.000000 0.000000 0.000000
    54 0.000000 0.000000 0.000000 0.000000 0.000000 0.000000
    55 0.000000 0.000000 0.000000 0.000000 0.000000 0.000000
    56 0.000000 0.000000 0.000000 0.000000 0.000000 0.000000
    57 0.000000 0.000000 0.000000 0.000000 0.000000 0.000000
    58 0.000000 0.000000 0.000000 0.000000 0.000000 0.000000
    59 0.000000 0.000000 0.000000 0.000000 0.000000 0.000000
    60 0.000000 0.000000 0.000000 0.000000 0.000000 0.000000
    61 0.000000 0.000000 0.000000 0.000000 0.000000 0.000000
    62 0.000000 0.000000 0.000000 0.000000 0.000000 0.000000
    63 0.000000 0.000000 0.000000 0.000000 0.000000 0.000000
    64 0.000000 0.000000 0.000000 0.000000 0.000000 0.000000
end
