version 1
nodes
0 "ValveBiped.ragdoll_Mesh01" -1
1 "ValveBiped.Bip01" -1
2 "ValveBiped.Bip01_Pelvis" 1
3 "ValveBiped.Bip01_L_Thigh" 2
4 "ValveBiped.Bip01_L_Calf" 3
5 "ValveBiped.Bip01_L_Foot" 4
6 "ValveBiped.Bip01_L_Toe0" 5
7 "ValveBiped.Bip01_R_Thigh" 2
8 "ValveBiped.Bip01_R_Calf" 7
9 "ValveBiped.Bip01_R_Foot" 8
10 "ValveBiped.Bip01_R_Toe0" 9
11 "ValveBiped.Bip01_Guts01" 2
12 "ValveBiped.Bip01_Guts02" 11
13 "ValveBiped.Bip01_Spine" 1
14 "ValveBiped.Bip01_Spine1" 13
15 "ValveBiped.Bip01_Spine2" 14
16 "ValveBiped.Bip01_Spine4" 15
17 "ValveBiped.Bip01_Neck1" 16
18 "ValveBiped.Bip01_Head1" 17
19 "ValveBiped.Bip01_L_Clavicle" 16
20 "ValveBiped.Bip01_L_UpperArm" 19
21 "ValveBiped.Bip01_L_Forearm" 20
22 "ValveBiped.Bip01_L_Hand" 21
23 "ValveBiped.Bip01_L_Finger4" 22
24 "ValveBiped.Bip01_L_Finger41" 23
25 "ValveBiped.Bip01_L_Finger42" 24
26 "ValveBiped.Bip01_L_Finger3" 22
27 "ValveBiped.Bip01_L_Finger31" 26
28 "ValveBiped.Bip01_L_Finger32" 27
29 "ValveBiped.Bip01_L_Finger2" 22
30 "ValveBiped.Bip01_L_Finger21" 29
31 "ValveBiped.Bip01_L_Finger22" 30
32 "ValveBiped.Bip01_L_Finger1" 22
33 "ValveBiped.Bip01_L_Finger11" 32
34 "ValveBiped.Bip01_L_Finger12" 33
35 "ValveBiped.Bip01_L_Finger0" 22
36 "ValveBiped.Bip01_L_Finger01" 35
37 "ValveBiped.Bip01_L_Finger02" 36
38 "ValveBiped.Bip01_R_Clavicle" 16
39 "ValveBiped.Bip01_R_UpperArm" 38
40 "ValveBiped.Bip01_R_Forearm" 39
41 "ValveBiped.Bip01_R_Hand" 40
42 "ValveBiped.Bip01_R_Finger4" 41
43 "ValveBiped.Bip01_R_Finger41" 42
44 "ValveBiped.Bip01_R_Finger42" 43
45 "ValveBiped.Bip01_R_Finger3" 41
46 "ValveBiped.Bip01_R_Finger31" 45
47 "ValveBiped.Bip01_R_Finger32" 46
48 "ValveBiped.Bip01_R_Finger2" 41
49 "ValveBiped.Bip01_R_Finger21" 48
50 "ValveBiped.Bip01_R_Finger22" 49
51 "ValveBiped.Bip01_R_Finger1" 41
52 "ValveBiped.Bip01_R_Finger11" 51
53 "ValveBiped.Bip01_R_Finger12" 52
54 "ValveBiped.Bip01_R_Finger0" 41
55 "ValveBiped.Bip01_R_Finger01" 54
56 "ValveBiped.Bip01_R_Finger02" 55
57 "ValveBiped.HC_Body_Bone" 16
58 "ValveBiped.HC_Head_Bone" 57
59 "ValveBiped.HC_Teeth_Bone" 58
60 "ValveBiped.HC_FangR_Bone1" 58
61 "ValveBiped.HC_FangR_Bone2" 60
62 "ValveBiped.HC_FangL_Bone1" 58
63 "ValveBiped.HC_FangL_Bone2" 62
64 "ValveBiped.HC_SideL_Bone" 57
65 "ValveBiped.HC_SideR_Bone" 57
66 "ValveBiped.HC_legR_Bone" 57
67 "ValveBiped.HC_legR_Bone1" 66
68 "ValveBiped.HC_legL_Bone" 57
69 "ValveBiped.HC_legL_Bone1" 68
70 "ValveBiped.HC_ArmL_Bone1" 57
71 "ValveBiped.HC_ArmL_Bone2" 70
72 "ValveBiped.HC_ArmR_Bone1" 57
73 "ValveBiped.HC_ArmR_Bone2" 72
74 "ValveBiped.LeftFootParent" -1
75 "ValveBiped.LeftFoot" 74
76 "ValveBiped.LfootUpVector" 75
77 "ValveBiped.LfootUpVector2" 75
78 "ValveBiped.spacer" 75
79 "ValveBiped.heel" 78
80 "ValveBiped.toe" 79
81 "ValveBiped.mid" 80
82 "ValveBiped.ankle" 81
83 "ValveBiped.spacer3" 81
84 "ValveBiped.LeftToe" 83
85 "ValveBiped.LeftRoll" 78
86 "ValveBiped.LeftToeTarget" 75
87 "ValveBiped.LegRollL_Point_ClsCtr" 75
88 "ValveBiped.RightFootParent" -1
89 "ValveBiped.RightFoot" 88
90 "ValveBiped.RightToeTarget" 89
91 "ValveBiped.spacer1" 89
92 "ValveBiped.heel1" 91
93 "ValveBiped.toe1" 92
94 "ValveBiped.mid1" 93
95 "ValveBiped.ankle1" 94
96 "ValveBiped.spacer4" 94
97 "ValveBiped.RightToe" 96
98 "ValveBiped.RightRoll" 91
99 "ValveBiped.RfootUpVector2" 89
100 "ValveBiped.RfootUpVector1" 89
101 "ValveBiped.LegRollR_Point_ClsCtr" 89
102 "ValveBiped.UpperBodyParent" -1
103 "ValveBiped.UpperBody" 102
104 "ValveBiped.SpineControlParent" 103
105 "ValveBiped.SpineControlConstrainer" -1
106 "ValveBiped.SpineControlConstrainer1" -1
107 "ValveBiped.SpineControlConstrainer2" -1
108 "ValveBiped.SpineControlConstrainer3" -1
109 "ValveBiped.NeckControlConstrainer" -1
110 "ValveBiped.HeadControlConstrainer" -1
111 "ValveBiped.ClavicleControlParentL" -1
112 "ValveBiped.ClavicleControlParentR" -1
113 "ValveBiped.HandControlPosParentL" -1
114 "ValveBiped.ArmRollL_Point_ClsCtr" -1
115 "ValveBiped.lArmUpVParent" -1
116 "ValveBiped.lArmUpV" 115
117 "ValveBiped.HandControlRotGrandmaL" -1
118 "ValveBiped.HandControlRotParentL" 117
119 "ValveBiped.HandControlRotL" 118
120 "ValveBiped.HandControlRotL1" 119
121 "ValveBiped.HandControlRotConstrainerL" 120
122 "ValveBiped.HandControlPosParentR" -1
123 "ValveBiped.ArmRollR_Point_ClsCtr" -1
124 "ValveBiped.lArmUpVParent1" -1
125 "ValveBiped.rArmUpV" 124
126 "ValveBiped.HandControlRotGrandmaR" -1
127 "ValveBiped.HandControlRotParentR" 126
128 "ValveBiped.HandControlRotR" 127
129 "ValveBiped.HandControlRotR1" 128
130 "ValveBiped.HandControlRotConstrainerR" 129
131 "ValveBiped.LegRollControlParent_L" -1
132 "ValveBiped.LUpVParent" -1
133 "ValveBiped.LeftLeg_UpV" 132
134 "ValveBiped.LegRollControlParent_R" -1
135 "ValveBiped.RUpVParent" -1
136 "ValveBiped.RightLeg_UpV" 135
137 "ValveBiped.HC_ArmL_Control_Parent" -1
138 "ValveBiped.HC_ArmL_Control" 137
139 "ValveBiped.HC_ArmR_Control_Parent" -1
140 "ValveBiped.HC_ArmR_Control" 139
141 "ValveBiped.HC_FangControls_Parent" -1
142 "ValveBiped.HC_FangR_Control" 141
143 "ValveBiped.HC_FangL_Control" 141
144 "ValveBiped.HC_LegL_Control_Parent" -1
145 "ValveBiped.HC_LegL_Control" 144
146 "ValveBiped.HC_LegR_Control_Parent" -1
147 "ValveBiped.HC_LegR_Control" 146
148 "ValveBiped.UpV_HC_Parent" -1
149 "ValveBiped.UpV_HCArmR" 148
150 "ValveBiped.UpV_HCArmL" 148
151 "ValveBiped.UpV_HCLegL" 148
152 "ValveBiped.UpV_HCLegR" 148
end
skeleton
time 0
0 0.000000 0.000000 0.000000 1.570796 0.000000 0.000000
1 -0.000005 1.515989 38.353996 1.570796 0.000000 0.000000
2 0.000000 0.000000 0.000000 0.000000 0.000000 0.000000
3 3.890452 -0.000006 -0.000003 -1.570796 -0.054697 -1.452003
4 17.593166 0.000000 0.000000 0.000000 0.000000 0.153888
5 17.699579 0.000000 0.000000 -9.547327 -3.163633 8.340875
6 6.879455 0.000000 0.000000 6.275886 -0.002951 -0.584373
7 -3.890452 0.000005 0.000007 -1.570796 -0.054697 -1.689592
8 17.593161 0.000000 0.000000 0.000000 0.000000 0.153887
9 17.699577 0.000000 0.000000 0.133245 -0.022043 -1.083902
10 6.879455 0.000000 0.000000 6.201852 -0.002950 -0.584373
11 -0.000001 -3.955228 0.500835 1.570795 0.085596 1.570795
12 -4.800703 0.326237 3.435442 0.000000 0.000000 0.000000
13 0.000005 3.345123 -2.981987 1.570796 0.086293 1.570796
14 4.126702 0.000000 0.000000 0.000000 0.000000 -0.029242
15 3.613469 0.000000 0.000000 0.000000 0.000000 0.100355
16 9.183785 0.000000 0.000000 0.000000 0.000000 0.194628
17 3.166101 0.000000 0.000000 3.141592 -0.000000 -0.970156
18 1.734696 0.000000 0.000000 0.000000 0.000000 -0.422444
19 1.673224 1.247215 2.595494 -1.544427 -1.855078 -0.199183
20 6.028143 0.000000 0.000000 -1.580047 -0.013594 -0.589175
21 11.692554 0.000000 0.000000 0.000000 0.000000 -0.767230
22 12.075548 0.000000 -0.000032 1.497010 0.461745 -0.134837
23 4.433983 0.244588 -0.986944 -0.301304 0.463666 -0.207191
24 1.137610 0.000000 0.000000 0.000000 0.000955 -0.010431
25 0.886961 0.000000 0.000000 0.000000 0.000953 -0.010426
26 5.564228 -0.209470 -0.526836 -0.143137 -0.019710 -0.640843
27 5.508579 0.000000 0.000000 0.000000 -0.213723 -1.223992
28 3.853055 0.000000 0.000000 0.000000 -0.075108 -1.378996
29 5.744637 0.209470 0.526836 0.085296 -0.117962 -0.637785
30 6.052550 0.000000 0.000000 0.000000 -0.280945 -1.217796
31 3.325016 0.000000 0.000000 0.000000 -0.096001 -1.230572
32 5.613001 0.274427 1.782152 0.378929 -0.371446 -0.586631
33 5.643136 0.000000 0.000000 0.000000 -0.192563 -1.225564
34 3.079116 0.000000 0.000000 0.000000 -0.064808 -1.231461
35 2.129219 0.127022 2.051919 -1.789266 -0.558228 0.261433
36 1.285499 0.000000 0.000000 0.000000 0.002168 0.017321
37 1.034190 0.000000 0.000000 0.000000 0.000000 -0.000000
38 1.673232 1.247220 -2.595441 1.472588 1.855075 -0.199192
39 6.028143 0.000000 0.000000 1.639837 0.053459 -0.587171
40 11.692554 0.000000 0.000000 0.000000 0.000000 -0.767230
41 12.075577 0.000000 0.000000 -1.569752 0.195545 0.020654
42 4.304798 -0.291516 0.933646 0.344104 -0.284315 -0.322580
43 1.137611 0.000000 0.000000 0.000000 0.003041 -0.010019
44 0.940173 0.000000 0.000000 0.000000 0.003038 -0.010023
45 5.943745 -0.452098 0.398078 0.147217 0.287840 -0.578718
46 5.043452 0.000000 0.000000 0.000000 0.530358 -1.175525
47 4.081746 0.000000 0.000000 0.000000 0.206790 -1.461372
48 6.213900 0.452098 -0.398078 -0.094865 0.384803 -0.547821
49 5.536297 0.000000 0.000000 0.000000 0.618516 -1.150872
50 3.312720 0.000000 0.000000 0.000000 0.238651 -1.221913
51 5.899517 1.061163 -1.488764 -0.397780 0.602637 -0.377010
52 5.285242 0.000000 0.000000 0.000000 0.597562 -1.157329
53 3.098846 0.000000 0.000000 0.000000 0.228027 -1.222829
54 2.030274 1.030587 -1.488936 1.840795 0.441865 0.519336
55 1.285499 0.000000 0.000000 0.000000 -0.009107 0.014889
56 1.034191 0.000000 0.000000 0.000000 -0.000002 -0.000000
57 8.725683 1.927572 2.378726 2.772872 -0.062665 1.825826
58 5.900371 0.453117 -0.419221 0.000000 0.000000 0.000000
59 4.491669 -3.704119 -0.656737 0.000000 0.000000 0.000000
60 3.494043 -3.701431 2.726804 -1.865109 -0.069685 -1.286137
61 3.035790 0.000000 0.000000 0.000000 0.000000 1.287875
62 2.913227 -2.842412 -3.643560 2.832506 0.098784 -0.804289
63 3.003383 0.000000 0.000000 0.000000 0.000000 1.446035
64 0.974468 -4.591978 -5.917993 0.000000 0.000000 0.000000
65 0.485475 -5.209711 6.024809 0.000000 0.000000 0.000000
66 -5.971901 -0.154179 4.397163 2.555222 -0.215817 -1.740804
67 7.416581 0.000000 0.000000 0.000000 0.000000 -1.317934
68 -6.092069 -0.333712 -6.073963 0.771511 -0.319048 -1.493515
69 6.753443 0.000000 0.000000 0.000000 0.000000 1.163803
70 4.450670 -2.110789 -5.505712 2.792514 0.161537 -0.338083
71 7.220927 0.000000 0.000000 0.000000 0.000000 1.449111
72 4.901043 -2.254870 5.405972 -2.568590 -0.171263 -0.487138
73 6.908709 0.000000 0.000000 0.000000 0.000000 1.592075
74 8.059704 2.306939 3.422487 1.570796 0.000000 0.000000
75 0.000000 0.000000 0.000000 0.000000 0.052360 0.000000
76 0.032300 -4.377939 -4.331139 0.000000 0.000000 0.000000
77 -0.002340 -4.618856 4.848106 0.000000 0.000937 -0.001514
78 0.000000 0.000000 0.000000 0.000000 0.000000 0.000000
79 -0.014019 -4.136678 -0.422641 0.000000 0.000000 0.000000
80 0.014023 0.341387 9.682305 0.000000 0.000937 -0.001514
81 0.003296 0.000007 -3.521831 0.000000 0.000000 0.000000
82 -0.000371 3.795279 -5.737835 0.000000 0.000000 0.000000
83 0.000000 0.000000 0.000000 0.000000 0.000000 0.000000
84 0.000000 0.000000 0.000000 0.000000 0.000000 0.000000
85 0.000000 0.000000 0.000000 0.000000 0.000000 0.000000
86 0.000003 -3.795290 9.259665 0.000000 0.000937 -0.001514
87 8.000000 0.000000 0.000000 0.000000 -0.052360 0.000000
88 -8.059813 2.306914 3.422515 1.570796 0.000000 0.000000
89 0.000000 0.000000 0.000000 0.000000 -0.052359 0.000000
90 0.000002 -3.795289 9.259665 -0.001317 -0.008193 0.060728
91 0.000000 0.000000 0.000000 0.000000 0.000000 0.000000
92 0.014020 -4.136678 -0.422641 0.000000 0.000000 0.000000
93 -0.014018 0.341389 9.682306 0.000000 0.000937 -0.001514
94 0.003298 0.000007 -3.521831 0.000000 0.000000 0.000000
95 -0.000371 3.795278 -5.737836 0.000000 0.000000 0.000000
96 0.000000 0.000000 0.000000 0.000000 0.000000 0.000000
97 0.000000 0.000000 0.000000 0.000000 0.000000 0.000000
98 0.000000 0.000000 0.000000 0.000000 0.000000 0.000000
99 -0.062978 -4.612900 4.868225 0.000000 0.000937 -0.001514
100 0.032300 -4.377939 -4.331139 0.000000 0.000000 0.000000
101 -8.000000 0.000000 0.000000 0.000000 0.052359 0.000000
102 0.000156 0.385903 39.987263 1.570796 0.000000 0.000000
103 -0.000161 -1.633265 -1.130086 0.000000 0.000000 0.000000
104 0.000005 3.345123 -2.981987 1.570796 0.083193 1.570796
105 -0.000000 4.497976 41.699120 1.570796 -1.484503 1.570797
106 -0.000000 4.853640 45.810467 1.570796 -1.455261 1.570797
107 -0.000000 5.270194 49.399845 1.570794 -1.555616 1.570799
108 -0.000001 5.409597 58.582573 -1.570796 -1.391348 -1.570797
109 -0.000001 4.844491 61.697834 -1.570797 -0.780088 1.570796
110 -0.000001 6.077603 62.917919 -1.570797 -1.202532 1.570796
111 2.595493 3.883763 60.006317 1.576606 0.284225 -0.005766
112 -2.595442 3.883756 60.006325 1.493158 0.284222 -3.135824
113 8.381687 3.850399 58.315945 1.570796 0.000000 0.000000
114 21.394659 -4.817726 51.780983 1.570796 0.000000 0.000000
115 8.381687 13.850399 58.315945 1.570796 0.000000 0.000000
116 0.000000 0.000000 0.000000 0.000000 0.000000 0.000000
117 15.889183 3.685913 49.353451 -0.699058 0.575528 -0.996233
118 12.075548 0.000000 -0.000032 1.497010 0.461745 -0.134837
119 0.000000 0.000000 0.000000 0.000000 0.000000 0.000000
120 0.000000 0.000000 0.000000 0.000000 0.000000 0.000000
121 0.000000 0.000000 0.000000 0.000000 0.000000 0.000000
122 -8.381639 3.850377 58.315971 1.570796 0.000000 0.000000
123 -21.394630 -4.817781 51.781040 1.570796 0.000000 0.000000
124 -8.381639 13.850377 58.315971 1.570796 0.000000 0.000000
125 0.000000 0.000000 0.000000 0.000000 0.000000 0.000000
126 -15.889151 3.685874 49.353489 -2.442535 0.575526 -2.145359
127 12.075577 0.000000 0.000000 -1.569752 0.195545 0.020654
128 0.000000 0.000000 0.000000 0.000000 0.000000 0.000000
129 0.000000 0.000000 0.000000 0.000000 0.000000 0.000000
130 0.000000 0.000000 0.000000 0.000000 0.000000 0.000000
131 3.890447 1.515992 38.353989 1.570796 0.000000 0.000000
132 3.890447 11.515992 38.353989 1.570796 0.000000 0.000000
133 0.000000 0.000000 0.000000 0.000000 0.000000 0.000000
134 -3.890457 1.515982 38.354000 1.570796 0.000000 0.000000
135 -3.890457 11.515982 38.354000 1.570796 0.000000 2.212374
136 0.000000 0.000000 0.000000 0.000000 0.000000 0.000000
137 2.540056 -1.796866 51.101902 1.570796 0.000000 0.000000
138 0.000000 0.000000 0.000000 0.000000 0.000000 0.000000
139 -3.398102 -1.603047 54.006477 1.570796 0.000000 0.000000
140 0.000000 0.000000 0.000000 0.000000 0.000000 0.000000
141 3.301501 -3.468923 64.606239 1.231128 0.433567 -1.501732
142 4.072483 -7.254698 1.512106 0.975643 1.197028 1.398431
143 4.103490 -6.173129 -3.496959 0.975643 1.197028 1.398431
144 0.303467 7.234424 61.499065 1.570796 0.000000 0.000000
145 0.000000 0.000000 0.000000 0.000000 0.000000 0.000000
146 -4.928710 8.276912 61.619595 1.570796 0.000000 0.000000
147 0.000000 0.000000 0.000000 0.000000 0.000000 0.000000
148 2.378726 1.955562 66.824097 1.570796 0.000000 0.000000
149 -7.402614 -7.251678 9.205541 0.000000 0.000000 0.000000
150 5.296958 -10.538761 7.085966 0.000000 0.000000 0.000000
151 0.912171 -4.600590 -8.380405 0.000000 0.000000 0.000000
152 -8.646750 -1.407707 -8.005547 0.000000 0.000000 0.000000
time 1
1 -0.000005 1.515989 38.353996 1.570796 0.000000 0.000000
2 0.000000 0.000000 0.000000 0.000000 0.000000 0.000000
3 3.890452 -0.000006 -0.000003 -1.570796 -0.054697 -1.452003
4 17.593166 0.000000 0.000000 0.000000 0.000000 0.153888
5 17.699579 0.000000 0.000000 -9.547327 -3.163633 8.340875
6 6.879455 0.000000 0.000000 6.275886 -0.002951 -0.584373
7 -3.890452 0.000005 0.000007 -1.570796 -0.054697 -1.689592
8 17.593161 0.000000 0.000000 0.000000 0.000000 0.153887
9 17.699577 0.000000 0.000000 0.133245 -0.022043 -1.083902
10 6.879455 0.000000 0.000000 6.201852 -0.002950 -0.584373
11 -0.000001 -3.955228 0.500835 1.570795 0.085596 1.570795
12 -4.800703 0.326237 3.435442 0.000000 0.000000 0.000000
13 0.000005 3.345123 -2.981987 1.570796 0.086293 1.570796
14 4.126702 0.000000 0.000000 0.000000 0.000000 -0.029242
15 3.613469 0.000000 0.000000 0.000000 0.000000 0.100355
16 9.183785 0.000000 0.000000 0.000000 0.000000 0.194628
17 3.166101 0.000000 0.000000 3.141592 -0.000000 -0.970156
18 1.734696 0.000000 0.000000 0.000000 0.000000 -0.422444
19 1.673224 1.247215 2.595494 -1.544427 -1.855078 -0.199183
20 6.028143 0.000000 0.000000 -1.580047 -0.013594 -0.589175
21 11.692554 0.000000 0.000000 0.000000 0.000000 -0.767230
22 12.075548 0.000000 -0.000032 1.497010 0.461745 -0.134837
23 4.433983 0.244588 -0.986944 -0.301304 0.463666 -0.207191
24 1.137610 0.000000 0.000000 0.000000 0.000955 -0.010431
25 0.886961 0.000000 0.000000 0.000000 0.000953 -0.010426
26 5.564228 -0.209470 -0.526836 -0.143137 -0.019710 -0.640843
27 5.508579 0.000000 0.000000 0.000000 -0.213723 -1.223992
28 3.853055 0.000000 0.000000 0.000000 -0.075108 -1.378996
29 5.744637 0.209470 0.526836 0.085296 -0.117962 -0.637785
30 6.052550 0.000000 0.000000 0.000000 -0.280945 -1.217796
31 3.325016 0.000000 0.000000 0.000000 -0.096001 -1.230572
32 5.613001 0.274427 1.782152 0.378929 -0.371446 -0.586631
33 5.643136 0.000000 0.000000 0.000000 -0.192563 -1.225564
34 3.079116 0.000000 0.000000 0.000000 -0.064808 -1.231461
35 2.129219 0.127022 2.051919 -1.789266 -0.558228 0.261433
36 1.285499 0.000000 0.000000 0.000000 0.002168 0.017321
37 1.034190 0.000000 0.000000 0.000000 0.000000 -0.000000
38 1.673232 1.247220 -2.595441 1.472588 1.855075 -0.199192
39 6.028143 0.000000 0.000000 1.639837 0.053459 -0.587171
40 11.692554 0.000000 0.000000 0.000000 0.000000 -0.767230
41 12.075577 0.000000 0.000000 -1.569752 0.195545 0.020654
42 4.304798 -0.291516 0.933646 0.344104 -0.284315 -0.322580
43 1.137611 0.000000 0.000000 0.000000 0.003041 -0.010019
44 0.940173 0.000000 0.000000 0.000000 0.003038 -0.010023
45 5.943745 -0.452098 0.398078 0.147217 0.287840 -0.578718
46 5.043452 0.000000 0.000000 0.000000 0.530358 -1.175525
47 4.081746 0.000000 0.000000 0.000000 0.206790 -1.461372
48 6.213900 0.452098 -0.398078 -0.094865 0.384803 -0.547821
49 5.536297 0.000000 0.000000 0.000000 0.618516 -1.150872
50 3.312720 0.000000 0.000000 0.000000 0.238651 -1.221913
51 5.899517 1.061163 -1.488764 -0.397780 0.602637 -0.377010
52 5.285242 0.000000 0.000000 0.000000 0.597562 -1.157329
53 3.098846 0.000000 0.000000 0.000000 0.228027 -1.222829
54 2.030274 1.030587 -1.488936 1.840795 0.441865 0.519336
55 1.285499 0.000000 0.000000 0.000000 -0.009107 0.014889
56 1.034191 0.000000 0.000000 0.000000 -0.000002 -0.000000
57 8.725683 1.927572 2.378726 2.772872 -0.062665 1.825826
58 5.900371 0.453117 -0.419221 0.000000 0.000000 0.000000
59 4.491669 -3.704119 -0.656737 0.000000 0.000000 0.000000
60 3.494043 -3.701431 2.726804 -1.865109 -0.069685 -1.286137
61 3.035790 0.000000 0.000000 0.000000 0.000000 1.287875
62 2.913227 -2.842412 -3.643560 2.832506 0.098784 -0.804289
63 3.003383 0.000000 0.000000 0.000000 0.000000 1.446035
64 0.974468 -4.591978 -5.917993 0.000000 0.000000 0.000000
65 0.485475 -5.209711 6.024809 0.000000 0.000000 0.000000
66 -5.971901 -0.154179 4.397163 2.555222 -0.215817 -1.740804
67 7.416581 0.000000 0.000000 0.000000 0.000000 -1.317934
68 -6.092069 -0.333712 -6.073963 0.771511 -0.319048 -1.493515
69 6.753443 0.000000 0.000000 0.000000 0.000000 1.163803
70 4.450670 -2.110789 -5.505712 2.792514 0.161537 -0.338083
71 7.220927 0.000000 0.000000 0.000000 0.000000 1.449111
72 4.901043 -2.254870 5.405972 -2.568590 -0.171263 -0.487138
73 6.908709 0.000000 0.000000 0.000000 0.000000 1.592075
75 0.000000 0.000000 0.000000 0.000000 0.052360 0.000000
76 0.032300 -4.377939 -4.331139 0.000000 0.000000 0.000000
77 -0.002340 -4.618856 4.848106 0.000000 0.000937 -0.001514
78 0.000000 0.000000 0.000000 0.000000 0.000000 0.000000
79 -0.014019 -4.136678 -0.422641 0.000000 0.000000 0.000000
80 0.014023 0.341387 9.682305 0.000000 0.000937 -0.001514
81 0.003296 0.000007 -3.521831 0.000000 0.000000 0.000000
83 0.000000 0.000000 0.000000 0.000000 0.000000 0.000000
84 0.000000 0.000000 0.000000 0.000000 0.000000 0.000000
85 0.000000 0.000000 0.000000 0.000000 0.000000 0.000000
86 0.000003 -3.795290 9.259665 0.000000 0.000937 -0.001514
89 0.000000 0.000000 0.000000 0.000000 -0.052359 0.000000
90 0.000002 -3.795289 9.259665 -0.001317 -0.008193 0.060728
91 0.000000 0.000000 0.000000 0.000000 0.000000 0.000000
92 0.014020 -4.136678 -0.422641 0.000000 0.000000 0.000000
93 -0.014018 0.341389 9.682306 0.000000 0.000937 -0.001514
94 0.003298 0.000007 -3.521831 0.000000 0.000000 0.000000
96 0.000000 0.000000 0.000000 0.000000 0.000000 0.000000
97 0.000000 0.000000 0.000000 0.000000 0.000000 0.000000
98 0.000000 0.000000 0.000000 0.000000 0.000000 0.000000
99 -0.062978 -4.612900 4.868225 0.000000 0.000937 -0.001514
100 0.032300 -4.377939 -4.331139 0.000000 0.000000 0.000000
103 -0.000161 -1.633265 -1.130086 0.000000 0.000000 0.000000
113 8.381687 3.850399 58.315945 1.570796 0.000000 0.000000
117 15.889183 3.685913 49.353451 -0.699058 0.575528 -0.996233
119 0.000000 0.000000 0.000000 0.000000 0.000000 0.000000
120 0.000000 0.000000 0.000000 0.000000 0.000000 0.000000
122 -8.381639 3.850377 58.315971 1.570796 0.000000 0.000000
126 -15.889151 3.685874 49.353489 -2.442535 0.575526 -2.145359
128 0.000000 0.000000 0.000000 0.000000 0.000000 0.000000
129 0.000000 0.000000 0.000000 0.000000 0.000000 0.000000
131 3.890447 1.515992 38.353989 1.570796 0.000000 0.000000
134 -3.890457 1.515982 38.354000 1.570796 0.000000 0.000000
138 0.000000 0.000000 0.000000 0.000000 0.000000 0.000000
140 0.000000 0.000000 0.000000 0.000000 0.000000 0.000000
141 3.301501 -3.468923 64.606239 1.231128 0.433567 -1.501732
142 4.072483 -7.254698 1.512106 0.975643 1.197028 1.398431
143 4.103490 -6.173129 -3.496959 0.975643 1.197028 1.398431
145 0.000000 0.000000 0.000000 0.000000 0.000000 0.000000
147 0.000000 0.000000 0.000000 0.000000 0.000000 0.000000
148 2.378726 1.955562 66.824097 1.570796 0.000000 0.000000
149 -7.402614 -7.251678 9.205541 0.000000 0.000000 0.000000
150 5.296958 -10.538761 7.085966 0.000000 0.000000 0.000000
151 0.912171 -4.600590 -8.380405 0.000000 0.000000 0.000000
152 -8.646750 -1.407707 -8.005547 0.000000 0.000000 0.000000
time 2
1 -0.000005 1.515989 38.353996 1.570796 0.000000 0.000000
2 0.000000 0.000000 0.000000 0.000000 0.000000 0.000000
3 3.890452 -0.000006 -0.000003 -1.570796 -0.054697 -1.452003
4 17.593166 0.000000 0.000000 0.000000 0.000000 0.153888
5 17.699579 0.000000 0.000000 -9.547327 -3.163633 8.340875
6 6.879455 0.000000 0.000000 6.275886 -0.002951 -0.584373
7 -3.890452 0.000005 0.000007 -1.570796 -0.054697 -1.689592
8 17.593161 0.000000 0.000000 0.000000 0.000000 0.153887
9 17.699577 0.000000 0.000000 0.133245 -0.022043 -1.083902
10 6.879455 0.000000 0.000000 6.201852 -0.002950 -0.584373
11 -0.000001 -3.955228 0.500835 1.570795 0.085596 1.570795
12 -4.800703 0.326237 3.435442 0.000000 0.000000 0.000000
13 0.000005 3.345123 -2.981987 1.570796 0.086293 1.570796
14 4.126702 0.000000 0.000000 0.000000 0.000000 -0.029242
15 3.613469 0.000000 0.000000 0.000000 0.000000 0.100355
16 9.183785 0.000000 0.000000 0.000000 0.000000 0.194628
17 3.166101 0.000000 0.000000 3.141592 -0.000000 -0.970156
18 1.734696 0.000000 0.000000 0.000000 0.000000 -0.422444
19 1.673224 1.247215 2.595494 -1.544427 -1.855078 -0.199183
20 6.028143 0.000000 0.000000 -1.580047 -0.013594 -0.589175
21 11.692554 0.000000 0.000000 0.000000 0.000000 -0.767230
22 12.075548 0.000000 -0.000032 1.497010 0.461745 -0.134837
23 4.433983 0.244588 -0.986944 -0.301304 0.463666 -0.207191
24 1.137610 0.000000 0.000000 0.000000 0.000955 -0.010431
25 0.886961 0.000000 0.000000 0.000000 0.000953 -0.010426
26 5.564228 -0.209470 -0.526836 -0.143137 -0.019710 -0.640843
27 5.508579 0.000000 0.000000 0.000000 -0.213723 -1.223992
28 3.853055 0.000000 0.000000 0.000000 -0.075108 -1.378996
29 5.744637 0.209470 0.526836 0.085296 -0.117962 -0.637785
30 6.052550 0.000000 0.000000 0.000000 -0.280945 -1.217796
31 3.325016 0.000000 0.000000 0.000000 -0.096001 -1.230572
32 5.613001 0.274427 1.782152 0.378929 -0.371446 -0.586631
33 5.643136 0.000000 0.000000 0.000000 -0.192563 -1.225564
34 3.079116 0.000000 0.000000 0.000000 -0.064808 -1.231461
35 2.129219 0.127022 2.051919 -1.789266 -0.558228 0.261433
36 1.285499 0.000000 0.000000 0.000000 0.002168 0.017321
37 1.034190 0.000000 0.000000 0.000000 0.000000 -0.000000
38 1.673232 1.247220 -2.595441 1.472588 1.855075 -0.199192
39 6.028143 0.000000 0.000000 1.639837 0.053459 -0.587171
40 11.692554 0.000000 0.000000 0.000000 0.000000 -0.767230
41 12.075577 0.000000 0.000000 -1.569752 0.195545 0.020654
42 4.304798 -0.291516 0.933646 0.344104 -0.284315 -0.322580
43 1.137611 0.000000 0.000000 0.000000 0.003041 -0.010019
44 0.940173 0.000000 0.000000 0.000000 0.003038 -0.010023
45 5.943745 -0.452098 0.398078 0.147217 0.287840 -0.578718
46 5.043452 0.000000 0.000000 0.000000 0.530358 -1.175525
47 4.081746 0.000000 0.000000 0.000000 0.206790 -1.461372
48 6.213900 0.452098 -0.398078 -0.094865 0.384803 -0.547821
49 5.536297 0.000000 0.000000 0.000000 0.618516 -1.150872
50 3.312720 0.000000 0.000000 0.000000 0.238651 -1.221913
51 5.899517 1.061163 -1.488764 -0.397780 0.602637 -0.377010
52 5.285242 0.000000 0.000000 0.000000 0.597562 -1.157329
53 3.098846 0.000000 0.000000 0.000000 0.228027 -1.222829
54 2.030274 1.030587 -1.488936 1.840795 0.441865 0.519336
55 1.285499 0.000000 0.000000 0.000000 -0.009107 0.014889
56 1.034191 0.000000 0.000000 0.000000 -0.000002 -0.000000
57 8.725683 1.927572 2.378726 2.772872 -0.062665 1.825826
58 5.900371 0.453117 -0.419221 0.000000 0.000000 0.000000
59 4.491669 -3.704119 -0.656737 0.000000 0.000000 0.000000
60 3.494043 -3.701431 2.726804 -1.865109 -0.069685 -1.286137
61 3.035790 0.000000 0.000000 0.000000 0.000000 1.287875
62 2.913227 -2.842412 -3.643560 2.832506 0.098784 -0.804289
63 3.003383 0.000000 0.000000 0.000000 0.000000 1.446035
64 0.974468 -4.591978 -5.917993 0.000000 0.000000 0.000000
65 0.485475 -5.209711 6.024809 0.000000 0.000000 0.000000
66 -5.971901 -0.154179 4.397163 2.555222 -0.215817 -1.740804
67 7.416581 0.000000 0.000000 0.000000 0.000000 -1.317934
68 -6.092069 -0.333712 -6.073963 0.771511 -0.319048 -1.493515
69 6.753443 0.000000 0.000000 0.000000 0.000000 1.163803
70 4.450670 -2.110789 -5.505712 2.792514 0.161537 -0.338083
71 7.220927 0.000000 0.000000 0.000000 0.000000 1.449111
72 4.901043 -2.254870 5.405972 -2.568590 -0.171263 -0.487138
73 6.908709 0.000000 0.000000 0.000000 0.000000 1.592075
75 0.000000 0.000000 0.000000 0.000000 0.052360 0.000000
76 0.032300 -4.377939 -4.331139 0.000000 0.000000 0.000000
77 -0.002340 -4.618856 4.848106 0.000000 0.000937 -0.001514
78 0.000000 0.000000 0.000000 0.000000 0.000000 0.000000
79 -0.014019 -4.136678 -0.422641 0.000000 0.000000 0.000000
80 0.014023 0.341387 9.682305 0.000000 0.000937 -0.001514
81 0.003296 0.000007 -3.521831 0.000000 0.000000 0.000000
83 0.000000 0.000000 0.000000 0.000000 0.000000 0.000000
84 0.000000 0.000000 0.000000 0.000000 0.000000 0.000000
85 0.000000 0.000000 0.000000 0.000000 0.000000 0.000000
86 0.000003 -3.795290 9.259665 0.000000 0.000937 -0.001514
89 0.000000 0.000000 0.000000 0.000000 -0.052359 0.000000
90 0.000002 -3.795289 9.259665 -0.001317 -0.008193 0.060728
91 0.000000 0.000000 0.000000 0.000000 0.000000 0.000000
92 0.014020 -4.136678 -0.422641 0.000000 0.000000 0.000000
93 -0.014018 0.341389 9.682306 0.000000 0.000937 -0.001514
94 0.003298 0.000007 -3.521831 0.000000 0.000000 0.000000
96 0.000000 0.000000 0.000000 0.000000 0.000000 0.000000
97 0.000000 0.000000 0.000000 0.000000 0.000000 0.000000
98 0.000000 0.000000 0.000000 0.000000 0.000000 0.000000
99 -0.062978 -4.612900 4.868225 0.000000 0.000937 -0.001514
100 0.032300 -4.377939 -4.331139 0.000000 0.000000 0.000000
103 -0.000161 -1.633265 -1.130086 0.000000 0.000000 0.000000
113 8.381687 3.850399 58.315945 1.570796 0.000000 0.000000
117 15.889183 3.685913 49.353451 -0.699058 0.575528 -0.996233
119 0.000000 0.000000 0.000000 0.000000 0.000000 0.000000
120 0.000000 0.000000 0.000000 0.000000 0.000000 0.000000
122 -8.381639 3.850377 58.315971 1.570796 0.000000 0.000000
126 -15.889151 3.685874 49.353489 -2.442535 0.575526 -2.145359
128 0.000000 0.000000 0.000000 0.000000 0.000000 0.000000
129 0.000000 0.000000 0.000000 0.000000 0.000000 0.000000
131 3.890447 1.515992 38.353989 1.570796 0.000000 0.000000
134 -3.890457 1.515982 38.354000 1.570796 0.000000 0.000000
138 0.000000 0.000000 0.000000 0.000000 0.000000 0.000000
140 0.000000 0.000000 0.000000 0.000000 0.000000 0.000000
141 3.301501 -3.468923 64.606239 1.231128 0.433567 -1.501732
142 4.072483 -7.254698 1.512106 0.975643 1.197028 1.398431
143 4.103490 -6.173129 -3.496959 0.975643 1.197028 1.398431
145 0.000000 0.000000 0.000000 0.000000 0.000000 0.000000
147 0.000000 0.000000 0.000000 0.000000 0.000000 0.000000
148 2.378726 1.955562 66.824097 1.570796 0.000000 0.000000
149 -7.402614 -7.251678 9.205541 0.000000 0.000000 0.000000
150 5.296958 -10.538761 7.085966 0.000000 0.000000 0.000000
151 0.912171 -4.600590 -8.380405 0.000000 0.000000 0.000000
152 -8.646750 -1.407707 -8.005547 0.000000 0.000000 0.000000
time 3
1 -0.000005 1.515989 38.353996 1.570796 0.000000 0.000000
2 0.000000 0.000000 0.000000 0.000000 0.000000 0.000000
3 3.890452 -0.000006 -0.000003 -1.570796 -0.054697 -1.452003
4 17.593166 0.000000 0.000000 0.000000 0.000000 0.153888
5 17.699579 0.000000 0.000000 -9.547327 -3.163633 8.340875
6 6.879455 0.000000 0.000000 6.275886 -0.002951 -0.584373
7 -3.890452 0.000005 0.000007 -1.570796 -0.054697 -1.689592
8 17.593161 0.000000 0.000000 0.000000 0.000000 0.153887
9 17.699577 0.000000 0.000000 0.133245 -0.022043 -1.083902
10 6.879455 0.000000 0.000000 6.201852 -0.002950 -0.584373
11 -0.000001 -3.955228 0.500835 1.570795 0.085596 1.570795
12 -4.800703 0.326237 3.435442 0.000000 0.000000 0.000000
13 0.000005 3.345123 -2.981987 1.570796 0.086293 1.570796
14 4.126702 0.000000 0.000000 0.000000 0.000000 -0.029242
15 3.613469 0.000000 0.000000 0.000000 0.000000 0.100355
16 9.183785 0.000000 0.000000 0.000000 0.000000 0.194628
17 3.166101 0.000000 0.000000 3.141592 -0.000000 -0.970156
18 1.734696 0.000000 0.000000 0.000000 0.000000 -0.422444
19 1.673224 1.247215 2.595494 -1.544427 -1.855078 -0.199183
20 6.028143 0.000000 0.000000 -1.580047 -0.013594 -0.589175
21 11.692554 0.000000 0.000000 0.000000 0.000000 -0.767230
22 12.075548 0.000000 -0.000032 1.497010 0.461745 -0.134837
23 4.433983 0.244588 -0.986944 -0.301304 0.463666 -0.207191
24 1.137610 0.000000 0.000000 0.000000 0.000955 -0.010431
25 0.886961 0.000000 0.000000 0.000000 0.000953 -0.010426
26 5.564228 -0.209470 -0.526836 -0.143137 -0.019710 -0.640843
27 5.508579 0.000000 0.000000 0.000000 -0.213723 -1.223992
28 3.853055 0.000000 0.000000 0.000000 -0.075108 -1.378996
29 5.744637 0.209470 0.526836 0.085296 -0.117962 -0.637785
30 6.052550 0.000000 0.000000 0.000000 -0.280945 -1.217796
31 3.325016 0.000000 0.000000 0.000000 -0.096001 -1.230572
32 5.613001 0.274427 1.782152 0.378929 -0.371446 -0.586631
33 5.643136 0.000000 0.000000 0.000000 -0.192563 -1.225564
34 3.079116 0.000000 0.000000 0.000000 -0.064808 -1.231461
35 2.129219 0.127022 2.051919 -1.789266 -0.558228 0.261433
36 1.285499 0.000000 0.000000 0.000000 0.002168 0.017321
37 1.034190 0.000000 0.000000 0.000000 0.000000 -0.000000
38 1.673232 1.247220 -2.595441 1.472588 1.855075 -0.199192
39 6.028143 0.000000 0.000000 1.639837 0.053459 -0.587171
40 11.692554 0.000000 0.000000 0.000000 0.000000 -0.767230
41 12.075577 0.000000 0.000000 -1.569752 0.195545 0.020654
42 4.304798 -0.291516 0.933646 0.344104 -0.284315 -0.322580
43 1.137611 0.000000 0.000000 0.000000 0.003041 -0.010019
44 0.940173 0.000000 0.000000 0.000000 0.003038 -0.010023
45 5.943745 -0.452098 0.398078 0.147217 0.287840 -0.578718
46 5.043452 0.000000 0.000000 0.000000 0.530358 -1.175525
47 4.081746 0.000000 0.000000 0.000000 0.206790 -1.461372
48 6.213900 0.452098 -0.398078 -0.094865 0.384803 -0.547821
49 5.536297 0.000000 0.000000 0.000000 0.618516 -1.150872
50 3.312720 0.000000 0.000000 0.000000 0.238651 -1.221913
51 5.899517 1.061163 -1.488764 -0.397780 0.602637 -0.377010
52 5.285242 0.000000 0.000000 0.000000 0.597562 -1.157329
53 3.098846 0.000000 0.000000 0.000000 0.228027 -1.222829
54 2.030274 1.030587 -1.488936 1.840795 0.441865 0.519336
55 1.285499 0.000000 0.000000 0.000000 -0.009107 0.014889
56 1.034191 0.000000 0.000000 0.000000 -0.000002 -0.000000
57 8.725683 1.927572 2.378726 2.772872 -0.062665 1.825826
58 5.900371 0.453117 -0.419221 0.000000 0.000000 0.000000
59 4.491669 -3.704119 -0.656737 0.000000 0.000000 0.000000
60 3.494043 -3.701431 2.726804 -1.865109 -0.069685 -1.286137
61 3.035790 0.000000 0.000000 0.000000 0.000000 1.287875
62 2.913227 -2.842412 -3.643560 2.832506 0.098784 -0.804289
63 3.003383 0.000000 0.000000 0.000000 0.000000 1.446035
64 0.974468 -4.591978 -5.917993 0.000000 0.000000 0.000000
65 0.485475 -5.209711 6.024809 0.000000 0.000000 0.000000
66 -5.971901 -0.154179 4.397163 2.555222 -0.215817 -1.740804
67 7.416581 0.000000 0.000000 0.000000 0.000000 -1.317934
68 -6.092069 -0.333712 -6.073963 0.771511 -0.319048 -1.493515
69 6.753443 0.000000 0.000000 0.000000 0.000000 1.163803
70 4.450670 -2.110789 -5.505712 2.792514 0.161537 -0.338083
71 7.220927 0.000000 0.000000 0.000000 0.000000 1.449111
72 4.901043 -2.254870 5.405972 -2.568590 -0.171263 -0.487138
73 6.908709 0.000000 0.000000 0.000000 0.000000 1.592075
75 0.000000 0.000000 0.000000 0.000000 0.052360 0.000000
76 0.032300 -4.377939 -4.331139 0.000000 0.000000 0.000000
77 -0.002340 -4.618856 4.848106 0.000000 0.000937 -0.001514
78 0.000000 0.000000 0.000000 0.000000 0.000000 0.000000
79 -0.014019 -4.136678 -0.422641 0.000000 0.000000 0.000000
80 0.014023 0.341387 9.682305 0.000000 0.000937 -0.001514
81 0.003296 0.000007 -3.521831 0.000000 0.000000 0.000000
83 0.000000 0.000000 0.000000 0.000000 0.000000 0.000000
84 0.000000 0.000000 0.000000 0.000000 0.000000 0.000000
85 0.000000 0.000000 0.000000 0.000000 0.000000 0.000000
86 0.000003 -3.795290 9.259665 0.000000 0.000937 -0.001514
89 0.000000 0.000000 0.000000 0.000000 -0.052359 0.000000
90 0.000002 -3.795289 9.259665 -0.001317 -0.008193 0.060728
91 0.000000 0.000000 0.000000 0.000000 0.000000 0.000000
92 0.014020 -4.136678 -0.422641 0.000000 0.000000 0.000000
93 -0.014018 0.341389 9.682306 0.000000 0.000937 -0.001514
94 0.003298 0.000007 -3.521831 0.000000 0.000000 0.000000
96 0.000000 0.000000 0.000000 0.000000 0.000000 0.000000
97 0.000000 0.000000 0.000000 0.000000 0.000000 0.000000
98 0.000000 0.000000 0.000000 0.000000 0.000000 0.000000
99 -0.062978 -4.612900 4.868225 0.000000 0.000937 -0.001514
100 0.032300 -4.377939 -4.331139 0.000000 0.000000 0.000000
103 -0.000161 -1.633265 -1.130086 0.000000 0.000000 0.000000
113 8.381687 3.850399 58.315945 1.570796 0.000000 0.000000
117 15.889183 3.685913 49.353451 -0.699058 0.575528 -0.996233
119 0.000000 0.000000 0.000000 0.000000 0.000000 0.000000
120 0.000000 0.000000 0.000000 0.000000 0.000000 0.000000
122 -8.381639 3.850377 58.315971 1.570796 0.000000 0.000000
126 -15.889151 3.685874 49.353489 -2.442535 0.575526 -2.145359
128 0.000000 0.000000 0.000000 0.000000 0.000000 0.000000
129 0.000000 0.000000 0.000000 0.000000 0.000000 0.000000
131 3.890447 1.515992 38.353989 1.570796 0.000000 0.000000
134 -3.890457 1.515982 38.354000 1.570796 0.000000 0.000000
138 0.000000 0.000000 0.000000 0.000000 0.000000 0.000000
140 0.000000 0.000000 0.000000 0.000000 0.000000 0.000000
141 3.301501 -3.468923 64.606239 1.231128 0.433567 -1.501732
142 4.072483 -7.254698 1.512106 0.975643 1.197028 1.398431
143 4.103490 -6.173129 -3.496959 0.975643 1.197028 1.398431
145 0.000000 0.000000 0.000000 0.000000 0.000000 0.000000
147 0.000000 0.000000 0.000000 0.000000 0.000000 0.000000
148 2.378726 1.955562 66.824097 1.570796 0.000000 0.000000
149 -7.402614 -7.251678 9.205541 0.000000 0.000000 0.000000
150 5.296958 -10.538761 7.085966 0.000000 0.000000 0.000000
151 0.912171 -4.600590 -8.380405 0.000000 0.000000 0.000000
152 -8.646750 -1.407707 -8.005547 0.000000 0.000000 0.000000
time 4
1 -0.000005 1.515989 38.353996 1.570796 0.000000 0.000000
2 0.000000 0.000000 0.000000 0.000000 0.000000 0.000000
3 3.890452 -0.000006 -0.000003 -1.570796 -0.054697 -1.452003
4 17.593166 0.000000 0.000000 0.000000 0.000000 0.153888
5 17.699579 0.000000 0.000000 -9.547327 -3.163633 8.340875
6 6.879455 0.000000 0.000000 6.275886 -0.002951 -0.584373
7 -3.890452 0.000005 0.000007 -1.570796 -0.054697 -1.689592
8 17.593161 0.000000 0.000000 0.000000 0.000000 0.153887
9 17.699577 0.000000 0.000000 0.133245 -0.022043 -1.083902
10 6.879455 0.000000 0.000000 6.201852 -0.002950 -0.584373
11 -0.000001 -3.955228 0.500835 1.570795 0.085596 1.570795
12 -4.800703 0.326237 3.435442 0.000000 0.000000 0.000000
13 0.000005 3.345123 -2.981987 1.570796 0.086293 1.570796
14 4.126702 0.000000 0.000000 0.000000 0.000000 -0.029242
15 3.613469 0.000000 0.000000 0.000000 0.000000 0.100355
16 9.183785 0.000000 0.000000 0.000000 0.000000 0.194628
17 3.166101 0.000000 0.000000 3.141592 -0.000000 -0.970156
18 1.734696 0.000000 0.000000 0.000000 0.000000 -0.422444
19 1.673224 1.247215 2.595494 -1.544427 -1.855078 -0.199183
20 6.028143 0.000000 0.000000 -1.580047 -0.013594 -0.589175
21 11.692554 0.000000 0.000000 0.000000 0.000000 -0.767230
22 12.075548 0.000000 -0.000032 1.497010 0.461745 -0.134837
23 4.433983 0.244588 -0.986944 -0.301304 0.463666 -0.207191
24 1.137610 0.000000 0.000000 0.000000 0.000955 -0.010431
25 0.886961 0.000000 0.000000 0.000000 0.000953 -0.010426
26 5.564228 -0.209470 -0.526836 -0.143137 -0.019710 -0.640843
27 5.508579 0.000000 0.000000 0.000000 -0.213723 -1.223992
28 3.853055 0.000000 0.000000 0.000000 -0.075108 -1.378996
29 5.744637 0.209470 0.526836 0.085296 -0.117962 -0.637785
30 6.052550 0.000000 0.000000 0.000000 -0.280945 -1.217796
31 3.325016 0.000000 0.000000 0.000000 -0.096001 -1.230572
32 5.613001 0.274427 1.782152 0.378929 -0.371446 -0.586631
33 5.643136 0.000000 0.000000 0.000000 -0.192563 -1.225564
34 3.079116 0.000000 0.000000 0.000000 -0.064808 -1.231461
35 2.129219 0.127022 2.051919 -1.789266 -0.558228 0.261433
36 1.285499 0.000000 0.000000 0.000000 0.002168 0.017321
37 1.034190 0.000000 0.000000 0.000000 0.000000 -0.000000
38 1.673232 1.247220 -2.595441 1.472588 1.855075 -0.199192
39 6.028143 0.000000 0.000000 1.639837 0.053459 -0.587171
40 11.692554 0.000000 0.000000 0.000000 0.000000 -0.767230
41 12.075577 0.000000 0.000000 -1.569752 0.195545 0.020654
42 4.304798 -0.291516 0.933646 0.344104 -0.284315 -0.322580
43 1.137611 0.000000 0.000000 0.000000 0.003041 -0.010019
44 0.940173 0.000000 0.000000 0.000000 0.003038 -0.010023
45 5.943745 -0.452098 0.398078 0.147217 0.287840 -0.578718
46 5.043452 0.000000 0.000000 0.000000 0.530358 -1.175525
47 4.081746 0.000000 0.000000 0.000000 0.206790 -1.461372
48 6.213900 0.452098 -0.398078 -0.094865 0.384803 -0.547821
49 5.536297 0.000000 0.000000 0.000000 0.618516 -1.150872
50 3.312720 0.000000 0.000000 0.000000 0.238651 -1.221913
51 5.899517 1.061163 -1.488764 -0.397780 0.602637 -0.377010
52 5.285242 0.000000 0.000000 0.000000 0.597562 -1.157329
53 3.098846 0.000000 0.000000 0.000000 0.228027 -1.222829
54 2.030274 1.030587 -1.488936 1.840795 0.441865 0.519336
55 1.285499 0.000000 0.000000 0.000000 -0.009107 0.014889
56 1.034191 0.000000 0.000000 0.000000 -0.000002 -0.000000
57 8.725683 1.927572 2.378726 2.772872 -0.062665 1.825826
58 5.900371 0.453117 -0.419221 0.000000 0.000000 0.000000
59 4.491669 -3.704119 -0.656737 0.000000 0.000000 0.000000
60 3.494043 -3.701431 2.726804 -1.865109 -0.069685 -1.286137
61 3.035790 0.000000 0.000000 0.000000 0.000000 1.287875
62 2.913227 -2.842412 -3.643560 2.832506 0.098784 -0.804289
63 3.003383 0.000000 0.000000 0.000000 0.000000 1.446035
64 0.974468 -4.591978 -5.917993 0.000000 0.000000 0.000000
65 0.485475 -5.209711 6.024809 0.000000 0.000000 0.000000
66 -5.971901 -0.154179 4.397163 2.555222 -0.215817 -1.740804
67 7.416581 0.000000 0.000000 0.000000 0.000000 -1.317934
68 -6.092069 -0.333712 -6.073963 0.771511 -0.319048 -1.493515
69 6.753443 0.000000 0.000000 0.000000 0.000000 1.163803
70 4.450670 -2.110789 -5.505712 2.792514 0.161537 -0.338083
71 7.220927 0.000000 0.000000 0.000000 0.000000 1.449111
72 4.901043 -2.254870 5.405972 -2.568590 -0.171263 -0.487138
73 6.908709 0.000000 0.000000 0.000000 0.000000 1.592075
75 0.000000 0.000000 0.000000 0.000000 0.052360 0.000000
76 0.032300 -4.377939 -4.331139 0.000000 0.000000 0.000000
77 -0.002340 -4.618856 4.848106 0.000000 0.000937 -0.001514
78 0.000000 0.000000 0.000000 0.000000 0.000000 0.000000
79 -0.014019 -4.136678 -0.422641 0.000000 0.000000 0.000000
80 0.014023 0.341387 9.682305 0.000000 0.000937 -0.001514
81 0.003296 0.000007 -3.521831 0.000000 0.000000 0.000000
83 0.000000 0.000000 0.000000 0.000000 0.000000 0.000000
84 0.000000 0.000000 0.000000 0.000000 0.000000 0.000000
85 0.000000 0.000000 0.000000 0.000000 0.000000 0.000000
86 0.000003 -3.795290 9.259665 0.000000 0.000937 -0.001514
89 0.000000 0.000000 0.000000 0.000000 -0.052359 0.000000
90 0.000002 -3.795289 9.259665 -0.001317 -0.008193 0.060728
91 0.000000 0.000000 0.000000 0.000000 0.000000 0.000000
92 0.014020 -4.136678 -0.422641 0.000000 0.000000 0.000000
93 -0.014018 0.341389 9.682306 0.000000 0.000937 -0.001514
94 0.003298 0.000007 -3.521831 0.000000 0.000000 0.000000
96 0.000000 0.000000 0.000000 0.000000 0.000000 0.000000
97 0.000000 0.000000 0.000000 0.000000 0.000000 0.000000
98 0.000000 0.000000 0.000000 0.000000 0.000000 0.000000
99 -0.062978 -4.612900 4.868225 0.000000 0.000937 -0.001514
100 0.032300 -4.377939 -4.331139 0.000000 0.000000 0.000000
103 -0.000161 -1.633265 -1.130086 0.000000 0.000000 0.000000
113 8.381687 3.850399 58.315945 1.570796 0.000000 0.000000
117 15.889183 3.685913 49.353451 -0.699058 0.575528 -0.996233
119 0.000000 0.000000 0.000000 0.000000 0.000000 0.000000
120 0.000000 0.000000 0.000000 0.000000 0.000000 0.000000
122 -8.381639 3.850377 58.315971 1.570796 0.000000 0.000000
126 -15.889151 3.685874 49.353489 -2.442535 0.575526 -2.145359
128 0.000000 0.000000 0.000000 0.000000 0.000000 0.000000
129 0.000000 0.000000 0.000000 0.000000 0.000000 0.000000
131 3.890447 1.515992 38.353989 1.570796 0.000000 0.000000
134 -3.890457 1.515982 38.354000 1.570796 0.000000 0.000000
138 0.000000 0.000000 0.000000 0.000000 0.000000 0.000000
140 0.000000 0.000000 0.000000 0.000000 0.000000 0.000000
141 3.301501 -3.468923 64.606239 1.231128 0.433567 -1.501732
142 4.072483 -7.254698 1.512106 0.975643 1.197028 1.398431
143 4.103490 -6.173129 -3.496959 0.975643 1.197028 1.398431
145 0.000000 0.000000 0.000000 0.000000 0.000000 0.000000
147 0.000000 0.000000 0.000000 0.000000 0.000000 0.000000
148 2.378726 1.955562 66.824097 1.570796 0.000000 0.000000
149 -7.402614 -7.251678 9.205541 0.000000 0.000000 0.000000
150 5.296958 -10.538761 7.085966 0.000000 0.000000 0.000000
151 0.912171 -4.600590 -8.380405 0.000000 0.000000 0.000000
152 -8.646750 -1.407707 -8.005547 0.000000 0.000000 0.000000
time 5
1 -0.000005 1.515989 38.353996 1.570796 0.000000 0.000000
2 0.000000 0.000000 0.000000 0.000000 0.000000 0.000000
3 3.890452 -0.000006 -0.000003 -1.570796 -0.054697 -1.452003
4 17.593166 0.000000 0.000000 0.000000 0.000000 0.153888
5 17.699579 0.000000 0.000000 -9.547327 -3.163633 8.340875
6 6.879455 0.000000 0.000000 6.275886 -0.002951 -0.584373
7 -3.890452 0.000005 0.000007 -1.570796 -0.054697 -1.689592
8 17.593161 0.000000 0.000000 0.000000 0.000000 0.153887
9 17.699577 0.000000 0.000000 0.133245 -0.022043 -1.083902
10 6.879455 0.000000 0.000000 6.201852 -0.002950 -0.584373
11 -0.000001 -3.955228 0.500835 1.570795 0.085596 1.570795
12 -4.800703 0.326237 3.435442 0.000000 0.000000 0.000000
13 0.000005 3.345123 -2.981987 1.570796 0.086293 1.570796
14 4.126702 0.000000 0.000000 0.000000 0.000000 -0.029242
15 3.613469 0.000000 0.000000 0.000000 0.000000 0.100355
16 9.183785 0.000000 0.000000 0.000000 0.000000 0.194628
17 3.166101 0.000000 0.000000 3.141592 -0.000000 -0.970156
18 1.734696 0.000000 0.000000 0.000000 0.000000 -0.422444
19 1.673224 1.247215 2.595494 -1.544427 -1.855078 -0.199183
20 6.028143 0.000000 0.000000 -1.580047 -0.013594 -0.589175
21 11.692554 0.000000 0.000000 0.000000 0.000000 -0.767230
22 12.075548 0.000000 -0.000032 1.497010 0.461745 -0.134837
23 4.433983 0.244588 -0.986944 -0.301304 0.463666 -0.207191
24 1.137610 0.000000 0.000000 0.000000 0.000955 -0.010431
25 0.886961 0.000000 0.000000 0.000000 0.000953 -0.010426
26 5.564228 -0.209470 -0.526836 -0.143137 -0.019710 -0.640843
27 5.508579 0.000000 0.000000 0.000000 -0.213723 -1.223992
28 3.853055 0.000000 0.000000 0.000000 -0.075108 -1.378996
29 5.744637 0.209470 0.526836 0.085296 -0.117962 -0.637785
30 6.052550 0.000000 0.000000 0.000000 -0.280945 -1.217796
31 3.325016 0.000000 0.000000 0.000000 -0.096001 -1.230572
32 5.613001 0.274427 1.782152 0.378929 -0.371446 -0.586631
33 5.643136 0.000000 0.000000 0.000000 -0.192563 -1.225564
34 3.079116 0.000000 0.000000 0.000000 -0.064808 -1.231461
35 2.129219 0.127022 2.051919 -1.789266 -0.558228 0.261433
36 1.285499 0.000000 0.000000 0.000000 0.002168 0.017321
37 1.034190 0.000000 0.000000 0.000000 0.000000 -0.000000
38 1.673232 1.247220 -2.595441 1.472588 1.855075 -0.199192
39 6.028143 0.000000 0.000000 1.639837 0.053459 -0.587171
40 11.692554 0.000000 0.000000 0.000000 0.000000 -0.767230
41 12.075577 0.000000 0.000000 -1.569752 0.195545 0.020654
42 4.304798 -0.291516 0.933646 0.344104 -0.284315 -0.322580
43 1.137611 0.000000 0.000000 0.000000 0.003041 -0.010019
44 0.940173 0.000000 0.000000 0.000000 0.003038 -0.010023
45 5.943745 -0.452098 0.398078 0.147217 0.287840 -0.578718
46 5.043452 0.000000 0.000000 0.000000 0.530358 -1.175525
47 4.081746 0.000000 0.000000 0.000000 0.206790 -1.461372
48 6.213900 0.452098 -0.398078 -0.094865 0.384803 -0.547821
49 5.536297 0.000000 0.000000 0.000000 0.618516 -1.150872
50 3.312720 0.000000 0.000000 0.000000 0.238651 -1.221913
51 5.899517 1.061163 -1.488764 -0.397780 0.602637 -0.377010
52 5.285242 0.000000 0.000000 0.000000 0.597562 -1.157329
53 3.098846 0.000000 0.000000 0.000000 0.228027 -1.222829
54 2.030274 1.030587 -1.488936 1.840795 0.441865 0.519336
55 1.285499 0.000000 0.000000 0.000000 -0.009107 0.014889
56 1.034191 0.000000 0.000000 0.000000 -0.000002 -0.000000
57 8.725683 1.927572 2.378726 2.772872 -0.062665 1.825826
58 5.900371 0.453117 -0.419221 0.000000 0.000000 0.000000
59 4.491669 -3.704119 -0.656737 0.000000 0.000000 0.000000
60 3.494043 -3.701431 2.726804 -1.865109 -0.069685 -1.286137
61 3.035790 0.000000 0.000000 0.000000 0.000000 1.287875
62 2.913227 -2.842412 -3.643560 2.832506 0.098784 -0.804289
63 3.003383 0.000000 0.000000 0.000000 0.000000 1.446035
64 0.974468 -4.591978 -5.917993 0.000000 0.000000 0.000000
65 0.485475 -5.209711 6.024809 0.000000 0.000000 0.000000
66 -5.971901 -0.154179 4.397163 2.555222 -0.215817 -1.740804
67 7.416581 0.000000 0.000000 0.000000 0.000000 -1.317934
68 -6.092069 -0.333712 -6.073963 0.771511 -0.319048 -1.493515
69 6.753443 0.000000 0.000000 0.000000 0.000000 1.163803
70 4.450670 -2.110789 -5.505712 2.792514 0.161537 -0.338083
71 7.220927 0.000000 0.000000 0.000000 0.000000 1.449111
72 4.901043 -2.254870 5.405972 -2.568590 -0.171263 -0.487138
73 6.908709 0.000000 0.000000 0.000000 0.000000 1.592075
75 0.000000 0.000000 0.000000 0.000000 0.052360 0.000000
76 0.032300 -4.377939 -4.331139 0.000000 0.000000 0.000000
77 -0.002340 -4.618856 4.848106 0.000000 0.000937 -0.001514
78 0.000000 0.000000 0.000000 0.000000 0.000000 0.000000
79 -0.014019 -4.136678 -0.422641 0.000000 0.000000 0.000000
80 0.014023 0.341387 9.682305 0.000000 0.000937 -0.001514
81 0.003296 0.000007 -3.521831 0.000000 0.000000 0.000000
83 0.000000 0.000000 0.000000 0.000000 0.000000 0.000000
84 0.000000 0.000000 0.000000 0.000000 0.000000 0.000000
85 0.000000 0.000000 0.000000 0.000000 0.000000 0.000000
86 0.000003 -3.795290 9.259665 0.000000 0.000937 -0.001514
89 0.000000 0.000000 0.000000 0.000000 -0.052359 0.000000
90 0.000002 -3.795289 9.259665 -0.001317 -0.008193 0.060728
91 0.000000 0.000000 0.000000 0.000000 0.000000 0.000000
92 0.014020 -4.136678 -0.422641 0.000000 0.000000 0.000000
93 -0.014018 0.341389 9.682306 0.000000 0.000937 -0.001514
94 0.003298 0.000007 -3.521831 0.000000 0.000000 0.000000
96 0.000000 0.000000 0.000000 0.000000 0.000000 0.000000
97 0.000000 0.000000 0.000000 0.000000 0.000000 0.000000
98 0.000000 0.000000 0.000000 0.000000 0.000000 0.000000
99 -0.062978 -4.612900 4.868225 0.000000 0.000937 -0.001514
100 0.032300 -4.377939 -4.331139 0.000000 0.000000 0.000000
103 -0.000161 -1.633265 -1.130086 0.000000 0.000000 0.000000
113 8.381687 3.850399 58.315945 1.570796 0.000000 0.000000
117 15.889183 3.685913 49.353451 -0.699058 0.575528 -0.996233
119 0.000000 0.000000 0.000000 0.000000 0.000000 0.000000
120 0.000000 0.000000 0.000000 0.000000 0.000000 0.000000
122 -8.381639 3.850377 58.315971 1.570796 0.000000 0.000000
126 -15.889151 3.685874 49.353489 -2.442535 0.575526 -2.145359
128 0.000000 0.000000 0.000000 0.000000 0.000000 0.000000
129 0.000000 0.000000 0.000000 0.000000 0.000000 0.000000
131 3.890447 1.515992 38.353989 1.570796 0.000000 0.000000
134 -3.890457 1.515982 38.354000 1.570796 0.000000 0.000000
138 0.000000 0.000000 0.000000 0.000000 0.000000 0.000000
140 0.000000 0.000000 0.000000 0.000000 0.000000 0.000000
141 3.301501 -3.468923 64.606239 1.231128 0.433567 -1.501732
142 4.072483 -7.254698 1.512106 0.975643 1.197028 1.398431
143 4.103490 -6.173129 -3.496959 0.975643 1.197028 1.398431
145 0.000000 0.000000 0.000000 0.000000 0.000000 0.000000
147 0.000000 0.000000 0.000000 0.000000 0.000000 0.000000
148 2.378726 1.955562 66.824097 1.570796 0.000000 0.000000
149 -7.402614 -7.251678 9.205541 0.000000 0.000000 0.000000
150 5.296958 -10.538761 7.085966 0.000000 0.000000 0.000000
151 0.912171 -4.600590 -8.380405 0.000000 0.000000 0.000000
152 -8.646750 -1.407707 -8.005547 0.000000 0.000000 0.000000
end
