version 1
nodes
  0 "Bip01"  -1
  1 "Bip01 Footsteps"   0
  2 "Bip01 Pelvis"   0
  3 "Bip01 Spine"   2
  4 "Bip01 Spine1"   3
  5 "Bip01 Spine2"   4
  6 "Bip01 Spine3"   5
  7 "Bip01 Neck"   6
  8 "Bip01 Head"   7
  9 "Dummy03"   8
 10 "Bip01 L Clavicle"   7
 11 "Bip01 L UpperArm"  10
 12 "Bip01 L Forearm"  11
 13 "Bip01 L Hand"  12
 14 "Bip01 R Clavicle"   7
 15 "Bip01 R UpperArm"  14
 16 "Bip01 R Forearm"  15
 17 "Bip01 R Hand"  16
 18 "Bip01 L Thigh"   3
 19 "Bip01 L Calf"  18
 20 "Bip01 L Foot"  19
 21 "Bip01 L Toe0"  20
 22 "Bip01 L Toe01"  21
 23 "Bip01 L Toe02"  22
 24 "Dummy02"  23
 25 "Bip01 R Thigh"   3
 26 "Bip01 R Calf"  25
 27 "Bip01 R Foot"  26
 28 "Bip01 R Toe0"  27
 29 "Bip01 R Toe01"  28
 30 "Bip01 R Toe02"  29
 31 "Dummy01"  30
 32 "Box01"   2
 33 "Line01"  -1
end
skeleton
time 0
  0 0.036525 0.766259 44.182770 0.000000 0.000000 -1.570795
  1 -0.000000 -0.000000 -44.165321 0.000000 0.000000 1.570795
  2 -0.268758 -0.000000 -2.177212 -1.570795 -1.570451 0.000000
  3 3.219551 0.967510 0.000001 -0.000004 -0.000002 -0.322090
  4 3.289383 -0.002251 -0.000000 -0.000000 -0.000001 0.287979
  5 2.948505 -0.004494 -0.000000 0.000000 0.000000 0.000000
  6 5.643323 -0.004356 -0.000000 -0.000000 0.000000 -0.026180
  7 5.472543 -0.001961 -0.000000 -0.000000 -0.000000 0.061087
  8 2.466539 0.000000 0.000000 -0.000000 -0.000000 0.051563
  9 7.340890 0.000000 -0.000000 0.000000 0.000000 0.000000
 10 0.000002 0.001961 1.065788 -0.000014 -1.370796 3.079723
 11 3.700498 -0.000000 -0.000000 0.129398 0.898689 0.129870
 12 8.731102 -0.000000 -0.000001 -0.000000 -0.000000 -0.069101
 13 7.308259 0.000000 0.000001 -1.570000 0.000000 0.000000
 14 0.000002 0.001967 -1.065788 -0.000014 1.370796 3.079696
 15 3.700497 -0.000000 -0.000002 -0.129398 -0.898689 0.129870
 16 8.731101 -0.000000 0.000000 0.000000 0.000000 -0.069101
 17 7.308259 -0.000000 -0.000001 1.570000 -0.000000 0.000000
 18 -2.747725 -1.936911 3.192928 0.000045 3.124131 0.207467
 19 15.660561 -0.000000 -0.000000 -0.000000 0.000000 -0.158924
 20 22.856596 -0.000000 0.000000 -0.002045 0.017341 0.044284
 21 3.601929 0.945456 -0.000000 0.000000 0.000000 1.570796
 22 0.493308 -0.000000 -0.000000 0.000000 0.000000 0.000000
 23 0.493308 -0.000000 -0.000000 0.000000 0.000000 0.000000
 24 0.493308 -0.000000 -0.000000 0.000000 -0.000000 3.141593
 25 -2.747725 -1.936893 -3.192935 -0.000051 -3.124132 0.207467
 26 15.660562 0.000000 0.000000 0.000000 -0.000000 -0.158924
 27 22.856596 -0.000000 -0.000000 0.002045 -0.017341 0.044284
 28 3.601929 0.945456 -0.000000 0.000000 0.000000 1.570796
 29 0.493308 -0.000000 -0.000000 0.000000 0.000000 0.000000
 30 0.493308 -0.000000 -0.000000 0.000000 0.000000 0.000000
 31 0.493308 -0.000000 -0.000000 0.000000 0.000000 0.000000
 32 15.064892 -3.884749 0.008902 -1.570796 -1.570451 0.000000
 33 14.852527 -0.000002 54.017670 1.570796 0.000000 0.000000
time 1
  0 0.036525 0.766259 44.182770 0.000000 0.000000 -1.570795
  1 -0.000000 -0.000000 -44.165321 0.000000 0.000000 1.570795
  2 -0.268758 -0.000000 -2.177212 -1.570795 -1.570451 0.000000
  3 3.219551 0.967510 0.000001 -0.000004 -0.000002 -0.322090
  4 3.289383 -0.002251 -0.000000 -0.000000 -0.000001 0.287979
  5 2.948505 -0.004494 -0.000000 0.000000 0.000000 0.000000
  6 5.643323 -0.004356 -0.000000 -0.000000 0.000000 -0.026180
  7 5.472543 -0.001961 -0.000000 -0.000000 -0.000000 0.061087
  8 2.466539 0.000000 0.000000 -0.000000 -0.000000 0.051563
  9 7.340890 0.000000 -0.000000 0.000000 0.000000 0.000000
 10 0.000002 0.001961 1.065788 -0.000014 -1.370796 3.079723
 11 3.700498 -0.000000 -0.000000 0.129398 0.898689 0.129870
 12 8.731102 -0.000000 -0.000001 -0.000000 -0.000000 -0.069101
 13 7.308259 0.000000 0.000001 -1.570000 0.000000 0.000000
 14 0.000002 0.001967 -1.065788 -0.000014 1.370796 3.079696
 15 3.700497 -0.000000 -0.000002 -0.129398 -0.898689 0.129870
 16 8.731101 -0.000000 0.000000 0.000000 0.000000 -0.069101
 17 7.308259 -0.000000 -0.000001 1.570000 -0.000000 0.000000
 18 -2.747725 -1.936911 3.192928 0.000045 3.124131 0.207467
 19 15.660561 -0.000000 -0.000000 -0.000000 0.000000 -0.158924
 20 22.856596 -0.000000 0.000000 -0.002045 0.017341 0.044284
 21 3.601929 0.945456 -0.000000 0.000000 0.000000 1.570796
 22 0.493308 -0.000000 -0.000000 0.000000 0.000000 0.000000
 23 0.493308 -0.000000 -0.000000 0.000000 0.000000 0.000000
 24 0.493308 -0.000000 -0.000000 0.000000 -0.000000 3.141593
 25 -2.747725 -1.936893 -3.192935 -0.000051 -3.124132 0.207467
 26 15.660562 0.000000 0.000000 0.000000 -0.000000 -0.158924
 27 22.856596 -0.000000 -0.000000 0.002045 -0.017341 0.044284
 28 3.601929 0.945456 -0.000000 0.000000 0.000000 1.570796
 29 0.493308 -0.000000 -0.000000 0.000000 0.000000 0.000000
 30 0.493308 -0.000000 -0.000000 0.000000 0.000000 0.000000
 31 0.493308 -0.000000 -0.000000 0.000000 0.000000 0.000000
 32 15.064892 -3.884749 0.008902 -1.570796 -1.570451 0.000000
 33 14.852527 -0.000002 54.017670 1.570796 0.000000 0.000000
time 2
  0 0.036525 0.766259 44.182770 0.000000 0.000000 -1.570795
  1 -0.000000 -0.000000 -44.165321 0.000000 0.000000 1.570795
  2 -0.268758 -0.000000 -2.177212 -1.570795 -1.570451 0.000000
  3 3.219551 0.967510 0.000001 -0.000004 -0.000002 -0.322090
  4 3.289383 -0.002251 -0.000000 -0.000000 -0.000001 0.287979
  5 2.948505 -0.004494 -0.000000 0.000000 0.000000 0.000000
  6 5.643323 -0.004356 -0.000000 -0.000000 0.000000 -0.026180
  7 5.472543 -0.001961 -0.000000 -0.000000 -0.000000 0.061087
  8 2.466539 0.000000 0.000000 -0.000000 -0.000000 0.051563
  9 7.340890 0.000000 -0.000000 0.000000 0.000000 0.000000
 10 0.000002 0.001961 1.065788 -0.000014 -1.370796 3.079723
 11 3.700498 -0.000000 -0.000000 0.129398 0.898689 0.129870
 12 8.731102 -0.000000 -0.000001 -0.000000 -0.000000 -0.069101
 13 7.308259 0.000000 0.000001 -1.570000 0.000000 0.000000
 14 0.000002 0.001967 -1.065788 -0.000014 1.370796 3.079696
 15 3.700497 -0.000000 -0.000002 -0.129398 -0.898689 0.129870
 16 8.731101 -0.000000 0.000000 0.000000 0.000000 -0.069101
 17 7.308259 -0.000000 -0.000001 1.570000 -0.000000 0.000000
 18 -2.747725 -1.936911 3.192928 0.000045 3.124131 0.207467
 19 15.660561 -0.000000 -0.000000 -0.000000 0.000000 -0.158924
 20 22.856596 -0.000000 0.000000 -0.002045 0.017341 0.044284
 21 3.601929 0.945456 -0.000000 0.000000 0.000000 1.570796
 22 0.493308 -0.000000 -0.000000 0.000000 0.000000 0.000000
 23 0.493308 -0.000000 -0.000000 0.000000 0.000000 0.000000
 24 0.493308 -0.000000 -0.000000 0.000000 -0.000000 3.141593
 25 -2.747725 -1.936893 -3.192935 -0.000051 -3.124132 0.207467
 26 15.660562 0.000000 0.000000 0.000000 -0.000000 -0.158924
 27 22.856596 -0.000000 -0.000000 0.002045 -0.017341 0.044284
 28 3.601929 0.945456 -0.000000 0.000000 0.000000 1.570796
 29 0.493308 -0.000000 -0.000000 0.000000 0.000000 0.000000
 30 0.493308 -0.000000 -0.000000 0.000000 0.000000 0.000000
 31 0.493308 -0.000000 -0.000000 0.000000 0.000000 0.000000
 32 15.064892 -3.884749 0.008902 -1.570796 -1.570451 0.000000
 33 14.852527 -0.000002 54.017670 1.570796 0.000000 0.000000
time 3
  0 0.036525 0.766259 44.182770 0.000000 0.000000 -1.570795
  1 -0.000000 -0.000000 -44.165321 0.000000 0.000000 1.570795
  2 -0.268758 -0.000000 -2.177212 -1.570795 -1.570451 0.000000
  3 3.219551 0.967510 0.000001 -0.000004 -0.000002 -0.322090
  4 3.289383 -0.002251 -0.000000 -0.000000 -0.000001 0.287979
  5 2.948505 -0.004494 -0.000000 0.000000 0.000000 0.000000
  6 5.643323 -0.004356 -0.000000 -0.000000 0.000000 -0.026180
  7 5.472543 -0.001961 -0.000000 -0.000000 -0.000000 0.061087
  8 2.466539 0.000000 0.000000 -0.000000 -0.000000 0.051563
  9 7.340890 0.000000 -0.000000 0.000000 0.000000 0.000000
 10 0.000002 0.001961 1.065788 -0.000014 -1.370796 3.079723
 11 3.700498 -0.000000 -0.000000 0.129398 0.898689 0.129870
 12 8.731102 -0.000000 -0.000001 -0.000000 -0.000000 -0.069101
 13 7.308259 0.000000 0.000001 -1.570000 0.000000 0.000000
 14 0.000002 0.001967 -1.065788 -0.000014 1.370796 3.079696
 15 3.700497 -0.000000 -0.000002 -0.129398 -0.898689 0.129870
 16 8.731101 -0.000000 0.000000 0.000000 0.000000 -0.069101
 17 7.308259 -0.000000 -0.000001 1.570000 -0.000000 0.000000
 18 -2.747725 -1.936911 3.192928 0.000045 3.124131 0.207467
 19 15.660561 -0.000000 -0.000000 -0.000000 0.000000 -0.158924
 20 22.856596 -0.000000 0.000000 -0.002045 0.017341 0.044284
 21 3.601929 0.945456 -0.000000 0.000000 0.000000 1.570796
 22 0.493308 -0.000000 -0.000000 0.000000 0.000000 0.000000
 23 0.493308 -0.000000 -0.000000 0.000000 0.000000 0.000000
 24 0.493308 -0.000000 -0.000000 0.000000 -0.000000 3.141593
 25 -2.747725 -1.936893 -3.192935 -0.000051 -3.124132 0.207467
 26 15.660562 0.000000 0.000000 0.000000 -0.000000 -0.158924
 27 22.856596 -0.000000 -0.000000 0.002045 -0.017341 0.044284
 28 3.601929 0.945456 -0.000000 0.000000 0.000000 1.570796
 29 0.493308 -0.000000 -0.000000 0.000000 0.000000 0.000000
 30 0.493308 -0.000000 -0.000000 0.000000 0.000000 0.000000
 31 0.493308 -0.000000 -0.000000 0.000000 0.000000 0.000000
 32 15.064892 -3.884749 0.008902 -1.570796 -1.570451 0.000000
 33 14.852527 -0.000002 54.017670 1.570796 0.000000 0.000000
time 4
  0 0.036525 0.766259 44.182770 0.000000 0.000000 -1.570795
  1 -0.000000 -0.000000 -44.165321 0.000000 0.000000 1.570795
  2 -0.268758 -0.000000 -2.177212 -1.570795 -1.570451 0.000000
  3 3.219551 0.967510 0.000001 -0.000004 -0.000002 -0.322090
  4 3.289383 -0.002251 -0.000000 -0.000000 -0.000001 0.287979
  5 2.948505 -0.004494 -0.000000 0.000000 0.000000 0.000000
  6 5.643323 -0.004356 -0.000000 -0.000000 0.000000 -0.026180
  7 5.472543 -0.001961 -0.000000 -0.000000 -0.000000 0.061087
  8 2.466539 0.000000 0.000000 -0.000000 -0.000000 0.051563
  9 7.340890 0.000000 -0.000000 0.000000 0.000000 0.000000
 10 0.000002 0.001961 1.065788 -0.000014 -1.370796 3.079723
 11 3.700498 -0.000000 -0.000000 0.129398 0.898689 0.129870
 12 8.731102 -0.000000 -0.000001 -0.000000 -0.000000 -0.069101
 13 7.308259 0.000000 0.000001 -1.570000 0.000000 0.000000
 14 0.000002 0.001967 -1.065788 -0.000014 1.370796 3.079696
 15 3.700497 -0.000000 -0.000002 -0.129398 -0.898689 0.129870
 16 8.731101 -0.000000 0.000000 0.000000 0.000000 -0.069101
 17 7.308259 -0.000000 -0.000001 1.570000 -0.000000 0.000000
 18 -2.747725 -1.936911 3.192928 0.000045 3.124131 0.207467
 19 15.660561 -0.000000 -0.000000 -0.000000 0.000000 -0.158924
 20 22.856596 -0.000000 0.000000 -0.002045 0.017341 0.044284
 21 3.601929 0.945456 -0.000000 0.000000 0.000000 1.570796
 22 0.493308 -0.000000 -0.000000 0.000000 0.000000 0.000000
 23 0.493308 -0.000000 -0.000000 0.000000 0.000000 0.000000
 24 0.493308 -0.000000 -0.000000 0.000000 -0.000000 3.141593
 25 -2.747725 -1.936893 -3.192935 -0.000051 -3.124132 0.207467
 26 15.660562 0.000000 0.000000 0.000000 -0.000000 -0.158924
 27 22.856596 -0.000000 -0.000000 0.002045 -0.017341 0.044284
 28 3.601929 0.945456 -0.000000 0.000000 0.000000 1.570796
 29 0.493308 -0.000000 -0.000000 0.000000 0.000000 0.000000
 30 0.493308 -0.000000 -0.000000 0.000000 0.000000 0.000000
 31 0.493308 -0.000000 -0.000000 0.000000 0.000000 0.000000
 32 15.064892 -3.884749 0.008902 -1.570796 -1.570451 0.000000
 33 14.852527 -0.000002 54.017670 1.570796 0.000000 0.000000
time 5
  0 0.036525 0.766259 44.182770 0.000000 0.000000 -1.570795
  1 -0.000000 -0.000000 -44.165321 0.000000 0.000000 1.570795
  2 -0.268758 -0.000000 -2.177212 -1.570795 -1.570451 0.000000
  3 3.219551 0.967510 0.000001 -0.000004 -0.000002 -0.322090
  4 3.289383 -0.002251 -0.000000 -0.000000 -0.000001 0.287979
  5 2.948505 -0.004494 -0.000000 0.000000 0.000000 0.000000
  6 5.643323 -0.004356 -0.000000 -0.000000 0.000000 -0.026180
  7 5.472543 -0.001961 -0.000000 -0.000000 -0.000000 0.061087
  8 2.466539 0.000000 0.000000 -0.000000 -0.000000 0.051563
  9 7.340890 0.000000 -0.000000 0.000000 0.000000 0.000000
 10 0.000002 0.001961 1.065788 -0.000014 -1.370796 3.079723
 11 3.700498 -0.000000 -0.000000 0.129398 0.898689 0.129870
 12 8.731102 -0.000000 -0.000001 -0.000000 -0.000000 -0.069101
 13 7.308259 0.000000 0.000001 -1.570000 0.000000 0.000000
 14 0.000002 0.001967 -1.065788 -0.000014 1.370796 3.079696
 15 3.700497 -0.000000 -0.000002 -0.129398 -0.898689 0.129870
 16 8.731101 -0.000000 0.000000 0.000000 0.000000 -0.069101
 17 7.308259 -0.000000 -0.000001 1.570000 -0.000000 0.000000
 18 -2.747725 -1.936911 3.192928 0.000045 3.124131 0.207467
 19 15.660561 -0.000000 -0.000000 -0.000000 0.000000 -0.158924
 20 22.856596 -0.000000 0.000000 -0.002045 0.017341 0.044284
 21 3.601929 0.945456 -0.000000 0.000000 0.000000 1.570796
 22 0.493308 -0.000000 -0.000000 0.000000 0.000000 0.000000
 23 0.493308 -0.000000 -0.000000 0.000000 0.000000 0.000000
 24 0.493308 -0.000000 -0.000000 0.000000 -0.000000 3.141593
 25 -2.747725 -1.936893 -3.192935 -0.000051 -3.124132 0.207467
 26 15.660562 0.000000 0.000000 0.000000 -0.000000 -0.158924
 27 22.856596 -0.000000 -0.000000 0.002045 -0.017341 0.044284
 28 3.601929 0.945456 -0.000000 0.000000 0.000000 1.570796
 29 0.493308 -0.000000 -0.000000 0.000000 0.000000 0.000000
 30 0.493308 -0.000000 -0.000000 0.000000 0.000000 0.000000
 31 0.493308 -0.000000 -0.000000 0.000000 0.000000 0.000000
 32 15.064892 -3.884749 0.008902 -1.570796 -1.570451 0.000000
 33 14.852527 -0.000002 54.017670 1.570796 0.000000 0.000000
time 6
  0 0.036525 0.766259 44.182770 0.000000 0.000000 -1.570795
  1 -0.000000 -0.000000 -44.165321 0.000000 0.000000 1.570795
  2 -0.268758 -0.000000 -2.177212 -1.570795 -1.570451 0.000000
  3 3.219551 0.967510 0.000001 -0.000004 -0.000002 -0.322090
  4 3.289383 -0.002251 -0.000000 -0.000000 -0.000001 0.287979
  5 2.948505 -0.004494 -0.000000 0.000000 0.000000 0.000000
  6 5.643323 -0.004356 -0.000000 -0.000000 0.000000 -0.026180
  7 5.472543 -0.001961 -0.000000 -0.000000 -0.000000 0.061087
  8 2.466539 0.000000 0.000000 -0.000000 -0.000000 0.051563
  9 7.340890 0.000000 -0.000000 0.000000 0.000000 0.000000
 10 0.000002 0.001961 1.065788 -0.000014 -1.370796 3.079723
 11 3.700498 -0.000000 -0.000000 0.129398 0.898689 0.129870
 12 8.731102 -0.000000 -0.000001 -0.000000 -0.000000 -0.069101
 13 7.308259 0.000000 0.000001 -1.570000 0.000000 0.000000
 14 0.000002 0.001967 -1.065788 -0.000014 1.370796 3.079696
 15 3.700497 -0.000000 -0.000002 -0.129398 -0.898689 0.129870
 16 8.731101 -0.000000 0.000000 0.000000 0.000000 -0.069101
 17 7.308259 -0.000000 -0.000001 1.570000 -0.000000 0.000000
 18 -2.747725 -1.936911 3.192928 0.000045 3.124131 0.207467
 19 15.660561 -0.000000 -0.000000 -0.000000 0.000000 -0.158924
 20 22.856596 -0.000000 0.000000 -0.002045 0.017341 0.044284
 21 3.601929 0.945456 -0.000000 0.000000 0.000000 1.570796
 22 0.493308 -0.000000 -0.000000 0.000000 0.000000 0.000000
 23 0.493308 -0.000000 -0.000000 0.000000 0.000000 0.000000
 24 0.493308 -0.000000 -0.000000 0.000000 -0.000000 3.141593
 25 -2.747725 -1.936893 -3.192935 -0.000051 -3.124132 0.207467
 26 15.660562 0.000000 0.000000 0.000000 -0.000000 -0.158924
 27 22.856596 -0.000000 -0.000000 0.002045 -0.017341 0.044284
 28 3.601929 0.945456 -0.000000 0.000000 0.000000 1.570796
 29 0.493308 -0.000000 -0.000000 0.000000 0.000000 0.000000
 30 0.493308 -0.000000 -0.000000 0.000000 0.000000 0.000000
 31 0.493308 -0.000000 -0.000000 0.000000 0.000000 0.000000
 32 15.064892 -3.884749 0.008902 -1.570796 -1.570451 0.000000
 33 14.852527 -0.000002 54.017670 1.570796 0.000000 0.000000
time 7
  0 0.036525 0.766259 44.182770 0.000000 0.000000 -1.570795
  1 -0.000000 -0.000000 -44.165321 0.000000 0.000000 1.570795
  2 -0.268758 -0.000000 -2.177212 -1.570795 -1.570451 0.000000
  3 3.219551 0.967510 0.000001 -0.000004 -0.000002 -0.322090
  4 3.289383 -0.002251 -0.000000 -0.000000 -0.000001 0.287979
  5 2.948505 -0.004494 -0.000000 0.000000 0.000000 0.000000
  6 5.643323 -0.004356 -0.000000 -0.000000 0.000000 -0.026180
  7 5.472543 -0.001961 -0.000000 -0.000000 -0.000000 0.061087
  8 2.466539 0.000000 0.000000 -0.000000 -0.000000 0.051563
  9 7.340890 0.000000 -0.000000 0.000000 0.000000 0.000000
 10 0.000002 0.001961 1.065788 -0.000014 -1.370796 3.079723
 11 3.700498 -0.000000 -0.000000 0.129398 0.898689 0.129870
 12 8.731102 -0.000000 -0.000001 -0.000000 -0.000000 -0.069101
 13 7.308259 0.000000 0.000001 -1.570000 0.000000 0.000000
 14 0.000002 0.001967 -1.065788 -0.000014 1.370796 3.079696
 15 3.700497 -0.000000 -0.000002 -0.129398 -0.898689 0.129870
 16 8.731101 -0.000000 0.000000 0.000000 0.000000 -0.069101
 17 7.308259 -0.000000 -0.000001 1.570000 -0.000000 0.000000
 18 -2.747725 -1.936911 3.192928 0.000045 3.124131 0.207467
 19 15.660561 -0.000000 -0.000000 -0.000000 0.000000 -0.158924
 20 22.856596 -0.000000 0.000000 -0.002045 0.017341 0.044284
 21 3.601929 0.945456 -0.000000 0.000000 0.000000 1.570796
 22 0.493308 -0.000000 -0.000000 0.000000 0.000000 0.000000
 23 0.493308 -0.000000 -0.000000 0.000000 0.000000 0.000000
 24 0.493308 -0.000000 -0.000000 0.000000 -0.000000 3.141593
 25 -2.747725 -1.936893 -3.192935 -0.000051 -3.124132 0.207467
 26 15.660562 0.000000 0.000000 0.000000 -0.000000 -0.158924
 27 22.856596 -0.000000 -0.000000 0.002045 -0.017341 0.044284
 28 3.601929 0.945456 -0.000000 0.000000 0.000000 1.570796
 29 0.493308 -0.000000 -0.000000 0.000000 0.000000 0.000000
 30 0.493308 -0.000000 -0.000000 0.000000 0.000000 0.000000
 31 0.493308 -0.000000 -0.000000 0.000000 0.000000 0.000000
 32 15.064892 -3.884749 0.008902 -1.570796 -1.570451 0.000000
 33 14.852527 -0.000002 54.017670 1.570796 0.000000 0.000000
time 8
  0 0.036525 0.766259 44.182770 0.000000 0.000000 -1.570795
  1 -0.000000 -0.000000 -44.165321 0.000000 0.000000 1.570795
  2 -0.268758 -0.000000 -2.177212 -1.570795 -1.570451 0.000000
  3 3.219551 0.967510 0.000001 -0.000004 -0.000002 -0.322090
  4 3.289383 -0.002251 -0.000000 -0.000000 -0.000001 0.287979
  5 2.948505 -0.004494 -0.000000 0.000000 0.000000 0.000000
  6 5.643323 -0.004356 -0.000000 -0.000000 0.000000 -0.026180
  7 5.472543 -0.001961 -0.000000 -0.000000 -0.000000 0.061087
  8 2.466539 0.000000 0.000000 -0.000000 -0.000000 0.051563
  9 7.340890 0.000000 -0.000000 0.000000 0.000000 0.000000
 10 0.000002 0.001961 1.065788 -0.000014 -1.370796 3.079723
 11 3.700498 -0.000000 -0.000000 0.129398 0.898689 0.129870
 12 8.731102 -0.000000 -0.000001 -0.000000 -0.000000 -0.069101
 13 7.308259 0.000000 0.000001 -1.570000 0.000000 0.000000
 14 0.000002 0.001967 -1.065788 -0.000014 1.370796 3.079696
 15 3.700497 -0.000000 -0.000002 -0.129398 -0.898689 0.129870
 16 8.731101 -0.000000 0.000000 0.000000 0.000000 -0.069101
 17 7.308259 -0.000000 -0.000001 1.570000 -0.000000 0.000000
 18 -2.747725 -1.936911 3.192928 0.000045 3.124131 0.207467
 19 15.660561 -0.000000 -0.000000 -0.000000 0.000000 -0.158924
 20 22.856596 -0.000000 0.000000 -0.002045 0.017341 0.044284
 21 3.601929 0.945456 -0.000000 0.000000 0.000000 1.570796
 22 0.493308 -0.000000 -0.000000 0.000000 0.000000 0.000000
 23 0.493308 -0.000000 -0.000000 0.000000 0.000000 0.000000
 24 0.493308 -0.000000 -0.000000 0.000000 -0.000000 3.141593
 25 -2.747725 -1.936893 -3.192935 -0.000051 -3.124132 0.207467
 26 15.660562 0.000000 0.000000 0.000000 -0.000000 -0.158924
 27 22.856596 -0.000000 -0.000000 0.002045 -0.017341 0.044284
 28 3.601929 0.945456 -0.000000 0.000000 0.000000 1.570796
 29 0.493308 -0.000000 -0.000000 0.000000 0.000000 0.000000
 30 0.493308 -0.000000 -0.000000 0.000000 0.000000 0.000000
 31 0.493308 -0.000000 -0.000000 0.000000 0.000000 0.000000
 32 15.064892 -3.884749 0.008902 -1.570796 -1.570451 0.000000
 33 14.852527 -0.000002 54.017670 1.570796 0.000000 0.000000
time 9
  0 0.036525 0.766259 44.182770 0.000000 0.000000 -1.570795
  1 -0.000000 -0.000000 -44.165321 0.000000 0.000000 1.570795
  2 -0.268758 -0.000000 -2.177212 -1.570795 -1.570451 0.000000
  3 3.219551 0.967510 0.000001 -0.000004 -0.000002 -0.322090
  4 3.289383 -0.002251 -0.000000 -0.000000 -0.000001 0.287979
  5 2.948505 -0.004494 -0.000000 0.000000 0.000000 0.000000
  6 5.643323 -0.004356 -0.000000 -0.000000 0.000000 -0.026180
  7 5.472543 -0.001961 -0.000000 -0.000000 -0.000000 0.061087
  8 2.466539 0.000000 0.000000 -0.000000 -0.000000 0.051563
  9 7.340890 0.000000 -0.000000 0.000000 0.000000 0.000000
 10 0.000002 0.001961 1.065788 -0.000014 -1.370796 3.079723
 11 3.700498 -0.000000 -0.000000 0.129398 0.898689 0.129870
 12 8.731102 -0.000000 -0.000001 -0.000000 -0.000000 -0.069101
 13 7.308259 0.000000 0.000001 -1.570000 0.000000 0.000000
 14 0.000002 0.001967 -1.065788 -0.000014 1.370796 3.079696
 15 3.700497 -0.000000 -0.000002 -0.129398 -0.898689 0.129870
 16 8.731101 -0.000000 0.000000 0.000000 0.000000 -0.069101
 17 7.308259 -0.000000 -0.000001 1.570000 -0.000000 0.000000
 18 -2.747725 -1.936911 3.192928 0.000045 3.124131 0.207467
 19 15.660561 -0.000000 -0.000000 -0.000000 0.000000 -0.158924
 20 22.856596 -0.000000 0.000000 -0.002045 0.017341 0.044284
 21 3.601929 0.945456 -0.000000 0.000000 0.000000 1.570796
 22 0.493308 -0.000000 -0.000000 0.000000 0.000000 0.000000
 23 0.493308 -0.000000 -0.000000 0.000000 0.000000 0.000000
 24 0.493308 -0.000000 -0.000000 0.000000 -0.000000 3.141593
 25 -2.747725 -1.936893 -3.192935 -0.000051 -3.124132 0.207467
 26 15.660562 0.000000 0.000000 0.000000 -0.000000 -0.158924
 27 22.856596 -0.000000 -0.000000 0.002045 -0.017341 0.044284
 28 3.601929 0.945456 -0.000000 0.000000 0.000000 1.570796
 29 0.493308 -0.000000 -0.000000 0.000000 0.000000 0.000000
 30 0.493308 -0.000000 -0.000000 0.000000 0.000000 0.000000
 31 0.493308 -0.000000 -0.000000 0.000000 0.000000 0.000000
 32 15.064892 -3.884749 0.008902 -1.570796 -1.570451 0.000000
 33 14.852527 -0.000002 54.017670 1.570796 0.000000 0.000000
time 10
  0 0.036525 0.766259 44.182770 0.000000 0.000000 -1.570795
  1 -0.000000 -0.000000 -44.165321 0.000000 0.000000 1.570795
  2 -0.268758 -0.000000 -2.177212 -1.570795 -1.570451 0.000000
  3 3.219551 0.967510 0.000001 -0.000004 -0.000002 -0.322090
  4 3.289383 -0.002251 -0.000000 -0.000000 -0.000001 0.287979
  5 2.948505 -0.004494 -0.000000 0.000000 0.000000 0.000000
  6 5.643323 -0.004356 -0.000000 -0.000000 0.000000 -0.026180
  7 5.472543 -0.001961 -0.000000 -0.000000 -0.000000 0.061087
  8 2.466539 0.000000 0.000000 -0.000000 -0.000000 0.051563
  9 7.340890 0.000000 -0.000000 0.000000 0.000000 0.000000
 10 0.000002 0.001961 1.065788 -0.000014 -1.370796 3.079723
 11 3.700498 -0.000000 -0.000000 0.129398 0.898689 0.129870
 12 8.731102 -0.000000 -0.000001 -0.000000 -0.000000 -0.069101
 13 7.308259 0.000000 0.000001 -1.570000 0.000000 0.000000
 14 0.000002 0.001967 -1.065788 -0.000014 1.370796 3.079696
 15 3.700497 -0.000000 -0.000002 -0.129398 -0.898689 0.129870
 16 8.731101 -0.000000 0.000000 0.000000 0.000000 -0.069101
 17 7.308259 -0.000000 -0.000001 1.570000 -0.000000 0.000000
 18 -2.747725 -1.936911 3.192928 0.000045 3.124131 0.207467
 19 15.660561 -0.000000 -0.000000 -0.000000 0.000000 -0.158924
 20 22.856596 -0.000000 0.000000 -0.002045 0.017341 0.044284
 21 3.601929 0.945456 -0.000000 0.000000 0.000000 1.570796
 22 0.493308 -0.000000 -0.000000 0.000000 0.000000 0.000000
 23 0.493308 -0.000000 -0.000000 0.000000 0.000000 0.000000
 24 0.493308 -0.000000 -0.000000 0.000000 -0.000000 3.141593
 25 -2.747725 -1.936893 -3.192935 -0.000051 -3.124132 0.207467
 26 15.660562 0.000000 0.000000 0.000000 -0.000000 -0.158924
 27 22.856596 -0.000000 -0.000000 0.002045 -0.017341 0.044284
 28 3.601929 0.945456 -0.000000 0.000000 0.000000 1.570796
 29 0.493308 -0.000000 -0.000000 0.000000 0.000000 0.000000
 30 0.493308 -0.000000 -0.000000 0.000000 0.000000 0.000000
 31 0.493308 -0.000000 -0.000000 0.000000 0.000000 0.000000
 32 15.064892 -3.884749 0.008902 -1.570796 -1.570451 0.000000
 33 14.852527 -0.000002 54.017670 1.570796 0.000000 0.000000
time 11
  0 0.036525 0.766259 44.182770 0.000000 0.000000 -1.570795
  1 -0.000000 -0.000000 -44.165321 0.000000 0.000000 1.570795
  2 -0.268758 -0.000000 -2.177212 -1.570795 -1.570451 0.000000
  3 3.219551 0.967510 0.000001 -0.000004 -0.000002 -0.322090
  4 3.289383 -0.002251 -0.000000 -0.000000 -0.000001 0.287979
  5 2.948505 -0.004494 -0.000000 0.000000 0.000000 0.000000
  6 5.643323 -0.004356 -0.000000 -0.000000 0.000000 -0.026180
  7 5.472543 -0.001961 -0.000000 -0.000000 -0.000000 0.061087
  8 2.466539 0.000000 0.000000 -0.000000 -0.000000 0.051563
  9 7.340890 0.000000 -0.000000 0.000000 0.000000 0.000000
 10 0.000002 0.001961 1.065788 -0.000014 -1.370796 3.079723
 11 3.700498 -0.000000 -0.000000 0.129398 0.898689 0.129870
 12 8.731102 -0.000000 -0.000001 -0.000000 -0.000000 -0.069101
 13 7.308259 0.000000 0.000001 -1.570000 0.000000 0.000000
 14 0.000002 0.001967 -1.065788 -0.000014 1.370796 3.079696
 15 3.700497 -0.000000 -0.000002 -0.129398 -0.898689 0.129870
 16 8.731101 -0.000000 0.000000 0.000000 0.000000 -0.069101
 17 7.308259 -0.000000 -0.000001 1.570000 -0.000000 0.000000
 18 -2.747725 -1.936911 3.192928 0.000045 3.124131 0.207467
 19 15.660561 -0.000000 -0.000000 -0.000000 0.000000 -0.158924
 20 22.856596 -0.000000 0.000000 -0.002045 0.017341 0.044284
 21 3.601929 0.945456 -0.000000 0.000000 0.000000 1.570796
 22 0.493308 -0.000000 -0.000000 0.000000 0.000000 0.000000
 23 0.493308 -0.000000 -0.000000 0.000000 0.000000 0.000000
 24 0.493308 -0.000000 -0.000000 0.000000 -0.000000 3.141593
 25 -2.747725 -1.936893 -3.192935 -0.000051 -3.124132 0.207467
 26 15.660562 0.000000 0.000000 0.000000 -0.000000 -0.158924
 27 22.856596 -0.000000 -0.000000 0.002045 -0.017341 0.044284
 28 3.601929 0.945456 -0.000000 0.000000 0.000000 1.570796
 29 0.493308 -0.000000 -0.000000 0.000000 0.000000 0.000000
 30 0.493308 -0.000000 -0.000000 0.000000 0.000000 0.000000
 31 0.493308 -0.000000 -0.000000 0.000000 0.000000 0.000000
 32 15.064892 -3.884749 0.008902 -1.570796 -1.570451 0.000000
 33 14.852527 -0.000002 54.017670 1.570796 0.000000 0.000000
time 12
  0 0.036525 0.766259 44.182770 0.000000 0.000000 -1.570795
  1 -0.000000 -0.000000 -44.165321 0.000000 0.000000 1.570795
  2 -0.268758 -0.000000 -2.177212 -1.570795 -1.570451 0.000000
  3 3.219551 0.967510 0.000001 -0.000004 -0.000002 -0.322090
  4 3.289383 -0.002251 -0.000000 -0.000000 -0.000001 0.287979
  5 2.948505 -0.004494 -0.000000 0.000000 0.000000 0.000000
  6 5.643323 -0.004356 -0.000000 -0.000000 0.000000 -0.026180
  7 5.472543 -0.001961 -0.000000 -0.000000 -0.000000 0.061087
  8 2.466539 0.000000 0.000000 -0.000000 -0.000000 0.051563
  9 7.340890 0.000000 -0.000000 0.000000 0.000000 0.000000
 10 0.000002 0.001961 1.065788 -0.000014 -1.370796 3.079723
 11 3.700498 -0.000000 -0.000000 0.129398 0.898689 0.129870
 12 8.731102 -0.000000 -0.000001 -0.000000 -0.000000 -0.069101
 13 7.308259 0.000000 0.000001 -1.570000 0.000000 0.000000
 14 0.000002 0.001967 -1.065788 -0.000014 1.370796 3.079696
 15 3.700497 -0.000000 -0.000002 -0.129398 -0.898689 0.129870
 16 8.731101 -0.000000 0.000000 0.000000 0.000000 -0.069101
 17 7.308259 -0.000000 -0.000001 1.570000 -0.000000 0.000000
 18 -2.747725 -1.936911 3.192928 0.000045 3.124131 0.207467
 19 15.660561 -0.000000 -0.000000 -0.000000 0.000000 -0.158924
 20 22.856596 -0.000000 0.000000 -0.002045 0.017341 0.044284
 21 3.601929 0.945456 -0.000000 0.000000 0.000000 1.570796
 22 0.493308 -0.000000 -0.000000 0.000000 0.000000 0.000000
 23 0.493308 -0.000000 -0.000000 0.000000 0.000000 0.000000
 24 0.493308 -0.000000 -0.000000 0.000000 -0.000000 3.141593
 25 -2.747725 -1.936893 -3.192935 -0.000051 -3.124132 0.207467
 26 15.660562 0.000000 0.000000 0.000000 -0.000000 -0.158924
 27 22.856596 -0.000000 -0.000000 0.002045 -0.017341 0.044284
 28 3.601929 0.945456 -0.000000 0.000000 0.000000 1.570796
 29 0.493308 -0.000000 -0.000000 0.000000 0.000000 0.000000
 30 0.493308 -0.000000 -0.000000 0.000000 0.000000 0.000000
 31 0.493308 -0.000000 -0.000000 0.000000 0.000000 0.000000
 32 15.064892 -3.884749 0.008902 -1.570796 -1.570451 0.000000
 33 14.852527 -0.000002 54.017670 1.570796 0.000000 0.000000
time 13
  0 0.036525 0.766259 44.182770 0.000000 0.000000 -1.570795
  1 -0.000000 -0.000000 -44.165321 0.000000 0.000000 1.570795
  2 -0.268758 -0.000000 -2.177212 -1.570795 -1.570451 0.000000
  3 3.219551 0.967510 0.000001 -0.000004 -0.000002 -0.322090
  4 3.289383 -0.002251 -0.000000 -0.000000 -0.000001 0.287979
  5 2.948505 -0.004494 -0.000000 0.000000 0.000000 0.000000
  6 5.643323 -0.004356 -0.000000 -0.000000 0.000000 -0.026180
  7 5.472543 -0.001961 -0.000000 -0.000000 -0.000000 0.061087
  8 2.466539 0.000000 0.000000 -0.000000 -0.000000 0.051563
  9 7.340890 0.000000 -0.000000 0.000000 0.000000 0.000000
 10 0.000002 0.001961 1.065788 -0.000014 -1.370796 3.079723
 11 3.700498 -0.000000 -0.000000 0.129398 0.898689 0.129870
 12 8.731102 -0.000000 -0.000001 -0.000000 -0.000000 -0.069101
 13 7.308259 0.000000 0.000001 -1.570000 0.000000 0.000000
 14 0.000002 0.001967 -1.065788 -0.000014 1.370796 3.079696
 15 3.700497 -0.000000 -0.000002 -0.129398 -0.898689 0.129870
 16 8.731101 -0.000000 0.000000 0.000000 0.000000 -0.069101
 17 7.308259 -0.000000 -0.000001 1.570000 -0.000000 0.000000
 18 -2.747725 -1.936911 3.192928 0.000045 3.124131 0.207467
 19 15.660561 -0.000000 -0.000000 -0.000000 0.000000 -0.158924
 20 22.856596 -0.000000 0.000000 -0.002045 0.017341 0.044284
 21 3.601929 0.945456 -0.000000 0.000000 0.000000 1.570796
 22 0.493308 -0.000000 -0.000000 0.000000 0.000000 0.000000
 23 0.493308 -0.000000 -0.000000 0.000000 0.000000 0.000000
 24 0.493308 -0.000000 -0.000000 0.000000 -0.000000 3.141593
 25 -2.747725 -1.936893 -3.192935 -0.000051 -3.124132 0.207467
 26 15.660562 0.000000 0.000000 0.000000 -0.000000 -0.158924
 27 22.856596 -0.000000 -0.000000 0.002045 -0.017341 0.044284
 28 3.601929 0.945456 -0.000000 0.000000 0.000000 1.570796
 29 0.493308 -0.000000 -0.000000 0.000000 0.000000 0.000000
 30 0.493308 -0.000000 -0.000000 0.000000 0.000000 0.000000
 31 0.493308 -0.000000 -0.000000 0.000000 0.000000 0.000000
 32 15.064892 -3.884749 0.008902 -1.570796 -1.570451 0.000000
 33 14.852527 -0.000002 54.017670 1.570796 0.000000 0.000000
time 14
  0 0.036525 0.766259 44.182770 0.000000 0.000000 -1.570795
  1 -0.000000 -0.000000 -44.165321 0.000000 0.000000 1.570795
  2 -0.268758 -0.000000 -2.177212 -1.570795 -1.570451 0.000000
  3 3.219551 0.967510 0.000001 -0.000004 -0.000002 -0.322090
  4 3.289383 -0.002251 -0.000000 -0.000000 -0.000001 0.287979
  5 2.948505 -0.004494 -0.000000 0.000000 0.000000 0.000000
  6 5.643323 -0.004356 -0.000000 -0.000000 0.000000 -0.026180
  7 5.472543 -0.001961 -0.000000 -0.000000 -0.000000 0.061087
  8 2.466539 0.000000 0.000000 -0.000000 -0.000000 0.051563
  9 7.340890 0.000000 -0.000000 0.000000 0.000000 0.000000
 10 0.000002 0.001961 1.065788 -0.000014 -1.370796 3.079723
 11 3.700498 -0.000000 -0.000000 0.129398 0.898689 0.129870
 12 8.731102 -0.000000 -0.000001 -0.000000 -0.000000 -0.069101
 13 7.308259 0.000000 0.000001 -1.570000 0.000000 0.000000
 14 0.000002 0.001967 -1.065788 -0.000014 1.370796 3.079696
 15 3.700497 -0.000000 -0.000002 -0.129398 -0.898689 0.129870
 16 8.731101 -0.000000 0.000000 0.000000 0.000000 -0.069101
 17 7.308259 -0.000000 -0.000001 1.570000 -0.000000 0.000000
 18 -2.747725 -1.936911 3.192928 0.000045 3.124131 0.207467
 19 15.660561 -0.000000 -0.000000 -0.000000 0.000000 -0.158924
 20 22.856596 -0.000000 0.000000 -0.002045 0.017341 0.044284
 21 3.601929 0.945456 -0.000000 0.000000 0.000000 1.570796
 22 0.493308 -0.000000 -0.000000 0.000000 0.000000 0.000000
 23 0.493308 -0.000000 -0.000000 0.000000 0.000000 0.000000
 24 0.493308 -0.000000 -0.000000 0.000000 -0.000000 3.141593
 25 -2.747725 -1.936893 -3.192935 -0.000051 -3.124132 0.207467
 26 15.660562 0.000000 0.000000 0.000000 -0.000000 -0.158924
 27 22.856596 -0.000000 -0.000000 0.002045 -0.017341 0.044284
 28 3.601929 0.945456 -0.000000 0.000000 0.000000 1.570796
 29 0.493308 -0.000000 -0.000000 0.000000 0.000000 0.000000
 30 0.493308 -0.000000 -0.000000 0.000000 0.000000 0.000000
 31 0.493308 -0.000000 -0.000000 0.000000 0.000000 0.000000
 32 15.064892 -3.884749 0.008902 -1.570796 -1.570451 0.000000
 33 14.852527 -0.000002 54.017670 1.570796 0.000000 0.000000
time 15
  0 0.036525 0.766259 44.182770 0.000000 0.000000 -1.570795
  1 -0.000000 -0.000000 -44.165321 0.000000 0.000000 1.570795
  2 -0.268758 -0.000000 -2.177212 -1.570795 -1.570451 0.000000
  3 3.219551 0.967510 0.000001 -0.000004 -0.000002 -0.322090
  4 3.289383 -0.002251 -0.000000 -0.000000 -0.000001 0.287979
  5 2.948505 -0.004494 -0.000000 0.000000 0.000000 0.000000
  6 5.643323 -0.004356 -0.000000 -0.000000 0.000000 -0.026180
  7 5.472543 -0.001961 -0.000000 -0.000000 -0.000000 0.061087
  8 2.466539 0.000000 0.000000 -0.000000 -0.000000 0.051563
  9 7.340890 0.000000 -0.000000 0.000000 0.000000 0.000000
 10 0.000002 0.001961 1.065788 -0.000014 -1.370796 3.079723
 11 3.700498 -0.000000 -0.000000 0.129398 0.898689 0.129870
 12 8.731102 -0.000000 -0.000001 -0.000000 -0.000000 -0.069101
 13 7.308259 0.000000 0.000001 -1.570000 0.000000 0.000000
 14 0.000002 0.001967 -1.065788 -0.000014 1.370796 3.079696
 15 3.700497 -0.000000 -0.000002 -0.129398 -0.898689 0.129870
 16 8.731101 -0.000000 0.000000 0.000000 0.000000 -0.069101
 17 7.308259 -0.000000 -0.000001 1.570000 -0.000000 0.000000
 18 -2.747725 -1.936911 3.192928 0.000045 3.124131 0.207467
 19 15.660561 -0.000000 -0.000000 -0.000000 0.000000 -0.158924
 20 22.856596 -0.000000 0.000000 -0.002045 0.017341 0.044284
 21 3.601929 0.945456 -0.000000 0.000000 0.000000 1.570796
 22 0.493308 -0.000000 -0.000000 0.000000 0.000000 0.000000
 23 0.493308 -0.000000 -0.000000 0.000000 0.000000 0.000000
 24 0.493308 -0.000000 -0.000000 0.000000 -0.000000 3.141593
 25 -2.747725 -1.936893 -3.192935 -0.000051 -3.124132 0.207467
 26 15.660562 0.000000 0.000000 0.000000 -0.000000 -0.158924
 27 22.856596 -0.000000 -0.000000 0.002045 -0.017341 0.044284
 28 3.601929 0.945456 -0.000000 0.000000 0.000000 1.570796
 29 0.493308 -0.000000 -0.000000 0.000000 0.000000 0.000000
 30 0.493308 -0.000000 -0.000000 0.000000 0.000000 0.000000
 31 0.493308 -0.000000 -0.000000 0.000000 0.000000 0.000000
 32 15.064892 -3.884749 0.008902 -1.570796 -1.570451 0.000000
 33 14.852527 -0.000002 54.017670 1.570796 0.000000 0.000000
time 16
  0 0.036525 0.766259 44.182770 0.000000 0.000000 -1.570795
  1 -0.000000 -0.000000 -44.165321 0.000000 0.000000 1.570795
  2 -0.268758 -0.000000 -2.177212 -1.570795 -1.570451 0.000000
  3 3.219551 0.967510 0.000001 -0.000004 -0.000002 -0.322090
  4 3.289383 -0.002251 -0.000000 -0.000000 -0.000001 0.287979
  5 2.948505 -0.004494 -0.000000 0.000000 0.000000 0.000000
  6 5.643323 -0.004356 -0.000000 -0.000000 0.000000 -0.026180
  7 5.472543 -0.001961 -0.000000 -0.000000 -0.000000 0.061087
  8 2.466539 0.000000 0.000000 -0.000000 -0.000000 0.051563
  9 7.340890 0.000000 -0.000000 0.000000 0.000000 0.000000
 10 0.000002 0.001961 1.065788 -0.000014 -1.370796 3.079723
 11 3.700498 -0.000000 -0.000000 0.129398 0.898689 0.129870
 12 8.731102 -0.000000 -0.000001 -0.000000 -0.000000 -0.069101
 13 7.308259 0.000000 0.000001 -1.570000 0.000000 0.000000
 14 0.000002 0.001967 -1.065788 -0.000014 1.370796 3.079696
 15 3.700497 -0.000000 -0.000002 -0.129398 -0.898689 0.129870
 16 8.731101 -0.000000 0.000000 0.000000 0.000000 -0.069101
 17 7.308259 -0.000000 -0.000001 1.570000 -0.000000 0.000000
 18 -2.747725 -1.936911 3.192928 0.000045 3.124131 0.207467
 19 15.660561 -0.000000 -0.000000 -0.000000 0.000000 -0.158924
 20 22.856596 -0.000000 0.000000 -0.002045 0.017341 0.044284
 21 3.601929 0.945456 -0.000000 0.000000 0.000000 1.570796
 22 0.493308 -0.000000 -0.000000 0.000000 0.000000 0.000000
 23 0.493308 -0.000000 -0.000000 0.000000 0.000000 0.000000
 24 0.493308 -0.000000 -0.000000 0.000000 -0.000000 3.141593
 25 -2.747725 -1.936893 -3.192935 -0.000051 -3.124132 0.207467
 26 15.660562 0.000000 0.000000 0.000000 -0.000000 -0.158924
 27 22.856596 -0.000000 -0.000000 0.002045 -0.017341 0.044284
 28 3.601929 0.945456 -0.000000 0.000000 0.000000 1.570796
 29 0.493308 -0.000000 -0.000000 0.000000 0.000000 0.000000
 30 0.493308 -0.000000 -0.000000 0.000000 0.000000 0.000000
 31 0.493308 -0.000000 -0.000000 0.000000 0.000000 0.000000
 32 15.064892 -3.884749 0.008902 -1.570796 -1.570451 0.000000
 33 14.852527 -0.000002 54.017670 1.570796 0.000000 0.000000
time 17
  0 0.036525 0.766259 44.182770 0.000000 0.000000 -1.570795
  1 -0.000000 -0.000000 -44.165321 0.000000 0.000000 1.570795
  2 -0.268758 -0.000000 -2.177212 -1.570795 -1.570451 0.000000
  3 3.219551 0.967510 0.000001 -0.000004 -0.000002 -0.322090
  4 3.289383 -0.002251 -0.000000 -0.000000 -0.000001 0.287979
  5 2.948505 -0.004494 -0.000000 0.000000 0.000000 0.000000
  6 5.643323 -0.004356 -0.000000 -0.000000 0.000000 -0.026180
  7 5.472543 -0.001961 -0.000000 -0.000000 -0.000000 0.061087
  8 2.466539 0.000000 0.000000 -0.000000 -0.000000 0.051563
  9 7.340890 0.000000 -0.000000 0.000000 0.000000 0.000000
 10 0.000002 0.001961 1.065788 -0.000014 -1.370796 3.079723
 11 3.700498 -0.000000 -0.000000 0.129398 0.898689 0.129870
 12 8.731102 -0.000000 -0.000001 -0.000000 -0.000000 -0.069101
 13 7.308259 0.000000 0.000001 -1.570000 0.000000 0.000000
 14 0.000002 0.001967 -1.065788 -0.000014 1.370796 3.079696
 15 3.700497 -0.000000 -0.000002 -0.129398 -0.898689 0.129870
 16 8.731101 -0.000000 0.000000 0.000000 0.000000 -0.069101
 17 7.308259 -0.000000 -0.000001 1.570000 -0.000000 0.000000
 18 -2.747725 -1.936911 3.192928 0.000045 3.124131 0.207467
 19 15.660561 -0.000000 -0.000000 -0.000000 0.000000 -0.158924
 20 22.856596 -0.000000 0.000000 -0.002045 0.017341 0.044284
 21 3.601929 0.945456 -0.000000 0.000000 0.000000 1.570796
 22 0.493308 -0.000000 -0.000000 0.000000 0.000000 0.000000
 23 0.493308 -0.000000 -0.000000 0.000000 0.000000 0.000000
 24 0.493308 -0.000000 -0.000000 0.000000 -0.000000 3.141593
 25 -2.747725 -1.936893 -3.192935 -0.000051 -3.124132 0.207467
 26 15.660562 0.000000 0.000000 0.000000 -0.000000 -0.158924
 27 22.856596 -0.000000 -0.000000 0.002045 -0.017341 0.044284
 28 3.601929 0.945456 -0.000000 0.000000 0.000000 1.570796
 29 0.493308 -0.000000 -0.000000 0.000000 0.000000 0.000000
 30 0.493308 -0.000000 -0.000000 0.000000 0.000000 0.000000
 31 0.493308 -0.000000 -0.000000 0.000000 0.000000 0.000000
 32 15.064892 -3.884749 0.008902 -1.570796 -1.570451 0.000000
 33 14.852527 -0.000002 54.017670 1.570796 0.000000 0.000000
time 18
  0 0.036525 0.766259 44.182770 0.000000 0.000000 -1.570795
  1 -0.000000 -0.000000 -44.165321 0.000000 0.000000 1.570795
  2 -0.268758 -0.000000 -2.177212 -1.570795 -1.570451 0.000000
  3 3.219551 0.967510 0.000001 -0.000004 -0.000002 -0.322090
  4 3.289383 -0.002251 -0.000000 -0.000000 -0.000001 0.287979
  5 2.948505 -0.004494 -0.000000 0.000000 0.000000 0.000000
  6 5.643323 -0.004356 -0.000000 -0.000000 0.000000 -0.026180
  7 5.472543 -0.001961 -0.000000 -0.000000 -0.000000 0.061087
  8 2.466539 0.000000 0.000000 -0.000000 -0.000000 0.051563
  9 7.340890 0.000000 -0.000000 0.000000 0.000000 0.000000
 10 0.000002 0.001961 1.065788 -0.000014 -1.370796 3.079723
 11 3.700498 -0.000000 -0.000000 0.129398 0.898689 0.129870
 12 8.731102 -0.000000 -0.000001 -0.000000 -0.000000 -0.069101
 13 7.308259 0.000000 0.000001 -1.570000 0.000000 0.000000
 14 0.000002 0.001967 -1.065788 -0.000014 1.370796 3.079696
 15 3.700497 -0.000000 -0.000002 -0.129398 -0.898689 0.129870
 16 8.731101 -0.000000 0.000000 0.000000 0.000000 -0.069101
 17 7.308259 -0.000000 -0.000001 1.570000 -0.000000 0.000000
 18 -2.747725 -1.936911 3.192928 0.000045 3.124131 0.207467
 19 15.660561 -0.000000 -0.000000 -0.000000 0.000000 -0.158924
 20 22.856596 -0.000000 0.000000 -0.002045 0.017341 0.044284
 21 3.601929 0.945456 -0.000000 0.000000 0.000000 1.570796
 22 0.493308 -0.000000 -0.000000 0.000000 0.000000 0.000000
 23 0.493308 -0.000000 -0.000000 0.000000 0.000000 0.000000
 24 0.493308 -0.000000 -0.000000 0.000000 -0.000000 3.141593
 25 -2.747725 -1.936893 -3.192935 -0.000051 -3.124132 0.207467
 26 15.660562 0.000000 0.000000 0.000000 -0.000000 -0.158924
 27 22.856596 -0.000000 -0.000000 0.002045 -0.017341 0.044284
 28 3.601929 0.945456 -0.000000 0.000000 0.000000 1.570796
 29 0.493308 -0.000000 -0.000000 0.000000 0.000000 0.000000
 30 0.493308 -0.000000 -0.000000 0.000000 0.000000 0.000000
 31 0.493308 -0.000000 -0.000000 0.000000 0.000000 0.000000
 32 15.064892 -3.884749 0.008902 -1.570796 -1.570451 0.000000
 33 14.852527 -0.000002 54.017670 1.570796 0.000000 0.000000
time 19
  0 0.036525 0.766259 44.182770 0.000000 0.000000 -1.570795
  1 -0.000000 -0.000000 -44.165321 0.000000 0.000000 1.570795
  2 -0.268758 -0.000000 -2.177212 -1.570795 -1.570451 0.000000
  3 3.219551 0.967510 0.000001 -0.000004 -0.000002 -0.322090
  4 3.289383 -0.002251 -0.000000 -0.000000 -0.000001 0.287979
  5 2.948505 -0.004494 -0.000000 0.000000 0.000000 0.000000
  6 5.643323 -0.004356 -0.000000 -0.000000 0.000000 -0.026180
  7 5.472543 -0.001961 -0.000000 -0.000000 -0.000000 0.061087
  8 2.466539 0.000000 0.000000 -0.000000 -0.000000 0.051563
  9 7.340890 0.000000 -0.000000 0.000000 0.000000 0.000000
 10 0.000002 0.001961 1.065788 -0.000014 -1.370796 3.079723
 11 3.700498 -0.000000 -0.000000 0.129398 0.898689 0.129870
 12 8.731102 -0.000000 -0.000001 -0.000000 -0.000000 -0.069101
 13 7.308259 0.000000 0.000001 -1.570000 0.000000 0.000000
 14 0.000002 0.001967 -1.065788 -0.000014 1.370796 3.079696
 15 3.700497 -0.000000 -0.000002 -0.129398 -0.898689 0.129870
 16 8.731101 -0.000000 0.000000 0.000000 0.000000 -0.069101
 17 7.308259 -0.000000 -0.000001 1.570000 -0.000000 0.000000
 18 -2.747725 -1.936911 3.192928 0.000045 3.124131 0.207467
 19 15.660561 -0.000000 -0.000000 -0.000000 0.000000 -0.158924
 20 22.856596 -0.000000 0.000000 -0.002045 0.017341 0.044284
 21 3.601929 0.945456 -0.000000 0.000000 0.000000 1.570796
 22 0.493308 -0.000000 -0.000000 0.000000 0.000000 0.000000
 23 0.493308 -0.000000 -0.000000 0.000000 0.000000 0.000000
 24 0.493308 -0.000000 -0.000000 0.000000 -0.000000 3.141593
 25 -2.747725 -1.936893 -3.192935 -0.000051 -3.124132 0.207467
 26 15.660562 0.000000 0.000000 0.000000 -0.000000 -0.158924
 27 22.856596 -0.000000 -0.000000 0.002045 -0.017341 0.044284
 28 3.601929 0.945456 -0.000000 0.000000 0.000000 1.570796
 29 0.493308 -0.000000 -0.000000 0.000000 0.000000 0.000000
 30 0.493308 -0.000000 -0.000000 0.000000 0.000000 0.000000
 31 0.493308 -0.000000 -0.000000 0.000000 0.000000 0.000000
 32 15.064892 -3.884749 0.008902 -1.570796 -1.570451 0.000000
 33 14.852527 -0.000002 54.017670 1.570796 0.000000 0.000000
time 20
  0 0.036525 0.766259 44.182770 0.000000 0.000000 -1.570795
  1 -0.000000 -0.000000 -44.165321 0.000000 0.000000 1.570795
  2 -0.268758 -0.000000 -2.177212 -1.570795 -1.570451 0.000000
  3 3.219551 0.967510 0.000001 -0.000004 -0.000002 -0.322090
  4 3.289383 -0.002251 -0.000000 -0.000000 -0.000001 0.287979
  5 2.948505 -0.004494 -0.000000 0.000000 0.000000 0.000000
  6 5.643323 -0.004356 -0.000000 -0.000000 0.000000 -0.026180
  7 5.472543 -0.001961 -0.000000 -0.000000 -0.000000 0.061087
  8 2.466539 0.000000 0.000000 -0.000000 -0.000000 0.051563
  9 7.340890 0.000000 -0.000000 0.000000 0.000000 0.000000
 10 0.000002 0.001961 1.065788 -0.000014 -1.370796 3.079723
 11 3.700498 -0.000000 -0.000000 0.129398 0.898689 0.129870
 12 8.731102 -0.000000 -0.000001 -0.000000 -0.000000 -0.069101
 13 7.308259 0.000000 0.000001 -1.570000 0.000000 0.000000
 14 0.000002 0.001967 -1.065788 -0.000014 1.370796 3.079696
 15 3.700497 -0.000000 -0.000002 -0.129398 -0.898689 0.129870
 16 8.731101 -0.000000 0.000000 0.000000 0.000000 -0.069101
 17 7.308259 -0.000000 -0.000001 1.570000 -0.000000 0.000000
 18 -2.747725 -1.936911 3.192928 0.000045 3.124131 0.207467
 19 15.660561 -0.000000 -0.000000 -0.000000 0.000000 -0.158924
 20 22.856596 -0.000000 0.000000 -0.002045 0.017341 0.044284
 21 3.601929 0.945456 -0.000000 0.000000 0.000000 1.570796
 22 0.493308 -0.000000 -0.000000 0.000000 0.000000 0.000000
 23 0.493308 -0.000000 -0.000000 0.000000 0.000000 0.000000
 24 0.493308 -0.000000 -0.000000 0.000000 -0.000000 3.141593
 25 -2.747725 -1.936893 -3.192935 -0.000051 -3.124132 0.207467
 26 15.660562 0.000000 0.000000 0.000000 -0.000000 -0.158924
 27 22.856596 -0.000000 -0.000000 0.002045 -0.017341 0.044284
 28 3.601929 0.945456 -0.000000 0.000000 0.000000 1.570796
 29 0.493308 -0.000000 -0.000000 0.000000 0.000000 0.000000
 30 0.493308 -0.000000 -0.000000 0.000000 0.000000 0.000000
 31 0.493308 -0.000000 -0.000000 0.000000 0.000000 0.000000
 32 15.064892 -3.884749 0.008902 -1.570796 -1.570451 0.000000
 33 14.852527 -0.000002 54.017670 1.570796 0.000000 0.000000
time 21
  0 0.036525 0.766259 44.182770 0.000000 0.000000 -1.570795
  1 -0.000000 -0.000000 -44.165321 0.000000 0.000000 1.570795
  2 -0.268758 -0.000000 -2.177212 -1.570795 -1.570451 0.000000
  3 3.219551 0.967510 0.000001 -0.000004 -0.000002 -0.322090
  4 3.289383 -0.002251 -0.000000 -0.000000 -0.000001 0.287979
  5 2.948505 -0.004494 -0.000000 0.000000 0.000000 0.000000
  6 5.643323 -0.004356 -0.000000 -0.000000 0.000000 -0.026180
  7 5.472543 -0.001961 -0.000000 -0.000000 -0.000000 0.061087
  8 2.466539 0.000000 0.000000 -0.000000 -0.000000 0.051563
  9 7.340890 0.000000 -0.000000 0.000000 0.000000 0.000000
 10 0.000002 0.001961 1.065788 -0.000014 -1.370796 3.079723
 11 3.700498 -0.000000 -0.000000 0.129398 0.898689 0.129870
 12 8.731102 -0.000000 -0.000001 -0.000000 -0.000000 -0.069101
 13 7.308259 0.000000 0.000001 -1.570000 0.000000 0.000000
 14 0.000002 0.001967 -1.065788 -0.000014 1.370796 3.079696
 15 3.700497 -0.000000 -0.000002 -0.129398 -0.898689 0.129870
 16 8.731101 -0.000000 0.000000 0.000000 0.000000 -0.069101
 17 7.308259 -0.000000 -0.000001 1.570000 -0.000000 0.000000
 18 -2.747725 -1.936911 3.192928 0.000045 3.124131 0.207467
 19 15.660561 -0.000000 -0.000000 -0.000000 0.000000 -0.158924
 20 22.856596 -0.000000 0.000000 -0.002045 0.017341 0.044284
 21 3.601929 0.945456 -0.000000 0.000000 0.000000 1.570796
 22 0.493308 -0.000000 -0.000000 0.000000 0.000000 0.000000
 23 0.493308 -0.000000 -0.000000 0.000000 0.000000 0.000000
 24 0.493308 -0.000000 -0.000000 0.000000 -0.000000 3.141593
 25 -2.747725 -1.936893 -3.192935 -0.000051 -3.124132 0.207467
 26 15.660562 0.000000 0.000000 0.000000 -0.000000 -0.158924
 27 22.856596 -0.000000 -0.000000 0.002045 -0.017341 0.044284
 28 3.601929 0.945456 -0.000000 0.000000 0.000000 1.570796
 29 0.493308 -0.000000 -0.000000 0.000000 0.000000 0.000000
 30 0.493308 -0.000000 -0.000000 0.000000 0.000000 0.000000
 31 0.493308 -0.000000 -0.000000 0.000000 0.000000 0.000000
 32 15.064892 -3.884749 0.008902 -1.570796 -1.570451 0.000000
 33 14.852527 -0.000002 54.017670 1.570796 0.000000 0.000000
time 22
  0 0.036525 0.766259 44.182770 0.000000 0.000000 -1.570795
  1 -0.000000 -0.000000 -44.165321 0.000000 0.000000 1.570795
  2 -0.268758 -0.000000 -2.177212 -1.570795 -1.570451 0.000000
  3 3.219551 0.967510 0.000001 -0.000004 -0.000002 -0.322090
  4 3.289383 -0.002251 -0.000000 -0.000000 -0.000001 0.287979
  5 2.948505 -0.004494 -0.000000 0.000000 0.000000 0.000000
  6 5.643323 -0.004356 -0.000000 -0.000000 0.000000 -0.026180
  7 5.472543 -0.001961 -0.000000 -0.000000 -0.000000 0.061087
  8 2.466539 0.000000 0.000000 -0.000000 -0.000000 0.051563
  9 7.340890 0.000000 -0.000000 0.000000 0.000000 0.000000
 10 0.000002 0.001961 1.065788 -0.000014 -1.370796 3.079723
 11 3.700498 -0.000000 -0.000000 0.129398 0.898689 0.129870
 12 8.731102 -0.000000 -0.000001 -0.000000 -0.000000 -0.069101
 13 7.308259 0.000000 0.000001 -1.570000 0.000000 0.000000
 14 0.000002 0.001967 -1.065788 -0.000014 1.370796 3.079696
 15 3.700497 -0.000000 -0.000002 -0.129398 -0.898689 0.129870
 16 8.731101 -0.000000 0.000000 0.000000 0.000000 -0.069101
 17 7.308259 -0.000000 -0.000001 1.570000 -0.000000 0.000000
 18 -2.747725 -1.936911 3.192928 0.000045 3.124131 0.207467
 19 15.660561 -0.000000 -0.000000 -0.000000 0.000000 -0.158924
 20 22.856596 -0.000000 0.000000 -0.002045 0.017341 0.044284
 21 3.601929 0.945456 -0.000000 0.000000 0.000000 1.570796
 22 0.493308 -0.000000 -0.000000 0.000000 0.000000 0.000000
 23 0.493308 -0.000000 -0.000000 0.000000 0.000000 0.000000
 24 0.493308 -0.000000 -0.000000 0.000000 -0.000000 3.141593
 25 -2.747725 -1.936893 -3.192935 -0.000051 -3.124132 0.207467
 26 15.660562 0.000000 0.000000 0.000000 -0.000000 -0.158924
 27 22.856596 -0.000000 -0.000000 0.002045 -0.017341 0.044284
 28 3.601929 0.945456 -0.000000 0.000000 0.000000 1.570796
 29 0.493308 -0.000000 -0.000000 0.000000 0.000000 0.000000
 30 0.493308 -0.000000 -0.000000 0.000000 0.000000 0.000000
 31 0.493308 -0.000000 -0.000000 0.000000 0.000000 0.000000
 32 15.064892 -3.884749 0.008902 -1.570796 -1.570451 0.000000
 33 14.852527 -0.000002 54.017670 1.570796 0.000000 0.000000
time 23
  0 0.036525 0.766259 44.182770 0.000000 0.000000 -1.570795
  1 -0.000000 -0.000000 -44.165321 0.000000 0.000000 1.570795
  2 -0.268758 -0.000000 -2.177212 -1.570795 -1.570451 0.000000
  3 3.219551 0.967510 0.000001 -0.000004 -0.000002 -0.322090
  4 3.289383 -0.002251 -0.000000 -0.000000 -0.000001 0.287979
  5 2.948505 -0.004494 -0.000000 0.000000 0.000000 0.000000
  6 5.643323 -0.004356 -0.000000 -0.000000 0.000000 -0.026180
  7 5.472543 -0.001961 -0.000000 -0.000000 -0.000000 0.061087
  8 2.466539 0.000000 0.000000 -0.000000 -0.000000 0.051563
  9 7.340890 0.000000 -0.000000 0.000000 0.000000 0.000000
 10 0.000002 0.001961 1.065788 -0.000014 -1.370796 3.079723
 11 3.700498 -0.000000 -0.000000 0.129398 0.898689 0.129870
 12 8.731102 -0.000000 -0.000001 -0.000000 -0.000000 -0.069101
 13 7.308259 0.000000 0.000001 -1.570000 0.000000 0.000000
 14 0.000002 0.001967 -1.065788 -0.000014 1.370796 3.079696
 15 3.700497 -0.000000 -0.000002 -0.129398 -0.898689 0.129870
 16 8.731101 -0.000000 0.000000 0.000000 0.000000 -0.069101
 17 7.308259 -0.000000 -0.000001 1.570000 -0.000000 0.000000
 18 -2.747725 -1.936911 3.192928 0.000045 3.124131 0.207467
 19 15.660561 -0.000000 -0.000000 -0.000000 0.000000 -0.158924
 20 22.856596 -0.000000 0.000000 -0.002045 0.017341 0.044284
 21 3.601929 0.945456 -0.000000 0.000000 0.000000 1.570796
 22 0.493308 -0.000000 -0.000000 0.000000 0.000000 0.000000
 23 0.493308 -0.000000 -0.000000 0.000000 0.000000 0.000000
 24 0.493308 -0.000000 -0.000000 0.000000 -0.000000 3.141593
 25 -2.747725 -1.936893 -3.192935 -0.000051 -3.124132 0.207467
 26 15.660562 0.000000 0.000000 0.000000 -0.000000 -0.158924
 27 22.856596 -0.000000 -0.000000 0.002045 -0.017341 0.044284
 28 3.601929 0.945456 -0.000000 0.000000 0.000000 1.570796
 29 0.493308 -0.000000 -0.000000 0.000000 0.000000 0.000000
 30 0.493308 -0.000000 -0.000000 0.000000 0.000000 0.000000
 31 0.493308 -0.000000 -0.000000 0.000000 0.000000 0.000000
 32 15.064892 -3.884749 0.008902 -1.570796 -1.570451 0.000000
 33 14.852527 -0.000002 54.017670 1.570796 0.000000 0.000000
time 24
  0 0.036525 0.766259 44.182770 0.000000 0.000000 -1.570795
  1 -0.000000 -0.000000 -44.165321 0.000000 0.000000 1.570795
  2 -0.268758 -0.000000 -2.177212 -1.570795 -1.570451 0.000000
  3 3.219551 0.967510 0.000001 -0.000004 -0.000002 -0.322090
  4 3.289383 -0.002251 -0.000000 -0.000000 -0.000001 0.287979
  5 2.948505 -0.004494 -0.000000 0.000000 0.000000 0.000000
  6 5.643323 -0.004356 -0.000000 -0.000000 0.000000 -0.026180
  7 5.472543 -0.001961 -0.000000 -0.000000 -0.000000 0.061087
  8 2.466539 0.000000 0.000000 -0.000000 -0.000000 0.051563
  9 7.340890 0.000000 -0.000000 0.000000 0.000000 0.000000
 10 0.000002 0.001961 1.065788 -0.000014 -1.370796 3.079723
 11 3.700498 -0.000000 -0.000000 0.129398 0.898689 0.129870
 12 8.731102 -0.000000 -0.000001 -0.000000 -0.000000 -0.069101
 13 7.308259 0.000000 0.000001 -1.570000 0.000000 0.000000
 14 0.000002 0.001967 -1.065788 -0.000014 1.370796 3.079696
 15 3.700497 -0.000000 -0.000002 -0.129398 -0.898689 0.129870
 16 8.731101 -0.000000 0.000000 0.000000 0.000000 -0.069101
 17 7.308259 -0.000000 -0.000001 1.570000 -0.000000 0.000000
 18 -2.747725 -1.936911 3.192928 0.000045 3.124131 0.207467
 19 15.660561 -0.000000 -0.000000 -0.000000 0.000000 -0.158924
 20 22.856596 -0.000000 0.000000 -0.002045 0.017341 0.044284
 21 3.601929 0.945456 -0.000000 0.000000 0.000000 1.570796
 22 0.493308 -0.000000 -0.000000 0.000000 0.000000 0.000000
 23 0.493308 -0.000000 -0.000000 0.000000 0.000000 0.000000
 24 0.493308 -0.000000 -0.000000 0.000000 -0.000000 3.141593
 25 -2.747725 -1.936893 -3.192935 -0.000051 -3.124132 0.207467
 26 15.660562 0.000000 0.000000 0.000000 -0.000000 -0.158924
 27 22.856596 -0.000000 -0.000000 0.002045 -0.017341 0.044284
 28 3.601929 0.945456 -0.000000 0.000000 0.000000 1.570796
 29 0.493308 -0.000000 -0.000000 0.000000 0.000000 0.000000
 30 0.493308 -0.000000 -0.000000 0.000000 0.000000 0.000000
 31 0.493308 -0.000000 -0.000000 0.000000 0.000000 0.000000
 32 15.064892 -3.884749 0.008902 -1.570796 -1.570451 0.000000
 33 14.852527 -0.000002 54.017670 1.570796 0.000000 0.000000
time 25
  0 0.036525 0.766259 44.182770 0.000000 0.000000 -1.570795
  1 -0.000000 -0.000000 -44.165321 0.000000 0.000000 1.570795
  2 -0.268758 -0.000000 -2.177212 -1.570795 -1.570451 0.000000
  3 3.219551 0.967510 0.000001 -0.000004 -0.000002 -0.322090
  4 3.289383 -0.002251 -0.000000 -0.000000 -0.000001 0.287979
  5 2.948505 -0.004494 -0.000000 0.000000 0.000000 0.000000
  6 5.643323 -0.004356 -0.000000 -0.000000 0.000000 -0.026180
  7 5.472543 -0.001961 -0.000000 -0.000000 -0.000000 0.061087
  8 2.466539 0.000000 0.000000 -0.000000 -0.000000 0.051563
  9 7.340890 0.000000 -0.000000 0.000000 0.000000 0.000000
 10 0.000002 0.001961 1.065788 -0.000014 -1.370796 3.079723
 11 3.700498 -0.000000 -0.000000 0.129398 0.898689 0.129870
 12 8.731102 -0.000000 -0.000001 -0.000000 -0.000000 -0.069101
 13 7.308259 0.000000 0.000001 -1.570000 0.000000 0.000000
 14 0.000002 0.001967 -1.065788 -0.000014 1.370796 3.079696
 15 3.700497 -0.000000 -0.000002 -0.129398 -0.898689 0.129870
 16 8.731101 -0.000000 0.000000 0.000000 0.000000 -0.069101
 17 7.308259 -0.000000 -0.000001 1.570000 -0.000000 0.000000
 18 -2.747725 -1.936911 3.192928 0.000045 3.124131 0.207467
 19 15.660561 -0.000000 -0.000000 -0.000000 0.000000 -0.158924
 20 22.856596 -0.000000 0.000000 -0.002045 0.017341 0.044284
 21 3.601929 0.945456 -0.000000 0.000000 0.000000 1.570796
 22 0.493308 -0.000000 -0.000000 0.000000 0.000000 0.000000
 23 0.493308 -0.000000 -0.000000 0.000000 0.000000 0.000000
 24 0.493308 -0.000000 -0.000000 0.000000 -0.000000 3.141593
 25 -2.747725 -1.936893 -3.192935 -0.000051 -3.124132 0.207467
 26 15.660562 0.000000 0.000000 0.000000 -0.000000 -0.158924
 27 22.856596 -0.000000 -0.000000 0.002045 -0.017341 0.044284
 28 3.601929 0.945456 -0.000000 0.000000 0.000000 1.570796
 29 0.493308 -0.000000 -0.000000 0.000000 0.000000 0.000000
 30 0.493308 -0.000000 -0.000000 0.000000 0.000000 0.000000
 31 0.493308 -0.000000 -0.000000 0.000000 0.000000 0.000000
 32 15.064892 -3.884749 0.008902 -1.570796 -1.570451 0.000000
 33 14.852527 -0.000002 54.017670 1.570796 0.000000 0.000000
time 26
  0 0.036525 0.766259 44.182770 0.000000 0.000000 -1.570795
  1 -0.000000 -0.000000 -44.165321 0.000000 0.000000 1.570795
  2 -0.268758 -0.000000 -2.177212 -1.570795 -1.570451 0.000000
  3 3.219551 0.967510 0.000001 -0.000004 -0.000002 -0.322090
  4 3.289383 -0.002251 -0.000000 -0.000000 -0.000001 0.287979
  5 2.948505 -0.004494 -0.000000 0.000000 0.000000 0.000000
  6 5.643323 -0.004356 -0.000000 -0.000000 0.000000 -0.026180
  7 5.472543 -0.001961 -0.000000 -0.000000 -0.000000 0.061087
  8 2.466539 0.000000 0.000000 -0.000000 -0.000000 0.051563
  9 7.340890 0.000000 -0.000000 0.000000 0.000000 0.000000
 10 0.000002 0.001961 1.065788 -0.000014 -1.370796 3.079723
 11 3.700498 -0.000000 -0.000000 0.129398 0.898689 0.129870
 12 8.731102 -0.000000 -0.000001 -0.000000 -0.000000 -0.069101
 13 7.308259 0.000000 0.000001 -1.570000 0.000000 0.000000
 14 0.000002 0.001967 -1.065788 -0.000014 1.370796 3.079696
 15 3.700497 -0.000000 -0.000002 -0.129398 -0.898689 0.129870
 16 8.731101 -0.000000 0.000000 0.000000 0.000000 -0.069101
 17 7.308259 -0.000000 -0.000001 1.570000 -0.000000 0.000000
 18 -2.747725 -1.936911 3.192928 0.000045 3.124131 0.207467
 19 15.660561 -0.000000 -0.000000 -0.000000 0.000000 -0.158924
 20 22.856596 -0.000000 0.000000 -0.002045 0.017341 0.044284
 21 3.601929 0.945456 -0.000000 0.000000 0.000000 1.570796
 22 0.493308 -0.000000 -0.000000 0.000000 0.000000 0.000000
 23 0.493308 -0.000000 -0.000000 0.000000 0.000000 0.000000
 24 0.493308 -0.000000 -0.000000 0.000000 -0.000000 3.141593
 25 -2.747725 -1.936893 -3.192935 -0.000051 -3.124132 0.207467
 26 15.660562 0.000000 0.000000 0.000000 -0.000000 -0.158924
 27 22.856596 -0.000000 -0.000000 0.002045 -0.017341 0.044284
 28 3.601929 0.945456 -0.000000 0.000000 0.000000 1.570796
 29 0.493308 -0.000000 -0.000000 0.000000 0.000000 0.000000
 30 0.493308 -0.000000 -0.000000 0.000000 0.000000 0.000000
 31 0.493308 -0.000000 -0.000000 0.000000 0.000000 0.000000
 32 15.064892 -3.884749 0.008902 -1.570796 -1.570451 0.000000
 33 14.852527 -0.000002 54.017670 1.570796 0.000000 0.000000
time 27
  0 0.036525 0.766259 44.182770 0.000000 0.000000 -1.570795
  1 -0.000000 -0.000000 -44.165321 0.000000 0.000000 1.570795
  2 -0.268758 -0.000000 -2.177212 -1.570795 -1.570451 0.000000
  3 3.219551 0.967510 0.000001 -0.000004 -0.000002 -0.322090
  4 3.289383 -0.002251 -0.000000 -0.000000 -0.000001 0.287979
  5 2.948505 -0.004494 -0.000000 0.000000 0.000000 0.000000
  6 5.643323 -0.004356 -0.000000 -0.000000 0.000000 -0.026180
  7 5.472543 -0.001961 -0.000000 -0.000000 -0.000000 0.061087
  8 2.466539 0.000000 0.000000 -0.000000 -0.000000 0.051563
  9 7.340890 0.000000 -0.000000 0.000000 0.000000 0.000000
 10 0.000002 0.001961 1.065788 -0.000014 -1.370796 3.079723
 11 3.700498 -0.000000 -0.000000 0.129398 0.898689 0.129870
 12 8.731102 -0.000000 -0.000001 -0.000000 -0.000000 -0.069101
 13 7.308259 0.000000 0.000001 -1.570000 0.000000 0.000000
 14 0.000002 0.001967 -1.065788 -0.000014 1.370796 3.079696
 15 3.700497 -0.000000 -0.000002 -0.129398 -0.898689 0.129870
 16 8.731101 -0.000000 0.000000 0.000000 0.000000 -0.069101
 17 7.308259 -0.000000 -0.000001 1.570000 -0.000000 0.000000
 18 -2.747725 -1.936911 3.192928 0.000045 3.124131 0.207467
 19 15.660561 -0.000000 -0.000000 -0.000000 0.000000 -0.158924
 20 22.856596 -0.000000 0.000000 -0.002045 0.017341 0.044284
 21 3.601929 0.945456 -0.000000 0.000000 0.000000 1.570796
 22 0.493308 -0.000000 -0.000000 0.000000 0.000000 0.000000
 23 0.493308 -0.000000 -0.000000 0.000000 0.000000 0.000000
 24 0.493308 -0.000000 -0.000000 0.000000 -0.000000 3.141593
 25 -2.747725 -1.936893 -3.192935 -0.000051 -3.124132 0.207467
 26 15.660562 0.000000 0.000000 0.000000 -0.000000 -0.158924
 27 22.856596 -0.000000 -0.000000 0.002045 -0.017341 0.044284
 28 3.601929 0.945456 -0.000000 0.000000 0.000000 1.570796
 29 0.493308 -0.000000 -0.000000 0.000000 0.000000 0.000000
 30 0.493308 -0.000000 -0.000000 0.000000 0.000000 0.000000
 31 0.493308 -0.000000 -0.000000 0.000000 0.000000 0.000000
 32 15.064892 -3.884749 0.008902 -1.570796 -1.570451 0.000000
 33 14.852527 -0.000002 54.017670 1.570796 0.000000 0.000000
time 28
  0 0.036525 0.766259 44.182770 0.000000 0.000000 -1.570795
  1 -0.000000 -0.000000 -44.165321 0.000000 0.000000 1.570795
  2 -0.268758 -0.000000 -2.177212 -1.570795 -1.570451 0.000000
  3 3.219551 0.967510 0.000001 -0.000004 -0.000002 -0.322090
  4 3.289383 -0.002251 -0.000000 -0.000000 -0.000001 0.287979
  5 2.948505 -0.004494 -0.000000 0.000000 0.000000 0.000000
  6 5.643323 -0.004356 -0.000000 -0.000000 0.000000 -0.026180
  7 5.472543 -0.001961 -0.000000 -0.000000 -0.000000 0.061087
  8 2.466539 0.000000 0.000000 -0.000000 -0.000000 0.051563
  9 7.340890 0.000000 -0.000000 0.000000 0.000000 0.000000
 10 0.000002 0.001961 1.065788 -0.000014 -1.370796 3.079723
 11 3.700498 -0.000000 -0.000000 0.129398 0.898689 0.129870
 12 8.731102 -0.000000 -0.000001 -0.000000 -0.000000 -0.069101
 13 7.308259 0.000000 0.000001 -1.570000 0.000000 0.000000
 14 0.000002 0.001967 -1.065788 -0.000014 1.370796 3.079696
 15 3.700497 -0.000000 -0.000002 -0.129398 -0.898689 0.129870
 16 8.731101 -0.000000 0.000000 0.000000 0.000000 -0.069101
 17 7.308259 -0.000000 -0.000001 1.570000 -0.000000 0.000000
 18 -2.747725 -1.936911 3.192928 0.000045 3.124131 0.207467
 19 15.660561 -0.000000 -0.000000 -0.000000 0.000000 -0.158924
 20 22.856596 -0.000000 0.000000 -0.002045 0.017341 0.044284
 21 3.601929 0.945456 -0.000000 0.000000 0.000000 1.570796
 22 0.493308 -0.000000 -0.000000 0.000000 0.000000 0.000000
 23 0.493308 -0.000000 -0.000000 0.000000 0.000000 0.000000
 24 0.493308 -0.000000 -0.000000 0.000000 -0.000000 3.141593
 25 -2.747725 -1.936893 -3.192935 -0.000051 -3.124132 0.207467
 26 15.660562 0.000000 0.000000 0.000000 -0.000000 -0.158924
 27 22.856596 -0.000000 -0.000000 0.002045 -0.017341 0.044284
 28 3.601929 0.945456 -0.000000 0.000000 0.000000 1.570796
 29 0.493308 -0.000000 -0.000000 0.000000 0.000000 0.000000
 30 0.493308 -0.000000 -0.000000 0.000000 0.000000 0.000000
 31 0.493308 -0.000000 -0.000000 0.000000 0.000000 0.000000
 32 15.064892 -3.884749 0.008902 -1.570796 -1.570451 0.000000
 33 14.852527 -0.000002 54.017670 1.570796 0.000000 0.000000
end
