version 1
nodes
  0 "Bip01"  -1
  1 "Bip01 Footsteps"   0
  2 "Bip01 Pelvis"   0
  3 "Bip01 Spine"   2
  4 "Bip01 Spine1"   3
  5 "Bip01 Spine2"   4
  6 "Bip01 Spine3"   5
  7 "Bip01 Neck"   6
  8 "Bip01 Head"   7
  9 "Dummy03"   8
 10 "Bip01 L Clavicle"   7
 11 "Bip01 L UpperArm"  10
 12 "Bip01 L Forearm"  11
 13 "Bip01 L Hand"  12
 14 "Bip01 R Clavicle"   7
 15 "Bip01 R UpperArm"  14
 16 "Bip01 R Forearm"  15
 17 "Bip01 R Hand"  16
 18 "Bip01 L Thigh"   3
 19 "Bip01 L Calf"  18
 20 "Bip01 L Foot"  19
 21 "Bip01 L Toe0"  20
 22 "Bip01 L Toe01"  21
 23 "Bip01 L Toe02"  22
 24 "Dummy02"  23
 25 "Bip01 R Thigh"   3
 26 "Bip01 R Calf"  25
 27 "Bip01 R Foot"  26
 28 "Bip01 R Toe0"  27
 29 "Bip01 R Toe01"  28
 30 "Bip01 R Toe02"  29
 31 "Dummy01"  30
 32 "Stalker_Mesh"   2
 33 "Line01"  -1
 34 "Point01"  -1
 35 "Point02"  -1
 36 "Point03"  -1
end
skeleton
time 24
  0 0.708473 3.971588 40.315998 0.000000 0.000000 -1.797688
  1 -0.000000 -0.000000 -40.654617 0.000000 0.000000 1.797688
  2 -0.268758 -0.000000 -2.177212 0.000000 -1.404989 -1.570795
  3 3.178040 0.968142 0.531837 -0.125250 -0.213488 0.805161
  4 3.288883 -0.002329 -0.000251 0.106998 -0.030718 0.068141
  5 2.945742 -0.003535 -0.000248 0.055169 0.026243 -0.662501
  6 5.643317 -0.004355 -0.000000 -0.000000 0.000000 -0.026180
  7 5.473225 -0.001795 -0.000000 -0.000000 -0.000001 0.418879
  8 2.466536 0.000000 -0.000000 0.009921 -0.014380 -0.540259
  9 7.340895 0.000000 0.000000 0.000000 0.000000 0.000000
 10 -0.000001 0.001962 1.065788 -0.000013 -1.370797 2.721930
 11 3.700498 -0.000000 0.000001 0.468367 0.823114 0.442885
 12 8.731103 0.000001 -0.000000 -0.000000 0.000000 -1.658822
 13 7.308258 -0.000000 0.000000 -1.570000 -0.000000 -0.000000
 14 -0.000000 0.001967 -1.065788 -0.000013 1.370795 2.721905
 15 3.700499 -0.000000 -0.000000 0.651536 -0.672626 -0.475128
 16 8.731105 0.000000 0.000001 -0.000000 -0.000000 -0.554377
 17 7.308257 -0.000002 0.000002 1.570000 -0.000000 0.000000
 18 -2.270690 1.205932 3.392400 -0.045560 -2.747883 -1.313493
 19 15.660563 0.000001 0.000000 0.000000 -0.000000 -0.423453
 20 22.856596 -0.000000 -0.000000 0.305988 -0.243557 -0.131392
 21 3.601930 0.945456 -0.000000 0.000000 -0.000000 1.570796
 22 0.493308 -0.000000 0.000000 0.000000 -0.000000 0.000000
 23 0.493308 -0.000000 -0.000001 0.000000 -0.000000 0.000000
 24 0.493309 0.000000 0.000000 0.000000 0.000000 3.141593
 25 -3.623661 1.985549 -2.799605 0.358228 2.872628 -0.706059
 26 15.660563 -0.000000 -0.000001 -0.000000 -0.000000 -0.459263
 27 22.856594 -0.000000 -0.000000 -0.292313 0.348663 0.416652
 28 3.601929 0.945455 0.000000 0.000000 0.000000 1.570796
 29 0.493308 -0.000000 0.000000 0.000000 0.000000 0.000000
 30 0.493309 0.000000 -0.000000 0.000000 0.000000 0.000000
 31 0.493308 0.000000 -0.000000 0.000000 0.000000 0.000000
 32 -5.105992 -0.396904 -0.036603 -3.141593 -1.570796 0.000000
 33 14.852527 -0.000002 54.017670 1.570796 0.000000 0.000000
 34 3.678560 -0.000003 64.268242 1.570796 0.000000 0.000000
 35 0.000000 -8.157270 -0.187947 1.570796 0.000000 1.570796
 36 0.000002 -38.449059 -0.156140 1.570796 0.000000 1.570796
time 25
  0 0.699100 2.177769 40.622135 0.000000 0.000000 -1.771046
  1 -0.000000 -0.000000 -40.960754 0.000000 0.000000 1.771046
  2 -0.268758 0.000000 -2.177212 0.000000 -1.432573 -1.570795
  3 3.191209 0.967901 0.444043 -0.128014 -0.175874 0.657359
  4 3.288878 -0.002340 -0.000120 0.051204 0.006074 0.068451
  5 2.946158 -0.003822 -0.000212 0.047245 0.018008 -0.548596
  6 5.643324 -0.004357 -0.000000 -0.000000 0.000000 -0.026180
  7 5.473226 -0.001795 -0.000000 -0.000000 -0.000001 0.418879
  8 2.466535 0.000000 -0.000000 0.110680 0.019366 -0.508985
  9 7.340890 0.000000 -0.000000 0.000000 0.000000 0.000000
 10 -0.000002 0.001961 1.065788 -0.000013 -1.370797 2.721930
 11 3.700498 -0.000000 -0.000000 0.265426 0.790222 0.365491
 12 8.731100 0.000000 0.000000 0.000000 0.000000 -1.419579
 13 7.308258 0.000000 0.000001 -1.570000 -0.000000 -0.000000
 14 -0.000001 0.001967 -1.065788 -0.000013 1.370795 2.721905
 15 3.700498 -0.000000 0.000002 0.466770 -0.770082 -0.351059
 16 8.731100 -0.000000 0.000000 -0.000000 -0.000000 -0.880805
 17 7.308259 0.000001 0.000001 1.570000 -0.000000 -0.000000
 18 -2.588540 0.758882 3.376478 -0.104602 -2.717258 -1.149315
 19 15.660560 0.000001 0.000001 -0.000000 -0.000000 -0.481161
 20 22.856596 -0.000001 0.000001 0.333586 -0.238187 -0.069317
 21 3.601930 0.945457 0.000000 -0.000000 0.000000 1.570796
 22 0.493307 -0.000000 0.000001 0.000000 0.000000 0.000000
 23 0.493308 0.000000 -0.000001 0.000000 0.000000 0.000000
 24 0.493309 -0.000000 0.000000 0.000000 -0.000000 3.141593
 25 -3.705865 1.561542 -2.859432 0.163062 2.939390 -0.730292
 26 15.660563 0.000000 -0.000001 -0.000000 -0.000000 -0.613392
 27 22.856598 0.000000 -0.000002 -0.182414 0.262353 0.480654
 28 3.601930 0.945456 -0.000000 0.000000 0.000000 1.570796
 29 0.493308 -0.000000 -0.000000 0.000000 0.000000 0.000000
 30 0.493308 0.000000 -0.000000 0.000000 0.000000 0.000000
 31 0.493308 0.000000 -0.000000 0.000000 0.000000 0.000000
 32 -5.105992 -0.396904 -0.036603 -3.141593 -1.570796 0.000000
 33 14.852527 -0.000002 54.017670 1.570796 0.000000 0.000000
 34 3.678560 -0.000003 64.268242 1.570796 0.000000 0.000000
 35 0.000000 -8.157270 -0.187947 1.570796 0.000000 1.570796
 36 0.000002 -38.449059 -0.156140 1.570796 0.000000 1.570796
time 26
  0 0.690264 0.354926 40.988110 0.000000 0.000000 -1.741513
  1 0.000000 0.000000 -41.150002 0.000000 0.000000 1.741513
  2 -0.268758 0.000000 -2.177212 0.000000 -1.463060 -1.570795
  3 3.202937 0.967704 0.346628 -0.135331 -0.133765 0.508787
  4 3.288870 -0.002342 0.000012 -0.005143 0.043337 0.066630
  5 2.946621 -0.004074 -0.000172 0.038412 0.010606 -0.432711
  6 5.643325 -0.004357 -0.000000 -0.000000 0.000000 -0.026180
  7 5.473226 -0.001795 0.000000 -0.000000 -0.000001 0.418879
  8 2.466539 -0.000000 0.000000 0.213384 0.022754 -0.474423
  9 7.340895 -0.000000 0.000000 0.000000 0.000000 0.000000
 10 0.000005 0.001959 1.065788 -0.000013 -1.370797 2.721930
 11 3.700499 -0.000000 -0.000001 0.082257 0.748182 0.304911
 12 8.731104 -0.000000 -0.000001 -0.000000 -0.000000 -1.162427
 13 7.308257 0.000001 -0.000001 -1.570000 -0.000000 0.000000
 14 0.000002 0.001967 -1.065788 -0.000013 1.370795 2.721905
 15 3.700498 0.000000 -0.000000 0.257088 -0.816464 -0.229222
 16 8.731102 -0.000000 -0.000000 0.000000 -0.000000 -1.110232
 17 7.308259 0.000002 0.000002 1.570000 -0.000000 0.000000
 18 -2.859829 0.269144 3.323502 -0.175051 -2.701626 -0.958070
 19 15.660561 -0.000001 0.000000 0.000000 -0.000000 -0.498802
 20 22.856594 -0.000001 0.000001 0.361270 -0.234296 -0.027181
 21 3.601930 0.945456 0.000000 -0.000000 -0.000000 1.570796
 22 0.493308 -0.000000 0.000000 0.000000 -0.000000 0.000000
 23 0.493308 -0.000000 -0.000001 0.000000 -0.000000 0.000000
 24 0.493309 0.000000 -0.000000 0.000000 0.000000 3.141593
 25 -3.711480 1.123006 -2.947452 -0.022569 3.036498 -0.732684
 26 15.660561 -0.000000 -0.000000 -0.000000 -0.000000 -0.774143
 27 22.856592 -0.000000 -0.000000 -0.059093 0.182016 0.542967
 28 3.601930 0.945456 0.000000 -0.000000 0.000000 1.570796
 29 0.493308 -0.000000 0.000000 0.000000 0.000000 0.000000
 30 0.493308 -0.000000 0.000000 0.000000 0.000000 0.000000
 31 0.493308 0.000000 0.000000 0.000000 0.000000 0.000000
 32 -5.105990 -0.396904 -0.036603 -3.141593 -1.570796 0.000000
 33 14.852527 -0.000002 54.017670 1.570796 0.000000 0.000000
 34 3.678560 -0.000003 64.268242 1.570796 0.000000 0.000000
 35 0.000000 -8.157270 -0.187947 1.570796 0.000000 1.570796
 36 0.000002 -38.449059 -0.156140 1.570796 0.000000 1.570796
time 27
  0 0.681562 -1.475174 41.369041 0.000000 0.000000 -1.709877
  1 0.000000 0.000000 -41.214336 0.000000 0.000000 1.709877
  2 -0.268758 0.000000 -2.177212 -0.000000 -1.495659 -1.570795
  3 3.212190 0.967563 0.242128 -0.150044 -0.090144 0.366355
  4 3.288875 -0.002339 0.000142 -0.060729 0.079474 0.062782
  5 2.947092 -0.004263 -0.000130 0.028859 0.004496 -0.320634
  6 5.643324 -0.004355 0.000000 -0.000000 0.000000 -0.026180
  7 5.473225 -0.001794 0.000000 -0.000000 -0.000001 0.418879
  8 2.466538 0.000001 0.000000 0.309682 -0.001367 -0.442757
  9 7.340893 0.000000 0.000000 0.000000 0.000000 0.000000
 10 0.000002 0.001961 1.065788 -0.000013 -1.370797 2.721930
 11 3.700497 -0.000000 0.000002 -0.055763 0.721034 0.274372
 12 8.731102 -0.000000 -0.000000 -0.000000 -0.000000 -0.941091
 13 7.308256 0.000000 -0.000000 -1.570000 -0.000000 -0.000000
 14 0.000002 0.001967 -1.065788 -0.000013 1.370795 2.721905
 15 3.700497 -0.000000 -0.000000 0.069836 -0.844681 -0.164239
 16 8.731101 0.000000 0.000004 0.000000 0.000000 -1.157843
 17 7.308258 -0.000000 -0.000000 1.570000 0.000000 0.000000
 18 -3.066403 -0.239793 3.240567 -0.262351 -2.705157 -0.737474
 19 15.660562 0.000000 0.000001 -0.000000 -0.000000 -0.468178
 20 22.856596 -0.000000 0.000000 0.393595 -0.230950 -0.003252
 21 3.601929 0.945456 0.000000 0.000000 -0.000000 1.570796
 22 0.493308 0.000000 0.000001 0.000000 0.000000 0.000000
 23 0.493308 0.000000 -0.000001 0.000000 0.000000 0.000000
 24 0.493308 0.000000 0.000000 0.000000 0.000000 3.141593
 25 -3.641267 0.710888 -3.047914 -0.176290 3.141018 -0.711035
 26 15.660560 -0.000001 0.000000 -0.000000 -0.000000 -0.921650
 27 22.856594 0.000001 -0.000000 0.053764 0.122358 0.586335
 28 3.601930 0.945456 -0.000000 -0.000000 -0.000000 1.570796
 29 0.493308 -0.000000 -0.000000 0.000000 -0.000000 0.000000
 30 0.493308 0.000000 0.000000 0.000000 -0.000000 0.000000
 31 0.493308 0.000000 0.000000 0.000000 -0.000000 0.000000
 32 -5.105992 -0.396904 -0.036603 -3.141593 -1.570796 0.000000
 33 14.852527 -0.000002 54.017670 1.570796 0.000000 0.000000
 34 3.678560 -0.000003 64.268242 1.570796 0.000000 0.000000
 35 0.000000 -8.157270 -0.187947 1.570796 0.000000 1.570796
 36 0.000002 -38.449059 -0.156140 1.570796 0.000000 1.570796
time 28
  0 0.672591 -3.290762 41.720055 0.000000 0.000000 -1.676927
  1 0.000000 0.000000 -41.721962 0.000000 0.000000 1.676927
  2 -0.268758 0.000000 -2.177212 0.000001 -1.529578 -1.570796
  3 3.218230 0.967480 0.133145 -0.172469 -0.048018 0.236503
  4 3.288880 -0.002328 0.000266 -0.114192 0.112925 0.057283
  5 2.947532 -0.004386 -0.000085 0.018929 -0.000014 -0.218166
  6 5.643320 -0.004356 0.000000 -0.000000 0.000000 -0.026180
  7 5.473227 -0.001795 -0.000000 -0.000000 -0.000001 0.418879
  8 2.466537 0.000000 0.000000 0.393147 -0.045563 -0.418208
  9 7.340889 0.000000 0.000000 0.000000 0.000000 0.000000
 10 -0.000001 0.001962 1.065788 -0.000013 -1.370797 2.721929
 11 3.700497 0.000000 0.000000 -0.139592 0.737051 0.271566
 12 8.731102 -0.000000 -0.000000 0.000000 -0.000000 -0.809296
 13 7.308259 0.000001 -0.000002 -1.570000 -0.000000 0.000000
 14 -0.000002 0.001968 -1.065788 -0.000013 1.370795 2.721904
 15 3.700498 -0.000000 0.000000 -0.113905 -0.852737 -0.100102
 16 8.731101 -0.000000 -0.000000 0.000000 -0.000000 -1.148913
 17 7.308259 0.000004 0.000001 1.570000 0.000000 -0.000000
 18 -3.204597 -0.735869 3.137576 -0.339392 -2.717802 -0.540942
 19 15.660563 -0.000001 0.000001 0.000000 0.000000 -0.450631
 20 22.856596 -0.000001 0.000001 0.427498 -0.230789 0.023973
 21 3.601929 0.945455 0.000001 0.000000 -0.000000 1.570796
 22 0.493308 0.000000 0.000000 0.000000 0.000000 0.000000
 23 0.493308 0.000000 -0.000001 0.000000 0.000000 0.000000
 24 0.493308 0.000000 0.000000 0.000000 0.000000 3.141593
 25 -3.511110 0.358768 -3.146298 -0.282949 -3.058364 -0.677256
 26 15.660564 -0.000001 -0.000000 0.000000 0.000000 -1.036049
 27 22.856598 0.000001 -0.000001 0.129898 0.091873 0.599120
 28 3.601930 0.945456 -0.000000 -0.000000 0.000000 1.570796
 29 0.493308 0.000000 -0.000000 0.000000 -0.000000 0.000000
 30 0.493308 -0.000000 0.000000 0.000000 -0.000000 0.000000
 31 0.493308 0.000000 -0.000000 0.000000 -0.000000 0.000000
 32 -5.105992 -0.396904 -0.036603 3.141593 -1.570796 0.000000
 33 14.852527 -0.000002 54.017670 1.570796 0.000000 0.000000
 34 3.678560 -0.000003 64.268242 1.570796 0.000000 0.000000
 35 0.000000 -8.157270 -0.187947 1.570796 0.000000 1.570796
 36 0.000002 -38.449059 -0.156140 1.570796 0.000000 1.570796
time 29
  0 0.662949 -5.070068 41.996269 0.000000 0.000000 -1.643451
  1 -0.000000 0.000000 -42.046631 0.000000 0.000000 1.643451
  2 -0.268758 0.000000 -2.177212 0.000009 -1.564031 -1.570806
  3 3.220781 0.967468 0.022305 -0.194011 -0.014411 0.188834
  4 3.288890 -0.002316 0.000349 -0.150602 0.129125 0.053461
  5 2.947681 -0.004417 -0.000047 0.010493 -0.000364 -0.184265
  6 5.643323 -0.004356 -0.000000 -0.000000 0.000000 -0.026180
  7 5.473224 -0.001794 0.000000 -0.000000 -0.000001 0.418879
  8 2.466537 0.000000 0.000000 0.441468 -0.064195 -0.406147
  9 7.340894 -0.000000 -0.000000 0.000000 0.000000 0.000000
 10 0.000001 0.001961 1.065788 -0.000013 -1.370797 2.721930
 11 3.700498 -0.000000 -0.000002 -0.200274 0.767177 0.245831
 12 8.731101 0.000000 -0.000001 -0.000000 0.000000 -0.772739
 13 7.308259 0.000002 -0.000002 -1.570000 -0.000000 -0.000000
 14 0.000001 0.001967 -1.065788 -0.000013 1.370795 2.721904
 15 3.700498 0.000001 -0.000001 -0.263424 -0.874166 -0.032446
 16 8.731103 0.000000 0.000001 0.000000 0.000000 -1.107564
 17 7.308259 0.000000 -0.000001 1.570000 -0.000000 0.000000
 18 -3.299100 -0.959707 3.091474 -0.381066 -2.715343 -0.459598
 19 15.660563 -0.000000 -0.000000 -0.000000 0.000000 -0.463592
 20 22.856592 -0.000000 0.000001 0.461421 -0.233244 0.056180
 21 3.601930 0.945455 0.000001 0.000000 -0.000000 1.570796
 22 0.493307 -0.000000 -0.000000 0.000000 0.000000 0.000000
 23 0.493308 -0.000000 -0.000001 0.000000 0.000000 0.000000
 24 0.493309 -0.000000 0.000000 0.000000 0.000000 3.141593
 25 -3.391117 0.271328 -3.173935 -0.329257 -2.994967 -0.717239
 26 15.660563 -0.000001 0.000000 0.000000 0.000000 -1.116842
 27 22.856600 -0.000000 -0.000001 0.163005 0.086037 0.582565
 28 3.601929 0.945456 0.000000 -0.000000 -0.000000 1.570796
 29 0.493308 0.000000 -0.000000 0.000000 -0.000000 0.000000
 30 0.493308 0.000000 0.000000 0.000000 -0.000000 0.000000
 31 0.493308 0.000000 -0.000000 0.000000 -0.000000 0.000000
 32 -5.105991 -0.396904 -0.036602 -3.141593 -1.570796 0.000000
 33 14.852527 -0.000002 54.017670 1.570796 0.000000 0.000000
 34 3.678560 -0.000003 64.268242 1.570796 0.000000 0.000000
 35 0.000000 -8.157270 -0.187947 1.570796 0.000000 1.570796
 36 0.000002 -38.449059 -0.156140 1.570796 0.000000 1.570796
time 30
  0 0.652232 -6.791323 42.152802 0.000000 0.000000 -1.610238
  1 0.000000 0.000000 -42.106037 0.000000 0.000000 1.610238
  2 -0.268758 -0.000000 -2.177212 0.000000 -1.598208 -1.570795
  3 3.219568 0.967459 -0.087743 -0.203037 0.014651 0.151899
  4 3.288887 -0.002308 0.000399 -0.172309 0.127419 0.052744
  5 2.947695 -0.004420 0.000028 -0.006149 0.000060 -0.181261
  6 5.643319 -0.004355 0.000000 0.000000 0.000000 -0.026180
  7 5.473228 -0.001794 0.000000 -0.000000 -0.000001 0.418879
  8 2.466535 -0.000000 -0.000000 0.464887 -0.066966 -0.373763
  9 7.340892 -0.000001 -0.000000 0.000000 0.000000 0.000000
 10 -0.000004 0.001961 1.065788 -0.000013 -1.370797 2.721930
 11 3.700498 -0.000000 0.000001 -0.219445 0.799122 0.223981
 12 8.731103 0.000001 -0.000001 0.000000 -0.000000 -0.787988
 13 7.308257 -0.000001 -0.000001 -1.570000 0.000000 -0.000000
 14 -0.000002 0.001967 -1.065788 -0.000013 1.370795 2.721905
 15 3.700498 0.000000 0.000003 -0.422749 -0.888810 0.073656
 16 8.731102 -0.000001 0.000001 0.000000 0.000000 -1.057921
 17 7.308256 -0.000001 -0.000001 1.570000 -0.000000 0.000000
 18 -3.376601 -1.111129 3.070572 -0.408273 -2.715933 -0.389307
 19 15.660560 -0.000000 0.000000 -0.000000 -0.000000 -0.470017
 20 22.856596 0.000001 0.000003 0.496951 -0.238178 0.085979
 21 3.601930 0.945455 0.000000 0.000000 0.000000 1.570796
 22 0.493308 0.000000 0.000001 0.000000 0.000000 0.000000
 23 0.493308 -0.000000 -0.000001 0.000000 0.000000 0.000000
 24 0.493308 0.000000 0.000000 0.000000 0.000000 3.141593
 25 -3.283035 0.176397 -3.183449 -0.337762 -2.956170 -0.770454
 26 15.660561 -0.000000 0.000000 0.000000 0.000000 -1.178730
 27 22.856594 0.000001 -0.000000 0.169125 0.092659 0.548977
 28 3.601929 0.945455 0.000000 0.000000 0.000000 1.570796
 29 0.493308 -0.000000 0.000000 0.000000 0.000000 0.000000
 30 0.493308 0.000000 0.000000 0.000000 0.000000 0.000000
 31 0.493308 0.000000 0.000000 0.000000 0.000000 0.000000
 32 -5.105991 -0.396904 -0.036602 3.141593 -1.570796 0.000000
 33 14.852527 -0.000002 54.017670 1.570796 0.000000 0.000000
 34 3.678560 -0.000003 64.268242 1.570796 0.000000 0.000000
 35 0.000000 -8.157270 -0.187947 1.570796 0.000000 1.570796
 36 0.000002 -38.449059 -0.156140 1.570796 0.000000 1.570796
time 31
  0 0.640038 -8.432760 42.144772 0.000000 0.000000 -1.578077
  1 0.000000 -0.000000 -42.097858 0.000000 0.000000 1.578077
  2 -0.268758 -0.000000 -2.177212 -0.000000 -1.631336 -1.570795
  3 3.214772 0.967452 -0.194286 -0.215399 0.039883 0.105442
  4 3.288894 -0.002298 0.000448 -0.193641 0.124562 0.052281
  5 2.947721 -0.004424 0.000112 -0.024982 0.000762 -0.175420
  6 5.643323 -0.004355 0.000001 -0.000000 0.000000 -0.026180
  7 5.473227 -0.001794 0.000000 -0.000000 -0.000001 0.418879
  8 2.466538 0.000000 -0.000000 0.489904 -0.073800 -0.334915
  9 7.340892 -0.000000 -0.000000 0.000000 0.000000 0.000000
 10 -0.000001 0.001962 1.065788 -0.000013 -1.370797 2.721929
 11 3.700498 -0.000000 0.000004 -0.220877 0.847515 0.217664
 12 8.731104 0.000000 -0.000000 0.000000 0.000000 -0.835074
 13 7.308259 0.000000 0.000001 -1.570000 -0.000000 -0.000000
 14 0.000003 0.001967 -1.065788 -0.000013 1.370795 2.721905
 15 3.700500 0.000001 0.000002 -0.544933 -0.876720 0.143720
 16 8.731103 -0.000001 0.000001 0.000000 -0.000000 -0.962659
 17 7.308259 -0.000001 0.000000 1.570000 0.000000 -0.000000
 18 -3.431175 -1.304601 3.044508 -0.435339 -2.715162 -0.306101
 19 15.660563 -0.000000 0.000002 -0.000000 0.000000 -0.478531
 20 22.856600 0.000001 -0.000000 0.530770 -0.246899 0.119327
 21 3.601930 0.945455 -0.000000 0.000000 0.000000 1.570796
 22 0.493308 0.000000 0.000000 0.000000 0.000000 0.000000
 23 0.493308 -0.000000 -0.000001 0.000000 0.000000 0.000000
 24 0.493308 -0.000000 0.000000 0.000000 -0.000000 3.141593
 25 -3.176549 0.059200 -3.188827 -0.329709 -2.933719 -0.812453
 26 15.660563 -0.000002 -0.000000 0.000000 0.000000 -1.224642
 27 22.856598 0.000000 -0.000000 0.154930 0.104265 0.504481
 28 3.601929 0.945455 -0.000000 0.000000 0.000000 1.570796
 29 0.493309 -0.000000 -0.000000 0.000000 0.000000 0.000000
 30 0.493308 -0.000000 -0.000000 0.000000 0.000000 0.000000
 31 0.493307 -0.000000 -0.000000 0.000000 0.000000 0.000000
 32 -5.105991 -0.396904 -0.036602 3.141593 -1.570796 0.000000
 33 14.852527 -0.000002 54.017670 1.570796 0.000000 0.000000
 34 3.678560 -0.000003 64.268242 1.570796 0.000000 0.000000
 35 0.000000 -8.157270 -0.187947 1.570796 0.000000 1.570796
 36 0.000002 -38.449059 -0.156140 1.570796 0.000000 1.570796
time 32
  0 0.676014 -9.697178 41.698231 0.000000 0.000000 -1.547755
  1 0.000000 -0.000000 -41.748112 0.000000 0.000000 1.547755
  2 -0.268757 0.000000 -2.177212 0.000000 -1.662616 -1.570795
  3 3.207007 0.967451 -0.294687 -0.229395 0.062790 0.060096
  4 3.288898 -0.002290 0.000495 -0.214135 0.120749 0.052093
  5 2.947737 -0.004422 0.000199 -0.044175 0.001551 -0.171479
  6 5.643326 -0.004356 -0.000000 0.000000 0.000000 -0.026180
  7 5.473222 -0.001795 -0.000000 -0.000000 -0.000001 0.418879
  8 2.466540 -0.000000 -0.000000 0.513830 -0.083294 -0.295866
  9 7.340890 0.000000 0.000000 0.000000 0.000000 0.000000
 10 0.000000 0.001962 1.065788 -0.000013 -1.370797 2.721929
 11 3.700498 0.000000 0.000005 -0.218962 0.901566 0.216642
 12 8.731100 0.000001 0.000001 -0.000000 0.000000 -0.894026
 13 7.308258 -0.000001 0.000000 -1.570000 0.000000 -0.000000
 14 0.000003 0.001966 -1.065788 -0.000013 1.370795 2.721905
 15 3.700499 0.000000 0.000001 -0.630357 -0.853497 0.178785
 16 8.731104 -0.000000 0.000000 0.000000 -0.000000 -0.838356
 17 7.308256 0.000001 0.000000 1.570000 0.000000 0.000000
 18 -3.471745 -1.497810 3.014614 -0.428966 -2.681656 -0.303039
 19 15.660563 0.000000 0.000000 0.000000 0.000000 -0.593788
 20 22.856594 -0.000001 -0.000000 0.564061 -0.255864 0.179981
 21 3.601929 0.945456 0.000000 -0.000000 0.000000 1.570796
 22 0.493308 0.000000 0.000001 0.000000 0.000000 0.000000
 23 0.493308 0.000000 -0.000001 0.000000 0.000000 0.000000
 24 0.493309 0.000000 -0.000000 0.000000 -0.000000 3.141593
 25 -3.071032 -0.048612 -3.191714 -0.309434 -2.925460 -0.849632
 26 15.660562 0.000001 0.000001 -0.000000 -0.000000 -1.257511
 27 22.856596 0.000000 -0.000001 0.128436 0.114634 0.454988
 28 3.601929 0.945456 0.000000 0.000000 0.000000 1.570796
 29 0.493308 -0.000000 0.000000 0.000000 0.000000 0.000000
 30 0.493308 -0.000000 -0.000000 0.000000 0.000000 0.000000
 31 0.493308 -0.000000 0.000000 0.000000 0.000000 0.000000
 32 -5.105990 -0.396904 -0.036602 3.141593 -1.570796 0.000000
 33 14.852527 -0.000002 54.017670 1.570796 0.000000 0.000000
 34 3.678560 -0.000003 64.268242 1.570796 0.000000 0.000000
 35 0.000000 -8.157270 -0.187947 1.570796 0.000000 1.570796
 36 0.000002 -38.449059 -0.156140 1.570796 0.000000 1.570796
time 33
  0 0.742765 -10.637989 40.810379 0.000000 0.000000 -1.520062
  1 0.000000 -0.000000 -40.811337 0.000000 0.000000 1.520062
  2 -0.268758 0.000000 -2.177212 0.000000 -1.691255 -1.570795
  3 3.197165 0.967454 -0.386364 -0.242341 0.085242 0.026494
  4 3.288902 -0.002278 0.000539 -0.233332 0.116176 0.052186
  5 2.947726 -0.004416 0.000279 -0.061904 0.002045 -0.174157
  6 5.643323 -0.004356 -0.000000 -0.000000 0.000000 -0.026180
  7 5.473224 -0.001794 0.000000 -0.000000 -0.000001 0.418879
  8 2.466540 -0.000001 -0.000000 0.534343 -0.091912 -0.262414
  9 7.340895 0.000000 -0.000000 0.000000 0.000000 0.000000
 10 0.000001 0.001961 1.065788 -0.000013 -1.370797 2.721929
 11 3.700499 -0.000000 0.000003 -0.228373 0.947765 0.208249
 12 8.731101 0.000000 0.000000 0.000000 -0.000000 -0.944874
 13 7.308259 -0.000003 0.000001 -1.570000 -0.000000 -0.000000
 14 0.000004 0.001966 -1.065788 -0.000013 1.370795 2.721905
 15 3.700498 -0.000000 0.000001 -0.719724 -0.818495 0.227728
 16 8.731103 0.000000 0.000002 0.000000 -0.000000 -0.789989
 17 7.308258 -0.000001 -0.000001 1.570000 -0.000000 -0.000000
 18 -3.514714 -1.646628 2.984057 -0.403949 -2.638239 -0.341680
 19 15.660563 -0.000001 0.000000 -0.000000 -0.000000 -0.740113
 20 22.856600 -0.000000 0.000001 0.594592 -0.265248 0.244892
 21 3.601929 0.945456 0.000000 0.000000 -0.000000 1.570796
 22 0.493308 0.000000 0.000000 0.000000 0.000000 0.000000
 23 0.493308 -0.000000 -0.000000 0.000000 0.000000 0.000000
 24 0.493309 -0.000000 -0.000000 0.000000 0.000000 3.141593
 25 -2.971019 -0.119749 -3.192697 -0.280889 -2.927981 -0.887887
 26 15.660565 0.000001 -0.000000 0.000000 -0.000000 -1.280264
 27 22.856598 -0.000002 -0.000001 0.098752 0.119069 0.406827
 28 3.601929 0.945455 -0.000000 -0.000000 -0.000000 1.570796
 29 0.493308 -0.000000 0.000000 0.000000 -0.000000 0.000000
 30 0.493309 -0.000000 -0.000000 0.000000 -0.000000 0.000000
 31 0.493308 -0.000001 -0.000000 0.000000 -0.000000 0.000000
 32 -5.105991 -0.396904 -0.036602 -3.141593 -1.570796 0.000000
 33 14.852527 -0.000002 54.017670 1.570796 0.000000 0.000000
 34 3.678560 -0.000003 64.268242 1.570796 0.000000 0.000000
 35 0.000000 -8.157270 -0.187947 1.570796 0.000000 1.570796
 36 0.000002 -38.449059 -0.156140 1.570796 0.000000 1.570796
time 34
  0 0.739327 -11.759344 39.843033 0.000000 0.000000 -1.495786
  1 -0.000000 0.000000 -39.891891 0.000000 0.000000 1.495786
  2 -0.268758 0.000000 -2.177212 0.000000 -1.716464 -1.570795
  3 3.186382 0.967458 -0.466805 -0.250690 0.109537 0.015298
  4 3.288899 -0.002268 0.000579 -0.250773 0.111038 0.052551
  5 2.947669 -0.004402 0.000343 -0.076342 0.001725 -0.188156
  6 5.643316 -0.004356 -0.000001 0.000000 0.000000 -0.026180
  7 5.473229 -0.001795 0.000001 -0.000000 -0.000001 0.418879
  8 2.466534 0.000001 0.000000 0.549436 -0.094426 -0.239777
  9 7.340889 0.000000 0.000000 0.000000 0.000000 0.000000
 10 -0.000004 0.001962 1.065788 -0.000013 -1.370797 2.721930
 11 3.700498 -0.000002 0.000001 -0.263284 0.970383 0.178298
 12 8.731102 0.000001 -0.000001 0.000000 -0.000000 -0.967648
 13 7.308257 -0.000003 0.000001 -1.570000 0.000000 0.000000
 14 -0.000001 0.001968 -1.065787 -0.000013 1.370795 2.721904
 15 3.700498 0.000001 0.000002 -0.826271 -0.760987 0.313308
 16 8.731104 -0.000000 0.000001 0.000000 -0.000000 -0.856152
 17 7.308259 0.000002 -0.000000 1.570000 0.000000 0.000000
 18 -3.581707 -1.705518 2.957242 -0.374605 -2.598151 -0.391434
 19 15.660562 -0.000001 0.000001 0.000000 0.000000 -0.871655
 20 22.856594 -0.000000 0.000001 0.621322 -0.280767 0.308547
 21 3.601929 0.945455 0.000001 0.000000 0.000000 1.570796
 22 0.493307 -0.000000 -0.000000 0.000000 0.000000 0.000000
 23 0.493308 -0.000000 -0.000001 0.000000 0.000000 0.000000
 24 0.493308 0.000000 0.000000 0.000000 0.000000 3.141593
 25 -2.883608 -0.130863 -3.191935 -0.228687 -2.964957 -0.933042
 26 15.660563 0.000001 0.000000 0.000000 0.000000 -1.292325
 27 22.856596 -0.000001 -0.000000 0.049135 0.116050 0.366331
 28 3.601929 0.945457 0.000000 -0.000000 -0.000000 1.570796
 29 0.493308 0.000000 -0.000000 0.000000 -0.000000 0.000000
 30 0.493309 -0.000000 0.000000 0.000000 -0.000000 0.000000
 31 0.493308 -0.000000 0.000000 0.000000 -0.000000 0.000000
 32 -5.105990 -0.396904 -0.036603 3.141593 -1.570796 0.000000
 33 14.852527 -0.000002 54.017670 1.570796 0.000000 0.000000
 34 3.678560 -0.000003 64.268242 1.570796 0.000000 0.000000
 35 0.000000 -8.157270 -0.187947 1.570796 0.000000 1.570796
 36 0.000002 -38.449059 -0.156140 1.570796 0.000000 1.570796
time 35
  0 0.564735 -13.565394 39.158016 0.000000 0.000000 -1.475715
  1 -0.000000 0.000000 -39.206112 0.000000 0.000000 1.475715
  2 -0.268758 -0.000000 -2.177212 0.000000 -1.737449 -1.570795
  3 3.175952 0.967462 -0.533566 -0.249952 0.138017 0.037330
  4 3.288900 -0.002259 0.000614 -0.266006 0.105526 0.053163
  5 2.947535 -0.004370 0.000384 -0.085622 0.000069 -0.218169
  6 5.643326 -0.004357 -0.000000 -0.000000 0.000000 -0.026180
  7 5.473225 -0.001794 -0.000000 -0.000000 -0.000001 0.418879
  8 2.466537 0.000000 0.000000 0.556776 -0.084709 -0.232701
  9 7.340890 -0.000000 0.000000 0.000000 0.000000 0.000000
 10 0.000001 0.001962 1.065789 -0.000013 -1.370797 2.721930
 11 3.700498 0.000002 0.000002 -0.337636 0.954255 0.109173
 12 8.731100 0.000000 0.000000 -0.000000 0.000000 -0.932499
 13 7.308260 -0.000001 0.000001 -1.570000 0.000000 0.000000
 14 0.000000 0.001967 -1.065788 -0.000013 1.370795 2.721905
 15 3.700499 -0.000001 0.000003 -0.916816 -0.692066 0.403017
 16 8.731101 0.000001 -0.000001 0.000000 0.000000 -0.977550
 17 7.308260 0.000000 0.000001 1.570000 0.000000 -0.000000
 18 -3.692015 -1.625666 2.938653 -0.367807 -2.577690 -0.405265
 19 15.660562 0.000000 0.000001 0.000000 0.000000 -0.925862
 20 22.856594 -0.000002 -0.000000 0.641136 -0.306949 0.360888
 21 3.601929 0.945455 0.000001 -0.000000 -0.000000 1.570796
 22 0.493308 -0.000000 0.000000 0.000000 0.000000 0.000000
 23 0.493308 0.000000 -0.000001 0.000000 0.000000 0.000000
 24 0.493309 -0.000000 0.000000 0.000000 0.000000 3.141593
 25 -2.813442 -0.061105 -3.189930 -0.156281 -3.040265 -0.984432
 26 15.660566 -0.000002 -0.000001 0.000000 -0.000000 -1.270865
 27 22.856598 -0.000003 -0.000000 -0.023132 0.105937 0.319476
 28 3.601929 0.945457 0.000000 -0.000000 0.000000 1.570796
 29 0.493306 0.000000 0.000000 0.000000 0.000000 0.000000
 30 0.493308 -0.000000 0.000000 0.000000 0.000000 0.000000
 31 0.493308 -0.000000 -0.000000 0.000000 0.000000 0.000000
 32 -5.105989 -0.396904 -0.036603 3.141593 -1.570796 0.000000
 33 14.852527 -0.000002 54.017670 1.570796 0.000000 0.000000
 34 3.678560 -0.000003 64.268242 1.570796 0.000000 0.000000
 35 0.000000 -8.157270 -0.187947 1.570796 0.000000 1.570796
 36 0.000002 -38.449059 -0.156140 1.570796 0.000000 1.570796
time 36
  0 -0.036048 -16.942640 38.927021 0.000000 0.000000 -1.460639
  1 -0.000000 -0.000000 -39.071270 0.000000 0.000000 1.460639
  2 -0.268759 0.000000 -2.177212 -0.000000 -1.753419 -1.570795
  3 3.167334 0.967484 -0.584302 -0.215730 0.184734 0.159499
  4 3.288902 -0.002253 0.000635 -0.275163 0.097924 0.054508
  5 2.947188 -0.004278 0.000379 -0.084265 -0.005917 -0.298476
  6 5.643320 -0.004356 -0.000000 -0.000000 0.000000 -0.026180
  7 5.473226 -0.001795 0.000001 -0.000000 -0.000001 0.418879
  8 2.466540 0.000000 0.000000 0.540377 -0.035030 -0.268531
  9 7.340895 -0.000000 0.000000 0.000000 0.000000 0.000000
 10 0.000004 0.001961 1.065789 -0.000013 -1.370797 2.721930
 11 3.700498 0.000001 -0.000002 -0.465493 0.880205 -0.031210
 12 8.731104 0.000001 -0.000000 -0.000000 0.000000 -0.860374
 13 7.308258 -0.000001 -0.000001 -1.570000 0.000000 0.000000
 14 0.000004 0.001965 -1.065788 -0.000013 1.370795 2.721905
 15 3.700499 -0.000002 0.000003 -0.955495 -0.672073 0.474877
 16 8.731104 0.000001 -0.000000 -0.000000 -0.000000 -1.112337
 17 7.308260 -0.000001 0.000001 1.570000 -0.000000 0.000000
 18 -3.918794 -1.107465 2.941447 -0.394987 -2.586805 -0.403375
 19 15.660563 0.000000 0.000002 0.000000 -0.000000 -0.861671
 20 22.856602 -0.000001 0.000002 0.648979 -0.356744 0.404456
 21 3.601929 0.945456 -0.000001 -0.000000 0.000000 1.570796
 22 0.493308 -0.000000 0.000000 0.000000 0.000000 0.000000
 23 0.493308 -0.000000 -0.000000 0.000000 0.000000 0.000000
 24 0.493309 0.000000 -0.000000 0.000000 -0.000000 3.141593
 25 -2.745798 0.236225 -3.190260 -0.085389 -3.124262 -1.100396
 26 15.660564 0.000001 0.000000 -0.000000 -0.000000 -1.185438
 27 22.856592 -0.000002 0.000000 -0.087857 0.092731 0.241563
 28 3.601930 0.945454 0.000000 0.000000 0.000000 1.570796
 29 0.493309 0.000000 0.000000 0.000000 0.000000 0.000000
 30 0.493307 -0.000000 -0.000000 0.000000 0.000000 0.000000
 31 0.493309 -0.000000 -0.000000 0.000000 0.000000 0.000000
 32 -5.105991 -0.396905 -0.036603 -3.141593 -1.570796 0.000000
 33 14.852527 -0.000002 54.017670 1.570796 0.000000 0.000000
 34 3.678560 -0.000003 64.268242 1.570796 0.000000 0.000000
 35 0.000000 -8.157270 -0.187947 1.570796 0.000000 1.570796
 36 0.000002 -38.449059 -0.156140 1.570796 0.000000 1.570796
time 37
  0 -0.881275 -21.238371 38.983536 0.000000 0.000000 -1.451345
  1 0.000000 0.000000 -39.272278 0.000000 0.000000 1.451345
  2 -0.268759 0.000000 -2.177212 0.000000 -1.763581 -1.570795
  3 3.161757 0.967613 -0.616655 -0.137804 0.234666 0.377453
  4 3.288904 -0.002253 0.000640 -0.277385 0.088052 0.056601
  5 2.946650 -0.004081 0.000308 -0.068634 -0.013308 -0.424140
  6 5.643324 -0.004357 -0.000001 -0.000000 0.000000 -0.026180
  7 5.473225 -0.001794 -0.000000 -0.000000 -0.000001 0.418879
  8 2.466538 0.000000 0.000000 0.487875 0.044499 -0.346573
  9 7.340891 0.000001 -0.000000 0.000000 0.000000 0.000000
 10 0.000003 0.001960 1.065788 -0.000013 -1.370797 2.721930
 11 3.700498 0.000000 -0.000000 -0.585590 0.766300 -0.194058
 12 8.731103 0.000002 0.000000 0.000000 -0.000000 -0.807497
 13 7.308262 -0.000002 0.000001 -1.570000 0.000000 -0.000000
 14 0.000001 0.001967 -1.065788 -0.000013 1.370795 2.721905
 15 3.700499 0.000001 0.000000 -0.938784 -0.722970 0.529941
 16 8.731100 -0.000000 0.000000 0.000000 0.000000 -1.218663
 17 7.308259 -0.000000 -0.000000 1.570000 -0.000000 -0.000000
 18 -4.091275 -0.140437 2.947489 -0.453878 -2.639492 -0.386021
 19 15.660562 0.000001 -0.000001 -0.000000 -0.000000 -0.657679
 20 22.856598 -0.000002 0.000002 0.640997 -0.418605 0.419315
 21 3.601929 0.945456 0.000000 0.000000 -0.000000 1.570796
 22 0.493307 -0.000000 0.000001 0.000000 0.000000 0.000000
 23 0.493308 -0.000000 -0.000001 0.000000 0.000000 0.000000
 24 0.493308 0.000000 -0.000000 0.000000 0.000000 3.141593
 25 -2.606438 0.712726 -3.204473 -0.027272 3.086165 -1.228045
 26 15.660565 -0.000000 -0.000001 -0.000000 0.000000 -0.922999
 27 22.856596 -0.000001 0.000000 -0.127768 0.081009 0.064798
 28 3.601930 0.945455 0.000000 0.000000 -0.000000 1.570796
 29 0.493307 0.000000 0.000000 0.000000 0.000000 0.000000
 30 0.493311 0.000000 -0.000000 0.000000 0.000000 0.000000
 31 0.493311 -0.000000 0.000000 0.000000 0.000000 0.000000
 32 -5.105989 -0.396903 -0.036603 -3.141593 -1.570796 0.000000
 33 14.852527 -0.000002 54.017670 1.570796 0.000000 0.000000
 34 3.678560 -0.000003 64.268242 1.570796 0.000000 0.000000
 35 0.000000 -8.157270 -0.187947 1.570796 0.000000 1.570796
 36 0.000002 -38.449059 -0.156140 1.570796 0.000000 1.570796
time 38
  0 -1.416731 -24.647905 39.182083 0.000000 0.000000 -1.448622
  1 -0.000000 -0.000000 -39.567200 0.000000 0.000000 1.448622
  2 -0.268758 -0.000000 -2.177212 0.000000 -1.767144 -1.570795
  3 3.159986 0.967836 -0.628134 -0.051410 0.257999 0.588506
  4 3.288898 -0.002252 0.000640 -0.276715 0.078407 0.058724
  5 2.946194 -0.003849 0.000186 -0.041391 -0.013812 -0.540890
  6 5.643320 -0.004356 0.000000 0.000000 0.000000 -0.026180
  7 5.473226 -0.001797 -0.000001 -0.000000 -0.000001 0.418879
  8 2.466537 -0.000000 0.000000 0.421840 0.102033 -0.430162
  9 7.340891 -0.000000 -0.000000 0.000000 0.000000 0.000000
 10 -0.000001 0.001962 1.065788 -0.000013 -1.370797 2.721930
 11 3.700497 0.000000 0.000004 -0.648361 0.682720 -0.310768
 12 8.731102 -0.000003 -0.000000 -0.000000 0.000000 -0.830090
 13 7.308259 0.000000 -0.000000 -1.570000 0.000000 0.000000
 14 0.000001 0.001967 -1.065788 -0.000013 1.370795 2.721905
 15 3.700498 -0.000000 0.000003 -0.867655 -0.809540 0.541561
 16 8.731104 -0.000000 0.000001 0.000000 0.000000 -1.254678
 17 7.308260 0.000003 0.000001 1.570000 -0.000000 0.000000
 18 -4.035802 0.799554 2.931856 -0.479443 -2.747323 -0.400846
 19 15.660565 0.000001 0.000002 0.000000 0.000000 -0.459382
 20 22.856592 -0.000002 -0.000002 0.611238 -0.421425 0.441666
 21 3.601930 0.945455 0.000000 0.000000 0.000000 1.570796
 22 0.493308 -0.000000 0.000001 0.000000 -0.000000 0.000000
 23 0.493308 -0.000000 -0.000001 0.000000 -0.000000 0.000000
 24 0.493309 0.000000 -0.000000 0.000000 0.000000 3.141593
 25 -2.406473 1.116834 -3.234494 0.026428 3.027657 -1.320610
 26 15.660563 -0.000004 -0.000001 0.000000 -0.000000 -0.642469
 27 22.856596 -0.000000 0.000000 -0.159944 0.074173 -0.107556
 28 3.601930 0.945457 0.000000 0.000000 0.000000 1.570796
 29 0.493308 0.000000 0.000000 0.000000 0.000000 0.000000
 30 0.493305 0.000000 0.000001 0.000000 0.000000 0.000000
 31 0.493308 -0.000000 -0.000000 0.000000 0.000000 0.000000
 32 -5.105988 -0.396904 -0.036603 3.141593 -1.570796 0.000000
 33 14.852527 -0.000002 54.017670 1.570796 0.000000 0.000000
 34 3.678560 -0.000003 64.268242 1.570796 0.000000 0.000000
 35 0.000000 -8.157270 -0.187947 1.570796 0.000000 1.570796
 36 0.000002 -38.449059 -0.156140 1.570796 0.000000 1.570796
time 39
  0 -1.560314 -26.888388 39.468285 0.000000 0.000000 -1.459244
  1 -0.000001 0.000000 -39.831791 0.000000 0.000000 1.459244
  2 -0.268759 0.000000 -2.177212 0.000000 -1.763024 -1.570795
  3 3.162766 0.968000 -0.615258 0.006220 0.244275 0.707703
  4 3.288898 -0.002260 0.000609 -0.262844 0.070698 0.060618
  5 2.945988 -0.003719 -0.000171 0.038103 0.014971 -0.593127
  6 5.643324 -0.004354 0.000000 0.000000 0.000000 -0.026180
  7 5.473222 -0.001796 -0.000000 -0.000000 -0.000001 0.418879
  8 2.466536 -0.000000 -0.000000 0.310746 0.090021 -0.500557
  9 7.340892 -0.000001 0.000000 0.000000 0.000000 0.000000
 10 0.000002 0.001960 1.065788 -0.000013 -1.370797 2.721930
 11 3.700499 0.000001 -0.000002 -0.660622 0.685562 -0.418405
 12 8.731101 -0.000001 0.000000 0.000000 0.000000 -0.958807
 13 7.308259 0.000002 -0.000002 -1.570000 0.000000 0.000000
 14 -0.000001 0.001969 -1.065788 -0.000013 1.370795 2.721904
 15 3.700497 0.000000 -0.000001 -0.714072 -0.870918 0.529895
 16 8.731100 0.000001 0.000001 -0.000000 -0.000000 -1.235556
 17 7.308260 0.000001 0.000001 1.570000 -0.000000 0.000000
 18 -3.863530 1.338945 2.953438 -0.281926 -2.805223 -0.704044
 19 15.660566 0.000001 0.000002 -0.000000 -0.000000 -0.628991
 20 22.856596 0.000000 0.000001 0.452826 -0.318095 0.520286
 21 3.601930 0.945456 -0.000000 0.000000 0.000000 1.570796
 22 0.493308 0.000000 -0.000001 0.000000 0.000000 0.000000
 23 0.493308 -0.000000 0.000000 0.000000 0.000000 0.000000
 24 0.493308 0.000000 0.000001 0.000000 0.000000 3.141593
 25 -2.319088 1.300393 -3.242728 0.068032 2.992412 -1.415058
 26 15.660563 -0.000002 -0.000000 0.000000 0.000000 -0.694221
 27 22.856594 0.000001 -0.000000 -0.191988 0.067266 -0.038980
 28 3.601930 0.945456 0.000000 0.000000 0.000000 1.570796
 29 0.493308 0.000000 -0.000001 0.000000 0.000000 0.000000
 30 0.493304 0.000000 0.000001 0.000000 0.000000 0.000000
 31 0.493308 -0.000000 -0.000000 0.000000 0.000000 0.000000
 32 -5.105989 -0.396904 -0.036602 -3.141593 -1.570796 0.000000
 33 14.852527 -0.000002 54.017670 1.570796 0.000000 0.000000
 34 3.678560 -0.000003 64.268242 1.570796 0.000000 0.000000
 35 0.000000 -8.157270 -0.187947 1.570796 0.000000 1.570796
 36 0.000002 -38.449059 -0.156140 1.570796 0.000000 1.570796
time 40
  0 -1.615268 -28.908752 39.850021 0.000000 0.000000 -1.486787
  1 -0.000001 -0.000000 -40.395226 0.000000 0.000000 1.486787
  2 -0.268759 -0.000000 -2.177212 0.000000 -1.751320 -1.570795
  3 3.169451 0.967779 -0.578185 -0.007650 0.211243 0.563010
  4 3.288893 -0.002283 0.000528 -0.227100 0.061312 0.062965
  5 2.946379 -0.003868 -0.000819 0.183514 0.032965 -0.496814
  6 5.643319 -0.004358 -0.000000 -0.000000 0.000000 -0.026180
  7 5.473228 -0.001795 -0.000000 -0.000000 -0.000001 0.418879
  8 2.466537 0.000001 0.000000 0.144196 0.023312 -0.464300
  9 7.340893 -0.000002 0.000000 0.000000 0.000000 0.000000
 10 -0.000000 0.001962 1.065788 -0.000013 -1.370797 2.721930
 11 3.700499 0.000001 0.000001 -0.534353 0.784781 -0.455677
 12 8.731100 -0.000002 0.000000 -0.000000 -0.000000 -1.155327
 13 7.308261 0.000003 -0.000002 -1.570000 -0.000000 -0.000000
 14 0.000001 0.001967 -1.065788 -0.000013 1.370795 2.721905
 15 3.700498 -0.000001 -0.000003 -0.618369 -0.848183 0.639306
 16 8.731101 0.000002 0.000000 0.000000 0.000000 -1.205334
 17 7.308261 -0.000002 -0.000001 1.570000 -0.000000 0.000000
 18 -3.916439 0.850140 3.023592 -0.069631 -2.895303 -0.797252
 19 15.660562 -0.000002 -0.000000 0.000000 -0.000000 -0.864264
 20 22.856594 0.000002 0.000000 0.262179 -0.215840 0.597411
 21 3.601930 0.945455 -0.000000 0.000000 0.000000 1.570796
 22 0.493308 -0.000000 -0.000001 0.000000 0.000000 0.000000
 23 0.493308 -0.000000 0.000000 0.000000 0.000000 0.000000
 24 0.493309 0.000000 0.000001 0.000000 0.000000 3.141593
 25 -2.577479 0.897896 -3.220137 0.104012 2.974448 -1.247793
 26 15.660563 -0.000002 0.000000 -0.000000 0.000000 -0.730960
 27 22.856596 0.000003 0.000001 -0.223473 0.065684 0.020564
 28 3.601929 0.945456 -0.000000 -0.000000 0.000000 1.570796
 29 0.493304 0.000000 -0.000001 0.000000 0.000000 0.000000
 30 0.493309 -0.000000 0.000000 0.000000 0.000000 0.000000
 31 0.493309 -0.000000 0.000001 0.000000 0.000000 0.000000
 32 -5.105990 -0.396904 -0.036602 3.141593 -1.570796 0.000000
 33 14.852527 -0.000002 54.017670 1.570796 0.000000 0.000000
 34 3.678560 -0.000003 64.268242 1.570796 0.000000 0.000000
 35 0.000000 -8.157270 -0.187947 1.570796 0.000000 1.570796
 36 0.000002 -38.449059 -0.156140 1.570796 0.000000 1.570796
time 41
  0 -1.605392 -30.752005 40.275211 0.000000 0.000000 -1.527242
  1 0.000001 -0.000000 -40.280258 0.000000 0.000000 1.527242
  2 -0.268757 -0.000000 -2.177212 0.000000 -1.733022 -1.570795
  3 3.179050 0.967554 -0.520070 -0.028707 0.165309 0.368579
  4 3.288892 -0.002300 0.000438 -0.187675 0.051493 0.065050
  5 2.946939 -0.003918 -0.001547 0.351589 0.030949 -0.368763
  6 5.643322 -0.004356 -0.000000 0.000000 0.000000 -0.026180
  7 5.473227 -0.001796 -0.000000 -0.000000 -0.000001 0.418879
  8 2.466537 0.000002 -0.000000 -0.050539 0.000990 -0.401007
  9 7.340888 -0.000001 0.000000 0.000000 0.000000 0.000000
 10 -0.000001 0.001961 1.065788 -0.000013 -1.370797 2.721930
 11 3.700498 -0.000003 -0.000002 -0.318693 0.856052 -0.437573
 12 8.731101 -0.000001 -0.000001 0.000000 -0.000000 -1.372406
 13 7.308257 -0.000001 0.000000 -1.570000 -0.000000 0.000000
 14 -0.000002 0.001971 -1.065788 -0.000013 1.370795 2.721905
 15 3.700497 0.000002 -0.000002 -0.550885 -0.848077 0.796071
 16 8.731103 0.000001 0.000000 0.000000 -0.000000 -1.165460
 17 7.308261 -0.000002 0.000001 1.570000 -0.000000 -0.000000
 18 -3.879973 0.153246 3.122701 0.059889 -2.973767 -0.780819
 19 15.660562 -0.000004 0.000001 0.000000 -0.000000 -1.046427
 20 22.856596 0.000003 0.000001 0.124934 -0.159592 0.632896
 21 3.601930 0.945454 -0.000000 -0.000000 -0.000000 1.570796
 22 0.493309 0.000000 0.000000 0.000000 -0.000000 0.000000
 23 0.493307 0.000000 0.000000 0.000000 -0.000000 0.000000
 24 0.493308 0.000000 0.000000 0.000000 0.000000 3.141593
 25 -2.829124 0.334031 -3.173511 0.147546 2.967874 -1.012160
 26 15.660562 -0.000003 -0.000000 -0.000000 0.000000 -0.736152
 27 22.856596 0.000002 -0.000001 -0.268497 0.064961 0.065018
 28 3.601930 0.945459 -0.000000 0.000000 0.000000 1.570796
 29 0.493309 -0.000000 0.000000 0.000000 0.000000 0.000000
 30 0.493307 -0.000000 -0.000000 0.000000 0.000000 0.000000
 31 0.493306 -0.000000 -0.000000 0.000000 0.000000 0.000000
 32 -5.105992 -0.396905 -0.036602 -3.141593 -1.570796 0.000000
 33 14.852527 -0.000002 54.017670 1.570796 0.000000 0.000000
 34 3.678560 -0.000003 64.268242 1.570796 0.000000 0.000000
 35 0.000000 -8.157270 -0.187947 1.570796 0.000000 1.570796
 36 0.000002 -38.449059 -0.156140 1.570796 0.000000 1.570796
time 42
  0 -1.554485 -32.461166 40.691765 0.000000 0.000000 -1.576602
  1 0.000001 0.000000 -40.678352 0.000000 0.000000 1.576602
  2 -0.268756 -0.000000 -2.177212 0.000000 -1.709120 -1.570795
  3 3.190159 0.967429 -0.443938 -0.039272 0.112439 0.201155
  4 3.288883 -0.002315 0.000348 -0.148680 0.041791 0.066710
  5 2.947462 -0.003823 -0.002110 0.489021 0.011374 -0.260341
  6 5.643323 -0.004361 0.000001 -0.000000 0.000000 -0.026180
  7 5.473226 -0.001792 -0.000000 -0.000000 -0.000001 0.418879
  8 2.466534 0.000000 0.000000 -0.211715 0.033405 -0.354908
  9 7.340890 0.000002 0.000000 0.000000 0.000000 0.000000
 10 -0.000002 0.001959 1.065789 -0.000013 -1.370797 2.721930
 11 3.700498 0.000003 -0.000002 -0.084428 0.860625 -0.376996
 12 8.731103 -0.000000 0.000000 -0.000000 0.000000 -1.562798
 13 7.308261 -0.000002 0.000001 -1.570000 -0.000000 -0.000000
 14 -0.000004 0.001966 -1.065787 -0.000013 1.370795 2.721905
 15 3.700498 0.000002 0.000001 -0.504812 -0.883895 0.929857
 16 8.731099 -0.000000 0.000001 -0.000000 -0.000000 -1.117382
 17 7.308258 -0.000001 -0.000001 1.570000 0.000000 0.000000
 18 -3.706237 -0.437549 3.226801 0.093323 -2.993042 -0.720619
 19 15.660563 -0.000000 -0.000000 0.000000 -0.000000 -1.136796
 20 22.856596 -0.000000 -0.000000 0.078497 -0.139220 0.621560
 21 3.601930 0.945457 0.000000 -0.000000 -0.000000 1.570796
 22 0.493307 -0.000000 -0.000000 0.000000 -0.000000 0.000000
 23 0.493308 0.000000 0.000000 0.000000 -0.000000 0.000000
 24 0.493307 -0.000000 0.000000 0.000000 0.000000 3.141593
 25 -2.989721 -0.188419 -3.113846 0.189023 2.974215 -0.795034
 26 15.660564 -0.000001 -0.000001 0.000000 -0.000000 -0.713142
 27 22.856598 0.000002 0.000000 -0.321907 0.064468 0.087631
 28 3.601930 0.945455 -0.000000 0.000000 0.000000 1.570796
 29 0.493312 0.000000 -0.000000 0.000000 0.000000 0.000000
 30 0.493305 0.000000 -0.000001 0.000000 0.000000 0.000000
 31 0.493307 0.000000 0.000000 0.000000 0.000000 0.000000
 32 -5.105989 -0.396905 -0.036602 3.141593 -1.570796 0.000000
 33 14.852527 -0.000002 54.017670 1.570796 0.000000 0.000000
 34 3.678560 -0.000003 64.268242 1.570796 0.000000 0.000000
 35 0.000000 -8.157270 -0.187947 1.570796 0.000000 1.570796
 36 0.000002 -38.449059 -0.156140 1.570796 0.000000 1.570796
time 43
  0 -1.486349 -34.079243 41.047592 0.000000 0.000000 -1.630858
  1 0.000001 0.000000 -41.085381 0.000000 0.000000 1.630858
  2 -0.268756 0.000000 -2.177212 0.000000 -1.680603 -1.570795
  3 3.201343 0.967402 -0.352821 -0.034963 0.064109 0.134205
  4 3.288885 -0.002325 0.000268 -0.114225 0.032782 0.067908
  5 2.947671 -0.003748 -0.002335 0.546385 -0.000413 -0.218282
  6 5.643322 -0.004357 0.000001 0.000000 0.000000 -0.026180
  7 5.473227 -0.001794 -0.000001 -0.000000 -0.000001 0.418879
  8 2.466535 -0.000001 0.000000 -0.282915 0.066682 -0.346833
  9 7.340894 -0.000000 -0.000000 0.000000 0.000000 0.000000
 10 -0.000002 0.001960 1.065788 -0.000013 -1.370797 2.721930
 11 3.700498 0.000001 -0.000002 0.067348 0.834519 -0.311701
 12 8.731100 -0.000001 0.000000 0.000000 0.000000 -1.679260
 13 7.308258 0.000000 -0.000000 -1.570000 -0.000000 0.000000
 14 -0.000002 0.001965 -1.065788 -0.000013 1.370795 2.721904
 15 3.700498 -0.000003 -0.000002 -0.430203 -0.931362 0.941545
 16 8.731100 0.000001 0.000000 -0.000000 -0.000000 -1.062548
 17 7.308260 -0.000002 0.000000 1.570000 0.000000 0.000000
 18 -3.522381 -0.646320 3.306352 0.081106 -2.979097 -0.739613
 19 15.660563 -0.000001 0.000000 0.000000 -0.000000 -1.190151
 20 22.856596 0.000000 0.000000 0.077112 -0.128722 0.587990
 21 3.601929 0.945455 -0.000000 -0.000000 -0.000000 1.570796
 22 0.493307 -0.000000 0.000000 0.000000 -0.000000 0.000000
 23 0.493307 -0.000000 0.000000 0.000000 -0.000000 0.000000
 24 0.493308 -0.000000 0.000000 0.000000 0.000000 3.141593
 25 -3.113256 -0.423564 -3.062498 0.219473 2.978506 -0.690688
 26 15.660563 0.000001 -0.000002 -0.000000 0.000000 -0.710351
 27 22.856596 -0.000003 0.000001 -0.381742 0.067954 0.117216
 28 3.601930 0.945457 -0.000000 0.000000 -0.000000 1.570796
 29 0.493305 -0.000000 -0.000000 0.000000 0.000000 0.000000
 30 0.493310 0.000000 -0.000000 0.000000 0.000000 0.000000
 31 0.493310 -0.000000 -0.000000 0.000000 0.000000 0.000000
 32 -5.105990 -0.396902 -0.036602 3.141593 -1.570796 0.000000
 33 14.852527 -0.000002 54.017670 1.570796 0.000000 0.000000
 34 3.678560 -0.000003 64.268242 1.570796 0.000000 0.000000
 35 0.000000 -8.157270 -0.187947 1.570796 0.000000 1.570796
 36 0.000002 -38.449059 -0.156140 1.570796 0.000000 1.570796
time 44
  0 -1.424781 -35.649254 41.290619 0.000000 0.000000 -1.686001
  1 0.000001 -0.000000 -41.275265 0.000000 0.000000 1.686001
  2 -0.268755 0.000000 -2.177212 0.000000 -1.648459 -1.570795
  3 3.211090 0.967406 -0.249787 -0.025843 0.021427 0.158971
  4 3.288880 -0.002331 0.000198 -0.084151 0.024433 0.068749
  5 2.947596 -0.003760 -0.002287 0.533805 0.005009 -0.235099
  6 5.643322 -0.004356 -0.000000 0.000000 0.000000 -0.026180
  7 5.473223 -0.001792 -0.000000 -0.000000 -0.000001 0.418879
  8 2.466537 -0.000002 0.000001 -0.281368 0.071298 -0.359093
  9 7.340895 -0.000000 -0.000000 0.000000 0.000000 0.000000
 10 -0.000000 0.001957 1.065789 -0.000013 -1.370797 2.721930
 11 3.700497 -0.000002 -0.000000 0.146490 0.820008 -0.240219
 12 8.731104 0.000001 -0.000001 0.000000 -0.000000 -1.727469
 13 7.308259 0.000000 0.000000 -1.570000 0.000000 0.000000
 14 0.000001 0.001966 -1.065788 -0.000013 1.370795 2.721905
 15 3.700498 0.000000 0.000001 -0.297174 -0.964339 0.820282
 16 8.731104 -0.000001 0.000000 0.000000 0.000000 -1.002404
 17 7.308256 0.000001 0.000000 1.570000 0.000000 -0.000000
 18 -3.396747 -0.533833 3.358043 0.054405 -2.949331 -0.841102
 19 15.660565 -0.000003 0.000001 -0.000000 0.000000 -1.227914
 20 22.856594 0.000002 0.000000 0.094797 -0.122893 0.546832
 21 3.601929 0.945459 -0.000000 0.000000 0.000000 1.570796
 22 0.493308 0.000000 0.000000 0.000000 0.000000 0.000000
 23 0.493310 -0.000000 -0.000000 0.000000 0.000000 0.000000
 24 0.493309 -0.000000 -0.000000 0.000000 -0.000000 3.141593
 25 -3.259921 -0.368866 -3.024223 0.239672 2.977646 -0.684822
 26 15.660564 -0.000000 -0.000002 0.000000 0.000000 -0.714903
 27 22.856598 0.000002 -0.000000 -0.440213 0.075539 0.147700
 28 3.601930 0.945454 0.000000 0.000000 0.000000 1.570796
 29 0.493307 -0.000000 0.000000 0.000000 -0.000000 0.000000
 30 0.493309 -0.000000 0.000000 0.000000 -0.000000 0.000000
 31 0.493308 -0.000000 0.000000 0.000000 -0.000000 0.000000
 32 -5.105992 -0.396906 -0.036602 -3.141593 -1.570796 0.000000
 33 14.852527 -0.000002 54.017670 1.570796 0.000000 0.000000
 34 3.678560 -0.000003 64.268242 1.570796 0.000000 0.000000
 35 0.000000 -8.157270 -0.187947 1.570796 0.000000 1.570796
 36 0.000002 -38.449059 -0.156140 1.570796 0.000000 1.570796
time 45
  0 -1.393583 -37.214207 41.368752 0.000000 0.000000 -1.738024
  1 0.000001 -0.000000 -41.323376 0.000000 0.000000 1.738024
  2 -0.268755 0.000000 -2.177212 -0.000001 -1.613677 -1.570794
  3 3.217973 0.967433 -0.138002 -0.020156 -0.021244 0.213796
  4 3.288883 -0.002335 0.000130 -0.055364 0.016295 0.069327
  5 2.947411 -0.003798 -0.002138 0.495920 0.015315 -0.271813
  6 5.643318 -0.004355 -0.000000 -0.000000 0.000000 -0.026180
  7 5.473230 -0.001793 -0.000000 -0.000000 -0.000001 0.418879
  8 2.466533 -0.000000 -0.000000 -0.260153 0.064180 -0.375710
  9 7.340890 -0.000001 -0.000000 0.000000 0.000000 0.000000
 10 -0.000005 0.001959 1.065789 -0.000013 -1.370797 2.721930
 11 3.700497 0.000001 0.000001 0.207967 0.812515 -0.158788
 12 8.731104 -0.000002 -0.000000 0.000000 0.000000 -1.748742
 13 7.308259 0.000005 -0.000002 -1.570000 0.000000 -0.000000
 14 -0.000005 0.001968 -1.065788 -0.000013 1.370795 2.721905
 15 3.700498 -0.000000 -0.000001 -0.133280 -0.977214 0.641854
 16 8.731102 0.000001 -0.000001 -0.000000 0.000000 -0.938401
 17 7.308260 -0.000004 -0.000000 1.570000 -0.000000 0.000000
 18 -3.278463 -0.331139 3.395358 0.043135 -2.921947 -0.973790
 19 15.660564 -0.000002 0.000000 0.000000 0.000000 -1.271509
 20 22.856596 -0.000001 0.000000 0.104847 -0.121064 0.512006
 21 3.601929 0.945457 -0.000001 -0.000000 0.000000 1.570796
 22 0.493309 -0.000000 0.000000 0.000000 0.000000 0.000000
 23 0.493305 0.000000 0.000001 0.000000 0.000000 0.000000
 24 0.493308 0.000000 -0.000001 0.000000 -0.000000 3.141593
 25 -3.414104 -0.202474 -2.987769 0.250913 2.976709 -0.704779
 26 15.660563 -0.000001 0.000000 -0.000000 -0.000000 -0.712254
 27 22.856598 -0.000000 -0.000000 -0.487682 0.087740 0.175909
 28 3.601930 0.945457 0.000000 0.000000 0.000000 1.570796
 29 0.493305 -0.000000 -0.000000 0.000000 0.000000 0.000000
 30 0.493309 -0.000000 -0.000000 0.000000 0.000000 0.000000
 31 0.493309 -0.000000 -0.000000 0.000000 0.000000 0.000000
 32 -5.105992 -0.396904 -0.036603 3.141593 -1.570796 0.000000
 33 14.852527 -0.000002 54.017670 1.570796 0.000000 0.000000
 34 3.678560 -0.000003 64.268242 1.570796 0.000000 0.000000
 35 0.000000 -8.157270 -0.187947 1.570796 0.000000 1.570796
 36 0.000002 -38.449059 -0.156140 1.570796 0.000000 1.570796
time 46
  0 -1.493641 -38.047783 40.311172 0.000000 0.000000 -1.782917
  1 0.000001 -0.000000 -40.411747 0.000000 0.000000 1.782917
  2 -0.268756 0.000000 -2.177212 0.000000 -1.577256 -1.570791
  3 3.221065 0.967483 -0.020724 -0.020777 -0.063092 0.292100
  4 3.288879 -0.002338 0.000066 -0.027567 0.008321 0.069668
  5 2.947163 -0.003844 -0.001907 0.438062 0.027129 -0.324363
  6 5.643323 -0.004357 0.000000 -0.000000 0.000000 -0.026180
  7 5.473223 -0.001793 -0.000000 -0.000000 -0.000001 0.418879
  8 2.466541 -0.000000 -0.000000 -0.232923 0.049148 -0.396107
  9 7.340890 0.000002 -0.000000 0.000000 0.000000 0.000000
 10 0.000002 0.001961 1.065788 -0.000013 -1.370797 2.721930
 11 3.700498 -0.000001 0.000002 0.258209 0.811734 -0.067547
 12 8.731101 -0.000003 0.000001 0.000000 -0.000000 -1.749295
 13 7.308255 0.000004 -0.000003 -1.570000 -0.000000 0.000000
 14 0.000003 0.001964 -1.065788 -0.000013 1.370795 2.721905
 15 3.700499 -0.000002 0.000002 0.043304 -0.965747 0.429348
 16 8.731104 -0.000002 0.000001 -0.000000 0.000000 -0.871984
 17 7.308259 0.000003 0.000003 1.570000 -0.000000 0.000000
 18 -3.153916 -0.069985 3.418597 0.065594 -2.898285 -1.156814
 19 15.660563 -0.000002 0.000000 -0.000000 -0.000000 -1.365780
 20 22.856596 -0.000001 0.000001 0.105259 -0.135132 0.503901
 21 3.601929 0.945455 0.000000 0.000000 0.000000 1.570796
 22 0.493307 -0.000000 0.000001 0.000000 0.000000 0.000000
 23 0.493308 0.000000 -0.000000 0.000000 0.000000 0.000000
 24 0.493309 0.000000 -0.000001 0.000000 -0.000000 3.141593
 25 -3.556538 0.062408 -2.953187 0.246117 2.944894 -0.881138
 26 15.660565 -0.000001 -0.000002 0.000000 0.000000 -0.890968
 27 22.856600 -0.000001 0.000001 -0.531922 0.091321 0.250813
 28 3.601930 0.945454 -0.000000 0.000000 0.000000 1.570796
 29 0.493309 -0.000000 -0.000001 0.000000 0.000000 0.000000
 30 0.493309 0.000000 0.000001 0.000000 0.000000 0.000000
 31 0.493308 -0.000000 -0.000000 0.000000 0.000000 0.000000
 32 -5.105989 -0.396905 -0.036602 -3.141593 -1.570796 0.000000
 33 14.852527 -0.000002 54.017670 1.570796 0.000000 0.000000
 34 3.678560 -0.000003 64.268242 1.570796 0.000000 0.000000
 35 0.000000 -8.157270 -0.187947 1.570796 0.000000 1.570796
 36 0.000002 -38.449059 -0.156140 1.570796 0.000000 1.570796
time 47
  0 -1.344006 -38.838783 38.987015 0.000000 0.000000 -1.816673
  1 -0.000001 -0.000000 -38.991043 0.000000 0.000000 1.816673
  2 -0.268758 -0.000000 -2.177212 0.000000 -1.540158 -1.570794
  3 3.219851 0.967566 0.098724 -0.029356 -0.102696 0.387453
  4 3.288882 -0.002343 0.000001 -0.000461 0.000465 0.069788
  5 2.946863 -0.003861 -0.001606 0.365791 0.037037 -0.388481
  6 5.643321 -0.004355 0.000000 0.000000 0.000000 -0.026180
  7 5.473228 -0.001795 -0.000000 -0.000000 -0.000001 0.418879
  8 2.466531 0.000003 -0.000000 -0.203845 0.030849 -0.420502
  9 7.340894 -0.000003 -0.000000 0.000000 0.000000 0.000000
 10 -0.000004 0.001960 1.065788 -0.000013 -1.370797 2.721930
 11 3.700497 -0.000003 -0.000000 0.301830 0.815540 0.031740
 12 8.731103 -0.000001 -0.000002 0.000000 -0.000000 -1.735345
 13 7.308258 0.000004 -0.000003 -1.570000 -0.000000 0.000000
 14 -0.000003 0.001969 -1.065788 -0.000013 1.370795 2.721905
 15 3.700497 0.000002 -0.000002 0.211433 -0.931067 0.208899
 16 8.731098 -0.000002 0.000001 0.000000 0.000000 -0.804602
 17 7.308258 0.000004 0.000001 1.570000 0.000000 -0.000000
 18 -3.011918 0.220173 3.428939 0.101698 -2.871220 -1.354602
 19 15.660563 -0.000001 0.000001 0.000000 -0.000000 -1.457724
 20 22.856596 0.000001 0.000002 0.112755 -0.161908 0.496011
 21 3.601930 0.945453 0.000000 0.000000 0.000000 1.570796
 22 0.493308 -0.000000 0.000000 0.000000 0.000000 0.000000
 23 0.493307 0.000000 0.000000 0.000000 0.000000 0.000000
 24 0.493310 0.000000 0.000000 0.000000 -0.000000 3.141593
 25 -3.666562 0.406608 -2.920544 0.232396 2.904448 -1.070392
 26 15.660563 -0.000002 0.000000 -0.000000 0.000000 -1.055890
 27 22.856596 0.000001 -0.000001 -0.564988 0.103060 0.314133
 28 3.601930 0.945456 -0.000000 0.000000 0.000000 1.570796
 29 0.493307 -0.000000 0.000000 0.000000 0.000000 0.000000
 30 0.493304 -0.000000 0.000000 0.000000 0.000000 0.000000
 31 0.493307 -0.000000 0.000000 0.000000 0.000000 0.000000
 32 -5.105989 -0.396905 -0.036603 3.141593 -1.570796 0.000000
 33 14.852527 -0.000002 54.017670 1.570796 0.000000 0.000000
 34 3.678560 -0.000003 64.268242 1.570796 0.000000 0.000000
 35 0.000000 -8.157270 -0.187947 1.570796 0.000000 1.570796
 36 0.000002 -38.449059 -0.156140 1.570796 0.000000 1.570796
time 48
  0 -0.356633 -40.416203 38.848709 0.000000 0.000000 -1.829701
  1 0.000002 0.000000 -38.846397 0.000000 0.000000 1.829701
  2 -0.268755 0.000000 -2.177212 -0.000000 -1.503399 -1.570794
  3 3.214293 0.967683 0.216999 -0.046063 -0.138368 0.493358
  4 3.288876 -0.002345 -0.000062 0.026251 -0.007319 0.069698
  5 2.946548 -0.003833 -0.001261 0.285057 0.042387 -0.459461
  6 5.643325 -0.004360 0.000000 0.000000 0.000000 -0.026180
  7 5.473220 -0.001795 -0.000000 -0.000000 -0.000001 0.418879
  8 2.466542 -0.000002 0.000000 -0.167649 0.013540 -0.448733
  9 7.340891 0.000000 0.000000 0.000000 0.000000 0.000000
 10 0.000007 0.001960 1.065788 -0.000013 -1.370797 2.721930
 11 3.700499 0.000000 0.000002 0.342123 0.821163 0.136115
 12 8.731099 0.000003 0.000002 -0.000000 -0.000000 -1.713106
 13 7.308261 0.000001 -0.000003 -1.570000 0.000000 0.000000
 14 0.000007 0.001964 -1.065788 -0.000013 1.370795 2.721905
 15 3.700499 -0.000003 -0.000001 0.357590 -0.878490 -0.000146
 16 8.731104 -0.000002 0.000001 -0.000000 0.000000 -0.737702
 17 7.308256 0.000002 -0.000000 1.570000 0.000000 0.000000
 18 -2.847367 0.512643 3.428412 0.115150 -2.841910 -1.486147
 19 15.660563 0.000000 -0.000000 0.000000 0.000000 -1.421998
 20 22.856598 0.000001 0.000000 0.123197 -0.183860 0.433312
 21 3.601930 0.945454 0.000000 0.000000 0.000000 1.570796
 22 0.493309 -0.000000 -0.000000 0.000000 0.000000 0.000000
 23 0.493309 0.000000 0.000000 0.000000 0.000000 0.000000
 24 0.493309 0.000000 0.000000 0.000000 -0.000000 3.141593
 25 -3.728147 0.803868 -2.889710 0.223844 2.860576 -1.142314
 26 15.660563 -0.000001 0.000000 -0.000000 -0.000000 -1.060627
 27 22.856596 0.000003 -0.000000 -0.576516 0.151976 0.336306
 28 3.601930 0.945456 -0.000001 0.000000 0.000000 1.570796
 29 0.493306 -0.000000 0.000000 0.000000 0.000000 0.000000
 30 0.493312 0.000000 0.000001 0.000000 0.000000 0.000000
 31 0.493307 -0.000000 -0.000000 0.000000 0.000000 0.000000
 32 -5.105993 -0.396905 -0.036602 -3.141593 -1.570796 0.000000
 33 14.852527 -0.000002 54.017670 1.570796 0.000000 0.000000
 34 3.678560 -0.000003 64.268242 1.570796 0.000000 0.000000
 35 0.000000 -8.157270 -0.187947 1.570796 0.000000 1.570796
 36 0.000002 -38.449059 -0.156140 1.570796 0.000000 1.570796
time 49
  0 0.636287 -43.180683 39.149399 0.000000 0.000000 -1.822979
  1 0.000001 0.000000 -39.216129 0.000000 0.000000 1.822979
  2 -0.268758 0.000000 -2.177212 0.000000 -1.467958 -1.570795
  3 3.204821 0.967827 0.330772 -0.069541 -0.168756 0.603052
  4 3.288880 -0.002345 -0.000126 0.052867 -0.015079 0.069398
  5 2.946242 -0.003767 -0.000900 0.202149 0.041874 -0.532217
  6 5.643322 -0.004354 -0.000000 -0.000000 0.000000 -0.026180
  7 5.473228 -0.001796 0.000000 -0.000000 -0.000001 0.418879
  8 2.466540 -0.000001 0.000000 -0.119658 0.000091 -0.479646
  9 7.340888 0.000002 -0.000000 0.000000 0.000000 0.000000
 10 0.000002 0.001963 1.065788 -0.000013 -1.370797 2.721930
 11 3.700498 0.000003 0.000002 0.381681 0.825878 0.241962
 12 8.731105 -0.000001 0.000000 0.000000 -0.000000 -1.688796
 13 7.308256 -0.000002 0.000002 -1.570000 -0.000000 -0.000000
 14 0.000003 0.001966 -1.065788 -0.000013 1.370795 2.721905
 15 3.700498 -0.000003 -0.000001 0.478161 -0.814509 -0.187346
 16 8.731103 0.000001 0.000002 -0.000000 0.000000 -0.672733
 17 7.308258 -0.000000 -0.000001 1.570000 0.000000 0.000000
 18 -2.662418 0.784813 3.419817 0.082794 -2.806062 -1.491146
 19 15.660562 0.000002 0.000000 -0.000000 -0.000000 -1.174264
 20 22.856598 0.000001 0.000002 0.131850 -0.199374 0.280648
 21 3.601929 0.945455 -0.000001 0.000000 0.000000 1.570796
 22 0.493312 0.000000 0.000001 0.000000 0.000000 0.000000
 23 0.493306 -0.000000 0.000001 0.000000 0.000000 0.000000
 24 0.493307 -0.000000 -0.000001 0.000000 -0.000000 3.141593
 25 -3.734964 1.222215 -2.860118 0.228101 2.823454 -1.141981
 26 15.660563 -0.000002 -0.000001 -0.000000 -0.000000 -0.999496
 27 22.856594 0.000001 -0.000001 -0.556852 0.214305 0.363564
 28 3.601930 0.945454 0.000000 0.000000 0.000000 1.570796
 29 0.493306 0.000000 0.000000 0.000000 0.000000 0.000000
 30 0.493311 0.000000 0.000001 0.000000 0.000000 0.000000
 31 0.493308 -0.000000 -0.000000 0.000000 0.000000 0.000000
 32 -5.105991 -0.396903 -0.036602 -3.141593 -1.570796 0.000000
 33 14.852527 -0.000002 54.017670 1.570796 0.000000 0.000000
 34 3.678560 -0.000003 64.268242 1.570796 0.000000 0.000000
 35 0.000000 -8.157270 -0.187947 1.570796 0.000000 1.570796
 36 0.000002 -38.449059 -0.156140 1.570796 0.000000 1.570796
time 50
  0 0.801156 -48.317524 39.654018 0.000000 0.000000 -1.808359
  1 -0.000001 0.000000 -39.796436 0.000000 0.000000 1.808359
  2 -0.268760 -0.000000 -2.177212 0.000000 -1.434825 -1.570795
  3 3.192317 0.967985 0.436778 -0.097114 -0.193469 0.709434
  4 3.288880 -0.002337 -0.000188 0.079683 -0.022864 0.068884
  5 2.945970 -0.003659 -0.000552 0.123455 0.035848 -0.601552
  6 5.643327 -0.004358 -0.000000 -0.000000 0.000000 -0.026180
  7 5.473222 -0.001793 -0.000000 -0.000000 -0.000001 0.418879
  8 2.466534 -0.000000 -0.000000 -0.054071 -0.008716 -0.511076
  9 7.340891 -0.000001 0.000000 0.000000 0.000000 0.000000
 10 0.000000 0.001962 1.065788 -0.000013 -1.370797 2.721930
 11 3.700498 0.000003 -0.000003 0.422929 0.827263 0.345478
 12 8.731103 -0.000001 -0.000000 -0.000000 0.000000 -1.668629
 13 7.308256 -0.000002 -0.000000 -1.570000 0.000000 -0.000000
 14 -0.000002 0.001968 -1.065788 -0.000013 1.370795 2.721905
 15 3.700497 -0.000002 0.000001 0.575093 -0.744587 -0.347156
 16 8.731103 0.000005 0.000002 -0.000000 0.000000 -0.611143
 17 7.308258 -0.000007 -0.000000 1.570000 0.000000 0.000000
 18 -2.465797 1.019557 3.406558 0.020752 -2.771967 -1.409889
 19 15.660558 -0.000000 -0.000001 0.000000 -0.000000 -0.798858
 20 22.856596 0.000000 0.000001 0.137873 -0.219056 0.074536
 21 3.601930 0.945458 -0.000001 -0.000000 -0.000000 1.570796
 22 0.493311 -0.000000 0.000000 0.000000 -0.000000 0.000000
 23 0.493308 0.000000 0.000000 0.000000 -0.000000 0.000000
 24 0.493306 -0.000000 0.000000 0.000000 0.000000 3.141593
 25 -3.693571 1.627177 -2.830638 0.269221 2.817605 -1.029009
 26 15.660561 -0.000000 -0.000002 0.000000 -0.000000 -0.865361
 27 22.856596 0.000001 -0.000001 -0.515952 0.274448 0.424678
 28 3.601930 0.945455 -0.000000 0.000000 -0.000000 1.570796
 29 0.493308 0.000000 0.000000 0.000000 -0.000000 0.000000
 30 0.493308 -0.000000 0.000000 0.000000 -0.000000 0.000000
 31 0.493309 0.000000 0.000000 0.000000 -0.000000 0.000000
 32 -5.105989 -0.396905 -0.036603 -3.141593 -1.570796 0.000000
 33 14.852527 -0.000002 54.017670 1.570796 0.000000 0.000000
 34 3.678560 -0.000003 64.268242 1.570796 0.000000 0.000000
 35 0.000000 -8.157270 -0.187947 1.570796 0.000000 1.570796
 36 0.000002 -38.449059 -0.156140 1.570796 0.000000 1.570796
time 51
  0 0.730232 -54.301758 40.279613 0.000000 0.000000 -1.797688
  1 -0.000001 -0.000000 -40.518665 0.000000 0.000000 1.797688
  2 -0.268760 -0.000001 -2.177212 0.000000 -1.404989 -1.570795
  3 3.178036 0.968138 0.531835 -0.125250 -0.213488 0.805161
  4 3.288885 -0.002325 -0.000250 0.106998 -0.030718 0.068141
  5 2.945740 -0.003536 -0.000248 0.055169 0.026243 -0.662501
  6 5.643320 -0.004353 -0.000000 -0.000000 0.000000 -0.026180
  7 5.473225 -0.001794 0.000000 -0.000000 -0.000001 0.418879
  8 2.466532 -0.000001 -0.000000 0.009921 -0.014380 -0.540259
  9 7.340888 -0.000001 -0.000000 0.000000 0.000000 0.000000
 10 -0.000005 0.001960 1.065788 -0.000013 -1.370797 2.721930
 11 3.700497 0.000000 -0.000002 0.468367 0.823114 0.442885
 12 8.731100 0.000001 -0.000003 0.000000 0.000000 -1.658822
 13 7.308252 0.000002 -0.000000 -1.570000 -0.000000 -0.000000
 14 -0.000005 0.001964 -1.065788 -0.000013 1.370795 2.721905
 15 3.700499 -0.000001 -0.000000 0.651536 -0.672626 -0.475129
 16 8.731103 -0.000002 0.000002 -0.000000 -0.000000 -0.554377
 17 7.308255 -0.000001 -0.000001 1.570000 -0.000000 0.000000
 18 -2.270694 1.205932 3.392399 -0.045560 -2.747883 -1.313493
 19 15.660560 0.000003 0.000001 0.000000 -0.000000 -0.423453
 20 22.856598 -0.000002 0.000001 0.140182 -0.243557 -0.131392
 21 3.601929 0.945453 0.000001 0.000000 0.000000 1.570796
 22 0.493317 -0.000000 0.000001 0.000000 0.000000 0.000000
 23 0.493306 0.000000 0.000000 0.000000 0.000000 0.000000
 24 0.493303 0.000000 0.000001 0.000000 0.000000 3.141593
 25 -3.623663 1.985551 -2.799605 0.358228 2.872628 -0.706059
 26 15.660558 0.000003 -0.000001 -0.000000 -0.000000 -0.459263
 27 22.856592 -0.000000 -0.000001 -0.458119 0.348664 0.416653
 28 3.601930 0.945456 -0.000000 -0.000000 -0.000000 1.570796
 29 0.493305 0.000000 0.000000 0.000000 0.000000 0.000000
 30 0.493309 -0.000000 0.000000 0.000000 0.000000 0.000000
 31 0.493310 -0.000000 -0.000001 0.000000 0.000000 0.000000
 32 -5.105993 -0.396906 -0.036604 -3.141593 -1.570796 0.000000
 33 14.852527 -0.000002 54.017670 1.570796 0.000000 0.000000
 34 3.678560 -0.000003 64.268242 1.570796 0.000000 0.000000
 35 0.000000 -8.157270 -0.187947 1.570796 0.000000 1.570796
 36 0.000002 -38.449059 -0.156140 1.570796 0.000000 1.570796
end
