version 1
nodes
0 "Bip01" -1
1 "Bip01 Footsteps" 0
2 "Bip01 Pelvis" 0
3 "Bip01 Spine" 2
4 "Bip01 Spine1" 3
5 "Bip01 Spine2" 4
6 "Bip01 Spine3" 5
7 "Bip01 Neck" 6
8 "Bip01 Head" 7
9 "Dummy05" 8
10 "Dummy14" 8
11 "Dummy15" 10
12 "Bip01 L Clavicle" 7
13 "Bip01 L UpperArm" 12
14 "Bip01 L Forearm" 13
15 "Bip01 L Hand" 14
16 "Bip01 L Finger0" 15
17 "Bip01 L Finger01" 16
18 "Bip01 L Finger02" 17
19 "Dummy02" 18
20 "Bip01 L Finger1" 15
21 "Bip01 L Finger11" 20
22 "Bip01 L Finger12" 21
23 "Dummy07" 22
24 "Bip01 L Finger2" 15
25 "Bip01 L Finger21" 24
26 "Bip01 L Finger22" 25
27 "Dummy09" 26
28 "Bip01 L Finger3" 15
29 "Bip01 L Finger31" 28
30 "Bip01 L Finger32" 29
31 "Dummy11" 30
32 "Bip01 L Finger4" 15
33 "Bip01 L Finger41" 32
34 "Bip01 L Finger42" 33
35 "Dummy13" 34
36 "Bip01 R Clavicle" 7
37 "Bip01 R UpperArm" 36
38 "Bip01 R Forearm" 37
39 "Bip01 R Hand" 38
40 "Bip01 R Finger0" 39
41 "Bip01 R Finger01" 40
42 "Bip01 R Finger02" 41
43 "Dummy01" 42
44 "Bip01 R Finger1" 39
45 "Bip01 R Finger11" 44
46 "Bip01 R Finger12" 45
47 "Dummy06" 46
48 "Bip01 R Finger2" 39
49 "Bip01 R Finger21" 48
50 "Bip01 R Finger22" 49
51 "Dummy08" 50
52 "Bip01 R Finger3" 39
53 "Bip01 R Finger31" 52
54 "Bip01 R Finger32" 53
55 "Dummy10" 54
56 "Bip01 R Finger4" 39
57 "Bip01 R Finger41" 56
58 "Bip01 R Finger42" 57
59 "Dummy12" 58
60 "ValveBiped.Bip01_R_Hand" 39
61 "Bip01 L Thigh" 3
62 "Bip01 L Calf" 61
63 "Bip01 L Foot" 62
64 "Bip01 L Toe0" 63
65 "Bip01 L Toe01" 64
66 "Bip01 L Toe02" 65
67 "Dummy04" 66
68 "Bip01 R Thigh" 3
69 "Bip01 R Calf" 68
70 "Bip01 R Foot" 69
71 "Bip01 R Toe0" 70
72 "Bip01 R Toe01" 71
73 "Bip01 R Toe02" 72
74 "Dummy03" 73
75 "Dummy22" 3
76 "Dummy23" 75
77 "Dummy21" 3
78 "Dummy24" 77
79 "Dummy18" 3
80 "Dummy25" 79
81 "Dummy17" 3
82 "Dummy26" 81
83 "Dummy16" 3
84 "Dummy27" 83
85 "Dummy19" 3
86 "Dummy28" 85
87 "Dummy20" 3
88 "Dummy29" 87
89 "mesh" 2
90 "r_eye" -1
91 "l_eye" -1
end
skeleton
time 0
0  2.666885 -10.942219 22.182981  0.003905 -0.706806 -1.573331
1  -14.405806 -0.065870 -16.868698  0.706812 0.002258 1.572725
2  -3.128888 -0.467871 -0.000002  -1.570762 -1.570451 -0.000033
3  4.433515 -0.003773 0.001766  -0.430540 -0.125837 0.278987
4  5.339583 -0.005377 0.000520  -0.093815 -0.027784 0.217229
5  6.941326 -0.005062 0.000488  -0.092744 -0.055031 0.272353
6  6.620013 -0.004727 0.000414  -0.087047 0.063347 0.077636
7  5.979199 -0.000735 0.000003  -0.000000 -0.000001 0.235619
8  0.948360 -0.000005 -0.000000  0.482242 0.376693 -0.507453
9  11.042665 -0.000003 -0.000003  0.000000 0.000000 -0.000000
10  -3.731828 9.544964 0.014183  0.000000 0.000001 -1.675515
11  -3.853211 -3.394486 0.000001  0.000000 -0.000000 -0.000000
12  0.000000 0.000745 2.684128  0.756802 -1.423071 2.167684
13  6.694801 0.000001 -0.000004  -0.083899 -0.844456 -1.027621
14  11.423458 0.000005 0.000005  -0.209442 0.192460 -0.400675
15  11.236194 -0.000000 -0.000006  2.020532 0.198029 -0.800381
16  2.050503 0.662491 -1.659298  0.877233 0.772748 0.679093
17  1.066197 -0.000001 0.000000  -0.000000 0.281234 0.000003
18  1.466012 -0.000001 -0.000001  -0.000001 0.207744 0.000002
19  1.188164 -0.000002 0.000000  0.000000 -0.000000 -0.000000
20  5.193862 -0.001290 -1.622129  0.370337 0.158628 1.186248
21  1.525722 0.000002 -0.000001  0.000002 -0.000001 0.593123
22  1.473164 -0.000005 -0.000002  0.000002 -0.000001 0.215524
23  1.279431 -0.000008 0.000008  0.000001 0.000000 0.000000
24  4.977362 -0.298615 -0.436306  0.139714 0.020842 1.360854
25  2.175560 0.000003 0.000000  -0.000000 -0.000002 0.297195
26  1.705904 -0.000000 -0.000004  -0.000001 -0.000001 0.263391
27  1.492671 -0.000005 -0.000001  0.000002 -0.000000 0.000000
28  5.227219 -0.016862 0.516782  -0.207132 -0.061967 1.416553
29  1.850600 0.000004 -0.000013  -0.000002 -0.000002 0.404350
30  1.530744 0.000001 -0.000003  -0.000000 0.000001 0.000001
31  1.279432 0.000001 -0.000014  -0.000001 -0.000000 -0.000000
32  5.193862 0.001288 1.622139  -0.391937 -0.089132 1.356806
33  1.485056 -0.000000 -0.000007  -0.000003 -0.000001 0.463483
34  1.294666 -0.000007 0.000001  -0.000001 -0.000000 0.170671
35  1.066182 -0.000002 0.000003  -0.000000 -0.000000 0.000000
36  0.000006 0.000759 -2.684129  -0.155575 1.165801 2.762010
37  6.694805 0.000000 0.000007  -0.107017 -0.050954 -2.073436
38  11.423452 0.000001 -0.000001  -0.178101 0.024316 -0.250447
39  11.236182 0.000002 -0.000001  2.843616 0.908190 -0.124089
40  1.195826 -0.033341 1.114691  -0.915034 -0.843405 0.748273
41  1.294655 -0.000004 -0.000001  0.283746 0.304538 0.027302
42  2.182006 -0.000002 -0.000001  -0.000000 0.523433 -0.000000
43  1.188153 -0.000004 0.000001  -0.000000 -0.000000 -3.141592
44  4.895146 -0.386526 1.693288  -0.066291 -0.054620 -0.245888
45  1.507896 0.000001 -0.000001  -0.000000 -0.000001 0.924223
46  1.370814 -0.000002 0.000003  -0.000001 -0.000000 0.723903
47  1.279425 0.000009 -0.000002  0.000000 0.000001 3.141592
48  5.141361 -0.100722 0.541386  0.878998 0.126639 0.893598
49  1.759210 -0.000001 0.000002  -0.000001 0.000002 1.882081
50  1.599281 0.000002 -0.000011  -0.000001 0.000002 0.603100
51  1.492662 -0.000004 0.000007  0.000000 -0.000000 -3.141592
52  5.079525 -0.068059 -0.623692  0.977150 -0.308207 1.391675
53  1.688844 -0.000001 -0.000005  -0.000001 0.000001 1.368088
54  1.507894 0.000001 0.000018  0.000000 0.000002 1.016343
55  1.279432 -0.000001 -0.000006  0.000000 0.000001 -3.141592
56  5.141363 -0.099001 -1.621449  0.786266 -0.387380 1.828600
57  1.256580 0.000002 0.000003  -0.000002 0.000001 0.706531
58  1.142340 0.000001 0.000001  0.000000 0.000001 0.784250
59  1.066187 0.000001 -0.000005  0.000001 -0.000000 -3.141593
60  0.232750 -0.809301 1.175718  -3.117955 0.230511 0.116535
61  -3.663590 -0.970410 5.046923  0.002986 -2.593841 -1.157902
62  17.308266 0.000001 0.000002  0.000000 -0.000000 -1.928657
63  16.391676 -0.000004 0.000001  0.105818 -0.048242 0.299075
64  5.543005 2.217175 -0.000001  0.000000 0.000000 1.570796
65  2.219014 0.000000 -0.000001  -0.000000 -0.000000 -0.000000
66  2.219006 -0.000000 -0.000001  0.000000 0.000000 0.000000
67  2.323258 0.000000 0.000002  0.000000 -0.000000 -3.141592
68  -4.791578 2.751050 -3.055997  -0.527749 3.015674 0.002425
69  17.308266 -0.000001 -0.000002  -0.000000 -0.000000 -2.023158
70  16.391678 -0.000000 0.000000  -0.190662 -0.168653 -0.608072
71  5.543005 2.217176 0.000000  0.000000 -0.000000 1.570796
72  2.219007 -0.000000 0.000001  0.000000 0.000000 -0.000000
73  2.219006 0.000000 -0.000000  0.000000 -0.000000 -0.000000
74  2.323256 0.000000 0.000000  0.000000 -0.000000 -0.000000
75  5.028735 -7.322626 0.014161  -0.000000 0.000001 -1.536686
76  4.835411 -2.118442 0.237901  -1.640610 -1.570796 0.000000
77  4.348886 -2.776601 -10.995126  -0.332241 -1.939523 -1.299005
78  -3.671423 -1.336566 -0.171206  -1.524006 0.347681 0.125368
79  5.768712 3.982527 -9.173450  -0.018554 -2.653223 -1.706597
80  0.067521 -2.350637 3.344431  -1.431170 1.082104 0.034906
81  4.998852 8.565451 -5.001398  -0.235033 -1.930170 -1.495695
82  -0.243934 -1.549031 2.646218  -1.431170 0.349067 0.087265
83  3.580554 8.020453 5.032158  -0.090668 -1.202692 -1.648989
84  -0.088494 -0.306852 4.016223  -1.431170 -0.366519 -0.034907
85  5.006868 3.913794 9.043613  0.122175 -1.972221 -1.746127
86  3.070844 -1.522965 0.101601  -1.563776 0.398264 -0.051684
87  5.597606 -2.928178 10.743622  -0.135243 -1.220387 -1.490863
88  2.930168 -2.309740 0.129152  -1.542557 -0.347073 -0.049239
89  -39.882629 3.733593 0.061547  0.000001 -0.000003 -1.570796
90  -1.679542 -10.540690 68.933853  1.570796 -0.000000 0.000000
91  1.756552 -10.544404 68.891121  1.570796 -0.000000 0.000000
time 1
0  2.625460 -10.728941 22.182981  0.003905 -0.706806 -1.573331
1  -14.405810 -0.065870 -16.868700  0.706812 0.002258 1.572725
2  -3.128891 -0.467871 -0.000001  -1.570762 -1.570451 -0.000033
3  4.433517 -0.003775 0.001766  -0.430540 -0.125837 0.278987
4  5.339582 -0.005377 0.000520  -0.093815 -0.027784 0.217229
5  6.941323 -0.005061 0.000487  -0.092744 -0.055031 0.272353
6  6.620022 -0.004727 0.000413  -0.087047 0.063347 0.077636
7  5.979200 -0.000735 0.000002  -0.000000 -0.000001 0.235619
8  0.948361 -0.000000 0.000000  0.491228 0.364453 -0.482642
9  11.042674 0.000001 0.000004  -0.000000 -0.000000 -0.000000
10  -3.731836 9.544963 0.014186  0.000000 0.000001 -1.675515
11  -3.853213 -3.394480 0.000000  0.000000 -0.000000 -0.000000
12  -0.000003 0.000749 2.684130  0.336232 -1.375092 2.612162
13  6.694800 0.000000 -0.000000  -0.035262 -0.851276 -1.107995
14  11.423446 0.000002 -0.000001  -0.251643 0.153262 -0.604568
15  11.236191 0.000011 0.000013  2.082277 0.205823 -0.604176
16  2.050504 0.662490 -1.659299  0.877234 0.772748 0.679093
17  1.066193 -0.000000 -0.000001  -0.000000 0.281234 0.000003
18  1.466002 -0.000003 0.000001  -0.000001 0.207744 0.000002
19  1.188149 0.000002 -0.000000  0.000000 -0.000000 -0.000000
20  5.193863 -0.001289 -1.622133  0.370337 0.158628 1.186248
21  1.525722 0.000000 -0.000004  0.000002 -0.000002 0.593123
22  1.473171 -0.000001 0.000003  0.000002 -0.000001 0.215524
23  1.279429 -0.000006 -0.000002  0.000001 -0.000000 0.000000
24  4.977363 -0.298617 -0.436308  0.139714 0.020843 1.360854
25  2.175563 0.000003 0.000005  -0.000000 -0.000002 0.297195
26  1.705909 -0.000000 -0.000007  -0.000001 -0.000001 0.263391
27  1.492658 0.000006 0.000001  0.000002 -0.000000 0.000000
28  5.227221 -0.016862 0.516779  -0.207132 -0.061967 1.416553
29  1.850601 0.000003 -0.000006  -0.000002 -0.000002 0.404350
30  1.530746 0.000000 0.000000  -0.000000 0.000001 0.000001
31  1.279430 0.000000 -0.000004  -0.000001 -0.000000 0.000000
32  5.193862 0.001291 1.622136  -0.391937 -0.089132 1.356806
33  1.485048 -0.000004 -0.000000  -0.000003 -0.000001 0.463483
34  1.294662 -0.000004 -0.000003  -0.000001 0.000000 0.170671
35  1.066181 -0.000002 0.000007  -0.000000 -0.000000 -0.000000
36  0.000004 0.000764 -2.684128  -0.155575 1.165801 2.762010
37  6.694805 0.000000 0.000004  -0.058553 -0.060687 -1.760435
38  11.423453 -0.000000 -0.000003  -0.267374 0.004844 -0.724290
39  11.236179 0.000001 0.000002  2.864462 0.892476 0.054477
40  1.195824 -0.033342 1.114690  -0.915034 -0.843405 0.748274
41  1.294658 -0.000002 0.000003  0.283746 0.304538 0.027302
42  2.182005 -0.000000 -0.000002  -0.000000 0.523433 -0.000000
43  1.188172 -0.000003 -0.000001  -0.000000 -0.000000 -3.141592
44  4.895138 -0.386527 1.693289  -0.066291 -0.054620 -0.245888
45  1.507900 -0.000002 0.000002  -0.000000 -0.000000 0.924223
46  1.370811 0.000002 0.000000  -0.000001 -0.000000 0.723903
47  1.279427 0.000002 -0.000005  0.000000 0.000001 3.141592
48  5.141361 -0.100722 0.541387  0.878998 0.126639 0.893598
49  1.759211 -0.000001 0.000001  -0.000001 0.000002 1.882081
50  1.599279 0.000000 -0.000010  -0.000001 0.000002 0.603100
51  1.492663 -0.000002 -0.000000  -0.000000 0.000000 -3.141592
52  5.079522 -0.068059 -0.623693  0.977150 -0.308207 1.391675
53  1.688845 -0.000002 -0.000001  -0.000001 0.000001 1.368088
54  1.507893 0.000000 0.000008  0.000000 0.000002 1.016343
55  1.279427 -0.000001 -0.000007  0.000000 0.000001 -3.141592
56  5.141360 -0.099001 -1.621449  0.786266 -0.387380 1.828600
57  1.256577 -0.000004 0.000005  -0.000002 0.000001 0.706531
58  1.142344 0.000001 -0.000005  0.000000 0.000001 0.784250
59  1.066189 0.000001 0.000005  0.000001 -0.000000 -3.141593
60  0.232747 -0.809301 1.175717  -3.117955 0.230511 0.116535
61  -3.663591 -0.970410 5.046924  0.005589 -2.592661 -1.162330
62  17.308264 0.000001 0.000003  0.000000 -0.000000 -1.918388
63  16.391676 -0.000000 0.000000  0.106970 -0.048425 0.284935
64  5.543006 2.217177 -0.000001  0.000000 0.000000 1.570796
65  2.219012 0.000000 -0.000000  -0.000000 -0.000000 -0.000000
66  2.219005 -0.000000 -0.000001  0.000000 0.000000 0.000000
67  2.323255 -0.000000 -0.000001  0.000000 -0.000000 -3.141592
68  -4.791580 2.751049 -3.055997  -0.526965 3.023324 -0.008946
69  17.308268 -0.000000 -0.000001  0.000000 -0.000000 -2.032209
70  16.391674 -0.000001 0.000000  -0.188257 -0.168887 -0.613190
71  5.543005 2.217175 0.000000  -0.000000 -0.000000 1.570796
72  2.219007 -0.000001 0.000001  0.000000 -0.000000 -0.000000
73  2.219006 -0.000001 0.000000  0.000000 -0.000000 -0.000000
74  2.323254 -0.000002 0.000001  0.000000 -0.000000 -0.000000
75  5.028735 -7.322627 0.014161  -0.000000 0.000001 -1.536686
76  4.835412 -2.118445 0.237901  -1.640610 -1.570796 0.000000
77  4.348885 -2.776602 -10.995127  -0.332241 -1.939523 -1.299005
78  -3.671423 -1.336567 -0.171207  -1.524006 0.347681 0.125368
79  5.768711 3.982527 -9.173450  -0.018554 -2.653223 -1.706597
80  0.067520 -2.350636 3.344429  -1.431170 1.082104 0.034906
81  4.998851 8.565450 -5.001398  -0.235033 -1.930170 -1.495695
82  -0.243933 -1.549031 2.646218  -1.431170 0.349067 0.087265
83  3.580553 8.020452 5.032158  -0.090668 -1.202692 -1.648989
84  -0.088494 -0.306854 4.016221  -1.431170 -0.366519 -0.034907
85  5.006870 3.913798 9.043613  0.122175 -1.972221 -1.746127
86  3.070842 -1.522967 0.101601  -1.563776 0.398264 -0.051684
87  5.597610 -2.928176 10.743622  -0.135243 -1.220387 -1.490863
88  2.930166 -2.309737 0.129156  -1.542557 -0.347073 -0.049239
89  -39.882629 3.733591 0.061546  0.000001 -0.000003 -1.570796
90  -1.679542 -10.540690 68.933853  1.570796 -0.000000 0.000000
91  1.756552 -10.544404 68.891121  1.570796 -0.000000 0.000000
time 2
0  2.704388 -10.313789 22.060247  0.003905 -0.706806 -1.573331
1  -14.326095 -0.065504 -16.775362  0.706812 0.002258 1.572725
2  -2.939349 -0.588975 -0.000000  -1.570762 -1.570451 -0.000033
3  4.433516 -0.003776 0.001766  -0.430540 -0.125837 0.278987
4  5.339583 -0.005376 0.000520  -0.093815 -0.027784 0.217229
5  6.940873 -0.005109 0.000900  -0.171877 -0.048440 0.189953
6  6.620013 -0.004727 0.000413  -0.087047 0.063347 0.077636
7  5.979203 -0.000736 0.000002  -0.000000 -0.000001 0.235619
8  0.948357 -0.000001 0.000000  0.599744 0.304697 -0.300167
9  11.042663 -0.000003 -0.000001  -0.000000 0.000000 -0.000000
10  -3.731842 9.544963 0.014185  0.000000 0.000001 -1.675515
11  -3.853212 -3.394489 0.000002  0.000000 -0.000000 -0.000000
12  -0.000000 0.000748 2.684130  0.339994 -1.358848 2.642982
13  6.694805 -0.000001 -0.000006  -0.311402 -0.772339 -0.675662
14  11.423446 0.000004 0.000005  -0.291052 0.088230 -1.029562
15  11.236185 0.000007 0.000003  2.095770 0.250377 -0.399608
16  2.050502 0.662492 -1.659303  0.877233 0.772748 0.679093
17  1.066186 0.000002 0.000000  -0.000000 0.281234 0.000003
18  1.466008 0.000001 0.000001  -0.000001 0.207744 0.000002
19  1.188150 0.000007 -0.000002  0.000000 -0.000000 -0.000000
20  5.193862 -0.001286 -1.622139  0.370337 0.158628 1.186248
21  1.525721 0.000001 0.000000  0.000002 -0.000002 0.593123
22  1.473173 -0.000001 0.000010  0.000002 -0.000001 0.215524
23  1.279422 0.000000 0.000011  0.000001 -0.000000 0.000000
24  4.977361 -0.298616 -0.436314  0.139714 0.020843 1.360854
25  2.175561 0.000001 -0.000001  -0.000000 -0.000002 0.297195
26  1.705903 0.000001 -0.000001  -0.000001 -0.000001 0.263391
27  1.492664 -0.000000 0.000003  0.000002 -0.000000 0.000000
28  5.227219 -0.016861 0.516776  -0.207132 -0.061967 1.416553
29  1.850604 0.000003 -0.000008  -0.000002 -0.000002 0.404350
30  1.530744 0.000000 0.000001  -0.000000 0.000001 0.000001
31  1.279425 0.000000 0.000005  -0.000001 -0.000000 -0.000000
32  5.193861 0.001290 1.622134  -0.391937 -0.089132 1.356806
33  1.485049 -0.000002 0.000001  -0.000003 -0.000001 0.463483
34  1.294663 -0.000006 -0.000004  -0.000001 -0.000000 0.170671
35  1.066186 -0.000003 0.000003  -0.000000 -0.000000 -0.000000
36  0.000002 0.000761 -2.684131  0.066925 1.169378 2.966796
37  6.694807 -0.000000 -0.000001  -0.054302 -0.201979 -1.868270
38  11.423455 0.000003 0.000004  -0.272614 -0.001702 -0.768204
39  11.236182 0.000003 0.000011  2.873988 0.887784 0.094815
40  1.195823 -0.033342 1.114691  -0.915034 -0.843405 0.748273
41  1.294660 -0.000005 -0.000001  0.283746 0.304538 0.027302
42  2.182005 -0.000002 -0.000001  -0.000000 0.523433 -0.000000
43  1.188164 -0.000002 0.000001  -0.000000 -0.000000 -3.141592
44  4.895143 -0.386527 1.693291  -0.066291 -0.054620 -0.245888
45  1.507895 -0.000001 -0.000000  -0.000000 -0.000001 0.924223
46  1.370808 -0.000004 0.000001  -0.000001 -0.000000 0.723903
47  1.279427 -0.000005 -0.000002  0.000000 0.000001 3.141592
48  5.141357 -0.100722 0.541390  0.878998 0.126639 0.893598
49  1.759213 -0.000001 -0.000003  -0.000001 0.000002 1.882081
50  1.599276 0.000001 0.000000  -0.000001 0.000002 0.603100
51  1.492663 -0.000002 0.000003  -0.000000 0.000000 -3.141592
52  5.079523 -0.068059 -0.623688  0.977150 -0.308207 1.391675
53  1.688846 -0.000002 0.000001  -0.000001 0.000001 1.368088
54  1.507894 -0.000000 0.000013  0.000000 0.000002 1.016343
55  1.279429 -0.000001 0.000006  0.000000 0.000001 -3.141592
56  5.141360 -0.099002 -1.621449  0.786266 -0.387380 1.828600
57  1.256580 0.000000 0.000011  -0.000002 0.000001 0.706531
58  1.142343 0.000002 -0.000004  0.000000 0.000001 0.784250
59  1.066186 0.000002 -0.000006  0.000001 -0.000000 -3.141593
60  0.232747 -0.809302 1.175720  -3.117955 0.230511 0.116535
61  -3.663591 -0.970408 5.046925  0.008781 -2.593155 -1.168450
62  17.308264 0.000008 -0.000001  -0.000000 0.000000 -1.903346
63  16.391678 0.000001 -0.000000  0.106708 -0.048533 0.264406
64  5.543004 2.217173 -0.000001  0.000000 0.000000 1.570796
65  2.219011 0.000000 -0.000000  -0.000000 -0.000000 -0.000000
66  2.219007 -0.000000 -0.000002  0.000000 0.000000 0.000000
67  2.323259 0.000000 0.000000  0.000000 -0.000000 -3.141592
68  -4.791579 2.751051 -3.055996  -0.524545 3.030110 -0.028388
69  17.308266 -0.000001 -0.000000  0.000000 -0.000000 -2.044759
70  16.391674 -0.000003 0.000001  -0.185902 -0.174711 -0.620780
71  5.543004 2.217175 -0.000000  -0.000000 -0.000000 1.570796
72  2.219006 -0.000001 0.000002  0.000000 0.000000 -0.000000
73  2.219007 -0.000002 -0.000001  0.000000 -0.000000 -0.000000
74  2.323255 -0.000000 -0.000000  0.000000 -0.000000 -0.000000
75  5.028738 -7.322626 0.014162  -0.000000 0.000001 -1.536686
76  4.835411 -2.118443 0.237900  -1.640610 -1.570796 0.000000
77  4.348885 -2.776599 -10.995125  -0.332241 -1.939523 -1.299005
78  -3.671423 -1.336568 -0.171208  -1.524006 0.347681 0.125368
79  5.768712 3.982530 -9.173450  -0.018554 -2.653223 -1.706597
80  0.067522 -2.350634 3.344429  -1.431170 1.082104 0.034906
81  4.998849 8.565453 -5.001398  -0.235033 -1.930170 -1.495695
82  -0.243933 -1.549031 2.646218  -1.431170 0.349067 0.087265
83  3.580553 8.020454 5.032158  -0.090668 -1.202692 -1.648989
84  -0.088494 -0.306852 4.016223  -1.431170 -0.366519 -0.034907
85  5.006873 3.913800 9.043613  0.122175 -1.972221 -1.746127
86  3.070844 -1.522971 0.101601  -1.563776 0.398264 -0.051684
87  5.597610 -2.928175 10.743623  -0.135243 -1.220387 -1.490863
88  2.930165 -2.309737 0.129157  -1.542557 -0.347073 -0.049239
89  -39.882629 3.733589 0.061546  0.000001 -0.000003 -1.570796
90  -1.679542 -10.540690 68.933853  1.570796 -0.000000 0.000000
91  1.756552 -10.544404 68.891121  1.570796 -0.000000 0.000000
time 3
0  2.666885 -10.065115 21.710180  0.003905 -0.706806 -1.573331
1  -14.098758 -0.064465 -16.509155  0.706812 0.002258 1.572725
2  -2.399324 -0.798604 -0.000002  -1.570762 -1.570451 -0.000033
3  4.433516 -0.003695 0.001929  -0.472737 -0.113720 0.284029
4  5.338967 -0.005474 0.000528  -0.095563 -0.038499 0.104418
5  6.940900 -0.005107 0.000875  -0.166899 -0.048467 0.195059
6  6.620019 -0.004726 0.000413  -0.087047 0.063347 0.077636
7  5.979207 -0.000735 0.000002  -0.000000 -0.000001 0.235619
8  0.948363 0.000001 0.000001  0.632306 0.261325 -0.210622
9  11.042682 -0.000001 -0.000000  -0.000000 0.000000 -0.000000
10  -3.731824 9.544964 0.014183  0.000000 0.000001 -1.675515
11  -3.853210 -3.394499 0.000001  0.000000 -0.000000 -0.000000
12  -0.000003 0.000751 2.684130  0.512812 -1.369685 2.472004
13  6.694805 0.000001 -0.000002  -0.294845 -0.581011 -0.500591
14  11.423468 0.000002 0.000011  -0.291008 0.055486 -1.194062
15  11.236188 -0.000003 -0.000003  2.133415 0.190699 -0.354110
16  2.050503 0.662490 -1.659301  0.877234 0.772748 0.679093
17  1.066187 -0.000001 0.000001  -0.000000 0.281234 0.000003
18  1.466009 -0.000003 0.000001  -0.000001 0.207744 0.000002
19  1.188154 -0.000003 -0.000000  0.000000 -0.000000 0.000000
20  5.193863 -0.001287 -1.622136  0.370337 0.158628 1.186248
21  1.525722 -0.000000 -0.000004  0.000002 -0.000002 0.593123
22  1.473172 0.000001 0.000006  0.000002 -0.000001 0.215524
23  1.279428 -0.000006 -0.000003  0.000001 0.000000 0.000000
24  4.977363 -0.298616 -0.436311  0.139714 0.020843 1.360854
25  2.175559 0.000003 -0.000008  -0.000000 -0.000002 0.297195
26  1.705901 0.000002 -0.000003  -0.000001 -0.000001 0.263391
27  1.492669 -0.000004 -0.000002  0.000002 -0.000000 0.000000
28  5.227220 -0.016860 0.516781  -0.207132 -0.061967 1.416553
29  1.850596 0.000004 -0.000010  -0.000002 -0.000001 0.404350
30  1.530744 0.000002 0.000002  -0.000000 0.000001 0.000001
31  1.279427 -0.000000 -0.000008  -0.000000 -0.000000 -0.000000
32  5.193863 0.001292 1.622133  -0.391937 -0.089132 1.356806
33  1.485050 -0.000001 0.000002  -0.000003 -0.000001 0.463483
34  1.294664 -0.000006 0.000004  -0.000001 -0.000000 0.170671
35  1.066180 0.000001 -0.000011  -0.000000 -0.000000 -0.000000
36  0.000005 0.000763 -2.684131  0.053051 1.169678 2.954025
37  6.694799 0.000001 -0.000004  -0.080812 -0.331338 -1.912344
38  11.423454 0.000005 0.000011  -0.265169 0.009448 -0.642111
39  11.236187 0.000001 0.000006  2.866103 0.926890 0.028610
40  1.195824 -0.033342 1.114690  -0.915034 -0.843405 0.748273
41  1.294660 -0.000001 0.000003  0.283746 0.304538 0.027302
42  2.182003 -0.000002 -0.000002  -0.000000 0.523433 -0.000000
43  1.188148 -0.000001 -0.000000  -0.000000 -0.000000 -3.141592
44  4.895142 -0.386527 1.693291  -0.066291 -0.054620 -0.245888
45  1.507902 0.000001 -0.000001  -0.000000 -0.000000 0.924223
46  1.370813 -0.000005 0.000003  -0.000001 -0.000000 0.723903
47  1.279429 0.000012 -0.000005  0.000000 0.000001 3.141592
48  5.141360 -0.100722 0.541388  0.878998 0.126639 0.893598
49  1.759213 -0.000001 -0.000000  -0.000001 0.000002 1.882081
50  1.599282 0.000004 -0.000004  -0.000001 0.000002 0.603100
51  1.492664 0.000002 0.000004  -0.000000 -0.000000 -3.141592
52  5.079524 -0.068058 -0.623692  0.977150 -0.308207 1.391675
53  1.688845 -0.000003 0.000005  -0.000001 0.000001 1.368088
54  1.507896 -0.000000 0.000015  0.000000 0.000002 1.016343
55  1.279421 -0.000000 -0.000000  0.000000 0.000001 -3.141592
56  5.141358 -0.099001 -1.621449  0.786266 -0.387380 1.828600
57  1.256580 0.000001 0.000008  -0.000002 0.000001 0.706531
58  1.142343 0.000002 -0.000003  0.000000 0.000001 0.784250
59  1.066190 0.000000 -0.000007  0.000001 -0.000000 -3.141592
60  0.232745 -0.809301 1.175718  -3.117955 0.230511 0.116535
61  -3.717656 -1.142619 4.970616  -0.013694 -2.551362 -1.161201
62  17.308266 -0.000003 0.000001  0.000000 -0.000000 -1.904345
63  16.391678 -0.000001 0.000003  0.114219 -0.055332 0.266181
64  5.543005 2.217178 0.000001  0.000000 0.000000 1.570796
65  2.219011 0.000000 -0.000001  -0.000000 -0.000000 -0.000000
66  2.219006 -0.000000 -0.000001  0.000000 0.000000 0.000000
67  2.323258 0.000000 0.000002  -0.000000 -0.000000 -3.141592
68  -4.737519 2.923262 -2.979692  -0.558226 3.027219 -0.035585
69  17.308266 -0.000002 0.000001  0.000000 -0.000000 -2.045286
70  16.391676 -0.000001 0.000000  -0.175416 -0.171643 -0.618393
71  5.543005 2.217177 0.000000  0.000000 -0.000000 1.570796
72  2.219007 -0.000000 0.000001  0.000000 -0.000000 -0.000000
73  2.219006 -0.000000 0.000000  0.000000 -0.000000 -0.000000
74  2.323256 0.000000 0.000000  0.000000 -0.000000 -0.000000
75  5.028735 -7.322626 0.014161  -0.000000 0.000001 -1.536686
76  4.835413 -2.118446 0.237900  -1.640610 -1.570796 0.000000
77  4.348880 -2.776599 -10.995127  -0.332240 -1.939523 -1.299005
78  -3.671423 -1.336571 -0.171210  -1.524006 0.347681 0.125368
79  5.768712 3.982528 -9.173452  -0.018554 -2.653223 -1.706597
80  0.067522 -2.350637 3.344429  -1.431170 1.082104 0.034906
81  4.998849 8.565451 -5.001400  -0.235034 -1.930170 -1.495694
82  -0.243935 -1.549031 2.646215  -1.431170 0.349067 0.087265
83  3.580550 8.020452 5.032156  -0.090668 -1.202692 -1.648989
84  -0.088493 -0.306856 4.016220  -1.431170 -0.366519 -0.034907
85  5.006866 3.913795 9.043609  0.122175 -1.972221 -1.746127
86  3.070842 -1.522966 0.101599  -1.563776 0.398264 -0.051684
87  5.597609 -2.928177 10.743622  -0.135243 -1.220387 -1.490863
88  2.930168 -2.309741 0.129155  -1.542557 -0.347073 -0.049239
89  -39.882629 3.733590 0.061546  0.000001 -0.000003 -1.570796
90  -1.679542 -10.540690 68.933853  1.570796 -0.000000 0.000000
91  1.756552 -10.544404 68.891121  1.570796 -0.000000 0.000000
time 4
0  1.900655 -10.005545 21.778473  0.003905 -0.706806 -1.573331
1  -14.143108 -0.064668 -16.561090  0.706812 0.002258 1.572725
2  -2.505943 -0.480334 -0.000005  -1.570762 -1.570451 -0.000033
3  4.433518 -0.003570 0.002151  -0.531617 -0.096424 0.290207
4  5.339010 -0.005467 0.000526  -0.095476 -0.037708 0.112685
5  6.940954 -0.005107 0.000820  -0.156559 -0.048686 0.205698
6  6.620033 -0.004726 0.000414  -0.087047 0.063347 0.077636
7  5.979202 -0.000736 0.000002  0.000000 -0.000001 0.235619
8  0.948365 -0.000000 -0.000000  0.670653 0.249242 -0.253562
9  11.042677 -0.000000 0.000003  -0.000000 -0.000000 -0.000000
10  -3.731832 9.544964 0.014185  0.000000 0.000001 -1.675515
11  -3.853209 -3.394489 -0.000002  0.000000 0.000000 -0.000000
12  0.000009 0.000747 2.684129  0.507969 -1.358858 2.491379
13  6.694801 0.000002 0.000007  -0.448345 -0.584171 -0.348307
14  11.423452 0.000002 -0.000002  -0.295312 0.046032 -1.288360
15  11.236194 0.000001 0.000002  2.127269 0.226799 -0.317178
16  2.050503 0.662486 -1.659300  0.877233 0.772749 0.679093
17  1.066189 -0.000003 0.000004  -0.000000 0.281234 0.000003
18  1.466013 -0.000001 -0.000000  -0.000001 0.207744 0.000002
19  1.188161 0.000002 -0.000000  0.000000 -0.000000 0.000000
20  5.193863 -0.001290 -1.622138  0.370337 0.158628 1.186248
21  1.525722 -0.000002 -0.000003  0.000002 -0.000002 0.593123
22  1.473172 -0.000004 0.000004  0.000002 -0.000001 0.215524
23  1.279427 -0.000002 0.000002  0.000001 -0.000000 0.000000
24  4.977362 -0.298621 -0.436311  0.139714 0.020843 1.360854
25  2.175561 0.000002 -0.000007  -0.000000 -0.000002 0.297195
26  1.705905 0.000002 -0.000007  -0.000001 -0.000001 0.263391
27  1.492669 -0.000002 0.000005  0.000002 -0.000000 0.000000
28  5.227220 -0.016865 0.516777  -0.207132 -0.061967 1.416553
29  1.850604 0.000003 -0.000009  -0.000002 -0.000001 0.404350
30  1.530740 0.000001 0.000002  -0.000000 0.000001 0.000001
31  1.279434 -0.000000 -0.000006  -0.000001 -0.000000 -0.000000
32  5.193862 0.001291 1.622134  -0.391937 -0.089132 1.356806
33  1.485049 -0.000007 -0.000006  -0.000003 -0.000001 0.463483
34  1.294660 -0.000005 0.000003  -0.000001 0.000000 0.170671
35  1.066192 -0.000001 -0.000004  -0.000000 -0.000000 -0.000000
36  0.000005 0.000763 -2.684132  0.024131 1.170079 2.927397
37  6.694811 -0.000003 0.000013  -0.109578 -0.292280 -1.940343
38  11.423454 -0.000003 -0.000005  -0.260027 0.007781 -0.683909
39  11.236184 0.000003 0.000011  2.871388 0.903567 0.062203
40  1.195827 -0.033342 1.114688  -0.915034 -0.843405 0.748273
41  1.294657 -0.000004 0.000003  0.283746 0.304538 0.027302
42  2.182006 -0.000003 -0.000002  -0.000000 0.523433 -0.000000
43  1.188150 0.000001 0.000004  -0.000000 -0.000000 -3.141592
44  4.895141 -0.386527 1.693290  -0.066291 -0.054620 -0.245888
45  1.507892 -0.000000 0.000004  -0.000000 -0.000001 0.924223
46  1.370814 0.000000 0.000004  -0.000001 -0.000000 0.723903
47  1.279425 0.000006 -0.000002  0.000000 0.000001 3.141592
48  5.141358 -0.100722 0.541387  0.878998 0.126639 0.893598
49  1.759211 0.000001 0.000000  -0.000001 0.000002 1.882081
50  1.599281 -0.000000 -0.000007  -0.000001 0.000002 0.603100
51  1.492662 -0.000001 0.000003  -0.000000 0.000000 -3.141592
52  5.079523 -0.068059 -0.623692  0.977150 -0.308207 1.391675
53  1.688845 -0.000002 0.000001  -0.000001 0.000001 1.368088
54  1.507895 -0.000000 0.000012  0.000000 0.000002 1.016343
55  1.279423 0.000001 0.000004  0.000000 0.000001 -3.141592
56  5.141363 -0.099001 -1.621448  0.786266 -0.387380 1.828600
57  1.256578 -0.000001 0.000001  -0.000002 0.000001 0.706531
58  1.142337 0.000001 0.000001  0.000000 0.000001 0.784250
59  1.066187 0.000002 -0.000007  0.000001 -0.000000 -3.141592
60  0.232745 -0.809302 1.175716  -3.117955 0.230511 0.116535
61  -3.794947 -1.377153 4.851121  -0.042887 -2.477724 -1.150444
62  17.308266 -0.000004 0.000001  0.000000 -0.000000 -1.892720
63  16.391674 -0.000001 0.000000  0.140348 -0.066783 0.251728
64  5.543005 2.217174 -0.000002  0.000000 0.000000 1.570796
65  2.219013 0.000000 0.000002  -0.000000 -0.000000 -0.000000
66  2.219007 -0.000000 -0.000002  0.000000 0.000000 0.000000
67  2.323260 0.000000 0.000001  0.000000 -0.000000 -3.141592
68  -4.660227 3.157794 -2.860198  -0.606840 3.055177 -0.039402
69  17.308270 -0.000001 -0.000000  0.000000 -0.000000 -2.057014
70  16.391680 -0.000001 0.000001  -0.148954 -0.139686 -0.618523
71  5.543005 2.217177 0.000001  -0.000000 -0.000000 1.570796
72  2.219006 -0.000001 0.000001  0.000000 0.000000 0.000000
73  2.219006 0.000000 0.000001  0.000000 -0.000000 0.000000
74  2.323257 0.000000 0.000000  0.000000 -0.000000 0.000000
75  5.028737 -7.322626 0.014161  -0.000000 0.000001 -1.536686
76  4.835411 -2.118444 0.237900  -1.640610 -1.570796 0.000000
77  4.348885 -2.776599 -10.995126  -0.332240 -1.939523 -1.299005
78  -3.671421 -1.336565 -0.171207  -1.524006 0.347681 0.125368
79  5.768713 3.982527 -9.173452  -0.018554 -2.653223 -1.706597
80  0.067519 -2.350641 3.344430  -1.431170 1.082104 0.034906
81  4.998852 8.565453 -5.001399  -0.235033 -1.930170 -1.495694
82  -0.243932 -1.549029 2.646219  -1.431170 0.349067 0.087265
83  3.580552 8.020453 5.032155  -0.090668 -1.202692 -1.648989
84  -0.088494 -0.306857 4.016223  -1.431170 -0.366519 -0.034907
85  5.006868 3.913795 9.043612  0.122175 -1.972221 -1.746127
86  3.070841 -1.522968 0.101602  -1.563776 0.398264 -0.051684
87  5.597605 -2.928177 10.743619  -0.135243 -1.220387 -1.490863
88  2.930167 -2.309735 0.129153  -1.542557 -0.347073 -0.049239
89  -39.882629 3.733591 0.061546  0.000001 -0.000003 -1.570796
90  -1.679542 -10.540690 68.933853  1.570796 -0.000000 0.000000
91  1.756552 -10.544404 68.891121  1.570796 -0.000000 0.000000
time 5
0  1.411087 -10.108993 21.843651  0.003905 -0.706806 -1.573331
1  -14.185442 -0.064862 -16.610657  0.706812 0.002258 1.572725
2  -2.606460 -0.446624 0.000000  -1.570762 -1.570451 -0.000033
3  4.433520 -0.003595 0.002108  -0.520110 -0.099837 0.289079
4  5.339101 -0.005456 0.000527  -0.095285 -0.036144 0.129047
5  6.941016 -0.005102 0.000766  -0.146148 -0.049131 0.216453
6  6.620020 -0.004726 0.000414  -0.087047 0.063347 0.077636
7  5.979202 -0.000735 0.000003  0.000000 -0.000001 0.235619
8  0.948352 0.000001 0.000001  0.646589 0.270091 -0.292256
9  11.042665 -0.000001 -0.000003  -0.000000 -0.000000 -0.000000
10  -3.731836 9.544964 0.014182  0.000000 0.000001 -1.675515
11  -3.853212 -3.394488 -0.000000  0.000000 -0.000000 -0.000000
12  -0.000004 0.000748 2.684131  0.517937 -1.370622 2.473494
13  6.694805 -0.000001 -0.000010  -0.433415 -0.624236 -0.408729
14  11.423450 0.000001 -0.000008  -0.296063 0.060888 -1.200831
15  11.236195 0.000006 0.000008  2.115664 0.225948 -0.365526
16  2.050502 0.662490 -1.659304  0.877233 0.772749 0.679093
17  1.066198 0.000002 -0.000002  -0.000000 0.281234 0.000003
18  1.466009 0.000000 0.000002  -0.000001 0.207744 0.000002
19  1.188145 0.000003 -0.000001  0.000000 -0.000000 -0.000000
20  5.193862 -0.001291 -1.622140  0.370337 0.158628 1.186248
21  1.525719 -0.000001 0.000000  0.000002 -0.000002 0.593123
22  1.473164 -0.000004 0.000008  0.000002 -0.000001 0.215524
23  1.279426 -0.000003 0.000000  0.000001 -0.000000 0.000000
24  4.977361 -0.298620 -0.436312  0.139714 0.020843 1.360854
25  2.175559 0.000003 -0.000000  -0.000000 -0.000002 0.297195
26  1.705905 0.000001 0.000001  -0.000001 -0.000001 0.263391
27  1.492666 0.000001 -0.000002  0.000002 -0.000000 0.000000
28  5.227220 -0.016865 0.516773  -0.207132 -0.061967 1.416553
29  1.850607 0.000005 -0.000009  -0.000002 -0.000002 0.404350
30  1.530736 0.000003 -0.000002  -0.000000 0.000001 0.000001
31  1.279424 0.000000 -0.000002  -0.000001 -0.000000 -0.000000
32  5.193861 0.001292 1.622131  -0.391937 -0.089132 1.356806
33  1.485052 -0.000003 -0.000004  -0.000003 -0.000001 0.463483
34  1.294664 -0.000005 0.000003  -0.000001 -0.000000 0.170671
35  1.066186 -0.000002 0.000000  -0.000000 -0.000000 -0.000000
36  -0.000006 0.000765 -2.684131  -0.005095 1.170179 2.900486
37  6.694800 -0.000000 -0.000011  -0.107821 -0.255036 -1.954362
38  11.423454 -0.000000 0.000004  -0.248479 0.014179 -0.638743
39  11.236183 -0.000000 0.000004  2.868335 0.901192 0.046211
40  1.195833 -0.033342 1.114689  -0.915034 -0.843405 0.748273
41  1.294658 -0.000004 -0.000000  0.283746 0.304538 0.027302
42  2.182003 -0.000003 -0.000000  -0.000000 0.523433 -0.000000
43  1.188148 0.000000 0.000000  -0.000000 -0.000000 -3.141592
44  4.895145 -0.386527 1.693292  -0.066291 -0.054620 -0.245888
45  1.507890 0.000001 0.000002  -0.000000 -0.000001 0.924223
46  1.370807 0.000001 0.000003  -0.000001 -0.000000 0.723903
47  1.279425 0.000012 -0.000006  0.000000 0.000001 3.141592
48  5.141365 -0.100722 0.541387  0.878998 0.126639 0.893598
49  1.759212 -0.000001 0.000001  -0.000001 0.000002 1.882081
50  1.599280 0.000001 0.000003  -0.000001 0.000002 0.603100
51  1.492665 -0.000002 0.000004  -0.000000 0.000000 -3.141592
52  5.079527 -0.068059 -0.623692  0.977150 -0.308207 1.391675
53  1.688847 -0.000002 0.000005  -0.000001 0.000001 1.368088
54  1.507897 0.000002 0.000014  0.000000 0.000002 1.016344
55  1.279423 -0.000002 -0.000000  0.000000 0.000001 -3.141592
56  5.141365 -0.099001 -1.621448  0.786266 -0.387380 1.828600
57  1.256579 -0.000000 0.000006  -0.000002 0.000001 0.706531
58  1.142345 0.000002 -0.000004  0.000000 0.000001 0.784250
59  1.066185 0.000000 -0.000006  0.000001 -0.000000 -3.141593
60  0.232753 -0.809301 1.175717  -3.117955 0.230511 0.116535
61  -3.779685 -1.331889 4.875657  -0.022467 -2.466526 -1.150054
62  17.308266 -0.000000 0.000000  0.000000 -0.000000 -1.889795
63  16.391676 0.000001 0.000001  0.162005 -0.078938 0.248993
64  5.543005 2.217176 0.000001  0.000000 0.000000 1.570796
65  2.219010 0.000000 0.000002  -0.000000 -0.000000 -0.000000
66  2.219008 -0.000000 -0.000001  0.000000 0.000000 0.000000
67  2.323258 0.000000 0.000001  -0.000000 -0.000000 -3.141592
68  -4.675486 3.112531 -2.884730  -0.583727 3.081595 -0.014570
69  17.308266 -0.000001 -0.000001  -0.000000 -0.000000 -2.059867
70  16.391676 -0.000001 0.000001  -0.125448 -0.115147 -0.614493
71  5.543005 2.217176 0.000001  0.000000 -0.000000 1.570796
72  2.219006 -0.000001 0.000001  0.000000 -0.000000 -0.000000
73  2.219006 0.000000 0.000000  0.000000 -0.000000 -0.000000
74  2.323256 0.000001 0.000001  0.000000 -0.000000 -0.000000
75  5.028737 -7.322625 0.014161  -0.000000 0.000001 -1.536686
76  4.835413 -2.118450 0.237900  -1.640610 -1.570796 0.000000
77  4.348885 -2.776600 -10.995125  -0.332241 -1.939523 -1.299005
78  -3.671424 -1.336567 -0.171207  -1.524006 0.347681 0.125368
79  5.768710 3.982526 -9.173451  -0.018554 -2.653223 -1.706597
80  0.067519 -2.350637 3.344429  -1.431170 1.082104 0.034906
81  4.998851 8.565453 -5.001400  -0.235034 -1.930170 -1.495694
82  -0.243931 -1.549030 2.646215  -1.431170 0.349067 0.087265
83  3.580552 8.020452 5.032155  -0.090668 -1.202692 -1.648989
84  -0.088493 -0.306858 4.016217  -1.431170 -0.366519 -0.034907
85  5.006868 3.913796 9.043610  0.122175 -1.972221 -1.746127
86  3.070843 -1.522965 0.101601  -1.563776 0.398264 -0.051684
87  5.597604 -2.928180 10.743620  -0.135243 -1.220387 -1.490863
88  2.930168 -2.309743 0.129151  -1.542557 -0.347073 -0.049239
89  -39.882629 3.733592 0.061546  0.000001 -0.000003 -1.570796
90  -1.679542 -10.540690 68.933853  1.570796 -0.000000 0.000000
91  1.756552 -10.544404 68.891121  1.570796 -0.000000 0.000000
time 6
0  1.468285 -10.293087 21.907150  0.003905 -0.706806 -1.573331
1  -14.226684 -0.065051 -16.658943  0.706812 0.002258 1.572725
2  -2.704280 -0.439413 0.000002  -1.570762 -1.570451 -0.000033
3  4.433516 -0.003630 0.002047  -0.503828 -0.104640 0.287418
4  5.339192 -0.005445 0.000526  -0.095067 -0.034580 0.145451
5  6.941076 -0.005096 0.000714  -0.136111 -0.049775 0.226865
6  6.620023 -0.004726 0.000413  -0.087047 0.063347 0.077636
7  5.979194 -0.000735 0.000000  -0.000000 -0.000001 0.235619
8  0.948363 -0.000001 0.000001  0.618004 0.291809 -0.330268
9  11.042679 0.000001 0.000001  -0.000000 0.000000 -0.000000
10  -3.731823 9.544962 0.014187  0.000000 0.000001 -1.675515
11  -3.853213 -3.394491 0.000002  0.000000 0.000000 -0.000000
12  -0.000000 0.000749 2.684130  0.536918 -1.383613 2.444694
13  6.694803 0.000001 0.000004  -0.400827 -0.666712 -0.488064
14  11.423457 -0.000000 0.000001  -0.293429 0.079314 -1.095215
15  11.236190 0.000007 0.000012  2.102288 0.221782 -0.423004
16  2.050503 0.662479 -1.659299  0.877234 0.772748 0.679093
17  1.066194 -0.000001 -0.000000  -0.000000 0.281234 0.000003
18  1.466010 0.000001 0.000001  -0.000001 0.207744 0.000002
19  1.188141 0.000007 -0.000002  0.000000 -0.000000 0.000000
20  5.193863 -0.001297 -1.622133  0.370337 0.158628 1.186248
21  1.525718 -0.000003 -0.000006  0.000002 -0.000002 0.593123
22  1.473164 -0.000001 0.000004  0.000002 -0.000001 0.215524
23  1.279428 -0.000000 0.000005  0.000001 -0.000000 0.000000
24  4.977363 -0.298626 -0.436307  0.139714 0.020843 1.360854
25  2.175566 -0.000000 0.000005  -0.000000 -0.000002 0.297195
26  1.705911 0.000002 -0.000002  -0.000001 -0.000001 0.263391
27  1.492666 0.000004 0.000004  0.000002 -0.000000 0.000000
28  5.227219 -0.016872 0.516780  -0.207132 -0.061967 1.416553
29  1.850603 0.000004 -0.000009  -0.000002 -0.000002 0.404350
30  1.530738 0.000002 -0.000004  -0.000000 0.000001 0.000001
31  1.279429 -0.000000 -0.000010  -0.000001 -0.000000 -0.000000
32  5.193862 0.001285 1.622136  -0.391937 -0.089132 1.356806
33  1.485051 -0.000002 -0.000005  -0.000003 -0.000001 0.463483
34  1.294661 -0.000006 -0.000000  -0.000001 0.000000 0.170671
35  1.066189 -0.000005 -0.000003  -0.000000 -0.000000 -0.000000
36  0.000012 0.000761 -2.684129  -0.033349 1.169984 2.874471
37  6.694797 0.000001 -0.000016  -0.104828 -0.218144 -1.967958
38  11.423459 -0.000005 0.000001  -0.236287 0.020117 -0.585180
39  11.236182 0.000001 0.000004  2.864535 0.900189 0.024571
40  1.195825 -0.033342 1.114692  -0.915034 -0.843405 0.748273
41  1.294657 -0.000004 -0.000001  0.283746 0.304538 0.027302
42  2.182007 0.000000 -0.000002  -0.000000 0.523433 -0.000000
43  1.188157 -0.000002 0.000003  -0.000000 -0.000000 -3.141592
44  4.895144 -0.386527 1.693294  -0.066291 -0.054620 -0.245888
45  1.507900 -0.000000 0.000003  -0.000000 -0.000000 0.924223
46  1.370811 0.000000 0.000003  -0.000001 -0.000000 0.723903
47  1.279428 0.000007 -0.000003  0.000000 0.000001 3.141592
48  5.141363 -0.100722 0.541393  0.878998 0.126639 0.893598
49  1.759214 -0.000003 -0.000005  -0.000001 0.000002 1.882081
50  1.599281 0.000000 -0.000003  -0.000001 0.000002 0.603100
51  1.492664 -0.000002 0.000001  -0.000000 0.000000 -3.141592
52  5.079522 -0.068059 -0.623690  0.977150 -0.308207 1.391675
53  1.688847 -0.000004 -0.000001  -0.000001 0.000001 1.368088
54  1.507896 0.000000 0.000011  0.000000 0.000002 1.016343
55  1.279427 -0.000002 -0.000011  0.000000 0.000001 -3.141592
56  5.141359 -0.099001 -1.621448  0.786266 -0.387380 1.828600
57  1.256579 0.000002 -0.000001  -0.000002 0.000001 0.706531
58  1.142339 0.000000 -0.000001  0.000000 0.000001 0.784250
59  1.066189 -0.000001 -0.000005  0.000001 -0.000000 -3.141592
60  0.232749 -0.809302 1.175719  -3.117955 0.230511 0.116535
61  -3.758215 -1.267359 4.909392  -0.012745 -2.482054 -1.151425
62  17.308262 0.000002 0.000002  0.000000 -0.000000 -1.896913
63  16.391678 -0.000003 0.000001  0.159771 -0.078032 0.258242
64  5.543005 2.217173 -0.000000  0.000000 0.000000 1.570796
65  2.219010 0.000000 0.000002  -0.000000 -0.000000 -0.000000
66  2.219005 -0.000000 -0.000001  0.000000 0.000000 0.000000
67  2.323257 0.000000 0.000001  -0.000000 -0.000000 -3.141592
68  -4.696958 3.048003 -2.918466  -0.569493 3.077403 -0.004375
69  17.308270 -0.000001 -0.000000  0.000000 -0.000000 -2.054096
70  16.391678 -0.000001 -0.000000  -0.128946 -0.117331 -0.611202
71  5.543006 2.217176 0.000000  -0.000000 -0.000000 1.570796
72  2.219007 0.000000 0.000001  0.000000 -0.000000 -0.000000
73  2.219005 -0.000001 0.000001  0.000000 -0.000000 -0.000000
74  2.323256 0.000000 0.000000  0.000000 -0.000000 -0.000000
75  5.028735 -7.322627 0.014161  -0.000000 0.000001 -1.536686
76  4.835412 -2.118449 0.237901  -1.640610 -1.570796 0.000000
77  4.348882 -2.776600 -10.995126  -0.332240 -1.939523 -1.299005
78  -3.671424 -1.336570 -0.171208  -1.524006 0.347681 0.125368
79  5.768709 3.982528 -9.173452  -0.018554 -2.653223 -1.706597
80  0.067518 -2.350640 3.344426  -1.431170 1.082104 0.034906
81  4.998850 8.565453 -5.001399  -0.235034 -1.930170 -1.495694
82  -0.243931 -1.549028 2.646218  -1.431170 0.349067 0.087265
83  3.580552 8.020454 5.032156  -0.090668 -1.202692 -1.648989
84  -0.088494 -0.306853 4.016221  -1.431171 -0.366519 -0.034907
85  5.006865 3.913795 9.043609  0.122175 -1.972221 -1.746127
86  3.070845 -1.522971 0.101605  -1.563776 0.398264 -0.051684
87  5.597608 -2.928175 10.743620  -0.135243 -1.220387 -1.490863
88  2.930169 -2.309738 0.129154  -1.542557 -0.347073 -0.049239
89  -39.882622 3.733586 0.061546  0.000001 -0.000003 -1.570796
90  -1.679542 -10.540690 68.933853  1.570796 -0.000000 0.000000
91  1.756552 -10.544404 68.891121  1.570796 -0.000000 0.000000
time 7
0  1.552258 -10.422237 21.967749  0.003905 -0.706806 -1.573331
1  -14.266035 -0.065231 -16.705027  0.706812 0.002258 1.572725
2  -2.797597 -0.438344 -0.000002  -1.570762 -1.570451 -0.000033
3  4.433517 -0.003662 0.001987  -0.487876 -0.109314 0.285714
4  5.339276 -0.005431 0.000524  -0.094835 -0.033088 0.161133
5  6.941129 -0.005089 0.000664  -0.126573 -0.050584 0.236799
6  6.620016 -0.004727 0.000413  -0.087047 0.063347 0.077636
7  5.979201 -0.000735 0.000001  -0.000000 -0.000001 0.235619
8  0.948352 -0.000001 -0.000000  0.589656 0.311893 -0.367393
9  11.042669 -0.000002 -0.000001  -0.000000 -0.000000 -0.000000
10  -3.731833 9.544963 0.014185  0.000000 0.000001 -1.675515
11  -3.853211 -3.394491 0.000001  0.000000 0.000000 -0.000000
12  0.000003 0.000747 2.684131  0.562309 -1.395319 2.408970
13  6.694802 -0.000001 -0.000010  -0.361499 -0.707635 -0.572652
14  11.423450 0.000003 0.000004  -0.287213 0.099338 -0.983308
15  11.236190 0.000010 0.000008  2.087939 0.217755 -0.484366
16  2.050502 0.662487 -1.659296  0.877233 0.772748 0.679093
17  1.066190 -0.000000 -0.000001  -0.000000 0.281234 0.000003
18  1.466011 0.000000 -0.000001  -0.000001 0.207744 0.000002
19  1.188158 -0.000000 -0.000001  0.000000 -0.000000 0.000000
20  5.193862 -0.001291 -1.622132  0.370337 0.158628 1.186248
21  1.525720 -0.000000 -0.000002  0.000002 -0.000002 0.593123
22  1.473172 -0.000008 0.000005  0.000002 -0.000001 0.215524
23  1.279429 -0.000000 -0.000004  0.000001 0.000000 0.000000
24  4.977361 -0.298620 -0.436305  0.139714 0.020843 1.360854
25  2.175560 0.000001 0.000001  -0.000000 -0.000002 0.297195
26  1.705909 -0.000001 -0.000010  -0.000001 -0.000001 0.263391
27  1.492665 -0.000001 -0.000011  0.000002 -0.000000 0.000000
28  5.227219 -0.016867 0.516782  -0.207132 -0.061967 1.416553
29  1.850598 0.000003 -0.000008  -0.000002 -0.000002 0.404350
30  1.530744 0.000000 0.000004  -0.000000 0.000001 0.000001
31  1.279427 -0.000002 -0.000010  -0.000001 -0.000000 -0.000000
32  5.193861 0.001289 1.622139  -0.391937 -0.089132 1.356806
33  1.485047 -0.000004 -0.000005  -0.000003 -0.000001 0.463483
34  1.294657 -0.000005 0.000005  -0.000001 0.000000 0.170671
35  1.066189 -0.000001 0.000003  -0.000000 -0.000000 -0.000000
36  0.000004 0.000761 -2.684131  -0.060240 1.169531 2.849712
37  6.694822 -0.000001 0.000028  -0.102846 -0.182352 -1.983162
38  11.423452 0.000002 0.000012  -0.224156 0.024732 -0.528727
39  11.236189 0.000001 -0.000003  2.860745 0.899605 0.001161
40  1.195824 -0.033342 1.114686  -0.915034 -0.843405 0.748273
41  1.294655 -0.000004 -0.000001  0.283746 0.304538 0.027302
42  2.182011 -0.000003 -0.000001  -0.000000 0.523433 -0.000000
43  1.188155 0.000001 0.000000  -0.000000 -0.000000 -3.141592
44  4.895145 -0.386526 1.693288  -0.066291 -0.054620 -0.245888
45  1.507899 0.000000 -0.000001  -0.000000 -0.000001 0.924223
46  1.370818 -0.000001 0.000002  -0.000001 -0.000000 0.723903
47  1.279428 0.000008 -0.000006  0.000000 0.000001 3.141592
48  5.141361 -0.100722 0.541386  0.878998 0.126639 0.893598
49  1.759211 0.000001 0.000000  -0.000001 0.000002 1.882081
50  1.599282 0.000002 -0.000008  -0.000001 0.000002 0.603100
51  1.492665 0.000000 0.000004  -0.000000 0.000000 -3.141592
52  5.079525 -0.068058 -0.623692  0.977150 -0.308207 1.391675
53  1.688845 -0.000001 -0.000001  -0.000001 0.000001 1.368088
54  1.507895 0.000001 0.000013  0.000000 0.000002 1.016344
55  1.279426 0.000001 0.000007  0.000000 0.000001 -3.141592
56  5.141362 -0.099001 -1.621452  0.786266 -0.387380 1.828600
57  1.256578 0.000000 0.000012  -0.000002 0.000001 0.706531
58  1.142339 0.000001 -0.000004  0.000000 0.000001 0.784250
59  1.066188 0.000002 -0.000009  0.000001 -0.000000 -3.141593
60  0.232749 -0.809301 1.175714  -3.117955 0.230511 0.116535
61  -3.737331 -1.203600 4.941329  -0.003761 -2.498600 -1.153527
62  17.308262 0.000002 0.000002  -0.000000 -0.000000 -1.901749
63  16.391674 0.000003 0.000003  0.156162 -0.076231 0.264474
64  5.543005 2.217172 -0.000001  0.000000 0.000000 1.570796
65  2.219009 0.000000 0.000002  -0.000000 -0.000000 -0.000000
66  2.219005 -0.000000 -0.000001  0.000000 0.000000 0.000000
67  2.323260 0.000000 0.000000  -0.000000 -0.000000 -3.141592
68  -4.717841 2.984243 -2.950405  -0.556255 3.073858 0.002088
69  17.308270 -0.000003 -0.000001  0.000000 -0.000000 -2.050105
70  16.391676 -0.000003 0.000000  -0.133549 -0.120546 -0.609876
71  5.543005 2.217176 0.000000  -0.000000 -0.000000 1.570796
72  2.219006 -0.000000 0.000000  0.000000 -0.000000 0.000000
73  2.219007 0.000003 -0.000000  0.000000 -0.000000 0.000000
74  2.323256 0.000000 0.000000  0.000000 -0.000000 0.000000
75  5.028735 -7.322625 0.014161  -0.000000 0.000001 -1.536686
76  4.835412 -2.118446 0.237901  -1.640610 -1.570796 0.000000
77  4.348881 -2.776599 -10.995126  -0.332241 -1.939523 -1.299005
78  -3.671422 -1.336572 -0.171210  -1.524006 0.347681 0.125368
79  5.768709 3.982528 -9.173451  -0.018554 -2.653223 -1.706597
80  0.067521 -2.350633 3.344428  -1.431170 1.082104 0.034906
81  4.998850 8.565453 -5.001399  -0.235033 -1.930170 -1.495694
82  -0.243932 -1.549035 2.646216  -1.431170 0.349067 0.087265
83  3.580550 8.020453 5.032156  -0.090668 -1.202692 -1.648989
84  -0.088494 -0.306857 4.016222  -1.431171 -0.366519 -0.034907
85  5.006866 3.913796 9.043610  0.122175 -1.972221 -1.746127
86  3.070840 -1.522967 0.101600  -1.563776 0.398264 -0.051684
87  5.597609 -2.928175 10.743622  -0.135243 -1.220387 -1.490863
88  2.930167 -2.309737 0.129155  -1.542557 -0.347073 -0.049239
89  -39.882629 3.733591 0.061546  0.000001 -0.000003 -1.570796
90  -1.679542 -10.540690 68.933853  1.570796 -0.000000 0.000000
91  1.756552 -10.544404 68.891121  1.570796 -0.000000 0.000000
time 8
0  1.632724 -10.534349 22.024441  0.003905 -0.706806 -1.573331
1  -14.302854 -0.065399 -16.748150  0.706812 0.002258 1.572725
2  -2.884875 -0.441116 -0.000002  -1.570762 -1.570451 -0.000033
3  4.433517 -0.003695 0.001930  -0.472882 -0.113677 0.284046
4  5.339355 -0.005422 0.000522  -0.094597 -0.031693 0.175827
5  6.941177 -0.005085 0.000619  -0.117667 -0.051515 0.246109
6  6.620012 -0.004727 0.000413  -0.087047 0.063347 0.077636
7  5.979203 -0.000735 0.000001  0.000000 -0.000001 0.235619
8  0.948352 0.000001 -0.000001  0.562417 0.329969 -0.402979
9  11.042666 0.000000 -0.000002  -0.000000 -0.000000 -0.000000
10  -3.731834 9.544966 0.014187  0.000000 0.000001 -1.675515
11  -3.853213 -3.394486 0.000002  0.000000 -0.000000 -0.000000
12  -0.000003 0.000750 2.684129  0.594543 -1.405223 2.366245
13  6.694800 -0.000001 0.000010  -0.315622 -0.745785 -0.661736
14  11.423455 0.000004 0.000002  -0.277265 0.120153 -0.866395
15  11.236197 0.000008 0.000011  2.073170 0.214063 -0.548607
16  2.050503 0.662489 -1.659301  0.877234 0.772749 0.679093
17  1.066195 0.000002 0.000000  -0.000000 0.281234 0.000003
18  1.465997 -0.000003 -0.000001  -0.000001 0.207744 0.000002
19  1.188151 0.000003 0.000000  0.000000 -0.000000 -0.000000
20  5.193863 -0.001290 -1.622135  0.370337 0.158628 1.186248
21  1.525721 -0.000001 -0.000004  0.000002 -0.000002 0.593123
22  1.473166 0.000000 0.000007  0.000002 -0.000001 0.215524
23  1.279435 -0.000010 0.000001  0.000001 -0.000000 0.000000
24  4.977362 -0.298620 -0.436307  0.139714 0.020842 1.360854
25  2.175566 0.000001 0.000004  -0.000000 -0.000002 0.297195
26  1.705905 0.000001 -0.000008  -0.000001 -0.000001 0.263391
27  1.492659 -0.000003 -0.000002  0.000002 -0.000000 0.000000
28  5.227219 -0.016864 0.516778  -0.207132 -0.061967 1.416553
29  1.850600 0.000003 -0.000015  -0.000002 -0.000001 0.404350
30  1.530740 0.000001 -0.000000  -0.000000 0.000001 0.000001
31  1.279438 0.000000 -0.000009  -0.000001 -0.000000 0.000000
32  5.193862 0.001289 1.622134  -0.391937 -0.089132 1.356806
33  1.485050 -0.000003 -0.000004  -0.000003 -0.000001 0.463483
34  1.294669 -0.000007 -0.000002  -0.000001 0.000000 0.170671
35  1.066193 0.000000 0.000003  -0.000000 -0.000000 -0.000000
36  -0.000002 0.000763 -2.684129  -0.085362 1.168872 2.826590
37  6.694793 0.000003 -0.000019  -0.102102 -0.148357 -2.000092
38  11.423454 0.000001 -0.000001  -0.212416 0.027775 -0.470194
39  11.236189 0.000002 -0.000001  2.857049 0.899626 -0.023647
40  1.195827 -0.033342 1.114691  -0.915034 -0.843405 0.748273
41  1.294663 -0.000003 -0.000000  0.283746 0.304538 0.027302
42  2.182010 -0.000004 -0.000001  -0.000000 0.523433 -0.000000
43  1.188154 -0.000002 0.000002  -0.000000 -0.000000 -3.141592
44  4.895141 -0.386527 1.693289  -0.066291 -0.054620 -0.245888
45  1.507896 0.000000 0.000001  -0.000000 -0.000001 0.924223
46  1.370807 -0.000000 0.000000  -0.000001 -0.000000 0.723903
47  1.279426 -0.000002 -0.000003  0.000000 0.000001 3.141592
48  5.141363 -0.100722 0.541388  0.878998 0.126639 0.893598
49  1.759212 -0.000002 -0.000003  -0.000001 0.000002 1.882081
50  1.599281 0.000001 -0.000008  -0.000001 0.000002 0.603100
51  1.492661 -0.000002 0.000000  -0.000000 0.000000 -3.141592
52  5.079527 -0.068059 -0.623694  0.977150 -0.308207 1.391675
53  1.688843 -0.000003 0.000003  -0.000001 0.000001 1.368088
54  1.507895 0.000002 0.000003  0.000000 0.000002 1.016344
55  1.279427 -0.000000 0.000008  0.000000 0.000001 -3.141592
56  5.141362 -0.099001 -1.621452  0.786266 -0.387380 1.828600
57  1.256579 -0.000001 0.000004  -0.000002 0.000001 0.706531
58  1.142342 0.000001 -0.000000  0.000000 0.000001 0.784250
59  1.066184 0.000001 -0.000003  0.000001 -0.000000 -3.141593
60  0.232750 -0.809301 1.175717  -3.117955 0.230511 0.116535
61  -3.717842 -1.143211 4.970339  0.004583 -2.514205 -1.155389
62  17.308264 -0.000001 0.000001  0.000000 -0.000000 -1.905808
63  16.391680 -0.000003 0.000001  0.152715 -0.074519 0.269723
64  5.543005 2.217175 -0.000000  0.000000 0.000000 1.570796
65  2.219010 0.000000 0.000001  -0.000000 -0.000000 -0.000000
66  2.219007 -0.000000 -0.000002  0.000000 0.000000 0.000000
67  2.323259 0.000000 0.000002  -0.000000 -0.000000 -3.141592
68  -4.737328 2.923849 -2.979416  -0.543225 3.070226 0.007327
69  17.308266 -0.000001 -0.000001  0.000000 -0.000000 -2.046688
70  16.391676 -0.000000 0.000001  -0.137821 -0.124012 -0.608678
71  5.543004 2.217176 0.000000  -0.000000 -0.000000 1.570796
72  2.219007 0.000000 -0.000000  0.000000 -0.000000 -0.000000
73  2.219007 -0.000000 -0.000001  0.000000 -0.000000 -0.000000
74  2.323257 -0.000001 -0.000000  0.000000 -0.000000 -0.000000
75  5.028737 -7.322625 0.014161  -0.000000 0.000001 -1.536686
76  4.835412 -2.118448 0.237901  -1.640609 -1.570796 0.000000
77  4.348882 -2.776600 -10.995126  -0.332240 -1.939523 -1.299005
78  -3.671423 -1.336569 -0.171209  -1.524006 0.347681 0.125368
79  5.768710 3.982526 -9.173451  -0.018554 -2.653223 -1.706597
80  0.067522 -2.350639 3.344429  -1.431170 1.082104 0.034906
81  4.998852 8.565451 -5.001399  -0.235033 -1.930170 -1.495694
82  -0.243934 -1.549030 2.646216  -1.431170 0.349067 0.087265
83  3.580552 8.020452 5.032156  -0.090668 -1.202692 -1.648989
84  -0.088494 -0.306856 4.016219  -1.431171 -0.366519 -0.034907
85  5.006868 3.913797 9.043610  0.122175 -1.972221 -1.746127
86  3.070843 -1.522969 0.101601  -1.563776 0.398264 -0.051684
87  5.597608 -2.928177 10.743621  -0.135243 -1.220387 -1.490863
88  2.930168 -2.309737 0.129154  -1.542557 -0.347073 -0.049239
89  -39.882629 3.733589 0.061546  0.000001 -0.000003 -1.570796
90  -1.679542 -10.540690 68.933853  1.570796 -0.000000 0.000000
91  1.756552 -10.544404 68.891121  1.570796 -0.000000 0.000000
time 9
0  1.714097 -10.646143 22.076023  0.003905 -0.706806 -1.573331
1  -14.336343 -0.065552 -16.787359  0.706812 0.002258 1.572725
2  -2.964283 -0.446723 0.000001  -1.570762 -1.570451 -0.000033
3  4.433520 -0.003720 0.001877  -0.459186 -0.117638 0.282465
4  5.339436 -0.005406 0.000522  -0.094361 -0.030424 0.189233
5  6.941222 -0.005077 0.000576  -0.109568 -0.052509 0.254607
6  6.620018 -0.004726 0.000413  -0.087047 0.063347 0.077636
7  5.979201 -0.000735 0.000002  0.000000 -0.000001 0.235619
8  0.948359 0.000001 0.000000  0.537007 0.345799 -0.436132
9  11.042674 0.000003 0.000005  0.000000 -0.000000 -0.000000
10  -3.731834 9.544966 0.014189  0.000000 0.000001 -1.675515
11  -3.853212 -3.394489 -0.000002  0.000000 0.000000 -0.000000
12  -0.000004 0.000752 2.684130  0.633478 -1.413196 2.316948
13  6.694802 -0.000001 -0.000004  -0.263042 -0.779865 -0.754951
14  11.423453 0.000000 0.000007  -0.263616 0.140965 -0.745553
15  11.236185 0.000004 -0.000001  2.058446 0.210455 -0.614805
16  2.050503 0.662489 -1.659299  0.877233 0.772748 0.679093
17  1.066191 0.000001 0.000005  -0.000000 0.281234 0.000003
18  1.466011 -0.000001 0.000002  -0.000001 0.207744 0.000002
19  1.188155 0.000007 0.000001  0.000000 -0.000000 0.000000
20  5.193863 -0.001292 -1.622138  0.370337 0.158628 1.186248
21  1.525724 -0.000000 0.000002  0.000002 -0.000002 0.593123
22  1.473168 -0.000001 0.000005  0.000002 -0.000001 0.215524
23  1.279428 -0.000009 -0.000002  0.000001 0.000000 0.000000
24  4.977362 -0.298619 -0.436308  0.139714 0.020843 1.360854
25  2.175556 -0.000000 -0.000006  -0.000000 -0.000002 0.297195
26  1.705908 0.000002 -0.000010  -0.000001 -0.000001 0.263391
27  1.492658 0.000002 -0.000006  0.000002 -0.000000 0.000000
28  5.227220 -0.016867 0.516778  -0.207132 -0.061967 1.416553
29  1.850602 0.000003 -0.000006  -0.000002 -0.000001 0.404350
30  1.530744 0.000001 0.000002  -0.000000 0.000001 0.000001
31  1.279431 0.000000 -0.000009  -0.000000 -0.000000 -0.000000
32  5.193862 0.001287 1.622132  -0.391937 -0.089132 1.356806
33  1.485049 -0.000003 -0.000002  -0.000003 -0.000001 0.463483
34  1.294662 -0.000006 0.000007  -0.000001 -0.000000 0.170671
35  1.066187 -0.000004 0.000007  -0.000000 -0.000000 0.000000
36  -0.000000 0.000766 -2.684128  -0.108204 1.168073 2.805572
37  6.694794 0.000002 -0.000017  -0.102441 -0.117015 -2.018484
38  11.423456 -0.000000 0.000004  -0.201441 0.029100 -0.410670
39  11.236176 -0.000002 0.000008  2.853345 0.900446 -0.049576
40  1.195824 -0.033342 1.114692  -0.915034 -0.843405 0.748273
41  1.294657 -0.000003 0.000003  0.283746 0.304538 0.027302
42  2.182005 -0.000000 -0.000003  -0.000000 0.523433 -0.000000
43  1.188167 -0.000001 -0.000002  -0.000000 -0.000000 -3.141592
44  4.895138 -0.386527 1.693292  -0.066291 -0.054620 -0.245888
45  1.507897 0.000000 0.000002  -0.000000 -0.000000 0.924223
46  1.370816 -0.000006 -0.000001  -0.000001 -0.000000 0.723903
47  1.279428 0.000005 -0.000000  0.000000 0.000001 3.141592
48  5.141357 -0.100722 0.541392  0.878998 0.126639 0.893598
49  1.759214 -0.000001 0.000001  -0.000001 0.000002 1.882081
50  1.599279 -0.000000 -0.000005  -0.000001 0.000002 0.603100
51  1.492661 -0.000002 -0.000001  0.000000 0.000000 -3.141592
52  5.079519 -0.068059 -0.623690  0.977150 -0.308207 1.391675
53  1.688843 -0.000001 -0.000002  -0.000001 0.000001 1.368088
54  1.507897 0.000001 0.000009  0.000000 0.000002 1.016343
55  1.279424 -0.000001 0.000000  0.000000 0.000001 -3.141592
56  5.141359 -0.099001 -1.621448  0.786266 -0.387380 1.828600
57  1.256580 0.000000 0.000004  -0.000002 0.000001 0.706531
58  1.142341 0.000002 -0.000003  0.000000 0.000001 0.784250
59  1.066186 0.000003 -0.000001  0.000001 -0.000000 -3.141592
60  0.232742 -0.809302 1.175718  -3.117955 0.230511 0.116535
61  -3.700165 -1.087667 4.995976  0.011840 -2.528721 -1.156655
62  17.308268 0.000002 0.000003  0.000000 0.000000 -1.909988
63  16.391680 -0.000002 0.000001  0.149294 -0.072866 0.275180
64  5.543004 2.217173 -0.000001  0.000000 0.000000 1.570796
65  2.219011 0.000000 -0.000000  -0.000000 -0.000000 -0.000000
66  2.219005 0.000000 -0.000001  0.000000 0.000000 0.000000
67  2.323257 0.000000 0.000001  0.000000 -0.000000 -3.141592
68  -4.755005 2.868309 -3.005054  -0.531970 3.067095 0.012980
69  17.308268 -0.000002 -0.000001  -0.000000 -0.000000 -2.043100
70  16.391676 -0.000001 0.000001  -0.141977 -0.127331 -0.607271
71  5.543005 2.217175 0.000000  0.000000 -0.000000 1.570796
72  2.219007 -0.000002 0.000000  0.000000 -0.000000 0.000000
73  2.219007 0.000001 -0.000000  0.000000 -0.000000 0.000000
74  2.323257 -0.000001 -0.000000  0.000000 -0.000000 0.000000
75  5.028740 -7.322625 0.014161  -0.000000 0.000001 -1.536686
76  4.835413 -2.118447 0.237901  -1.640610 -1.570796 0.000000
77  4.348886 -2.776601 -10.995125  -0.332240 -1.939523 -1.299005
78  -3.671423 -1.336567 -0.171210  -1.524006 0.347681 0.125368
79  5.768715 3.982527 -9.173450  -0.018554 -2.653223 -1.706597
80  0.067520 -2.350639 3.344430  -1.431170 1.082104 0.034906
81  4.998852 8.565453 -5.001399  -0.235034 -1.930170 -1.495694
82  -0.243933 -1.549029 2.646218  -1.431170 0.349067 0.087265
83  3.580554 8.020452 5.032156  -0.090668 -1.202692 -1.648989
84  -0.088494 -0.306855 4.016227  -1.431170 -0.366519 -0.034907
85  5.006870 3.913793 9.043609  0.122175 -1.972221 -1.746127
86  3.070847 -1.522968 0.101604  -1.563776 0.398264 -0.051684
87  5.597607 -2.928177 10.743618  -0.135243 -1.220387 -1.490863
88  2.930164 -2.309743 0.129153  -1.542557 -0.347073 -0.049240
89  -39.882629 3.733591 0.061546  0.000001 -0.000003 -1.570796
90  -1.679542 -10.540690 68.933853  1.570796 -0.000000 0.000000
91  1.756552 -10.544404 68.891121  1.570796 -0.000000 0.000000
time 10
0  1.801994 -10.765604 22.121021  0.003905 -0.706806 -1.573331
1  -14.365575 -0.065685 -16.821589  0.706812 0.002258 1.572725
2  -3.033548 -0.454036 -0.000003  -1.570762 -1.570451 -0.000033
3  4.433514 -0.003748 0.001831  -0.447181 -0.121088 0.281036
4  5.339496 -0.005393 0.000522  -0.094141 -0.029316 0.200972
5  6.941265 -0.005072 0.000538  -0.102498 -0.053493 0.262048
6  6.620018 -0.004727 0.000413  -0.087047 0.063347 0.077636
7  5.979197 -0.000734 0.000002  -0.000000 -0.000001 0.235619
8  0.948353 0.000002 -0.000001  0.514322 0.359118 -0.465696
9  11.042676 0.000002 0.000003  -0.000000 -0.000000 -0.000000
10  -3.731835 9.544964 0.014185  0.000000 0.000001 -1.675515
11  -3.853212 -3.394488 -0.000001  0.000000 0.000000 -0.000000
12  0.000012 0.000745 2.684130  0.676318 -1.418834 2.264147
13  6.694802 -0.000004 -0.000005  -0.204599 -0.808513 -0.851056
14  11.423465 -0.000001 0.000009  -0.246709 0.160908 -0.622754
15  11.236193 0.000009 0.000010  2.044570 0.207177 -0.681488
16  2.050502 0.662487 -1.659297  0.877233 0.772749 0.679093
17  1.066188 0.000000 0.000002  -0.000000 0.281234 0.000003
18  1.466008 -0.000001 0.000002  -0.000001 0.207744 0.000002
19  1.188157 0.000001 0.000000  0.000000 -0.000000 -0.000000
20  5.193862 -0.001288 -1.622133  0.370337 0.158628 1.186248
21  1.525717 0.000001 -0.000003  0.000002 -0.000001 0.593123
22  1.473165 -0.000001 0.000006  0.000002 -0.000001 0.215524
23  1.279427 0.000000 -0.000001  0.000001 -0.000000 0.000000
24  4.977362 -0.298619 -0.436310  0.139714 0.020843 1.360854
25  2.175560 0.000003 0.000002  -0.000000 -0.000002 0.297195
26  1.705907 -0.000000 -0.000004  -0.000001 -0.000001 0.263391
27  1.492666 0.000000 0.000005  0.000002 -0.000000 0.000000
28  5.227219 -0.016863 0.516781  -0.207132 -0.061967 1.416553
29  1.850602 0.000003 -0.000008  -0.000002 -0.000002 0.404350
30  1.530742 0.000001 -0.000000  -0.000000 0.000001 0.000001
31  1.279429 -0.000001 -0.000003  -0.000001 -0.000000 0.000000
32  5.193861 0.001291 1.622138  -0.391937 -0.089132 1.356806
33  1.485051 -0.000003 -0.000003  -0.000003 -0.000001 0.463483
34  1.294668 -0.000005 0.000002  -0.000001 0.000000 0.170671
35  1.066185 -0.000002 0.000010  -0.000000 -0.000000 -0.000000
36  0.000002 0.000764 -2.684130  -0.128128 1.167219 2.787245
37  6.694802 0.000000 -0.000004  -0.103642 -0.089391 -2.037964
38  11.423454 -0.000002 0.000004  -0.191675 0.028699 -0.351577
39  11.236186 0.000003 0.000007  2.849685 0.902251 -0.076086
40  1.195833 -0.033342 1.114693  -0.915034 -0.843405 0.748274
41  1.294662 -0.000006 -0.000002  0.283746 0.304538 0.027302
42  2.182009 -0.000004 -0.000003  -0.000000 0.523433 -0.000000
43  1.188163 -0.000001 -0.000000  -0.000000 -0.000000 -3.141592
44  4.895145 -0.386527 1.693293  -0.066291 -0.054620 -0.245888
45  1.507890 -0.000002 0.000004  -0.000000 -0.000001 0.924223
46  1.370815 0.000005 0.000002  -0.000001 -0.000000 0.723903
47  1.279427 0.000007 -0.000004  0.000000 0.000001 3.141592
48  5.141364 -0.100722 0.541390  0.878998 0.126639 0.893598
49  1.759209 -0.000002 -0.000008  -0.000001 0.000002 1.882081
50  1.599277 0.000000 0.000002  -0.000001 0.000002 0.603100
51  1.492666 -0.000000 -0.000000  -0.000000 0.000000 -3.141592
52  5.079530 -0.068059 -0.623687  0.977150 -0.308207 1.391675
53  1.688845 -0.000002 0.000000  -0.000001 0.000001 1.368088
54  1.507895 0.000002 0.000005  0.000000 0.000002 1.016343
55  1.279424 0.000001 -0.000002  0.000000 0.000001 -3.141592
56  5.141367 -0.099001 -1.621448  0.786266 -0.387380 1.828600
57  1.256580 -0.000002 0.000005  -0.000002 0.000001 0.706531
58  1.142339 0.000000 0.000006  0.000000 0.000001 0.784250
59  1.066187 0.000001 -0.000007  0.000001 -0.000000 -3.141593
60  0.232752 -0.809301 1.175721  -3.117955 0.230511 0.116535
61  -3.684772 -1.038702 5.017769  0.017538 -2.542057 -1.157135
62  17.308264 -0.000003 0.000004  0.000000 -0.000000 -1.914789
63  16.391674 -0.000001 0.000001  0.145652 -0.071151 0.281512
64  5.543005 2.217173 -0.000000  0.000000 0.000000 1.570796
65  2.219010 0.000000 -0.000002  -0.000000 -0.000000 -0.000000
66  2.219007 -0.000000 -0.000002  0.000000 0.000000 0.000000
67  2.323259 0.000000 0.000001  -0.000000 -0.000000 -3.141592
68  -4.770401 2.819346 -3.026842  -0.522311 3.062796 0.018653
69  17.308270 -0.000001 0.000000  -0.000000 -0.000000 -2.038907
70  16.391674 -0.000001 0.000000  -0.146441 -0.130655 -0.605680
71  5.543005 2.217176 0.000000  0.000000 -0.000000 1.570796
72  2.219006 -0.000001 0.000000  0.000000 -0.000000 -0.000000
73  2.219007 0.000001 0.000000  0.000000 -0.000000 -0.000000
74  2.323255 -0.000000 0.000000  0.000000 -0.000000 -0.000000
75  5.028733 -7.322626 0.014161  -0.000000 0.000001 -1.536686
76  4.835412 -2.118445 0.237901  -1.640610 -1.570796 0.000000
77  4.348884 -2.776599 -10.995124  -0.332240 -1.939523 -1.299005
78  -3.671422 -1.336571 -0.171210  -1.524006 0.347681 0.125368
79  5.768706 3.982526 -9.173450  -0.018554 -2.653224 -1.706597
80  0.067520 -2.350640 3.344429  -1.431170 1.082104 0.034906
81  4.998848 8.565453 -5.001398  -0.235033 -1.930170 -1.495694
82  -0.243930 -1.549030 2.646215  -1.431170 0.349067 0.087265
83  3.580549 8.020452 5.032157  -0.090668 -1.202692 -1.648989
84  -0.088494 -0.306853 4.016221  -1.431171 -0.366519 -0.034907
85  5.006864 3.913795 9.043612  0.122175 -1.972221 -1.746127
86  3.070840 -1.522967 0.101599  -1.563776 0.398264 -0.051684
87  5.597606 -2.928178 10.743619  -0.135243 -1.220387 -1.490862
88  2.930167 -2.309734 0.129153  -1.542557 -0.347073 -0.049239
89  -39.882629 3.733587 0.061546  0.000001 -0.000003 -1.570796
90  -1.679542 -10.540690 68.933853  1.570796 -0.000000 0.000000
91  1.756552 -10.544404 68.891121  1.570796 -0.000000 0.000000
time 11
0  1.975161 -10.927119 22.157825  0.003905 -0.706806 -1.573331
1  -14.389470 -0.065794 -16.849567  0.706812 0.002258 1.572725
2  -3.090185 -0.461723 -0.000001  -1.570762 -1.570451 -0.000033
3  4.433519 -0.003762 0.001792  -0.437314 -0.123908 0.279830
4  5.339538 -0.005384 0.000519  -0.093951 -0.028407 0.210614
5  6.941297 -0.005066 0.000508  -0.096708 -0.054381 0.268160
6  6.620017 -0.004728 0.000413  -0.087047 0.063347 0.077636
7  5.979201 -0.000733 0.000002  -0.000000 -0.000001 0.235619
8  0.948349 -0.000001 0.000001  0.495388 0.369666 -0.490349
9  11.042667 -0.000005 -0.000004  -0.000000 -0.000000 -0.000000
10  -3.731832 9.544968 0.014184  0.000000 0.000001 -1.675515
11  -3.853210 -3.394494 0.000000  0.000000 0.000000 -0.000000
12  -0.000010 0.000747 2.684130  0.718092 -1.422126 2.213222
13  6.694802 0.000001 -0.000004  -0.142788 -0.830465 -0.946804
14  11.423446 0.000002 0.000000  -0.227577 0.179079 -0.502157
15  11.236184 0.000004 0.000012  2.032311 0.204170 -0.746097
16  2.050503 0.662487 -1.659298  0.877234 0.772749 0.679093
17  1.066190 -0.000001 0.000001  -0.000000 0.281234 0.000003
18  1.466011 -0.000002 0.000002  -0.000001 0.207744 0.000002
19  1.188166 0.000007 -0.000001  0.000000 -0.000000 -0.000000
20  5.193863 -0.001294 -1.622137  0.370337 0.158628 1.186248
21  1.525720 -0.000000 -0.000007  0.000002 -0.000002 0.593123
22  1.473170 -0.000001 0.000010  0.000002 -0.000001 0.215524
23  1.279432 -0.000001 -0.000006  0.000001 -0.000000 0.000000
24  4.977363 -0.298621 -0.436310  0.139714 0.020842 1.360854
25  2.175557 0.000003 -0.000002  -0.000000 -0.000002 0.297195
26  1.705908 -0.000002 0.000001  -0.000001 -0.000001 0.263391
27  1.492668 -0.000002 -0.000004  0.000002 -0.000000 0.000000
28  5.227221 -0.016866 0.516779  -0.207132 -0.061967 1.416553
29  1.850601 0.000004 -0.000013  -0.000002 -0.000002 0.404350
30  1.530740 0.000001 -0.000000  -0.000000 0.000001 0.000001
31  1.279429 0.000000 -0.000002  -0.000001 -0.000000 -0.000000
32  5.193862 0.001287 1.622138  -0.391937 -0.089132 1.356806
33  1.485051 -0.000004 -0.000007  -0.000003 -0.000001 0.463483
34  1.294664 -0.000003 0.000000  -0.000001 0.000000 0.170671
35  1.066190 -0.000003 -0.000011  -0.000000 -0.000000 -0.000000
36  -0.000003 0.000762 -2.684128  -0.144429 1.166411 2.772255
37  6.694805 0.000000 -0.000009  -0.105467 -0.066633 -2.057033
38  11.423461 -0.000005 -0.000006  -0.183632 0.026905 -0.296465
39  11.236183 0.000001 0.000000  2.846388 0.904928 -0.101487
40  1.195833 -0.033343 1.114691  -0.915034 -0.843405 0.748273
41  1.294660 -0.000007 -0.000003  0.283746 0.304538 0.027302
42  2.182008 0.000001 -0.000001  -0.000000 0.523433 -0.000000
43  1.188147 0.000000 0.000004  -0.000000 -0.000000 -3.141592
44  4.895148 -0.386527 1.693292  -0.066291 -0.054620 -0.245889
45  1.507894 0.000001 -0.000002  -0.000000 -0.000000 0.924223
46  1.370814 0.000001 0.000004  -0.000001 -0.000000 0.723903
47  1.279425 0.000010 -0.000004  0.000000 0.000001 3.141592
48  5.141367 -0.100723 0.541386  0.878998 0.126639 0.893598
49  1.759212 0.000002 0.000004  -0.000001 0.000002 1.882081
50  1.599281 0.000004 -0.000004  -0.000001 0.000002 0.603100
51  1.492659 -0.000001 0.000004  -0.000000 0.000000 -3.141592
52  5.079528 -0.068060 -0.623688  0.977150 -0.308207 1.391675
53  1.688846 -0.000005 -0.000001  -0.000001 0.000001 1.368088
54  1.507894 0.000000 0.000012  0.000000 0.000002 1.016343
55  1.279426 -0.000001 0.000005  0.000000 0.000001 -3.141592
56  5.141365 -0.099002 -1.621448  0.786266 -0.387380 1.828600
57  1.256579 -0.000003 0.000005  -0.000002 0.000001 0.706531
58  1.142340 -0.000002 -0.000003  0.000000 0.000001 0.784250
59  1.066188 0.000001 -0.000009  0.000001 -0.000000 -3.141592
60  0.232754 -0.809302 1.175719  -3.117955 0.230511 0.116535
61  -3.672196 -0.998265 5.035203  0.018821 -2.557244 -1.156118
62  17.308262 0.000004 0.000001  0.000000 -0.000000 -1.922683
63  16.391676 -0.000005 -0.000001  0.138242 -0.067376 0.291958
64  5.543006 2.217174 -0.000001  0.000000 0.000000 1.570796
65  2.219007 0.000000 0.000000  -0.000000 -0.000000 -0.000000
66  2.219006 0.000000 -0.000001  0.000000 0.000000 0.000000
67  2.323258 0.000000 0.000001  -0.000000 -0.000000 -3.141592
68  -4.782987 2.778907 -3.044279  -0.516663 3.051849 0.023660
69  17.308266 -0.000000 -0.000001  -0.000000 -0.000000 -2.031755
70  16.391676 -0.000002 0.000000  -0.155276 -0.137840 -0.603457
71  5.543005 2.217177 0.000000  -0.000000 -0.000000 1.570796
72  2.219006 -0.000000 0.000001  0.000000 0.000000 -0.000000
73  2.219006 -0.000002 0.000001  0.000000 -0.000000 -0.000000
74  2.323256 -0.000000 0.000000  0.000000 -0.000000 -0.000000
75  5.028732 -7.322625 0.014161  -0.000000 0.000001 -1.536686
76  4.835412 -2.118448 0.237903  -1.640610 -1.570796 0.000000
77  4.348878 -2.776600 -10.995126  -0.332241 -1.939523 -1.299005
78  -3.671421 -1.336573 -0.171208  -1.524006 0.347681 0.125368
79  5.768707 3.982529 -9.173451  -0.018554 -2.653223 -1.706597
80  0.067521 -2.350637 3.344427  -1.431170 1.082104 0.034906
81  4.998845 8.565452 -5.001399  -0.235033 -1.930170 -1.495694
82  -0.243932 -1.549034 2.646216  -1.431170 0.349067 0.087265
83  3.580550 8.020455 5.032156  -0.090668 -1.202692 -1.648989
84  -0.088494 -0.306855 4.016220  -1.431171 -0.366519 -0.034907
85  5.006864 3.913798 9.043612  0.122175 -1.972221 -1.746127
86  3.070841 -1.522969 0.101601  -1.563776 0.398264 -0.051684
87  5.597606 -2.928175 10.743622  -0.135243 -1.220387 -1.490863
88  2.930166 -2.309742 0.129151  -1.542557 -0.347073 -0.049239
89  -39.882626 3.733591 0.061546  0.000001 -0.000003 -1.570796
90  -1.679542 -10.540690 68.933853  1.570796 -0.000000 0.000000
91  1.756552 -10.544404 68.891121  1.570796 -0.000000 0.000000
time 12
0  2.666885 -10.942219 22.182981  0.003905 -0.706806 -1.573331
1  -14.405802 -0.065869 -16.868696  0.706812 0.002258 1.572725
2  -3.128888 -0.467871 -0.000002  -1.570762 -1.570451 -0.000033
3  4.433515 -0.003773 0.001766  -0.430540 -0.125837 0.278987
4  5.339583 -0.005377 0.000520  -0.093815 -0.027784 0.217229
5  6.941326 -0.005062 0.000488  -0.092744 -0.055031 0.272353
6  6.620013 -0.004727 0.000414  -0.087047 0.063347 0.077636
7  5.979199 -0.000735 0.000003  -0.000000 -0.000001 0.235619
8  0.948360 -0.000005 -0.000000  0.482241 0.376693 -0.507453
9  11.042673 0.000001 0.000003  -0.000000 -0.000000 -0.000000
10  -3.731837 9.544967 0.014185  0.000000 0.000001 -1.675515
11  -3.853210 -3.394490 -0.000001  0.000000 -0.000000 -0.000000
12  0.000000 0.000745 2.684128  0.755273 -1.423110 2.169129
13  6.694801 0.000002 -0.000002  -0.087562 -0.843734 -1.028038
14  11.423448 0.000003 -0.000002  -0.209624 0.192658 -0.399953
15  11.236190 0.000005 0.000011  2.022989 0.201479 -0.799729
16  2.050503 0.662494 -1.659302  0.877233 0.772749 0.679093
17  1.066187 -0.000001 0.000000  -0.000000 0.281234 0.000003
18  1.466001 -0.000002 0.000001  -0.000001 0.207744 0.000002
19  1.188150 0.000006 0.000000  0.000000 -0.000000 0.000000
20  5.193863 -0.001286 -1.622140  0.370337 0.158628 1.186248
21  1.525722 -0.000002 0.000001  0.000002 -0.000002 0.593123
22  1.473170 -0.000005 -0.000003  0.000002 -0.000001 0.215524
23  1.279434 0.000000 -0.000002  0.000001 -0.000000 0.000000
24  4.977363 -0.298615 -0.436315  0.139714 0.020842 1.360854
25  2.175561 0.000002 0.000000  -0.000000 -0.000002 0.297195
26  1.705903 -0.000001 -0.000004  -0.000001 -0.000001 0.263391
27  1.492663 0.000001 -0.000002  0.000002 -0.000000 0.000000
28  5.227220 -0.016860 0.516775  -0.207132 -0.061967 1.416553
29  1.850599 0.000003 -0.000010  -0.000002 -0.000002 0.404350
30  1.530743 0.000001 0.000001  -0.000000 0.000001 0.000001
31  1.279426 -0.000002 -0.000005  -0.000000 -0.000000 -0.000000
32  5.193862 0.001294 1.622132  -0.391937 -0.089132 1.356806
33  1.485053 -0.000004 -0.000002  -0.000003 -0.000001 0.463483
34  1.294659 -0.000005 0.000008  -0.000001 -0.000000 0.170671
35  1.066189 -0.000003 -0.000006  -0.000000 -0.000000 -0.000000
36  0.000006 0.000759 -2.684129  -0.155575 1.165801 2.762010
37  6.694805 0.000000 0.000007  -0.107016 -0.050953 -2.073437
38  11.423454 0.000001 0.000013  -0.178101 0.024315 -0.250446
39  11.236184 0.000001 0.000002  2.843616 0.908189 -0.124090
40  1.195824 -0.033342 1.114688  -0.915034 -0.843405 0.748273
41  1.294660 -0.000004 0.000002  0.283746 0.304538 0.027302
42  2.182003 -0.000002 -0.000002  -0.000000 0.523433 -0.000000
43  1.188148 -0.000001 -0.000001  -0.000000 -0.000000 -3.141592
44  4.895144 -0.386527 1.693291  -0.066291 -0.054620 -0.245888
45  1.507901 0.000001 0.000000  -0.000000 -0.000000 0.924223
46  1.370815 0.000000 0.000002  -0.000001 -0.000000 0.723903
47  1.279426 0.000006 -0.000005  0.000000 0.000001 3.141592
48  5.141358 -0.100723 0.541387  0.878998 0.126639 0.893598
49  1.759210 -0.000002 0.000005  -0.000001 0.000002 1.882081
50  1.599278 0.000003 -0.000004  -0.000001 0.000002 0.603100
51  1.492667 0.000001 0.000001  -0.000000 0.000000 -3.141592
52  5.079527 -0.068059 -0.623689  0.977150 -0.308207 1.391675
53  1.688846 -0.000001 0.000000  -0.000001 0.000001 1.368088
54  1.507894 0.000004 0.000012  0.000000 0.000002 1.016343
55  1.279426 -0.000004 0.000005  0.000000 0.000001 -3.141592
56  5.141359 -0.099002 -1.621449  0.786266 -0.387380 1.828600
57  1.256580 -0.000002 0.000009  -0.000002 0.000001 0.706531
58  1.142342 -0.000000 0.000003  0.000000 0.000001 0.784250
59  1.066189 0.000001 -0.000007  0.000001 -0.000000 -3.141592
60  0.232745 -0.809301 1.175717  -3.117955 0.230511 0.116535
61  -3.663590 -0.970410 5.046923  0.002986 -2.593841 -1.157902
62  17.308266 0.000001 0.000002  0.000000 -0.000000 -1.928657
63  16.391676 -0.000004 0.000001  0.105818 -0.048242 0.299075
64  5.543005 2.217175 -0.000001  0.000000 0.000000 1.570796
65  2.219014 0.000000 -0.000001  -0.000000 -0.000000 -0.000000
66  2.219006 -0.000000 -0.000001  0.000000 0.000000 0.000000
67  2.323258 0.000000 0.000002  0.000000 -0.000000 -3.141592
68  -4.791578 2.751050 -3.055997  -0.527749 3.015674 0.002425
69  17.308266 -0.000001 -0.000002  -0.000000 -0.000000 -2.023158
70  16.391678 -0.000000 0.000000  -0.190662 -0.168653 -0.608072
71  5.543005 2.217176 0.000000  0.000000 -0.000000 1.570796
72  2.219007 -0.000000 0.000001  0.000000 0.000000 -0.000000
73  2.219006 0.000000 -0.000000  0.000000 -0.000000 -0.000000
74  2.323256 0.000000 0.000000  0.000000 -0.000000 -0.000000
75  5.028735 -7.322626 0.014161  -0.000000 0.000001 -1.536686
76  4.835411 -2.118442 0.237901  -1.640610 -1.570796 0.000000
77  4.348886 -2.776601 -10.995126  -0.332241 -1.939523 -1.299005
78  -3.671423 -1.336566 -0.171206  -1.524006 0.347681 0.125368
79  5.768712 3.982527 -9.173450  -0.018554 -2.653223 -1.706597
80  0.067521 -2.350637 3.344431  -1.431170 1.082104 0.034906
81  4.998852 8.565451 -5.001398  -0.235033 -1.930170 -1.495695
82  -0.243934 -1.549031 2.646218  -1.431170 0.349067 0.087265
83  3.580554 8.020453 5.032158  -0.090668 -1.202692 -1.648989
84  -0.088494 -0.306852 4.016223  -1.431170 -0.366519 -0.034907
85  5.006868 3.913794 9.043613  0.122175 -1.972221 -1.746127
86  3.070844 -1.522965 0.101601  -1.563776 0.398264 -0.051684
87  5.597606 -2.928178 10.743622  -0.135243 -1.220387 -1.490863
88  2.930168 -2.309740 0.129152  -1.542557 -0.347073 -0.049239
89  -39.882629 3.733593 0.061547  0.000001 -0.000003 -1.570796
90  -1.679542 -10.540690 68.933853  1.570796 -0.000000 0.000000
91  1.756552 -10.544404 68.891121  1.570796 -0.000000 0.000000
end
