version 1
nodes
0 "ValveBiped.Soldier_Mesh" -1
1 "ValveBiped.Bip01" -1
2 "ValveBiped.Bip01_Pelvis" 1
3 "ValveBiped.Bip01_L_Thigh" 2
4 "ValveBiped.Bip01_L_Calf" 3
5 "ValveBiped.Bip01_L_Foot" 4
6 "ValveBiped.Bip01_L_Toe0" 5
7 "ValveBiped.Bip01_R_Thigh" 2
8 "ValveBiped.Bip01_R_Calf" 7
9 "ValveBiped.Bip01_R_Foot" 8
10 "ValveBiped.Bip01_R_Toe0" 9
11 "ValveBiped.Bip01_Spine" 1
12 "ValveBiped.Bip01_Spine1" 11
13 "ValveBiped.Bip01_Spine2" 12
14 "ValveBiped.Bip01_Spine4" 13
15 "ValveBiped.Bip01_Neck1" 14
16 "ValveBiped.Bip01_Head1" 15
17 "ValveBiped.Bip01_L_Clavicle" 14
18 "ValveBiped.Bip01_L_UpperArm" 17
19 "ValveBiped.Bip01_L_Forearm" 18
20 "ValveBiped.Bip01_L_Hand" 19
21 "ValveBiped.Bip01_L_Finger4" 20
22 "ValveBiped.Bip01_L_Finger41" 21
23 "ValveBiped.Bip01_L_Finger42" 22
24 "ValveBiped.Bip01_L_Finger3" 20
25 "ValveBiped.Bip01_L_Finger31" 24
26 "ValveBiped.Bip01_L_Finger32" 25
27 "ValveBiped.Bip01_L_Finger2" 20
28 "ValveBiped.Bip01_L_Finger21" 27
29 "ValveBiped.Bip01_L_Finger22" 28
30 "ValveBiped.Bip01_L_Finger1" 20
31 "ValveBiped.Bip01_L_Finger11" 30
32 "ValveBiped.Bip01_L_Finger12" 31
33 "ValveBiped.Bip01_L_Finger0" 20
34 "ValveBiped.Bip01_L_Finger01" 33
35 "ValveBiped.Bip01_L_Finger02" 34
36 "ValveBiped.Bip01_R_Clavicle" 14
37 "ValveBiped.Bip01_R_UpperArm" 36
38 "ValveBiped.Bip01_R_Forearm" 37
39 "ValveBiped.Bip01_R_Hand" 38
40 "ValveBiped.Bip01_R_Finger4" 39
41 "ValveBiped.Bip01_R_Finger41" 40
42 "ValveBiped.Bip01_R_Finger42" 41
43 "ValveBiped.Bip01_R_Finger3" 39
44 "ValveBiped.Bip01_R_Finger31" 43
45 "ValveBiped.Bip01_R_Finger32" 44
46 "ValveBiped.Bip01_R_Finger2" 39
47 "ValveBiped.Bip01_R_Finger21" 46
48 "ValveBiped.Bip01_R_Finger22" 47
49 "ValveBiped.Bip01_R_Finger1" 39
50 "ValveBiped.Bip01_R_Finger11" 49
51 "ValveBiped.Bip01_R_Finger12" 50
52 "ValveBiped.Bip01_R_Finger0" 39
53 "ValveBiped.Bip01_R_Finger01" 52
54 "ValveBiped.Bip01_R_Finger02" 53
55 "ValveBiped.Pouch" 2
56 "ValveBiped.Cod" 2
end
skeleton
time 0
0 -0.011368 2.160217 0.001423 0.000000 0.000000 0.000000
1 -0.021154 -0.014471 36.360558 1.570565 -0.000000 -0.746586
2 0.000000 0.000000 0.000000 -0.000000 -0.000000 -0.000000
3 3.890452 -0.000007 -0.000003 -2.211634 -0.286282 -1.274912
4 17.848179 0.000000 0.000000 0.000000 0.000000 0.694019
5 15.637959 0.000000 0.000000 -9.386591 -3.309140 8.193246
6 7.110240 0.000000 0.000000 6.276066 -0.003133 -0.631765
7 -3.890452 0.000003 0.000008 -1.497382 -0.223488 -1.650479
8 17.848181 0.000000 0.000000 0.000000 0.000000 0.691362
9 15.637958 0.000000 0.000000 0.028005 -0.075438 -1.394847
10 7.110240 0.000000 0.000000 6.202033 -0.003133 -0.631765
11 0.000005 3.345127 -2.981901 1.570796 0.086293 1.570796
12 4.018332 0.000000 0.000000 -0.011815 -0.120117 0.193938
13 3.518567 0.000000 0.000000 -0.039222 -0.083510 0.333412
14 8.942634 0.000000 0.000000 -0.078844 0.112914 0.222369
15 3.307272 0.000000 0.000000 3.141590 0.000000 0.400478
16 3.593713 0.000000 0.000000 0.646357 0.007600 0.744759
17 2.033351 1.000771 1.100821 -0.756092 -1.613444 -0.995089
18 6.811800 0.000000 0.000000 -2.427933 -0.866058 -0.286780
19 12.394105 0.000000 0.000000 0.000000 0.000000 -1.741817
20 9.334690 0.000001 -0.000032 0.948405 -0.056346 1.195686
21 4.610123 -0.122605 -1.406946 -0.513267 0.072291 -1.288224
22 1.191884 0.000000 0.000000 -0.163027 0.224047 -1.466962
23 0.945939 0.000000 0.000000 -0.068871 0.147979 -0.913117
24 4.605128 0.071046 -0.574018 -0.157261 0.007109 -0.685616
25 1.430263 0.000000 0.000000 -0.068563 0.062695 -1.808644
26 1.155766 0.000000 0.000000 -0.005433 0.026725 -0.524005
27 4.454865 -0.071046 0.574018 0.095492 -0.008588 -0.706366
28 1.426183 0.000000 0.000000 0.055915 -0.087980 -1.504213
29 1.324319 0.000000 0.000000 0.009317 -0.033630 -0.575091
30 4.479185 -0.026371 1.583719 0.481659 -0.035384 -1.246107
31 1.341888 0.000000 0.000000 0.023475 -0.208313 -0.755745
32 1.225941 0.000000 0.000000 0.026045 -0.124622 -0.538684
33 2.631852 -0.344645 1.908319 -0.354021 -0.915168 -1.788213
34 1.058429 0.000000 0.000000 -0.001069 -0.012855 0.251002
35 0.778706 0.000000 0.000000 -0.000101 -0.003217 0.062752
36 2.033354 1.000773 -1.100771 -0.035453 1.947898 -1.725979
37 6.811801 0.000000 0.000000 1.295562 0.979494 -0.810854
38 12.394103 0.000000 0.000000 0.000000 0.000000 -1.899972
39 9.334718 0.000000 0.000000 -0.842066 0.065471 0.390440
40 4.610092 -0.109559 1.408022 0.217767 -0.010340 -1.857608
41 1.191885 0.000000 0.000000 0.044560 -0.180938 -0.876601
42 0.945938 0.000000 0.000000 0.155228 -0.190276 -1.393021
43 4.605097 0.076364 0.573335 0.139630 -0.069408 -0.865173
44 1.430257 0.000000 0.000000 0.049426 -0.072767 -1.413300
45 1.155767 0.000000 0.000000 0.018371 -0.045481 -0.841346
46 4.454831 -0.076364 -0.573335 0.047705 -0.153456 -0.767483
47 1.426188 0.000000 0.000000 -0.053883 0.078891 -1.553286
48 1.324319 0.000000 0.000000 -0.013612 0.036969 -0.732283
49 4.479149 -0.041050 -1.583407 -0.332628 0.218366 0.154976
50 1.341885 0.000000 0.000000 -0.042633 0.220746 -0.851609
51 1.225945 0.000000 0.000000 0.008155 -0.000000 0.000001
52 2.631822 -0.362328 -1.905043 0.415059 0.423435 -0.720789
53 1.058428 0.000000 0.000000 0.015106 0.038913 0.767157
54 0.778706 0.000000 0.000000 0.004785 0.022541 0.418310
55 4.041916 5.169765 -8.467939 0.239945 -0.381396 -0.211759
56 -0.044717 2.529041 4.661499 -0.038911 0.037208 0.009879
time 1
1 -0.024723 -3.743176 31.362091 1.562570 -0.015435 -0.479459
2 0.000000 0.000000 0.000000 -0.000000 -0.000000 -0.000000
3 3.890452 -0.000007 -0.000003 -2.287473 -0.433048 -1.133884
4 17.848179 0.000000 0.000000 0.000000 0.000000 1.261583
5 15.637959 0.000000 0.000000 -9.205633 -3.548551 7.869900
6 7.110240 0.000000 0.000000 6.276066 -0.003133 -0.631765
7 -3.890452 0.000003 0.000008 -1.514590 -0.306621 -1.673095
8 17.848181 0.000000 0.000000 0.000000 0.000000 1.245441
9 15.637958 0.000000 0.000000 0.222514 0.117306 -1.696390
10 7.110240 0.000000 0.000000 6.202551 -0.003739 -0.782300
11 0.000005 3.345127 -2.981901 1.713926 -0.133799 1.537875
12 4.018332 0.000000 0.000000 0.199426 -0.135635 0.280152
13 3.518567 0.000000 0.000000 -0.166341 -0.079462 0.357287
14 8.942634 0.000000 0.000000 0.212294 0.056012 0.217881
15 3.307272 0.000000 0.000000 3.141590 -0.000000 0.400478
16 3.593713 0.000000 0.000000 0.106758 0.021022 0.698954
17 2.033351 1.000771 1.100821 -0.756093 -1.613444 -0.995089
18 6.811800 0.000000 0.000000 -2.192144 -1.027345 -0.469111
19 12.394105 0.000000 0.000000 0.000000 0.000000 -1.803512
20 9.334690 0.000001 -0.000032 1.086397 -0.708289 0.612585
21 4.610123 -0.122605 -1.406946 -0.513267 0.072291 -1.288224
22 1.191884 0.000000 0.000000 -0.163027 0.224047 -1.466962
23 0.945939 0.000000 0.000000 -0.068871 0.147979 -0.913117
24 4.605128 0.071046 -0.574018 -0.157261 0.007109 -0.685616
25 1.430263 0.000000 0.000000 -0.068563 0.062695 -1.808644
26 1.155766 0.000000 0.000000 -0.005433 0.026725 -0.524005
27 4.454865 -0.071046 0.574018 0.095492 -0.008588 -0.706366
28 1.426183 0.000000 0.000000 0.055915 -0.087980 -1.504212
29 1.324319 0.000000 0.000000 0.009317 -0.033630 -0.575091
30 4.479185 -0.026371 1.583719 0.481659 -0.035384 -1.246107
31 1.341888 0.000000 0.000000 0.023475 -0.208313 -0.755745
32 1.225941 0.000000 0.000000 0.026045 -0.124622 -0.538683
33 2.631852 -0.344645 1.908319 -0.354021 -0.915169 -1.788213
34 1.058429 0.000000 0.000000 -0.001069 -0.012855 0.251002
35 0.778706 0.000000 0.000000 -0.000101 -0.003217 0.062752
36 2.033354 1.000773 -1.100771 -0.035453 1.947898 -1.725979
37 6.811801 0.000000 0.000000 1.700637 0.998011 -0.210484
38 12.394103 0.000000 0.000000 0.000000 0.000000 -1.260549
39 9.334718 0.000000 0.000000 -1.210411 0.257206 -0.710638
40 4.610092 -0.109559 1.408022 0.217767 -0.010340 -1.857608
41 1.191885 0.000000 0.000000 0.044560 -0.180938 -0.876601
42 0.945938 0.000000 0.000000 0.155228 -0.190276 -1.393021
43 4.605097 0.076364 0.573335 0.139630 -0.069408 -0.865173
44 1.430257 0.000000 0.000000 0.049426 -0.072767 -1.413300
45 1.155767 0.000000 0.000000 0.018371 -0.045481 -0.841346
46 4.454831 -0.076364 -0.573335 0.047705 -0.153456 -0.767483
47 1.426188 0.000000 0.000000 -0.053883 0.078891 -1.553286
48 1.324319 0.000000 0.000000 -0.013612 0.036969 -0.732283
49 4.479149 -0.041050 -1.583407 -0.332628 0.218366 0.154976
50 1.341885 0.000000 0.000000 -0.042633 0.220746 -0.851609
51 1.225945 0.000000 0.000000 0.008155 -0.000000 0.000001
52 2.631822 -0.362328 -1.905043 0.415059 0.423435 -0.720789
53 1.058428 0.000000 0.000000 0.015106 0.038913 0.767157
54 0.778706 0.000000 0.000000 0.004785 0.022541 0.418310
55 4.041916 5.169765 -8.467939 0.491948 0.035276 -0.253993
56 -0.044717 2.529041 4.661499 0.185224 0.175948 0.004383
time 2
1 -0.021154 -5.970118 28.426544 1.554121 -0.029308 -0.319025
2 0.000000 0.000000 0.000000 -0.000000 -0.000000 -0.000000
3 3.890452 -0.000007 -0.000003 -2.306708 -0.474524 -1.087604
4 17.848179 0.000000 0.000000 0.000000 0.000000 1.489239
5 15.637959 0.000000 0.000000 -9.099723 -3.681061 7.751227
6 7.110240 0.000000 0.000000 6.276066 -0.003133 -0.631765
7 -3.890452 0.000003 0.000008 -1.503166 -0.182164 -1.676671
8 17.848181 0.000000 0.000000 0.000000 0.000000 1.440854
9 15.637958 0.000000 0.000000 0.363551 0.136076 -1.761266
10 7.110240 0.000000 0.000000 6.203829 -0.004687 -1.083370
11 0.000005 3.345127 -2.981901 1.633483 -0.284448 1.472709
12 4.018332 0.000000 0.000000 0.346607 -0.161320 0.335954
13 3.518567 0.000000 0.000000 0.304506 -0.128487 0.362810
14 8.942634 0.000000 0.000000 0.415986 0.018144 0.205173
15 3.307272 0.000000 0.000000 3.141591 -0.000000 0.400478
16 3.593713 0.000000 0.000000 -0.649701 0.080838 0.722261
17 2.033351 1.000771 1.100821 -0.756091 -1.613444 -0.995091
18 6.811800 0.000000 0.000000 0.041286 -1.228802 -2.535483
19 12.394105 0.000000 0.000000 0.000000 0.000000 -0.938647
20 9.334690 0.000001 -0.000032 1.969303 -0.953048 -1.083613
21 4.610123 -0.122605 -1.406946 -0.513267 0.072291 -1.288224
22 1.191884 0.000000 0.000000 -0.163027 0.224047 -1.466962
23 0.945939 0.000000 0.000000 -0.068871 0.147979 -0.913117
24 4.605128 0.071046 -0.574018 -0.157261 0.007109 -0.685616
25 1.430263 0.000000 0.000000 -0.068563 0.062695 -1.808644
26 1.155766 0.000000 0.000000 -0.005433 0.026725 -0.524005
27 4.454865 -0.071046 0.574018 0.095492 -0.008588 -0.706366
28 1.426183 0.000000 0.000000 0.055915 -0.087980 -1.504213
29 1.324319 0.000000 0.000000 0.009317 -0.033630 -0.575091
30 4.479185 -0.026371 1.583719 0.481659 -0.035384 -1.246107
31 1.341888 0.000000 0.000000 0.023475 -0.208313 -0.755745
32 1.225941 0.000000 0.000000 0.026045 -0.124622 -0.538683
33 2.631852 -0.344645 1.908319 -0.354021 -0.915169 -1.788213
34 1.058429 0.000000 0.000000 -0.001069 -0.012855 0.251002
35 0.778706 0.000000 0.000000 -0.000101 -0.003217 0.062752
36 2.033354 1.000773 -1.100771 -0.035453 1.947898 -1.725979
37 6.811801 0.000000 0.000000 1.638396 0.444183 0.102154
38 12.394103 0.000000 0.000000 0.000000 0.000000 -0.830173
39 9.334718 0.000000 0.000000 -1.693665 0.525638 -1.597795
40 4.610092 -0.109559 1.408022 0.217767 -0.010340 -1.857608
41 1.191885 0.000000 0.000000 0.044560 -0.180938 -0.876601
42 0.945938 0.000000 0.000000 0.155228 -0.190276 -1.393021
43 4.605097 0.076364 0.573335 0.139630 -0.069408 -0.865173
44 1.430257 0.000000 0.000000 0.049426 -0.072767 -1.413300
45 1.155767 0.000000 0.000000 0.018371 -0.045481 -0.841346
46 4.454831 -0.076364 -0.573335 0.047705 -0.153456 -0.767483
47 1.426188 0.000000 0.000000 -0.053883 0.078891 -1.553286
48 1.324319 0.000000 0.000000 -0.013612 0.036969 -0.732283
49 4.479149 -0.041050 -1.583407 -0.332628 0.218366 0.154976
50 1.341885 0.000000 0.000000 -0.042634 0.220746 -0.851609
51 1.225945 0.000000 0.000000 0.008155 -0.000000 0.000001
52 2.631822 -0.362328 -1.905043 0.415059 0.423435 -0.720789
53 1.058428 0.000000 0.000000 0.015106 0.038913 0.767157
54 0.778706 0.000000 0.000000 0.004785 0.022541 0.418310
55 4.041916 5.169765 -8.467939 0.705453 0.142214 -0.274859
56 -0.044717 2.529041 4.661499 0.333900 0.091238 -0.057682
time 3
1 -0.005226 -5.849534 28.632666 1.549562 -0.045118 -0.325358
2 0.000000 0.000000 0.000000 0.000000 -0.000000 -0.000000
3 3.890452 -0.000007 -0.000003 -2.300822 -0.460334 -1.110994
4 17.848179 0.000000 0.000000 0.000000 0.000000 1.466151
5 15.637959 0.000000 0.000000 -9.105903 -3.678265 7.760290
6 7.110240 0.000000 0.000000 6.276066 -0.003133 -0.631765
7 -3.890452 0.000003 0.000008 -1.513598 -0.186921 -1.694943
8 17.848181 0.000000 0.000000 0.000000 0.000000 1.502080
9 15.637958 0.000000 0.000000 0.391881 0.071085 -1.625474
10 7.110240 0.000000 0.000000 6.204560 -0.005007 -1.233906
11 0.000005 3.345127 -2.981901 1.650151 -0.279424 1.460622
12 4.018332 0.000000 0.000000 0.329605 -0.150953 0.316396
13 3.518567 0.000000 0.000000 0.291780 -0.127222 0.341163
14 8.942634 0.000000 0.000000 0.369882 0.026468 0.208708
15 3.307272 0.000000 0.000000 3.141590 -0.000000 0.400478
16 3.593713 0.000000 0.000000 -0.575472 0.034458 0.655205
17 2.033351 1.000771 1.100821 -0.756095 -1.613444 -0.995086
18 6.811800 0.000000 0.000000 0.458544 -1.225640 -2.944200
19 12.394105 0.000000 0.000000 0.000000 0.000000 -0.001177
20 9.334690 0.000001 -0.000032 0.407777 -0.879206 -0.311560
21 4.610123 -0.122605 -1.406946 -0.513267 0.072291 -1.288224
22 1.191884 0.000000 0.000000 -0.163028 0.224047 -1.466962
23 0.945939 0.000000 0.000000 -0.068871 0.147979 -0.913117
24 4.605128 0.071046 -0.574018 -0.157261 0.007109 -0.685616
25 1.430263 0.000000 0.000000 -0.068563 0.062695 -1.808645
26 1.155766 0.000000 0.000000 -0.005433 0.026725 -0.524005
27 4.454865 -0.071046 0.574018 0.095492 -0.008588 -0.706366
28 1.426183 0.000000 0.000000 0.055915 -0.087980 -1.504213
29 1.324319 0.000000 0.000000 0.009317 -0.033630 -0.575091
30 4.479185 -0.026371 1.583719 0.481659 -0.035384 -1.246107
31 1.341888 0.000000 0.000000 0.023475 -0.208313 -0.755745
32 1.225941 0.000000 0.000000 0.026045 -0.124622 -0.538683
33 2.631852 -0.344645 1.908319 -0.354021 -0.915169 -1.788213
34 1.058429 0.000000 0.000000 -0.001069 -0.012855 0.251002
35 0.778706 0.000000 0.000000 -0.000101 -0.003217 0.062752
36 2.033354 1.000773 -1.100771 -0.035453 1.947898 -1.725979
37 6.811801 0.000000 0.000000 1.424012 0.175695 0.005401
38 12.394103 0.000000 0.000000 0.000000 0.000000 -1.549564
39 9.334718 0.000000 0.000000 -1.110257 0.367545 -0.429578
40 4.610092 -0.109559 1.408022 0.217767 -0.010340 -1.857608
41 1.191885 0.000000 0.000000 0.044560 -0.180938 -0.876601
42 0.945938 0.000000 0.000000 0.155228 -0.190276 -1.393021
43 4.605097 0.076364 0.573335 0.139630 -0.069408 -0.865173
44 1.430257 0.000000 0.000000 0.049426 -0.072767 -1.413300
45 1.155767 0.000000 0.000000 0.018371 -0.045481 -0.841346
46 4.454831 -0.076364 -0.573335 0.047705 -0.153456 -0.767483
47 1.426188 0.000000 0.000000 -0.053883 0.078891 -1.553286
48 1.324319 0.000000 0.000000 -0.013612 0.036969 -0.732283
49 4.479149 -0.041050 -1.583407 -0.332628 0.218366 0.154976
50 1.341885 0.000000 0.000000 -0.042633 0.220746 -0.851609
51 1.225945 0.000000 0.000000 0.008155 -0.000000 0.000001
52 2.631822 -0.362328 -1.905043 0.415059 0.423435 -0.720789
53 1.058428 0.000000 0.000000 0.015106 0.038913 0.767157
54 0.778706 0.000000 0.000000 0.004785 0.022541 0.418310
55 4.041916 5.169765 -8.467939 0.679492 0.133441 -0.285461
56 -0.044717 2.529041 4.661499 0.329539 0.107447 -0.065565
time 4
1 0.013479 -5.558517 29.071781 1.545055 -0.063181 -0.343434
2 0.000000 0.000000 0.000000 -0.000000 -0.000000 -0.000000
3 3.890452 -0.000007 -0.000003 -2.293458 -0.441829 -1.141826
4 17.848179 0.000000 0.000000 0.000000 0.000000 1.421617
5 15.637959 0.000000 0.000000 -9.119965 -3.665640 7.781481
6 7.110240 0.000000 0.000000 6.276066 -0.003133 -0.631765
7 -3.890452 0.000003 0.000008 -1.523099 -0.196433 -1.710419
8 17.848181 0.000000 0.000000 0.000000 0.000000 1.492802
9 15.637958 0.000000 0.000000 0.382315 0.069248 -1.605037
10 7.110240 0.000000 0.000000 6.204550 -0.005003 -1.231832
11 0.000005 3.345127 -2.981901 1.672089 -0.270897 1.448169
12 4.018332 0.000000 0.000000 0.307517 -0.139012 0.292893
13 3.518567 0.000000 0.000000 0.264293 -0.125180 0.316532
14 8.942634 0.000000 0.000000 0.313782 0.036810 0.212498
15 3.307272 0.000000 0.000000 3.141591 0.000000 0.400478
16 3.593713 0.000000 0.000000 -0.471435 -0.001748 0.580794
17 2.033351 1.000771 1.100821 -0.756091 -1.613444 -0.995091
18 6.811800 0.000000 0.000000 -1.054246 -1.067414 -1.315114
19 12.394105 0.000000 0.000000 0.000000 0.000000 -1.269318
20 9.334690 0.000001 -0.000032 0.560770 -1.020129 0.476798
21 4.610123 -0.122605 -1.406946 -0.513267 0.072291 -1.288225
22 1.191884 0.000000 0.000000 -0.163027 0.224047 -1.466962
23 0.945939 0.000000 0.000000 -0.068871 0.147979 -0.913117
24 4.605128 0.071046 -0.574018 -0.157261 0.007109 -0.685616
25 1.430263 0.000000 0.000000 -0.068563 0.062695 -1.808644
26 1.155766 0.000000 0.000000 -0.005433 0.026725 -0.524005
27 4.454865 -0.071046 0.574018 0.095492 -0.008588 -0.706366
28 1.426183 0.000000 0.000000 0.055915 -0.087980 -1.504213
29 1.324319 0.000000 0.000000 0.009317 -0.033630 -0.575091
30 4.479185 -0.026371 1.583719 0.481659 -0.035384 -1.246107
31 1.341888 0.000000 0.000000 0.023475 -0.208313 -0.755745
32 1.225941 0.000000 0.000000 0.026045 -0.124622 -0.538683
33 2.631852 -0.344645 1.908319 -0.354022 -0.915169 -1.788213
34 1.058429 0.000000 0.000000 -0.001069 -0.012855 0.251002
35 0.778706 0.000000 0.000000 -0.000101 -0.003217 0.062752
36 2.033354 1.000773 -1.100771 -0.035453 1.947898 -1.725979
37 6.811801 0.000000 0.000000 1.310951 0.388333 -0.094144
38 12.394103 0.000000 0.000000 0.000000 0.000000 -1.505993
39 9.334718 0.000000 0.000000 -1.177950 0.465256 -0.622881
40 4.610092 -0.109559 1.408022 0.217767 -0.010340 -1.857607
41 1.191885 0.000000 0.000000 0.044560 -0.180938 -0.876601
42 0.945938 0.000000 0.000000 0.155228 -0.190276 -1.393021
43 4.605097 0.076364 0.573335 0.139630 -0.069408 -0.865173
44 1.430257 0.000000 0.000000 0.049426 -0.072767 -1.413300
45 1.155767 0.000000 0.000000 0.018371 -0.045481 -0.841346
46 4.454831 -0.076364 -0.573335 0.047705 -0.153456 -0.767483
47 1.426188 0.000000 0.000000 -0.053883 0.078891 -1.553286
48 1.324319 0.000000 0.000000 -0.013612 0.036969 -0.732283
49 4.479149 -0.041050 -1.583407 -0.332628 0.218366 0.154976
50 1.341885 0.000000 0.000000 -0.042633 0.220746 -0.851609
51 1.225945 0.000000 0.000000 0.008155 -0.000000 0.000001
52 2.631822 -0.362328 -1.905043 0.415059 0.423435 -0.720789
53 1.058428 0.000000 0.000000 0.015106 0.038913 0.767157
54 0.778706 0.000000 0.000000 0.004785 0.022541 0.418310
55 4.041916 5.169765 -8.467939 0.645824 0.123128 -0.295947
56 -0.044717 2.529041 4.661499 0.321965 0.128938 -0.072950
time 5
1 0.034165 -5.126070 29.701508 1.541066 -0.082827 -0.371322
2 0.000000 0.000000 0.000000 -0.000000 -0.000000 -0.000000
3 3.890452 -0.000007 -0.000003 -2.284702 -0.419082 -1.178677
4 17.848179 0.000000 0.000000 0.000000 0.000000 1.357803
5 15.637959 0.000000 0.000000 -9.141003 -3.644915 7.813274
6 7.110240 0.000000 0.000000 6.276066 -0.003133 -0.631765
7 -3.890452 0.000003 0.000008 -1.532667 -0.206590 -1.728352
8 17.848181 0.000000 0.000000 0.000000 0.000000 1.465995
9 15.637958 0.000000 0.000000 0.361988 0.065012 -1.580566
10 7.110240 0.000000 0.000000 6.204520 -0.004992 -1.225815
11 0.000005 3.345127 -2.981901 1.697794 -0.259150 1.435950
12 4.018332 0.000000 0.000000 0.281140 -0.126252 0.266258
13 3.518567 0.000000 0.000000 0.224617 -0.123155 0.289810
14 8.942634 0.000000 0.000000 0.249940 0.048825 0.216109
15 3.307272 0.000000 0.000000 3.141591 0.000000 0.400478
16 3.593713 0.000000 0.000000 -0.343604 -0.021194 0.499885
17 2.033351 1.000771 1.100821 -0.756092 -1.613444 -0.995090
18 6.811800 0.000000 0.000000 -1.264193 -0.935109 -1.061222
19 12.394105 0.000000 0.000000 0.000000 0.000000 -1.777023
20 9.334690 0.000001 -0.000032 0.958324 -1.154609 0.670778
21 4.610123 -0.122605 -1.406946 -0.513267 0.072291 -1.288225
22 1.191884 0.000000 0.000000 -0.163027 0.224047 -1.466962
23 0.945939 0.000000 0.000000 -0.068871 0.147979 -0.913117
24 4.605128 0.071046 -0.574018 -0.157261 0.007109 -0.685616
25 1.430263 0.000000 0.000000 -0.068563 0.062695 -1.808644
26 1.155766 0.000000 0.000000 -0.005433 0.026725 -0.524005
27 4.454865 -0.071046 0.574018 0.095492 -0.008588 -0.706366
28 1.426183 0.000000 0.000000 0.055915 -0.087980 -1.504213
29 1.324319 0.000000 0.000000 0.009317 -0.033630 -0.575091
30 4.479185 -0.026371 1.583719 0.481659 -0.035384 -1.246107
31 1.341888 0.000000 0.000000 0.023475 -0.208313 -0.755745
32 1.225941 0.000000 0.000000 0.026045 -0.124622 -0.538683
33 2.631852 -0.344645 1.908319 -0.354021 -0.915169 -1.788213
34 1.058429 0.000000 0.000000 -0.001069 -0.012855 0.251002
35 0.778706 0.000000 0.000000 -0.000101 -0.003217 0.062752
36 2.033354 1.000773 -1.100771 -0.035453 1.947898 -1.725979
37 6.811801 0.000000 0.000000 1.213204 0.611110 -0.222179
38 12.394103 0.000000 0.000000 0.000000 0.000000 -1.374615
39 9.334718 0.000000 0.000000 -1.320044 0.565124 -0.927547
40 4.610092 -0.109559 1.408022 0.217767 -0.010340 -1.857607
41 1.191885 0.000000 0.000000 0.044560 -0.180938 -0.876601
42 0.945938 0.000000 0.000000 0.155228 -0.190276 -1.393021
43 4.605097 0.076364 0.573335 0.139630 -0.069408 -0.865173
44 1.430257 0.000000 0.000000 0.049426 -0.072767 -1.413300
45 1.155767 0.000000 0.000000 0.018371 -0.045481 -0.841346
46 4.454831 -0.076364 -0.573335 0.047705 -0.153456 -0.767483
47 1.426188 0.000000 0.000000 -0.053883 0.078891 -1.553286
48 1.324319 0.000000 0.000000 -0.013612 0.036969 -0.732283
49 4.479149 -0.041050 -1.583407 -0.332628 0.218366 0.154976
50 1.341885 0.000000 0.000000 -0.042633 0.220746 -0.851609
51 1.225945 0.000000 0.000000 0.008155 -0.000001 0.000001
52 2.631822 -0.362328 -1.905043 0.415059 0.423435 -0.720789
53 1.058428 0.000000 0.000000 0.015106 0.038913 0.767157
54 0.778706 0.000000 0.000000 0.004785 0.022541 0.418310
55 4.041916 5.169765 -8.467939 0.605926 0.111110 -0.305447
56 -0.044717 2.529041 4.661499 0.311426 0.154326 -0.079923
time 6
1 0.056042 -4.581190 30.479782 1.537995 -0.103356 -0.407111
2 0.000000 0.000000 0.000000 -0.000000 -0.000000 -0.000000
3 3.890452 -0.000007 -0.000003 -2.274603 -0.391893 -1.220212
4 17.848179 0.000000 0.000000 0.000000 0.000000 1.276334
5 15.637959 0.000000 0.000000 -9.168035 -3.617850 7.854580
6 7.110240 0.000000 0.000000 6.276066 -0.003133 -0.631765
7 -3.890452 0.000003 0.000008 -1.541473 -0.215138 -1.747462
8 17.848181 0.000000 0.000000 0.000000 0.000000 1.422107
9 15.637958 0.000000 0.000000 0.332593 0.058531 -1.553039
10 7.110240 0.000000 0.000000 6.204473 -0.004975 -1.216442
11 0.000005 3.345127 -2.981901 1.725792 -0.244525 1.424545
12 4.018332 0.000000 0.000000 0.251312 -0.113386 0.237332
13 3.518567 0.000000 0.000000 0.175369 -0.121819 0.261903
14 8.942634 0.000000 0.000000 0.180587 0.062115 0.219167
15 3.307272 0.000000 0.000000 3.141590 -0.000000 0.400478
16 3.593713 0.000000 0.000000 -0.199176 -0.019100 0.416232
17 2.033351 1.000771 1.100821 -0.756093 -1.613444 -0.995089
18 6.811800 0.000000 0.000000 -1.374233 -0.881649 -0.925153
19 12.394105 0.000000 0.000000 0.000000 0.000000 -1.874387
20 9.334690 0.000001 -0.000032 0.862021 -1.092630 0.878278
21 4.610123 -0.122605 -1.406946 -0.513267 0.072291 -1.288225
22 1.191884 0.000000 0.000000 -0.163028 0.224047 -1.466962
23 0.945939 0.000000 0.000000 -0.068871 0.147979 -0.913117
24 4.605128 0.071046 -0.574018 -0.157261 0.007109 -0.685616
25 1.430263 0.000000 0.000000 -0.068563 0.062695 -1.808644
26 1.155766 0.000000 0.000000 -0.005433 0.026725 -0.524005
27 4.454865 -0.071046 0.574018 0.095492 -0.008588 -0.706366
28 1.426183 0.000000 0.000000 0.055915 -0.087980 -1.504213
29 1.324319 0.000000 0.000000 0.009317 -0.033630 -0.575091
30 4.479185 -0.026371 1.583719 0.481659 -0.035384 -1.246107
31 1.341888 0.000000 0.000000 0.023475 -0.208313 -0.755745
32 1.225941 0.000000 0.000000 0.026045 -0.124622 -0.538683
33 2.631852 -0.344645 1.908319 -0.354021 -0.915168 -1.788213
34 1.058429 0.000000 0.000000 -0.001069 -0.012855 0.251002
35 0.778706 0.000000 0.000000 -0.000101 -0.003217 0.062752
36 2.033354 1.000773 -1.100771 -0.035453 1.947898 -1.725979
37 6.811801 0.000000 0.000000 1.150567 0.675530 -0.322528
38 12.394103 0.000000 0.000000 0.000000 0.000000 -1.384000
39 9.334718 0.000000 0.000000 -1.288609 0.568972 -0.878748
40 4.610092 -0.109559 1.408022 0.217767 -0.010340 -1.857608
41 1.191885 0.000000 0.000000 0.044560 -0.180938 -0.876601
42 0.945938 0.000000 0.000000 0.155228 -0.190276 -1.393021
43 4.605097 0.076364 0.573335 0.139630 -0.069408 -0.865173
44 1.430257 0.000000 0.000000 0.049426 -0.072767 -1.413300
45 1.155767 0.000000 0.000000 0.018371 -0.045481 -0.841346
46 4.454831 -0.076364 -0.573335 0.047705 -0.153456 -0.767483
47 1.426188 0.000000 0.000000 -0.053883 0.078891 -1.553286
48 1.324319 0.000000 0.000000 -0.013612 0.036969 -0.732283
49 4.479149 -0.041050 -1.583407 -0.332628 0.218366 0.154976
50 1.341885 0.000000 0.000000 -0.042634 0.220746 -0.851609
51 1.225945 0.000000 0.000000 0.008155 -0.000000 0.000001
52 2.631822 -0.362328 -1.905043 0.415059 0.423435 -0.720789
53 1.058428 0.000000 0.000000 0.015106 0.038913 0.767157
54 0.778706 0.000000 0.000000 0.004785 0.022541 0.418310
55 4.041916 5.169765 -8.467939 0.561299 0.097296 -0.313170
56 -0.044717 2.529041 4.661499 0.298193 0.182234 -0.086568
time 7
1 0.078315 -3.952879 31.365131 1.536145 -0.124038 -0.448905
2 0.000000 0.000000 0.000000 -0.000000 -0.000000 -0.000000
3 3.890452 -0.000007 -0.000003 -2.263311 -0.359899 -1.265224
4 17.848179 0.000000 0.000000 0.000000 0.000000 1.178373
5 15.637959 0.000000 0.000000 -9.199910 -3.586174 7.904747
6 7.110240 0.000000 0.000000 6.276066 -0.003133 -0.631765
7 -3.890452 0.000003 0.000008 -1.548973 -0.220079 -1.766441
8 17.848181 0.000000 0.000000 0.000000 0.000000 1.361910
9 15.637958 0.000000 0.000000 0.296251 0.049847 -1.522960
10 7.110240 0.000000 0.000000 6.204414 -0.004953 -1.204632
11 0.000005 3.345127 -2.981901 1.754654 -0.227431 1.414478
12 4.018332 0.000000 0.000000 0.218913 -0.101052 0.207001
13 3.518567 0.000000 0.000000 0.119219 -0.121652 0.233755
14 8.942634 0.000000 0.000000 0.107933 0.076235 0.221385
15 3.307272 0.000000 0.000000 3.141590 -0.000000 0.400478
16 3.593713 0.000000 0.000000 -0.045952 0.006497 0.335703
17 2.033351 1.000771 1.100821 -0.756093 -1.613444 -0.995088
18 6.811800 0.000000 0.000000 -1.453064 -0.804236 -0.825513
19 12.394105 0.000000 0.000000 0.000000 0.000000 -1.943509
20 9.334690 0.000001 -0.000032 0.760683 -1.014830 1.039815
21 4.610123 -0.122605 -1.406946 -0.513267 0.072291 -1.288224
22 1.191884 0.000000 0.000000 -0.163028 0.224047 -1.466962
23 0.945939 0.000000 0.000000 -0.068871 0.147979 -0.913117
24 4.605128 0.071046 -0.574018 -0.157261 0.007109 -0.685616
25 1.430263 0.000000 0.000000 -0.068563 0.062695 -1.808644
26 1.155766 0.000000 0.000000 -0.005433 0.026725 -0.524005
27 4.454865 -0.071046 0.574018 0.095492 -0.008588 -0.706366
28 1.426183 0.000000 0.000000 0.055915 -0.087980 -1.504213
29 1.324319 0.000000 0.000000 0.009317 -0.033630 -0.575091
30 4.479185 -0.026371 1.583719 0.481659 -0.035384 -1.246107
31 1.341888 0.000000 0.000000 0.023475 -0.208313 -0.755745
32 1.225941 0.000000 0.000000 0.026045 -0.124622 -0.538684
33 2.631852 -0.344645 1.908319 -0.354022 -0.915168 -1.788213
34 1.058429 0.000000 0.000000 -0.001069 -0.012855 0.251002
35 0.778706 0.000000 0.000000 -0.000101 -0.003217 0.062752
36 2.033354 1.000773 -1.100771 -0.035453 1.947898 -1.725979
37 6.811801 0.000000 0.000000 1.067037 0.719463 -0.431117
38 12.394103 0.000000 0.000000 0.000000 0.000000 -1.399819
39 9.334718 0.000000 0.000000 -1.243580 0.564874 -0.804926
40 4.610092 -0.109559 1.408022 0.217767 -0.010340 -1.857608
41 1.191885 0.000000 0.000000 0.044560 -0.180938 -0.876601
42 0.945938 0.000000 0.000000 0.155228 -0.190276 -1.393021
43 4.605097 0.076364 0.573335 0.139630 -0.069408 -0.865173
44 1.430257 0.000000 0.000000 0.049426 -0.072767 -1.413300
45 1.155767 0.000000 0.000000 0.018371 -0.045481 -0.841346
46 4.454831 -0.076364 -0.573335 0.047705 -0.153456 -0.767483
47 1.426188 0.000000 0.000000 -0.053883 0.078891 -1.553286
48 1.324319 0.000000 0.000000 -0.013612 0.036969 -0.732283
49 4.479149 -0.041050 -1.583407 -0.332628 0.218366 0.154976
50 1.341885 0.000000 0.000000 -0.042633 0.220746 -0.851609
51 1.225945 0.000000 0.000000 0.008155 -0.000000 0.000001
52 2.631822 -0.362328 -1.905043 0.415059 0.423435 -0.720789
53 1.058428 0.000000 0.000000 0.015106 0.038913 0.767157
54 0.778706 0.000000 0.000000 0.004785 0.022541 0.418310
55 4.041916 5.169765 -8.467939 0.513451 0.081671 -0.318480
56 -0.044717 2.529041 4.661499 0.282557 0.211295 -0.092943
time 8
1 0.100192 -3.270139 32.316818 1.535683 -0.144107 -0.494809
2 0.000000 0.000000 0.000000 -0.000000 -0.000000 -0.000000
3 3.890452 -0.000007 -0.000003 -2.251136 -0.322629 -1.312687
4 17.848179 0.000000 0.000000 0.000000 0.000000 1.064597
5 15.637959 0.000000 0.000000 -9.235293 -3.551546 7.963532
6 7.110240 0.000000 0.000000 6.276066 -0.003133 -0.631765
7 -3.890452 0.000003 0.000008 -1.554947 -0.220312 -1.784096
8 17.848181 0.000000 0.000000 0.000000 0.000000 1.287391
9 15.637958 0.000000 0.000000 0.255488 0.038895 -1.489560
10 7.110240 0.000000 0.000000 6.204350 -0.004928 -1.191541
11 0.000005 3.345127 -2.981901 1.783010 -0.208334 1.406201
12 4.018332 0.000000 0.000000 0.184867 -0.089786 0.176197
13 3.518567 0.000000 0.000000 0.058884 -0.122885 0.206344
14 8.942634 0.000000 0.000000 0.034171 0.090697 0.222590
15 3.307272 0.000000 0.000000 3.141591 0.000000 0.400478
16 3.593713 0.000000 0.000000 0.108889 0.054168 0.264714
17 2.033351 1.000771 1.100821 -0.756092 -1.613444 -0.995090
18 6.811800 0.000000 0.000000 -1.491886 -0.701161 -0.770628
19 12.394105 0.000000 0.000000 0.000000 0.000000 -1.989911
20 9.334690 0.000001 -0.000032 0.665219 -0.934684 1.145057
21 4.610123 -0.122605 -1.406946 -0.513267 0.072291 -1.288224
22 1.191884 0.000000 0.000000 -0.163027 0.224047 -1.466962
23 0.945939 0.000000 0.000000 -0.068871 0.147979 -0.913117
24 4.605128 0.071046 -0.574018 -0.157261 0.007109 -0.685616
25 1.430263 0.000000 0.000000 -0.068563 0.062695 -1.808644
26 1.155766 0.000000 0.000000 -0.005433 0.026725 -0.524005
27 4.454865 -0.071046 0.574018 0.095492 -0.008588 -0.706366
28 1.426183 0.000000 0.000000 0.055915 -0.087980 -1.504213
29 1.324319 0.000000 0.000000 0.009317 -0.033630 -0.575091
30 4.479185 -0.026371 1.583719 0.481659 -0.035384 -1.246107
31 1.341888 0.000000 0.000000 0.023475 -0.208313 -0.755746
32 1.225941 0.000000 0.000000 0.026045 -0.124622 -0.538683
33 2.631852 -0.344645 1.908319 -0.354021 -0.915168 -1.788213
34 1.058429 0.000000 0.000000 -0.001069 -0.012855 0.251002
35 0.778706 0.000000 0.000000 -0.000101 -0.003217 0.062752
36 2.033354 1.000773 -1.100771 -0.035453 1.947898 -1.725979
37 6.811801 0.000000 0.000000 0.968211 0.741553 -0.539429
38 12.394103 0.000000 0.000000 0.000000 0.000000 -1.421162
39 9.334718 0.000000 0.000000 -1.189342 0.551737 -0.712301
40 4.610092 -0.109559 1.408022 0.217767 -0.010340 -1.857608
41 1.191885 0.000000 0.000000 0.044560 -0.180938 -0.876601
42 0.945938 0.000000 0.000000 0.155228 -0.190276 -1.393021
43 4.605097 0.076364 0.573335 0.139630 -0.069408 -0.865173
44 1.430257 0.000000 0.000000 0.049426 -0.072767 -1.413300
45 1.155767 0.000000 0.000000 0.018371 -0.045481 -0.841346
46 4.454831 -0.076364 -0.573335 0.047705 -0.153456 -0.767483
47 1.426188 0.000000 0.000000 -0.053883 0.078891 -1.553286
48 1.324319 0.000000 0.000000 -0.013612 0.036969 -0.732283
49 4.479149 -0.041050 -1.583407 -0.332628 0.218366 0.154976
50 1.341885 0.000000 0.000000 -0.042633 0.220746 -0.851609
51 1.225945 0.000000 0.000000 0.008155 -0.000000 0.000001
52 2.631822 -0.362328 -1.905043 0.415059 0.423435 -0.720789
53 1.058428 0.000000 0.000000 0.015106 0.038913 0.767157
54 0.778706 0.000000 0.000000 0.004785 0.022541 0.418310
55 4.041916 5.169765 -8.467939 0.463881 0.064287 -0.320948
56 -0.044717 2.529041 4.661499 0.264834 0.240155 -0.099057
time 9
1 0.120879 -2.561965 33.294872 1.536625 -0.162786 -0.542909
2 0.000000 0.000000 0.000000 0.000000 -0.000000 -0.000000
3 3.890452 -0.000007 -0.000003 -2.238531 -0.279494 -1.361862
4 17.848179 0.000000 0.000000 0.000000 0.000000 0.935041
5 15.637959 0.000000 0.000000 -9.272696 -3.515533 8.031111
6 7.110240 0.000000 0.000000 6.276066 -0.003133 -0.631765
7 -3.890452 0.000003 0.000008 -1.559436 -0.216200 -1.799432
8 17.848181 0.000000 0.000000 0.000000 0.000000 1.202706
9 15.637958 0.000000 0.000000 0.212947 0.025757 -1.450834
10 7.110240 0.000000 0.000000 6.204285 -0.004902 -1.178449
11 0.000005 3.345127 -2.981901 1.809549 -0.187744 1.400076
12 4.018332 0.000000 0.000000 0.150146 -0.080009 0.145901
13 3.518567 0.000000 0.000000 -0.002885 -0.125475 0.180653
14 8.942634 0.000000 0.000000 -0.038516 0.104993 0.222736
15 3.307272 0.000000 0.000000 3.141591 0.000000 0.400478
16 3.593713 0.000000 0.000000 0.259943 0.119337 0.208600
17 2.033351 1.000771 1.100821 -0.756091 -1.613444 -0.995091
18 6.811800 0.000000 0.000000 -1.493316 -0.576410 -0.759844
19 12.394105 0.000000 0.000000 0.000000 0.000000 -2.015650
20 9.334690 0.000001 -0.000032 0.578373 -0.864457 1.193884
21 4.610123 -0.122605 -1.406946 -0.513267 0.072291 -1.288225
22 1.191884 0.000000 0.000000 -0.163027 0.224047 -1.466962
23 0.945939 0.000000 0.000000 -0.068871 0.147979 -0.913117
24 4.605128 0.071046 -0.574018 -0.157261 0.007109 -0.685616
25 1.430263 0.000000 0.000000 -0.068563 0.062695 -1.808644
26 1.155766 0.000000 0.000000 -0.005433 0.026725 -0.524005
27 4.454865 -0.071046 0.574018 0.095492 -0.008588 -0.706366
28 1.426183 0.000000 0.000000 0.055915 -0.087980 -1.504212
29 1.324319 0.000000 0.000000 0.009317 -0.033630 -0.575091
30 4.479185 -0.026371 1.583719 0.481659 -0.035384 -1.246107
31 1.341888 0.000000 0.000000 0.023475 -0.208313 -0.755745
32 1.225941 0.000000 0.000000 0.026045 -0.124622 -0.538683
33 2.631852 -0.344645 1.908319 -0.354021 -0.915168 -1.788213
34 1.058429 0.000000 0.000000 -0.001069 -0.012855 0.251002
35 0.778706 0.000000 0.000000 -0.000101 -0.003217 0.062752
36 2.033354 1.000773 -1.100771 -0.035453 1.947898 -1.725979
37 6.811801 0.000000 0.000000 0.863996 0.743718 -0.636278
38 12.394103 0.000000 0.000000 0.000000 0.000000 -1.447113
39 9.334718 0.000000 0.000000 -1.130744 0.529024 -0.607455
40 4.610092 -0.109559 1.408022 0.217767 -0.010340 -1.857607
41 1.191885 0.000000 0.000000 0.044560 -0.180938 -0.876601
42 0.945938 0.000000 0.000000 0.155228 -0.190276 -1.393021
43 4.605097 0.076364 0.573335 0.139630 -0.069408 -0.865173
44 1.430257 0.000000 0.000000 0.049426 -0.072767 -1.413300
45 1.155767 0.000000 0.000000 0.018371 -0.045481 -0.841346
46 4.454831 -0.076364 -0.573335 0.047705 -0.153456 -0.767483
47 1.426188 0.000000 0.000000 -0.053883 0.078891 -1.553286
48 1.324319 0.000000 0.000000 -0.013612 0.036969 -0.732283
49 4.479149 -0.041050 -1.583407 -0.332628 0.218366 0.154976
50 1.341885 0.000000 0.000000 -0.042633 0.220746 -0.851609
51 1.225945 0.000000 0.000000 0.008155 -0.000000 0.000001
52 2.631822 -0.362328 -1.905043 0.415059 0.423435 -0.720789
53 1.058428 0.000000 0.000000 0.015106 0.038913 0.767157
54 0.778706 0.000000 0.000000 0.004785 0.022541 0.418310
55 4.041916 5.169765 -8.467939 0.414065 0.045227 -0.320399
56 -0.044717 2.529041 4.661499 0.245376 0.267471 -0.104846
time 10
1 0.139583 -1.857364 34.259964 1.538832 -0.179298 -0.591256
2 0.000000 0.000000 0.000000 -0.000000 -0.000000 -0.000000
3 3.890452 -0.000007 -0.000003 -2.226049 -0.229636 -1.412462
4 17.848179 0.000000 0.000000 0.000000 0.000000 0.788625
5 15.637959 0.000000 0.000000 -9.310540 -3.479600 8.108243
6 7.110240 0.000000 0.000000 6.276066 -0.003133 -0.631765
7 -3.890452 0.000003 0.000008 -1.562620 -0.209965 -1.811682
8 17.848181 0.000000 0.000000 0.000000 0.000000 1.115009
9 15.637958 0.000000 0.000000 0.170972 0.010968 -1.404208
10 7.110240 0.000000 0.000000 6.204228 -0.004877 -1.166639
11 0.000005 3.345127 -2.981901 1.833011 -0.166202 1.396371
12 4.018332 0.000000 0.000000 0.115753 -0.072013 0.117141
13 3.518567 0.000000 0.000000 -0.063307 -0.129113 0.157630
14 8.942634 0.000000 0.000000 -0.107948 0.118617 0.221905
15 3.307272 0.000000 0.000000 3.141590 -0.000000 0.400478
16 3.593713 0.000000 0.000000 0.403924 0.195203 0.170625
17 2.033351 1.000771 1.100821 -0.756093 -1.613444 -0.995088
18 6.811800 0.000000 0.000000 -1.470078 -0.438496 -0.785955
19 12.394105 0.000000 0.000000 0.000000 0.000000 -2.019325
20 9.334690 0.000001 -0.000032 0.504146 -0.810865 1.188444
21 4.610123 -0.122605 -1.406946 -0.513267 0.072291 -1.288224
22 1.191884 0.000000 0.000000 -0.163027 0.224047 -1.466962
23 0.945939 0.000000 0.000000 -0.068871 0.147979 -0.913117
24 4.605128 0.071046 -0.574018 -0.157261 0.007109 -0.685616
25 1.430263 0.000000 0.000000 -0.068563 0.062695 -1.808644
26 1.155766 0.000000 0.000000 -0.005433 0.026725 -0.524005
27 4.454865 -0.071046 0.574018 0.095492 -0.008588 -0.706366
28 1.426183 0.000000 0.000000 0.055915 -0.087980 -1.504213
29 1.324319 0.000000 0.000000 0.009317 -0.033630 -0.575091
30 4.479185 -0.026371 1.583719 0.481659 -0.035384 -1.246107
31 1.341888 0.000000 0.000000 0.023475 -0.208312 -0.755745
32 1.225941 0.000000 0.000000 0.026045 -0.124622 -0.538683
33 2.631852 -0.344645 1.908319 -0.354021 -0.915168 -1.788213
34 1.058429 0.000000 0.000000 -0.001069 -0.012855 0.251002
35 0.778706 0.000000 0.000000 -0.000101 -0.003217 0.062752
36 2.033354 1.000773 -1.100771 -0.035453 1.947898 -1.725979
37 6.811801 0.000000 0.000000 0.764678 0.731167 -0.712487
38 12.394103 0.000000 0.000000 0.000000 0.000000 -1.476760
39 9.334718 0.000000 0.000000 -1.072484 0.497195 -0.496765
40 4.610092 -0.109559 1.408022 0.217767 -0.010340 -1.857607
41 1.191885 0.000000 0.000000 0.044560 -0.180938 -0.876601
42 0.945938 0.000000 0.000000 0.155228 -0.190276 -1.393021
43 4.605097 0.076364 0.573335 0.139630 -0.069408 -0.865173
44 1.430257 0.000000 0.000000 0.049426 -0.072767 -1.413300
45 1.155767 0.000000 0.000000 0.018371 -0.045481 -0.841346
46 4.454831 -0.076364 -0.573335 0.047705 -0.153456 -0.767483
47 1.426188 0.000000 0.000000 -0.053883 0.078891 -1.553286
48 1.324319 0.000000 0.000000 -0.013612 0.036969 -0.732283
49 4.479149 -0.041050 -1.583407 -0.332628 0.218366 0.154976
50 1.341885 0.000000 0.000000 -0.042633 0.220746 -0.851609
51 1.225945 0.000000 0.000000 0.008155 -0.000000 0.000001
52 2.631822 -0.362328 -1.905043 0.415059 0.423435 -0.720789
53 1.058428 0.000000 0.000000 0.015106 0.038913 0.767157
54 0.778706 0.000000 0.000000 0.004785 0.022541 0.418310
55 4.041916 5.169765 -8.467939 0.365445 0.024569 -0.316914
56 -0.044717 2.529041 4.661499 0.224574 0.291921 -0.110164
time 11
1 0.155511 -1.185331 35.173134 1.542018 -0.192896 -0.637857
2 0.000000 0.000000 0.000000 -0.000000 -0.000000 -0.000000
3 3.890452 -0.000007 -0.000003 -2.214323 -0.171410 -1.465050
4 17.848179 0.000000 0.000000 0.000000 0.000000 0.621764
5 15.637959 0.000000 0.000000 -9.347173 -3.445122 8.196950
6 7.110240 0.000000 0.000000 6.276066 -0.003133 -0.631765
7 -3.890452 0.000003 0.000008 -1.564709 -0.205967 -1.820329
8 17.848181 0.000000 0.000000 0.000000 0.000000 1.035083
9 15.637958 0.000000 0.000000 0.131266 -0.004338 -1.347610
10 7.110240 0.000000 0.000000 6.204182 -0.004858 -1.157267
11 0.000005 3.345127 -2.981901 1.852185 -0.144252 1.395261
12 4.018332 0.000000 0.000000 0.082717 -0.065962 0.090972
13 3.518567 0.000000 0.000000 -0.119585 -0.133260 0.138152
14 8.942634 0.000000 0.000000 -0.171933 0.131083 0.220301
15 3.307272 0.000000 0.000000 3.141591 0.000000 0.400478
16 3.593713 0.000000 0.000000 0.539040 0.273916 0.151731
17 2.033351 1.000771 1.100821 -0.756096 -1.613444 -0.995086
18 6.811800 0.000000 0.000000 -1.439741 -0.299676 -0.839022
19 12.394105 0.000000 0.000000 0.000000 0.000000 -1.998666
20 9.334690 0.000001 -0.000032 0.448836 -0.772794 1.133949
21 4.610123 -0.122605 -1.406946 -0.513267 0.072291 -1.288225
22 1.191884 0.000000 0.000000 -0.163028 0.224047 -1.466962
23 0.945939 0.000000 0.000000 -0.068871 0.147979 -0.913117
24 4.605128 0.071046 -0.574018 -0.157261 0.007109 -0.685616
25 1.430263 0.000000 0.000000 -0.068563 0.062695 -1.808644
26 1.155766 0.000000 0.000000 -0.005433 0.026725 -0.524005
27 4.454865 -0.071046 0.574018 0.095492 -0.008588 -0.706366
28 1.426183 0.000000 0.000000 0.055915 -0.087980 -1.504213
29 1.324319 0.000000 0.000000 0.009317 -0.033630 -0.575091
30 4.479185 -0.026371 1.583719 0.481659 -0.035384 -1.246107
31 1.341888 0.000000 0.000000 0.023475 -0.208313 -0.755745
32 1.225941 0.000000 0.000000 0.026045 -0.124622 -0.538683
33 2.631852 -0.344645 1.908319 -0.354021 -0.915169 -1.788213
34 1.058429 0.000000 0.000000 -0.001069 -0.012855 0.251002
35 0.778706 0.000000 0.000000 -0.000101 -0.003217 0.062752
36 2.033354 1.000773 -1.100771 -0.035453 1.947899 -1.725979
37 6.811801 0.000000 0.000000 0.677660 0.710683 -0.764537
38 12.394103 0.000000 0.000000 0.000000 0.000000 -1.509192
39 9.334718 0.000000 0.000000 -1.018464 0.457859 -0.385843
40 4.610092 -0.109559 1.408022 0.217767 -0.010340 -1.857608
41 1.191885 0.000000 0.000000 0.044560 -0.180938 -0.876601
42 0.945938 0.000000 0.000000 0.155228 -0.190276 -1.393021
43 4.605097 0.076364 0.573335 0.139630 -0.069408 -0.865173
44 1.430257 0.000000 0.000000 0.049426 -0.072767 -1.413300
45 1.155767 0.000000 0.000000 0.018371 -0.045481 -0.841346
46 4.454831 -0.076364 -0.573335 0.047705 -0.153456 -0.767483
47 1.426188 0.000000 0.000000 -0.053883 0.078891 -1.553286
48 1.324319 0.000000 0.000000 -0.013612 0.036969 -0.732283
49 4.479149 -0.041050 -1.583407 -0.332628 0.218366 0.154976
50 1.341885 0.000000 0.000000 -0.042633 0.220746 -0.851609
51 1.225945 0.000000 0.000000 0.008155 -0.000000 0.000001
52 2.631822 -0.362328 -1.905043 0.415059 0.423435 -0.720789
53 1.058428 0.000000 0.000000 0.015106 0.038913 0.767157
54 0.778706 0.000000 0.000000 0.004785 0.022541 0.418310
55 4.041916 5.169765 -8.467939 0.319424 0.002347 -0.310829
56 -0.044717 2.529041 4.661499 0.202870 0.312199 -0.114767
time 12
1 0.167871 -0.574868 35.995461 1.545780 -0.202876 -0.680666
2 0.000000 0.000000 0.000000 -0.000000 -0.000000 -0.000000
3 3.890452 -0.000007 -0.000003 -2.204110 -0.100145 -1.522655
4 17.848179 0.000000 0.000000 0.000000 0.000000 0.422480
5 15.637959 0.000000 0.000000 -9.380903 -3.413389 8.303615
6 7.110240 0.000000 0.000000 6.276066 -0.003133 -0.631765
7 -3.890452 0.000003 0.000008 -1.565864 -0.211604 -1.825105
8 17.848181 0.000000 0.000000 0.000000 0.000000 0.978709
9 15.637958 0.000000 0.000000 0.094870 -0.018490 -1.279277
10 7.110240 0.000000 0.000000 6.204153 -0.004845 -1.151250
11 0.000005 3.345127 -2.981901 1.865884 -0.122429 1.396838
12 4.018332 0.000000 0.000000 0.052078 -0.061907 0.068470
13 3.518567 0.000000 0.000000 -0.168906 -0.137210 0.123002
14 8.942634 0.000000 0.000000 -0.228265 0.141943 0.218226
15 3.307272 0.000000 0.000000 3.141590 0.000000 0.400478
16 3.593713 0.000000 0.000000 0.663764 0.347661 0.150640
17 2.033351 1.000771 1.100821 -0.756091 -1.613444 -0.995091
18 6.811800 0.000000 0.000000 -1.418138 -0.173942 -0.908166
19 12.394105 0.000000 0.000000 0.000000 0.000000 -1.955122
20 9.334690 0.000001 -0.000032 0.416651 -0.742578 1.043120
21 4.610123 -0.122605 -1.406946 -0.513267 0.072291 -1.288224
22 1.191884 0.000000 0.000000 -0.163027 0.224047 -1.466962
23 0.945939 0.000000 0.000000 -0.068871 0.147979 -0.913117
24 4.605128 0.071046 -0.574018 -0.157261 0.007109 -0.685616
25 1.430263 0.000000 0.000000 -0.068563 0.062695 -1.808644
26 1.155766 0.000000 0.000000 -0.005433 0.026725 -0.524005
27 4.454865 -0.071046 0.574018 0.095492 -0.008588 -0.706366
28 1.426183 0.000000 0.000000 0.055915 -0.087980 -1.504212
29 1.324319 0.000000 0.000000 0.009317 -0.033630 -0.575091
30 4.479185 -0.026371 1.583719 0.481659 -0.035384 -1.246107
31 1.341888 0.000000 0.000000 0.023475 -0.208313 -0.755745
32 1.225941 0.000000 0.000000 0.026045 -0.124622 -0.538683
33 2.631852 -0.344645 1.908319 -0.354021 -0.915168 -1.788213
34 1.058429 0.000000 0.000000 -0.001068 -0.012855 0.251002
35 0.778706 0.000000 0.000000 -0.000101 -0.003217 0.062752
36 2.033354 1.000773 -1.100771 -0.035453 1.947898 -1.725979
37 6.811801 0.000000 0.000000 0.606871 0.688296 -0.794929
38 12.394103 0.000000 0.000000 0.000000 0.000000 -1.543494
39 9.334718 0.000000 0.000000 -0.971364 0.413647 -0.279223
40 4.610092 -0.109559 1.408022 0.217767 -0.010340 -1.857608
41 1.191885 0.000000 0.000000 0.044560 -0.180938 -0.876601
42 0.945938 0.000000 0.000000 0.155228 -0.190276 -1.393021
43 4.605097 0.076364 0.573335 0.139630 -0.069408 -0.865173
44 1.430257 0.000000 0.000000 0.049426 -0.072767 -1.413300
45 1.155767 0.000000 0.000000 0.018371 -0.045481 -0.841346
46 4.454831 -0.076364 -0.573335 0.047705 -0.153456 -0.767483
47 1.426188 0.000000 0.000000 -0.053883 0.078891 -1.553286
48 1.324319 0.000000 0.000000 -0.013612 0.036969 -0.732283
49 4.479149 -0.041050 -1.583407 -0.332628 0.218366 0.154976
50 1.341885 0.000000 0.000000 -0.042633 0.220746 -0.851609
51 1.225945 0.000000 0.000000 0.008155 -0.000000 0.000001
52 2.631822 -0.362328 -1.905043 0.415059 0.423435 -0.720789
53 1.058428 0.000000 0.000000 0.015106 0.038913 0.767157
54 0.778706 0.000000 0.000000 0.004785 0.022541 0.418310
55 4.041916 5.169765 -8.467939 0.277379 -0.021481 -0.302705
56 -0.044717 2.529041 4.661499 0.180753 0.327025 -0.118318
time 13
1 0.175868 -0.054976 36.687817 1.549640 -0.208589 -0.717596
2 0.000000 0.000000 0.000000 -0.000000 -0.000000 -0.000000
3 3.890452 -0.000007 -0.000003 -2.197516 0.022904 -1.613171
4 17.848179 0.000000 0.000000 0.000000 0.000000 0.088454
5 15.637959 0.000000 0.000000 -9.409985 -3.385638 8.482642
6 7.110240 0.000000 0.000000 6.276066 -0.003133 -0.631765
7 -3.890452 0.000003 0.000008 -1.567306 -0.312738 -1.824941
8 17.848181 0.000000 0.000000 0.000000 0.000000 1.081268
9 15.637958 0.000000 0.000000 0.063227 -0.025509 -1.110155
10 7.110240 0.000000 0.000000 6.204143 -0.004840 -1.149176
11 0.000005 3.345127 -2.981901 1.872943 -0.101230 1.401128
12 4.018332 0.000000 0.000000 0.024871 -0.059812 0.050713
13 3.518567 0.000000 0.000000 -0.208442 -0.140179 0.112879
14 8.942634 0.000000 0.000000 -0.274720 0.150790 0.216053
15 3.307272 0.000000 0.000000 3.141590 -0.000000 0.400478
16 3.593713 0.000000 0.000000 0.775543 0.409520 0.164023
17 2.033351 1.000771 1.100821 -0.756091 -1.613444 -0.995091
18 6.811800 0.000000 0.000000 -1.413617 -0.072852 -0.981687
19 12.394105 0.000000 0.000000 0.000000 0.000000 -1.897137
20 9.334690 0.000001 -0.000032 0.405905 -0.711280 0.937285
21 4.610123 -0.122605 -1.406946 -0.513267 0.072291 -1.288224
22 1.191884 0.000000 0.000000 -0.163027 0.224047 -1.466962
23 0.945939 0.000000 0.000000 -0.068871 0.147979 -0.913117
24 4.605128 0.071046 -0.574018 -0.157261 0.007109 -0.685616
25 1.430263 0.000000 0.000000 -0.068563 0.062695 -1.808645
26 1.155766 0.000000 0.000000 -0.005433 0.026725 -0.524005
27 4.454865 -0.071046 0.574018 0.095492 -0.008588 -0.706366
28 1.426183 0.000000 0.000000 0.055915 -0.087980 -1.504213
29 1.324319 0.000000 0.000000 0.009317 -0.033630 -0.575091
30 4.479185 -0.026371 1.583719 0.481659 -0.035384 -1.246107
31 1.341888 0.000000 0.000000 0.023475 -0.208313 -0.755745
32 1.225941 0.000000 0.000000 0.026045 -0.124622 -0.538683
33 2.631852 -0.344645 1.908319 -0.354021 -0.915169 -1.788213
34 1.058429 0.000000 0.000000 -0.001069 -0.012855 0.251002
35 0.778706 0.000000 0.000000 -0.000101 -0.003217 0.062752
36 2.033354 1.000773 -1.100771 -0.035453 1.947898 -1.725979
37 6.811801 0.000000 0.000000 0.553855 0.667683 -0.810230
38 12.394103 0.000000 0.000000 0.000000 0.000000 -1.578755
39 9.334718 0.000000 0.000000 -0.932541 0.367926 -0.180384
40 4.610092 -0.109559 1.408022 0.217767 -0.010340 -1.857607
41 1.191885 0.000000 0.000000 0.044560 -0.180938 -0.876601
42 0.945938 0.000000 0.000000 0.155228 -0.190276 -1.393021
43 4.605097 0.076364 0.573335 0.139630 -0.069408 -0.865173
44 1.430257 0.000000 0.000000 0.049426 -0.072767 -1.413300
45 1.155767 0.000000 0.000000 0.018371 -0.045481 -0.841346
46 4.454831 -0.076364 -0.573335 0.047705 -0.153456 -0.767483
47 1.426188 0.000000 0.000000 -0.053883 0.078891 -1.553286
48 1.324319 0.000000 0.000000 -0.013612 0.036969 -0.732283
49 4.479149 -0.041050 -1.583407 -0.332628 0.218366 0.154976
50 1.341885 0.000000 0.000000 -0.042633 0.220746 -0.851609
51 1.225945 0.000000 0.000000 0.008155 -0.000000 0.000001
52 2.631822 -0.362328 -1.905043 0.415059 0.423435 -0.720789
53 1.058428 0.000000 0.000000 0.015106 0.038913 0.767157
54 0.778706 0.000000 0.000000 0.004785 0.022541 0.418310
55 4.041916 5.169765 -8.467939 0.240673 -0.047043 -0.293283
56 -0.044717 2.529041 4.661499 0.158757 0.335141 -0.120391
time 14
1 0.178710 0.345345 37.210701 1.553106 -0.209440 -0.746537
2 0.000000 0.000000 0.000000 -0.000000 -0.000000 -0.000000
3 3.890452 -0.000007 -0.000003 -2.195241 0.053521 -1.632969
4 17.848179 0.000000 0.000000 0.000000 0.000000 0.000000
5 15.637959 0.000000 0.000000 -9.410160 -3.353873 8.582876
6 7.110240 0.000000 0.000000 6.265307 -0.002691 -0.631351
7 -3.890452 0.000003 0.000008 -1.560546 -0.258385 -1.814531
8 17.848181 0.000000 0.000000 0.000000 0.000000 0.907887
9 15.637958 0.000000 0.000000 0.030357 -0.023965 -1.205314
10 7.110240 0.000000 0.000000 6.203579 -0.004545 -1.029077
11 0.000005 3.345127 -2.981901 1.872194 -0.081103 1.408103
12 4.018332 0.000000 0.000000 0.002120 -0.059583 0.038766
13 3.518567 0.000000 0.000000 -0.235353 -0.141407 0.108426
14 8.942634 0.000000 0.000000 -0.309057 0.157254 0.214180
15 3.307272 0.000000 0.000000 3.141590 0.000000 0.400478
16 3.593713 0.000000 0.000000 0.869977 0.454098 0.186854
17 2.033351 1.000771 1.100821 -0.756092 -1.613444 -0.995089
18 6.811800 0.000000 0.000000 -1.425356 -0.001642 -1.046949
19 12.394105 0.000000 0.000000 0.000000 0.000000 -1.839632
20 9.334690 0.000001 -0.000032 0.410317 -0.673948 0.841679
21 4.610123 -0.122605 -1.406946 -0.513267 0.072291 -1.288224
22 1.191884 0.000000 0.000000 -0.163027 0.224047 -1.466962
23 0.945939 0.000000 0.000000 -0.068871 0.147979 -0.913117
24 4.605128 0.071046 -0.574018 -0.157261 0.007109 -0.685616
25 1.430263 0.000000 0.000000 -0.068563 0.062695 -1.808644
26 1.155766 0.000000 0.000000 -0.005433 0.026725 -0.524005
27 4.454865 -0.071046 0.574018 0.095492 -0.008588 -0.706366
28 1.426183 0.000000 0.000000 0.055916 -0.087980 -1.504213
29 1.324319 0.000000 0.000000 0.009317 -0.033630 -0.575091
30 4.479185 -0.026371 1.583719 0.481659 -0.035384 -1.246107
31 1.341888 0.000000 0.000000 0.023475 -0.208313 -0.755745
32 1.225941 0.000000 0.000000 0.026045 -0.124622 -0.538684
33 2.631852 -0.344645 1.908319 -0.354021 -0.915168 -1.788213
34 1.058429 0.000000 0.000000 -0.001068 -0.012855 0.251002
35 0.778706 0.000000 0.000000 -0.000101 -0.003217 0.062752
36 2.033354 1.000773 -1.100771 -0.035453 1.947898 -1.725979
37 6.811801 0.000000 0.000000 0.518902 0.649918 -0.818725
38 12.394103 0.000000 0.000000 0.000000 0.000000 -1.614060
39 9.334718 0.000000 0.000000 -0.902197 0.324453 -0.092030
40 4.610092 -0.109559 1.408022 0.217767 -0.010340 -1.857608
41 1.191885 0.000000 0.000000 0.044560 -0.180938 -0.876601
42 0.945938 0.000000 0.000000 0.155228 -0.190276 -1.393021
43 4.605097 0.076364 0.573335 0.139630 -0.069408 -0.865173
44 1.430257 0.000000 0.000000 0.049426 -0.072767 -1.413300
45 1.155767 0.000000 0.000000 0.018371 -0.045481 -0.841346
46 4.454831 -0.076364 -0.573335 0.047705 -0.153456 -0.767483
47 1.426188 0.000000 0.000000 -0.053883 0.078891 -1.553286
48 1.324319 0.000000 0.000000 -0.013612 0.036969 -0.732283
49 4.479149 -0.041050 -1.583407 -0.332628 0.218366 0.154976
50 1.341885 0.000000 0.000000 -0.042633 0.220746 -0.851609
51 1.225945 0.000000 0.000000 0.008155 -0.000000 0.000001
52 2.631822 -0.362328 -1.905043 0.415059 0.423435 -0.720789
53 1.058428 0.000000 0.000000 0.015106 0.038913 0.767157
54 0.778706 0.000000 0.000000 0.004785 0.022541 0.418310
55 4.041916 5.169765 -8.467939 0.210684 -0.074540 -0.283431
56 -0.044717 2.529041 4.661499 0.137430 0.335317 -0.120500
time 15
1 0.168531 0.556792 37.452946 1.556074 -0.197515 -0.763448
2 0.000000 0.000000 0.000000 -0.000000 -0.000000 -0.000000
3 3.890452 -0.000007 -0.000003 -2.192257 0.047652 -1.619647
4 17.848179 0.000000 0.000000 0.000000 0.000000 0.000000
5 15.637959 0.000000 0.000000 -9.416034 -3.335775 8.601503
6 7.110240 0.000000 0.000000 6.263336 -0.002569 -0.629086
7 -3.890452 0.000003 0.000008 -1.549073 -0.259465 -1.787820
8 17.848181 0.000000 0.000000 0.000000 0.000000 0.801976
9 15.637958 0.000000 0.000000 0.003573 -0.021328 -1.319366
10 7.110240 0.000000 0.000000 6.202576 -0.003764 -0.788880
11 0.000005 3.345127 -2.981901 1.852690 -0.060247 1.423247
12 4.018332 0.000000 0.000000 -0.012380 -0.063163 0.040622
13 3.518567 0.000000 0.000000 -0.239212 -0.137395 0.118615
14 8.942634 0.000000 0.000000 -0.316428 0.158633 0.213749
15 3.307272 0.000000 0.000000 3.141591 0.000000 0.400478
16 3.593713 0.000000 0.000000 0.929849 0.456102 0.225581
17 2.033351 1.000771 1.100821 -0.756093 -1.613444 -0.995089
18 6.811800 0.000000 0.000000 -1.444485 0.010806 -1.081971
19 12.394105 0.000000 0.000000 0.000000 0.000000 -1.790122
20 9.334690 0.000001 -0.000032 0.417901 -0.622525 0.785678
21 4.610123 -0.122605 -1.406946 -0.513267 0.072291 -1.288224
22 1.191884 0.000000 0.000000 -0.163027 0.224047 -1.466962
23 0.945939 0.000000 0.000000 -0.068871 0.147979 -0.913117
24 4.605128 0.071046 -0.574018 -0.157261 0.007109 -0.685616
25 1.430263 0.000000 0.000000 -0.068563 0.062695 -1.808644
26 1.155766 0.000000 0.000000 -0.005433 0.026725 -0.524005
27 4.454865 -0.071046 0.574018 0.095492 -0.008588 -0.706366
28 1.426183 0.000000 0.000000 0.055915 -0.087980 -1.504213
29 1.324319 0.000000 0.000000 0.009317 -0.033630 -0.575091
30 4.479185 -0.026371 1.583719 0.481659 -0.035384 -1.246107
31 1.341888 0.000000 0.000000 0.023475 -0.208313 -0.755745
32 1.225941 0.000000 0.000000 0.026045 -0.124622 -0.538684
33 2.631852 -0.344645 1.908319 -0.354021 -0.915169 -1.788213
34 1.058429 0.000000 0.000000 -0.001068 -0.012855 0.251002
35 0.778706 0.000000 0.000000 -0.000101 -0.003217 0.062752
36 2.033354 1.000773 -1.100771 -0.035453 1.947898 -1.725979
37 6.811801 0.000000 0.000000 0.525814 0.635185 -0.817144
38 12.394103 0.000000 0.000000 0.000000 0.000000 -1.652942
39 9.334718 0.000000 0.000000 -0.879404 0.282854 -0.010012
40 4.610092 -0.109559 1.408022 0.217767 -0.010340 -1.857607
41 1.191885 0.000000 0.000000 0.044560 -0.180938 -0.876601
42 0.945938 0.000000 0.000000 0.155228 -0.190276 -1.393021
43 4.605097 0.076364 0.573335 0.139630 -0.069408 -0.865173
44 1.430257 0.000000 0.000000 0.049426 -0.072767 -1.413300
45 1.155767 0.000000 0.000000 0.018371 -0.045481 -0.841346
46 4.454831 -0.076364 -0.573335 0.047705 -0.153456 -0.767483
47 1.426188 0.000000 0.000000 -0.053883 0.078891 -1.553286
48 1.324319 0.000000 0.000000 -0.013612 0.036969 -0.732283
49 4.479149 -0.041050 -1.583407 -0.332628 0.218366 0.154976
50 1.341885 0.000000 0.000000 -0.042633 0.220746 -0.851609
51 1.225945 0.000000 0.000000 0.008155 -0.000001 0.000001
52 2.631822 -0.362328 -1.905043 0.415059 0.423435 -0.720789
53 1.058428 0.000000 0.000000 0.015106 0.038913 0.767157
54 0.778706 0.000000 0.000000 0.004785 0.022541 0.418310
55 4.041916 5.169765 -8.467939 0.193763 -0.110322 -0.273358
56 -0.044717 2.529041 4.661499 0.114654 0.316664 -0.114029
time 16
1 0.141698 0.572818 37.400314 1.558707 -0.169010 -0.768278
2 0.000000 0.000000 0.000000 -0.000000 -0.000000 -0.000000
3 3.890452 -0.000007 -0.000003 -2.190125 0.036942 -1.594615
4 17.848179 0.000000 0.000000 0.000000 0.000000 0.000000
5 15.637959 0.000000 0.000000 -9.424879 -3.330355 8.581756
6 7.110240 0.000000 0.000000 6.267294 -0.002775 -0.630995
7 -3.890452 0.000003 0.000008 -1.540620 -0.238331 -1.757320
8 17.848181 0.000000 0.000000 0.000000 0.000000 0.712114
9 15.637958 0.000000 0.000000 -0.003625 -0.028798 -1.391460
10 7.110240 0.000000 0.000000 6.202152 -0.003289 -0.668783
11 0.000005 3.345127 -2.981901 1.809957 -0.036374 1.448891
12 4.018332 0.000000 0.000000 -0.017679 -0.071345 0.059766
13 3.518567 0.000000 0.000000 -0.217062 -0.127048 0.147893
14 8.942634 0.000000 0.000000 -0.290813 0.153829 0.215203
15 3.307272 0.000000 0.000000 3.141591 -0.000000 0.400478
16 3.593713 0.000000 0.000000 0.947142 0.407419 0.283093
17 2.033351 1.000771 1.100821 -0.756092 -1.613444 -0.995089
18 6.811800 0.000000 0.000000 -1.461182 -0.045612 -1.081906
19 12.394105 0.000000 0.000000 0.000000 0.000000 -1.745505
20 9.334690 0.000001 -0.000032 0.422237 -0.557410 0.772970
21 4.610123 -0.122605 -1.406946 -0.513267 0.072291 -1.288225
22 1.191884 0.000000 0.000000 -0.163028 0.224047 -1.466962
23 0.945939 0.000000 0.000000 -0.068871 0.147979 -0.913117
24 4.605128 0.071046 -0.574018 -0.157261 0.007109 -0.685616
25 1.430263 0.000000 0.000000 -0.068563 0.062695 -1.808644
26 1.155766 0.000000 0.000000 -0.005433 0.026725 -0.524005
27 4.454865 -0.071046 0.574018 0.095492 -0.008588 -0.706366
28 1.426183 0.000000 0.000000 0.055915 -0.087980 -1.504213
29 1.324319 0.000000 0.000000 0.009317 -0.033630 -0.575091
30 4.479185 -0.026371 1.583719 0.481659 -0.035384 -1.246107
31 1.341888 0.000000 0.000000 0.023475 -0.208313 -0.755745
32 1.225941 0.000000 0.000000 0.026045 -0.124622 -0.538684
33 2.631852 -0.344645 1.908319 -0.354021 -0.915168 -1.788213
34 1.058429 0.000000 0.000000 -0.001069 -0.012855 0.251002
35 0.778706 0.000000 0.000000 -0.000101 -0.003217 0.062752
36 2.033354 1.000773 -1.100771 -0.035453 1.947899 -1.725979
37 6.811801 0.000000 0.000000 0.585346 0.622821 -0.801935
38 12.394103 0.000000 0.000000 0.000000 0.000000 -1.698139
39 9.334718 0.000000 0.000000 -0.862935 0.240402 0.071428
40 4.610092 -0.109559 1.408022 0.217767 -0.010340 -1.857607
41 1.191885 0.000000 0.000000 0.044560 -0.180938 -0.876601
42 0.945938 0.000000 0.000000 0.155228 -0.190276 -1.393021
43 4.605097 0.076364 0.573335 0.139630 -0.069408 -0.865173
44 1.430257 0.000000 0.000000 0.049426 -0.072767 -1.413300
45 1.155767 0.000000 0.000000 0.018371 -0.045481 -0.841346
46 4.454831 -0.076364 -0.573335 0.047705 -0.153456 -0.767483
47 1.426188 0.000000 0.000000 -0.053883 0.078891 -1.553286
48 1.324319 0.000000 0.000000 -0.013612 0.036969 -0.732283
49 4.479149 -0.041050 -1.583407 -0.332628 0.218366 0.154976
50 1.341885 0.000000 0.000000 -0.042633 0.220746 -0.851609
51 1.225945 0.000000 0.000000 0.008155 -0.000000 0.000001
52 2.631822 -0.362328 -1.905043 0.415059 0.423435 -0.720789
53 1.058428 0.000000 0.000000 0.015106 0.038913 0.767157
54 0.778706 0.000000 0.000000 0.004785 0.022541 0.418310
55 4.041916 5.169765 -8.467939 0.192170 -0.157873 -0.262780
56 -0.044717 2.529041 4.661499 0.088435 0.274678 -0.098091
time 17
1 0.103761 0.458566 37.160263 1.561304 -0.129484 -0.765009
2 0.000000 0.000000 0.000000 -0.000000 -0.000000 -0.000000
3 3.890452 -0.000007 -0.000003 -2.188748 -0.044077 -1.515197
4 17.848179 0.000000 0.000000 0.000000 0.000000 0.175482
5 15.637959 0.000000 0.000000 -9.430774 -3.330201 8.453145
6 7.110240 0.000000 0.000000 6.276066 -0.003133 -0.631765
7 -3.890452 0.000003 0.000008 -1.532284 -0.234835 -1.730443
8 17.848181 0.000000 0.000000 0.000000 0.000000 0.704204
9 15.637958 0.000000 0.000000 0.002566 -0.038571 -1.389270
10 7.110240 0.000000 0.000000 6.202134 -0.003267 -0.663362
11 0.000005 3.345127 -2.981901 1.752413 -0.009135 1.480436
12 4.018332 0.000000 0.000000 -0.017107 -0.082630 0.090421
13 3.518567 0.000000 0.000000 -0.177318 -0.113854 0.190300
14 8.942634 0.000000 0.000000 -0.243246 0.144808 0.217571
15 3.307272 0.000000 0.000000 3.141591 0.000000 0.400478
16 3.593713 0.000000 0.000000 0.932117 0.333218 0.355548
17 2.033351 1.000771 1.100821 -0.756092 -1.613444 -0.995090
18 6.811800 0.000000 0.000000 -1.475808 -0.146914 -1.066708
19 12.394105 0.000000 0.000000 0.000000 0.000000 -1.695218
20 9.334690 0.000001 -0.000032 0.428652 -0.488026 0.776073
21 4.610123 -0.122605 -1.406946 -0.513267 0.072291 -1.288224
22 1.191884 0.000000 0.000000 -0.163027 0.224047 -1.466962
23 0.945939 0.000000 0.000000 -0.068871 0.147979 -0.913117
24 4.605128 0.071046 -0.574018 -0.157261 0.007109 -0.685616
25 1.430263 0.000000 0.000000 -0.068563 0.062695 -1.808644
26 1.155766 0.000000 0.000000 -0.005433 0.026725 -0.524005
27 4.454865 -0.071046 0.574018 0.095492 -0.008588 -0.706366
28 1.426183 0.000000 0.000000 0.055915 -0.087980 -1.504213
29 1.324319 0.000000 0.000000 0.009317 -0.033630 -0.575091
30 4.479185 -0.026371 1.583719 0.481659 -0.035384 -1.246107
31 1.341888 0.000000 0.000000 0.023475 -0.208313 -0.755745
32 1.225941 0.000000 0.000000 0.026045 -0.124622 -0.538683
33 2.631852 -0.344645 1.908319 -0.354021 -0.915169 -1.788213
34 1.058429 0.000000 0.000000 -0.001069 -0.012855 0.251002
35 0.778706 0.000000 0.000000 -0.000101 -0.003217 0.062752
36 2.033354 1.000773 -1.100771 -0.035453 1.947898 -1.725979
37 6.811801 0.000000 0.000000 0.678914 0.611253 -0.775573
38 12.394103 0.000000 0.000000 0.000000 0.000000 -1.747545
39 9.334718 0.000000 0.000000 -0.851868 0.197362 0.152297
40 4.610092 -0.109559 1.408022 0.217767 -0.010340 -1.857608
41 1.191885 0.000000 0.000000 0.044560 -0.180938 -0.876601
42 0.945938 0.000000 0.000000 0.155228 -0.190276 -1.393021
43 4.605097 0.076364 0.573335 0.139630 -0.069408 -0.865173
44 1.430257 0.000000 0.000000 0.049426 -0.072767 -1.413300
45 1.155767 0.000000 0.000000 0.018371 -0.045481 -0.841346
46 4.454831 -0.076364 -0.573335 0.047705 -0.153456 -0.767483
47 1.426188 0.000000 0.000000 -0.053883 0.078891 -1.553286
48 1.324319 0.000000 0.000000 -0.013612 0.036969 -0.732283
49 4.479149 -0.041050 -1.583407 -0.332628 0.218366 0.154976
50 1.341885 0.000000 0.000000 -0.042633 0.220746 -0.851609
51 1.225945 0.000000 0.000000 0.008155 -0.000000 0.000001
52 2.631822 -0.362328 -1.905043 0.415059 0.423435 -0.720789
53 1.058428 0.000000 0.000000 0.015106 0.038913 0.767157
54 0.778706 0.000000 0.000000 0.004785 0.022541 0.418310
55 4.041916 5.169765 -8.467939 0.201153 -0.212882 -0.251545
56 -0.044717 2.529041 4.661499 0.059204 0.217688 -0.074982
time 18
1 0.060272 0.279173 36.840179 1.564197 -0.084470 -0.757648
2 0.000000 0.000000 0.000000 -0.000000 -0.000000 -0.000000
3 3.890452 -0.000007 -0.000003 -2.195163 -0.158937 -1.409965
4 17.848179 0.000000 0.000000 0.000000 0.000000 0.435356
5 15.637959 0.000000 0.000000 -9.415023 -3.324193 8.321252
6 7.110240 0.000000 0.000000 6.276066 -0.003133 -0.631765
7 -3.890452 0.000003 0.000008 -1.518570 -0.232830 -1.702793
8 17.848181 0.000000 0.000000 0.000000 0.000000 0.704006
9 15.637958 0.000000 0.000000 0.010792 -0.051409 -1.393289
10 7.110240 0.000000 0.000000 6.202091 -0.003212 -0.650274
11 0.000005 3.345127 -2.981901 1.688222 0.021272 1.513632
12 4.018332 0.000000 0.000000 -0.013930 -0.095611 0.126810
13 3.518567 0.000000 0.000000 -0.128567 -0.101047 0.239731
14 8.942634 0.000000 0.000000 -0.184749 0.133565 0.219883
15 3.307272 0.000000 0.000000 3.141590 0.000000 0.400478
16 3.593713 0.000000 0.000000 0.897898 0.257360 0.440384
17 2.033351 1.000771 1.100821 -0.756095 -1.613444 -0.995087
18 6.811800 0.000000 0.000000 -1.488456 -0.270055 -1.055896
19 12.394105 0.000000 0.000000 0.000000 0.000000 -1.628707
20 9.334690 0.000001 -0.000032 0.440281 -0.422484 0.770238
21 4.610123 -0.122605 -1.406946 -0.513267 0.072291 -1.288224
22 1.191884 0.000000 0.000000 -0.163028 0.224047 -1.466962
23 0.945939 0.000000 0.000000 -0.068871 0.147979 -0.913117
24 4.605128 0.071046 -0.574018 -0.157261 0.007109 -0.685616
25 1.430263 0.000000 0.000000 -0.068563 0.062695 -1.808644
26 1.155766 0.000000 0.000000 -0.005433 0.026725 -0.524005
27 4.454865 -0.071046 0.574018 0.095492 -0.008588 -0.706366
28 1.426183 0.000000 0.000000 0.055915 -0.087980 -1.504213
29 1.324319 0.000000 0.000000 0.009317 -0.033630 -0.575091
30 4.479185 -0.026371 1.583719 0.481659 -0.035384 -1.246107
31 1.341888 0.000000 0.000000 0.023475 -0.208313 -0.755745
32 1.225941 0.000000 0.000000 0.026045 -0.124622 -0.538683
33 2.631852 -0.344645 1.908319 -0.354021 -0.915168 -1.788213
34 1.058429 0.000000 0.000000 -0.001069 -0.012855 0.251002
35 0.778706 0.000000 0.000000 -0.000101 -0.003217 0.062752
36 2.033354 1.000773 -1.100771 -0.035453 1.947898 -1.725979
37 6.811801 0.000000 0.000000 0.788449 0.598297 -0.739480
38 12.394103 0.000000 0.000000 0.000000 0.000000 -1.799055
39 9.334718 0.000000 0.000000 -0.845289 0.153873 0.232529
40 4.610092 -0.109559 1.408022 0.217767 -0.010340 -1.857608
41 1.191885 0.000000 0.000000 0.044560 -0.180938 -0.876601
42 0.945938 0.000000 0.000000 0.155228 -0.190276 -1.393021
43 4.605097 0.076364 0.573335 0.139630 -0.069408 -0.865173
44 1.430257 0.000000 0.000000 0.049426 -0.072767 -1.413300
45 1.155767 0.000000 0.000000 0.018371 -0.045481 -0.841346
46 4.454831 -0.076364 -0.573335 0.047705 -0.153456 -0.767483
47 1.426188 0.000000 0.000000 -0.053883 0.078891 -1.553286
48 1.324319 0.000000 0.000000 -0.013612 0.036969 -0.732283
49 4.479149 -0.041050 -1.583407 -0.332628 0.218366 0.154976
50 1.341885 0.000000 0.000000 -0.042633 0.220746 -0.851609
51 1.225945 0.000000 0.000000 0.008155 -0.000000 0.000001
52 2.631822 -0.362328 -1.905043 0.415059 0.423435 -0.720789
53 1.058428 0.000000 0.000000 0.015106 0.038913 0.767157
54 0.778706 0.000000 0.000000 0.004785 0.022541 0.418310
55 4.041916 5.169765 -8.467939 0.215721 -0.271055 -0.239370
56 -0.044717 2.529041 4.661499 0.027457 0.153880 -0.047264
time 19
1 0.016783 0.099781 36.542606 1.567414 -0.039481 -0.750175
2 0.000000 0.000000 0.000000 -0.000000 -0.000000 -0.000000
3 3.890452 -0.000007 -0.000003 -2.203735 -0.234263 -1.332996
4 17.848179 0.000000 0.000000 0.000000 0.000000 0.592220
5 15.637959 0.000000 0.000000 -9.398796 -3.317510 8.243308
6 7.110240 0.000000 0.000000 6.276066 -0.003133 -0.631765
7 -3.890452 0.000003 0.000008 -1.505100 -0.229757 -1.675816
8 17.848181 0.000000 0.000000 0.000000 0.000000 0.702496
9 15.637958 0.000000 0.000000 0.019839 -0.064658 -1.397188
10 7.110240 0.000000 0.000000 6.202050 -0.003156 -0.637186
11 0.000005 3.345127 -2.981901 1.625201 0.053747 1.544763
12 4.018332 0.000000 0.000000 -0.011224 -0.108711 0.163206
13 3.518567 0.000000 0.000000 -0.079583 -0.090729 0.289702
14 8.942634 0.000000 0.000000 -0.126301 0.122204 0.221527
15 3.307272 0.000000 0.000000 3.141590 -0.000000 0.400478
16 3.593713 0.000000 0.000000 0.860071 0.196655 0.529869
17 2.033351 1.000771 1.100821 -0.756095 -1.613444 -0.995087
18 6.811800 0.000000 0.000000 -1.495308 -0.391210 -1.061648
19 12.394105 0.000000 0.000000 0.000000 0.000000 -1.546761
20 9.334690 0.000001 -0.000032 0.455502 -0.366439 0.745705
21 4.610123 -0.122605 -1.406946 -0.513267 0.072291 -1.288224
22 1.191884 0.000000 0.000000 -0.163028 0.224047 -1.466962
23 0.945939 0.000000 0.000000 -0.068871 0.147979 -0.913117
24 4.605128 0.071046 -0.574018 -0.157261 0.007109 -0.685616
25 1.430263 0.000000 0.000000 -0.068563 0.062695 -1.808644
26 1.155766 0.000000 0.000000 -0.005433 0.026725 -0.524005
27 4.454865 -0.071046 0.574018 0.095492 -0.008588 -0.706366
28 1.426183 0.000000 0.000000 0.055915 -0.087980 -1.504213
29 1.324319 0.000000 0.000000 0.009317 -0.033630 -0.575091
30 4.479185 -0.026371 1.583719 0.481659 -0.035384 -1.246108
31 1.341888 0.000000 0.000000 0.023475 -0.208313 -0.755746
32 1.225941 0.000000 0.000000 0.026045 -0.124622 -0.538683
33 2.631852 -0.344645 1.908319 -0.354021 -0.915169 -1.788213
34 1.058429 0.000000 0.000000 -0.001069 -0.012855 0.251002
35 0.778706 0.000000 0.000000 -0.000101 -0.003217 0.062752
36 2.033354 1.000773 -1.100771 -0.035453 1.947898 -1.725979
37 6.811801 0.000000 0.000000 0.895966 0.581835 -0.698834
38 12.394103 0.000000 0.000000 0.000000 0.000000 -1.850566
39 9.334718 0.000000 0.000000 -0.842309 0.109948 0.311982
40 4.610092 -0.109559 1.408022 0.217767 -0.010340 -1.857607
41 1.191885 0.000000 0.000000 0.044560 -0.180938 -0.876601
42 0.945938 0.000000 0.000000 0.155228 -0.190276 -1.393021
43 4.605097 0.076364 0.573335 0.139630 -0.069408 -0.865173
44 1.430257 0.000000 0.000000 0.049426 -0.072767 -1.413300
45 1.155767 0.000000 0.000000 0.018371 -0.045481 -0.841346
46 4.454831 -0.076364 -0.573335 0.047705 -0.153456 -0.767483
47 1.426188 0.000000 0.000000 -0.053883 0.078891 -1.553286
48 1.324319 0.000000 0.000000 -0.013612 0.036969 -0.732282
49 4.479149 -0.041050 -1.583407 -0.332628 0.218366 0.154976
50 1.341885 0.000000 0.000000 -0.042633 0.220746 -0.851609
51 1.225945 0.000000 0.000000 0.008155 -0.000000 0.000001
52 2.631822 -0.362328 -1.905043 0.415059 0.423435 -0.720789
53 1.058428 0.000000 0.000000 0.015106 0.038913 0.767157
54 0.778706 0.000000 0.000000 0.004785 0.022541 0.418310
55 4.041916 5.169765 -8.467939 0.230530 -0.328411 -0.226091
56 -0.044717 2.529041 4.661499 -0.005819 0.091190 -0.017839
time 20
1 -0.021154 -0.014471 36.360558 1.570565 -0.000000 -0.746586
2 0.000000 0.000000 0.000000 -0.000000 -0.000000 -0.000000
3 3.890452 -0.000007 -0.000003 -2.211634 -0.286282 -1.274912
4 17.848179 0.000000 0.000000 0.000000 0.000000 0.694019
5 15.637959 0.000000 0.000000 -9.386591 -3.309140 8.193246
6 7.110240 0.000000 0.000000 6.276066 -0.003133 -0.631765
7 -3.890452 0.000003 0.000008 -1.497382 -0.223487 -1.650479
8 17.848181 0.000000 0.000000 0.000000 0.000000 0.691362
9 15.637958 0.000000 0.000000 0.028006 -0.075438 -1.394847
10 7.110240 0.000000 0.000000 6.202033 -0.003133 -0.631765
11 0.000005 3.345127 -2.981901 1.570796 0.086293 1.570796
12 4.018332 0.000000 0.000000 -0.011815 -0.120117 0.193938
13 3.518567 0.000000 0.000000 -0.039222 -0.083510 0.333412
14 8.942634 0.000000 0.000000 -0.078844 0.112914 0.222369
15 3.307272 0.000000 0.000000 3.141591 0.000000 0.400478
16 3.593713 0.000000 0.000000 0.835967 0.157488 0.610686
17 2.033351 1.000771 1.100821 -0.756094 -1.613444 -0.995088
18 6.811800 0.000000 0.000000 -1.493353 -0.487784 -1.087183
19 12.394105 0.000000 0.000000 0.000000 0.000000 -1.462053
20 9.334690 0.000001 -0.000032 0.470471 -0.321241 0.707737
21 4.610123 -0.122605 -1.406946 -0.513267 0.072291 -1.288224
22 1.191884 0.000000 0.000000 -0.163027 0.224047 -1.466962
23 0.945939 0.000000 0.000000 -0.068871 0.147979 -0.913117
24 4.605128 0.071046 -0.574018 -0.157261 0.007109 -0.685616
25 1.430263 0.000000 0.000000 -0.068563 0.062695 -1.808645
26 1.155766 0.000000 0.000000 -0.005433 0.026725 -0.524005
27 4.454865 -0.071046 0.574018 0.095492 -0.008588 -0.706366
28 1.426183 0.000000 0.000000 0.055915 -0.087980 -1.504213
29 1.324319 0.000000 0.000000 0.009317 -0.033630 -0.575091
30 4.479185 -0.026371 1.583719 0.481659 -0.035384 -1.246107
31 1.341888 0.000000 0.000000 0.023475 -0.208312 -0.755745
32 1.225941 0.000000 0.000000 0.026045 -0.124622 -0.538683
33 2.631852 -0.344645 1.908319 -0.354021 -0.915168 -1.788213
34 1.058429 0.000000 0.000000 -0.001069 -0.012855 0.251002
35 0.778706 0.000000 0.000000 -0.000101 -0.003217 0.062752
36 2.033354 1.000773 -1.100771 -0.035453 1.947899 -1.725979
37 6.811801 0.000000 0.000000 0.984509 0.561985 -0.663050
38 12.394103 0.000000 0.000000 0.000000 0.000000 -1.899972
39 9.334718 0.000000 0.000000 -0.842067 0.065470 0.390440
40 4.610092 -0.109559 1.408022 0.217767 -0.010340 -1.857608
41 1.191885 0.000000 0.000000 0.044560 -0.180938 -0.876601
42 0.945938 0.000000 0.000000 0.155228 -0.190276 -1.393021
43 4.605097 0.076364 0.573335 0.139630 -0.069408 -0.865173
44 1.430257 0.000000 0.000000 0.049426 -0.072767 -1.413300
45 1.155767 0.000000 0.000000 0.018371 -0.045481 -0.841346
46 4.454831 -0.076364 -0.573335 0.047705 -0.153456 -0.767483
47 1.426188 0.000000 0.000000 -0.053883 0.078891 -1.553286
48 1.324319 0.000000 0.000000 -0.013612 0.036969 -0.732283
49 4.479149 -0.041050 -1.583407 -0.332628 0.218366 0.154976
50 1.341885 0.000000 0.000000 -0.042633 0.220746 -0.851609
51 1.225945 0.000000 0.000000 0.008155 -0.000000 0.000001
52 2.631822 -0.362328 -1.905043 0.415059 0.423435 -0.720789
53 1.058428 0.000000 0.000000 0.015106 0.038913 0.767157
54 0.778706 0.000000 0.000000 0.004786 0.022541 0.418310
55 4.041916 5.169765 -8.467939 0.239945 -0.381396 -0.211759
56 -0.044717 2.529041 4.661499 -0.038911 0.037208 0.009879
end
