// Created by Crowbar 0.71
version 1
nodes
  0 "Dummy (Root)" -1
  1 "Eye1 Base" 0
  2 "Eye1a" 1
  3 "Eye1b" 2
  4 "Eye2 Base" 0
  5 "Eye2a" 4
  6 "Eye2b" 5
  7 "Eye3 Base" 0
  8 "Eye3a" 7
  9 "Eye3b" 8
  10 "Pupil Base" 0
  11 "Pupil" 10
  12 "Antenna Base" 0
  13 "Antenna" 12
  14 "BombStart" 0
end
skeleton
  time 0
    0 -4.582171 3.929100 6.965056 0.382209 -0.431596 -0.928820
    1 -8.585938 -4.984375 3.191406 1.570793 -0.000001 -1.570793
    2 0.177163 0.175412 -0.023438 0.000000 0.000000 0.000000
    3 1.426587 0.395289 0.050783 0.000000 0.000000 0.000000
    4 -9.648438 -5.007813 -0.112976 1.570793 -0.000001 -1.570793
    5 0.703058 -0.301795 -0.101566 0.000000 0.000000 0.000000
    6 1.612576 0.466701 -0.019531 0.000000 0.000000 0.000000
    7 -8.085938 -5.156250 -2.917969 1.570793 -0.000001 -1.570793
    8 0.630609 0.108891 0.218756 0.000000 0.000000 0.000000
    9 1.219169 -0.295848 0.175787 0.000000 0.000000 0.000000
    10 0.000000 -5.269412 0.000000 0.000000 0.000000 0.000000
    11 0.000000 -4.156250 0.000000 0.000000 0.000000 0.000000
    12 -2.423828 6.136719 -4.457031 0.000000 0.000000 0.000000
    13 5.277344 -1.930664 -6.394531 0.000000 0.000000 0.000000
    14 9.664063 -9.296875 -1.540039 0.000000 0.000000 0.000000
  time 1
    0 -5.351726 4.554119 7.582263 0.347962 -0.389266 -0.839731
    1 -8.585938 -4.984375 3.191406 1.570793 -0.000001 -1.570793
    2 0.177163 0.175412 -0.023438 0.000000 0.000000 0.000000
    3 1.379710 0.379664 0.054689 0.000000 0.000000 0.000000
    4 -9.648438 -5.007813 -0.112976 1.570793 -0.000001 -1.570793
    5 0.703058 -0.301795 -0.101566 0.000000 0.000000 0.000000
    6 1.612576 0.466701 -0.019531 0.000000 0.000000 0.000000
    7 -8.085938 -5.156250 -2.917969 1.570793 -0.000001 -1.570793
    8 0.630609 0.108891 0.218756 0.000000 0.000000 0.000000
    9 1.219169 -0.295848 0.175787 0.000000 0.000000 0.000000
    10 0.000000 -5.269412 0.000000 -0.021588 0.004278 0.039641
    11 0.000000 -4.156250 0.000000 0.000000 0.000000 0.000000
    12 -2.423828 6.136719 -4.457031 0.000000 0.000000 0.000000
    13 5.277344 -1.930664 -6.394531 0.000000 0.000000 0.000000
    14 9.664063 -9.296875 -1.540039 0.000000 0.000000 0.000000
  time 2
    0 -6.054872 5.128356 8.140873 0.317530 -0.343034 -0.752417
    1 -8.585938 -4.984375 3.191406 1.570793 -0.000001 -1.570793
    2 0.177163 0.175412 -0.023438 0.000000 0.000000 0.000000
    3 1.336740 0.367944 0.054689 0.000000 0.000000 0.000000
    4 -9.648438 -5.007813 -0.112976 1.570793 -0.000001 -1.570793
    5 0.703058 -0.301795 -0.101566 0.000000 0.000000 0.000000
    6 1.612576 0.466701 -0.019531 0.000000 0.000000 0.000000
    7 -8.085938 -5.156250 -2.917969 1.570793 -0.000001 -1.570793
    8 0.630609 0.108891 0.218756 0.000000 0.000000 0.000000
    9 1.219169 -0.295848 0.175787 0.000000 0.000000 0.000000
    10 0.000000 -5.269412 0.000000 -0.048983 0.010942 0.086475
    11 0.000000 -4.156250 0.000000 0.000000 0.000000 0.000000
    12 -2.423828 6.136719 -4.457031 0.000000 0.000000 0.000000
    13 5.277344 -1.930664 -6.394531 0.000000 0.000000 0.000000
    14 9.664063 -9.296875 -1.540039 0.000000 0.000000 0.000000
  time 3
    0 -6.699423 5.651809 8.640889 0.291322 -0.293520 -0.666954
    1 -8.585938 -4.984375 3.191406 1.570793 -0.000001 -1.570793
    2 0.177163 0.175412 -0.023438 0.000000 0.000000 0.000000
    3 1.301583 0.356225 0.054689 0.000000 0.000000 0.000000
    4 -9.648438 -5.007813 -0.112976 1.570793 -0.000001 -1.570793
    5 0.703058 -0.301795 -0.101566 0.000000 0.000000 0.000000
    6 1.612576 0.466701 -0.019531 0.000000 0.000000 0.000000
    7 -8.085938 -5.156250 -2.917969 1.570793 -0.000001 -1.570793
    8 0.630609 0.108891 0.218756 0.000000 0.000000 0.000000
    9 1.219169 -0.295848 0.175787 0.000000 0.000000 0.000000
    10 0.000000 -5.269412 0.000000 -0.079380 0.019894 0.137234
    11 0.000000 -4.156250 0.000000 0.000000 0.000000 0.000000
    12 -2.423828 6.136719 -4.457031 0.000000 0.000000 0.000000
    13 5.277344 -1.930664 -6.394531 0.000000 0.000000 0.000000
    14 9.664063 -9.296875 -1.540039 0.000000 0.000000 0.000000
  time 4
    0 -7.277566 6.120573 9.082308 0.269625 -0.241412 -0.583496
    1 -8.585938 -4.984375 3.191406 1.570793 -0.000001 -1.570793
    2 0.177163 0.175412 -0.023438 0.000000 0.000000 0.000000
    3 1.274238 0.348413 0.058596 0.000000 0.000000 0.000000
    4 -9.648438 -5.007813 -0.112976 1.570793 -0.000001 -1.570793
    5 0.703058 -0.301795 -0.101566 0.000000 0.000000 0.000000
    6 1.612576 0.466701 -0.019531 0.000000 0.000000 0.000000
    7 -8.085938 -5.156250 -2.917969 1.570793 -0.000001 -1.570793
    8 0.630609 0.108891 0.218756 0.000000 0.000000 0.000000
    9 1.219169 -0.295848 0.175787 0.000000 0.000000 0.000000
    10 0.000000 -5.269412 0.000000 -0.110125 0.030669 0.188747
    11 0.000000 -4.156250 0.000000 0.000000 0.000000 0.000000
    12 -2.423828 6.136719 -4.457031 0.000000 0.000000 0.000000
    13 5.277344 -1.930664 -6.394531 0.000000 0.000000 0.000000
    14 9.664063 -9.296875 -1.540039 0.000000 0.000000 0.000000
  time 5
    0 -7.793207 6.538555 9.465133 0.252482 -0.187374 -0.501889
    1 -8.585938 -4.984375 3.191406 1.570793 -0.000001 -1.570793
    2 0.177163 0.175412 -0.023438 0.000000 0.000000 0.000000
    3 1.254706 0.344506 0.058596 0.000000 0.000000 0.000000
    4 -9.648438 -5.007813 -0.112976 1.570793 -0.000001 -1.570793
    5 0.703058 -0.301795 -0.101566 0.000000 0.000000 0.000000
    6 1.612576 0.466701 -0.019531 0.000000 0.000000 0.000000
    7 -8.085938 -5.156250 -2.917969 1.570793 -0.000001 -1.570793
    8 0.630609 0.108891 0.218756 0.000000 0.000000 0.000000
    9 1.219169 -0.295848 0.175787 0.000000 0.000000 0.000000
    10 0.000000 -5.269412 0.000000 -0.138661 0.042342 0.237896
    11 0.000000 -4.156250 0.000000 0.000000 0.000000 0.000000
    12 -2.423828 6.136719 -4.457031 0.000000 0.000000 0.000000
    13 5.277344 -1.930664 -6.394531 0.000000 0.000000 0.000000
    14 9.664063 -9.296875 -1.540039 0.000000 0.000000 0.000000
  time 6
    0 -8.246345 6.901847 9.789361 0.240054 -0.132178 -0.421902
    1 -8.585938 -4.984375 3.191406 1.570793 -0.000001 -1.570793
    2 0.177163 0.175412 -0.023438 0.000000 0.000000 0.000000
    3 1.239081 0.340600 0.058596 0.000000 0.000000 0.000000
    4 -9.648438 -5.007813 -0.112976 1.570793 -0.000001 -1.570793
    5 0.703058 -0.301795 -0.101566 0.000000 0.000000 0.000000
    6 1.612576 0.466701 -0.019531 0.000000 0.000000 0.000000
    7 -8.085938 -5.156250 -2.917969 1.570793 -0.000001 -1.570793
    8 0.630609 0.108891 0.218756 0.000000 0.000000 0.000000
    9 1.219169 -0.295848 0.175787 0.000000 0.000000 0.000000
    10 0.000000 -5.269412 0.000000 -0.162581 0.053595 0.281712
    11 0.000000 -4.156250 0.000000 0.000000 0.000000 0.000000
    12 -2.423828 6.136719 -4.457031 0.000000 0.000000 0.000000
    13 5.277344 -1.930664 -6.394531 0.000000 0.000000 0.000000
    14 9.664063 -9.296875 -1.540039 0.000000 0.000000 0.000000
  time 7
    0 -8.633076 7.214357 10.054994 0.232221 -0.076554 -0.343304
    1 -8.585938 -4.984375 3.191406 1.570793 -0.000001 -1.570793
    2 0.177163 0.175412 -0.023438 0.000000 0.000000 0.000000
    3 1.231268 0.336694 0.058596 0.000000 0.000000 0.000000
    4 -9.648438 -5.007813 -0.112976 1.570793 -0.000001 -1.570793
    5 0.703058 -0.301795 -0.101566 0.000000 0.000000 0.000000
    6 1.612576 0.466701 -0.019531 0.000000 0.000000 0.000000
    7 -8.085938 -5.156250 -2.917969 1.570793 -0.000001 -1.570793
    8 0.630609 0.108891 0.218756 0.000000 0.000000 0.000000
    9 1.219169 -0.295848 0.175787 0.000000 0.000000 0.000000
    10 0.000000 -5.269412 0.000000 -0.179703 0.062799 0.317253
    11 0.000000 -4.156250 0.000000 0.000000 0.000000 0.000000
    12 -2.423828 6.136719 -4.457031 0.000000 0.000000 0.000000
    13 5.277344 -1.930664 -6.394531 0.000000 0.000000 0.000000
    14 9.664063 -9.296875 -1.540039 0.000000 0.000000 0.000000
  time 8
    0 -8.957305 7.476084 10.262032 0.228899 -0.021251 -0.265940
    1 -8.585938 -4.984375 3.191406 1.570793 -0.000001 -1.570793
    2 0.177163 0.175412 -0.023438 0.000000 0.000000 0.000000
    3 1.231268 0.336694 0.058596 0.000000 0.000000 0.000000
    4 -9.648438 -5.007813 -0.112976 1.570793 -0.000001 -1.570793
    5 0.703058 -0.301795 -0.101566 0.000000 0.000000 0.000000
    6 1.612576 0.466701 -0.019531 0.000000 0.000000 0.000000
    7 -8.085938 -5.156250 -2.917969 1.570793 -0.000001 -1.570793
    8 0.630609 0.108891 0.218756 0.000000 0.000000 0.000000
    9 1.219169 -0.295848 0.175787 0.000000 0.000000 0.000000
    10 0.000000 -5.269412 0.000000 -0.187892 0.068216 0.341726
    11 0.000000 -4.156250 0.000000 0.000000 0.000000 0.000000
    12 -2.423828 6.136719 -4.457031 0.000000 0.000000 0.000000
    13 5.277344 -1.930664 -6.394531 0.000000 0.000000 0.000000
    14 9.664063 -9.296875 -1.540039 0.000000 0.000000 0.000000
  time 9
    0 -9.219031 7.683121 10.410474 0.230047 0.033023 -0.189501
    1 -8.585938 -4.984375 3.191406 1.570793 -0.000001 -1.570793
    2 0.177163 0.175412 -0.023438 0.000000 0.000000 0.000000
    3 1.239081 0.340600 0.058596 0.000000 0.000000 0.000000
    4 -9.648438 -5.007813 -0.112976 1.570793 -0.000001 -1.570793
    5 0.703058 -0.301795 -0.101566 0.000000 0.000000 0.000000
    6 1.612576 0.466701 -0.019531 0.000000 0.000000 0.000000
    7 -8.085938 -5.156250 -2.917969 1.570793 -0.000001 -1.570793
    8 0.630609 0.108891 0.218756 0.000000 0.000000 0.000000
    9 1.219169 -0.295848 0.175787 0.000000 0.000000 0.000000
    10 0.000000 -5.269412 0.000000 -0.185088 0.068204 0.352190
    11 0.000000 -4.156250 0.000000 0.000000 0.000000 0.000000
    12 -2.423828 6.136719 -4.457031 0.000000 0.000000 0.000000
    13 5.277344 -1.930664 -6.394531 0.000000 0.000000 0.000000
    14 9.664063 -9.296875 -1.540039 0.000000 0.000000 0.000000
  time 10
    0 -9.418256 7.839376 10.504227 0.235461 0.085560 -0.113834
    1 -8.585938 -4.984375 3.191406 1.570793 -0.000001 -1.570793
    2 0.177163 0.175412 -0.023438 0.000000 0.000000 0.000000
    3 1.254706 0.344506 0.058596 0.000000 0.000000 0.000000
    4 -9.648438 -5.007813 -0.112976 1.570793 -0.000001 -1.570793
    5 0.703058 -0.301795 -0.101566 0.000000 0.000000 0.000000
    6 1.612576 0.466701 -0.019531 0.000000 0.000000 0.000000
    7 -8.085938 -5.156250 -2.917969 1.570793 -0.000001 -1.570793
    8 0.630609 0.108891 0.218756 0.000000 0.000000 0.000000
    9 1.219169 -0.295848 0.175787 0.000000 0.000000 0.000000
    10 0.000000 -5.269412 0.000000 -0.169033 0.061481 0.345600
    11 0.000000 -4.156250 0.000000 0.000000 0.000000 0.000000
    12 -2.423828 6.136719 -4.457031 0.000000 0.000000 0.000000
    13 5.277344 -1.930664 -6.394531 0.000000 0.000000 0.000000
    14 9.664063 -9.296875 -1.540039 0.000000 0.000000 0.000000
  time 11
    0 -9.554979 7.944848 10.535478 0.244894 0.135695 -0.038861
    1 -8.585938 -4.984375 3.191406 1.570793 -0.000001 -1.570793
    2 0.177163 0.175412 -0.023438 0.000000 0.000000 0.000000
    3 1.274238 0.348413 0.058596 0.000000 0.000000 0.000000
    4 -9.648438 -5.007813 -0.112976 1.570793 -0.000001 -1.570793
    5 0.703058 -0.301795 -0.101566 0.000000 0.000000 0.000000
    6 1.612576 0.466701 -0.019531 0.000000 0.000000 0.000000
    7 -8.085938 -5.156250 -2.917969 1.570793 -0.000001 -1.570793
    8 0.630609 0.108891 0.218756 0.000000 0.000000 0.000000
    9 1.219169 -0.295848 0.175787 0.000000 0.000000 0.000000
    10 0.000000 -5.269412 0.000000 -0.131018 0.045781 0.318510
    11 0.000000 -4.156250 0.000000 0.000000 0.000000 0.000000
    12 -2.423828 6.136719 -4.457031 0.000000 0.000000 0.000000
    13 5.277344 -1.930664 -6.394531 0.000000 0.000000 0.000000
    14 9.664063 -9.296875 -1.540039 0.000000 0.000000 0.000000
  time 12
    0 -9.625294 7.995631 10.508133 0.258101 0.182807 0.035573
    1 -8.585938 -4.984375 3.191406 1.570793 -0.000001 -1.570793
    2 0.177163 0.175412 -0.023438 0.000000 0.000000 0.000000
    3 1.301583 0.356225 0.054689 0.000000 0.000000 0.000000
    4 -9.648438 -5.007813 -0.112976 1.570793 -0.000001 -1.570793
    5 0.703058 -0.301795 -0.101566 0.000000 0.000000 0.000000
    6 1.612576 0.466701 -0.019531 0.000000 0.000000 0.000000
    7 -8.085938 -5.156250 -2.917969 1.570793 -0.000001 -1.570793
    8 0.630609 0.108891 0.218756 0.000000 0.000000 0.000000
    9 1.219169 -0.295848 0.175787 0.000000 0.000000 0.000000
    10 0.000000 -5.269412 0.000000 -0.068114 0.022771 0.271273
    11 0.000000 -4.156250 0.000000 0.000000 0.000000 0.000000
    12 -2.423828 6.136719 -4.457031 0.000000 0.000000 0.000000
    13 5.277344 -1.930664 -6.394531 0.000000 0.000000 0.000000
    14 9.664063 -9.296875 -1.540039 0.000000 0.000000 0.000000
  time 13
    0 -9.637013 7.995631 10.422193 0.274670 0.226273 0.109234
    1 -8.585938 -4.984375 3.191406 1.570793 -0.000001 -1.570793
    2 0.177163 0.175412 -0.023438 0.000000 0.000000 0.000000
    3 1.336740 0.367944 0.054689 0.000000 0.000000 0.000000
    4 -9.648438 -5.007813 -0.112976 1.570793 -0.000001 -1.570793
    5 0.703058 -0.301795 -0.101566 0.000000 0.000000 0.000000
    6 1.612576 0.466701 -0.019531 0.000000 0.000000 0.000000
    7 -8.085938 -5.156250 -2.917969 1.570793 -0.000001 -1.570793
    8 0.630609 0.108891 0.218756 0.000000 0.000000 0.000000
    9 1.219169 -0.295848 0.175787 0.000000 0.000000 0.000000
    10 0.000000 -5.269412 0.000000 0.013548 -0.002037 0.206530
    11 0.000000 -4.156250 0.000000 0.000000 0.000000 0.000000
    12 -2.423828 6.136719 -4.457031 0.000000 0.000000 0.000000
    13 5.277344 -1.930664 -6.394531 0.000000 0.000000 0.000000
    14 9.664063 -9.296875 -1.540039 0.000000 0.000000 0.000000
  time 14
    0 -9.582324 7.940941 10.277657 0.294234 0.265622 0.182048
    1 -8.585938 -4.984375 3.191406 1.570793 -0.000001 -1.570793
    2 0.177163 0.175412 -0.023438 0.000000 0.000000 0.000000
    3 1.379710 0.379664 0.054689 0.000000 0.000000 0.000000
    4 -9.648438 -5.007813 -0.112976 1.570793 -0.000001 -1.570793
    5 0.703058 -0.301795 -0.101566 0.000000 0.000000 0.000000
    6 1.612576 0.466701 -0.019531 0.000000 0.000000 0.000000
    7 -8.085938 -5.156250 -2.917969 1.570793 -0.000001 -1.570793
    8 0.630609 0.108891 0.218756 0.000000 0.000000 0.000000
    9 1.219169 -0.295848 0.175787 0.000000 0.000000 0.000000
    10 0.000000 -5.269412 0.000000 0.107519 -0.023442 0.127575
    11 0.000000 -4.156250 0.000000 0.000000 0.000000 0.000000
    12 -2.423828 6.136719 -4.457031 0.000000 0.000000 0.000000
    13 5.277344 -1.930664 -6.394531 0.000000 0.000000 0.000000
    14 9.664063 -9.296875 -1.540039 0.000000 0.000000 0.000000
  time 15
    0 -9.465133 7.835470 10.074526 0.316176 0.300382 0.253627
    1 -8.585938 -4.984375 3.191406 1.570793 -0.000001 -1.570793
    2 0.177163 0.175412 -0.023438 0.000000 0.000000 0.000000
    3 1.426587 0.395289 0.050783 0.000000 0.000000 0.000000
    4 -9.648438 -5.007813 -0.112976 1.570793 -0.000001 -1.570793
    5 0.703058 -0.301795 -0.101566 0.000000 0.000000 0.000000
    6 1.612576 0.466701 -0.019531 0.000000 0.000000 0.000000
    7 -8.085938 -5.156250 -2.917969 1.570793 -0.000001 -1.570793
    8 0.630609 0.108891 0.218756 0.000000 0.000000 0.000000
    9 1.219169 -0.295848 0.175787 0.000000 0.000000 0.000000
    10 0.000000 -5.269412 0.000000 0.206651 -0.037380 0.038861
    11 0.000000 -4.156250 0.000000 0.000000 0.000000 0.000000
    12 -2.423828 6.136719 -4.457031 0.000000 0.000000 0.000000
    13 5.277344 -1.930664 -6.394531 0.000000 0.000000 0.000000
    14 9.664063 -9.296875 -1.540039 0.000000 0.000000 0.000000
  time 16
    0 -9.215125 7.624526 9.742485 0.343574 0.327015 0.326595
    1 -8.585938 -4.984375 3.191406 1.570793 -0.000001 -1.570793
    2 0.212320 0.187131 -0.023438 0.000000 0.000000 0.000000
    3 1.481276 0.410915 0.050783 0.000000 0.000000 0.000000
    4 -9.648438 -5.007813 -0.112976 1.570793 -0.000001 -1.570793
    5 0.703058 -0.301795 -0.101566 0.000000 0.000000 0.000000
    6 1.612576 0.466701 -0.019531 0.000000 0.000000 0.000000
    7 -8.085938 -5.156250 -2.917969 1.570793 -0.000001 -1.570793
    8 0.630609 0.108891 0.218756 0.000000 0.000000 0.000000
    9 1.219169 -0.295848 0.175787 0.000000 0.000000 0.000000
    10 0.000000 -5.269412 0.000000 0.303078 -0.041766 -0.054330
    11 0.000000 -4.156250 0.000000 0.000000 0.000000 0.000000
    12 -2.423828 6.136719 -4.457031 0.000000 0.000000 0.000000
    13 5.277344 -1.930664 -6.394531 0.000000 0.000000 0.000000
    14 9.664063 -9.296875 -1.540039 0.000000 0.000000 0.000000
  time 17
    0 -8.785424 7.257327 9.234657 0.376221 0.342347 0.400180
    1 -8.585938 -4.984375 3.191406 1.570793 -0.000001 -1.570793
    2 0.309979 0.210569 -0.023438 0.000000 0.000000 0.000000
    3 1.543778 0.426540 0.046877 0.000000 0.000000 0.000000
    4 -9.648438 -5.007813 -0.112976 1.570793 -0.000001 -1.570793
    5 0.703058 -0.301795 -0.101566 0.000000 0.000000 0.000000
    6 1.612576 0.466701 -0.019531 0.000000 0.000000 0.000000
    7 -8.085938 -5.156250 -2.917969 1.570793 -0.000001 -1.570793
    8 0.630609 0.108891 0.218756 0.000000 0.000000 0.000000
    9 1.219169 -0.295848 0.175787 0.000000 0.000000 0.000000
    10 0.000000 -5.269412 0.000000 0.388712 -0.036901 -0.146415
    11 0.000000 -4.156250 0.000000 0.000000 0.000000 0.000000
    12 -2.423828 6.136719 -4.457031 0.000000 0.000000 0.000000
    13 5.277344 -1.930664 -6.394531 0.000000 0.000000 0.000000
    14 9.664063 -9.296875 -1.540039 0.000000 0.000000 0.000000
  time 18
    0 -8.203375 6.769031 8.578387 0.408417 0.347408 0.468288
    1 -8.585938 -4.984375 3.191406 1.570793 -0.000001 -1.570793
    2 0.458421 0.245727 -0.019532 0.000000 0.000000 0.000000
    3 1.614092 0.449978 0.046877 0.000000 0.000000 0.000000
    4 -9.648438 -5.007813 -0.112976 1.570793 -0.000001 -1.570793
    5 0.703058 -0.301795 -0.101566 0.000000 0.000000 0.000000
    6 1.612576 0.466701 -0.019531 0.000000 0.000000 0.000000
    7 -8.085938 -5.156250 -2.917969 1.570793 -0.000001 -1.570793
    8 0.642328 0.104985 0.218756 0.000000 0.000000 0.000000
    9 1.219169 -0.295848 0.175787 0.000000 0.000000 0.000000
    10 0.000000 -5.269412 0.000000 0.455734 -0.025359 -0.231985
    11 0.000000 -4.156250 0.000000 0.000000 0.000000 0.000000
    12 -2.423828 6.136719 -4.457031 0.000000 0.000000 0.000000
    13 5.277344 -1.930664 -6.394531 0.000000 0.000000 0.000000
    14 9.664063 -9.296875 -1.540039 0.000000 0.000000 0.000000
  time 19
    0 -7.500229 6.179169 7.804926 0.434830 0.344213 0.525212
    1 -8.585938 -4.984375 3.191406 1.570793 -0.000001 -1.570793
    2 0.649833 0.292603 -0.019532 0.000000 0.000000 0.000000
    3 1.688313 0.469510 0.042970 0.000000 0.000000 0.000000
    4 -9.648438 -5.007813 -0.112976 1.570793 -0.000001 -1.570793
    5 0.703058 -0.301795 -0.101566 0.000000 0.000000 0.000000
    6 1.612576 0.466701 -0.019531 0.000000 0.000000 0.000000
    7 -8.085938 -5.156250 -2.917969 1.570793 -0.000001 -1.570793
    8 0.681392 0.089359 0.214850 0.000000 0.000000 0.000000
    9 1.230888 -0.303661 0.175787 0.000000 0.000000 0.000000
    10 0.000000 -5.269412 0.000000 0.496975 -0.011385 -0.306236
    11 0.000000 -4.156250 0.000000 0.000000 0.000000 0.000000
    12 -2.423828 6.136719 -4.457031 0.000000 0.000000 0.000000
    13 5.277344 -1.930664 -6.394531 0.000000 0.000000 0.000000
    14 9.664063 -9.296875 -1.540039 0.000000 0.000000 0.000000
  time 20
    0 -6.703330 5.515086 6.945524 0.450661 0.335421 0.565321
    1 -8.585938 -4.984375 3.191406 1.570793 -0.000001 -1.570793
    2 0.872496 0.351199 -0.015626 0.000000 0.000000 0.000000
    3 1.770347 0.496855 0.039064 0.000000 0.000000 0.000000
    4 -9.648438 -5.007813 -0.112976 1.570793 -0.000001 -1.570793
    5 0.703058 -0.301795 -0.101566 0.000000 0.000000 0.000000
    6 1.612576 0.466701 -0.019531 0.000000 0.000000 0.000000
    7 -8.085938 -5.156250 -2.917969 1.570793 -0.000001 -1.570793
    8 0.751707 0.065921 0.207037 0.000000 0.000000 0.000000
    9 1.266045 -0.323193 0.171880 0.000000 0.000000 0.000000
    10 0.000000 -5.269412 0.000000 0.506132 0.000000 -0.364766
    11 0.000000 -4.156250 0.000000 0.000000 0.000000 0.000000
    12 -2.423828 6.136719 -4.457031 0.000000 0.000000 0.000000
    13 5.277344 -1.930664 -6.394531 0.000000 0.000000 0.000000
    14 9.664063 -9.296875 -1.540039 0.000000 0.000000 0.000000
  time 21
    0 -5.843928 4.796314 6.023621 0.451768 0.323820 0.583833
    1 -8.585938 -4.984375 3.191406 1.570793 -0.000001 -1.570793
    2 1.122504 0.413700 -0.015626 0.000000 0.000000 0.000000
    3 1.864100 0.520293 0.035157 0.000000 0.000000 0.000000
    4 -9.648438 -5.007813 -0.112976 1.570793 -0.000001 -1.570793
    5 0.703058 -0.301795 -0.101566 0.000000 0.000000 0.000000
    6 1.612576 0.466701 -0.019531 0.000000 0.000000 0.000000
    7 -8.085938 -5.156250 -2.917969 1.570793 -0.000001 -1.570793
    8 0.845460 0.030764 0.199224 0.000000 0.000000 0.000000
    9 1.320734 -0.350537 0.167974 0.000000 0.000000 0.000000
    10 0.000000 -5.269412 0.000000 0.425511 -0.000348 -0.406847
    11 0.000000 -4.156250 0.000000 0.000000 0.000000 0.000000
    12 -2.423828 6.136719 -4.457031 0.000000 0.000000 0.000000
    13 5.277344 -1.930664 -6.394531 0.000000 0.000000 0.000000
    14 9.664063 -9.296875 -1.540039 0.000000 0.000000 0.000000
  time 22
    0 -4.949370 4.046291 5.074374 0.434583 0.311619 0.576120
    1 -8.585938 -4.984375 3.191406 1.570793 -0.000001 -1.570793
    2 1.384231 0.476202 -0.011719 0.000000 0.000000 0.000000
    3 1.957853 0.551544 0.035157 0.000000 0.000000 0.000000
    4 -9.648438 -5.007813 -0.112976 1.570793 -0.000001 -1.570793
    5 0.703058 -0.301795 -0.101566 0.000000 0.000000 0.000000
    6 1.612576 0.466701 -0.019531 0.000000 0.000000 0.000000
    7 -8.085938 -5.156250 -2.917969 1.570793 -0.000001 -1.570793
    8 0.966557 -0.016113 0.187505 0.000000 0.000000 0.000000
    9 1.398862 -0.393507 0.156255 0.000000 0.000000 0.000000
    10 0.000000 -5.269412 0.000000 0.243351 -0.017306 -0.430491
    11 0.000000 -4.156250 0.000000 0.000000 0.000000 0.000000
    12 -2.423828 6.136719 -4.457031 0.000000 0.000000 0.000000
    13 5.277344 -1.930664 -6.394531 0.000000 0.000000 0.000000
    14 9.664063 -9.296875 -1.540039 0.000000 0.000000 0.000000
  time 23
    0 -4.050905 3.296268 4.129032 0.398327 0.296672 0.540176
    1 -8.585938 -4.984375 3.191406 1.570793 -0.000001 -1.570793
    2 1.653770 0.546517 -0.007813 0.000000 0.000000 0.000000
    3 2.063325 0.578888 0.031251 0.000000 0.000000 0.000000
    4 -9.648438 -5.007813 -0.112976 1.570793 -0.000001 -1.570793
    5 0.703058 -0.301795 -0.101566 0.000000 0.000000 0.000000
    6 1.612576 0.466701 -0.019531 0.000000 0.000000 0.000000
    7 -8.085938 -5.156250 -2.917969 1.570793 -0.000001 -1.570793
    8 1.114999 -0.070802 0.171880 0.000000 0.000000 0.000000
    9 1.500427 -0.448196 0.144536 0.000000 0.000000 0.000000
    10 0.000000 -5.269412 0.000000 0.021687 -0.041682 -0.430566
    11 0.000000 -4.156250 0.000000 0.000000 0.000000 0.000000
    12 -2.423828 6.136719 -4.457031 0.000000 0.000000 0.000000
    13 5.277344 -1.930664 -6.394531 0.000000 0.000000 0.000000
    14 9.664063 -9.296875 -1.540039 0.000000 0.000000 0.000000
  time 24
    0 -3.179785 2.569684 3.211035 0.347716 0.275036 0.481323
    1 -8.585938 -4.984375 3.191406 1.570793 -0.000001 -1.570793
    2 1.915497 0.609019 -0.007813 0.000000 0.000000 0.000000
    3 2.172703 0.614046 0.027345 0.000000 0.000000 0.000000
    4 -9.648438 -5.007813 -0.112976 1.570793 -0.000001 -1.570793
    5 0.703058 -0.301795 -0.101566 0.000000 0.000000 0.000000
    6 1.612576 0.466701 -0.019531 0.000000 0.000000 0.000000
    7 -8.085938 -5.156250 -2.917969 1.570793 -0.000001 -1.570793
    8 1.290786 -0.133304 0.156254 0.000000 0.000000 0.000000
    9 1.621525 -0.518511 0.132817 0.000000 0.000000 0.000000
    10 0.000000 -5.269412 0.000000 -0.178041 -0.059947 -0.408708
    11 0.000000 -4.156250 0.000000 0.000000 0.000000 0.000000
    12 -2.423828 6.136719 -4.457031 0.000000 0.000000 0.000000
    13 5.277344 -1.930664 -6.394531 0.000000 0.000000 0.000000
    14 9.664063 -9.296875 -1.540039 0.000000 0.000000 0.000000
  time 25
    0 -2.359447 1.886069 2.351634 0.287795 0.245465 0.406273
    1 -8.585938 -4.984375 3.191406 1.570793 -0.000001 -1.570793
    2 2.165505 0.671521 -0.003906 0.000000 0.000000 0.000000
    3 2.289894 0.649203 0.023438 0.000000 0.000000 0.000000
    4 -9.648438 -5.007813 -0.112976 1.570793 -0.000001 -1.570793
    5 0.703058 -0.301795 -0.101566 0.000000 0.000000 0.000000
    6 1.612576 0.466701 -0.019531 0.000000 0.000000 0.000000
    7 -8.085938 -5.156250 -2.917969 1.570793 -0.000001 -1.570793
    8 1.493917 -0.207525 0.136722 0.000000 0.000000 0.000000
    9 1.766060 -0.596638 0.117191 0.000000 0.000000 0.000000
    10 0.000000 -5.269412 0.000000 -0.293500 -0.062967 -0.373696
    11 0.000000 -4.156250 0.000000 0.000000 0.000000 0.000000
    12 -2.423828 6.136719 -4.457031 0.000000 0.000000 0.000000
    13 5.277344 -1.930664 -6.394531 0.000000 0.000000 0.000000
    14 9.664063 -9.296875 -1.540039 0.000000 0.000000 0.000000
  time 26
    0 -1.625050 1.268863 1.582080 0.223567 0.207424 0.321581
    1 -8.585938 -4.984375 3.191406 1.570793 -0.000001 -1.570793
    2 2.388168 0.730116 -0.003906 0.000000 0.000000 0.000000
    3 2.414898 0.684360 0.019532 0.000000 0.000000 0.000000
    4 -9.648438 -5.007813 -0.112976 1.570793 -0.000001 -1.570793
    5 0.925721 -0.286169 -0.089847 0.000000 0.000000 0.000000
    6 1.776644 0.497952 -0.019531 0.000000 0.000000 0.000000
    7 -8.085938 -5.156250 -2.917969 1.570793 -0.000001 -1.570793
    8 1.724393 -0.293465 0.113284 0.000000 0.000000 0.000000
    9 1.934034 -0.686485 0.097659 0.000000 0.000000 0.000000
    10 0.000000 -5.269412 0.000000 -0.306701 -0.050767 -0.323189
    11 0.000000 -4.156250 0.000000 0.000000 0.000000 0.000000
    12 -2.423828 6.136719 -4.457031 0.000000 0.000000 0.000000
    13 5.277344 -1.930664 -6.394531 0.000000 0.000000 0.000000
    14 9.664063 -9.296875 -1.540039 0.000000 0.000000 0.000000
  time 27
    0 -1.000031 0.749316 0.933622 0.159462 0.161449 0.233495
    1 -8.585938 -4.984375 3.191406 1.570793 -0.000001 -1.570793
    2 2.579580 0.776993 0.000000 0.000000 0.000000 0.000000
    3 2.547715 0.723424 0.011719 0.000000 0.000000 0.000000
    4 -9.648438 -5.007813 -0.112976 1.570793 -0.000001 -1.570793
    5 1.449175 -0.251012 -0.066409 0.000000 0.000000 0.000000
    6 2.171187 0.579985 -0.011718 0.000000 0.000000 0.000000
    7 -8.085938 -5.156250 -2.917969 1.570793 -0.000001 -1.570793
    8 1.982213 -0.387218 0.089846 0.000000 0.000000 0.000000
    9 2.125446 -0.791957 0.078127 0.000000 0.000000 0.000000
    10 0.000000 -5.269412 0.000000 -0.258140 -0.031268 -0.252610
    11 0.000000 -4.156250 0.000000 0.000000 0.000000 0.000000
    12 -2.423828 6.136719 -4.457031 0.000000 0.000000 0.000000
    13 5.277344 -1.930664 -6.394531 0.000000 0.000000 0.000000
    14 9.664063 -9.296875 -1.540039 0.000000 0.000000 0.000000
  time 28
    0 -0.519547 0.346960 0.433607 0.099254 0.109427 0.147569
    1 -8.585938 -4.984375 3.191406 1.570793 -0.000001 -1.570793
    2 2.728022 0.812150 0.000000 0.000000 0.000000 0.000000
    3 2.684438 0.762488 0.007813 0.000000 0.000000 0.000000
    4 -9.648438 -5.007813 -0.112976 1.570793 -0.000001 -1.570793
    5 2.074194 -0.208042 -0.035158 0.000000 0.000000 0.000000
    6 2.643858 0.673738 -0.007812 0.000000 0.000000 0.000000
    7 -8.085938 -5.156250 -2.917969 1.570793 -0.000001 -1.570793
    8 2.263472 -0.492690 0.062501 0.000000 0.000000 0.000000
    9 2.336390 -0.909148 0.054689 0.000000 0.000000 0.000000
    10 0.000000 -5.269412 0.000000 -0.173078 -0.013591 -0.169354
    11 0.000000 -4.156250 0.000000 0.000000 0.000000 0.000000
    12 -2.423828 6.136719 -4.457031 0.000000 0.000000 0.000000
    13 5.277344 -1.930664 -6.394531 0.000000 0.000000 0.000000
    14 9.664063 -9.296875 -1.540039 0.000000 0.000000 0.000000
  time 29
    0 -0.207038 0.089139 0.113285 0.045525 0.054360 0.068354
    1 -8.585938 -4.984375 3.191406 1.570793 -0.000001 -1.570793
    2 2.825681 0.835588 0.000000 0.000000 0.000000 0.000000
    3 2.832880 0.805458 0.003907 0.000000 0.000000 0.000000
    4 -9.648438 -5.007813 -0.112976 1.570793 -0.000001 -1.570793
    5 2.597647 -0.168978 -0.007813 0.000000 0.000000 0.000000
    6 3.038401 0.755772 0.000001 0.000000 0.000000 0.000000
    7 -8.085938 -5.156250 -2.917969 1.570793 -0.000001 -1.570793
    8 2.575981 -0.605974 0.031250 0.000000 0.000000 0.000000
    9 2.570772 -1.038058 0.027345 0.000000 0.000000 0.000000
    10 0.000000 -5.269412 0.000000 -0.077966 -0.003284 -0.081948
    11 0.000000 -4.156250 0.000000 0.000000 0.000000 0.000000
    12 -2.423828 6.136719 -4.457031 0.000000 0.000000 0.000000
    13 5.277344 -1.930664 -6.394531 0.000000 0.000000 0.000000
    14 9.664063 -9.296875 -1.540039 0.000000 0.000000 0.000000
  time 30
    0 -0.097659 0.003199 0.000000 0.000000 0.000000 -0.000063
    1 -8.585938 -4.984375 3.191406 1.570793 -0.000001 -1.570793
    2 2.856932 0.843401 0.000000 0.000000 0.000000 0.000000
    3 2.981322 0.848428 0.000000 0.000000 0.000000 0.000000
    4 -9.648438 -5.007813 -0.112976 1.570793 -0.000001 -1.570793
    5 2.816404 -0.157259 0.000000 0.000000 0.000000 0.000000
    6 3.198562 0.787023 0.000001 0.000000 0.000000 0.000000
    7 -8.085938 -5.156250 -2.917969 1.570793 -0.000001 -1.570793
    8 2.911929 -0.727072 -0.000001 0.000000 0.000000 0.000000
    9 2.824686 -1.174781 0.000000 0.000000 0.000000 0.000000
    10 0.000000 -5.269412 0.000000 0.000000 0.000000 0.000000
    11 0.000000 -4.156250 0.000000 0.000000 0.000000 0.000000
    12 -2.423828 6.136719 -4.457031 0.000000 0.000000 0.000000
    13 5.277344 -1.930664 -6.394531 0.000000 0.000000 0.000000
    14 9.664063 -9.296875 -1.540039 0.000000 0.000000 0.000000
end
