version 1
nodes
0 "HeadcrabClassic.Headcrab_Classic_mesh" -1
1 "HeadcrabClassic.BodyControl" -1
2 "HeadcrabClassic.SpineControl" 1
3 "HeadcrabClassic.HeadControl" 2
4 "HeadcrabClassic.FangL_Bone1" 3
5 "HeadcrabClassic.FangL_Bone2" 4
6 "HeadcrabClassic.FangR_Bone1" 3
7 "HeadcrabClassic.FangR_Bone2" 6
8 "HeadcrabClassic.HoleControlL" 2
9 "HeadcrabClassic.HoleControlR" 2
10 "HeadcrabClassic.UpperArmL_Bone" 2
11 "HeadcrabClassic.ForeArmL_Bone" 10
12 "HeadcrabClassic.UpperArmR_Bone" 2
13 "HeadcrabClassic.ForeArmR_Bone" 12
14 "HeadcrabClassic.HipControl" 1
15 "HeadcrabClassic.ThighR_Bone" 14
16 "HeadcrabClassic.CalfR_Bone" 15
17 "HeadcrabClassic.FootControlR" 16
18 "HeadcrabClassic.ThighL_Bone" 14
19 "HeadcrabClassic.CalfL_Bone" 18
20 "HeadcrabClassic.FootControlL" 19
end
skeleton
time 0
0 0.000000 0.000000 0.000000 1.570796 0.000000 0.000000
1 0.000002 8.693038 9.815958 1.574117 -0.011810 -1.541821
2 5.836933 -0.820595 0.000175 -0.014637 -0.103696 0.000761
3 3.707160 -1.779551 -0.001620 -0.000000 -0.000000 -0.000070
4 1.884797 0.225918 -3.244098 -0.856194 -0.128614 -1.738886
5 3.698876 0.000000 0.000000 0.000000 0.000000 -0.664085
6 1.884668 0.225917 3.247675 -2.285359 0.128620 -1.738881
7 3.698876 0.000000 0.000000 0.000000 0.000000 0.664085
8 -1.946881 -4.609466 -3.642439 0.014630 0.103696 0.000689
9 -1.169277 -4.718848 3.830231 0.014630 0.103696 0.000689
10 2.630715 -3.155085 -5.016712 0.100879 0.154911 0.108768
11 8.255675 0.000000 0.000000 0.000000 0.000000 -1.119823
12 2.630415 -3.155085 5.016869 3.086007 -0.001696 0.034423
13 8.255674 0.000000 0.000000 0.000000 0.000000 0.944319
14 -0.450924 -0.675699 0.000000 -0.003320 -0.029014 -0.011757
15 0.000009 0.000000 6.164912 0.215387 -2.849293 0.990678
16 6.098812 0.000000 0.000000 0.000000 0.000000 -0.865629
17 3.401651 0.000000 0.000000 -2.781140 -0.024452 -1.257959
18 -0.000009 0.000000 -6.164912 -0.215489 2.846758 0.991775
19 6.098812 0.000000 0.000000 0.000000 0.000000 -0.861691
20 3.401651 0.000000 0.000000 2.779003 0.023628 -1.260381
time 1
1 -0.036515 9.448349 9.904785 1.540034 -0.892749 -1.526743
2 5.836933 -0.820595 0.000175 0.069547 -0.078364 -0.866666
3 3.707160 -1.779551 -0.001620 0.000009 0.000002 -0.480035
4 1.884797 0.225918 -3.244098 -0.724790 -0.059270 -1.883171
5 3.698876 0.000000 0.000000 0.000000 0.000000 -1.387642
6 1.884668 0.225917 3.247675 -2.375165 0.057284 -1.813390
7 3.698876 0.000000 0.000000 0.000000 0.000000 1.482957
8 2.356769 -4.372247 -1.640028 -0.011752 0.108418 0.862220
9 2.733094 -4.037726 2.178645 0.026084 0.108228 0.865669
10 2.630715 -3.155085 -5.016712 -2.902910 -0.132874 -1.522464
11 8.255675 0.000000 0.000000 0.000000 0.000000 0.000000
12 2.630415 -3.155085 5.016869 -2.554014 0.076047 -1.467241
13 8.255674 0.000000 0.000000 0.000000 0.000000 0.000000
14 -0.450924 -0.675699 0.000000 -0.004624 -0.027470 0.038875
15 0.000009 0.000000 6.164912 0.310929 2.782835 0.017607
16 6.098812 0.000000 0.000000 0.000000 0.000000 -0.319059
17 3.401651 0.000000 0.000000 2.803517 -0.370936 -0.318561
18 -0.000009 0.000000 -6.164912 -0.285847 -2.894634 -0.246927
19 6.098812 0.000000 0.000000 0.000000 0.000000 -0.618347
20 3.401651 0.000000 0.000000 -2.872261 0.430802 0.011040
time 2
1 -0.078342 9.690299 9.783257 1.503398 -1.200442 -1.494703
2 5.836933 -0.820595 0.000175 0.085265 -0.060891 -1.091537
3 3.707160 -1.779551 -0.001620 0.000014 0.000006 -0.779214
4 1.884797 0.225918 -3.244098 -0.527896 -0.227148 -2.197132
5 3.698876 0.000000 0.000000 0.000000 0.000000 -1.394310
6 1.884668 0.225917 3.247675 0.656259 2.928514 1.119740
7 3.698876 0.000000 0.000000 0.000000 0.000000 1.593231
8 3.284754 -3.720033 -1.253145 -0.038140 0.113071 1.084690
9 3.550785 -3.345909 1.864961 0.037568 0.112741 1.091765
10 2.630715 -3.155085 -5.016712 0.057323 -2.881162 1.129012
11 8.255675 0.000000 0.000000 0.000000 0.000000 0.000000
12 2.630415 -3.155085 5.016869 0.723931 0.144218 -2.052073
13 8.255674 0.000000 0.000000 0.000000 0.000000 0.000000
14 -0.450924 -0.675699 0.000000 -0.005077 -0.027279 0.055693
15 0.000009 0.000000 6.164912 0.207216 2.602536 -0.479517
16 6.098812 0.000000 0.000000 0.000000 0.000000 -0.676263
17 3.401651 0.000000 0.000000 2.585528 -0.151346 0.118075
18 -0.000009 0.000000 -6.164912 -0.193104 -2.688836 -0.570957
19 6.098812 0.000000 0.000000 0.000000 0.000000 -0.840940
20 3.401651 0.000000 0.000000 -2.756272 0.162845 0.391082
time 3
1 -0.121496 9.796919 9.696693 1.443135 -1.362646 -1.436719
2 5.836933 -0.820595 0.000175 0.083212 -0.063669 -1.058575
3 3.707160 -1.779551 -0.001620 0.000015 0.000007 -0.846555
4 1.884797 0.225918 -3.244098 -0.477450 -0.284853 -2.272255
5 3.698876 0.000000 0.000000 0.000000 0.000000 -1.419772
6 1.884668 0.225917 3.247675 0.592171 2.858026 0.997145
7 3.698876 0.000000 0.000000 0.000000 0.000000 1.466518
8 3.147728 -3.842233 -1.640005 0.014603 0.103712 1.056611
9 3.453307 -3.442030 2.178667 0.014603 0.103712 1.056611
10 2.630715 -3.155085 -5.016712 -1.758586 -0.258010 -2.266119
11 8.255675 0.000000 0.000000 0.000000 0.000000 0.000000
12 2.630415 -3.155085 5.016869 0.755798 2.967414 0.891321
13 8.255674 0.000000 0.000000 0.000000 0.000000 0.000000
14 -0.450924 -0.675699 0.000000 -0.004835 -0.027433 0.046585
15 0.000009 0.000000 6.164912 0.100474 2.563996 -0.740977
16 6.098812 0.000000 0.000000 0.000000 0.000000 -1.092289
17 3.401651 0.000000 0.000000 2.504914 -0.091839 0.378681
18 -0.000009 0.000000 -6.164912 -0.151249 -2.636834 -0.450716
19 6.098812 0.000000 0.000000 0.000000 0.000000 -1.235258
20 3.401651 0.000000 0.000000 -2.758652 0.199005 0.507218
time 4
1 -0.161995 9.870315 9.619092 1.238201 -1.481135 -1.233077
2 5.836933 -0.820595 0.000175 0.063803 -0.094812 -0.760899
3 3.707160 -1.779551 -0.001620 0.000009 0.000002 -0.485336
4 1.884797 0.225918 -3.244098 -0.544094 -0.263205 -2.190599
5 3.698876 0.000000 0.000000 0.000000 0.000000 -1.430270
6 1.884668 0.225917 3.247675 0.609667 2.873993 1.009254
7 3.698876 0.000000 0.000000 0.000000 0.000000 1.359093
8 1.888174 -4.582839 -1.963674 0.163007 0.085801 0.769651
9 2.327827 -4.286942 2.399556 -0.043605 0.087724 0.753988
10 2.630715 -3.155085 -5.016712 -1.030008 -0.287148 -2.463659
11 8.255675 0.000000 0.000000 0.000000 0.000000 0.000000
12 2.630415 -3.155085 5.016869 0.987560 2.909333 0.728852
13 8.255674 0.000000 0.000000 0.000000 0.000000 0.000000
14 -0.450924 -0.675699 0.000000 -0.005333 -0.029445 0.049684
15 0.000009 0.000000 6.164912 0.022995 2.515164 -0.918531
16 6.098812 0.000000 0.000000 0.000000 0.000000 -1.259151
17 3.401651 0.000000 0.000000 2.477118 -0.007651 0.441653
18 -0.000009 0.000000 -6.164912 -0.103185 -2.577851 -0.537155
19 6.098812 0.000000 0.000000 0.000000 0.000000 -1.364116
20 3.401651 0.000000 0.000000 -2.735377 0.072130 0.553021
time 5
1 -0.195855 9.940448 9.523607 -1.017922 -1.510049 1.021280
2 5.836933 -0.820595 0.000175 0.023076 -0.121757 -0.345384
3 3.707160 -1.779551 -0.001620 -0.000001 -0.000000 0.038005
4 1.884797 0.225918 -3.244098 -0.665438 -0.171205 -2.005729
5 3.698876 0.000000 0.000000 0.000000 0.000000 -1.463473
6 1.884668 0.225917 3.247675 -2.446344 0.191011 -1.993737
7 3.698876 0.000000 0.000000 0.000000 0.000000 1.360505
8 -0.087637 -4.948836 -2.480657 0.346508 0.059544 0.363807
9 0.467951 -4.847307 2.793197 -0.122920 0.065327 0.336243
10 2.630715 -3.155085 -5.016712 -0.968174 0.202478 -1.941722
11 8.255675 0.000000 0.000000 0.000000 0.000000 -1.536778
12 2.630415 -3.155085 5.016869 -2.343996 -0.129440 -2.149407
13 8.255674 0.000000 0.000000 0.000000 0.000000 1.451379
14 -0.450924 -0.675699 0.000000 -0.006373 -0.031347 0.069650
15 0.000009 0.000000 6.164912 -0.068714 2.452073 -1.089338
16 6.098812 0.000000 0.000000 0.000000 0.000000 -1.395148
17 3.401651 0.000000 0.000000 2.447070 0.079432 0.459957
18 -0.000009 0.000000 -6.164912 -0.056001 -2.529142 -0.680479
19 6.098812 0.000000 0.000000 0.000000 0.000000 -1.412986
20 3.401651 0.000000 0.000000 -2.709452 -0.132214 0.430469
time 6
1 -0.219092 9.969970 9.473660 -1.351315 -1.442525 1.353138
2 5.836933 -0.820595 0.000175 -0.010082 -0.104235 -0.043108
3 3.707160 -1.779551 -0.001620 -0.000009 0.000002 0.427536
4 1.884797 0.225918 -3.244098 -0.771501 -0.019511 -1.786139
5 3.698876 0.000000 0.000000 0.000000 0.000000 -1.447418
6 1.884668 0.225917 3.247675 -2.323707 0.037691 -1.726997
7 3.698876 0.000000 0.000000 0.000000 0.000000 1.497555
8 -1.421631 -4.716964 -3.234382 0.546192 -0.000418 0.064458
9 -0.995629 -4.761933 3.331261 -0.216893 0.010243 0.034556
10 2.630715 -3.155085 -5.016712 -0.615788 0.459394 -0.966616
11 8.255675 0.000000 0.000000 0.000000 0.000000 -2.516596
12 2.630415 -3.155085 5.016869 -2.532874 -0.096729 -1.563894
13 8.255674 0.000000 0.000000 0.000000 0.000000 2.281363
14 -0.450924 -0.675699 0.000000 -0.005265 -0.027354 0.062265
15 0.000009 0.000000 6.164912 -0.150246 2.389341 -1.197365
16 6.098812 0.000000 0.000000 0.000000 0.000000 -1.493950
17 3.401651 0.000000 0.000000 2.414801 0.156682 0.452926
18 -0.000009 0.000000 -6.164912 -0.014268 -2.488240 -0.808757
19 6.098812 0.000000 0.000000 0.000000 0.000000 -1.408908
20 3.401651 0.000000 0.000000 -2.667407 -0.348609 0.198484
time 7
1 -0.227722 9.988757 9.437244 -1.520001 -1.380299 1.519966
2 5.836933 -0.820595 0.000175 -0.009847 -0.027121 0.087158
3 3.707160 -1.779551 -0.001620 -0.000011 0.000003 0.553496
4 1.884797 0.225918 -3.244098 -0.831585 0.222903 -1.467203
5 3.698876 0.000000 0.000000 0.000000 0.000000 -1.310736
6 1.884668 0.225917 3.247675 -2.231849 -0.208811 -1.280554
7 3.698876 0.000000 0.000000 0.000000 0.000000 1.597308
8 -1.608686 -4.569171 -4.261105 0.748711 -0.117984 -0.073354
9 -1.852637 -4.549458 3.958017 -0.315218 -0.102954 -0.093701
10 2.630715 -3.155085 -5.016712 -0.002988 0.132399 -0.622114
11 8.255675 0.000000 0.000000 0.000000 0.000000 0.000000
12 2.630415 -3.155085 5.016869 -2.322313 0.129555 -0.821947
13 8.255674 0.000000 0.000000 0.000000 0.000000 0.000000
14 -0.450924 -0.675699 0.000000 -0.001102 -0.009599 0.022931
15 0.000009 0.000000 6.164912 -0.193533 2.349463 -1.224910
16 6.098812 0.000000 0.000000 0.000000 0.000000 -1.550696
17 3.401651 0.000000 0.000000 2.400244 0.210475 0.432407
18 -0.000009 0.000000 -6.164912 0.010032 -2.461051 -0.880373
19 6.098812 0.000000 0.000000 0.000000 0.000000 -1.379535
20 3.401651 0.000000 0.000000 -2.617632 -0.514463 -0.063808
time 8
1 -0.225906 10.007907 9.410509 -1.635233 -1.322685 1.634447
2 5.836933 -0.820595 0.000175 0.008664 0.075815 0.130000
3 3.707160 -1.779551 -0.001620 -0.000010 0.000003 0.545647
4 1.884797 0.225918 -3.244098 -0.775073 0.405388 -1.119525
5 3.698876 0.000000 0.000000 0.000000 0.000000 -1.084969
6 1.884668 0.225917 3.247675 -2.306138 -0.261621 -0.916708
7 3.698876 0.000000 0.000000 0.000000 0.000000 1.108241
8 -1.038591 -4.652263 -5.462096 0.943748 -0.259579 -0.130012
9 -2.528325 -4.376883 4.658679 -0.408883 -0.242098 -0.130008
10 2.630715 -3.155085 -5.016712 -0.064644 0.002222 -0.453699
11 8.255675 0.000000 0.000000 0.000000 0.000000 0.000000
12 2.630415 -3.155085 5.016869 -2.506956 -0.097436 -0.577621
13 8.255674 0.000000 0.000000 0.000000 0.000000 0.000000
14 -0.450924 -0.675699 0.000000 0.002747 0.015617 0.001016
15 0.000009 0.000000 6.164912 -0.182361 2.359900 -1.206291
16 6.098812 0.000000 0.000000 0.000000 0.000000 -1.560423
17 3.401651 0.000000 0.000000 2.435536 0.239530 0.405890
18 -0.000009 0.000000 -6.164912 0.009349 -2.462440 -0.895695
19 6.098812 0.000000 0.000000 0.000000 0.000000 -1.356023
20 3.401651 0.000000 0.000000 -2.609735 -0.593808 -0.233393
time 9
1 -0.220705 10.027603 9.407520 -1.700691 -1.291924 1.700173
2 5.836933 -0.820595 0.000175 0.019318 0.160479 0.124364
3 3.707160 -1.779551 -0.001620 -0.000010 0.000003 0.497349
4 1.884797 0.225918 -3.244098 -0.806554 0.161125 -1.275132
5 3.698876 0.000000 0.000000 0.000000 0.000000 0.000000
6 1.884668 0.225917 3.247675 -2.376382 -0.005880 -1.026351
7 3.698876 0.000000 0.000000 0.000000 0.000000 0.000000
8 -0.543949 -4.719539 -5.476021 0.943174 -0.344909 -0.123055
9 -2.885393 -4.343536 4.478955 -0.409454 -0.327427 -0.123062
10 2.630715 -3.155085 -5.016712 -0.337673 -0.103033 -0.435414
11 8.255675 0.000000 0.000000 0.000000 0.000000 0.000000
12 2.630415 -3.155085 5.016869 -2.855726 -0.209229 -0.463969
13 8.255674 0.000000 0.000000 0.000000 0.000000 0.000000
14 -0.450924 -0.675699 0.000000 0.004984 0.035591 -0.013463
15 0.000009 0.000000 6.164912 -0.103653 2.434039 -1.123028
16 6.098812 0.000000 0.000000 0.000000 0.000000 -1.507925
17 3.401651 0.000000 0.000000 2.537520 0.241986 0.374850
18 -0.000009 0.000000 -6.164912 -0.021572 -2.496338 -0.839279
19 6.098812 0.000000 0.000000 0.000000 0.000000 -1.339039
20 3.401651 0.000000 0.000000 -2.670427 -0.599125 -0.289378
time 10
1 -0.212489 10.054597 9.408422 -1.708262 -1.278321 1.708072
2 5.836933 -0.820595 0.000175 0.013985 0.183778 0.113027
3 3.707160 -1.779551 -0.001620 0.000016 0.006435 0.426388
4 1.884797 0.225918 -3.244098 -0.774156 0.202109 -1.184617
5 3.698876 0.000000 0.000000 0.000000 0.000000 0.000000
6 1.884668 0.225917 3.247675 -2.420134 -0.039615 -0.941786
7 3.698876 0.000000 0.000000 0.000000 0.000000 0.000000
8 -0.362622 -4.706161 -5.502480 0.949679 -0.367456 -0.113767
9 -2.937484 -4.392233 4.396854 -0.402991 -0.349975 -0.113653
10 2.630715 -3.155085 -5.016712 -0.566146 -0.171266 -0.475589
11 8.255675 0.000000 0.000000 0.000000 0.000000 0.000000
12 2.630415 -3.155085 5.016869 -3.007567 -0.233547 -0.434600
13 8.255674 0.000000 0.000000 0.000000 0.000000 0.000000
14 -0.450924 -0.675699 0.000000 0.004786 0.039622 -0.029402
15 0.000009 0.000000 6.164912 0.012646 2.555524 -0.975756
16 6.098812 0.000000 0.000000 0.000000 0.000000 -1.400733
17 3.401651 0.000000 0.000000 2.681047 0.225398 0.347577
18 -0.000009 0.000000 -6.164912 -0.070938 -2.551433 -0.728310
19 6.098812 0.000000 0.000000 0.000000 0.000000 -1.314507
20 3.401651 0.000000 0.000000 -2.772159 -0.571396 -0.310834
time 11
1 -0.201630 10.087102 9.411036 -1.677863 -1.260296 1.678032
2 5.836933 -0.820595 0.000175 -0.016294 0.170997 0.059191
3 3.707160 -1.779551 -0.001620 -0.000869 0.017090 0.317870
4 1.884797 0.225918 -3.244098 -0.663835 0.418659 -0.851534
5 3.698876 0.000000 0.000000 0.000000 0.000000 -0.677090
6 1.884668 0.225917 3.247675 -2.438315 -0.037275 -0.898607
7 3.698876 0.000000 0.000000 0.000000 0.000000 0.000000
8 -0.186343 -4.605420 -5.595720 0.970546 -0.352907 -0.068111
9 -2.642705 -4.630919 4.338608 -0.382253 -0.335431 -0.067612
10 2.630715 -3.155085 -5.016712 -0.690567 -0.090418 -0.344877
11 8.255675 0.000000 0.000000 0.000000 0.000000 -0.298381
12 2.630415 -3.155085 5.016869 -2.984326 -0.237275 -0.390481
13 8.255674 0.000000 0.000000 0.000000 0.000000 0.000000
14 -0.450924 -0.675699 0.000000 0.003138 0.032925 -0.054340
15 0.000009 0.000000 6.164912 0.126874 2.700383 -0.801948
16 6.098812 0.000000 0.000000 0.000000 0.000000 -1.259034
17 3.401651 0.000000 0.000000 2.825164 0.202828 0.332369
18 -0.000009 0.000000 -6.164912 -0.124120 -2.619062 -0.591192
19 6.098812 0.000000 0.000000 0.000000 0.000000 -1.281321
20 3.401651 0.000000 0.000000 -2.893820 -0.527584 -0.318383
time 12
1 -0.188497 10.122117 9.415914 -1.583048 -1.229587 1.582966
2 5.836933 -0.820595 0.000175 -0.085157 0.085921 -0.085352
3 3.707160 -1.779551 -0.001620 -0.001943 0.019076 0.216168
4 1.884797 0.225918 -3.244098 -0.617320 0.439872 -0.733312
5 3.698876 0.000000 0.000000 0.000000 0.000000 -0.784269
6 1.884668 0.225917 3.247675 -2.446441 -0.020837 -0.868206
7 3.698876 0.000000 0.000000 0.000000 0.000000 0.000000
8 0.030859 -4.329912 -5.814435 1.023051 -0.275282 0.063286
9 -1.584523 -5.159738 4.256673 -0.329957 -0.257856 0.064722
10 2.630715 -3.155085 -5.016712 -0.635898 0.106114 -0.094942
11 8.255675 0.000000 0.000000 0.000000 0.000000 -0.637411
12 2.630415 -3.155085 5.016869 -2.801503 -0.216531 -0.255555
13 8.255674 0.000000 0.000000 0.000000 0.000000 0.000000
14 -0.450924 -0.675699 0.000000 0.000371 0.004129 -0.100951
15 0.000009 0.000000 6.164912 0.217558 2.837534 -0.614426
16 6.098812 0.000000 0.000000 0.000000 0.000000 -1.103675
17 3.401651 0.000000 0.000000 2.933844 0.190271 0.321837
18 -0.000009 0.000000 -6.164912 -0.171465 -2.689000 -0.438623
19 6.098812 0.000000 0.000000 0.000000 0.000000 -1.241818
20 3.401651 0.000000 0.000000 -3.017123 -0.480885 -0.324700
time 13
1 -0.173462 10.156219 9.424753 -1.478501 -1.222922 1.477267
2 5.836933 -0.820595 0.000175 -0.124164 -0.005914 -0.157036
3 3.707160 -1.779551 -0.001620 -0.000003 0.000000 0.165737
4 1.884797 0.225918 -3.244098 -0.604311 0.373652 -0.680423
5 3.698876 0.000000 0.000000 0.000000 0.000000 -0.660965
6 1.884668 0.225917 3.247675 -2.462432 -0.009725 -0.826862
7 3.698876 0.000000 0.000000 0.000000 0.000000 0.000000
8 -0.121255 -4.120746 -5.963346 1.068437 -0.195431 0.133602
9 -0.803353 -5.408587 4.165893 -0.284604 -0.178085 0.135815
10 2.630715 -3.155085 -5.016712 -0.466900 0.276023 0.111924
11 8.255675 0.000000 0.000000 0.000000 0.000000 -0.926646
12 2.630415 -3.155085 5.016869 -2.608899 -0.207872 -0.170234
13 8.255674 0.000000 0.000000 0.000000 0.000000 0.000000
14 -0.450924 -0.675699 0.000000 -0.000792 -0.032129 -0.110658
15 0.000009 0.000000 6.164912 0.272808 2.940510 -0.458611
16 6.098812 0.000000 0.000000 0.000000 0.000000 -0.973222
17 3.401651 0.000000 0.000000 2.997253 0.201322 0.306938
18 -0.000009 0.000000 -6.164912 -0.204357 -2.750140 -0.305168
19 6.098812 0.000000 0.000000 0.000000 0.000000 -1.209638
20 3.401651 0.000000 0.000000 -3.125596 -0.445646 -0.328877
time 14
1 -0.156894 10.185597 9.439622 -1.339621 -1.262776 1.338728
2 5.836933 -0.820595 0.000175 -0.130554 -0.065661 -0.066548
3 3.707160 -1.779551 -0.001620 0.005388 -0.062800 0.197494
4 1.884797 0.225918 -3.244098 -0.603853 0.221187 -0.697124
5 3.698876 0.000000 0.000000 0.000000 0.000000 -0.295094
6 1.884668 0.225917 3.247675 -2.488348 -0.005548 -0.774853
7 3.698876 0.000000 0.000000 0.000000 0.000000 0.000000
8 -0.878838 -4.060891 -5.940835 1.078168 -0.125325 0.049886
9 -0.949099 -5.349743 4.210973 -0.274737 -0.108001 0.052247
10 2.630715 -3.155085 -5.016712 -0.303280 0.383394 0.166898
11 8.255675 0.000000 0.000000 0.000000 0.000000 -1.124844
12 2.630415 -3.155085 5.016869 -2.534001 -0.297991 -0.087163
13 8.255674 0.000000 0.000000 0.000000 0.000000 0.287326
14 -0.450924 -0.675699 0.000000 -0.004167 -0.070328 -0.078166
15 0.000009 0.000000 6.164912 0.297800 2.994401 -0.352566
16 6.098812 0.000000 0.000000 0.000000 0.000000 -0.902803
17 3.401651 0.000000 0.000000 3.019106 0.228362 0.268672
18 -0.000009 0.000000 -6.164912 -0.222887 -2.795218 -0.186685
19 6.098812 0.000000 0.000000 0.000000 0.000000 -1.193721
20 3.401651 0.000000 0.000000 3.074974 -0.428754 -0.326812
time 15
1 -0.139167 10.206175 9.462170 -1.110376 -1.322242 1.113804
2 5.836933 -0.820595 0.000175 -0.128126 -0.116649 0.090208
3 3.707160 -1.779551 -0.001620 0.006551 -0.156452 0.281650
4 1.884797 0.225918 -3.244098 -0.587416 0.094374 -0.721196
5 3.698876 0.000000 0.000000 0.000000 0.000000 0.000000
6 1.884668 0.225917 3.247675 -2.514840 0.001216 -0.724066
7 3.698876 0.000000 0.000000 0.000000 0.000000 0.000000
8 -1.888776 -3.953283 -5.775879 1.059770 -0.055203 -0.096774
9 -1.421595 -5.101719 4.382275 -0.292954 -0.037839 -0.094746
10 2.630715 -3.155085 -5.016712 -0.242509 0.457953 0.079739
11 8.255675 0.000000 0.000000 0.000000 0.000000 -1.195696
12 2.630415 -3.155085 5.016869 -2.521304 -0.392789 -0.064562
13 8.255674 0.000000 0.000000 0.000000 0.000000 0.590655
14 -0.450924 -0.675699 0.000000 -0.012004 -0.109229 -0.032831
15 0.000009 0.000000 6.164912 0.303096 3.005617 -0.314453
16 6.098812 0.000000 0.000000 0.000000 0.000000 -0.889817
17 3.401651 0.000000 0.000000 3.006546 0.263157 0.177338
18 -0.000009 0.000000 -6.164912 -0.230148 -2.823567 -0.089655
19 6.098812 0.000000 0.000000 0.000000 0.000000 -1.189708
20 3.401651 0.000000 0.000000 3.023532 -0.432832 -0.322362
time 16
1 -0.120651 10.217078 9.487490 -0.881888 -1.365175 0.890821
2 5.836933 -0.820595 0.000175 -0.104387 -0.135447 0.181536
3 3.707160 -1.779551 -0.001620 0.000908 -0.239270 0.371940
4 1.884797 0.225918 -3.244098 -0.576681 0.055018 -0.681362
5 3.698876 0.000000 0.000000 0.000000 0.000000 0.000000
6 1.884668 0.225917 3.247675 -2.540197 0.005557 -0.680419
7 3.698876 0.000000 0.000000 0.000000 0.000000 0.000000
8 -2.402395 -3.964649 -5.573756 1.020821 -0.031231 -0.182925
9 -1.725802 -4.805123 4.602740 -0.331840 -0.013801 -0.181575
10 2.630715 -3.155085 -5.016712 -0.340801 0.482416 -0.107460
11 8.255675 0.000000 0.000000 0.000000 0.000000 -1.093030
12 2.630415 -3.155085 5.016869 -2.524149 -0.456979 -0.085617
13 8.255674 0.000000 0.000000 0.000000 0.000000 0.774518
14 -0.450924 -0.675699 0.000000 -0.019498 -0.128710 0.002652
15 0.000009 0.000000 6.164912 0.298124 2.993028 -0.338150
16 6.098812 0.000000 0.000000 0.000000 0.000000 -0.901503
17 3.401651 0.000000 0.000000 2.967102 0.296965 0.027820
18 -0.000009 0.000000 -6.164912 -0.230929 -2.835539 -0.036554
19 6.098812 0.000000 0.000000 0.000000 0.000000 -1.192395
20 3.401651 0.000000 0.000000 3.005089 -0.446691 -0.309710
time 17
1 -0.101710 10.225187 9.498975 -0.939381 -1.370906 0.947217
2 5.836933 -0.820595 0.000175 -0.014770 -0.080321 0.104606
3 3.707160 -1.779551 -0.001620 -0.000013 -0.270524 0.418813
4 1.884797 0.225918 -3.244098 -0.572311 0.025456 -0.656776
5 3.698876 0.000000 0.000000 0.000000 0.000000 0.000000
6 1.884668 0.225917 3.247675 -2.565010 0.003374 -0.644650
7 3.698876 0.000000 0.000000 0.000000 0.000000 0.000000
8 -1.764547 -4.561627 -5.351137 0.948812 -0.101859 -0.104974
9 -1.666566 -4.543379 4.881914 -0.403826 -0.084377 -0.104881
10 2.630715 -3.155085 -5.016712 -0.549682 0.391922 -0.298178
11 8.255675 0.000000 0.000000 0.000000 0.000000 -0.849069
12 2.630415 -3.155085 5.016869 -2.563804 -0.529042 -0.073808
13 8.255674 0.000000 0.000000 0.000000 0.000000 0.881329
14 -0.450924 -0.675699 0.000000 -0.014682 -0.116575 -0.021861
15 0.000009 0.000000 6.164912 0.288374 2.967914 -0.372449
16 6.098812 0.000000 0.000000 0.000000 0.000000 -0.914381
17 3.401651 0.000000 0.000000 2.908291 0.311009 -0.167180
18 -0.000009 0.000000 -6.164912 -0.228209 -2.836401 -0.000784
19 6.098812 0.000000 0.000000 0.000000 0.000000 -1.195566
20 3.401651 0.000000 0.000000 3.008121 -0.458450 -0.286747
time 18
1 -0.082719 10.217719 9.514841 -1.114365 -1.378114 1.119324
2 5.836933 -0.820595 0.000175 0.087127 0.020072 -0.023379
3 3.707160 -1.779551 -0.001620 0.012198 -0.243273 0.416771
4 1.884797 0.225918 -3.244098 -0.578939 -0.015377 -0.640201
5 3.698876 0.000000 0.000000 0.000000 0.000000 0.000000
6 1.884668 0.225917 3.247675 -2.588356 -0.005782 -0.617103
7 3.698876 0.000000 0.000000 0.000000 0.000000 0.000000
8 -0.623113 -5.226240 -4.985468 0.853106 -0.200531 0.041250
9 -1.566789 -4.264184 5.158948 -0.499217 -0.183120 0.039645
10 2.630715 -3.155085 -5.016712 -0.735802 0.192259 -0.480838
11 8.255675 0.000000 0.000000 0.000000 0.000000 -0.513014
12 2.630415 -3.155085 5.016869 -2.587218 -0.570628 -0.155154
13 8.255674 0.000000 0.000000 0.000000 0.000000 0.882602
14 -0.450924 -0.675699 0.000000 -0.008402 -0.084117 -0.045375
15 0.000009 0.000000 6.164912 0.275795 2.937413 -0.415353
16 6.098812 0.000000 0.000000 0.000000 0.000000 -0.927002
17 3.401651 0.000000 0.000000 2.843810 0.293231 -0.372460
18 -0.000009 0.000000 -6.164912 -0.225443 -2.830508 0.001388
19 6.098812 0.000000 0.000000 0.000000 0.000000 -1.201098
20 3.401651 0.000000 0.000000 3.023468 -0.467225 -0.257477
time 19
1 -0.064050 10.177884 9.555470 -1.066639 -1.437969 1.072234
2 5.836933 -0.820595 0.000175 0.123163 0.056104 -0.047996
3 3.707160 -1.779551 -0.001620 0.030758 -0.185621 0.398901
4 1.884797 0.225918 -3.244098 -0.594200 -0.058882 -0.631709
5 3.698876 0.000000 0.000000 0.000000 0.000000 0.000000
6 1.884668 0.225917 3.247675 -2.609944 -0.044336 -0.555270
7 3.698876 0.000000 0.000000 0.000000 0.000000 0.104958
8 -0.309900 -5.420418 -4.804139 0.813300 -0.231522 0.078038
9 -1.621672 -4.116574 5.260875 -0.538816 -0.214188 0.075715
10 2.630715 -3.155085 -5.016712 -0.783002 -0.048962 -0.782360
11 8.255675 0.000000 0.000000 0.000000 0.000000 0.000000
12 2.630415 -3.155085 5.016869 -2.520366 -0.502624 -0.464291
13 8.255674 0.000000 0.000000 0.000000 0.000000 0.766219
14 -0.450924 -0.675699 0.000000 -0.006123 -0.063755 -0.049709
15 0.000009 0.000000 6.164912 0.266524 2.906724 -0.408456
16 6.098812 0.000000 0.000000 0.000000 0.000000 -0.943039
17 3.401651 0.000000 0.000000 2.790844 0.234491 -0.546741
18 -0.000009 0.000000 -6.164912 -0.220923 -2.823581 0.011523
19 6.098812 0.000000 0.000000 0.000000 0.000000 -1.213450
20 3.401651 0.000000 0.000000 3.039912 -0.476795 -0.220344
time 20
1 -0.046074 10.106802 9.608526 -0.352215 -1.517679 0.359143
2 5.836933 -0.820595 0.000175 0.129941 0.050029 -0.010268
3 3.707160 -1.779551 -0.001620 0.050239 -0.110666 0.370332
4 1.884797 0.225918 -3.244098 -0.615515 -0.099647 -0.630789
5 3.698876 0.000000 0.000000 0.000000 0.000000 0.000000
6 1.884668 0.225917 3.247675 -2.641858 -0.164242 -0.355268
7 3.698876 0.000000 0.000000 0.000000 0.000000 0.579440
8 -0.522878 -5.427421 -4.777700 0.808480 -0.229970 0.041001
9 -1.770282 -4.026701 5.282481 -0.543621 -0.212647 0.038593
10 2.630715 -3.155085 -5.016712 -0.753425 -0.077576 -1.001955
11 8.255675 0.000000 0.000000 0.000000 0.000000 0.000000
12 2.630415 -3.155085 5.016869 -2.488864 -0.347491 -0.854952
13 8.255674 0.000000 0.000000 0.000000 0.000000 0.599520
14 -0.450924 -0.675699 0.000000 -0.005418 -0.049980 -0.039408
15 0.000009 0.000000 6.164912 0.265966 2.887765 -0.327034
16 6.098812 0.000000 0.000000 0.000000 0.000000 -0.944383
17 3.401651 0.000000 0.000000 2.774806 0.137198 -0.665084
18 -0.000009 0.000000 -6.164912 -0.216570 -2.819994 0.031769
19 6.098812 0.000000 0.000000 0.000000 0.000000 -1.225238
20 3.401651 0.000000 0.000000 3.048803 -0.486121 -0.189803
time 21
1 -0.029159 9.995780 9.674614 1.395232 -1.424941 -1.389511
2 5.836933 -0.820595 0.000175 0.112459 0.002250 0.122323
3 3.707160 -1.779551 -0.001620 0.066071 -0.031768 0.335006
4 1.884797 0.225918 -3.244098 -0.646926 -0.140706 -0.640985
5 3.698876 0.000000 0.000000 0.000000 0.000000 0.000000
6 1.884668 0.225917 3.247675 -2.665962 -0.236926 -0.239687
7 3.698876 0.000000 0.000000 0.000000 0.000000 0.878176
8 -1.404786 -5.193843 -4.858729 0.828904 -0.198051 -0.100710
9 -2.147909 -3.867617 5.261258 -0.523344 -0.180684 -0.102743
10 2.630715 -3.155085 -5.016712 -0.723444 -0.078074 -1.326466
11 8.255675 0.000000 0.000000 0.000000 0.000000 0.000000
12 2.630415 -3.155085 5.016869 -2.579318 -0.171987 -1.255884
13 8.255674 0.000000 0.000000 0.000000 0.000000 0.497686
14 -0.450924 -0.675699 0.000000 -0.004271 -0.026140 0.016675
15 0.000009 0.000000 6.164912 0.267637 2.883589 -0.038485
16 6.098812 0.000000 0.000000 0.000000 0.000000 -0.926154
17 3.401651 0.000000 0.000000 2.867007 -0.052446 -0.624234
18 -0.000009 0.000000 -6.164912 -0.201838 -2.794462 0.027778
19 6.098812 0.000000 0.000000 0.000000 0.000000 -1.279379
20 3.401651 0.000000 0.000000 3.042157 -0.534112 -0.099535
time 22
1 -0.013674 9.838820 9.748102 1.554031 -1.232109 -1.553089
2 5.836933 -0.820595 0.000175 0.071560 -0.055536 0.271939
3 3.707160 -1.779551 -0.001620 0.075079 0.037332 0.295670
4 1.884797 0.225918 -3.244098 -0.688828 -0.180201 -0.665682
5 3.698876 0.000000 0.000000 0.000000 0.000000 0.000000
6 1.884668 0.225917 3.247675 -2.677396 -0.299316 -0.150990
7 3.698876 0.000000 0.000000 0.000000 0.000000 1.159360
8 -2.386099 -4.719620 -4.958670 0.857695 -0.148507 -0.259978
9 -2.503457 -3.701533 5.223422 -0.494725 -0.131089 -0.261489
10 2.630715 -3.155085 -5.016712 -0.690264 0.034529 -1.538762
11 8.255675 0.000000 0.000000 0.000000 0.000000 -0.354367
12 2.630415 -3.155085 5.016869 -2.750112 -0.070050 -1.595295
13 8.255674 0.000000 0.000000 0.000000 0.000000 0.547354
14 -0.450924 -0.675699 0.000000 -0.000528 -0.005860 0.100948
15 0.000009 0.000000 6.164912 0.239884 2.936674 0.388047
16 6.098812 0.000000 0.000000 0.000000 0.000000 -0.858377
17 3.401651 0.000000 0.000000 -3.138828 -0.238884 -0.558478
18 -0.000009 0.000000 -6.164912 -0.189296 -2.768634 -0.003689
19 6.098812 0.000000 0.000000 0.000000 0.000000 -1.330010
20 3.401651 0.000000 0.000000 3.032223 -0.576915 -0.019267
time 23
1 0.000010 9.691216 9.782823 1.586104 -1.112629 -1.592149
2 5.836933 -0.820595 0.000175 0.039625 -0.088308 0.355600
3 3.707160 -1.779551 -0.001620 0.075582 0.082578 0.254647
4 1.884797 0.225918 -3.244098 -0.740834 -0.217036 -0.709878
5 3.698876 0.000000 0.000000 0.000000 0.000000 0.000000
6 1.884668 0.225917 3.247675 -2.646805 -0.340895 -0.162144
7 3.698876 0.000000 0.000000 0.000000 0.000000 1.313024
8 -2.913003 -4.364790 -5.001986 0.874155 -0.113991 -0.347286
9 -2.668833 -3.616295 5.201220 -0.478347 -0.096551 -0.348504
10 2.630715 -3.155085 -5.016712 -0.598390 0.049739 -1.778667
11 8.255675 0.000000 0.000000 0.000000 0.000000 -0.442631
12 2.630415 -3.155085 5.016869 0.214173 -3.098575 1.284352
13 8.255674 0.000000 0.000000 0.000000 0.000000 0.599307
14 -0.450924 -0.675699 0.000000 0.005171 0.008788 0.145196
15 0.000009 0.000000 6.164912 0.207764 3.053336 0.706925
16 6.098812 0.000000 0.000000 0.000000 0.000000 -0.730138
17 3.401651 0.000000 0.000000 -2.816007 -0.312731 -0.730619
18 -0.000009 0.000000 -6.164912 -0.211792 -2.814940 0.035631
19 6.098812 0.000000 0.000000 0.000000 0.000000 -1.249899
20 3.401651 0.000000 0.000000 3.054941 -0.494610 -0.161096
time 24
1 0.003175 8.528130 10.037756 1.579078 -0.823218 -1.588200
2 5.836933 -0.820595 0.000175 0.055264 -0.058032 0.225169
3 3.707160 -1.779551 -0.001620 0.062065 0.088954 0.198043
4 1.884797 0.225918 -3.244098 -0.800763 -0.251209 -0.780730
5 3.698876 0.000000 0.000000 0.000000 0.000000 0.000000
6 1.884668 0.225917 3.247675 -2.565110 -0.382216 -0.242519
7 3.698876 0.000000 0.000000 0.000000 0.000000 1.484045
8 -2.193805 -4.731284 -5.035739 0.874999 -0.138744 -0.216006
9 -2.298304 -3.911482 5.164371 -0.477474 -0.121303 -0.217212
10 2.630715 -3.155085 -5.016712 -0.143604 0.013330 -1.919094
11 8.255675 0.000000 0.000000 0.000000 0.000000 0.000000
12 2.630415 -3.155085 5.016869 0.054010 -2.999867 1.255962
13 8.255674 0.000000 0.000000 0.000000 0.000000 0.000000
14 -0.450924 -0.675699 0.000000 0.006294 0.010976 0.158445
15 0.000009 0.000000 6.164912 0.293208 -3.077317 0.458298
16 6.098812 0.000000 0.000000 0.000000 0.000000 -0.876274
17 3.401651 0.000000 0.000000 -2.695876 -0.338491 -1.046591
18 -0.000009 0.000000 -6.164912 -0.314161 -3.084002 0.109548
19 6.098812 0.000000 0.000000 0.000000 0.000000 -0.851072
20 3.401651 0.000000 0.000000 2.956259 -0.092345 -0.967685
time 25
1 0.000011 7.117411 9.952209 1.572027 -0.493102 -1.581517
2 5.836933 -0.820595 0.000175 0.070872 -0.021133 0.061814
3 3.707160 -1.779551 -0.001620 0.038031 0.063433 0.123787
4 1.884797 0.225918 -3.244098 -0.865639 -0.266386 -0.874415
5 3.698876 0.000000 0.000000 0.000000 0.000000 -0.044654
6 1.884668 0.225917 3.247675 -2.448322 -0.422052 -0.416628
7 3.698876 0.000000 0.000000 0.000000 0.000000 1.660119
8 -1.249262 -5.062394 -5.036691 0.869422 -0.166143 -0.049920
9 -1.763272 -4.200773 5.147545 -0.483003 -0.148709 -0.051228
10 2.630715 -3.155085 -5.016712 -0.088267 0.071777 -1.001495
11 8.255675 0.000000 0.000000 0.000000 0.000000 -0.753317
12 2.630415 -3.155085 5.016869 3.076596 -0.152003 -0.871554
13 8.255674 0.000000 0.000000 0.000000 0.000000 0.924102
14 -0.450924 -0.675699 0.000000 0.005264 0.008733 0.155803
15 0.000009 0.000000 6.164912 0.351811 -2.862248 0.327364
16 6.098812 0.000000 0.000000 0.000000 0.000000 -0.331439
17 3.401651 0.000000 0.000000 -2.717467 -0.140948 -1.814329
18 -0.000009 0.000000 -6.164912 -0.351699 2.862739 0.326863
19 6.098812 0.000000 0.000000 0.000000 0.000000 -0.332897
20 3.401651 0.000000 0.000000 2.717854 0.140901 -1.813440
time 26
1 0.000012 6.803450 8.664930 1.569702 -0.278207 -1.582233
2 5.836933 -0.820595 0.000175 0.077609 -0.002719 -0.088618
3 3.707160 -1.779551 -0.001620 0.014893 0.026308 0.051710
4 1.884797 0.225918 -3.244098 -0.970193 -0.030618 -0.833327
5 3.698876 0.000000 0.000000 0.000000 0.000000 -0.810088
6 1.884668 0.225917 3.247675 -2.337936 -0.429065 -0.682184
7 3.698876 0.000000 0.000000 0.000000 0.000000 1.780609
8 -0.433821 -5.214865 -5.017358 0.864237 -0.173176 0.102326
9 -1.148399 -4.396132 5.158316 -0.488164 -0.155749 0.100924
10 2.630715 -3.155085 -5.016712 -0.019319 0.096841 -0.130167
11 8.255675 0.000000 0.000000 0.000000 0.000000 -1.350913
12 2.630415 -3.155085 5.016869 2.985091 -0.092250 -0.027511
13 8.255674 0.000000 0.000000 0.000000 0.000000 1.424165
14 -0.450924 -0.675699 0.000000 0.005762 0.010280 0.143205
15 0.000009 0.000000 6.164912 0.398667 -2.905679 0.240421
16 6.098812 0.000000 0.000000 0.000000 0.000000 -1.006736
17 3.401651 0.000000 0.000000 -2.686386 -0.068681 -1.441102
18 -0.000009 0.000000 -6.164912 -0.398331 2.906132 0.240211
19 6.098812 0.000000 0.000000 0.000000 0.000000 -1.007443
20 3.401651 0.000000 0.000000 2.686899 0.068697 -1.440724
time 27
1 0.000012 6.989739 7.643000 1.568237 -0.135331 -1.580326
2 5.836933 -0.820595 0.000175 0.073955 -0.000798 -0.216724
3 3.707160 -1.779551 -0.001620 0.000000 0.000000 -0.000069
4 1.884797 0.225918 -3.244098 -0.999748 0.033596 -0.983800
5 3.698876 0.000000 0.000000 0.000000 0.000000 -1.058739
6 1.884668 0.225917 3.247675 -2.282747 -0.392769 -0.953217
7 3.698876 0.000000 0.000000 0.000000 0.000000 1.823722
8 0.194524 -5.210693 -5.036647 0.869414 -0.166142 0.229335
9 -0.537080 -4.524050 5.147583 -0.483011 -0.148708 0.228026
10 2.630715 -3.155085 -5.016712 0.037271 0.099310 0.407652
11 8.255675 0.000000 0.000000 0.000000 0.000000 -1.445875
12 2.630415 -3.155085 5.016869 2.965276 -0.033293 0.481573
13 8.255674 0.000000 0.000000 0.000000 0.000000 1.456030
14 -0.450924 -0.675699 0.000000 0.005147 0.008802 0.142424
15 0.000009 0.000000 6.164912 0.426520 -2.902842 0.230599
16 6.098812 0.000000 0.000000 0.000000 0.000000 -1.384263
17 3.401651 0.000000 0.000000 -2.656570 -0.013274 -1.200357
18 -0.000009 0.000000 -6.164912 -0.426141 2.903159 0.230470
19 6.098812 0.000000 0.000000 0.000000 0.000000 -1.384747
20 3.401651 0.000000 0.000000 2.657043 0.013260 -1.200113
time 28
1 0.000008 7.454219 7.935855 1.569216 -0.082414 -1.570201
2 5.836933 -0.820595 0.000175 0.052372 -0.029335 -0.182909
3 3.707160 -1.779551 -0.001620 -0.004056 -0.005855 -0.016015
4 1.884797 0.225918 -3.244098 -0.984010 0.055535 -1.178272
5 3.698876 0.000000 0.000000 0.000000 0.000000 -1.175441
6 1.884668 0.225917 3.247675 -2.261379 -0.291081 -1.203331
7 3.698876 0.000000 0.000000 0.000000 0.000000 1.676214
8 -0.122956 -5.104603 -5.146286 0.895819 -0.144756 0.189707
9 -0.564883 -4.612020 5.065831 -0.456697 -0.127294 0.188867
10 2.630715 -3.155085 -5.016712 0.075042 0.102372 0.421901
11 8.255675 0.000000 0.000000 0.000000 0.000000 -1.378701
12 2.630415 -3.155085 5.016869 2.993799 -0.018739 0.453599
13 8.255674 0.000000 0.000000 0.000000 0.000000 1.342897
14 -0.450924 -0.675699 0.000000 0.001475 -0.000723 0.086595
15 0.000009 0.000000 6.164912 0.388956 -2.885101 0.416396
16 6.098812 0.000000 0.000000 0.000000 0.000000 -1.386216
17 3.401651 0.000000 0.000000 -2.679500 -0.013882 -1.122448
18 -0.000009 0.000000 -6.164912 -0.388868 2.884677 0.416413
19 6.098812 0.000000 0.000000 0.000000 0.000000 -1.385845
20 3.401651 0.000000 0.000000 2.679340 0.013523 -1.122646
time 29
1 0.000004 8.059408 9.062341 1.571557 -0.029740 -1.556363
2 5.836933 -0.820595 0.000175 0.020620 -0.068053 -0.091819
3 3.707160 -1.779551 -0.001620 -0.002040 -0.002920 -0.008046
4 1.884797 0.225918 -3.244098 -0.934428 0.004380 -1.424095
5 3.698876 0.000000 0.000000 0.000000 0.000000 -1.065596
6 1.884668 0.225917 3.247675 -2.259350 -0.127274 -1.449022
7 3.698876 0.000000 0.000000 0.000000 0.000000 1.317557
8 -0.770499 -4.921127 -5.267411 0.928077 -0.113618 0.093186
9 -0.817150 -4.685169 4.963299 -0.424525 -0.096138 0.092915
10 2.630715 -3.155085 -5.016712 0.107075 0.114990 0.278222
11 8.255675 0.000000 0.000000 0.000000 0.000000 -1.247074
12 2.630415 -3.155085 5.016869 3.031021 -0.006223 0.259106
13 8.255674 0.000000 0.000000 0.000000 0.000000 1.150953
14 -0.450924 -0.675699 0.000000 -0.001868 -0.014355 0.047142
15 0.000009 0.000000 6.164912 0.295218 -2.865829 0.731700
16 6.098812 0.000000 0.000000 0.000000 0.000000 -1.104201
17 3.401651 0.000000 0.000000 -2.741489 -0.030558 -1.193768
18 -0.000009 0.000000 -6.164912 -0.295346 2.864377 0.732088
19 6.098812 0.000000 0.000000 0.000000 0.000000 -1.102397
20 3.401651 0.000000 0.000000 2.740377 0.029883 -1.194826
time 30
1 0.000002 8.693038 9.815958 1.574116 -0.011811 -1.541821
2 5.836933 -0.820595 0.000175 -0.014637 -0.103695 0.000758
3 3.707160 -1.779551 -0.001620 -0.000000 -0.000000 -0.000070
4 1.884797 0.225918 -3.244098 -0.859097 -0.102027 -1.715087
5 3.698876 0.000000 0.000000 0.000000 0.000000 -0.742486
6 1.884668 0.225917 3.247675 -2.282487 0.102932 -1.715736
7 3.698876 0.000000 0.000000 0.000000 0.000000 0.740314
8 -1.401978 -4.675599 -5.360038 0.957071 -0.079567 -0.001976
9 -1.078475 -4.731818 4.868230 -0.395576 -0.062087 -0.001738
10 2.630715 -3.155085 -5.016712 0.130705 0.136398 0.106591
11 8.255675 0.000000 0.000000 0.000000 0.000000 -1.119822
12 2.630415 -3.155085 5.016869 3.060273 0.011254 0.033537
13 8.255674 0.000000 0.000000 0.000000 0.000000 0.944319
14 -0.450924 -0.675699 0.000000 -0.003323 -0.029014 -0.011668
15 0.000009 0.000000 6.164912 0.215414 -2.849302 0.990589
16 6.098812 0.000000 0.000000 0.000000 0.000000 -0.865629
17 3.401651 0.000000 0.000000 -2.781133 -0.024478 -1.257964
18 -0.000009 0.000000 -6.164912 -0.215515 2.846767 0.991686
19 6.098812 0.000000 0.000000 0.000000 0.000000 -0.861691
20 3.401651 0.000000 0.000000 2.778996 0.023654 -1.260385
end
