version 1
nodes
  0 "hc_body" -1
  1 "BoxHC_Clavicle" 0
  2 "Bone_Shoulder_L" 1
  3 "Bone_UppArm_L" 2
  4 "Bone_Finger_L" 3
  5 "Bone_Shoulder_R" 1
  6 "Bone_UpArm_R" 5
  7 "Bone_Finger_R" 6
  8 "HC_Hips" 0
  9 "DummyHip_L" 8
  10 "Bone05" 9
  11 "Bone_Knee_L" 10
  12 "Bone07" 11
  13 "DummyHip_R" 8
  14 "Bone01" 13
  15 "Bone_Knee_R" 14
  16 "Bone03" 15
  17 "Box_Body_Back" 0
  18 "Box_Body_Right" 0
  19 "Box_Body_Left" 0
  20 "Box_Body_Front" 0
  21 "Box_Hole_Left" 0
  22 "Box_Hole_Right" 0
  23 "Box_Hole_Front" 0
  24 "Box_Hole_Back" 0
  25 "Headcrab Mesh02" -1
end
skeleton
time 0
    0 0.000300 -0.367199 7.438785 -0.077931 -0.003447 0.000126
    1 0.499268 -1.846680 -2.039063 0.000000 0.000000 0.000000
    2 0.811076 0.000000 0.000000 0.000000 0.000000 0.000000
    3 3.217810 -1.313908 -0.117041 -0.036199 0.000000 -0.000843
    4 5.020581 -12.365363 -0.141199 0.110190 0.000000 0.000000
    5 -0.814324 0.000000 0.000000 0.000000 0.000000 0.000000
    6 -3.014840 -1.425123 -0.117041 -0.067061 -0.135041 -0.052021
    7 -5.182895 -12.052588 -0.133394 0.109212 0.000000 0.000000
    8 0.685731 4.330293 0.566755 0.077936 0.003448 0.000130
    9 2.880558 0.002299 0.010736 -0.068847 0.360172 -0.021497
    10 0.000000 0.000000 0.000000 -0.037962 0.000000 -0.499087
    11 -0.109736 6.529850 7.636820 0.676426 0.000000 0.000000
    12 2.192401 4.260851 -9.219817 0.050464 0.000000 0.000000
    13 -2.880557 -0.002451 -0.011941 0.000000 0.000000 0.000000
    14 0.000000 0.000000 0.000000 -0.306449 0.000000 0.449447
    15 0.109736 6.529850 7.636822 0.686049 0.000000 0.000000
    16 -2.192400 4.260849 -9.219818 0.065465 0.000000 0.000000
    17 0.576971 3.316378 3.658368 -0.366198 -0.017037 -0.041761
    18 -3.920413 1.599356 1.175100 0.000000 0.000000 -0.044331
    19 5.157469 1.518810 1.203308 -0.000228 0.003440 -0.044187
    20 0.580566 -3.031250 0.760742 0.366517 0.000000 0.000000
    21 2.558006 2.592530 -4.317399 0.000072 -0.003452 0.044199
    22 -1.559219 2.591210 -4.327222 0.000000 0.000000 0.000012
    23 0.499394 -0.354273 -4.774595 0.000000 0.000000 0.000012
    24 0.498970 5.824183 -0.709799 0.000072 -0.003452 0.044199
    25 -2.628906 -0.510254 6.773438 0.000000 0.000000 -1.570796
time 1
    0 0.000300 -0.367199 10.466221 -0.341680 -0.145349 0.184075
    1 0.499268 -1.846680 -2.039063 0.000000 0.000000 0.000000
    2 0.811076 0.000000 0.000000 -0.002122 0.638834 0.021862
    3 3.217810 -1.313908 -0.117041 0.440365 0.000000 -0.344365
    4 5.020581 -12.365363 -0.141199 0.410798 0.000000 0.000000
    5 -0.814324 0.000000 0.000000 0.000000 -0.063548 0.000000
    6 -3.014840 -1.425123 -0.117041 -0.178859 -0.135041 -0.839859
    7 -5.182895 -12.052588 -0.133394 0.209188 0.000000 0.000000
    8 0.685731 4.330293 0.566755 0.077936 0.003448 0.000130
    9 2.880558 0.002299 0.010736 -0.814911 0.556664 -1.498061
    10 0.000000 0.000000 0.000000 -0.182661 0.000000 0.978692
    11 -0.109736 6.529850 7.636820 0.300492 0.000000 0.000000
    12 2.192401 4.260851 -9.219817 -0.119509 0.000000 0.000000
    13 -2.880557 -0.002451 -0.011941 0.252081 0.209352 -0.138787
    14 0.000000 0.000000 0.000000 -0.356386 0.000000 0.722388
    15 0.109736 6.529850 7.636822 0.824230 0.000000 0.000000
    16 -2.192400 4.260849 -9.219818 0.066925 0.000000 0.000000
    17 0.741038 3.019494 3.982597 -0.364798 0.052304 0.016602
    18 -4.275892 1.099341 1.331355 0.000000 0.000000 -0.044319
    19 5.083248 1.616469 1.172057 -0.006723 0.014561 -0.041371
    20 0.580566 -3.031250 0.760742 0.366517 0.000000 0.000000
    21 2.558006 2.592530 -4.317399 0.006112 -0.014825 0.041287
    22 -1.559219 2.591210 -4.327222 0.000000 0.000000 0.000012
    23 0.499394 -0.354273 -4.774595 0.000000 0.000000 0.000012
    24 0.498970 5.824183 -0.709799 0.006112 -0.014825 0.041287
    25 -2.628906 -0.510254 6.773438 0.000000 0.000000 -1.570796
time 2
    0 0.000300 -0.367199 12.778792 -0.526862 -0.215492 0.358875
    1 0.499268 -1.846680 -2.039063 0.000000 0.000000 0.000000
    2 0.811076 0.000000 0.000000 0.021296 1.211683 0.054737
    3 3.217810 -1.313908 -0.117041 0.896272 0.000000 0.266244
    4 5.020581 -12.365363 -0.141199 0.210066 0.000000 0.000000
    5 -0.814324 0.000000 0.000000 0.000000 -0.127132 0.000000
    6 -3.014840 -1.425123 -0.117041 -0.167466 -0.135041 -1.246914
    7 -5.182895 -12.052588 -0.133394 -0.548163 0.000000 0.000000
    8 0.685731 4.330293 0.566755 0.077936 0.003448 0.000130
    9 2.880558 0.002299 0.010736 -1.309108 0.164181 -2.276007
    10 0.000000 0.000000 0.000000 -1.042389 0.000000 2.070496
    11 -0.109736 6.529850 7.636820 0.506952 0.000000 0.000000
    12 2.192401 4.260851 -9.219817 0.053405 0.000000 0.000000
    13 -2.880557 -0.002451 -0.011941 0.412957 0.404541 -0.224695
    14 0.000000 0.000000 0.000000 -0.521710 0.000000 0.884325
    15 0.109736 6.529850 7.636822 1.051367 0.000000 0.000000
    16 -2.192400 4.260849 -9.219818 0.070053 0.000000 0.000000
    17 0.881667 2.816363 4.127132 -0.346031 0.098530 0.068788
    18 -4.381364 0.954805 1.378231 0.000000 0.000000 -0.044331
    19 5.106686 1.585218 1.183776 -0.009875 0.021584 -0.037536
    20 0.580566 -3.031250 0.760742 0.366517 0.000000 0.000000
    21 2.558006 2.592530 -4.317399 0.009060 -0.021944 0.037344
    22 -1.559219 2.591210 -4.327222 0.000000 0.000000 0.000012
    23 0.499394 -0.354273 -4.774595 0.000000 0.000000 0.000012
    24 0.498970 5.824183 -0.709799 0.009060 -0.021944 0.037344
    25 -2.628906 -0.510254 6.773438 0.000000 0.000000 -1.570796
time 3
    0 0.000300 -0.367199 14.372591 -0.388197 -0.230003 0.414981
    1 0.499268 -1.846680 -2.039063 0.000000 0.000000 0.000000
    2 0.811076 0.000000 0.000000 0.000000 1.422443 0.000000
    3 3.217810 -1.313908 -0.117041 0.892695 0.000000 0.535642
    4 5.020581 -12.365363 -0.141199 0.011091 0.000000 0.000000
    5 -0.814324 0.000000 0.000000 0.000000 -0.190716 0.000000
    6 -3.014840 -1.425123 -0.117041 -0.193190 -0.135041 -1.242304
    7 -5.182895 -12.052588 -0.133394 -0.669805 0.000000 0.000000
    8 0.685731 4.330293 0.566755 0.077936 0.003448 0.000130
    9 2.880558 0.002299 0.010736 -1.205230 0.227302 -2.212640
    10 0.000000 0.000000 0.000000 -1.461605 0.000000 2.308177
    11 -0.109736 6.529850 7.636820 0.939775 0.000000 0.000000
    12 2.192401 4.260851 -9.219817 0.042885 0.000000 0.000000
    13 -2.880557 -0.002451 -0.011941 0.250547 0.404039 -0.334863
    14 0.000000 0.000000 0.000000 -0.625377 0.000000 0.962881
    15 0.109736 6.529850 7.636822 1.116417 0.000000 0.000000
    16 -2.192400 4.260849 -9.219818 0.075196 0.000000 0.000000
    17 0.924637 3.253876 3.728683 -0.338268 0.124885 0.062475
    18 -4.123544 1.314191 1.264946 0.000000 0.000000 -0.044331
    19 5.083248 1.616469 1.172057 -0.010427 0.016131 -0.040029
    20 0.580566 -3.031250 0.760742 0.366517 0.000000 0.000000
    21 2.558006 2.592530 -4.317399 0.009767 -0.016527 0.039873
    22 -1.559219 2.591210 -4.327222 0.000000 0.000000 0.000000
    23 0.499394 -0.354273 -4.774595 0.000000 0.000000 0.000000
    24 0.498970 5.824183 -0.709799 0.009767 -0.016527 0.039873
    25 -2.628906 -0.510254 6.773438 0.000000 0.000000 -1.570796
time 4
    0 0.000300 -0.367199 15.247617 -0.173188 -0.205344 0.420459
    1 0.499268 -1.846680 -2.039063 0.000000 0.000000 0.000000
    2 0.811076 0.000000 0.000000 -0.147592 1.392272 -0.356260
    3 3.217810 -1.313908 -0.117041 0.694874 0.000000 0.154409
    4 5.020581 -12.365363 -0.141199 -0.009070 0.000000 0.000000
    5 -0.814324 0.000000 0.000000 0.000000 -0.254299 0.000000
    6 -3.014840 -1.425123 -0.117041 -0.364581 -0.135041 -1.127588
    7 -5.182895 -12.052588 -0.133394 -0.269737 0.000000 0.000000
    8 0.685731 4.330293 0.566755 0.077936 0.003448 0.000130
    9 2.880558 0.002299 0.010736 -0.909411 0.449069 -1.802854
    10 0.000000 0.000000 0.000000 -1.464267 0.000000 1.752701
    11 -0.109736 6.529850 7.636820 1.118495 0.000000 0.000000
    12 2.192401 4.260851 -9.219817 0.038605 0.000000 0.000000
    13 -2.880557 -0.002451 -0.011941 0.005486 0.222887 -0.409744
    14 0.000000 0.000000 0.000000 -0.605787 0.000000 0.987788
    15 0.109736 6.529850 7.636822 1.114204 0.000000 0.000000
    16 -2.192400 4.260849 -9.219818 0.073041 0.000000 0.000000
    17 0.924637 3.562479 3.400548 -0.340395 0.137230 0.025686
    18 -3.904787 1.618888 1.171194 0.000000 0.000000 -0.044319
    19 5.083248 1.616469 1.172057 -0.009192 0.007275 -0.042773
    20 0.580566 -3.031250 0.760742 0.366517 0.000000 0.000000
    21 2.558006 2.592530 -4.317399 0.008869 -0.007670 0.042725
    22 -1.559219 2.591210 -4.327222 0.000000 0.000000 0.000000
    23 0.499394 -0.354273 -4.774595 0.000000 0.000000 0.000000
    24 0.498970 5.824183 -0.709799 0.008869 -0.007670 0.042725
    25 -2.628906 -0.510254 6.773438 0.000000 0.000000 -1.570796
time 5
    0 0.000300 -0.367199 15.274962 -0.065176 -0.125270 0.457529
    1 0.499268 -1.846680 -2.039063 0.000000 0.000000 0.000000
    2 0.811076 0.000000 0.000000 -0.059340 1.254183 -0.418476
    3 3.217810 -1.313908 -0.117041 0.537087 0.000000 -0.025659
    4 5.020581 -12.365363 -0.141199 0.061494 0.000000 0.000000
    5 -0.814324 0.000000 0.000000 0.000000 -0.317883 0.000000
    6 -3.014840 -1.425123 -0.117041 -0.361287 -0.135041 -1.191351
    7 -5.182895 -12.052588 -0.133394 -0.236339 0.000000 0.000000
    8 0.685731 4.330293 0.566755 0.077936 0.003448 0.000130
    9 2.880558 0.002299 0.010736 -0.450026 0.569130 -1.165815
    10 0.000000 0.000000 0.000000 -1.255819 0.000000 1.295972
    11 -0.109736 6.529850 7.636820 1.073526 0.000000 0.000000
    12 2.192401 4.260851 -9.219817 -0.010505 0.000000 0.000000
    13 -2.880557 -0.002451 -0.011941 -0.239397 -0.206880 -0.376610
    14 0.000000 0.000000 0.000000 -0.267496 0.000000 0.983005
    15 0.109736 6.529850 7.636822 1.109007 0.000000 0.000000
    16 -2.192400 4.260849 -9.219818 0.050349 0.000000 0.000000
    17 0.940263 3.691390 3.256012 -0.339247 0.148638 -0.018319
    18 -3.904787 1.618888 1.171194 0.000000 0.000000 -0.044331
    19 5.083248 1.616469 1.172057 -0.005597 0.002732 -0.043888
    20 0.580566 -3.031250 0.760742 0.366517 0.000000 0.000000
    21 2.558006 2.592530 -4.317399 0.005465 -0.002984 0.043888
    22 -1.559219 2.591210 -4.327222 0.000000 0.000000 0.000000
    23 0.499394 -0.354273 -4.774595 0.000000 0.000000 0.000000
    24 0.498970 5.824183 -0.709799 0.005465 -0.002984 0.043888
    25 -2.628906 -0.510254 6.773438 0.000000 0.000000 -1.570796
time 6
    0 0.000300 -0.367199 14.583535 0.018848 -0.025213 0.497205
    1 0.499268 -1.846680 -2.039063 0.000000 0.000000 0.000000
    2 0.811076 0.000000 0.000000 0.040015 1.035783 -0.308325
    3 3.217810 -1.313908 -0.117041 0.629539 0.000000 -0.367014
    4 5.020581 -12.365363 -0.141199 0.066922 0.000000 0.000000
    5 -0.814324 0.000000 0.000000 0.000000 -0.381467 0.000000
    6 -3.014840 -1.425123 -0.117041 -0.242769 -0.135041 -1.330667
    7 -5.182895 -12.052588 -0.133394 -0.400000 0.000000 0.000000
    8 0.685731 4.330293 0.566755 0.077936 0.003448 0.000130
    9 2.880558 0.002299 0.010736 -0.156512 0.392076 -0.720114
    10 0.000000 0.000000 0.000000 -1.074673 0.000000 1.142698
    11 -0.109736 6.529850 7.636820 1.027654 0.000000 0.000000
    12 2.192401 4.260851 -9.219817 -0.036423 0.000000 0.000000
    13 -2.880557 -0.002451 -0.011941 -0.666749 -0.709226 -0.113267
    14 0.000000 0.000000 0.000000 0.264484 0.000000 0.926770
    15 0.109736 6.529850 7.636822 1.058375 0.000000 0.000000
    16 -2.192400 4.260849 -9.219818 -0.001292 0.000000 0.000000
    17 0.951982 3.691390 3.232574 -0.334893 0.153350 -0.066046
    18 -3.904787 1.618888 1.171194 0.000000 0.000000 -0.044331
    19 5.083248 1.616469 1.172057 -0.001091 -0.000851 -0.044307
    20 0.580566 -3.031250 0.760742 0.366517 0.000000 0.000000
    21 2.558006 2.592530 -4.317399 0.001127 0.000803 0.044319
    22 -1.559219 2.591210 -4.327222 0.000000 0.000000 0.000000
    23 0.499394 -0.354273 -4.774595 0.000000 0.000000 0.000000
    24 0.498970 5.824183 -0.709799 0.001127 0.000803 0.044319
    25 -2.628906 -0.510254 6.773438 0.000000 0.000000 -1.570796
time 7
    0 0.000300 -0.367199 13.563972 0.062574 0.044280 0.480907
    1 0.499268 -1.846680 -2.039063 0.000000 0.000000 0.000000
    2 0.811076 0.000000 0.000000 0.072640 0.787559 -0.224412
    3 3.217810 -1.313908 -0.117041 0.657029 0.000000 -0.778589
    4 5.020581 -12.365363 -0.141199 0.076950 0.000000 0.000000
    5 -0.814324 0.000000 0.000000 0.000000 -0.445051 0.000000
    6 -3.014840 -1.425123 -0.117041 -0.153491 -0.135041 -1.369626
    7 -5.182895 -12.052588 -0.133394 -0.545107 0.000000 0.000000
    8 0.685731 4.330293 0.566755 0.077936 0.003448 0.000130
    9 2.880558 0.002299 0.010736 -0.118124 0.178522 -0.574391
    10 0.000000 0.000000 0.000000 -0.792852 0.000000 1.140809
    11 -0.109736 6.529850 7.636820 0.848753 0.000000 0.000000
    12 2.192401 4.260851 -9.219817 -0.055240 0.000000 0.000000
    13 -2.880557 -0.002451 -0.011941 -1.052746 -0.903199 0.233359
    14 0.000000 0.000000 0.000000 0.578656 0.000000 0.841449
    15 0.109736 6.529850 7.636822 0.951177 0.000000 0.000000
    16 -2.192400 4.260849 -9.219818 -0.020544 0.000000 0.000000
    17 0.928544 3.703109 3.224761 -0.335686 0.139938 -0.093721
    18 -3.904787 1.618888 1.171194 0.000000 0.000000 -0.044319
    19 5.083248 1.616469 1.172057 0.002013 -0.002721 -0.044199
    20 0.580566 -3.031250 0.760742 0.366517 0.000000 0.000000
    21 2.558006 2.592530 -4.317399 -0.001894 0.002804 0.044199
    22 -1.559219 2.591210 -4.327222 0.000000 0.000000 0.000012
    23 0.499394 -0.354273 -4.774595 0.000000 0.000000 0.000012
    24 0.498970 5.824183 -0.709799 -0.001894 0.002804 0.044199
    25 -2.628906 -0.510254 6.773438 0.000000 0.000000 -1.570796
time 8
    0 0.000300 -0.367199 12.341279 0.041123 0.057706 0.361880
    1 0.499268 -1.846680 -2.039063 0.000000 0.000000 0.000000
    2 0.811076 0.000000 0.000000 0.067979 0.523535 -0.146437
    3 3.217810 -1.313908 -0.117041 0.399263 0.000000 -0.881068
    4 5.020581 -12.365363 -0.141199 0.290038 0.000000 0.000000
    5 -0.814324 0.000000 0.000000 0.000000 -0.445051 0.000000
    6 -3.014840 -1.425123 -0.117041 -0.209613 -0.135041 -1.193023
    7 -5.182895 -12.052588 -0.133394 -0.325236 0.000000 0.000000
    8 0.685731 4.330293 0.566755 0.077936 0.003448 0.000130
    9 2.880558 0.002299 0.010736 -0.146418 0.023441 -0.477931
    10 0.000000 0.000000 0.000000 -0.343399 0.000000 0.939794
    11 -0.109736 6.529850 7.636820 0.400905 0.000000 0.000000
    12 2.192401 4.260851 -9.219817 -0.066262 0.000000 0.000000
    13 -2.880557 -0.002451 -0.011941 -0.751582 -0.805856 0.095885
    14 0.000000 0.000000 0.000000 0.446737 0.000000 0.798056
    15 0.109736 6.529850 7.636822 0.818630 0.000000 0.000000
    16 -2.192400 4.260849 -9.219818 -0.031178 0.000000 0.000000
    17 0.838697 3.726547 3.248199 -0.348900 0.100833 -0.088132
    18 -3.904787 1.618888 1.171194 0.000000 0.000000 -0.044331
    19 5.083248 1.616469 1.172057 0.002589 -0.001762 -0.044211
    20 0.580566 -3.031250 0.760742 0.366517 0.000000 0.000000
    21 2.558006 2.592530 -4.317399 -0.002505 0.001870 0.044223
    22 -1.559219 2.591210 -4.327222 0.000000 0.000000 0.000000
    23 0.499394 -0.354273 -4.774595 0.000000 0.000000 0.000000
    24 0.498970 5.824183 -0.709799 -0.002505 0.001870 0.044223
    25 -2.628906 -0.510254 6.773438 0.000000 0.000000 -1.570796
time 9
    0 0.000300 -0.367199 10.786544 -0.021133 0.032541 0.180001
    1 0.499268 -1.846680 -2.039063 0.000000 0.000000 0.000000
    2 0.811076 0.000000 0.000000 0.040128 0.256949 -0.070475
    3 3.217810 -1.313908 -0.117041 0.048246 0.000000 -0.576125
    4 5.020581 -12.365363 -0.141199 0.528663 0.000000 0.000000
    5 -0.814324 0.000000 0.000000 0.000000 -0.445051 0.000000
    6 -3.014840 -1.425123 -0.117041 -0.370188 -0.135041 -0.761817
    7 -5.182895 -12.052588 -0.133394 0.195490 0.000000 0.000000
    8 0.685731 4.330293 0.566755 0.077936 0.003448 0.000130
    9 2.880558 0.002299 0.010736 -0.169069 -0.094085 -0.374934
    10 0.000000 0.000000 0.000000 -0.067175 0.000000 0.378478
    11 -0.109736 6.529850 7.636820 0.278495 0.000000 0.000000
    12 2.192401 4.260851 -9.219817 -0.104637 0.000000 0.000000
    13 -2.880557 -0.002451 -0.011941 -0.293023 -0.435257 -0.060388
    14 0.000000 0.000000 0.000000 0.058849 0.000000 0.702437
    15 0.109736 6.529850 7.636822 0.699428 0.000000 0.000000
    16 -2.192400 4.260849 -9.219818 0.005554 0.000000 0.000000
    17 0.705881 3.468727 3.502113 -0.362604 0.043178 -0.064012
    18 -3.904787 1.618888 1.171194 0.000000 0.000000 -0.044331
    19 5.083248 1.616469 1.172057 0.001414 0.000959 -0.044295
    20 0.580566 -3.031250 0.760742 0.366517 0.000000 0.000000
    21 2.558006 2.592530 -4.317399 -0.001462 -0.000899 0.044307
    22 -1.559219 2.591210 -4.327222 0.000000 0.000000 0.000012
    23 0.499394 -0.354273 -4.774595 0.000000 0.000000 0.000012
    24 0.498970 5.824183 -0.709799 -0.001462 -0.000899 0.044307
    25 -2.628906 -0.510254 6.773438 0.000000 0.000000 -1.570796
time 10
    0 0.000300 -0.367199 8.903674 -0.077931 -0.003447 0.000126
    1 0.499268 -1.846680 -2.039063 0.000000 0.000000 0.000000
    2 0.811076 0.000000 0.000000 0.000000 0.000000 0.000000
    3 3.217810 -1.313908 -0.117041 0.047765 0.000000 -0.002902
    4 5.020581 -12.365363 -0.141199 0.065422 0.000000 0.000000
    5 -0.814324 0.000000 0.000000 0.000000 -0.445051 0.000000
    6 -3.014840 -1.425123 -0.117041 -0.195771 -0.135041 -0.203330
    7 -5.182895 -12.052588 -0.133394 0.116361 0.000000 0.000000
    8 0.685731 4.330293 0.566755 0.077936 0.003448 0.000130
    9 2.880558 0.002299 0.010736 -0.168354 -0.210052 -0.248682
    10 0.000000 0.000000 0.000000 -0.286202 0.000000 -0.073270
    11 -0.109736 6.529850 7.636820 0.726958 0.000000 0.000000
    12 2.192401 4.260851 -9.219817 0.048145 0.000000 0.000000
    13 -2.880557 -0.002451 -0.011941 0.000000 0.000000 0.000000
    14 0.000000 0.000000 0.000000 -0.404228 0.000000 0.451774
    15 0.109736 6.529850 7.636822 0.741040 0.000000 0.000000
    16 -2.192400 4.260849 -9.219818 0.060010 0.000000 0.000000
    17 0.576971 3.601543 3.435705 -0.366198 -0.017037 -0.041761
    18 -3.904787 1.618888 1.171194 0.000000 0.000000 -0.044331
    19 5.083248 1.616469 1.172057 -0.000228 0.003440 -0.044187
    20 0.580566 -3.031250 0.760742 0.366517 0.000000 0.000000
    21 2.558006 2.592530 -4.317399 0.000072 -0.003452 0.044199
    22 -1.559219 2.591210 -4.327222 0.000000 0.000000 0.000012
    23 0.499394 -0.354273 -4.774595 0.000000 0.000000 0.000012
    24 0.498970 5.824183 -0.709799 0.000072 -0.003452 0.044199
    25 -2.628906 -0.510254 6.773438 0.000000 0.000000 -1.570796
end
