version 1
nodes
0 "Bip01" -1
1 "Bip01 Pelvis" 0
2 "Bip01 Spine" 1
3 "Bip01 R Thigh" 2
4 "Bip01 R Calf" 3
5 "Bip01 R Foot" 4
6 "Bip01 R Toe0" 5
7 "Bip01 Spine1" 2
8 "Bip01 Spine2" 7
9 "Bip01 Spine3" 8
10 "Bip01 Neck" 9
11 "Bip01 R Clavicle" 10
12 "Bip01 R UpperArm" 11
13 "Bip01 R Forearm" 12
14 "Bip01 R Hand" 13
15 "Bip01 R Finger4" 14
16 "Bip01 R Finger41" 15
17 "Bip01 R Finger42" 16
18 "Bip01 R Finger3" 14
19 "Bip01 R Finger31" 18
20 "Bip01 R Finger32" 19
21 "Bip01 R Finger2" 14
22 "Bip01 R Finger21" 21
23 "Bip01 R Finger22" 22
24 "Bip01 R Finger1" 14
25 "Bip01 R Finger11" 24
26 "Bip01 R Finger12" 25
27 "Bip01 R Finger0" 14
28 "Bip01 R Finger01" 27
29 "Bip01 R Finger02" 28
30 "Bip01 L Clavicle" 10
31 "Bip01 L UpperArm" 30
32 "Bip01 L Forearm" 31
33 "Bip01 L Hand" 32
34 "Bip01 L Finger4" 33
35 "Bip01 L Finger41" 34
36 "Bip01 L Finger42" 35
37 "Bip01 L Finger3" 33
38 "Bip01 L Finger31" 37
39 "Bip01 L Finger32" 38
40 "Bip01 L Finger2" 33
41 "Bip01 L Finger21" 40
42 "Bip01 L Finger22" 41
43 "Bip01 L Finger1" 33
44 "Bip01 L Finger11" 43
45 "Bip01 L Finger12" 44
46 "Bip01 L Finger0" 33
47 "Bip01 L Finger01" 46
48 "Bip01 L Finger02" 47
49 "Bip01 Head" 10
50 "Bip01 L Thigh" 2
51 "Bip01 L Calf" 50
52 "Bip01 L Foot" 51
53 "Bip01 L Toe0" 52
54 "Bip01 R Elbow IK" -1
55 "Bip01 L Elbow IK" -1
56 "Bip01 R Knee IK" -1
57 "Bip01 L Knee IK" -1
end
skeleton
time 0
0  0.194390 0.086902 35.164719  0.023810 0.000000 -1.654785
1  0.000000 -0.000000 -0.000002  -1.570804 -1.570451 -0.000000
2  3.968646 -0.003571 0.000006  0.000004 -0.000093 -0.085100
3  -3.968967 0.006762 -3.450627  0.486212 2.823061 -0.118687
4  17.254902 -0.000054 -0.001344  -0.053661 0.011812 -0.843859
5  17.254904 0.000075 -0.000254  0.246344 0.121415 0.528851
6  3.968579 5.003976 -0.000001  0.000000 0.000000 1.570796
7  4.486272 -0.003595 -0.000411  -0.166538 0.074064 0.634917
8  4.486270 -0.003592 -0.000411  -0.070682 -0.037778 0.470185
9  4.486279 -0.003594 -0.000410  0.000000 -0.000000 0.000000
10  4.486208 -0.001587 -0.000412  -0.000031 0.000087 -0.346766
11  0.000003 0.001579 -1.908401  2.726278 1.770792 0.042833
12  3.867488 0.000002 0.000002  0.523646 -0.688125 -0.124497
13  14.390602 -0.000081 0.000007  0.000000 0.000001 -2.056577
14  11.595285 0.000029 0.000017  1.932037 0.111111 -0.285455
15  4.415180 -0.060720 -1.931074  0.392303 0.122918 1.280873
16  0.923138 0.000003 -0.000003  -0.000002 0.000001 1.256255
17  0.923135 0.000000 -0.000004  -0.000001 -0.000000 1.256253
18  4.449305 -0.067591 -0.950389  0.191354 0.060961 1.262188
19  1.128470 0.000009 -0.000010  -0.000001 -0.000000 1.256254
20  1.128473 -0.000002 -0.000007  -0.000001 -0.000000 1.256252
21  4.416829 -0.015186 0.200541  0.074949 0.023518 1.257168
22  1.364869 0.000005 -0.000002  -0.000001 -0.000000 1.256253
23  1.364867 0.000009 -0.000008  -0.000001 -0.000000 1.256252
24  4.451077 -0.068734 1.121637  -0.190865 -0.062480 1.262158
25  1.107765 0.000006 -0.000004  -0.000001 0.000000 1.256253
26  1.107765 0.000004 -0.000000  -0.000001 -0.000000 1.256253
27  2.098158 0.045622 1.805203  -1.110958 -0.235899 0.313859
28  0.914512 -0.000002 -0.000003  0.000001 -0.000001 1.077398
29  0.914505 0.000006 0.000000  -0.000000 -0.000000 0.749987
30  -0.000006 0.001571 1.908399  -1.143412 -1.282744 -1.939685
31  3.867489 0.000004 -0.000003  -0.977746 -0.022409 -0.713486
32  14.390593 -0.000010 -0.000000  -0.000000 0.000000 -1.537457
33  11.595299 0.000083 -0.000023  -1.504755 -0.000010 -0.000001
34  4.415173 -0.060694 1.931084  0.059757 0.012709 1.374525
35  0.923139 0.000001 0.000006  0.000000 0.000000 1.374170
36  0.923138 -0.000001 0.000007  0.000000 0.000000 1.374170
37  4.449305 -0.067567 0.950412  -0.008714 -0.000924 1.374178
38  1.128465 0.000003 0.000006  0.000000 0.000000 1.374170
39  1.128465 0.000004 0.000009  0.000000 0.000000 1.374170
40  4.416837 -0.015160 -0.200524  -0.000156 0.000781 1.374170
41  1.364869 -0.000001 -0.000002  0.000000 0.000000 1.374170
42  1.364867 -0.000000 0.000003  0.000000 -0.000000 1.374170
43  4.451087 -0.068710 -1.121624  -0.000156 0.000781 1.374170
44  1.107770 0.000003 0.000007  0.000000 0.000000 1.374170
45  1.107779 -0.000003 0.000004  0.000000 -0.000000 1.374170
46  2.098167 0.045640 -1.805193  1.539940 0.393558 0.564622
47  0.914510 0.000008 0.000005  0.000000 -0.000000 0.795810
48  0.914509 0.000001 0.000004  -0.000000 -0.000001 0.608667
49  1.969141 0.000011 0.000000  0.279883 0.012916 -0.152294
50  -3.968329 0.006743 3.451355  -0.091102 -3.008136 -0.512113
51  17.254906 -0.000137 0.002862  -0.074059 -0.025035 -0.664382
52  17.254910 0.000167 -0.001209  -0.126512 -0.061505 0.041702
53  3.968615 5.003946 0.000005  0.000000 -0.000000 1.570796
54  -12.562155 9.533933 43.946270  0.087512 2.111549 0.016492
55  13.912616 7.305287 44.588154  -0.078788 0.981960 -0.177089
56  -18.343433 -20.478441 19.647869  -2.887451 1.570447 0.008423
57  4.631943 -27.881952 21.744459  2.886778 1.570447 0.004193
time 1
0  0.206110 0.760825 34.930042  0.021423 -0.078157 -1.639907
1  -0.000000 -0.000000 0.000000  -1.570784 -1.570451 0.000000
2  3.968637 -0.003571 0.000006  0.032916 0.000405 -0.091069
3  -3.968957 0.006762 -3.450627  0.509481 2.818142 -0.052979
4  17.254904 -0.000060 -0.001341  -0.040294 0.016563 -0.879053
5  17.254902 0.000077 -0.000255  0.253861 0.116497 0.535543
6  3.968578 5.003976 0.000002  0.000000 -0.000000 1.570796
7  4.486284 -0.003594 -0.000411  -0.157312 0.069962 0.599747
8  4.486285 -0.003594 -0.000411  -0.068703 -0.036720 0.459094
9  4.486279 -0.003596 -0.000411  -0.000000 -0.000000 -0.000000
10  4.486212 -0.001590 -0.000411  0.001855 -0.002386 -0.342836
11  0.000005 0.001575 -1.908400  2.658698 1.772878 -0.024362
12  3.867482 0.000009 0.000000  0.410778 -0.731020 0.014753
13  14.390604 -0.000080 0.000004  0.000000 0.000001 -2.056576
14  11.595293 0.000026 0.000020  1.929332 0.090438 -0.290125
15  4.415178 -0.060720 -1.931076  0.392303 0.122918 1.280873
16  0.923132 0.000003 -0.000000  -0.000002 0.000001 1.256255
17  0.923141 0.000001 -0.000002  -0.000001 -0.000000 1.256253
18  4.449306 -0.067586 -0.950398  0.191354 0.060961 1.262188
19  1.128474 0.000009 -0.000009  -0.000001 -0.000000 1.256254
20  1.128471 0.000003 -0.000011  -0.000001 -0.000000 1.256252
21  4.416828 -0.015184 0.200537  0.074948 0.023518 1.257168
22  1.364871 0.000006 -0.000007  -0.000001 -0.000000 1.256253
23  1.364867 0.000006 -0.000003  -0.000001 -0.000000 1.256253
24  4.451077 -0.068737 1.121634  -0.190865 -0.062480 1.262157
25  1.107772 0.000007 0.000001  -0.000001 0.000000 1.256253
26  1.107770 -0.000001 0.000001  -0.000001 -0.000000 1.256253
27  2.098160 0.045627 1.805206  -1.110958 -0.235899 0.313859
28  0.914513 0.000002 -0.000005  0.000001 -0.000002 1.077398
29  0.914512 0.000005 0.000000  -0.000000 -0.000000 0.749988
30  0.000001 0.001566 1.908401  -1.135029 -1.282744 -1.939685
31  3.867491 0.000004 -0.000007  -0.933331 0.231418 -0.570108
32  14.390598 -0.000007 -0.000007  -0.000000 0.000000 -1.522676
33  11.595305 0.000086 -0.000019  -1.504830 0.008284 0.000540
34  4.415166 -0.060700 1.931086  0.059757 0.012709 1.374525
35  0.923142 0.000011 0.000007  0.000000 0.000000 1.374170
36  0.923144 0.000008 0.000002  0.000000 0.000000 1.374170
37  4.449305 -0.067576 0.950411  -0.008714 -0.000924 1.374178
38  1.128472 0.000001 0.000006  0.000000 0.000000 1.374170
39  1.128469 0.000012 0.000009  0.000000 -0.000000 1.374170
40  4.416831 -0.015171 -0.200526  -0.000156 0.000781 1.374170
41  1.364868 0.000002 0.000000  0.000000 0.000000 1.374170
42  1.364861 -0.000002 0.000002  0.000000 -0.000000 1.374170
43  4.451080 -0.068714 -1.121623  -0.000156 0.000781 1.374170
44  1.107774 0.000014 0.000012  0.000000 0.000000 1.374170
45  1.107775 0.000001 0.000000  0.000000 -0.000000 1.374170
46  2.098165 0.045637 -1.805193  1.539940 0.393558 0.564622
47  0.914513 0.000011 0.000007  0.000000 -0.000000 0.795810
48  0.914514 -0.000002 0.000000  -0.000000 -0.000001 0.608667
49  1.969139 0.000013 0.000002  0.279858 0.009061 -0.142833
50  -3.968308 0.006743 3.451355  -0.057057 -3.027089 -0.458967
51  17.254911 -0.000136 0.002861  -0.070178 -0.022812 -0.662683
52  17.254902 0.000168 -0.001207  -0.119118 -0.054471 0.014697
53  3.968615 5.003944 0.000006  0.000000 0.000000 1.570796
54  -12.622862 10.676677 43.065449  0.234812 2.126648 0.157049
55  13.886705 8.887112 43.642143  -0.217661 0.972562 -0.277485
56  -17.826990 -21.467607 21.132206  -1.436486 1.648947 1.475568
57  4.960658 -28.099525 23.681646  1.198954 1.492644 -1.666027
time 2
0  0.235414 2.012395 34.343357  0.015407 -0.223305 -1.604125
1  0.000001 0.000000 -0.000003  -1.570791 -1.570451 -0.000003
2  3.968640 -0.003571 0.000006  0.117793 0.001688 -0.106462
3  -3.968945 0.006762 -3.450628  0.578351 2.821381 0.085282
4  17.254904 -0.000059 -0.001342  -0.014809 0.027346 -0.943657
5  17.254910 0.000075 -0.000255  0.273138 0.111361 0.549402
6  3.968579 5.003977 0.000001  0.000000 -0.000000 1.570796
7  4.486279 -0.003597 -0.000411  -0.133521 0.059381 0.509044
8  4.486289 -0.003594 -0.000411  -0.063331 -0.033849 0.428991
9  4.486286 -0.003593 -0.000411  0.000000 0.000000 -0.000000
10  4.486217 -0.001585 -0.000412  0.007106 -0.009271 -0.331895
11  0.000008 0.001574 -1.908399  2.484660 1.782806 -0.197247
12  3.867486 0.000005 0.000006  0.263022 -0.762619 0.164467
13  14.390594 -0.000080 0.000009  0.000000 0.000001 -2.056576
14  11.595289 0.000024 0.000024  1.922987 0.034629 -0.303370
15  4.415181 -0.060719 -1.931071  0.392303 0.122917 1.280873
16  0.923136 0.000003 -0.000005  -0.000002 0.000001 1.256255
17  0.923138 0.000006 0.000001  -0.000001 -0.000000 1.256253
18  4.449306 -0.067586 -0.950396  0.191354 0.060961 1.262188
19  1.128473 0.000011 -0.000013  -0.000001 -0.000000 1.256254
20  1.128470 0.000010 0.000007  -0.000001 -0.000000 1.256252
21  4.416828 -0.015178 0.200536  0.074949 0.023518 1.257168
22  1.364872 0.000005 0.000003  -0.000001 -0.000000 1.256253
23  1.364868 0.000005 -0.000003  -0.000001 -0.000000 1.256252
24  4.451078 -0.068735 1.121633  -0.190865 -0.062480 1.262158
25  1.107764 0.000007 0.000002  -0.000001 -0.000000 1.256253
26  1.107765 0.000001 -0.000001  -0.000001 -0.000000 1.256253
27  2.098162 0.045626 1.805202  -1.110958 -0.235899 0.313858
28  0.914512 -0.000005 -0.000005  0.000001 -0.000001 1.077398
29  0.914498 0.000000 0.000002  -0.000000 -0.000000 0.749988
30  0.000010 0.001563 1.908401  -1.112275 -1.282744 -1.939685
31  3.867483 -0.000000 -0.000004  -0.871031 0.477687 -0.360446
32  14.390598 -0.000008 -0.000008  -0.000000 0.000000 -1.483522
33  11.595298 0.000085 -0.000015  -1.504990 0.030794 0.002008
34  4.415174 -0.060698 1.931079  0.059757 0.012709 1.374525
35  0.923133 0.000003 0.000006  0.000000 0.000000 1.374170
36  0.923139 0.000009 0.000011  0.000000 -0.000000 1.374170
37  4.449303 -0.067571 0.950405  -0.008714 -0.000924 1.374178
38  1.128467 0.000006 0.000005  0.000000 0.000000 1.374170
39  1.128473 0.000009 0.000006  0.000000 -0.000000 1.374170
40  4.416838 -0.015163 -0.200529  -0.000156 0.000781 1.374170
41  1.364864 0.000005 -0.000000  0.000000 0.000000 1.374170
42  1.364861 0.000000 0.000003  0.000000 -0.000000 1.374170
43  4.451089 -0.068717 -1.121629  -0.000156 0.000781 1.374170
44  1.107768 -0.000003 0.000008  0.000000 0.000000 1.374170
45  1.107759 0.000006 0.000006  0.000000 -0.000000 1.374170
46  2.098168 0.045645 -1.805201  1.539940 0.393558 0.564622
47  0.914512 0.000009 -0.000004  0.000000 -0.000000 0.795810
48  0.914512 -0.000001 0.000006  -0.000000 -0.000001 0.608667
49  1.969149 0.000017 0.000001  0.279687 -0.001404 -0.117152
50  -3.968320 0.006742 3.451355  0.033339 -3.065119 -0.371558
51  17.254904 -0.000134 0.002861  -0.060469 -0.018281 -0.679838
52  17.254908 0.000166 -0.001209  -0.102889 -0.039468 -0.029737
53  3.968615 5.003945 0.000006  0.000000 -0.000000 1.570796
54  -12.850189 12.560488 41.169495  0.481508 2.179529 0.398355
55  13.711012 11.767834 41.577698  -0.460056 0.934005 -0.440599
56  -16.315958 -23.223742 24.027496  1.695686 1.347381 -1.640486
57  5.893926 -27.992527 27.290838  1.189539 1.347380 -1.640487
time 3
0  0.273514 2.686317 33.580669  0.007480 -0.301461 -1.560719
1  -0.000001 0.000000 0.000002  -1.570788 -1.570451 -0.000005
2  3.968635 -0.003571 0.000006  0.233850 0.003442 -0.127511
3  -3.968952 0.006765 -3.450627  0.678563 2.841816 0.196084
4  17.254904 -0.000054 -0.001342  0.005214 0.039977 -1.002082
5  17.254904 0.000082 -0.000256  0.301853 0.119374 0.577815
6  3.968579 5.003976 -0.000000  0.000000 -0.000000 1.570796
7  4.486283 -0.003596 -0.000411  -0.100991 0.044914 0.385023
8  4.486277 -0.003593 -0.000411  -0.055415 -0.029618 0.384628
9  4.486279 -0.003595 -0.000411  -0.000000 0.000000 0.000000
10  4.486213 -0.001586 -0.000412  0.015110 -0.019765 -0.315218
11  0.000001 0.001573 -1.908402  2.263790 1.807224 -0.416130
12  3.867485 0.000000 0.000002  0.221946 -0.751759 0.121613
13  14.390598 -0.000080 0.000016  0.000000 0.000001 -2.056577
14  11.595289 0.000024 0.000021  1.916439 -0.046728 -0.324588
15  4.415181 -0.060724 -1.931064  0.392303 0.122917 1.280873
16  0.923136 0.000004 -0.000014  -0.000002 0.000001 1.256255
17  0.923138 0.000004 -0.000007  -0.000001 -0.000000 1.256253
18  4.449306 -0.067591 -0.950390  0.191354 0.060961 1.262188
19  1.128473 0.000009 0.000000  -0.000001 -0.000000 1.256254
20  1.128472 0.000005 -0.000006  -0.000001 -0.000000 1.256252
21  4.416830 -0.015185 0.200544  0.074949 0.023518 1.257168
22  1.364872 0.000010 0.000010  -0.000001 -0.000000 1.256253
23  1.364867 0.000007 -0.000005  -0.000001 -0.000000 1.256252
24  4.451074 -0.068732 1.121639  -0.190865 -0.062480 1.262157
25  1.107771 0.000007 -0.000003  -0.000001 0.000000 1.256253
26  1.107765 0.000001 -0.000001  -0.000001 -0.000000 1.256253
27  2.098163 0.045618 1.805206  -1.110958 -0.235899 0.313858
28  0.914510 0.000005 -0.000004  0.000001 -0.000001 1.077398
29  0.914510 0.000000 -0.000001  -0.000000 -0.000000 0.749988
30  -0.000003 0.001563 1.908401  -1.078743 -1.282744 -1.939685
31  3.867488 0.000001 0.000000  -0.871115 0.499770 -0.373246
32  14.390604 -0.000004 -0.000007  -0.000000 0.000000 -1.427777
33  11.595300 0.000086 -0.000013  -1.505104 0.063967 0.004178
34  4.415168 -0.060698 1.931085  0.059757 0.012709 1.374525
35  0.923132 0.000006 0.000012  0.000000 0.000000 1.374170
36  0.923130 0.000002 0.000003  0.000000 0.000000 1.374170
37  4.449301 -0.067570 0.950408  -0.008714 -0.000924 1.374178
38  1.128470 0.000017 0.000015  0.000000 0.000000 1.374170
39  1.128461 0.000008 0.000006  0.000000 -0.000000 1.374170
40  4.416835 -0.015165 -0.200528  -0.000156 0.000781 1.374170
41  1.364868 -0.000009 0.000002  0.000000 0.000000 1.374170
42  1.364856 0.000005 0.000004  0.000000 -0.000000 1.374170
43  4.451079 -0.068715 -1.121628  -0.000156 0.000781 1.374170
44  1.107769 0.000010 0.000006  0.000000 0.000000 1.374170
45  1.107768 0.000002 -0.000001  0.000000 -0.000000 1.374170
46  2.098158 0.045640 -1.805190  1.539940 0.393558 0.564622
47  0.914513 0.000007 0.000007  0.000000 -0.000000 0.795810
48  0.914511 -0.000000 -0.000000  -0.000000 -0.000001 0.608667
49  1.969131 0.000016 0.000000  0.279221 -0.016825 -0.079307
50  -3.968318 0.006745 3.451355  0.155080 -3.114620 -0.360042
51  17.254904 -0.000136 0.002861  -0.047605 -0.013904 -0.754361
52  17.254904 0.000166 -0.001209  -0.086071 -0.027205 -0.034705
53  3.968615 5.003945 0.000005  0.000000 0.000000 1.570796
54  -13.191923 13.190983 39.698311  0.593490 2.222203 0.530236
55  13.381453 13.520704 39.896835  -0.581494 0.906372 -0.495934
56  -14.120617 -24.794659 25.284981  1.679786 1.268957 -1.614504
57  7.126444 -27.521069 28.826380  1.173640 1.268955 -1.614505
time 4
0  0.311618 2.597175 32.817978  -0.000600 -0.281272 -1.523377
1  0.000002 -0.000000 -0.000006  -1.570801 -1.570451 0.000003
2  3.968637 -0.003572 0.000006  0.360299 0.005354 -0.150444
3  -3.968963 0.006760 -3.450626  0.788993 2.862768 0.242482
4  17.254913 -0.000059 -0.001340  0.014725 0.051857 -1.051174
5  17.254900 0.000080 -0.000255  0.335312 0.139147 0.623552
6  3.968579 5.003976 0.000001  0.000000 -0.000000 1.570796
7  4.486276 -0.003597 -0.000410  -0.065547 0.029151 0.249895
8  4.486279 -0.003595 -0.000411  -0.045802 -0.024480 0.330758
9  4.486278 -0.003594 -0.000411  -0.000000 0.000000 -0.000000
10  4.486210 -0.001590 -0.000412  0.025256 -0.033066 -0.294079
11  0.000003 0.001572 -1.908401  2.057199 1.848351 -0.619855
12  3.867485 -0.000002 0.000000  0.203773 -0.718669 0.013314
13  14.390599 -0.000080 0.000014  0.000000 0.000001 -2.056577
14  11.595293 0.000025 0.000021  1.913405 -0.143875 -0.353579
15  4.415182 -0.060716 -1.931075  0.392303 0.122918 1.280873
16  0.923129 0.000003 0.000002  -0.000002 0.000001 1.256255
17  0.923139 -0.000000 -0.000007  -0.000001 -0.000000 1.256253
18  4.449308 -0.067592 -0.950397  0.191354 0.060961 1.262188
19  1.128471 0.000015 0.000000  -0.000001 -0.000000 1.256254
20  1.128473 0.000007 0.000001  -0.000001 -0.000000 1.256252
21  4.416828 -0.015178 0.200529  0.074949 0.023518 1.257168
22  1.364872 0.000010 -0.000011  -0.000001 -0.000000 1.256254
23  1.364869 0.000004 -0.000005  -0.000001 -0.000000 1.256252
24  4.451079 -0.068735 1.121635  -0.190865 -0.062480 1.262157
25  1.107773 0.000014 -0.000004  -0.000001 0.000000 1.256253
26  1.107766 0.000000 -0.000003  -0.000001 -0.000000 1.256253
27  2.098156 0.045632 1.805199  -1.110958 -0.235899 0.313859
28  0.914513 -0.000004 -0.000004  0.000001 -0.000001 1.077398
29  0.914508 0.000004 0.000003  -0.000000 -0.000000 0.749988
30  -0.000002 0.001564 1.908401  -1.038026 -1.282744 -1.939685
31  3.867484 0.000001 -0.000006  -0.865495 0.513408 -0.394360
32  14.390600 -0.000008 -0.000004  -0.000000 0.000000 -1.363224
33  11.595301 0.000085 -0.000012  -1.505050 0.104248 0.006832
34  4.415173 -0.060692 1.931081  0.059757 0.012709 1.374525
35  0.923135 -0.000005 0.000000  0.000000 0.000000 1.374170
36  0.923136 0.000001 0.000009  0.000000 -0.000000 1.374170
37  4.449297 -0.067576 0.950406  -0.008714 -0.000924 1.374178
38  1.128470 -0.000002 0.000011  0.000000 0.000000 1.374170
39  1.128462 0.000009 0.000003  0.000000 -0.000000 1.374170
40  4.416833 -0.015165 -0.200533  -0.000156 0.000781 1.374170
41  1.364871 0.000011 -0.000001  0.000000 0.000000 1.374170
42  1.364858 0.000004 0.000007  0.000000 -0.000000 1.374170
43  4.451083 -0.068713 -1.121633  -0.000156 0.000781 1.374170
44  1.107770 0.000009 0.000009  0.000000 0.000000 1.374170
45  1.107769 -0.000004 0.000003  0.000000 -0.000000 1.374170
46  2.098166 0.045640 -1.805196  1.539940 0.393558 0.564622
47  0.914512 0.000003 0.000010  0.000000 -0.000000 0.795810
48  0.914510 -0.000002 0.000007  -0.000000 -0.000001 0.608667
49  1.969137 0.000016 0.000001  0.278315 -0.035551 -0.033353
50  -3.968323 0.006741 3.451355  0.275636 3.093918 -0.428604
51  17.254910 -0.000137 0.002860  -0.034981 -0.009904 -0.860644
52  17.254906 0.000164 -0.001208  -0.073170 -0.022387 -0.003090
53  3.968615 5.003948 0.000005  0.000000 0.000000 1.570796
54  -13.458989 12.499593 39.252567  0.558102 2.219210 0.537082
55  13.087379 13.757645 39.246033  -0.558483 0.922817 -0.442680
56  -11.886324 -26.090435 23.901855  1.648057 1.288556 -1.609870
57  8.173965 -27.251019 27.403086  1.141911 1.288554 -1.609871
time 5
0  0.340931 2.358271 32.231293  -0.006897 -0.243779 -1.507431
1  0.000000 0.000000 0.000002  -1.570792 -1.570451 0.000000
2  3.968635 -0.003573 0.000006  0.476356 0.007109 -0.171493
3  -3.968962 0.006764 -3.450628  0.885442 2.885228 0.269468
4  17.254906 -0.000057 -0.001340  0.017040 0.059952 -1.083543
5  17.254911 0.000073 -0.000252  0.361171 0.157111 0.661743
6  3.968579 5.003976 -0.000000  0.000000 -0.000000 1.570796
7  4.486276 -0.003592 -0.000411  -0.033016 0.014683 0.125873
8  4.486275 -0.003594 -0.000411  -0.035341 -0.018889 0.272135
9  4.486276 -0.003594 -0.000410  0.000000 -0.000000 -0.000000
10  4.486207 -0.001589 -0.000412  0.036931 -0.048373 -0.269754
11  0.000007 0.001572 -1.908401  1.894624 1.902191 -0.778756
12  3.867483 0.000000 0.000005  0.195776 -0.661817 -0.127300
13  14.390600 -0.000080 0.000001  0.000000 0.000001 -2.056576
14  11.595293 0.000022 0.000011  1.917040 -0.247139 -0.390030
15  4.415178 -0.060722 -1.931079  0.392303 0.122917 1.280873
16  0.923142 0.000003 0.000000  -0.000002 0.000001 1.256255
17  0.923140 0.000004 -0.000002  -0.000001 -0.000000 1.256254
18  4.449305 -0.067591 -0.950403  0.191354 0.060961 1.262188
19  1.128477 0.000012 -0.000001  -0.000001 -0.000000 1.256254
20  1.128475 0.000005 -0.000009  -0.000001 -0.000000 1.256252
21  4.416829 -0.015187 0.200535  0.074949 0.023518 1.257168
22  1.364876 0.000008 -0.000003  -0.000001 -0.000000 1.256254
23  1.364869 0.000005 -0.000004  -0.000001 -0.000000 1.256252
24  4.451077 -0.068740 1.121635  -0.190865 -0.062480 1.262157
25  1.107772 0.000008 -0.000006  -0.000001 0.000000 1.256253
26  1.107774 -0.000000 -0.000000  -0.000001 -0.000000 1.256253
27  2.098160 0.045626 1.805195  -1.110958 -0.235899 0.313859
28  0.914510 0.000002 -0.000007  0.000001 -0.000002 1.077398
29  0.914510 0.000001 -0.000002  -0.000000 -0.000000 0.749987
30  0.000002 0.001563 1.908403  -0.993716 -1.282744 -1.939685
31  3.867487 0.000002 -0.000003  -0.856700 0.519513 -0.422520
32  14.390595 -0.000011 -0.000008  0.000000 0.000000 -1.297019
33  11.595302 0.000085 -0.000012  -1.504746 0.148080 0.009758
34  4.415172 -0.060699 1.931088  0.059757 0.012709 1.374525
35  0.923135 0.000009 0.000009  0.000000 0.000000 1.374170
36  0.923134 0.000002 -0.000003  0.000000 -0.000000 1.374170
37  4.449298 -0.067564 0.950412  -0.008714 -0.000924 1.374178
38  1.128468 0.000009 0.000006  0.000000 0.000000 1.374170
39  1.128475 0.000011 0.000001  0.000000 -0.000000 1.374170
40  4.416824 -0.015162 -0.200526  -0.000156 0.000781 1.374170
41  1.364868 0.000003 0.000002  0.000000 0.000000 1.374170
42  1.364859 0.000002 0.000002  0.000000 -0.000000 1.374170
43  4.451082 -0.068718 -1.121618  -0.000156 0.000781 1.374170
44  1.107769 0.000003 0.000010  0.000000 0.000000 1.374170
45  1.107774 0.000000 -0.000006  0.000000 -0.000000 1.374170
46  2.098163 0.045640 -1.805194  1.539940 0.393558 0.564622
47  0.914513 0.000000 0.000006  0.000000 -0.000000 0.795810
48  0.914510 0.000003 0.000001  -0.000000 -0.000001 0.608667
49  1.969144 0.000017 0.000002  0.276821 -0.055930 0.016656
50  -3.968320 0.006746 3.451354  0.377252 3.019353 -0.486255
51  17.254911 -0.000138 0.002862  -0.027657 -0.007881 -0.942313
52  17.254900 0.000167 -0.001209  -0.068006 -0.024096 0.025489
53  3.968615 5.003948 0.000005  0.000000 0.000000 1.570796
54  -13.513846 11.815506 39.137619  0.497627 2.207842 0.502980
55  13.011063 13.456573 38.968609  -0.506900 0.945231 -0.386890
56  -10.322192 -26.943813 22.142998  1.609690 1.325204 -1.632604
57  8.579144 -27.152142 25.649549  1.103544 1.325202 -1.632604
time 6
0  0.352657 2.012395 31.996618  -0.009435 -0.223590 -1.507431
1  0.000001 -0.000000 -0.000003  -1.570796 -1.570451 -0.000003
2  3.968639 -0.003571 0.000006  0.561233 0.008392 -0.186886
3  -3.968948 0.006765 -3.450629  0.951552 2.918113 0.300823
4  17.254910 -0.000054 -0.001341  0.016614 0.063425 -1.081859
5  17.254908 0.000081 -0.000253  0.377104 0.169593 0.680044
6  3.968579 5.003976 0.000001  0.000000 0.000000 1.570796
7  4.486282 -0.003593 -0.000412  -0.009225 0.004103 0.035170
8  4.486280 -0.003595 -0.000410  -0.024880 -0.013298 0.213513
9  4.486282 -0.003595 -0.000412  0.000000 0.000000 -0.000000
10  4.486205 -0.001590 -0.000411  0.049524 -0.064882 -0.243517
11  -0.000007 0.001573 -1.908398  1.776692 1.961707 -0.892441
12  3.867485 -0.000001 0.000007  0.186969 -0.584253 -0.269957
13  14.390597 -0.000080 0.000012  0.000000 0.000001 -2.056577
14  11.595289 0.000025 0.000021  1.929054 -0.347272 -0.432786
15  4.415179 -0.060712 -1.931077  0.392303 0.122917 1.280873
16  0.923141 0.000002 -0.000004  -0.000002 0.000001 1.256255
17  0.923137 0.000007 -0.000001  -0.000001 -0.000000 1.256253
18  4.449307 -0.067590 -0.950399  0.191354 0.060961 1.262188
19  1.128476 0.000009 0.000006  -0.000001 -0.000000 1.256254
20  1.128469 0.000006 0.000001  -0.000001 -0.000000 1.256252
21  4.416829 -0.015185 0.200536  0.074949 0.023518 1.257168
22  1.364872 0.000009 -0.000002  -0.000001 -0.000000 1.256253
23  1.364869 0.000002 -0.000003  -0.000001 -0.000000 1.256252
24  4.451077 -0.068740 1.121638  -0.190865 -0.062480 1.262157
25  1.107767 0.000004 0.000000  -0.000001 0.000000 1.256253
26  1.107764 0.000002 -0.000004  -0.000001 -0.000000 1.256253
27  2.098162 0.045633 1.805198  -1.110958 -0.235899 0.313859
28  0.914511 -0.000010 -0.000005  0.000001 -0.000001 1.077398
29  0.914506 0.000004 0.000002  -0.000000 -0.000000 0.749988
30  -0.000003 0.001565 1.908403  -0.949405 -1.282744 -1.939685
31  3.867489 0.000004 -0.000001  -0.847157 0.518995 -0.456218
32  14.390598 -0.000010 -0.000005  0.000000 0.000000 -1.233818
33  11.595301 0.000083 -0.000016  -1.504183 0.191908 0.012742
34  4.415175 -0.060700 1.931086  0.059757 0.012709 1.374525
35  0.923136 0.000006 0.000002  0.000000 0.000000 1.374170
36  0.923136 0.000003 0.000010  0.000000 -0.000000 1.374170
37  4.449306 -0.067571 0.950411  -0.008714 -0.000924 1.374178
38  1.128469 0.000008 0.000010  0.000000 0.000000 1.374170
39  1.128472 0.000006 0.000007  0.000000 -0.000000 1.374170
40  4.416832 -0.015162 -0.200526  -0.000156 0.000781 1.374170
41  1.364870 0.000003 -0.000002  0.000000 0.000000 1.374170
42  1.364861 -0.000000 -0.000005  0.000000 -0.000000 1.374170
43  4.451085 -0.068717 -1.121617  -0.000156 0.000781 1.374170
44  1.107769 0.000006 0.000002  0.000000 0.000000 1.374170
45  1.107778 -0.000002 -0.000002  0.000000 -0.000000 1.374170
46  2.098162 0.045640 -1.805188  1.539940 0.393558 0.564622
47  0.914510 0.000011 0.000003  0.000000 -0.000000 0.795810
48  0.914509 0.000003 0.000005  -0.000000 -0.000001 0.608667
49  1.969139 0.000020 0.000003  0.274592 -0.076308 0.066666
50  -3.968314 0.006743 3.451354  0.452038 2.973560 -0.502493
51  17.254913 -0.000140 0.002861  -0.024451 -0.007857 -0.986318
52  17.254902 0.000166 -0.001208  -0.068466 -0.029836 0.047462
53  3.968615 5.003945 0.000006  0.000000 0.000000 1.570796
54  -13.470303 11.337296 39.142502  0.464869 2.201745 0.475999
55  13.054811 12.966814 38.906902  -0.477251 0.956040 -0.363349
56  -9.488194 -27.652077 21.196930  1.587475 1.344871 -1.654794
57  8.547768 -27.365070 24.795456  1.081328 1.344870 -1.654795
time 7
0  0.351249 1.602337 32.024864  -0.009435 -0.223590 -1.507431
1  0.000000 0.000000 -0.000000  -1.570796 -1.570451 -0.000003
2  3.968644 -0.003571 0.000006  0.594145 0.008889 -0.192855
3  -3.968962 0.006763 -3.450628  0.976322 2.949455 0.330231
4  17.254902 -0.000059 -0.001339  0.016047 0.063819 -1.059410
5  17.254902 0.000081 -0.000255  0.385160 0.176320 0.683906
6  3.968579 5.003976 0.000001  0.000000 0.000000 1.570796
7  4.486276 -0.003597 -0.000412  0.000000 0.000000 -0.000000
8  4.486280 -0.003596 -0.000412  -0.015267 -0.008160 0.159643
9  4.486279 -0.003593 -0.000411  0.000000 -0.000000 0.000000
10  4.486211 -0.001589 -0.000411  0.062422 -0.081793 -0.216642
11  0.000005 0.001571 -1.908401  1.694379 2.019478 -0.970354
12  3.867482 -0.000002 0.000001  0.173013 -0.496002 -0.393691
13  14.390602 -0.000080 0.000007  0.000000 0.000001 -2.056577
14  11.595291 0.000025 0.000027  1.948743 -0.435885 -0.478901
15  4.415178 -0.060722 -1.931074  0.392303 0.122917 1.280873
16  0.923134 0.000004 -0.000007  -0.000002 0.000001 1.256255
17  0.923140 0.000002 -0.000000  -0.000001 -0.000000 1.256253
18  4.449306 -0.067590 -0.950399  0.191354 0.060961 1.262188
19  1.128470 0.000012 -0.000002  -0.000001 -0.000000 1.256254
20  1.128471 -0.000002 -0.000003  -0.000001 -0.000000 1.256252
21  4.416830 -0.015180 0.200538  0.074949 0.023518 1.257168
22  1.364873 0.000009 -0.000003  -0.000001 -0.000000 1.256253
23  1.364873 0.000007 -0.000002  -0.000001 -0.000000 1.256252
24  4.451079 -0.068737 1.121638  -0.190865 -0.062480 1.262157
25  1.107763 0.000007 -0.000002  -0.000001 0.000000 1.256253
26  1.107768 0.000002 -0.000005  -0.000001 -0.000000 1.256253
27  2.098161 0.045623 1.805203  -1.110958 -0.235899 0.313858
28  0.914513 0.000004 -0.000003  0.000001 -0.000002 1.077398
29  0.914512 0.000006 0.000001  -0.000000 -0.000000 0.749987
30  -0.000003 0.001562 1.908400  -0.908688 -1.282744 -1.939685
31  3.867485 0.000003 -0.000012  -0.839273 0.512820 -0.493853
32  14.390599 -0.000012 -0.000006  0.000000 0.000000 -1.177649
33  11.595300 0.000084 -0.000015  -1.503428 0.232178 0.015550
34  4.415171 -0.060695 1.931087  0.059757 0.012709 1.374525
35  0.923133 0.000003 0.000009  0.000000 0.000000 1.374170
36  0.923133 0.000006 0.000012  0.000000 0.000000 1.374170
37  4.449303 -0.067566 0.950418  -0.008714 -0.000924 1.374178
38  1.128474 0.000008 0.000005  0.000000 0.000000 1.374170
39  1.128468 0.000006 0.000009  0.000000 -0.000000 1.374170
40  4.416833 -0.015160 -0.200524  -0.000156 0.000781 1.374170
41  1.364867 -0.000001 0.000003  0.000000 0.000000 1.374170
42  1.364859 0.000004 -0.000001  0.000000 -0.000000 1.374170
43  4.451092 -0.068710 -1.121629  -0.000156 0.000781 1.374170
44  1.107771 0.000006 0.000007  0.000000 0.000000 1.374170
45  1.107769 0.000001 0.000001  0.000000 -0.000000 1.374170
46  2.098161 0.045639 -1.805197  1.539940 0.393558 0.564622
47  0.914516 0.000005 0.000003  0.000000 -0.000000 0.795810
48  0.914512 0.000002 0.000005  -0.000000 -0.000001 0.608667
49  1.969141 0.000016 -0.000002  0.271482 -0.095035 0.112620
50  -3.968323 0.006745 3.451354  0.484679 2.964083 -0.492531
51  17.254910 -0.000141 0.002861  -0.022225 -0.007767 -1.003937
52  17.254904 0.000170 -0.001209  -0.068813 -0.033966 0.066150
53  3.968615 5.003945 0.000007  0.000000 -0.000000 1.570796
54  -13.471709 10.927237 39.170746  0.464869 2.201745 0.475999
55  13.053403 12.556755 38.935146  -0.477251 0.956040 -0.363349
56  -9.149071 -28.285404 21.160143  1.587475 1.344871 -1.654794
57  8.546358 -27.775129 24.823700  1.081328 1.344870 -1.654795
time 8
0  0.347235 1.170883 32.105263  -0.009435 -0.223590 -1.507431
1  0.000001 -0.000000 0.000000  -1.570796 -1.570451 -0.000003
2  3.968639 -0.003572 0.000006  0.588219 0.008800 -0.191780
3  -3.968949 0.006761 -3.450624  0.971218 2.963021 0.342953
4  17.254900 -0.000058 -0.001343  0.014195 0.062891 -1.041107
5  17.254908 0.000080 -0.000254  0.388202 0.179570 0.687343
6  3.968579 5.003977 0.000001  0.000000 0.000000 1.570796
7  4.486284 -0.003594 -0.000409  -0.001661 0.000739 0.006332
8  4.486282 -0.003595 -0.000413  -0.007351 -0.003929 0.115280
9  4.486279 -0.003595 -0.000411  -0.000000 -0.000000 -0.000000
10  4.486208 -0.001587 -0.000413  0.075015 -0.098303 -0.190405
11  0.000004 0.001574 -1.908406  -1.502087 1.073068 2.120345
12  3.867490 0.000001 -0.000001  0.156359 -0.412153 -0.487563
13  14.390595 -0.000080 0.000012  0.000000 0.000001 -2.056577
14  11.595291 0.000024 0.000019  1.972174 -0.505883 -0.522772
15  4.415172 -0.060721 -1.931069  0.392303 0.122917 1.280873
16  0.923134 0.000007 -0.000003  -0.000002 0.000001 1.256255
17  0.923139 0.000001 -0.000003  -0.000001 -0.000000 1.256253
18  4.449303 -0.067590 -0.950390  0.191354 0.060961 1.262188
19  1.128472 0.000010 -0.000000  -0.000001 -0.000000 1.256254
20  1.128473 0.000014 0.000001  -0.000001 -0.000000 1.256252
21  4.416827 -0.015181 0.200547  0.074948 0.023518 1.257168
22  1.364878 0.000008 -0.000002  -0.000001 -0.000000 1.256253
23  1.364867 0.000006 -0.000009  -0.000001 -0.000000 1.256252
24  4.451076 -0.068732 1.121641  -0.190865 -0.062480 1.262157
25  1.107772 0.000006 -0.000009  -0.000001 0.000000 1.256253
26  1.107768 0.000004 0.000001  -0.000001 -0.000000 1.256253
27  2.098157 0.045623 1.805207  -1.110958 -0.235899 0.313858
28  0.914511 0.000005 -0.000002  0.000001 -0.000001 1.077398
29  0.914509 0.000004 0.000001  -0.000000 -0.000000 0.749988
30  -0.000004 0.001565 1.908396  -0.875156 -1.282744 -1.939686
31  3.867486 0.000003 -0.000007  -0.835507 0.502052 -0.533853
32  14.390596 -0.000015 -0.000006  0.000000 0.000000 -1.132540
33  11.595297 0.000082 -0.000013  -1.502632 0.265339 0.017922
34  4.415174 -0.060695 1.931088  0.059757 0.012709 1.374525
35  0.923134 0.000003 0.000014  0.000000 0.000000 1.374170
36  0.923141 0.000006 0.000003  0.000000 0.000000 1.374170
37  4.449301 -0.067568 0.950415  -0.008714 -0.000924 1.374178
38  1.128468 0.000002 0.000013  0.000000 0.000000 1.374170
39  1.128474 0.000011 0.000006  0.000000 0.000000 1.374170
40  4.416830 -0.015159 -0.200521  -0.000156 0.000781 1.374170
41  1.364869 -0.000003 -0.000002  0.000000 0.000000 1.374170
42  1.364859 0.000003 0.000002  0.000000 -0.000000 1.374170
43  4.451084 -0.068707 -1.121624  -0.000156 0.000781 1.374170
44  1.107770 0.000005 0.000010  0.000000 0.000000 1.374170
45  1.107769 -0.000001 0.000005  0.000000 -0.000000 1.374170
46  2.098166 0.045641 -1.805194  1.539940 0.393558 0.564622
47  0.914515 0.000016 0.000009  0.000000 -0.000000 0.795810
48  0.914508 0.000002 0.000002  -0.000000 -0.000000 0.608668
49  1.969139 0.000022 -0.000003  0.267343 -0.110456 0.150465
50  -3.968313 0.006744 3.451354  0.482196 2.971810 -0.487477
51  17.254910 -0.000142 0.002861  -0.021275 -0.007933 -1.015570
52  17.254900 0.000168 -0.001209  -0.069463 -0.036639 0.086326
53  3.968615 5.003946 0.000005  0.000000 0.000000 1.570796
54  -13.475719 10.495784 39.251144  0.464869 2.201745 0.475999
55  13.049389 12.125302 39.015545  -0.477251 0.956040 -0.363349
56  -9.153084 -28.716856 21.240541  1.587475 1.344871 -1.654794
57  8.542345 -28.206583 24.904097  1.081328 1.344870 -1.654795
time 9
0  0.340941 0.760825 32.231293  -0.009435 -0.223590 -1.507431
1  -0.000001 0.000000 -0.000004  -1.570796 -1.570451 -0.000003
2  3.968641 -0.003570 0.000006  0.571409 0.008546 -0.188732
3  -3.968955 0.006765 -3.450626  0.955840 2.972438 0.350622
4  17.254906 -0.000057 -0.001343  0.013547 0.062007 -1.020572
5  17.254908 0.000077 -0.000255  0.390852 0.181624 0.688136
6  3.968579 5.003976 0.000001  0.000000 -0.000000 1.570796
7  4.486285 -0.003592 -0.000410  -0.006373 0.002834 0.024296
8  4.486278 -0.003595 -0.000411  -0.001979 -0.001058 0.085176
9  4.486285 -0.003595 -0.000412  -0.000000 0.000000 -0.000000
10  4.486217 -0.001590 -0.000412  0.086690 -0.113610 -0.166080
11  -0.000002 0.001573 -1.908400  -1.534358 1.039231 2.090957
12  3.867485 -0.000004 0.000010  0.142665 -0.349775 -0.546808
13  14.390599 -0.000077 0.000013  0.000000 0.000001 -2.056577
14  11.595291 0.000027 0.000028  1.992265 -0.551576 -0.556042
15  4.415179 -0.060713 -1.931076  0.392303 0.122917 1.280873
16  0.923131 0.000001 -0.000003  -0.000002 0.000001 1.256255
17  0.923139 0.000008 -0.000002  -0.000001 -0.000000 1.256253
18  4.449303 -0.067577 -0.950402  0.191354 0.060961 1.262188
19  1.128466 0.000008 -0.000005  -0.000001 -0.000000 1.256254
20  1.128469 0.000003 -0.000004  -0.000001 -0.000000 1.256252
21  4.416834 -0.015175 0.200534  0.074948 0.023518 1.257168
22  1.364870 0.000007 -0.000008  -0.000001 -0.000000 1.256253
23  1.364871 0.000011 -0.000004  -0.000001 -0.000000 1.256252
24  4.451080 -0.068738 1.121636  -0.190865 -0.062480 1.262157
25  1.107771 0.000008 -0.000005  -0.000001 0.000000 1.256253
26  1.107770 0.000008 -0.000000  -0.000001 -0.000000 1.256253
27  2.098163 0.045635 1.805197  -1.110958 -0.235899 0.313859
28  0.914512 0.000003 -0.000006  0.000001 -0.000001 1.077398
29  0.914503 0.000004 0.000000  -0.000000 -0.000000 0.749988
30  -0.000005 0.001562 1.908400  -0.852402 -1.282744 -1.939686
31  3.867490 0.000003 -0.000007  -0.838434 0.487870 -0.574770
32  14.390598 -0.000005 -0.000008  0.000000 0.000000 -1.102520
33  11.595294 0.000092 -0.000016  -1.501998 0.287838 0.019566
34  4.415180 -0.060695 1.931083  0.059757 0.012709 1.374525
35  0.923136 0.000002 0.000012  0.000000 0.000000 1.374170
36  0.923131 0.000005 0.000006  0.000000 0.000000 1.374170
37  4.449304 -0.067569 0.950416  -0.008714 -0.000924 1.374177
38  1.128473 0.000007 0.000004  0.000000 0.000000 1.374170
39  1.128473 0.000011 0.000010  0.000000 -0.000000 1.374170
40  4.416834 -0.015165 -0.200521  -0.000156 0.000781 1.374170
41  1.364868 -0.000004 -0.000008  0.000000 0.000000 1.374170
42  1.364861 0.000002 0.000000  0.000000 -0.000000 1.374170
43  4.451083 -0.068712 -1.121627  -0.000156 0.000781 1.374170
44  1.107768 0.000004 0.000012  0.000000 0.000000 1.374170
45  1.107775 -0.000000 0.000006  0.000000 -0.000000 1.374170
46  2.098168 0.045636 -1.805197  1.539940 0.393558 0.564622
47  0.914514 0.000017 -0.000002  0.000000 -0.000000 0.795810
48  0.914512 -0.000004 0.000002  -0.000000 -0.000001 0.608668
49  1.969141 0.000017 0.000001  0.262029 -0.120921 0.176146
50  -3.968316 0.006744 3.451355  0.469966 2.985137 -0.481391
51  17.254913 -0.000141 0.002860  -0.020776 -0.008138 -1.019982
52  17.254904 0.000167 -0.001208  -0.070159 -0.038674 0.103774
53  3.968615 5.003944 0.000006  0.000000 0.000000 1.570796
54  -13.482016 10.085724 39.377174  0.464869 2.201745 0.475999
55  13.043097 11.715243 39.141575  -0.477251 0.956040 -0.363349
56  -9.159380 -29.126917 21.366571  1.587475 1.344871 -1.654794
57  8.536051 -28.616640 25.030128  1.081328 1.344870 -1.654795
time 10
0  0.332692 0.414949 32.396435  -0.009012 -0.220741 -1.509308
1  0.000000 -0.000000 -0.000001  -1.570794 -1.570451 -0.000007
2  3.968646 -0.003571 0.000006  0.545167 0.008149 -0.183972
3  -3.968956 0.006761 -3.450625  0.931223 2.974364 0.349682
4  17.254906 -0.000059 -0.001342  0.013789 0.061089 -1.000744
5  17.254910 0.000078 -0.000254  0.392236 0.182112 0.686446
6  3.968579 5.003976 0.000000  0.000000 -0.000000 1.570796
7  4.486279 -0.003595 -0.000410  -0.013729 0.006105 0.052339
8  4.486282 -0.003596 -0.000412  -0.000000 0.000000 0.074085
9  4.486289 -0.003595 -0.000412  -0.000000 -0.000000 0.000000
10  4.486201 -0.001589 -0.000410  0.096836 -0.126911 -0.144942
11  0.000003 0.001571 -1.908402  -1.545408 1.026672 2.081007
12  3.867486 -0.000001 -0.000003  0.137271 -0.325553 -0.567841
13  14.390599 -0.000080 0.000012  0.000000 0.000001 -2.056577
14  11.595289 0.000027 0.000017  2.000591 -0.567999 -0.569082
15  4.415174 -0.060725 -1.931073  0.392303 0.122917 1.280873
16  0.923137 0.000003 -0.000002  -0.000002 0.000001 1.256255
17  0.923137 -0.000004 -0.000003  -0.000001 -0.000000 1.256253
18  4.449304 -0.067594 -0.950399  0.191354 0.060961 1.262188
19  1.128472 0.000011 -0.000003  -0.000001 -0.000000 1.256254
20  1.128471 0.000009 -0.000003  -0.000001 -0.000000 1.256252
21  4.416826 -0.015184 0.200539  0.074948 0.023518 1.257168
22  1.364864 0.000010 -0.000005  -0.000001 -0.000000 1.256253
23  1.364868 0.000011 -0.000008  -0.000001 -0.000000 1.256252
24  4.451071 -0.068738 1.121643  -0.190865 -0.062480 1.262157
25  1.107772 0.000009 -0.000002  -0.000001 0.000000 1.256253
26  1.107770 0.000004 -0.000003  -0.000001 -0.000000 1.256253
27  2.098155 0.045628 1.805203  -1.110958 -0.235899 0.313858
28  0.914510 0.000004 -0.000004  0.000001 -0.000001 1.077398
29  0.914517 0.000004 -0.000001  -0.000000 -0.000000 0.749988
30  -0.000004 0.001562 1.908401  -0.844019 -1.282744 -1.939686
31  3.867480 0.000001 -0.000000  -0.850785 0.471571 -0.615349
32  14.390596 -0.000008 -0.000006  0.000000 0.000000 -1.091619
33  11.595299 0.000081 -0.000013  -1.501745 0.296127 0.020180
34  4.415173 -0.060696 1.931081  0.059757 0.012709 1.374525
35  0.923139 0.000006 0.000006  0.000000 0.000000 1.374170
36  0.923140 0.000005 -0.000002  0.000000 -0.000000 1.374170
37  4.449306 -0.067573 0.950406  -0.008714 -0.000924 1.374178
38  1.128472 0.000005 0.000006  0.000000 0.000000 1.374170
39  1.128465 0.000009 0.000007  0.000000 -0.000000 1.374170
40  4.416833 -0.015162 -0.200524  -0.000156 0.000781 1.374170
41  1.364868 0.000002 -0.000001  0.000000 0.000000 1.374170
42  1.364860 0.000000 0.000001  0.000000 -0.000000 1.374170
43  4.451083 -0.068710 -1.121631  -0.000156 0.000781 1.374170
44  1.107767 0.000005 0.000004  0.000000 0.000000 1.374170
45  1.107775 0.000001 0.000001  0.000000 -0.000000 1.374170
46  2.098166 0.045639 -1.805200  1.539940 0.393558 0.564622
47  0.914513 0.000001 0.000002  0.000000 -0.000000 0.795810
48  0.914508 0.000001 0.000005  -0.000000 -0.000000 0.608667
49  1.969136 0.000017 0.000001  0.255392 -0.124776 0.185607
50  -3.968318 0.006742 3.451356  0.448035 3.002070 -0.476833
51  17.254906 -0.000133 0.002860  -0.021265 -0.008658 -1.016033
52  17.254910 0.000167 -0.001210  -0.071475 -0.040272 0.116574
53  3.968615 5.003946 0.000005  0.000000 0.000000 1.570796
54  -13.475307 9.743960 39.565830  0.460718 2.200228 0.470861
55  13.052727 11.326817 39.341064  -0.472453 0.956837 -0.361212
56  -9.218346 -29.424501 21.443798  1.587432 1.347750 -1.656620
57  8.477095 -28.956314 25.112911  1.081285 1.347748 -1.656620
time 11
0  0.322815 0.176046 32.594170  -0.007820 -0.212725 -1.514591
1  0.000001 0.000000 0.000004  -1.570791 -1.570451 -0.000007
2  3.968638 -0.003572 0.000006  0.510943 0.007631 -0.177765
3  -3.968953 0.006761 -3.450624  0.898139 2.966608 0.336552
4  17.254908 -0.000055 -0.001340  0.014668 0.060099 -0.984206
5  17.254906 0.000076 -0.000254  0.391575 0.180719 0.682239
6  3.968579 5.003975 -0.000001  0.000000 0.000000 1.570796
7  4.486293 -0.003594 -0.000411  -0.023321 0.010372 0.088912
8  4.486272 -0.003598 -0.000412  -0.001030 -0.000551 0.079860
9  4.486279 -0.003592 -0.000413  -0.000000 -0.000000 0.000000
10  4.486212 -0.001589 -0.000411  0.104840 -0.137405 -0.128265
11  0.000003 0.001577 -1.908401  -1.539707 1.033216 2.086132
12  3.867488 0.000000 0.000001  0.143840 -0.331566 -0.563136
13  14.390597 -0.000080 0.000011  0.000000 0.000001 -2.056577
14  11.595288 0.000025 0.000023  1.996192 -0.559478 -0.562239
15  4.415184 -0.060721 -1.931073  0.392303 0.122917 1.280873
16  0.923146 0.000000 -0.000005  -0.000002 0.000001 1.256255
17  0.923138 0.000004 0.000001  -0.000001 -0.000000 1.256253
18  4.449306 -0.067592 -0.950394  0.191354 0.060961 1.262188
19  1.128472 0.000010 0.000003  -0.000001 -0.000000 1.256254
20  1.128470 0.000007 -0.000004  -0.000001 -0.000000 1.256252
21  4.416831 -0.015188 0.200539  0.074949 0.023518 1.257168
22  1.364877 0.000007 -0.000001  -0.000001 -0.000000 1.256253
23  1.364869 -0.000002 -0.000006  -0.000001 -0.000000 1.256252
24  4.451077 -0.068742 1.121644  -0.190865 -0.062480 1.262157
25  1.107767 0.000007 -0.000006  -0.000001 0.000000 1.256253
26  1.107770 -0.000007 -0.000002  -0.000001 -0.000000 1.256253
27  2.098162 0.045622 1.805202  -1.110958 -0.235899 0.313859
28  0.914508 0.000001 -0.000001  0.000001 -0.000001 1.077398
29  0.914513 0.000004 -0.000001  -0.000000 -0.000000 0.749988
30  0.000004 0.001563 1.908403  -0.848383 -1.282744 -1.939685
31  3.867490 0.000004 -0.000005  -0.867476 0.449372 -0.651843
32  14.390599 -0.000013 -0.000009  0.000000 0.000001 -1.098117
33  11.595301 0.000090 -0.000010  -1.501878 0.291811 0.019860
34  4.415173 -0.060699 1.931085  0.059757 0.012709 1.374525
35  0.923136 0.000001 0.000006  0.000000 0.000000 1.374170
36  0.923137 0.000003 0.000005  0.000000 -0.000000 1.374170
37  4.449304 -0.067569 0.950410  -0.008714 -0.000924 1.374178
38  1.128474 0.000005 0.000013  0.000000 0.000000 1.374170
39  1.128473 0.000009 0.000008  0.000000 -0.000000 1.374170
40  4.416831 -0.015164 -0.200523  -0.000156 0.000781 1.374170
41  1.364865 0.000007 -0.000005  0.000000 0.000000 1.374170
42  1.364862 0.000001 -0.000005  0.000000 -0.000000 1.374170
43  4.451087 -0.068714 -1.121624  -0.000156 0.000781 1.374170
44  1.107769 0.000006 0.000008  0.000000 0.000000 1.374170
45  1.107772 -0.000001 -0.000009  0.000000 -0.000000 1.374170
46  2.098164 0.045635 -1.805197  1.539940 0.393558 0.564622
47  0.914512 0.000012 -0.000001  0.000000 -0.000000 0.795810
48  0.914513 0.000001 0.000002  -0.000000 -0.000001 0.608667
49  1.969143 0.000019 0.000002  0.218296 -0.104654 0.168921
50  -3.968315 0.006742 3.451355  0.416758 3.020947 -0.475953
51  17.254913 -0.000138 0.002861  -0.023189 -0.009696 -1.002690
52  17.254900 0.000170 -0.001207  -0.073860 -0.041564 0.122829
53  3.968615 5.003944 0.000005  0.000000 0.000000 1.570796
54  -13.443233 9.516231 39.829388  0.448946 2.196002 0.456304
55  13.092567 10.967411 39.635181  -0.458892 0.959020 -0.355145
56  -9.370220 -29.525646 21.394619  1.587319 1.355850 -1.661757
57  8.324738 -29.176079 25.079250  1.081172 1.355849 -1.661757
time 12
0  0.311634 0.086902 32.817978  -0.005978 -0.200336 -1.522756
1  -0.000001 0.000000 -0.000005  -1.570800 -1.570451 0.000005
2  3.968640 -0.003571 0.000006  0.470189 0.007015 -0.170374
3  -3.968951 0.006762 -3.450626  0.859922 2.949691 0.311019
4  17.254904 -0.000057 -0.001342  0.015258 0.058621 -0.972170
5  17.254908 0.000077 -0.000253  0.387324 0.177148 0.674585
6  3.968579 5.003976 0.000002  0.000000 -0.000000 1.570796
7  4.486289 -0.003596 -0.000412  -0.034745 0.015452 0.132463
8  4.486283 -0.003596 -0.000411  -0.003915 -0.002093 0.096027
9  4.486281 -0.003594 -0.000411  -0.000000 0.000000 0.000000
10  4.486208 -0.001588 -0.000410  0.110092 -0.144290 -0.117325
11  0.000005 0.001572 -1.908400  -1.523128 1.051472 2.101131
12  3.867486 -0.000002 0.000005  0.162141 -0.348329 -0.549727
13  14.390596 -0.000081 0.000004  0.000000 0.000001 -2.056577
14  11.595291 0.000028 0.000019  1.984609 -0.535289 -0.543701
15  4.415178 -0.060724 -1.931072  0.392303 0.122917 1.280873
16  0.923143 0.000004 -0.000007  -0.000002 0.000001 1.256255
17  0.923141 -0.000000 -0.000002  -0.000001 -0.000000 1.256253
18  4.449299 -0.067591 -0.950395  0.191354 0.060961 1.262188
19  1.128470 0.000013 -0.000003  -0.000001 -0.000000 1.256254
20  1.128473 0.000015 -0.000001  -0.000001 -0.000000 1.256252
21  4.416829 -0.015176 0.200538  0.074949 0.023518 1.257168
22  1.364875 0.000006 -0.000006  -0.000001 -0.000000 1.256253
23  1.364870 -0.000003 -0.000008  -0.000001 -0.000000 1.256252
24  4.451075 -0.068741 1.121643  -0.190865 -0.062480 1.262157
25  1.107775 0.000007 -0.000008  -0.000001 0.000000 1.256253
26  1.107769 0.000000 -0.000005  -0.000001 -0.000000 1.256253
27  2.098162 0.045628 1.805201  -1.110958 -0.235899 0.313858
28  0.914509 0.000002 -0.000006  0.000001 -0.000001 1.077398
29  0.914510 0.000004 0.000001  -0.000000 -0.000000 0.749988
30  0.000000 0.001561 1.908402  -0.860604 -1.282744 -1.939686
31  3.867490 0.000004 0.000000  -0.881686 0.417954 -0.681272
32  14.390595 -0.000004 -0.000007  0.000000 0.000000 -1.116315
33  11.595294 0.000087 -0.000016  -1.502235 0.279728 0.018970
34  4.415174 -0.060696 1.931085  0.059757 0.012709 1.374525
35  0.923137 0.000001 0.000006  0.000000 0.000000 1.374170
36  0.923144 0.000004 0.000014  0.000000 0.000000 1.374170
37  4.449309 -0.067574 0.950407  -0.008714 -0.000924 1.374178
38  1.128472 0.000011 0.000010  0.000000 0.000000 1.374170
39  1.128471 0.000006 0.000013  0.000000 -0.000000 1.374170
40  4.416837 -0.015162 -0.200527  -0.000156 0.000781 1.374170
41  1.364868 0.000002 0.000002  0.000000 0.000000 1.374170
42  1.364859 0.000005 0.000003  0.000000 -0.000000 1.374170
43  4.451082 -0.068710 -1.121629  -0.000156 0.000781 1.374170
44  1.107771 0.000011 0.000002  0.000000 0.000000 1.374170
45  1.107769 -0.000001 0.000005  0.000000 -0.000000 1.374170
46  2.098168 0.045636 -1.805198  1.539940 0.393558 0.564622
47  0.914511 0.000014 0.000004  0.000000 -0.000000 0.795810
48  0.914514 -0.000002 0.000001  -0.000000 -0.000001 0.608667
49  1.969138 0.000017 0.000000  0.136881 -0.054348 0.125303
50  -3.968313 0.006741 3.451355  0.377619 3.041100 -0.478244
51  17.254904 -0.000138 0.002860  -0.026467 -0.011098 -0.978922
52  17.254910 0.000169 -0.001209  -0.077053 -0.042296 0.120460
53  3.968615 5.003945 0.000005  0.000000 0.000000 1.570796
54  -13.390039 9.443212 40.153862  0.430487 2.189594 0.433515
55  13.156464 10.689845 40.007130  -0.437767 0.962214 -0.345619
56  -9.701252 -29.327578 21.259365  1.587165 1.368369 -1.669694
57  8.094017 -29.230774 24.946487  1.081019 1.368367 -1.669694
time 13
0  0.299475 0.086902 33.061344  -0.003604 -0.184370 -1.533278
1  0.000002 -0.000000 0.000005  -1.570792 -1.570451 -0.000001
2  3.968639 -0.003570 0.000006  0.424356 0.006322 -0.162062
3  -3.968947 0.006760 -3.450627  0.819426 2.927230 0.276168
4  17.254902 -0.000058 -0.001342  0.014152 0.056151 -0.962874
5  17.254910 0.000082 -0.000257  0.379049 0.172012 0.664278
6  3.968579 5.003977 0.000001  0.000000 0.000000 1.570796
7  4.486284 -0.003596 -0.000412  -0.047592 0.021166 0.181442
8  4.486273 -0.003594 -0.000410  -0.008346 -0.004461 0.120855
9  4.486282 -0.003594 -0.000411  -0.000000 0.000000 0.000000
10  4.486212 -0.001589 -0.000411  0.111978 -0.146763 -0.113394
11  0.000004 0.001574 -1.908402  -1.495707 1.079290 2.126207
12  3.867485 -0.000005 0.000006  0.189957 -0.373840 -0.528450
13  14.390596 -0.000080 0.000011  0.000000 0.000001 -2.056577
14  11.595289 0.000024 0.000013  1.968839 -0.497252 -0.516934
15  4.415179 -0.060714 -1.931068  0.392303 0.122918 1.280873
16  0.923138 0.000004 -0.000003  -0.000002 0.000001 1.256255
17  0.923139 -0.000006 -0.000004  -0.000001 -0.000000 1.256253
18  4.449304 -0.067592 -0.950391  0.191354 0.060961 1.262188
19  1.128467 0.000010 -0.000006  -0.000001 -0.000000 1.256254
20  1.128472 0.000003 -0.000003  -0.000001 -0.000000 1.256252
21  4.416831 -0.015170 0.200537  0.074949 0.023518 1.257168
22  1.364874 0.000009 -0.000001  -0.000001 -0.000000 1.256253
23  1.364869 -0.000003 -0.000004  -0.000001 -0.000000 1.256252
24  4.451079 -0.068733 1.121639  -0.190865 -0.062480 1.262157
25  1.107769 0.000010 -0.000004  -0.000001 0.000000 1.256253
26  1.107769 0.000001 -0.000006  -0.000001 -0.000000 1.256253
27  2.098159 0.045629 1.805204  -1.110958 -0.235899 0.313859
28  0.914509 -0.000002 -0.000007  0.000001 -0.000002 1.077398
29  0.914509 0.000000 -0.000002  -0.000000 -0.000000 0.749988
30  -0.000013 0.001563 1.908399  -0.879370 -1.282744 -1.939686
31  3.867489 0.000004 0.000001  -0.893852 0.379317 -0.703939
32  14.390598 -0.000006 -0.000005  0.000000 0.000000 -1.144261
33  11.595299 0.000085 -0.000016  -1.502741 0.261171 0.017620
34  4.415173 -0.060703 1.931090  0.059757 0.012709 1.374525
35  0.923142 0.000007 0.000015  0.000000 0.000000 1.374170
36  0.923138 0.000006 -0.000000  0.000000 0.000000 1.374170
37  4.449306 -0.067568 0.950411  -0.008714 -0.000924 1.374178
38  1.128472 0.000007 0.000008  0.000000 0.000000 1.374170
39  1.128468 0.000004 0.000004  0.000000 -0.000000 1.374170
40  4.416830 -0.015168 -0.200527  -0.000156 0.000781 1.374170
41  1.364876 -0.000001 0.000001  0.000000 0.000000 1.374170
42  1.364866 0.000003 -0.000003  0.000000 -0.000000 1.374170
43  4.451082 -0.068714 -1.121623  -0.000156 0.000781 1.374170
44  1.107771 0.000006 0.000009  0.000000 0.000000 1.374170
45  1.107770 -0.000002 -0.000004  0.000000 -0.000000 1.374170
46  2.098163 0.045633 -1.805197  1.539940 0.393558 0.564622
47  0.914510 0.000006 0.000006  0.000000 -0.000000 0.795810
48  0.914510 -0.000005 0.000002  -0.000000 -0.000001 0.608667
49  1.969131 0.000017 0.000002  0.033919 0.011050 0.064414
50  -3.968304 0.006744 3.451355  0.332606 3.062682 -0.482787
51  17.254910 -0.000140 0.002860  -0.030728 -0.012749 -0.948569
52  17.254898 0.000167 -0.001207  -0.080962 -0.042896 0.113008
53  3.968615 5.003943 0.000006  0.000000 -0.000000 1.570796
54  -13.320076 9.461972 40.525085  0.406220 2.181566 0.403623
55  13.237834 10.443131 40.439922  -0.410259 0.966006 -0.333088
56  -10.272387 -28.842224 21.077751  1.587010 1.384504 -1.679915
57  7.800272 -29.177694 24.732264  1.080863 1.384503 -1.679915
time 14
0  0.286665 0.086902 33.317745  -0.000816 -0.165622 -1.545634
1  0.000001 -0.000000 -0.000005  -1.570795 -1.570451 -0.000002
2  3.968640 -0.003571 0.000006  0.374894 0.005575 -0.153091
3  -3.968945 0.006764 -3.450627  0.777215 2.903939 0.235960
4  17.254902 -0.000062 -0.001342  0.011037 0.052693 -0.953104
5  17.254913 0.000075 -0.000254  0.368036 0.166322 0.652539
6  3.968579 5.003976 -0.000000  0.000000 -0.000000 1.570796
7  4.486290 -0.003594 -0.000411  -0.061456 0.027331 0.234298
8  4.486280 -0.003595 -0.000412  -0.014013 -0.007489 0.152613
9  4.486281 -0.003594 -0.000410  -0.000000 -0.000000 -0.000000
10  4.486210 -0.001587 -0.000411  0.081661 -0.127734 -0.115575
11  -0.000001 0.001573 -1.908399  1.685011 2.027175 -0.979113
12  3.867488 0.000002 0.000001  0.224975 -0.406030 -0.499987
13  14.390595 -0.000081 0.000006  0.000000 0.000001 -2.056577
14  11.595289 0.000024 0.000020  1.951996 -0.447171 -0.485473
15  4.415180 -0.060713 -1.931076  0.392303 0.122917 1.280873
16  0.923141 0.000003 -0.000003  -0.000002 0.000001 1.256255
17  0.923140 -0.000000 -0.000000  -0.000001 -0.000000 1.256253
18  4.449305 -0.067587 -0.950397  0.191354 0.060961 1.262188
19  1.128475 0.000011 -0.000009  -0.000001 -0.000000 1.256254
20  1.128471 0.000006 -0.000004  -0.000001 -0.000000 1.256252
21  4.416829 -0.015185 0.200536  0.074948 0.023518 1.257168
22  1.364871 0.000009 -0.000002  -0.000001 -0.000000 1.256253
23  1.364869 0.000003 -0.000003  -0.000001 -0.000000 1.256252
24  4.451077 -0.068736 1.121640  -0.190865 -0.062480 1.262157
25  1.107768 0.000008 0.000000  -0.000001 0.000000 1.256253
26  1.107770 -0.000000 -0.000006  -0.000001 -0.000000 1.256253
27  2.098159 0.045632 1.805198  -1.110958 -0.235899 0.313858
28  0.914510 -0.000006 -0.000005  0.000001 -0.000001 1.077398
29  0.914505 0.000005 -0.000002  -0.000000 -0.000000 0.749988
30  -0.000003 0.001563 1.908400  -0.903374 -1.282744 -1.939685
31  3.867483 0.000004 0.000002  -0.904534 0.335374 -0.720387
32  14.390607 -0.000005 -0.000005  0.000000 0.000000 -1.180006
33  11.595300 0.000083 -0.000016  -1.503313 0.237434 0.015922
34  4.415168 -0.060699 1.931090  0.059757 0.012709 1.374525
35  0.923138 0.000003 0.000005  0.000000 0.000000 1.374170
36  0.923138 0.000007 0.000002  0.000000 -0.000000 1.374170
37  4.449302 -0.067566 0.950415  -0.008714 -0.000924 1.374178
38  1.128469 0.000003 0.000003  0.000000 0.000000 1.374170
39  1.128469 0.000010 0.000005  0.000000 -0.000000 1.374170
40  4.416832 -0.015164 -0.200518  -0.000156 0.000781 1.374170
41  1.364868 0.000006 0.000003  0.000000 0.000000 1.374170
42  1.364860 0.000003 0.000004  0.000000 -0.000000 1.374170
43  4.451078 -0.068707 -1.121624  -0.000156 0.000781 1.374170
44  1.107771 0.000006 0.000007  0.000000 0.000000 1.374170
45  1.107771 0.000007 0.000004  0.000000 -0.000000 1.374170
46  2.098162 0.045642 -1.805188  1.539940 0.393558 0.564622
47  0.914510 0.000004 -0.000003  0.000000 -0.000000 0.795810
48  0.914512 0.000004 0.000004  -0.000000 -0.000001 0.608668
49  1.969139 0.000017 0.000002  -0.067819 0.076448 -0.004086
50  -3.968309 0.006744 3.451354  0.283742 3.086101 -0.488014
51  17.254902 -0.000136 0.002861  -0.035531 -0.014550 -0.915729
52  17.254900 0.000164 -0.001207  -0.085534 -0.043924 0.104967
53  3.968615 5.003944 0.000005  0.000000 -0.000000 1.570796
54  -13.237735 9.481179 40.928894  0.377031 2.172485 0.367763
55  13.330061 10.147937 40.916523  -0.377582 0.969985 -0.318040
56  -11.029155 -28.185364 20.868212  1.586895 1.403452 -1.691898
57  7.459052 -29.102947 24.454247  1.080748 1.403451 -1.691899
time 15
0  0.273530 0.086902 33.580669  0.002267 -0.144886 -1.559299
1  0.000000 -0.000000 -0.000001  -1.570795 -1.570451 -0.000000
2  3.968636 -0.003570 0.000006  0.323256 0.004794 -0.143726
3  -3.968957 0.006765 -3.450627  0.734025 2.881711 0.191436
4  17.254900 -0.000052 -0.001343  0.006170 0.048431 -0.942556
5  17.254908 0.000077 -0.000253  0.354857 0.160272 0.639408
6  3.968579 5.003977 0.000001  0.000000 -0.000000 1.570796
7  4.486282 -0.003594 -0.000411  -0.075930 0.033768 0.289480
8  4.486275 -0.003595 -0.000411  -0.020607 -0.011014 0.189566
9  4.486276 -0.003595 -0.000412  0.000000 -0.000000 0.000000
10  4.486207 -0.001590 -0.000412  0.005869 -0.080160 -0.122425
11  0.000004 0.001573 -1.908400  1.737599 1.987099 -0.929637
12  3.867485 0.000002 -0.000001  0.264834 -0.442800 -0.465030
13  14.390598 -0.000080 0.000002  0.000000 0.000001 -2.056577
14  11.595291 0.000025 0.000016  1.936703 -0.387107 -0.452397
15  4.415177 -0.060718 -1.931070  0.392303 0.122917 1.280873
16  0.923140 0.000004 -0.000004  -0.000002 0.000001 1.256255
17  0.923139 0.000006 -0.000012  -0.000001 -0.000000 1.256253
18  4.449304 -0.067581 -0.950399  0.191354 0.060961 1.262188
19  1.128476 0.000009 -0.000005  -0.000001 -0.000000 1.256254
20  1.128473 0.000003 0.000001  -0.000001 -0.000000 1.256252
21  4.416828 -0.015182 0.200537  0.074949 0.023518 1.257168
22  1.364869 0.000007 -0.000004  -0.000001 -0.000000 1.256253
23  1.364866 0.000005 -0.000000  -0.000001 -0.000000 1.256252
24  4.451074 -0.068734 1.121643  -0.190865 -0.062480 1.262157
25  1.107772 0.000009 -0.000009  -0.000001 0.000000 1.256253
26  1.107763 0.000000 -0.000001  -0.000001 -0.000000 1.256253
27  2.098165 0.045630 1.805206  -1.110958 -0.235899 0.313858
28  0.914512 -0.000001 -0.000005  0.000001 -0.000001 1.077398
29  0.914515 0.000007 -0.000002  -0.000000 -0.000000 0.749988
30  -0.000002 0.001563 1.908398  -0.931305 -1.282744 -1.939685
31  3.867488 0.000004 -0.000006  -0.914282 0.287957 -0.731290
32  14.390596 -0.000012 -0.000009  -0.000000 0.000000 -1.221601
33  11.595304 0.000080 -0.000008  -1.503876 0.209810 0.013982
34  4.415173 -0.060694 1.931083  0.059757 0.012709 1.374525
35  0.923131 -0.000001 0.000008  0.000000 0.000000 1.374170
36  0.923137 0.000007 0.000009  0.000000 -0.000000 1.374170
37  4.449306 -0.067575 0.950414  -0.008714 -0.000924 1.374178
38  1.128467 0.000007 0.000005  0.000000 0.000000 1.374170
39  1.128471 0.000007 0.000008  0.000000 -0.000000 1.374170
40  4.416834 -0.015167 -0.200520  -0.000156 0.000781 1.374170
41  1.364870 0.000001 0.000002  0.000000 0.000000 1.374170
42  1.364858 -0.000001 -0.000002  0.000000 -0.000000 1.374170
43  4.451084 -0.068714 -1.121619  -0.000156 0.000781 1.374170
44  1.107773 0.000006 0.000009  0.000000 0.000000 1.374170
45  1.107776 -0.000005 -0.000002  0.000000 -0.000000 1.374170
46  2.098166 0.045635 -1.805194  1.539940 0.393558 0.564622
47  0.914512 0.000005 0.000007  0.000000 -0.000000 0.795810
48  0.914514 0.000004 -0.000006  -0.000000 -0.000001 0.608667
49  1.969142 0.000017 0.000002  -0.145560 0.126755 -0.070536
50  -3.968327 0.006744 3.451355  0.232548 3.110841 -0.493429
51  17.254913 -0.000141 0.002861  -0.040682 -0.016388 -0.881528
52  17.254902 0.000168 -0.001209  -0.090588 -0.045360 0.096641
53  3.968615 5.003945 0.000006  0.000000 -0.000000 1.570796
54  -13.147352 9.498980 41.351391  0.343870 2.162899 0.327147
55  13.426847 9.814705 41.420063  -0.341017 0.973779 -0.301027
56  -11.917665 -27.385763 20.648336  -1.554722 1.717182 1.436482
57  7.085987 -29.004801 24.129992  1.080723 1.424409 -1.705111
time 16
0  0.260394 0.086902 33.843590  0.005527 -0.122958 -1.573751
1  0.000000 -0.000000 -0.000005  -1.570794 -1.570451 -0.000002
2  3.968636 -0.003571 0.000006  0.270893 0.004002 -0.134229
3  -3.968940 0.006767 -3.450629  0.690861 2.862080 0.144001
4  17.254908 -0.000059 -0.001344  -0.000180 0.043559 -0.931035
5  17.254900 0.000076 -0.000254  0.340095 0.154053 0.625037
6  3.968579 5.003976 0.000001  0.000000 -0.000000 1.570796
7  4.486284 -0.003593 -0.000411  -0.090608 0.040296 0.345437
8  4.486283 -0.003594 -0.000411  -0.027819 -0.014869 0.229985
9  4.486285 -0.003594 -0.000411  0.000000 -0.000000 -0.000000
10  4.486206 -0.001586 -0.000411  -0.092662 -0.018313 -0.134408
11  0.000002 0.001575 -1.908401  1.806328 1.944562 -0.864056
12  3.867489 -0.000010 0.000007  0.307194 -0.482078 -0.424419
13  14.390599 -0.000083 0.000016  0.000000 0.000001 -2.056577
14  11.595289 0.000018 0.000015  1.924752 -0.319492 -0.420054
15  4.415179 -0.060717 -1.931071  0.392303 0.122917 1.280873
16  0.923135 0.000003 -0.000008  -0.000002 0.000001 1.256255
17  0.923140 0.000003 -0.000004  -0.000001 -0.000000 1.256253
18  4.449304 -0.067587 -0.950400  0.191354 0.060961 1.262188
19  1.128477 0.000009 -0.000003  -0.000001 -0.000000 1.256254
20  1.128474 0.000005 -0.000001  -0.000001 -0.000000 1.256252
21  4.416829 -0.015184 0.200538  0.074949 0.023518 1.257168
22  1.364872 0.000012 -0.000004  -0.000001 -0.000000 1.256253
23  1.364869 0.000005 -0.000003  -0.000001 -0.000000 1.256252
24  4.451077 -0.068735 1.121640  -0.190865 -0.062480 1.262157
25  1.107768 0.000008 -0.000001  -0.000001 0.000000 1.256253
26  1.107774 -0.000000 0.000002  -0.000001 -0.000000 1.256253
27  2.098165 0.045626 1.805203  -1.110958 -0.235899 0.313859
28  0.914510 0.000002 -0.000001  0.000001 -0.000002 1.077398
29  0.914516 0.000007 0.000001  -0.000000 -0.000000 0.749988
30  -0.000003 0.001563 1.908399  -0.961856 -1.282744 -1.939685
31  3.867488 0.000001 0.000000  -0.923546 0.238831 -0.737385
32  14.390598 -0.000007 -0.000004  0.000000 0.000000 -1.267094
33  11.595301 0.000081 -0.000023  -1.504368 0.179593 0.011897
34  4.415176 -0.060701 1.931084  0.059757 0.012709 1.374525
35  0.923131 0.000009 0.000006  0.000000 0.000000 1.374170
36  0.923141 0.000007 0.000009  0.000000 0.000000 1.374170
37  4.449304 -0.067570 0.950411  -0.008714 -0.000924 1.374178
38  1.128469 0.000010 0.000005  0.000000 0.000000 1.374170
39  1.128464 0.000010 0.000005  0.000000 0.000000 1.374170
40  4.416830 -0.015166 -0.200521  -0.000156 0.000781 1.374170
41  1.364867 0.000010 -0.000003  0.000000 0.000000 1.374170
42  1.364862 0.000004 0.000000  0.000000 -0.000000 1.374170
43  4.451085 -0.068719 -1.121627  -0.000156 0.000781 1.374170
44  1.107764 0.000006 0.000000  0.000000 0.000000 1.374170
45  1.107769 -0.000002 -0.000003  0.000000 -0.000000 1.374170
46  2.098166 0.045638 -1.805198  1.539940 0.393558 0.564622
47  0.914510 0.000004 0.000005  0.000000 -0.000000 0.795810
48  0.914513 0.000005 0.000005  -0.000000 -0.000001 0.608668
49  1.969134 0.000014 0.000001  -0.176534 0.146877 -0.125275
50  -3.968311 0.006743 3.451354  0.180513 3.136322 -0.498601
51  17.254910 -0.000135 0.002859  -0.045994 -0.018167 -0.846983
52  17.254902 0.000167 -0.001208  -0.095942 -0.047165 0.088265
53  3.968615 5.003945 0.000005  0.000000 0.000000 1.570796
54  -13.053103 9.514018 41.779068  0.307801 2.153313 0.283104
55  13.522543 9.454804 41.933941  -0.301935 0.977088 -0.282684
56  -12.885851 -26.475817 20.433540  -1.554594 1.695017 1.422592
57  6.696560 -28.883511 23.776657  1.080850 1.446574 -1.719001
time 17
0  0.247584 0.086902 34.099991  0.008847 -0.100632 -1.588465
1  -0.000000 0.000000 -0.000001  -1.570801 -1.570451 0.000000
2  3.968646 -0.003571 0.000006  0.219254 0.003222 -0.124864
3  -3.968949 0.006762 -3.450627  0.648973 2.846179 0.095470
4  17.254904 -0.000056 -0.001341  -0.007703 0.038285 -0.918302
5  17.254917 0.000076 -0.000253  0.324364 0.147863 0.609608
6  3.968579 5.003977 0.000000  0.000000 0.000000 1.570796
7  4.486282 -0.003593 -0.000411  -0.105082 0.046733 0.400619
8  4.486279 -0.003596 -0.000411  -0.035341 -0.018889 0.272135
9  4.486286 -0.003601 -0.000411  0.000000 -0.000000 -0.000000
10  4.486216 -0.001588 -0.000411  -0.191193 0.043533 -0.151986
11  -0.000000 0.001574 -1.908399  1.894624 1.902191 -0.778756
12  3.867482 -0.000004 0.000016  0.349821 -0.521865 -0.379282
13  14.390601 -0.000078 0.000010  0.000000 0.000001 -2.056577
14  11.595291 0.000024 0.000016  1.917040 -0.247139 -0.390030
15  4.415179 -0.060720 -1.931077  0.392303 0.122917 1.280873
16  0.923135 0.000004 -0.000006  -0.000002 0.000001 1.256255
17  0.923140 0.000003 -0.000002  -0.000001 -0.000000 1.256253
18  4.449304 -0.067587 -0.950398  0.191354 0.060961 1.262188
19  1.128476 0.000015 0.000001  -0.000001 -0.000000 1.256254
20  1.128473 0.000003 -0.000010  -0.000001 -0.000000 1.256252
21  4.416830 -0.015184 0.200536  0.074949 0.023518 1.257168
22  1.364872 0.000009 -0.000005  -0.000001 -0.000000 1.256253
23  1.364868 0.000005 -0.000008  -0.000001 -0.000000 1.256252
24  4.451077 -0.068735 1.121638  -0.190865 -0.062480 1.262158
25  1.107765 0.000009 -0.000010  -0.000001 0.000000 1.256253
26  1.107771 0.000000 -0.000001  -0.000001 -0.000000 1.256253
27  2.098155 0.045629 1.805196  -1.110958 -0.235899 0.313858
28  0.914510 0.000005 -0.000005  0.000001 -0.000001 1.077398
29  0.914508 0.000003 0.000000  -0.000000 -0.000000 0.749988
30  -0.000005 0.001565 1.908402  -0.993716 -1.282744 -1.939685
31  3.867485 0.000001 -0.000009  -0.932619 0.189701 -0.739443
32  14.390599 -0.000008 0.000002  -0.000000 0.000000 -1.314538
33  11.595304 0.000084 -0.000012  -1.504746 0.148080 0.009758
34  4.415180 -0.060699 1.931089  0.059757 0.012709 1.374525
35  0.923130 -0.000004 0.000001  0.000000 0.000000 1.374170
36  0.923138 0.000001 0.000005  0.000000 0.000000 1.374170
37  4.449308 -0.067567 0.950411  -0.008714 -0.000924 1.374178
38  1.128467 0.000006 0.000006  0.000000 0.000000 1.374170
39  1.128476 0.000009 0.000007  0.000000 -0.000000 1.374170
40  4.416835 -0.015167 -0.200525  -0.000156 0.000781 1.374170
41  1.364874 0.000002 -0.000001  0.000000 0.000000 1.374170
42  1.364857 0.000007 -0.000007  0.000000 0.000000 1.374170
43  4.451085 -0.068709 -1.121628  -0.000156 0.000781 1.374170
44  1.107769 0.000007 0.000010  0.000000 0.000000 1.374170
45  1.107772 -0.000004 -0.000000  0.000000 -0.000000 1.374170
46  2.098166 0.045645 -1.805193  1.539940 0.393558 0.564622
47  0.914511 0.000009 0.000004  0.000000 -0.000000 0.795810
48  0.914512 0.000000 0.000003  -0.000000 -0.000000 0.608667
49  1.969128 0.000018 0.000002  -0.089266 0.120750 -0.161083
50  -3.968318 0.006743 3.451354  0.129095 -3.121272 -0.502947
51  17.254908 -0.000141 0.002861  -0.051292 -0.019802 -0.812535
52  17.254910 0.000168 -0.001209  -0.101415 -0.049261 0.079775
53  3.968615 5.003945 0.000006  0.000000 -0.000000 1.570796
54  -12.958908 9.525489 42.198948  0.270031 2.144169 0.237124
55  13.612419 9.080687 42.441990  -0.261786 0.979704 -0.263718
56  -13.884474 -25.492371 20.236126  -1.554230 1.672449 1.408610
57  6.305858 -28.741768 23.410877  1.081213 1.469143 -1.732983
time 18
0  0.235425 0.086902 34.343361  0.012107 -0.078704 -1.602916
1  0.000000 -0.000000 0.000007  -1.570797 -1.570451 0.000002
2  3.968642 -0.003571 0.000006  0.169793 0.002474 -0.115893
3  -3.968948 0.006763 -3.450627  0.609665 2.834443 0.047704
4  17.254906 -0.000056 -0.001340  -0.016050 0.032854 -0.904773
5  17.254910 0.000077 -0.000255  0.308313 0.141897 0.593688
6  3.968579 5.003977 0.000000  0.000000 0.000000 1.570796
7  4.486284 -0.003594 -0.000411  -0.118946 0.052899 0.453475
8  4.486287 -0.003596 -0.000411  -0.042863 -0.022909 0.314286
9  4.486282 -0.003594 -0.000411  0.000000 0.000000 -0.000000
10  4.486199 -0.001586 -0.000411  -0.266987 0.091106 -0.175621
11  0.000001 0.001572 -1.908401  2.005863 1.862718 -0.670216
12  3.867485 -0.000000 0.000007  0.390683 -0.560312 -0.331143
13  14.390596 -0.000083 0.000008  0.000000 0.000001 -2.056577
14  11.595290 0.000026 0.000021  1.913653 -0.173171 -0.363259
15  4.415181 -0.060719 -1.931074  0.392303 0.122918 1.280873
16  0.923139 0.000002 -0.000006  -0.000002 0.000001 1.256255
17  0.923138 0.000000 -0.000010  -0.000001 -0.000000 1.256253
18  4.449307 -0.067589 -0.950393  0.191354 0.060961 1.262188
19  1.128477 0.000012 -0.000010  -0.000001 -0.000000 1.256254
20  1.128472 0.000002 -0.000004  -0.000001 -0.000000 1.256252
21  4.416830 -0.015182 0.200533  0.074949 0.023518 1.257168
22  1.364872 0.000009 -0.000007  -0.000001 -0.000000 1.256253
23  1.364867 0.000005 -0.000008  -0.000001 -0.000000 1.256252
24  4.451078 -0.068734 1.121638  -0.190865 -0.062480 1.262157
25  1.107770 0.000008 -0.000004  -0.000001 0.000000 1.256253
26  1.107768 -0.000000 -0.000002  -0.000001 -0.000000 1.256253
27  2.098161 0.045627 1.805206  -1.110958 -0.235899 0.313858
28  0.914511 -0.000002 -0.000005  0.000001 -0.000001 1.077398
29  0.914506 0.000007 0.000000  -0.000000 -0.000000 0.749988
30  -0.000005 0.001558 1.908399  -1.025575 -1.282744 -1.939685
31  3.867483 0.000001 -0.000006  -0.941606 0.142214 -0.738265
32  14.390598 -0.000011 -0.000006  -0.000000 0.000000 -1.361981
33  11.595298 0.000085 -0.000016  -1.504990 0.116564 0.007649
34  4.415174 -0.060699 1.931087  0.059757 0.012709 1.374525
35  0.923140 -0.000002 0.000002  0.000000 0.000000 1.374170
36  0.923148 0.000001 0.000004  0.000000 0.000000 1.374170
37  4.449305 -0.067574 0.950408  -0.008714 -0.000924 1.374178
38  1.128471 0.000003 0.000005  0.000000 0.000000 1.374170
39  1.128471 0.000014 0.000008  0.000000 -0.000000 1.374170
40  4.416831 -0.015164 -0.200527  -0.000156 0.000781 1.374170
41  1.364877 0.000003 0.000003  0.000000 0.000000 1.374170
42  1.364858 0.000006 0.000007  0.000000 -0.000000 1.374170
43  4.451084 -0.068710 -1.121626  -0.000156 0.000781 1.374170
44  1.107775 0.000007 0.000011  0.000000 0.000000 1.374170
45  1.107767 -0.000000 0.000001  0.000000 -0.000000 1.374170
46  2.098166 0.045637 -1.805196  1.539940 0.393558 0.564622
47  0.914512 0.000007 0.000008  0.000000 -0.000000 0.795810
48  0.914510 0.000000 -0.000002  -0.000000 -0.000000 0.608667
49  1.969144 0.000016 0.000001  0.102726 0.063269 -0.180498
50  -3.968310 0.006743 3.451354  0.079729 -3.096357 -0.506404
51  17.254910 -0.000142 0.002859  -0.056399 -0.021239 -0.779409
52  17.254904 0.000165 -0.001209  -0.106819 -0.051556 0.071518
53  3.968615 5.003944 0.000006  0.000000 -0.000000 1.570796
54  -12.868375 9.533159 42.598671  0.231924 2.135823 0.190864
55  13.692862 8.705923 42.928574  -0.222087 0.981529 -0.244892
56  -14.867867 -24.476942 20.064741  -1.553490 1.650281 1.395188
57  5.928288 -28.584877 23.048565  1.081952 1.491310 -1.746405
time 19
0  0.224244 0.086902 34.567169  0.015191 -0.057968 -1.616582
1  0.000000 -0.000000 0.000008  -1.570792 -1.570451 -0.000004
2  3.968635 -0.003571 0.000006  0.123960 0.001781 -0.107581
3  -3.968951 0.006762 -3.450627  0.574247 2.826865 0.002779
4  17.254910 -0.000056 -0.001341  -0.024782 0.027520 -0.890739
5  17.254906 0.000078 -0.000254  0.292635 0.136354 0.577812
6  3.968579 5.003977 0.000001  0.000000 0.000000 1.570796
7  4.486279 -0.003595 -0.000411  -0.131793 0.058612 0.502454
8  4.486278 -0.003593 -0.000411  -0.050075 -0.026764 0.354704
9  4.486289 -0.003590 -0.000412  0.000000 0.000000 0.000000
10  4.486216 -0.001589 -0.000411  -0.297306 0.110136 -0.205777
11  -0.000000 0.001569 -1.908400  2.141202 1.828822 -0.537187
12  3.867486 -0.000005 -0.000000  0.428039 -0.595772 -0.282015
13  14.390596 -0.000079 0.000009  0.000000 0.000001 -2.056577
14  11.595289 0.000022 0.000015  1.914050 -0.100933 -0.340212
15  4.415184 -0.060719 -1.931065  0.392303 0.122918 1.280873
16  0.923133 0.000003 -0.000005  -0.000002 0.000001 1.256255
17  0.923138 0.000006 -0.000003  -0.000001 -0.000000 1.256253
18  4.449303 -0.067592 -0.950397  0.191354 0.060961 1.262188
19  1.128472 0.000010 -0.000006  -0.000001 -0.000000 1.256254
20  1.128472 0.000003 0.000001  -0.000001 -0.000000 1.256252
21  4.416829 -0.015185 0.200540  0.074949 0.023518 1.257168
22  1.364871 0.000010 -0.000009  -0.000001 -0.000000 1.256253
23  1.364867 0.000004 -0.000006  -0.000001 -0.000000 1.256252
24  4.451077 -0.068737 1.121644  -0.190865 -0.062480 1.262158
25  1.107770 0.000009 0.000000  -0.000001 0.000000 1.256253
26  1.107773 0.000000 -0.000003  -0.000001 -0.000000 1.256253
27  2.098158 0.045621 1.805201  -1.110958 -0.235899 0.313859
28  0.914513 0.000006 -0.000003  0.000001 -0.000001 1.077398
29  0.914507 0.000006 -0.000000  -0.000000 -0.000000 0.749987
30  -0.000002 0.001564 1.908402  -1.056126 -1.282744 -1.939685
31  3.867484 -0.000006 -0.000010  -0.950416 0.097961 -0.734690
32  14.390594 -0.000009 0.000000  -0.000000 0.000000 -1.407475
33  11.595293 0.000084 -0.000009  -1.505100 0.086342 0.005649
34  4.415172 -0.060700 1.931087  0.059757 0.012709 1.374525
35  0.923131 0.000002 0.000013  0.000000 0.000000 1.374170
36  0.923141 -0.000004 0.000006  0.000000 -0.000000 1.374170
37  4.449306 -0.067579 0.950409  -0.008714 -0.000924 1.374178
38  1.128470 0.000005 0.000002  0.000000 0.000000 1.374170
39  1.128477 0.000014 0.000008  0.000000 -0.000000 1.374170
40  4.416832 -0.015163 -0.200524  -0.000156 0.000781 1.374170
41  1.364866 0.000006 -0.000002  0.000000 0.000000 1.374170
42  1.364860 0.000005 -0.000002  0.000000 -0.000000 1.374170
43  4.451080 -0.068710 -1.121622  -0.000156 0.000781 1.374170
44  1.107776 0.000012 0.000008  0.000000 0.000000 1.374170
45  1.107773 0.000003 -0.000001  0.000000 -0.000000 1.374170
46  2.098159 0.045641 -1.805193  1.539940 0.393558 0.564622
47  0.914513 0.000010 0.000004  0.000000 -0.000000 0.795810
48  0.914515 0.000001 0.000007  -0.000000 -0.000001 0.608667
49  1.969138 0.000015 0.000002  0.294717 0.005788 -0.188496
50  -3.968313 0.006743 3.451355  0.033857 -3.072933 -0.508920
51  17.254908 -0.000131 0.002860  -0.061149 -0.022445 -0.748585
52  17.254908 0.000169 -0.001209  -0.111958 -0.053927 0.063725
53  3.968615 5.003946 0.000005  0.000000 -0.000000 1.570796
54  -12.784746 9.537282 42.966454  0.194997 2.128541 0.146149
55  13.761461 8.345114 43.378624  -0.184383 0.982571 -0.226990
56  -15.794344 -23.475437 19.924181  -1.552096 1.629319 1.383123
57  5.577363 -28.420654 22.704813  1.083343 1.512273 -1.758471
time 20
0  0.214365 0.086901 34.764904  0.017978 -0.039219 -1.628938
1  -0.000000 0.000000 0.000003  -1.570790 -1.570451 0.000009
2  3.968641 -0.003571 0.000006  0.083206 0.001165 -0.100189
3  -3.968946 0.006764 -3.450627  0.543830 2.822891 -0.037385
4  17.254902 -0.000057 -0.001343  -0.033382 0.022555 -0.876916
5  17.254908 0.000077 -0.000254  0.278060 0.131425 0.562748
6  3.968579 5.003976 0.000001  0.000000 -0.000000 1.570796
7  4.486288 -0.003594 -0.000411  -0.143216 0.063692 0.546006
8  4.486276 -0.003593 -0.000411  -0.056669 -0.030288 0.391658
9  4.486286 -0.003602 -0.000411  -0.000000 0.000000 -0.000000
10  4.486204 -0.001595 -0.000410  -0.266392 0.098690 -0.241924
11  0.000003 0.001575 -1.908401  2.295649 1.802688 -0.384609
12  3.867484 -0.000006 0.000002  0.460499 -0.626860 -0.234440
13  14.390596 -0.000081 0.000009  0.000000 0.000001 -2.056577
14  11.595293 0.000026 0.000014  1.917243 -0.033911 -0.321078
15  4.415183 -0.060720 -1.931066  0.392303 0.122918 1.280873
16  0.923136 0.000004 0.000000  -0.000002 0.000001 1.256255
17  0.923138 0.000006 0.000001  -0.000001 -0.000000 1.256253
18  4.449304 -0.067592 -0.950402  0.191354 0.060961 1.262188
19  1.128471 0.000012 -0.000002  -0.000001 -0.000000 1.256254
20  1.128474 0.000004 -0.000003  -0.000001 -0.000000 1.256252
21  4.416829 -0.015182 0.200543  0.074949 0.023518 1.257168
22  1.364870 0.000007 -0.000006  -0.000001 -0.000000 1.256254
23  1.364868 0.000002 -0.000004  -0.000001 -0.000000 1.256252
24  4.451077 -0.068736 1.121636  -0.190865 -0.062480 1.262157
25  1.107772 0.000009 -0.000006  -0.000001 0.000000 1.256253
26  1.107772 -0.000000 -0.000004  -0.000001 -0.000000 1.256253
27  2.098163 0.045625 1.805201  -1.110958 -0.235899 0.313858
28  0.914511 -0.000006 -0.000004  0.000001 -0.000001 1.077398
29  0.914500 -0.000000 -0.000002  -0.000000 -0.000000 0.749988
30  -0.000008 0.001566 1.908402  -1.084057 -1.282744 -1.939685
31  3.867486 0.000001 0.000003  -0.958776 0.058481 -0.729610
32  14.390603 -0.000010 -0.000011  -0.000000 0.000000 -1.449069
33  11.595298 0.000085 -0.000013  -1.505096 0.058710 0.003833
34  4.415172 -0.060701 1.931088  0.059757 0.012709 1.374525
35  0.923139 0.000004 0.000009  0.000000 0.000000 1.374170
36  0.923143 0.000001 0.000009  0.000000 -0.000000 1.374170
37  4.449301 -0.067578 0.950410  -0.008714 -0.000924 1.374178
38  1.128472 0.000012 0.000003  0.000000 0.000000 1.374170
39  1.128478 0.000010 0.000002  0.000000 0.000000 1.374170
40  4.416828 -0.015159 -0.200524  -0.000156 0.000781 1.374170
41  1.364869 0.000005 0.000006  0.000000 0.000000 1.374170
42  1.364857 0.000000 -0.000000  0.000000 -0.000000 1.374170
43  4.451081 -0.068718 -1.121625  -0.000156 0.000781 1.374170
44  1.107768 0.000011 0.000009  0.000000 0.000000 1.374170
45  1.107773 0.000001 0.000000  0.000000 -0.000000 1.374170
46  2.098164 0.045635 -1.805194  1.539940 0.393558 0.564622
47  0.914512 0.000015 0.000001  0.000000 -0.000000 0.795810
48  0.914511 0.000000 0.000006  -0.000000 -0.000001 0.608667
49  1.969136 0.000023 0.000001  0.381985 -0.020339 -0.190056
50  -3.968312 0.006744 3.451355  -0.007062 -3.051851 -0.510543
51  17.254915 -0.000139 0.002861  -0.065383 -0.023408 -0.721021
52  17.254908 0.000166 -0.001208  -0.116634 -0.056230 0.056639
53  3.968616 5.003944 0.000006  0.000000 0.000000 1.570796
54  -12.710904 9.538515 43.291092  0.160893 2.122489 0.104937
55  13.817019 8.013699 43.777657  -0.150220 0.982940 -0.210786
56  -16.626112 -22.537447 19.815704  -1.549405 1.610365 1.373590
57  5.265586 -28.259108 22.393927  1.086029 1.531226 -1.768004
time 21
0  0.206114 0.086902 34.930042  0.020352 -0.023253 -1.639460
1  -0.000000 -0.000000 -0.000006  -1.570788 -1.570451 0.000006
2  3.968636 -0.003571 0.000006  0.048982 0.000648 -0.093983
3  -3.968945 0.006763 -3.450627  0.519304 2.821651 -0.070967
4  17.254908 -0.000053 -0.001342  -0.041244 0.018234 -0.864027
5  17.254904 0.000079 -0.000255  0.265358 0.127300 0.549273
6  3.968579 5.003977 0.000001  0.000000 -0.000000 1.570796
7  4.486281 -0.003595 -0.000411  -0.152809 0.067959 0.582578
8  4.486282 -0.003595 -0.000411  -0.062336 -0.033317 0.423415
9  4.486279 -0.003597 -0.000412  -0.000000 -0.000000 -0.000000
10  4.486212 -0.001593 -0.000411  -0.192668 0.071398 -0.279575
11  0.000000 0.001567 -1.908400  2.454376 1.785282 -0.227301
12  3.867483 0.000004 0.000007  0.487020 -0.652465 -0.191453
13  14.390593 -0.000080 0.000006  0.000000 0.000001 -2.056576
14  11.595287 0.000024 0.000011  1.921976 0.024344 -0.305920
15  4.415182 -0.060714 -1.931072  0.392303 0.122917 1.280873
16  0.923139 0.000003 -0.000005  -0.000002 0.000001 1.256255
17  0.923138 -0.000001 -0.000005  -0.000001 -0.000000 1.256253
18  4.449304 -0.067587 -0.950397  0.191354 0.060961 1.262188
19  1.128475 0.000011 -0.000015  -0.000001 -0.000000 1.256254
20  1.128471 0.000003 -0.000000  -0.000001 -0.000000 1.256252
21  4.416828 -0.015178 0.200536  0.074948 0.023518 1.257168
22  1.364874 0.000007 0.000000  -0.000001 -0.000000 1.256253
23  1.364868 0.000007 -0.000008  -0.000001 -0.000000 1.256252
24  4.451077 -0.068729 1.121635  -0.190865 -0.062480 1.262157
25  1.107771 0.000009 -0.000003  -0.000001 0.000000 1.256253
26  1.107769 0.000004 -0.000004  -0.000001 -0.000000 1.256253
27  2.098160 0.045630 1.805198  -1.110958 -0.235899 0.313858
28  0.914511 0.000005 -0.000005  0.000001 -0.000001 1.077398
29  0.914517 0.000006 -0.000002  -0.000000 -0.000000 0.749988
30  -0.000001 0.001556 1.908400  -1.108061 -1.282744 -1.939685
31  3.867488 -0.000007 -0.000003  -0.966251 0.025260 -0.723969
32  14.390598 -0.000011 -0.000000  -0.000000 0.000000 -1.484814
33  11.595300 0.000084 -0.000015  -1.505012 0.034963 0.002280
34  4.415169 -0.060698 1.931091  0.059757 0.012709 1.374525
35  0.923146 -0.000001 0.000007  0.000000 0.000000 1.374170
36  0.923146 0.000000 0.000008  0.000000 -0.000000 1.374170
37  4.449296 -0.067571 0.950416  -0.008714 -0.000924 1.374178
38  1.128483 0.000012 0.000008  0.000000 0.000000 1.374170
39  1.128471 0.000006 0.000007  0.000000 -0.000000 1.374170
40  4.416830 -0.015154 -0.200519  -0.000156 0.000781 1.374170
41  1.364869 -0.000004 -0.000001  0.000000 0.000000 1.374170
42  1.364861 0.000008 0.000001  0.000000 -0.000000 1.374170
43  4.451078 -0.068709 -1.121623  -0.000156 0.000781 1.374170
44  1.107764 0.000005 0.000008  0.000000 0.000000 1.374170
45  1.107775 0.000005 0.000001  0.000000 -0.000000 1.374170
46  2.098159 0.045643 -1.805191  1.539940 0.393558 0.564622
47  0.914514 0.000007 0.000005  0.000000 -0.000000 0.795810
48  0.914509 -0.000000 0.000003  -0.000000 -0.000001 0.608667
49  1.969142 0.000016 0.000002  0.366032 -0.015143 -0.184156
50  -3.968315 0.006744 3.451354  -0.041535 -3.033973 -0.511496
51  17.254906 -0.000140 0.002861  -0.068942 -0.024134 -0.697848
52  17.254906 0.000164 -0.001209  -0.120638 -0.058306 0.050609
53  3.968615 5.003947 0.000005  0.000000 0.000000 1.570796
54  -12.649404 9.537784 43.561840  0.131340 2.117749 0.069283
55  13.859346 7.727720 44.111717  -0.121117 0.982827 -0.197016
56  -17.328777 -21.715206 19.737587  -1.543542 1.594225 1.369003
57  5.004479 -28.111908 22.129459  1.091883 1.547366 -1.772593
time 22
0  0.199818 0.086902 35.056072  0.022194 -0.010865 -1.647624
1  0.000000 0.000000 0.000001  -1.570797 -1.570451 0.000001
2  3.968644 -0.003571 0.000006  0.022739 0.000251 -0.089223
3  -3.968949 0.006763 -3.450627  0.501227 2.821944 -0.096610
4  17.254902 -0.000058 -0.001343  -0.047706 0.014832 -0.853504
5  17.254904 0.000079 -0.000256  0.255311 0.124145 0.538514
6  3.968579 5.003977 0.000001  0.000000 0.000000 1.570796
7  4.486285 -0.003594 -0.000411  -0.160165 0.071230 0.610622
8  4.486277 -0.003589 -0.000411  -0.066767 -0.035685 0.448244
9  4.486288 -0.003586 -0.000412  0.000000 -0.000000 0.000000
10  4.486214 -0.001598 -0.000410  -0.104674 0.038824 -0.313252
11  -0.000001 0.001572 -1.908400  2.594138 1.775759 -0.088524
12  3.867486 -0.000009 0.000008  0.506831 -0.671713 -0.156456
13  14.390593 -0.000075 0.000013  0.000000 0.000001 -2.056576
14  11.595291 0.000024 0.000017  1.926875 0.070270 -0.294801
15  4.415180 -0.060718 -1.931076  0.392303 0.122917 1.280873
16  0.923134 0.000002 -0.000009  -0.000002 0.000001 1.256255
17  0.923137 0.000000 -0.000002  -0.000001 -0.000000 1.256253
18  4.449304 -0.067589 -0.950404  0.191354 0.060961 1.262188
19  1.128474 0.000011 0.000000  -0.000001 -0.000000 1.256254
20  1.128470 0.000004 -0.000009  -0.000001 -0.000000 1.256252
21  4.416831 -0.015186 0.200541  0.074949 0.023518 1.257168
22  1.364872 0.000007 -0.000007  -0.000001 -0.000000 1.256253
23  1.364867 0.000005 -0.000006  -0.000001 -0.000000 1.256252
24  4.451079 -0.068734 1.121638  -0.190865 -0.062480 1.262158
25  1.107769 0.000010 -0.000008  -0.000001 0.000000 1.256253
26  1.107767 0.000000 0.000003  -0.000001 -0.000000 1.256253
27  2.098161 0.045628 1.805201  -1.110958 -0.235899 0.313859
28  0.914513 0.000005 -0.000005  0.000001 -0.000002 1.077398
29  0.914513 0.000007 0.000000  -0.000000 -0.000000 0.749987
30  -0.000006 0.001563 1.908399  -1.126828 -1.282744 -1.939685
31  3.867486 -0.000002 -0.000009  -0.972292 -0.000252 -0.718751
32  14.390597 -0.000010 -0.000013  -0.000000 0.000000 -1.512760
33  11.595299 0.000087 -0.000027  -1.504895 0.016397 0.001069
34  4.415173 -0.060706 1.931085  0.059757 0.012709 1.374525
35  0.923139 0.000002 0.000012  0.000000 0.000000 1.374170
36  0.923138 -0.000002 0.000004  0.000000 -0.000000 1.374170
37  4.449309 -0.067573 0.950413  -0.008714 -0.000924 1.374178
38  1.128472 0.000008 0.000008  0.000000 0.000000 1.374170
39  1.128474 0.000012 0.000008  0.000000 -0.000000 1.374170
40  4.416837 -0.015160 -0.200522  -0.000156 0.000781 1.374170
41  1.364874 0.000000 -0.000001  0.000000 0.000000 1.374170
42  1.364863 0.000005 0.000001  0.000000 -0.000000 1.374170
43  4.451087 -0.068713 -1.121621  -0.000156 0.000781 1.374170
44  1.107770 0.000012 0.000005  0.000000 0.000000 1.374170
45  1.107775 0.000002 -0.000002  0.000000 -0.000000 1.374170
46  2.098170 0.045639 -1.805193  1.539940 0.393558 0.564622
47  0.914516 0.000011 0.000011  0.000000 -0.000000 0.795810
48  0.914517 -0.000003 0.000005  -0.000000 -0.000001 0.608667
49  1.969135 0.000021 0.000000  0.330934 -0.003711 -0.171175
50  -3.968314 0.006742 3.451355  -0.068060 -3.020171 -0.511881
51  17.254917 -0.000138 0.002860  -0.071680 -0.024634 -0.679871
52  17.254906 0.000165 -0.001210  -0.123761 -0.059983 0.045832
53  3.968616 5.003944 0.000006  0.000000 0.000000 1.570796
54  -12.602578 9.536132 43.768257  0.108102 2.114340 0.041281
55  13.888971 7.503520 44.367188  -0.098552 0.982468 -0.186376
56  -17.870272 -21.062401 19.686192  -1.526921 1.581703 1.377487
57  4.804820 -27.991676 21.924440  1.108474 1.559888 -1.764114
time 23
0  0.195801 0.086902 35.136471  0.023386 -0.002849 -1.652907
1  -0.000000 -0.000000 -0.000003  -1.570796 -1.570451 -0.000004
2  3.968638 -0.003571 0.000006  0.005930 -0.000003 -0.086175
3  -3.968962 0.006762 -3.450628  0.490054 2.822698 -0.112942
4  17.254904 -0.000059 -0.001341  -0.052069 0.012608 -0.846417
5  17.254906 0.000078 -0.000258  0.248712 0.122127 0.531400
6  3.968579 5.003976 0.000001  0.000000 -0.000000 1.570796
7  4.486276 -0.003594 -0.000411  -0.164877 0.073326 0.628585
8  4.486283 -0.003592 -0.000412  -0.069652 -0.037227 0.464411
9  4.486283 -0.003593 -0.000412  0.000000 -0.000000 0.000000
10  4.486206 -0.001584 -0.000410  -0.030948 0.011532 -0.337475
11  0.000003 0.001576 -1.908401  2.690925 1.771768 0.007679
12  3.867485 -0.000004 0.000005  0.519285 -0.683862 -0.133002
13  14.390600 -0.000084 0.000007  0.000000 0.000001 -2.056577
14  11.595290 0.000023 0.000022  1.930605 0.100341 -0.287873
15  4.415176 -0.060714 -1.931076  0.392303 0.122917 1.280873
16  0.923133 0.000004 -0.000003  -0.000002 0.000001 1.256255
17  0.923137 -0.000000 -0.000001  -0.000001 -0.000000 1.256253
18  4.449304 -0.067584 -0.950398  0.191354 0.060961 1.262188
19  1.128475 0.000011 -0.000002  -0.000001 -0.000000 1.256254
20  1.128473 0.000006 -0.000003  -0.000001 -0.000000 1.256252
21  4.416828 -0.015182 0.200537  0.074949 0.023518 1.257168
22  1.364870 0.000006 0.000003  -0.000001 -0.000000 1.256253
23  1.364865 0.000006 -0.000010  -0.000001 -0.000000 1.256252
24  4.451077 -0.068732 1.121641  -0.190865 -0.062480 1.262157
25  1.107774 0.000010 0.000002  -0.000001 0.000000 1.256253
26  1.107771 0.000001 0.000002  -0.000001 -0.000000 1.256253
27  2.098160 0.045631 1.805209  -1.110958 -0.235899 0.313859
28  0.914512 0.000004 -0.000004  0.000001 -0.000002 1.077398
29  0.914510 0.000000 -0.000003  -0.000000 -0.000000 0.749988
30  -0.000002 0.001565 1.908401  -1.139048 -1.282744 -1.939685
31  3.867492 0.000006 -0.000002  -0.976307 -0.016624 -0.714945
32  14.390596 -0.000010 -0.000010  -0.000000 0.000000 -1.530958
33  11.595301 0.000087 -0.000016  -1.504795 0.004308 0.000281
34  4.415174 -0.060695 1.931085  0.059757 0.012709 1.374525
35  0.923133 0.000007 0.000002  0.000000 0.000000 1.374170
36  0.923139 0.000003 0.000000  0.000000 0.000000 1.374170
37  4.449306 -0.067569 0.950410  -0.008714 -0.000924 1.374178
38  1.128476 0.000007 0.000009  0.000000 0.000000 1.374170
39  1.128470 0.000010 0.000005  0.000000 -0.000000 1.374170
40  4.416837 -0.015165 -0.200524  -0.000156 0.000781 1.374170
41  1.364872 -0.000003 0.000002  0.000000 0.000000 1.374170
42  1.364852 0.000001 -0.000004  0.000000 -0.000000 1.374170
43  4.451087 -0.068709 -1.121624  -0.000156 0.000781 1.374170
44  1.107767 -0.000007 0.000007  0.000000 0.000000 1.374170
45  1.107773 0.000002 0.000002  0.000000 -0.000000 1.374170
46  2.098165 0.045645 -1.805194  1.539940 0.393558 0.564622
47  0.914513 0.000008 0.000012  0.000000 -0.000000 0.795810
48  0.914511 -0.000002 0.000006  -0.000000 -0.000001 0.608667
49  1.969138 0.000013 0.000001  0.295836 0.007720 -0.158194
50  -3.968321 0.006743 3.451354  -0.085091 -3.011281 -0.512050
51  17.254908 -0.000136 0.002860  -0.073438 -0.024932 -0.668398
52  17.254902 0.000166 -0.001208  -0.125790 -0.061101 0.042771
53  3.968615 5.003946 0.000006  0.000000 -0.000000 1.570796
54  -12.572697 9.534577 43.899933  0.092929 2.112263 0.023012
55  13.906626 7.357407 44.530571  -0.083967 0.982111 -0.179519
56  -18.219326 -20.632751 19.657293  -1.437261 1.573614 1.461851
57  4.677063 -27.911104 21.791729  1.197948 1.567977 -1.679825
time 24
0  0.194390 0.086902 35.164719  0.023810 0.000000 -1.654785
1  0.000000 -0.000000 -0.000002  -1.570804 -1.570451 -0.000000
2  3.968646 -0.003571 0.000006  0.000004 -0.000093 -0.085100
3  -3.968967 0.006762 -3.450627  0.486212 2.823061 -0.118687
4  17.254902 -0.000052 -0.001344  -0.053661 0.011812 -0.843859
5  17.254906 0.000076 -0.000254  0.246344 0.121415 0.528851
6  3.968579 5.003977 0.000000  0.000000 -0.000000 1.570796
7  4.486272 -0.003595 -0.000411  -0.166538 0.074064 0.634917
8  4.486270 -0.003592 -0.000412  -0.070682 -0.037778 0.470185
9  4.486279 -0.003594 -0.000412  0.000000 -0.000000 0.000000
10  4.486210 -0.001587 -0.000411  -0.000031 0.000087 -0.346766
11  -0.000004 0.001575 -1.908401  2.726278 1.770792 0.042834
12  3.867488 -0.000001 0.000000  0.523646 -0.688125 -0.124497
13  14.390600 -0.000078 0.000006  0.000000 0.000001 -2.056577
14  11.595287 0.000029 0.000016  1.932037 0.111111 -0.285455
15  4.415180 -0.060719 -1.931075  0.392303 0.122917 1.280873
16  0.923136 0.000001 -0.000002  -0.000002 0.000001 1.256255
17  0.923133 0.000003 -0.000003  -0.000001 -0.000000 1.256253
18  4.449305 -0.067590 -0.950389  0.191354 0.060961 1.262188
19  1.128472 0.000008 -0.000010  -0.000001 -0.000000 1.256254
20  1.128471 0.000001 -0.000004  -0.000001 -0.000000 1.256252
21  4.416829 -0.015186 0.200540  0.074949 0.023518 1.257168
22  1.364871 0.000005 -0.000006  -0.000001 -0.000000 1.256253
23  1.364868 0.000010 -0.000004  -0.000001 -0.000000 1.256252
24  4.451076 -0.068734 1.121640  -0.190865 -0.062480 1.262158
25  1.107767 0.000009 -0.000008  -0.000001 0.000000 1.256253
26  1.107766 0.000003 0.000003  -0.000001 -0.000000 1.256253
27  2.098157 0.045624 1.805202  -1.110958 -0.235899 0.313859
28  0.914512 -0.000001 -0.000002  0.000001 -0.000002 1.077398
29  0.914505 0.000004 -0.000001  -0.000000 -0.000000 0.749987
30  -0.000013 0.001567 1.908399  -1.143412 -1.282744 -1.939685
31  3.867489 0.000002 -0.000003  -0.977746 -0.022409 -0.713486
32  14.390596 -0.000008 -0.000003  -0.000000 0.000001 -1.537457
33  11.595303 0.000082 -0.000020  -1.504755 -0.000010 -0.000001
34  4.415171 -0.060693 1.931085  0.059757 0.012709 1.374525
35  0.923135 0.000000 0.000008  0.000000 0.000000 1.374170
36  0.923137 0.000005 0.000004  0.000000 -0.000000 1.374170
37  4.449304 -0.067570 0.950413  -0.008714 -0.000924 1.374178
38  1.128469 0.000008 0.000008  0.000000 0.000000 1.374170
39  1.128468 0.000007 0.000008  0.000000 0.000000 1.374170
40  4.416835 -0.015158 -0.200523  -0.000156 0.000781 1.374170
41  1.364866 -0.000004 -0.000001  0.000000 0.000000 1.374170
42  1.364860 -0.000001 0.000001  0.000000 -0.000000 1.374170
43  4.451086 -0.068709 -1.121623  -0.000156 0.000781 1.374170
44  1.107774 -0.000005 0.000007  0.000000 0.000000 1.374170
45  1.107775 -0.000004 0.000003  0.000000 -0.000000 1.374170
46  2.098165 0.045641 -1.805191  1.539940 0.393558 0.564622
47  0.914512 0.000007 0.000007  0.000000 -0.000000 0.795810
48  0.914511 -0.000000 0.000003  -0.000000 -0.000001 0.608667
49  1.969135 0.000006 0.000000  0.279883 0.012916 -0.152294
50  -3.968329 0.006743 3.451355  -0.091102 -3.008136 -0.512113
51  17.254906 -0.000136 0.002862  -0.074059 -0.025035 -0.664382
52  17.254910 0.000167 -0.001208  -0.126512 -0.061505 0.041702
53  3.968615 5.003947 0.000005  0.000000 -0.000000 1.570796
54  -12.562155 9.533933 43.946270  0.087512 2.111549 0.016492
55  13.912616 7.305287 44.588154  -0.078788 0.981960 -0.177089
56  -18.343433 -20.478441 19.647869  -2.887451 1.570447 0.008423
57  4.631943 -27.881952 21.744459  2.886778 1.570447 0.004193
end
