// Created by Crowbar 0.71
version 1
nodes
  0 "ValveBiped.Bip01" -1
  1 "ValveBiped.Bip01_Pelvis" 0
  2 "ValveBiped.Bip01_L_Thigh" 1
  3 "ValveBiped.Bip01_L_Calf" 2
  4 "ValveBiped.Bip01_L_Foot" 3
  5 "ValveBiped.Bip01_L_Toe0" 4
  6 "ValveBiped.Bip01_R_Thigh" 1
  7 "ValveBiped.Bip01_R_Calf" 6
  8 "ValveBiped.Bip01_R_Foot" 7
  9 "ValveBiped.Bip01_R_Toe0" 8
  10 "ValveBiped.Bip01_Spine" 0
  11 "ValveBiped.Bip01_Spine1" 10
  12 "ValveBiped.Bip01_Spine2" 11
  13 "ValveBiped.Bip01_Spine4" 12
  14 "ValveBiped.Bip01_Neck1" 13
  15 "ValveBiped.Bip01_Head1" 14
  16 "ValveBiped.Bip01_L_Clavicle" 13
  17 "ValveBiped.Bip01_L_UpperArm" 16
  18 "ValveBiped.Bip01_L_Forearm" 17
  19 "ValveBiped.Bip01_L_Hand" 18
  20 "ValveBiped.Bip01_L_Finger4" 19
  21 "ValveBiped.Bip01_L_Finger41" 20
  22 "ValveBiped.Bip01_L_Finger42" 21
  23 "ValveBiped.Bip01_L_Finger3" 19
  24 "ValveBiped.Bip01_L_Finger31" 23
  25 "ValveBiped.Bip01_L_Finger32" 24
  26 "ValveBiped.Bip01_L_Finger2" 19
  27 "ValveBiped.Bip01_L_Finger21" 26
  28 "ValveBiped.Bip01_L_Finger22" 27
  29 "ValveBiped.Bip01_L_Finger1" 19
  30 "ValveBiped.Bip01_L_Finger11" 29
  31 "ValveBiped.Bip01_L_Finger12" 30
  32 "ValveBiped.Bip01_L_Finger0" 19
  33 "ValveBiped.Bip01_L_Finger01" 32
  34 "ValveBiped.Bip01_L_Finger02" 33
  35 "ValveBiped.Bip01_R_Clavicle" 13
  36 "ValveBiped.Bip01_R_UpperArm" 35
  37 "ValveBiped.Bip01_R_Forearm" 36
  38 "ValveBiped.Bip01_R_Hand" 37
  39 "ValveBiped.Bip01_R_Finger4" 38
  40 "ValveBiped.Bip01_R_Finger41" 39
  41 "ValveBiped.Bip01_R_Finger42" 40
  42 "ValveBiped.Bip01_R_Finger3" 38
  43 "ValveBiped.Bip01_R_Finger31" 42
  44 "ValveBiped.Bip01_R_Finger32" 43
  45 "ValveBiped.Bip01_R_Finger2" 38
  46 "ValveBiped.Bip01_R_Finger21" 45
  47 "ValveBiped.Bip01_R_Finger22" 46
  48 "ValveBiped.Bip01_R_Finger1" 38
  49 "ValveBiped.Bip01_R_Finger11" 48
  50 "ValveBiped.Bip01_R_Finger12" 49
  51 "ValveBiped.Bip01_R_Finger0" 38
  52 "ValveBiped.Bip01_R_Finger01" 51
  53 "ValveBiped.Bip01_R_Finger02" 52
  54 "ValveBiped.Bip01_L_Trapezius" 16
  55 "ValveBiped.Bip01_L_Ulna" 18
  56 "ValveBiped.Bip01_R_Ulna" 37
  57 "ValveBiped.Bip01_L_Wrist" 18
  58 "ValveBiped.Bip01_L_Bicep" 17
  59 "ValveBiped.Bip01_L_Latt" 12
  60 "ValveBiped.Bip01_L_Pectoral" 12
  61 "ValveBiped.Bip01_R_Elbow" 36
  62 "ValveBiped.Bip01_R_Pectoral" 12
  63 "ValveBiped.Bip01_R_Latt" 12
  64 "ValveBiped.Bip01_L_Shoulder" 17
  65 "ValveBiped.Bip01_R_Wrist" 37
  66 "ValveBiped.Bip01_L_Elbow" 17
  67 "ValveBiped.Bip01_R_Trapezius" 35
  68 "ValveBiped.Bip01_R_Shoulder" 36
  69 "ValveBiped.Bip01_R_Bicep" 36
end
skeleton
  time 0
    0 0.000000 0.000000 0.000000 0.000000 0.000000 -1.570796
    1 0.000000 0.000000 0.000000 0.000000 0.000000 0.000000
    2 3.982422 -0.000004 -0.000003 -1.570794 -0.170732 -1.522302
    3 15.937500 0.000000 0.000000 0.000000 0.000000 0.000000
    4 17.703125 0.000000 0.000000 -0.094882 -0.081502 -0.847782
    5 6.203125 0.000000 0.000000 -0.010590 0.001110 -0.510911
    6 -3.982422 0.000008 0.000007 -1.021282 -0.033077 -1.643011
    7 15.937500 0.000000 0.000000 0.000000 0.000000 0.171965
    8 17.703125 0.000000 0.000000 0.005598 -0.085333 -1.181142
    9 6.203125 0.000000 0.000000 -0.078650 -0.006185 -0.498943
    10 0.000000 0.000000 0.000000 0.000000 0.000000 0.000000
    11 0.000000 0.000000 0.000000 0.000000 0.000000 0.000000
    12 0.000000 0.000000 0.000000 0.000000 0.000000 0.000000
    13 0.000000 0.000000 0.000000 0.000000 0.000000 0.000000
    14 0.000000 0.000000 0.000000 0.000000 0.000000 0.000000
    15 0.000000 0.000000 0.000000 0.000000 0.000000 0.000000
    16 2.023438 0.907227 0.852539 1.638339 -1.334141 2.900137
    17 4.980469 0.000000 0.000000 -1.207686 -0.053775 -0.957833
    18 11.117188 -0.000002 -0.000003 0.000000 0.000000 -1.865911
    19 11.203125 0.000001 0.000000 1.541961 0.116823 0.006284
    20 3.548828 0.198730 -1.489258 -0.290687 0.147050 -0.157780
    21 1.218750 0.000000 -0.000001 -0.004613 0.097481 -0.857491
    22 0.679688 0.000000 -0.000002 0.011363 0.086976 -0.467403
    23 3.697266 0.267334 -0.728516 -0.117872 0.193723 -0.400743
    24 1.748047 0.000001 0.000001 0.000213 0.027093 -0.681034
    25 0.959961 0.000000 0.000001 0.002324 0.039401 -0.532389
    26 3.767578 0.152466 0.071350 0.091509 0.211297 -0.065528
    27 2.037109 0.000002 0.000001 0.001515 -0.004364 -1.066352
    28 1.066406 -0.000003 0.000000 -0.001244 -0.005670 -0.393518
    29 3.783203 -0.017258 0.794434 0.278177 0.104811 0.154911
    30 1.628906 -0.000001 -0.000001 0.018830 -0.066668 -0.468771
    31 0.955566 -0.000001 0.000002 0.000000 -0.069718 -0.170028
    32 1.258789 -0.297852 1.251953 -1.331029 0.039283 -0.742096
    33 1.392578 -0.000002 0.000001 0.000000 0.002023 0.329474
    34 1.099609 -0.000001 0.000002 0.000000 0.013129 0.145154
    35 2.023438 0.907227 -0.852051 -1.710108 1.334144 2.900116
    36 4.980469 -0.000003 0.000000 1.310727 -0.126686 -1.098419
    37 11.117188 0.000000 0.000001 0.000000 0.000000 -1.677794
    38 11.203125 0.000000 0.000000 -2.048513 -0.380455 0.236729
    39 3.548828 0.211304 1.487305 0.359881 -0.049276 -0.325269
    40 1.218750 0.000001 -0.000001 0.004612 -0.097481 -0.425522
    41 0.679688 0.000000 0.000000 -0.011363 -0.086976 -0.310324
    42 3.697266 0.273682 0.726563 0.131680 -0.098689 -0.528627
    43 1.748047 0.000000 0.000001 -0.000213 -0.027093 -0.249067
    44 0.959961 0.000000 -0.000002 -0.002323 -0.039400 -0.375311
    45 3.767578 0.151855 -0.072693 -0.090842 -0.163208 -0.405120
    46 2.037109 -0.000001 0.000000 -0.001513 0.004365 -0.634383
    47 1.066406 0.000000 0.000001 0.001243 0.005672 -0.236437
    48 3.783203 -0.023941 -0.794434 -0.352237 -0.226947 -0.220162
    49 1.628906 0.000000 0.000001 -0.018830 0.066668 -0.468771
    50 0.955566 0.000000 -0.000002 0.000000 0.069718 -0.170028
    51 1.258789 -0.308350 -1.250000 1.322500 0.079108 -0.589559
    52 1.392578 0.000000 0.000000 0.000000 -0.002022 -0.043588
    53 1.099609 -0.000001 0.000000 0.000001 -0.013128 -0.286814
    54 4.269531 0.000002 0.000000 0.000000 0.000000 0.000000
    55 5.601563 0.000001 0.000000 -0.030875 0.000000 0.000000
    56 5.601563 0.000002 0.000001 0.034929 0.000000 0.000000
    57 11.203125 0.000000 0.000001 -0.057541 0.000000 0.000000
    58 5.558594 -0.699707 -0.500000 0.000000 0.000000 0.000000
    59 0.000000 0.000000 0.000000 0.000000 0.000000 0.000000
    60 0.000000 0.000000 0.000000 0.000000 0.000000 0.000000
    61 11.117188 0.000000 0.000002 0.000000 0.000000 -0.100061
    62 0.000000 0.000000 0.000000 0.000000 0.000000 0.000000
    63 0.000000 0.000000 0.000000 0.000000 0.000000 0.000000
    64 1.499023 0.000000 0.000000 0.000000 0.000000 0.000000
    65 11.203125 0.000003 0.000002 0.065170 0.000000 0.000000
    66 11.117188 0.000000 -0.000001 0.000000 0.000000 -0.100080
    67 4.269531 -0.000002 0.000000 0.000000 0.000000 0.000000
    68 1.500000 0.000000 0.000000 0.000000 0.000000 0.000000
    69 5.558594 -0.699707 0.500000 0.000000 0.000000 0.000000
  time 1
    0 0.000000 0.000000 0.000000 0.000000 0.000000 -1.570796
    1 0.000000 0.000000 0.000000 0.000000 0.000000 0.000000
    2 3.982422 -0.000004 -0.000003 -1.570794 -0.170732 -1.522302
    3 15.937500 0.000000 0.000000 0.000000 0.000000 0.000000
    4 17.703125 0.000000 0.000000 -0.094882 -0.081502 -0.847782
    5 6.203125 0.000000 0.000000 -0.010590 0.001110 -0.510911
    6 -3.982422 0.000008 0.000007 -1.021282 -0.033077 -1.643011
    7 15.937500 0.000000 0.000000 0.000000 0.000000 0.171965
    8 17.703125 0.000000 0.000000 0.005598 -0.085333 -1.181142
    9 6.203125 0.000000 0.000000 -0.078650 -0.006185 -0.498943
    10 0.000000 0.000000 0.000000 0.000000 0.000000 0.000000
    11 0.000000 0.000000 0.000000 0.000000 0.000000 0.000000
    12 0.000000 0.000000 0.000000 0.000000 0.000000 0.000000
    13 0.000000 0.000000 0.000000 0.000000 0.000000 0.000000
    14 0.000000 0.000000 0.000000 0.000000 0.000000 0.000000
    15 0.000000 0.000000 0.000000 0.000000 0.000000 0.000000
    16 2.023438 0.907227 0.852539 1.638339 -1.334141 2.900137
    17 4.980469 0.000000 0.000000 -1.207686 -0.053775 -0.957833
    18 11.117188 -0.000002 -0.000003 0.000000 0.000000 -1.865911
    19 11.203125 0.000001 0.000000 1.541961 0.116823 0.006284
    20 3.548828 0.198730 -1.489258 -0.290687 0.147050 -0.157780
    21 1.218750 0.000000 -0.000001 -0.004613 0.097481 -0.857491
    22 0.679688 0.000000 -0.000002 0.011363 0.086976 -0.467403
    23 3.697266 0.267334 -0.728516 -0.117872 0.193723 -0.400743
    24 1.748047 0.000001 0.000001 0.000213 0.027093 -0.681034
    25 0.959961 0.000000 0.000001 0.002324 0.039401 -0.532389
    26 3.767578 0.152466 0.071350 0.091509 0.211297 -0.065528
    27 2.037109 0.000002 0.000001 0.001515 -0.004364 -1.066352
    28 1.066406 -0.000003 0.000000 -0.001244 -0.005670 -0.393518
    29 3.783203 -0.017258 0.794434 0.278177 0.104811 0.154911
    30 1.628906 -0.000001 -0.000001 0.018830 -0.066668 -0.468771
    31 0.955566 -0.000001 0.000002 0.000000 -0.069718 -0.170028
    32 1.258789 -0.297852 1.251953 -1.331029 0.039283 -0.742096
    33 1.392578 -0.000002 0.000001 0.000000 0.002023 0.329474
    34 1.099609 -0.000001 0.000002 0.000000 0.013129 0.145154
    35 2.023438 0.907227 -0.852051 -1.710108 1.334144 2.900116
    36 4.980469 -0.000003 0.000000 1.310727 -0.126686 -1.098419
    37 11.117188 0.000000 0.000001 0.000000 0.000000 -1.677794
    38 11.203125 0.000000 0.000000 -2.048513 -0.380455 0.236729
    39 3.548828 0.211304 1.487305 0.359881 -0.049276 -0.325269
    40 1.218750 0.000001 -0.000001 0.004612 -0.097481 -0.425522
    41 0.679688 0.000000 0.000000 -0.011363 -0.086976 -0.310324
    42 3.697266 0.273682 0.726563 0.131680 -0.098689 -0.528627
    43 1.748047 0.000000 0.000001 -0.000213 -0.027093 -0.249067
    44 0.959961 0.000000 -0.000002 -0.002323 -0.039400 -0.375311
    45 3.767578 0.151855 -0.072693 -0.090842 -0.163208 -0.405120
    46 2.037109 -0.000001 0.000000 -0.001513 0.004365 -0.634383
    47 1.066406 0.000000 0.000001 0.001243 0.005672 -0.236437
    48 3.783203 -0.023941 -0.794434 -0.352237 -0.226947 -0.220162
    49 1.628906 0.000000 0.000001 -0.018830 0.066668 -0.468771
    50 0.955566 0.000000 -0.000002 0.000000 0.069718 -0.170028
    51 1.258789 -0.308350 -1.250000 1.322500 0.079108 -0.589559
    52 1.392578 0.000000 0.000000 0.000000 -0.002022 -0.043588
    53 1.099609 -0.000001 0.000000 0.000001 -0.013128 -0.286814
    54 4.269531 0.000002 0.000000 0.000000 0.000000 0.000000
    55 5.601563 0.000001 0.000000 -0.030875 0.000000 0.000000
    56 5.601563 0.000002 0.000001 0.034929 0.000000 0.000000
    57 11.203125 0.000000 0.000001 -0.057541 0.000000 0.000000
    58 5.558594 -0.699707 -0.500000 0.000000 0.000000 0.000000
    59 0.000000 0.000000 0.000000 0.000000 0.000000 0.000000
    60 0.000000 0.000000 0.000000 0.000000 0.000000 0.000000
    61 11.117188 0.000000 0.000002 0.000000 0.000000 -0.100061
    62 0.000000 0.000000 0.000000 0.000000 0.000000 0.000000
    63 0.000000 0.000000 0.000000 0.000000 0.000000 0.000000
    64 1.499023 0.000000 0.000000 0.000000 0.000000 0.000000
    65 11.203125 0.000003 0.000002 0.065170 0.000000 0.000000
    66 11.117188 0.000000 -0.000001 0.000000 0.000000 -0.100080
    67 4.269531 -0.000002 0.000000 0.000000 0.000000 0.000000
    68 1.500000 0.000000 0.000000 0.000000 0.000000 0.000000
    69 5.558594 -0.699707 0.500000 0.000000 0.000000 0.000000
  time 2
    0 0.000000 0.000000 0.000000 0.000000 0.000000 -1.570796
    1 0.000000 0.000000 0.000000 0.000000 0.000000 0.000000
    2 3.982422 -0.000004 -0.000003 -1.570794 -0.170732 -1.522302
    3 15.937500 0.000000 0.000000 0.000000 0.000000 0.000000
    4 17.703125 0.000000 0.000000 -0.094882 -0.081502 -0.847782
    5 6.203125 0.000000 0.000000 -0.010590 0.001110 -0.510911
    6 -3.982422 0.000008 0.000007 -1.021282 -0.033077 -1.643011
    7 15.937500 0.000000 0.000000 0.000000 0.000000 0.171965
    8 17.703125 0.000000 0.000000 0.005598 -0.085333 -1.181142
    9 6.203125 0.000000 0.000000 -0.078650 -0.006185 -0.498943
    10 0.000000 0.000000 0.000000 0.000000 0.000000 0.000000
    11 0.000000 0.000000 0.000000 0.000000 0.000000 0.000000
    12 0.000000 0.000000 0.000000 0.000000 0.000000 0.000000
    13 0.000000 0.000000 0.000000 0.000000 0.000000 0.000000
    14 0.000000 0.000000 0.000000 0.000000 0.000000 0.000000
    15 0.000000 0.000000 0.000000 0.000000 0.000000 0.000000
    16 2.023438 0.907227 0.852539 1.638339 -1.334141 2.900137
    17 4.980469 0.000000 0.000000 -1.207686 -0.053775 -0.957833
    18 11.117188 -0.000002 -0.000003 0.000000 0.000000 -1.865911
    19 11.203125 0.000001 0.000000 1.541961 0.116823 0.006284
    20 3.548828 0.198730 -1.489258 -0.290687 0.147050 -0.157780
    21 1.218750 0.000000 -0.000001 -0.004613 0.097481 -0.857491
    22 0.679688 0.000000 -0.000002 0.011363 0.086976 -0.467403
    23 3.697266 0.267334 -0.728516 -0.117872 0.193723 -0.400743
    24 1.748047 0.000001 0.000001 0.000213 0.027093 -0.681034
    25 0.959961 0.000000 0.000001 0.002324 0.039401 -0.532389
    26 3.767578 0.152466 0.071350 0.091509 0.211297 -0.065528
    27 2.037109 0.000002 0.000001 0.001515 -0.004364 -1.066352
    28 1.066406 -0.000003 0.000000 -0.001244 -0.005670 -0.393518
    29 3.783203 -0.017258 0.794434 0.278177 0.104811 0.154911
    30 1.628906 -0.000001 -0.000001 0.018830 -0.066668 -0.468771
    31 0.955566 -0.000001 0.000002 0.000000 -0.069718 -0.170028
    32 1.258789 -0.297852 1.251953 -1.331029 0.039283 -0.742096
    33 1.392578 -0.000002 0.000001 0.000000 0.002023 0.329474
    34 1.099609 -0.000001 0.000002 0.000000 0.013129 0.145154
    35 2.023438 0.907227 -0.852051 -1.710108 1.334144 2.900116
    36 4.980469 -0.000003 0.000000 1.310727 -0.126686 -1.098419
    37 11.117188 0.000000 0.000001 0.000000 0.000000 -1.677794
    38 11.203125 0.000000 0.000000 -2.048513 -0.380455 0.236729
    39 3.548828 0.211304 1.487305 0.359881 -0.049276 -0.325269
    40 1.218750 0.000001 -0.000001 0.004612 -0.097481 -0.425522
    41 0.679688 0.000000 0.000000 -0.011363 -0.086976 -0.310324
    42 3.697266 0.273682 0.726563 0.131680 -0.098689 -0.528627
    43 1.748047 0.000000 0.000001 -0.000213 -0.027093 -0.249067
    44 0.959961 0.000000 -0.000002 -0.002323 -0.039400 -0.375311
    45 3.767578 0.151855 -0.072693 -0.090842 -0.163208 -0.405120
    46 2.037109 -0.000001 0.000000 -0.001513 0.004365 -0.634383
    47 1.066406 0.000000 0.000001 0.001243 0.005672 -0.236437
    48 3.783203 -0.023941 -0.794434 -0.352237 -0.226947 -0.220162
    49 1.628906 0.000000 0.000001 -0.018830 0.066668 -0.468771
    50 0.955566 0.000000 -0.000002 0.000000 0.069718 -0.170028
    51 1.258789 -0.308350 -1.250000 1.322500 0.079108 -0.589559
    52 1.392578 0.000000 0.000000 0.000000 -0.002022 -0.043588
    53 1.099609 -0.000001 0.000000 0.000001 -0.013128 -0.286814
    54 4.269531 0.000002 0.000000 0.000000 0.000000 0.000000
    55 5.601563 0.000001 0.000000 -0.030875 0.000000 0.000000
    56 5.601563 0.000002 0.000001 0.034929 0.000000 0.000000
    57 11.203125 0.000000 0.000001 -0.057541 0.000000 0.000000
    58 5.558594 -0.699707 -0.500000 0.000000 0.000000 0.000000
    59 0.000000 0.000000 0.000000 0.000000 0.000000 0.000000
    60 0.000000 0.000000 0.000000 0.000000 0.000000 0.000000
    61 11.117188 0.000000 0.000002 0.000000 0.000000 -0.100061
    62 0.000000 0.000000 0.000000 0.000000 0.000000 0.000000
    63 0.000000 0.000000 0.000000 0.000000 0.000000 0.000000
    64 1.499023 0.000000 0.000000 0.000000 0.000000 0.000000
    65 11.203125 0.000003 0.000002 0.065170 0.000000 0.000000
    66 11.117188 0.000000 -0.000001 0.000000 0.000000 -0.100080
    67 4.269531 -0.000002 0.000000 0.000000 0.000000 0.000000
    68 1.500000 0.000000 0.000000 0.000000 0.000000 0.000000
    69 5.558594 -0.699707 0.500000 0.000000 0.000000 0.000000
  time 3
    0 0.000000 0.000000 0.000000 0.000000 0.000000 -1.570796
    1 0.000000 0.000000 0.000000 0.000000 0.000000 0.000000
    2 3.982422 -0.000004 -0.000003 -1.570794 -0.170732 -1.522302
    3 15.937500 0.000000 0.000000 0.000000 0.000000 0.000000
    4 17.703125 0.000000 0.000000 -0.094882 -0.081502 -0.847782
    5 6.203125 0.000000 0.000000 -0.010590 0.001110 -0.510911
    6 -3.982422 0.000008 0.000007 -1.021282 -0.033077 -1.643011
    7 15.937500 0.000000 0.000000 0.000000 0.000000 0.171965
    8 17.703125 0.000000 0.000000 0.005598 -0.085333 -1.181142
    9 6.203125 0.000000 0.000000 -0.078650 -0.006185 -0.498943
    10 0.000000 0.000000 0.000000 0.000000 0.000000 0.000000
    11 0.000000 0.000000 0.000000 0.000000 0.000000 0.000000
    12 0.000000 0.000000 0.000000 0.000000 0.000000 0.000000
    13 0.000000 0.000000 0.000000 0.000000 0.000000 0.000000
    14 0.000000 0.000000 0.000000 0.000000 0.000000 0.000000
    15 0.000000 0.000000 0.000000 0.000000 0.000000 0.000000
    16 2.023438 0.907227 0.852539 1.638339 -1.334141 2.900137
    17 4.980469 0.000000 0.000000 -1.207686 -0.053775 -0.957833
    18 11.117188 -0.000002 -0.000003 0.000000 0.000000 -1.865911
    19 11.203125 0.000001 0.000000 1.541961 0.116823 0.006284
    20 3.548828 0.198730 -1.489258 -0.290687 0.147050 -0.157780
    21 1.218750 0.000000 -0.000001 -0.004613 0.097481 -0.857491
    22 0.679688 0.000000 -0.000002 0.011363 0.086976 -0.467403
    23 3.697266 0.267334 -0.728516 -0.117872 0.193723 -0.400743
    24 1.748047 0.000001 0.000001 0.000213 0.027093 -0.681034
    25 0.959961 0.000000 0.000001 0.002324 0.039401 -0.532389
    26 3.767578 0.152466 0.071350 0.091509 0.211297 -0.065528
    27 2.037109 0.000002 0.000001 0.001515 -0.004364 -1.066352
    28 1.066406 -0.000003 0.000000 -0.001244 -0.005670 -0.393518
    29 3.783203 -0.017258 0.794434 0.278177 0.104811 0.154911
    30 1.628906 -0.000001 -0.000001 0.018830 -0.066668 -0.468771
    31 0.955566 -0.000001 0.000002 0.000000 -0.069718 -0.170028
    32 1.258789 -0.297852 1.251953 -1.331029 0.039283 -0.742096
    33 1.392578 -0.000002 0.000001 0.000000 0.002023 0.329474
    34 1.099609 -0.000001 0.000002 0.000000 0.013129 0.145154
    35 2.023438 0.907227 -0.852051 -1.710108 1.334144 2.900116
    36 4.980469 -0.000003 0.000000 1.310727 -0.126686 -1.098419
    37 11.117188 0.000000 0.000001 0.000000 0.000000 -1.677794
    38 11.203125 0.000000 0.000000 -2.048513 -0.380455 0.236729
    39 3.548828 0.211304 1.487305 0.359881 -0.049276 -0.325269
    40 1.218750 0.000001 -0.000001 0.004612 -0.097481 -0.425522
    41 0.679688 0.000000 0.000000 -0.011363 -0.086976 -0.310324
    42 3.697266 0.273682 0.726563 0.131680 -0.098689 -0.528627
    43 1.748047 0.000000 0.000001 -0.000213 -0.027093 -0.249067
    44 0.959961 0.000000 -0.000002 -0.002323 -0.039400 -0.375311
    45 3.767578 0.151855 -0.072693 -0.090842 -0.163208 -0.405120
    46 2.037109 -0.000001 0.000000 -0.001513 0.004365 -0.634383
    47 1.066406 0.000000 0.000001 0.001243 0.005672 -0.236437
    48 3.783203 -0.023941 -0.794434 -0.352237 -0.226947 -0.220162
    49 1.628906 0.000000 0.000001 -0.018830 0.066668 -0.468771
    50 0.955566 0.000000 -0.000002 0.000000 0.069718 -0.170028
    51 1.258789 -0.308350 -1.250000 1.322500 0.079108 -0.589559
    52 1.392578 0.000000 0.000000 0.000000 -0.002022 -0.043588
    53 1.099609 -0.000001 0.000000 0.000001 -0.013128 -0.286814
    54 4.269531 0.000002 0.000000 0.000000 0.000000 0.000000
    55 5.601563 0.000001 0.000000 -0.030875 0.000000 0.000000
    56 5.601563 0.000002 0.000001 0.034929 0.000000 0.000000
    57 11.203125 0.000000 0.000001 -0.057541 0.000000 0.000000
    58 5.558594 -0.699707 -0.500000 0.000000 0.000000 0.000000
    59 0.000000 0.000000 0.000000 0.000000 0.000000 0.000000
    60 0.000000 0.000000 0.000000 0.000000 0.000000 0.000000
    61 11.117188 0.000000 0.000002 0.000000 0.000000 -0.100061
    62 0.000000 0.000000 0.000000 0.000000 0.000000 0.000000
    63 0.000000 0.000000 0.000000 0.000000 0.000000 0.000000
    64 1.499023 0.000000 0.000000 0.000000 0.000000 0.000000
    65 11.203125 0.000003 0.000002 0.065170 0.000000 0.000000
    66 11.117188 0.000000 -0.000001 0.000000 0.000000 -0.100080
    67 4.269531 -0.000002 0.000000 0.000000 0.000000 0.000000
    68 1.500000 0.000000 0.000000 0.000000 0.000000 0.000000
    69 5.558594 -0.699707 0.500000 0.000000 0.000000 0.000000
  time 4
    0 0.000000 0.000000 0.000000 0.000000 0.000000 -1.570796
    1 0.000000 0.000000 0.000000 0.000000 0.000000 0.000000
    2 3.982422 -0.000004 -0.000003 -1.570794 -0.170732 -1.522302
    3 15.937500 0.000000 0.000000 0.000000 0.000000 0.000000
    4 17.703125 0.000000 0.000000 -0.094882 -0.081502 -0.847782
    5 6.203125 0.000000 0.000000 -0.010590 0.001110 -0.510911
    6 -3.982422 0.000008 0.000007 -1.021282 -0.033077 -1.643011
    7 15.937500 0.000000 0.000000 0.000000 0.000000 0.171965
    8 17.703125 0.000000 0.000000 0.005598 -0.085333 -1.181142
    9 6.203125 0.000000 0.000000 -0.078650 -0.006185 -0.498943
    10 0.000000 0.000000 0.000000 0.000000 0.000000 0.000000
    11 0.000000 0.000000 0.000000 0.000000 0.000000 0.000000
    12 0.000000 0.000000 0.000000 0.000000 0.000000 0.000000
    13 0.000000 0.000000 0.000000 0.000000 0.000000 0.000000
    14 0.000000 0.000000 0.000000 0.000000 0.000000 0.000000
    15 0.000000 0.000000 0.000000 0.000000 0.000000 0.000000
    16 2.023438 0.907227 0.852539 1.638339 -1.334141 2.900137
    17 4.980469 0.000000 0.000000 -1.207686 -0.053775 -0.957833
    18 11.117188 -0.000002 -0.000003 0.000000 0.000000 -1.865911
    19 11.203125 0.000001 0.000000 1.541961 0.116823 0.006284
    20 3.548828 0.198730 -1.489258 -0.290687 0.147050 -0.157780
    21 1.218750 0.000000 -0.000001 -0.004613 0.097481 -0.857491
    22 0.679688 0.000000 -0.000002 0.011363 0.086976 -0.467403
    23 3.697266 0.267334 -0.728516 -0.117872 0.193723 -0.400743
    24 1.748047 0.000001 0.000001 0.000213 0.027093 -0.681034
    25 0.959961 0.000000 0.000001 0.002324 0.039401 -0.532389
    26 3.767578 0.152466 0.071350 0.091509 0.211297 -0.065528
    27 2.037109 0.000002 0.000001 0.001515 -0.004364 -1.066352
    28 1.066406 -0.000003 0.000000 -0.001244 -0.005670 -0.393518
    29 3.783203 -0.017258 0.794434 0.278177 0.104811 0.154911
    30 1.628906 -0.000001 -0.000001 0.018830 -0.066668 -0.468771
    31 0.955566 -0.000001 0.000002 0.000000 -0.069718 -0.170028
    32 1.258789 -0.297852 1.251953 -1.331029 0.039283 -0.742096
    33 1.392578 -0.000002 0.000001 0.000000 0.002023 0.329474
    34 1.099609 -0.000001 0.000002 0.000000 0.013129 0.145154
    35 2.023438 0.907227 -0.852051 -1.710108 1.334144 2.900116
    36 4.980469 -0.000003 0.000000 1.310727 -0.126686 -1.098419
    37 11.117188 0.000000 0.000001 0.000000 0.000000 -1.677794
    38 11.203125 0.000000 0.000000 -2.048513 -0.380455 0.236729
    39 3.548828 0.211304 1.487305 0.359881 -0.049276 -0.325269
    40 1.218750 0.000001 -0.000001 0.004612 -0.097481 -0.425522
    41 0.679688 0.000000 0.000000 -0.011363 -0.086976 -0.310324
    42 3.697266 0.273682 0.726563 0.131680 -0.098689 -0.528627
    43 1.748047 0.000000 0.000001 -0.000213 -0.027093 -0.249067
    44 0.959961 0.000000 -0.000002 -0.002323 -0.039400 -0.375311
    45 3.767578 0.151855 -0.072693 -0.090842 -0.163208 -0.405120
    46 2.037109 -0.000001 0.000000 -0.001513 0.004365 -0.634383
    47 1.066406 0.000000 0.000001 0.001243 0.005672 -0.236437
    48 3.783203 -0.023941 -0.794434 -0.352237 -0.226947 -0.220162
    49 1.628906 0.000000 0.000001 -0.018830 0.066668 -0.468771
    50 0.955566 0.000000 -0.000002 0.000000 0.069718 -0.170028
    51 1.258789 -0.308350 -1.250000 1.322500 0.079108 -0.589559
    52 1.392578 0.000000 0.000000 0.000000 -0.002022 -0.043588
    53 1.099609 -0.000001 0.000000 0.000001 -0.013128 -0.286814
    54 4.269531 0.000002 0.000000 0.000000 0.000000 0.000000
    55 5.601563 0.000001 0.000000 -0.030875 0.000000 0.000000
    56 5.601563 0.000002 0.000001 0.034929 0.000000 0.000000
    57 11.203125 0.000000 0.000001 -0.057541 0.000000 0.000000
    58 5.558594 -0.699707 -0.500000 0.000000 0.000000 0.000000
    59 0.000000 0.000000 0.000000 0.000000 0.000000 0.000000
    60 0.000000 0.000000 0.000000 0.000000 0.000000 0.000000
    61 11.117188 0.000000 0.000002 0.000000 0.000000 -0.100061
    62 0.000000 0.000000 0.000000 0.000000 0.000000 0.000000
    63 0.000000 0.000000 0.000000 0.000000 0.000000 0.000000
    64 1.499023 0.000000 0.000000 0.000000 0.000000 0.000000
    65 11.203125 0.000003 0.000002 0.065170 0.000000 0.000000
    66 11.117188 0.000000 -0.000001 0.000000 0.000000 -0.100080
    67 4.269531 -0.000002 0.000000 0.000000 0.000000 0.000000
    68 1.500000 0.000000 0.000000 0.000000 0.000000 0.000000
    69 5.558594 -0.699707 0.500000 0.000000 0.000000 0.000000
  time 5
    0 0.000000 0.000000 0.000000 0.000000 0.000000 -1.570796
    1 0.000000 0.000000 0.000000 0.000000 0.000000 0.000000
    2 3.982422 -0.000004 -0.000003 -1.570794 -0.170732 -1.522302
    3 15.937500 0.000000 0.000000 0.000000 0.000000 0.000000
    4 17.703125 0.000000 0.000000 -0.094882 -0.081502 -0.847782
    5 6.203125 0.000000 0.000000 -0.010590 0.001110 -0.510911
    6 -3.982422 0.000008 0.000007 -1.021282 -0.033077 -1.643011
    7 15.937500 0.000000 0.000000 0.000000 0.000000 0.171965
    8 17.703125 0.000000 0.000000 0.005598 -0.085333 -1.181142
    9 6.203125 0.000000 0.000000 -0.078650 -0.006185 -0.498943
    10 0.000000 0.000000 0.000000 0.000000 0.000000 0.000000
    11 0.000000 0.000000 0.000000 0.000000 0.000000 0.000000
    12 0.000000 0.000000 0.000000 0.000000 0.000000 0.000000
    13 0.000000 0.000000 0.000000 0.000000 0.000000 0.000000
    14 0.000000 0.000000 0.000000 0.000000 0.000000 0.000000
    15 0.000000 0.000000 0.000000 0.000000 0.000000 0.000000
    16 2.023438 0.907227 0.852539 1.638339 -1.334141 2.900137
    17 4.980469 0.000000 0.000000 -1.207686 -0.053775 -0.957833
    18 11.117188 -0.000002 -0.000003 0.000000 0.000000 -1.865911
    19 11.203125 0.000001 0.000000 1.541961 0.116823 0.006284
    20 3.548828 0.198730 -1.489258 -0.290687 0.147050 -0.157780
    21 1.218750 0.000000 -0.000001 -0.004613 0.097481 -0.857491
    22 0.679688 0.000000 -0.000002 0.011363 0.086976 -0.467403
    23 3.697266 0.267334 -0.728516 -0.117872 0.193723 -0.400743
    24 1.748047 0.000001 0.000001 0.000213 0.027093 -0.681034
    25 0.959961 0.000000 0.000001 0.002324 0.039401 -0.532389
    26 3.767578 0.152466 0.071350 0.091509 0.211297 -0.065528
    27 2.037109 0.000002 0.000001 0.001515 -0.004364 -1.066352
    28 1.066406 -0.000003 0.000000 -0.001244 -0.005670 -0.393518
    29 3.783203 -0.017258 0.794434 0.278177 0.104811 0.154911
    30 1.628906 -0.000001 -0.000001 0.018830 -0.066668 -0.468771
    31 0.955566 -0.000001 0.000002 0.000000 -0.069718 -0.170028
    32 1.258789 -0.297852 1.251953 -1.331029 0.039283 -0.742096
    33 1.392578 -0.000002 0.000001 0.000000 0.002023 0.329474
    34 1.099609 -0.000001 0.000002 0.000000 0.013129 0.145154
    35 2.023438 0.907227 -0.852051 -1.710108 1.334144 2.900116
    36 4.980469 -0.000003 0.000000 1.310727 -0.126686 -1.098419
    37 11.117188 0.000000 0.000001 0.000000 0.000000 -1.677794
    38 11.203125 0.000000 0.000000 -2.048513 -0.380455 0.236729
    39 3.548828 0.211304 1.487305 0.359881 -0.049276 -0.325269
    40 1.218750 0.000001 -0.000001 0.004612 -0.097481 -0.425522
    41 0.679688 0.000000 0.000000 -0.011363 -0.086976 -0.310324
    42 3.697266 0.273682 0.726563 0.131680 -0.098689 -0.528627
    43 1.748047 0.000000 0.000001 -0.000213 -0.027093 -0.249067
    44 0.959961 0.000000 -0.000002 -0.002323 -0.039400 -0.375311
    45 3.767578 0.151855 -0.072693 -0.090842 -0.163208 -0.405120
    46 2.037109 -0.000001 0.000000 -0.001513 0.004365 -0.634383
    47 1.066406 0.000000 0.000001 0.001243 0.005672 -0.236437
    48 3.783203 -0.023941 -0.794434 -0.352237 -0.226947 -0.220162
    49 1.628906 0.000000 0.000001 -0.018830 0.066668 -0.468771
    50 0.955566 0.000000 -0.000002 0.000000 0.069718 -0.170028
    51 1.258789 -0.308350 -1.250000 1.322500 0.079108 -0.589559
    52 1.392578 0.000000 0.000000 0.000000 -0.002022 -0.043588
    53 1.099609 -0.000001 0.000000 0.000001 -0.013128 -0.286814
    54 4.269531 0.000002 0.000000 0.000000 0.000000 0.000000
    55 5.601563 0.000001 0.000000 -0.030875 0.000000 0.000000
    56 5.601563 0.000002 0.000001 0.034929 0.000000 0.000000
    57 11.203125 0.000000 0.000001 -0.057541 0.000000 0.000000
    58 5.558594 -0.699707 -0.500000 0.000000 0.000000 0.000000
    59 0.000000 0.000000 0.000000 0.000000 0.000000 0.000000
    60 0.000000 0.000000 0.000000 0.000000 0.000000 0.000000
    61 11.117188 0.000000 0.000002 0.000000 0.000000 -0.100061
    62 0.000000 0.000000 0.000000 0.000000 0.000000 0.000000
    63 0.000000 0.000000 0.000000 0.000000 0.000000 0.000000
    64 1.499023 0.000000 0.000000 0.000000 0.000000 0.000000
    65 11.203125 0.000003 0.000002 0.065170 0.000000 0.000000
    66 11.117188 0.000000 -0.000001 0.000000 0.000000 -0.100080
    67 4.269531 -0.000002 0.000000 0.000000 0.000000 0.000000
    68 1.500000 0.000000 0.000000 0.000000 0.000000 0.000000
    69 5.558594 -0.699707 0.500000 0.000000 0.000000 0.000000
end
