// Created by Crowbar 0.71
version 1
nodes
  0 "ValveBiped.Bip01" -1
  1 "ValveBiped.Bip01_Pelvis" 0
  2 "ValveBiped.Bip01_L_Thigh" 1
  3 "ValveBiped.Bip01_L_Calf" 2
  4 "ValveBiped.Bip01_L_Foot" 3
  5 "ValveBiped.Bip01_L_Toe0" 4
  6 "ValveBiped.Bip01_R_Thigh" 1
  7 "ValveBiped.Bip01_R_Calf" 6
  8 "ValveBiped.Bip01_R_Foot" 7
  9 "ValveBiped.Bip01_R_Toe0" 8
  10 "ValveBiped.Bip01_Spine" 0
  11 "ValveBiped.Bip01_Spine1" 10
  12 "ValveBiped.Bip01_Spine2" 11
  13 "ValveBiped.Bip01_Spine4" 12
  14 "ValveBiped.Bip01_Neck1" 13
  15 "ValveBiped.Bip01_Head1" 14
  16 "ValveBiped.Bip01_L_Clavicle" 13
  17 "ValveBiped.Bip01_L_UpperArm" 16
  18 "ValveBiped.Bip01_L_Forearm" 17
  19 "ValveBiped.Bip01_L_Hand" 18
  20 "ValveBiped.Bip01_L_Finger4" 19
  21 "ValveBiped.Bip01_L_Finger41" 20
  22 "ValveBiped.Bip01_L_Finger42" 21
  23 "ValveBiped.Bip01_L_Finger3" 19
  24 "ValveBiped.Bip01_L_Finger31" 23
  25 "ValveBiped.Bip01_L_Finger32" 24
  26 "ValveBiped.Bip01_L_Finger2" 19
  27 "ValveBiped.Bip01_L_Finger21" 26
  28 "ValveBiped.Bip01_L_Finger22" 27
  29 "ValveBiped.Bip01_L_Finger1" 19
  30 "ValveBiped.Bip01_L_Finger11" 29
  31 "ValveBiped.Bip01_L_Finger12" 30
  32 "ValveBiped.Bip01_L_Finger0" 19
  33 "ValveBiped.Bip01_L_Finger01" 32
  34 "ValveBiped.Bip01_L_Finger02" 33
  35 "ValveBiped.Bip01_R_Clavicle" 13
  36 "ValveBiped.Bip01_R_UpperArm" 35
  37 "ValveBiped.Bip01_R_Forearm" 36
  38 "ValveBiped.Bip01_R_Hand" 37
  39 "ValveBiped.Bip01_R_Finger4" 38
  40 "ValveBiped.Bip01_R_Finger41" 39
  41 "ValveBiped.Bip01_R_Finger42" 40
  42 "ValveBiped.Bip01_R_Finger3" 38
  43 "ValveBiped.Bip01_R_Finger31" 42
  44 "ValveBiped.Bip01_R_Finger32" 43
  45 "ValveBiped.Bip01_R_Finger2" 38
  46 "ValveBiped.Bip01_R_Finger21" 45
  47 "ValveBiped.Bip01_R_Finger22" 46
  48 "ValveBiped.Bip01_R_Finger1" 38
  49 "ValveBiped.Bip01_R_Finger11" 48
  50 "ValveBiped.Bip01_R_Finger12" 49
  51 "ValveBiped.Bip01_R_Finger0" 38
  52 "ValveBiped.Bip01_R_Finger01" 51
  53 "ValveBiped.Bip01_R_Finger02" 52
  54 "ValveBiped.Bip01_L_Trapezius" 16
  55 "ValveBiped.Bip01_L_Ulna" 18
  56 "ValveBiped.Bip01_R_Ulna" 37
  57 "ValveBiped.Bip01_L_Wrist" 18
  58 "ValveBiped.Bip01_L_Bicep" 17
  59 "ValveBiped.Bip01_L_Latt" 12
  60 "ValveBiped.Bip01_L_Pectoral" 12
  61 "ValveBiped.Bip01_R_Elbow" 36
  62 "ValveBiped.Bip01_R_Pectoral" 12
  63 "ValveBiped.Bip01_R_Latt" 12
  64 "ValveBiped.Bip01_L_Shoulder" 17
  65 "ValveBiped.Bip01_R_Wrist" 37
  66 "ValveBiped.Bip01_L_Elbow" 17
  67 "ValveBiped.Bip01_R_Trapezius" 35
  68 "ValveBiped.Bip01_R_Shoulder" 36
  69 "ValveBiped.Bip01_R_Bicep" 36
end
skeleton
  time 0
    0 0.059222 -0.921898 35.519180 1.592877 -0.002361 -0.189752
    1 0.000000 0.000000 0.000000 0.000000 0.000000 0.016707
    2 3.984014 -0.000004 -0.000003 -1.262359 -0.635629 -1.624307
    3 15.940012 0.000000 0.000000 0.000000 0.000000 1.711737
    4 17.709562 0.000000 0.000000 -0.270937 0.114886 -1.268831
    5 6.203125 0.000000 0.000000 -0.011145 0.000933 -0.500513
    6 -3.984013 0.000007 0.000007 -1.227071 -0.114286 -1.486172
    7 15.940014 0.000000 0.000000 0.000000 0.000000 0.797657
    8 17.709560 0.000000 0.000000 -0.064330 -0.039035 -1.497301
    9 6.203125 0.000000 0.000000 -0.078650 -0.006185 -0.498943
    10 0.000005 4.212784 -1.689857 1.571656 -0.027977 1.578553
    11 3.837408 0.000000 0.000000 0.192269 0.150610 0.054715
    12 3.617868 0.000000 0.000000 0.178132 0.125778 0.099289
    13 7.539779 0.000000 0.000000 0.052493 -0.093648 0.008930
    14 3.177734 0.000000 0.000001 3.138477 0.000351 0.224126
    15 2.970274 -0.000001 0.000000 -0.043431 0.181388 0.082209
    16 2.023707 0.907460 0.852579 1.795892 -1.463129 2.737322
    17 4.983667 -0.000003 0.000000 -1.078810 0.681554 -0.804870
    18 11.123051 0.000000 0.000001 0.000000 0.000000 -1.654595
    19 11.208296 0.000000 0.000002 1.544790 -0.082063 0.195359
    20 3.549243 0.198824 -1.489468 -0.491218 -0.206122 -1.302418
    21 1.219000 0.000000 0.000000 -0.116644 0.201041 -1.049613
    22 0.679999 0.000001 0.000000 -0.116631 0.201023 -1.049594
    23 3.698007 0.267557 -0.728978 -0.160484 -0.094522 -1.077387
    24 1.749001 0.000000 0.000000 -0.036280 0.061909 -1.060069
    25 0.959999 0.000000 0.000000 -0.036289 0.061921 -1.060257
    26 3.768501 0.152549 0.071384 0.089647 0.003142 -1.088768
    27 2.038001 0.000002 0.000000 0.041866 -0.071468 -1.059697
    28 1.067001 0.000001 0.000000 0.041864 -0.071467 -1.059691
    29 3.783923 -0.017257 0.794554 0.469703 0.069819 -1.069029
    30 1.629001 -0.000001 0.000000 0.146934 -0.255018 -1.042351
    31 0.955999 0.000000 0.000000 0.146931 -0.255014 -1.042361
    32 1.258963 -0.297982 1.252590 -1.289283 -0.223065 -0.755500
    33 1.393000 0.000000 0.000000 -0.000012 -0.000205 0.198955
    34 1.100001 0.000000 -0.000001 -0.000012 -0.000198 0.198965
    35 2.023711 0.907462 -0.852528 -2.682987 1.302344 1.942251
    36 4.983666 -0.000003 0.000000 1.310045 -0.094115 -0.813857
    37 11.123047 0.000000 0.000000 0.000000 0.000000 -1.808592
    38 11.208294 0.000000 0.000002 -1.594688 0.057013 0.102034
    39 3.549269 0.211411 1.487669 0.496530 0.198106 -1.302846
    40 1.219002 -0.000001 0.000000 0.120347 -0.207584 -1.048846
    41 0.680000 0.000000 0.000000 0.120347 -0.207567 -1.048840
    42 3.698020 0.273717 0.726623 0.164763 0.087215 -1.077754
    43 1.749002 -0.000001 0.000000 0.040475 -0.069088 -1.059805
    44 0.959998 0.000000 0.000000 0.040484 -0.069088 -1.059964
    45 3.768501 0.151952 -0.072740 -0.085213 -0.010513 -1.088703
    46 2.037999 0.000000 0.000000 -0.037636 0.064229 -1.059978
    47 1.067001 0.000000 0.000000 -0.037633 0.064229 -1.059990
    48 3.783907 -0.023952 -0.794451 -0.465557 -0.077104 -1.068716
    49 1.629000 0.000000 0.000000 -0.143015 0.247971 -1.043431
    50 0.956001 -0.000001 0.000000 -0.143012 0.247967 -1.043430
    51 1.258940 -0.308545 -1.250052 1.288811 0.217357 -0.756836
    52 1.393001 0.000000 -0.000001 0.000120 0.001332 0.198954
    53 1.099999 -0.000001 -0.000001 0.000132 0.001324 0.198963
    54 4.269531 0.000000 0.000000 0.000000 0.000000 0.000000
    55 5.601563 0.000000 0.000000 -0.030875 0.000000 0.000000
    56 5.601563 -0.000001 0.000000 0.034929 0.000000 0.000000
    57 11.203125 0.000001 0.000000 -0.057541 0.000000 0.000000
    58 5.558594 -0.699707 -0.499756 0.000000 0.000000 0.000000
    59 2.130859 1.531250 4.996094 0.000000 0.000000 0.000000
    60 2.000000 4.937500 2.576172 0.000000 0.000000 0.000000
    61 11.117188 -0.000001 0.000001 0.000000 0.000000 -0.100061
    62 1.999023 4.937500 -2.576172 0.000000 0.000000 0.000000
    63 2.130859 1.531250 -4.996094 0.000000 0.000000 0.000000
    64 1.500000 -0.000001 0.000002 0.000000 0.000000 0.000000
    65 11.203125 0.000002 0.000002 0.065170 0.000000 0.000000
    66 11.117188 -0.000002 0.000003 0.000000 0.000000 -0.100080
    67 4.269531 -0.000005 0.000000 0.000000 0.000000 0.000000
    68 1.499023 0.000000 -0.000002 0.000000 0.000000 0.000000
    69 5.558594 -0.699707 0.500000 0.000000 0.000000 0.000000
  time 1
    0 -4.979418 -6.218358 35.913723 1.596198 -0.002870 -0.164989
    1 0.000000 0.000000 0.000000 0.000000 0.000000 0.020853
    2 3.984014 -0.000004 -0.000003 -1.304854 -0.768008 -1.711897
    3 15.940012 0.000000 0.000000 0.000000 0.000000 1.600709
    4 17.709562 0.000000 0.000000 -0.304929 0.104841 -1.355795
    5 6.203125 0.000000 0.000000 -0.011145 0.000933 -0.500513
    6 -3.984013 0.000007 0.000007 -1.123260 -0.004947 -1.465601
    7 15.940014 0.000000 0.000000 0.000000 0.000000 0.857895
    8 17.709560 0.000000 0.000000 -0.024824 -0.120273 -1.330634
    9 6.203125 0.000000 0.000000 -0.078650 -0.006185 -0.498943
    10 0.000005 4.212784 -1.689857 1.571808 -0.027977 1.579696
    11 3.837408 0.000000 0.000000 0.208784 0.129038 0.044085
    12 3.617868 0.000000 0.000000 0.198184 0.106100 0.089922
    13 7.539779 0.000000 0.000000 0.051737 -0.089417 0.011962
    14 3.177734 0.000000 0.000001 3.138477 0.000351 0.224126
    15 2.970274 -0.000001 0.000000 -0.067826 0.145006 0.086924
    16 2.023707 0.907460 0.852579 1.355824 -1.474548 3.172835
    17 4.983667 -0.000003 0.000000 -1.018485 0.697830 -0.718524
    18 11.123051 0.000000 0.000001 0.000000 0.000000 -1.638152
    19 11.208296 0.000000 0.000002 1.502540 -0.060334 0.176107
    20 3.549243 0.198824 -1.489468 -0.491218 -0.206122 -1.302460
    21 1.219000 0.000000 0.000000 -0.116644 0.201041 -1.049613
    22 0.679999 0.000001 0.000000 -0.116631 0.201023 -1.049594
    23 3.698007 0.267557 -0.728978 -0.160484 -0.094522 -1.077387
    24 1.749001 0.000000 0.000000 -0.036280 0.061909 -1.060069
    25 0.959999 0.000000 0.000000 -0.036289 0.061921 -1.060257
    26 3.768501 0.152549 0.071384 0.089647 0.003142 -1.088768
    27 2.038001 0.000002 0.000000 0.041866 -0.071468 -1.059697
    28 1.067001 0.000001 0.000000 0.041864 -0.071467 -1.059691
    29 3.783923 -0.017257 0.794554 0.469703 0.069819 -1.069029
    30 1.629001 -0.000001 0.000000 0.146934 -0.255018 -1.042351
    31 0.955999 0.000000 0.000000 0.146931 -0.255014 -1.042361
    32 1.258963 -0.297982 1.252590 -1.289283 -0.223065 -0.755500
    33 1.393000 0.000000 0.000000 -0.000012 -0.000205 0.198955
    34 1.100001 0.000000 -0.000001 -0.000012 -0.000198 0.198965
    35 2.023711 0.907462 -0.852528 -2.816226 1.275071 1.808519
    36 4.983666 -0.000003 0.000000 1.367300 -0.083800 -0.853999
    37 11.123047 0.000000 0.000000 0.000000 0.000000 -1.843860
    38 11.208294 0.000000 0.000002 -1.620971 0.056535 0.119084
    39 3.549269 0.211411 1.487669 0.496530 0.198106 -1.302846
    40 1.219002 -0.000001 0.000000 0.120347 -0.207584 -1.048846
    41 0.680000 0.000000 0.000000 0.120347 -0.207567 -1.048840
    42 3.698020 0.273717 0.726623 0.164763 0.087215 -1.077754
    43 1.749002 -0.000001 0.000000 0.040475 -0.069088 -1.059805
    44 0.959998 0.000000 0.000000 0.040484 -0.069088 -1.059964
    45 3.768501 0.151952 -0.072740 -0.085213 -0.010513 -1.088703
    46 2.037999 0.000000 0.000000 -0.037636 0.064229 -1.059978
    47 1.067001 0.000000 0.000000 -0.037633 0.064229 -1.059990
    48 3.783907 -0.023952 -0.794451 -0.465557 -0.077104 -1.068716
    49 1.629000 0.000000 0.000000 -0.143015 0.247971 -1.043431
    50 0.956001 -0.000001 0.000000 -0.143012 0.247967 -1.043430
    51 1.258940 -0.308545 -1.250052 1.288811 0.217357 -0.756836
    52 1.393001 0.000000 -0.000001 0.000120 0.001332 0.198954
    53 1.099999 -0.000001 -0.000001 0.000132 0.001324 0.198943
    54 4.269531 0.000000 0.000000 0.000000 0.000000 0.000000
    55 5.601563 0.000000 0.000000 -0.030875 0.000000 0.000000
    56 5.601563 -0.000001 0.000000 0.034929 0.000000 0.000000
    57 11.203125 0.000001 0.000000 -0.057541 0.000000 0.000000
    58 5.558594 -0.699707 -0.499756 0.000000 0.000000 0.000000
    59 2.130859 1.531250 4.996094 0.000000 0.000000 0.000000
    60 2.000000 4.937500 2.576172 0.000000 0.000000 0.000000
    61 11.117188 -0.000001 0.000001 0.000000 0.000000 -0.100061
    62 1.999023 4.937500 -2.576172 0.000000 0.000000 0.000000
    63 2.130859 1.531250 -4.996094 0.000000 0.000000 0.000000
    64 1.500000 -0.000001 0.000002 0.000000 0.000000 0.000000
    65 11.203125 0.000002 0.000002 0.065170 0.000000 0.000000
    66 11.117188 -0.000002 0.000003 0.000000 0.000000 -0.100080
    67 4.269531 -0.000005 0.000000 0.000000 0.000000 0.000000
    68 1.499023 0.000000 -0.000002 0.000000 0.000000 0.000000
    69 5.558594 -0.699707 0.500000 0.000000 0.000000 0.000000
  time 2
    0 -10.131343 -11.538257 36.351236 1.598621 -0.002870 -0.138336
    1 0.000000 0.000000 0.000000 0.000000 0.000000 0.020733
    2 3.984014 -0.000004 -0.000003 -1.476447 -0.781956 -1.706426
    3 15.940012 0.000000 0.000000 0.000000 0.000000 1.328187
    4 17.709562 0.000000 0.000000 -0.362970 0.219038 -1.446442
    5 6.203125 0.000000 0.000000 -0.011145 0.000933 -0.500513
    6 -3.984013 0.000007 0.000007 -1.007375 0.122718 -1.415682
    7 15.940014 0.000000 0.000000 0.000000 0.000000 0.890787
    8 17.709560 0.000000 0.000000 -0.024588 -0.194848 -1.122647
    9 6.203125 0.000000 0.000000 -0.078650 -0.006185 -0.498943
    10 0.000005 4.212784 -1.689857 1.571656 -0.027977 1.578453
    11 3.837408 0.000000 0.000000 0.210797 0.111840 0.037493
    12 3.617868 0.000000 0.000000 0.203440 0.090687 0.084278
    13 7.539779 0.000000 0.000000 0.052061 -0.084156 0.012981
    14 3.177734 0.000000 0.000001 3.138477 0.000351 0.224126
    15 2.970274 -0.000001 0.000000 -0.072364 0.122139 0.097563
    16 2.023707 0.907460 0.852579 1.052488 -1.461876 3.472900
    17 4.983667 -0.000003 0.000000 -1.016083 0.704076 -0.682291
    18 11.123051 0.000000 0.000001 0.000000 0.000000 -1.626133
    19 11.208296 0.000000 0.000002 1.459395 -0.046863 0.133640
    20 3.549243 0.198824 -1.489468 -0.491218 -0.206122 -1.302418
    21 1.219000 0.000000 0.000000 -0.116644 0.201041 -1.049613
    22 0.679999 0.000001 0.000000 -0.116631 0.201023 -1.049594
    23 3.698007 0.267557 -0.728978 -0.160484 -0.094522 -1.077387
    24 1.749001 0.000000 0.000000 -0.036280 0.061909 -1.060069
    25 0.959999 0.000000 0.000000 -0.036289 0.061921 -1.060257
    26 3.768501 0.152549 0.071384 0.089647 0.003142 -1.088768
    27 2.038001 0.000002 0.000000 0.041866 -0.071468 -1.059697
    28 1.067001 0.000001 0.000000 0.041864 -0.071467 -1.059691
    29 3.783923 -0.017257 0.794554 0.469703 0.069819 -1.069029
    30 1.629001 -0.000001 0.000000 0.146934 -0.255018 -1.042351
    31 0.955999 0.000000 0.000000 0.146931 -0.255014 -1.042361
    32 1.258963 -0.297982 1.252590 -1.289283 -0.223065 -0.755500
    33 1.393000 0.000000 0.000000 -0.000012 -0.000193 0.198955
    34 1.100001 0.000000 -0.000001 -0.000012 -0.000198 0.198965
    35 2.023711 0.907462 -0.852528 -2.922356 1.243183 1.700977
    36 4.983666 -0.000003 0.000000 1.389868 -0.092800 -0.895429
    37 11.123047 0.000000 0.000000 0.000000 0.000000 -1.878111
    38 11.208294 0.000000 0.000002 -1.661222 0.070397 0.145142
    39 3.549269 0.211411 1.487669 0.496530 0.198106 -1.302846
    40 1.219002 -0.000001 0.000000 0.120347 -0.207584 -1.048846
    41 0.680000 0.000000 0.000000 0.120347 -0.207567 -1.048840
    42 3.698020 0.273717 0.726623 0.164763 0.087215 -1.077754
    43 1.749002 -0.000001 0.000000 0.040475 -0.069088 -1.059805
    44 0.959998 0.000000 0.000000 0.040484 -0.069088 -1.059964
    45 3.768501 0.151952 -0.072740 -0.085213 -0.010513 -1.088703
    46 2.037999 0.000000 0.000000 -0.037636 0.064229 -1.059978
    47 1.067001 0.000000 0.000000 -0.037633 0.064229 -1.059990
    48 3.783907 -0.023952 -0.794451 -0.465557 -0.077104 -1.068716
    49 1.629000 0.000000 0.000000 -0.143015 0.247971 -1.043431
    50 0.956001 -0.000001 0.000000 -0.143012 0.247967 -1.043430
    51 1.258940 -0.308545 -1.250052 1.288811 0.217357 -0.756836
    52 1.393001 0.000000 -0.000001 0.000120 0.001332 0.198954
    53 1.099999 -0.000001 -0.000001 0.000132 0.001324 0.198943
    54 4.269531 0.000000 0.000000 0.000000 0.000000 0.000000
    55 5.601563 0.000000 0.000000 -0.030875 0.000000 0.000000
    56 5.601563 -0.000001 0.000000 0.034929 0.000000 0.000000
    57 11.203125 0.000001 0.000000 -0.057541 0.000000 0.000000
    58 5.558594 -0.699707 -0.499756 0.000000 0.000000 0.000000
    59 2.130859 1.531250 4.996094 0.000000 0.000000 0.000000
    60 2.000000 4.937500 2.576172 0.000000 0.000000 0.000000
    61 11.117188 -0.000001 0.000001 0.000000 0.000000 -0.100061
    62 1.999023 4.937500 -2.576172 0.000000 0.000000 0.000000
    63 2.130859 1.531250 -4.996094 0.000000 0.000000 0.000000
    64 1.500000 -0.000001 0.000002 0.000000 0.000000 0.000000
    65 11.203125 0.000002 0.000002 0.065170 0.000000 0.000000
    66 11.117188 -0.000002 0.000003 0.000000 0.000000 -0.100080
    67 4.269531 -0.000005 0.000000 0.000000 0.000000 0.000000
    68 1.499023 0.000000 -0.000002 0.000000 0.000000 0.000000
    69 5.558594 -0.699707 0.500000 0.000000 0.000000 0.000000
  time 3
    0 -15.287175 -16.643305 36.558274 1.592697 -0.002176 -0.112155
    1 0.000000 0.000000 0.000000 0.000000 0.000000 0.016838
    2 3.984014 -0.000004 -0.000003 -1.596723 -0.647350 -1.732276
    3 15.940012 0.000000 0.000000 0.000000 0.000000 0.895299
    4 17.709562 0.000000 0.000000 -0.547741 0.434189 -1.499132
    5 6.203125 0.000000 0.000000 -0.011145 0.000933 -0.500513
    6 -3.984013 0.000007 0.000007 -0.885685 0.235534 -1.350222
    7 15.940014 0.000000 0.000000 0.000000 0.000000 0.922195
    8 17.709560 0.000000 0.000000 -0.060048 -0.231777 -0.904252
    9 6.203125 0.000000 0.000000 -0.078650 -0.006185 -0.498943
    10 0.000005 4.212784 -1.689857 1.571454 -0.027977 1.576763
    11 3.837408 0.000000 0.000000 0.210006 0.095529 0.031812
    12 3.617868 0.000000 0.000000 0.205805 0.076126 0.079403
    13 7.539779 0.000000 0.000000 0.052564 -0.078703 0.013568
    14 3.177734 0.000000 0.000001 3.138477 0.000351 0.224126
    15 2.970274 -0.000001 0.000000 -0.078164 0.099042 0.102302
    16 2.023707 0.907460 0.852579 1.020572 -1.444423 3.503527
    17 4.983667 -0.000003 0.000000 -1.037062 0.685164 -0.673252
    18 11.123051 0.000000 0.000001 0.000000 0.000000 -1.607478
    19 11.208296 0.000000 0.000002 1.435554 -0.049552 0.098242
    20 3.549243 0.198824 -1.489468 -0.491218 -0.206122 -1.302460
    21 1.219000 0.000000 0.000000 -0.116644 0.201041 -1.049613
    22 0.679999 0.000001 0.000000 -0.116631 0.201023 -1.049594
    23 3.698007 0.267557 -0.728978 -0.160484 -0.094522 -1.077387
    24 1.749001 0.000000 0.000000 -0.036280 0.061909 -1.060069
    25 0.959999 0.000000 0.000000 -0.036289 0.061921 -1.060257
    26 3.768501 0.152549 0.071384 0.089647 0.003142 -1.088768
    27 2.038001 0.000002 0.000000 0.041866 -0.071468 -1.059697
    28 1.067001 0.000001 0.000000 0.041864 -0.071467 -1.059691
    29 3.783923 -0.017257 0.794554 0.469703 0.069819 -1.069029
    30 1.629001 -0.000001 0.000000 0.146934 -0.255018 -1.042351
    31 0.955999 0.000000 0.000000 0.146931 -0.255014 -1.042361
    32 1.258963 -0.297982 1.252590 -1.289283 -0.223065 -0.755500
    33 1.393000 0.000000 0.000000 -0.000012 -0.000205 0.198955
    34 1.100001 0.000000 -0.000001 -0.000012 -0.000198 0.198965
    35 2.023711 0.907462 -0.852528 -2.966430 1.223976 1.656028
    36 4.983666 -0.000003 0.000000 1.398793 -0.124992 -0.940853
    37 11.123047 0.000000 0.000000 0.000000 0.000000 -1.882305
    38 11.208294 0.000000 0.000002 -1.693815 0.080997 0.162947
    39 3.549269 0.211411 1.487669 0.496530 0.198106 -1.302846
    40 1.219002 -0.000001 0.000000 0.120347 -0.207584 -1.048846
    41 0.680000 0.000000 0.000000 0.120347 -0.207567 -1.048840
    42 3.698020 0.273717 0.726623 0.164763 0.087201 -1.077754
    43 1.749002 -0.000001 0.000000 0.040475 -0.069088 -1.059805
    44 0.959998 0.000000 0.000000 0.040484 -0.069088 -1.059964
    45 3.768501 0.151952 -0.072740 -0.085213 -0.010513 -1.088703
    46 2.037999 0.000000 0.000000 -0.037636 0.064229 -1.059978
    47 1.067001 0.000000 0.000000 -0.037633 0.064229 -1.059990
    48 3.783907 -0.023952 -0.794451 -0.465557 -0.077104 -1.068716
    49 1.629000 0.000000 0.000000 -0.143015 0.247971 -1.043431
    50 0.956001 -0.000001 0.000000 -0.143012 0.247967 -1.043430
    51 1.258940 -0.308545 -1.250052 1.288811 0.217357 -0.756836
    52 1.393001 0.000000 -0.000001 0.000120 0.001332 0.198954
    53 1.099999 -0.000001 -0.000001 0.000132 0.001324 0.198943
    54 4.269531 0.000000 0.000000 0.000000 0.000000 0.000000
    55 5.601563 0.000000 0.000000 -0.030875 0.000000 0.000000
    56 5.601563 -0.000001 0.000000 0.034929 0.000000 0.000000
    57 11.203125 0.000001 0.000000 -0.057541 0.000000 0.000000
    58 5.558594 -0.699707 -0.499756 0.000000 0.000000 0.000000
    59 2.130859 1.531250 4.996094 0.000000 0.000000 0.000000
    60 2.000000 4.937500 2.576172 0.000000 0.000000 0.000000
    61 11.117188 -0.000001 0.000001 0.000000 0.000000 -0.100061
    62 1.999023 4.937500 -2.576172 0.000000 0.000000 0.000000
    63 2.130859 1.531250 -4.996094 0.000000 0.000000 0.000000
    64 1.500000 -0.000001 0.000002 0.000000 0.000000 0.000000
    65 11.203125 0.000002 0.000002 0.065170 0.000000 0.000000
    66 11.117188 -0.000002 0.000003 0.000000 0.000000 -0.100080
    67 4.269531 -0.000005 0.000000 0.000000 0.000000 0.000000
    68 1.499023 0.000000 -0.000002 0.000000 0.000000 0.000000
    69 5.558594 -0.699707 0.500000 0.000000 0.000000 0.000000
  time 4
    0 -20.439100 -21.572567 36.382487 1.578336 -0.001250 -0.086447
    1 0.000000 0.000000 0.000000 0.000000 0.000000 0.003332
    2 3.984014 -0.000004 -0.000003 -1.608919 -0.601053 -1.740752
    3 15.940012 0.000000 0.000000 0.000000 0.000000 0.781514
    4 17.709562 0.000000 0.000000 -0.293075 0.356904 -1.352879
    5 6.203125 0.000000 0.000000 -0.011145 0.000933 -0.500513
    6 -3.984013 0.000007 0.000007 -0.773638 0.305827 -1.286955
    7 15.940014 0.000000 0.000000 0.000000 0.000000 0.976822
    8 17.709560 0.000000 0.000000 -0.105420 -0.214467 -0.719027
    9 6.203125 0.000000 0.000000 -0.078650 -0.006185 -0.498943
    10 0.000005 4.212784 -1.689857 1.571251 -0.027977 1.575072
    11 3.837408 0.000000 0.000000 0.206974 0.080524 0.027666
    12 3.617868 0.000000 0.000000 0.205486 0.062799 0.075751
    13 7.539779 0.000000 0.000000 0.052588 -0.073418 0.013340
    14 3.177734 0.000000 0.000001 3.138477 0.000351 0.224126
    15 2.970274 -0.000001 0.000000 -0.081757 0.075969 0.104474
    16 2.023707 0.907460 0.852579 1.108941 -1.432355 3.415658
    17 4.983667 -0.000003 0.000000 -1.062280 0.629803 -0.690007
    18 11.123051 0.000000 0.000001 0.000000 0.000000 -1.587790
    19 11.208296 0.000000 0.000002 1.440731 -0.061537 0.083940
    20 3.549243 0.198824 -1.489468 -0.491218 -0.206122 -1.302460
    21 1.219000 0.000000 0.000000 -0.116644 0.201041 -1.049613
    22 0.679999 0.000001 0.000000 -0.116631 0.201023 -1.049594
    23 3.698007 0.267557 -0.728978 -0.160484 -0.094522 -1.077387
    24 1.749001 0.000000 0.000000 -0.036280 0.061921 -1.060069
    25 0.959999 0.000000 0.000000 -0.036289 0.061921 -1.060257
    26 3.768501 0.152549 0.071384 0.089647 0.003142 -1.088768
    27 2.038001 0.000002 0.000000 0.041866 -0.071468 -1.059697
    28 1.067001 0.000001 0.000000 0.041864 -0.071467 -1.059691
    29 3.783923 -0.017257 0.794554 0.469703 0.069819 -1.069029
    30 1.629001 -0.000001 0.000000 0.146934 -0.255018 -1.042351
    31 0.955999 0.000000 0.000000 0.146931 -0.255014 -1.042361
    32 1.258963 -0.297982 1.252590 -1.289283 -0.223065 -0.755500
    33 1.393000 0.000000 0.000000 -0.000012 -0.000205 0.198967
    34 1.100001 0.000000 -0.000001 -0.000012 -0.000198 0.198965
    35 2.023711 0.907462 -0.852528 -2.943102 1.229477 1.680360
    36 4.983666 -0.000003 0.000000 1.398068 -0.174111 -0.984031
    37 11.123047 0.000000 0.000000 0.000000 0.000000 -1.848943
    38 11.208294 0.000000 0.000002 -1.698288 0.078354 0.160140
    39 3.549269 0.211411 1.487669 0.496530 0.198106 -1.302846
    40 1.219002 -0.000001 0.000000 0.120347 -0.207584 -1.048846
    41 0.680000 0.000000 0.000000 0.120347 -0.207567 -1.048840
    42 3.698020 0.273717 0.726623 0.164763 0.087215 -1.077754
    43 1.749002 -0.000001 0.000000 0.040475 -0.069088 -1.059805
    44 0.959998 0.000000 0.000000 0.040484 -0.069088 -1.059964
    45 3.768501 0.151952 -0.072740 -0.085213 -0.010513 -1.088703
    46 2.037999 0.000000 0.000000 -0.037636 0.064229 -1.059978
    47 1.067001 0.000000 0.000000 -0.037633 0.064229 -1.059990
    48 3.783907 -0.023952 -0.794451 -0.465557 -0.077104 -1.068716
    49 1.629000 0.000000 0.000000 -0.143015 0.247971 -1.043431
    50 0.956001 -0.000001 0.000000 -0.143012 0.247967 -1.043430
    51 1.258940 -0.308545 -1.250052 1.288811 0.217357 -0.756836
    52 1.393001 0.000000 -0.000001 0.000120 0.001332 0.198954
    53 1.099999 -0.000001 -0.000001 0.000132 0.001324 0.198943
    54 4.269531 0.000000 0.000000 0.000000 0.000000 0.000000
    55 5.601563 0.000000 0.000000 -0.030875 0.000000 0.000000
    56 5.601563 -0.000001 0.000000 0.034929 0.000000 0.000000
    57 11.203125 0.000001 0.000000 -0.057541 0.000000 0.000000
    58 5.558594 -0.699707 -0.499756 0.000000 0.000000 0.000000
    59 2.130859 1.531250 4.996094 0.000000 0.000000 0.000000
    60 2.000000 4.937500 2.576172 0.000000 0.000000 0.000000
    61 11.117188 -0.000001 0.000001 0.000000 0.000000 -0.100061
    62 1.999023 4.937500 -2.576172 0.000000 0.000000 0.000000
    63 2.130859 1.531250 -4.996094 0.000000 0.000000 0.000000
    64 1.500000 -0.000001 0.000002 0.000000 0.000000 0.000000
    65 11.203125 0.000002 0.000002 0.065170 0.000000 0.000000
    66 11.117188 -0.000002 0.000003 0.000000 0.000000 -0.100080
    67 4.269531 -0.000005 0.000000 0.000000 0.000000 0.000000
    68 1.499023 0.000000 -0.000002 0.000000 0.000000 0.000000
    69 5.558594 -0.699707 0.500000 0.000000 0.000000 0.000000
  time 5
    0 -25.739467 -26.431514 35.749655 1.558140 -0.000370 -0.063291
    1 0.000000 0.000000 0.000000 0.000000 0.000000 -0.013483
    2 3.984014 -0.000004 -0.000003 -1.603473 -0.573493 -1.738889
    3 15.940012 0.000000 0.000000 0.000000 0.000000 0.735184
    4 17.709562 0.000000 0.000000 0.015741 0.190265 -1.223916
    5 6.203125 0.000000 0.000000 -0.011145 0.000933 -0.500513
    6 -3.984013 0.000007 0.000007 -0.696412 0.311419 -1.268487
    7 15.940014 0.000000 0.000000 0.000000 0.000000 1.086333
    8 17.709560 0.000000 0.000000 -0.136150 -0.151627 -0.616289
    9 6.203125 0.000000 0.000000 -0.078650 -0.006185 -0.498943
    10 0.000005 4.212784 -1.689857 1.570998 -0.027977 1.573382
    11 3.837408 0.000000 0.000000 0.192485 0.072243 0.031285
    12 3.617868 0.000000 0.000000 0.191617 0.055692 0.078512
    13 7.539779 0.000000 0.000000 0.049988 -0.069103 0.008942
    14 3.177734 0.000000 0.000001 3.138477 0.000351 0.224126
    15 2.970274 -0.000001 0.000000 -0.058749 0.070259 0.112645
    16 2.023707 0.907460 0.852579 1.257853 -1.423861 3.268816
    17 4.983667 -0.000003 0.000000 -1.101838 0.548738 -0.741935
    18 11.123051 0.000000 0.000001 0.000000 0.000000 -1.582039
    19 11.208296 0.000000 0.000002 1.458884 -0.065761 0.083005
    20 3.549243 0.198824 -1.489468 -0.491218 -0.206122 -1.302418
    21 1.219000 0.000000 0.000000 -0.116644 0.201041 -1.049613
    22 0.679999 0.000001 0.000000 -0.116631 0.201023 -1.049594
    23 3.698007 0.267557 -0.728978 -0.160484 -0.094522 -1.077387
    24 1.749001 0.000000 0.000000 -0.036280 0.061909 -1.060069
    25 0.959999 0.000000 0.000000 -0.036289 0.061921 -1.060257
    26 3.768501 0.152549 0.071384 0.089647 0.003142 -1.088768
    27 2.038001 0.000002 0.000000 0.041866 -0.071468 -1.059697
    28 1.067001 0.000001 0.000000 0.041864 -0.071467 -1.059691
    29 3.783923 -0.017257 0.794554 0.469703 0.069819 -1.069029
    30 1.629001 -0.000001 0.000000 0.146934 -0.255018 -1.042351
    31 0.955999 0.000000 0.000000 0.146931 -0.255014 -1.042361
    32 1.258963 -0.297982 1.252590 -1.289283 -0.223065 -0.755500
    33 1.393000 0.000000 0.000000 -0.000012 -0.000205 0.198955
    34 1.100001 0.000000 -0.000001 -0.000012 -0.000198 0.198965
    35 2.023711 0.907462 -0.852528 -2.879480 1.251155 1.745183
    36 4.983666 -0.000003 0.000000 1.381595 -0.229911 -1.014896
    37 11.123047 0.000000 0.000000 0.000000 0.000000 -1.799887
    38 11.208294 0.000000 0.000002 -1.689220 0.074839 0.149122
    39 3.549269 0.211411 1.487669 0.496530 0.198106 -1.302846
    40 1.219002 -0.000001 0.000000 0.120347 -0.207584 -1.048846
    41 0.680000 0.000000 0.000000 0.120347 -0.207567 -1.048840
    42 3.698020 0.273717 0.726623 0.164763 0.087215 -1.077754
    43 1.749002 -0.000001 0.000000 0.040475 -0.069088 -1.059805
    44 0.959998 0.000000 0.000000 0.040484 -0.069088 -1.059964
    45 3.768501 0.151952 -0.072740 -0.085213 -0.010513 -1.088703
    46 2.037999 0.000000 0.000000 -0.037636 0.064229 -1.059978
    47 1.067001 0.000000 0.000000 -0.037633 0.064229 -1.059990
    48 3.783907 -0.023952 -0.794451 -0.465557 -0.077104 -1.068716
    49 1.629000 0.000000 0.000000 -0.143015 0.247971 -1.043431
    50 0.956001 -0.000001 0.000000 -0.143012 0.247967 -1.043430
    51 1.258940 -0.308545 -1.250052 1.288811 0.217357 -0.756836
    52 1.393001 0.000000 -0.000001 0.000120 0.001332 0.198954
    53 1.099999 -0.000001 -0.000001 0.000132 0.001324 0.198943
    54 4.269531 0.000000 0.000000 0.000000 0.000000 0.000000
    55 5.601563 0.000000 0.000000 -0.030875 0.000000 0.000000
    56 5.601563 -0.000001 0.000000 0.034929 0.000000 0.000000
    57 11.203125 0.000001 0.000000 -0.057541 0.000000 0.000000
    58 5.558594 -0.699707 -0.499756 0.000000 0.000000 0.000000
    59 2.130859 1.531250 4.996094 0.000000 0.000000 0.000000
    60 2.000000 4.937500 2.576172 0.000000 0.000000 0.000000
    61 11.117188 -0.000001 0.000001 0.000000 0.000000 -0.100061
    62 1.999023 4.937500 -2.576172 0.000000 0.000000 0.000000
    63 2.130859 1.531250 -4.996094 0.000000 0.000000 0.000000
    64 1.500000 -0.000001 0.000002 0.000000 0.000000 0.000000
    65 11.203125 0.000002 0.000002 0.065170 0.000000 0.000000
    66 11.117188 -0.000002 0.000003 0.000000 0.000000 -0.100080
    67 4.269531 -0.000005 0.000000 0.000000 0.000000 0.000000
    68 1.499023 0.000000 -0.000002 0.000000 0.000000 0.000000
    69 5.558594 -0.699707 0.500000 0.000000 0.000000 0.000000
  time 6
    0 -30.551537 -30.782632 34.886348 1.537137 -0.000046 -0.045806
    1 0.000000 0.000000 0.000000 0.000000 0.000000 -0.018456
    2 3.984014 -0.000004 -0.000003 -1.593808 -0.545682 -1.730352
    3 15.940012 0.000000 0.000000 0.000000 0.000000 0.728539
    4 17.709562 0.000000 0.000000 0.241602 0.033249 -1.190819
    5 6.203125 0.000000 0.000000 -0.011145 0.000933 -0.500513
    6 -3.984013 0.000007 0.000007 -0.671606 0.212228 -1.357170
    7 15.940014 0.000000 0.000000 0.000000 0.000000 1.329088
    8 17.709560 0.000000 0.000000 -0.158150 -0.038295 -0.644332
    9 6.203125 0.000000 0.000000 -0.078650 -0.006185 -0.498943
    10 0.000005 4.212784 -1.689857 1.570745 -0.027977 1.571244
    11 3.837408 0.000000 0.000000 0.172890 0.067953 0.035659
    12 3.617868 0.000000 0.000000 0.171917 0.052157 0.081814
    13 7.539779 0.000000 0.000000 0.046896 -0.065388 0.004052
    14 3.177734 0.000000 0.000001 3.138477 0.000351 0.224126
    15 2.970274 -0.000001 0.000000 -0.022630 0.072001 0.121309
    16 2.023707 0.907460 0.852579 1.431480 -1.412535 3.098366
    17 4.983667 -0.000003 0.000000 -1.127550 0.431139 -0.804983
    18 11.123051 0.000000 0.000001 0.000000 0.000000 -1.587643
    19 11.208296 0.000000 0.000002 1.471476 -0.070078 0.087021
    20 3.549243 0.198824 -1.489468 -0.491218 -0.206122 -1.302418
    21 1.219000 0.000000 0.000000 -0.116644 0.201041 -1.049613
    22 0.679999 0.000001 0.000000 -0.116631 0.201023 -1.049594
    23 3.698007 0.267557 -0.728978 -0.160484 -0.094522 -1.077387
    24 1.749001 0.000000 0.000000 -0.036280 0.061909 -1.060069
    25 0.959999 0.000000 0.000000 -0.036289 0.061921 -1.060257
    26 3.768501 0.152549 0.071384 0.089647 0.003142 -1.088768
    27 2.038001 0.000002 0.000000 0.041866 -0.071468 -1.059697
    28 1.067001 0.000001 0.000000 0.041864 -0.071467 -1.059691
    29 3.783923 -0.017257 0.794554 0.469703 0.069819 -1.069029
    30 1.629001 -0.000001 0.000000 0.146934 -0.255018 -1.042351
    31 0.955999 0.000000 0.000000 0.146931 -0.255014 -1.042361
    32 1.258963 -0.297982 1.252590 -1.289283 -0.223065 -0.755500
    33 1.393000 0.000000 0.000000 -0.000012 -0.000205 0.198955
    34 1.100001 0.000000 -0.000001 -0.000012 -0.000198 0.198965
    35 2.023711 0.907462 -0.852528 -2.784968 1.273672 1.841117
    36 4.983666 -0.000003 0.000000 1.378185 -0.307830 -1.036860
    37 11.123047 0.000000 0.000000 0.000000 0.000000 -1.753245
    38 11.208294 0.000000 0.000002 -1.675620 0.076695 0.143341
    39 3.549269 0.211411 1.487669 0.496530 0.198106 -1.302846
    40 1.219002 -0.000001 0.000000 0.120347 -0.207584 -1.048846
    41 0.680000 0.000000 0.000000 0.120347 -0.207567 -1.048840
    42 3.698020 0.273717 0.726623 0.164763 0.087215 -1.077754
    43 1.749002 -0.000001 0.000000 0.040475 -0.069088 -1.059805
    44 0.959998 0.000000 0.000000 0.040484 -0.069088 -1.059964
    45 3.768501 0.151952 -0.072740 -0.085213 -0.010513 -1.088703
    46 2.037999 0.000000 0.000000 -0.037636 0.064229 -1.059978
    47 1.067001 0.000000 0.000000 -0.037633 0.064229 -1.059990
    48 3.783907 -0.023952 -0.794451 -0.465557 -0.077104 -1.068716
    49 1.629000 0.000000 0.000000 -0.143015 0.247971 -1.043431
    50 0.956001 -0.000001 0.000000 -0.143012 0.247967 -1.043430
    51 1.258940 -0.308545 -1.250052 1.288811 0.217357 -0.756836
    52 1.393001 0.000000 -0.000001 0.000120 0.001332 0.198954
    53 1.099999 -0.000001 -0.000001 0.000132 0.001324 0.198963
    54 4.269531 0.000000 0.000000 0.000000 0.000000 0.000000
    55 5.601563 0.000000 0.000000 -0.030875 0.000000 0.000000
    56 5.601563 -0.000001 0.000000 0.034929 0.000000 0.000000
    57 11.203125 0.000001 0.000000 -0.057541 0.000000 0.000000
    58 5.558594 -0.699707 -0.499756 0.000000 0.000000 0.000000
    59 2.130859 1.531250 4.996094 0.000000 0.000000 0.000000
    60 2.000000 4.937500 2.576172 0.000000 0.000000 0.000000
    61 11.117188 -0.000001 0.000001 0.000000 0.000000 -0.100061
    62 1.999023 4.937500 -2.576172 0.000000 0.000000 0.000000
    63 2.130859 1.531250 -4.996094 0.000000 0.000000 0.000000
    64 1.500000 -0.000001 0.000002 0.000000 0.000000 0.000000
    65 11.203125 0.000002 0.000002 0.065170 0.000000 0.000000
    66 11.117188 -0.000002 0.000003 0.000000 0.000000 -0.100080
    67 4.269531 -0.000005 0.000000 0.000000 0.000000 0.000000
    68 1.499023 0.000000 -0.000002 0.000000 0.000000 0.000000
    69 5.558594 -0.699707 0.500000 0.000000 0.000000 0.000000
  time 7
    0 -34.375297 -34.305601 34.245703 1.521160 -0.000046 -0.037300
    1 0.000000 0.000000 0.000000 0.000000 0.000000 0.005046
    2 3.984014 -0.000004 -0.000003 -1.565657 -0.524886 -1.652261
    3 15.940012 0.000000 0.000000 0.000000 0.000000 0.935172
    4 17.709562 0.000000 0.000000 0.133757 0.080961 -1.406592
    5 6.203125 0.000000 0.000000 -0.011145 0.000933 -0.500513
    6 -3.984013 0.000007 0.000007 -0.669453 0.015258 -1.548981
    7 15.940014 0.000000 0.000000 0.000000 0.000000 1.677550
    8 17.709560 0.000000 0.000000 -0.173786 0.103932 -0.773831
    9 6.203125 0.000000 0.000000 -0.078650 -0.006185 -0.498943
    10 0.000005 4.212784 -1.689857 1.570442 -0.027977 1.567763
    11 3.837408 0.000000 0.000000 0.150359 0.068084 0.037841
    12 3.617868 0.000000 0.000000 0.148686 0.052481 0.083352
    13 7.539779 0.000000 0.000000 0.043732 -0.062691 0.000637
    14 3.177734 0.000000 0.000001 3.138477 0.000351 0.224126
    15 2.970274 -0.000001 0.000000 0.022188 0.081003 0.126715
    16 2.023707 0.907460 0.852579 1.573013 -1.399724 2.960183
    17 4.983667 -0.000003 0.000000 -1.126844 0.281990 -0.879642
    18 11.123051 0.000000 0.000001 0.000000 0.000000 -1.583661
    19 11.208296 0.000000 0.000002 1.486944 -0.095983 0.079567
    20 3.549243 0.198824 -1.489468 -0.491218 -0.206122 -1.302418
    21 1.219000 0.000000 0.000000 -0.116644 0.201041 -1.049613
    22 0.679999 0.000001 0.000000 -0.116631 0.201023 -1.049594
    23 3.698007 0.267557 -0.728978 -0.160484 -0.094522 -1.077387
    24 1.749001 0.000000 0.000000 -0.036280 0.061909 -1.060069
    25 0.959999 0.000000 0.000000 -0.036289 0.061921 -1.060257
    26 3.768501 0.152549 0.071384 0.089647 0.003142 -1.088768
    27 2.038001 0.000002 0.000000 0.041866 -0.071468 -1.059697
    28 1.067001 0.000001 0.000000 0.041864 -0.071467 -1.059691
    29 3.783923 -0.017257 0.794554 0.469703 0.069819 -1.069029
    30 1.629001 -0.000001 0.000000 0.146934 -0.255018 -1.042351
    31 0.955999 0.000000 0.000000 0.146931 -0.255014 -1.042361
    32 1.258963 -0.297982 1.252590 -1.289283 -0.223065 -0.755500
    33 1.393000 0.000000 0.000000 -0.000012 -0.000205 0.198955
    34 1.100001 0.000000 -0.000001 -0.000012 -0.000198 0.198965
    35 2.023711 0.907462 -0.852528 -2.689534 1.287658 1.937608
    36 4.983666 -0.000003 0.000000 1.394802 -0.407972 -1.050753
    37 11.123047 0.000000 0.000000 0.000000 0.000000 -1.708827
    38 11.208294 0.000000 0.000002 -1.653932 0.084511 0.146357
    39 3.549269 0.211411 1.487669 0.496530 0.198106 -1.302846
    40 1.219002 -0.000001 0.000000 0.120347 -0.207584 -1.048846
    41 0.680000 0.000000 0.000000 0.120347 -0.207567 -1.048840
    42 3.698020 0.273717 0.726623 0.164763 0.087215 -1.077754
    43 1.749002 -0.000001 0.000000 0.040475 -0.069088 -1.059805
    44 0.959998 0.000000 0.000000 0.040484 -0.069088 -1.059964
    45 3.768501 0.151952 -0.072740 -0.085213 -0.010513 -1.088703
    46 2.037999 0.000000 0.000000 -0.037636 0.064229 -1.059978
    47 1.067001 0.000000 0.000000 -0.037633 0.064229 -1.059990
    48 3.783907 -0.023952 -0.794451 -0.465557 -0.077104 -1.068716
    49 1.629000 0.000000 0.000000 -0.143015 0.247971 -1.043431
    50 0.956001 -0.000001 0.000000 -0.143012 0.247967 -1.043430
    51 1.258940 -0.308545 -1.250052 1.288811 0.217357 -0.756836
    52 1.393001 0.000000 -0.000001 0.000120 0.001332 0.198954
    53 1.099999 -0.000001 -0.000001 0.000132 0.001324 0.198963
    54 4.269531 0.000000 0.000000 0.000000 0.000000 0.000000
    55 5.601563 0.000000 0.000000 -0.030875 0.000000 0.000000
    56 5.601563 -0.000001 0.000000 0.034929 0.000000 0.000000
    57 11.203125 0.000001 0.000000 -0.057541 0.000000 0.000000
    58 5.558594 -0.699707 -0.499756 0.000000 0.000000 0.000000
    59 2.130859 1.531250 4.996094 0.000000 0.000000 0.000000
    60 2.000000 4.937500 2.576172 0.000000 0.000000 0.000000
    61 11.117188 -0.000001 0.000001 0.000000 0.000000 -0.100061
    62 1.999023 4.937500 -2.576172 0.000000 0.000000 0.000000
    63 2.130859 1.531250 -4.996094 0.000000 0.000000 0.000000
    64 1.500000 -0.000001 0.000002 0.000000 0.000000 0.000000
    65 11.203125 0.000002 0.000002 0.065170 0.000000 0.000000
    66 11.117188 -0.000002 0.000003 0.000000 0.000000 -0.100080
    67 4.269531 -0.000005 0.000000 0.000000 0.000000 0.000000
    68 1.499023 0.000000 -0.000002 0.000000 0.000000 0.000000
    69 5.558594 -0.699707 0.500000 0.000000 0.000000 0.000000
  time 8
    0 -37.847483 -37.508247 34.097261 1.516043 0.000000 -0.036166
    1 0.000000 0.000000 0.000000 0.000000 0.000000 0.020062
    2 3.984014 -0.000004 -0.000003 -1.536968 -0.420949 -1.571045
    3 15.940012 0.000000 0.000000 0.000000 0.000000 0.957866
    4 17.709562 0.000000 0.000000 0.028914 0.117757 -1.540209
    5 6.203125 0.000000 0.000000 -0.011145 0.000933 -0.500513
    6 -3.984013 0.000007 0.000007 -0.657939 -0.230392 -1.745546
    7 15.940014 0.000000 0.000000 0.000000 0.000000 1.994216
    8 17.709560 0.000000 0.000000 -0.173408 0.222860 -0.918863
    9 6.203125 0.000000 0.000000 -0.078650 -0.006185 -0.498943
    10 0.000005 4.212784 -1.689857 1.570442 -0.027977 1.567763
    11 3.837408 0.000000 0.000000 0.147722 0.078919 0.040909
    12 3.617868 0.000000 0.000000 0.144596 0.062236 0.086253
    13 7.539779 0.000000 0.000000 0.044918 -0.065544 0.000780
    14 3.177734 0.000000 0.000001 3.138477 0.000351 0.224126
    15 2.970274 -0.000001 0.000000 0.023607 0.102176 0.126764
    16 2.023707 0.907460 0.852579 1.628488 -1.395221 2.906040
    17 4.983667 -0.000003 0.000000 -1.100849 0.193046 -0.933386
    18 11.123051 0.000000 0.000001 0.000000 0.000000 -1.576361
    19 11.208296 0.000000 0.000002 1.496915 -0.111531 0.069253
    20 3.549243 0.198824 -1.489468 -0.491218 -0.206122 -1.302418
    21 1.219000 0.000000 0.000000 -0.116644 0.201041 -1.049613
    22 0.679999 0.000001 0.000000 -0.116631 0.201023 -1.049594
    23 3.698007 0.267557 -0.728978 -0.160484 -0.094522 -1.077387
    24 1.749001 0.000000 0.000000 -0.036280 0.061909 -1.060069
    25 0.959999 0.000000 0.000000 -0.036289 0.061921 -1.060257
    26 3.768501 0.152549 0.071384 0.089647 0.003142 -1.088768
    27 2.038001 0.000002 0.000000 0.041866 -0.071468 -1.059697
    28 1.067001 0.000001 0.000000 0.041864 -0.071467 -1.059691
    29 3.783923 -0.017257 0.794554 0.469703 0.069819 -1.069029
    30 1.629001 -0.000001 0.000000 0.146934 -0.255018 -1.042351
    31 0.955999 0.000000 0.000000 0.146931 -0.255014 -1.042361
    32 1.258963 -0.297982 1.252590 -1.289283 -0.223065 -0.755500
    33 1.393000 0.000000 0.000000 -0.000012 -0.000205 0.198955
    34 1.100001 0.000000 -0.000001 -0.000012 -0.000198 0.198965
    35 2.023711 0.907462 -0.852528 -2.654772 1.293299 1.972434
    36 4.983666 -0.000003 0.000000 1.427167 -0.470418 -1.052167
    37 11.123047 0.000000 0.000000 0.000000 0.000000 -1.686840
    38 11.208294 0.000000 0.000002 -1.641617 0.093396 0.154777
    39 3.549269 0.211411 1.487669 0.496530 0.198106 -1.302846
    40 1.219002 -0.000001 0.000000 0.120347 -0.207584 -1.048846
    41 0.680000 0.000000 0.000000 0.120347 -0.207567 -1.048840
    42 3.698020 0.273717 0.726623 0.164763 0.087215 -1.077754
    43 1.749002 -0.000001 0.000000 0.040475 -0.069088 -1.059805
    44 0.959998 0.000000 0.000000 0.040484 -0.069088 -1.059964
    45 3.768501 0.151952 -0.072740 -0.085213 -0.010513 -1.088703
    46 2.037999 0.000000 0.000000 -0.037636 0.064229 -1.059978
    47 1.067001 0.000000 0.000000 -0.037633 0.064229 -1.059990
    48 3.783907 -0.023952 -0.794451 -0.465557 -0.077104 -1.068716
    49 1.629000 0.000000 0.000000 -0.143015 0.247971 -1.043431
    50 0.956001 -0.000001 0.000000 -0.143012 0.247967 -1.043430
    51 1.258940 -0.308545 -1.250052 1.288811 0.217357 -0.756836
    52 1.393001 0.000000 -0.000001 0.000120 0.001332 0.198954
    53 1.099999 -0.000001 -0.000001 0.000132 0.001324 0.198963
    54 4.269531 0.000000 0.000000 0.000000 0.000000 0.000000
    55 5.601563 0.000000 0.000000 -0.030875 0.000000 0.000000
    56 5.601563 -0.000001 0.000000 0.034929 0.000000 0.000000
    57 11.203125 0.000001 0.000000 -0.057541 0.000000 0.000000
    58 5.558594 -0.699707 -0.499756 0.000000 0.000000 0.000000
    59 2.130859 1.531250 4.996094 0.000000 0.000000 0.000000
    60 2.000000 4.937500 2.576172 0.000000 0.000000 0.000000
    61 11.117188 -0.000001 0.000001 0.000000 0.000000 -0.100061
    62 1.999023 4.937500 -2.576172 0.000000 0.000000 0.000000
    63 2.130859 1.531250 -4.996094 0.000000 0.000000 0.000000
    64 1.500000 -0.000001 0.000002 0.000000 0.000000 0.000000
    65 11.203125 0.000002 0.000002 0.065170 0.000000 0.000000
    66 11.117188 -0.000002 0.000003 0.000000 0.000000 -0.100080
    67 4.269531 -0.000005 0.000000 0.000000 0.000000 0.000000
    68 1.499023 0.000000 -0.000002 0.000000 0.000000 0.000000
    69 5.558594 -0.699707 0.500000 0.000000 0.000000 0.000000
  time 9
    0 -41.323576 -40.749957 34.132419 1.513979 0.000000 -0.037489
    1 0.000000 0.000000 0.000000 0.000000 0.000000 0.028559
    2 3.984014 -0.000004 -0.000003 -1.502067 -0.258994 -1.482674
    3 15.940012 0.000000 0.000000 0.000000 0.000000 0.864518
    4 17.709562 0.000000 0.000000 -0.076519 0.140107 -1.624769
    5 6.203125 0.000000 0.000000 -0.011145 0.000933 -0.500513
    6 -3.984013 0.000007 0.000007 -0.639124 -0.441599 -1.911392
    7 15.940014 0.000000 0.000000 0.000000 0.000000 2.164932
    8 17.709560 0.000000 0.000000 -0.170191 0.270959 -1.036929
    9 6.203125 0.000000 0.000000 -0.078650 -0.006185 -0.498943
    10 0.000005 4.212784 -1.689857 1.570442 -0.027977 1.567912
    11 3.837408 0.000000 0.000000 0.145673 0.090052 0.043977
    12 3.617868 0.000000 0.000000 0.141065 0.072255 0.089189
    13 7.539779 0.000000 0.000000 0.046237 -0.068552 0.001020
    14 3.177734 0.000000 0.000001 3.138477 0.000351 0.224126
    15 2.970274 -0.000001 0.000000 0.024300 0.125067 0.125925
    16 2.023707 0.907460 0.852579 1.689120 -1.393643 2.846793
    17 4.983667 -0.000003 0.000000 -1.071322 0.110405 -0.984066
    18 11.123051 0.000000 0.000001 0.000000 0.000000 -1.574223
    19 11.208296 0.000000 0.000002 1.506439 -0.121488 0.055803
    20 3.549243 0.198824 -1.489468 -0.491218 -0.206122 -1.302418
    21 1.219000 0.000000 0.000000 -0.116644 0.201041 -1.049613
    22 0.679999 0.000001 0.000000 -0.116631 0.201023 -1.049594
    23 3.698007 0.267557 -0.728978 -0.160484 -0.094522 -1.077387
    24 1.749001 0.000000 0.000000 -0.036280 0.061909 -1.060069
    25 0.959999 0.000000 0.000000 -0.036289 0.061921 -1.060257
    26 3.768501 0.152549 0.071384 0.089647 0.003142 -1.088768
    27 2.038001 0.000002 0.000000 0.041866 -0.071468 -1.059697
    28 1.067001 0.000001 0.000000 0.041864 -0.071467 -1.059691
    29 3.783923 -0.017257 0.794554 0.469703 0.069819 -1.069029
    30 1.629001 -0.000001 0.000000 0.146934 -0.255018 -1.042351
    31 0.955999 0.000000 0.000000 0.146931 -0.255014 -1.042361
    32 1.258963 -0.297982 1.252590 -1.289283 -0.223065 -0.755500
    33 1.393000 0.000000 0.000000 -0.000012 -0.000205 0.198955
    34 1.100001 0.000000 -0.000001 -0.000012 -0.000198 0.198965
    35 2.023711 0.907462 -0.852528 -2.630706 1.302577 1.995558
    36 4.983666 -0.000003 0.000000 1.463449 -0.528606 -1.064314
    37 11.123047 0.000000 0.000000 0.000000 0.000000 -1.669302
    38 11.208294 0.000000 0.000002 -1.630345 0.105739 0.167890
    39 3.549269 0.211411 1.487669 0.496530 0.198106 -1.302846
    40 1.219002 -0.000001 0.000000 0.120347 -0.207584 -1.048846
    41 0.680000 0.000000 0.000000 0.120347 -0.207567 -1.048840
    42 3.698020 0.273717 0.726623 0.164763 0.087215 -1.077754
    43 1.749002 -0.000001 0.000000 0.040475 -0.069088 -1.059805
    44 0.959998 0.000000 0.000000 0.040484 -0.069088 -1.059964
    45 3.768501 0.151952 -0.072740 -0.085213 -0.010513 -1.088703
    46 2.037999 0.000000 0.000000 -0.037636 0.064229 -1.059978
    47 1.067001 0.000000 0.000000 -0.037633 0.064229 -1.059990
    48 3.783907 -0.023952 -0.794451 -0.465557 -0.077104 -1.068716
    49 1.629000 0.000000 0.000000 -0.143015 0.247971 -1.043431
    50 0.956001 -0.000001 0.000000 -0.143012 0.247967 -1.043430
    51 1.258940 -0.308545 -1.250052 1.288811 0.217357 -0.756836
    52 1.393001 0.000000 -0.000001 0.000120 0.001332 0.198954
    53 1.099999 -0.000001 -0.000001 0.000132 0.001324 0.198943
    54 4.269531 0.000000 0.000000 0.000000 0.000000 0.000000
    55 5.601563 0.000000 0.000000 -0.030875 0.000000 0.000000
    56 5.601563 -0.000001 0.000000 0.034929 0.000000 0.000000
    57 11.203125 0.000001 0.000000 -0.057541 0.000000 0.000000
    58 5.558594 -0.699707 -0.499756 0.000000 0.000000 0.000000
    59 2.130859 1.531250 4.996094 0.000000 0.000000 0.000000
    60 2.000000 4.937500 2.576172 0.000000 0.000000 0.000000
    61 11.117188 -0.000001 0.000001 0.000000 0.000000 -0.100061
    62 1.999023 4.937500 -2.576172 0.000000 0.000000 0.000000
    63 2.130859 1.531250 -4.996094 0.000000 0.000000 0.000000
    64 1.500000 -0.000001 0.000002 0.000000 0.000000 0.000000
    65 11.203125 0.000002 0.000002 0.065170 0.000000 0.000000
    66 11.117188 -0.000002 0.000003 0.000000 0.000000 -0.100080
    67 4.269531 -0.000005 0.000000 0.000000 0.000000 0.000000
    68 1.499023 0.000000 -0.000002 0.000000 0.000000 0.000000
    69 5.558594 -0.699707 0.500000 0.000000 0.000000 0.000000
  time 10
    0 -45.166867 -44.386211 34.558213 1.516402 -0.000046 -0.042782
    1 0.000000 0.000000 0.000000 0.000000 0.000000 0.012895
    2 3.984014 -0.000004 -0.000003 -1.455429 0.014251 -1.352463
    3 15.940012 0.000000 0.000000 0.000000 0.000000 0.558205
    4 17.709562 0.000000 0.000000 -0.186754 0.141660 -1.617965
    5 6.203125 0.000000 0.000000 -0.011145 0.000933 -0.500513
    6 -3.984013 0.000007 0.000007 -0.664585 -0.552818 -2.016989
    7 15.940014 0.000000 0.000000 0.000000 0.000000 2.079219
    8 17.709560 0.000000 0.000000 -0.175916 0.193879 -1.178527
    9 6.203125 0.000000 0.000000 -0.078650 -0.006185 -0.498943
    10 0.000005 4.212784 -1.689857 1.570492 -0.027977 1.568111
    11 3.837408 0.000000 0.000000 0.144139 0.101450 0.047045
    12 3.617868 0.000000 0.000000 0.138013 0.082502 0.092107
    13 7.539779 0.000000 0.000000 0.047651 -0.071692 0.001344
    14 3.177734 0.000000 0.000001 3.138477 0.000351 0.224126
    15 2.970274 -0.000001 0.000000 0.023638 0.154504 0.120988
    16 2.023707 0.907460 0.852579 1.856791 -1.394850 2.682268
    17 4.983667 -0.000003 0.000000 -1.015094 -0.018599 -1.044731
    18 11.123051 0.000000 0.000001 0.000000 0.000000 -1.603054
    19 11.208296 0.000000 0.000002 1.519542 -0.114197 0.030280
    20 3.549243 0.198824 -1.489468 -0.491218 -0.206122 -1.302418
    21 1.219000 0.000000 0.000000 -0.116644 0.201041 -1.049613
    22 0.679999 0.000001 0.000000 -0.116631 0.201023 -1.049594
    23 3.698007 0.267557 -0.728978 -0.160484 -0.094522 -1.077387
    24 1.749001 0.000000 0.000000 -0.036280 0.061909 -1.060069
    25 0.959999 0.000000 0.000000 -0.036289 0.061921 -1.060257
    26 3.768501 0.152549 0.071384 0.089647 0.003142 -1.088768
    27 2.038001 0.000002 0.000000 0.041866 -0.071468 -1.059697
    28 1.067001 0.000001 0.000000 0.041864 -0.071467 -1.059691
    29 3.783923 -0.017257 0.794554 0.469703 0.069819 -1.069029
    30 1.629001 -0.000001 0.000000 0.146934 -0.255018 -1.042351
    31 0.955999 0.000000 0.000000 0.146931 -0.255014 -1.042361
    32 1.258963 -0.297982 1.252590 -1.289283 -0.223065 -0.755500
    33 1.393000 0.000000 0.000000 -0.000012 -0.000193 0.198955
    34 1.100001 0.000000 -0.000001 -0.000012 -0.000198 0.198965
    35 2.023711 0.907462 -0.852528 -2.591426 1.336843 2.030570
    36 4.983666 -0.000003 0.000000 1.541893 -0.625702 -1.138190
    37 11.123047 0.000000 0.000000 0.000000 0.000000 -1.652462
    38 11.208294 0.000000 0.000002 -1.615151 0.134896 0.198472
    39 3.549269 0.211411 1.487669 0.496530 0.198106 -1.302846
    40 1.219002 -0.000001 0.000000 0.120347 -0.207584 -1.048846
    41 0.680000 0.000000 0.000000 0.120347 -0.207567 -1.048840
    42 3.698020 0.273717 0.726623 0.164763 0.087215 -1.077754
    43 1.749002 -0.000001 0.000000 0.040475 -0.069088 -1.059805
    44 0.959998 0.000000 0.000000 0.040484 -0.069088 -1.059964
    45 3.768501 0.151952 -0.072740 -0.085213 -0.010513 -1.088703
    46 2.037999 0.000000 0.000000 -0.037636 0.064229 -1.059978
    47 1.067001 0.000000 0.000000 -0.037633 0.064229 -1.059990
    48 3.783907 -0.023952 -0.794451 -0.465557 -0.077104 -1.068716
    49 1.629000 0.000000 0.000000 -0.143015 0.247971 -1.043431
    50 0.956001 -0.000001 0.000000 -0.143012 0.247955 -1.043430
    51 1.258940 -0.308545 -1.250052 1.288811 0.217357 -0.756836
    52 1.393001 0.000000 -0.000001 0.000120 0.001332 0.198954
    53 1.099999 -0.000001 -0.000001 0.000132 0.001324 0.198943
    54 4.269531 0.000000 0.000000 0.000000 0.000000 0.000000
    55 5.601563 0.000000 0.000000 -0.030875 0.000000 0.000000
    56 5.601563 -0.000001 0.000000 0.034929 0.000000 0.000000
    57 11.203125 0.000001 0.000000 -0.057541 0.000000 0.000000
    58 5.558594 -0.699707 -0.499756 0.000000 0.000000 0.000000
    59 2.130859 1.531250 4.996094 0.000000 0.000000 0.000000
    60 2.000000 4.937500 2.576172 0.000000 0.000000 0.000000
    61 11.117188 -0.000001 0.000001 0.000000 0.000000 -0.100061
    62 1.999023 4.937500 -2.576172 0.000000 0.000000 0.000000
    63 2.130859 1.531250 -4.996094 0.000000 0.000000 0.000000
    64 1.500000 -0.000001 0.000002 0.000000 0.000000 0.000000
    65 11.203125 0.000002 0.000002 0.065170 0.000000 0.000000
    66 11.117188 -0.000002 0.000003 0.000000 0.000000 -0.100080
    67 4.269531 -0.000005 0.000000 0.000000 0.000000 0.000000
    68 1.499023 0.000000 -0.000002 0.000000 0.000000 0.000000
    69 5.558594 -0.699707 0.500000 0.000000 0.000000 0.000000
  time 11
    0 -50.068784 -49.163124 35.351206 1.525827 -0.000093 -0.049776
    1 0.000000 0.000000 0.000000 0.000000 0.000000 -0.019739
    2 3.984014 -0.000004 -0.000003 -1.417997 0.110877 -1.220207
    3 15.940012 0.000000 0.000000 0.000000 0.000000 0.520026
    4 17.709562 0.000000 0.000000 -0.306636 0.160246 -1.358148
    5 6.203125 0.000000 0.000000 -0.011145 0.000933 -0.500513
    6 -3.984013 0.000007 0.000007 -0.729174 -0.624709 -2.070290
    7 15.940014 0.000000 0.000000 0.000000 0.000000 1.804603
    8 17.709560 0.000000 0.000000 -0.102227 0.082681 -1.328481
    9 6.203125 0.000000 0.000000 -0.078650 -0.006185 -0.498943
    10 0.000005 4.212784 -1.689857 1.570543 -0.027977 1.568360
    11 3.837408 0.000000 0.000000 0.143012 0.113063 0.050137
    12 3.617868 0.000000 0.000000 0.135377 0.092941 0.095042
    13 7.539779 0.000000 0.000000 0.049149 -0.074940 0.001727
    14 3.177734 0.000000 0.000001 3.138477 0.000351 0.224126
    15 2.970274 -0.000001 0.000000 0.024710 0.186953 0.113706
    16 2.023707 0.907460 0.852579 2.085004 -1.392436 2.457401
    17 4.983667 -0.000003 0.000000 -0.983589 -0.081611 -1.074421
    18 11.123051 0.000000 0.000001 0.000000 0.000000 -1.684974
    19 11.208296 0.000000 0.000002 1.544726 -0.099971 0.015097
    20 3.549243 0.198824 -1.489468 -0.491218 -0.206122 -1.302418
    21 1.219000 0.000000 0.000000 -0.116644 0.201041 -1.049613
    22 0.679999 0.000001 0.000000 -0.116631 0.201023 -1.049594
    23 3.698007 0.267557 -0.728978 -0.160484 -0.094522 -1.077387
    24 1.749001 0.000000 0.000000 -0.036280 0.061921 -1.060069
    25 0.959999 0.000000 0.000000 -0.036289 0.061921 -1.060257
    26 3.768501 0.152549 0.071384 0.089647 0.003142 -1.088768
    27 2.038001 0.000002 0.000000 0.041866 -0.071468 -1.059697
    28 1.067001 0.000001 0.000000 0.041864 -0.071467 -1.059691
    29 3.783923 -0.017257 0.794554 0.469703 0.069819 -1.069029
    30 1.629001 -0.000001 0.000000 0.146934 -0.255018 -1.042351
    31 0.955999 0.000000 0.000000 0.146931 -0.255014 -1.042361
    32 1.258963 -0.297982 1.252590 -1.289283 -0.223065 -0.755500
    33 1.393000 0.000000 0.000000 -0.000012 -0.000205 0.198955
    34 1.100001 0.000000 -0.000001 -0.000012 -0.000198 0.198965
    35 2.023711 0.907462 -0.852528 -2.548182 1.380852 2.068368
    36 4.983666 -0.000003 0.000000 1.614024 -0.703691 -1.221384
    37 11.123047 0.000000 0.000000 0.000000 0.000000 -1.656338
    38 11.208294 0.000000 0.000002 -1.606696 0.146002 0.173629
    39 3.549269 0.211411 1.487669 0.496530 0.198106 -1.302846
    40 1.219002 -0.000001 0.000000 0.120347 -0.207584 -1.048846
    41 0.680000 0.000000 0.000000 0.120347 -0.207567 -1.048840
    42 3.698020 0.273717 0.726623 0.164763 0.087215 -1.077754
    43 1.749002 -0.000001 0.000000 0.040475 -0.069088 -1.059805
    44 0.959998 0.000000 0.000000 0.040484 -0.069088 -1.059964
    45 3.768501 0.151952 -0.072740 -0.085213 -0.010513 -1.088703
    46 2.037999 0.000000 0.000000 -0.037636 0.064229 -1.059978
    47 1.067001 0.000000 0.000000 -0.037633 0.064229 -1.059990
    48 3.783907 -0.023952 -0.794451 -0.465557 -0.077104 -1.068716
    49 1.629000 0.000000 0.000000 -0.143015 0.247971 -1.043431
    50 0.956001 -0.000001 0.000000 -0.143012 0.247967 -1.043430
    51 1.258940 -0.308545 -1.250052 1.288811 0.217357 -0.756836
    52 1.393001 0.000000 -0.000001 0.000120 0.001332 0.198954
    53 1.099999 -0.000001 -0.000001 0.000132 0.001324 0.198943
    54 4.269531 0.000000 0.000000 0.000000 0.000000 0.000000
    55 5.601563 0.000000 0.000000 -0.030875 0.000000 0.000000
    56 5.601563 -0.000001 0.000000 0.034929 0.000000 0.000000
    57 11.203125 0.000001 0.000000 -0.057541 0.000000 0.000000
    58 5.558594 -0.699707 -0.499756 0.000000 0.000000 0.000000
    59 2.130859 1.531250 4.996094 0.000000 0.000000 0.000000
    60 2.000000 4.937500 2.576172 0.000000 0.000000 0.000000
    61 11.117188 -0.000001 0.000001 0.000000 0.000000 -0.100061
    62 1.999023 4.937500 -2.576172 0.000000 0.000000 0.000000
    63 2.130859 1.531250 -4.996094 0.000000 0.000000 0.000000
    64 1.500000 -0.000001 0.000002 0.000000 0.000000 0.000000
    65 11.203125 0.000002 0.000002 0.065170 0.000000 0.000000
    66 11.117188 -0.000002 0.000003 0.000000 0.000000 -0.100080
    67 4.269531 -0.000005 0.000000 0.000000 0.000000 0.000000
    68 1.499023 0.000000 -0.000002 0.000000 0.000000 0.000000
    69 5.558594 -0.699707 0.500000 0.000000 0.000000 0.000000
  time 12
    0 -55.423841 -54.529899 36.191075 1.536419 -0.000046 -0.058282
    1 0.000000 0.000000 0.000000 0.000000 0.000000 -0.043792
    2 3.984014 -0.000004 -0.000003 -1.379106 0.175155 -1.100216
    3 15.940012 0.000000 0.000000 0.000000 0.000000 0.526734
    4 17.709562 0.000000 0.000000 -0.392935 0.245553 -1.051677
    5 6.203125 0.000000 0.000000 -0.011145 0.000933 -0.500513
    6 -3.984013 0.000007 0.000007 -0.784870 -0.666715 -2.080896
    7 15.940014 0.000000 0.000000 0.000000 0.000000 1.486776
    8 17.709560 0.000000 0.000000 -0.013067 0.049650 -1.428707
    9 6.203125 0.000000 0.000000 -0.078650 -0.006185 -0.498943
    10 0.000005 4.212784 -1.689857 1.570543 -0.027977 1.568708
    11 3.837408 0.000000 0.000000 0.142233 0.124820 0.053241
    12 3.617868 0.000000 0.000000 0.133044 0.103523 0.097978
    13 7.539779 0.000000 0.000000 0.050719 -0.078271 0.002159
    14 3.177734 0.000000 0.000001 3.138477 0.000351 0.224126
    15 2.970274 -0.000001 0.000000 0.029973 0.220504 0.104277
    16 2.023707 0.907460 0.852579 2.239161 -1.383060 2.305546
    17 4.983667 -0.000003 0.000000 -0.966000 -0.091927 -1.074761
    18 11.123051 0.000000 0.000001 0.000000 0.000000 -1.791154
    19 11.208296 0.000000 0.000002 1.605256 -0.073310 0.008991
    20 3.549243 0.198824 -1.489468 -0.491218 -0.206122 -1.302418
    21 1.219000 0.000000 0.000000 -0.116644 0.201041 -1.049613
    22 0.679999 0.000001 0.000000 -0.116631 0.201023 -1.049594
    23 3.698007 0.267557 -0.728978 -0.160484 -0.094522 -1.077387
    24 1.749001 0.000000 0.000000 -0.036280 0.061909 -1.060069
    25 0.959999 0.000000 0.000000 -0.036289 0.061921 -1.060257
    26 3.768501 0.152549 0.071384 0.089647 0.003142 -1.088768
    27 2.038001 0.000002 0.000000 0.041866 -0.071468 -1.059697
    28 1.067001 0.000001 0.000000 0.041864 -0.071467 -1.059691
    29 3.783923 -0.017257 0.794554 0.469703 0.069819 -1.069029
    30 1.629001 -0.000001 0.000000 0.146934 -0.255018 -1.042351
    31 0.955999 0.000000 0.000000 0.146931 -0.255014 -1.042361
    32 1.258963 -0.297982 1.252590 -1.289283 -0.223065 -0.755500
    33 1.393000 0.000000 0.000000 -0.000012 -0.000205 0.198955
    34 1.100001 0.000000 -0.000001 -0.000012 -0.000198 0.198965
    35 2.023711 0.907462 -0.852528 -2.536379 1.412554 2.076540
    36 4.983666 -0.000003 0.000000 1.683905 -0.764302 -1.287857
    37 11.123047 0.000000 0.000000 0.000000 0.000000 -1.666760
    38 11.208294 0.000000 0.000002 -1.599589 0.123678 0.095917
    39 3.549269 0.211411 1.487669 0.496530 0.198106 -1.302846
    40 1.219002 -0.000001 0.000000 0.120347 -0.207584 -1.048846
    41 0.680000 0.000000 0.000000 0.120347 -0.207567 -1.048840
    42 3.698020 0.273717 0.726623 0.164763 0.087215 -1.077754
    43 1.749002 -0.000001 0.000000 0.040475 -0.069088 -1.059805
    44 0.959998 0.000000 0.000000 0.040484 -0.069088 -1.059964
    45 3.768501 0.151952 -0.072740 -0.085213 -0.010513 -1.088703
    46 2.037999 0.000000 0.000000 -0.037636 0.064229 -1.059978
    47 1.067001 0.000000 0.000000 -0.037633 0.064229 -1.059990
    48 3.783907 -0.023952 -0.794451 -0.465557 -0.077104 -1.068716
    49 1.629000 0.000000 0.000000 -0.143015 0.247971 -1.043431
    50 0.956001 -0.000001 0.000000 -0.143012 0.247967 -1.043430
    51 1.258940 -0.308545 -1.250052 1.288811 0.217357 -0.756836
    52 1.393001 0.000000 -0.000001 0.000120 0.001332 0.198954
    53 1.099999 -0.000001 -0.000001 0.000132 0.001324 0.198943
    54 4.269531 0.000000 0.000000 0.000000 0.000000 0.000000
    55 5.601563 0.000000 0.000000 -0.030875 0.000000 0.000000
    56 5.601563 -0.000001 0.000000 0.034929 0.000000 0.000000
    57 11.203125 0.000001 0.000000 -0.057541 0.000000 0.000000
    58 5.558594 -0.699707 -0.499756 0.000000 0.000000 0.000000
    59 2.130859 1.531250 4.996094 0.000000 0.000000 0.000000
    60 2.000000 4.937500 2.576172 0.000000 0.000000 0.000000
    61 11.117188 -0.000001 0.000001 0.000000 0.000000 -0.100061
    62 1.999023 4.937500 -2.576172 0.000000 0.000000 0.000000
    63 2.130859 1.531250 -4.996094 0.000000 0.000000 0.000000
    64 1.500000 -0.000001 0.000002 0.000000 0.000000 0.000000
    65 11.203125 0.000002 0.000002 0.065170 0.000000 0.000000
    66 11.117188 -0.000002 0.000003 0.000000 0.000000 -0.100080
    67 4.269531 -0.000005 0.000000 0.000000 0.000000 0.000000
    68 1.499023 0.000000 -0.000002 0.000000 0.000000 0.000000
    69 5.558594 -0.699707 0.500000 0.000000 0.000000 0.000000
  time 13
    0 -60.411698 -59.732606 36.753592 1.541535 0.000093 -0.070474
    1 0.000000 0.000000 0.000000 0.000000 0.000000 -0.056831
    2 3.984014 -0.000004 -0.000003 -1.341060 0.217125 -1.016835
    3 15.940012 0.000000 0.000000 0.000000 0.000000 0.585727
    4 17.709562 0.000000 0.000000 -0.393686 0.346246 -0.820813
    5 6.203125 0.000000 0.000000 -0.011145 0.000933 -0.500513
    6 -3.984013 0.000007 0.000007 -0.811174 -0.632133 -2.034726
    7 15.940014 0.000000 0.000000 0.000000 0.000000 1.117935
    8 17.709560 0.000000 0.000000 0.013972 0.013505 -1.466849
    9 6.203125 0.000000 0.000000 -0.078650 -0.006185 -0.498943
    10 0.000005 4.212784 -1.689857 1.570594 -0.027977 1.569056
    11 3.837408 0.000000 0.000000 0.141682 0.136696 0.056345
    12 3.617868 0.000000 0.000000 0.130935 0.114201 0.100914
    13 7.539779 0.000000 0.000000 0.052325 -0.081651 0.002614
    14 3.177734 0.000000 0.000001 3.138477 0.000351 0.224126
    15 2.970274 -0.000001 0.000000 0.029595 0.229989 0.099463
    16 2.023707 0.907460 0.852579 2.257920 -1.378883 2.287407
    17 4.983667 -0.000003 0.000000 -0.952297 -0.063472 -1.052333
    18 11.123051 0.000000 0.000001 0.000000 0.000000 -1.884209
    19 11.208296 0.000000 0.000002 1.677036 -0.037496 0.003683
    20 3.549243 0.198824 -1.489468 -0.491218 -0.206122 -1.302418
    21 1.219000 0.000000 0.000000 -0.116644 0.201041 -1.049613
    22 0.679999 0.000001 0.000000 -0.116631 0.201023 -1.049594
    23 3.698007 0.267557 -0.728978 -0.160484 -0.094522 -1.077387
    24 1.749001 0.000000 0.000000 -0.036280 0.061909 -1.060069
    25 0.959999 0.000000 0.000000 -0.036289 0.061921 -1.060257
    26 3.768501 0.152549 0.071384 0.089647 0.003142 -1.088768
    27 2.038001 0.000002 0.000000 0.041866 -0.071468 -1.059697
    28 1.067001 0.000001 0.000000 0.041864 -0.071467 -1.059691
    29 3.783923 -0.017257 0.794554 0.469703 0.069819 -1.069029
    30 1.629001 -0.000001 0.000000 0.146934 -0.255018 -1.042351
    31 0.955999 0.000000 0.000000 0.146931 -0.255014 -1.042361
    32 1.258963 -0.297982 1.252590 -1.289283 -0.223065 -0.755500
    33 1.393000 0.000000 0.000000 -0.000012 -0.000205 0.198955
    34 1.100001 0.000000 -0.000001 -0.000012 -0.000198 0.198965
    35 2.023711 0.907462 -0.852528 -2.547167 1.429850 2.063817
    36 4.983666 -0.000003 0.000000 1.728170 -0.800025 -1.309113
    37 11.123047 0.000000 0.000000 0.000000 0.000000 -1.675338
    38 11.208294 0.000000 0.000002 -1.584151 0.075289 0.031569
    39 3.549269 0.211411 1.487669 0.496530 0.198106 -1.302846
    40 1.219002 -0.000001 0.000000 0.120347 -0.207584 -1.048846
    41 0.680000 0.000000 0.000000 0.120347 -0.207567 -1.048840
    42 3.698020 0.273717 0.726623 0.164763 0.087215 -1.077754
    43 1.749002 -0.000001 0.000000 0.040475 -0.069088 -1.059805
    44 0.959998 0.000000 0.000000 0.040484 -0.069088 -1.059964
    45 3.768501 0.151952 -0.072740 -0.085213 -0.010513 -1.088703
    46 2.037999 0.000000 0.000000 -0.037636 0.064229 -1.059978
    47 1.067001 0.000000 0.000000 -0.037633 0.064229 -1.059990
    48 3.783907 -0.023952 -0.794451 -0.465557 -0.077104 -1.068716
    49 1.629000 0.000000 0.000000 -0.143015 0.247971 -1.043431
    50 0.956001 -0.000001 0.000000 -0.143012 0.247967 -1.043430
    51 1.258940 -0.308545 -1.250052 1.288811 0.217357 -0.756836
    52 1.393001 0.000000 -0.000001 0.000120 0.001332 0.198954
    53 1.099999 -0.000001 -0.000001 0.000132 0.001324 0.198943
    54 4.269531 0.000000 0.000000 0.000000 0.000000 0.000000
    55 5.601563 0.000000 0.000000 -0.030875 0.000000 0.000000
    56 5.601563 -0.000001 0.000000 0.034929 0.000000 0.000000
    57 11.203125 0.000001 0.000000 -0.057541 0.000000 0.000000
    58 5.558594 -0.699707 -0.499756 0.000000 0.000000 0.000000
    59 2.130859 1.531250 4.996094 0.000000 0.000000 0.000000
    60 2.000000 4.937500 2.576172 0.000000 0.000000 0.000000
    61 11.117188 -0.000001 0.000001 0.000000 0.000000 -0.100061
    62 1.999023 4.937500 -2.576172 0.000000 0.000000 0.000000
    63 2.130859 1.531250 -4.996094 0.000000 0.000000 0.000000
    64 1.500000 -0.000001 0.000002 0.000000 0.000000 0.000000
    65 11.203125 0.000002 0.000002 0.065170 0.000000 0.000000
    66 11.117188 -0.000002 0.000003 0.000000 0.000000 -0.100080
    67 4.269531 -0.000005 0.000000 0.000000 0.000000 0.000000
    68 1.499023 0.000000 -0.000002 0.000000 0.000000 0.000000
    69 5.558594 -0.699707 0.500000 0.000000 0.000000 0.000000
  time 14
    0 -65.321428 -64.927501 36.827813 1.551318 -0.000463 -0.100908
    1 0.000000 0.000000 0.000000 0.000000 0.000000 -0.064609
    2 3.984014 -0.000004 -0.000003 -1.306235 0.231997 -0.999281
    3 15.940012 0.000000 0.000000 0.000000 0.000000 0.779696
    4 17.709562 0.000000 0.000000 -0.290914 0.388288 -0.805518
    5 6.203125 0.000000 0.000000 -0.011145 0.000933 -0.500513
    6 -3.984013 0.000007 0.000007 -0.838414 -0.546334 -1.936809
    7 15.940014 0.000000 0.000000 0.000000 0.000000 0.686727
    8 17.709560 0.000000 0.000000 0.034434 -0.052252 -1.450905
    9 6.203125 0.000000 0.000000 -0.078650 -0.006185 -0.498943
    10 0.000005 4.212784 -1.689857 1.570644 -0.027977 1.569454
    11 3.837408 0.000000 0.000000 0.141298 0.148645 0.059473
    12 3.617868 0.000000 0.000000 0.128970 0.124939 0.103850
    13 7.539779 0.000000 0.000000 0.053955 -0.085079 0.003093
    14 3.177734 0.000000 0.000001 3.138477 0.000351 0.224126
    15 2.970274 -0.000001 0.000000 0.028397 0.237600 0.094921
    16 2.023707 0.907460 0.852579 2.198710 -1.381714 2.345925
    17 4.983667 -0.000003 0.000000 -0.944103 -0.009945 -1.028052
    18 11.123051 0.000000 0.000001 0.000000 0.000000 -1.928525
    19 11.208296 0.000000 0.000002 1.704649 -0.026549 -0.011802
    20 3.549243 0.198824 -1.489468 -0.491218 -0.206122 -1.302418
    21 1.219000 0.000000 0.000000 -0.116644 0.201041 -1.049613
    22 0.679999 0.000001 0.000000 -0.116631 0.201023 -1.049594
    23 3.698007 0.267557 -0.728978 -0.160484 -0.094522 -1.077387
    24 1.749001 0.000000 0.000000 -0.036280 0.061909 -1.060069
    25 0.959999 0.000000 0.000000 -0.036289 0.061921 -1.060257
    26 3.768501 0.152549 0.071384 0.089647 0.003142 -1.088768
    27 2.038001 0.000002 0.000000 0.041866 -0.071468 -1.059697
    28 1.067001 0.000001 0.000000 0.041864 -0.071467 -1.059691
    29 3.783923 -0.017257 0.794554 0.469703 0.069819 -1.069029
    30 1.629001 -0.000001 0.000000 0.146934 -0.255018 -1.042351
    31 0.955999 0.000000 0.000000 0.146931 -0.255014 -1.042361
    32 1.258963 -0.297982 1.252590 -1.289283 -0.223065 -0.755500
    33 1.393000 0.000000 0.000000 -0.000012 -0.000205 0.198955
    34 1.100001 0.000000 -0.000001 -0.000012 -0.000198 0.198965
    35 2.023711 0.907462 -0.852528 -2.539330 1.432880 2.071339
    36 4.983666 -0.000003 0.000000 1.730419 -0.808713 -1.275960
    37 11.123047 0.000000 0.000000 0.000000 0.000000 -1.677372
    38 11.208294 0.000000 0.000002 -1.570182 0.043349 0.024112
    39 3.549269 0.211411 1.487669 0.496530 0.198106 -1.302846
    40 1.219002 -0.000001 0.000000 0.120347 -0.207584 -1.048846
    41 0.680000 0.000000 0.000000 0.120347 -0.207567 -1.048840
    42 3.698020 0.273717 0.726623 0.164763 0.087215 -1.077754
    43 1.749002 -0.000001 0.000000 0.040475 -0.069088 -1.059805
    44 0.959998 0.000000 0.000000 0.040484 -0.069088 -1.059964
    45 3.768501 0.151952 -0.072740 -0.085213 -0.010513 -1.088703
    46 2.037999 0.000000 0.000000 -0.037636 0.064229 -1.059978
    47 1.067001 0.000000 0.000000 -0.037633 0.064229 -1.059990
    48 3.783907 -0.023952 -0.794451 -0.465557 -0.077104 -1.068716
    49 1.629000 0.000000 0.000000 -0.143015 0.247971 -1.043431
    50 0.956001 -0.000001 0.000000 -0.143012 0.247967 -1.043430
    51 1.258940 -0.308545 -1.250052 1.288811 0.217357 -0.756836
    52 1.393001 0.000000 -0.000001 0.000120 0.001332 0.198954
    53 1.099999 -0.000001 -0.000001 0.000132 0.001324 0.198943
    54 4.269531 0.000000 0.000000 0.000000 0.000000 0.000000
    55 5.601563 0.000000 0.000000 -0.030875 0.000000 0.000000
    56 5.601563 -0.000001 0.000000 0.034929 0.000000 0.000000
    57 11.203125 0.000001 0.000000 -0.057541 0.000000 0.000000
    58 5.558594 -0.699707 -0.499756 0.000000 0.000000 0.000000
    59 2.130859 1.531250 4.996094 0.000000 0.000000 0.000000
    60 2.000000 4.937500 2.576172 0.000000 0.000000 0.000000
    61 11.117188 -0.000001 0.000001 0.000000 0.000000 -0.100061
    62 1.999023 4.937500 -2.576172 0.000000 0.000000 0.000000
    63 2.130859 1.531250 -4.996094 0.000000 0.000000 0.000000
    64 1.500000 -0.000001 0.000002 0.000000 0.000000 0.000000
    65 11.203125 0.000002 0.000002 0.065170 0.000000 0.000000
    66 11.117188 -0.000002 0.000003 0.000000 0.000000 -0.100080
    67 4.269531 -0.000005 0.000000 0.000000 0.000000 0.000000
    68 1.499023 0.000000 -0.000002 0.000000 0.000000 0.000000
    69 5.558594 -0.699707 0.500000 0.000000 0.000000 0.000000
  time 15
    0 -70.188188 -70.032549 36.484053 1.561641 -0.000833 -0.133421
    1 0.000000 0.000000 0.000000 0.000000 0.000000 -0.066323
    2 3.984014 -0.000004 -0.000003 -1.302400 0.192296 -1.039679
    3 15.940012 0.000000 0.000000 0.000000 0.000000 1.019116
    4 17.709562 0.000000 0.000000 -0.207413 0.368926 -0.892942
    5 6.203125 0.000000 0.000000 -0.011145 0.000933 -0.500513
    6 -3.984013 0.000007 0.000007 -0.899352 -0.459877 -1.819327
    7 15.940014 0.000000 0.000000 0.000000 0.000000 0.316338
    8 17.709560 0.000000 0.000000 0.039047 -0.105010 -1.369853
    9 6.203125 0.000000 0.000000 -0.078650 -0.006185 -0.498943
    10 0.000005 4.212784 -1.689857 1.570695 -0.027977 1.569851
    11 3.837408 0.000000 0.000000 0.140975 0.160594 0.062589
    12 3.617868 0.000000 0.000000 0.127068 0.135702 0.106750
    13 7.539779 0.000000 0.000000 0.055585 -0.088506 0.003573
    14 3.177734 0.000000 0.000001 3.138477 0.000351 0.224126
    15 2.970274 -0.000001 0.000000 0.026695 0.243939 0.090577
    16 2.023707 0.907460 0.852579 2.073269 -1.395871 2.468704
    17 4.983667 -0.000003 0.000000 -0.937109 0.057394 -1.018635
    18 11.123051 0.000000 0.000001 0.000000 0.000000 -1.909943
    19 11.208296 0.000000 0.000002 1.681255 -0.051959 -0.028909
    20 3.549243 0.198824 -1.489468 -0.491218 -0.206122 -1.302418
    21 1.219000 0.000000 0.000000 -0.116644 0.201041 -1.049613
    22 0.679999 0.000001 0.000000 -0.116631 0.201023 -1.049594
    23 3.698007 0.267557 -0.728978 -0.160484 -0.094522 -1.077387
    24 1.749001 0.000000 0.000000 -0.036280 0.061909 -1.060069
    25 0.959999 0.000000 0.000000 -0.036289 0.061921 -1.060257
    26 3.768501 0.152549 0.071384 0.089647 0.003142 -1.088768
    27 2.038001 0.000002 0.000000 0.041866 -0.071468 -1.059697
    28 1.067001 0.000001 0.000000 0.041864 -0.071467 -1.059691
    29 3.783923 -0.017257 0.794554 0.469703 0.069819 -1.069029
    30 1.629001 -0.000001 0.000000 0.146934 -0.255018 -1.042351
    31 0.955999 0.000000 0.000000 0.146931 -0.255014 -1.042361
    32 1.258963 -0.297982 1.252590 -1.289283 -0.223065 -0.755500
    33 1.393000 0.000000 0.000000 -0.000012 -0.000205 0.198955
    34 1.100001 0.000000 -0.000001 -0.000012 -0.000198 0.198965
    35 2.023711 0.907462 -0.852528 -2.550026 1.414745 2.062517
    36 4.983666 -0.000003 0.000000 1.705312 -0.788498 -1.205661
    37 11.123047 0.000000 0.000000 0.000000 0.000000 -1.667268
    38 11.208294 0.000000 0.000002 -1.564668 0.050715 0.059470
    39 3.549269 0.211411 1.487669 0.496530 0.198106 -1.302846
    40 1.219002 -0.000001 0.000000 0.120347 -0.207584 -1.048846
    41 0.680000 0.000000 0.000000 0.120347 -0.207567 -1.048840
    42 3.698020 0.273717 0.726623 0.164763 0.087215 -1.077754
    43 1.749002 -0.000001 0.000000 0.040475 -0.069088 -1.059805
    44 0.959998 0.000000 0.000000 0.040484 -0.069088 -1.059964
    45 3.768501 0.151952 -0.072740 -0.085213 -0.010513 -1.088703
    46 2.037999 0.000000 0.000000 -0.037636 0.064229 -1.059978
    47 1.067001 0.000000 0.000000 -0.037633 0.064229 -1.059990
    48 3.783907 -0.023952 -0.794451 -0.465557 -0.077104 -1.068716
    49 1.629000 0.000000 0.000000 -0.143015 0.247971 -1.043431
    50 0.956001 -0.000001 0.000000 -0.143012 0.247967 -1.043430
    51 1.258940 -0.308545 -1.250052 1.288811 0.217357 -0.756836
    52 1.393001 0.000000 -0.000001 0.000120 0.001332 0.198954
    53 1.099999 -0.000001 -0.000001 0.000132 0.001324 0.198943
    54 4.269531 0.000000 0.000000 0.000000 0.000000 0.000000
    55 5.601563 0.000000 0.000000 -0.030875 0.000000 0.000000
    56 5.601563 -0.000001 0.000000 0.034929 0.000000 0.000000
    57 11.203125 0.000001 0.000000 -0.057541 0.000000 0.000000
    58 5.558594 -0.699707 -0.499756 0.000000 0.000000 0.000000
    59 2.130859 1.531250 4.996094 0.000000 0.000000 0.000000
    60 2.000000 4.937500 2.576172 0.000000 0.000000 0.000000
    61 11.117188 -0.000001 0.000001 0.000000 0.000000 -0.100061
    62 1.999023 4.937500 -2.576172 0.000000 0.000000 0.000000
    63 2.130859 1.531250 -4.996094 0.000000 0.000000 0.000000
    64 1.500000 -0.000001 0.000002 0.000000 0.000000 0.000000
    65 11.203125 0.000002 0.000002 0.065170 0.000000 0.000000
    66 11.117188 -0.000002 0.000003 0.000000 0.000000 -0.100080
    67 4.269531 -0.000005 0.000000 0.000000 0.000000 0.000000
    68 1.499023 0.000000 -0.000002 0.000000 0.000000 0.000000
    69 5.558594 -0.699707 0.500000 0.000000 0.000000 0.000000
  time 16
    0 -75.035416 -75.110253 36.003569 1.572142 -0.000880 -0.166974
    1 0.000000 0.000000 0.000000 0.000000 0.000000 -0.046848
    2 3.984014 -0.000004 -0.000003 -1.337378 0.089367 -1.124442
    3 15.940012 0.000000 0.000000 0.000000 0.000000 1.186504
    4 17.709562 0.000000 0.000000 -0.233601 0.320179 -0.954482
    5 6.203125 0.000000 0.000000 -0.011145 0.000933 -0.500513
    6 -3.984013 0.000007 0.000007 -1.017859 -0.469275 -1.763191
    7 15.940014 0.000000 0.000000 0.000000 0.000000 0.344135
    8 17.709560 0.000000 0.000000 -0.037646 -0.123430 -1.214516
    9 6.203125 0.000000 0.000000 -0.078650 -0.006185 -0.498943
    10 0.000005 4.212784 -1.689857 1.570745 -0.027977 1.570199
    11 3.837408 0.000000 0.000000 0.140627 0.172530 0.065717
    12 3.617868 0.000000 0.000000 0.125135 0.146428 0.109651
    13 7.539779 0.000000 0.000000 0.057214 -0.091922 0.004028
    14 3.177734 0.000000 0.000001 3.138477 0.000351 0.224126
    15 2.970274 -0.000001 0.000000 0.024867 0.249578 0.086381
    16 2.023707 0.907460 0.852579 2.000368 -1.401116 2.540165
    17 4.983667 -0.000003 0.000000 -0.959148 0.189579 -0.960239
    18 11.123051 0.000000 0.000001 0.000000 0.000000 -1.855747
    19 11.208296 0.000000 0.000002 1.649487 -0.065902 0.008826
    20 3.549243 0.198824 -1.489468 -0.491218 -0.206122 -1.302418
    21 1.219000 0.000000 0.000000 -0.116644 0.201041 -1.049613
    22 0.679999 0.000001 0.000000 -0.116631 0.201023 -1.049594
    23 3.698007 0.267557 -0.728978 -0.160484 -0.094522 -1.077387
    24 1.749001 0.000000 0.000000 -0.036280 0.061909 -1.060069
    25 0.959999 0.000000 0.000000 -0.036289 0.061921 -1.060257
    26 3.768501 0.152549 0.071384 0.089647 0.003142 -1.088768
    27 2.038001 0.000002 0.000000 0.041866 -0.071468 -1.059697
    28 1.067001 0.000001 0.000000 0.041864 -0.071467 -1.059691
    29 3.783923 -0.017257 0.794554 0.469703 0.069819 -1.069029
    30 1.629001 -0.000001 0.000000 0.146934 -0.255018 -1.042351
    31 0.955999 0.000000 0.000000 0.146931 -0.255014 -1.042361
    32 1.258963 -0.297982 1.252590 -1.289283 -0.223065 -0.755500
    33 1.393000 0.000000 0.000000 -0.000012 -0.000193 0.198955
    34 1.100001 0.000000 -0.000001 -0.000012 -0.000198 0.198965
    35 2.023711 0.907462 -0.852528 -2.570772 1.394418 2.044036
    36 4.983666 -0.000003 0.000000 1.553939 -0.638856 -1.087650
    37 11.123047 0.000000 0.000000 0.000000 0.000000 -1.706412
    38 11.208294 0.000000 0.000002 -1.566261 0.062018 0.077526
    39 3.549269 0.211411 1.487669 0.496530 0.198106 -1.302846
    40 1.219002 -0.000001 0.000000 0.120347 -0.207584 -1.048846
    41 0.680000 0.000000 0.000000 0.120347 -0.207567 -1.048840
    42 3.698020 0.273717 0.726623 0.164763 0.087215 -1.077754
    43 1.749002 -0.000001 0.000000 0.040475 -0.069088 -1.059805
    44 0.959998 0.000000 0.000000 0.040484 -0.069088 -1.059964
    45 3.768501 0.151952 -0.072740 -0.085213 -0.010513 -1.088703
    46 2.037999 0.000000 0.000000 -0.037636 0.064229 -1.059978
    47 1.067001 0.000000 0.000000 -0.037633 0.064229 -1.059990
    48 3.783907 -0.023952 -0.794451 -0.465557 -0.077104 -1.068716
    49 1.629000 0.000000 0.000000 -0.143015 0.247971 -1.043431
    50 0.956001 -0.000001 0.000000 -0.143012 0.247967 -1.043430
    51 1.258940 -0.308545 -1.250052 1.288811 0.217357 -0.756836
    52 1.393001 0.000000 -0.000001 0.000120 0.001332 0.198954
    53 1.099999 -0.000001 -0.000001 0.000132 0.001324 0.198963
    54 4.269531 0.000000 0.000000 0.000000 0.000000 0.000000
    55 5.601563 0.000000 0.000000 -0.030875 0.000000 0.000000
    56 5.601563 -0.000001 0.000000 0.034929 0.000000 0.000000
    57 11.203125 0.000001 0.000000 -0.057541 0.000000 0.000000
    58 5.558594 -0.699707 -0.499756 0.000000 0.000000 0.000000
    59 2.130859 1.531250 4.996094 0.000000 0.000000 0.000000
    60 2.000000 4.937500 2.576172 0.000000 0.000000 0.000000
    61 11.117188 -0.000001 0.000001 0.000000 0.000000 -0.100061
    62 1.999023 4.937500 -2.576172 0.000000 0.000000 0.000000
    63 2.130859 1.531250 -4.996094 0.000000 0.000000 0.000000
    64 1.500000 -0.000001 0.000002 0.000000 0.000000 0.000000
    65 11.203125 0.000002 0.000002 0.065170 0.000000 0.000000
    66 11.117188 -0.000002 0.000003 0.000000 0.000000 -0.100080
    67 4.269531 -0.000005 0.000000 0.000000 0.000000 0.000000
    68 1.499023 0.000000 -0.000002 0.000000 0.000000 0.000000
    69 5.558594 -0.699707 0.500000 0.000000 0.000000 0.000000
  time 17
    0 -79.878738 -80.176237 35.851221 1.582824 -0.000602 -0.200715
    1 0.000000 0.000000 0.000000 0.000000 0.000000 -0.023406
    2 3.984014 -0.000004 -0.000003 -1.379643 -0.045364 -1.222732
    3 15.940012 0.000000 0.000000 0.000000 0.000000 1.334958
    4 17.709562 0.000000 0.000000 -0.298604 0.249764 -1.023695
    5 6.203125 0.000000 0.000000 -0.011145 0.000933 -0.500513
    6 -3.984013 0.000007 0.000007 -1.176804 -0.496856 -1.694622
    7 15.940014 0.000000 0.000000 0.000000 0.000000 0.557739
    8 17.709560 0.000000 0.000000 -0.097709 -0.089245 -1.103524
    9 6.203125 0.000000 0.000000 -0.078650 -0.006185 -0.498943
    10 0.000005 4.212784 -1.689857 1.570796 -0.027977 1.570547
    11 3.837408 0.000000 0.000000 0.140172 0.184383 0.068821
    12 3.617868 0.000000 0.000000 0.123090 0.157094 0.112499
    13 7.539779 0.000000 0.000000 0.058796 -0.095289 0.004460
    14 3.177734 0.000000 0.000001 3.138477 0.000351 0.224126
    15 2.970274 -0.000001 0.000000 0.023260 0.255131 0.082258
    16 2.023707 0.907460 0.852579 1.936981 -1.404458 2.602329
    17 4.983667 -0.000003 0.000000 -0.976879 0.336693 -0.891177
    18 11.123051 0.000000 0.000001 0.000000 0.000000 -1.797053
    19 11.208296 0.000000 0.000002 1.615483 -0.077439 0.057344
    20 3.549243 0.198824 -1.489468 -0.491218 -0.206122 -1.302418
    21 1.219000 0.000000 0.000000 -0.116644 0.201041 -1.049613
    22 0.679999 0.000001 0.000000 -0.116631 0.201023 -1.049594
    23 3.698007 0.267557 -0.728978 -0.160484 -0.094522 -1.077387
    24 1.749001 0.000000 0.000000 -0.036280 0.061909 -1.060069
    25 0.959999 0.000000 0.000000 -0.036289 0.061921 -1.060257
    26 3.768501 0.152549 0.071384 0.089647 0.003142 -1.088768
    27 2.038001 0.000002 0.000000 0.041866 -0.071468 -1.059697
    28 1.067001 0.000001 0.000000 0.041864 -0.071467 -1.059691
    29 3.783923 -0.017257 0.794554 0.469703 0.069819 -1.069029
    30 1.629001 -0.000001 0.000000 0.146934 -0.255018 -1.042351
    31 0.955999 0.000000 0.000000 0.146931 -0.255014 -1.042361
    32 1.258963 -0.297982 1.252590 -1.289283 -0.223065 -0.755500
    33 1.393000 0.000000 0.000000 -0.000012 -0.000205 0.198955
    34 1.100001 0.000000 -0.000001 -0.000012 -0.000198 0.198965
    35 2.023711 0.907462 -0.852528 -2.589490 1.373626 2.027691
    36 4.983666 -0.000003 0.000000 1.413814 -0.457922 -0.999713
    37 11.123047 0.000000 0.000000 0.000000 0.000000 -1.756485
    38 11.208294 0.000000 0.000002 -1.569018 0.074699 0.091770
    39 3.549269 0.211411 1.487669 0.496530 0.198106 -1.302846
    40 1.219002 -0.000001 0.000000 0.120347 -0.207584 -1.048846
    41 0.680000 0.000000 0.000000 0.120347 -0.207567 -1.048840
    42 3.698020 0.273717 0.726623 0.164763 0.087215 -1.077754
    43 1.749002 -0.000001 0.000000 0.040475 -0.069088 -1.059805
    44 0.959998 0.000000 0.000000 0.040484 -0.069088 -1.059964
    45 3.768501 0.151952 -0.072740 -0.085213 -0.010513 -1.088703
    46 2.037999 0.000000 0.000000 -0.037636 0.064229 -1.059978
    47 1.067001 0.000000 0.000000 -0.037633 0.064229 -1.059990
    48 3.783907 -0.023952 -0.794451 -0.465557 -0.077104 -1.068716
    49 1.629000 0.000000 0.000000 -0.143015 0.247971 -1.043431
    50 0.956001 -0.000001 0.000000 -0.143012 0.247967 -1.043430
    51 1.258940 -0.308545 -1.250052 1.288811 0.217357 -0.756836
    52 1.393001 0.000000 -0.000001 0.000120 0.001332 0.198954
    53 1.099999 -0.000001 -0.000001 0.000132 0.001324 0.198943
    54 4.269531 0.000000 0.000000 0.000000 0.000000 0.000000
    55 5.601563 0.000000 0.000000 -0.030875 0.000000 0.000000
    56 5.601563 -0.000001 0.000000 0.034929 0.000000 0.000000
    57 11.203125 0.000001 0.000000 -0.057541 0.000000 0.000000
    58 5.558594 -0.699707 -0.499756 0.000000 0.000000 0.000000
    59 2.130859 1.531250 4.996094 0.000000 0.000000 0.000000
    60 2.000000 4.937500 2.576172 0.000000 0.000000 0.000000
    61 11.117188 -0.000001 0.000001 0.000000 0.000000 -0.100061
    62 1.999023 4.937500 -2.576172 0.000000 0.000000 0.000000
    63 2.130859 1.531250 -4.996094 0.000000 0.000000 0.000000
    64 1.500000 -0.000001 0.000002 0.000000 0.000000 0.000000
    65 11.203125 0.000002 0.000002 0.065170 0.000000 0.000000
    66 11.117188 -0.000002 0.000003 0.000000 0.000000 -0.100080
    67 4.269531 -0.000005 0.000000 0.000000 0.000000 0.000000
    68 1.499023 0.000000 -0.000002 0.000000 0.000000 0.000000
    69 5.558594 -0.699707 0.500000 0.000000 0.000000 0.000000
  time 18
    0 -84.722060 -85.250034 35.757468 1.593325 0.000000 -0.233984
    1 0.000000 0.000000 0.000000 0.000000 0.000000 0.000036
    2 3.984014 -0.000004 -0.000003 -1.410786 -0.182364 -1.319098
    3 15.940012 0.000000 0.000000 0.000000 0.000000 1.479776
    4 17.709562 0.000000 0.000000 -0.364540 0.170574 -1.090094
    5 6.203125 0.000000 0.000000 -0.011145 0.000933 -0.500513
    6 -3.984013 0.000007 0.000007 -1.351943 -0.424778 -1.567083
    7 15.940014 0.000000 0.000000 0.000000 0.000000 0.725037
    8 17.709560 0.000000 0.000000 -0.083988 0.029052 -1.388616
    9 6.203125 0.000000 0.000000 -0.078650 -0.006185 -0.498943
    10 0.000005 4.212784 -1.689857 1.570796 -0.027977 1.570796
    11 3.837408 0.000000 0.000000 0.139513 0.196116 0.071901
    12 3.617868 0.000000 0.000000 0.120837 0.167664 0.115313
    13 7.539779 0.000000 0.000000 0.060330 -0.098597 0.004843
    14 3.177734 0.000000 0.000001 3.138477 0.000351 0.224126
    15 2.970274 -0.000001 0.000000 0.022188 0.261193 0.078062
    16 2.023707 0.907460 0.852579 1.871371 -1.407104 2.666863
    17 4.983667 -0.000003 0.000000 -0.982247 0.486299 -0.816405
    18 11.123051 0.000000 0.000001 0.000000 0.000000 -1.740424
    19 11.208296 0.000000 0.000002 1.580520 -0.088693 0.106109
    20 3.549243 0.198824 -1.489468 -0.491218 -0.206122 -1.302418
    21 1.219000 0.000000 0.000000 -0.116644 0.201041 -1.049613
    22 0.679999 0.000001 0.000000 -0.116631 0.201023 -1.049594
    23 3.698007 0.267557 -0.728978 -0.160484 -0.094522 -1.077387
    24 1.749001 0.000000 0.000000 -0.036280 0.061909 -1.060069
    25 0.959999 0.000000 0.000000 -0.036289 0.061921 -1.060257
    26 3.768501 0.152549 0.071384 0.089647 0.003142 -1.088768
    27 2.038001 0.000002 0.000000 0.041866 -0.071468 -1.059697
    28 1.067001 0.000001 0.000000 0.041864 -0.071467 -1.059691
    29 3.783923 -0.017257 0.794554 0.469703 0.069819 -1.069029
    30 1.629001 -0.000001 0.000000 0.146934 -0.255018 -1.042351
    31 0.955999 0.000000 0.000000 0.146931 -0.255014 -1.042361
    32 1.258963 -0.297982 1.252590 -1.289283 -0.223065 -0.755500
    33 1.393000 0.000000 0.000000 -0.000012 -0.000205 0.198955
    34 1.100001 0.000000 -0.000001 -0.000012 -0.000198 0.198965
    35 2.023711 0.907462 -0.852528 -2.604889 1.352833 2.014689
    36 4.983666 -0.000003 0.000000 1.295314 -0.273734 -0.940313
    37 11.123047 0.000000 0.000000 0.000000 0.000000 -1.808847
    38 11.208294 0.000000 0.000002 -1.572020 0.087914 0.106055
    39 3.549269 0.211411 1.487669 0.496530 0.198106 -1.302846
    40 1.219002 -0.000001 0.000000 0.120347 -0.207584 -1.048846
    41 0.680000 0.000000 0.000000 0.120347 -0.207567 -1.048840
    42 3.698020 0.273717 0.726623 0.164763 0.087215 -1.077754
    43 1.749002 -0.000001 0.000000 0.040475 -0.069088 -1.059805
    44 0.959998 0.000000 0.000000 0.040484 -0.069088 -1.059964
    45 3.768501 0.151952 -0.072740 -0.085213 -0.010513 -1.088703
    46 2.037999 0.000000 0.000000 -0.037636 0.064229 -1.059978
    47 1.067001 0.000000 0.000000 -0.037633 0.064229 -1.059990
    48 3.783907 -0.023952 -0.794451 -0.465557 -0.077104 -1.068716
    49 1.629000 0.000000 0.000000 -0.143015 0.247971 -1.043431
    50 0.956001 -0.000001 0.000000 -0.143012 0.247967 -1.043430
    51 1.258940 -0.308545 -1.250052 1.288811 0.217357 -0.756836
    52 1.393001 0.000000 -0.000001 0.000120 0.001332 0.198954
    53 1.099999 -0.000001 -0.000001 0.000132 0.001324 0.198943
    54 4.269531 0.000000 0.000000 0.000000 0.000000 0.000000
    55 5.601563 0.000000 0.000000 -0.030875 0.000000 0.000000
    56 5.601563 -0.000001 0.000000 0.034929 0.000000 0.000000
    57 11.203125 0.000001 0.000000 -0.057541 0.000000 0.000000
    58 5.558594 -0.699707 -0.499756 0.000000 0.000000 0.000000
    59 2.130859 1.531250 4.996094 0.000000 0.000000 0.000000
    60 2.000000 4.937500 2.576172 0.000000 0.000000 0.000000
    61 11.117188 -0.000001 0.000001 0.000000 0.000000 -0.100061
    62 1.999023 4.937500 -2.576172 0.000000 0.000000 0.000000
    63 2.130859 1.531250 -4.996094 0.000000 0.000000 0.000000
    64 1.500000 -0.000001 0.000002 0.000000 0.000000 0.000000
    65 11.203125 0.000002 0.000002 0.065170 0.000000 0.000000
    66 11.117188 -0.000002 0.000003 0.000000 0.000000 -0.100080
    67 4.269531 -0.000005 0.000000 0.000000 0.000000 0.000000
    68 1.499023 0.000000 -0.000002 0.000000 0.000000 0.000000
    69 5.558594 -0.699707 0.500000 0.000000 0.000000 0.000000
  time 19
    0 -89.346625 -90.101169 35.456678 1.592787 -0.001250 -0.212151
    1 0.000000 0.000000 0.000000 0.000000 0.000000 0.008725
    2 3.984014 -0.000004 -0.000003 -1.348040 -0.421747 -1.459650
    3 15.940012 0.000000 0.000000 0.000000 0.000000 1.615505
    4 17.709562 0.000000 0.000000 -0.310276 0.136648 -1.182430
    5 6.203125 0.000000 0.000000 -0.011145 0.000933 -0.500513
    6 -3.984013 0.000007 0.000007 -1.316278 -0.199145 -1.470904
    7 15.940014 0.000000 0.000000 0.000000 0.000000 0.640936
    8 17.709560 0.000000 0.000000 -0.153513 0.032122 -1.551848
    9 6.203125 0.000000 0.000000 -0.078650 -0.006185 -0.498943
    10 0.000005 4.212784 -1.689857 1.571251 -0.027977 1.574923
    11 3.837408 0.000000 0.000000 0.166694 0.173177 0.063715
    12 3.617868 0.000000 0.000000 0.150172 0.146536 0.107642
    13 7.539779 0.000000 0.000000 0.056148 -0.096272 0.006809
    14 3.177734 0.000000 0.000001 3.138477 0.000351 0.224126
    15 2.970274 -0.000001 0.000000 -0.011126 0.220734 0.079395
    16 2.023707 0.907460 0.852579 1.862925 -1.435650 2.672788
    17 4.983667 -0.000003 0.000000 -1.036568 0.591893 -0.815497
    18 11.123051 0.000000 0.000001 0.000000 0.000000 -1.695298
    19 11.208296 0.000000 0.000002 1.564732 -0.087136 0.156276
    20 3.549243 0.198824 -1.489468 -0.491218 -0.206122 -1.302418
    21 1.219000 0.000000 0.000000 -0.116644 0.201041 -1.049613
    22 0.679999 0.000001 0.000000 -0.116631 0.201023 -1.049594
    23 3.698007 0.267557 -0.728978 -0.160484 -0.094522 -1.077387
    24 1.749001 0.000000 0.000000 -0.036280 0.061909 -1.060069
    25 0.959999 0.000000 0.000000 -0.036289 0.061921 -1.060257
    26 3.768501 0.152549 0.071384 0.089647 0.003142 -1.088768
    27 2.038001 0.000002 0.000000 0.041866 -0.071468 -1.059697
    28 1.067001 0.000001 0.000000 0.041864 -0.071467 -1.059691
    29 3.783923 -0.017257 0.794554 0.469703 0.069819 -1.069029
    30 1.629001 -0.000001 0.000000 0.146934 -0.255018 -1.042351
    31 0.955999 0.000000 0.000000 0.146931 -0.255014 -1.042361
    32 1.258963 -0.297982 1.252590 -1.289283 -0.223065 -0.755500
    33 1.393000 0.000000 0.000000 -0.000012 -0.000205 0.198955
    34 1.100001 0.000000 -0.000001 -0.000012 -0.000198 0.198965
    35 2.023711 0.907462 -0.852528 -2.637253 1.327612 1.985343
    36 4.983666 -0.000003 0.000000 1.295097 -0.175184 -0.870721
    37 11.123047 0.000000 0.000000 0.000000 0.000000 -1.805669
    38 11.208294 0.000000 0.000002 -1.581884 0.071297 0.102453
    39 3.549269 0.211411 1.487669 0.496530 0.198106 -1.302846
    40 1.219002 -0.000001 0.000000 0.120347 -0.207584 -1.048846
    41 0.680000 0.000000 0.000000 0.120347 -0.207567 -1.048840
    42 3.698020 0.273717 0.726623 0.164763 0.087215 -1.077754
    43 1.749002 -0.000001 0.000000 0.040475 -0.069088 -1.059805
    44 0.959998 0.000000 0.000000 0.040484 -0.069088 -1.059964
    45 3.768501 0.151952 -0.072740 -0.085213 -0.010513 -1.088703
    46 2.037999 0.000000 0.000000 -0.037636 0.064229 -1.059978
    47 1.067001 0.000000 0.000000 -0.037633 0.064229 -1.059990
    48 3.783907 -0.023952 -0.794451 -0.465557 -0.077104 -1.068716
    49 1.629000 0.000000 0.000000 -0.143015 0.247971 -1.043431
    50 0.956001 -0.000001 0.000000 -0.143012 0.247967 -1.043430
    51 1.258940 -0.308545 -1.250052 1.288811 0.217357 -0.756836
    52 1.393001 0.000000 -0.000001 0.000120 0.001332 0.198954
    53 1.099999 -0.000001 -0.000001 0.000132 0.001324 0.198943
    54 4.269531 0.000000 0.000000 0.000000 0.000000 0.000000
    55 5.601563 0.000000 0.000000 -0.030875 0.000000 0.000000
    56 5.601563 -0.000001 0.000000 0.034929 0.000000 0.000000
    57 11.203125 0.000001 0.000000 -0.057541 0.000000 0.000000
    58 5.558594 -0.699707 -0.499756 0.000000 0.000000 0.000000
    59 2.130859 1.531250 4.996094 0.000000 0.000000 0.000000
    60 2.000000 4.937500 2.576172 0.000000 0.000000 0.000000
    61 11.117188 -0.000001 0.000001 0.000000 0.000000 -0.100061
    62 1.999023 4.937500 -2.576172 0.000000 0.000000 0.000000
    63 2.130859 1.531250 -4.996094 0.000000 0.000000 0.000000
    64 1.500000 -0.000001 0.000002 0.000000 0.000000 0.000000
    65 11.203125 0.000002 0.000002 0.065170 0.000000 0.000000
    66 11.117188 -0.000002 0.000003 0.000000 0.000000 -0.100080
    67 4.269531 -0.000005 0.000000 0.000000 0.000000 0.000000
    68 1.499023 0.000000 -0.000002 0.000000 0.000000 0.000000
    69 5.558594 -0.699707 0.500000 0.000000 0.000000 0.000000
  time 20
    0 -94.072756 -95.053868 35.519180 1.592877 -0.002361 -0.189752
    1 0.000000 0.000000 0.000000 0.000000 0.000000 0.016707
    2 3.984014 -0.000004 -0.000003 -1.262359 -0.635629 -1.624307
    3 15.940012 0.000000 0.000000 0.000000 0.000000 1.711737
    4 17.709562 0.000000 0.000000 -0.270937 0.114886 -1.268831
    5 6.203125 0.000000 0.000000 -0.011145 0.000933 -0.500513
    6 -3.984013 0.000007 0.000007 -1.227071 -0.114286 -1.486172
    7 15.940014 0.000000 0.000000 0.000000 0.000000 0.797657
    8 17.709560 0.000000 0.000000 -0.064330 -0.039035 -1.497301
    9 6.203125 0.000000 0.000000 -0.078650 -0.006185 -0.498943
    10 0.000005 4.212784 -1.689857 1.571656 -0.027977 1.578553
    11 3.837408 0.000000 0.000000 0.192269 0.150610 0.054715
    12 3.617868 0.000000 0.000000 0.178132 0.125778 0.099289
    13 7.539779 0.000000 0.000000 0.052493 -0.093648 0.008930
    14 3.177734 0.000000 0.000001 3.138477 0.000351 0.224126
    15 2.970274 -0.000001 0.000000 -0.043431 0.181388 0.082209
    16 2.023707 0.907460 0.852579 1.795892 -1.463129 2.737322
    17 4.983667 -0.000003 0.000000 -1.078810 0.681554 -0.804870
    18 11.123051 0.000000 0.000001 0.000000 0.000000 -1.654595
    19 11.208296 0.000000 0.000002 1.544790 -0.082063 0.195359
    20 3.549243 0.198824 -1.489468 -0.491218 -0.206122 -1.302418
    21 1.219000 0.000000 0.000000 -0.116644 0.201041 -1.049613
    22 0.679999 0.000001 0.000000 -0.116631 0.201023 -1.049594
    23 3.698007 0.267557 -0.728978 -0.160484 -0.094522 -1.077387
    24 1.749001 0.000000 0.000000 -0.036280 0.061909 -1.060069
    25 0.959999 0.000000 0.000000 -0.036289 0.061921 -1.060257
    26 3.768501 0.152549 0.071384 0.089647 0.003142 -1.088768
    27 2.038001 0.000002 0.000000 0.041866 -0.071468 -1.059697
    28 1.067001 0.000001 0.000000 0.041864 -0.071467 -1.059691
    29 3.783923 -0.017257 0.794554 0.469703 0.069819 -1.069029
    30 1.629001 -0.000001 0.000000 0.146934 -0.255018 -1.042351
    31 0.955999 0.000000 0.000000 0.146931 -0.255014 -1.042361
    32 1.258963 -0.297982 1.252590 -1.289283 -0.223065 -0.755500
    33 1.393000 0.000000 0.000000 -0.000012 -0.000205 0.198955
    34 1.100001 0.000000 -0.000001 -0.000012 -0.000198 0.198965
    35 2.023711 0.907462 -0.852528 -2.682987 1.302344 1.942251
    36 4.983666 -0.000003 0.000000 1.310045 -0.094115 -0.813857
    37 11.123047 0.000000 0.000000 0.000000 0.000000 -1.808592
    38 11.208294 0.000000 0.000002 -1.594688 0.057013 0.102034
    39 3.549269 0.211411 1.487669 0.496530 0.198106 -1.302846
    40 1.219002 -0.000001 0.000000 0.120347 -0.207584 -1.048846
    41 0.680000 0.000000 0.000000 0.120347 -0.207567 -1.048840
    42 3.698020 0.273717 0.726623 0.164763 0.087215 -1.077754
    43 1.749002 -0.000001 0.000000 0.040475 -0.069088 -1.059805
    44 0.959998 0.000000 0.000000 0.040484 -0.069088 -1.059964
    45 3.768501 0.151952 -0.072740 -0.085213 -0.010513 -1.088703
    46 2.037999 0.000000 0.000000 -0.037636 0.064229 -1.059978
    47 1.067001 0.000000 0.000000 -0.037633 0.064229 -1.059990
    48 3.783907 -0.023952 -0.794451 -0.465557 -0.077104 -1.068716
    49 1.629000 0.000000 0.000000 -0.143015 0.247971 -1.043431
    50 0.956001 -0.000001 0.000000 -0.143012 0.247967 -1.043430
    51 1.258940 -0.308545 -1.250052 1.288811 0.217357 -0.756836
    52 1.393001 0.000000 -0.000001 0.000120 0.001332 0.198954
    53 1.099999 -0.000001 -0.000001 0.000132 0.001324 0.198963
    54 4.269531 0.000000 0.000000 0.000000 0.000000 0.000000
    55 5.601563 0.000000 0.000000 -0.030875 0.000000 0.000000
    56 5.601563 -0.000001 0.000000 0.034929 0.000000 0.000000
    57 11.203125 0.000001 0.000000 -0.057541 0.000000 0.000000
    58 5.558594 -0.699707 -0.499756 0.000000 0.000000 0.000000
    59 2.130859 1.531250 4.996094 0.000000 0.000000 0.000000
    60 2.000000 4.937500 2.576172 0.000000 0.000000 0.000000
    61 11.117188 -0.000001 0.000001 0.000000 0.000000 -0.100061
    62 1.999023 4.937500 -2.576172 0.000000 0.000000 0.000000
    63 2.130859 1.531250 -4.996094 0.000000 0.000000 0.000000
    64 1.500000 -0.000001 0.000002 0.000000 0.000000 0.000000
    65 11.203125 0.000002 0.000002 0.065170 0.000000 0.000000
    66 11.117188 -0.000002 0.000003 0.000000 0.000000 -0.100080
    67 4.269531 -0.000005 0.000000 0.000000 0.000000 0.000000
    68 1.499023 0.000000 -0.000002 0.000000 0.000000 0.000000
    69 5.558594 -0.699707 0.500000 0.000000 0.000000 0.000000
end
