// Created by Crowbar 0.71
version 1
nodes
  0 "ValveBiped.Bip01" -1
  1 "ValveBiped.Bip01_Pelvis" 0
  2 "ValveBiped.Bip01_L_Thigh" 1
  3 "ValveBiped.Bip01_L_Calf" 2
  4 "ValveBiped.Bip01_L_Foot" 3
  5 "ValveBiped.Bip01_L_Toe0" 4
  6 "ValveBiped.Bip01_R_Thigh" 1
  7 "ValveBiped.Bip01_R_Calf" 6
  8 "ValveBiped.Bip01_R_Foot" 7
  9 "ValveBiped.Bip01_R_Toe0" 8
  10 "ValveBiped.Bip01_Spine" 0
  11 "ValveBiped.Bip01_Spine1" 10
  12 "ValveBiped.Bip01_Spine2" 11
  13 "ValveBiped.Bip01_Spine4" 12
  14 "ValveBiped.Bip01_Neck1" 13
  15 "ValveBiped.Bip01_Head1" 14
  16 "ValveBiped.Bip01_L_Clavicle" 13
  17 "ValveBiped.Bip01_L_UpperArm" 16
  18 "ValveBiped.Bip01_L_Forearm" 17
  19 "ValveBiped.Bip01_L_Hand" 18
  20 "ValveBiped.Bip01_L_Finger4" 19
  21 "ValveBiped.Bip01_L_Finger41" 20
  22 "ValveBiped.Bip01_L_Finger42" 21
  23 "ValveBiped.Bip01_L_Finger3" 19
  24 "ValveBiped.Bip01_L_Finger31" 23
  25 "ValveBiped.Bip01_L_Finger32" 24
  26 "ValveBiped.Bip01_L_Finger2" 19
  27 "ValveBiped.Bip01_L_Finger21" 26
  28 "ValveBiped.Bip01_L_Finger22" 27
  29 "ValveBiped.Bip01_L_Finger1" 19
  30 "ValveBiped.Bip01_L_Finger11" 29
  31 "ValveBiped.Bip01_L_Finger12" 30
  32 "ValveBiped.Bip01_L_Finger0" 19
  33 "ValveBiped.Bip01_L_Finger01" 32
  34 "ValveBiped.Bip01_L_Finger02" 33
  35 "ValveBiped.Bip01_R_Clavicle" 13
  36 "ValveBiped.Bip01_R_UpperArm" 35
  37 "ValveBiped.Bip01_R_Forearm" 36
  38 "ValveBiped.Bip01_R_Hand" 37
  39 "ValveBiped.Bip01_R_Finger4" 38
  40 "ValveBiped.Bip01_R_Finger41" 39
  41 "ValveBiped.Bip01_R_Finger42" 40
  42 "ValveBiped.Bip01_R_Finger3" 38
  43 "ValveBiped.Bip01_R_Finger31" 42
  44 "ValveBiped.Bip01_R_Finger32" 43
  45 "ValveBiped.Bip01_R_Finger2" 38
  46 "ValveBiped.Bip01_R_Finger21" 45
  47 "ValveBiped.Bip01_R_Finger22" 46
  48 "ValveBiped.Bip01_R_Finger1" 38
  49 "ValveBiped.Bip01_R_Finger11" 48
  50 "ValveBiped.Bip01_R_Finger12" 49
  51 "ValveBiped.Bip01_R_Finger0" 38
  52 "ValveBiped.Bip01_R_Finger01" 51
  53 "ValveBiped.Bip01_R_Finger02" 52
  54 "ValveBiped.Bip01_L_Trapezius" 16
  55 "ValveBiped.Bip01_L_Ulna" 18
  56 "ValveBiped.Bip01_R_Ulna" 37
  57 "ValveBiped.Bip01_L_Wrist" 18
  58 "ValveBiped.Bip01_L_Bicep" 17
  59 "ValveBiped.Bip01_L_Latt" 12
  60 "ValveBiped.Bip01_L_Pectoral" 12
  61 "ValveBiped.Bip01_R_Elbow" 36
  62 "ValveBiped.Bip01_R_Pectoral" 12
  63 "ValveBiped.Bip01_R_Latt" 12
  64 "ValveBiped.Bip01_L_Shoulder" 17
  65 "ValveBiped.Bip01_R_Wrist" 37
  66 "ValveBiped.Bip01_L_Elbow" 17
  67 "ValveBiped.Bip01_R_Trapezius" 35
  68 "ValveBiped.Bip01_R_Shoulder" 36
  69 "ValveBiped.Bip01_R_Bicep" 36
end
skeleton
  time 0
    0 0.000000 0.000000 0.000000 0.000000 0.000000 -1.570796
    1 0.000000 0.000000 0.000000 -0.000132 0.000000 0.000000
    2 0.000000 0.000001 0.000000 -0.031923 0.000002 0.000133
    3 0.000001 0.000000 0.000000 0.000000 0.000000 0.000000
    4 0.000004 0.000000 0.000000 0.015518 0.027898 0.000583
    5 0.000000 0.000000 0.000000 0.000000 0.000000 0.000000
    6 0.000000 0.000001 0.000000 0.036045 -0.000002 0.000133
    7 0.000002 0.000000 0.000000 0.000000 0.000000 0.000000
    8 0.000002 0.000000 0.000000 -0.017430 -0.031544 0.001110
    9 0.000000 0.000000 0.000000 0.000000 0.000000 -0.000002
    10 0.000000 0.000001 0.000000 0.087410 -0.003545 -0.000193
    11 0.000000 0.000000 0.000000 0.191985 -0.000300 -0.000027
    12 0.000002 0.000000 0.000000 0.436517 -0.011541 -0.004060
    13 -0.000001 0.000000 0.000000 0.000000 0.000000 0.000000
    14 0.000001 0.000000 0.000000 0.000000 0.000000 -0.001774
    15 0.000003 0.000000 0.000000 -0.833218 -0.205250 0.087895
    16 0.000002 0.000000 0.000000 0.000000 0.000000 0.000000
    17 -0.000001 0.000005 0.000001 0.600744 0.049901 -0.376655
    18 -0.000003 0.000000 0.000002 0.000000 0.000000 0.000000
    19 -0.000003 0.000000 -0.000001 0.000000 0.000002 0.000000
    20 0.000001 -0.000001 0.000000 0.000000 0.000000 0.000000
    21 -0.000001 0.000000 -0.000001 0.000000 0.000000 0.000000
    22 0.000001 0.000000 0.000000 0.000000 0.000000 0.000000
    23 -0.000001 0.000000 0.000000 0.000000 0.000000 0.000000
    24 -0.000001 0.000000 0.000000 0.000000 0.000000 0.000000
    25 0.000000 0.000000 0.000000 0.000000 0.000000 0.000000
    26 0.000001 -0.000001 0.000000 0.000000 0.000000 0.000000
    27 0.000000 0.000001 0.000000 0.000000 0.000000 0.000000
    28 0.000002 0.000000 0.000000 0.000000 0.000000 0.000000
    29 0.000000 0.000000 0.000000 0.000000 0.000000 0.000000
    30 -0.000002 0.000000 0.000000 0.000000 0.000000 0.000000
    31 0.000000 0.000000 0.000000 0.000000 0.000000 0.000000
    32 -0.000002 -0.000001 0.000000 0.000000 0.000000 0.000000
    33 0.000000 0.000002 0.000000 0.000000 0.000000 0.000000
    34 -0.000002 0.000000 0.000000 0.000000 0.000000 0.000000
    35 0.000001 0.000000 0.000000 0.000000 0.000000 0.000000
    36 0.000000 0.000001 -0.000001 0.573499 -0.172174 0.351297
    37 0.000001 0.000000 0.000003 0.000000 0.000000 0.000000
    38 -0.000005 0.000000 -0.000002 0.000000 0.000000 0.000000
    39 -0.000003 0.000001 0.000000 0.000000 0.000000 0.000000
    40 0.000001 0.000001 0.000000 0.000000 0.000000 0.000000
    41 0.000002 0.000000 0.000000 0.000000 0.000000 0.000000
    42 -0.000002 -0.000001 0.000000 0.000000 0.000000 0.000000
    43 0.000003 0.000000 0.000000 0.000000 0.000000 0.000000
    44 -0.000005 -0.000001 0.000000 0.000000 0.000000 0.000000
    45 -0.000002 0.000000 0.000000 0.000000 0.000000 0.000000
    46 0.000000 0.000001 0.000000 0.000000 0.000000 0.000000
    47 0.000000 0.000001 0.000000 0.000000 0.000000 0.000000
    48 0.000000 -0.000001 0.000000 0.000000 0.000000 0.000000
    49 0.000003 0.000002 0.000000 0.000000 0.000000 0.000000
    50 -0.000002 0.000001 0.000000 0.000000 0.000000 0.000000
    51 0.000001 -0.000001 0.000000 0.000000 0.000000 0.000000
    52 -0.000001 0.000000 -0.000002 0.000000 0.000000 0.000000
    53 0.000003 0.000002 0.000001 0.000000 0.000000 0.000000
    54 0.000000 0.000004 0.000000 0.000000 0.000000 0.000000
    55 0.000000 0.000000 -0.000002 0.000000 0.000000 0.000000
    56 -0.000002 0.000000 0.000000 0.000000 0.000000 0.000000
    57 -0.000001 0.000000 -0.000003 0.000000 0.000000 0.000000
    58 0.000001 0.000000 0.000000 0.000000 0.000000 0.000000
    59 0.000003 -0.000001 0.000000 0.000000 0.000000 0.000000
    60 0.000002 0.000000 -0.000001 0.000000 0.000000 0.000000
    61 -0.000003 0.000000 0.000001 0.000000 0.000000 0.000000
    62 0.000004 0.000000 -0.000001 0.000000 0.000000 0.000000
    63 0.000003 0.000000 0.000000 0.000000 0.000000 0.000000
    64 0.000001 0.000000 0.000000 0.000000 0.000000 0.000000
    65 -0.000005 0.000000 -0.000001 0.000000 0.000000 0.000000
    66 0.000000 0.000000 0.000000 0.000000 0.000000 0.000000
    67 0.000000 0.000001 0.000000 0.000000 0.000000 0.000000
    68 -0.000001 0.000000 0.000001 0.000000 0.000000 0.000000
    69 -0.000003 0.000000 0.000000 0.000000 0.000000 0.000000
end
