version 1
nodes
  0 "ValveBiped.Bip01_Pelvis" -1
  1 "ValveBiped.Bip01_Spine" 0
  2 "ValveBiped.Bip01_Spine1" 1
  3 "ValveBiped.Bip01_Spine2" 2
  4 "ValveBiped.Bip01_Spine4" 3
  5 "ValveBiped.Bip01_Neck1" 4
  6 "ValveBiped.Bip01_Head1" 5
  7 "ValveBiped.Bip01_R_Clavicle" 4
  8 "ValveBiped.Bip01_R_UpperArm" 7
  9 "ValveBiped.Bip01_R_Forearm" 8
  10 "ValveBiped.Bip01_R_Hand" 9
  11 "ValveBiped.Bip01_R_Finger4" 10
  12 "ValveBiped.Bip01_R_Finger41" 11
  13 "ValveBiped.Bip01_R_Finger42" 12
  14 "ValveBiped.Bip01_R_Finger3" 10
  15 "ValveBiped.Bip01_R_Finger31" 14
  16 "ValveBiped.Bip01_R_Finger32" 15
  17 "ValveBiped.Bip01_R_Finger2" 10
  18 "ValveBiped.Bip01_R_Finger21" 17
  19 "ValveBiped.Bip01_R_Finger22" 18
  20 "ValveBiped.Bip01_R_Finger1" 10
  21 "ValveBiped.Bip01_R_Finger11" 20
  22 "ValveBiped.Bip01_R_Finger12" 21
  23 "ValveBiped.Bip01_R_Finger0" 10
  24 "ValveBiped.Bip01_R_Finger01" 23
  25 "ValveBiped.Bip01_R_Finger02" 24
  26 "ValveBiped.Bip01_L_Clavicle" 4
  27 "ValveBiped.Bip01_L_UpperArm" 26
  28 "ValveBiped.Bip01_L_Forearm" 27
  29 "ValveBiped.Bip01_L_Hand" 28
  30 "ValveBiped.Bip01_L_Finger4" 29
  31 "ValveBiped.Bip01_L_Finger41" 30
  32 "ValveBiped.Bip01_L_Finger42" 31
  33 "ValveBiped.Bip01_L_Finger3" 29
  34 "ValveBiped.Bip01_L_Finger31" 33
  35 "ValveBiped.Bip01_L_Finger32" 34
  36 "ValveBiped.Bip01_L_Finger2" 29
  37 "ValveBiped.Bip01_L_Finger21" 36
  38 "ValveBiped.Bip01_L_Finger22" 37
  39 "ValveBiped.Bip01_L_Finger1" 29
  40 "ValveBiped.Bip01_L_Finger11" 39
  41 "ValveBiped.Bip01_L_Finger12" 40
  42 "ValveBiped.Bip01_L_Finger0" 29
  43 "ValveBiped.Bip01_L_Finger01" 42
  44 "ValveBiped.Bip01_L_Finger02" 43
  45 "ValveBiped.Bip01_R_Thigh" 0
  46 "ValveBiped.Bip01_R_Calf" 45
  47 "ValveBiped.Bip01_R_Foot" 46
  48 "ValveBiped.Bip01_R_Toe0" 47
  49 "ValveBiped.Bip01_L_Thigh" 0
  50 "ValveBiped.Bip01_L_Calf" 49
  51 "ValveBiped.Bip01_L_Foot" 50
  52 "ValveBiped.Bip01_L_Toe0" 51
end
skeleton
time 0
    0 -2.756339 6.812713 23.519583 2.004848 0.210673 0.299393
    1 -0.324224 3.329506 -2.981901 1.570796 -0.208216 1.668938
    2 4.018331 0.000003 0.000000 -0.041011 -0.151653 0.189829
    3 3.518569 0.000003 0.000000 0.324281 -0.087349 0.429895
    4 8.942646 0.000000 0.000000 -0.059934 -0.146579 0.196940
    5 3.307272 0.000001 -0.000001 3.141590 0.000000 0.753894
    6 3.593712 0.000001 0.000000 0.566119 0.190320 1.343395
    7 2.033356 1.000769 -1.937610 -0.372354 1.160836 4.267579
    8 6.028143 -0.000004 -0.000001 1.163671 0.165831 -1.230597
    9 11.692555 -0.000003 0.000006 0.000009 0.000000 -1.849860
    10 11.481702 -0.000002 0.000000 -0.989732 -0.166837 -0.759258
    11 3.859675 -0.132568 1.193109 0.630257 0.016738 -0.184533
    12 1.312561 0.000002 -0.000001 0.010745 -0.071439 -0.299033
    13 0.729365 -0.000001 -0.000001 0.010739 -0.071426 -0.298974
    14 3.942295 0.050329 0.431043 0.097566 0.063416 -0.321393
    15 1.539100 -0.000001 -0.000002 0.003678 -0.023911 -0.306215
    16 1.196324 0.000000 -0.000001 0.003690 -0.023918 -0.306477
    17 3.883660 -0.050327 -0.431045 -0.145111 -0.030872 -0.322137
    18 1.719577 -0.000003 0.000002 -0.003417 0.022226 -0.306430
    19 1.209185 0.000001 0.000001 -0.003428 0.022218 -0.306364
    20 3.859830 -0.148935 -1.331282 -0.193409 0.054307 -0.170425
    21 1.719428 0.000004 -0.000001 -0.012656 0.085112 -0.295535
    22 1.099665 -0.000001 0.000001 -0.012645 0.085106 -0.295456
    23 0.806019 -0.359833 -1.318334 1.401903 0.278814 -0.429220
    24 1.789780 -0.000003 0.000000 0.000207 0.001718 0.260034
    25 1.207002 0.000001 -0.000001 0.000291 0.001995 0.303707
    26 2.033350 1.000763 1.937660 2.794140 -1.189263 1.722149
    27 6.028143 -0.000001 0.000000 -1.562119 -0.950503 -0.526777
    28 11.692554 0.000002 0.000000 -0.000009 0.000000 -1.780994
    29 11.481676 0.000000 -0.000035 1.122596 -0.171752 0.210385
    30 3.859707 -0.142406 -1.191974 -0.630883 -0.018260 -0.184354
    31 1.312560 0.000003 0.000000 -0.010424 0.069213 -0.299526
    32 0.729364 -0.000001 -0.000001 -0.010419 0.069213 -0.299486
    33 3.942328 0.046770 -0.431442 -0.097259 -0.066031 -0.320850
    34 1.539093 0.000003 0.000000 -0.003285 0.021421 -0.306409
    35 1.196322 0.000000 0.000000 -0.003306 0.021436 -0.306681
    36 3.883688 -0.046772 0.431442 0.145537 0.028237 -0.322391
    37 1.719577 0.000001 -0.000001 0.003803 -0.024725 -0.306222
    38 1.209183 0.000002 0.000002 0.003811 -0.024727 -0.306152
    39 3.859863 -0.137947 1.332467 0.606556 0.043934 -0.315995
    40 1.719430 0.000001 0.000001 0.012969 -0.087478 -0.294877
    41 1.099662 -0.000002 0.000000 0.012967 -0.087471 -0.294804
    42 0.806048 -0.348922 1.321258 -1.404042 -0.282277 -0.427145
    43 1.789783 -0.000001 0.000001 -0.000023 -0.000247 0.260043
    44 1.206999 -0.000002 0.000001 -0.000046 -0.000300 0.303734
    45 -3.890451 0.000006 0.000006 -0.083703 -0.897421 -2.889979
    46 17.848169 -0.000002 0.000001 0.000000 0.000000 1.608083
    47 16.525253 0.000000 0.000000 0.276826 -0.177161 -1.406949
    48 6.879453 -0.000001 0.000001 -0.081333 -0.002951 -0.584373
    49 3.890451 -0.000006 -0.000002 -3.071838 -1.154946 0.319216
    50 17.848173 0.000000 0.000001 -0.000001 0.000000 1.837719
    51 16.525251 0.000000 0.000000 -0.055239 0.300501 -1.666961
    52 6.879455 -0.000001 0.000000 -0.007300 -0.002952 -0.584369
time 1
    0 -2.045380 6.664271 23.589898 2.007557 0.205138 0.349089
    1 -0.324224 3.329506 -2.981901 1.570796 -0.205458 1.668441
    2 4.018331 0.000003 0.000000 -0.043492 -0.149580 0.189547
    3 3.518569 0.000003 0.000000 0.316350 -0.088655 0.429662
    4 8.942646 0.000000 0.000000 -0.057645 -0.144865 0.197875
    5 3.307272 0.000001 -0.000001 3.141590 0.000000 0.749386
    6 3.593712 0.000001 0.000000 0.643200 0.247227 1.302113
    7 2.033356 1.000769 -1.937610 -0.384957 1.169295 4.254650
    8 6.028143 -0.000004 -0.000001 1.174140 0.175521 -1.250729
    9 11.692555 -0.000003 0.000006 0.000009 0.000000 -1.847830
    10 11.481702 -0.000002 0.000000 -0.990863 -0.205892 -0.759795
    11 3.859675 -0.132568 1.193109 0.630257 0.016738 -0.184533
    12 1.312561 0.000002 -0.000001 0.010745 -0.071439 -0.299033
    13 0.729365 -0.000001 -0.000001 0.010739 -0.071426 -0.298974
    14 3.942295 0.050329 0.431043 0.097566 0.063416 -0.321393
    15 1.539100 -0.000001 -0.000002 0.003678 -0.023911 -0.306215
    16 1.196324 0.000000 -0.000001 0.003690 -0.023918 -0.306477
    17 3.883660 -0.050327 -0.431045 -0.145111 -0.030872 -0.322137
    18 1.719577 -0.000003 0.000002 -0.003417 0.022226 -0.306430
    19 1.209185 0.000001 0.000001 -0.003428 0.022218 -0.306364
    20 3.859830 -0.148935 -1.331282 -0.198718 0.053036 -0.172298
    21 1.719428 0.000004 -0.000001 -0.012656 0.085112 -0.295535
    22 1.099665 -0.000001 0.000001 -0.012645 0.085106 -0.295456
    23 0.806019 -0.359833 -1.318334 1.401903 0.278814 -0.429220
    24 1.789780 -0.000003 0.000000 0.000207 0.001718 0.260034
    25 1.207002 0.000001 -0.000001 0.000291 0.001995 0.303707
    26 2.033350 1.000763 1.937660 2.797300 -1.194367 1.719658
    27 6.028143 -0.000001 0.000000 -1.594711 -0.929918 -0.497532
    28 11.692554 0.000002 0.000000 -0.000009 0.000000 -1.811929
    29 11.481676 0.000000 -0.000035 1.123069 -0.193527 0.220843
    30 3.859707 -0.142406 -1.191974 -0.630883 -0.018260 -0.184354
    31 1.312560 0.000003 0.000000 -0.010424 0.069213 -0.299526
    32 0.729364 -0.000001 -0.000001 -0.010419 0.069213 -0.299486
    33 3.942328 0.046770 -0.431442 -0.097259 -0.066031 -0.320850
    34 1.539093 0.000003 0.000000 -0.003285 0.021421 -0.306409
    35 1.196322 0.000000 0.000000 -0.003306 0.021436 -0.306681
    36 3.883688 -0.046772 0.431442 0.145537 0.028237 -0.322391
    37 1.719577 0.000001 -0.000001 0.003803 -0.024725 -0.306222
    38 1.209183 0.000002 0.000002 0.003799 -0.024727 -0.306152
    39 3.859863 -0.137947 1.332467 0.606556 0.043934 -0.315995
    40 1.719430 0.000001 0.000001 0.012969 -0.087478 -0.294877
    41 1.099662 -0.000002 0.000000 0.012967 -0.087471 -0.294804
    42 0.806048 -0.348922 1.321258 -1.404042 -0.282277 -0.427145
    43 1.789783 -0.000001 0.000001 -0.000023 -0.000247 0.260043
    44 1.206999 -0.000002 0.000001 -0.000046 -0.000300 0.303734
    45 -3.890451 0.000006 0.000006 -0.046961 -0.863159 -2.903507
    46 17.848169 -0.000002 0.000001 0.000000 0.000000 1.644816
    47 16.525253 0.000000 0.000000 0.165507 -0.188032 -1.356998
    48 6.879453 -0.000001 0.000001 -0.081333 -0.002951 -0.584373
    49 3.890451 -0.000006 -0.000002 -3.152833 -1.127686 0.366560
    50 17.848173 0.000000 0.000001 -0.000001 0.000000 1.820072
    51 16.525251 0.000000 0.000000 -0.082223 0.248063 -1.620095
    52 6.879455 -0.000001 0.000000 -0.007300 -0.002928 -0.584369
time 2
    0 -0.100008 6.254102 23.781310 2.012621 0.189049 0.485063
    1 -0.316411 3.333413 -2.981901 1.570796 -0.197691 1.666999
    2 4.018331 0.000003 0.000000 -0.050491 -0.143719 0.188717
    3 3.518569 0.000003 0.000000 0.293976 -0.092334 0.428977
    4 8.942646 0.000000 0.000000 -0.051221 -0.140023 0.200524
    5 3.307272 0.000001 -0.000001 3.141590 0.000000 0.736706
    6 3.593712 0.000001 0.000000 0.828946 0.368166 1.212730
    7 2.033356 1.000769 -1.937610 -0.423241 1.192731 4.215287
    8 6.028143 -0.000004 -0.000001 1.193569 0.207981 -1.298635
    9 11.692555 -0.000003 0.000006 0.000009 0.000000 -1.842416
    10 11.481702 -0.000002 0.000000 -0.996650 -0.297260 -0.757992
    11 3.859675 -0.132568 1.193109 0.630257 0.016738 -0.184533
    12 1.312561 0.000002 -0.000001 0.010745 -0.071439 -0.299033
    13 0.729365 -0.000001 -0.000001 0.010739 -0.071426 -0.298974
    14 3.942295 0.050329 0.431043 0.097566 0.063416 -0.321393
    15 1.539100 -0.000001 -0.000002 0.003678 -0.023911 -0.306215
    16 1.196324 0.000000 -0.000001 0.003690 -0.023918 -0.306477
    17 3.883660 -0.050327 -0.431045 -0.145111 -0.030872 -0.322137
    18 1.719577 -0.000003 0.000002 -0.003417 0.022226 -0.306430
    19 1.209185 0.000001 0.000001 -0.003428 0.022218 -0.306364
    20 3.859830 -0.148935 -1.331282 -0.213627 0.049465 -0.177554
    21 1.719428 0.000004 -0.000001 -0.012656 0.085112 -0.295535
    22 1.099665 -0.000001 0.000001 -0.012645 0.085106 -0.295456
    23 0.806019 -0.359833 -1.318334 1.401903 0.278814 -0.429220
    24 1.789780 -0.000003 0.000000 0.000207 0.001718 0.260034
    25 1.207002 0.000001 -0.000001 0.000291 0.001995 0.303707
    26 2.033350 1.000763 1.937660 2.806781 -1.208777 1.712280
    27 6.028143 -0.000001 0.000000 -1.677961 -0.875839 -0.430632
    28 11.692554 0.000002 0.000000 -0.000009 0.000000 -1.888086
    29 11.481676 0.000000 -0.000035 1.125910 -0.245625 0.245515
    30 3.859707 -0.142406 -1.191974 -0.630883 -0.018260 -0.184354
    31 1.312560 0.000003 0.000000 -0.010424 0.069213 -0.299526
    32 0.729364 -0.000001 -0.000001 -0.010419 0.069213 -0.299486
    33 3.942328 0.046770 -0.431442 -0.097259 -0.066031 -0.320875
    34 1.539093 0.000003 0.000000 -0.003285 0.021421 -0.306409
    35 1.196322 0.000000 0.000000 -0.003306 0.021436 -0.306681
    36 3.883688 -0.046772 0.431442 0.145537 0.028237 -0.322391
    37 1.719577 0.000001 -0.000001 0.003803 -0.024725 -0.306222
    38 1.209183 0.000002 0.000002 0.003799 -0.024727 -0.306152
    39 3.859863 -0.137947 1.332467 0.606556 0.043934 -0.315995
    40 1.719430 0.000001 0.000001 0.012969 -0.087478 -0.294877
    41 1.099662 -0.000002 0.000000 0.012967 -0.087471 -0.294804
    42 0.806048 -0.348922 1.321258 -1.404042 -0.282277 -0.427145
    43 1.789783 -0.000001 0.000001 -0.000023 -0.000247 0.260043
    44 1.206999 -0.000002 0.000001 -0.000046 -0.000300 0.303734
    45 -3.890451 0.000006 0.000006 -0.012246 -0.819466 -2.926697
    46 17.848169 -0.000002 0.000001 0.000000 0.000000 1.733316
    47 16.525253 0.000000 0.000000 -0.083598 -0.100058 -1.250378
    48 6.879453 -0.000001 0.000001 -0.081333 -0.002951 -0.584373
    49 3.890451 -0.000006 -0.000002 -3.396106 -0.957664 0.393763
    50 17.848173 0.000000 0.000001 -0.000001 0.000000 1.776293
    51 16.525251 0.000000 0.000000 0.007697 0.184455 -1.482334
    52 6.879455 -0.000001 0.000000 -0.007300 -0.002868 -0.584369
time 3
    0 2.829769 5.617364 24.082100 2.013505 0.163563 0.686886
    1 -0.312505 3.333413 -2.981901 1.570796 -0.185677 1.664861
    2 4.018331 0.000003 0.000000 -0.061313 -0.134695 0.187455
    3 3.518569 0.000003 0.000000 0.259414 -0.097991 0.427856
    4 8.942646 0.000000 0.000000 -0.041298 -0.132545 0.204622
    5 3.307272 0.000001 -0.000001 3.141590 0.000000 0.717120
    6 3.593712 0.000001 0.000000 1.052271 0.479383 1.124988
    7 2.033356 1.000769 -1.937610 -0.492649 1.227679 4.143936
    8 6.028143 -0.000004 -0.000001 1.194989 0.272902 -1.344025
    9 11.692555 -0.000003 0.000006 0.000009 0.000000 -1.831965
    10 11.481702 -0.000002 0.000000 -1.013813 -0.384352 -0.748438
    11 3.859675 -0.132568 1.193109 0.630257 0.016738 -0.184533
    12 1.312561 0.000002 -0.000001 0.010745 -0.071439 -0.299033
    13 0.729365 -0.000001 -0.000001 0.010739 -0.071426 -0.298974
    14 3.942295 0.050329 0.431043 0.097566 0.063416 -0.321393
    15 1.539100 -0.000001 -0.000002 0.003678 -0.023911 -0.306215
    16 1.196324 0.000000 -0.000001 0.003690 -0.023918 -0.306477
    17 3.883660 -0.050327 -0.431045 -0.145111 -0.030872 -0.322137
    18 1.719577 -0.000003 0.000002 -0.003417 0.022226 -0.306430
    19 1.209185 0.000001 0.000001 -0.003428 0.022218 -0.306364
    20 3.859830 -0.148935 -1.331282 -0.236661 0.043940 -0.185672
    21 1.719428 0.000004 -0.000001 -0.012656 0.085112 -0.295535
    22 1.099665 -0.000001 0.000001 -0.012645 0.085106 -0.295456
    23 0.806019 -0.359833 -1.318334 1.401903 0.278814 -0.429220
    24 1.789780 -0.000003 0.000000 0.000207 0.001718 0.260034
    25 1.207002 0.000001 -0.000001 0.000291 0.002007 0.303707
    26 2.033350 1.000763 1.937660 2.822773 -1.230960 1.699346
    27 6.028143 -0.000001 0.000000 -1.790839 -0.800638 -0.362049
    28 11.692554 0.000002 0.000000 -0.000009 0.000000 -1.983245
    29 11.481676 0.000000 -0.000035 1.134906 -0.303817 0.272176
    30 3.859707 -0.142406 -1.191974 -0.630883 -0.018260 -0.184354
    31 1.312560 0.000003 0.000000 -0.010424 0.069213 -0.299526
    32 0.729364 -0.000001 -0.000001 -0.010419 0.069213 -0.299486
    33 3.942328 0.046770 -0.431442 -0.097259 -0.066031 -0.320850
    34 1.539093 0.000003 0.000000 -0.003285 0.021421 -0.306409
    35 1.196322 0.000000 0.000000 -0.003306 0.021436 -0.306681
    36 3.883688 -0.046772 0.431442 0.145537 0.028237 -0.322391
    37 1.719577 0.000001 -0.000001 0.003803 -0.024725 -0.306222
    38 1.209183 0.000002 0.000002 0.003811 -0.024727 -0.306152
    39 3.859863 -0.137947 1.332467 0.606556 0.043934 -0.315995
    40 1.719430 0.000001 0.000001 0.012969 -0.087478 -0.294877
    41 1.099662 -0.000002 0.000000 0.012967 -0.087471 -0.294804
    42 0.806048 -0.348922 1.321258 -1.404042 -0.282277 -0.427145
    43 1.789783 -0.000001 0.000001 -0.000023 -0.000247 0.260043
    44 1.206999 -0.000002 0.000001 -0.000046 -0.000300 0.303734
    45 -3.890451 0.000006 0.000006 -0.199167 -0.989728 -2.917112
    46 17.848169 -0.000002 0.000001 0.000000 0.000000 1.839776
    47 16.525253 0.000000 0.000000 -0.064160 0.195658 -1.219206
    48 6.879453 -0.000001 0.000001 -0.081333 -0.002951 -0.584373
    49 3.890451 -0.000006 -0.000002 -3.613977 -0.828410 0.308430
    50 17.848173 0.000000 0.000001 -0.000001 0.000000 1.721174
    51 16.525251 0.000000 0.000000 0.125379 0.021928 -1.392952
    52 6.879455 -0.000001 0.000000 -0.007300 -0.002760 -0.584369
time 4
    0 6.470505 4.797026 24.472737 2.003612 0.132572 0.934794
    1 -0.304692 3.333413 -2.981901 1.570796 -0.170211 1.662077
    2 4.018331 0.000003 0.000000 -0.075251 -0.123046 0.185828
    3 3.518569 0.000003 0.000000 0.214879 -0.105254 0.426297
    4 8.942646 0.000000 0.000000 -0.028510 -0.122909 0.209896
    5 3.307272 0.000001 -0.000001 3.141590 0.000000 0.691893
    6 3.593712 0.000001 0.000000 1.224543 0.517025 1.075341
    7 2.033356 1.000769 -1.937610 -0.605019 1.269558 4.028626
    8 6.028143 -0.000004 -0.000001 1.157105 0.379400 -1.351295
    9 11.692555 -0.000003 0.000006 0.000009 0.000000 -1.813092
    10 11.481702 -0.000002 0.000000 -1.047805 -0.405969 -0.724610
    11 3.859675 -0.132568 1.193109 0.630257 0.016738 -0.184533
    12 1.312561 0.000002 -0.000001 0.010745 -0.071439 -0.299033
    13 0.729365 -0.000001 -0.000001 0.010739 -0.071426 -0.298974
    14 3.942295 0.050329 0.431043 0.097566 0.063416 -0.321393
    15 1.539100 -0.000001 -0.000002 0.003678 -0.023911 -0.306215
    16 1.196324 0.000000 -0.000001 0.003690 -0.023918 -0.306477
    17 3.883660 -0.050327 -0.431045 -0.145111 -0.030872 -0.322137
    18 1.719577 -0.000003 0.000002 -0.003417 0.022226 -0.306430
    19 1.209185 0.000001 0.000001 -0.003428 0.022218 -0.306364
    20 3.859830 -0.148935 -1.331282 -0.266323 0.036833 -0.196132
    21 1.719428 0.000004 -0.000001 -0.012656 0.085112 -0.295535
    22 1.099665 -0.000001 0.000001 -0.012645 0.085106 -0.295456
    23 0.806019 -0.359833 -1.318334 1.401903 0.278814 -0.429220
    24 1.789780 -0.000003 0.000000 0.000207 0.001718 0.260034
    25 1.207002 0.000001 -0.000001 0.000291 0.002007 0.303707
    26 2.033350 1.000763 1.937660 2.846427 -1.259465 1.679321
    27 6.028143 -0.000001 0.000000 -1.923025 -0.721378 -0.319442
    28 11.692554 0.000002 0.000000 -0.000009 0.000000 -2.072248
    29 11.481676 0.000000 -0.000035 1.152819 -0.340642 0.288525
    30 3.859707 -0.142406 -1.191974 -0.630883 -0.018260 -0.184354
    31 1.312560 0.000003 0.000000 -0.010424 0.069213 -0.299526
    32 0.729364 -0.000001 -0.000001 -0.010419 0.069213 -0.299486
    33 3.942328 0.046770 -0.431442 -0.097259 -0.066031 -0.320850
    34 1.539093 0.000003 0.000000 -0.003285 0.021421 -0.306409
    35 1.196322 0.000000 0.000000 -0.003306 0.021436 -0.306681
    36 3.883688 -0.046772 0.431442 0.145537 0.028237 -0.322391
    37 1.719577 0.000001 -0.000001 0.003803 -0.024725 -0.306222
    38 1.209183 0.000002 0.000002 0.003799 -0.024727 -0.306152
    39 3.859863 -0.137947 1.332467 0.606556 0.043934 -0.315995
    40 1.719430 0.000001 0.000001 0.012969 -0.087478 -0.294877
    41 1.099662 -0.000002 0.000000 0.012967 -0.087471 -0.294804
    42 0.806048 -0.348922 1.321258 -1.404042 -0.282277 -0.427145
    43 1.789783 -0.000001 0.000001 -0.000023 -0.000247 0.260043
    44 1.206999 -0.000002 0.000001 -0.000046 -0.000300 0.303734
    45 -3.890451 0.000006 0.000006 -1.606356 -1.340822 -1.882441
    46 17.848169 -0.000002 0.000001 0.000000 0.000000 1.935508
    47 16.525253 0.000000 0.000000 0.419296 0.466332 -1.010271
    48 6.879453 -0.000001 0.000001 -0.081333 -0.002951 -0.584373
    49 3.890451 -0.000006 -0.000002 -3.687592 -0.945282 0.278267
    50 17.848173 0.000000 0.000001 -0.000001 0.000000 1.675742
    51 16.525251 0.000000 0.000000 0.034607 -0.279104 -1.400045
    52 6.879455 -0.000001 0.000000 -0.007300 -0.002628 -0.584369
time 5
    0 10.544848 3.816528 24.929783 1.979822 0.102858 1.209878
    1 -0.292973 3.333413 -2.981901 1.570796 -0.152055 1.658746
    2 4.018331 0.000003 0.000000 -0.091610 -0.109347 0.183902
    3 3.518569 0.000003 0.000000 0.162585 -0.113751 0.424316
    4 8.942646 0.000000 0.000000 -0.013494 -0.111584 0.216092
    5 3.307272 0.000001 -0.000001 3.141590 0.000000 0.662263
    6 3.593712 0.000001 0.000000 1.294712 0.423774 1.088501
    7 2.033356 1.000769 -1.937610 -0.780591 1.311892 3.848956
    8 6.028143 -0.000004 -0.000001 1.091009 0.524612 -1.317089
    9 11.692555 -0.000003 0.000006 0.000009 0.000000 -1.783692
    10 11.481702 -0.000002 0.000000 -1.090778 -0.348588 -0.685013
    11 3.859675 -0.132568 1.193109 0.630257 0.016738 -0.184533
    12 1.312561 0.000002 -0.000001 0.010745 -0.071439 -0.299033
    13 0.729365 -0.000001 -0.000001 0.010739 -0.071426 -0.298974
    14 3.942295 0.050329 0.431043 0.097566 0.063416 -0.321393
    15 1.539100 -0.000001 -0.000002 0.003678 -0.023911 -0.306215
    16 1.196324 0.000000 -0.000001 0.003690 -0.023918 -0.306477
    17 3.883660 -0.050327 -0.431045 -0.145111 -0.030872 -0.322137
    18 1.719577 -0.000003 0.000002 -0.003417 0.022226 -0.306430
    19 1.209185 0.000001 0.000001 -0.003428 0.022218 -0.306364
    20 3.859830 -0.148935 -1.331282 -0.301103 0.028432 -0.208361
    21 1.719428 0.000004 -0.000001 -0.012656 0.085112 -0.295535
    22 1.099665 -0.000001 0.000001 -0.012645 0.085106 -0.295456
    23 0.806019 -0.359833 -1.318334 1.401903 0.278814 -0.429220
    24 1.789780 -0.000003 0.000000 0.000207 0.001718 0.260034
    25 1.207002 0.000001 -0.000001 0.000291 0.002007 0.303707
    26 2.033350 1.000763 1.937660 2.879656 -1.292642 1.649716
    27 6.028143 -0.000001 0.000000 -2.074039 -0.661334 -0.314023
    28 11.692554 0.000002 0.000000 -0.000009 0.000000 -2.133433
    29 11.481676 0.000000 -0.000035 1.177361 -0.332764 0.287347
    30 3.859707 -0.142406 -1.191974 -0.630883 -0.018260 -0.184354
    31 1.312560 0.000003 0.000000 -0.010424 0.069213 -0.299526
    32 0.729364 -0.000001 -0.000001 -0.010419 0.069213 -0.299486
    33 3.942328 0.046770 -0.431442 -0.097259 -0.066031 -0.320850
    34 1.539093 0.000003 0.000000 -0.003285 0.021421 -0.306409
    35 1.196322 0.000000 0.000000 -0.003306 0.021436 -0.306681
    36 3.883688 -0.046772 0.431442 0.145537 0.028237 -0.322391
    37 1.719577 0.000001 -0.000001 0.003803 -0.024725 -0.306222
    38 1.209183 0.000002 0.000002 0.003799 -0.024727 -0.306152
    39 3.859863 -0.137947 1.332467 0.606556 0.043934 -0.315995
    40 1.719430 0.000001 0.000001 0.012969 -0.087478 -0.294877
    41 1.099662 -0.000002 0.000000 0.012967 -0.087471 -0.294804
    42 0.806048 -0.348922 1.321258 -1.404042 -0.282277 -0.427145
    43 1.789783 -0.000001 0.000001 -0.000023 -0.000247 0.260043
    44 1.206999 -0.000002 0.000001 -0.000046 -0.000300 0.303734
    45 -3.890451 0.000006 0.000006 -2.069309 -1.282413 -1.496942
    46 17.848169 -0.000002 0.000001 0.000000 0.000000 2.000116
    47 16.525253 0.000000 0.000000 0.373418 0.431426 -0.958948
    48 6.879453 -0.000001 0.000001 -0.081333 -0.002951 -0.584373
    49 3.890451 -0.000006 -0.000002 -3.638707 -1.122841 0.190165
    50 17.848173 0.000000 0.000001 -0.000001 0.000000 1.664779
    51 16.525251 0.000000 0.000000 -0.039371 -0.494986 -1.462518
    52 6.879455 -0.000001 0.000000 -0.007300 -0.002473 -0.584369
time 6
    0 14.794978 2.718838 25.433704 1.944019 0.082055 1.493989
    1 -0.281254 3.333413 -2.981901 1.570796 -0.131953 1.655067
    2 4.018331 0.000003 0.000000 -0.109719 -0.094223 0.181794
    3 3.518569 0.000003 0.000000 0.104734 -0.123111 0.421926
    4 8.942646 0.000000 0.000000 0.003093 -0.099060 0.222935
    5 3.307272 0.000001 -0.000001 3.141590 0.000000 0.629470
    6 3.593712 0.000001 0.000000 1.303155 0.253376 1.127948
    7 2.033356 1.000769 -1.937610 -1.042279 1.345767 3.581846
    8 6.028143 -0.000004 -0.000001 1.027486 0.674120 -1.298542
    9 11.692555 -0.000003 0.000006 0.000009 0.000000 -1.745645
    10 11.481702 -0.000002 0.000000 -1.128495 -0.283047 -0.628418
    11 3.859675 -0.132568 1.193109 0.630257 0.016738 -0.184533
    12 1.312561 0.000002 -0.000001 0.010745 -0.071439 -0.299033
    13 0.729365 -0.000001 -0.000001 0.010739 -0.071438 -0.298974
    14 3.942295 0.050329 0.431043 0.097566 0.063416 -0.321393
    15 1.539100 -0.000001 -0.000002 0.003678 -0.023911 -0.306215
    16 1.196324 0.000000 -0.000001 0.003690 -0.023918 -0.306477
    17 3.883660 -0.050327 -0.431045 -0.145111 -0.030872 -0.322137
    18 1.719577 -0.000003 0.000002 -0.003417 0.022226 -0.306430
    19 1.209185 0.000001 0.000001 -0.003428 0.022218 -0.306364
    20 3.859830 -0.148935 -1.331282 -0.339513 0.019120 -0.221864
    21 1.719428 0.000004 -0.000001 -0.012656 0.085112 -0.295535
    22 1.099665 -0.000001 0.000001 -0.012645 0.085106 -0.295456
    23 0.806019 -0.359833 -1.318334 1.401903 0.278814 -0.429220
    24 1.789780 -0.000003 0.000000 0.000207 0.001718 0.260034
    25 1.207002 0.000001 -0.000001 0.000291 0.001995 0.303707
    26 2.033350 1.000763 1.937660 2.926484 -1.329117 1.606410
    27 6.028143 -0.000001 0.000000 -2.243596 -0.642607 -0.333084
    28 11.692554 0.000002 0.000000 -0.000009 0.000000 -2.148862
    29 11.481676 0.000000 -0.000035 1.199299 -0.273866 0.271807
    30 3.859707 -0.142406 -1.191974 -0.630883 -0.018260 -0.184354
    31 1.312560 0.000003 0.000000 -0.010424 0.069213 -0.299526
    32 0.729364 -0.000001 -0.000001 -0.010419 0.069213 -0.299486
    33 3.942328 0.046770 -0.431442 -0.097259 -0.066031 -0.320850
    34 1.539093 0.000003 0.000000 -0.003285 0.021421 -0.306409
    35 1.196322 0.000000 0.000000 -0.003306 0.021436 -0.306681
    36 3.883688 -0.046772 0.431442 0.145537 0.028237 -0.322391
    37 1.719577 0.000001 -0.000001 0.003803 -0.024725 -0.306222
    38 1.209183 0.000002 0.000002 0.003799 -0.024727 -0.306152
    39 3.859863 -0.137947 1.332467 0.606556 0.043934 -0.315995
    40 1.719430 0.000001 0.000001 0.012969 -0.087478 -0.294877
    41 1.099662 -0.000002 0.000000 0.012967 -0.087471 -0.294804
    42 0.806048 -0.348922 1.321258 -1.404042 -0.282277 -0.427145
    43 1.789783 -0.000001 0.000001 -0.000023 -0.000247 0.260043
    44 1.206999 -0.000002 0.000001 -0.000046 -0.000300 0.303734
    45 -3.890451 0.000006 0.000006 -1.615816 -1.236806 -1.900761
    46 17.848169 -0.000002 0.000001 0.000000 0.000000 2.021408
    47 16.525253 0.000000 0.000000 0.181680 0.218650 -1.064621
    48 6.879453 -0.000001 0.000001 -0.081333 -0.002951 -0.584373
    49 3.890451 -0.000006 -0.000002 -3.346550 -1.223072 -0.146875
    50 17.848173 0.000000 0.000001 -0.000001 0.000000 1.680699
    51 16.525251 0.000000 0.000000 -0.015752 -0.534924 -1.596827
    52 6.879455 -0.000001 0.000000 -0.007300 -0.002293 -0.584369
time 7
    0 18.951355 1.543021 25.961064 1.902268 0.074908 -4.514621
    1 -0.265628 3.337319 -2.981901 1.570796 -0.110717 1.651288
    2 4.018331 0.000003 0.000000 -0.128846 -0.078199 0.179553
    3 3.518569 0.000003 0.000000 0.043594 -0.132974 0.419159
    4 8.942646 0.000000 0.000000 0.020638 -0.085817 0.230186
    5 3.307272 0.000001 -0.000001 3.141590 0.000000 0.594831
    6 3.593712 0.000001 0.000000 1.286750 0.116850 1.130618
    7 2.033356 1.000769 -1.937610 -1.384259 1.359713 3.233234
    8 6.028143 -0.000004 -0.000001 0.968753 0.790738 -1.340483
    9 11.692555 -0.000003 0.000006 0.000009 0.000000 -1.706997
    10 11.481702 -0.000002 0.000000 -1.164483 -0.261331 -0.541587
    11 3.859675 -0.132568 1.193109 0.630257 0.016738 -0.184533
    12 1.312561 0.000002 -0.000001 0.010745 -0.071439 -0.299033
    13 0.729365 -0.000001 -0.000001 0.010739 -0.071426 -0.298974
    14 3.942295 0.050329 0.431043 0.097566 0.063416 -0.321393
    15 1.539100 -0.000001 -0.000002 0.003678 -0.023911 -0.306215
    16 1.196324 0.000000 -0.000001 0.003690 -0.023918 -0.306477
    17 3.883660 -0.050327 -0.431045 -0.145111 -0.030872 -0.322137
    18 1.719577 -0.000003 0.000002 -0.003417 0.022226 -0.306430
    19 1.209185 0.000001 0.000001 -0.003428 0.022218 -0.306364
    20 3.859830 -0.148935 -1.331282 -0.380045 0.009257 -0.236123
    21 1.719428 0.000004 -0.000001 -0.012656 0.085112 -0.295535
    22 1.099665 -0.000001 0.000001 -0.012645 0.085106 -0.295456
    23 0.806019 -0.359833 -1.318334 1.401903 0.278814 -0.429220
    24 1.789780 -0.000003 0.000000 0.000207 0.001718 0.260034
    25 1.207002 0.000001 -0.000001 0.000291 0.002007 0.303707
    26 2.033350 1.000763 1.937660 2.993230 -1.366966 1.542504
    27 6.028143 -0.000001 0.000000 -2.422329 -0.667006 -0.341774
    28 11.692554 0.000002 0.000000 -0.000009 0.000000 -2.106223
    29 11.481676 0.000000 -0.000035 1.205849 -0.184311 0.252401
    30 3.859707 -0.142406 -1.191974 -0.630883 -0.018260 -0.184354
    31 1.312560 0.000003 0.000000 -0.010424 0.069213 -0.299526
    32 0.729364 -0.000001 -0.000001 -0.010419 0.069213 -0.299486
    33 3.942328 0.046770 -0.431442 -0.097259 -0.066031 -0.320850
    34 1.539093 0.000003 0.000000 -0.003285 0.021421 -0.306409
    35 1.196322 0.000000 0.000000 -0.003306 0.021436 -0.306681
    36 3.883688 -0.046772 0.431442 0.145537 0.028237 -0.322391
    37 1.719577 0.000001 -0.000001 0.003803 -0.024725 -0.306222
    38 1.209183 0.000002 0.000002 0.003799 -0.024727 -0.306152
    39 3.859863 -0.137947 1.332467 0.606556 0.043934 -0.315995
    40 1.719430 0.000001 0.000001 0.012969 -0.087478 -0.294877
    41 1.099662 -0.000002 0.000000 0.012967 -0.087471 -0.294804
    42 0.806048 -0.348922 1.321258 -1.404042 -0.282277 -0.427145
    43 1.789783 -0.000001 0.000001 -0.000023 -0.000247 0.260043
    44 1.206999 -0.000002 0.000001 -0.000046 -0.000300 0.303734
    45 -3.890451 0.000006 0.000006 -1.314444 -1.096250 -2.137611
    46 17.848169 -0.000002 0.000001 0.000000 0.000000 1.993940
    47 16.525253 0.000000 0.000000 0.213080 -0.028417 -1.171052
    48 6.879453 -0.000001 0.000001 -0.081333 -0.002951 -0.584373
    49 3.890451 -0.000006 -0.000002 -2.966305 -1.185143 -0.544145
    50 17.848173 0.000000 0.000001 -0.000001 0.000000 1.696844
    51 16.525251 0.000000 0.000000 0.019787 -0.456004 -1.716192
    52 6.879455 -0.000001 0.000000 -0.007300 -0.002113 -0.584369
time 8
    0 22.740533 0.328140 26.504049 1.861813 0.081143 -4.268898
    1 -0.250003 3.337319 -2.981901 1.570796 -0.089075 1.647311
    2 4.018331 0.000003 0.000000 -0.148333 -0.061900 0.177278
    3 3.518569 0.000003 0.000000 -0.018621 -0.143017 0.416085
    4 8.942646 0.000000 0.000000 0.038496 -0.072334 0.237556
    5 3.307272 0.000001 -0.000001 3.141590 0.000000 0.559534
    6 3.593712 0.000001 0.000000 1.253328 0.047593 1.074665
    7 2.033356 1.000769 -1.937610 -1.733017 1.346716 2.876576
    8 6.028143 -0.000004 -0.000001 0.901060 0.879096 -1.415232
    9 11.692555 -0.000003 0.000006 0.000009 0.000000 -1.673161
    10 11.481702 -0.000002 0.000000 -1.205327 -0.246920 -0.417768
    11 3.859675 -0.132568 1.193109 0.630257 0.016738 -0.184533
    12 1.312561 0.000002 -0.000001 0.010745 -0.071439 -0.299033
    13 0.729365 -0.000001 -0.000001 0.010739 -0.071426 -0.298974
    14 3.942295 0.050329 0.431043 0.097566 0.063416 -0.321393
    15 1.539100 -0.000001 -0.000002 0.003678 -0.023911 -0.306215
    16 1.196324 0.000000 -0.000001 0.003690 -0.023918 -0.306477
    17 3.883660 -0.050327 -0.431045 -0.145111 -0.030872 -0.322137
    18 1.719577 -0.000003 0.000002 -0.003417 0.022226 -0.306430
    19 1.209185 0.000001 0.000001 -0.003428 0.022218 -0.306364
    20 3.859830 -0.148935 -1.331282 -0.421272 -0.000822 -0.250615
    21 1.719428 0.000004 -0.000001 -0.012656 0.085112 -0.295535
    22 1.099665 -0.000001 0.000001 -0.012645 0.085106 -0.295456
    23 0.806019 -0.359833 -1.318334 1.401903 0.278814 -0.429220
    24 1.789780 -0.000003 0.000000 0.000207 0.001718 0.260034
    25 1.207002 0.000001 -0.000001 0.000291 0.001995 0.303707
    26 2.033350 1.000763 1.937660 3.091195 -1.404226 1.446694
    27 6.028143 -0.000001 0.000000 -2.595135 -0.707442 -0.313556
    28 11.692554 0.000002 0.000000 -0.000009 0.000000 -2.008099
    29 11.481676 0.000000 -0.000035 1.191881 -0.097432 0.234910
    30 3.859707 -0.142406 -1.191974 -0.630883 -0.018260 -0.184354
    31 1.312560 0.000003 0.000000 -0.010424 0.069213 -0.299526
    32 0.729364 -0.000001 -0.000001 -0.010419 0.069213 -0.299486
    33 3.942328 0.046770 -0.431442 -0.097259 -0.066031 -0.320850
    34 1.539093 0.000003 0.000000 -0.003285 0.021421 -0.306409
    35 1.196322 0.000000 0.000000 -0.003306 0.021436 -0.306681
    36 3.883688 -0.046772 0.431442 0.145537 0.028237 -0.322391
    37 1.719577 0.000001 -0.000001 0.003803 -0.024725 -0.306222
    38 1.209183 0.000002 0.000002 0.003799 -0.024727 -0.306152
    39 3.859863 -0.137947 1.332467 0.606556 0.043934 -0.315995
    40 1.719430 0.000001 0.000001 0.012969 -0.087478 -0.294877
    41 1.099662 -0.000002 0.000000 0.012967 -0.087471 -0.294804
    42 0.806048 -0.348922 1.321258 -1.404042 -0.282277 -0.427145
    43 1.789783 -0.000001 0.000001 -0.000023 -0.000247 0.260043
    44 1.206999 -0.000002 0.000001 -0.000046 -0.000300 0.303734
    45 -3.890451 0.000006 0.000006 -1.261907 -0.979841 -2.167217
    46 17.848169 -0.000002 0.000001 0.000000 0.000000 1.857248
    47 16.525253 0.000000 0.000000 0.469162 -0.196535 -1.290964
    48 6.879453 -0.000001 0.000001 -0.081333 -0.002951 -0.584373
    49 3.890451 -0.000006 -0.000002 -2.777189 -1.073899 -0.696486
    50 17.848173 0.000000 0.000001 -0.000001 0.000000 1.703377
    51 16.525251 0.000000 0.000000 0.036459 -0.296700 -1.767882
    52 6.879455 -0.000001 0.000000 -0.007300 -0.001921 -0.584369
time 9
    0 25.881254 -0.890647 27.043128 1.827306 0.096441 -4.073346
    1 -0.242190 3.337319 -2.981901 1.570796 -0.067839 1.643483
    2 4.018331 0.000003 0.000000 -0.167473 -0.045901 0.175037
    3 3.518569 0.000003 0.000000 -0.079708 -0.152880 0.412836
    4 8.942646 0.000000 0.000000 0.056029 -0.059079 0.244795
    5 3.307272 0.000001 -0.000001 3.141590 0.000000 0.524869
    6 3.593712 0.000001 0.000000 1.201401 -0.000428 0.992682
    7 2.033356 1.000769 -1.937610 -2.008357 1.311314 2.592610
    8 6.028143 -0.000004 -0.000001 0.819881 0.968839 -1.472645
    9 11.692555 -0.000003 0.000006 0.000009 0.000000 -1.638347
    10 11.481702 -0.000002 0.000000 -1.232867 -0.186578 -0.276108
    11 3.859675 -0.132568 1.193109 0.630257 0.016738 -0.184533
    12 1.312561 0.000002 -0.000001 0.010745 -0.071439 -0.299033
    13 0.729365 -0.000001 -0.000001 0.010739 -0.071426 -0.298974
    14 3.942295 0.050329 0.431043 0.097566 0.063416 -0.321393
    15 1.539100 -0.000001 -0.000002 0.003678 -0.023911 -0.306215
    16 1.196324 0.000000 -0.000001 0.003690 -0.023918 -0.306477
    17 3.883660 -0.050327 -0.431045 -0.145111 -0.030872 -0.322137
    18 1.719577 -0.000003 0.000002 -0.003417 0.022226 -0.306430
    19 1.209185 0.000001 0.000001 -0.003428 0.022218 -0.306364
    20 3.859830 -0.148935 -1.331282 -0.461708 -0.010734 -0.264822
    21 1.719428 0.000004 -0.000001 -0.012656 0.085112 -0.295535
    22 1.099665 -0.000001 0.000001 -0.012645 0.085106 -0.295456
    23 0.806019 -0.359833 -1.318334 1.401903 0.278814 -0.429220
    24 1.789780 -0.000003 0.000000 0.000207 0.001718 0.260034
    25 1.207002 0.000001 -0.000001 0.000291 0.002007 0.303707
    26 2.033350 1.000763 1.937660 3.239052 -1.438463 1.300200
    27 6.028143 -0.000001 0.000000 -2.747966 -0.732477 -0.252168
    28 11.692554 0.000002 0.000000 -0.000009 0.000000 -1.873189
    29 11.481676 0.000000 -0.000035 1.159764 -0.032849 0.217234
    30 3.859707 -0.142406 -1.191974 -0.630883 -0.018260 -0.184354
    31 1.312560 0.000003 0.000000 -0.010424 0.069213 -0.299526
    32 0.729364 -0.000001 -0.000001 -0.010419 0.069213 -0.299486
    33 3.942328 0.046770 -0.431442 -0.097259 -0.066031 -0.320850
    34 1.539093 0.000003 0.000000 -0.003285 0.021421 -0.306409
    35 1.196322 0.000000 0.000000 -0.003306 0.021436 -0.306681
    36 3.883688 -0.046772 0.431442 0.145537 0.028237 -0.322391
    37 1.719577 0.000001 -0.000001 0.003803 -0.024725 -0.306222
    38 1.209183 0.000002 0.000002 0.003799 -0.024727 -0.306152
    39 3.859863 -0.137947 1.332467 0.606556 0.043934 -0.315995
    40 1.719430 0.000001 0.000001 0.012969 -0.087478 -0.294877
    41 1.099662 -0.000002 0.000000 0.012967 -0.087471 -0.294804
    42 0.806048 -0.348922 1.321258 -1.404042 -0.282277 -0.427145
    43 1.789783 -0.000001 0.000001 -0.000023 -0.000247 0.260043
    44 1.206999 -0.000002 0.000001 -0.000046 -0.000300 0.303734
    45 -3.890451 0.000006 0.000006 -1.375851 -0.872408 -2.109860
    46 17.848169 -0.000002 0.000001 0.000000 0.000000 1.571188
    47 16.525253 0.000000 0.000000 0.754426 -0.177161 -1.433155
    48 6.879453 -0.000001 0.000001 -0.081333 -0.002951 -0.584373
    49 3.890451 -0.000006 -0.000002 -2.603889 -1.022854 -0.737912
    50 17.848173 0.000000 0.000001 -0.000001 0.000000 1.691362
    51 16.525251 0.000000 0.000000 -0.003126 -0.162902 -1.745797
    52 6.879455 -0.000001 0.000000 -0.007300 -0.001742 -0.584369
time 10
    0 28.295390 -2.074277 27.547050 1.799217 0.115358 -3.930816
    1 -0.230471 3.337319 -2.981901 1.570796 -0.047737 1.639803
    2 4.018331 0.000003 0.000000 -0.185545 -0.030752 0.172928
    3 3.518569 0.000003 0.000000 -0.137426 -0.162228 0.409529
    4 8.942646 0.000000 0.000000 0.072592 -0.046543 0.251638
    5 3.307272 0.000001 -0.000001 3.141590 0.000000 0.492076
    6 3.593712 0.000001 0.000000 1.148950 -0.035741 0.904876
    7 2.033356 1.000769 -1.937610 -2.195672 1.264277 2.396085
    8 6.028143 -0.000004 -0.000001 0.728144 1.072664 -1.500699
    9 11.692555 -0.000003 0.000006 0.000009 0.000000 -1.599172
    10 11.481702 -0.000002 0.000000 -1.222157 -0.079614 -0.130572
    11 3.859675 -0.132568 1.193109 0.630257 0.016738 -0.184533
    12 1.312561 0.000002 -0.000001 0.010745 -0.071439 -0.299033
    13 0.729365 -0.000001 -0.000001 0.010739 -0.071426 -0.298974
    14 3.942295 0.050329 0.431043 0.097566 0.063416 -0.321393
    15 1.539100 -0.000001 -0.000002 0.003678 -0.023911 -0.306215
    16 1.196324 0.000000 -0.000001 0.003690 -0.023918 -0.306477
    17 3.883660 -0.050327 -0.431045 -0.145111 -0.030872 -0.322137
    18 1.719577 -0.000003 0.000002 -0.003417 0.022226 -0.306430
    19 1.209185 0.000001 0.000001 -0.003428 0.022218 -0.306364
    20 3.859830 -0.148935 -1.331282 -0.499879 -0.020142 -0.278247
    21 1.719428 0.000004 -0.000001 -0.012656 0.085112 -0.295535
    22 1.099665 -0.000001 0.000001 -0.012645 0.085106 -0.295456
    23 0.806019 -0.359833 -1.318334 1.401903 0.278814 -0.429220
    24 1.789780 -0.000003 0.000000 0.000207 0.001718 0.260034
    25 1.207002 0.000001 -0.000001 0.000291 0.002007 0.303707
    26 2.033350 1.000763 1.937660 3.463040 -1.466536 1.076867
    27 6.028143 -0.000001 0.000000 -2.868013 -0.732575 -0.174710
    28 11.692554 0.000002 0.000000 -0.000009 0.000000 -1.716541
    29 11.481676 0.000000 -0.000035 1.109575 0.009290 0.196503
    30 3.859707 -0.142406 -1.191974 -0.630883 -0.018260 -0.184354
    31 1.312560 0.000003 0.000000 -0.010424 0.069213 -0.299526
    32 0.729364 -0.000001 -0.000001 -0.010419 0.069213 -0.299486
    33 3.942328 0.046770 -0.431442 -0.097259 -0.066031 -0.320850
    34 1.539093 0.000003 0.000000 -0.003285 0.021421 -0.306409
    35 1.196322 0.000000 0.000000 -0.003306 0.021436 -0.306681
    36 3.883688 -0.046772 0.431442 0.145537 0.028237 -0.322391
    37 1.719577 0.000001 -0.000001 0.003803 -0.024725 -0.306222
    38 1.209183 0.000002 0.000002 0.003799 -0.024727 -0.306152
    39 3.859863 -0.137947 1.332467 0.606556 0.043934 -0.315995
    40 1.719430 0.000001 0.000001 0.012969 -0.087478 -0.294877
    41 1.099662 -0.000002 0.000000 0.012967 -0.087471 -0.294804
    42 0.806048 -0.348922 1.321258 -1.404042 -0.282277 -0.427145
    43 1.789783 -0.000001 0.000001 -0.000023 -0.000247 0.260043
    44 1.206999 -0.000002 0.000001 -0.000046 -0.000300 0.303734
    45 -3.890451 0.000006 0.000006 -1.519779 -0.704652 -2.031013
    46 17.848169 -0.000002 0.000001 0.000000 0.000000 1.222795
    47 16.525253 0.000000 0.000000 0.831554 0.017304 -1.465746
    48 6.879453 -0.000001 0.000001 -0.081333 -0.002951 -0.584373
    49 3.890451 -0.000006 -0.000002 -2.437490 -1.008905 -0.752039
    50 17.848173 0.000000 0.000001 -0.000001 0.000000 1.657194
    51 16.525251 0.000000 0.000000 -0.054069 -0.058124 -1.698221
    52 6.879455 -0.000001 0.000000 -0.007300 -0.001562 -0.584369
time 11
    0 30.084507 -3.164154 28.004095 1.776663 0.134062 -3.833040
    1 -0.214845 3.341225 -2.981901 1.570796 -0.029581 1.636572
    2 4.018331 0.000003 0.000000 -0.201892 -0.017066 0.171036
    3 3.518569 0.000003 0.000000 -0.189574 -0.170702 0.406353
    4 8.942646 0.000000 0.000000 0.087572 -0.035206 0.257834
    5 3.307272 0.000001 -0.000001 3.141590 0.000000 0.462447
    6 3.593712 0.000001 0.000000 1.113865 -0.065847 0.831033
    7 2.033356 1.000769 -1.937610 -2.317208 1.214723 2.265259
    8 6.028143 -0.000004 -0.000001 0.624697 1.186752 -1.517010
    9 11.692555 -0.000003 0.000006 0.000009 0.000000 -1.553982
    10 11.481702 -0.000002 0.000000 -1.165747 0.041499 0.014542
    11 3.859675 -0.132568 1.193109 0.630257 0.016738 -0.184533
    12 1.312561 0.000002 -0.000001 0.010745 -0.071439 -0.299033
    13 0.729365 -0.000001 -0.000001 0.010739 -0.071426 -0.298974
    14 3.942295 0.050329 0.431043 0.097566 0.063416 -0.321393
    15 1.539100 -0.000001 -0.000002 0.003678 -0.023911 -0.306215
    16 1.196324 0.000000 -0.000001 0.003690 -0.023918 -0.306477
    17 3.883660 -0.050327 -0.431045 -0.145111 -0.030872 -0.322137
    18 1.719577 -0.000003 0.000002 -0.003417 0.022226 -0.306430
    19 1.209185 0.000001 0.000001 -0.003428 0.022218 -0.306364
    20 3.859830 -0.148935 -1.331282 -0.534347 -0.028651 -0.290346
    21 1.719428 0.000004 -0.000001 -0.012656 0.085112 -0.295535
    22 1.099665 -0.000001 0.000001 -0.012645 0.085106 -0.295456
    23 0.806019 -0.359833 -1.318334 1.401903 0.278814 -0.429220
    24 1.789780 -0.000003 0.000000 0.000207 0.001718 0.260034
    25 1.207002 0.000001 -0.000001 0.000291 0.001995 0.303707
    26 2.033350 1.000763 1.937660 3.776949 -1.484754 0.762992
    27 6.028143 -0.000001 0.000000 -2.950402 -0.714777 -0.096877
    28 11.692554 0.000002 0.000000 -0.000009 0.000000 -1.551761
    29 11.481676 0.000000 -0.000035 1.046208 0.037791 0.170615
    30 3.859707 -0.142406 -1.191974 -0.630883 -0.018260 -0.184354
    31 1.312560 0.000003 0.000000 -0.010424 0.069213 -0.299526
    32 0.729364 -0.000001 -0.000001 -0.010419 0.069213 -0.299486
    33 3.942328 0.046770 -0.431442 -0.097259 -0.066031 -0.320850
    34 1.539093 0.000003 0.000000 -0.003285 0.021421 -0.306409
    35 1.196322 0.000000 0.000000 -0.003306 0.021436 -0.306681
    36 3.883688 -0.046772 0.431442 0.145537 0.028237 -0.322391
    37 1.719577 0.000001 -0.000001 0.003803 -0.024725 -0.306222
    38 1.209183 0.000002 0.000002 0.003799 -0.024727 -0.306152
    39 3.859863 -0.137947 1.332467 0.606556 0.043934 -0.315995
    40 1.719430 0.000001 0.000001 0.012969 -0.087478 -0.294877
    41 1.099662 -0.000002 0.000000 0.012967 -0.087471 -0.294804
    42 0.806048 -0.348922 1.321258 -1.404042 -0.282277 -0.427145
    43 1.789783 -0.000001 0.000001 -0.000023 -0.000247 0.260043
    44 1.206999 -0.000002 0.000001 -0.000046 -0.000300 0.303734
    45 -3.890451 0.000006 0.000006 -1.552720 -0.579131 -1.969250
    46 17.848169 -0.000002 0.000001 0.000000 0.000000 1.058717
    47 16.525253 0.000000 0.000000 0.787121 0.156743 -1.454961
    48 6.879453 -0.000001 0.000001 -0.081333 -0.002951 -0.584373
    49 3.890451 -0.000006 -0.000002 -2.372502 -0.983848 -0.716627
    50 17.848173 0.000000 0.000001 -0.000001 0.000000 1.608684
    51 16.525251 0.000000 0.000000 -0.072375 0.039798 -1.643741
    52 6.879455 -0.000001 0.000000 -0.007300 -0.001406 -0.584369
time 12
    0 31.326732 -4.105589 28.386919 1.758703 0.150181 -3.771657
    1 -0.207033 3.341225 -2.981901 1.570796 -0.014115 1.633738
    2 4.018331 0.000003 0.000000 -0.215819 -0.005405 0.169409
    3 3.518569 0.000003 0.000000 -0.233950 -0.177952 0.403513
    4 8.942646 0.000000 0.000000 0.100312 -0.025546 0.263107
    5 3.307272 0.000001 -0.000001 3.141590 0.000000 0.437219
    6 3.593712 0.000001 0.000000 1.102622 -0.090923 0.768420
    7 2.033356 1.000769 -1.937610 -2.395113 1.169295 2.178872
    8 6.028143 -0.000004 -0.000001 0.494190 1.294062 -1.562120
    9 11.692555 -0.000003 0.000006 0.000009 0.000000 -1.504055
    10 11.481702 -0.000002 0.000000 -1.081864 0.139448 0.153862
    11 3.859675 -0.132568 1.193109 0.630257 0.016738 -0.184533
    12 1.312561 0.000002 -0.000001 0.010745 -0.071439 -0.299033
    13 0.729365 -0.000001 -0.000001 0.010739 -0.071426 -0.298974
    14 3.942295 0.050329 0.431043 0.097566 0.063416 -0.321393
    15 1.539100 -0.000001 -0.000002 0.003678 -0.023911 -0.306215
    16 1.196324 0.000000 -0.000001 0.003690 -0.023918 -0.306477
    17 3.883660 -0.050327 -0.431045 -0.145111 -0.030872 -0.322137
    18 1.719577 -0.000003 0.000002 -0.003417 0.022226 -0.306430
    19 1.209185 0.000001 0.000001 -0.003428 0.022218 -0.306364
    20 3.859830 -0.148935 -1.331282 -0.563661 -0.035913 -0.300650
    21 1.719428 0.000004 -0.000001 -0.012656 0.085112 -0.295535
    22 1.099665 -0.000001 0.000001 -0.012645 0.085106 -0.295456
    23 0.806019 -0.359833 -1.318334 1.401903 0.278814 -0.429220
    24 1.789780 -0.000003 0.000000 0.000207 0.001718 0.260034
    25 1.207002 0.000001 -0.000001 0.000291 0.001995 0.303707
    26 2.033350 1.000763 1.937660 4.127726 -1.491075 0.411752
    27 6.028143 -0.000001 0.000000 -2.999147 -0.690133 -0.025679
    28 11.692554 0.000002 0.000000 -0.000009 0.000000 -1.392225
    29 11.481676 0.000000 -0.000035 0.977159 0.059790 0.139131
    30 3.859707 -0.142406 -1.191974 -0.630883 -0.018260 -0.184354
    31 1.312560 0.000003 0.000000 -0.010424 0.069213 -0.299526
    32 0.729364 -0.000001 -0.000001 -0.010419 0.069213 -0.299486
    33 3.942328 0.046770 -0.431442 -0.097259 -0.066031 -0.320850
    34 1.539093 0.000003 0.000000 -0.003285 0.021421 -0.306409
    35 1.196322 0.000000 0.000000 -0.003306 0.021436 -0.306681
    36 3.883688 -0.046772 0.431442 0.145537 0.028237 -0.322391
    37 1.719577 0.000001 -0.000001 0.003803 -0.024725 -0.306222
    38 1.209183 0.000002 0.000002 0.003799 -0.024727 -0.306152
    39 3.859863 -0.137947 1.332467 0.606556 0.043934 -0.315995
    40 1.719430 0.000001 0.000001 0.012969 -0.087478 -0.294877
    41 1.099662 -0.000002 0.000000 0.012967 -0.087471 -0.294804
    42 0.806048 -0.348922 1.321258 -1.404042 -0.282277 -0.427145
    43 1.789783 -0.000001 0.000001 -0.000023 -0.000247 0.260043
    44 1.206999 -0.000002 0.000001 -0.000046 -0.000300 0.303734
    45 -3.890451 0.000006 0.000006 -1.539966 -0.544185 -1.896123
    46 17.848169 -0.000002 0.000001 0.000000 0.000000 1.092849
    47 16.525253 0.000000 0.000000 0.762749 0.213596 -1.485046
    48 6.879453 -0.000001 0.000001 -0.081333 -0.002951 -0.584373
    49 3.890451 -0.000006 -0.000002 -2.367422 -0.954336 -0.664987
    50 17.848173 0.000000 0.000001 -0.000001 0.000000 1.557695
    51 16.525251 0.000000 0.000000 -0.067939 0.122155 -1.588268
    52 6.879455 -0.000001 0.000000 -0.007300 -0.001262 -0.584369
time 13
    0 32.104100 -4.843893 28.691616 1.744629 0.162468 -3.738210
    1 -0.203126 3.341225 -2.981901 1.570796 -0.002101 1.631550
    2 4.018331 0.000003 0.000000 -0.226629 0.003607 0.168147
    3 3.518569 0.000003 0.000000 -0.268380 -0.183597 0.401225
    4 8.942646 0.000000 0.000000 0.110199 -0.018056 0.267194
    5 3.307272 0.000001 -0.000001 3.141590 0.000000 0.417633
    6 3.593712 0.000001 0.000000 1.104372 -0.107220 0.709088
    7 2.033356 1.000769 -1.937610 -2.443517 1.132614 2.123515
    8 6.028143 -0.000004 -0.000001 0.308499 1.375212 -1.682818
    9 11.692555 -0.000003 0.000006 0.000009 0.000000 -1.455331
    10 11.481702 -0.000002 0.000000 -1.001972 0.198178 0.272233
    11 3.859675 -0.132568 1.193109 0.630257 0.016738 -0.184533
    12 1.312561 0.000002 -0.000001 0.010745 -0.071439 -0.299033
    13 0.729365 -0.000001 -0.000001 0.010739 -0.071426 -0.298974
    14 3.942295 0.050329 0.431043 0.097566 0.063416 -0.321393
    15 1.539100 -0.000001 -0.000002 0.003678 -0.023911 -0.306215
    16 1.196324 0.000000 -0.000001 0.003690 -0.023918 -0.306477
    17 3.883660 -0.050327 -0.431045 -0.145111 -0.030872 -0.322137
    18 1.719577 -0.000003 0.000002 -0.003417 0.022226 -0.306430
    19 1.209185 0.000001 0.000001 -0.003428 0.022218 -0.306364
    20 3.859830 -0.148935 -1.331282 -0.586384 -0.041558 -0.308612
    21 1.719428 0.000004 -0.000001 -0.012656 0.085112 -0.295535
    22 1.099665 -0.000001 0.000001 -0.012645 0.085106 -0.295456
    23 0.806019 -0.359833 -1.318334 1.401903 0.278814 -0.429220
    24 1.789780 -0.000003 0.000000 0.000207 0.001718 0.260034
    25 1.207002 0.000001 -0.000001 0.000291 0.001995 0.303707
    26 2.033350 1.000763 1.937660 4.410512 -1.488641 0.128345
    27 6.028143 -0.000001 0.000000 -3.023710 -0.667739 0.034681
    28 11.692554 0.000002 0.000000 -0.000009 0.000000 -1.253363
    29 11.481676 0.000000 -0.000035 0.912844 0.077849 0.105143
    30 3.859707 -0.142406 -1.191974 -0.630883 -0.018260 -0.184354
    31 1.312560 0.000003 0.000000 -0.010424 0.069213 -0.299526
    32 0.729364 -0.000001 -0.000001 -0.010419 0.069213 -0.299486
    33 3.942328 0.046770 -0.431442 -0.097259 -0.066031 -0.320850
    34 1.539093 0.000003 0.000000 -0.003285 0.021421 -0.306409
    35 1.196322 0.000000 0.000000 -0.003306 0.021436 -0.306681
    36 3.883688 -0.046772 0.431442 0.145537 0.028237 -0.322391
    37 1.719577 0.000001 -0.000001 0.003803 -0.024725 -0.306222
    38 1.209183 0.000002 0.000002 0.003799 -0.024727 -0.306152
    39 3.859863 -0.137947 1.332467 0.606556 0.043934 -0.315995
    40 1.719430 0.000001 0.000001 0.012969 -0.087478 -0.294877
    41 1.099662 -0.000002 0.000000 0.012967 -0.087471 -0.294804
    42 0.806048 -0.348922 1.321258 -1.404042 -0.282277 -0.427145
    43 1.789783 -0.000001 0.000001 -0.000023 -0.000247 0.260043
    44 1.206999 -0.000002 0.000001 -0.000034 -0.000300 0.303734
    45 -3.890451 0.000006 0.000006 -1.524509 -0.526462 -1.848738
    46 17.848169 -0.000002 0.000001 0.000000 0.000000 1.108452
    47 16.525253 0.000000 0.000000 0.738128 0.244214 -1.498007
    48 6.879453 -0.000001 0.000001 -0.081333 -0.002951 -0.584373
    49 3.890451 -0.000006 -0.000002 -2.363971 -0.933340 -0.631675
    50 17.848173 0.000000 0.000001 -0.000001 0.000000 1.513841
    51 16.525251 0.000000 0.000000 -0.065282 0.171468 -1.541638
    52 6.879455 -0.000001 0.000000 -0.007300 -0.001166 -0.584369
time 14
    0 32.506456 -5.328283 28.886935 1.735089 0.170041 -3.724337
    1 -0.191407 3.341225 -2.981901 1.570796 0.005665 1.630109
    2 4.018331 0.000003 0.000000 -0.233616 0.009480 0.167350
    3 3.518569 0.000003 0.000000 -0.290621 -0.187252 0.399696
    4 8.942646 0.000000 0.000000 0.116587 -0.013202 0.269843
    5 3.307272 0.000001 -0.000001 3.141590 0.000000 0.404953
    6 3.593712 0.000001 0.000000 1.111153 -0.116035 0.664879
    7 2.033356 1.000769 -1.937610 -2.470344 1.108394 2.091911
    8 6.028143 -0.000004 -0.000001 0.087054 1.420036 -1.865775
    9 11.692555 -0.000003 0.000006 0.000009 0.000000 -1.418037
    10 11.481702 -0.000002 0.000000 -0.948755 0.224927 0.352195
    11 3.859675 -0.132568 1.193109 0.630257 0.016738 -0.184533
    12 1.312561 0.000002 -0.000001 0.010745 -0.071439 -0.299033
    13 0.729365 -0.000001 -0.000001 0.010739 -0.071426 -0.298974
    14 3.942295 0.050329 0.431043 0.097566 0.063416 -0.321393
    15 1.539100 -0.000001 -0.000002 0.003678 -0.023911 -0.306215
    16 1.196324 0.000000 -0.000001 0.003690 -0.023918 -0.306477
    17 3.883660 -0.050327 -0.431045 -0.145111 -0.030872 -0.322137
    18 1.719577 -0.000003 0.000002 -0.003417 0.022226 -0.306430
    19 1.209185 0.000001 0.000001 -0.003428 0.022218 -0.306364
    20 3.859830 -0.148935 -1.331282 -0.601077 -0.045213 -0.313789
    21 1.719428 0.000004 -0.000001 -0.012656 0.085112 -0.295535
    22 1.099665 -0.000001 0.000001 -0.012645 0.085106 -0.295456
    23 0.806019 -0.359833 -1.318334 1.401903 0.278814 -0.429220
    24 1.789780 -0.000003 0.000000 0.000207 0.001718 0.260034
    25 1.207002 0.000001 -0.000001 0.000291 0.002007 0.303707
    26 2.033350 1.000763 1.937660 4.576660 -1.483811 -0.038364
    27 6.028143 -0.000001 0.000000 -3.033746 -0.652924 0.078035
    28 11.692554 0.000002 0.000000 -0.000009 0.000000 -1.154023
    29 11.481676 0.000000 -0.000035 0.865181 0.090744 0.076530
    30 3.859707 -0.142406 -1.191974 -0.630883 -0.018260 -0.184354
    31 1.312560 0.000003 0.000000 -0.010424 0.069213 -0.299526
    32 0.729364 -0.000001 -0.000001 -0.010419 0.069213 -0.299486
    33 3.942328 0.046770 -0.431442 -0.097259 -0.066031 -0.320875
    34 1.539093 0.000003 0.000000 -0.003285 0.021421 -0.306409
    35 1.196322 0.000000 0.000000 -0.003306 0.021436 -0.306681
    36 3.883688 -0.046772 0.431442 0.145537 0.028237 -0.322391
    37 1.719577 0.000001 -0.000001 0.003803 -0.024725 -0.306222
    38 1.209183 0.000002 0.000002 0.003811 -0.024727 -0.306152
    39 3.859863 -0.137947 1.332467 0.606556 0.043934 -0.315995
    40 1.719430 0.000001 0.000001 0.012969 -0.087478 -0.294877
    41 1.099662 -0.000002 0.000000 0.012967 -0.087471 -0.294804
    42 0.806048 -0.348922 1.321258 -1.404042 -0.282277 -0.427145
    43 1.789783 -0.000001 0.000001 -0.000023 -0.000247 0.260043
    44 1.206999 -0.000002 0.000001 -0.000046 -0.000300 0.303734
    45 -3.890451 0.000006 0.000006 -1.520539 -0.519673 -1.819286
    46 17.848169 -0.000002 0.000001 0.000000 0.000000 1.114303
    47 16.525253 0.000000 0.000000 0.723624 0.261966 -1.500797
    48 6.879453 -0.000001 0.000001 -0.081333 -0.002951 -0.584373
    49 3.890451 -0.000006 -0.000002 -2.362629 -0.919196 -0.613825
    50 17.848173 0.000000 0.000001 -0.000001 0.000000 1.484104
    51 16.525251 0.000000 0.000000 -0.063893 0.196505 -1.510756
    52 6.879455 -0.000001 0.000000 -0.007300 -0.001094 -0.584369
time 15
    0 32.623647 -5.500163 28.957249 1.731556 0.172626 -3.721676
    1 -0.191407 3.341225 -2.981901 1.570796 0.008424 1.629611
    2 4.018331 0.000003 0.000000 -0.236084 0.011541 0.167052
    3 3.518569 0.000003 0.000000 -0.298525 -0.188559 0.399142
    4 8.942646 0.000000 0.000000 0.118864 -0.011476 0.270777
    5 3.307272 0.000001 -0.000001 3.141590 0.000000 0.400472
    6 3.593712 0.000001 0.000000 1.115134 -0.118701 0.647537
    7 2.033356 1.000769 -1.937610 -2.479128 1.099729 2.081376
    8 6.028143 -0.000004 -0.000001 -0.024645 1.432877 -1.964943
    9 11.692555 -0.000003 0.000006 0.000009 0.000000 -1.403600
    10 11.481702 -0.000002 0.000000 -0.930195 0.232232 0.381356
    11 3.859675 -0.132568 1.193109 0.630257 0.016738 -0.184533
    12 1.312561 0.000002 -0.000001 0.010745 -0.071439 -0.299033
    13 0.729365 -0.000001 -0.000001 0.010739 -0.071426 -0.298974
    14 3.942295 0.050329 0.431043 0.097566 0.063416 -0.321393
    15 1.539100 -0.000001 -0.000002 0.003678 -0.023911 -0.306215
    16 1.196324 0.000000 -0.000001 0.003690 -0.023918 -0.306477
    17 3.883660 -0.050327 -0.431045 -0.145111 -0.030872 -0.322137
    18 1.719577 -0.000003 0.000002 -0.003417 0.022226 -0.306430
    19 1.209185 0.000001 0.000001 -0.003428 0.022218 -0.306364
    20 3.859830 -0.148935 -1.331282 -0.606290 -0.046508 -0.315611
    21 1.719428 0.000004 -0.000001 -0.012656 0.085112 -0.295535
    22 1.099665 -0.000001 0.000001 -0.012645 0.085106 -0.295456
    23 0.806019 -0.359833 -1.318334 1.401903 0.278814 -0.429220
    24 1.789780 -0.000003 0.000000 0.000207 0.001718 0.260034
    25 1.207002 0.000001 -0.000001 0.000291 0.001995 0.303707
    26 2.033350 1.000763 1.937660 4.630766 -1.481573 -0.092593
    27 6.028143 -0.000001 0.000000 -3.036136 -0.647790 0.094854
    28 11.692554 0.000002 0.000000 -0.000009 0.000000 -1.116248
    29 11.481676 0.000000 -0.000035 0.846557 0.095611 0.064636
    30 3.859707 -0.142406 -1.191974 -0.630883 -0.018260 -0.184354
    31 1.312560 0.000003 0.000000 -0.010424 0.069213 -0.299526
    32 0.729364 -0.000001 -0.000001 -0.010419 0.069213 -0.299486
    33 3.942328 0.046770 -0.431442 -0.097259 -0.066031 -0.320850
    34 1.539093 0.000003 0.000000 -0.003285 0.021421 -0.306409
    35 1.196322 0.000000 0.000000 -0.003306 0.021436 -0.306681
    36 3.883688 -0.046772 0.431442 0.145537 0.028237 -0.322391
    37 1.719577 0.000001 -0.000001 0.003803 -0.024725 -0.306222
    38 1.209183 0.000002 0.000002 0.003811 -0.024727 -0.306152
    39 3.859863 -0.137947 1.332467 0.606556 0.043934 -0.315995
    40 1.719430 0.000001 0.000001 0.012969 -0.087478 -0.294877
    41 1.099662 -0.000002 0.000000 0.012967 -0.087471 -0.294804
    42 0.806048 -0.348922 1.321258 -1.404042 -0.282277 -0.427145
    43 1.789783 -0.000001 0.000001 -0.000023 -0.000247 0.260043
    44 1.206999 -0.000002 0.000001 -0.000046 -0.000300 0.303734
    45 -3.890451 0.000006 0.000006 -1.521046 -0.518489 -1.809083
    46 17.848169 -0.000002 0.000001 0.000000 0.000000 1.115604
    47 16.525253 0.000000 0.000000 0.718939 0.267690 -1.500372
    48 6.879453 -0.000001 0.000001 -0.081333 -0.002951 -0.584373
    49 3.890451 -0.000006 -0.000002 -2.362534 -0.913764 -0.608193
    50 17.848173 0.000000 0.000001 -0.000001 0.000000 1.473516
    51 16.525251 0.000000 0.000000 -0.063478 0.203750 -1.499832
    52 6.879455 -0.000001 0.000000 -0.007300 -0.001070 -0.584369
time 16
    0 32.623647 -5.500163 28.957249 1.731556 0.172626 -3.721676
    1 -0.191407 3.341225 -2.981901 1.570796 0.008424 1.629611
    2 4.018331 0.000003 0.000000 -0.236084 0.011541 0.167052
    3 3.518569 0.000003 0.000000 -0.298525 -0.188559 0.399142
    4 8.942646 0.000000 0.000000 0.118864 -0.011476 0.270777
    5 3.307272 0.000001 -0.000001 3.141590 0.000000 0.400472
    6 3.593712 0.000001 0.000000 1.115134 -0.118701 0.647537
    7 2.033356 1.000769 -1.937610 -2.479128 1.099729 2.081376
    8 6.028143 -0.000004 -0.000001 -0.024645 1.432877 -1.964943
    9 11.692555 -0.000003 0.000006 0.000009 0.000000 -1.403600
    10 11.481702 -0.000002 0.000000 -0.930195 0.232232 0.381356
    11 3.859675 -0.132568 1.193109 0.630257 0.016738 -0.184533
    12 1.312561 0.000002 -0.000001 0.010745 -0.071439 -0.299033
    13 0.729365 -0.000001 -0.000001 0.010739 -0.071426 -0.298974
    14 3.942295 0.050329 0.431043 0.097566 0.063416 -0.321393
    15 1.539100 -0.000001 -0.000002 0.003678 -0.023911 -0.306215
    16 1.196324 0.000000 -0.000001 0.003690 -0.023918 -0.306477
    17 3.883660 -0.050327 -0.431045 -0.145111 -0.030872 -0.322137
    18 1.719577 -0.000003 0.000002 -0.003417 0.022226 -0.306430
    19 1.209185 0.000001 0.000001 -0.003428 0.022218 -0.306364
    20 3.859830 -0.148935 -1.331282 -0.606290 -0.046508 -0.315611
    21 1.719428 0.000004 -0.000001 -0.012656 0.085112 -0.295535
    22 1.099665 -0.000001 0.000001 -0.012645 0.085106 -0.295456
    23 0.806019 -0.359833 -1.318334 1.401903 0.278814 -0.429220
    24 1.789780 -0.000003 0.000000 0.000207 0.001718 0.260034
    25 1.207002 0.000001 -0.000001 0.000291 0.001995 0.303707
    26 2.033350 1.000763 1.937660 4.630766 -1.481573 -0.092593
    27 6.028143 -0.000001 0.000000 -3.036136 -0.647790 0.094854
    28 11.692554 0.000002 0.000000 -0.000009 0.000000 -1.116248
    29 11.481676 0.000000 -0.000035 0.846557 0.095611 0.064636
    30 3.859707 -0.142406 -1.191974 -0.630883 -0.018260 -0.184354
    31 1.312560 0.000003 0.000000 -0.010424 0.069213 -0.299526
    32 0.729364 -0.000001 -0.000001 -0.010419 0.069213 -0.299486
    33 3.942328 0.046770 -0.431442 -0.097259 -0.066031 -0.320850
    34 1.539093 0.000003 0.000000 -0.003285 0.021421 -0.306409
    35 1.196322 0.000000 0.000000 -0.003306 0.021436 -0.306681
    36 3.883688 -0.046772 0.431442 0.145537 0.028237 -0.322391
    37 1.719577 0.000001 -0.000001 0.003803 -0.024725 -0.306222
    38 1.209183 0.000002 0.000002 0.003811 -0.024727 -0.306152
    39 3.859863 -0.137947 1.332467 0.606556 0.043934 -0.315995
    40 1.719430 0.000001 0.000001 0.012969 -0.087478 -0.294877
    41 1.099662 -0.000002 0.000000 0.012967 -0.087471 -0.294804
    42 0.806048 -0.348922 1.321258 -1.404042 -0.282277 -0.427145
    43 1.789783 -0.000001 0.000001 -0.000023 -0.000247 0.260043
    44 1.206999 -0.000002 0.000001 -0.000046 -0.000300 0.303734
    45 -3.890451 0.000006 0.000006 -1.521046 -0.518489 -1.809083
    46 17.848169 -0.000002 0.000001 0.000000 0.000000 1.115604
    47 16.525253 0.000000 0.000000 0.718939 0.267690 -1.500372
    48 6.879453 -0.000001 0.000001 -0.081333 -0.002951 -0.584373
    49 3.890451 -0.000006 -0.000002 -2.362534 -0.913764 -0.608193
    50 17.848173 0.000000 0.000001 -0.000001 0.000000 1.473516
    51 16.525251 0.000000 0.000000 -0.063478 0.203750 -1.499832
    52 6.879455 -0.000001 0.000000 -0.007300 -0.001070 -0.584369
time 17
    0 32.623647 -5.500163 28.957249 1.731556 0.172626 -3.721676
    1 -0.191407 3.341225 -2.981901 1.570796 0.008424 1.629611
    2 4.018331 0.000003 0.000000 -0.236084 0.011541 0.167052
    3 3.518569 0.000003 0.000000 -0.298525 -0.188559 0.399142
    4 8.942646 0.000000 0.000000 0.118864 -0.011476 0.270777
    5 3.307272 0.000001 -0.000001 3.141590 0.000000 0.400472
    6 3.593712 0.000001 0.000000 1.115134 -0.118701 0.647537
    7 2.033356 1.000769 -1.937610 -2.479128 1.099729 2.081376
    8 6.028143 -0.000004 -0.000001 -0.024645 1.432877 -1.964943
    9 11.692555 -0.000003 0.000006 0.000009 0.000000 -1.403600
    10 11.481702 -0.000002 0.000000 -0.930195 0.232232 0.381356
    11 3.859675 -0.132568 1.193109 0.630257 0.016738 -0.184533
    12 1.312561 0.000002 -0.000001 0.010745 -0.071439 -0.299033
    13 0.729365 -0.000001 -0.000001 0.010739 -0.071426 -0.298974
    14 3.942295 0.050329 0.431043 0.097566 0.063416 -0.321393
    15 1.539100 -0.000001 -0.000002 0.003678 -0.023911 -0.306215
    16 1.196324 0.000000 -0.000001 0.003690 -0.023918 -0.306477
    17 3.883660 -0.050327 -0.431045 -0.145111 -0.030872 -0.322137
    18 1.719577 -0.000003 0.000002 -0.003417 0.022226 -0.306430
    19 1.209185 0.000001 0.000001 -0.003428 0.022218 -0.306364
    20 3.859830 -0.148935 -1.331282 -0.606290 -0.046508 -0.315611
    21 1.719428 0.000004 -0.000001 -0.012656 0.085112 -0.295535
    22 1.099665 -0.000001 0.000001 -0.012645 0.085106 -0.295456
    23 0.806019 -0.359833 -1.318334 1.401903 0.278814 -0.429220
    24 1.789780 -0.000003 0.000000 0.000207 0.001718 0.260034
    25 1.207002 0.000001 -0.000001 0.000291 0.001995 0.303707
    26 2.033350 1.000763 1.937660 4.630766 -1.481573 -0.092593
    27 6.028143 -0.000001 0.000000 -3.036136 -0.647790 0.094854
    28 11.692554 0.000002 0.000000 -0.000009 0.000000 -1.116248
    29 11.481676 0.000000 -0.000035 0.846557 0.095611 0.064636
    30 3.859707 -0.142406 -1.191974 -0.630883 -0.018260 -0.184354
    31 1.312560 0.000003 0.000000 -0.010424 0.069213 -0.299526
    32 0.729364 -0.000001 -0.000001 -0.010419 0.069213 -0.299486
    33 3.942328 0.046770 -0.431442 -0.097259 -0.066031 -0.320850
    34 1.539093 0.000003 0.000000 -0.003285 0.021421 -0.306409
    35 1.196322 0.000000 0.000000 -0.003306 0.021436 -0.306681
    36 3.883688 -0.046772 0.431442 0.145537 0.028237 -0.322391
    37 1.719577 0.000001 -0.000001 0.003803 -0.024725 -0.306222
    38 1.209183 0.000002 0.000002 0.003811 -0.024727 -0.306152
    39 3.859863 -0.137947 1.332467 0.606556 0.043934 -0.315995
    40 1.719430 0.000001 0.000001 0.012969 -0.087478 -0.294877
    41 1.099662 -0.000002 0.000000 0.012967 -0.087471 -0.294804
    42 0.806048 -0.348922 1.321258 -1.404042 -0.282277 -0.427145
    43 1.789783 -0.000001 0.000001 -0.000023 -0.000247 0.260043
    44 1.206999 -0.000002 0.000001 -0.000046 -0.000300 0.303734
    45 -3.890451 0.000006 0.000006 -1.521046 -0.518489 -1.809083
    46 17.848169 -0.000002 0.000001 0.000000 0.000000 1.115604
    47 16.525253 0.000000 0.000000 0.718939 0.267690 -1.500372
    48 6.879453 -0.000001 0.000001 -0.081333 -0.002951 -0.584373
    49 3.890451 -0.000006 -0.000002 -2.362534 -0.913764 -0.608193
    50 17.848173 0.000000 0.000001 -0.000001 0.000000 1.473516
    51 16.525251 0.000000 0.000000 -0.063478 0.203750 -1.499832
    52 6.879455 -0.000001 0.000000 -0.007300 -0.001070 -0.584369
time 18
    0 32.623647 -5.500163 28.957249 1.731556 0.172626 -3.721676
    1 -0.191407 3.341225 -2.981901 1.570796 0.008424 1.629611
    2 4.018331 0.000003 0.000000 -0.236084 0.011541 0.167052
    3 3.518569 0.000003 0.000000 -0.298525 -0.188559 0.399142
    4 8.942646 0.000000 0.000000 0.118864 -0.011476 0.270777
    5 3.307272 0.000001 -0.000001 3.141590 0.000000 0.400472
    6 3.593712 0.000001 0.000000 1.115134 -0.118701 0.647537
    7 2.033356 1.000769 -1.937610 -2.479128 1.099729 2.081376
    8 6.028143 -0.000004 -0.000001 -0.024645 1.432877 -1.964943
    9 11.692555 -0.000003 0.000006 0.000009 0.000000 -1.403600
    10 11.481702 -0.000002 0.000000 -0.930195 0.232232 0.381356
    11 3.859675 -0.132568 1.193109 0.630257 0.016738 -0.184533
    12 1.312561 0.000002 -0.000001 0.010745 -0.071439 -0.299033
    13 0.729365 -0.000001 -0.000001 0.010739 -0.071426 -0.298974
    14 3.942295 0.050329 0.431043 0.097566 0.063416 -0.321393
    15 1.539100 -0.000001 -0.000002 0.003678 -0.023911 -0.306215
    16 1.196324 0.000000 -0.000001 0.003690 -0.023918 -0.306477
    17 3.883660 -0.050327 -0.431045 -0.145111 -0.030872 -0.322137
    18 1.719577 -0.000003 0.000002 -0.003417 0.022226 -0.306430
    19 1.209185 0.000001 0.000001 -0.003428 0.022218 -0.306364
    20 3.859830 -0.148935 -1.331282 -0.606290 -0.046508 -0.315611
    21 1.719428 0.000004 -0.000001 -0.012656 0.085112 -0.295535
    22 1.099665 -0.000001 0.000001 -0.012645 0.085106 -0.295456
    23 0.806019 -0.359833 -1.318334 1.401903 0.278814 -0.429220
    24 1.789780 -0.000003 0.000000 0.000207 0.001718 0.260034
    25 1.207002 0.000001 -0.000001 0.000291 0.001995 0.303707
    26 2.033350 1.000763 1.937660 4.630766 -1.481573 -0.092593
    27 6.028143 -0.000001 0.000000 -3.036136 -0.647790 0.094854
    28 11.692554 0.000002 0.000000 -0.000009 0.000000 -1.116248
    29 11.481676 0.000000 -0.000035 0.846557 0.095611 0.064636
    30 3.859707 -0.142406 -1.191974 -0.630883 -0.018260 -0.184354
    31 1.312560 0.000003 0.000000 -0.010424 0.069213 -0.299526
    32 0.729364 -0.000001 -0.000001 -0.010419 0.069213 -0.299486
    33 3.942328 0.046770 -0.431442 -0.097259 -0.066031 -0.320850
    34 1.539093 0.000003 0.000000 -0.003285 0.021421 -0.306409
    35 1.196322 0.000000 0.000000 -0.003306 0.021436 -0.306681
    36 3.883688 -0.046772 0.431442 0.145537 0.028237 -0.322391
    37 1.719577 0.000001 -0.000001 0.003803 -0.024725 -0.306222
    38 1.209183 0.000002 0.000002 0.003811 -0.024727 -0.306152
    39 3.859863 -0.137947 1.332467 0.606556 0.043934 -0.315995
    40 1.719430 0.000001 0.000001 0.012969 -0.087478 -0.294877
    41 1.099662 -0.000002 0.000000 0.012967 -0.087471 -0.294804
    42 0.806048 -0.348922 1.321258 -1.404042 -0.282277 -0.427145
    43 1.789783 -0.000001 0.000001 -0.000023 -0.000247 0.260043
    44 1.206999 -0.000002 0.000001 -0.000046 -0.000300 0.303734
    45 -3.890451 0.000006 0.000006 -1.521046 -0.518489 -1.809083
    46 17.848169 -0.000002 0.000001 0.000000 0.000000 1.115604
    47 16.525253 0.000000 0.000000 0.718939 0.267690 -1.500372
    48 6.879453 -0.000001 0.000001 -0.081333 -0.002951 -0.584373
    49 3.890451 -0.000006 -0.000002 -2.362534 -0.913764 -0.608193
    50 17.848173 0.000000 0.000001 -0.000001 0.000000 1.473516
    51 16.525251 0.000000 0.000000 -0.063478 0.203750 -1.499832
    52 6.879455 -0.000001 0.000000 -0.007300 -0.001070 -0.584369
end
