version 1
nodes
  0 "ValveBiped.Bip01_Pelvis" -1
  1 "ValveBiped.Bip01_Spine" 0
  2 "ValveBiped.Bip01_Spine1" 1
  3 "ValveBiped.Bip01_Spine2" 2
  4 "ValveBiped.Bip01_Spine4" 3
  5 "ValveBiped.Bip01_Neck1" 4
  6 "ValveBiped.Bip01_Head1" 5
  7 "ValveBiped.Bip01_R_Clavicle" 4
  8 "ValveBiped.Bip01_R_UpperArm" 7
  9 "ValveBiped.Bip01_R_Forearm" 8
  10 "ValveBiped.Bip01_R_Hand" 9
  11 "ValveBiped.Bip01_R_Finger4" 10
  12 "ValveBiped.Bip01_R_Finger41" 11
  13 "ValveBiped.Bip01_R_Finger42" 12
  14 "ValveBiped.Bip01_R_Finger3" 10
  15 "ValveBiped.Bip01_R_Finger31" 14
  16 "ValveBiped.Bip01_R_Finger32" 15
  17 "ValveBiped.Bip01_R_Finger2" 10
  18 "ValveBiped.Bip01_R_Finger21" 17
  19 "ValveBiped.Bip01_R_Finger22" 18
  20 "ValveBiped.Bip01_R_Finger1" 10
  21 "ValveBiped.Bip01_R_Finger11" 20
  22 "ValveBiped.Bip01_R_Finger12" 21
  23 "ValveBiped.Bip01_R_Finger0" 10
  24 "ValveBiped.Bip01_R_Finger01" 23
  25 "ValveBiped.Bip01_R_Finger02" 24
  26 "ValveBiped.Bip01_L_Clavicle" 4
  27 "ValveBiped.Bip01_L_UpperArm" 26
  28 "ValveBiped.Bip01_L_Forearm" 27
  29 "ValveBiped.Bip01_L_Hand" 28
  30 "ValveBiped.Bip01_L_Finger4" 29
  31 "ValveBiped.Bip01_L_Finger41" 30
  32 "ValveBiped.Bip01_L_Finger42" 31
  33 "ValveBiped.Bip01_L_Finger3" 29
  34 "ValveBiped.Bip01_L_Finger31" 33
  35 "ValveBiped.Bip01_L_Finger32" 34
  36 "ValveBiped.Bip01_L_Finger2" 29
  37 "ValveBiped.Bip01_L_Finger21" 36
  38 "ValveBiped.Bip01_L_Finger22" 37
  39 "ValveBiped.Bip01_L_Finger1" 29
  40 "ValveBiped.Bip01_L_Finger11" 39
  41 "ValveBiped.Bip01_L_Finger12" 40
  42 "ValveBiped.Bip01_L_Finger0" 29
  43 "ValveBiped.Bip01_L_Finger01" 42
  44 "ValveBiped.Bip01_L_Finger02" 43
  45 "ValveBiped.Bip01_R_Thigh" 0
  46 "ValveBiped.Bip01_R_Calf" 45
  47 "ValveBiped.Bip01_R_Foot" 46
  48 "ValveBiped.Bip01_R_Toe0" 47
  49 "ValveBiped.Bip01_L_Thigh" 0
  50 "ValveBiped.Bip01_L_Calf" 49
  51 "ValveBiped.Bip01_L_Foot" 50
  52 "ValveBiped.Bip01_L_Toe0" 51
end
skeleton
time 0
    0 0.763300 2.367265 35.410571 1.645817 0.219341 0.265186
    1 -0.324224 3.329506 -2.981901 1.570796 0.086294 1.668938
    2 4.018331 0.000000 0.000000 0.003811 -0.117737 -0.029445
    3 3.518565 0.000000 0.000001 -0.101909 -0.052102 0.100106
    4 8.942640 0.000000 0.000000 -0.135521 -0.126337 0.194939
    5 3.307271 -0.000001 -0.000001 3.141590 0.000000 0.400478
    6 3.593716 -0.000003 0.000001 0.000000 -0.000001 0.406575
    7 2.033350 1.000771 -1.937608 -0.940411 1.168098 3.716407
    8 6.028142 -0.000005 -0.000001 0.815534 0.353718 -1.041022
    9 11.692546 0.000002 -0.000002 0.000009 0.000000 -1.938210
    10 11.481696 0.000003 0.000002 -1.497422 0.149516 -0.148682
    11 3.859672 -0.132573 1.193109 0.498198 0.156933 -0.982260
    12 1.312562 0.000000 0.000001 -0.000005 -0.456973 -1.112927
    13 0.729365 0.000000 0.000000 0.000001 -0.000010 -0.672028
    14 3.942294 0.050326 0.431044 0.160533 0.000246 -0.910148
    15 1.539096 0.000000 -0.000005 -0.000001 -0.214753 -1.281129
    16 1.196323 0.000001 0.000001 -0.000001 -0.000008 -0.797295
    17 3.883659 -0.050329 -0.431043 -0.084948 -0.177600 -0.644830
    18 1.719575 -0.000003 0.000002 -0.000001 -0.031645 -1.425491
    19 1.209186 -0.000001 -0.000003 -0.003428 0.022218 -0.934675
    20 3.859828 -0.148938 -1.331281 -0.321536 -0.122634 -0.062447
    21 1.719426 0.000002 0.000000 0.000000 0.126411 -0.583364
    22 1.099666 -0.000003 0.000003 -0.051331 0.069071 -1.042812
    23 0.806018 -0.359837 -1.318331 1.282836 0.248639 -0.715189
    24 1.789778 0.000002 0.000002 0.000003 -0.010075 0.141901
    25 1.207002 -0.000001 -0.000002 0.000291 0.002007 1.187223
    26 2.033344 1.000766 1.937663 2.130986 -1.233473 2.383239
    27 6.028144 0.000001 0.000001 -1.666682 -0.622853 -0.440723
    28 11.692549 0.000002 0.000001 -0.000009 0.000000 -1.899335
    29 11.481673 0.000001 -0.000037 1.123464 -0.287726 0.440829
    30 3.859704 -0.142409 -1.191975 -0.463424 -0.186140 -1.428480
    31 1.312559 0.000001 0.000000 -0.000001 0.066181 -0.827605
    32 0.729362 0.000000 0.000000 -0.000004 0.000014 -0.594022
    33 3.942324 0.046770 -0.431444 -0.161988 -0.106335 -1.434461
    34 1.539093 0.000003 0.000000 -0.000001 0.006381 -0.777630
    35 1.196321 0.000001 0.000001 0.000002 0.000007 -1.170538
    36 3.883686 -0.046772 0.431443 0.049936 -0.030476 -1.249510
    37 1.719575 0.000002 -0.000002 0.000004 0.033580 -1.110921
    38 1.209178 0.000004 0.000000 0.000000 0.000009 -1.111180
    39 3.859863 -0.137948 1.332467 0.283499 0.115913 -1.212794
    40 1.719430 -0.000003 0.000001 0.000002 -0.152207 -1.133729
    41 1.099663 0.000004 -0.000001 0.000000 0.000016 -1.021260
    42 0.806049 -0.348922 1.321260 -1.241125 -0.251344 -0.849454
    43 1.789784 -0.000001 0.000006 0.000001 -0.036069 0.257589
    44 1.206999 -0.000001 0.000004 0.000002 0.000011 0.303734
    45 -3.890453 0.000005 0.000007 -0.906900 -0.225986 -1.735106
    46 17.848175 -0.000001 -0.000002 0.000000 0.000000 0.539338
    47 16.525255 -0.000002 0.000001 0.185867 -0.112551 -1.183019
    48 6.879457 -0.000001 -0.000001 -0.081333 -0.002951 -0.584373
    49 3.890451 -0.000008 -0.000003 -1.643260 -0.524877 -1.165822
    50 17.848173 0.000000 0.000001 -0.000001 0.000000 0.832818
    51 16.525251 -0.000002 0.000000 -0.045002 0.030599 -1.348403
    52 6.879455 0.000001 0.000000 -0.007300 -0.002952 -0.584369
time 1
    0 1.165656 2.156321 35.316818 1.650941 0.214566 0.295022
    1 -0.324224 3.329506 -2.981901 1.570796 0.085313 1.668441
    2 4.018331 0.000000 0.000000 0.000839 -0.118504 -0.026988
    3 3.518565 0.000000 0.000001 -0.104588 -0.056237 0.103909
    4 8.942640 0.000000 0.000000 -0.132285 -0.124862 0.195958
    5 3.307271 -0.000001 -0.000001 3.141590 0.000000 0.400478
    6 3.593716 -0.000003 0.000001 0.085699 0.019122 0.395507
    7 2.033350 1.000771 -1.937608 -0.955018 1.173132 3.700413
    8 6.028142 -0.000005 -0.000001 0.820945 0.357823 -1.055096
    9 11.692546 0.000002 -0.000002 0.000009 0.000000 -1.933172
    10 11.481696 0.000003 0.000002 -1.494295 0.140435 -0.142965
    11 3.859672 -0.132573 1.193109 0.494419 0.159642 -0.993121
    12 1.312562 0.000000 0.000001 -0.000125 -0.462107 -1.123778
    13 0.729365 0.000000 0.000000 -0.000131 0.000949 -0.677010
    14 3.942294 0.050326 0.431044 0.161036 -0.000425 -0.918043
    15 1.539096 0.000000 -0.000005 -0.000037 -0.217306 -1.294146
    16 1.196323 0.000001 0.000001 -0.000037 0.000303 -0.803824
    17 3.883659 -0.050329 -0.431043 -0.084097 -0.179541 -0.649115
    18 1.719575 -0.000003 0.000002 0.000035 -0.032364 -1.440431
    19 1.209186 -0.000001 -0.000003 -0.003428 0.022218 -0.943048
    20 3.859828 -0.148938 -1.331281 -0.317641 -0.123712 -0.059142
    21 1.719426 0.000002 0.000000 0.000168 0.126962 -0.587193
    22 1.099666 -0.000003 0.000003 -0.051846 0.068867 -1.052786
    23 0.806018 -0.359837 -1.318331 1.281256 0.248084 -0.718969
    24 1.789778 0.000002 0.000002 0.000003 -0.010243 0.140332
    25 1.207002 -0.000001 -0.000002 0.000291 0.001995 1.199030
    26 2.033344 1.000766 1.937663 2.133476 -1.238656 2.381515
    27 6.028144 0.000001 0.000001 -1.681784 -0.630823 -0.441377
    28 11.692549 0.000002 0.000001 -0.000009 0.000000 -1.892267
    29 11.481673 0.000001 -0.000037 1.131828 -0.276393 0.440608
    30 3.859704 -0.142409 -1.191975 -0.456229 -0.188777 -1.445683
    31 1.312559 0.000001 0.000000 0.000128 0.066145 -0.834626
    32 0.729362 0.000000 0.000000 0.000128 -0.000909 -0.597914
    33 3.942324 0.046770 -0.431444 -0.161497 -0.107030 -1.449453
    34 1.539093 0.000003 0.000000 0.000035 0.006177 -0.783910
    35 1.196321 0.000001 0.000001 0.000026 -0.000280 -1.182069
    36 3.883686 -0.046772 0.431443 0.048270 -0.031590 -1.261799
    37 1.719575 0.000002 -0.000002 -0.000044 0.034359 -1.121628
    38 1.209178 0.000004 0.000000 -0.000048 0.000345 -1.121913
    39 3.859863 -0.137948 1.332467 0.277483 0.116213 -1.224799
    40 1.719430 -0.000003 0.000001 -0.000166 -0.153070 -1.144901
    41 1.099663 0.000004 -0.000001 -0.000168 0.001179 -1.030951
    42 0.806049 -0.348922 1.321260 -1.238855 -0.250578 -0.855043
    43 1.789784 -0.000001 0.000006 0.000001 -0.036549 0.257540
    44 1.206999 -0.000001 0.000004 0.000002 0.000023 0.303734
    45 -3.890453 0.000005 0.000007 -0.873621 -0.231089 -1.749638
    46 17.848175 -0.000001 -0.000002 0.000000 0.000000 0.566237
    47 16.525255 -0.000002 0.000001 0.165806 -0.141099 -1.197021
    48 6.879457 -0.000001 -0.000001 -0.081333 -0.002951 -0.584373
    49 3.890451 -0.000008 -0.000003 -1.655721 -0.540196 -1.174413
    50 17.848173 0.000000 0.000001 -0.000001 0.000000 0.849939
    51 16.525251 -0.000002 0.000000 -0.034521 0.031713 -1.357814
    52 6.879455 0.000001 0.000000 -0.007300 -0.002928 -0.584369
time 2
    0 2.278971 1.554740 35.062904 1.664072 0.201032 0.378830
    1 -0.320317 3.333413 -2.981901 1.570796 0.082521 1.666999
    2 4.018331 0.000000 0.000000 -0.007550 -0.119714 -0.019982
    3 3.518565 0.000000 0.000001 -0.112055 -0.066975 0.114674
    4 8.942640 0.000000 0.000000 -0.123177 -0.120740 0.198834
    5 3.307271 -0.000001 -0.000001 3.141590 0.000000 0.400478
    6 3.593716 -0.000003 0.000001 0.300361 0.064334 0.377360
    7 2.033350 1.000771 -1.937608 -0.998076 1.186872 3.653484
    8 6.028142 -0.000005 -0.000001 0.835850 0.369853 -1.094987
    9 11.692546 0.000002 -0.000002 0.000009 0.000000 -1.919788
    10 11.481696 0.000003 0.000002 -1.488109 0.114410 -0.126274
    11 3.859672 -0.132573 1.193109 0.485867 0.165634 -1.017029
    12 1.312562 0.000000 0.000001 -0.000448 -0.473426 -1.147676
    13 0.729365 0.000000 0.000000 -0.000454 0.003034 -0.687930
    14 3.942294 0.050326 0.431044 0.162127 -0.001876 -0.935463
    15 1.539096 0.000000 -0.000005 -0.000145 -0.222903 -1.322736
    16 1.196323 0.000001 0.000001 -0.000145 0.001010 -0.818223
    17 3.883659 -0.050329 -0.431043 -0.082204 -0.183808 -0.658670
    18 1.719575 -0.000003 0.000002 0.000143 -0.033946 -1.473236
    19 1.209186 -0.000001 -0.000003 -0.003428 0.022218 -0.961486
    20 3.859828 -0.148938 -1.331281 -0.309072 -0.126097 -0.051831
    21 1.719426 0.000002 0.000000 0.000527 0.128173 -0.595663
    22 1.099666 -0.000003 0.000003 -0.052985 0.068388 -1.074702
    23 0.806018 -0.359837 -1.318331 1.277765 0.246872 -0.727280
    24 1.789778 0.000002 0.000002 0.000003 -0.010578 0.136868
    25 1.207002 -0.000001 -0.000002 0.000291 0.001995 1.224924
    26 2.033344 1.000766 1.937663 2.140850 -1.253183 2.376054
    27 6.028144 0.000001 0.000001 -1.725463 -0.652826 -0.441564
    28 11.692549 0.000002 0.000001 -0.000009 0.000000 -1.872353
    29 11.481673 0.000001 -0.000037 1.153372 -0.245513 0.440240
    30 3.859704 -0.142409 -1.191975 -0.439910 -0.194397 -1.483613
    31 1.312559 0.000001 0.000000 0.000436 0.066049 -0.850121
    32 0.729362 0.000000 0.000000 0.000439 -0.002946 -0.606576
    33 3.942324 0.046770 -0.431444 -0.160298 -0.108528 -1.482432
    34 1.539093 0.000003 0.000000 0.000131 0.005745 -0.797742
    35 1.196321 0.000001 0.000001 0.000122 -0.000903 -1.207412
    36 3.883686 -0.046772 0.431443 0.044579 -0.034071 -1.288849
    37 1.719575 0.000002 -0.000002 -0.000152 0.036073 -1.145236
    38 1.209178 0.000004 0.000000 -0.000156 0.001064 -1.145555
    39 3.859863 -0.137948 1.332467 0.264108 0.116764 -1.251206
    40 1.719430 -0.000003 0.000001 -0.000549 -0.154963 -1.169507
    41 1.099663 0.000004 -0.000001 -0.000539 0.003720 -1.052278
    42 0.806049 -0.348922 1.321260 -1.233949 -0.248868 -0.867250
    43 1.789784 -0.000001 0.000006 0.000001 -0.037591 0.257466
    44 1.206999 -0.000001 0.000004 0.000002 0.000023 0.303734
    45 -3.890453 0.000005 0.000007 -0.787720 -0.241887 -1.788057
    46 17.848175 -0.000001 -0.000002 0.000000 0.000000 0.636371
    47 16.525255 -0.000002 0.000001 0.112426 -0.214119 -1.231221
    48 6.879457 -0.000001 -0.000001 -0.081333 -0.002951 -0.584373
    49 3.890451 -0.000008 -0.000003 -1.683135 -0.577685 -1.199421
    50 17.848173 0.000000 0.000001 -0.000001 0.000000 0.893494
    51 16.525251 -0.000002 0.000000 -0.010584 0.031361 -1.384108
    52 6.879455 0.000001 0.000000 -0.007300 -0.002868 -0.584369
time 3
    0 3.970429 0.625024 34.668361 1.680973 0.179895 0.507488
    1 -0.312505 3.333413 -2.981901 1.570796 0.078206 1.664861
    2 4.018331 0.000000 0.000000 -0.020602 -0.119846 -0.009158
    3 3.518565 0.000000 0.000001 -0.123447 -0.081788 0.131311
    4 8.942640 0.000000 0.000000 -0.109095 -0.114364 0.203244
    5 3.307271 -0.000001 -0.000001 3.141590 0.000000 0.400478
    6 3.593716 -0.000003 0.000001 0.581080 0.114043 0.373627
    7 2.033350 1.000771 -1.937608 -1.071111 1.206512 3.574472
    8 6.028142 -0.000005 -0.000001 0.857498 0.389329 -1.157992
    9 11.692546 0.000002 -0.000002 0.000009 0.000000 -1.900690
    10 11.481696 0.000003 0.000002 -1.485382 0.071801 -0.098763
    11 3.859672 -0.132573 1.193109 0.477067 0.171650 -1.041006
    12 1.312562 0.000000 0.000001 -0.000760 -0.484730 -1.171543
    13 0.729365 0.000000 0.000000 -0.000766 0.005132 -0.698884
    14 3.942294 0.050326 0.431044 0.163158 -0.003314 -0.952883
    15 1.539096 0.000000 -0.000005 -0.000253 -0.228500 -1.351360
    16 1.196323 0.000001 0.000001 -0.000253 0.001717 -0.832621
    17 3.883659 -0.050329 -0.431043 -0.080298 -0.188062 -0.668175
    18 1.719575 -0.000003 0.000002 0.000239 -0.035528 -1.506076
    19 1.209186 -0.000001 -0.000003 -0.003428 0.022218 -0.979923
    20 3.859828 -0.148938 -1.331281 -0.300491 -0.128482 -0.044520
    21 1.719426 0.000002 0.000000 0.000911 0.129383 -0.604100
    22 1.099666 -0.000003 0.000003 -0.054112 0.067920 -1.096652
    23 0.806018 -0.359837 -1.318331 1.274273 0.245634 -0.735567
    24 1.789778 0.000002 0.000002 -0.000009 -0.010926 0.133404
    25 1.207002 -0.000001 -0.000002 0.000291 0.001995 1.250845
    26 2.033344 1.000766 1.937663 2.153395 -1.275602 2.366472
    27 6.028144 0.000001 0.000001 -1.796096 -0.686368 -0.435957
    28 11.692549 0.000002 0.000001 -0.000009 0.000000 -1.841343
    29 11.481673 0.000001 -0.000037 1.181465 -0.201033 0.440755
    30 3.859704 -0.142409 -1.191975 -0.422977 -0.199754 -1.521571
    31 1.312559 0.000001 0.000000 0.000745 0.065966 -0.865616
    32 0.729362 0.000000 0.000000 0.000739 -0.004971 -0.615203
    33 3.942324 0.046770 -0.431444 -0.158932 -0.109978 -1.515410
    34 1.539093 0.000003 0.000000 0.000227 0.005302 -0.811574
    35 1.196321 0.000001 0.000001 0.000218 -0.001539 -1.232725
    36 3.883686 -0.046772 0.431443 0.040864 -0.036612 -1.315839
    37 1.719575 0.000002 -0.000002 -0.000260 0.037787 -1.168843
    38 1.209178 0.000004 0.000000 -0.000264 0.001795 -1.169161
    39 3.859863 -0.137948 1.332467 0.250554 0.117147 -1.277580
    40 1.719430 -0.000003 0.000001 -0.000933 -0.156869 -1.194114
    41 1.099663 0.000004 -0.000001 -0.000935 0.006284 -1.073569
    42 0.806049 -0.348922 1.321260 -1.228970 -0.247082 -0.879456
    43 1.789784 -0.000001 0.000006 0.000001 -0.038658 0.257391
    44 1.206999 -0.000001 0.000004 0.000002 0.000035 0.303734
    45 -3.890453 0.000005 0.000007 -0.679098 -0.252594 -1.840390
    46 17.848175 -0.000001 -0.000002 0.000000 0.000000 0.731210
    47 16.525255 -0.000002 0.000001 0.039733 -0.305878 -1.272279
    48 6.879457 -0.000001 -0.000001 -0.081333 -0.002951 -0.584373
    49 3.890451 -0.000008 -0.000003 -1.708823 -0.621830 -1.240561
    50 17.848173 0.000000 0.000001 -0.000001 0.000000 0.951015
    51 16.525251 -0.000002 0.000000 0.014034 0.024037 -1.425299
    52 6.879455 0.000001 0.000000 -0.007300 -0.002760 -0.584369
time 4
    0 6.111119 -0.578138 34.172252 1.696578 0.153283 0.672348
    1 -0.304692 3.333413 -2.981901 1.570796 0.072639 1.662077
    2 4.018331 0.000000 0.000000 -0.037536 -0.117245 0.004821
    3 3.518565 0.000000 0.000001 -0.137970 -0.098147 0.152755
    4 8.942640 0.000000 0.000000 -0.090950 -0.106155 0.208889
    5 3.307271 -0.000001 -0.000001 3.141590 0.000000 0.400478
    6 3.593716 -0.000003 0.000001 0.863943 0.146459 0.392000
    7 2.033350 1.000771 -1.937608 -1.177085 1.228421 3.460981
    8 6.028142 -0.000005 -0.000001 0.882428 0.416013 -1.241968
    9 11.692546 0.000002 -0.000002 0.000009 0.000000 -1.877982
    10 11.481696 0.000003 0.000002 -1.493497 0.014223 -0.060048
    11 3.859672 -0.132573 1.193109 0.472957 0.174395 -1.051936
    12 1.312562 0.000000 0.000001 -0.000904 -0.489864 -1.182395
    13 0.729365 0.000000 0.000000 -0.000910 0.006078 -0.703867
    14 3.942294 0.050326 0.431044 0.163613 -0.003961 -0.960830
    15 1.539096 0.000000 -0.000005 -0.000301 -0.231040 -1.364377
    16 1.196323 0.000001 0.000001 -0.000301 0.002029 -0.839185
    17 3.883659 -0.050329 -0.431043 -0.079435 -0.190004 -0.672509
    18 1.719575 -0.000003 0.000002 0.000287 -0.036247 -1.521016
    19 1.209186 -0.000001 -0.000003 -0.003428 0.022218 -0.988296
    20 3.859828 -0.148938 -1.331281 -0.296584 -0.129573 -0.041215
    21 1.719426 0.000002 0.000000 0.001078 0.129934 -0.607929
    22 1.099666 -0.000003 0.000003 -0.054627 0.067704 -1.106593
    23 0.806018 -0.359837 -1.318331 1.272693 0.245079 -0.739347
    24 1.789778 0.000002 0.000002 -0.000009 -0.011094 0.131822
    25 1.207002 -0.000001 -0.000002 0.000291 0.002007 1.262625
    26 2.033344 1.000766 1.937663 2.172164 -1.304420 2.351143
    27 6.028144 0.000001 0.000001 -1.892726 -0.727783 -0.418765
    28 11.692549 0.000002 0.000001 -0.000009 0.000000 -1.800528
    29 11.481673 0.000001 -0.000037 1.210426 -0.148304 0.442302
    30 3.859704 -0.142409 -1.191975 -0.415066 -0.202079 -1.538884
    31 1.312559 0.000001 0.000000 0.000887 0.065930 -0.872677
    32 0.729362 0.000000 0.000000 0.000883 -0.005894 -0.619130
    33 3.942324 0.046770 -0.431444 -0.158249 -0.110613 -1.530402
    34 1.539093 0.000003 0.000000 0.000275 0.005098 -0.817854
    35 1.196321 0.000001 0.000001 0.000266 -0.001814 -1.244256
    36 3.883686 -0.046772 0.431443 0.039150 -0.037786 -1.328128
    37 1.719575 0.000002 -0.000002 -0.000320 0.038566 -1.179587
    38 1.209178 0.000004 0.000000 -0.000324 0.002118 -1.179894
    39 3.859863 -0.137948 1.332467 0.244334 0.117279 -1.289554
    40 1.719430 -0.000003 0.000001 -0.001100 -0.157732 -1.205286
    41 1.099663 0.000004 -0.000001 -0.001102 0.007459 -1.083260
    42 0.806049 -0.348922 1.321260 -1.226700 -0.246265 -0.884971
    43 1.789784 -0.000001 0.000006 0.000001 -0.039125 0.257366
    44 1.206999 -0.000001 0.000004 0.000002 0.000047 0.303734
    45 -3.890453 0.000005 0.000007 -0.587115 -0.268084 -1.893341
    46 17.848175 -0.000001 -0.000002 0.000000 0.000000 0.835313
    47 16.525255 -0.000002 0.000001 -0.031165 -0.381565 -1.314284
    48 6.879457 -0.000001 -0.000001 -0.081333 -0.002951 -0.584373
    49 3.890451 -0.000008 -0.000003 -1.715341 -0.659759 -1.295541
    50 17.848173 0.000000 0.000001 -0.000001 0.000000 1.013643
    51 16.525251 -0.000002 0.000000 0.025296 0.005425 -1.478645
    52 6.879455 0.000001 0.000000 -0.007300 -0.002628 -0.584369
time 5
    0 8.564319 -2.011775 33.590203 1.707059 0.124877 0.865049
    1 -0.292973 3.333413 -2.981901 1.570796 0.066107 1.658746
    2 4.018331 0.000000 0.000000 -0.057526 -0.110390 0.021273
    3 3.518565 0.000000 0.000001 -0.154747 -0.113547 0.177899
    4 8.942640 0.000000 0.000000 -0.069617 -0.096531 0.215457
    5 3.307271 -0.000001 -0.000001 3.141590 0.000000 0.400478
    6 3.593716 -0.000003 0.000001 1.080881 0.150049 0.424143
    7 2.033350 1.000771 -1.937608 -1.318479 1.248309 3.310905
    8 6.028142 -0.000005 -0.000001 0.903011 0.450908 -1.343932
    9 11.692546 0.000002 -0.000002 0.000009 0.000000 -1.852342
    10 11.481696 0.000003 0.000002 -1.518642 -0.052108 -0.009400
    11 3.859672 -0.132573 1.193109 0.478695 0.170560 -1.036634
    12 1.312562 0.000000 0.000001 -0.000700 -0.482673 -1.167185
    13 0.729365 0.000000 0.000000 -0.000706 0.004760 -0.696905
    14 3.942294 0.050326 0.431044 0.162978 -0.003050 -0.949725
    15 1.539096 0.000000 -0.000005 -0.000229 -0.227481 -1.346112
    16 1.196323 0.000001 0.000001 -0.000229 0.001586 -0.830009
    17 3.883659 -0.050329 -0.431043 -0.080646 -0.187283 -0.666451
    18 1.719575 -0.000003 0.000002 0.000227 -0.035240 -1.500121
    19 1.209186 -0.000001 -0.000003 -0.003428 0.022218 -0.976582
    20 3.859828 -0.148938 -1.331281 -0.302049 -0.128039 -0.045847
    21 1.719426 0.000002 0.000000 0.000827 0.129167 -0.602574
    22 1.099666 -0.000003 0.000003 -0.053908 0.068004 -1.092649
    23 0.806018 -0.359837 -1.318331 1.274898 0.245861 -0.734065
    24 1.789778 0.000002 0.000002 -0.000009 -0.010866 0.134028
    25 1.207002 -0.000001 -0.000002 0.000291 0.001995 1.246122
    26 2.033344 1.000766 1.937663 2.199073 -1.338265 2.327765
    27 6.028144 0.000001 0.000001 -2.015449 -0.773109 -0.391388
    28 11.692549 0.000002 0.000001 -0.000009 0.000000 -1.750896
    29 11.481673 0.000001 -0.000037 1.241044 -0.088774 0.443038
    30 3.859704 -0.142409 -1.191975 -0.426106 -0.198796 -1.514662
    31 1.312559 0.000001 0.000000 0.000694 0.065978 -0.862792
    32 0.729362 0.000000 0.000000 0.000691 -0.004600 -0.613625
    33 3.942324 0.046770 -0.431444 -0.159196 -0.109715 -1.509423
    34 1.539093 0.000003 0.000000 0.000215 0.005374 -0.809032
    35 1.196321 0.000001 0.000001 0.000206 -0.001419 -1.228131
    36 3.883686 -0.046772 0.431443 0.041535 -0.036144 -1.310929
    37 1.719575 0.000002 -0.000002 -0.000248 0.037475 -1.164567
    38 1.209178 0.000004 0.000000 -0.000252 0.001663 -1.164846
    39 3.859863 -0.137948 1.332467 0.253034 0.117087 -1.272791
    40 1.719430 -0.000003 0.000001 -0.000861 -0.156521 -1.189624
    41 1.099663 0.000004 -0.000001 -0.000863 0.005829 -1.069714
    42 0.806049 -0.348922 1.321260 -1.229848 -0.247414 -0.877250
    43 1.789784 -0.000001 0.000006 0.000001 -0.038454 0.257416
    44 1.206999 -0.000001 0.000004 0.000002 0.000035 0.303734
    45 -3.890453 0.000005 0.000007 -0.574023 -0.315195 -1.929595
    46 17.848175 -0.000001 -0.000002 0.000000 0.000000 0.937791
    47 16.525255 -0.000002 0.000001 -0.056958 -0.387047 -1.366553
    48 6.879457 -0.000001 -0.000001 -0.081333 -0.002951 -0.584373
    49 3.890451 -0.000008 -0.000003 -1.691474 -0.685796 -1.358730
    50 17.848173 0.000000 0.000001 -0.000001 0.000000 1.077172
    51 16.525251 -0.000002 0.000000 0.012084 -0.026916 -1.537949
    52 6.879455 0.000001 0.000000 -0.007300 -0.002473 -0.584369
time 6
    0 11.201118 -3.613387 32.969090 1.710416 0.099482 1.077515
    1 -0.281254 3.333413 -2.981901 1.570796 0.058882 1.655067
    2 4.018331 0.000000 0.000000 -0.079805 -0.097662 0.039485
    3 3.518565 0.000000 0.000001 -0.172943 -0.125472 0.205680
    4 8.942640 0.000000 0.000000 -0.046020 -0.085877 0.222659
    5 3.307271 -0.000001 -0.000001 3.141590 0.000000 0.400478
    6 3.593716 -0.000003 0.000001 1.162817 0.126270 0.456383
    7 2.033350 1.000771 -1.937608 -1.492523 1.261554 3.127692
    8 6.028142 -0.000005 -0.000001 0.908157 0.496113 -1.457080
    9 11.692546 0.000002 -0.000002 0.000009 0.000000 -1.822190
    10 11.481696 0.000003 0.000002 -1.562546 -0.113898 0.051914
    11 3.859672 -0.132573 1.193109 0.498198 0.156933 -0.982260
    12 1.312562 0.000000 0.000001 -0.000005 -0.456973 -1.112927
    13 0.729365 0.000000 0.000000 0.000001 -0.000022 -0.672028
    14 3.942294 0.050326 0.431044 0.160533 0.000246 -0.910148
    15 1.539096 0.000000 -0.000005 -0.000001 -0.214753 -1.281129
    16 1.196323 0.000001 0.000001 -0.000001 -0.000008 -0.797295
    17 3.883659 -0.050329 -0.431043 -0.084948 -0.177600 -0.644830
    18 1.719575 -0.000003 0.000002 -0.000001 -0.031645 -1.425491
    19 1.209186 -0.000001 -0.000003 -0.003428 0.022218 -0.934675
    20 3.859828 -0.148938 -1.331281 -0.321536 -0.122634 -0.062447
    21 1.719426 0.000002 0.000000 0.000000 0.126411 -0.583364
    22 1.099666 -0.000003 0.000003 -0.051331 0.069071 -1.042812
    23 0.806018 -0.359837 -1.318331 1.282836 0.248639 -0.715189
    24 1.789778 0.000002 0.000002 0.000003 -0.010075 0.141901
    25 1.207002 -0.000001 -0.000002 0.000291 0.002007 1.187223
    26 2.033344 1.000766 1.937663 2.238623 -1.375564 2.291645
    27 6.028144 0.000001 0.000001 -2.163979 -0.823521 -0.368870
    28 11.692549 0.000002 0.000001 -0.000009 0.000000 -1.693664
    29 11.481673 0.000001 -0.000037 1.286972 -0.017279 0.440755
    30 3.859704 -0.142409 -1.191975 -0.463424 -0.186140 -1.428480
    31 1.312559 0.000001 0.000000 -0.000001 0.066181 -0.827605
    32 0.729362 0.000000 0.000000 -0.000004 0.000014 -0.594022
    33 3.942324 0.046770 -0.431444 -0.161988 -0.106335 -1.434486
    34 1.539093 0.000003 0.000000 -0.000001 0.006381 -0.777630
    35 1.196321 0.000001 0.000001 0.000002 0.000007 -1.170538
    36 3.883686 -0.046772 0.431443 0.049936 -0.030476 -1.249510
    37 1.719575 0.000002 -0.000002 0.000004 0.033580 -1.110921
    38 1.209178 0.000004 0.000000 0.000000 0.000009 -1.111180
    39 3.859863 -0.137948 1.332467 0.283499 0.115913 -1.212794
    40 1.719430 -0.000003 0.000001 0.000002 -0.152207 -1.133729
    41 1.099663 0.000004 -0.000001 0.000000 0.000016 -1.021260
    42 0.806049 -0.348922 1.321260 -1.241125 -0.251344 -0.849454
    43 1.789784 -0.000001 0.000006 0.000001 -0.036069 0.257589
    44 1.206999 -0.000001 0.000004 0.000002 0.000011 0.303734
    45 -3.890453 0.000005 0.000007 -0.771756 -0.450739 -1.901844
    46 17.848175 -0.000001 -0.000002 0.000000 0.000000 1.030354
    47 16.525255 -0.000002 0.000001 0.048181 -0.219358 -1.440723
    48 6.879457 -0.000001 -0.000001 -0.081333 -0.002951 -0.584373
    49 3.890451 -0.000008 -0.000003 -1.633867 -0.703072 -1.420583
    50 17.848173 0.000000 0.000001 -0.000001 0.000000 1.140701
    51 16.525251 -0.000002 0.000000 -0.030816 -0.073944 -1.592193
    52 6.879455 0.000001 0.000000 -0.007300 -0.002293 -0.584369
time 7
    0 14.064487 -5.312657 32.320633 1.707236 0.081721 1.302143
    1 -0.261722 3.337319 -2.981901 1.570796 0.051251 1.651288
    2 4.018331 0.000000 0.000000 -0.103475 -0.081148 0.058776
    3 3.518565 0.000000 0.000001 -0.191961 -0.134999 0.235005
    4 8.942640 0.000000 0.000000 -0.021056 -0.074635 0.230186
    5 3.307271 -0.000001 -0.000001 3.141590 0.000000 0.400478
    6 3.593716 -0.000003 0.000001 1.155074 0.089215 0.485694
    7 2.033350 1.000771 -1.937608 -1.686522 1.264277 2.923984
    8 6.028142 -0.000005 -0.000001 0.891921 0.554876 -1.570788
    9 11.692546 0.000002 -0.000002 0.000009 0.000000 -1.785421
    10 11.481696 0.000003 0.000002 -1.611972 -0.156966 0.123243
    11 3.859672 -0.132573 1.193109 0.518640 0.141653 -0.920575
    12 1.312562 0.000000 0.000001 0.000810 -0.427728 -1.051201
    13 0.729365 0.000000 0.000000 0.000804 -0.005439 -0.643738
    14 3.942294 0.050326 0.431044 0.157465 0.004081 -0.865098
    15 1.539096 0.000000 -0.000005 0.000275 -0.200276 -1.207184
    16 1.196323 0.000001 0.000001 0.000275 -0.001830 -0.760045
    17 3.883659 -0.050329 -0.431043 -0.089778 -0.166562 -0.620205
    18 1.719575 -0.000003 0.000002 -0.000241 -0.027558 -1.340607
    19 1.209186 -0.000001 -0.000003 -0.003428 0.022218 -0.887017
    20 3.859828 -0.148938 -1.331281 -0.343636 -0.116546 -0.081388
    21 1.719426 0.000002 0.000000 -0.000959 0.123283 -0.561526
    22 1.099666 -0.000003 0.000003 -0.048395 0.070293 -0.986136
    23 0.806018 -0.359837 -1.318331 1.291876 0.251669 -0.693673
    24 1.789778 0.000002 0.000002 0.000003 -0.009188 0.150866
    25 1.207002 -0.000001 -0.000002 0.000291 0.001995 1.120223
    26 2.033344 1.000766 1.937663 2.299528 -1.414591 2.233775
    27 6.028144 0.000001 0.000001 -2.338793 -0.884005 -0.346632
    28 11.692549 0.000002 0.000001 -0.000009 0.000000 -1.627843
    29 11.481673 0.000001 -0.000037 1.354916 0.063951 0.440608
    30 3.859704 -0.142409 -1.191975 -0.501838 -0.170236 -1.330938
    31 1.312559 0.000001 0.000000 -0.000773 0.066409 -0.787554
    32 0.729362 0.000000 0.000000 -0.000783 0.005240 -0.571648
    33 3.942324 0.046770 -0.431444 -0.164073 -0.102200 -1.349332
    34 1.539093 0.000003 0.000000 -0.000229 0.007519 -0.741891
    35 1.196321 0.000001 0.000001 -0.000238 0.001637 -1.105005
    36 3.883686 -0.046772 0.431443 0.059260 -0.024376 -1.179520
    37 1.719575 0.000002 -0.000002 0.000280 0.029158 -1.049856
    38 1.209178 0.000004 0.000000 0.000288 -0.001861 -1.050117
    39 3.859863 -0.137948 1.332467 0.317008 0.113624 -1.144494
    40 1.719430 -0.000003 0.000001 0.000973 -0.147293 -1.070095
    41 1.099663 0.000004 -0.000001 0.000983 -0.006623 -0.966157
    42 0.806049 -0.348922 1.321260 -1.253938 -0.255530 -0.817761
    43 1.789784 -0.000001 0.000006 0.000001 -0.033361 0.257763
    44 1.206999 -0.000001 0.000004 0.000002 -0.000013 0.303734
    45 -3.890453 0.000005 0.000007 -1.316978 -0.640866 -1.695451
    46 17.848175 -0.000001 -0.000002 0.000000 0.000000 1.105283
    47 16.525255 -0.000002 0.000001 0.328137 0.161050 -1.455245
    48 6.879457 -0.000001 -0.000001 -0.081333 -0.002951 -0.584373
    49 3.890451 -0.000008 -0.000003 -1.586516 -0.716188 -1.454277
    50 17.848173 0.000000 0.000001 -0.000001 0.000000 1.205132
    51 16.525251 -0.000002 0.000000 -0.083783 -0.109136 -1.635891
    52 6.879455 0.000001 0.000000 -0.007300 -0.002113 -0.584369
time 8
    0 17.189582 -7.047085 31.656550 1.700582 0.074969 1.530762
    1 -0.253909 3.337319 -2.981901 1.570796 0.043467 1.647311
    2 4.018331 0.000000 0.000000 -0.127564 -0.064309 0.078416
    3 3.518565 0.000000 0.000001 -0.211338 -0.144707 0.264855
    4 8.942640 0.000000 0.000000 0.004339 -0.063178 0.237748
    5 3.307271 -0.000001 -0.000001 3.141590 0.000000 0.400478
    6 3.593716 -0.000003 0.000001 1.147375 0.051485 0.515392
    7 2.033350 1.000771 -1.937608 -1.880234 1.254787 2.720754
    8 6.028142 -0.000005 -0.000001 0.850489 0.634785 -1.668371
    9 11.692546 0.000002 -0.000002 0.000009 0.000000 -1.740683
    10 11.481696 0.000003 0.000002 -1.639711 -0.166245 0.198141
    11 3.859672 -0.132573 1.193109 0.528737 0.133671 -0.887923
    12 1.312562 0.000000 0.000001 0.001241 -0.412194 -1.018403
    13 0.729365 0.000000 0.000000 0.001235 -0.008279 -0.628689
    14 3.942294 0.050326 0.431044 0.155703 0.006154 -0.841205
    15 1.539096 0.000000 -0.000005 0.000418 -0.192594 -1.167895
    16 1.196323 0.000001 0.000001 0.000418 -0.002789 -0.740286
    17 3.883659 -0.050329 -0.431043 -0.092343 -0.160689 -0.607153
    18 1.719575 -0.000003 0.000002 -0.000385 -0.025389 -1.295505
    19 1.209186 -0.000001 -0.000003 -0.003428 0.022218 -0.861686
    20 3.859828 -0.148938 -1.331281 -0.355321 -0.113334 -0.091484
    21 1.719426 0.000002 0.000000 -0.001450 0.121617 -0.549941
    22 1.099666 -0.000003 0.000003 -0.046837 0.070940 -0.956014
    23 0.806018 -0.359837 -1.318331 1.296690 0.253209 -0.682236
    24 1.789778 0.000002 0.000002 0.000015 -0.008709 0.155636
    25 1.207002 -0.000001 -0.000002 0.000291 0.002007 1.084581
    26 2.033344 1.000766 1.937663 2.401323 -1.453422 2.134420
    27 6.028144 0.000001 0.000001 -2.541324 -0.942191 -0.288795
    28 11.692549 0.000002 0.000001 -0.000009 0.000000 -1.552749
    29 11.481673 0.000001 -0.000037 1.425070 0.139831 0.446942
    30 3.859704 -0.142409 -1.191975 -0.520467 -0.161296 -1.279327
    31 1.312559 0.000001 0.000000 -0.001198 0.066541 -0.766253
    32 0.729362 0.000000 0.000000 -0.001203 0.008032 -0.559795
    33 3.942324 0.046770 -0.431444 -0.164697 -0.099923 -1.304107
    34 1.539093 0.000003 0.000000 -0.000373 0.008130 -0.722900
    35 1.196321 0.000001 0.000001 -0.000382 0.002500 -1.070200
    36 3.883686 -0.046772 0.431443 0.064126 -0.021284 -1.142324
    37 1.719575 0.000002 -0.000002 0.000423 0.026809 -1.017441
    38 1.209178 0.000004 0.000000 0.000419 -0.002867 -1.017699
    39 3.859863 -0.137948 1.332467 0.334266 0.112030 -1.108189
    40 1.719430 -0.000003 0.000001 0.001488 -0.144681 -1.036289
    41 1.099663 0.000004 -0.000001 0.001486 -0.010147 -0.936908
    42 0.806049 -0.348922 1.321260 -1.260748 -0.257622 -0.800921
    43 1.789784 -0.000001 0.000006 0.000001 -0.031911 0.257862
    44 1.206999 -0.000001 0.000004 0.000002 -0.000025 0.303734
    45 -3.890453 0.000005 0.000007 -1.754001 -0.705016 -1.503204
    46 17.848175 -0.000001 -0.000002 0.000000 0.000000 1.158838
    47 16.525255 -0.000002 0.000001 0.563361 0.386301 -1.380365
    48 6.879457 -0.000001 -0.000001 -0.081333 -0.002951 -0.584373
    49 3.890451 -0.000008 -0.000003 -1.592363 -0.731409 -1.433087
    50 17.848173 0.000000 0.000001 -0.000001 0.000000 1.269637
    51 16.525251 -0.000002 0.000000 -0.126366 -0.106383 -1.668948
    52 6.879455 0.000001 0.000000 -0.007300 -0.001921 -0.584369
time 9
    0 20.424056 -8.750262 31.004187 1.694458 0.079987 -4.527638
    1 -0.238284 3.337319 -2.981901 1.570796 0.035836 1.643483
    2 4.018331 0.000000 0.000000 -0.151222 -0.047795 0.097723
    3 3.518565 0.000000 0.000001 -0.230356 -0.154259 0.294137
    4 8.942640 0.000000 0.000000 0.029303 -0.051924 0.245106
    5 3.307271 -0.000001 -0.000001 3.141590 0.000000 0.400478
    6 3.593716 -0.000003 0.000001 1.139982 0.014394 0.544447
    7 2.033350 1.000771 -1.937608 -2.053324 1.234446 2.538594
    8 6.028142 -0.000005 -0.000001 0.777828 0.748396 -1.728581
    9 11.692546 0.000002 -0.000002 0.000009 0.000000 -1.686770
    10 11.481696 0.000003 0.000002 -1.611373 -0.130579 0.263791
    11 3.859672 -0.132573 1.193109 0.531579 0.131346 -0.878428
    12 1.312562 0.000000 0.000001 0.001361 -0.407629 -1.008740
    13 0.729365 0.000000 0.000000 0.001355 -0.009130 -0.624253
    14 3.942294 0.050326 0.431044 0.155176 0.006777 -0.834205
    15 1.539096 0.000000 -0.000005 0.000466 -0.190329 -1.156343
    16 1.196323 0.000001 0.000001 0.000466 -0.003076 -0.734444
    17 3.883659 -0.050329 -0.431043 -0.093086 -0.158964 -0.603312
    18 1.719575 -0.000003 0.000002 -0.000420 -0.024753 -1.282292
    19 1.209186 -0.000001 -0.000003 -0.003428 0.022218 -0.854244
    20 3.859828 -0.148938 -1.331281 -0.358760 -0.112387 -0.094450
    21 1.719426 0.000002 0.000000 -0.001618 0.121126 -0.546534
    22 1.099666 -0.000003 0.000003 -0.046382 0.071132 -0.947174
    23 0.806018 -0.359837 -1.318331 1.298124 0.253664 -0.678868
    24 1.789778 0.000002 0.000002 0.000015 -0.008565 0.157026
    25 1.207002 -0.000001 -0.000002 0.000291 0.001995 1.074120
    26 2.033344 1.000766 1.937663 2.592369 -1.489347 1.945003
    27 6.028144 0.000001 0.000001 -2.763641 -0.976173 -0.183493
    28 11.692549 0.000002 0.000001 -0.000009 0.000000 -1.470131
    29 11.481673 0.000001 -0.000037 1.477153 0.201888 0.454233
    30 3.859704 -0.142409 -1.191975 -0.525717 -0.158623 -1.264171
    31 1.312559 0.000001 0.000000 -0.001314 0.066577 -0.759977
    32 0.729362 0.000000 0.000000 -0.001322 0.008847 -0.556324
    33 3.942324 0.046770 -0.431444 -0.164816 -0.099240 -1.290797
    34 1.539093 0.000003 0.000000 -0.000409 0.008310 -0.717330
    35 1.196321 0.000001 0.000001 -0.000417 0.002752 -1.059947
    36 3.883686 -0.046772 0.431443 0.065528 -0.020397 -1.131373
    37 1.719575 0.000002 -0.000002 0.000471 0.026114 -1.007903
    38 1.209178 0.000004 0.000000 0.000467 -0.003155 -1.008163
    39 3.859863 -0.137948 1.332467 0.339275 0.111515 -1.097525
    40 1.719430 -0.000003 0.000001 0.001644 -0.143914 -1.026322
    41 1.099663 0.000004 -0.000001 0.001654 -0.011189 -0.928278
    42 0.806049 -0.348922 1.321260 -1.262725 -0.258210 -0.795921
    43 1.789784 -0.000001 0.000006 0.000001 -0.031479 0.257887
    44 1.206999 -0.000001 0.000004 0.000002 -0.000025 0.303734
    45 -3.890453 0.000005 0.000007 -1.870816 -0.725200 -1.486816
    46 17.848175 -0.000001 -0.000002 0.000000 0.000000 1.189476
    47 16.525255 -0.000002 0.000001 0.640290 0.401311 -1.345409
    48 6.879457 -0.000001 -0.000001 -0.081333 -0.002951 -0.584373
    49 3.890451 -0.000008 -0.000003 -1.652079 -0.756858 -1.355771
    50 17.848173 0.000000 0.000001 -0.000001 0.000000 1.330838
    51 16.525251 -0.000002 0.000000 -0.154470 -0.068495 -1.685311
    52 6.879455 0.000001 0.000000 -0.007300 -0.001742 -0.584369
time 10
    0 23.607747 -10.359686 30.390887 1.692573 0.094829 -4.315553
    1 -0.230471 3.337319 -2.981901 1.570796 0.028610 1.639803
    2 4.018331 0.000000 0.000000 -0.173597 -0.032155 0.115968
    3 3.518565 0.000000 0.000001 -0.248327 -0.163283 0.321830
    4 8.942640 0.000000 0.000000 0.052913 -0.041282 0.251974
    5 3.307271 -0.000001 -0.000001 3.141590 0.000000 0.400478
    6 3.593716 -0.000003 0.000001 1.133201 -0.020617 0.571796
    7 2.033350 1.000771 -1.937608 -2.195004 1.206801 2.388423
    8 6.028142 -0.000005 -0.000001 0.676598 0.905255 -1.740697
    9 11.692546 0.000002 -0.000002 0.000009 0.000000 -1.624211
    10 11.481696 0.000003 0.000002 -1.501214 -0.057438 0.317432
    11 3.859672 -0.132573 1.193109 0.529316 0.133204 -0.886010
    12 1.312562 0.000000 0.000001 0.001265 -0.411276 -1.016452
    13 0.729365 0.000000 0.000000 0.001259 -0.008447 -0.627802
    14 3.942294 0.050326 0.431044 0.155595 0.006286 -0.839784
    15 1.539096 0.000000 -0.000005 0.000430 -0.192138 -1.165577
    16 1.196323 0.000001 0.000001 0.000430 -0.002849 -0.739117
    17 3.883659 -0.050329 -0.431043 -0.092487 -0.160342 -0.606414
    18 1.719575 -0.000003 0.000002 -0.000385 -0.025257 -1.292898
    19 1.209186 -0.000001 -0.000003 -0.003428 0.022218 -0.860206
    20 3.859828 -0.148938 -1.331281 -0.356004 -0.113142 -0.092082
    21 1.719426 0.000002 0.000000 -0.001498 0.121521 -0.549260
    22 1.099666 -0.000003 0.000003 -0.046741 0.070976 -0.954246
    23 0.806018 -0.359837 -1.318331 1.296984 0.253310 -0.681557
    24 1.789778 0.000002 0.000002 0.000015 -0.008685 0.155911
    25 1.207002 -0.000001 -0.000002 0.000291 0.001995 1.082495
    26 2.033344 1.000766 1.937663 2.994571 -1.517106 1.543846
    27 6.028144 0.000001 0.000001 -2.969326 -0.966590 -0.052121
    28 11.692549 0.000002 0.000001 -0.000009 0.000000 -1.382344
    29 11.481673 0.000001 -0.000037 1.490962 0.247148 0.452649
    30 3.859704 -0.142409 -1.191975 -0.521534 -0.160769 -1.276296
    31 1.312559 0.000001 0.000000 -0.001223 0.066541 -0.764998
    32 0.729362 0.000000 0.000000 -0.001226 0.008188 -0.559094
    33 3.942324 0.046770 -0.431444 -0.164721 -0.099791 -1.301435
    34 1.539093 0.000003 0.000000 -0.000373 0.008166 -0.721779
    35 1.196321 0.000001 0.000001 -0.000382 0.002548 -1.068131
    36 3.883686 -0.046772 0.431443 0.064414 -0.021104 -1.140122
    37 1.719575 0.000002 -0.000002 0.000435 0.026665 -1.015541
    38 1.209178 0.000004 0.000000 0.000431 -0.002915 -1.015777
    39 3.859863 -0.137948 1.332467 0.335273 0.111934 -1.106050
    40 1.719430 -0.000003 0.000001 0.001524 -0.144537 -1.034281
    41 1.099663 0.000004 -0.000001 0.001534 -0.010350 -0.935175
    42 0.806049 -0.348922 1.321260 -1.261187 -0.257725 -0.799892
    43 1.789784 -0.000001 0.000006 0.000001 -0.031827 0.257862
    44 1.206999 -0.000001 0.000004 0.000002 -0.000025 0.303734
    45 -3.890453 0.000005 0.000007 -1.847673 -0.728116 -1.553140
    46 17.848175 -0.000001 -0.000002 0.000000 0.000000 1.197358
    47 16.525255 -0.000002 0.000001 0.639568 0.343656 -1.347774
    48 6.879457 -0.000001 -0.000001 -0.081333 -0.002951 -0.584373
    49 3.890451 -0.000008 -0.000003 -1.765376 -0.793026 -1.227293
    50 17.848173 0.000000 0.000001 -0.000001 0.000000 1.384830
    51 16.525251 -0.000002 0.000000 -0.161100 -0.003714 -1.680345
    52 6.879455 0.000001 0.000000 -0.007300 -0.001562 -0.584369
time 11
    0 26.576587 -11.812855 29.836182 1.696754 0.115449 -4.123897
    1 -0.218752 3.341225 -2.981901 1.570796 0.022079 1.636572
    2 4.018331 0.000000 0.000000 -0.193815 -0.018013 0.132487
    3 3.518565 0.000000 0.000001 -0.264560 -0.171457 0.346843
    4 8.942640 0.000000 0.000000 0.074258 -0.031658 0.258122
    5 3.307271 -0.000001 -0.000001 3.141590 0.000000 0.400478
    6 3.593716 -0.000003 0.000001 1.127208 -0.052340 0.596410
    7 2.033350 1.000771 -1.937608 -2.303746 1.176185 2.272155
    8 6.028142 -0.000005 -0.000001 0.557625 1.095816 -1.717676
    9 11.692546 0.000002 -0.000002 0.000009 0.000000 -1.555712
    10 11.481696 0.000003 0.000002 -1.318746 0.025212 0.367505
    11 3.859672 -0.132573 1.193109 0.523468 0.137890 -0.905206
    12 1.312562 0.000000 0.000001 0.001014 -0.420421 -1.035747
    13 0.729365 0.000000 0.000000 0.001008 -0.006757 -0.636640
    14 3.942294 0.050326 0.431044 0.156650 0.005052 -0.853888
    15 1.539096 0.000000 -0.000005 0.000347 -0.196657 -1.188715
    16 1.196323 0.000001 0.000001 0.000347 -0.002285 -0.750732
    17 3.883659 -0.050329 -0.431043 -0.090988 -0.163805 -0.614097
    18 1.719575 -0.000003 0.000002 -0.000313 -0.026539 -1.319395
    19 1.209186 -0.000001 -0.000003 -0.003428 0.022218 -0.875092
    20 3.859828 -0.148938 -1.331281 -0.349149 -0.115036 -0.086150
    21 1.719426 0.000002 0.000000 -0.001187 0.122492 -0.556074
    22 1.099666 -0.000003 0.000003 -0.047664 0.070593 -0.971959
    23 0.806018 -0.359837 -1.318331 1.294155 0.252401 -0.688293
    24 1.789778 0.000002 0.000002 0.000003 -0.008961 0.153107
    25 1.207002 -0.000001 -0.000002 0.000291 0.001995 1.103446
    26 2.033344 1.000766 1.937663 3.691337 -1.525901 0.847497
    27 6.028144 0.000001 0.000001 -3.110496 -0.912218 0.063179
    28 11.692549 0.000002 0.000001 -0.000009 0.000000 -1.293266
    29 11.481673 0.000001 -0.000037 1.456793 0.277693 0.434127
    30 3.859704 -0.142409 -1.191975 -0.510757 -0.166066 -1.306607
    31 1.312559 0.000001 0.000000 -0.000966 0.066469 -0.777511
    32 0.729362 0.000000 0.000000 -0.000975 0.006546 -0.566073
    33 3.942324 0.046770 -0.431444 -0.164409 -0.101134 -1.328031
    34 1.539093 0.000003 0.000000 -0.000301 0.007807 -0.732956
    35 1.196321 0.000001 0.000001 -0.000310 0.002045 -1.088637
    36 3.883686 -0.046772 0.431443 0.061561 -0.022913 -1.162023
    37 1.719575 0.000002 -0.000002 0.000352 0.028055 -1.034617
    38 1.209178 0.000004 0.000000 0.000360 -0.002340 -1.034851
    39 3.859863 -0.137948 1.332467 0.325182 0.112905 -1.127412
    40 1.719430 -0.000003 0.000001 0.001213 -0.146071 -1.054178
    41 1.099663 0.000004 -0.000001 0.001211 -0.008277 -0.952399
    42 0.806049 -0.348922 1.321260 -1.257160 -0.256525 -0.809819
    43 1.789784 -0.000001 0.000006 0.000001 -0.032678 0.257812
    44 1.206999 -0.000001 0.000004 0.000002 -0.000013 0.303734
    45 -3.890453 0.000005 0.000007 -1.788632 -0.705608 -1.636470
    46 17.848175 -0.000001 -0.000002 0.000000 0.000000 1.184681
    47 16.525255 -0.000002 0.000001 0.618236 0.274477 -1.361350
    48 6.879457 -0.000001 -0.000001 -0.081333 -0.002951 -0.584373
    49 3.890451 -0.000008 -0.000003 -1.921806 -0.832570 -1.063975
    50 17.848173 0.000000 0.000001 -0.000001 0.000000 1.428309
    51 16.525251 -0.000002 0.000000 -0.143111 0.071319 -1.653578
    52 6.879455 0.000001 0.000000 -0.007300 -0.001406 -0.584369
time 12
    0 29.158697 -13.051175 29.363512 1.706235 0.137073 -3.960462
    1 -0.207033 3.341225 -2.981901 1.570796 0.016529 1.633738
    2 4.018331 0.000000 0.000000 -0.211025 -0.005956 0.146565
    3 3.518565 0.000000 0.000001 -0.278393 -0.178420 0.368142
    4 8.942640 0.000000 0.000000 0.092414 -0.023449 0.263311
    5 3.307271 -0.000001 -0.000001 3.141590 0.000000 0.400478
    6 3.593716 -0.000003 0.000001 1.122221 -0.079336 0.617292
    7 2.033350 1.000771 -1.937608 -2.382892 1.146766 2.186725
    8 6.028142 -0.000005 -0.000001 0.424456 1.282462 -1.704721
    9 11.692546 0.000002 -0.000002 0.000009 0.000000 -1.486987
    10 11.481696 0.000003 0.000002 -1.117320 0.084206 0.416157
    11 3.859672 -0.132573 1.193109 0.515578 0.144026 -0.930139
    12 1.312562 0.000000 0.000001 0.000678 -0.432294 -1.060834
    13 0.729365 0.000000 0.000000 0.000672 -0.004576 -0.648141
    14 3.942294 0.050326 0.431044 0.157956 0.003470 -0.872151
    15 1.539096 0.000000 -0.000005 0.000227 -0.202541 -1.218736
    16 1.196323 0.000001 0.000001 0.000227 -0.001542 -0.765887
    17 3.883659 -0.050329 -0.431043 -0.089023 -0.168288 -0.624046
    18 1.719575 -0.000003 0.000002 -0.000205 -0.028193 -1.353856
    19 1.209186 -0.000001 -0.000003 -0.003428 0.022218 -0.894459
    20 3.859828 -0.148938 -1.331281 -0.340184 -0.117492 -0.078422
    21 1.719426 0.000002 0.000000 -0.000803 0.123774 -0.564933
    22 1.099666 -0.000003 0.000003 -0.048850 0.070101 -0.995010
    23 0.806018 -0.359837 -1.318331 1.290480 0.251189 -0.697041
    24 1.789778 0.000002 0.000002 0.000003 -0.009320 0.149464
    25 1.207002 -0.000001 -0.000002 0.000291 0.001995 1.130685
    26 2.033344 1.000766 1.937663 4.239481 -1.514476 0.299271
    27 6.028144 0.000001 0.000001 -3.173291 -0.831833 0.142133
    28 11.692549 0.000002 0.000001 -0.000009 0.000000 -1.208291
    29 11.481673 0.000001 -0.000037 1.383009 0.297053 0.398261
    30 3.859704 -0.142409 -1.191975 -0.496120 -0.172813 -1.346121
    31 1.312559 0.000001 0.000000 -0.000644 0.066373 -0.793791
    32 0.729362 0.000000 0.000000 -0.000651 0.004437 -0.575155
    33 3.942324 0.046770 -0.431444 -0.163822 -0.102859 -1.362592
    34 1.539093 0.000003 0.000000 -0.000193 0.007339 -0.747461
    35 1.196321 0.000001 0.000001 -0.000202 0.001386 -1.115258
    36 3.883686 -0.046772 0.431443 0.057822 -0.025310 -1.190471
    37 1.719575 0.000002 -0.000002 0.000232 0.029853 -1.059394
    38 1.209178 0.000004 0.000000 0.000240 -0.001573 -1.059653
    39 3.859863 -0.137948 1.332467 0.311855 0.114043 -1.155159
    40 1.719430 -0.000003 0.000001 0.000817 -0.148060 -1.080026
    41 1.099663 0.000004 -0.000001 0.000827 -0.005580 -0.974787
    42 0.806049 -0.348922 1.321260 -1.251961 -0.254892 -0.822688
    43 1.789784 -0.000001 0.000006 0.000001 -0.033768 0.257738
    44 1.206999 -0.000001 0.000004 0.000002 -0.000001 0.303734
    45 -3.890453 0.000005 0.000007 -1.739135 -0.662690 -1.703490
    46 17.848175 -0.000001 -0.000002 0.000000 0.000000 1.157131
    47 16.525255 -0.000002 0.000001 0.597776 0.217960 -1.374973
    48 6.879457 -0.000001 -0.000001 -0.081333 -0.002951 -0.584373
    49 3.890451 -0.000008 -0.000003 -2.094148 -0.866389 -0.894739
    50 17.848173 0.000000 0.000001 -0.000001 0.000000 1.459774
    51 16.525251 -0.000002 0.000000 -0.106573 0.136412 -1.611346
    52 6.879455 0.000001 0.000000 -0.007300 -0.001262 -0.584369
time 13
    0 31.209541 -14.012141 28.996313 1.717895 0.155686 -3.833420
    1 -0.199220 3.341225 -2.981901 1.570796 0.012214 1.631550
    2 4.018331 0.000000 0.000000 -0.224376 0.003368 0.157472
    3 3.518565 0.000000 0.000001 -0.289122 -0.183825 0.384662
    4 8.942640 0.000000 0.000000 0.106508 -0.017073 0.267302
    5 3.307271 -0.000001 -0.000001 3.141590 0.000000 0.400478
    6 3.593716 -0.000003 0.000001 1.118415 -0.100307 0.633412
    7 2.033350 1.000771 -1.937608 -2.436738 1.122257 2.128017
    8 6.028142 -0.000005 -0.000001 0.225280 1.426003 -1.791213
    9 11.692546 0.000002 -0.000002 0.000009 0.000000 -1.426082
    10 11.481696 0.000003 0.000002 -0.954076 0.109836 0.453683
    11 3.859672 -0.132573 1.193109 0.507385 0.150210 -0.955209
    12 1.312562 0.000000 0.000001 0.000343 -0.444181 -1.085920
    13 0.729365 0.000000 0.000000 0.000337 -0.002395 -0.659641
    14 3.942294 0.050326 0.431044 0.159227 0.001912 -0.890413
    15 1.539096 0.000000 -0.000005 0.000119 -0.208426 -1.248791
    16 1.196323 0.000001 0.000001 0.000119 -0.000799 -0.781007
    17 3.883659 -0.050329 -0.431043 -0.087058 -0.172770 -0.634044
    18 1.719575 -0.000003 0.000002 -0.000097 -0.029859 -1.388352
    19 1.209186 -0.000001 -0.000003 -0.003428 0.022218 -0.913827
    20 3.859828 -0.148938 -1.331281 -0.331208 -0.119961 -0.070747
    21 1.719426 0.000002 0.000000 -0.000408 0.125045 -0.573824
    22 1.099666 -0.000003 0.000003 -0.050049 0.069610 -1.018027
    23 0.806018 -0.359837 -1.318331 1.286805 0.249977 -0.705788
    24 1.789778 0.000002 0.000002 0.000003 -0.009692 0.145832
    25 1.207002 -0.000001 -0.000002 0.000291 0.001995 1.157897
    26 2.033344 1.000766 1.937663 4.492198 -1.498260 0.046332
    27 6.028144 0.000001 0.000001 -3.182085 -0.751448 0.190439
    28 11.692549 0.000002 0.000001 -0.000009 0.000000 -1.135326
    29 11.481673 0.000001 -0.000037 1.295416 0.307941 0.354440
    30 3.859704 -0.142409 -1.191975 -0.480752 -0.179357 -1.385744
    31 1.312559 0.000001 0.000000 -0.000323 0.066289 -0.810070
    32 0.729362 0.000000 0.000000 -0.000328 0.002303 -0.584238
    33 3.942324 0.046770 -0.431444 -0.163043 -0.104549 -1.397178
    34 1.539093 0.000003 0.000000 -0.000097 0.006884 -0.762003
    35 1.196321 0.000001 0.000001 -0.000106 0.000726 -1.141879
    36 3.883686 -0.046772 0.431443 0.054059 -0.027767 -1.218919
    37 1.719575 0.000002 -0.000002 0.000112 0.031650 -1.084207
    38 1.209178 0.000004 0.000000 0.000120 -0.000806 -1.084492
    39 3.859863 -0.137948 1.332467 0.298324 0.115026 -1.182939
    40 1.719430 -0.000003 0.000001 0.000410 -0.150062 -1.105873
    41 1.099663 0.000004 -0.000001 0.000408 -0.002884 -0.997175
    42 0.806049 -0.348922 1.321260 -1.246763 -0.253233 -0.835630
    43 1.789784 -0.000001 0.000006 0.000001 -0.034883 0.257664
    44 1.206999 -0.000001 0.000004 0.000002 0.000011 0.303734
    45 -3.890453 0.000005 0.000007 -1.710670 -0.613939 -1.744382
    46 17.848175 -0.000001 -0.000002 0.000000 0.000000 1.123893
    47 16.525255 -0.000002 0.000001 0.583547 0.181356 -1.384906
    48 6.879457 -0.000001 -0.000001 -0.081333 -0.002951 -0.584373
    49 3.890451 -0.000008 -0.000003 -2.247320 -0.890566 -0.750416
    50 17.848173 0.000000 0.000001 -0.000001 0.000000 1.479598
    51 16.525251 -0.000002 0.000000 -0.065428 0.179338 -1.566419
    52 6.879455 0.000001 0.000000 -0.007300 -0.001166 -0.584369
time 14
    0 32.557239 -14.637160 28.754118 1.727670 0.168125 -3.750942
    1 -0.191407 3.341225 -2.981901 1.570796 0.009422 1.630109
    2 4.018331 0.000000 0.000000 -0.233016 0.009408 0.164545
    3 3.518565 0.000000 0.000001 -0.296085 -0.187312 0.395355
    4 8.942640 0.000000 0.000000 0.115616 -0.012938 0.269867
    5 3.307271 -0.000001 -0.000001 3.141590 0.000000 0.400478
    6 3.593716 -0.000003 0.000001 1.116009 -0.113867 0.643837
    7 2.033350 1.000771 -1.937608 -2.468435 1.105712 2.093156
    8 6.028142 -0.000005 -0.000001 -0.234467 1.505960 -2.183225
    9 11.692546 0.000002 -0.000002 0.000009 0.000000 -1.382621
    10 11.481696 0.000003 0.000002 -0.853762 0.115232 0.474824
    11 3.859672 -0.132573 1.193109 0.500874 0.155004 -0.974540
    12 1.312562 0.000000 0.000001 0.000091 -0.453312 -1.105215
    13 0.729365 0.000000 0.000000 0.000085 -0.000681 -0.668479
    14 3.942294 0.050326 0.431044 0.160161 0.000713 -0.904517
    15 1.539096 0.000000 -0.000005 0.000023 -0.212944 -1.271929
    16 1.196323 0.000001 0.000001 0.000023 -0.000236 -0.792622
    17 3.883659 -0.050329 -0.431043 -0.085559 -0.176221 -0.641727
    18 1.719575 -0.000003 0.000002 -0.000013 -0.031141 -1.414885
    19 1.209186 -0.000001 -0.000003 -0.003428 0.022218 -0.928713
    20 3.859828 -0.148938 -1.331281 -0.324305 -0.121879 -0.064814
    21 1.719426 0.000002 0.000000 -0.000120 0.126015 -0.580638
    22 1.099666 -0.000003 0.000003 -0.050960 0.069226 -1.035740
    23 0.806018 -0.359837 -1.318331 1.283975 0.249018 -0.712500
    24 1.789778 0.000002 0.000002 0.000003 -0.009967 0.143028
    25 1.207002 -0.000001 -0.000002 0.000291 0.001995 1.178848
    26 2.033344 1.000766 1.937663 4.599739 -1.486089 -0.061550
    27 6.028144 0.000001 0.000001 -3.170997 -0.693654 0.217442
    28 11.692549 0.000002 0.000001 -0.000009 0.000000 -1.084098
    29 11.481673 0.000001 -0.000037 1.225893 0.312846 0.317985
    30 3.859704 -0.142409 -1.191975 -0.468468 -0.184222 -1.416219
    31 1.312559 0.000001 0.000000 -0.000078 0.066217 -0.822584
    32 0.729362 0.000000 0.000000 -0.000088 0.000661 -0.591216
    33 3.942324 0.046770 -0.431444 -0.162312 -0.105832 -1.423823
    34 1.539093 0.000003 0.000000 -0.000013 0.006524 -0.773181
    35 1.196321 0.000001 0.000001 -0.000022 0.000211 -1.162354
    36 3.883686 -0.046772 0.431443 0.051123 -0.029697 -1.240761
    37 1.719575 0.000002 -0.000002 0.000028 0.033029 -1.103283
    38 1.209178 0.000004 0.000000 0.000024 -0.000219 -1.103565
    39 3.859863 -0.137948 1.332467 0.287766 0.115673 -1.204268
    40 1.719430 -0.000003 0.000001 0.000110 -0.151596 -1.125770
    41 1.099663 0.000004 -0.000001 0.000120 -0.000811 -1.014399
    42 0.806049 -0.348922 1.321260 -1.242735 -0.251905 -0.845483
    43 1.789784 -0.000001 0.000006 0.000001 -0.035734 0.257614
    44 1.206999 -0.000001 0.000004 0.000002 0.000011 0.303734
    45 -3.890453 0.000005 0.000007 -1.698592 -0.575486 -1.764171
    46 17.848175 -0.000001 -0.000002 0.000000 0.000000 1.096181
    47 16.525255 -0.000002 0.000001 0.575348 0.162617 -1.390346
    48 6.879457 -0.000001 -0.000001 -0.081333 -0.002951 -0.584373
    49 3.890451 -0.000008 -0.000003 -2.352853 -0.904954 -0.654297
    50 17.848173 0.000000 0.000001 -0.000001 0.000000 1.490036
    51 16.525251 -0.000002 0.000000 -0.033960 0.200606 -1.532510
    52 6.879455 0.000001 0.000000 -0.007300 -0.001094 -0.584369
time 15
    0 33.041628 -14.855917 28.675991 1.731556 0.172626 -3.721676
    1 -0.191407 3.341225 -2.981901 1.570796 0.008424 1.629611
    2 4.018331 0.000000 0.000000 -0.236084 0.011541 0.167052
    3 3.518565 0.000000 0.000001 -0.298525 -0.188559 0.399142
    4 8.942640 0.000000 0.000000 0.118864 -0.011476 0.270777
    5 3.307271 -0.000001 -0.000001 3.141590 0.000000 0.400478
    6 3.593716 -0.000003 0.000001 1.115134 -0.118701 0.647537
    7 2.033350 1.000771 -1.937608 -2.479128 1.099729 2.081376
    8 6.028142 -0.000005 -0.000001 -0.702465 1.523527 -2.628362
    9 11.692546 0.000002 -0.000002 0.000009 0.000000 -1.366305
    10 11.481696 0.000003 0.000002 -0.819903 0.115035 0.481309
    11 3.859672 -0.132573 1.193109 0.498198 0.156933 -0.982260
    12 1.312562 0.000000 0.000001 -0.000005 -0.456973 -1.112927
    13 0.729365 0.000000 0.000000 0.000001 -0.000022 -0.672028
    14 3.942294 0.050326 0.431044 0.160533 0.000246 -0.910148
    15 1.539096 0.000000 -0.000005 -0.000001 -0.214753 -1.281129
    16 1.196323 0.000001 0.000001 -0.000001 -0.000008 -0.797295
    17 3.883659 -0.050329 -0.431043 -0.084948 -0.177600 -0.644830
    18 1.719575 -0.000003 0.000002 -0.000001 -0.031645 -1.425491
    19 1.209186 -0.000001 -0.000003 -0.003428 0.022218 -0.934675
    20 3.859828 -0.148938 -1.331281 -0.321536 -0.122634 -0.062447
    21 1.719426 0.000002 0.000000 0.000000 0.126411 -0.583364
    22 1.099666 -0.000003 0.000003 -0.051331 0.069071 -1.042812
    23 0.806018 -0.359837 -1.318331 1.282836 0.248639 -0.715189
    24 1.789778 0.000002 0.000002 0.000003 -0.010075 0.141901
    25 1.207002 -0.000001 -0.000002 0.000291 0.001995 1.187223
    26 2.033344 1.000766 1.937663 4.630766 -1.481573 -0.092593
    27 6.028144 0.000001 0.000001 -3.164307 -0.672482 0.226599
    28 11.692549 0.000002 0.000001 -0.000009 0.000000 -1.065020
    29 11.481673 0.000001 -0.000037 1.199141 0.314184 0.303550
    30 3.859704 -0.142409 -1.191975 -0.463424 -0.186140 -1.428452
    31 1.312559 0.000001 0.000000 -0.000001 0.066181 -0.827605
    32 0.729362 0.000000 0.000000 -0.000004 0.000014 -0.594022
    33 3.942324 0.046770 -0.431444 -0.161988 -0.106335 -1.434461
    34 1.539093 0.000003 0.000000 -0.000001 0.006381 -0.777630
    35 1.196321 0.000001 0.000001 0.000002 0.000007 -1.170538
    36 3.883686 -0.046772 0.431443 0.049936 -0.030476 -1.249510
    37 1.719575 0.000002 -0.000002 0.000004 0.033580 -1.110921
    38 1.209178 0.000004 0.000000 0.000000 0.000009 -1.111180
    39 3.859863 -0.137948 1.332467 0.283499 0.115913 -1.212794
    40 1.719430 -0.000003 0.000001 0.000002 -0.152207 -1.133729
    41 1.099663 0.000004 -0.000001 0.000000 0.000016 -1.021260
    42 0.806049 -0.348922 1.321260 -1.241125 -0.251344 -0.849454
    43 1.789784 -0.000001 0.000006 0.000001 -0.036081 0.257589
    44 1.206999 -0.000001 0.000004 0.000002 0.000011 0.303734
    45 -3.890453 0.000005 0.000007 -1.695551 -0.560587 -1.769814
    46 17.848175 -0.000001 -0.000002 0.000000 0.000000 1.085047
    47 16.525255 -0.000002 0.000001 0.572582 0.157023 -1.392002
    48 6.879457 -0.000001 -0.000001 -0.081333 -0.002951 -0.584373
    49 3.890451 -0.000008 -0.000003 -2.391385 -0.909800 -0.619838
    50 17.848173 0.000000 0.000001 -0.000001 0.000000 1.493190
    51 16.525251 -0.000002 0.000000 -0.022041 0.206738 -1.519694
    52 6.879455 0.000001 0.000000 -0.007300 -0.001070 -0.584369
time 16
    0 33.041628 -14.855917 28.675991 1.731556 0.172626 -3.721676
    1 -0.191407 3.341225 -2.981901 1.570796 0.008424 1.629611
    2 4.018331 0.000000 0.000000 -0.236084 0.011541 0.167052
    3 3.518565 0.000000 0.000001 -0.298525 -0.188559 0.399142
    4 8.942640 0.000000 0.000000 0.118864 -0.011476 0.270777
    5 3.307271 -0.000001 -0.000001 3.141590 0.000000 0.400478
    6 3.593716 -0.000003 0.000001 1.115134 -0.118701 0.647537
    7 2.033350 1.000771 -1.937608 -2.479128 1.099729 2.081376
    8 6.028142 -0.000005 -0.000001 -0.702465 1.523527 -2.628362
    9 11.692546 0.000002 -0.000002 0.000009 0.000000 -1.366305
    10 11.481696 0.000003 0.000002 -0.819903 0.115035 0.481309
    11 3.859672 -0.132573 1.193109 0.498198 0.156933 -0.982260
    12 1.312562 0.000000 0.000001 -0.000005 -0.456973 -1.112927
    13 0.729365 0.000000 0.000000 0.000001 -0.000022 -0.672028
    14 3.942294 0.050326 0.431044 0.160533 0.000246 -0.910148
    15 1.539096 0.000000 -0.000005 -0.000001 -0.214753 -1.281129
    16 1.196323 0.000001 0.000001 -0.000001 -0.000008 -0.797295
    17 3.883659 -0.050329 -0.431043 -0.084948 -0.177600 -0.644830
    18 1.719575 -0.000003 0.000002 -0.000001 -0.031645 -1.425491
    19 1.209186 -0.000001 -0.000003 -0.003428 0.022218 -0.934675
    20 3.859828 -0.148938 -1.331281 -0.321536 -0.122634 -0.062447
    21 1.719426 0.000002 0.000000 0.000000 0.126411 -0.583364
    22 1.099666 -0.000003 0.000003 -0.051331 0.069071 -1.042812
    23 0.806018 -0.359837 -1.318331 1.282836 0.248639 -0.715189
    24 1.789778 0.000002 0.000002 0.000003 -0.010075 0.141901
    25 1.207002 -0.000001 -0.000002 0.000291 0.001995 1.187223
    26 2.033344 1.000766 1.937663 4.630766 -1.481573 -0.092593
    27 6.028144 0.000001 0.000001 -3.164307 -0.672482 0.226599
    28 11.692549 0.000002 0.000001 -0.000009 0.000000 -1.065020
    29 11.481673 0.000001 -0.000037 1.199141 0.314184 0.303550
    30 3.859704 -0.142409 -1.191975 -0.463424 -0.186140 -1.428452
    31 1.312559 0.000001 0.000000 -0.000001 0.066181 -0.827605
    32 0.729362 0.000000 0.000000 -0.000004 0.000014 -0.594022
    33 3.942324 0.046770 -0.431444 -0.161988 -0.106335 -1.434461
    34 1.539093 0.000003 0.000000 -0.000001 0.006381 -0.777630
    35 1.196321 0.000001 0.000001 0.000002 0.000007 -1.170538
    36 3.883686 -0.046772 0.431443 0.049936 -0.030476 -1.249510
    37 1.719575 0.000002 -0.000002 0.000004 0.033580 -1.110921
    38 1.209178 0.000004 0.000000 0.000000 0.000009 -1.111180
    39 3.859863 -0.137948 1.332467 0.283499 0.115913 -1.212794
    40 1.719430 -0.000003 0.000001 0.000002 -0.152207 -1.133729
    41 1.099663 0.000004 -0.000001 0.000000 0.000016 -1.021260
    42 0.806049 -0.348922 1.321260 -1.241125 -0.251344 -0.849454
    43 1.789784 -0.000001 0.000006 0.000001 -0.036081 0.257589
    44 1.206999 -0.000001 0.000004 0.000002 0.000011 0.303734
    45 -3.890453 0.000005 0.000007 -1.695551 -0.560587 -1.769814
    46 17.848175 -0.000001 -0.000002 0.000000 0.000000 1.085047
    47 16.525255 -0.000002 0.000001 0.572582 0.157023 -1.392002
    48 6.879457 -0.000001 -0.000001 -0.081333 -0.002951 -0.584373
    49 3.890451 -0.000008 -0.000003 -2.391385 -0.909800 -0.619838
    50 17.848173 0.000000 0.000001 -0.000001 0.000000 1.493190
    51 16.525251 -0.000002 0.000000 -0.022041 0.206738 -1.519694
    52 6.879455 0.000001 0.000000 -0.007300 -0.001070 -0.584369
time 17
    0 33.041628 -14.855917 28.675991 1.731556 0.172626 -3.721676
    1 -0.191407 3.341225 -2.981901 1.570796 0.008424 1.629611
    2 4.018331 0.000000 0.000000 -0.236084 0.011541 0.167052
    3 3.518565 0.000000 0.000001 -0.298525 -0.188559 0.399142
    4 8.942640 0.000000 0.000000 0.118864 -0.011476 0.270777
    5 3.307271 -0.000001 -0.000001 3.141590 0.000000 0.400478
    6 3.593716 -0.000003 0.000001 1.115134 -0.118701 0.647537
    7 2.033350 1.000771 -1.937608 -2.479128 1.099729 2.081376
    8 6.028142 -0.000005 -0.000001 -0.702465 1.523527 -2.628362
    9 11.692546 0.000002 -0.000002 0.000009 0.000000 -1.366305
    10 11.481696 0.000003 0.000002 -0.819903 0.115035 0.481309
    11 3.859672 -0.132573 1.193109 0.498198 0.156933 -0.982260
    12 1.312562 0.000000 0.000001 -0.000005 -0.456973 -1.112927
    13 0.729365 0.000000 0.000000 0.000001 -0.000022 -0.672028
    14 3.942294 0.050326 0.431044 0.160533 0.000246 -0.910148
    15 1.539096 0.000000 -0.000005 -0.000001 -0.214753 -1.281129
    16 1.196323 0.000001 0.000001 -0.000001 -0.000008 -0.797295
    17 3.883659 -0.050329 -0.431043 -0.084948 -0.177600 -0.644830
    18 1.719575 -0.000003 0.000002 -0.000001 -0.031645 -1.425491
    19 1.209186 -0.000001 -0.000003 -0.003428 0.022218 -0.934675
    20 3.859828 -0.148938 -1.331281 -0.321536 -0.122634 -0.062447
    21 1.719426 0.000002 0.000000 0.000000 0.126411 -0.583364
    22 1.099666 -0.000003 0.000003 -0.051331 0.069071 -1.042812
    23 0.806018 -0.359837 -1.318331 1.282836 0.248639 -0.715189
    24 1.789778 0.000002 0.000002 0.000003 -0.010075 0.141901
    25 1.207002 -0.000001 -0.000002 0.000291 0.001995 1.187223
    26 2.033344 1.000766 1.937663 4.630766 -1.481573 -0.092593
    27 6.028144 0.000001 0.000001 -3.164307 -0.672482 0.226599
    28 11.692549 0.000002 0.000001 -0.000009 0.000000 -1.065020
    29 11.481673 0.000001 -0.000037 1.199141 0.314184 0.303550
    30 3.859704 -0.142409 -1.191975 -0.463424 -0.186140 -1.428452
    31 1.312559 0.000001 0.000000 -0.000001 0.066181 -0.827605
    32 0.729362 0.000000 0.000000 -0.000004 0.000014 -0.594022
    33 3.942324 0.046770 -0.431444 -0.161988 -0.106335 -1.434461
    34 1.539093 0.000003 0.000000 -0.000001 0.006381 -0.777630
    35 1.196321 0.000001 0.000001 0.000002 0.000007 -1.170538
    36 3.883686 -0.046772 0.431443 0.049936 -0.030476 -1.249510
    37 1.719575 0.000002 -0.000002 0.000004 0.033580 -1.110921
    38 1.209178 0.000004 0.000000 0.000000 0.000009 -1.111180
    39 3.859863 -0.137948 1.332467 0.283499 0.115913 -1.212794
    40 1.719430 -0.000003 0.000001 0.000002 -0.152207 -1.133729
    41 1.099663 0.000004 -0.000001 0.000000 0.000016 -1.021260
    42 0.806049 -0.348922 1.321260 -1.241125 -0.251344 -0.849454
    43 1.789784 -0.000001 0.000006 0.000001 -0.036081 0.257589
    44 1.206999 -0.000001 0.000004 0.000002 0.000011 0.303734
    45 -3.890453 0.000005 0.000007 -1.695551 -0.560587 -1.769814
    46 17.848175 -0.000001 -0.000002 0.000000 0.000000 1.085047
    47 16.525255 -0.000002 0.000001 0.572582 0.157023 -1.392002
    48 6.879457 -0.000001 -0.000001 -0.081333 -0.002951 -0.584373
    49 3.890451 -0.000008 -0.000003 -2.391385 -0.909800 -0.619838
    50 17.848173 0.000000 0.000001 -0.000001 0.000000 1.493190
    51 16.525251 -0.000002 0.000000 -0.022041 0.206738 -1.519694
    52 6.879455 0.000001 0.000000 -0.007300 -0.001070 -0.584369
time 18
    0 33.041628 -14.855917 28.675991 1.731556 0.172626 -3.721676
    1 -0.191407 3.341225 -2.981901 1.570796 0.008424 1.629611
    2 4.018331 0.000000 0.000000 -0.236084 0.011541 0.167052
    3 3.518565 0.000000 0.000001 -0.298525 -0.188559 0.399142
    4 8.942640 0.000000 0.000000 0.118864 -0.011476 0.270777
    5 3.307271 -0.000001 -0.000001 3.141590 0.000000 0.400478
    6 3.593716 -0.000003 0.000001 1.115134 -0.118701 0.647537
    7 2.033350 1.000771 -1.937608 -2.479128 1.099729 2.081376
    8 6.028142 -0.000005 -0.000001 -0.702465 1.523527 -2.628362
    9 11.692546 0.000002 -0.000002 0.000009 0.000000 -1.366305
    10 11.481696 0.000003 0.000002 -0.819903 0.115035 0.481309
    11 3.859672 -0.132573 1.193109 0.498198 0.156933 -0.982260
    12 1.312562 0.000000 0.000001 -0.000005 -0.456973 -1.112927
    13 0.729365 0.000000 0.000000 0.000001 -0.000022 -0.672028
    14 3.942294 0.050326 0.431044 0.160533 0.000246 -0.910148
    15 1.539096 0.000000 -0.000005 -0.000001 -0.214753 -1.281129
    16 1.196323 0.000001 0.000001 -0.000001 -0.000008 -0.797295
    17 3.883659 -0.050329 -0.431043 -0.084948 -0.177600 -0.644830
    18 1.719575 -0.000003 0.000002 -0.000001 -0.031645 -1.425491
    19 1.209186 -0.000001 -0.000003 -0.003428 0.022218 -0.934675
    20 3.859828 -0.148938 -1.331281 -0.321536 -0.122634 -0.062447
    21 1.719426 0.000002 0.000000 0.000000 0.126411 -0.583364
    22 1.099666 -0.000003 0.000003 -0.051331 0.069071 -1.042812
    23 0.806018 -0.359837 -1.318331 1.282836 0.248639 -0.715189
    24 1.789778 0.000002 0.000002 0.000003 -0.010075 0.141901
    25 1.207002 -0.000001 -0.000002 0.000291 0.001995 1.187223
    26 2.033344 1.000766 1.937663 4.630766 -1.481573 -0.092593
    27 6.028144 0.000001 0.000001 -3.164307 -0.672482 0.226599
    28 11.692549 0.000002 0.000001 -0.000009 0.000000 -1.065020
    29 11.481673 0.000001 -0.000037 1.199141 0.314184 0.303550
    30 3.859704 -0.142409 -1.191975 -0.463424 -0.186140 -1.428452
    31 1.312559 0.000001 0.000000 -0.000001 0.066181 -0.827605
    32 0.729362 0.000000 0.000000 -0.000004 0.000014 -0.594022
    33 3.942324 0.046770 -0.431444 -0.161988 -0.106335 -1.434461
    34 1.539093 0.000003 0.000000 -0.000001 0.006381 -0.777630
    35 1.196321 0.000001 0.000001 0.000002 0.000007 -1.170538
    36 3.883686 -0.046772 0.431443 0.049936 -0.030476 -1.249510
    37 1.719575 0.000002 -0.000002 0.000004 0.033580 -1.110921
    38 1.209178 0.000004 0.000000 0.000000 0.000009 -1.111180
    39 3.859863 -0.137948 1.332467 0.283499 0.115913 -1.212794
    40 1.719430 -0.000003 0.000001 0.000002 -0.152207 -1.133729
    41 1.099663 0.000004 -0.000001 0.000000 0.000016 -1.021260
    42 0.806049 -0.348922 1.321260 -1.241125 -0.251344 -0.849454
    43 1.789784 -0.000001 0.000006 0.000001 -0.036081 0.257589
    44 1.206999 -0.000001 0.000004 0.000002 0.000011 0.303734
    45 -3.890453 0.000005 0.000007 -1.695551 -0.560587 -1.769814
    46 17.848175 -0.000001 -0.000002 0.000000 0.000000 1.085047
    47 16.525255 -0.000002 0.000001 0.572582 0.157023 -1.392002
    48 6.879457 -0.000001 -0.000001 -0.081333 -0.002951 -0.584373
    49 3.890451 -0.000008 -0.000003 -2.391385 -0.909800 -0.619838
    50 17.848173 0.000000 0.000001 -0.000001 0.000000 1.493190
    51 16.525251 -0.000002 0.000000 -0.022041 0.206738 -1.519694
    52 6.879455 0.000001 0.000000 -0.007300 -0.001070 -0.584369
end
