version 1
nodes
  0 "ValveBiped.Bip01_Pelvis" -1
  1 "ValveBiped.Bip01_Spine" 0
  2 "ValveBiped.Bip01_Spine1" 1
  3 "ValveBiped.Bip01_Spine2" 2
  4 "ValveBiped.Bip01_Spine4" 3
  5 "ValveBiped.Bip01_Neck1" 4
  6 "ValveBiped.Bip01_Head1" 5
  7 "ValveBiped.Bip01_R_Clavicle" 4
  8 "ValveBiped.Bip01_R_UpperArm" 7
  9 "ValveBiped.Bip01_R_Forearm" 8
  10 "ValveBiped.Bip01_R_Hand" 9
  11 "ValveBiped.Bip01_R_Finger4" 10
  12 "ValveBiped.Bip01_R_Finger41" 11
  13 "ValveBiped.Bip01_R_Finger42" 12
  14 "ValveBiped.Bip01_R_Finger3" 10
  15 "ValveBiped.Bip01_R_Finger31" 14
  16 "ValveBiped.Bip01_R_Finger32" 15
  17 "ValveBiped.Bip01_R_Finger2" 10
  18 "ValveBiped.Bip01_R_Finger21" 17
  19 "ValveBiped.Bip01_R_Finger22" 18
  20 "ValveBiped.Bip01_R_Finger1" 10
  21 "ValveBiped.Bip01_R_Finger11" 20
  22 "ValveBiped.Bip01_R_Finger12" 21
  23 "ValveBiped.Bip01_R_Finger0" 10
  24 "ValveBiped.Bip01_R_Finger01" 23
  25 "ValveBiped.Bip01_R_Finger02" 24
  26 "ValveBiped.Bip01_L_Clavicle" 4
  27 "ValveBiped.Bip01_L_UpperArm" 26
  28 "ValveBiped.Bip01_L_Forearm" 27
  29 "ValveBiped.Bip01_L_Hand" 28
  30 "ValveBiped.Bip01_L_Finger4" 29
  31 "ValveBiped.Bip01_L_Finger41" 30
  32 "ValveBiped.Bip01_L_Finger42" 31
  33 "ValveBiped.Bip01_L_Finger3" 29
  34 "ValveBiped.Bip01_L_Finger31" 33
  35 "ValveBiped.Bip01_L_Finger32" 34
  36 "ValveBiped.Bip01_L_Finger2" 29
  37 "ValveBiped.Bip01_L_Finger21" 36
  38 "ValveBiped.Bip01_L_Finger22" 37
  39 "ValveBiped.Bip01_L_Finger1" 29
  40 "ValveBiped.Bip01_L_Finger11" 39
  41 "ValveBiped.Bip01_L_Finger12" 40
  42 "ValveBiped.Bip01_L_Finger0" 29
  43 "ValveBiped.Bip01_L_Finger01" 42
  44 "ValveBiped.Bip01_L_Finger02" 43
  45 "ValveBiped.Bip01_R_Thigh" 0
  46 "ValveBiped.Bip01_R_Calf" 45
  47 "ValveBiped.Bip01_R_Foot" 46
  48 "ValveBiped.Bip01_R_Toe0" 47
  49 "ValveBiped.Bip01_L_Thigh" 0
  50 "ValveBiped.Bip01_L_Calf" 49
  51 "ValveBiped.Bip01_L_Foot" 50
  52 "ValveBiped.Bip01_L_Toe0" 51
end
skeleton
time 0
    0 -0.002349 -0.660171 16.523276 2.147413 0.038321 -0.061779
    1 0.000005 3.345132 -2.981901 1.571539 0.187515 1.571542
    2 4.018329 -0.000009 0.000000 -0.035139 0.127444 0.431598
    3 3.518574 0.000001 -0.000002 -0.066498 0.114064 0.360450
    4 8.942637 -0.000001 0.000000 -0.031782 -0.025570 0.054611
    5 3.307275 -0.000003 -0.000004 3.141591 0.000000 0.400478
    6 3.593711 0.000001 -0.000001 0.294149 -0.033590 1.320840
    7 2.033355 1.000768 -1.937610 -2.690024 1.300339 1.925266
    8 6.028147 -0.000007 -0.000001 2.008196 0.105207 -0.965808
    9 11.692551 -0.000002 0.000010 0.000009 0.000000 -1.237577
    10 11.481697 0.000010 0.000005 -1.670178 0.320705 0.234093
    11 3.859674 -0.132572 1.193109 0.571248 -0.102940 -0.255576
    12 1.312563 0.000000 0.000001 0.010266 -0.069864 -0.292205
    13 0.729365 0.000000 -0.000008 0.010260 -0.069856 -0.292149
    14 3.942296 0.050324 0.431045 0.097901 -0.034246 -0.326656
    15 1.539095 0.000004 0.000000 0.003511 -0.023383 -0.299298
    16 1.196327 0.000002 0.000008 0.003522 -0.023390 -0.299535
    17 3.883658 -0.050329 -0.431045 -0.089514 -0.188062 -0.324895
    18 1.719577 -0.000003 0.000001 -0.003261 0.021735 -0.299453
    19 1.209180 0.000002 0.000000 -0.003272 0.021726 -0.299387
    20 3.859828 -0.148938 -1.331275 -0.547805 -0.088526 -0.315897
    21 1.719428 0.000013 -0.000001 -0.012081 0.083230 -0.288818
    22 1.099668 -0.000015 0.000002 -0.012082 0.083224 -0.288717
    23 0.806020 -0.359832 -1.318338 1.375701 0.577229 -0.491590
    24 1.789781 0.000001 0.000006 0.000327 0.002125 0.324619
    25 1.206996 -0.000007 -0.000003 0.000003 -0.000006 0.000012
    26 2.033347 1.000764 1.937653 3.431151 -1.396216 1.094113
    27 6.028144 -0.000008 0.000002 -2.059129 -0.563249 -0.643199
    28 11.692554 0.000000 0.000001 -0.000009 0.000000 -0.677239
    29 11.481680 0.000005 -0.000037 1.677908 -0.324180 0.234247
    30 3.859710 -0.142394 -1.191978 -0.571793 0.100843 -0.256391
    31 1.312561 -0.000006 0.000002 -0.009948 0.067691 -0.292740
    32 0.729362 0.000000 -0.000007 -0.009951 0.067679 -0.292648
    33 3.942328 0.046781 -0.431442 -0.097571 0.031584 -0.326911
    34 1.539095 0.000000 0.000002 -0.003141 0.020954 -0.299456
    35 1.196328 -0.000001 0.000009 -0.003150 0.020968 -0.299714
    36 3.883694 -0.046754 0.431443 0.089809 0.185403 -0.326379
    37 1.719577 0.000000 0.000001 0.003623 -0.024186 -0.299278
    38 1.209184 0.000000 -0.000014 0.003619 -0.024188 -0.299226
    39 3.859860 -0.137939 1.332467 0.548047 0.085952 -0.316602
    40 1.719431 0.000008 0.000003 0.012382 -0.085549 -0.288123
    41 1.099665 -0.000015 -0.000002 0.012392 -0.085542 -0.288049
    42 0.806045 -0.348918 1.321257 -1.378781 -0.581119 -0.486928
    43 1.789777 0.000000 0.000000 -0.000047 -0.000319 0.324623
    44 1.206997 0.000005 0.000008 0.000002 0.000011 0.000040
    45 -3.890450 0.000009 0.000009 1.109028 -0.934872 -4.083735
    46 17.848164 0.000001 -0.000003 0.000000 0.000000 2.289346
    47 16.525265 -0.000013 -0.000002 -0.068297 -0.091667 -1.726856
    48 6.879458 0.000001 0.000000 -0.081335 -0.002952 -0.584374
    49 3.890451 0.000000 0.000000 -2.945122 -0.721767 -0.578508
    50 17.848175 -0.000002 0.000000 -0.000001 0.000000 2.484950
    51 16.525251 0.000000 0.000011 0.717375 -0.371714 -0.955123
    52 6.879456 -0.000001 0.000000 -0.002147 -0.005289 -1.701388
time 1
    0 -0.748465 -0.730486 20.398394 2.095534 0.037591 -0.077077
    1 -0.039059 3.345132 -2.981901 1.559009 0.152201 1.561598
    2 4.018329 -0.000009 0.000000 -0.015113 0.097123 0.461597
    3 3.518574 0.000001 -0.000002 -0.038289 0.081466 0.437645
    4 8.942637 -0.000001 0.000000 -0.029577 -0.039772 0.033027
    5 3.307275 -0.000003 -0.000004 3.141591 0.000000 0.400478
    6 3.593711 0.000001 -0.000001 0.203157 -0.078145 1.360962
    7 2.033355 1.000768 -1.937610 -3.010427 1.369533 1.593318
    8 6.028147 -0.000007 -0.000001 1.853114 0.267746 -0.979788
    9 11.692551 -0.000002 0.000010 0.000009 0.000000 -1.072532
    10 11.481697 0.000010 0.000005 -1.671508 0.323239 0.235244
    11 3.859674 -0.132572 1.193109 0.571248 -0.102940 -0.255576
    12 1.312563 0.000000 0.000001 0.010266 -0.069864 -0.292205
    13 0.729365 0.000000 -0.000008 0.010260 -0.069856 -0.292149
    14 3.942296 0.050324 0.431045 0.097901 -0.034246 -0.326656
    15 1.539095 0.000004 0.000000 0.003511 -0.023383 -0.299298
    16 1.196327 0.000002 0.000008 0.003522 -0.023390 -0.299535
    17 3.883658 -0.050329 -0.431045 -0.089514 -0.188062 -0.324895
    18 1.719577 -0.000003 0.000001 -0.003261 0.021735 -0.299453
    19 1.209180 0.000002 0.000000 -0.003272 0.021726 -0.299387
    20 3.859828 -0.148938 -1.331275 -0.547805 -0.088526 -0.315897
    21 1.719428 0.000013 -0.000001 -0.012081 0.083230 -0.288818
    22 1.099668 -0.000015 0.000002 -0.012082 0.083224 -0.288717
    23 0.806020 -0.359832 -1.318338 1.375701 0.577229 -0.491590
    24 1.789781 0.000001 0.000006 0.000327 0.002125 0.324619
    25 1.206996 -0.000007 -0.000003 0.000003 -0.000006 0.000012
    26 2.033347 1.000764 1.937653 3.769479 -1.447297 0.758106
    27 6.028144 -0.000008 0.000002 -2.033801 -0.672042 -0.788679
    28 11.692554 0.000000 0.000001 -0.000009 0.000000 -0.628900
    29 11.481680 0.000005 -0.000037 1.677592 -0.323140 0.231191
    30 3.859710 -0.142394 -1.191978 -0.571793 0.100843 -0.256391
    31 1.312561 -0.000006 0.000002 -0.009948 0.067691 -0.292740
    32 0.729362 0.000000 -0.000007 -0.009951 0.067679 -0.292648
    33 3.942328 0.046781 -0.431442 -0.097571 0.031584 -0.326911
    34 1.539095 0.000000 0.000002 -0.003141 0.020954 -0.299456
    35 1.196328 -0.000001 0.000009 -0.003150 0.020968 -0.299714
    36 3.883694 -0.046754 0.431443 0.089821 0.185403 -0.326379
    37 1.719577 0.000000 0.000001 0.003623 -0.024186 -0.299278
    38 1.209184 0.000000 -0.000014 0.003619 -0.024176 -0.299226
    39 3.859860 -0.137939 1.332467 0.548047 0.085952 -0.316602
    40 1.719431 0.000008 0.000003 0.012382 -0.085549 -0.288123
    41 1.099665 -0.000015 -0.000002 0.012392 -0.085542 -0.288049
    42 0.806045 -0.348918 1.321257 -1.378781 -0.581119 -0.486928
    43 1.789777 0.000000 0.000000 -0.000047 -0.000331 0.324623
    44 1.206997 0.000005 0.000008 0.000002 0.000011 0.000040
    45 -3.890450 0.000009 0.000009 0.024750 -1.242638 -3.041566
    46 17.848164 0.000001 -0.000003 0.000000 0.000000 2.140789
    47 16.525265 -0.000013 -0.000002 0.024108 -0.156090 -2.081530
    48 6.879458 0.000001 0.000000 -0.081335 -0.002952 -0.584374
    49 3.890451 0.000000 0.000000 -2.862306 -0.823614 -0.620602
    50 17.848175 -0.000002 0.000000 -0.000001 0.000000 2.324775
    51 16.525251 0.000000 0.000011 0.671282 -0.125073 -1.103809
    52 6.879456 -0.000001 0.000000 -0.002147 -0.005289 -1.701388
time 2
    0 -1.498488 -0.722673 24.277419 2.043831 0.036283 -0.092755
    1 -0.074216 3.345132 -2.981901 1.547169 0.116600 1.552053
    2 4.018329 -0.000009 0.000000 0.003943 0.066227 0.490899
    3 3.518574 0.000001 -0.000002 -0.012878 0.047023 0.513748
    4 8.942637 -0.000001 0.000000 -0.027048 -0.053986 0.011383
    5 3.307275 -0.000003 -0.000004 3.141591 0.000000 0.400478
    6 3.593711 0.000001 -0.000001 0.114134 -0.120638 1.406201
    7 2.033355 1.000768 -1.937610 -3.543923 1.400768 1.053160
    8 6.028147 -0.000007 -0.000001 1.738399 0.444607 -0.981559
    9 11.692551 -0.000002 0.000010 0.000009 0.000000 -0.908315
    10 11.481697 0.000010 0.000005 -1.671774 0.325608 0.237892
    11 3.859674 -0.132572 1.193109 0.571248 -0.102940 -0.255576
    12 1.312563 0.000000 0.000001 0.010266 -0.069864 -0.292205
    13 0.729365 0.000000 -0.000008 0.010260 -0.069856 -0.292149
    14 3.942296 0.050324 0.431045 0.097901 -0.034246 -0.326656
    15 1.539095 0.000004 0.000000 0.003511 -0.023383 -0.299298
    16 1.196327 0.000002 0.000008 0.003522 -0.023390 -0.299535
    17 3.883658 -0.050329 -0.431045 -0.089514 -0.188062 -0.324895
    18 1.719577 -0.000003 0.000001 -0.003261 0.021735 -0.299453
    19 1.209180 0.000002 0.000000 -0.003272 0.021726 -0.299387
    20 3.859828 -0.148938 -1.331275 -0.547805 -0.088526 -0.315897
    21 1.719428 0.000013 -0.000001 -0.012081 0.083230 -0.288818
    22 1.099668 -0.000015 0.000002 -0.012082 0.083224 -0.288717
    23 0.806020 -0.359832 -1.318338 1.375701 0.577229 -0.491590
    24 1.789781 0.000001 0.000006 0.000327 0.002125 0.324619
    25 1.206996 -0.000007 -0.000003 0.000003 -0.000006 0.000012
    26 2.033347 1.000764 1.937653 4.383029 -1.470344 0.147699
    27 6.028144 -0.000008 0.000002 -1.959058 -0.782253 -0.972842
    28 11.692554 0.000000 0.000001 -0.000009 0.000000 -0.581396
    29 11.481680 0.000005 -0.000037 1.677198 -0.321727 0.229165
    30 3.859710 -0.142394 -1.191978 -0.571793 0.100843 -0.256391
    31 1.312561 -0.000006 0.000002 -0.009948 0.067691 -0.292740
    32 0.729362 0.000000 -0.000007 -0.009951 0.067679 -0.292648
    33 3.942328 0.046781 -0.431442 -0.097571 0.031584 -0.326911
    34 1.539095 0.000000 0.000002 -0.003141 0.020954 -0.299456
    35 1.196328 -0.000001 0.000009 -0.003150 0.020968 -0.299714
    36 3.883694 -0.046754 0.431443 0.089821 0.185403 -0.326379
    37 1.719577 0.000000 0.000001 0.003623 -0.024186 -0.299278
    38 1.209184 0.000000 -0.000014 0.003619 -0.024188 -0.299226
    39 3.859860 -0.137939 1.332467 0.548047 0.085952 -0.316602
    40 1.719431 0.000008 0.000003 0.012382 -0.085549 -0.288123
    41 1.099665 -0.000015 -0.000002 0.012392 -0.085542 -0.288049
    42 0.806045 -0.348918 1.321257 -1.378781 -0.581119 -0.486928
    43 1.789777 0.000000 0.000000 -0.000047 -0.000319 0.324623
    44 1.206997 0.000005 0.000008 0.000002 0.000011 0.000040
    45 -3.890450 0.000009 0.000009 -1.011468 -0.999113 -2.035110
    46 17.848164 0.000001 -0.000003 0.000000 0.000000 1.820272
    47 16.525265 -0.000013 -0.000002 0.103654 -0.135318 -2.201111
    48 6.879458 0.000001 0.000000 -0.081335 -0.002952 -0.584374
    49 3.890451 0.000000 0.000000 -2.766646 -0.934123 -0.682741
    50 17.848175 -0.000002 0.000000 -0.000001 0.000000 2.103250
    51 16.525251 0.000000 0.000011 0.552210 0.043196 -1.214850
    52 6.879456 -0.000001 0.000000 -0.003633 -0.005277 -1.422104
time 3
    0 -2.186009 -0.648452 27.707211 2.002670 0.038990 -0.095701
    1 -0.124999 3.345132 -2.981901 1.536657 0.086429 1.547180
    2 4.018329 -0.000009 0.000000 0.017929 0.041563 0.514738
    3 3.518574 0.000001 -0.000002 0.004708 0.018595 0.577148
    4 8.942637 -0.000001 0.000000 -0.025514 -0.065946 -0.005815
    5 3.307275 -0.000003 -0.000004 3.141591 0.000000 0.400478
    6 3.593711 0.000001 -0.000001 0.038628 -0.160021 1.449638
    7 2.033355 1.000768 -1.937610 -3.910821 1.397838 0.685201
    8 6.028147 -0.000007 -0.000001 1.735826 0.576882 -0.973171
    9 11.692551 -0.000002 0.000010 0.000009 0.000000 -0.841169
    10 11.481697 0.000010 0.000005 -1.672173 0.327483 0.241499
    11 3.859674 -0.132572 1.193109 0.571248 -0.102940 -0.255576
    12 1.312563 0.000000 0.000001 0.010266 -0.069864 -0.292205
    13 0.729365 0.000000 -0.000008 0.010260 -0.069856 -0.292149
    14 3.942296 0.050324 0.431045 0.097901 -0.034246 -0.326656
    15 1.539095 0.000004 0.000000 0.003511 -0.023383 -0.299298
    16 1.196327 0.000002 0.000008 0.003522 -0.023390 -0.299535
    17 3.883658 -0.050329 -0.431045 -0.089514 -0.188062 -0.324895
    18 1.719577 -0.000003 0.000001 -0.003261 0.021735 -0.299453
    19 1.209180 0.000002 0.000000 -0.003272 0.021726 -0.299387
    20 3.859828 -0.148938 -1.331275 -0.547805 -0.088538 -0.315897
    21 1.719428 0.000013 -0.000001 -0.012081 0.083230 -0.288818
    22 1.099668 -0.000015 0.000002 -0.012082 0.083224 -0.288717
    23 0.806020 -0.359832 -1.318338 1.375701 0.577229 -0.491590
    24 1.789781 0.000001 0.000006 0.000327 0.002125 0.324619
    25 1.206996 -0.000007 -0.000003 0.000003 -0.000006 0.000012
    26 2.033347 1.000764 1.937653 -1.526559 -1.456367 6.059478
    27 6.028144 -0.000008 0.000002 -1.893109 -0.890997 -1.068521
    28 11.692554 0.000000 0.000001 -0.000009 0.000000 -0.572579
    29 11.481680 0.000005 -0.000037 1.676566 -0.319609 0.227729
    30 3.859710 -0.142394 -1.191978 -0.571793 0.100843 -0.256391
    31 1.312561 -0.000006 0.000002 -0.009948 0.067691 -0.292740
    32 0.729362 0.000000 -0.000007 -0.009951 0.067679 -0.292648
    33 3.942328 0.046781 -0.431442 -0.097571 0.031584 -0.326911
    34 1.539095 0.000000 0.000002 -0.003141 0.020954 -0.299456
    35 1.196328 -0.000001 0.000009 -0.003150 0.020968 -0.299714
    36 3.883694 -0.046754 0.431443 0.089809 0.185403 -0.326379
    37 1.719577 0.000000 0.000001 0.003623 -0.024186 -0.299278
    38 1.209184 0.000000 -0.000014 0.003619 -0.024176 -0.299226
    39 3.859860 -0.137939 1.332467 0.548047 0.085952 -0.316602
    40 1.719431 0.000008 0.000003 0.012382 -0.085549 -0.288123
    41 1.099665 -0.000015 -0.000002 0.012380 -0.085542 -0.288049
    42 0.806045 -0.348918 1.321257 -1.378781 -0.581119 -0.486928
    43 1.789777 0.000000 0.000000 -0.000047 -0.000331 0.324623
    44 1.206997 0.000005 0.000008 0.000002 0.000011 0.000040
    45 -3.890450 0.000009 0.000009 -1.306251 -0.645149 -1.753272
    46 17.848164 0.000001 -0.000003 0.000000 0.000000 1.404102
    47 16.525265 -0.000013 -0.000002 0.145147 -0.063659 -2.147990
    48 6.879458 0.000001 0.000000 -0.081335 -0.002952 -0.584374
    49 3.890451 0.000000 0.000000 -2.603506 -1.028335 -0.801006
    50 17.848175 -0.000002 0.000000 -0.000001 0.000000 1.891111
    51 16.525251 0.000000 0.000011 0.394553 0.112898 -1.339512
    52 6.879456 -0.000001 0.000000 -0.005059 -0.004846 -1.142859
time 4
    0 -2.541489 -0.523448 28.738492 2.016861 0.064811 -0.027286
    1 -0.222658 3.337319 -2.981901 1.529224 0.086362 1.565625
    2 4.018329 -0.000009 0.000000 0.009408 0.052972 0.512680
    3 3.518574 0.000001 -0.000002 -0.005398 0.030448 0.577439
    4 8.942637 -0.000001 0.000000 -0.030931 -0.065910 0.000872
    5 3.307275 -0.000003 -0.000004 3.141591 0.000000 0.400478
    6 3.593711 0.000001 -0.000001 0.025854 -0.196631 1.456813
    7 2.033355 1.000768 -1.937610 -4.035316 1.405678 0.561846
    8 6.028147 -0.000007 -0.000001 1.739020 0.609104 -0.960588
    9 11.692551 -0.000002 0.000010 0.000009 0.000000 -0.891472
    10 11.481697 0.000010 0.000005 -1.672639 0.331958 0.247676
    11 3.859674 -0.132572 1.193109 0.569593 -0.108477 -0.237064
    12 1.312563 0.000000 0.000001 0.009355 -0.066801 -0.279006
    13 0.729365 0.000000 -0.000008 0.009349 -0.066788 -0.278943
    14 3.942296 0.050324 0.431045 0.095948 -0.035840 -0.313236
    15 1.539095 0.000004 0.000000 0.003211 -0.022353 -0.285804
    16 1.196327 0.000002 0.000008 0.003211 -0.022360 -0.286031
    17 3.883658 -0.050329 -0.431045 -0.090833 -0.191034 -0.311105
    18 1.719577 -0.000003 0.000001 -0.002973 0.020788 -0.285958
    19 1.209180 0.000002 0.000000 -0.002972 0.020779 -0.285897
    20 3.859828 -0.148938 -1.331275 -0.549267 -0.088166 -0.302497
    21 1.719428 0.000013 -0.000001 -0.011026 0.079575 -0.275741
    22 1.099668 -0.000015 0.000002 -0.011015 0.079569 -0.275641
    23 0.806020 -0.359832 -1.318338 1.378420 0.583365 -0.486041
    24 1.789781 0.000001 0.000006 0.000339 0.002149 0.326848
    25 1.206996 -0.000007 -0.000003 0.000003 -0.000030 -0.003503
    26 2.033347 1.000764 1.937653 -1.524644 -1.439248 6.058041
    27 6.028144 -0.000008 0.000002 -1.878581 -0.935101 -1.091413
    28 11.692554 0.000000 0.000001 -0.000009 0.000000 -0.603894
    29 11.481680 0.000005 -0.000037 1.670332 -0.314184 0.234063
    30 3.859710 -0.142394 -1.191978 -0.570184 0.106524 -0.237877
    31 1.312561 -0.000006 0.000002 -0.009073 0.064719 -0.279481
    32 0.729362 0.000000 -0.000007 -0.009076 0.064707 -0.279427
    33 3.942328 0.046781 -0.431442 -0.095641 0.033285 -0.313502
    34 1.539095 0.000000 0.000002 -0.002865 0.020031 -0.285960
    35 1.196328 -0.000001 0.000009 -0.002874 0.020046 -0.286206
    36 3.883694 -0.046754 0.431443 0.091079 0.188483 -0.312631
    37 1.719577 0.000000 0.000001 0.003312 -0.023119 -0.285794
    38 1.209184 0.000000 -0.000014 0.003320 -0.023121 -0.285700
    39 3.859860 -0.137939 1.332467 0.549473 0.085688 -0.303223
    40 1.719431 0.000008 0.000003 0.011292 -0.081786 -0.275090
    41 1.099665 -0.000015 -0.000002 0.011302 -0.081790 -0.275033
    42 0.806045 -0.348918 1.321257 -1.381563 -0.587219 -0.481266
    43 1.789777 0.000000 0.000000 -0.000047 -0.000319 0.326853
    44 1.206997 0.000005 0.000008 0.000002 0.000023 -0.003482
    45 -3.890450 0.000009 0.000009 -1.306251 -0.727204 -1.690271
    46 17.848164 0.000001 -0.000003 0.000000 0.000000 1.558754
    47 16.525265 -0.000013 -0.000002 0.123840 0.035354 -1.612715
    48 6.879458 0.000001 0.000000 -0.079010 -0.004882 -1.160299
    49 3.890451 0.000000 0.000000 -2.279909 -1.002788 -1.014913
    50 17.848175 -0.000002 0.000000 -0.000001 0.000000 1.787256
    51 16.525251 0.000000 0.000011 0.203209 0.101278 -1.422793
    52 6.879456 -0.000001 0.000000 -0.005071 -0.004846 -1.142859
time 5
    0 -2.861811 -0.363287 29.379137 2.031171 0.080504 0.034667
    1 -0.285160 3.337319 -2.981901 1.521950 0.086294 1.573282
    2 4.018329 -0.000009 0.000000 0.000360 0.066958 0.510638
    3 3.518574 0.000001 -0.000002 -0.015849 0.045237 0.577658
    4 8.942637 -0.000001 0.000000 -0.035401 -0.065047 0.007176
    5 3.307275 -0.000003 -0.000004 3.141591 0.000000 0.400478
    6 3.593711 0.000001 -0.000001 0.022923 -0.226417 1.460835
    7 2.033355 1.000768 -1.937610 -4.075987 1.424410 0.522771
    8 6.028147 -0.000007 -0.000001 1.793316 0.618889 -0.951268
    9 11.692551 -0.000002 0.000010 0.000009 0.000000 -0.990423
    10 11.481697 0.000010 0.000005 -1.671907 0.336399 0.251321
    11 3.859674 -0.132572 1.193109 0.565979 -0.119443 -0.199835
    12 1.312563 0.000000 0.000001 0.007677 -0.060631 -0.252609
    13 0.729365 0.000000 -0.000008 0.007671 -0.060628 -0.252530
    14 3.942296 0.050324 0.431045 0.091981 -0.038956 -0.286343
    15 1.539095 0.000004 0.000000 0.002636 -0.020291 -0.258781
    16 1.196327 0.000002 0.000008 0.002636 -0.020298 -0.259055
    17 3.883658 -0.050329 -0.431045 -0.093601 -0.196907 -0.283524
    18 1.719577 -0.000003 0.000001 -0.002434 0.018870 -0.258967
    19 1.209180 0.000002 0.000000 -0.002445 0.018862 -0.258917
    20 3.859828 -0.148938 -1.331275 -0.552192 -0.087375 -0.275750
    21 1.719428 0.000013 -0.000001 -0.009037 0.072229 -0.249619
    22 1.099668 -0.000015 0.000002 -0.009038 0.072235 -0.249522
    23 0.806020 -0.359832 -1.318338 1.384080 0.595637 -0.474774
    24 1.789781 0.000001 0.000006 0.000351 0.002173 0.331318
    25 1.206996 -0.000007 -0.000003 0.000003 -0.000078 -0.010587
    26 2.033347 1.000764 1.937653 4.645800 -1.422130 -0.113096
    27 6.028144 -0.000008 0.000002 -1.908783 -0.995829 -1.028063
    28 11.692554 0.000000 0.000001 -0.000009 0.000000 -0.658694
    29 11.481680 0.000005 -0.000037 1.659600 -0.309056 0.252843
    30 3.859710 -0.142394 -1.191978 -0.566646 0.117789 -0.200766
    31 1.312561 -0.000006 0.000002 -0.007451 0.058751 -0.253042
    32 0.729362 0.000000 -0.000007 -0.007446 0.058739 -0.252986
    33 3.942328 0.046781 -0.431442 -0.091734 0.036605 -0.286660
    34 1.539095 0.000000 0.000002 -0.002350 0.018185 -0.258932
    35 1.196328 -0.000001 0.000009 -0.002359 0.018200 -0.259189
    36 3.883694 -0.046754 0.431443 0.093788 0.194571 -0.285105
    37 1.719577 0.000000 0.000001 0.002713 -0.020986 -0.258788
    38 1.209184 0.000000 -0.000014 0.002721 -0.020988 -0.258759
    39 3.859860 -0.137939 1.332467 0.552326 0.085113 -0.276465
    40 1.719431 0.000008 0.000003 0.009266 -0.074235 -0.249023
    41 1.099665 -0.000015 -0.000002 0.009276 -0.074240 -0.248967
    42 0.806045 -0.348918 1.321257 -1.387348 -0.599418 -0.469868
    43 1.789777 0.000000 0.000000 -0.000047 -0.000331 0.331314
    44 1.206997 0.000005 0.000008 0.000002 0.000023 -0.010563
    45 -3.890450 0.000009 0.000009 -1.312248 -0.712124 -1.639253
    46 17.848164 0.000001 -0.000003 0.000000 0.000000 1.587766
    47 16.525265 -0.000013 -0.000002 0.147414 0.099423 -1.481924
    48 6.879458 0.000001 0.000000 -0.080316 -0.004079 -0.872336
    49 3.890451 0.000000 0.000000 -2.005581 -0.950812 -1.180426
    50 17.848175 -0.000002 0.000000 -0.000001 0.000000 1.708558
    51 16.525251 0.000000 0.000011 0.118116 0.101199 -1.467295
    52 6.879456 -0.000001 0.000000 -0.005059 -0.004846 -1.142859
time 6
    0 -3.139163 -0.183594 29.875246 2.045892 0.095954 0.093294
    1 -0.347662 3.333413 -2.981901 1.516906 0.111472 1.584767
    2 4.018329 -0.000009 0.000000 -0.012224 0.082790 0.477451
    3 3.518574 0.000001 -0.000002 -0.027931 0.062555 0.547298
    4 8.942637 -0.000001 0.000000 -0.036037 -0.061955 0.014846
    5 3.307275 -0.000003 -0.000004 3.141591 0.000000 0.400478
    6 3.593711 0.000001 -0.000001 0.030404 -0.240173 1.381394
    7 2.033355 1.000768 -1.937610 -4.048109 1.450405 0.551981
    8 6.028147 -0.000007 -0.000001 1.807512 0.549005 -0.976060
    9 11.692551 -0.000002 0.000010 0.000009 0.000000 -1.114940
    10 11.481697 0.000010 0.000005 -1.673703 0.339624 0.253201
    11 3.859674 -0.132572 1.193109 0.563000 -0.127569 -0.171827
    12 1.312563 0.000000 0.000001 0.006527 -0.055993 -0.232826
    13 0.729365 0.000000 -0.000008 0.006521 -0.055990 -0.232806
    14 3.942296 0.050324 0.431045 0.088937 -0.041209 -0.266186
    15 1.539095 0.000004 0.000000 0.002240 -0.018733 -0.238642
    16 1.196327 0.000002 0.000008 0.002240 -0.018752 -0.238815
    17 3.883658 -0.050329 -0.431045 -0.095794 -0.201257 -0.262741
    18 1.719577 -0.000003 0.000001 -0.002074 0.017420 -0.238706
    19 1.209180 0.000002 0.000000 -0.002073 0.017412 -0.238661
    20 3.859828 -0.148938 -1.331275 -0.554361 -0.086740 -0.255663
    21 1.719428 0.000013 -0.000001 -0.007682 0.066692 -0.230052
    22 1.099668 -0.000015 0.000002 -0.007671 0.066686 -0.230040
    23 0.806020 -0.359832 -1.318338 1.388416 0.604803 -0.466220
    24 1.789781 0.000001 0.000006 0.000351 0.002197 0.334662
    25 1.206996 -0.000007 -0.000003 0.000003 -0.000114 -0.015887
    26 2.033347 1.000764 1.937653 4.509818 -1.403676 0.021325
    27 6.028144 -0.000008 0.000002 -1.863192 -0.995145 -1.015262
    28 11.692554 0.000000 0.000001 -0.000009 0.000000 -0.727631
    29 11.481680 0.000005 -0.000037 1.651156 -0.304931 0.267278
    30 3.859710 -0.142394 -1.191978 -0.563706 0.126154 -0.172858
    31 1.312561 -0.000006 0.000002 -0.006332 0.054245 -0.233232
    32 0.729362 0.000000 -0.000007 -0.006332 0.054233 -0.233243
    33 3.942328 0.046781 -0.431442 -0.088750 0.039038 -0.266521
    34 1.539095 0.000000 0.000002 -0.001990 0.016783 -0.238782
    35 1.196328 -0.000001 0.000009 -0.002011 0.016810 -0.238957
    36 3.883694 -0.046754 0.431443 0.095909 0.199089 -0.264394
    37 1.719577 0.000000 0.000001 0.002305 -0.019380 -0.238579
    38 1.209184 0.000000 -0.000014 0.002301 -0.019382 -0.238525
    39 3.859860 -0.137939 1.332467 0.554459 0.084633 -0.256381
    40 1.719431 0.000008 0.000003 0.007876 -0.068543 -0.229527
    41 1.099665 -0.000015 -0.000002 0.007886 -0.068535 -0.229515
    42 0.806045 -0.348918 1.321257 -1.391741 -0.608530 -0.461191
    43 1.789777 0.000000 0.000000 -0.000047 -0.000319 0.334659
    44 1.206997 0.000005 0.000008 0.000002 0.000035 -0.015882
    45 -3.890450 0.000009 0.000009 -1.094075 -1.172565 -1.796869
    46 17.848164 0.000001 -0.000003 0.000000 0.000000 1.829130
    47 16.525265 -0.000013 -0.000002 0.127678 0.198660 -1.239641
    48 6.879458 0.000001 0.000000 -0.081335 -0.002952 -0.584374
    49 3.890451 0.000000 0.000000 -1.796623 -0.869570 -1.285328
    50 17.848175 -0.000002 0.000000 -0.000001 0.000000 1.625655
    51 16.525251 0.000000 0.000011 0.045234 0.093348 -1.509668
    52 6.879456 -0.000001 0.000000 -0.005071 -0.004846 -1.142859
time 7
    0 -3.455579 -0.011714 30.191662 2.065502 0.111191 0.144700
    1 -0.406257 3.321693 -2.981901 1.511703 0.141304 1.596400
    2 4.018329 -0.000009 0.000000 -0.026881 0.099017 0.438272
    3 3.518574 0.000001 -0.000002 -0.041830 0.080603 0.511126
    4 8.942637 -0.000001 0.000000 -0.036240 -0.058384 0.023008
    5 3.307275 -0.000003 -0.000004 3.141591 0.000000 0.400478
    6 3.593711 0.000001 -0.000001 0.049258 -0.243052 1.291753
    7 2.033355 1.000768 -1.937610 -3.949773 1.477554 0.651489
    8 6.028147 -0.000007 -0.000001 1.812835 0.463940 -0.991532
    9 11.692551 -0.000002 0.000010 0.000009 0.000000 -1.239006
    10 11.481697 0.000010 0.000005 -1.680488 0.339262 0.252319
    11 3.859674 -0.132572 1.193109 0.564021 -0.124872 -0.181186
    12 1.312563 0.000000 0.000001 0.006898 -0.057539 -0.239410
    13 0.729365 0.000000 -0.000008 0.006892 -0.057524 -0.239426
    14 3.942296 0.050324 0.431045 0.089956 -0.040466 -0.272923
    15 1.539095 0.000004 0.000000 0.002360 -0.019261 -0.245389
    16 1.196327 0.000002 0.000008 0.002372 -0.019268 -0.245550
    17 3.883658 -0.050329 -0.431045 -0.095051 -0.199807 -0.269685
    18 1.719577 -0.000003 0.000001 -0.002182 0.017912 -0.245471
    19 1.209180 0.000002 0.000000 -0.002181 0.017891 -0.245427
    20 3.859828 -0.148938 -1.331275 -0.553642 -0.086956 -0.262376
    21 1.719428 0.000013 -0.000001 -0.008114 0.068537 -0.236574
    22 1.099668 -0.000015 0.000002 -0.008115 0.068531 -0.236545
    23 0.806020 -0.359832 -1.318338 1.386946 0.601748 -0.469079
    24 1.789781 0.000001 0.000006 0.000351 0.002185 0.333547
    25 1.206996 -0.000007 -0.000003 0.000003 -0.000102 -0.014129
    26 2.033347 1.000764 1.937653 4.404862 -1.385851 0.124417
    27 6.028144 -0.000008 0.000002 -1.800206 -0.972555 -1.028343
    28 11.692554 0.000000 0.000001 -0.000009 0.000000 -0.803941
    29 11.481680 0.000005 -0.000037 1.651551 -0.304151 0.262417
    30 3.859710 -0.142394 -1.191978 -0.564715 0.123374 -0.182170
    31 1.312561 -0.000006 0.000002 -0.006692 0.055743 -0.239862
    32 0.729362 0.000000 -0.000007 -0.006691 0.055743 -0.239835
    33 3.942328 0.046781 -0.431442 -0.089757 0.038235 -0.273201
    34 1.539095 0.000000 0.000002 -0.002110 0.017251 -0.245549
    35 1.196328 -0.000001 0.000009 -0.002119 0.017265 -0.245712
    36 3.883694 -0.046754 0.431443 0.095190 0.197591 -0.271298
    37 1.719577 0.000000 0.000001 0.002437 -0.019919 -0.245303
    38 1.209184 0.000000 -0.000014 0.002445 -0.019921 -0.245270
    39 3.859860 -0.137939 1.332467 0.553752 0.084801 -0.263054
    40 1.719431 0.000008 0.000003 0.008319 -0.070448 -0.236026
    41 1.099665 -0.000015 -0.000002 0.008317 -0.070441 -0.236022
    42 0.806045 -0.348918 1.321257 -1.390277 -0.605493 -0.464059
    43 1.789777 0.000000 0.000000 -0.000047 -0.000319 0.333544
    44 1.206997 0.000005 0.000008 0.000002 0.000035 -0.014121
    45 -3.890450 0.000009 0.000009 -0.841862 -1.324557 -2.030627
    46 17.848164 0.000001 -0.000003 0.000000 0.000000 1.757696
    47 16.525265 -0.000013 -0.000002 0.060866 0.082474 -1.324170
    48 6.879458 0.000001 0.000000 -0.081335 -0.002952 -0.584374
    49 3.890451 0.000000 0.000000 -1.806304 -0.752356 -1.228916
    50 17.848175 -0.000002 0.000000 -0.000001 0.000000 1.528259
    51 16.525251 0.000000 0.000011 0.066660 0.160218 -1.540124
    52 6.879456 -0.000001 0.000000 -0.005071 -0.004846 -1.142859
time 8
    0 -3.611834 0.125009 30.496359 2.087761 0.106751 0.172351
    1 -0.398445 3.321693 -2.981901 1.507137 0.169647 1.587501
    2 4.018329 -0.000009 0.000000 -0.039765 0.113147 0.400735
    3 3.518574 0.000001 -0.000002 -0.053939 0.096411 0.476308
    4 8.942637 -0.000001 0.000000 -0.035881 -0.055172 0.030450
    5 3.307275 -0.000003 -0.000004 3.141591 0.000000 0.400478
    6 3.593711 0.000001 -0.000001 0.069513 -0.236299 1.211990
    7 2.033355 1.000768 -1.937610 -3.790431 1.499423 0.811621
    8 6.028147 -0.000007 -0.000001 1.800591 0.387133 -0.985007
    9 11.692551 -0.000002 0.000010 0.000009 0.000000 -1.331942
    10 11.481697 0.000010 0.000005 -1.690400 0.331234 0.246295
    11 3.859674 -0.132572 1.193109 0.571248 -0.102940 -0.255576
    12 1.312563 0.000000 0.000001 0.010266 -0.069864 -0.292205
    13 0.729365 0.000000 -0.000008 0.010260 -0.069856 -0.292149
    14 3.942296 0.050324 0.431045 0.097901 -0.034246 -0.326656
    15 1.539095 0.000004 0.000000 0.003511 -0.023383 -0.299298
    16 1.196327 0.000002 0.000008 0.003522 -0.023390 -0.299535
    17 3.883658 -0.050329 -0.431045 -0.089514 -0.188062 -0.324895
    18 1.719577 -0.000003 0.000001 -0.003261 0.021735 -0.299453
    19 1.209180 0.000002 0.000000 -0.003272 0.021726 -0.299387
    20 3.859828 -0.148938 -1.331275 -0.547805 -0.088538 -0.315897
    21 1.719428 0.000013 -0.000001 -0.012081 0.083230 -0.288818
    22 1.099668 -0.000015 0.000002 -0.012082 0.083224 -0.288717
    23 0.806020 -0.359832 -1.318338 1.375701 0.577229 -0.491590
    24 1.789781 0.000001 0.000006 0.000327 0.002125 0.324619
    25 1.206996 -0.000007 -0.000003 0.000003 -0.000006 0.000012
    26 2.033347 1.000764 1.937653 4.360812 -1.374033 0.167340
    27 6.028144 -0.000008 0.000002 -1.721545 -0.933683 -1.084966
    28 11.692554 0.000000 0.000001 -0.000009 0.000000 -0.879795
    29 11.481680 0.000005 -0.000037 1.669306 -0.310542 0.225262
    30 3.859710 -0.142394 -1.191978 -0.571793 0.100843 -0.256391
    31 1.312561 -0.000006 0.000002 -0.009948 0.067691 -0.292740
    32 0.729362 0.000000 -0.000007 -0.009951 0.067679 -0.292648
    33 3.942328 0.046781 -0.431442 -0.097571 0.031584 -0.326911
    34 1.539095 0.000000 0.000002 -0.003141 0.020954 -0.299456
    35 1.196328 -0.000001 0.000009 -0.003150 0.020968 -0.299714
    36 3.883694 -0.046754 0.431443 0.089821 0.185403 -0.326379
    37 1.719577 0.000000 0.000001 0.003623 -0.024186 -0.299278
    38 1.209184 0.000000 -0.000014 0.003619 -0.024176 -0.299226
    39 3.859860 -0.137939 1.332467 0.548047 0.085952 -0.316602
    40 1.719431 0.000008 0.000003 0.012382 -0.085549 -0.288123
    41 1.099665 -0.000015 -0.000002 0.012392 -0.085542 -0.288049
    42 0.806045 -0.348918 1.321257 -1.378781 -0.581119 -0.486928
    43 1.789777 0.000000 0.000000 -0.000047 -0.000331 0.324623
    44 1.206997 0.000005 0.000008 0.000002 0.000011 0.000040
    45 -3.890450 0.000009 0.000009 -0.194944 -1.403286 -2.680494
    46 17.848164 0.000001 -0.000003 0.000000 0.000000 1.616453
    47 16.525265 -0.000013 -0.000002 0.125609 -0.026982 -1.426060
    48 6.879458 0.000001 0.000000 -0.081335 -0.002952 -0.584374
    49 3.890451 0.000000 0.000000 -1.760966 -0.616691 -1.244761
    50 17.848175 -0.000002 0.000000 -0.000001 0.000000 1.377847
    51 16.525251 0.000000 0.000011 0.049183 0.185197 -1.553082
    52 6.879456 -0.000001 0.000000 -0.005059 -0.004846 -1.142859
time 9
    0 -3.646991 0.187511 30.742460 2.111139 0.094190 0.176532
    1 -0.351568 3.329506 -2.981901 1.503845 0.190409 1.570846
    2 4.018329 -0.000009 0.000000 -0.046632 0.123118 0.372679
    3 3.518574 0.000001 -0.000002 -0.060172 0.107401 0.450203
    4 8.942637 -0.000001 0.000000 -0.034838 -0.053123 0.035951
    5 3.307275 -0.000003 -0.000004 3.141591 0.000000 0.400478
    6 3.593711 0.000001 -0.000001 0.084736 -0.222419 1.161056
    7 2.033355 1.000768 -1.937610 -3.495901 1.513946 1.106793
    8 6.028147 -0.000007 -0.000001 1.767410 0.336772 -0.964223
    9 11.692551 -0.000002 0.000010 0.000009 0.000000 -1.387659
    10 11.481697 0.000010 0.000005 -1.710423 0.312249 0.233671
    11 3.859674 -0.132572 1.193109 0.582504 -0.040669 -0.458662
    12 1.312563 0.000000 0.000001 0.022826 -0.102609 -0.437725
    13 0.729365 0.000000 -0.000008 0.022820 -0.102598 -0.437658
    14 3.942296 0.050324 0.431045 0.117892 -0.015059 -0.473963
    15 1.539095 0.000004 0.000000 0.007801 -0.034313 -0.447562
    16 1.196327 0.000002 0.000008 0.007813 -0.034320 -0.447747
    17 3.883658 -0.050329 -0.431045 -0.077829 -0.154481 -0.475604
    18 1.719577 -0.000003 0.000001 -0.007240 0.031910 -0.447726
    19 1.209180 0.000002 0.000000 -0.007251 0.031889 -0.447732
    20 3.859828 -0.148938 -1.331275 -0.531422 -0.091234 -0.463008
    21 1.719428 0.000013 -0.000001 -0.026894 0.122300 -0.432895
    22 1.099668 -0.000015 0.000002 -0.026895 0.122294 -0.432891
    23 0.806020 -0.359832 -1.318338 1.348911 0.508825 -0.550082
    24 1.789781 0.000001 0.000006 0.000279 0.001969 0.300074
    25 1.206996 -0.000007 -0.000003 0.000003 0.000245 0.038894
    26 2.033347 1.000764 1.937653 4.377283 -1.372580 0.151244
    27 6.028144 -0.000008 0.000002 -1.660183 -0.877550 -1.150091
    28 11.692554 0.000000 0.000001 -0.000009 0.000000 -0.955572
    29 11.481680 0.000005 -0.000037 1.721231 -0.323697 0.118215
    30 3.859710 -0.142394 -1.191978 -0.582409 0.036989 -0.458930
    31 1.312561 -0.000006 0.000002 -0.022146 0.099415 -0.438430
    32 0.729362 0.000000 -0.000007 -0.022140 0.099403 -0.438355
    33 3.942328 0.046781 -0.431442 -0.117070 0.011270 -0.474063
    34 1.539095 0.000000 0.000002 -0.006988 0.030745 -0.447831
    35 1.196328 -0.000001 0.000009 -0.006997 0.030760 -0.448000
    36 3.883694 -0.046754 0.431443 0.078663 0.150671 -0.476772
    37 1.719577 0.000000 0.000001 0.008058 -0.035487 -0.447464
    38 1.209184 0.000000 -0.000014 0.008066 -0.035489 -0.447460
    39 3.859860 -0.137939 1.332467 0.532132 0.087522 -0.463673
    40 1.719431 0.000008 0.000003 0.027591 -0.125709 -0.431966
    41 1.099665 -0.000015 -0.000002 0.027601 -0.125702 -0.431996
    42 0.806045 -0.348918 1.321257 -1.351323 -0.513153 -0.546197
    43 1.789777 0.000000 0.000000 -0.000035 -0.000295 0.300065
    44 1.206997 0.000005 0.000008 0.000002 -0.000025 0.038896
    45 -3.890450 0.000009 0.000009 0.373084 -1.390074 -3.190834
    46 17.848164 0.000001 -0.000003 0.000000 0.000000 1.393619
    47 16.525265 -0.000013 -0.000002 0.097599 -0.038375 -1.478092
    48 6.879458 0.000001 0.000000 -0.081335 -0.002952 -0.584374
    49 3.890451 0.000000 0.000000 -1.713903 -0.444467 -1.284755
    50 17.848175 -0.000002 0.000000 -0.000001 0.000000 1.156696
    51 16.525251 0.000000 0.000011 0.018812 0.184435 -1.536104
    52 6.879456 -0.000001 0.000000 -0.005059 -0.004846 -1.142859
time 10
    0 -3.553238 0.140634 31.051063 2.135694 0.090358 0.165130
    1 -0.339849 3.329506 -2.981901 1.501669 0.203015 1.565675
    2 4.018329 -0.000009 0.000000 -0.046980 0.130069 0.353521
    3 3.518574 0.000001 -0.000002 -0.059960 0.114747 0.432415
    4 8.942637 -0.000001 0.000000 -0.032789 -0.052068 0.040146
    5 3.307275 -0.000003 -0.000004 3.141591 0.000000 0.400478
    6 3.593711 0.000001 -0.000001 0.096154 -0.200737 1.131294
    7 2.033355 1.000768 -1.937610 -3.000403 1.515597 1.602991
    8 6.028147 -0.000007 -0.000001 1.726776 0.304741 -0.941761
    9 11.692551 -0.000002 0.000010 0.000009 0.000000 -1.426232
    10 11.481697 0.000010 0.000005 -1.742021 0.285434 0.217211
    11 3.859674 -0.132572 1.193109 0.575028 0.055292 -0.767082
    12 1.312563 0.000000 0.000001 0.050930 -0.148146 -0.661400
    13 0.729365 0.000000 -0.000008 0.050923 -0.148127 -0.661381
    14 3.942296 0.050324 0.431045 0.142388 0.019277 -0.697740
    15 1.539095 0.000004 0.000000 0.017317 -0.049450 -0.673827
    16 1.196327 0.000002 0.000008 0.017329 -0.049457 -0.673998
    17 3.883658 -0.050329 -0.431045 -0.070135 -0.100946 -0.703242
    18 1.719577 -0.000003 0.000001 -0.016096 0.045980 -0.674012
    19 1.209180 0.000002 0.000000 -0.016095 0.045971 -0.674014
    20 3.859828 -0.148938 -1.331275 -0.506159 -0.090695 -0.687291
    21 1.719428 0.000013 -0.000001 -0.060187 0.176698 -0.655370
    22 1.099668 -0.000015 0.000002 -0.060176 0.176692 -0.655357
    23 0.806020 -0.359832 -1.318338 1.318152 0.402392 -0.631715
    24 1.789781 0.000001 0.000006 0.000207 0.001730 0.262658
    25 1.206996 -0.000007 -0.000003 0.000015 0.000653 0.098122
    26 2.033347 1.000764 1.937653 4.426984 -1.379098 0.102573
    27 6.028144 -0.000008 0.000002 -1.627591 -0.808363 -1.192791
    28 11.692554 0.000000 0.000001 -0.000009 0.000000 -1.037050
    29 11.481680 0.000005 -0.000037 1.801802 -0.331686 -0.049039
    30 3.859710 -0.142394 -1.191978 -0.573474 -0.061057 -0.766767
    31 1.312561 -0.000006 0.000002 -0.049399 0.143506 -0.662301
    32 0.729362 0.000000 -0.000007 -0.049393 0.143494 -0.662299
    33 3.942328 0.046781 -0.431442 -0.140536 -0.024600 -0.697612
    34 1.539095 0.000000 0.000002 -0.015521 0.044324 -0.674152
    35 1.196328 -0.000001 0.000009 -0.015530 0.044326 -0.674324
    36 3.883694 -0.046754 0.431443 0.072084 0.095566 -0.703909
    37 1.719577 0.000000 0.000001 0.017909 -0.051151 -0.673708
    38 1.209184 0.000000 -0.000014 0.017905 -0.051153 -0.673728
    39 3.859860 -0.137939 1.332467 0.507875 0.085424 -0.687825
    40 1.719431 0.000008 0.000003 0.061759 -0.181665 -0.654192
    41 1.099665 -0.000015 -0.000002 0.061769 -0.181658 -0.654212
    42 0.806045 -0.348918 1.321257 -1.319764 -0.407286 -0.628924
    43 1.789777 0.000000 0.000000 -0.000023 -0.000247 0.262645
    44 1.206997 0.000005 0.000008 0.000002 -0.000084 0.098148
    45 -3.890450 0.000009 0.000009 0.386767 -1.371804 -3.126906
    46 17.848164 0.000001 -0.000003 0.000000 0.000000 1.201991
    47 16.525265 -0.000013 -0.000002 0.155962 -0.205168 -1.441433
    48 6.879458 0.000001 0.000000 -0.081335 -0.002952 -0.584374
    49 3.890451 0.000000 0.000000 -1.676712 -0.207787 -1.325990
    50 17.848175 -0.000002 0.000000 -0.000001 0.000000 0.803832
    51 16.525251 0.000000 0.000011 -0.015337 0.162718 -1.450979
    52 6.879456 -0.000001 0.000000 -0.005059 -0.004846 -1.142859
time 11
    0 -3.158695 -0.074216 31.262007 2.163018 0.099847 0.146696
    1 -0.371100 3.325600 -2.981901 1.499916 0.211882 1.574376
    2 4.018329 -0.000009 0.000000 -0.043936 0.136169 0.337450
    3 3.518574 0.000001 -0.000002 -0.056233 0.120979 0.417600
    4 8.942637 -0.000001 0.000000 -0.029865 -0.051337 0.044149
    5 3.307275 -0.000003 -0.000004 3.141591 0.000000 0.400478
    6 3.593711 0.000001 -0.000001 0.109847 -0.167005 1.111699
    7 2.033355 1.000768 -1.937610 -2.593216 1.501733 2.011078
    8 6.028147 -0.000007 -0.000001 1.680997 0.276291 -0.922002
    9 11.692551 -0.000002 0.000010 0.000009 0.000000 -1.458339
    10 11.481697 0.000010 0.000005 -1.775680 0.258915 0.202553
    11 3.859674 -0.132572 1.193109 0.537868 0.145356 -1.082744
    12 1.312563 0.000000 0.000001 0.089292 -0.186682 -0.890593
    13 0.729365 0.000000 -0.000008 0.089274 -0.186682 -0.890564
    14 3.942296 0.050324 0.431045 0.158795 0.058647 -0.923463
    15 1.539095 0.000004 0.000000 0.030164 -0.062202 -0.903056
    16 1.196327 0.000002 0.000008 0.030176 -0.062208 -0.903239
    17 3.883658 -0.050329 -0.431045 -0.074881 -0.046452 -0.932308
    18 1.719577 -0.000003 0.000001 -0.028045 0.057832 -0.903258
    19 1.209180 0.000002 0.000000 -0.028056 0.057824 -0.903255
    20 3.859828 -0.148938 -1.331275 -0.481363 -0.084475 -0.914046
    21 1.719428 0.000013 -0.000001 -0.105872 0.222887 -0.884465
    22 1.099668 -0.000015 0.000002 -0.105849 0.222881 -0.884461
    23 0.806020 -0.359832 -1.318338 1.297572 0.292879 -0.707629
    24 1.789781 0.000001 0.000006 0.000147 0.001490 0.224823
    25 1.206996 -0.000007 -0.000003 0.000075 0.001036 0.158065
    26 2.033347 1.000764 1.937653 4.495071 -1.389424 0.035793
    27 6.028144 -0.000008 0.000002 -1.607806 -0.729494 -1.223438
    28 11.692554 0.000000 0.000001 -0.000009 0.000000 -1.120429
    29 11.481680 0.000005 -0.000037 1.881977 -0.326335 -0.219939
    30 3.859710 -0.142394 -1.191978 -0.534256 -0.152691 -1.082222
    31 1.312561 -0.000006 0.000002 -0.086572 0.180826 -0.891506
    32 0.729362 0.000000 -0.000007 -0.086557 0.180814 -0.891468
    33 3.942328 0.046781 -0.431442 -0.155600 -0.065264 -0.923239
    34 1.539095 0.000000 0.000002 -0.027038 0.055745 -0.903351
    35 1.196328 -0.000001 0.000009 -0.027059 0.055760 -0.903538
    36 3.883694 -0.046754 0.431443 0.078256 0.039778 -0.932594
    37 1.719577 0.000000 0.000001 0.031200 -0.064346 -0.902949
    38 1.209184 0.000000 -0.000014 0.031208 -0.064348 -0.902934
    39 3.859860 -0.137939 1.332467 0.484445 0.077898 -0.914467
    40 1.719431 0.000008 0.000003 0.108714 -0.229184 -0.883282
    41 1.099665 -0.000015 -0.000002 0.108700 -0.229177 -0.883290
    42 0.806045 -0.348918 1.321257 -1.298457 -0.298280 -0.705768
    43 1.789777 0.000000 0.000000 -0.000023 -0.000211 0.224853
    44 1.206997 0.000005 0.000008 -0.000010 -0.000144 0.158069
    45 -3.890450 0.000009 0.000009 0.293180 -1.364286 -2.949578
    46 17.848164 0.000001 -0.000003 0.000000 0.000000 1.060667
    47 16.525265 -0.000013 -0.000002 0.193916 -0.348337 -1.390630
    48 6.879458 0.000001 0.000000 -0.081335 -0.002952 -0.584374
    49 3.890451 0.000000 0.000000 -1.650257 -0.159776 -1.342599
    50 17.848175 -0.000002 0.000000 -0.000001 0.000000 0.803231
    51 16.525251 0.000000 0.000011 0.015180 0.122838 -1.135541
    52 6.879456 -0.000001 0.000000 -0.006030 -0.004282 -0.933416
time 12
    0 -2.822747 -0.523448 31.441700 2.191048 0.057451 0.084743
    1 -0.179688 3.341225 -2.981901 1.498802 0.218312 1.519736
    2 4.018329 -0.000009 0.000000 -0.038614 0.141035 0.324567
    3 3.518574 0.000001 -0.000002 -0.050265 0.125737 0.405698
    4 8.942637 -0.000001 0.000000 -0.026665 -0.051013 0.047469
    5 3.307275 -0.000003 -0.000004 3.141591 0.000000 0.400478
    6 3.593711 0.000001 -0.000001 0.122271 -0.127374 1.098861
    7 2.033355 1.000768 -1.937610 -2.376591 1.481763 2.228770
    8 6.028147 -0.000007 -0.000001 1.648525 0.246695 -0.891152
    9 11.692551 -0.000002 0.000010 0.000009 0.000000 -1.483979
    10 11.481697 0.000010 0.000005 -1.785259 0.236147 0.188126
    11 3.859674 -0.132572 1.193109 0.496516 0.198112 -1.302839
    12 1.312563 0.000000 0.000001 0.120344 -0.207584 -1.048824
    13 0.729365 0.000000 -0.000008 0.120338 -0.207559 -1.048802
    14 3.942296 0.050324 0.431045 0.164751 0.087206 -1.077717
    15 1.539095 0.000004 0.000000 0.040471 -0.069081 -1.059771
    16 1.196327 0.000002 0.000008 0.040483 -0.069076 -1.059972
    17 3.883658 -0.050329 -0.431045 -0.085212 -0.010522 -1.088681
    18 1.719577 -0.000003 0.000001 -0.037621 0.064220 -1.059987
    19 1.209180 0.000002 0.000000 -0.037632 0.064212 -1.059974
    20 3.859828 -0.148938 -1.331275 -0.465543 -0.077092 -1.068728
    21 1.719428 0.000013 -0.000001 -0.143000 0.247971 -1.043404
    22 1.099668 -0.000015 0.000002 -0.143001 0.247953 -1.043379
    23 0.806020 -0.359832 -1.318338 1.288753 0.217353 -0.756866
    24 1.789781 0.000001 0.000006 0.000111 0.001310 0.198972
    25 1.206996 -0.000007 -0.000003 0.000123 0.001312 0.198979
    26 2.033347 1.000764 1.937653 4.562200 -1.400064 -0.030412
    27 6.028144 -0.000008 0.000002 -1.581522 -0.665343 -1.256234
    28 11.692554 0.000000 0.000001 -0.000009 0.000000 -1.202743
    29 11.481680 0.000005 -0.000037 1.944082 -0.316785 -0.330337
    30 3.859710 -0.142394 -1.191978 -0.491221 -0.206118 -1.302429
    31 1.312561 -0.000006 0.000002 -0.116643 0.201032 -1.049592
    32 0.729362 0.000000 -0.000007 -0.116626 0.201020 -1.049590
    33 3.942328 0.046781 -0.431442 -0.160490 -0.094518 -1.077392
    34 1.539095 0.000000 0.000002 -0.036266 0.061905 -1.060025
    35 1.196328 -0.000001 0.000009 -0.036287 0.061908 -1.060221
    36 3.883694 -0.046754 0.431443 0.089641 0.003153 -1.088761
    37 1.719577 0.000000 0.000001 0.041854 -0.071465 -1.059686
    38 1.209184 0.000000 -0.000014 0.041850 -0.071455 -1.059689
    39 3.859860 -0.137939 1.332467 0.469704 0.069808 -1.069043
    40 1.719431 0.000008 0.000003 0.146921 -0.255011 -1.042349
    41 1.099665 -0.000015 -0.000002 0.146919 -0.255004 -1.042375
    42 0.806045 -0.348918 1.321257 -1.289158 -0.223091 -0.755624
    43 1.789777 0.000000 0.000000 -0.000011 -0.000187 0.199006
    44 1.206997 0.000005 0.000008 -0.000010 -0.000192 0.199003
    45 -3.890450 0.000009 0.000009 0.196890 -1.383194 -2.883795
    46 17.848164 0.000001 -0.000003 0.000000 0.000000 1.168102
    47 16.525265 -0.000013 -0.000002 -0.057930 -0.217233 -1.357849
    48 6.879458 0.000001 0.000000 -0.081335 -0.002952 -0.584374
    49 3.890451 0.000000 0.000000 -1.627445 -0.143723 -1.430796
    50 17.848175 -0.000002 0.000000 -0.000001 0.000000 0.810741
    51 16.525251 0.000000 0.000011 0.037678 0.090868 -0.802370
    52 6.879456 -0.000001 0.000000 -0.006857 -0.003527 -0.723972
time 13
    0 -2.674305 -1.269565 32.180004 2.218018 0.081295 0.067829
    1 -0.265628 3.337319 -2.981901 1.498377 0.223540 1.545241
    2 4.018329 -0.000009 0.000000 -0.032191 0.144282 0.314988
    3 3.518574 0.000001 -0.000002 -0.043249 0.128614 0.396695
    4 8.942637 -0.000001 0.000000 -0.023812 -0.051181 0.049614
    5 3.307275 -0.000003 -0.000004 3.141591 0.000000 0.400478
    6 3.593711 0.000001 -0.000001 0.131763 -0.086924 1.096352
    7 2.033355 1.000768 -1.937610 -2.243504 1.459111 2.363043
    8 6.028147 -0.000007 -0.000001 1.615699 0.220202 -0.883416
    9 11.692551 -0.000002 0.000010 0.000009 0.000000 -1.520146
    10 11.481697 0.000010 0.000005 -1.798431 0.230652 0.186361
    11 3.859674 -0.132572 1.193109 0.479688 0.213908 -1.379073
    12 1.312563 0.000000 0.000001 0.131718 -0.213564 -1.103173
    13 0.729365 0.000000 -0.000008 0.131700 -0.213551 -1.103163
    14 3.942296 0.050324 0.431045 0.165770 0.097129 -1.130451
    15 1.539095 0.000004 0.000000 0.044222 -0.071046 -1.113373
    16 1.196327 0.000002 0.000008 0.044234 -0.071053 -1.113580
    17 3.883658 -0.050329 -0.431045 -0.089982 0.001342 -1.142216
    18 1.719577 -0.000003 0.000001 -0.041108 0.066054 -1.113581
    19 1.209180 0.000002 0.000000 -0.041107 0.066045 -1.113552
    20 3.859828 -0.148938 -1.331275 -0.460426 -0.074024 -1.121547
    21 1.719428 0.000013 -0.000001 -0.156651 0.255185 -1.098146
    22 1.099668 -0.000015 0.000002 -0.156628 0.255167 -1.098120
    23 0.806020 -0.359832 -1.318338 1.286658 0.191471 -0.773367
    24 1.789781 0.000001 0.000006 0.000099 0.001262 0.190139
    25 1.206996 -0.000007 -0.000003 0.000135 0.001420 0.212983
    26 2.033347 1.000764 1.937653 4.637852 -1.409841 -0.105048
    27 6.028144 -0.000008 0.000002 -1.569670 -0.597036 -1.262495
    28 11.692554 0.000000 0.000001 -0.000009 0.000000 -1.283461
    29 11.481680 0.000005 -0.000037 1.957971 -0.311806 -0.371911
    30 3.859710 -0.142394 -1.191978 -0.473806 -0.222058 -1.378753
    31 1.312561 -0.000006 0.000002 -0.127645 0.206832 -1.103922
    32 0.729362 0.000000 -0.000007 -0.127628 0.206820 -1.103945
    33 3.942328 0.046781 -0.431442 -0.161113 -0.104645 -1.130137
    34 1.539095 0.000000 0.000002 -0.039634 0.063667 -1.113633
    35 1.196328 -0.000001 0.000009 -0.039655 0.063682 -1.113828
    36 3.883694 -0.046754 0.431443 0.094842 -0.008903 -1.142235
    37 1.719577 0.000000 0.000001 0.045737 -0.073502 -1.113296
    38 1.209184 0.000000 -0.000014 0.045733 -0.073493 -1.113283
    39 3.859860 -0.137939 1.332467 0.464982 0.066548 -1.121824
    40 1.719431 0.000008 0.000003 0.160955 -0.262441 -1.097148
    41 1.099665 -0.000015 -0.000002 0.160941 -0.262422 -1.097160
    42 0.806045 -0.348918 1.321257 -1.286961 -0.197288 -0.772316
    43 1.789777 0.000000 0.000000 -0.000011 -0.000175 0.190160
    44 1.206997 0.000005 0.000008 -0.000022 -0.000204 0.212989
    45 -3.890450 0.000009 0.000009 -0.490234 -1.350709 -2.162038
    46 17.848164 0.000001 -0.000003 0.000000 0.000000 1.129825
    47 16.525265 -0.000013 -0.000002 -0.253704 -0.073635 -1.337036
    48 6.879458 0.000001 0.000000 -0.081335 -0.002952 -0.584374
    49 3.890451 0.000000 0.000000 -1.606932 -0.132711 -1.426024
    50 17.848175 -0.000002 0.000000 -0.000001 0.000000 0.722205
    51 16.525251 0.000000 0.000011 0.070706 0.152699 -0.584448
    52 6.879456 -0.000001 0.000000 -0.007084 -0.003240 -0.654171
time 14
    0 -2.689931 -2.351629 33.430042 2.235625 0.074513 0.035902
    1 -0.230471 3.337319 -2.981901 1.498642 0.228904 1.537535
    2 4.018329 -0.000009 0.000000 -0.025755 0.145493 0.308763
    3 3.518574 0.000001 -0.000002 -0.036419 0.129165 0.390503
    4 8.942637 -0.000001 0.000000 -0.021895 -0.051924 0.050105
    5 3.307275 -0.000003 -0.000004 3.141591 0.000000 0.400478
    6 3.593711 0.000001 -0.000001 0.137013 -0.054401 1.090592
    7 2.033355 1.000768 -1.937610 -2.161302 1.434065 2.446653
    8 6.028147 -0.000007 -0.000001 1.579413 0.198577 -0.873164
    9 11.692551 -0.000002 0.000010 0.000009 0.000000 -1.547817
    10 11.481697 0.000010 0.000005 -1.796235 0.230192 0.185479
    11 3.859674 -0.132572 1.193109 0.481619 0.212218 -1.370603
    12 1.312563 0.000000 0.000001 0.130435 -0.212922 -1.097137
    13 0.729365 0.000000 -0.000008 0.130417 -0.212916 -1.097122
    14 3.942296 0.050324 0.431045 0.165686 0.096027 -1.124609
    15 1.539095 0.000004 0.000000 0.043803 -0.070842 -1.107444
    16 1.196327 0.000002 0.000008 0.043815 -0.070837 -1.107600
    17 3.883658 -0.050329 -0.431045 -0.089418 0.000036 -1.136257
    18 1.719577 -0.000003 0.000001 -0.040713 0.065862 -1.107627
    19 1.209180 0.000002 0.000000 -0.040724 0.065854 -1.107590
    20 3.859828 -0.148938 -1.331275 -0.460989 -0.074384 -1.115666
    21 1.719428 0.000013 -0.000001 -0.155117 0.254418 -1.092046
    22 1.099668 -0.000015 0.000002 -0.155094 0.254400 -1.092049
    23 0.806020 -0.359832 -1.318338 1.286878 0.194350 -0.771525
    24 1.789781 0.000001 0.000006 0.000099 0.001262 0.191122
    25 1.206996 -0.000007 -0.000003 0.000135 0.001408 0.211418
    26 2.033347 1.000764 1.937653 4.734381 -1.420010 6.082281
    27 6.028144 -0.000008 0.000002 -1.562406 -0.525941 -1.262308
    28 11.692554 0.000000 0.000001 -0.000009 0.000000 -1.365851
    29 11.481680 0.000005 -0.000037 1.956471 -0.312846 -0.367197
    30 3.859710 -0.142394 -1.191978 -0.475809 -0.220356 -1.370233
    31 1.312561 -0.000006 0.000002 -0.126397 0.206221 -1.097881
    32 0.729362 0.000000 -0.000007 -0.126394 0.206209 -1.097878
    33 3.942328 0.046781 -0.431442 -0.161065 -0.103519 -1.124299
    34 1.539095 0.000000 0.000002 -0.039251 0.063487 -1.107689
    35 1.196328 -0.000001 0.000009 -0.039272 0.063490 -1.107865
    36 3.883694 -0.046754 0.431443 0.094231 -0.007573 -1.136283
    37 1.719577 0.000000 0.000001 0.045306 -0.073287 -1.107339
    38 1.209184 0.000000 -0.000014 0.045314 -0.073277 -1.107372
    39 3.859860 -0.137939 1.332467 0.465497 0.066920 -1.115948
    40 1.719431 0.000008 0.000003 0.159373 -0.261650 -1.091051
    41 1.099665 -0.000015 -0.000002 0.159359 -0.261643 -1.091077
    42 0.806045 -0.348918 1.321257 -1.287181 -0.200146 -0.770404
    43 1.789777 0.000000 0.000000 -0.000011 -0.000175 0.191151
    44 1.206997 0.000005 0.000008 -0.000022 -0.000204 0.211439
    45 -3.890450 0.000009 0.000009 -0.822266 -1.223229 -1.847501
    46 17.848164 0.000001 -0.000003 0.000000 0.000000 1.084641
    47 16.525265 -0.000013 -0.000002 -0.231899 -0.139737 -1.454394
    48 6.879458 0.000001 0.000000 -0.081335 -0.002952 -0.584374
    49 3.890451 0.000000 0.000000 -1.608466 -0.190119 -1.453227
    50 17.848175 -0.000002 0.000000 -0.000001 0.000000 0.698401
    51 16.525251 0.000000 0.000011 0.124258 0.201934 -0.462104
    52 6.879456 -0.000001 0.000000 -0.007300 -0.002952 -0.584369
time 15
    0 -2.385234 -3.754016 34.625391 2.229795 0.070620 0.006636
    1 -0.218752 3.341225 -2.981901 1.499916 0.235672 1.537137
    2 4.018329 -0.000009 0.000000 -0.020458 0.144175 0.305974
    3 3.518574 0.000001 -0.000002 -0.031061 0.126924 0.387051
    4 8.942637 -0.000001 0.000000 -0.021523 -0.053314 0.048463
    5 3.307275 -0.000003 -0.000004 3.141591 0.000000 0.400478
    6 3.593711 0.000001 -0.000001 0.142656 -0.032257 1.079299
    7 2.033355 1.000768 -1.937610 -2.136575 1.411867 2.472894
    8 6.028147 -0.000007 -0.000001 1.539045 0.170700 -0.877358
    9 11.692551 -0.000002 0.000010 0.000009 0.000000 -1.581127
    10 11.481697 0.000010 0.000005 -1.792643 0.232791 0.186553
    11 3.859674 -0.132572 1.193109 0.491053 0.203517 -1.328182
    12 1.312563 0.000000 0.000001 0.124095 -0.209640 -1.066930
    13 0.729365 0.000000 -0.000008 0.124089 -0.209620 -1.066956
    14 3.942296 0.050324 0.431045 0.165147 0.090514 -1.095295
    15 1.539095 0.000004 0.000000 0.041717 -0.069752 -1.077661
    16 1.196327 0.000002 0.000008 0.041729 -0.069759 -1.077841
    17 3.883658 -0.050329 -0.431045 -0.086710 -0.006544 -1.106509
    18 1.719577 -0.000003 0.000001 -0.038771 0.064855 -1.077817
    19 1.209180 0.000002 0.000000 -0.038770 0.064847 -1.077819
    20 3.859828 -0.148938 -1.331275 -0.463817 -0.076098 -1.086343
    21 1.719428 0.000013 -0.000001 -0.147495 0.250451 -1.061608
    22 1.099668 -0.000015 0.000002 -0.147495 0.250445 -1.061626
    23 0.806020 -0.359832 -1.318338 1.288018 0.208743 -0.762390
    24 1.789781 0.000001 0.000006 0.000111 0.001298 0.196036
    25 1.206996 -0.000007 -0.000003 0.000123 0.001348 0.203647
    26 2.033347 1.000764 1.937653 -1.453780 -1.432377 5.987908
    27 6.028144 -0.000008 0.000002 -1.560877 -0.453380 -1.249507
    28 11.692554 0.000000 0.000001 -0.000009 0.000000 -1.443757
    29 11.481680 0.000005 -0.000037 1.945660 -0.316302 -0.345766
    30 3.859710 -0.142394 -1.191978 -0.485548 -0.211571 -1.327825
    31 1.312561 -0.000006 0.000002 -0.120272 0.203033 -1.067676
    32 0.729362 0.000000 -0.000007 -0.120257 0.203021 -1.067720
    33 3.942328 0.046781 -0.431442 -0.160754 -0.097886 -1.094957
    34 1.539095 0.000000 0.000002 -0.037381 0.062516 -1.077932
    35 1.196328 -0.000001 0.000009 -0.037402 0.062519 -1.078080
    36 3.883694 -0.046754 0.431443 0.091295 -0.000898 -1.106585
    37 1.719577 0.000000 0.000001 0.043137 -0.072160 -1.077556
    38 1.209184 0.000000 -0.000014 0.043145 -0.072162 -1.077566
    39 3.859860 -0.137939 1.332467 0.468110 0.068754 -1.086636
    40 1.719431 0.000008 0.000003 0.151547 -0.257564 -1.060603
    41 1.099665 -0.000015 -0.000002 0.151545 -0.257556 -1.060589
    42 0.806045 -0.348918 1.321257 -1.288352 -0.214464 -0.761213
    43 1.789777 0.000000 0.000000 -0.000011 -0.000187 0.196058
    44 1.206997 0.000005 0.000008 -0.000010 -0.000192 0.203689
    45 -3.890450 0.000009 0.000009 -0.993730 -1.044173 -1.701712
    46 17.848164 0.000001 -0.000003 0.000000 0.000000 0.966397
    47 16.525265 -0.000013 -0.000002 -0.190930 -0.197225 -1.515887
    48 6.879458 0.000001 0.000000 -0.081335 -0.002952 -0.584374
    49 3.890451 0.000000 0.000000 -1.679492 -0.452982 -1.447691
    50 17.848175 -0.000002 0.000000 -0.000001 0.000000 1.054044
    51 16.525251 0.000000 0.000011 0.216298 0.137896 -0.553992
    52 6.879456 -0.000001 0.000000 -0.007300 -0.002952 -0.584369
time 16
    0 -2.045380 -5.320470 35.566826 2.209479 0.086009 -0.004291
    1 -0.296879 3.337319 -2.981901 1.501828 0.248177 1.561350
    2 4.018329 -0.000009 0.000000 -0.015568 0.139465 0.309095
    3 3.518574 0.000001 -0.000002 -0.026724 0.120380 0.388347
    4 8.942637 -0.000001 0.000000 -0.023824 -0.056862 0.043610
    5 3.307275 -0.000003 -0.000004 3.141591 0.000000 0.400478
    6 3.593711 0.000001 -0.000001 0.146900 -0.023282 1.057870
    7 2.033355 1.000768 -1.937610 -2.172186 1.397384 2.438608
    8 6.028147 -0.000007 -0.000001 1.499476 0.125494 -0.910538
    9 11.692551 -0.000002 0.000010 0.000009 0.000000 -1.629625
    10 11.481697 0.000010 0.000005 -1.797632 0.234535 0.188165
    11 3.859674 -0.132572 1.193109 0.496516 0.198112 -1.302839
    12 1.312563 0.000000 0.000001 0.120344 -0.207569 -1.048824
    13 0.729365 0.000000 -0.000008 0.120338 -0.207559 -1.048802
    14 3.942296 0.050324 0.431045 0.164751 0.087206 -1.077717
    15 1.539095 0.000004 0.000000 0.040471 -0.069081 -1.059806
    16 1.196327 0.000002 0.000008 0.040483 -0.069076 -1.059972
    17 3.883658 -0.050329 -0.431045 -0.085212 -0.010522 -1.088681
    18 1.719577 -0.000003 0.000001 -0.037621 0.064220 -1.059987
    19 1.209180 0.000002 0.000000 -0.037632 0.064212 -1.059974
    20 3.859828 -0.148938 -1.331275 -0.465543 -0.077092 -1.068728
    21 1.719428 0.000013 -0.000001 -0.143000 0.247971 -1.043404
    22 1.099668 -0.000015 0.000002 -0.143001 0.247953 -1.043379
    23 0.806020 -0.359832 -1.318338 1.288753 0.217353 -0.756866
    24 1.789781 0.000001 0.000006 0.000111 0.001310 0.198972
    25 1.206996 -0.000007 -0.000003 0.000123 0.001312 0.198979
    26 2.033347 1.000764 1.937653 -1.385693 -1.450163 5.919691
    27 6.028144 -0.000008 0.000002 -1.560972 -0.385122 -1.219607
    28 11.692554 0.000000 0.000001 -0.000009 0.000000 -1.509730
    29 11.481680 0.000005 -0.000037 1.934139 -0.319572 -0.335639
    30 3.859710 -0.142394 -1.191978 -0.491221 -0.206118 -1.302429
    31 1.312561 -0.000006 0.000002 -0.116643 0.201032 -1.049592
    32 0.729362 0.000000 -0.000007 -0.116626 0.201020 -1.049590
    33 3.942328 0.046781 -0.431442 -0.160490 -0.094518 -1.077392
    34 1.539095 0.000000 0.000002 -0.036266 0.061905 -1.060025
    35 1.196328 -0.000001 0.000009 -0.036287 0.061908 -1.060221
    36 3.883694 -0.046754 0.431443 0.089641 0.003153 -1.088761
    37 1.719577 0.000000 0.000001 0.041854 -0.071465 -1.059686
    38 1.209184 0.000000 -0.000014 0.041850 -0.071455 -1.059689
    39 3.859860 -0.137939 1.332467 0.469704 0.069808 -1.069043
    40 1.719431 0.000008 0.000003 0.146921 -0.255011 -1.042349
    41 1.099665 -0.000015 -0.000002 0.146919 -0.255004 -1.042375
    42 0.806045 -0.348918 1.321257 -1.289158 -0.223091 -0.755624
    43 1.789777 0.000000 0.000000 -0.000011 -0.000187 0.199006
    44 1.206997 0.000005 0.000008 -0.000010 -0.000192 0.199003
    45 -3.890450 0.000009 0.000009 -1.068651 -0.878832 -1.637398
    46 17.848164 0.000001 -0.000003 0.000000 0.000000 0.896670
    47 16.525265 -0.000013 -0.000002 -0.185771 -0.239795 -1.479369
    48 6.879458 0.000001 0.000000 -0.081335 -0.002952 -0.584374
    49 3.890451 0.000000 0.000000 -1.770264 -0.771590 -1.375434
    50 17.848175 -0.000002 0.000000 -0.000001 0.000000 1.439649
    51 16.525251 0.000000 0.000011 0.254153 0.055129 -0.730770
    52 6.879456 -0.000001 0.000000 -0.007300 -0.002952 -0.584369
time 17
    0 -1.764121 -6.773639 36.141062 2.170732 0.098874 -0.015029
    1 -0.359381 3.325600 -2.981901 1.504164 0.266249 1.580342
    2 4.018329 -0.000009 0.000000 -0.010031 0.131495 0.318508
    3 3.518574 0.000001 -0.000002 -0.022374 0.109534 0.394801
    4 8.942637 -0.000001 0.000000 -0.028486 -0.062806 0.035724
    5 3.307275 -0.000003 -0.000004 3.141591 0.000000 0.400478
    6 3.593711 0.000001 -0.000001 0.143794 -0.027992 1.031840
    7 2.033355 1.000768 -1.937610 -2.287039 1.391979 2.324255
    8 6.028147 -0.000007 -0.000001 1.467270 0.057519 -0.971773
    9 11.692551 -0.000002 0.000010 0.000009 0.000000 -1.704816
    10 11.481697 0.000010 0.000005 -1.805548 0.232330 0.187973
    11 3.859674 -0.132572 1.193109 0.496516 0.198112 -1.302839
    12 1.312563 0.000000 0.000001 0.120344 -0.207569 -1.048824
    13 0.729365 0.000000 -0.000008 0.120338 -0.207571 -1.048802
    14 3.942296 0.050324 0.431045 0.164751 0.087206 -1.077717
    15 1.539095 0.000004 0.000000 0.040471 -0.069081 -1.059806
    16 1.196327 0.000002 0.000008 0.040483 -0.069076 -1.059972
    17 3.883658 -0.050329 -0.431045 -0.085212 -0.010522 -1.088681
    18 1.719577 -0.000003 0.000001 -0.037621 0.064220 -1.059987
    19 1.209180 0.000002 0.000000 -0.037632 0.064212 -1.059974
    20 3.859828 -0.148938 -1.331275 -0.465543 -0.077092 -1.068728
    21 1.719428 0.000013 -0.000001 -0.143012 0.247971 -1.043404
    22 1.099668 -0.000015 0.000002 -0.143001 0.247953 -1.043379
    23 0.806020 -0.359832 -1.318338 1.288753 0.217353 -0.756866
    24 1.789781 0.000001 0.000006 0.000111 0.001310 0.198972
    25 1.206996 -0.000007 -0.000003 0.000123 0.001324 0.198979
    26 2.033347 1.000764 1.937653 -1.346431 -1.474938 5.879642
    27 6.028144 -0.000008 0.000002 -1.565369 -0.328403 -1.184569
    28 11.692554 0.000000 0.000001 -0.000009 0.000000 -1.572511
    29 11.481680 0.000005 -0.000037 1.929167 -0.321802 -0.337665
    30 3.859710 -0.142394 -1.191978 -0.491221 -0.206118 -1.302429
    31 1.312561 -0.000006 0.000002 -0.116643 0.201032 -1.049592
    32 0.729362 0.000000 -0.000007 -0.116626 0.201020 -1.049590
    33 3.942328 0.046781 -0.431442 -0.160490 -0.094518 -1.077392
    34 1.539095 0.000000 0.000002 -0.036266 0.061905 -1.060025
    35 1.196328 -0.000001 0.000009 -0.036287 0.061908 -1.060221
    36 3.883694 -0.046754 0.431443 0.089641 0.003153 -1.088761
    37 1.719577 0.000000 0.000001 0.041854 -0.071465 -1.059686
    38 1.209184 0.000000 -0.000014 0.041850 -0.071455 -1.059689
    39 3.859860 -0.137939 1.332467 0.469704 0.069808 -1.069043
    40 1.719431 0.000008 0.000003 0.146921 -0.255011 -1.042349
    41 1.099665 -0.000015 -0.000002 0.146919 -0.255004 -1.042375
    42 0.806045 -0.348918 1.321257 -1.289158 -0.223091 -0.755624
    43 1.789777 0.000000 0.000000 -0.000011 -0.000187 0.199006
    44 1.206997 0.000005 0.000008 -0.000010 -0.000192 0.199003
    45 -3.890450 0.000009 0.000009 -1.160211 -0.699959 -1.579268
    46 17.848164 0.000001 -0.000003 0.000000 0.000000 0.827430
    47 16.525265 -0.000013 -0.000002 -0.164988 -0.214175 -1.448717
    48 6.879458 0.000001 0.000000 -0.081335 -0.002952 -0.584374
    49 3.890451 0.000000 0.000000 -1.825858 -1.018645 -1.295541
    50 17.848175 -0.000002 0.000000 -0.000001 0.000000 1.561675
    51 16.525251 0.000000 0.000011 0.165062 0.006597 -0.828144
    52 6.879456 -0.000001 0.000000 -0.007300 -0.002952 -0.584369
time 18
    0 -1.486769 -7.797108 36.430133 2.125154 0.094099 -0.028712
    1 -0.343755 3.333413 -2.981901 1.507350 0.284422 1.576663
    2 4.018329 -0.000009 0.000000 -0.004614 0.121308 0.331175
    3 3.518574 0.000001 -0.000002 -0.018329 0.096267 0.403993
    4 8.942637 -0.000001 0.000000 -0.034035 -0.069398 0.026232
    5 3.307275 -0.000003 -0.000004 3.141591 0.000000 0.400478
    6 3.593711 0.000001 -0.000001 0.137975 -0.042885 1.004748
    7 2.033355 1.000768 -1.937610 -2.461274 1.388431 2.149757
    8 6.028147 -0.000007 -0.000001 1.441630 -0.023536 -1.045962
    9 11.692551 -0.000002 0.000010 0.000009 0.000000 -1.800911
    10 11.481697 0.000010 0.000005 -1.808010 0.227987 0.186937
    11 3.859674 -0.132572 1.193109 0.496516 0.198112 -1.302839
    12 1.312563 0.000000 0.000001 0.120344 -0.207584 -1.048824
    13 0.729365 0.000000 -0.000008 0.120338 -0.207571 -1.048802
    14 3.942296 0.050324 0.431045 0.164751 0.087206 -1.077717
    15 1.539095 0.000004 0.000000 0.040471 -0.069081 -1.059806
    16 1.196327 0.000002 0.000008 0.040483 -0.069076 -1.059972
    17 3.883658 -0.050329 -0.431045 -0.085212 -0.010522 -1.088681
    18 1.719577 -0.000003 0.000001 -0.037621 0.064220 -1.059987
    19 1.209180 0.000002 0.000000 -0.037632 0.064212 -1.059974
    20 3.859828 -0.148938 -1.331275 -0.465543 -0.077092 -1.068728
    21 1.719428 0.000013 -0.000001 -0.143000 0.247971 -1.043404
    22 1.099668 -0.000015 0.000002 -0.143001 0.247953 -1.043379
    23 0.806020 -0.359832 -1.318338 1.288753 0.217353 -0.756866
    24 1.789781 0.000001 0.000006 0.000111 0.001310 0.198972
    25 1.206996 -0.000007 -0.000003 0.000123 0.001324 0.198979
    26 2.033347 1.000764 1.937653 -1.316361 -1.504660 5.848791
    27 6.028144 -0.000008 0.000002 -1.577029 -0.281365 -1.153361
    28 11.692554 0.000000 0.000001 -0.000009 0.000000 -1.638179
    29 11.481680 0.000005 -0.000037 1.928220 -0.323177 -0.336413
    30 3.859710 -0.142394 -1.191978 -0.491221 -0.206118 -1.302429
    31 1.312561 -0.000006 0.000002 -0.116643 0.201032 -1.049592
    32 0.729362 0.000000 -0.000007 -0.116626 0.201020 -1.049590
    33 3.942328 0.046781 -0.431442 -0.160490 -0.094518 -1.077392
    34 1.539095 0.000000 0.000002 -0.036266 0.061905 -1.060025
    35 1.196328 -0.000001 0.000009 -0.036287 0.061908 -1.060221
    36 3.883694 -0.046754 0.431443 0.089641 0.003153 -1.088761
    37 1.719577 0.000000 0.000001 0.041854 -0.071465 -1.059686
    38 1.209184 0.000000 -0.000014 0.041850 -0.071455 -1.059689
    39 3.859860 -0.137939 1.332467 0.469704 0.069808 -1.069043
    40 1.719431 0.000008 0.000003 0.146921 -0.255011 -1.042349
    41 1.099665 -0.000015 -0.000002 0.146919 -0.255004 -1.042375
    42 0.806045 -0.348918 1.321257 -1.289158 -0.223091 -0.755624
    43 1.789777 0.000000 0.000000 -0.000011 -0.000199 0.199006
    44 1.206997 0.000005 0.000008 -0.000010 -0.000192 0.199003
    45 -3.890450 0.000009 0.000009 -1.243916 -0.511472 -1.556387
    46 17.848164 0.000001 -0.000003 0.000000 0.000000 0.745513
    47 16.525265 -0.000013 -0.000002 -0.126934 -0.169628 -1.408983
    48 6.879458 0.000001 0.000000 -0.081335 -0.002952 -0.584374
    49 3.890451 0.000000 0.000000 -1.892092 -1.233448 -1.215362
    50 17.848175 -0.000002 0.000000 -0.000001 0.000000 1.574592
    51 16.525251 0.000000 0.000011 0.045527 -0.058906 -0.900926
    52 6.879456 -0.000001 0.000000 -0.007300 -0.002952 -0.584369
time 19
    0 -1.213323 -8.187745 36.719205 2.082049 0.089841 -0.030517
    1 -0.328130 3.329506 -2.981901 1.511650 0.297265 1.574425
    2 4.018329 -0.000009 0.000000 -0.000024 0.110043 0.344107
    3 3.518574 0.000001 -0.000002 -0.014907 0.082437 0.413477
    4 8.942637 -0.000001 0.000000 -0.039021 -0.074815 0.016488
    5 3.307275 -0.000003 -0.000004 3.141591 0.000000 0.400478
    6 3.593711 0.000001 -0.000001 0.128395 -0.064656 0.980745
    7 2.033355 1.000768 -1.937610 -2.640379 1.380591 1.969321
    8 6.028147 -0.000007 -0.000001 1.421757 -0.105833 -1.122668
    9 11.692551 -0.000002 0.000010 0.000009 0.000000 -1.897005
    10 11.481697 0.000010 0.000005 -1.810537 0.223085 0.186170
    11 3.859674 -0.132572 1.193109 0.496516 0.198112 -1.302839
    12 1.312563 0.000000 0.000001 0.120344 -0.207584 -1.048824
    13 0.729365 0.000000 -0.000008 0.120338 -0.207571 -1.048802
    14 3.942296 0.050324 0.431045 0.164751 0.087206 -1.077717
    15 1.539095 0.000004 0.000000 0.040471 -0.069081 -1.059771
    16 1.196327 0.000002 0.000008 0.040483 -0.069076 -1.059972
    17 3.883658 -0.050329 -0.431045 -0.085212 -0.010522 -1.088681
    18 1.719577 -0.000003 0.000001 -0.037621 0.064220 -1.059987
    19 1.209180 0.000002 0.000000 -0.037632 0.064212 -1.059974
    20 3.859828 -0.148938 -1.331275 -0.465543 -0.077092 -1.068728
    21 1.719428 0.000013 -0.000001 -0.143012 0.247971 -1.043404
    22 1.099668 -0.000015 0.000002 -0.143001 0.247953 -1.043379
    23 0.806020 -0.359832 -1.318338 1.288753 0.217353 -0.756866
    24 1.789781 0.000001 0.000006 0.000111 0.001310 0.198972
    25 1.206996 -0.000007 -0.000003 0.000123 0.001324 0.198979
    26 2.033347 1.000764 1.937653 -1.302284 -1.537640 5.834036
    27 6.028144 -0.000008 0.000002 -1.587161 -0.240684 -1.120939
    28 11.692554 0.000000 0.000001 -0.000009 0.000000 -1.695488
    29 11.481680 0.000005 -0.000037 1.927431 -0.324477 -0.335161
    30 3.859710 -0.142394 -1.191978 -0.491221 -0.206118 -1.302429
    31 1.312561 -0.000006 0.000002 -0.116643 0.201032 -1.049592
    32 0.729362 0.000000 -0.000007 -0.116626 0.201020 -1.049590
    33 3.942328 0.046781 -0.431442 -0.160490 -0.094518 -1.077392
    34 1.539095 0.000000 0.000002 -0.036266 0.061905 -1.060025
    35 1.196328 -0.000001 0.000009 -0.036287 0.061908 -1.060221
    36 3.883694 -0.046754 0.431443 0.089641 0.003153 -1.088761
    37 1.719577 0.000000 0.000001 0.041854 -0.071465 -1.059686
    38 1.209184 0.000000 -0.000014 0.041850 -0.071455 -1.059689
    39 3.859860 -0.137939 1.332467 0.469704 0.069808 -1.069043
    40 1.719431 0.000008 0.000003 0.146921 -0.255011 -1.042349
    41 1.099665 -0.000015 -0.000002 0.146919 -0.255004 -1.042340
    42 0.806045 -0.348918 1.321257 -1.289158 -0.223091 -0.755624
    43 1.789777 0.000000 0.000000 -0.000011 -0.000187 0.199006
    44 1.206997 0.000005 0.000008 -0.000010 -0.000192 0.199003
    45 -3.890450 0.000009 0.000009 -1.337081 -0.277151 -1.512480
    46 17.848164 0.000001 -0.000003 0.000000 0.000000 0.572414
    47 16.525265 -0.000013 -0.000002 -0.034031 -0.097689 -1.318778
    48 6.879458 0.000001 0.000000 -0.081335 -0.002952 -0.584374
    49 3.890451 0.000000 0.000000 -1.975962 -1.364904 -1.116378
    50 17.848175 -0.000002 0.000000 -0.000001 0.000000 1.462477
    51 16.525251 0.000000 0.000011 -0.012851 -0.086892 -0.973661
    52 6.879456 -0.000001 0.000000 -0.007300 -0.002952 -0.584369
time 20
    0 -0.951596 -7.886954 37.031714 2.044774 0.049057 -0.039449
    1 -0.179688 3.341225 -2.981901 1.517384 0.299278 1.532812
    2 4.018329 -0.000009 0.000000 0.003176 0.098837 0.354351
    3 3.518574 0.000001 -0.000002 -0.012281 0.069949 0.420892
    4 8.942637 -0.000001 0.000000 -0.042041 -0.077200 0.007836
    5 3.307275 -0.000003 -0.000004 3.141591 0.000000 0.400478
    6 3.593711 0.000001 -0.000001 0.120958 -0.087031 0.964078
    7 2.033355 1.000768 -1.937610 -2.768789 1.368915 1.839741
    8 6.028147 -0.000007 -0.000001 1.403570 -0.179584 -1.165821
    9 11.692551 -0.000002 0.000010 0.000009 0.000000 -1.971896
    10 11.481697 0.000010 0.000005 -1.795304 0.222591 0.184827
    11 3.859674 -0.132572 1.193109 0.496516 0.198112 -1.302839
    12 1.312563 0.000000 0.000001 0.120344 -0.207584 -1.048824
    13 0.729365 0.000000 -0.000008 0.120338 -0.207571 -1.048802
    14 3.942296 0.050324 0.431045 0.164751 0.087206 -1.077717
    15 1.539095 0.000004 0.000000 0.040471 -0.069081 -1.059771
    16 1.196327 0.000002 0.000008 0.040483 -0.069076 -1.059972
    17 3.883658 -0.050329 -0.431045 -0.085212 -0.010522 -1.088681
    18 1.719577 -0.000003 0.000001 -0.037621 0.064220 -1.059987
    19 1.209180 0.000002 0.000000 -0.037632 0.064212 -1.059974
    20 3.859828 -0.148938 -1.331275 -0.465543 -0.077092 -1.068728
    21 1.719428 0.000013 -0.000001 -0.143012 0.247971 -1.043404
    22 1.099668 -0.000015 0.000002 -0.143001 0.247953 -1.043379
    23 0.806020 -0.359832 -1.318338 1.288753 0.217353 -0.756866
    24 1.789781 0.000001 0.000006 0.000111 0.001310 0.198972
    25 1.206996 -0.000007 -0.000003 0.000123 0.001324 0.198979
    26 2.033347 1.000764 1.937653 2.618416 -1.568933 1.913290
    27 6.028144 -0.000008 0.000002 -1.582477 -0.207532 -1.097673
    28 11.692554 0.000000 0.000001 -0.000009 0.000000 -1.738735
    29 11.481680 0.000005 -0.000037 1.937217 -0.320167 -0.330079
    30 3.859710 -0.142394 -1.191978 -0.491221 -0.206118 -1.302429
    31 1.312561 -0.000006 0.000002 -0.116643 0.201032 -1.049592
    32 0.729362 0.000000 -0.000007 -0.116626 0.201020 -1.049590
    33 3.942328 0.046781 -0.431442 -0.160490 -0.094518 -1.077392
    34 1.539095 0.000000 0.000002 -0.036266 0.061905 -1.060025
    35 1.196328 -0.000001 0.000009 -0.036287 0.061908 -1.060221
    36 3.883694 -0.046754 0.431443 0.089641 0.003153 -1.088761
    37 1.719577 0.000000 0.000001 0.041854 -0.071465 -1.059686
    38 1.209184 0.000000 -0.000014 0.041850 -0.071455 -1.059689
    39 3.859860 -0.137939 1.332467 0.469704 0.069808 -1.069043
    40 1.719431 0.000008 0.000003 0.146921 -0.255011 -1.042349
    41 1.099665 -0.000015 -0.000002 0.146931 -0.255004 -1.042375
    42 0.806045 -0.348918 1.321257 -1.289158 -0.223091 -0.755624
    43 1.789777 0.000000 0.000000 -0.000011 -0.000187 0.199006
    44 1.206997 0.000005 0.000008 -0.000010 -0.000192 0.199003
    45 -3.890450 0.000009 0.000009 -1.415971 -0.201201 -1.566513
    46 17.848164 0.000001 -0.000003 0.000000 0.000000 0.652056
    47 16.525265 -0.000013 -0.000002 0.144175 -0.144474 -1.154118
    48 6.879458 0.000001 0.000000 -0.081335 -0.002952 -0.584374
    49 3.890451 0.000000 0.000000 -1.794610 -1.313858 -1.320931
    50 17.848175 -0.000002 0.000000 -0.000001 0.000000 0.970615
    51 16.525251 0.000000 0.000011 0.005430 0.072256 -1.067725
    52 6.879456 -0.000001 0.000000 -0.007300 -0.002952 -0.584369
time 21
    0 -0.693776 -6.918175 37.207501 2.017097 0.037378 -0.034033
    1 -0.136718 3.345132 -2.981901 1.524658 0.284946 1.526747
    2 4.018329 -0.000009 0.000000 0.004458 0.088878 0.358966
    3 3.518574 0.000001 -0.000002 -0.010557 0.060721 0.423849
    4 8.942637 -0.000001 0.000000 -0.041705 -0.074683 0.001627
    5 3.307275 -0.000003 -0.000004 3.141591 0.000000 0.400478
    6 3.593711 0.000001 -0.000001 0.115271 -0.101409 0.959799
    7 2.033355 1.000768 -1.937610 -2.807264 1.357980 1.801145
    8 6.028147 -0.000007 -0.000001 1.387423 -0.232905 -1.186139
    9 11.692551 -0.000002 0.000010 0.000009 0.000000 -2.002348
    10 11.481697 0.000010 0.000005 -1.790648 0.222657 0.184366
    11 3.859674 -0.132572 1.193109 0.496516 0.198112 -1.302839
    12 1.312563 0.000000 0.000001 0.120344 -0.207569 -1.048824
    13 0.729365 0.000000 -0.000008 0.120338 -0.207559 -1.048802
    14 3.942296 0.050324 0.431045 0.164751 0.087206 -1.077717
    15 1.539095 0.000004 0.000000 0.040471 -0.069081 -1.059806
    16 1.196327 0.000002 0.000008 0.040483 -0.069076 -1.059972
    17 3.883658 -0.050329 -0.431045 -0.085212 -0.010522 -1.088681
    18 1.719577 -0.000003 0.000001 -0.037621 0.064220 -1.059987
    19 1.209180 0.000002 0.000000 -0.037632 0.064212 -1.059974
    20 3.859828 -0.148938 -1.331275 -0.465543 -0.077092 -1.068728
    21 1.719428 0.000013 -0.000001 -0.143000 0.247971 -1.043404
    22 1.099668 -0.000015 0.000002 -0.143001 0.247953 -1.043379
    23 0.806020 -0.359832 -1.318338 1.288753 0.217353 -0.756866
    24 1.789781 0.000001 0.000006 0.000111 0.001310 0.198972
    25 1.206996 -0.000007 -0.000003 0.000123 0.001324 0.198979
    26 2.033347 1.000764 1.937653 1.972308 -1.535088 2.559626
    27 6.028144 -0.000008 0.000002 -1.557436 -0.173746 -1.061420
    28 11.692554 0.000000 0.000001 -0.000009 0.000000 -1.752720
    29 11.481680 0.000005 -0.000037 1.940294 -0.318643 -0.328900
    30 3.859710 -0.142394 -1.191978 -0.491221 -0.206118 -1.302429
    31 1.312561 -0.000006 0.000002 -0.116643 0.201032 -1.049592
    32 0.729362 0.000000 -0.000007 -0.116626 0.201020 -1.049590
    33 3.942328 0.046781 -0.431442 -0.160490 -0.094518 -1.077392
    34 1.539095 0.000000 0.000002 -0.036266 0.061905 -1.060025
    35 1.196328 -0.000001 0.000009 -0.036287 0.061908 -1.060221
    36 3.883694 -0.046754 0.431443 0.089641 0.003153 -1.088761
    37 1.719577 0.000000 0.000001 0.041854 -0.071465 -1.059686
    38 1.209184 0.000000 -0.000014 0.041850 -0.071455 -1.059689
    39 3.859860 -0.137939 1.332467 0.469704 0.069808 -1.069043
    40 1.719431 0.000008 0.000003 0.146921 -0.255011 -1.042349
    41 1.099665 -0.000015 -0.000002 0.146919 -0.255004 -1.042375
    42 0.806045 -0.348918 1.321257 -1.289158 -0.223091 -0.755624
    43 1.789777 0.000000 0.000000 -0.000011 -0.000187 0.199006
    44 1.206997 0.000005 0.000008 -0.000010 -0.000192 0.199003
    45 -3.890450 0.000009 0.000009 -1.450433 -0.143156 -1.592950
    46 17.848164 0.000001 -0.000003 0.000000 0.000000 0.790616
    47 16.525265 -0.000013 -0.000002 0.233141 -0.258889 -1.003034
    48 6.879458 0.000001 0.000000 -0.081335 -0.002952 -0.584374
    49 3.890451 0.000000 0.000000 -1.672399 -1.139578 -1.440628
    50 17.848175 -0.000002 0.000000 -0.000001 0.000000 0.500229
    51 16.525251 0.000000 0.000011 -0.017507 0.243786 -1.141264
    52 6.879456 -0.000001 0.000000 -0.007300 -0.002952 -0.584369
time 22
    0 -0.455488 -5.347814 37.019995 1.902680 0.010493 0.010342
    1 -0.074216 3.345132 -2.981901 1.535011 0.239243 1.519438
    2 4.018329 -0.000009 0.000000 0.002253 0.080189 0.354633
    3 3.518574 0.000001 -0.000002 -0.010570 0.056442 0.419814
    4 8.942637 -0.000001 0.000000 -0.035449 -0.062974 -0.000757
    5 3.307275 -0.000003 -0.000004 3.141591 0.000000 0.400478
    6 3.593711 0.000001 -0.000001 0.069031 -0.065438 0.899181
    7 2.033355 1.000768 -1.937610 -2.732127 1.351379 1.878146
    8 6.028147 -0.000007 -0.000001 1.373493 -0.254147 -1.146994
    9 11.692551 -0.000002 0.000010 0.000009 0.000000 -1.962798
    10 11.481697 0.000010 0.000005 -1.782332 0.225651 0.183752
    11 3.859674 -0.132572 1.193109 0.496516 0.198112 -1.302839
    12 1.312563 0.000000 0.000001 0.120344 -0.207584 -1.048824
    13 0.729365 0.000000 -0.000008 0.120338 -0.207559 -1.048802
    14 3.942296 0.050324 0.431045 0.164751 0.087206 -1.077717
    15 1.539095 0.000004 0.000000 0.040471 -0.069081 -1.059771
    16 1.196327 0.000002 0.000008 0.040483 -0.069076 -1.059972
    17 3.883658 -0.050329 -0.431045 -0.085212 -0.010522 -1.088681
    18 1.719577 -0.000003 0.000001 -0.037621 0.064220 -1.059987
    19 1.209180 0.000002 0.000000 -0.037632 0.064212 -1.059974
    20 3.859828 -0.148938 -1.331275 -0.465543 -0.077092 -1.068728
    21 1.719428 0.000013 -0.000001 -0.143000 0.247971 -1.043404
    22 1.099668 -0.000015 0.000002 -0.143001 0.247953 -1.043379
    23 0.806020 -0.359832 -1.318338 1.288753 0.217353 -0.756866
    24 1.789781 0.000001 0.000006 0.000111 0.001310 0.198972
    25 1.206996 -0.000007 -0.000003 0.000123 0.001324 0.198979
    26 2.033347 1.000764 1.937653 2.012720 -1.500027 2.520056
    27 6.028144 -0.000008 0.000002 -1.496456 -0.149298 -1.017038
    28 11.692554 0.000000 0.000001 -0.000009 0.000000 -1.722622
    29 11.481680 0.000005 -0.000037 1.945502 -0.316042 -0.327538
    30 3.859710 -0.142394 -1.191978 -0.491221 -0.206118 -1.302429
    31 1.312561 -0.000006 0.000002 -0.116643 0.201032 -1.049592
    32 0.729362 0.000000 -0.000007 -0.116626 0.201020 -1.049590
    33 3.942328 0.046781 -0.431442 -0.160490 -0.094518 -1.077392
    34 1.539095 0.000000 0.000002 -0.036266 0.061905 -1.060025
    35 1.196328 -0.000001 0.000009 -0.036287 0.061908 -1.060221
    36 3.883694 -0.046754 0.431443 0.089641 0.003153 -1.088761
    37 1.719577 0.000000 0.000001 0.041854 -0.071465 -1.059686
    38 1.209184 0.000000 -0.000014 0.041850 -0.071455 -1.059689
    39 3.859860 -0.137939 1.332467 0.469704 0.069808 -1.069043
    40 1.719431 0.000008 0.000003 0.146921 -0.255011 -1.042349
    41 1.099665 -0.000015 -0.000002 0.146919 -0.255004 -1.042340
    42 0.806045 -0.348918 1.321257 -1.289158 -0.223091 -0.755624
    43 1.789777 0.000000 0.000000 -0.000011 -0.000187 0.199006
    44 1.206997 0.000005 0.000008 -0.000010 -0.000192 0.199003
    45 -3.890450 0.000009 0.000009 -1.407356 -0.092355 -1.625030
    46 17.848164 0.000001 -0.000003 0.000000 0.000000 1.019465
    47 16.525265 -0.000013 -0.000002 0.148735 -0.310764 -0.906584
    48 6.879458 0.000001 0.000000 -0.081335 -0.002952 -0.584374
    49 3.890451 0.000000 0.000000 -1.644794 -0.963733 -1.492554
    50 17.848175 -0.000002 0.000000 -0.000001 0.000000 0.462757
    51 16.525251 0.000000 0.000011 0.004504 0.262398 -1.189265
    52 6.879456 -0.000001 0.000000 -0.007300 -0.002952 -0.584369
time 23
    0 -0.225012 -3.242281 36.789519 1.775957 -0.013017 0.065453
    1 0.000005 3.345132 -2.981901 1.547488 0.162878 1.515361
    2 4.018329 -0.000009 0.000000 -0.003308 0.071824 0.342995
    3 3.518574 0.000001 -0.000002 -0.012387 0.055987 0.410097
    4 8.942637 -0.000001 0.000000 -0.023800 -0.042576 0.000105
    5 3.307275 -0.000003 -0.000004 3.141591 0.000000 0.400478
    6 3.593711 0.000001 -0.000001 0.015749 -0.015516 0.847732
    7 2.033355 1.000768 -1.937610 -2.577177 1.344447 2.036458
    8 6.028147 -0.000007 -0.000001 1.365420 -0.247894 -1.063298
    9 11.692551 -0.000002 0.000010 0.000009 0.000000 -1.864598
    10 11.481697 0.000010 0.000005 -1.774483 0.228645 0.182831
    11 3.859674 -0.132572 1.193109 0.496516 0.198112 -1.302839
    12 1.312563 0.000000 0.000001 0.120344 -0.207584 -1.048824
    13 0.729365 0.000000 -0.000008 0.120338 -0.207559 -1.048802
    14 3.942296 0.050324 0.431045 0.164751 0.087206 -1.077717
    15 1.539095 0.000004 0.000000 0.040471 -0.069081 -1.059771
    16 1.196327 0.000002 0.000008 0.040483 -0.069076 -1.059972
    17 3.883658 -0.050329 -0.431045 -0.085212 -0.010522 -1.088681
    18 1.719577 -0.000003 0.000001 -0.037621 0.064220 -1.059987
    19 1.209180 0.000002 0.000000 -0.037632 0.064212 -1.059974
    20 3.859828 -0.148938 -1.331275 -0.465543 -0.077092 -1.068728
    21 1.719428 0.000013 -0.000001 -0.143000 0.247971 -1.043404
    22 1.099668 -0.000015 0.000002 -0.143001 0.247953 -1.043379
    23 0.806020 -0.359832 -1.318338 1.288753 0.217353 -0.756866
    24 1.789781 0.000001 0.000006 0.000111 0.001310 0.198972
    25 1.206996 -0.000007 -0.000003 0.000123 0.001324 0.198979
    26 2.033347 1.000764 1.937653 2.063378 -1.462492 2.471001
    27 6.028144 -0.000008 0.000002 -1.408046 -0.138932 -0.959201
    28 11.692554 0.000000 0.000001 -0.000009 0.000000 -1.652393
    29 11.481680 0.000005 -0.000037 1.950711 -0.314296 -0.325955
    30 3.859710 -0.142394 -1.191978 -0.491221 -0.206118 -1.302429
    31 1.312561 -0.000006 0.000002 -0.116643 0.201032 -1.049592
    32 0.729362 0.000000 -0.000007 -0.116626 0.201020 -1.049590
    33 3.942328 0.046781 -0.431442 -0.160490 -0.094518 -1.077392
    34 1.539095 0.000000 0.000002 -0.036266 0.061905 -1.060025
    35 1.196328 -0.000001 0.000009 -0.036287 0.061908 -1.060221
    36 3.883694 -0.046754 0.431443 0.089641 0.003153 -1.088761
    37 1.719577 0.000000 0.000001 0.041854 -0.071465 -1.059686
    38 1.209184 0.000000 -0.000014 0.041850 -0.071455 -1.059689
    39 3.859860 -0.137939 1.332467 0.469704 0.069808 -1.069043
    40 1.719431 0.000008 0.000003 0.146921 -0.255011 -1.042349
    41 1.099665 -0.000015 -0.000002 0.146919 -0.255004 -1.042375
    42 0.806045 -0.348918 1.321257 -1.289158 -0.223091 -0.755624
    43 1.789777 0.000000 0.000000 -0.000011 -0.000199 0.199006
    44 1.206997 0.000005 0.000008 -0.000010 -0.000192 0.199003
    45 -3.890450 0.000009 0.000009 -1.338855 -0.052535 -1.655563
    46 17.848164 0.000001 -0.000003 0.000000 0.000000 1.293823
    47 16.525265 -0.000013 -0.000002 0.016557 -0.274571 -0.831042
    48 6.879458 0.000001 0.000000 -0.081335 -0.002952 -0.584374
    49 3.890451 0.000000 0.000000 -1.637892 -0.758278 -1.531689
    50 17.848175 -0.000002 0.000000 -0.000001 0.000000 0.517651
    51 16.525251 0.000000 0.000011 0.046673 0.241208 -1.218255
    52 6.879456 -0.000001 0.000000 -0.007300 -0.002952 -0.584369
time 24
    0 -0.002349 -0.660171 36.555137 1.644286 -0.029927 0.128167
    1 0.054694 3.345132 -2.981901 1.559593 0.074128 1.511682
    2 4.018329 -0.000009 0.000000 -0.010127 0.063482 0.328469
    3 3.518574 0.000001 -0.000002 -0.014960 0.057042 0.398108
    4 8.942637 -0.000001 0.000000 -0.009958 -0.018763 0.002538
    5 3.307275 -0.000003 -0.000004 3.141591 0.000000 0.400478
    6 3.593711 0.000001 -0.000001 -0.044796 0.035134 0.798922
    7 2.033355 1.000768 -1.937610 -2.402941 1.331078 2.214308
    8 6.028147 -0.000007 -0.000001 1.362492 -0.230566 -0.964596
    9 11.692551 -0.000002 0.000010 0.000009 0.000000 -1.742412
    10 11.481697 0.000010 0.000005 -1.768430 0.230060 0.181412
    11 3.859674 -0.132572 1.193109 0.496516 0.198112 -1.302839
    12 1.312563 0.000000 0.000001 0.120344 -0.207584 -1.048824
    13 0.729365 0.000000 -0.000008 0.120338 -0.207571 -1.048802
    14 3.942296 0.050324 0.431045 0.164751 0.087206 -1.077717
    15 1.539095 0.000004 0.000000 0.040471 -0.069081 -1.059771
    16 1.196327 0.000002 0.000008 0.040483 -0.069076 -1.059972
    17 3.883658 -0.050329 -0.431045 -0.085212 -0.010522 -1.088681
    18 1.719577 -0.000003 0.000001 -0.037621 0.064220 -1.059987
    19 1.209180 0.000002 0.000000 -0.037632 0.064212 -1.059974
    20 3.859828 -0.148938 -1.331275 -0.465543 -0.077092 -1.068728
    21 1.719428 0.000013 -0.000001 -0.143012 0.247971 -1.043404
    22 1.099668 -0.000015 0.000002 -0.143001 0.247953 -1.043379
    23 0.806020 -0.359832 -1.318338 1.288753 0.217353 -0.756866
    24 1.789781 0.000001 0.000006 0.000111 0.001310 0.198972
    25 1.206996 -0.000007 -0.000003 0.000123 0.001324 0.198979
    26 2.033347 1.000764 1.937653 2.099002 -1.423779 2.437851
    27 6.028144 -0.000008 0.000002 -1.311989 -0.136976 -0.889684
    28 11.692554 0.000000 0.000001 -0.000009 0.000000 -1.565974
    29 11.481680 0.000005 -0.000037 1.954893 -0.313813 -0.323671
    30 3.859710 -0.142394 -1.191978 -0.491221 -0.206118 -1.302429
    31 1.312561 -0.000006 0.000002 -0.116643 0.201032 -1.049592
    32 0.729362 0.000000 -0.000007 -0.116626 0.201020 -1.049590
    33 3.942328 0.046781 -0.431442 -0.160490 -0.094518 -1.077392
    34 1.539095 0.000000 0.000002 -0.036266 0.061905 -1.060025
    35 1.196328 -0.000001 0.000009 -0.036287 0.061908 -1.060221
    36 3.883694 -0.046754 0.431443 0.089641 0.003153 -1.088761
    37 1.719577 0.000000 0.000001 0.041854 -0.071465 -1.059686
    38 1.209184 0.000000 -0.000014 0.041850 -0.071455 -1.059689
    39 3.859860 -0.137939 1.332467 0.469704 0.069808 -1.069043
    40 1.719431 0.000008 0.000003 0.146921 -0.255011 -1.042349
    41 1.099665 -0.000015 -0.000002 0.146931 -0.255004 -1.042375
    42 0.806045 -0.348918 1.321257 -1.289158 -0.223091 -0.755624
    43 1.789777 0.000000 0.000000 -0.000011 -0.000187 0.199006
    44 1.206997 0.000005 0.000008 -0.000010 -0.000192 0.199003
    45 -3.890450 0.000009 0.000009 -1.259880 -0.022009 -1.686948
    46 17.848164 0.000001 -0.000003 0.000000 0.000000 1.595812
    47 16.525265 -0.000013 -0.000002 -0.090924 -0.154878 -0.792963
    48 6.879458 0.000001 0.000000 -0.081335 -0.002952 -0.584374
    49 3.890451 0.000000 0.000000 -1.639234 -0.528156 -1.567579
    50 17.848175 -0.000002 0.000000 -0.000001 0.000000 0.580504
    51 16.525251 0.000000 0.000011 0.085380 0.193614 -1.228612
    52 6.879456 -0.000001 0.000000 -0.007300 -0.002952 -0.584369
end
