version 1
nodes
  0 "ValveBiped.Bip01_Pelvis" -1
  1 "ValveBiped.Bip01_Spine" 0
  2 "ValveBiped.Bip01_Spine1" 1
  3 "ValveBiped.Bip01_Spine2" 2
  4 "ValveBiped.Bip01_Spine4" 3
  5 "ValveBiped.Bip01_Neck1" 4
  6 "ValveBiped.Bip01_Head1" 5
  7 "ValveBiped.Bip01_R_Clavicle" 4
  8 "ValveBiped.Bip01_R_UpperArm" 7
  9 "ValveBiped.Bip01_R_Forearm" 8
  10 "ValveBiped.Bip01_R_Hand" 9
  11 "ValveBiped.Bip01_R_Finger4" 10
  12 "ValveBiped.Bip01_R_Finger41" 11
  13 "ValveBiped.Bip01_R_Finger42" 12
  14 "ValveBiped.Bip01_R_Finger3" 10
  15 "ValveBiped.Bip01_R_Finger31" 14
  16 "ValveBiped.Bip01_R_Finger32" 15
  17 "ValveBiped.Bip01_R_Finger2" 10
  18 "ValveBiped.Bip01_R_Finger21" 17
  19 "ValveBiped.Bip01_R_Finger22" 18
  20 "ValveBiped.Bip01_R_Finger1" 10
  21 "ValveBiped.Bip01_R_Finger11" 20
  22 "ValveBiped.Bip01_R_Finger12" 21
  23 "ValveBiped.Bip01_R_Finger0" 10
  24 "ValveBiped.Bip01_R_Finger01" 23
  25 "ValveBiped.Bip01_R_Finger02" 24
  26 "ValveBiped.Bip01_L_Clavicle" 4
  27 "ValveBiped.Bip01_L_UpperArm" 26
  28 "ValveBiped.Bip01_L_Forearm" 27
  29 "ValveBiped.Bip01_L_Hand" 28
  30 "ValveBiped.Bip01_L_Finger4" 29
  31 "ValveBiped.Bip01_L_Finger41" 30
  32 "ValveBiped.Bip01_L_Finger42" 31
  33 "ValveBiped.Bip01_L_Finger3" 29
  34 "ValveBiped.Bip01_L_Finger31" 33
  35 "ValveBiped.Bip01_L_Finger32" 34
  36 "ValveBiped.Bip01_L_Finger2" 29
  37 "ValveBiped.Bip01_L_Finger21" 36
  38 "ValveBiped.Bip01_L_Finger22" 37
  39 "ValveBiped.Bip01_L_Finger1" 29
  40 "ValveBiped.Bip01_L_Finger11" 39
  41 "ValveBiped.Bip01_L_Finger12" 40
  42 "ValveBiped.Bip01_L_Finger0" 29
  43 "ValveBiped.Bip01_L_Finger01" 42
  44 "ValveBiped.Bip01_L_Finger02" 43
  45 "ValveBiped.Bip01_R_Thigh" 0
  46 "ValveBiped.Bip01_R_Calf" 45
  47 "ValveBiped.Bip01_R_Foot" 46
  48 "ValveBiped.Bip01_R_Toe0" 47
  49 "ValveBiped.Bip01_L_Thigh" 0
  50 "ValveBiped.Bip01_L_Calf" 49
  51 "ValveBiped.Bip01_L_Foot" 50
  52 "ValveBiped.Bip01_L_Toe0" 51
end
skeleton
time 0
    0 -0.455488 0.398455 33.848023 1.675320 0.112286 -0.132094
    1 0.000008 3.345134 -2.981899 1.613695 0.193878 1.730836
    2 3.998799 0.000006 0.000000 -0.088290 -0.071596 0.093938
    3 3.520304 0.000004 0.000000 -0.086087 0.005879 0.097062
    4 8.927017 0.000000 -0.000046 -0.062930 0.016376 0.253436
    5 3.306356 -0.000002 0.000000 3.191734 0.064489 0.721549
    6 3.597628 -0.000005 0.000000 0.321053 0.101460 0.712982
    7 2.052893 0.985139 -1.937610 -1.888349 1.046461 2.688096
    8 6.028142 0.000004 0.000000 0.575901 -1.146326 0.147315
    9 11.692564 -0.000006 -0.000003 0.000009 0.000000 -1.325777
    10 11.481697 -0.000001 0.000010 -1.567602 0.040084 -0.157315
    11 3.855764 0.133035 1.220440 0.469839 -0.167705 -0.811416
    12 1.312559 0.000002 0.000006 -0.000005 -0.007101 -0.439737
    13 0.729365 -0.000001 -0.000004 0.000001 -0.003653 -0.244272
    14 3.926671 0.319836 0.458374 0.150466 -0.088572 -0.742369
    15 1.539091 -0.000001 -0.000002 -0.000001 -0.004412 -0.247775
    16 1.196318 0.000005 0.000011 -0.000001 -0.007271 -0.430771
    17 3.883654 0.207463 -0.403711 -0.087705 -0.035750 -0.519732
    18 1.719576 -0.000003 0.000001 -0.000001 -0.007592 -0.366437
    19 1.209176 0.000004 0.000003 0.000000 -0.004256 -0.216376
    20 3.867631 0.104956 -1.303952 -0.352492 0.029271 -0.464101
    21 1.719420 -0.000002 -0.000009 0.000000 -0.007721 -0.362966
    22 1.099664 0.000004 -0.000011 -0.000001 -0.004910 -0.244318
    23 0.837261 -0.312968 -1.314431 1.247998 0.664345 -0.725051
    24 1.789778 0.000001 0.000000 0.000003 0.003264 0.228610
    25 1.207008 -0.000002 0.000006 0.000003 0.004991 0.362963
    26 2.052886 0.985136 1.937661 2.011092 -1.015762 2.465061
    27 6.028151 -0.000001 -0.000001 -1.638582 -0.171447 -0.386249
    28 11.692554 -0.000001 -0.000006 -0.000009 0.000000 -1.993430
    29 11.481678 -0.000001 -0.000034 1.562379 -0.037903 0.192489
    30 3.855801 0.123232 -1.223220 -0.469931 0.161689 -0.812370
    31 1.312562 -0.000002 0.000000 -0.000001 0.004688 -0.439764
    32 0.729364 0.000000 0.000007 -0.000004 0.002411 -0.244324
    33 3.930608 0.316318 -0.458782 -0.150495 0.082974 -0.742886
    34 1.539092 -0.000004 -0.000002 -0.000001 0.002917 -0.247792
    35 1.196321 -0.000001 0.000001 0.000002 0.004801 -0.430811
    36 3.883687 0.211056 0.404106 0.087700 0.031628 -0.519980
    37 1.719573 -0.000005 -0.000009 0.000004 0.005021 -0.366483
    38 1.209175 0.000000 0.000002 0.000000 0.002813 -0.216406
    39 3.867672 0.115969 1.301223 0.352482 -0.032984 -0.463865
    40 1.719425 0.000004 -0.000001 0.000002 0.005103 -0.363002
    41 1.099660 0.000000 0.000005 0.000000 0.003240 -0.244334
    42 0.837293 -0.302051 1.313448 -1.250936 -0.669809 -0.720254
    43 1.789779 -0.000001 -0.000002 0.000001 -0.002153 0.228620
    44 1.207002 0.000002 0.000009 0.000002 -0.003284 0.362986
    45 -3.890441 -0.000002 0.000000 -1.531097 -0.599177 -1.565817
    46 17.848177 0.000003 0.000000 0.000000 0.000000 1.005487
    47 16.525257 -0.000004 -0.000008 -0.054540 -0.250181 -1.497061
    48 6.879458 0.000005 0.000008 -0.081334 -0.002949 -0.584373
    49 3.890450 0.000006 -0.000004 -1.967911 -0.700918 -1.124396
    50 17.848177 -0.000001 0.000001 -0.000001 0.000000 1.682876
    51 16.525257 0.000003 -0.000006 -0.100504 0.034564 -1.242705
    52 6.879454 -0.000006 0.000004 -0.007299 -0.002951 -0.584373
time 1
    0 -0.459394 0.394548 34.652735 1.660775 0.088290 -0.163070
    1 0.000008 3.345134 -2.981899 1.612262 0.194554 1.706623
    2 4.002706 0.000006 0.000000 -0.084348 -0.070985 0.108880
    3 3.520304 0.000004 0.000000 -0.090132 0.005939 0.097033
    4 8.927017 0.000000 -0.000046 -0.065866 0.017143 0.253388
    5 3.306356 -0.000002 0.000000 3.172558 0.039981 0.653959
    6 3.597628 -0.000005 0.000000 0.352244 0.084132 0.643579
    7 2.052893 0.985139 -1.937610 -1.935416 1.126466 2.648541
    8 6.028142 0.000004 0.000000 0.628955 -1.172580 0.068279
    9 11.692564 -0.000006 -0.000003 0.000009 0.000000 -1.271038
    10 11.481697 -0.000001 0.000010 -1.561881 0.039196 -0.012048
    11 3.855764 0.133035 1.220440 0.469839 -0.167705 -0.811416
    12 1.312559 0.000002 0.000006 -0.000005 -0.007101 -0.439737
    13 0.729365 -0.000001 -0.000004 0.000001 -0.003653 -0.244272
    14 3.926671 0.319836 0.458374 0.150466 -0.088572 -0.742369
    15 1.539091 -0.000001 -0.000002 -0.000001 -0.004412 -0.247775
    16 1.196318 0.000005 0.000011 -0.000001 -0.007271 -0.430771
    17 3.883654 0.207463 -0.403711 -0.087705 -0.035750 -0.519732
    18 1.719576 -0.000003 0.000001 -0.000001 -0.007592 -0.366437
    19 1.209176 0.000004 0.000003 0.000000 -0.004256 -0.216376
    20 3.867631 0.104956 -1.303952 -0.352492 0.029271 -0.464101
    21 1.719420 -0.000002 -0.000009 0.000000 -0.007721 -0.362966
    22 1.099664 0.000004 -0.000011 -0.000001 -0.004910 -0.244318
    23 0.833355 -0.312968 -1.314431 1.247998 0.664345 -0.725051
    24 1.789778 0.000001 0.000000 0.000003 0.003264 0.228610
    25 1.207008 -0.000002 0.000006 0.000003 0.004991 0.362963
    26 2.052886 0.985136 1.937661 2.110493 -1.082115 2.374521
    27 6.028151 -0.000001 -0.000001 -1.679490 -0.084755 -0.373262
    28 11.692554 -0.000001 -0.000006 -0.000009 0.000000 -2.144378
    29 11.481678 -0.000001 -0.000034 1.563247 -0.038051 0.169953
    30 3.855801 0.119326 -1.223220 -0.469931 0.161689 -0.812370
    31 1.312562 -0.000002 0.000000 -0.000001 0.004688 -0.439764
    32 0.729364 0.000000 0.000007 -0.000004 0.002411 -0.244324
    33 3.930608 0.312412 -0.458782 -0.150495 0.082974 -0.742910
    34 1.539092 -0.000004 -0.000002 -0.000001 0.002917 -0.247792
    35 1.196321 -0.000001 0.000001 0.000002 0.004801 -0.430811
    36 3.883687 0.207149 0.408012 0.087700 0.031628 -0.519980
    37 1.719573 -0.000005 -0.000009 0.000004 0.005021 -0.366483
    38 1.209175 0.000000 0.000002 0.000000 0.002813 -0.216406
    39 3.867672 0.115969 1.305130 0.352482 -0.032984 -0.463865
    40 1.719425 0.000004 -0.000001 0.000002 0.005103 -0.363002
    41 1.099660 0.000000 0.000005 0.000000 0.003252 -0.244334
    42 0.837293 -0.302051 1.313448 -1.250936 -0.669809 -0.720254
    43 1.789779 -0.000001 -0.000002 0.000001 -0.002153 0.228620
    44 1.207002 0.000002 0.000009 0.000002 -0.003284 0.362986
    45 -3.890441 -0.000002 0.000000 -1.602893 -0.635307 -1.420801
    46 17.848177 0.000003 0.000000 0.000000 0.000000 0.901790
    47 16.525257 -0.000004 -0.000008 -0.156290 -0.160547 -1.323224
    48 6.879458 0.000005 0.000008 -0.081334 -0.002949 -0.584373
    49 3.890450 0.000006 -0.000004 -1.953629 -0.566771 -1.274256
    50 17.848177 -0.000001 0.000001 -0.000001 0.000000 1.639022
    51 16.525257 0.000003 -0.000006 -0.102478 0.087958 -1.180422
    52 6.879454 -0.000006 0.000004 -0.007299 -0.002951 -0.584373
time 2
    0 -0.463300 0.394548 35.684017 1.676497 0.034793 -0.174663
    1 0.000008 3.345134 -2.981899 1.603077 0.195705 1.651537
    2 4.002706 0.000006 0.000000 -0.071332 -0.067725 0.101425
    3 3.520304 0.000004 0.000000 -0.086140 0.005891 0.097062
    4 8.927017 0.000000 -0.000046 -0.062978 0.016388 0.253436
    5 3.306356 -0.000002 0.000000 3.157889 0.020973 0.566757
    6 3.597628 -0.000005 0.000000 0.344632 0.056852 0.560888
    7 2.052893 0.985139 -1.937610 -2.045495 1.222975 2.545107
    8 6.028142 0.000004 0.000000 0.724418 -1.120739 -0.183928
    9 11.692564 -0.000006 -0.000003 0.000009 0.000000 -1.248856
    10 11.481697 -0.000001 0.000010 -1.557424 0.037879 0.105095
    11 3.851858 0.133035 1.220440 0.469839 -0.167705 -0.811416
    12 1.312559 0.000002 0.000006 -0.000005 -0.007101 -0.439737
    13 0.729365 -0.000001 -0.000004 0.000001 -0.003653 -0.244272
    14 3.926671 0.319836 0.458374 0.150466 -0.088572 -0.742369
    15 1.539091 -0.000001 -0.000002 -0.000001 -0.004412 -0.247775
    16 1.196318 0.000005 0.000011 -0.000001 -0.007271 -0.430771
    17 3.883654 0.207463 -0.403711 -0.087705 -0.035750 -0.519732
    18 1.719576 -0.000003 0.000001 -0.000001 -0.007592 -0.366437
    19 1.209176 0.000004 0.000003 0.000000 -0.004256 -0.216376
    20 3.867631 0.104956 -1.303952 -0.352492 0.029271 -0.464101
    21 1.719420 -0.000002 -0.000009 0.000000 -0.007721 -0.362966
    22 1.099664 0.000004 -0.000011 -0.000001 -0.004910 -0.244318
    23 0.837261 -0.312968 -1.310525 1.247998 0.664345 -0.725051
    24 1.789778 0.000001 0.000000 0.000003 0.003264 0.228610
    25 1.207008 -0.000002 0.000006 0.000003 0.004991 0.362963
    26 2.052886 0.985136 1.937661 2.264958 -1.163742 2.233679
    27 6.028151 -0.000001 -0.000001 -1.685511 0.049170 -0.467072
    28 11.692554 -0.000001 -0.000006 -0.000009 0.000000 -2.201078
    29 11.481678 -0.000001 -0.000034 1.570112 -0.038832 -0.009011
    30 3.851895 0.119326 -1.223220 -0.469931 0.161689 -0.812370
    31 1.312562 -0.000002 0.000000 -0.000001 0.004688 -0.439764
    32 0.729364 0.000000 0.000007 -0.000004 0.002411 -0.244324
    33 3.930608 0.312412 -0.458782 -0.150495 0.082974 -0.742886
    34 1.539092 -0.000004 -0.000002 -0.000001 0.002917 -0.247792
    35 1.196321 -0.000001 0.000001 0.000002 0.004801 -0.430811
    36 3.883687 0.207149 0.404106 0.087700 0.031628 -0.519980
    37 1.719573 -0.000005 -0.000009 0.000004 0.005021 -0.366483
    38 1.209175 0.000000 0.000002 0.000000 0.002813 -0.216406
    39 3.867672 0.115969 1.301223 0.352482 -0.032984 -0.463865
    40 1.719425 0.000004 -0.000001 0.000002 0.005103 -0.363002
    41 1.099660 0.000000 0.000005 0.000000 0.003240 -0.244334
    42 0.837293 -0.302051 1.313448 -1.250936 -0.669809 -0.720254
    43 1.789779 -0.000001 -0.000002 0.000001 -0.002153 0.228620
    44 1.207002 0.000002 0.000009 0.000002 -0.003284 0.362986
    45 -3.890441 -0.000002 0.000000 -1.627557 -0.605647 -1.337935
    46 17.848177 0.000003 0.000000 0.000000 0.000000 0.634827
    47 16.525257 -0.000004 -0.000008 -0.259660 -0.088944 -1.083353
    48 6.879458 0.000005 0.000008 -0.081334 -0.002949 -0.584373
    49 3.890450 0.000006 -0.000004 -1.927365 -0.441628 -1.451128
    50 17.848177 -0.000001 0.000001 -0.000001 0.000000 1.490186
    51 16.525257 0.000003 -0.000006 -0.087878 0.150551 -1.131758
    52 6.879454 -0.000006 0.000004 -0.007299 -0.002951 -0.584373
time 3
    0 -0.467207 0.394548 36.184032 1.708178 -0.024270 -0.162785
    1 0.000008 3.345134 -2.981899 1.589910 0.196280 1.590285
    2 3.998799 0.000006 0.000000 -0.048178 -0.059911 0.079843
    3 3.520304 0.000004 0.000000 -0.073063 0.005472 0.097135
    4 8.927017 0.000000 -0.000046 -0.053474 0.013919 0.253580
    5 3.306356 -0.000002 0.000000 3.154438 0.016671 0.500090
    6 3.597628 -0.000005 0.000000 0.293624 0.033055 0.495926
    7 2.052893 0.985139 -1.937610 -2.168845 1.280699 2.425487
    8 6.028142 0.000004 0.000000 0.901769 -0.983738 -0.531389
    9 11.692564 -0.000006 -0.000003 0.000009 0.000000 -1.260135
    10 11.481697 -0.000001 0.000010 -1.556360 0.037518 0.132529
    11 3.855764 0.133035 1.220440 0.469839 -0.167705 -0.811416
    12 1.312559 0.000002 0.000006 -0.000005 -0.007101 -0.439737
    13 0.729365 -0.000001 -0.000004 0.000001 -0.003653 -0.244272
    14 3.926671 0.319836 0.458374 0.150466 -0.088572 -0.742369
    15 1.539091 -0.000001 -0.000002 -0.000001 -0.004412 -0.247775
    16 1.196318 0.000005 0.000011 -0.000001 -0.007271 -0.430771
    17 3.883654 0.207463 -0.403711 -0.087705 -0.035750 -0.519732
    18 1.719576 -0.000003 0.000001 -0.000001 -0.007592 -0.366437
    19 1.209176 0.000004 0.000003 0.000000 -0.004256 -0.216376
    20 3.867631 0.104956 -1.303952 -0.352492 0.029271 -0.464101
    21 1.719420 -0.000002 -0.000009 0.000000 -0.007721 -0.362966
    22 1.099664 0.000004 -0.000011 -0.000001 -0.004910 -0.244318
    23 0.837261 -0.312968 -1.310525 1.247998 0.664345 -0.725051
    24 1.789778 0.000001 0.000000 0.000003 0.003264 0.228610
    25 1.207008 -0.000002 0.000006 0.000003 0.004991 0.362963
    26 2.052886 0.985136 1.937661 2.393471 -1.214116 2.114587
    27 6.028151 -0.000001 -0.000001 -1.633134 0.198106 -0.647684
    28 11.692554 -0.000001 -0.000006 -0.000009 0.000000 -2.124312
    29 11.481678 -0.000001 -0.000034 1.574374 -0.038646 -0.122834
    30 3.855801 0.119326 -1.223220 -0.469931 0.161689 -0.812370
    31 1.312562 -0.000002 0.000000 -0.000001 0.004688 -0.439764
    32 0.729364 0.000000 0.000007 -0.000004 0.002411 -0.244324
    33 3.930608 0.312412 -0.458782 -0.150495 0.082974 -0.742886
    34 1.539092 -0.000004 -0.000002 -0.000001 0.002917 -0.247792
    35 1.196321 -0.000001 0.000001 0.000002 0.004801 -0.430811
    36 3.883687 0.207149 0.404106 0.087700 0.031628 -0.519980
    37 1.719573 -0.000005 -0.000009 0.000004 0.005021 -0.366483
    38 1.209175 0.000000 0.000002 0.000000 0.002813 -0.216406
    39 3.867672 0.115969 1.301223 0.352482 -0.032984 -0.463865
    40 1.719425 0.000004 -0.000001 0.000002 0.005103 -0.363002
    41 1.099660 0.000000 0.000005 0.000000 0.003252 -0.244334
    42 0.837293 -0.302051 1.313448 -1.250936 -0.669809 -0.720254
    43 1.789779 -0.000001 -0.000002 0.000001 -0.002153 0.228620
    44 1.207002 0.000002 0.000009 0.000002 -0.003284 0.362986
    45 -3.890441 -0.000002 0.000000 -1.635412 -0.581819 -1.309874
    46 17.848177 0.000003 0.000000 0.000000 0.000000 0.400696
    47 16.525257 -0.000004 -0.000008 -0.269952 -0.027616 -0.883074
    48 6.879458 0.000005 0.000008 -0.081334 -0.002949 -0.584373
    49 3.890450 0.000006 -0.000004 -1.880494 -0.324316 -1.617786
    50 17.848177 -0.000001 0.000001 -0.000001 0.000000 1.274293
    51 16.525257 0.000003 -0.000006 -0.071814 0.168440 -1.087304
    52 6.879454 -0.000006 0.000004 -0.007299 -0.002951 -0.584373
time 4
    0 -0.471113 0.390642 36.152781 1.739270 -0.052980 -0.131524
    1 0.000008 3.345134 -2.981899 1.580937 0.196314 1.561051
    2 3.998799 0.000006 0.000000 -0.016167 -0.045781 0.051770
    3 3.520304 0.000004 0.000000 -0.049708 0.004429 0.097237
    4 8.923110 0.000000 -0.000046 -0.036516 0.009497 0.253783
    5 3.306356 -0.000002 0.000000 3.155684 0.018348 0.477103
    6 3.597628 -0.000005 0.000000 0.196377 0.030460 0.468094
    7 2.052893 0.985139 -1.937610 -2.213430 1.282927 2.380282
    8 6.028142 0.000004 0.000000 1.072467 -0.732744 -0.781266
    9 11.692564 -0.000006 -0.000003 0.000009 0.000000 -1.306377
    10 11.481697 -0.000001 0.000010 -1.555828 0.037287 0.146726
    11 3.855764 0.133035 1.220440 0.469839 -0.167705 -0.811416
    12 1.312559 0.000002 0.000006 -0.000005 -0.007101 -0.439737
    13 0.729365 -0.000001 -0.000004 0.000001 -0.003653 -0.244272
    14 3.930577 0.319836 0.458374 0.150466 -0.088572 -0.742369
    15 1.539091 -0.000001 -0.000002 -0.000001 -0.004412 -0.247775
    16 1.196318 0.000005 0.000011 -0.000001 -0.007271 -0.430771
    17 3.883654 0.207463 -0.403711 -0.087705 -0.035750 -0.519732
    18 1.719576 -0.000003 0.000001 -0.000001 -0.007592 -0.366437
    19 1.209176 0.000004 0.000003 0.000000 -0.004256 -0.216376
    20 3.867631 0.104956 -1.303952 -0.352492 0.029271 -0.464101
    21 1.719420 -0.000002 -0.000009 0.000000 -0.007721 -0.362966
    22 1.099664 0.000004 -0.000011 -0.000001 -0.004910 -0.244318
    23 0.837261 -0.312968 -1.314431 1.247998 0.664345 -0.725051
    24 1.789778 0.000001 0.000000 0.000003 0.003264 0.228610
    25 1.207008 -0.000002 0.000006 0.000003 0.004991 0.362963
    26 2.052886 0.985136 1.937661 2.399312 -1.226131 2.110851
    27 6.028151 -0.000001 -0.000001 -1.525321 0.383812 -0.805311
    28 11.692554 -0.000001 -0.000006 -0.000009 0.000000 -1.973745
    29 11.481678 -0.000001 -0.000034 1.575321 -0.038572 -0.147285
    30 3.851895 0.119326 -1.223220 -0.469931 0.161689 -0.812370
    31 1.312562 -0.000002 0.000000 -0.000001 0.004688 -0.439764
    32 0.729364 0.000000 0.000007 -0.000004 0.002411 -0.244324
    33 3.930608 0.312412 -0.458782 -0.150495 0.082974 -0.742910
    34 1.539092 -0.000004 -0.000002 -0.000001 0.002917 -0.247792
    35 1.196321 -0.000001 0.000001 0.000002 0.004801 -0.430811
    36 3.883687 0.207149 0.404106 0.087700 0.031628 -0.519980
    37 1.719573 -0.000005 -0.000009 0.000004 0.005021 -0.366483
    38 1.209175 0.000000 0.000002 0.000000 0.002813 -0.216406
    39 3.863766 0.115969 1.301223 0.352482 -0.032984 -0.463865
    40 1.719425 0.000004 -0.000001 0.000002 0.005103 -0.363002
    41 1.099660 0.000000 0.000005 0.000000 0.003240 -0.244334
    42 0.837293 -0.302051 1.313448 -1.250936 -0.669809 -0.720254
    43 1.789779 -0.000001 -0.000002 0.000001 -0.002153 0.228620
    44 1.207002 0.000002 0.000009 0.000002 -0.003284 0.362986
    45 -3.890441 -0.000002 0.000000 -1.634821 -0.707704 -1.322165
    46 17.848177 0.000003 0.000000 0.000000 0.000000 0.575258
    47 16.525257 -0.000004 -0.000008 -0.137849 0.018292 -0.921721
    48 6.879458 0.000005 0.000008 -0.081334 -0.002949 -0.584373
    49 3.890450 0.000006 -0.000004 -1.823270 -0.200495 -1.728033
    50 17.848177 -0.000001 0.000001 -0.000001 0.000000 1.014169
    51 16.525257 0.000003 -0.000006 -0.059773 0.172620 -1.051740
    52 6.879454 -0.000006 0.000004 -0.007299 -0.002951 -0.584373
time 5
    0 -0.478926 0.390642 35.551200 1.758938 -0.059215 -0.086294
    1 0.000008 3.345134 -2.981899 1.575097 0.196297 1.554887
    2 3.998799 0.000006 0.000000 0.018984 -0.023813 0.030254
    3 3.520304 0.000004 0.000000 -0.017334 0.002799 0.097309
    4 8.927017 0.000000 -0.000046 -0.013002 0.003373 0.253927
    5 3.306356 -0.000002 0.000000 3.151561 0.012859 0.518596
    6 3.597628 -0.000005 0.000000 0.072487 0.009845 0.505354
    7 2.052893 0.985139 -1.937610 -2.149941 1.228917 2.437937
    8 6.028142 0.000004 0.000000 1.224000 -0.401316 -0.824232
    9 11.692564 -0.000006 -0.000003 0.000009 0.000000 -1.389689
    10 11.481697 -0.000001 0.000010 -1.555562 0.037156 0.155205
    11 3.855764 0.133035 1.220440 0.469839 -0.167705 -0.811416
    12 1.312559 0.000002 0.000006 -0.000005 -0.007101 -0.439737
    13 0.729365 -0.000001 -0.000004 0.000001 -0.003653 -0.244272
    14 3.930577 0.319836 0.458374 0.150454 -0.088572 -0.742369
    15 1.539091 -0.000001 -0.000002 -0.000001 -0.004412 -0.247775
    16 1.196318 0.000005 0.000011 -0.000001 -0.007271 -0.430771
    17 3.883654 0.207463 -0.403711 -0.087705 -0.035750 -0.519732
    18 1.719576 -0.000003 0.000001 -0.000001 -0.007592 -0.366437
    19 1.209176 0.000004 0.000003 0.000000 -0.004256 -0.216376
    20 3.867631 0.104956 -1.303952 -0.352492 0.029271 -0.464101
    21 1.719420 -0.000002 -0.000009 0.000000 -0.007721 -0.362966
    22 1.099664 0.000004 -0.000011 -0.000001 -0.004910 -0.244318
    23 0.837261 -0.312968 -1.314431 1.247998 0.664345 -0.725051
    24 1.789778 0.000001 0.000000 0.000003 0.003264 0.228610
    25 1.207008 -0.000002 0.000006 0.000003 0.004991 0.362963
    26 2.052886 0.985136 1.937661 2.259404 -1.197312 2.246039
    27 6.028151 -0.000001 -0.000001 -1.369050 0.617534 -0.826334
    28 11.692554 -0.000001 -0.000006 -0.000009 0.000000 -1.822873
    29 11.481678 -0.000001 -0.000034 1.575715 -0.038497 -0.157669
    30 3.851895 0.119326 -1.223220 -0.469931 0.161689 -0.812370
    31 1.312562 -0.000002 0.000000 -0.000001 0.004688 -0.439764
    32 0.729364 0.000000 0.000007 -0.000004 0.002411 -0.244324
    33 3.926702 0.312412 -0.458782 -0.150495 0.082974 -0.742910
    34 1.539092 -0.000004 -0.000002 -0.000001 0.002917 -0.247792
    35 1.196321 -0.000001 0.000001 0.000002 0.004801 -0.430811
    36 3.883687 0.207149 0.404106 0.087700 0.031628 -0.519980
    37 1.719573 -0.000005 -0.000009 0.000004 0.005021 -0.366483
    38 1.209175 0.000000 0.000002 0.000000 0.002813 -0.216406
    39 3.867672 0.112062 1.301223 0.352482 -0.032984 -0.463865
    40 1.719425 0.000004 -0.000001 0.000002 0.005103 -0.363002
    41 1.099660 0.000000 0.000005 0.000000 0.003240 -0.244334
    42 0.837293 -0.302051 1.317354 -1.250936 -0.669809 -0.720254
    43 1.789779 -0.000001 -0.000002 0.000001 -0.002153 0.228620
    44 1.207002 0.000002 0.000009 0.000002 -0.003284 0.362986
    45 -3.890441 -0.000002 0.000000 -1.607454 -0.863387 -1.367232
    46 17.848177 0.000003 0.000000 0.000000 0.000000 0.917312
    47 16.525257 -0.000004 -0.000008 0.034625 0.069757 -1.107052
    48 6.879458 0.000005 0.000008 -0.081334 -0.002949 -0.584373
    49 3.890450 0.000006 -0.000004 -1.765376 -0.076037 -1.784636
    50 17.848177 -0.000001 0.000001 -0.000001 0.000000 0.756824
    51 16.525257 0.000003 -0.000006 -0.055239 0.157387 -1.046964
    52 6.879454 -0.000006 0.000004 -0.007299 -0.002951 -0.584373
time 6
    0 -0.482832 0.390642 34.387102 1.763532 -0.069251 -0.032513
    1 0.000008 3.345134 -2.981899 1.567770 0.196264 1.544844
    2 4.002706 0.000006 0.000000 0.049448 0.007359 0.022850
    3 3.520304 0.000004 0.000000 0.018382 0.000846 0.097309
    4 8.927017 0.000000 -0.000046 0.012956 -0.003375 0.253927
    5 3.306356 -0.000002 0.000000 3.126058 -0.020110 0.610121
    6 3.597628 -0.000005 0.000000 -0.049477 -0.028134 0.596378
    7 2.052893 0.985139 -1.937610 -2.066022 1.138349 2.510724
    8 6.028142 0.000004 0.000000 1.380680 -0.092705 -0.681538
    9 11.692564 -0.000006 -0.000003 0.000009 0.000000 -1.508868
    10 11.481697 -0.000001 0.000010 -1.555362 0.037123 0.159464
    11 3.855764 0.133035 1.220440 0.469839 -0.167705 -0.811416
    12 1.312559 0.000002 0.000006 -0.000005 -0.007101 -0.439737
    13 0.729365 -0.000001 -0.000004 0.000001 -0.003653 -0.244272
    14 3.930577 0.319836 0.458374 0.150466 -0.088572 -0.742369
    15 1.539091 -0.000001 -0.000002 -0.000001 -0.004412 -0.247775
    16 1.196318 0.000005 0.000011 -0.000001 -0.007271 -0.430771
    17 3.883654 0.207463 -0.403711 -0.087705 -0.035750 -0.519732
    18 1.719576 -0.000003 0.000001 -0.000001 -0.007592 -0.366437
    19 1.209176 0.000004 0.000003 0.000000 -0.004256 -0.216376
    20 3.867631 0.104956 -1.303952 -0.352492 0.029271 -0.464101
    21 1.719420 -0.000002 -0.000009 0.000000 -0.007721 -0.362966
    22 1.099664 0.000004 -0.000011 -0.000001 -0.004910 -0.244318
    23 0.837261 -0.312968 -1.310525 1.247998 0.664345 -0.725051
    24 1.789778 0.000001 0.000000 0.000003 0.003264 0.228610
    25 1.207008 -0.000002 0.000006 0.000003 0.004991 0.362963
    26 2.052886 0.981230 1.937661 2.077455 -1.134099 2.420893
    27 6.028151 -0.000001 -0.000001 -1.156196 0.854189 -0.678144
    28 11.692554 -0.000001 -0.000006 -0.000009 0.000000 -1.674738
    29 11.481678 -0.000001 -0.000034 1.575794 -0.038460 -0.159658
    30 3.855801 0.119326 -1.223220 -0.469931 0.161689 -0.812370
    31 1.312562 -0.000002 0.000000 -0.000001 0.004688 -0.439764
    32 0.729364 0.000000 0.000007 -0.000004 0.002411 -0.244324
    33 3.930608 0.312412 -0.458782 -0.150495 0.082974 -0.742910
    34 1.539092 -0.000004 -0.000002 -0.000001 0.002917 -0.247792
    35 1.196321 -0.000001 0.000001 0.000002 0.004801 -0.430811
    36 3.883687 0.207149 0.404106 0.087700 0.031628 -0.519980
    37 1.719573 -0.000005 -0.000009 0.000004 0.005021 -0.366483
    38 1.209175 0.000000 0.000002 0.000000 0.002813 -0.216406
    39 3.863766 0.112062 1.301223 0.352482 -0.032984 -0.463865
    40 1.719425 0.000004 -0.000001 0.000002 0.005103 -0.363002
    41 1.099660 0.000000 0.000005 0.000000 0.003240 -0.244334
    42 0.837293 -0.305957 1.313448 -1.250936 -0.669809 -0.720254
    43 1.789779 -0.000001 -0.000002 0.000001 -0.002153 0.228620
    44 1.207002 0.000002 0.000009 0.000002 -0.003284 0.362986
    45 -3.890441 -0.000002 0.000000 -1.528310 -0.974055 -1.455896
    46 17.848177 0.000003 0.000000 0.000000 0.000000 1.247825
    47 16.525257 -0.000004 -0.000008 0.161818 0.148725 -1.302316
    48 6.879458 0.000005 0.000008 -0.081334 -0.002949 -0.584373
    49 3.890450 0.000006 -0.000004 -1.707577 0.007114 -1.809453
    50 17.848177 -0.000001 0.000001 -0.000001 0.000000 0.595297
    51 16.525257 0.000003 -0.000006 -0.045879 0.075498 -1.079169
    52 6.879454 -0.000006 0.000004 -0.007299 -0.002951 -0.584373
time 7
    0 -0.486739 0.394548 33.676143 1.744865 -0.119342 0.024785
    1 0.000008 3.345134 -2.981899 1.552001 0.195756 1.493784
    2 4.002706 0.000006 0.000000 0.070505 0.045194 0.036297
    3 3.520304 0.000004 0.000000 0.049695 -0.001024 0.097237
    4 8.927017 0.000000 -0.000046 0.035715 -0.009295 0.253783
    5 3.306356 -0.000002 0.000000 3.094131 -0.061085 0.702832
    6 3.597628 -0.000005 0.000000 -0.167767 -0.066948 0.691134
    7 2.052893 0.985139 -1.937610 -2.009789 1.044274 2.552769
    8 6.028142 0.000004 0.000000 1.518284 0.103297 -0.447599
    9 11.692564 -0.000006 -0.000003 0.000009 0.000000 -1.655641
    10 11.481697 -0.000001 0.000010 -1.555362 0.037123 0.159963
    11 3.855764 0.133035 1.220440 0.469839 -0.167705 -0.811416
    12 1.312559 0.000002 0.000006 -0.000005 -0.007101 -0.439737
    13 0.729365 -0.000001 -0.000004 0.000001 -0.003653 -0.244272
    14 3.926671 0.319836 0.458374 0.150466 -0.088572 -0.742369
    15 1.539091 -0.000001 -0.000002 -0.000001 -0.004412 -0.247775
    16 1.196318 0.000005 0.000011 -0.000001 -0.007271 -0.430771
    17 3.883654 0.207463 -0.403711 -0.087705 -0.035750 -0.519732
    18 1.719576 -0.000003 0.000001 -0.000001 -0.007592 -0.366437
    19 1.209176 0.000004 0.000003 0.000000 -0.004256 -0.216376
    20 3.867631 0.104956 -1.303952 -0.352492 0.029271 -0.464101
    21 1.719420 -0.000002 -0.000009 0.000000 -0.007721 -0.362966
    22 1.099664 0.000004 -0.000011 -0.000001 -0.004910 -0.244318
    23 0.837261 -0.312968 -1.310525 1.247998 0.664345 -0.725051
    24 1.789778 0.000001 0.000000 0.000003 0.003264 0.228610
    25 1.207008 -0.000002 0.000006 0.000003 0.004991 0.362963
    26 2.052886 0.985136 1.937661 1.936589 -1.060717 2.557422
    27 6.028151 -0.000001 -0.000001 -0.852924 1.030116 -0.360648
    28 11.692554 -0.000001 -0.000006 -0.000009 0.000000 -1.532760
    29 11.481678 -0.000001 -0.000034 1.575557 -0.038497 -0.154171
    30 3.851895 0.119326 -1.223220 -0.469931 0.161689 -0.812370
    31 1.312562 -0.000002 0.000000 -0.000001 0.004688 -0.439764
    32 0.729364 0.000000 0.000007 -0.000004 0.002411 -0.244324
    33 3.926702 0.312412 -0.458782 -0.150495 0.082974 -0.742910
    34 1.539092 -0.000004 -0.000002 -0.000001 0.002917 -0.247792
    35 1.196321 -0.000001 0.000001 0.000002 0.004801 -0.430811
    36 3.883687 0.211056 0.404106 0.087700 0.031628 -0.519980
    37 1.719573 -0.000005 -0.000009 0.000004 0.005021 -0.366483
    38 1.209175 0.000000 0.000002 0.000000 0.002813 -0.216406
    39 3.867672 0.115969 1.301223 0.352482 -0.032984 -0.463865
    40 1.719425 0.000004 -0.000001 0.000002 0.005103 -0.363002
    41 1.099660 0.000000 0.000005 0.000000 0.003240 -0.244334
    42 0.833386 -0.302051 1.313448 -1.250936 -0.669809 -0.720254
    43 1.789779 -0.000001 -0.000002 0.000001 -0.002153 0.228620
    44 1.207002 0.000002 0.000009 0.000002 -0.003284 0.362986
    45 -3.890441 -0.000002 0.000000 -1.381003 -0.981481 -1.648916
    46 17.848177 0.000003 0.000000 0.000000 0.000000 1.489351
    47 16.525257 -0.000004 -0.000008 0.256217 0.209140 -1.436608
    48 6.879458 0.000005 0.000008 -0.081334 -0.002949 -0.584373
    49 3.890450 0.000006 -0.000004 -1.703839 0.041079 -1.823485
    50 17.848177 -0.000001 0.000001 -0.000001 0.000000 0.520279
    51 16.525257 0.000003 -0.000006 0.038702 -0.013518 -1.391438
    52 6.879454 -0.000006 0.000004 -0.007299 -0.002951 -0.584373
time 8
    0 -0.490645 0.398455 33.523795 1.703880 -0.178131 0.081037
    1 0.000008 3.345134 -2.981899 1.534639 0.194521 1.433278
    2 3.998799 0.000006 0.000000 0.081915 0.076629 0.065848
    3 3.520304 0.000004 0.000000 0.071777 -0.002666 0.097135
    4 8.927017 0.000000 -0.000046 0.051798 -0.013478 0.253604
    5 3.306356 -0.000002 0.000000 3.076586 -0.083569 0.745669
    6 3.597628 -0.000005 0.000000 -0.269739 -0.095899 0.738464
    7 2.052893 0.985139 -1.937610 -1.996996 0.989975 2.554397
    8 6.028142 0.000004 0.000000 1.626700 0.169554 -0.267065
    9 11.692564 -0.000006 -0.000003 0.000009 0.000000 -1.821513
    10 11.481697 -0.000001 0.000010 -1.555495 0.037156 0.156165
    11 3.855764 0.133035 1.220440 0.469839 -0.167705 -0.811416
    12 1.312559 0.000002 0.000006 -0.000005 -0.007101 -0.439737
    13 0.729365 -0.000001 -0.000004 0.000001 -0.003653 -0.244272
    14 3.930577 0.319836 0.458374 0.150466 -0.088572 -0.742369
    15 1.539091 -0.000001 -0.000002 -0.000001 -0.004412 -0.247775
    16 1.196318 0.000005 0.000011 -0.000001 -0.007271 -0.430771
    17 3.883654 0.207463 -0.403711 -0.087705 -0.035750 -0.519732
    18 1.719576 -0.000003 0.000001 -0.000001 -0.007592 -0.366437
    19 1.209176 0.000004 0.000003 0.000000 -0.004256 -0.216376
    20 3.867631 0.104956 -1.303952 -0.352492 0.029271 -0.464101
    21 1.719420 -0.000002 -0.000009 0.000000 -0.007721 -0.362966
    22 1.099664 0.000004 -0.000011 -0.000001 -0.004910 -0.244318
    23 0.837261 -0.312968 -1.310525 1.247998 0.664345 -0.725051
    24 1.789778 0.000001 0.000000 0.000003 0.003264 0.228610
    25 1.207008 -0.000002 0.000006 0.000003 0.004991 0.362963
    26 2.052886 0.985136 1.937661 1.861703 -1.020866 2.633591
    27 6.028151 -0.000001 -0.000001 -0.511421 1.111723 0.014218
    28 11.692554 -0.000001 -0.000006 -0.000009 0.000000 -1.412823
    29 11.481678 -0.000001 -0.000034 1.575005 -0.038609 -0.139994
    30 3.851895 0.119326 -1.223220 -0.469931 0.161689 -0.812370
    31 1.312562 -0.000002 0.000000 -0.000001 0.004688 -0.439764
    32 0.729364 0.000000 0.000007 -0.000004 0.002411 -0.244324
    33 3.926702 0.312412 -0.458782 -0.150495 0.082974 -0.742910
    34 1.539092 -0.000004 -0.000002 -0.000001 0.002917 -0.247792
    35 1.196321 -0.000001 0.000001 0.000002 0.004801 -0.430811
    36 3.883687 0.207149 0.404106 0.087700 0.031628 -0.519980
    37 1.719573 -0.000005 -0.000009 0.000004 0.005021 -0.366483
    38 1.209175 0.000000 0.000002 0.000000 0.002813 -0.216406
    39 3.867672 0.115969 1.301223 0.352482 -0.032984 -0.463865
    40 1.719425 0.000004 -0.000001 0.000002 0.005103 -0.363002
    41 1.099660 0.000000 0.000005 0.000000 0.003240 -0.244334
    42 0.837293 -0.302051 1.313448 -1.250936 -0.669809 -0.720254
    43 1.789779 -0.000001 -0.000002 0.000001 -0.002153 0.228620
    44 1.207002 0.000002 0.000009 0.000002 -0.003284 0.362986
    45 -3.890441 -0.000002 0.000000 -1.249744 -0.891817 -1.854767
    46 17.848177 0.000003 0.000000 0.000000 0.000000 1.641240
    47 16.525257 -0.000004 -0.000008 0.341594 0.212944 -1.492567
    48 6.879458 0.000005 0.000008 -0.081334 -0.002949 -0.584373
    49 3.890450 0.000006 -0.000004 -1.578848 -0.075744 -1.837134
    50 17.848177 -0.000001 0.000001 -0.000001 0.000000 0.682106
    51 16.525257 0.000003 -0.000006 0.059177 -0.099821 -1.713213
    52 6.879454 -0.000006 0.000004 -0.007299 -0.002951 -0.584373
time 9
    0 -0.494551 0.429706 33.875368 1.662836 -0.199177 0.130067
    1 0.000008 3.345134 -2.981899 1.525401 0.193878 1.410756
    2 4.002706 0.000006 0.000000 0.085282 0.089225 0.095399
    3 3.520304 0.000004 0.000000 0.084018 -0.003996 0.097076
    4 8.927017 0.000000 -0.000046 0.060715 -0.015803 0.253472
    5 3.306356 -0.000002 0.000000 3.083393 -0.074868 0.713930
    6 3.597628 -0.000005 0.000000 -0.329759 -0.097125 0.711952
    7 2.052893 0.985139 -1.937610 -2.044922 1.008666 2.505744
    8 6.028142 0.000004 0.000000 1.711339 0.139910 -0.214032
    9 11.692564 -0.000006 -0.000003 0.000009 0.000000 -1.993325
    10 11.481697 -0.000001 0.000010 -1.555894 0.037320 0.146457
    11 3.855764 0.133035 1.220440 0.469839 -0.167705 -0.811416
    12 1.312559 0.000002 0.000006 -0.000005 -0.007101 -0.439737
    13 0.729365 -0.000001 -0.000004 0.000001 -0.003653 -0.244272
    14 3.930577 0.319836 0.458374 0.150466 -0.088572 -0.742369
    15 1.539091 -0.000001 -0.000002 -0.000001 -0.004412 -0.247775
    16 1.196318 0.000005 0.000011 -0.000001 -0.007271 -0.430771
    17 3.883654 0.207463 -0.403711 -0.087705 -0.035750 -0.519732
    18 1.719576 -0.000003 0.000001 -0.000001 -0.007592 -0.366437
    19 1.209176 0.000004 0.000003 0.000000 -0.004256 -0.216376
    20 3.867631 0.104956 -1.303952 -0.352492 0.029271 -0.464101
    21 1.719420 -0.000002 -0.000009 0.000000 -0.007721 -0.362966
    22 1.099664 0.000004 -0.000011 -0.000001 -0.004910 -0.244318
    23 0.837261 -0.312968 -1.314431 1.247998 0.664345 -0.725051
    24 1.789778 0.000001 0.000000 0.000003 0.003264 0.228610
    25 1.207008 -0.000002 0.000006 0.000003 0.004991 0.362963
    26 2.052886 0.981230 1.937661 1.852509 -1.053218 2.649688
    27 6.028151 -0.000001 -0.000001 -0.298663 1.129668 0.221460
    28 11.692554 -0.000001 -0.000006 -0.000009 0.000000 -1.325720
    29 11.481678 -0.000001 -0.000034 1.573900 -0.038683 -0.111271
    30 3.851895 0.119326 -1.223220 -0.469931 0.161689 -0.812370
    31 1.312562 -0.000002 0.000000 -0.000001 0.004688 -0.439764
    32 0.729364 0.000000 0.000007 -0.000004 0.002411 -0.244324
    33 3.930608 0.312412 -0.458782 -0.150495 0.082974 -0.742886
    34 1.539092 -0.000004 -0.000002 -0.000001 0.002917 -0.247792
    35 1.196321 -0.000001 0.000001 0.000002 0.004801 -0.430811
    36 3.883687 0.207149 0.404106 0.087700 0.031628 -0.519980
    37 1.719573 -0.000005 -0.000009 0.000004 0.005021 -0.366483
    38 1.209175 0.000000 0.000002 0.000000 0.002813 -0.216406
    39 3.867672 0.115969 1.301223 0.352482 -0.032984 -0.463865
    40 1.719425 0.000004 -0.000001 0.000002 0.005103 -0.363002
    41 1.099660 0.000000 0.000005 0.000000 0.003240 -0.244334
    42 0.837293 -0.302051 1.317354 -1.250936 -0.669809 -0.720254
    43 1.789779 -0.000001 -0.000002 0.000001 -0.002153 0.228620
    44 1.207002 0.000002 0.000009 0.000002 -0.003284 0.362986
    45 -3.890441 -0.000002 0.000000 -1.184706 -0.749256 -1.983937
    46 17.848177 0.000003 0.000000 0.000000 0.000000 1.698777
    47 16.525257 -0.000004 -0.000008 0.412169 0.142721 -1.450515
    48 6.879458 0.000005 0.000008 -0.081334 -0.002949 -0.584373
    49 3.890450 0.000006 -0.000004 -1.596868 -0.234998 -1.737578
    50 17.848177 -0.000001 0.000001 -0.000001 0.000000 0.838150
    51 16.525257 0.000003 -0.000006 -0.009292 0.003590 -1.662705
    52 6.879454 -0.000006 0.000004 -0.007299 -0.002951 -0.584373
time 10
    0 -0.475019 0.449237 34.629297 1.647113 -0.171075 0.163799
    1 0.000008 3.345134 -2.981899 1.527366 0.194656 1.438747
    2 4.002706 0.000006 0.000000 0.078811 0.087440 0.108830
    3 3.520304 0.000004 0.000000 0.087692 -0.005027 0.097047
    4 8.927017 0.000000 -0.000046 0.063435 -0.016510 0.253436
    5 3.306356 -0.000002 0.000000 3.103527 -0.049017 0.644891
    6 3.597628 -0.000005 0.000000 -0.348526 -0.071107 0.645767
    7 2.052893 0.985139 -1.937610 -2.158152 1.080790 2.401735
    8 6.028142 0.000004 0.000000 1.759514 0.041241 -0.222141
    9 11.692564 -0.000006 -0.000003 0.000009 0.000000 -2.144385
    10 11.481697 -0.000001 0.000010 -1.556692 0.037616 0.123896
    11 3.851858 0.133035 1.220440 0.469839 -0.167705 -0.811416
    12 1.312559 0.000002 0.000006 -0.000005 -0.007101 -0.439737
    13 0.729365 -0.000001 -0.000004 0.000001 -0.003653 -0.244272
    14 3.926671 0.319836 0.458374 0.150466 -0.088572 -0.742369
    15 1.539091 -0.000001 -0.000002 -0.000001 -0.004412 -0.247775
    16 1.196318 0.000005 0.000011 -0.000001 -0.007271 -0.430771
    17 3.883654 0.207463 -0.403711 -0.087705 -0.035750 -0.519732
    18 1.719576 -0.000003 0.000001 -0.000001 -0.007592 -0.366437
    19 1.209176 0.000004 0.000003 0.000000 -0.004256 -0.216376
    20 3.867631 0.104956 -1.303952 -0.352492 0.029271 -0.464101
    21 1.719420 -0.000002 -0.000009 0.000000 -0.007721 -0.362966
    22 1.099664 0.000004 -0.000011 -0.000001 -0.004910 -0.244318
    23 0.837261 -0.312968 -1.310525 1.247998 0.664345 -0.725051
    24 1.789778 0.000001 0.000000 0.000003 0.003264 0.228610
    25 1.207008 -0.000002 0.000006 0.000003 0.004991 0.362963
    26 2.052886 0.981230 1.937661 1.901731 -1.142462 2.609447
    27 6.028151 -0.000001 -0.000001 -0.288818 1.136562 0.170911
    28 11.692554 -0.000001 -0.000006 -0.000009 0.000000 -1.271072
    29 11.481678 -0.000001 -0.000034 1.568376 -0.038720 0.033999
    30 3.851895 0.119326 -1.223220 -0.469931 0.161689 -0.812370
    31 1.312562 -0.000002 0.000000 -0.000001 0.004688 -0.439764
    32 0.729364 0.000000 0.000007 -0.000004 0.002411 -0.244324
    33 3.926702 0.312412 -0.458782 -0.150495 0.082974 -0.742910
    34 1.539092 -0.000004 -0.000002 -0.000001 0.002917 -0.247792
    35 1.196321 -0.000001 0.000001 0.000002 0.004801 -0.430811
    36 3.883687 0.207149 0.404106 0.087700 0.031628 -0.519980
    37 1.719573 -0.000005 -0.000009 0.000004 0.005021 -0.366483
    38 1.209175 0.000000 0.000002 0.000000 0.002813 -0.216406
    39 3.867672 0.112062 1.301223 0.352482 -0.032984 -0.463865
    40 1.719425 0.000004 -0.000001 0.000002 0.005103 -0.363002
    41 1.099660 0.000000 0.000005 0.000000 0.003240 -0.244334
    42 0.837293 -0.302051 1.313448 -1.250936 -0.669809 -0.720254
    43 1.789779 -0.000001 -0.000002 0.000001 -0.002153 0.228620
    44 1.207002 0.000002 0.000009 0.000002 -0.003284 0.362986
    45 -3.890441 -0.000002 0.000000 -1.164772 -0.609930 -2.036192
    46 17.848177 0.000003 0.000000 0.000000 0.000000 1.667083
    47 16.525257 -0.000004 -0.000008 0.443170 0.034254 -1.360877
    48 6.879458 0.000005 0.000008 -0.081334 -0.002949 -0.584373
    49 3.890450 0.000006 -0.000004 -1.550667 -0.353925 -1.629909
    50 17.848177 -0.000001 0.000001 -0.000001 0.000000 0.830040
    51 16.525257 0.000003 -0.000006 -0.094703 0.035111 -1.524140
    52 6.879454 -0.000006 0.000004 -0.007299 -0.002951 -0.584373
time 11
    0 -0.471113 0.445331 35.594170 1.664426 -0.118308 0.175677
    1 0.000008 3.345134 -2.981899 1.536604 0.195739 1.492989
    2 3.998799 0.000006 0.000000 0.060318 0.081327 0.098719
    3 3.520304 0.000004 0.000000 0.084217 -0.005758 0.097076
    4 8.927017 0.000000 -0.000046 0.060955 -0.015863 0.253472
    5 3.306356 -0.000002 0.000000 3.127304 -0.018552 0.568787
    6 3.597628 -0.000005 0.000000 -0.338114 -0.036825 0.569286
    7 2.052893 0.985139 -1.937610 -2.326468 1.161744 2.246200
    8 6.028142 0.000004 0.000000 1.773887 -0.082776 -0.334823
    9 11.692564 -0.000006 -0.000003 0.000009 0.000000 -2.201004
    10 11.481697 -0.000001 0.000010 -1.563611 0.039557 -0.055060
    11 3.855764 0.133035 1.220440 0.469839 -0.167705 -0.811416
    12 1.312559 0.000002 0.000006 -0.000005 -0.007101 -0.439737
    13 0.729365 -0.000001 -0.000004 0.000001 -0.003653 -0.244272
    14 3.926671 0.319836 0.458374 0.150466 -0.088572 -0.742369
    15 1.539091 -0.000001 -0.000002 -0.000001 -0.004412 -0.247775
    16 1.196318 0.000005 0.000011 -0.000001 -0.007271 -0.430771
    17 3.883654 0.207463 -0.403711 -0.087705 -0.035750 -0.519732
    18 1.719576 -0.000003 0.000001 -0.000001 -0.007592 -0.366437
    19 1.209176 0.000004 0.000003 0.000000 -0.004256 -0.216376
    20 3.867631 0.104956 -1.303952 -0.352492 0.029271 -0.464101
    21 1.719420 -0.000002 -0.000009 0.000000 -0.007721 -0.362966
    22 1.099664 0.000004 -0.000011 -0.000001 -0.004910 -0.244318
    23 0.837261 -0.312968 -1.310525 1.247998 0.664345 -0.725051
    24 1.789778 0.000001 0.000000 0.000003 0.003264 0.228610
    25 1.207008 -0.000002 0.000006 0.000003 0.004991 0.362963
    26 2.052886 0.985136 1.937661 2.012911 -1.243524 2.506355
    27 6.028151 -0.000001 -0.000001 -0.397300 1.096076 -0.097905
    28 11.692554 -0.000001 -0.000006 -0.000009 0.000000 -1.248878
    29 11.481678 -0.000001 -0.000034 1.563957 -0.038200 0.151136
    30 3.851895 0.119326 -1.219313 -0.469931 0.161689 -0.812370
    31 1.312562 -0.000002 0.000000 -0.000001 0.004688 -0.439764
    32 0.729364 0.000000 0.000007 -0.000004 0.002411 -0.244324
    33 3.930608 0.312412 -0.458782 -0.150495 0.082974 -0.742886
    34 1.539092 -0.000004 -0.000002 -0.000001 0.002917 -0.247792
    35 1.196321 -0.000001 0.000001 0.000002 0.004801 -0.430811
    36 3.883687 0.207149 0.404106 0.087700 0.031628 -0.519980
    37 1.719573 -0.000005 -0.000009 0.000004 0.005021 -0.366483
    38 1.209175 0.000000 0.000002 0.000000 0.002813 -0.216406
    39 3.867672 0.112062 1.301223 0.352482 -0.032984 -0.463865
    40 1.719425 0.000004 -0.000001 0.000002 0.005103 -0.363002
    41 1.099660 0.000000 0.000005 0.000000 0.003240 -0.244334
    42 0.837293 -0.302051 1.317354 -1.250936 -0.669809 -0.720254
    43 1.789779 -0.000001 -0.000002 0.000001 -0.002153 0.228620
    44 1.207002 0.000002 0.000009 0.000002 -0.003284 0.362986
    45 -3.890441 -0.000002 0.000000 -1.167644 -0.506369 -2.042763
    46 17.848177 0.000003 0.000000 0.000000 0.000000 1.565824
    47 16.525257 -0.000004 -0.000008 0.435295 -0.064424 -1.255487
    48 6.879458 0.000005 0.000008 -0.081334 -0.002949 -0.584373
    49 3.890450 0.000006 -0.000004 -1.550955 -0.428659 -1.490263
    50 17.848177 -0.000001 0.000001 -0.000001 0.000000 0.672418
    51 16.525257 0.000003 -0.000006 -0.167048 0.084384 -1.316906
    52 6.879454 -0.000006 0.000004 -0.007299 -0.002951 -0.584373
time 12
    0 -0.467207 0.437518 36.156688 1.696578 -0.065693 0.162089
    1 0.000008 3.345134 -2.981899 1.548550 0.196264 1.547678
    2 4.002706 0.000006 0.000000 0.032898 0.069786 0.076772
    3 3.520304 0.000004 0.000000 0.072957 -0.003564 0.097135
    4 8.923110 0.000000 -0.000046 0.052697 -0.013717 0.253592
    5 3.306356 -0.000002 0.000000 3.132578 -0.011805 0.508499
    6 3.597628 -0.000005 0.000000 -0.290343 -0.008923 0.505000
    7 2.052893 0.985139 -1.937610 -2.440748 1.203294 2.139701
    8 6.028142 0.000004 0.000000 1.722163 -0.203404 -0.512375
    9 11.692564 -0.000006 -0.000003 0.000009 0.000000 -2.124309
    10 11.481697 -0.000001 0.000010 -1.568001 0.040117 -0.168865
    11 3.855764 0.133035 1.220440 0.469839 -0.167705 -0.811416
    12 1.312559 0.000002 0.000006 -0.000005 -0.007101 -0.439737
    13 0.729365 -0.000001 -0.000004 0.000001 -0.003653 -0.244272
    14 3.926671 0.319836 0.458374 0.150466 -0.088572 -0.742369
    15 1.539091 -0.000001 -0.000002 -0.000001 -0.004412 -0.247775
    16 1.196318 0.000005 0.000011 -0.000001 -0.007271 -0.430771
    17 3.883654 0.207463 -0.403711 -0.087705 -0.035750 -0.519732
    18 1.719576 -0.000003 0.000001 -0.000001 -0.007592 -0.366437
    19 1.209176 0.000004 0.000003 0.000000 -0.004256 -0.216376
    20 3.867631 0.104956 -1.303952 -0.352492 0.029271 -0.464101
    21 1.719420 -0.000002 -0.000009 0.000000 -0.007721 -0.362966
    22 1.099664 0.000004 -0.000011 -0.000001 -0.004910 -0.244318
    23 0.837261 -0.312968 -1.310525 1.247998 0.664345 -0.725051
    24 1.789778 0.000001 0.000000 0.000003 0.003264 0.228610
    25 1.207008 -0.000002 0.000006 0.000003 0.004991 0.362963
    26 2.052886 0.985136 1.937661 2.119686 -1.294330 2.403264
    27 6.028151 -0.000001 -0.000001 -0.628792 0.983714 -0.481087
    28 11.692554 -0.000001 -0.000006 -0.000009 0.000000 -1.260127
    29 11.481678 -0.000001 -0.000034 1.562852 -0.037977 0.178532
    30 3.851895 0.119326 -1.223220 -0.469931 0.161689 -0.812370
    31 1.312562 -0.000002 0.000000 -0.000001 0.004688 -0.439764
    32 0.729364 0.000000 0.000007 -0.000004 0.002411 -0.244324
    33 3.926702 0.312412 -0.458782 -0.150495 0.082974 -0.742910
    34 1.539092 -0.000004 -0.000002 -0.000001 0.002917 -0.247792
    35 1.196321 -0.000001 0.000001 0.000002 0.004801 -0.430811
    36 3.883687 0.207149 0.404106 0.087700 0.031628 -0.519980
    37 1.719573 -0.000005 -0.000009 0.000004 0.005021 -0.366483
    38 1.209175 0.000000 0.000002 0.000000 0.002813 -0.216406
    39 3.863766 0.112062 1.301223 0.352482 -0.032984 -0.463865
    40 1.719425 0.000004 -0.000001 0.000002 0.005103 -0.363002
    41 1.099660 0.000000 0.000005 0.000000 0.003240 -0.244334
    42 0.837293 -0.305957 1.313448 -1.250936 -0.669809 -0.720254
    43 1.789779 -0.000001 -0.000002 0.000001 -0.002153 0.228620
    44 1.207002 0.000002 0.000009 0.000002 -0.003284 0.362986
    45 -3.890441 -0.000002 0.000000 -1.188169 -0.442447 -2.032637
    46 17.848177 0.000003 0.000000 0.000000 0.000000 1.449205
    47 16.525257 -0.000004 -0.000008 0.387822 -0.163269 -1.132359
    48 6.879458 0.000005 0.000008 -0.081334 -0.002949 -0.584373
    49 3.890450 0.000006 -0.000004 -1.566962 -0.429882 -1.344317
    50 17.848177 -0.000001 0.000001 -0.000001 0.000000 0.371969
    51 16.525257 0.000003 -0.000006 -0.250069 0.116726 -1.052118
    52 6.879454 -0.000006 0.000004 -0.007299 -0.002951 -0.584373
time 13
    0 -0.463300 0.433612 36.184032 1.727022 -0.036101 0.128357
    1 0.000008 3.345134 -2.981899 1.557894 0.196314 1.578254
    2 4.002706 0.000006 0.000000 0.001282 0.051714 0.052418
    3 3.520304 0.000004 0.000000 0.052135 -0.001168 0.097222
    4 8.927017 0.000000 -0.000046 0.037501 -0.009762 0.253771
    5 3.306356 -0.000002 0.000000 3.130468 -0.014477 0.483852
    6 3.597628 -0.000005 0.000000 -0.197077 -0.002134 0.474658
    7 2.052893 0.985139 -1.937610 -2.439220 1.212825 2.142670
    8 6.028142 0.000004 0.000000 1.608779 -0.354058 -0.675667
    9 11.692564 -0.000006 -0.000003 0.000009 0.000000 -1.973700
    10 11.481697 -0.000001 0.000010 -1.568999 0.040183 -0.193344
    11 3.851858 0.133035 1.220440 0.469839 -0.167705 -0.811416
    12 1.312559 0.000002 0.000006 -0.000005 -0.007101 -0.439737
    13 0.729365 -0.000001 -0.000004 0.000001 -0.003653 -0.244272
    14 3.926671 0.319836 0.458374 0.150466 -0.088572 -0.742369
    15 1.539091 -0.000001 -0.000002 -0.000001 -0.004412 -0.247775
    16 1.196318 0.000005 0.000011 -0.000001 -0.007271 -0.430771
    17 3.883654 0.207463 -0.403711 -0.087705 -0.035750 -0.519732
    18 1.719576 -0.000003 0.000001 -0.000001 -0.007592 -0.366437
    19 1.209176 0.000004 0.000003 0.000000 -0.004256 -0.216376
    20 3.867631 0.104956 -1.303952 -0.352492 0.029271 -0.464101
    21 1.719420 -0.000002 -0.000009 0.000000 -0.007721 -0.362966
    22 1.099664 0.000004 -0.000011 -0.000001 -0.004910 -0.244318
    23 0.837261 -0.312968 -1.310525 1.247998 0.664345 -0.725051
    24 1.789778 0.000001 0.000000 0.000003 0.003264 0.228610
    25 1.207008 -0.000002 0.000006 0.000003 0.004991 0.362963
    26 2.052886 0.985136 1.937661 2.158087 -1.293977 2.364269
    27 6.028151 -0.000001 -0.000001 -0.869937 0.745934 -0.780924
    28 11.692554 -0.000001 -0.000006 -0.000009 0.000000 -1.306339
    29 11.481678 -0.000001 -0.000034 1.562300 -0.037903 0.192783
    30 3.851895 0.119326 -1.223220 -0.469931 0.161689 -0.812370
    31 1.312562 -0.000002 0.000000 -0.000001 0.004688 -0.439764
    32 0.729364 0.000000 0.000007 -0.000004 0.002411 -0.244324
    33 3.926702 0.312412 -0.458782 -0.150495 0.082974 -0.742910
    34 1.539092 -0.000004 -0.000002 -0.000001 0.002917 -0.247792
    35 1.196321 -0.000001 0.000001 0.000002 0.004801 -0.430811
    36 3.883687 0.207149 0.404106 0.087700 0.031628 -0.519980
    37 1.719573 -0.000005 -0.000009 0.000004 0.005021 -0.366483
    38 1.209175 0.000000 0.000002 0.000000 0.002813 -0.216406
    39 3.863766 0.112062 1.301223 0.352482 -0.032984 -0.463865
    40 1.719425 0.000004 -0.000001 0.000002 0.005103 -0.363002
    41 1.099660 0.000000 0.000005 0.000000 0.003252 -0.244334
    42 0.837293 -0.302051 1.313448 -1.250936 -0.669809 -0.720254
    43 1.789779 -0.000001 -0.000002 0.000001 -0.002153 0.228620
    44 1.207002 0.000002 0.000009 0.000002 -0.003284 0.362986
    45 -3.890441 -0.000002 0.000000 -1.223813 -0.399483 -2.026607
    46 17.848177 0.000003 0.000000 0.000000 0.000000 1.309263
    47 16.525257 -0.000004 -0.000008 0.279443 -0.267970 -0.969118
    48 6.879458 0.000005 0.000008 -0.081334 -0.002949 -0.584373
    49 3.890450 0.000006 -0.000004 -1.584982 -0.434874 -1.252970
    50 17.848177 -0.000001 0.000001 -0.000001 0.000000 0.195650
    51 16.525257 0.000003 -0.000006 -0.323754 0.119069 -0.900831
    52 6.879454 -0.000006 0.000004 -0.007299 -0.002951 -0.584373
time 14
    0 -0.459394 0.425799 35.613702 1.748987 -0.026247 0.080847
    1 0.000008 3.345134 -2.981899 1.564690 0.196280 1.588495
    2 4.002706 0.000006 0.000000 -0.029338 0.026066 0.032977
    3 3.520304 0.000004 0.000000 0.021565 0.001289 0.097295
    4 8.927017 0.000000 -0.000046 0.015233 -0.003962 0.253927
    5 3.306356 -0.000002 0.000000 3.130277 -0.014705 0.520573
    6 3.597628 -0.000005 0.000000 -0.063476 0.003767 0.507091
    7 2.052893 0.985139 -1.937610 -2.318831 1.192855 2.259896
    8 6.028142 0.000004 0.000000 1.445357 -0.560992 -0.727767
    9 11.692564 -0.000006 -0.000003 0.000009 0.000000 -1.822867
    10 11.481697 -0.000001 0.000010 -1.569464 0.040183 -0.203743
    11 3.855764 0.133035 1.220440 0.469839 -0.167705 -0.811416
    12 1.312559 0.000002 0.000006 -0.000005 -0.007101 -0.439737
    13 0.729365 -0.000001 -0.000004 0.000001 -0.003653 -0.244272
    14 3.930577 0.319836 0.458374 0.150466 -0.088572 -0.742369
    15 1.539091 -0.000001 -0.000002 -0.000001 -0.004412 -0.247775
    16 1.196318 0.000005 0.000011 -0.000001 -0.007271 -0.430771
    17 3.883654 0.207463 -0.403711 -0.087705 -0.035750 -0.519732
    18 1.719576 -0.000003 0.000001 -0.000001 -0.007592 -0.366437
    19 1.209176 0.000004 0.000003 0.000000 -0.004256 -0.216376
    20 3.867631 0.104956 -1.303952 -0.352492 0.029271 -0.464101
    21 1.719420 -0.000002 -0.000009 0.000000 -0.007721 -0.362966
    22 1.099664 0.000004 -0.000011 -0.000001 -0.004910 -0.244318
    23 0.837261 -0.312968 -1.310525 1.247998 0.664345 -0.725051
    24 1.789778 0.000001 0.000000 0.000003 0.003264 0.228610
    25 1.207008 -0.000002 0.000006 0.000003 0.005003 0.362963
    26 2.052886 0.985136 1.937661 2.117292 -1.247254 2.399335
    27 6.028151 -0.000001 -0.000001 -1.066256 0.409580 -0.864363
    28 11.692554 -0.000001 -0.000006 -0.000009 0.000000 -1.389717
    29 11.481678 -0.000001 -0.000034 1.562063 -0.037791 0.201216
    30 3.851895 0.123232 -1.223220 -0.469931 0.161689 -0.812370
    31 1.312562 -0.000002 0.000000 -0.000001 0.004688 -0.439764
    32 0.729364 0.000000 0.000007 -0.000004 0.002411 -0.244324
    33 3.926702 0.312412 -0.458782 -0.150495 0.082974 -0.742886
    34 1.539092 -0.000004 -0.000002 -0.000001 0.002917 -0.247792
    35 1.196321 -0.000001 0.000001 0.000002 0.004801 -0.430811
    36 3.883687 0.207149 0.404106 0.087700 0.031628 -0.519980
    37 1.719573 -0.000005 -0.000009 0.000004 0.005021 -0.366483
    38 1.209175 0.000000 0.000002 0.000000 0.002813 -0.216406
    39 3.867672 0.115969 1.301223 0.352482 -0.032984 -0.463865
    40 1.719425 0.000004 -0.000001 0.000002 0.005103 -0.363002
    41 1.099660 0.000000 0.000005 0.000000 0.003240 -0.244334
    42 0.837293 -0.302051 1.313448 -1.250936 -0.669809 -0.720254
    43 1.789779 -0.000001 -0.000002 0.000001 -0.002153 0.228620
    44 1.207002 0.000002 0.000009 0.000002 -0.003284 0.362986
    45 -3.890441 -0.000002 0.000000 -1.268664 -0.378570 -2.026994
    46 17.848177 0.000003 0.000000 0.000000 0.000000 1.178423
    47 16.525257 -0.000004 -0.000008 0.131889 -0.346957 -0.872857
    48 6.879458 0.000005 0.000008 -0.081334 -0.002949 -0.584373
    49 3.890450 0.000006 -0.000004 -1.624281 -0.690249 -1.248770
    50 17.848177 -0.000001 0.000001 -0.000001 0.000000 0.673395
    51 16.525257 0.000003 -0.000006 -0.322341 0.081318 -1.129866
    52 6.879454 -0.000006 0.000004 -0.007299 -0.002951 -0.584373
time 15
    0 -0.459394 0.417987 34.453511 1.758762 -0.015724 0.025450
    1 0.000008 3.345134 -2.981899 1.572230 0.196247 1.599334
    2 3.998799 0.000006 0.000000 -0.055009 -0.007910 0.025042
    3 3.520304 0.000004 0.000000 -0.014695 0.003483 0.097309
    4 8.923110 0.000000 -0.000046 -0.011121 0.002881 0.253939
    5 3.306356 -0.000002 0.000000 3.151945 0.013483 0.605191
    6 3.597628 -0.000005 0.000000 0.079268 0.037409 0.592066
    7 2.052893 0.985139 -1.937610 -2.133807 1.135832 2.438991
    8 6.028142 0.000004 0.000000 1.244228 -0.790838 -0.623380
    9 11.692564 -0.000006 -0.000003 0.000009 0.000000 -1.674665
    10 11.481697 -0.000001 0.000010 -1.569531 0.040183 -0.205699
    11 3.855764 0.133035 1.220440 0.469839 -0.167705 -0.811416
    12 1.312559 0.000002 0.000006 -0.000005 -0.007101 -0.439737
    13 0.729365 -0.000001 -0.000004 0.000001 -0.003653 -0.244272
    14 3.926671 0.319836 0.458374 0.150466 -0.088572 -0.742369
    15 1.539091 -0.000001 -0.000002 -0.000001 -0.004412 -0.247775
    16 1.196318 0.000005 0.000011 -0.000001 -0.007271 -0.430771
    17 3.883654 0.207463 -0.403711 -0.087705 -0.035750 -0.519732
    18 1.719576 -0.000003 0.000001 -0.000001 -0.007592 -0.366437
    19 1.209176 0.000004 0.000003 0.000000 -0.004256 -0.216376
    20 3.867631 0.104956 -1.303952 -0.352492 0.029271 -0.464101
    21 1.719420 -0.000002 -0.000009 0.000000 -0.007721 -0.362966
    22 1.099664 0.000004 -0.000011 -0.000001 -0.004910 -0.244318
    23 0.837261 -0.312968 -1.314431 1.247998 0.664345 -0.725051
    24 1.789778 0.000001 0.000000 0.000003 0.003264 0.228610
    25 1.207008 -0.000002 0.000006 0.000003 0.004991 0.362963
    26 2.052886 0.985136 1.937661 2.040299 -1.158403 2.464582
    27 6.028151 -0.000001 -0.000001 -1.252157 0.093323 -0.746353
    28 11.692554 -0.000001 -0.000006 -0.000009 0.000000 -1.508818
    29 11.481678 -0.000001 -0.000034 1.561905 -0.037754 0.205524
    30 3.855801 0.123232 -1.223220 -0.469931 0.161689 -0.812370
    31 1.312562 -0.000002 0.000000 -0.000001 0.004688 -0.439764
    32 0.729364 0.000000 0.000007 -0.000004 0.002411 -0.244324
    33 3.930608 0.312412 -0.458782 -0.150495 0.082974 -0.742910
    34 1.539092 -0.000004 -0.000002 -0.000001 0.002917 -0.247792
    35 1.196321 -0.000001 0.000001 0.000002 0.004801 -0.430811
    36 3.883687 0.207149 0.404106 0.087700 0.031628 -0.519980
    37 1.719573 -0.000005 -0.000009 0.000004 0.005021 -0.366483
    38 1.209175 0.000000 0.000002 0.000000 0.002813 -0.216406
    39 3.867672 0.115969 1.301223 0.352482 -0.032984 -0.463865
    40 1.719425 0.000004 -0.000001 0.000002 0.005103 -0.363002
    41 1.099660 0.000000 0.000005 0.000000 0.003240 -0.244334
    42 0.837293 -0.302051 1.313448 -1.250936 -0.669809 -0.720254
    43 1.789779 -0.000001 -0.000002 0.000001 -0.002153 0.228620
    44 1.207002 0.000002 0.000009 0.000002 -0.003284 0.362986
    45 -3.890441 -0.000002 0.000000 -1.327621 -0.355744 -1.982932
    46 17.848177 0.000003 0.000000 0.000000 0.000000 0.963471
    47 16.525257 -0.000004 -0.000008 0.106670 -0.348001 -1.239877
    48 6.879458 0.000005 0.000008 -0.081334 -0.002949 -0.584373
    49 3.890450 0.000006 -0.000004 -1.712849 -0.858118 -1.201712
    50 17.848177 -0.000001 0.000001 -0.000001 0.000000 1.115019
    51 16.525257 0.000003 -0.000006 -0.289751 0.068604 -1.307921
    52 6.879454 -0.000006 0.000004 -0.007299 -0.002951 -0.584373
time 16
    0 -0.459394 0.414080 33.699581 1.746396 0.025426 -0.032037
    1 0.000008 3.345134 -2.981899 1.586193 0.195857 1.641345
    2 3.998799 0.000006 0.000000 -0.073657 -0.041479 0.036945
    3 3.520304 0.000004 0.000000 -0.048342 0.004945 0.097237
    4 8.923110 0.000000 -0.000046 -0.035557 0.009245 0.253795
    5 3.306356 -0.000002 0.000000 3.182913 0.053188 0.697824
    6 3.597628 -0.000005 0.000000 0.183996 0.073718 0.687177
    7 2.052893 0.985139 -1.937610 -1.977138 1.058221 2.591461
    8 6.028142 0.000004 0.000000 0.992175 -0.982831 -0.353091
    9 11.692564 -0.000006 -0.000003 0.000009 0.000000 -1.532703
    10 11.481697 -0.000001 0.000010 -1.569331 0.040183 -0.200213
    11 3.855764 0.133035 1.220440 0.469839 -0.167705 -0.811416
    12 1.312559 0.000002 0.000006 -0.000005 -0.007101 -0.439737
    13 0.729365 -0.000001 -0.000004 0.000001 -0.003653 -0.244272
    14 3.926671 0.319836 0.458374 0.150466 -0.088572 -0.742369
    15 1.539091 -0.000001 -0.000002 -0.000001 -0.004412 -0.247775
    16 1.196318 0.000005 0.000011 -0.000001 -0.007271 -0.430771
    17 3.883654 0.207463 -0.403711 -0.087705 -0.035750 -0.519732
    18 1.719576 -0.000003 0.000001 -0.000001 -0.007592 -0.366437
    19 1.209176 0.000004 0.000003 0.000000 -0.004256 -0.216376
    20 3.867631 0.104956 -1.303952 -0.352492 0.029271 -0.464101
    21 1.719420 -0.000002 -0.000009 0.000000 -0.007721 -0.362966
    22 1.099664 0.000004 -0.000011 -0.000001 -0.004910 -0.244318
    23 0.837261 -0.312968 -1.310525 1.247998 0.664345 -0.725051
    24 1.789778 0.000001 0.000000 0.000003 0.003264 0.228610
    25 1.207008 -0.000002 0.000006 0.000003 0.004991 0.362963
    26 2.052886 0.985136 1.937661 1.979107 -1.056398 2.509805
    27 6.028151 -0.000001 -0.000001 -1.415406 -0.108030 -0.542942
    28 11.692554 -0.000001 -0.000006 -0.000009 0.000000 -1.655661
    29 11.481678 -0.000001 -0.000034 1.561826 -0.037754 0.206003
    30 3.851895 0.123232 -1.223220 -0.469931 0.161689 -0.812370
    31 1.312562 -0.000002 0.000000 -0.000001 0.004688 -0.439764
    32 0.729364 0.000000 0.000007 -0.000004 0.002411 -0.244324
    33 3.930608 0.312412 -0.458782 -0.150495 0.082974 -0.742886
    34 1.539092 -0.000004 -0.000002 -0.000001 0.002917 -0.247792
    35 1.196321 -0.000001 0.000001 0.000002 0.004801 -0.430811
    36 3.883687 0.211056 0.404106 0.087700 0.031628 -0.519980
    37 1.719573 -0.000005 -0.000009 0.000004 0.005021 -0.366483
    38 1.209175 0.000000 0.000002 0.000000 0.002813 -0.216406
    39 3.867672 0.115969 1.301223 0.352482 -0.032984 -0.463865
    40 1.719425 0.000004 -0.000001 0.000002 0.005103 -0.363002
    41 1.099660 0.000000 0.000005 0.000000 0.003252 -0.244334
    42 0.837293 -0.302051 1.313448 -1.250936 -0.669809 -0.720254
    43 1.789779 -0.000001 -0.000002 0.000001 -0.002153 0.228620
    44 1.207002 0.000002 0.000009 0.000002 -0.003284 0.362986
    45 -3.890441 -0.000002 0.000000 -1.344936 -0.396704 -1.919700
    46 17.848177 0.000003 0.000000 0.000000 0.000000 0.905528
    47 16.525257 -0.000004 -0.000008 0.111728 -0.385331 -1.576340
    48 6.879458 0.000005 0.000008 -0.081334 -0.002949 -0.584373
    49 3.890450 0.000006 -0.000004 -1.831130 -0.895704 -1.124492
    50 17.848177 -0.000001 0.000001 -0.000001 0.000000 1.420800
    51 16.525257 0.000003 -0.000006 -0.217016 0.061886 -1.355733
    52 6.879454 -0.000006 0.000004 -0.007299 -0.002951 -0.584373
time 17
    0 -0.455488 0.406267 33.527701 1.712654 0.083363 -0.086294
    1 0.000008 3.345134 -2.981899 1.603183 0.194707 1.700757
    2 3.998799 0.000006 0.000000 -0.084719 -0.063590 0.064321
    3 3.520304 0.000004 0.000000 -0.072639 0.005640 0.097135
    4 8.923110 0.000000 -0.000046 -0.053175 0.013835 0.253592
    5 3.306356 -0.000002 0.000000 3.198637 0.073382 0.745036
    6 3.597628 -0.000005 0.000000 0.262215 0.098048 0.737917
    7 2.052893 0.985139 -1.937610 -1.896655 1.015309 2.673442
    8 6.028142 0.000004 0.000000 0.725039 -1.094867 -0.026322
    9 11.692564 -0.000006 -0.000003 0.000009 0.000000 -1.412773
    10 11.481697 -0.000001 0.000010 -1.568733 0.040183 -0.186054
    11 3.855764 0.133035 1.220440 0.469839 -0.167705 -0.811416
    12 1.312559 0.000002 0.000006 -0.000005 -0.007101 -0.439737
    13 0.729365 -0.000001 -0.000004 0.000001 -0.003653 -0.244272
    14 3.926671 0.319836 0.458374 0.150466 -0.088572 -0.742369
    15 1.539091 -0.000001 -0.000002 -0.000001 -0.004412 -0.247775
    16 1.196318 0.000005 0.000011 -0.000001 -0.007271 -0.430771
    17 3.883654 0.207463 -0.403711 -0.087705 -0.035750 -0.519732
    18 1.719576 -0.000003 0.000001 -0.000001 -0.007592 -0.366437
    19 1.209176 0.000004 0.000003 0.000000 -0.004256 -0.216376
    20 3.867631 0.104956 -1.303952 -0.352492 0.029271 -0.464101
    21 1.719420 -0.000002 -0.000009 0.000000 -0.007721 -0.362966
    22 1.099664 0.000004 -0.000011 -0.000001 -0.004910 -0.244318
    23 0.837261 -0.312968 -1.314431 1.247998 0.664345 -0.725051
    24 1.789778 0.000001 0.000000 0.000003 0.003264 0.228610
    25 1.207008 -0.000002 0.000006 0.000003 0.004991 0.362963
    26 2.052886 0.985136 1.937661 1.964934 -0.997701 2.511817
    27 6.028151 -0.000001 -0.000001 -1.545010 -0.184014 -0.409982
    28 11.692554 -0.000001 -0.000006 -0.000009 0.000000 -1.821505
    29 11.481678 -0.000001 -0.000034 1.561984 -0.037791 0.202210
    30 3.851895 0.119326 -1.223220 -0.469931 0.161689 -0.812370
    31 1.312562 -0.000002 0.000000 -0.000001 0.004688 -0.439764
    32 0.729364 0.000000 0.000007 -0.000004 0.002411 -0.244324
    33 3.926702 0.312412 -0.458782 -0.150495 0.082974 -0.742886
    34 1.539092 -0.000004 -0.000002 -0.000001 0.002917 -0.247792
    35 1.196321 -0.000001 0.000001 0.000002 0.004801 -0.430811
    36 3.883687 0.207149 0.408012 0.087700 0.031628 -0.519980
    37 1.719573 -0.000005 -0.000009 0.000004 0.005021 -0.366483
    38 1.209175 0.000000 0.000002 0.000000 0.002813 -0.216406
    39 3.863766 0.112062 1.301223 0.352482 -0.032984 -0.463865
    40 1.719425 0.000004 -0.000001 0.000002 0.005103 -0.363002
    41 1.099660 0.000000 0.000005 0.000000 0.003240 -0.244334
    42 0.837293 -0.302051 1.317354 -1.250936 -0.669809 -0.720254
    43 1.789779 -0.000001 -0.000002 0.000001 -0.002153 0.228620
    44 1.207002 0.000002 0.000009 0.000002 -0.003284 0.362986
    45 -3.890441 -0.000002 0.000000 -1.503815 -0.499398 -1.734024
    46 17.848177 0.000003 0.000000 0.000000 0.000000 0.966478
    47 16.525257 -0.000004 -0.000008 0.084117 -0.287679 -1.618250
    48 6.879458 0.000005 0.000008 -0.081334 -0.002949 -0.584373
    49 3.890450 0.000006 -0.000004 -1.938484 -0.826551 -1.068366
    50 17.848177 -0.000001 0.000001 -0.000001 0.000000 1.609135
    51 16.525257 0.000003 -0.000006 -0.135726 0.050344 -1.320264
    52 6.879454 -0.000006 0.000004 -0.007299 -0.002951 -0.584373
time 18
    0 -0.455488 0.398455 33.848023 1.675320 0.112286 -0.132094
    1 0.000008 3.345134 -2.981899 1.613695 0.193878 1.730836
    2 3.998799 0.000006 0.000000 -0.088290 -0.071596 0.093938
    3 3.520304 0.000004 0.000000 -0.086087 0.005879 0.097062
    4 8.927017 0.000000 -0.000046 -0.062930 0.016376 0.253436
    5 3.306356 -0.000002 0.000000 3.191734 0.064489 0.721549
    6 3.597628 -0.000005 0.000000 0.321053 0.101460 0.712982
    7 2.052893 0.985139 -1.937610 -1.888349 1.046461 2.688096
    8 6.028142 0.000004 0.000000 0.575901 -1.146326 0.147315
    9 11.692564 -0.000006 -0.000003 0.000009 0.000000 -1.325777
    10 11.481697 -0.000001 0.000010 -1.567602 0.040084 -0.157315
    11 3.855764 0.133035 1.220440 0.469839 -0.167705 -0.811416
    12 1.312559 0.000002 0.000006 -0.000005 -0.007101 -0.439737
    13 0.729365 -0.000001 -0.000004 0.000001 -0.003653 -0.244272
    14 3.926671 0.319836 0.458374 0.150466 -0.088572 -0.742369
    15 1.539091 -0.000001 -0.000002 -0.000001 -0.004412 -0.247775
    16 1.196318 0.000005 0.000011 -0.000001 -0.007271 -0.430771
    17 3.883654 0.207463 -0.403711 -0.087705 -0.035750 -0.519732
    18 1.719576 -0.000003 0.000001 -0.000001 -0.007592 -0.366437
    19 1.209176 0.000004 0.000003 0.000000 -0.004256 -0.216376
    20 3.867631 0.104956 -1.303952 -0.352492 0.029271 -0.464101
    21 1.719420 -0.000002 -0.000009 0.000000 -0.007721 -0.362966
    22 1.099664 0.000004 -0.000011 -0.000001 -0.004910 -0.244318
    23 0.837261 -0.312968 -1.314431 1.247998 0.664345 -0.725051
    24 1.789778 0.000001 0.000000 0.000003 0.003264 0.228610
    25 1.207008 -0.000002 0.000006 0.000003 0.004991 0.362963
    26 2.052886 0.985136 1.937661 2.011092 -1.015762 2.465061
    27 6.028151 -0.000001 -0.000001 -1.638582 -0.171447 -0.386249
    28 11.692554 -0.000001 -0.000006 -0.000009 0.000000 -1.993430
    29 11.481678 -0.000001 -0.000034 1.562379 -0.037903 0.192489
    30 3.855801 0.123232 -1.223220 -0.469931 0.161689 -0.812370
    31 1.312562 -0.000002 0.000000 -0.000001 0.004688 -0.439764
    32 0.729364 0.000000 0.000007 -0.000004 0.002411 -0.244324
    33 3.930608 0.316318 -0.458782 -0.150495 0.082974 -0.742886
    34 1.539092 -0.000004 -0.000002 -0.000001 0.002917 -0.247792
    35 1.196321 -0.000001 0.000001 0.000002 0.004801 -0.430811
    36 3.883687 0.211056 0.404106 0.087700 0.031628 -0.519980
    37 1.719573 -0.000005 -0.000009 0.000004 0.005021 -0.366483
    38 1.209175 0.000000 0.000002 0.000000 0.002813 -0.216406
    39 3.867672 0.115969 1.301223 0.352482 -0.032984 -0.463865
    40 1.719425 0.000004 -0.000001 0.000002 0.005103 -0.363002
    41 1.099660 0.000000 0.000005 0.000000 0.003240 -0.244334
    42 0.837293 -0.302051 1.313448 -1.250936 -0.669809 -0.720254
    43 1.789779 -0.000001 -0.000002 0.000001 -0.002153 0.228620
    44 1.207002 0.000002 0.000009 0.000002 -0.003284 0.362986
    45 -3.890441 -0.000002 0.000000 -1.531097 -0.599177 -1.565817
    46 17.848177 0.000003 0.000000 0.000000 0.000000 1.005487
    47 16.525257 -0.000004 -0.000008 -0.054540 -0.250181 -1.497061
    48 6.879458 0.000005 0.000008 -0.081334 -0.002949 -0.584373
    49 3.890450 0.000006 -0.000004 -1.967911 -0.700918 -1.124396
    50 17.848177 -0.000001 0.000001 -0.000001 0.000000 1.682876
    51 16.525257 0.000003 -0.000006 -0.100504 0.034564 -1.242705
    52 6.879454 -0.000006 0.000004 -0.007299 -0.002951 -0.584373
end
