version 1
nodes
  0 "ValveBiped.Bip01_Pelvis" -1
  1 "ValveBiped.Bip01_Spine" 0
  2 "ValveBiped.Bip01_Spine1" 1
  3 "ValveBiped.Bip01_Spine2" 2
  4 "ValveBiped.Bip01_Spine4" 3
  5 "ValveBiped.Bip01_Neck1" 4
  6 "ValveBiped.Bip01_Head1" 5
  7 "ValveBiped.Bip01_R_Clavicle" 4
  8 "ValveBiped.Bip01_R_UpperArm" 7
  9 "ValveBiped.Bip01_R_Forearm" 8
  10 "ValveBiped.Bip01_R_Hand" 9
  11 "ValveBiped.Bip01_R_Finger4" 10
  12 "ValveBiped.Bip01_R_Finger41" 11
  13 "ValveBiped.Bip01_R_Finger42" 12
  14 "ValveBiped.Bip01_R_Finger3" 10
  15 "ValveBiped.Bip01_R_Finger31" 14
  16 "ValveBiped.Bip01_R_Finger32" 15
  17 "ValveBiped.Bip01_R_Finger2" 10
  18 "ValveBiped.Bip01_R_Finger21" 17
  19 "ValveBiped.Bip01_R_Finger22" 18
  20 "ValveBiped.Bip01_R_Finger1" 10
  21 "ValveBiped.Bip01_R_Finger11" 20
  22 "ValveBiped.Bip01_R_Finger12" 21
  23 "ValveBiped.Bip01_R_Finger0" 10
  24 "ValveBiped.Bip01_R_Finger01" 23
  25 "ValveBiped.Bip01_R_Finger02" 24
  26 "ValveBiped.Bip01_L_Clavicle" 4
  27 "ValveBiped.Bip01_L_UpperArm" 26
  28 "ValveBiped.Bip01_L_Forearm" 27
  29 "ValveBiped.Bip01_L_Hand" 28
  30 "ValveBiped.Bip01_L_Finger4" 29
  31 "ValveBiped.Bip01_L_Finger41" 30
  32 "ValveBiped.Bip01_L_Finger42" 31
  33 "ValveBiped.Bip01_L_Finger3" 29
  34 "ValveBiped.Bip01_L_Finger31" 33
  35 "ValveBiped.Bip01_L_Finger32" 34
  36 "ValveBiped.Bip01_L_Finger2" 29
  37 "ValveBiped.Bip01_L_Finger21" 36
  38 "ValveBiped.Bip01_L_Finger22" 37
  39 "ValveBiped.Bip01_L_Finger1" 29
  40 "ValveBiped.Bip01_L_Finger11" 39
  41 "ValveBiped.Bip01_L_Finger12" 40
  42 "ValveBiped.Bip01_L_Finger0" 29
  43 "ValveBiped.Bip01_L_Finger01" 42
  44 "ValveBiped.Bip01_L_Finger02" 43
  45 "ValveBiped.Bip01_R_Thigh" 0
  46 "ValveBiped.Bip01_R_Calf" 45
  47 "ValveBiped.Bip01_R_Foot" 46
  48 "ValveBiped.Bip01_R_Toe0" 47
  49 "ValveBiped.Bip01_L_Thigh" 0
  50 "ValveBiped.Bip01_L_Calf" 49
  51 "ValveBiped.Bip01_L_Foot" 50
  52 "ValveBiped.Bip01_L_Toe0" 51
end
skeleton
time 0
    0 33.041628 -14.855917 28.675991 1.731556 0.172626 -3.721676
    1 -0.191407 3.341225 -2.981901 1.570796 0.008424 1.629611
    2 4.018334 -0.000002 -0.000002 -0.236084 0.011541 0.167052
    3 3.518568 0.000001 0.000002 -0.298525 -0.188559 0.399142
    4 8.942644 -0.000003 0.000001 0.118864 -0.011476 0.270777
    5 3.307272 0.000000 -0.000001 3.141590 0.000000 0.400478
    6 3.593714 -0.000002 0.000001 1.115134 -0.118701 0.647537
    7 2.033354 1.000771 -1.937610 -2.479128 1.099729 2.081376
    8 6.028141 0.000001 0.000002 -0.702465 1.523527 -2.628362
    9 11.692554 0.000001 0.000000 0.000009 0.000000 -1.366305
    10 11.481702 0.000000 0.000003 -0.819903 0.115035 0.481309
    11 3.859675 -0.132566 1.193107 0.498198 0.156933 -0.982260
    12 1.312563 0.000002 0.000001 -0.000005 -0.456973 -1.112927
    13 0.729364 -0.000003 -0.000006 0.000001 -0.000022 -0.672028
    14 3.942296 0.050330 0.431040 0.160533 0.000246 -0.910148
    15 1.539096 -0.000001 0.000002 -0.000001 -0.214753 -1.281129
    16 1.196322 -0.000001 -0.000002 -0.000001 -0.000008 -0.797295
    17 3.883660 -0.050326 -0.431048 -0.084948 -0.177600 -0.644830
    18 1.719576 -0.000003 0.000000 -0.000001 -0.031645 -1.425491
    19 1.209183 0.000001 0.000004 -0.003428 0.022218 -0.934675
    20 3.859829 -0.148932 -1.331282 -0.321536 -0.122634 -0.062447
    21 1.719428 0.000001 -0.000001 0.000000 0.126411 -0.583364
    22 1.099665 -0.000001 0.000001 -0.051331 0.069071 -1.042812
    23 0.806018 -0.359834 -1.318336 1.282836 0.248639 -0.715189
    24 1.789780 0.000002 0.000001 0.000003 -0.010075 0.141901
    25 1.206999 -0.000003 -0.000002 0.000291 0.001995 1.187223
    26 2.033347 1.000767 1.937662 4.630766 -1.481573 -0.092593
    27 6.028147 -0.000002 0.000000 -3.164307 -0.672482 0.226599
    28 11.692556 0.000003 0.000002 -0.000009 0.000000 -1.065020
    29 11.481676 -0.000005 -0.000034 1.199141 0.314184 0.303550
    30 3.859703 -0.142403 -1.191973 -0.463424 -0.186140 -1.428452
    31 1.312561 0.000001 0.000001 -0.000001 0.066181 -0.827605
    32 0.729364 0.000001 0.000001 -0.000004 0.000014 -0.594022
    33 3.942326 0.046771 -0.431443 -0.161988 -0.106335 -1.434461
    34 1.539093 0.000001 -0.000001 -0.000001 0.006381 -0.777630
    35 1.196322 -0.000003 0.000001 0.000002 0.000007 -1.170538
    36 3.883688 -0.046772 0.431447 0.049936 -0.030476 -1.249510
    37 1.719574 0.000002 0.000001 0.000004 0.033580 -1.110921
    38 1.209182 0.000001 0.000002 0.000000 0.000009 -1.111180
    39 3.859857 -0.137946 1.332465 0.283499 0.115913 -1.212794
    40 1.719431 0.000002 -0.000001 0.000002 -0.152207 -1.133729
    41 1.099663 0.000001 -0.000001 0.000000 0.000016 -1.021260
    42 0.806047 -0.348923 1.321256 -1.241125 -0.251344 -0.849454
    43 1.789784 0.000000 0.000001 0.000001 -0.036081 0.257589
    44 1.206995 0.000002 -0.000001 0.000002 0.000011 0.303734
    45 -3.890448 0.000006 0.000007 -1.695551 -0.560587 -1.769814
    46 17.848171 0.000001 0.000002 0.000000 0.000000 1.085047
    47 16.525253 -0.000003 0.000002 0.572582 0.157023 -1.392002
    48 6.879453 0.000000 0.000000 -0.081334 -0.002951 -0.584373
    49 3.890455 -0.000004 -0.000004 -2.391385 -0.909800 -0.619838
    50 17.848175 0.000003 -0.000001 -0.000001 0.000000 1.493190
    51 16.525253 -0.000002 0.000000 -0.022041 0.206738 -1.519694
    52 6.879454 0.000000 0.000000 -0.007300 -0.001070 -0.584369
time 1
    0 32.623647 -14.637160 28.758024 1.727670 0.168125 -3.750942
    1 -0.191407 3.341225 -2.981901 1.570796 0.009422 1.630109
    2 4.018334 -0.000002 -0.000002 -0.233028 0.009899 0.164545
    3 3.518568 0.000001 0.000002 -0.296032 -0.186821 0.395340
    4 8.942644 -0.000003 0.000001 0.115616 -0.012938 0.269867
    5 3.307272 0.000000 -0.000001 3.141590 0.000000 0.400478
    6 3.593714 -0.000002 0.000001 1.101573 -0.115839 0.643097
    7 2.033354 1.000771 -1.937610 -2.468435 1.105712 2.093156
    8 6.028141 0.000001 0.000002 -0.250969 1.506151 -2.199349
    9 11.692554 0.000001 0.000000 0.000009 0.000000 -1.381268
    10 11.481702 0.000000 0.000003 -0.853762 0.113883 0.475630
    11 3.859675 -0.132566 1.193107 0.498198 0.156933 -0.982260
    12 1.312563 0.000002 0.000001 -0.000005 -0.456973 -1.112927
    13 0.729364 -0.000003 -0.000006 0.000001 -0.000010 -0.672028
    14 3.942296 0.050330 0.431040 0.160533 0.000246 -0.910148
    15 1.539096 -0.000001 0.000002 -0.000001 -0.214753 -1.281129
    16 1.196322 -0.000001 -0.000002 -0.000001 -0.000008 -0.797295
    17 3.883660 -0.050326 -0.431048 -0.084948 -0.177600 -0.644830
    18 1.719576 -0.000003 0.000000 -0.000001 -0.031645 -1.425491
    19 1.209183 0.000001 0.000004 -0.003428 0.022218 -0.934675
    20 3.859829 -0.148932 -1.331282 -0.321536 -0.122634 -0.062447
    21 1.719428 0.000001 -0.000001 0.000000 0.126411 -0.583364
    22 1.099665 -0.000001 0.000001 -0.051331 0.069071 -1.042812
    23 0.806018 -0.359834 -1.318336 1.282836 0.248639 -0.715189
    24 1.789780 0.000002 0.000001 0.000003 -0.010075 0.141901
    25 1.206999 -0.000003 -0.000002 0.000291 0.001995 1.187223
    26 2.033347 1.000767 1.937662 4.599739 -1.486089 -0.061550
    27 6.028147 -0.000002 0.000000 -3.176350 -0.696685 0.216228
    28 11.692556 0.000003 0.000002 -0.000009 0.000000 -1.084022
    29 11.481676 -0.000005 -0.000034 1.231969 0.314555 0.319273
    30 3.859703 -0.142403 -1.191973 -0.463438 -0.186140 -1.428452
    31 1.312561 0.000001 0.000001 -0.000001 0.066181 -0.827605
    32 0.729364 0.000001 0.000001 -0.000004 0.000014 -0.594022
    33 3.942326 0.046771 -0.431443 -0.161988 -0.106335 -1.434461
    34 1.539093 0.000001 -0.000001 -0.000001 0.006381 -0.777630
    35 1.196322 -0.000003 0.000001 0.000002 0.000007 -1.170538
    36 3.883688 -0.046772 0.431447 0.049936 -0.030476 -1.249510
    37 1.719574 0.000002 0.000001 0.000004 0.033580 -1.110921
    38 1.209182 0.000001 0.000002 0.000000 0.000009 -1.111180
    39 3.859857 -0.137946 1.332465 0.283499 0.115913 -1.212794
    40 1.719431 0.000002 -0.000001 0.000002 -0.152207 -1.133729
    41 1.099663 0.000001 -0.000001 0.000000 0.000016 -1.021260
    42 0.806047 -0.348923 1.321256 -1.241125 -0.251344 -0.849454
    43 1.789784 0.000000 0.000001 0.000001 -0.036069 0.257589
    44 1.206995 0.000002 -0.000001 0.000002 0.000011 0.303734
    45 -3.890448 0.000006 0.000007 -1.698423 -0.575577 -1.764867
    46 17.848171 0.000001 0.000002 0.000000 0.000000 1.095287
    47 16.525253 -0.000003 0.000002 0.575771 0.162113 -1.389400
    48 6.879453 0.000000 0.000000 -0.081334 -0.002951 -0.584373
    49 3.890455 -0.000004 -0.000004 -2.351702 -0.906031 -0.655537
    50 17.848175 0.000003 -0.000001 -0.000001 0.000000 1.490111
    51 16.525253 -0.000002 0.000000 -0.034009 0.199278 -1.532368
    52 6.879454 0.000000 0.000000 -0.007300 -0.001094 -0.584369
time 2
    0 31.467362 -14.019954 29.004126 1.717895 0.155686 -3.833420
    1 -0.203126 3.341225 -2.981901 1.570796 0.012214 1.631550
    2 4.018334 -0.000002 -0.000002 -0.224435 0.005261 0.157472
    3 3.518568 0.000001 0.000002 -0.289003 -0.181919 0.384633
    4 8.942644 -0.000003 0.000001 0.106508 -0.017073 0.267302
    5 3.307272 0.000000 -0.000001 3.141590 0.000000 0.400478
    6 3.593714 -0.000002 0.000001 1.063251 -0.108126 0.630773
    7 2.033354 1.000771 -1.937610 -2.436738 1.122257 2.128017
    8 6.028141 0.000001 0.000002 0.201680 1.428199 -1.813675
    9 11.692554 0.000001 0.000000 0.000009 0.000000 -1.421495
    10 11.481702 0.000000 0.000003 -0.954143 0.105691 0.457405
    11 3.859675 -0.132566 1.193107 0.498198 0.156933 -0.982260
    12 1.312563 0.000002 0.000001 -0.000005 -0.456973 -1.112927
    13 0.729364 -0.000003 -0.000006 0.000001 -0.000022 -0.672028
    14 3.942296 0.050330 0.431040 0.160533 0.000246 -0.910148
    15 1.539096 -0.000001 0.000002 -0.000001 -0.214753 -1.281129
    16 1.196322 -0.000001 -0.000002 -0.000001 -0.000008 -0.797295
    17 3.883660 -0.050326 -0.431048 -0.084948 -0.177600 -0.644830
    18 1.719576 -0.000003 0.000000 -0.000001 -0.031645 -1.425491
    19 1.209183 0.000001 0.000004 -0.003428 0.022218 -0.934675
    20 3.859829 -0.148932 -1.331282 -0.321536 -0.122634 -0.062447
    21 1.719428 0.000001 -0.000001 0.000000 0.126411 -0.583364
    22 1.099665 -0.000001 0.000001 -0.051331 0.069071 -1.042812
    23 0.806018 -0.359834 -1.318336 1.282836 0.248639 -0.715189
    24 1.789780 0.000002 0.000001 0.000003 -0.010075 0.141901
    25 1.206999 -0.000003 -0.000002 0.000291 0.001995 1.187223
    26 2.033347 1.000767 1.937662 4.492198 -1.498260 0.046332
    27 6.028147 -0.000002 0.000000 -3.207317 -0.766264 0.186235
    28 11.692556 0.000003 0.000002 -0.000009 0.000000 -1.135250
    29 11.481676 -0.000005 -0.000034 1.324219 0.315484 0.361068
    30 3.859703 -0.142403 -1.191973 -0.463424 -0.186140 -1.428452
    31 1.312561 0.000001 0.000001 -0.000001 0.066181 -0.827605
    32 0.729364 0.000001 0.000001 -0.000004 0.000014 -0.594022
    33 3.942326 0.046771 -0.431443 -0.161988 -0.106335 -1.434461
    34 1.539093 0.000001 -0.000001 -0.000001 0.006381 -0.777630
    35 1.196322 -0.000003 0.000001 0.000002 0.000007 -1.170538
    36 3.883688 -0.046772 0.431447 0.049936 -0.030476 -1.249510
    37 1.719574 0.000002 0.000001 0.000004 0.033580 -1.110921
    38 1.209182 0.000001 0.000002 0.000000 0.000009 -1.111180
    39 3.859857 -0.137946 1.332465 0.283499 0.115913 -1.212794
    40 1.719431 0.000002 -0.000001 0.000002 -0.152207 -1.133729
    41 1.099663 0.000001 -0.000001 0.000000 0.000016 -1.021260
    42 0.806047 -0.348923 1.321256 -1.241125 -0.251344 -0.849454
    43 1.789784 0.000000 0.000001 0.000001 -0.036081 0.257589
    44 1.206995 0.000002 -0.000001 0.000002 0.000011 0.303734
    45 -3.890448 0.000006 0.000007 -1.710248 -0.614440 -1.747088
    46 17.848171 0.000001 0.000002 0.000000 0.000000 1.120723
    47 16.525253 -0.000003 0.000002 0.585266 0.179529 -1.381170
    48 6.879453 0.000000 0.000000 -0.081334 -0.002951 -0.584373
    49 3.890455 -0.000004 -0.000004 -2.243485 -0.894530 -0.755189
    50 17.848175 0.000003 -0.000001 -0.000001 0.000000 1.479824
    51 16.525253 -0.000002 0.000000 -0.065331 0.174553 -1.565284
    52 6.879454 0.000000 0.000000 -0.007300 -0.001166 -0.584369
time 3
    0 29.682151 -13.062894 29.375231 1.706235 0.137073 -3.960462
    1 -0.207033 3.341225 -2.981901 1.570796 0.016529 1.633738
    2 4.018334 -0.000002 -0.000002 -0.211157 -0.001894 0.146565
    3 3.518568 0.000001 0.000002 -0.278128 -0.174345 0.368098
    4 8.942644 -0.000003 0.000001 0.092414 -0.023449 0.263311
    5 3.307272 0.000000 -0.000001 3.141590 0.000000 0.400478
    6 3.593714 -0.000002 0.000001 1.003669 -0.096877 0.612144
    7 2.033354 1.000771 -1.937610 -2.382892 1.146766 2.186630
    8 6.028141 0.000001 0.000002 0.402365 1.288429 -1.723734
    9 11.692554 0.000001 0.000000 0.000009 0.000000 -1.478566
    10 11.481702 0.000000 0.000003 -1.117320 0.078217 0.425558
    11 3.859675 -0.132566 1.193107 0.498198 0.156933 -0.982260
    12 1.312563 0.000002 0.000001 -0.000005 -0.456973 -1.112927
    13 0.729364 -0.000003 -0.000006 0.000001 -0.000022 -0.672028
    14 3.942296 0.050330 0.431040 0.160533 0.000246 -0.910148
    15 1.539096 -0.000001 0.000002 -0.000001 -0.214753 -1.281129
    16 1.196322 -0.000001 -0.000002 -0.000001 -0.000008 -0.797295
    17 3.883660 -0.050326 -0.431048 -0.084948 -0.177600 -0.644830
    18 1.719576 -0.000003 0.000000 -0.000001 -0.031645 -1.425491
    19 1.209183 0.000001 0.000004 -0.003428 0.022218 -0.934675
    20 3.859829 -0.148932 -1.331282 -0.321536 -0.122634 -0.062447
    21 1.719428 0.000001 -0.000001 0.000000 0.126411 -0.583364
    22 1.099665 -0.000001 0.000001 -0.051331 0.069071 -1.042812
    23 0.806018 -0.359834 -1.318336 1.282836 0.248639 -0.715189
    24 1.789780 0.000002 0.000001 0.000003 -0.010075 0.141901
    25 1.206999 -0.000003 -0.000002 0.000291 0.001995 1.187223
    26 2.033347 1.000767 1.937662 4.239481 -1.514476 0.299271
    27 6.028147 -0.000002 0.000000 -3.240770 -0.874030 0.135032
    28 11.692556 0.000003 0.000002 -0.000009 0.000000 -1.208519
    29 11.481676 -0.000005 -0.000034 1.461133 0.316265 0.417630
    30 3.859703 -0.142403 -1.191973 -0.463424 -0.186140 -1.428480
    31 1.312561 0.000001 0.000001 -0.000001 0.066181 -0.827605
    32 0.729364 0.000001 0.000001 -0.000004 0.000014 -0.594022
    33 3.942326 0.046771 -0.431443 -0.161988 -0.106335 -1.434486
    34 1.539093 0.000001 -0.000001 -0.000001 0.006381 -0.777630
    35 1.196322 -0.000003 0.000001 0.000002 0.000007 -1.170538
    36 3.883688 -0.046772 0.431447 0.049936 -0.030476 -1.249510
    37 1.719574 0.000002 0.000001 0.000004 0.033580 -1.110921
    38 1.209182 0.000001 0.000002 0.000000 0.000009 -1.111180
    39 3.859857 -0.137946 1.332465 0.283499 0.115913 -1.212794
    40 1.719431 0.000002 -0.000001 0.000002 -0.152207 -1.133729
    41 1.099663 0.000001 -0.000001 0.000000 0.000016 -1.021260
    42 0.806047 -0.348923 1.321256 -1.241125 -0.251344 -0.849454
    43 1.789784 0.000000 0.000001 0.000001 -0.036069 0.257589
    44 1.206995 0.000002 -0.000001 0.000002 0.000011 0.303734
    45 -3.890448 0.000006 0.000007 -1.738966 -0.664786 -1.708283
    46 17.848171 0.000001 0.000002 0.000000 0.000000 1.151280
    47 16.525253 -0.000003 0.000002 0.601564 0.214566 -1.366790
    48 6.879453 0.000000 0.000000 -0.081334 -0.002951 -0.584373
    49 3.890455 -0.000004 -0.000004 -2.086672 -0.874317 -0.903807
    50 17.848175 0.000003 -0.000001 -0.000001 0.000000 1.459849
    51 16.525253 -0.000002 0.000000 -0.105671 0.127428 -1.607326
    52 6.879454 0.000000 0.000000 -0.007300 -0.001262 -0.584369
time 4
    0 27.377393 -11.832387 29.855714 1.696754 0.115449 -4.123897
    1 -0.214845 3.341225 -2.981901 1.570796 0.022079 1.636572
    2 4.018334 -0.000002 -0.000002 -0.194031 -0.011134 0.132487
    3 3.518568 0.000001 0.000002 -0.264096 -0.164577 0.346771
    4 8.942644 -0.000003 0.000001 0.074258 -0.031658 0.258122
    5 3.307272 0.000000 -0.000001 3.141590 0.000000 0.400478
    6 3.593714 -0.000002 0.000001 0.926238 -0.083548 0.588849
    7 2.033354 1.000771 -1.937610 -2.303746 1.176185 2.272155
    8 6.028141 0.000001 0.000002 0.536332 1.107225 -1.731749
    9 11.692554 0.000001 0.000000 0.000009 0.000000 -1.544208
    10 11.481702 0.000000 0.000003 -1.318679 0.021527 0.385155
    11 3.859675 -0.132566 1.193107 0.498198 0.156933 -0.982260
    12 1.312563 0.000002 0.000001 -0.000005 -0.456973 -1.112927
    13 0.729364 -0.000003 -0.000006 0.000001 -0.000022 -0.672028
    14 3.942296 0.050330 0.431040 0.160533 0.000246 -0.910148
    15 1.539096 -0.000001 0.000002 -0.000001 -0.214753 -1.281129
    16 1.196322 -0.000001 -0.000002 -0.000001 -0.000008 -0.797295
    17 3.883660 -0.050326 -0.431048 -0.084948 -0.177600 -0.644830
    18 1.719576 -0.000003 0.000000 -0.000001 -0.031645 -1.425491
    19 1.209183 0.000001 0.000004 -0.003428 0.022218 -0.934675
    20 3.859829 -0.148932 -1.331282 -0.321536 -0.122634 -0.062447
    21 1.719428 0.000001 -0.000001 0.000000 0.126411 -0.583364
    22 1.099665 -0.000001 0.000001 -0.051331 0.069071 -1.042812
    23 0.806018 -0.359834 -1.318336 1.282836 0.248639 -0.715189
    24 1.789780 0.000002 0.000001 0.000003 -0.010075 0.141901
    25 1.206999 -0.000003 -0.000002 0.000291 0.002007 1.187223
    26 2.033347 1.000767 1.937662 3.691337 -1.525901 0.847497
    27 6.028147 -0.000002 0.000000 -3.239623 -1.001990 0.049257
    28 11.692556 0.000003 0.000002 -0.000009 0.000000 -1.294026
    29 11.481676 -0.000005 -0.000034 1.612962 0.315559 0.473639
    30 3.859703 -0.142403 -1.191973 -0.463424 -0.186140 -1.428480
    31 1.312561 0.000001 0.000001 -0.000001 0.066181 -0.827605
    32 0.729364 0.000001 0.000001 -0.000004 0.000014 -0.594022
    33 3.942326 0.046771 -0.431443 -0.161988 -0.106335 -1.434461
    34 1.539093 0.000001 -0.000001 -0.000001 0.006381 -0.777630
    35 1.196322 -0.000003 0.000001 0.000002 0.000007 -1.170538
    36 3.883688 -0.046772 0.431447 0.049936 -0.030476 -1.249510
    37 1.719574 0.000002 0.000001 0.000004 0.033580 -1.110921
    38 1.209182 0.000001 0.000002 0.000000 0.000009 -1.111180
    39 3.859857 -0.137946 1.332465 0.283499 0.115913 -1.212794
    40 1.719431 0.000002 -0.000001 0.000002 -0.152207 -1.133729
    41 1.099663 0.000001 -0.000001 0.000000 0.000016 -1.021260
    42 0.806047 -0.348923 1.321256 -1.241125 -0.251344 -0.849454
    43 1.789784 0.000000 0.000001 0.000001 -0.036081 0.257589
    44 1.206995 0.000002 -0.000001 0.000002 0.000011 0.303734
    45 -3.890448 0.000006 0.000007 -1.790490 -0.711076 -1.642422
    46 17.848171 0.000001 0.000002 0.000000 0.000000 1.176310
    47 16.525253 -0.000003 0.000002 0.624989 0.269984 -1.346828
    48 6.879453 0.000000 0.000000 -0.081334 -0.002951 -0.584373
    49 3.890455 -0.000004 -0.000004 -1.912413 -0.844903 -1.076193
    50 17.848175 0.000003 -0.000001 -0.000001 0.000000 1.427859
    51 16.525253 -0.000002 0.000000 -0.140698 0.059699 -1.644119
    52 6.879454 0.000000 0.000000 -0.007300 -0.001406 -0.584369
time 5
    0 24.674186 -10.387031 30.418231 1.692573 0.094829 -4.315553
    1 -0.226564 3.337319 -2.981901 1.570796 0.028610 1.639803
    2 4.018334 -0.000002 -0.000002 -0.173908 -0.021980 0.115985
    3 3.518568 0.000001 0.000002 -0.247624 -0.153132 0.321714
    4 8.942644 -0.000003 0.000001 0.052913 -0.041282 0.251974
    5 3.307272 0.000000 -0.000001 3.141590 0.000000 0.400478
    6 3.593714 -0.000002 0.000001 0.834502 -0.069561 0.562658
    7 2.033354 1.000771 -1.937610 -2.195004 1.206801 2.388423
    8 6.028141 0.000001 0.000002 0.654063 0.923109 -1.748712
    9 11.692554 0.000001 0.000000 0.000009 0.000000 -1.611353
    10 11.481702 0.000000 0.000003 -1.502012 -0.053884 0.343677
    11 3.859675 -0.132566 1.193107 0.498198 0.156933 -0.982260
    12 1.312563 0.000002 0.000001 -0.000005 -0.456973 -1.112927
    13 0.729364 -0.000003 -0.000006 0.000001 -0.000010 -0.672028
    14 3.942296 0.050330 0.431040 0.160533 0.000246 -0.910148
    15 1.539096 -0.000001 0.000002 -0.000001 -0.214753 -1.281129
    16 1.196322 -0.000001 -0.000002 -0.000001 -0.000008 -0.797295
    17 3.883660 -0.050326 -0.431048 -0.084948 -0.177600 -0.644830
    18 1.719576 -0.000003 0.000000 -0.000001 -0.031645 -1.425491
    19 1.209183 0.000001 0.000004 -0.003428 0.022218 -0.934675
    20 3.859829 -0.148932 -1.331282 -0.321536 -0.122634 -0.062447
    21 1.719428 0.000001 -0.000001 0.000000 0.126411 -0.583364
    22 1.099665 -0.000001 0.000001 -0.051331 0.069071 -1.042812
    23 0.806018 -0.359834 -1.318336 1.282836 0.248639 -0.715189
    24 1.789780 0.000002 0.000001 0.000003 -0.010075 0.141901
    25 1.206999 -0.000003 -0.000002 0.000291 0.001995 1.187223
    26 2.033347 1.000767 1.937662 2.994571 -1.517106 1.543846
    27 6.028147 -0.000002 0.000000 -3.139743 -1.117580 -0.106875
    28 11.692556 0.000003 0.000002 -0.000009 0.000000 -1.384320
    29 11.481676 -0.000005 -0.000034 1.738987 0.312103 0.513298
    30 3.859703 -0.142403 -1.191973 -0.463424 -0.186140 -1.428452
    31 1.312561 0.000001 0.000001 -0.000001 0.066181 -0.827605
    32 0.729364 0.000001 0.000001 -0.000004 0.000014 -0.594022
    33 3.942326 0.046771 -0.431443 -0.161988 -0.106335 -1.434461
    34 1.539093 0.000001 -0.000001 -0.000001 0.006381 -0.777630
    35 1.196322 -0.000003 0.000001 0.000002 0.000007 -1.170538
    36 3.883688 -0.046772 0.431447 0.049936 -0.030476 -1.249510
    37 1.719574 0.000002 0.000001 0.000004 0.033580 -1.110921
    38 1.209182 0.000001 0.000002 0.000000 0.000009 -1.111180
    39 3.859857 -0.137946 1.332465 0.283499 0.115913 -1.212794
    40 1.719431 0.000002 -0.000001 0.000002 -0.152207 -1.133729
    41 1.099663 0.000001 -0.000001 0.000000 0.000016 -1.021260
    42 0.806047 -0.348923 1.321256 -1.241125 -0.251344 -0.849454
    43 1.789784 0.000000 0.000001 0.000001 -0.036069 0.257589
    44 1.206995 0.000002 -0.000001 0.000002 0.000011 0.303734
    45 -3.890448 0.000006 0.000007 -1.854092 -0.738686 -1.557005
    46 17.848171 0.000001 0.000002 0.000000 0.000000 1.187444
    47 16.525253 -0.000003 0.000002 0.649984 0.339367 -1.325069
    48 6.879453 0.000000 0.000000 -0.081334 -0.002951 -0.584373
    49 3.890455 -0.000004 -0.000004 -1.757516 -0.810400 -1.238747
    50 17.848175 0.000003 -0.000001 -0.000001 0.000000 1.383253
    51 16.525253 -0.000002 0.000000 -0.157590 -0.014300 -1.663320
    52 6.879454 0.000000 0.000000 -0.007300 -0.001562 -0.584369
time 6
    0 21.681907 -8.789326 31.043250 1.694458 0.079987 -4.527638
    1 -0.238284 3.337319 -2.981901 1.570796 0.035836 1.643483
    2 4.018334 -0.000002 -0.000002 -0.151665 -0.033964 0.097740
    3 3.518568 0.000001 0.000002 -0.229401 -0.140464 0.294006
    4 8.942644 -0.000003 0.000001 0.029303 -0.051924 0.245106
    5 3.307272 0.000000 -0.000001 3.141590 0.000000 0.400478
    6 3.593714 -0.000002 0.000001 0.732092 -0.056001 0.535373
    7 2.033354 1.000771 -1.937610 -2.053324 1.234446 2.538594
    8 6.028141 0.000001 0.000002 0.752099 0.771978 -1.730351
    9 11.692554 0.000001 0.000000 0.000009 0.000000 -1.674815
    10 11.481702 0.000000 0.000003 -1.615165 -0.118142 0.297403
    11 3.859675 -0.132566 1.193107 0.498198 0.156933 -0.982260
    12 1.312563 0.000002 0.000001 -0.000005 -0.456973 -1.112927
    13 0.729364 -0.000003 -0.000006 0.000001 -0.000010 -0.672028
    14 3.942296 0.050330 0.431040 0.160533 0.000246 -0.910148
    15 1.539096 -0.000001 0.000002 -0.000001 -0.214753 -1.281129
    16 1.196322 -0.000001 -0.000002 -0.000001 -0.000008 -0.797295
    17 3.883660 -0.050326 -0.431048 -0.084948 -0.177600 -0.644830
    18 1.719576 -0.000003 0.000000 -0.000001 -0.031645 -1.425491
    19 1.209183 0.000001 0.000004 -0.003428 0.022218 -0.934675
    20 3.859829 -0.148932 -1.331282 -0.321536 -0.122634 -0.062447
    21 1.719428 0.000001 -0.000001 0.000000 0.126411 -0.583364
    22 1.099665 -0.000001 0.000001 -0.051331 0.069071 -1.042812
    23 0.806018 -0.359834 -1.318336 1.282836 0.248639 -0.715189
    24 1.789780 0.000002 0.000001 0.000003 -0.010075 0.141901
    25 1.206999 -0.000003 -0.000002 0.000291 0.002007 1.187223
    26 2.033347 1.000767 1.937662 2.592369 -1.489347 1.945003
    27 6.028147 -0.000002 0.000000 -2.890952 -1.179775 -0.362984
    28 11.692556 0.000003 0.000002 -0.000009 0.000000 -1.473779
    29 11.481676 -0.000005 -0.000034 1.805984 0.302999 0.526629
    30 3.859703 -0.142403 -1.191973 -0.463438 -0.186140 -1.428480
    31 1.312561 0.000001 0.000001 -0.000001 0.066181 -0.827605
    32 0.729364 0.000001 0.000001 -0.000004 0.000014 -0.594022
    33 3.942326 0.046771 -0.431443 -0.161988 -0.106335 -1.434461
    34 1.539093 0.000001 -0.000001 -0.000001 0.006381 -0.777630
    35 1.196322 -0.000003 0.000001 0.000002 0.000007 -1.170538
    36 3.883688 -0.046772 0.431447 0.049936 -0.030476 -1.249510
    37 1.719574 0.000002 0.000001 0.000004 0.033580 -1.110921
    38 1.209182 0.000001 0.000002 0.000000 0.000009 -1.111180
    39 3.859857 -0.137946 1.332465 0.283499 0.115913 -1.212794
    40 1.719431 0.000002 -0.000001 0.000002 -0.152207 -1.133729
    41 1.099663 0.000001 -0.000001 0.000000 0.000016 -1.021260
    42 0.806047 -0.348923 1.321256 -1.241125 -0.251344 -0.849454
    43 1.789784 0.000000 0.000001 0.000001 -0.036069 0.257589
    44 1.206995 0.000002 -0.000001 0.000002 0.000011 0.303734
    45 -3.890448 0.000006 0.000007 -1.883655 -0.742103 -1.484883
    46 17.848171 0.000001 0.000002 0.000000 0.000000 1.179480
    47 16.525253 -0.000003 0.000002 0.653349 0.399335 -1.313763
    48 6.879453 0.000000 0.000000 -0.081334 -0.002951 -0.584373
    49 3.890455 -0.000004 -0.000004 -1.648244 -0.779812 -1.362071
    50 17.848175 0.000003 -0.000001 -0.000001 0.000000 1.327534
    51 16.525253 -0.000002 0.000000 -0.151667 -0.074276 -1.659726
    52 6.879454 0.000000 0.000000 -0.007300 -0.001742 -0.584369
time 7
    0 18.513841 -7.101774 31.703427 1.700582 0.074969 1.530762
    1 -0.250003 3.337319 -2.981901 1.570796 0.043467 1.647311
    2 4.018334 -0.000002 -0.000002 -0.128127 -0.046644 0.078449
    3 3.518568 0.000001 0.000002 -0.210144 -0.127078 0.264680
    4 8.942644 -0.000003 0.000001 0.004339 -0.063178 0.237748
    5 3.307272 0.000000 -0.000001 3.141590 0.000000 0.400478
    6 3.593714 -0.000002 0.000001 0.622902 -0.043649 0.508571
    7 2.033354 1.000771 -1.937610 -1.880234 1.254787 2.720754
    8 6.028141 0.000001 0.000002 0.820945 0.662663 -1.664271
    9 11.692554 0.000001 0.000000 0.000009 0.000000 -1.731810
    10 11.481702 0.000000 0.000003 -1.648359 -0.146800 0.237355
    11 3.859675 -0.132566 1.193107 0.498198 0.156933 -0.982260
    12 1.312563 0.000002 0.000001 -0.000005 -0.456973 -1.112927
    13 0.729364 -0.000003 -0.000006 0.000001 -0.000022 -0.672028
    14 3.942296 0.050330 0.431040 0.160533 0.000246 -0.910148
    15 1.539096 -0.000001 0.000002 -0.000001 -0.214753 -1.281129
    16 1.196322 -0.000001 -0.000002 -0.000001 -0.000008 -0.797295
    17 3.883660 -0.050326 -0.431048 -0.084948 -0.177600 -0.644830
    18 1.719576 -0.000003 0.000000 -0.000001 -0.031645 -1.425491
    19 1.209183 0.000001 0.000004 -0.003428 0.022218 -0.934675
    20 3.859829 -0.148932 -1.331282 -0.321536 -0.122634 -0.062447
    21 1.719428 0.000001 -0.000001 0.000000 0.126411 -0.583364
    22 1.099665 -0.000001 0.000001 -0.051331 0.069071 -1.042812
    23 0.806018 -0.359834 -1.318336 1.282836 0.248639 -0.715189
    24 1.789780 0.000002 0.000001 0.000003 -0.010075 0.141901
    25 1.206999 -0.000003 -0.000002 0.000291 0.001995 1.187223
    26 2.033347 1.000767 1.937662 2.401323 -1.453422 2.134420
    27 6.028147 -0.000002 0.000000 -2.572196 -1.159679 -0.630398
    28 11.692556 0.000003 0.000002 -0.000009 0.000000 -1.558678
    29 11.481676 -0.000005 -0.000034 1.800302 0.280815 0.512378
    30 3.859703 -0.142403 -1.191973 -0.463424 -0.186140 -1.428480
    31 1.312561 0.000001 0.000001 -0.000001 0.066181 -0.827605
    32 0.729364 0.000001 0.000001 -0.000004 0.000014 -0.594022
    33 3.942326 0.046771 -0.431443 -0.161988 -0.106335 -1.434461
    34 1.539093 0.000001 -0.000001 -0.000001 0.006381 -0.777630
    35 1.196322 -0.000003 0.000001 0.000002 0.000007 -1.170538
    36 3.883688 -0.046772 0.431447 0.049936 -0.030476 -1.249510
    37 1.719574 0.000002 0.000001 0.000004 0.033580 -1.110921
    38 1.209182 0.000001 0.000002 0.000000 0.000009 -1.111180
    39 3.859857 -0.137946 1.332465 0.283499 0.115913 -1.212794
    40 1.719431 0.000002 -0.000001 0.000002 -0.152207 -1.133729
    41 1.099663 0.000001 -0.000001 0.000000 0.000016 -1.021260
    42 0.806047 -0.348923 1.321256 -1.241125 -0.251344 -0.849454
    43 1.789784 0.000000 0.000001 0.000001 -0.036081 0.257589
    44 1.206995 0.000002 -0.000001 0.000002 0.000011 0.303734
    45 -3.890448 0.000006 0.000007 -1.763039 -0.730075 -1.497251
    46 17.848171 0.000001 0.000002 0.000000 0.000000 1.150386
    47 16.525253 -0.000003 0.000002 0.568868 0.387009 -1.344463
    48 6.879453 0.000000 0.000000 -0.081334 -0.002951 -0.584373
    49 3.890455 -0.000004 -0.000004 -1.593705 -0.759452 -1.430605
    50 17.848175 0.000003 -0.000001 -0.000001 0.000000 1.263930
    51 16.525253 -0.000002 0.000000 -0.127048 -0.105328 -1.635134
    52 6.879454 0.000000 0.000000 -0.007300 -0.001921 -0.584369
time 8
    0 15.291087 -5.379065 32.375322 1.707236 0.081721 1.302143
    1 -0.261722 3.337319 -2.981901 1.570796 0.051251 1.651288
    2 4.018334 -0.000002 -0.000002 -0.104158 -0.059551 0.058826
    3 3.518568 0.000001 0.000002 -0.190489 -0.113451 0.234831
    4 8.942644 -0.000003 0.000001 -0.021056 -0.074635 0.230186
    5 3.307272 0.000000 -0.000001 3.141590 0.000000 0.400478
    6 3.593714 -0.000002 0.000001 0.510868 -0.032968 0.483732
    7 2.033354 1.000771 -1.937610 -1.686522 1.264277 2.923984
    8 6.028141 0.000001 0.000002 0.858297 0.585761 -1.561095
    9 11.692554 0.000001 0.000000 0.000009 0.000000 -1.780985
    10 11.481702 0.000000 0.000003 -1.625941 -0.132520 0.164683
    11 3.859675 -0.132566 1.193107 0.498198 0.156933 -0.982260
    12 1.312563 0.000002 0.000001 -0.000005 -0.456973 -1.112927
    13 0.729364 -0.000003 -0.000006 0.000001 -0.000022 -0.672028
    14 3.942296 0.050330 0.431040 0.160533 0.000246 -0.910148
    15 1.539096 -0.000001 0.000002 -0.000001 -0.214753 -1.281129
    16 1.196322 -0.000001 -0.000002 -0.000001 -0.000008 -0.797295
    17 3.883660 -0.050326 -0.431048 -0.084948 -0.177600 -0.644830
    18 1.719576 -0.000003 0.000000 -0.000001 -0.031645 -1.425491
    19 1.209183 0.000001 0.000004 -0.003428 0.022218 -0.934675
    20 3.859829 -0.148932 -1.331282 -0.321536 -0.122634 -0.062447
    21 1.719428 0.000001 -0.000001 0.000000 0.126411 -0.583364
    22 1.099665 -0.000001 0.000001 -0.051331 0.069071 -1.042812
    23 0.806018 -0.359834 -1.318336 1.282836 0.248639 -0.715189
    24 1.789780 0.000002 0.000001 0.000003 -0.010075 0.141901
    25 1.206999 -0.000003 -0.000002 0.000291 0.002007 1.187223
    26 2.033347 1.000767 1.937662 2.299528 -1.414591 2.233775
    27 6.028147 -0.000002 0.000000 -2.323404 -1.070493 -0.766909
    28 11.692556 0.000003 0.000002 -0.000009 0.000000 -1.636507
    29 11.481676 -0.000005 -0.000034 1.726282 0.234217 0.477653
    30 3.859703 -0.142403 -1.191973 -0.463424 -0.186140 -1.428480
    31 1.312561 0.000001 0.000001 -0.000001 0.066181 -0.827605
    32 0.729364 0.000001 0.000001 -0.000004 0.000014 -0.594022
    33 3.942326 0.046771 -0.431443 -0.161988 -0.106335 -1.434461
    34 1.539093 0.000001 -0.000001 -0.000001 0.006381 -0.777630
    35 1.196322 -0.000003 0.000001 0.000002 0.000007 -1.170538
    36 3.883688 -0.046772 0.431447 0.049936 -0.030476 -1.249510
    37 1.719574 0.000002 0.000001 0.000004 0.033580 -1.110921
    38 1.209182 0.000001 0.000002 0.000000 0.000009 -1.111180
    39 3.859857 -0.137946 1.332465 0.283499 0.115913 -1.212794
    40 1.719431 0.000002 -0.000001 0.000002 -0.152207 -1.133729
    41 1.099663 0.000001 -0.000001 0.000000 0.000016 -1.021260
    42 0.806047 -0.348923 1.321256 -1.241125 -0.251344 -0.849454
    43 1.789784 0.000000 0.000001 0.000001 -0.036069 0.257589
    44 1.206995 0.000002 -0.000001 0.000002 0.000011 0.303734
    45 -3.890448 0.000006 0.000007 -1.270100 -0.668157 -1.709056
    46 17.848171 0.000001 0.000002 0.000000 0.000000 1.100650
    47 16.525253 -0.000003 0.000002 0.292302 0.145499 -1.426864
    48 6.879453 0.000000 0.000000 -0.081334 -0.002951 -0.584373
    49 3.890455 -0.000004 -0.000004 -1.593130 -0.747168 -1.440246
    50 17.848175 0.000003 -0.000001 -0.000001 0.000000 1.196195
    51 16.525253 -0.000002 0.000000 -0.090242 -0.101227 -1.595078
    52 6.879454 0.000000 0.000000 -0.007300 -0.002113 -0.584369
time 9
    0 12.126928 -3.687608 33.039405 1.710416 0.099482 1.077515
    1 -0.281254 3.333413 -2.981901 1.570796 0.058882 1.655067
    2 4.018334 -0.000002 -0.000002 -0.080632 -0.072231 0.039551
    3 3.518568 0.000001 0.000002 -0.171192 -0.100076 0.205476
    4 8.942644 -0.000003 0.000001 -0.046020 -0.085877 0.222659
    5 3.307272 0.000000 -0.000001 3.141590 0.000000 0.400478
    6 3.593714 -0.000002 0.000001 0.400234 -0.024064 0.461917
    7 2.033354 1.000771 -1.937610 -1.492523 1.261554 3.127692
    8 6.028141 0.000001 0.000002 0.869475 0.529337 -1.441236
    9 11.692554 0.000001 0.000000 0.000009 0.000000 -1.822415
    10 11.481702 0.000000 0.000003 -1.581837 -0.084023 0.089747
    11 3.859675 -0.132566 1.193107 0.498198 0.156933 -0.982260
    12 1.312563 0.000002 0.000001 -0.000005 -0.456973 -1.112927
    13 0.729364 -0.000003 -0.000006 0.000001 -0.000010 -0.672028
    14 3.942296 0.050330 0.431040 0.160533 0.000246 -0.910148
    15 1.539096 -0.000001 0.000002 -0.000001 -0.214753 -1.281129
    16 1.196322 -0.000001 -0.000002 -0.000001 -0.000008 -0.797295
    17 3.883660 -0.050326 -0.431048 -0.084948 -0.177600 -0.644830
    18 1.719576 -0.000003 0.000000 -0.000001 -0.031645 -1.425491
    19 1.209183 0.000001 0.000004 -0.003428 0.022218 -0.934675
    20 3.859829 -0.148932 -1.331282 -0.321536 -0.122634 -0.062447
    21 1.719428 0.000001 -0.000001 0.000000 0.126411 -0.583364
    22 1.099665 -0.000001 0.000001 -0.051331 0.069071 -1.042812
    23 0.806018 -0.359834 -1.318336 1.282836 0.248639 -0.715189
    24 1.789780 0.000002 0.000001 0.000003 -0.010075 0.141901
    25 1.206999 -0.000003 -0.000002 0.000291 0.002007 1.187223
    26 2.033347 1.000767 1.937662 2.238623 -1.375564 2.291645
    27 6.028147 -0.000002 0.000000 -2.155090 -0.949916 -0.767096
    28 11.692556 0.000003 0.000002 -0.000009 0.000000 -1.705673
    29 11.481676 -0.000005 -0.000034 1.603019 0.154992 0.437773
    30 3.859703 -0.142403 -1.191973 -0.463424 -0.186140 -1.428480
    31 1.312561 0.000001 0.000001 -0.000001 0.066181 -0.827605
    32 0.729364 0.000001 0.000001 -0.000004 0.000014 -0.594022
    33 3.942326 0.046771 -0.431443 -0.161988 -0.106335 -1.434461
    34 1.539093 0.000001 -0.000001 -0.000001 0.006381 -0.777630
    35 1.196322 -0.000003 0.000001 0.000002 0.000007 -1.170538
    36 3.883688 -0.046772 0.431447 0.049936 -0.030476 -1.249510
    37 1.719574 0.000002 0.000001 0.000004 0.033580 -1.110921
    38 1.209182 0.000001 0.000002 0.000000 0.000009 -1.111180
    39 3.859857 -0.137946 1.332465 0.283499 0.115913 -1.212794
    40 1.719431 0.000002 -0.000001 0.000002 -0.152207 -1.133729
    41 1.099663 0.000001 -0.000001 0.000000 0.000016 -1.021260
    42 0.806047 -0.348923 1.321256 -1.241125 -0.251344 -0.849454
    43 1.789784 0.000000 0.000001 0.000001 -0.036069 0.257589
    44 1.206995 0.000002 -0.000001 0.000002 0.000011 0.303734
    45 -3.890448 0.000006 0.000007 -0.685517 -0.460626 -1.913284
    46 17.848171 0.000001 0.000002 0.000000 0.000000 1.031980
    47 16.525253 -0.000003 0.000002 -0.029022 -0.250088 -1.410166
    48 6.879453 0.000000 0.000000 -0.081334 -0.002951 -0.584373
    49 3.890455 -0.000004 -0.000004 -1.645177 -0.733318 -1.393761
    50 17.848175 0.000003 -0.000001 -0.000001 0.000000 1.127410
    51 16.525253 -0.000002 0.000000 -0.044173 -0.060253 -1.546414
    52 6.879454 0.000000 0.000000 -0.007300 -0.002293 -0.584369
time 10
    0 9.134649 -2.089903 33.664424 1.707059 0.124877 0.865049
    1 -0.292973 3.333413 -2.981901 1.570796 0.066107 1.658746
    2 4.018334 -0.000002 -0.000002 -0.058389 -0.084240 0.021356
    3 3.518568 0.000001 0.000002 -0.152956 -0.087433 0.177724
    4 8.942644 -0.000003 0.000001 -0.069617 -0.096531 0.215457
    5 3.307272 0.000000 -0.000001 3.141590 0.000000 0.400478
    6 3.593714 -0.000002 0.000001 0.295112 -0.016796 0.443738
    7 2.033354 1.000771 -1.937610 -1.318479 1.248309 3.310905
    8 6.028141 0.000001 0.000002 0.863620 0.484371 -1.324173
    9 11.692554 0.000001 0.000000 0.000009 0.000000 -1.856853
    10 11.481702 0.000000 0.000003 -1.541060 -0.019238 0.021641
    11 3.859675 -0.132566 1.193107 0.498198 0.156933 -0.982260
    12 1.312563 0.000002 0.000001 -0.000005 -0.456973 -1.112927
    13 0.729364 -0.000003 -0.000006 0.000001 -0.000010 -0.672028
    14 3.942296 0.050330 0.431040 0.160533 0.000246 -0.910148
    15 1.539096 -0.000001 0.000002 -0.000001 -0.214753 -1.281129
    16 1.196322 -0.000001 -0.000002 -0.000001 -0.000008 -0.797295
    17 3.883660 -0.050326 -0.431048 -0.084948 -0.177600 -0.644830
    18 1.719576 -0.000003 0.000000 -0.000001 -0.031645 -1.425491
    19 1.209183 0.000001 0.000004 -0.003428 0.022218 -0.934675
    20 3.859829 -0.148932 -1.331282 -0.321536 -0.122634 -0.062447
    21 1.719428 0.000001 -0.000001 0.000000 0.126411 -0.583364
    22 1.099665 -0.000001 0.000001 -0.051331 0.069071 -1.042812
    23 0.806018 -0.359834 -1.318336 1.282836 0.248639 -0.715189
    24 1.789780 0.000002 0.000001 0.000003 -0.010075 0.141901
    25 1.206999 -0.000003 -0.000002 0.000291 0.001995 1.187250
    26 2.033347 1.000767 1.937662 2.199073 -1.338265 2.327765
    27 6.028147 -0.000002 0.000000 -2.024243 -0.832029 -0.693655
    28 11.692556 0.000003 0.000002 -0.000009 0.000000 -1.764805
    29 11.481676 -0.000005 -0.000034 1.461765 0.048976 0.410523
    30 3.859703 -0.142403 -1.191973 -0.463438 -0.186140 -1.428452
    31 1.312561 0.000001 0.000001 -0.000001 0.066181 -0.827605
    32 0.729364 0.000001 0.000001 -0.000004 0.000014 -0.594022
    33 3.942326 0.046771 -0.431443 -0.161988 -0.106335 -1.434461
    34 1.539093 0.000001 -0.000001 -0.000001 0.006381 -0.777630
    35 1.196322 -0.000003 0.000001 0.000002 0.000007 -1.170538
    36 3.883688 -0.046772 0.431447 0.049936 -0.030476 -1.249510
    37 1.719574 0.000002 0.000001 0.000004 0.033580 -1.110921
    38 1.209182 0.000001 0.000002 0.000000 0.000009 -1.111180
    39 3.859857 -0.137946 1.332465 0.283499 0.115913 -1.212794
    40 1.719431 0.000002 -0.000001 0.000002 -0.152207 -1.133729
    41 1.099663 0.000001 -0.000001 0.000000 0.000016 -1.021260
    42 0.806047 -0.348923 1.321256 -1.241125 -0.251344 -0.849454
    43 1.789784 0.000000 0.000001 0.000001 -0.036081 0.257589
    44 1.206995 0.000002 -0.000001 0.000002 0.000011 0.303734
    45 -3.890448 0.000006 0.000007 -0.515911 -0.329455 -1.921478
    46 17.848171 0.000001 0.000002 0.000000 0.000000 0.947299
    47 16.525253 -0.000003 0.000002 -0.124243 -0.396762 -1.349619
    48 6.879453 0.000000 0.000000 -0.081334 -0.002951 -0.584373
    49 3.890455 -0.000004 -0.000004 -1.703839 -0.708700 -1.324272
    50 17.848175 0.000003 -0.000001 -0.000001 0.000000 1.059751
    51 16.525253 -0.000002 0.000000 -0.006782 -0.010159 -1.494109
    52 6.879454 0.000000 0.000000 -0.007300 -0.002473 -0.584369
time 11
    0 6.427535 -0.644546 34.223035 1.696578 0.153283 0.672348
    1 -0.304692 3.333413 -2.981901 1.570796 0.072639 1.662077
    2 4.018334 -0.000002 -0.000002 -0.038267 -0.095074 0.004904
    3 3.518568 0.000001 0.000002 -0.136458 -0.075999 0.152624
    4 8.942644 -0.000003 0.000001 -0.090950 -0.106155 0.208889
    5 3.307272 0.000000 -0.000001 3.141590 0.000000 0.400478
    6 3.593714 -0.000002 0.000001 0.199833 -0.010949 0.429484
    7 2.033354 1.000771 -1.937610 -1.177085 1.228421 3.460981
    8 6.028141 0.000001 0.000002 0.849691 0.445705 -1.222675
    9 11.692554 0.000001 0.000000 0.000009 0.000000 -1.885050
    10 11.481702 0.000000 0.000003 -1.513653 0.044098 -0.036106
    11 3.859675 -0.132566 1.193107 0.498198 0.156933 -0.982260
    12 1.312563 0.000002 0.000001 -0.000005 -0.456973 -1.112927
    13 0.729364 -0.000003 -0.000006 0.000001 -0.000010 -0.672028
    14 3.942296 0.050330 0.431040 0.160533 0.000246 -0.910148
    15 1.539096 -0.000001 0.000002 -0.000001 -0.214753 -1.281129
    16 1.196322 -0.000001 -0.000002 -0.000001 -0.000008 -0.797295
    17 3.883660 -0.050326 -0.431048 -0.084948 -0.177600 -0.644830
    18 1.719576 -0.000003 0.000000 -0.000001 -0.031645 -1.425491
    19 1.209183 0.000001 0.000004 -0.003428 0.022218 -0.934675
    20 3.859829 -0.148932 -1.331282 -0.321536 -0.122634 -0.062447
    21 1.719428 0.000001 -0.000001 0.000000 0.126411 -0.583364
    22 1.099665 -0.000001 0.000001 -0.051331 0.069071 -1.042812
    23 0.806018 -0.359834 -1.318336 1.282836 0.248639 -0.715189
    24 1.789780 0.000002 0.000001 0.000003 -0.010075 0.141901
    25 1.206999 -0.000003 -0.000002 0.000291 0.001995 1.187223
    26 2.033347 1.000767 1.937662 2.172164 -1.304420 2.351143
    27 6.028147 -0.000002 0.000000 -1.909930 -0.739567 -0.601994
    28 11.692556 0.000003 0.000002 -0.000009 0.000000 -1.813297
    29 11.481676 -0.000005 -0.000034 1.333215 -0.063097 0.403968
    30 3.859703 -0.142403 -1.191973 -0.463424 -0.186140 -1.428480
    31 1.312561 0.000001 0.000001 -0.000001 0.066181 -0.827605
    32 0.729364 0.000001 0.000001 -0.000004 0.000014 -0.594022
    33 3.942326 0.046771 -0.431443 -0.161988 -0.106335 -1.434461
    34 1.539093 0.000001 -0.000001 -0.000001 0.006381 -0.777630
    35 1.196322 -0.000003 0.000001 0.000002 0.000007 -1.170538
    36 3.883688 -0.046772 0.431447 0.049936 -0.030476 -1.249510
    37 1.719574 0.000002 0.000001 0.000004 0.033580 -1.110921
    38 1.209182 0.000001 0.000002 0.000000 0.000009 -1.111180
    39 3.859857 -0.137946 1.332465 0.283499 0.115913 -1.212794
    40 1.719431 0.000002 -0.000001 0.000002 -0.152207 -1.133729
    41 1.099663 0.000001 -0.000001 0.000000 0.000016 -1.021260
    42 0.806047 -0.348923 1.321256 -1.241125 -0.251344 -0.849454
    43 1.789784 0.000000 0.000001 0.000001 -0.036069 0.257589
    44 1.206995 0.000002 -0.000001 0.000002 0.000011 0.303734
    45 -3.890448 0.000006 0.000007 -0.556961 -0.284669 -1.879581
    46 17.848171 0.000001 0.000002 0.000000 0.000000 0.850347
    47 16.525253 -0.000003 0.000002 -0.074053 -0.378171 -1.315656
    48 6.879453 0.000000 0.000000 -0.081334 -0.002951 -0.584373
    49 3.890455 -0.000004 -0.000004 -1.723680 -0.671554 -1.263851
    50 17.848175 0.000003 -0.000001 -0.000001 0.000000 0.994795
    51 16.525253 -0.000002 0.000000 0.005040 0.021030 -1.444689
    52 6.879454 0.000000 0.000000 -0.007300 -0.002628 -0.584369
time 12
    0 4.118871 0.578148 34.707425 1.680973 0.179895 0.507488
    1 -0.312505 3.333413 -2.981901 1.570796 0.078206 1.664861
    2 4.018334 -0.000002 -0.000002 -0.021129 -0.104302 -0.009091
    3 3.518568 0.000001 0.000002 -0.122386 -0.066268 0.131238
    4 8.942644 -0.000003 0.000001 -0.109095 -0.114364 0.203244
    5 3.307272 0.000000 -0.000001 3.141590 0.000000 0.400478
    6 3.593714 -0.000002 0.000001 0.118508 -0.006346 0.419027
    7 2.033354 1.000771 -1.937610 -1.071111 1.206512 3.574472
    8 6.028141 0.000001 0.000002 0.834963 0.411431 -1.142614
    9 11.692554 0.000001 0.000000 0.000009 0.000000 -1.907382
    10 11.481702 0.000000 0.000003 -1.500016 0.094438 -0.082801
    11 3.859675 -0.132566 1.193107 0.498198 0.156933 -0.982260
    12 1.312563 0.000002 0.000001 -0.000005 -0.456973 -1.112927
    13 0.729364 -0.000003 -0.000006 0.000001 -0.000022 -0.672028
    14 3.942296 0.050330 0.431040 0.160533 0.000246 -0.910148
    15 1.539096 -0.000001 0.000002 -0.000001 -0.214753 -1.281129
    16 1.196322 -0.000001 -0.000002 -0.000001 -0.000008 -0.797295
    17 3.883660 -0.050326 -0.431048 -0.084948 -0.177600 -0.644830
    18 1.719576 -0.000003 0.000000 -0.000001 -0.031645 -1.425491
    19 1.209183 0.000001 0.000004 -0.003428 0.022218 -0.934675
    20 3.859829 -0.148932 -1.331282 -0.321536 -0.122634 -0.062447
    21 1.719428 0.000001 -0.000001 0.000000 0.126411 -0.583364
    22 1.099665 -0.000001 0.000001 -0.051331 0.069071 -1.042812
    23 0.806018 -0.359834 -1.318336 1.282836 0.248639 -0.715189
    24 1.789780 0.000002 0.000001 0.000003 -0.010075 0.141901
    25 1.206999 -0.000003 -0.000002 0.000291 0.001995 1.187223
    26 2.033347 1.000767 1.937662 2.153395 -1.275602 2.366472
    27 6.028147 -0.000002 0.000000 -1.811389 -0.679083 -0.525656
    28 11.692556 0.000003 0.000002 -0.000009 0.000000 -1.850919
    29 11.481676 -0.000005 -0.000034 1.234968 -0.159749 0.412659
    30 3.859703 -0.142403 -1.191973 -0.463438 -0.186140 -1.428480
    31 1.312561 0.000001 0.000001 -0.000001 0.066181 -0.827605
    32 0.729364 0.000001 0.000001 -0.000004 0.000014 -0.594022
    33 3.942326 0.046771 -0.431443 -0.161988 -0.106335 -1.434461
    34 1.539093 0.000001 -0.000001 -0.000001 0.006381 -0.777630
    35 1.196322 -0.000003 0.000001 0.000002 0.000007 -1.170538
    36 3.883688 -0.046772 0.431447 0.049936 -0.030476 -1.249510
    37 1.719574 0.000002 0.000001 0.000004 0.033580 -1.110921
    38 1.209182 0.000001 0.000002 0.000000 0.000009 -1.111180
    39 3.859857 -0.137946 1.332465 0.283499 0.115913 -1.212794
    40 1.719431 0.000002 -0.000001 0.000002 -0.152207 -1.133729
    41 1.099663 0.000001 -0.000001 0.000000 0.000016 -1.021260
    42 0.806047 -0.348923 1.321256 -1.241125 -0.251344 -0.849454
    43 1.789784 0.000000 0.000001 0.000001 -0.036069 0.257589
    44 1.206995 0.000002 -0.000001 0.000002 0.000011 0.303734
    45 -3.890448 0.000006 0.000007 -0.666259 -0.265852 -1.828717
    46 17.848171 0.000001 0.000002 0.000000 0.000000 0.747138
    47 16.525253 -0.000003 0.000002 0.016283 -0.298998 -1.281740
    48 6.879453 0.000000 0.000000 -0.081334 -0.002951 -0.584373
    49 3.890455 -0.000004 -0.000004 -1.712274 -0.624864 -1.217939
    50 17.848175 0.000003 -0.000001 -0.000001 0.000000 0.934570
    51 16.525253 -0.000002 0.000000 -0.002638 0.035423 -1.403734
    52 6.879454 0.000000 0.000000 -0.007300 -0.002760 -0.584369
time 13
    0 2.329754 1.531302 35.078530 1.664072 0.201032 0.378830
    1 -0.320317 3.333413 -2.981901 1.570796 0.082521 1.666999
    2 4.018334 -0.000002 -0.000002 -0.007826 -0.111457 -0.019965
    3 3.518568 0.000001 0.000002 -0.111498 -0.058718 0.114645
    4 8.942644 -0.000003 0.000001 -0.123177 -0.120740 0.198834
    5 3.307272 0.000000 -0.000001 3.141590 0.000000 0.400478
    6 3.593714 -0.000002 0.000001 0.055383 -0.002933 0.411948
    7 2.033354 1.000771 -1.937610 -0.998076 1.186872 3.653484
    8 6.028141 0.000001 0.000002 0.823785 0.382360 -1.085946
    9 11.692554 0.000001 0.000000 0.000009 0.000000 -1.924074
    10 11.481702 0.000000 0.000003 -1.496092 0.127406 -0.118102
    11 3.859675 -0.132566 1.193107 0.498198 0.156933 -0.982260
    12 1.312563 0.000002 0.000001 -0.000005 -0.456973 -1.112927
    13 0.729364 -0.000003 -0.000006 0.000001 -0.000022 -0.672028
    14 3.942296 0.050330 0.431040 0.160533 0.000246 -0.910148
    15 1.539096 -0.000001 0.000002 -0.000001 -0.214753 -1.281129
    16 1.196322 -0.000001 -0.000002 -0.000001 -0.000008 -0.797295
    17 3.883660 -0.050326 -0.431048 -0.084948 -0.177600 -0.644830
    18 1.719576 -0.000003 0.000000 -0.000001 -0.031645 -1.425491
    19 1.209183 0.000001 0.000004 -0.003428 0.022218 -0.934675
    20 3.859829 -0.148932 -1.331282 -0.321536 -0.122634 -0.062447
    21 1.719428 0.000001 -0.000001 0.000000 0.126411 -0.583364
    22 1.099665 -0.000001 0.000001 -0.051331 0.069071 -1.042812
    23 0.806018 -0.359834 -1.318336 1.282836 0.248639 -0.715189
    24 1.789780 0.000002 0.000001 0.000003 -0.010075 0.141901
    25 1.206999 -0.000003 -0.000002 0.000291 0.001995 1.187223
    26 2.033347 1.000767 1.937662 2.140850 -1.253183 2.376054
    27 6.028147 -0.000002 0.000000 -1.734352 -0.644758 -0.475201
    28 11.692556 0.000003 0.000002 -0.000009 0.000000 -1.877673
    29 11.481676 -0.000005 -0.000034 1.170338 -0.230575 0.426173
    30 3.859703 -0.142403 -1.191973 -0.463438 -0.186140 -1.428480
    31 1.312561 0.000001 0.000001 -0.000001 0.066181 -0.827605
    32 0.729364 0.000001 0.000001 -0.000004 0.000014 -0.594022
    33 3.942326 0.046771 -0.431443 -0.161988 -0.106335 -1.434461
    34 1.539093 0.000001 -0.000001 -0.000001 0.006381 -0.777630
    35 1.196322 -0.000003 0.000001 0.000002 0.000007 -1.170538
    36 3.883688 -0.046772 0.431447 0.049936 -0.030476 -1.249510
    37 1.719574 0.000002 0.000001 0.000004 0.033580 -1.110921
    38 1.209182 0.000001 0.000002 0.000000 0.000009 -1.111180
    39 3.859857 -0.137946 1.332465 0.283499 0.115913 -1.212794
    40 1.719431 0.000002 -0.000001 0.000002 -0.152207 -1.133729
    41 1.099663 0.000001 -0.000001 0.000000 0.000016 -1.021260
    42 0.806047 -0.348923 1.321256 -1.241125 -0.251344 -0.849454
    43 1.789784 0.000000 0.000001 0.000001 -0.036069 0.257589
    44 1.206995 0.000002 -0.000001 0.000002 0.000011 0.303734
    45 -3.890448 0.000006 0.000007 -0.783750 -0.249678 -1.781486
    46 17.848171 0.000001 0.000002 0.000000 0.000000 0.647911
    47 16.525253 -0.000003 0.000002 0.101985 -0.208916 -1.239546
    48 6.879453 0.000000 0.000000 -0.081334 -0.002951 -0.584373
    49 3.890455 -0.000004 -0.000004 -1.683806 -0.576902 -1.187585
    50 17.848175 0.000003 -0.000001 -0.000001 0.000000 0.882981
    51 16.525253 -0.000002 0.000000 -0.020334 0.037435 -1.373609
    52 6.879454 0.000000 0.000000 -0.007300 -0.002868 -0.584369
time 14
    0 1.177375 2.148508 35.320725 1.650941 0.214566 0.295022
    1 -0.324224 3.329506 -2.981901 1.570796 0.085313 1.668441
    2 4.018334 -0.000002 -0.000002 0.000755 -0.116095 -0.026988
    3 3.518568 0.000001 0.000002 -0.104429 -0.053828 0.103894
    4 8.942644 -0.000003 0.000001 -0.132285 -0.124862 0.195958
    5 3.307272 0.000000 -0.000001 3.141590 0.000000 0.400478
    6 3.593714 -0.000002 0.000001 0.014524 -0.000747 0.407894
    7 2.033354 1.000771 -1.937610 -0.955018 1.173132 3.700413
    8 6.028141 0.000001 0.000002 0.817485 0.361595 -1.052300
    9 11.692554 0.000001 0.000000 0.000009 0.000000 -1.934526
    10 11.481702 0.000000 0.000003 -1.496624 0.144482 -0.140663
    11 3.859675 -0.132566 1.193107 0.498198 0.156933 -0.982260
    12 1.312563 0.000002 0.000001 -0.000005 -0.456973 -1.112927
    13 0.729364 -0.000003 -0.000006 0.000001 -0.000010 -0.672028
    14 3.942296 0.050330 0.431040 0.160533 0.000246 -0.910148
    15 1.539096 -0.000001 0.000002 -0.000001 -0.214753 -1.281129
    16 1.196322 -0.000001 -0.000002 -0.000001 -0.000008 -0.797295
    17 3.883660 -0.050326 -0.431048 -0.084948 -0.177600 -0.644830
    18 1.719576 -0.000003 0.000000 -0.000001 -0.031645 -1.425491
    19 1.209183 0.000001 0.000004 -0.003428 0.022218 -0.934675
    20 3.859829 -0.148932 -1.331282 -0.321536 -0.122634 -0.062447
    21 1.719428 0.000001 -0.000001 0.000000 0.126411 -0.583364
    22 1.099665 -0.000001 0.000001 -0.051331 0.069071 -1.042812
    23 0.806018 -0.359834 -1.318336 1.282836 0.248639 -0.715189
    24 1.789780 0.000002 0.000001 0.000003 -0.010075 0.141901
    25 1.206999 -0.000003 -0.000002 0.000291 0.002007 1.187223
    26 2.033347 1.000767 1.937662 2.133476 -1.238656 2.381515
    27 6.028147 -0.000002 0.000000 -1.684364 -0.627938 -0.448758
    28 11.692556 0.000003 0.000002 -0.000009 0.000000 -1.893863
    29 11.481676 -0.000005 -0.000034 1.134827 -0.273271 0.436852
    30 3.859703 -0.142403 -1.191973 -0.463424 -0.186140 -1.428480
    31 1.312561 0.000001 0.000001 -0.000001 0.066181 -0.827605
    32 0.729364 0.000001 0.000001 -0.000004 0.000014 -0.594022
    33 3.942326 0.046771 -0.431443 -0.161988 -0.106335 -1.434461
    34 1.539093 0.000001 -0.000001 -0.000001 0.006381 -0.777630
    35 1.196322 -0.000003 0.000001 0.000002 0.000007 -1.170538
    36 3.883688 -0.046772 0.431447 0.049936 -0.030476 -1.249510
    37 1.719574 0.000002 0.000001 0.000004 0.033580 -1.110921
    38 1.209182 0.000001 0.000002 0.000000 0.000009 -1.111180
    39 3.859857 -0.137946 1.332465 0.283499 0.115913 -1.212794
    40 1.719431 0.000002 -0.000001 0.000002 -0.152207 -1.133729
    41 1.099663 0.000001 -0.000001 0.000000 0.000016 -1.021260
    42 0.806047 -0.348923 1.321256 -1.241125 -0.251344 -0.849454
    43 1.789784 0.000000 0.000001 0.000001 -0.036081 0.257589
    44 1.206995 0.000002 -0.000001 0.000002 0.000011 0.303734
    45 -3.890448 0.000006 0.000007 -0.872945 -0.233549 -1.747706
    46 17.848171 0.000001 0.000002 0.000000 0.000000 0.570382
    47 16.525253 -0.000003 0.000002 0.163065 -0.139309 -1.200143
    48 6.879453 0.000000 0.000000 -0.081334 -0.002951 -0.584373
    49 3.890455 -0.000004 -0.000004 -1.655721 -0.539461 -1.171072
    50 17.848175 0.000003 -0.000001 -0.000001 0.000000 0.846560
    51 16.525253 -0.000002 0.000000 -0.037519 0.033470 -1.354882
    52 6.879454 0.000000 0.000000 -0.007300 -0.002928 -0.584369
time 15
    0 0.763300 2.367265 35.410571 1.645817 0.219341 0.265186
    1 -0.324224 3.329506 -2.981901 1.570796 0.086294 1.668938
    2 4.018334 -0.000002 -0.000002 0.003811 -0.117737 -0.029445
    3 3.518568 0.000001 0.000002 -0.101909 -0.052102 0.100106
    4 8.942644 -0.000003 0.000001 -0.135521 -0.126337 0.194939
    5 3.307272 0.000000 -0.000001 3.141590 0.000000 0.400478
    6 3.593714 -0.000002 0.000001 0.000000 -0.000001 0.406575
    7 2.033354 1.000771 -1.937610 -0.940411 1.168098 3.716407
    8 6.028141 0.000001 0.000002 0.815534 0.353718 -1.041022
    9 11.692554 0.000001 0.000000 0.000009 0.000000 -1.938210
    10 11.481702 0.000000 0.000003 -1.497422 0.149516 -0.148682
    11 3.859675 -0.132566 1.193107 0.498198 0.156933 -0.982260
    12 1.312563 0.000002 0.000001 -0.000005 -0.456973 -1.112927
    13 0.729364 -0.000003 -0.000006 0.000001 -0.000010 -0.672028
    14 3.942296 0.050330 0.431040 0.160533 0.000246 -0.910148
    15 1.539096 -0.000001 0.000002 -0.000001 -0.214753 -1.281129
    16 1.196322 -0.000001 -0.000002 -0.000001 -0.000008 -0.797295
    17 3.883660 -0.050326 -0.431048 -0.084948 -0.177600 -0.644830
    18 1.719576 -0.000003 0.000000 -0.000001 -0.031645 -1.425491
    19 1.209183 0.000001 0.000004 -0.003428 0.022218 -0.934675
    20 3.859829 -0.148932 -1.331282 -0.321536 -0.122634 -0.062447
    21 1.719428 0.000001 -0.000001 0.000000 0.126411 -0.583364
    22 1.099665 -0.000001 0.000001 -0.051331 0.069071 -1.042812
    23 0.806018 -0.359834 -1.318336 1.282836 0.248639 -0.715189
    24 1.789780 0.000002 0.000001 0.000003 -0.010075 0.141901
    25 1.206999 -0.000003 -0.000002 0.000291 0.002007 1.187223
    26 2.033347 1.000767 1.937662 2.130986 -1.233473 2.383239
    27 6.028147 -0.000002 0.000000 -1.666682 -0.622853 -0.440723
    28 11.692556 0.000003 0.000002 -0.000009 0.000000 -1.899335
    29 11.481676 -0.000005 -0.000034 1.123464 -0.287726 0.440829
    30 3.859703 -0.142403 -1.191973 -0.463424 -0.186140 -1.428480
    31 1.312561 0.000001 0.000001 -0.000001 0.066181 -0.827605
    32 0.729364 0.000001 0.000001 -0.000004 0.000014 -0.594022
    33 3.942326 0.046771 -0.431443 -0.161988 -0.106335 -1.434461
    34 1.539093 0.000001 -0.000001 -0.000001 0.006381 -0.777630
    35 1.196322 -0.000003 0.000001 0.000002 0.000007 -1.170538
    36 3.883688 -0.046772 0.431447 0.049936 -0.030476 -1.249510
    37 1.719574 0.000002 0.000001 0.000004 0.033580 -1.110921
    38 1.209182 0.000001 0.000002 0.000000 0.000009 -1.111180
    39 3.859857 -0.137946 1.332465 0.283499 0.115913 -1.212794
    40 1.719431 0.000002 -0.000001 0.000002 -0.152207 -1.133729
    41 1.099663 0.000001 -0.000001 0.000000 0.000016 -1.021260
    42 0.806047 -0.348923 1.321256 -1.241125 -0.251344 -0.849454
    43 1.789784 0.000000 0.000001 0.000001 -0.036069 0.257589
    44 1.206995 0.000002 -0.000001 0.000002 0.000011 0.303734
    45 -3.890448 0.000006 0.000007 -0.906900 -0.225986 -1.735106
    46 17.848171 0.000001 0.000002 0.000000 0.000000 0.539338
    47 16.525253 -0.000003 0.000002 0.185867 -0.112551 -1.183019
    48 6.879453 0.000000 0.000000 -0.081334 -0.002951 -0.584373
    49 3.890455 -0.000004 -0.000004 -1.643260 -0.524877 -1.165822
    50 17.848175 0.000003 -0.000001 -0.000001 0.000000 0.832818
    51 16.525253 -0.000002 0.000000 -0.045002 0.030599 -1.348403
    52 6.879454 0.000000 0.000000 -0.007300 -0.002952 -0.584369
time 16
    0 0.763300 2.367265 35.410571 1.645817 0.219341 0.265186
    1 -0.324224 3.329506 -2.981901 1.570796 0.086294 1.668938
    2 4.018334 -0.000002 -0.000002 0.003811 -0.117737 -0.029445
    3 3.518568 0.000001 0.000002 -0.101909 -0.052102 0.100106
    4 8.942644 -0.000003 0.000001 -0.135521 -0.126337 0.194939
    5 3.307272 0.000000 -0.000001 3.141590 0.000000 0.400478
    6 3.593714 -0.000002 0.000001 0.000000 -0.000001 0.406575
    7 2.033354 1.000771 -1.937610 -0.940411 1.168098 3.716407
    8 6.028141 0.000001 0.000002 0.815534 0.353718 -1.041022
    9 11.692554 0.000001 0.000000 0.000009 0.000000 -1.938210
    10 11.481702 0.000000 0.000003 -1.497422 0.149516 -0.148682
    11 3.859675 -0.132566 1.193107 0.498198 0.156933 -0.982260
    12 1.312563 0.000002 0.000001 -0.000005 -0.456973 -1.112927
    13 0.729364 -0.000003 -0.000006 0.000001 -0.000010 -0.672028
    14 3.942296 0.050330 0.431040 0.160533 0.000246 -0.910148
    15 1.539096 -0.000001 0.000002 -0.000001 -0.214753 -1.281129
    16 1.196322 -0.000001 -0.000002 -0.000001 -0.000008 -0.797295
    17 3.883660 -0.050326 -0.431048 -0.084948 -0.177600 -0.644830
    18 1.719576 -0.000003 0.000000 -0.000001 -0.031645 -1.425491
    19 1.209183 0.000001 0.000004 -0.003428 0.022218 -0.934675
    20 3.859829 -0.148932 -1.331282 -0.321536 -0.122634 -0.062447
    21 1.719428 0.000001 -0.000001 0.000000 0.126411 -0.583364
    22 1.099665 -0.000001 0.000001 -0.051331 0.069071 -1.042812
    23 0.806018 -0.359834 -1.318336 1.282836 0.248639 -0.715189
    24 1.789780 0.000002 0.000001 0.000003 -0.010075 0.141901
    25 1.206999 -0.000003 -0.000002 0.000291 0.002007 1.187223
    26 2.033347 1.000767 1.937662 2.130986 -1.233473 2.383239
    27 6.028147 -0.000002 0.000000 -1.666682 -0.622853 -0.440723
    28 11.692556 0.000003 0.000002 -0.000009 0.000000 -1.899335
    29 11.481676 -0.000005 -0.000034 1.123464 -0.287726 0.440829
    30 3.859703 -0.142403 -1.191973 -0.463424 -0.186140 -1.428480
    31 1.312561 0.000001 0.000001 -0.000001 0.066181 -0.827605
    32 0.729364 0.000001 0.000001 -0.000004 0.000014 -0.594022
    33 3.942326 0.046771 -0.431443 -0.161988 -0.106335 -1.434461
    34 1.539093 0.000001 -0.000001 -0.000001 0.006381 -0.777630
    35 1.196322 -0.000003 0.000001 0.000002 0.000007 -1.170538
    36 3.883688 -0.046772 0.431447 0.049936 -0.030476 -1.249510
    37 1.719574 0.000002 0.000001 0.000004 0.033580 -1.110921
    38 1.209182 0.000001 0.000002 0.000000 0.000009 -1.111180
    39 3.859857 -0.137946 1.332465 0.283499 0.115913 -1.212794
    40 1.719431 0.000002 -0.000001 0.000002 -0.152207 -1.133729
    41 1.099663 0.000001 -0.000001 0.000000 0.000016 -1.021260
    42 0.806047 -0.348923 1.321256 -1.241125 -0.251344 -0.849454
    43 1.789784 0.000000 0.000001 0.000001 -0.036069 0.257589
    44 1.206995 0.000002 -0.000001 0.000002 0.000011 0.303734
    45 -3.890448 0.000006 0.000007 -0.906900 -0.225986 -1.735106
    46 17.848171 0.000001 0.000002 0.000000 0.000000 0.539338
    47 16.525253 -0.000003 0.000002 0.185867 -0.112551 -1.183019
    48 6.879453 0.000000 0.000000 -0.081334 -0.002951 -0.584373
    49 3.890455 -0.000004 -0.000004 -1.643260 -0.524877 -1.165822
    50 17.848175 0.000003 -0.000001 -0.000001 0.000000 0.832818
    51 16.525253 -0.000002 0.000000 -0.045002 0.030599 -1.348403
    52 6.879454 0.000000 0.000000 -0.007300 -0.002952 -0.584369
time 17
    0 0.763300 2.367265 35.410571 1.645817 0.219341 0.265186
    1 -0.324224 3.329506 -2.981901 1.570796 0.086294 1.668938
    2 4.018334 -0.000002 -0.000002 0.003811 -0.117737 -0.029445
    3 3.518568 0.000001 0.000002 -0.101909 -0.052102 0.100106
    4 8.942644 -0.000003 0.000001 -0.135521 -0.126337 0.194939
    5 3.307272 0.000000 -0.000001 3.141590 0.000000 0.400478
    6 3.593714 -0.000002 0.000001 0.000000 -0.000001 0.406575
    7 2.033354 1.000771 -1.937610 -0.940411 1.168098 3.716407
    8 6.028141 0.000001 0.000002 0.815534 0.353718 -1.041022
    9 11.692554 0.000001 0.000000 0.000009 0.000000 -1.938210
    10 11.481702 0.000000 0.000003 -1.497422 0.149516 -0.148682
    11 3.859675 -0.132566 1.193107 0.498198 0.156933 -0.982260
    12 1.312563 0.000002 0.000001 -0.000005 -0.456973 -1.112927
    13 0.729364 -0.000003 -0.000006 0.000001 -0.000010 -0.672028
    14 3.942296 0.050330 0.431040 0.160533 0.000246 -0.910148
    15 1.539096 -0.000001 0.000002 -0.000001 -0.214753 -1.281129
    16 1.196322 -0.000001 -0.000002 -0.000001 -0.000008 -0.797295
    17 3.883660 -0.050326 -0.431048 -0.084948 -0.177600 -0.644830
    18 1.719576 -0.000003 0.000000 -0.000001 -0.031645 -1.425491
    19 1.209183 0.000001 0.000004 -0.003428 0.022218 -0.934675
    20 3.859829 -0.148932 -1.331282 -0.321536 -0.122634 -0.062447
    21 1.719428 0.000001 -0.000001 0.000000 0.126411 -0.583364
    22 1.099665 -0.000001 0.000001 -0.051331 0.069071 -1.042812
    23 0.806018 -0.359834 -1.318336 1.282836 0.248639 -0.715189
    24 1.789780 0.000002 0.000001 0.000003 -0.010075 0.141901
    25 1.206999 -0.000003 -0.000002 0.000291 0.002007 1.187223
    26 2.033347 1.000767 1.937662 2.130986 -1.233473 2.383239
    27 6.028147 -0.000002 0.000000 -1.666682 -0.622853 -0.440723
    28 11.692556 0.000003 0.000002 -0.000009 0.000000 -1.899335
    29 11.481676 -0.000005 -0.000034 1.123464 -0.287726 0.440829
    30 3.859703 -0.142403 -1.191973 -0.463424 -0.186140 -1.428480
    31 1.312561 0.000001 0.000001 -0.000001 0.066181 -0.827605
    32 0.729364 0.000001 0.000001 -0.000004 0.000014 -0.594022
    33 3.942326 0.046771 -0.431443 -0.161988 -0.106335 -1.434461
    34 1.539093 0.000001 -0.000001 -0.000001 0.006381 -0.777630
    35 1.196322 -0.000003 0.000001 0.000002 0.000007 -1.170538
    36 3.883688 -0.046772 0.431447 0.049936 -0.030476 -1.249510
    37 1.719574 0.000002 0.000001 0.000004 0.033580 -1.110921
    38 1.209182 0.000001 0.000002 0.000000 0.000009 -1.111180
    39 3.859857 -0.137946 1.332465 0.283499 0.115913 -1.212794
    40 1.719431 0.000002 -0.000001 0.000002 -0.152207 -1.133729
    41 1.099663 0.000001 -0.000001 0.000000 0.000016 -1.021260
    42 0.806047 -0.348923 1.321256 -1.241125 -0.251344 -0.849454
    43 1.789784 0.000000 0.000001 0.000001 -0.036069 0.257589
    44 1.206995 0.000002 -0.000001 0.000002 0.000011 0.303734
    45 -3.890448 0.000006 0.000007 -0.906900 -0.225986 -1.735106
    46 17.848171 0.000001 0.000002 0.000000 0.000000 0.539338
    47 16.525253 -0.000003 0.000002 0.185867 -0.112551 -1.183019
    48 6.879453 0.000000 0.000000 -0.081334 -0.002951 -0.584373
    49 3.890455 -0.000004 -0.000004 -1.643260 -0.524877 -1.165822
    50 17.848175 0.000003 -0.000001 -0.000001 0.000000 0.832818
    51 16.525253 -0.000002 0.000000 -0.045002 0.030599 -1.348403
    52 6.879454 0.000000 0.000000 -0.007300 -0.002952 -0.584369
time 18
    0 0.763300 2.367265 35.410571 1.645817 0.219341 0.265186
    1 -0.324224 3.329506 -2.981901 1.570796 0.086294 1.668938
    2 4.018334 -0.000002 -0.000002 0.003811 -0.117737 -0.029445
    3 3.518568 0.000001 0.000002 -0.101909 -0.052102 0.100106
    4 8.942644 -0.000003 0.000001 -0.135521 -0.126337 0.194939
    5 3.307272 0.000000 -0.000001 3.141590 0.000000 0.400478
    6 3.593714 -0.000002 0.000001 0.000000 -0.000001 0.406575
    7 2.033354 1.000771 -1.937610 -0.940411 1.168098 3.716407
    8 6.028141 0.000001 0.000002 0.815534 0.353718 -1.041022
    9 11.692554 0.000001 0.000000 0.000009 0.000000 -1.938210
    10 11.481702 0.000000 0.000003 -1.497422 0.149516 -0.148682
    11 3.859675 -0.132566 1.193107 0.498198 0.156933 -0.982260
    12 1.312563 0.000002 0.000001 -0.000005 -0.456973 -1.112927
    13 0.729364 -0.000003 -0.000006 0.000001 -0.000010 -0.672028
    14 3.942296 0.050330 0.431040 0.160533 0.000246 -0.910148
    15 1.539096 -0.000001 0.000002 -0.000001 -0.214753 -1.281129
    16 1.196322 -0.000001 -0.000002 -0.000001 -0.000008 -0.797295
    17 3.883660 -0.050326 -0.431048 -0.084948 -0.177600 -0.644830
    18 1.719576 -0.000003 0.000000 -0.000001 -0.031645 -1.425491
    19 1.209183 0.000001 0.000004 -0.003428 0.022218 -0.934675
    20 3.859829 -0.148932 -1.331282 -0.321536 -0.122634 -0.062447
    21 1.719428 0.000001 -0.000001 0.000000 0.126411 -0.583364
    22 1.099665 -0.000001 0.000001 -0.051331 0.069071 -1.042812
    23 0.806018 -0.359834 -1.318336 1.282836 0.248639 -0.715189
    24 1.789780 0.000002 0.000001 0.000003 -0.010075 0.141901
    25 1.206999 -0.000003 -0.000002 0.000291 0.002007 1.187223
    26 2.033347 1.000767 1.937662 2.130986 -1.233473 2.383239
    27 6.028147 -0.000002 0.000000 -1.666682 -0.622853 -0.440723
    28 11.692556 0.000003 0.000002 -0.000009 0.000000 -1.899335
    29 11.481676 -0.000005 -0.000034 1.123464 -0.287726 0.440829
    30 3.859703 -0.142403 -1.191973 -0.463424 -0.186140 -1.428480
    31 1.312561 0.000001 0.000001 -0.000001 0.066181 -0.827605
    32 0.729364 0.000001 0.000001 -0.000004 0.000014 -0.594022
    33 3.942326 0.046771 -0.431443 -0.161988 -0.106335 -1.434461
    34 1.539093 0.000001 -0.000001 -0.000001 0.006381 -0.777630
    35 1.196322 -0.000003 0.000001 0.000002 0.000007 -1.170538
    36 3.883688 -0.046772 0.431447 0.049936 -0.030476 -1.249510
    37 1.719574 0.000002 0.000001 0.000004 0.033580 -1.110921
    38 1.209182 0.000001 0.000002 0.000000 0.000009 -1.111180
    39 3.859857 -0.137946 1.332465 0.283499 0.115913 -1.212794
    40 1.719431 0.000002 -0.000001 0.000002 -0.152207 -1.133729
    41 1.099663 0.000001 -0.000001 0.000000 0.000016 -1.021260
    42 0.806047 -0.348923 1.321256 -1.241125 -0.251344 -0.849454
    43 1.789784 0.000000 0.000001 0.000001 -0.036069 0.257589
    44 1.206995 0.000002 -0.000001 0.000002 0.000011 0.303734
    45 -3.890448 0.000006 0.000007 -0.906900 -0.225986 -1.735106
    46 17.848171 0.000001 0.000002 0.000000 0.000000 0.539338
    47 16.525253 -0.000003 0.000002 0.185867 -0.112551 -1.183019
    48 6.879453 0.000000 0.000000 -0.081334 -0.002951 -0.584373
    49 3.890455 -0.000004 -0.000004 -1.643260 -0.524877 -1.165822
    50 17.848175 0.000003 -0.000001 -0.000001 0.000000 0.832818
    51 16.525253 -0.000002 0.000000 -0.045002 0.030599 -1.348403
    52 6.879454 0.000000 0.000000 -0.007300 -0.002952 -0.584369
end
