version 1
nodes
0 "Bip01" -1
1 "Bip01 Pelvis" 0
2 "Bip01 Spine" 1
3 "Bip01 R Thigh" 2
4 "Bip01 R Calf" 3
5 "Bip01 R Foot" 4
6 "Bip01 R Toe0" 5
7 "Bip01 Spine1" 2
8 "Bip01 Spine2" 7
9 "Bip01 Spine3" 8
10 "Bip01 Neck" 9
11 "Bip01 R Clavicle" 10
12 "Bip01 R UpperArm" 11
13 "Bip01 R Forearm" 12
14 "Bip01 R Hand" 13
15 "Bip01 R Finger4" 14
16 "Bip01 R Finger41" 15
17 "Bip01 R Finger42" 16
18 "Bip01 R Finger3" 14
19 "Bip01 R Finger31" 18
20 "Bip01 R Finger32" 19
21 "Bip01 R Finger2" 14
22 "Bip01 R Finger21" 21
23 "Bip01 R Finger22" 22
24 "Bip01 R Finger1" 14
25 "Bip01 R Finger11" 24
26 "Bip01 R Finger12" 25
27 "Bip01 R Finger0" 14
28 "Bip01 R Finger01" 27
29 "Bip01 R Finger02" 28
30 "Bip01 L Clavicle" 10
31 "Bip01 L UpperArm" 30
32 "Bip01 L Forearm" 31
33 "Bip01 L Hand" 32
34 "Bip01 L Finger4" 33
35 "Bip01 L Finger41" 34
36 "Bip01 L Finger42" 35
37 "Bip01 L Finger3" 33
38 "Bip01 L Finger31" 37
39 "Bip01 L Finger32" 38
40 "Bip01 L Finger2" 33
41 "Bip01 L Finger21" 40
42 "Bip01 L Finger22" 41
43 "Bip01 L Finger1" 33
44 "Bip01 L Finger11" 43
45 "Bip01 L Finger12" 44
46 "Bip01 L Finger0" 33
47 "Bip01 L Finger01" 46
48 "Bip01 L Finger02" 47
49 "Bip01 Head" 10
50 "Bip01 L Thigh" 2
51 "Bip01 L Calf" 50
52 "Bip01 L Foot" 51
53 "Bip01 L Toe0" 52
end
skeleton
time 0
0  0.720819 1.609570 33.150341  0.026642 0.181537 -1.837136
1  0.000001 -0.000000 -0.000004  -0.000226 -1.570450 -1.570909
2  3.968637 -0.003571 0.000006  -0.000004 -0.000000 0.133736
3  -3.968643 0.006744 -3.450990  0.523283 2.686129 -0.719316
4  17.254898 0.000002 -0.000003  -0.000049 0.000025 -1.092309
5  17.254896 -0.000001 -0.000003  0.236938 0.118963 0.508763
6  3.968631 5.003930 -0.000001  -0.000000 0.000000 1.570800
7  4.486290 -0.003573 0.000000  -0.140174 -0.058832 0.235899
8  4.486291 -0.003570 -0.000001  0.039191 -0.000978 0.325424
9  4.486276 -0.003577 -0.000000  0.279439 -0.067478 0.296386
10  4.486228 -0.001568 0.000001  -0.000000 -0.000000 -0.353967
11  -0.000010 0.001576 -1.908398  1.399318 0.787308 -1.872193
12  3.867500 -0.000002 -0.000003  1.000175 0.811432 -1.215359
13  14.390610 -0.000006 -0.000008  -0.000005 0.000005 -2.199450
14  11.595303 -0.000009 0.000007  2.124952 -0.019183 -0.303429
15  4.415193 -0.060753 -1.931056  0.405594 -0.013328 0.517538
16  0.923138 0.000002 0.000001  0.000000 0.000000 0.274091
17  0.923141 -0.000004 0.000004  0.000000 0.000000 0.274091
18  4.449308 -0.067622 -0.950377  0.106601 -0.038775 0.545312
19  1.128475 0.000006 -0.000002  -0.000000 0.000000 0.274091
20  1.128461 0.000001 0.000000  -0.000000 0.000000 0.274091
21  4.416832 -0.015218 0.200556  0.042289 -0.038454 0.555492
22  1.364873 0.000004 -0.000004  -0.000000 -0.000000 0.274091
23  1.364871 0.000005 -0.000005  0.000000 0.000000 0.274091
24  4.451066 -0.068763 1.121657  -0.288593 -0.111135 0.466433
25  1.107774 -0.000002 0.000001  0.000000 0.000000 0.274091
26  1.107771 -0.000003 0.000003  -0.000000 -0.000000 0.274091
27  2.098151 0.045605 1.805205  -0.118572 -0.645235 0.196613
28  0.914513 -0.000004 -0.000001  0.000000 0.000000 0.191981
29  0.914511 -0.000008 0.000002  -0.000000 -0.000000 0.191981
30  -0.000015 0.001566 1.908398  -1.725512 -1.229623 -1.034760
31  3.867490 0.000001 -0.000002  -0.773350 -0.615253 -1.253080
32  14.390604 -0.000002 0.000004  0.000000 -0.000005 -1.618556
33  11.595304 0.000001 0.000005  -0.637719 -0.248995 -0.120526
34  4.415194 -0.060752 1.931051  -0.378974 -0.280984 -0.018071
35  0.923135 0.000021 -0.000003  0.000000 -0.000000 0.221179
36  0.923145 0.000004 -0.000002  -0.000000 -0.000000 0.221179
37  4.449314 -0.067616 0.950376  -0.202426 -0.090223 0.010942
38  1.128464 -0.000007 -0.000002  -0.000000 0.000000 0.221179
39  1.128473 0.000001 0.000003  0.000000 0.000000 0.221179
40  4.416827 -0.015211 -0.200559  -0.026100 -0.032243 0.010401
41  1.364878 -0.000008 -0.000005  0.000000 0.000000 0.221179
42  1.364864 -0.000009 -0.000003  0.000000 -0.000000 0.221179
43  4.451068 -0.068775 -1.121654  0.258358 0.103384 -0.026833
44  1.107772 0.000006 -0.000012  0.000000 -0.000000 0.221179
45  1.107768 0.000007 -0.000006  0.000000 -0.000000 0.221179
46  2.098146 0.045623 -1.805209  0.666477 0.553402 -0.001589
47  0.914517 0.000000 0.000004  -0.000000 -0.000001 0.287741
48  0.914506 -0.000003 -0.000006  0.000000 -0.000000 0.287740
49  1.969136 0.000000 -0.000001  0.134143 -0.119744 0.724122
50  -3.968632 0.006724 3.450990  -0.120967 -2.910606 -1.059798
51  17.254902 -0.000002 0.000001  0.000239 -0.000254 -0.786982
52  17.254898 -0.000000 0.000001  -0.320598 -0.110799 0.011702
53  3.968630 5.003932 0.000001  0.000000 0.000000 1.570800
time 1
0  0.720630 1.773862 33.493763  0.026301 0.179239 -1.835146
1  -0.000001 -0.000000 -0.000005  -0.000269 -1.570450 -1.570909
2  3.968640 -0.003572 0.000006  -0.000004 -0.000000 0.108881
3  -3.968648 0.006742 -3.450989  0.536038 2.695765 -0.676311
4  17.254910 0.000001 -0.000002  -0.000048 0.000026 -1.058094
5  17.254902 0.000003 -0.000000  0.234676 0.115144 0.490991
6  3.968630 5.003930 -0.000001  0.000000 -0.000000 1.570800
7  4.486282 -0.003572 -0.000000  -0.138229 -0.051745 0.232476
8  4.486292 -0.003571 -0.000000  0.039175 -0.000916 0.322382
9  4.486283 -0.003575 0.000002  0.251660 -0.053748 0.258478
10  4.486219 -0.001567 -0.000002  0.000001 -0.000003 -0.350014
11  -0.000013 0.001576 -1.908399  1.394148 0.798766 -1.873719
12  3.867497 0.000000 -0.000004  1.053196 0.806040 -1.212394
13  14.390604 -0.000008 -0.000005  -0.000005 0.000005 -2.175957
14  11.595304 0.000006 -0.000012  2.110300 0.181153 -0.174241
15  4.415195 -0.060755 -1.931052  0.405594 -0.013328 0.517538
16  0.923137 -0.000004 0.000001  0.000000 0.000000 0.277714
17  0.923140 0.000001 0.000007  -0.000000 -0.000000 0.277714
18  4.449307 -0.067618 -0.950377  0.106601 -0.038775 0.545312
19  1.128470 0.000000 -0.000002  -0.000000 -0.000000 0.277714
20  1.128471 0.000011 0.000000  -0.000000 0.000000 0.277714
21  4.416834 -0.015208 0.200558  0.042289 -0.038454 0.555492
22  1.364870 0.000003 0.000003  -0.000000 -0.000000 0.277714
23  1.364868 0.000011 0.000001  0.000000 0.000000 0.277714
24  4.451066 -0.068762 1.121659  -0.288712 -0.110793 0.467608
25  1.107776 0.000010 -0.000006  0.000000 0.000000 0.277714
26  1.107775 -0.000012 0.000001  0.000000 -0.000000 0.277714
27  2.098151 0.045616 1.805208  -0.119650 -0.645064 0.198407
28  0.914510 -0.000001 -0.000003  0.000000 -0.000000 0.191981
29  0.914505 -0.000000 0.000006  -0.000000 -0.000000 0.191981
30  -0.000012 0.001569 1.908397  -1.724163 -1.235202 -1.041123
31  3.867493 -0.000001 -0.000002  -0.742430 -0.572893 -1.262248
32  14.390612 -0.000001 0.000006  -0.000000 -0.000005 -1.603030
33  11.595302 -0.000002 0.000012  -0.657704 -0.228613 -0.088646
34  4.415192 -0.060746 1.931051  -0.378811 -0.277299 -0.012319
35  0.923133 0.000015 0.000000  0.000000 0.000000 0.224698
36  0.923141 -0.000002 0.000000  -0.000000 0.000000 0.224698
37  4.449315 -0.067620 0.950382  -0.202793 -0.089274 0.017123
38  1.128467 -0.000000 -0.000009  0.000000 0.000000 0.224698
39  1.128472 0.000017 -0.000000  -0.000000 -0.000000 0.224698
40  4.416837 -0.015215 -0.200550  -0.026275 -0.032154 0.016603
41  1.364875 -0.000009 -0.000005  -0.000000 -0.000000 0.224698
42  1.364865 -0.000008 0.000006  0.000000 -0.000000 0.224698
43  4.451068 -0.068770 -1.121653  0.258941 0.102374 -0.020637
44  1.107776 0.000002 -0.000002  -0.000000 -0.000000 0.224698
45  1.107770 -0.000004 0.000002  -0.000000 0.000000 0.224698
46  2.098147 0.045619 -1.805206  0.661396 0.554690 0.004018
47  0.914518 0.000004 0.000001  -0.000000 -0.000001 0.287856
48  0.914505 -0.000004 -0.000009  -0.000000 -0.000000 0.287855
49  1.969136 0.000006 -0.000002  0.124152 -0.107933 0.682345
50  -3.968633 0.006723 3.450991  -0.134572 -2.912311 -1.029999
51  17.254902 0.000003 -0.000002  0.000246 -0.000247 -0.816781
52  17.254896 -0.000001 -0.000001  -0.320111 -0.086143 0.053839
53  3.968629 5.003933 0.000001  0.000000 0.000000 1.570800
time 2
0  0.719793 2.165637 33.879803  0.025343 0.172774 -1.829548
1  0.000001 0.000000 -0.000006  -0.000220 -1.570450 -1.570780
2  3.968646 -0.003572 0.000006  -0.000005 -0.000001 0.087335
3  -3.968649 0.006745 -3.450990  0.545760 2.711669 -0.638266
4  17.254904 -0.000001 -0.000001  -0.000047 0.000028 -1.019116
5  17.254898 -0.000003 0.000002  0.240631 0.105475 0.467340
6  3.968631 5.003931 -0.000001  0.000000 0.000000 1.570800
7  4.486286 -0.003572 0.000000  -0.132721 -0.045344 0.222830
8  4.486283 -0.003567 0.000001  0.039128 -0.000735 0.313764
9  4.486284 -0.003570 -0.000000  0.223529 -0.041865 0.224858
10  4.486225 -0.001566 0.000001  0.000002 -0.000006 -0.338888
11  -0.000002 0.001577 -1.908397  1.379514 0.831011 -1.878310
12  3.867495 0.000001 -0.000000  1.147041 0.769080 -1.189483
13  14.390604 -0.000004 0.000011  -0.000004 0.000005 -2.109849
14  11.595301 0.000002 -0.000014  2.128860 0.376844 -0.038042
15  4.415204 -0.060768 -1.931052  0.405594 -0.013328 0.517538
16  0.923138 0.000008 -0.000003  -0.000000 -0.000000 0.287910
17  0.923137 0.000001 0.000001  0.000000 -0.000000 0.287910
18  4.449317 -0.067622 -0.950375  0.106601 -0.038775 0.545312
19  1.128473 0.000001 0.000003  -0.000000 -0.000000 0.287910
20  1.128468 0.000010 0.000004  0.000000 0.000000 0.287910
21  4.416839 -0.015217 0.200558  0.042289 -0.038454 0.555492
22  1.364870 0.000002 0.000000  0.000000 -0.000000 0.287910
23  1.364869 0.000006 -0.000002  0.000000 -0.000000 0.287910
24  4.451076 -0.068774 1.121660  -0.289046 -0.109829 0.470912
25  1.107775 0.000007 0.000001  0.000000 0.000000 0.287911
26  1.107773 -0.000011 0.000007  0.000000 0.000000 0.287911
27  2.098160 0.045608 1.805209  -0.122683 -0.644573 0.203453
28  0.914512 -0.000004 -0.000001  -0.000000 -0.000000 0.191981
29  0.914507 0.000006 0.000006  0.000000 0.000000 0.191981
30  -0.000001 0.001567 1.908400  -1.719304 -1.250878 -1.059983
31  3.867488 0.000002 -0.000002  -0.688824 -0.491328 -1.259657
32  14.390612 -0.000004 0.000008  0.000000 -0.000005 -1.559343
33  11.595304 -0.000000 -0.000001  -0.694458 -0.203947 -0.061195
34  4.415190 -0.060745 1.931055  -0.378329 -0.266861 0.003772
35  0.923133 0.000016 0.000004  -0.000000 0.000000 0.234601
36  0.923140 -0.000006 0.000002  -0.000000 -0.000000 0.234601
37  4.449311 -0.067622 0.950381  -0.203824 -0.086561 0.034506
38  1.128463 -0.000005 0.000010  -0.000000 0.000000 0.234601
39  1.128474 0.000001 -0.000004  0.000000 0.000000 0.234601
40  4.416826 -0.015208 -0.200552  -0.026767 -0.031887 0.034053
41  1.364882 -0.000009 -0.000005  -0.000000 0.000000 0.234601
42  1.364865 -0.000008 -0.000004  0.000000 0.000000 0.234601
43  4.451064 -0.068771 -1.121658  0.260580 0.099490 -0.003215
44  1.107773 -0.000005 -0.000001  0.000000 -0.000000 0.234601
45  1.107768 -0.000002 0.000000  0.000000 -0.000000 0.234601
46  2.098142 0.045622 -1.805210  0.647127 0.558225 0.019853
47  0.914518 0.000002 -0.000002  -0.000001 -0.000001 0.288177
48  0.914506 -0.000003 0.000003  0.000000 -0.000000 0.288176
49  1.969150 0.000003 0.000000  0.100327 -0.079767 0.582722
50  -3.968637 0.006724 3.450990  -0.155582 -2.916121 -1.015807
51  17.254902 -0.000005 -0.000001  0.000271 -0.000219 -0.923105
52  17.254902 -0.000000 -0.000003  -0.319162 -0.023996 0.120969
53  3.968631 5.003933 -0.000002  0.000000 0.000000 1.570800
time 3
0  0.717572 2.633239 34.297485  0.023865 0.162784 -1.820896
1  -0.000000 -0.000000 -0.000008  -0.000220 -1.570450 -1.570743
2  3.968637 -0.003571 0.000006  -0.000005 -0.000001 0.068861
3  -3.968635 0.006743 -3.450989  0.552409 2.732043 -0.600361
4  17.254900 -0.000001 -0.000002  -0.000046 0.000030 -0.974498
5  17.254902 -0.000001 0.000003  0.253915 0.094278 0.440117
6  3.968631 5.003930 0.000000  -0.000000 0.000000 1.570800
7  4.486288 -0.003572 0.000000  -0.124137 -0.039592 0.207901
8  4.486297 -0.003569 0.000000  0.039055 -0.000440 0.300331
9  4.486286 -0.003574 -0.000000  0.195382 -0.031695 0.195234
10  4.486214 -0.001563 -0.000001  0.000002 -0.000008 -0.321694
11  -0.000012 0.001571 -1.908396  1.356557 0.880846 -1.886356
12  3.867497 0.000000 0.000003  1.179241 0.656639 -1.119147
13  14.390600 -0.000015 -0.000009  -0.000004 0.000006 -2.007683
14  11.595303 -0.000001 -0.000008  2.148473 0.436683 0.012942
15  4.415189 -0.060747 -1.931052  0.405594 -0.013328 0.517538
16  0.923137 0.000002 -0.000003  -0.000000 0.000000 0.303668
17  0.923136 0.000016 0.000001  0.000000 0.000000 0.303668
18  4.449305 -0.067616 -0.950377  0.106601 -0.038775 0.545312
19  1.128464 0.000004 0.000002  0.000000 -0.000000 0.303668
20  1.128466 0.000008 0.000003  -0.000000 -0.000000 0.303668
21  4.416834 -0.015207 0.200555  0.042289 -0.038454 0.555492
22  1.364872 -0.000010 -0.000001  0.000000 0.000000 0.303668
23  1.364870 0.000003 0.000000  -0.000000 0.000000 0.303668
24  4.451064 -0.068757 1.121657  -0.289561 -0.108335 0.476017
25  1.107780 -0.000001 -0.000008  0.000000 0.000000 0.303668
26  1.107772 -0.000013 -0.000001  0.000000 -0.000000 0.303668
27  2.098140 0.045621 1.805206  -0.127363 -0.643790 0.211245
28  0.914508 0.000002 -0.000005  0.000000 -0.000000 0.191981
29  0.914508 -0.000005 -0.000003  0.000000 0.000000 0.191981
30  -0.000020 0.001565 1.908400  -1.708266 -1.275014 -1.092348
31  3.867490 -0.000003 -0.000004  -0.620960 -0.375654 -1.241808
32  14.390611 -0.000000 0.000006  -0.000000 -0.000005 -1.491827
33  11.595302 -0.000001 0.000004  -0.745235 -0.175921 -0.037862
34  4.415194 -0.060754 1.931052  -0.377510 -0.250534 0.028364
35  0.923138 0.000006 0.000006  0.000000 -0.000000 0.249906
36  0.923136 -0.000008 -0.000002  -0.000000 0.000000 0.249906
37  4.449317 -0.067623 0.950380  -0.205409 -0.082250 0.061334
38  1.128465 -0.000003 -0.000001  -0.000000 0.000000 0.249906
39  1.128467 0.000009 0.000003  -0.000000 -0.000000 0.249906
40  4.416830 -0.015212 -0.200557  -0.027524 -0.031429 0.061020
41  1.364878 -0.000018 -0.000001  0.000000 -0.000000 0.249906
42  1.364866 -0.000004 -0.000002  0.000000 -0.000000 0.249906
43  4.451068 -0.068773 -1.121661  0.263109 0.094914 0.023670
44  1.107774 -0.000004 0.000009  -0.000000 -0.000000 0.249906
45  1.107766 -0.000007 0.000005  -0.000000 0.000000 0.249906
46  2.098153 0.045615 -1.805204  0.625154 0.563430 0.044482
47  0.914518 0.000003 -0.000011  -0.000000 -0.000001 0.288673
48  0.914511 0.000001 -0.000005  0.000000 -0.000000 0.288672
49  1.969135 0.000003 0.000001  0.071891 -0.046150 0.463818
50  -3.968628 0.006721 3.450990  -0.179736 -2.927501 -0.979535
51  17.254900 0.000001 -0.000001  0.000293 -0.000189 -1.029976
52  17.254902 0.000002 -0.000002  -0.318655 -0.016584 0.164248
53  3.968628 5.003933 0.000001  -0.000000 0.000000 1.570800
time 4
0  0.713231 3.025014 34.735859  0.021963 0.149908 -1.809746
1  0.000000 -0.000000 0.000000  -0.000261 -1.570450 -1.570855
2  3.968631 -0.003570 0.000006  -0.000005 -0.000001 0.053224
3  -3.968632 0.006741 -3.450988  0.555933 2.755327 -0.557849
4  17.254904 0.000001 0.000002  -0.000044 0.000033 -0.923277
5  17.254896 0.000002 0.000001  0.273669 0.085621 0.411556
6  3.968632 5.003934 0.000001  0.000000 -0.000000 1.570800
7  4.486294 -0.003572 0.000000  -0.112962 -0.034449 0.188624
8  4.486297 -0.003569 -0.000000  0.038962 -0.000037 0.282842
9  4.486278 -0.003570 0.000000  0.167556 -0.023102 0.169314
10  4.486228 -0.001575 0.000001  0.000003 -0.000010 -0.299534
11  -0.000006 0.001574 -1.908396  1.326039 0.945050 -1.898719
12  3.867495 0.000002 -0.000007  1.086037 0.463671 -1.016074
13  14.390605 0.000004 -0.000005  -0.000003 0.000007 -1.909949
14  11.595299 -0.000001 -0.000006  2.129489 0.401094 0.001956
15  4.415202 -0.060763 -1.931051  0.405594 -0.013328 0.517538
16  0.923140 -0.000008 -0.000003  -0.000000 -0.000000 0.323976
17  0.923134 0.000002 -0.000002  0.000000 -0.000000 0.323976
18  4.449312 -0.067631 -0.950377  0.106601 -0.038775 0.545312
19  1.128472 0.000010 0.000001  0.000000 0.000000 0.323976
20  1.128468 -0.000006 -0.000002  -0.000000 0.000000 0.323976
21  4.416830 -0.015219 0.200560  0.042289 -0.038454 0.555492
22  1.364870 0.000006 -0.000001  0.000000 0.000000 0.323976
23  1.364871 0.000004 0.000001  -0.000000 -0.000000 0.323976
24  4.451060 -0.068769 1.121660  -0.290221 -0.106404 0.482592
25  1.107784 -0.000007 0.000002  -0.000000 -0.000000 0.323976
26  1.107776 -0.000000 -0.000001  0.000000 -0.000000 0.323976
27  2.098147 0.045603 1.805207  -0.133377 -0.642738 0.221272
28  0.914505 -0.000000 -0.000007  -0.000000 -0.000000 0.191981
29  0.914508 -0.000003 -0.000000  0.000000 0.000000 0.191981
30  -0.000019 0.001567 1.908401  -1.686153 -1.305858 -1.141397
31  3.867496 -0.000008 -0.000002  -0.544756 -0.231738 -1.206462
32  14.390606 -0.000000 0.000010  -0.000000 -0.000005 -1.404814
33  11.595303 -0.000001 -0.000004  -0.807421 -0.145432 -0.018294
34  4.415192 -0.060751 1.931052  -0.376327 -0.229149 0.059564
35  0.923137 0.000010 0.000001  0.000000 0.000000 0.269631
36  0.923142 -0.000008 -0.000004  -0.000000 -0.000000 0.269631
37  4.449315 -0.067628 0.950379  -0.207431 -0.076483 0.095839
38  1.128468 -0.000000 0.000003  -0.000000 -0.000000 0.269631
39  1.128468 0.000001 -0.000001  0.000000 0.000000 0.269631
40  4.416830 -0.015220 -0.200554  -0.028494 -0.030754 0.095771
41  1.364883 -0.000005 -0.000001  0.000000 -0.000000 0.269631
42  1.364864 -0.000008 0.000006  -0.000000 -0.000000 0.269630
43  4.451065 -0.068774 -1.121660  0.266357 0.088805 0.058243
44  1.107771 -0.000001 0.000001  0.000000 -0.000000 0.269630
45  1.107765 -0.000009 0.000001  0.000000 0.000000 0.269631
46  2.098149 0.045616 -1.805208  0.596961 0.569673 0.076488
47  0.914520 0.000002 -0.000009  -0.000000 -0.000001 0.289313
48  0.914506 -0.000001 -0.000004  0.000000 0.000000 0.289312
49  1.969136 0.000003 0.000001  0.048066 -0.017984 0.364195
50  -3.968628 0.006721 3.450990  -0.207035 -2.948845 -0.896534
51  17.254904 0.000003 -0.000001  0.000302 -0.000174 -1.081197
52  17.254900 0.000004 -0.000000  -0.310662 -0.032925 0.246811
53  3.968630 5.003934 0.000000  -0.000000 0.000000 1.570800
time 5
0  0.706034 3.189306 35.183945  0.019735 0.134789 -1.796652
1  0.000000 0.000000 -0.000009  -0.000293 -1.570450 -1.570713
2  3.968643 -0.003571 0.000006  -0.000005 -0.000001 0.040186
3  -3.968647 0.006743 -3.450990  0.558557 2.779277 -0.505802
4  17.254906 0.000000 -0.000001  -0.000042 0.000035 -0.865104
5  17.254900 0.000000 -0.000000  0.296699 0.082973 0.384210
6  3.968632 5.003930 -0.000001  0.000000 -0.000000 1.570800
7  4.486290 -0.003572 -0.000000  -0.099686 -0.029877 0.165937
8  4.486291 -0.003569 0.000001  0.038852 0.000471 0.262058
9  4.486279 -0.003573 -0.000000  0.140387 -0.015950 0.146807
10  4.486219 -0.001557 -0.000000  0.000003 -0.000012 -0.273513
11  -0.000006 0.001571 -1.908398  1.288054 1.020360 -1.916878
12  3.867496 -0.000001 -0.000005  0.884685 0.219339 -0.895393
13  14.390605 -0.000004 -0.000002  -0.000003 0.000007 -1.864145
14  11.595299 -0.000004 -0.000015  2.053679 0.308070 -0.032185
15  4.415195 -0.060756 -1.931050  0.405594 -0.013328 0.517538
16  0.923139 0.000004 0.000000  -0.000000 -0.000000 0.347823
17  0.923141 -0.000001 0.000002  -0.000000 -0.000000 0.347823
18  4.449317 -0.067615 -0.950375  0.106601 -0.038775 0.545312
19  1.128475 0.000011 -0.000003  0.000000 0.000000 0.347823
20  1.128468 0.000005 0.000000  -0.000000 0.000000 0.347824
21  4.416836 -0.015213 0.200558  0.042289 -0.038454 0.555492
22  1.364872 -0.000005 -0.000004  -0.000000 -0.000000 0.347823
23  1.364871 0.000021 0.000002  -0.000000 -0.000000 0.347823
24  4.451075 -0.068769 1.121662  -0.290990 -0.104126 0.490308
25  1.107780 0.000002 -0.000002  -0.000000 -0.000000 0.347824
26  1.107776 -0.000017 0.000003  0.000000 -0.000000 0.347824
27  2.098158 0.045609 1.805209  -0.140416 -0.641441 0.233026
28  0.914513 0.000002 -0.000003  -0.000000 -0.000000 0.191981
29  0.914510 0.000003 -0.000007  0.000000 0.000000 0.191981
30  -0.000007 0.001559 1.908399  -1.644697 -1.341445 -1.213700
31  3.867494 0.000003 0.000008  -0.463240 -0.066357 -1.152521
32  14.390606 -0.000001 0.000011  0.000000 -0.000004 -1.302637
33  11.595304 0.000003 0.000004  -0.878489 -0.113349 -0.002121
34  4.415193 -0.060749 1.931050  -0.374763 -0.203557 0.095493
35  0.923134 0.000008 0.000000  -0.000000 -0.000000 0.292793
36  0.923140 -0.000007 -0.000001  -0.000000 -0.000000 0.292793
37  4.449314 -0.067627 0.950376  -0.209769 -0.069408 0.136258
38  1.128464 -0.000005 0.000000  -0.000000 -0.000000 0.292793
39  1.128474 -0.000001 0.000002  -0.000000 -0.000000 0.292793
40  4.416829 -0.015211 -0.200558  -0.029620 -0.029841 0.136574
41  1.364878 0.000004 0.000001  0.000000 -0.000000 0.292793
42  1.364864 -0.000003 0.000003  0.000000 0.000000 0.292792
43  4.451067 -0.068765 -1.121662  0.270145 0.081327 0.098734
44  1.107776 0.000004 0.000005  -0.000000 0.000000 0.292793
45  1.107762 -0.000010 0.000001  0.000000 -0.000000 0.292792
46  2.098148 0.045623 -1.805207  0.564005 0.576327 0.114429
47  0.914517 -0.000002 -0.000003  -0.000000 -0.000001 0.290065
48  0.914500 -0.000007 -0.000012  0.000000 -0.000000 0.290064
49  1.969139 0.000000 -0.000000  0.038075 -0.006173 0.322418
50  -3.968627 0.006721 3.450989  -0.212043 -2.994771 -0.752993
51  17.254904 -0.000007 0.000001  0.000291 -0.000192 -1.020586
52  17.254898 0.000003 -0.000001  -0.267583 0.029368 0.356519
53  3.968632 5.003932 0.000001  0.000000 -0.000000 1.570800
time 6
0  0.681012 3.097637 35.631279  0.017275 0.118067 -1.782171
1  0.000001 -0.000000 -0.000007  -0.000253 -1.570450 -1.570796
2  3.968638 -0.003570 0.000006  -0.000005 -0.000001 0.029511
3  -3.968648 0.006744 -3.450990  0.559273 2.804449 -0.444299
4  17.254908 -0.000002 -0.000002  -0.000040 0.000038 -0.800433
5  17.254902 0.000000 -0.000000  0.323402 0.086170 0.359401
6  3.968630 5.003930 -0.000000  0.000000 0.000000 1.570800
7  4.486283 -0.003571 -0.000000  -0.084793 -0.025839 0.140778
8  4.486298 -0.003572 -0.000000  0.038731 0.001076 0.238739
9  4.486275 -0.003573 -0.000001  0.114211 -0.010105 0.127420
10  4.486217 -0.001565 -0.000000  0.000003 -0.000014 -0.244734
11  -0.000013 0.001573 -1.908397  1.241465 1.103446 -1.943370
12  3.867491 -0.000001 -0.000003  0.604133 -0.046475 -0.735852
13  14.390607 -0.000001 0.000002  -0.000003 0.000007 -1.859588
14  11.595302 -0.000001 -0.000005  1.892928 0.187231 -0.062345
15  4.415187 -0.060764 -1.931052  0.405594 -0.013328 0.517538
16  0.923135 0.000004 -0.000001  -0.000000 0.000000 0.374199
17  0.923138 -0.000011 0.000011  0.000000 -0.000000 0.374199
18  4.449303 -0.067633 -0.950376  0.106601 -0.038775 0.545312
19  1.128467 0.000005 -0.000002  0.000000 0.000000 0.374199
20  1.128467 -0.000010 0.000004  -0.000000 0.000000 0.374199
21  4.416827 -0.015222 0.200557  0.042289 -0.038454 0.555492
22  1.364868 0.000004 -0.000001  0.000000 0.000000 0.374199
23  1.364868 0.000005 0.000001  0.000000 -0.000000 0.374199
24  4.451059 -0.068770 1.121658  -0.291833 -0.101594 0.498834
25  1.107779 0.000006 -0.000005  -0.000000 0.000000 0.374199
26  1.107777 -0.000011 0.000001  0.000000 0.000000 0.374199
27  2.098143 0.045602 1.805205  -0.148171 -0.639930 0.245999
28  0.914510 0.000003 -0.000000  -0.000000 0.000000 0.191981
29  0.914509 -0.000005 0.000006  0.000000 -0.000000 0.191981
30  -0.000013 0.001564 1.908399  -1.569690 -1.379396 -1.321850
31  3.867491 -0.000004 -0.000005  -0.376894 0.112862 -1.079188
32  14.390610 -0.000006 -0.000002  -0.000000 -0.000004 -1.189628
33  11.595300 -0.000005 -0.000001  -0.955956 -0.080516 0.011029
34  4.415192 -0.060748 1.931049  -0.372826 -0.174668 0.134345
35  0.923137 -0.000001 0.000001  0.000000 -0.000000 0.318410
36  0.923136 -0.000010 -0.000003  -0.000000 -0.000000 0.318410
37  4.449312 -0.067620 0.950375  -0.212293 -0.061207 0.180833
38  1.128463 0.000002 0.000000  -0.000000 -0.000000 0.318410
39  1.128471 -0.000001 -0.000002  0.000000 -0.000000 0.318410
40  4.416830 -0.015214 -0.200559  -0.030842 -0.028680 0.181697
41  1.364884 -0.000008 -0.000000  -0.000000 0.000000 0.318410
42  1.364866 -0.000012 0.000001  0.000000 -0.000000 0.318410
43  4.451064 -0.068771 -1.121660  0.274288 0.072677 0.143376
44  1.107773 0.000002 -0.000001  -0.000000 -0.000000 0.318410
45  1.107772 -0.000003 -0.000008  0.000000 0.000000 0.318410
46  2.098146 0.045614 -1.805206  0.527702 0.582822 0.156802
47  0.914516 -0.000003 -0.000002  -0.000000 -0.000001 0.290896
48  0.914514 0.000001 -0.000007  -0.000000 -0.000000 0.290895
49  1.969140 -0.000000 -0.000001  0.038075 -0.006173 0.322418
50  -3.968632 0.006723 3.450989  -0.180938 -3.053340 -0.586029
51  17.254890 0.000002 -0.000000  0.000259 -0.000233 -0.871638
52  17.254900 -0.000001 -0.000000  -0.201253 0.008688 0.431924
53  3.968630 5.003933 0.000001  0.000000 0.000000 1.570800
time 7
0  0.628429 2.848819 36.069378  0.014678 0.100385 -1.766856
1  0.000001 -0.000000 -0.000000  -0.000313 -1.570450 -1.570787
2  3.968649 -0.003570 0.000006  -0.000005 -0.000001 0.020964
3  -3.968642 0.006741 -3.450990  0.556583 2.832116 -0.377471
4  17.254904 -0.000001 -0.000000  -0.000037 0.000041 -0.729889
5  17.254902 -0.000002 -0.000001  0.354629 0.092044 0.335836
6  3.968631 5.003931 -0.000001  0.000000 -0.000000 1.570800
7  4.486278 -0.003572 -0.000000  -0.068773 -0.022294 0.114085
8  4.486297 -0.003572 -0.000000  0.038602 0.001775 0.213647
9  4.486284 -0.003573 0.000000  0.089363 -0.005432 0.110862
10  4.486217 -0.001566 0.000000  0.000003 -0.000015 -0.214299
11  -0.000009 0.001574 -1.908398  1.182745 1.190875 -1.982893
12  3.867496 0.000003 -0.000018  0.243558 -0.294065 -0.533390
13  14.390599 -0.000003 -0.000003  -0.000002 0.000007 -1.847534
14  11.595299 -0.000003 -0.000007  1.645910 0.088225 -0.027618
15  4.415197 -0.060774 -1.931054  0.405594 -0.013328 0.517538
16  0.923138 0.000009 -0.000007  0.000000 -0.000000 0.402091
17  0.923143 0.000000 0.000012  -0.000000 -0.000000 0.402091
18  4.449311 -0.067634 -0.950379  0.106601 -0.038775 0.545312
19  1.128473 0.000007 -0.000004  0.000000 0.000000 0.402091
20  1.128464 -0.000003 0.000003  -0.000000 -0.000000 0.402091
21  4.416835 -0.015224 0.200557  0.042289 -0.038454 0.555492
22  1.364869 -0.000009 -0.000003  0.000000 -0.000000 0.402091
23  1.364871 -0.000006 0.000005  0.000000 -0.000000 0.402091
24  4.451069 -0.068782 1.121662  -0.292717 -0.098903 0.507843
25  1.107780 0.000017 -0.000005  -0.000000 -0.000000 0.402091
26  1.107778 -0.000011 0.000001  0.000000 0.000000 0.402091
27  2.098153 0.045591 1.805210  -0.156334 -0.638244 0.259685
28  0.914508 0.000009 -0.000004  -0.000000 -0.000000 0.191981
29  0.914510 0.000002 -0.000002  0.000000 -0.000000 0.191981
30  -0.000017 0.001566 1.908399  -1.436302 -1.416496 -1.489184
31  3.867492 -0.000002 -0.000001  -0.284010 0.297559 -0.985123
32  14.390620 -0.000003 -0.000003  0.000000 -0.000003 -1.070120
33  11.595302 0.000000 -0.000001  -1.037358 -0.047756 0.021512
34  4.415195 -0.060752 1.931050  -0.370562 -0.143478 0.174425
35  0.923145 0.000008 0.000002  0.000000 -0.000000 0.345501
36  0.923139 -0.000010 -0.000002  -0.000000 -0.000000 0.345500
37  4.449313 -0.067629 0.950377  -0.214875 -0.052108 0.227820
38  1.128464 -0.000007 -0.000001  -0.000000 0.000000 0.345500
39  1.128466 0.000002 0.000000  -0.000000 0.000000 0.345500
40  4.416825 -0.015223 -0.200560  -0.032102 -0.027283 0.229406
41  1.364874 -0.000005 -0.000000  0.000000 0.000000 0.345500
42  1.364862 -0.000007 -0.000004  0.000000 -0.000000 0.345500
43  4.451066 -0.068776 -1.121660  0.278599 0.063101 0.190421
44  1.107778 0.000005 0.000003  -0.000000 -0.000000 0.345500
45  1.107762 -0.000004 -0.000000  -0.000000 0.000000 0.345500
46  2.098144 0.045616 -1.805208  0.489417 0.588694 0.202024
47  0.914515 -0.000001 -0.000000  -0.000000 -0.000001 0.291774
48  0.914516 0.000002 -0.000006  -0.000000 -0.000000 0.291774
49  1.969137 0.000000 0.000000  0.038075 -0.006173 0.322418
50  -3.968638 0.006721 3.450989  -0.153085 -3.083507 -0.465626
51  17.254902 0.000002 0.000002  0.000227 -0.000264 -0.742082
52  17.254892 -0.000002 -0.000000  -0.165016 -0.016788 0.391004
53  3.968630 5.003934 0.000000  0.000000 0.000000 1.570800
time 8
0  0.555397 2.482140 36.490215  0.012035 0.082382 -1.751264
1  0.000002 0.000000 -0.000002  -0.000265 -1.570450 -1.570802
2  3.968635 -0.003571 0.000006  -0.000005 -0.000001 0.014307
3  -3.968634 0.006742 -3.450990  0.550325 2.862258 -0.306699
4  17.254904 -0.000002 -0.000001  -0.000034 0.000043 -0.652743
5  17.254900 -0.000003 -0.000002  0.389767 0.099276 0.312217
6  3.968632 5.003929 0.000000  -0.000000 0.000000 1.570800
7  4.486282 -0.003570 0.000000  -0.052111 -0.019205 0.086794
8  4.486299 -0.003571 -0.000000  0.038472 0.002562 0.187540
9  4.486277 -0.003569 -0.000000  0.066180 -0.001794 0.096842
10  4.486228 -0.001561 0.000000  0.000003 -0.000016 -0.183313
11  -0.000009 0.001573 -1.908397  1.103049 1.279025 -2.045186
12  3.867496 0.000005 -0.000000  -0.147240 -0.495718 -0.311288
13  14.390612 -0.000006 0.000003  -0.000002 0.000007 -1.776985
14  11.595305 0.000009 -0.000004  1.390380 0.083785 0.092919
15  4.415192 -0.060758 -1.931054  0.405594 -0.013328 0.517538
16  0.923137 0.000001 -0.000007  0.000000 -0.000000 0.430488
17  0.923141 0.000004 -0.000002  0.000000 -0.000000 0.430488
18  4.449309 -0.067619 -0.950378  0.106601 -0.038775 0.545312
19  1.128477 -0.000002 0.000002  0.000000 0.000000 0.430488
20  1.128460 0.000001 0.000004  0.000000 0.000000 0.430488
21  4.416832 -0.015215 0.200557  0.042289 -0.038454 0.555492
22  1.364869 -0.000003 0.000004  0.000000 0.000000 0.430488
23  1.364864 -0.000009 0.000007  0.000000 0.000000 0.430488
24  4.451066 -0.068763 1.121663  -0.293609 -0.096148 0.517007
25  1.107778 0.000004 -0.000006  0.000000 0.000000 0.430488
26  1.107770 -0.000008 0.000005  0.000000 0.000000 0.430488
27  2.098150 0.045606 1.805211  -0.164605 -0.636436 0.273584
28  0.914508 0.000002 0.000001  -0.000000 -0.000000 0.191981
29  0.914505 0.000015 0.000000  0.000000 -0.000000 0.191981
30  -0.000008 0.001561 1.908400  -1.205683 -1.447855 -1.753210
31  3.867492 -0.000004 -0.000012  -0.170015 0.508901 -0.846888
32  14.390621 -0.000003 -0.000004  -0.000003 -0.000004 -0.972132
33  11.595306 0.000000 -0.000003  -1.132705 -0.013561 0.064169
34  4.415193 -0.060755 1.931049  -0.368052 -0.111074 0.214175
35  0.923135 0.000003 0.000000  0.000000 0.000000 0.373082
36  0.923146 -0.000006 -0.000006  0.000000 0.000000 0.373082
37  4.449315 -0.067625 0.950375  -0.217393 -0.042402 0.275496
38  1.128464 -0.000006 0.000001  -0.000000 -0.000000 0.373082
39  1.128465 0.000003 0.000001  -0.000000 0.000000 0.373082
40  4.416829 -0.015219 -0.200557  -0.033340 -0.025681 0.277971
41  1.364879 -0.000006 0.000001  -0.000000 0.000000 0.373082
42  1.364871 -0.000008 -0.000001  -0.000000 -0.000000 0.373082
43  4.451070 -0.068773 -1.121660  0.282895 0.052905 0.238143
44  1.107776 0.000004 0.000002  -0.000000 -0.000000 0.373082
45  1.107771 0.000000 -0.000001  -0.000000 0.000000 0.373082
46  2.098149 0.045612 -1.805208  0.450475 0.593613 0.248438
47  0.914518 -0.000002 0.000000  -0.000000 0.000000 0.292669
48  0.914505 -0.000002 -0.000006  0.000000 -0.000000 0.292669
49  1.969137 0.000001 -0.000000  0.038075 -0.006173 0.322418
50  -3.968628 0.006723 3.450990  -0.145690 -3.088920 -0.396771
51  17.254904 -0.000002 -0.000000  0.000208 -0.000280 -0.672152
52  17.254900 0.000004 -0.000000  -0.157850 -0.018536 0.366088
53  3.968630 5.003934 0.000001  0.000000 0.000000 1.570800
time 9
0  0.469028 2.036889 36.885830  0.009438 0.064699 -1.735950
1  0.000002 0.000000 -0.000012  -0.000238 -1.570450 -1.570753
2  3.968639 -0.003570 0.000006  -0.000005 -0.000001 0.009304
3  -3.968639 0.006742 -3.450990  0.540729 2.894554 -0.233153
4  17.254910 0.000001 -0.000000  -0.000030 0.000046 -0.568256
5  17.254900 -0.000003 -0.000001  0.427729 0.106701 0.287164
6  3.968631 5.003932 -0.000000  -0.000000 -0.000000 1.570800
7  4.486291 -0.003572 -0.000000  -0.035295 -0.016534 0.059843
8  4.486293 -0.003571 -0.000000  0.038343 0.003432 0.161181
9  4.486289 -0.003575 0.000000  0.044997 0.000942 0.085066
10  4.486211 -0.001562 0.000000  0.000002 -0.000016 -0.152878
11  -0.000010 0.001573 -1.908398  0.979621 1.363770 -2.153616
12  3.867494 -0.000002 -0.000008  -0.483188 -0.657005 -0.095317
13  14.390616 -0.000001 0.000005  -0.000001 0.000007 -1.637919
14  11.595307 0.000007 -0.000006  1.250256 0.171400 0.235306
15  4.415194 -0.060754 -1.931047  0.405594 -0.013328 0.517538
16  0.923138 -0.000006 -0.000003  -0.000000 -0.000000 0.458380
17  0.923136 0.000003 -0.000001  0.000000 -0.000000 0.458380
18  4.449308 -0.067621 -0.950372  0.106601 -0.038775 0.545312
19  1.128473 0.000008 0.000001  -0.000000 0.000000 0.458380
20  1.128469 -0.000001 0.000002  -0.000000 0.000000 0.458380
21  4.416834 -0.015210 0.200562  0.042289 -0.038454 0.555492
22  1.364867 -0.000005 0.000001  0.000000 -0.000000 0.458380
23  1.364863 -0.000001 0.000000  -0.000000 -0.000000 0.458380
24  4.451064 -0.068768 1.121665  -0.294477 -0.093428 0.526000
25  1.107777 0.000009 -0.000002  -0.000000 0.000000 0.458380
26  1.107768 -0.000010 -0.000002  0.000000 0.000000 0.458380
27  2.098147 0.045614 1.805210  -0.172686 -0.634571 0.287198
28  0.914509 -0.000002 0.000001  0.000000 -0.000000 0.191981
29  0.914505 -0.000000 0.000005  0.000000 -0.000000 0.191981
30  -0.000016 0.001564 1.908400  -0.851342 -1.466266 -2.139239
31  3.867491 0.000000 0.000004  -0.018504 0.726411 -0.651853
32  14.390594 -0.000007 0.000005  -0.000004 -0.000003 -0.875241
33  11.595304 0.000000 0.000003  -1.238250 0.022886 0.116993
34  4.415195 -0.060758 1.931051  -0.365414 -0.078643 0.252188
35  0.923131 0.000000 -0.000002  0.000000 -0.000000 0.400173
36  0.923143 -0.000003 -0.000002  -0.000000 -0.000000 0.400173
37  4.449317 -0.067626 0.950377  -0.219740 -0.032441 0.322163
38  1.128466 -0.000004 0.000002  0.000000 -0.000000 0.400173
39  1.128474 0.000003 0.000001  0.000000 0.000000 0.400173
40  4.416829 -0.015222 -0.200559  -0.034505 -0.023936 0.325663
41  1.364869 -0.000009 0.000000  0.000000 -0.000000 0.400173
42  1.364857 -0.000007 0.000000  -0.000000 -0.000000 0.400173
43  4.451065 -0.068782 -1.121660  0.287005 0.042457 0.284839
44  1.107773 0.000001 0.000003  -0.000000 0.000000 0.400173
45  1.107763 -0.000003 0.000000  0.000000 -0.000000 0.400173
46  2.098144 0.045610 -1.805209  0.412190 0.597398 0.294323
47  0.914520 -0.000000 -0.000001  -0.000000 -0.000000 0.293548
48  0.914510 0.000003 -0.000003  0.000000 -0.000000 0.293547
49  1.969133 0.000001 0.000000  0.038075 -0.006173 0.322418
50  -3.968633 0.006723 3.450989  -0.138617 -3.093625 -0.325651
51  17.254900 0.000002 -0.000000  0.000187 -0.000294 -0.597993
52  17.254904 0.000001 0.000001  -0.150665 -0.020741 0.341038
53  3.968630 5.003934 0.000001  0.000000 0.000000 1.570800
time 10
0  0.376435 1.552350 37.248196  0.006980 0.047978 -1.721469
1  0.000001 -0.000000 -0.000004  -0.000251 -1.570450 -1.570811
2  3.968640 -0.003570 0.000006  -0.000005 -0.000001 0.005720
3  -3.968651 0.006744 -3.450990  0.490806 2.939134 -0.170895
4  17.254906 0.000000 0.000001  -0.000026 0.000049 -0.482245
5  17.254898 -0.000000 0.000000  0.428681 0.105717 0.263928
6  3.968630 5.003932 -0.000000  0.000000 -0.000000 1.570800
7  4.486284 -0.003572 0.000000  -0.018812 -0.014242 0.034170
8  4.486297 -0.003572 0.000000  0.038222 0.004379 0.135329
9  4.486275 -0.003572 0.000000  0.026152 0.002913 0.075245
10  4.486217 -0.001569 0.000000  0.000002 -0.000017 -0.124098
11  -0.000018 0.001573 -1.908397  0.745573 1.439247 -2.375398
12  3.867495 0.000002 0.000002  -0.715085 -0.791032 0.105562
13  14.390612 -0.000004 -0.000005  0.000001 0.000008 -1.452589
14  11.595302 -0.000000 -0.000010  1.265124 0.256032 0.339731
15  4.415197 -0.060766 -1.931052  0.405594 -0.013328 0.517538
16  0.923133 -0.000002 -0.000003  0.000000 -0.000000 0.484755
17  0.923130 0.000003 0.000006  -0.000000 0.000000 0.484755
18  4.449310 -0.067632 -0.950375  0.106601 -0.038775 0.545312
19  1.128471 0.000006 0.000000  0.000000 -0.000000 0.484755
20  1.128469 -0.000001 -0.000000  0.000000 0.000000 0.484755
21  4.416831 -0.015223 0.200560  0.042289 -0.038454 0.555492
22  1.364873 -0.000001 0.000000  -0.000000 -0.000000 0.484755
23  1.364872 -0.000002 0.000002  -0.000000 0.000000 0.484755
24  4.451071 -0.068770 1.121659  -0.295289 -0.090844 0.534497
25  1.107776 0.000007 -0.000004  0.000000 0.000000 0.484756
26  1.107772 -0.000007 0.000005  0.000000 0.000000 0.484755
27  2.098155 0.045605 1.805207  -0.180288 -0.632725 0.300036
28  0.914507 -0.000006 -0.000000  -0.000000 -0.000000 0.191981
29  0.914504 -0.000001 0.000001  0.000000 -0.000000 0.191981
30  -0.000021 0.001562 1.908400  -0.449268 -1.465998 -2.570255
31  3.867491 -0.000001 0.000002  0.162561 0.899289 -0.421701
32  14.390610 -0.000003 0.000000  -0.000004 -0.000003 -0.747571
33  11.595304 0.000000 -0.000001  -1.336479 0.058273 0.133313
34  4.415198 -0.060746 1.931050  -0.362790 -0.047450 0.287200
35  0.923135 0.000003 0.000004  -0.000000 -0.000000 0.425790
36  0.923141 -0.000005 -0.000005  -0.000000 -0.000000 0.425790
37  4.449320 -0.067618 0.950375  -0.221829 -0.022639 0.366145
38  1.128463 -0.000002 0.000000  0.000000 -0.000000 0.425790
39  1.128473 0.000004 0.000001  0.000000 -0.000000 0.425790
40  4.416833 -0.015211 -0.200559  -0.035552 -0.022130 0.370751
41  1.364870 -0.000007 -0.000002  -0.000000 -0.000000 0.425790
42  1.364861 -0.000009 0.000001  0.000000 -0.000000 0.425790
43  4.451071 -0.068769 -1.121660  0.290776 0.032190 0.328835
44  1.107773 -0.000001 -0.000001  0.000000 0.000000 0.425790
45  1.107769 0.000000 -0.000002  0.000000 -0.000000 0.425790
46  2.098146 0.045618 -1.805211  0.375882 0.600024 0.337921
47  0.914515 -0.000001 0.000003  -0.000000 0.000000 0.294379
48  0.914514 0.000004 0.000001  0.000000 -0.000000 0.294379
49  1.969133 -0.000000 -0.000000  0.038075 -0.006173 0.322418
50  -3.968629 0.006723 3.450990  -0.132192 -3.097659 -0.253508
51  17.254908 -0.000001 0.000001  0.000163 -0.000308 -0.518981
52  17.254896 0.000001 0.000000  -0.143778 -0.023249 0.314403
53  3.968630 5.003933 0.000001  0.000000 0.000000 1.570800
time 11
0  0.284729 1.067812 37.569332  0.004754 0.032859 -1.708375
1  0.000000 0.000000 -0.000006  -0.000268 -1.570450 -1.570814
2  3.968641 -0.003570 0.000006  -0.000004 -0.000001 0.003317
3  -3.968643 0.006742 -3.450990  0.381249 2.995494 -0.125813
4  17.254904 -0.000001 0.000001  -0.000022 0.000050 -0.402336
5  17.254898 -0.000001 0.000000  0.372180 0.090497 0.243225
6  3.968630 5.003932 0.000001  0.000000 -0.000000 1.570800
7  4.486285 -0.003572 0.000000  -0.003149 -0.012290 0.010712
8  4.486301 -0.003572 0.000000  0.038112 0.005398 0.110744
9  4.486291 -0.003572 0.000000  0.009979 0.004254 0.067085
10  4.486222 -0.001565 -0.000000  0.000002 -0.000017 -0.098077
11  -0.000014 0.001573 -1.908397  0.197922 1.492141 -2.913574
12  3.867497 -0.000001 -0.000008  -0.836868 -0.906657 0.278447
13  14.390601 -0.000001 -0.000001  0.000002 0.000007 -1.236253
14  11.595299 0.000004 -0.000010  1.381003 0.265741 0.377450
15  4.415195 -0.060759 -1.931051  0.405594 -0.013328 0.517538
16  0.923130 -0.000002 -0.000004  0.000000 -0.000000 0.508603
17  0.923142 0.000000 0.000001  0.000000 -0.000000 0.508603
18  4.449305 -0.067624 -0.950373  0.106601 -0.038775 0.545312
19  1.128478 0.000008 0.000002  -0.000000 0.000000 0.508603
20  1.128469 0.000001 0.000001  -0.000000 0.000000 0.508603
21  4.416831 -0.015222 0.200560  0.042289 -0.038454 0.555492
22  1.364869 -0.000005 0.000001  0.000000 -0.000000 0.508603
23  1.364869 -0.000001 0.000002  0.000000 -0.000000 0.508603
24  4.451072 -0.068765 1.121660  -0.296017 -0.088496 0.542173
25  1.107775 0.000002 -0.000003  0.000000 0.000000 0.508603
26  1.107773 -0.000009 -0.000000  0.000000 -0.000000 0.508603
27  2.098149 0.045603 1.805209  -0.187126 -0.630990 0.311614
28  0.914508 -0.000001 0.000001  0.000000 -0.000000 0.191981
29  0.914504 -0.000000 0.000006  0.000000 -0.000000 0.191981
30  -0.000007 0.001562 1.908400  -0.138381 -1.450688 -2.906460
31  3.867489 -0.000001 -0.000004  0.347494 1.009406 -0.190711
32  14.390608 -0.000002 0.000002  -0.000004 -0.000002 -0.608306
33  11.595317 0.000002 0.000005  -1.415712 0.086984 0.114597
34  4.415199 -0.060747 1.931049  -0.360331 -0.018830 0.318080
35  0.923136 0.000007 0.000002  0.000000 -0.000000 0.448952
36  0.923146 -0.000006 -0.000002  -0.000000 -0.000000 0.448952
37  4.449317 -0.067625 0.950377  -0.223597 -0.013463 0.405788
38  1.128465 -0.000004 -0.000000  -0.000000 0.000000 0.448952
39  1.128470 0.000003 0.000002  -0.000000 0.000000 0.448952
40  4.416835 -0.015212 -0.200558  -0.036448 -0.020369 0.411510
41  1.364878 -0.000008 -0.000000  0.000000 -0.000000 0.448952
42  1.364858 -0.000009 0.000002  0.000000 -0.000000 0.448952
43  4.451068 -0.068774 -1.121659  0.294079 0.022589 0.368478
44  1.107772 0.000002 0.000001  0.000000 -0.000000 0.448952
45  1.107760 -0.000002 -0.000000  0.000000 -0.000000 0.448952
46  2.098152 0.045620 -1.805208  0.342911 0.601604 0.377464
47  0.914521 0.000000 0.000001  -0.000000 0.000000 0.295130
48  0.914506 -0.000002 -0.000005  0.000000 -0.000000 0.295130
49  1.969136 0.000001 -0.000000  0.038075 -0.006173 0.322418
50  -3.968641 0.006723 3.450990  -0.126786 -3.101151 -0.181893
51  17.254900 -0.000000 0.000001  0.000137 -0.000321 -0.435251
52  17.254898 -0.000000 -0.000001  -0.137435 -0.025866 0.285190
53  3.968630 5.003933 -0.000002  0.000000 0.000000 1.570800
time 12
0  0.201021 0.622560 37.841244  0.002850 0.019983 -1.697225
1  0.000000 -0.000000 0.000007  -0.000276 -1.570450 -1.570789
2  3.968637 -0.003570 0.000006  -0.000004 -0.000001 0.001860
3  -3.968630 0.006742 -3.450990  0.243137 3.050032 -0.088638
4  17.254902 -0.000000 -0.000000  -0.000018 0.000052 -0.327983
5  17.254900 0.000000 0.000000  0.282456 0.066831 0.218151
6  3.968631 5.003933 -0.000001  -0.000000 -0.000000 1.570800
7  4.486299 -0.003572 0.000000  0.011208 -0.010640 -0.009594
8  4.486294 -0.003572 0.000000  0.038019 0.006484 0.088188
9  4.486278 -0.003571 0.000000  -0.003184 0.005099 0.060296
10  4.486222 -0.001568 0.000000  0.000001 -0.000017 -0.075918
11  0.000000 0.001573 -1.908398  -0.670889 1.495798 2.507645
12  3.867500 0.000000 -0.000005  -0.859989 -1.014977 0.400229
13  14.390627 -0.000009 0.000003  0.000004 0.000007 -0.988121
14  11.595299 -0.000005 -0.000011  1.526732 0.203293 0.334366
15  4.415188 -0.060759 -1.931050  0.405594 -0.013328 0.517538
16  0.923135 -0.000000 -0.000002  -0.000000 0.000000 0.528911
17  0.923139 0.000001 0.000002  0.000000 -0.000000 0.528911
18  4.449316 -0.067615 -0.950376  0.106601 -0.038775 0.545312
19  1.128475 0.000005 0.000002  0.000000 -0.000000 0.528911
20  1.128469 0.000000 -0.000001  -0.000000 0.000000 0.528911
21  4.416831 -0.015214 0.200558  0.042289 -0.038454 0.555492
22  1.364879 -0.000005 -0.000000  -0.000000 0.000000 0.528911
23  1.364870 -0.000003 0.000001  -0.000000 0.000000 0.528911
24  4.451066 -0.068765 1.121661  -0.296632 -0.086489 0.548705
25  1.107777 -0.000000 -0.000002  0.000000 -0.000000 0.528911
26  1.107778 -0.000004 0.000001  -0.000000 0.000000 0.528911
27  2.098146 0.045612 1.805209  -0.192923 -0.629461 0.321450
28  0.914508 -0.000001 -0.000001  -0.000000 -0.000000 0.191981
29  0.914500 -0.000001 0.000003  -0.000000 -0.000000 0.191981
30  0.000006 0.001563 1.908400  0.051888 -1.429671 -3.117653
31  3.867491 0.000001 -0.000014  0.508073 1.062428 0.005197
32  14.390615 -0.000001 0.000002  -0.000005 -0.000002 -0.497319
33  11.595298 0.000001 0.000000  -1.471198 0.104461 0.084670
34  4.415195 -0.060746 1.931049  -0.358190 0.005841 0.343798
35  0.923135 0.000004 0.000001  -0.000000 -0.000000 0.468677
36  0.923142 -0.000007 -0.000003  -0.000000 0.000000 0.468677
37  4.449311 -0.067625 0.950376  -0.225003 -0.005418 0.439455
38  1.128465 -0.000003 0.000002  -0.000000 0.000000 0.468677
39  1.128473 0.000007 -0.000000  -0.000000 0.000000 0.468677
40  4.416830 -0.015216 -0.200557  -0.037169 -0.018776 0.446214
41  1.364880 -0.000007 -0.000000  0.000000 0.000000 0.468677
42  1.364861 -0.000006 -0.000001  0.000000 -0.000000 0.468677
43  4.451068 -0.068773 -1.121658  0.296803 0.014179 0.402136
44  1.107768 0.000002 -0.000001  0.000000 0.000000 0.468677
45  1.107765 -0.000002 0.000000  -0.000000 -0.000000 0.468677
46  2.098140 0.045620 -1.805207  0.314687 0.602357 0.411196
47  0.914516 0.000002 -0.000006  -0.000000 0.000000 0.295770
48  0.914512 0.000001 -0.000007  -0.000000 -0.000000 0.295770
49  1.969151 0.000000 -0.000000  0.038075 -0.006173 0.322418
50  -3.968619 0.006723 3.450990  -0.122559 -3.104427 -0.112250
51  17.254898 0.000000 -0.000000  0.000108 -0.000332 -0.346829
52  17.254898 0.000001 -0.000000  -0.132052 -0.028353 0.252420
53  3.968630 5.003934 0.000001  0.000000 0.000000 1.570800
time 13
0  0.132425 0.255882 38.055904  0.001362 0.009991 -1.688573
1  0.000000 0.000000 -0.000006  -0.000275 -1.570450 -1.570794
2  3.968635 -0.003570 0.000006  -0.000004 -0.000001 0.001111
3  -3.968642 0.006743 -3.450989  0.106510 3.093079 -0.055073
4  17.254906 -0.000000 0.000000  -0.000015 0.000053 -0.258404
5  17.254902 0.000001 -0.000001  0.185574 0.042735 0.186042
6  3.968631 5.003932 -0.000001  -0.000000 0.000000 1.570800
7  4.486285 -0.003572 -0.000000  0.023770 -0.009254 -0.025810
8  4.486303 -0.003572 -0.000000  0.037947 0.007632 0.068420
9  4.486279 -0.003572 0.000000  -0.013003 0.005584 0.054584
10  4.486224 -0.001566 0.000000  0.000001 -0.000018 -0.058724
11  -0.000001 0.001573 -1.908397  -1.138813 1.466924 2.044235
12  3.867500 -0.000000 -0.000005  -0.816091 -1.116157 0.454056
13  14.390615 -0.000002 -0.000005  0.000005 0.000005 -0.724329
14  11.595295 0.000002 -0.000010  1.652444 0.119253 0.236988
15  4.415190 -0.060759 -1.931051  0.405594 -0.013328 0.517538
16  0.923137 -0.000002 -0.000001  -0.000000 -0.000000 0.544668
17  0.923139 0.000004 0.000003  0.000000 -0.000000 0.544668
18  4.449305 -0.067618 -0.950374  0.106601 -0.038775 0.545312
19  1.128471 0.000008 0.000002  -0.000000 0.000000 0.544668
20  1.128469 -0.000000 0.000000  -0.000000 0.000000 0.544668
21  4.416829 -0.015213 0.200559  0.042289 -0.038454 0.555492
22  1.364871 -0.000001 0.000000  -0.000000 0.000000 0.544669
23  1.364869 -0.000004 -0.000000  0.000000 0.000000 0.544668
24  4.451066 -0.068763 1.121661  -0.297107 -0.084926 0.553770
25  1.107768 0.000007 -0.000001  0.000000 0.000000 0.544668
26  1.107777 -0.000009 -0.000001  0.000000 0.000000 0.544669
27  2.098151 0.045610 1.805209  -0.197403 -0.628244 0.329066
28  0.914506 -0.000000 0.000002  -0.000000 -0.000000 0.191981
29  0.914512 -0.000002 -0.000002  0.000000 -0.000000 0.191981
30  -0.000007 0.001563 1.908400  0.158531 -1.410157 3.043056
31  3.867490 -0.000002 0.000000  0.627101 1.074915 0.143943
32  14.390606 -0.000001 -0.000000  -0.000005 -0.000002 -0.436074
33  11.595304 -0.000001 0.000000  -1.504648 0.111602 0.062505
34  4.415187 -0.060745 1.931049  -0.356508 0.025165 0.363388
35  0.923138 0.000004 0.000002  0.000000 -0.000000 0.483982
36  0.923137 -0.000007 -0.000001  0.000000 0.000000 0.483982
37  4.449307 -0.067616 0.950375  -0.226029 0.000967 0.465521
38  1.128461 -0.000004 0.000000  -0.000000 0.000000 0.483982
39  1.128475 0.000003 -0.000000  0.000000 0.000000 0.483982
40  4.416821 -0.015214 -0.200559  -0.037699 -0.017481 0.473138
41  1.364878 -0.000005 0.000001  0.000000 0.000000 0.483982
42  1.364866 -0.000013 0.000002  0.000000 0.000000 0.483982
43  4.451063 -0.068772 -1.121661  0.298856 0.007507 0.428189
44  1.107775 0.000003 0.000002  -0.000000 0.000000 0.483982
45  1.107765 -0.000003 -0.000002  0.000000 -0.000000 0.483982
46  2.098143 0.045622 -1.805209  0.292674 0.602569 0.437389
47  0.914512 0.000000 -0.000005  -0.000000 -0.000000 0.296267
48  0.914509 -0.000003 -0.000005  -0.000000 -0.000000 0.296266
49  1.969148 0.000000 -0.000000  0.038075 -0.006173 0.322418
50  -3.968640 0.006723 3.450989  -0.119737 -3.107858 -0.046313
51  17.254906 -0.000000 0.000001  0.000077 -0.000340 -0.254419
52  17.254896 0.000000 -0.000000  -0.127890 -0.030450 0.215502
53  3.968630 5.003934 -0.000000  0.000000 0.000000 1.570800
time 14
0  0.086052 0.007064 38.205353  0.000381 0.003524 -1.682975
1  0.000000 0.000000 0.000001  -0.000275 -1.570450 -1.570791
2  3.968638 -0.003570 0.000006  -0.000004 -0.000001 0.000835
3  -3.968638 0.006742 -3.450989  0.001832 3.119101 -0.025466
4  17.254904 -0.000000 -0.000001  -0.000011 0.000054 -0.196176
5  17.254904 -0.000000 0.000001  0.108074 0.025274 0.151673
6  3.968630 5.003931 -0.000002  0.000000 0.000000 1.570800
7  4.486287 -0.003572 0.000000  0.034050 -0.008093 -0.036998
8  4.486290 -0.003572 0.000000  0.037900 0.008836 0.052201
9  4.486278 -0.003572 -0.000000  -0.019140 0.005845 0.049660
10  4.486224 -0.001566 0.000000  0.000001 -0.000018 -0.047598
11  -0.000005 0.001573 -1.908398  -1.311208 1.441488 1.874387
12  3.867500 0.000000 -0.000000  -0.723541 -1.198541 0.435779
13  14.390605 0.000002 -0.000002  0.000006 0.000004 -0.481394
14  11.595309 0.000001 -0.000010  1.737212 0.048214 0.124257
15  4.415194 -0.060756 -1.931051  0.405594 -0.013328 0.517538
16  0.923141 -0.000001 -0.000001  -0.000000 -0.000000 0.554865
17  0.923138 0.000001 0.000003  0.000000 0.000000 0.554865
18  4.449305 -0.067622 -0.950374  0.106601 -0.038775 0.545312
19  1.128475 0.000005 0.000002  0.000000 0.000000 0.554865
20  1.128476 -0.000001 0.000000  -0.000000 0.000000 0.554865
21  4.416831 -0.015214 0.200559  0.042289 -0.038454 0.555492
22  1.364866 -0.000004 -0.000001  -0.000000 -0.000000 0.554865
23  1.364866 0.000002 -0.000001  0.000000 -0.000000 0.554865
24  4.451071 -0.068766 1.121661  -0.297412 -0.083913 0.557047
25  1.107775 0.000007 -0.000002  -0.000000 0.000000 0.554865
26  1.107773 -0.000011 -0.000000  0.000000 0.000000 0.554865
27  2.098149 0.045607 1.805208  -0.200293 -0.627441 0.333988
28  0.914512 -0.000001 -0.000001  -0.000000 -0.000000 0.191981
29  0.914505 -0.000001 0.000006  -0.000000 -0.000000 0.191981
30  -0.000011 0.001563 1.908399  0.212745 -1.396511 2.978784
31  3.867493 -0.000003 -0.000010  0.699963 1.069308 0.221288
32  14.390607 -0.000001 0.000002  -0.000005 -0.000002 -0.410890
33  11.595305 -0.000002 -0.000001  -1.521128 0.113644 0.050482
34  4.415187 -0.060748 1.931050  -0.355414 0.037751 0.375894
35  0.923140 0.000004 0.000001  -0.000000 0.000000 0.493885
36  0.923143 -0.000005 -0.000004  -0.000000 0.000000 0.493885
37  4.449310 -0.067618 0.950375  -0.226660 0.005164 0.482361
38  1.128465 -0.000005 0.000000  -0.000000 -0.000000 0.493885
39  1.128472 0.000004 -0.000000  -0.000000 -0.000000 0.493885
40  4.416826 -0.015219 -0.200559  -0.038029 -0.016616 0.490557
41  1.364874 -0.000006 0.000000  0.000000 0.000000 0.493885
42  1.364864 -0.000005 -0.000000  0.000000 0.000000 0.493885
43  4.451067 -0.068774 -1.121659  0.300156 0.003123 0.445017
44  1.107774 0.000001 0.000002  0.000000 -0.000000 0.493885
45  1.107767 -0.000004 -0.000000  0.000000 -0.000000 0.493885
46  2.098145 0.045620 -1.805210  0.278370 0.602534 0.454340
47  0.914520 0.000000 0.000002  -0.000000 0.000000 0.296588
48  0.914509 -0.000002 0.000000  -0.000000 -0.000000 0.296588
49  1.969143 -0.000000 0.000000  0.038075 -0.006173 0.322418
50  -3.968620 0.006723 3.450989  -0.118444 -3.111792 0.013293
51  17.254902 0.000000 -0.000000  0.000045 -0.000346 -0.160569
52  17.254900 0.000002 0.000001  -0.125205 -0.031888 0.174791
53  3.968630 5.003933 -0.000002  0.000000 0.000000 1.570800
time 15
0  0.069014 -0.084605 38.281570  0.000000 0.001222 -1.680985
1  0.000000 -0.000000 -0.000002  -0.000274 -1.570450 -1.570790
2  3.968628 -0.003570 0.000006  -0.000004 -0.000001 0.000796
3  -3.968621 0.006743 -3.450990  -0.039812 3.127162 -0.004452
4  17.254910 -0.000000 -0.000001  -0.000009 0.000054 -0.152167
5  17.254904 0.000001 -0.000000  0.076365 0.018751 0.127130
6  3.968630 5.003932 -0.000000  0.000000 0.000000 1.570800
7  4.486291 -0.003572 0.000000  0.041563 -0.007119 -0.042222
8  4.486294 -0.003572 0.000000  0.037883 0.010091 0.040292
9  4.486284 -0.003572 0.000000  -0.021261 0.006016 0.045230
10  4.486217 -0.001566 -0.000000  0.000001 -0.000018 -0.043644
11  0.000003 0.001573 -1.908398  -1.357235 1.431814 1.829192
12  3.867496 0.000001 -0.000004  -0.673732 -1.233201 0.426824
13  14.390607 -0.000003 -0.000001  0.000007 0.000003 -0.355493
14  11.595305 -0.000000 -0.000015  1.782470 0.004908 0.059373
15  4.415190 -0.060756 -1.931050  0.405594 -0.013328 0.517538
16  0.923133 -0.000001 -0.000003  -0.000000 0.000000 0.558488
17  0.923136 0.000004 0.000002  0.000000 0.000000 0.558488
18  4.449308 -0.067621 -0.950375  0.106601 -0.038775 0.545312
19  1.128474 0.000005 0.000001  0.000000 0.000000 0.558488
20  1.128463 0.000000 -0.000000  -0.000000 0.000000 0.558488
21  4.416831 -0.015215 0.200559  0.042289 -0.038454 0.555492
22  1.364871 0.000000 0.000000  -0.000000 0.000000 0.558488
23  1.364870 -0.000005 0.000000  0.000000 -0.000000 0.558488
24  4.451069 -0.068767 1.121661  -0.297520 -0.083552 0.558211
25  1.107772 0.000004 -0.000002  -0.000000 -0.000000 0.558488
26  1.107780 -0.000015 0.000000  0.000000 0.000000 0.558488
27  2.098153 0.045612 1.805209  -0.201319 -0.627153 0.335735
28  0.914508 -0.000002 -0.000006  -0.000000 -0.000000 0.191981
29  0.914510 0.000000 0.000007  0.000000 -0.000000 0.191981
30  -0.000012 0.001563 1.908400  0.229695 -1.391509 2.958295
31  3.867490 -0.000002 0.000002  0.735063 1.065304 0.249958
32  14.390606 -0.000001 -0.000000  -0.000005 -0.000001 -0.400057
33  11.595305 0.000001 -0.000000  -1.526611 0.115883 0.046657
34  4.415186 -0.060751 1.931050  -0.355025 0.042238 0.380306
35  0.923142 0.000005 -0.000001  0.000000 -0.000000 0.497404
36  0.923140 -0.000003 -0.000003  -0.000000 -0.000000 0.497404
37  4.449314 -0.067626 0.950376  -0.226878 0.006668 0.488340
38  1.128467 -0.000002 0.000000  -0.000000 0.000000 0.497404
39  1.128472 0.000001 0.000000  0.000000 -0.000000 0.497404
40  4.416823 -0.015219 -0.200558  -0.038143 -0.016304 0.496747
41  1.364877 -0.000007 0.000000  -0.000000 0.000000 0.497404
42  1.364861 -0.000008 0.000000  0.000000 0.000000 0.497404
43  4.451072 -0.068773 -1.121658  0.300612 0.001553 0.450992
44  1.107776 0.000003 0.000001  -0.000000 0.000000 0.497404
45  1.107766 -0.000002 -0.000002  -0.000000 0.000000 0.497404
46  2.098148 0.045617 -1.805209  0.273275 0.602489 0.460363
47  0.914515 0.000001 -0.000003  -0.000000 -0.000000 0.296702
48  0.914506 0.000000 0.000000  0.000000 -0.000000 0.296702
49  1.969148 0.000000 0.000000  0.038075 -0.006173 0.322418
50  -3.968624 0.006723 3.450990  -0.118587 -3.115847 0.057525
51  17.254908 -0.000000 -0.000001  0.000017 -0.000348 -0.080719
52  17.254898 -0.000000 -0.000001  -0.124253 -0.032399 0.137080
53  3.968630 5.003934 0.000000  0.000000 0.000000 1.570800
end
