version 1
nodes
0 "Bip01" -1
1 "Bip01 Pelvis" 0
2 "Bip01 Spine" 1
3 "Bip01 R Thigh" 2
4 "Bip01 R Calf" 3
5 "Bip01 R Foot" 4
6 "Bip01 R Toe0" 5
7 "Bip01 Spine1" 2
8 "Bip01 Spine2" 7
9 "Bip01 Spine3" 8
10 "Bip01 Neck" 9
11 "Bip01 R Clavicle" 10
12 "Bip01 R UpperArm" 11
13 "Bip01 R Forearm" 12
14 "Bip01 R Hand" 13
15 "Bip01 R Finger4" 14
16 "Bip01 R Finger41" 15
17 "Bip01 R Finger42" 16
18 "Bip01 R Finger3" 14
19 "Bip01 R Finger31" 18
20 "Bip01 R Finger32" 19
21 "Bip01 R Finger2" 14
22 "Bip01 R Finger21" 21
23 "Bip01 R Finger22" 22
24 "Bip01 R Finger1" 14
25 "Bip01 R Finger11" 24
26 "Bip01 R Finger12" 25
27 "Bip01 R Finger0" 14
28 "Bip01 R Finger01" 27
29 "Bip01 R Finger02" 28
30 "ValveBiped.Bip01_R_Hand" 14
31 "Bip01 L Clavicle" 10
32 "Bip01 L UpperArm" 31
33 "Bip01 L Forearm" 32
34 "Bip01 L Hand" 33
35 "Bip01 L Finger4" 34
36 "Bip01 L Finger41" 35
37 "Bip01 L Finger42" 36
38 "Bip01 L Finger3" 34
39 "Bip01 L Finger31" 38
40 "Bip01 L Finger32" 39
41 "Bip01 L Finger2" 34
42 "Bip01 L Finger21" 41
43 "Bip01 L Finger22" 42
44 "Bip01 L Finger1" 34
45 "Bip01 L Finger11" 44
46 "Bip01 L Finger12" 45
47 "Bip01 L Finger0" 34
48 "Bip01 L Finger01" 47
49 "Bip01 L Finger02" 48
50 "Bip01 Head" 10
51 "Bip01 L Thigh" 2
52 "Bip01 L Calf" 51
53 "Bip01 L Foot" 52
54 "Bip01 L Toe0" 53
end
skeleton
time 0
0  0.084605 -3.563910 38.359699  0.007928 0.114887 -1.894814
1  0.000000 -0.000000 0.000003  0.000002 -1.583369 -1.570797
2  3.968650 -0.003571 0.000006  -0.001282 0.009756 -0.085606
3  -3.968392 0.006761 -3.451274  0.095219 2.970292 -0.275027
4  17.254906 -0.000041 -0.000989  -0.000000 0.000001 -0.811909
5  17.254919 0.000042 0.000454  -0.024681 0.136886 0.549052
6  3.968601 5.003961 -0.000009  -0.000000 0.000000 1.570796
7  4.486279 -0.003593 0.000320  0.049502 0.017708 -0.041484
8  4.486289 -0.003593 0.000320  0.040693 -0.015387 0.535261
9  4.486280 -0.003593 0.000319  -0.026296 0.008815 0.228323
10  4.486209 -0.001583 0.000319  -0.000000 -0.000001 0.567397
11  0.000001 0.001569 -1.908401  1.210369 1.077055 -2.340896
12  3.867484 -0.000005 0.000003  0.156969 -0.942580 -0.909535
13  14.390589 -0.000030 0.000008  0.000005 -0.000002 -2.131713
14  11.595288 0.000026 0.000022  1.857196 -0.031916 1.063899
15  4.415179 -0.060703 -1.931072  0.227367 0.278701 0.697118
16  0.923136 -0.000009 -0.000001  0.000000 -0.000000 0.654494
17  0.923141 -0.000007 0.000002  -0.000000 -0.000000 1.038440
18  4.449307 -0.067572 -0.950398  0.071459 0.259541 0.680320
19  1.128473 -0.000000 0.000004  0.000000 0.000000 0.654480
20  1.128471 -0.000006 0.000002  0.000000 -0.000000 1.326410
21  4.416833 -0.015164 0.200539  0.000652 0.270029 0.665124
22  1.364872 -0.000002 0.000004  -0.000000 0.000000 0.654494
23  1.364870 0.000001 0.000000  0.000000 0.000000 1.579475
24  4.451075 -0.068718 1.121642  -0.041061 -0.100302 0.220080
25  1.107767 -0.000001 0.000009  0.000000 -0.000000 0.069801
26  1.107768 -0.000005 0.000008  0.000000 -0.000000 0.191970
27  2.098159 0.045633 1.805201  -2.032808 -0.211087 1.119208
28  0.914513 0.000005 -0.000007  -0.000000 0.000000 0.366503
29  0.914510 0.000005 -0.000003  0.000000 -0.000000 0.357788
30  -0.162432 0.426975 0.618806  -3.119507 0.026820 0.000317
31  -0.000002 0.001562 1.908402  0.778643 -1.038023 1.835352
32  3.867484 -0.000001 -0.000015  -0.149182 0.522128 -0.865532
33  14.390603 0.000059 -0.000005  0.000000 -0.000001 -1.078109
34  11.595304 0.000089 -0.000019  -2.631011 -0.037558 0.140837
35  4.415173 -0.060699 1.931086  -0.306597 0.077733 0.977830
36  0.923138 0.000003 0.000000  0.000000 0.000000 1.020987
37  0.923139 0.000001 0.000001  -0.000000 0.000000 1.021001
38  4.449304 -0.067572 0.950411  -0.095344 -0.063664 1.034875
39  1.128471 0.000000 0.000004  -0.000000 -0.000000 1.020988
40  1.128468 -0.000001 0.000002  0.000000 -0.000000 1.021001
41  4.416830 -0.015163 -0.200528  -0.000412 0.000679 1.031470
42  1.364869 -0.000003 0.000007  -0.000000 0.000000 1.020988
43  1.364861 0.000005 0.000000  0.000000 0.000000 1.021001
44  4.451083 -0.068713 -1.121631  0.164310 -0.056121 1.013838
45  1.107770 0.000009 0.000002  0.000000 -0.000000 1.021001
46  1.107778 -0.000001 -0.000000  -0.000000 -0.000000 1.021001
47  2.098161 0.045638 -1.805197  2.175386 -0.117304 0.957843
48  0.914511 0.000013 0.000010  -0.000000 0.000000 0.776647
49  0.914512 0.000008 0.000005  0.000000 -0.000000 0.305427
50  1.969135 0.000008 -0.000000  0.117108 -0.087952 -0.049658
51  -3.968883 0.006742 3.450710  -0.229852 -2.871939 -0.526901
52  17.254908 -0.000123 0.002806  -0.000001 -0.000000 -0.733349
53  17.254904 0.000125 -0.001284  -0.096244 -0.124290 0.182679
54  3.968613 5.003950 0.000005  -0.000000 -0.000000 1.570796
time 1
0  0.084605 -3.563910 38.359699  0.007928 0.114887 -1.894825
1  -0.000000 -0.000000 0.000001  0.000003 -1.584060 -1.570795
2  3.968640 -0.003569 0.000006  -0.001350 0.010315 -0.085606
3  -3.968382 0.006762 -3.451274  0.095984 2.970177 -0.274824
4  17.254906 -0.000041 -0.000987  -0.000000 0.000001 -0.811522
5  17.254917 0.000043 0.000454  -0.025435 0.136954 0.548734
6  3.968602 5.003961 -0.000009  -0.000000 0.000000 1.570796
7  4.486287 -0.003593 0.000319  0.050149 0.018311 -0.040269
8  4.486281 -0.003592 0.000320  0.042710 0.008419 -0.020419
9  4.486288 -0.003593 0.000319  -0.025743 0.006767 0.227954
10  4.486217 -0.001588 0.000319  -0.000000 -0.000001 0.438886
11  0.000002 0.001571 -1.908400  -2.468453 2.142193 0.068241
12  3.867482 -0.000003 0.000002  0.289970 -0.776303 -0.993109
13  14.390591 -0.000032 0.000007  0.000004 -0.000002 -2.108586
14  11.595288 0.000026 0.000022  1.882037 0.133155 0.291793
15  4.415183 -0.060703 -1.931068  0.227367 0.278701 0.697118
16  0.923138 -0.000004 -0.000004  0.000000 -0.000000 0.654494
17  0.923141 -0.000009 0.000003  0.000000 -0.000000 1.038440
18  4.449307 -0.067572 -0.950393  0.071459 0.259541 0.680320
19  1.128470 0.000002 0.000006  -0.000000 -0.000000 0.654480
20  1.128470 -0.000003 0.000003  0.000000 -0.000000 1.326410
21  4.416832 -0.015165 0.200542  0.000652 0.270029 0.665124
22  1.364874 0.000000 0.000003  0.000000 0.000000 0.654494
23  1.364871 -0.000001 0.000005  0.000000 -0.000000 1.579475
24  4.451079 -0.068718 1.121644  -0.041061 -0.100302 0.220080
25  1.107776 0.000001 0.000009  -0.000000 0.000000 0.069801
26  1.107770 -0.000007 0.000002  -0.000000 -0.000000 0.191970
27  2.098158 0.045632 1.805201  -2.032808 -0.211087 1.119208
28  0.914514 0.000001 -0.000010  0.000000 -0.000000 0.366503
29  0.914510 0.000004 0.000002  -0.000000 -0.000000 0.357788
30  -0.162428 0.426975 0.618810  -3.119507 0.026820 0.000317
31  -0.000000 0.001562 1.908402  1.205263 -1.325509 0.987155
32  3.867486 0.000003 -0.000003  -0.276629 0.113717 -1.063066
33  14.390606 0.000058 -0.000005  0.000001 -0.000001 -1.424921
34  11.595303 0.000092 -0.000019  -2.412636 -0.142909 0.368193
35  4.415175 -0.060709 1.931076  -0.306597 0.077733 0.977830
36  0.923137 0.000005 -0.000003  0.000000 0.000000 1.020987
37  0.923141 0.000001 -0.000009  -0.000000 -0.000000 1.021001
38  4.449302 -0.067579 0.950404  -0.095344 -0.063664 1.034875
39  1.128470 -0.000003 0.000002  -0.000000 0.000000 1.020988
40  1.128477 -0.000001 -0.000004  0.000000 -0.000000 1.021001
41  4.416830 -0.015170 -0.200531  -0.000412 0.000679 1.031470
42  1.364869 0.000002 0.000006  0.000000 0.000000 1.020988
43  1.364846 0.000004 0.000003  0.000000 0.000000 1.021001
44  4.451080 -0.068720 -1.121636  0.164310 -0.056121 1.013838
45  1.107769 0.000005 0.000001  0.000000 0.000000 1.021001
46  1.107769 -0.000002 0.000006  0.000000 0.000000 1.021001
47  2.098159 0.045632 -1.805204  2.175386 -0.117304 0.957843
48  0.914510 0.000008 0.000013  -0.000000 0.000000 0.776647
49  0.914510 0.000008 0.000007  -0.000000 -0.000000 0.305427
50  1.969136 0.000010 -0.000000  0.137475 0.005786 -0.780403
51  -3.968871 0.006742 3.450709  -0.228696 -2.872111 -0.527200
52  17.254908 -0.000124 0.002806  -0.000001 0.000000 -0.733738
53  17.254902 0.000123 -0.001285  -0.097302 -0.124532 0.182999
54  3.968614 5.003951 0.000005  -0.000000 0.000000 1.570796
time 2
0  0.084605 -3.563910 38.359699  0.007928 0.114887 -1.894840
1  0.000000 0.000000 0.000006  0.000003 -1.584757 -1.570797
2  3.968641 -0.003570 0.000006  -0.001419 0.010878 -0.085607
3  -3.968383 0.006761 -3.451274  0.096765 2.970058 -0.274617
4  17.254900 -0.000041 -0.000988  -0.000000 0.000001 -0.811130
5  17.254915 0.000041 0.000455  -0.026206 0.137024 0.548411
6  3.968602 5.003961 -0.000008  -0.000000 0.000000 1.570796
7  4.486287 -0.003593 0.000319  0.050801 0.018919 -0.039044
8  4.486285 -0.003593 0.000319  0.042735 -0.001934 0.219972
9  4.486286 -0.003593 0.000320  -0.025185 0.004703 0.227583
10  4.486214 -0.001586 0.000320  -0.000000 -0.000001 0.567397
11  -0.000003 0.001576 -1.908400  0.863722 1.059770 -2.701546
12  3.867482 0.000000 0.000006  0.069137 -0.850936 -0.766647
13  14.390601 -0.000030 0.000010  0.000004 -0.000002 -2.139878
14  11.595288 0.000021 0.000022  1.844857 0.096006 0.450772
15  4.415177 -0.060704 -1.931072  0.227367 0.278701 0.697118
16  0.923136 -0.000003 0.000003  -0.000000 -0.000000 0.654494
17  0.923141 -0.000005 -0.000007  0.000000 0.000000 1.038440
18  4.449305 -0.067572 -0.950400  0.071459 0.259541 0.680320
19  1.128471 0.000001 0.000004  0.000000 0.000000 0.654480
20  1.128468 -0.000003 0.000002  0.000000 -0.000000 1.326410
21  4.416830 -0.015165 0.200539  0.000652 0.270029 0.665124
22  1.364872 0.000002 0.000001  -0.000000 -0.000000 0.654494
23  1.364871 0.000002 0.000001  0.000000 -0.000000 1.579475
24  4.451073 -0.068718 1.121636  -0.041061 -0.100302 0.220080
25  1.107769 0.000001 0.000002  0.000000 -0.000000 0.069801
26  1.107773 -0.000007 -0.000000  0.000000 0.000000 0.191970
27  2.098157 0.045632 1.805200  -2.032808 -0.211087 1.119208
28  0.914511 0.000005 -0.000008  0.000000 0.000000 0.366503
29  0.914510 0.000003 -0.000002  0.000000 0.000000 0.357788
30  -0.162432 0.426975 0.618802  -3.119507 0.026820 0.000317
31  -0.000008 0.001566 1.908402  0.824274 -1.253844 1.622231
32  3.867486 0.000002 -0.000005  -0.190363 0.364542 -0.981332
33  14.390609 0.000056 -0.000011  0.000000 -0.000001 -1.368220
34  11.595303 0.000087 -0.000014  -2.451646 -0.201507 0.274550
35  4.415173 -0.060698 1.931089  -0.306597 0.077733 0.977830
36  0.923136 0.000003 -0.000004  0.000000 0.000000 1.020987
37  0.923135 0.000000 0.000002  0.000000 0.000000 1.021001
38  4.449303 -0.067572 0.950409  -0.095344 -0.063664 1.034875
39  1.128470 -0.000002 0.000002  -0.000000 -0.000000 1.020988
40  1.128476 0.000000 0.000004  0.000000 -0.000000 1.021001
41  4.416832 -0.015165 -0.200523  -0.000412 0.000679 1.031470
42  1.364871 -0.000004 0.000003  -0.000000 0.000000 1.020988
43  1.364858 0.000005 0.000003  0.000000 0.000000 1.021001
44  4.451082 -0.068713 -1.121622  0.164310 -0.056121 1.013838
45  1.107770 0.000009 0.000011  0.000000 0.000000 1.021001
46  1.107774 0.000002 -0.000000  0.000000 0.000000 1.021001
47  2.098158 0.045639 -1.805196  2.175386 -0.117304 0.957843
48  0.914511 0.000011 0.000005  0.000000 -0.000000 0.776647
49  0.914507 0.000007 0.000006  -0.000000 0.000000 0.305427
50  1.969130 0.000010 0.000000  0.254463 0.001173 -0.406528
51  -3.968871 0.006741 3.450710  -0.227535 -2.872289 -0.527483
52  17.254910 -0.000127 0.002805  -0.000001 -0.000000 -0.734090
53  17.254906 0.000125 -0.001284  -0.098369 -0.124776 0.183299
54  3.968613 5.003950 0.000005  -0.000000 0.000000 1.570796
end
