version 1
nodes
0 "Bip01" -1
1 "Bip01 Pelvis" 0
2 "Bip01 Spine" 1
3 "Bip01 R Thigh" 2
4 "Bip01 R Calf" 3
5 "Bip01 R Foot" 4
6 "Bip01 R Toe0" 5
7 "Bip01 Spine1" 2
8 "Bip01 Spine2" 7
9 "Bip01 Spine3" 8
10 "Bip01 Neck" 9
11 "Bip01 R Clavicle" 10
12 "Bip01 R UpperArm" 11
13 "Bip01 R Forearm" 12
14 "Bip01 R Hand" 13
15 "Bip01 R Finger4" 14
16 "Bip01 R Finger41" 15
17 "Bip01 R Finger42" 16
18 "Bip01 R Finger3" 14
19 "Bip01 R Finger31" 18
20 "Bip01 R Finger32" 19
21 "Bip01 R Finger2" 14
22 "Bip01 R Finger21" 21
23 "Bip01 R Finger22" 22
24 "Bip01 R Finger1" 14
25 "Bip01 R Finger11" 24
26 "Bip01 R Finger12" 25
27 "Bip01 R Finger0" 14
28 "Bip01 R Finger01" 27
29 "Bip01 R Finger02" 28
30 "Bip01 L Clavicle" 10
31 "Bip01 L UpperArm" 30
32 "Bip01 L Forearm" 31
33 "Bip01 L Hand" 32
34 "Bip01 L Finger4" 33
35 "Bip01 L Finger41" 34
36 "Bip01 L Finger42" 35
37 "Bip01 L Finger3" 33
38 "Bip01 L Finger31" 37
39 "Bip01 L Finger32" 38
40 "Bip01 L Finger2" 33
41 "Bip01 L Finger21" 40
42 "Bip01 L Finger22" 41
43 "Bip01 L Finger1" 33
44 "Bip01 L Finger11" 43
45 "Bip01 L Finger12" 44
46 "Bip01 L Finger0" 33
47 "Bip01 L Finger01" 46
48 "Bip01 L Finger02" 47
49 "Bip01 Head" 10
50 "Bip01 L Thigh" 2
51 "Bip01 L Calf" 50
52 "Bip01 L Foot" 51
53 "Bip01 L Toe0" 52
end
skeleton
time 0
0  -1.651683 1.618985 35.795822  0.007928 0.114887 -1.894840
1  0.000000 -0.000000 0.000001  0.000047 -1.568569 -1.570786
2  3.968642 -0.003571 0.000006  0.000176 -0.002207 -0.085597
3  -3.968954 0.006762 -3.450627  0.080101 2.972306 -0.279511
4  17.254906 -0.000059 -0.001232  0.000001 0.000001 -0.820673
5  17.254902 0.000077 -0.000286  -0.009899 0.135556 0.555939
6  3.968627 5.003940 0.000001  -0.000000 0.000000 1.570796
7  4.486275 -0.003594 -0.000411  0.035642 0.004794 -0.067498
8  4.486285 -0.003594 -0.000411  0.042713 -0.001934 0.219972
9  4.486288 -0.003594 -0.000412  -0.038147 0.052659 0.236203
10  4.486212 -0.001586 -0.000412  0.000000 -0.000001 0.576256
11  0.000003 0.001568 -1.908399  1.230664 1.008096 -2.291637
12  3.867486 -0.000003 0.000005  0.471088 -1.045275 -1.215682
13  14.390599 -0.000077 0.000007  0.000001 -0.000004 -1.995585
14  11.595294 0.000028 0.000018  1.709041 -0.043035 0.356588
15  4.415179 -0.060722 -1.931073  0.227367 0.278701 0.697118
16  0.923136 0.000000 -0.000005  -0.000000 -0.000000 0.654494
17  0.923139 0.000008 0.000001  -0.000000 0.000000 1.038440
18  4.449305 -0.067592 -0.950395  0.071459 0.259541 0.680320
19  1.128472 0.000009 -0.000009  0.000000 -0.000000 0.654480
20  1.128473 0.000004 -0.000004  -0.000000 -0.000000 1.326410
21  4.416830 -0.015187 0.200538  0.000652 0.270029 0.665124
22  1.364874 0.000007 -0.000006  -0.000000 -0.000000 0.654494
23  1.364868 0.000006 -0.000005  -0.000000 -0.000000 1.579475
24  4.451078 -0.068741 1.121637  -0.041061 -0.100302 0.220080
25  1.107771 0.000008 -0.000003  0.000000 -0.000000 0.069801
26  1.107770 0.000001 -0.000001  0.000000 0.000000 0.191970
27  2.098160 0.045626 1.805199  -2.032808 -0.211087 1.119208
28  0.914511 -0.000003 -0.000006  -0.000000 0.000000 0.366503
29  0.914511 0.000007 -0.000001  0.000000 -0.000000 0.357788
30  -0.000004 0.001564 1.908401  -0.209458 -1.291767 2.687387
31  3.867488 0.000004 -0.000003  -0.598494 0.495218 -1.444615
32  14.390592 -0.000011 -0.000008  -0.000001 -0.000002 -1.090043
33  11.595297 0.000084 -0.000009  -2.108910 -0.005663 0.091105
34  4.415174 -0.060701 1.931086  -0.306597 0.077733 0.977830
35  0.923136 0.000004 0.000009  -0.000000 0.000000 1.020987
36  0.923141 0.000003 -0.000001  0.000000 -0.000000 1.021001
37  4.449304 -0.067571 0.950412  -0.095344 -0.063664 1.034875
38  1.128469 0.000005 0.000008  0.000000 0.000000 1.020988
39  1.128471 0.000007 0.000010  -0.000000 -0.000000 1.021001
40  4.416832 -0.015165 -0.200522  -0.000412 0.000679 1.031470
41  1.364867 -0.000005 0.000004  -0.000000 -0.000000 1.020988
42  1.364860 0.000003 0.000001  0.000000 -0.000000 1.021001
43  4.451079 -0.068716 -1.121627  0.164310 -0.056121 1.013838
44  1.107769 0.000008 0.000002  0.000000 -0.000000 1.018905
45  1.107769 0.000000 -0.000007  -0.000000 -0.000000 1.018904
46  2.098164 0.045638 -1.805195  2.175386 -0.117304 0.957843
47  0.914511 0.000009 0.000005  -0.000000 -0.000000 0.776647
48  0.914515 0.000004 0.000003  0.000000 0.000000 0.305427
49  1.969138 0.000015 0.000002  0.254463 0.001173 -0.406528
50  -3.968323 0.006743 3.451355  -0.255190 -2.868356 -0.519928
51  17.254908 -0.000139 0.002750  0.000000 0.000002 -0.723989
52  17.254902 -0.000003 -0.001044  -0.073179 -0.118996 0.175263
53  3.968622 5.003942 0.000007  -0.000000 -0.000000 1.570796
time 1
0  -1.651683 1.618985 35.795822  0.007928 0.114887 -1.894840
1  0.000000 -0.000000 0.000001  0.000047 -1.568569 -1.570786
2  3.968642 -0.003571 0.000006  -0.001238 -0.002689 -0.084570
3  -3.968954 0.006762 -3.450627  0.079524 2.973084 -0.281177
4  17.254902 -0.000058 -0.001233  0.000001 0.000001 -0.821060
5  17.254904 0.000075 -0.000287  -0.010621 0.135416 0.555767
6  3.968626 5.003938 0.000002  -0.000000 -0.000000 1.570796
7  4.486281 -0.003594 -0.000411  0.035642 0.004794 -0.067498
8  4.486282 -0.003594 -0.000411  0.040601 -0.000748 0.218880
9  4.486285 -0.003594 -0.000411  -0.038147 0.052659 0.236203
10  4.486217 -0.001590 -0.000410  0.000000 -0.000001 0.576256
11  0.000004 0.001573 -1.908400  1.220091 1.008657 -2.304263
12  3.867487 -0.000001 -0.000004  0.465168 -1.041965 -1.207165
13  14.390596 -0.000076 0.000009  0.000001 -0.000004 -1.997430
14  11.595294 0.000036 0.000016  1.710654 -0.046333 0.338414
15  4.415181 -0.060722 -1.931073  0.227367 0.278701 0.697118
16  0.923137 0.000002 -0.000004  -0.000000 -0.000000 0.654494
17  0.923137 0.000005 0.000003  -0.000000 0.000000 1.038440
18  4.449305 -0.067592 -0.950397  0.071459 0.259541 0.680320
19  1.128474 0.000009 -0.000000  0.000000 -0.000000 0.654480
20  1.128471 0.000003 -0.000004  -0.000000 -0.000000 1.326410
21  4.416830 -0.015187 0.200538  0.000652 0.270029 0.665124
22  1.364872 0.000006 -0.000003  -0.000000 -0.000000 0.654494
23  1.364869 0.000005 -0.000007  -0.000000 0.000000 1.579475
24  4.451077 -0.068740 1.121641  -0.041061 -0.100302 0.220080
25  1.107771 0.000009 -0.000003  0.000000 -0.000000 0.069801
26  1.107769 -0.000000 0.000002  0.000000 0.000000 0.191970
27  2.098159 0.045626 1.805206  -2.032808 -0.211087 1.119208
28  0.914511 -0.000000 -0.000002  -0.000000 0.000000 0.366503
29  0.914512 0.000009 -0.000000  -0.000000 -0.000000 0.357788
30  -0.000001 0.001564 1.908401  -0.251164 -1.266467 2.752543
31  3.867488 0.000004 -0.000003  -0.619189 0.521160 -1.468812
32  14.390599 -0.000003 -0.000006  -0.000001 -0.000002 -1.176795
33  11.595299 0.000082 -0.000010  -2.052139 -0.061083 0.079898
34  4.415173 -0.060701 1.931085  -0.306597 0.077733 0.977830
35  0.923135 0.000003 0.000009  -0.000000 -0.000000 1.020987
36  0.923138 0.000000 0.000005  0.000000 0.000000 1.021001
37  4.449303 -0.067573 0.950411  -0.095344 -0.063664 1.034875
38  1.128471 0.000011 0.000006  0.000000 -0.000000 1.020988
39  1.128470 0.000009 0.000011  -0.000000 -0.000000 1.021001
40  4.416831 -0.015165 -0.200524  -0.000412 0.000679 1.031470
41  1.364867 -0.000002 0.000002  -0.000000 0.000000 1.020988
42  1.364858 0.000003 0.000002  0.000000 -0.000000 1.021001
43  4.451079 -0.068717 -1.121627  0.164310 -0.056121 1.013838
44  1.107769 0.000006 0.000013  0.000000 -0.000000 1.018773
45  1.107769 0.000001 0.000005  -0.000000 -0.000000 1.018771
46  2.098164 0.045637 -1.805195  2.175386 -0.117304 0.957843
47  0.914512 0.000004 0.000007  0.000000 -0.000000 0.776647
48  0.914512 0.000000 0.000000  0.000000 0.000000 0.305427
49  1.969138 0.000020 0.000001  0.252715 0.002896 -0.408917
50  -3.968321 0.006743 3.451355  -0.255238 -2.867219 -0.521043
51  17.254906 -0.000137 0.002749  -0.000000 0.000002 -0.724672
52  17.254902 -0.000003 -0.001045  -0.073968 -0.119382 0.175695
53  3.968622 5.003942 0.000007  -0.000000 -0.000000 1.570796
time 2
0  -1.651683 1.618985 35.795822  0.007928 0.114887 -1.894840
1  0.000000 -0.000000 0.000001  0.000047 -1.568569 -1.570786
2  3.968642 -0.003571 0.000006  -0.011135 -0.006062 -0.077383
3  -3.968951 0.006762 -3.450627  0.075483 2.978534 -0.292838
4  17.254906 -0.000057 -0.001231  0.000001 0.000001 -0.823575
5  17.254906 0.000077 -0.000286  -0.015673 0.134433 0.554564
6  3.968627 5.003938 0.000002  -0.000000 0.000000 1.570796
7  4.486283 -0.003594 -0.000411  0.035642 0.004794 -0.067498
8  4.486279 -0.003594 -0.000411  0.025817 0.007557 0.211610
9  4.486284 -0.003595 -0.000412  -0.038147 0.052659 0.236203
10  4.486208 -0.001589 -0.000411  -0.000000 -0.000001 0.576256
11  0.000002 0.001570 -1.908400  1.171993 1.015520 -2.363467
12  3.867486 -0.000003 0.000006  0.445884 -1.028820 -1.173042
13  14.390601 -0.000074 0.000009  0.000001 -0.000004 -2.003953
14  11.595294 0.000028 0.000017  1.720181 -0.068568 0.283557
15  4.415179 -0.060723 -1.931072  0.227367 0.278701 0.697118
16  0.923136 0.000002 -0.000004  0.000000 -0.000000 0.654494
17  0.923140 0.000004 -0.000004  0.000000 0.000000 1.038440
18  4.449306 -0.067593 -0.950401  0.071459 0.259541 0.680320
19  1.128472 0.000009 -0.000000  0.000000 -0.000000 0.654480
20  1.128472 0.000004 0.000000  0.000000 -0.000000 1.326410
21  4.416831 -0.015187 0.200538  0.000652 0.270029 0.665124
22  1.364872 0.000007 -0.000005  -0.000000 -0.000000 0.654494
23  1.364868 0.000004 -0.000004  -0.000000 0.000000 1.579475
24  4.451077 -0.068739 1.121639  -0.041061 -0.100302 0.220080
25  1.107770 0.000011 -0.000011  0.000000 0.000000 0.069801
26  1.107771 -0.000000 -0.000004  0.000000 0.000000 0.191970
27  2.098161 0.045626 1.805200  -2.032808 -0.211087 1.119208
28  0.914510 0.000002 -0.000005  0.000000 -0.000000 0.366503
29  0.914511 0.000006 0.000000  -0.000000 -0.000000 0.357788
30  -0.000004 0.001559 1.908401  -0.279895 -1.220615 2.829771
31  3.867488 0.000006 0.000001  -0.671056 0.570247 -1.470024
32  14.390595 -0.000005 -0.000005  -0.000001 -0.000002 -1.313615
33  11.595299 0.000078 -0.000008  -1.840572 -0.213143 0.000465
34  4.415174 -0.060698 1.931085  -0.306597 0.077733 0.977830
35  0.923133 0.000005 0.000004  -0.000000 -0.000000 1.020987
36  0.923140 0.000003 0.000005  0.000000 0.000000 1.021001
37  4.449303 -0.067572 0.950412  -0.095344 -0.063664 1.034875
38  1.128471 0.000008 0.000006  0.000000 -0.000000 1.020988
39  1.128474 0.000010 0.000004  -0.000000 -0.000000 1.021001
40  4.416834 -0.015165 -0.200526  -0.000412 0.000679 1.031470
41  1.364868 -0.000001 0.000000  0.000000 0.000000 1.020988
42  1.364861 0.000004 0.000000  -0.000000 -0.000000 1.021001
43  4.451078 -0.068714 -1.121623  0.164310 -0.056121 1.013838
44  1.107769 0.000015 0.000007  0.000000 -0.000000 1.018383
45  1.107770 0.000001 -0.000006  -0.000000 -0.000000 1.018382
46  2.098162 0.045639 -1.805190  2.175386 -0.117304 0.957843
47  0.914512 0.000012 0.000009  -0.000000 0.000000 0.776647
48  0.914513 0.000001 0.000014  0.000000 0.000000 0.305427
49  1.969136 0.000017 0.000001  0.246675 0.014954 -0.425636
50  -3.968319 0.006743 3.451355  -0.255540 -2.859259 -0.528854
51  17.254906 -0.000137 0.002749  -0.000000 0.000002 -0.729455
52  17.254900 -0.000003 -0.001045  -0.079495 -0.122081 0.178716
53  3.968622 5.003942 0.000007  -0.000000 -0.000000 1.570796
time 3
0  -1.651683 1.618985 35.795822  0.007928 0.114887 -1.894840
1  0.000000 -0.000000 0.000001  0.000047 -1.568569 -1.570786
2  3.968642 -0.003571 0.000006  -0.036019 -0.014542 -0.059313
3  -3.968954 0.006762 -3.450627  0.066035 2.993022 -0.321284
4  17.254898 -0.000056 -0.001230  0.000001 0.000001 -0.829016
5  17.254904 0.000077 -0.000287  -0.028359 0.131893 0.551019
6  3.968627 5.003939 0.000001  -0.000000 0.000000 1.570796
7  4.486278 -0.003594 -0.000411  0.035642 0.004794 -0.067498
8  4.486283 -0.003594 -0.000411  -0.011352 0.028902 0.195464
9  4.486284 -0.003594 -0.000411  -0.038147 0.052659 0.236203
10  4.486209 -0.001588 -0.000411  0.000000 -0.000001 0.576256
11  0.000001 0.001584 -1.908400  1.077325 1.029756 -2.488436
12  3.867488 -0.000004 0.000005  0.422671 -1.004918 -1.108342
13  14.390597 -0.000076 0.000008  0.000001 -0.000004 -2.015007
14  11.595294 0.000026 0.000017  1.761776 -0.140479 0.198106
15  4.415179 -0.060721 -1.931069  0.227367 0.278701 0.697118
16  0.923137 0.000002 -0.000004  0.000000 -0.000000 0.654494
17  0.923140 0.000002 -0.000005  -0.000000 0.000000 1.038440
18  4.449304 -0.067591 -0.950395  0.071459 0.259541 0.680320
19  1.128475 0.000009 -0.000004  -0.000000 -0.000000 0.654480
20  1.128471 0.000004 -0.000001  0.000000 -0.000000 1.326410
21  4.416830 -0.015185 0.200541  0.000652 0.270029 0.665124
22  1.364872 0.000008 0.000002  -0.000000 -0.000000 0.654494
23  1.364870 0.000006 -0.000005  -0.000000 0.000000 1.579475
24  4.451076 -0.068738 1.121642  -0.041061 -0.100302 0.220080
25  1.107768 0.000010 -0.000004  0.000000 -0.000000 0.069801
26  1.107769 0.000000 0.000000  0.000000 0.000000 0.191970
27  2.098160 0.045628 1.805206  -2.032808 -0.211087 1.119208
28  0.914512 -0.000002 -0.000004  -0.000000 -0.000000 0.366503
29  0.914510 0.000002 -0.000002  -0.000000 -0.000000 0.357788
30  -0.000000 0.001570 1.908401  0.027900 -1.143112 2.562048
31  3.867486 0.000001 0.000003  -0.697516 0.608306 -1.377709
32  14.390601 -0.000005 -0.000006  -0.000001 -0.000002 -1.414244
33  11.595299 0.000079 -0.000010  -1.448300 -0.447799 -0.171694
34  4.415171 -0.060699 1.931084  -0.306597 0.077733 0.977830
35  0.923134 0.000003 0.000006  -0.000000 -0.000000 1.020987
36  0.923139 0.000002 0.000001  0.000000 -0.000000 1.021001
37  4.449302 -0.067573 0.950406  -0.095344 -0.063664 1.034875
38  1.128470 0.000012 0.000010  0.000000 -0.000000 1.020988
39  1.128466 0.000004 0.000005  -0.000000 -0.000000 1.021001
40  4.416831 -0.015166 -0.200532  -0.000412 0.000679 1.031470
41  1.364868 -0.000004 -0.000003  0.000000 -0.000000 1.020988
42  1.364860 0.000006 -0.000000  0.000000 -0.000000 1.021001
43  4.451080 -0.068716 -1.121631  0.164310 -0.056121 1.013838
44  1.107769 0.000004 0.000005  -0.000000 0.000000 1.017780
45  1.107771 0.000002 0.000003  -0.000000 0.000000 1.017780
46  2.098165 0.045639 -1.805200  2.175386 -0.117304 0.957843
47  0.914511 0.000005 0.000006  -0.000000 -0.000000 0.776647
48  0.914512 0.000003 0.000007  0.000000 0.000000 0.305427
49  1.969139 0.000029 0.000002  0.236633 0.045271 -0.467674
50  -3.968320 0.006743 3.451355  -0.255714 -2.838849 -0.548088
51  17.254911 -0.000137 0.002750  -0.000000 0.000002 -0.740949
52  17.254906 -0.000003 -0.001044  -0.093437 -0.128916 0.186023
53  3.968622 5.003941 0.000007  -0.000000 0.000000 1.570796
time 4
0  -1.651683 1.618985 35.795822  0.007928 0.114887 -1.894840
1  0.000000 -0.000000 0.000001  0.000047 -1.568569 -1.570786
2  3.968642 -0.003571 0.000006  -0.060903 -0.023022 -0.041243
3  -3.968956 0.006762 -3.450628  0.057559 3.008536 -0.348531
4  17.254904 -0.000059 -0.001231  0.000001 0.000001 -0.833201
5  17.254906 0.000076 -0.000287  -0.041011 0.129260 0.546790
6  3.968627 5.003938 0.000002  -0.000000 0.000000 1.570796
7  4.486281 -0.003594 -0.000411  0.035642 0.004794 -0.067498
8  4.486279 -0.003594 -0.000411  -0.048522 0.051408 0.179751
9  4.486284 -0.003594 -0.000412  -0.038147 0.052659 0.236203
10  4.486208 -0.001590 -0.000413  -0.000000 -0.000001 0.576256
11  -0.000000 0.001575 -1.908401  0.964519 1.041354 -2.639762
12  3.867485 -0.000000 -0.000000  0.414756 -0.980287 -1.035714
13  14.390600 -0.000077 0.000008  0.000001 -0.000004 -2.025406
14  11.595294 0.000025 0.000017  1.843291 -0.228113 0.106313
15  4.415178 -0.060721 -1.931075  0.227367 0.278701 0.697118
16  0.923136 0.000000 -0.000005  -0.000000 -0.000000 0.654494
17  0.923140 0.000002 -0.000007  -0.000000 -0.000000 1.038440
18  4.449306 -0.067591 -0.950398  0.071459 0.259541 0.680320
19  1.128473 0.000009 -0.000005  0.000000 -0.000000 0.654480
20  1.128472 0.000003 0.000000  -0.000000 -0.000000 1.326410
21  4.416830 -0.015186 0.200542  0.000652 0.270029 0.665124
22  1.364874 0.000008 -0.000004  -0.000000 -0.000000 0.654494
23  1.364870 0.000005 -0.000009  -0.000000 0.000000 1.579475
24  4.451076 -0.068738 1.121638  -0.041061 -0.100302 0.220080
25  1.107769 0.000009 -0.000005  -0.000000 0.000000 0.069801
26  1.107773 0.000001 -0.000004  0.000000 0.000000 0.191970
27  2.098160 0.045627 1.805201  -2.032808 -0.211087 1.119208
28  0.914511 -0.000003 -0.000003  0.000000 -0.000000 0.366503
29  0.914510 0.000004 -0.000000  0.000000 -0.000000 0.357788
30  -0.000004 0.001564 1.908401  0.177095 -1.298138 2.416603
31  3.867486 0.000006 -0.000008  -0.585482 0.587109 -1.392747
32  14.390594 -0.000006 -0.000008  -0.000000 -0.000002 -1.572540
33  11.595296 0.000083 -0.000007  -1.345172 -0.792377 -0.037282
34  4.415176 -0.060702 1.931093  -0.306597 0.077733 0.977830
35  0.923134 0.000006 0.000011  -0.000000 -0.000000 1.020987
36  0.923141 0.000002 0.000008  0.000000 0.000000 1.021001
37  4.449309 -0.067576 0.950415  -0.095344 -0.063664 1.034875
38  1.128473 0.000004 0.000010  -0.000000 0.000000 1.020988
39  1.128472 0.000009 0.000008  -0.000000 -0.000000 1.021001
40  4.416837 -0.015167 -0.200522  -0.000412 0.000679 1.031470
41  1.364867 0.000001 -0.000001  0.000000 0.000000 1.020988
42  1.364860 -0.000001 -0.000001  0.000000 0.000000 1.021001
43  4.451084 -0.068717 -1.121623  0.164310 -0.056121 1.013838
44  1.107771 0.000010 0.000007  -0.000000 0.000000 1.017092
45  1.107769 -0.000009 0.000004  -0.000000 0.000000 1.017092
46  2.098167 0.045637 -1.805189  2.175386 -0.117304 0.957843
47  0.914510 0.000007 0.000001  -0.000000 -0.000000 0.776647
48  0.914511 0.000002 -0.000003  0.000000 -0.000000 0.305427
49  1.969136 0.000020 0.000001  0.227956 0.075587 -0.509712
50  -3.968320 0.006743 3.451355  -0.255013 -2.817884 -0.566935
51  17.254906 -0.000138 0.002750  0.000000 0.000002 -0.752080
52  17.254902 -0.000004 -0.001044  -0.107447 -0.135820 0.193140
53  3.968622 5.003940 0.000007  -0.000000 0.000000 1.570796
time 5
0  -1.651683 1.618985 35.795822  0.007928 0.114887 -1.894840
1  0.000000 -0.000000 0.000001  0.000047 -1.568569 -1.570786
2  3.968642 -0.003571 0.000006  -0.072214 -0.026877 -0.033029
3  -3.968948 0.006761 -3.450627  0.053946 3.015930 -0.360599
4  17.254904 -0.000059 -0.001232  0.000001 0.000001 -0.834877
5  17.254906 0.000075 -0.000285  -0.046675 0.128027 0.544763
6  3.968627 5.003939 0.000004  -0.000000 -0.000000 1.570796
7  4.486283 -0.003594 -0.000411  0.035642 0.004794 -0.067498
8  4.486281 -0.003594 -0.000411  -0.065417 0.064385 0.172687
9  4.486280 -0.003595 -0.000412  -0.038147 0.052659 0.236203
10  4.486208 -0.001590 -0.000411  -0.000000 -0.000001 0.576256
11  0.000001 0.001573 -1.908400  0.857447 1.041086 -2.783816
12  3.867485 0.000000 0.000004  0.420047 -0.957169 -0.956550
13  14.390598 -0.000075 0.000008  0.000001 -0.000004 -2.037088
14  11.595293 0.000031 0.000020  1.956018 -0.297945 0.016434
15  4.415181 -0.060722 -1.931073  0.227367 0.278701 0.697118
16  0.923137 0.000002 -0.000006  0.000000 -0.000000 0.654494
17  0.923139 0.000004 -0.000008  -0.000000 0.000000 1.038440
18  4.449306 -0.067591 -0.950395  0.071459 0.259541 0.680320
19  1.128472 0.000009 -0.000004  0.000000 -0.000000 0.654480
20  1.128471 0.000005 -0.000002  -0.000000 0.000000 1.326410
21  4.416831 -0.015188 0.200538  0.000652 0.270029 0.665124
22  1.364872 0.000008 -0.000010  -0.000000 -0.000000 0.654494
23  1.364867 0.000005 -0.000003  -0.000000 0.000000 1.579475
24  4.451077 -0.068740 1.121639  -0.041061 -0.100302 0.220080
25  1.107767 0.000012 -0.000005  0.000000 -0.000000 0.069801
26  1.107772 -0.000000 -0.000004  0.000000 0.000000 0.191970
27  2.098161 0.045627 1.805200  -2.032808 -0.211087 1.119208
28  0.914514 -0.000002 -0.000006  0.000000 -0.000000 0.366503
29  0.914511 0.000003 -0.000001  0.000000 0.000000 0.357788
30  -0.000004 0.001562 1.908401  0.591321 -1.325317 1.960973
31  3.867488 0.000004 -0.000001  -0.498938 0.499716 -1.294376
32  14.390601 -0.000009 -0.000006  -0.000001 -0.000002 -1.520608
33  11.595295 0.000085 -0.000006  -1.318435 -1.011919 -0.166301
34  4.415173 -0.060700 1.931084  -0.306597 0.077733 0.977830
35  0.923138 0.000006 0.000007  -0.000000 -0.000000 1.020987
36  0.923139 0.000001 0.000008  0.000000 0.000000 1.021001
37  4.449306 -0.067574 0.950408  -0.095344 -0.063664 1.034875
38  1.128470 0.000006 0.000004  0.000000 -0.000000 1.020988
39  1.128470 0.000010 0.000003  -0.000000 -0.000000 1.021001
40  4.416834 -0.015166 -0.200526  -0.000412 0.000679 1.031470
41  1.364865 -0.000005 -0.000000  0.000000 -0.000000 1.020988
42  1.364861 0.000010 0.000001  0.000000 0.000000 1.021001
43  4.451082 -0.068717 -1.121627  0.164310 -0.056121 1.013838
44  1.107771 0.000009 0.000006  0.000000 0.000000 1.016313
45  1.107769 0.000006 0.000002  -0.000000 -0.000000 1.016313
46  2.098167 0.045637 -1.805198  2.175386 -0.117304 0.957843
47  0.914515 0.000005 0.000011  -0.000000 -0.000000 0.776647
48  0.914511 0.000000 0.000006  0.000000 0.000000 0.305427
49  1.969136 0.000018 0.000001  0.224260 0.089368 -0.528820
50  -3.968318 0.006742 3.451355  -0.254412 -2.808189 -0.575346
51  17.254906 -0.000138 0.002749  -0.000000 0.000002 -0.756951
52  17.254902 -0.000004 -0.001045  -0.113838 -0.138981 0.196277
53  3.968621 5.003940 0.000007  -0.000000 -0.000000 1.570796
time 6
0  -1.548997 1.807309 35.699535  0.010735 0.114675 -1.880188
1  -0.000000 -0.000000 -0.000002  0.000044 -1.568569 -1.570800
2  3.968642 -0.003570 0.000006  -0.070089 -0.026618 -0.033081
3  -3.968949 0.006762 -3.450627  0.059160 3.009715 -0.371096
4  17.254902 -0.000059 -0.001230  0.000001 0.000001 -0.852750
5  17.254910 0.000077 -0.000287  -0.038191 0.128273 0.551161
6  3.968626 5.003939 0.000002  -0.000000 0.000000 1.570796
7  4.486286 -0.003594 -0.000411  0.035642 0.004794 -0.067498
8  4.486286 -0.003594 -0.000411  -0.064030 0.068534 0.185135
9  4.486286 -0.003594 -0.000411  -0.038147 0.052659 0.236203
10  4.486207 -0.001587 -0.000411  -0.000000 -0.000001 0.576256
11  0.000001 0.001566 -1.908399  -2.359980 2.095724 0.241049
12  3.867485 0.000001 0.000006  0.400311 -0.915041 -0.855729
13  14.390594 -0.000077 0.000007  0.000002 -0.000004 -2.064304
14  11.595295 0.000032 0.000018  2.085575 -0.292832 -0.045931
15  4.415179 -0.060722 -1.931073  0.227367 0.278701 0.697118
16  0.923137 0.000001 -0.000002  0.000000 0.000000 0.654494
17  0.923139 0.000003 0.000003  -0.000000 -0.000000 1.038440
18  4.449304 -0.067591 -0.950396  0.071459 0.259541 0.680320
19  1.128472 0.000010 -0.000002  0.000000 0.000000 0.654480
20  1.128472 0.000004 0.000000  0.000000 0.000000 1.326410
21  4.416829 -0.015187 0.200537  0.000652 0.270029 0.665124
22  1.364872 0.000006 -0.000004  -0.000000 -0.000000 0.654494
23  1.364870 0.000003 -0.000002  -0.000000 0.000000 1.579475
24  4.451076 -0.068739 1.121640  -0.041061 -0.100302 0.220080
25  1.107770 0.000010 -0.000007  0.000000 -0.000000 0.069801
26  1.107772 0.000002 0.000002  0.000000 -0.000000 0.191970
27  2.098161 0.045628 1.805203  -2.032808 -0.211087 1.119208
28  0.914512 -0.000004 -0.000006  -0.000000 -0.000000 0.366503
29  0.914510 0.000001 -0.000004  0.000000 0.000000 0.357788
30  -0.000003 0.001558 1.908402  0.743798 -1.343617 1.800835
31  3.867487 0.000006 -0.000002  -0.457226 0.462650 -1.242916
32  14.390604 -0.000009 -0.000010  -0.000001 -0.000002 -1.509561
33  11.595301 0.000080 -0.000007  -1.452497 -0.963681 -0.004856
34  4.415175 -0.060701 1.931085  -0.306597 0.077733 0.977830
35  0.923137 0.000009 0.000011  -0.000000 -0.000000 1.020987
36  0.923141 0.000007 0.000004  0.000000 0.000000 1.021001
37  4.449305 -0.067574 0.950413  -0.095344 -0.063664 1.034875
38  1.128470 0.000005 0.000003  0.000000 -0.000000 1.020988
39  1.128470 0.000010 0.000001  -0.000000 0.000000 1.021001
40  4.416831 -0.015166 -0.200517  -0.000412 0.000679 1.031470
41  1.364869 -0.000003 0.000001  -0.000000 -0.000000 1.020988
42  1.364861 0.000004 -0.000002  -0.000000 -0.000000 1.021001
43  4.451080 -0.068716 -1.121621  0.164310 -0.056121 1.013838
44  1.107768 0.000010 0.000013  0.000000 -0.000000 1.015436
45  1.107769 0.000002 -0.000002  -0.000000 -0.000000 1.015436
46  2.098163 0.045639 -1.805191  2.175386 -0.117304 0.957843
47  0.914512 0.000005 0.000001  -0.000000 -0.000000 0.776647
48  0.914507 0.000001 0.000007  0.000000 0.000000 0.305427
49  1.969135 0.000016 0.000002  0.224963 0.084599 -0.496306
50  -3.968315 0.006743 3.451355  -0.247577 -2.816193 -0.591567
51  17.254908 -0.000141 0.002749  0.000000 0.000002 -0.764408
52  17.254900 -0.000004 -0.001044  -0.104869 -0.133074 0.190669
53  3.968622 5.003942 0.000007  -0.000000 -0.000000 1.570796
time 7
0  -1.358294 2.278115 35.458820  0.017753 0.114005 -1.841560
1  -0.000001 -0.000000 0.000008  0.000046 -1.568569 -1.570788
2  3.968637 -0.003570 0.000006  -0.063390 -0.025823 -0.033444
3  -3.968946 0.006762 -3.450627  0.074061 2.994271 -0.394699
4  17.254906 -0.000059 -0.001232  0.000001 0.000001 -0.896327
5  17.254908 0.000076 -0.000285  -0.015454 0.127463 0.568090
6  3.968626 5.003938 0.000001  -0.000000 0.000000 1.570796
7  4.486286 -0.003594 -0.000411  0.035642 0.004794 -0.067498
8  4.486284 -0.003594 -0.000411  -0.060314 0.071766 0.218495
9  4.486288 -0.003593 -0.000411  -0.038147 0.052659 0.236203
10  4.486209 -0.001586 -0.000411  0.000000 -0.000001 0.576256
11  -0.000002 0.001575 -1.908402  -2.409999 2.068819 0.151571
12  3.867485 -0.000006 0.000003  0.350275 -0.855862 -0.750439
13  14.390589 -0.000075 0.000010  0.000002 -0.000004 -2.118302
14  11.595295 0.000028 0.000017  2.188971 -0.207981 -0.042968
15  4.415180 -0.060724 -1.931080  0.227367 0.278701 0.697118
16  0.923136 0.000001 -0.000007  -0.000000 -0.000000 0.654494
17  0.923138 0.000003 -0.000004  -0.000000 -0.000000 1.038440
18  4.449306 -0.067593 -0.950402  0.071459 0.259541 0.680320
19  1.128474 0.000008 -0.000006  0.000000 0.000000 0.654480
20  1.128472 0.000004 -0.000001  0.000000 -0.000000 1.326410
21  4.416831 -0.015187 0.200535  0.000652 0.270029 0.665124
22  1.364872 0.000009 -0.000010  -0.000000 -0.000000 0.654494
23  1.364869 0.000005 -0.000003  -0.000000 -0.000000 1.579475
24  4.451077 -0.068740 1.121637  -0.041061 -0.100302 0.220080
25  1.107771 0.000011 0.000002  0.000000 0.000000 0.069801
26  1.107773 0.000001 -0.000005  0.000000 -0.000000 0.191970
27  2.098160 0.045625 1.805196  -2.032808 -0.211087 1.119208
28  0.914513 -0.000001 -0.000003  -0.000000 -0.000000 0.366503
29  0.914510 0.000002 -0.000001  0.000000 0.000000 0.357788
30  -0.000004 0.001565 1.908399  1.058666 -1.431900 1.503639
31  3.867487 0.000006 -0.000000  -0.379108 0.419365 -1.162475
32  14.390594 -0.000009 -0.000002  -0.000001 -0.000002 -1.540868
33  11.595299 0.000083 -0.000011  -1.629276 -0.772766 0.234034
34  4.415171 -0.060699 1.931087  -0.306597 0.077733 0.977830
35  0.923135 0.000008 0.000007  -0.000000 -0.000000 1.020987
36  0.923135 0.000001 0.000003  0.000000 0.000000 1.021001
37  4.449302 -0.067574 0.950410  -0.095344 -0.063664 1.034875
38  1.128471 0.000007 0.000002  0.000000 -0.000000 1.020988
39  1.128466 0.000008 0.000006  0.000000 -0.000000 1.021001
40  4.416831 -0.015166 -0.200523  -0.000412 0.000679 1.031470
41  1.364868 0.000000 -0.000003  -0.000000 0.000000 1.020988
42  1.364859 0.000002 0.000001  0.000000 -0.000000 1.021001
43  4.451078 -0.068717 -1.121627  0.164310 -0.056121 1.013838
44  1.107767 0.000003 0.000007  -0.000000 0.000000 1.014456
45  1.107775 0.000002 -0.000000  -0.000000 -0.000000 1.014455
46  2.098162 0.045638 -1.805197  2.175386 -0.117304 0.957843
47  0.914512 0.000007 0.000005  0.000000 -0.000000 0.776647
48  0.914511 0.000002 0.000010  0.000000 0.000000 0.305427
49  1.969136 0.000018 -0.000001  0.227130 0.071515 -0.412455
50  -3.968311 0.006742 3.451354  -0.230455 -2.837681 -0.629827
51  17.254910 -0.000140 0.002750  0.000000 0.000002 -0.778941
52  17.254902 -0.000004 -0.001045  -0.080947 -0.119139 0.174158
53  3.968621 5.003941 0.000006  -0.000000 0.000000 1.570796
time 8
0  -1.255609 2.890164 35.145893  0.026876 0.112824 -1.786947
1  -0.000000 0.000000 0.000001  0.000046 -1.568569 -1.570780
2  3.968641 -0.003571 0.000006  -0.051637 -0.024460 -0.034429
3  -3.968949 0.006761 -3.450627  0.097841 2.974467 -0.419724
4  17.254910 -0.000058 -0.001232  0.000001 0.000001 -0.950402
5  17.254908 0.000075 -0.000287  0.017454 0.123160 0.591837
6  3.968626 5.003938 0.000002  -0.000000 0.000000 1.570796
7  4.486282 -0.003594 -0.000411  0.035642 0.004794 -0.067498
8  4.486287 -0.003594 -0.000411  -0.054933 0.074195 0.266792
9  4.486282 -0.003596 -0.000411  -0.038147 0.052659 0.236203
10  4.486211 -0.001587 -0.000412  -0.000000 -0.000001 0.576256
11  0.000002 0.001573 -1.908400  -2.424463 2.027170 0.109363
12  3.867486 -0.000002 0.000003  0.294174 -0.797830 -0.661332
13  14.390598 -0.000075 0.000011  0.000002 -0.000004 -2.189957
14  11.595294 0.000031 0.000019  2.261022 -0.077146 0.007907
15  4.415181 -0.060721 -1.931080  0.227367 0.278701 0.697118
16  0.923136 0.000002 0.000002  0.000000 0.000000 0.654494
17  0.923139 0.000002 0.000002  -0.000000 -0.000000 1.038440
18  4.449306 -0.067592 -0.950404  0.071459 0.259541 0.680320
19  1.128472 0.000009 0.000000  0.000000 0.000000 0.654480
20  1.128473 0.000005 -0.000009  -0.000000 -0.000000 1.326410
21  4.416831 -0.015187 0.200528  0.000652 0.270029 0.665124
22  1.364871 0.000006 -0.000008  -0.000000 -0.000000 0.654494
23  1.364870 0.000004 0.000001  -0.000000 0.000000 1.579475
24  4.451078 -0.068739 1.121632  -0.041061 -0.100302 0.220080
25  1.107770 0.000009 -0.000006  0.000000 -0.000000 0.069801
26  1.107773 0.000001 -0.000005  -0.000000 -0.000000 0.191970
27  2.098161 0.045627 1.805192  -2.032808 -0.211087 1.119208
28  0.914513 0.000000 -0.000006  -0.000000 0.000000 0.366503
29  0.914510 0.000007 -0.000000  -0.000000 0.000000 0.357788
30  -0.000002 0.001564 1.908400  2.202861 -1.507137 0.422529
31  3.867488 0.000003 -0.000011  -0.253030 0.388508 -1.046941
32  14.390596 -0.000008 -0.000010  0.000000 -0.000002 -1.621984
33  11.595298 0.000083 -0.000015  -1.713584 -0.507925 0.363840
34  4.415173 -0.060699 1.931083  -0.306597 0.077733 0.977830
35  0.923134 0.000004 0.000007  -0.000000 -0.000000 1.020987
36  0.923139 0.000005 0.000006  0.000000 0.000000 1.021001
37  4.449303 -0.067570 0.950408  -0.095344 -0.063664 1.034875
38  1.128470 0.000007 0.000006  0.000000 0.000000 1.020988
39  1.128473 0.000010 0.000009  0.000000 -0.000000 1.021001
40  4.416833 -0.015165 -0.200530  -0.000412 0.000679 1.031470
41  1.364868 -0.000000 -0.000000  -0.000000 -0.000000 1.020988
42  1.364861 0.000006 0.000003  0.000000 0.000000 1.021001
43  4.451080 -0.068714 -1.121631  0.164310 -0.056121 1.013838
44  1.107771 0.000005 0.000003  -0.000000 -0.000000 1.013367
45  1.107771 0.000002 -0.000001  -0.000000 -0.000000 1.013367
46  2.098164 0.045639 -1.805201  2.175386 -0.117304 0.957843
47  0.914514 0.000006 -0.000003  0.000000 -0.000000 0.776647
48  0.914511 0.000002 0.000007  0.000000 -0.000000 0.305427
49  1.969139 0.000020 0.000001  0.230846 0.051949 -0.297802
50  -3.968314 0.006742 3.451355  -0.207979 -2.868815 -0.674858
51  17.254906 -0.000138 0.002749  -0.000000 0.000002 -0.789353
52  17.254904 -0.000004 -0.001045  -0.046454 -0.102785 0.147372
53  3.968622 5.003941 0.000007  -0.000000 -0.000000 1.570796
time 9
0  -1.278295 3.502213 34.832966  0.035999 0.111079 -1.724342
1  -0.000000 -0.000000 0.000000  0.000050 -1.568569 -1.570801
2  3.968643 -0.003571 0.000006  -0.034346 -0.022500 -0.036347
3  -3.968947 0.006762 -3.450627  0.128646 2.952564 -0.437342
4  17.254902 -0.000058 -0.001231  0.000001 0.000001 -1.001921
5  17.254904 0.000076 -0.000288  0.056849 0.116435 0.617833
6  3.968627 5.003939 0.000003  -0.000000 0.000000 1.570796
7  4.486282 -0.003594 -0.000411  0.035642 0.004794 -0.067498
8  4.486281 -0.003594 -0.000411  -0.048554 0.075935 0.324052
9  4.486282 -0.003593 -0.000411  -0.038147 0.052659 0.236203
10  4.486208 -0.001593 -0.000410  0.000000 -0.000001 0.576256
11  0.000002 0.001574 -1.908400  -2.411345 2.011388 0.103667
12  3.867486 -0.000003 0.000007  0.281243 -0.756998 -0.615567
13  14.390594 -0.000075 0.000012  0.000003 -0.000004 -2.259269
14  11.595295 0.000023 0.000015  2.315702 0.022197 0.074650
15  4.415180 -0.060720 -1.931068  0.227367 0.278701 0.697118
16  0.923137 0.000001 -0.000001  0.000000 0.000000 0.654494
17  0.923138 0.000003 -0.000005  -0.000000 -0.000000 1.038440
18  4.449307 -0.067590 -0.950395  0.071459 0.259541 0.680320
19  1.128472 0.000008 -0.000005  0.000000 0.000000 0.654480
20  1.128471 0.000004 -0.000006  -0.000000 0.000000 1.326410
21  4.416829 -0.015186 0.200537  0.000652 0.270029 0.665124
22  1.364872 0.000007 -0.000003  -0.000000 -0.000000 0.654494
23  1.364869 0.000005 -0.000009  -0.000000 0.000000 1.579475
24  4.451076 -0.068739 1.121642  -0.041061 -0.100302 0.220080
25  1.107771 0.000009 -0.000006  -0.000000 0.000000 0.069801
26  1.107770 -0.000000 -0.000004  -0.000000 0.000000 0.191970
27  2.098160 0.045628 1.805205  -2.032808 -0.211087 1.119208
28  0.914510 0.000002 -0.000003  0.000000 -0.000000 0.366503
29  0.914510 0.000007 0.000001  0.000000 0.000000 0.357788
30  -0.000004 0.001565 1.908400  0.177860 -1.667000 2.549092
31  3.867486 0.000004 -0.000002  -0.085365 0.382485 -0.903422
32  14.390596 -0.000008 -0.000002  -0.000000 -0.000002 -1.698201
33  11.595296 0.000080 -0.000014  -1.707450 -0.268165 0.380438
34  4.415173 -0.060703 1.931084  -0.306597 0.077733 0.977830
35  0.923136 0.000004 0.000007  -0.000000 -0.000000 1.020987
36  0.923140 0.000000 0.000008  0.000000 0.000000 1.021001
37  4.449304 -0.067575 0.950410  -0.095344 -0.063664 1.034875
38  1.128470 0.000009 0.000005  0.000000 -0.000000 1.020988
39  1.128471 0.000010 0.000005  -0.000000 0.000000 1.021001
40  4.416832 -0.015168 -0.200526  -0.000412 0.000679 1.031470
41  1.364866 -0.000004 -0.000002  -0.000000 -0.000000 1.020988
42  1.364859 0.000009 -0.000001  0.000000 -0.000000 1.021001
43  4.451080 -0.068716 -1.121625  0.164310 -0.056121 1.013838
44  1.107766 0.000008 0.000007  0.000000 -0.000000 1.012164
45  1.107772 0.000004 -0.000001  -0.000000 -0.000000 1.012163
46  2.098163 0.045635 -1.805196  2.175386 -0.117304 0.957843
47  0.914512 0.000007 0.000005  0.000000 -0.000000 0.776647
48  0.914508 0.000001 0.000005  0.000000 -0.000000 0.305427
49  1.969137 0.000021 0.000001  0.236198 0.027734 -0.172881
50  -3.968316 0.006743 3.451354  -0.184888 -2.907392 -0.715448
51  17.254910 -0.000138 0.002750  -0.000000 0.000002 -0.789938
52  17.254902 -0.000003 -0.001045  -0.005425 -0.085636 0.113595
53  3.968622 5.003942 0.000007  -0.000000 0.000000 1.570796
time 10
0  -1.336800 3.973018 34.592251  0.043016 0.108717 -1.661738
1  0.000001 0.000000 -0.000001  0.000053 -1.568569 -1.570794
2  3.968642 -0.003571 0.000006  -0.011035 -0.019911 -0.039510
3  -3.968943 0.006762 -3.450627  0.163707 2.929147 -0.439839
4  17.254908 -0.000060 -0.001230  0.000001 0.000001 -1.038650
5  17.254906 0.000076 -0.000286  0.099404 0.111663 0.640721
6  3.968627 5.003939 0.000003  -0.000000 0.000000 1.570796
7  4.486287 -0.003594 -0.000411  0.035642 0.004794 -0.067498
8  4.486282 -0.003594 -0.000411  -0.041842 0.077101 0.384300
9  4.486281 -0.003594 -0.000411  -0.038147 0.052659 0.236203
10  4.486213 -0.001589 -0.000412  0.000000 -0.000001 0.576256
11  0.000002 0.001575 -1.908400  -2.383886 2.015806 0.127602
12  3.867485 -0.000003 0.000005  0.317600 -0.756239 -0.597266
13  14.390599 -0.000077 0.000011  0.000003 -0.000004 -2.321562
14  11.595294 0.000036 0.000018  2.351902 0.065899 0.133660
15  4.415179 -0.060719 -1.931074  0.227367 0.278701 0.697118
16  0.923137 -0.000000 -0.000005  0.000000 -0.000000 0.654494
17  0.923135 0.000003 -0.000007  -0.000000 0.000000 1.038440
18  4.449304 -0.067590 -0.950401  0.071459 0.259541 0.680320
19  1.128472 0.000010 -0.000011  0.000000 -0.000000 0.654480
20  1.128471 0.000004 -0.000007  -0.000000 0.000000 1.326410
21  4.416829 -0.015185 0.200537  0.000652 0.270029 0.665124
22  1.364872 0.000006 -0.000006  -0.000000 -0.000000 0.654494
23  1.364868 0.000004 -0.000003  -0.000000 0.000000 1.579475
24  4.451076 -0.068736 1.121640  -0.041061 -0.100302 0.220080
25  1.107773 0.000008 -0.000006  -0.000000 0.000000 0.069801
26  1.107772 0.000001 -0.000001  0.000000 0.000000 0.191970
27  2.098159 0.045629 1.805200  -2.032808 -0.211087 1.119208
28  0.914510 -0.000002 -0.000003  0.000000 0.000000 0.366503
29  0.914508 0.000011 -0.000001  0.000000 -0.000000 0.357788
30  -0.000001 0.001561 1.908401  0.478178 -1.691800 2.366442
31  3.867488 0.000001 -0.000006  0.078813 0.596997 -0.689771
32  14.390595 -0.000008 -0.000005  -0.000000 -0.000002 -1.740756
33  11.595299 0.000087 -0.000010  -1.643610 -0.108171 0.350758
34  4.415174 -0.060699 1.931086  -0.306597 0.077733 0.977830
35  0.923133 0.000004 0.000006  -0.000000 -0.000000 1.020987
36  0.923140 0.000004 0.000003  0.000000 0.000000 1.021001
37  4.449305 -0.067573 0.950410  -0.095344 -0.063664 1.034875
38  1.128472 0.000006 0.000008  0.000000 0.000000 1.020988
39  1.128471 0.000013 0.000007  -0.000000 -0.000000 1.021001
40  4.416835 -0.015166 -0.200524  -0.000412 0.000679 1.031470
41  1.364869 0.000000 0.000000  0.000000 0.000000 1.020988
42  1.364860 0.000009 -0.000002  0.000000 -0.000000 1.021001
43  4.451081 -0.068717 -1.121626  0.164310 -0.056121 1.013838
44  1.107774 0.000004 0.000008  0.000000 0.000000 1.010840
45  1.107771 0.000002 0.000002  0.000000 0.000000 1.010840
46  2.098165 0.045638 -1.805194  2.175386 -0.117304 0.957843
47  0.914510 0.000009 0.000006  0.000000 -0.000000 0.776647
48  0.914509 0.000001 0.000003  0.000000 0.000000 0.305427
49  1.969138 0.000019 0.000002  0.243271 0.000702 -0.058228
50  -3.968312 0.006743 3.451355  -0.165233 -2.952031 -0.743604
51  17.254911 -0.000139 0.002749  -0.000000 0.000002 -0.780122
52  17.254906 -0.000004 -0.001045  0.038288 -0.066170 0.079052
53  3.968622 5.003941 0.000007  -0.000000 -0.000000 1.570796
time 11
0  -1.416795 4.161341 34.495964  0.045823 0.105686 -1.607125
1  -0.000000 0.000000 0.000002  0.000046 -1.568569 -1.570800
2  3.968639 -0.003571 0.000006  0.018779 -0.016664 -0.044228
3  -3.968954 0.006762 -3.450627  0.202616 2.909198 -0.419073
4  17.254906 -0.000058 -0.001231  0.000001 0.000001 -1.050479
5  17.254908 0.000077 -0.000287  0.141414 0.110114 0.657922
6  3.968626 5.003939 0.000003  -0.000000 -0.000000 1.570796
7  4.486282 -0.003594 -0.000411  0.035642 0.004794 -0.067498
8  4.486285 -0.003594 -0.000411  -0.035463 0.077809 0.441560
9  4.486281 -0.003594 -0.000412  -0.038147 0.052659 0.236203
10  4.486214 -0.001588 -0.000411  0.000000 -0.000001 0.576256
11  0.000001 0.001575 -1.908401  -2.353897 2.040196 0.169788
12  3.867487 -0.000005 -0.000002  0.362936 -0.778720 -0.578754
13  14.390599 -0.000080 0.000008  0.000003 -0.000003 -2.371158
14  11.595292 0.000033 0.000019  2.382033 0.078532 0.162672
15  4.415178 -0.060723 -1.931073  0.227367 0.278701 0.697118
16  0.923139 0.000002 -0.000001  0.000000 -0.000000 0.654494
17  0.923139 0.000003 -0.000006  -0.000000 -0.000000 1.038440
18  4.449302 -0.067593 -0.950397  0.071459 0.259541 0.680320
19  1.128473 0.000010 -0.000003  0.000000 -0.000000 0.654480
20  1.128471 0.000003 -0.000007  -0.000000 -0.000000 1.326410
21  4.416828 -0.015187 0.200538  0.000652 0.270029 0.665124
22  1.364872 0.000008 -0.000000  -0.000000 -0.000000 0.654494
23  1.364867 0.000004 -0.000000  -0.000000 0.000000 1.579475
24  4.451075 -0.068741 1.121637  -0.041061 -0.100302 0.220080
25  1.107771 0.000009 -0.000002  0.000000 -0.000000 0.069801
26  1.107771 0.000000 0.000004  0.000000 -0.000000 0.191970
27  2.098159 0.045626 1.805201  -2.032808 -0.211087 1.119208
28  0.914510 0.000000 -0.000002  -0.000000 -0.000000 0.366503
29  0.914512 0.000004 0.000002  0.000000 -0.000000 0.357788
30  -0.000004 0.001566 1.908400  0.702408 -1.621107 2.230140
31  3.867487 -0.000001 -0.000006  0.242540 0.942051 -0.312276
32  14.390600 -0.000007 -0.000006  -0.000000 -0.000002 -1.705478
33  11.595299 0.000084 -0.000010  -1.613847 0.005809 0.295461
34  4.415175 -0.060700 1.931085  -0.306597 0.077733 0.977830
35  0.923137 0.000003 0.000006  -0.000000 -0.000000 1.020987
36  0.923140 0.000003 0.000004  -0.000000 0.000000 1.021001
37  4.449306 -0.067573 0.950409  -0.095344 -0.063664 1.034875
38  1.128470 0.000009 0.000005  -0.000000 0.000000 1.020988
39  1.128469 0.000010 0.000005  -0.000000 -0.000000 1.021001
40  4.416838 -0.015166 -0.200526  -0.000412 0.000679 1.031470
41  1.364869 -0.000004 0.000001  -0.000000 -0.000000 1.020988
42  1.364862 0.000004 0.000002  -0.000000 -0.000000 1.021001
43  4.451083 -0.068717 -1.121627  0.164310 -0.056121 1.013838
44  1.107770 0.000008 0.000007  -0.000000 -0.000000 1.009390
45  1.107770 0.000000 0.000000  -0.000000 -0.000000 1.009390
46  2.098161 0.045638 -1.805197  2.175386 -0.117304 0.957843
47  0.914509 0.000007 0.000005  0.000000 0.000000 0.776647
48  0.914510 0.000001 0.000004  0.000000 0.000000 0.305427
49  1.969137 0.000020 0.000001  0.252152 -0.027314 0.025623
50  -3.968319 0.006743 3.451355  -0.148760 -2.997099 -0.752628
51  17.254910 -0.000138 0.002749  0.000000 0.000002 -0.761685
52  17.254900 -0.000003 -0.001045  0.081246 -0.046755 0.051018
53  3.968622 5.003941 0.000006  -0.000000 0.000000 1.570796
time 12
0  -1.503954 4.116246 34.967358  0.045729 0.102148 -1.568497
1  -0.000001 0.000000 -0.000001  0.000045 -1.568569 -1.570788
2  3.968642 -0.003571 0.000006  0.055577 -0.012728 -0.050813
3  -3.968948 0.006762 -3.450627  0.247804 2.901958 -0.357991
4  17.254906 -0.000057 -0.001231  0.000001 0.000001 -0.986173
5  17.254904 0.000077 -0.000285  0.178821 0.109262 0.636388
6  3.968626 5.003938 0.000002  -0.000000 0.000000 1.570796
7  4.486281 -0.003594 -0.000411  0.035642 0.004794 -0.067498
8  4.486280 -0.003594 -0.000411  -0.030082 0.078172 0.489857
9  4.486282 -0.003593 -0.000411  -0.038147 0.052659 0.236203
10  4.486202 -0.001589 -0.000412  -0.000000 -0.000001 0.576256
11  0.000002 0.001575 -1.908400  -2.375242 2.085562 0.169862
12  3.867487 -0.000004 0.000004  0.365030 -0.787278 -0.527703
13  14.390597 -0.000074 0.000006  0.000003 -0.000004 -2.377300
14  11.595294 0.000034 0.000018  2.405357 0.091495 0.133192
15  4.415180 -0.060724 -1.931079  0.227367 0.278701 0.697118
16  0.923138 0.000000 -0.000006  0.000000 -0.000000 0.654494
17  0.923138 0.000003 -0.000001  -0.000000 -0.000000 1.038440
18  4.449305 -0.067596 -0.950406  0.071459 0.259541 0.680320
19  1.128472 0.000008 -0.000009  0.000000 0.000000 0.654480
20  1.128473 0.000004 -0.000004  -0.000000 0.000000 1.326410
21  4.416830 -0.015190 0.200534  0.000652 0.270029 0.665124
22  1.364871 0.000007 -0.000003  -0.000000 -0.000000 0.654494
23  1.364868 0.000005 -0.000007  -0.000000 0.000000 1.579475
24  4.451076 -0.068744 1.121634  -0.041061 -0.100302 0.220080
25  1.107771 0.000010 -0.000005  -0.000000 0.000000 0.069801
26  1.107767 0.000001 -0.000002  0.000000 0.000000 0.191970
27  2.098160 0.045624 1.805195  -2.032808 -0.211087 1.119208
28  0.914511 -0.000002 -0.000005  0.000000 -0.000000 0.366503
29  0.914510 0.000001 -0.000003  -0.000000 -0.000000 0.357788
30  -0.000002 0.001562 1.908401  2.792467 -1.627571 0.157569
31  3.867487 0.000004 -0.000004  0.346340 1.090322 -0.041266
32  14.390594 0.000003 -0.000005  0.000001 -0.000000 -1.727478
33  11.595302 0.000084 -0.000007  -1.624170 0.089870 0.270827
34  4.415175 -0.060699 1.931087  -0.306597 0.077733 0.977830
35  0.923136 0.000003 0.000007  -0.000000 -0.000000 1.020987
36  0.923139 0.000001 0.000005  0.000000 0.000000 1.021001
37  4.449305 -0.067573 0.950411  -0.095344 -0.063664 1.034875
38  1.128468 0.000013 0.000007  -0.000000 -0.000000 1.020988
39  1.128469 0.000015 0.000005  0.000000 0.000000 1.021001
40  4.416832 -0.015165 -0.200525  -0.000412 0.000679 1.031470
41  1.364869 -0.000001 0.000002  0.000000 -0.000000 1.020988
42  1.364858 0.000007 0.000001  0.000000 -0.000000 1.021001
43  4.451081 -0.068716 -1.121625  0.164310 -0.056121 1.013838
44  1.107771 0.000003 0.000005  0.000000 -0.000000 1.007809
45  1.107774 0.000006 0.000002  -0.000000 -0.000000 1.007809
46  2.098161 0.045639 -1.805195  2.175386 -0.117304 0.957843
47  0.914512 0.000007 0.000006  -0.000000 -0.000000 0.776647
48  0.914511 0.000000 0.000007  0.000000 0.000000 0.305427
49  1.969138 0.000018 0.000001  0.262926 -0.054479 0.058137
50  -3.968317 0.006743 3.451355  -0.139276 -3.043703 -0.705703
51  17.254908 -0.000139 0.002749  0.000000 0.000002 -0.663670
52  17.254904 -0.000003 -0.001045  0.119736 -0.029225 -0.005170
53  3.968622 5.003942 0.000007  -0.000000 -0.000000 1.570796
time 13
0  -1.583949 3.970598 35.521149  0.045072 0.099120 -1.553844
1  -0.000000 0.000000 0.000002  0.000047 -1.568569 -1.570788
2  3.968637 -0.003571 0.000006  0.099844 -0.008073 -0.059575
3  -3.968948 0.006762 -3.450627  0.287160 2.901861 -0.288710
4  17.254904 -0.000057 -0.001230  0.000001 0.000001 -0.903541
5  17.254904 0.000076 -0.000286  0.208274 0.109786 0.604037
6  3.968627 5.003938 0.000002  -0.000000 0.000000 1.570796
7  4.486282 -0.003594 -0.000411  0.035642 0.004794 -0.067498
8  4.486285 -0.003594 -0.000411  -0.026366 0.078306 0.523217
9  4.486282 -0.003594 -0.000412  -0.038147 0.052659 0.236203
10  4.486210 -0.001590 -0.000412  0.000000 -0.000001 0.576256
11  0.000004 0.001572 -1.908400  -2.404692 2.125334 0.161868
12  3.867485 -0.000004 0.000007  0.355736 -0.792117 -0.487104
13  14.390600 -0.000075 0.000008  0.000003 -0.000004 -2.360828
14  11.595295 0.000019 0.000016  2.417314 0.105446 0.102239
15  4.415180 -0.060720 -1.931075  0.227367 0.278701 0.697118
16  0.923137 -0.000001 -0.000000  0.000000 -0.000000 0.654494
17  0.923139 0.000003 -0.000009  0.000000 0.000000 1.038440
18  4.449308 -0.067589 -0.950395  0.071459 0.259541 0.680320
19  1.128472 0.000009 -0.000005  0.000000 -0.000000 0.654480
20  1.128473 0.000005 0.000002  -0.000000 0.000000 1.326410
21  4.416831 -0.015183 0.200537  0.000652 0.270029 0.665124
22  1.364871 0.000008 -0.000003  -0.000000 -0.000000 0.654494
23  1.364867 0.000004 0.000003  -0.000000 0.000000 1.579475
24  4.451078 -0.068738 1.121636  -0.041061 -0.100302 0.220080
25  1.107769 0.000010 -0.000002  0.000000 -0.000000 0.069801
26  1.107768 0.000002 -0.000004  0.000000 0.000000 0.191970
27  2.098161 0.045627 1.805201  -2.032808 -0.211087 1.119208
28  0.914509 0.000005 -0.000006  -0.000000 -0.000000 0.366503
29  0.914509 0.000003 -0.000002  -0.000000 -0.000000 0.357788
30  -0.000001 0.001563 1.908401  2.972244 -1.690926 -0.021121
31  3.867487 0.000003 -0.000005  0.357026 0.987961 -0.030586
32  14.390595 -0.000003 -0.000008  0.000001 -0.000000 -1.825294
33  11.595300 0.000085 -0.000008  -1.619779 0.193621 0.155078
34  4.415176 -0.060700 1.931089  -0.306597 0.077733 0.977830
35  0.923134 0.000007 0.000006  -0.000000 -0.000000 1.020987
36  0.923141 0.000004 0.000005  0.000000 0.000000 1.021001
37  4.449307 -0.067573 0.950413  -0.095344 -0.063664 1.034875
38  1.128471 0.000006 0.000008  0.000000 -0.000000 1.020988
39  1.128470 0.000005 0.000008  -0.000000 -0.000000 1.021001
40  4.416836 -0.015166 -0.200521  -0.000412 0.000679 1.031470
41  1.364869 -0.000005 -0.000000  0.000000 -0.000000 1.020988
42  1.364859 0.000004 0.000002  -0.000000 -0.000000 1.021001
43  4.451080 -0.068716 -1.121624  0.164310 -0.056121 1.013838
44  1.107769 0.000008 0.000008  -0.000000 -0.000000 1.006091
45  1.107772 0.000001 -0.000005  0.000000 -0.000000 1.006090
46  2.098165 0.045639 -1.805192  2.175386 -0.117304 0.957843
47  0.914511 0.000007 0.000006  -0.000000 -0.000000 0.776647
48  0.914511 0.000002 0.000003  0.000000 -0.000000 0.305427
49  1.969139 0.000017 0.000002  0.274356 -0.077538 0.033024
50  -3.968316 0.006743 3.451355  -0.131300 -3.083386 -0.637700
51  17.254908 -0.000137 0.002749  0.000000 0.000002 -0.543517
52  17.254902 -0.000003 -0.001045  0.149690 -0.015705 -0.066584
53  3.968622 5.003942 0.000007  -0.000000 0.000000 1.570796
time 14
0  -1.642453 3.708845 35.655190  0.043286 0.097837 -1.645487
1  0.000000 0.000000 -0.000003  0.000040 -1.568569 -1.570790
2  3.968639 -0.003570 0.000006  0.146641 -0.002814 -0.086964
3  -3.968953 0.006762 -3.450627  0.267922 2.906191 -0.242640
4  17.254898 -0.000058 -0.001230  0.000001 0.000001 -0.869209
5  17.254906 0.000075 -0.000286  0.185551 0.115369 0.587817
6  3.968627 5.003939 0.000003  -0.000000 0.000000 1.570796
7  4.486275 -0.003594 -0.000411  0.035642 0.004794 -0.067498
8  4.486283 -0.003594 -0.000412  -0.024979 0.078325 0.535665
9  4.486286 -0.003592 -0.000411  -0.038147 0.052659 0.236203
10  4.486218 -0.001586 -0.000411  0.000000 -0.000001 0.576256
11  0.000001 0.001579 -1.908400  -2.407255 2.085386 0.155251
12  3.867489 -0.000008 0.000007  0.313487 -0.773606 -0.506161
13  14.390598 -0.000077 0.000008  0.000003 -0.000004 -2.328661
14  11.595292 0.000029 0.000021  2.416373 0.139090 0.153138
15  4.415178 -0.060720 -1.931069  0.227367 0.278701 0.697118
16  0.923136 0.000000 -0.000005  0.000000 -0.000000 0.654494
17  0.923139 0.000005 -0.000000  0.000000 -0.000000 1.038440
18  4.449304 -0.067591 -0.950393  0.071459 0.259541 0.680320
19  1.128471 0.000008 -0.000006  0.000000 0.000000 0.654480
20  1.128468 0.000004 0.000001  -0.000000 -0.000000 1.326410
21  4.416828 -0.015186 0.200539  0.000652 0.270029 0.665124
22  1.364872 0.000007 -0.000001  -0.000000 -0.000000 0.654494
23  1.364868 0.000004 -0.000008  -0.000000 0.000000 1.579475
24  4.451075 -0.068739 1.121641  -0.041061 -0.100302 0.220080
25  1.107768 0.000011 -0.000002  0.000000 -0.000000 0.069801
26  1.107768 0.000001 0.000001  0.000000 -0.000000 0.191970
27  2.098159 0.045626 1.805203  -2.032808 -0.211087 1.119208
28  0.914509 -0.000002 -0.000006  -0.000000 -0.000000 0.366503
29  0.914511 0.000005 0.000001  -0.000000 0.000000 0.357788
30  -0.000003 0.001570 1.908401  -0.134465 -1.425493 3.083617
31  3.867487 0.000002 -0.000005  0.364004 0.776752 -0.035982
32  14.390594 -0.000007 -0.000007  0.000001 -0.000000 -1.869215
33  11.595298 0.000082 -0.000011  -1.645125 0.278369 0.035976
34  4.415172 -0.060699 1.931087  -0.306597 0.077733 0.977830
35  0.923135 0.000009 0.000005  -0.000000 -0.000000 1.020987
36  0.923138 0.000007 0.000005  0.000000 0.000000 1.021001
37  4.449304 -0.067573 0.950413  -0.095344 -0.063664 1.034875
38  1.128472 0.000005 0.000006  0.000000 0.000000 1.020988
39  1.128470 0.000009 0.000005  -0.000000 -0.000000 1.021001
40  4.416836 -0.015167 -0.200521  -0.000412 0.000679 1.031470
41  1.364867 -0.000006 -0.000001  -0.000000 -0.000000 1.020988
42  1.364861 0.000005 0.000001  -0.000000 -0.000000 1.021001
43  4.451079 -0.068716 -1.121623  0.164310 -0.056121 1.013838
44  1.107768 0.000010 0.000008  0.000000 -0.000000 1.004229
45  1.107771 -0.000001 0.000001  -0.000000 -0.000000 1.004229
46  2.098166 0.045637 -1.805191  2.175386 -0.117304 0.957843
47  0.914508 0.000004 0.000005  -0.000000 0.000000 0.776647
48  0.914508 -0.000001 0.000003  0.000000 0.000000 0.305427
49  1.969138 0.000023 0.000002  0.279912 -0.087531 -0.051361
50  -3.968321 0.006743 3.451355  -0.146619 -3.066798 -0.583338
51  17.254906 -0.000139 0.002749  0.000000 0.000002 -0.541779
52  17.254902 -0.000003 -0.001045  0.127379 -0.025032 -0.048036
53  3.968622 5.003942 0.000007  -0.000000 0.000000 1.570796
time 15
0  -1.665138 3.328355 35.736492  0.036335 0.100501 -1.756827
1  -0.000000 0.000000 -0.000002  0.000043 -1.568569 -1.570797
2  3.968636 -0.003570 0.000006  0.169358 0.002342 -0.109375
3  -3.968954 0.006762 -3.450628  0.226756 2.917834 -0.217263
4  17.254904 -0.000058 -0.001230  0.000001 0.000001 -0.841593
5  17.254904 0.000076 -0.000286  0.141104 0.121994 0.571679
6  3.968626 5.003940 0.000001  -0.000000 0.000000 1.570796
7  4.486281 -0.003594 -0.000411  0.035642 0.004794 -0.067498
8  4.486284 -0.003594 -0.000411  -0.029872 0.078038 0.466009
9  4.486269 -0.003591 -0.000411  -0.038147 0.052659 0.236203
10  4.486216 -0.001590 -0.000411  0.000000 -0.000001 0.576256
11  -0.000002 0.001572 -1.908401  -2.396940 2.036957 0.156903
12  3.867485 0.000005 0.000003  0.191844 -0.700236 -0.528538
13  14.390604 -0.000074 0.000007  0.000002 -0.000004 -2.240025
14  11.595294 0.000028 0.000017  2.451290 0.212403 0.216996
15  4.415180 -0.060722 -1.931074  0.227367 0.278701 0.697118
16  0.923137 0.000001 -0.000002  0.000000 -0.000000 0.654494
17  0.923140 0.000005 0.000001  -0.000000 -0.000000 1.038440
18  4.449306 -0.067590 -0.950396  0.071459 0.259541 0.680320
19  1.128472 0.000009 -0.000000  0.000000 0.000000 0.654480
20  1.128472 0.000003 -0.000006  -0.000000 0.000000 1.326410
21  4.416829 -0.015186 0.200539  0.000652 0.270029 0.665124
22  1.364872 0.000007 -0.000002  -0.000000 0.000000 0.654494
23  1.364869 0.000005 -0.000001  -0.000000 0.000000 1.579475
24  4.451077 -0.068737 1.121642  -0.041061 -0.100302 0.220080
25  1.107767 0.000009 -0.000009  0.000000 -0.000000 0.069801
26  1.107770 0.000003 -0.000005  0.000000 0.000000 0.191970
27  2.098160 0.045626 1.805200  -2.032808 -0.211087 1.119208
28  0.914512 -0.000004 -0.000005  -0.000000 -0.000000 0.366503
29  0.914511 0.000004 -0.000002  -0.000000 -0.000000 0.357788
30  -0.000005 0.001560 1.908400  2.588984 -1.630034 0.262294
31  3.867487 -0.000004 -0.000002  0.271214 0.682041 -0.187715
32  14.390595 -0.000004 -0.000006  -0.000001 -0.000002 -1.577454
33  11.595302 0.000085 -0.000009  -1.620988 -0.003534 0.229477
34  4.415176 -0.060699 1.931085  -0.306597 0.077733 0.977830
35  0.923134 0.000003 0.000008  -0.000000 -0.000000 1.020987
36  0.923138 0.000002 0.000005  0.000000 0.000000 1.021001
37  4.449308 -0.067572 0.950410  -0.095344 -0.063664 1.034875
38  1.128468 0.000009 0.000006  0.000000 -0.000000 1.020988
39  1.128469 0.000011 0.000007  0.000000 -0.000000 1.021001
40  4.416838 -0.015165 -0.200526  -0.000412 0.000679 1.031470
41  1.364869 -0.000006 0.000000  0.000000 -0.000000 1.020988
42  1.364860 0.000001 0.000001  0.000000 -0.000000 1.021001
43  4.451087 -0.068715 -1.121626  0.164310 -0.056121 1.013838
44  1.107772 0.000004 0.000009  0.000000 -0.000000 1.002218
45  1.107770 0.000004 0.000002  -0.000000 -0.000000 1.002218
46  2.098165 0.045638 -1.805196  2.175386 -0.117304 0.957843
47  0.914511 0.000006 0.000005  -0.000000 -0.000000 0.776647
48  0.914512 0.000002 0.000003  0.000000 0.000000 0.305427
49  1.969134 0.000016 0.000001  0.244740 -0.011245 -0.193513
50  -3.968318 0.006743 3.451355  -0.172512 -3.024848 -0.542592
51  17.254911 -0.000140 0.002748  0.000000 0.000002 -0.575370
52  17.254904 -0.000004 -0.001044  0.083877 -0.044239 -0.001519
53  3.968622 5.003942 0.000007  -0.000000 0.000000 1.570796
time 16
0  -1.661649 2.878153 35.778244  0.024339 0.106362 -1.834500
1  0.000000 0.000000 -0.000002  0.000054 -1.568569 -1.570794
2  3.968641 -0.003570 0.000006  0.131461 0.006684 -0.102972
3  -3.968954 0.006761 -3.450627  0.168657 2.931932 -0.244925
4  17.254904 -0.000057 -0.001230  0.000001 0.000001 -0.836255
5  17.254906 0.000076 -0.000288  0.084418 0.126328 0.562475
6  3.968626 5.003939 0.000004  -0.000000 0.000000 1.570796
7  4.486280 -0.003594 -0.000411  0.035642 0.004794 -0.067498
8  4.486283 -0.003594 -0.000411  -0.040636 0.076027 0.312766
9  4.486278 -0.003594 -0.000411  -0.038147 0.052659 0.236203
10  4.486207 -0.001589 -0.000411  -0.000000 -0.000001 0.576256
11  0.000003 0.001567 -1.908400  -2.358026 1.949464 0.216251
12  3.867485 -0.000001 0.000000  0.046425 -0.648643 -0.567386
13  14.390594 -0.000075 0.000010  0.000002 -0.000004 -2.121974
14  11.595294 0.000036 0.000019  2.517056 0.311573 0.260597
15  4.415179 -0.060723 -1.931069  0.227367 0.278701 0.697118
16  0.923136 0.000000 -0.000005  0.000000 0.000000 0.654494
17  0.923140 0.000004 0.000001  -0.000000 -0.000000 1.038440
18  4.449304 -0.067590 -0.950393  0.071459 0.259541 0.680320
19  1.128473 0.000010 -0.000003  0.000000 -0.000000 0.654480
20  1.128471 0.000003 -0.000005  0.000000 0.000000 1.326410
21  4.416829 -0.015187 0.200542  0.000652 0.270029 0.665124
22  1.364872 0.000008 -0.000008  -0.000000 -0.000000 0.654494
23  1.364871 0.000004 -0.000003  -0.000000 -0.000000 1.579475
24  4.451076 -0.068739 1.121643  -0.041061 -0.100302 0.220080
25  1.107772 0.000010 -0.000006  0.000000 -0.000000 0.069801
26  1.107771 -0.000000 -0.000003  0.000000 -0.000000 0.191970
27  2.098161 0.045627 1.805209  -2.032808 -0.211087 1.119208
28  0.914512 -0.000001 -0.000003  -0.000000 -0.000000 0.366503
29  0.914510 0.000001 0.000000  -0.000000 -0.000000 0.357788
30  -0.000000 0.001556 1.908401  0.030045 -1.655618 2.540947
31  3.867487 0.000005 -0.000005  -0.015271 0.647223 -0.685448
32  14.390596 -0.000010 -0.000005  0.000000 -0.000002 -1.589532
33  11.595294 0.000081 -0.000008  -1.709638 -0.636606 0.656295
34  4.415175 -0.060697 1.931087  -0.306597 0.077733 0.977830
35  0.923131 0.000005 0.000006  -0.000000 -0.000000 1.020987
36  0.923138 0.000003 0.000004  0.000000 -0.000000 1.021001
37  4.449306 -0.067574 0.950411  -0.095344 -0.063664 1.034875
38  1.128469 0.000010 0.000005  0.000000 -0.000000 1.020988
39  1.128475 0.000009 0.000006  -0.000000 -0.000000 1.021001
40  4.416832 -0.015168 -0.200524  -0.000412 0.000679 1.031470
41  1.364870 -0.000002 -0.000001  -0.000000 0.000000 1.020988
42  1.364863 0.000002 -0.000001  0.000000 -0.000000 1.021001
43  4.451082 -0.068716 -1.121624  0.164310 -0.056121 1.013838
44  1.107772 0.000003 0.000006  0.000000 -0.000000 1.000053
45  1.107771 -0.000003 0.000002  0.000000 -0.000000 1.000053
46  2.098163 0.045637 -1.805195  2.175386 -0.117304 0.957843
47  0.914521 0.000007 0.000006  0.000000 -0.000000 0.776647
48  0.914512 0.000003 -0.000000  0.000000 0.000000 0.305427
49  1.969140 0.000010 0.000001  0.209569 0.065042 -0.331635
50  -3.968319 0.006742 3.451355  -0.205403 -2.970067 -0.537413
51  17.254906 -0.000138 0.002749  -0.000000 0.000002 -0.626553
52  17.254900 -0.000004 -0.001045  0.025703 -0.071008 0.056608
53  3.968622 5.003942 0.000006  -0.000000 -0.000000 1.570796
time 17
0  -1.655172 2.420176 35.793625  0.012977 0.112223 -1.880005
1  0.000001 -0.000000 -0.000003  0.000055 -1.568569 -1.570803
2  3.968640 -0.003571 0.000006  0.041091 0.010069 -0.087704
3  -3.968946 0.006761 -3.450627  0.100197 2.952756 -0.294072
4  17.254908 -0.000057 -0.001230  0.000001 0.000001 -0.841456
5  17.254908 0.000077 -0.000288  0.017444 0.127972 0.553799
6  3.968627 5.003939 0.000002  -0.000000 0.000000 1.570796
7  4.486283 -0.003594 -0.000411  0.035642 0.004794 -0.067498
8  4.486284 -0.003594 -0.000411  -0.051400 0.070568 0.159523
9  4.486280 -0.003594 -0.000411  -0.038147 0.052659 0.236203
10  4.486205 -0.001590 -0.000411  0.000000 -0.000001 0.576256
11  0.000007 0.001572 -1.908401  -2.214149 1.846706 0.376904
12  3.867488 -0.000005 0.000002  -0.065306 -0.651639 -0.661362
13  14.390595 -0.000076 0.000005  0.000001 -0.000004 -1.990103
14  11.595293 0.000032 0.000017  2.603416 0.399568 0.279410
15  4.415179 -0.060723 -1.931075  0.227367 0.278701 0.697118
16  0.923136 0.000000 -0.000005  0.000000 -0.000000 0.654494
17  0.923139 0.000003 -0.000001  -0.000000 -0.000000 1.038440
18  4.449306 -0.067592 -0.950398  0.071459 0.259541 0.680320
19  1.128471 0.000010 -0.000006  -0.000000 -0.000000 0.654480
20  1.128469 0.000005 -0.000007  0.000000 0.000000 1.326410
21  4.416831 -0.015188 0.200537  0.000652 0.270029 0.665124
22  1.364872 0.000007 -0.000010  -0.000000 0.000000 0.654494
23  1.364870 0.000003 -0.000009  -0.000000 -0.000000 1.579475
24  4.451077 -0.068741 1.121640  -0.041061 -0.100302 0.220080
25  1.107772 0.000010 -0.000001  -0.000000 -0.000000 0.069801
26  1.107769 0.000003 -0.000003  0.000000 0.000000 0.191970
27  2.098161 0.045626 1.805200  -2.032808 -0.211087 1.119208
28  0.914511 0.000001 -0.000001  0.000000 -0.000000 0.366503
29  0.914506 -0.000000 -0.000002  0.000000 -0.000000 0.357788
30  0.000003 0.001560 1.908399  1.279698 -1.129089 1.114115
31  3.867487 0.000003 -0.000011  -0.094319 0.504454 -0.835791
32  14.390601 -0.000008 -0.000003  -0.000001 -0.000002 -1.366255
33  11.595299 0.000090 -0.000008  -1.709470 -1.117454 0.633166
34  4.415171 -0.060703 1.931086  -0.306597 0.077733 0.977830
35  0.923134 0.000008 0.000006  -0.000000 -0.000000 1.020987
36  0.923138 0.000003 0.000002  0.000000 0.000000 1.021001
37  4.449298 -0.067575 0.950412  -0.095344 -0.063664 1.034875
38  1.128472 0.000014 0.000009  0.000000 0.000000 1.020988
39  1.128469 0.000007 0.000004  -0.000000 -0.000000 1.021001
40  4.416831 -0.015168 -0.200524  -0.000412 0.000679 1.031470
41  1.364869 0.000001 0.000001  -0.000000 -0.000000 1.020988
42  1.364863 0.000009 0.000001  -0.000000 -0.000000 1.021001
43  4.451078 -0.068718 -1.121627  0.164310 -0.056121 1.013838
44  1.107771 0.000007 0.000008  0.000000 -0.000000 0.997727
45  1.107774 0.000002 0.000001  0.000000 0.000000 0.997727
46  2.098161 0.045635 -1.805195  2.175386 -0.117304 0.957843
47  0.914512 0.000008 0.000009  -0.000000 -0.000000 0.776647
48  0.914510 0.000001 -0.000002  0.000000 0.000000 0.305427
49  1.969142 0.000017 -0.000000  0.243410 0.051035 -0.405943
50  -3.968318 0.006742 3.451355  -0.245060 -2.906880 -0.532459
51  17.254910 -0.000140 0.002750  -0.000000 0.000002 -0.675520
52  17.254902 -0.000004 -0.001044  -0.044403 -0.103637 0.115930
53  3.968622 5.003942 0.000007  -0.000000 0.000000 1.570796
time 18
0  -1.651683 2.016362 35.795822  0.007928 0.114887 -1.894840
1  0.000001 -0.000000 -0.000001  0.000047 -1.568569 -1.570786
2  3.968640 -0.003571 0.000006  -0.066769 0.012491 -0.069480
3  -3.968955 0.006762 -3.450627  0.039160 2.975390 -0.342806
4  17.254900 -0.000058 -0.001230  0.000001 0.000001 -0.850085
5  17.254906 0.000075 -0.000286  -0.043396 0.127821 0.546142
6  3.968627 5.003939 0.000003  -0.000000 0.000000 1.570796
7  4.486282 -0.003594 -0.000411  0.035642 0.004794 -0.067498
8  4.486284 -0.003594 -0.000411  -0.056292 0.059938 0.089867
9  4.486277 -0.003594 -0.000412  -0.038147 0.052659 0.236203
10  4.486206 -0.001587 -0.000411  -0.000000 -0.000001 0.576256
11  -0.000002 0.001575 -1.908401  -1.930374 1.825354 0.671258
12  3.867486 -0.000003 0.000008  -0.077275 -0.680517 -0.836141
13  14.390594 -0.000075 0.000009  0.000001 -0.000004 -1.903991
14  11.595291 0.000032 0.000019  2.528405 0.531118 0.222201
15  4.415178 -0.060719 -1.931077  0.227367 0.278701 0.697118
16  0.923136 0.000000 -0.000003  0.000000 -0.000000 0.654494
17  0.923139 0.000003 -0.000005  0.000000 0.000000 1.038440
18  4.449304 -0.067588 -0.950399  0.071459 0.259541 0.680320
19  1.128473 0.000009 -0.000000  0.000000 0.000000 0.654480
20  1.128472 0.000003 -0.000006  0.000000 0.000000 1.326410
21  4.416828 -0.015184 0.200538  0.000652 0.270029 0.665124
22  1.364872 0.000005 -0.000002  -0.000000 -0.000000 0.654494
23  1.364870 0.000004 -0.000004  -0.000000 0.000000 1.579475
24  4.451076 -0.068739 1.121636  -0.041061 -0.100302 0.220080
25  1.107769 0.000009 -0.000002  -0.000000 0.000000 0.069801
26  1.107772 0.000002 -0.000005  0.000000 0.000000 0.191970
27  2.098159 0.045628 1.805201  -2.032808 -0.211087 1.119208
28  0.914509 0.000003 -0.000003  -0.000000 -0.000000 0.366503
29  0.914510 0.000009 -0.000004  -0.000000 0.000000 0.357788
30  -0.000008 0.001569 1.908400  1.092641 -1.073211 1.277265
31  3.867487 0.000004 -0.000004  -0.140410 0.537210 -0.879740
32  14.390598 -0.000008 -0.000003  -0.000001 -0.000002 -1.418955
33  11.595299 0.000086 -0.000014  -1.710185 -1.265487 0.383086
34  4.415174 -0.060699 1.931087  -0.306597 0.077733 0.977830
35  0.923137 0.000003 0.000004  -0.000000 -0.000000 1.020987
36  0.923138 0.000001 0.000006  0.000000 0.000000 1.021001
37  4.449306 -0.067572 0.950412  -0.095344 -0.063664 1.034875
38  1.128469 0.000009 0.000004  0.000000 0.000000 1.020988
39  1.128469 0.000006 0.000004  0.000000 -0.000000 1.021001
40  4.416835 -0.015165 -0.200527  -0.000412 0.000679 1.031470
41  1.364868 -0.000004 0.000001  -0.000000 -0.000000 1.020988
42  1.364863 0.000007 -0.000002  0.000000 -0.000000 1.021001
43  4.451082 -0.068715 -1.121626  0.164310 -0.056121 1.013838
44  1.107768 0.000006 0.000005  -0.000000 -0.000000 0.995236
45  1.107769 -0.000002 0.000001  -0.000000 -0.000000 0.995236
46  2.098165 0.045639 -1.805195  2.175386 -0.117304 0.957843
47  0.914512 0.000007 0.000001  -0.000000 0.000000 0.776647
48  0.914512 0.000001 0.000002  0.000000 0.000000 0.305427
49  1.969132 0.000022 0.000000  0.277251 0.027249 -0.425011
50  -3.968323 0.006743 3.451355  -0.283942 -2.853040 -0.521122
51  17.254906 -0.000139 0.002749  -0.000000 0.000002 -0.709816
52  17.254902 -0.000003 -0.001044  -0.109379 -0.133380 0.164027
53  3.968622 5.003943 0.000007  -0.000000 -0.000000 1.570796
time 19
0  -1.651683 1.728653 35.795822  0.007928 0.114887 -1.894840
1  0.000000 -0.000000 -0.000001  0.000047 -1.568569 -1.570786
2  3.968642 -0.003571 0.000006  -0.157139 0.013948 -0.054212
3  -3.968952 0.006762 -3.450627  -0.005016 2.994760 -0.379197
4  17.254902 -0.000058 -0.001231  0.000001 0.000001 -0.857259
5  17.254904 0.000077 -0.000287  -0.088316 0.126895 0.539815
6  3.968626 5.003939 0.000002  -0.000000 0.000000 1.570796
7  4.486282 -0.003594 -0.000411  0.035642 0.004794 -0.067498
8  4.486277 -0.003594 -0.000411  -0.040823 0.042513 0.110196
9  4.486284 -0.003594 -0.000411  -0.038147 0.052659 0.236203
10  4.486207 -0.001590 -0.000411  -0.000000 -0.000001 0.576256
11  0.000004 0.001577 -1.908403  -1.654085 1.889117 0.957808
12  3.867487 -0.000005 0.000008  -0.014498 -0.716324 -1.035693
13  14.390595 -0.000076 0.000008  0.000001 -0.000004 -1.878007
14  11.595293 0.000031 0.000019  2.310937 0.614029 0.075648
15  4.415182 -0.060720 -1.931077  0.227367 0.278701 0.697118
16  0.923137 -0.000001 -0.000011  -0.000000 0.000000 0.654494
17  0.923139 0.000004 -0.000003  -0.000000 -0.000000 1.038440
18  4.449307 -0.067591 -0.950401  0.071459 0.259541 0.680320
19  1.128472 0.000009 -0.000008  0.000000 0.000000 0.654480
20  1.128472 0.000004 -0.000006  -0.000000 0.000000 1.326410
21  4.416831 -0.015187 0.200535  0.000652 0.270029 0.665124
22  1.364872 0.000008 -0.000006  -0.000000 -0.000000 0.654494
23  1.364868 0.000007 -0.000001  -0.000000 0.000000 1.579475
24  4.451078 -0.068738 1.121635  -0.041061 -0.100302 0.220080
25  1.107771 0.000008 -0.000004  -0.000000 -0.000000 0.069801
26  1.107770 -0.000000 -0.000001  0.000000 -0.000000 0.191970
27  2.098162 0.045627 1.805199  -2.032808 -0.211087 1.119208
28  0.914510 -0.000005 -0.000003  -0.000000 -0.000000 0.366503
29  0.914511 0.000004 -0.000001  -0.000000 0.000000 0.357788
30  -0.000001 0.001567 1.908398  0.583905 -1.164412 1.811342
31  3.867487 0.000004 -0.000001  -0.274949 0.565853 -1.014271
32  14.390597 -0.000007 -0.000003  0.000000 -0.000002 -1.579995
33  11.595300 0.000084 -0.000010  -1.295330 -1.094027 0.053896
34  4.415174 -0.060701 1.931087  -0.306597 0.077733 0.977830
35  0.923136 0.000000 0.000006  -0.000000 -0.000000 1.020987
36  0.923139 0.000000 0.000006  0.000000 0.000000 1.021001
37  4.449306 -0.067574 0.950410  -0.095344 -0.063664 1.034875
38  1.128471 0.000006 0.000007  -0.000000 0.000000 1.020988
39  1.128470 0.000009 0.000005  0.000000 -0.000000 1.021001
40  4.416834 -0.015167 -0.200522  -0.000412 0.000679 1.031470
41  1.364872 -0.000008 0.000000  -0.000000 0.000000 1.020988
42  1.364857 0.000003 0.000002  0.000000 -0.000000 1.021001
43  4.451081 -0.068718 -1.121627  0.164310 -0.056121 1.013838
44  1.107770 0.000003 0.000003  0.000000 -0.000000 0.992572
45  1.107774 -0.000002 0.000000  -0.000000 -0.000000 0.992572
46  2.098165 0.045637 -1.805193  2.175386 -0.117304 0.957843
47  0.914512 0.000008 0.000004  0.000000 0.000000 0.776647
48  0.914513 0.000004 0.000000  0.000000 0.000000 0.305427
49  1.969137 0.000022 -0.000001  0.273690 0.012389 -0.422123
50  -3.968317 0.006742 3.451354  -0.315147 -2.815847 -0.507536
51  17.254908 -0.000139 0.002749  -0.000000 0.000002 -0.729400
52  17.254902 -0.000003 -0.001045  -0.158159 -0.155100 0.196462
53  3.968622 5.003940 0.000006  -0.000000 -0.000000 1.570796
time 20
0  -1.651683 1.618985 35.795822  0.007928 0.114887 -1.894840
1  0.000000 -0.000000 0.000001  0.000047 -1.568569 -1.570786
2  3.968642 -0.003571 0.000006  -0.195036 0.014434 -0.047809
3  -3.968948 0.006762 -3.450627  -0.022817 3.004291 -0.394214
4  17.254908 -0.000059 -0.001231  0.000001 0.000001 -0.859681
5  17.254906 0.000077 -0.000286  -0.107274 0.126388 0.536327
6  3.968626 5.003938 0.000002  -0.000000 0.000000 1.570796
7  4.486285 -0.003594 -0.000411  0.035642 0.004794 -0.067498
8  4.486281 -0.003594 -0.000411  -0.006790 0.022106 0.154919
9  4.486286 -0.003594 -0.000411  -0.038147 0.052659 0.236203
10  4.486216 -0.001589 -0.000412  0.000000 -0.000001 0.576256
11  0.000001 0.001575 -1.908401  -1.533118 1.908770 1.090301
12  3.867486 -0.000001 0.000007  0.060825 -0.803128 -1.090424
13  14.390596 -0.000076 0.000009  0.000001 -0.000004 -1.922911
14  11.595293 0.000029 0.000018  2.123676 0.526173 0.062864
15  4.415181 -0.060723 -1.931071  0.227367 0.278701 0.697118
16  0.923136 0.000003 -0.000004  0.000000 0.000000 0.654494
17  0.923138 0.000002 -0.000001  0.000000 0.000000 1.038440
18  4.449305 -0.067593 -0.950400  0.071459 0.259541 0.680320
19  1.128473 0.000008 -0.000001  0.000000 -0.000000 0.654480
20  1.128472 0.000004 -0.000003  0.000000 -0.000000 1.326410
21  4.416830 -0.015187 0.200539  0.000652 0.270029 0.665124
22  1.364872 0.000007 0.000001  -0.000000 -0.000000 0.654494
23  1.364869 0.000004 -0.000001  -0.000000 0.000000 1.579475
24  4.451077 -0.068741 1.121636  -0.041061 -0.100302 0.220080
25  1.107772 0.000009 0.000003  0.000000 0.000000 0.069801
26  1.107769 0.000001 0.000003  0.000000 0.000000 0.191970
27  2.098160 0.045624 1.805196  -2.032808 -0.211087 1.119208
28  0.914510 -0.000002 -0.000004  -0.000000 -0.000000 0.366503
29  0.914509 0.000005 0.000000  0.000000 0.000000 0.357788
30  -0.000001 0.001560 1.908401  0.025856 -1.074712 2.433930
31  3.867487 0.000002 -0.000004  -0.581283 0.691610 -1.253218
32  14.390600 -0.000007 -0.000008  0.000000 -0.000002 -1.584615
33  11.595298 0.000078 -0.000010  -1.239916 -0.558690 -0.019081
34  4.415171 -0.060700 1.931083  -0.306597 0.077733 0.977830
35  0.923136 0.000004 0.000010  -0.000000 -0.000000 1.020987
36  0.923138 0.000003 0.000003  0.000000 0.000000 1.021001
37  4.449302 -0.067572 0.950413  -0.095344 -0.063664 1.034875
38  1.128468 0.000007 0.000005  -0.000000 0.000000 1.020988
39  1.128466 0.000008 0.000003  0.000000 -0.000000 1.021001
40  4.416829 -0.015166 -0.200523  -0.000412 0.000679 1.031470
41  1.364867 -0.000005 0.000001  -0.000000 0.000000 1.020988
42  1.364860 0.000008 -0.000004  0.000000 -0.000000 1.021001
43  4.451079 -0.068717 -1.121628  0.164310 -0.056121 1.013838
44  1.107770 0.000005 0.000006  0.000000 -0.000000 0.989731
45  1.107771 0.000001 -0.000002  -0.000000 -0.000000 0.989731
46  2.098162 0.045638 -1.805196  2.175386 -0.117304 0.957843
47  0.914511 0.000007 0.000007  0.000000 -0.000000 0.776647
48  0.914511 0.000000 0.000005  0.000000 0.000000 0.305427
49  1.969134 0.000019 0.000001  0.265857 0.005005 -0.415769
50  -3.968320 0.006743 3.451354  -0.328471 -2.800211 -0.501028
51  17.254913 -0.000143 0.002750  0.000000 0.000002 -0.736701
52  17.254902 -0.000003 -0.001045  -0.178779 -0.163933 0.209405
53  3.968622 5.003942 0.000007  -0.000000 0.000000 1.570796
time 21
0  -1.651683 1.618985 35.795822  0.007928 0.114887 -1.894840
1  0.000000 -0.000000 0.000001  0.000047 -1.568569 -1.570786
2  3.968642 -0.003571 0.000006  -0.097430 0.006113 -0.066703
3  -3.968956 0.006761 -3.450627  0.027265 2.984472 -0.337856
4  17.254904 -0.000057 -0.001230  0.000001 0.000001 -0.842352
5  17.254908 0.000075 -0.000285  -0.058540 0.131289 0.547606
6  3.968626 5.003938 0.000003  -0.000000 0.000000 1.570796
7  4.486281 -0.003594 -0.000411  0.035642 0.004794 -0.067498
8  4.486279 -0.003594 -0.000411  0.027243 0.005147 0.199643
9  4.486288 -0.003595 -0.000411  -0.038147 0.052659 0.236203
10  4.486212 -0.001586 -0.000410  0.000000 -0.000001 0.576256
11  -0.000001 0.001566 -1.908400  -1.664105 1.972054 1.004899
12  3.867486 -0.000003 0.000001  0.179250 -0.945275 -1.050417
13  14.390599 -0.000079 0.000009  0.000001 -0.000004 -1.990984
14  11.595292 0.000033 0.000017  1.941586 0.278764 0.146309
15  4.415180 -0.060722 -1.931068  0.227367 0.278701 0.697118
16  0.923138 0.000001 -0.000002  0.000000 0.000000 0.654494
17  0.923138 0.000001 -0.000003  -0.000000 0.000000 1.038440
18  4.449305 -0.067593 -0.950394  0.071459 0.259541 0.680320
19  1.128473 0.000010 -0.000003  0.000000 0.000000 0.654480
20  1.128472 0.000005 -0.000006  0.000000 -0.000000 1.326410
21  4.416829 -0.015187 0.200542  0.000652 0.270029 0.665124
22  1.364872 0.000008 -0.000010  -0.000000 -0.000000 0.654494
23  1.364868 0.000006 -0.000004  -0.000000 0.000000 1.579475
24  4.451077 -0.068740 1.121646  -0.041061 -0.100302 0.220080
25  1.107771 0.000010 -0.000003  0.000000 -0.000000 0.069801
26  1.107770 0.000002 -0.000002  0.000000 0.000000 0.191970
27  2.098160 0.045626 1.805207  -2.032808 -0.211087 1.119208
28  0.914510 0.000000 -0.000005  -0.000000 -0.000000 0.366503
29  0.914510 0.000001 -0.000004  0.000000 0.000000 0.357788
30  -0.000009 0.001557 1.908400  -0.299560 -1.208823 2.728760
31  3.867486 0.000004 -0.000001  -0.693545 0.555360 -1.386170
32  14.390598 -0.000005 -0.000007  -0.000001 -0.000002 -1.292228
33  11.595299 0.000081 -0.000011  -1.773923 -0.193109 0.111766
34  4.415175 -0.060699 1.931085  -0.306597 0.077733 0.977830
35  0.923134 0.000004 0.000009  -0.000000 -0.000000 1.020987
36  0.923140 0.000003 -0.000001  0.000000 0.000000 1.021001
37  4.449307 -0.067571 0.950411  -0.095344 -0.063664 1.034875
38  1.128469 0.000002 0.000008  0.000000 0.000000 1.020988
39  1.128469 0.000005 0.000010  -0.000000 -0.000000 1.021001
40  4.416836 -0.015163 -0.200526  -0.000412 0.000679 1.031470
41  1.364868 -0.000006 -0.000001  -0.000000 0.000000 1.020988
42  1.364860 0.000004 0.000003  -0.000000 -0.000000 1.021001
43  4.451083 -0.068714 -1.121625  0.164310 -0.056121 1.013838
44  1.107769 0.000009 0.000012  0.000000 -0.000000 0.986707
45  1.107774 0.000004 0.000003  -0.000000 -0.000000 0.986707
46  2.098165 0.045641 -1.805192  2.175386 -0.117304 0.957843
47  0.914512 0.000006 0.000008  0.000000 0.000000 0.776647
48  0.914510 -0.000003 0.000004  0.000000 0.000000 0.305427
49  1.969132 0.000012 0.000000  0.258023 0.002224 -0.409416
50  -3.968318 0.006743 3.451355  -0.291853 -2.834931 -0.511346
51  17.254908 -0.000140 0.002749  0.000000 0.000002 -0.730440
52  17.254902 -0.000003 -0.001045  -0.125660 -0.141529 0.192096
53  3.968622 5.003942 0.000006  -0.000000 -0.000000 1.570796
time 22
0  -1.651683 1.618985 35.795822  0.007928 0.114887 -1.894840
1  0.000000 -0.000000 0.000001  0.000047 -1.568569 -1.570786
2  3.968642 -0.003571 0.000006  0.000176 -0.002207 -0.085597
3  -3.968954 0.006762 -3.450627  0.080101 2.972306 -0.279511
4  17.254906 -0.000059 -0.001232  0.000001 0.000001 -0.820673
5  17.254902 0.000077 -0.000286  -0.009899 0.135556 0.555939
6  3.968627 5.003940 0.000001  -0.000000 0.000000 1.570796
7  4.486275 -0.003594 -0.000411  0.035642 0.004794 -0.067498
8  4.486285 -0.003594 -0.000411  0.042713 -0.001934 0.219972
9  4.486288 -0.003594 -0.000412  -0.038147 0.052659 0.236203
10  4.486212 -0.001586 -0.000412  0.000000 -0.000001 0.576256
11  0.000003 0.001568 -1.908399  1.230664 1.008096 -2.291637
12  3.867486 -0.000003 0.000005  0.471088 -1.045275 -1.215682
13  14.390599 -0.000077 0.000007  0.000001 -0.000004 -1.995585
14  11.595294 0.000028 0.000018  1.709041 -0.043035 0.356588
15  4.415179 -0.060722 -1.931073  0.227367 0.278701 0.697118
16  0.923136 0.000000 -0.000005  -0.000000 -0.000000 0.654494
17  0.923139 0.000008 0.000001  -0.000000 0.000000 1.038440
18  4.449305 -0.067592 -0.950395  0.071459 0.259541 0.680320
19  1.128472 0.000009 -0.000009  0.000000 -0.000000 0.654480
20  1.128473 0.000004 -0.000004  -0.000000 -0.000000 1.326410
21  4.416830 -0.015187 0.200538  0.000652 0.270029 0.665124
22  1.364874 0.000007 -0.000006  -0.000000 -0.000000 0.654494
23  1.364868 0.000006 -0.000005  -0.000000 -0.000000 1.579475
24  4.451078 -0.068741 1.121637  -0.041061 -0.100302 0.220080
25  1.107771 0.000008 -0.000003  0.000000 -0.000000 0.069801
26  1.107770 0.000001 -0.000001  0.000000 0.000000 0.191970
27  2.098160 0.045626 1.805199  -2.032808 -0.211087 1.119208
28  0.914511 -0.000003 -0.000006  -0.000000 0.000000 0.366503
29  0.914511 0.000007 -0.000001  0.000000 -0.000000 0.357788
30  -0.000004 0.001564 1.908401  0.034145 -1.301803 2.496252
31  3.867486 0.000003 0.000002  -0.612881 0.458260 -1.384908
32  14.390600 -0.000008 -0.000006  -0.000001 -0.000002 -1.138172
33  11.595297 0.000080 -0.000006  -2.098124 -0.006785 0.116312
34  4.415173 -0.060701 1.931090  -0.306597 0.077733 0.977830
35  0.923135 0.000003 0.000007  -0.000000 -0.000000 1.020987
36  0.923140 0.000003 0.000008  0.000000 -0.000000 1.021001
37  4.449306 -0.067575 0.950417  -0.095344 -0.063664 1.034875
38  1.128470 0.000006 0.000007  0.000000 -0.000000 1.020988
39  1.128472 0.000008 0.000005  -0.000000 -0.000000 1.021001
40  4.416834 -0.015168 -0.200520  -0.000412 0.000679 1.031470
41  1.364868 0.000002 -0.000002  -0.000000 0.000000 1.020988
42  1.364861 0.000005 -0.000005  0.000000 -0.000000 1.021001
43  4.451080 -0.068718 -1.121621  0.164310 -0.056121 1.013838
44  1.107769 0.000007 0.000004  -0.000000 0.000000 0.983494
45  1.107771 0.000002 0.000006  -0.000000 -0.000000 0.983494
46  2.098165 0.045636 -1.805191  2.175386 -0.117304 0.957843
47  0.914511 0.000006 0.000013  -0.000000 -0.000000 0.776647
48  0.914512 -0.000002 0.000006  0.000000 0.000000 0.305427
49  1.969138 0.000015 0.000002  0.254463 0.001173 -0.406528
50  -3.968323 0.006743 3.451355  -0.255190 -2.868356 -0.519928
51  17.254908 -0.000139 0.002750  0.000000 0.000002 -0.723989
52  17.254902 -0.000003 -0.001044  -0.073179 -0.118996 0.175263
53  3.968622 5.003942 0.000007  -0.000000 -0.000000 1.570796
end
