version 1
nodes
0 "Bip01" -1
1 "Bip01 Pelvis" 0
2 "Bip01 Spine" 1
3 "Bip01 R Thigh" 2
4 "Bip01 R Calf" 3
5 "Bip01 R Foot" 4
6 "Bip01 R Toe0" 5
7 "Bip01 Spine1" 2
8 "Bip01 Spine2" 7
9 "Bip01 Spine3" 8
10 "Bip01 Neck" 9
11 "Bip01 R Clavicle" 10
12 "Bip01 R UpperArm" 11
13 "Bip01 R Forearm" 12
14 "Bip01 R Hand" 13
15 "Bip01 R Finger4" 14
16 "Bip01 R Finger41" 15
17 "Bip01 R Finger42" 16
18 "Bip01 R Finger3" 14
19 "Bip01 R Finger31" 18
20 "Bip01 R Finger32" 19
21 "Bip01 R Finger2" 14
22 "Bip01 R Finger21" 21
23 "Bip01 R Finger22" 22
24 "Bip01 R Finger1" 14
25 "Bip01 R Finger11" 24
26 "Bip01 R Finger12" 25
27 "Bip01 R Finger0" 14
28 "Bip01 R Finger01" 27
29 "Bip01 R Finger02" 28
30 "TV" 14
31 "Bip01 L Clavicle" 10
32 "Bip01 L UpperArm" 31
33 "Bip01 L Forearm" 32
34 "Bip01 L Hand" 33
35 "Bip01 L Finger4" 34
36 "Bip01 L Finger41" 35
37 "Bip01 L Finger42" 36
38 "Bip01 L Finger3" 34
39 "Bip01 L Finger31" 38
40 "Bip01 L Finger32" 39
41 "Bip01 L Finger2" 34
42 "Bip01 L Finger21" 41
43 "Bip01 L Finger22" 42
44 "Bip01 L Finger1" 34
45 "Bip01 L Finger11" 44
46 "Bip01 L Finger12" 45
47 "Bip01 L Finger0" 34
48 "Bip01 L Finger01" 47
49 "Bip01 L Finger02" 48
50 "Bip01 Head" 10
51 "Bip01 L Thigh" 2
52 "Bip01 L Calf" 51
53 "Bip01 L Foot" 52
54 "Bip01 L Toe0" 53
end
skeleton
time 0
0  -0.905695 -2.267831 37.080898  -0.004298 0.081886 -1.598505
1  -0.000000 0.000000 0.000002  0.000004 -1.570450 -1.570393
2  3.968629 -0.003570 0.000006  0.000008 -0.000092 -0.123068
3  -3.968951 0.006762 -3.450627  0.353080 3.141397 0.180401
4  17.254902 -0.000056 -0.001343  -0.095322 -0.009871 -0.356444
5  17.254910 0.000080 -0.000254  0.046177 -0.008369 0.334536
6  3.968579 5.003977 0.000001  -0.000000 -0.000000 1.736591
7  4.486285 -0.003595 -0.000411  -0.291201 0.071429 0.378606
8  4.486285 -0.003595 -0.000412  -0.000000 0.000000 0.167637
9  4.486290 -0.003591 -0.000412  -0.000000 0.000000 0.166884
10  4.486217 -0.001590 -0.000411  0.282905 -0.229915 0.181557
11  -0.000001 0.001578 -1.908401  -0.804945 1.839833 1.099870
12  3.867485 0.000003 -0.000000  1.593054 -0.512619 -0.745978
13  14.390594 -0.000089 0.000002  -0.000000 0.000003 -1.195971
14  11.595292 0.000027 0.000019  2.658027 0.700456 -0.440045
15  4.415164 -0.060726 -1.931069  0.349184 0.219731 1.029543
16  0.923142 0.000004 -0.000007  -0.000002 0.000000 0.608240
17  0.923140 0.000004 -0.000005  -0.000000 -0.000000 0.549978
18  4.449296 -0.067587 -0.950401  0.168965 0.108863 0.999778
19  1.128473 0.000013 -0.000009  -0.000000 -0.000000 0.660654
20  1.128474 0.000003 -0.000003  0.000000 -0.000000 0.549976
21  4.416827 -0.015186 0.200539  0.066160 0.042366 0.991903
22  1.364862 0.000006 -0.000004  0.000000 -0.000000 0.681462
23  1.364872 -0.000005 0.000003  -0.000000 -0.000000 0.549976
24  4.451069 -0.068737 1.121636  -0.168094 -0.110202 0.999683
25  1.107775 0.000010 0.000000  -0.000000 0.000000 0.549978
26  1.107766 -0.000004 0.000007  -0.000000 0.000000 0.549977
27  2.098160 0.045628 1.805190  -0.065391 -0.768750 0.107850
28  0.914509 -0.000001 -0.000016  0.000001 0.000001 0.000001
29  0.914509 0.000004 -0.000014  0.000000 -0.000000 -0.000000
30  -0.506820 10.619989 -2.794852  0.203184 -0.019059 1.567084
31  -0.000001 0.001561 1.908401  1.887212 -0.484391 -0.266463
32  3.867490 0.000000 -0.000006  -0.911534 -0.007017 -0.515986
33  14.390591 -0.000001 -0.000015  -0.000001 -0.000005 -1.354918
34  11.595312 0.000080 -0.000015  -1.799722 -0.408849 -0.093942
35  4.415166 -0.060700 1.931081  -0.371498 -0.178018 1.142358
36  0.923133 0.000015 0.000006  -0.000001 0.000002 0.571016
37  0.923141 0.000015 0.000007  -0.000000 0.000001 0.571015
38  4.449304 -0.067571 0.950409  -0.174496 -0.099699 1.052903
39  1.128469 0.000013 0.000007  -0.000001 0.000001 0.571013
40  1.128479 0.000007 0.000003  -0.000001 0.000001 0.571015
41  4.416823 -0.015166 -0.200528  -0.070691 -0.034279 1.109903
42  1.364868 -0.000006 0.000000  0.000000 0.000000 0.453889
43  1.364858 -0.000002 0.000007  -0.000000 0.000000 0.571015
44  4.451070 -0.068704 -1.121626  0.176530 0.096013 1.081600
45  1.107770 0.000006 0.000005  -0.000003 -0.000005 0.387761
46  1.107773 0.000013 0.000005  -0.000000 -0.000000 0.571015
47  2.098154 0.045639 -1.805204  0.065617 0.772360 0.108183
48  0.914513 0.000003 0.000010  0.000003 0.000000 0.000002
49  0.914513 0.000003 0.000002  0.000000 -0.000000 -0.000000
50  1.969141 0.000018 0.000001  -0.085980 -0.008557 -0.644439
51  -3.968320 0.006744 3.451355  -0.157489 -2.985535 -0.585949
52  17.254910 -0.000138 0.002861  0.050663 0.071999 -1.983526
53  17.254902 0.000174 -0.001210  -0.119216 0.047051 -0.329141
54  3.968615 5.003943 0.000006  -0.000000 0.000000 1.605703
time 1
0  -0.864513 -7.662382 37.148865  -0.002072 0.096947 -1.607617
1  -0.000001 0.000000 0.000001  -0.000024 -1.570450 -1.570401
2  3.968641 -0.003571 0.000006  0.000008 -0.000092 -0.123068
3  -3.968950 0.006765 -3.450628  0.311130 -3.101711 0.454753
4  17.254911 -0.000055 -0.001341  -0.083997 0.000077 -0.019006
5  17.254908 0.000078 -0.000254  0.065240 0.051112 0.151766
6  3.968579 5.003976 0.000001  0.000001 0.000004 1.754109
7  4.486287 -0.003594 -0.000411  -0.291201 0.071429 0.378606
8  4.486289 -0.003595 -0.000411  0.000000 -0.000000 0.167637
9  4.486284 -0.003592 -0.000412  -0.000000 -0.000000 0.166884
10  4.486212 -0.001585 -0.000411  0.282905 -0.229915 0.181557
11  -0.000008 0.001575 -1.908399  -0.804945 1.839833 1.099871
12  3.867489 0.000002 0.000005  1.604193 -0.503712 -0.753777
13  14.390597 -0.000088 0.000011  -0.000000 0.000003 -1.227495
14  11.595303 0.000029 0.000027  2.656350 0.702669 -0.408890
15  4.415179 -0.060716 -1.931080  0.349184 0.219731 1.029543
16  0.923136 0.000007 -0.000005  -0.000002 0.000000 0.608240
17  0.923137 0.000015 -0.000007  -0.000000 -0.000000 0.549978
18  4.449309 -0.067586 -0.950402  0.168965 0.108862 0.999778
19  1.128472 0.000010 0.000003  -0.000000 -0.000000 0.660654
20  1.128474 -0.000001 -0.000006  0.000000 -0.000000 0.549976
21  4.416821 -0.015187 0.200535  0.066160 0.042366 0.991903
22  1.364871 0.000014 -0.000001  0.000000 -0.000000 0.681462
23  1.364869 0.000015 -0.000005  -0.000000 -0.000000 0.549976
24  4.451077 -0.068739 1.121635  -0.168094 -0.110202 0.999683
25  1.107770 0.000005 -0.000012  -0.000000 0.000000 0.549978
26  1.107769 0.000006 0.000001  -0.000000 0.000000 0.549977
27  2.098163 0.045629 1.805197  -0.065391 -0.768750 0.107850
28  0.914511 -0.000003 0.000002  0.000001 0.000001 0.000001
29  0.914509 0.000003 0.000002  0.000000 -0.000000 -0.000000
30  -0.506763 10.619871 -2.794950  0.203183 -0.019060 1.567085
31  -0.000005 0.001556 1.908401  1.887212 -0.484391 -0.266463
32  3.867489 -0.000000 -0.000007  -0.912436 -0.032062 -0.488294
33  14.390604 -0.000006 -0.000004  -0.000001 -0.000005 -1.356159
34  11.595304 0.000086 -0.000012  -1.826135 -0.404996 -0.084975
35  4.415172 -0.060700 1.931081  -0.371498 -0.178018 1.142358
36  0.923136 0.000021 0.000008  -0.000001 0.000002 0.571016
37  0.923133 0.000004 0.000015  -0.000000 0.000001 0.571015
38  4.449301 -0.067573 0.950409  -0.174496 -0.099699 1.052903
39  1.128471 0.000018 0.000006  -0.000001 0.000001 0.571013
40  1.128469 -0.000001 0.000005  -0.000001 0.000001 0.571015
41  4.416832 -0.015163 -0.200532  -0.070691 -0.034279 1.109903
42  1.364867 -0.000003 0.000001  0.000000 0.000000 0.453889
43  1.364860 0.000000 -0.000001  -0.000000 0.000000 0.571015
44  4.451079 -0.068712 -1.121629  0.176530 0.096013 1.081600
45  1.107768 0.000009 0.000010  -0.000003 -0.000005 0.387761
46  1.107772 -0.000003 0.000004  -0.000000 -0.000000 0.571015
47  2.098166 0.045637 -1.805193  0.065617 0.772360 0.108183
48  0.914511 0.000002 0.000001  0.000003 0.000000 0.000002
49  0.914513 0.000000 -0.000005  0.000000 -0.000000 0.000000
50  1.969129 0.000020 0.000001  -0.085980 -0.008557 -0.644439
51  -3.968317 0.006743 3.451355  -0.086322 -3.007203 -0.799095
52  17.254908 -0.000134 0.002860  0.068835 0.080258 -1.983660
53  17.254906 0.000169 -0.001209  -0.106311 0.069317 -0.170946
54  3.968615 5.003944 0.000006  -0.000000 0.000000 1.605703
time 2
0  -0.749739 -13.056932 37.318783  0.000352 0.111621 -1.600263
1  0.000000 0.000000 -0.000007  -0.000039 -1.570450 -1.570413
2  3.968641 -0.003570 0.000006  0.000008 -0.000092 -0.123068
3  -3.968954 0.006761 -3.450628  0.278754 -3.113438 0.549130
4  17.254908 -0.000056 -0.001342  -0.074428 0.000625 -0.019027
5  17.254908 0.000078 -0.000255  0.073879 0.083888 0.077538
6  3.968579 5.003976 0.000001  0.000003 0.000009 1.771611
7  4.486287 -0.003596 -0.000411  -0.291201 0.071429 0.378606
8  4.486283 -0.003592 -0.000412  -0.000000 0.000000 0.167637
9  4.486285 -0.003596 -0.000410  -0.000000 0.000000 0.166884
10  4.486214 -0.001578 -0.000411  0.282905 -0.229915 0.181557
11  -0.000002 0.001575 -1.908402  -0.804945 1.839833 1.099870
12  3.867486 -0.000000 0.000001  1.615664 -0.487626 -0.739523
13  14.390602 -0.000081 0.000003  -0.000000 0.000003 -1.269318
14  11.595285 0.000026 0.000021  2.642435 0.698417 -0.371006
15  4.415177 -0.060721 -1.931076  0.349184 0.219731 1.029543
16  0.923134 0.000004 -0.000005  -0.000002 0.000000 0.608240
17  0.923141 -0.000003 -0.000003  -0.000000 -0.000000 0.549978
18  4.449304 -0.067588 -0.950397  0.168965 0.108862 0.999778
19  1.128467 0.000018 -0.000011  -0.000000 -0.000000 0.660654
20  1.128472 0.000004 -0.000002  0.000000 -0.000000 0.549976
21  4.416833 -0.015180 0.200533  0.066160 0.042366 0.991903
22  1.364865 0.000011 -0.000002  -0.000000 -0.000000 0.681462
23  1.364872 0.000000 -0.000005  -0.000000 -0.000000 0.549976
24  4.451077 -0.068736 1.121633  -0.168094 -0.110202 0.999683
25  1.107769 0.000004 -0.000007  -0.000000 0.000000 0.549978
26  1.107773 0.000000 0.000003  -0.000000 0.000000 0.549977
27  2.098163 0.045628 1.805198  -0.065391 -0.768750 0.107850
28  0.914516 0.000001 0.000008  0.000001 0.000001 0.000001
29  0.914512 0.000005 -0.000003  -0.000000 -0.000000 -0.000000
30  -0.506770 10.619829 -2.794968  0.203183 -0.019060 1.567085
31  0.000006 0.001562 1.908402  1.887212 -0.484391 -0.266463
32  3.867489 0.000001 -0.000005  -0.922248 -0.062669 -0.475299
33  14.390600 -0.000008 -0.000004  -0.000001 -0.000005 -1.331882
34  11.595296 0.000085 -0.000010  -1.860294 -0.411533 -0.101054
35  4.415163 -0.060699 1.931077  -0.371498 -0.178018 1.142358
36  0.923134 0.000002 0.000009  -0.000001 0.000002 0.571016
37  0.923141 0.000011 0.000008  -0.000000 0.000001 0.571015
38  4.449302 -0.067575 0.950400  -0.174495 -0.099699 1.052902
39  1.128468 0.000002 0.000006  -0.000001 0.000001 0.571013
40  1.128476 0.000017 0.000001  -0.000001 0.000001 0.571015
41  4.416829 -0.015174 -0.200527  -0.070691 -0.034279 1.109903
42  1.364869 -0.000000 0.000006  0.000000 0.000000 0.453889
43  1.364859 0.000005 -0.000003  -0.000000 0.000000 0.571015
44  4.451085 -0.068718 -1.121628  0.176530 0.096013 1.081600
45  1.107771 0.000009 0.000010  -0.000003 -0.000005 0.387761
46  1.107769 0.000000 0.000013  0.000000 -0.000000 0.571015
47  2.098166 0.045638 -1.805202  0.065617 0.772360 0.108183
48  0.914509 0.000003 -0.000011  0.000003 0.000000 0.000002
49  0.914515 0.000001 0.000010  0.000000 -0.000000 -0.000000
50  1.969137 0.000014 0.000001  -0.085980 -0.008557 -0.644439
51  -3.968307 0.006742 3.451355  -0.034527 -3.014504 -0.938764
52  17.254917 -0.000140 0.002863  0.095080 0.078653 -1.850276
53  17.254904 0.000171 -0.001208  -0.073607 0.062132 -0.048183
54  3.968616 5.003946 0.000006  -0.000000 0.000000 1.605703
time 3
0  -0.574431 -18.451481 37.539677  0.004158 0.122089 -1.576479
1  -0.000003 0.000000 -0.000004  0.000012 -1.570450 -1.570413
2  3.968650 -0.003575 0.000006  0.000008 -0.000092 -0.123068
3  -3.968952 0.006760 -3.450627  0.274008 -3.116353 0.621758
4  17.254904 -0.000055 -0.001341  -0.074335 0.000580 -0.018879
5  17.254910 0.000078 -0.000255  0.063933 0.068959 -0.138880
6  3.968580 5.003977 0.000001  0.000003 0.000008 1.688734
7  4.486285 -0.003596 -0.000411  -0.291201 0.071429 0.378606
8  4.486280 -0.003592 -0.000410  0.000000 -0.000000 0.167637
9  4.486279 -0.003591 -0.000411  0.000000 -0.000000 0.166884
10  4.486209 -0.001588 -0.000411  0.282905 -0.229915 0.181557
11  0.000004 0.001580 -1.908401  -0.804945 1.839833 1.099871
12  3.867485 -0.000002 0.000010  1.626493 -0.469164 -0.706367
13  14.390594 -0.000082 0.000005  -0.000001 0.000003 -1.315358
14  11.595284 0.000028 0.000014  2.616763 0.686509 -0.335658
15  4.415189 -0.060720 -1.931085  0.349184 0.219731 1.029543
16  0.923141 0.000004 0.000001  -0.000002 0.000000 0.608240
17  0.923142 -0.000002 0.000002  -0.000000 -0.000000 0.549978
18  4.449304 -0.067588 -0.950404  0.168965 0.108862 0.999778
19  1.128481 0.000010 -0.000008  -0.000000 -0.000000 0.660654
20  1.128473 -0.000002 -0.000006  0.000000 -0.000000 0.549976
21  4.416827 -0.015179 0.200522  0.066160 0.042366 0.991903
22  1.364874 0.000006 -0.000003  0.000000 -0.000000 0.681462
23  1.364871 0.000012 -0.000006  -0.000000 -0.000000 0.549976
24  4.451072 -0.068735 1.121645  -0.168094 -0.110202 0.999683
25  1.107768 0.000007 0.000007  -0.000000 0.000000 0.549978
26  1.107775 0.000007 -0.000008  -0.000000 0.000000 0.549977
27  2.098168 0.045630 1.805195  -0.065391 -0.768750 0.107850
28  0.914516 -0.000003 0.000009  0.000001 0.000001 0.000001
29  0.914517 0.000003 0.000003  0.000000 -0.000000 -0.000000
30  -0.506750 10.619841 -2.794954  0.203183 -0.019060 1.567085
31  0.000002 0.001574 1.908402  1.887212 -0.484391 -0.266463
32  3.867484 0.000001 -0.000002  -0.938879 -0.087861 -0.479269
33  14.390611 -0.000018 -0.000004  -0.000002 -0.000005 -1.292762
34  11.595300 0.000077 -0.000010  -1.893631 -0.429564 -0.136938
35  4.415179 -0.060700 1.931084  -0.371498 -0.178018 1.142358
36  0.923137 -0.000016 0.000005  -0.000001 0.000002 0.571016
37  0.923144 0.000001 0.000006  -0.000000 0.000001 0.571015
38  4.449296 -0.067575 0.950403  -0.174495 -0.099699 1.052903
39  1.128470 0.000006 0.000004  -0.000001 0.000001 0.571013
40  1.128470 0.000009 0.000016  -0.000001 0.000001 0.571015
41  4.416819 -0.015167 -0.200520  -0.070691 -0.034279 1.109903
42  1.364866 0.000008 -0.000001  0.000000 0.000000 0.453889
43  1.364858 0.000010 -0.000001  -0.000000 0.000000 0.571015
44  4.451088 -0.068717 -1.121619  0.176530 0.096013 1.081600
45  1.107769 0.000008 0.000020  -0.000003 -0.000005 0.387761
46  1.107769 0.000002 0.000007  0.000000 -0.000000 0.571015
47  2.098168 0.045634 -1.805190  0.065617 0.772360 0.108183
48  0.914509 0.000009 0.000000  0.000003 0.000000 0.000002
49  0.914516 -0.000002 0.000005  -0.000000 -0.000000 -0.000000
50  1.969135 0.000011 0.000001  -0.085980 -0.008557 -0.644439
51  -3.968316 0.006743 3.451355  -0.037246 -3.036063 -0.978925
52  17.254911 -0.000135 0.002861  0.092301 0.086571 -1.626787
53  17.254913 0.000174 -0.001210  -0.067803 0.108081 0.066359
54  3.968613 5.003946 0.000006  -0.000000 0.000000 1.605703
time 4
0  -0.351649 -23.846031 37.760571  0.011426 0.124431 -1.539986
1  -0.000002 -0.000000 -0.000007  0.000013 -1.570450 -1.570377
2  3.968641 -0.003571 0.000006  0.000008 -0.000092 -0.123068
3  -3.968945 0.006760 -3.450627  0.269542 -3.109760 0.683803
4  17.254900 -0.000055 -0.001341  -0.081195 0.000289 -0.019216
5  17.254906 0.000076 -0.000255  0.047033 0.044438 -0.414922
6  3.968579 5.003976 0.000000  0.000002 0.000003 1.605803
7  4.486291 -0.003596 -0.000411  -0.291201 0.071429 0.378606
8  4.486282 -0.003599 -0.000412  -0.000000 0.000000 0.167637
9  4.486280 -0.003588 -0.000412  0.000000 0.000000 0.166884
10  4.486222 -0.001590 -0.000411  0.282905 -0.229915 0.181557
11  -0.000003 0.001573 -1.908401  -0.804945 1.839833 1.099870
12  3.867481 0.000003 0.000011  1.631505 -0.454880 -0.662257
13  14.390599 -0.000086 -0.000001  -0.000001 0.000003 -1.365558
14  11.595292 0.000022 0.000019  2.579458 0.670288 -0.309107
15  4.415179 -0.060723 -1.931068  0.349184 0.219731 1.029543
16  0.923138 -0.000001 -0.000007  -0.000002 0.000000 0.608240
17  0.923135 0.000012 -0.000004  -0.000000 -0.000000 0.549978
18  4.449298 -0.067598 -0.950392  0.168965 0.108863 0.999778
19  1.128474 0.000013 -0.000005  -0.000000 -0.000000 0.660654
20  1.128471 0.000009 -0.000011  0.000000 -0.000000 0.549977
21  4.416828 -0.015187 0.200534  0.066160 0.042366 0.991903
22  1.364872 0.000007 -0.000000  0.000000 -0.000000 0.681462
23  1.364865 0.000006 -0.000002  -0.000000 -0.000000 0.549976
24  4.451073 -0.068738 1.121635  -0.168094 -0.110202 0.999683
25  1.107762 0.000005 -0.000007  -0.000000 0.000000 0.549978
26  1.107766 -0.000004 0.000008  -0.000000 0.000000 0.549977
27  2.098162 0.045630 1.805191  -0.065391 -0.768750 0.107850
28  0.914510 -0.000004 -0.000013  0.000001 0.000001 0.000001
29  0.914509 0.000002 0.000005  0.000000 -0.000000 -0.000000
30  -0.506751 10.619837 -2.794972  0.203183 -0.019060 1.567085
31  -0.000006 0.001568 1.908400  1.887212 -0.484391 -0.266463
32  3.867495 -0.000004 -0.000005  -0.961888 -0.093873 -0.496896
33  14.390606 -0.000013 0.000001  -0.000002 -0.000005 -1.253572
34  11.595309 0.000087 -0.000012  -1.917926 -0.456652 -0.187682
35  4.415174 -0.060688 1.931085  -0.371498 -0.178018 1.142358
36  0.923136 0.000003 0.000008  -0.000001 0.000002 0.571016
37  0.923149 0.000009 -0.000001  -0.000000 0.000001 0.571015
38  4.449301 -0.067564 0.950412  -0.174495 -0.099699 1.052903
39  1.128471 0.000016 0.000005  -0.000001 0.000001 0.571013
40  1.128472 0.000009 0.000004  -0.000001 0.000001 0.571015
41  4.416836 -0.015159 -0.200519  -0.070691 -0.034279 1.109903
42  1.364867 -0.000014 0.000009  0.000000 0.000000 0.453889
43  1.364859 0.000002 -0.000003  -0.000000 0.000000 0.571015
44  4.451077 -0.068707 -1.121631  0.176530 0.096013 1.081600
45  1.107769 0.000008 0.000018  -0.000003 -0.000005 0.387761
46  1.107770 -0.000003 0.000000  0.000000 -0.000000 0.571015
47  2.098162 0.045642 -1.805186  0.065617 0.772360 0.108183
48  0.914514 0.000007 -0.000003  0.000003 0.000000 0.000002
49  0.914509 0.000007 -0.000001  0.000000 -0.000000 0.000000
50  1.969138 0.000012 0.000001  -0.085980 -0.008556 -0.644439
51  -3.968306 0.006745 3.451354  -0.095564 -3.068967 -0.910717
52  17.254900 -0.000145 0.002860  0.099806 0.078772 -1.215294
53  17.254904 0.000170 -0.001210  -0.061462 0.110557 0.006311
54  3.968614 5.003942 0.000006  -0.000000 0.000000 1.605703
time 5
0  -0.094452 -29.240582 37.930489  0.022170 0.116903 -1.498142
1  0.000003 -0.000000 0.000001  -0.000011 -1.570450 -1.570362
2  3.968635 -0.003568 0.000006  0.000008 -0.000092 -0.123068
3  -3.968970 0.006765 -3.450627  0.218516 -3.109562 0.597814
4  17.254904 -0.000057 -0.001342  -0.109572 0.002722 -0.306382
5  17.254906 0.000072 -0.000255  0.001910 0.070346 -0.576714
6  3.968579 5.003976 0.000001  0.000000 -0.000000 1.605703
7  4.486269 -0.003596 -0.000411  -0.291201 0.071429 0.378606
8  4.486286 -0.003598 -0.000413  -0.000000 0.000000 0.167637
9  4.486277 -0.003589 -0.000411  -0.000000 -0.000000 0.166884
10  4.486204 -0.001592 -0.000412  0.282905 -0.229915 0.181557
11  0.000007 0.001565 -1.908400  -0.804945 1.839833 1.099870
12  3.867482 0.000006 0.000001  1.625732 -0.453028 -0.616105
13  14.390594 -0.000082 0.000008  -0.000001 0.000003 -1.422531
14  11.595284 0.000023 0.000013  2.533725 0.655083 -0.294063
15  4.415188 -0.060715 -1.931075  0.349184 0.219732 1.029543
16  0.923138 0.000004 -0.000007  -0.000002 0.000000 0.608240
17  0.923138 -0.000005 -0.000001  -0.000000 -0.000000 0.549978
18  4.449310 -0.067589 -0.950399  0.168965 0.108863 0.999778
19  1.128467 0.000013 0.000015  -0.000000 -0.000000 0.660654
20  1.128470 0.000005 0.000002  0.000000 -0.000000 0.549976
21  4.416828 -0.015182 0.200531  0.066160 0.042366 0.991903
22  1.364871 0.000010 -0.000010  0.000000 -0.000000 0.681462
23  1.364865 0.000009 -0.000007  -0.000000 -0.000000 0.549976
24  4.451078 -0.068735 1.121639  -0.168094 -0.110202 0.999683
25  1.107768 0.000009 -0.000001  -0.000000 0.000000 0.549978
26  1.107771 -0.000002 -0.000006  -0.000000 0.000000 0.549977
27  2.098168 0.045625 1.805201  -0.065391 -0.768750 0.107850
28  0.914510 -0.000003 0.000014  0.000001 0.000001 0.000001
29  0.914509 0.000006 -0.000015  0.000000 -0.000000 -0.000000
30  -0.507097 10.620636 -2.794048  0.203186 -0.019056 1.567080
31  0.000006 0.001566 1.908400  1.887213 -0.484391 -0.266463
32  3.867485 -0.000005 -0.000014  -0.990394 -0.070927 -0.523346
33  14.390583 -0.000005 -0.000005  -0.000002 -0.000005 -1.229991
34  11.595301 0.000080 -0.000015  -1.926561 -0.487101 -0.246802
35  4.415174 -0.060708 1.931081  -0.371498 -0.178018 1.142358
36  0.923135 0.000004 0.000005  -0.000001 0.000002 0.571016
37  0.923138 -0.000002 0.000005  -0.000000 0.000001 0.571015
38  4.449305 -0.067581 0.950412  -0.174495 -0.099699 1.052903
39  1.128470 0.000005 0.000021  -0.000001 0.000001 0.571013
40  1.128470 0.000006 0.000016  -0.000001 0.000001 0.571016
41  4.416838 -0.015169 -0.200520  -0.070691 -0.034279 1.109903
42  1.364870 0.000002 0.000007  0.000000 0.000000 0.453889
43  1.364857 -0.000007 -0.000014  -0.000000 0.000000 0.571015
44  4.451087 -0.068715 -1.121628  0.176530 0.096013 1.081600
45  1.107773 0.000004 0.000004  -0.000003 -0.000005 0.387761
46  1.107765 -0.000003 0.000018  0.000000 -0.000000 0.571015
47  2.098164 0.045629 -1.805205  0.065617 0.772360 0.108183
48  0.914512 0.000012 0.000004  0.000003 0.000000 0.000002
49  0.914513 -0.000000 -0.000002  0.000000 -0.000000 -0.000000
50  1.969148 0.000011 0.000002  -0.085980 -0.008556 -0.644439
51  -3.968320 0.006746 3.451355  -0.162876 -3.111785 -0.768361
52  17.254906 -0.000134 0.002862  0.118841 0.062299 -0.750761
53  17.254906 0.000168 -0.001207  -0.046936 0.103495 -0.061001
54  3.968616 5.003939 0.000006  -0.000000 0.000000 1.605703
time 6
0  0.184100 -34.635132 37.998455  0.035052 0.104962 -1.458196
1  0.000001 -0.000000 0.000001  -0.000003 -1.570450 -1.570350
2  3.968644 -0.003572 0.000006  0.000008 -0.000092 -0.123068
3  -3.968952 0.006775 -3.450628  0.337079 3.113241 0.344705
4  17.254906 -0.000056 -0.001343  -0.167696 -0.025374 -0.930151
5  17.254910 0.000077 -0.000255  -0.049455 0.031858 -0.563812
6  3.968579 5.003978 0.000000  -0.000001 -0.000000 1.605703
7  4.486291 -0.003588 -0.000411  -0.291201 0.071429 0.378606
8  4.486278 -0.003598 -0.000411  -0.000000 -0.000000 0.167637
9  4.486279 -0.003596 -0.000412  -0.000000 0.000000 0.166884
10  4.486212 -0.001586 -0.000412  0.282905 -0.229915 0.181556
11  0.000008 0.001563 -1.908402  -0.804945 1.839833 1.099870
12  3.867484 -0.000015 0.000001  1.614262 -0.457429 -0.574430
13  14.390590 -0.000074 0.000011  -0.000001 0.000003 -1.484145
14  11.595294 0.000017 0.000018  2.485715 0.642044 -0.283206
15  4.415174 -0.060723 -1.931061  0.349184 0.219731 1.029543
16  0.923136 0.000004 -0.000004  -0.000002 0.000000 0.608240
17  0.923144 0.000008 0.000006  -0.000000 -0.000000 0.549978
18  4.449304 -0.067593 -0.950397  0.168965 0.108863 0.999778
19  1.128472 0.000011 -0.000011  -0.000000 -0.000000 0.660654
20  1.128471 0.000017 -0.000004  0.000000 -0.000000 0.549976
21  4.416826 -0.015185 0.200530  0.066160 0.042366 0.991903
22  1.364862 0.000011 0.000009  0.000000 -0.000000 0.681462
23  1.364864 0.000011 -0.000008  -0.000000 -0.000000 0.549976
24  4.451083 -0.068737 1.121641  -0.168094 -0.110202 0.999683
25  1.107770 0.000004 -0.000001  -0.000000 0.000000 0.549978
26  1.107762 0.000000 0.000001  -0.000000 0.000000 0.549977
27  2.098170 0.045627 1.805196  -0.065391 -0.768750 0.107850
28  0.914505 -0.000005 -0.000011  0.000001 0.000001 0.000001
29  0.914508 0.000007 -0.000015  0.000000 -0.000000 -0.000000
30  -0.506888 10.620224 -2.794482  0.203185 -0.019058 1.567083
31  -0.000005 0.001565 1.908399  1.887212 -0.484391 -0.266463
32  3.867491 0.000015 -0.000005  -1.021312 -0.033889 -0.550314
33  14.390600 -0.000004 -0.000000  -0.000002 -0.000005 -1.217695
34  11.595299 0.000079 -0.000020  -1.927101 -0.515289 -0.307843
35  4.415169 -0.060696 1.931092  -0.371498 -0.178018 1.142358
36  0.923135 -0.000001 0.000021  -0.000001 0.000002 0.571016
37  0.923142 0.000007 0.000010  -0.000000 0.000001 0.571015
38  4.449307 -0.067568 0.950416  -0.174496 -0.099699 1.052903
39  1.128471 0.000008 -0.000007  -0.000001 0.000001 0.571013
40  1.128471 0.000006 0.000015  -0.000001 0.000001 0.571015
41  4.416835 -0.015157 -0.200520  -0.070691 -0.034279 1.109903
42  1.364870 0.000001 0.000003  0.000000 0.000000 0.453889
43  1.364859 0.000011 0.000003  -0.000000 0.000000 0.571015
44  4.451085 -0.068706 -1.121630  0.176530 0.096013 1.081600
45  1.107770 0.000006 0.000009  -0.000003 -0.000005 0.387761
46  1.107772 -0.000004 0.000002  -0.000000 -0.000000 0.571016
47  2.098173 0.045650 -1.805189  0.065617 0.772360 0.108183
48  0.914514 0.000011 -0.000009  0.000003 0.000000 0.000002
49  0.914516 -0.000000 -0.000007  0.000000 -0.000000 -0.000000
50  1.969137 0.000013 0.000002  -0.085980 -0.008557 -0.644439
51  -3.968307 0.006755 3.451354  -0.208112 3.137171 -0.487160
52  17.254906 -0.000147 0.002861  0.137040 0.036809 -0.420461
53  17.254898 0.000170 -0.001209  -0.026305 0.071135 0.079816
54  3.968614 5.003945 0.000005  0.000000 -0.000000 1.605703
time 7
0  0.470026 -40.029682 37.910370  0.045027 0.097545 -1.425357
1  -0.000001 0.000000 -0.000007  -0.000026 -1.570450 -1.570346
2  3.968634 -0.003573 0.000005  0.000008 -0.000092 -0.123068
3  -3.968957 0.006758 -3.450626  0.382604 3.044526 0.096679
4  17.254911 -0.000063 -0.001342  -0.112252 -0.046601 -1.412421
5  17.254910 0.000070 -0.000255  0.018502 -0.014314 -0.611825
6  3.968580 5.003977 0.000000  -0.000000 -0.000000 1.605703
7  4.486279 -0.003600 -0.000412  -0.291201 0.071429 0.378606
8  4.486277 -0.003586 -0.000411  0.000000 -0.000000 0.167637
9  4.486288 -0.003594 -0.000411  -0.000000 0.000000 0.166884
10  4.486217 -0.001594 -0.000410  0.282905 -0.229915 0.181556
11  -0.000008 0.001580 -1.908401  -0.804945 1.839833 1.099870
12  3.867488 -0.000003 0.000005  1.609786 -0.453119 -0.539541
13  14.390601 -0.000072 0.000011  -0.000001 0.000003 -1.533633
14  11.595282 0.000034 0.000027  2.444372 0.628875 -0.270386
15  4.415174 -0.060726 -1.931069  0.349184 0.219731 1.029543
16  0.923130 0.000001 -0.000012  -0.000002 0.000000 0.608240
17  0.923140 0.000007 0.000000  -0.000000 -0.000000 0.549978
18  4.449309 -0.067597 -0.950397  0.168965 0.108863 0.999778
19  1.128471 0.000010 -0.000008  -0.000000 -0.000000 0.660654
20  1.128472 0.000005 -0.000014  0.000000 -0.000000 0.549976
21  4.416833 -0.015183 0.200540  0.066160 0.042366 0.991903
22  1.364873 0.000010 -0.000006  0.000000 -0.000000 0.681462
23  1.364864 0.000011 -0.000004  -0.000000 -0.000000 0.549976
24  4.451081 -0.068738 1.121645  -0.168094 -0.110202 0.999683
25  1.107774 -0.000002 -0.000015  -0.000000 0.000000 0.549978
26  1.107771 0.000002 -0.000005  -0.000000 0.000000 0.549977
27  2.098158 0.045618 1.805196  -0.065391 -0.768750 0.107850
28  0.914512 -0.000007 0.000001  0.000001 0.000001 0.000001
29  0.914508 0.000003 0.000018  0.000000 -0.000000 -0.000000
30  -0.506830 10.620109 -2.794634  0.203185 -0.019059 1.567083
31  -0.000019 0.001559 1.908399  1.887213 -0.484391 -0.266463
32  3.867492 -0.000007 -0.000006  -1.047083 -0.015611 -0.574845
33  14.390605 -0.000013 -0.000005  -0.000002 -0.000005 -1.192916
34  11.595294 0.000077 -0.000010  -1.932776 -0.539009 -0.365076
35  4.415177 -0.060700 1.931087  -0.371498 -0.178018 1.142358
36  0.923135 0.000008 0.000001  -0.000001 0.000002 0.571016
37  0.923153 0.000019 0.000010  -0.000000 0.000001 0.571015
38  4.449303 -0.067574 0.950413  -0.174496 -0.099699 1.052903
39  1.128468 0.000004 0.000002  -0.000001 0.000001 0.571013
40  1.128469 0.000011 0.000000  -0.000001 0.000001 0.571016
41  4.416832 -0.015167 -0.200526  -0.070691 -0.034279 1.109903
42  1.364869 0.000011 -0.000001  -0.000000 0.000000 0.453889
43  1.364860 0.000003 -0.000002  -0.000000 0.000000 0.571015
44  4.451068 -0.068713 -1.121626  0.176530 0.096013 1.081600
45  1.107766 0.000009 0.000010  -0.000003 -0.000005 0.387761
46  1.107769 -0.000007 0.000013  0.000000 -0.000000 0.571015
47  2.098161 0.045638 -1.805191  0.065617 0.772360 0.108183
48  0.914512 0.000012 -0.000003  0.000003 0.000000 0.000002
49  0.914519 -0.000004 0.000009  0.000000 -0.000000 -0.000000
50  1.969123 0.000021 0.000001  -0.085980 -0.008557 -0.644439
51  -3.968326 0.006730 3.451353  -0.219321 3.090932 -0.153968
52  17.254911 -0.000145 0.002861  0.140683 0.000997 -0.019247
53  17.254908 0.000170 -0.001207  -0.028979 0.021122 -0.149471
54  3.968615 5.003942 0.000006  -0.000000 0.000000 1.605710
time 8
0  0.745659 -45.424232 37.690155  0.048030 0.099683 -1.403299
1  0.000000 0.000000 -0.000002  0.000007 -1.570450 -1.570382
2  3.968639 -0.003570 0.000005  0.000008 -0.000092 -0.123068
3  -3.968946 0.006772 -3.450628  0.352232 2.986158 -0.223441
4  17.254896 -0.000057 -0.001341  -0.057060 -0.062701 -1.792387
5  17.254913 0.000075 -0.000255  0.086341 -0.063579 -0.622387
6  3.968582 5.003981 0.000000  -0.000000 -0.000000 1.605703
7  4.486289 -0.003587 -0.000411  -0.291201 0.071429 0.378606
8  4.486282 -0.003581 -0.000412  -0.000000 -0.000000 0.167637
9  4.486290 -0.003584 -0.000412  -0.000000 0.000000 0.166884
10  4.486226 -0.001581 -0.000411  0.282905 -0.229915 0.181556
11  -0.000004 0.001573 -1.908398  -0.804945 1.839833 1.099870
12  3.867488 0.000001 0.000005  1.618990 -0.439609 -0.511606
13  14.390593 -0.000075 0.000010  -0.000001 0.000003 -1.560371
14  11.595290 0.000034 0.000020  2.418362 0.615249 -0.256531
15  4.415182 -0.060710 -1.931078  0.349184 0.219731 1.029543
16  0.923140 0.000006 -0.000003  -0.000002 0.000000 0.608240
17  0.923145 0.000008 -0.000009  -0.000000 -0.000000 0.549978
18  4.449300 -0.067582 -0.950397  0.168965 0.108862 0.999778
19  1.128462 0.000009 0.000008  -0.000000 -0.000000 0.660654
20  1.128477 -0.000003 -0.000016  0.000000 -0.000000 0.549976
21  4.416833 -0.015180 0.200530  0.066160 0.042366 0.991903
22  1.364868 0.000013 -0.000007  -0.000000 -0.000000 0.681461
23  1.364866 -0.000000 -0.000021  -0.000000 -0.000000 0.549976
24  4.451072 -0.068733 1.121649  -0.168094 -0.110202 0.999683
25  1.107772 0.000007 0.000007  -0.000000 0.000000 0.549978
26  1.107770 0.000003 -0.000005  -0.000000 0.000000 0.549977
27  2.098165 0.045632 1.805196  -0.065391 -0.768750 0.107850
28  0.914507 -0.000003 0.000003  0.000001 0.000001 0.000001
29  0.914513 0.000001 -0.000008  0.000000 -0.000000 -0.000000
30  -0.507076 10.620784 -2.793746  0.203188 -0.019054 1.567079
31  -0.000010 0.001557 1.908401  1.887212 -0.484391 -0.266463
32  3.867480 0.000000 -0.000001  -1.060527 -0.029300 -0.595876
33  14.390595 0.000000 -0.000012  -0.000002 -0.000004 -1.153179
34  11.595288 0.000085 -0.000012  -1.945949 -0.558298 -0.407918
35  4.415176 -0.060698 1.931088  -0.371498 -0.178018 1.142358
36  0.923137 0.000000 0.000013  -0.000001 0.000002 0.571016
37  0.923143 -0.000001 0.000002  -0.000000 0.000001 0.571015
38  4.449296 -0.067583 0.950414  -0.174496 -0.099699 1.052902
39  1.128469 0.000006 0.000010  -0.000001 0.000001 0.571013
40  1.128478 0.000018 -0.000000  -0.000001 0.000001 0.571015
41  4.416829 -0.015165 -0.200514  -0.070691 -0.034279 1.109903
42  1.364870 -0.000008 0.000008  0.000000 0.000000 0.453889
43  1.364857 0.000002 0.000003  -0.000000 0.000000 0.571015
44  4.451081 -0.068720 -1.121619  0.176530 0.096013 1.081600
45  1.107763 0.000015 0.000014  -0.000003 -0.000005 0.387761
46  1.107772 0.000001 -0.000013  -0.000000 -0.000000 0.571015
47  2.098161 0.045630 -1.805193  0.065617 0.772360 0.108183
48  0.914520 0.000005 -0.000005  0.000003 0.000000 0.000002
49  0.914511 0.000004 0.000001  0.000000 -0.000000 0.000000
50  1.969147 0.000016 0.000001  -0.085980 -0.008556 -0.644439
51  -3.968311 0.006745 3.451353  -0.180901 3.116115 -0.180765
52  17.254910 -0.000129 0.002858  0.129926 0.017635 -0.382264
53  17.254904 0.000161 -0.001207  -0.033655 0.020536 0.208613
54  3.968615 5.003944 0.000006  0.000000 -0.000000 1.522807
time 9
0  0.992408 -50.818787 37.403877  0.042497 0.108253 -1.394345
1  -0.000001 -0.000001 -0.000002  -0.000003 -1.570450 -1.570370
2  3.968643 -0.003571 0.000006  0.000008 -0.000092 -0.123068
3  -3.968960 0.006764 -3.450629  0.261919 2.985232 -0.590797
4  17.254908 -0.000063 -0.001342  -0.058315 -0.102100 -2.018631
5  17.254910 0.000077 -0.000255  0.088376 -0.095769 -0.580478
6  3.968576 5.003977 0.000001  -0.000000 -0.000000 1.605703
7  4.486279 -0.003592 -0.000411  -0.291201 0.071429 0.378606
8  4.486294 -0.003592 -0.000412  -0.000000 0.000000 0.167637
9  4.486283 -0.003597 -0.000411  0.000000 0.000000 0.166884
10  4.486192 -0.001581 -0.000411  0.282905 -0.229915 0.181557
11  0.000010 0.001580 -1.908400  -0.804945 1.839833 1.099871
12  3.867486 0.000001 0.000007  1.635390 -0.424518 -0.491698
13  14.390606 -0.000076 0.000004  -0.000001 0.000003 -1.558198
14  11.595294 0.000022 0.000017  2.408957 0.605133 -0.250463
15  4.415179 -0.060730 -1.931049  0.349184 0.219731 1.029543
16  0.923134 0.000008 -0.000011  -0.000002 0.000000 0.608240
17  0.923137 0.000013 -0.000011  -0.000000 -0.000000 0.549978
18  4.449294 -0.067602 -0.950384  0.168965 0.108862 0.999778
19  1.128469 0.000012 0.000005  -0.000000 -0.000000 0.660654
20  1.128470 0.000006 -0.000006  0.000000 -0.000000 0.549976
21  4.416833 -0.015187 0.200539  0.066160 0.042366 0.991903
22  1.364867 0.000014 0.000004  -0.000000 0.000000 0.681462
23  1.364871 0.000005 -0.000011  -0.000000 -0.000000 0.549976
24  4.451076 -0.068741 1.121642  -0.168094 -0.110202 0.999683
25  1.107766 0.000002 0.000001  -0.000000 0.000000 0.549978
26  1.107775 -0.000000 0.000006  -0.000000 0.000000 0.549977
27  2.098166 0.045627 1.805201  -0.065391 -0.768750 0.107850
28  0.914510 -0.000003 0.000018  0.000001 0.000001 0.000001
29  0.914519 -0.000002 0.000000  0.000000 -0.000000 -0.000000
30  -0.506775 10.619867 -2.794847  0.203184 -0.019060 1.567084
31  0.000000 0.001564 1.908399  1.887212 -0.484391 -0.266463
32  3.867473 -0.000001 0.000000  -1.059458 -0.066968 -0.617052
33  14.390593 -0.000010 -0.000004  -0.000002 -0.000004 -1.100046
34  11.595302 0.000092 0.000004  -1.959474 -0.570952 -0.437660
35  4.415174 -0.060701 1.931090  -0.371498 -0.178018 1.142358
36  0.923137 0.000004 0.000010  -0.000001 0.000002 0.571016
37  0.923135 0.000008 -0.000005  -0.000000 0.000001 0.571015
38  4.449305 -0.067573 0.950410  -0.174496 -0.099699 1.052903
39  1.128469 0.000012 -0.000000  -0.000001 0.000001 0.571013
40  1.128474 0.000015 0.000008  -0.000001 0.000001 0.571016
41  4.416831 -0.015171 -0.200525  -0.070691 -0.034279 1.109903
42  1.364868 0.000006 0.000005  0.000000 0.000000 0.453889
43  1.364857 0.000005 0.000007  -0.000000 0.000000 0.571015
44  4.451091 -0.068708 -1.121616  0.176530 0.096013 1.081600
45  1.107768 0.000003 0.000018  -0.000003 -0.000005 0.387761
46  1.107766 -0.000003 0.000008  -0.000000 -0.000000 0.571016
47  2.098167 0.045639 -1.805189  0.065617 0.772360 0.108183
48  0.914504 0.000010 -0.000005  0.000003 0.000000 0.000002
49  0.914500 0.000010 0.000009  -0.000000 -0.000000 0.000000
50  1.969149 0.000025 0.000001  -0.085980 -0.008557 -0.644439
51  -3.968328 0.006749 3.451355  -0.137199 -3.130519 -0.165978
52  17.254908 -0.000144 0.002864  0.113102 0.011086 -0.608195
53  17.254900 0.000167 -0.001209  -0.047913 0.000822 0.261340
54  3.968615 5.003939 0.000007  0.000000 0.000000 1.788957
time 10
0  1.191683 -56.213329 37.117599  0.031983 0.115528 -1.400998
1  0.000007 0.000002 0.000002  -0.000005 -1.570450 -1.570374
2  3.968639 -0.003569 0.000004  0.000008 -0.000092 -0.123068
3  -3.968954 0.006766 -3.450628  0.121490 3.022948 -0.864298
4  17.254910 -0.000055 -0.001341  -0.054145 -0.113453 -2.090187
5  17.254910 0.000077 -0.000256  0.100899 -0.136697 -0.391457
6  3.968586 5.003977 0.000003  0.000001 -0.000000 1.605703
7  4.486283 -0.003602 -0.000411  -0.291201 0.071429 0.378606
8  4.486284 -0.003589 -0.000411  0.000000 -0.000000 0.167637
9  4.486279 -0.003585 -0.000412  -0.000000 0.000000 0.166884
10  4.486215 -0.001581 -0.000411  0.282905 -0.229915 0.181556
11  -0.000002 0.001575 -1.908400  -0.804945 1.839833 1.099871
12  3.867484 0.000020 0.000006  1.643609 -0.414002 -0.486159
13  14.390585 -0.000074 0.000006  -0.000001 0.000003 -1.529579
14  11.595295 0.000021 0.000011  2.411199 0.605948 -0.258629
15  4.415179 -0.060731 -1.931072  0.349184 0.219732 1.029543
16  0.923145 0.000000 -0.000001  -0.000002 0.000000 0.608240
17  0.923145 0.000005 0.000001  -0.000000 -0.000000 0.549978
18  4.449304 -0.067594 -0.950396  0.168965 0.108863 0.999778
19  1.128482 0.000013 -0.000007  -0.000000 -0.000000 0.660654
20  1.128471 0.000006 -0.000019  0.000000 -0.000000 0.549976
21  4.416828 -0.015188 0.200542  0.066160 0.042366 0.991903
22  1.364870 0.000009 0.000012  0.000000 -0.000000 0.681461
23  1.364869 0.000001 0.000002  -0.000000 -0.000000 0.549976
24  4.451077 -0.068740 1.121638  -0.168094 -0.110202 0.999683
25  1.107764 0.000006 0.000007  -0.000000 0.000000 0.549978
26  1.107770 -0.000005 -0.000012  -0.000000 0.000000 0.549977
27  2.098163 0.045626 1.805214  -0.065391 -0.768750 0.107850
28  0.914509 -0.000000 0.000003  0.000001 0.000001 0.000001
29  0.914517 0.000002 -0.000011  0.000000 -0.000000 -0.000000
30  -0.506910 10.620245 -2.794374  0.203186 -0.019057 1.567082
31  -0.000008 0.001566 1.908401  1.887212 -0.484391 -0.266463
32  3.867483 0.000009 0.000000  -1.049104 -0.105889 -0.636382
33  14.390597 -0.000006 -0.000006  -0.000003 -0.000004 -1.042931
34  11.595298 0.000094 -0.000011  -1.965091 -0.571433 -0.459542
35  4.415188 -0.060695 1.931072  -0.371498 -0.178018 1.142358
36  0.923134 0.000001 0.000024  -0.000001 0.000002 0.571016
37  0.923148 0.000008 0.000008  -0.000000 0.000001 0.571015
38  4.449322 -0.067571 0.950405  -0.174496 -0.099699 1.052903
39  1.128465 0.000004 0.000002  -0.000001 0.000001 0.571013
40  1.128475 0.000014 0.000001  -0.000001 0.000001 0.571015
41  4.416838 -0.015169 -0.200535  -0.070691 -0.034279 1.109903
42  1.364865 0.000003 0.000003  0.000000 0.000000 0.453889
43  1.364862 -0.000001 0.000005  -0.000000 0.000000 0.571015
44  4.451084 -0.068711 -1.121621  0.176530 0.096013 1.081600
45  1.107769 0.000009 0.000008  -0.000003 -0.000005 0.387761
46  1.107769 -0.000003 0.000004  -0.000000 -0.000000 0.571015
47  2.098158 0.045644 -1.805197  0.065617 0.772360 0.108183
48  0.914492 0.000022 -0.000008  0.000003 0.000000 0.000002
49  0.914499 0.000006 -0.000005  -0.000000 -0.000000 0.000000
50  1.969146 0.000020 -0.000000  -0.085980 -0.008557 -0.644439
51  -3.968305 0.006733 3.451354  -0.095257 -3.113454 -0.037452
52  17.254904 -0.000140 0.002860  0.097615 -0.003185 -0.639083
53  17.254902 0.000175 -0.001210  -0.061547 -0.019930 0.268507
54  3.968614 5.003947 0.000004  0.000000 0.000000 1.828218
time 11
0  1.324893 -61.607883 36.897385  0.021438 0.117189 -1.422787
1  0.000001 -0.000001 0.000001  -0.000022 -1.570450 -1.570383
2  3.968638 -0.003570 0.000005  0.000008 -0.000092 -0.123068
3  -3.968969 0.006761 -3.450627  0.080292 2.953350 -0.946759
4  17.254906 -0.000061 -0.001341  -0.057636 -0.076076 -1.892580
5  17.254906 0.000073 -0.000254  0.095379 -0.063063 -0.109608
6  3.968582 5.003977 0.000001  -0.000000 -0.000000 1.605703
7  4.486283 -0.003590 -0.000412  -0.291201 0.071429 0.378606
8  4.486270 -0.003577 -0.000411  0.000000 -0.000000 0.167637
9  4.486282 -0.003593 -0.000411  -0.000000 0.000000 0.166884
10  4.486205 -0.001585 -0.000411  0.282905 -0.229915 0.181557
11  0.000008 0.001559 -1.908399  -0.804945 1.839833 1.099871
12  3.867486 -0.000006 -0.000003  1.636629 -0.410198 -0.499433
13  14.390595 -0.000069 0.000014  -0.000001 0.000003 -1.485209
14  11.595287 0.000011 0.000025  2.421436 0.620107 -0.278278
15  4.415185 -0.060715 -1.931071  0.349184 0.219731 1.029543
16  0.923132 0.000002 0.000008  -0.000002 0.000000 0.608240
17  0.923144 -0.000010 -0.000009  -0.000000 -0.000000 0.549977
18  4.449317 -0.067585 -0.950385  0.168965 0.108863 0.999778
19  1.128462 0.000017 -0.000004  -0.000000 -0.000000 0.660654
20  1.128475 0.000004 0.000005  0.000000 -0.000000 0.549976
21  4.416824 -0.015180 0.200541  0.066160 0.042366 0.991903
22  1.364880 0.000004 -0.000008  -0.000000 0.000000 0.681461
23  1.364868 -0.000002 0.000002  -0.000000 -0.000000 0.549976
24  4.451074 -0.068733 1.121638  -0.168094 -0.110202 0.999683
25  1.107773 0.000005 0.000002  -0.000000 0.000000 0.549978
26  1.107771 -0.000001 0.000021  -0.000000 0.000000 0.549977
27  2.098162 0.045625 1.805212  -0.065391 -0.768750 0.107850
28  0.914514 0.000007 0.000009  0.000001 0.000001 0.000001
29  0.914518 0.000000 0.000012  0.000000 -0.000000 -0.000000
30  -0.506766 10.619889 -2.794824  0.203184 -0.019060 1.567084
31  0.000011 0.001561 1.908401  1.887212 -0.484391 -0.266463
32  3.867481 -0.000002 0.000005  -1.036367 -0.128034 -0.647081
33  14.390576 -0.000014 -0.000011  -0.000003 -0.000004 -0.999169
34  11.595291 0.000094 -0.000014  -1.959482 -0.557474 -0.471465
35  4.415170 -0.060694 1.931083  -0.371498 -0.178018 1.142358
36  0.923134 0.000013 0.000014  -0.000001 0.000002 0.571016
37  0.923141 0.000007 0.000012  -0.000000 0.000001 0.571015
38  4.449309 -0.067562 0.950407  -0.174496 -0.099699 1.052903
39  1.128473 0.000011 0.000009  -0.000001 0.000001 0.571013
40  1.128471 0.000014 0.000003  -0.000001 0.000001 0.571015
41  4.416834 -0.015168 -0.200524  -0.070691 -0.034279 1.109903
42  1.364868 0.000002 -0.000018  0.000000 0.000000 0.453889
43  1.364858 -0.000005 0.000003  -0.000000 0.000000 0.571015
44  4.451090 -0.068709 -1.121638  0.176530 0.096013 1.081600
45  1.107767 0.000009 0.000018  -0.000003 -0.000005 0.387761
46  1.107770 -0.000003 -0.000005  -0.000000 -0.000000 0.571016
47  2.098176 0.045637 -1.805195  0.065617 0.772360 0.108183
48  0.914518 0.000005 0.000003  0.000003 0.000000 0.000002
49  0.914503 -0.000001 0.000001  0.000000 -0.000000 0.000000
50  1.969153 0.000014 0.000000  -0.085980 -0.008557 -0.644439
51  -3.968318 0.006748 3.451354  -0.068216 -3.091399 0.092514
52  17.254908 -0.000136 0.002859  0.099041 -0.013079 -0.608014
53  17.254890 0.000163 -0.001208  -0.058176 -0.043371 0.060327
54  3.968616 5.003948 0.000007  0.000000 -0.000000 2.188342
time 12
0  1.373450 -67.002426 36.809299  0.011813 0.111371 -1.455149
1  -0.000006 0.000001 0.000002  -0.000027 -1.570450 -1.570388
2  3.968637 -0.003573 0.000005  0.000008 -0.000092 -0.123068
3  -3.968936 0.006768 -3.450629  0.081147 2.892558 -1.005696
4  17.254892 -0.000045 -0.001345  -0.034873 -0.035795 -1.672813
5  17.254913 0.000079 -0.000257  0.111877 0.013210 0.107359
6  3.968567 5.003980 0.000001  -0.000000 -0.000000 1.605703
7  4.486286 -0.003594 -0.000412  -0.291201 0.071429 0.378606
8  4.486284 -0.003585 -0.000414  -0.000000 0.000000 0.167637
9  4.486280 -0.003590 -0.000412  0.000000 -0.000000 0.166884
10  4.486210 -0.001596 -0.000410  0.282905 -0.229915 0.181556
11  0.000010 0.001580 -1.908400  -0.804945 1.839833 1.099871
12  3.867483 -0.000012 0.000007  1.615235 -0.418341 -0.528012
13  14.390588 -0.000098 0.000002  -0.000001 0.000003 -1.434202
14  11.595293 0.000013 0.000028  2.437268 0.644960 -0.308718
15  4.415182 -0.060726 -1.931062  0.349184 0.219731 1.029543
16  0.923139 0.000000 -0.000003  -0.000002 0.000000 0.608240
17  0.923140 -0.000003 0.000001  -0.000000 -0.000000 0.549978
18  4.449306 -0.067595 -0.950385  0.168965 0.108863 0.999778
19  1.128486 0.000016 -0.000007  -0.000000 -0.000000 0.660654
20  1.128477 0.000002 0.000003  0.000000 -0.000000 0.549976
21  4.416825 -0.015188 0.200545  0.066160 0.042366 0.991903
22  1.364874 0.000006 0.000002  -0.000000 -0.000000 0.681462
23  1.364866 0.000004 -0.000008  -0.000000 -0.000000 0.549976
24  4.451082 -0.068735 1.121628  -0.168094 -0.110202 0.999683
25  1.107773 0.000009 -0.000005  -0.000000 0.000000 0.549978
26  1.107764 0.000008 0.000001  -0.000000 0.000000 0.549977
27  2.098155 0.045625 1.805193  -0.065391 -0.768750 0.107850
28  0.914494 -0.000002 0.000002  0.000001 0.000001 0.000001
29  0.914510 0.000004 0.000003  0.000000 -0.000000 -0.000000
30  -0.506816 10.619894 -2.794749  0.203184 -0.019059 1.567084
31  -0.000011 0.001579 1.908402  1.887212 -0.484391 -0.266463
32  3.867485 0.000002 0.000003  -1.024882 -0.123548 -0.650537
33  14.390585 0.000006 -0.000004  -0.000003 -0.000004 -0.982106
34  11.595288 0.000069 -0.000018  -1.939201 -0.531987 -0.472403
35  4.415174 -0.060699 1.931073  -0.371498 -0.178018 1.142358
36  0.923135 0.000016 0.000006  -0.000001 0.000002 0.571016
37  0.923137 0.000002 0.000011  -0.000000 0.000001 0.571015
38  4.449305 -0.067586 0.950413  -0.174496 -0.099699 1.052903
39  1.128467 0.000001 0.000000  -0.000001 0.000001 0.571013
40  1.128477 0.000011 0.000025  -0.000001 0.000001 0.571015
41  4.416841 -0.015172 -0.200540  -0.070691 -0.034279 1.109903
42  1.364867 0.000002 0.000016  -0.000000 0.000000 0.453889
43  1.364860 0.000004 0.000014  -0.000000 0.000000 0.571015
44  4.451095 -0.068726 -1.121609  0.176530 0.096013 1.081600
45  1.107770 0.000000 0.000013  -0.000003 -0.000005 0.387761
46  1.107766 -0.000001 -0.000020  -0.000000 -0.000000 0.571015
47  2.098157 0.045629 -1.805192  0.065617 0.772360 0.108183
48  0.914512 0.000007 -0.000001  0.000003 0.000000 0.000002
49  0.914523 0.000004 0.000001  0.000000 -0.000000 0.000000
50  1.969146 0.000033 0.000002  -0.085980 -0.008557 -0.644439
51  -3.968302 0.006740 3.451353  -0.046307 -3.083180 0.188568
52  17.254898 -0.000135 0.002861  0.101358 -0.018429 -0.666806
53  17.254900 0.000170 -0.001209  -0.050363 -0.046858 -0.116482
54  3.968612 5.003942 0.000006  -0.000000 0.000000 2.042678
time 13
0  1.311505 -72.396988 36.932972  0.002248 0.096829 -1.493675
1  -0.000002 -0.000000 -0.000007  -0.000016 -1.570450 -1.570398
2  3.968641 -0.003580 0.000006  0.000008 -0.000092 -0.123068
3  -3.968947 0.006737 -3.450627  0.105815 2.892725 -0.952029
4  17.254913 -0.000060 -0.001344  -0.028749 -0.026118 -1.421535
5  17.254927 0.000059 -0.000252  0.115619 0.007043 0.169488
6  3.968585 5.003964 -0.000005  -0.000000 -0.000000 1.605703
7  4.486290 -0.003604 -0.000411  -0.291201 0.071429 0.378606
8  4.486286 -0.003597 -0.000412  -0.000000 0.000000 0.167637
9  4.486291 -0.003595 -0.000413  0.000000 0.000000 0.166884
10  4.486226 -0.001577 -0.000412  0.282905 -0.229915 0.181556
11  -0.000006 0.001569 -1.908398  -0.804945 1.839833 1.099870
12  3.867488 0.000002 0.000007  1.581423 -0.444537 -0.566780
13  14.390611 -0.000082 0.000007  -0.000001 0.000003 -1.380564
14  11.595287 0.000023 0.000018  2.457149 0.677512 -0.352534
15  4.415182 -0.060717 -1.931084  0.349184 0.219732 1.029543
16  0.923131 0.000011 0.000008  -0.000002 0.000000 0.608240
17  0.923132 0.000016 -0.000001  -0.000000 -0.000000 0.549978
18  4.449307 -0.067584 -0.950399  0.168965 0.108863 0.999778
19  1.128469 0.000012 0.000000  -0.000000 -0.000000 0.660654
20  1.128473 0.000006 0.000010  0.000000 -0.000000 0.549976
21  4.416836 -0.015184 0.200536  0.066160 0.042366 0.991903
22  1.364879 0.000010 -0.000005  0.000000 -0.000000 0.681462
23  1.364863 0.000009 0.000003  -0.000000 -0.000000 0.549976
24  4.451084 -0.068738 1.121633  -0.168094 -0.110202 0.999683
25  1.107772 0.000007 0.000000  -0.000000 0.000000 0.549978
26  1.107766 -0.000006 0.000005  -0.000000 0.000000 0.549977
27  2.098166 0.045629 1.805204  -0.065391 -0.768750 0.107850
28  0.914505 0.000006 0.000003  0.000001 0.000001 0.000001
29  0.914509 0.000005 -0.000010  0.000000 -0.000000 -0.000000
30  -0.506766 10.619846 -2.794872  0.203184 -0.019060 1.567085
31  -0.000007 0.001561 1.908401  1.887212 -0.484391 -0.266463
32  3.867490 0.000001 0.000004  -1.015306 -0.086442 -0.651034
33  14.390591 -0.000005 0.000006  -0.000003 -0.000004 -1.000256
34  11.595299 0.000084 -0.000017  -1.900755 -0.498708 -0.461441
35  4.415166 -0.060691 1.931080  -0.371498 -0.178018 1.142358
36  0.923135 0.000001 0.000009  -0.000001 0.000002 0.571016
37  0.923142 0.000008 0.000016  -0.000000 0.000001 0.571015
38  4.449306 -0.067573 0.950407  -0.174496 -0.099699 1.052903
39  1.128468 0.000008 0.000021  -0.000001 0.000001 0.571013
40  1.128476 0.000023 -0.000008  -0.000001 0.000001 0.571015
41  4.416843 -0.015161 -0.200534  -0.070691 -0.034279 1.109903
42  1.364871 -0.000003 -0.000012  0.000000 0.000000 0.453889
43  1.364860 -0.000002 -0.000004  -0.000000 0.000000 0.571015
44  4.451085 -0.068711 -1.121628  0.176530 0.096013 1.081600
45  1.107775 0.000015 0.000021  -0.000003 -0.000005 0.387761
46  1.107766 -0.000004 0.000008  0.000000 -0.000000 0.571015
47  2.098182 0.045640 -1.805208  0.065617 0.772360 0.108183
48  0.914518 0.000008 0.000004  0.000003 0.000000 0.000002
49  0.914510 -0.000001 -0.000013  -0.000000 -0.000000 0.000000
50  1.969136 0.000012 0.000002  -0.085980 -0.008557 -0.644439
51  -3.968314 0.006735 3.451354  -0.047205 -3.128648 0.288493
52  17.254908 -0.000143 0.002859  0.091510 -0.010007 -0.742035
53  17.254900 0.000170 -0.001207  -0.058604 -0.010245 -0.279181
54  3.968619 5.003947 0.000006  -0.000000 0.000000 1.536214
time 14
0  1.140016 -77.791542 37.227882  -0.007724 0.074383 -1.533510
1  -0.000006 -0.000000 0.000001  0.000051 -1.570450 -1.570435
2  3.968642 -0.003570 0.000006  0.000008 -0.000092 -0.123068
3  -3.968949 0.006762 -3.450628  0.151131 2.929329 -0.818899
4  17.254906 -0.000046 -0.001344  -0.036199 -0.031117 -1.119321
5  17.254904 0.000074 -0.000253  0.104999 -0.028298 0.157335
6  3.968578 5.003989 0.000001  -0.000000 0.000000 1.605703
7  4.486279 -0.003597 -0.000411  -0.291201 0.071429 0.378606
8  4.486268 -0.003598 -0.000410  -0.000000 -0.000000 0.167637
9  4.486293 -0.003591 -0.000412  -0.000000 -0.000000 0.166884
10  4.486221 -0.001587 -0.000414  0.282905 -0.229915 0.181556
11  0.000006 0.001572 -1.908401  -0.804945 1.839833 1.099870
12  3.867488 -0.000001 -0.000006  1.540633 -0.483440 -0.610518
13  14.390596 -0.000060 -0.000005  -0.000001 0.000003 -1.319102
14  11.595284 0.000032 0.000021  2.478448 0.712972 -0.411523
15  4.415188 -0.060723 -1.931071  0.349184 0.219731 1.029543
16  0.923146 0.000002 -0.000002  -0.000002 0.000000 0.608240
17  0.923140 0.000007 0.000016  -0.000000 -0.000000 0.549978
18  4.449310 -0.067590 -0.950386  0.168965 0.108863 0.999778
19  1.128472 0.000014 -0.000010  -0.000000 -0.000000 0.660654
20  1.128468 0.000002 -0.000014  0.000000 -0.000000 0.549976
21  4.416830 -0.015186 0.200534  0.066160 0.042366 0.991903
22  1.364871 0.000005 -0.000005  0.000000 -0.000000 0.681462
23  1.364868 0.000011 -0.000012  -0.000000 -0.000000 0.549976
24  4.451077 -0.068735 1.121650  -0.168094 -0.110202 0.999683
25  1.107760 0.000007 -0.000011  -0.000000 0.000000 0.549978
26  1.107772 -0.000006 0.000025  -0.000000 0.000000 0.549977
27  2.098168 0.045631 1.805203  -0.065391 -0.768750 0.107850
28  0.914506 0.000001 -0.000004  0.000001 0.000001 0.000001
29  0.914504 0.000009 -0.000007  0.000000 -0.000000 -0.000000
30  -0.506811 10.620071 -2.794660  0.203184 -0.019059 1.567084
31  -0.000010 0.001568 1.908401  1.887213 -0.484391 -0.266463
32  3.867486 0.000005 -0.000000  -1.006449 -0.024239 -0.653383
33  14.390604 -0.000022 -0.000008  -0.000003 -0.000004 -1.041818
34  11.595285 0.000076 -0.000004  -1.847204 -0.462295 -0.443563
35  4.415178 -0.060706 1.931094  -0.371498 -0.178018 1.142358
36  0.923135 0.000004 0.000001  -0.000001 0.000002 0.571016
37  0.923131 0.000014 0.000013  -0.000000 0.000001 0.571015
38  4.449304 -0.067578 0.950430  -0.174496 -0.099699 1.052902
39  1.128466 0.000013 0.000010  -0.000001 0.000001 0.571013
40  1.128480 0.000021 0.000012  -0.000001 0.000001 0.571015
41  4.416834 -0.015166 -0.200510  -0.070691 -0.034279 1.109903
42  1.364866 0.000004 0.000021  0.000000 0.000000 0.453889
43  1.364859 0.000002 0.000013  -0.000000 0.000000 0.571015
44  4.451084 -0.068713 -1.121618  0.176530 0.096013 1.081600
45  1.107772 0.000017 0.000018  -0.000003 -0.000005 0.387761
46  1.107767 0.000007 -0.000011  -0.000000 -0.000000 0.571015
47  2.098176 0.045635 -1.805193  0.065617 0.772360 0.108183
48  0.914513 0.000007 0.000000  0.000003 0.000000 0.000002
49  0.914506 0.000006 -0.000007  0.000000 -0.000000 -0.000000
50  1.969138 0.000017 0.000002  -0.085980 -0.008557 -0.644439
51  -3.968317 0.006753 3.451355  -0.067042 3.103241 0.350632
52  17.254923 -0.000135 0.002860  0.077822 0.007848 -0.880980
53  17.254913 0.000168 -0.001208  -0.073214 0.023049 -0.414161
54  3.968620 5.003947 0.000006  -0.000001 0.000000 1.605703
time 15
0  0.880600 -83.186096 37.579872  -0.017028 0.050059 -1.569755
1  -0.000007 0.000000 -0.000002  -0.000006 -1.570450 -1.570393
2  3.968634 -0.003577 0.000006  0.000008 -0.000092 -0.123068
3  -3.968960 0.006760 -3.450627  0.214206 3.022418 -0.638791
4  17.254904 -0.000059 -0.001336  -0.047645 -0.044452 -0.731916
5  17.254911 0.000061 -0.000252  0.093047 -0.094760 0.107018
6  3.968578 5.003978 0.000001  -0.000000 0.000000 1.605703
7  4.486279 -0.003587 -0.000411  -0.291201 0.071429 0.378606
8  4.486278 -0.003599 -0.000417  0.000000 -0.000000 0.167637
9  4.486282 -0.003601 -0.000413  0.000000 0.000000 0.166884
10  4.486212 -0.001579 -0.000413  0.282905 -0.229915 0.181557
11  0.000003 0.001582 -1.908399  -0.804945 1.839833 1.099871
12  3.867483 0.000021 0.000006  1.505506 -0.520454 -0.654778
13  14.390606 -0.000070 0.000000  -0.000000 0.000003 -1.248041
14  11.595284 0.000040 0.000028  2.501261 0.743281 -0.476875
15  4.415183 -0.060716 -1.931088  0.349184 0.219731 1.029543
16  0.923135 0.000002 0.000013  -0.000002 0.000000 0.608240
17  0.923132 0.000009 0.000003  -0.000000 -0.000000 0.549978
18  4.449286 -0.067586 -0.950409  0.168965 0.108863 0.999778
19  1.128475 0.000009 0.000009  -0.000000 -0.000000 0.660654
20  1.128475 -0.000008 -0.000019  0.000000 -0.000000 0.549976
21  4.416824 -0.015181 0.200537  0.066160 0.042366 0.991903
22  1.364869 0.000005 0.000004  0.000000 -0.000000 0.681461
23  1.364864 0.000004 -0.000004  -0.000000 -0.000000 0.549976
24  4.451076 -0.068739 1.121634  -0.168094 -0.110202 0.999683
25  1.107766 0.000014 -0.000013  -0.000000 0.000000 0.549978
26  1.107773 -0.000015 0.000000  -0.000000 0.000000 0.549977
27  2.098157 0.045630 1.805197  -0.065391 -0.768750 0.107850
28  0.914518 -0.000001 -0.000002  0.000001 0.000001 0.000001
29  0.914505 -0.000001 0.000008  0.000000 -0.000000 -0.000000
30  -0.506735 10.619817 -2.794960  0.203183 -0.019060 1.567085
31  -0.000003 0.001572 1.908399  1.887212 -0.484391 -0.266463
32  3.867468 -0.000004 -0.000012  -0.995537 0.042074 -0.655999
33  14.390601 -0.000030 -0.000012  -0.000002 -0.000004 -1.090225
34  11.595300 0.000078 -0.000011  -1.790742 -0.429035 -0.419458
35  4.415172 -0.060692 1.931089  -0.371498 -0.178018 1.142358
36  0.923137 0.000001 0.000008  -0.000001 0.000002 0.571016
37  0.923144 0.000014 0.000007  -0.000000 0.000001 0.571015
38  4.449307 -0.067561 0.950408  -0.174496 -0.099699 1.052903
39  1.128470 0.000004 -0.000002  -0.000001 0.000001 0.571013
40  1.128467 0.000002 0.000004  -0.000001 0.000001 0.571015
41  4.416827 -0.015158 -0.200509  -0.070691 -0.034279 1.109903
42  1.364866 0.000005 -0.000005  0.000000 0.000000 0.453889
43  1.364853 0.000008 0.000005  -0.000000 0.000000 0.571015
44  4.451087 -0.068707 -1.121625  0.176530 0.096013 1.081600
45  1.107770 0.000019 0.000003  -0.000003 -0.000005 0.387761
46  1.107769 -0.000003 0.000013  0.000000 -0.000000 0.571015
47  2.098154 0.045642 -1.805185  0.065617 0.772360 0.108183
48  0.914509 0.000014 0.000005  0.000003 0.000000 0.000002
49  0.914518 -0.000003 -0.000005  0.000000 -0.000000 -0.000000
50  1.969137 0.000023 0.000001  -0.085980 -0.008556 -0.644439
51  -3.968325 0.006735 3.451354  -0.140438 3.099859 0.174252
52  17.254890 -0.000146 0.002861  0.076967 0.027900 -1.375634
53  17.254881 0.000173 -0.001206  -0.075687 0.055565 -0.428513
54  3.968619 5.003942 0.000006  0.000000 0.000000 1.605703
time 16
0  0.554876 -88.580650 37.874783  -0.022807 0.033075 -1.599736
1  -0.000002 -0.000000 0.000004  0.000003 -1.570450 -1.570404
2  3.968637 -0.003573 0.000006  0.000008 -0.000092 -0.123068
3  -3.968951 0.006775 -3.450626  0.255474 -3.138421 -0.281763
4  17.254910 -0.000060 -0.001345  -0.088083 -0.002150 -0.019242
5  17.254910 0.000065 -0.000260  0.065076 -0.156049 -0.163474
6  3.968576 5.003976 0.000000  -0.000001 -0.000003 1.605721
7  4.486272 -0.003577 -0.000411  -0.291201 0.071429 0.378606
8  4.486287 -0.003593 -0.000410  -0.000000 0.000000 0.167637
9  4.486284 -0.003590 -0.000413  -0.000000 0.000000 0.166884
10  4.486214 -0.001583 -0.000408  0.282905 -0.229915 0.181557
11  -0.000003 0.001571 -1.908402  -0.804945 1.839833 1.099871
12  3.867482 0.000021 -0.000013  1.489697 -0.543569 -0.698233
13  14.390582 -0.000068 0.000001  -0.000000 0.000003 -1.182223
14  11.595303 0.000049 0.000003  2.527202 0.761030 -0.528228
15  4.415172 -0.060717 -1.931070  0.349184 0.219731 1.029543
16  0.923133 0.000008 -0.000010  -0.000002 0.000000 0.608240
17  0.923145 0.000003 0.000000  0.000000 -0.000000 0.549978
18  4.449311 -0.067588 -0.950403  0.168965 0.108862 0.999778
19  1.128471 0.000009 -0.000007  -0.000000 -0.000000 0.660654
20  1.128469 0.000003 -0.000017  0.000000 -0.000000 0.549976
21  4.416822 -0.015179 0.200544  0.066160 0.042366 0.991903
22  1.364866 0.000007 -0.000016  -0.000000 -0.000000 0.681462
23  1.364870 -0.000013 0.000000  -0.000000 -0.000000 0.549976
24  4.451077 -0.068738 1.121655  -0.168094 -0.110202 0.999683
25  1.107774 0.000003 -0.000003  -0.000000 0.000000 0.549978
26  1.107772 0.000003 0.000001  -0.000000 0.000000 0.549977
27  2.098155 0.045625 1.805223  -0.065391 -0.768750 0.107850
28  0.914522 0.000000 0.000004  0.000001 0.000001 0.000001
29  0.914507 0.000005 0.000006  0.000000 -0.000000 -0.000000
30  -0.506768 10.619997 -2.794794  0.203184 -0.019059 1.567084
31  -0.000004 0.001559 1.908402  1.887212 -0.484391 -0.266463
32  3.867481 0.000009 0.000010  -0.980005 0.091051 -0.647832
33  14.390583 -0.000010 -0.000017  -0.000002 -0.000004 -1.142769
34  11.595286 0.000084 -0.000009  -1.747688 -0.404128 -0.380836
35  4.415173 -0.060707 1.931076  -0.371498 -0.178018 1.142358
36  0.923134 0.000006 -0.000006  -0.000001 0.000002 0.571016
37  0.923137 0.000006 -0.000009  -0.000000 0.000001 0.571015
38  4.449301 -0.067575 0.950406  -0.174496 -0.099699 1.052903
39  1.128469 0.000006 -0.000009  -0.000001 0.000001 0.571013
40  1.128481 0.000015 0.000006  -0.000001 0.000001 0.571015
41  4.416829 -0.015165 -0.200531  -0.070691 -0.034279 1.109903
42  1.364870 0.000013 -0.000012  -0.000000 0.000000 0.453889
43  1.364853 0.000001 0.000013  -0.000000 0.000000 0.571015
44  4.451077 -0.068722 -1.121624  0.176530 0.096013 1.081600
45  1.107769 0.000012 0.000005  -0.000003 -0.000005 0.387761
46  1.107772 -0.000017 -0.000008  0.000000 -0.000000 0.571015
47  2.098154 0.045629 -1.805194  0.065617 0.772360 0.108183
48  0.914488 0.000011 -0.000010  0.000003 0.000000 0.000002
49  0.914499 0.000008 0.000007  0.000000 -0.000000 0.000000
50  1.969125 0.000010 0.000001  -0.085980 -0.008557 -0.644439
51  -3.968319 0.006758 3.451356  -0.193536 3.126817 -0.075774
52  17.254911 -0.000144 0.002861  0.047243 0.024798 -1.817592
53  17.254883 0.000163 -0.001206  -0.107333 0.056096 -0.468252
54  3.968617 5.003948 0.000006  -0.000000 0.000000 1.605703
time 17
0  0.184460 -93.975197 37.998455  -0.019049 0.042410 -1.603285
1  -0.000000 -0.000000 -0.000003  0.000009 -1.570450 -1.570395
2  3.968643 -0.003572 0.000006  0.000008 -0.000092 -0.123068
3  -3.968956 0.006776 -3.450628  0.252003 -3.117037 -0.233638
4  17.254908 -0.000053 -0.001343  -0.116759 -0.001348 -0.018915
5  17.254911 0.000070 -0.000259  0.034772 -0.073688 -0.313376
6  3.968578 5.003983 -0.000000  -0.000000 -0.000010 1.605821
7  4.486277 -0.003606 -0.000411  -0.291201 0.071429 0.378606
8  4.486275 -0.003587 -0.000407  0.000000 -0.000000 0.167637
9  4.486293 -0.003605 -0.000411  -0.000000 -0.000000 0.166884
10  4.486205 -0.001577 -0.000410  0.282905 -0.229915 0.181557
11  0.000009 0.001578 -1.908402  -0.804945 1.839833 1.099870
12  3.867487 0.000006 0.000009  1.514511 -0.540767 -0.714349
13  14.390589 -0.000085 -0.000001  -0.000000 0.000003 -1.169639
14  11.595269 0.000026 0.000030  2.568414 0.746810 -0.518240
15  4.415186 -0.060715 -1.931079  0.349184 0.219732 1.029543
16  0.923143 0.000000 0.000003  -0.000002 0.000000 0.608240
17  0.923136 -0.000001 0.000002  -0.000000 -0.000000 0.549978
18  4.449306 -0.067579 -0.950394  0.168965 0.108863 0.999778
19  1.128482 0.000006 -0.000024  -0.000000 -0.000000 0.660654
20  1.128473 0.000009 0.000005  0.000000 -0.000000 0.549976
21  4.416832 -0.015181 0.200541  0.066160 0.042366 0.991903
22  1.364874 0.000002 0.000011  0.000000 -0.000000 0.681462
23  1.364872 0.000001 -0.000001  -0.000000 -0.000000 0.549976
24  4.451077 -0.068735 1.121656  -0.168094 -0.110202 0.999683
25  1.107764 0.000000 -0.000008  -0.000000 0.000000 0.549978
26  1.107769 -0.000008 -0.000006  -0.000000 0.000000 0.549977
27  2.098157 0.045630 1.805201  -0.065391 -0.768750 0.107850
28  0.914523 -0.000007 0.000001  0.000001 0.000001 0.000001
29  0.914509 0.000003 -0.000004  -0.000000 -0.000000 -0.000000
30  -0.506753 10.619974 -2.794853  0.203183 -0.019060 1.567085
31  0.000008 0.001571 1.908402  1.887213 -0.484391 -0.266463
32  3.867476 0.000005 0.000006  -0.957680 0.080866 -0.617004
33  14.390611 -0.000015 -0.000012  -0.000002 -0.000005 -1.213943
34  11.595282 0.000068 -0.000014  -1.746588 -0.404818 -0.298547
35  4.415178 -0.060699 1.931075  -0.371498 -0.178018 1.142358
36  0.923135 0.000006 -0.000002  -0.000001 0.000002 0.571016
37  0.923144 0.000009 0.000026  -0.000000 0.000001 0.571015
38  4.449311 -0.067572 0.950385  -0.174495 -0.099699 1.052902
39  1.128470 0.000012 0.000007  -0.000001 0.000001 0.571013
40  1.128469 0.000005 -0.000004  -0.000001 0.000001 0.571015
41  4.416843 -0.015170 -0.200541  -0.070691 -0.034279 1.109903
42  1.364871 0.000008 0.000006  0.000000 0.000000 0.453889
43  1.364859 0.000010 -0.000008  -0.000000 0.000000 0.571015
44  4.451092 -0.068720 -1.121645  0.176530 0.096013 1.081600
45  1.107769 0.000006 0.000018  -0.000003 -0.000005 0.387761
46  1.107763 0.000008 -0.000003  -0.000000 -0.000000 0.571015
47  2.098170 0.045636 -1.805220  0.065617 0.772360 0.108183
48  0.914514 0.000009 -0.000002  0.000003 0.000000 0.000002
49  0.914501 0.000005 0.000001  -0.000000 -0.000000 0.000000
50  1.969136 0.000021 0.000001  -0.085980 -0.008557 -0.644439
51  -3.968319 0.006755 3.451355  -0.196622 -3.109342 -0.263418
52  17.254904 -0.000137 0.002862  0.042251 0.028466 -1.912776
53  17.254887 0.000173 -0.001210  -0.111989 0.053504 -0.500723
54  3.968619 5.003939 0.000006  -0.000000 0.000000 1.605703
time 18
0  -0.202675 -99.369751 37.855087  -0.014068 0.055716 -1.602664
1  -0.000009 -0.000000 -0.000004  0.000026 -1.570450 -1.570405
2  3.968641 -0.003593 0.000006  0.000008 -0.000092 -0.123068
3  -3.968946 0.006749 -3.450627  0.286391 3.139596 -0.273764
4  17.254910 -0.000056 -0.001341  -0.099272 -0.020733 -0.374072
5  17.254908 0.000099 -0.000254  0.046095 -0.083077 -0.001290
6  3.968579 5.003982 -0.000002  -0.000000 0.000000 1.605703
7  4.486278 -0.003594 -0.000411  -0.291201 0.071429 0.378606
8  4.486284 -0.003601 -0.000408  0.000000 -0.000000 0.167637
9  4.486287 -0.003584 -0.000407  0.000000 -0.000000 0.166884
10  4.486207 -0.001583 -0.000410  0.282905 -0.229915 0.181557
11  0.000016 0.001582 -1.908400  -0.804945 1.839833 1.099870
12  3.867486 0.000003 0.000009  1.542791 -0.534172 -0.726130
13  14.390597 -0.000064 -0.000001  -0.000000 0.000003 -1.173321
14  11.595298 0.000006 0.000016  2.605585 0.729879 -0.495101
15  4.415194 -0.060712 -1.931067  0.349184 0.219731 1.029543
16  0.923124 0.000007 0.000008  -0.000002 0.000000 0.608240
17  0.923142 0.000001 -0.000015  -0.000000 -0.000000 0.549978
18  4.449316 -0.067582 -0.950417  0.168965 0.108862 0.999778
19  1.128474 0.000010 0.000012  -0.000000 -0.000000 0.660654
20  1.128471 0.000004 0.000008  0.000000 -0.000000 0.549976
21  4.416823 -0.015174 0.200512  0.066160 0.042366 0.991903
22  1.364870 0.000009 0.000006  0.000000 -0.000000 0.681461
23  1.364864 -0.000001 -0.000016  -0.000000 -0.000000 0.549976
24  4.451071 -0.068727 1.121629  -0.168094 -0.110202 0.999683
25  1.107773 0.000011 -0.000009  -0.000000 0.000000 0.549978
26  1.107769 0.000000 0.000001  -0.000000 0.000000 0.549977
27  2.098164 0.045625 1.805199  -0.065391 -0.768750 0.107850
28  0.914522 0.000003 -0.000012  0.000001 0.000001 0.000001
29  0.914511 0.000001 0.000008  -0.000000 -0.000000 -0.000000
30  -0.506836 10.620196 -2.794661  0.203184 -0.019059 1.567084
31  -0.000001 0.001558 1.908399  1.887212 -0.484391 -0.266462
32  3.867475 -0.000003 -0.000018  -0.937780 0.056646 -0.582320
33  14.390597 -0.000000 -0.000019  -0.000002 -0.000005 -1.276313
34  11.595294 0.000084 -0.000014  -1.758061 -0.407604 -0.218042
35  4.415182 -0.060702 1.931083  -0.371498 -0.178018 1.142358
36  0.923136 0.000003 0.000018  -0.000001 0.000002 0.571016
37  0.923141 0.000011 -0.000012  -0.000000 0.000001 0.571015
38  4.449306 -0.067573 0.950428  -0.174495 -0.099699 1.052903
39  1.128469 0.000012 0.000007  -0.000001 0.000001 0.571013
40  1.128478 0.000007 -0.000011  -0.000001 0.000001 0.571015
41  4.416835 -0.015171 -0.200509  -0.070691 -0.034279 1.109903
42  1.364867 0.000012 0.000025  -0.000000 0.000000 0.453889
43  1.364863 0.000010 0.000010  -0.000000 0.000000 0.571015
44  4.451084 -0.068708 -1.121612  0.176530 0.096013 1.081600
45  1.107763 -0.000006 -0.000009  -0.000003 -0.000005 0.387761
46  1.107768 -0.000022 -0.000005  0.000000 -0.000000 0.571015
47  2.098164 0.045635 -1.805187  0.065617 0.772360 0.108183
48  0.914500 0.000013 0.000001  0.000003 0.000000 0.000002
49  0.914505 -0.000003 0.000004  0.000000 -0.000000 -0.000000
50  1.969159 0.000022 0.000002  -0.085980 -0.008557 -0.644439
51  -3.968315 0.006748 3.451355  -0.186389 -3.064666 -0.440192
52  17.254908 -0.000140 0.002860  0.039558 0.034132 -1.971404
53  17.254917 0.000164 -0.001210  -0.114023 0.052016 -0.527595
54  3.968624 5.003935 0.000006  -0.000000 0.000000 1.605703
time 19
0  -0.553149 -104.764320 37.539677  -0.008748 0.069923 -1.600043
1  0.000022 0.000000 0.000003  0.000013 -1.570450 -1.570374
2  3.968641 -0.003558 0.000006  0.000008 -0.000092 -0.123068
3  -3.968955 0.006753 -3.450627  0.326971 3.120656 -0.205476
4  17.254911 -0.000010 -0.001348  -0.079076 -0.021701 -0.548952
5  17.254896 0.000075 -0.000265  0.049860 -0.086024 0.272464
6  3.968578 5.003950 0.000004  -0.000000 -0.000000 1.605703
7  4.486286 -0.003592 -0.000411  -0.291201 0.071429 0.378606
8  4.486285 -0.003587 -0.000409  0.000000 -0.000000 0.167637
9  4.486286 -0.003595 -0.000414  -0.000000 0.000000 0.166884
10  4.486213 -0.001585 -0.000411  0.282905 -0.229915 0.181556
11  0.000008 0.001577 -1.908400  -0.804945 1.839833 1.099870
12  3.867485 -0.000020 -0.000001  1.570006 -0.523450 -0.735282
13  14.390594 -0.000079 0.000002  -0.000000 0.000003 -1.185229
14  11.595290 0.000011 0.000030  2.634559 0.713570 -0.466266
15  4.415174 -0.060716 -1.931073  0.349184 0.219731 1.029543
16  0.923134 0.000001 0.000009  -0.000002 0.000000 0.608240
17  0.923136 0.000001 0.000003  -0.000000 -0.000000 0.549978
18  4.449298 -0.067586 -0.950394  0.168965 0.108863 0.999778
19  1.128469 0.000010 -0.000008  -0.000000 -0.000000 0.660654
20  1.128471 0.000001 -0.000005  0.000000 -0.000000 0.549976
21  4.416830 -0.015174 0.200535  0.066160 0.042366 0.991903
22  1.364882 0.000010 0.000003  0.000000 -0.000000 0.681462
23  1.364869 0.000007 -0.000007  -0.000000 -0.000000 0.549976
24  4.451069 -0.068740 1.121635  -0.168094 -0.110202 0.999683
25  1.107764 0.000021 -0.000005  -0.000000 0.000000 0.549978
26  1.107773 -0.000006 -0.000001  -0.000000 0.000000 0.549977
27  2.098165 0.045632 1.805207  -0.065391 -0.768750 0.107850
28  0.914500 0.000000 0.000017  0.000001 0.000001 0.000001
29  0.914514 0.000002 0.000007  0.000000 -0.000000 -0.000000
30  -0.506756 10.619852 -2.794985  0.203183 -0.019060 1.567085
31  -0.000000 0.001565 1.908399  1.887213 -0.484391 -0.266463
32  3.867488 -0.000025 -0.000005  -0.922876 0.024198 -0.548078
33  14.390589 -0.000018 -0.000007  -0.000001 -0.000005 -1.321116
34  11.595306 0.000096 -0.000003  -1.778579 -0.409942 -0.150501
35  4.415172 -0.060696 1.931054  -0.371498 -0.178018 1.142358
36  0.923139 0.000008 -0.000002  -0.000001 0.000002 0.571016
37  0.923137 0.000004 -0.000006  -0.000000 0.000001 0.571015
38  4.449298 -0.067573 0.950388  -0.174495 -0.099699 1.052903
39  1.128470 0.000015 0.000004  -0.000001 0.000001 0.571013
40  1.128470 0.000003 0.000021  -0.000001 0.000001 0.571016
41  4.416834 -0.015164 -0.200550  -0.070691 -0.034279 1.109903
42  1.364869 0.000008 -0.000013  -0.000000 0.000000 0.453889
43  1.364859 0.000003 0.000014  -0.000000 0.000000 0.571015
44  4.451080 -0.068720 -1.121654  0.176530 0.096013 1.081600
45  1.107763 -0.000004 0.000018  -0.000003 -0.000005 0.387761
46  1.107773 0.000000 -0.000012  -0.000000 -0.000000 0.571015
47  2.098160 0.045640 -1.805206  0.065617 0.772360 0.108183
48  0.914506 0.000003 0.000012  0.000003 0.000000 0.000002
49  0.914512 -0.000007 -0.000008  -0.000000 -0.000000 0.000000
50  1.969144 0.000028 0.000000  -0.085980 -0.008557 -0.644439
51  -3.968318 0.006756 3.451355  -0.168406 -3.026153 -0.607666
52  17.254925 -0.000133 0.002856  0.038255 0.041133 -2.009235
53  17.254869 0.000169 -0.001213  -0.116790 0.050819 -0.547136
54  3.968612 5.003942 0.000006  -0.000000 -0.000000 1.605703
time 20
0  -0.807226 -110.158859 37.224266  -0.004214 0.081891 -1.597477
1  0.000008 0.000000 0.000003  0.000071 -1.570450 -1.570425
2  3.968648 -0.003566 0.000006  0.000008 -0.000092 -0.123068
3  -3.968953 0.006758 -3.450628  0.340547 3.117819 -0.062170
4  17.254906 -0.000047 -0.001330  -0.082725 -0.018007 -0.555139
5  17.254904 0.000077 -0.000256  0.047235 -0.054855 0.362528
6  3.968579 5.003979 0.000001  0.000000 0.000000 1.671139
7  4.486279 -0.003614 -0.000411  -0.291201 0.071429 0.378606
8  4.486295 -0.003589 -0.000403  0.000000 0.000000 0.167637
9  4.486278 -0.003597 -0.000409  -0.000000 0.000000 0.166884
10  4.486207 -0.001585 -0.000408  0.282905 -0.229915 0.181556
11  0.000003 0.001575 -1.908400  -0.804945 1.839833 1.099870
12  3.867493 0.000004 0.000010  1.591017 -0.512672 -0.741650
13  14.390595 -0.000077 -0.000004  -0.000000 0.000003 -1.198714
14  11.595285 0.000029 0.000029  2.653363 0.701261 -0.440593
15  4.415183 -0.060719 -1.931083  0.349184 0.219731 1.029543
16  0.923127 0.000004 -0.000002  -0.000002 0.000000 0.608240
17  0.923143 -0.000007 -0.000008  -0.000000 -0.000000 0.549977
18  4.449316 -0.067593 -0.950383  0.168965 0.108863 0.999778
19  1.128470 0.000006 -0.000007  -0.000000 -0.000000 0.660654
20  1.128471 -0.000002 -0.000003  0.000000 -0.000000 0.549976
21  4.416837 -0.015192 0.200553  0.066160 0.042366 0.991903
22  1.364881 0.000009 0.000007  -0.000000 -0.000000 0.681461
23  1.364864 -0.000005 -0.000002  -0.000000 -0.000000 0.549976
24  4.451067 -0.068739 1.121622  -0.168094 -0.110202 0.999683
25  1.107768 0.000011 0.000018  -0.000000 0.000000 0.549978
26  1.107775 -0.000006 0.000007  -0.000000 0.000000 0.549977
27  2.098173 0.045626 1.805202  -0.065391 -0.768750 0.107850
28  0.914515 0.000000 0.000006  0.000001 0.000001 0.000001
29  0.914520 -0.000002 0.000005  -0.000000 -0.000000 -0.000000
30  -0.506819 10.620005 -2.794820  0.203184 -0.019059 1.567084
31  0.000007 0.001554 1.908404  1.887212 -0.484391 -0.266463
32  3.867490 0.000008 -0.000031  -0.914015 -0.005306 -0.520099
33  14.390594 0.000014 -0.000005  -0.000001 -0.000005 -1.348565
34  11.595266 0.000083 -0.000013  -1.799669 -0.410941 -0.103314
35  4.415174 -0.060707 1.931081  -0.371498 -0.178018 1.142358
36  0.923131 0.000011 0.000008  -0.000001 0.000002 0.571016
37  0.923143 0.000012 0.000026  -0.000000 0.000001 0.571015
38  4.449305 -0.067579 0.950381  -0.174495 -0.099699 1.052903
39  1.128467 0.000016 0.000009  -0.000001 0.000001 0.571013
40  1.128467 0.000006 -0.000001  -0.000001 0.000001 0.571015
41  4.416836 -0.015173 -0.200551  -0.070691 -0.034279 1.109903
42  1.364868 0.000005 -0.000007  0.000000 0.000000 0.453889
43  1.364865 -0.000010 -0.000007  -0.000000 0.000000 0.571015
44  4.451085 -0.068716 -1.121634  0.176530 0.096013 1.081600
45  1.107767 0.000010 0.000004  -0.000003 -0.000005 0.387761
46  1.107768 0.000007 0.000014  0.000000 -0.000000 0.571015
47  2.098159 0.045633 -1.805193  0.065617 0.772360 0.108183
48  0.914516 -0.000002 0.000015  0.000003 0.000000 0.000002
49  0.914515 -0.000000 -0.000010  -0.000000 -0.000000 0.000000
50  1.969142 0.000007 0.000002  -0.085980 -0.008556 -0.644439
51  -3.968317 0.006744 3.451355  -0.157559 -3.004749 -0.620060
52  17.254927 -0.000126 0.002861  0.043962 0.056067 -1.993410
53  17.254911 0.000165 -0.001206  -0.115526 0.046757 -0.459714
54  3.968629 5.003950 0.000005  0.000000 -0.000000 1.605703
time 21
0  -0.905171 -115.553413 37.080898  -0.004298 0.081886 -1.598505
1  0.000001 -0.000001 0.000000  0.000004 -1.570450 -1.570393
2  3.968627 -0.003555 0.000006  0.000008 -0.000092 -0.123068
3  -3.968956 0.006721 -3.450627  0.353078 3.141345 0.180213
4  17.254898 -0.000050 -0.001341  -0.095318 -0.009877 -0.356694
5  17.254902 0.000076 -0.000256  0.046177 -0.008383 0.334590
6  3.968582 5.003989 0.000007  -0.000000 -0.000000 1.736591
7  4.486275 -0.003601 -0.000411  -0.291201 0.071429 0.378606
8  4.486274 -0.003590 -0.000410  -0.000000 -0.000000 0.167637
9  4.486297 -0.003584 -0.000412  -0.000000 0.000000 0.166884
10  4.486209 -0.001578 -0.000409  0.282905 -0.229915 0.181557
11  -0.000002 0.001572 -1.908398  -0.804945 1.839833 1.099870
12  3.867488 0.000039 -0.000004  1.593060 -0.512596 -0.745968
13  14.390613 -0.000079 0.000010  -0.000000 0.000003 -1.195908
14  11.595274 0.000029 0.000010  2.658039 0.700445 -0.440077
15  4.415175 -0.060728 -1.931074  0.349184 0.219731 1.029543
16  0.923137 -0.000001 0.000005  -0.000002 0.000000 0.608240
17  0.923134 0.000009 0.000006  -0.000000 -0.000000 0.549978
18  4.449318 -0.067589 -0.950377  0.168965 0.108862 0.999778
19  1.128475 0.000011 -0.000013  -0.000000 -0.000000 0.660654
20  1.128475 0.000001 0.000000  0.000000 -0.000000 0.549976
21  4.416835 -0.015184 0.200559  0.066160 0.042366 0.991903
22  1.364862 0.000013 -0.000015  0.000000 -0.000000 0.681461
23  1.364876 -0.000002 0.000014  -0.000000 -0.000000 0.549976
24  4.451085 -0.068741 1.121660  -0.168094 -0.110202 0.999683
25  1.107781 0.000009 -0.000004  -0.000000 0.000000 0.549978
26  1.107769 -0.000005 0.000015  -0.000000 0.000000 0.549977
27  2.098161 0.045624 1.805206  -0.065391 -0.768750 0.107850
28  0.914494 0.000005 -0.000012  0.000001 0.000001 0.000001
29  0.914488 0.000003 0.000010  -0.000000 -0.000000 -0.000000
30  -0.506822 10.619991 -2.794853  0.203183 -0.019059 1.567084
31  0.000005 0.001562 1.908402  1.887213 -0.484391 -0.266463
32  3.867496 0.000001 -0.000006  -0.911526 -0.007033 -0.516014
33  14.390627 -0.000014 -0.000011  -0.000001 -0.000005 -1.354888
34  11.595299 0.000110 -0.000009  -1.799710 -0.408858 -0.093946
35  4.415181 -0.060700 1.931089  -0.371498 -0.178018 1.142358
36  0.923132 0.000005 -0.000009  -0.000001 0.000002 0.571016
37  0.923139 0.000004 -0.000022  -0.000000 0.000001 0.571015
38  4.449311 -0.067575 0.950394  -0.174495 -0.099699 1.052903
39  1.128470 0.000013 0.000001  -0.000001 0.000001 0.571013
40  1.128467 0.000010 -0.000006  -0.000001 0.000001 0.571015
41  4.416833 -0.015160 -0.200503  -0.070691 -0.034279 1.109903
42  1.364866 0.000008 0.000021  0.000000 0.000000 0.453889
43  1.364857 0.000003 0.000009  -0.000000 0.000000 0.571015
44  4.451087 -0.068714 -1.121633  0.176530 0.096013 1.081600
45  1.107768 0.000001 -0.000001  -0.000003 -0.000005 0.387761
46  1.107775 0.000005 0.000005  -0.000000 -0.000000 0.571015
47  2.098166 0.045639 -1.805201  0.065617 0.772360 0.108183
48  0.914548 0.000008 0.000010  0.000003 0.000000 0.000002
49  0.914508 0.000001 0.000004  0.000000 -0.000000 0.000000
50  1.969153 0.000016 0.000001  -0.085980 -0.008557 -0.644439
51  -3.968318 0.006725 3.451354  -0.157478 -2.985540 -0.586099
52  17.254923 -0.000133 0.002860  0.050641 0.071970 -1.983585
53  17.254885 0.000168 -0.001208  -0.119226 0.047073 -0.329230
54  3.968619 5.003941 0.000006  -0.000000 0.000000 1.605703
end
