version 1
nodes
0 "Bip01" -1
1 "Bip01 Pelvis" 0
2 "Bip01 Spine" 1
3 "Bip01 R Thigh" 2
4 "Bip01 R Calf" 3
5 "Bip01 R Foot" 4
6 "Bip01 R Toe0" 5
7 "Bip01 Spine1" 2
8 "Bip01 Spine2" 7
9 "Bip01 Spine3" 8
10 "Bip01 Neck" 9
11 "Bip01 R Clavicle" 10
12 "Bip01 R UpperArm" 11
13 "Bip01 R Forearm" 12
14 "Bip01 R Hand" 13
15 "Bip01 R Finger4" 14
16 "Bip01 R Finger41" 15
17 "Bip01 R Finger42" 16
18 "Bip01 R Finger3" 14
19 "Bip01 R Finger31" 18
20 "Bip01 R Finger32" 19
21 "Bip01 R Finger2" 14
22 "Bip01 R Finger21" 21
23 "Bip01 R Finger22" 22
24 "Bip01 R Finger1" 14
25 "Bip01 R Finger11" 24
26 "Bip01 R Finger12" 25
27 "Bip01 R Finger0" 14
28 "Bip01 R Finger01" 27
29 "Bip01 R Finger02" 28
30 "TV" 14
31 "Bip01 L Clavicle" 10
32 "Bip01 L UpperArm" 31
33 "Bip01 L Forearm" 32
34 "Bip01 L Hand" 33
35 "Bip01 L Finger4" 34
36 "Bip01 L Finger41" 35
37 "Bip01 L Finger42" 36
38 "Bip01 L Finger3" 34
39 "Bip01 L Finger31" 38
40 "Bip01 L Finger32" 39
41 "Bip01 L Finger2" 34
42 "Bip01 L Finger21" 41
43 "Bip01 L Finger22" 42
44 "Bip01 L Finger1" 34
45 "Bip01 L Finger11" 44
46 "Bip01 L Finger12" 45
47 "Bip01 L Finger0" 34
48 "Bip01 L Finger01" 47
49 "Bip01 L Finger02" 48
50 "Bip01 Head" 10
51 "Bip01 L Thigh" 2
52 "Bip01 L Calf" 51
53 "Bip01 L Foot" 52
54 "Bip01 L Toe0" 53
end
skeleton
time 0
0  -0.905695 -2.267831 36.080898  -0.004298 0.081886 -1.598505
1  -0.000001 0.000000 0.000002  0.000004 -1.570450 -1.570393
2  3.968633 -0.003571 0.000006  0.000008 -0.000092 -0.123068
3  -3.968947 0.006762 -3.450627  0.351826 3.108741 0.087391
4  17.254904 -0.000056 -0.001342  -0.092887 -0.015433 -0.569809
5  17.254908 0.000076 -0.000254  0.043089 -0.014337 0.449251
6  3.968579 5.003977 -0.000000  -0.000000 0.000000 1.736591
7  4.486285 -0.003594 -0.000411  0.000000 0.000000 0.267612
8  4.486275 -0.003594 -0.000411  -0.000000 -0.000000 0.167637
9  4.486285 -0.003595 -0.000411  0.000000 0.000000 0.166884
10  4.486203 -0.001588 -0.000411  0.000027 0.000088 0.294562
11  -0.000005 0.001569 -1.908400  -0.436536 1.297824 2.384884
12  3.867483 -0.000004 0.000006  0.295927 -0.509256 -0.616264
13  14.390593 -0.000077 0.000010  -0.000000 0.000003 -1.186875
14  11.595289 0.000025 0.000025  2.111668 -0.597477 1.017196
15  4.415180 -0.060721 -1.931069  0.349184 0.219732 1.029543
16  0.923131 -0.000001 -0.000003  -0.000002 0.000000 0.608240
17  0.923136 0.000004 -0.000004  -0.000000 -0.000000 0.549977
18  4.449306 -0.067589 -0.950394  0.168965 0.108863 0.999778
19  1.128475 0.000003 -0.000004  -0.000000 -0.000000 0.660654
20  1.128471 -0.000002 -0.000003  0.000000 -0.000000 0.549976
21  4.416829 -0.015183 0.200540  0.066160 0.042366 0.991903
22  1.364871 0.000010 -0.000004  0.000000 -0.000000 0.681462
23  1.364869 0.000001 -0.000003  -0.000000 -0.000000 0.549976
24  4.451074 -0.068736 1.121637  -0.168094 -0.110202 0.999683
25  1.107767 0.000010 -0.000005  -0.000000 0.000000 0.549978
26  1.107770 0.000003 0.000000  -0.000000 0.000000 0.549977
27  2.098161 0.045628 1.805203  -0.065391 -0.768750 0.107850
28  0.914510 0.000002 0.000002  0.000001 0.000001 0.000001
29  0.914512 0.000006 -0.000002  -0.000000 -0.000000 -0.000000
30  -2.650040 10.620049 1.482882  -1.553530 -0.000127 1.590212
31  -0.000010 0.001568 1.908400  0.648616 -1.252033 2.275051
32  3.867489 -0.000003 -0.000005  -0.470796 0.452502 -0.551824
33  14.390594 -0.000009 -0.000005  -0.000001 -0.000005 -1.330003
34  11.595303 0.000078 -0.000008  -2.088665 -0.411940 -0.186436
35  4.415176 -0.060697 1.931084  -0.371498 -0.178018 1.142358
36  0.923137 0.000007 0.000009  -0.000001 0.000002 0.571016
37  0.923140 0.000006 0.000008  -0.000000 0.000001 0.571015
38  4.449306 -0.067568 0.950409  -0.174496 -0.099699 1.052902
39  1.128470 0.000005 0.000008  -0.000001 0.000001 0.571013
40  1.128469 0.000010 0.000016  -0.000001 0.000001 0.571015
41  4.416836 -0.015163 -0.200524  -0.070691 -0.034279 1.109903
42  1.364868 0.000000 0.000004  0.000000 0.000000 0.453889
43  1.364860 -0.000000 -0.000003  -0.000000 0.000000 0.571015
44  4.451086 -0.068710 -1.121621  0.176530 0.096013 1.081600
45  1.107775 0.000010 0.000012  -0.000003 -0.000005 0.387761
46  1.107769 -0.000000 0.000005  -0.000000 -0.000000 0.571015
47  2.098168 0.045638 -1.805195  0.065617 0.772360 0.108183
48  0.914510 0.000009 0.000006  0.000003 0.000000 0.000002
49  0.914507 0.000002 0.000001  -0.000000 -0.000000 0.000000
50  1.969142 0.000019 0.000001  -0.085980 -0.008557 -0.644439
51  -3.968309 0.006743 3.451354  -0.155021 -2.983433 -0.597503
52  17.254910 -0.000134 0.002861  0.048154 0.072710 -2.040697
53  17.254900 0.000172 -0.001210  -0.119762 0.047999 -0.283672
54  3.968614 5.003944 0.000005  -0.000000 0.000000 1.605703
time 1
0  -0.864513 -7.662382 36.148865  -0.002072 0.096947 -1.607617
1  -0.000001 0.000000 -0.000003  -0.000024 -1.570450 -1.570401
2  3.968633 -0.003571 0.000006  0.000008 -0.000092 -0.123068
3  -3.968950 0.006763 -3.450628  0.313738 -3.129204 0.377858
4  17.254904 -0.000056 -0.001341  -0.084476 0.000144 -0.203698
5  17.254908 0.000076 -0.000254  0.063566 0.045013 0.254684
6  3.968579 5.003977 0.000000  -0.000000 0.000000 1.754040
7  4.486279 -0.003595 -0.000411  -0.000000 -0.000000 0.267612
8  4.486285 -0.003593 -0.000411  -0.000000 0.000000 0.167637
9  4.486283 -0.003597 -0.000411  0.000000 -0.000000 0.166884
10  4.486210 -0.001596 -0.000411  0.000027 0.000088 0.294562
11  -0.000000 0.001579 -1.908400  -0.436536 1.297824 2.384884
12  3.867488 0.000004 0.000004  0.295524 -0.506551 -0.607148
13  14.390610 -0.000082 0.000012  -0.000000 0.000003 -1.249655
14  11.595285 0.000024 0.000022  2.099772 -0.586246 1.066944
15  4.415177 -0.060722 -1.931072  0.349184 0.219732 1.029543
16  0.923141 0.000003 -0.000001  -0.000002 0.000000 0.608240
17  0.923140 0.000002 0.000000  -0.000000 -0.000000 0.549977
18  4.449292 -0.067588 -0.950393  0.168965 0.108863 0.999778
19  1.128474 0.000008 0.000000  -0.000000 -0.000000 0.660654
20  1.128472 0.000009 -0.000007  0.000000 -0.000000 0.549976
21  4.416827 -0.015183 0.200538  0.066160 0.042366 0.991903
22  1.364866 0.000017 -0.000002  0.000000 -0.000000 0.681462
23  1.364870 -0.000004 -0.000005  -0.000000 -0.000000 0.549976
24  4.451071 -0.068734 1.121643  -0.168094 -0.110202 0.999683
25  1.107770 0.000014 -0.000005  -0.000000 0.000000 0.549978
26  1.107769 -0.000003 0.000001  -0.000000 0.000000 0.549977
27  2.098155 0.045628 1.805198  -0.065391 -0.768750 0.107850
28  0.914513 0.000001 -0.000001  0.000001 0.000001 0.000001
29  0.914513 0.000003 -0.000003  -0.000000 0.000000 -0.000000
30  -2.650137 10.620093 1.482838  -1.553529 -0.000127 1.590211
31  -0.000002 0.001571 1.908400  0.648615 -1.252033 2.275051
32  3.867489 0.000008 -0.000007  -0.480572 0.458281 -0.525112
33  14.390597 -0.000005 -0.000009  -0.000001 -0.000005 -1.367925
34  11.595302 0.000081 -0.000021  -2.101467 -0.409223 -0.176553
35  4.415174 -0.060696 1.931089  -0.371498 -0.178018 1.142358
36  0.923136 0.000010 0.000010  -0.000001 0.000002 0.571016
37  0.923139 0.000005 0.000002  -0.000000 0.000001 0.571015
38  4.449304 -0.067571 0.950412  -0.174496 -0.099699 1.052903
39  1.128468 0.000008 0.000006  -0.000001 0.000001 0.571013
40  1.128471 0.000011 0.000003  -0.000001 0.000001 0.571015
41  4.416832 -0.015163 -0.200526  -0.070691 -0.034279 1.109903
42  1.364869 0.000000 -0.000002  0.000000 0.000000 0.453889
43  1.364860 0.000001 -0.000003  -0.000000 0.000000 0.571015
44  4.451078 -0.068710 -1.121624  0.176530 0.096013 1.081600
45  1.107772 0.000008 0.000012  -0.000003 -0.000005 0.387761
46  1.107771 0.000002 -0.000003  -0.000000 -0.000000 0.571015
47  2.098166 0.045639 -1.805201  0.065617 0.772360 0.108183
48  0.914510 0.000009 0.000003  0.000003 0.000000 0.000002
49  0.914511 0.000003 0.000005  -0.000000 -0.000000 0.000000
50  1.969138 0.000021 0.000001  -0.085980 -0.008556 -0.644439
51  -3.968317 0.006743 3.451355  -0.082419 -3.005273 -0.821371
52  17.254908 -0.000136 0.002860  0.065523 0.080745 -2.043864
53  17.254904 0.000169 -0.001209  -0.105820 0.070687 -0.132952
54  3.968614 5.003943 0.000006  -0.000000 0.000000 1.605703
time 2
0  -0.749739 -13.056932 36.318783  0.000352 0.111621 -1.600263
1  0.000001 0.000000 -0.000003  -0.000039 -1.570450 -1.570413
2  3.968633 -0.003570 0.000006  0.000008 -0.000092 -0.123068
3  -3.968961 0.006760 -3.450628  0.278794 -3.112722 0.562489
4  17.254910 -0.000059 -0.001342  -0.075109 0.000598 -0.018964
5  17.254911 0.000079 -0.000255  0.074245 0.085888 0.090814
6  3.968579 5.003977 0.000001  0.000001 0.000002 1.771528
7  4.486279 -0.003596 -0.000411  -0.000000 -0.000000 0.267612
8  4.486283 -0.003596 -0.000411  0.000000 0.000000 0.167637
9  4.486280 -0.003594 -0.000411  0.000000 0.000000 0.166884
10  4.486215 -0.001590 -0.000411  0.000027 0.000088 0.294562
11  0.000002 0.001579 -1.908401  -0.436536 1.297824 2.384884
12  3.867482 -0.000004 -0.000002  0.294751 -0.502211 -0.575996
13  14.390586 -0.000079 0.000006  -0.000001 0.000003 -1.353701
14  11.595291 0.000028 0.000015  2.086175 -0.572435 1.152258
15  4.415180 -0.060720 -1.931072  0.349184 0.219731 1.029543
16  0.923138 0.000007 -0.000003  -0.000002 0.000000 0.608240
17  0.923141 0.000007 -0.000002  0.000000 -0.000000 0.549978
18  4.449313 -0.067589 -0.950400  0.168965 0.108863 0.999778
19  1.128474 0.000007 -0.000003  -0.000000 -0.000000 0.660654
20  1.128473 -0.000005 -0.000004  0.000000 -0.000000 0.549976
21  4.416825 -0.015183 0.200538  0.066160 0.042366 0.991904
22  1.364867 0.000011 -0.000002  0.000000 -0.000000 0.681462
23  1.364869 -0.000003 -0.000004  -0.000000 -0.000000 0.549976
24  4.451081 -0.068734 1.121635  -0.168094 -0.110202 0.999683
25  1.107770 0.000006 -0.000004  -0.000000 0.000000 0.549978
26  1.107769 -0.000001 -0.000002  -0.000000 0.000000 0.549977
27  2.098156 0.045625 1.805197  -0.065391 -0.768750 0.107850
28  0.914512 0.000001 0.000003  0.000001 0.000001 0.000001
29  0.914504 0.000005 0.000002  -0.000000 -0.000000 -0.000000
30  -2.649449 10.619792 1.483277  -1.553531 -0.000125 1.590213
31  -0.000001 0.001569 1.908401  0.648616 -1.252033 2.275051
32  3.867484 -0.000002 0.000004  -0.500685 0.462938 -0.508866
33  14.390592 -0.000011 -0.000004  -0.000001 -0.000005 -1.408979
34  11.595304 0.000082 -0.000016  -2.122887 -0.391778 -0.162419
35  4.415179 -0.060696 1.931093  -0.371498 -0.178018 1.142358
36  0.923135 0.000000 0.000010  -0.000001 0.000002 0.571016
37  0.923140 -0.000003 0.000003  -0.000000 0.000001 0.571015
38  4.449301 -0.067568 0.950414  -0.174496 -0.099699 1.052903
39  1.128468 0.000006 0.000011  -0.000001 0.000001 0.571013
40  1.128472 0.000007 0.000002  -0.000001 0.000001 0.571015
41  4.416832 -0.015162 -0.200519  -0.070691 -0.034279 1.109903
42  1.364866 0.000000 0.000005  0.000000 0.000000 0.453889
43  1.364859 0.000008 0.000003  -0.000000 0.000000 0.571015
44  4.451078 -0.068710 -1.121625  0.176530 0.096013 1.081600
45  1.107770 0.000005 0.000007  -0.000003 -0.000005 0.387761
46  1.107770 -0.000012 -0.000000  -0.000000 -0.000000 0.571015
47  2.098170 0.045639 -1.805190  0.065617 0.772360 0.108183
48  0.914509 0.000008 0.000005  0.000003 0.000000 0.000002
49  0.914511 0.000002 -0.000001  -0.000000 -0.000000 0.000000
50  1.969137 0.000021 0.000001  -0.085980 -0.008557 -0.644439
51  -3.968315 0.006742 3.451355  -0.029163 -3.014410 -0.971958
52  17.254910 -0.000142 0.002861  0.091391 0.080618 -1.913925
53  17.254910 0.000172 -0.001208  -0.072900 0.061661 -0.017365
54  3.968614 5.003945 0.000006  -0.000000 0.000000 1.605703
time 3
0  -0.574431 -18.451481 36.539677  0.004158 0.122089 -1.576479
1  0.000000 -0.000000 0.000004  0.000012 -1.570450 -1.570413
2  3.968646 -0.003574 0.000006  0.000008 -0.000092 -0.123068
3  -3.968945 0.006761 -3.450627  0.273783 -3.115641 0.636767
4  17.254902 -0.000063 -0.001343  -0.075153 0.000547 -0.018818
5  17.254910 0.000077 -0.000255  0.064214 0.071317 -0.123991
6  3.968579 5.003977 0.000001  0.000001 0.000003 1.688656
7  4.486289 -0.003595 -0.000411  -0.000000 -0.000000 0.267612
8  4.486282 -0.003591 -0.000411  -0.000000 -0.000000 0.167637
9  4.486285 -0.003596 -0.000411  0.000000 0.000000 0.166884
10  4.486210 -0.001590 -0.000411  0.000027 0.000088 0.294562
11  -0.000009 0.001569 -1.908400  -0.436536 1.297824 2.384884
12  3.867485 0.000000 0.000002  0.296376 -0.497366 -0.535204
13  14.390597 -0.000083 0.000008  -0.000001 0.000003 -1.461388
14  11.595291 0.000021 0.000013  2.075922 -0.558011 1.243591
15  4.415179 -0.060723 -1.931067  0.349184 0.219732 1.029543
16  0.923143 0.000006 -0.000004  -0.000002 0.000000 0.608240
17  0.923139 -0.000004 -0.000003  -0.000000 -0.000000 0.549978
18  4.449305 -0.067591 -0.950396  0.168965 0.108863 0.999778
19  1.128474 0.000005 -0.000006  -0.000000 -0.000000 0.660654
20  1.128471 0.000004 -0.000004  0.000000 -0.000000 0.549976
21  4.416831 -0.015184 0.200542  0.066160 0.042366 0.991903
22  1.364874 0.000015 -0.000008  0.000000 -0.000000 0.681462
23  1.364869 0.000007 -0.000008  -0.000000 -0.000000 0.549976
24  4.451077 -0.068736 1.121639  -0.168094 -0.110202 0.999683
25  1.107765 0.000004 -0.000001  -0.000000 0.000000 0.549978
26  1.107772 -0.000005 -0.000002  -0.000000 0.000000 0.549977
27  2.098161 0.045627 1.805202  -0.065391 -0.768750 0.107850
28  0.914509 0.000001 -0.000002  0.000001 0.000001 0.000001
29  0.914511 0.000004 -0.000004  -0.000000 0.000000 -0.000000
30  -2.649220 10.619693 1.483400  -1.553532 -0.000124 1.590214
31  -0.000002 0.001559 1.908400  0.648615 -1.252033 2.275051
32  3.867492 0.000004 -0.000018  -0.524970 0.464459 -0.511591
33  14.390606 -0.000008 -0.000010  -0.000001 -0.000005 -1.434704
34  11.595303 0.000077 -0.000009  -2.146363 -0.366176 -0.153815
35  4.415181 -0.060696 1.931088  -0.371498 -0.178018 1.142358
36  0.923134 0.000003 0.000009  -0.000001 0.000002 0.571016
37  0.923140 -0.000001 0.000004  -0.000000 0.000001 0.571015
38  4.449306 -0.067570 0.950412  -0.174496 -0.099699 1.052903
39  1.128468 0.000004 0.000014  -0.000001 0.000001 0.571013
40  1.128470 0.000009 0.000006  -0.000001 0.000001 0.571015
41  4.416830 -0.015163 -0.200522  -0.070691 -0.034279 1.109903
42  1.364869 0.000004 0.000001  0.000000 0.000000 0.453889
43  1.364861 0.000009 0.000005  -0.000000 0.000000 0.571015
44  4.451089 -0.068713 -1.121627  0.176530 0.096013 1.081600
45  1.107768 0.000007 0.000010  -0.000003 -0.000005 0.387761
46  1.107770 -0.000002 -0.000005  -0.000000 -0.000000 0.571015
47  2.098172 0.045638 -1.805195  0.065617 0.772360 0.108183
48  0.914522 0.000008 -0.000003  0.000003 0.000000 0.000002
49  0.914510 0.000001 0.000003  0.000000 -0.000000 0.000000
50  1.969138 0.000021 0.000001  -0.085980 -0.008557 -0.644439
51  -3.968308 0.006744 3.451355  -0.032179 -3.035122 -1.019937
52  17.254911 -0.000129 0.002861  0.088644 0.087950 -1.695510
53  17.254902 0.000169 -0.001209  -0.066955 0.108388 0.094322
54  3.968613 5.003944 0.000006  -0.000000 0.000000 1.605703
time 4
0  -0.351649 -23.846031 36.760571  0.011426 0.124431 -1.539986
1  -0.000004 -0.000000 0.000001  0.000013 -1.570450 -1.570377
2  3.968637 -0.003570 0.000006  0.000008 -0.000092 -0.123068
3  -3.968941 0.006761 -3.450627  0.268820 -3.108758 0.700162
4  17.254902 -0.000059 -0.001342  -0.082179 0.000252 -0.019153
5  17.254910 0.000077 -0.000255  0.047217 0.046812 -0.398657
6  3.968579 5.003977 0.000000  0.000001 0.000001 1.605738
7  4.486291 -0.003596 -0.000411  -0.000000 0.000000 0.267612
8  4.486290 -0.003598 -0.000411  0.000000 0.000000 0.167637
9  4.486300 -0.003595 -0.000411  0.000000 0.000000 0.166884
10  4.486197 -0.001589 -0.000411  0.000027 0.000088 0.294562
11  0.000009 0.001577 -1.908400  -0.436536 1.297824 2.384884
12  3.867483 -0.000000 0.000004  0.299073 -0.494313 -0.495635
13  14.390600 -0.000080 0.000014  -0.000001 0.000003 -1.543412
14  11.595291 0.000026 0.000030  2.072061 -0.542486 1.318105
15  4.415185 -0.060720 -1.931069  0.349184 0.219731 1.029543
16  0.923141 0.000004 -0.000001  -0.000002 0.000000 0.608240
17  0.923138 0.000000 -0.000006  -0.000000 -0.000000 0.549978
18  4.449304 -0.067588 -0.950397  0.168965 0.108863 0.999778
19  1.128478 0.000012 -0.000004  -0.000000 -0.000000 0.660654
20  1.128471 0.000013 -0.000001  0.000000 -0.000000 0.549976
21  4.416837 -0.015185 0.200542  0.066160 0.042366 0.991903
22  1.364874 0.000008 -0.000001  0.000000 -0.000000 0.681462
23  1.364870 -0.000002 -0.000007  -0.000000 -0.000000 0.549976
24  4.451080 -0.068736 1.121638  -0.168094 -0.110202 0.999683
25  1.107771 0.000007 -0.000009  -0.000000 0.000000 0.549978
26  1.107769 -0.000002 0.000000  -0.000000 0.000000 0.549977
27  2.098160 0.045627 1.805202  -0.065391 -0.768750 0.107850
28  0.914521 0.000000 -0.000004  0.000001 0.000001 0.000001
29  0.914517 0.000003 -0.000002  0.000000 0.000000 -0.000000
30  -2.649305 10.619735 1.483385  -1.553532 -0.000124 1.590213
31  -0.000006 0.001561 1.908401  0.648615 -1.252033 2.275051
32  3.867485 0.000001 -0.000005  -0.546285 0.461780 -0.536156
33  14.390598 -0.000007 -0.000003  -0.000001 -0.000005 -1.427048
34  11.595286 0.000077 -0.000006  -2.167366 -0.340713 -0.162264
35  4.415169 -0.060699 1.931087  -0.371498 -0.178018 1.142358
36  0.923131 0.000003 0.000016  -0.000001 0.000002 0.571016
37  0.923139 -0.000004 0.000007  -0.000000 0.000001 0.571015
38  4.449305 -0.067570 0.950412  -0.174496 -0.099699 1.052902
39  1.128468 0.000011 -0.000003  -0.000001 0.000001 0.571013
40  1.128472 0.000009 0.000006  -0.000001 0.000001 0.571015
41  4.416833 -0.015163 -0.200522  -0.070691 -0.034279 1.109903
42  1.364868 -0.000004 -0.000004  0.000000 0.000000 0.453889
43  1.364858 0.000011 0.000006  -0.000000 0.000000 0.571015
44  4.451089 -0.068712 -1.121621  0.176530 0.096013 1.081600
45  1.107776 0.000010 0.000013  -0.000003 -0.000005 0.387761
46  1.107769 0.000005 -0.000005  -0.000000 -0.000000 0.571015
47  2.098173 0.045637 -1.805195  0.065617 0.772360 0.108183
48  0.914518 0.000007 0.000004  0.000003 0.000000 0.000002
49  0.914505 0.000002 0.000002  -0.000000 -0.000000 0.000000
50  1.969146 0.000023 0.000001  -0.085980 -0.008557 -0.644439
51  -3.968302 0.006747 3.451355  -0.091585 -3.066595 -0.962207
52  17.254904 -0.000142 0.002860  0.094622 0.080757 -1.298946
53  17.254913 0.000158 -0.001209  -0.061178 0.112260 0.038341
54  3.968613 5.003946 0.000006  -0.000000 0.000000 1.605703
time 5
0  -0.094452 -29.240582 36.930489  0.022170 0.116903 -1.498142
1  0.000005 -0.000000 0.000002  -0.000011 -1.570450 -1.570362
2  3.968639 -0.003567 0.000006  0.000008 -0.000092 -0.123068
3  -3.968970 0.006763 -3.450627  0.219478 -3.128482 0.523721
4  17.254904 -0.000055 -0.001342  -0.111094 0.003721 -0.495105
5  17.254910 0.000077 -0.000255  0.008121 0.061323 -0.464519
6  3.968580 5.003976 0.000001  0.000000 -0.000000 1.605702
7  4.486277 -0.003596 -0.000411  0.000000 -0.000000 0.267612
8  4.486284 -0.003600 -0.000411  0.000000 0.000000 0.167637
9  4.486285 -0.003600 -0.000411  -0.000000 -0.000000 0.166884
10  4.486208 -0.001592 -0.000411  0.000027 0.000088 0.294562
11  0.000000 0.001572 -1.908399  -0.436536 1.297824 2.384884
12  3.867482 -0.000003 0.000026  0.299174 -0.497027 -0.467020
13  14.390598 -0.000083 0.000010  -0.000001 0.000003 -1.577077
14  11.595288 0.000028 0.000024  2.077080 -0.523548 1.354249
15  4.415186 -0.060719 -1.931072  0.349184 0.219731 1.029543
16  0.923138 0.000002 -0.000005  -0.000002 0.000000 0.608240
17  0.923139 -0.000009 -0.000007  0.000000 -0.000000 0.549978
18  4.449306 -0.067586 -0.950393  0.168965 0.108863 0.999778
19  1.128473 0.000011 -0.000005  -0.000000 -0.000000 0.660654
20  1.128473 0.000010 0.000002  0.000000 -0.000000 0.549976
21  4.416832 -0.015182 0.200542  0.066160 0.042366 0.991903
22  1.364866 0.000009 0.000005  0.000000 -0.000000 0.681462
23  1.364868 0.000002 -0.000004  -0.000000 -0.000000 0.549976
24  4.451081 -0.068733 1.121643  -0.168094 -0.110202 0.999683
25  1.107766 0.000010 -0.000008  -0.000000 0.000000 0.549978
26  1.107770 -0.000004 0.000002  -0.000000 0.000000 0.549977
27  2.098163 0.045628 1.805202  -0.065391 -0.768750 0.107850
28  0.914509 0.000001 -0.000007  0.000001 0.000000 0.000001
29  0.914512 0.000003 -0.000000  -0.000000 -0.000000 -0.000000
30  -2.649639 10.619821 1.483194  -1.553530 -0.000126 1.590212
31  -0.000000 0.001561 1.908401  0.648616 -1.252033 2.275051
32  3.867489 0.000001 -0.000011  -0.557924 0.455036 -0.579070
33  14.390596 -0.000005 -0.000002  -0.000001 -0.000005 -1.373411
34  11.595303 0.000090 -0.000016  -2.181374 -0.324524 -0.198768
35  4.415167 -0.060699 1.931081  -0.371498 -0.178018 1.142358
36  0.923133 0.000002 0.000010  -0.000001 0.000002 0.571016
37  0.923139 0.000007 0.000003  -0.000000 0.000001 0.571015
38  4.449295 -0.067571 0.950411  -0.174496 -0.099699 1.052903
39  1.128466 0.000013 0.000004  -0.000001 0.000001 0.571013
40  1.128470 0.000003 0.000008  -0.000001 0.000001 0.571015
41  4.416830 -0.015166 -0.200519  -0.070691 -0.034279 1.109903
42  1.364874 0.000002 0.000000  0.000000 0.000000 0.453889
43  1.364861 -0.000003 0.000002  -0.000000 0.000000 0.571015
44  4.451082 -0.068713 -1.121630  0.176530 0.096013 1.081600
45  1.107765 0.000013 0.000016  -0.000003 -0.000005 0.387761
46  1.107772 -0.000002 0.000004  0.000000 -0.000000 0.571015
47  2.098163 0.045635 -1.805196  0.065617 0.772360 0.108183
48  0.914509 0.000008 0.000006  0.000003 0.000000 0.000002
49  0.914504 -0.000001 0.000002  0.000000 -0.000000 0.000000
50  1.969132 0.000020 0.000001  -0.085980 -0.008556 -0.644439
51  -3.968324 0.006743 3.451355  -0.160613 -3.106401 -0.839208
52  17.254913 -0.000138 0.002864  0.111363 0.068876 -0.870728
53  17.254904 0.000166 -0.001207  -0.047183 0.106760 -0.012259
54  3.968616 5.003931 0.000006  -0.000000 0.000000 1.605703
time 6
0  0.184100 -34.635132 36.998455  0.035052 0.104962 -1.458196
1  -0.000000 -0.000000 0.000005  -0.000003 -1.570450 -1.570350
2  3.968648 -0.003573 0.000006  0.000008 -0.000092 -0.123068
3  -3.968952 0.006775 -3.450628  0.335118 3.106356 0.327821
4  17.254902 -0.000057 -0.001342  -0.167017 -0.027817 -1.007721
5  17.254908 0.000077 -0.000255  -0.045697 0.027345 -0.504492
6  3.968577 5.003977 0.000000  -0.000001 -0.000000 1.605703
7  4.486284 -0.003588 -0.000411  0.000000 -0.000000 0.267612
8  4.486284 -0.003597 -0.000411  0.000000 0.000000 0.167637
9  4.486279 -0.003597 -0.000411  0.000000 -0.000000 0.166884
10  4.486207 -0.001588 -0.000411  0.000027 0.000088 0.294562
11  0.000008 0.001582 -1.908400  -0.436536 1.297824 2.384884
12  3.867485 0.000002 0.000003  0.318380 -0.509125 -0.468003
13  14.390593 -0.000075 0.000004  -0.000001 0.000003 -1.545135
14  11.595289 0.000016 0.000024  2.117741 -0.453023 1.259032
15  4.415173 -0.060719 -1.931077  0.349184 0.219731 1.029543
16  0.923132 0.000006 -0.000008  -0.000002 0.000000 0.608240
17  0.923138 -0.000006 -0.000006  -0.000000 -0.000000 0.549977
18  4.449302 -0.067588 -0.950404  0.168965 0.108862 0.999778
19  1.128469 0.000010 -0.000004  -0.000000 -0.000000 0.660654
20  1.128471 -0.000008 -0.000007  0.000000 -0.000000 0.549976
21  4.416835 -0.015182 0.200529  0.066160 0.042366 0.991903
22  1.364873 0.000005 -0.000001  0.000000 -0.000000 0.681462
23  1.364868 0.000008 -0.000005  -0.000000 -0.000000 0.549976
24  4.451078 -0.068734 1.121627  -0.168094 -0.110202 0.999683
25  1.107772 0.000011 -0.000003  -0.000000 0.000000 0.549978
26  1.107767 -0.000005 0.000005  -0.000000 0.000000 0.549977
27  2.098169 0.045628 1.805192  -0.065391 -0.768750 0.107850
28  0.914510 0.000003 -0.000018  0.000001 0.000001 0.000001
29  0.914511 0.000002 -0.000007  -0.000000 -0.000000 -0.000000
30  -2.649238 10.619673 1.483447  -1.553532 -0.000124 1.590213
31  -0.000004 0.001562 1.908400  0.648616 -1.252033 2.275051
32  3.867496 0.000001 -0.000014  -0.567963 0.433580 -0.645682
33  14.390606 -0.000008 -0.000007  -0.000002 -0.000005 -1.267704
34  11.595308 0.000076 -0.000004  -2.160165 -0.367985 -0.340852
35  4.415177 -0.060697 1.931088  -0.371498 -0.178018 1.142358
36  0.923133 0.000007 0.000008  -0.000001 0.000002 0.571016
37  0.923140 -0.000003 0.000004  -0.000000 0.000001 0.571015
38  4.449315 -0.067572 0.950410  -0.174496 -0.099699 1.052903
39  1.128469 0.000016 0.000006  -0.000001 0.000001 0.571013
40  1.128469 0.000009 0.000000  -0.000001 0.000001 0.571015
41  4.416835 -0.015164 -0.200517  -0.070691 -0.034279 1.109903
42  1.364870 0.000001 0.000005  0.000000 0.000000 0.453889
43  1.364860 0.000005 -0.000001  -0.000000 0.000000 0.571015
44  4.451078 -0.068714 -1.121623  0.176530 0.096013 1.081600
45  1.107760 0.000026 0.000009  -0.000003 -0.000005 0.387761
46  1.107771 -0.000002 0.000001  -0.000000 -0.000000 0.571015
47  2.098160 0.045637 -1.805188  0.065617 0.772359 0.108183
48  0.914518 0.000008 -0.000001  0.000003 0.000000 0.000002
49  0.914526 -0.000000 -0.000001  0.000000 -0.000000 0.000000
50  1.969141 0.000020 0.000001  -0.085980 -0.008557 -0.644439
51  -3.968314 0.006755 3.451354  -0.207888 -3.134190 -0.590487
52  17.254908 -0.000145 0.002863  0.128629 0.051243 -0.612418
53  17.254902 0.000178 -0.001210  -0.025959 0.076900 0.167967
54  3.968615 5.003945 0.000003  0.000000 0.000000 1.605703
time 7
0  0.470026 -40.029682 36.910370  0.045027 0.097545 -1.425357
1  0.000004 0.000001 -0.000003  -0.000026 -1.570450 -1.570346
2  3.968634 -0.003572 0.000005  0.000008 -0.000092 -0.123068
3  -3.968957 0.006758 -3.450626  0.381041 3.042053 0.093026
4  17.254913 -0.000059 -0.001343  -0.111005 -0.048214 -1.468527
5  17.254910 0.000080 -0.000254  0.020443 -0.016456 -0.560060
6  3.968579 5.003977 0.000001  -0.000000 -0.000000 1.605703
7  4.486279 -0.003600 -0.000412  -0.000000 -0.000000 0.267612
8  4.486286 -0.003602 -0.000410  -0.000000 -0.000000 0.167637
9  4.486282 -0.003584 -0.000412  -0.000000 0.000000 0.166884
10  4.486208 -0.001592 -0.000412  0.000027 0.000088 0.294562
11  0.000017 0.001571 -1.908401  -0.436536 1.297824 2.384884
12  3.867484 0.000000 0.000014  0.312365 -0.521796 -0.449149
13  14.390594 -0.000075 0.000008  -0.000001 0.000003 -1.525599
14  11.595285 0.000021 0.000011  2.140877 -0.448256 1.224450
15  4.415185 -0.060721 -1.931065  0.349184 0.219732 1.029543
16  0.923135 -0.000000 -0.000006  -0.000002 0.000000 0.608240
17  0.923139 -0.000002 0.000010  -0.000000 -0.000000 0.549977
18  4.449307 -0.067590 -0.950399  0.168965 0.108863 0.999778
19  1.128473 0.000019 -0.000000  -0.000000 -0.000000 0.660654
20  1.128471 0.000002 -0.000006  0.000000 -0.000000 0.549976
21  4.416831 -0.015184 0.200540  0.066160 0.042366 0.991903
22  1.364873 0.000006 -0.000002  0.000000 -0.000000 0.681462
23  1.364868 0.000007 -0.000008  -0.000000 -0.000000 0.549976
24  4.451081 -0.068737 1.121631  -0.168094 -0.110202 0.999683
25  1.107768 0.000010 0.000017  -0.000000 0.000000 0.549978
26  1.107769 0.000008 -0.000001  -0.000000 0.000000 0.549977
27  2.098167 0.045628 1.805202  -0.065391 -0.768750 0.107850
28  0.914514 0.000002 -0.000002  0.000001 0.000001 0.000001
29  0.914511 0.000004 0.000001  0.000000 -0.000000 -0.000000
30  -2.650107 10.619906 1.483057  -1.553528 -0.000126 1.590210
31  0.000005 0.001568 1.908399  0.648616 -1.252033 2.275051
32  3.867480 0.000010 0.000007  -0.563318 0.421150 -0.680907
33  14.390579 -0.000004 -0.000003  -0.000002 -0.000005 -1.223169
34  11.595294 0.000078 -0.000006  -2.149335 -0.361196 -0.370101
35  4.415164 -0.060699 1.931084  -0.371498 -0.178018 1.142358
36  0.923141 -0.000005 0.000007  -0.000001 0.000002 0.571016
37  0.923140 0.000010 0.000010  -0.000000 0.000001 0.571015
38  4.449301 -0.067571 0.950409  -0.174496 -0.099699 1.052903
39  1.128470 0.000004 0.000006  -0.000001 0.000001 0.571013
40  1.128471 0.000007 0.000006  -0.000001 0.000001 0.571015
41  4.416834 -0.015165 -0.200528  -0.070691 -0.034279 1.109903
42  1.364871 0.000010 0.000007  0.000000 0.000000 0.453889
43  1.364859 0.000002 -0.000001  -0.000000 0.000000 0.571015
44  4.451075 -0.068713 -1.121626  0.176530 0.096013 1.081600
45  1.107774 0.000002 0.000006  -0.000003 -0.000005 0.387761
46  1.107770 -0.000006 0.000004  -0.000000 -0.000000 0.571015
47  2.098159 0.045638 -1.805198  0.065617 0.772360 0.108183
48  0.914519 0.000009 0.000013  0.000003 0.000000 0.000002
49  0.914519 -0.000001 0.000002  -0.000000 -0.000000 0.000000
50  1.969141 0.000033 0.000002  -0.085980 -0.008557 -0.644439
51  -3.968323 0.006731 3.451353  -0.226477 3.123893 -0.363561
52  17.254902 -0.000150 0.002861  0.134706 0.026418 -0.433833
53  17.254906 0.000167 -0.001209  -0.029841 0.037609 0.053122
54  3.968615 5.003935 0.000005  -0.000000 0.000000 1.605703
time 8
0  0.745659 -45.424232 36.690155  0.048030 0.099683 -1.403299
1  -0.000003 0.000000 -0.000006  0.000007 -1.570450 -1.570382
2  3.968639 -0.003570 0.000004  0.000008 -0.000092 -0.123068
3  -3.968954 0.006775 -3.450628  0.351472 2.986062 -0.224502
4  17.254902 -0.000051 -0.001342  -0.054513 -0.062948 -1.844814
5  17.254906 0.000073 -0.000256  0.088111 -0.064761 -0.571229
6  3.968580 5.003980 0.000000  -0.000000 -0.000000 1.605703
7  4.486285 -0.003584 -0.000412  0.000000 -0.000000 0.267612
8  4.486279 -0.003599 -0.000411  0.000000 -0.000000 0.167637
9  4.486279 -0.003597 -0.000410  0.000000 0.000000 0.166884
10  4.486203 -0.001598 -0.000410  0.000027 0.000088 0.294562
11  -0.000009 0.001580 -1.908401  -0.436536 1.297824 2.384884
12  3.867482 0.000000 -0.000002  0.305846 -0.527718 -0.420837
13  14.390597 -0.000082 0.000003  -0.000001 0.000003 -1.518503
14  11.595307 0.000032 0.000021  2.159652 -0.458169 1.187896
15  4.415180 -0.060721 -1.931071  0.349184 0.219732 1.029543
16  0.923138 -0.000000 0.000006  -0.000002 0.000000 0.608240
17  0.923140 0.000004 -0.000005  -0.000000 -0.000000 0.549978
18  4.449308 -0.067588 -0.950400  0.168965 0.108863 0.999778
19  1.128478 0.000014 -0.000001  -0.000000 -0.000000 0.660654
20  1.128471 0.000003 -0.000005  0.000000 -0.000000 0.549976
21  4.416834 -0.015183 0.200538  0.066160 0.042366 0.991903
22  1.364872 0.000010 -0.000011  0.000000 -0.000000 0.681462
23  1.364871 0.000012 -0.000017  -0.000000 -0.000000 0.549976
24  4.451075 -0.068736 1.121643  -0.168094 -0.110202 0.999683
25  1.107770 0.000009 -0.000001  -0.000000 0.000000 0.549978
26  1.107771 -0.000000 -0.000006  -0.000000 0.000000 0.549977
27  2.098157 0.045628 1.805196  -0.065391 -0.768750 0.107850
28  0.914504 0.000001 -0.000008  0.000001 0.000001 0.000001
29  0.914509 0.000005 -0.000004  -0.000000 -0.000000 -0.000000
30  -2.650121 10.619942 1.483071  -1.553528 -0.000126 1.590210
31  -0.000006 0.001574 1.908401  0.648616 -1.252033 2.275051
32  3.867485 0.000001 -0.000002  -0.552113 0.416917 -0.697911
33  14.390595 -0.000016 -0.000006  -0.000002 -0.000005 -1.231048
34  11.595305 0.000087 -0.000019  -2.131601 -0.360741 -0.364565
35  4.415176 -0.060697 1.931091  -0.371498 -0.178018 1.142358
36  0.923142 -0.000002 0.000004  -0.000001 0.000002 0.571016
37  0.923139 -0.000002 0.000007  -0.000000 0.000001 0.571015
38  4.449309 -0.067569 0.950418  -0.174496 -0.099699 1.052903
39  1.128467 0.000023 0.000003  -0.000001 0.000001 0.571013
40  1.128471 0.000001 0.000004  -0.000001 0.000001 0.571015
41  4.416819 -0.015162 -0.200517  -0.070691 -0.034279 1.109903
42  1.364863 0.000016 0.000008  0.000000 0.000000 0.453889
43  1.364860 0.000007 -0.000000  -0.000000 0.000000 0.571015
44  4.451090 -0.068710 -1.121615  0.176530 0.096013 1.081600
45  1.107768 -0.000001 0.000007  -0.000003 -0.000005 0.387761
46  1.107771 0.000004 0.000004  -0.000000 -0.000000 0.571015
47  2.098165 0.045638 -1.805189  0.065617 0.772360 0.108183
48  0.914517 0.000006 -0.000000  0.000003 0.000000 0.000002
49  0.914513 -0.000002 -0.000004  -0.000000 -0.000000 0.000000
50  1.969142 0.000027 0.000001  -0.085980 -0.008556 -0.644439
51  -3.968318 0.006747 3.451353  -0.182902 3.130309 -0.286657
52  17.254915 -0.000140 0.002861  0.125190 0.026608 -0.595027
53  17.254908 0.000162 -0.001207  -0.031294 0.029397 0.314353
54  3.968615 5.003939 0.000006  0.000000 -0.000000 1.522807
time 9
0  0.992408 -50.818787 36.403877  0.042497 0.108253 -1.394345
1  0.000008 -0.000001 -0.000006  -0.000003 -1.570450 -1.570370
2  3.968632 -0.003572 0.000006  0.000008 -0.000092 -0.123068
3  -3.968964 0.006767 -3.450629  0.261469 2.984534 -0.599189
4  17.254904 -0.000065 -0.001340  -0.053378 -0.100297 -2.074449
5  17.254902 0.000073 -0.000256  0.092118 -0.098782 -0.533805
6  3.968580 5.003977 0.000000  -0.000000 -0.000000 1.605703
7  4.486279 -0.003589 -0.000411  -0.000000 -0.000000 0.267612
8  4.486283 -0.003604 -0.000412  0.000000 -0.000000 0.167637
9  4.486277 -0.003594 -0.000412  0.000000 -0.000000 0.166884
10  4.486217 -0.001603 -0.000413  0.000027 0.000088 0.294562
11  -0.000006 0.001574 -1.908399  -0.436536 1.297824 2.384884
12  3.867481 0.000001 0.000016  0.299247 -0.526454 -0.386726
13  14.390589 -0.000076 0.000010  -0.000001 0.000003 -1.532173
14  11.595293 0.000026 0.000033  2.169107 -0.471178 1.167007
15  4.415182 -0.060719 -1.931074  0.349184 0.219731 1.029543
16  0.923138 -0.000008 0.000006  -0.000002 0.000000 0.608240
17  0.923139 0.000005 0.000007  -0.000000 -0.000000 0.549978
18  4.449315 -0.067589 -0.950394  0.168965 0.108863 0.999778
19  1.128469 0.000012 -0.000015  -0.000000 -0.000000 0.660654
20  1.128471 0.000008 0.000007  0.000000 -0.000000 0.549976
21  4.416841 -0.015181 0.200536  0.066160 0.042366 0.991903
22  1.364871 0.000011 -0.000009  0.000000 -0.000000 0.681461
23  1.364868 -0.000003 -0.000023  -0.000000 -0.000000 0.549976
24  4.451083 -0.068736 1.121637  -0.168094 -0.110202 0.999683
25  1.107767 0.000015 -0.000010  -0.000000 0.000000 0.549978
26  1.107771 -0.000001 -0.000004  -0.000000 0.000000 0.549977
27  2.098163 0.045629 1.805192  -0.065391 -0.768750 0.107850
28  0.914518 0.000001 -0.000005  0.000001 0.000001 0.000001
29  0.914513 0.000003 -0.000007  -0.000000 -0.000000 -0.000000
30  -2.649296 10.619708 1.483456  -1.553532 -0.000124 1.590213
31  -0.000009 0.001562 1.908400  0.648616 -1.252033 2.275051
32  3.867497 -0.000002 -0.000014  -0.539645 0.421747 -0.700242
33  14.390614 -0.000015 -0.000006  -0.000002 -0.000005 -1.270777
34  11.595304 0.000078 -0.000009  -2.116541 -0.367168 -0.341555
35  4.415188 -0.060699 1.931088  -0.371498 -0.178018 1.142358
36  0.923134 0.000002 0.000011  -0.000001 0.000002 0.571016
37  0.923135 -0.000001 0.000007  -0.000000 0.000001 0.571015
38  4.449328 -0.067572 0.950411  -0.174496 -0.099699 1.052903
39  1.128471 0.000013 0.000004  -0.000001 0.000001 0.571013
40  1.128473 0.000017 0.000012  -0.000001 0.000001 0.571015
41  4.416841 -0.015165 -0.200532  -0.070691 -0.034279 1.109903
42  1.364876 0.000016 0.000003  0.000000 0.000000 0.453889
43  1.364859 0.000015 -0.000001  -0.000000 0.000000 0.571015
44  4.451108 -0.068712 -1.121633  0.176530 0.096013 1.081600
45  1.107776 0.000011 0.000000  -0.000003 -0.000005 0.387761
46  1.107774 0.000006 -0.000004  -0.000000 -0.000000 0.571015
47  2.098174 0.045635 -1.805194  0.065617 0.772360 0.108183
48  0.914515 0.000007 0.000005  0.000003 0.000000 0.000002
49  0.914518 0.000002 0.000009  -0.000000 -0.000000 -0.000000
50  1.969131 0.000031 0.000001  -0.085980 -0.008557 -0.644439
51  -3.968328 0.006748 3.451355  -0.136157 -3.121233 -0.238332
52  17.254913 -0.000137 0.002861  0.111406 0.013763 -0.760608
53  17.254910 0.000166 -0.001209  -0.045546 0.007219 0.340552
54  3.968616 5.003937 0.000007  0.000000 -0.000000 1.788957
time 10
0  1.191683 -56.213329 36.117599  0.031983 0.115528 -1.400998
1  0.000006 0.000001 -0.000006  -0.000005 -1.570450 -1.570374
2  3.968635 -0.003569 0.000004  0.000008 -0.000092 -0.123068
3  -3.968951 0.006759 -3.450628  0.119529 3.022878 -0.884359
4  17.254896 -0.000066 -0.001342  -0.049101 -0.112360 -2.148809
5  17.254906 0.000080 -0.000256  0.103140 -0.138205 -0.353483
6  3.968583 5.003977 0.000002  0.000001 -0.000000 1.605703
7  4.486287 -0.003606 -0.000412  0.000000 0.000000 0.267612
8  4.486276 -0.003594 -0.000411  0.000000 -0.000000 0.167637
9  4.486286 -0.003591 -0.000410  0.000000 -0.000000 0.166884
10  4.486209 -0.001589 -0.000411  0.000027 0.000088 0.294562
11  -0.000003 0.001568 -1.908398  -0.436536 1.297824 2.384884
12  3.867490 0.000008 0.000003  0.293529 -0.526369 -0.369479
13  14.390600 -0.000075 0.000013  -0.000001 0.000003 -1.544016
14  11.595293 0.000023 0.000035  2.174412 -0.482613 1.152751
15  4.415180 -0.060721 -1.931070  0.349184 0.219731 1.029543
16  0.923142 -0.000004 0.000007  -0.000002 0.000000 0.608240
17  0.923139 0.000009 -0.000001  -0.000000 -0.000000 0.549978
18  4.449303 -0.067589 -0.950405  0.168965 0.108863 0.999778
19  1.128473 0.000013 -0.000011  -0.000000 -0.000000 0.660654
20  1.128471 0.000004 0.000007  0.000000 -0.000000 0.549976
21  4.416829 -0.015185 0.200533  0.066160 0.042366 0.991903
22  1.364874 0.000005 -0.000008  0.000000 -0.000000 0.681461
23  1.364868 0.000008 0.000002  -0.000000 -0.000000 0.549976
24  4.451080 -0.068736 1.121620  -0.168094 -0.110202 0.999683
25  1.107769 0.000008 -0.000014  -0.000000 0.000000 0.549978
26  1.107769 0.000001 -0.000005  -0.000000 0.000000 0.549977
27  2.098157 0.045629 1.805212  -0.065391 -0.768750 0.107850
28  0.914510 -0.000000 -0.000007  0.000001 0.000001 0.000001
29  0.914505 0.000005 -0.000004  -0.000000 0.000000 -0.000000
30  -2.649453 10.619781 1.483415  -1.553531 -0.000124 1.590213
31  0.000003 0.001560 1.908403  0.648616 -1.252033 2.275051
32  3.867500 0.000002 -0.000020  -0.529189 0.427262 -0.684755
33  14.390602 -0.000012 -0.000004  -0.000001 -0.000005 -1.319281
34  11.595277 0.000089 -0.000019  -2.105450 -0.372740 -0.313250
35  4.415171 -0.060700 1.931087  -0.371498 -0.178018 1.142358
36  0.923137 0.000011 0.000006  -0.000001 0.000002 0.571016
37  0.923139 0.000000 0.000008  -0.000000 0.000001 0.571015
38  4.449296 -0.067571 0.950409  -0.174496 -0.099699 1.052903
39  1.128461 0.000017 0.000003  -0.000001 0.000001 0.571013
40  1.128471 0.000019 0.000011  -0.000001 0.000001 0.571015
41  4.416831 -0.015164 -0.200526  -0.070691 -0.034279 1.109903
42  1.364874 -0.000004 0.000004  0.000000 0.000000 0.453889
43  1.364859 -0.000009 0.000001  -0.000000 0.000000 0.571015
44  4.451090 -0.068713 -1.121628  0.176530 0.096013 1.081600
45  1.107767 0.000010 0.000007  -0.000003 -0.000005 0.387761
46  1.107770 -0.000016 0.000004  -0.000000 -0.000000 0.571015
47  2.098165 0.045636 -1.805196  0.065617 0.772360 0.108183
48  0.914503 0.000009 -0.000003  0.000003 0.000000 0.000002
49  0.914509 0.000002 0.000015  -0.000000 -0.000000 -0.000000
50  1.969149 0.000012 0.000002  -0.085980 -0.008557 -0.644439
51  -3.968309 0.006726 3.451353  -0.093204 -3.105889 -0.100955
52  17.254902 -0.000143 0.002863  0.098363 -0.003032 -0.781684
53  17.254900 0.000169 -0.001208  -0.059152 -0.014023 0.346918
54  3.968617 5.003945 0.000003  0.000000 0.000000 1.828218
time 11
0  1.324893 -61.607883 35.897385  0.021438 0.117189 -1.422787
1  -0.000002 0.000000 0.000001  -0.000022 -1.570450 -1.570383
2  3.968639 -0.003564 0.000005  0.000008 -0.000092 -0.123068
3  -3.968954 0.006760 -3.450626  0.073889 2.951378 -0.979204
4  17.254900 -0.000065 -0.001341  -0.054910 -0.077235 -1.955445
5  17.254917 0.000073 -0.000255  0.095389 -0.063190 -0.078743
6  3.968587 5.003976 0.000001  -0.000000 -0.000000 1.605703
7  4.486283 -0.003587 -0.000412  0.000000 -0.000000 0.267612
8  4.486291 -0.003584 -0.000411  0.000000 0.000000 0.167637
9  4.486274 -0.003591 -0.000411  0.000000 -0.000000 0.166884
10  4.486207 -0.001583 -0.000412  0.000027 0.000088 0.294562
11  0.000009 0.001571 -1.908401  -0.436536 1.297824 2.384884
12  3.867488 -0.000009 -0.000007  0.290578 -0.526856 -0.376705
13  14.390598 -0.000075 0.000000  -0.000001 0.000003 -1.546501
14  11.595291 0.000013 0.000027  2.171800 -0.488222 1.150391
15  4.415178 -0.060718 -1.931088  0.349184 0.219731 1.029543
16  0.923137 0.000006 -0.000006  -0.000002 0.000000 0.608240
17  0.923139 0.000005 -0.000005  -0.000000 -0.000000 0.549977
18  4.449303 -0.067588 -0.950404  0.168965 0.108863 0.999778
19  1.128481 0.000009 -0.000014  -0.000000 -0.000000 0.660654
20  1.128471 0.000004 -0.000014  0.000000 -0.000000 0.549976
21  4.416829 -0.015184 0.200517  0.066160 0.042366 0.991903
22  1.364870 0.000015 0.000008  0.000000 -0.000000 0.681461
23  1.364868 -0.000000 -0.000012  -0.000000 -0.000000 0.549976
24  4.451084 -0.068736 1.121613  -0.168094 -0.110202 0.999683
25  1.107767 0.000009 -0.000009  -0.000000 0.000000 0.549978
26  1.107769 -0.000001 -0.000014  -0.000000 0.000000 0.549977
27  2.098159 0.045627 1.805185  -0.065391 -0.768750 0.107850
28  0.914525 -0.000001 -0.000008  0.000001 0.000001 0.000001
29  0.914523 0.000004 -0.000009  0.000000 0.000000 -0.000000
30  -2.649472 10.619783 1.483366  -1.553531 -0.000125 1.590213
31  0.000006 0.001569 1.908397  0.648616 -1.252033 2.275051
32  3.867481 0.000001 0.000005  -0.523921 0.432733 -0.658020
33  14.390597 0.000003 -0.000007  -0.000001 -0.000005 -1.354564
34  11.595290 0.000081 -0.000026  -2.102802 -0.377010 -0.292516
35  4.415165 -0.060696 1.931086  -0.371498 -0.178018 1.142358
36  0.923129 0.000011 0.000009  -0.000001 0.000002 0.571016
37  0.923139 0.000001 0.000009  -0.000000 0.000001 0.571015
38  4.449316 -0.067570 0.950418  -0.174496 -0.099699 1.052903
39  1.128469 -0.000002 0.000008  -0.000001 0.000001 0.571013
40  1.128471 0.000019 0.000008  -0.000001 0.000001 0.571016
41  4.416841 -0.015164 -0.200518  -0.070691 -0.034279 1.109903
42  1.364864 0.000016 0.000004  0.000000 0.000000 0.453889
43  1.364859 0.000002 -0.000005  -0.000000 0.000000 0.571015
44  4.451078 -0.068710 -1.121627  0.176530 0.096013 1.081600
45  1.107761 0.000005 0.000010  -0.000003 -0.000005 0.387761
46  1.107771 0.000013 0.000000  0.000000 -0.000000 0.571015
47  2.098163 0.045640 -1.805195  0.065617 0.772359 0.108183
48  0.914506 0.000010 0.000002  0.000003 0.000000 0.000002
49  0.914526 -0.000001 0.000007  -0.000000 -0.000000 -0.000000
50  1.969156 0.000020 0.000001  -0.085980 -0.008557 -0.644439
51  -3.968314 0.006742 3.451354  -0.064586 -3.084319 0.031808
52  17.254908 -0.000139 0.002860  0.101580 -0.014654 -0.750741
53  17.254894 0.000171 -0.001207  -0.057234 -0.036264 0.141723
54  3.968614 5.003947 0.000008  0.000000 -0.000000 2.188342
time 12
0  1.373450 -67.002426 35.809299  0.011813 0.111371 -1.455149
1  0.000005 -0.000000 0.000006  -0.000027 -1.570450 -1.570388
2  3.968646 -0.003571 0.000005  0.000008 -0.000092 -0.123068
3  -3.968944 0.006768 -3.450628  0.070425 2.888789 -1.048056
4  17.254927 -0.000039 -0.001344  -0.034221 -0.037550 -1.739750
5  17.254913 0.000082 -0.000257  0.111617 0.014225 0.133148
6  3.968578 5.003983 0.000001  -0.000000 -0.000000 1.605703
7  4.486279 -0.003593 -0.000412  0.000000 -0.000000 0.267612
8  4.486292 -0.003575 -0.000411  -0.000000 0.000000 0.167637
9  4.486282 -0.003601 -0.000411  0.000000 -0.000000 0.166884
10  4.486217 -0.001596 -0.000411  0.000027 0.000088 0.294562
11  0.000001 0.001578 -1.908398  -0.436536 1.297824 2.384884
12  3.867479 -0.000007 0.000002  0.291237 -0.528287 -0.409545
13  14.390602 -0.000066 0.000016  -0.000001 0.000003 -1.531188
14  11.595289 0.000020 0.000017  2.162808 -0.487607 1.155458
15  4.415181 -0.060720 -1.931079  0.349184 0.219731 1.029543
16  0.923129 0.000005 -0.000008  -0.000002 0.000000 0.608240
17  0.923140 0.000004 -0.000009  -0.000000 -0.000000 0.549978
18  4.449303 -0.067588 -0.950396  0.168965 0.108863 0.999778
19  1.128468 0.000016 -0.000012  -0.000000 -0.000000 0.660654
20  1.128472 0.000001 -0.000004  0.000000 -0.000000 0.549976
21  4.416840 -0.015183 0.200528  0.066160 0.042366 0.991903
22  1.364872 0.000008 -0.000014  0.000000 -0.000000 0.681462
23  1.364869 0.000007 -0.000013  -0.000000 -0.000000 0.549976
24  4.451080 -0.068737 1.121629  -0.168094 -0.110202 0.999683
25  1.107768 0.000009 -0.000001  -0.000000 0.000000 0.549978
26  1.107771 -0.000002 0.000015  -0.000000 0.000000 0.549977
27  2.098160 0.045628 1.805201  -0.065391 -0.768750 0.107850
28  0.914516 0.000002 -0.000013  0.000001 0.000001 0.000001
29  0.914519 0.000002 -0.000002  0.000000 -0.000000 -0.000000
30  -2.649287 10.619720 1.483434  -1.553532 -0.000124 1.590213
31  0.000001 0.001556 1.908401  0.648615 -1.252033 2.275051
32  3.867491 0.000003 -0.000011  -0.524330 0.436198 -0.628252
33  14.390602 -0.000011 -0.000012  -0.000001 -0.000005 -1.362993
34  11.595302 0.000076 -0.000011  -2.108281 -0.378933 -0.286203
35  4.415186 -0.060697 1.931092  -0.371498 -0.178018 1.142358
36  0.923137 0.000005 0.000005  -0.000001 0.000002 0.571016
37  0.923135 0.000007 0.000006  -0.000000 0.000001 0.571015
38  4.449305 -0.067572 0.950415  -0.174496 -0.099699 1.052903
39  1.128472 0.000017 0.000010  -0.000001 0.000001 0.571013
40  1.128469 0.000018 0.000006  -0.000001 0.000001 0.571015
41  4.416821 -0.015163 -0.200518  -0.070691 -0.034279 1.109903
42  1.364875 0.000023 0.000002  0.000000 0.000000 0.453889
43  1.364861 0.000008 -0.000003  -0.000000 0.000000 0.571015
44  4.451081 -0.068713 -1.121618  0.176530 0.096013 1.081600
45  1.107770 0.000013 0.000011  -0.000003 -0.000005 0.387761
46  1.107771 0.000005 0.000006  -0.000000 -0.000000 0.571015
47  2.098165 0.045637 -1.805196  0.065617 0.772360 0.108183
48  0.914513 0.000009 -0.000002  0.000003 0.000000 0.000002
49  0.914516 0.000003 0.000002  -0.000000 -0.000000 -0.000000
50  1.969142 0.000014 0.000001  -0.085980 -0.008556 -0.644439
51  -3.968317 0.006741 3.451355  -0.042482 -3.079295 0.139337
52  17.254904 -0.000138 0.002861  0.104076 -0.017927 -0.792415
53  17.254906 0.000156 -0.001211  -0.051625 -0.041443 -0.040266
54  3.968612 5.003944 0.000006  -0.000000 0.000000 2.042678
time 13
0  1.311505 -72.396988 35.932972  0.002248 0.096829 -1.493675
1  -0.000004 -0.000000 -0.000003  -0.000016 -1.570450 -1.570398
2  3.968641 -0.003582 0.000006  0.000008 -0.000092 -0.123068
3  -3.968959 0.006739 -3.450628  0.093668 2.887306 -1.000139
4  17.254917 -0.000055 -0.001343  -0.028287 -0.027543 -1.495510
5  17.254917 0.000071 -0.000249  0.115328 0.008015 0.196604
6  3.968585 5.003965 0.000001  -0.000000 -0.000000 1.605703
7  4.486282 -0.003609 -0.000411  0.000000 -0.000000 0.267612
8  4.486284 -0.003594 -0.000411  0.000000 0.000000 0.167637
9  4.486280 -0.003601 -0.000412  0.000000 -0.000000 0.166884
10  4.486197 -0.001596 -0.000411  0.000027 0.000088 0.294562
11  0.000013 0.001579 -1.908402  -0.436536 1.297824 2.384884
12  3.867485 -0.000003 -0.000007  0.298051 -0.528190 -0.459874
13  14.390593 -0.000093 0.000015  -0.000001 0.000003 -1.514690
14  11.595293 0.000023 0.000012  2.146026 -0.488840 1.181989
15  4.415175 -0.060719 -1.931080  0.349184 0.219731 1.029543
16  0.923139 0.000012 -0.000010  -0.000002 0.000000 0.608240
17  0.923139 0.000008 0.000006  -0.000000 -0.000000 0.549977
18  4.449311 -0.067587 -0.950384  0.168965 0.108863 0.999778
19  1.128474 0.000013 -0.000020  -0.000000 -0.000000 0.660654
20  1.128472 -0.000005 -0.000002  0.000000 -0.000000 0.549976
21  4.416830 -0.015182 0.200541  0.066160 0.042366 0.991903
22  1.364874 0.000009 -0.000010  0.000000 -0.000000 0.681461
23  1.364869 0.000011 -0.000019  -0.000000 -0.000000 0.549976
24  4.451074 -0.068735 1.121644  -0.168094 -0.110202 0.999683
25  1.107764 0.000013 -0.000000  -0.000000 0.000000 0.549978
26  1.107769 0.000000 -0.000003  -0.000000 0.000000 0.549977
27  2.098173 0.045629 1.805200  -0.065391 -0.768750 0.107850
28  0.914500 0.000001 0.000007  0.000001 0.000001 0.000001
29  0.914504 0.000003 -0.000001  -0.000000 -0.000000 -0.000000
30  -2.650078 10.619994 1.483059  -1.553528 -0.000127 1.590210
31  -0.000007 0.001555 1.908401  0.648616 -1.252033 2.275051
32  3.867498 0.000013 0.000002  -0.535434 0.435682 -0.595176
33  14.390597 0.000005 -0.000005  -0.000001 -0.000005 -1.363098
34  11.595302 0.000090 -0.000013  -2.123692 -0.369053 -0.274600
35  4.415168 -0.060697 1.931084  -0.371498 -0.178018 1.142358
36  0.923134 -0.000004 0.000005  -0.000001 0.000002 0.571016
37  0.923141 -0.000000 0.000001  -0.000000 0.000001 0.571015
38  4.449319 -0.067570 0.950407  -0.174496 -0.099699 1.052903
39  1.128464 -0.000006 0.000004  -0.000001 0.000001 0.571013
40  1.128470 0.000012 0.000008  -0.000001 0.000001 0.571015
41  4.416833 -0.015162 -0.200526  -0.070691 -0.034279 1.109903
42  1.364868 -0.000005 -0.000001  0.000000 0.000000 0.453889
43  1.364858 0.000004 -0.000000  -0.000000 0.000000 0.571015
44  4.451084 -0.068712 -1.121623  0.176530 0.096013 1.081600
45  1.107769 0.000011 0.000005  -0.000003 -0.000005 0.387761
46  1.107772 0.000012 0.000003  -0.000000 -0.000000 0.571015
47  2.098166 0.045639 -1.805194  0.065617 0.772360 0.108183
48  0.914514 0.000005 0.000007  0.000003 0.000000 0.000002
49  0.914509 0.000001 -0.000012  0.000000 -0.000000 0.000000
50  1.969151 0.000018 0.000001  -0.085980 -0.008557 -0.644439
51  -3.968318 0.006738 3.451355  -0.046109 -3.128959 0.251761
52  17.254919 -0.000145 0.002859  0.091968 -0.005666 -0.848791
53  17.254908 0.000164 -0.001207  -0.061083 -0.007704 -0.209051
54  3.968613 5.003946 0.000005  -0.000000 0.000000 1.536214
time 14
0  1.140016 -77.791542 36.227882  -0.007724 0.074383 -1.533510
1  -0.000017 -0.000000 -0.000003  0.000051 -1.570450 -1.570435
2  3.968646 -0.003565 0.000006  0.000008 -0.000092 -0.123068
3  -3.968945 0.006761 -3.450628  0.139240 2.921497 -0.873982
4  17.254892 -0.000064 -0.001345  -0.034679 -0.032497 -1.207900
5  17.254908 0.000094 -0.000256  0.104673 -0.028017 0.191566
6  3.968578 5.003991 0.000004  -0.000000 0.000000 1.605703
7  4.486279 -0.003598 -0.000411  0.000000 -0.000000 0.267612
8  4.486279 -0.003617 -0.000412  0.000000 -0.000000 0.167637
9  4.486280 -0.003598 -0.000411  0.000000 0.000000 0.166884
10  4.486210 -0.001590 -0.000411  0.000027 0.000088 0.294562
11  0.000008 0.001574 -1.908400  -0.436536 1.297824 2.384884
12  3.867493 -0.000014 0.000004  0.309217 -0.525972 -0.518395
13  14.390610 -0.000083 0.000000  -0.000001 0.000003 -1.503885
14  11.595282 0.000029 0.000024  2.124157 -0.495493 1.229681
15  4.415174 -0.060719 -1.931061  0.349184 0.219731 1.029543
16  0.923141 0.000005 -0.000007  -0.000002 0.000000 0.608240
17  0.923139 0.000000 0.000007  -0.000000 -0.000000 0.549978
18  4.449302 -0.067589 -0.950396  0.168965 0.108863 0.999778
19  1.128476 0.000007 -0.000003  -0.000000 -0.000000 0.660654
20  1.128472 0.000004 -0.000018  0.000000 -0.000000 0.549976
21  4.416829 -0.015184 0.200549  0.066160 0.042366 0.991903
22  1.364870 0.000010 -0.000013  0.000000 -0.000000 0.681461
23  1.364869 -0.000002 0.000001  -0.000000 -0.000000 0.549976
24  4.451078 -0.068736 1.121644  -0.168094 -0.110202 0.999683
25  1.107773 0.000006 0.000010  -0.000000 0.000000 0.549978
26  1.107769 0.000004 -0.000004  -0.000000 0.000000 0.549977
27  2.098162 0.045627 1.805196  -0.065391 -0.768750 0.107850
28  0.914519 0.000001 -0.000005  0.000001 0.000001 0.000001
29  0.914527 0.000003 0.000003  -0.000000 0.000000 -0.000000
30  -2.649676 10.619836 1.483208  -1.553530 -0.000125 1.590212
31  -0.000003 0.001569 1.908397  0.648616 -1.252033 2.275051
32  3.867490 -0.000010 -0.000018  -0.556599 0.431119 -0.560353
33  14.390600 -0.000016 -0.000012  -0.000001 -0.000005 -1.364452
34  11.595295 0.000091 -0.000032  -2.146052 -0.344531 -0.250378
35  4.415179 -0.060696 1.931087  -0.371498 -0.178018 1.142358
36  0.923135 -0.000009 0.000012  -0.000001 0.000002 0.571016
37  0.923140 -0.000004 0.000011  -0.000000 0.000001 0.571015
38  4.449300 -0.067569 0.950415  -0.174496 -0.099699 1.052902
39  1.128466 0.000010 0.000005  -0.000001 0.000001 0.571013
40  1.128474 0.000012 0.000006  -0.000001 0.000001 0.571015
41  4.416836 -0.015164 -0.200517  -0.070691 -0.034279 1.109903
42  1.364865 -0.000008 -0.000002  0.000000 0.000000 0.453889
43  1.364859 0.000006 0.000000  -0.000000 0.000000 0.571015
44  4.451082 -0.068714 -1.121621  0.176530 0.096013 1.081600
45  1.107768 0.000010 0.000008  -0.000003 -0.000005 0.387761
46  1.107770 0.000005 -0.000001  -0.000000 -0.000000 0.571015
47  2.098163 0.045635 -1.805196  0.065617 0.772360 0.108183
48  0.914511 0.000011 -0.000016  0.000003 0.000000 0.000002
49  0.914518 0.000003 0.000001  0.000000 -0.000000 0.000000
50  1.969148 0.000013 0.000001  -0.085980 -0.008557 -0.644439
51  -3.968313 0.006752 3.451355  -0.067999 3.102852 0.328112
52  17.254902 -0.000133 0.002861  0.076805 0.009690 -0.965300
53  17.254906 0.000164 -0.001207  -0.075691 0.026536 -0.352481
54  3.968619 5.003946 0.000006  -0.000001 0.000000 1.605703
time 15
0  0.880600 -83.186096 36.579872  -0.017028 0.050059 -1.569755
1  -0.000002 0.000000 -0.000002  -0.000006 -1.570450 -1.570393
2  3.968634 -0.003580 0.000006  0.000008 -0.000092 -0.123068
3  -3.968958 0.006770 -3.450628  0.205182 3.011389 -0.710677
4  17.254908 -0.000069 -0.001344  -0.042273 -0.049445 -0.856509
5  17.254906 0.000065 -0.000256  0.093073 -0.094917 0.159397
6  3.968578 5.003981 -0.000001  -0.000000 0.000000 1.605703
7  4.486282 -0.003584 -0.000411  -0.000000 0.000000 0.267612
8  4.486282 -0.003588 -0.000411  -0.000000 0.000000 0.167637
9  4.486286 -0.003595 -0.000411  0.000000 -0.000000 0.166884
10  4.486208 -0.001577 -0.000411  0.000027 0.000088 0.294562
11  0.000005 0.001559 -1.908404  -0.436536 1.297824 2.384884
12  3.867487 0.000002 0.000016  0.319896 -0.525616 -0.580509
13  14.390599 -0.000094 0.000009  -0.000001 0.000003 -1.483230
14  11.595298 0.000022 0.000023  2.105609 -0.500204 1.272256
15  4.415177 -0.060719 -1.931083  0.349184 0.219731 1.029543
16  0.923139 0.000011 -0.000006  -0.000002 0.000000 0.608240
17  0.923140 0.000014 -0.000000  -0.000000 -0.000000 0.549978
18  4.449309 -0.067588 -0.950399  0.168965 0.108862 0.999778
19  1.128474 0.000008 -0.000016  -0.000000 -0.000000 0.660654
20  1.128471 0.000005 0.000001  0.000000 -0.000000 0.549976
21  4.416831 -0.015183 0.200532  0.066160 0.042366 0.991903
22  1.364873 0.000010 0.000003  0.000000 -0.000000 0.681461
23  1.364868 -0.000000 0.000001  -0.000000 -0.000000 0.549976
24  4.451082 -0.068736 1.121631  -0.168094 -0.110202 0.999683
25  1.107768 0.000013 0.000013  -0.000000 0.000000 0.549978
26  1.107770 -0.000003 -0.000011  -0.000000 0.000000 0.549977
27  2.098163 0.045627 1.805198  -0.065391 -0.768750 0.107850
28  0.914498 0.000001 0.000006  0.000001 0.000001 0.000001
29  0.914531 0.000004 0.000000  0.000000 0.000000 -0.000000
30  -2.649433 10.619725 1.483290  -1.553531 -0.000125 1.590213
31  0.000001 0.001560 1.908401  0.648616 -1.252033 2.275051
32  3.867495 0.000020 -0.000011  -0.578428 0.423860 -0.530418
33  14.390600 -0.000002 -0.000014  -0.000001 -0.000005 -1.351709
34  11.595296 0.000088 -0.000010  -2.167717 -0.316486 -0.234322
35  4.415182 -0.060699 1.931092  -0.371498 -0.178018 1.142358
36  0.923134 0.000018 0.000009  -0.000001 0.000002 0.571016
37  0.923136 0.000010 0.000006  -0.000000 0.000001 0.571015
38  4.449315 -0.067574 0.950422  -0.174496 -0.099699 1.052903
39  1.128469 -0.000005 0.000004  -0.000001 0.000001 0.571013
40  1.128469 0.000017 0.000000  -0.000001 0.000001 0.571015
41  4.416849 -0.015164 -0.200519  -0.070691 -0.034279 1.109903
42  1.364870 -0.000010 -0.000008  0.000000 0.000000 0.453889
43  1.364860 0.000008 -0.000004  -0.000000 0.000000 0.571015
44  4.451083 -0.068714 -1.121626  0.176530 0.096013 1.081600
45  1.107765 -0.000001 0.000006  -0.000003 -0.000005 0.387761
46  1.107772 0.000006 -0.000003  -0.000000 -0.000000 0.571015
47  2.098177 0.045635 -1.805192  0.065617 0.772360 0.108183
48  0.914531 0.000006 0.000004  0.000003 0.000000 0.000002
49  0.914517 0.000004 -0.000001  0.000000 -0.000000 0.000000
50  1.969125 0.000013 0.000001  -0.085980 -0.008556 -0.644439
51  -3.968323 0.006746 3.451354  -0.141077 3.097921 0.170782
52  17.254906 -0.000151 0.002861  0.074776 0.028887 -1.430827
53  17.254908 0.000174 -0.001207  -0.078645 0.058476 -0.376878
54  3.968613 5.003950 0.000006  0.000000 0.000000 1.605703
time 16
0  0.554876 -88.580650 36.874783  -0.022807 0.033075 -1.599736
1  0.000000 0.000000 0.000001  0.000003 -1.570450 -1.570404
2  3.968640 -0.003570 0.000006  0.000008 -0.000092 -0.123068
3  -3.968960 0.006794 -3.450628  0.253261 3.117997 -0.476314
4  17.254902 -0.000049 -0.001338  -0.079498 -0.043451 -0.391238
5  17.254913 0.000080 -0.000257  0.065196 -0.152300 0.014282
6  3.968576 5.003983 0.000002  -0.000000 0.000000 1.605703
7  4.486272 -0.003573 -0.000411  0.000000 -0.000000 0.267612
8  4.486284 -0.003583 -0.000411  -0.000000 -0.000000 0.167637
9  4.486286 -0.003597 -0.000411  -0.000000 0.000000 0.166884
10  4.486208 -0.001582 -0.000411  0.000027 0.000088 0.294562
11  -0.000001 0.001575 -1.908399  -0.436536 1.297824 2.384884
12  3.867489 0.000000 0.000014  0.326021 -0.531978 -0.640325
13  14.390600 -0.000072 0.000009  -0.000001 0.000003 -1.448023
14  11.595299 0.000020 0.000013  2.096823 -0.492916 1.290950
15  4.415168 -0.060720 -1.931062  0.349184 0.219731 1.029543
16  0.923139 0.000002 0.000002  -0.000002 0.000000 0.608240
17  0.923140 0.000001 -0.000008  -0.000000 -0.000000 0.549978
18  4.449305 -0.067588 -0.950399  0.168965 0.108863 0.999778
19  1.128476 0.000008 0.000015  -0.000000 -0.000000 0.660654
20  1.128470 -0.000001 0.000011  0.000000 -0.000000 0.549976
21  4.416827 -0.015183 0.200537  0.066160 0.042366 0.991904
22  1.364876 0.000006 -0.000023  0.000000 -0.000000 0.681462
23  1.364869 0.000006 -0.000005  -0.000000 -0.000000 0.549976
24  4.451073 -0.068735 1.121639  -0.168094 -0.110202 0.999683
25  1.107772 -0.000000 -0.000011  -0.000000 0.000000 0.549978
26  1.107771 -0.000003 0.000011  -0.000000 0.000000 0.549977
27  2.098151 0.045628 1.805204  -0.065391 -0.768750 0.107850
28  0.914507 0.000003 -0.000010  0.000001 0.000001 0.000001
29  0.914515 0.000004 0.000003  -0.000000 -0.000000 -0.000000
30  -2.650011 10.619860 1.482920  -1.553528 -0.000127 1.590211
31  -0.000015 0.001562 1.908398  0.648616 -1.252033 2.275051
32  3.867487 0.000001 -0.000004  -0.591745 0.417078 -0.507042
33  14.390585 -0.000015 0.000001  -0.000001 -0.000005 -1.314749
34  11.595317 0.000081 -0.000014  -2.185536 -0.298578 -0.246862
35  4.415163 -0.060698 1.931086  -0.371498 -0.178018 1.142358
36  0.923136 -0.000016 0.000006  -0.000001 0.000002 0.571016
37  0.923138 -0.000015 0.000008  -0.000000 0.000001 0.571015
38  4.449291 -0.067570 0.950407  -0.174496 -0.099699 1.052902
39  1.128469 -0.000006 0.000007  -0.000001 0.000001 0.571013
40  1.128474 0.000025 0.000003  -0.000001 0.000001 0.571015
41  4.416841 -0.015163 -0.200525  -0.070691 -0.034279 1.109903
42  1.364866 0.000013 0.000001  0.000000 0.000000 0.453889
43  1.364858 0.000020 0.000005  -0.000000 0.000000 0.571015
44  4.451076 -0.068711 -1.121629  0.176530 0.096013 1.081600
45  1.107764 0.000002 0.000011  -0.000003 -0.000005 0.387761
46  1.107769 0.000021 0.000001  0.000000 -0.000000 0.571015
47  2.098170 0.045637 -1.805189  0.065617 0.772360 0.108183
48  0.914508 0.000010 0.000014  0.000003 0.000000 0.000002
49  0.914503 0.000000 -0.000008  0.000000 -0.000000 0.000000
50  1.969112 0.000022 0.000001  -0.085980 -0.008557 -0.644439
51  -3.968330 0.006761 3.451356  -0.194832 3.124004 -0.069999
52  17.254910 -0.000140 0.002858  0.044902 0.023784 -1.864191
53  17.254894 0.000168 -0.001207  -0.110008 0.059635 -0.415807
54  3.968619 5.003950 0.000006  -0.000000 0.000000 1.605703
time 17
0  0.184460 -93.975197 36.998455  -0.019049 0.042410 -1.603285
1  -0.000007 0.000000 -0.000003  0.000009 -1.570450 -1.570395
2  3.968643 -0.003571 0.000006  0.000008 -0.000092 -0.123068
3  -3.968967 0.006762 -3.450627  0.252108 -3.116885 -0.241309
4  17.254917 -0.000036 -0.001335  -0.116424 -0.001330 -0.018907
5  17.254906 0.000075 -0.000256  0.034937 -0.074902 -0.320888
6  3.968579 5.003963 -0.000002  0.000000 -0.000003 1.605733
7  4.486269 -0.003604 -0.000411  0.000000 -0.000000 0.267612
8  4.486273 -0.003603 -0.000411  -0.000000 -0.000000 0.167637
9  4.486279 -0.003586 -0.000411  0.000000 0.000000 0.166884
10  4.486206 -0.001584 -0.000411  0.000027 0.000088 0.294562
11  -0.000006 0.001569 -1.908402  -0.436536 1.297824 2.384884
12  3.867483 -0.000007 -0.000002  0.322604 -0.538220 -0.646453
13  14.390615 -0.000065 0.000008  -0.000001 0.000003 -1.427402
14  11.595291 0.000021 0.000023  2.102587 -0.480643 1.272196
15  4.415191 -0.060718 -1.931062  0.349184 0.219731 1.029543
16  0.923139 0.000006 0.000005  -0.000002 0.000000 0.608240
17  0.923140 0.000012 0.000002  0.000000 -0.000000 0.549978
18  4.449304 -0.067588 -0.950396  0.168965 0.108863 0.999778
19  1.128473 0.000014 -0.000020  -0.000000 -0.000000 0.660654
20  1.128472 0.000005 0.000002  0.000000 -0.000000 0.549976
21  4.416823 -0.015183 0.200550  0.066160 0.042366 0.991903
22  1.364868 0.000008 -0.000015  0.000000 -0.000000 0.681462
23  1.364869 0.000008 -0.000017  -0.000000 -0.000000 0.549976
24  4.451083 -0.068734 1.121640  -0.168094 -0.110202 0.999683
25  1.107767 0.000009 0.000002  -0.000000 0.000000 0.549978
26  1.107770 -0.000004 0.000008  -0.000000 0.000000 0.549977
27  2.098157 0.045628 1.805207  -0.065391 -0.768750 0.107850
28  0.914507 0.000003 0.000001  0.000001 0.000001 0.000001
29  0.914508 0.000004 -0.000016  0.000000 0.000000 -0.000000
30  -2.649529 10.619736 1.483239  -1.553531 -0.000125 1.590213
31  -0.000022 0.001579 1.908397  0.648616 -1.252033 2.275051
32  3.867493 0.000013 0.000001  -0.584534 0.417278 -0.513253
33  14.390598 -0.000021 -0.000021  -0.000002 -0.000005 -1.281373
34  11.595300 0.000093 -0.000023  -2.185971 -0.308508 -0.277322
35  4.415166 -0.060700 1.931084  -0.371498 -0.178018 1.142358
36  0.923131 0.000012 0.000017  -0.000001 0.000002 0.571016
37  0.923139 -0.000001 0.000010  -0.000000 0.000001 0.571015
38  4.449299 -0.067572 0.950415  -0.174496 -0.099699 1.052903
39  1.128472 -0.000010 0.000007  -0.000001 0.000001 0.571013
40  1.128471 0.000014 0.000005  -0.000001 0.000001 0.571015
41  4.416833 -0.015165 -0.200518  -0.070691 -0.034279 1.109903
42  1.364873 -0.000013 0.000003  0.000000 0.000000 0.453889
43  1.364860 0.000001 0.000006  -0.000000 0.000000 0.571015
44  4.451085 -0.068714 -1.121623  0.176530 0.096013 1.081600
45  1.107763 0.000003 0.000004  -0.000003 -0.000005 0.387761
46  1.107772 -0.000010 0.000001  -0.000000 -0.000000 0.571015
47  2.098146 0.045637 -1.805189  0.065617 0.772360 0.108183
48  0.914497 0.000008 -0.000011  0.000003 0.000000 0.000002
49  0.914516 0.000000 -0.000006  -0.000000 -0.000000 0.000000
50  1.969130 0.000012 0.000001  -0.085980 -0.008556 -0.644439
51  -3.968330 0.006741 3.451355  -0.197743 -3.110993 -0.262219
52  17.254911 -0.000135 0.002857  0.039980 0.027510 -1.963349
53  17.254910 0.000171 -0.001209  -0.114412 0.056315 -0.448956
54  3.968623 5.003954 0.000006  0.000000 0.000000 1.605703
time 18
0  -0.202675 -99.369751 36.855087  -0.014068 0.055716 -1.602664
1  -0.000016 -0.000000 -0.000004  0.000026 -1.570450 -1.570405
2  3.968637 -0.003592 0.000006  0.000008 -0.000092 -0.123068
3  -3.968961 0.006744 -3.450627  0.285029 3.115951 -0.381969
4  17.254911 -0.000068 -0.001332  -0.093358 -0.031257 -0.587379
5  17.254911 0.000071 -0.000253  0.046039 -0.089463 0.101287
6  3.968578 5.003977 -0.000001  -0.000000 0.000000 1.605703
7  4.486274 -0.003598 -0.000411  0.000000 -0.000000 0.267612
8  4.486271 -0.003571 -0.000411  -0.000000 -0.000000 0.167637
9  4.486288 -0.003598 -0.000411  -0.000000 0.000000 0.166884
10  4.486220 -0.001597 -0.000411  0.000027 0.000088 0.294562
11  0.000005 0.001575 -1.908400  -0.436536 1.297824 2.384884
12  3.867490 -0.000020 0.000009  0.314403 -0.531680 -0.629368
13  14.390600 -0.000060 0.000013  -0.000001 0.000003 -1.383916
14  11.595293 0.000014 0.000014  2.105342 -0.485586 1.216856
15  4.415168 -0.060719 -1.931084  0.349184 0.219731 1.029543
16  0.923146 0.000009 0.000010  -0.000002 0.000000 0.608240
17  0.923138 0.000010 0.000004  -0.000000 -0.000000 0.549977
18  4.449299 -0.067590 -0.950406  0.168965 0.108863 0.999778
19  1.128470 0.000009 0.000010  -0.000000 -0.000000 0.660654
20  1.128471 0.000005 0.000006  0.000000 -0.000000 0.549976
21  4.416825 -0.015184 0.200533  0.066160 0.042366 0.991903
22  1.364872 0.000012 -0.000005  0.000000 -0.000000 0.681461
23  1.364868 -0.000005 -0.000019  -0.000000 -0.000000 0.549976
24  4.451070 -0.068735 1.121631  -0.168094 -0.110202 0.999683
25  1.107772 0.000008 0.000017  -0.000000 0.000000 0.549978
26  1.107770 0.000001 0.000004  -0.000000 0.000000 0.549977
27  2.098162 0.045627 1.805192  -0.065391 -0.768750 0.107850
28  0.914516 -0.000002 -0.000014  0.000001 0.000001 0.000001
29  0.914508 0.000003 0.000011  -0.000000 -0.000000 -0.000000
30  -2.650155 10.619871 1.482858  -1.553528 -0.000126 1.590211
31  -0.000010 0.001568 1.908399  0.648616 -1.252033 2.275051
32  3.867490 0.000005 -0.000006  -0.558069 0.427840 -0.536468
33  14.390602 -0.000019 -0.000011  -0.000002 -0.000005 -1.258637
34  11.595277 0.000082 -0.000016  -2.169535 -0.345106 -0.297534
35  4.415157 -0.060698 1.931087  -0.371498 -0.178018 1.142358
36  0.923138 0.000009 0.000004  -0.000001 0.000002 0.571016
37  0.923137 0.000002 0.000014  -0.000000 0.000001 0.571015
38  4.449292 -0.067572 0.950412  -0.174496 -0.099699 1.052903
39  1.128473 -0.000003 -0.000003  -0.000001 0.000001 0.571013
40  1.128468 -0.000009 0.000008  -0.000001 0.000001 0.571015
41  4.416827 -0.015165 -0.200521  -0.070691 -0.034279 1.109903
42  1.364874 0.000003 0.000001  0.000000 0.000000 0.453889
43  1.364860 0.000011 -0.000003  -0.000000 0.000000 0.571015
44  4.451076 -0.068712 -1.121627  0.176530 0.096013 1.081600
45  1.107777 0.000007 0.000017  -0.000003 -0.000005 0.387761
46  1.107768 0.000018 0.000007  -0.000000 -0.000000 0.571015
47  2.098151 0.045634 -1.805188  0.065617 0.772360 0.108183
48  0.914490 0.000010 -0.000002  0.000003 0.000000 0.000002
49  0.914525 0.000001 0.000002  0.000000 -0.000000 -0.000000
50  1.969145 0.000020 0.000001  -0.085980 -0.008557 -0.644439
51  -3.968322 0.006735 3.451354  -0.186643 -3.065174 -0.445172
52  17.254911 -0.000146 0.002862  0.037261 0.033565 -2.025630
53  17.254919 0.000162 -0.001209  -0.116024 0.053715 -0.478400
54  3.968611 5.003949 0.000006  -0.000000 0.000000 1.605703
time 19
0  -0.553149 -104.764320 36.539677  -0.008748 0.069923 -1.600043
1  0.000018 0.000001 -0.000001  0.000013 -1.570450 -1.570374
2  3.968641 -0.003562 0.000006  0.000008 -0.000092 -0.123068
3  -3.968951 0.006754 -3.450627  0.324192 3.098701 -0.284904
4  17.254906 -0.000045 -0.001344  -0.074592 -0.026922 -0.714632
5  17.254900 0.000092 -0.000260  0.048825 -0.090688 0.355782
6  3.968580 5.003954 -0.000000  -0.000000 -0.000000 1.605703
7  4.486279 -0.003592 -0.000411  -0.000000 -0.000000 0.267612
8  4.486282 -0.003575 -0.000411  -0.000000 -0.000000 0.167637
9  4.486272 -0.003593 -0.000412  0.000000 0.000000 0.166884
10  4.486205 -0.001589 -0.000411  0.000027 0.000088 0.294562
11  -0.000016 0.001577 -1.908394  -0.436536 1.297824 2.384884
12  3.867483 -0.000017 -0.000008  0.304379 -0.520867 -0.611866
13  14.390585 -0.000082 0.000002  -0.000001 0.000003 -1.315956
14  11.595285 0.000029 0.000015  2.108615 -0.519645 1.138174
15  4.415179 -0.060718 -1.931086  0.349184 0.219731 1.029543
16  0.923143 0.000006 -0.000000  -0.000002 0.000000 0.608240
17  0.923138 0.000018 -0.000011  -0.000000 -0.000000 0.549977
18  4.449308 -0.067587 -0.950409  0.168965 0.108863 0.999778
19  1.128472 0.000013 0.000003  -0.000000 -0.000000 0.660654
20  1.128471 0.000003 0.000001  0.000000 -0.000000 0.549976
21  4.416827 -0.015183 0.200528  0.066160 0.042366 0.991903
22  1.364873 0.000007 0.000000  0.000000 -0.000000 0.681462
23  1.364867 0.000014 -0.000021  -0.000000 -0.000000 0.549976
24  4.451075 -0.068734 1.121626  -0.168094 -0.110202 0.999683
25  1.107768 0.000010 0.000004  -0.000000 0.000000 0.549978
26  1.107769 -0.000001 -0.000006  -0.000000 0.000000 0.549977
27  2.098155 0.045625 1.805192  -0.065391 -0.768750 0.107850
28  0.914509 0.000001 -0.000006  0.000001 0.000001 0.000001
29  0.914496 0.000001 -0.000002  0.000000 -0.000000 -0.000000
30  -2.650174 10.619977 1.482845  -1.553528 -0.000127 1.590211
31  -0.000003 0.001582 1.908399  0.648615 -1.252033 2.275051
32  3.867484 -0.000013 0.000008  -0.522254 0.440497 -0.552580
33  14.390591 -0.000011 -0.000013  -0.000002 -0.000005 -1.270953
34  11.595324 0.000078 -0.000019  -2.138562 -0.380321 -0.276093
35  4.415170 -0.060696 1.931089  -0.371498 -0.178018 1.142358
36  0.923130 0.000020 0.000007  -0.000001 0.000002 0.571016
37  0.923142 0.000015 -0.000004  -0.000000 0.000001 0.571015
38  4.449311 -0.067570 0.950413  -0.174496 -0.099699 1.052903
39  1.128461 -0.000001 0.000010  -0.000001 0.000001 0.571013
40  1.128473 0.000034 0.000011  -0.000001 0.000001 0.571016
41  4.416831 -0.015163 -0.200519  -0.070691 -0.034279 1.109903
42  1.364871 -0.000016 0.000014  0.000000 0.000000 0.453889
43  1.364861 0.000038 0.000002  -0.000000 0.000000 0.571015
44  4.451103 -0.068712 -1.121623  0.176530 0.096013 1.081600
45  1.107759 0.000012 0.000009  -0.000003 -0.000005 0.387761
46  1.107769 0.000023 0.000003  -0.000000 -0.000000 0.571015
47  2.098184 0.045641 -1.805194  0.065617 0.772360 0.108183
48  0.914523 0.000009 0.000005  0.000003 0.000000 0.000002
49  0.914509 0.000002 0.000002  -0.000000 -0.000000 -0.000000
50  1.969151 0.000022 0.000001  -0.085980 -0.008556 -0.644439
51  -3.968314 0.006756 3.451356  -0.167203 -3.024813 -0.619545
52  17.254908 -0.000156 0.002859  0.036237 0.040519 -2.066276
53  17.254896 0.000172 -0.001211  -0.118291 0.052442 -0.502144
54  3.968625 5.003949 0.000005  -0.000000 -0.000000 1.605703
time 20
0  -0.807226 -110.158859 36.224266  -0.004214 0.081891 -1.597477
1  0.000013 0.000001 -0.000005  0.000071 -1.570450 -1.570425
2  3.968644 -0.003569 0.000006  0.000008 -0.000092 -0.123068
3  -3.968953 0.006754 -3.450628  0.338203 3.095082 -0.135249
4  17.254908 -0.000061 -0.001339  -0.079181 -0.022827 -0.717440
5  17.254919 0.000091 -0.000259  0.045188 -0.058964 0.448371
6  3.968583 5.003973 0.000001  0.000000 0.000000 1.671139
7  4.486279 -0.003610 -0.000411  0.000000 0.000000 0.267612
8  4.486284 -0.003588 -0.000411  -0.000000 -0.000000 0.167637
9  4.486298 -0.003587 -0.000411  0.000000 0.000000 0.166884
10  4.486224 -0.001582 -0.000411  0.000027 0.000088 0.294562
11  -0.000000 0.001554 -1.908404  -0.436536 1.297824 2.384884
12  3.867483 -0.000028 -0.000001  0.297502 -0.512791 -0.607486
13  14.390589 -0.000070 -0.000007  -0.000000 0.000003 -1.238612
14  11.595285 0.000024 0.000021  2.111541 -0.569658 1.058991
15  4.415176 -0.060719 -1.931071  0.349184 0.219731 1.029543
16  0.923134 0.000010 -0.000016  -0.000002 0.000000 0.608240
17  0.923139 0.000000 0.000008  -0.000000 -0.000000 0.549977
18  4.449299 -0.067587 -0.950404  0.168965 0.108863 0.999778
19  1.128477 0.000013 -0.000005  -0.000000 -0.000000 0.660654
20  1.128472 0.000004 -0.000010  0.000000 -0.000000 0.549976
21  4.416823 -0.015183 0.200552  0.066160 0.042366 0.991903
22  1.364871 0.000003 -0.000011  0.000000 -0.000000 0.681461
23  1.364870 0.000006 0.000021  -0.000000 -0.000000 0.549976
24  4.451070 -0.068734 1.121644  -0.168094 -0.110202 0.999683
25  1.107775 0.000007 0.000008  -0.000000 0.000000 0.549978
26  1.107771 0.000004 0.000002  -0.000000 0.000000 0.549977
27  2.098146 0.045628 1.805184  -0.065391 -0.768750 0.107850
28  0.914514 0.000001 0.000005  0.000001 0.000000 0.000001
29  0.914506 0.000004 0.000017  0.000000 -0.000000 -0.000000
30  -2.649705 10.619886 1.483087  -1.553531 -0.000125 1.590212
31  -0.000001 0.001564 1.908400  0.648615 -1.252033 2.275051
32  3.867480 0.000024 0.000011  -0.487408 0.449532 -0.553181
33  14.390591 0.000012 -0.000013  -0.000001 -0.000005 -1.312768
34  11.595294 0.000093 -0.000010  -2.104446 -0.403034 -0.219055
35  4.415154 -0.060698 1.931089  -0.371498 -0.178018 1.142358
36  0.923138 -0.000002 -0.000003  -0.000001 0.000002 0.571016
37  0.923138 0.000008 0.000012  -0.000000 0.000001 0.571015
38  4.449290 -0.067572 0.950411  -0.174496 -0.099699 1.052903
39  1.128464 0.000001 0.000009  -0.000001 0.000001 0.571013
40  1.128473 0.000030 0.000006  -0.000001 0.000001 0.571015
41  4.416825 -0.015165 -0.200525  -0.070691 -0.034279 1.109903
42  1.364869 0.000016 0.000004  0.000000 0.000000 0.453889
43  1.364859 -0.000016 0.000001  -0.000000 0.000000 0.571015
44  4.451066 -0.068714 -1.121634  0.176530 0.096013 1.081600
45  1.107771 -0.000004 0.000007  -0.000003 -0.000005 0.387761
46  1.107770 0.000006 0.000001  0.000000 -0.000000 0.571015
47  2.098147 0.045636 -1.805198  0.065617 0.772360 0.108183
48  0.914507 0.000007 -0.000007  0.000003 0.000000 0.000002
49  0.914515 0.000001 0.000002  -0.000000 -0.000000 0.000000
50  1.969141 0.000008 0.000001  -0.085980 -0.008557 -0.644439
51  -3.968317 0.006733 3.451355  -0.155505 -3.002972 -0.632940
52  17.254921 -0.000133 0.002863  0.041918 0.056258 -2.050982
53  17.254915 0.000165 -0.001208  -0.116605 0.047761 -0.415165
54  3.968624 5.003950 0.000006  0.000000 0.000000 1.605703
time 21
0  -0.905171 -115.553413 36.080898  -0.004298 0.081886 -1.598505
1  0.000017 -0.000000 -0.000003  0.000004 -1.570450 -1.570393
2  3.968635 -0.003555 0.000006  0.000008 -0.000092 -0.123068
3  -3.968956 0.006721 -3.450627  0.351820 3.108702 0.087243
4  17.254904 -0.000046 -0.001347  -0.092882 -0.015436 -0.569972
5  17.254898 0.000089 -0.000254  0.043090 -0.014348 0.449260
6  3.968578 5.003960 0.000001  -0.000000 -0.000000 1.736591
7  4.486275 -0.003609 -0.000411  0.000000 -0.000000 0.267612
8  4.486282 -0.003570 -0.000411  -0.000000 -0.000000 0.167637
9  4.486291 -0.003585 -0.000411  0.000000 0.000000 0.166884
10  4.486201 -0.001599 -0.000411  0.000027 0.000088 0.294562
11  -0.000015 0.001556 -1.908397  -0.436536 1.297824 2.384884
12  3.867491 -0.000014 0.000004  0.295925 -0.509243 -0.616247
13  14.390609 -0.000088 0.000011  -0.000000 0.000003 -1.186861
14  11.595291 0.000018 0.000026  2.111664 -0.597495 1.017174
15  4.415192 -0.060720 -1.931038  0.349184 0.219731 1.029543
16  0.923149 0.000007 0.000025  -0.000002 0.000000 0.608240
17  0.923139 -0.000011 -0.000013  -0.000000 -0.000001 0.549977
18  4.449298 -0.067589 -0.950392  0.168965 0.108863 0.999778
19  1.128474 0.000008 0.000007  -0.000000 -0.000000 0.660654
20  1.128472 0.000004 -0.000017  0.000000 -0.000000 0.549976
21  4.416825 -0.015183 0.200541  0.066160 0.042366 0.991903
22  1.364872 0.000002 0.000010  0.000000 -0.000000 0.681461
23  1.364868 0.000004 -0.000011  -0.000000 -0.000000 0.549976
24  4.451078 -0.068735 1.121668  -0.168094 -0.110202 0.999683
25  1.107765 0.000008 0.000005  -0.000000 0.000000 0.549978
26  1.107768 0.000003 -0.000010  -0.000000 0.000000 0.549977
27  2.098155 0.045628 1.805226  -0.065391 -0.768750 0.107850
28  0.914518 -0.000001 0.000014  0.000001 0.000000 0.000001
29  0.914505 0.000003 -0.000009  -0.000000 0.000000 -0.000000
30  -2.650042 10.620039 1.482879  -1.553530 -0.000126 1.590212
31  -0.000013 0.001554 1.908399  0.648616 -1.252033 2.275051
32  3.867491 0.000014 -0.000011  -0.470784 0.452510 -0.551838
33  14.390602 -0.000030 -0.000009  -0.000001 -0.000005 -1.330019
34  11.595329 0.000082 -0.000005  -2.088652 -0.411958 -0.186417
35  4.415155 -0.060698 1.931092  -0.371498 -0.178018 1.142358
36  0.923136 0.000000 0.000006  -0.000001 0.000002 0.571016
37  0.923136 0.000034 0.000013  -0.000000 0.000001 0.571015
38  4.449301 -0.067570 0.950411  -0.174496 -0.099699 1.052903
39  1.128484 0.000009 0.000004  -0.000001 0.000001 0.571013
40  1.128472 0.000017 0.000009  -0.000001 0.000001 0.571015
41  4.416820 -0.015162 -0.200519  -0.070691 -0.034279 1.109903
42  1.364874 -0.000004 -0.000005  0.000000 0.000000 0.453889
43  1.364860 -0.000003 -0.000001  -0.000000 0.000000 0.571015
44  4.451085 -0.068712 -1.121634  0.176530 0.096013 1.081600
45  1.107774 -0.000002 0.000004  -0.000003 -0.000005 0.387761
46  1.107772 -0.000031 0.000005  -0.000000 -0.000000 0.571015
47  2.098182 0.045639 -1.805206  0.065617 0.772360 0.108183
48  0.914505 0.000012 0.000012  0.000003 0.000000 0.000002
49  0.914500 0.000003 -0.000015  0.000000 -0.000000 0.000000
50  1.969120 0.000003 0.000001  -0.085980 -0.008557 -0.644439
51  -3.968310 0.006717 3.451353  -0.155010 -2.983437 -0.597658
52  17.254906 -0.000134 0.002859  0.048134 0.072680 -2.040758
53  17.254908 0.000166 -0.001209  -0.119772 0.048022 -0.283765
54  3.968616 5.003943 0.000005  -0.000000 0.000000 1.605703
end
