version 1
nodes
0 "Bip01" -1
1 "Bip01 Pelvis" 0
2 "Bip01 Spine" 1
3 "Bip01 R Thigh" 2
4 "Bip01 R Calf" 3
5 "Bip01 R Foot" 4
6 "Bip01 R Toe0" 5
7 "Bip01 Spine1" 2
8 "Bip01 Spine2" 7
9 "Bip01 Spine3" 8
10 "Bip01 Neck" 9
11 "Bip01 R Clavicle" 10
12 "Bip01 R UpperArm" 11
13 "Bip01 R Forearm" 12
14 "Bip01 R Hand" 13
15 "Bip01 R Finger4" 14
16 "Bip01 R Finger41" 15
17 "Bip01 R Finger42" 16
18 "Bip01 R Finger3" 14
19 "Bip01 R Finger31" 18
20 "Bip01 R Finger32" 19
21 "Bip01 R Finger2" 14
22 "Bip01 R Finger21" 21
23 "Bip01 R Finger22" 22
24 "Bip01 R Finger1" 14
25 "Bip01 R Finger11" 24
26 "Bip01 R Finger12" 25
27 "Bip01 R Finger0" 14
28 "Bip01 R Finger01" 27
29 "Bip01 R Finger02" 28
30 "ValveBiped.Bip01_R_Hand" 14
31 "Bip01 L Clavicle" 10
32 "Bip01 L UpperArm" 31
33 "Bip01 L Forearm" 32
34 "Bip01 L Hand" 33
35 "Bip01 L Finger4" 34
36 "Bip01 L Finger41" 35
37 "Bip01 L Finger42" 36
38 "Bip01 L Finger3" 34
39 "Bip01 L Finger31" 38
40 "Bip01 L Finger32" 39
41 "Bip01 L Finger2" 34
42 "Bip01 L Finger21" 41
43 "Bip01 L Finger22" 42
44 "Bip01 L Finger1" 34
45 "Bip01 L Finger11" 44
46 "Bip01 L Finger12" 45
47 "Bip01 L Finger0" 34
48 "Bip01 L Finger01" 47
49 "Bip01 L Finger02" 48
50 "Bip01 Head" 10
51 "Bip01 L Thigh" 2
52 "Bip01 L Calf" 51
53 "Bip01 L Foot" 52
54 "Bip01 L Toe0" 53
end
skeleton
time 0
0  -1.651683 1.618985 35.795822  0.007928 0.114887 -1.894840
1  0.000000 -0.000000 0.000001  -0.000019 -1.568569 -1.570784
2  3.968642 -0.003571 0.000006  0.000176 -0.002207 -0.085597
3  -3.968388 0.006762 -3.451274  0.080102 2.972307 -0.279511
4  17.254911 -0.000042 -0.000989  0.000000 0.000000 -0.820673
5  17.254915 0.000042 0.000454  -0.009899 0.135556 0.555939
6  3.968602 5.003962 -0.000010  -0.000000 0.000000 1.570794
7  4.486289 -0.003593 0.000319  0.035642 0.004794 -0.067498
8  4.486286 -0.003593 0.000319  0.037742 -0.001622 0.224013
9  4.486286 -0.003593 0.000319  -0.038147 0.052660 0.236203
10  4.486217 -0.001587 0.000319  -0.000000 -0.000001 0.576256
11  -0.000004 0.001578 -1.908400  -1.933208 1.907723 0.700863
12  3.867485 -0.000004 0.000011  0.081900 -1.068024 -0.754126
13  14.390590 -0.000030 0.000010  -0.000000 -0.000004 -1.625526
14  11.595291 0.000027 0.000023  1.768662 0.096134 -0.192775
15  4.415177 -0.060702 -1.931067  0.352972 0.059848 1.407712
16  0.923138 -0.000003 0.000002  -0.000000 0.000002 0.519869
17  0.923140 -0.000005 -0.000002  -0.000002 -0.000008 0.981238
18  4.449301 -0.067571 -0.950391  0.088739 0.254261 0.748304
19  1.128474 -0.000001 0.000000  0.000001 0.000000 1.290713
20  1.128469 -0.000004 0.000002  0.000007 0.000008 0.794807
21  4.416829 -0.015163 0.200540  0.008685 0.074598 0.772611
22  1.364872 0.000001 0.000003  0.000000 -0.000000 1.203922
23  1.364871 0.000002 0.000007  0.000002 -0.000001 1.251910
24  4.451073 -0.068716 1.121642  -0.045649 -0.462305 0.236338
25  1.107770 -0.000000 0.000009  0.000001 -0.000001 0.854810
26  1.107772 -0.000006 0.000002  -0.000001 -0.000001 1.094666
27  2.098156 0.045633 1.805203  -2.032808 -0.211087 1.119208
28  0.914512 0.000002 -0.000008  -0.000000 0.000000 0.366503
29  0.914506 0.000006 -0.000001  -0.000000 -0.000000 0.357788
30  -0.162433 0.426976 0.618814  -3.119231 0.139155 0.002813
31  -0.000007 0.001565 1.908402  0.728850 -1.049029 1.659864
32  3.867486 0.000002 -0.000008  -0.581514 0.467197 -0.998836
33  14.390611 0.000061 -0.000009  -0.000002 -0.000001 -0.758840
34  11.595304 0.000092 -0.000017  2.617733 0.753669 -0.522386
35  4.415174 -0.060691 1.931085  -0.306597 0.077733 0.977830
36  0.923135 0.000002 0.000002  0.000000 -0.000000 1.020987
37  0.923143 -0.000001 -0.000002  0.000000 -0.000000 1.021001
38  4.449304 -0.067568 0.950409  -0.095344 -0.063664 1.034875
39  1.128464 0.000003 0.000003  0.000000 -0.000000 1.020988
40  1.128471 0.000002 0.000001  0.000000 0.000000 1.021001
41  4.416832 -0.015158 -0.200527  -0.000412 0.000679 1.031470
42  1.364876 -0.000002 0.000006  0.000000 -0.000000 1.020988
43  1.364862 0.000005 0.000002  0.000000 0.000000 1.021001
44  4.451084 -0.068704 -1.121630  0.164310 -0.056121 1.013838
45  1.107779 0.000013 0.000005  -0.000000 -0.000000 1.021001
46  1.107768 -0.000001 0.000005  0.000000 -0.000000 1.021001
47  2.098163 0.045641 -1.805198  1.841983 0.710509 0.601157
48  0.914510 0.000012 0.000008  0.000003 0.000004 -0.359682
49  0.914508 0.000006 0.000001  0.000000 -0.000000 -0.252884
50  1.969132 0.000010 0.000000  0.259315 0.000001 -0.406582
51  -3.968876 0.006742 3.450709  -0.255189 -2.868356 -0.519928
52  17.254908 -0.000126 0.002806  -0.000001 0.000002 -0.723989
53  17.254906 0.000124 -0.001284  -0.073178 -0.118996 0.175263
54  3.968614 5.003949 0.000005  0.000000 -0.000000 1.570796
time 1
0  -1.733027 2.514056 35.665306  0.016874 0.173185 -1.982780
1  0.000001 0.000000 0.000002  -0.000008 -1.568569 -1.570810
2  3.968644 -0.003571 0.000006  0.000176 -0.002207 -0.085597
3  -3.968384 0.006762 -3.451274  0.025608 2.985671 -0.410062
4  17.254906 -0.000041 -0.000988  -0.000000 -0.000000 -0.869207
5  17.254917 0.000041 0.000453  -0.053442 0.122992 0.540806
6  3.968603 5.003962 -0.000009  -0.000000 -0.000000 1.570794
7  4.486288 -0.003593 0.000320  0.035642 0.004794 -0.067498
8  4.486290 -0.003593 0.000320  0.038315 -0.001695 0.224009
9  4.486285 -0.003592 0.000320  -0.038147 0.052660 0.236203
10  4.486212 -0.001585 0.000320  0.031584 -0.137350 0.601623
11  -0.000001 0.001567 -1.908400  -1.987342 1.923522 0.716214
12  3.867485 -0.000003 0.000007  -0.046246 -1.068523 -0.644311
13  14.390589 -0.000028 0.000008  -0.000000 -0.000005 -1.719563
14  11.595289 0.000024 0.000023  1.689636 0.190642 -0.380197
15  4.415177 -0.060704 -1.931069  0.352972 0.059848 1.407712
16  0.923138 -0.000003 0.000002  -0.000000 0.000002 0.519869
17  0.923142 -0.000001 0.000007  -0.000002 -0.000008 0.981238
18  4.449302 -0.067573 -0.950389  0.088739 0.254261 0.748304
19  1.128473 0.000001 0.000009  0.000001 0.000000 1.290713
20  1.128468 -0.000003 -0.000000  0.000007 0.000008 0.794807
21  4.416829 -0.015165 0.200543  0.008685 0.074598 0.772611
22  1.364872 0.000000 0.000006  0.000000 -0.000000 1.203922
23  1.364871 0.000002 0.000005  0.000002 -0.000001 1.251910
24  4.451073 -0.068720 1.121647  -0.051476 -0.461705 0.249403
25  1.107770 0.000000 0.000003  0.000001 -0.000001 0.853460
26  1.107773 -0.000005 0.000003  -0.000001 -0.000001 1.093012
27  2.098157 0.045630 1.805206  -2.032808 -0.211087 1.119208
28  0.914511 0.000001 -0.000008  -0.000000 0.000000 0.366503
29  0.914507 0.000008 0.000001  -0.000000 -0.000000 0.357788
30  -0.162433 0.426974 0.618813  -3.119231 0.139155 0.002813
31  -0.000006 0.001562 1.908401  0.590753 -1.252118 1.845247
32  3.867486 0.000004 -0.000008  -0.624096 0.494503 -1.189443
33  14.390608 0.000058 -0.000004  -0.000001 -0.000002 -1.053550
34  11.595301 0.000090 -0.000022  2.725119 0.736822 -0.326629
35  4.415173 -0.060703 1.931087  -0.306597 0.077733 0.977830
36  0.923133 0.000003 -0.000000  0.000000 -0.000000 1.020987
37  0.923141 -0.000002 0.000000  0.000000 -0.000000 1.021001
38  4.449304 -0.067575 0.950407  -0.095344 -0.063664 1.034875
39  1.128469 -0.000003 0.000007  0.000000 -0.000000 1.020988
40  1.128475 -0.000002 0.000003  0.000000 0.000000 1.021001
41  4.416831 -0.015166 -0.200528  -0.000412 0.000679 1.031470
42  1.364868 -0.000003 0.000005  0.000000 -0.000000 1.020988
43  1.364859 0.000006 0.000000  0.000000 0.000000 1.021001
44  4.451082 -0.068718 -1.121630  0.164310 -0.056121 1.013838
45  1.107766 0.000008 0.000001  0.000000 -0.000000 1.021001
46  1.107770 -0.000004 0.000003  0.000000 -0.000000 1.021001
47  2.098160 0.045634 -1.805198  1.841983 0.710509 0.601157
48  0.914508 0.000011 0.000014  0.000004 0.000004 -0.359682
49  0.914509 0.000006 0.000000  -0.000000 0.000000 -0.252884
50  1.969131 0.000005 -0.000000  0.259043 0.008767 -0.430404
51  -3.968871 0.006741 3.450710  -0.284503 -2.840440 -0.569291
52  17.254910 -0.000126 0.002805  -0.000001 0.000002 -0.713357
53  17.254908 0.000125 -0.001285  -0.124274 -0.137941 0.157315
54  3.968614 5.003951 0.000006  0.000000 -0.000000 1.570796
time 2
0  -1.814372 3.409127 35.534790  0.025819 0.231484 -2.070720
1  0.000000 0.000000 -0.000001  -0.000012 -1.568569 -1.570806
2  3.968637 -0.003569 0.000006  0.000176 -0.002207 -0.085597
3  -3.968386 0.006762 -3.451274  -0.024776 3.008037 -0.533845
4  17.254908 -0.000042 -0.000987  0.000000 -0.000000 -0.907868
5  17.254917 0.000040 0.000453  -0.097874 0.107860 0.520497
6  3.968602 5.003961 -0.000009  -0.000000 0.000000 1.570794
7  4.486287 -0.003593 0.000320  0.035642 0.004794 -0.067498
8  4.486285 -0.003593 0.000320  0.038861 -0.001749 0.223981
9  4.486288 -0.003594 0.000319  -0.038147 0.052660 0.236203
10  4.486215 -0.001587 0.000321  0.063167 -0.274699 0.626990
11  -0.000002 0.001574 -1.908400  -2.057250 1.924948 0.706992
12  3.867487 -0.000006 0.000004  -0.190460 -1.053890 -0.531006
13  14.390584 -0.000031 0.000009  0.000000 -0.000004 -1.789194
14  11.595288 0.000022 0.000022  1.556615 0.279859 -0.595343
15  4.415176 -0.060704 -1.931073  0.352972 0.059848 1.407712
16  0.923138 -0.000005 0.000000  0.000000 0.000002 0.519869
17  0.923141 -0.000003 0.000001  -0.000002 -0.000008 0.981238
18  4.449302 -0.067571 -0.950398  0.088739 0.254261 0.748304
19  1.128473 -0.000000 0.000003  0.000001 0.000000 1.290713
20  1.128469 -0.000004 0.000006  0.000007 0.000008 0.794807
21  4.416829 -0.015164 0.200541  0.008685 0.074598 0.772611
22  1.364872 0.000001 0.000004  0.000000 -0.000000 1.203922
23  1.364870 0.000002 0.000004  0.000002 -0.000001 1.251910
24  4.451073 -0.068717 1.121639  -0.065684 -0.460005 0.281343
25  1.107769 0.000000 0.000004  0.000001 -0.000001 0.844015
26  1.107773 -0.000006 0.000002  -0.000000 -0.000001 1.081433
27  2.098156 0.045633 1.805200  -2.032808 -0.211087 1.119208
28  0.914512 0.000002 -0.000006  -0.000000 -0.000000 0.366503
29  0.914509 0.000008 0.000000  -0.000000 -0.000000 0.357788
30  -0.162433 0.426975 0.618805  -3.119231 0.139155 0.002813
31  -0.000004 0.001558 1.908402  0.164439 -1.393254 2.288763
32  3.867485 0.000002 -0.000008  -0.613588 0.496209 -1.322280
33  14.390605 0.000058 -0.000007  -0.000001 -0.000002 -1.320861
34  11.595303 0.000097 -0.000020  2.789205 0.697715 -0.190891
35  4.415173 -0.060700 1.931085  -0.306597 0.077733 0.977830
36  0.923138 0.000003 -0.000001  -0.000000 -0.000000 1.020987
37  0.923141 -0.000003 -0.000001  0.000000 -0.000000 1.021001
38  4.449303 -0.067574 0.950409  -0.095344 -0.063664 1.034875
39  1.128471 0.000002 0.000001  0.000000 -0.000000 1.020988
40  1.128472 -0.000001 -0.000000  0.000000 0.000000 1.021001
41  4.416831 -0.015166 -0.200525  -0.000412 0.000679 1.031470
42  1.364876 0.000001 0.000007  0.000000 -0.000000 1.020988
43  1.364864 0.000005 0.000002  0.000000 0.000000 1.021001
44  4.451082 -0.068714 -1.121628  0.164310 -0.056121 1.013838
45  1.107771 0.000010 0.000002  0.000000 -0.000000 1.021001
46  1.107768 -0.000001 0.000003  0.000000 0.000000 1.021001
47  2.098161 0.045633 -1.805197  1.841983 0.710509 0.601157
48  0.914512 0.000009 0.000007  0.000003 0.000004 -0.359682
49  0.914507 0.000007 0.000006  -0.000000 -0.000000 -0.252884
50  1.969133 0.000008 0.000000  0.258128 0.017533 -0.470665
51  -3.968872 0.006741 3.450710  -0.312709 -2.811615 -0.613046
52  17.254908 -0.000125 0.002806  -0.000001 0.000002 -0.699413
53  17.254906 0.000126 -0.001285  -0.177473 -0.160028 0.139166
54  3.968614 5.003951 0.000005  0.000000 -0.000000 1.570796
time 3
0  -1.812922 3.393166 35.537117  0.025659 0.230444 -2.069152
1  -0.000001 -0.000000 0.000003  -0.000002 -1.568569 -1.570803
2  3.968641 -0.003568 0.000006  0.000176 -0.002207 -0.085597
3  -3.968388 0.006762 -3.451273  -0.023926 3.007569 -0.531717
4  17.254906 -0.000041 -0.000988  0.000000 0.000000 -0.907297
5  17.254915 0.000040 0.000454  -0.097067 0.108153 0.520921
6  3.968602 5.003961 -0.000009  -0.000000 -0.000000 1.570794
7  4.486282 -0.003593 0.000320  0.035642 0.004794 -0.067498
8  4.486288 -0.003593 0.000320  0.039346 -0.001787 0.223904
9  4.486279 -0.003592 0.000319  -0.038147 0.052659 0.236203
10  4.486216 -0.001584 0.000321  0.062604 -0.272250 0.626537
11  -0.000001 0.001573 -1.908401  -2.027764 1.915480 0.732982
12  3.867486 -0.000004 0.000001  -0.188414 -1.059799 -0.536093
13  14.390585 -0.000030 0.000009  -0.000000 -0.000005 -1.783835
14  11.595288 0.000020 0.000024  1.563853 0.268204 -0.565182
15  4.415176 -0.060705 -1.931068  0.352972 0.059848 1.407712
16  0.923139 -0.000004 -0.000003  0.000000 0.000002 0.519869
17  0.923141 -0.000004 0.000006  -0.000002 -0.000008 0.981238
18  4.449302 -0.067573 -0.950398  0.088739 0.254261 0.748304
19  1.128473 -0.000000 -0.000001  0.000001 0.000000 1.290713
20  1.128469 -0.000003 0.000006  0.000007 0.000008 0.794807
21  4.416829 -0.015166 0.200542  0.008685 0.074598 0.772611
22  1.364872 0.000001 0.000006  0.000000 -0.000000 1.203922
23  1.364870 0.000002 0.000005  0.000002 -0.000001 1.251909
24  4.451073 -0.068719 1.121646  -0.083363 -0.457386 0.321273
25  1.107768 -0.000000 -0.000000  0.000001 -0.000001 0.818378
26  1.107773 -0.000006 0.000005  0.000000 -0.000001 1.050005
27  2.098156 0.045631 1.805203  -2.032808 -0.211087 1.119208
28  0.914514 -0.000004 -0.000008  -0.000000 0.000000 0.366503
29  0.914509 0.000002 -0.000001  -0.000000 -0.000000 0.357788
30  -0.162433 0.426974 0.618811  -3.119231 0.139155 0.002813
31  -0.000005 0.001563 1.908401  0.071701 -1.395178 2.390540
32  3.867486 0.000004 -0.000010  -0.631824 0.509603 -1.330425
33  14.390602 0.000057 -0.000007  -0.000001 -0.000002 -1.286072
34  11.595302 0.000091 -0.000020  2.778603 0.697647 -0.225970
35  4.415172 -0.060696 1.931085  -0.306597 0.077733 0.977830
36  0.923132 0.000005 0.000000  0.000000 -0.000000 1.020987
37  0.923133 0.000000 0.000002  0.000000 -0.000000 1.021001
38  4.449303 -0.067568 0.950409  -0.095344 -0.063664 1.034875
39  1.128465 0.000004 0.000004  0.000000 -0.000000 1.020988
40  1.128473 -0.000000 0.000005  0.000000 0.000000 1.021001
41  4.416832 -0.015160 -0.200525  -0.000412 0.000679 1.031470
42  1.364874 -0.000003 0.000006  0.000000 0.000000 1.020988
43  1.364858 0.000003 0.000004  0.000000 0.000000 1.021001
44  4.451082 -0.068710 -1.121631  0.164310 -0.056121 1.013838
45  1.107770 0.000008 0.000008  0.000000 -0.000000 1.021001
46  1.107773 -0.000002 0.000003  -0.000000 0.000000 1.021001
47  2.098161 0.045642 -1.805199  1.841983 0.710508 0.601157
48  0.914509 0.000013 0.000014  0.000003 0.000004 -0.359682
49  0.914514 0.000005 0.000008  -0.000000 -0.000000 -0.252884
50  1.969133 0.000010 -0.000001  0.256480 0.015850 -0.511042
51  -3.968881 0.006742 3.450710  -0.312213 -2.812133 -0.612322
52  17.254911 -0.000128 0.002806  -0.000001 0.000002 -0.699699
53  17.254902 0.000124 -0.001285  -0.176505 -0.159607 0.139493
54  3.968614 5.003950 0.000005  -0.000000 -0.000000 1.570796
time 4
0  -1.808793 3.347737 35.543743  0.025205 0.227485 -2.064689
1  0.000000 -0.000000 0.000001  -0.000032 -1.568569 -1.570796
2  3.968644 -0.003570 0.000006  0.000635 -0.003634 -0.081353
3  -3.968382 0.006762 -3.451274  -0.020783 3.007538 -0.530445
4  17.254902 -0.000042 -0.000987  0.000000 0.000000 -0.906177
5  17.254915 0.000041 0.000454  -0.094367 0.108843 0.521982
6  3.968602 5.003962 -0.000009  0.000000 -0.000000 1.570794
7  4.486289 -0.003593 0.000320  0.035642 0.004794 -0.067498
8  4.486287 -0.003593 0.000320  0.039734 -0.001811 0.223755
9  4.486285 -0.003591 0.000319  -0.038147 0.052659 0.236203
10  4.486218 -0.001586 0.000321  0.061001 -0.265279 0.625250
11  0.000000 0.001573 -1.908401  -1.942891 1.891457 0.808319
12  3.867484 -0.000006 0.000011  -0.185585 -1.073653 -0.547901
13  14.390593 -0.000035 0.000010  -0.000000 -0.000004 -1.772045
14  11.595288 0.000025 0.000022  1.576878 0.240589 -0.494137
15  4.415177 -0.060703 -1.931081  0.352972 0.059848 1.407712
16  0.923138 -0.000005 0.000005  0.000000 0.000002 0.519869
17  0.923140 -0.000004 0.000003  -0.000002 -0.000008 0.981238
18  4.449302 -0.067571 -0.950406  0.088739 0.254261 0.748304
19  1.128472 -0.000000 0.000006  0.000001 0.000000 1.290713
20  1.128470 -0.000004 0.000003  0.000007 0.000008 0.794807
21  4.416829 -0.015165 0.200532  0.008685 0.074598 0.772611
22  1.364872 0.000001 0.000003  0.000000 -0.000000 1.203922
23  1.364872 0.000002 0.000009  0.000002 -0.000001 1.251909
24  4.451072 -0.068717 1.121638  -0.100199 -0.454240 0.359537
25  1.107771 -0.000000 0.000007  0.000001 -0.000001 0.743946
26  1.107771 -0.000005 0.000002  -0.000001 -0.000002 0.950305
27  2.098156 0.045632 1.805194  -2.032808 -0.211087 1.119208
28  0.914511 0.000007 -0.000008  -0.000000 0.000000 0.366503
29  0.914509 0.000008 0.000003  0.000000 -0.000000 0.357788
30  -0.162433 0.426976 0.618798  -3.119231 0.139155 0.002813
31  -0.000003 0.001563 1.908401  0.000215 -1.395354 2.482730
32  3.867486 0.000005 -0.000011  -0.651134 0.537242 -1.307793
33  14.390607 0.000056 -0.000005  -0.000001 -0.000002 -1.225037
34  11.595304 0.000091 -0.000020  2.736728 0.676895 -0.308880
35  4.415172 -0.060692 1.931084  -0.306597 0.077733 0.977830
36  0.923140 0.000002 0.000000  0.000000 -0.000000 1.020987
37  0.923133 -0.000001 0.000000  0.000000 -0.000000 1.021001
38  4.449302 -0.067565 0.950408  -0.095344 -0.063664 1.034875
39  1.128471 -0.000001 0.000002  0.000000 -0.000000 1.020988
40  1.128478 0.000002 0.000001  0.000000 0.000000 1.021001
41  4.416832 -0.015157 -0.200530  -0.000412 0.000679 1.031470
42  1.364875 -0.000005 0.000007  -0.000000 -0.000000 1.020988
43  1.364857 0.000008 0.000002  0.000000 0.000000 1.021001
44  4.451082 -0.068707 -1.121632  0.164310 -0.056121 1.013838
45  1.107772 0.000008 0.000005  0.000000 -0.000000 1.021001
46  1.107776 -0.000001 0.000001  0.000000 -0.000000 1.021001
47  2.098161 0.045642 -1.805199  1.841983 0.710508 0.601157
48  0.914512 0.000013 0.000007  0.000004 0.000004 -0.359682
49  0.914509 0.000004 0.000005  -0.000000 0.000000 -0.252884
50  1.969135 0.000011 -0.000001  0.254248 0.011340 -0.547989
51  -3.968873 0.006742 3.450710  -0.308963 -2.812356 -0.616447
52  17.254910 -0.000125 0.002806  -0.000001 0.000002 -0.702252
53  17.254904 0.000124 -0.001285  -0.173867 -0.158356 0.140689
54  3.968614 5.003952 0.000005  0.000000 -0.000000 1.570796
time 5
0  -1.802321 3.276524 35.554127  0.024493 0.222847 -2.057692
1  0.000000 0.000000 0.000001  -0.000015 -1.568569 -1.570810
2  3.968642 -0.003569 0.000005  0.001781 -0.007203 -0.070744
3  -3.968390 0.006762 -3.451274  -0.015178 3.008718 -0.533019
4  17.254902 -0.000041 -0.000988  -0.000000 -0.000000 -0.905170
5  17.254915 0.000041 0.000454  -0.089755 0.109776 0.523677
6  3.968602 5.003962 -0.000009  0.000000 -0.000000 1.570794
7  4.486287 -0.003593 0.000319  0.035642 0.004794 -0.067498
8  4.486287 -0.003593 0.000319  0.039993 -0.001824 0.223508
9  4.486288 -0.003594 0.000319  -0.038147 0.052659 0.236203
10  4.486215 -0.001588 0.000319  0.058488 -0.254351 0.623232
11  0.000000 0.001572 -1.908401  -1.814324 1.865347 0.922111
12  3.867485 -0.000001 0.000010  -0.182249 -1.089677 -0.564517
13  14.390590 -0.000025 0.000009  -0.000000 -0.000005 -1.757494
14  11.595287 0.000014 0.000023  1.587069 0.203080 -0.405731
15  4.415175 -0.060701 -1.931073  0.352972 0.059848 1.407712
16  0.923139 -0.000007 0.000002  0.000000 0.000002 0.519869
17  0.923142 -0.000003 -0.000000  -0.000002 -0.000008 0.981238
18  4.449302 -0.067570 -0.950398  0.088739 0.254261 0.748304
19  1.128474 0.000002 0.000006  0.000001 0.000000 1.290713
20  1.128469 -0.000004 0.000001  0.000007 0.000008 0.794807
21  4.416828 -0.015163 0.200540  0.008685 0.074598 0.772611
22  1.364872 0.000000 0.000004  0.000000 -0.000000 1.203922
23  1.364869 0.000002 -0.000003  0.000002 -0.000001 1.251909
24  4.451071 -0.068716 1.121642  -0.114096 -0.451165 0.391312
25  1.107769 0.000001 0.000003  0.000001 0.000000 0.627556
26  1.107772 -0.000007 0.000002  -0.000003 -0.000004 0.789024
27  2.098155 0.045634 1.805203  -2.032808 -0.211087 1.119208
28  0.914512 0.000000 -0.000007  -0.000000 -0.000000 0.366503
29  0.914508 0.000005 0.000000  0.000000 -0.000000 0.357788
30  -0.162434 0.426977 0.618809  -3.119231 0.139155 0.002813
31  -0.000004 0.001557 1.908401  -0.001650 -1.398924 2.512098
32  3.867485 0.000002 -0.000012  -0.670495 0.571384 -1.265926
33  14.390607 0.000058 -0.000008  -0.000001 -0.000002 -1.153708
34  11.595302 0.000093 -0.000020  2.679474 0.636164 -0.415282
35  4.415173 -0.060697 1.931082  -0.306597 0.077733 0.977830
36  0.923135 0.000004 -0.000000  0.000000 -0.000000 1.020987
37  0.923132 0.000001 0.000002  0.000000 -0.000000 1.021001
38  4.449303 -0.067575 0.950407  -0.095344 -0.063664 1.034875
39  1.128470 -0.000002 0.000001  0.000000 -0.000000 1.020988
40  1.128468 -0.000001 0.000004  0.000000 0.000000 1.021001
41  4.416832 -0.015163 -0.200531  -0.000412 0.000679 1.031470
42  1.364867 -0.000005 0.000006  0.000000 -0.000000 1.020988
43  1.364863 0.000005 0.000002  0.000000 0.000000 1.021001
44  4.451083 -0.068716 -1.121634  0.164310 -0.056121 1.013838
45  1.107768 0.000006 0.000001  0.000000 -0.000000 1.021001
46  1.107775 0.000002 0.000001  0.000000 -0.000000 1.021001
47  2.098161 0.045637 -1.805200  1.841983 0.710509 0.601157
48  0.914515 0.000012 0.000010  0.000003 0.000004 -0.359682
49  0.914511 0.000005 0.000003  -0.000000 -0.000000 -0.252884
50  1.969133 0.000007 -0.000001  0.251640 0.004811 -0.581154
51  -3.968880 0.006742 3.450710  -0.302123 -2.811568 -0.628753
52  17.254910 -0.000127 0.002806  -0.000001 0.000002 -0.708028
53  17.254906 0.000125 -0.001284  -0.169820 -0.156356 0.142892
54  3.968614 5.003951 0.000005  -0.000000 -0.000000 1.570796
time 6
0  -1.793841 3.183211 35.567734  0.023561 0.216769 -2.048524
1  0.000001 0.000000 -0.000004  -0.000013 -1.568569 -1.570805
2  3.968642 -0.003570 0.000006  0.003271 -0.011842 -0.056952
3  -3.968385 0.006761 -3.451275  -0.007799 3.010275 -0.536166
4  17.254908 -0.000043 -0.000987  0.000000 -0.000000 -0.903683
5  17.254917 0.000042 0.000452  -0.083726 0.110961 0.525838
6  3.968602 5.003961 -0.000009  -0.000000 -0.000000 1.570794
7  4.486287 -0.003593 0.000320  0.035642 0.004794 -0.067498
8  4.486279 -0.003592 0.000320  0.040087 -0.001828 0.223140
9  4.486287 -0.003593 0.000320  -0.038147 0.052660 0.236203
10  4.486217 -0.001589 0.000320  0.055196 -0.240032 0.620587
11  -0.000001 0.001572 -1.908400  -1.655920 1.842163 1.061552
12  3.867484 -0.000007 0.000010  -0.176556 -1.104210 -0.584387
13  14.390594 -0.000029 0.000010  -0.000000 -0.000005 -1.741938
14  11.595290 0.000028 0.000023  1.593174 0.166790 -0.317837
15  4.415176 -0.060703 -1.931071  0.352971 0.059848 1.407712
16  0.923137 -0.000006 -0.000000  0.000000 0.000002 0.519869
17  0.923139 -0.000002 0.000002  -0.000002 -0.000008 0.981238
18  4.449302 -0.067572 -0.950399  0.088739 0.254261 0.748304
19  1.128474 0.000001 0.000008  0.000001 0.000000 1.290713
20  1.128469 -0.000002 0.000005  0.000007 0.000007 0.794807
21  4.416828 -0.015166 0.200538  0.008685 0.074598 0.772611
22  1.364873 0.000002 0.000002  0.000000 0.000000 1.203922
23  1.364870 0.000002 0.000007  0.000002 -0.000001 1.251909
24  4.451072 -0.068719 1.121640  -0.123537 -0.448828 0.413003
25  1.107770 0.000001 0.000010  0.000001 -0.000000 0.520274
26  1.107772 -0.000008 0.000007  -0.000004 -0.000006 0.638908
27  2.098155 0.045633 1.805206  -2.032808 -0.211087 1.119208
28  0.914511 0.000001 -0.000004  -0.000000 0.000000 0.366503
29  0.914509 0.000009 -0.000000  0.000000 -0.000000 0.357788
30  -0.162433 0.426974 0.618806  -3.119231 0.139155 0.002813
31  -0.000005 0.001564 1.908402  0.106167 -1.405966 2.429906
32  3.867486 0.000002 -0.000009  -0.679326 0.603574 -1.211418
33  14.390606 0.000059 -0.000008  -0.000002 -0.000002 -1.080211
34  11.595303 0.000095 -0.000018  2.616943 0.575429 -0.526118
35  4.415174 -0.060704 1.931084  -0.306597 0.077733 0.977830
36  0.923137 0.000003 -0.000002  -0.000000 -0.000000 1.020987
37  0.923135 0.000000 0.000001  -0.000000 -0.000000 1.021001
38  4.449304 -0.067574 0.950408  -0.095344 -0.063664 1.034875
39  1.128472 0.000003 0.000002  0.000000 -0.000000 1.020988
40  1.128470 -0.000001 0.000003  0.000000 0.000000 1.021001
41  4.416831 -0.015165 -0.200527  -0.000412 0.000679 1.031470
42  1.364864 -0.000004 0.000003  -0.000000 -0.000000 1.020988
43  1.364856 0.000007 0.000004  0.000000 0.000000 1.021001
44  4.451083 -0.068717 -1.121630  0.164310 -0.056121 1.013838
45  1.107769 0.000008 0.000006  0.000000 -0.000000 1.021001
46  1.107773 -0.000003 0.000003  0.000000 -0.000000 1.021001
47  2.098161 0.045635 -1.805196  1.841983 0.710509 0.601157
48  0.914510 0.000010 0.000008  0.000003 0.000004 -0.359682
49  0.914511 0.000009 -0.000000  -0.000000 -0.000000 -0.252884
50  1.969134 0.000011 0.000000  0.248863 -0.002931 -0.610183
51  -3.968873 0.006741 3.450710  -0.293262 -2.810735 -0.644488
52  17.254910 -0.000127 0.002807  -0.000001 0.000002 -0.715062
53  17.254902 0.000125 -0.001285  -0.164479 -0.153760 0.145492
54  3.968614 5.003950 0.000004  -0.000000 -0.000000 1.570796
time 7
0  -1.783687 3.071481 35.584026  0.022444 0.209492 -2.037547
1  -0.000001 -0.000000 0.000003  -0.000008 -1.568569 -1.570798
2  3.968644 -0.003570 0.000006  0.004761 -0.016480 -0.043160
3  -3.968378 0.006762 -3.451275  0.000638 3.011419 -0.536702
4  17.254904 -0.000042 -0.000987  0.000000 0.000000 -0.901334
5  17.254917 0.000041 0.000454  -0.076789 0.112411 0.528411
6  3.968603 5.003962 -0.000009  -0.000000 -0.000000 1.570794
7  4.486293 -0.003593 0.000319  0.035642 0.004794 -0.067498
8  4.486280 -0.003593 0.000319  0.033823 -0.001542 0.203439
9  4.486281 -0.003593 0.000320  -0.038147 0.052660 0.236203
10  4.486215 -0.001588 0.000319  0.051253 -0.222887 0.617421
11  -0.000001 0.001576 -1.908401  -1.531970 1.823410 1.164952
12  3.867486 0.000000 0.000010  -0.157343 -1.117895 -0.609810
13  14.390585 -0.000031 0.000010  -0.000000 -0.000005 -1.715808
14  11.595292 0.000022 0.000027  1.606554 0.120823 -0.239975
15  4.415178 -0.060703 -1.931068  0.352972 0.059848 1.407712
16  0.923137 -0.000004 0.000002  0.000000 0.000002 0.519869
17  0.923140 -0.000005 0.000003  -0.000003 -0.000008 0.981238
18  4.449304 -0.067573 -0.950396  0.088739 0.254261 0.748304
19  1.128477 0.000001 0.000005  0.000001 0.000000 1.290713
20  1.128469 -0.000006 0.000005  0.000007 0.000007 0.794807
21  4.416829 -0.015165 0.200543  0.008685 0.074598 0.772611
22  1.364870 0.000002 0.000009  -0.000000 -0.000000 1.203922
23  1.364870 0.000001 0.000005  0.000002 -0.000001 1.251910
24  4.451074 -0.068719 1.121643  -0.127021 -0.447906 0.421031
25  1.107769 0.000001 0.000008  0.000001 0.000000 0.473166
26  1.107772 -0.000006 0.000002  -0.000005 -0.000006 0.572703
27  2.098157 0.045631 1.805206  -2.032808 -0.211087 1.119208
28  0.914511 0.000002 -0.000004  -0.000000 -0.000000 0.366503
29  0.914506 0.000007 0.000001  0.000000 -0.000000 0.357788
30  -0.162431 0.426975 0.618808  -3.119231 0.139155 0.002813
31  -0.000004 0.001565 1.908402  0.324640 -1.406196 2.230859
32  3.867486 -0.000000 -0.000013  -0.673052 0.628517 -1.147869
33  14.390603 0.000058 -0.000008  -0.000002 -0.000002 -0.999725
34  11.595304 0.000091 -0.000018  2.562866 0.510578 -0.620556
35  4.415171 -0.060706 1.931083  -0.306597 0.077733 0.977830
36  0.923140 0.000002 0.000002  0.000000 -0.000000 1.020987
37  0.923136 0.000001 0.000000  -0.000000 -0.000000 1.021001
38  4.449302 -0.067582 0.950407  -0.095344 -0.063664 1.034875
39  1.128467 -0.000001 0.000002  0.000000 -0.000000 1.020988
40  1.128474 -0.000003 0.000000  0.000000 0.000000 1.021001
41  4.416831 -0.015172 -0.200529  -0.000412 0.000679 1.031470
42  1.364865 -0.000003 0.000007  0.000000 -0.000000 1.020988
43  1.364859 0.000005 0.000003  0.000000 0.000000 1.021001
44  4.451082 -0.068722 -1.121631  0.164310 -0.056121 1.013838
45  1.107771 0.000006 0.000002  0.000000 -0.000000 1.021001
46  1.107770 -0.000001 0.000002  0.000000 0.000000 1.021001
47  2.098161 0.045629 -1.805198  1.841983 0.710509 0.601157
48  0.914515 0.000010 0.000007  0.000004 0.000004 -0.359682
49  0.914510 0.000007 -0.000001  -0.000000 0.000000 -0.252884
50  1.969133 0.000014 -0.000001  0.246125 -0.011076 -0.634725
51  -3.968870 0.006741 3.450710  -0.283820 -2.810589 -0.659352
52  17.254908 -0.000125 0.002806  -0.000001 0.000002 -0.722487
53  17.254904 0.000124 -0.001284  -0.157982 -0.150730 0.148517
54  3.968614 5.003950 0.000005  -0.000000 -0.000000 1.570796
time 8
0  -1.772194 2.945015 35.602467  0.021180 0.201255 -2.025122
1  0.000000 0.000000 -0.000004  -0.000022 -1.568569 -1.570786
2  3.968643 -0.003570 0.000006  0.005907 -0.020049 -0.032551
3  -3.968384 0.006761 -3.451275  0.009381 3.011408 -0.531529
4  17.254906 -0.000041 -0.000989  0.000000 -0.000000 -0.897921
5  17.254913 0.000041 0.000454  -0.069476 0.114150 0.531428
6  3.968602 5.003961 -0.000007  0.000000 -0.000000 1.570794
7  4.486289 -0.003593 0.000319  0.035642 0.004794 -0.067498
8  4.486288 -0.003592 0.000319  0.020043 -0.000914 0.160662
9  4.486276 -0.003593 0.000320  -0.038147 0.052660 0.236203
10  4.486217 -0.001585 0.000320  0.046791 -0.203481 0.613837
11  0.000000 0.001578 -1.908401  -1.517459 1.807547 1.160529
12  3.867484 -0.000005 0.000001  -0.118419 -1.127799 -0.641615
13  14.390589 -0.000027 0.000009  -0.000000 -0.000005 -1.676688
14  11.595287 0.000022 0.000026  1.631347 0.065200 -0.187765
15  4.415176 -0.060702 -1.931075  0.352972 0.059848 1.407712
16  0.923140 -0.000007 0.000003  0.000000 0.000002 0.519869
17  0.923141 -0.000004 0.000002  -0.000003 -0.000008 0.981238
18  4.449302 -0.067572 -0.950394  0.088739 0.254261 0.748304
19  1.128473 0.000003 -0.000000  0.000001 0.000000 1.290713
20  1.128469 -0.000004 0.000007  0.000007 0.000007 0.794807
21  4.416828 -0.015164 0.200539  0.008685 0.074598 0.772611
22  1.364874 0.000000 0.000007  0.000000 -0.000000 1.203922
23  1.364872 0.000003 0.000007  0.000002 -0.000001 1.251909
24  4.451072 -0.068717 1.121644  -0.127021 -0.447906 0.421031
25  1.107771 0.000000 0.000015  0.000001 0.000000 0.473166
26  1.107773 -0.000007 0.000003  -0.000005 -0.000006 0.572704
27  2.098157 0.045633 1.805203  -2.032808 -0.211087 1.119208
28  0.914510 0.000005 -0.000007  -0.000000 -0.000000 0.366503
29  0.914509 0.000003 -0.000001  0.000000 -0.000000 0.357788
30  -0.162433 0.426976 0.618809  -3.119231 0.139155 0.002813
31  -0.000005 0.001569 1.908400  0.566404 -1.395297 1.995203
32  3.867486 0.000003 -0.000010  -0.653961 0.638234 -1.090046
33  14.390608 0.000059 -0.000008  -0.000002 -0.000001 -0.918607
34  11.595303 0.000096 -0.000018  2.525526 0.462367 -0.679494
35  4.415173 -0.060702 1.931083  -0.306597 0.077733 0.977830
36  0.923140 0.000006 -0.000004  0.000000 -0.000000 1.020987
37  0.923134 -0.000001 0.000001  0.000000 -0.000000 1.021001
38  4.449304 -0.067575 0.950408  -0.095344 -0.063664 1.034875
39  1.128474 0.000001 0.000003  -0.000000 -0.000000 1.020988
40  1.128474 -0.000002 0.000002  0.000000 0.000000 1.021001
41  4.416832 -0.015168 -0.200528  -0.000412 0.000679 1.031470
42  1.364866 -0.000003 0.000007  0.000000 -0.000000 1.020988
43  1.364861 0.000004 0.000003  0.000000 0.000000 1.021001
44  4.451083 -0.068716 -1.121631  0.164310 -0.056121 1.013838
45  1.107764 0.000008 0.000001  0.000000 -0.000000 1.021001
46  1.107771 -0.000003 0.000000  0.000000 -0.000000 1.021001
47  2.098162 0.045636 -1.805198  1.841983 0.710509 0.601157
48  0.914514 0.000013 0.000009  0.000004 0.000004 -0.359682
49  0.914507 0.000005 0.000005  -0.000000 -0.000000 -0.252884
50  1.969133 0.000015 -0.000002  0.243634 -0.018817 -0.654427
51  -3.968875 0.006742 3.450709  -0.275392 -2.811844 -0.668634
52  17.254913 -0.000127 0.002806  -0.000001 0.000002 -0.728626
53  17.254908 0.000123 -0.001284  -0.150514 -0.147438 0.151555
54  3.968614 5.003951 0.000005  0.000000 0.000000 1.570796
time 9
0  -1.759696 2.807502 35.622517  0.019806 0.192298 -2.011611
1  0.000001 0.000000 0.000000  -0.000023 -1.568569 -1.570800
2  3.968641 -0.003571 0.000006  0.006365 -0.021476 -0.028307
3  -3.968387 0.006762 -3.451274  0.017700 3.009495 -0.517413
4  17.254906 -0.000041 -0.000988  0.000001 -0.000000 -0.892918
5  17.254915 0.000040 0.000453  -0.062318 0.116224 0.534723
6  3.968603 5.003962 -0.000008  0.000000 -0.000000 1.570794
7  4.486288 -0.003593 0.000320  0.035642 0.004794 -0.067498
8  4.486292 -0.003592 0.000320  0.006264 -0.000286 0.117994
9  4.486285 -0.003594 0.000320  -0.038147 0.052659 0.236203
10  4.486214 -0.001586 0.000319  0.041938 -0.182379 0.609939
11  0.000001 0.001573 -1.908400  -1.592119 1.796070 1.070758
12  3.867483 0.000001 0.000004  -0.071149 -1.133111 -0.675371
13  14.390594 -0.000031 0.000010  -0.000000 -0.000005 -1.635497
14  11.595292 0.000028 0.000023  1.657015 0.018892 -0.158103
15  4.415177 -0.060704 -1.931068  0.352972 0.059848 1.407712
16  0.923138 -0.000006 0.000003  -0.000000 0.000002 0.519869
17  0.923140 -0.000005 0.000002  -0.000002 -0.000008 0.981238
18  4.449302 -0.067572 -0.950389  0.088739 0.254261 0.748304
19  1.128474 0.000001 0.000006  0.000001 0.000000 1.290713
20  1.128470 -0.000004 0.000006  0.000007 0.000008 0.794807
21  4.416828 -0.015165 0.200549  0.008685 0.074598 0.772611
22  1.364873 0.000001 0.000004  0.000001 0.000000 1.203922
23  1.364872 0.000001 0.000001  0.000002 -0.000001 1.251909
24  4.451073 -0.068718 1.121650  -0.127021 -0.447906 0.421031
25  1.107769 0.000002 0.000009  0.000001 0.000000 0.473166
26  1.107772 -0.000008 0.000003  -0.000005 -0.000006 0.572704
27  2.098157 0.045632 1.805210  -2.032808 -0.211087 1.119208
28  0.914512 0.000006 -0.000006  -0.000000 0.000000 0.366503
29  0.914509 0.000003 -0.000001  -0.000000 -0.000000 0.357788
30  -0.162434 0.426975 0.618814  -3.119231 0.139155 0.002813
31  -0.000004 0.001562 1.908403  0.781907 -1.374098 1.775288
32  3.867486 0.000005 -0.000008  -0.631231 0.633677 -1.044231
33  14.390603 0.000060 -0.000008  -0.000002 -0.000001 -0.844700
34  11.595304 0.000094 -0.000018  2.498957 0.434634 -0.714352
35  4.415173 -0.060697 1.931081  -0.306597 0.077733 0.977830
36  0.923135 0.000005 0.000001  -0.000000 -0.000000 1.020987
37  0.923141 0.000000 -0.000001  0.000000 -0.000000 1.021001
38  4.449304 -0.067569 0.950408  -0.095344 -0.063664 1.034875
39  1.128468 0.000001 0.000002  0.000000 -0.000000 1.020988
40  1.128472 0.000001 0.000002  0.000000 0.000000 1.021001
41  4.416832 -0.015161 -0.200529  -0.000412 0.000679 1.031470
42  1.364869 -0.000001 0.000004  -0.000000 -0.000000 1.020988
43  1.364858 0.000006 0.000004  0.000000 0.000000 1.021001
44  4.451082 -0.068708 -1.121632  0.164310 -0.056121 1.013838
45  1.107771 0.000008 0.000003  0.000000 -0.000000 1.021001
46  1.107772 0.000002 0.000001  0.000000 0.000000 1.021001
47  2.098161 0.045643 -1.805199  1.841983 0.710508 0.601157
48  0.914511 0.000009 0.000010  0.000003 0.000004 -0.359682
49  0.914507 0.000005 0.000006  -0.000000 -0.000000 -0.252884
50  1.969132 0.000011 0.000000  0.241597 -0.025347 -0.668936
51  -3.968877 0.006741 3.450710  -0.269431 -2.815046 -0.667996
52  17.254910 -0.000125 0.002806  -0.000001 0.000002 -0.732628
53  17.254904 0.000124 -0.001285  -0.142304 -0.144054 0.154672
54  3.968614 5.003950 0.000004  -0.000000 -0.000000 1.570796
time 10
0  -1.746529 2.662621 35.643642  0.018358 0.182862 -1.997377
1  -0.000001 -0.000000 0.000001  0.000008 -1.568569 -1.570815
2  3.968643 -0.003570 0.000006  0.006221 -0.021027 -0.029642
3  -3.968386 0.006762 -3.451274  0.025573 3.006012 -0.495807
4  17.254906 -0.000042 -0.000988  0.000001 -0.000000 -0.886706
5  17.254915 0.000041 0.000455  -0.055418 0.118551 0.538245
6  3.968602 5.003962 -0.000008  -0.000000 -0.000000 1.570794
7  4.486290 -0.003593 0.000320  0.035642 0.004794 -0.067498
8  4.486284 -0.003593 0.000320  0.000000 -0.000000 0.098620
9  4.486285 -0.003593 0.000320  -0.038147 0.052659 0.236203
10  4.486216 -0.001588 0.000320  0.036826 -0.160147 0.605833
11  -0.000001 0.001574 -1.908400  -1.650311 1.794092 1.008567
12  3.867485 -0.000003 0.000004  -0.049550 -1.134593 -0.685478
13  14.390586 -0.000030 0.000009  -0.000000 -0.000004 -1.612049
14  11.595289 0.000021 0.000022  1.673442 -0.002697 -0.150603
15  4.415178 -0.060703 -1.931070  0.352972 0.059848 1.407712
16  0.923137 -0.000007 0.000001  -0.000000 0.000002 0.519869
17  0.923142 -0.000004 0.000002  -0.000003 -0.000008 0.981238
18  4.449303 -0.067572 -0.950397  0.088739 0.254261 0.748304
19  1.128474 0.000002 0.000002  0.000001 0.000000 1.290713
20  1.128469 -0.000003 0.000003  0.000007 0.000007 0.794807
21  4.416830 -0.015164 0.200540  0.008685 0.074598 0.772611
22  1.364875 0.000000 0.000005  0.000001 0.000000 1.203922
23  1.364871 0.000002 0.000000  0.000002 -0.000001 1.251910
24  4.451074 -0.068717 1.121641  -0.127021 -0.447906 0.421031
25  1.107770 0.000001 0.000002  0.000001 0.000000 0.473166
26  1.107772 -0.000007 0.000005  -0.000005 -0.000006 0.572703
27  2.098157 0.045633 1.805201  -2.032808 -0.211087 1.119208
28  0.914512 0.000005 -0.000005  -0.000000 -0.000000 0.366503
29  0.914506 0.000005 0.000001  -0.000000 -0.000000 0.357788
30  -0.162431 0.426975 0.618804  -3.119231 0.139155 0.002813
31  -0.000004 0.001562 1.908402  0.962478 -1.356082 1.594513
32  3.867487 0.000003 -0.000003  -0.609236 0.629980 -1.018734
33  14.390605 0.000057 -0.000006  -0.000002 -0.000001 -0.803716
34  11.595305 0.000090 -0.000019  2.481666 0.405226 -0.732931
35  4.415174 -0.060700 1.931087  -0.306597 0.077733 0.977830
36  0.923139 0.000006 0.000001  0.000000 -0.000000 1.020987
37  0.923136 0.000004 -0.000002  0.000000 -0.000000 1.021001
38  4.449305 -0.067576 0.950408  -0.095344 -0.063664 1.034875
39  1.128469 0.000001 -0.000001  0.000000 -0.000000 1.020988
40  1.128468 0.000005 0.000005  0.000000 0.000000 1.021001
41  4.416833 -0.015167 -0.200528  -0.000412 0.000679 1.031470
42  1.364868 -0.000003 0.000008  0.000000 -0.000000 1.020988
43  1.364860 0.000005 0.000003  0.000000 0.000000 1.021001
44  4.451084 -0.068713 -1.121631  0.164310 -0.056121 1.013838
45  1.107767 0.000009 0.000003  0.000000 -0.000000 1.021001
46  1.107770 -0.000002 0.000000  0.000000 0.000000 1.021001
47  2.098162 0.045636 -1.805199  1.841983 0.710509 0.601157
48  0.914512 0.000010 0.000010  0.000003 0.000004 -0.359682
49  0.914507 0.000008 0.000004  -0.000000 -0.000000 -0.252884
50  1.969134 0.000010 -0.000000  0.240223 -0.029857 -0.677899
51  -3.968875 0.006741 3.450709  -0.265651 -2.819848 -0.658752
52  17.254908 -0.000126 0.002806  -0.000001 0.000002 -0.734692
53  17.254906 0.000124 -0.001285  -0.133642 -0.140668 0.157818
54  3.968614 5.003950 0.000005  0.000000 -0.000000 1.570796
time 11
0  -1.733028 2.514056 35.665306  0.016874 0.173185 -1.982780
1  0.000001 0.000000 0.000002  -0.000005 -1.568569 -1.570786
2  3.968641 -0.003571 0.000007  0.005826 -0.019797 -0.033300
3  -3.968381 0.006760 -3.451274  0.033417 3.001978 -0.470702
4  17.254906 -0.000041 -0.000988  0.000001 0.000000 -0.879377
5  17.254915 0.000041 0.000453  -0.048593 0.120962 0.541539
6  3.968602 5.003962 -0.000008  0.000000 0.000000 1.570794
7  4.486291 -0.003594 0.000320  0.035642 0.004794 -0.067498
8  4.486285 -0.003593 0.000319  0.001057 -0.000046 0.102131
9  4.486289 -0.003592 0.000320  -0.038147 0.052659 0.236203
10  4.486216 -0.001586 0.000320  0.031584 -0.137350 0.601623
11  0.000002 0.001573 -1.908399  -1.584546 1.817233 1.096716
12  3.867484 -0.000002 0.000009  -0.088584 -1.132210 -0.635198
13  14.390589 -0.000030 0.000009  -0.000000 -0.000005 -1.639064
14  11.595289 0.000022 0.000021  1.692494 -0.002038 -0.182011
15  4.415176 -0.060703 -1.931069  0.352972 0.059848 1.407712
16  0.923138 -0.000003 0.000004  0.000000 0.000002 0.519869
17  0.923140 -0.000002 0.000001  -0.000003 -0.000008 0.981238
18  4.449301 -0.067572 -0.950396  0.088739 0.254261 0.748304
19  1.128473 -0.000001 0.000003  0.000001 0.000000 1.290713
20  1.128469 -0.000001 0.000004  0.000007 0.000007 0.794807
21  4.416829 -0.015164 0.200540  0.008685 0.074598 0.772611
22  1.364873 0.000000 0.000002  0.000000 -0.000000 1.203922
23  1.364871 0.000001 0.000000  0.000002 -0.000001 1.251909
24  4.451072 -0.068718 1.121645  -0.127021 -0.447906 0.421031
25  1.107769 0.000001 0.000012  -0.000000 0.000000 0.473166
26  1.107772 -0.000007 -0.000004  -0.000005 -0.000006 0.572703
27  2.098156 0.045632 1.805205  -2.032808 -0.211087 1.119208
28  0.914512 0.000005 -0.000006  -0.000000 -0.000000 0.366503
29  0.914507 0.000009 0.000000  0.000000 -0.000000 0.357788
30  -0.162434 0.426975 0.618811  -3.119231 0.139155 0.002813
31  -0.000000 0.001563 1.908403  1.004012 -1.428666 1.593255
32  3.867486 0.000002 -0.000015  -0.630621 0.673974 -1.121638
33  14.390604 0.000059 -0.000006  -0.000002 -0.000001 -0.916189
34  11.595303 0.000089 -0.000017  2.536682 0.377278 -0.635341
35  4.415173 -0.060699 1.931083  -0.306597 0.077733 0.977830
36  0.923138 0.000007 -0.000001  -0.000000 -0.000000 1.020987
37  0.923135 -0.000000 0.000002  -0.000000 -0.000000 1.021001
38  4.449304 -0.067568 0.950407  -0.095344 -0.063664 1.034875
39  1.128468 -0.000002 0.000000  0.000000 -0.000000 1.020988
40  1.128464 0.000004 0.000002  0.000000 0.000000 1.021001
41  4.416832 -0.015163 -0.200527  -0.000412 0.000679 1.031470
42  1.364868 -0.000007 0.000005  0.000000 0.000000 1.020988
43  1.364858 0.000005 0.000001  0.000000 -0.000000 1.021001
44  4.451083 -0.068711 -1.121631  0.164310 -0.056121 1.013838
45  1.107773 0.000008 0.000004  0.000000 -0.000000 1.021001
46  1.107767 -0.000004 0.000003  0.000000 0.000000 1.021001
47  2.098161 0.045640 -1.805198  1.841983 0.710508 0.601157
48  0.914508 0.000012 0.000009  0.000003 0.000004 -0.359682
49  0.914508 0.000007 -0.000001  -0.000000 -0.000000 -0.252884
50  1.969136 0.000008 0.000001  0.239719 -0.031540 -0.680966
51  -3.968872 0.006741 3.450710  -0.262707 -2.825358 -0.645782
52  17.254911 -0.000127 0.002806  -0.000001 0.000002 -0.735812
53  17.254902 0.000125 -0.001286  -0.124813 -0.137314 0.160936
54  3.968614 5.003951 0.000004  0.000000 -0.000000 1.570796
time 12
0  -1.719526 2.365492 35.686970  0.015389 0.163509 -1.968184
1  -0.000001 -0.000000 0.000000  -0.000012 -1.568569 -1.570801
2  3.968642 -0.003570 0.000006  0.005235 -0.017958 -0.038767
3  -3.968385 0.006761 -3.451275  0.041121 2.997592 -0.443411
4  17.254906 -0.000041 -0.000988  0.000001 -0.000000 -0.871631
5  17.254911 0.000042 0.000454  -0.041961 0.123386 0.544775
6  3.968602 5.003962 -0.000009  0.000000 -0.000000 1.570794
7  4.486287 -0.003593 0.000319  0.035642 0.004794 -0.067498
8  4.486293 -0.003593 0.000319  0.003925 -0.000169 0.111661
9  4.486291 -0.003593 0.000320  -0.038147 0.052659 0.236203
10  4.486212 -0.001584 0.000319  0.026341 -0.114553 0.597412
11  -0.000003 0.001578 -1.908401  -1.543815 1.844317 1.158968
12  3.867482 -0.000002 0.000005  -0.124219 -1.125589 -0.586859
13  14.390594 -0.000032 0.000010  -0.000000 -0.000005 -1.667090
14  11.595292 0.000025 0.000023  1.714250 0.004444 -0.216997
15  4.415176 -0.060703 -1.931068  0.352972 0.059848 1.407712
16  0.923138 -0.000006 -0.000002  0.000000 0.000002 0.519869
17  0.923141 -0.000001 0.000000  -0.000003 -0.000008 0.981238
18  4.449302 -0.067572 -0.950398  0.088739 0.254261 0.748304
19  1.128477 -0.000000 0.000005  0.000001 0.000000 1.290713
20  1.128470 -0.000004 0.000003  0.000007 0.000007 0.794807
21  4.416829 -0.015164 0.200539  0.008685 0.074598 0.772611
22  1.364873 0.000001 0.000001  0.000000 -0.000000 1.203922
23  1.364872 0.000000 0.000001  0.000002 -0.000001 1.251910
24  4.451073 -0.068717 1.121641  -0.127021 -0.447906 0.421031
25  1.107769 0.000000 0.000014  0.000001 0.000000 0.473166
26  1.107772 -0.000008 0.000001  -0.000005 -0.000006 0.572703
27  2.098156 0.045633 1.805202  -2.032808 -0.211087 1.119208
28  0.914512 0.000003 -0.000006  -0.000000 -0.000000 0.366503
29  0.914509 0.000002 0.000001  -0.000000 -0.000000 0.357788
30  -0.162434 0.426976 0.618812  -3.119231 0.139155 0.002813
31  -0.000005 0.001564 1.908401  0.997609 -1.487597 1.632423
32  3.867486 0.000005 -0.000004  -0.656352 0.703314 -1.228514
33  14.390606 0.000057 -0.000004  -0.000002 -0.000002 -1.014945
34  11.595304 0.000089 -0.000017  2.598141 0.365446 -0.537777
35  4.415171 -0.060703 1.931084  -0.306597 0.077733 0.977830
36  0.923136 0.000006 -0.000001  0.000000 -0.000000 1.020987
37  0.923135 -0.000003 0.000003  -0.000000 -0.000000 1.021001
38  4.449302 -0.067572 0.950410  -0.095344 -0.063664 1.034875
39  1.128468 0.000004 0.000003  0.000000 -0.000000 1.020988
40  1.128473 0.000001 0.000001  0.000000 0.000000 1.021001
41  4.416830 -0.015165 -0.200526  -0.000412 0.000679 1.031470
42  1.364867 -0.000005 0.000007  -0.000000 -0.000000 1.020988
43  1.364864 0.000001 0.000001  0.000000 0.000000 1.021001
44  4.451082 -0.068716 -1.121631  0.164310 -0.056121 1.013838
45  1.107773 0.000009 0.000004  0.000000 -0.000000 1.021001
46  1.107775 -0.000005 0.000001  0.000000 0.000000 1.021001
47  2.098160 0.045637 -1.805198  1.841983 0.710508 0.601157
48  0.914512 0.000011 0.000007  0.000004 0.000004 -0.359682
49  0.914510 0.000008 0.000003  0.000001 -0.000000 -0.252884
50  1.969132 0.000012 -0.000001  0.240224 -0.030418 -0.671554
51  -3.968875 0.006741 3.450710  -0.260479 -2.831390 -0.629936
52  17.254906 -0.000124 0.002805  -0.000001 0.000002 -0.735856
53  17.254908 0.000124 -0.001285  -0.116052 -0.134067 0.163811
54  3.968614 5.003949 0.000005  -0.000000 -0.000000 1.570796
time 13
0  -1.706359 2.220611 35.708096  0.013941 0.154072 -1.953950
1  -0.000000 0.000000 -0.000001  -0.000008 -1.568569 -1.570798
2  3.968644 -0.003570 0.000006  0.004505 -0.015685 -0.045524
3  -3.968385 0.006761 -3.451274  0.048618 2.993053 -0.414842
4  17.254904 -0.000042 -0.000987  0.000001 0.000000 -0.863233
5  17.254915 0.000040 0.000453  -0.035646 0.125756 0.547582
6  3.968602 5.003961 -0.000007  0.000000 -0.000000 1.570794
7  4.486288 -0.003593 0.000319  0.035642 0.004794 -0.067498
8  4.486288 -0.003593 0.000320  0.008152 -0.000351 0.125705
9  4.486289 -0.003593 0.000320  -0.038147 0.052660 0.236203
10  4.486211 -0.001586 0.000319  0.021229 -0.092321 0.593306
11  -0.000002 0.001565 -1.908401  -1.626982 1.851236 1.061201
12  3.867486 -0.000002 -0.000001  -0.078171 -1.116944 -0.623517
13  14.390593 -0.000028 0.000011  -0.000000 -0.000005 -1.653326
14  11.595290 0.000019 0.000025  1.730913 0.009166 -0.207179
15  4.415177 -0.060704 -1.931072  0.352971 0.059848 1.407712
16  0.923137 -0.000008 -0.000005  0.000000 0.000002 0.519869
17  0.923140 -0.000002 0.000000  -0.000003 -0.000008 0.981238
18  4.449302 -0.067572 -0.950400  0.088739 0.254261 0.748304
19  1.128470 0.000002 0.000004  0.000001 0.000000 1.290713
20  1.128469 -0.000004 0.000007  0.000007 0.000007 0.794807
21  4.416829 -0.015165 0.200539  0.008685 0.074598 0.772611
22  1.364872 0.000001 0.000006  0.000001 -0.000000 1.203922
23  1.364870 0.000004 0.000005  0.000002 -0.000001 1.251909
24  4.451074 -0.068717 1.121635  -0.127021 -0.447906 0.421031
25  1.107770 -0.000001 0.000004  -0.000000 0.000000 0.473166
26  1.107772 -0.000006 -0.000003  -0.000005 -0.000006 0.572703
27  2.098156 0.045634 1.805202  -2.032808 -0.211087 1.119208
28  0.914510 -0.000001 -0.000006  0.000000 0.000000 0.366503
29  0.914511 0.000009 0.000000  0.000000 -0.000000 0.357788
30  -0.162432 0.426976 0.618806  -3.119231 0.139155 0.002813
31  -0.000007 0.001558 1.908401  1.262862 -1.432845 1.329744
32  3.867486 0.000005 -0.000012  -0.646194 0.663576 -1.194896
33  14.390606 0.000058 -0.000008  -0.000002 -0.000001 -0.941831
34  11.595303 0.000090 -0.000020  2.563521 0.375117 -0.571537
35  4.415173 -0.060702 1.931085  -0.306597 0.077733 0.977830
36  0.923131 0.000002 -0.000002  0.000000 -0.000000 1.020987
37  0.923139 0.000001 -0.000001  0.000000 -0.000000 1.021001
38  4.449304 -0.067575 0.950408  -0.095344 -0.063664 1.034875
39  1.128463 0.000000 0.000003  0.000000 -0.000000 1.020988
40  1.128473 0.000000 0.000004  0.000000 0.000000 1.021001
41  4.416833 -0.015170 -0.200529  -0.000412 0.000679 1.031470
42  1.364863 -0.000004 0.000006  0.000000 -0.000000 1.020988
43  1.364856 0.000004 0.000004  0.000000 0.000000 1.021001
44  4.451083 -0.068715 -1.121630  0.164310 -0.056121 1.013838
45  1.107766 0.000006 0.000005  0.000000 -0.000000 1.021001
46  1.107775 -0.000002 0.000002  0.000000 0.000000 1.021001
47  2.098162 0.045636 -1.805199  1.841983 0.710509 0.601157
48  0.914509 0.000012 0.000005  0.000003 0.000004 -0.359682
49  0.914508 0.000005 0.000003  -0.000000 0.000000 -0.252884
50  1.969131 0.000004 -0.000001  0.241579 -0.027411 -0.646332
51  -3.968875 0.006741 3.450709  -0.258776 -2.837680 -0.612360
52  17.254910 -0.000126 0.002805  -0.000001 0.000002 -0.735343
53  17.254904 0.000124 -0.001285  -0.107577 -0.130990 0.166590
54  3.968614 5.003950 0.000004  -0.000000 -0.000000 1.570796
time 14
0  -1.693862 2.083096 35.728146  0.012567 0.145116 -1.940439
1  -0.000001 -0.000000 0.000002  -0.000009 -1.568569 -1.570819
2  3.968646 -0.003570 0.000006  0.003691 -0.013152 -0.053057
3  -3.968382 0.006762 -3.451275  0.055772 2.988549 -0.386161
4  17.254904 -0.000041 -0.000987  0.000000 0.000000 -0.854533
5  17.254915 0.000041 0.000454  -0.029761 0.128007 0.549930
6  3.968603 5.003962 -0.000008  0.000000 -0.000000 1.570794
7  4.486287 -0.003593 0.000320  0.035642 0.004794 -0.067498
8  4.486285 -0.003593 0.000320  0.013285 -0.000571 0.142758
9  4.486280 -0.003593 0.000319  -0.038147 0.052659 0.236203
10  4.486214 -0.001586 0.000319  0.016377 -0.071219 0.589409
11  -0.000002 0.001575 -1.908401  -1.753386 1.854129 0.903469
12  3.867483 -0.000001 0.000003  -0.000259 -1.104921 -0.694088
13  14.390590 -0.000027 0.000008  -0.000000 -0.000004 -1.623268
14  11.595289 0.000021 0.000024  1.744630 0.014424 -0.177921
15  4.415176 -0.060702 -1.931072  0.352972 0.059848 1.407712
16  0.923138 -0.000003 -0.000001  0.000000 0.000002 0.519869
17  0.923141 -0.000005 -0.000000  -0.000002 -0.000008 0.981238
18  4.449301 -0.067571 -0.950395  0.088739 0.254261 0.748304
19  1.128472 0.000001 0.000001  0.000001 0.000000 1.290713
20  1.128470 -0.000004 0.000003  0.000007 0.000008 0.794807
21  4.416829 -0.015165 0.200539  0.008685 0.074598 0.772611
22  1.364872 0.000000 0.000004  0.000001 0.000000 1.203922
23  1.364870 0.000003 -0.000000  0.000002 -0.000001 1.251910
24  4.451073 -0.068716 1.121638  -0.127021 -0.447906 0.421031
25  1.107768 0.000000 0.000011  -0.000000 0.000000 0.473166
26  1.107773 -0.000006 0.000010  -0.000005 -0.000006 0.572703
27  2.098156 0.045633 1.805203  -2.032808 -0.211087 1.119208
28  0.914511 0.000000 -0.000007  -0.000000 -0.000000 0.366503
29  0.914506 0.000009 0.000000  0.000000 -0.000000 0.357788
30  -0.162433 0.426976 0.618806  -3.119231 0.139155 0.002813
31  -0.000006 0.001568 1.908401  1.336460 -1.319101 1.195562
32  3.867485 0.000002 -0.000018  -0.620329 0.595066 -1.104076
33  14.390605 0.000058 -0.000007  -0.000002 -0.000001 -0.799549
34  11.595303 0.000094 -0.000016  2.498054 0.397049 -0.659625
35  4.415174 -0.060700 1.931086  -0.306597 0.077733 0.977830
36  0.923134 0.000003 0.000002  0.000000 -0.000000 1.020987
37  0.923140 -0.000001 -0.000001  0.000000 -0.000000 1.021001
38  4.449305 -0.067575 0.950410  -0.095344 -0.063664 1.034875
39  1.128464 -0.000001 0.000002  0.000000 -0.000000 1.020988
40  1.128472 0.000000 0.000003  0.000000 0.000000 1.021001
41  4.416834 -0.015167 -0.200527  -0.000412 0.000679 1.031470
42  1.364863 -0.000005 0.000006  0.000000 -0.000000 1.020988
43  1.364860 0.000008 0.000003  0.000000 0.000000 1.021001
44  4.451083 -0.068712 -1.121629  0.164310 -0.056121 1.013838
45  1.107771 0.000007 0.000005  0.000000 -0.000000 1.021001
46  1.107768 -0.000003 -0.000000  0.000000 0.000000 1.021001
47  2.098163 0.045637 -1.805197  1.841983 0.710508 0.601157
48  0.914511 0.000011 0.000010  0.000003 0.000004 -0.359682
49  0.914509 0.000008 0.000002  -0.000000 -0.000000 -0.252884
50  1.969132 0.000013 -0.000001  0.243541 -0.023059 -0.609815
51  -3.968874 0.006742 3.450709  -0.257550 -2.844057 -0.593796
52  17.254915 -0.000128 0.002805  -0.000001 0.000002 -0.733896
53  17.254906 0.000124 -0.001284  -0.099600 -0.128144 0.168909
54  3.968614 5.003950 0.000005  0.000000 -0.000000 1.570796
time 15
0  -1.682368 1.956632 35.746586  0.011303 0.136879 -1.928014
1  -0.000000 -0.000000 -0.000000  -0.000020 -1.568569 -1.570796
2  3.968646 -0.003571 0.000006  0.002850 -0.010531 -0.060847
3  -3.968393 0.006761 -3.451274  0.062398 2.984256 -0.358680
4  17.254904 -0.000041 -0.000989  0.000001 -0.000000 -0.846201
5  17.254915 0.000042 0.000453  -0.024422 0.130078 0.551974
6  3.968602 5.003962 -0.000008  0.000000 -0.000000 1.570794
7  4.486280 -0.003593 0.000320  0.035642 0.004794 -0.067498
8  4.486285 -0.003593 0.000319  0.018871 -0.000811 0.161316
9  4.486282 -0.003593 0.000319  -0.038147 0.052659 0.236203
10  4.486221 -0.001587 0.000319  0.011914 -0.051813 0.585825
11  -0.000003 0.001570 -1.908401  -1.845787 1.862490 0.792291
12  3.867483 -0.000000 0.000004  0.047280 -1.093607 -0.735409
13  14.390594 -0.000031 0.000008  -0.000000 -0.000005 -1.605673
14  11.595288 0.000024 0.000022  1.752372 0.028067 -0.165998
15  4.415176 -0.060704 -1.931076  0.352972 0.059848 1.407712
16  0.923138 -0.000005 0.000004  0.000000 0.000002 0.519869
17  0.923139 -0.000004 0.000002  -0.000002 -0.000008 0.981238
18  4.449302 -0.067572 -0.950397  0.088739 0.254261 0.748304
19  1.128473 0.000001 0.000007  0.000001 0.000000 1.290713
20  1.128469 -0.000002 0.000007  0.000007 0.000008 0.794807
21  4.416828 -0.015165 0.200538  0.008685 0.074598 0.772611
22  1.364874 0.000000 0.000005  0.000000 -0.000000 1.203922
23  1.364871 0.000003 0.000008  0.000002 -0.000001 1.251910
24  4.451073 -0.068718 1.121638  -0.127021 -0.447906 0.421031
25  1.107770 -0.000001 0.000008  -0.000000 0.000000 0.473166
26  1.107772 -0.000010 0.000005  -0.000005 -0.000006 0.572703
27  2.098156 0.045633 1.805196  -2.032808 -0.211087 1.119208
28  0.914512 0.000002 -0.000007  -0.000000 -0.000000 0.366503
29  0.914508 0.000005 0.000001  0.000000 -0.000000 0.357788
30  -0.162433 0.426975 0.618804  -3.119231 0.139155 0.002813
31  -0.000007 0.001562 1.908401  1.365204 -1.234274 1.127381
32  3.867484 0.000004 -0.000006  -0.601610 0.546546 -1.047876
33  14.390606 0.000059 -0.000008  -0.000002 -0.000001 -0.709004
34  11.595302 0.000094 -0.000021  2.461674 0.413653 -0.716435
35  4.415173 -0.060693 1.931084  -0.306597 0.077733 0.977830
36  0.923134 0.000006 0.000000  -0.000000 -0.000000 1.020987
37  0.923135 -0.000001 -0.000001  0.000000 -0.000000 1.021001
38  4.449304 -0.067566 0.950407  -0.095344 -0.063664 1.034875
39  1.128471 0.000004 0.000004  0.000000 -0.000000 1.020988
40  1.128468 -0.000001 0.000001  0.000000 0.000000 1.021001
41  4.416832 -0.015153 -0.200527  -0.000412 0.000679 1.031470
42  1.364867 -0.000003 0.000007  -0.000000 -0.000000 1.020988
43  1.364858 0.000005 0.000001  0.000000 0.000000 1.021001
44  4.451083 -0.068708 -1.121629  0.164310 -0.056121 1.013838
45  1.107773 0.000010 0.000003  0.000000 -0.000000 1.021001
46  1.107774 -0.000004 0.000002  0.000000 0.000000 1.021001
47  2.098162 0.045647 -1.805197  1.841983 0.710508 0.601157
48  0.914514 0.000010 0.000010  0.000003 0.000003 -0.359682
49  0.914511 0.000007 0.000004  -0.000000 0.000000 -0.252884
50  1.969131 0.000008 -0.000001  0.245867 -0.017898 -0.566522
51  -3.968879 0.006741 3.450710  -0.256632 -2.850215 -0.575452
52  17.254911 -0.000129 0.002806  -0.000001 0.000002 -0.732193
53  17.254904 0.000124 -0.001284  -0.092325 -0.125585 0.171004
54  3.968614 5.003949 0.000005  0.000000 -0.000000 1.570796
time 16
0  -1.672214 1.844903 35.762878  0.010186 0.129601 -1.917036
1  -0.000000 -0.000000 -0.000006  -0.000008 -1.568569 -1.570803
2  3.968646 -0.003570 0.000006  0.002036 -0.007998 -0.068380
3  -3.968387 0.006762 -3.451275  0.068281 2.980388 -0.333345
4  17.254908 -0.000041 -0.000988  0.000000 0.000000 -0.838076
5  17.254917 0.000041 0.000454  -0.019684 0.131901 0.553405
6  3.968603 5.003962 -0.000008  -0.000000 -0.000000 1.570794
7  4.486286 -0.003593 0.000319  0.035642 0.004794 -0.067498
8  4.486288 -0.003593 0.000319  0.024457 -0.001051 0.179875
9  4.486287 -0.003594 0.000319  -0.038147 0.052660 0.236203
10  4.486220 -0.001587 0.000319  0.007971 -0.034668 0.582659
11  0.000001 0.001572 -1.908401  -1.882412 1.875783 0.753499
12  3.867484 -0.000002 0.000003  0.061264 -1.086023 -0.744230
13  14.390594 -0.000029 0.000007  -0.000000 -0.000005 -1.608841
14  11.595290 0.000021 0.000021  1.757619 0.047648 -0.172224
15  4.415176 -0.060704 -1.931074  0.352972 0.059848 1.407712
16  0.923138 -0.000006 0.000002  0.000000 0.000002 0.519869
17  0.923140 -0.000004 0.000002  -0.000002 -0.000008 0.981238
18  4.449302 -0.067572 -0.950395  0.088739 0.254261 0.748304
19  1.128472 0.000001 0.000005  0.000001 0.000000 1.290713
20  1.128469 -0.000005 0.000001  0.000007 0.000008 0.794807
21  4.416828 -0.015165 0.200544  0.008685 0.074598 0.772611
22  1.364872 -0.000000 0.000004  0.000001 -0.000000 1.203922
23  1.364871 0.000002 0.000005  0.000002 -0.000001 1.251910
24  4.451073 -0.068718 1.121641  -0.127021 -0.447906 0.421031
25  1.107771 0.000001 0.000001  -0.000000 0.000000 0.473166
26  1.107772 -0.000006 0.000003  -0.000005 -0.000006 0.572703
27  2.098156 0.045633 1.805204  -2.032808 -0.211087 1.119208
28  0.914511 0.000004 -0.000007  -0.000000 -0.000000 0.366503
29  0.914508 0.000005 -0.000000  0.000000 -0.000000 0.357788
30  -0.162433 0.426975 0.618808  -3.119231 0.139155 0.002813
31  -0.000002 0.001560 1.908402  1.399426 -1.210168 1.077739
32  3.867487 0.000001 -0.000016  -0.601139 0.529244 -1.053729
33  14.390610 0.000058 -0.000003  -0.000002 -0.000001 -0.697196
34  11.595304 0.000093 -0.000020  2.460212 0.424003 -0.716777
35  4.415172 -0.060698 1.931083  -0.306597 0.077733 0.977830
36  0.923138 0.000010 -0.000002  0.000000 -0.000000 1.020987
37  0.923137 0.000000 0.000000  0.000000 -0.000000 1.021001
38  4.449303 -0.067576 0.950408  -0.095344 -0.063664 1.034875
39  1.128469 -0.000002 0.000004  0.000000 -0.000000 1.020988
40  1.128469 0.000003 0.000001  0.000000 0.000000 1.021001
41  4.416832 -0.015165 -0.200528  -0.000412 0.000679 1.031470
42  1.364864 -0.000005 0.000005  0.000000 -0.000000 1.020988
43  1.364862 0.000008 0.000001  0.000000 0.000000 1.021001
44  4.451081 -0.068718 -1.121631  0.164310 -0.056121 1.013838
45  1.107772 0.000010 0.000004  0.000000 -0.000000 1.021001
46  1.107774 -0.000000 0.000005  0.000000 0.000000 1.021001
47  2.098160 0.045633 -1.805199  1.841983 0.710509 0.601157
48  0.914512 0.000010 0.000001  0.000003 0.000004 -0.359682
49  0.914512 0.000010 0.000001  0.000001 0.000000 -0.252884
50  1.969135 0.000008 -0.000000  0.248314 -0.012469 -0.520971
51  -3.968876 0.006742 3.450710  -0.256017 -2.855946 -0.558090
52  17.254913 -0.000128 0.002806  -0.000001 0.000002 -0.729932
53  17.254904 0.000124 -0.001286  -0.085945 -0.123368 0.172551
54  3.968614 5.003950 0.000004  -0.000000 -0.000000 1.570796
time 17
0  -1.663734 1.751588 35.776485  0.009254 0.123524 -1.907868
1  0.000000 -0.000000 0.000000  -0.000012 -1.568569 -1.570801
2  3.968642 -0.003570 0.000006  0.001306 -0.005725 -0.075138
3  -3.968388 0.006762 -3.451274  0.073132 2.977118 -0.311591
4  17.254908 -0.000040 -0.000986  0.000001 -0.000000 -0.831103
5  17.254915 0.000041 0.000454  -0.015633 0.133410 0.554545
6  3.968602 5.003962 -0.000007  0.000000 -0.000000 1.570794
7  4.486284 -0.003593 0.000320  0.035642 0.004794 -0.067498
8  4.486286 -0.003593 0.000319  0.029590 -0.001272 0.196928
9  4.486285 -0.003593 0.000320  -0.038147 0.052659 0.236203
10  4.486218 -0.001591 0.000319  0.004679 -0.020349 0.580014
11  -0.000004 0.001573 -1.908401  -1.907184 1.888131 0.727522
12  3.867484 -0.000001 0.000003  0.071081 -1.079065 -0.749690
13  14.390591 -0.000031 0.000008  -0.000000 -0.000005 -1.613899
14  11.595288 0.000026 0.000022  1.762055 0.066116 -0.179311
15  4.415177 -0.060704 -1.931076  0.352972 0.059848 1.407712
16  0.923138 -0.000007 -0.000004  0.000000 0.000002 0.519869
17  0.923141 -0.000006 0.000004  -0.000003 -0.000008 0.981238
18  4.449302 -0.067574 -0.950401  0.088739 0.254261 0.748304
19  1.128475 0.000000 0.000009  0.000001 0.000000 1.290713
20  1.128469 -0.000004 0.000005  0.000007 0.000008 0.794807
21  4.416828 -0.015166 0.200537  0.008685 0.074598 0.772611
22  1.364872 0.000000 0.000001  0.000000 -0.000000 1.203922
23  1.364872 0.000001 -0.000001  0.000002 -0.000001 1.251910
24  4.451073 -0.068718 1.121636  -0.127021 -0.447906 0.421031
25  1.107769 0.000001 0.000003  -0.000000 0.000000 0.473166
26  1.107771 -0.000008 0.000003  -0.000005 -0.000006 0.572703
27  2.098157 0.045631 1.805197  -2.032808 -0.211087 1.119208
28  0.914512 -0.000008 -0.000008  -0.000000 -0.000000 0.366503
29  0.914508 0.000002 0.000000  0.000000 -0.000000 0.357788
30  -0.162433 0.426975 0.618804  -3.119231 0.139155 0.002813
31  -0.000010 0.001563 1.908401  1.421651 -1.191914 1.041678
32  3.867484 0.000004 -0.000007  -0.601719 0.514767 -1.062577
33  14.390608 0.000059 -0.000002  -0.000002 -0.000001 -0.690708
34  11.595301 0.000094 -0.000018  2.461092 0.434443 -0.713802
35  4.415173 -0.060699 1.931086  -0.306597 0.077733 0.977830
36  0.923137 0.000003 0.000003  -0.000000 -0.000000 1.020987
37  0.923134 -0.000001 -0.000003  0.000000 -0.000000 1.021001
38  4.449303 -0.067573 0.950411  -0.095344 -0.063664 1.034875
39  1.128469 -0.000001 0.000000  0.000000 -0.000000 1.020988
40  1.128467 0.000002 0.000003  0.000000 0.000000 1.021001
41  4.416831 -0.015165 -0.200526  -0.000412 0.000679 1.031470
42  1.364866 -0.000005 0.000005  0.000000 -0.000000 1.020988
43  1.364858 0.000007 -0.000001  0.000000 0.000000 1.021001
44  4.451082 -0.068715 -1.121631  0.164310 -0.056121 1.013838
45  1.107773 0.000009 0.000003  0.000000 -0.000000 1.021001
46  1.107772 -0.000002 0.000001  0.000000 -0.000000 1.021001
47  2.098161 0.045638 -1.805197  1.841983 0.710509 0.601157
48  0.914510 0.000010 0.000007  0.000003 0.000004 -0.359681
49  0.914511 0.000008 -0.000001  -0.000000 0.000000 -0.252884
50  1.969130 0.000010 -0.000000  0.250640 -0.007308 -0.477678
51  -3.968880 0.006741 3.450710  -0.255583 -2.860908 -0.542933
52  17.254910 -0.000122 0.002805  -0.000001 0.000002 -0.727866
53  17.254900 0.000124 -0.001285  -0.080650 -0.121545 0.173829
54  3.968614 5.003951 0.000005  0.000000 -0.000000 1.570796
time 18
0  -1.657262 1.680376 35.786869  0.008542 0.118885 -1.900872
1  -0.000000 -0.000000 -0.000001  -0.000027 -1.568569 -1.570787
2  3.968637 -0.003570 0.000006  0.000715 -0.003886 -0.080604
3  -3.968392 0.006762 -3.451274  0.076858 2.974563 -0.294611
4  17.254906 -0.000042 -0.000987  0.000001 -0.000000 -0.825690
5  17.254915 0.000042 0.000453  -0.012550 0.134561 0.555389
6  3.968602 5.003962 -0.000008  0.000000 -0.000000 1.570794
7  4.486288 -0.003593 0.000320  0.035642 0.004794 -0.067498
8  4.486283 -0.003593 0.000319  0.033817 -0.001454 0.210972
9  4.486286 -0.003594 0.000319  -0.038147 0.052659 0.236203
10  4.486215 -0.001589 0.000319  0.002166 -0.009421 0.577996
11  0.000004 0.001573 -1.908400  -1.922628 1.898295 0.711539
12  3.867483 0.000002 0.000015  0.077401 -1.073329 -0.752631
13  14.390588 -0.000030 0.000010  -0.000000 -0.000005 -1.619360
14  11.595288 0.000023 0.000023  1.765515 0.081599 -0.185956
15  4.415177 -0.060704 -1.931068  0.352972 0.059848 1.407712
16  0.923139 -0.000006 0.000002  0.000000 0.000002 0.519869
17  0.923141 -0.000004 0.000005  -0.000002 -0.000008 0.981238
18  4.449302 -0.067573 -0.950393  0.088739 0.254261 0.748304
19  1.128473 0.000000 0.000007  0.000001 0.000000 1.290713
20  1.128469 -0.000003 0.000005  0.000007 0.000008 0.794807
21  4.416829 -0.015165 0.200546  0.008685 0.074598 0.772611
22  1.364872 0.000000 0.000003  0.000001 -0.000000 1.203922
23  1.364871 0.000000 0.000006  0.000002 -0.000001 1.251910
24  4.451073 -0.068719 1.121647  -0.127021 -0.447906 0.421031
25  1.107770 0.000001 0.000008  -0.000000 0.000000 0.473166
26  1.107774 -0.000007 0.000007  -0.000004 -0.000006 0.572704
27  2.098156 0.045631 1.805203  -2.032808 -0.211087 1.119208
28  0.914512 -0.000006 -0.000005  0.000000 -0.000000 0.366503
29  0.914508 0.000012 0.000000  -0.000000 -0.000000 0.357788
30  -0.162433 0.426974 0.618808  -3.119231 0.139155 0.002813
31  -0.000002 0.001566 1.908402  1.434734 -1.179289 1.017275
32  3.867486 0.000001 -0.000008  -0.602695 0.503564 -1.072005
33  14.390605 0.000059 -0.000011  -0.000002 -0.000001 -0.687730
34  11.595303 0.000090 -0.000021  2.463160 0.443655 -0.709358
35  4.415174 -0.060699 1.931084  -0.306597 0.077733 0.977830
36  0.923141 0.000004 -0.000003  0.000000 -0.000000 1.020987
37  0.923137 -0.000001 -0.000003  0.000000 -0.000000 1.021001
38  4.449304 -0.067572 0.950410  -0.095344 -0.063664 1.034875
39  1.128474 0.000003 0.000004  0.000000 -0.000000 1.020988
40  1.128478 0.000000 -0.000000  0.000000 0.000000 1.021001
41  4.416831 -0.015165 -0.200526  -0.000412 0.000679 1.031470
42  1.364873 -0.000003 0.000004  0.000000 -0.000000 1.020988
43  1.364867 0.000002 0.000001  0.000000 0.000000 1.021001
44  4.451082 -0.068712 -1.121631  0.164310 -0.056121 1.013838
45  1.107771 0.000008 0.000004  0.000000 -0.000000 1.021001
46  1.107775 0.000001 0.000000  0.000000 0.000000 1.021001
47  2.098161 0.045638 -1.805196  1.841983 0.710509 0.601157
48  0.914508 0.000011 0.000010  0.000003 0.000004 -0.359682
49  0.914510 0.000009 0.000008  -0.000000 -0.000000 -0.252884
50  1.969137 0.000011 -0.000000  0.252602 -0.002955 -0.441162
51  -3.968878 0.006742 3.450710  -0.255318 -2.864829 -0.530874
52  17.254910 -0.000124 0.002806  -0.000001 0.000002 -0.726037
53  17.254902 0.000123 -0.001285  -0.076630 -0.120170 0.174717
54  3.968614 5.003951 0.000004  0.000000 0.000000 1.570796
time 19
0  -1.653134 1.634947 35.793495  0.008088 0.115927 -1.896408
1  0.000000 0.000000 -0.000000  -0.000005 -1.568569 -1.570802
2  3.968647 -0.003570 0.000006  0.000320 -0.002656 -0.084263
3  -3.968394 0.006761 -3.451274  0.079261 2.972904 -0.283462
4  17.254910 -0.000042 -0.000989  0.000000 -0.000000 -0.821945
5  17.254917 0.000042 0.000454  -0.010587 0.135296 0.555775
6  3.968602 5.003962 -0.000009  0.000000 -0.000000 1.570794
7  4.486285 -0.003593 0.000320  0.035642 0.004794 -0.067498
8  4.486284 -0.003593 0.000320  0.036685 -0.001577 0.220502
9  4.486284 -0.003593 0.000320  -0.038147 0.052660 0.236203
10  4.486212 -0.001588 0.000319  0.000563 -0.002450 0.576708
11  -0.000002 0.001568 -1.908401  -1.930768 1.905182 0.703276
12  3.867484 -0.000001 0.000001  0.080842 -1.069447 -0.753866
13  14.390591 -0.000027 0.000008  -0.000000 -0.000004 -1.623736
14  11.595289 0.000023 0.000026  1.767809 0.092215 -0.190864
15  4.415176 -0.060704 -1.931065  0.352972 0.059848 1.407712
16  0.923138 -0.000005 0.000001  0.000000 0.000002 0.519869
17  0.923140 -0.000005 0.000003  -0.000002 -0.000008 0.981238
18  4.449302 -0.067572 -0.950393  0.088739 0.254261 0.748304
19  1.128471 0.000001 0.000004  0.000001 0.000000 1.290713
20  1.128468 -0.000004 -0.000001  0.000007 0.000008 0.794807
21  4.416828 -0.015164 0.200545  0.008685 0.074598 0.772611
22  1.364873 0.000001 0.000008  0.000000 -0.000000 1.203922
23  1.364871 0.000002 0.000010  0.000002 -0.000001 1.251909
24  4.451073 -0.068718 1.121646  -0.127021 -0.447906 0.421031
25  1.107768 0.000001 0.000007  0.000001 0.000000 0.473166
26  1.107769 -0.000003 0.000005  -0.000004 -0.000006 0.572703
27  2.098156 0.045633 1.805209  -2.032808 -0.211087 1.119208
28  0.914510 0.000003 -0.000005  -0.000000 -0.000000 0.366503
29  0.914508 0.000006 -0.000001  -0.000000 -0.000000 0.357788
30  -0.162433 0.426976 0.618811  -3.119231 0.139155 0.002813
31  -0.000008 0.001557 1.908402  1.441620 -1.171993 1.002792
32  3.867486 0.000003 -0.000014  -0.603837 0.496330 -1.079612
33  14.390602 0.000058 -0.000011  -0.000002 -0.000001 -0.686888
34  11.595303 0.000091 -0.000018  2.465320 0.450290 -0.705238
35  4.415172 -0.060697 1.931084  -0.306597 0.077733 0.977830
36  0.923138 0.000005 0.000001  0.000000 -0.000000 1.020987
37  0.923135 -0.000004 -0.000003  -0.000000 -0.000000 1.021001
38  4.449304 -0.067571 0.950409  -0.095344 -0.063664 1.034875
39  1.128475 0.000004 0.000001  0.000000 -0.000000 1.020988
40  1.128472 0.000001 0.000000  0.000000 0.000000 1.021001
41  4.416831 -0.015163 -0.200526  -0.000412 0.000679 1.031470
42  1.364874 -0.000001 0.000005  0.000000 -0.000000 1.020988
43  1.364863 0.000006 0.000002  0.000000 0.000000 1.021001
44  4.451083 -0.068712 -1.121630  0.164310 -0.056121 1.013838
45  1.107775 0.000012 0.000005  0.000000 -0.000000 1.021001
46  1.107772 0.000002 0.000004  0.000000 0.000000 1.021001
47  2.098160 0.045638 -1.805196  1.841983 0.710508 0.601157
48  0.914512 0.000010 0.000012  0.000004 0.000004 -0.359682
49  0.914510 0.000010 0.000010  0.000001 -0.000000 -0.252884
50  1.969131 0.000003 -0.000000  0.253957 0.000051 -0.415939
51  -3.968883 0.006741 3.450710  -0.255195 -2.867409 -0.522893
52  17.254910 -0.000122 0.002807  -0.000001 0.000002 -0.724688
53  17.254904 0.000123 -0.001285  -0.074075 -0.119300 0.175210
54  3.968615 5.003950 0.000005  -0.000000 0.000000 1.570796
time 20
0  -1.651683 1.618985 35.795822  0.007928 0.114887 -1.894840
1  0.000000 -0.000000 0.000001  -0.000019 -1.568569 -1.570784
2  3.968642 -0.003571 0.000006  0.000176 -0.002207 -0.085597
3  -3.968388 0.006762 -3.451274  0.080102 2.972307 -0.279511
4  17.254911 -0.000042 -0.000989  0.000000 0.000000 -0.820673
5  17.254915 0.000042 0.000454  -0.009899 0.135556 0.555939
6  3.968602 5.003962 -0.000010  -0.000000 0.000000 1.570794
7  4.486289 -0.003593 0.000319  0.035642 0.004794 -0.067498
8  4.486286 -0.003593 0.000319  0.037742 -0.001622 0.224013
9  4.486286 -0.003593 0.000319  -0.038147 0.052660 0.236203
10  4.486217 -0.001587 0.000319  -0.000000 -0.000001 0.576256
11  -0.000004 0.001578 -1.908400  -1.933208 1.907723 0.700863
12  3.867485 -0.000004 0.000011  0.081900 -1.068024 -0.754125
13  14.390598 -0.000031 0.000011  -0.000000 -0.000004 -1.625526
14  11.595287 0.000022 0.000024  1.768662 0.096134 -0.192775
15  4.415176 -0.060704 -1.931071  0.352972 0.059848 1.407712
16  0.923138 -0.000003 -0.000001  -0.000000 0.000002 0.519869
17  0.923141 -0.000006 -0.000001  -0.000002 -0.000008 0.981238
18  4.449303 -0.067572 -0.950392  0.088739 0.254261 0.748304
19  1.128472 0.000000 0.000004  0.000001 0.000000 1.290713
20  1.128469 -0.000007 0.000003  0.000007 0.000008 0.794807
21  4.416828 -0.015165 0.200543  0.008685 0.074598 0.772611
22  1.364872 0.000001 0.000004  0.000000 -0.000000 1.203922
23  1.364871 0.000001 0.000000  0.000002 -0.000001 1.251910
24  4.451071 -0.068718 1.121642  -0.127021 -0.447906 0.421031
25  1.107767 0.000002 0.000007  -0.000000 0.000000 0.473166
26  1.107770 -0.000006 -0.000001  -0.000005 -0.000006 0.572703
27  2.098157 0.045632 1.805206  -2.032808 -0.211087 1.119208
28  0.914512 -0.000007 -0.000006  0.000000 -0.000000 0.366503
29  0.914509 0.000001 -0.000000  0.000000 -0.000000 0.357788
30  -0.162433 0.426975 0.618813  -3.119231 0.139155 0.002813
31  -0.000007 0.001565 1.908402  1.443717 -1.169659 0.997925
32  3.867486 0.000004 -0.000007  -0.604416 0.493759 -1.082767
33  14.390610 0.000056 -0.000008  -0.000002 -0.000001 -0.686878
34  11.595301 0.000093 -0.000017  2.466333 0.452862 -0.703396
35  4.415172 -0.060694 1.931083  -0.306597 0.077733 0.977830
36  0.923138 0.000006 0.000001  0.000000 -0.000000 1.020987
37  0.923135 0.000000 0.000001  0.000000 -0.000000 1.021001
38  4.449303 -0.067566 0.950407  -0.095344 -0.063664 1.034875
39  1.128473 0.000001 0.000003  0.000000 -0.000000 1.020988
40  1.128470 0.000003 0.000004  0.000000 0.000000 1.021001
41  4.416832 -0.015160 -0.200528  -0.000412 0.000679 1.031470
42  1.364869 -0.000005 0.000006  0.000000 -0.000000 1.020988
43  1.364859 0.000007 0.000003  0.000000 0.000000 1.021001
44  4.451082 -0.068709 -1.121632  0.164310 -0.056121 1.013838
45  1.107774 0.000009 0.000004  -0.000000 -0.000000 1.021001
46  1.107771 -0.000003 -0.000000  0.000000 -0.000000 1.021001
47  2.098161 0.045643 -1.805200  1.841983 0.710508 0.601157
48  0.914507 0.000010 0.000007  0.000004 0.000004 -0.359682
49  0.914510 0.000009 0.000006  -0.000000 -0.000000 -0.252884
50  1.969132 0.000010 0.000000  0.254463 0.001173 -0.406528
51  -3.968876 0.006742 3.450709  -0.255189 -2.868356 -0.519928
52  17.254908 -0.000126 0.002806  -0.000001 0.000002 -0.723989
53  17.254906 0.000124 -0.001284  -0.073178 -0.118996 0.175263
54  3.968614 5.003949 0.000005  0.000000 -0.000000 1.570796
end
