// Created by Crowbar 0.74
version 1
nodes
  0 "ValveBiped.Bip01_Pelvis" -1
  1 "ValveBiped.Bip01_L_Thigh" 0
  2 "ValveBiped.Bip01_L_Calf" 1
  3 "ValveBiped.Bip01_L_Foot" 2
  4 "ValveBiped.Bip01_L_Toe0" 3
  5 "ValveBiped.Bip01_R_Thigh" 0
  6 "ValveBiped.Bip01_R_Calf" 5
  7 "ValveBiped.Bip01_R_Foot" 6
  8 "ValveBiped.Bip01_R_Toe0" 7
  9 "ValveBiped.Bip01_Spine" 0
  10 "ValveBiped.Bip01_Spine1" 9
  11 "ValveBiped.Bip01_Spine2" 10
  12 "ValveBiped.Bip01_Spine4" 11
  13 "ValveBiped.Bip01_Neck1" 12
  14 "ValveBiped.Bip01_Head1" 13
  15 "ValveBiped.Bip01_L_Clavicle" 12
  16 "ValveBiped.Bip01_L_UpperArm" 15
  17 "ValveBiped.Bip01_L_Forearm" 16
  18 "ValveBiped.Bip01_L_Hand" 17
  19 "ValveBiped.Bip01_L_Finger4" 18
  20 "ValveBiped.Bip01_L_Finger41" 19
  21 "ValveBiped.Bip01_L_Finger42" 20
  22 "ValveBiped.Bip01_L_Finger3" 18
  23 "ValveBiped.Bip01_L_Finger31" 22
  24 "ValveBiped.Bip01_L_Finger32" 23
  25 "ValveBiped.Bip01_L_Finger2" 18
  26 "ValveBiped.Bip01_L_Finger21" 25
  27 "ValveBiped.Bip01_L_Finger22" 26
  28 "ValveBiped.Bip01_L_Finger1" 18
  29 "ValveBiped.Bip01_L_Finger11" 28
  30 "ValveBiped.Bip01_L_Finger12" 29
  31 "ValveBiped.Bip01_L_Finger0" 18
  32 "ValveBiped.Bip01_L_Finger01" 31
  33 "ValveBiped.Bip01_L_Finger02" 32
  34 "ValveBiped.Bip01_R_Clavicle" 12
  35 "ValveBiped.Bip01_R_UpperArm" 34
  36 "ValveBiped.Bip01_R_Forearm" 35
  37 "ValveBiped.Bip01_R_Hand" 36
  38 "ValveBiped.Bip01_R_Finger4" 37
  39 "ValveBiped.Bip01_R_Finger41" 38
  40 "ValveBiped.Bip01_R_Finger42" 39
  41 "ValveBiped.Bip01_R_Finger3" 37
  42 "ValveBiped.Bip01_R_Finger31" 41
  43 "ValveBiped.Bip01_R_Finger32" 42
  44 "ValveBiped.Bip01_R_Finger2" 37
  45 "ValveBiped.Bip01_R_Finger21" 44
  46 "ValveBiped.Bip01_R_Finger22" 45
  47 "ValveBiped.Bip01_R_Finger1" 37
  48 "ValveBiped.Bip01_R_Finger11" 47
  49 "ValveBiped.Bip01_R_Finger12" 48
  50 "ValveBiped.Bip01_R_Finger0" 37
  51 "ValveBiped.Bip01_R_Finger01" 50
  52 "ValveBiped.Bip01_R_Finger02" 51
end
skeleton
  time 0
    0 0.000000 0.083008 0.000000 0.008968 0.000000 -1.570796
    1 0.000000 0.000001 0.000000 -0.000046 0.000002 -0.016342
    2 -0.000002 0.000000 0.000000 0.000000 0.000000 0.010319
    3 0.000002 0.000000 0.000000 -0.000118 0.000082 -0.002939
    4 0.000001 0.000000 0.000000 0.000000 0.000000 0.000000
    5 0.000000 0.000001 0.000000 0.000046 0.000000 -0.016342
    6 0.000002 0.000000 0.000000 0.000000 0.000000 0.010319
    7 0.000002 0.000000 0.000000 0.000118 -0.000112 -0.002941
    8 0.000002 -0.000001 0.000000 0.000000 0.000000 0.000000
    9 0.000000 0.000000 0.000000 0.000000 0.000000 -0.012642
    10 0.000003 0.000000 0.000000 0.000000 0.000000 0.010471
    11 -0.000003 0.000000 0.000000 0.000000 0.000000 -0.020943
    12 -0.000002 0.000000 0.000000 0.000000 0.000000 0.000000
    13 0.000002 0.000000 0.000000 0.000000 0.000000 0.080285
    14 -0.000001 0.000000 0.000000 0.000000 0.000000 -0.108209
    15 0.000000 0.000000 0.000000 -0.001035 -0.019428 0.106457
    16 0.000000 -0.000003 -0.000001 -0.171023 -0.763269 -1.230484
    17 -0.000003 0.000001 0.000000 0.000000 0.000000 0.723263
    18 -0.000003 0.000000 -0.000002 -0.928288 -0.204070 -0.128464
    19 0.000002 0.000002 -0.000001 -0.024406 -0.104040 0.460453
    20 -0.000005 0.000001 0.000002 -0.016867 -0.087280 0.381576
    21 -0.000001 0.000000 -0.000002 -0.005541 -0.050697 0.217665
    22 0.000001 0.000001 0.000001 -0.001925 -0.016428 0.233306
    23 -0.000001 0.000000 -0.000001 -0.001650 -0.015221 0.215892
    24 0.000003 -0.000003 0.000002 -0.002739 -0.019539 0.278585
    25 0.000000 0.000001 0.000001 0.001190 0.013925 0.170478
    26 0.000001 -0.000001 0.000000 0.001190 0.013925 0.170480
    27 0.000003 0.000000 0.000001 0.001190 0.013925 0.170478
    28 -0.000002 0.000004 -0.000001 0.004042 0.049209 0.163876
    29 -0.000002 0.000001 0.000000 0.004042 0.049207 0.163876
    30 0.000002 -0.000002 0.000000 0.004041 0.049204 0.163876
    31 0.000003 0.000001 -0.000001 0.000056 0.422655 -0.278801
    32 -0.000003 0.000000 -0.000002 -0.000013 0.000165 -0.160569
    33 -0.000002 -0.000004 0.000000 -0.000029 0.000244 -0.237364
    34 0.000000 0.000000 0.000000 0.000633 0.011753 0.107571
    35 0.000002 -0.000003 -0.000001 0.145532 0.724956 -1.247615
    36 0.000002 -0.000001 0.000000 0.000000 0.000000 0.642653
    37 0.000005 -0.000004 0.000000 0.643919 0.349309 -0.191567
    38 -0.000003 0.000002 -0.000001 0.025154 0.107396 0.459735
    39 0.000001 0.000002 0.000003 0.017381 0.090088 0.380951
    40 -0.000003 0.000002 0.000002 0.005709 0.052325 0.217285
    41 0.000002 0.000000 -0.000001 0.002147 0.018329 0.233166
    42 0.000001 0.000000 -0.000003 0.001839 0.016981 0.215762
    43 0.000005 0.000000 0.000003 0.003054 0.021796 0.278421
    44 -0.000002 0.000003 0.000001 -0.001070 -0.012514 0.170587
    45 -0.000004 0.000003 0.000000 -0.001070 -0.012514 0.170587
    46 -0.000007 0.000001 -0.000002 -0.001070 -0.012514 0.170587
    47 0.000000 0.000002 -0.000002 -0.003942 -0.047877 0.164266
    48 -0.000004 0.000000 -0.000002 -0.003942 -0.047874 0.164268
    49 0.000001 -0.000002 0.000002 -0.003942 -0.047872 0.164268
    50 -0.000005 0.000003 -0.000002 -0.000024 -0.291574 -0.277317
    51 0.000003 0.000000 0.000000 0.000086 -0.001074 -0.160565
    52 -0.000003 -0.000001 0.000000 0.000188 -0.001580 -0.237358
end
