version 1
nodes
  0 "ValveBiped.Bip01_Pelvis"  -1
  1 "ValveBiped.Bip01_L_Thigh"   0
  2 "ValveBiped.Bip01_L_Calf"   1
  3 "ValveBiped.Bip01_L_Foot"   2
  4 "ValveBiped.Bip01_L_Toe0"   3
  5 "ValveBiped.Bip01_R_Thigh"   0
  6 "ValveBiped.Bip01_R_Calf"   5
  7 "ValveBiped.Bip01_R_Foot"   6
  8 "ValveBiped.Bip01_R_Toe0"   7
  9 "ValveBiped.Bip01_Spine"   0
 10 "ValveBiped.Bip01_Spine1"   9
 11 "ValveBiped.Bip01_Spine2"  10
 12 "ValveBiped.Bip01_Spine4"  11
 13 "ValveBiped.Bip01_Neck1"  12
 14 "ValveBiped.Bip01_Head1"  13
 15 "ValveBiped.Bip01_L_Clavicle"  12
 16 "ValveBiped.Bip01_L_UpperArm"  15
 17 "ValveBiped.Bip01_L_Forearm"  16
 18 "ValveBiped.Bip01_L_Hand"  17
 19 "ValveBiped.Bip01_L_Finger4"  18
 20 "ValveBiped.Bip01_L_Finger41"  19
 21 "ValveBiped.Bip01_L_Finger42"  20
 22 "ValveBiped.Bip01_L_Finger3"  18
 23 "ValveBiped.Bip01_L_Finger31"  22
 24 "ValveBiped.Bip01_L_Finger32"  23
 25 "ValveBiped.Bip01_L_Finger2"  18
 26 "ValveBiped.Bip01_L_Finger21"  25
 27 "ValveBiped.Bip01_L_Finger22"  26
 28 "ValveBiped.Bip01_L_Finger1"  18
 29 "ValveBiped.Bip01_L_Finger11"  28
 30 "ValveBiped.Bip01_L_Finger12"  29
 31 "ValveBiped.Bip01_L_Finger0"  18
 32 "ValveBiped.Bip01_L_Finger01"  31
 33 "ValveBiped.Bip01_L_Finger02"  32
 34 "ValveBiped.Bip01_R_Clavicle"  12
 35 "ValveBiped.Bip01_R_UpperArm"  34
 36 "ValveBiped.Bip01_R_Forearm"  35
 37 "ValveBiped.Bip01_R_Hand"  36
 38 "ValveBiped.Bip01_R_Finger4"  37
 39 "ValveBiped.Bip01_R_Finger41"  38
 40 "ValveBiped.Bip01_R_Finger42"  39
 41 "ValveBiped.Bip01_R_Finger3"  37
 42 "ValveBiped.Bip01_R_Finger31"  41
 43 "ValveBiped.Bip01_R_Finger32"  42
 44 "ValveBiped.Bip01_R_Finger2"  37
 45 "ValveBiped.Bip01_R_Finger21"  44
 46 "ValveBiped.Bip01_R_Finger22"  45
 47 "ValveBiped.Bip01_R_Finger1"  37
 48 "ValveBiped.Bip01_R_Finger11"  47
 49 "ValveBiped.Bip01_R_Finger12"  48
 50 "ValveBiped.Bip01_R_Finger0"  37
 51 "ValveBiped.Bip01_R_Finger01"  50
 52 "ValveBiped.Bip01_R_Finger02"  51
end
skeleton
time 0
  0 0.079292 0.569489 35.277756 1.774190 0.208726 -0.044149
  1 3.890450 0.000000 0.000008 -2.575887 -0.870514 -0.549217
  2 17.848175 0.000004 0.000001 0.000000 0.000000 1.991752
  3 16.525255 -0.000007 0.000002 0.001530 -0.123025 -1.065301
  4 6.879455 -0.000007 0.000004 -0.007299 -0.002951 -0.584373
  5 -3.890450 0.000004 0.000000 -1.640902 -0.440503 -1.456224
  6 17.848181 0.000001 -0.000007 -0.000000 0.000000 0.870897
  7 16.525263 0.000004 0.000000 -0.000547 -0.157254 -1.419402
  8 6.879458 0.000001 -0.000001 -0.081334 -0.002949 -0.584373
  9 0.000007 3.345142 -2.981888 -1.561588 2.976460 -1.411553
 10 3.998795 0.000000 0.000000 0.128199 0.125898 0.093401
 11 3.520302 0.000000 0.000008 0.124269 -0.006747 0.096782
 12 8.923111 0.000000 -0.000015 0.121392 -0.031543 0.281164
 13 3.306362 -0.000002 0.000000 3.083299 -0.074868 0.774248
 14 3.601538 0.000000 -0.000004 -0.352977 -0.075354 0.716043
 15 2.056786 0.981230 1.937660 -1.289072 -2.088377 -0.491907
 16 6.028137 0.000000 -0.000010 -1.114990 0.889070 -0.428569
 17 11.692557 -0.000004 0.000000 0.000000 -0.000000 -1.532809
 18 11.481663 0.000005 -0.000044 1.575617 -0.038497 -0.154178
 19 3.851891 0.123228 -1.223230 -0.469917 0.161694 -0.812367
 20 1.312569 0.000001 0.000007 -0.000000 0.004679 -0.439781
 21 0.729355 -0.000004 0.000007 0.000000 0.002406 -0.244325
 22 3.926704 0.316313 -0.458787 -0.150484 0.082976 -0.742886
 23 1.539101 -0.000016 0.000000 0.000000 0.002914 -0.247798
 24 1.196320 0.000000 -0.000001 0.000000 0.004796 -0.430833
 25 3.883690 0.211050 0.404090 0.087700 0.031633 -0.519958
 26 1.719585 -0.000008 -0.000005 -0.000000 0.005013 -0.366479
 27 1.209175 -0.000001 -0.000008 0.000000 0.002808 -0.216399
 28 3.867668 0.115957 1.301211 0.352472 -0.032983 -0.463854
 29 1.719425 -0.000001 0.000000 -0.000000 0.005105 -0.363009
 30 1.099651 -0.000009 0.000000 0.000000 0.003243 -0.244330
 31 0.837299 -0.302040 1.313438 -1.251008 -0.669804 -0.720185
 32 1.789787 -0.000002 -0.000000 -0.000000 -0.002153 0.228622
 33 1.207001 0.000000 0.000016 -0.000000 -0.003294 0.363002
 34 2.056793 0.981237 -1.937599 1.096605 2.132929 -0.635858
 35 6.028147 -0.000008 -0.000009 1.805830 0.060770 -0.419640
 36 11.692566 0.000009 0.000013 -0.000000 -0.000000 -1.655706
 37 11.481695 -0.000004 0.000002 -1.555311 0.037092 0.159990
 38 3.851848 0.133059 1.220463 0.469816 -0.167713 -0.811412
 39 1.312568 -0.000002 -0.000008 0.000000 -0.007097 -0.439763
 40 0.729362 0.000000 0.000000 0.000000 -0.003653 -0.244305
 41 3.926657 0.319868 0.458385 0.150457 -0.088581 -0.742367
 42 1.539099 0.000004 0.000000 0.000000 -0.004404 -0.247771
 43 1.196329 -0.000002 0.000004 0.000000 -0.007266 -0.430795
 44 3.883650 0.207491 -0.403702 -0.087715 -0.035752 -0.519729
 45 1.719566 0.000000 -0.000002 -0.000000 -0.007590 -0.366435
 46 1.209168 -0.000010 0.000000 0.000000 -0.004245 -0.216376
 47 3.867643 0.104979 -1.303936 -0.352490 0.029267 -0.464081
 48 1.719435 0.000008 -0.000002 -0.000000 -0.007728 -0.362970
 49 1.099655 0.000000 -0.000002 0.000000 -0.004918 -0.244312
 50 0.837265 -0.312952 -1.310516 1.248005 0.664326 -0.725045
 51 1.789787 0.000000 0.000008 -0.000000 0.003275 0.228615
 52 1.207000 0.000000 0.000008 -0.000000 0.005003 0.362980
time 1
  0 5.026638 -4.442560 36.078560 1.754463 0.184639 -0.075671
  1 3.890457 0.000000 0.000001 -2.594972 -0.838376 -0.493927
  2 17.848181 0.000000 -0.000005 0.000000 0.000000 1.703287
  3 16.525261 0.000008 0.000004 0.024473 -0.137638 -1.155581
  4 6.879456 -0.000002 0.000009 -0.007299 -0.002951 -0.584373
  5 -3.890441 0.000000 0.000000 1.486331 -2.858738 1.520279
  6 17.848179 0.000000 -0.000006 -0.000000 -0.000000 0.764152
  7 16.525246 0.000000 -0.000006 0.004366 -0.150989 -1.223048
  8 6.879454 0.000006 0.000000 -0.081334 -0.002949 -0.584373
  9 0.000015 3.345131 -2.981902 -1.559109 2.975866 -1.435666
 10 3.998806 0.000008 0.000008 0.121632 0.121823 0.123036
 11 3.520306 -0.000000 0.000000 0.131524 -0.008018 0.096723
 12 8.923115 -0.000001 -0.000008 0.126713 -0.032910 0.280984
 13 3.306355 -0.000008 0.000000 3.103432 -0.049017 0.749996
 14 3.601532 0.000004 -0.000004 -0.336722 -0.056064 0.691528
 15 2.056782 0.981234 1.937660 -1.239848 -1.999133 -0.532147
 16 6.028134 -0.000008 -0.000015 -1.120725 1.064406 -0.473420
 17 11.692549 -0.000008 -0.000002 -0.000000 -0.000000 -1.412846
 18 11.481670 -0.000006 -0.000034 1.575064 -0.038572 -0.140009
 19 3.851891 0.123230 -1.223222 -0.469917 0.161694 -0.812367
 20 1.312565 -0.000004 0.000008 0.000000 0.004679 -0.439781
 21 0.729355 0.000004 -0.000001 0.000000 0.002406 -0.244325
 22 3.926697 0.316324 -0.458787 -0.150484 0.082976 -0.742886
 23 1.539089 -0.000009 -0.000008 0.000000 0.002914 -0.247798
 24 1.196327 0.000003 0.000000 0.000000 0.004796 -0.430833
 25 3.883686 0.211052 0.404101 0.087700 0.031633 -0.519958
 26 1.719578 -0.000008 -0.000004 0.000000 0.005013 -0.366479
 27 1.209187 -0.000009 0.000009 0.000000 0.002808 -0.216399
 28 3.867670 0.115967 1.301223 0.352472 -0.032983 -0.463854
 29 1.719429 -0.000015 -0.000001 0.000000 0.005105 -0.363009
 30 1.099663 0.000008 0.000001 0.000000 0.003243 -0.244330
 31 0.837292 -0.302048 1.313446 -1.251008 -0.669804 -0.720185
 32 1.789787 -0.000006 -0.000002 0.000000 -0.002153 0.228622
 33 1.207001 -0.000006 -0.000007 0.000000 -0.003294 0.363002
 34 2.056786 0.981239 -1.937607 0.983385 2.060806 -0.739923
 35 6.028131 0.000004 -0.000001 1.844246 0.236293 -0.398390
 36 11.692558 0.000000 0.000011 0.000000 0.000000 -1.821564
 37 11.481689 0.000002 -0.000002 -1.555455 0.037144 0.156202
 38 3.851852 0.133066 1.220455 0.469816 -0.167713 -0.811412
 39 1.312568 0.000010 -0.000008 0.000000 -0.007097 -0.439763
 40 0.729362 0.000006 0.000008 0.000000 -0.003653 -0.244305
 41 3.926666 0.319868 0.458382 0.150457 -0.088581 -0.742367
 42 1.539099 -0.000008 0.000000 -0.000000 -0.004404 -0.247771
 43 1.196326 0.000000 -0.000004 -0.000000 -0.007266 -0.430795
 44 3.883648 0.207489 -0.403706 -0.087715 -0.035752 -0.519729
 45 1.719559 -0.000004 0.000002 0.000000 -0.007590 -0.366435
 46 1.209184 0.000008 -0.000002 -0.000000 -0.004245 -0.216376
 47 3.867641 0.104982 -1.303936 -0.352490 0.029267 -0.464081
 48 1.719421 0.000004 -0.000006 -0.000000 -0.007728 -0.362970
 49 1.099655 0.000000 0.000000 0.000000 -0.004918 -0.244312
 50 0.837261 -0.312952 -1.310520 1.248005 0.664326 -0.725045
 51 1.789780 0.000000 -0.000004 0.000000 0.003275 0.228615
 52 1.206999 -0.000002 0.000000 0.000000 0.005003 0.362980
time 2
  0 9.974733 -9.454673 37.109840 1.764415 0.130534 -0.087295
  1 3.890443 0.000004 0.000008 -2.500234 -0.768713 -0.670594
  2 17.848167 -0.000008 -0.000015 -0.000000 0.000000 1.276948
  3 16.525255 0.000000 0.000002 0.078504 -0.151826 -1.249786
  4 6.879448 -0.000002 -0.000007 -0.007299 -0.002951 -0.584373
  5 -3.890456 0.000008 -0.000001 1.513783 -2.997334 1.339884
  6 17.848175 0.000001 -0.000005 -0.000000 -0.000000 0.594176
  7 16.525257 -0.000004 0.000002 -0.047804 -0.134598 -0.903376
  8 6.879459 0.000001 -0.000007 -0.081334 -0.002949 -0.584373
  9 -0.000008 3.345139 -2.981904 -1.565332 2.974902 -1.490504
 10 3.998795 -0.000000 0.000001 0.099700 0.109527 0.137962
 11 3.520298 0.000000 0.000001 0.124787 -0.008533 0.096782
 12 8.923100 -0.000008 -0.000006 0.121859 -0.031663 0.281140
 13 3.306362 0.000010 0.000000 3.127209 -0.018564 0.682591
 14 3.601532 0.000008 0.000001 -0.282184 -0.030268 0.620491
 15 2.056793 0.981247 1.937660 -1.128665 -1.898071 -0.635239
 16 6.028138 -0.000008 -0.000011 -1.261230 1.176281 -0.669735
 17 11.692569 0.000004 0.000000 0.000000 0.000000 -1.325764
 18 11.481663 0.000008 -0.000046 1.573958 -0.038683 -0.111275
 19 3.851889 0.123222 -1.223213 -0.469917 0.161694 -0.812367
 20 1.312557 0.000004 -0.000001 0.000000 0.004679 -0.439781
 21 0.729370 -0.000004 0.000000 -0.000000 0.002406 -0.244325
 22 3.926695 0.316307 -0.458785 -0.150484 0.082976 -0.742886
 23 1.539101 -0.000001 0.000001 -0.000000 0.002914 -0.247798
 24 1.196335 0.000006 0.000001 0.000000 0.004796 -0.430833
 25 3.883690 0.211044 0.404106 0.087700 0.031633 -0.519958
 26 1.719574 -0.000004 0.000000 0.000000 0.005013 -0.366479
 27 1.209179 -0.000010 0.000004 -0.000000 0.002808 -0.216399
 28 3.867672 0.115967 1.301214 0.352472 -0.032983 -0.463854
 29 1.719425 0.000010 -0.000002 0.000000 0.005105 -0.363009
 30 1.099659 0.000008 -0.000004 -0.000000 0.003243 -0.244330
 31 0.837296 -0.302048 1.313455 -1.251008 -0.669804 -0.720185
 32 1.789787 -0.000002 0.000000 0.000000 -0.002153 0.228622
 33 1.206997 -0.000001 0.000002 0.000000 -0.003294 0.363002
 34 2.056793 0.981247 -1.937616 0.815064 1.979849 -0.895424
 35 6.028147 -0.000004 -0.000009 1.883903 0.334246 -0.438653
 36 11.692554 0.000000 0.000008 0.000000 -0.000000 -1.993377
 37 11.481689 -0.000002 -0.000006 -1.555838 0.037298 0.146458
 38 3.851852 0.133064 1.220448 0.469816 -0.167713 -0.811412
 39 1.312570 0.000000 -0.000004 0.000000 -0.007097 -0.439763
 40 0.729362 0.000000 0.000008 -0.000000 -0.003653 -0.244305
 41 3.926670 0.319868 0.458378 0.150457 -0.088581 -0.742367
 42 1.539101 0.000008 0.000000 0.000000 -0.004404 -0.247771
 43 1.196328 -0.000008 0.000000 -0.000000 -0.007266 -0.430795
 44 3.883652 0.207493 -0.403700 -0.087715 -0.035752 -0.519729
 45 1.719589 -0.000004 0.000004 0.000000 -0.007590 -0.366435
 46 1.209168 0.000004 -0.000002 0.000000 -0.004245 -0.216376
 47 3.867649 0.104984 -1.303942 -0.352490 0.029267 -0.464081
 48 1.719421 -0.000004 0.000004 0.000000 -0.007728 -0.362970
 49 1.099663 0.000000 0.000000 -0.000000 -0.004918 -0.244312
 50 0.837265 -0.312950 -1.310520 1.248005 0.664326 -0.725045
 51 1.789778 0.000002 0.000000 -0.000000 0.003275 0.228615
 52 1.207001 0.000000 0.000004 0.000000 0.005003 0.362980
time 3
  0 14.923742 -14.466866 37.609856 1.792033 0.070833 -0.074913
  1 3.890443 0.000004 0.000008 -2.425727 -0.737338 -0.837315
  2 17.848164 -0.000004 -0.000001 -0.000000 0.000000 0.941844
  3 16.525255 -0.000017 -0.000003 0.132806 -0.152816 -1.254704
  4 6.879448 0.000000 -0.000011 -0.007299 -0.002951 -0.584373
  5 -3.890450 0.000004 0.000008 1.558803 -3.129979 1.182562
  6 17.848175 0.000007 0.000005 -0.000000 0.000000 0.414539
  7 16.525246 0.000007 -0.000000 -0.167047 -0.144555 -0.611329
  8 6.879459 -0.000001 0.000000 -0.081334 -0.002949 -0.584373
  9 -0.000009 3.345139 -2.981894 1.563813 0.167189 1.590235
 10 3.998806 0.000001 -0.000010 0.059228 0.089213 0.130474
 11 3.520298 0.000000 -0.000008 0.102665 -0.005597 0.096956
 12 8.923107 -0.000005 0.000002 0.105680 -0.027469 0.281619
 13 3.306366 0.000004 -0.000010 3.132482 -0.011805 0.595759
 14 3.601517 0.000000 0.000000 -0.197610 -0.002231 0.528413
 15 2.056793 0.981243 1.937660 -1.021886 -1.847226 -0.738330
 16 6.028137 -0.000008 0.000000 -1.567283 1.223831 -0.990978
 17 11.692572 0.000004 0.000011 0.000000 0.000000 -1.271113
 18 11.481674 0.000002 -0.000027 1.568373 -0.038720 0.033970
 19 3.851891 0.123234 -1.223236 -0.469917 0.161694 -0.812367
 20 1.312561 0.000000 0.000006 0.000000 0.004679 -0.439781
 21 0.729362 -0.000002 -0.000001 -0.000000 0.002406 -0.244325
 22 3.926701 0.316307 -0.458793 -0.150484 0.082976 -0.742886
 23 1.539101 0.000008 -0.000002 0.000000 0.002914 -0.247798
 24 1.196323 -0.000002 -0.000002 0.000000 0.004796 -0.430833
 25 3.883688 0.211044 0.404101 0.087700 0.031633 -0.519958
 26 1.719570 0.000000 0.000006 0.000000 0.005013 -0.366479
 27 1.209175 0.000010 0.000008 0.000000 0.002808 -0.216399
 28 3.867676 0.115971 1.301214 0.352472 -0.032983 -0.463854
 29 1.719429 -0.000010 -0.000006 -0.000000 0.005105 -0.363009
 30 1.099667 -0.000002 0.000008 -0.000000 0.003243 -0.244330
 31 0.837299 -0.302055 1.313447 -1.251008 -0.669804 -0.720185
 32 1.789791 -0.000002 0.000000 0.000000 -0.002153 0.228622
 33 1.207001 -0.000000 -0.000002 0.000000 -0.003294 0.363002
 34 2.056793 0.981247 -1.937614 0.700842 1.938310 -1.001961
 35 6.028135 0.000000 -0.000004 1.881952 0.338733 -0.420199
 36 11.692551 -0.000006 0.000008 0.000000 0.000000 -2.144421
 37 11.481689 0.000006 -0.000011 -1.556652 0.037606 0.123925
 38 3.851868 0.133066 1.220453 0.469816 -0.167713 -0.811412
 39 1.312562 0.000000 0.000008 0.000000 -0.007097 -0.439763
 40 0.729365 0.000019 -0.000004 -0.000000 -0.003653 -0.244305
 41 3.926682 0.319874 0.458378 0.150457 -0.088581 -0.742367
 42 1.539112 0.000004 0.000000 0.000000 -0.004404 -0.247771
 43 1.196317 0.000000 -0.000008 -0.000000 -0.007266 -0.430795
 44 3.883682 0.207497 -0.403700 -0.087715 -0.035752 -0.519729
 45 1.719576 -0.000008 -0.000004 -0.000000 -0.007590 -0.366435
 46 1.209176 0.000004 0.000000 0.000000 -0.004245 -0.216376
 47 3.867661 0.104980 -1.303942 -0.352490 0.029267 -0.464081
 48 1.719433 0.000004 0.000006 -0.000000 -0.007728 -0.362970
 49 1.099662 0.000000 -0.000008 0.000000 -0.004918 -0.244312
 50 0.837276 -0.312948 -1.310522 1.248005 0.664326 -0.725045
 51 1.789787 0.000006 -0.000004 -0.000000 0.003275 0.228615
 52 1.207008 0.000000 -0.000004 0.000000 0.005003 0.362980
time 4
  0 19.873905 -19.479153 37.578606 1.823596 0.042153 -0.043328
  1 3.890450 0.000008 0.000000 -2.342592 -0.711484 -0.972955
  2 17.848167 0.000008 0.000006 -0.000000 0.000000 0.616809
  3 16.525265 0.000000 -0.000004 0.184065 -0.139584 -1.223681
  4 6.879459 0.000001 0.000000 -0.007299 -0.002951 -0.584373
  5 -3.890451 0.000004 0.000000 -1.540304 -0.029021 -2.041692
  6 17.848179 0.000000 0.000005 0.000000 0.000000 0.537410
  7 16.525253 -0.000003 0.000010 -0.302466 -0.121116 -0.494349
  8 6.879457 0.000000 -0.000003 -0.081334 -0.002949 -0.584373
  9 0.000000 3.345139 -2.981888 1.552631 0.167205 1.561051
 10 3.998802 -0.000001 -0.000002 -0.000084 0.061517 0.108941
 11 3.520294 0.000010 -0.000010 0.061790 -0.001834 0.097189
 12 8.923115 0.000011 -0.000010 0.075886 -0.019751 0.282327
 13 3.306366 -0.000002 -0.000002 3.130373 -0.014489 0.529198
 14 3.601521 -0.000008 0.000004 -0.092107 0.028384 0.457795
 15 2.056793 0.981234 1.937660 -0.983484 -1.847579 -0.777326
 16 6.028139 -0.000015 -0.000004 -1.775173 1.183054 -1.220371
 17 11.692554 -0.000004 -0.000008 -0.000000 0.000000 -1.248892
 18 11.481674 0.000004 -0.000038 1.563893 -0.038200 0.151163
 19 3.851902 0.123222 -1.223222 -0.469917 0.161694 -0.812367
 20 1.312561 -0.000008 0.000014 -0.000000 0.004679 -0.439781
 21 0.729355 0.000002 -0.000012 -0.000000 0.002406 -0.244325
 22 3.926701 0.316307 -0.458788 -0.150484 0.082976 -0.742886
 23 1.539101 0.000000 0.000004 -0.000000 0.002914 -0.247798
 24 1.196323 -0.000006 0.000000 -0.000000 0.004796 -0.430833
 25 3.883690 0.211052 0.404096 0.087700 0.031633 -0.519958
 26 1.719574 -0.000004 0.000009 0.000000 0.005013 -0.366479
 27 1.209183 0.000004 -0.000004 -0.000000 0.002808 -0.216399
 28 3.867680 0.115963 1.301210 0.352472 -0.032983 -0.463854
 29 1.719421 -0.000004 0.000004 -0.000000 0.005105 -0.363009
 30 1.099655 -0.000011 -0.000006 0.000000 0.003255 -0.244330
 31 0.837297 -0.302044 1.313445 -1.251008 -0.669804 -0.720185
 32 1.789791 0.000002 -0.000008 0.000000 -0.002153 0.228622
 33 1.207001 0.000001 -0.000008 -0.000000 -0.003294 0.363002
 34 2.056801 0.981239 -1.937609 0.702301 1.928769 -0.998940
 35 6.028139 0.000008 -0.000008 1.821001 0.297299 -0.439585
 36 11.692558 0.000004 0.000000 0.000000 0.000000 -2.201063
 37 11.481697 -0.000006 0.000000 -1.563596 0.039535 -0.055081
 38 3.851868 0.133072 1.220457 0.469816 -0.167713 -0.811412
 39 1.312561 0.000000 0.000004 0.000000 -0.007097 -0.439763
 40 0.729364 0.000015 -0.000004 0.000000 -0.003653 -0.244305
 41 3.926682 0.319862 0.458397 0.150457 -0.088581 -0.742367
 42 1.539093 -0.000008 0.000006 0.000000 -0.004404 -0.247771
 43 1.196319 0.000008 -0.000004 0.000000 -0.007266 -0.430795
 44 3.883667 0.207499 -0.403692 -0.087715 -0.035752 -0.519729
 45 1.719570 0.000000 -0.000006 0.000000 -0.007590 -0.366435
 46 1.209167 -0.000008 0.000002 -0.000000 -0.004245 -0.216376
 47 3.867645 0.104977 -1.303934 -0.352490 0.029267 -0.464081
 48 1.719418 0.000008 0.000002 0.000000 -0.007728 -0.362970
 49 1.099663 0.000000 -0.000003 -0.000000 -0.004918 -0.244312
 50 0.837265 -0.312954 -1.310522 1.248005 0.664326 -0.725045
 51 1.789789 0.000004 0.000000 0.000000 0.003275 0.228615
 52 1.207008 -0.000008 -0.000004 -0.000000 0.005003 0.362980
time 5
  0 24.825583 -24.491566 36.977024 1.847033 0.036192 0.001902
  1 3.890450 0.000000 0.000016 -2.258848 -0.693306 -1.069795
  2 17.848177 -0.000004 0.000000 0.000000 -0.000000 0.378163
  3 16.525259 0.000000 0.000004 0.212160 -0.115436 -1.198663
  4 6.879440 0.000001 -0.000001 -0.007299 -0.002951 -0.584373
  5 -3.890442 -0.000004 0.000008 -1.500943 -0.193374 -2.075876
  6 17.848179 0.000000 -0.000003 -0.000000 0.000000 0.985785
  7 16.525265 0.000006 -0.000001 -0.445758 -0.095737 -0.564262
  8 6.879463 0.000006 0.000001 -0.081334 -0.002949 -0.584373
  9 0.000000 3.345131 -2.981888 1.542561 0.167205 1.554936
 10 3.998802 0.000000 0.000008 -0.070362 0.027744 0.080982
 11 3.520298 -0.000007 -0.000002 0.001857 0.002649 0.097321
 12 8.923107 -0.000011 0.000008 0.032251 -0.008401 0.282938
 13 3.306347 0.000006 0.000010 3.130181 -0.014717 0.506185
 14 3.601536 0.000008 0.000000 0.025842 0.058032 0.433794
 15 2.056786 0.981230 1.937662 -1.024281 -1.894341 -0.742258
 16 6.028147 0.000000 0.000006 -1.848867 1.046086 -1.265502
 17 11.692554 -0.000004 0.000000 0.000000 -0.000000 -1.260152
 18 11.481678 0.000002 -0.000038 1.562843 -0.037977 0.178569
 19 3.851896 0.123230 -1.223228 -0.469917 0.161694 -0.812367
 20 1.312550 -0.000008 0.000008 0.000000 0.004679 -0.439781
 21 0.729370 0.000003 0.000000 -0.000000 0.002406 -0.244325
 22 3.926704 0.316322 -0.458785 -0.150484 0.082976 -0.742886
 23 1.539101 -0.000004 0.000001 -0.000000 0.002914 -0.247798
 24 1.196320 -0.000006 -0.000005 0.000000 0.004796 -0.430833
 25 3.883694 0.211052 0.404096 0.087700 0.031633 -0.519958
 26 1.719578 -0.000008 0.000009 0.000000 0.005013 -0.366479
 27 1.209175 0.000011 0.000008 -0.000000 0.002808 -0.216399
 28 3.867672 0.115967 1.301222 0.352472 -0.032983 -0.463854
 29 1.719433 0.000008 -0.000004 -0.000000 0.005105 -0.363009
 30 1.099663 -0.000004 0.000006 0.000000 0.003255 -0.244330
 31 0.837299 -0.302044 1.313449 -1.251008 -0.669804 -0.720185
 32 1.789780 0.000000 0.000000 -0.000000 -0.002153 0.228622
 33 1.207005 0.000010 0.000004 0.000000 -0.003294 0.363002
 34 2.056793 0.981230 -1.937609 0.822727 1.948754 -0.881787
 35 6.028160 0.000004 0.000006 1.657578 0.214239 -0.533441
 36 11.692554 0.000000 -0.000002 -0.000000 -0.000000 -2.124379
 37 11.481712 0.000010 0.000004 -1.568050 0.040101 -0.168901
 38 3.851875 0.133059 1.220455 0.469816 -0.167713 -0.811412
 39 1.312559 -0.000004 0.000000 0.000000 -0.007097 -0.439763
 40 0.729370 -0.000004 0.000004 0.000000 -0.003653 -0.244305
 41 3.926682 0.319860 0.458389 0.150457 -0.088581 -0.742367
 42 1.539101 0.000000 0.000000 0.000000 -0.004404 -0.247771
 43 1.196328 0.000000 -0.000008 -0.000000 -0.007266 -0.430795
 44 3.883675 0.207495 -0.403700 -0.087715 -0.035752 -0.519729
 45 1.719582 0.000000 -0.000004 0.000000 -0.007590 -0.366435
 46 1.209164 0.000000 -0.000002 0.000000 -0.004245 -0.216376
 47 3.867668 0.104975 -1.303936 -0.352490 0.029267 -0.464081
 48 1.719440 0.000000 0.000006 0.000000 -0.007728 -0.362970
 49 1.099667 0.000008 0.000002 0.000000 -0.004918 -0.244312
 50 0.837265 -0.312960 -1.310518 1.248005 0.664326 -0.725045
 51 1.789797 0.000006 0.000000 0.000000 0.003275 0.228615
 52 1.207001 -0.000002 0.000000 -0.000000 0.005003 0.362980
time 6
  0 29.779387 -29.504133 35.812927 1.855866 0.026247 0.055660
  1 3.890444 0.000008 0.000000 -2.223808 -0.768220 -1.080068
  2 17.848181 -0.000015 0.000000 -0.000000 -0.000000 0.512401
  3 16.525253 -0.000008 -0.000002 0.187156 -0.088847 -1.315143
  4 6.879459 -0.000003 -0.000006 -0.007299 -0.002951 -0.584373
  5 -3.890450 0.000000 0.000000 -1.454319 -0.345826 -2.093278
  6 17.848177 -0.000004 -0.000001 0.000000 0.000000 1.392723
  7 16.525251 0.000004 0.000003 -0.538505 -0.057361 -0.696521
  8 6.879457 -0.000009 0.000008 -0.081334 -0.002949 -0.584373
  9 0.000002 3.345131 -2.981901 1.530114 0.167157 1.544893
 10 3.998798 -0.000008 -0.000002 -0.135258 -0.010211 0.059648
 11 3.520290 0.000008 -0.000010 -0.069204 0.007227 0.097146
 12 8.923115 -0.000011 0.000002 -0.019427 0.005057 0.283034
 13 3.306347 -0.000004 0.000004 -3.131145 0.013483 0.547729
 14 3.601532 0.000000 0.000010 0.146853 0.082125 0.478160
 15 2.056782 0.981230 1.937664 -1.101277 -1.983192 -0.677011
 16 6.028141 0.000015 0.000004 -1.813788 0.829336 -1.087501
 17 11.692554 -0.000002 0.000000 -0.000000 0.000000 -1.306396
 18 11.481670 0.000002 -0.000027 1.562290 -0.037866 0.192810
 19 3.851892 0.123230 -1.223234 -0.469917 0.161694 -0.812367
 20 1.312561 0.000000 0.000000 0.000000 0.004679 -0.439781
 21 0.729362 0.000000 0.000000 0.000000 0.002406 -0.244325
 22 3.926704 0.316315 -0.458791 -0.150484 0.082976 -0.742886
 23 1.539097 -0.000004 0.000009 -0.000000 0.002914 -0.247798
 24 1.196316 0.000006 -0.000001 -0.000000 0.004796 -0.430833
 25 3.883696 0.211044 0.404098 0.087700 0.031633 -0.519958
 26 1.719582 -0.000008 0.000003 -0.000000 0.005013 -0.366479
 27 1.209175 -0.000004 0.000010 -0.000000 0.002808 -0.216399
 28 3.867672 0.115952 1.301208 0.352472 -0.032983 -0.463854
 29 1.719429 0.000008 -0.000008 0.000000 0.005105 -0.363009
 30 1.099659 0.000000 -0.000004 0.000000 0.003243 -0.244330
 31 0.837301 -0.302052 1.313440 -1.251008 -0.669804 -0.720185
 32 1.789780 0.000000 0.000000 -0.000000 -0.002153 0.228622
 33 1.206997 -0.000008 0.000000 0.000000 -0.003294 0.363002
 34 2.056789 0.981236 -1.937599 1.007744 2.005761 -0.702672
 35 6.028145 -0.000004 -0.000002 1.442343 0.037475 -0.597844
 36 11.692566 -0.000010 0.000004 -0.000000 0.000000 -1.973770
 37 11.481705 0.000004 -0.000008 -1.569055 0.040152 -0.193356
 38 3.851852 0.133064 1.220451 0.469816 -0.167713 -0.811412
 39 1.312563 0.000002 0.000000 0.000000 -0.007097 -0.439763
 40 0.729364 0.000000 0.000004 0.000000 -0.003653 -0.244305
 41 3.926666 0.319870 0.458389 0.150457 -0.088581 -0.742367
 42 1.539093 -0.000011 0.000004 -0.000000 -0.004404 -0.247771
 43 1.196327 0.000004 0.000000 0.000000 -0.007266 -0.430795
 44 3.883667 0.207500 -0.403702 -0.087715 -0.035752 -0.519729
 45 1.719578 0.000000 0.000000 0.000000 -0.007590 -0.366435
 46 1.209169 -0.000008 -0.000011 0.000000 -0.004245 -0.216376
 47 3.867645 0.104979 -1.303936 -0.352490 0.029267 -0.464081
 48 1.719437 0.000000 -0.000004 -0.000000 -0.007728 -0.362970
 49 1.099659 0.000000 0.000002 -0.000000 -0.004918 -0.244312
 50 0.837269 -0.312954 -1.310520 1.248005 0.664326 -0.725045
 51 1.789783 0.000000 -0.000008 -0.000000 0.003275 0.228615
 52 1.207008 0.000006 0.000004 -0.000000 0.005003 0.362980
time 7
  0 34.736515 -34.516941 35.101967 1.838317 -0.023540 0.112704
  1 3.890440 0.000000 0.000004 -2.173881 -0.794702 -1.201902
  2 17.848167 0.000000 0.000000 0.000000 0.000000 0.846824
  3 16.525265 -0.000015 -0.000002 0.104440 -0.004693 -1.443634
  4 6.879459 0.000000 0.000002 -0.007299 -0.002951 -0.584373
  5 -3.890457 0.000004 0.000008 -1.396291 -0.508846 -2.102679
  6 17.848175 0.000015 -0.000002 -0.000000 0.000000 1.732436
  7 16.525278 0.000004 -0.000003 -0.548022 -0.002818 -0.834503
  8 6.879456 0.000002 0.000004 -0.081334 -0.002949 -0.584373
  9 -0.000004 3.345135 -2.981892 1.510228 0.166739 1.494182
 10 3.998798 -0.000002 0.000008 -0.181483 -0.058581 0.052376
 11 3.520302 0.000006 0.000004 -0.135065 0.010870 0.096694
 12 8.923111 0.000002 -0.000015 -0.067305 0.017521 0.282482
 13 3.306358 -0.000008 0.000008 -3.100177 0.053188 0.640177
 14 3.601528 0.000000 0.000004 0.259187 0.095920 0.575610
 15 2.056778 0.981236 1.937656 -1.162469 -2.085196 -0.631790
 16 6.028145 -0.000008 -0.000004 -1.747263 0.583720 -0.766071
 17 11.692553 0.000000 0.000000 0.000000 0.000000 -1.389725
 18 11.481667 0.000006 -0.000031 1.562013 -0.037791 0.201240
 19 3.851892 0.123230 -1.223236 -0.469917 0.161694 -0.812367
 20 1.312565 0.000004 0.000000 0.000000 0.004679 -0.439781
 21 0.729370 0.000002 0.000008 -0.000000 0.002406 -0.244325
 22 3.926699 0.316315 -0.458792 -0.150484 0.082976 -0.742886
 23 1.539104 -0.000004 -0.000011 0.000000 0.002914 -0.247798
 24 1.196320 -0.000002 0.000000 0.000000 0.004796 -0.430833
 25 3.883688 0.211044 0.404099 0.087700 0.031633 -0.519958
 26 1.719574 -0.000015 -0.000004 0.000000 0.005013 -0.366479
 27 1.209183 0.000015 0.000008 0.000000 0.002808 -0.216399
 28 3.867672 0.115967 1.301212 0.352472 -0.032983 -0.463854
 29 1.719431 0.000004 0.000003 0.000000 0.005105 -0.363009
 30 1.099655 0.000000 -0.000002 0.000000 0.003243 -0.244330
 31 0.837296 -0.302048 1.313448 -1.251008 -0.669804 -0.720185
 32 1.789776 0.000004 0.000015 -0.000000 -0.002153 0.228622
 33 1.207006 -0.000008 0.000000 -0.000000 -0.003294 0.363002
 34 2.056793 0.981234 -1.937595 1.164390 2.083381 -0.550189
 35 6.028133 0.000000 -0.000008 1.245650 -0.238723 -0.559258
 36 11.692551 0.000000 0.000004 0.000000 0.000000 -1.822871
 37 11.481697 0.000008 -0.000006 -1.569486 0.040178 -0.203758
 38 3.851868 0.133070 1.220448 0.469816 -0.167713 -0.811412
 39 1.312565 -0.000007 0.000000 0.000000 -0.007097 -0.439763
 40 0.729362 0.000008 0.000008 0.000000 -0.003653 -0.244305
 41 3.926666 0.319864 0.458374 0.150457 -0.088581 -0.742367
 42 1.539093 0.000004 0.000004 0.000000 -0.004404 -0.247771
 43 1.196318 0.000004 0.000000 -0.000000 -0.007266 -0.430795
 44 3.883652 0.207494 -0.403698 -0.087715 -0.035752 -0.519729
 45 1.719576 0.000004 -0.000004 0.000000 -0.007590 -0.366435
 46 1.209181 0.000008 0.000000 -0.000000 -0.004245 -0.216376
 47 3.867645 0.104977 -1.303936 -0.352490 0.029267 -0.464081
 48 1.719429 0.000004 0.000000 0.000000 -0.007728 -0.362970
 49 1.099672 0.000004 -0.000004 0.000000 -0.004918 -0.244312
 50 0.837271 -0.312956 -1.310520 1.248005 0.664326 -0.725045
 51 1.789783 0.000004 0.000000 -0.000000 0.003275 0.228615
 52 1.207008 0.000004 0.000000 0.000000 0.005003 0.362980
time 8
  0 39.700081 -39.530144 34.949619 1.797509 -0.081873 0.168420
  1 3.890450 0.000000 0.000008 -1.918982 -0.651562 -1.507536
  2 17.848171 0.000000 -0.000002 -0.000000 0.000000 0.888769
  3 16.525257 -0.000004 -0.000006 0.052372 -0.028805 -1.541196
  4 6.879448 -0.000002 -0.000002 -0.007299 -0.002951 -0.584373
  5 -3.890436 0.000000 0.000000 -1.334294 -0.622796 -2.075021
  6 17.848179 0.000004 0.000000 -0.000000 -0.000000 1.858102
  7 16.525246 0.000002 -0.000006 -0.484115 -0.012888 -0.952429
  8 6.879456 0.000004 0.000005 -0.081334 -0.002949 -0.584373
  9 0.000000 3.345127 -2.981895 1.489230 0.165679 1.434024
 10 3.998791 -0.000004 0.000000 -0.206459 -0.106663 0.065857
 11 3.520294 0.000000 -0.000004 -0.182598 0.013123 0.096170
 12 8.923119 0.000000 0.000000 -0.101845 0.026486 0.281727
 13 3.306366 0.000006 0.000011 -3.084454 0.073382 0.732598
 14 3.601528 0.000000 0.000000 0.346392 0.097056 0.673929
 15 2.056793 0.981243 1.937668 -1.176644 -2.143893 -0.629777
 16 6.028133 0.000000 -0.000002 -1.716199 0.335059 -0.490519
 17 11.692551 -0.000001 0.000000 0.000000 0.000000 -1.508862
 18 11.481671 -0.000004 -0.000023 1.561847 -0.037754 0.205544
 19 3.851891 0.123238 -1.223228 -0.469917 0.161694 -0.812367
 20 1.312557 -0.000004 0.000000 -0.000000 0.004679 -0.439781
 21 0.729359 -0.000013 0.000004 0.000000 0.002406 -0.244325
 22 3.926701 0.316315 -0.458788 -0.150484 0.082976 -0.742886
 23 1.539097 0.000023 0.000006 0.000000 0.002914 -0.247798
 24 1.196327 0.000004 0.000000 0.000000 0.004796 -0.430833
 25 3.883698 0.211052 0.404104 0.087700 0.031633 -0.519958
 26 1.719578 -0.000008 0.000008 0.000000 0.005013 -0.366479
 27 1.209179 -0.000008 -0.000008 0.000000 0.002808 -0.216399
 28 3.867670 0.115967 1.301214 0.352472 -0.032983 -0.463854
 29 1.719427 0.000000 -0.000006 -0.000000 0.005105 -0.363009
 30 1.099670 0.000000 0.000000 0.000000 0.003243 -0.244330
 31 0.837299 -0.302048 1.313444 -1.251008 -0.669804 -0.720185
 32 1.789787 0.000004 0.000000 0.000000 -0.002153 0.228622
 33 1.207005 -0.000004 0.000000 0.000000 -0.003294 0.363002
 34 2.056793 0.981247 -1.937603 1.244857 2.126293 -0.468183
 35 6.028145 0.000004 0.000010 1.100681 -0.545709 -0.467173
 36 11.692558 0.000000 0.000008 0.000000 -0.000000 -1.674731
 37 11.481701 0.000000 0.000005 -1.569534 0.040178 -0.205707
 38 3.851851 0.133058 1.220436 0.469816 -0.167713 -0.811412
 39 1.312561 0.000000 0.000008 0.000000 -0.007097 -0.439763
 40 0.729359 0.000002 0.000000 0.000000 -0.003653 -0.244305
 41 3.926659 0.319862 0.458382 0.150457 -0.088581 -0.742367
 42 1.539097 0.000001 0.000004 -0.000000 -0.004404 -0.247771
 43 1.196323 0.000004 -0.000019 0.000000 -0.007266 -0.430795
 44 3.883656 0.207492 -0.403702 -0.087715 -0.035752 -0.519729
 45 1.719582 -0.000002 0.000004 0.000000 -0.007590 -0.366435
 46 1.209179 0.000010 -0.000004 0.000000 -0.004245 -0.216376
 47 3.867638 0.104975 -1.303940 -0.352490 0.029267 -0.464081
 48 1.719433 0.000002 -0.000008 0.000000 -0.007728 -0.362970
 49 1.099661 0.000000 0.000000 -0.000000 -0.004918 -0.244312
 50 0.837254 -0.312959 -1.310532 1.248005 0.664326 -0.725045
 51 1.789787 0.000000 -0.000001 0.000000 0.003275 0.228615
 52 1.207001 0.000008 -0.000002 0.000000 0.005003 0.362980
time 9
  0 44.734264 -44.544308 35.305099 1.759233 -0.102767 0.216619
  1 3.890442 0.000000 0.000000 1.301698 -2.787712 1.436387
  2 17.848171 0.000000 -0.000004 0.000000 0.000000 0.699488
  3 16.525253 -0.000004 -0.000008 0.096588 0.007655 -1.559451
  4 6.879448 0.000008 0.000004 -0.007299 -0.002951 -0.584373
  5 -3.890446 0.000008 0.000000 -1.265793 -0.728575 -2.005178
  6 17.848177 0.000000 -0.000011 0.000000 0.000000 1.834869
  7 16.525253 0.000005 -0.000004 -0.380042 -0.049194 -1.096797
  8 6.879461 0.000015 -0.000002 -0.081334 -0.002949 -0.584373
  9 0.000000 3.345131 -2.981903 1.476023 0.165133 1.411552
 10 3.998802 -0.000011 -0.000004 -0.213745 -0.128331 0.095410
 11 3.520294 -0.000004 -0.000008 -0.208911 0.014214 0.095820
 12 8.923111 0.000002 0.000000 -0.120972 0.031424 0.281176
 13 3.306366 -0.000004 0.000008 -3.091357 0.064501 0.773668
 14 3.601517 0.000000 -0.000004 0.384243 0.086206 0.719003
 15 2.056786 0.981234 1.937672 -1.130485 -2.125833 -0.676533
 16 6.028137 0.000008 0.000004 -1.729198 0.099307 -0.385681
 17 11.692556 0.000000 0.000008 -0.000000 0.000000 -1.655700
 18 11.481680 0.000000 -0.000038 1.561792 -0.037754 0.206011
 19 3.851898 0.123230 -1.223228 -0.469917 0.161694 -0.812367
 20 1.312553 -0.000015 -0.000004 -0.000000 0.004679 -0.439781
 21 0.729370 0.000004 0.000000 -0.000000 0.002406 -0.244325
 22 3.926708 0.316315 -0.458790 -0.150484 0.082976 -0.742886
 23 1.539099 0.000008 -0.000006 0.000000 0.002914 -0.247798
 24 1.196320 0.000015 0.000000 -0.000000 0.004796 -0.430833
 25 3.883701 0.211060 0.404097 0.087700 0.031633 -0.519958
 26 1.719580 0.000008 -0.000004 0.000000 0.005013 -0.366479
 27 1.209175 0.000023 -0.000004 0.000000 0.002808 -0.216399
 28 3.867676 0.115967 1.301216 0.352472 -0.032983 -0.463854
 29 1.719432 0.000000 0.000006 0.000000 0.005105 -0.363009
 30 1.099670 0.000008 0.000000 0.000000 0.003243 -0.244330
 31 0.837303 -0.302048 1.313442 -1.251008 -0.669804 -0.720185
 32 1.789780 -0.000004 0.000000 -0.000000 -0.002153 0.228622
 33 1.207006 -0.000008 0.000015 0.000000 -0.003294 0.363002
 34 2.056793 0.981239 -1.937592 1.253159 2.095160 -0.453538
 35 6.028137 0.000004 0.000002 1.023228 -0.805725 -0.397364
 36 11.692574 0.000004 -0.000004 -0.000000 0.000000 -1.532764
 37 11.481709 0.000008 -0.000001 -1.569343 0.040178 -0.200218
 38 3.851858 0.133062 1.220451 0.469816 -0.167713 -0.811412
 39 1.312565 0.000004 -0.000011 -0.000000 -0.007097 -0.439763
 40 0.729364 0.000000 0.000004 0.000000 -0.003653 -0.244305
 41 3.926676 0.319867 0.458382 0.150457 -0.088581 -0.742367
 42 1.539099 0.000002 0.000000 -0.000000 -0.004404 -0.247771
 43 1.196321 0.000002 -0.000011 -0.000000 -0.007266 -0.430795
 44 3.883663 0.207494 -0.403687 -0.087715 -0.035752 -0.519729
 45 1.719576 -0.000003 -0.000004 0.000000 -0.007590 -0.366435
 46 1.209175 0.000000 0.000004 -0.000000 -0.004245 -0.216376
 47 3.867645 0.104979 -1.303940 -0.352490 0.029267 -0.464081
 48 1.719439 0.000004 0.000015 0.000000 -0.007728 -0.362970
 49 1.099657 0.000000 -0.000004 -0.000000 -0.004918 -0.244312
 50 0.837269 -0.312959 -1.310524 1.248005 0.664326 -0.725045
 51 1.789778 -0.000004 -0.000001 0.000000 0.003275 0.228615
 52 1.207003 0.000004 -0.000001 -0.000000 0.005003 0.362980
time 10
  0 49.669621 -49.555378 36.059029 1.749163 -0.075303 0.250163
  1 3.890446 0.000004 0.000004 1.369335 -2.954237 1.363888
  2 17.848179 -0.000008 -0.000008 0.000000 0.000000 0.649441
  3 16.525269 0.000004 0.000000 0.218074 0.092535 -1.449072
  4 6.879456 0.000000 -0.000008 -0.007299 -0.002951 -0.584373
  5 -3.890453 -0.000008 0.000004 -1.182426 -0.903275 -1.899210
  6 17.848173 -0.000004 0.000000 0.000000 0.000000 1.692517
  7 16.525253 0.000000 -0.000008 -0.305344 -0.031740 -1.106352
  8 6.879455 -0.000004 0.000002 -0.081334 -0.002949 -0.584373
  9 0.000000 3.345135 -2.981903 1.473847 0.165807 1.439394
 10 3.998806 0.000011 -0.000008 -0.206087 -0.123585 0.124945
 11 3.520294 0.000000 0.000008 -0.216815 0.014525 0.095704
 12 8.923111 -0.000006 0.000000 -0.126713 0.032910 0.280984
 13 3.306366 -0.000002 0.000000 -3.110532 0.039981 0.741481
 14 3.601517 0.000004 0.000008 0.369754 0.067761 0.686348
 15 2.056786 0.981230 1.937664 -1.031081 -2.059479 -0.767074
 16 6.028130 -0.000008 0.000002 -1.770585 -0.091439 -0.420253
 17 11.692562 -0.000004 -0.000008 0.000000 0.000000 -1.821531
 18 11.481670 -0.000004 -0.000031 1.561958 -0.037791 0.202244
 19 3.851902 0.123230 -1.223213 -0.469917 0.161694 -0.812367
 20 1.312553 -0.000008 -0.000004 -0.000000 0.004679 -0.439781
 21 0.729355 0.000000 0.000008 0.000000 0.002406 -0.244325
 22 3.926701 0.316307 -0.458786 -0.150484 0.082976 -0.742886
 23 1.539101 0.000000 -0.000004 -0.000000 0.002914 -0.247798
 24 1.196316 0.000000 0.000000 0.000000 0.004796 -0.430833
 25 3.883690 0.211060 0.404102 0.087700 0.031633 -0.519958
 26 1.719578 0.000000 -0.000008 0.000000 0.005013 -0.366479
 27 1.209175 0.000000 -0.000004 -0.000000 0.002808 -0.216399
 28 3.867676 0.115967 1.301224 0.352472 -0.032983 -0.463854
 29 1.719430 -0.000008 -0.000008 0.000000 0.005105 -0.363009
 30 1.099661 -0.000008 -0.000008 0.000000 0.003255 -0.244330
 31 0.837299 -0.302048 1.313450 -1.251008 -0.669804 -0.720185
 32 1.789787 0.000006 0.000008 0.000000 -0.002153 0.228622
 33 1.206996 0.000000 -0.000015 0.000000 -0.003294 0.363002
 34 2.056786 0.981234 -1.937607 1.206174 2.015145 -0.493078
 35 6.028145 0.000000 -0.000004 1.044965 -0.992991 -0.425046
 36 11.692551 -0.000011 0.000004 0.000000 -0.000000 -1.412800
 37 11.481701 0.000000 -0.000004 -1.568768 0.040152 -0.186055
 38 3.851860 0.133068 1.220463 0.469816 -0.167713 -0.811412
 39 1.312565 0.000019 -0.000006 -0.000000 -0.007097 -0.439763
 40 0.729366 0.000004 0.000002 0.000000 -0.003653 -0.244305
 41 3.926666 0.319870 0.458393 0.150457 -0.088581 -0.742367
 42 1.539097 0.000000 0.000008 -0.000000 -0.004404 -0.247771
 43 1.196321 0.000000 0.000000 0.000000 -0.007266 -0.430795
 44 3.883652 0.207495 -0.403702 -0.087715 -0.035752 -0.519729
 45 1.719582 -0.000004 -0.000011 0.000000 -0.007590 -0.366435
 46 1.209179 0.000004 0.000004 0.000000 -0.004245 -0.216376
 47 3.867641 0.104973 -1.303928 -0.352490 0.029267 -0.464081
 48 1.719435 0.000008 -0.000008 -0.000000 -0.007728 -0.362970
 49 1.099657 0.000002 -0.000008 0.000000 -0.004918 -0.244312
 50 0.837269 -0.312952 -1.310524 1.248005 0.664326 -0.725045
 51 1.789787 0.000015 0.000002 -0.000000 0.003275 0.228615
 52 1.207001 0.000008 0.000004 -0.000000 0.005003 0.362980
time 11
  0 54.597954 -54.563332 37.023903 1.772070 -0.023692 0.262545
  1 3.890450 0.000004 -0.000011 1.392466 3.063226 1.307355
  2 17.848179 0.000015 -0.000006 -0.000000 -0.000000 0.322968
  3 16.525257 0.000004 0.000008 0.390401 0.064230 -1.106350
  4 6.879445 0.000008 0.000008 -0.007299 -0.002951 -0.584373
  5 -3.890450 -0.000004 -0.000019 -1.176513 -0.978546 -1.739635
  6 17.848177 0.000000 0.000004 -0.000000 -0.000000 1.393122
  7 16.525257 0.000015 0.000000 -0.282178 -0.029428 -1.098216
  8 6.879452 0.000008 -0.000004 -0.081334 -0.002949 -0.584373
  9 0.000008 3.345131 -2.981907 1.480274 0.166723 1.493337
 10 3.998802 0.000000 0.000004 -0.180812 -0.109983 0.138294
 11 3.520306 0.000004 0.000000 -0.209017 0.014226 0.095820
 12 8.923111 0.000000 0.000000 -0.121044 0.031448 0.281176
 13 3.306358 0.000000 0.000008 -3.125296 0.020985 0.673233
 14 3.601517 0.000008 0.000008 0.317023 0.045479 0.613863
 15 2.056778 0.981243 1.937664 -0.876612 -1.977852 -0.907914
 16 6.028145 -0.000008 0.000005 -1.798017 -0.212361 -0.499116
 17 11.692558 -0.000006 0.000000 0.000000 0.000000 -1.993443
 18 11.481667 0.000000 -0.000031 1.562345 -0.037866 0.192523
 19 3.851891 0.123207 -1.223228 -0.469917 0.161694 -0.812367
 20 1.312561 -0.000008 -0.000004 -0.000000 0.004679 -0.439781
 21 0.729378 0.000000 -0.000008 0.000000 0.002406 -0.244325
 22 3.926704 0.316307 -0.458790 -0.150484 0.082976 -0.742886
 23 1.539099 -0.000015 0.000011 -0.000000 0.002914 -0.247798
 24 1.196323 0.000000 0.000004 0.000000 0.004796 -0.430833
 25 3.883690 0.211044 0.404099 0.087700 0.031633 -0.519958
 26 1.719584 -0.000023 0.000011 0.000000 0.005013 -0.366479
 27 1.209183 -0.000008 0.000000 -0.000000 0.002808 -0.216399
 28 3.867672 0.115959 1.301208 0.352472 -0.032983 -0.463854
 29 1.719438 0.000008 0.000000 -0.000000 0.005105 -0.363009
 30 1.099661 0.000008 -0.000008 -0.000000 0.003243 -0.244330
 31 0.837299 -0.302055 1.313438 -1.251008 -0.669804 -0.720185
 32 1.789772 0.000000 -0.000015 0.000000 -0.002153 0.228622
 33 1.207006 0.000000 0.000000 0.000000 -0.003294 0.363002
 34 2.056793 0.981243 -1.937607 1.096057 1.918641 -0.596502
 35 6.028137 0.000004 -0.000006 1.227462 -1.112329 -0.636244
 36 11.692558 0.000000 0.000006 -0.000000 0.000000 -1.325804
 37 11.481705 0.000002 0.000004 -1.567619 0.040075 -0.157319
 38 3.851868 0.133068 1.220451 0.469816 -0.167713 -0.811412
 39 1.312561 0.000008 0.000006 0.000000 -0.007097 -0.439763
 40 0.729366 0.000008 -0.000008 0.000000 -0.003653 -0.244305
 41 3.926666 0.319862 0.458374 0.150457 -0.088581 -0.742367
 42 1.539097 0.000004 0.000008 -0.000000 -0.004404 -0.247771
 43 1.196323 0.000004 -0.000004 0.000000 -0.007266 -0.430795
 44 3.883659 0.207497 -0.403702 -0.087715 -0.035752 -0.519729
 45 1.719574 -0.000004 0.000000 -0.000000 -0.007590 -0.366435
 46 1.209175 0.000004 -0.000008 -0.000000 -0.004245 -0.216376
 47 3.867649 0.104979 -1.303944 -0.352490 0.029267 -0.464081
 48 1.719437 -0.000006 -0.000008 -0.000000 -0.007728 -0.362970
 49 1.099663 0.000011 0.000004 0.000000 -0.004918 -0.244312
 50 0.837273 -0.312956 -1.310528 1.248005 0.664326 -0.725045
 51 1.789780 0.000000 0.000008 0.000000 0.003275 0.228615
 52 1.207006 0.000008 -0.000004 -0.000000 0.005003 0.362980
time 12
  0 59.525627 -59.571747 37.582512 1.807579 0.028163 0.249847
  1 3.890450 0.000000 -0.000011 1.403383 3.077186 1.318543
  2 17.848183 -0.000011 0.000004 0.000000 -0.000000 0.500439
  3 16.525253 0.000004 0.000000 0.230735 0.062266 -0.885356
  4 6.879454 -0.000004 0.000004 -0.007299 -0.002951 -0.584373
  5 -3.890450 0.000000 0.000000 -1.281841 -0.979789 -1.498487
  6 17.848173 0.000011 0.000008 -0.000000 0.000000 1.001992
  7 16.525265 -0.000008 0.000008 -0.133130 -0.255133 -1.056306
  8 6.879448 0.000008 0.000000 -0.081334 -0.002949 -0.584373
  9 0.000008 3.345131 -2.981907 1.491911 0.167173 1.547727
 10 3.998802 0.000000 0.000000 -0.135606 -0.088662 0.128050
 11 3.520302 -0.000011 -0.000008 -0.183420 0.012979 0.096170
 12 8.923111 0.000000 -0.000011 -0.102432 0.026630 0.281715
 13 3.306366 0.000006 0.000019 -3.128652 0.016671 0.597894
 14 3.601532 0.000000 0.000004 0.221729 0.017258 0.531920
 15 2.056793 0.981241 1.937668 -0.748095 -1.927479 -1.027007
 16 6.028130 -0.000008 -0.000004 -1.773931 -0.237091 -0.486128
 17 11.692554 -0.000006 -0.000008 0.000000 -0.000000 -2.144411
 18 11.481676 -0.000008 -0.000031 1.563174 -0.038051 0.169960
 19 3.851891 0.123238 -1.223228 -0.469917 0.161694 -0.812367
 20 1.312561 0.000015 0.000006 0.000000 0.004679 -0.439781
 21 0.729370 -0.000008 0.000004 -0.000000 0.002406 -0.244325
 22 3.926704 0.316322 -0.458794 -0.150484 0.082976 -0.742886
 23 1.539104 -0.000008 0.000004 -0.000000 0.002914 -0.247798
 24 1.196323 0.000000 0.000000 0.000000 0.004796 -0.430833
 25 3.883690 0.211052 0.404095 0.087700 0.031633 -0.519958
 26 1.719570 -0.000015 -0.000004 -0.000000 0.005013 -0.366479
 27 1.209198 -0.000015 -0.000004 0.000000 0.002808 -0.216399
 28 3.867683 0.115974 1.301212 0.352472 -0.032983 -0.463854
 29 1.719428 0.000000 -0.000004 -0.000000 0.005105 -0.363009
 30 1.099663 0.000000 0.000000 -0.000000 0.003243 -0.244330
 31 0.837303 -0.302048 1.313442 -1.251009 -0.669804 -0.720185
 32 1.789780 0.000000 0.000000 0.000000 -0.002153 0.228622
 33 1.207001 0.000008 -0.000008 0.000000 -0.003294 0.363002
 34 2.056793 0.981243 -1.937603 0.972712 1.860926 -0.716127
 35 6.028137 -0.000008 0.000002 1.591748 -1.159062 -1.002438
 36 11.692558 0.000000 0.000011 0.000000 -0.000000 -1.271051
 37 11.481705 -0.000002 -0.000002 -1.561872 0.039175 -0.012072
 38 3.851860 0.133064 1.220448 0.469816 -0.167713 -0.811412
 39 1.312565 0.000008 0.000000 0.000000 -0.007097 -0.439763
 40 0.729366 -0.000008 -0.000002 -0.000000 -0.003653 -0.244305
 41 3.926674 0.319866 0.458393 0.150457 -0.088581 -0.742367
 42 1.539097 0.000000 0.000000 -0.000000 -0.004404 -0.247771
 43 1.196323 0.000000 0.000006 -0.000000 -0.007266 -0.430795
 44 3.883659 0.207483 -0.403700 -0.087715 -0.035752 -0.519729
 45 1.719585 0.000004 -0.000006 0.000000 -0.007590 -0.366435
 46 1.209179 0.000000 -0.000004 0.000000 -0.004245 -0.216376
 47 3.867630 0.104971 -1.303944 -0.352490 0.029267 -0.464081
 48 1.719437 0.000008 -0.000004 0.000000 -0.007728 -0.362970
 49 1.099659 0.000000 0.000000 0.000000 -0.004918 -0.244312
 50 0.837265 -0.312960 -1.310520 1.248005 0.664326 -0.725045
 51 1.789789 0.000000 0.000004 -0.000000 0.003275 0.228615
 52 1.207001 0.000000 0.000015 0.000000 0.005003 0.362980
time 13
  0 64.453171 -64.580383 37.609856 1.837493 0.057816 0.216746
  1 3.890450 0.000004 0.000004 1.407353 -3.010479 1.349689
  2 17.848175 -0.000008 -0.000004 0.000000 0.000000 0.952217
  3 16.525269 -0.000002 0.000000 0.142866 0.203703 -0.804346
  4 6.879452 -0.000008 0.000008 -0.007299 -0.002951 -0.584373
  5 -3.890446 0.000008 -0.000008 -1.418421 -0.856514 -1.315062
  6 17.848175 -0.000008 0.000000 0.000000 -0.000000 0.579406
  7 16.525253 -0.000008 0.000008 0.141779 -0.354634 -1.000867
  8 6.879456 0.000000 0.000000 -0.081334 -0.002949 -0.584373
  9 0.000000 3.345131 -2.981907 1.503549 0.167221 1.578254
 10 3.998798 0.000000 0.000000 -0.072878 -0.060930 0.105969
 11 3.520294 -0.000004 0.000015 -0.137704 0.010439 0.096665
 12 8.923103 -0.000004 -0.000008 -0.069187 0.018013 0.282458
 13 3.306351 0.000000 0.000004 -3.127406 0.018360 0.537686
 14 3.601524 -0.000004 0.000008 0.089174 -0.016365 0.466321
 15 2.056778 0.981241 1.937664 -0.742252 -1.915464 -1.030744
 16 6.028149 -0.000015 -0.000004 -1.711038 -0.194041 -0.484072
 17 11.692566 0.000011 -0.000008 -0.000000 0.000000 -2.201089
 18 11.481684 0.000004 -0.000023 1.570087 -0.038795 -0.009041
 19 3.851891 0.123230 -1.223225 -0.469917 0.161694 -0.812367
 20 1.312557 0.000000 0.000000 0.000000 0.004679 -0.439781
 21 0.729370 -0.000008 0.000000 0.000000 0.002406 -0.244325
 22 3.926697 0.316315 -0.458797 -0.150484 0.082976 -0.742886
 23 1.539097 -0.000008 0.000000 -0.000000 0.002914 -0.247798
 24 1.196327 0.000008 0.000000 0.000000 0.004796 -0.430833
 25 3.883690 0.211052 0.404091 0.087700 0.031633 -0.519958
 26 1.719576 -0.000015 0.000008 0.000000 0.005013 -0.366479
 27 1.209190 -0.000015 0.000004 -0.000000 0.002808 -0.216399
 28 3.867668 0.115982 1.301212 0.352472 -0.032983 -0.463854
 29 1.719421 0.000000 -0.000015 -0.000000 0.005105 -0.363009
 30 1.099663 0.000000 0.000008 0.000000 0.003243 -0.244330
 31 0.837292 -0.302025 1.313435 -1.251008 -0.669804 -0.720185
 32 1.789791 -0.000017 0.000000 0.000000 -0.002153 0.228622
 33 1.207008 0.000004 0.000000 -0.000000 -0.003294 0.363002
 34 2.056786 0.981245 -1.937603 0.928100 1.858688 -0.761340
 35 6.028145 0.000008 0.000004 1.814702 -1.109990 -1.253247
 36 11.692562 0.000000 -0.000004 0.000000 -0.000000 -1.248902
 37 11.481712 -0.000004 -0.000004 -1.557371 0.037864 0.105124
 38 3.851860 0.133068 1.220444 0.469816 -0.167713 -0.811412
 39 1.312561 0.000000 0.000002 0.000000 -0.007097 -0.439763
 40 0.729359 -0.000008 -0.000002 -0.000000 -0.003653 -0.244305
 41 3.926674 0.319868 0.458382 0.150457 -0.088581 -0.742367
 42 1.539097 0.000008 0.000000 0.000000 -0.004404 -0.247771
 43 1.196318 -0.000008 -0.000006 0.000000 -0.007266 -0.430795
 44 3.883652 0.207495 -0.403700 -0.087715 -0.035752 -0.519729
 45 1.719570 0.000004 -0.000002 0.000000 -0.007590 -0.366435
 46 1.209177 0.000000 -0.000006 0.000000 -0.004245 -0.216376
 47 3.867638 0.104982 -1.303940 -0.352490 0.029267 -0.464081
 48 1.719429 -0.000004 0.000000 -0.000000 -0.007728 -0.362970
 49 1.099663 0.000004 -0.000004 0.000000 -0.004918 -0.244312
 50 0.837265 -0.312948 -1.310528 1.248005 0.664326 -0.725045
 51 1.789780 0.000000 0.000000 0.000000 0.003275 0.228615
 52 1.207008 -0.000008 -0.000008 -0.000000 0.005003 0.362980
time 14
  0 69.380714 -69.589180 37.043434 1.855924 0.068278 0.169305
  1 3.890453 0.000008 0.000008 1.375366 -2.861010 1.378414
  2 17.848171 0.000000 0.000002 0.000000 -0.000000 1.177916
  3 16.525253 -0.000002 0.000002 0.067585 0.182987 -0.736293
  4 6.879448 -0.000004 -0.000010 -0.007299 -0.002951 -0.584373
  5 -3.890446 0.000000 0.000000 -1.516147 -0.683635 -1.230147
  6 17.848181 0.000000 0.000008 0.000000 0.000000 0.234981
  7 16.525255 0.000000 -0.000008 0.129898 -0.287840 -0.879346
  8 6.879448 0.000002 0.000004 -0.081334 -0.002949 -0.584373
  9 0.000011 3.345131 -2.981899 1.514580 0.167189 1.588446
 10 3.998798 0.000000 -0.000008 -0.003655 -0.028296 0.081580
 11 3.520298 -0.000008 -0.000008 -0.074323 0.006711 0.097131
 12 8.923111 0.000004 0.000004 -0.023106 0.006016 0.283010
 13 3.306351 0.000002 0.000004 -3.131624 0.012871 0.512933
 14 3.601517 -0.000004 0.000000 -0.057751 -0.049911 0.441098
 15 2.056778 0.981234 1.937656 -0.882166 -1.944283 -0.895555
 16 6.028145 0.000008 0.000000 -1.579517 -0.089848 -0.531913
 17 11.692551 0.000004 -0.000008 0.000000 -0.000000 -2.124367
 18 11.481659 -0.000008 -0.000031 1.574401 -0.038646 -0.122862
 19 3.851898 0.123230 -1.223225 -0.469917 0.161694 -0.812367
 20 1.312557 -0.000008 0.000008 0.000000 0.004679 -0.439781
 21 0.729362 0.000000 0.000000 0.000000 0.002406 -0.244325
 22 3.926704 0.316315 -0.458778 -0.150484 0.082976 -0.742886
 23 1.539093 -0.000008 0.000000 0.000000 0.002914 -0.247798
 24 1.196335 -0.000008 -0.000004 -0.000000 0.004796 -0.430833
 25 3.883690 0.211052 0.404099 0.087700 0.031633 -0.519958
 26 1.719578 0.000000 -0.000004 0.000000 0.005013 -0.366479
 27 1.209164 -0.000008 0.000011 0.000000 0.002808 -0.216399
 28 3.867676 0.115967 1.301220 0.352472 -0.032983 -0.463854
 29 1.719432 -0.000015 0.000000 -0.000000 0.005105 -0.363009
 30 1.099674 0.000000 0.000015 0.000000 0.003243 -0.244330
 31 0.837303 -0.302048 1.313442 -1.251008 -0.669804 -0.720185
 32 1.789783 0.000002 -0.000015 0.000000 -0.002153 0.228622
 33 1.206997 0.000000 0.000000 0.000000 -0.003294 0.363002
 34 2.056793 0.981234 -1.937607 0.991597 1.912712 -0.703678
 35 6.028137 0.000000 0.000008 1.897034 -0.954277 -1.312338
 36 11.692558 -0.000004 0.000008 0.000000 0.000000 -1.260158
 37 11.481689 0.000004 -0.000011 -1.556317 0.037504 0.132543
 38 3.851868 0.133068 1.220448 0.469816 -0.167713 -0.811412
 39 1.312563 0.000000 0.000004 0.000000 -0.007097 -0.439763
 40 0.729364 -0.000008 0.000002 0.000000 -0.003653 -0.244305
 41 3.926682 0.319860 0.458389 0.150457 -0.088581 -0.742367
 42 1.539093 -0.000008 -0.000004 0.000000 -0.004404 -0.247771
 43 1.196325 0.000008 -0.000004 0.000000 -0.007266 -0.430795
 44 3.883659 0.207489 -0.403694 -0.087715 -0.035752 -0.519729
 45 1.719574 0.000004 -0.000004 -0.000000 -0.007590 -0.366435
 46 1.209175 -0.000008 0.000000 -0.000000 -0.004245 -0.216376
 47 3.867645 0.104977 -1.303932 -0.352490 0.029267 -0.464081
 48 1.719429 0.000004 0.000008 -0.000000 -0.007728 -0.362970
 49 1.099661 0.000004 0.000008 0.000000 -0.004918 -0.244312
 50 0.837273 -0.312954 -1.310524 1.248005 0.664326 -0.725045
 51 1.789787 0.000000 -0.000004 0.000000 0.003275 0.228615
 52 1.207001 -0.000015 0.000004 -0.000000 0.005003 0.362980
time 15
  0 74.308342 -74.598076 35.883244 1.861283 0.079409 0.113904
  1 3.890457 0.000000 -0.000008 1.286431 -2.650542 1.478852
  2 17.848171 0.000008 -0.000006 0.000000 0.000000 1.505828
  3 16.525269 0.000003 0.000002 -0.011230 0.088201 -0.814324
  4 6.879456 0.000000 0.000000 -0.007299 -0.002951 -0.584373
  5 -3.890446 0.000008 0.000008 -1.579496 -0.711256 -1.220669
  6 17.848179 0.000008 -0.000008 -0.000000 -0.000000 0.432662
  7 16.525255 0.000008 0.000000 0.012012 -0.210343 -1.013260
  8 6.879463 0.000000 0.000015 -0.081334 -0.002949 -0.584373
  9 0.000004 3.345139 -2.981903 1.527230 0.167157 1.599234
 10 3.998795 0.000000 -0.000015 0.056759 0.007562 0.062155
 11 3.520302 0.000000 0.000004 -0.004310 0.002409 0.097321
 12 8.923119 0.000008 0.000000 0.027792 -0.007239 0.282974
 13 3.306351 -0.000008 0.000008 3.125963 -0.020122 0.549786
 14 3.601540 -0.000004 0.000000 -0.187519 -0.074955 0.482053
 15 2.056778 0.981236 1.937675 -1.064120 -2.007496 -0.720702
 16 6.028141 0.000015 -0.000008 -1.420087 0.100035 -0.562280
 17 11.692556 0.000006 0.000008 0.000000 -0.000000 -1.973776
 18 11.481670 -0.000004 -0.000031 1.575341 -0.038535 -0.147291
 19 3.851906 0.123222 -1.223228 -0.469917 0.161694 -0.812367
 20 1.312561 0.000000 0.000008 -0.000000 0.004679 -0.439781
 21 0.729362 0.000015 0.000000 0.000000 0.002406 -0.244325
 22 3.926716 0.316299 -0.458794 -0.150484 0.082976 -0.742886
 23 1.539097 -0.000008 0.000004 -0.000000 0.002914 -0.247798
 24 1.196335 -0.000008 0.000000 -0.000000 0.004796 -0.430833
 25 3.883694 0.211037 0.404095 0.087700 0.031633 -0.519958
 26 1.719582 -0.000015 0.000004 -0.000000 0.005013 -0.366479
 27 1.209190 -0.000015 0.000000 -0.000000 0.002808 -0.216399
 28 3.867676 0.115944 1.301216 0.352472 -0.032983 -0.463854
 29 1.719420 0.000000 0.000011 0.000000 0.005105 -0.363009
 30 1.099670 0.000008 -0.000004 0.000000 0.003243 -0.244330
 31 0.837307 -0.302055 1.313450 -1.251008 -0.669804 -0.720185
 32 1.789780 0.000004 0.000015 -0.000000 -0.002153 0.228622
 33 1.207003 0.000004 0.000000 -0.000000 -0.003294 0.363002
 34 2.056793 0.981239 -1.937599 1.075531 2.003249 -0.630916
 35 6.028145 -0.000004 0.000000 1.865272 -0.710779 -1.154452
 36 11.692543 0.000004 0.000004 0.000000 0.000000 -1.306416
 37 11.481709 -0.000008 -0.000008 -1.555790 0.037272 0.146760
 38 3.851852 0.133064 1.220451 0.469816 -0.167713 -0.811412
 39 1.312565 0.000000 0.000011 0.000000 -0.007097 -0.439763
 40 0.729364 0.000015 0.000004 -0.000000 -0.003653 -0.244305
 41 3.926666 0.319870 0.458382 0.150457 -0.088581 -0.742367
 42 1.539101 -0.000008 0.000000 0.000000 -0.004404 -0.247771
 43 1.196318 0.000000 -0.000015 0.000000 -0.007266 -0.430795
 44 3.883648 0.207493 -0.403702 -0.087715 -0.035752 -0.519729
 45 1.719578 0.000000 0.000008 -0.000000 -0.007590 -0.366435
 46 1.209169 0.000004 0.000008 0.000000 -0.004245 -0.216376
 47 3.867638 0.104980 -1.303940 -0.352490 0.029267 -0.464081
 48 1.719435 -0.000002 0.000015 0.000000 -0.007728 -0.362970
 49 1.099665 -0.000011 0.000015 0.000000 -0.004918 -0.244312
 50 0.837265 -0.312958 -1.310516 1.248005 0.664326 -0.725045
 51 1.789799 0.000000 0.000008 -0.000000 0.003275 0.228615
 52 1.207010 0.000000 0.000008 0.000000 0.005003 0.362980
time 16
  0 79.236015 -79.607063 35.129314 1.847150 0.120923 0.056482
  1 3.890450 0.000000 0.000000 -2.052653 -0.717589 -1.380467
  2 17.848171 -0.000008 0.000004 0.000000 -0.000000 1.838812
  3 16.525253 0.000002 -0.000004 -0.037632 -0.088440 -0.924703
  4 6.879456 0.000000 0.000004 -0.007299 -0.002951 -0.584373
  5 -3.890442 -0.000008 0.000000 -1.568093 -0.709347 -1.254386
  6 17.848179 -0.000015 0.000008 -0.000000 -0.000000 0.721119
  7 16.525249 0.000000 0.000000 -0.178640 -0.132901 -1.220589
  8 6.879456 0.000000 0.000000 -0.081334 -0.002949 -0.584373
  9 -0.000015 3.345123 -2.981888 1.545496 0.166819 1.640997
 10 3.998795 0.000000 0.000000 0.098801 0.055573 0.054219
 11 3.520306 -0.000008 0.000000 0.056989 -0.001534 0.097204
 12 8.923111 0.000008 0.000015 0.072387 -0.018840 0.282398
 13 3.306358 0.000008 0.000008 3.094037 -0.061097 0.635695
 14 3.601532 -0.000004 0.000000 -0.280653 -0.086894 0.572361
 15 2.056778 0.981255 1.937660 -1.204990 -2.080877 -0.584172
 16 6.028141 0.000000 0.000008 -1.282354 0.364107 -0.531445
 17 11.692560 -0.000002 0.000000 -0.000000 -0.000000 -1.822883
 18 11.481680 -0.000002 -0.000038 1.575783 -0.038497 -0.157694
 19 3.851898 0.123222 -1.223223 -0.469917 0.161694 -0.812367
 20 1.312565 -0.000015 0.000000 -0.000000 0.004679 -0.439781
 21 0.729362 -0.000008 0.000000 0.000000 0.002406 -0.244325
 22 3.926708 0.316322 -0.458790 -0.150484 0.082976 -0.742886
 23 1.539097 -0.000015 -0.000004 0.000000 0.002914 -0.247798
 24 1.196320 0.000015 0.000004 0.000000 0.004796 -0.430833
 25 3.883698 0.211044 0.404102 0.087700 0.031633 -0.519958
 26 1.719570 0.000000 -0.000004 0.000000 0.005013 -0.366479
 27 1.209171 0.000031 -0.000004 -0.000000 0.002808 -0.216399
 28 3.867668 0.115974 1.301216 0.352472 -0.032983 -0.463854
 29 1.719435 0.000015 -0.000006 0.000000 0.005105 -0.363009
 30 1.099655 0.000000 0.000002 -0.000000 0.003243 -0.244330
 31 0.837299 -0.302040 1.313442 -1.251008 -0.669804 -0.720185
 32 1.789787 -0.000008 0.000000 -0.000000 -0.002153 0.228622
 33 1.207003 0.000000 -0.000015 -0.000000 -0.003294 0.363002
 34 2.056793 0.981247 -1.937603 1.131728 2.097319 -0.588906
 35 6.028145 -0.000011 0.000000 1.816831 -0.435775 -0.858812
 36 11.692558 -0.000011 0.000006 -0.000000 -0.000000 -1.389708
 37 11.481709 0.000015 -0.000013 -1.555503 0.037144 0.155214
 38 3.851852 0.133070 1.220459 0.469816 -0.167713 -0.811412
 39 1.312567 -0.000004 -0.000008 -0.000000 -0.007097 -0.439763
 40 0.729362 0.000008 0.000015 -0.000000 -0.003653 -0.244305
 41 3.926662 0.319870 0.458397 0.150457 -0.088581 -0.742367
 42 1.539101 0.000000 0.000000 0.000000 -0.004404 -0.247771
 43 1.196321 0.000000 0.000000 0.000000 -0.007266 -0.430795
 44 3.883657 0.207497 -0.403702 -0.087715 -0.035752 -0.519729
 45 1.719580 -0.000001 -0.000008 -0.000000 -0.007590 -0.366435
 46 1.209169 -0.000006 -0.000008 0.000000 -0.004245 -0.216376
 47 3.867636 0.104979 -1.303932 -0.352490 0.029267 -0.464081
 48 1.719431 -0.000010 0.000008 -0.000000 -0.007728 -0.362970
 49 1.099669 0.000004 0.000015 -0.000000 -0.004918 -0.244312
 50 0.837265 -0.312950 -1.310524 1.248005 0.664326 -0.725045
 51 1.789772 0.000000 0.000000 0.000000 0.003275 0.228615
 52 1.206985 0.000000 0.000005 -0.000000 0.005003 0.362980
time 17
  0 84.163780 -84.616142 34.953526 1.813350 0.179347 0.002029
  1 3.890457 0.000000 0.000000 -2.346715 -0.836849 -0.935855
  2 17.848175 -0.000008 0.000000 0.000000 0.000000 2.007652
  3 16.525269 0.000008 -0.000008 -0.006469 -0.142803 -1.008740
  4 6.879448 0.000000 -0.000011 -0.007299 -0.002951 -0.584373
  5 -3.890450 0.000000 0.000008 -1.681445 -0.592954 -1.304962
  6 17.848175 0.000015 0.000008 -0.000000 -0.000000 0.869460
  7 16.525249 0.000008 0.000000 -0.084331 -0.057809 -1.396413
  8 6.879463 0.000000 0.000000 -0.081334 -0.002949 -0.584373
  9 0.000008 3.345139 -2.981895 1.566040 0.165840 1.700061
 10 3.998802 -0.000008 0.000000 0.121500 0.104518 0.066073
 11 3.520298 -0.000015 0.000000 0.100264 -0.004614 0.096971
 12 8.923111 0.000000 -0.000008 0.103894 -0.027013 0.281667
 13 3.306366 0.000008 0.000004 3.076492 -0.083569 0.728564
 14 3.601517 0.000004 0.000004 -0.334130 -0.086157 0.668203
 15 2.056786 0.981247 1.937664 -1.279878 -2.120729 -0.508003
 16 6.028143 0.000000 0.000000 -1.180463 0.646954 -0.470804
 17 11.692551 0.000000 -0.000015 -0.000000 0.000000 -1.674768
 18 11.481680 -0.000004 -0.000015 1.575838 -0.038460 -0.159667
 19 3.851910 0.123238 -1.223213 -0.469917 0.161694 -0.812367
 20 1.312561 -0.000008 -0.000008 0.000000 0.004679 -0.439781
 21 0.729362 0.000011 0.000000 -0.000000 0.002406 -0.244325
 22 3.926704 0.316315 -0.458786 -0.150484 0.082976 -0.742886
 23 1.539093 0.000015 0.000008 0.000000 0.002914 -0.247798
 24 1.196312 0.000000 -0.000004 0.000000 0.004796 -0.430833
 25 3.883698 0.211044 0.404099 0.087700 0.031633 -0.519958
 26 1.719582 -0.000015 0.000002 -0.000000 0.005013 -0.366479
 27 1.209183 0.000000 0.000000 -0.000000 0.002808 -0.216399
 28 3.867695 0.115967 1.301220 0.352472 -0.032983 -0.463854
 29 1.719431 -0.000015 0.000006 0.000000 0.005105 -0.363009
 30 1.099655 -0.000008 0.000000 -0.000000 0.003243 -0.244330
 31 0.837296 -0.302032 1.313446 -1.251008 -0.669804 -0.720185
 32 1.789783 -0.000002 -0.000015 -0.000000 -0.002153 0.228622
 33 1.207001 0.000002 0.000015 -0.000000 -0.003294 0.363002
 34 2.056793 0.981255 -1.937607 1.144502 2.151618 -0.587258
 35 6.028137 0.000000 0.000000 1.798821 -0.171463 -0.572959
 36 11.692551 -0.000015 0.000002 -0.000000 0.000000 -1.508873
 37 11.481697 0.000008 -0.000002 -1.555311 0.037092 0.159495
 38 3.851845 0.133064 1.220459 0.469816 -0.167713 -0.811412
 39 1.312561 0.000009 0.000008 0.000000 -0.007097 -0.439763
 40 0.729362 0.000000 0.000000 -0.000000 -0.003653 -0.244305
 41 3.926659 0.319859 0.458405 0.150457 -0.088581 -0.742367
 42 1.539093 0.000006 0.000023 0.000000 -0.004404 -0.247771
 43 1.196323 -0.000008 0.000000 0.000000 -0.007266 -0.430795
 44 3.883636 0.207493 -0.403702 -0.087715 -0.035752 -0.519729
 45 1.719604 -0.000002 0.000000 0.000000 -0.007590 -0.366435
 46 1.209175 0.000004 -0.000015 -0.000000 -0.004245 -0.216376
 47 3.867638 0.104977 -1.303932 -0.352490 0.029267 -0.464081
 48 1.719421 0.000004 0.000008 0.000000 -0.007728 -0.362970
 49 1.099655 0.000008 0.000008 -0.000000 -0.004918 -0.244312
 50 0.837265 -0.312948 -1.310524 1.248005 0.664326 -0.725045
 51 1.789780 -0.000004 0.000004 -0.000000 0.003275 0.228615
 52 1.206993 0.000000 0.000011 0.000000 0.005003 0.362980
time 18
  0 89.091652 -89.625259 35.277756 1.774190 0.208726 -0.044149
  1 3.890450 0.000015 0.000008 -2.575887 -0.870514 -0.549217
  2 17.848175 -0.000008 0.000000 0.000000 0.000000 1.991752
  3 16.525246 -0.000008 -0.000004 0.001530 -0.123025 -1.065301
  4 6.879454 0.000008 0.000000 -0.007299 -0.002951 -0.584373
  5 -3.890450 0.000015 0.000008 -1.640902 -0.440503 -1.456224
  6 17.848183 0.000000 -0.000008 -0.000000 0.000000 0.870897
  7 16.525257 0.000000 -0.000008 -0.000547 -0.157254 -1.419402
  8 6.879452 0.000008 -0.000008 -0.081334 -0.002949 -0.584373
  9 0.000015 3.345154 -2.981873 -1.561588 2.976460 -1.411553
 10 3.998798 0.000000 0.000000 0.128199 0.125898 0.093401
 11 3.520306 0.000008 0.000000 0.124269 -0.006747 0.096782
 12 8.923111 0.000000 -0.000015 0.121392 -0.031543 0.281164
 13 3.306358 0.000000 0.000000 3.083299 -0.074868 0.774248
 14 3.601547 0.000000 0.000000 -0.352977 -0.075354 0.716043
 15 2.056786 0.981232 1.937660 -1.289072 -2.088377 -0.491907
 16 6.028133 0.000000 -0.000015 -1.114990 0.889070 -0.428569
 17 11.692551 -0.000008 0.000008 0.000000 0.000000 -1.532809
 18 11.481663 0.000004 -0.000046 1.575617 -0.038497 -0.154178
 19 3.851891 0.123222 -1.223225 -0.469917 0.161694 -0.812367
 20 1.312569 0.000000 0.000015 -0.000000 0.004679 -0.439781
 21 0.729362 -0.000008 0.000008 0.000000 0.002406 -0.244325
 22 3.926704 0.316307 -0.458782 -0.150484 0.082976 -0.742886
 23 1.539101 -0.000015 0.000000 0.000000 0.002914 -0.247798
 24 1.196320 0.000000 0.000008 0.000000 0.004796 -0.430833
 25 3.883690 0.211037 0.404091 0.087700 0.031633 -0.519958
 26 1.719582 -0.000023 -0.000008 -0.000000 0.005013 -0.366479
 27 1.209175 -0.000008 -0.000004 0.000000 0.002808 -0.216399
 28 3.867668 0.115944 1.301220 0.352472 -0.032983 -0.463854
 29 1.719433 -0.000015 -0.000002 -0.000000 0.005105 -0.363009
 30 1.099648 0.000000 0.000004 0.000000 0.003243 -0.244330
 31 0.837303 -0.302048 1.313442 -1.251008 -0.669804 -0.720185
 32 1.789785 0.000000 -0.000015 -0.000000 -0.002153 0.228622
 33 1.207001 0.000004 0.000015 -0.000000 -0.003294 0.363002
 34 2.056793 0.981247 -1.937592 1.096605 2.132929 -0.635858
 35 6.028152 -0.000011 -0.000008 1.805830 0.060770 -0.419640
 36 11.692566 0.000008 0.000000 -0.000000 -0.000000 -1.655706
 37 11.481689 0.000000 0.000002 -1.555311 0.037092 0.159990
 38 3.851852 0.133068 1.220451 0.469816 -0.167713 -0.811412
 39 1.312569 0.000004 0.000000 -0.000000 -0.007097 -0.439763
 40 0.729362 0.000008 0.000008 0.000000 -0.003653 -0.244305
 41 3.926666 0.319870 0.458389 0.150457 -0.088581 -0.742367
 42 1.539093 0.000004 0.000015 0.000000 -0.004404 -0.247771
 43 1.196320 0.000008 0.000008 -0.000000 -0.007266 -0.430795
 44 3.883659 0.207491 -0.403694 -0.087715 -0.035752 -0.519729
 45 1.719559 0.000000 0.000000 0.000000 -0.007590 -0.366435
 46 1.209167 0.000000 -0.000008 0.000000 -0.004245 -0.216376
 47 3.867645 0.104982 -1.303940 -0.352490 0.029267 -0.464081
 48 1.719444 -0.000008 0.000000 0.000000 -0.007728 -0.362970
 49 1.099640 0.000000 0.000008 0.000000 -0.004918 -0.244312
 50 0.837273 -0.312943 -1.310516 1.248005 0.664326 -0.725045
 51 1.789780 -0.000004 -0.000004 0.000000 0.003275 0.228615
 52 1.207001 0.000000 -0.000008 -0.000000 0.005003 0.362980
end
