version 1
nodes
0 "Gunship.Mesh" -1
1 "Gunship.Body" -1
2 "Gunship.Spine" 1
3 "Gunship.humerus_L" 2
4 "Gunship.Ulna_L" 3
5 "Gunship.Carpals_L" 4
6 "Gunship.Phalanges_L" 5
7 "Gunship.Scanner" 2
8 "Gunship.Nose" 2
9 "Gunship.Nose_Weapon" 8
10 "Gunship.Belly_Weapon" 1
11 "Gunship.Belly_L" 1
12 "Gunship.Antenna_L" 1
13 "Gunship.Tail" 1
14 "Gunship.Propeller" 13
15 "Gunship.Antenna_R" 1
16 "Gunship.Belly_R" 1
17 "Gunship.humerus_R" 2
18 "Gunship.Ulna_R" 17
19 "Gunship.CarpalsR" 18
20 "Gunship.Phalanges_R" 19
end
skeleton
time 0
0 0.000000 0.000000 0.000000 1.570796 0.000000 0.000000
1 0.000000 -18.629589 29.693361 -1.570796 0.351728 -1.570796
2 65.355888 0.000000 0.000000 0.000000 0.000000 -0.134439
3 12.067241 32.559124 25.800257 -20.263980 -1.252792 20.049061
4 22.486000 0.000000 0.000000 1.570796 0.312102 -0.000000
5 15.947000 0.000000 0.000000 -7.929063 6.030268 0.626587
6 19.768000 0.000000 0.000000 0.000001 -0.000000 0.234927
7 58.241417 29.326660 0.000000 0.000000 0.000000 0.386773
8 66.352951 0.000000 0.000000 0.000000 0.000000 0.092031
9 31.718473 17.190714 0.000000 0.000000 0.000000 -0.226569
10 22.464914 31.710808 0.000000 1.394932 -1.570796 1.394932
11 0.207232 27.529823 29.141125 -7.865367 -0.078914 7.780548
12 -48.533508 50.487892 46.780914 0.785561 -2.309615 -0.977985
13 -44.139824 -5.858725 0.000000 0.000000 0.000000 2.789864
14 107.462242 0.693102 0.623600 0.000000 0.000000 0.000000
15 -48.533508 50.487892 -46.780914 -0.785561 2.309615 -0.977985
16 0.207232 27.529823 -29.141125 11.006959 3.062679 10.922140
17 12.067241 32.559124 -25.800257 -4.868761 1.252792 -5.083680
18 22.486000 0.000000 0.000000 -1.570796 -0.312102 -0.000000
19 15.947000 0.000000 0.000000 1.645877 0.252917 0.626587
20 19.768000 0.000000 0.000000 -0.000001 0.000000 0.234927
time 1
1 0.000000 -18.629589 29.693361 -1.570796 0.351728 -1.570796
2 65.355888 0.000000 0.000000 0.000000 0.000000 -0.134439
3 12.067241 32.559124 25.800257 -20.263980 -1.252792 20.049061
4 22.486000 0.000000 0.000000 1.570796 0.312102 -0.000000
5 15.947000 0.000000 0.000000 -7.929063 6.030268 0.626587
6 19.768000 0.000000 0.000000 0.000001 -0.000000 0.234927
7 58.241417 29.326660 0.000000 0.000000 0.000000 0.386773
8 66.352951 0.000000 0.000000 0.000000 0.000000 0.092031
9 31.718473 17.190714 0.000000 0.000000 0.000000 -0.226569
10 22.464914 31.710808 0.000000 1.394932 -1.570796 1.394932
11 0.207232 27.529823 29.141125 -7.865367 -0.078914 7.780548
12 -48.533508 50.487892 46.780914 1.798737 -2.081625 -2.171935
13 -44.139824 -5.858725 0.000000 0.000000 0.000000 2.789864
14 107.462242 0.693102 0.623600 0.000000 0.000000 0.000000
15 -48.533508 50.487892 -46.780914 -1.798737 2.081625 -2.171935
16 0.207232 27.529823 -29.141125 11.006959 3.062679 10.922140
17 12.067241 32.559124 -25.800257 -4.868761 1.252792 -5.083680
18 22.486000 0.000000 0.000000 -1.570796 -0.312102 -0.000000
19 15.947000 0.000000 0.000000 1.645877 0.252917 0.626587
20 19.768000 0.000000 0.000000 -0.000001 0.000000 0.234927
time 2
1 0.000000 -18.629589 29.693361 -1.570796 0.351728 -1.570796
2 65.355888 0.000000 0.000000 0.000000 0.000000 -0.134439
3 12.067241 32.559124 25.800257 -20.263980 -1.252792 20.049061
4 22.486000 0.000000 0.000000 1.570796 0.312102 -0.000000
5 15.947000 0.000000 0.000000 -7.929063 6.030268 0.626587
6 19.768000 0.000000 0.000000 0.000001 -0.000000 0.234927
7 58.241417 29.326660 0.000000 0.000000 0.000000 0.386773
8 66.352951 0.000000 0.000000 0.000000 0.000000 0.092031
9 31.718473 17.190714 0.000000 0.000000 0.000000 -0.226569
10 22.464914 31.710808 0.000000 1.394932 -1.570796 1.394932
11 0.207232 27.529823 29.141125 -7.865367 -0.078914 7.780548
12 -48.533508 50.487892 46.780914 0.515827 -2.878281 -0.487764
13 -44.139824 -5.858725 0.000000 0.000000 0.000000 2.789864
14 107.462242 0.693102 0.623600 0.000000 0.000000 0.000000
15 -48.533508 50.487892 -46.780914 -0.515827 2.878281 -0.487764
16 0.207232 27.529823 -29.141125 11.006959 3.062679 10.922140
17 12.067241 32.559124 -25.800257 -4.868761 1.252792 -5.083680
18 22.486000 0.000000 0.000000 -1.570796 -0.312102 -0.000000
19 15.947000 0.000000 0.000000 1.645877 0.252917 0.626587
20 19.768000 0.000000 0.000000 -0.000001 0.000000 0.234927
time 3
1 0.000000 -18.629589 29.693361 -1.570796 0.351728 -1.570796
2 65.355888 0.000000 0.000000 0.000000 0.000000 -0.134439
3 12.067241 32.559124 25.800257 -20.263980 -1.252792 20.049061
4 22.486000 0.000000 0.000000 1.570796 0.312102 -0.000000
5 15.947000 0.000000 0.000000 -7.929063 6.030268 0.626587
6 19.768000 0.000000 0.000000 0.000001 -0.000000 0.234927
7 58.241417 29.326660 0.000000 0.000000 0.000000 0.386773
8 66.352951 0.000000 0.000000 0.000000 0.000000 0.092031
9 31.718473 17.190714 0.000000 0.000000 0.000000 -0.226569
10 22.464914 31.710808 0.000000 1.394932 -1.570796 1.394932
11 0.207232 27.529823 29.141125 -7.865367 -0.078914 7.780548
12 -48.533508 50.487892 46.780914 1.071253 -3.031009 -1.554273
13 -44.139824 -5.858725 0.000000 0.000000 0.000000 2.789864
14 107.462242 0.693102 0.623600 0.000000 0.000000 0.000000
15 -48.533508 50.487892 -46.780914 -0.089689 2.069195 -0.145658
16 0.207232 27.529823 -29.141125 11.006959 3.062679 10.922140
17 12.067241 32.559124 -25.800257 -4.868761 1.252792 -5.083680
18 22.486000 0.000000 0.000000 -1.570796 -0.312102 -0.000000
19 15.947000 0.000000 0.000000 1.645877 0.252917 0.626587
20 19.768000 0.000000 0.000000 -0.000001 0.000000 0.234927
time 4
1 0.000000 -18.629589 29.693361 -1.570796 0.351728 -1.570796
2 65.355888 0.000000 0.000000 0.000000 0.000000 -0.134439
3 12.067241 32.559124 25.800257 -20.263980 -1.252792 20.049061
4 22.486000 0.000000 0.000000 1.570796 0.312102 -0.000000
5 15.947000 0.000000 0.000000 -7.929063 6.030268 0.626587
6 19.768000 0.000000 0.000000 0.000001 -0.000000 0.234927
7 58.241417 29.326660 0.000000 0.000000 0.000000 0.386773
8 66.352951 0.000000 0.000000 0.000000 0.000000 0.092031
9 31.718473 17.190714 0.000000 0.000000 0.000000 -0.226569
10 22.464914 31.710808 0.000000 1.394932 -1.570796 1.394932
11 0.207232 27.529823 29.141125 -7.865367 -0.078914 7.780548
12 -48.533508 50.487892 46.780914 0.089689 -2.069195 -0.145658
13 -44.139824 -5.858725 0.000000 0.000000 0.000000 2.789864
14 107.462242 0.693102 0.623600 0.000000 0.000000 0.000000
15 -48.533508 50.487892 -46.780914 -1.071253 3.031009 -1.554273
16 0.207232 27.529823 -29.141125 11.006959 3.062679 10.922140
17 12.067241 32.559124 -25.800257 -4.868761 1.252792 -5.083680
18 22.486000 0.000000 0.000000 -1.570796 -0.312102 -0.000000
19 15.947000 0.000000 0.000000 1.645877 0.252917 0.626587
20 19.768000 0.000000 0.000000 -0.000001 0.000000 0.234927
end
