version 1
nodes
0 "Gunship.Mesh" -1
1 "Gunship.Body" -1
2 "Gunship.Spine" 1
3 "Gunship.humerus_L" 2
4 "Gunship.Ulna_L" 3
5 "Gunship.Carpals_L" 4
6 "Gunship.Phalanges_L" 5
7 "Gunship.Scanner" 2
8 "Gunship.Nose" 2
9 "Gunship.Nose_Weapon" 8
10 "Gunship.Belly_Weapon" 1
11 "Gunship.Belly_L" 1
12 "Gunship.Antenna_L" 1
13 "Gunship.Tail" 1
14 "Gunship.Propeller" 13
15 "Gunship.Antenna_R" 1
16 "Gunship.Belly_R" 1
17 "Gunship.humerus_R" 2
18 "Gunship.Ulna_R" 17
19 "Gunship.CarpalsR" 18
20 "Gunship.Phalanges_R" 19
end
skeleton
time 0
0 0.000000 0.000000 0.000000 1.570796 0.000000 0.000000
1 0.000000 -18.629589 29.693361 -1.570796 0.351728 -1.570796
2 65.355888 0.000000 0.000000 0.000000 0.000000 -0.134439
3 12.067241 32.559124 25.800257 -20.263980 -1.252792 20.049061
4 22.486000 0.000000 0.000000 1.570796 0.312102 -0.000000
5 15.947000 0.000000 0.000000 -7.929063 6.030268 0.626587
6 19.768000 0.000000 0.000000 0.000001 -0.000000 0.234927
7 58.241417 29.326660 0.000000 0.000000 0.000000 0.386773
8 66.352951 0.000000 0.000000 0.000000 0.000000 0.092031
9 31.718473 17.190714 0.000000 0.000000 0.000000 -0.226569
10 22.464914 31.710808 0.000000 1.394932 -1.570796 1.394932
11 0.228653 27.627048 27.895096 -7.865367 -0.078914 7.780548
12 -48.533508 50.487892 46.780914 0.785561 -2.309615 -0.977985
13 -44.139824 -5.858725 0.000000 0.000000 0.000000 2.789864
14 107.462242 0.693102 0.623600 0.000000 0.000000 0.000000
15 -48.533508 50.487892 -46.780914 -0.785561 2.309615 -0.977985
16 0.228653 27.627048 -27.895096 11.006959 3.062679 10.922140
17 12.067241 32.559124 -25.800257 -4.868761 1.252792 -5.083680
18 22.486000 0.000000 0.000000 -1.570796 -0.312102 -0.000000
19 15.947000 0.000000 0.000000 1.645877 0.252917 0.626587
20 19.768000 0.000000 0.000000 -0.000001 0.000000 0.234927
time 1
1 0.000000 -18.629589 29.693361 -1.570796 0.351728 -1.570796
2 65.355888 0.000000 0.000000 0.000000 0.000000 -0.134439
3 12.067241 32.559124 25.800257 -20.263980 -1.252792 20.049061
4 22.486000 0.000000 0.000000 1.570796 0.312102 -0.000000
5 15.947000 0.000000 0.000000 -7.929063 6.030268 0.626587
6 19.768000 0.000000 0.000000 0.000001 -0.000000 0.234927
7 58.241417 29.326660 0.000000 0.000000 0.000000 0.386773
8 66.352951 0.000000 0.000000 0.000000 0.000000 0.092031
9 31.718473 17.190714 0.000000 0.000000 0.000000 -0.226569
10 22.329071 31.340649 0.000000 1.394932 -1.570796 1.394932
11 0.233598 27.649488 27.607485 -7.865352 -0.061160 7.780345
12 -48.533508 50.487892 46.780914 0.785561 -2.309615 -0.977985
13 -44.139824 -5.858725 0.000000 0.000000 0.000000 2.789864
14 107.462242 0.693102 0.623600 0.000000 0.000000 0.000000
15 -48.533508 50.487892 -46.780914 -0.785561 2.309615 -0.977985
16 0.233598 27.649488 -27.607485 11.006945 3.080433 10.921938
17 12.067241 32.559124 -25.800257 -4.868761 1.252792 -5.083680
18 22.486000 0.000000 0.000000 -1.570796 -0.312102 -0.000000
19 15.947000 0.000000 0.000000 1.645877 0.252917 0.626587
20 19.768000 0.000000 0.000000 -0.000001 0.000000 0.234927
time 2
1 0.000000 -18.629589 29.693361 -1.570796 0.351728 -1.570796
2 65.355888 0.000000 0.000000 0.000000 0.000000 -0.134439
3 12.067241 32.559124 25.800257 -20.263980 -1.252792 20.049061
4 22.486000 0.000000 0.000000 1.570796 0.312102 -0.000000
5 15.947000 0.000000 0.000000 -7.929063 6.030268 0.626587
6 19.768000 0.000000 0.000000 0.000001 -0.000000 0.234927
7 58.241417 29.326660 0.000000 0.000000 0.000000 0.386773
8 66.352951 0.000000 0.000000 0.000000 0.000000 0.092031
9 31.718473 17.190714 0.000000 0.000000 0.000000 -0.226569
10 22.222486 31.050219 0.000000 1.394932 -1.570796 1.394932
11 0.237748 27.668324 27.366100 -7.865342 -0.042978 7.780138
12 -48.533508 50.487892 46.780914 0.785561 -2.309615 -0.977985
13 -44.139824 -5.858725 0.000000 0.000000 0.000000 2.789864
14 107.462242 0.693102 0.623600 0.000000 0.000000 0.000000
15 -48.533508 50.487892 -46.780914 -0.785561 2.309615 -0.977985
16 0.237748 27.668324 -27.366100 11.006934 3.098615 10.921731
17 12.067241 32.559124 -25.800257 -4.868761 1.252792 -5.083680
18 22.486000 0.000000 0.000000 -1.570796 -0.312102 -0.000000
19 15.947000 0.000000 0.000000 1.645877 0.252917 0.626587
20 19.768000 0.000000 0.000000 -0.000001 0.000000 0.234927
time 3
1 0.000000 -18.629589 29.693361 -1.570796 0.351728 -1.570796
2 65.355888 0.000000 0.000000 0.000000 0.000000 -0.134439
3 12.067241 32.559124 25.800257 -20.263980 -1.252792 20.049061
4 22.486000 0.000000 0.000000 1.570796 0.312102 -0.000000
5 15.947000 0.000000 0.000000 -7.929063 6.030268 0.626587
6 19.768000 0.000000 0.000000 0.000001 -0.000000 0.234927
7 58.241417 29.326660 0.000000 0.000000 0.000000 0.386773
8 66.352951 0.000000 0.000000 0.000000 0.000000 0.092031
9 31.718473 17.190714 0.000000 0.000000 0.000000 -0.226569
10 22.131868 30.803295 0.000000 1.394932 -1.570796 1.394932
11 0.241430 27.685036 27.151909 -7.865334 -0.024587 7.779929
12 -48.533508 50.487892 46.780914 0.785561 -2.309615 -0.977985
13 -44.139824 -5.858725 0.000000 0.000000 0.000000 2.789864
14 107.462242 0.693102 0.623600 0.000000 0.000000 0.000000
15 -48.533508 50.487892 -46.780914 -0.785561 2.309615 -0.977985
16 0.241430 27.685036 -27.151909 11.006927 3.117006 10.921521
17 12.067241 32.559124 -25.800257 -4.868761 1.252792 -5.083680
18 22.486000 0.000000 0.000000 -1.570796 -0.312102 -0.000000
19 15.947000 0.000000 0.000000 1.645877 0.252917 0.626587
20 19.768000 0.000000 0.000000 -0.000001 0.000000 0.234927
time 4
1 0.000000 -18.629589 29.693361 -1.570796 0.351728 -1.570796
2 65.355888 0.000000 0.000000 0.000000 0.000000 -0.134439
3 12.067241 32.559124 25.800257 -20.263980 -1.252792 20.049061
4 22.486000 0.000000 0.000000 1.570796 0.312102 -0.000000
5 15.947000 0.000000 0.000000 -7.929063 6.030268 0.626587
6 19.768000 0.000000 0.000000 0.000001 -0.000000 0.234927
7 58.241417 29.326660 0.000000 0.000000 0.000000 0.386773
8 66.352951 0.000000 0.000000 0.000000 0.000000 0.092031
9 31.718473 17.190714 0.000000 0.000000 0.000000 -0.226569
10 22.051821 30.585176 0.000000 1.394932 -1.570796 1.394932
11 0.244790 27.700287 26.956451 -7.865331 -0.006162 7.779720
12 -48.533508 50.487892 46.780914 0.785561 -2.309615 -0.977985
13 -44.139824 -5.858725 0.000000 0.000000 0.000000 2.789864
14 107.462242 0.693102 0.623600 0.000000 0.000000 0.000000
15 -48.533508 50.487892 -46.780914 -0.785561 2.309615 -0.977985
16 0.244790 27.700287 -26.956451 11.006924 3.135431 10.921312
17 12.067241 32.559124 -25.800257 -4.868761 1.252792 -5.083680
18 22.486000 0.000000 0.000000 -1.570796 -0.312102 -0.000000
19 15.947000 0.000000 0.000000 1.645877 0.252917 0.626587
20 19.768000 0.000000 0.000000 -0.000001 0.000000 0.234927
time 5
1 0.000000 -18.629589 29.693361 -1.570796 0.351728 -1.570796
2 65.355888 0.000000 0.000000 0.000000 0.000000 -0.134439
3 12.067241 32.559124 25.800257 -20.263980 -1.252792 20.049061
4 22.486000 0.000000 0.000000 1.570796 0.312102 -0.000000
5 15.947000 0.000000 0.000000 -7.929063 6.030268 0.626587
6 19.768000 0.000000 0.000000 0.000001 -0.000000 0.234927
7 58.241417 29.326660 0.000000 0.000000 0.000000 0.386773
8 66.352951 0.000000 0.000000 0.000000 0.000000 0.092031
9 31.718473 17.190714 0.000000 0.000000 0.000000 -0.226569
10 21.979525 30.388176 0.000000 1.394932 -1.570796 1.394932
11 0.247908 27.714436 26.775124 -7.865332 0.012149 7.779512
12 -48.533508 50.487892 46.780914 0.785561 -2.309615 -0.977985
13 -44.139824 -5.858725 0.000000 0.000000 0.000000 2.789864
14 107.462242 0.693102 0.623600 0.000000 0.000000 0.000000
15 -48.533508 50.487892 -46.780914 -0.785561 2.309615 -0.977985
16 0.247908 27.714436 -26.775124 11.006925 3.153742 10.921105
17 12.067241 32.559124 -25.800257 -4.868761 1.252792 -5.083680
18 22.486000 0.000000 0.000000 -1.570796 -0.312102 -0.000000
19 15.947000 0.000000 0.000000 1.645877 0.252917 0.626587
20 19.768000 0.000000 0.000000 -0.000001 0.000000 0.234927
time 6
1 0.000000 -18.629589 29.693361 -1.570796 0.351728 -1.570796
2 65.355888 0.000000 0.000000 0.000000 0.000000 -0.134439
3 12.067241 32.559124 25.800257 -20.263980 -1.252792 20.049061
4 22.486000 0.000000 0.000000 1.570796 0.312102 -0.000000
5 15.947000 0.000000 0.000000 -7.929063 6.030268 0.626587
6 19.768000 0.000000 0.000000 0.000001 -0.000000 0.234927
7 58.241417 29.326660 0.000000 0.000000 0.000000 0.386773
8 66.352951 0.000000 0.000000 0.000000 0.000000 0.092031
9 31.718473 17.190714 0.000000 0.000000 0.000000 -0.226569
10 21.913294 30.207706 0.000000 1.394932 -1.570796 1.394932
11 0.250830 27.727699 26.605135 -7.865336 0.030213 7.779307
12 -48.533508 50.487892 46.780914 0.785561 -2.309615 -0.977985
13 -44.139824 -5.858725 0.000000 0.000000 0.000000 2.789864
14 107.462242 0.693102 0.623600 0.000000 0.000000 0.000000
15 -48.533508 50.487892 -46.780914 -0.785561 2.309615 -0.977985
16 0.250830 27.727699 -26.605135 11.006929 3.171806 10.920899
17 12.067241 32.559124 -25.800257 -4.868761 1.252792 -5.083680
18 22.486000 0.000000 0.000000 -1.570796 -0.312102 -0.000000
19 15.947000 0.000000 0.000000 1.645877 0.252917 0.626587
20 19.768000 0.000000 0.000000 -0.000001 0.000000 0.234927
time 7
1 0.000000 -18.629589 29.693361 -1.570796 0.351728 -1.570796
2 65.355888 0.000000 0.000000 0.000000 0.000000 -0.134439
3 12.067241 32.559124 25.800257 -20.263980 -1.252792 20.049061
4 22.486000 0.000000 0.000000 1.570796 0.312102 -0.000000
5 15.947000 0.000000 0.000000 -7.929063 6.030268 0.626587
6 19.768000 0.000000 0.000000 0.000001 -0.000000 0.234927
7 58.241417 29.326660 0.000000 0.000000 0.000000 0.386773
8 66.352951 0.000000 0.000000 0.000000 0.000000 0.092031
9 31.718473 17.190714 0.000000 0.000000 0.000000 -0.226569
10 21.852039 30.040796 0.000000 1.394932 -1.570796 1.394932
11 0.253589 27.740219 26.444679 -7.865344 0.047909 7.779106
12 -48.533508 50.487892 46.780914 0.785561 -2.309615 -0.977985
13 -44.139824 -5.858725 0.000000 0.000000 0.000000 2.789864
14 107.462242 0.693102 0.623600 0.000000 0.000000 0.000000
15 -48.533508 50.487892 -46.780914 -0.785561 2.309615 -0.977985
16 0.253589 27.740219 -26.444679 11.006936 3.189502 10.920699
17 12.067241 32.559124 -25.800257 -4.868761 1.252792 -5.083680
18 22.486000 0.000000 0.000000 -1.570796 -0.312102 -0.000000
19 15.947000 0.000000 0.000000 1.645877 0.252917 0.626587
20 19.768000 0.000000 0.000000 -0.000001 0.000000 0.234927
time 8
1 0.000000 -18.629589 29.693361 -1.570796 0.351728 -1.570796
2 65.355888 0.000000 0.000000 0.000000 0.000000 -0.134439
3 12.067241 32.559124 25.800257 -20.263980 -1.252792 20.049061
4 22.486000 0.000000 0.000000 1.570796 0.312102 -0.000000
5 15.947000 0.000000 0.000000 -7.929063 6.030268 0.626587
6 19.768000 0.000000 0.000000 0.000001 -0.000000 0.234927
7 58.241417 29.326660 0.000000 0.000000 0.000000 0.386773
8 66.352951 0.000000 0.000000 0.000000 0.000000 0.092031
9 31.718473 17.190714 0.000000 0.000000 0.000000 -0.226569
10 21.795015 29.885412 0.000000 1.394932 -1.570796 1.394932
11 0.256204 27.752089 26.292562 -7.865355 0.065117 7.778910
12 -48.533508 50.487892 46.780914 0.785561 -2.309615 -0.977985
13 -44.139824 -5.858725 0.000000 0.000000 0.000000 2.789864
14 107.462242 0.693102 0.623600 0.000000 0.000000 0.000000
15 -48.533508 50.487892 -46.780914 -0.785561 2.309615 -0.977985
16 0.256204 27.752089 -26.292562 11.006948 3.206710 10.920503
17 12.067241 32.559124 -25.800257 -4.868761 1.252792 -5.083680
18 22.486000 0.000000 0.000000 -1.570796 -0.312102 -0.000000
19 15.947000 0.000000 0.000000 1.645877 0.252917 0.626587
20 19.768000 0.000000 0.000000 -0.000001 0.000000 0.234927
time 9
1 0.000000 -18.629589 29.693361 -1.570796 0.351728 -1.570796
2 65.355888 0.000000 0.000000 0.000000 0.000000 -0.134439
3 12.067241 32.559124 25.800257 -20.263980 -1.252792 20.049061
4 22.486000 0.000000 0.000000 1.570796 0.312102 -0.000000
5 15.947000 0.000000 0.000000 -7.929063 6.030268 0.626587
6 19.768000 0.000000 0.000000 0.000001 -0.000000 0.234927
7 58.241417 29.326660 0.000000 0.000000 0.000000 0.386773
8 66.352951 0.000000 0.000000 0.000000 0.000000 0.092031
9 31.718473 17.190714 0.000000 0.000000 0.000000 -0.226569
10 21.741697 29.740126 0.000000 1.394932 -1.570796 1.394932
11 0.258689 27.763369 26.148012 -7.865369 0.081719 7.778720
12 -48.533508 50.487892 46.780914 0.785561 -2.309615 -0.977985
13 -44.139824 -5.858725 0.000000 0.000000 0.000000 2.789864
14 107.462242 0.693102 0.623600 0.000000 0.000000 0.000000
15 -48.533508 50.487892 -46.780914 -0.785561 2.309615 -0.977985
16 0.258689 27.763369 -26.148012 11.006962 3.223311 10.920313
17 12.067241 32.559124 -25.800257 -4.868761 1.252792 -5.083680
18 22.486000 0.000000 0.000000 -1.570796 -0.312102 -0.000000
19 15.947000 0.000000 0.000000 1.645877 0.252917 0.626587
20 19.768000 0.000000 0.000000 -0.000001 0.000000 0.234927
time 10
1 0.000000 -18.629589 29.693361 -1.570796 0.351728 -1.570796
2 65.355888 0.000000 0.000000 0.000000 0.000000 -0.134439
3 12.067241 32.559124 25.800257 -20.263980 -1.252792 20.049061
4 22.486000 0.000000 0.000000 1.570796 0.312102 -0.000000
5 15.947000 0.000000 0.000000 -7.929063 6.030268 0.626587
6 19.768000 0.000000 0.000000 0.000001 -0.000000 0.234927
7 58.241417 29.326660 0.000000 0.000000 0.000000 0.386773
8 66.352951 0.000000 0.000000 0.000000 0.000000 0.092031
9 31.718473 17.190714 0.000000 0.000000 0.000000 -0.226569
10 21.691711 29.603918 0.000000 1.394932 -1.570796 1.394932
11 0.261051 27.774092 26.010582 -7.865385 0.097591 7.778539
12 -48.533508 50.487892 46.780914 0.785561 -2.309615 -0.977985
13 -44.139824 -5.858725 0.000000 0.000000 0.000000 2.789864
14 107.462242 0.693102 0.623600 0.000000 0.000000 0.000000
15 -48.533508 50.487892 -46.780914 -0.785561 2.309615 -0.977985
16 0.261051 27.774092 -26.010582 11.006978 3.239184 10.920131
17 12.067241 32.559124 -25.800257 -4.868761 1.252792 -5.083680
18 22.486000 0.000000 0.000000 -1.570796 -0.312102 -0.000000
19 15.947000 0.000000 0.000000 1.645877 0.252917 0.626587
20 19.768000 0.000000 0.000000 -0.000001 0.000000 0.234927
time 11
1 0.000000 -18.629589 29.693361 -1.570796 0.351728 -1.570796
2 65.355888 0.000000 0.000000 0.000000 0.000000 -0.134439
3 12.067241 32.559124 25.800257 -20.263980 -1.252792 20.049061
4 22.486000 0.000000 0.000000 1.570796 0.312102 -0.000000
5 15.947000 0.000000 0.000000 -7.929063 6.030268 0.626587
6 19.768000 0.000000 0.000000 0.000001 -0.000000 0.234927
7 58.241417 29.326660 0.000000 0.000000 0.000000 0.386773
8 66.352951 0.000000 0.000000 0.000000 0.000000 0.092031
9 31.718473 17.190714 0.000000 0.000000 0.000000 -0.226569
10 21.644793 29.476070 0.000000 1.394932 -1.570796 1.394932
11 0.263294 27.784269 25.880129 -7.865403 0.112601 7.778366
12 -48.533508 50.487892 46.780914 0.785561 -2.309615 -0.977985
13 -44.139824 -5.858725 0.000000 0.000000 0.000000 2.789864
14 107.462242 0.693102 0.623600 0.000000 0.000000 0.000000
15 -48.533508 50.487892 -46.780914 -0.785561 2.309615 -0.977985
16 0.263294 27.784269 -25.880129 11.006996 3.254193 10.919960
17 12.067241 32.559124 -25.800257 -4.868761 1.252792 -5.083680
18 22.486000 0.000000 0.000000 -1.570796 -0.312102 -0.000000
19 15.947000 0.000000 0.000000 1.645877 0.252917 0.626587
20 19.768000 0.000000 0.000000 -0.000001 0.000000 0.234927
time 12
1 0.000000 -18.629589 29.693361 -1.570796 0.351728 -1.570796
2 65.355888 0.000000 0.000000 0.000000 0.000000 -0.134439
3 12.067241 32.559124 25.800257 -20.263980 -1.252792 20.049061
4 22.486000 0.000000 0.000000 1.570796 0.312102 -0.000000
5 15.947000 0.000000 0.000000 -7.929063 6.030268 0.626587
6 19.768000 0.000000 0.000000 0.000001 -0.000000 0.234927
7 58.241417 29.326660 0.000000 0.000000 0.000000 0.386773
8 66.352951 0.000000 0.000000 0.000000 0.000000 0.092031
9 31.718473 17.190714 0.000000 0.000000 0.000000 -0.226569
10 21.600767 29.356106 0.000000 1.394932 -1.570796 1.394932
11 0.265414 27.793888 25.756855 -7.865423 0.126603 7.778205
12 -48.533508 50.487892 46.780914 0.785561 -2.309615 -0.977985
13 -44.139824 -5.858725 0.000000 0.000000 0.000000 2.789864
14 107.462242 0.693102 0.623600 0.000000 0.000000 0.000000
15 -48.533508 50.487892 -46.780914 -0.785561 2.309615 -0.977985
16 0.265414 27.793888 -25.756855 11.007015 3.268195 10.919798
17 12.067241 32.559124 -25.800257 -4.868761 1.252792 -5.083680
18 22.486000 0.000000 0.000000 -1.570796 -0.312102 -0.000000
19 15.947000 0.000000 0.000000 1.645877 0.252917 0.626587
20 19.768000 0.000000 0.000000 -0.000001 0.000000 0.234927
time 13
1 0.000000 -18.629589 29.693361 -1.570796 0.351728 -1.570796
2 65.355888 0.000000 0.000000 0.000000 0.000000 -0.134439
3 12.067241 32.559124 25.800257 -20.263980 -1.252792 20.049061
4 22.486000 0.000000 0.000000 1.570796 0.312102 -0.000000
5 15.947000 0.000000 0.000000 -7.929063 6.030268 0.626587
6 19.768000 0.000000 0.000000 0.000001 -0.000000 0.234927
7 58.241417 29.326660 0.000000 0.000000 0.000000 0.386773
8 66.352951 0.000000 0.000000 0.000000 0.000000 0.092031
9 31.718473 17.190714 0.000000 0.000000 0.000000 -0.226569
10 21.559534 29.243755 0.000000 1.394932 -1.570796 1.394932
11 0.267397 27.802893 25.641464 -7.865442 0.139432 7.778057
12 -48.533508 50.487892 46.780914 0.785561 -2.309615 -0.977985
13 -44.139824 -5.858725 0.000000 0.000000 0.000000 2.789864
14 107.462242 0.693102 0.623600 0.000000 0.000000 0.000000
15 -48.533508 50.487892 -46.780914 -0.785561 2.309615 -0.977985
16 0.267397 27.802893 -25.641464 11.007034 3.281025 10.919650
17 12.067241 32.559124 -25.800257 -4.868761 1.252792 -5.083680
18 22.486000 0.000000 0.000000 -1.570796 -0.312102 -0.000000
19 15.947000 0.000000 0.000000 1.645877 0.252917 0.626587
20 19.768000 0.000000 0.000000 -0.000001 0.000000 0.234927
time 14
1 0.000000 -18.629589 29.693361 -1.570796 0.351728 -1.570796
2 65.355888 0.000000 0.000000 0.000000 0.000000 -0.134439
3 12.067241 32.559124 25.800257 -20.263980 -1.252792 20.049061
4 22.486000 0.000000 0.000000 1.570796 0.312102 -0.000000
5 15.947000 0.000000 0.000000 -7.929063 6.030268 0.626587
6 19.768000 0.000000 0.000000 0.000001 -0.000000 0.234927
7 58.241417 29.326660 0.000000 0.000000 0.000000 0.386773
8 66.352951 0.000000 0.000000 0.000000 0.000000 0.092031
9 31.718473 17.190714 0.000000 0.000000 0.000000 -0.226569
10 21.521072 29.138948 0.000000 1.394932 -1.570796 1.394932
11 0.269217 27.811153 25.535595 -7.865461 0.150900 7.777924
12 -48.533508 50.487892 46.780914 0.785561 -2.309615 -0.977985
13 -44.139824 -5.858725 0.000000 0.000000 0.000000 2.789864
14 107.462242 0.693102 0.623600 0.000000 0.000000 0.000000
15 -48.533508 50.487892 -46.780914 -0.785561 2.309615 -0.977985
16 0.269217 27.811153 -25.535595 11.007053 3.292493 10.919516
17 12.067241 32.559124 -25.800257 -4.868761 1.252792 -5.083680
18 22.486000 0.000000 0.000000 -1.570796 -0.312102 -0.000000
19 15.947000 0.000000 0.000000 1.645877 0.252917 0.626587
20 19.768000 0.000000 0.000000 -0.000001 0.000000 0.234927
time 15
1 0.000000 -18.629589 29.693361 -1.570796 0.351728 -1.570796
2 65.355888 0.000000 0.000000 0.000000 0.000000 -0.134439
3 12.067241 32.559124 25.800257 -20.263980 -1.252792 20.049061
4 22.486000 0.000000 0.000000 1.570796 0.312102 -0.000000
5 15.947000 0.000000 0.000000 -7.929063 6.030268 0.626587
6 19.768000 0.000000 0.000000 0.000001 -0.000000 0.234927
7 58.241417 29.326660 0.000000 0.000000 0.000000 0.386773
8 66.352951 0.000000 0.000000 0.000000 0.000000 0.092031
9 31.718473 17.190714 0.000000 0.000000 0.000000 -0.226569
10 21.485435 29.041840 0.000000 1.394932 -1.570796 1.394932
11 0.270804 27.818356 25.443283 -7.865479 0.160780 7.777809
12 -48.533508 50.487892 46.780914 0.785561 -2.309615 -0.977985
13 -44.139824 -5.858725 0.000000 0.000000 0.000000 2.789864
14 107.462242 0.693102 0.623600 0.000000 0.000000 0.000000
15 -48.533508 50.487892 -46.780914 -0.785561 2.309615 -0.977985
16 0.270804 27.818356 -25.443283 11.007072 3.302373 10.919401
17 12.067241 32.559124 -25.800257 -4.868761 1.252792 -5.083680
18 22.486000 0.000000 0.000000 -1.570796 -0.312102 -0.000000
19 15.947000 0.000000 0.000000 1.645877 0.252917 0.626587
20 19.768000 0.000000 0.000000 -0.000001 0.000000 0.234927
time 16
1 0.000000 -18.629589 29.693361 -1.570796 0.351728 -1.570796
2 65.355888 0.000000 0.000000 0.000000 0.000000 -0.134439
3 12.067241 32.559124 25.800257 -20.263980 -1.252792 20.049061
4 22.486000 0.000000 0.000000 1.570796 0.312102 -0.000000
5 15.947000 0.000000 0.000000 -7.929063 6.030268 0.626587
6 19.768000 0.000000 0.000000 0.000001 -0.000000 0.234927
7 58.241417 29.326660 0.000000 0.000000 0.000000 0.386773
8 66.352951 0.000000 0.000000 0.000000 0.000000 0.092031
9 31.718473 17.190714 0.000000 0.000000 0.000000 -0.226569
10 21.452784 28.952868 0.000000 1.394932 -1.570796 1.394932
11 0.269947 27.814465 25.493162 -7.865494 0.168799 7.777716
12 -48.533508 50.487892 46.780914 0.785561 -2.309615 -0.977985
13 -44.139824 -5.858725 0.000000 0.000000 0.000000 2.789864
14 107.462242 0.693102 0.623600 0.000000 0.000000 0.000000
15 -48.533508 50.487892 -46.780914 -0.785561 2.309615 -0.977985
16 0.269947 27.814465 -25.493162 11.007088 3.310392 10.919309
17 12.067241 32.559124 -25.800257 -4.868761 1.252792 -5.083680
18 22.486000 0.000000 0.000000 -1.570796 -0.312102 -0.000000
19 15.947000 0.000000 0.000000 1.645877 0.252917 0.626587
20 19.768000 0.000000 0.000000 -0.000001 0.000000 0.234927
time 17
1 0.000000 -18.629589 29.693361 -1.570796 0.351728 -1.570796
2 65.355888 0.000000 0.000000 0.000000 0.000000 -0.134439
3 12.067241 32.559124 25.800257 -20.263980 -1.252792 20.049061
4 22.486000 0.000000 0.000000 1.570796 0.312102 -0.000000
5 15.947000 0.000000 0.000000 -7.929063 6.030268 0.626587
6 19.768000 0.000000 0.000000 0.000001 -0.000000 0.234927
7 58.241417 29.326660 0.000000 0.000000 0.000000 0.386773
8 66.352951 0.000000 0.000000 0.000000 0.000000 0.092031
9 31.718473 17.190714 0.000000 0.000000 0.000000 -0.226569
10 21.423424 28.872869 0.000000 1.394932 -1.570796 1.394932
11 0.265762 27.795471 25.736563 -7.865506 0.174616 7.777648
12 -48.533508 50.487892 46.780914 0.785561 -2.309615 -0.977985
13 -44.139824 -5.858725 0.000000 0.000000 0.000000 2.789864
14 107.462242 0.693102 0.623600 0.000000 0.000000 0.000000
15 -48.533508 50.487892 -46.780914 -0.785561 2.309615 -0.977985
16 0.265762 27.795471 -25.736563 11.007099 3.316209 10.919241
17 12.067241 32.559124 -25.800257 -4.868761 1.252792 -5.083680
18 22.486000 0.000000 0.000000 -1.570796 -0.312102 -0.000000
19 15.947000 0.000000 0.000000 1.645877 0.252917 0.626587
20 19.768000 0.000000 0.000000 -0.000001 0.000000 0.234927
time 18
1 0.000000 -18.629589 29.693361 -1.570796 0.351728 -1.570796
2 65.355888 0.000000 0.000000 0.000000 0.000000 -0.134439
3 12.067241 32.559124 25.800257 -20.263980 -1.252792 20.049061
4 22.486000 0.000000 0.000000 1.570796 0.312102 -0.000000
5 15.947000 0.000000 0.000000 -7.929063 6.030268 0.626587
6 19.768000 0.000000 0.000000 0.000001 -0.000000 0.234927
7 58.241417 29.326660 0.000000 0.000000 0.000000 0.386773
8 66.352951 0.000000 0.000000 0.000000 0.000000 0.092031
9 31.718473 17.190714 0.000000 0.000000 0.000000 -0.226569
10 21.397915 28.803360 0.000000 1.394932 -1.570796 1.394932
11 0.259383 27.766520 26.107607 -7.865513 0.177794 7.777611
12 -48.533508 50.487892 46.780914 0.785561 -2.309615 -0.977985
13 -44.139824 -5.858725 0.000000 0.000000 0.000000 2.789864
14 107.462242 0.693102 0.623600 0.000000 0.000000 0.000000
15 -48.533508 50.487892 -46.780914 -0.785561 2.309615 -0.977985
16 0.259383 27.766520 -26.107607 11.007106 3.319386 10.919203
17 12.067241 32.559124 -25.800257 -4.868761 1.252792 -5.083680
18 22.486000 0.000000 0.000000 -1.570796 -0.312102 -0.000000
19 15.947000 0.000000 0.000000 1.645877 0.252917 0.626587
20 19.768000 0.000000 0.000000 -0.000001 0.000000 0.234927
time 19
1 0.000000 -18.629589 29.693361 -1.570796 0.351728 -1.570796
2 65.355888 0.000000 0.000000 0.000000 0.000000 -0.134439
3 12.067241 32.559124 25.800257 -20.263980 -1.252792 20.049061
4 22.486000 0.000000 0.000000 1.570796 0.312102 -0.000000
5 15.947000 0.000000 0.000000 -7.929063 6.030268 0.626587
6 19.768000 0.000000 0.000000 0.000001 -0.000000 0.234927
7 58.241417 29.326660 0.000000 0.000000 0.000000 0.386773
8 66.352951 0.000000 0.000000 0.000000 0.000000 0.092031
9 31.718473 17.190714 0.000000 0.000000 0.000000 -0.226569
10 21.377291 28.747160 0.000000 1.394932 -1.570796 1.394932
11 0.251456 27.730541 26.568718 -7.865513 0.177749 7.777611
12 -48.533508 50.487892 46.780914 0.785561 -2.309615 -0.977985
13 -44.139824 -5.858725 0.000000 0.000000 0.000000 2.789864
14 107.462242 0.693102 0.623600 0.000000 0.000000 0.000000
15 -48.533508 50.487892 -46.780914 -0.785561 2.309615 -0.977985
16 0.251456 27.730541 -26.568718 11.007106 3.319342 10.919203
17 12.067241 32.559124 -25.800257 -4.868761 1.252792 -5.083680
18 22.486000 0.000000 0.000000 -1.570796 -0.312102 -0.000000
19 15.947000 0.000000 0.000000 1.645877 0.252917 0.626587
20 19.768000 0.000000 0.000000 -0.000001 0.000000 0.234927
time 20
1 0.000000 -18.629589 29.693361 -1.570796 0.351728 -1.570796
2 65.355888 0.000000 0.000000 0.000000 0.000000 -0.134439
3 12.067241 32.559124 25.800257 -20.263980 -1.252792 20.049061
4 22.486000 0.000000 0.000000 1.570796 0.312102 -0.000000
5 15.947000 0.000000 0.000000 -7.929063 6.030268 0.626587
6 19.768000 0.000000 0.000000 0.000001 -0.000000 0.234927
7 58.241417 29.326660 0.000000 0.000000 0.000000 0.386773
8 66.352951 0.000000 0.000000 0.000000 0.000000 0.092031
9 31.718473 17.190714 0.000000 0.000000 0.000000 -0.226569
10 21.363758 28.710283 0.000000 1.394932 -1.570796 1.394932
11 0.242397 27.689426 27.095642 -7.865486 0.164668 7.777764
12 -48.533508 50.487892 46.780914 0.785561 -2.309615 -0.977985
13 -44.139824 -5.858725 0.000000 0.000000 0.000000 2.789864
14 107.462242 0.693102 0.623600 0.000000 0.000000 0.000000
15 -48.533508 50.487892 -46.780914 -0.785561 2.309615 -0.977985
16 0.242397 27.689426 -27.095642 11.007079 3.306261 10.919357
17 12.067241 32.559124 -25.800257 -4.868761 1.252792 -5.083680
18 22.486000 0.000000 0.000000 -1.570796 -0.312102 -0.000000
19 15.947000 0.000000 0.000000 1.645877 0.252917 0.626587
20 19.768000 0.000000 0.000000 -0.000001 0.000000 0.234927
time 21
1 0.000000 -18.629589 29.693361 -1.570796 0.351728 -1.570796
2 65.355888 0.000000 0.000000 0.000000 0.000000 -0.134439
3 12.067241 32.559124 25.800257 -20.263980 -1.252792 20.049061
4 22.486000 0.000000 0.000000 1.570796 0.312102 -0.000000
5 15.947000 0.000000 0.000000 -7.929063 6.030268 0.626587
6 19.768000 0.000000 0.000000 0.000001 -0.000000 0.234927
7 58.241417 29.326660 0.000000 0.000000 0.000000 0.386773
8 66.352951 0.000000 0.000000 0.000000 0.000000 0.092031
9 31.718473 17.190714 0.000000 0.000000 0.000000 -0.226569
10 21.363863 28.710571 0.000000 1.394932 -1.570796 1.394932
11 0.232502 27.644518 27.671204 -7.865440 0.138110 7.778072
12 -48.533508 50.487892 46.780914 0.785561 -2.309615 -0.977985
13 -44.139824 -5.858725 0.000000 0.000000 0.000000 2.789864
14 107.462242 0.693102 0.623600 0.000000 0.000000 0.000000
15 -48.533508 50.487892 -46.780914 -0.785561 2.309615 -0.977985
16 0.232502 27.644518 -27.671204 11.007032 3.279703 10.919665
17 12.067241 32.559124 -25.800257 -4.868761 1.252792 -5.083680
18 22.486000 0.000000 0.000000 -1.570796 -0.312102 -0.000000
19 15.947000 0.000000 0.000000 1.645877 0.252917 0.626587
20 19.768000 0.000000 0.000000 -0.000001 0.000000 0.234927
time 22
1 0.000000 -18.629589 29.693361 -1.570796 0.351728 -1.570796
2 65.355888 0.000000 0.000000 0.000000 0.000000 -0.134439
3 12.067241 32.559124 25.800257 -20.263980 -1.252792 20.049061
4 22.486000 0.000000 0.000000 1.570796 0.312102 -0.000000
5 15.947000 0.000000 0.000000 -7.929063 6.030268 0.626587
6 19.768000 0.000000 0.000000 0.000001 -0.000000 0.234927
7 58.241417 29.326660 0.000000 0.000000 0.000000 0.386773
8 66.352951 0.000000 0.000000 0.000000 0.000000 0.092031
9 31.718473 17.190714 0.000000 0.000000 0.000000 -0.226569
10 21.436405 28.908241 0.000000 1.394932 -1.570796 1.394932
11 0.221997 27.596838 28.282255 -7.865393 0.104394 7.778461
12 -48.533508 50.487892 46.780914 0.785561 -2.309615 -0.977985
13 -44.139824 -5.858725 0.000000 0.000000 0.000000 2.789864
14 107.462242 0.693102 0.623600 0.000000 0.000000 0.000000
15 -48.533508 50.487892 -46.780914 -0.785561 2.309615 -0.977985
16 0.221997 27.596838 -28.282255 11.006985 3.245986 10.920053
17 12.067241 32.559124 -25.800257 -4.868761 1.252792 -5.083680
18 22.486000 0.000000 0.000000 -1.570796 -0.312102 -0.000000
19 15.947000 0.000000 0.000000 1.645877 0.252917 0.626587
20 19.768000 0.000000 0.000000 -0.000001 0.000000 0.234927
time 23
1 0.000000 -18.629589 29.693361 -1.570796 0.351728 -1.570796
2 65.355888 0.000000 0.000000 0.000000 0.000000 -0.134439
3 12.067241 32.559124 25.800257 -20.263980 -1.252792 20.049061
4 22.486000 0.000000 0.000000 1.570796 0.312102 -0.000000
5 15.947000 0.000000 0.000000 -7.929063 6.030268 0.626587
6 19.768000 0.000000 0.000000 0.000001 -0.000000 0.234927
7 58.241417 29.326660 0.000000 0.000000 0.000000 0.386773
8 66.352951 0.000000 0.000000 0.000000 0.000000 0.092031
9 31.718473 17.190714 0.000000 0.000000 0.000000 -0.226569
10 21.583387 29.308750 0.000000 1.394932 -1.570796 1.394932
11 0.211069 27.547239 28.917927 -7.865356 0.066330 7.778896
12 -48.533508 50.487892 46.780914 0.785561 -2.309615 -0.977985
13 -44.139824 -5.858725 0.000000 0.000000 0.000000 2.789864
14 107.462242 0.693102 0.623600 0.000000 0.000000 0.000000
15 -48.533508 50.487892 -46.780914 -0.785561 2.309615 -0.977985
16 0.211069 27.547239 -28.917927 11.006949 3.207923 10.920489
17 12.067241 32.559124 -25.800257 -4.868761 1.252792 -5.083680
18 22.486000 0.000000 0.000000 -1.570796 -0.312102 -0.000000
19 15.947000 0.000000 0.000000 1.645877 0.252917 0.626587
20 19.768000 0.000000 0.000000 -0.000001 0.000000 0.234927
time 24
1 0.000000 -18.629589 29.693361 -1.570796 0.351728 -1.570796
2 65.355888 0.000000 0.000000 0.000000 0.000000 -0.134439
3 12.067241 32.559124 25.800257 -20.263980 -1.252792 20.049061
4 22.486000 0.000000 0.000000 1.570796 0.312102 -0.000000
5 15.947000 0.000000 0.000000 -7.929063 6.030268 0.626587
6 19.768000 0.000000 0.000000 0.000001 -0.000000 0.234927
7 58.241417 29.326660 0.000000 0.000000 0.000000 0.386773
8 66.352951 0.000000 0.000000 0.000000 0.000000 0.092031
9 31.718473 17.190714 0.000000 0.000000 0.000000 -0.226569
10 21.771664 29.821781 0.000000 1.394932 -1.570796 1.394932
11 0.199884 27.496477 29.568502 -7.865335 0.025502 7.779360
12 -48.533508 50.487892 46.780914 0.785561 -2.309615 -0.977985
13 -44.139824 -5.858725 0.000000 0.000000 0.000000 2.789864
14 107.462242 0.693102 0.623600 0.000000 0.000000 0.000000
15 -48.533508 50.487892 -46.780914 -0.785561 2.309615 -0.977985
16 0.199884 27.496477 -29.568502 11.006927 3.167094 10.920953
17 12.067241 32.559124 -25.800257 -4.868761 1.252792 -5.083680
18 22.486000 0.000000 0.000000 -1.570796 -0.312102 -0.000000
19 15.947000 0.000000 0.000000 1.645877 0.252917 0.626587
20 19.768000 0.000000 0.000000 -0.000001 0.000000 0.234927
time 25
1 0.000000 -18.629589 29.693361 -1.570796 0.351728 -1.570796
2 65.355888 0.000000 0.000000 0.000000 0.000000 -0.134439
3 12.067241 32.559124 25.800257 -20.263980 -1.252792 20.049061
4 22.486000 0.000000 0.000000 1.570796 0.312102 -0.000000
5 15.947000 0.000000 0.000000 -7.929063 6.030268 0.626587
6 19.768000 0.000000 0.000000 0.000001 -0.000000 0.234927
7 58.241417 29.326660 0.000000 0.000000 0.000000 0.386773
8 66.352951 0.000000 0.000000 0.000000 0.000000 0.092031
9 31.718473 17.190714 0.000000 0.000000 0.000000 -0.226569
10 21.985840 30.405388 0.000000 1.394932 -1.570796 1.394932
11 0.188606 27.445290 30.224516 -7.865332 -0.017058 7.779843
12 -48.533508 50.487892 46.780914 0.785561 -2.309615 -0.977985
13 -44.139824 -5.858725 0.000000 0.000000 0.000000 2.789864
14 107.462242 0.693102 0.623600 0.000000 0.000000 0.000000
15 -48.533508 50.487892 -46.780914 -0.785561 2.309615 -0.977985
16 0.188606 27.445290 -30.224516 11.006926 3.124535 10.921436
17 12.067241 32.559124 -25.800257 -4.868761 1.252792 -5.083680
18 22.486000 0.000000 0.000000 -1.570796 -0.312102 -0.000000
19 15.947000 0.000000 0.000000 1.645877 0.252917 0.626587
20 19.768000 0.000000 0.000000 -0.000001 0.000000 0.234927
time 26
1 0.000000 -18.629589 29.693361 -1.570796 0.351728 -1.570796
2 65.355888 0.000000 0.000000 0.000000 0.000000 -0.134439
3 12.067241 32.559124 25.800257 -20.263980 -1.252792 20.049061
4 22.486000 0.000000 0.000000 1.570796 0.312102 -0.000000
5 15.947000 0.000000 0.000000 -7.929063 6.030268 0.626587
6 19.768000 0.000000 0.000000 0.000001 -0.000000 0.234927
7 58.241417 29.326660 0.000000 0.000000 0.000000 0.386773
8 66.352951 0.000000 0.000000 0.000000 0.000000 0.092031
9 31.718473 17.190714 0.000000 0.000000 0.000000 -0.226569
10 22.217066 31.035448 0.000000 1.394932 -1.570796 1.394932
11 0.177409 27.394468 30.875849 -7.865352 -0.060589 7.780338
12 -48.533508 50.487892 46.780914 0.785561 -2.309615 -0.977985
13 -44.139824 -5.858725 0.000000 0.000000 0.000000 2.789864
14 107.462242 0.693102 0.623600 0.000000 0.000000 0.000000
15 -48.533508 50.487892 -46.780914 -0.785561 2.309615 -0.977985
16 0.177409 27.394468 -30.875849 11.006945 3.081003 10.921931
17 12.067241 32.559124 -25.800257 -4.868761 1.252792 -5.083680
18 22.486000 0.000000 0.000000 -1.570796 -0.312102 -0.000000
19 15.947000 0.000000 0.000000 1.645877 0.252917 0.626587
20 19.768000 0.000000 0.000000 -0.000001 0.000000 0.234927
time 27
1 0.000000 -18.629589 29.693361 -1.570796 0.351728 -1.570796
2 65.355888 0.000000 0.000000 0.000000 0.000000 -0.134439
3 12.067241 32.559124 25.800257 -20.263980 -1.252792 20.049061
4 22.486000 0.000000 0.000000 1.570796 0.312102 -0.000000
5 15.947000 0.000000 0.000000 -7.929063 6.030268 0.626587
6 19.768000 0.000000 0.000000 0.000001 -0.000000 0.234927
7 58.241417 29.326660 0.000000 0.000000 0.000000 0.386773
8 66.352951 0.000000 0.000000 0.000000 0.000000 0.092031
9 31.718473 17.190714 0.000000 0.000000 0.000000 -0.226569
10 22.459486 31.696016 0.000000 1.394932 -1.570796 1.394932
11 0.166497 27.344944 31.510546 -7.865393 -0.104474 7.780840
12 -48.533508 50.487892 46.780914 0.785561 -2.309615 -0.977985
13 -44.139824 -5.858725 0.000000 0.000000 0.000000 2.789864
14 107.462242 0.693102 0.623600 0.000000 0.000000 0.000000
15 -48.533508 50.487892 -46.780914 -0.785561 2.309615 -0.977985
16 0.166497 27.344944 -31.510546 11.006985 3.037119 10.922433
17 12.067241 32.559124 -25.800257 -4.868761 1.252792 -5.083680
18 22.486000 0.000000 0.000000 -1.570796 -0.312102 -0.000000
19 15.947000 0.000000 0.000000 1.645877 0.252917 0.626587
20 19.768000 0.000000 0.000000 -0.000001 0.000000 0.234927
time 28
1 0.000000 -18.629589 29.693361 -1.570796 0.351728 -1.570796
2 65.355888 0.000000 0.000000 0.000000 0.000000 -0.134439
3 12.067241 32.559124 25.800257 -20.263980 -1.252792 20.049061
4 22.486000 0.000000 0.000000 1.570796 0.312102 -0.000000
5 15.947000 0.000000 0.000000 -7.929063 6.030268 0.626587
6 19.768000 0.000000 0.000000 0.000001 -0.000000 0.234927
7 58.241417 29.326660 0.000000 0.000000 0.000000 0.386773
8 66.352951 0.000000 0.000000 0.000000 0.000000 0.092031
9 31.718473 17.190714 0.000000 0.000000 0.000000 -0.226569
10 22.708782 32.375320 0.000000 1.394932 -1.570796 1.394932
11 0.156142 27.297947 32.112873 -7.865457 -0.148153 7.781344
12 -48.533508 50.487892 46.780914 0.785561 -2.309615 -0.977985
13 -44.139824 -5.858725 0.000000 0.000000 0.000000 2.789864
14 107.462242 0.693102 0.623600 0.000000 0.000000 0.000000
15 -48.533508 50.487892 -46.780914 -0.785561 2.309615 -0.977985
16 0.156142 27.297947 -32.112873 11.007049 2.993440 10.922937
17 12.067241 32.559124 -25.800257 -4.868761 1.252792 -5.083680
18 22.486000 0.000000 0.000000 -1.570796 -0.312102 -0.000000
19 15.947000 0.000000 0.000000 1.645877 0.252917 0.626587
20 19.768000 0.000000 0.000000 -0.000001 0.000000 0.234927
time 29
1 0.000000 -18.629589 29.693361 -1.570796 0.351728 -1.570796
2 65.355888 0.000000 0.000000 0.000000 0.000000 -0.134439
3 12.067241 32.559124 25.800257 -20.263980 -1.252792 20.049061
4 22.486000 0.000000 0.000000 1.570796 0.312102 -0.000000
5 15.947000 0.000000 0.000000 -7.929063 6.030268 0.626587
6 19.768000 0.000000 0.000000 0.000001 -0.000000 0.234927
7 58.241417 29.326660 0.000000 0.000000 0.000000 0.386773
8 66.352951 0.000000 0.000000 0.000000 0.000000 0.092031
9 31.718473 17.190714 0.000000 0.000000 0.000000 -0.226569
10 22.961424 33.063736 0.000000 1.394932 -1.570796 1.394932
11 0.146745 27.255297 32.659466 -7.865541 -0.191073 7.781846
12 -48.533508 50.487892 46.780914 0.785561 -2.309615 -0.977985
13 -44.139824 -5.858725 0.000000 0.000000 0.000000 2.789864
14 107.462242 0.693102 0.623600 0.000000 0.000000 0.000000
15 -48.533508 50.487892 -46.780914 -0.785561 2.309615 -0.977985
16 0.146745 27.255297 -32.659466 11.007134 2.950520 10.923438
17 12.067241 32.559124 -25.800257 -4.868761 1.252792 -5.083680
18 22.486000 0.000000 0.000000 -1.570796 -0.312102 -0.000000
19 15.947000 0.000000 0.000000 1.645877 0.252917 0.626587
20 19.768000 0.000000 0.000000 -0.000001 0.000000 0.234927
time 30
1 0.000000 -18.629589 29.693361 -1.570796 0.351728 -1.570796
2 65.355888 0.000000 0.000000 0.000000 0.000000 -0.134439
3 12.067241 32.559124 25.800257 -20.263980 -1.252792 20.049061
4 22.486000 0.000000 0.000000 1.570796 0.312102 -0.000000
5 15.947000 0.000000 0.000000 -7.929063 6.030268 0.626587
6 19.768000 0.000000 0.000000 0.000001 -0.000000 0.234927
7 58.241417 29.326660 0.000000 0.000000 0.000000 0.386773
8 66.352951 0.000000 0.000000 0.000000 0.000000 0.092031
9 31.718473 17.190714 0.000000 0.000000 0.000000 -0.226569
10 23.214226 33.752590 0.000000 1.394932 -1.570796 1.394932
11 0.138999 27.220144 33.110004 -7.865645 -0.232627 7.782339
12 -48.533508 50.487892 46.780914 0.785561 -2.309615 -0.977985
13 -44.139824 -5.858725 0.000000 0.000000 0.000000 2.789864
14 107.462242 0.693102 0.623600 0.000000 0.000000 0.000000
15 -48.533508 50.487892 -46.780914 -0.785561 2.309615 -0.977985
16 0.138999 27.220144 -33.110004 11.007238 2.908965 10.923932
17 12.067241 32.559124 -25.800257 -4.868761 1.252792 -5.083680
18 22.486000 0.000000 0.000000 -1.570796 -0.312102 -0.000000
19 15.947000 0.000000 0.000000 1.645877 0.252917 0.626587
20 19.768000 0.000000 0.000000 -0.000001 0.000000 0.234927
time 31
1 0.000000 -18.629589 29.693361 -1.570796 0.351728 -1.570796
2 65.355888 0.000000 0.000000 0.000000 0.000000 -0.134439
3 12.067241 32.559124 25.800257 -20.263980 -1.252792 20.049061
4 22.486000 0.000000 0.000000 1.570796 0.312102 -0.000000
5 15.947000 0.000000 0.000000 -7.929063 6.030268 0.626587
6 19.768000 0.000000 0.000000 0.000001 -0.000000 0.234927
7 58.241417 29.326660 0.000000 0.000000 0.000000 0.386773
8 66.352951 0.000000 0.000000 0.000000 0.000000 0.092031
9 31.718473 17.190714 0.000000 0.000000 0.000000 -0.226569
10 23.464010 34.433228 0.000000 1.394932 -1.570796 1.394932
11 0.134406 27.199295 33.377197 -7.865764 -0.272091 7.782817
12 -48.533508 50.487892 46.780914 0.785561 -2.309615 -0.977985
13 -44.139824 -5.858725 0.000000 0.000000 0.000000 2.789864
14 107.462242 0.693102 0.623600 0.000000 0.000000 0.000000
15 -48.533508 50.487892 -46.780914 -0.785561 2.309615 -0.977985
16 0.134406 27.199295 -33.377197 11.007357 2.869502 10.924409
17 12.067241 32.559124 -25.800257 -4.868761 1.252792 -5.083680
18 22.486000 0.000000 0.000000 -1.570796 -0.312102 -0.000000
19 15.947000 0.000000 0.000000 1.645877 0.252917 0.626587
20 19.768000 0.000000 0.000000 -0.000001 0.000000 0.234927
time 32
1 0.000000 -18.629589 29.693361 -1.570796 0.351728 -1.570796
2 65.355888 0.000000 0.000000 0.000000 0.000000 -0.134439
3 12.067241 32.559124 25.800257 -20.263980 -1.252792 20.049061
4 22.486000 0.000000 0.000000 1.570796 0.312102 -0.000000
5 15.947000 0.000000 0.000000 -7.929063 6.030268 0.626587
6 19.768000 0.000000 0.000000 0.000001 -0.000000 0.234927
7 58.241417 29.326660 0.000000 0.000000 0.000000 0.386773
8 66.352951 0.000000 0.000000 0.000000 0.000000 0.092031
9 31.718473 17.190714 0.000000 0.000000 0.000000 -0.226569
10 23.707277 35.096100 0.000000 1.394932 -1.570796 1.394932
11 0.133007 27.192945 33.458584 -7.865893 -0.308509 7.783267
12 -48.533508 50.487892 46.780914 0.785561 -2.309615 -0.977985
13 -44.139824 -5.858725 0.000000 0.000000 0.000000 2.789864
14 107.462242 0.693102 0.623600 0.000000 0.000000 0.000000
15 -48.533508 50.487892 -46.780914 -0.785561 2.309615 -0.977985
16 0.133007 27.192945 -33.458584 11.007486 2.833083 10.924860
17 12.067241 32.559124 -25.800257 -4.868761 1.252792 -5.083680
18 22.486000 0.000000 0.000000 -1.570796 -0.312102 -0.000000
19 15.947000 0.000000 0.000000 1.645877 0.252917 0.626587
20 19.768000 0.000000 0.000000 -0.000001 0.000000 0.234927
time 33
1 0.000000 -18.629589 29.693361 -1.570796 0.351728 -1.570796
2 65.355888 0.000000 0.000000 0.000000 0.000000 -0.134439
3 12.067241 32.559124 25.800257 -20.263980 -1.252792 20.049061
4 22.486000 0.000000 0.000000 1.570796 0.312102 -0.000000
5 15.947000 0.000000 0.000000 -7.929063 6.030268 0.626587
6 19.768000 0.000000 0.000000 0.000001 -0.000000 0.234927
7 58.241417 29.326660 0.000000 0.000000 0.000000 0.386773
8 66.352951 0.000000 0.000000 0.000000 0.000000 0.092031
9 31.718473 17.190714 0.000000 0.000000 0.000000 -0.226569
10 23.939756 35.729580 0.000000 1.394932 -1.570796 1.394932
11 0.132678 27.191452 33.477715 -7.866022 -0.340507 7.783671
12 -48.533508 50.487892 46.780914 0.785561 -2.309615 -0.977985
13 -44.139824 -5.858725 0.000000 0.000000 0.000000 2.789864
14 107.462242 0.693102 0.623600 0.000000 0.000000 0.000000
15 -48.533508 50.487892 -46.780914 -0.785561 2.309615 -0.977985
16 0.132678 27.191452 -33.477715 11.007615 2.801085 10.925264
17 12.067241 32.559124 -25.800257 -4.868761 1.252792 -5.083680
18 22.486000 0.000000 0.000000 -1.570796 -0.312102 -0.000000
19 15.947000 0.000000 0.000000 1.645877 0.252917 0.626587
20 19.768000 0.000000 0.000000 -0.000001 0.000000 0.234927
time 34
1 0.000000 -18.629589 29.693361 -1.570796 0.351728 -1.570796
2 65.355888 0.000000 0.000000 0.000000 0.000000 -0.134439
3 12.067241 32.559124 25.800257 -20.263980 -1.252792 20.049061
4 22.486000 0.000000 0.000000 1.570796 0.312102 -0.000000
5 15.947000 0.000000 0.000000 -7.929063 6.030268 0.626587
6 19.768000 0.000000 0.000000 0.000001 -0.000000 0.234927
7 58.241417 29.326660 0.000000 0.000000 0.000000 0.386773
8 66.352951 0.000000 0.000000 0.000000 0.000000 0.092031
9 31.718473 17.190714 0.000000 0.000000 0.000000 -0.226569
10 24.155693 36.317982 0.000000 1.394932 -1.570796 1.394932
11 0.133260 27.194094 33.443859 -7.866135 -0.365856 7.783998
12 -48.533508 50.487892 46.780914 0.785561 -2.309615 -0.977985
13 -44.139824 -5.858725 0.000000 0.000000 0.000000 2.789864
14 107.462242 0.693102 0.623600 0.000000 0.000000 0.000000
15 -48.533508 50.487892 -46.780914 -0.785561 2.309615 -0.977985
16 0.133260 27.194094 -33.443859 11.007728 2.775736 10.925591
17 12.067241 32.559124 -25.800257 -4.868761 1.252792 -5.083680
18 22.486000 0.000000 0.000000 -1.570796 -0.312102 -0.000000
19 15.947000 0.000000 0.000000 1.645877 0.252917 0.626587
20 19.768000 0.000000 0.000000 -0.000001 0.000000 0.234927
time 35
1 0.000000 -18.629589 29.693361 -1.570796 0.351728 -1.570796
2 65.355888 0.000000 0.000000 0.000000 0.000000 -0.134439
3 12.067241 32.559124 25.800257 -20.263980 -1.252792 20.049061
4 22.486000 0.000000 0.000000 1.570796 0.312102 -0.000000
5 15.947000 0.000000 0.000000 -7.929063 6.030268 0.626587
6 19.768000 0.000000 0.000000 0.000001 -0.000000 0.234927
7 58.241417 29.326660 0.000000 0.000000 0.000000 0.386773
8 66.352951 0.000000 0.000000 0.000000 0.000000 0.092031
9 31.718473 17.190714 0.000000 0.000000 0.000000 -0.226569
10 24.346415 36.837673 0.000000 1.394932 -1.570796 1.394932
11 0.134629 27.200310 33.364193 -7.866204 -0.380327 7.784188
12 -48.533508 50.487892 46.780914 0.785561 -2.309615 -0.977985
13 -44.139824 -5.858725 0.000000 0.000000 0.000000 2.789864
14 107.462242 0.693102 0.623600 0.000000 0.000000 0.000000
15 -48.533508 50.487892 -46.780914 -0.785561 2.309615 -0.977985
16 0.134629 27.200310 -33.364193 11.007797 2.761266 10.925780
17 12.067241 32.559124 -25.800257 -4.868761 1.252792 -5.083680
18 22.486000 0.000000 0.000000 -1.570796 -0.312102 -0.000000
19 15.947000 0.000000 0.000000 1.645877 0.252917 0.626587
20 19.768000 0.000000 0.000000 -0.000001 0.000000 0.234927
time 36
1 0.000000 -18.629589 29.693361 -1.570796 0.351728 -1.570796
2 65.355888 0.000000 0.000000 0.000000 0.000000 -0.134439
3 12.067241 32.559124 25.800257 -20.263980 -1.252792 20.049061
4 22.486000 0.000000 0.000000 1.570796 0.312102 -0.000000
5 15.947000 0.000000 0.000000 -7.929063 6.030268 0.626587
6 19.768000 0.000000 0.000000 0.000001 -0.000000 0.234927
7 58.241417 29.326660 0.000000 0.000000 0.000000 0.386773
8 66.352951 0.000000 0.000000 0.000000 0.000000 0.092031
9 31.718473 17.190714 0.000000 0.000000 0.000000 -0.226569
10 24.496897 37.247723 0.000000 1.394932 -1.570796 1.394932
11 0.136688 27.209656 33.244415 -7.866215 -0.382549 7.784217
12 -48.533508 50.487892 46.780914 0.785561 -2.309615 -0.977985
13 -44.139824 -5.858725 0.000000 0.000000 0.000000 2.789864
14 107.462242 0.693102 0.623600 0.000000 0.000000 0.000000
15 -48.533508 50.487892 -46.780914 -0.785561 2.309615 -0.977985
16 0.136688 27.209656 -33.244415 11.007808 2.759044 10.925809
17 12.067241 32.559124 -25.800257 -4.868761 1.252792 -5.083680
18 22.486000 0.000000 0.000000 -1.570796 -0.312102 -0.000000
19 15.947000 0.000000 0.000000 1.645877 0.252917 0.626587
20 19.768000 0.000000 0.000000 -0.000001 0.000000 0.234927
time 37
1 0.000000 -18.629589 29.693361 -1.570796 0.351728 -1.570796
2 65.355888 0.000000 0.000000 0.000000 0.000000 -0.134439
3 12.067241 32.559124 25.800257 -20.263980 -1.252792 20.049061
4 22.486000 0.000000 0.000000 1.570796 0.312102 -0.000000
5 15.947000 0.000000 0.000000 -7.929063 6.030268 0.626587
6 19.768000 0.000000 0.000000 0.000001 -0.000000 0.234927
7 58.241417 29.326660 0.000000 0.000000 0.000000 0.386773
8 66.352951 0.000000 0.000000 0.000000 0.000000 0.092031
9 31.718473 17.190714 0.000000 0.000000 0.000000 -0.226569
10 24.575005 37.460556 0.000000 1.394932 -1.570796 1.394932
11 0.139358 27.221771 33.089130 -7.866195 -0.378427 7.784163
12 -48.533508 50.487892 46.780914 0.785561 -2.309615 -0.977985
13 -44.139824 -5.858725 0.000000 0.000000 0.000000 2.789864
14 107.462242 0.693102 0.623600 0.000000 0.000000 0.000000
15 -48.533508 50.487892 -46.780914 -0.785561 2.309615 -0.977985
16 0.139358 27.221771 -33.089130 11.007787 2.763165 10.925755
17 12.067241 32.559124 -25.800257 -4.868761 1.252792 -5.083680
18 22.486000 0.000000 0.000000 -1.570796 -0.312102 -0.000000
19 15.947000 0.000000 0.000000 1.645877 0.252917 0.626587
20 19.768000 0.000000 0.000000 -0.000001 0.000000 0.234927
time 38
1 0.000000 -18.629589 29.693361 -1.570796 0.351728 -1.570796
2 65.355888 0.000000 0.000000 0.000000 0.000000 -0.134439
3 12.067241 32.559124 25.800257 -20.263980 -1.252792 20.049061
4 22.486000 0.000000 0.000000 1.570796 0.312102 -0.000000
5 15.947000 0.000000 0.000000 -7.929063 6.030268 0.626587
6 19.768000 0.000000 0.000000 0.000001 -0.000000 0.234927
7 58.241417 29.326660 0.000000 0.000000 0.000000 0.386773
8 66.352951 0.000000 0.000000 0.000000 0.000000 0.092031
9 31.718473 17.190714 0.000000 0.000000 0.000000 -0.226569
10 24.560171 37.420135 0.000000 1.394932 -1.570796 1.394932
11 0.142573 27.236361 32.902153 -7.866155 -0.370037 7.784053
12 -48.533508 50.487892 46.780914 0.785561 -2.309615 -0.977985
13 -44.139824 -5.858725 0.000000 0.000000 0.000000 2.789864
14 107.462242 0.693102 0.623600 0.000000 0.000000 0.000000
15 -48.533508 50.487892 -46.780914 -0.785561 2.309615 -0.977985
16 0.142573 27.236361 -32.902153 11.007748 2.771556 10.925645
17 12.067241 32.559124 -25.800257 -4.868761 1.252792 -5.083680
18 22.486000 0.000000 0.000000 -1.570796 -0.312102 -0.000000
19 15.947000 0.000000 0.000000 1.645877 0.252917 0.626587
20 19.768000 0.000000 0.000000 -0.000001 0.000000 0.234927
time 39
1 0.000000 -18.629589 29.693361 -1.570796 0.351728 -1.570796
2 65.355888 0.000000 0.000000 0.000000 0.000000 -0.134439
3 12.067241 32.559124 25.800257 -20.263980 -1.252792 20.049061
4 22.486000 0.000000 0.000000 1.570796 0.312102 -0.000000
5 15.947000 0.000000 0.000000 -7.929063 6.030268 0.626587
6 19.768000 0.000000 0.000000 0.000001 -0.000000 0.234927
7 58.241417 29.326660 0.000000 0.000000 0.000000 0.386773
8 66.352951 0.000000 0.000000 0.000000 0.000000 0.092031
9 31.718473 17.190714 0.000000 0.000000 0.000000 -0.226569
10 24.499266 37.254177 0.000000 1.394932 -1.570796 1.394932
11 0.146277 27.253176 32.686672 -7.866102 -0.358531 7.783903
12 -48.533508 50.487892 46.780914 0.785561 -2.309615 -0.977985
13 -44.139824 -5.858725 0.000000 0.000000 0.000000 2.789864
14 107.462242 0.693102 0.623600 0.000000 0.000000 0.000000
15 -48.533508 50.487892 -46.780914 -0.785561 2.309615 -0.977985
16 0.146277 27.253176 -32.686672 11.007695 2.783061 10.925496
17 12.067241 32.559124 -25.800257 -4.868761 1.252792 -5.083680
18 22.486000 0.000000 0.000000 -1.570796 -0.312102 -0.000000
19 15.947000 0.000000 0.000000 1.645877 0.252917 0.626587
20 19.768000 0.000000 0.000000 -0.000001 0.000000 0.234927
time 40
1 0.000000 -18.629589 29.693361 -1.570796 0.351728 -1.570796
2 65.355888 0.000000 0.000000 0.000000 0.000000 -0.134439
3 12.067241 32.559124 25.800257 -20.263980 -1.252792 20.049061
4 22.486000 0.000000 0.000000 1.570796 0.312102 -0.000000
5 15.947000 0.000000 0.000000 -7.929063 6.030268 0.626587
6 19.768000 0.000000 0.000000 0.000001 -0.000000 0.234927
7 58.241417 29.326660 0.000000 0.000000 0.000000 0.386773
8 66.352951 0.000000 0.000000 0.000000 0.000000 0.092031
9 31.718473 17.190714 0.000000 0.000000 0.000000 -0.226569
10 24.410952 37.013535 0.000000 1.394932 -1.570796 1.394932
11 0.150425 27.271999 32.445408 -7.866040 -0.344636 7.783724
12 -48.533508 50.487892 46.780914 0.785561 -2.309615 -0.977985
13 -44.139824 -5.858725 0.000000 0.000000 0.000000 2.789864
14 107.462242 0.693102 0.623600 0.000000 0.000000 0.000000
15 -48.533508 50.487892 -46.780914 -0.785561 2.309615 -0.977985
16 0.150425 27.271999 -32.445408 11.007633 2.796956 10.925317
17 12.067241 32.559124 -25.800257 -4.868761 1.252792 -5.083680
18 22.486000 0.000000 0.000000 -1.570796 -0.312102 -0.000000
19 15.947000 0.000000 0.000000 1.645877 0.252917 0.626587
20 19.768000 0.000000 0.000000 -0.000001 0.000000 0.234927
time 41
1 0.000000 -18.629589 29.693361 -1.570796 0.351728 -1.570796
2 65.355888 0.000000 0.000000 0.000000 0.000000 -0.134439
3 12.067241 32.559124 25.800257 -20.263980 -1.252792 20.049061
4 22.486000 0.000000 0.000000 1.570796 0.312102 -0.000000
5 15.947000 0.000000 0.000000 -7.929063 6.030268 0.626587
6 19.768000 0.000000 0.000000 0.000001 -0.000000 0.234927
7 58.241417 29.326660 0.000000 0.000000 0.000000 0.386773
8 66.352951 0.000000 0.000000 0.000000 0.000000 0.092031
9 31.718473 17.190714 0.000000 0.000000 0.000000 -0.226569
10 24.303963 36.721996 0.000000 1.394932 -1.570796 1.394932
11 0.154975 27.292652 32.180721 -7.865974 -0.328843 7.783523
12 -48.533508 50.487892 46.780914 0.785561 -2.309615 -0.977985
13 -44.139824 -5.858725 0.000000 0.000000 0.000000 2.789864
14 107.462242 0.693102 0.623600 0.000000 0.000000 0.000000
15 -48.533508 50.487892 -46.780914 -0.785561 2.309615 -0.977985
16 0.154975 27.292652 -32.180721 11.007566 2.812749 10.925115
17 12.067241 32.559124 -25.800257 -4.868761 1.252792 -5.083680
18 22.486000 0.000000 0.000000 -1.570796 -0.312102 -0.000000
19 15.947000 0.000000 0.000000 1.645877 0.252917 0.626587
20 19.768000 0.000000 0.000000 -0.000001 0.000000 0.234927
time 42
1 0.000000 -18.629589 29.693361 -1.570796 0.351728 -1.570796
2 65.355888 0.000000 0.000000 0.000000 0.000000 -0.134439
3 12.067241 32.559124 25.800257 -20.263980 -1.252792 20.049061
4 22.486000 0.000000 0.000000 1.570796 0.312102 -0.000000
5 15.947000 0.000000 0.000000 -7.929063 6.030268 0.626587
6 19.768000 0.000000 0.000000 0.000001 -0.000000 0.234927
7 58.241417 29.326660 0.000000 0.000000 0.000000 0.386773
8 66.352951 0.000000 0.000000 0.000000 0.000000 0.092031
9 31.718473 17.190714 0.000000 0.000000 0.000000 -0.226569
10 24.183229 36.393013 0.000000 1.394932 -1.570796 1.394932
11 0.159893 27.314972 31.894672 -7.865905 -0.311508 7.783304
12 -48.533508 50.487892 46.780914 0.785561 -2.309615 -0.977985
13 -44.139824 -5.858725 0.000000 0.000000 0.000000 2.789864
14 107.462242 0.693102 0.623600 0.000000 0.000000 0.000000
15 -48.533508 50.487892 -46.780914 -0.785561 2.309615 -0.977985
16 0.159893 27.314972 -31.894672 11.007498 2.830085 10.924897
17 12.067241 32.559124 -25.800257 -4.868761 1.252792 -5.083680
18 22.486000 0.000000 0.000000 -1.570796 -0.312102 -0.000000
19 15.947000 0.000000 0.000000 1.645877 0.252917 0.626587
20 19.768000 0.000000 0.000000 -0.000001 0.000000 0.234927
time 43
1 0.000000 -18.629589 29.693361 -1.570796 0.351728 -1.570796
2 65.355888 0.000000 0.000000 0.000000 0.000000 -0.134439
3 12.067241 32.559124 25.800257 -20.263980 -1.252792 20.049061
4 22.486000 0.000000 0.000000 1.570796 0.312102 -0.000000
5 15.947000 0.000000 0.000000 -7.929063 6.030268 0.626587
6 19.768000 0.000000 0.000000 0.000001 -0.000000 0.234927
7 58.241417 29.326660 0.000000 0.000000 0.000000 0.386773
8 66.352951 0.000000 0.000000 0.000000 0.000000 0.092031
9 31.718473 17.190714 0.000000 0.000000 0.000000 -0.226569
10 24.051882 36.035107 0.000000 1.394932 -1.570796 1.394932
11 0.165146 27.338814 31.589117 -7.865836 -0.292902 7.783073
12 -48.533508 50.487892 46.780914 0.785561 -2.309615 -0.977985
13 -44.139824 -5.858725 0.000000 0.000000 0.000000 2.789864
14 107.462242 0.693102 0.623600 0.000000 0.000000 0.000000
15 -48.533508 50.487892 -46.780914 -0.785561 2.309615 -0.977985
16 0.165146 27.338814 -31.589117 11.007428 2.848691 10.924665
17 12.067241 32.559124 -25.800257 -4.868761 1.252792 -5.083680
18 22.486000 0.000000 0.000000 -1.570796 -0.312102 -0.000000
19 15.947000 0.000000 0.000000 1.645877 0.252917 0.626587
20 19.768000 0.000000 0.000000 -0.000001 0.000000 0.234927
time 44
1 0.000000 -18.629589 29.693361 -1.570796 0.351728 -1.570796
2 65.355888 0.000000 0.000000 0.000000 0.000000 -0.134439
3 12.067241 32.559124 25.800257 -20.263980 -1.252792 20.049061
4 22.486000 0.000000 0.000000 1.570796 0.312102 -0.000000
5 15.947000 0.000000 0.000000 -7.929063 6.030268 0.626587
6 19.768000 0.000000 0.000000 0.000001 -0.000000 0.234927
7 58.241417 29.326660 0.000000 0.000000 0.000000 0.386773
8 66.352951 0.000000 0.000000 0.000000 0.000000 0.092031
9 31.718473 17.190714 0.000000 0.000000 0.000000 -0.226569
10 23.912062 35.654114 0.000000 1.394932 -1.570796 1.394932
11 0.170705 27.364046 31.265745 -7.865768 -0.273239 7.782831
12 -48.533508 50.487892 46.780914 0.785561 -2.309615 -0.977985
13 -44.139824 -5.858725 0.000000 0.000000 0.000000 2.789864
14 107.462242 0.693102 0.623600 0.000000 0.000000 0.000000
15 -48.533508 50.487892 -46.780914 -0.785561 2.309615 -0.977985
16 0.170705 27.364046 -31.265745 11.007361 2.868354 10.924423
17 12.067241 32.559124 -25.800257 -4.868761 1.252792 -5.083680
18 22.486000 0.000000 0.000000 -1.570796 -0.312102 -0.000000
19 15.947000 0.000000 0.000000 1.645877 0.252917 0.626587
20 19.768000 0.000000 0.000000 -0.000001 0.000000 0.234927
time 45
1 0.000000 -18.629589 29.693361 -1.570796 0.351728 -1.570796
2 65.355888 0.000000 0.000000 0.000000 0.000000 -0.134439
3 12.067241 32.559124 25.800257 -20.263980 -1.252792 20.049061
4 22.486000 0.000000 0.000000 1.570796 0.312102 -0.000000
5 15.947000 0.000000 0.000000 -7.929063 6.030268 0.626587
6 19.768000 0.000000 0.000000 0.000001 -0.000000 0.234927
7 58.241417 29.326660 0.000000 0.000000 0.000000 0.386773
8 66.352951 0.000000 0.000000 0.000000 0.000000 0.092031
9 31.718473 17.190714 0.000000 0.000000 0.000000 -0.226569
10 23.765335 35.254303 0.000000 1.394932 -1.570796 1.394932
11 0.176544 27.390543 30.926146 -7.865703 -0.252699 7.782581
12 -48.533508 50.487892 46.780914 0.785561 -2.309615 -0.977985
13 -44.139824 -5.858725 0.000000 0.000000 0.000000 2.789864
14 107.462242 0.693102 0.623600 0.000000 0.000000 0.000000
15 -48.533508 50.487892 -46.780914 -0.785561 2.309615 -0.977985
16 0.176544 27.390543 -30.926146 11.007295 2.888894 10.924174
17 12.067241 32.559124 -25.800257 -4.868761 1.252792 -5.083680
18 22.486000 0.000000 0.000000 -1.570796 -0.312102 -0.000000
19 15.947000 0.000000 0.000000 1.645877 0.252917 0.626587
20 19.768000 0.000000 0.000000 -0.000001 0.000000 0.234927
time 46
1 0.000000 -18.629589 29.693361 -1.570796 0.351728 -1.570796
2 65.355888 0.000000 0.000000 0.000000 0.000000 -0.134439
3 12.067241 32.559124 25.800257 -20.263980 -1.252792 20.049061
4 22.486000 0.000000 0.000000 1.570796 0.312102 -0.000000
5 15.947000 0.000000 0.000000 -7.929063 6.030268 0.626587
6 19.768000 0.000000 0.000000 0.000001 -0.000000 0.234927
7 58.241417 29.326660 0.000000 0.000000 0.000000 0.386773
8 66.352951 0.000000 0.000000 0.000000 0.000000 0.092031
9 31.718473 17.190714 0.000000 0.000000 0.000000 -0.226569
10 23.612907 34.838951 0.000000 1.394932 -1.570796 1.394932
11 0.182635 27.418188 30.571859 -7.865642 -0.231439 7.782324
12 -48.533508 50.487892 46.780914 0.785561 -2.309615 -0.977985
13 -44.139824 -5.858725 0.000000 0.000000 0.000000 2.789864
14 107.462242 0.693102 0.623600 0.000000 0.000000 0.000000
15 -48.533508 50.487892 -46.780914 -0.785561 2.309615 -0.977985
16 0.182635 27.418188 -30.571859 11.007235 2.910153 10.923917
17 12.067241 32.559124 -25.800257 -4.868761 1.252792 -5.083680
18 22.486000 0.000000 0.000000 -1.570796 -0.312102 -0.000000
19 15.947000 0.000000 0.000000 1.645877 0.252917 0.626587
20 19.768000 0.000000 0.000000 -0.000001 0.000000 0.234927
time 47
1 0.000000 -18.629589 29.693361 -1.570796 0.351728 -1.570796
2 65.355888 0.000000 0.000000 0.000000 0.000000 -0.134439
3 12.067241 32.559124 25.800257 -20.263980 -1.252792 20.049061
4 22.486000 0.000000 0.000000 1.570796 0.312102 -0.000000
5 15.947000 0.000000 0.000000 -7.929063 6.030268 0.626587
6 19.768000 0.000000 0.000000 0.000001 -0.000000 0.234927
7 58.241417 29.326660 0.000000 0.000000 0.000000 0.386773
8 66.352951 0.000000 0.000000 0.000000 0.000000 0.092031
9 31.718473 17.190714 0.000000 0.000000 0.000000 -0.226569
10 23.455751 34.410725 0.000000 1.394932 -1.570796 1.394932
11 0.188951 27.446854 30.204472 -7.865585 -0.209606 7.782065
12 -48.533508 50.487892 46.780914 0.785561 -2.309615 -0.977985
13 -44.139824 -5.858725 0.000000 0.000000 0.000000 2.789864
14 107.462242 0.693102 0.623600 0.000000 0.000000 0.000000
15 -48.533508 50.487892 -46.780914 -0.785561 2.309615 -0.977985
16 0.188951 27.446854 -30.204472 11.007177 2.931986 10.923657
17 12.067241 32.559124 -25.800257 -4.868761 1.252792 -5.083680
18 22.486000 0.000000 0.000000 -1.570796 -0.312102 -0.000000
19 15.947000 0.000000 0.000000 1.645877 0.252917 0.626587
20 19.768000 0.000000 0.000000 -0.000001 0.000000 0.234927
time 48
1 0.000000 -18.629589 29.693361 -1.570796 0.351728 -1.570796
2 65.355888 0.000000 0.000000 0.000000 0.000000 -0.134439
3 12.067241 32.559124 25.800257 -20.263980 -1.252792 20.049061
4 22.486000 0.000000 0.000000 1.570796 0.312102 -0.000000
5 15.947000 0.000000 0.000000 -7.929063 6.030268 0.626587
6 19.768000 0.000000 0.000000 0.000001 -0.000000 0.234927
7 58.241417 29.326660 0.000000 0.000000 0.000000 0.386773
8 66.352951 0.000000 0.000000 0.000000 0.000000 0.092031
9 31.718473 17.190714 0.000000 0.000000 0.000000 -0.226569
10 23.294716 33.971920 0.000000 1.394932 -1.570796 1.394932
11 0.195462 27.476408 29.825705 -7.865533 -0.187349 7.781801
12 -48.533508 50.487892 46.780914 0.785561 -2.309615 -0.977985
13 -44.139824 -5.858725 0.000000 0.000000 0.000000 2.789864
14 107.462242 0.693102 0.623600 0.000000 0.000000 0.000000
15 -48.533508 50.487892 -46.780914 -0.785561 2.309615 -0.977985
16 0.195462 27.476408 -29.825705 11.007126 2.954244 10.923394
17 12.067241 32.559124 -25.800257 -4.868761 1.252792 -5.083680
18 22.486000 0.000000 0.000000 -1.570796 -0.312102 -0.000000
19 15.947000 0.000000 0.000000 1.645877 0.252917 0.626587
20 19.768000 0.000000 0.000000 -0.000001 0.000000 0.234927
time 49
1 0.000000 -18.629589 29.693361 -1.570796 0.351728 -1.570796
2 65.355888 0.000000 0.000000 0.000000 0.000000 -0.134439
3 12.067241 32.559124 25.800257 -20.263980 -1.252792 20.049061
4 22.486000 0.000000 0.000000 1.570796 0.312102 -0.000000
5 15.947000 0.000000 0.000000 -7.929063 6.030268 0.626587
6 19.768000 0.000000 0.000000 0.000001 -0.000000 0.234927
7 58.241417 29.326660 0.000000 0.000000 0.000000 0.386773
8 66.352951 0.000000 0.000000 0.000000 0.000000 0.092031
9 31.718473 17.190714 0.000000 0.000000 0.000000 -0.226569
10 23.130590 33.524696 0.000000 1.394932 -1.570796 1.394932
11 0.202134 27.506689 29.437624 -7.865487 -0.164830 7.781538
12 -48.533508 50.487892 46.780914 0.785561 -2.309615 -0.977985
13 -44.139824 -5.858725 0.000000 0.000000 0.000000 2.789864
14 107.462242 0.693102 0.623600 0.000000 0.000000 0.000000
15 -48.533508 50.487892 -46.780914 -0.785561 2.309615 -0.977985
16 0.202134 27.506689 -29.437624 11.007079 2.976762 10.923131
17 12.067241 32.559124 -25.800257 -4.868761 1.252792 -5.083680
18 22.486000 0.000000 0.000000 -1.570796 -0.312102 -0.000000
19 15.947000 0.000000 0.000000 1.645877 0.252917 0.626587
20 19.768000 0.000000 0.000000 -0.000001 0.000000 0.234927
time 50
1 0.000000 -18.629589 29.693361 -1.570796 0.351728 -1.570796
2 65.355888 0.000000 0.000000 0.000000 0.000000 -0.134439
3 12.067241 32.559124 25.800257 -20.263980 -1.252792 20.049061
4 22.486000 0.000000 0.000000 1.570796 0.312102 -0.000000
5 15.947000 0.000000 0.000000 -7.929063 6.030268 0.626587
6 19.768000 0.000000 0.000000 0.000001 -0.000000 0.234927
7 58.241417 29.326660 0.000000 0.000000 0.000000 0.386773
8 66.352951 0.000000 0.000000 0.000000 0.000000 0.092031
9 31.718473 17.190714 0.000000 0.000000 0.000000 -0.226569
10 22.964201 33.071304 0.000000 1.394932 -1.570796 1.394932
11 0.208919 27.537479 29.043001 -7.865446 -0.142258 7.781276
12 -48.533508 50.487892 46.780914 0.785561 -2.309615 -0.977985
13 -44.139824 -5.858725 0.000000 0.000000 0.000000 2.789864
14 107.462242 0.693102 0.623600 0.000000 0.000000 0.000000
15 -48.533508 50.487892 -46.780914 -0.785561 2.309615 -0.977985
16 0.208919 27.537479 -29.043001 11.007040 2.999335 10.922868
17 12.067241 32.559124 -25.800257 -4.868761 1.252792 -5.083680
18 22.486000 0.000000 0.000000 -1.570796 -0.312102 -0.000000
19 15.947000 0.000000 0.000000 1.645877 0.252917 0.626587
20 19.768000 0.000000 0.000000 -0.000001 0.000000 0.234927
time 51
1 0.000000 -18.629589 29.693361 -1.570796 0.351728 -1.570796
2 65.355888 0.000000 0.000000 0.000000 0.000000 -0.134439
3 12.067241 32.559124 25.800257 -20.263980 -1.252792 20.049061
4 22.486000 0.000000 0.000000 1.570796 0.312102 -0.000000
5 15.947000 0.000000 0.000000 -7.929063 6.030268 0.626587
6 19.768000 0.000000 0.000000 0.000001 -0.000000 0.234927
7 58.241417 29.326660 0.000000 0.000000 0.000000 0.386773
8 66.352951 0.000000 0.000000 0.000000 0.000000 0.092031
9 31.718473 17.190714 0.000000 0.000000 0.000000 -0.226569
10 22.796549 32.614475 0.000000 1.394932 -1.570796 1.394932
11 0.215741 27.568443 28.646185 -7.865413 -0.119934 7.781018
12 -48.533508 50.487892 46.780914 0.785561 -2.309615 -0.977985
13 -44.139824 -5.858725 0.000000 0.000000 0.000000 2.789864
14 107.462242 0.693102 0.623600 0.000000 0.000000 0.000000
15 -48.533508 50.487892 -46.780914 -0.785561 2.309615 -0.977985
16 0.215741 27.568443 -28.646185 11.007006 3.021659 10.922610
17 12.067241 32.559124 -25.800257 -4.868761 1.252792 -5.083680
18 22.486000 0.000000 0.000000 -1.570796 -0.312102 -0.000000
19 15.947000 0.000000 0.000000 1.645877 0.252917 0.626587
20 19.768000 0.000000 0.000000 -0.000001 0.000000 0.234927
time 52
1 0.000000 -18.629589 29.693361 -1.570796 0.351728 -1.570796
2 65.355888 0.000000 0.000000 0.000000 0.000000 -0.134439
3 12.067241 32.559124 25.800257 -20.263980 -1.252792 20.049061
4 22.486000 0.000000 0.000000 1.570796 0.312102 -0.000000
5 15.947000 0.000000 0.000000 -7.929063 6.030268 0.626587
6 19.768000 0.000000 0.000000 0.000001 -0.000000 0.234927
7 58.241417 29.326660 0.000000 0.000000 0.000000 0.386773
8 66.352951 0.000000 0.000000 0.000000 0.000000 0.092031
9 31.718473 17.190714 0.000000 0.000000 0.000000 -0.226569
10 22.629131 32.158279 0.000000 1.394932 -1.570796 1.394932
11 0.222455 27.598917 28.255615 -7.865386 -0.098391 7.780770
12 -48.533508 50.487892 46.780914 0.785561 -2.309615 -0.977985
13 -44.139824 -5.858725 0.000000 0.000000 0.000000 2.789864
14 107.462242 0.693102 0.623600 0.000000 0.000000 0.000000
15 -48.533508 50.487892 -46.780914 -0.785561 2.309615 -0.977985
16 0.222455 27.598917 -28.255615 11.006979 3.043202 10.922363
17 12.067241 32.559124 -25.800257 -4.868761 1.252792 -5.083680
18 22.486000 0.000000 0.000000 -1.570796 -0.312102 -0.000000
19 15.947000 0.000000 0.000000 1.645877 0.252917 0.626587
20 19.768000 0.000000 0.000000 -0.000001 0.000000 0.234927
time 53
1 0.000000 -18.629589 29.693361 -1.570796 0.351728 -1.570796
2 65.355888 0.000000 0.000000 0.000000 0.000000 -0.134439
3 12.067241 32.559124 25.800257 -20.263980 -1.252792 20.049061
4 22.486000 0.000000 0.000000 1.570796 0.312102 -0.000000
5 15.947000 0.000000 0.000000 -7.929063 6.030268 0.626587
6 19.768000 0.000000 0.000000 0.000001 -0.000000 0.234927
7 58.241417 29.326660 0.000000 0.000000 0.000000 0.386773
8 66.352951 0.000000 0.000000 0.000000 0.000000 0.092031
9 31.718473 17.190714 0.000000 0.000000 0.000000 -0.226569
10 22.464914 31.710808 0.000000 1.394932 -1.570796 1.394932
11 0.228653 27.627048 27.895096 -7.865367 -0.078914 7.780548
12 -48.533508 50.487892 46.780914 0.785561 -2.309615 -0.977985
13 -44.139824 -5.858725 0.000000 0.000000 0.000000 2.789864
14 107.462242 0.693102 0.623600 0.000000 0.000000 0.000000
15 -48.533508 50.487892 -46.780914 -0.785561 2.309615 -0.977985
16 0.228653 27.627048 -27.895096 11.006959 3.062679 10.922140
17 12.067241 32.559124 -25.800257 -4.868761 1.252792 -5.083680
18 22.486000 0.000000 0.000000 -1.570796 -0.312102 -0.000000
19 15.947000 0.000000 0.000000 1.645877 0.252917 0.626587
20 19.768000 0.000000 0.000000 -0.000001 0.000000 0.234927
end
