version 1
nodes
0 "Gunship.Mesh" -1
1 "Gunship.Body" -1
2 "Gunship.Spine" 1
3 "Gunship.humerus_L" 2
4 "Gunship.Ulna_L" 3
5 "Gunship.Carpals_L" 4
6 "Gunship.Phalanges_L" 5
7 "Gunship.Scanner" 2
8 "Gunship.Nose" 2
9 "Gunship.Nose_Weapon" 8
10 "Gunship.Belly_Weapon" 1
11 "Gunship.Belly_L" 1
12 "Gunship.Antenna_L" 1
13 "Gunship.Tail" 1
14 "Gunship.Propeller" 13
15 "Gunship.Antenna_R" 1
16 "Gunship.Belly_R" 1
17 "Gunship.humerus_R" 2
18 "Gunship.Ulna_R" 17
19 "Gunship.CarpalsR" 18
20 "Gunship.Phalanges_R" 19
end
skeleton
time 0
0 0.000000 0.000000 0.000000 1.570796 0.000000 0.000000
1 0.000000 -18.629589 29.693361 -1.570796 0.351728 -1.570796
2 65.355888 0.000000 0.000000 0.000000 0.000000 -0.134439
3 12.067241 32.559124 25.800257 -20.263980 -1.252792 20.049061
4 22.486000 0.000000 0.000000 1.570796 0.312102 -0.000000
5 15.947000 0.000000 0.000000 -7.929063 6.030268 0.626587
6 19.768000 0.000000 0.000000 0.000001 -0.000000 0.234927
7 58.241417 29.326660 0.000000 0.000000 0.000000 0.386773
8 66.352951 0.000000 0.000000 0.000000 0.000000 0.092031
9 31.718473 17.190714 0.000000 0.000000 0.000000 -0.226569
10 22.464914 31.710808 0.000000 1.394932 -1.570796 1.394932
11 0.207232 27.529823 29.141125 -7.865367 -0.078914 7.780548
12 -48.533508 50.487892 46.780914 0.785561 -2.309615 -0.977985
13 -44.139824 -5.858725 0.000000 0.000000 0.000000 2.789864
14 107.462242 0.693102 0.623600 0.000000 0.000000 0.000000
15 -48.533508 50.487892 -46.780914 -0.785561 2.309615 -0.977985
16 0.207232 27.529823 -29.141125 11.006959 3.062679 10.922140
17 12.067241 32.559124 -25.800257 -4.868761 1.252792 -5.083680
18 22.486000 0.000000 0.000000 -1.570796 -0.312102 -0.000000
19 15.947000 0.000000 0.000000 1.645877 0.252917 0.626587
20 19.768000 0.000000 0.000000 -0.000001 0.000000 0.234927
time 1
1 0.000000 -18.629589 29.693361 -1.570796 0.351728 -1.570796
2 65.355888 0.000000 0.000000 0.000000 0.000000 -0.134439
3 12.067241 32.559124 25.800257 -20.263590 -1.252636 20.049139
4 22.486000 0.000000 0.000000 1.570796 0.312639 -0.000000
5 15.947000 0.000000 0.000000 -7.929469 6.029905 0.626615
6 19.768000 0.000000 0.000000 0.000001 -0.000000 0.234573
7 58.241417 29.326660 0.000000 0.000000 0.000000 0.386773
8 66.352951 0.000000 0.000000 0.000000 0.000000 0.092031
9 31.718473 17.190714 0.000000 0.000000 0.000000 -0.226569
10 22.464914 31.710808 0.000000 1.394932 -1.570796 1.394932
11 0.207232 27.529823 29.141125 -7.865367 -0.078914 7.780548
12 -48.533508 50.487892 46.780914 0.785561 -2.309615 -0.977985
13 -44.139824 -5.858725 0.000000 0.000000 0.000000 2.789864
14 107.462242 0.693102 0.623600 0.000000 0.000000 0.000000
15 -48.533508 50.487892 -46.780914 -0.785561 2.309615 -0.977985
16 0.207232 27.529823 -29.141125 11.006959 3.062679 10.922140
17 12.067241 32.559124 -25.800257 -4.869944 1.253079 -5.084926
18 22.486000 0.000000 0.000000 -1.570796 -0.311222 -0.000000
19 15.947000 0.000000 0.000000 1.645889 0.253514 0.626633
20 19.768000 0.000000 0.000000 -0.000001 0.000000 0.234775
time 2
1 0.000000 -18.629589 29.693361 -1.570796 0.351728 -1.570796
2 65.355888 0.000000 0.000000 0.000000 0.000000 -0.134439
3 12.067241 32.559124 25.800257 -20.262646 -1.252166 20.049376
4 22.486000 0.000000 0.000000 1.570796 0.314193 -0.000000
5 15.947000 0.000000 0.000000 -7.930429 6.028853 0.626697
6 19.768000 0.000000 0.000000 0.000001 -0.000000 0.233611
7 58.241417 29.326660 0.000000 0.000000 0.000000 0.386773
8 66.352951 0.000000 0.000000 0.000000 0.000000 0.092031
9 31.718473 17.190714 0.000000 0.000000 0.000000 -0.226569
10 22.464914 31.710808 0.000000 1.394932 -1.570796 1.394932
11 0.207232 27.529823 29.141125 -7.865367 -0.078914 7.780548
12 -48.533508 50.487892 46.780914 0.785561 -2.309615 -0.977985
13 -44.139824 -5.858725 0.000000 0.000000 0.000000 2.789864
14 107.462242 0.693102 0.623600 0.000000 0.000000 0.000000
15 -48.533508 50.487892 -46.780914 -0.785561 2.309615 -0.977985
16 0.207232 27.529823 -29.141125 11.006959 3.062679 10.922140
17 12.067241 32.559124 -25.800257 -4.873383 1.253909 -5.088544
18 22.486000 0.000000 0.000000 -1.570796 -0.308667 -0.000000
19 15.947000 0.000000 0.000000 1.645923 0.255249 0.626768
20 19.768000 0.000000 0.000000 -0.000001 0.000000 0.234360
time 3
1 0.000000 -18.629589 29.693361 -1.570796 0.351728 -1.570796
2 65.355888 0.000000 0.000000 0.000000 0.000000 -0.134439
3 12.067241 32.559124 25.800257 -20.261138 -1.251365 20.049776
4 22.486000 0.000000 0.000000 1.570796 0.316679 -0.000000
5 15.947000 0.000000 0.000000 -7.931964 6.027051 0.626837
6 19.768000 0.000000 0.000000 0.000001 -0.000000 0.232049
7 58.241417 29.326660 0.000000 0.000000 0.000000 0.386773
8 66.352951 0.000000 0.000000 0.000000 0.000000 0.092031
9 31.718473 17.190714 0.000000 0.000000 0.000000 -0.226569
10 22.464914 31.710808 0.000000 1.394932 -1.570796 1.394932
11 0.207232 27.529823 29.141125 -7.865367 -0.078914 7.780548
12 -48.533508 50.487892 46.780914 0.785561 -2.309615 -0.977985
13 -44.139824 -5.858725 0.000000 0.000000 0.000000 2.789864
14 107.462242 0.693102 0.623600 0.000000 0.000000 0.000000
15 -48.533508 50.487892 -46.780914 -0.785561 2.309615 -0.977985
16 0.207232 27.529823 -29.141125 11.006959 3.062679 10.922140
17 12.067241 32.559124 -25.800257 -4.878928 1.255234 -5.094375
18 22.486000 0.000000 0.000000 -1.570796 -0.304567 -0.000000
19 15.947000 0.000000 0.000000 1.645978 0.258041 0.626986
20 19.768000 0.000000 0.000000 -0.000001 0.000000 0.233690
time 4
1 0.000000 -18.629589 29.693361 -1.570796 0.351728 -1.570796
2 65.355888 0.000000 0.000000 0.000000 0.000000 -0.134439
3 12.067241 32.559124 25.800257 -20.259052 -1.250216 20.050350
4 22.486000 0.000000 0.000000 1.570796 0.320013 -0.000000
5 15.947000 0.000000 0.000000 -7.934096 6.024439 0.627040
6 19.768000 0.000000 0.000000 0.000001 -0.000000 0.229898
7 58.241417 29.326660 0.000000 0.000000 0.000000 0.386773
8 66.352951 0.000000 0.000000 0.000000 0.000000 0.092031
9 31.718473 17.190714 0.000000 0.000000 0.000000 -0.226569
10 22.464914 31.710808 0.000000 1.394932 -1.570796 1.394932
11 0.207232 27.529823 29.141125 -7.865367 -0.078914 7.780548
12 -48.533508 50.487892 46.780914 0.785561 -2.309615 -0.977985
13 -44.139824 -5.858725 0.000000 0.000000 0.000000 2.789864
14 107.462242 0.693102 0.623600 0.000000 0.000000 0.000000
15 -48.533508 50.487892 -46.780914 -0.785561 2.309615 -0.977985
16 0.207232 27.529823 -29.141125 11.006959 3.062679 10.922140
17 12.067241 32.559124 -25.800257 -4.886445 1.257002 -5.102272
18 22.486000 0.000000 0.000000 -1.570796 -0.299050 -0.000000
19 15.947000 0.000000 0.000000 1.646054 0.261810 0.627279
20 19.768000 0.000000 0.000000 -0.000001 0.000000 0.232773
time 5
1 0.000000 -18.629589 29.693361 -1.570796 0.351728 -1.570796
2 65.355888 0.000000 0.000000 0.000000 0.000000 -0.134439
3 12.067241 32.559124 25.800257 -20.256380 -1.248705 20.051095
4 22.486000 0.000000 0.000000 1.570796 0.324110 -0.000000
5 15.947000 0.000000 0.000000 -7.936847 6.020953 0.627312
6 19.768000 0.000000 0.000000 0.000001 -0.000000 0.227174
7 58.241417 29.326660 0.000000 0.000000 0.000000 0.386773
8 66.352951 0.000000 0.000000 0.000000 0.000000 0.092031
9 31.718473 17.190714 0.000000 0.000000 0.000000 -0.226569
10 22.464914 31.710808 0.000000 1.394932 -1.570796 1.394932
11 0.207232 27.529823 29.141125 -7.865367 -0.078914 7.780548
12 -48.533508 50.487892 46.780914 0.785561 -2.309615 -0.977985
13 -44.139824 -5.858725 0.000000 0.000000 0.000000 2.789864
14 107.462242 0.693102 0.623600 0.000000 0.000000 0.000000
15 -48.533508 50.487892 -46.780914 -0.785561 2.309615 -0.977985
16 0.207232 27.529823 -29.141125 11.006959 3.062679 10.922140
17 12.067241 32.559124 -25.800257 -4.895813 1.259159 -5.112100
18 22.486000 0.000000 0.000000 -1.570796 -0.292245 -0.000000
19 15.947000 0.000000 0.000000 1.646149 0.266473 0.627644
20 19.768000 0.000000 0.000000 -0.000001 0.000000 0.231620
time 6
1 0.000000 -18.629589 29.693361 -1.570796 0.351728 -1.570796
2 65.355888 0.000000 0.000000 0.000000 0.000000 -0.134439
3 12.067241 32.559124 25.800257 -20.253110 -1.246822 20.052018
4 22.486000 0.000000 0.000000 1.570796 0.328885 -0.000000
5 15.947000 0.000000 0.000000 -7.940234 6.016544 0.627657
6 19.768000 0.000000 0.000000 0.000001 -0.000000 0.223899
7 58.241417 29.326660 0.000000 0.000000 0.000000 0.386773
8 66.352951 0.000000 0.000000 0.000000 0.000000 0.092031
9 31.718473 17.190714 0.000000 0.000000 0.000000 -0.226569
10 22.464914 31.710808 0.000000 1.394932 -1.570796 1.394932
11 0.207232 27.529823 29.141125 -7.865367 -0.078914 7.780548
12 -48.533508 50.487892 46.780914 0.785561 -2.309615 -0.977985
13 -44.139824 -5.858725 0.000000 0.000000 0.000000 2.789864
14 107.462242 0.693102 0.623600 0.000000 0.000000 0.000000
15 -48.533508 50.487892 -46.780914 -0.785561 2.309615 -0.977985
16 0.207232 27.529823 -29.141125 11.006959 3.062679 10.922140
17 12.067241 32.559124 -25.800257 -4.906914 1.261649 -5.123728
18 22.486000 0.000000 0.000000 -1.570796 -0.284281 -0.000000
19 15.947000 0.000000 0.000000 1.646263 0.271949 0.628073
20 19.768000 0.000000 0.000000 -0.000001 0.000000 0.230242
time 7
1 0.000000 -18.629589 29.693361 -1.570796 0.351728 -1.570796
2 65.355888 0.000000 0.000000 0.000000 0.000000 -0.134439
3 12.067241 32.559124 25.800257 -20.249230 -1.244561 20.053109
4 22.486000 0.000000 0.000000 1.570796 0.334253 -0.000000
5 15.947000 0.000000 0.000000 -7.944274 6.011174 0.628078
6 19.768000 0.000000 0.000000 0.000001 -0.000000 0.220103
7 58.241417 29.326660 0.000000 0.000000 0.000000 0.386773
8 66.352951 0.000000 0.000000 0.000000 0.000000 0.092031
9 31.718473 17.190714 0.000000 0.000000 0.000000 -0.226569
10 22.464914 31.710808 0.000000 1.394932 -1.570796 1.394932
11 0.207232 27.529823 29.141125 -7.865367 -0.078914 7.780548
12 -48.533508 50.487892 46.780914 0.785561 -2.309615 -0.977985
13 -44.139824 -5.858725 0.000000 0.000000 0.000000 2.789864
14 107.462242 0.693102 0.623600 0.000000 0.000000 0.000000
15 -48.533508 50.487892 -46.780914 -0.785561 2.309615 -0.977985
16 0.207232 27.529823 -29.141125 11.006959 3.062679 10.922140
17 12.067241 32.559124 -25.800257 -4.919634 1.264416 -5.137029
18 22.486000 0.000000 0.000000 -1.570796 -0.275287 -0.000000
19 15.947000 0.000000 0.000000 1.646396 0.278158 0.628561
20 19.768000 0.000000 0.000000 -0.000001 0.000000 0.228653
time 8
1 0.000000 -18.629589 29.693361 -1.570796 0.351728 -1.570796
2 65.355888 0.000000 0.000000 0.000000 0.000000 -0.134439
3 12.067241 32.559124 25.800257 -20.244730 -1.241924 20.054363
4 22.486000 0.000000 0.000000 1.570796 0.340131 -0.000000
5 15.947000 0.000000 0.000000 -7.948980 6.004839 0.628576
6 19.768000 0.000000 0.000000 0.000001 -0.000000 0.215822
7 58.241417 29.326660 0.000000 0.000000 0.000000 0.386773
8 66.352951 0.000000 0.000000 0.000000 0.000000 0.092031
9 31.718473 17.190714 0.000000 0.000000 0.000000 -0.226569
10 22.464914 31.710808 0.000000 1.394932 -1.570796 1.394932
11 0.207232 27.529823 29.141125 -7.865367 -0.078914 7.780548
12 -48.533508 50.487892 46.780914 0.785561 -2.309615 -0.977985
13 -44.139824 -5.858725 0.000000 0.000000 0.000000 2.789864
14 107.462242 0.693102 0.623600 0.000000 0.000000 0.000000
15 -48.533508 50.487892 -46.780914 -0.785561 2.309615 -0.977985
16 0.207232 27.529823 -29.141125 11.006959 3.062679 10.922140
17 12.067241 32.559124 -25.800257 -4.933854 1.267405 -5.151872
18 22.486000 0.000000 0.000000 -1.570796 -0.265391 -0.000000
19 15.947000 0.000000 0.000000 1.646546 0.285016 0.629103
20 19.768000 0.000000 0.000000 -0.000001 0.000000 0.226867
time 9
1 0.000000 -18.629589 29.693361 -1.570796 0.351728 -1.570796
2 65.355888 0.000000 0.000000 0.000000 0.000000 -0.134439
3 12.067241 32.559124 25.800257 -20.239602 -1.238927 20.055767
4 22.486000 0.000000 0.000000 1.570796 0.346431 -0.000000
5 15.947000 0.000000 0.000000 -7.954353 5.997583 0.629149
6 19.768000 0.000000 0.000000 0.000001 -0.000000 0.211101
7 58.241417 29.326660 0.000000 0.000000 0.000000 0.386773
8 66.352951 0.000000 0.000000 0.000000 0.000000 0.092031
9 31.718473 17.190714 0.000000 0.000000 0.000000 -0.226569
10 22.464914 31.710808 0.000000 1.394932 -1.570796 1.394932
11 0.207232 27.529823 29.141125 -7.865367 -0.078914 7.780548
12 -48.533508 50.487892 46.780914 0.785561 -2.309615 -0.977985
13 -44.139824 -5.858725 0.000000 0.000000 0.000000 2.789864
14 107.462242 0.693102 0.623600 0.000000 0.000000 0.000000
15 -48.533508 50.487892 -46.780914 -0.785561 2.309615 -0.977985
16 0.207232 27.529823 -29.141125 11.006959 3.062679 10.922140
17 12.067241 32.559124 -25.800257 -4.949448 1.270559 -5.168119
18 22.486000 0.000000 0.000000 -1.570796 -0.254722 -0.000000
19 15.947000 0.000000 0.000000 1.646714 0.292445 0.629691
20 19.768000 0.000000 0.000000 -0.000001 0.000000 0.224901
time 10
1 0.000000 -18.629589 29.693361 -1.570796 0.351728 -1.570796
2 65.355888 0.000000 0.000000 0.000000 0.000000 -0.134439
3 12.067241 32.559124 25.800257 -20.233837 -1.235596 20.057297
4 22.486000 0.000000 0.000000 1.570796 0.353071 -0.000000
5 15.947000 0.000000 0.000000 -7.960392 5.989514 0.629789
6 19.768000 0.000000 0.000000 0.000001 -0.000000 0.205990
7 58.241417 29.326660 0.000000 0.000000 0.000000 0.386773
8 66.352951 0.000000 0.000000 0.000000 0.000000 0.092031
9 31.718473 17.190714 0.000000 0.000000 0.000000 -0.226569
10 22.464914 31.710808 0.000000 1.394932 -1.570796 1.394932
11 0.207232 27.529823 29.141125 -7.865367 -0.078914 7.780548
12 -48.533508 50.487892 46.780914 0.785561 -2.309615 -0.977985
13 -44.139824 -5.858725 0.000000 0.000000 0.000000 2.789864
14 107.462242 0.693102 0.623600 0.000000 0.000000 0.000000
15 -48.533508 50.487892 -46.780914 -0.785561 2.309615 -0.977985
16 0.207232 27.529823 -29.141125 11.006959 3.062679 10.922140
17 12.067241 32.559124 -25.800257 -4.966281 1.273827 -5.185621
18 22.486000 0.000000 0.000000 -1.570796 -0.243409 -0.000000
19 15.947000 0.000000 0.000000 1.646898 0.300360 0.630322
20 19.768000 0.000000 0.000000 -0.000001 0.000000 0.222774
time 11
1 0.000000 -18.629589 29.693361 -1.570796 0.351728 -1.570796
2 65.355888 0.000000 0.000000 0.000000 0.000000 -0.134439
3 12.067241 32.559124 25.800257 -20.227426 -1.231975 20.058927
4 22.486000 0.000000 0.000000 1.570796 0.359965 -0.000000
5 15.947000 0.000000 0.000000 -7.967080 5.980823 0.630482
6 19.768000 0.000000 0.000000 0.000001 -0.000000 0.200551
7 58.241417 29.326660 0.000000 0.000000 0.000000 0.386773
8 66.352951 0.000000 0.000000 0.000000 0.000000 0.092031
9 31.718473 17.190714 0.000000 0.000000 0.000000 -0.226569
10 22.464914 31.710808 0.000000 1.394932 -1.570796 1.394932
11 0.207232 27.529823 29.141125 -7.865367 -0.078914 7.780548
12 -48.533508 50.487892 46.780914 0.785561 -2.309615 -0.977985
13 -44.139824 -5.858725 0.000000 0.000000 0.000000 2.789864
14 107.462242 0.693102 0.623600 0.000000 0.000000 0.000000
15 -48.533508 50.487892 -46.780914 -0.785561 2.309615 -0.977985
16 0.207232 27.529823 -29.141125 11.006959 3.062679 10.922140
17 12.067241 32.559124 -25.800257 -4.984203 1.277157 -5.204218
18 22.486000 0.000000 0.000000 -1.570796 -0.231581 -0.000000
19 15.947000 0.000000 0.000000 1.647098 0.308683 0.630988
20 19.768000 0.000000 0.000000 -0.000001 0.000000 0.220503
time 12
1 0.000000 -18.629589 29.693361 -1.570796 0.351728 -1.570796
2 65.355888 0.000000 0.000000 0.000000 0.000000 -0.134439
3 12.067241 32.559124 25.800257 -20.220370 -1.228124 20.060625
4 22.486000 0.000000 0.000000 1.570796 0.367029 -0.000000
5 15.947000 0.000000 0.000000 -7.974382 5.971775 0.631207
6 19.768000 0.000000 0.000000 0.000001 -0.000000 0.194851
7 58.241417 29.326660 0.000000 0.000000 0.000000 0.386773
8 66.352951 0.000000 0.000000 0.000000 0.000000 0.092031
9 31.718473 17.190714 0.000000 0.000000 0.000000 -0.226569
10 22.464914 31.710808 0.000000 1.394932 -1.570796 1.394932
11 0.207232 27.529823 29.141125 -7.865367 -0.078914 7.780548
12 -48.533508 50.487892 46.780914 0.785561 -2.309615 -0.977985
13 -44.139824 -5.858725 0.000000 0.000000 0.000000 2.789864
14 107.462242 0.693102 0.623600 0.000000 0.000000 0.000000
15 -48.533508 50.487892 -46.780914 -0.785561 2.309615 -0.977985
16 0.207232 27.529823 -29.141125 11.006959 3.062679 10.922140
17 12.067241 32.559124 -25.800257 -5.003050 1.280501 -5.223735
18 22.486000 0.000000 0.000000 -1.570796 -0.219367 -0.000000
19 15.947000 0.000000 0.000000 1.647312 0.317331 0.631684
20 19.768000 0.000000 0.000000 -0.000001 0.000000 0.218109
time 13
1 0.000000 -18.629589 29.693361 -1.570796 0.351728 -1.570796
2 65.355888 0.000000 0.000000 0.000000 0.000000 -0.134439
3 12.067241 32.559124 25.800257 -20.212677 -1.224121 20.062349
4 22.486000 0.000000 0.000000 1.570796 0.374178 -0.000000
5 15.947000 0.000000 0.000000 -7.982250 5.962696 0.631939
6 19.768000 0.000000 0.000000 0.000001 -0.000000 0.188966
7 58.241417 29.326660 0.000000 0.000000 0.000000 0.386773
8 66.352951 0.000000 0.000000 0.000000 0.000000 0.092031
9 31.718473 17.190714 0.000000 0.000000 0.000000 -0.226569
10 22.464914 31.710808 0.000000 1.394932 -1.570796 1.394932
11 0.207232 27.529823 29.141125 -7.865367 -0.078914 7.780548
12 -48.533508 50.487892 46.780914 0.785561 -2.309615 -0.977985
13 -44.139824 -5.858725 0.000000 0.000000 0.000000 2.789864
14 107.462242 0.693102 0.623600 0.000000 0.000000 0.000000
15 -48.533508 50.487892 -46.780914 -0.785561 2.309615 -0.977985
16 0.207232 27.529823 -29.141125 11.006959 3.062679 10.922140
17 12.067241 32.559124 -25.800257 -5.022634 1.283817 -5.243976
18 22.486000 0.000000 0.000000 -1.570796 -0.206895 -0.000000
19 15.947000 0.000000 0.000000 1.647539 0.326222 0.632403
20 19.768000 0.000000 0.000000 -0.000001 0.000000 0.215615
time 14
1 0.000000 -18.629589 29.693361 -1.570796 0.351728 -1.570796
2 65.355888 0.000000 0.000000 0.000000 0.000000 -0.134439
3 12.067241 32.559124 25.800257 -20.204365 -1.220055 20.064064
4 22.486000 0.000000 0.000000 1.570796 0.381326 -0.000000
5 15.947000 0.000000 0.000000 -7.990611 5.953921 0.632650
6 19.768000 0.000000 0.000000 0.000001 -0.000000 0.182979
7 58.241417 29.326660 0.000000 0.000000 0.000000 0.386773
8 66.352951 0.000000 0.000000 0.000000 0.000000 0.092031
9 31.718473 17.190714 0.000000 0.000000 0.000000 -0.226569
10 22.464914 31.710808 0.000000 1.394932 -1.570796 1.394932
11 0.207232 27.529823 29.141125 -7.865367 -0.078914 7.780548
12 -48.533508 50.487892 46.780914 0.785561 -2.309615 -0.977985
13 -44.139824 -5.858725 0.000000 0.000000 0.000000 2.789864
14 107.462242 0.693102 0.623600 0.000000 0.000000 0.000000
15 -48.533508 50.487892 -46.780914 -0.785561 2.309615 -0.977985
16 0.207232 27.529823 -29.141125 11.006959 3.062679 10.922140
17 12.067241 32.559124 -25.800257 -5.042751 1.287064 -5.264729
18 22.486000 0.000000 0.000000 -1.570796 -0.194294 -0.000000
19 15.947000 0.000000 0.000000 1.647779 0.335276 0.633140
20 19.768000 0.000000 0.000000 -0.000001 0.000000 0.213041
time 15
1 0.000000 -18.629589 29.693361 -1.570796 0.351728 -1.570796
2 65.355888 0.000000 0.000000 0.000000 0.000000 -0.134439
3 12.067241 32.559124 25.800257 -20.195471 -1.216024 20.065723
4 22.486000 0.000000 0.000000 1.570796 0.388390 -0.000000
5 15.947000 0.000000 0.000000 -7.999374 5.945755 0.633317
6 19.768000 0.000000 0.000000 0.000001 -0.000000 0.176977
7 58.241417 29.326660 0.000000 0.000000 0.000000 0.386773
8 66.352951 0.000000 0.000000 0.000000 0.000000 0.092031
9 31.718473 17.190714 0.000000 0.000000 0.000000 -0.226569
10 22.464914 31.710808 0.000000 1.394932 -1.570796 1.394932
11 0.207232 27.529823 29.141125 -7.865367 -0.078914 7.780548
12 -48.533508 50.487892 46.780914 0.785561 -2.309615 -0.977985
13 -44.139824 -5.858725 0.000000 0.000000 0.000000 2.789864
14 107.462242 0.693102 0.623600 0.000000 0.000000 0.000000
15 -48.533508 50.487892 -46.780914 -0.785561 2.309615 -0.977985
16 0.207232 27.529823 -29.141125 11.006959 3.062679 10.922140
17 12.067241 32.559124 -25.800257 -5.063177 1.290210 -5.285759
18 22.486000 0.000000 0.000000 -1.570796 -0.181693 -0.000000
19 15.947000 0.000000 0.000000 1.648028 0.344411 0.633889
20 19.768000 0.000000 0.000000 -0.000001 0.000000 0.210412
time 16
1 0.000000 -18.629589 29.693361 -1.570796 0.351728 -1.570796
2 65.355888 0.000000 0.000000 0.000000 0.000000 -0.134439
3 12.067241 32.559124 25.800257 -20.186045 -1.212123 20.067298
4 22.486000 0.000000 0.000000 1.570796 0.395284 -0.000000
5 15.947000 0.000000 0.000000 -8.008421 5.938432 0.633917
6 19.768000 0.000000 0.000000 0.000001 -0.000000 0.171053
7 58.241417 29.326660 0.000000 0.000000 0.000000 0.386773
8 66.352951 0.000000 0.000000 0.000000 0.000000 0.092031
9 31.718473 17.190714 0.000000 0.000000 0.000000 -0.226569
10 22.464914 31.710808 0.000000 1.394932 -1.570796 1.394932
11 0.207232 27.529823 29.141125 -7.865367 -0.078914 7.780548
12 -48.533508 50.487892 46.780914 0.785561 -2.309615 -0.977985
13 -44.139824 -5.858725 0.000000 0.000000 0.000000 2.789864
14 107.462242 0.693102 0.623600 0.000000 0.000000 0.000000
15 -48.533508 50.487892 -46.780914 -0.785561 2.309615 -0.977985
16 0.207232 27.529823 -29.141125 11.006959 3.062679 10.922140
17 12.067241 32.559124 -25.800257 -5.083664 1.293224 -5.306815
18 22.486000 0.000000 0.000000 -1.570796 -0.169221 -0.000000
19 15.947000 0.000000 0.000000 1.648286 0.353546 0.634643
20 19.768000 0.000000 0.000000 -0.000001 0.000000 0.207750
time 17
1 0.000000 -18.629589 29.693361 -1.570796 0.351728 -1.570796
2 65.355888 0.000000 0.000000 0.000000 0.000000 -0.134439
3 12.067241 32.559124 25.800257 -20.176170 -1.208441 20.068753
4 22.486000 0.000000 0.000000 1.570796 0.401924 -0.000000
5 15.947000 0.000000 0.000000 -8.017614 5.932100 0.634439
6 19.768000 0.000000 0.000000 0.000001 -0.000000 0.165302
7 58.241417 29.326660 0.000000 0.000000 0.000000 0.386773
8 66.352951 0.000000 0.000000 0.000000 0.000000 0.092031
9 31.718473 17.190714 0.000000 0.000000 0.000000 -0.226569
10 22.464914 31.710808 0.000000 1.394932 -1.570796 1.394932
11 0.207232 27.529823 29.141125 -7.865367 -0.078914 7.780548
12 -48.533508 50.487892 46.780914 0.785561 -2.309615 -0.977985
13 -44.139824 -5.858725 0.000000 0.000000 0.000000 2.789864
14 107.462242 0.693102 0.623600 0.000000 0.000000 0.000000
15 -48.533508 50.487892 -46.780914 -0.785561 2.309615 -0.977985
16 0.207232 27.529823 -29.141125 11.006959 3.062679 10.922140
17 12.067241 32.559124 -25.800257 -5.103946 1.296086 -5.327623
18 22.486000 0.000000 0.000000 -1.570796 -0.157007 -0.000000
19 15.947000 0.000000 0.000000 1.648550 0.362599 0.635394
20 19.768000 0.000000 0.000000 -0.000001 0.000000 0.205080
time 18
1 0.000000 -18.629589 29.693361 -1.570796 0.351728 -1.570796
2 65.355888 0.000000 0.000000 0.000000 0.000000 -0.134439
3 12.067241 32.559124 25.800257 -20.165939 -1.205053 20.070065
4 22.486000 0.000000 0.000000 1.570796 0.408225 -0.000000
5 15.947000 0.000000 0.000000 -8.026798 5.926829 0.634875
6 19.768000 0.000000 0.000000 0.000001 -0.000000 0.159820
7 58.241417 29.326660 0.000000 0.000000 0.000000 0.386773
8 66.352951 0.000000 0.000000 0.000000 0.000000 0.092031
9 31.718473 17.190714 0.000000 0.000000 0.000000 -0.226569
10 22.464914 31.710808 0.000000 1.394932 -1.570796 1.394932
11 0.207232 27.529823 29.141125 -7.865367 -0.078914 7.780548
12 -48.533508 50.487892 46.780914 0.785561 -2.309615 -0.977985
13 -44.139824 -5.858725 0.000000 0.000000 0.000000 2.789864
14 107.462242 0.693102 0.623600 0.000000 0.000000 0.000000
15 -48.533508 50.487892 -46.780914 -0.785561 2.309615 -0.977985
16 0.207232 27.529823 -29.141125 11.006959 3.062679 10.922140
17 12.067241 32.559124 -25.800257 -5.123735 1.298777 -5.347894
18 22.486000 0.000000 0.000000 -1.570796 -0.145179 -0.000000
19 15.947000 0.000000 0.000000 1.648816 0.371490 0.636138
20 19.768000 0.000000 0.000000 -0.000001 0.000000 0.202426
time 19
1 0.000000 -18.629589 29.693361 -1.570796 0.351728 -1.570796
2 65.355888 0.000000 0.000000 0.000000 0.000000 -0.134439
3 12.067241 32.559124 25.800257 -20.155478 -1.202016 20.071224
4 22.486000 0.000000 0.000000 1.570796 0.414102 -0.000000
5 15.947000 0.000000 0.000000 -8.035795 5.922628 0.635224
6 19.768000 0.000000 0.000000 0.000001 -0.000000 0.154700
7 58.241417 29.326660 0.000000 0.000000 0.000000 0.386773
8 66.352951 0.000000 0.000000 0.000000 0.000000 0.092031
9 31.718473 17.190714 0.000000 0.000000 0.000000 -0.226569
10 22.464914 31.710808 0.000000 1.394932 -1.570796 1.394932
11 0.207232 27.529823 29.141125 -7.865367 -0.078914 7.780548
12 -48.533508 50.487892 46.780914 0.785561 -2.309615 -0.977985
13 -44.139824 -5.858725 0.000000 0.000000 0.000000 2.789864
14 107.462242 0.693102 0.623600 0.000000 0.000000 0.000000
15 -48.533508 50.487892 -46.780914 -0.785561 2.309615 -0.977985
16 0.207232 27.529823 -29.141125 11.006959 3.062679 10.922140
17 12.067241 32.559124 -25.800257 -5.142733 1.301286 -5.367323
18 22.486000 0.000000 0.000000 -1.570796 -0.133866 -0.000000
19 15.947000 0.000000 0.000000 1.649084 0.380137 0.636866
20 19.768000 0.000000 0.000000 -0.000001 0.000000 0.199811
time 20
1 0.000000 -18.629589 29.693361 -1.570796 0.351728 -1.570796
2 65.355888 0.000000 0.000000 0.000000 0.000000 -0.134439
3 12.067241 32.559124 25.800257 -20.144926 -1.199369 20.072217
4 22.486000 0.000000 0.000000 1.570796 0.419470 -0.000000
5 15.947000 0.000000 0.000000 -8.044419 5.919464 0.635488
6 19.768000 0.000000 0.000000 0.000001 -0.000000 0.150033
7 58.241417 29.326660 0.000000 0.000000 0.000000 0.386773
8 66.352951 0.000000 0.000000 0.000000 0.000000 0.092031
9 31.718473 17.190714 0.000000 0.000000 0.000000 -0.226569
10 22.464914 31.710808 0.000000 1.394932 -1.570796 1.394932
11 0.207232 27.529823 29.141125 -7.865367 -0.078914 7.780548
12 -48.533508 50.487892 46.780914 0.785561 -2.309615 -0.977985
13 -44.139824 -5.858725 0.000000 0.000000 0.000000 2.789864
14 107.462242 0.693102 0.623600 0.000000 0.000000 0.000000
15 -48.533508 50.487892 -46.780914 -0.785561 2.309615 -0.977985
16 0.207232 27.529823 -29.141125 11.006959 3.062679 10.922140
17 12.067241 32.559124 -25.800257 -5.160623 1.303608 -5.385591
18 22.486000 0.000000 0.000000 -1.570796 -0.123198 -0.000000
19 15.947000 0.000000 0.000000 1.649348 0.388458 0.637571
20 19.768000 0.000000 0.000000 -0.000001 0.000000 0.197259
time 21
1 0.000000 -18.629589 29.693361 -1.570796 0.351728 -1.570796
2 65.355888 0.000000 0.000000 0.000000 0.000000 -0.134439
3 12.067241 32.559124 25.800257 -20.134435 -1.197136 20.073046
4 22.486000 0.000000 0.000000 1.570796 0.424245 -0.000000
5 15.947000 0.000000 0.000000 -8.052487 5.917277 0.635671
6 19.768000 0.000000 0.000000 0.000001 -0.000000 0.145905
7 58.241417 29.326660 0.000000 0.000000 0.000000 0.386773
8 66.352951 0.000000 0.000000 0.000000 0.000000 0.092031
9 31.718473 17.190714 0.000000 0.000000 0.000000 -0.226569
10 22.464914 31.710808 0.000000 1.394932 -1.570796 1.394932
11 0.207232 27.529823 29.141125 -7.865367 -0.078914 7.780548
12 -48.533508 50.487892 46.780914 0.785561 -2.309615 -0.977985
13 -44.139824 -5.858725 0.000000 0.000000 0.000000 2.789864
14 107.462242 0.693102 0.623600 0.000000 0.000000 0.000000
15 -48.533508 50.487892 -46.780914 -0.785561 2.309615 -0.977985
16 0.207232 27.529823 -29.141125 11.006959 3.062679 10.922140
17 12.067241 32.559124 -25.800257 -5.177079 1.305741 -5.402369
18 22.486000 0.000000 0.000000 -1.570796 -0.113302 -0.000000
19 15.947000 0.000000 0.000000 1.649606 0.396372 0.638246
20 19.768000 0.000000 0.000000 -0.000001 0.000000 0.194792
time 22
1 0.000000 -18.629589 29.693361 -1.570796 0.351728 -1.570796
2 65.355888 0.000000 0.000000 0.000000 0.000000 -0.134439
3 12.067241 32.559124 25.800257 -20.124168 -1.195326 20.073711
4 22.486000 0.000000 0.000000 1.570796 0.428342 -0.000000
5 15.947000 0.000000 0.000000 -8.059819 5.915999 0.635777
6 19.768000 0.000000 0.000000 0.000001 -0.000000 0.142393
7 58.241417 29.326660 0.000000 0.000000 0.000000 0.386773
8 66.352951 0.000000 0.000000 0.000000 0.000000 0.092031
9 31.718473 17.190714 0.000000 0.000000 0.000000 -0.226569
10 22.464914 31.710808 0.000000 1.394932 -1.570796 1.394932
11 0.207232 27.529823 29.141125 -7.865367 -0.078914 7.780548
12 -48.533508 50.487892 46.780914 0.785561 -2.309615 -0.977985
13 -44.139824 -5.858725 0.000000 0.000000 0.000000 2.789864
14 107.462242 0.693102 0.623600 0.000000 0.000000 0.000000
15 -48.533508 50.487892 -46.780914 -0.785561 2.309615 -0.977985
16 0.207232 27.529823 -29.141125 11.006959 3.062679 10.922140
17 12.067241 32.559124 -25.800257 -5.191767 1.307686 -5.417321
18 22.486000 0.000000 0.000000 -1.570796 -0.104307 -0.000000
19 15.947000 0.000000 0.000000 1.649855 0.403798 0.638884
20 19.768000 0.000000 0.000000 -0.000001 0.000000 0.192433
time 23
1 0.000000 -18.629589 29.693361 -1.570796 0.351728 -1.570796
2 65.355888 0.000000 0.000000 0.000000 0.000000 -0.134439
3 12.067241 32.559124 25.800257 -20.114285 -1.193935 20.074216
4 22.486000 0.000000 0.000000 1.570796 0.431676 -0.000000
5 15.947000 0.000000 0.000000 -8.066256 5.915556 0.635814
6 19.768000 0.000000 0.000000 0.000001 -0.000000 0.139569
7 58.241417 29.326660 0.000000 0.000000 0.000000 0.386773
8 66.352951 0.000000 0.000000 0.000000 0.000000 0.092031
9 31.718473 17.190714 0.000000 0.000000 0.000000 -0.226569
10 22.464914 31.710808 0.000000 1.394932 -1.570796 1.394932
11 0.207232 27.529823 29.141125 -7.865367 -0.078914 7.780548
12 -48.533508 50.487892 46.780914 0.785561 -2.309615 -0.977985
13 -44.139824 -5.858725 0.000000 0.000000 0.000000 2.789864
14 107.462242 0.693102 0.623600 0.000000 0.000000 0.000000
15 -48.533508 50.487892 -46.780914 -0.785561 2.309615 -0.977985
16 0.207232 27.529823 -29.141125 11.006959 3.062679 10.922140
17 12.067241 32.559124 -25.800257 -5.204347 1.309446 -5.430107
18 22.486000 0.000000 0.000000 -1.570796 -0.096343 -0.000000
19 15.947000 0.000000 0.000000 1.650089 0.410655 0.639477
20 19.768000 0.000000 0.000000 -0.000001 0.000000 0.190202
time 24
1 0.000000 -18.629589 29.693361 -1.570796 0.351728 -1.570796
2 65.355888 0.000000 0.000000 0.000000 0.000000 -0.134439
3 12.067241 32.559124 25.800257 -20.104944 -1.192955 20.074572
4 22.486000 0.000000 0.000000 1.570796 0.434163 -0.000000
5 15.947000 0.000000 0.000000 -8.071664 5.915756 0.635798
6 19.768000 0.000000 0.000000 0.000001 -0.000000 0.137494
7 58.241417 29.326660 0.000000 0.000000 0.000000 0.386773
8 66.352951 0.000000 0.000000 0.000000 0.000000 0.092031
9 31.718473 17.190714 0.000000 0.000000 0.000000 -0.226569
10 22.464914 31.710808 0.000000 1.394932 -1.570796 1.394932
11 0.207232 27.529823 29.141125 -7.865367 -0.078914 7.780548
12 -48.533508 50.487892 46.780914 0.785561 -2.309615 -0.977985
13 -44.139824 -5.858725 0.000000 0.000000 0.000000 2.789864
14 107.462242 0.693102 0.623600 0.000000 0.000000 0.000000
15 -48.533508 50.487892 -46.780914 -0.785561 2.309615 -0.977985
16 0.207232 27.529823 -29.141125 11.006959 3.062679 10.922140
17 12.067241 32.559124 -25.800257 -5.214479 1.311028 -5.440382
18 22.486000 0.000000 0.000000 -1.570796 -0.089538 -0.000000
19 15.947000 0.000000 0.000000 1.650306 0.416862 0.640016
20 19.768000 0.000000 0.000000 -0.000001 0.000000 0.188118
time 25
1 0.000000 -18.629589 29.693361 -1.570796 0.351728 -1.570796
2 65.355888 0.000000 0.000000 0.000000 0.000000 -0.134439
3 12.067241 32.559124 25.800257 -20.096294 -1.192368 20.074782
4 22.486000 0.000000 0.000000 1.570796 0.435717 -0.000000
5 15.947000 0.000000 0.000000 -8.075943 5.916438 0.635741
6 19.768000 0.000000 0.000000 0.000001 -0.000000 0.136219
7 58.241417 29.326660 0.000000 0.000000 0.000000 0.386773
8 66.352951 0.000000 0.000000 0.000000 0.000000 0.092031
9 31.718473 17.190714 0.000000 0.000000 0.000000 -0.226569
10 22.464914 31.710808 0.000000 1.394932 -1.570796 1.394932
11 0.207232 27.529823 29.141125 -7.865367 -0.078914 7.780548
12 -48.533508 50.487892 46.780914 0.785561 -2.309615 -0.977985
13 -44.139824 -5.858725 0.000000 0.000000 0.000000 2.789864
14 107.462242 0.693102 0.623600 0.000000 0.000000 0.000000
15 -48.533508 50.487892 -46.780914 -0.785561 2.309615 -0.977985
16 0.207232 27.529823 -29.141125 11.006959 3.062679 10.922140
17 12.067241 32.559124 -25.800257 -5.221822 1.312432 -5.447805
18 22.486000 0.000000 0.000000 -1.570796 -0.084021 -0.000000
19 15.947000 0.000000 0.000000 1.650501 0.422336 0.640494
20 19.768000 0.000000 0.000000 -0.000001 0.000000 0.186201
time 26
1 0.000000 -18.629589 29.693361 -1.570796 0.351728 -1.570796
2 65.355888 0.000000 0.000000 0.000000 0.000000 -0.134439
3 12.067241 32.559124 25.800257 -20.088469 -1.192158 20.074859
4 22.486000 0.000000 0.000000 1.570796 0.436254 -0.000000
5 15.947000 0.000000 0.000000 -8.079020 5.917572 0.635646
6 19.768000 0.000000 0.000000 0.000001 -0.000000 0.135786
7 58.241417 29.326660 0.000000 0.000000 0.000000 0.386773
8 66.352951 0.000000 0.000000 0.000000 0.000000 0.092031
9 31.718473 17.190714 0.000000 0.000000 0.000000 -0.226569
10 22.464914 31.710808 0.000000 1.394932 -1.570796 1.394932
11 0.207232 27.529823 29.141125 -7.865367 -0.078914 7.780548
12 -48.533508 50.487892 46.780914 0.785561 -2.309615 -0.977985
13 -44.139824 -5.858725 0.000000 0.000000 0.000000 2.789864
14 107.462242 0.693102 0.623600 0.000000 0.000000 0.000000
15 -48.533508 50.487892 -46.780914 -0.785561 2.309615 -0.977985
16 0.207232 27.529823 -29.141125 11.006959 3.062679 10.922140
17 12.067241 32.559124 -25.800257 -5.226038 1.313659 -5.452036
18 22.486000 0.000000 0.000000 -1.570796 -0.079921 -0.000000
19 15.947000 0.000000 0.000000 1.650669 0.426998 0.640903
20 19.768000 0.000000 0.000000 -0.000001 0.000000 0.184468
time 27
1 0.000000 -18.629589 29.693361 -1.570796 0.351728 -1.570796
2 65.355888 0.000000 0.000000 0.000000 0.000000 -0.134439
3 12.067241 32.559124 25.800257 -20.081596 -1.192254 20.074823
4 22.486000 0.000000 0.000000 1.570796 0.435938 -0.000000
5 15.947000 0.000000 0.000000 -8.080851 5.919132 0.635516
6 19.768000 0.000000 0.000000 0.000001 -0.000000 0.136038
7 58.241417 29.326660 0.000000 0.000000 0.000000 0.386773
8 66.352951 0.000000 0.000000 0.000000 0.000000 0.092031
9 31.718473 17.190714 0.000000 0.000000 0.000000 -0.226569
10 22.464914 31.710808 0.000000 1.394932 -1.570796 1.394932
11 0.207232 27.529823 29.141125 -7.865367 -0.078914 7.780548
12 -48.533508 50.487892 46.780914 0.785561 -2.309615 -0.977985
13 -44.139824 -5.858725 0.000000 0.000000 0.000000 2.789864
14 107.462242 0.693102 0.623600 0.000000 0.000000 0.000000
15 -48.533508 50.487892 -46.780914 -0.785561 2.309615 -0.977985
16 0.207232 27.529823 -29.141125 11.006959 3.062679 10.922140
17 12.067241 32.559124 -25.800257 -5.227319 1.314624 -5.453279
18 22.486000 0.000000 0.000000 -1.570796 -0.077367 -0.000000
19 15.947000 0.000000 0.000000 1.650808 0.430765 0.641235
20 19.768000 0.000000 0.000000 -0.000001 0.000000 0.182933
time 28
1 0.000000 -18.629589 29.693361 -1.570796 0.351728 -1.570796
2 65.355888 0.000000 0.000000 0.000000 0.000000 -0.134439
3 12.067241 32.559124 25.800257 -20.075782 -1.192607 20.074697
4 22.486000 0.000000 0.000000 1.570796 0.435015 -0.000000
5 15.947000 0.000000 0.000000 -8.081424 5.921090 0.635352
6 19.768000 0.000000 0.000000 0.000001 -0.000000 0.136775
7 58.241417 29.326660 0.000000 0.000000 0.000000 0.386773
8 66.352951 0.000000 0.000000 0.000000 0.000000 0.092031
9 31.718473 17.190714 0.000000 0.000000 0.000000 -0.226569
10 22.464914 31.710808 0.000000 1.394932 -1.570796 1.394932
11 0.207232 27.529823 29.141125 -7.865367 -0.078914 7.780548
12 -48.533508 50.487892 46.780914 0.785561 -2.309615 -0.977985
13 -44.139824 -5.858725 0.000000 0.000000 0.000000 2.789864
14 107.462242 0.693102 0.623600 0.000000 0.000000 0.000000
15 -48.533508 50.487892 -46.780914 -0.785561 2.309615 -0.977985
16 0.207232 27.529823 -29.141125 11.006959 3.062679 10.922140
17 12.067241 32.559124 -25.800257 -5.226049 1.315210 -5.451939
18 22.486000 0.000000 0.000000 -1.570796 -0.076487 -0.000000
19 15.947000 0.000000 0.000000 1.650911 0.433556 0.641482
20 19.768000 0.000000 0.000000 -0.000001 0.000000 0.181610
time 29
1 0.000000 -18.629589 29.693361 -1.570796 0.351728 -1.570796
2 65.355888 0.000000 0.000000 0.000000 0.000000 -0.134439
3 12.067241 32.559124 25.800257 -20.071090 -1.193218 20.074476
4 22.486000 0.000000 0.000000 1.570796 0.433524 -0.000000
5 15.947000 0.000000 0.000000 -8.081026 5.923420 0.635159
6 19.768000 0.000000 0.000000 0.000001 -0.000000 0.137971
7 58.241417 29.326660 0.000000 0.000000 0.000000 0.386773
8 66.352951 0.000000 0.000000 0.000000 0.000000 0.092031
9 31.718473 17.190714 0.000000 0.000000 0.000000 -0.226569
10 22.464914 31.710808 0.000000 1.394932 -1.570796 1.394932
11 0.207232 27.529823 29.141125 -7.865367 -0.078914 7.780548
12 -48.533508 50.487892 46.780914 0.785561 -2.309615 -0.977985
13 -44.139824 -5.858725 0.000000 0.000000 0.000000 2.789864
14 107.462242 0.693102 0.623600 0.000000 0.000000 0.000000
15 -48.533508 50.487892 -46.780914 -0.785561 2.309615 -0.977985
16 0.207232 27.529823 -29.141125 11.006959 3.062679 10.922140
17 12.067241 32.559124 -25.800257 -5.222386 1.315442 -5.448174
18 22.486000 0.000000 0.000000 -1.570796 -0.077206 -0.000000
19 15.947000 0.000000 0.000000 1.650975 0.435291 0.641635
20 19.768000 0.000000 0.000000 -0.000001 0.000000 0.180514
time 30
1 0.000000 -18.629589 29.693361 -1.570796 0.351728 -1.570796
2 65.355888 0.000000 0.000000 0.000000 0.000000 -0.134439
3 12.067241 32.559124 25.800257 -20.067566 -1.194086 20.074162
4 22.486000 0.000000 0.000000 1.570796 0.431503 -0.000000
5 15.947000 0.000000 0.000000 -8.079917 5.926093 0.634936
6 19.768000 0.000000 0.000000 0.000001 -0.000000 0.139598
7 58.241417 29.326660 0.000000 0.000000 0.000000 0.386773
8 66.352951 0.000000 0.000000 0.000000 0.000000 0.092031
9 31.718473 17.190714 0.000000 0.000000 0.000000 -0.226569
10 22.464914 31.710808 0.000000 1.394932 -1.570796 1.394932
11 0.207232 27.529823 29.141125 -7.865367 -0.078914 7.780548
12 -48.533508 50.487892 46.780914 0.785561 -2.309615 -0.977985
13 -44.139824 -5.858725 0.000000 0.000000 0.000000 2.789864
14 107.462242 0.693102 0.623600 0.000000 0.000000 0.000000
15 -48.533508 50.487892 -46.780914 -0.785561 2.309615 -0.977985
16 0.207232 27.529823 -29.141125 11.006959 3.062679 10.922140
17 12.067241 32.559124 -25.800257 -5.216617 1.315392 -5.442272
18 22.486000 0.000000 0.000000 -1.570796 -0.079302 -0.000000
19 15.947000 0.000000 0.000000 1.650998 0.435887 0.641688
20 19.768000 0.000000 0.000000 -0.000001 0.000000 0.179653
time 31
1 0.000000 -18.629589 29.693361 -1.570796 0.351728 -1.570796
2 65.355888 0.000000 0.000000 0.000000 0.000000 -0.134439
3 12.067241 32.559124 25.800257 -20.065242 -1.195212 20.073751
4 22.486000 0.000000 0.000000 1.570796 0.428988 -0.000000
5 15.947000 0.000000 0.000000 -8.078062 5.929083 0.634689
6 19.768000 0.000000 0.000000 0.000001 -0.000000 0.141626
7 58.241417 29.326660 0.000000 0.000000 0.000000 0.386773
8 66.352951 0.000000 0.000000 0.000000 0.000000 0.092031
9 31.718473 17.190714 0.000000 0.000000 0.000000 -0.226569
10 22.464914 31.710808 0.000000 1.394932 -1.570796 1.394932
11 0.207232 27.529823 29.141125 -7.865367 -0.078914 7.780548
12 -48.533508 50.487892 46.780914 0.785561 -2.309615 -0.977985
13 -44.139824 -5.858725 0.000000 0.000000 0.000000 2.789864
14 107.462242 0.693102 0.623600 0.000000 0.000000 0.000000
15 -48.533508 50.487892 -46.780914 -0.785561 2.309615 -0.977985
16 0.207232 27.529823 -29.141125 11.006959 3.062679 10.922140
17 12.067241 32.559124 -25.800257 -5.208908 1.315068 -5.434400
18 22.486000 0.000000 0.000000 -1.570796 -0.082679 -0.000000
19 15.947000 0.000000 0.000000 1.650975 0.435291 0.641635
20 19.768000 0.000000 0.000000 -0.000001 0.000000 0.179038
time 32
1 0.000000 -18.629589 29.693361 -1.570796 0.351728 -1.570796
2 65.355888 0.000000 0.000000 0.000000 0.000000 -0.134439
3 12.067241 32.559124 25.800257 -20.064123 -1.196589 20.073246
4 22.486000 0.000000 0.000000 1.570796 0.426019 -0.000000
5 15.947000 0.000000 0.000000 -8.075428 5.932361 0.634417
6 19.768000 0.000000 0.000000 0.000001 -0.000000 0.144027
7 58.241417 29.326660 0.000000 0.000000 0.000000 0.386773
8 66.352951 0.000000 0.000000 0.000000 0.000000 0.092031
9 31.718473 17.190714 0.000000 0.000000 0.000000 -0.226569
10 22.464914 31.710808 0.000000 1.394932 -1.570796 1.394932
11 0.207232 27.529823 29.141125 -7.865367 -0.078914 7.780548
12 -48.533508 50.487892 46.780914 0.785561 -2.309615 -0.977985
13 -44.139824 -5.858725 0.000000 0.000000 0.000000 2.789864
14 107.462242 0.693102 0.623600 0.000000 0.000000 0.000000
15 -48.533508 50.487892 -46.780914 -0.785561 2.309615 -0.977985
16 0.207232 27.529823 -29.141125 11.006959 3.062679 10.922140
17 12.067241 32.559124 -25.800257 -5.199436 1.314478 -5.424736
18 22.486000 0.000000 0.000000 -1.570796 -0.087243 -0.000000
19 15.947000 0.000000 0.000000 1.650911 0.433556 0.641482
20 19.768000 0.000000 0.000000 -0.000001 0.000000 0.178678
time 33
1 0.000000 -18.629589 29.693361 -1.570796 0.351728 -1.570796
2 65.355888 0.000000 0.000000 0.000000 0.000000 -0.134439
3 12.067241 32.559124 25.800257 -20.064447 -1.198212 20.072648
4 22.486000 0.000000 0.000000 1.570796 0.422633 -0.000000
5 15.947000 0.000000 0.000000 -8.071989 5.935901 0.634125
6 19.768000 0.000000 0.000000 0.000001 -0.000000 0.146770
7 58.241417 29.326660 0.000000 0.000000 0.000000 0.386773
8 66.352951 0.000000 0.000000 0.000000 0.000000 0.092031
9 31.718473 17.190714 0.000000 0.000000 0.000000 -0.226569
10 22.464914 31.710808 0.000000 1.394932 -1.570796 1.394932
11 0.207232 27.529823 29.141125 -7.865367 -0.078914 7.780548
12 -48.533508 50.487892 46.780914 0.785561 -2.309615 -0.977985
13 -44.139824 -5.858725 0.000000 0.000000 0.000000 2.789864
14 107.462242 0.693102 0.623600 0.000000 0.000000 0.000000
15 -48.533508 50.487892 -46.780914 -0.785561 2.309615 -0.977985
16 0.207232 27.529823 -29.141125 11.006959 3.062679 10.922140
17 12.067241 32.559124 -25.800257 -5.188387 1.313626 -5.413465
18 22.486000 0.000000 0.000000 -1.570796 -0.092898 -0.000000
19 15.947000 0.000000 0.000000 1.650808 0.430765 0.641235
20 19.768000 0.000000 0.000000 -0.000001 0.000000 0.178578
time 34
1 0.000000 -18.629589 29.693361 -1.570796 0.351728 -1.570796
2 65.355888 0.000000 0.000000 0.000000 0.000000 -0.134439
3 12.067241 32.559124 25.800257 -20.066556 -1.200069 20.071957
4 22.486000 0.000000 0.000000 1.570796 0.418868 -0.000000
5 15.947000 0.000000 0.000000 -8.067735 5.939675 0.633815
6 19.768000 0.000000 0.000000 0.000001 -0.000000 0.149825
7 58.241417 29.326660 0.000000 0.000000 0.000000 0.386773
8 66.352951 0.000000 0.000000 0.000000 0.000000 0.092031
9 31.718473 17.190714 0.000000 0.000000 0.000000 -0.226569
10 22.464914 31.710808 0.000000 1.394932 -1.570796 1.394932
11 0.207232 27.529823 29.141125 -7.865367 -0.078914 7.780548
12 -48.533508 50.487892 46.780914 0.785561 -2.309615 -0.977985
13 -44.139824 -5.858725 0.000000 0.000000 0.000000 2.789864
14 107.462242 0.693102 0.623600 0.000000 0.000000 0.000000
15 -48.533508 50.487892 -46.780914 -0.785561 2.309615 -0.977985
16 0.207232 27.529823 -29.141125 11.006959 3.062679 10.922140
17 12.067241 32.559124 -25.800257 -5.175952 1.312519 -5.400779
18 22.486000 0.000000 0.000000 -1.570796 -0.099549 -0.000000
19 15.947000 0.000000 0.000000 1.650669 0.426998 0.640903
20 19.768000 0.000000 0.000000 -0.000001 0.000000 0.178744
time 35
1 0.000000 -18.629589 29.693361 -1.570796 0.351728 -1.570796
2 65.355888 0.000000 0.000000 0.000000 0.000000 -0.134439
3 12.067241 32.559124 25.800257 -20.070600 -1.202147 20.071173
4 22.486000 0.000000 0.000000 1.570796 0.414761 -0.000000
5 15.947000 0.000000 0.000000 -8.062666 5.943656 0.633488
6 19.768000 0.000000 0.000000 0.000001 -0.000000 0.153159
7 58.241417 29.326660 0.000000 0.000000 0.000000 0.386773
8 66.352951 0.000000 0.000000 0.000000 0.000000 0.092031
9 31.718473 17.190714 0.000000 0.000000 0.000000 -0.226569
10 22.464914 31.710808 0.000000 1.394932 -1.570796 1.394932
11 0.207232 27.529823 29.141125 -7.865367 -0.078914 7.780548
12 -48.533508 50.487892 46.780914 0.785561 -2.309615 -0.977985
13 -44.139824 -5.858725 0.000000 0.000000 0.000000 2.789864
14 107.462242 0.693102 0.623600 0.000000 0.000000 0.000000
15 -48.533508 50.487892 -46.780914 -0.785561 2.309615 -0.977985
16 0.207232 27.529823 -29.141125 11.006959 3.062679 10.922140
17 12.067241 32.559124 -25.800257 -5.162324 1.311163 -5.386873
18 22.486000 0.000000 0.000000 -1.570796 -0.107102 -0.000000
19 15.947000 0.000000 0.000000 1.650501 0.422336 0.640494
20 19.768000 0.000000 0.000000 -0.000001 0.000000 0.179181
time 36
1 0.000000 -18.629589 29.693361 -1.570796 0.351728 -1.570796
2 65.355888 0.000000 0.000000 0.000000 0.000000 -0.134439
3 12.067241 32.559124 25.800257 -20.076685 -1.204428 20.070306
4 22.486000 0.000000 0.000000 1.570796 0.410352 -0.000000
5 15.947000 0.000000 0.000000 -8.056807 5.947817 0.633148
6 19.768000 0.000000 0.000000 0.000001 -0.000000 0.156743
7 58.241417 29.326660 0.000000 0.000000 0.000000 0.386773
8 66.352951 0.000000 0.000000 0.000000 0.000000 0.092031
9 31.718473 17.190714 0.000000 0.000000 0.000000 -0.226569
10 22.464914 31.710808 0.000000 1.394932 -1.570796 1.394932
11 0.207232 27.529823 29.141125 -7.865367 -0.078914 7.780548
12 -48.533508 50.487892 46.780914 0.785561 -2.309615 -0.977985
13 -44.139824 -5.858725 0.000000 0.000000 0.000000 2.789864
14 107.462242 0.693102 0.623600 0.000000 0.000000 0.000000
15 -48.533508 50.487892 -46.780914 -0.785561 2.309615 -0.977985
16 0.207232 27.529823 -29.141125 11.006959 3.062679 10.922140
17 12.067241 32.559124 -25.800257 -5.147700 1.309564 -5.371942
18 22.486000 0.000000 0.000000 -1.570796 -0.115462 -0.000000
19 15.947000 0.000000 0.000000 1.650306 0.416862 0.640016
20 19.768000 0.000000 0.000000 -0.000001 0.000000 0.180000
time 37
1 0.000000 -18.629589 29.693361 -1.570796 0.351728 -1.570796
2 65.355888 0.000000 0.000000 0.000000 0.000000 -0.134439
3 12.067241 32.559124 25.800257 -20.084836 -1.206891 20.069356
4 22.486000 0.000000 0.000000 1.570796 0.405677 -0.000000
5 15.947000 0.000000 0.000000 -8.050209 5.952129 0.632796
6 19.768000 0.000000 0.000000 0.000001 -0.000000 0.160542
7 58.241417 29.326660 0.000000 0.000000 0.000000 0.386773
8 66.352951 0.000000 0.000000 0.000000 0.000000 0.092031
9 31.718473 17.190714 0.000000 0.000000 0.000000 -0.226569
10 22.464914 31.710808 0.000000 1.394932 -1.570796 1.394932
11 0.207232 27.529823 29.141125 -7.865367 -0.078914 7.780548
12 -48.533508 50.487892 46.780914 0.785561 -2.309615 -0.977985
13 -44.139824 -5.858725 0.000000 0.000000 0.000000 2.789864
14 107.462242 0.693102 0.623600 0.000000 0.000000 0.000000
15 -48.533508 50.487892 -46.780914 -0.785561 2.309615 -0.977985
16 0.207232 27.529823 -29.141125 11.006959 3.062679 10.922140
17 12.067241 32.559124 -25.800257 -5.132271 1.307732 -5.356180
18 22.486000 0.000000 0.000000 -1.570796 -0.124533 -0.000000
19 15.947000 0.000000 0.000000 1.650089 0.410655 0.639477
20 19.768000 0.000000 0.000000 -0.000001 0.000000 0.181303
time 38
1 0.000000 -18.629589 29.693361 -1.570796 0.351728 -1.570796
2 65.355888 0.000000 0.000000 0.000000 0.000000 -0.134439
3 12.067241 32.559124 25.800257 -20.094959 -1.209513 20.068331
4 22.486000 0.000000 0.000000 1.570796 0.400774 -0.000000
5 15.947000 0.000000 0.000000 -8.042949 5.956566 0.632435
6 19.768000 0.000000 0.000000 0.000001 -0.000000 0.164526
7 58.241417 29.326660 0.000000 0.000000 0.000000 0.386773
8 66.352951 0.000000 0.000000 0.000000 0.000000 0.092031
9 31.718473 17.190714 0.000000 0.000000 0.000000 -0.226569
10 22.464914 31.710808 0.000000 1.394932 -1.570796 1.394932
11 0.207232 27.529823 29.141125 -7.865367 -0.078914 7.780548
12 -48.533508 50.487892 46.780914 0.785561 -2.309615 -0.977985
13 -44.139824 -5.858725 0.000000 0.000000 0.000000 2.789864
14 107.462242 0.693102 0.623600 0.000000 0.000000 0.000000
15 -48.533508 50.487892 -46.780914 -0.785561 2.309615 -0.977985
16 0.207232 27.529823 -29.141125 11.006959 3.062679 10.922140
17 12.067241 32.559124 -25.800257 -5.116229 1.305677 -5.339775
18 22.486000 0.000000 0.000000 -1.570796 -0.134222 -0.000000
19 15.947000 0.000000 0.000000 1.649855 0.403798 0.638884
20 19.768000 0.000000 0.000000 -0.000001 0.000000 0.183066
time 39
1 0.000000 -18.629589 29.693361 -1.570796 0.351728 -1.570796
2 65.355888 0.000000 0.000000 0.000000 0.000000 -0.134439
3 12.067241 32.559124 25.800257 -20.106806 -1.212265 20.067240
4 22.486000 0.000000 0.000000 1.570796 0.395682 -0.000000
5 15.947000 0.000000 0.000000 -8.035134 5.961100 0.632068
6 19.768000 0.000000 0.000000 0.000001 -0.000000 0.168662
7 58.241417 29.326660 0.000000 0.000000 0.000000 0.386773
8 66.352951 0.000000 0.000000 0.000000 0.000000 0.092031
9 31.718473 17.190714 0.000000 0.000000 0.000000 -0.226569
10 22.464914 31.710808 0.000000 1.394932 -1.570796 1.394932
11 0.207232 27.529823 29.141125 -7.865367 -0.078914 7.780548
12 -48.533508 50.487892 46.780914 0.785561 -2.309615 -0.977985
13 -44.139824 -5.858725 0.000000 0.000000 0.000000 2.789864
14 107.462242 0.693102 0.623600 0.000000 0.000000 0.000000
15 -48.533508 50.487892 -46.780914 -0.785561 2.309615 -0.977985
16 0.207232 27.529823 -29.141125 11.006959 3.062679 10.922140
17 12.067241 32.559124 -25.800257 -5.099753 1.303412 -5.322913
18 22.486000 0.000000 0.000000 -1.570796 -0.144432 -0.000000
19 15.947000 0.000000 0.000000 1.649606 0.396372 0.638246
20 19.768000 0.000000 0.000000 -0.000001 0.000000 0.185258
time 40
1 0.000000 -18.629589 29.693361 -1.570796 0.351728 -1.570796
2 65.355888 0.000000 0.000000 0.000000 0.000000 -0.134439
3 12.067241 32.559124 25.800257 -20.119986 -1.215117 20.066092
4 22.486000 0.000000 0.000000 1.570796 0.390439 -0.000000
5 15.947000 0.000000 0.000000 -8.026896 5.965705 0.631696
6 19.768000 0.000000 0.000000 0.000001 -0.000000 0.172916
7 58.241417 29.326660 0.000000 0.000000 0.000000 0.386773
8 66.352951 0.000000 0.000000 0.000000 0.000000 0.092031
9 31.718473 17.190714 0.000000 0.000000 0.000000 -0.226569
10 22.464914 31.710808 0.000000 1.394932 -1.570796 1.394932
11 0.207232 27.529823 29.141125 -7.865367 -0.078914 7.780548
12 -48.533508 50.487892 46.780914 0.785561 -2.309615 -0.977985
13 -44.139824 -5.858725 0.000000 0.000000 0.000000 2.789864
14 107.462242 0.693102 0.623600 0.000000 0.000000 0.000000
15 -48.533508 50.487892 -46.780914 -0.785561 2.309615 -0.977985
16 0.207232 27.529823 -29.141125 11.006959 3.062679 10.922140
17 12.067241 32.559124 -25.800257 -5.083018 1.300952 -5.305767
18 22.486000 0.000000 0.000000 -1.570796 -0.155070 -0.000000
19 15.947000 0.000000 0.000000 1.649348 0.388458 0.637571
20 19.768000 0.000000 0.000000 -0.000001 0.000000 0.187830
time 41
1 0.000000 -18.629589 29.693361 -1.570796 0.351728 -1.570796
2 65.355888 0.000000 0.000000 0.000000 0.000000 -0.134439
3 12.067241 32.559124 25.800257 -20.133998 -1.218038 20.064899
4 22.486000 0.000000 0.000000 1.570796 0.385082 -0.000000
5 15.947000 0.000000 0.000000 -8.018389 5.970351 0.631321
6 19.768000 0.000000 0.000000 0.000001 -0.000000 0.177256
7 58.241417 29.326660 0.000000 0.000000 0.000000 0.386773
8 66.352951 0.000000 0.000000 0.000000 0.000000 0.092031
9 31.718473 17.190714 0.000000 0.000000 0.000000 -0.226569
10 22.464914 31.710808 0.000000 1.394932 -1.570796 1.394932
11 0.207232 27.529823 29.141125 -7.865367 -0.078914 7.780548
12 -48.533508 50.487892 46.780914 0.785561 -2.309615 -0.977985
13 -44.139824 -5.858725 0.000000 0.000000 0.000000 2.789864
14 107.462242 0.693102 0.623600 0.000000 0.000000 0.000000
15 -48.533508 50.487892 -46.780914 -0.785561 2.309615 -0.977985
16 0.207232 27.529823 -29.141125 11.006959 3.062679 10.922140
17 12.067241 32.559124 -25.800257 -5.066191 1.298314 -5.288505
18 22.486000 0.000000 0.000000 -1.570796 -0.166040 -0.000000
19 15.947000 0.000000 0.000000 1.649084 0.380137 0.636866
20 19.768000 0.000000 0.000000 -0.000001 0.000000 0.190727
time 42
1 0.000000 -18.629589 29.693361 -1.570796 0.351728 -1.570796
2 65.355888 0.000000 0.000000 0.000000 0.000000 -0.134439
3 12.067241 32.559124 25.800257 -20.148303 -1.220995 20.063670
4 22.486000 0.000000 0.000000 1.570796 0.379649 -0.000000
5 15.947000 0.000000 0.000000 -8.009772 5.975013 0.630947
6 19.768000 0.000000 0.000000 0.000001 -0.000000 0.181649
7 58.241417 29.326660 0.000000 0.000000 0.000000 0.386773
8 66.352951 0.000000 0.000000 0.000000 0.000000 0.092031
9 31.718473 17.190714 0.000000 0.000000 0.000000 -0.226569
10 22.464914 31.710808 0.000000 1.394932 -1.570796 1.394932
11 0.207232 27.529823 29.141125 -7.865367 -0.078914 7.780548
12 -48.533508 50.487892 46.780914 0.785561 -2.309615 -0.977985
13 -44.139824 -5.858725 0.000000 0.000000 0.000000 2.789864
14 107.462242 0.693102 0.623600 0.000000 0.000000 0.000000
15 -48.533508 50.487892 -46.780914 -0.785561 2.309615 -0.977985
16 0.207232 27.529823 -29.141125 11.006959 3.062679 10.922140
17 12.067241 32.559124 -25.800257 -5.049423 1.295520 -5.271283
18 22.486000 0.000000 0.000000 -1.570796 -0.177246 -0.000000
19 15.947000 0.000000 0.000000 1.648816 0.371490 0.636138
20 19.768000 0.000000 0.000000 -0.000001 0.000000 0.193881
time 43
1 0.000000 -18.629589 29.693361 -1.570796 0.351728 -1.570796
2 65.355888 0.000000 0.000000 0.000000 0.000000 -0.134439
3 12.067241 32.559124 25.800257 -20.162407 -1.223955 20.062421
4 22.486000 0.000000 0.000000 1.570796 0.374178 -0.000000
5 15.947000 0.000000 0.000000 -8.001206 5.979662 0.630574
6 19.768000 0.000000 0.000000 0.000001 -0.000000 0.186063
7 58.241417 29.326660 0.000000 0.000000 0.000000 0.386773
8 66.352951 0.000000 0.000000 0.000000 0.000000 0.092031
9 31.718473 17.190714 0.000000 0.000000 0.000000 -0.226569
10 22.464914 31.710808 0.000000 1.394932 -1.570796 1.394932
11 0.207232 27.529823 29.141125 -7.865367 -0.078914 7.780548
12 -48.533508 50.487892 46.780914 0.785561 -2.309615 -0.977985
13 -44.139824 -5.858725 0.000000 0.000000 0.000000 2.789864
14 107.462242 0.693102 0.623600 0.000000 0.000000 0.000000
15 -48.533508 50.487892 -46.780914 -0.785561 2.309615 -0.977985
16 0.207232 27.529823 -29.141125 11.006959 3.062679 10.922140
17 12.067241 32.559124 -25.800257 -5.032856 1.292592 -5.254243
18 22.486000 0.000000 0.000000 -1.570796 -0.188596 -0.000000
19 15.947000 0.000000 0.000000 1.648550 0.362599 0.635394
20 19.768000 0.000000 0.000000 -0.000001 0.000000 0.197220
time 44
1 0.000000 -18.629589 29.693361 -1.570796 0.351728 -1.570796
2 65.355888 0.000000 0.000000 0.000000 0.000000 -0.134439
3 12.067241 32.559124 25.800257 -20.175914 -1.226884 20.061162
4 22.486000 0.000000 0.000000 1.570796 0.368707 -0.000000
5 15.947000 0.000000 0.000000 -7.992838 5.984272 0.630206
6 19.768000 0.000000 0.000000 0.000001 -0.000000 0.190466
7 58.241417 29.326660 0.000000 0.000000 0.000000 0.386773
8 66.352951 0.000000 0.000000 0.000000 0.000000 0.092031
9 31.718473 17.190714 0.000000 0.000000 0.000000 -0.226569
10 22.464914 31.710808 0.000000 1.394932 -1.570796 1.394932
11 0.207232 27.529823 29.141125 -7.865367 -0.078914 7.780548
12 -48.533508 50.487892 46.780914 0.785561 -2.309615 -0.977985
13 -44.139824 -5.858725 0.000000 0.000000 0.000000 2.789864
14 107.462242 0.693102 0.623600 0.000000 0.000000 0.000000
15 -48.533508 50.487892 -46.780914 -0.785561 2.309615 -0.977985
16 0.207232 27.529823 -29.141125 11.006959 3.062679 10.922140
17 12.067241 32.559124 -25.800257 -5.016619 1.289555 -5.237517
18 22.486000 0.000000 0.000000 -1.570796 -0.199993 -0.000000
19 15.947000 0.000000 0.000000 1.648286 0.353546 0.634643
20 19.768000 0.000000 0.000000 -0.000001 0.000000 0.200672
time 45
1 0.000000 -18.629589 29.693361 -1.570796 0.351728 -1.570796
2 65.355888 0.000000 0.000000 0.000000 0.000000 -0.134439
3 12.067241 32.559124 25.800257 -20.188544 -1.229753 20.059911
4 22.486000 0.000000 0.000000 1.570796 0.363274 -0.000000
5 15.947000 0.000000 0.000000 -7.984793 5.988814 0.629845
6 19.768000 0.000000 0.000000 0.000001 -0.000000 0.194825
7 58.241417 29.326660 0.000000 0.000000 0.000000 0.386773
8 66.352951 0.000000 0.000000 0.000000 0.000000 0.092031
9 31.718473 17.190714 0.000000 0.000000 0.000000 -0.226569
10 22.464914 31.710808 0.000000 1.394932 -1.570796 1.394932
11 0.207232 27.529823 29.141125 -7.865367 -0.078914 7.780548
12 -48.533508 50.487892 46.780914 0.785561 -2.309615 -0.977985
13 -44.139824 -5.858725 0.000000 0.000000 0.000000 2.789864
14 107.462242 0.693102 0.623600 0.000000 0.000000 0.000000
15 -48.533508 50.487892 -46.780914 -0.785561 2.309615 -0.977985
16 0.207232 27.529823 -29.141125 11.006959 3.062679 10.922140
17 12.067241 32.559124 -25.800257 -5.000829 1.286437 -5.221228
18 22.486000 0.000000 0.000000 -1.570796 -0.211342 -0.000000
19 15.947000 0.000000 0.000000 1.648028 0.344411 0.633889
20 19.768000 0.000000 0.000000 -0.000001 0.000000 0.204164
time 46
1 0.000000 -18.629589 29.693361 -1.570796 0.351728 -1.570796
2 65.355888 0.000000 0.000000 0.000000 0.000000 -0.134439
3 12.067241 32.559124 25.800257 -20.200130 -1.232532 20.058678
4 22.486000 0.000000 0.000000 1.570796 0.357916 -0.000000
5 15.947000 0.000000 0.000000 -7.977177 5.993262 0.629491
6 19.768000 0.000000 0.000000 0.000001 -0.000000 0.199108
7 58.241417 29.326660 0.000000 0.000000 0.000000 0.386773
8 66.352951 0.000000 0.000000 0.000000 0.000000 0.092031
9 31.718473 17.190714 0.000000 0.000000 0.000000 -0.226569
10 22.464914 31.710808 0.000000 1.394932 -1.570796 1.394932
11 0.207232 27.529823 29.141125 -7.865367 -0.078914 7.780548
12 -48.533508 50.487892 46.780914 0.785561 -2.309615 -0.977985
13 -44.139824 -5.858725 0.000000 0.000000 0.000000 2.789864
14 107.462242 0.693102 0.623600 0.000000 0.000000 0.000000
15 -48.533508 50.487892 -46.780914 -0.785561 2.309615 -0.977985
16 0.207232 27.529823 -29.141125 11.006959 3.062679 10.922140
17 12.067241 32.559124 -25.800257 -4.985591 1.283268 -5.205482
18 22.486000 0.000000 0.000000 -1.570796 -0.222549 -0.000000
19 15.947000 0.000000 0.000000 1.647779 0.335276 0.633140
20 19.768000 0.000000 0.000000 -0.000001 0.000000 0.207630
time 47
1 0.000000 -18.629589 29.693361 -1.570796 0.351728 -1.570796
2 65.355888 0.000000 0.000000 0.000000 0.000000 -0.134439
3 12.067241 32.559124 25.800257 -20.210595 -1.235194 20.057480
4 22.486000 0.000000 0.000000 1.570796 0.352673 -0.000000
5 15.947000 0.000000 0.000000 -7.970063 5.997588 0.629149
6 19.768000 0.000000 0.000000 0.000001 -0.000000 0.203286
7 58.241417 29.326660 0.000000 0.000000 0.000000 0.386773
8 66.352951 0.000000 0.000000 0.000000 0.000000 0.092031
9 31.718473 17.190714 0.000000 0.000000 0.000000 -0.226569
10 22.464914 31.710808 0.000000 1.394932 -1.570796 1.394932
11 0.207232 27.529823 29.141125 -7.865367 -0.078914 7.780548
12 -48.533508 50.487892 46.780914 0.785561 -2.309615 -0.977985
13 -44.139824 -5.858725 0.000000 0.000000 0.000000 2.789864
14 107.462242 0.693102 0.623600 0.000000 0.000000 0.000000
15 -48.533508 50.487892 -46.780914 -0.785561 2.309615 -0.977985
16 0.207232 27.529823 -29.141125 11.006959 3.062679 10.922140
17 12.067241 32.559124 -25.800257 -4.970998 1.280079 -5.190377
18 22.486000 0.000000 0.000000 -1.570796 -0.233519 -0.000000
19 15.947000 0.000000 0.000000 1.647539 0.326222 0.632403
20 19.768000 0.000000 0.000000 -0.000001 0.000000 0.211010
time 48
1 0.000000 -18.629589 29.693361 -1.570796 0.351728 -1.570796
2 65.355888 0.000000 0.000000 0.000000 0.000000 -0.134439
3 12.067241 32.559124 25.800257 -20.219929 -1.237717 20.056326
4 22.486000 0.000000 0.000000 1.570796 0.347581 -0.000000
5 15.947000 0.000000 0.000000 -7.963508 6.001765 0.628819
6 19.768000 0.000000 0.000000 0.000001 -0.000000 0.207326
7 58.241417 29.326660 0.000000 0.000000 0.000000 0.386773
8 66.352951 0.000000 0.000000 0.000000 0.000000 0.092031
9 31.718473 17.190714 0.000000 0.000000 0.000000 -0.226569
10 22.464914 31.710808 0.000000 1.394932 -1.570796 1.394932
11 0.207232 27.529823 29.141125 -7.865367 -0.078914 7.780548
12 -48.533508 50.487892 46.780914 0.785561 -2.309615 -0.977985
13 -44.139824 -5.858725 0.000000 0.000000 0.000000 2.789864
14 107.462242 0.693102 0.623600 0.000000 0.000000 0.000000
15 -48.533508 50.487892 -46.780914 -0.785561 2.309615 -0.977985
16 0.207232 27.529823 -29.141125 11.006959 3.062679 10.922140
17 12.067241 32.559124 -25.800257 -4.957132 1.276902 -5.176001
18 22.486000 0.000000 0.000000 -1.570796 -0.244156 -0.000000
19 15.947000 0.000000 0.000000 1.647312 0.317331 0.631684
20 19.768000 0.000000 0.000000 -0.000001 0.000000 0.214254
time 49
1 0.000000 -18.629589 29.693361 -1.570796 0.351728 -1.570796
2 65.355888 0.000000 0.000000 0.000000 0.000000 -0.134439
3 12.067241 32.559124 25.800257 -20.228157 -1.240080 20.055231
4 22.486000 0.000000 0.000000 1.570796 0.342678 -0.000000
5 15.947000 0.000000 0.000000 -7.957542 6.005765 0.628503
6 19.768000 0.000000 0.000000 0.000001 -0.000000 0.211199
7 58.241417 29.326660 0.000000 0.000000 0.000000 0.386773
8 66.352951 0.000000 0.000000 0.000000 0.000000 0.092031
9 31.718473 17.190714 0.000000 0.000000 0.000000 -0.226569
10 22.464914 31.710808 0.000000 1.394932 -1.570796 1.394932
11 0.207232 27.529823 29.141125 -7.865367 -0.078914 7.780548
12 -48.533508 50.487892 46.780914 0.785561 -2.309615 -0.977985
13 -44.139824 -5.858725 0.000000 0.000000 0.000000 2.789864
14 107.462242 0.693102 0.623600 0.000000 0.000000 0.000000
15 -48.533508 50.487892 -46.780914 -0.785561 2.309615 -0.977985
16 0.207232 27.529823 -29.141125 11.006959 3.062679 10.922140
17 12.067241 32.559124 -25.800257 -4.944067 1.273773 -5.162430
18 22.486000 0.000000 0.000000 -1.570796 -0.254366 -0.000000
19 15.947000 0.000000 0.000000 1.647098 0.308683 0.630988
20 19.768000 0.000000 0.000000 -0.000001 0.000000 0.217322
time 50
1 0.000000 -18.629589 29.693361 -1.570796 0.351728 -1.570796
2 65.355888 0.000000 0.000000 0.000000 0.000000 -0.134439
3 12.067241 32.559124 25.800257 -20.235337 -1.242267 20.054202
4 22.486000 0.000000 0.000000 1.570796 0.338004 -0.000000
5 15.947000 0.000000 0.000000 -7.952179 6.009561 0.628205
6 19.768000 0.000000 0.000000 0.000001 -0.000000 0.214876
7 58.241417 29.326660 0.000000 0.000000 0.000000 0.386773
8 66.352951 0.000000 0.000000 0.000000 0.000000 0.092031
9 31.718473 17.190714 0.000000 0.000000 0.000000 -0.226569
10 22.464914 31.710808 0.000000 1.394932 -1.570796 1.394932
11 0.207232 27.529823 29.141125 -7.865367 -0.078914 7.780548
12 -48.533508 50.487892 46.780914 0.785561 -2.309615 -0.977985
13 -44.139824 -5.858725 0.000000 0.000000 0.000000 2.789864
14 107.462242 0.693102 0.623600 0.000000 0.000000 0.000000
15 -48.533508 50.487892 -46.780914 -0.785561 2.309615 -0.977985
16 0.207232 27.529823 -29.141125 11.006959 3.062679 10.922140
17 12.067241 32.559124 -25.800257 -4.931867 1.270726 -5.149736
18 22.486000 0.000000 0.000000 -1.570796 -0.264055 -0.000000
19 15.947000 0.000000 0.000000 1.646898 0.300360 0.630322
20 19.768000 0.000000 0.000000 -0.000001 0.000000 0.220181
time 51
1 0.000000 -18.629589 29.693361 -1.570796 0.351728 -1.570796
2 65.355888 0.000000 0.000000 0.000000 0.000000 -0.134439
3 12.067241 32.559124 25.800257 -20.241533 -1.244265 20.053251
4 22.486000 0.000000 0.000000 1.570796 0.333594 -0.000000
5 15.947000 0.000000 0.000000 -7.947422 6.013125 0.627925
6 19.768000 0.000000 0.000000 0.000001 -0.000000 0.218327
7 58.241417 29.326660 0.000000 0.000000 0.000000 0.386773
8 66.352951 0.000000 0.000000 0.000000 0.000000 0.092031
9 31.718473 17.190714 0.000000 0.000000 0.000000 -0.226569
10 22.464914 31.710808 0.000000 1.394932 -1.570796 1.394932
11 0.207232 27.529823 29.141125 -7.865367 -0.078914 7.780548
12 -48.533508 50.487892 46.780914 0.785561 -2.309615 -0.977985
13 -44.139824 -5.858725 0.000000 0.000000 0.000000 2.789864
14 107.462242 0.693102 0.623600 0.000000 0.000000 0.000000
15 -48.533508 50.487892 -46.780914 -0.785561 2.309615 -0.977985
16 0.207232 27.529823 -29.141125 11.006959 3.062679 10.922140
17 12.067241 32.559124 -25.800257 -4.920590 1.267797 -5.137983
18 22.486000 0.000000 0.000000 -1.570796 -0.273126 -0.000000
19 15.947000 0.000000 0.000000 1.646714 0.292445 0.629691
20 19.768000 0.000000 0.000000 -0.000001 0.000000 0.222809
time 52
1 0.000000 -18.629589 29.693361 -1.570796 0.351728 -1.570796
2 65.355888 0.000000 0.000000 0.000000 0.000000 -0.134439
3 12.067241 32.559124 25.800257 -20.246814 -1.246063 20.052384
4 22.486000 0.000000 0.000000 1.570796 0.329487 -0.000000
5 15.947000 0.000000 0.000000 -7.943263 6.016431 0.627666
6 19.768000 0.000000 0.000000 0.000001 -0.000000 0.221525
7 58.241417 29.326660 0.000000 0.000000 0.000000 0.386773
8 66.352951 0.000000 0.000000 0.000000 0.000000 0.092031
9 31.718473 17.190714 0.000000 0.000000 0.000000 -0.226569
10 22.464914 31.710808 0.000000 1.394932 -1.570796 1.394932
11 0.207232 27.529823 29.141125 -7.865367 -0.078914 7.780548
12 -48.533508 50.487892 46.780914 0.785561 -2.309615 -0.977985
13 -44.139824 -5.858725 0.000000 0.000000 0.000000 2.789864
14 107.462242 0.693102 0.623600 0.000000 0.000000 0.000000
15 -48.533508 50.487892 -46.780914 -0.785561 2.309615 -0.977985
16 0.207232 27.529823 -29.141125 11.006959 3.062679 10.922140
17 12.067241 32.559124 -25.800257 -4.910288 1.265023 -5.127228
18 22.486000 0.000000 0.000000 -1.570796 -0.281486 -0.000000
19 15.947000 0.000000 0.000000 1.646546 0.285016 0.629103
20 19.768000 0.000000 0.000000 -0.000001 0.000000 0.225188
time 53
1 0.000000 -18.629589 29.693361 -1.570796 0.351728 -1.570796
2 65.355888 0.000000 0.000000 0.000000 0.000000 -0.134439
3 12.067241 32.559124 25.800257 -20.251258 -1.247653 20.051611
4 22.486000 0.000000 0.000000 1.570796 0.325722 -0.000000
5 15.947000 0.000000 0.000000 -7.939685 6.019450 0.627430
6 19.768000 0.000000 0.000000 0.000001 -0.000000 0.224443
7 58.241417 29.326660 0.000000 0.000000 0.000000 0.386773
8 66.352951 0.000000 0.000000 0.000000 0.000000 0.092031
9 31.718473 17.190714 0.000000 0.000000 0.000000 -0.226569
10 22.464914 31.710808 0.000000 1.394932 -1.570796 1.394932
11 0.207232 27.529823 29.141125 -7.865367 -0.078914 7.780548
12 -48.533508 50.487892 46.780914 0.785561 -2.309615 -0.977985
13 -44.139824 -5.858725 0.000000 0.000000 0.000000 2.789864
14 107.462242 0.693102 0.623600 0.000000 0.000000 0.000000
15 -48.533508 50.487892 -46.780914 -0.785561 2.309615 -0.977985
16 0.207232 27.529823 -29.141125 11.006959 3.062679 10.922140
17 12.067241 32.559124 -25.800257 -4.901009 1.262440 -5.117526
18 22.486000 0.000000 0.000000 -1.570796 -0.289039 -0.000000
19 15.947000 0.000000 0.000000 1.646396 0.278158 0.628561
20 19.768000 0.000000 0.000000 -0.000001 0.000000 0.227311
time 54
1 0.000000 -18.629589 29.693361 -1.570796 0.351728 -1.570796
2 65.355888 0.000000 0.000000 0.000000 0.000000 -0.134439
3 12.067241 32.559124 25.800257 -20.254929 -1.249031 20.050935
4 22.486000 0.000000 0.000000 1.570796 0.322336 -0.000000
5 15.947000 0.000000 0.000000 -7.936670 6.022156 0.627219
6 19.768000 0.000000 0.000000 0.000001 -0.000000 0.227054
7 58.241417 29.326660 0.000000 0.000000 0.000000 0.386773
8 66.352951 0.000000 0.000000 0.000000 0.000000 0.092031
9 31.718473 17.190714 0.000000 0.000000 0.000000 -0.226569
10 22.464914 31.710808 0.000000 1.394932 -1.570796 1.394932
11 0.207232 27.529823 29.141125 -7.865367 -0.078914 7.780548
12 -48.533508 50.487892 46.780914 0.785561 -2.309615 -0.977985
13 -44.139824 -5.858725 0.000000 0.000000 0.000000 2.789864
14 107.462242 0.693102 0.623600 0.000000 0.000000 0.000000
15 -48.533508 50.487892 -46.780914 -0.785561 2.309615 -0.977985
16 0.207232 27.529823 -29.141125 11.006959 3.062679 10.922140
17 12.067241 32.559124 -25.800257 -4.892802 1.260087 -5.108930
18 22.486000 0.000000 0.000000 -1.570796 -0.295691 -0.000000
19 15.947000 0.000000 0.000000 1.646263 0.271949 0.628073
20 19.768000 0.000000 0.000000 -0.000001 0.000000 0.229170
time 55
1 0.000000 -18.629589 29.693361 -1.570796 0.351728 -1.570796
2 65.355888 0.000000 0.000000 0.000000 0.000000 -0.134439
3 12.067241 32.559124 25.800257 -20.257893 -1.250193 20.050360
4 22.486000 0.000000 0.000000 1.570796 0.319367 -0.000000
5 15.947000 0.000000 0.000000 -7.934194 6.024520 0.627034
6 19.768000 0.000000 0.000000 0.000001 -0.000000 0.229333
7 58.241417 29.326660 0.000000 0.000000 0.000000 0.386773
8 66.352951 0.000000 0.000000 0.000000 0.000000 0.092031
9 31.718473 17.190714 0.000000 0.000000 0.000000 -0.226569
10 22.464914 31.710808 0.000000 1.394932 -1.570796 1.394932
11 0.207232 27.529823 29.141125 -7.865367 -0.078914 7.780548
12 -48.533508 50.487892 46.780914 0.785561 -2.309615 -0.977985
13 -44.139824 -5.858725 0.000000 0.000000 0.000000 2.789864
14 107.462242 0.693102 0.623600 0.000000 0.000000 0.000000
15 -48.533508 50.487892 -46.780914 -0.785561 2.309615 -0.977985
16 0.207232 27.529823 -29.141125 11.006959 3.062679 10.922140
17 12.067241 32.559124 -25.800257 -4.885709 1.258000 -5.101493
18 22.486000 0.000000 0.000000 -1.570796 -0.301346 -0.000000
19 15.947000 0.000000 0.000000 1.646149 0.266473 0.627644
20 19.768000 0.000000 0.000000 -0.000001 0.000000 0.230766
time 56
1 0.000000 -18.629589 29.693361 -1.570796 0.351728 -1.570796
2 65.355888 0.000000 0.000000 0.000000 0.000000 -0.134439
3 12.067241 32.559124 25.800257 -20.260209 -1.251139 20.049889
4 22.486000 0.000000 0.000000 1.570796 0.316852 -0.000000
5 15.947000 0.000000 0.000000 -7.932234 6.026516 0.626879
6 19.768000 0.000000 0.000000 0.000001 -0.000000 0.231256
7 58.241417 29.326660 0.000000 0.000000 0.000000 0.386773
8 66.352951 0.000000 0.000000 0.000000 0.000000 0.092031
9 31.718473 17.190714 0.000000 0.000000 0.000000 -0.226569
10 22.464914 31.710808 0.000000 1.394932 -1.570796 1.394932
11 0.207232 27.529823 29.141125 -7.865367 -0.078914 7.780548
12 -48.533508 50.487892 46.780914 0.785561 -2.309615 -0.977985
13 -44.139824 -5.858725 0.000000 0.000000 0.000000 2.789864
14 107.462242 0.693102 0.623600 0.000000 0.000000 0.000000
15 -48.533508 50.487892 -46.780914 -0.785561 2.309615 -0.977985
16 0.207232 27.529823 -29.141125 11.006959 3.062679 10.922140
17 12.067241 32.559124 -25.800257 -4.879779 1.256214 -5.095267
18 22.486000 0.000000 0.000000 -1.570796 -0.305909 -0.000000
19 15.947000 0.000000 0.000000 1.646054 0.261810 0.627279
20 19.768000 0.000000 0.000000 -0.000001 0.000000 0.232100
time 57
1 0.000000 -18.629589 29.693361 -1.570796 0.351728 -1.570796
2 65.355888 0.000000 0.000000 0.000000 0.000000 -0.134439
3 12.067241 32.559124 25.800257 -20.261928 -1.251870 20.049525
4 22.486000 0.000000 0.000000 1.570796 0.314831 -0.000000
5 15.947000 0.000000 0.000000 -7.930765 6.028117 0.626754
6 19.768000 0.000000 0.000000 0.000001 -0.000000 0.232799
7 58.241417 29.326660 0.000000 0.000000 0.000000 0.386773
8 66.352951 0.000000 0.000000 0.000000 0.000000 0.092031
9 31.718473 17.190714 0.000000 0.000000 0.000000 -0.226569
10 22.464914 31.710808 0.000000 1.394932 -1.570796 1.394932
11 0.207232 27.529823 29.141125 -7.865367 -0.078914 7.780548
12 -48.533508 50.487892 46.780914 0.785561 -2.309615 -0.977985
13 -44.139824 -5.858725 0.000000 0.000000 0.000000 2.789864
14 107.462242 0.693102 0.623600 0.000000 0.000000 0.000000
15 -48.533508 50.487892 -46.780914 -0.785561 2.309615 -0.977985
16 0.207232 27.529823 -29.141125 11.006959 3.062679 10.922140
17 12.067241 32.559124 -25.800257 -4.875061 1.254766 -5.090309
18 22.486000 0.000000 0.000000 -1.570796 -0.309286 -0.000000
19 15.947000 0.000000 0.000000 1.645978 0.258041 0.626986
20 19.768000 0.000000 0.000000 -0.000001 0.000000 0.233177
time 58
1 0.000000 -18.629589 29.693361 -1.570796 0.351728 -1.570796
2 65.355888 0.000000 0.000000 0.000000 0.000000 -0.134439
3 12.067241 32.559124 25.800257 -20.263102 -1.252387 20.049265
4 22.486000 0.000000 0.000000 1.570796 0.313340 -0.000000
5 15.947000 0.000000 0.000000 -7.929762 6.029293 0.626663
6 19.768000 0.000000 0.000000 0.000001 -0.000000 0.233939
7 58.241417 29.326660 0.000000 0.000000 0.000000 0.386773
8 66.352951 0.000000 0.000000 0.000000 0.000000 0.092031
9 31.718473 17.190714 0.000000 0.000000 0.000000 -0.226569
10 22.464914 31.710808 0.000000 1.394932 -1.570796 1.394932
11 0.207232 27.529823 29.141125 -7.865367 -0.078914 7.780548
12 -48.533508 50.487892 46.780914 0.785561 -2.309615 -0.977985
13 -44.139824 -5.858725 0.000000 0.000000 0.000000 2.789864
14 107.462242 0.693102 0.623600 0.000000 0.000000 0.000000
15 -48.533508 50.487892 -46.780914 -0.785561 2.309615 -0.977985
16 0.207232 27.529823 -29.141125 11.006959 3.062679 10.922140
17 12.067241 32.559124 -25.800257 -4.871609 1.253691 -5.086679
18 22.486000 0.000000 0.000000 -1.570796 -0.311382 -0.000000
19 15.947000 0.000000 0.000000 1.645923 0.255249 0.626768
20 19.768000 0.000000 0.000000 -0.000001 0.000000 0.234002
time 59
1 0.000000 -18.629589 29.693361 -1.570796 0.351728 -1.570796
2 65.355888 0.000000 0.000000 0.000000 0.000000 -0.134439
3 12.067241 32.559124 25.800257 -20.263773 -1.252693 20.049110
4 22.486000 0.000000 0.000000 1.570796 0.312418 -0.000000
5 15.947000 0.000000 0.000000 -7.929203 6.030020 0.626606
6 19.768000 0.000000 0.000000 0.000001 -0.000000 0.234655
7 58.241417 29.326660 0.000000 0.000000 0.000000 0.386773
8 66.352951 0.000000 0.000000 0.000000 0.000000 0.092031
9 31.718473 17.190714 0.000000 0.000000 0.000000 -0.226569
10 22.464914 31.710808 0.000000 1.394932 -1.570796 1.394932
11 0.207232 27.529823 29.141125 -7.865367 -0.078914 7.780548
12 -48.533508 50.487892 46.780914 0.785561 -2.309615 -0.977985
13 -44.139824 -5.858725 0.000000 0.000000 0.000000 2.789864
14 107.462242 0.693102 0.623600 0.000000 0.000000 0.000000
15 -48.533508 50.487892 -46.780914 -0.785561 2.309615 -0.977985
16 0.207232 27.529823 -29.141125 11.006959 3.062679 10.922140
17 12.067241 32.559124 -25.800257 -4.869486 1.253022 -5.084444
18 22.486000 0.000000 0.000000 -1.570796 -0.312102 -0.000000
19 15.947000 0.000000 0.000000 1.645889 0.253514 0.626633
20 19.768000 0.000000 0.000000 -0.000001 0.000000 0.234583
end
