version 1
nodes
0 "Gunship.ragdoll_mesh" -1
1 "Gunship.Body" -1
2 "Gunship.Spine" 1
3 "Gunship.humerus_L" 2
4 "Gunship.Ulna_L" 3
5 "Gunship.Carpals_L" 4
6 "Gunship.Phalanges_L" 5
7 "Gunship.Scanner" 2
8 "Gunship.Nose" 2
9 "Gunship.Nose_Weapon" 8
10 "Gunship.Belly_Weapon" 1
11 "Gunship.Belly_L" 1
12 "Gunship.Antenna_L" 1
13 "Gunship.Tail" 1
14 "Gunship.Propeller" 13
15 "Gunship.Antenna_R" 1
16 "Gunship.Belly_R" 1
17 "Gunship.humerus_R" 2
18 "Gunship.Ulna_R" 17
19 "Gunship.CarpalsR" 18
20 "Gunship.Phalanges_R" 19
end
skeleton
time 0
0 0.000000 0.000000 0.000000 1.570796 0.000000 0.000000
1 0.000000 -18.629589 29.693361 -1.570796 0.351728 -1.570796
2 65.355888 0.000000 0.000000 0.000000 0.000000 -0.134439
3 12.067241 32.559124 25.800257 -20.263980 -1.252792 20.049061
4 22.486000 0.000000 0.000000 1.570796 0.312102 -0.000000
5 15.947000 0.000000 0.000000 -7.929063 6.030268 0.626587
6 19.768000 0.000000 0.000000 0.000001 -0.000000 0.234927
7 58.241417 29.326660 0.000000 0.000000 0.000000 0.386773
8 66.352951 0.000000 0.000000 0.000000 0.000000 0.092031
9 31.718473 17.190714 0.000000 0.000000 0.000000 -0.226569
10 22.464914 31.710808 0.000000 1.394932 -1.570796 1.394932
11 0.207232 27.529823 29.141125 -7.865367 -0.078914 7.780548
12 -48.533508 50.487892 46.780914 0.785561 -2.309615 -0.977985
13 -44.139824 -5.858725 0.000000 0.000000 0.000000 2.789864
14 107.462242 0.693102 0.623600 0.000000 0.000000 0.000000
15 -48.533508 50.487892 -46.780914 -0.785561 2.309615 -0.977985
16 0.207232 27.529823 -29.141125 11.006959 3.062679 10.922140
17 12.067241 32.559124 -25.800257 -4.868761 1.252792 -5.083680
18 22.486000 0.000000 0.000000 -1.570796 -0.312102 -0.000000
19 15.947000 0.000000 0.000000 1.645877 0.252917 0.626587
20 19.768000 0.000000 0.000000 -0.000001 0.000000 0.234927
end
triangles
GunshipSheet.tga
0 59.331684 -88.057533 -42.117954 -0.996589 0.065217 0.050561 0.728863 0.290556 1 5 1.000000 
0 59.673069 -88.077652 -35.363075 -0.996589 0.065217 0.050561 0.730180 0.290517 1 5 1.000000 
0 66.100090 -72.237694 -35.640713 -0.706368 0.706314 0.046521 0.754971 0.321458 1 5 1.000000 
GunshipSheet.tga
0 59.331684 -88.057533 -42.117954 -0.996589 0.065217 0.050561 0.728863 0.290556 1 5 1.000000 
0 66.100090 -72.237694 -35.640713 -0.706368 0.706314 0.046521 0.754971 0.321458 1 5 1.000000 
0 65.758705 -72.217575 -42.395592 -0.706368 0.706314 0.046521 0.753654 0.321497 1 5 1.000000 
GunshipSheet.tga
0 59.331684 -88.057533 -42.117954 -0.050167 0.002924 -0.998737 0.728863 0.290556 1 5 1.000000 
0 65.758705 -72.217575 -42.395592 -0.061000 0.000089 -0.998138 0.753654 0.321497 1 5 1.000000 
0 72.405273 -97.884293 -42.803413 -0.061000 0.000089 -0.998138 0.779292 0.271361 1 5 1.000000 
GunshipSheet.tga
0 59.331684 -88.057533 -42.117954 -0.050167 0.002924 -0.998737 0.728863 0.290556 1 5 1.000000 
0 72.405273 -97.884293 -42.803413 -0.061000 0.000089 -0.998138 0.779292 0.271361 1 5 1.000000 
0 61.665531 -97.018471 -42.262592 -0.050167 0.002924 -0.998737 0.737865 0.273053 1 5 1.000000 
GunshipSheet.tga
0 59.331684 -88.057533 -42.117954 -0.996589 0.065217 0.050561 0.728863 0.290556 1 5 1.000000 
0 61.665531 -97.018471 -42.262592 -0.966408 -0.252474 0.048089 0.737865 0.273053 1 5 1.000000 
0 62.006916 -97.038589 -35.507713 -0.966408 -0.252474 0.048089 0.739182 0.273013 1 5 1.000000 
GunshipSheet.tga
0 59.331684 -88.057533 -42.117954 -0.996589 0.065217 0.050561 0.728863 0.290556 1 5 1.000000 
0 62.006916 -97.038589 -35.507713 -0.966408 -0.252474 0.048089 0.739182 0.273013 1 5 1.000000 
0 59.673069 -88.077652 -35.363075 -0.996589 0.065217 0.050561 0.730180 0.290517 1 5 1.000000 
GunshipSheet.tga
0 65.758705 -72.217575 -42.395592 -0.706368 0.706314 0.046521 0.753654 0.321497 1 5 1.000000 
0 66.100090 -72.237694 -35.640713 -0.706368 0.706314 0.046521 0.754971 0.321458 1 5 1.000000 
0 79.041512 -67.059532 -36.346058 -0.174078 0.984607 -0.015698 0.804890 0.331572 1 5 1.000000 
GunshipSheet.tga
0 65.758705 -72.217575 -42.395592 -0.706368 0.706314 0.046521 0.753654 0.321497 1 5 1.000000 
0 79.041512 -67.059532 -36.346058 -0.174078 0.984607 -0.015698 0.804890 0.331572 1 5 1.000000 
0 77.078430 -67.459801 -43.223682 -0.174078 0.984607 -0.015698 0.797318 0.330790 1 5 1.000000 
GunshipSheet.tga
0 59.673069 -88.077652 -35.363075 0.050167 -0.002924 0.998737 0.730180 0.290517 1 5 1.000000 
0 62.006916 -97.038589 -35.507713 0.050167 -0.002924 0.998737 0.739182 0.273013 1 5 1.000000 
0 72.746651 -97.904411 -36.048534 0.052623 -0.002266 0.998612 0.780609 0.271322 1 5 1.000000 
GunshipSheet.tga
0 59.673069 -88.077652 -35.363075 0.050167 -0.002924 0.998737 0.730180 0.290517 1 5 1.000000 
0 72.746651 -97.904411 -36.048534 0.052623 -0.002266 0.998612 0.780609 0.271322 1 5 1.000000 
0 66.100090 -72.237694 -35.640713 0.052623 -0.002266 0.998612 0.754971 0.321458 1 5 1.000000 
GunshipSheet.tga
0 61.665531 -97.018471 -42.262592 -0.080304 -0.996770 0.001090 0.737865 0.273053 1 5 1.000000 
0 72.405273 -97.884293 -42.803413 0.064182 -0.997932 -0.003374 0.779292 0.271361 1 5 1.000000 
0 72.746651 -97.904411 -36.048534 0.064182 -0.997932 -0.003374 0.780609 0.271322 1 5 1.000000 
GunshipSheet.tga
0 61.665531 -97.018471 -42.262592 -0.080304 -0.996770 0.001090 0.737865 0.273053 1 5 1.000000 
0 72.746651 -97.904411 -36.048534 0.064182 -0.997932 -0.003374 0.780609 0.271322 1 5 1.000000 
0 62.006916 -97.038589 -35.507713 -0.080304 -0.996770 0.001090 0.739182 0.273013 1 5 1.000000 
GunshipSheet.tga
0 77.078430 -67.459801 -43.223682 -0.156619 -0.024884 -0.987346 0.797318 0.330790 1 5 1.000000 
0 84.315063 -95.392120 -43.668072 -0.156619 -0.024884 -0.987346 0.825232 0.276229 1 5 1.000000 
0 72.405273 -97.884293 -42.803413 -0.061000 0.000089 -0.998138 0.779292 0.271361 1 5 1.000000 
GunshipSheet.tga
0 77.078430 -67.459801 -43.223682 -0.156619 -0.024884 -0.987346 0.797318 0.330790 1 5 1.000000 
0 72.405273 -97.884293 -42.803413 -0.061000 0.000089 -0.998138 0.779292 0.271361 1 5 1.000000 
0 65.758705 -72.217575 -42.395592 -0.061000 0.000089 -0.998138 0.753654 0.321497 1 5 1.000000 
GunshipSheet.tga
0 86.278152 -94.991859 -36.790447 0.191053 0.033922 0.980993 0.832805 0.277011 1 5 1.000000 
0 79.041512 -67.059532 -36.346058 0.191053 0.033922 0.980993 0.804890 0.331572 1 5 1.000000 
0 66.100090 -72.237694 -35.640713 0.052623 -0.002266 0.998612 0.754971 0.321458 1 5 1.000000 
GunshipSheet.tga
0 86.278152 -94.991859 -36.790447 0.191053 0.033922 0.980993 0.832805 0.277011 1 5 1.000000 
0 66.100090 -72.237694 -35.640713 0.052623 -0.002266 0.998612 0.754971 0.321458 1 5 1.000000 
0 72.746651 -97.904411 -36.048534 0.052623 -0.002266 0.998612 0.780609 0.271322 1 5 1.000000 
GunshipSheet.tga
0 84.315063 -95.392120 -43.668072 0.270012 -0.962562 -0.023818 0.825232 0.276229 1 5 1.000000 
0 86.278152 -94.991859 -36.790447 0.270012 -0.962562 -0.023818 0.832805 0.277011 1 5 1.000000 
0 72.746651 -97.904411 -36.048534 0.064182 -0.997932 -0.003374 0.780609 0.271322 1 5 1.000000 
GunshipSheet.tga
0 84.315063 -95.392120 -43.668072 0.270012 -0.962562 -0.023818 0.825232 0.276229 1 5 1.000000 
0 72.746651 -97.904411 -36.048534 0.064182 -0.997932 -0.003374 0.780609 0.271322 1 5 1.000000 
0 72.405273 -97.884293 -42.803413 0.064182 -0.997932 -0.003374 0.779292 0.271361 1 5 1.000000 
GunshipSheet.tga
0 23.778534 -93.811882 -29.992208 -0.308856 0.009966 -0.951057 0.591722 0.279316 1 3 1.000000 
0 24.600401 -76.953896 -30.082455 -0.308856 0.009966 -0.951057 0.594892 0.312245 1 3 1.000000 
0 57.329582 -78.606514 -40.728596 -0.308856 0.009966 -0.951057 0.721140 0.309017 1 3 1.000000 
GunshipSheet.tga
0 23.778534 -93.811882 -29.992208 -0.308856 0.009966 -0.951057 0.591722 0.279316 1 3 1.000000 
0 57.329582 -78.606514 -40.728596 -0.308856 0.009966 -0.951057 0.721140 0.309017 1 3 1.000000 
0 56.507717 -95.464500 -40.638351 -0.308856 0.009966 -0.951057 0.717970 0.276088 1 3 1.000000 
GunshipSheet.tga
0 23.778534 -93.811882 -29.992208 -0.048694 -0.998799 0.005347 0.591722 0.279316 1 3 1.000000 
0 56.507717 -95.464500 -40.638351 -0.048694 -0.998799 0.005347 0.717970 0.276088 1 3 1.000000 
0 59.334805 -95.555725 -31.932941 -0.048694 -0.998799 0.005347 0.728875 0.275910 1 3 1.000000 
GunshipSheet.tga
0 23.778534 -93.811882 -29.992208 -0.048694 -0.998799 0.005347 0.591722 0.279316 1 3 1.000000 
0 59.334805 -95.555725 -31.932941 -0.048694 -0.998799 0.005347 0.728875 0.275910 1 3 1.000000 
0 26.605619 -93.903107 -21.286800 -0.048694 -0.998799 0.005347 0.602627 0.279138 1 3 1.000000 
GunshipSheet.tga
0 23.778534 -93.811882 -29.992208 -0.949861 0.047962 0.308971 0.591722 0.279316 1 3 1.000000 
0 26.605619 -93.903107 -21.286800 -0.949861 0.047962 0.308971 0.602627 0.279138 1 3 1.000000 
0 27.427488 -77.045113 -21.377047 -0.949861 0.047962 0.308971 0.605797 0.312067 1 3 1.000000 
GunshipSheet.tga
0 23.778534 -93.811882 -29.992208 -0.949861 0.047962 0.308971 0.591722 0.279316 1 3 1.000000 
0 27.427488 -77.045113 -21.377047 -0.949861 0.047962 0.308971 0.605797 0.312067 1 3 1.000000 
0 24.600401 -76.953896 -30.082455 -0.949861 0.047962 0.308971 0.594892 0.312245 1 3 1.000000 
GunshipSheet.tga
0 56.507717 -95.464500 -40.638351 0.949861 -0.047962 -0.308971 0.717970 0.276088 1 3 1.000000 
0 57.329582 -78.606514 -40.728596 0.949861 -0.047962 -0.308971 0.721140 0.309017 1 3 1.000000 
0 60.156670 -78.697739 -32.023190 0.949861 -0.047962 -0.308971 0.732045 0.308839 1 3 1.000000 
GunshipSheet.tga
0 56.507717 -95.464500 -40.638351 0.949861 -0.047962 -0.308971 0.717970 0.276088 1 3 1.000000 
0 60.156670 -78.697739 -32.023190 0.949861 -0.047962 -0.308971 0.732045 0.308839 1 3 1.000000 
0 59.334805 -95.555725 -31.932941 0.949861 -0.047962 -0.308971 0.728875 0.275910 1 3 1.000000 
GunshipSheet.tga
0 24.600401 -76.953896 -30.082455 0.048694 0.998799 -0.005347 0.594892 0.312245 1 3 1.000000 
0 27.427488 -77.045113 -21.377047 0.048694 0.998799 -0.005347 0.605797 0.312067 1 3 1.000000 
0 60.156670 -78.697739 -32.023190 0.048694 0.998799 -0.005347 0.732045 0.308839 1 3 1.000000 
GunshipSheet.tga
0 24.600401 -76.953896 -30.082455 0.048694 0.998799 -0.005347 0.594892 0.312245 1 3 1.000000 
0 60.156670 -78.697739 -32.023190 0.048694 0.998799 -0.005347 0.732045 0.308839 1 3 1.000000 
0 57.329582 -78.606514 -40.728596 0.048694 0.998799 -0.005347 0.721140 0.309017 1 3 1.000000 
GunshipSheet.tga
0 26.605619 -93.903107 -21.286800 0.308856 -0.009966 0.951057 0.602627 0.279138 1 3 1.000000 
0 59.334805 -95.555725 -31.932941 0.308856 -0.009966 0.951057 0.728875 0.275910 1 3 1.000000 
0 60.156670 -78.697739 -32.023190 0.308856 -0.009966 0.951057 0.732045 0.308839 1 3 1.000000 
GunshipSheet.tga
0 26.605619 -93.903107 -21.286800 0.308856 -0.009966 0.951057 0.602627 0.279138 1 3 1.000000 
0 60.156670 -78.697739 -32.023190 0.308856 -0.009966 0.951057 0.732045 0.308839 1 3 1.000000 
0 27.427488 -77.045113 -21.377047 0.308856 -0.009966 0.951057 0.605797 0.312067 1 3 1.000000 
GunshipSheet.tga
0 -74.433060 58.008492 -18.941256 0.467594 0.016366 -0.883792 0.212886 0.575871 1 15 1.000000 
0 -69.355896 66.796722 -16.092306 0.467594 0.016366 -0.883792 0.232470 0.593037 1 15 1.000000 
0 -42.734741 46.810352 -1.881797 0.476536 0.009679 -0.879102 0.335157 0.553997 1 15 1.000000 
GunshipSheet.tga
0 -74.433060 58.008492 -18.941256 0.467594 0.016366 -0.883792 0.212886 0.575871 1 15 1.000000 
0 -42.734741 46.810352 -1.881797 0.476536 0.009679 -0.879102 0.335157 0.553997 1 15 1.000000 
0 -46.372246 40.514065 -3.922911 0.476536 0.009679 -0.879102 0.321126 0.541699 1 15 1.000000 
GunshipSheet.tga
0 -48.986046 40.460972 0.898962 -0.419459 -0.876284 -0.237025 0.311044 0.541595 1 15 1.000000 
0 -77.046860 57.955399 -14.119381 -0.483360 -0.832360 -0.271181 0.202804 0.575767 1 15 1.000000 
0 -74.433060 58.008492 -18.941256 -0.483360 -0.832360 -0.271181 0.212886 0.575871 1 15 1.000000 
GunshipSheet.tga
0 -48.986046 40.460972 0.898962 -0.419459 -0.876284 -0.237025 0.311044 0.541595 1 15 1.000000 
0 -74.433060 58.008492 -18.941256 -0.483360 -0.832360 -0.271181 0.212886 0.575871 1 15 1.000000 
0 -46.372246 40.514065 -3.922911 -0.419459 -0.876284 -0.237025 0.321126 0.541699 1 15 1.000000 
GunshipSheet.tga
0 -42.734741 46.810352 -1.881797 0.735492 -0.552186 0.392610 0.335157 0.553997 1 15 1.000000 
0 -45.348537 46.757259 2.940076 0.735492 -0.552186 0.392610 0.325075 0.553894 1 15 1.000000 
0 -48.986046 40.460972 0.898962 0.735492 -0.552186 0.392610 0.311044 0.541595 1 15 1.000000 
GunshipSheet.tga
0 -42.734741 46.810352 -1.881797 0.735492 -0.552186 0.392610 0.335157 0.553997 1 15 1.000000 
0 -48.986046 40.460972 0.898962 0.735492 -0.552186 0.392610 0.311044 0.541595 1 15 1.000000 
0 -46.372246 40.514065 -3.922911 0.735492 -0.552186 0.392610 0.321126 0.541699 1 15 1.000000 
GunshipSheet.tga
0 -114.808044 92.579102 -35.733498 -0.735492 0.552186 -0.392610 0.057146 0.643399 1 15 1.000000 
0 -112.949936 95.795357 -34.690861 -0.735492 0.552186 -0.392610 0.064313 0.649681 1 15 1.000000 
0 -111.614761 95.822472 -37.153961 -0.735492 0.552186 -0.392610 0.069463 0.649734 1 15 1.000000 
GunshipSheet.tga
0 -114.808044 92.579102 -35.733498 -0.735492 0.552186 -0.392610 0.057146 0.643399 1 15 1.000000 
0 -111.614761 95.822472 -37.153961 -0.735492 0.552186 -0.392610 0.069463 0.649734 1 15 1.000000 
0 -113.472862 92.606216 -38.196598 -0.735492 0.552186 -0.392610 0.062296 0.643452 1 15 1.000000 
GunshipSheet.tga
0 -69.355896 66.796722 -16.092306 0.469298 0.842755 0.263672 0.232470 0.593037 1 15 1.000000 
0 -71.969696 66.743629 -11.270435 0.469298 0.842755 0.263672 0.222388 0.592933 1 15 1.000000 
0 -45.348537 46.757259 2.940076 0.481627 0.833665 0.270255 0.325075 0.553894 1 15 1.000000 
GunshipSheet.tga
0 -69.355896 66.796722 -16.092306 0.469298 0.842755 0.263672 0.232470 0.593037 1 15 1.000000 
0 -45.348537 46.757259 2.940076 0.481627 0.833665 0.270255 0.325075 0.553894 1 15 1.000000 
0 -42.734741 46.810352 -1.881797 0.481627 0.833665 0.270255 0.335157 0.553997 1 15 1.000000 
GunshipSheet.tga
0 -45.348537 46.757259 2.940076 -0.476536 -0.009679 0.879102 0.325075 0.553894 1 15 1.000000 
0 -71.969696 66.743629 -11.270435 -0.485408 -0.002991 0.874283 0.222388 0.592933 1 15 1.000000 
0 -77.046860 57.955399 -14.119381 -0.485408 -0.002991 0.874283 0.202804 0.575767 1 15 1.000000 
GunshipSheet.tga
0 -45.348537 46.757259 2.940076 -0.476536 -0.009679 0.879102 0.325075 0.553894 1 15 1.000000 
0 -77.046860 57.955399 -14.119381 -0.485408 -0.002991 0.874283 0.202804 0.575767 1 15 1.000000 
0 -48.986046 40.460972 0.898962 -0.476536 -0.009679 0.879102 0.311044 0.541595 1 15 1.000000 
GunshipSheet.tga
0 -69.355896 66.796722 -16.092306 0.467594 0.016366 -0.883792 0.232470 0.593037 1 15 1.000000 
0 -74.433060 58.008492 -18.941256 0.467594 0.016366 -0.883792 0.212886 0.575871 1 15 1.000000 
0 -113.472862 92.606216 -38.196598 0.458583 0.023050 -0.888352 0.062296 0.643452 1 15 1.000000 
GunshipSheet.tga
0 -69.355896 66.796722 -16.092306 0.467594 0.016366 -0.883792 0.232470 0.593037 1 15 1.000000 
0 -113.472862 92.606216 -38.196598 0.458583 0.023050 -0.888352 0.062296 0.643452 1 15 1.000000 
0 -111.614761 95.822472 -37.153961 0.458583 0.023050 -0.888352 0.069463 0.649734 1 15 1.000000 
GunshipSheet.tga
0 -74.433060 58.008492 -18.941256 -0.483360 -0.832360 -0.271181 0.212886 0.575871 1 15 1.000000 
0 -77.046860 57.955399 -14.119381 -0.483360 -0.832360 -0.271181 0.202804 0.575767 1 15 1.000000 
0 -114.808044 92.579102 -35.733498 -0.543792 -0.782461 -0.303389 0.057146 0.643399 1 15 1.000000 
GunshipSheet.tga
0 -74.433060 58.008492 -18.941256 -0.483360 -0.832360 -0.271181 0.212886 0.575871 1 15 1.000000 
0 -114.808044 92.579102 -35.733498 -0.543792 -0.782461 -0.303389 0.057146 0.643399 1 15 1.000000 
0 -113.472862 92.606216 -38.196598 -0.543792 -0.782461 -0.303389 0.062296 0.643452 1 15 1.000000 
GunshipSheet.tga
0 -71.969696 66.743629 -11.270435 0.469298 0.842755 0.263672 0.222388 0.592933 1 15 1.000000 
0 -69.355896 66.796722 -16.092306 0.469298 0.842755 0.263672 0.232470 0.593037 1 15 1.000000 
0 -111.614761 95.822472 -37.153961 0.456839 0.851611 0.257016 0.069463 0.649734 1 15 1.000000 
GunshipSheet.tga
0 -71.969696 66.743629 -11.270435 0.469298 0.842755 0.263672 0.222388 0.592933 1 15 1.000000 
0 -111.614761 95.822472 -37.153961 0.456839 0.851611 0.257016 0.069463 0.649734 1 15 1.000000 
0 -112.949936 95.795357 -34.690861 0.456839 0.851611 0.257016 0.064313 0.649681 1 15 1.000000 
GunshipSheet.tga
0 -77.046860 57.955399 -14.119381 -0.485408 -0.002991 0.874283 0.202804 0.575767 1 15 1.000000 
0 -71.969696 66.743629 -11.270435 -0.485408 -0.002991 0.874283 0.222388 0.592933 1 15 1.000000 
0 -112.949936 95.795357 -34.690861 -0.494209 0.003697 0.869335 0.064313 0.649681 1 15 1.000000 
GunshipSheet.tga
0 -77.046860 57.955399 -14.119381 -0.485408 -0.002991 0.874283 0.202804 0.575767 1 15 1.000000 
0 -112.949936 95.795357 -34.690861 -0.494209 0.003697 0.869335 0.064313 0.649681 1 15 1.000000 
0 -114.808044 92.579102 -35.733498 -0.494209 0.003697 0.869335 0.057146 0.643399 1 15 1.000000 
GunshipSheet.tga
0 -65.758705 -72.217575 -42.395592 0.706368 0.706314 0.046521 0.246346 0.321497 1 19 1.000000 
0 -66.100090 -72.237694 -35.640713 0.706368 0.706314 0.046521 0.245029 0.321458 1 19 1.000000 
0 -59.673069 -88.077652 -35.363075 0.996589 0.065217 0.050561 0.269820 0.290517 1 19 1.000000 
GunshipSheet.tga
0 -65.758705 -72.217575 -42.395592 0.706368 0.706314 0.046521 0.246346 0.321497 1 19 1.000000 
0 -59.673069 -88.077652 -35.363075 0.996589 0.065217 0.050561 0.269820 0.290517 1 19 1.000000 
0 -59.331684 -88.057533 -42.117954 0.996589 0.065217 0.050561 0.271137 0.290556 1 19 1.000000 
GunshipSheet.tga
0 -61.665531 -97.018471 -42.262592 0.050167 0.002924 -0.998737 0.262135 0.273053 1 19 1.000000 
0 -72.405273 -97.884293 -42.803413 0.061000 0.000089 -0.998138 0.220708 0.271361 1 19 1.000000 
0 -65.758705 -72.217575 -42.395592 0.061000 0.000089 -0.998138 0.246346 0.321497 1 19 1.000000 
GunshipSheet.tga
0 -61.665531 -97.018471 -42.262592 0.050167 0.002924 -0.998737 0.262135 0.273053 1 19 1.000000 
0 -65.758705 -72.217575 -42.395592 0.061000 0.000089 -0.998138 0.246346 0.321497 1 19 1.000000 
0 -59.331684 -88.057533 -42.117954 0.050167 0.002924 -0.998737 0.271137 0.290556 1 19 1.000000 
GunshipSheet.tga
0 -59.673069 -88.077652 -35.363075 0.996589 0.065217 0.050561 0.269820 0.290517 1 19 1.000000 
0 -62.006916 -97.038589 -35.507713 0.966408 -0.252474 0.048089 0.260818 0.273013 1 19 1.000000 
0 -61.665531 -97.018471 -42.262592 0.966408 -0.252474 0.048089 0.262135 0.273053 1 19 1.000000 
GunshipSheet.tga
0 -59.673069 -88.077652 -35.363075 0.996589 0.065217 0.050561 0.269820 0.290517 1 19 1.000000 
0 -61.665531 -97.018471 -42.262592 0.966408 -0.252474 0.048089 0.262135 0.273053 1 19 1.000000 
0 -59.331684 -88.057533 -42.117954 0.996589 0.065217 0.050561 0.271137 0.290556 1 19 1.000000 
GunshipSheet.tga
0 -77.078430 -67.459801 -43.223682 0.174078 0.984607 -0.015698 0.202682 0.330790 1 19 1.000000 
0 -79.041512 -67.059532 -36.346058 0.174078 0.984607 -0.015698 0.195110 0.331572 1 19 1.000000 
0 -66.100090 -72.237694 -35.640713 0.706368 0.706314 0.046521 0.245029 0.321458 1 19 1.000000 
GunshipSheet.tga
0 -77.078430 -67.459801 -43.223682 0.174078 0.984607 -0.015698 0.202682 0.330790 1 19 1.000000 
0 -66.100090 -72.237694 -35.640713 0.706368 0.706314 0.046521 0.245029 0.321458 1 19 1.000000 
0 -65.758705 -72.217575 -42.395592 0.706368 0.706314 0.046521 0.246346 0.321497 1 19 1.000000 
GunshipSheet.tga
0 -66.100090 -72.237694 -35.640713 -0.052623 -0.002266 0.998612 0.245029 0.321458 1 19 1.000000 
0 -72.746651 -97.904411 -36.048534 -0.052623 -0.002266 0.998612 0.219391 0.271322 1 19 1.000000 
0 -62.006916 -97.038589 -35.507713 -0.050167 -0.002924 0.998737 0.260818 0.273013 1 19 1.000000 
GunshipSheet.tga
0 -66.100090 -72.237694 -35.640713 -0.052623 -0.002266 0.998612 0.245029 0.321458 1 19 1.000000 
0 -62.006916 -97.038589 -35.507713 -0.050167 -0.002924 0.998737 0.260818 0.273013 1 19 1.000000 
0 -59.673069 -88.077652 -35.363075 -0.050167 -0.002924 0.998737 0.269820 0.290517 1 19 1.000000 
GunshipSheet.tga
0 -62.006916 -97.038589 -35.507713 0.080304 -0.996770 0.001090 0.260818 0.273013 1 19 1.000000 
0 -72.746651 -97.904411 -36.048534 -0.064182 -0.997932 -0.003374 0.219391 0.271322 1 19 1.000000 
0 -72.405273 -97.884293 -42.803413 -0.064182 -0.997932 -0.003374 0.220708 0.271361 1 19 1.000000 
GunshipSheet.tga
0 -62.006916 -97.038589 -35.507713 0.080304 -0.996770 0.001090 0.260818 0.273013 1 19 1.000000 
0 -72.405273 -97.884293 -42.803413 -0.064182 -0.997932 -0.003374 0.220708 0.271361 1 19 1.000000 
0 -61.665531 -97.018471 -42.262592 0.080304 -0.996770 0.001090 0.262135 0.273053 1 19 1.000000 
GunshipSheet.tga
0 -65.758705 -72.217575 -42.395592 0.061000 0.000089 -0.998138 0.246346 0.321497 1 19 1.000000 
0 -72.405273 -97.884293 -42.803413 0.061000 0.000089 -0.998138 0.220708 0.271361 1 19 1.000000 
0 -84.315063 -95.392120 -43.668072 0.156619 -0.024884 -0.987346 0.174768 0.276229 1 19 1.000000 
GunshipSheet.tga
0 -65.758705 -72.217575 -42.395592 0.061000 0.000089 -0.998138 0.246346 0.321497 1 19 1.000000 
0 -84.315063 -95.392120 -43.668072 0.156619 -0.024884 -0.987346 0.174768 0.276229 1 19 1.000000 
0 -77.078430 -67.459801 -43.223682 0.156619 -0.024884 -0.987346 0.202682 0.330790 1 19 1.000000 
GunshipSheet.tga
0 -72.746651 -97.904411 -36.048534 -0.052623 -0.002266 0.998612 0.219391 0.271322 1 19 1.000000 
0 -66.100090 -72.237694 -35.640713 -0.052623 -0.002266 0.998612 0.245029 0.321458 1 19 1.000000 
0 -79.041512 -67.059532 -36.346058 -0.191053 0.033922 0.980993 0.195110 0.331572 1 19 1.000000 
GunshipSheet.tga
0 -72.746651 -97.904411 -36.048534 -0.052623 -0.002266 0.998612 0.219391 0.271322 1 19 1.000000 
0 -79.041512 -67.059532 -36.346058 -0.191053 0.033922 0.980993 0.195110 0.331572 1 19 1.000000 
0 -86.278152 -94.991859 -36.790447 -0.191053 0.033922 0.980993 0.167195 0.277011 1 19 1.000000 
GunshipSheet.tga
0 -72.405273 -97.884293 -42.803413 -0.064182 -0.997932 -0.003374 0.220708 0.271361 1 19 1.000000 
0 -72.746651 -97.904411 -36.048534 -0.064182 -0.997932 -0.003374 0.219391 0.271322 1 19 1.000000 
0 -86.278152 -94.991859 -36.790447 -0.270012 -0.962562 -0.023818 0.167195 0.277011 1 19 1.000000 
GunshipSheet.tga
0 -72.405273 -97.884293 -42.803413 -0.064182 -0.997932 -0.003374 0.220708 0.271361 1 19 1.000000 
0 -86.278152 -94.991859 -36.790447 -0.270012 -0.962562 -0.023818 0.167195 0.277011 1 19 1.000000 
0 -84.315063 -95.392120 -43.668072 -0.270012 -0.962562 -0.023818 0.174768 0.276229 1 19 1.000000 
GunshipSheet.tga
0 -56.507717 -95.464500 -40.638351 0.308856 0.009966 -0.951057 0.282030 0.276088 1 17 1.000000 
0 -57.329582 -78.606514 -40.728596 0.308856 0.009966 -0.951057 0.278860 0.309017 1 17 1.000000 
0 -24.600401 -76.953896 -30.082455 0.308856 0.009966 -0.951057 0.405108 0.312245 1 17 1.000000 
GunshipSheet.tga
0 -56.507717 -95.464500 -40.638351 0.308856 0.009966 -0.951057 0.282030 0.276088 1 17 1.000000 
0 -24.600401 -76.953896 -30.082455 0.308856 0.009966 -0.951057 0.405108 0.312245 1 17 1.000000 
0 -23.778534 -93.811882 -29.992208 0.308856 0.009966 -0.951057 0.408278 0.279316 1 17 1.000000 
GunshipSheet.tga
0 -26.605619 -93.903107 -21.286800 0.048694 -0.998799 0.005347 0.397373 0.279138 1 17 1.000000 
0 -59.334805 -95.555725 -31.932941 0.048694 -0.998799 0.005347 0.271125 0.275910 1 17 1.000000 
0 -56.507717 -95.464500 -40.638351 0.048694 -0.998799 0.005347 0.282030 0.276088 1 17 1.000000 
GunshipSheet.tga
0 -26.605619 -93.903107 -21.286800 0.048694 -0.998799 0.005347 0.397373 0.279138 1 17 1.000000 
0 -56.507717 -95.464500 -40.638351 0.048694 -0.998799 0.005347 0.282030 0.276088 1 17 1.000000 
0 -23.778534 -93.811882 -29.992208 0.048694 -0.998799 0.005347 0.408278 0.279316 1 17 1.000000 
GunshipSheet.tga
0 -24.600401 -76.953896 -30.082455 0.949861 0.047962 0.308971 0.405108 0.312245 1 17 1.000000 
0 -27.427488 -77.045113 -21.377047 0.949861 0.047962 0.308971 0.394203 0.312067 1 17 1.000000 
0 -26.605619 -93.903107 -21.286800 0.949861 0.047962 0.308971 0.397373 0.279138 1 17 1.000000 
GunshipSheet.tga
0 -24.600401 -76.953896 -30.082455 0.949861 0.047962 0.308971 0.405108 0.312245 1 17 1.000000 
0 -26.605619 -93.903107 -21.286800 0.949861 0.047962 0.308971 0.397373 0.279138 1 17 1.000000 
0 -23.778534 -93.811882 -29.992208 0.949861 0.047962 0.308971 0.408278 0.279316 1 17 1.000000 
GunshipSheet.tga
0 -59.334805 -95.555725 -31.932941 -0.949861 -0.047962 -0.308971 0.271125 0.275910 1 17 1.000000 
0 -60.156670 -78.697739 -32.023190 -0.949861 -0.047962 -0.308971 0.267955 0.308839 1 17 1.000000 
0 -57.329582 -78.606514 -40.728596 -0.949861 -0.047962 -0.308971 0.278860 0.309017 1 17 1.000000 
GunshipSheet.tga
0 -59.334805 -95.555725 -31.932941 -0.949861 -0.047962 -0.308971 0.271125 0.275910 1 17 1.000000 
0 -57.329582 -78.606514 -40.728596 -0.949861 -0.047962 -0.308971 0.278860 0.309017 1 17 1.000000 
0 -56.507717 -95.464500 -40.638351 -0.949861 -0.047962 -0.308971 0.282030 0.276088 1 17 1.000000 
GunshipSheet.tga
0 -57.329582 -78.606514 -40.728596 -0.048694 0.998799 -0.005347 0.278860 0.309017 1 17 1.000000 
0 -60.156670 -78.697739 -32.023190 -0.048694 0.998799 -0.005347 0.267955 0.308839 1 17 1.000000 
0 -27.427488 -77.045113 -21.377047 -0.048694 0.998799 -0.005347 0.394203 0.312067 1 17 1.000000 
GunshipSheet.tga
0 -57.329582 -78.606514 -40.728596 -0.048694 0.998799 -0.005347 0.278860 0.309017 1 17 1.000000 
0 -27.427488 -77.045113 -21.377047 -0.048694 0.998799 -0.005347 0.394203 0.312067 1 17 1.000000 
0 -24.600401 -76.953896 -30.082455 -0.048694 0.998799 -0.005347 0.405108 0.312245 1 17 1.000000 
GunshipSheet.tga
0 -27.427488 -77.045113 -21.377047 -0.308856 -0.009966 0.951057 0.394203 0.312067 1 17 1.000000 
0 -60.156670 -78.697739 -32.023190 -0.308856 -0.009966 0.951057 0.267955 0.308839 1 17 1.000000 
0 -59.334805 -95.555725 -31.932941 -0.308856 -0.009966 0.951057 0.271125 0.275910 1 17 1.000000 
GunshipSheet.tga
0 -27.427488 -77.045113 -21.377047 -0.308856 -0.009966 0.951057 0.394203 0.312067 1 17 1.000000 
0 -59.334805 -95.555725 -31.932941 -0.308856 -0.009966 0.951057 0.271125 0.275910 1 17 1.000000 
0 -26.605619 -93.903107 -21.286800 -0.308856 -0.009966 0.951057 0.397373 0.279138 1 17 1.000000 
GunshipSheet.tga
0 -8.963696 -155.054306 -27.582521 -0.972804 0.230836 0.019146 0.465424 0.159690 1 9 1.000000 
0 -8.963696 -154.266647 -37.079315 -0.972804 0.230836 0.019146 0.465424 0.161228 1 9 1.000000 
0 -8.963696 -192.140091 -40.220543 -0.998145 -0.060674 -0.005032 0.465424 0.087249 1 9 1.000000 
GunshipSheet.tga
0 -8.963696 -155.054306 -27.582521 -0.972804 0.230836 0.019146 0.465424 0.159690 1 9 1.000000 
0 -8.963696 -192.140091 -40.220543 -0.998145 -0.060674 -0.005032 0.465424 0.087249 1 9 1.000000 
0 -8.963696 -192.927750 -30.723753 -0.998145 -0.060674 -0.005032 0.465424 0.085710 1 9 1.000000 
GunshipSheet.tga
0 -8.963696 -155.054306 -27.582521 0.000000 0.023886 0.999715 0.465424 0.159690 1 9 1.000000 
0 -8.963696 -192.927750 -30.723753 0.000000 -0.113475 0.993541 0.465424 0.085710 1 9 1.000000 
0 8.963696 -192.927750 -30.723753 0.000000 -0.113475 0.993541 0.534576 0.085710 1 9 1.000000 
GunshipSheet.tga
0 -8.963696 -155.054306 -27.582521 0.000000 0.023886 0.999715 0.465424 0.159690 1 9 1.000000 
0 8.963696 -192.927750 -30.723753 0.000000 -0.113475 0.993541 0.534576 0.085710 1 9 1.000000 
0 8.963696 -155.054306 -27.582521 0.000000 0.023886 0.999715 0.534576 0.159690 1 9 1.000000 
GunshipSheet.tga
0 -4.214961 -145.511490 -28.835238 0.000000 0.996578 0.082656 0.483741 0.178330 1 9 1.000000 
0 4.214961 -145.511490 -28.835238 0.000000 0.996578 0.082656 0.516259 0.178330 1 9 1.000000 
0 4.214961 -145.028320 -34.660889 0.000000 0.996578 0.082656 0.516259 0.179274 1 9 1.000000 
GunshipSheet.tga
0 -4.214961 -145.511490 -28.835238 0.000000 0.996578 0.082656 0.483741 0.178330 1 9 1.000000 
0 4.214961 -145.028320 -34.660889 0.000000 0.996578 0.082656 0.516259 0.179274 1 9 1.000000 
0 -4.214961 -145.028320 -34.660889 0.000000 0.996578 0.082656 0.483741 0.179274 1 9 1.000000 
GunshipSheet.tga
0 -3.544551 -236.807007 -37.117260 0.000000 -0.996578 -0.082656 0.486327 0.000000 1 9 1.000000 
0 -3.544551 -236.495529 -40.872616 0.000000 -0.996578 -0.082656 0.486327 0.000608 1 9 1.000000 
0 3.544551 -236.495529 -40.872616 0.000000 -0.996578 -0.082656 0.513673 0.000608 1 9 1.000000 
GunshipSheet.tga
0 -3.544551 -236.807007 -37.117260 0.000000 -0.996578 -0.082656 0.486327 0.000000 1 9 1.000000 
0 3.544551 -236.495529 -40.872616 0.000000 -0.996578 -0.082656 0.513673 0.000608 1 9 1.000000 
0 3.544551 -236.807007 -37.117260 0.000000 -0.996578 -0.082656 0.513673 0.000000 1 9 1.000000 
GunshipSheet.tga
0 -8.963696 -154.266647 -37.079315 0.000000 0.168585 -0.985687 0.465424 0.161228 1 9 1.000000 
0 8.963696 -154.266647 -37.079315 0.000000 0.168585 -0.985687 0.534576 0.161228 1 9 1.000000 
0 8.963696 -192.140091 -40.220543 0.000000 0.048706 -0.998813 0.534576 0.087249 1 9 1.000000 
GunshipSheet.tga
0 -8.963696 -154.266647 -37.079315 0.000000 0.168585 -0.985687 0.465424 0.161228 1 9 1.000000 
0 8.963696 -192.140091 -40.220543 0.000000 0.048706 -0.998813 0.534576 0.087249 1 9 1.000000 
0 -8.963696 -192.140091 -40.220543 0.000000 0.048706 -0.998813 0.465424 0.087249 1 9 1.000000 
GunshipSheet.tga
0 8.963696 -155.054306 -27.582521 0.972804 0.230836 0.019146 0.534576 0.159690 1 9 1.000000 
0 8.963696 -192.927750 -30.723753 0.998145 -0.060674 -0.005032 0.534576 0.085710 1 9 1.000000 
0 8.963696 -192.140091 -40.220543 0.998145 -0.060674 -0.005032 0.534576 0.087249 1 9 1.000000 
GunshipSheet.tga
0 8.963696 -155.054306 -27.582521 0.972804 0.230836 0.019146 0.534576 0.159690 1 9 1.000000 
0 8.963696 -192.140091 -40.220543 0.998145 -0.060674 -0.005032 0.534576 0.087249 1 9 1.000000 
0 8.963696 -154.266647 -37.079315 0.972804 0.230836 0.019146 0.534576 0.161228 1 9 1.000000 
GunshipSheet.tga
0 -8.963696 -155.054306 -27.582521 -0.972804 0.230836 0.019146 0.465424 0.159690 1 9 1.000000 
0 -4.214961 -145.511490 -28.835238 -0.892696 0.449117 0.037250 0.483741 0.178330 1 9 1.000000 
0 -4.214961 -145.028320 -34.660889 -0.892696 0.449117 0.037250 0.483741 0.179274 1 9 1.000000 
GunshipSheet.tga
0 -8.963696 -155.054306 -27.582521 -0.972804 0.230836 0.019146 0.465424 0.159690 1 9 1.000000 
0 -4.214961 -145.028320 -34.660889 -0.892696 0.449117 0.037250 0.483741 0.179274 1 9 1.000000 
0 -8.963696 -154.266647 -37.079315 -0.972804 0.230836 0.019146 0.465424 0.161228 1 9 1.000000 
GunshipSheet.tga
0 8.963696 -155.054306 -27.582521 0.000000 0.023886 0.999715 0.534576 0.159690 1 9 1.000000 
0 4.214961 -145.511490 -28.835238 0.000000 0.130157 0.991493 0.516259 0.178330 1 9 1.000000 
0 -4.214961 -145.511490 -28.835238 0.000000 0.130157 0.991493 0.483741 0.178330 1 9 1.000000 
GunshipSheet.tga
0 8.963696 -155.054306 -27.582521 0.000000 0.023886 0.999715 0.534576 0.159690 1 9 1.000000 
0 -4.214961 -145.511490 -28.835238 0.000000 0.130157 0.991493 0.483741 0.178330 1 9 1.000000 
0 -8.963696 -155.054306 -27.582521 0.000000 0.023886 0.999715 0.465424 0.159690 1 9 1.000000 
GunshipSheet.tga
0 8.963696 -154.266647 -37.079315 0.972804 0.230836 0.019146 0.534576 0.161228 1 9 1.000000 
0 4.214961 -145.028320 -34.660889 0.892696 0.449117 0.037250 0.516259 0.179274 1 9 1.000000 
0 4.214961 -145.511490 -28.835238 0.892696 0.449117 0.037250 0.516259 0.178330 1 9 1.000000 
GunshipSheet.tga
0 8.963696 -154.266647 -37.079315 0.972804 0.230836 0.019146 0.534576 0.161228 1 9 1.000000 
0 4.214961 -145.511490 -28.835238 0.892696 0.449117 0.037250 0.516259 0.178330 1 9 1.000000 
0 8.963696 -155.054306 -27.582521 0.972804 0.230836 0.019146 0.534576 0.159690 1 9 1.000000 
GunshipSheet.tga
0 -8.963696 -154.266647 -37.079315 0.000000 0.168585 -0.985687 0.465424 0.161228 1 9 1.000000 
0 -4.214961 -145.028320 -34.660889 0.000000 0.253248 -0.967401 0.483741 0.179274 1 9 1.000000 
0 4.214961 -145.028320 -34.660889 0.000000 0.253248 -0.967401 0.516259 0.179274 1 9 1.000000 
GunshipSheet.tga
0 -8.963696 -154.266647 -37.079315 0.000000 0.168585 -0.985687 0.465424 0.161228 1 9 1.000000 
0 4.214961 -145.028320 -34.660889 0.000000 0.253248 -0.967401 0.516259 0.179274 1 9 1.000000 
0 8.963696 -154.266647 -37.079315 0.000000 0.168585 -0.985687 0.534576 0.161228 1 9 1.000000 
GunshipSheet.tga
0 -8.963696 -192.927750 -30.723753 0.000000 -0.113475 0.993541 0.465424 0.085710 1 9 1.000000 
0 -3.544551 -236.807007 -37.117260 0.000000 -0.144184 0.989551 0.486327 0.000000 1 9 1.000000 
0 3.544551 -236.807007 -37.117260 0.000000 -0.144184 0.989551 0.513673 0.000000 1 9 1.000000 
GunshipSheet.tga
0 -8.963696 -192.927750 -30.723753 0.000000 -0.113475 0.993541 0.465424 0.085710 1 9 1.000000 
0 3.544551 -236.807007 -37.117260 0.000000 -0.144184 0.989551 0.513673 0.000000 1 9 1.000000 
0 8.963696 -192.927750 -30.723753 0.000000 -0.113475 0.993541 0.534576 0.085710 1 9 1.000000 
GunshipSheet.tga
0 -8.963696 -192.140091 -40.220543 -0.998145 -0.060674 -0.005032 0.465424 0.087249 1 9 1.000000 
0 -3.544551 -236.495529 -40.872616 -0.992587 -0.121122 -0.010046 0.486327 0.000608 1 9 1.000000 
0 -3.544551 -236.807007 -37.117260 -0.992587 -0.121122 -0.010046 0.486327 0.000000 1 9 1.000000 
GunshipSheet.tga
0 -8.963696 -192.140091 -40.220543 -0.998145 -0.060674 -0.005032 0.465424 0.087249 1 9 1.000000 
0 -3.544551 -236.807007 -37.117260 -0.992587 -0.121122 -0.010046 0.486327 0.000000 1 9 1.000000 
0 -8.963696 -192.927750 -30.723753 -0.998145 -0.060674 -0.005032 0.465424 0.085710 1 9 1.000000 
GunshipSheet.tga
0 8.963696 -192.140091 -40.220543 0.000000 0.048706 -0.998813 0.534576 0.087249 1 9 1.000000 
0 3.544551 -236.495529 -40.872616 0.000000 0.014699 -0.999892 0.513673 0.000608 1 9 1.000000 
0 -3.544551 -236.495529 -40.872616 0.000000 0.014699 -0.999892 0.486327 0.000608 1 9 1.000000 
GunshipSheet.tga
0 8.963696 -192.140091 -40.220543 0.000000 0.048706 -0.998813 0.534576 0.087249 1 9 1.000000 
0 -3.544551 -236.495529 -40.872616 0.000000 0.014699 -0.999892 0.486327 0.000608 1 9 1.000000 
0 -8.963696 -192.140091 -40.220543 0.000000 0.048706 -0.998813 0.465424 0.087249 1 9 1.000000 
GunshipSheet.tga
0 8.963696 -192.927750 -30.723753 0.998145 -0.060674 -0.005032 0.534576 0.085710 1 9 1.000000 
0 3.544551 -236.807007 -37.117260 0.992587 -0.121122 -0.010046 0.513673 0.000000 1 9 1.000000 
0 3.544551 -236.495529 -40.872616 0.992587 -0.121122 -0.010046 0.513673 0.000608 1 9 1.000000 
GunshipSheet.tga
0 8.963696 -192.927750 -30.723753 0.998145 -0.060674 -0.005032 0.534576 0.085710 1 9 1.000000 
0 3.544551 -236.495529 -40.872616 0.992587 -0.121122 -0.010046 0.513673 0.000608 1 9 1.000000 
0 8.963696 -192.140091 -40.220543 0.998145 -0.060674 -0.005032 0.534576 0.087249 1 9 1.000000 
GunshipSheet.tga
0 -15.359000 -148.536377 7.795149 -0.919293 -0.120256 0.374753 0.440755 0.172421 1 8 1.000000 
0 -22.574198 -142.753967 -10.298771 -0.990892 -0.063060 0.118977 0.412924 0.183716 1 8 1.000000 
0 -23.048262 -176.108292 -19.914795 -0.979803 -0.186969 0.070915 0.411095 0.118564 1 8 1.000000 
GunshipSheet.tga
0 -15.359000 -148.536377 7.795149 -0.919293 -0.120256 0.374753 0.440755 0.172421 1 8 1.000000 
0 -23.048262 -176.108292 -19.914795 -0.979803 -0.186969 0.070915 0.411095 0.118564 1 8 1.000000 
0 -12.959803 -179.148804 1.607035 -0.898306 -0.232327 0.372922 0.450010 0.112625 1 8 1.000000 
GunshipSheet.tga
0 -15.359000 -148.536377 7.795149 0.000000 -0.198136 0.980174 0.440755 0.172421 1 8 1.000000 
0 -12.959803 -179.148804 1.607035 0.000000 -0.408376 0.912814 0.450010 0.112625 1 8 1.000000 
0 12.959803 -179.148804 1.607035 0.000000 -0.408376 0.912814 0.549990 0.112625 1 8 1.000000 
GunshipSheet.tga
0 -15.359000 -148.536377 7.795149 0.000000 -0.198136 0.980174 0.440755 0.172421 1 8 1.000000 
0 12.959803 -179.148804 1.607035 0.000000 -0.408376 0.912814 0.549990 0.112625 1 8 1.000000 
0 15.359000 -148.536377 7.795149 0.000000 -0.198136 0.980174 0.559245 0.172421 1 8 1.000000 
GunshipSheet.tga
0 -15.359000 -148.536377 7.795149 0.000000 0.952541 0.304411 0.440755 0.172421 1 8 1.000000 
0 15.359000 -148.536377 7.795149 0.000000 0.952541 0.304411 0.559245 0.172421 1 8 1.000000 
0 22.574198 -142.753967 -10.298771 0.000000 0.981545 0.191232 0.587076 0.183716 1 8 1.000000 
GunshipSheet.tga
0 -15.359000 -148.536377 7.795149 0.000000 0.952541 0.304411 0.440755 0.172421 1 8 1.000000 
0 22.574198 -142.753967 -10.298771 0.000000 0.981545 0.191232 0.587076 0.183716 1 8 1.000000 
0 -22.574198 -142.753967 -10.298771 0.000000 0.981545 0.191232 0.412924 0.183716 1 8 1.000000 
GunshipSheet.tga
0 -11.453166 -195.668304 -10.741108 0.000000 -0.847412 0.530936 0.455821 0.080357 1 8 1.000000 
0 -15.900398 -198.019363 -22.932629 0.000000 -0.998236 -0.059373 0.438667 0.075765 1 8 1.000000 
0 15.900398 -198.019363 -22.932629 0.000000 -0.998236 -0.059373 0.561333 0.075765 1 8 1.000000 
GunshipSheet.tga
0 -11.453166 -195.668304 -10.741108 0.000000 -0.847412 0.530936 0.455821 0.080357 1 8 1.000000 
0 15.900398 -198.019363 -22.932629 0.000000 -0.998236 -0.059373 0.561333 0.075765 1 8 1.000000 
0 11.453166 -195.668304 -10.741108 0.000000 -0.847412 0.530936 0.544179 0.080357 1 8 1.000000 
GunshipSheet.tga
0 -15.900398 -198.019363 -22.932629 0.000000 -0.998236 -0.059373 0.438667 0.075765 1 8 1.000000 
0 -13.274581 -194.642761 -33.498428 0.000000 -0.952541 -0.304411 0.448795 0.082361 1 8 1.000000 
0 13.274581 -194.642761 -33.498428 0.000000 -0.952541 -0.304411 0.551205 0.082361 1 8 1.000000 
GunshipSheet.tga
0 -15.900398 -198.019363 -22.932629 0.000000 -0.998236 -0.059373 0.438667 0.075765 1 8 1.000000 
0 13.274581 -194.642761 -33.498428 0.000000 -0.952541 -0.304411 0.551205 0.082361 1 8 1.000000 
0 15.900398 -198.019363 -22.932629 0.000000 -0.998236 -0.059373 0.561333 0.075765 1 8 1.000000 
GunshipSheet.tga
0 15.359000 -148.536377 7.795149 0.919293 -0.120256 0.374753 0.559245 0.172421 1 8 1.000000 
0 12.959803 -179.148804 1.607035 0.898306 -0.232327 0.372922 0.549990 0.112625 1 8 1.000000 
0 23.048262 -176.108292 -19.914795 0.979803 -0.186969 0.070915 0.588905 0.118564 1 8 1.000000 
GunshipSheet.tga
0 15.359000 -148.536377 7.795149 0.919293 -0.120256 0.374753 0.559245 0.172421 1 8 1.000000 
0 23.048262 -176.108292 -19.914795 0.979803 -0.186969 0.070915 0.588905 0.118564 1 8 1.000000 
0 22.574198 -142.753967 -10.298771 0.990892 -0.063060 0.118977 0.587076 0.183716 1 8 1.000000 
GunshipSheet.tga
0 -15.900398 -198.019363 -22.932629 -0.950202 -0.310982 0.020149 0.438667 0.075765 1 8 1.000000 
0 -11.453166 -195.668304 -10.741108 -0.865637 -0.341377 0.366243 0.455821 0.080357 1 8 1.000000 
0 -12.959803 -179.148804 1.607035 -0.898306 -0.232327 0.372922 0.450010 0.112625 1 8 1.000000 
GunshipSheet.tga
0 -15.900398 -198.019363 -22.932629 -0.950202 -0.310982 0.020149 0.438667 0.075765 1 8 1.000000 
0 -12.959803 -179.148804 1.607035 -0.898306 -0.232327 0.372922 0.450010 0.112625 1 8 1.000000 
0 -23.048262 -176.108292 -19.914795 -0.979803 -0.186969 0.070915 0.411095 0.118564 1 8 1.000000 
GunshipSheet.tga
0 -11.453166 -195.668304 -10.741108 0.000000 -0.847412 0.530936 0.455821 0.080357 1 8 1.000000 
0 11.453166 -195.668304 -10.741108 0.000000 -0.847412 0.530936 0.544179 0.080357 1 8 1.000000 
0 12.959803 -179.148804 1.607035 0.000000 -0.408376 0.912814 0.549990 0.112625 1 8 1.000000 
GunshipSheet.tga
0 -11.453166 -195.668304 -10.741108 0.000000 -0.847412 0.530936 0.455821 0.080357 1 8 1.000000 
0 12.959803 -179.148804 1.607035 0.000000 -0.408376 0.912814 0.549990 0.112625 1 8 1.000000 
0 -12.959803 -179.148804 1.607035 0.000000 -0.408376 0.912814 0.450010 0.112625 1 8 1.000000 
GunshipSheet.tga
0 -23.048262 -176.108292 -19.914795 -0.979803 -0.186969 0.070915 0.411095 0.118564 1 8 1.000000 
0 -19.242033 -172.022278 -32.700455 -0.963020 -0.122507 -0.239969 0.425777 0.126546 1 8 1.000000 
0 -13.274581 -194.642761 -33.498428 -0.913278 -0.240826 -0.328521 0.448795 0.082361 1 8 1.000000 
GunshipSheet.tga
0 -23.048262 -176.108292 -19.914795 -0.979803 -0.186969 0.070915 0.411095 0.118564 1 8 1.000000 
0 -13.274581 -194.642761 -33.498428 -0.913278 -0.240826 -0.328521 0.448795 0.082361 1 8 1.000000 
0 -15.900398 -198.019363 -22.932629 -0.950202 -0.310982 0.020149 0.438667 0.075765 1 8 1.000000 
GunshipSheet.tga
0 11.453166 -195.668304 -10.741108 0.865637 -0.341377 0.366243 0.544179 0.080357 1 8 1.000000 
0 15.900398 -198.019363 -22.932629 0.950202 -0.310982 0.020149 0.561333 0.075765 1 8 1.000000 
0 23.048262 -176.108292 -19.914795 0.979803 -0.186969 0.070915 0.588905 0.118564 1 8 1.000000 
GunshipSheet.tga
0 11.453166 -195.668304 -10.741108 0.865637 -0.341377 0.366243 0.544179 0.080357 1 8 1.000000 
0 23.048262 -176.108292 -19.914795 0.979803 -0.186969 0.070915 0.588905 0.118564 1 8 1.000000 
0 12.959803 -179.148804 1.607035 0.898306 -0.232327 0.372922 0.549990 0.112625 1 8 1.000000 
GunshipSheet.tga
0 -22.574198 -142.753967 -10.298771 -0.990892 -0.063060 0.118977 0.412924 0.183716 1 8 1.000000 
0 -22.574198 -141.761093 -23.421688 -0.989345 -0.001209 -0.145582 0.412924 0.185656 1 8 1.000000 
0 -19.242033 -172.022278 -32.700455 -0.963020 -0.122507 -0.239969 0.425777 0.126546 1 8 1.000000 
GunshipSheet.tga
0 -22.574198 -142.753967 -10.298771 -0.990892 -0.063060 0.118977 0.412924 0.183716 1 8 1.000000 
0 -19.242033 -172.022278 -32.700455 -0.963020 -0.122507 -0.239969 0.425777 0.126546 1 8 1.000000 
0 -23.048262 -176.108292 -19.914795 -0.979803 -0.186969 0.070915 0.411095 0.118564 1 8 1.000000 
GunshipSheet.tga
0 22.574198 -142.753967 -10.298771 0.000000 0.981545 0.191232 0.587076 0.183716 1 8 1.000000 
0 22.574198 -141.761093 -23.421688 0.000000 0.997150 0.075444 0.587076 0.185656 1 8 1.000000 
0 -22.574198 -141.761093 -23.421688 0.000000 0.997150 0.075444 0.412924 0.185656 1 8 1.000000 
GunshipSheet.tga
0 22.574198 -142.753967 -10.298771 0.000000 0.981545 0.191232 0.587076 0.183716 1 8 1.000000 
0 -22.574198 -141.761093 -23.421688 0.000000 0.997150 0.075444 0.412924 0.185656 1 8 1.000000 
0 -22.574198 -142.753967 -10.298771 0.000000 0.981545 0.191232 0.412924 0.183716 1 8 1.000000 
GunshipSheet.tga
0 23.048262 -176.108292 -19.914795 0.979803 -0.186969 0.070915 0.588905 0.118564 1 8 1.000000 
0 19.242033 -172.022278 -32.700455 0.963020 -0.122507 -0.239969 0.574223 0.126546 1 8 1.000000 
0 22.574198 -141.761093 -23.421688 0.989345 -0.001209 -0.145582 0.587076 0.185656 1 8 1.000000 
GunshipSheet.tga
0 23.048262 -176.108292 -19.914795 0.979803 -0.186969 0.070915 0.588905 0.118564 1 8 1.000000 
0 22.574198 -141.761093 -23.421688 0.989345 -0.001209 -0.145582 0.587076 0.185656 1 8 1.000000 
0 22.574198 -142.753967 -10.298771 0.990892 -0.063060 0.118977 0.587076 0.183716 1 8 1.000000 
GunshipSheet.tga
0 13.274581 -194.642761 -33.498428 0.000000 0.035255 -0.999378 0.551205 0.082361 1 8 1.000000 
0 -13.274581 -194.642761 -33.498428 0.000000 0.035255 -0.999378 0.448795 0.082361 1 8 1.000000 
0 -19.242033 -172.022278 -32.700455 0.000000 0.165625 -0.986189 0.425777 0.126546 1 8 1.000000 
GunshipSheet.tga
0 13.274581 -194.642761 -33.498428 0.000000 0.035255 -0.999378 0.551205 0.082361 1 8 1.000000 
0 -19.242033 -172.022278 -32.700455 0.000000 0.165625 -0.986189 0.425777 0.126546 1 8 1.000000 
0 19.242033 -172.022278 -32.700455 0.000000 0.165625 -0.986189 0.574223 0.126546 1 8 1.000000 
GunshipSheet.tga
0 -22.574198 -141.761093 -23.421688 0.000000 0.293151 -0.956066 0.412924 0.185656 1 8 1.000000 
0 22.574198 -141.761093 -23.421688 0.000000 0.293151 -0.956066 0.587076 0.185656 1 8 1.000000 
0 19.242033 -172.022278 -32.700455 0.000000 0.165625 -0.986189 0.574223 0.126546 1 8 1.000000 
GunshipSheet.tga
0 -22.574198 -141.761093 -23.421688 0.000000 0.293151 -0.956066 0.412924 0.185656 1 8 1.000000 
0 19.242033 -172.022278 -32.700455 0.000000 0.165625 -0.986189 0.574223 0.126546 1 8 1.000000 
0 -19.242033 -172.022278 -32.700455 0.000000 0.165625 -0.986189 0.425777 0.126546 1 8 1.000000 
GunshipSheet.tga
0 15.900398 -198.019363 -22.932629 0.950202 -0.310982 0.020149 0.561333 0.075765 1 8 1.000000 
0 13.274581 -194.642761 -33.498428 0.913278 -0.240826 -0.328521 0.551205 0.082361 1 8 1.000000 
0 19.242033 -172.022278 -32.700455 0.963020 -0.122507 -0.239969 0.574223 0.126546 1 8 1.000000 
GunshipSheet.tga
0 15.900398 -198.019363 -22.932629 0.950202 -0.310982 0.020149 0.561333 0.075765 1 8 1.000000 
0 19.242033 -172.022278 -32.700455 0.963020 -0.122507 -0.239969 0.574223 0.126546 1 8 1.000000 
0 23.048262 -176.108292 -19.914795 0.979803 -0.186969 0.070915 0.588905 0.118564 1 8 1.000000 
GunshipSheet.tga
0 -14.645000 -83.098457 27.762159 -0.873246 -0.080727 0.480546 0.443509 0.300243 1 2 1.000000 
0 -31.452946 -73.866104 -1.271482 -0.969073 -0.033577 0.244478 0.378675 0.318277 1 2 1.000000 
0 -33.048309 -116.655434 -11.317421 -0.962429 -0.187146 0.196741 0.372521 0.234695 1 2 1.000000 
GunshipSheet.tga
0 -14.645000 -83.098457 27.762159 -0.873246 -0.080727 0.480546 0.443509 0.300243 1 2 1.000000 
0 -33.048309 -116.655434 -11.317421 -0.962429 -0.187146 0.196741 0.372521 0.234695 1 2 1.000000 
0 -15.443443 -123.456963 19.490160 -0.499886 -0.257074 0.827059 0.440429 0.221410 1 2 1.000000 
GunshipSheet.tga
0 -14.645000 -83.098457 27.762159 0.000000 -0.200789 0.979635 0.443509 0.300243 1 2 1.000000 
0 -15.443443 -123.456963 19.490160 -0.499886 -0.257074 0.827059 0.440429 0.221410 1 2 1.000000 
0 15.443443 -123.456963 19.490160 0.499886 -0.257074 0.827059 0.559571 0.221410 1 2 1.000000 
GunshipSheet.tga
0 -14.645000 -83.098457 27.762159 0.000000 -0.200789 0.979635 0.443509 0.300243 1 2 1.000000 
0 15.443443 -123.456963 19.490160 0.499886 -0.257074 0.827059 0.559571 0.221410 1 2 1.000000 
0 14.645000 -83.098457 27.762159 0.000000 -0.200789 0.979635 0.556491 0.300243 1 2 1.000000 
GunshipSheet.tga
0 -14.645000 -83.098457 27.762159 0.000000 0.952979 0.303036 0.443509 0.300243 1 2 1.000000 
0 14.645000 -83.098457 27.762159 0.000000 0.952979 0.303036 0.556491 0.300243 1 2 1.000000 
0 31.452946 -73.866104 -1.271482 0.003920 0.984020 0.178014 0.621325 0.318277 1 2 1.000000 
GunshipSheet.tga
0 -14.645000 -83.098457 27.762159 0.000000 0.952979 0.303036 0.443509 0.300243 1 2 1.000000 
0 31.452946 -73.866104 -1.271482 0.003920 0.984020 0.178014 0.621325 0.318277 1 2 1.000000 
0 -31.452946 -73.866104 -1.271482 -0.003920 0.984020 0.178014 0.378675 0.318277 1 2 1.000000 
GunshipSheet.tga
0 -13.254001 -144.613388 10.928464 0.000000 -0.993720 -0.111891 0.448875 0.180084 1 2 1.000000 
0 -25.242317 -142.511398 -7.739723 -0.460350 -0.880235 -0.115173 0.402632 0.184190 1 2 1.000000 
0 25.242317 -142.511398 -7.739723 0.460350 -0.880235 -0.115173 0.597368 0.184190 1 2 1.000000 
GunshipSheet.tga
0 -13.254001 -144.613388 10.928464 0.000000 -0.993720 -0.111891 0.448875 0.180084 1 2 1.000000 
0 25.242317 -142.511398 -7.739723 0.460350 -0.880235 -0.115173 0.597368 0.184190 1 2 1.000000 
0 13.254001 -144.613388 10.928464 0.000000 -0.993720 -0.111891 0.551125 0.180084 1 2 1.000000 
GunshipSheet.tga
0 -32.207546 -71.148674 -26.364510 -0.131558 0.335281 -0.932888 0.375764 0.323585 1 2 1.000000 
0 0.000000 -70.401566 -29.748552 0.000000 0.338220 -0.941067 0.500000 0.325044 1 2 1.000000 
0 0.000000 -110.615280 -45.090832 0.000000 -0.120331 -0.992734 0.500000 0.246494 1 2 1.000000 
GunshipSheet.tga
0 -32.207546 -71.148674 -26.364510 -0.131558 0.335281 -0.932888 0.375764 0.323585 1 2 1.000000 
0 0.000000 -110.615280 -45.090832 0.000000 -0.120331 -0.992734 0.500000 0.246494 1 2 1.000000 
0 -31.747063 -112.172440 -40.283997 -0.137981 -0.119180 -0.983238 0.377541 0.243452 1 2 1.000000 
GunshipSheet.tga
0 14.645000 -83.098457 27.762159 0.873246 -0.080727 0.480546 0.556491 0.300243 1 2 1.000000 
0 15.443443 -123.456963 19.490160 0.499886 -0.257074 0.827059 0.559571 0.221410 1 2 1.000000 
0 33.048309 -116.655434 -11.317421 0.962429 -0.187146 0.196741 0.627479 0.234695 1 2 1.000000 
GunshipSheet.tga
0 14.645000 -83.098457 27.762159 0.873246 -0.080727 0.480546 0.556491 0.300243 1 2 1.000000 
0 33.048309 -116.655434 -11.317421 0.962429 -0.187146 0.196741 0.627479 0.234695 1 2 1.000000 
0 31.452946 -73.866104 -1.271482 0.969073 -0.033577 0.244478 0.621325 0.318277 1 2 1.000000 
GunshipSheet.tga
0 -32.207546 -71.148674 -26.364510 -0.999843 0.015827 -0.008002 0.375764 0.323585 1 2 1.000000 
0 -31.747063 -112.172440 -40.283997 -0.973492 -0.201617 -0.108002 0.377541 0.243452 1 2 1.000000 
0 -33.048309 -116.655434 -11.317421 -0.962429 -0.187146 0.196741 0.372521 0.234695 1 2 1.000000 
GunshipSheet.tga
0 -32.207546 -71.148674 -26.364510 -0.999843 0.015827 -0.008002 0.375764 0.323585 1 2 1.000000 
0 -33.048309 -116.655434 -11.317421 -0.962429 -0.187146 0.196741 0.372521 0.234695 1 2 1.000000 
0 -31.452946 -73.866104 -1.271482 -0.969073 -0.033577 0.244478 0.378675 0.318277 1 2 1.000000 
GunshipSheet.tga
0 32.207546 -71.148674 -26.364510 0.011711 0.994081 0.108006 0.624236 0.323585 1 2 1.000000 
0 0.000000 -70.401566 -29.748552 0.000000 0.993678 0.112268 0.500000 0.325044 1 2 1.000000 
0 31.452946 -73.866104 -1.271482 0.003920 0.984020 0.178014 0.621325 0.318277 1 2 1.000000 
GunshipSheet.tga
0 -21.010811 -136.048767 -25.303410 -0.427208 -0.726424 -0.538332 0.418954 0.196814 1 2 1.000000 
0 0.000000 -137.219574 -28.115303 0.000000 -0.829518 -0.558480 0.500000 0.194527 1 2 1.000000 
0 -25.242317 -142.511398 -7.739723 -0.460350 -0.880235 -0.115173 0.402632 0.184190 1 2 1.000000 
GunshipSheet.tga
0 21.010811 -136.048767 -25.303410 0.427208 -0.726424 -0.538332 0.581046 0.196814 1 2 1.000000 
0 31.747063 -112.172440 -40.283997 0.973492 -0.201617 -0.108002 0.622459 0.243452 1 2 1.000000 
0 33.048309 -116.655434 -11.317421 0.962429 -0.187146 0.196741 0.627479 0.234695 1 2 1.000000 
GunshipSheet.tga
0 21.010811 -136.048767 -25.303410 0.427208 -0.726424 -0.538332 0.581046 0.196814 1 2 1.000000 
0 33.048309 -116.655434 -11.317421 0.962429 -0.187146 0.196741 0.627479 0.234695 1 2 1.000000 
0 25.242317 -142.511398 -7.739723 0.460350 -0.880235 -0.115173 0.597368 0.184190 1 2 1.000000 
GunshipSheet.tga
0 -25.242317 -142.511398 -7.739723 -0.460350 -0.880235 -0.115173 0.402632 0.184190 1 2 1.000000 
0 -13.254001 -144.613388 10.928464 -0.488933 -0.347518 0.800110 0.448875 0.180084 1 2 1.000000 
0 -15.443443 -123.456963 19.490160 -0.499886 -0.257074 0.827059 0.440429 0.221410 1 2 1.000000 
GunshipSheet.tga
0 -25.242317 -142.511398 -7.739723 -0.460350 -0.880235 -0.115173 0.402632 0.184190 1 2 1.000000 
0 -15.443443 -123.456963 19.490160 -0.499886 -0.257074 0.827059 0.440429 0.221410 1 2 1.000000 
0 -33.048309 -116.655434 -11.317421 -0.962429 -0.187146 0.196741 0.372521 0.234695 1 2 1.000000 
GunshipSheet.tga
0 -13.254001 -144.613388 10.928464 -0.488933 -0.347518 0.800110 0.448875 0.180084 1 2 1.000000 
0 13.254001 -144.613388 10.928464 0.488933 -0.347518 0.800110 0.551125 0.180084 1 2 1.000000 
0 15.443443 -123.456963 19.490160 0.499886 -0.257074 0.827059 0.559571 0.221410 1 2 1.000000 
GunshipSheet.tga
0 -13.254001 -144.613388 10.928464 -0.488933 -0.347518 0.800110 0.448875 0.180084 1 2 1.000000 
0 15.443443 -123.456963 19.490160 0.499886 -0.257074 0.827059 0.559571 0.221410 1 2 1.000000 
0 -15.443443 -123.456963 19.490160 -0.499886 -0.257074 0.827059 0.440429 0.221410 1 2 1.000000 
GunshipSheet.tga
0 21.010811 -136.048767 -25.303410 0.427208 -0.726424 -0.538332 0.581046 0.196814 1 2 1.000000 
0 0.000000 -137.219574 -28.115303 0.000000 -0.829518 -0.558480 0.500000 0.194527 1 2 1.000000 
0 0.000000 -110.615280 -45.090832 0.000000 -0.120331 -0.992734 0.500000 0.246494 1 2 1.000000 
GunshipSheet.tga
0 21.010811 -136.048767 -25.303410 0.427208 -0.726424 -0.538332 0.581046 0.196814 1 2 1.000000 
0 0.000000 -110.615280 -45.090832 0.000000 -0.120331 -0.992734 0.500000 0.246494 1 2 1.000000 
0 31.747063 -112.172440 -40.283997 0.137981 -0.119180 -0.983238 0.622459 0.243452 1 2 1.000000 
GunshipSheet.tga
0 13.254001 -144.613388 10.928464 0.488933 -0.347518 0.800110 0.551125 0.180084 1 2 1.000000 
0 25.242317 -142.511398 -7.739723 0.460350 -0.880235 -0.115173 0.597368 0.184190 1 2 1.000000 
0 33.048309 -116.655434 -11.317421 0.962429 -0.187146 0.196741 0.627479 0.234695 1 2 1.000000 
GunshipSheet.tga
0 13.254001 -144.613388 10.928464 0.488933 -0.347518 0.800110 0.551125 0.180084 1 2 1.000000 
0 33.048309 -116.655434 -11.317421 0.962429 -0.187146 0.196741 0.627479 0.234695 1 2 1.000000 
0 15.443443 -123.456963 19.490160 0.499886 -0.257074 0.827059 0.559571 0.221410 1 2 1.000000 
GunshipSheet.tga
0 -21.010811 -136.048767 -25.303410 -0.427208 -0.726424 -0.538332 0.418954 0.196814 1 2 1.000000 
0 -25.242317 -142.511398 -7.739723 -0.460350 -0.880235 -0.115173 0.402632 0.184190 1 2 1.000000 
0 -33.048309 -116.655434 -11.317421 -0.962429 -0.187146 0.196741 0.372521 0.234695 1 2 1.000000 
GunshipSheet.tga
0 -21.010811 -136.048767 -25.303410 -0.427208 -0.726424 -0.538332 0.418954 0.196814 1 2 1.000000 
0 -33.048309 -116.655434 -11.317421 -0.962429 -0.187146 0.196741 0.372521 0.234695 1 2 1.000000 
0 -31.747063 -112.172440 -40.283997 -0.973492 -0.201617 -0.108002 0.377541 0.243452 1 2 1.000000 
GunshipSheet.tga
0 32.207546 -71.148674 -26.364510 0.999843 0.015827 -0.008002 0.624236 0.323585 1 2 1.000000 
0 31.452946 -73.866104 -1.271482 0.969073 -0.033577 0.244478 0.621325 0.318277 1 2 1.000000 
0 33.048309 -116.655434 -11.317421 0.962429 -0.187146 0.196741 0.627479 0.234695 1 2 1.000000 
GunshipSheet.tga
0 32.207546 -71.148674 -26.364510 0.999843 0.015827 -0.008002 0.624236 0.323585 1 2 1.000000 
0 33.048309 -116.655434 -11.317421 0.962429 -0.187146 0.196741 0.627479 0.234695 1 2 1.000000 
0 31.747063 -112.172440 -40.283997 0.973492 -0.201617 -0.108002 0.622459 0.243452 1 2 1.000000 
GunshipSheet.tga
0 32.207546 -71.148674 -26.364510 0.131558 0.335281 -0.932888 0.624236 0.323585 1 2 1.000000 
0 31.747063 -112.172440 -40.283997 0.137981 -0.119180 -0.983238 0.622459 0.243452 1 2 1.000000 
0 0.000000 -110.615280 -45.090832 0.000000 -0.120331 -0.992734 0.500000 0.246494 1 2 1.000000 
GunshipSheet.tga
0 32.207546 -71.148674 -26.364510 0.131558 0.335281 -0.932888 0.624236 0.323585 1 2 1.000000 
0 0.000000 -110.615280 -45.090832 0.000000 -0.120331 -0.992734 0.500000 0.246494 1 2 1.000000 
0 0.000000 -70.401566 -29.748552 0.000000 0.338220 -0.941067 0.500000 0.325044 1 2 1.000000 
GunshipSheet.tga
0 -21.010811 -136.048767 -25.303410 -0.427208 -0.726424 -0.538332 0.418954 0.196814 1 2 1.000000 
0 -31.747063 -112.172440 -40.283997 -0.137981 -0.119180 -0.983238 0.377541 0.243452 1 2 1.000000 
0 0.000000 -110.615280 -45.090832 0.000000 -0.120331 -0.992734 0.500000 0.246494 1 2 1.000000 
GunshipSheet.tga
0 -21.010811 -136.048767 -25.303410 -0.427208 -0.726424 -0.538332 0.418954 0.196814 1 2 1.000000 
0 0.000000 -110.615280 -45.090832 0.000000 -0.120331 -0.992734 0.500000 0.246494 1 2 1.000000 
0 0.000000 -137.219574 -28.115303 0.000000 -0.829518 -0.558480 0.500000 0.194527 1 2 1.000000 
GunshipSheet.tga
0 -32.207546 -71.148674 -26.364510 -0.011711 0.994081 0.108006 0.375764 0.323585 1 2 1.000000 
0 -31.452946 -73.866104 -1.271482 -0.003920 0.984020 0.178014 0.378675 0.318277 1 2 1.000000 
0 0.000000 -70.401566 -29.748552 0.000000 0.993678 0.112268 0.500000 0.325044 1 2 1.000000 
GunshipSheet.tga
0 31.452946 -73.866104 -1.271482 0.003920 0.984020 0.178014 0.621325 0.318277 1 2 1.000000 
0 0.000000 -70.401566 -29.748552 0.000000 0.993678 0.112268 0.500000 0.325044 1 2 1.000000 
0 -31.452946 -73.866104 -1.271482 -0.003920 0.984020 0.178014 0.378675 0.318277 1 2 1.000000 
GunshipSheet.tga
0 21.010811 -136.048767 -25.303410 0.427208 -0.726424 -0.538332 0.581046 0.196814 1 2 1.000000 
0 25.242317 -142.511398 -7.739723 0.460350 -0.880235 -0.115173 0.597368 0.184190 1 2 1.000000 
0 0.000000 -137.219574 -28.115303 0.000000 -0.829518 -0.558480 0.500000 0.194527 1 2 1.000000 
GunshipSheet.tga
0 25.242317 -142.511398 -7.739723 0.460350 -0.880235 -0.115173 0.597368 0.184190 1 2 1.000000 
0 -25.242317 -142.511398 -7.739723 -0.460350 -0.880235 -0.115173 0.402632 0.184190 1 2 1.000000 
0 0.000000 -137.219574 -28.115303 0.000000 -0.829518 -0.558480 0.500000 0.194527 1 2 1.000000 
GunshipSheet.tga
0 -27.040037 39.774776 77.634598 -0.888708 -0.153499 0.432014 0.395697 0.540254 1 1 1.000000 
0 -49.907242 63.181599 44.453648 -0.964323 -0.083573 0.251192 0.307491 0.585976 1 1 1.000000 
0 -46.215611 -19.292336 17.200933 -0.956762 -0.188584 0.221456 0.321730 0.424877 1 1 1.000000 
GunshipSheet.tga
0 -27.040037 39.774776 77.634598 -0.888708 -0.153499 0.432014 0.395697 0.540254 1 1 1.000000 
0 -46.215611 -19.292336 17.200933 -0.956762 -0.188584 0.221456 0.321730 0.424877 1 1 1.000000 
0 -26.615055 -28.756519 59.702106 -0.896747 -0.228220 0.379158 0.397337 0.406390 1 1 1.000000 
GunshipSheet.tga
0 -27.040037 39.774776 77.634598 0.000000 -0.253146 0.967428 0.395697 0.540254 1 1 1.000000 
0 -26.615055 -28.756519 59.702106 0.000000 -0.356471 0.934306 0.397337 0.406390 1 1 1.000000 
0 26.615055 -28.756519 59.702106 0.000000 -0.356471 0.934306 0.602663 0.406390 1 1 1.000000 
GunshipSheet.tga
0 -27.040037 39.774776 77.634598 0.000000 -0.253146 0.967428 0.395697 0.540254 1 1 1.000000 
0 26.615055 -28.756519 59.702106 0.000000 -0.356471 0.934306 0.602663 0.406390 1 1 1.000000 
0 27.040037 39.774776 77.634598 0.000000 -0.253146 0.967428 0.604303 0.540254 1 1 1.000000 
GunshipSheet.tga
0 -27.040037 39.774776 77.634598 0.000000 0.817142 0.576436 0.395697 0.540254 1 1 1.000000 
0 27.040037 39.774776 77.634598 0.000000 0.817142 0.576436 0.604303 0.540254 1 1 1.000000 
0 49.907242 63.181599 44.453648 0.000000 0.842079 0.539354 0.692509 0.585976 1 1 1.000000 
GunshipSheet.tga
0 -27.040037 39.774776 77.634598 0.000000 0.817142 0.576436 0.395697 0.540254 1 1 1.000000 
0 49.907242 63.181599 44.453648 0.000000 0.842079 0.539354 0.692509 0.585976 1 1 1.000000 
0 -49.907242 63.181599 44.453648 0.000000 0.842079 0.539354 0.307491 0.585976 1 1 1.000000 
GunshipSheet.tga
0 -20.070364 -79.451996 33.756039 0.000000 -0.985304 -0.170811 0.422582 0.307366 1 1 1.000000 
0 -34.929283 -72.829361 -4.445811 0.000000 -0.979522 -0.201337 0.365266 0.320302 1 1 1.000000 
0 34.929283 -72.829361 -4.445811 0.000000 -0.979522 -0.201337 0.634734 0.320302 1 1 1.000000 
GunshipSheet.tga
0 -20.070364 -79.451996 33.756039 0.000000 -0.985304 -0.170811 0.422582 0.307366 1 1 1.000000 
0 34.929283 -72.829361 -4.445811 0.000000 -0.979522 -0.201337 0.634734 0.320302 1 1 1.000000 
0 20.070364 -79.451996 33.756039 0.000000 -0.985304 -0.170811 0.577418 0.307366 1 1 1.000000 
GunshipSheet.tga
0 34.929283 -67.394966 -27.265219 0.766648 -0.129364 -0.628900 0.634734 0.330917 1 1 1.000000 
0 40.055248 -7.222952 -25.658155 0.516237 0.113686 -0.848867 0.654507 0.448453 1 1 1.000000 
0 52.147327 -12.651800 -5.913970 0.975808 -0.050556 -0.212704 0.701150 0.437848 1 1 1.000000 
GunshipSheet.tga
0 27.040037 39.774776 77.634598 0.888708 -0.153499 0.432014 0.604303 0.540254 1 1 1.000000 
0 26.615055 -28.756519 59.702106 0.896747 -0.228220 0.379158 0.602663 0.406390 1 1 1.000000 
0 46.215611 -19.292336 17.200933 0.956762 -0.188584 0.221456 0.678270 0.424877 1 1 1.000000 
GunshipSheet.tga
0 27.040037 39.774776 77.634598 0.888708 -0.153499 0.432014 0.604303 0.540254 1 1 1.000000 
0 46.215611 -19.292336 17.200933 0.956762 -0.188584 0.221456 0.678270 0.424877 1 1 1.000000 
0 49.907242 63.181599 44.453648 0.964323 -0.083573 0.251192 0.692509 0.585976 1 1 1.000000 
GunshipSheet.tga
0 -49.907242 63.181599 44.453648 -0.964323 -0.083573 0.251192 0.307491 0.585976 1 1 1.000000 
0 -46.870819 76.026939 22.275564 -0.986834 0.071211 -0.145217 0.319203 0.611067 1 1 1.000000 
0 -52.147327 -12.651800 -5.913970 -0.981870 -0.060912 -0.179502 0.298850 0.437848 1 1 1.000000 
GunshipSheet.tga
0 -49.907242 63.181599 44.453648 -0.964323 -0.083573 0.251192 0.307491 0.585976 1 1 1.000000 
0 -52.147327 -12.651800 -5.913970 -0.981870 -0.060912 -0.179502 0.298850 0.437848 1 1 1.000000 
0 -46.215611 -19.292336 17.200933 -0.956762 -0.188584 0.221456 0.321730 0.424877 1 1 1.000000 
GunshipSheet.tga
0 49.907242 63.181599 44.453648 0.000000 0.842079 0.539354 0.692509 0.585976 1 1 1.000000 
0 46.870819 76.026939 22.275564 0.000000 0.924569 0.381015 0.680797 0.611067 1 1 1.000000 
0 -46.870819 76.026939 22.275564 0.000000 0.924569 0.381015 0.319203 0.611067 1 1 1.000000 
GunshipSheet.tga
0 49.907242 63.181599 44.453648 0.000000 0.842079 0.539354 0.692509 0.585976 1 1 1.000000 
0 -46.870819 76.026939 22.275564 0.000000 0.924569 0.381015 0.319203 0.611067 1 1 1.000000 
0 -49.907242 63.181599 44.453648 0.000000 0.842079 0.539354 0.307491 0.585976 1 1 1.000000 
GunshipSheet.tga
0 34.929283 -72.829361 -4.445811 0.938045 -0.290123 0.189473 0.634734 0.320302 1 1 1.000000 
0 34.929283 -67.394966 -27.265219 0.766648 -0.129364 -0.628900 0.634734 0.330917 1 1 1.000000 
0 52.147327 -12.651800 -5.913970 0.975808 -0.050556 -0.212704 0.701150 0.437848 1 1 1.000000 
GunshipSheet.tga
0 34.929283 -72.829361 -4.445811 0.938045 -0.290123 0.189473 0.634734 0.320302 1 1 1.000000 
0 52.147327 -12.651800 -5.913970 0.975808 -0.050556 -0.212704 0.701150 0.437848 1 1 1.000000 
0 46.215611 -19.292336 17.200933 0.956762 -0.188584 0.221456 0.678270 0.424877 1 1 1.000000 
GunshipSheet.tga
0 -34.929283 -72.829361 -4.445811 0.000000 -0.979522 -0.201337 0.365266 0.320302 1 1 1.000000 
0 -34.929283 -67.394966 -27.265219 0.000000 -0.972795 -0.231669 0.365266 0.330917 1 1 1.000000 
0 34.929283 -67.394966 -27.265219 0.000000 -0.972795 -0.231669 0.634734 0.330917 1 1 1.000000 
GunshipSheet.tga
0 -34.929283 -72.829361 -4.445811 0.000000 -0.979522 -0.201337 0.365266 0.320302 1 1 1.000000 
0 34.929283 -67.394966 -27.265219 0.000000 -0.972795 -0.231669 0.634734 0.330917 1 1 1.000000 
0 34.929283 -72.829361 -4.445811 0.000000 -0.979522 -0.201337 0.634734 0.320302 1 1 1.000000 
GunshipSheet.tga
0 -34.929283 -72.829361 -4.445811 -0.938045 -0.290123 0.189473 0.365266 0.320302 1 1 1.000000 
0 -20.070364 -79.451996 33.756039 -0.897216 -0.301015 0.323101 0.422582 0.307366 1 1 1.000000 
0 -26.615055 -28.756519 59.702106 -0.896747 -0.228220 0.379158 0.397337 0.406390 1 1 1.000000 
GunshipSheet.tga
0 -34.929283 -72.829361 -4.445811 -0.938045 -0.290123 0.189473 0.365266 0.320302 1 1 1.000000 
0 -26.615055 -28.756519 59.702106 -0.896747 -0.228220 0.379158 0.397337 0.406390 1 1 1.000000 
0 -46.215611 -19.292336 17.200933 -0.956762 -0.188584 0.221456 0.321730 0.424877 1 1 1.000000 
GunshipSheet.tga
0 -20.070364 -79.451996 33.756039 0.000000 -0.455599 0.890185 0.422582 0.307366 1 1 1.000000 
0 20.070364 -79.451996 33.756039 0.000000 -0.455599 0.890185 0.577418 0.307366 1 1 1.000000 
0 26.615055 -28.756519 59.702106 0.000000 -0.356471 0.934306 0.602663 0.406390 1 1 1.000000 
GunshipSheet.tga
0 -20.070364 -79.451996 33.756039 0.000000 -0.455599 0.890185 0.422582 0.307366 1 1 1.000000 
0 26.615055 -28.756519 59.702106 0.000000 -0.356471 0.934306 0.602663 0.406390 1 1 1.000000 
0 -26.615055 -28.756519 59.702106 0.000000 -0.356471 0.934306 0.397337 0.406390 1 1 1.000000 
GunshipSheet.tga
0 -52.147327 -12.651800 -5.913970 -0.981870 -0.060912 -0.179502 0.298850 0.437848 1 1 1.000000 
0 -42.523987 -7.222952 -25.658155 -0.914292 0.025097 -0.404278 0.335970 0.448453 1 1 1.000000 
0 -34.929283 -67.394966 -27.265219 -0.958132 -0.193720 -0.210846 0.365266 0.330917 1 1 1.000000 
GunshipSheet.tga
0 20.070364 -79.451996 33.756039 0.897216 -0.301015 0.323101 0.577418 0.307366 1 1 1.000000 
0 34.929283 -72.829361 -4.445811 0.938045 -0.290123 0.189473 0.634734 0.320302 1 1 1.000000 
0 46.215611 -19.292336 17.200933 0.956762 -0.188584 0.221456 0.678270 0.424877 1 1 1.000000 
GunshipSheet.tga
0 20.070364 -79.451996 33.756039 0.897216 -0.301015 0.323101 0.577418 0.307366 1 1 1.000000 
0 46.215611 -19.292336 17.200933 0.956762 -0.188584 0.221456 0.678270 0.424877 1 1 1.000000 
0 26.615055 -28.756519 59.702106 0.896747 -0.228220 0.379158 0.602663 0.406390 1 1 1.000000 
GunshipSheet.tga
0 -34.929283 -67.394966 -27.265219 -0.958132 -0.193720 -0.210846 0.365266 0.330917 1 1 1.000000 
0 -34.929283 -72.829361 -4.445811 -0.938045 -0.290123 0.189473 0.365266 0.320302 1 1 1.000000 
0 -46.215611 -19.292336 17.200933 -0.956762 -0.188584 0.221456 0.321730 0.424877 1 1 1.000000 
GunshipSheet.tga
0 -34.929283 -67.394966 -27.265219 -0.958132 -0.193720 -0.210846 0.365266 0.330917 1 1 1.000000 
0 -46.215611 -19.292336 17.200933 -0.956762 -0.188584 0.221456 0.321730 0.424877 1 1 1.000000 
0 -52.147327 -12.651800 -5.913970 -0.981870 -0.060912 -0.179502 0.298850 0.437848 1 1 1.000000 
GunshipSheet.tga
0 46.870819 76.026939 22.275564 0.982974 0.071557 -0.169237 0.680797 0.611067 1 1 1.000000 
0 49.907242 63.181599 44.453648 0.964323 -0.083573 0.251192 0.692509 0.585976 1 1 1.000000 
0 46.215611 -19.292336 17.200933 0.956762 -0.188584 0.221456 0.678270 0.424877 1 1 1.000000 
GunshipSheet.tga
0 46.870819 76.026939 22.275564 0.982974 0.071557 -0.169237 0.680797 0.611067 1 1 1.000000 
0 46.215611 -19.292336 17.200933 0.956762 -0.188584 0.221456 0.678270 0.424877 1 1 1.000000 
0 52.147327 -12.651800 -5.913970 0.975808 -0.050556 -0.212704 0.701150 0.437848 1 1 1.000000 
GunshipSheet.tga
0 -46.870819 76.026939 22.275564 -0.986834 0.071211 -0.145217 0.319203 0.611067 1 1 1.000000 
0 -38.825687 82.082901 -0.785325 -0.927495 0.148986 -0.342864 0.350236 0.622896 1 1 1.000000 
0 -42.523987 -7.222952 -25.658155 -0.914292 0.025097 -0.404278 0.335970 0.448453 1 1 1.000000 
GunshipSheet.tga
0 -46.870819 76.026939 22.275564 -0.986834 0.071211 -0.145217 0.319203 0.611067 1 1 1.000000 
0 -42.523987 -7.222952 -25.658155 -0.914292 0.025097 -0.404278 0.335970 0.448453 1 1 1.000000 
0 -52.147327 -12.651800 -5.913970 -0.981870 -0.060912 -0.179502 0.298850 0.437848 1 1 1.000000 
GunshipSheet.tga
0 46.870819 76.026939 22.275564 0.000000 0.924569 0.381015 0.680797 0.611067 1 1 1.000000 
0 38.825687 82.082901 -0.785325 0.000000 0.967205 0.253995 0.649764 0.622896 1 1 1.000000 
0 -38.825687 82.082901 -0.785325 0.000000 0.967205 0.253995 0.350236 0.622896 1 1 1.000000 
GunshipSheet.tga
0 46.870819 76.026939 22.275564 0.000000 0.924569 0.381015 0.680797 0.611067 1 1 1.000000 
0 -38.825687 82.082901 -0.785325 0.000000 0.967205 0.253995 0.350236 0.622896 1 1 1.000000 
0 -46.870819 76.026939 22.275564 0.000000 0.924569 0.381015 0.319203 0.611067 1 1 1.000000 
GunshipSheet.tga
0 52.147327 -12.651800 -5.913970 0.975808 -0.050556 -0.212704 0.701150 0.437848 1 1 1.000000 
0 40.055248 -7.222952 -25.658155 0.516237 0.113686 -0.848867 0.654507 0.448453 1 1 1.000000 
0 38.825687 82.082901 -0.785325 0.909573 0.148907 -0.387947 0.649764 0.622896 1 1 1.000000 
GunshipSheet.tga
0 52.147327 -12.651800 -5.913970 0.975808 -0.050556 -0.212704 0.701150 0.437848 1 1 1.000000 
0 38.825687 82.082901 -0.785325 0.909573 0.148907 -0.387947 0.649764 0.622896 1 1 1.000000 
0 46.870819 76.026939 22.275564 0.982974 0.071557 -0.169237 0.680797 0.611067 1 1 1.000000 
GunshipSheet.tga
0 34.929283 -67.394966 -27.265219 0.766648 -0.129364 -0.628900 0.634734 0.330917 1 1 1.000000 
0 -34.929283 -67.394966 -27.265219 0.000000 0.026698 -0.999644 0.365266 0.330917 1 1 1.000000 
0 -42.523987 -7.222952 -25.658155 0.000000 0.148613 -0.988895 0.335970 0.448453 1 1 1.000000 
GunshipSheet.tga
0 34.929283 -67.394966 -27.265219 0.766648 -0.129364 -0.628900 0.634734 0.330917 1 1 1.000000 
0 -42.523987 -7.222952 -25.658155 0.000000 0.148613 -0.988895 0.335970 0.448453 1 1 1.000000 
0 40.055248 -7.222952 -25.658155 0.516237 0.113686 -0.848867 0.654507 0.448453 1 1 1.000000 
GunshipSheet.tga
0 -38.825687 82.082901 -0.785325 0.000000 0.268301 -0.963335 0.350236 0.622896 1 1 1.000000 
0 38.825687 82.082901 -0.785325 0.000000 0.268301 -0.963335 0.649764 0.622896 1 1 1.000000 
0 40.055248 -7.222952 -25.658155 0.516237 0.113686 -0.848867 0.654507 0.448453 1 1 1.000000 
GunshipSheet.tga
0 -38.825687 82.082901 -0.785325 0.000000 0.268301 -0.963335 0.350236 0.622896 1 1 1.000000 
0 40.055248 -7.222952 -25.658155 0.516237 0.113686 -0.848867 0.654507 0.448453 1 1 1.000000 
0 -42.523987 -7.222952 -25.658155 0.000000 0.148613 -0.988895 0.335970 0.448453 1 1 1.000000 
GunshipSheet.tga
0 -27.994150 35.271034 31.829531 -0.344425 -0.938414 0.027395 0.392017 0.531457 1 13 1.000000 
0 -21.670860 35.271030 69.358406 -0.344425 -0.938414 0.027395 0.416408 0.531457 1 13 1.000000 
0 -70.315414 74.011612 73.321098 -0.820101 -0.571600 0.026596 0.228769 0.607130 1 13 1.000000 
GunshipSheet.tga
0 -27.994150 35.271034 31.829531 -0.344425 -0.938414 0.027395 0.392017 0.531457 1 13 1.000000 
0 -70.315414 74.011612 73.321098 -0.820101 -0.571600 0.026596 0.228769 0.607130 1 13 1.000000 
0 -70.315414 74.011612 31.351496 -0.820101 -0.571600 0.026596 0.228769 0.607130 1 13 1.000000 
GunshipSheet.tga
0 -27.994150 35.271034 31.829531 0.000000 -0.012338 -0.999924 0.392017 0.531457 1 13 1.000000 
0 -70.315414 74.011612 31.351496 0.000000 -0.006169 -0.999981 0.228769 0.607130 1 13 1.000000 
0 70.315414 74.011612 31.351496 0.000000 -0.006169 -0.999981 0.771231 0.607130 1 13 1.000000 
GunshipSheet.tga
0 -27.994150 35.271034 31.829531 0.000000 -0.012338 -0.999924 0.392017 0.531457 1 13 1.000000 
0 70.315414 74.011612 31.351496 0.000000 -0.006169 -0.999981 0.771231 0.607130 1 13 1.000000 
0 27.994150 35.271034 31.829531 0.000000 -0.012338 -0.999924 0.607983 0.531457 1 13 1.000000 
GunshipSheet.tga
0 -27.994150 35.271034 31.829531 -0.344425 -0.938414 0.027395 0.392017 0.531457 1 13 1.000000 
0 27.994150 35.271034 31.829531 0.344425 -0.938414 0.027395 0.607983 0.531457 1 13 1.000000 
0 21.670860 35.271030 69.358406 0.344425 -0.938414 0.027395 0.583592 0.531457 1 13 1.000000 
GunshipSheet.tga
0 -27.994150 35.271034 31.829531 -0.344425 -0.938414 0.027395 0.392017 0.531457 1 13 1.000000 
0 21.670860 35.271030 69.358406 0.344425 -0.938414 0.027395 0.583592 0.531457 1 13 1.000000 
0 -21.670860 35.271030 69.358406 -0.344425 -0.938414 0.027395 0.416408 0.531457 1 13 1.000000 
GunshipSheet.tga
0 -70.315414 74.011612 31.351496 -0.820101 -0.571600 0.026596 0.228769 0.607130 1 13 1.000000 
0 -70.315414 74.011612 73.321098 -0.820101 -0.571600 0.026596 0.228769 0.607130 1 13 1.000000 
0 -84.784691 113.531570 73.321106 -0.989997 -0.141087 -0.000000 0.172956 0.684326 1 13 1.000000 
GunshipSheet.tga
0 -70.315414 74.011612 31.351496 -0.820101 -0.571600 0.026596 0.228769 0.607130 1 13 1.000000 
0 -84.784691 113.531570 73.321106 -0.989997 -0.141087 -0.000000 0.172956 0.684326 1 13 1.000000 
0 -84.784691 113.531570 31.351498 -0.989997 -0.141087 -0.000000 0.172956 0.684326 1 13 1.000000 
GunshipSheet.tga
0 -70.315414 74.011612 31.351496 0.000000 -0.006169 -0.999981 0.228769 0.607130 1 13 1.000000 
0 -84.784691 113.531570 31.351498 0.000000 0.000000 -1.000000 0.172956 0.684326 1 13 1.000000 
0 84.784691 113.531570 31.351498 0.000000 0.000000 -1.000000 0.827044 0.684326 1 13 1.000000 
GunshipSheet.tga
0 -70.315414 74.011612 31.351496 0.000000 -0.006169 -0.999981 0.228769 0.607130 1 13 1.000000 
0 84.784691 113.531570 31.351498 0.000000 0.000000 -1.000000 0.827044 0.684326 1 13 1.000000 
0 70.315414 74.011612 31.351496 0.000000 -0.006169 -0.999981 0.771231 0.607130 1 13 1.000000 
GunshipSheet.tga
0 -84.784691 113.531570 31.351498 -0.989997 -0.141087 -0.000000 0.172956 0.684326 1 13 1.000000 
0 -84.784691 113.531570 73.321106 -0.989997 -0.141087 -0.000000 0.172956 0.684326 1 13 1.000000 
0 -81.381615 163.610489 73.321106 -0.915946 0.401301 0.000000 0.186083 0.782146 1 13 1.000000 
GunshipSheet.tga
0 -84.784691 113.531570 31.351498 -0.989997 -0.141087 -0.000000 0.172956 0.684326 1 13 1.000000 
0 -81.381615 163.610489 73.321106 -0.915946 0.401301 0.000000 0.186083 0.782146 1 13 1.000000 
0 -81.381615 163.610489 31.351500 -0.915946 0.401301 0.000000 0.186083 0.782146 1 13 1.000000 
GunshipSheet.tga
0 -84.784691 113.531570 31.351498 0.000000 0.000000 -1.000000 0.172956 0.684326 1 13 1.000000 
0 -81.381615 163.610489 31.351500 0.000000 0.000000 -1.000000 0.186083 0.782146 1 13 1.000000 
0 81.381615 163.610489 31.351500 0.000000 0.000000 -1.000000 0.813917 0.782146 1 13 1.000000 
GunshipSheet.tga
0 -84.784691 113.531570 31.351498 0.000000 0.000000 -1.000000 0.172956 0.684326 1 13 1.000000 
0 81.381615 163.610489 31.351500 0.000000 0.000000 -1.000000 0.813917 0.782146 1 13 1.000000 
0 84.784691 113.531570 31.351498 0.000000 0.000000 -1.000000 0.827044 0.684326 1 13 1.000000 
GunshipSheet.tga
0 -81.381615 163.610489 31.351500 -0.915946 0.401301 0.000000 0.186083 0.782146 1 13 1.000000 
0 -81.381615 163.610489 73.321106 -0.915946 0.401301 0.000000 0.186083 0.782146 1 13 1.000000 
0 -43.564026 203.557327 73.321106 -0.778660 0.627446 0.000000 0.331959 0.860175 1 13 1.000000 
GunshipSheet.tga
0 -81.381615 163.610489 31.351500 -0.915946 0.401301 0.000000 0.186083 0.782146 1 13 1.000000 
0 -43.564026 203.557327 73.321106 -0.778660 0.627446 0.000000 0.331959 0.860175 1 13 1.000000 
0 -43.564026 203.557327 31.351501 -0.778660 0.627446 0.000000 0.331959 0.860175 1 13 1.000000 
GunshipSheet.tga
0 -81.381615 163.610489 31.351500 0.000000 0.000000 -1.000000 0.186083 0.782146 1 13 1.000000 
0 -43.564026 203.557327 31.351501 0.000000 0.125792 -0.992057 0.331959 0.860175 1 13 1.000000 
0 43.564026 203.557327 31.351501 0.000000 0.125792 -0.992057 0.668041 0.860175 1 13 1.000000 
GunshipSheet.tga
0 -81.381615 163.610489 31.351500 0.000000 0.000000 -1.000000 0.186083 0.782146 1 13 1.000000 
0 43.564026 203.557327 31.351501 0.000000 0.125792 -0.992057 0.668041 0.860175 1 13 1.000000 
0 81.381615 163.610489 31.351500 0.000000 0.000000 -1.000000 0.813917 0.782146 1 13 1.000000 
GunshipSheet.tga
0 -43.564026 203.557327 31.351501 -0.778660 0.627446 0.000000 0.331959 0.860175 1 13 1.000000 
0 -43.564026 203.557327 73.321106 -0.778660 0.627446 0.000000 0.331959 0.860175 1 13 1.000000 
0 -17.028528 242.468262 70.500450 -0.916288 0.400519 0.000000 0.434315 0.936181 1 13 1.000000 
GunshipSheet.tga
0 -43.564026 203.557327 31.351501 -0.778660 0.627446 0.000000 0.331959 0.860175 1 13 1.000000 
0 -17.028528 242.468262 70.500450 -0.916288 0.400519 0.000000 0.434315 0.936181 1 13 1.000000 
0 -17.028528 242.468262 41.380516 -0.916288 0.400519 0.000000 0.434315 0.936181 1 13 1.000000 
GunshipSheet.tga
0 -43.564026 203.557327 31.351501 0.000000 0.125792 -0.992057 0.331959 0.860175 1 13 1.000000 
0 -17.028528 242.468262 41.380516 0.000000 0.239076 -0.971001 0.434315 0.936181 1 13 1.000000 
0 17.028528 242.468262 41.380516 0.000000 0.239076 -0.971001 0.565685 0.936181 1 13 1.000000 
GunshipSheet.tga
0 -43.564026 203.557327 31.351501 0.000000 0.125792 -0.992057 0.331959 0.860175 1 13 1.000000 
0 17.028528 242.468262 41.380516 0.000000 0.239076 -0.971001 0.565685 0.936181 1 13 1.000000 
0 43.564026 203.557327 31.351501 0.000000 0.125792 -0.992057 0.668041 0.860175 1 13 1.000000 
GunshipSheet.tga
0 -9.528188 275.140228 49.050285 0.000000 1.000000 0.000000 0.463246 1.000000 1 13 1.000000 
0 -9.528188 275.140228 68.343330 0.000000 1.000000 0.000000 0.463246 1.000000 1 13 1.000000 
0 9.528188 275.140228 68.343330 0.000000 1.000000 0.000000 0.536753 1.000000 1 13 1.000000 
GunshipSheet.tga
0 -9.528188 275.140228 49.050285 0.000000 1.000000 0.000000 0.463246 1.000000 1 13 1.000000 
0 9.528188 275.140228 68.343330 0.000000 1.000000 0.000000 0.536753 1.000000 1 13 1.000000 
0 9.528188 275.140228 49.050285 0.000000 1.000000 0.000000 0.536753 1.000000 1 13 1.000000 
GunshipSheet.tga
0 -21.670860 35.271030 69.358406 0.000000 -0.101757 0.994809 0.416408 0.531457 1 13 1.000000 
0 21.670860 35.271030 69.358406 0.000000 -0.101757 0.994809 0.583592 0.531457 1 13 1.000000 
0 70.315414 74.011612 73.321098 0.000000 -0.050945 0.998701 0.771231 0.607130 1 13 1.000000 
GunshipSheet.tga
0 -21.670860 35.271030 69.358406 0.000000 -0.101757 0.994809 0.416408 0.531457 1 13 1.000000 
0 70.315414 74.011612 73.321098 0.000000 -0.050945 0.998701 0.771231 0.607130 1 13 1.000000 
0 -70.315414 74.011612 73.321098 0.000000 -0.050945 0.998701 0.228769 0.607130 1 13 1.000000 
GunshipSheet.tga
0 -70.315414 74.011612 73.321098 0.000000 -0.050945 0.998701 0.228769 0.607130 1 13 1.000000 
0 70.315414 74.011612 73.321098 0.000000 -0.050945 0.998701 0.771231 0.607130 1 13 1.000000 
0 84.784691 113.531570 73.321106 0.000000 -0.000000 1.000000 0.827044 0.684326 1 13 1.000000 
GunshipSheet.tga
0 -70.315414 74.011612 73.321098 0.000000 -0.050945 0.998701 0.228769 0.607130 1 13 1.000000 
0 84.784691 113.531570 73.321106 0.000000 -0.000000 1.000000 0.827044 0.684326 1 13 1.000000 
0 -84.784691 113.531570 73.321106 0.000000 -0.000000 1.000000 0.172956 0.684326 1 13 1.000000 
GunshipSheet.tga
0 -84.784691 113.531570 73.321106 0.000000 -0.000000 1.000000 0.172956 0.684326 1 13 1.000000 
0 84.784691 113.531570 73.321106 0.000000 -0.000000 1.000000 0.827044 0.684326 1 13 1.000000 
0 81.381615 163.610489 73.321106 0.000000 -0.000000 1.000000 0.813917 0.782146 1 13 1.000000 
GunshipSheet.tga
0 -84.784691 113.531570 73.321106 0.000000 -0.000000 1.000000 0.172956 0.684326 1 13 1.000000 
0 81.381615 163.610489 73.321106 0.000000 -0.000000 1.000000 0.813917 0.782146 1 13 1.000000 
0 -81.381615 163.610489 73.321106 0.000000 -0.000000 1.000000 0.186083 0.782146 1 13 1.000000 
GunshipSheet.tga
0 -81.381615 163.610489 73.321106 0.000000 -0.000000 1.000000 0.186083 0.782146 1 13 1.000000 
0 81.381615 163.610489 73.321106 0.000000 -0.000000 1.000000 0.813917 0.782146 1 13 1.000000 
0 43.564026 203.557327 73.321106 0.000000 0.036174 0.999345 0.668041 0.860175 1 13 1.000000 
GunshipSheet.tga
0 -81.381615 163.610489 73.321106 0.000000 -0.000000 1.000000 0.186083 0.782146 1 13 1.000000 
0 43.564026 203.557327 73.321106 0.000000 0.036174 0.999345 0.668041 0.860175 1 13 1.000000 
0 -43.564026 203.557327 73.321106 0.000000 0.036174 0.999345 0.331959 0.860175 1 13 1.000000 
GunshipSheet.tga
0 -43.564026 203.557327 73.321106 0.000000 0.036174 0.999345 0.331959 0.860175 1 13 1.000000 
0 43.564026 203.557327 73.321106 0.000000 0.036174 0.999345 0.668041 0.860175 1 13 1.000000 
0 17.028528 242.468262 70.500450 0.000000 0.069091 0.997610 0.565685 0.936181 1 13 1.000000 
GunshipSheet.tga
0 -43.564026 203.557327 73.321106 0.000000 0.036174 0.999345 0.331959 0.860175 1 13 1.000000 
0 17.028528 242.468262 70.500450 0.000000 0.069091 0.997610 0.565685 0.936181 1 13 1.000000 
0 -17.028528 242.468262 70.500450 0.000000 0.069091 0.997610 0.434315 0.936181 1 13 1.000000 
GunshipSheet.tga
0 27.994150 35.271034 31.829531 0.344425 -0.938414 0.027395 0.607983 0.531457 1 13 1.000000 
0 70.315414 74.011612 31.351496 0.820101 -0.571600 0.026596 0.771231 0.607130 1 13 1.000000 
0 70.315414 74.011612 73.321098 0.820101 -0.571600 0.026596 0.771231 0.607130 1 13 1.000000 
GunshipSheet.tga
0 27.994150 35.271034 31.829531 0.344425 -0.938414 0.027395 0.607983 0.531457 1 13 1.000000 
0 70.315414 74.011612 73.321098 0.820101 -0.571600 0.026596 0.771231 0.607130 1 13 1.000000 
0 21.670860 35.271030 69.358406 0.344425 -0.938414 0.027395 0.583592 0.531457 1 13 1.000000 
GunshipSheet.tga
0 70.315414 74.011612 31.351496 0.820101 -0.571600 0.026596 0.771231 0.607130 1 13 1.000000 
0 84.784691 113.531570 31.351498 0.989997 -0.141087 -0.000000 0.827044 0.684326 1 13 1.000000 
0 84.784691 113.531570 73.321106 0.989997 -0.141087 -0.000000 0.827044 0.684326 1 13 1.000000 
GunshipSheet.tga
0 70.315414 74.011612 31.351496 0.820101 -0.571600 0.026596 0.771231 0.607130 1 13 1.000000 
0 84.784691 113.531570 73.321106 0.989997 -0.141087 -0.000000 0.827044 0.684326 1 13 1.000000 
0 70.315414 74.011612 73.321098 0.820101 -0.571600 0.026596 0.771231 0.607130 1 13 1.000000 
GunshipSheet.tga
0 84.784691 113.531570 31.351498 0.989997 -0.141087 -0.000000 0.827044 0.684326 1 13 1.000000 
0 81.381615 163.610489 31.351500 0.915946 0.401301 0.000000 0.813917 0.782146 1 13 1.000000 
0 81.381615 163.610489 73.321106 0.915946 0.401301 0.000000 0.813917 0.782146 1 13 1.000000 
GunshipSheet.tga
0 84.784691 113.531570 31.351498 0.989997 -0.141087 -0.000000 0.827044 0.684326 1 13 1.000000 
0 81.381615 163.610489 73.321106 0.915946 0.401301 0.000000 0.813917 0.782146 1 13 1.000000 
0 84.784691 113.531570 73.321106 0.989997 -0.141087 -0.000000 0.827044 0.684326 1 13 1.000000 
GunshipSheet.tga
0 81.381615 163.610489 31.351500 0.915946 0.401301 0.000000 0.813917 0.782146 1 13 1.000000 
0 43.564026 203.557327 31.351501 0.778660 0.627446 0.000000 0.668041 0.860175 1 13 1.000000 
0 43.564026 203.557327 73.321106 0.778660 0.627446 0.000000 0.668041 0.860175 1 13 1.000000 
GunshipSheet.tga
0 81.381615 163.610489 31.351500 0.915946 0.401301 0.000000 0.813917 0.782146 1 13 1.000000 
0 43.564026 203.557327 73.321106 0.778660 0.627446 0.000000 0.668041 0.860175 1 13 1.000000 
0 81.381615 163.610489 73.321106 0.915946 0.401301 0.000000 0.813917 0.782146 1 13 1.000000 
GunshipSheet.tga
0 43.564026 203.557327 31.351501 0.778660 0.627446 0.000000 0.668041 0.860175 1 13 1.000000 
0 17.028528 242.468262 41.380516 0.916288 0.400519 0.000000 0.565685 0.936181 1 13 1.000000 
0 17.028528 242.468262 70.500450 0.916288 0.400519 0.000000 0.565685 0.936181 1 13 1.000000 
GunshipSheet.tga
0 43.564026 203.557327 31.351501 0.778660 0.627446 0.000000 0.668041 0.860175 1 13 1.000000 
0 17.028528 242.468262 70.500450 0.916288 0.400519 0.000000 0.565685 0.936181 1 13 1.000000 
0 43.564026 203.557327 73.321106 0.778660 0.627446 0.000000 0.668041 0.860175 1 13 1.000000 
GunshipSheet.tga
0 -9.528188 275.140228 68.343330 -0.974648 0.223745 0.000000 0.463246 1.000000 1 13 1.000000 
0 -9.528188 275.140228 49.050285 -0.974648 0.223745 0.000000 0.463246 1.000000 1 13 1.000000 
0 -17.028528 242.468262 41.380516 -0.916288 0.400519 0.000000 0.434315 0.936181 1 13 1.000000 
GunshipSheet.tga
0 -9.528188 275.140228 68.343330 -0.974648 0.223745 0.000000 0.463246 1.000000 1 13 1.000000 
0 -17.028528 242.468262 41.380516 -0.916288 0.400519 0.000000 0.434315 0.936181 1 13 1.000000 
0 -17.028528 242.468262 70.500450 -0.916288 0.400519 0.000000 0.434315 0.936181 1 13 1.000000 
GunshipSheet.tga
0 -9.528188 275.140228 49.050285 0.000000 0.228538 -0.973535 0.463246 1.000000 1 13 1.000000 
0 9.528188 275.140228 49.050285 0.000000 0.228538 -0.973535 0.536753 1.000000 1 13 1.000000 
0 17.028528 242.468262 41.380516 0.000000 0.239076 -0.971001 0.565685 0.936181 1 13 1.000000 
GunshipSheet.tga
0 -9.528188 275.140228 49.050285 0.000000 0.228538 -0.973535 0.463246 1.000000 1 13 1.000000 
0 17.028528 242.468262 41.380516 0.000000 0.239076 -0.971001 0.565685 0.936181 1 13 1.000000 
0 -17.028528 242.468262 41.380516 0.000000 0.239076 -0.971001 0.434315 0.936181 1 13 1.000000 
GunshipSheet.tga
0 9.528188 275.140228 68.343330 0.000000 0.065880 0.997828 0.536753 1.000000 1 13 1.000000 
0 -9.528188 275.140228 68.343330 0.000000 0.065880 0.997828 0.463246 1.000000 1 13 1.000000 
0 -17.028528 242.468262 70.500450 0.000000 0.069091 0.997610 0.434315 0.936181 1 13 1.000000 
GunshipSheet.tga
0 9.528188 275.140228 68.343330 0.000000 0.065880 0.997828 0.536753 1.000000 1 13 1.000000 
0 -17.028528 242.468262 70.500450 0.000000 0.069091 0.997610 0.434315 0.936181 1 13 1.000000 
0 17.028528 242.468262 70.500450 0.000000 0.069091 0.997610 0.565685 0.936181 1 13 1.000000 
GunshipSheet.tga
0 9.528188 275.140228 49.050285 0.974648 0.223745 0.000000 0.536753 1.000000 1 13 1.000000 
0 9.528188 275.140228 68.343330 0.974648 0.223745 0.000000 0.536753 1.000000 1 13 1.000000 
0 17.028528 242.468262 70.500450 0.916288 0.400519 0.000000 0.565685 0.936181 1 13 1.000000 
GunshipSheet.tga
0 9.528188 275.140228 49.050285 0.974648 0.223745 0.000000 0.536753 1.000000 1 13 1.000000 
0 17.028528 242.468262 70.500450 0.916288 0.400519 0.000000 0.565685 0.936181 1 13 1.000000 
0 17.028528 242.468262 41.380516 0.916288 0.400519 0.000000 0.565685 0.936181 1 13 1.000000 
GunshipSheet.tga
0 46.372246 40.514065 -3.922911 -0.476536 0.009679 -0.879102 0.678874 0.541699 1 12 1.000000 
0 42.734741 46.810352 -1.881797 -0.476536 0.009679 -0.879102 0.664843 0.553997 1 12 1.000000 
0 69.355896 66.796722 -16.092306 -0.467594 0.016366 -0.883792 0.767530 0.593037 1 12 1.000000 
GunshipSheet.tga
0 46.372246 40.514065 -3.922911 -0.476536 0.009679 -0.879102 0.678874 0.541699 1 12 1.000000 
0 69.355896 66.796722 -16.092306 -0.467594 0.016366 -0.883792 0.767530 0.593037 1 12 1.000000 
0 74.433060 58.008492 -18.941256 -0.467594 0.016366 -0.883792 0.787114 0.575871 1 12 1.000000 
GunshipSheet.tga
0 46.372246 40.514065 -3.922911 0.419459 -0.876284 -0.237025 0.678874 0.541699 1 12 1.000000 
0 74.433060 58.008492 -18.941256 0.483360 -0.832360 -0.271181 0.787114 0.575871 1 12 1.000000 
0 77.046860 57.955399 -14.119381 0.483360 -0.832360 -0.271181 0.797196 0.575767 1 12 1.000000 
GunshipSheet.tga
0 46.372246 40.514065 -3.922911 0.419459 -0.876284 -0.237025 0.678874 0.541699 1 12 1.000000 
0 77.046860 57.955399 -14.119381 0.483360 -0.832360 -0.271181 0.797196 0.575767 1 12 1.000000 
0 48.986046 40.460972 0.898962 0.419459 -0.876284 -0.237025 0.688956 0.541595 1 12 1.000000 
GunshipSheet.tga
0 46.372246 40.514065 -3.922911 -0.735492 -0.552186 0.392610 0.678874 0.541699 1 12 1.000000 
0 48.986046 40.460972 0.898962 -0.735492 -0.552186 0.392610 0.688956 0.541595 1 12 1.000000 
0 45.348537 46.757259 2.940076 -0.735492 -0.552186 0.392610 0.674925 0.553894 1 12 1.000000 
GunshipSheet.tga
0 46.372246 40.514065 -3.922911 -0.735492 -0.552186 0.392610 0.678874 0.541699 1 12 1.000000 
0 45.348537 46.757259 2.940076 -0.735492 -0.552186 0.392610 0.674925 0.553894 1 12 1.000000 
0 42.734741 46.810352 -1.881797 -0.735492 -0.552186 0.392610 0.664843 0.553997 1 12 1.000000 
GunshipSheet.tga
0 113.472862 92.606216 -38.196598 0.735492 0.552186 -0.392610 0.937704 0.643452 1 12 1.000000 
0 111.614761 95.822472 -37.153961 0.735492 0.552186 -0.392610 0.930537 0.649734 1 12 1.000000 
0 112.949936 95.795357 -34.690861 0.735492 0.552186 -0.392610 0.935687 0.649681 1 12 1.000000 
GunshipSheet.tga
0 113.472862 92.606216 -38.196598 0.735492 0.552186 -0.392610 0.937704 0.643452 1 12 1.000000 
0 112.949936 95.795357 -34.690861 0.735492 0.552186 -0.392610 0.935687 0.649681 1 12 1.000000 
0 114.808044 92.579102 -35.733498 0.735492 0.552186 -0.392610 0.942854 0.643399 1 12 1.000000 
GunshipSheet.tga
0 42.734741 46.810352 -1.881797 -0.481627 0.833665 0.270255 0.664843 0.553997 1 12 1.000000 
0 45.348537 46.757259 2.940076 -0.481627 0.833665 0.270255 0.674925 0.553894 1 12 1.000000 
0 71.969696 66.743629 -11.270435 -0.469298 0.842755 0.263672 0.777612 0.592933 1 12 1.000000 
GunshipSheet.tga
0 42.734741 46.810352 -1.881797 -0.481627 0.833665 0.270255 0.664843 0.553997 1 12 1.000000 
0 71.969696 66.743629 -11.270435 -0.469298 0.842755 0.263672 0.777612 0.592933 1 12 1.000000 
0 69.355896 66.796722 -16.092306 -0.469298 0.842755 0.263672 0.767530 0.593037 1 12 1.000000 
GunshipSheet.tga
0 48.986046 40.460972 0.898962 0.476536 -0.009679 0.879102 0.688956 0.541595 1 12 1.000000 
0 77.046860 57.955399 -14.119381 0.485408 -0.002991 0.874283 0.797196 0.575767 1 12 1.000000 
0 71.969696 66.743629 -11.270435 0.485408 -0.002991 0.874283 0.777612 0.592933 1 12 1.000000 
GunshipSheet.tga
0 48.986046 40.460972 0.898962 0.476536 -0.009679 0.879102 0.688956 0.541595 1 12 1.000000 
0 71.969696 66.743629 -11.270435 0.485408 -0.002991 0.874283 0.777612 0.592933 1 12 1.000000 
0 45.348537 46.757259 2.940076 0.476536 -0.009679 0.879102 0.674925 0.553894 1 12 1.000000 
GunshipSheet.tga
0 111.614761 95.822472 -37.153961 -0.458583 0.023050 -0.888352 0.930537 0.649734 1 12 1.000000 
0 113.472862 92.606216 -38.196598 -0.458583 0.023050 -0.888352 0.937704 0.643452 1 12 1.000000 
0 74.433060 58.008492 -18.941256 -0.467594 0.016366 -0.883792 0.787114 0.575871 1 12 1.000000 
GunshipSheet.tga
0 111.614761 95.822472 -37.153961 -0.458583 0.023050 -0.888352 0.930537 0.649734 1 12 1.000000 
0 74.433060 58.008492 -18.941256 -0.467594 0.016366 -0.883792 0.787114 0.575871 1 12 1.000000 
0 69.355896 66.796722 -16.092306 -0.467594 0.016366 -0.883792 0.767530 0.593037 1 12 1.000000 
GunshipSheet.tga
0 113.472862 92.606216 -38.196598 0.543792 -0.782461 -0.303389 0.937704 0.643452 1 12 1.000000 
0 114.808044 92.579102 -35.733498 0.543792 -0.782461 -0.303389 0.942854 0.643399 1 12 1.000000 
0 77.046860 57.955399 -14.119381 0.483360 -0.832360 -0.271181 0.797196 0.575767 1 12 1.000000 
GunshipSheet.tga
0 113.472862 92.606216 -38.196598 0.543792 -0.782461 -0.303389 0.937704 0.643452 1 12 1.000000 
0 77.046860 57.955399 -14.119381 0.483360 -0.832360 -0.271181 0.797196 0.575767 1 12 1.000000 
0 74.433060 58.008492 -18.941256 0.483360 -0.832360 -0.271181 0.787114 0.575871 1 12 1.000000 
GunshipSheet.tga
0 112.949936 95.795357 -34.690861 -0.456839 0.851611 0.257016 0.935687 0.649681 1 12 1.000000 
0 111.614761 95.822472 -37.153961 -0.456839 0.851611 0.257016 0.930537 0.649734 1 12 1.000000 
0 69.355896 66.796722 -16.092306 -0.469298 0.842755 0.263672 0.767530 0.593037 1 12 1.000000 
GunshipSheet.tga
0 112.949936 95.795357 -34.690861 -0.456839 0.851611 0.257016 0.935687 0.649681 1 12 1.000000 
0 69.355896 66.796722 -16.092306 -0.469298 0.842755 0.263672 0.767530 0.593037 1 12 1.000000 
0 71.969696 66.743629 -11.270435 -0.469298 0.842755 0.263672 0.777612 0.592933 1 12 1.000000 
GunshipSheet.tga
0 114.808044 92.579102 -35.733498 0.494209 0.003697 0.869335 0.942854 0.643399 1 12 1.000000 
0 112.949936 95.795357 -34.690861 0.494209 0.003697 0.869335 0.935687 0.649681 1 12 1.000000 
0 71.969696 66.743629 -11.270435 0.485408 -0.002991 0.874283 0.777612 0.592933 1 12 1.000000 
GunshipSheet.tga
0 114.808044 92.579102 -35.733498 0.494209 0.003697 0.869335 0.942854 0.643399 1 12 1.000000 
0 71.969696 66.743629 -11.270435 0.485408 -0.002991 0.874283 0.777612 0.592933 1 12 1.000000 
0 77.046860 57.955399 -14.119381 0.485408 -0.002991 0.874283 0.797196 0.575767 1 12 1.000000 
GunshipSheet.tga
0 129.622864 -79.073372 -52.791283 0.323196 0.068772 0.943830 1.000000 0.308105 1 5 1.000000 
0 127.248589 -69.957191 -52.644138 0.323196 0.068772 0.943830 0.990842 0.325912 1 5 1.000000 
0 79.041512 -67.059532 -36.346058 0.191053 0.033922 0.980993 0.804890 0.331572 1 5 1.000000 
GunshipSheet.tga
0 129.622864 -79.073372 -52.791283 0.323196 0.068772 0.943830 1.000000 0.308105 1 5 1.000000 
0 79.041512 -67.059532 -36.346058 0.191053 0.033922 0.980993 0.804890 0.331572 1 5 1.000000 
0 86.278152 -94.991859 -36.790447 0.191053 0.033922 0.980993 0.832805 0.277011 1 5 1.000000 
GunshipSheet.tga
0 86.278152 -94.991859 -36.790447 0.270012 -0.962562 -0.023818 0.832805 0.277011 1 5 1.000000 
0 84.315063 -95.392120 -43.668072 0.270012 -0.962562 -0.023818 0.825232 0.276229 1 5 1.000000 
0 128.854965 -79.229950 -55.481590 0.331501 -0.942617 -0.039762 0.997038 0.307799 1 5 1.000000 
GunshipSheet.tga
0 86.278152 -94.991859 -36.790447 0.270012 -0.962562 -0.023818 0.832805 0.277011 1 5 1.000000 
0 128.854965 -79.229950 -55.481590 0.331501 -0.942617 -0.039762 0.997038 0.307799 1 5 1.000000 
0 129.622864 -79.073372 -52.791283 0.331501 -0.942617 -0.039762 1.000000 0.308105 1 5 1.000000 
GunshipSheet.tga
0 127.248589 -69.957191 -52.644138 0.036763 0.996973 -0.068515 0.990842 0.325912 1 5 1.000000 
0 126.480690 -70.113762 -55.334450 0.036763 0.996973 -0.068515 0.987880 0.325606 1 5 1.000000 
0 77.078430 -67.459801 -43.223682 -0.174078 0.984607 -0.015698 0.797318 0.330790 1 5 1.000000 
GunshipSheet.tga
0 127.248589 -69.957191 -52.644138 0.036763 0.996973 -0.068515 0.990842 0.325912 1 5 1.000000 
0 77.078430 -67.459801 -43.223682 -0.174078 0.984607 -0.015698 0.797318 0.330790 1 5 1.000000 
0 79.041512 -67.059532 -36.346058 -0.174078 0.984607 -0.015698 0.804890 0.331572 1 5 1.000000 
GunshipSheet.tga
0 84.315063 -95.392120 -43.668072 -0.156619 -0.024884 -0.987346 0.825232 0.276229 1 5 1.000000 
0 77.078430 -67.459801 -43.223682 -0.156619 -0.024884 -0.987346 0.797318 0.330790 1 5 1.000000 
0 126.480690 -70.113762 -55.334450 -0.240193 -0.046829 -0.969595 0.987880 0.325606 1 5 1.000000 
GunshipSheet.tga
0 84.315063 -95.392120 -43.668072 -0.156619 -0.024884 -0.987346 0.825232 0.276229 1 5 1.000000 
0 126.480690 -70.113762 -55.334450 -0.240193 -0.046829 -0.969595 0.987880 0.325606 1 5 1.000000 
0 128.854965 -79.229950 -55.481590 -0.240193 -0.046829 -0.969595 0.997038 0.307799 1 5 1.000000 
GunshipSheet.tga
0 126.480690 -70.113762 -55.334450 0.928113 0.246231 -0.279242 0.987880 0.325606 1 5 1.000000 
0 127.248589 -69.957191 -52.644138 0.928113 0.246231 -0.279242 0.990842 0.325912 1 5 1.000000 
0 129.622864 -79.073372 -52.791283 0.928113 0.246231 -0.279242 1.000000 0.308105 1 5 1.000000 
GunshipSheet.tga
0 126.480690 -70.113762 -55.334450 0.928113 0.246231 -0.279242 0.987880 0.325606 1 5 1.000000 
0 129.622864 -79.073372 -52.791283 0.928113 0.246231 -0.279242 1.000000 0.308105 1 5 1.000000 
0 128.854965 -79.229950 -55.481590 0.928113 0.246231 -0.279242 0.997038 0.307799 1 5 1.000000 
GunshipSheet.tga
0 -86.278152 -94.991859 -36.790447 -0.191053 0.033922 0.980993 0.167195 0.277011 1 19 1.000000 
0 -79.041512 -67.059532 -36.346058 -0.191053 0.033922 0.980993 0.195110 0.331572 1 19 1.000000 
0 -127.248589 -69.957191 -52.644138 -0.323196 0.068772 0.943830 0.009158 0.325912 1 19 1.000000 
GunshipSheet.tga
0 -86.278152 -94.991859 -36.790447 -0.191053 0.033922 0.980993 0.167195 0.277011 1 19 1.000000 
0 -127.248589 -69.957191 -52.644138 -0.323196 0.068772 0.943830 0.009158 0.325912 1 19 1.000000 
0 -129.622864 -79.073372 -52.791283 -0.323196 0.068772 0.943830 0.000000 0.308105 1 19 1.000000 
GunshipSheet.tga
0 -129.622864 -79.073372 -52.791283 -0.331501 -0.942617 -0.039762 0.000000 0.308105 1 19 1.000000 
0 -128.854965 -79.229950 -55.481590 -0.331501 -0.942617 -0.039762 0.002962 0.307799 1 19 1.000000 
0 -84.315063 -95.392120 -43.668072 -0.270012 -0.962562 -0.023818 0.174768 0.276229 1 19 1.000000 
GunshipSheet.tga
0 -129.622864 -79.073372 -52.791283 -0.331501 -0.942617 -0.039762 0.000000 0.308105 1 19 1.000000 
0 -84.315063 -95.392120 -43.668072 -0.270012 -0.962562 -0.023818 0.174768 0.276229 1 19 1.000000 
0 -86.278152 -94.991859 -36.790447 -0.270012 -0.962562 -0.023818 0.167195 0.277011 1 19 1.000000 
GunshipSheet.tga
0 -79.041512 -67.059532 -36.346058 0.174078 0.984607 -0.015698 0.195110 0.331572 1 19 1.000000 
0 -77.078430 -67.459801 -43.223682 0.174078 0.984607 -0.015698 0.202682 0.330790 1 19 1.000000 
0 -126.480690 -70.113762 -55.334450 -0.036763 0.996973 -0.068515 0.012120 0.325606 1 19 1.000000 
GunshipSheet.tga
0 -79.041512 -67.059532 -36.346058 0.174078 0.984607 -0.015698 0.195110 0.331572 1 19 1.000000 
0 -126.480690 -70.113762 -55.334450 -0.036763 0.996973 -0.068515 0.012120 0.325606 1 19 1.000000 
0 -127.248589 -69.957191 -52.644138 -0.036763 0.996973 -0.068515 0.009158 0.325912 1 19 1.000000 
GunshipSheet.tga
0 -128.854965 -79.229950 -55.481590 0.240193 -0.046829 -0.969595 0.002962 0.307799 1 19 1.000000 
0 -126.480690 -70.113762 -55.334450 0.240193 -0.046829 -0.969595 0.012120 0.325606 1 19 1.000000 
0 -77.078430 -67.459801 -43.223682 0.156619 -0.024884 -0.987346 0.202682 0.330790 1 19 1.000000 
GunshipSheet.tga
0 -128.854965 -79.229950 -55.481590 0.240193 -0.046829 -0.969595 0.002962 0.307799 1 19 1.000000 
0 -77.078430 -67.459801 -43.223682 0.156619 -0.024884 -0.987346 0.202682 0.330790 1 19 1.000000 
0 -84.315063 -95.392120 -43.668072 0.156619 -0.024884 -0.987346 0.174768 0.276229 1 19 1.000000 
GunshipSheet.tga
0 -128.854965 -79.229950 -55.481590 -0.928113 0.246231 -0.279242 0.002962 0.307799 1 19 1.000000 
0 -129.622864 -79.073372 -52.791283 -0.928113 0.246231 -0.279242 0.000000 0.308105 1 19 1.000000 
0 -127.248589 -69.957191 -52.644138 -0.928113 0.246231 -0.279242 0.009158 0.325912 1 19 1.000000 
GunshipSheet.tga
0 -128.854965 -79.229950 -55.481590 -0.928113 0.246231 -0.279242 0.002962 0.307799 1 19 1.000000 
0 -127.248589 -69.957191 -52.644138 -0.928113 0.246231 -0.279242 0.009158 0.325912 1 19 1.000000 
0 -126.480690 -70.113762 -55.334450 -0.928113 0.246231 -0.279242 0.012120 0.325606 1 19 1.000000 
end
