// Created by Crowbar 0.51.0.0
version 1
nodes
  0 "ValveBiped.Bip01_Pelvis" -1
  1 "ValveBiped.Bip01_L_Thigh" 0
  2 "ValveBiped.Bip01_L_Calf" 1
  3 "ValveBiped.Bip01_L_Foot" 2
  4 "ValveBiped.Bip01_L_Toe0" 3
  5 "ValveBiped.Bip01_R_Thigh" 0
  6 "ValveBiped.Bip01_R_Calf" 5
  7 "ValveBiped.Bip01_R_Foot" 6
  8 "ValveBiped.Bip01_R_Toe0" 7
  9 "ValveBiped.Bip01_Spine" 0
  10 "ValveBiped.Bip01_Spine1" 9
  11 "ValveBiped.Bip01_Spine2" 10
  12 "ValveBiped.Bip01_Spine4" 11
  13 "ValveBiped.Bip01_Neck1" 12
  14 "ValveBiped.Bip01_Head1" 13
  15 "ValveBiped.Bip01_L_Clavicle" 12
  16 "ValveBiped.Bip01_L_UpperArm" 15
  17 "ValveBiped.Bip01_L_Forearm" 16
  18 "ValveBiped.Bip01_L_Hand" 17
  19 "ValveBiped.Bip01_L_Finger4" 18
  20 "ValveBiped.Bip01_L_Finger41" 19
  21 "ValveBiped.Bip01_L_Finger42" 20
  22 "ValveBiped.Bip01_L_Finger3" 18
  23 "ValveBiped.Bip01_L_Finger31" 22
  24 "ValveBiped.Bip01_L_Finger32" 23
  25 "ValveBiped.Bip01_L_Finger2" 18
  26 "ValveBiped.Bip01_L_Finger21" 25
  27 "ValveBiped.Bip01_L_Finger22" 26
  28 "ValveBiped.Bip01_L_Finger1" 18
  29 "ValveBiped.Bip01_L_Finger11" 28
  30 "ValveBiped.Bip01_L_Finger12" 29
  31 "ValveBiped.Bip01_L_Finger0" 18
  32 "ValveBiped.Bip01_L_Finger01" 31
  33 "ValveBiped.Bip01_L_Finger02" 32
  34 "ValveBiped.Bip01_R_Clavicle" 12
  35 "ValveBiped.Bip01_R_UpperArm" 34
  36 "ValveBiped.Bip01_R_Forearm" 35
  37 "ValveBiped.Bip01_R_Hand" 36
  38 "ValveBiped.Bip01_R_Finger4" 37
  39 "ValveBiped.Bip01_R_Finger41" 38
  40 "ValveBiped.Bip01_R_Finger42" 39
  41 "ValveBiped.Bip01_R_Finger3" 37
  42 "ValveBiped.Bip01_R_Finger31" 41
  43 "ValveBiped.Bip01_R_Finger32" 42
  44 "ValveBiped.Bip01_R_Finger2" 37
  45 "ValveBiped.Bip01_R_Finger21" 44
  46 "ValveBiped.Bip01_R_Finger22" 45
  47 "ValveBiped.Bip01_R_Finger1" 37
  48 "ValveBiped.Bip01_R_Finger11" 47
  49 "ValveBiped.Bip01_R_Finger12" 48
  50 "ValveBiped.Bip01_R_Finger0" 37
  51 "ValveBiped.Bip01_R_Finger01" 50
  52 "ValveBiped.Bip01_R_Finger02" 51
end
skeleton
  time 0
    0 0.000000 0.000000 0.000000 0.000000 0.000000 -1.570796   # pos: pos   rot: rot
    1 0.000000 0.000000 0.000000 0.000000 0.000000 0.000000   # pos: pos   rot: rot
    2 0.000000 0.000000 0.000000 0.000000 0.000000 0.000000   # pos: pos   rot: rot
    3 0.000000 0.000000 0.000000 0.000000 0.000000 0.000000   # pos: pos   rot: rot
    4 0.000000 0.000000 0.000000 0.000000 0.000000 0.000000   # pos: pos   rot: rot
    5 0.000000 0.000000 0.000000 0.000000 0.000000 0.000000   # pos: pos   rot: rot
    6 0.000000 0.000000 0.000000 0.000000 0.000000 0.000000   # pos: pos   rot: rot
    7 0.000000 0.000000 0.000000 0.000000 0.000000 0.000000   # pos: pos   rot: rot
    8 0.000000 0.000000 0.000000 0.000000 0.000000 0.000000   # pos: pos   rot: rot
    9 0.000000 0.000000 0.000000 0.000000 0.000000 0.000000   # pos: pos   rot: rot
    10 0.000000 0.000000 0.000000 0.000000 0.000000 0.000000   # pos: pos   rot: rot
    11 0.000000 0.000000 0.000000 0.000000 0.000000 0.000000   # pos: pos   rot: rot
    12 0.000000 0.000000 0.000000 0.000000 0.000000 0.000000   # pos: pos   rot: rot
    13 0.000000 0.000000 0.000000 0.000000 0.000000 0.000000   # pos: pos   rot: rot
    14 0.000000 0.000000 0.000000 0.000000 0.000000 0.000000   # pos: pos   rot: rot
    15 0.000000 0.000000 0.000000 0.000000 0.000000 0.000000   # pos: pos   rot: rot
    16 0.000000 0.000000 0.000000 0.000000 0.000000 0.000000   # pos: pos   rot: rot
    17 0.000000 0.000000 0.000000 0.000000 0.000000 0.000000   # pos: pos   rot: rot
    18 0.000000 0.000000 0.000000 0.000000 0.000000 0.000000   # pos: pos   rot: rot
    19 0.000000 0.000000 0.000000 0.000000 0.000000 0.000000   # pos: pos   rot: rot
    20 0.000000 0.000000 0.000000 0.000000 0.000000 0.000000   # pos: pos   rot: rot
    21 0.000000 0.000000 0.000000 0.000000 0.000000 0.000000   # pos: pos   rot: rot
    22 0.000000 0.000000 0.000000 0.000000 0.000000 0.000000   # pos: pos   rot: rot
    23 0.000000 0.000000 0.000000 0.000000 0.000000 0.000000   # pos: pos   rot: rot
    24 0.000000 0.000000 0.000000 0.000000 0.000000 0.000000   # pos: pos   rot: rot
    25 0.000000 0.000000 0.000000 0.000000 0.000000 0.000000   # pos: pos   rot: rot
    26 0.000000 0.000000 0.000000 0.000000 0.000000 0.000000   # pos: pos   rot: rot
    27 0.000000 0.000000 0.000000 0.000000 0.000000 0.000000   # pos: pos   rot: rot
    28 0.000000 0.000000 0.000000 0.000000 0.000000 0.000000   # pos: pos   rot: rot
    29 0.000000 0.000000 0.000000 0.000000 0.000000 0.000000   # pos: pos   rot: rot
    30 0.000000 0.000000 0.000000 0.000000 0.000000 0.000000   # pos: pos   rot: rot
    31 0.000000 0.000000 0.000000 0.000000 0.000000 0.000000   # pos: pos   rot: rot
    32 0.000000 0.000000 0.000000 0.000000 0.000000 0.000000   # pos: pos   rot: rot
    33 0.000000 0.000000 0.000000 0.000000 0.000000 0.000000   # pos: pos   rot: rot
    34 0.000000 0.000000 0.000000 0.000000 0.000000 0.000000   # pos: pos   rot: rot
    35 0.000000 0.000000 0.000000 0.000000 0.000000 0.000000   # pos: pos   rot: rot
    36 0.000000 0.000000 0.000000 0.000000 0.000000 0.000000   # pos: pos   rot: rot
    37 0.000000 0.000000 0.000000 0.000000 0.000000 0.000000   # pos: pos   rot: rot
    38 0.000000 0.000000 0.000000 0.000000 0.000000 0.000000   # pos: pos   rot: rot
    39 0.000000 0.000000 0.000000 0.000000 0.000000 0.000000   # pos: pos   rot: rot
    40 0.000000 0.000000 0.000000 0.000000 0.000000 0.000000   # pos: pos   rot: rot
    41 0.000000 0.000000 0.000000 0.000000 0.000000 0.000000   # pos: pos   rot: rot
    42 0.000000 0.000000 0.000000 0.000000 0.000000 0.000000   # pos: pos   rot: rot
    43 0.000000 0.000000 0.000000 0.000000 0.000000 0.000000   # pos: pos   rot: rot
    44 0.000000 0.000000 0.000000 0.000000 0.000000 0.000000   # pos: pos   rot: rot
    45 0.000000 0.000000 0.000000 0.000000 0.000000 0.000000   # pos: pos   rot: rot
    46 0.000000 0.000000 0.000000 0.000000 0.000000 0.000000   # pos: pos   rot: rot
    47 0.000000 0.000000 0.000000 0.000000 0.000000 0.000000   # pos: pos   rot: rot
    48 0.000000 0.000000 0.000000 0.000000 0.000000 0.000000   # pos: pos   rot: rot
    49 0.000000 0.000000 0.000000 0.000000 0.000000 0.000000   # pos: pos   rot: rot
    50 0.000000 0.000000 0.000000 0.000000 0.000000 0.000000   # pos: pos   rot: rot
    51 0.000000 0.000000 0.000000 0.000000 0.000000 0.000000   # pos: pos   rot: rot
    52 0.000000 0.000000 0.000000 0.000000 0.000000 0.000000   # pos: pos   rot: rot
end
