version 1
nodes
  0 "ValveBiped.Bip01_Pelvis"  -1
  1 "ValveBiped.Bip01_L_Thigh"   0
  2 "ValveBiped.Bip01_L_Calf"   1
  3 "ValveBiped.Bip01_L_Foot"   2
  4 "ValveBiped.Bip01_L_Toe0"   3
  5 "ValveBiped.Bip01_R_Thigh"   0
  6 "ValveBiped.Bip01_R_Calf"   5
  7 "ValveBiped.Bip01_R_Foot"   6
  8 "ValveBiped.Bip01_R_Toe0"   7
  9 "ValveBiped.Bip01_Spine"   0
 10 "ValveBiped.Bip01_Spine1"   9
 11 "ValveBiped.Bip01_Spine2"  10
 12 "ValveBiped.Bip01_Spine4"  11
 13 "ValveBiped.Bip01_Neck1"  12
 14 "ValveBiped.Bip01_Head1"  13
 15 "ValveBiped.Bip01_L_Clavicle"  12
 16 "ValveBiped.Bip01_L_UpperArm"  15
 17 "ValveBiped.Bip01_L_Forearm"  16
 18 "ValveBiped.Bip01_L_Hand"  17
 19 "ValveBiped.Bip01_L_Finger4"  18
 20 "ValveBiped.Bip01_L_Finger41"  19
 21 "ValveBiped.Bip01_L_Finger42"  20
 22 "ValveBiped.Bip01_L_Finger3"  18
 23 "ValveBiped.Bip01_L_Finger31"  22
 24 "ValveBiped.Bip01_L_Finger32"  23
 25 "ValveBiped.Bip01_L_Finger2"  18
 26 "ValveBiped.Bip01_L_Finger21"  25
 27 "ValveBiped.Bip01_L_Finger22"  26
 28 "ValveBiped.Bip01_L_Finger1"  18
 29 "ValveBiped.Bip01_L_Finger11"  28
 30 "ValveBiped.Bip01_L_Finger12"  29
 31 "ValveBiped.Bip01_L_Finger0"  18
 32 "ValveBiped.Bip01_L_Finger01"  31
 33 "ValveBiped.Bip01_L_Finger02"  32
 34 "ValveBiped.Bip01_R_Clavicle"  12
 35 "ValveBiped.Bip01_R_UpperArm"  34
 36 "ValveBiped.Bip01_R_Forearm"  35
 37 "ValveBiped.Bip01_R_Hand"  36
 38 "ValveBiped.Bip01_R_Finger4"  37
 39 "ValveBiped.Bip01_R_Finger41"  38
 40 "ValveBiped.Bip01_R_Finger42"  39
 41 "ValveBiped.Bip01_R_Finger3"  37
 42 "ValveBiped.Bip01_R_Finger31"  41
 43 "ValveBiped.Bip01_R_Finger32"  42
 44 "ValveBiped.Bip01_R_Finger2"  37
 45 "ValveBiped.Bip01_R_Finger21"  44
 46 "ValveBiped.Bip01_R_Finger22"  45
 47 "ValveBiped.Bip01_R_Finger1"  37
 48 "ValveBiped.Bip01_R_Finger11"  47
 49 "ValveBiped.Bip01_R_Finger12"  48
 50 "ValveBiped.Bip01_R_Finger0"  37
 51 "ValveBiped.Bip01_R_Finger01"  50
 52 "ValveBiped.Bip01_R_Finger02"  51
end
skeleton
time 0
  0 -0.002344 -1.053352 35.035564 1.806460 0.155716 -0.132778
  1 3.890448 0.000008 0.000000 -1.925853 -1.040091 -0.907000
  2 17.848183 0.000000 -0.000001 -0.000000 -0.000000 2.229944
  3 16.525251 0.000002 -0.000002 -0.045165 0.241543 -1.179558
  4 6.879455 0.000016 -0.000002 -0.003248 -0.002795 -1.107942
  5 -3.890447 0.000004 0.000000 -1.572823 -0.183471 -1.412096
  6 17.848175 -0.000009 -0.000004 0.000000 0.000000 0.642877
  7 16.525261 0.000002 -0.000001 -0.072224 -0.086078 -1.526212
  8 6.879457 0.000008 -0.000001 -0.079859 -0.003035 -0.733628
  9 0.000001 3.345131 -2.981902 1.487054 -0.157728 1.599930
 10 3.998806 0.000008 0.000000 0.063267 0.060930 0.220011
 11 3.520302 -0.000008 -0.000000 0.068885 0.054494 0.427786
 12 8.923094 -0.000004 -0.000003 -0.001678 0.025815 0.367621
 13 3.306366 0.000000 0.000001 3.141590 0.000000 0.697011
 14 3.601517 0.000000 0.000000 -0.394165 -0.176452 0.536231
 15 2.056793 0.981239 1.937662 -2.904551 -1.178660 1.176699
 16 6.028143 -0.000002 0.000000 2.530520 -0.757826 1.035900
 17 11.692554 0.000004 0.000000 0.000000 -0.000000 -2.252888
 18 11.481678 -0.000004 -0.000036 1.547303 0.323262 -0.030600
 19 3.851889 0.123226 -1.223217 -0.175078 0.232930 -0.626253
 20 1.312569 0.000004 0.000014 0.000000 0.004679 -0.753589
 21 0.729357 -0.000004 -0.000016 -0.000000 0.002406 -0.334309
 22 3.926702 0.316303 -0.458786 0.013729 0.025114 -0.537224
 23 1.539101 0.000004 0.000000 -0.000000 0.002914 -0.561620
 24 1.196320 0.000004 -0.000015 0.000000 0.004796 -0.744628
 25 3.883696 0.211048 0.404100 0.091079 -0.102654 -0.336106
 26 1.719587 0.000004 0.000002 -0.000000 0.005013 -0.680296
 27 1.209184 0.000008 0.000000 0.000000 0.002808 -0.530215
 28 3.867674 0.115971 1.301226 0.361172 -0.307765 -0.424235
 29 1.719439 0.000004 0.000004 -0.000000 0.005105 -0.876204
 30 1.099665 0.000000 0.000000 0.000000 0.003243 -0.558112
 31 0.837301 -0.302048 1.313461 -1.418910 -0.585425 -0.411855
 32 1.789789 0.000008 -0.000004 -0.392970 0.058130 -0.103184
 33 1.206980 0.000008 0.000004 -0.000000 -0.003294 1.086686
 34 2.056793 0.981236 -1.937611 2.721105 1.345801 1.053130
 35 6.028144 0.000000 0.000000 1.623598 -0.043246 -1.518876
 36 11.692553 0.000004 0.000002 0.000000 -0.000000 -2.090539
 37 11.481705 0.000004 -0.000000 -1.379609 0.154903 0.715011
 38 3.851860 0.133067 1.220457 0.494313 -0.097759 -1.141906
 39 1.312563 -0.000013 -0.000001 -0.000000 -0.007097 -0.826609
 40 0.729362 -0.000004 0.000000 0.000000 -0.003653 -0.935199
 41 3.926670 0.319867 0.458387 0.166720 -0.127387 -1.076926
 42 1.539093 -0.000008 -0.000016 0.000000 -0.004404 -0.870443
 43 1.196324 0.000000 0.000009 0.000000 -0.007266 -1.448866
 44 3.883659 0.207494 -0.403704 0.103787 -0.274161 -0.673786
 45 1.719584 -0.000002 0.000000 -0.000000 -0.007590 -1.320343
 46 1.209178 0.000011 0.000000 0.000000 -0.004245 -1.170289
 47 3.867649 0.104978 -1.303957 -0.315433 0.154362 -0.106074
 48 1.719429 0.000002 -0.000017 0.000000 -0.007728 -0.850767
 49 1.099663 -0.000002 -0.000015 0.000000 -0.004918 -0.732111
 50 0.837273 -0.312950 -1.310516 1.175425 0.303547 -0.981087
 51 1.789782 0.000000 0.000000 0.000000 0.200217 0.487566
 52 1.207003 0.000029 -0.000003 0.000000 0.201946 0.621931
time 1
  0 0.442977 -8.019855 35.976994 1.790560 0.131537 -0.163795
  1 3.890446 0.000000 0.000006 -2.434048 -1.165187 -0.555040
  2 17.848175 0.000008 0.000002 0.000000 -0.000000 1.898550
  3 16.525257 -0.000008 0.000001 -0.010322 0.127651 -1.224579
  4 6.879453 0.000010 0.000001 -0.003404 -0.003095 -1.107942
  5 -3.890448 -0.000008 0.000009 -1.605173 0.164640 -1.492505
  6 17.848183 0.000005 0.000000 -0.000000 0.000000 0.292385
  7 16.525257 -0.000005 0.000003 -0.062296 -0.081733 -1.165339
  8 6.879449 0.000010 -0.000000 -0.077606 -0.003155 -1.081663
  9 -0.000001 3.345123 -2.981895 1.490849 -0.157792 1.575867
 10 3.998806 -0.000001 -0.000000 0.099568 0.051114 0.222419
 11 3.520298 0.000006 -0.000002 0.104044 0.041227 0.429840
 12 8.923111 -0.000008 -0.000002 0.017462 0.027948 0.367633
 13 3.306349 0.000008 0.000000 3.141590 0.000000 0.697011
 14 3.601526 0.000008 0.000001 -0.414818 -0.177541 0.549519
 15 2.056778 0.981239 1.937662 -2.959807 -1.186512 1.227670
 16 6.028145 0.000027 0.000004 2.494581 -0.771691 1.089441
 17 11.692553 0.000004 -0.000004 0.000000 -0.000000 -2.252888
 18 11.481674 0.000002 -0.000038 1.547303 0.323262 -0.030600
 19 3.851900 0.123230 -1.223236 -0.175078 0.232930 -0.626253
 20 1.312564 0.000004 -0.000015 0.000000 0.004679 -0.753589
 21 0.729366 0.000000 0.000017 -0.000000 0.002406 -0.334309
 22 3.926706 0.316315 -0.458786 0.013729 0.025114 -0.537224
 23 1.539102 -0.000004 0.000000 0.000000 0.002914 -0.561620
 24 1.196327 0.000004 0.000000 -0.000000 0.004796 -0.744628
 25 3.883696 0.211060 0.404097 0.091079 -0.102654 -0.336106
 26 1.719594 0.000000 0.000000 -0.000000 0.005013 -0.680296
 27 1.209185 0.000004 0.000000 -0.000000 0.002808 -0.530215
 28 3.867674 0.115967 1.301208 0.361172 -0.307765 -0.424235
 29 1.719431 -0.000004 0.000000 -0.000000 0.005105 -0.876204
 30 1.099661 0.000000 0.000000 -0.000000 0.003255 -0.558112
 31 0.837301 -0.302048 1.313446 -1.418910 -0.585425 -0.411855
 32 1.789780 0.000004 0.000000 -0.392970 0.058130 -0.103184
 33 1.207016 0.000006 0.000000 0.000000 -0.003294 1.086686
 34 2.056791 0.981247 -1.937609 2.820091 1.350277 1.150513
 35 6.028141 0.000015 0.000008 1.634600 -0.049690 -1.539660
 36 11.692558 0.000000 0.000001 -0.000000 0.000000 -2.144421
 37 11.481694 0.000008 -0.000003 -1.380998 0.150248 0.703319
 38 3.851860 0.133064 1.220461 0.494313 -0.097759 -1.141906
 39 1.312563 0.000008 0.000009 0.000000 -0.007097 -0.826609
 40 0.729364 -0.000004 0.000009 0.000000 -0.003653 -0.935199
 41 3.926674 0.319865 0.458391 0.166720 -0.127387 -1.076926
 42 1.539095 0.000002 0.000000 -0.000000 -0.004404 -0.870443
 43 1.196321 -0.000004 0.000017 0.000000 -0.007266 -1.448866
 44 3.883663 0.207488 -0.403700 0.103787 -0.274161 -0.673786
 45 1.719576 0.000000 0.000003 0.000000 -0.007590 -1.320343
 46 1.209176 0.000004 0.000002 0.000000 -0.004245 -1.170289
 47 3.867645 0.104978 -1.303940 -0.315433 0.154362 -0.106074
 48 1.719435 0.000001 0.000000 0.000000 -0.007728 -0.850767
 49 1.099659 -0.000002 0.000015 0.000000 -0.004918 -0.732111
 50 0.837265 -0.312955 -1.310516 1.175425 0.303547 -0.981087
 51 1.789770 -0.000015 -0.000002 0.000000 0.200217 0.487566
 52 1.207005 0.000000 -0.000005 0.000000 0.201946 0.621931
time 2
  0 1.052371 -14.987066 37.109840 1.805871 0.077980 -0.175102
  1 3.890445 -0.000004 -0.000009 -2.546268 -1.217165 -0.584419
  2 17.848169 -0.000004 0.000003 -0.000000 0.000000 1.460325
  3 16.525255 0.000010 0.000000 0.006977 0.054730 -1.286815
  4 6.879452 0.000000 0.000001 -0.006964 -0.002963 -0.614026
  5 -3.890448 0.000000 0.000000 1.550018 2.823968 1.534962
  6 17.848164 0.000002 0.000001 0.000000 0.000000 0.253105
  7 16.525261 0.000005 -0.000001 -0.093787 -0.100063 -0.804655
  8 6.879455 0.000007 0.000000 -0.077235 -0.002687 -1.107969
  9 0.000000 3.345127 -2.981904 1.499451 -0.157600 1.521129
 10 3.998795 -0.000008 0.000002 0.113075 0.047495 0.218816
 11 3.520302 -0.000002 -0.000000 0.117134 0.036313 0.426067
 12 8.923115 -0.000004 -0.000000 0.024592 0.028739 0.367609
 13 3.306366 0.000004 -0.000001 3.141590 0.000000 0.697011
 14 3.601534 -0.000004 -0.000003 -0.420393 -0.186519 0.570624
 15 2.056793 0.981228 1.937663 -2.921023 -1.185099 1.191550
 16 6.028141 0.000000 0.000004 2.475275 -0.751234 1.106167
 17 11.692574 -0.000004 0.000000 -0.000000 0.000000 -2.252888
 18 11.481667 -0.000015 -0.000031 1.547303 0.323262 -0.030600
 19 3.851889 0.123230 -1.223221 -0.175078 0.232930 -0.626253
 20 1.312564 0.000000 0.000013 0.000000 0.004679 -0.753589
 21 0.729370 -0.000004 0.000002 0.000000 0.002406 -0.334309
 22 3.926702 0.316311 -0.458786 0.013729 0.025114 -0.537224
 23 1.539100 -0.000004 0.000011 -0.000000 0.002914 -0.561620
 24 1.196320 0.000004 0.000015 -0.000000 0.004796 -0.744628
 25 3.883684 0.211044 0.404114 0.091079 -0.102654 -0.336106
 26 1.719597 -0.000004 0.000031 -0.000000 0.005013 -0.680296
 27 1.209177 0.000000 0.000000 -0.000000 0.002808 -0.530215
 28 3.867668 0.115971 1.301212 0.361172 -0.307765 -0.424235
 29 1.719446 0.000000 0.000015 -0.000000 0.005105 -0.876204
 30 1.099659 -0.000008 0.000000 0.000000 0.003243 -0.558112
 31 0.837296 -0.302048 1.313450 -1.418910 -0.585425 -0.411855
 32 1.789782 0.000011 -0.000004 -0.392970 0.058130 -0.103184
 33 1.207001 0.000008 -0.000004 0.000000 -0.003294 1.086686
 34 2.056789 0.981239 -1.937612 2.760243 1.344074 1.091937
 35 6.028142 0.000004 0.000000 -1.492443 -3.111617 1.560270
 36 11.692587 0.000000 0.000003 -0.000000 0.000000 -2.200264
 37 11.481693 0.000000 -0.000001 -1.384206 0.136978 0.671756
 38 3.851864 0.133069 1.220457 0.494313 -0.097759 -1.141906
 39 1.312564 0.000008 -0.000010 -0.000000 -0.007097 -0.826609
 40 0.729362 0.000000 0.000001 0.000000 -0.003653 -0.935199
 41 3.926678 0.319870 0.458389 0.166720 -0.127387 -1.076926
 42 1.539097 0.000004 0.000015 0.000000 -0.004404 -0.870443
 43 1.196321 0.000000 -0.000002 -0.000000 -0.007266 -1.448866
 44 3.883659 0.207497 -0.403704 0.103787 -0.274161 -0.673786
 45 1.719578 0.000004 0.000000 -0.000000 -0.007590 -1.320343
 46 1.209173 0.000004 0.000031 -0.000000 -0.004245 -1.170289
 47 3.867643 0.104985 -1.303925 -0.315433 0.154362 -0.106074
 48 1.719437 0.000002 0.000000 0.000000 -0.007728 -0.850767
 49 1.099659 -0.000011 0.000011 0.000000 -0.004918 -0.732111
 50 0.837276 -0.312951 -1.310547 1.175425 0.303547 -0.981087
 51 1.789780 -0.000011 0.000002 -0.000000 0.200217 0.487566
 52 1.207008 0.000000 0.000002 0.000000 0.201946 0.621931
time 3
  0 1.778956 -21.955154 37.609856 1.838082 0.018917 -0.162721
  1 3.890448 -0.000004 0.000007 -2.523442 -1.252849 -0.742438
  2 17.848169 -0.000004 0.000000 0.000000 -0.000000 1.127113
  3 16.525263 0.000000 -0.000000 0.068297 0.040330 -1.240800
  4 6.879454 -0.000004 0.000000 -0.007922 -0.003358 -0.584373
  5 -3.890448 0.000000 0.000001 1.559141 2.810246 1.444142
  6 17.848167 0.000002 0.000000 0.000000 0.000000 0.360807
  7 16.525259 -0.000001 0.000000 -0.120057 -0.081584 -0.441180
  8 6.879453 -0.000008 -0.000000 -0.077666 -0.003550 -1.107969
  9 0.000000 3.345127 -2.981894 1.508963 -0.156845 1.460374
 10 3.998802 0.000000 -0.000002 0.099508 0.049628 0.210581
 11 3.520294 0.000011 0.000002 0.103832 0.039741 0.417997
 12 8.923103 0.000004 -0.000002 0.017402 0.027936 0.367633
 13 3.306362 0.000000 0.000000 3.141590 0.000000 0.697011
 14 3.601517 0.000000 0.000002 -0.412030 -0.188667 0.580726
 15 2.056778 0.981232 1.937660 -2.833397 -1.175284 1.110495
 16 6.028142 0.000000 0.000004 2.492956 -0.715776 1.081312
 17 11.692554 -0.000004 0.000000 0.000000 -0.000000 -2.252888
 18 11.481672 0.000000 -0.000038 1.547303 0.323262 -0.030600
 19 3.851891 0.123234 -1.223236 -0.175078 0.232930 -0.626253
 20 1.312563 0.000000 -0.000004 0.000000 0.004679 -0.753589
 21 0.729362 0.000000 0.000000 0.000000 0.002406 -0.334309
 22 3.926704 0.316315 -0.458801 0.013729 0.025114 -0.537224
 23 1.539102 -0.000004 0.000000 -0.000000 0.002914 -0.561620
 24 1.196325 0.000000 0.000000 -0.000000 0.004796 -0.744628
 25 3.883692 0.211056 0.404099 0.091079 -0.102654 -0.336106
 26 1.719574 0.000000 0.000004 0.000000 0.005013 -0.680296
 27 1.209175 0.000008 0.000000 0.000000 0.002808 -0.530215
 28 3.867672 0.115974 1.301205 0.361172 -0.307765 -0.424235
 29 1.719423 0.000000 -0.000015 0.000000 0.005105 -0.876204
 30 1.099663 -0.000008 0.000015 0.000000 0.003243 -0.558112
 31 0.837297 -0.302040 1.313446 -1.418910 -0.585425 -0.411855
 32 1.789770 0.000004 0.000000 -0.392970 0.058130 -0.103184
 33 1.207014 0.000000 0.000000 0.000000 -0.003294 1.086686
 34 2.056778 0.981243 -1.937609 2.622119 1.330411 0.956479
 35 6.028141 0.000000 0.000008 -1.490403 -3.139065 1.520474
 36 11.692535 0.000000 0.000001 -0.000000 0.000000 -2.249354
 37 11.481699 -0.000008 -0.000001 -1.387175 0.115838 0.625673
 38 3.851866 0.133064 1.220459 0.494313 -0.097759 -1.141906
 39 1.312562 -0.000004 0.000000 0.000000 -0.007097 -0.826609
 40 0.729362 -0.000004 0.000000 -0.000000 -0.003653 -0.935199
 41 3.926670 0.319870 0.458405 0.166720 -0.127387 -1.076926
 42 1.539093 0.000004 0.000000 -0.000000 -0.004404 -0.870443
 43 1.196323 -0.000002 0.000004 0.000000 -0.007266 -1.448866
 44 3.883657 0.207488 -0.403706 0.103787 -0.274161 -0.673786
 45 1.719576 -0.000002 0.000015 0.000000 -0.007590 -1.320343
 46 1.209179 0.000000 -0.000008 0.000000 -0.004245 -1.170289
 47 3.867645 0.104977 -1.303955 -0.315433 0.154362 -0.106074
 48 1.719429 0.000001 0.000000 0.000000 -0.007728 -0.850767
 49 1.099658 -0.000006 0.000019 0.000000 -0.004918 -0.732111
 50 0.837269 -0.312954 -1.310520 1.175425 0.303547 -0.981087
 51 1.789782 0.000011 -0.000002 -0.000000 0.200217 0.487566
 52 1.206999 0.000015 -0.000002 0.000000 0.201946 0.621931
time 4
  0 2.568042 -28.924362 37.578606 1.870528 -0.009550 -0.131325
  1 3.890446 0.000000 -0.000007 -2.178157 -1.183815 -1.179000
  2 17.848185 0.000004 -0.000001 0.000000 0.000000 0.831379
  3 16.525257 -0.000019 -0.000003 0.118034 0.050502 -1.217154
  4 6.879440 -0.000004 -0.000000 -0.008306 -0.003610 -0.584373
  5 -3.890447 -0.000004 0.000001 1.541488 2.926550 1.418661
  6 17.848173 -0.000006 0.000000 -0.000000 -0.000000 0.714972
  7 16.525249 0.000005 -0.000000 -0.090231 -0.068382 -0.343879
  8 6.879456 0.000001 -0.000000 -0.079188 -0.006606 -1.107951
  9 -0.000002 3.345119 -2.981903 1.513517 -0.156282 1.431190
 10 3.998802 0.000002 -0.000000 0.063255 0.055297 0.201699
 11 3.520306 0.000000 0.000002 0.068315 0.048897 0.409446
 12 8.923130 0.000006 -0.000000 -0.001774 0.025803 0.367621
 13 3.306362 0.000008 0.000002 3.141590 0.000000 0.697011
 14 3.601511 -0.000008 0.000002 -0.383485 -0.219236 0.576930
 15 2.056755 0.981239 1.937660 -2.736770 -1.158401 1.021870
 16 6.028149 0.000004 -0.000004 2.548489 -0.678818 1.017306
 17 11.692553 0.000008 0.000004 0.000000 -0.000000 -2.252888
 18 11.481674 -0.000019 -0.000034 1.547303 0.323262 -0.030600
 19 3.851896 0.123226 -1.223206 -0.175078 0.232930 -0.626253
 20 1.312570 0.000000 0.000015 -0.000000 0.004679 -0.753589
 21 0.729362 0.000000 0.000000 0.000000 0.002406 -0.334309
 22 3.926697 0.316307 -0.458801 0.013729 0.025114 -0.537224
 23 1.539102 0.000000 0.000004 0.000000 0.002914 -0.561620
 24 1.196327 0.000004 -0.000004 0.000000 0.004796 -0.744628
 25 3.883680 0.211048 0.404095 0.091079 -0.102654 -0.336106
 26 1.719587 0.000000 -0.000004 -0.000000 0.005013 -0.680296
 27 1.209177 0.000008 -0.000015 0.000000 0.002808 -0.530215
 28 3.867674 0.115963 1.301212 0.361172 -0.307765 -0.424235
 29 1.719421 -0.000004 -0.000008 0.000000 0.005105 -0.876204
 30 1.099670 0.000010 0.000004 0.000000 0.003243 -0.558112
 31 0.837299 -0.302048 1.313446 -1.418910 -0.585425 -0.411855
 32 1.789778 -0.000008 -0.000004 -0.392970 0.058130 -0.103184
 33 1.207008 0.000008 0.000011 -0.000000 -0.003294 1.086686
 34 2.056793 0.981243 -1.937611 2.474506 1.310623 0.811868
 35 6.028144 0.000011 0.000000 -1.499097 3.122497 1.490089
 36 11.692570 0.000004 0.000003 -0.000000 -0.000000 -2.267798
 37 11.481707 0.000008 0.000000 -1.387798 0.087807 0.570478
 38 3.851862 0.133067 1.220459 0.494313 -0.097759 -1.141906
 39 1.312570 0.000000 0.000000 0.000000 -0.007097 -0.826609
 40 0.729362 0.000004 -0.000008 0.000000 -0.003653 -0.935199
 41 3.926662 0.319865 0.458389 0.166720 -0.127387 -1.076926
 42 1.539096 0.000006 0.000015 -0.000000 -0.004404 -0.870443
 43 1.196323 -0.000008 0.000008 -0.000000 -0.007266 -1.448866
 44 3.883659 0.207492 -0.403702 0.103787 -0.274161 -0.673786
 45 1.719578 -0.000004 0.000000 0.000000 -0.007590 -1.320343
 46 1.209181 0.000004 -0.000015 0.000000 -0.004245 -1.170289
 47 3.867641 0.104976 -1.303940 -0.315433 0.154362 -0.106074
 48 1.719435 -0.000000 0.000019 -0.000000 -0.007728 -0.850767
 49 1.099661 0.000004 -0.000015 -0.000000 -0.004918 -0.732111
 50 0.837269 -0.312955 -1.310516 1.175425 0.303547 -0.981087
 51 1.789779 0.000008 0.000006 0.000000 0.200217 0.487566
 52 1.207006 0.000000 0.000002 0.000000 0.201946 0.621931
time 5
  0 3.368848 -35.895061 36.977024 1.892199 -0.015602 -0.086095
  1 3.890448 -0.000004 0.000002 -1.888675 -0.978733 -1.502105
  2 17.848171 0.000000 0.000001 -0.000000 0.000000 0.531481
  3 16.525257 -0.000019 0.000002 0.144093 0.048078 -1.102378
  4 6.879463 -0.000006 0.000000 -0.008006 -0.003418 -0.584373
  5 -3.890447 -0.000011 -0.000002 1.549850 3.097919 1.419592
  6 17.848171 0.000010 0.000000 -0.000000 0.000000 1.214363
  7 16.525253 -0.000004 0.000000 -0.074321 -0.082609 -0.472590
  8 6.879450 0.000002 -0.000001 -0.083131 -0.014528 -1.107915
  9 -0.000000 3.345131 -2.981890 1.514428 -0.156154 1.425075
 10 3.998795 0.000002 0.000000 0.010798 0.063590 0.197233
 11 3.520313 0.000008 0.000001 0.016936 0.062236 0.405236
 12 8.923096 0.000006 -0.000001 -0.029554 0.022711 0.367453
 13 3.306335 0.000000 -0.000001 3.141590 -0.000000 0.697011
 14 3.601526 0.000000 0.000000 -0.342533 -0.260516 0.571364
 15 2.056767 0.981232 1.937664 -2.664181 -1.139869 0.956336
 16 6.028141 0.000000 0.000004 2.630116 -0.644132 0.936014
 17 11.692560 0.000000 0.000000 0.000000 -0.000000 -2.252888
 18 11.481674 0.000019 -0.000034 1.547303 0.323262 -0.030600
 19 3.851898 0.123226 -1.223217 -0.175078 0.232930 -0.626253
 20 1.312562 0.000000 0.000004 0.000000 0.004679 -0.753589
 21 0.729370 0.000004 -0.000015 -0.000000 0.002406 -0.334309
 22 3.926704 0.316319 -0.458790 0.013729 0.025114 -0.537224
 23 1.539091 0.000000 0.000000 -0.000000 0.002914 -0.561620
 24 1.196320 0.000000 0.000000 -0.000000 0.004796 -0.744628
 25 3.883696 0.211056 0.404099 0.091079 -0.102654 -0.336106
 26 1.719587 0.000004 -0.000004 -0.000000 0.005013 -0.680296
 27 1.209175 0.000004 -0.000015 -0.000000 0.002808 -0.530215
 28 3.867676 0.115967 1.301224 0.361172 -0.307765 -0.424235
 29 1.719435 0.000004 0.000015 0.000000 0.005105 -0.876204
 30 1.099663 0.000008 0.000015 0.000000 0.003255 -0.558112
 31 0.837301 -0.302036 1.313442 -1.418910 -0.585425 -0.411855
 32 1.789791 0.000000 -0.000004 -0.392970 0.058130 -0.103184
 33 1.206989 0.000000 0.000000 0.000000 -0.003294 1.086686
 34 2.056782 0.981232 -1.937612 2.363111 1.292013 0.702678
 35 6.028145 0.000011 0.000004 -1.521631 3.108558 1.475363
 36 11.692562 -0.000004 0.000002 -0.000000 0.000000 -2.242891
 37 11.481695 0.000008 -0.000002 -1.384637 0.054631 0.511277
 38 3.851864 0.133060 1.220451 0.494313 -0.097759 -1.141906
 39 1.312566 0.000000 -0.000011 0.000000 -0.007097 -0.826609
 40 0.729361 -0.000002 -0.000008 0.000000 -0.003653 -0.935199
 41 3.926666 0.319867 0.458397 0.166720 -0.127387 -1.076926
 42 1.539094 -0.000002 0.000000 0.000000 -0.004404 -0.870443
 43 1.196323 0.000008 -0.000004 0.000000 -0.007266 -1.448866
 44 3.883659 0.207489 -0.403698 0.103787 -0.274161 -0.673786
 45 1.719578 0.000000 -0.000019 0.000000 -0.007590 -1.320343
 46 1.209177 0.000004 0.000019 0.000000 -0.004245 -1.170289
 47 3.867647 0.104980 -1.303932 -0.315433 0.154362 -0.106074
 48 1.719433 0.000001 0.000015 0.000000 -0.007728 -0.850767
 49 1.099663 -0.000006 0.000000 -0.000000 -0.004918 -0.732111
 50 0.837267 -0.312949 -1.310516 1.175425 0.303547 -0.981087
 51 1.789789 0.000000 -0.000006 -0.000000 0.200217 0.487566
 52 1.207003 0.000000 -0.000001 -0.000000 0.201946 0.621931
time 6
  0 4.099339 -42.867897 35.687923 1.899088 -0.025517 -0.032400
  1 3.890447 0.000000 -0.000002 1.372390 -2.255055 1.533291
  2 17.848190 -0.000008 -0.000000 -0.000000 0.000000 0.624305
  3 16.525257 0.000000 -0.000001 0.154031 0.016819 -1.056221
  4 6.879440 0.000000 0.000001 -0.007299 -0.002951 -0.584373
  5 -3.890447 0.000004 0.000000 -1.568938 -0.152475 -1.749191
  6 17.848179 0.000008 0.000000 -0.000000 0.000000 1.709283
  7 16.525261 0.000002 0.000000 -0.077486 -0.125647 -0.723010
  8 6.879448 -0.000002 0.000001 -0.085648 -0.019550 -1.107879
  9 -0.000000 3.345131 -2.981895 1.515997 -0.155913 1.415082
 10 3.998795 0.000013 0.000000 -0.051342 0.073681 0.199491
 11 3.520306 0.000013 -0.000001 -0.043925 0.078319 0.407479
 12 8.923111 0.000000 -0.000003 -0.062464 0.019044 0.367034
 13 3.306351 0.000004 0.000000 3.141590 -0.000000 0.697011
 14 3.601524 0.000000 0.000000 -0.296476 -0.297684 0.565219
 15 2.056793 0.981239 1.937662 -2.639856 -1.128051 0.935545
 16 6.028145 -0.000004 -0.000004 2.724742 -0.618221 0.867056
 17 11.692545 0.000000 0.000000 0.000000 0.000000 -2.252888
 18 11.481678 -0.000015 -0.000038 1.547303 0.323262 -0.030600
 19 3.851894 0.123222 -1.223206 -0.175078 0.232930 -0.626253
 20 1.312571 0.000000 0.000004 -0.000000 0.004679 -0.753589
 21 0.729362 0.000000 0.000015 -0.000000 0.002406 -0.334309
 22 3.926701 0.316315 -0.458801 0.013729 0.025114 -0.537224
 23 1.539108 -0.000004 0.000004 -0.000000 0.002914 -0.561620
 24 1.196327 -0.000004 0.000004 0.000000 0.004796 -0.744628
 25 3.883692 0.211048 0.404099 0.091079 -0.102654 -0.336106
 26 1.719591 -0.000004 0.000000 -0.000000 0.005013 -0.680296
 27 1.209175 0.000004 0.000000 -0.000000 0.002808 -0.530215
 28 3.867674 0.115963 1.301224 0.361172 -0.307765 -0.424235
 29 1.719421 0.000004 -0.000015 -0.000000 0.005105 -0.876204
 30 1.099655 0.000004 0.000000 0.000000 0.003243 -0.558112
 31 0.837296 -0.302048 1.313446 -1.418910 -0.585425 -0.411855
 32 1.789780 0.000000 0.000000 -0.392970 0.058130 -0.103184
 33 1.207005 0.000000 0.000000 -0.000000 -0.003294 1.086686
 34 2.056778 0.981239 -1.937608 2.311110 1.286163 0.651057
 35 6.028144 0.000004 0.000004 -1.557740 3.101636 1.479184
 36 11.692558 -0.000004 0.000004 -0.000000 0.000000 -2.193946
 37 11.481705 0.000008 -0.000002 -1.377310 0.019116 0.452898
 38 3.851866 0.133064 1.220440 0.494313 -0.097759 -1.141906
 39 1.312569 0.000004 0.000000 -0.000000 -0.007097 -0.826609
 40 0.729362 0.000002 0.000004 -0.000000 -0.003653 -0.935199
 41 3.926668 0.319869 0.458385 0.166720 -0.127387 -1.076926
 42 1.539099 0.000006 0.000015 0.000000 -0.004404 -0.870443
 43 1.196323 0.000002 0.000004 -0.000000 -0.007266 -1.448866
 44 3.883661 0.207493 -0.403721 0.103787 -0.274161 -0.673786
 45 1.719580 0.000000 -0.000011 0.000000 -0.007590 -1.320343
 46 1.209175 0.000006 0.000011 0.000000 -0.004245 -1.170289
 47 3.867645 0.104978 -1.303940 -0.315433 0.154362 -0.106074
 48 1.719439 0.000001 0.000000 -0.000000 -0.007728 -0.850767
 49 1.099665 -0.000008 0.000000 0.000000 -0.004918 -0.732111
 50 0.837269 -0.312955 -1.310516 1.175425 0.303547 -0.981087
 51 1.789780 0.000000 -0.000006 0.000000 0.200217 0.487566
 52 1.207001 0.000000 0.000000 0.000000 0.201946 0.621931
time 7
  0 4.626699 -49.844162 34.855865 1.882953 -0.075547 0.024770
  1 3.890449 0.000004 0.000011 1.414987 -2.360177 1.456867
  2 17.848177 0.000004 0.000000 0.000000 -0.000000 0.887179
  3 16.525265 0.000000 0.000000 0.172557 0.064814 -1.400126
  4 6.879467 0.000008 0.000000 -0.007299 -0.002951 -0.584373
  5 -3.890446 0.000004 0.000019 1.543684 -2.724316 1.335222
  6 17.848183 0.000019 0.000002 0.000000 0.000000 2.097060
  7 16.525257 0.000004 0.000000 -0.017917 -0.229046 -1.000583
  8 6.879463 -0.000004 0.000001 -0.080183 -0.008596 -1.107951
  9 -0.000000 3.345139 -2.981892 1.523840 -0.154499 1.364470
 10 3.998802 0.000002 0.000000 -0.116694 0.084863 0.206082
 11 3.520294 0.000013 0.000000 -0.107930 0.095769 0.413685
 12 8.923111 -0.000010 -0.000003 -0.097063 0.015161 0.366327
 13 3.306358 0.000000 -0.000003 3.141590 0.000000 0.697011
 14 3.601532 -0.000008 0.000004 -0.250145 -0.327424 0.559363
 15 2.056793 0.981239 1.937659 -2.693102 -1.131585 0.985079
 16 6.028137 0.000000 -0.000004 2.827875 -0.627222 0.830802
 17 11.692551 0.000004 -0.000004 0.000000 -0.000000 -2.252888
 18 11.481672 0.000008 -0.000031 1.547303 0.323262 -0.030600
 19 3.851887 0.123238 -1.223228 -0.175078 0.232930 -0.626253
 20 1.312565 0.000000 0.000038 0.000000 0.004679 -0.753589
 21 0.729359 0.000000 0.000008 0.000000 0.002406 -0.334309
 22 3.926701 0.316311 -0.458778 0.013729 0.025114 -0.537224
 23 1.539095 0.000000 0.000000 -0.000000 0.002914 -0.561620
 24 1.196331 0.000000 -0.000015 -0.000000 0.004796 -0.744628
 25 3.883684 0.211048 0.404091 0.091079 -0.102654 -0.336106
 26 1.719568 0.000004 0.000000 0.000000 0.005013 -0.680296
 27 1.209175 0.000008 0.000000 -0.000000 0.002808 -0.530215
 28 3.867670 0.115967 1.301216 0.361172 -0.307765 -0.424235
 29 1.719427 -0.000004 0.000008 0.000000 0.005105 -0.876204
 30 1.099659 0.000011 -0.000008 -0.000000 0.003243 -0.558112
 31 0.837294 -0.302044 1.313438 -1.418910 -0.585425 -0.411855
 32 1.789803 -0.000004 -0.000008 -0.392970 0.058130 -0.103184
 33 1.206989 0.000000 0.000000 -0.000000 -0.003294 1.086686
 34 2.056778 0.981239 -1.937610 2.351161 1.306461 0.688949
 35 6.028142 0.000038 0.000000 1.543927 0.022629 -1.636217
 36 11.692566 -0.000004 0.000003 -0.000000 0.000000 -2.144857
 37 11.481705 0.000015 -0.000002 -1.366775 -0.015294 0.399844
 38 3.851870 0.133065 1.220444 0.494313 -0.097759 -1.141906
 39 1.312558 0.000000 0.000004 0.000000 -0.007097 -0.826609
 40 0.729361 0.000002 -0.000004 0.000000 -0.003653 -0.935199
 41 3.926672 0.319867 0.458374 0.166720 -0.127387 -1.076926
 42 1.539097 0.000000 0.000023 -0.000000 -0.004404 -0.870443
 43 1.196321 0.000004 -0.000015 0.000000 -0.007266 -1.448866
 44 3.883652 0.207496 -0.403702 0.103787 -0.274161 -0.673786
 45 1.719580 0.000000 0.000000 -0.000000 -0.007590 -1.320343
 46 1.209177 0.000000 0.000015 0.000000 -0.004245 -1.170289
 47 3.867643 0.104976 -1.303940 -0.315433 0.154362 -0.106074
 48 1.719431 0.000003 0.000000 -0.000000 -0.007728 -0.850767
 49 1.099661 0.000000 -0.000008 -0.000000 -0.004918 -0.732111
 50 0.837269 -0.312953 -1.310532 1.175425 0.303547 -0.981087
 51 1.789778 0.000000 -0.000002 0.000000 0.200217 0.487566
 52 1.207006 0.000015 0.000006 -0.000000 0.201946 0.621931
time 8
  0 4.743890 -56.827332 34.660549 1.844442 -0.134488 0.080550
  1 3.890447 0.000004 0.000000 -1.554612 -0.495899 -1.792493
  2 17.848171 0.000004 0.000000 -0.000000 0.000000 0.830243
  3 16.525253 -0.000008 -0.000001 0.107998 0.018217 -1.587873
  4 6.879456 -0.000004 0.000000 -0.007299 -0.002951 -0.584373
  5 -3.890448 0.000000 0.000000 -1.562181 -0.742963 -1.960973
  6 17.848183 0.000008 0.000004 0.000000 -0.000000 2.284202
  7 16.525257 0.000004 -0.000002 0.046772 -0.325526 -1.159899
  8 6.879456 0.000004 -0.000002 -0.077942 -0.004102 -1.107969
  9 -0.000001 3.345139 -2.981895 1.532998 -0.152315 1.304461
 10 3.998795 0.000000 0.000001 -0.178786 0.096368 0.214698
 11 3.520294 0.000008 -0.000001 -0.168699 0.113206 0.421580
 12 8.923111 0.000004 0.000002 -0.129913 0.011445 0.365404
 13 3.306366 -0.000004 -0.000002 3.141590 0.000000 0.697011
 14 3.601526 0.000008 0.000002 -0.208172 -0.347511 0.540575
 15 2.056770 0.981239 1.937658 -2.805626 -1.142853 1.088458
 16 6.028139 0.000000 0.000000 2.930625 -0.659452 0.801649
 17 11.692553 0.000000 0.000011 -0.000000 -0.000000 -2.252888
 18 11.481674 0.000015 -0.000038 1.547303 0.323262 -0.030600
 19 3.851892 0.123219 -1.223206 -0.175078 0.232930 -0.626253
 20 1.312565 -0.000008 -0.000015 0.000000 0.004679 -0.753589
 21 0.729370 0.000004 0.000000 0.000000 0.002406 -0.334309
 22 3.926706 0.316299 -0.458771 0.013729 0.025114 -0.537224
 23 1.539103 -0.000008 -0.000008 0.000000 0.002914 -0.561620
 24 1.196316 -0.000008 0.000008 0.000000 0.004796 -0.744628
 25 3.883688 0.211044 0.404106 0.091079 -0.102654 -0.336106
 26 1.719587 0.000000 0.000023 -0.000000 0.005013 -0.680296
 27 1.209194 0.000008 0.000023 -0.000000 0.002808 -0.530215
 28 3.867674 0.115959 1.301224 0.361172 -0.307765 -0.424235
 29 1.719429 -0.000004 0.000008 0.000000 0.005105 -0.876204
 30 1.099659 -0.000004 0.000008 -0.000000 0.003243 -0.558112
 31 0.837297 -0.302055 1.313446 -1.418910 -0.585425 -0.411855
 32 1.789780 -0.000008 -0.000008 -0.392970 0.058130 -0.103184
 33 1.207020 -0.000008 0.000000 0.000000 -0.003294 1.086686
 34 2.056778 0.981236 -1.937611 2.484267 1.342700 0.818275
 35 6.028144 0.000008 0.000000 1.503737 -0.019044 -1.578898
 36 11.692566 0.000004 0.000004 0.000000 0.000000 -2.096784
 37 11.481699 -0.000008 -0.000001 -1.355329 -0.044689 0.356479
 38 3.851862 0.133070 1.220467 0.494313 -0.097759 -1.141906
 39 1.312567 0.000000 -0.000008 0.000000 -0.007097 -0.826609
 40 0.729362 0.000000 0.000000 0.000000 -0.003653 -0.935199
 41 3.926670 0.319867 0.458382 0.166720 -0.127387 -1.076926
 42 1.539095 0.000000 0.000000 -0.000000 -0.004404 -0.870443
 43 1.196321 0.000004 0.000000 0.000000 -0.007266 -1.448866
 44 3.883657 0.207496 -0.403687 0.103787 -0.274161 -0.673786
 45 1.719574 -0.000004 -0.000015 0.000000 -0.007590 -1.320343
 46 1.209179 0.000002 0.000008 -0.000000 -0.004245 -1.170289
 47 3.867641 0.104976 -1.303940 -0.315433 0.154362 -0.106074
 48 1.719429 0.000002 0.000000 0.000000 -0.007728 -0.850767
 49 1.099663 -0.000002 -0.000008 -0.000000 -0.004918 -0.732111
 50 0.837267 -0.312950 -1.310524 1.175425 0.303547 -0.981087
 51 1.789766 0.000008 0.000002 0.000000 0.200217 0.487566
 52 1.207005 0.000008 -0.000001 0.000000 0.201946 0.621931
time 9
  0 4.509508 -63.881092 35.066811 1.805518 -0.155777 0.129065
  1 3.890449 0.000000 0.000004 -1.570262 -0.171422 -1.755393
  2 17.848179 0.000000 0.000000 0.000000 0.000000 0.627030
  3 16.525265 -0.000008 -0.000000 0.101766 0.072385 -1.519726
  4 6.879459 0.000004 -0.000000 -0.005825 -0.003035 -0.733593
  5 -3.890447 -0.000004 0.000008 -1.093230 -1.066251 -2.400463
  6 17.848171 0.000000 0.000001 -0.000000 0.000000 2.222646
  7 16.525253 0.000000 0.000001 -0.000301 -0.286703 -1.101527
  8 6.879452 0.000008 -0.000000 -0.077283 -0.002795 -1.107969
  9 -0.000001 3.345127 -2.981899 1.536388 -0.151367 1.282088
 10 3.998802 0.000008 0.000000 -0.231099 0.107442 0.221373
 11 3.520317 0.000008 -0.000001 -0.219826 0.129206 0.427393
 12 8.923119 -0.000006 0.000002 -0.157573 0.008293 0.364433
 13 3.306358 0.000004 -0.000004 3.141590 0.000000 0.697011
 14 3.601532 0.000000 -0.000002 -0.173030 -0.363179 0.502483
 15 2.056801 0.981236 1.937664 -2.921597 -1.149919 1.194999
 16 6.028147 -0.000008 0.000004 3.011296 -0.682000 0.769693
 17 11.692570 0.000000 0.000008 -0.000000 0.000000 -2.252888
 18 11.481680 0.000000 -0.000027 1.547303 0.323262 -0.030600
 19 3.851891 0.123230 -1.223244 -0.175078 0.232930 -0.626253
 20 1.312563 0.000000 -0.000015 -0.000000 0.004679 -0.753589
 21 0.729366 0.000004 0.000015 0.000000 0.002406 -0.334309
 22 3.926697 0.316322 -0.458801 0.013729 0.025114 -0.537224
 23 1.539103 0.000000 0.000008 0.000000 0.002914 -0.561620
 24 1.196327 0.000000 0.000008 0.000000 0.004796 -0.744628
 25 3.883690 0.211052 0.404099 0.091079 -0.102654 -0.336106
 26 1.719570 0.000000 -0.000008 0.000000 0.005013 -0.680296
 27 1.209171 0.000000 0.000008 0.000000 0.002808 -0.530215
 28 3.867680 0.115967 1.301208 0.361172 -0.307765 -0.424235
 29 1.719425 0.000000 0.000015 -0.000000 0.005105 -0.876204
 30 1.099667 0.000008 0.000000 0.000000 0.003243 -0.558112
 31 0.837299 -0.302040 1.313446 -1.418910 -0.585425 -0.411855
 32 1.789780 0.000008 0.000000 -0.392970 0.058130 -0.103184
 33 1.207008 0.000004 0.000000 -0.000000 -0.003294 1.086686
 34 2.056793 0.981239 -1.937613 2.663539 1.372735 0.994188
 35 6.028141 -0.000015 -0.000004 1.463369 -0.056326 -1.503963
 36 11.692558 0.000000 0.000000 0.000000 -0.000000 -2.050600
 37 11.481699 0.000000 -0.000004 -1.346087 -0.065083 0.327166
 38 3.851862 0.133070 1.220467 0.494313 -0.097759 -1.141906
 39 1.312563 -0.000004 0.000004 0.000000 -0.007097 -0.826609
 40 0.729366 0.000004 0.000008 -0.000000 -0.003653 -0.935199
 41 3.926668 0.319870 0.458397 0.166720 -0.127387 -1.076926
 42 1.539091 0.000000 0.000015 0.000000 -0.004404 -0.870443
 43 1.196320 0.000004 -0.000015 0.000000 -0.007266 -1.448866
 44 3.883656 0.207495 -0.403702 0.103787 -0.274161 -0.673786
 45 1.719578 0.000004 0.000000 0.000000 -0.007590 -1.320343
 46 1.209177 0.000000 0.000008 -0.000000 -0.004245 -1.170289
 47 3.867643 0.104980 -1.303932 -0.315433 0.154362 -0.106074
 48 1.719427 0.000002 -0.000008 -0.000000 -0.007728 -0.850767
 49 1.099663 -0.000004 0.000008 0.000000 -0.004918 -0.732111
 50 0.837261 -0.312950 -1.310516 1.175425 0.303547 -0.981087
 51 1.789783 -0.000008 -0.000002 0.000000 0.200217 0.487566
 52 1.207006 0.000008 0.000000 0.000000 0.201946 0.621931
time 10
  0 4.036837 -70.872421 35.953556 1.791267 -0.127888 0.162798
  1 3.890447 -0.000004 0.000004 -1.532244 0.168496 -1.670527
  2 17.848186 0.000004 -0.000003 -0.000000 0.000000 0.292002
  3 16.525249 -0.000004 0.000000 0.080933 0.060196 -1.167687
  4 6.879457 0.000008 0.000001 -0.003572 -0.003155 -1.081647
  5 -3.890447 0.000004 0.000004 -0.550964 -1.143654 -2.748124
  6 17.848194 0.000000 -0.000002 -0.000000 -0.000000 1.877423
  7 16.525253 0.000008 -0.000003 -0.026570 -0.166615 -1.152141
  8 6.879461 0.000000 0.000000 -0.077438 -0.003083 -1.107969
  9 0.000001 3.345131 -2.981895 1.532189 -0.152540 1.309831
 10 3.998802 0.000000 0.000000 -0.267184 0.117149 0.223763
 11 3.520302 0.000004 0.000002 -0.254905 0.142293 0.429097
 12 8.923111 0.000000 0.000002 -0.176617 0.006100 0.363678
 13 3.306366 0.000004 0.000002 3.141590 0.000000 0.697011
 14 3.601524 0.000008 0.000004 -0.146959 -0.380305 0.512006
 15 2.056786 0.981239 1.937656 -2.974844 -1.150195 1.244054
 16 6.028149 0.000008 -0.000002 3.048095 -0.681045 0.749323
 17 11.692562 -0.000008 0.000015 -0.000000 -0.000000 -2.252888
 18 11.481670 0.000008 -0.000027 1.547303 0.323262 -0.030600
 19 3.851898 0.123222 -1.223228 -0.175078 0.232930 -0.626253
 20 1.312569 0.000008 -0.000023 -0.000000 0.004679 -0.753589
 21 0.729370 0.000000 0.000000 0.000000 0.002406 -0.334309
 22 3.926704 0.316307 -0.458778 0.013729 0.025114 -0.537224
 23 1.539108 0.000000 0.000008 -0.000000 0.002914 -0.561620
 24 1.196312 -0.000008 0.000008 -0.000000 0.004796 -0.744628
 25 3.883698 0.211044 0.404099 0.091079 -0.102654 -0.336106
 26 1.719585 0.000008 -0.000015 0.000000 0.005013 -0.680296
 27 1.209179 0.000008 0.000008 0.000000 0.002808 -0.530215
 28 3.867680 0.115967 1.301201 0.361172 -0.307765 -0.424235
 29 1.719437 0.000000 -0.000008 -0.000000 0.005105 -0.876204
 30 1.099663 0.000004 0.000000 0.000000 0.003243 -0.558112
 31 0.837303 -0.302040 1.313454 -1.418910 -0.585425 -0.411855
 32 1.789772 0.000008 0.000000 -0.392970 0.058130 -0.103184
 33 1.207001 0.000000 0.000008 0.000000 -0.003294 1.086686
 34 2.056793 0.981247 -1.937609 2.758327 1.384906 1.087452
 35 6.028139 -0.000008 -0.000008 1.429301 -0.064154 -1.453169
 36 11.692566 0.000004 -0.000005 0.000000 -0.000000 -2.011604
 37 11.481705 0.000000 0.000007 -1.342400 -0.072695 0.316379
 38 3.851866 0.133064 1.220474 0.494313 -0.097759 -1.141906
 39 1.312567 -0.000004 0.000000 0.000000 -0.007097 -0.826609
 40 0.729366 0.000004 0.000008 0.000000 -0.003653 -0.935199
 41 3.926668 0.319867 0.458382 0.166720 -0.127387 -1.076926
 42 1.539097 0.000000 -0.000008 0.000000 -0.004404 -0.870443
 43 1.196323 -0.000002 0.000008 -0.000000 -0.007266 -1.448866
 44 3.883657 0.207492 -0.403702 0.103787 -0.274161 -0.673786
 45 1.719585 -0.000002 -0.000023 0.000000 -0.007590 -1.320343
 46 1.209179 0.000002 0.000000 -0.000000 -0.004245 -1.170289
 47 3.867640 0.104982 -1.303925 -0.315433 0.154362 -0.106074
 48 1.719429 0.000002 -0.000008 0.000000 -0.007728 -0.850767
 49 1.099659 -0.000002 0.000000 0.000000 -0.004918 -0.732111
 50 0.837276 -0.312952 -1.310539 1.175425 0.303547 -0.981087
 51 1.789795 -0.000008 -0.000010 0.000000 0.200217 0.487566
 52 1.207003 0.000015 0.000002 0.000000 0.201946 0.621931
time 11
  0 3.396192 -77.835136 37.023903 1.809051 -0.075212 0.174990
  1 3.890448 0.000004 0.000015 -1.544230 0.306295 -1.556872
  2 17.848179 -0.000004 0.000002 0.000000 0.000000 0.282083
  3 16.525253 -0.000006 0.000000 0.099975 0.076047 -0.824634
  4 6.879454 0.000000 0.000000 -0.003201 -0.002687 -1.107942
  5 -3.890448 0.000000 0.000015 -0.414891 -1.170165 -2.699179
  6 17.848171 0.000008 0.000001 0.000000 -0.000000 1.424498
  7 16.525249 -0.000008 0.000000 -0.053642 -0.112743 -1.225224
  8 6.879440 0.000004 -0.000001 -0.080998 -0.002963 -0.614049
  9 0.000001 3.345131 -2.981895 1.523941 -0.154467 1.363625
 10 3.998787 -0.000011 0.000000 -0.280547 0.124412 0.219762
 11 3.520294 0.000000 0.000003 -0.267557 0.150766 0.424858
 12 8.923111 0.000004 0.000000 -0.183616 0.005297 0.363378
 13 3.306366 0.000000 0.000002 3.141590 0.000000 0.697011
 14 3.601521 -0.000008 0.000004 -0.134041 -0.397554 0.532885
 15 2.056793 0.981236 1.937653 -2.939505 -1.146347 1.211766
 16 6.028152 -0.000008 0.000000 3.036149 -0.667771 0.744090
 17 11.692554 -0.000008 0.000000 -0.000000 0.000000 -2.252888
 18 11.481674 0.000015 -0.000031 1.547303 0.323262 -0.030600
 19 3.851898 0.123215 -1.223221 -0.175078 0.232930 -0.626253
 20 1.312561 -0.000008 0.000000 -0.000000 0.004679 -0.753589
 21 0.729370 0.000008 0.000008 0.000000 0.002406 -0.334309
 22 3.926704 0.316307 -0.458794 0.013729 0.025114 -0.537224
 23 1.539110 -0.000008 0.000008 0.000000 0.002914 -0.561620
 24 1.196323 0.000000 -0.000015 -0.000000 0.004796 -0.744628
 25 3.883694 0.211037 0.404106 0.091079 -0.102654 -0.336106
 26 1.719578 0.000015 -0.000015 -0.000000 0.005013 -0.680296
 27 1.209175 0.000008 0.000000 -0.000000 0.002808 -0.530215
 28 3.867672 0.115967 1.301201 0.361172 -0.307765 -0.424235
 29 1.719421 -0.000004 0.000000 -0.000000 0.005105 -0.876204
 30 1.099655 0.000004 -0.000015 -0.000000 0.003243 -0.558112
 31 0.837292 -0.302055 1.313438 -1.418910 -0.585425 -0.411855
 32 1.789780 0.000000 -0.000008 -0.392970 0.058130 -0.103184
 33 1.207016 -0.000008 -0.000008 0.000000 -0.003294 1.086686
 34 2.056808 0.981239 -1.937609 2.682423 1.380077 1.012401
 35 6.028149 0.000008 0.000008 1.415549 -0.047256 -1.453634
 36 11.692551 -0.000011 0.000007 0.000000 -0.000000 -1.983356
 37 11.481689 -0.000008 0.000001 -1.348003 -0.061045 0.332930
 38 3.851862 0.133065 1.220459 0.494313 -0.097759 -1.141906
 39 1.312561 0.000004 0.000000 -0.000000 -0.007097 -0.826609
 40 0.729366 -0.000004 -0.000008 -0.000000 -0.003653 -0.935199
 41 3.926664 0.319868 0.458389 0.166720 -0.127387 -1.076926
 42 1.539095 0.000000 0.000015 0.000000 -0.004404 -0.870443
 43 1.196318 -0.000002 0.000008 0.000000 -0.007266 -1.448866
 44 3.883650 0.207493 -0.403709 0.103787 -0.274161 -0.673786
 45 1.719584 -0.000004 0.000000 0.000000 -0.007590 -1.320343
 46 1.209179 0.000000 0.000008 0.000000 -0.004245 -1.170289
 47 3.867641 0.104973 -1.303947 -0.315433 0.154362 -0.106074
 48 1.719433 0.000000 0.000000 0.000000 -0.007728 -0.850767
 49 1.099659 -0.000002 0.000000 -0.000000 -0.004918 -0.732111
 50 0.837265 -0.312958 -1.310539 1.175425 0.303547 -0.981087
 51 1.789776 0.000000 0.000000 0.000000 0.200217 0.487566
 52 1.207003 0.000015 -0.000001 0.000000 0.201946 0.621931
time 12
  0 2.646170 -84.794319 37.582512 1.840614 -0.022445 0.161787
  1 3.890450 -0.000004 0.000000 -1.552856 0.330219 -1.472595
  2 17.848171 -0.000008 0.000001 0.000000 -0.000000 0.366276
  3 16.525257 -0.000004 -0.000000 0.117372 0.060462 -0.448098
  4 6.879459 -0.000004 -0.000000 -0.003632 -0.003550 -1.107942
  5 -3.890449 0.000004 0.000000 -0.474355 -1.211508 -2.501692
  6 17.848167 0.000015 -0.000002 0.000000 -0.000000 1.079835
  7 16.525259 0.000015 -0.000004 -0.097384 -0.100828 -1.211128
  8 6.879478 0.000000 0.000001 -0.082053 -0.003418 -0.584373
  9 -0.000001 3.345131 -2.981903 1.515592 -0.155977 1.417916
 10 3.998787 -0.000008 -0.000004 -0.266921 0.127720 0.210813
 11 3.520309 0.000000 0.000001 -0.253632 0.152780 0.416292
 12 8.923134 -0.000004 0.000000 -0.176317 0.006136 0.363690
 13 3.306351 0.000000 -0.000002 3.141590 0.000000 0.697011
 14 3.601517 0.000000 0.000000 -0.137379 -0.413329 0.543824
 15 2.056763 0.981236 1.937658 -2.856095 -1.139908 1.135597
 16 6.028149 0.000000 0.000000 2.982527 -0.659543 0.750818
 17 11.692547 0.000015 -0.000008 0.000000 0.000000 -2.252888
 18 11.481676 0.000008 -0.000023 1.547303 0.323262 -0.030600
 19 3.851898 0.123230 -1.223221 -0.175078 0.232930 -0.626253
 20 1.312565 0.000008 -0.000008 0.000000 0.004679 -0.753589
 21 0.729370 -0.000004 0.000008 0.000000 0.002406 -0.334309
 22 3.926701 0.316330 -0.458794 0.013729 0.025114 -0.537224
 23 1.539114 0.000000 0.000000 0.000000 0.002914 -0.561620
 24 1.196320 -0.000011 -0.000008 0.000000 0.004796 -0.744628
 25 3.883686 0.211060 0.404106 0.091079 -0.102654 -0.336106
 26 1.719582 -0.000008 0.000015 0.000000 0.005013 -0.680296
 27 1.209175 0.000008 0.000008 -0.000000 0.002808 -0.530215
 28 3.867676 0.115974 1.301231 0.361172 -0.307765 -0.424235
 29 1.719414 0.000000 0.000000 0.000000 0.005105 -0.876204
 30 1.099648 0.000000 0.000000 -0.000000 0.003243 -0.558112
 31 0.837296 -0.302032 1.313446 -1.418910 -0.585425 -0.411855
 32 1.789787 -0.000008 0.000004 -0.392970 0.058130 -0.103184
 33 1.207001 0.000000 0.000008 0.000000 -0.003294 1.086686
 34 2.056778 0.981243 -1.937613 2.533076 1.361153 0.865318
 35 6.028145 0.000000 -0.000006 1.434092 -0.027255 -1.487560
 36 11.692566 0.000008 0.000000 -0.000000 -0.000000 -1.965564
 37 11.481701 0.000008 -0.000001 -1.360980 -0.030879 0.376679
 38 3.851866 0.133066 1.220451 0.494313 -0.097759 -1.141906
 39 1.312563 0.000015 0.000015 -0.000000 -0.007097 -0.826609
 40 0.729355 0.000000 0.000000 -0.000000 -0.003653 -0.935199
 41 3.926670 0.319874 0.458389 0.166720 -0.127387 -1.076926
 42 1.539101 0.000004 0.000008 0.000000 -0.004404 -0.870443
 43 1.196320 0.000004 -0.000008 0.000000 -0.007266 -1.448866
 44 3.883656 0.207497 -0.403679 0.103787 -0.274161 -0.673786
 45 1.719578 0.000008 0.000015 0.000000 -0.007590 -1.320343
 46 1.209179 0.000000 -0.000008 0.000000 -0.004245 -1.170289
 47 3.867640 0.104981 -1.303925 -0.315433 0.154362 -0.106074
 48 1.719429 0.000004 -0.000008 0.000000 -0.007728 -0.850767
 49 1.099665 -0.000002 -0.000008 0.000000 -0.004918 -0.732111
 50 0.837273 -0.312944 -1.310516 1.175425 0.303547 -0.981087
 51 1.789778 0.000000 -0.000002 0.000000 0.200217 0.487566
 52 1.207001 0.000008 0.000001 0.000000 0.201946 0.621931
time 13
  0 1.837551 -91.751976 37.609856 1.869586 0.007299 0.128370
  1 3.890446 0.000004 0.000015 -1.529572 0.219711 -1.454274
  2 17.848183 0.000000 0.000001 0.000000 0.000000 0.713646
  3 16.525253 0.000010 0.000000 0.077498 0.049812 -0.346421
  4 6.879459 -0.000004 -0.000000 -0.005154 -0.006606 -1.107942
  5 -3.890448 0.000000 0.000015 -0.888487 -1.162260 -2.020250
  6 17.848167 0.000000 0.000000 -0.000000 -0.000000 0.786427
  7 16.525261 -0.000008 0.000004 -0.115576 -0.090721 -1.185963
  8 6.879456 0.000004 -0.000000 -0.082388 -0.003646 -0.584373
  9 -0.000003 3.345142 -2.981895 1.510836 -0.156636 1.448392
 10 3.998795 0.000008 0.000000 -0.230619 0.125383 0.201782
 11 3.520294 0.000000 0.000000 -0.217611 0.147027 0.408047
 12 8.923111 0.000000 -0.000002 -0.157046 0.008353 0.364457
 13 3.306366 0.000008 0.000000 3.141590 0.000000 0.697011
 14 3.601513 0.000015 0.000004 -0.160819 -0.406485 0.546108
 15 2.056778 0.981239 1.937660 -2.759084 -1.130759 1.046972
 16 6.028141 0.000008 0.000000 2.903958 -0.661907 0.768198
 17 11.692551 0.000000 -0.000008 -0.000000 0.000000 -2.252888
 18 11.481672 0.000000 -0.000031 1.547303 0.323262 -0.030600
 19 3.851894 0.123230 -1.223213 -0.175078 0.232930 -0.626253
 20 1.312563 0.000000 0.000008 0.000000 0.004679 -0.753589
 21 0.729362 0.000000 0.000008 -0.000000 0.002406 -0.334309
 22 3.926697 0.316315 -0.458794 0.013729 0.025114 -0.537224
 23 1.539104 0.000000 -0.000008 0.000000 0.002914 -0.561620
 24 1.196320 -0.000004 -0.000015 -0.000000 0.004796 -0.744628
 25 3.883690 0.211052 0.404099 0.091079 -0.102654 -0.336106
 26 1.719585 0.000000 0.000008 0.000000 0.005013 -0.680296
 27 1.209190 0.000004 0.000008 0.000000 0.002808 -0.530215
 28 3.867672 0.115967 1.301224 0.361172 -0.307765 -0.424235
 29 1.719452 0.000008 0.000000 0.000000 0.005105 -0.876204
 30 1.099655 -0.000015 0.000000 -0.000000 0.003243 -0.558112
 31 0.837299 -0.302040 1.313454 -1.418910 -0.585425 -0.411855
 32 1.789772 0.000000 0.000000 -0.392970 0.058130 -0.103184
 33 1.207001 0.000004 0.000000 -0.000000 -0.003294 1.086686
 34 2.056793 0.981243 -1.937611 2.395590 1.332335 0.730685
 35 6.028145 0.000015 -0.000002 1.471266 -0.011932 -1.527823
 36 11.692551 0.000004 0.000003 -0.000000 -0.000000 -1.958375
 37 11.481693 0.000008 -0.000003 -1.374916 0.010243 0.438955
 38 3.851866 0.133066 1.220467 0.494313 -0.097759 -1.141906
 39 1.312569 0.000000 0.000000 -0.000000 -0.007097 -0.826609
 40 0.729362 0.000000 0.000008 -0.000000 -0.003653 -0.935199
 41 3.926664 0.319865 0.458389 0.166720 -0.127387 -1.076926
 42 1.539095 -0.000004 0.000000 0.000000 -0.004404 -0.870443
 43 1.196327 0.000000 -0.000008 0.000000 -0.007266 -1.448866
 44 3.883650 0.207493 -0.403679 0.103787 -0.274161 -0.673786
 45 1.719578 0.000000 -0.000008 -0.000000 -0.007590 -1.320343
 46 1.209169 0.000000 0.000000 0.000000 -0.004245 -1.170289
 47 3.867638 0.104978 -1.303917 -0.315433 0.154362 -0.106074
 48 1.719437 0.000002 0.000000 0.000000 -0.007728 -0.850767
 49 1.099665 -0.000004 -0.000023 0.000000 -0.004918 -0.732111
 50 0.837267 -0.312951 -1.310509 1.175425 0.303547 -0.981087
 51 1.789782 0.000000 -0.000008 0.000000 0.200217 0.487566
 52 1.206997 0.000015 0.000003 0.000000 0.201946 0.621931
time 14
  0 1.021120 -98.708694 37.043434 1.889490 0.017366 0.080929
  1 3.890448 0.000000 -0.000008 -1.503312 0.050582 -1.488691
  2 17.848183 -0.000008 0.000000 0.000000 0.000000 1.213501
  3 16.525269 -0.000002 -0.000001 0.023614 0.071412 -0.478980
  4 6.879463 0.000000 -0.000001 -0.009097 -0.014528 -1.107903
  5 -3.890448 -0.000008 0.000000 -1.237243 -0.965179 -1.662489
  6 17.848179 -0.000008 0.000002 -0.000000 0.000000 0.499567
  7 16.525259 0.000008 0.000000 -0.121352 -0.063254 -1.062266
  8 6.879456 -0.000004 -0.000001 -0.081993 -0.003382 -0.584373
  9 -0.000001 3.345123 -2.981903 1.509216 -0.156813 1.458584
 10 3.998817 0.000000 0.000000 -0.178115 0.117533 0.197532
 11 3.520309 0.000000 0.000002 -0.165967 0.134203 0.404682
 12 8.923134 0.000000 0.000000 -0.129230 0.011529 0.365428
 13 3.306366 0.000004 0.000006 3.141590 0.000000 0.697011
 14 3.601521 0.000000 0.000000 -0.202910 -0.368458 0.552575
 15 2.056778 0.981243 1.937654 -2.679599 -1.122436 0.973965
 16 6.028137 -0.000015 0.000008 2.810097 -0.669862 0.805480
 17 11.692566 0.000008 -0.000008 -0.000000 -0.000000 -2.252888
 18 11.481676 0.000008 -0.000008 1.547303 0.323262 -0.030600
 19 3.851887 0.123230 -1.223228 -0.175078 0.232930 -0.626253
 20 1.312569 -0.000015 0.000023 0.000000 0.004679 -0.753589
 21 0.729362 -0.000004 0.000008 0.000000 0.002406 -0.334309
 22 3.926704 0.316315 -0.458794 0.013729 0.025114 -0.537224
 23 1.539101 0.000000 0.000000 -0.000000 0.002914 -0.561620
 24 1.196312 0.000008 0.000008 0.000000 0.004796 -0.744628
 25 3.883690 0.211052 0.404106 0.091079 -0.102654 -0.336106
 26 1.719578 0.000000 0.000000 0.000000 0.005013 -0.680296
 27 1.209183 0.000006 0.000000 -0.000000 0.002808 -0.530215
 28 3.867672 0.115967 1.301224 0.361172 -0.307765 -0.424235
 29 1.719440 0.000004 0.000008 0.000000 0.005105 -0.876204
 30 1.099663 0.000011 0.000000 -0.000000 0.003255 -0.558112
 31 0.837299 -0.302040 1.313446 -1.418910 -0.585425 -0.411855
 32 1.789772 -0.000008 -0.000011 -0.392970 0.058130 -0.103184
 33 1.207001 0.000000 0.000008 0.000000 -0.003294 1.086686
 34 2.056801 0.981243 -1.937611 2.310836 1.304184 0.648678
 35 6.028138 0.000023 -0.000004 1.522014 0.002389 -1.568553
 36 11.692566 -0.000002 0.000003 0.000000 -0.000000 -1.962006
 37 11.481697 0.000015 -0.000003 -1.384637 0.054631 0.511277
 38 3.851862 0.133060 1.220467 0.494313 -0.097759 -1.141906
 39 1.312562 -0.000008 0.000000 0.000000 -0.007097 -0.826609
 40 0.729355 0.000004 0.000000 -0.000000 -0.003653 -0.935199
 41 3.926670 0.319860 0.458382 0.166720 -0.127387 -1.076926
 42 1.539095 0.000008 0.000000 -0.000000 -0.004404 -0.870443
 43 1.196320 0.000004 0.000008 -0.000000 -0.007266 -1.448866
 44 3.883656 0.207489 -0.403702 0.103787 -0.274161 -0.673786
 45 1.719582 0.000011 0.000008 -0.000000 -0.007590 -1.320343
 46 1.209179 0.000004 0.000000 0.000000 -0.004245 -1.170289
 47 3.867640 0.104971 -1.303917 -0.315433 0.154362 -0.106074
 48 1.719435 0.000000 -0.000008 0.000000 -0.007728 -0.850767
 49 1.099655 -0.000006 0.000000 -0.000000 -0.004918 -0.732111
 50 0.837269 -0.312957 -1.310524 1.175425 0.303547 -0.981087
 51 1.789785 -0.000008 -0.000002 0.000000 0.200217 0.487566
 52 1.207008 -0.000008 -0.000001 -0.000000 0.201946 0.621931
time 15
  0 0.290629 -105.664841 35.762142 1.896792 0.028041 0.025528
  1 3.890446 -0.000015 0.000008 -1.533618 -0.148261 -1.478942
  2 17.848179 0.000008 0.000000 -0.000000 -0.000000 1.710782
  3 16.525269 0.000000 0.000000 0.034239 0.107536 -0.734591
  4 6.879456 0.000000 -0.000000 -0.011614 -0.019550 -1.107865
  5 -3.890447 -0.000015 0.000008 -1.372725 -0.880316 -1.553413
  6 17.848188 0.000000 -0.000001 -0.000000 -0.000000 0.616850
  7 16.525255 -0.000008 0.000001 -0.124990 -0.029111 -1.049447
  8 6.879456 0.000015 -0.000000 -0.081333 -0.002951 -0.584373
  9 -0.000001 3.345123 -2.981903 1.507547 -0.156989 1.469373
 10 3.998802 -0.000008 0.000000 -0.115867 0.105285 0.200371
 11 3.520294 -0.000004 -0.000001 -0.105118 0.116023 0.408193
 12 8.923119 -0.000011 -0.000004 -0.096308 0.015244 0.366339
 13 3.306366 0.000008 0.000004 3.141590 -0.000000 0.697011
 14 3.601532 0.000000 0.000000 -0.254974 -0.312845 0.560715
 15 2.056793 0.981239 1.937660 -2.643783 -1.121887 0.940431
 16 6.028145 0.000000 -0.000004 2.711648 -0.675817 0.863505
 17 11.692558 0.000000 -0.000008 -0.000000 -0.000000 -2.252888
 18 11.481682 0.000000 -0.000023 1.547303 0.323262 -0.030600
 19 3.851891 0.123230 -1.223244 -0.175078 0.232930 -0.626253
 20 1.312555 0.000000 0.000000 -0.000000 0.004679 -0.753589
 21 0.729370 0.000000 0.000015 -0.000000 0.002406 -0.334309
 22 3.926697 0.316307 -0.458809 0.013729 0.025114 -0.537224
 23 1.539124 0.000000 0.000000 0.000000 0.002914 -0.561620
 24 1.196320 0.000000 0.000000 -0.000000 0.004796 -0.744628
 25 3.883690 0.211060 0.404099 0.091079 -0.102654 -0.336106
 26 1.719589 0.000000 0.000015 0.000000 0.005013 -0.680296
 27 1.209183 0.000004 0.000023 -0.000000 0.002808 -0.530215
 28 3.867672 0.115959 1.301208 0.361172 -0.307765 -0.424235
 29 1.719414 -0.000004 -0.000015 -0.000000 0.005105 -0.876204
 30 1.099663 -0.000004 -0.000008 0.000000 0.003255 -0.558112
 31 0.837299 -0.302040 1.313431 -1.418910 -0.585425 -0.411855
 32 1.789780 0.000000 0.000004 -0.392970 0.058130 -0.103184
 33 1.206993 0.000000 0.000008 0.000000 -0.003294 1.086686
 34 2.056778 0.981247 -1.937613 2.291678 1.289540 0.631105
 35 6.028142 -0.000008 0.000000 -1.568033 3.122878 1.550392
 36 11.692558 0.000000 0.000001 -0.000000 0.000000 -1.977038
 37 11.481689 0.000008 -0.000001 -1.387941 0.095368 0.584833
 38 3.851856 0.133065 1.220451 0.494313 -0.097759 -1.141906
 39 1.312563 -0.000008 -0.000008 0.000000 -0.007097 -0.826609
 40 0.729366 0.000000 0.000008 -0.000000 -0.003653 -0.935199
 41 3.926670 0.319872 0.458389 0.166720 -0.127387 -1.076926
 42 1.539097 0.000000 -0.000008 0.000000 -0.004404 -0.870443
 43 1.196323 -0.000004 0.000000 -0.000000 -0.007266 -1.448866
 44 3.883659 0.207498 -0.403687 0.103787 -0.274161 -0.673786
 45 1.719578 -0.000004 0.000000 -0.000000 -0.007590 -1.320343
 46 1.209181 0.000000 -0.000015 0.000000 -0.004245 -1.170289
 47 3.867645 0.104981 -1.303917 -0.315433 0.154362 -0.106074
 48 1.719431 0.000002 -0.000008 0.000000 -0.007728 -0.850767
 49 1.099665 -0.000002 0.000015 0.000000 -0.004918 -0.732111
 50 0.837265 -0.312947 -1.310501 1.175425 0.303547 -0.981087
 51 1.789776 0.000000 -0.000004 0.000000 0.200217 0.487566
 52 1.207005 -0.000015 0.000000 0.000000 0.201946 0.621931
time 16
  0 -0.142978 -112.620598 34.883209 1.882011 0.069221 -0.032021
  1 3.890448 0.000015 0.000000 -1.482852 -0.401191 -1.468015
  2 17.848183 0.000008 -0.000002 0.000000 -0.000000 2.091996
  3 16.525253 0.000004 0.000000 -0.072083 0.190877 -1.027279
  4 6.879456 -0.000008 -0.000001 -0.006149 -0.008596 -1.107942
  5 -3.890448 0.000000 0.000000 -1.408201 -0.786261 -1.494136
  6 17.848173 0.000000 0.000004 0.000000 0.000000 0.895487
  7 16.525261 -0.000008 0.000000 -0.141681 -0.079682 -1.400292
  8 6.879448 0.000000 -0.000000 -0.081333 -0.002951 -0.584373
  9 -0.000001 3.345123 -2.981895 1.501019 -0.157519 1.511086
 10 3.998802 -0.000008 0.000000 -0.050395 0.090256 0.206846
 11 3.520309 0.000008 0.000000 -0.041379 0.094726 0.414981
 12 8.923119 0.000008 -0.000002 -0.061709 0.019127 0.367046
 13 3.306358 0.000000 0.000000 3.141590 -0.000000 0.697011
 14 3.601532 -0.000008 0.000004 -0.309198 -0.252690 0.568500
 15 2.056793 0.981232 1.937660 -2.685440 -1.137356 0.976839
 16 6.028133 -0.000008 0.000000 2.628587 -0.689228 0.924801
 17 11.692558 0.000008 0.000008 -0.000000 -0.000000 -2.252888
 18 11.481665 0.000015 -0.000031 1.547303 0.323262 -0.030600
 19 3.851898 0.123230 -1.223213 -0.175078 0.232930 -0.626253
 20 1.312563 0.000000 -0.000008 0.000000 0.004679 -0.753589
 21 0.729362 -0.000008 -0.000015 0.000000 0.002406 -0.334309
 22 3.926701 0.316315 -0.458778 0.013729 0.025114 -0.537224
 23 1.539097 0.000008 -0.000008 0.000000 0.002914 -0.561620
 24 1.196312 -0.000004 -0.000023 0.000000 0.004796 -0.744628
 25 3.883690 0.211052 0.404099 0.091079 -0.102654 -0.336106
 26 1.719566 0.000000 0.000000 -0.000000 0.005013 -0.680296
 27 1.209167 0.000008 -0.000008 -0.000000 0.002808 -0.530215
 28 3.867664 0.115974 1.301201 0.361172 -0.307765 -0.424235
 29 1.719429 0.000000 0.000015 0.000000 0.005105 -0.876204
 30 1.099655 -0.000008 0.000015 0.000000 0.003243 -0.558112
 31 0.837299 -0.302040 1.313446 -1.418910 -0.585425 -0.411855
 32 1.789787 0.000000 -0.000004 -0.392970 0.058130 -0.103184
 33 1.206985 -0.000004 0.000000 -0.000000 -0.003294 1.086686
 34 2.056801 0.981239 -1.937609 2.366670 1.301240 0.705149
 35 6.028142 0.000000 -0.000006 1.610290 0.017235 -1.570603
 36 11.692566 0.000002 0.000004 0.000000 0.000000 -2.004124
 37 11.481689 -0.000015 -0.000002 -1.385882 0.127334 0.650183
 38 3.851866 0.133060 1.220444 0.494313 -0.097759 -1.141906
 39 1.312566 0.000000 0.000000 0.000000 -0.007097 -0.826609
 40 0.729355 0.000000 0.000000 0.000000 -0.003653 -0.935199
 41 3.926666 0.319866 0.458397 0.166720 -0.127387 -1.076926
 42 1.539099 0.000000 0.000000 -0.000000 -0.004404 -0.870443
 43 1.196320 0.000000 0.000000 0.000000 -0.007266 -1.448866
 44 3.883657 0.207489 -0.403725 0.103787 -0.274161 -0.673786
 45 1.719574 0.000004 0.000000 -0.000000 -0.007590 -1.320343
 46 1.209179 -0.000004 -0.000008 0.000000 -0.004245 -1.170289
 47 3.867641 0.104975 -1.303940 -0.315433 0.154362 -0.106074
 48 1.719433 0.000002 0.000008 0.000000 -0.007728 -0.850767
 49 1.099661 0.000000 -0.000008 0.000000 -0.004918 -0.732111
 50 0.837273 -0.312959 -1.310509 1.175425 0.303547 -0.981087
 51 1.789783 -0.000023 -0.000002 -0.000000 0.200217 0.487566
 52 1.207003 0.000000 0.000002 0.000000 0.201946 0.621931
time 17
  0 -0.221105 -119.576042 34.664455 1.845796 0.127006 -0.086663
  1 3.890446 0.000000 0.000008 -1.459873 -0.701430 -1.369932
  2 17.848183 -0.000008 -0.000004 -0.000000 -0.000000 2.274236
  3 16.525246 -0.000004 0.000004 -0.166527 0.266575 -1.224059
  4 6.879463 0.000000 -0.000001 -0.003908 -0.004102 -1.107942
  5 -3.890447 0.000000 0.000015 -1.580509 -0.507159 -1.386225
  6 17.848179 0.000000 -0.000002 -0.000000 0.000000 0.843672
  7 16.525261 -0.000023 0.000001 -0.076294 -0.035488 -1.592341
  8 6.879456 0.000008 -0.000000 -0.081333 -0.002951 -0.584373
  9 -0.000002 3.345139 -2.981895 1.491760 -0.157792 1.570050
 10 3.998802 0.000000 -0.000001 0.011757 0.074592 0.214151
 11 3.520294 0.000008 0.000000 0.018965 0.073094 0.422221
 12 8.923111 -0.000008 -0.000002 -0.028871 0.022783 0.367453
 13 3.306351 0.000004 0.000000 3.141590 0.000000 0.697011
 14 3.601524 0.000000 -0.000006 -0.358199 -0.201788 0.562130
 15 2.056778 0.981234 1.937660 -2.790782 -1.160873 1.072266
 16 6.028137 0.000000 0.000006 2.569995 -0.720822 0.980958
 17 11.692558 -0.000008 0.000015 0.000000 0.000000 -2.252888
 18 11.481678 0.000015 -0.000038 1.547303 0.323262 -0.030600
 19 3.851894 0.123222 -1.223236 -0.175078 0.232930 -0.626253
 20 1.312563 0.000000 -0.000015 -0.000000 0.004679 -0.753589
 21 0.729378 -0.000004 0.000015 0.000000 0.002406 -0.334309
 22 3.926697 0.316307 -0.458786 0.013729 0.025114 -0.537224
 23 1.539101 -0.000004 -0.000015 0.000000 0.002914 -0.561620
 24 1.196320 0.000000 0.000000 0.000000 0.004796 -0.744628
 25 3.883694 0.211044 0.404099 0.091079 -0.102654 -0.336106
 26 1.719574 0.000004 0.000000 0.000000 0.005013 -0.680296
 27 1.209183 0.000008 0.000015 0.000000 0.002808 -0.530215
 28 3.867668 0.115959 1.301216 0.361172 -0.307765 -0.424235
 29 1.719429 0.000004 0.000000 0.000000 0.005105 -0.876204
 30 1.099648 -0.000004 0.000008 0.000000 0.003243 -0.558112
 31 0.837292 -0.302055 1.313446 -1.418910 -0.585425 -0.411855
 32 1.789780 0.000000 0.000000 -0.392970 0.058130 -0.103184
 33 1.206985 0.000008 0.000000 0.000000 -0.003294 1.086686
 34 2.056793 0.981239 -1.937605 2.531160 1.327152 0.866509
 35 6.028142 0.000000 -0.000011 1.624131 -0.010500 -1.533509
 36 11.692558 -0.000004 0.000003 0.000000 0.000000 -2.042829
 37 11.481701 0.000008 -0.000004 -1.381716 0.147728 0.697089
 38 3.851860 0.133066 1.220467 0.494313 -0.097759 -1.141906
 39 1.312564 -0.000008 0.000000 0.000000 -0.007097 -0.826609
 40 0.729370 0.000000 0.000008 0.000000 -0.003653 -0.935199
 41 3.926666 0.319870 0.458389 0.166720 -0.127387 -1.076926
 42 1.539095 0.000004 0.000008 -0.000000 -0.004404 -0.870443
 43 1.196320 0.000008 0.000015 0.000000 -0.007266 -1.448866
 44 3.883652 0.207491 -0.403694 0.103787 -0.274161 -0.673786
 45 1.719574 0.000000 -0.000008 -0.000000 -0.007590 -1.320343
 46 1.209183 0.000000 0.000000 -0.000000 -0.004245 -1.170289
 47 3.867641 0.104977 -1.303925 -0.315433 0.154362 -0.106074
 48 1.719429 0.000000 -0.000015 0.000000 -0.007728 -0.850767
 49 1.099663 -0.000004 0.000000 0.000000 -0.004918 -0.732111
 50 0.837261 -0.312948 -1.310516 1.175425 0.303547 -0.981087
 51 1.789780 0.000008 0.000002 0.000000 0.200217 0.487566
 52 1.207003 -0.000015 0.000002 -0.000000 0.201946 0.621931
time 18
  0 -0.002349 -126.531258 35.035561 1.806460 0.155716 -0.132778
  1 3.890448 0.000008 0.000000 -1.925853 -1.040091 -0.907000
  2 17.848190 0.000008 -0.000002 -0.000000 -0.000000 2.229944
  3 16.525238 -0.000002 0.000000 -0.045165 0.241543 -1.179558
  4 6.879452 0.000023 -0.000002 -0.003248 -0.002795 -1.107942
  5 -3.890447 0.000008 -0.000008 -1.572823 -0.183471 -1.412096
  6 17.848175 -0.000008 -0.000006 -0.000000 0.000000 0.642877
  7 16.525253 0.000008 0.000000 -0.072224 -0.086078 -1.526212
  8 6.879463 0.000008 -0.000000 -0.079859 -0.003035 -0.733628
  9 0.000001 3.345131 -2.981911 1.487054 -0.157728 1.599930
 10 3.998810 0.000015 0.000000 0.063267 0.060930 0.220011
 11 3.520294 -0.000023 -0.000002 0.068885 0.054494 0.427786
 12 8.923080 -0.000008 -0.000004 -0.001678 0.025815 0.367621
 13 3.306381 0.000000 0.000004 3.141590 0.000000 0.697011
 14 3.601509 0.000000 0.000000 -0.394165 -0.176452 0.536231
 15 2.056793 0.981239 1.937662 -2.904551 -1.178660 1.176699
 16 6.028141 0.000000 0.000000 2.530520 -0.757826 1.035900
 17 11.692551 0.000000 0.000000 0.000000 -0.000000 -2.252888
 18 11.481674 0.000000 -0.000038 1.547303 0.323262 -0.030600
 19 3.851898 0.123222 -1.223221 -0.175078 0.232930 -0.626253
 20 1.312571 0.000000 0.000015 0.000000 0.004679 -0.753589
 21 0.729355 0.000000 -0.000031 -0.000000 0.002406 -0.334309
 22 3.926708 0.316307 -0.458801 0.013729 0.025114 -0.537224
 23 1.539101 0.000008 -0.000015 -0.000000 0.002914 -0.561620
 24 1.196320 0.000004 -0.000015 -0.000000 0.004796 -0.744628
 25 3.883698 0.211052 0.404099 0.091079 -0.102654 -0.336106
 26 1.719582 0.000000 0.000000 -0.000000 0.005013 -0.680296
 27 1.209198 0.000008 0.000000 0.000000 0.002808 -0.530215
 28 3.867680 0.115974 1.301224 0.361172 -0.307765 -0.424235
 29 1.719429 0.000002 0.000000 -0.000000 0.005105 -0.876204
 30 1.099663 -0.000004 0.000000 0.000000 0.003243 -0.558112
 31 0.837303 -0.302048 1.313446 -1.418910 -0.585425 -0.411855
 32 1.789780 0.000015 0.000000 -0.392970 0.058130 -0.103184
 33 1.206963 0.000011 0.000015 -0.000000 -0.003294 1.086686
 34 2.056808 0.981237 -1.937611 2.721105 1.345801 1.053129
 35 6.028142 0.000000 0.000000 1.623598 -0.043246 -1.518876
 36 11.692566 0.000008 0.000002 0.000000 -0.000000 -2.090539
 37 11.481709 0.000008 0.000000 -1.379609 0.154903 0.715011
 38 3.851860 0.133068 1.220459 0.494313 -0.097759 -1.141906
 39 1.312566 -0.000023 -0.000008 -0.000000 -0.007097 -0.826609
 40 0.729370 0.000000 0.000000 0.000000 -0.003653 -0.935199
 41 3.926670 0.319868 0.458389 0.166720 -0.127387 -1.076926
 42 1.539093 -0.000008 -0.000023 0.000000 -0.004404 -0.870443
 43 1.196320 0.000000 0.000023 -0.000000 -0.007266 -1.448866
 44 3.883661 0.207495 -0.403702 0.103787 -0.274161 -0.673786
 45 1.719585 -0.000004 -0.000015 -0.000000 -0.007590 -1.320343
 46 1.209183 0.000011 0.000015 -0.000000 -0.004245 -1.170289
 47 3.867651 0.104977 -1.303940 -0.315433 0.154362 -0.106074
 48 1.719427 0.000000 -0.000015 0.000000 -0.007728 -0.850767
 49 1.099663 0.000000 -0.000015 0.000000 -0.004918 -0.732111
 50 0.837273 -0.312948 -1.310516 1.175425 0.303547 -0.981087
 51 1.789780 0.000000 0.000000 -0.000000 0.200217 0.487566
 52 1.207005 0.000031 -0.000002 0.000000 0.201946 0.621931
end
