// Created by Crowbar 0.51.0.0
version 1
nodes
  0 "ValveBiped.Bip01_Pelvis" -1
  1 "ValveBiped.Bip01_L_Thigh" 0
  2 "ValveBiped.Bip01_L_Calf" 1
  3 "ValveBiped.Bip01_L_Foot" 2
  4 "ValveBiped.Bip01_L_Toe0" 3
  5 "ValveBiped.Bip01_R_Thigh" 0
  6 "ValveBiped.Bip01_R_Calf" 5
  7 "ValveBiped.Bip01_R_Foot" 6
  8 "ValveBiped.Bip01_R_Toe0" 7
  9 "ValveBiped.Bip01_Spine" 0
  10 "ValveBiped.Bip01_Spine1" 9
  11 "ValveBiped.Bip01_Spine2" 10
  12 "ValveBiped.Bip01_Spine4" 11
  13 "ValveBiped.Bip01_Neck1" 12
  14 "ValveBiped.Bip01_Head1" 13
  15 "ValveBiped.Bip01_L_Clavicle" 12
  16 "ValveBiped.Bip01_L_UpperArm" 15
  17 "ValveBiped.Bip01_L_Forearm" 16
  18 "ValveBiped.Bip01_L_Hand" 17
  19 "ValveBiped.Bip01_L_Finger4" 18
  20 "ValveBiped.Bip01_L_Finger41" 19
  21 "ValveBiped.Bip01_L_Finger42" 20
  22 "ValveBiped.Bip01_L_Finger3" 18
  23 "ValveBiped.Bip01_L_Finger31" 22
  24 "ValveBiped.Bip01_L_Finger32" 23
  25 "ValveBiped.Bip01_L_Finger2" 18
  26 "ValveBiped.Bip01_L_Finger21" 25
  27 "ValveBiped.Bip01_L_Finger22" 26
  28 "ValveBiped.Bip01_L_Finger1" 18
  29 "ValveBiped.Bip01_L_Finger11" 28
  30 "ValveBiped.Bip01_L_Finger12" 29
  31 "ValveBiped.Bip01_L_Finger0" 18
  32 "ValveBiped.Bip01_L_Finger01" 31
  33 "ValveBiped.Bip01_L_Finger02" 32
  34 "ValveBiped.Bip01_R_Clavicle" 12
  35 "ValveBiped.Bip01_R_UpperArm" 34
  36 "ValveBiped.Bip01_R_Forearm" 35
  37 "ValveBiped.Bip01_R_Hand" 36
  38 "ValveBiped.Bip01_R_Finger4" 37
  39 "ValveBiped.Bip01_R_Finger41" 38
  40 "ValveBiped.Bip01_R_Finger42" 39
  41 "ValveBiped.Bip01_R_Finger3" 37
  42 "ValveBiped.Bip01_R_Finger31" 41
  43 "ValveBiped.Bip01_R_Finger32" 42
  44 "ValveBiped.Bip01_R_Finger2" 37
  45 "ValveBiped.Bip01_R_Finger21" 44
  46 "ValveBiped.Bip01_R_Finger22" 45
  47 "ValveBiped.Bip01_R_Finger1" 37
  48 "ValveBiped.Bip01_R_Finger11" 47
  49 "ValveBiped.Bip01_R_Finger12" 48
  50 "ValveBiped.Bip01_R_Finger0" 37
  51 "ValveBiped.Bip01_R_Finger01" 50
  52 "ValveBiped.Bip01_R_Finger02" 51
  53 "ValveBiped.Annabelle_Null" 37
end
skeleton
  time 0
    0 0.767206 2.371171 35.406665 1.645876 0.219341 0.265242   # pos: anim   rot: anim
    1 3.890452 -0.000005 -0.000003 -1.643356 -0.524881 -1.165822   # pos: pos   rot: anim
    2 17.848175 0.000000 0.000001 0.000000 0.000000 0.832893   # pos: pos   rot: anim
    3 16.525253 0.000000 0.000001 -0.045018 0.030602 -1.348437   # pos: pos   rot: anim
    4 6.879455 0.000000 0.000000 -0.007299 -0.002951 -0.584373   # pos: pos   rot: anim
    5 -3.890452 0.000005 0.000007 -0.906900 -0.225987 -1.735129   # pos: pos   rot: anim
    6 17.848175 -0.000001 -0.000001 0.000000 0.000000 0.539343   # pos: pos   rot: anim
    7 16.525259 -0.000001 0.000000 0.185891 -0.112557 -1.183030   # pos: pos   rot: anim
    8 6.879456 0.000000 0.000000 -0.081333 -0.002951 -0.584373   # pos: pos   rot: rot
    9 -0.324224 3.329502 -2.981901 1.570796 0.086293 1.668938   # pos: anim   rot: anim
    10 4.018332 0.000000 0.000000 0.003823 -0.117737 -0.029458   # pos: pos   rot: anim
    11 3.518565 0.000000 0.000001 -0.101922 -0.052109 0.100103   # pos: pos   rot: anim
    12 8.942640 0.000000 -0.000001 -0.135522 -0.126342 0.194947   # pos: pos   rot: anim
    13 3.307271 0.000001 0.000000 3.141590 0.000000 0.400478   # pos: pos   rot: rot
    14 3.593713 -0.000001 0.000001 0.000000 -0.000001 0.406587   # pos: pos   rot: anim
    15 2.033345 1.000767 1.937662 2.131006 -1.233471 2.383238   # pos: pos   rot: anim
    16 6.028145 0.000000 0.000000 -1.666688 -0.622901 -0.440716   # pos: pos   rot: anim
    17 11.692550 0.000000 0.000002 0.000000 0.000000 -1.899409   # pos: pos   rot: anim
    18 11.481673 0.000001 -0.000033 1.123444 -0.287734 0.440862   # pos: pos   rot: anim
    19 3.859704 -0.142407 -1.191976 -0.463410 -0.186147 -1.428480   # pos: pos   rot: anim
    20 1.312561 0.000000 -0.000001 0.000000 0.066184 -0.827641   # pos: pos   rot: anim
    21 0.729362 0.000000 -0.000001 0.000000 0.000009 -0.594039   # pos: pos   rot: anim
    22 3.942325 0.046770 -0.431444 -0.161989 -0.106345 -1.434486   # pos: pos   rot: anim
    23 1.539093 0.000000 0.000000 0.000000 0.006390 -0.777649   # pos: pos   rot: anim
    24 1.196320 0.000001 -0.000001 0.000000 0.000002 -1.170567   # pos: pos   rot: anim
    25 3.883687 -0.046772 0.431442 0.049936 -0.030483 -1.249513   # pos: pos   rot: anim
    26 1.719575 0.000001 -0.000002 0.000000 0.033584 -1.110956   # pos: pos   rot: anim
    27 1.209180 0.000001 -0.000001 0.000000 0.000004 -1.111215   # pos: pos   rot: anim
    28 3.859862 -0.137949 1.332465 0.283488 0.115914 -1.212794   # pos: pos   rot: anim
    29 1.719429 -0.000002 0.000003 0.000000 -0.152217 -1.133732   # pos: pos   rot: anim
    30 1.099665 0.000002 -0.000001 0.000000 0.000007 -1.021295   # pos: pos   rot: anim
    31 0.806048 -0.348923 1.321257 -1.241196 -0.251322 -0.849459   # pos: pos   rot: anim
    32 1.789785 0.000000 0.000003 0.000000 -0.036081 0.257592   # pos: pos   rot: anim
    33 1.206999 -0.000001 0.000003 0.000000 0.000001 0.303713   # pos: pos   rot: anim
    34 2.033352 1.000771 -1.937609 -0.940384 1.168095 3.716415   # pos: pos   rot: anim
    35 6.028142 -0.000005 0.000000 0.815445 0.353722 -1.041024   # pos: pos   rot: anim
    36 11.692543 0.000000 -0.000005 0.000000 0.000000 -1.938283   # pos: pos   rot: anim
    37 11.481694 0.000000 0.000000 -1.497418 0.149543 -0.148712   # pos: pos   rot: anim
    38 3.859672 -0.132568 1.193110 0.498203 0.156937 -0.982261   # pos: pos   rot: anim
    39 1.312562 -0.000001 0.000002 0.000000 -0.456987 -1.112956   # pos: pos   rot: anim
    40 0.729365 0.000000 0.000000 0.000000 -0.000010 -0.672062   # pos: pos   rot: anim
    41 3.942293 0.050329 0.431045 0.160536 0.000249 -0.910199   # pos: pos   rot: anim
    42 1.539097 -0.000001 -0.000003 0.000000 -0.214757 -1.281163   # pos: pos   rot: anim
    43 1.196321 0.000001 0.000000 0.000000 -0.000003 -0.797323   # pos: pos   rot: anim
    44 3.883657 -0.050327 -0.431040 -0.084946 -0.177602 -0.644875   # pos: pos   rot: anim
    45 1.719577 -0.000003 0.000003 0.000000 -0.031656 -1.425526   # pos: pos   rot: anim
    46 1.209186 -0.000001 -0.000002 -0.003428 0.022229 -0.934697   # pos: pos   rot: anim
    47 3.859828 -0.148934 -1.331280 -0.321533 -0.122638 -0.062432   # pos: pos   rot: anim
    48 1.719425 -0.000001 0.000001 0.000000 0.126416 -0.583374   # pos: pos   rot: anim
    49 1.099666 -0.000003 0.000001 -0.051342 0.069075 -1.042844   # pos: pos   rot: anim
    50 0.806017 -0.359834 -1.318331 1.282844 0.248629 -0.715183   # pos: pos   rot: anim
    51 1.789781 0.000002 0.000001 0.000000 -0.010076 0.141894   # pos: pos   rot: anim
    52 1.207000 0.000000 0.000000 0.000300 0.002007 1.187250   # pos: pos   rot: anim
    53 3.202716 -1.851488 0.187594 0.000000 0.000000 0.000000   # pos: pos   rot: rot
  time 1
    0 1.165656 2.156321 35.312912 1.650999 0.214596 0.295079   # pos: anim   rot: anim
    1 3.890452 -0.000005 -0.000003 -1.655721 -0.540200 -1.174413   # pos: pos   rot: anim
    2 17.848175 0.000000 0.000001 0.000000 0.000000 0.850004   # pos: pos   rot: anim
    3 16.525253 0.000000 0.000001 -0.034540 0.031716 -1.357848   # pos: pos   rot: anim
    4 6.879455 0.000000 0.000000 -0.007299 -0.002927 -0.584373   # pos: pos   rot: anim
    5 -3.890452 0.000005 0.000007 -0.873537 -0.231090 -1.749657   # pos: pos   rot: anim
    6 17.848175 -0.000001 -0.000001 0.000000 0.000000 0.566242   # pos: pos   rot: anim
    7 16.525259 -0.000001 0.000000 0.165830 -0.141106 -1.197032   # pos: pos   rot: anim
    8 6.879456 0.000000 0.000000 -0.081333 -0.002951 -0.584373   # pos: pos   rot: rot
    9 -0.324224 3.329502 -2.981901 1.570796 0.085312 1.668441   # pos: anim   rot: anim
    10 4.018332 0.000000 0.000000 0.000839 -0.118504 -0.026984   # pos: pos   rot: anim
    11 3.518565 0.000000 0.000001 -0.104601 -0.056244 0.103920   # pos: pos   rot: anim
    12 8.942640 0.000000 -0.000001 -0.132286 -0.124867 0.195966   # pos: pos   rot: anim
    13 3.307271 0.000001 0.000000 3.141590 0.000000 0.400478   # pos: pos   rot: rot
    14 3.593713 -0.000001 0.000001 0.085701 0.019122 0.395487   # pos: pos   rot: anim
    15 2.033345 1.000767 1.937662 2.133496 -1.238654 2.381513   # pos: pos   rot: anim
    16 6.028145 0.000000 0.000000 -1.681790 -0.630871 -0.441370   # pos: pos   rot: anim
    17 11.692550 0.000000 0.000002 0.000000 0.000000 -1.892341   # pos: pos   rot: anim
    18 11.481673 0.000001 -0.000033 1.131809 -0.276400 0.440641   # pos: pos   rot: anim
    19 3.859704 -0.142407 -1.191976 -0.456216 -0.188784 -1.445684   # pos: pos   rot: anim
    20 1.312561 0.000000 -0.000001 0.000129 0.066148 -0.834662   # pos: pos   rot: anim
    21 0.729362 0.000000 -0.000001 0.000132 -0.000913 -0.597932   # pos: pos   rot: anim
    22 3.942325 0.046770 -0.431444 -0.161498 -0.107040 -1.449478   # pos: pos   rot: anim
    23 1.539093 0.000000 0.000000 0.000036 0.006186 -0.783929   # pos: pos   rot: anim
    24 1.196320 0.000001 -0.000001 0.000036 -0.000285 -1.182097   # pos: pos   rot: anim
    25 3.883687 -0.046772 0.431442 0.048270 -0.031597 -1.261803   # pos: pos   rot: anim
    26 1.719575 0.000001 -0.000002 -0.000048 0.034363 -1.121663   # pos: pos   rot: anim
    27 1.209180 0.000001 -0.000001 -0.000048 0.000340 -1.121948   # pos: pos   rot: anim
    28 3.859862 -0.137949 1.332465 0.277472 0.116214 -1.224800   # pos: pos   rot: anim
    29 1.719429 -0.000002 0.000003 -0.000168 -0.153080 -1.144904   # pos: pos   rot: anim
    30 1.099665 0.000002 -0.000001 -0.000168 0.001170 -1.030986   # pos: pos   rot: anim
    31 0.806048 -0.348923 1.321257 -1.238926 -0.250556 -0.855048   # pos: pos   rot: anim
    32 1.789785 0.000000 0.000003 0.000000 -0.036549 0.257543   # pos: pos   rot: anim
    33 1.206999 -0.000001 0.000003 0.000000 0.000013 0.303713   # pos: pos   rot: anim
    34 2.033352 1.000771 -1.937609 -0.954991 1.173129 3.700421   # pos: pos   rot: anim
    35 6.028142 -0.000005 0.000000 0.820945 0.357827 -1.055098   # pos: pos   rot: anim
    36 11.692543 0.000000 -0.000005 0.000000 0.000000 -1.933245   # pos: pos   rot: anim
    37 11.481694 0.000000 0.000000 -1.494292 0.140462 -0.142999   # pos: pos   rot: anim
    38 3.859672 -0.132568 1.193110 0.494423 0.159646 -0.993122   # pos: pos   rot: anim
    39 1.312562 -0.000001 0.000002 -0.000132 -0.462121 -1.123808   # pos: pos   rot: anim
    40 0.729365 0.000000 0.000000 -0.000132 0.000949 -0.677044   # pos: pos   rot: anim
    41 3.942293 0.050329 0.431045 0.161039 -0.000422 -0.918093   # pos: pos   rot: anim
    42 1.539097 -0.000001 -0.000003 -0.000048 -0.217310 -1.294180   # pos: pos   rot: anim
    43 1.196321 0.000001 0.000000 -0.000048 0.000308 -0.803852   # pos: pos   rot: anim
    44 3.883657 -0.050327 -0.431040 -0.084095 -0.179543 -0.649160   # pos: pos   rot: anim
    45 1.719577 -0.000003 0.000003 0.000036 -0.032375 -1.440466   # pos: pos   rot: anim
    46 1.209186 -0.000001 -0.000002 -0.003428 0.022229 -0.943070   # pos: pos   rot: anim
    47 3.859828 -0.148934 -1.331280 -0.317638 -0.123716 -0.059128   # pos: pos   rot: anim
    48 1.719425 -0.000001 0.000001 0.000168 0.126967 -0.587203   # pos: pos   rot: anim
    49 1.099666 -0.000003 0.000001 -0.051857 0.068871 -1.052818   # pos: pos   rot: anim
    50 0.806017 -0.359834 -1.318331 1.281263 0.248074 -0.718963   # pos: pos   rot: anim
    51 1.789781 0.000002 0.000001 0.000000 -0.010244 0.140324   # pos: pos   rot: anim
    52 1.207000 0.000000 0.000000 0.000300 0.002007 1.199030   # pos: pos   rot: anim
    53 3.202716 -1.851488 0.187594 0.000000 0.000000 0.000000   # pos: pos   rot: rot
  time 2
    0 2.282877 1.558646 35.058998 1.664131 0.201062 0.378890   # pos: anim   rot: anim
    1 3.890452 -0.000005 -0.000003 -1.683230 -0.577689 -1.199421   # pos: pos   rot: anim
    2 17.848175 0.000000 0.000001 0.000000 0.000000 0.893539   # pos: pos   rot: anim
    3 16.525253 0.000000 0.000001 -0.010567 0.031364 -1.384142   # pos: pos   rot: anim
    4 6.879455 0.000000 0.000000 -0.007299 -0.002867 -0.584373   # pos: pos   rot: anim
    5 -3.890452 0.000005 0.000007 -0.787720 -0.241888 -1.788114   # pos: pos   rot: anim
    6 17.848175 -0.000001 -0.000001 0.000000 0.000000 0.636376   # pos: pos   rot: anim
    7 16.525259 -0.000001 0.000000 0.112450 -0.214128 -1.231232   # pos: pos   rot: anim
    8 6.879456 0.000000 0.000000 -0.081333 -0.002951 -0.584373   # pos: pos   rot: rot
    9 -0.320317 3.333409 -2.981901 1.570796 0.082520 1.667048   # pos: anim   rot: anim
    10 4.018332 0.000000 0.000000 -0.007562 -0.119726 -0.019978   # pos: pos   rot: anim
    11 3.518565 0.000000 0.000001 -0.112055 -0.066982 0.114685   # pos: pos   rot: anim
    12 8.942640 0.000000 -0.000001 -0.123178 -0.120745 0.198842   # pos: pos   rot: anim
    13 3.307271 0.000001 0.000000 3.141590 0.000000 0.400478   # pos: pos   rot: rot
    14 3.593713 -0.000001 0.000001 0.300370 0.064334 0.377340   # pos: pos   rot: anim
    15 2.033345 1.000767 1.937662 2.140870 -1.253181 2.376052   # pos: pos   rot: anim
    16 6.028145 0.000000 0.000000 -1.725471 -0.652874 -0.441557   # pos: pos   rot: anim
    17 11.692550 0.000000 0.000002 0.000000 0.000000 -1.872427   # pos: pos   rot: anim
    18 11.481673 0.000001 -0.000033 1.153353 -0.245520 0.440273   # pos: pos   rot: anim
    19 3.859704 -0.142407 -1.191976 -0.439896 -0.194404 -1.483614   # pos: pos   rot: anim
    20 1.312561 0.000000 -0.000001 0.000437 0.066052 -0.850157   # pos: pos   rot: anim
    21 0.729362 0.000000 -0.000001 0.000443 -0.002951 -0.606594   # pos: pos   rot: anim
    22 3.942325 0.046770 -0.431444 -0.160299 -0.108538 -1.482432   # pos: pos   rot: anim
    23 1.539093 0.000000 0.000000 0.000132 0.005754 -0.797762   # pos: pos   rot: anim
    24 1.196320 0.000001 -0.000001 0.000132 -0.000908 -1.207441   # pos: pos   rot: anim
    25 3.883687 -0.046772 0.431442 0.044579 -0.034078 -1.288852   # pos: pos   rot: anim
    26 1.719575 0.000001 -0.000002 -0.000156 0.036077 -1.145271   # pos: pos   rot: anim
    27 1.209180 0.000001 -0.000001 -0.000156 0.001059 -1.145590   # pos: pos   rot: anim
    28 3.859862 -0.137949 1.332465 0.264097 0.116765 -1.251206   # pos: pos   rot: anim
    29 1.719429 -0.000002 0.000003 -0.000551 -0.154973 -1.169510   # pos: pos   rot: anim
    30 1.099665 0.000002 -0.000001 -0.000551 0.003723 -1.052313   # pos: pos   rot: anim
    31 0.806048 -0.348923 1.321257 -1.234020 -0.248846 -0.867254   # pos: pos   rot: anim
    32 1.789785 0.000000 0.000003 0.000000 -0.037603 0.257468   # pos: pos   rot: anim
    33 1.206999 -0.000001 0.000003 0.000000 0.000013 0.303713   # pos: pos   rot: anim
    34 2.033352 1.000771 -1.937609 -0.998050 1.186870 3.653492   # pos: pos   rot: anim
    35 6.028142 -0.000005 0.000000 0.835762 0.369857 -1.094988   # pos: pos   rot: anim
    36 11.692543 0.000000 -0.000005 0.000000 0.000000 -1.919861   # pos: pos   rot: anim
    37 11.481694 0.000000 0.000000 -1.488105 0.114437 -0.126281   # pos: pos   rot: anim
    38 3.859672 -0.132568 1.193110 0.485871 0.165638 -1.017032   # pos: pos   rot: anim
    39 1.312562 -0.000001 0.000002 -0.000455 -0.473440 -1.147706   # pos: pos   rot: anim
    40 0.729365 0.000000 0.000000 -0.000455 0.003046 -0.687964   # pos: pos   rot: anim
    41 3.942293 0.050329 0.431045 0.162130 -0.001873 -0.935513   # pos: pos   rot: anim
    42 1.539097 -0.000001 -0.000003 -0.000156 -0.222907 -1.322770   # pos: pos   rot: anim
    43 1.196321 0.000001 0.000000 -0.000156 0.001015 -0.818251   # pos: pos   rot: anim
    44 3.883657 -0.050327 -0.431040 -0.082202 -0.183810 -0.658715   # pos: pos   rot: anim
    45 1.719577 -0.000003 0.000003 0.000144 -0.033957 -1.473271   # pos: pos   rot: anim
    46 1.209186 -0.000001 -0.000002 -0.003428 0.022229 -0.961508   # pos: pos   rot: anim
    47 3.859828 -0.148934 -1.331280 -0.309069 -0.126101 -0.051817   # pos: pos   rot: anim
    48 1.719425 -0.000001 0.000001 0.000539 0.128178 -0.595673   # pos: pos   rot: anim
    49 1.099666 -0.000003 0.000001 -0.052996 0.068392 -1.074735   # pos: pos   rot: anim
    50 0.806017 -0.359834 -1.318331 1.277772 0.246862 -0.727274   # pos: pos   rot: anim
    51 1.789781 0.000002 0.000001 0.000000 -0.010579 0.136861   # pos: pos   rot: anim
    52 1.207000 0.000000 0.000000 0.000300 0.002007 1.224951   # pos: pos   rot: anim
    53 3.202716 -1.851488 0.187594 0.000000 0.000000 0.000000   # pos: pos   rot: rot
  time 3
    0 3.974335 0.625024 34.664455 1.680973 0.179895 0.507551   # pos: anim   rot: anim
    1 3.890452 -0.000005 -0.000003 -1.708823 -0.621833 -1.240466   # pos: pos   rot: anim
    2 17.848175 0.000000 0.000001 0.000000 0.000000 0.951081   # pos: pos   rot: anim
    3 16.525253 0.000000 0.000001 0.014044 0.024040 -1.425333   # pos: pos   rot: anim
    4 6.879455 0.000000 0.000000 -0.007299 -0.002759 -0.584373   # pos: pos   rot: anim
    5 -3.890452 0.000005 0.000007 -0.679014 -0.252594 -1.840399   # pos: pos   rot: anim
    6 17.848175 -0.000001 -0.000001 0.000000 0.000000 0.731214   # pos: pos   rot: anim
    7 16.525259 -0.000001 0.000000 0.039757 -0.305891 -1.272290   # pos: pos   rot: anim
    8 6.879456 0.000000 0.000000 -0.081333 -0.002951 -0.584373   # pos: pos   rot: rot
    9 -0.312505 3.333409 -2.981901 1.570796 0.078205 1.664861   # pos: anim   rot: anim
    10 4.018332 0.000000 0.000000 -0.020613 -0.119846 -0.009153   # pos: pos   rot: anim
    11 3.518565 0.000000 0.000001 -0.123460 -0.081795 0.131321   # pos: pos   rot: anim
    12 8.942640 0.000000 -0.000001 -0.109096 -0.114369 0.203252   # pos: pos   rot: anim
    13 3.307271 0.000001 0.000000 3.141590 0.000000 0.400478   # pos: pos   rot: rot
    14 3.593713 -0.000001 0.000001 0.581098 0.114043 0.373608   # pos: pos   rot: anim
    15 2.033345 1.000767 1.937662 2.153415 -1.275600 2.366471   # pos: pos   rot: anim
    16 6.028145 0.000000 0.000000 -1.796106 -0.686416 -0.435951   # pos: pos   rot: anim
    17 11.692550 0.000000 0.000002 0.000000 0.000000 -1.841417   # pos: pos   rot: anim
    18 11.481673 0.000001 -0.000033 1.181447 -0.201038 0.440788   # pos: pos   rot: anim
    19 3.859704 -0.142407 -1.191976 -0.422963 -0.199761 -1.521598   # pos: pos   rot: anim
    20 1.312561 0.000000 -0.000001 0.000746 0.065969 -0.865652   # pos: pos   rot: anim
    21 0.729362 0.000000 -0.000001 0.000743 -0.004976 -0.615221   # pos: pos   rot: anim
    22 3.942325 0.046770 -0.431444 -0.158933 -0.109988 -1.515434   # pos: pos   rot: anim
    23 1.539093 0.000000 0.000000 0.000228 0.005311 -0.811594   # pos: pos   rot: anim
    24 1.196320 0.000001 -0.000001 0.000228 -0.001544 -1.232754   # pos: pos   rot: anim
    25 3.883687 -0.046772 0.431442 0.040852 -0.036619 -1.315841   # pos: pos   rot: anim
    26 1.719575 0.000001 -0.000002 -0.000264 0.037791 -1.168878   # pos: pos   rot: anim
    27 1.209180 0.000001 -0.000001 -0.000264 0.001790 -1.169196   # pos: pos   rot: anim
    28 3.859862 -0.137949 1.332465 0.250543 0.117148 -1.277581   # pos: pos   rot: anim
    29 1.719429 -0.000002 0.000003 -0.000935 -0.156879 -1.194116   # pos: pos   rot: anim
    30 1.099665 0.000002 -0.000001 -0.000935 0.006287 -1.073604   # pos: pos   rot: anim
    31 0.806048 -0.348923 1.321257 -1.229041 -0.247059 -0.879461   # pos: pos   rot: anim
    32 1.789785 0.000000 0.000003 0.000000 -0.038658 0.257394   # pos: pos   rot: anim
    33 1.206999 -0.000001 0.000003 0.000000 0.000025 0.303713   # pos: pos   rot: anim
    34 2.033352 1.000771 -1.937609 -1.071088 1.206511 3.574479   # pos: pos   rot: anim
    35 6.028142 -0.000005 0.000000 0.857498 0.389333 -1.157994   # pos: pos   rot: anim
    36 11.692543 0.000000 -0.000005 0.000000 0.000000 -1.900762   # pos: pos   rot: anim
    37 11.481694 0.000000 0.000000 -1.485378 0.071796 -0.098789   # pos: pos   rot: anim
    38 3.859672 -0.132568 1.193110 0.477043 0.171654 -1.041009   # pos: pos   rot: anim
    39 1.312562 -0.000001 0.000002 -0.000767 -0.484744 -1.171573   # pos: pos   rot: anim
    40 0.729365 0.000000 0.000000 -0.000767 0.005143 -0.698918   # pos: pos   rot: anim
    41 3.942293 0.050329 0.431045 0.163160 -0.003311 -0.952933   # pos: pos   rot: anim
    42 1.539097 -0.000001 -0.000003 -0.000264 -0.228504 -1.351360   # pos: pos   rot: anim
    43 1.196321 0.000001 0.000000 -0.000264 0.001722 -0.832649   # pos: pos   rot: anim
    44 3.883657 -0.050327 -0.431040 -0.080296 -0.188064 -0.668220   # pos: pos   rot: anim
    45 1.719577 -0.000003 0.000003 0.000240 -0.035539 -1.506111   # pos: pos   rot: anim
    46 1.209186 -0.000001 -0.000002 -0.003428 0.022229 -0.979946   # pos: pos   rot: anim
    47 3.859828 -0.148934 -1.331280 -0.300488 -0.128486 -0.044505   # pos: pos   rot: anim
    48 1.719425 -0.000001 0.000001 0.000911 0.129388 -0.604110   # pos: pos   rot: anim
    49 1.099666 -0.000003 0.000001 -0.054122 0.067924 -1.096685   # pos: pos   rot: anim
    50 0.806017 -0.359834 -1.318331 1.274281 0.245624 -0.735561   # pos: pos   rot: anim
    51 1.789781 0.000002 0.000001 -0.000012 -0.010927 0.133397   # pos: pos   rot: anim
    52 1.207000 0.000000 0.000000 0.000300 0.002007 1.250845   # pos: pos   rot: anim
    53 3.202716 -1.851488 0.187594 0.000000 0.000000 0.000000   # pos: pos   rot: rot
  time 4
    0 6.115025 -0.582044 34.168346 1.696636 0.153313 0.672416   # pos: anim   rot: anim
    1 3.890452 -0.000005 -0.000003 -1.715341 -0.659763 -1.295541   # pos: pos   rot: anim
    2 17.848175 0.000000 0.000001 0.000000 0.000000 1.013695   # pos: pos   rot: anim
    3 16.525253 0.000000 0.000001 0.025307 0.005428 -1.478678   # pos: pos   rot: anim
    4 6.879455 0.000000 0.000000 -0.007299 -0.002627 -0.584373   # pos: pos   rot: anim
    5 -3.890452 0.000005 0.000007 -0.587031 -0.268085 -1.893383   # pos: pos   rot: anim
    6 17.848175 -0.000001 -0.000001 0.000000 0.000000 0.835317   # pos: pos   rot: anim
    7 16.525259 -0.000001 0.000000 -0.031166 -0.381580 -1.314295   # pos: pos   rot: anim
    8 6.879456 0.000000 0.000000 -0.081333 -0.002951 -0.584373   # pos: pos   rot: rot
    9 -0.304692 3.333409 -2.981901 1.570796 0.072637 1.662077   # pos: anim   rot: anim
    10 4.018332 0.000000 0.000000 -0.037536 -0.117257 0.004826   # pos: pos   rot: anim
    11 3.518565 0.000000 0.000001 -0.137970 -0.098154 0.152765   # pos: pos   rot: anim
    12 8.942640 0.000000 -0.000001 -0.090951 -0.106160 0.208897   # pos: pos   rot: anim
    13 3.307271 0.000001 0.000000 3.141590 0.000000 0.400478   # pos: pos   rot: rot
    14 3.593713 -0.000001 0.000001 0.863970 0.146459 0.391980   # pos: pos   rot: anim
    15 2.033345 1.000767 1.937662 2.172185 -1.304458 2.351142   # pos: pos   rot: anim
    16 6.028145 0.000000 0.000000 -1.892739 -0.727831 -0.418758   # pos: pos   rot: anim
    17 11.692550 0.000000 0.000002 0.000000 0.000000 -1.800602   # pos: pos   rot: anim
    18 11.481673 0.000001 -0.000033 1.210409 -0.148307 0.442335   # pos: pos   rot: anim
    19 3.859704 -0.142407 -1.191976 -0.415052 -0.202086 -1.538911   # pos: pos   rot: anim
    20 1.312561 0.000000 -0.000001 0.000888 0.065933 -0.872713   # pos: pos   rot: anim
    21 0.729362 0.000000 -0.000001 0.000887 -0.005899 -0.619149   # pos: pos   rot: anim
    22 3.942325 0.046770 -0.431444 -0.158250 -0.110623 -1.530427   # pos: pos   rot: anim
    23 1.539093 0.000000 0.000000 0.000276 0.005107 -0.817875   # pos: pos   rot: anim
    24 1.196320 0.000001 -0.000001 0.000276 -0.001819 -1.244285   # pos: pos   rot: anim
    25 3.883687 -0.046772 0.431442 0.039150 -0.037793 -1.328131   # pos: pos   rot: anim
    26 1.719575 0.000001 -0.000002 -0.000324 0.038570 -1.179622   # pos: pos   rot: anim
    27 1.209180 0.000001 -0.000001 -0.000324 0.002113 -1.179929   # pos: pos   rot: anim
    28 3.859862 -0.137949 1.332465 0.244323 0.117280 -1.289555   # pos: pos   rot: anim
    29 1.719429 -0.000002 0.000003 -0.001103 -0.157742 -1.205288   # pos: pos   rot: anim
    30 1.099665 0.000002 -0.000001 -0.001103 0.007462 -1.083295   # pos: pos   rot: anim
    31 0.806048 -0.348923 1.321257 -1.226771 -0.246243 -0.884976   # pos: pos   rot: anim
    32 1.789785 0.000000 0.000003 0.000000 -0.039137 0.257369   # pos: pos   rot: anim
    33 1.206999 -0.000001 0.000003 0.000000 0.000037 0.303713   # pos: pos   rot: anim
    34 2.033352 1.000771 -1.937609 -1.177065 1.228421 3.460988   # pos: pos   rot: anim
    35 6.028142 -0.000005 0.000000 0.882340 0.416017 -1.241969   # pos: pos   rot: anim
    36 11.692543 0.000000 -0.000005 0.000000 0.000000 -1.878054   # pos: pos   rot: anim
    37 11.481694 0.000000 0.000000 -1.493493 0.014218 -0.060062   # pos: pos   rot: anim
    38 3.859672 -0.132568 1.193110 0.472933 0.174399 -1.051939   # pos: pos   rot: anim
    39 1.312562 -0.000001 0.000002 -0.000911 -0.489879 -1.182425   # pos: pos   rot: anim
    40 0.729365 0.000000 0.000000 -0.000911 0.006090 -0.703900   # pos: pos   rot: anim
    41 3.942293 0.050329 0.431045 0.163616 -0.003958 -0.960880   # pos: pos   rot: anim
    42 1.539097 -0.000001 -0.000003 -0.000312 -0.231044 -1.364377   # pos: pos   rot: anim
    43 1.196321 0.000001 0.000000 -0.000312 0.002034 -0.839213   # pos: pos   rot: anim
    44 3.883657 -0.050327 -0.431040 -0.079433 -0.190006 -0.672554   # pos: pos   rot: anim
    45 1.719577 -0.000003 0.000003 0.000288 -0.036258 -1.521051   # pos: pos   rot: anim
    46 1.209186 -0.000001 -0.000002 -0.003428 0.022229 -0.988320   # pos: pos   rot: anim
    47 3.859828 -0.148934 -1.331280 -0.296581 -0.129577 -0.041201   # pos: pos   rot: anim
    48 1.719425 -0.000001 0.000001 0.001079 0.129939 -0.607939   # pos: pos   rot: anim
    49 1.099666 -0.000003 0.000001 -0.054638 0.067709 -1.106625   # pos: pos   rot: anim
    50 0.806017 -0.359834 -1.318331 1.272701 0.245069 -0.739341   # pos: pos   rot: anim
    51 1.789781 0.000002 0.000001 -0.000012 -0.011095 0.131815   # pos: pos   rot: anim
    52 1.207000 0.000000 0.000000 0.000300 0.002007 1.262652   # pos: pos   rot: anim
    53 3.202716 -1.851488 0.187594 0.000000 0.000000 0.000000   # pos: pos   rot: rot
  time 5
    0 8.568225 -2.015682 33.590203 1.707118 0.124907 0.865123   # pos: anim   rot: anim
    1 3.890452 -0.000005 -0.000003 -1.691474 -0.685799 -1.358635   # pos: pos   rot: anim
    2 17.848175 0.000000 0.000001 0.000000 0.000000 1.077218   # pos: pos   rot: anim
    3 16.525253 0.000000 0.000001 0.012106 -0.026914 -1.537982   # pos: pos   rot: anim
    4 6.879455 0.000000 0.000000 -0.007299 -0.002472 -0.584373   # pos: pos   rot: anim
    5 -3.890452 0.000005 0.000007 -0.574023 -0.315195 -1.929664   # pos: pos   rot: anim
    6 17.848175 -0.000001 -0.000001 0.000000 0.000000 0.937795   # pos: pos   rot: anim
    7 16.525259 -0.000001 0.000000 -0.056959 -0.387062 -1.366565   # pos: pos   rot: anim
    8 6.879456 0.000000 0.000000 -0.081333 -0.002951 -0.584373   # pos: pos   rot: rot
    9 -0.292973 3.333409 -2.981901 1.570796 0.066106 1.658746   # pos: anim   rot: anim
    10 4.018332 0.000000 0.000000 -0.057538 -0.110402 0.021279   # pos: pos   rot: anim
    11 3.518565 0.000000 0.000001 -0.154747 -0.113554 0.177908   # pos: pos   rot: anim
    12 8.942640 0.000000 -0.000001 -0.069618 -0.096536 0.215465   # pos: pos   rot: anim
    13 3.307271 0.000001 0.000000 3.141590 0.000000 0.400478   # pos: pos   rot: rot
    14 3.593713 -0.000001 0.000001 1.080914 0.150049 0.424155   # pos: pos   rot: anim
    15 2.033345 1.000767 1.937662 2.199095 -1.338302 2.327764   # pos: pos   rot: anim
    16 6.028145 0.000000 0.000000 -2.015466 -0.773109 -0.391380   # pos: pos   rot: anim
    17 11.692550 0.000000 0.000002 0.000000 0.000000 -1.750970   # pos: pos   rot: anim
    18 11.481673 0.000001 -0.000033 1.241028 -0.088739 0.443071   # pos: pos   rot: anim
    19 3.859704 -0.142407 -1.191976 -0.426093 -0.198803 -1.514689   # pos: pos   rot: anim
    20 1.312561 0.000000 -0.000001 0.000695 0.065981 -0.862828   # pos: pos   rot: anim
    21 0.729362 0.000000 -0.000001 0.000695 -0.004605 -0.613643   # pos: pos   rot: anim
    22 3.942325 0.046770 -0.431444 -0.159197 -0.109725 -1.509423   # pos: pos   rot: anim
    23 1.539093 0.000000 0.000000 0.000216 0.005383 -0.809052   # pos: pos   rot: anim
    24 1.196320 0.000001 -0.000001 0.000216 -0.001424 -1.228160   # pos: pos   rot: anim
    25 3.883687 -0.046772 0.431442 0.041535 -0.036151 -1.310931   # pos: pos   rot: anim
    26 1.719575 0.000001 -0.000002 -0.000252 0.037479 -1.164602   # pos: pos   rot: anim
    27 1.209180 0.000001 -0.000001 -0.000252 0.001658 -1.164881   # pos: pos   rot: anim
    28 3.859862 -0.137949 1.332465 0.253023 0.117088 -1.272791   # pos: pos   rot: anim
    29 1.719429 -0.000002 0.000003 -0.000863 -0.156531 -1.189626   # pos: pos   rot: anim
    30 1.099665 0.000002 -0.000001 -0.000863 0.005832 -1.069749   # pos: pos   rot: anim
    31 0.806048 -0.348923 1.321257 -1.229920 -0.247391 -0.877255   # pos: pos   rot: anim
    32 1.789785 0.000000 0.000003 0.000000 -0.038466 0.257419   # pos: pos   rot: anim
    33 1.206999 -0.000001 0.000003 0.000000 0.000025 0.303713   # pos: pos   rot: anim
    34 2.033352 1.000771 -1.937609 -1.318463 1.248268 3.310912   # pos: pos   rot: anim
    35 6.028142 -0.000005 0.000000 0.902923 0.450911 -1.343934   # pos: pos   rot: anim
    36 11.692543 0.000000 -0.000005 0.000000 0.000000 -1.852414   # pos: pos   rot: anim
    37 11.481694 0.000000 0.000000 -1.518638 -0.052113 -0.009411   # pos: pos   rot: anim
    38 3.859672 -0.132568 1.193110 0.478671 0.170564 -1.036637   # pos: pos   rot: anim
    39 1.312562 -0.000001 0.000002 -0.000707 -0.482688 -1.167214   # pos: pos   rot: anim
    40 0.729365 0.000000 0.000000 -0.000707 0.004760 -0.696939   # pos: pos   rot: anim
    41 3.942293 0.050329 0.431045 0.162981 -0.003047 -0.949776   # pos: pos   rot: anim
    42 1.539097 -0.000001 -0.000003 -0.000240 -0.227485 -1.346146   # pos: pos   rot: anim
    43 1.196321 0.000001 0.000000 -0.000240 0.001591 -0.830038   # pos: pos   rot: anim
    44 3.883657 -0.050327 -0.431040 -0.080644 -0.187285 -0.666497   # pos: pos   rot: anim
    45 1.719577 -0.000003 0.000003 0.000228 -0.035251 -1.500156   # pos: pos   rot: anim
    46 1.209186 -0.000001 -0.000002 -0.003428 0.022229 -0.976606   # pos: pos   rot: anim
    47 3.859828 -0.148934 -1.331280 -0.302046 -0.128043 -0.045832   # pos: pos   rot: anim
    48 1.719425 -0.000001 0.000001 0.000839 0.129172 -0.602585   # pos: pos   rot: anim
    49 1.099666 -0.000003 0.000001 -0.053919 0.068008 -1.092682   # pos: pos   rot: anim
    50 0.806017 -0.359834 -1.318331 1.274906 0.245851 -0.734059   # pos: pos   rot: anim
    51 1.789781 0.000002 0.000001 -0.000012 -0.010867 0.134021   # pos: pos   rot: anim
    52 1.207000 0.000000 0.000000 0.000300 0.002007 1.246149   # pos: pos   rot: anim
    53 3.202716 -1.851488 0.187594 0.000000 0.000000 0.000000   # pos: pos   rot: rot
  time 6
    0 11.201118 -3.617293 32.969090 1.710416 0.099482 1.077595   # pos: anim   rot: anim
    1 3.890452 -0.000005 -0.000003 -1.633962 -0.703075 -1.420488   # pos: pos   rot: anim
    2 17.848175 0.000000 0.000001 0.000000 0.000000 1.140741   # pos: pos   rot: anim
    3 16.525253 0.000000 0.000001 -0.030835 -0.073963 -1.592225   # pos: pos   rot: anim
    4 6.879455 0.000000 0.000000 -0.007299 -0.002292 -0.584373   # pos: pos   rot: anim
    5 -3.890452 0.000005 0.000007 -0.771672 -0.450740 -1.901851   # pos: pos   rot: anim
    6 17.848175 -0.000001 -0.000001 0.000000 0.000000 1.030358   # pos: pos   rot: anim
    7 16.525259 -0.000001 0.000000 0.048205 -0.219368 -1.440736   # pos: pos   rot: anim
    8 6.879456 0.000000 0.000000 -0.081333 -0.002951 -0.584373   # pos: pos   rot: rot
    9 -0.281254 3.333409 -2.981901 1.570796 0.058880 1.655116   # pos: anim   rot: anim
    10 4.018332 0.000000 0.000000 -0.079817 -0.097674 0.039492   # pos: pos   rot: anim
    11 3.518565 0.000000 0.000001 -0.172943 -0.125479 0.205689   # pos: pos   rot: anim
    12 8.942640 0.000000 -0.000001 -0.046021 -0.085882 0.222667   # pos: pos   rot: anim
    13 3.307271 0.000001 0.000000 3.141590 0.000000 0.400478   # pos: pos   rot: rot
    14 3.593713 -0.000001 0.000001 1.162853 0.126270 0.456394   # pos: pos   rot: anim
    15 2.033345 1.000767 1.937662 2.238646 -1.375601 2.291643   # pos: pos   rot: anim
    16 6.028145 0.000000 0.000000 -2.164000 -0.823569 -0.368862   # pos: pos   rot: anim
    17 11.692550 0.000000 0.000002 0.000000 0.000000 -1.693738   # pos: pos   rot: anim
    18 11.481673 0.000001 -0.000033 1.286957 -0.017279 0.440788   # pos: pos   rot: anim
    19 3.859704 -0.142407 -1.191976 -0.463410 -0.186147 -1.428480   # pos: pos   rot: anim
    20 1.312561 0.000000 -0.000001 0.000000 0.066184 -0.827641   # pos: pos   rot: anim
    21 0.729362 0.000000 -0.000001 0.000000 0.000009 -0.594039   # pos: pos   rot: anim
    22 3.942325 0.046770 -0.431444 -0.161989 -0.106345 -1.434486   # pos: pos   rot: anim
    23 1.539093 0.000000 0.000000 0.000000 0.006390 -0.777649   # pos: pos   rot: anim
    24 1.196320 0.000001 -0.000001 0.000000 0.000002 -1.170567   # pos: pos   rot: anim
    25 3.883687 -0.046772 0.431442 0.049936 -0.030483 -1.249513   # pos: pos   rot: anim
    26 1.719575 0.000001 -0.000002 0.000000 0.033584 -1.110956   # pos: pos   rot: anim
    27 1.209180 0.000001 -0.000001 0.000000 0.000004 -1.111215   # pos: pos   rot: anim
    28 3.859862 -0.137949 1.332465 0.283488 0.115914 -1.212794   # pos: pos   rot: anim
    29 1.719429 -0.000002 0.000003 0.000000 -0.152217 -1.133732   # pos: pos   rot: anim
    30 1.099665 0.000002 -0.000001 0.000000 0.000007 -1.021295   # pos: pos   rot: anim
    31 0.806048 -0.348923 1.321257 -1.241196 -0.251322 -0.849459   # pos: pos   rot: anim
    32 1.789785 0.000000 0.000003 0.000000 -0.036081 0.257592   # pos: pos   rot: anim
    33 1.206999 -0.000001 0.000003 0.000000 0.000001 0.303713   # pos: pos   rot: anim
    34 2.033352 1.000771 -1.937609 -1.492514 1.261513 3.127699   # pos: pos   rot: anim
    35 6.028142 -0.000005 0.000000 0.908069 0.496117 -1.457082   # pos: pos   rot: anim
    36 11.692543 0.000000 -0.000005 0.000000 0.000000 -1.822262   # pos: pos   rot: anim
    37 11.481694 0.000000 0.000000 -1.562542 -0.113902 0.051938   # pos: pos   rot: anim
    38 3.859672 -0.132568 1.193110 0.498203 0.156937 -0.982261   # pos: pos   rot: anim
    39 1.312562 -0.000001 0.000002 0.000000 -0.456987 -1.112956   # pos: pos   rot: anim
    40 0.729365 0.000000 0.000000 0.000000 -0.000010 -0.672062   # pos: pos   rot: anim
    41 3.942293 0.050329 0.431045 0.160536 0.000249 -0.910199   # pos: pos   rot: anim
    42 1.539097 -0.000001 -0.000003 0.000000 -0.214757 -1.281163   # pos: pos   rot: anim
    43 1.196321 0.000001 0.000000 0.000000 -0.000003 -0.797323   # pos: pos   rot: anim
    44 3.883657 -0.050327 -0.431040 -0.084946 -0.177602 -0.644875   # pos: pos   rot: anim
    45 1.719577 -0.000003 0.000003 0.000000 -0.031656 -1.425526   # pos: pos   rot: anim
    46 1.209186 -0.000001 -0.000002 -0.003428 0.022229 -0.934697   # pos: pos   rot: anim
    47 3.859828 -0.148934 -1.331280 -0.321533 -0.122638 -0.062432   # pos: pos   rot: anim
    48 1.719425 -0.000001 0.000001 0.000000 0.126416 -0.583374   # pos: pos   rot: anim
    49 1.099666 -0.000003 0.000001 -0.051342 0.069075 -1.042844   # pos: pos   rot: anim
    50 0.806017 -0.359834 -1.318331 1.282844 0.248629 -0.715183   # pos: pos   rot: anim
    51 1.789781 0.000002 0.000001 0.000000 -0.010076 0.141894   # pos: pos   rot: anim
    52 1.207000 0.000000 0.000000 0.000300 0.002007 1.187250   # pos: pos   rot: anim
    53 3.202716 -1.851488 0.187594 0.000000 0.000000 0.000000   # pos: pos   rot: rot
  time 7
    0 14.064487 -5.316563 32.320633 1.707236 0.081721 1.302230   # pos: anim   rot: anim
    1 3.890452 -0.000005 -0.000003 -1.586516 -0.716192 -1.454182   # pos: pos   rot: anim
    2 17.848175 0.000000 0.000001 0.000000 0.000000 1.205173   # pos: pos   rot: anim
    3 16.525253 0.000000 0.000001 -0.083787 -0.109137 -1.635923   # pos: pos   rot: anim
    4 6.879455 0.000000 0.000000 -0.007299 -0.002112 -0.584373   # pos: pos   rot: anim
    5 -3.890452 0.000005 0.000007 -1.316894 -0.640866 -1.695508   # pos: pos   rot: anim
    6 17.848175 -0.000001 -0.000001 0.000000 0.000000 1.105286   # pos: pos   rot: anim
    7 16.525259 -0.000001 0.000000 0.328162 0.161053 -1.455258   # pos: pos   rot: anim
    8 6.879456 0.000000 0.000000 -0.081333 -0.002951 -0.584373   # pos: pos   rot: rot
    9 -0.265628 3.337315 -2.981901 1.570796 0.051249 1.651288   # pos: anim   rot: anim
    10 4.018332 0.000000 0.000000 -0.103475 -0.081148 0.058784   # pos: pos   rot: anim
    11 3.518565 0.000000 0.000001 -0.191974 -0.135006 0.235013   # pos: pos   rot: anim
    12 8.942640 0.000000 -0.000001 -0.021057 -0.074640 0.230194   # pos: pos   rot: anim
    13 3.307271 0.000001 0.000000 3.141590 0.000000 0.400478   # pos: pos   rot: rot
    14 3.593713 -0.000001 0.000001 1.155110 0.089215 0.485705   # pos: pos   rot: anim
    15 2.033345 1.000767 1.937662 2.299553 -1.414628 2.233774   # pos: pos   rot: anim
    16 6.028145 0.000000 0.000000 -2.338819 -0.884053 -0.346623   # pos: pos   rot: anim
    17 11.692550 0.000000 0.000002 0.000000 0.000000 -1.627917   # pos: pos   rot: anim
    18 11.481673 0.000001 -0.000033 1.354903 0.063955 0.440641   # pos: pos   rot: anim
    19 3.859704 -0.142407 -1.191976 -0.501839 -0.170243 -1.330938   # pos: pos   rot: anim
    20 1.312561 0.000000 -0.000001 -0.000785 0.066412 -0.787589   # pos: pos   rot: anim
    21 0.729362 0.000000 -0.000001 -0.000791 0.005247 -0.571666   # pos: pos   rot: anim
    22 3.942325 0.046770 -0.431444 -0.164074 -0.102210 -1.349332   # pos: pos   rot: anim
    23 1.539093 0.000000 0.000000 -0.000240 0.007528 -0.741909   # pos: pos   rot: anim
    24 1.196320 0.000001 -0.000001 -0.000240 0.001632 -1.105033   # pos: pos   rot: anim
    25 3.883687 -0.046772 0.431442 0.059260 -0.024383 -1.179525   # pos: pos   rot: anim
    26 1.719575 0.000001 -0.000002 0.000288 0.029162 -1.049890   # pos: pos   rot: anim
    27 1.209180 0.000001 -0.000001 0.000288 -0.001866 -1.050151   # pos: pos   rot: anim
    28 3.859862 -0.137949 1.332465 0.316997 0.113625 -1.144495   # pos: pos   rot: anim
    29 1.719429 -0.000002 0.000003 0.000983 -0.147303 -1.070098   # pos: pos   rot: anim
    30 1.099665 0.000002 -0.000001 0.000983 -0.006632 -0.966192   # pos: pos   rot: anim
    31 0.806048 -0.348923 1.321257 -1.254010 -0.255507 -0.817766   # pos: pos   rot: anim
    32 1.789785 0.000000 0.000003 0.000000 -0.033361 0.257766   # pos: pos   rot: anim
    33 1.206999 -0.000001 0.000003 0.000000 -0.000023 0.303713   # pos: pos   rot: anim
    34 2.033352 1.000771 -1.937609 -1.686614 1.264236 2.923894   # pos: pos   rot: anim
    35 6.028142 -0.000005 0.000000 0.891833 0.554879 -1.570789   # pos: pos   rot: anim
    36 11.692543 0.000000 -0.000005 0.000000 0.000000 -1.785494   # pos: pos   rot: anim
    37 11.481694 0.000000 0.000000 -1.612034 -0.156971 0.123257   # pos: pos   rot: anim
    38 3.859672 -0.132568 1.193110 0.518645 0.141657 -0.920643   # pos: pos   rot: anim
    39 1.312562 -0.000001 0.000002 0.000815 -0.427741 -1.051230   # pos: pos   rot: anim
    40 0.729365 0.000000 0.000000 0.000815 -0.005427 -0.643772   # pos: pos   rot: anim
    41 3.942293 0.050329 0.431045 0.157468 0.004084 -0.865149   # pos: pos   rot: anim
    42 1.539097 -0.000001 -0.000003 0.000276 -0.200280 -1.207218   # pos: pos   rot: anim
    43 1.196321 0.000001 0.000000 0.000276 -0.001825 -0.760072   # pos: pos   rot: anim
    44 3.883657 -0.050327 -0.431040 -0.089788 -0.166564 -0.620250   # pos: pos   rot: anim
    45 1.719577 -0.000003 0.000003 -0.000252 -0.027569 -1.340642   # pos: pos   rot: anim
    46 1.209186 -0.000001 -0.000002 -0.003428 0.022229 -0.887037   # pos: pos   rot: anim
    47 3.859828 -0.148934 -1.331280 -0.343633 -0.116550 -0.081374   # pos: pos   rot: anim
    48 1.719425 -0.000001 0.000001 -0.000959 0.123288 -0.561535   # pos: pos   rot: anim
    49 1.099666 -0.000003 0.000001 -0.048406 0.070297 -0.986168   # pos: pos   rot: anim
    50 0.806017 -0.359834 -1.318331 1.291884 0.251659 -0.693667   # pos: pos   rot: anim
    51 1.789781 0.000002 0.000001 0.000012 -0.009189 0.150859   # pos: pos   rot: anim
    52 1.207000 0.000000 0.000000 0.000300 0.002007 1.120223   # pos: pos   rot: anim
    53 3.202716 -1.851488 0.187594 0.000000 0.000000 0.000000   # pos: pos   rot: rot
  time 8
    0 17.193488 -7.050991 31.656550 1.700582 0.074969 1.530856   # pos: anim   rot: anim
    1 3.890452 -0.000005 -0.000003 -1.592363 -0.731412 -1.433087   # pos: pos   rot: anim
    2 17.848175 0.000000 0.000001 0.000000 0.000000 1.269680   # pos: pos   rot: anim
    3 16.525253 0.000000 0.000001 -0.126384 -0.106383 -1.668980   # pos: pos   rot: anim
    4 6.879455 0.000000 0.000000 -0.007299 -0.001920 -0.584373   # pos: pos   rot: anim
    5 -3.890452 0.000005 0.000007 -1.754085 -0.705016 -1.503148   # pos: pos   rot: anim
    6 17.848175 -0.000001 -0.000001 0.000000 0.000000 1.158841   # pos: pos   rot: anim
    7 16.525259 -0.000001 0.000000 0.563385 0.386311 -1.380377   # pos: pos   rot: anim
    8 6.879456 0.000000 0.000000 -0.081333 -0.002951 -0.584373   # pos: pos   rot: rot
    9 -0.253909 3.337315 -2.981901 1.570796 0.043465 1.647360   # pos: anim   rot: anim
    10 4.018332 0.000000 0.000000 -0.127564 -0.064321 0.078425   # pos: pos   rot: anim
    11 3.518565 0.000000 0.000001 -0.211338 -0.144714 0.264862   # pos: pos   rot: anim
    12 8.942640 0.000000 -0.000001 0.004350 -0.063183 0.237756   # pos: pos   rot: anim
    13 3.307271 0.000001 0.000000 3.141590 0.000000 0.400478   # pos: pos   rot: rot
    14 3.593713 -0.000001 0.000001 1.147410 0.051485 0.515403   # pos: pos   rot: anim
    15 2.033345 1.000767 1.937662 2.401351 -1.453459 2.134419   # pos: pos   rot: anim
    16 6.028145 0.000000 0.000000 -2.541357 -0.942239 -0.288784   # pos: pos   rot: anim
    17 11.692550 0.000000 0.000002 0.000000 0.000000 -1.552823   # pos: pos   rot: anim
    18 11.481673 0.000001 -0.000033 1.425059 0.139837 0.446975   # pos: pos   rot: anim
    19 3.859704 -0.142407 -1.191976 -0.520468 -0.161303 -1.279354   # pos: pos   rot: anim
    20 1.312561 0.000000 -0.000001 -0.001210 0.066544 -0.766289   # pos: pos   rot: anim
    21 0.729362 0.000000 -0.000001 -0.001210 0.008039 -0.559812   # pos: pos   rot: anim
    22 3.942325 0.046770 -0.431444 -0.164698 -0.099933 -1.304132   # pos: pos   rot: anim
    23 1.539093 0.000000 0.000000 -0.000384 0.008139 -0.722918   # pos: pos   rot: anim
    24 1.196320 0.000001 -0.000001 -0.000384 0.002495 -1.070228   # pos: pos   rot: anim
    25 3.883687 -0.046772 0.431442 0.064114 -0.021291 -1.142328   # pos: pos   rot: anim
    26 1.719575 0.000001 -0.000002 0.000431 0.026813 -1.017476   # pos: pos   rot: anim
    27 1.209180 0.000001 -0.000001 0.000431 -0.002872 -1.017734   # pos: pos   rot: anim
    28 3.859862 -0.137949 1.332465 0.334255 0.112031 -1.108190   # pos: pos   rot: anim
    29 1.719429 -0.000002 0.000003 0.001498 -0.144691 -1.036292   # pos: pos   rot: anim
    30 1.099665 0.000002 -0.000001 0.001498 -0.010156 -0.936942   # pos: pos   rot: anim
    31 0.806048 -0.348923 1.321257 -1.260820 -0.257600 -0.800926   # pos: pos   rot: anim
    32 1.789785 0.000000 0.000003 0.000000 -0.031911 0.257865   # pos: pos   rot: anim
    33 1.206999 -0.000001 0.000003 0.000000 -0.000035 0.303713   # pos: pos   rot: anim
    34 2.033352 1.000771 -1.937609 -1.880236 1.254746 2.720664   # pos: pos   rot: anim
    35 6.028142 -0.000005 0.000000 0.850401 0.634788 -1.668373   # pos: pos   rot: anim
    36 11.692543 0.000000 -0.000005 0.000000 0.000000 -1.740755   # pos: pos   rot: anim
    37 11.481694 0.000000 0.000000 -1.639773 -0.166249 0.198179   # pos: pos   rot: anim
    38 3.859672 -0.132568 1.193110 0.528741 0.133675 -0.887990   # pos: pos   rot: anim
    39 1.312562 -0.000001 0.000002 0.001246 -0.412207 -1.018432   # pos: pos   rot: anim
    40 0.729365 0.000000 0.000000 0.001246 -0.008291 -0.628723   # pos: pos   rot: anim
    41 3.942293 0.050329 0.431045 0.155706 0.006157 -0.841256   # pos: pos   rot: anim
    42 1.539097 -0.000001 -0.000003 0.000419 -0.192598 -1.167928   # pos: pos   rot: anim
    43 1.196321 0.000001 0.000000 0.000419 -0.002784 -0.740313   # pos: pos   rot: anim
    44 3.883657 -0.050327 -0.431040 -0.092353 -0.160691 -0.607198   # pos: pos   rot: anim
    45 1.719577 -0.000003 0.000003 -0.000395 -0.025400 -1.295540   # pos: pos   rot: anim
    46 1.209186 -0.000001 -0.000002 -0.003428 0.022229 -0.861706   # pos: pos   rot: anim
    47 3.859828 -0.148934 -1.331280 -0.355330 -0.113338 -0.091470   # pos: pos   rot: anim
    48 1.719425 -0.000001 0.000001 -0.001462 0.121622 -0.549950   # pos: pos   rot: anim
    49 1.099666 -0.000003 0.000001 -0.046848 0.070944 -0.956046   # pos: pos   rot: anim
    50 0.806017 -0.359834 -1.318331 1.296698 0.253200 -0.682230   # pos: pos   rot: anim
    51 1.789781 0.000002 0.000001 0.000024 -0.008710 0.155629   # pos: pos   rot: anim
    52 1.207000 0.000000 0.000000 0.000300 0.002007 1.084608   # pos: pos   rot: anim
    53 3.202716 -1.851488 0.187594 0.000000 0.000000 0.000000   # pos: pos   rot: rot
  time 9
    0 20.427962 -8.754168 31.004187 1.694458 0.080017 -4.527728   # pos: anim   rot: anim
    1 3.890452 -0.000005 -0.000003 -1.652079 -0.756862 -1.355676   # pos: pos   rot: anim
    2 17.848175 0.000000 0.000001 0.000000 0.000000 1.330856   # pos: pos   rot: anim
    3 16.525253 0.000000 0.000001 -0.154480 -0.068495 -1.685342   # pos: pos   rot: anim
    4 6.879455 0.000000 0.000000 -0.007299 -0.001741 -0.584373   # pos: pos   rot: anim
    5 -3.890452 0.000005 0.000007 -1.870816 -0.725245 -1.486756   # pos: pos   rot: anim
    6 17.848175 -0.000001 -0.000001 0.000000 0.000000 1.189479   # pos: pos   rot: anim
    7 16.525259 -0.000001 0.000000 0.640315 0.401322 -1.345421   # pos: pos   rot: anim
    8 6.879456 0.000000 0.000000 -0.081333 -0.002951 -0.584373   # pos: pos   rot: rot
    9 -0.242190 3.337315 -2.981901 1.570796 0.035833 1.643483   # pos: anim   rot: anim
    10 4.018332 0.000000 0.000000 -0.151222 -0.047795 0.097734   # pos: pos   rot: anim
    11 3.518565 0.000000 0.000001 -0.230356 -0.154266 0.294143   # pos: pos   rot: anim
    12 8.942640 0.000000 -0.000001 0.029314 -0.051929 0.245114   # pos: pos   rot: anim
    13 3.307271 0.000001 0.000000 3.141590 0.000000 0.400478   # pos: pos   rot: rot
    14 3.593713 -0.000001 0.000001 1.140017 0.014412 0.544457   # pos: pos   rot: anim
    15 2.033345 1.000767 1.937662 2.592402 -1.489384 1.945002   # pos: pos   rot: anim
    16 6.028145 0.000000 0.000000 -2.763680 -0.976221 -0.183479   # pos: pos   rot: anim
    17 11.692550 0.000000 0.000002 0.000000 0.000000 -1.470204   # pos: pos   rot: anim
    18 11.481673 0.000001 -0.000033 1.477143 0.201895 0.454266   # pos: pos   rot: anim
    19 3.859704 -0.142407 -1.191976 -0.525718 -0.158630 -1.264198   # pos: pos   rot: anim
    20 1.312561 0.000000 -0.000001 -0.001325 0.066580 -0.760012   # pos: pos   rot: anim
    21 0.729362 0.000000 -0.000001 -0.001330 0.008854 -0.556341   # pos: pos   rot: anim
    22 3.942325 0.046770 -0.431444 -0.164817 -0.099250 -1.290822   # pos: pos   rot: anim
    23 1.539093 0.000000 0.000000 -0.000419 0.008319 -0.717347   # pos: pos   rot: anim
    24 1.196320 0.000001 -0.000001 -0.000419 0.002747 -1.059975   # pos: pos   rot: anim
    25 3.883687 -0.046772 0.431442 0.065528 -0.020404 -1.131378   # pos: pos   rot: anim
    26 1.719575 0.000001 -0.000002 0.000479 0.026118 -1.007938   # pos: pos   rot: anim
    27 1.209180 0.000001 -0.000001 0.000479 -0.003160 -1.008197   # pos: pos   rot: anim
    28 3.859862 -0.137949 1.332465 0.339265 0.111516 -1.097525   # pos: pos   rot: anim
    29 1.719429 -0.000002 0.000003 0.001654 -0.143924 -1.026325   # pos: pos   rot: anim
    30 1.099665 0.000002 -0.000001 0.001654 -0.011198 -0.928313   # pos: pos   rot: anim
    31 0.806048 -0.348923 1.321257 -1.262797 -0.258187 -0.795926   # pos: pos   rot: anim
    32 1.789785 0.000000 0.000003 0.000000 -0.031491 0.257890   # pos: pos   rot: anim
    33 1.206999 -0.000001 0.000003 0.000000 -0.000035 0.303713   # pos: pos   rot: anim
    34 2.033352 1.000771 -1.937609 -2.053332 1.234445 2.538504   # pos: pos   rot: anim
    35 6.028142 -0.000005 0.000000 0.777827 0.748399 -1.728582   # pos: pos   rot: anim
    36 11.692543 0.000000 -0.000005 0.000000 0.000000 -1.686842   # pos: pos   rot: anim
    37 11.481694 0.000000 0.000000 -1.611435 -0.130583 0.263823   # pos: pos   rot: anim
    38 3.859672 -0.132568 1.193110 0.531583 0.131350 -0.878426   # pos: pos   rot: anim
    39 1.312562 -0.000001 0.000002 0.001366 -0.407641 -1.008769   # pos: pos   rot: anim
    40 0.729365 0.000000 0.000000 0.001366 -0.009142 -0.624287   # pos: pos   rot: anim
    41 3.942293 0.050329 0.431045 0.155179 0.006780 -0.834256   # pos: pos   rot: anim
    42 1.539097 -0.000001 -0.000003 0.000467 -0.190333 -1.156376   # pos: pos   rot: anim
    43 1.196321 0.000001 0.000000 0.000467 -0.003072 -0.734471   # pos: pos   rot: anim
    44 3.883657 -0.050327 -0.431040 -0.093096 -0.158966 -0.603357   # pos: pos   rot: anim
    45 1.719577 -0.000003 0.000003 -0.000431 -0.024764 -1.282292   # pos: pos   rot: anim
    46 1.209186 -0.000001 -0.000002 -0.003428 0.022229 -0.854263   # pos: pos   rot: anim
    47 3.859828 -0.148934 -1.331280 -0.358769 -0.112391 -0.094436   # pos: pos   rot: anim
    48 1.719425 -0.000001 0.000001 -0.001618 0.121131 -0.546543   # pos: pos   rot: anim
    49 1.099666 -0.000003 0.000001 -0.046392 0.071136 -0.947206   # pos: pos   rot: anim
    50 0.806017 -0.359834 -1.318331 1.298131 0.253654 -0.678862   # pos: pos   rot: anim
    51 1.789781 0.000002 0.000001 0.000024 -0.008566 0.157019   # pos: pos   rot: anim
    52 1.207000 0.000000 0.000000 0.000300 0.002007 1.074147   # pos: pos   rot: anim
    53 3.202716 -1.851488 0.187594 0.000000 0.000000 0.000000   # pos: pos   rot: rot
  time 10
    0 23.611653 -10.363593 30.390887 1.692632 0.094829 -4.315636   # pos: anim   rot: anim
    1 3.890452 -0.000005 -0.000003 -1.765471 -0.793029 -1.227198   # pos: pos   rot: anim
    2 17.848175 0.000000 0.000001 0.000000 0.000000 1.384839   # pos: pos   rot: anim
    3 16.525253 0.000000 0.000001 -0.161105 -0.003712 -1.680377   # pos: pos   rot: anim
    4 6.879455 0.000000 0.000000 -0.007299 -0.001561 -0.584373   # pos: pos   rot: anim
    5 -3.890452 0.000005 0.000007 -1.847673 -0.728161 -1.553103   # pos: pos   rot: anim
    6 17.848175 -0.000001 -0.000001 0.000000 0.000000 1.197362   # pos: pos   rot: anim
    7 16.525259 -0.000001 0.000000 0.639592 0.343665 -1.347786   # pos: pos   rot: anim
    8 6.879456 0.000000 0.000000 -0.081333 -0.002951 -0.584373   # pos: pos   rot: rot
    9 -0.230471 3.337315 -2.981901 1.570796 0.028608 1.639853   # pos: anim   rot: anim
    10 4.018332 0.000000 0.000000 -0.173597 -0.032155 0.115980   # pos: pos   rot: anim
    11 3.518565 0.000000 0.000001 -0.248327 -0.163290 0.321836   # pos: pos   rot: anim
    12 8.942640 0.000000 -0.000001 0.052924 -0.041287 0.251982   # pos: pos   rot: anim
    13 3.307271 0.000001 0.000000 3.141590 0.000000 0.400478   # pos: pos   rot: rot
    14 3.593713 -0.000001 0.000001 1.133236 -0.020634 0.571806   # pos: pos   rot: anim
    15 2.033345 1.000767 1.937662 2.994616 -1.517143 1.543749   # pos: pos   rot: anim
    16 6.028145 0.000000 0.000000 -2.969372 -0.966638 -0.052103   # pos: pos   rot: anim
    17 11.692550 0.000000 0.000002 0.000000 0.000000 -1.382418   # pos: pos   rot: anim
    18 11.481673 0.000001 -0.000033 1.490953 0.247157 0.452682   # pos: pos   rot: anim
    19 3.859704 -0.142407 -1.191976 -0.521536 -0.160776 -1.276323   # pos: pos   rot: anim
    20 1.312561 0.000000 -0.000001 -0.001235 0.066544 -0.765033   # pos: pos   rot: anim
    21 0.729362 0.000000 -0.000001 -0.001234 0.008195 -0.559111   # pos: pos   rot: anim
    22 3.942325 0.046770 -0.431444 -0.164721 -0.099801 -1.301460   # pos: pos   rot: anim
    23 1.539093 0.000000 0.000000 -0.000384 0.008175 -0.721796   # pos: pos   rot: anim
    24 1.196320 0.000001 -0.000001 -0.000384 0.002543 -1.068159   # pos: pos   rot: anim
    25 3.883687 -0.046772 0.431442 0.064402 -0.021111 -1.140126   # pos: pos   rot: anim
    26 1.719575 0.000001 -0.000002 0.000443 0.026669 -1.015575   # pos: pos   rot: anim
    27 1.209180 0.000001 -0.000001 0.000443 -0.002920 -1.015812   # pos: pos   rot: anim
    28 3.859862 -0.137949 1.332465 0.335262 0.111935 -1.106051   # pos: pos   rot: anim
    29 1.719429 -0.000002 0.000003 0.001534 -0.144547 -1.034284   # pos: pos   rot: anim
    30 1.099665 0.000002 -0.000001 0.001534 -0.010359 -0.935209   # pos: pos   rot: anim
    31 0.806048 -0.348923 1.321257 -1.261259 -0.257702 -0.799897   # pos: pos   rot: anim
    32 1.789785 0.000000 0.000003 0.000000 -0.031827 0.257865   # pos: pos   rot: anim
    33 1.206999 -0.000001 0.000003 0.000000 -0.000035 0.303713   # pos: pos   rot: anim
    34 2.033352 1.000771 -1.937609 -2.195017 1.206799 2.388332   # pos: pos   rot: anim
    35 6.028142 -0.000005 0.000000 0.676597 0.905258 -1.740698   # pos: pos   rot: anim
    36 11.692543 0.000000 -0.000005 0.000000 0.000000 -1.624283   # pos: pos   rot: anim
    37 11.481694 0.000000 0.000000 -1.501210 -0.057443 0.317465   # pos: pos   rot: anim
    38 3.859672 -0.132568 1.193110 0.529321 0.133208 -0.886077   # pos: pos   rot: anim
    39 1.312562 -0.000001 0.000002 0.001270 -0.411288 -1.016481   # pos: pos   rot: anim
    40 0.729365 0.000000 0.000000 0.001270 -0.008459 -0.627836   # pos: pos   rot: anim
    41 3.942293 0.050329 0.431045 0.155598 0.006289 -0.839835   # pos: pos   rot: anim
    42 1.539097 -0.000001 -0.000003 0.000431 -0.192142 -1.165611   # pos: pos   rot: anim
    43 1.196321 0.000001 0.000000 0.000431 -0.002844 -0.739144   # pos: pos   rot: anim
    44 3.883657 -0.050327 -0.431040 -0.092497 -0.160344 -0.606460   # pos: pos   rot: anim
    45 1.719577 -0.000003 0.000003 -0.000395 -0.025268 -1.292898   # pos: pos   rot: anim
    46 1.209186 -0.000001 -0.000002 -0.003428 0.022229 -0.860226   # pos: pos   rot: anim
    47 3.859828 -0.148934 -1.331280 -0.356013 -0.113146 -0.092068   # pos: pos   rot: anim
    48 1.719425 -0.000001 0.000001 -0.001498 0.121526 -0.549269   # pos: pos   rot: anim
    49 1.099666 -0.000003 0.000001 -0.046752 0.070980 -0.954278   # pos: pos   rot: anim
    50 0.806017 -0.359834 -1.318331 1.296992 0.253301 -0.681551   # pos: pos   rot: anim
    51 1.789781 0.000002 0.000001 0.000024 -0.008686 0.155904   # pos: pos   rot: anim
    52 1.207000 0.000000 0.000000 0.000300 0.002007 1.082522   # pos: pos   rot: anim
    53 3.202716 -1.851488 0.187594 0.000000 0.000000 0.000000   # pos: pos   rot: rot
  time 11
    0 26.576587 -11.816762 29.836182 1.696813 0.115449 -4.123974   # pos: anim   rot: anim
    1 3.890452 -0.000005 -0.000003 -1.921806 -0.832573 -1.063975   # pos: pos   rot: anim
    2 17.848175 0.000000 0.000001 0.000000 0.000000 1.428374   # pos: pos   rot: anim
    3 16.525253 0.000000 0.000001 -0.143119 0.071323 -1.653610   # pos: pos   rot: anim
    4 6.879455 0.000000 0.000000 -0.007299 -0.001405 -0.584373   # pos: pos   rot: anim
    5 -3.890452 0.000005 0.000007 -1.788716 -0.705609 -1.636541   # pos: pos   rot: anim
    6 17.848175 -0.000001 -0.000001 0.000000 0.000000 1.184684   # pos: pos   rot: anim
    7 16.525259 -0.000001 0.000000 0.618260 0.274484 -1.361362   # pos: pos   rot: anim
    8 6.879456 0.000000 0.000000 -0.081333 -0.002951 -0.584373   # pos: pos   rot: rot
    9 -0.218752 3.341221 -2.981901 1.570796 0.022076 1.636572   # pos: anim   rot: anim
    10 4.018332 0.000000 0.000000 -0.193815 -0.018013 0.132500   # pos: pos   rot: anim
    11 3.518565 0.000000 0.000001 -0.264573 -0.171464 0.346849   # pos: pos   rot: anim
    12 8.942640 0.000000 -0.000001 0.074269 -0.031663 0.258130   # pos: pos   rot: anim
    13 3.307271 0.000001 0.000000 3.141590 0.000000 0.400478   # pos: pos   rot: rot
    14 3.593713 -0.000001 0.000001 1.127242 -0.052340 0.596420   # pos: pos   rot: anim
    15 2.033345 1.000767 1.937662 3.691403 -1.525938 0.847400   # pos: pos   rot: anim
    16 6.028145 0.000000 0.000000 -3.110546 -0.912266 0.063200   # pos: pos   rot: anim
    17 11.692550 0.000000 0.000002 0.000000 0.000000 -1.293339   # pos: pos   rot: anim
    18 11.481673 0.000001 -0.000033 1.456783 0.277703 0.434160   # pos: pos   rot: anim
    19 3.859704 -0.142407 -1.191976 -0.510759 -0.166073 -1.306634   # pos: pos   rot: anim
    20 1.312561 0.000000 -0.000001 -0.000978 0.066472 -0.777547   # pos: pos   rot: anim
    21 0.729362 0.000000 -0.000001 -0.000983 0.006553 -0.566090   # pos: pos   rot: anim
    22 3.942325 0.046770 -0.431444 -0.164410 -0.101144 -1.328055   # pos: pos   rot: anim
    23 1.539093 0.000000 0.000000 -0.000312 0.007816 -0.732974   # pos: pos   rot: anim
    24 1.196320 0.000001 -0.000001 -0.000312 0.002040 -1.088665   # pos: pos   rot: anim
    25 3.883687 -0.046772 0.431442 0.061561 -0.022920 -1.162028   # pos: pos   rot: anim
    26 1.719575 0.000001 -0.000002 0.000360 0.028059 -1.034651   # pos: pos   rot: anim
    27 1.209180 0.000001 -0.000001 0.000360 -0.002345 -1.034885   # pos: pos   rot: anim
    28 3.859862 -0.137949 1.332465 0.325171 0.112906 -1.127412   # pos: pos   rot: anim
    29 1.719429 -0.000002 0.000003 0.001222 -0.146081 -1.054181   # pos: pos   rot: anim
    30 1.099665 0.000002 -0.000001 0.001222 -0.008286 -0.952434   # pos: pos   rot: anim
    31 0.806048 -0.348923 1.321257 -1.257232 -0.256503 -0.809824   # pos: pos   rot: anim
    32 1.789785 0.000000 0.000003 0.000000 -0.032678 0.257815   # pos: pos   rot: anim
    33 1.206999 -0.000001 0.000003 0.000000 -0.000023 0.303713   # pos: pos   rot: anim
    34 2.033352 1.000771 -1.937609 -2.303762 1.176183 2.272064   # pos: pos   rot: anim
    35 6.028142 -0.000005 0.000000 0.557623 1.095818 -1.717677   # pos: pos   rot: anim
    36 11.692543 0.000000 -0.000005 0.000000 0.000000 -1.555783   # pos: pos   rot: anim
    37 11.481694 0.000000 0.000000 -1.318742 0.025207 0.367541   # pos: pos   rot: anim
    38 3.859672 -0.132568 1.193110 0.523472 0.137894 -0.905273   # pos: pos   rot: anim
    39 1.312562 -0.000001 0.000002 0.001019 -0.420434 -1.035776   # pos: pos   rot: anim
    40 0.729365 0.000000 0.000000 0.001019 -0.006769 -0.636674   # pos: pos   rot: anim
    41 3.942293 0.050329 0.431045 0.156653 0.005055 -0.853939   # pos: pos   rot: anim
    42 1.539097 -0.000001 -0.000003 0.000348 -0.196661 -1.188749   # pos: pos   rot: anim
    43 1.196321 0.000001 0.000000 0.000348 -0.002281 -0.750760   # pos: pos   rot: anim
    44 3.883657 -0.050327 -0.431040 -0.090998 -0.163807 -0.614143   # pos: pos   rot: anim
    45 1.719577 -0.000003 0.000003 -0.000324 -0.026550 -1.319430   # pos: pos   rot: anim
    46 1.209186 -0.000001 -0.000002 -0.003428 0.022229 -0.875112   # pos: pos   rot: anim
    47 3.859828 -0.148934 -1.331280 -0.349146 -0.115040 -0.086136   # pos: pos   rot: anim
    48 1.719425 -0.000001 0.000001 -0.001198 0.122497 -0.556083   # pos: pos   rot: anim
    49 1.099666 -0.000003 0.000001 -0.047675 0.070597 -0.971991   # pos: pos   rot: anim
    50 0.806017 -0.359834 -1.318331 1.294162 0.252392 -0.688287   # pos: pos   rot: anim
    51 1.789781 0.000002 0.000001 0.000012 -0.008962 0.153100   # pos: pos   rot: anim
    52 1.207000 0.000000 0.000000 0.000300 0.002007 1.103473   # pos: pos   rot: anim
    53 3.202716 -1.851488 0.187594 0.000000 0.000000 0.000000   # pos: pos   rot: rot
  time 12
    0 29.162604 -13.055081 29.359605 1.706235 0.137103 -3.960535   # pos: anim   rot: anim
    1 3.890452 -0.000005 -0.000003 -2.094148 -0.866391 -0.894644   # pos: pos   rot: anim
    2 17.848175 0.000000 0.000001 0.000000 0.000000 1.459795   # pos: pos   rot: anim
    3 16.525253 0.000000 0.000001 -0.106582 0.136418 -1.611378   # pos: pos   rot: anim
    4 6.879455 0.000000 0.000000 -0.007299 -0.001261 -0.584373   # pos: pos   rot: anim
    5 -3.890452 0.000005 0.000007 -1.739135 -0.662690 -1.703510   # pos: pos   rot: anim
    6 17.848175 -0.000001 -0.000001 0.000000 0.000000 1.157135   # pos: pos   rot: anim
    7 16.525259 -0.000001 0.000000 0.597801 0.217964 -1.374985   # pos: pos   rot: anim
    8 6.879456 0.000000 0.000000 -0.081333 -0.002951 -0.584373   # pos: pos   rot: rot
    9 -0.207033 3.341221 -2.981901 1.570796 0.016526 1.633738   # pos: anim   rot: anim
    10 4.018332 0.000000 0.000000 -0.211025 -0.005968 0.146578   # pos: pos   rot: anim
    11 3.518565 0.000000 0.000001 -0.278406 -0.178427 0.368146   # pos: pos   rot: anim
    12 8.942640 0.000000 -0.000001 0.092425 -0.023454 0.263319   # pos: pos   rot: anim
    13 3.307271 0.000001 0.000000 3.141590 0.000000 0.400478   # pos: pos   rot: rot
    14 3.593713 -0.000001 0.000001 1.122255 -0.079353 0.617301   # pos: pos   rot: anim
    15 2.033345 1.000767 1.937662 4.239562 -1.514512 0.299269   # pos: pos   rot: anim
    16 6.028145 0.000000 0.000000 -3.173344 -0.831881 0.142156   # pos: pos   rot: anim
    17 11.692550 0.000000 0.000002 0.000000 0.000000 -1.208364   # pos: pos   rot: anim
    18 11.481673 0.000001 -0.000033 1.382997 0.297064 0.398293   # pos: pos   rot: anim
    19 3.859704 -0.142407 -1.191976 -0.496121 -0.172820 -1.346148   # pos: pos   rot: anim
    20 1.312561 0.000000 -0.000001 -0.000656 0.066376 -0.793826   # pos: pos   rot: anim
    21 0.729362 0.000000 -0.000001 -0.000659 0.004432 -0.575172   # pos: pos   rot: anim
    22 3.942325 0.046770 -0.431444 -0.163823 -0.102869 -1.362617   # pos: pos   rot: anim
    23 1.539093 0.000000 0.000000 -0.000204 0.007348 -0.747479   # pos: pos   rot: anim
    24 1.196320 0.000001 -0.000001 -0.000204 0.001381 -1.115286   # pos: pos   rot: anim
    25 3.883687 -0.046772 0.431442 0.057822 -0.025317 -1.190475   # pos: pos   rot: anim
    26 1.719575 0.000001 -0.000002 0.000240 0.029857 -1.059428   # pos: pos   rot: anim
    27 1.209180 0.000001 -0.000001 0.000240 -0.001578 -1.059688   # pos: pos   rot: anim
    28 3.859862 -0.137949 1.332465 0.311844 0.114044 -1.155160   # pos: pos   rot: anim
    29 1.719429 -0.000002 0.000003 0.000827 -0.148070 -1.080029   # pos: pos   rot: anim
    30 1.099665 0.000002 -0.000001 0.000827 -0.005589 -0.974821   # pos: pos   rot: anim
    31 0.806048 -0.348923 1.321257 -1.252033 -0.254869 -0.822693   # pos: pos   rot: anim
    32 1.789785 0.000000 0.000003 0.000000 -0.033780 0.257741   # pos: pos   rot: anim
    33 1.206999 -0.000001 0.000003 0.000000 -0.000011 0.303713   # pos: pos   rot: anim
    34 2.033352 1.000771 -1.937609 -2.382911 1.146763 2.186634   # pos: pos   rot: anim
    35 6.028142 -0.000005 0.000000 0.424454 1.282463 -1.704722   # pos: pos   rot: anim
    36 11.692543 0.000000 -0.000005 0.000000 0.000000 -1.487058   # pos: pos   rot: anim
    37 11.481694 0.000000 0.000000 -1.117316 0.084200 0.416161   # pos: pos   rot: anim
    38 3.859672 -0.132568 1.193110 0.515582 0.144030 -0.930207   # pos: pos   rot: anim
    39 1.312562 -0.000001 0.000002 0.000683 -0.432307 -1.060863   # pos: pos   rot: anim
    40 0.729365 0.000000 0.000000 0.000683 -0.004576 -0.648174   # pos: pos   rot: anim
    41 3.942293 0.050329 0.431045 0.157959 0.003473 -0.872201   # pos: pos   rot: anim
    42 1.539097 -0.000001 -0.000003 0.000228 -0.202545 -1.218770   # pos: pos   rot: anim
    43 1.196321 0.000001 0.000000 0.000228 -0.001537 -0.765914   # pos: pos   rot: anim
    44 3.883657 -0.050327 -0.431040 -0.089033 -0.168290 -0.624091   # pos: pos   rot: anim
    45 1.719577 -0.000003 0.000003 -0.000216 -0.028204 -1.353891   # pos: pos   rot: anim
    46 1.209186 -0.000001 -0.000002 -0.003428 0.022229 -0.894480   # pos: pos   rot: anim
    47 3.859828 -0.148934 -1.331280 -0.340181 -0.117496 -0.078408   # pos: pos   rot: anim
    48 1.719425 -0.000001 0.000001 -0.000803 0.123779 -0.564942   # pos: pos   rot: anim
    49 1.099666 -0.000003 0.000001 -0.048861 0.070105 -0.995042   # pos: pos   rot: anim
    50 0.806017 -0.359834 -1.318331 1.290487 0.251180 -0.697035   # pos: pos   rot: anim
    51 1.789781 0.000002 0.000001 0.000012 -0.009321 0.149457   # pos: pos   rot: anim
    52 1.207000 0.000000 0.000000 0.000300 0.002007 1.130685   # pos: pos   rot: anim
    53 3.202716 -1.851488 0.187594 0.000000 0.000000 0.000000   # pos: pos   rot: rot
  time 13
    0 31.209541 -14.016048 28.992406 1.717953 0.155686 -3.833489   # pos: anim   rot: anim
    1 3.890452 -0.000005 -0.000003 -2.247415 -0.890568 -0.750416   # pos: pos   rot: anim
    2 17.848175 0.000000 0.000001 0.000000 0.000000 1.479631   # pos: pos   rot: anim
    3 16.525253 0.000000 0.000001 -0.065433 0.179345 -1.566451   # pos: pos   rot: anim
    4 6.879455 0.000000 0.000000 -0.007299 -0.001165 -0.584373   # pos: pos   rot: anim
    5 -3.890452 0.000005 0.000007 -1.710670 -0.613940 -1.744452   # pos: pos   rot: anim
    6 17.848175 -0.000001 -0.000001 0.000000 0.000000 1.123896   # pos: pos   rot: anim
    7 16.525259 -0.000001 0.000000 0.583571 0.181360 -1.384918   # pos: pos   rot: anim
    8 6.879456 0.000000 0.000000 -0.081333 -0.002951 -0.584373   # pos: pos   rot: rot
    9 -0.203126 3.341221 -2.981901 1.570796 0.012211 1.631600   # pos: anim   rot: anim
    10 4.018332 0.000000 0.000000 -0.224387 0.003368 0.157486   # pos: pos   rot: anim
    11 3.518565 0.000000 0.000001 -0.289135 -0.183832 0.384666   # pos: pos   rot: anim
    12 8.942640 0.000000 -0.000001 0.106519 -0.017078 0.267310   # pos: pos   rot: anim
    13 3.307271 0.000001 0.000000 3.141590 0.000000 0.400478   # pos: pos   rot: rot
    14 3.593713 -0.000001 0.000001 1.118449 -0.100307 0.633421   # pos: pos   rot: anim
    15 2.033345 1.000767 1.937662 4.492287 -1.498297 0.046330   # pos: pos   rot: anim
    16 6.028145 0.000000 0.000000 -3.182137 -0.751497 0.190464   # pos: pos   rot: anim
    17 11.692550 0.000000 0.000002 0.000000 0.000000 -1.135399   # pos: pos   rot: anim
    18 11.481673 0.000001 -0.000033 1.295401 0.307952 0.354473   # pos: pos   rot: anim
    19 3.859704 -0.142407 -1.191976 -0.480753 -0.179364 -1.385744   # pos: pos   rot: anim
    20 1.312561 0.000000 -0.000001 -0.000335 0.066292 -0.810106   # pos: pos   rot: anim
    21 0.729362 0.000000 -0.000001 -0.000336 0.002298 -0.584255   # pos: pos   rot: anim
    22 3.942325 0.046770 -0.431444 -0.163044 -0.104559 -1.397203   # pos: pos   rot: anim
    23 1.539093 0.000000 0.000000 -0.000108 0.006893 -0.762022   # pos: pos   rot: anim
    24 1.196320 0.000001 -0.000001 -0.000108 0.000722 -1.141907   # pos: pos   rot: anim
    25 3.883687 -0.046772 0.431442 0.054047 -0.027774 -1.218923   # pos: pos   rot: anim
    26 1.719575 0.000001 -0.000002 0.000120 0.031654 -1.084242   # pos: pos   rot: anim
    27 1.209180 0.000001 -0.000001 0.000120 -0.000811 -1.084527   # pos: pos   rot: anim
    28 3.859862 -0.137949 1.332465 0.298313 0.115027 -1.182939   # pos: pos   rot: anim
    29 1.719429 -0.000002 0.000003 0.000419 -0.150072 -1.105876   # pos: pos   rot: anim
    30 1.099665 0.000002 -0.000001 0.000419 -0.002893 -0.997209   # pos: pos   rot: anim
    31 0.806048 -0.348923 1.321257 -1.246834 -0.253210 -0.835635   # pos: pos   rot: anim
    32 1.789785 0.000000 0.000003 0.000000 -0.034883 0.257667   # pos: pos   rot: anim
    33 1.206999 -0.000001 0.000003 0.000000 0.000001 0.303713   # pos: pos   rot: anim
    34 2.033352 1.000771 -1.937609 -2.436758 1.122253 2.127926   # pos: pos   rot: anim
    35 6.028142 -0.000005 0.000000 0.225277 1.426004 -1.791214   # pos: pos   rot: anim
    36 11.692543 0.000000 -0.000005 0.000000 0.000000 -1.426153   # pos: pos   rot: anim
    37 11.481694 0.000000 0.000000 -0.954073 0.109863 0.453699   # pos: pos   rot: anim
    38 3.859672 -0.132568 1.193110 0.507389 0.150214 -0.955277   # pos: pos   rot: anim
    39 1.312562 -0.000001 0.000002 0.000348 -0.444194 -1.085949   # pos: pos   rot: anim
    40 0.729365 0.000000 0.000000 0.000348 -0.002383 -0.659674   # pos: pos   rot: anim
    41 3.942293 0.050329 0.431045 0.159230 0.001915 -0.890463   # pos: pos   rot: anim
    42 1.539097 -0.000001 -0.000003 0.000120 -0.208430 -1.248825   # pos: pos   rot: anim
    43 1.196321 0.000001 0.000000 0.000120 -0.000794 -0.781034   # pos: pos   rot: anim
    44 3.883657 -0.050327 -0.431040 -0.087068 -0.172772 -0.634089   # pos: pos   rot: anim
    45 1.719577 -0.000003 0.000003 -0.000108 -0.029870 -1.388387   # pos: pos   rot: anim
    46 1.209186 -0.000001 -0.000002 -0.003428 0.022229 -0.913849   # pos: pos   rot: anim
    47 3.859828 -0.148934 -1.331280 -0.331205 -0.119965 -0.070733   # pos: pos   rot: anim
    48 1.719425 -0.000001 0.000001 -0.000419 0.125050 -0.573834   # pos: pos   rot: anim
    49 1.099666 -0.000003 0.000001 -0.050060 0.069614 -1.018059   # pos: pos   rot: anim
    50 0.806017 -0.359834 -1.318331 1.286812 0.249968 -0.705782   # pos: pos   rot: anim
    51 1.789781 0.000002 0.000001 0.000000 -0.009693 0.145825   # pos: pos   rot: anim
    52 1.207000 0.000000 0.000000 0.000300 0.002007 1.157924   # pos: pos   rot: anim
    53 3.202716 -1.851488 0.187594 0.000000 0.000000 0.000000   # pos: pos   rot: rot
  time 14
    0 32.557239 -14.641067 28.754118 1.727670 0.168155 -3.751008   # pos: anim   rot: anim
    1 3.890452 -0.000005 -0.000003 -2.352853 -0.904957 -0.654296   # pos: pos   rot: anim
    2 17.848175 0.000000 0.000001 0.000000 0.000000 1.490080   # pos: pos   rot: anim
    3 16.525253 0.000000 0.000001 -0.033976 0.200614 -1.532543   # pos: pos   rot: anim
    4 6.879455 0.000000 0.000000 -0.007299 -0.001093 -0.584373   # pos: pos   rot: anim
    5 -3.890452 0.000005 0.000007 -1.698676 -0.575486 -1.764185   # pos: pos   rot: anim
    6 17.848175 -0.000001 -0.000001 0.000000 0.000000 1.096184   # pos: pos   rot: anim
    7 16.525259 -0.000001 0.000000 0.575372 0.162620 -1.390358   # pos: pos   rot: anim
    8 6.879456 0.000000 0.000000 -0.081333 -0.002951 -0.584373   # pos: pos   rot: rot
    9 -0.195313 3.341221 -2.981901 1.570796 0.009419 1.630158   # pos: anim   rot: anim
    10 4.018332 0.000000 0.000000 -0.233028 0.009408 0.164559   # pos: pos   rot: anim
    11 3.518565 0.000000 0.000001 -0.296085 -0.187319 0.395359   # pos: pos   rot: anim
    12 8.942640 0.000000 -0.000001 0.115627 -0.012943 0.269875   # pos: pos   rot: anim
    13 3.307271 0.000001 0.000000 3.141590 0.000000 0.400478   # pos: pos   rot: rot
    14 3.593713 -0.000001 0.000001 1.116043 -0.113867 0.643846   # pos: pos   rot: anim
    15 2.033345 1.000767 1.937662 4.599831 -1.486126 -0.061552   # pos: pos   rot: anim
    16 6.028145 0.000000 0.000000 -3.171050 -0.693702 0.217468   # pos: pos   rot: anim
    17 11.692550 0.000000 0.000002 0.000000 0.000000 -1.084171   # pos: pos   rot: anim
    18 11.481673 0.000001 -0.000033 1.225876 0.312857 0.318017   # pos: pos   rot: anim
    19 3.859704 -0.142407 -1.191976 -0.468455 -0.184229 -1.416246   # pos: pos   rot: anim
    20 1.312561 0.000000 -0.000001 -0.000090 0.066220 -0.822619   # pos: pos   rot: anim
    21 0.729362 0.000000 -0.000001 -0.000096 0.000657 -0.591234   # pos: pos   rot: anim
    22 3.942325 0.046770 -0.431444 -0.162313 -0.105842 -1.423848   # pos: pos   rot: anim
    23 1.539093 0.000000 0.000000 -0.000024 0.006533 -0.773200   # pos: pos   rot: anim
    24 1.196320 0.000001 -0.000001 -0.000024 0.000206 -1.162383   # pos: pos   rot: anim
    25 3.883687 -0.046772 0.431442 0.051111 -0.029704 -1.240765   # pos: pos   rot: anim
    26 1.719575 0.000001 -0.000002 0.000036 0.033033 -1.103318   # pos: pos   rot: anim
    27 1.209180 0.000001 -0.000001 0.000024 -0.000224 -1.103600   # pos: pos   rot: anim
    28 3.859862 -0.137949 1.332465 0.287755 0.115674 -1.204269   # pos: pos   rot: anim
    29 1.719429 -0.000002 0.000003 0.000120 -0.151606 -1.125773   # pos: pos   rot: anim
    30 1.099665 0.000002 -0.000001 0.000120 -0.000820 -1.014434   # pos: pos   rot: anim
    31 0.806048 -0.348923 1.321257 -1.242807 -0.251883 -0.845488   # pos: pos   rot: anim
    32 1.789785 0.000000 0.000003 0.000000 -0.035734 0.257617   # pos: pos   rot: anim
    33 1.206999 -0.000001 0.000003 0.000000 0.000001 0.303713   # pos: pos   rot: anim
    34 2.033352 1.000771 -1.937609 -2.468456 1.105707 2.093064   # pos: pos   rot: anim
    35 6.028142 -0.000005 0.000000 -0.234472 1.506008 -2.183226   # pos: pos   rot: anim
    36 11.692543 0.000000 -0.000005 0.000000 0.000000 -1.382692   # pos: pos   rot: anim
    37 11.481694 0.000000 0.000000 -0.853759 0.115259 0.474826   # pos: pos   rot: anim
    38 3.859672 -0.132568 1.193110 0.500879 0.155008 -0.974541   # pos: pos   rot: anim
    39 1.312562 -0.000001 0.000002 0.000096 -0.453325 -1.105244   # pos: pos   rot: anim
    40 0.729365 0.000000 0.000000 0.000096 -0.000681 -0.668513   # pos: pos   rot: anim
    41 3.942293 0.050329 0.431045 0.160164 0.000716 -0.904568   # pos: pos   rot: anim
    42 1.539097 -0.000001 -0.000003 0.000024 -0.212948 -1.271929   # pos: pos   rot: anim
    43 1.196321 0.000001 0.000000 0.000024 -0.000231 -0.792649   # pos: pos   rot: anim
    44 3.883657 -0.050327 -0.431040 -0.085557 -0.176223 -0.641773   # pos: pos   rot: anim
    45 1.719577 -0.000003 0.000003 -0.000024 -0.031152 -1.414920   # pos: pos   rot: anim
    46 1.209186 -0.000001 -0.000002 -0.003428 0.022229 -0.928734   # pos: pos   rot: anim
    47 3.859828 -0.148934 -1.331280 -0.324302 -0.121883 -0.064800   # pos: pos   rot: anim
    48 1.719425 -0.000001 0.000001 -0.000120 0.126020 -0.580648   # pos: pos   rot: anim
    49 1.099666 -0.000003 0.000001 -0.050970 0.069231 -1.035772   # pos: pos   rot: anim
    50 0.806017 -0.359834 -1.318331 1.283983 0.249008 -0.712494   # pos: pos   rot: anim
    51 1.789781 0.000002 0.000001 0.000000 -0.009968 0.143021   # pos: pos   rot: anim
    52 1.207000 0.000000 0.000000 0.000300 0.002007 1.178875   # pos: pos   rot: anim
    53 3.202716 -1.851488 0.187594 0.000000 0.000000 0.000000   # pos: pos   rot: rot
  time 15
    0 33.041628 -14.859823 28.672084 1.731615 0.172656 -3.721741   # pos: anim   rot: anim
    1 3.890452 -0.000005 -0.000003 -2.391385 -0.909802 -0.619743   # pos: pos   rot: anim
    2 17.848175 0.000000 0.000001 0.000000 0.000000 1.493260   # pos: pos   rot: anim
    3 16.525253 0.000000 0.000001 -0.022026 0.206746 -1.519727   # pos: pos   rot: anim
    4 6.879455 0.000000 0.000000 -0.007299 -0.001069 -0.584373   # pos: pos   rot: anim
    5 -3.890452 0.000005 0.000007 -1.695635 -0.560588 -1.769856   # pos: pos   rot: anim
    6 17.848175 -0.000001 -0.000001 0.000000 0.000000 1.085051   # pos: pos   rot: anim
    7 16.525259 -0.000001 0.000000 0.572606 0.157025 -1.392014   # pos: pos   rot: anim
    8 6.879456 0.000000 0.000000 -0.081333 -0.002951 -0.584373   # pos: pos   rot: rot
    9 -0.195313 3.341221 -2.981901 1.570796 0.008420 1.629661   # pos: anim   rot: anim
    10 4.018332 0.000000 0.000000 -0.236096 0.011553 0.167066   # pos: pos   rot: anim
    11 3.518565 0.000000 0.000001 -0.298538 -0.188566 0.399146   # pos: pos   rot: anim
    12 8.942640 0.000000 -0.000001 0.118875 -0.011481 0.270785   # pos: pos   rot: anim
    13 3.307271 0.000001 0.000000 3.141590 0.000000 0.400478   # pos: pos   rot: rot
    14 3.593713 -0.000001 0.000001 1.115168 -0.118701 0.647546   # pos: pos   rot: anim
    15 2.033345 1.000767 1.937662 4.630859 -1.481610 -0.092595   # pos: pos   rot: anim
    16 6.028145 0.000000 0.000000 -3.164359 -0.672530 0.226625   # pos: pos   rot: anim
    17 11.692550 0.000000 0.000002 0.000000 0.000000 -1.065093   # pos: pos   rot: anim
    18 11.481673 0.000001 -0.000033 1.199124 0.314195 0.303582   # pos: pos   rot: anim
    19 3.859704 -0.142407 -1.191976 -0.463410 -0.186147 -1.428480   # pos: pos   rot: anim
    20 1.312561 0.000000 -0.000001 0.000000 0.066184 -0.827641   # pos: pos   rot: anim
    21 0.729362 0.000000 -0.000001 0.000000 0.000009 -0.594039   # pos: pos   rot: anim
    22 3.942325 0.046770 -0.431444 -0.161989 -0.106345 -1.434486   # pos: pos   rot: anim
    23 1.539093 0.000000 0.000000 0.000000 0.006390 -0.777649   # pos: pos   rot: anim
    24 1.196320 0.000001 -0.000001 0.000000 0.000002 -1.170567   # pos: pos   rot: anim
    25 3.883687 -0.046772 0.431442 0.049936 -0.030483 -1.249513   # pos: pos   rot: anim
    26 1.719575 0.000001 -0.000002 0.000000 0.033584 -1.110956   # pos: pos   rot: anim
    27 1.209180 0.000001 -0.000001 0.000000 0.000004 -1.111215   # pos: pos   rot: anim
    28 3.859862 -0.137949 1.332465 0.283488 0.115914 -1.212794   # pos: pos   rot: anim
    29 1.719429 -0.000002 0.000003 0.000000 -0.152217 -1.133732   # pos: pos   rot: anim
    30 1.099665 0.000002 -0.000001 0.000000 0.000007 -1.021295   # pos: pos   rot: anim
    31 0.806048 -0.348923 1.321257 -1.241196 -0.251322 -0.849459   # pos: pos   rot: anim
    32 1.789785 0.000000 0.000003 0.000000 -0.036081 0.257592   # pos: pos   rot: anim
    33 1.206999 -0.000001 0.000003 0.000000 0.000001 0.303713   # pos: pos   rot: anim
    34 2.033352 1.000771 -1.937609 -2.479149 1.099724 2.081284   # pos: pos   rot: anim
    35 6.028142 -0.000005 0.000000 -0.702471 1.523575 -2.628456   # pos: pos   rot: anim
    36 11.692543 0.000000 -0.000005 0.000000 0.000000 -1.366375   # pos: pos   rot: anim
    37 11.481694 0.000000 0.000000 -0.819900 0.115062 0.481344   # pos: pos   rot: anim
    38 3.859672 -0.132568 1.193110 0.498203 0.156937 -0.982261   # pos: pos   rot: anim
    39 1.312562 -0.000001 0.000002 0.000000 -0.456987 -1.112956   # pos: pos   rot: anim
    40 0.729365 0.000000 0.000000 0.000000 -0.000010 -0.672062   # pos: pos   rot: anim
    41 3.942293 0.050329 0.431045 0.160536 0.000249 -0.910199   # pos: pos   rot: anim
    42 1.539097 -0.000001 -0.000003 0.000000 -0.214757 -1.281163   # pos: pos   rot: anim
    43 1.196321 0.000001 0.000000 0.000000 -0.000003 -0.797323   # pos: pos   rot: anim
    44 3.883657 -0.050327 -0.431040 -0.084946 -0.177602 -0.644875   # pos: pos   rot: anim
    45 1.719577 -0.000003 0.000003 0.000000 -0.031656 -1.425526   # pos: pos   rot: anim
    46 1.209186 -0.000001 -0.000002 -0.003428 0.022229 -0.934697   # pos: pos   rot: anim
    47 3.859828 -0.148934 -1.331280 -0.321533 -0.122638 -0.062432   # pos: pos   rot: anim
    48 1.719425 -0.000001 0.000001 0.000000 0.126416 -0.583374   # pos: pos   rot: anim
    49 1.099666 -0.000003 0.000001 -0.051342 0.069075 -1.042844   # pos: pos   rot: anim
    50 0.806017 -0.359834 -1.318331 1.282844 0.248629 -0.715183   # pos: pos   rot: anim
    51 1.789781 0.000002 0.000001 0.000000 -0.010076 0.141894   # pos: pos   rot: anim
    52 1.207000 0.000000 0.000000 0.000300 0.002007 1.187250   # pos: pos   rot: anim
    53 3.202716 -1.851488 0.187594 0.000000 0.000000 0.000000   # pos: pos   rot: rot
  time 16
    0 33.041628 -14.859823 28.672084 1.731615 0.172656 -3.721741   # pos: anim   rot: anim
    1 3.890452 -0.000005 -0.000003 -2.391385 -0.909802 -0.619743   # pos: pos   rot: anim
    2 17.848175 0.000000 0.000001 0.000000 0.000000 1.493260   # pos: pos   rot: anim
    3 16.525253 0.000000 0.000001 -0.022026 0.206746 -1.519727   # pos: pos   rot: anim
    4 6.879455 0.000000 0.000000 -0.007299 -0.001069 -0.584373   # pos: pos   rot: anim
    5 -3.890452 0.000005 0.000007 -1.695635 -0.560588 -1.769856   # pos: pos   rot: anim
    6 17.848175 -0.000001 -0.000001 0.000000 0.000000 1.085051   # pos: pos   rot: anim
    7 16.525259 -0.000001 0.000000 0.572606 0.157025 -1.392014   # pos: pos   rot: anim
    8 6.879456 0.000000 0.000000 -0.081333 -0.002951 -0.584373   # pos: pos   rot: rot
    9 -0.195313 3.341221 -2.981901 1.570796 0.008420 1.629661   # pos: anim   rot: anim
    10 4.018332 0.000000 0.000000 -0.236096 0.011553 0.167066   # pos: pos   rot: anim
    11 3.518565 0.000000 0.000001 -0.298538 -0.188566 0.399146   # pos: pos   rot: anim
    12 8.942640 0.000000 -0.000001 0.118875 -0.011481 0.270785   # pos: pos   rot: anim
    13 3.307271 0.000001 0.000000 3.141590 0.000000 0.400478   # pos: pos   rot: rot
    14 3.593713 -0.000001 0.000001 1.115168 -0.118701 0.647546   # pos: pos   rot: anim
    15 2.033345 1.000767 1.937662 4.630859 -1.481610 -0.092595   # pos: pos   rot: anim
    16 6.028145 0.000000 0.000000 -3.164359 -0.672530 0.226625   # pos: pos   rot: anim
    17 11.692550 0.000000 0.000002 0.000000 0.000000 -1.065093   # pos: pos   rot: anim
    18 11.481673 0.000001 -0.000033 1.199124 0.314195 0.303582   # pos: pos   rot: anim
    19 3.859704 -0.142407 -1.191976 -0.463410 -0.186147 -1.428480   # pos: pos   rot: anim
    20 1.312561 0.000000 -0.000001 0.000000 0.066184 -0.827641   # pos: pos   rot: anim
    21 0.729362 0.000000 -0.000001 0.000000 0.000009 -0.594039   # pos: pos   rot: anim
    22 3.942325 0.046770 -0.431444 -0.161989 -0.106345 -1.434486   # pos: pos   rot: anim
    23 1.539093 0.000000 0.000000 0.000000 0.006390 -0.777649   # pos: pos   rot: anim
    24 1.196320 0.000001 -0.000001 0.000000 0.000002 -1.170567   # pos: pos   rot: anim
    25 3.883687 -0.046772 0.431442 0.049936 -0.030483 -1.249513   # pos: pos   rot: anim
    26 1.719575 0.000001 -0.000002 0.000000 0.033584 -1.110956   # pos: pos   rot: anim
    27 1.209180 0.000001 -0.000001 0.000000 0.000004 -1.111215   # pos: pos   rot: anim
    28 3.859862 -0.137949 1.332465 0.283488 0.115914 -1.212794   # pos: pos   rot: anim
    29 1.719429 -0.000002 0.000003 0.000000 -0.152217 -1.133732   # pos: pos   rot: anim
    30 1.099665 0.000002 -0.000001 0.000000 0.000007 -1.021295   # pos: pos   rot: anim
    31 0.806048 -0.348923 1.321257 -1.241196 -0.251322 -0.849459   # pos: pos   rot: anim
    32 1.789785 0.000000 0.000003 0.000000 -0.036081 0.257592   # pos: pos   rot: anim
    33 1.206999 -0.000001 0.000003 0.000000 0.000001 0.303713   # pos: pos   rot: anim
    34 2.033352 1.000771 -1.937609 -2.479149 1.099724 2.081284   # pos: pos   rot: anim
    35 6.028142 -0.000005 0.000000 -0.702471 1.523575 -2.628456   # pos: pos   rot: anim
    36 11.692543 0.000000 -0.000005 0.000000 0.000000 -1.366375   # pos: pos   rot: anim
    37 11.481694 0.000000 0.000000 -0.819900 0.115062 0.481344   # pos: pos   rot: anim
    38 3.859672 -0.132568 1.193110 0.498203 0.156937 -0.982261   # pos: pos   rot: anim
    39 1.312562 -0.000001 0.000002 0.000000 -0.456987 -1.112956   # pos: pos   rot: anim
    40 0.729365 0.000000 0.000000 0.000000 -0.000010 -0.672062   # pos: pos   rot: anim
    41 3.942293 0.050329 0.431045 0.160536 0.000249 -0.910199   # pos: pos   rot: anim
    42 1.539097 -0.000001 -0.000003 0.000000 -0.214757 -1.281163   # pos: pos   rot: anim
    43 1.196321 0.000001 0.000000 0.000000 -0.000003 -0.797323   # pos: pos   rot: anim
    44 3.883657 -0.050327 -0.431040 -0.084946 -0.177602 -0.644875   # pos: pos   rot: anim
    45 1.719577 -0.000003 0.000003 0.000000 -0.031656 -1.425526   # pos: pos   rot: anim
    46 1.209186 -0.000001 -0.000002 -0.003428 0.022229 -0.934697   # pos: pos   rot: anim
    47 3.859828 -0.148934 -1.331280 -0.321533 -0.122638 -0.062432   # pos: pos   rot: anim
    48 1.719425 -0.000001 0.000001 0.000000 0.126416 -0.583374   # pos: pos   rot: anim
    49 1.099666 -0.000003 0.000001 -0.051342 0.069075 -1.042844   # pos: pos   rot: anim
    50 0.806017 -0.359834 -1.318331 1.282844 0.248629 -0.715183   # pos: pos   rot: anim
    51 1.789781 0.000002 0.000001 0.000000 -0.010076 0.141894   # pos: pos   rot: anim
    52 1.207000 0.000000 0.000000 0.000300 0.002007 1.187250   # pos: pos   rot: anim
    53 3.202716 -1.851488 0.187594 0.000000 0.000000 0.000000   # pos: pos   rot: rot
  time 17
    0 33.041628 -14.859823 28.672084 1.731615 0.172656 -3.721741   # pos: anim   rot: anim
    1 3.890452 -0.000005 -0.000003 -2.391385 -0.909802 -0.619743   # pos: pos   rot: anim
    2 17.848175 0.000000 0.000001 0.000000 0.000000 1.493260   # pos: pos   rot: anim
    3 16.525253 0.000000 0.000001 -0.022026 0.206746 -1.519727   # pos: pos   rot: anim
    4 6.879455 0.000000 0.000000 -0.007299 -0.001069 -0.584373   # pos: pos   rot: anim
    5 -3.890452 0.000005 0.000007 -1.695635 -0.560588 -1.769856   # pos: pos   rot: anim
    6 17.848175 -0.000001 -0.000001 0.000000 0.000000 1.085051   # pos: pos   rot: anim
    7 16.525259 -0.000001 0.000000 0.572606 0.157025 -1.392014   # pos: pos   rot: anim
    8 6.879456 0.000000 0.000000 -0.081333 -0.002951 -0.584373   # pos: pos   rot: rot
    9 -0.195313 3.341221 -2.981901 1.570796 0.008420 1.629661   # pos: anim   rot: anim
    10 4.018332 0.000000 0.000000 -0.236096 0.011553 0.167066   # pos: pos   rot: anim
    11 3.518565 0.000000 0.000001 -0.298538 -0.188566 0.399146   # pos: pos   rot: anim
    12 8.942640 0.000000 -0.000001 0.118875 -0.011481 0.270785   # pos: pos   rot: anim
    13 3.307271 0.000001 0.000000 3.141590 0.000000 0.400478   # pos: pos   rot: rot
    14 3.593713 -0.000001 0.000001 1.115168 -0.118701 0.647546   # pos: pos   rot: anim
    15 2.033345 1.000767 1.937662 4.630859 -1.481610 -0.092595   # pos: pos   rot: anim
    16 6.028145 0.000000 0.000000 -3.164359 -0.672530 0.226625   # pos: pos   rot: anim
    17 11.692550 0.000000 0.000002 0.000000 0.000000 -1.065093   # pos: pos   rot: anim
    18 11.481673 0.000001 -0.000033 1.199124 0.314195 0.303582   # pos: pos   rot: anim
    19 3.859704 -0.142407 -1.191976 -0.463410 -0.186147 -1.428480   # pos: pos   rot: anim
    20 1.312561 0.000000 -0.000001 0.000000 0.066184 -0.827641   # pos: pos   rot: anim
    21 0.729362 0.000000 -0.000001 0.000000 0.000009 -0.594039   # pos: pos   rot: anim
    22 3.942325 0.046770 -0.431444 -0.161989 -0.106345 -1.434486   # pos: pos   rot: anim
    23 1.539093 0.000000 0.000000 0.000000 0.006390 -0.777649   # pos: pos   rot: anim
    24 1.196320 0.000001 -0.000001 0.000000 0.000002 -1.170567   # pos: pos   rot: anim
    25 3.883687 -0.046772 0.431442 0.049936 -0.030483 -1.249513   # pos: pos   rot: anim
    26 1.719575 0.000001 -0.000002 0.000000 0.033584 -1.110956   # pos: pos   rot: anim
    27 1.209180 0.000001 -0.000001 0.000000 0.000004 -1.111215   # pos: pos   rot: anim
    28 3.859862 -0.137949 1.332465 0.283488 0.115914 -1.212794   # pos: pos   rot: anim
    29 1.719429 -0.000002 0.000003 0.000000 -0.152217 -1.133732   # pos: pos   rot: anim
    30 1.099665 0.000002 -0.000001 0.000000 0.000007 -1.021295   # pos: pos   rot: anim
    31 0.806048 -0.348923 1.321257 -1.241196 -0.251322 -0.849459   # pos: pos   rot: anim
    32 1.789785 0.000000 0.000003 0.000000 -0.036081 0.257592   # pos: pos   rot: anim
    33 1.206999 -0.000001 0.000003 0.000000 0.000001 0.303713   # pos: pos   rot: anim
    34 2.033352 1.000771 -1.937609 -2.479149 1.099724 2.081284   # pos: pos   rot: anim
    35 6.028142 -0.000005 0.000000 -0.702471 1.523575 -2.628456   # pos: pos   rot: anim
    36 11.692543 0.000000 -0.000005 0.000000 0.000000 -1.366375   # pos: pos   rot: anim
    37 11.481694 0.000000 0.000000 -0.819900 0.115062 0.481344   # pos: pos   rot: anim
    38 3.859672 -0.132568 1.193110 0.498203 0.156937 -0.982261   # pos: pos   rot: anim
    39 1.312562 -0.000001 0.000002 0.000000 -0.456987 -1.112956   # pos: pos   rot: anim
    40 0.729365 0.000000 0.000000 0.000000 -0.000010 -0.672062   # pos: pos   rot: anim
    41 3.942293 0.050329 0.431045 0.160536 0.000249 -0.910199   # pos: pos   rot: anim
    42 1.539097 -0.000001 -0.000003 0.000000 -0.214757 -1.281163   # pos: pos   rot: anim
    43 1.196321 0.000001 0.000000 0.000000 -0.000003 -0.797323   # pos: pos   rot: anim
    44 3.883657 -0.050327 -0.431040 -0.084946 -0.177602 -0.644875   # pos: pos   rot: anim
    45 1.719577 -0.000003 0.000003 0.000000 -0.031656 -1.425526   # pos: pos   rot: anim
    46 1.209186 -0.000001 -0.000002 -0.003428 0.022229 -0.934697   # pos: pos   rot: anim
    47 3.859828 -0.148934 -1.331280 -0.321533 -0.122638 -0.062432   # pos: pos   rot: anim
    48 1.719425 -0.000001 0.000001 0.000000 0.126416 -0.583374   # pos: pos   rot: anim
    49 1.099666 -0.000003 0.000001 -0.051342 0.069075 -1.042844   # pos: pos   rot: anim
    50 0.806017 -0.359834 -1.318331 1.282844 0.248629 -0.715183   # pos: pos   rot: anim
    51 1.789781 0.000002 0.000001 0.000000 -0.010076 0.141894   # pos: pos   rot: anim
    52 1.207000 0.000000 0.000000 0.000300 0.002007 1.187250   # pos: pos   rot: anim
    53 3.202716 -1.851488 0.187594 0.000000 0.000000 0.000000   # pos: pos   rot: rot
  time 18
    0 33.041628 -14.859823 28.672084 1.731615 0.172656 -3.721741   # pos: anim   rot: anim
    1 3.890452 -0.000005 -0.000003 -2.391385 -0.909802 -0.619743   # pos: pos   rot: anim
    2 17.848175 0.000000 0.000001 0.000000 0.000000 1.493260   # pos: pos   rot: anim
    3 16.525253 0.000000 0.000001 -0.022026 0.206746 -1.519727   # pos: pos   rot: anim
    4 6.879455 0.000000 0.000000 -0.007299 -0.001069 -0.584373   # pos: pos   rot: anim
    5 -3.890452 0.000005 0.000007 -1.695635 -0.560588 -1.769856   # pos: pos   rot: anim
    6 17.848175 -0.000001 -0.000001 0.000000 0.000000 1.085051   # pos: pos   rot: anim
    7 16.525259 -0.000001 0.000000 0.572606 0.157025 -1.392014   # pos: pos   rot: anim
    8 6.879456 0.000000 0.000000 -0.081333 -0.002951 -0.584373   # pos: pos   rot: rot
    9 -0.195313 3.341221 -2.981901 1.570796 0.008420 1.629661   # pos: anim   rot: anim
    10 4.018332 0.000000 0.000000 -0.236096 0.011553 0.167066   # pos: pos   rot: anim
    11 3.518565 0.000000 0.000001 -0.298538 -0.188566 0.399146   # pos: pos   rot: anim
    12 8.942640 0.000000 -0.000001 0.118875 -0.011481 0.270785   # pos: pos   rot: anim
    13 3.307271 0.000001 0.000000 3.141590 0.000000 0.400478   # pos: pos   rot: rot
    14 3.593713 -0.000001 0.000001 1.115168 -0.118701 0.647546   # pos: pos   rot: anim
    15 2.033345 1.000767 1.937662 4.630859 -1.481610 -0.092595   # pos: pos   rot: anim
    16 6.028145 0.000000 0.000000 -3.164359 -0.672530 0.226625   # pos: pos   rot: anim
    17 11.692550 0.000000 0.000002 0.000000 0.000000 -1.065093   # pos: pos   rot: anim
    18 11.481673 0.000001 -0.000033 1.199124 0.314195 0.303582   # pos: pos   rot: anim
    19 3.859704 -0.142407 -1.191976 -0.463410 -0.186147 -1.428480   # pos: pos   rot: anim
    20 1.312561 0.000000 -0.000001 0.000000 0.066184 -0.827641   # pos: pos   rot: anim
    21 0.729362 0.000000 -0.000001 0.000000 0.000009 -0.594039   # pos: pos   rot: anim
    22 3.942325 0.046770 -0.431444 -0.161989 -0.106345 -1.434486   # pos: pos   rot: anim
    23 1.539093 0.000000 0.000000 0.000000 0.006390 -0.777649   # pos: pos   rot: anim
    24 1.196320 0.000001 -0.000001 0.000000 0.000002 -1.170567   # pos: pos   rot: anim
    25 3.883687 -0.046772 0.431442 0.049936 -0.030483 -1.249513   # pos: pos   rot: anim
    26 1.719575 0.000001 -0.000002 0.000000 0.033584 -1.110956   # pos: pos   rot: anim
    27 1.209180 0.000001 -0.000001 0.000000 0.000004 -1.111215   # pos: pos   rot: anim
    28 3.859862 -0.137949 1.332465 0.283488 0.115914 -1.212794   # pos: pos   rot: anim
    29 1.719429 -0.000002 0.000003 0.000000 -0.152217 -1.133732   # pos: pos   rot: anim
    30 1.099665 0.000002 -0.000001 0.000000 0.000007 -1.021295   # pos: pos   rot: anim
    31 0.806048 -0.348923 1.321257 -1.241196 -0.251322 -0.849459   # pos: pos   rot: anim
    32 1.789785 0.000000 0.000003 0.000000 -0.036081 0.257592   # pos: pos   rot: anim
    33 1.206999 -0.000001 0.000003 0.000000 0.000001 0.303713   # pos: pos   rot: anim
    34 2.033352 1.000771 -1.937609 -2.479149 1.099724 2.081284   # pos: pos   rot: anim
    35 6.028142 -0.000005 0.000000 -0.702471 1.523575 -2.628456   # pos: pos   rot: anim
    36 11.692543 0.000000 -0.000005 0.000000 0.000000 -1.366375   # pos: pos   rot: anim
    37 11.481694 0.000000 0.000000 -0.819900 0.115062 0.481344   # pos: pos   rot: anim
    38 3.859672 -0.132568 1.193110 0.498203 0.156937 -0.982261   # pos: pos   rot: anim
    39 1.312562 -0.000001 0.000002 0.000000 -0.456987 -1.112956   # pos: pos   rot: anim
    40 0.729365 0.000000 0.000000 0.000000 -0.000010 -0.672062   # pos: pos   rot: anim
    41 3.942293 0.050329 0.431045 0.160536 0.000249 -0.910199   # pos: pos   rot: anim
    42 1.539097 -0.000001 -0.000003 0.000000 -0.214757 -1.281163   # pos: pos   rot: anim
    43 1.196321 0.000001 0.000000 0.000000 -0.000003 -0.797323   # pos: pos   rot: anim
    44 3.883657 -0.050327 -0.431040 -0.084946 -0.177602 -0.644875   # pos: pos   rot: anim
    45 1.719577 -0.000003 0.000003 0.000000 -0.031656 -1.425526   # pos: pos   rot: anim
    46 1.209186 -0.000001 -0.000002 -0.003428 0.022229 -0.934697   # pos: pos   rot: anim
    47 3.859828 -0.148934 -1.331280 -0.321533 -0.122638 -0.062432   # pos: pos   rot: anim
    48 1.719425 -0.000001 0.000001 0.000000 0.126416 -0.583374   # pos: pos   rot: anim
    49 1.099666 -0.000003 0.000001 -0.051342 0.069075 -1.042844   # pos: pos   rot: anim
    50 0.806017 -0.359834 -1.318331 1.282844 0.248629 -0.715183   # pos: pos   rot: anim
    51 1.789781 0.000002 0.000001 0.000000 -0.010076 0.141894   # pos: pos   rot: anim
    52 1.207000 0.000000 0.000000 0.000300 0.002007 1.187250   # pos: pos   rot: anim
    53 3.202716 -1.851488 0.187594 0.000000 0.000000 0.000000   # pos: pos   rot: rot
end
