// Created by Crowbar 0.51.0.0
version 1
nodes
  0 "ValveBiped.Bip01_Pelvis" -1
  1 "ValveBiped.Bip01_L_Thigh" 0
  2 "ValveBiped.Bip01_L_Calf" 1
  3 "ValveBiped.Bip01_L_Foot" 2
  4 "ValveBiped.Bip01_L_Toe0" 3
  5 "ValveBiped.Bip01_R_Thigh" 0
  6 "ValveBiped.Bip01_R_Calf" 5
  7 "ValveBiped.Bip01_R_Foot" 6
  8 "ValveBiped.Bip01_R_Toe0" 7
  9 "ValveBiped.Bip01_Spine" 0
  10 "ValveBiped.Bip01_Spine1" 9
  11 "ValveBiped.Bip01_Spine2" 10
  12 "ValveBiped.Bip01_Spine4" 11
  13 "ValveBiped.Bip01_Neck1" 12
  14 "ValveBiped.Bip01_Head1" 13
  15 "ValveBiped.Bip01_L_Clavicle" 12
  16 "ValveBiped.Bip01_L_UpperArm" 15
  17 "ValveBiped.Bip01_L_Forearm" 16
  18 "ValveBiped.Bip01_L_Hand" 17
  19 "ValveBiped.Bip01_L_Finger4" 18
  20 "ValveBiped.Bip01_L_Finger41" 19
  21 "ValveBiped.Bip01_L_Finger42" 20
  22 "ValveBiped.Bip01_L_Finger3" 18
  23 "ValveBiped.Bip01_L_Finger31" 22
  24 "ValveBiped.Bip01_L_Finger32" 23
  25 "ValveBiped.Bip01_L_Finger2" 18
  26 "ValveBiped.Bip01_L_Finger21" 25
  27 "ValveBiped.Bip01_L_Finger22" 26
  28 "ValveBiped.Bip01_L_Finger1" 18
  29 "ValveBiped.Bip01_L_Finger11" 28
  30 "ValveBiped.Bip01_L_Finger12" 29
  31 "ValveBiped.Bip01_L_Finger0" 18
  32 "ValveBiped.Bip01_L_Finger01" 31
  33 "ValveBiped.Bip01_L_Finger02" 32
  34 "ValveBiped.Bip01_R_Clavicle" 12
  35 "ValveBiped.Bip01_R_UpperArm" 34
  36 "ValveBiped.Bip01_R_Forearm" 35
  37 "ValveBiped.Bip01_R_Hand" 36
  38 "ValveBiped.Bip01_R_Finger4" 37
  39 "ValveBiped.Bip01_R_Finger41" 38
  40 "ValveBiped.Bip01_R_Finger42" 39
  41 "ValveBiped.Bip01_R_Finger3" 37
  42 "ValveBiped.Bip01_R_Finger31" 41
  43 "ValveBiped.Bip01_R_Finger32" 42
  44 "ValveBiped.Bip01_R_Finger2" 37
  45 "ValveBiped.Bip01_R_Finger21" 44
  46 "ValveBiped.Bip01_R_Finger22" 45
  47 "ValveBiped.Bip01_R_Finger1" 37
  48 "ValveBiped.Bip01_R_Finger11" 47
  49 "ValveBiped.Bip01_R_Finger12" 48
  50 "ValveBiped.Bip01_R_Finger0" 37
  51 "ValveBiped.Bip01_R_Finger01" 50
  52 "ValveBiped.Bip01_R_Finger02" 51
  53 "ValveBiped.Annabelle_Null" 37
end
skeleton
  time 0
    0 -1.393016 3.988408 35.965276 1.648762 -0.103953 -0.335020   # pos: anim   rot: anim
    1 3.890452 -0.000003 -0.000003 -2.213676 -0.225412 -1.289432   # pos: pos   rot: anim
    2 17.848169 0.000000 -0.000001 0.000000 0.000000 0.444866   # pos: pos   rot: anim
    3 16.525251 0.000001 0.000000 -0.106852 0.065991 -1.078922   # pos: pos   rot: anim
    4 6.879454 0.000000 -0.000001 -0.007299 -0.002951 -0.584373   # pos: pos   rot: anim
    5 -3.890452 0.000005 0.000006 -1.485148 -0.458713 -1.870931   # pos: pos   rot: anim
    6 17.848171 -0.000002 -0.000001 0.000000 0.000000 0.655311   # pos: pos   rot: anim
    7 16.525251 0.000000 0.000000 0.145694 -0.083337 -1.252944   # pos: pos   rot: anim
    8 6.879454 -0.000001 -0.000001 -0.081333 -0.002951 -0.584373   # pos: pos   rot: rot
    9 0.000005 3.345128 -2.981901 1.575946 0.145027 1.607239   # pos: anim   rot: anim
    10 4.018333 0.000000 0.000000 0.035654 0.099172 0.120728   # pos: pos   rot: anim
    11 3.518568 0.000000 -0.000001 0.100424 0.034192 0.125888   # pos: pos   rot: anim
    12 8.942639 0.000000 0.000000 0.035822 0.132717 0.196469   # pos: pos   rot: anim
    13 3.307274 0.000000 0.000000 3.141591 0.000000 0.400478   # pos: pos   rot: rot
    14 3.593712 0.000000 0.000000 0.000000 -0.000001 0.406587   # pos: pos   rot: anim
    15 2.033351 1.000767 1.937660 1.676696 -1.502184 2.862098   # pos: pos   rot: anim
    16 6.028142 -0.000001 -0.000001 -1.744205 0.317462 -0.839514   # pos: pos   rot: anim
    17 11.692554 0.000001 0.000000 0.000000 0.000000 -2.488683   # pos: pos   rot: anim
    18 11.481672 -0.000001 -0.000035 0.985895 -0.791597 0.991418   # pos: pos   rot: anim
    19 3.859702 -0.142406 -1.191975 -0.463410 -0.186147 -1.428480   # pos: pos   rot: anim
    20 1.312561 0.000000 0.000001 0.000000 0.066184 -0.827641   # pos: pos   rot: anim
    21 0.729363 0.000000 0.000003 0.000000 0.000009 -0.594039   # pos: pos   rot: anim
    22 3.942324 0.046771 -0.431442 -0.161989 -0.106345 -1.434486   # pos: pos   rot: anim
    23 1.539094 -0.000001 0.000003 0.000000 0.006390 -0.777649   # pos: pos   rot: anim
    24 1.196320 0.000000 -0.000001 0.000000 0.000002 -1.170567   # pos: pos   rot: anim
    25 3.883686 -0.046771 0.431443 0.049936 -0.030483 -1.249513   # pos: pos   rot: anim
    26 1.719576 0.000000 -0.000001 0.000000 0.033584 -1.110956   # pos: pos   rot: anim
    27 1.209183 0.000002 -0.000001 0.000000 0.000004 -1.111215   # pos: pos   rot: anim
    28 3.859859 -0.137949 1.332465 0.283488 0.115914 -1.212794   # pos: pos   rot: anim
    29 1.719428 0.000000 0.000001 0.000000 -0.152217 -1.133732   # pos: pos   rot: anim
    30 1.099664 0.000001 -0.000001 0.000000 0.000007 -1.021295   # pos: pos   rot: anim
    31 0.806046 -0.348922 1.321258 -1.241196 -0.251322 -0.849459   # pos: pos   rot: anim
    32 1.789784 0.000000 -0.000001 0.000000 -0.036081 0.257592   # pos: pos   rot: anim
    33 1.206998 0.000000 0.000002 0.000000 0.000001 0.303713   # pos: pos   rot: anim
    34 2.033355 1.000772 -1.937611 -3.245334 1.267909 1.359540   # pos: pos   rot: anim
    35 6.028142 -0.000003 -0.000001 0.836471 0.599464 -0.920792   # pos: pos   rot: anim
    36 11.692547 -0.000001 -0.000001 0.000000 0.000000 -1.737296   # pos: pos   rot: anim
    37 11.481693 0.000000 0.000000 -0.821829 -0.149897 -0.362782   # pos: pos   rot: anim
    38 3.859672 -0.132567 1.193109 0.498203 0.156937 -0.982261   # pos: pos   rot: anim
    39 1.312560 0.000000 0.000001 0.000000 -0.456987 -1.112956   # pos: pos   rot: anim
    40 0.729364 0.000001 0.000000 0.000000 -0.000010 -0.672062   # pos: pos   rot: anim
    41 3.942294 0.050330 0.431042 0.160536 0.000249 -0.910199   # pos: pos   rot: anim
    42 1.539097 -0.000001 0.000002 0.000000 -0.214757 -1.281163   # pos: pos   rot: anim
    43 1.196320 0.000001 0.000000 0.000000 -0.000003 -0.797323   # pos: pos   rot: anim
    44 3.883656 -0.050326 -0.431041 -0.084946 -0.177602 -0.644875   # pos: pos   rot: anim
    45 1.719577 0.000001 -0.000001 0.000000 -0.031656 -1.425526   # pos: pos   rot: anim
    46 1.209184 -0.000001 0.000001 -0.003428 0.022229 -0.934697   # pos: pos   rot: anim
    47 3.859829 -0.148934 -1.331284 -0.321533 -0.122638 -0.062432   # pos: pos   rot: anim
    48 1.719425 0.000000 0.000001 0.000000 0.126416 -0.583374   # pos: pos   rot: anim
    49 1.099666 0.000000 -0.000002 -0.051342 0.069075 -1.042844   # pos: pos   rot: anim
    50 0.806017 -0.359833 -1.318334 1.282844 0.248629 -0.715183   # pos: pos   rot: anim
    51 1.789780 0.000000 -0.000001 0.000000 -0.010076 0.141894   # pos: pos   rot: anim
    52 1.206998 0.000001 0.000001 0.000300 0.002007 1.187250   # pos: pos   rot: anim
    53 3.202717 -1.851488 0.187592 0.000000 0.000000 0.000000   # pos: pos   rot: rot
  time 1
    0 -1.779747 3.742307 35.875429 1.655828 -0.101885 -0.378350   # pos: anim   rot: anim
    1 3.890452 -0.000003 -0.000003 -2.106609 -0.358531 -1.254020   # pos: pos   rot: anim
    2 17.848169 0.000000 -0.000001 0.000000 0.000000 0.648003   # pos: pos   rot: anim
    3 16.525251 0.000001 0.000000 -0.154087 0.014177 -1.096231   # pos: pos   rot: anim
    4 6.879454 0.000000 -0.000001 -0.007299 -0.002927 -0.584373   # pos: pos   rot: anim
    5 -3.890452 0.000005 0.000006 -1.447730 -0.479033 -1.863006   # pos: pos   rot: anim
    6 17.848171 -0.000002 -0.000001 0.000000 0.000000 0.697732   # pos: pos   rot: anim
    7 16.525251 0.000000 0.000000 0.157606 -0.025530 -1.269878   # pos: pos   rot: anim
    8 6.879454 -0.000001 -0.000001 -0.081333 -0.002951 -0.584373   # pos: pos   rot: rot
    9 0.000005 3.345128 -2.981901 1.575787 0.143301 1.607487   # pos: anim   rot: anim
    10 4.018333 0.000000 0.000000 0.032191 0.098046 0.121309   # pos: pos   rot: anim
    11 3.518568 0.000000 -0.000001 0.095331 0.031364 0.129413   # pos: pos   rot: anim
    12 8.942639 0.000000 0.000000 0.036865 0.130884 0.197404   # pos: pos   rot: anim
    13 3.307274 0.000000 0.000000 3.141591 0.000000 0.400478   # pos: pos   rot: rot
    14 3.593712 0.000000 0.000000 -0.051010 -0.009936 0.415725   # pos: pos   rot: anim
    15 2.033351 1.000767 1.937660 1.679857 -1.504186 2.858936   # pos: pos   rot: anim
    16 6.028142 -0.000001 -0.000001 -1.712567 0.256049 -0.809053   # pos: pos   rot: anim
    17 11.692554 0.000001 0.000000 0.000000 0.000000 -2.492559   # pos: pos   rot: anim
    18 11.481672 -0.000001 -0.000035 0.992208 -0.789107 1.021393   # pos: pos   rot: anim
    19 3.859702 -0.142406 -1.191975 -0.463425 -0.186147 -1.428480   # pos: pos   rot: anim
    20 1.312561 0.000000 0.000001 0.000000 0.066184 -0.827641   # pos: pos   rot: anim
    21 0.729363 0.000000 0.000003 0.000000 0.000009 -0.594039   # pos: pos   rot: anim
    22 3.942324 0.046771 -0.431442 -0.161989 -0.106345 -1.434486   # pos: pos   rot: anim
    23 1.539094 -0.000001 0.000003 0.000000 0.006390 -0.777649   # pos: pos   rot: anim
    24 1.196320 0.000000 -0.000001 0.000000 0.000002 -1.170567   # pos: pos   rot: anim
    25 3.883686 -0.046771 0.431443 0.049936 -0.030483 -1.249513   # pos: pos   rot: anim
    26 1.719576 0.000000 -0.000001 0.000000 0.033584 -1.110956   # pos: pos   rot: anim
    27 1.209183 0.000002 -0.000001 0.000000 0.000004 -1.111215   # pos: pos   rot: anim
    28 3.859859 -0.137949 1.332465 0.283488 0.115914 -1.212794   # pos: pos   rot: anim
    29 1.719428 0.000000 0.000001 0.000000 -0.152217 -1.133732   # pos: pos   rot: anim
    30 1.099664 0.000001 -0.000001 0.000000 0.000007 -1.021295   # pos: pos   rot: anim
    31 0.806046 -0.348922 1.321258 -1.241196 -0.251322 -0.849459   # pos: pos   rot: anim
    32 1.789784 0.000000 -0.000001 0.000000 -0.036081 0.257592   # pos: pos   rot: anim
    33 1.206998 0.000000 0.000002 0.000000 0.000001 0.303713   # pos: pos   rot: anim
    34 2.033355 1.000772 -1.937611 -3.231681 1.267290 1.372852   # pos: pos   rot: anim
    35 6.028142 -0.000003 -0.000001 0.872048 0.527670 -0.928155   # pos: pos   rot: anim
    36 11.692547 -0.000001 -0.000001 0.000000 0.000000 -1.787223   # pos: pos   rot: anim
    37 11.481693 0.000000 0.000000 -0.861476 -0.167664 -0.337936   # pos: pos   rot: anim
    38 3.859672 -0.132567 1.193109 0.498203 0.156937 -0.982261   # pos: pos   rot: anim
    39 1.312560 0.000000 0.000001 0.000000 -0.456987 -1.112956   # pos: pos   rot: anim
    40 0.729364 0.000001 0.000000 0.000000 -0.000010 -0.672062   # pos: pos   rot: anim
    41 3.942294 0.050330 0.431042 0.160536 0.000249 -0.910199   # pos: pos   rot: anim
    42 1.539097 -0.000001 0.000002 0.000000 -0.214757 -1.281163   # pos: pos   rot: anim
    43 1.196320 0.000001 0.000000 0.000000 -0.000003 -0.797323   # pos: pos   rot: anim
    44 3.883656 -0.050326 -0.431041 -0.084946 -0.177602 -0.644875   # pos: pos   rot: anim
    45 1.719577 0.000001 -0.000001 0.000000 -0.031656 -1.425526   # pos: pos   rot: anim
    46 1.209184 -0.000001 0.000001 -0.003428 0.022229 -0.934697   # pos: pos   rot: anim
    47 3.859829 -0.148934 -1.331284 -0.321533 -0.122638 -0.062432   # pos: pos   rot: anim
    48 1.719425 0.000000 0.000001 0.000000 0.126416 -0.583374   # pos: pos   rot: anim
    49 1.099666 0.000000 -0.000002 -0.051342 0.069075 -1.042844   # pos: pos   rot: anim
    50 0.806017 -0.359833 -1.318334 1.282844 0.248629 -0.715183   # pos: pos   rot: anim
    51 1.789780 0.000000 -0.000001 0.000000 -0.010076 0.141894   # pos: pos   rot: anim
    52 1.206998 0.000001 0.000001 0.000300 0.002007 1.187250   # pos: pos   rot: anim
    53 3.202717 -1.851488 0.187592 0.000000 0.000000 0.000000   # pos: pos   rot: rot
  time 2
    0 -2.873530 3.039160 35.621515 1.675437 -0.094950 -0.500360   # pos: anim   rot: anim
    1 3.890452 -0.000003 -0.000003 -1.836594 -0.616058 -1.285137   # pos: pos   rot: anim
    2 17.848169 0.000000 -0.000001 0.000000 0.000000 0.961302   # pos: pos   rot: anim
    3 16.525251 0.000001 0.000000 -0.264481 -0.039531 -1.078402   # pos: pos   rot: anim
    4 6.879454 0.000000 -0.000001 -0.007299 -0.002867 -0.584373   # pos: pos   rot: anim
    5 -3.890452 0.000005 0.000006 -1.213509 -0.503135 -1.897034   # pos: pos   rot: anim
    6 17.848171 -0.000002 -0.000001 0.000000 0.000000 0.789239   # pos: pos   rot: anim
    7 16.525251 0.000000 0.000000 0.095828 -0.011452 -1.326641   # pos: pos   rot: anim
    8 6.879454 -0.000001 -0.000001 -0.081333 -0.002951 -0.584373   # pos: pos   rot: rot
    9 -0.007808 3.345128 -2.981901 1.575468 0.138411 1.608283   # pos: anim   rot: anim
    10 4.018333 0.000000 0.000000 0.022447 0.094906 0.122920   # pos: pos   rot: anim
    11 3.518568 0.000000 -0.000001 0.081021 0.023382 0.139319   # pos: pos   rot: anim
    12 8.942639 0.000000 0.000000 0.039825 0.125706 0.200040   # pos: pos   rot: anim
    13 3.307274 0.000000 0.000000 3.141591 0.000000 0.400478   # pos: pos   rot: rot
    14 3.593712 0.000000 0.000000 -0.180415 -0.035456 0.443460   # pos: pos   rot: anim
    15 2.033351 1.000767 1.937660 1.689912 -1.509762 2.848876   # pos: pos   rot: anim
    16 6.028142 -0.000001 -0.000001 -1.642601 0.066285 -0.743832   # pos: pos   rot: anim
    17 11.692554 0.000001 0.000000 0.000000 0.000000 -2.483818   # pos: pos   rot: anim
    18 11.481672 -0.000001 -0.000035 1.011226 -0.775246 1.104837   # pos: pos   rot: anim
    19 3.859702 -0.142406 -1.191975 -0.463425 -0.186147 -1.428480   # pos: pos   rot: anim
    20 1.312561 0.000000 0.000001 0.000000 0.066184 -0.827641   # pos: pos   rot: anim
    21 0.729363 0.000000 0.000003 0.000000 0.000009 -0.594039   # pos: pos   rot: anim
    22 3.942324 0.046771 -0.431442 -0.161989 -0.106345 -1.434486   # pos: pos   rot: anim
    23 1.539094 -0.000001 0.000003 0.000000 0.006390 -0.777649   # pos: pos   rot: anim
    24 1.196320 0.000000 -0.000001 0.000000 0.000002 -1.170567   # pos: pos   rot: anim
    25 3.883686 -0.046771 0.431443 0.049936 -0.030483 -1.249513   # pos: pos   rot: anim
    26 1.719576 0.000000 -0.000001 0.000000 0.033584 -1.110956   # pos: pos   rot: anim
    27 1.209183 0.000002 -0.000001 0.000000 0.000004 -1.111215   # pos: pos   rot: anim
    28 3.859859 -0.137949 1.332465 0.283488 0.115914 -1.212794   # pos: pos   rot: anim
    29 1.719428 0.000000 0.000001 0.000000 -0.152217 -1.133732   # pos: pos   rot: anim
    30 1.099664 0.000001 -0.000001 0.000000 0.000007 -1.021295   # pos: pos   rot: anim
    31 0.806046 -0.348922 1.321258 -1.241196 -0.251322 -0.849459   # pos: pos   rot: anim
    32 1.789784 0.000000 -0.000001 0.000000 -0.036081 0.257592   # pos: pos   rot: anim
    33 1.206998 0.000000 0.000002 0.000000 0.000001 0.303713   # pos: pos   rot: anim
    34 2.033355 1.000772 -1.937611 -3.193586 1.265309 1.409820   # pos: pos   rot: anim
    35 6.028142 -0.000003 -0.000001 0.979400 0.323553 -0.986221   # pos: pos   rot: anim
    36 11.692547 -0.000001 -0.000001 0.000000 0.000000 -1.905424   # pos: pos   rot: anim
    37 11.481693 0.000000 0.000000 -0.967777 -0.252254 -0.287974   # pos: pos   rot: anim
    38 3.859672 -0.132567 1.193109 0.498203 0.156937 -0.982261   # pos: pos   rot: anim
    39 1.312560 0.000000 0.000001 0.000000 -0.456987 -1.112956   # pos: pos   rot: anim
    40 0.729364 0.000001 0.000000 0.000000 -0.000010 -0.672062   # pos: pos   rot: anim
    41 3.942294 0.050330 0.431042 0.160536 0.000249 -0.910199   # pos: pos   rot: anim
    42 1.539097 -0.000001 0.000002 0.000000 -0.214757 -1.281163   # pos: pos   rot: anim
    43 1.196320 0.000001 0.000000 0.000000 -0.000003 -0.797323   # pos: pos   rot: anim
    44 3.883656 -0.050326 -0.431041 -0.084946 -0.177602 -0.644875   # pos: pos   rot: anim
    45 1.719577 0.000001 -0.000001 0.000000 -0.031656 -1.425526   # pos: pos   rot: anim
    46 1.209184 -0.000001 0.000001 -0.003428 0.022229 -0.934697   # pos: pos   rot: anim
    47 3.859829 -0.148934 -1.331284 -0.321533 -0.122638 -0.062432   # pos: pos   rot: anim
    48 1.719425 0.000000 0.000001 0.000000 0.126416 -0.583374   # pos: pos   rot: anim
    49 1.099666 0.000000 -0.000002 -0.051342 0.069075 -1.042844   # pos: pos   rot: anim
    50 0.806017 -0.359833 -1.318334 1.282844 0.248629 -0.715183   # pos: pos   rot: anim
    51 1.789780 0.000000 -0.000001 0.000000 -0.010076 0.141894   # pos: pos   rot: anim
    52 1.206998 0.000001 0.000001 0.000300 0.002007 1.187250   # pos: pos   rot: anim
    53 3.202717 -1.851488 0.187592 0.000000 0.000000 0.000000   # pos: pos   rot: rot
  time 3
    0 -4.561082 1.953190 35.234784 1.704468 -0.081203 -0.688411   # pos: anim   rot: anim
    1 3.890452 -0.000003 -0.000003 -1.424622 -0.845787 -1.496563   # pos: pos   rot: anim
    2 17.848169 0.000000 -0.000001 0.000000 0.000000 1.219180   # pos: pos   rot: anim
    3 16.525251 0.000001 0.000000 -0.334364 -0.015860 -1.079158   # pos: pos   rot: anim
    4 6.879454 0.000000 -0.000001 -0.007299 -0.002759 -0.584373   # pos: pos   rot: anim
    5 -3.890452 0.000005 0.000006 -0.872439 -0.466686 -1.964780   # pos: pos   rot: anim
    6 17.848171 -0.000002 -0.000001 0.000000 0.000000 0.881558   # pos: pos   rot: anim
    7 16.525251 0.000000 0.000000 -0.025459 -0.112575 -1.423659   # pos: pos   rot: anim
    8 6.879454 -0.000001 -0.000001 -0.081333 -0.002951 -0.584373   # pos: pos   rot: rot
    9 -0.019527 3.345128 -2.981901 1.574937 0.130847 1.609526   # pos: anim   rot: anim
    10 4.018333 0.000000 0.000000 0.007394 0.090052 0.125443   # pos: pos   rot: anim
    11 3.518568 0.000000 -0.000001 0.058899 0.011050 0.154615   # pos: pos   rot: anim
    12 8.942639 0.000000 0.000000 0.044415 0.117713 0.204103   # pos: pos   rot: anim
    13 3.307274 0.000000 0.000000 3.141591 0.000000 0.400478   # pos: pos   rot: rot
    14 3.593712 0.000000 0.000000 -0.353174 -0.069348 0.490371   # pos: pos   rot: anim
    15 2.033351 1.000767 1.937660 1.709639 -1.518399 2.829139   # pos: pos   rot: anim
    16 6.028142 -0.000001 -0.000001 -1.568334 -0.238336 -0.687115   # pos: pos   rot: anim
    17 11.692554 0.000001 0.000000 0.000000 0.000000 -2.415033   # pos: pos   rot: anim
    18 11.481672 -0.000001 -0.000035 1.037663 -0.735224 1.201279   # pos: pos   rot: anim
    19 3.859702 -0.142406 -1.191975 -0.463425 -0.186147 -1.428480   # pos: pos   rot: anim
    20 1.312561 0.000000 0.000001 0.000000 0.066184 -0.827641   # pos: pos   rot: anim
    21 0.729363 0.000000 0.000003 0.000000 0.000009 -0.594039   # pos: pos   rot: anim
    22 3.942324 0.046771 -0.431442 -0.161989 -0.106345 -1.434486   # pos: pos   rot: anim
    23 1.539094 -0.000001 0.000003 0.000000 0.006390 -0.777649   # pos: pos   rot: anim
    24 1.196320 0.000000 -0.000001 0.000000 0.000002 -1.170567   # pos: pos   rot: anim
    25 3.883686 -0.046771 0.431443 0.049936 -0.030483 -1.249513   # pos: pos   rot: anim
    26 1.719576 0.000000 -0.000001 0.000000 0.033584 -1.110956   # pos: pos   rot: anim
    27 1.209183 0.000002 -0.000001 0.000000 0.000004 -1.111215   # pos: pos   rot: anim
    28 3.859859 -0.137949 1.332465 0.283488 0.115914 -1.212794   # pos: pos   rot: anim
    29 1.719428 0.000000 0.000001 0.000000 -0.152217 -1.133732   # pos: pos   rot: anim
    30 1.099664 0.000001 -0.000001 0.000000 0.000007 -1.021295   # pos: pos   rot: anim
    31 0.806046 -0.348922 1.321258 -1.241196 -0.251322 -0.849459   # pos: pos   rot: anim
    32 1.789784 0.000000 -0.000001 0.000000 -0.036081 0.257592   # pos: pos   rot: anim
    33 1.206998 0.000000 0.000002 0.000000 0.000001 0.303713   # pos: pos   rot: anim
    34 2.033355 1.000772 -1.937611 -3.135729 1.261389 1.465848   # pos: pos   rot: anim
    35 6.028142 -0.000003 -0.000001 1.140782 0.071367 -1.070476   # pos: pos   rot: anim
    36 11.692547 -0.000001 -0.000001 0.000000 0.000000 -2.041897   # pos: pos   rot: anim
    37 11.481693 0.000000 0.000000 -1.066428 -0.344347 -0.259370   # pos: pos   rot: anim
    38 3.859672 -0.132567 1.193109 0.498203 0.156937 -0.982261   # pos: pos   rot: anim
    39 1.312560 0.000000 0.000001 0.000000 -0.456987 -1.112956   # pos: pos   rot: anim
    40 0.729364 0.000001 0.000000 0.000000 -0.000010 -0.672062   # pos: pos   rot: anim
    41 3.942294 0.050330 0.431042 0.160536 0.000249 -0.910199   # pos: pos   rot: anim
    42 1.539097 -0.000001 0.000002 0.000000 -0.214757 -1.281163   # pos: pos   rot: anim
    43 1.196320 0.000001 0.000000 0.000000 -0.000003 -0.797323   # pos: pos   rot: anim
    44 3.883656 -0.050326 -0.431041 -0.084946 -0.177602 -0.644875   # pos: pos   rot: anim
    45 1.719577 0.000001 -0.000001 0.000000 -0.031656 -1.425526   # pos: pos   rot: anim
    46 1.209184 -0.000001 0.000001 -0.003428 0.022229 -0.934697   # pos: pos   rot: anim
    47 3.859829 -0.148934 -1.331284 -0.321533 -0.122638 -0.062432   # pos: pos   rot: anim
    48 1.719425 0.000000 0.000001 0.000000 0.126416 -0.583374   # pos: pos   rot: anim
    49 1.099666 0.000000 -0.000002 -0.051342 0.069075 -1.042844   # pos: pos   rot: anim
    50 0.806017 -0.359833 -1.318334 1.282844 0.248629 -0.715183   # pos: pos   rot: anim
    51 1.789780 0.000000 -0.000001 0.000000 -0.010076 0.141894   # pos: pos   rot: anim
    52 1.206998 0.000001 0.000001 0.000300 0.002007 1.187250   # pos: pos   rot: anim
    53 3.202717 -1.851488 0.187592 0.000000 0.000000 0.000000   # pos: pos   rot: rot
  time 4
    0 -6.736929 0.554709 34.734769 1.738681 -0.058515 -0.929865   # pos: anim   rot: anim
    1 3.890452 -0.000003 -0.000003 -0.948141 -0.958841 -1.878274   # pos: pos   rot: anim
    2 17.848169 0.000000 -0.000001 0.000000 0.000000 1.370075   # pos: pos   rot: anim
    3 16.525251 0.000001 0.000000 -0.233098 0.049996 -1.155203   # pos: pos   rot: anim
    4 6.879454 0.000000 -0.000001 -0.007299 -0.002627 -0.584373   # pos: pos   rot: anim
    5 -3.890452 0.000005 0.000006 -0.687967 -0.404814 -1.985212   # pos: pos   rot: anim
    6 17.848171 -0.000002 -0.000001 0.000000 0.000000 0.951529   # pos: pos   rot: anim
    7 16.525251 0.000000 0.000000 -0.103959 -0.261417 -1.518596   # pos: pos   rot: anim
    8 6.879454 -0.000001 -0.000001 -0.081333 -0.002951 -0.584373   # pos: pos   rot: rot
    9 -0.031246 3.345128 -2.981901 1.574300 0.121100 1.611067   # pos: anim   rot: anim
    10 4.018333 0.000000 0.000000 -0.011997 0.083784 0.128698   # pos: pos   rot: anim
    11 3.518568 0.000000 -0.000001 0.030371 -0.004830 0.174296   # pos: pos   rot: anim
    12 8.942639 0.000000 0.000000 0.050311 0.107418 0.209364   # pos: pos   rot: anim
    13 3.307274 0.000000 0.000000 3.141591 0.000000 0.400478   # pos: pos   rot: rot
    14 3.593712 0.000000 0.000000 -0.534201 -0.103950 0.552919   # pos: pos   rot: anim
    15 2.033351 1.000767 1.937660 1.747179 -1.529471 2.791485   # pos: pos   rot: anim
    16 6.028142 -0.000001 -0.000001 -1.497795 -0.579433 -0.668334   # pos: pos   rot: anim
    17 11.692554 0.000001 0.000000 0.000000 0.000000 -2.248960   # pos: pos   rot: anim
    18 11.481672 -0.000001 -0.000035 1.063863 -0.659453 1.223042   # pos: pos   rot: anim
    19 3.859702 -0.142406 -1.191975 -0.463410 -0.186147 -1.428480   # pos: pos   rot: anim
    20 1.312561 0.000000 0.000001 0.000000 0.066184 -0.827641   # pos: pos   rot: anim
    21 0.729363 0.000000 0.000003 0.000000 0.000009 -0.594039   # pos: pos   rot: anim
    22 3.942324 0.046771 -0.431442 -0.161989 -0.106345 -1.434486   # pos: pos   rot: anim
    23 1.539094 -0.000001 0.000003 0.000000 0.006390 -0.777649   # pos: pos   rot: anim
    24 1.196320 0.000000 -0.000001 0.000000 0.000002 -1.170567   # pos: pos   rot: anim
    25 3.883686 -0.046771 0.431443 0.049936 -0.030483 -1.249513   # pos: pos   rot: anim
    26 1.719576 0.000000 -0.000001 0.000000 0.033584 -1.110956   # pos: pos   rot: anim
    27 1.209183 0.000002 -0.000001 0.000000 0.000004 -1.111215   # pos: pos   rot: anim
    28 3.859859 -0.137949 1.332465 0.283488 0.115914 -1.212794   # pos: pos   rot: anim
    29 1.719428 0.000000 0.000001 0.000000 -0.152217 -1.133732   # pos: pos   rot: anim
    30 1.099664 0.000001 -0.000001 0.000000 0.000007 -1.021295   # pos: pos   rot: anim
    31 0.806046 -0.348922 1.321258 -1.241196 -0.251322 -0.849459   # pos: pos   rot: anim
    32 1.789784 0.000000 -0.000001 0.000000 -0.036081 0.257592   # pos: pos   rot: anim
    33 1.206998 0.000000 0.000002 0.000000 0.000001 0.303713   # pos: pos   rot: anim
    34 2.033355 1.000772 -1.937611 -3.063550 1.254911 1.535474   # pos: pos   rot: anim
    35 6.028142 -0.000003 -0.000001 1.266588 -0.119909 -1.049971   # pos: pos   rot: anim
    36 11.692547 -0.000001 -0.000001 0.000000 0.000000 -2.156940   # pos: pos   rot: anim
    37 11.481693 0.000000 0.000000 -1.064365 -0.275384 -0.279692   # pos: pos   rot: anim
    38 3.859672 -0.132567 1.193109 0.498203 0.156937 -0.982261   # pos: pos   rot: anim
    39 1.312560 0.000000 0.000001 0.000000 -0.456987 -1.112956   # pos: pos   rot: anim
    40 0.729364 0.000001 0.000000 0.000000 -0.000010 -0.672062   # pos: pos   rot: anim
    41 3.942294 0.050330 0.431042 0.160536 0.000249 -0.910199   # pos: pos   rot: anim
    42 1.539097 -0.000001 0.000002 0.000000 -0.214757 -1.281163   # pos: pos   rot: anim
    43 1.196320 0.000001 0.000000 0.000000 -0.000003 -0.797323   # pos: pos   rot: anim
    44 3.883656 -0.050326 -0.431041 -0.084946 -0.177602 -0.644875   # pos: pos   rot: anim
    45 1.719577 0.000001 -0.000001 0.000000 -0.031656 -1.425526   # pos: pos   rot: anim
    46 1.209184 -0.000001 0.000001 -0.003428 0.022229 -0.934697   # pos: pos   rot: anim
    47 3.859829 -0.148934 -1.331284 -0.321533 -0.122638 -0.062432   # pos: pos   rot: anim
    48 1.719425 0.000000 0.000001 0.000000 0.126416 -0.583374   # pos: pos   rot: anim
    49 1.099666 0.000000 -0.000002 -0.051342 0.069075 -1.042844   # pos: pos   rot: anim
    50 0.806017 -0.359833 -1.318334 1.282844 0.248629 -0.715183   # pos: pos   rot: anim
    51 1.789780 0.000000 -0.000001 0.000000 -0.010076 0.141894   # pos: pos   rot: anim
    52 1.206998 0.000001 0.000001 0.000300 0.002007 1.187250   # pos: pos   rot: anim
    53 3.202717 -1.851488 0.187592 0.000000 0.000000 0.000000   # pos: pos   rot: rot
  time 5
    0 -9.291695 -1.082059 34.144907 1.772600 -0.025973 -1.212179   # pos: anim   rot: anim
    1 3.890452 -0.000003 -0.000003 -0.654738 -0.999853 -2.171693   # pos: pos   rot: anim
    2 17.848169 0.000000 -0.000001 0.000000 0.000000 1.374921   # pos: pos   rot: anim
    3 16.525251 0.000001 0.000000 -0.021339 0.142531 -1.155392   # pos: pos   rot: anim
    4 6.879454 0.000000 -0.000001 -0.007299 -0.002472 -0.584373   # pos: pos   rot: anim
    5 -3.890452 0.000005 0.000006 -0.762887 -0.404450 -1.949475   # pos: pos   rot: anim
    6 17.848171 -0.000002 -0.000001 0.000000 0.000000 0.998176   # pos: pos   rot: anim
    7 16.525251 0.000000 0.000000 -0.045944 -0.239190 -1.575407   # pos: pos   rot: anim
    8 6.879454 -0.000001 -0.000001 -0.081333 -0.002951 -0.584373   # pos: pos   rot: rot
    9 -0.050778 3.345128 -2.981901 1.573610 0.109645 1.612906   # pos: anim   rot: anim
    10 4.018333 0.000000 0.000000 -0.034791 0.076438 0.132533   # pos: pos   rot: anim
    11 3.518568 0.000000 -0.000001 -0.003103 -0.023478 0.197371   # pos: pos   rot: anim
    12 8.942639 0.000000 0.000000 0.057262 0.095325 0.215548   # pos: pos   rot: anim
    13 3.307274 0.000000 0.000000 3.141591 0.000000 0.400478   # pos: pos   rot: rot
    14 3.593712 0.000000 0.000000 -0.688061 -0.133558 0.621645   # pos: pos   rot: anim
    15 2.033351 1.000767 1.937660 1.828580 -1.542350 2.710047   # pos: pos   rot: anim
    16 6.028142 -0.000001 -0.000001 -1.410911 -0.882586 -0.708419   # pos: pos   rot: anim
    17 11.692554 0.000001 0.000000 0.000000 0.000000 -1.994493   # pos: pos   rot: anim
    18 11.481672 -0.000001 -0.000035 1.086669 -0.557893 1.130945   # pos: pos   rot: anim
    19 3.859702 -0.142406 -1.191975 -0.463425 -0.186147 -1.428480   # pos: pos   rot: anim
    20 1.312561 0.000000 0.000001 0.000000 0.066184 -0.827641   # pos: pos   rot: anim
    21 0.729363 0.000000 0.000003 0.000000 0.000009 -0.594039   # pos: pos   rot: anim
    22 3.942324 0.046771 -0.431442 -0.161989 -0.106345 -1.434486   # pos: pos   rot: anim
    23 1.539094 -0.000001 0.000003 0.000000 0.006390 -0.777649   # pos: pos   rot: anim
    24 1.196320 0.000000 -0.000001 0.000000 0.000002 -1.170567   # pos: pos   rot: anim
    25 3.883686 -0.046771 0.431443 0.049936 -0.030483 -1.249513   # pos: pos   rot: anim
    26 1.719576 0.000000 -0.000001 0.000000 0.033584 -1.110956   # pos: pos   rot: anim
    27 1.209183 0.000002 -0.000001 0.000000 0.000004 -1.111215   # pos: pos   rot: anim
    28 3.859859 -0.137949 1.332465 0.283488 0.115914 -1.212794   # pos: pos   rot: anim
    29 1.719428 0.000000 0.000001 0.000000 -0.152217 -1.133732   # pos: pos   rot: anim
    30 1.099664 0.000001 -0.000001 0.000000 0.000007 -1.021295   # pos: pos   rot: anim
    31 0.806046 -0.348922 1.321258 -1.241196 -0.251322 -0.849459   # pos: pos   rot: anim
    32 1.789784 0.000000 -0.000001 0.000000 -0.036081 0.257592   # pos: pos   rot: anim
    33 1.206998 0.000000 0.000002 0.000000 0.000001 0.303713   # pos: pos   rot: anim
    34 2.033355 1.000772 -1.937611 -2.982874 1.245421 1.613146   # pos: pos   rot: anim
    35 6.028142 -0.000003 -0.000001 1.398958 -0.269799 -1.023129   # pos: pos   rot: anim
    36 11.692547 -0.000001 -0.000001 0.000000 0.000000 -2.231606   # pos: pos   rot: anim
    37 11.481693 0.000000 0.000000 -1.006758 -0.182864 -0.295145   # pos: pos   rot: anim
    38 3.859672 -0.132567 1.193109 0.498203 0.156937 -0.982261   # pos: pos   rot: anim
    39 1.312560 0.000000 0.000001 0.000000 -0.456987 -1.112956   # pos: pos   rot: anim
    40 0.729364 0.000001 0.000000 0.000000 -0.000010 -0.672062   # pos: pos   rot: anim
    41 3.942294 0.050330 0.431042 0.160536 0.000249 -0.910199   # pos: pos   rot: anim
    42 1.539097 -0.000001 0.000002 0.000000 -0.214757 -1.281163   # pos: pos   rot: anim
    43 1.196320 0.000001 0.000000 0.000000 -0.000003 -0.797323   # pos: pos   rot: anim
    44 3.883656 -0.050326 -0.431041 -0.084946 -0.177602 -0.644875   # pos: pos   rot: anim
    45 1.719577 0.000001 -0.000001 0.000000 -0.031656 -1.425526   # pos: pos   rot: anim
    46 1.209184 -0.000001 0.000001 -0.003428 0.022229 -0.934697   # pos: pos   rot: anim
    47 3.859829 -0.148934 -1.331284 -0.321533 -0.122638 -0.062432   # pos: pos   rot: anim
    48 1.719425 0.000000 0.000001 0.000000 0.126416 -0.583374   # pos: pos   rot: anim
    49 1.099666 0.000000 -0.000002 -0.051342 0.069075 -1.042844   # pos: pos   rot: anim
    50 0.806017 -0.359833 -1.318334 1.282844 0.248629 -0.715183   # pos: pos   rot: anim
    51 1.789780 0.000000 -0.000001 0.000000 -0.010076 0.141894   # pos: pos   rot: anim
    52 1.206998 0.000001 0.000001 0.000300 0.002007 1.187250   # pos: pos   rot: anim
    53 3.202717 -1.851488 0.187592 0.000000 0.000000 0.000000   # pos: pos   rot: rot
  time 6
    0 -12.119906 -2.898521 33.496450 1.800512 0.015024 -1.523285   # pos: anim   rot: anim
    1 3.890452 -0.000003 -0.000003 -0.555915 -1.065630 -2.270008   # pos: pos   rot: anim
    2 17.848169 0.000000 -0.000001 0.000000 0.000000 1.265743   # pos: pos   rot: anim
    3 16.525251 0.000001 0.000000 0.275025 0.144660 -1.004059   # pos: pos   rot: anim
    4 6.879454 0.000000 -0.000001 -0.007299 -0.002292 -0.584373   # pos: pos   rot: anim
    5 -3.890452 0.000005 0.000006 -0.912560 -0.440580 -1.912961   # pos: pos   rot: anim
    6 17.848171 -0.000002 -0.000001 0.000000 0.000000 1.034178   # pos: pos   rot: anim
    7 16.525251 0.000000 0.000000 0.036244 -0.107336 -1.579759   # pos: pos   rot: anim
    8 6.879454 -0.000001 -0.000001 -0.081333 -0.002951 -0.584373   # pos: pos   rot: rot
    9 -0.066403 3.345128 -2.981901 1.572973 0.096970 1.614995   # pos: anim   rot: anim
    10 4.018333 0.000000 0.000000 -0.059995 0.068300 0.136783   # pos: pos   rot: anim
    11 3.518568 0.000000 -0.000001 -0.040132 -0.044115 0.222835   # pos: pos   rot: anim
    12 8.942639 0.000000 0.000000 0.064944 0.081951 0.222404   # pos: pos   rot: anim
    13 3.307274 0.000000 0.000000 3.141591 0.000000 0.400478   # pos: pos   rot: rot
    14 3.593712 0.000000 0.000000 -0.778137 -0.155987 0.682778   # pos: pos   rot: anim
    15 2.033351 1.000767 1.937660 2.082070 -1.555974 2.456533   # pos: pos   rot: anim
    16 6.028142 -0.000001 -0.000001 -1.272509 -1.121735 -0.836617   # pos: pos   rot: anim
    17 11.692554 0.000001 0.000000 0.000000 0.000000 -1.695790   # pos: pos   rot: anim
    18 11.481672 -0.000001 -0.000035 1.106556 -0.449532 0.964868   # pos: pos   rot: anim
    19 3.859702 -0.142406 -1.191975 -0.463410 -0.186147 -1.428480   # pos: pos   rot: anim
    20 1.312561 0.000000 0.000001 0.000000 0.066184 -0.827641   # pos: pos   rot: anim
    21 0.729363 0.000000 0.000003 0.000000 0.000009 -0.594039   # pos: pos   rot: anim
    22 3.942324 0.046771 -0.431442 -0.161989 -0.106345 -1.434486   # pos: pos   rot: anim
    23 1.539094 -0.000001 0.000003 0.000000 0.006390 -0.777649   # pos: pos   rot: anim
    24 1.196320 0.000000 -0.000001 0.000000 0.000002 -1.170567   # pos: pos   rot: anim
    25 3.883686 -0.046771 0.431443 0.049936 -0.030483 -1.249513   # pos: pos   rot: anim
    26 1.719576 0.000000 -0.000001 0.000000 0.033584 -1.110956   # pos: pos   rot: anim
    27 1.209183 0.000002 -0.000001 0.000000 0.000004 -1.111215   # pos: pos   rot: anim
    28 3.859859 -0.137949 1.332465 0.283488 0.115914 -1.212794   # pos: pos   rot: anim
    29 1.719428 0.000000 0.000001 0.000000 -0.152217 -1.133732   # pos: pos   rot: anim
    30 1.099664 0.000001 -0.000001 0.000000 0.000007 -1.021295   # pos: pos   rot: anim
    31 0.806046 -0.348922 1.321258 -1.241196 -0.251322 -0.849459   # pos: pos   rot: anim
    32 1.789784 0.000000 -0.000001 0.000000 -0.036081 0.257592   # pos: pos   rot: anim
    33 1.206998 0.000000 0.000002 0.000000 0.000001 0.303713   # pos: pos   rot: anim
    34 2.033355 1.000772 -1.937611 -2.899333 1.232712 1.693021   # pos: pos   rot: anim
    35 6.028142 -0.000003 -0.000001 1.628567 -0.349374 -1.129380   # pos: pos   rot: anim
    36 11.692547 -0.000001 -0.000001 0.000000 0.000000 -2.269126   # pos: pos   rot: anim
    37 11.481693 0.000000 0.000000 -0.946157 -0.233698 -0.255766   # pos: pos   rot: anim
    38 3.859672 -0.132567 1.193109 0.498203 0.156937 -0.982261   # pos: pos   rot: anim
    39 1.312560 0.000000 0.000001 0.000000 -0.456987 -1.112956   # pos: pos   rot: anim
    40 0.729364 0.000001 0.000000 0.000000 -0.000010 -0.672062   # pos: pos   rot: anim
    41 3.942294 0.050330 0.431042 0.160536 0.000249 -0.910199   # pos: pos   rot: anim
    42 1.539097 -0.000001 0.000002 0.000000 -0.214757 -1.281163   # pos: pos   rot: anim
    43 1.196320 0.000001 0.000000 0.000000 -0.000003 -0.797323   # pos: pos   rot: anim
    44 3.883656 -0.050326 -0.431041 -0.084946 -0.177602 -0.644875   # pos: pos   rot: anim
    45 1.719577 0.000001 -0.000001 0.000000 -0.031656 -1.425526   # pos: pos   rot: anim
    46 1.209184 -0.000001 0.000001 -0.003428 0.022229 -0.934697   # pos: pos   rot: anim
    47 3.859829 -0.148934 -1.331284 -0.321533 -0.122638 -0.062432   # pos: pos   rot: anim
    48 1.719425 0.000000 0.000001 0.000000 0.126416 -0.583374   # pos: pos   rot: anim
    49 1.099666 0.000000 -0.000002 -0.051342 0.069075 -1.042844   # pos: pos   rot: anim
    50 0.806017 -0.359833 -1.318334 1.282844 0.248629 -0.715183   # pos: pos   rot: anim
    51 1.789780 0.000000 -0.000001 0.000000 -0.010076 0.141894   # pos: pos   rot: anim
    52 1.206998 0.000001 0.000001 0.000300 0.002007 1.187250   # pos: pos   rot: anim
    53 3.202717 -1.851488 0.187592 0.000000 0.000000 0.000000   # pos: pos   rot: rot
  time 7
    0 -15.108279 -4.816548 32.808929 1.817589 0.060583 -1.851970   # pos: anim   rot: anim
    1 3.890452 -0.000003 -0.000003 -0.605470 -1.166302 -2.153652   # pos: pos   rot: anim
    2 17.848169 0.000000 -0.000001 0.000000 0.000000 1.140514   # pos: pos   rot: anim
    3 16.525251 0.000001 0.000000 0.516253 0.081752 -0.802313   # pos: pos   rot: anim
    4 6.879454 0.000000 -0.000001 -0.007299 -0.002112 -0.584373   # pos: pos   rot: anim
    5 -3.890452 0.000005 0.000006 -1.021942 -0.501085 -1.897656   # pos: pos   rot: anim
    6 17.848171 -0.000002 -0.000001 0.000000 0.000000 1.076436   # pos: pos   rot: anim
    7 16.525251 0.000000 0.000000 0.068939 0.046187 -1.568974   # pos: pos   rot: anim
    8 6.879454 -0.000001 -0.000001 -0.081333 -0.002951 -0.584373   # pos: pos   rot: rot
    9 -0.085935 3.345128 -2.981901 1.572389 0.083586 1.617182   # pos: anim   rot: anim
    10 4.018333 0.000000 0.000000 -0.086637 0.059707 0.141315   # pos: pos   rot: anim
    11 3.518568 0.000000 -0.000001 -0.079296 -0.065939 0.249697   # pos: pos   rot: anim
    12 8.942639 0.000000 0.000000 0.073082 0.067809 0.229678   # pos: pos   rot: anim
    13 3.307274 0.000000 0.000000 3.141591 0.000000 0.400478   # pos: pos   rot: rot
    14 3.593712 0.000000 0.000000 -0.767244 -0.170578 0.722257   # pos: pos   rot: anim
    15 2.033351 1.000767 1.937660 3.472580 -1.563119 1.066039   # pos: pos   rot: anim
    16 6.028142 -0.000001 -0.000001 -1.191360 -1.311842 -0.858575   # pos: pos   rot: anim
    17 11.692554 0.000001 0.000000 0.000000 0.000000 -1.417532   # pos: pos   rot: anim
    18 11.481672 -0.000001 -0.000035 1.026694 -0.341989 0.822691   # pos: pos   rot: anim
    19 3.859702 -0.142406 -1.191975 -0.463425 -0.186147 -1.428480   # pos: pos   rot: anim
    20 1.312561 0.000000 0.000001 0.000000 0.066184 -0.827641   # pos: pos   rot: anim
    21 0.729363 0.000000 0.000003 0.000000 0.000009 -0.594039   # pos: pos   rot: anim
    22 3.942324 0.046771 -0.431442 -0.161989 -0.106345 -1.434486   # pos: pos   rot: anim
    23 1.539094 -0.000001 0.000003 0.000000 0.006390 -0.777649   # pos: pos   rot: anim
    24 1.196320 0.000000 -0.000001 0.000000 0.000002 -1.170567   # pos: pos   rot: anim
    25 3.883686 -0.046771 0.431443 0.049936 -0.030483 -1.249513   # pos: pos   rot: anim
    26 1.719576 0.000000 -0.000001 0.000000 0.033584 -1.110956   # pos: pos   rot: anim
    27 1.209183 0.000002 -0.000001 0.000000 0.000004 -1.111215   # pos: pos   rot: anim
    28 3.859859 -0.137949 1.332465 0.283488 0.115914 -1.212794   # pos: pos   rot: anim
    29 1.719428 0.000000 0.000001 0.000000 -0.152217 -1.133732   # pos: pos   rot: anim
    30 1.099664 0.000001 -0.000001 0.000000 0.000007 -1.021295   # pos: pos   rot: anim
    31 0.806046 -0.348922 1.321258 -1.241196 -0.251322 -0.849459   # pos: pos   rot: anim
    32 1.789784 0.000000 -0.000001 0.000000 -0.036081 0.257592   # pos: pos   rot: anim
    33 1.206998 0.000000 0.000002 0.000000 0.000001 0.303713   # pos: pos   rot: anim
    34 2.033355 1.000772 -1.937611 -2.817798 1.217032 1.770501   # pos: pos   rot: anim
    35 6.028142 -0.000003 -0.000001 1.788352 -0.320589 -1.195182   # pos: pos   rot: anim
    36 11.692547 -0.000001 -0.000001 0.000000 0.000000 -2.285443   # pos: pos   rot: anim
    37 11.481693 0.000000 0.000000 -0.914161 -0.270811 -0.154693   # pos: pos   rot: anim
    38 3.859672 -0.132567 1.193109 0.498203 0.156937 -0.982261   # pos: pos   rot: anim
    39 1.312560 0.000000 0.000001 0.000000 -0.456987 -1.112956   # pos: pos   rot: anim
    40 0.729364 0.000001 0.000000 0.000000 -0.000010 -0.672062   # pos: pos   rot: anim
    41 3.942294 0.050330 0.431042 0.160536 0.000249 -0.910199   # pos: pos   rot: anim
    42 1.539097 -0.000001 0.000002 0.000000 -0.214757 -1.281163   # pos: pos   rot: anim
    43 1.196320 0.000001 0.000000 0.000000 -0.000003 -0.797323   # pos: pos   rot: anim
    44 3.883656 -0.050326 -0.431041 -0.084946 -0.177602 -0.644875   # pos: pos   rot: anim
    45 1.719577 0.000001 -0.000001 0.000000 -0.031656 -1.425526   # pos: pos   rot: anim
    46 1.209184 -0.000001 0.000001 -0.003428 0.022229 -0.934697   # pos: pos   rot: anim
    47 3.859829 -0.148934 -1.331284 -0.321533 -0.122638 -0.062432   # pos: pos   rot: anim
    48 1.719425 0.000000 0.000001 0.000000 0.126416 -0.583374   # pos: pos   rot: anim
    49 1.099666 0.000000 -0.000002 -0.051342 0.069075 -1.042844   # pos: pos   rot: anim
    50 0.806017 -0.359833 -1.318334 1.282844 0.248629 -0.715183   # pos: pos   rot: anim
    51 1.789780 0.000000 -0.000001 0.000000 -0.010076 0.141894   # pos: pos   rot: anim
    52 1.206998 0.000001 0.000001 0.000300 0.002007 1.187250   # pos: pos   rot: anim
    53 3.202717 -1.851488 0.187592 0.000000 0.000000 0.000000   # pos: pos   rot: rot
  time 8
    0 -18.151340 -6.773639 32.109689 1.821417 0.104835 -2.187592   # pos: anim   rot: anim
    1 3.890452 -0.000003 -0.000003 -0.859862 -1.249746 -1.767359   # pos: pos   rot: anim
    2 17.848169 0.000000 -0.000001 0.000000 0.000000 1.127719   # pos: pos   rot: anim
    3 16.525251 0.000001 0.000000 0.566359 0.164952 -0.731707   # pos: pos   rot: anim
    4 6.879454 0.000000 -0.000001 -0.007299 -0.001920 -0.584373   # pos: pos   rot: anim
    5 -3.890452 0.000005 0.000006 -0.999728 -0.561727 -1.916457   # pos: pos   rot: anim
    6 17.848171 -0.000002 -0.000001 0.000000 0.000000 1.133080   # pos: pos   rot: anim
    7 16.525251 0.000000 0.000000 0.032206 0.133661 -1.613012   # pos: pos   rot: anim
    8 6.879454 -0.000001 -0.000001 -0.081333 -0.002951 -0.584373   # pos: pos   rot: rot
    9 -0.105467 3.345128 -2.981901 1.571858 0.069947 1.619419   # pos: anim   rot: anim
    10 4.018333 0.000000 0.000000 -0.113782 0.050958 0.145948   # pos: pos   rot: anim
    11 3.518568 0.000000 -0.000001 -0.119163 -0.088171 0.276983   # pos: pos   rot: anim
    12 8.942639 0.000000 0.000000 0.081375 0.053403 0.237097   # pos: pos   rot: anim
    13 3.307274 0.000000 0.000000 3.141591 0.000000 0.400478   # pos: pos   rot: rot
    14 3.593712 0.000000 0.000000 -0.618327 -0.172515 0.731008   # pos: pos   rot: anim
    15 2.033351 1.000767 1.937660 4.332933 -1.551223 0.205567   # pos: pos   rot: anim
    16 6.028142 -0.000001 -0.000001 -1.669460 -1.415745 -0.257109   # pos: pos   rot: anim
    17 11.692554 0.000001 0.000000 0.000000 0.000000 -1.251004   # pos: pos   rot: anim
    18 11.481672 -0.000001 -0.000035 0.857657 -0.250685 0.744071   # pos: pos   rot: anim
    19 3.859702 -0.142406 -1.191975 -0.463410 -0.186147 -1.428480   # pos: pos   rot: anim
    20 1.312561 0.000000 0.000001 0.000000 0.066184 -0.827641   # pos: pos   rot: anim
    21 0.729363 0.000000 0.000003 0.000000 0.000009 -0.594039   # pos: pos   rot: anim
    22 3.942324 0.046771 -0.431442 -0.161989 -0.106345 -1.434486   # pos: pos   rot: anim
    23 1.539094 -0.000001 0.000003 0.000000 0.006390 -0.777649   # pos: pos   rot: anim
    24 1.196320 0.000000 -0.000001 0.000000 0.000002 -1.170567   # pos: pos   rot: anim
    25 3.883686 -0.046771 0.431443 0.049936 -0.030483 -1.249513   # pos: pos   rot: anim
    26 1.719576 0.000000 -0.000001 0.000000 0.033584 -1.110956   # pos: pos   rot: anim
    27 1.209183 0.000002 -0.000001 0.000000 0.000004 -1.111215   # pos: pos   rot: anim
    28 3.859859 -0.137949 1.332465 0.283488 0.115914 -1.212794   # pos: pos   rot: anim
    29 1.719428 0.000000 0.000001 0.000000 -0.152217 -1.133732   # pos: pos   rot: anim
    30 1.099664 0.000001 -0.000001 0.000000 0.000007 -1.021295   # pos: pos   rot: anim
    31 0.806046 -0.348922 1.321258 -1.241196 -0.251322 -0.849459   # pos: pos   rot: anim
    32 1.789784 0.000000 -0.000001 0.000000 -0.036081 0.257592   # pos: pos   rot: anim
    33 1.206998 0.000000 0.000002 0.000000 0.000001 0.303713   # pos: pos   rot: anim
    34 2.033355 1.000772 -1.937611 -2.741991 1.199083 1.841852   # pos: pos   rot: anim
    35 6.028142 -0.000003 -0.000001 1.696083 -0.258294 -1.017630   # pos: pos   rot: anim
    36 11.692547 -0.000001 -0.000001 0.000000 0.000000 -2.294391   # pos: pos   rot: anim
    37 11.481693 0.000000 0.000000 -0.862407 -0.085705 -0.033145   # pos: pos   rot: anim
    38 3.859672 -0.132567 1.193109 0.498203 0.156937 -0.982261   # pos: pos   rot: anim
    39 1.312560 0.000000 0.000001 0.000000 -0.456987 -1.112956   # pos: pos   rot: anim
    40 0.729364 0.000001 0.000000 0.000000 -0.000010 -0.672062   # pos: pos   rot: anim
    41 3.942294 0.050330 0.431042 0.160536 0.000249 -0.910199   # pos: pos   rot: anim
    42 1.539097 -0.000001 0.000002 0.000000 -0.214757 -1.281163   # pos: pos   rot: anim
    43 1.196320 0.000001 0.000000 0.000000 -0.000003 -0.797323   # pos: pos   rot: anim
    44 3.883656 -0.050326 -0.431041 -0.084946 -0.177602 -0.644875   # pos: pos   rot: anim
    45 1.719577 0.000001 -0.000001 0.000000 -0.031656 -1.425526   # pos: pos   rot: anim
    46 1.209184 -0.000001 0.000001 -0.003428 0.022229 -0.934697   # pos: pos   rot: anim
    47 3.859829 -0.148934 -1.331284 -0.321533 -0.122638 -0.062432   # pos: pos   rot: anim
    48 1.719425 0.000000 0.000001 0.000000 0.126416 -0.583374   # pos: pos   rot: anim
    49 1.099666 0.000000 -0.000002 -0.051342 0.069075 -1.042844   # pos: pos   rot: anim
    50 0.806017 -0.359833 -1.318334 1.282844 0.248629 -0.715183   # pos: pos   rot: anim
    51 1.789780 0.000000 -0.000001 0.000000 -0.010076 0.141894   # pos: pos   rot: anim
    52 1.206998 0.000001 0.000001 0.000300 0.002007 1.187250   # pos: pos   rot: anim
    53 3.202717 -1.851488 0.187592 0.000000 0.000000 0.000000   # pos: pos   rot: rot
  time 9
    0 -21.139713 -8.691666 31.422168 1.812878 0.141787 -2.519128   # pos: anim   rot: anim
    1 3.890452 -0.000003 -0.000003 -1.369698 -1.195226 -1.210589   # pos: pos   rot: anim
    2 17.848169 0.000000 -0.000001 0.000000 0.000000 1.126356   # pos: pos   rot: anim
    3 16.525251 0.000001 0.000000 0.401933 0.440544 -0.909665   # pos: pos   rot: anim
    4 6.879454 0.000000 -0.000001 -0.007299 -0.001741 -0.584373   # pos: pos   rot: anim
    5 -3.890452 0.000005 0.000006 -0.909096 -0.577992 -1.945046   # pos: pos   rot: anim
    6 17.848171 -0.000002 -0.000001 0.000000 0.000000 1.182896   # pos: pos   rot: anim
    7 16.525251 0.000000 0.000000 0.022413 0.145707 -1.703786   # pos: pos   rot: anim
    8 6.879454 -0.000001 -0.000001 -0.081333 -0.002951 -0.584373   # pos: pos   rot: rot
    9 -0.124999 3.345128 -2.981901 1.571433 0.056545 1.621657   # pos: anim   rot: anim
    10 4.018333 0.000000 0.000000 -0.140423 0.042366 0.150513   # pos: pos   rot: anim
    11 3.518568 0.000000 -0.000001 -0.158301 -0.110007 0.303729   # pos: pos   rot: anim
    12 8.942639 0.000000 0.000000 0.089525 0.039262 0.244407   # pos: pos   rot: anim
    13 3.307274 0.000000 0.000000 3.141591 0.000000 0.400478   # pos: pos   rot: rot
    14 3.593712 0.000000 0.000000 -0.351424 -0.159719 0.709290   # pos: pos   rot: anim
    15 2.033351 1.000767 1.937660 4.499756 -1.536421 0.038665   # pos: pos   rot: anim
    16 6.028142 -0.000001 -0.000001 -2.131120 -1.312966 0.239239   # pos: pos   rot: anim
    17 11.692554 0.000001 0.000000 0.000000 0.000000 -1.249331   # pos: pos   rot: anim
    18 11.481672 -0.000001 -0.000035 0.771560 -0.188850 0.696531   # pos: pos   rot: anim
    19 3.859702 -0.142406 -1.191975 -0.463425 -0.186147 -1.428480   # pos: pos   rot: anim
    20 1.312561 0.000000 0.000001 0.000000 0.066184 -0.827641   # pos: pos   rot: anim
    21 0.729363 0.000000 0.000003 0.000000 0.000009 -0.594039   # pos: pos   rot: anim
    22 3.942324 0.046771 -0.431442 -0.161989 -0.106345 -1.434486   # pos: pos   rot: anim
    23 1.539094 -0.000001 0.000003 0.000000 0.006390 -0.777649   # pos: pos   rot: anim
    24 1.196320 0.000000 -0.000001 0.000000 0.000002 -1.170567   # pos: pos   rot: anim
    25 3.883686 -0.046771 0.431443 0.049936 -0.030483 -1.249513   # pos: pos   rot: anim
    26 1.719576 0.000000 -0.000001 0.000000 0.033584 -1.110956   # pos: pos   rot: anim
    27 1.209183 0.000002 -0.000001 0.000000 0.000004 -1.111215   # pos: pos   rot: anim
    28 3.859859 -0.137949 1.332465 0.283488 0.115914 -1.212794   # pos: pos   rot: anim
    29 1.719428 0.000000 0.000001 0.000000 -0.152217 -1.133732   # pos: pos   rot: anim
    30 1.099664 0.000001 -0.000001 0.000000 0.000007 -1.021295   # pos: pos   rot: anim
    31 0.806046 -0.348922 1.321258 -1.241196 -0.251322 -0.849459   # pos: pos   rot: anim
    32 1.789784 0.000000 -0.000001 0.000000 -0.036081 0.257592   # pos: pos   rot: anim
    33 1.206998 0.000000 0.000002 0.000000 0.000001 0.303713   # pos: pos   rot: anim
    34 2.033355 1.000772 -1.937611 -2.674395 1.179690 1.904870   # pos: pos   rot: anim
    35 6.028142 -0.000003 -0.000001 1.492203 -0.066493 -0.728701   # pos: pos   rot: anim
    36 11.692547 -0.000001 -0.000001 0.000000 0.000000 -2.292511   # pos: pos   rot: anim
    37 11.481693 0.000000 0.000000 -0.773801 0.202976 0.147796   # pos: pos   rot: anim
    38 3.859672 -0.132567 1.193109 0.498203 0.156937 -0.982261   # pos: pos   rot: anim
    39 1.312560 0.000000 0.000001 0.000000 -0.456987 -1.112956   # pos: pos   rot: anim
    40 0.729364 0.000001 0.000000 0.000000 -0.000010 -0.672062   # pos: pos   rot: anim
    41 3.942294 0.050330 0.431042 0.160536 0.000249 -0.910199   # pos: pos   rot: anim
    42 1.539097 -0.000001 0.000002 0.000000 -0.214757 -1.281163   # pos: pos   rot: anim
    43 1.196320 0.000001 0.000000 0.000000 -0.000003 -0.797323   # pos: pos   rot: anim
    44 3.883656 -0.050326 -0.431041 -0.084946 -0.177602 -0.644875   # pos: pos   rot: anim
    45 1.719577 0.000001 -0.000001 0.000000 -0.031656 -1.425526   # pos: pos   rot: anim
    46 1.209184 -0.000001 0.000001 -0.003428 0.022229 -0.934697   # pos: pos   rot: anim
    47 3.859829 -0.148934 -1.331284 -0.321533 -0.122638 -0.062432   # pos: pos   rot: anim
    48 1.719425 0.000000 0.000001 0.000000 0.126416 -0.583374   # pos: pos   rot: anim
    49 1.099666 0.000000 -0.000002 -0.051342 0.069075 -1.042844   # pos: pos   rot: anim
    50 0.806017 -0.359833 -1.318334 1.282844 0.248629 -0.715183   # pos: pos   rot: anim
    51 1.789780 0.000000 -0.000001 0.000000 -0.010076 0.141894   # pos: pos   rot: anim
    52 1.206998 0.000001 0.000001 0.000300 0.002007 1.187250   # pos: pos   rot: anim
    53 3.202717 -1.851488 0.187592 0.000000 0.000000 0.000000   # pos: pos   rot: rot
  time 10
    0 -23.964018 -10.508128 30.773711 1.795742 0.167273 -2.834795   # pos: anim   rot: anim
    1 3.890452 -0.000003 -0.000003 -1.697321 -1.065728 -0.922707   # pos: pos   rot: anim
    2 17.848169 0.000000 -0.000001 0.000000 0.000000 1.150054   # pos: pos   rot: anim
    3 16.525251 0.000001 0.000000 0.059512 0.599150 -1.289559   # pos: pos   rot: anim
    4 6.879454 0.000000 -0.000001 -0.007299 -0.001561 -0.584373   # pos: pos   rot: anim
    5 -3.890452 0.000005 0.000006 -0.925905 -0.579450 -1.929353   # pos: pos   rot: anim
    6 17.848171 -0.000002 -0.000001 0.000000 0.000000 1.214265   # pos: pos   rot: anim
    7 16.525251 0.000000 0.000000 0.129296 0.201406 -1.755583   # pos: pos   rot: anim
    8 6.879454 -0.000001 -0.000001 -0.081333 -0.002951 -0.584373   # pos: pos   rot: rot
    9 -0.144531 3.345128 -2.981901 1.571168 0.043871 1.623745   # pos: anim   rot: anim
    10 4.018333 0.000000 0.000000 -0.165627 0.034240 0.154846   # pos: pos   rot: anim
    11 3.518568 0.000000 -0.000001 -0.195277 -0.130680 0.328945   # pos: pos   rot: anim
    12 8.942639 0.000000 0.000000 0.097255 0.025887 0.251334   # pos: pos   rot: anim
    13 3.307274 0.000000 0.000000 3.141591 0.000000 0.400478   # pos: pos   rot: rot
    14 3.593712 0.000000 0.000000 -0.034342 -0.138659 0.675313   # pos: pos   rot: anim
    15 2.033351 1.000767 1.937660 4.562866 -1.522090 -0.024474   # pos: pos   rot: anim
    16 6.028142 -0.000001 -0.000001 -2.224503 -1.116161 0.243725   # pos: pos   rot: anim
    17 11.692554 0.000001 0.000000 0.000000 0.000000 -1.330582   # pos: pos   rot: anim
    18 11.481672 -0.000001 -0.000035 0.776058 -0.130061 0.640817   # pos: pos   rot: anim
    19 3.859702 -0.142406 -1.191975 -0.463410 -0.186147 -1.428480   # pos: pos   rot: anim
    20 1.312561 0.000000 0.000001 0.000000 0.066184 -0.827641   # pos: pos   rot: anim
    21 0.729363 0.000000 0.000003 0.000000 0.000009 -0.594039   # pos: pos   rot: anim
    22 3.942324 0.046771 -0.431442 -0.161989 -0.106345 -1.434486   # pos: pos   rot: anim
    23 1.539094 -0.000001 0.000003 0.000000 0.006390 -0.777649   # pos: pos   rot: anim
    24 1.196320 0.000000 -0.000001 0.000000 0.000002 -1.170567   # pos: pos   rot: anim
    25 3.883686 -0.046771 0.431443 0.049936 -0.030483 -1.249513   # pos: pos   rot: anim
    26 1.719576 0.000000 -0.000001 0.000000 0.033584 -1.110956   # pos: pos   rot: anim
    27 1.209183 0.000002 -0.000001 0.000000 0.000004 -1.111215   # pos: pos   rot: anim
    28 3.859859 -0.137949 1.332465 0.283488 0.115914 -1.212794   # pos: pos   rot: anim
    29 1.719428 0.000000 0.000001 0.000000 -0.152217 -1.133732   # pos: pos   rot: anim
    30 1.099664 0.000001 -0.000001 0.000000 0.000007 -1.021295   # pos: pos   rot: anim
    31 0.806046 -0.348922 1.321258 -1.241196 -0.251322 -0.849459   # pos: pos   rot: anim
    32 1.789784 0.000000 -0.000001 0.000000 -0.036081 0.257592   # pos: pos   rot: anim
    33 1.206998 0.000000 0.000002 0.000000 0.000001 0.303713   # pos: pos   rot: anim
    34 2.033355 1.000772 -1.937611 -2.616251 1.160049 1.958408   # pos: pos   rot: anim
    35 6.028142 -0.000003 -0.000001 1.401354 0.280305 -0.542854   # pos: pos   rot: anim
    36 11.692547 -0.000001 -0.000001 0.000000 0.000000 -2.243787   # pos: pos   rot: anim
    37 11.481693 0.000000 0.000000 -0.680272 0.364293 0.395455   # pos: pos   rot: anim
    38 3.859672 -0.132567 1.193109 0.498203 0.156937 -0.982261   # pos: pos   rot: anim
    39 1.312560 0.000000 0.000001 0.000000 -0.456987 -1.112956   # pos: pos   rot: anim
    40 0.729364 0.000001 0.000000 0.000000 -0.000010 -0.672062   # pos: pos   rot: anim
    41 3.942294 0.050330 0.431042 0.160536 0.000249 -0.910199   # pos: pos   rot: anim
    42 1.539097 -0.000001 0.000002 0.000000 -0.214757 -1.281163   # pos: pos   rot: anim
    43 1.196320 0.000001 0.000000 0.000000 -0.000003 -0.797323   # pos: pos   rot: anim
    44 3.883656 -0.050326 -0.431041 -0.084946 -0.177602 -0.644875   # pos: pos   rot: anim
    45 1.719577 0.000001 -0.000001 0.000000 -0.031656 -1.425526   # pos: pos   rot: anim
    46 1.209184 -0.000001 0.000001 -0.003428 0.022229 -0.934697   # pos: pos   rot: anim
    47 3.859829 -0.148934 -1.331284 -0.321533 -0.122638 -0.062432   # pos: pos   rot: anim
    48 1.719425 0.000000 0.000001 0.000000 0.126416 -0.583374   # pos: pos   rot: anim
    49 1.099666 0.000000 -0.000002 -0.051342 0.069075 -1.042844   # pos: pos   rot: anim
    50 0.806017 -0.359833 -1.318334 1.282844 0.248629 -0.715183   # pos: pos   rot: anim
    51 1.789780 0.000000 -0.000001 0.000000 -0.010076 0.141894   # pos: pos   rot: anim
    52 1.206998 0.000001 0.000001 0.000300 0.002007 1.187250   # pos: pos   rot: anim
    53 3.202717 -1.851488 0.187592 0.000000 0.000000 0.000000   # pos: pos   rot: rot
  time 11
    0 -26.518783 -12.152710 30.183849 1.775427 0.180229 -3.121480   # pos: anim   rot: anim
    1 3.890452 -0.000003 -0.000003 -1.926886 -0.972985 -0.778193   # pos: pos   rot: anim
    2 17.848169 0.000000 -0.000001 0.000000 0.000000 1.235609   # pos: pos   rot: anim
    3 16.525251 0.000001 0.000000 -0.096473 0.569327 -1.510600   # pos: pos   rot: anim
    4 6.879454 0.000000 -0.000001 -0.007299 -0.001405 -0.584373   # pos: pos   rot: anim
    5 -3.890452 0.000005 0.000006 -1.061387 -0.579951 -1.880176   # pos: pos   rot: anim
    6 17.848171 -0.000002 -0.000001 0.000000 0.000000 1.221823   # pos: pos   rot: anim
    7 16.525251 0.000000 0.000000 0.331526 0.290614 -1.711260   # pos: pos   rot: anim
    8 6.879454 -0.000001 -0.000001 -0.081333 -0.002951 -0.584373   # pos: pos   rot: rot
    9 -0.160156 3.341221 -2.981901 1.570955 0.032398 1.625684   # pos: anim   rot: anim
    10 4.018333 0.000000 0.000000 -0.188422 0.026905 0.158781   # pos: pos   rot: anim
    11 3.518568 0.000000 -0.000001 -0.228712 -0.149388 0.351700   # pos: pos   rot: anim
    12 8.942639 0.000000 0.000000 0.104230 0.013794 0.257614   # pos: pos   rot: anim
    13 3.307274 0.000000 0.000000 3.141591 0.000000 0.400478   # pos: pos   rot: rot
    14 3.593712 0.000000 0.000000 0.297483 -0.116746 0.649412   # pos: pos   rot: anim
    15 2.033351 1.000767 1.937660 4.594660 -1.509016 -0.056283   # pos: pos   rot: anim
    16 6.028142 -0.000001 -0.000001 -2.343407 -0.903171 0.194856   # pos: pos   rot: anim
    17 11.692554 0.000001 0.000000 0.000000 0.000000 -1.391614   # pos: pos   rot: anim
    18 11.481672 -0.000001 -0.000035 0.807546 -0.048382 0.560025   # pos: pos   rot: anim
    19 3.859702 -0.142406 -1.191975 -0.463410 -0.186147 -1.428480   # pos: pos   rot: anim
    20 1.312561 0.000000 0.000001 0.000000 0.066184 -0.827641   # pos: pos   rot: anim
    21 0.729363 0.000000 0.000003 0.000000 0.000009 -0.594039   # pos: pos   rot: anim
    22 3.942324 0.046771 -0.431442 -0.161989 -0.106345 -1.434486   # pos: pos   rot: anim
    23 1.539094 -0.000001 0.000003 0.000000 0.006390 -0.777649   # pos: pos   rot: anim
    24 1.196320 0.000000 -0.000001 0.000000 0.000002 -1.170567   # pos: pos   rot: anim
    25 3.883686 -0.046771 0.431443 0.049936 -0.030483 -1.249513   # pos: pos   rot: anim
    26 1.719576 0.000000 -0.000001 0.000000 0.033584 -1.110956   # pos: pos   rot: anim
    27 1.209183 0.000002 -0.000001 0.000000 0.000004 -1.111215   # pos: pos   rot: anim
    28 3.859859 -0.137949 1.332465 0.283488 0.115914 -1.212794   # pos: pos   rot: anim
    29 1.719428 0.000000 0.000001 0.000000 -0.152217 -1.133732   # pos: pos   rot: anim
    30 1.099664 0.000001 -0.000001 0.000000 0.000007 -1.021295   # pos: pos   rot: anim
    31 0.806046 -0.348922 1.321258 -1.241196 -0.251322 -0.849459   # pos: pos   rot: anim
    32 1.789784 0.000000 -0.000001 0.000000 -0.036081 0.257592   # pos: pos   rot: anim
    33 1.206998 0.000000 0.000002 0.000000 0.000001 0.303713   # pos: pos   rot: anim
    34 2.033355 1.000772 -1.937611 -2.568036 1.141316 2.002176   # pos: pos   rot: anim
    35 6.028142 -0.000003 -0.000001 1.408629 0.667678 -0.456641   # pos: pos   rot: anim
    36 11.692547 -0.000001 -0.000001 0.000000 0.000000 -2.114231   # pos: pos   rot: anim
    37 11.481693 0.000000 0.000000 -0.638031 0.369887 0.580691   # pos: pos   rot: anim
    38 3.859672 -0.132567 1.193109 0.498203 0.156937 -0.982261   # pos: pos   rot: anim
    39 1.312560 0.000000 0.000001 0.000000 -0.456987 -1.112956   # pos: pos   rot: anim
    40 0.729364 0.000001 0.000000 0.000000 -0.000010 -0.672062   # pos: pos   rot: anim
    41 3.942294 0.050330 0.431042 0.160536 0.000249 -0.910199   # pos: pos   rot: anim
    42 1.539097 -0.000001 0.000002 0.000000 -0.214757 -1.281163   # pos: pos   rot: anim
    43 1.196320 0.000001 0.000000 0.000000 -0.000003 -0.797323   # pos: pos   rot: anim
    44 3.883656 -0.050326 -0.431041 -0.084946 -0.177602 -0.644875   # pos: pos   rot: anim
    45 1.719577 0.000001 -0.000001 0.000000 -0.031656 -1.425526   # pos: pos   rot: anim
    46 1.209184 -0.000001 0.000001 -0.003428 0.022229 -0.934697   # pos: pos   rot: anim
    47 3.859829 -0.148934 -1.331284 -0.321533 -0.122638 -0.062432   # pos: pos   rot: anim
    48 1.719425 0.000000 0.000001 0.000000 0.126416 -0.583374   # pos: pos   rot: anim
    49 1.099666 0.000000 -0.000002 -0.051342 0.069075 -1.042844   # pos: pos   rot: anim
    50 0.806017 -0.359833 -1.318334 1.282844 0.248629 -0.715183   # pos: pos   rot: anim
    51 1.789780 0.000000 -0.000001 0.000000 -0.010076 0.141894   # pos: pos   rot: anim
    52 1.206998 0.000001 0.000001 0.000300 0.002007 1.187250   # pos: pos   rot: anim
    53 3.202717 -1.851488 0.187592 0.000000 0.000000 0.000000   # pos: pos   rot: rot
  time 12
    0 -28.694631 -13.547283 29.683834 1.756760 0.182875 -3.366069   # pos: anim   rot: anim
    1 3.890452 -0.000003 -0.000003 -2.104213 -0.921842 -0.699254   # pos: pos   rot: anim
    2 17.848169 0.000000 -0.000001 0.000000 0.000000 1.334263   # pos: pos   rot: anim
    3 16.525251 0.000001 0.000000 -0.115269 0.474214 -1.577849   # pos: pos   rot: anim
    4 6.879454 0.000000 -0.000001 -0.007299 -0.001261 -0.584373   # pos: pos   rot: anim
    5 -3.890452 0.000005 0.000006 -1.236061 -0.568789 -1.834106   # pos: pos   rot: anim
    6 17.848171 -0.000002 -0.000001 0.000000 0.000000 1.204757   # pos: pos   rot: anim
    7 16.525251 0.000000 0.000000 0.539736 0.332570 -1.603268   # pos: pos   rot: anim
    8 6.879454 -0.000001 -0.000001 -0.081333 -0.002951 -0.584373   # pos: pos   rot: rot
    9 -0.175782 3.341221 -2.981901 1.570849 0.022634 1.627324   # pos: anim   rot: anim
    10 4.018333 0.000000 0.000000 -0.207825 0.020649 0.162152   # pos: pos   rot: anim
    11 3.518568 0.000000 -0.000001 -0.257146 -0.165327 0.371045   # pos: pos   rot: anim
    12 8.942639 0.000000 0.000000 0.110186 0.003500 0.262971   # pos: pos   rot: anim
    13 3.307274 0.000000 0.000000 3.141591 0.000000 0.400478   # pos: pos   rot: rot
    14 3.593712 0.000000 0.000000 0.610190 -0.104128 0.639116   # pos: pos   rot: anim
    15 2.033351 1.000767 1.937660 4.612663 -1.497865 -0.074391   # pos: pos   rot: anim
    16 6.028142 -0.000001 -0.000001 -2.526733 -0.738637 0.157948   # pos: pos   rot: anim
    17 11.692554 0.000001 0.000000 0.000000 0.000000 -1.369193   # pos: pos   rot: anim
    18 11.481672 -0.000001 -0.000035 0.858131 0.057377 0.455223   # pos: pos   rot: anim
    19 3.859702 -0.142406 -1.191975 -0.463410 -0.186147 -1.428480   # pos: pos   rot: anim
    20 1.312561 0.000000 0.000001 0.000000 0.066184 -0.827641   # pos: pos   rot: anim
    21 0.729363 0.000000 0.000003 0.000000 0.000009 -0.594039   # pos: pos   rot: anim
    22 3.942324 0.046771 -0.431442 -0.161989 -0.106345 -1.434486   # pos: pos   rot: anim
    23 1.539094 -0.000001 0.000003 0.000000 0.006390 -0.777649   # pos: pos   rot: anim
    24 1.196320 0.000000 -0.000001 0.000000 0.000002 -1.170567   # pos: pos   rot: anim
    25 3.883686 -0.046771 0.431443 0.049936 -0.030483 -1.249513   # pos: pos   rot: anim
    26 1.719576 0.000000 -0.000001 0.000000 0.033584 -1.110956   # pos: pos   rot: anim
    27 1.209183 0.000002 -0.000001 0.000000 0.000004 -1.111215   # pos: pos   rot: anim
    28 3.859859 -0.137949 1.332465 0.283488 0.115914 -1.212794   # pos: pos   rot: anim
    29 1.719428 0.000000 0.000001 0.000000 -0.152217 -1.133732   # pos: pos   rot: anim
    30 1.099664 0.000001 -0.000001 0.000000 0.000007 -1.021295   # pos: pos   rot: anim
    31 0.806046 -0.348922 1.321258 -1.241196 -0.251322 -0.849459   # pos: pos   rot: anim
    32 1.789784 0.000000 -0.000001 0.000000 -0.036081 0.257592   # pos: pos   rot: anim
    33 1.206998 0.000000 0.000002 0.000000 0.000001 0.303713   # pos: pos   rot: anim
    34 2.033355 1.000772 -1.937611 -2.530037 1.124729 2.036367   # pos: pos   rot: anim
    35 6.028142 -0.000003 -0.000001 1.420872 1.019154 -0.463538   # pos: pos   rot: anim
    36 11.692547 -0.000001 -0.000001 0.000000 0.000000 -1.909485   # pos: pos   rot: anim
    37 11.481693 0.000000 0.000000 -0.690251 0.291383 0.626627   # pos: pos   rot: anim
    38 3.859672 -0.132567 1.193109 0.498203 0.156937 -0.982261   # pos: pos   rot: anim
    39 1.312560 0.000000 0.000001 0.000000 -0.456987 -1.112956   # pos: pos   rot: anim
    40 0.729364 0.000001 0.000000 0.000000 -0.000010 -0.672062   # pos: pos   rot: anim
    41 3.942294 0.050330 0.431042 0.160536 0.000249 -0.910199   # pos: pos   rot: anim
    42 1.539097 -0.000001 0.000002 0.000000 -0.214757 -1.281163   # pos: pos   rot: anim
    43 1.196320 0.000001 0.000000 0.000000 -0.000003 -0.797323   # pos: pos   rot: anim
    44 3.883656 -0.050326 -0.431041 -0.084946 -0.177602 -0.644875   # pos: pos   rot: anim
    45 1.719577 0.000001 -0.000001 0.000000 -0.031656 -1.425526   # pos: pos   rot: anim
    46 1.209184 -0.000001 0.000001 -0.003428 0.022229 -0.934697   # pos: pos   rot: anim
    47 3.859829 -0.148934 -1.331284 -0.321533 -0.122638 -0.062432   # pos: pos   rot: anim
    48 1.719425 0.000000 0.000001 0.000000 0.126416 -0.583374   # pos: pos   rot: anim
    49 1.099666 0.000000 -0.000002 -0.051342 0.069075 -1.042844   # pos: pos   rot: anim
    50 0.806017 -0.359833 -1.318334 1.282844 0.248629 -0.715183   # pos: pos   rot: anim
    51 1.789780 0.000000 -0.000001 0.000000 -0.010076 0.141894   # pos: pos   rot: anim
    52 1.206998 0.000001 0.000001 0.000300 0.002007 1.187250   # pos: pos   rot: anim
    53 3.202717 -1.851488 0.187592 0.000000 0.000000 0.000000   # pos: pos   rot: rot
  time 13
    0 -30.386088 -14.633254 29.297103 1.742745 0.179469 -3.555736   # pos: anim   rot: anim
    1 3.890452 -0.000003 -0.000003 -2.238693 -0.904908 -0.651624   # pos: pos   rot: anim
    2 17.848169 0.000000 -0.000001 0.000000 0.000000 1.411566   # pos: pos   rot: anim
    3 16.525251 0.000001 0.000000 -0.093209 0.354904 -1.565411   # pos: pos   rot: anim
    4 6.879454 0.000000 -0.000001 -0.007299 -0.001165 -0.584373   # pos: pos   rot: anim
    5 -3.890452 0.000005 0.000006 -1.388098 -0.547876 -1.810877   # pos: pos   rot: anim
    6 17.848171 -0.000002 -0.000001 0.000000 0.000000 1.169650   # pos: pos   rot: anim
    7 16.525251 0.000000 0.000000 0.673883 0.316459 -1.517366   # pos: pos   rot: anim
    8 6.879454 -0.000001 -0.000001 -0.081333 -0.002951 -0.584373   # pos: pos   rot: rot
    9 -0.183594 3.341221 -2.981901 1.570796 0.015071 1.628567   # pos: anim   rot: anim
    10 4.018333 0.000000 0.000000 -0.222889 0.015808 0.164775   # pos: pos   rot: anim
    11 3.518568 0.000000 -0.000001 -0.279202 -0.177708 0.386021   # pos: pos   rot: anim
    12 8.942639 0.000000 0.000000 0.114812 -0.004470 0.267130   # pos: pos   rot: anim
    13 3.307274 0.000000 0.000000 3.141591 0.000000 0.400478   # pos: pos   rot: rot
    14 3.593712 0.000000 0.000000 0.871057 -0.104981 0.640500   # pos: pos   rot: anim
    15 2.033351 1.000767 1.937660 4.623293 -1.489227 -0.085026   # pos: pos   rot: anim
    16 6.028142 -0.000001 -0.000001 -2.764923 -0.661626 0.154957   # pos: pos   rot: anim
    17 11.692554 0.000001 0.000000 0.000000 0.000000 -1.262937   # pos: pos   rot: anim
    18 11.481672 -0.000001 -0.000035 0.953855 0.172278 0.358707   # pos: pos   rot: anim
    19 3.859702 -0.142406 -1.191975 -0.463425 -0.186147 -1.428480   # pos: pos   rot: anim
    20 1.312561 0.000000 0.000001 0.000000 0.066184 -0.827641   # pos: pos   rot: anim
    21 0.729363 0.000000 0.000003 0.000000 0.000009 -0.594039   # pos: pos   rot: anim
    22 3.942324 0.046771 -0.431442 -0.161989 -0.106345 -1.434486   # pos: pos   rot: anim
    23 1.539094 -0.000001 0.000003 0.000000 0.006390 -0.777649   # pos: pos   rot: anim
    24 1.196320 0.000000 -0.000001 0.000000 0.000002 -1.170567   # pos: pos   rot: anim
    25 3.883686 -0.046771 0.431443 0.049936 -0.030483 -1.249513   # pos: pos   rot: anim
    26 1.719576 0.000000 -0.000001 0.000000 0.033584 -1.110956   # pos: pos   rot: anim
    27 1.209183 0.000002 -0.000001 0.000000 0.000004 -1.111215   # pos: pos   rot: anim
    28 3.859859 -0.137949 1.332465 0.283488 0.115914 -1.212794   # pos: pos   rot: anim
    29 1.719428 0.000000 0.000001 0.000000 -0.152217 -1.133732   # pos: pos   rot: anim
    30 1.099664 0.000001 -0.000001 0.000000 0.000007 -1.021295   # pos: pos   rot: anim
    31 0.806046 -0.348922 1.321258 -1.241196 -0.251322 -0.849459   # pos: pos   rot: anim
    32 1.789784 0.000000 -0.000001 0.000000 -0.036081 0.257592   # pos: pos   rot: anim
    33 1.206998 0.000000 0.000002 0.000000 0.000001 0.303713   # pos: pos   rot: anim
    34 2.033355 1.000772 -1.937611 -2.502254 1.111525 2.060980   # pos: pos   rot: anim
    35 6.028142 -0.000003 -0.000001 1.282291 1.301366 -0.660197   # pos: pos   rot: anim
    36 11.692547 -0.000001 -0.000001 0.000000 0.000000 -1.669623   # pos: pos   rot: anim
    37 11.481693 0.000000 0.000000 -0.800875 0.194717 0.575975   # pos: pos   rot: anim
    38 3.859672 -0.132567 1.193109 0.498203 0.156937 -0.982261   # pos: pos   rot: anim
    39 1.312560 0.000000 0.000001 0.000000 -0.456987 -1.112956   # pos: pos   rot: anim
    40 0.729364 0.000001 0.000000 0.000000 -0.000010 -0.672062   # pos: pos   rot: anim
    41 3.942294 0.050330 0.431042 0.160536 0.000249 -0.910199   # pos: pos   rot: anim
    42 1.539097 -0.000001 0.000002 0.000000 -0.214757 -1.281163   # pos: pos   rot: anim
    43 1.196320 0.000001 0.000000 0.000000 -0.000003 -0.797323   # pos: pos   rot: anim
    44 3.883656 -0.050326 -0.431041 -0.084946 -0.177602 -0.644875   # pos: pos   rot: anim
    45 1.719577 0.000001 -0.000001 0.000000 -0.031656 -1.425526   # pos: pos   rot: anim
    46 1.209184 -0.000001 0.000001 -0.003428 0.022229 -0.934697   # pos: pos   rot: anim
    47 3.859829 -0.148934 -1.331284 -0.321533 -0.122638 -0.062432   # pos: pos   rot: anim
    48 1.719425 0.000000 0.000001 0.000000 0.126416 -0.583374   # pos: pos   rot: anim
    49 1.099666 0.000000 -0.000002 -0.051342 0.069075 -1.042844   # pos: pos   rot: anim
    50 0.806017 -0.359833 -1.318334 1.282844 0.248629 -0.715183   # pos: pos   rot: anim
    51 1.789780 0.000000 -0.000001 0.000000 -0.010076 0.141894   # pos: pos   rot: anim
    52 1.206998 0.000001 0.000001 0.000300 0.002007 1.187250   # pos: pos   rot: anim
    53 3.202717 -1.851488 0.187592 0.000000 0.000000 0.000000   # pos: pos   rot: rot
  time 14
    0 -31.475965 -15.336401 29.043189 1.734383 0.174785 -3.678221   # pos: anim   rot: anim
    1 3.890452 -0.000003 -0.000003 -2.328890 -0.908383 -0.620316   # pos: pos   rot: anim
    2 17.848169 0.000000 -0.000001 0.000000 0.000000 1.457977   # pos: pos   rot: anim
    3 16.525251 0.000001 0.000000 -0.071592 0.249498 -1.523652   # pos: pos   rot: anim
    4 6.879454 0.000000 -0.000001 -0.007299 -0.001093 -0.584373   # pos: pos   rot: anim
    5 -3.890452 0.000005 0.000006 -1.486922 -0.527556 -1.807303   # pos: pos   rot: anim
    6 17.848171 -0.000002 -0.000001 0.000000 0.000000 1.132592   # pos: pos   rot: anim
    7 16.525251 0.000000 0.000000 0.716970 0.283174 -1.495370   # pos: pos   rot: anim
    8 6.879454 -0.000001 -0.000001 -0.081333 -0.002951 -0.584373   # pos: pos   rot: rot
    9 -0.191407 3.341221 -2.981901 1.570796 0.010163 1.629363   # pos: anim   rot: anim
    10 4.018333 0.000000 0.000000 -0.232633 0.012668 0.166468   # pos: pos   rot: anim
    11 3.518568 0.000000 -0.000001 -0.293472 -0.185713 0.395708   # pos: pos   rot: anim
    12 8.942639 0.000000 0.000000 0.117809 -0.009648 0.269827   # pos: pos   rot: anim
    13 3.307274 0.000000 0.000000 3.141591 0.000000 0.400478   # pos: pos   rot: rot
    14 3.593712 0.000000 0.000000 1.049197 -0.113582 0.645358   # pos: pos   rot: anim
    15 2.033351 1.000767 1.937660 4.629039 -1.483613 -0.090774   # pos: pos   rot: anim
    16 6.028142 -0.000001 -0.000001 -3.008083 -0.648571 0.195230   # pos: pos   rot: anim
    17 11.692554 0.000001 0.000000 0.000000 0.000000 -1.130306   # pos: pos   rot: anim
    18 11.481672 -0.000001 -0.000035 1.082882 0.266295 0.303766   # pos: pos   rot: anim
    19 3.859702 -0.142406 -1.191975 -0.463410 -0.186147 -1.428480   # pos: pos   rot: anim
    20 1.312561 0.000000 0.000001 0.000000 0.066184 -0.827641   # pos: pos   rot: anim
    21 0.729363 0.000000 0.000003 0.000000 0.000009 -0.594039   # pos: pos   rot: anim
    22 3.942324 0.046771 -0.431442 -0.161989 -0.106345 -1.434486   # pos: pos   rot: anim
    23 1.539094 -0.000001 0.000003 0.000000 0.006390 -0.777649   # pos: pos   rot: anim
    24 1.196320 0.000000 -0.000001 0.000000 0.000002 -1.170567   # pos: pos   rot: anim
    25 3.883686 -0.046771 0.431443 0.049936 -0.030483 -1.249513   # pos: pos   rot: anim
    26 1.719576 0.000000 -0.000001 0.000000 0.033584 -1.110956   # pos: pos   rot: anim
    27 1.209183 0.000002 -0.000001 0.000000 0.000004 -1.111215   # pos: pos   rot: anim
    28 3.859859 -0.137949 1.332465 0.283488 0.115914 -1.212794   # pos: pos   rot: anim
    29 1.719428 0.000000 0.000001 0.000000 -0.152217 -1.133732   # pos: pos   rot: anim
    30 1.099664 0.000001 -0.000001 0.000000 0.000007 -1.021295   # pos: pos   rot: anim
    31 0.806046 -0.348922 1.321258 -1.241196 -0.251322 -0.849459   # pos: pos   rot: anim
    32 1.789784 0.000000 -0.000001 0.000000 -0.036081 0.257592   # pos: pos   rot: anim
    33 1.206998 0.000000 0.000002 0.000000 0.000001 0.303713   # pos: pos   rot: anim
    34 2.033355 1.000772 -1.937611 -2.485164 1.102819 2.076017   # pos: pos   rot: anim
    35 6.028142 -0.000003 -0.000001 0.491261 1.452354 -1.510580   # pos: pos   rot: anim
    36 11.692547 -0.000001 -0.000001 0.000000 0.000000 -1.458485   # pos: pos   rot: anim
    37 11.481693 0.000000 0.000000 -0.905846 0.117529 0.503123   # pos: pos   rot: anim
    38 3.859672 -0.132567 1.193109 0.498203 0.156937 -0.982261   # pos: pos   rot: anim
    39 1.312560 0.000000 0.000001 0.000000 -0.456987 -1.112956   # pos: pos   rot: anim
    40 0.729364 0.000001 0.000000 0.000000 -0.000010 -0.672062   # pos: pos   rot: anim
    41 3.942294 0.050330 0.431042 0.160536 0.000249 -0.910199   # pos: pos   rot: anim
    42 1.539097 -0.000001 0.000002 0.000000 -0.214757 -1.281163   # pos: pos   rot: anim
    43 1.196320 0.000001 0.000000 0.000000 -0.000003 -0.797323   # pos: pos   rot: anim
    44 3.883656 -0.050326 -0.431041 -0.084946 -0.177602 -0.644875   # pos: pos   rot: anim
    45 1.719577 0.000001 -0.000001 0.000000 -0.031656 -1.425526   # pos: pos   rot: anim
    46 1.209184 -0.000001 0.000001 -0.003428 0.022229 -0.934697   # pos: pos   rot: anim
    47 3.859829 -0.148934 -1.331284 -0.321533 -0.122638 -0.062432   # pos: pos   rot: anim
    48 1.719425 0.000000 0.000001 0.000000 0.126416 -0.583374   # pos: pos   rot: anim
    49 1.099666 0.000000 -0.000002 -0.051342 0.069075 -1.042844   # pos: pos   rot: anim
    50 0.806017 -0.359833 -1.318334 1.282844 0.248629 -0.715183   # pos: pos   rot: anim
    51 1.789780 0.000000 -0.000001 0.000000 -0.010076 0.141894   # pos: pos   rot: anim
    52 1.206998 0.000001 0.000001 0.000300 0.002007 1.187250   # pos: pos   rot: anim
    53 3.202717 -1.851488 0.187592 0.000000 0.000000 0.000000   # pos: pos   rot: rot
  time 15
    0 -31.866602 -15.586408 28.957249 1.731615 0.172656 -3.721741   # pos: anim   rot: anim
    1 3.890452 -0.000003 -0.000003 -2.362534 -0.913766 -0.608098   # pos: pos   rot: anim
    2 17.848169 0.000000 -0.000001 0.000000 0.000000 1.473574   # pos: pos   rot: anim
    3 16.525251 0.000001 0.000000 -0.063494 0.203758 -1.499865   # pos: pos   rot: anim
    4 6.879454 0.000000 -0.000001 -0.007299 -0.001069 -0.584373   # pos: pos   rot: anim
    5 -3.890452 0.000005 0.000006 -1.520962 -0.518489 -1.809167   # pos: pos   rot: anim
    6 17.848171 -0.000002 -0.000001 0.000000 0.000000 1.115607   # pos: pos   rot: anim
    7 16.525251 0.000000 0.000000 0.718939 0.267696 -1.500384   # pos: pos   rot: anim
    8 6.879454 -0.000001 -0.000001 -0.081333 -0.002951 -0.584373   # pos: pos   rot: rot
    9 -0.195313 3.341221 -2.981901 1.570796 0.008420 1.629661   # pos: anim   rot: anim
    10 4.018333 0.000000 0.000000 -0.236096 0.011553 0.167066   # pos: pos   rot: anim
    11 3.518568 0.000000 -0.000001 -0.298538 -0.188566 0.399146   # pos: pos   rot: anim
    12 8.942639 0.000000 0.000000 0.118875 -0.011481 0.270785   # pos: pos   rot: anim
    13 3.307274 0.000000 0.000000 3.141591 0.000000 0.400478   # pos: pos   rot: rot
    14 3.593712 0.000000 0.000000 1.115168 -0.118701 0.647546   # pos: pos   rot: anim
    15 2.033351 1.000767 1.937660 4.630859 -1.481610 -0.092595   # pos: pos   rot: anim
    16 6.028142 -0.000001 -0.000001 -3.125170 -0.649745 0.226532   # pos: pos   rot: anim
    17 11.692554 0.000001 0.000000 0.000000 0.000000 -1.065093   # pos: pos   rot: anim
    18 11.481672 -0.000001 -0.000035 1.153037 0.303381 0.289552   # pos: pos   rot: anim
    19 3.859702 -0.142406 -1.191975 -0.463425 -0.186147 -1.428480   # pos: pos   rot: anim
    20 1.312561 0.000000 0.000001 0.000000 0.066184 -0.827641   # pos: pos   rot: anim
    21 0.729363 0.000000 0.000003 0.000000 0.000009 -0.594039   # pos: pos   rot: anim
    22 3.942324 0.046771 -0.431442 -0.161989 -0.106345 -1.434486   # pos: pos   rot: anim
    23 1.539094 -0.000001 0.000003 0.000000 0.006390 -0.777649   # pos: pos   rot: anim
    24 1.196320 0.000000 -0.000001 0.000000 0.000002 -1.170567   # pos: pos   rot: anim
    25 3.883686 -0.046771 0.431443 0.049936 -0.030483 -1.249513   # pos: pos   rot: anim
    26 1.719576 0.000000 -0.000001 0.000000 0.033584 -1.110956   # pos: pos   rot: anim
    27 1.209183 0.000002 -0.000001 0.000000 0.000004 -1.111215   # pos: pos   rot: anim
    28 3.859859 -0.137949 1.332465 0.283488 0.115914 -1.212794   # pos: pos   rot: anim
    29 1.719428 0.000000 0.000001 0.000000 -0.152217 -1.133732   # pos: pos   rot: anim
    30 1.099664 0.000001 -0.000001 0.000000 0.000007 -1.021295   # pos: pos   rot: anim
    31 0.806046 -0.348922 1.321258 -1.241196 -0.251322 -0.849459   # pos: pos   rot: anim
    32 1.789784 0.000000 -0.000001 0.000000 -0.036081 0.257592   # pos: pos   rot: anim
    33 1.206998 0.000000 0.000002 0.000000 0.000001 0.303713   # pos: pos   rot: anim
    34 2.033355 1.000772 -1.937611 -2.479149 1.099724 2.081284   # pos: pos   rot: anim
    35 6.028142 -0.000003 -0.000001 -0.182836 1.447389 -2.210628   # pos: pos   rot: anim
    36 11.692547 -0.000001 -0.000001 0.000000 0.000000 -1.366375   # pos: pos   rot: anim
    37 11.481693 0.000000 0.000000 -0.949483 0.086799 0.468269   # pos: pos   rot: anim
    38 3.859672 -0.132567 1.193109 0.498203 0.156937 -0.982261   # pos: pos   rot: anim
    39 1.312560 0.000000 0.000001 0.000000 -0.456987 -1.112956   # pos: pos   rot: anim
    40 0.729364 0.000001 0.000000 0.000000 -0.000010 -0.672062   # pos: pos   rot: anim
    41 3.942294 0.050330 0.431042 0.160536 0.000249 -0.910199   # pos: pos   rot: anim
    42 1.539097 -0.000001 0.000002 0.000000 -0.214757 -1.281163   # pos: pos   rot: anim
    43 1.196320 0.000001 0.000000 0.000000 -0.000003 -0.797323   # pos: pos   rot: anim
    44 3.883656 -0.050326 -0.431041 -0.084946 -0.177602 -0.644875   # pos: pos   rot: anim
    45 1.719577 0.000001 -0.000001 0.000000 -0.031656 -1.425526   # pos: pos   rot: anim
    46 1.209184 -0.000001 0.000001 -0.003428 0.022229 -0.934697   # pos: pos   rot: anim
    47 3.859829 -0.148934 -1.331284 -0.321533 -0.122638 -0.062432   # pos: pos   rot: anim
    48 1.719425 0.000000 0.000001 0.000000 0.126416 -0.583374   # pos: pos   rot: anim
    49 1.099666 0.000000 -0.000002 -0.051342 0.069075 -1.042844   # pos: pos   rot: anim
    50 0.806017 -0.359833 -1.318334 1.282844 0.248629 -0.715183   # pos: pos   rot: anim
    51 1.789780 0.000000 -0.000001 0.000000 -0.010076 0.141894   # pos: pos   rot: anim
    52 1.206998 0.000001 0.000001 0.000300 0.002007 1.187250   # pos: pos   rot: anim
    53 3.202717 -1.851488 0.187592 0.000000 0.000000 0.000000   # pos: pos   rot: rot
  time 16
    0 -31.866602 -15.586408 28.957249 1.731615 0.172656 -3.721741   # pos: anim   rot: anim
    1 3.890452 -0.000003 -0.000003 -2.362534 -0.913766 -0.608098   # pos: pos   rot: anim
    2 17.848169 0.000000 -0.000001 0.000000 0.000000 1.473574   # pos: pos   rot: anim
    3 16.525251 0.000001 0.000000 -0.063494 0.203758 -1.499865   # pos: pos   rot: anim
    4 6.879454 0.000000 -0.000001 -0.007299 -0.001069 -0.584373   # pos: pos   rot: anim
    5 -3.890452 0.000005 0.000006 -1.520962 -0.518489 -1.809167   # pos: pos   rot: anim
    6 17.848171 -0.000002 -0.000001 0.000000 0.000000 1.115607   # pos: pos   rot: anim
    7 16.525251 0.000000 0.000000 0.718939 0.267696 -1.500384   # pos: pos   rot: anim
    8 6.879454 -0.000001 -0.000001 -0.081333 -0.002951 -0.584373   # pos: pos   rot: rot
    9 -0.195313 3.341221 -2.981901 1.570796 0.008420 1.629661   # pos: anim   rot: anim
    10 4.018333 0.000000 0.000000 -0.236096 0.011553 0.167066   # pos: pos   rot: anim
    11 3.518568 0.000000 -0.000001 -0.298538 -0.188566 0.399146   # pos: pos   rot: anim
    12 8.942639 0.000000 0.000000 0.118875 -0.011481 0.270785   # pos: pos   rot: anim
    13 3.307274 0.000000 0.000000 3.141591 0.000000 0.400478   # pos: pos   rot: rot
    14 3.593712 0.000000 0.000000 1.115168 -0.118701 0.647546   # pos: pos   rot: anim
    15 2.033351 1.000767 1.937660 4.630859 -1.481610 -0.092595   # pos: pos   rot: anim
    16 6.028142 -0.000001 -0.000001 -3.125170 -0.649745 0.226532   # pos: pos   rot: anim
    17 11.692554 0.000001 0.000000 0.000000 0.000000 -1.065093   # pos: pos   rot: anim
    18 11.481672 -0.000001 -0.000035 1.153037 0.303381 0.289552   # pos: pos   rot: anim
    19 3.859702 -0.142406 -1.191975 -0.463425 -0.186147 -1.428480   # pos: pos   rot: anim
    20 1.312561 0.000000 0.000001 0.000000 0.066184 -0.827641   # pos: pos   rot: anim
    21 0.729363 0.000000 0.000003 0.000000 0.000009 -0.594039   # pos: pos   rot: anim
    22 3.942324 0.046771 -0.431442 -0.161989 -0.106345 -1.434486   # pos: pos   rot: anim
    23 1.539094 -0.000001 0.000003 0.000000 0.006390 -0.777649   # pos: pos   rot: anim
    24 1.196320 0.000000 -0.000001 0.000000 0.000002 -1.170567   # pos: pos   rot: anim
    25 3.883686 -0.046771 0.431443 0.049936 -0.030483 -1.249513   # pos: pos   rot: anim
    26 1.719576 0.000000 -0.000001 0.000000 0.033584 -1.110956   # pos: pos   rot: anim
    27 1.209183 0.000002 -0.000001 0.000000 0.000004 -1.111215   # pos: pos   rot: anim
    28 3.859859 -0.137949 1.332465 0.283488 0.115914 -1.212794   # pos: pos   rot: anim
    29 1.719428 0.000000 0.000001 0.000000 -0.152217 -1.133732   # pos: pos   rot: anim
    30 1.099664 0.000001 -0.000001 0.000000 0.000007 -1.021295   # pos: pos   rot: anim
    31 0.806046 -0.348922 1.321258 -1.241196 -0.251322 -0.849459   # pos: pos   rot: anim
    32 1.789784 0.000000 -0.000001 0.000000 -0.036081 0.257592   # pos: pos   rot: anim
    33 1.206998 0.000000 0.000002 0.000000 0.000001 0.303713   # pos: pos   rot: anim
    34 2.033355 1.000772 -1.937611 -2.479149 1.099724 2.081284   # pos: pos   rot: anim
    35 6.028142 -0.000003 -0.000001 -0.182836 1.447389 -2.210628   # pos: pos   rot: anim
    36 11.692547 -0.000001 -0.000001 0.000000 0.000000 -1.366375   # pos: pos   rot: anim
    37 11.481693 0.000000 0.000000 -0.949483 0.086799 0.468269   # pos: pos   rot: anim
    38 3.859672 -0.132567 1.193109 0.498203 0.156937 -0.982261   # pos: pos   rot: anim
    39 1.312560 0.000000 0.000001 0.000000 -0.456987 -1.112956   # pos: pos   rot: anim
    40 0.729364 0.000001 0.000000 0.000000 -0.000010 -0.672062   # pos: pos   rot: anim
    41 3.942294 0.050330 0.431042 0.160536 0.000249 -0.910199   # pos: pos   rot: anim
    42 1.539097 -0.000001 0.000002 0.000000 -0.214757 -1.281163   # pos: pos   rot: anim
    43 1.196320 0.000001 0.000000 0.000000 -0.000003 -0.797323   # pos: pos   rot: anim
    44 3.883656 -0.050326 -0.431041 -0.084946 -0.177602 -0.644875   # pos: pos   rot: anim
    45 1.719577 0.000001 -0.000001 0.000000 -0.031656 -1.425526   # pos: pos   rot: anim
    46 1.209184 -0.000001 0.000001 -0.003428 0.022229 -0.934697   # pos: pos   rot: anim
    47 3.859829 -0.148934 -1.331284 -0.321533 -0.122638 -0.062432   # pos: pos   rot: anim
    48 1.719425 0.000000 0.000001 0.000000 0.126416 -0.583374   # pos: pos   rot: anim
    49 1.099666 0.000000 -0.000002 -0.051342 0.069075 -1.042844   # pos: pos   rot: anim
    50 0.806017 -0.359833 -1.318334 1.282844 0.248629 -0.715183   # pos: pos   rot: anim
    51 1.789780 0.000000 -0.000001 0.000000 -0.010076 0.141894   # pos: pos   rot: anim
    52 1.206998 0.000001 0.000001 0.000300 0.002007 1.187250   # pos: pos   rot: anim
    53 3.202717 -1.851488 0.187592 0.000000 0.000000 0.000000   # pos: pos   rot: rot
  time 17
    0 -31.866602 -15.586408 28.957249 1.731615 0.172656 -3.721741   # pos: anim   rot: anim
    1 3.890452 -0.000003 -0.000003 -2.362534 -0.913766 -0.608098   # pos: pos   rot: anim
    2 17.848169 0.000000 -0.000001 0.000000 0.000000 1.473574   # pos: pos   rot: anim
    3 16.525251 0.000001 0.000000 -0.063494 0.203758 -1.499865   # pos: pos   rot: anim
    4 6.879454 0.000000 -0.000001 -0.007299 -0.001069 -0.584373   # pos: pos   rot: anim
    5 -3.890452 0.000005 0.000006 -1.520962 -0.518489 -1.809167   # pos: pos   rot: anim
    6 17.848171 -0.000002 -0.000001 0.000000 0.000000 1.115607   # pos: pos   rot: anim
    7 16.525251 0.000000 0.000000 0.718939 0.267696 -1.500384   # pos: pos   rot: anim
    8 6.879454 -0.000001 -0.000001 -0.081333 -0.002951 -0.584373   # pos: pos   rot: rot
    9 -0.195313 3.341221 -2.981901 1.570796 0.008420 1.629661   # pos: anim   rot: anim
    10 4.018333 0.000000 0.000000 -0.236096 0.011553 0.167066   # pos: pos   rot: anim
    11 3.518568 0.000000 -0.000001 -0.298538 -0.188566 0.399146   # pos: pos   rot: anim
    12 8.942639 0.000000 0.000000 0.118875 -0.011481 0.270785   # pos: pos   rot: anim
    13 3.307274 0.000000 0.000000 3.141591 0.000000 0.400478   # pos: pos   rot: rot
    14 3.593712 0.000000 0.000000 1.115168 -0.118701 0.647546   # pos: pos   rot: anim
    15 2.033351 1.000767 1.937660 4.630859 -1.481610 -0.092595   # pos: pos   rot: anim
    16 6.028142 -0.000001 -0.000001 -3.125170 -0.649745 0.226532   # pos: pos   rot: anim
    17 11.692554 0.000001 0.000000 0.000000 0.000000 -1.065093   # pos: pos   rot: anim
    18 11.481672 -0.000001 -0.000035 1.153037 0.303381 0.289552   # pos: pos   rot: anim
    19 3.859702 -0.142406 -1.191975 -0.463425 -0.186147 -1.428480   # pos: pos   rot: anim
    20 1.312561 0.000000 0.000001 0.000000 0.066184 -0.827641   # pos: pos   rot: anim
    21 0.729363 0.000000 0.000003 0.000000 0.000009 -0.594039   # pos: pos   rot: anim
    22 3.942324 0.046771 -0.431442 -0.161989 -0.106345 -1.434486   # pos: pos   rot: anim
    23 1.539094 -0.000001 0.000003 0.000000 0.006390 -0.777649   # pos: pos   rot: anim
    24 1.196320 0.000000 -0.000001 0.000000 0.000002 -1.170567   # pos: pos   rot: anim
    25 3.883686 -0.046771 0.431443 0.049936 -0.030483 -1.249513   # pos: pos   rot: anim
    26 1.719576 0.000000 -0.000001 0.000000 0.033584 -1.110956   # pos: pos   rot: anim
    27 1.209183 0.000002 -0.000001 0.000000 0.000004 -1.111215   # pos: pos   rot: anim
    28 3.859859 -0.137949 1.332465 0.283488 0.115914 -1.212794   # pos: pos   rot: anim
    29 1.719428 0.000000 0.000001 0.000000 -0.152217 -1.133732   # pos: pos   rot: anim
    30 1.099664 0.000001 -0.000001 0.000000 0.000007 -1.021295   # pos: pos   rot: anim
    31 0.806046 -0.348922 1.321258 -1.241196 -0.251322 -0.849459   # pos: pos   rot: anim
    32 1.789784 0.000000 -0.000001 0.000000 -0.036081 0.257592   # pos: pos   rot: anim
    33 1.206998 0.000000 0.000002 0.000000 0.000001 0.303713   # pos: pos   rot: anim
    34 2.033355 1.000772 -1.937611 -2.479149 1.099724 2.081284   # pos: pos   rot: anim
    35 6.028142 -0.000003 -0.000001 -0.182836 1.447389 -2.210628   # pos: pos   rot: anim
    36 11.692547 -0.000001 -0.000001 0.000000 0.000000 -1.366375   # pos: pos   rot: anim
    37 11.481693 0.000000 0.000000 -0.949483 0.086799 0.468269   # pos: pos   rot: anim
    38 3.859672 -0.132567 1.193109 0.498203 0.156937 -0.982261   # pos: pos   rot: anim
    39 1.312560 0.000000 0.000001 0.000000 -0.456987 -1.112956   # pos: pos   rot: anim
    40 0.729364 0.000001 0.000000 0.000000 -0.000010 -0.672062   # pos: pos   rot: anim
    41 3.942294 0.050330 0.431042 0.160536 0.000249 -0.910199   # pos: pos   rot: anim
    42 1.539097 -0.000001 0.000002 0.000000 -0.214757 -1.281163   # pos: pos   rot: anim
    43 1.196320 0.000001 0.000000 0.000000 -0.000003 -0.797323   # pos: pos   rot: anim
    44 3.883656 -0.050326 -0.431041 -0.084946 -0.177602 -0.644875   # pos: pos   rot: anim
    45 1.719577 0.000001 -0.000001 0.000000 -0.031656 -1.425526   # pos: pos   rot: anim
    46 1.209184 -0.000001 0.000001 -0.003428 0.022229 -0.934697   # pos: pos   rot: anim
    47 3.859829 -0.148934 -1.331284 -0.321533 -0.122638 -0.062432   # pos: pos   rot: anim
    48 1.719425 0.000000 0.000001 0.000000 0.126416 -0.583374   # pos: pos   rot: anim
    49 1.099666 0.000000 -0.000002 -0.051342 0.069075 -1.042844   # pos: pos   rot: anim
    50 0.806017 -0.359833 -1.318334 1.282844 0.248629 -0.715183   # pos: pos   rot: anim
    51 1.789780 0.000000 -0.000001 0.000000 -0.010076 0.141894   # pos: pos   rot: anim
    52 1.206998 0.000001 0.000001 0.000300 0.002007 1.187250   # pos: pos   rot: anim
    53 3.202717 -1.851488 0.187592 0.000000 0.000000 0.000000   # pos: pos   rot: rot
  time 18
    0 -31.866602 -15.586408 28.957249 1.731615 0.172656 -3.721741   # pos: anim   rot: anim
    1 3.890452 -0.000003 -0.000003 -2.362534 -0.913766 -0.608098   # pos: pos   rot: anim
    2 17.848169 0.000000 -0.000001 0.000000 0.000000 1.473574   # pos: pos   rot: anim
    3 16.525251 0.000001 0.000000 -0.063494 0.203758 -1.499865   # pos: pos   rot: anim
    4 6.879454 0.000000 -0.000001 -0.007299 -0.001069 -0.584373   # pos: pos   rot: anim
    5 -3.890452 0.000005 0.000006 -1.520962 -0.518489 -1.809167   # pos: pos   rot: anim
    6 17.848171 -0.000002 -0.000001 0.000000 0.000000 1.115607   # pos: pos   rot: anim
    7 16.525251 0.000000 0.000000 0.718939 0.267696 -1.500384   # pos: pos   rot: anim
    8 6.879454 -0.000001 -0.000001 -0.081333 -0.002951 -0.584373   # pos: pos   rot: rot
    9 -0.195313 3.341221 -2.981901 1.570796 0.008420 1.629661   # pos: anim   rot: anim
    10 4.018333 0.000000 0.000000 -0.236096 0.011553 0.167066   # pos: pos   rot: anim
    11 3.518568 0.000000 -0.000001 -0.298538 -0.188566 0.399146   # pos: pos   rot: anim
    12 8.942639 0.000000 0.000000 0.118875 -0.011481 0.270785   # pos: pos   rot: anim
    13 3.307274 0.000000 0.000000 3.141591 0.000000 0.400478   # pos: pos   rot: rot
    14 3.593712 0.000000 0.000000 1.115168 -0.118701 0.647546   # pos: pos   rot: anim
    15 2.033351 1.000767 1.937660 4.630859 -1.481610 -0.092595   # pos: pos   rot: anim
    16 6.028142 -0.000001 -0.000001 -3.125170 -0.649745 0.226532   # pos: pos   rot: anim
    17 11.692554 0.000001 0.000000 0.000000 0.000000 -1.065093   # pos: pos   rot: anim
    18 11.481672 -0.000001 -0.000035 1.153037 0.303381 0.289552   # pos: pos   rot: anim
    19 3.859702 -0.142406 -1.191975 -0.463425 -0.186147 -1.428480   # pos: pos   rot: anim
    20 1.312561 0.000000 0.000001 0.000000 0.066184 -0.827641   # pos: pos   rot: anim
    21 0.729363 0.000000 0.000003 0.000000 0.000009 -0.594039   # pos: pos   rot: anim
    22 3.942324 0.046771 -0.431442 -0.161989 -0.106345 -1.434486   # pos: pos   rot: anim
    23 1.539094 -0.000001 0.000003 0.000000 0.006390 -0.777649   # pos: pos   rot: anim
    24 1.196320 0.000000 -0.000001 0.000000 0.000002 -1.170567   # pos: pos   rot: anim
    25 3.883686 -0.046771 0.431443 0.049936 -0.030483 -1.249513   # pos: pos   rot: anim
    26 1.719576 0.000000 -0.000001 0.000000 0.033584 -1.110956   # pos: pos   rot: anim
    27 1.209183 0.000002 -0.000001 0.000000 0.000004 -1.111215   # pos: pos   rot: anim
    28 3.859859 -0.137949 1.332465 0.283488 0.115914 -1.212794   # pos: pos   rot: anim
    29 1.719428 0.000000 0.000001 0.000000 -0.152217 -1.133732   # pos: pos   rot: anim
    30 1.099664 0.000001 -0.000001 0.000000 0.000007 -1.021295   # pos: pos   rot: anim
    31 0.806046 -0.348922 1.321258 -1.241196 -0.251322 -0.849459   # pos: pos   rot: anim
    32 1.789784 0.000000 -0.000001 0.000000 -0.036081 0.257592   # pos: pos   rot: anim
    33 1.206998 0.000000 0.000002 0.000000 0.000001 0.303713   # pos: pos   rot: anim
    34 2.033355 1.000772 -1.937611 -2.479149 1.099724 2.081284   # pos: pos   rot: anim
    35 6.028142 -0.000003 -0.000001 -0.182836 1.447389 -2.210628   # pos: pos   rot: anim
    36 11.692547 -0.000001 -0.000001 0.000000 0.000000 -1.366375   # pos: pos   rot: anim
    37 11.481693 0.000000 0.000000 -0.949483 0.086799 0.468269   # pos: pos   rot: anim
    38 3.859672 -0.132567 1.193109 0.498203 0.156937 -0.982261   # pos: pos   rot: anim
    39 1.312560 0.000000 0.000001 0.000000 -0.456987 -1.112956   # pos: pos   rot: anim
    40 0.729364 0.000001 0.000000 0.000000 -0.000010 -0.672062   # pos: pos   rot: anim
    41 3.942294 0.050330 0.431042 0.160536 0.000249 -0.910199   # pos: pos   rot: anim
    42 1.539097 -0.000001 0.000002 0.000000 -0.214757 -1.281163   # pos: pos   rot: anim
    43 1.196320 0.000001 0.000000 0.000000 -0.000003 -0.797323   # pos: pos   rot: anim
    44 3.883656 -0.050326 -0.431041 -0.084946 -0.177602 -0.644875   # pos: pos   rot: anim
    45 1.719577 0.000001 -0.000001 0.000000 -0.031656 -1.425526   # pos: pos   rot: anim
    46 1.209184 -0.000001 0.000001 -0.003428 0.022229 -0.934697   # pos: pos   rot: anim
    47 3.859829 -0.148934 -1.331284 -0.321533 -0.122638 -0.062432   # pos: pos   rot: anim
    48 1.719425 0.000000 0.000001 0.000000 0.126416 -0.583374   # pos: pos   rot: anim
    49 1.099666 0.000000 -0.000002 -0.051342 0.069075 -1.042844   # pos: pos   rot: anim
    50 0.806017 -0.359833 -1.318334 1.282844 0.248629 -0.715183   # pos: pos   rot: anim
    51 1.789780 0.000000 -0.000001 0.000000 -0.010076 0.141894   # pos: pos   rot: anim
    52 1.206998 0.000001 0.000001 0.000300 0.002007 1.187250   # pos: pos   rot: anim
    53 3.202717 -1.851488 0.187592 0.000000 0.000000 0.000000   # pos: pos   rot: rot
end
