// Created by Crowbar 0.51.0.0
version 1
nodes
  0 "ValveBiped.Bip01_Pelvis" -1
  1 "ValveBiped.Bip01_L_Thigh" 0
  2 "ValveBiped.Bip01_L_Calf" 1
  3 "ValveBiped.Bip01_L_Foot" 2
  4 "ValveBiped.Bip01_L_Toe0" 3
  5 "ValveBiped.Bip01_R_Thigh" 0
  6 "ValveBiped.Bip01_R_Calf" 5
  7 "ValveBiped.Bip01_R_Foot" 6
  8 "ValveBiped.Bip01_R_Toe0" 7
  9 "ValveBiped.Bip01_Spine" 0
  10 "ValveBiped.Bip01_Spine1" 9
  11 "ValveBiped.Bip01_Spine2" 10
  12 "ValveBiped.Bip01_Spine4" 11
  13 "ValveBiped.Bip01_Neck1" 12
  14 "ValveBiped.Bip01_Head1" 13
  15 "ValveBiped.Bip01_L_Clavicle" 12
  16 "ValveBiped.Bip01_L_UpperArm" 15
  17 "ValveBiped.Bip01_L_Forearm" 16
  18 "ValveBiped.Bip01_L_Hand" 17
  19 "ValveBiped.Bip01_L_Finger4" 18
  20 "ValveBiped.Bip01_L_Finger41" 19
  21 "ValveBiped.Bip01_L_Finger42" 20
  22 "ValveBiped.Bip01_L_Finger3" 18
  23 "ValveBiped.Bip01_L_Finger31" 22
  24 "ValveBiped.Bip01_L_Finger32" 23
  25 "ValveBiped.Bip01_L_Finger2" 18
  26 "ValveBiped.Bip01_L_Finger21" 25
  27 "ValveBiped.Bip01_L_Finger22" 26
  28 "ValveBiped.Bip01_L_Finger1" 18
  29 "ValveBiped.Bip01_L_Finger11" 28
  30 "ValveBiped.Bip01_L_Finger12" 29
  31 "ValveBiped.Bip01_L_Finger0" 18
  32 "ValveBiped.Bip01_L_Finger01" 31
  33 "ValveBiped.Bip01_L_Finger02" 32
  34 "ValveBiped.Bip01_R_Clavicle" 12
  35 "ValveBiped.Bip01_R_UpperArm" 34
  36 "ValveBiped.Bip01_R_Forearm" 35
  37 "ValveBiped.Bip01_R_Hand" 36
  38 "ValveBiped.Bip01_R_Finger4" 37
  39 "ValveBiped.Bip01_R_Finger41" 38
  40 "ValveBiped.Bip01_R_Finger42" 39
  41 "ValveBiped.Bip01_R_Finger3" 37
  42 "ValveBiped.Bip01_R_Finger31" 41
  43 "ValveBiped.Bip01_R_Finger32" 42
  44 "ValveBiped.Bip01_R_Finger2" 37
  45 "ValveBiped.Bip01_R_Finger21" 44
  46 "ValveBiped.Bip01_R_Finger22" 45
  47 "ValveBiped.Bip01_R_Finger1" 37
  48 "ValveBiped.Bip01_R_Finger11" 47
  49 "ValveBiped.Bip01_R_Finger12" 48
  50 "ValveBiped.Bip01_R_Finger0" 37
  51 "ValveBiped.Bip01_R_Finger01" 50
  52 "ValveBiped.Bip01_R_Finger02" 51
  53 "ValveBiped.Annabelle_Null" 37
end
skeleton
  time 0
    0 -0.002349 2.453205 38.695828 1.570796 0.000000 -0.000063   # pos: anim   rot: anim
    1 3.890447 0.000001 0.000000 -1.570796 -0.009239 -1.565574   # pos: pos   rot: anim
    2 17.848175 0.000000 0.000000 0.000000 0.000000 0.089470   # pos: pos   rot: anim
    3 16.525253 0.000000 0.000000 -0.028185 -0.040605 -1.057877   # pos: pos   rot: anim
    4 6.879454 0.000000 0.000000 -0.007275 -0.002927 -0.586968   # pos: pos   rot: anim
    5 -3.890447 0.000001 0.000000 -1.570796 -0.009252 -1.576021   # pos: pos   rot: anim
    6 17.848175 0.000000 0.000000 0.000000 0.000000 0.089449   # pos: pos   rot: anim
    7 16.525257 0.000000 0.000000 0.038761 0.040593 -1.057867   # pos: pos   rot: anim
    8 6.879454 -0.000001 0.000000 -0.079032 -0.002939 -0.586979   # pos: pos   rot: anim
    9 0.000000 3.345133 -2.981898 1.570796 0.083196 1.570796   # pos: pos   rot: anim
    10 3.998799 0.000000 0.000000 0.000000 0.000000 -0.028827   # pos: anim   rot: anim
    11 3.520298 0.000000 0.000000 0.000000 0.000000 0.342901   # pos: pos   rot: anim
    12 8.923110 0.000000 0.000000 0.000000 0.000000 0.186414   # pos: anim   rot: anim
    13 3.306359 0.000001 0.000000 3.141590 0.000000 0.640836   # pos: pos   rot: anim
    14 3.601524 -0.000001 0.000000 -0.131286 -0.091492 0.206973   # pos: anim   rot: anim
    15 2.056784 0.981236 1.937660 1.589742 -1.286515 2.950051   # pos: anim   rot: anim
    16 6.028141 0.000002 0.000002 0.286048 -1.066825 -1.639912   # pos: pos   rot: anim
    17 11.692553 0.000000 0.000001 0.000000 0.000000 -1.720948   # pos: pos   rot: anim
    18 11.481670 0.000000 -0.000033 1.512734 1.110996 -0.009902   # pos: pos   rot: anim
    19 3.851892 0.123227 -1.223225 -0.469917 0.161694 -0.812370   # pos: anim   rot: anim
    20 1.312561 0.000000 0.000000 0.000000 0.004679 -0.439759   # pos: pos   rot: anim
    21 0.729362 0.000000 0.000000 0.000000 0.002406 -0.244334   # pos: pos   rot: anim
    22 3.926701 0.316312 -0.458788 -0.150484 0.082976 -0.742886   # pos: anim   rot: anim
    23 1.539097 0.000002 0.000002 0.000000 0.002914 -0.247797   # pos: pos   rot: anim
    24 1.196319 0.000000 0.000000 0.000000 0.004796 -0.430832   # pos: pos   rot: anim
    25 3.883690 0.211049 0.404099 0.087700 0.031633 -0.519962   # pos: anim   rot: anim
    26 1.719582 -0.000001 0.000001 0.000000 0.005013 -0.366478   # pos: pos   rot: anim
    27 1.209179 0.000001 0.000000 0.000000 0.002808 -0.216400   # pos: pos   rot: anim
    28 3.867672 0.115966 1.301215 0.352472 -0.032983 -0.463866   # pos: anim   rot: anim
    29 1.719431 -0.000002 0.000000 0.000000 0.005105 -0.363009   # pos: pos   rot: anim
    30 1.099662 0.000000 -0.000002 0.000000 0.003255 -0.244331   # pos: pos   rot: anim
    31 0.837299 -0.302045 1.313445 -1.251008 -0.669815 -0.720185   # pos: anim   rot: anim
    32 1.789784 0.000002 0.000001 0.000000 -0.002153 0.228622   # pos: pos   rot: anim
    33 1.207003 -0.000001 0.000000 0.000000 -0.003294 0.363001   # pos: pos   rot: anim
    34 2.056792 0.981240 -1.937610 -1.661599 1.286518 2.950136   # pos: anim   rot: anim
    35 6.028141 -0.000002 -0.000002 0.198750 0.861771 -1.238801   # pos: pos   rot: anim
    36 11.692548 -0.000001 -0.000001 0.000000 0.000000 -1.825044   # pos: pos   rot: anim
    37 11.481694 0.000000 0.000000 -1.556289 -0.736076 0.025827   # pos: pos   rot: anim
    38 3.851859 0.133064 1.220452 0.469816 -0.167713 -0.811412   # pos: anim   rot: anim
    39 1.312562 0.000000 0.000000 0.000000 -0.007089 -0.439763   # pos: pos   rot: anim
    40 0.729363 0.000000 -0.000001 0.000000 -0.003653 -0.244305   # pos: pos   rot: anim
    41 3.926668 0.319868 0.458387 0.150457 -0.088581 -0.742367   # pos: anim   rot: anim
    42 1.539099 0.000000 -0.000001 0.000000 -0.004404 -0.247771   # pos: pos   rot: anim
    43 1.196321 0.000001 0.000001 0.000000 -0.007266 -0.430795   # pos: pos   rot: anim
    44 3.883656 0.207493 -0.403698 -0.087715 -0.035752 -0.519729   # pos: anim   rot: anim
    45 1.719579 -0.000001 0.000003 0.000000 -0.007590 -0.366436   # pos: pos   rot: anim
    46 1.209180 0.000000 0.000001 0.000000 -0.004245 -0.216376   # pos: pos   rot: anim
    47 3.867642 0.104977 -1.303937 -0.352490 0.029267 -0.464091   # pos: anim   rot: anim
    48 1.719431 -0.000001 0.000000 0.000000 -0.007728 -0.362970   # pos: pos   rot: anim
    49 1.099661 0.000000 0.000000 0.000000 -0.004918 -0.244312   # pos: pos   rot: anim
    50 0.837268 -0.312959 -1.310521 1.248005 0.664325 -0.725045   # pos: anim   rot: anim
    51 1.789783 -0.000001 -0.000003 0.000000 0.003275 0.228615   # pos: pos   rot: anim
    52 1.207003 -0.000003 0.000001 0.000000 0.005003 0.362987   # pos: pos   rot: anim
    53 3.202717 -1.851488 0.187593 0.000000 0.000000 0.000000   # pos: pos   rot: rot
  time 1
    0 -0.002349 2.453205 38.695828 1.570796 0.000000 -0.000063   # pos: anim   rot: anim
    1 3.890447 0.000001 0.000000 -1.570796 -0.009239 -1.565574   # pos: pos   rot: anim
    2 17.848175 0.000000 0.000000 0.000000 0.000000 0.089470   # pos: pos   rot: anim
    3 16.525253 0.000000 0.000000 -0.028185 -0.040605 -1.057877   # pos: pos   rot: anim
    4 6.879454 0.000000 0.000000 -0.007275 -0.002927 -0.586968   # pos: pos   rot: anim
    5 -3.890447 0.000001 0.000000 -1.570796 -0.009252 -1.576021   # pos: pos   rot: anim
    6 17.848175 0.000000 0.000000 0.000000 0.000000 0.089449   # pos: pos   rot: anim
    7 16.525257 0.000000 0.000000 0.038761 0.040593 -1.057867   # pos: pos   rot: anim
    8 6.879454 -0.000001 0.000000 -0.079032 -0.002939 -0.586979   # pos: pos   rot: anim
    9 0.000000 3.345133 -2.981898 1.570796 0.083196 1.570796   # pos: pos   rot: anim
    10 3.998799 0.000000 0.000000 0.000000 0.000000 -0.028827   # pos: anim   rot: anim
    11 3.520298 0.000000 0.000000 0.000000 0.000000 0.342901   # pos: pos   rot: anim
    12 8.923110 0.000000 0.000000 0.000000 0.000000 0.186414   # pos: anim   rot: anim
    13 3.306359 0.000001 0.000000 3.141590 0.000000 0.640836   # pos: pos   rot: anim
    14 3.601524 -0.000001 0.000000 -0.131286 -0.091492 0.206973   # pos: anim   rot: anim
    15 2.056784 0.981236 1.937660 1.589742 -1.286515 2.950051   # pos: anim   rot: anim
    16 6.028141 0.000002 0.000002 0.286048 -1.066825 -1.639912   # pos: pos   rot: anim
    17 11.692553 0.000000 0.000001 0.000000 0.000000 -1.720948   # pos: pos   rot: anim
    18 11.481670 0.000000 -0.000033 1.512734 1.110996 -0.009902   # pos: pos   rot: anim
    19 3.851892 0.123227 -1.223225 -0.469917 0.161694 -0.812370   # pos: anim   rot: anim
    20 1.312561 0.000000 0.000000 0.000000 0.004679 -0.439759   # pos: pos   rot: anim
    21 0.729362 0.000000 0.000000 0.000000 0.002406 -0.244334   # pos: pos   rot: anim
    22 3.926701 0.316312 -0.458788 -0.150484 0.082976 -0.742886   # pos: anim   rot: anim
    23 1.539097 0.000002 0.000002 0.000000 0.002914 -0.247797   # pos: pos   rot: anim
    24 1.196319 0.000000 0.000000 0.000000 0.004796 -0.430832   # pos: pos   rot: anim
    25 3.883690 0.211049 0.404099 0.087700 0.031633 -0.519962   # pos: anim   rot: anim
    26 1.719582 -0.000001 0.000001 0.000000 0.005013 -0.366478   # pos: pos   rot: anim
    27 1.209179 0.000001 0.000000 0.000000 0.002808 -0.216400   # pos: pos   rot: anim
    28 3.867672 0.115966 1.301215 0.352472 -0.032983 -0.463866   # pos: anim   rot: anim
    29 1.719431 -0.000002 0.000000 0.000000 0.005105 -0.363009   # pos: pos   rot: anim
    30 1.099662 0.000000 -0.000002 0.000000 0.003255 -0.244331   # pos: pos   rot: anim
    31 0.837299 -0.302045 1.313445 -1.251008 -0.669815 -0.720185   # pos: anim   rot: anim
    32 1.789784 0.000002 0.000001 0.000000 -0.002153 0.228622   # pos: pos   rot: anim
    33 1.207003 -0.000001 0.000000 0.000000 -0.003294 0.363001   # pos: pos   rot: anim
    34 2.056792 0.981240 -1.937610 -1.661599 1.286518 2.950136   # pos: anim   rot: anim
    35 6.028141 -0.000002 -0.000002 0.198750 0.861771 -1.238801   # pos: pos   rot: anim
    36 11.692548 -0.000001 -0.000001 0.000000 0.000000 -1.825044   # pos: pos   rot: anim
    37 11.481694 0.000000 0.000000 -1.556289 -0.736076 0.025827   # pos: pos   rot: anim
    38 3.851859 0.133064 1.220452 0.469816 -0.167713 -0.811412   # pos: anim   rot: anim
    39 1.312562 0.000000 0.000000 0.000000 -0.007089 -0.439763   # pos: pos   rot: anim
    40 0.729363 0.000000 -0.000001 0.000000 -0.003653 -0.244305   # pos: pos   rot: anim
    41 3.926668 0.319868 0.458387 0.150457 -0.088581 -0.742367   # pos: anim   rot: anim
    42 1.539099 0.000000 -0.000001 0.000000 -0.004404 -0.247771   # pos: pos   rot: anim
    43 1.196321 0.000001 0.000001 0.000000 -0.007266 -0.430795   # pos: pos   rot: anim
    44 3.883656 0.207493 -0.403698 -0.087715 -0.035752 -0.519729   # pos: anim   rot: anim
    45 1.719579 -0.000001 0.000003 0.000000 -0.007590 -0.366436   # pos: pos   rot: anim
    46 1.209180 0.000000 0.000001 0.000000 -0.004245 -0.216376   # pos: pos   rot: anim
    47 3.867642 0.104977 -1.303937 -0.352490 0.029267 -0.464091   # pos: anim   rot: anim
    48 1.719431 -0.000001 0.000000 0.000000 -0.007728 -0.362970   # pos: pos   rot: anim
    49 1.099661 0.000000 0.000000 0.000000 -0.004918 -0.244312   # pos: pos   rot: anim
    50 0.837268 -0.312959 -1.310521 1.248005 0.664325 -0.725045   # pos: anim   rot: anim
    51 1.789783 -0.000001 -0.000003 0.000000 0.003275 0.228615   # pos: pos   rot: anim
    52 1.207003 -0.000003 0.000001 0.000000 0.005003 0.362987   # pos: pos   rot: anim
    53 3.202717 -1.851488 0.187593 0.000000 0.000000 0.000000   # pos: pos   rot: rot
end
