// Created by Crowbar 0.51.0.0
version 1
nodes
  0 "ValveBiped.Bip01_Pelvis" -1
  1 "ValveBiped.Bip01_L_Thigh" 0
  2 "ValveBiped.Bip01_L_Calf" 1
  3 "ValveBiped.Bip01_L_Foot" 2
  4 "ValveBiped.Bip01_L_Toe0" 3
  5 "ValveBiped.Bip01_R_Thigh" 0
  6 "ValveBiped.Bip01_R_Calf" 5
  7 "ValveBiped.Bip01_R_Foot" 6
  8 "ValveBiped.Bip01_R_Toe0" 7
  9 "ValveBiped.Bip01_Spine" 0
  10 "ValveBiped.Bip01_Spine1" 9
  11 "ValveBiped.Bip01_Spine2" 10
  12 "ValveBiped.Bip01_Spine4" 11
  13 "ValveBiped.Bip01_Neck1" 12
  14 "ValveBiped.Bip01_Head1" 13
  15 "ValveBiped.Bip01_L_Clavicle" 12
  16 "ValveBiped.Bip01_L_UpperArm" 15
  17 "ValveBiped.Bip01_L_Forearm" 16
  18 "ValveBiped.Bip01_L_Hand" 17
  19 "ValveBiped.Bip01_L_Finger4" 18
  20 "ValveBiped.Bip01_L_Finger41" 19
  21 "ValveBiped.Bip01_L_Finger42" 20
  22 "ValveBiped.Bip01_L_Finger3" 18
  23 "ValveBiped.Bip01_L_Finger31" 22
  24 "ValveBiped.Bip01_L_Finger32" 23
  25 "ValveBiped.Bip01_L_Finger2" 18
  26 "ValveBiped.Bip01_L_Finger21" 25
  27 "ValveBiped.Bip01_L_Finger22" 26
  28 "ValveBiped.Bip01_L_Finger1" 18
  29 "ValveBiped.Bip01_L_Finger11" 28
  30 "ValveBiped.Bip01_L_Finger12" 29
  31 "ValveBiped.Bip01_L_Finger0" 18
  32 "ValveBiped.Bip01_L_Finger01" 31
  33 "ValveBiped.Bip01_L_Finger02" 32
  34 "ValveBiped.Bip01_R_Clavicle" 12
  35 "ValveBiped.Bip01_R_UpperArm" 34
  36 "ValveBiped.Bip01_R_Forearm" 35
  37 "ValveBiped.Bip01_R_Hand" 36
  38 "ValveBiped.Bip01_R_Finger4" 37
  39 "ValveBiped.Bip01_R_Finger41" 38
  40 "ValveBiped.Bip01_R_Finger42" 39
  41 "ValveBiped.Bip01_R_Finger3" 37
  42 "ValveBiped.Bip01_R_Finger31" 41
  43 "ValveBiped.Bip01_R_Finger32" 42
  44 "ValveBiped.Bip01_R_Finger2" 37
  45 "ValveBiped.Bip01_R_Finger21" 44
  46 "ValveBiped.Bip01_R_Finger22" 45
  47 "ValveBiped.Bip01_R_Finger1" 37
  48 "ValveBiped.Bip01_R_Finger11" 47
  49 "ValveBiped.Bip01_R_Finger12" 48
  50 "ValveBiped.Bip01_R_Finger0" 37
  51 "ValveBiped.Bip01_R_Finger01" 50
  52 "ValveBiped.Bip01_R_Finger02" 51
  53 "ValveBiped.Annabelle_Null" 37
end
skeleton
  time 0
    0 32.627553 -5.504069 28.957249 1.731615 0.172656 -3.721741   # pos: anim   rot: anim
    1 3.890453 -0.000005 -0.000002 -2.362534 -0.913766 -0.608098   # pos: pos   rot: anim
    2 17.848175 -0.000001 0.000000 0.000000 0.000000 1.473574   # pos: pos   rot: anim
    3 16.525255 0.000000 0.000000 -0.063494 0.203758 -1.499865   # pos: pos   rot: anim
    4 6.879455 0.000000 0.000000 -0.007299 -0.001069 -0.584373   # pos: pos   rot: anim
    5 -3.890452 0.000006 0.000007 -1.520962 -0.518489 -1.809167   # pos: pos   rot: anim
    6 17.848175 0.000000 -0.000003 0.000000 0.000000 1.115607   # pos: pos   rot: anim
    7 16.525255 0.000000 0.000001 0.718939 0.267696 -1.500384   # pos: pos   rot: anim
    8 6.879455 0.000001 0.000001 -0.081333 -0.002951 -0.584373   # pos: pos   rot: rot
    9 -0.195313 3.341221 -2.981901 1.570796 0.008420 1.629661   # pos: anim   rot: anim
    10 4.018333 -0.000001 0.000000 -0.236096 0.011553 0.167066   # pos: pos   rot: anim
    11 3.518568 0.000000 0.000001 -0.298538 -0.188566 0.399146   # pos: pos   rot: anim
    12 8.942642 -0.000003 0.000000 0.118875 -0.011481 0.270785   # pos: pos   rot: anim
    13 3.307274 0.000000 0.000001 3.141590 0.000000 0.400478   # pos: pos   rot: anim
    14 3.593711 0.000000 0.000000 1.115168 -0.118701 0.647546   # pos: pos   rot: anim
    15 2.033350 1.000766 1.937662 4.630859 -1.481610 -0.092595   # pos: pos   rot: anim
    16 6.028144 0.000001 -0.000001 -3.036184 -0.647838 0.094876   # pos: pos   rot: anim
    17 11.692554 0.000000 0.000002 0.000000 0.000000 -1.116321   # pos: pos   rot: anim
    18 11.481671 0.000000 -0.000032 0.846530 0.095616 0.064667   # pos: pos   rot: anim
    19 3.859702 -0.142406 -1.191973 -0.630885 -0.018267 -0.184354   # pos: pos   rot: anim
    20 1.312561 0.000001 0.000000 -0.010435 0.069216 -0.299521   # pos: pos   rot: anim
    21 0.729362 0.000000 -0.000002 -0.010427 0.069220 -0.299497   # pos: pos   rot: anim
    22 3.942326 0.046770 -0.431442 -0.097248 -0.066041 -0.320850   # pos: pos   rot: anim
    23 1.539095 0.000002 -0.000001 -0.003296 0.021430 -0.306416   # pos: pos   rot: anim
    24 1.196322 -0.000003 -0.000003 -0.003308 0.021443 -0.306671   # pos: pos   rot: anim
    25 3.883687 -0.046772 0.431444 0.145549 0.028242 -0.322375   # pos: pos   rot: anim
    26 1.719577 0.000003 -0.000002 0.003811 -0.024733 -0.306217   # pos: pos   rot: anim
    27 1.209182 0.000000 -0.000001 0.003811 -0.024732 -0.306182   # pos: pos   rot: anim
    28 3.859861 -0.137947 1.332468 0.606557 0.043935 -0.315964   # pos: pos   rot: anim
    29 1.719430 -0.000001 0.000001 0.012979 -0.087488 -0.294848   # pos: pos   rot: anim
    30 1.099664 -0.000002 0.000000 0.012979 -0.087480 -0.294836   # pos: pos   rot: anim
    31 0.806047 -0.348922 1.321261 -1.404045 -0.282255 -0.427077   # pos: pos   rot: anim
    32 1.789785 -0.000001 -0.000001 -0.000024 -0.000259 0.260046   # pos: pos   rot: anim
    33 1.206996 0.000001 0.000001 -0.000048 -0.000310 0.303713   # pos: pos   rot: anim
    34 2.033355 1.000770 -1.937608 -2.479149 1.099724 2.081284   # pos: pos   rot: anim
    35 6.028142 0.000002 0.000002 -0.024648 1.432925 -1.964945   # pos: pos   rot: anim
    36 11.692554 -0.000001 0.000000 0.000000 0.000000 -1.403670   # pos: pos   rot: anim
    37 11.481698 0.000000 0.000002 -0.930192 0.232258 0.381383   # pos: pos   rot: anim
    38 3.859674 -0.132570 1.193106 0.630261 0.016742 -0.184511   # pos: pos   rot: anim
    39 1.312563 0.000000 -0.000003 0.010750 -0.071444 -0.299029   # pos: pos   rot: anim
    40 0.729364 0.000000 -0.000002 0.010750 -0.071438 -0.299007   # pos: pos   rot: anim
    41 3.942293 0.050328 0.431043 0.097557 0.063419 -0.321392   # pos: pos   rot: anim
    42 1.539101 -0.000001 -0.000001 0.003679 -0.023915 -0.306246   # pos: pos   rot: anim
    43 1.196322 -0.000001 0.000000 0.003691 -0.023925 -0.306466   # pos: pos   rot: anim
    44 3.883657 -0.050327 -0.431045 -0.145121 -0.030874 -0.322134   # pos: pos   rot: anim
    45 1.719577 0.000000 -0.000002 -0.003428 0.022227 -0.306429   # pos: pos   rot: anim
    46 1.209185 0.000001 0.000002 -0.003428 0.022229 -0.306367   # pos: pos   rot: anim
    47 3.859829 -0.148935 -1.331282 -0.606299 -0.046512 -0.315599   # pos: pos   rot: anim
    48 1.719424 -0.000002 -0.000002 -0.012656 0.085117 -0.295505   # pos: pos   rot: anim
    49 1.099666 0.000001 -0.000001 -0.012656 0.085110 -0.295484   # pos: pos   rot: anim
    50 0.806018 -0.359834 -1.318334 1.401911 0.278805 -0.429216   # pos: pos   rot: anim
    51 1.789781 0.000001 0.000000 0.000216 0.001729 0.260038   # pos: pos   rot: anim
    52 1.206999 0.000000 0.000000 0.000300 0.002007 0.303704   # pos: pos   rot: anim
    53 3.202717 -1.851488 0.187593 0.000000 0.000000 0.000000   # pos: pos   rot: rot
  time 1
    0 32.178321 -5.347814 28.886935 1.732263 0.168125 -3.750818   # pos: anim   rot: anim
    1 3.890453 -0.000005 -0.000002 -2.374324 -0.911809 -0.615734   # pos: pos   rot: anim
    2 17.848175 -0.000001 0.000000 0.000000 0.000000 1.487733   # pos: pos   rot: anim
    3 16.525255 0.000000 0.000000 -0.064770 0.180615 -1.513012   # pos: pos   rot: anim
    4 6.879455 0.000000 0.000000 -0.007299 -0.001093 -0.584373   # pos: pos   rot: anim
    5 -3.890452 0.000006 0.000007 -1.568600 -0.535438 -1.810022   # pos: pos   rot: anim
    6 17.848175 0.000000 -0.000003 0.000000 0.000000 1.109106   # pos: pos   rot: anim
    7 16.525255 0.000000 0.000001 0.741816 0.270475 -1.482599   # pos: pos   rot: anim
    8 6.879455 0.000001 0.000001 -0.081333 -0.002951 -0.584373   # pos: pos   rot: rot
    9 -0.195313 3.341221 -2.981901 1.570796 0.005662 1.630158   # pos: anim   rot: anim
    10 4.018333 -0.000001 0.000000 -0.233616 0.009480 0.167365   # pos: pos   rot: anim
    11 3.518568 0.000000 0.000001 -0.290634 -0.187259 0.399700   # pos: pos   rot: anim
    12 8.942642 -0.000003 0.000000 0.116598 -0.013207 0.269851   # pos: pos   rot: anim
    13 3.307274 0.000000 0.000001 3.141590 0.000000 0.404959   # pos: pos   rot: anim
    14 3.593711 0.000000 0.000000 1.111187 -0.116035 0.664888   # pos: pos   rot: anim
    15 2.033350 1.000766 1.937662 4.576751 -1.483848 -0.038366   # pos: pos   rot: anim
    16 6.028144 0.000001 -0.000001 -3.023280 -0.652189 0.091139   # pos: pos   rot: anim
    17 11.692554 0.000000 0.000002 0.000000 0.000000 -1.136919   # pos: pos   rot: anim
    18 11.481671 0.000000 -0.000032 0.844005 0.089856 0.071369   # pos: pos   rot: anim
    19 3.859702 -0.142406 -1.191973 -0.630885 -0.018267 -0.184354   # pos: pos   rot: anim
    20 1.312561 0.000001 0.000000 -0.010435 0.069216 -0.299521   # pos: pos   rot: anim
    21 0.729362 0.000000 -0.000002 -0.010427 0.069220 -0.299497   # pos: pos   rot: anim
    22 3.942326 0.046770 -0.431442 -0.097248 -0.066041 -0.320850   # pos: pos   rot: anim
    23 1.539095 0.000002 -0.000001 -0.003296 0.021430 -0.306416   # pos: pos   rot: anim
    24 1.196322 -0.000003 -0.000003 -0.003308 0.021443 -0.306671   # pos: pos   rot: anim
    25 3.883687 -0.046772 0.431444 0.145549 0.028242 -0.322375   # pos: pos   rot: anim
    26 1.719577 0.000003 -0.000002 0.003811 -0.024733 -0.306217   # pos: pos   rot: anim
    27 1.209182 0.000000 -0.000001 0.003811 -0.024732 -0.306182   # pos: pos   rot: anim
    28 3.859861 -0.137947 1.332468 0.606557 0.043935 -0.315964   # pos: pos   rot: anim
    29 1.719430 -0.000001 0.000001 0.012979 -0.087488 -0.294848   # pos: pos   rot: anim
    30 1.099664 -0.000002 0.000000 0.012979 -0.087480 -0.294836   # pos: pos   rot: anim
    31 0.806047 -0.348922 1.321261 -1.404045 -0.282255 -0.427077   # pos: pos   rot: anim
    32 1.789785 -0.000001 -0.000001 -0.000024 -0.000259 0.260046   # pos: pos   rot: anim
    33 1.206996 0.000001 0.000001 -0.000048 -0.000310 0.303713   # pos: pos   rot: anim
    34 2.033355 1.000770 -1.937608 -2.470366 1.108389 2.091819   # pos: pos   rot: anim
    35 6.028142 0.000002 0.000002 0.090334 1.416504 -1.870530   # pos: pos   rot: anim
    36 11.692554 -0.000001 0.000000 0.000000 0.000000 -1.426905   # pos: pos   rot: anim
    37 11.481698 0.000000 0.000002 -0.952610 0.225744 0.377357   # pos: pos   rot: anim
    38 3.859674 -0.132570 1.193106 0.630261 0.016742 -0.184511   # pos: pos   rot: anim
    39 1.312563 0.000000 -0.000003 0.010750 -0.071444 -0.299029   # pos: pos   rot: anim
    40 0.729364 0.000000 -0.000002 0.010750 -0.071438 -0.299007   # pos: pos   rot: anim
    41 3.942293 0.050328 0.431043 0.097557 0.063419 -0.321392   # pos: pos   rot: anim
    42 1.539101 -0.000001 -0.000001 0.003679 -0.023915 -0.306246   # pos: pos   rot: anim
    43 1.196322 -0.000001 0.000000 0.003691 -0.023925 -0.306466   # pos: pos   rot: anim
    44 3.883657 -0.050327 -0.431045 -0.145121 -0.030874 -0.322134   # pos: pos   rot: anim
    45 1.719577 0.000000 -0.000002 -0.003428 0.022227 -0.306429   # pos: pos   rot: anim
    46 1.209185 0.000001 0.000002 -0.003428 0.022229 -0.306367   # pos: pos   rot: anim
    47 3.859829 -0.148935 -1.331282 -0.601086 -0.045217 -0.313778   # pos: pos   rot: anim
    48 1.719424 -0.000002 -0.000002 -0.012656 0.085117 -0.295505   # pos: pos   rot: anim
    49 1.099666 0.000001 -0.000001 -0.012656 0.085110 -0.295484   # pos: pos   rot: anim
    50 0.806018 -0.359834 -1.318334 1.401911 0.278805 -0.429216   # pos: pos   rot: anim
    51 1.789781 0.000001 0.000000 0.000216 0.001729 0.260038   # pos: pos   rot: anim
    52 1.206999 0.000000 0.000000 0.000300 0.002007 0.303704   # pos: pos   rot: anim
    53 3.202717 -1.851488 0.187593 0.000000 0.000000 0.000000   # pos: pos   rot: rot
  time 2
    0 30.908751 -4.906395 28.691616 1.735207 0.155503 -3.832443   # pos: anim   rot: anim
    1 3.890453 -0.000005 -0.000002 -2.408351 -0.909411 -0.637020   # pos: pos   rot: anim
    2 17.848175 -0.000001 0.000000 0.000000 0.000000 1.523166   # pos: pos   rot: anim
    3 16.525255 0.000000 0.000000 -0.068426 0.113567 -1.546163   # pos: pos   rot: anim
    4 6.879455 0.000000 0.000000 -0.007299 -0.001165 -0.584373   # pos: pos   rot: anim
    5 -3.890452 0.000006 0.000007 -1.719117 -0.579450 -1.802331   # pos: pos   rot: anim
    6 17.848175 0.000000 -0.000003 0.000000 0.000000 1.083994   # pos: pos   rot: anim
    7 16.525255 0.000000 0.000001 0.815979 0.286083 -1.427680   # pos: pos   rot: anim
    8 6.879455 0.000001 0.000001 -0.081333 -0.002951 -0.584373   # pos: pos   rot: rot
    9 -0.203126 3.341221 -2.981901 1.570796 -0.002105 1.631600   # pos: anim   rot: anim
    10 4.018333 -0.000001 0.000000 -0.226629 0.003619 0.168162   # pos: pos   rot: anim
    11 3.518568 0.000000 0.000001 -0.268380 -0.183604 0.401229   # pos: pos   rot: anim
    12 8.942642 -0.000003 0.000000 0.110210 -0.018061 0.267202   # pos: pos   rot: anim
    13 3.307274 0.000000 0.000001 3.141590 0.000000 0.417639   # pos: pos   rot: anim
    14 3.593711 0.000000 0.000000 1.104406 -0.107220 0.709097   # pos: pos   rot: anim
    15 2.033350 1.000766 1.937662 4.410599 -1.488678 0.128344   # pos: pos   rot: anim
    16 6.028144 0.000001 -0.000001 -2.988393 -0.665147 0.081701   # pos: pos   rot: anim
    17 11.692554 0.000000 0.000002 0.000000 0.000000 -1.192251   # pos: pos   rot: anim
    18 11.481671 0.000000 -0.000032 0.839112 0.074694 0.089229   # pos: pos   rot: anim
    19 3.859702 -0.142406 -1.191973 -0.630885 -0.018267 -0.184354   # pos: pos   rot: anim
    20 1.312561 0.000001 0.000000 -0.010435 0.069216 -0.299521   # pos: pos   rot: anim
    21 0.729362 0.000000 -0.000002 -0.010427 0.069220 -0.299497   # pos: pos   rot: anim
    22 3.942326 0.046770 -0.431442 -0.097248 -0.066041 -0.320850   # pos: pos   rot: anim
    23 1.539095 0.000002 -0.000001 -0.003296 0.021430 -0.306416   # pos: pos   rot: anim
    24 1.196322 -0.000003 -0.000003 -0.003308 0.021443 -0.306671   # pos: pos   rot: anim
    25 3.883687 -0.046772 0.431444 0.145549 0.028242 -0.322375   # pos: pos   rot: anim
    26 1.719577 0.000003 -0.000002 0.003811 -0.024733 -0.306217   # pos: pos   rot: anim
    27 1.209182 0.000000 -0.000001 0.003811 -0.024732 -0.306182   # pos: pos   rot: anim
    28 3.859861 -0.137947 1.332468 0.606557 0.043935 -0.315964   # pos: pos   rot: anim
    29 1.719430 -0.000001 0.000001 0.012979 -0.087488 -0.294848   # pos: pos   rot: anim
    30 1.099664 -0.000002 0.000000 0.012979 -0.087480 -0.294836   # pos: pos   rot: anim
    31 0.806047 -0.348922 1.321261 -1.404045 -0.282255 -0.427077   # pos: pos   rot: anim
    32 1.789785 -0.000001 -0.000001 -0.000024 -0.000259 0.260046   # pos: pos   rot: anim
    33 1.206996 0.000001 0.000001 -0.000048 -0.000310 0.303713   # pos: pos   rot: anim
    34 2.033355 1.000770 -1.937608 -2.443537 1.132610 2.123424   # pos: pos   rot: anim
    35 6.028142 0.000002 0.000002 0.314086 1.365714 -1.700714   # pos: pos   rot: anim
    36 11.692554 -0.000001 0.000000 0.000000 0.000000 -1.489539   # pos: pos   rot: anim
    37 11.481698 0.000000 0.000002 -1.009885 0.206200 0.365739   # pos: pos   rot: anim
    38 3.859674 -0.132570 1.193106 0.630261 0.016742 -0.184511   # pos: pos   rot: anim
    39 1.312563 0.000000 -0.000003 0.010750 -0.071444 -0.299029   # pos: pos   rot: anim
    40 0.729364 0.000000 -0.000002 0.010750 -0.071438 -0.299007   # pos: pos   rot: anim
    41 3.942293 0.050328 0.431043 0.097557 0.063419 -0.321392   # pos: pos   rot: anim
    42 1.539101 -0.000001 -0.000001 0.003679 -0.023915 -0.306246   # pos: pos   rot: anim
    43 1.196322 -0.000001 0.000000 0.003691 -0.023925 -0.306466   # pos: pos   rot: anim
    44 3.883657 -0.050327 -0.431045 -0.145121 -0.030874 -0.322134   # pos: pos   rot: anim
    45 1.719577 0.000000 -0.000002 -0.003428 0.022227 -0.306429   # pos: pos   rot: anim
    46 1.209185 0.000001 0.000002 -0.003428 0.022229 -0.306367   # pos: pos   rot: anim
    47 3.859829 -0.148935 -1.331282 -0.586393 -0.041562 -0.308600   # pos: pos   rot: anim
    48 1.719424 -0.000002 -0.000002 -0.012656 0.085117 -0.295505   # pos: pos   rot: anim
    49 1.099666 0.000001 -0.000001 -0.012656 0.085110 -0.295484   # pos: pos   rot: anim
    50 0.806018 -0.359834 -1.318334 1.401911 0.278805 -0.429216   # pos: pos   rot: anim
    51 1.789781 0.000001 0.000000 0.000216 0.001729 0.260038   # pos: pos   rot: anim
    52 1.206999 0.000000 0.000000 0.000300 0.002007 0.303704   # pos: pos   rot: anim
    53 3.202717 -1.851488 0.187593 0.000000 0.000000 0.000000   # pos: pos   rot: rot
  time 3
    0 28.947753 -4.222780 28.390826 1.743275 0.136738 -3.958254   # pos: anim   rot: anim
    1 3.890453 -0.000005 -0.000002 -2.466054 -0.915039 -0.665560   # pos: pos   rot: anim
    2 17.848175 -0.000001 0.000000 0.000000 0.000000 1.566247   # pos: pos   rot: anim
    3 16.525255 0.000000 0.000000 -0.074193 0.005272 -1.585935   # pos: pos   rot: anim
    4 6.879455 0.000000 0.000000 -0.007299 -0.001261 -0.584373   # pos: pos   rot: anim
    5 -3.890452 0.000006 0.000007 -1.804258 -0.653077 -1.856946   # pos: pos   rot: anim
    6 17.848175 0.000000 -0.000003 0.000000 0.000000 1.024263   # pos: pos   rot: anim
    7 16.525255 0.000000 0.000001 0.847453 0.214925 -1.357246   # pos: pos   rot: anim
    8 6.879455 0.000001 0.000001 -0.081333 -0.002951 -0.584373   # pos: pos   rot: rot
    9 -0.207033 3.341221 -2.981901 1.570796 -0.014119 1.633738   # pos: anim   rot: anim
    10 4.018333 -0.000001 0.000000 -0.215830 -0.005417 0.169423   # pos: pos   rot: anim
    11 3.518568 0.000000 0.000001 -0.233963 -0.177959 0.403517   # pos: pos   rot: anim
    12 8.942642 -0.000003 0.000000 0.100323 -0.025551 0.263115   # pos: pos   rot: anim
    13 3.307274 0.000000 0.000001 3.141590 0.000000 0.437225   # pos: pos   rot: anim
    14 3.593711 0.000000 0.000000 1.102656 -0.090923 0.768428   # pos: pos   rot: anim
    15 2.033350 1.000766 1.937662 4.127805 -1.491112 0.411750   # pos: pos   rot: anim
    16 6.028144 0.000001 -0.000001 -2.936874 -0.687297 0.068620   # pos: pos   rot: anim
    17 11.692554 0.000000 0.000002 0.000000 0.000000 -1.270233   # pos: pos   rot: anim
    18 11.481671 0.000000 -0.000032 0.837455 0.053810 0.114196   # pos: pos   rot: anim
    19 3.859702 -0.142406 -1.191973 -0.630885 -0.018267 -0.184354   # pos: pos   rot: anim
    20 1.312561 0.000001 0.000000 -0.010435 0.069216 -0.299521   # pos: pos   rot: anim
    21 0.729362 0.000000 -0.000002 -0.010427 0.069220 -0.299497   # pos: pos   rot: anim
    22 3.942326 0.046770 -0.431442 -0.097248 -0.066041 -0.320850   # pos: pos   rot: anim
    23 1.539095 0.000002 -0.000001 -0.003296 0.021430 -0.306416   # pos: pos   rot: anim
    24 1.196322 -0.000003 -0.000003 -0.003308 0.021443 -0.306671   # pos: pos   rot: anim
    25 3.883687 -0.046772 0.431444 0.145549 0.028242 -0.322375   # pos: pos   rot: anim
    26 1.719577 0.000003 -0.000002 0.003811 -0.024733 -0.306217   # pos: pos   rot: anim
    27 1.209182 0.000000 -0.000001 0.003811 -0.024732 -0.306182   # pos: pos   rot: anim
    28 3.859861 -0.137947 1.332468 0.606557 0.043935 -0.315964   # pos: pos   rot: anim
    29 1.719430 -0.000001 0.000001 0.012979 -0.087488 -0.294848   # pos: pos   rot: anim
    30 1.099664 -0.000002 0.000000 0.012979 -0.087480 -0.294836   # pos: pos   rot: anim
    31 0.806047 -0.348922 1.321261 -1.404045 -0.282255 -0.427077   # pos: pos   rot: anim
    32 1.789785 -0.000001 -0.000001 -0.000024 -0.000259 0.260046   # pos: pos   rot: anim
    33 1.206996 0.000001 0.000001 -0.000036 -0.000310 0.303713   # pos: pos   rot: anim
    34 2.033355 1.000770 -1.937608 -2.395131 1.169292 2.178781   # pos: pos   rot: anim
    35 6.028142 0.000002 0.000002 0.515393 1.285709 -1.568925   # pos: pos   rot: anim
    36 11.692554 -0.000001 0.000000 0.000000 0.000000 -1.579544   # pos: pos   rot: anim
    37 11.481698 0.000000 0.000002 -1.079399 0.175272 0.346836   # pos: pos   rot: anim
    38 3.859674 -0.132570 1.193106 0.630261 0.016742 -0.184511   # pos: pos   rot: anim
    39 1.312563 0.000000 -0.000003 0.010750 -0.071444 -0.299029   # pos: pos   rot: anim
    40 0.729364 0.000000 -0.000002 0.010750 -0.071438 -0.299007   # pos: pos   rot: anim
    41 3.942293 0.050328 0.431043 0.097557 0.063419 -0.321392   # pos: pos   rot: anim
    42 1.539101 -0.000001 -0.000001 0.003679 -0.023915 -0.306246   # pos: pos   rot: anim
    43 1.196322 -0.000001 0.000000 0.003691 -0.023925 -0.306466   # pos: pos   rot: anim
    44 3.883657 -0.050327 -0.431045 -0.145121 -0.030874 -0.322134   # pos: pos   rot: anim
    45 1.719577 0.000000 -0.000002 -0.003428 0.022227 -0.306429   # pos: pos   rot: anim
    46 1.209185 0.000001 0.000002 -0.003428 0.022229 -0.306367   # pos: pos   rot: anim
    47 3.859829 -0.148935 -1.331282 -0.563670 -0.035917 -0.300638   # pos: pos   rot: anim
    48 1.719424 -0.000002 -0.000002 -0.012656 0.085117 -0.295505   # pos: pos   rot: anim
    49 1.099666 0.000001 -0.000001 -0.012656 0.085110 -0.295484   # pos: pos   rot: anim
    50 0.806018 -0.359834 -1.318334 1.401911 0.278805 -0.429216   # pos: pos   rot: anim
    51 1.789781 0.000001 0.000000 0.000216 0.001729 0.260038   # pos: pos   rot: anim
    52 1.206999 0.000000 0.000000 0.000300 0.002007 0.303704   # pos: pos   rot: anim
    53 3.202717 -1.851488 0.187593 0.000000 0.000000 0.000000   # pos: pos   rot: rot
  time 4
    0 26.420333 -3.343847 28.000189 1.759174 0.114810 -4.119888   # pos: anim   rot: anim
    1 3.890453 -0.000005 -0.000002 -2.556155 -0.937698 -0.684268   # pos: pos   rot: anim
    2 17.848175 -0.000001 0.000000 0.000000 0.000000 1.602892   # pos: pos   rot: anim
    3 16.525255 0.000000 0.000000 -0.081922 -0.139233 -1.616155   # pos: pos   rot: anim
    4 6.879455 0.000000 0.000000 -0.007299 -0.001405 -0.584373   # pos: pos   rot: anim
    5 -3.890452 0.000006 0.000007 -1.749186 -0.839011 -1.915369   # pos: pos   rot: anim
    6 17.848175 0.000000 -0.000003 0.000000 0.000000 1.166236   # pos: pos   rot: anim
    7 16.525255 0.000000 0.000001 0.855179 0.030598 -1.297550   # pos: pos   rot: anim
    8 6.879455 0.000001 0.000001 -0.081333 -0.002951 -0.584373   # pos: pos   rot: rot
    9 -0.218752 3.341221 -2.981901 1.570796 -0.029585 1.636572   # pos: anim   rot: anim
    10 4.018333 -0.000001 0.000000 -0.201904 -0.017078 0.171051   # pos: pos   rot: anim
    11 3.518568 0.000000 0.000001 -0.189587 -0.170709 0.406357   # pos: pos   rot: anim
    12 8.942642 -0.000003 0.000000 0.087583 -0.035211 0.257842   # pos: pos   rot: anim
    13 3.307274 0.000000 0.000001 3.141590 0.000000 0.462452   # pos: pos   rot: anim
    14 3.593711 0.000000 0.000000 1.113899 -0.065847 0.831040   # pos: pos   rot: anim
    15 2.033350 1.000766 1.937662 3.777017 -1.484791 0.762991   # pos: pos   rot: anim
    16 6.028144 0.000001 -0.000001 -2.871210 -0.718883 0.052455   # pos: pos   rot: anim
    17 11.692554 0.000000 0.000002 0.000000 0.000000 -1.359540   # pos: pos   rot: anim
    18 11.481671 0.000000 -0.000032 0.843531 0.030473 0.142108   # pos: pos   rot: anim
    19 3.859702 -0.142406 -1.191973 -0.630885 -0.018267 -0.184354   # pos: pos   rot: anim
    20 1.312561 0.000001 0.000000 -0.010435 0.069216 -0.299521   # pos: pos   rot: anim
    21 0.729362 0.000000 -0.000002 -0.010427 0.069220 -0.299497   # pos: pos   rot: anim
    22 3.942326 0.046770 -0.431442 -0.097248 -0.066041 -0.320850   # pos: pos   rot: anim
    23 1.539095 0.000002 -0.000001 -0.003296 0.021430 -0.306416   # pos: pos   rot: anim
    24 1.196322 -0.000003 -0.000003 -0.003308 0.021443 -0.306671   # pos: pos   rot: anim
    25 3.883687 -0.046772 0.431444 0.145549 0.028242 -0.322375   # pos: pos   rot: anim
    26 1.719577 0.000003 -0.000002 0.003811 -0.024733 -0.306217   # pos: pos   rot: anim
    27 1.209182 0.000000 -0.000001 0.003811 -0.024732 -0.306182   # pos: pos   rot: anim
    28 3.859861 -0.137947 1.332468 0.606557 0.043935 -0.315964   # pos: pos   rot: anim
    29 1.719430 -0.000001 0.000001 0.012979 -0.087488 -0.294848   # pos: pos   rot: anim
    30 1.099664 -0.000002 0.000000 0.012979 -0.087480 -0.294836   # pos: pos   rot: anim
    31 0.806047 -0.348922 1.321261 -1.404045 -0.282255 -0.427077   # pos: pos   rot: anim
    32 1.789785 -0.000001 -0.000001 -0.000024 -0.000259 0.260046   # pos: pos   rot: anim
    33 1.206996 0.000001 0.000001 -0.000048 -0.000310 0.303713   # pos: pos   rot: anim
    34 2.033355 1.000770 -1.937608 -2.317224 1.214722 2.265168   # pos: pos   rot: anim
    35 6.028142 0.000002 0.000002 0.681477 1.194105 -1.461276   # pos: pos   rot: anim
    36 11.692554 -0.000001 0.000000 0.000000 0.000000 -1.683834   # pos: pos   rot: anim
    37 11.481698 0.000000 0.000002 -1.128359 0.143522 0.319957   # pos: pos   rot: anim
    38 3.859674 -0.132570 1.193106 0.630261 0.016742 -0.184511   # pos: pos   rot: anim
    39 1.312563 0.000000 -0.000003 0.010750 -0.071444 -0.299029   # pos: pos   rot: anim
    40 0.729364 0.000000 -0.000002 0.010750 -0.071438 -0.299007   # pos: pos   rot: anim
    41 3.942293 0.050328 0.431043 0.097557 0.063419 -0.321392   # pos: pos   rot: anim
    42 1.539101 -0.000001 -0.000001 0.003679 -0.023915 -0.306246   # pos: pos   rot: anim
    43 1.196322 -0.000001 0.000000 0.003691 -0.023925 -0.306466   # pos: pos   rot: anim
    44 3.883657 -0.050327 -0.431045 -0.145121 -0.030874 -0.322134   # pos: pos   rot: anim
    45 1.719577 0.000000 -0.000002 -0.003428 0.022227 -0.306429   # pos: pos   rot: anim
    46 1.209185 0.000001 0.000002 -0.003428 0.022229 -0.306367   # pos: pos   rot: anim
    47 3.859829 -0.148935 -1.331282 -0.534356 -0.028655 -0.290335   # pos: pos   rot: anim
    48 1.719424 -0.000002 -0.000002 -0.012656 0.085117 -0.295505   # pos: pos   rot: anim
    49 1.099666 0.000001 -0.000001 -0.012656 0.085110 -0.295484   # pos: pos   rot: anim
    50 0.806018 -0.359834 -1.318334 1.401911 0.278805 -0.429216   # pos: pos   rot: anim
    51 1.789781 0.000001 0.000000 0.000216 0.001729 0.260038   # pos: pos   rot: anim
    52 1.206999 0.000000 0.000000 0.000300 0.002007 0.303704   # pos: pos   rot: anim
    53 3.202717 -1.851488 0.187593 0.000000 0.000000 0.000000   # pos: pos   rot: rot
  time 5
    0 23.451492 -2.308659 27.547050 1.784672 0.093795 -4.309365   # pos: anim   rot: anim
    1 3.890453 -0.000005 -0.000002 -2.743354 -0.952821 -0.639597   # pos: pos   rot: anim
    2 17.848175 -0.000001 0.000000 0.000000 0.000000 1.621895   # pos: pos   rot: anim
    3 16.525255 0.000000 0.000000 -0.062218 -0.280965 -1.629775   # pos: pos   rot: anim
    4 6.879455 0.000000 0.000000 -0.007299 -0.001561 -0.584373   # pos: pos   rot: anim
    5 -3.890452 0.000006 0.000007 -1.797247 -1.076157 -1.823152   # pos: pos   rot: anim
    6 17.848175 0.000000 -0.000003 0.000000 0.000000 1.526168   # pos: pos   rot: anim
    7 16.525255 0.000000 0.000001 0.803045 -0.056764 -1.146749   # pos: pos   rot: anim
    8 6.879455 0.000001 0.000001 -0.081333 -0.002951 -0.584373   # pos: pos   rot: rot
    9 -0.230471 3.337315 -2.981901 1.570796 -0.047742 1.639853   # pos: anim   rot: anim
    10 4.018333 -0.000001 0.000000 -0.185557 -0.030764 0.172943   # pos: pos   rot: anim
    11 3.518568 0.000000 0.000001 -0.137426 -0.162235 0.409533   # pos: pos   rot: anim
    12 8.942642 -0.000003 0.000000 0.072603 -0.046548 0.251646   # pos: pos   rot: anim
    13 3.307274 0.000000 0.000001 3.141590 0.000000 0.492082   # pos: pos   rot: anim
    14 3.593711 0.000000 0.000000 1.148985 -0.035741 0.904882   # pos: pos   rot: anim
    15 2.033350 1.000766 1.937662 3.463099 -1.466573 1.076865   # pos: pos   rot: anim
    16 6.028144 0.000001 -0.000001 -2.790156 -0.758635 0.031525   # pos: pos   rot: anim
    17 11.692554 0.000000 0.000002 0.000000 0.000000 -1.450671   # pos: pos   rot: anim
    18 11.481671 0.000000 -0.000032 0.858920 0.006579 0.169284   # pos: pos   rot: anim
    19 3.859702 -0.142406 -1.191973 -0.630885 -0.018267 -0.184354   # pos: pos   rot: anim
    20 1.312561 0.000001 0.000000 -0.010435 0.069216 -0.299521   # pos: pos   rot: anim
    21 0.729362 0.000000 -0.000002 -0.010427 0.069220 -0.299497   # pos: pos   rot: anim
    22 3.942326 0.046770 -0.431442 -0.097248 -0.066041 -0.320850   # pos: pos   rot: anim
    23 1.539095 0.000002 -0.000001 -0.003296 0.021430 -0.306416   # pos: pos   rot: anim
    24 1.196322 -0.000003 -0.000003 -0.003308 0.021443 -0.306671   # pos: pos   rot: anim
    25 3.883687 -0.046772 0.431444 0.145549 0.028242 -0.322375   # pos: pos   rot: anim
    26 1.719577 0.000003 -0.000002 0.003811 -0.024733 -0.306217   # pos: pos   rot: anim
    27 1.209182 0.000000 -0.000001 0.003811 -0.024732 -0.306182   # pos: pos   rot: anim
    28 3.859861 -0.137947 1.332468 0.606557 0.043935 -0.315964   # pos: pos   rot: anim
    29 1.719430 -0.000001 0.000001 0.012979 -0.087488 -0.294848   # pos: pos   rot: anim
    30 1.099664 -0.000002 0.000000 0.012979 -0.087480 -0.294836   # pos: pos   rot: anim
    31 0.806047 -0.348922 1.321261 -1.404045 -0.282255 -0.427077   # pos: pos   rot: anim
    32 1.789785 -0.000001 -0.000001 -0.000024 -0.000259 0.260046   # pos: pos   rot: anim
    33 1.206996 0.000001 0.000001 -0.000048 -0.000310 0.303713   # pos: pos   rot: anim
    34 2.033355 1.000770 -1.937608 -2.195685 1.264236 2.395994   # pos: pos   rot: anim
    35 6.028142 0.000002 0.000002 0.830616 1.105412 -1.334706   # pos: pos   rot: anim
    36 11.692554 -0.000001 0.000000 0.000000 0.000000 -1.790231   # pos: pos   rot: anim
    37 11.481698 0.000000 0.000002 -1.131286 0.130032 0.279620   # pos: pos   rot: anim
    38 3.859674 -0.132570 1.193106 0.630261 0.016742 -0.184511   # pos: pos   rot: anim
    39 1.312563 0.000000 -0.000003 0.010750 -0.071444 -0.299029   # pos: pos   rot: anim
    40 0.729364 0.000000 -0.000002 0.010750 -0.071438 -0.299007   # pos: pos   rot: anim
    41 3.942293 0.050328 0.431043 0.097557 0.063419 -0.321392   # pos: pos   rot: anim
    42 1.539101 -0.000001 -0.000001 0.003679 -0.023915 -0.306246   # pos: pos   rot: anim
    43 1.196322 -0.000001 0.000000 0.003691 -0.023925 -0.306466   # pos: pos   rot: anim
    44 3.883657 -0.050327 -0.431045 -0.145121 -0.030874 -0.322134   # pos: pos   rot: anim
    45 1.719577 0.000000 -0.000002 -0.003428 0.022227 -0.306429   # pos: pos   rot: anim
    46 1.209185 0.000001 0.000002 -0.003428 0.022229 -0.306367   # pos: pos   rot: anim
    47 3.859829 -0.148935 -1.331282 -0.499888 -0.020146 -0.278236   # pos: pos   rot: anim
    48 1.719424 -0.000002 -0.000002 -0.012656 0.085117 -0.295505   # pos: pos   rot: anim
    49 1.099666 0.000001 -0.000001 -0.012656 0.085110 -0.295484   # pos: pos   rot: anim
    50 0.806018 -0.359834 -1.318334 1.401911 0.278805 -0.429216   # pos: pos   rot: anim
    51 1.789781 0.000001 0.000000 0.000216 0.001729 0.260038   # pos: pos   rot: anim
    52 1.206999 0.000000 0.000000 0.000300 0.002007 0.303704   # pos: pos   rot: anim
    53 3.202717 -1.851488 0.187593 0.000000 0.000000 0.000000   # pos: pos   rot: rot
  time 6
    0 20.170142 -1.167999 27.043128 1.819238 0.078345 -4.518796   # pos: anim   rot: anim
    1 3.890453 -0.000005 -0.000002 -3.038195 -0.925855 -0.522573   # pos: pos   rot: anim
    2 17.848175 -0.000001 0.000000 0.000000 0.000000 1.616444   # pos: pos   rot: anim
    3 16.525255 0.000000 0.000000 0.001849 -0.392327 -1.635402   # pos: pos   rot: anim
    4 6.879455 0.000000 0.000000 -0.007299 -0.001741 -0.584373   # pos: pos   rot: anim
    5 -3.890452 0.000006 0.000007 -2.069647 -1.212066 -1.513714   # pos: pos   rot: anim
    6 17.848175 0.000000 -0.000003 0.000000 0.000000 1.841890   # pos: pos   rot: anim
    7 16.525255 0.000000 0.000001 0.586960 0.082586 -0.957538   # pos: pos   rot: anim
    8 6.879455 0.000001 0.000001 -0.081333 -0.002951 -0.584373   # pos: pos   rot: rot
    9 -0.242190 3.337315 -2.981901 1.570796 -0.067845 1.643483   # pos: anim   rot: anim
    10 4.018333 -0.000001 0.000000 -0.167473 -0.045913 0.175052   # pos: pos   rot: anim
    11 3.518568 0.000000 0.000001 -0.079708 -0.152887 0.412840   # pos: pos   rot: anim
    12 8.942642 -0.000003 0.000000 0.056040 -0.059084 0.244803   # pos: pos   rot: anim
    13 3.307274 0.000000 0.000001 3.141590 0.000000 0.524875   # pos: pos   rot: anim
    14 3.593711 0.000000 0.000000 1.201438 -0.000445 0.992688   # pos: pos   rot: anim
    15 2.033350 1.000766 1.937662 3.239104 -1.438500 1.300199   # pos: pos   rot: anim
    16 6.028144 0.000001 -0.000001 -2.689700 -0.803179 0.002465   # pos: pos   rot: anim
    17 11.692554 0.000000 0.000002 0.000000 0.000000 -1.536558   # pos: pos   rot: anim
    18 11.481671 0.000000 -0.000032 0.882358 -0.017502 0.193110   # pos: pos   rot: anim
    19 3.859702 -0.142406 -1.191973 -0.630885 -0.018267 -0.184354   # pos: pos   rot: anim
    20 1.312561 0.000001 0.000000 -0.010435 0.069216 -0.299521   # pos: pos   rot: anim
    21 0.729362 0.000000 -0.000002 -0.010427 0.069220 -0.299497   # pos: pos   rot: anim
    22 3.942326 0.046770 -0.431442 -0.097248 -0.066041 -0.320850   # pos: pos   rot: anim
    23 1.539095 0.000002 -0.000001 -0.003296 0.021430 -0.306416   # pos: pos   rot: anim
    24 1.196322 -0.000003 -0.000003 -0.003308 0.021443 -0.306671   # pos: pos   rot: anim
    25 3.883687 -0.046772 0.431444 0.145549 0.028242 -0.322375   # pos: pos   rot: anim
    26 1.719577 0.000003 -0.000002 0.003811 -0.024733 -0.306217   # pos: pos   rot: anim
    27 1.209182 0.000000 -0.000001 0.003811 -0.024732 -0.306182   # pos: pos   rot: anim
    28 3.859861 -0.137947 1.332468 0.606557 0.043935 -0.315964   # pos: pos   rot: anim
    29 1.719430 -0.000001 0.000001 0.012979 -0.087488 -0.294848   # pos: pos   rot: anim
    30 1.099664 -0.000002 0.000000 0.012979 -0.087480 -0.294836   # pos: pos   rot: anim
    31 0.806047 -0.348922 1.321261 -1.404045 -0.282255 -0.427077   # pos: pos   rot: anim
    32 1.789785 -0.000001 -0.000001 -0.000024 -0.000259 0.260046   # pos: pos   rot: anim
    33 1.206996 0.000001 0.000001 -0.000048 -0.000310 0.303713   # pos: pos   rot: anim
    34 2.033355 1.000770 -1.937608 -2.008364 1.311316 2.592520   # pos: pos   rot: anim
    35 6.028142 0.000002 0.000002 0.962454 1.017579 -1.181760   # pos: pos   rot: anim
    36 11.692554 -0.000001 0.000000 0.000000 0.000000 -1.887228   # pos: pos   rot: anim
    37 11.481698 0.000000 0.000002 -1.091306 0.149609 0.217351   # pos: pos   rot: anim
    38 3.859674 -0.132570 1.193106 0.630261 0.016742 -0.184511   # pos: pos   rot: anim
    39 1.312563 0.000000 -0.000003 0.010750 -0.071444 -0.299029   # pos: pos   rot: anim
    40 0.729364 0.000000 -0.000002 0.010750 -0.071438 -0.299007   # pos: pos   rot: anim
    41 3.942293 0.050328 0.431043 0.097557 0.063419 -0.321392   # pos: pos   rot: anim
    42 1.539101 -0.000001 -0.000001 0.003679 -0.023915 -0.306246   # pos: pos   rot: anim
    43 1.196322 -0.000001 0.000000 0.003691 -0.023925 -0.306466   # pos: pos   rot: anim
    44 3.883657 -0.050327 -0.431045 -0.145121 -0.030874 -0.322134   # pos: pos   rot: anim
    45 1.719577 0.000000 -0.000002 -0.003428 0.022227 -0.306429   # pos: pos   rot: anim
    46 1.209185 0.000001 0.000002 -0.003428 0.022229 -0.306367   # pos: pos   rot: anim
    47 3.859829 -0.148935 -1.331282 -0.461717 -0.010738 -0.264810   # pos: pos   rot: anim
    48 1.719424 -0.000002 -0.000002 -0.012656 0.085117 -0.295505   # pos: pos   rot: anim
    49 1.099666 0.000001 -0.000001 -0.012656 0.085110 -0.295484   # pos: pos   rot: anim
    50 0.806018 -0.359834 -1.318334 1.401911 0.278805 -0.429216   # pos: pos   rot: anim
    51 1.789781 0.000001 0.000000 0.000216 0.001729 0.260038   # pos: pos   rot: anim
    52 1.206999 0.000000 0.000000 0.000300 0.002007 0.303704   # pos: pos   rot: anim
    53 3.202717 -1.851488 0.187593 0.000000 0.000000 0.000000   # pos: pos   rot: rot
  time 7
    0 16.701286 0.035162 26.507956 1.860047 0.072444 1.542734   # pos: anim   rot: anim
    1 3.890453 -0.000005 -0.000002 -3.313673 -0.889492 -0.382450   # pos: pos   rot: anim
    2 17.848175 -0.000001 0.000000 0.000000 0.000000 1.594033   # pos: pos   rot: anim
    3 16.525255 0.000000 0.000000 0.062996 -0.478924 -1.617857   # pos: pos   rot: anim
    4 6.879455 0.000000 0.000000 -0.007299 -0.001920 -0.584373   # pos: pos   rot: anim
    5 -3.890452 0.000006 0.000007 -2.463085 -1.230837 -1.126820   # pos: pos   rot: anim
    6 17.848175 0.000000 -0.000003 0.000000 0.000000 1.996704   # pos: pos   rot: anim
    7 16.525255 0.000000 0.000001 0.405290 0.328300 -0.860898   # pos: pos   rot: anim
    8 6.879455 0.000001 0.000001 -0.081333 -0.002951 -0.584373   # pos: pos   rot: rot
    9 -0.253909 3.337315 -2.981901 1.570796 -0.089081 1.647360   # pos: anim   rot: anim
    10 4.018333 -0.000001 0.000000 -0.148345 -0.061912 0.177293   # pos: pos   rot: anim
    11 3.518568 0.000000 0.000001 -0.018621 -0.143024 0.416088   # pos: pos   rot: anim
    12 8.942642 -0.000003 0.000000 0.038506 -0.072339 0.237564   # pos: pos   rot: anim
    13 3.307274 0.000000 0.000001 3.141590 0.000000 0.559539   # pos: pos   rot: anim
    14 3.593711 0.000000 0.000000 1.253366 0.047593 1.074670   # pos: pos   rot: anim
    15 2.033350 1.000766 1.937662 3.091243 -1.404263 1.446693   # pos: pos   rot: anim
    16 6.028144 0.000001 -0.000001 -2.567068 -0.847821 -0.037994   # pos: pos   rot: anim
    17 11.692554 0.000000 0.000002 0.000000 0.000000 -1.612107   # pos: pos   rot: anim
    18 11.481671 0.000000 -0.000032 0.911241 -0.042288 0.211927   # pos: pos   rot: anim
    19 3.859702 -0.142406 -1.191973 -0.630885 -0.018267 -0.184354   # pos: pos   rot: anim
    20 1.312561 0.000001 0.000000 -0.010435 0.069216 -0.299521   # pos: pos   rot: anim
    21 0.729362 0.000000 -0.000002 -0.010427 0.069220 -0.299497   # pos: pos   rot: anim
    22 3.942326 0.046770 -0.431442 -0.097248 -0.066041 -0.320850   # pos: pos   rot: anim
    23 1.539095 0.000002 -0.000001 -0.003296 0.021430 -0.306416   # pos: pos   rot: anim
    24 1.196322 -0.000003 -0.000003 -0.003308 0.021443 -0.306671   # pos: pos   rot: anim
    25 3.883687 -0.046772 0.431444 0.145549 0.028242 -0.322375   # pos: pos   rot: anim
    26 1.719577 0.000003 -0.000002 0.003811 -0.024733 -0.306217   # pos: pos   rot: anim
    27 1.209182 0.000000 -0.000001 0.003811 -0.024732 -0.306182   # pos: pos   rot: anim
    28 3.859861 -0.137947 1.332468 0.606557 0.043935 -0.315964   # pos: pos   rot: anim
    29 1.719430 -0.000001 0.000001 0.012979 -0.087488 -0.294848   # pos: pos   rot: anim
    30 1.099664 -0.000002 0.000000 0.012979 -0.087480 -0.294836   # pos: pos   rot: anim
    31 0.806047 -0.348922 1.321261 -1.404045 -0.282255 -0.427077   # pos: pos   rot: anim
    32 1.789785 -0.000001 -0.000001 -0.000024 -0.000259 0.260046   # pos: pos   rot: anim
    33 1.206996 0.000001 0.000001 -0.000048 -0.000310 0.303713   # pos: pos   rot: anim
    34 2.033355 1.000770 -1.937608 -1.733110 1.346719 2.876486   # pos: pos   rot: anim
    35 6.028142 0.000002 0.000002 1.056941 0.919721 -1.033381   # pos: pos   rot: anim
    36 11.692554 -0.000001 0.000000 0.000000 0.000000 -1.964600   # pos: pos   rot: anim
    37 11.481698 0.000000 0.000002 -1.037025 0.200311 0.127053   # pos: pos   rot: anim
    38 3.859674 -0.132570 1.193106 0.630261 0.016742 -0.184511   # pos: pos   rot: anim
    39 1.312563 0.000000 -0.000003 0.010750 -0.071444 -0.299029   # pos: pos   rot: anim
    40 0.729364 0.000000 -0.000002 0.010750 -0.071438 -0.299007   # pos: pos   rot: anim
    41 3.942293 0.050328 0.431043 0.097557 0.063419 -0.321392   # pos: pos   rot: anim
    42 1.539101 -0.000001 -0.000001 0.003679 -0.023915 -0.306246   # pos: pos   rot: anim
    43 1.196322 -0.000001 0.000000 0.003691 -0.023925 -0.306466   # pos: pos   rot: anim
    44 3.883657 -0.050327 -0.431045 -0.145121 -0.030874 -0.322134   # pos: pos   rot: anim
    45 1.719577 0.000000 -0.000002 -0.003428 0.022227 -0.306429   # pos: pos   rot: anim
    46 1.209185 0.000001 0.000002 -0.003428 0.022229 -0.306367   # pos: pos   rot: anim
    47 3.859829 -0.148935 -1.331282 -0.421281 -0.000826 -0.250603   # pos: pos   rot: anim
    48 1.719424 -0.000002 -0.000002 -0.012656 0.085117 -0.295505   # pos: pos   rot: anim
    49 1.099666 0.000001 -0.000001 -0.012656 0.085110 -0.295484   # pos: pos   rot: anim
    50 0.806018 -0.359834 -1.318334 1.401911 0.278805 -0.429216   # pos: pos   rot: anim
    51 1.789781 0.000001 0.000000 0.000216 0.001729 0.260038   # pos: pos   rot: anim
    52 1.206999 0.000000 0.000000 0.000300 0.002007 0.303704   # pos: pos   rot: anim
    53 3.202717 -1.851488 0.187593 0.000000 0.000000 0.000000   # pos: pos   rot: rot
  time 8
    0 13.166022 1.265669 25.964970 1.902209 0.078101 1.317434   # pos: anim   rot: anim
    1 3.890453 -0.000005 -0.000002 -3.504611 -0.878920 -0.202142   # pos: pos   rot: anim
    2 17.848175 -0.000001 0.000000 0.000000 0.000000 1.571092   # pos: pos   rot: anim
    3 16.525255 0.000000 0.000000 0.054924 -0.551109 -1.533253   # pos: pos   rot: anim
    4 6.879455 0.000000 0.000000 -0.007299 -0.002112 -0.584373   # pos: pos   rot: anim
    5 -3.890452 0.000006 0.000007 -2.753814 -1.189513 -0.866637   # pos: pos   rot: anim
    6 17.848175 0.000000 -0.000003 0.000000 0.000000 2.028398   # pos: pos   rot: anim
    7 16.525255 0.000000 0.000001 0.450944 0.509569 -0.776132   # pos: pos   rot: anim
    8 6.879455 0.000001 0.000001 -0.081333 -0.002951 -0.584373   # pos: pos   rot: rot
    9 -0.265628 3.337315 -2.981901 1.570796 -0.110724 1.651288   # pos: anim   rot: anim
    10 4.018333 -0.000001 0.000000 -0.128858 -0.078211 0.179568   # pos: pos   rot: anim
    11 3.518568 0.000000 0.000001 0.043594 -0.132981 0.419162   # pos: pos   rot: anim
    12 8.942642 -0.000003 0.000000 0.020649 -0.085822 0.230194   # pos: pos   rot: anim
    13 3.307274 0.000000 0.000001 3.141590 0.000000 0.594836   # pos: pos   rot: anim
    14 3.593711 0.000000 0.000000 1.286790 0.116851 1.130622   # pos: pos   rot: anim
    15 2.033350 1.000766 1.937662 2.993275 -1.367003 1.542503   # pos: pos   rot: anim
    16 6.028144 0.000001 -0.000001 -2.422644 -0.887720 -0.091722   # pos: pos   rot: anim
    17 11.692554 0.000000 0.000002 0.000000 0.000000 -1.674204   # pos: pos   rot: anim
    18 11.481671 0.000000 -0.000032 0.943122 -0.068040 0.224999   # pos: pos   rot: anim
    19 3.859702 -0.142406 -1.191973 -0.630885 -0.018267 -0.184354   # pos: pos   rot: anim
    20 1.312561 0.000001 0.000000 -0.010435 0.069216 -0.299521   # pos: pos   rot: anim
    21 0.729362 0.000000 -0.000002 -0.010427 0.069220 -0.299497   # pos: pos   rot: anim
    22 3.942326 0.046770 -0.431442 -0.097248 -0.066041 -0.320850   # pos: pos   rot: anim
    23 1.539095 0.000002 -0.000001 -0.003296 0.021430 -0.306416   # pos: pos   rot: anim
    24 1.196322 -0.000003 -0.000003 -0.003308 0.021443 -0.306671   # pos: pos   rot: anim
    25 3.883687 -0.046772 0.431444 0.145549 0.028242 -0.322375   # pos: pos   rot: anim
    26 1.719577 0.000003 -0.000002 0.003811 -0.024733 -0.306217   # pos: pos   rot: anim
    27 1.209182 0.000000 -0.000001 0.003811 -0.024732 -0.306182   # pos: pos   rot: anim
    28 3.859861 -0.137947 1.332468 0.606557 0.043935 -0.315964   # pos: pos   rot: anim
    29 1.719430 -0.000001 0.000001 0.012979 -0.087488 -0.294848   # pos: pos   rot: anim
    30 1.099664 -0.000002 0.000000 0.012979 -0.087480 -0.294836   # pos: pos   rot: anim
    31 0.806047 -0.348922 1.321261 -1.404045 -0.282255 -0.427077   # pos: pos   rot: anim
    32 1.789785 -0.000001 -0.000001 -0.000024 -0.000259 0.260046   # pos: pos   rot: anim
    33 1.206996 0.000001 0.000001 -0.000048 -0.000310 0.303713   # pos: pos   rot: anim
    34 2.033355 1.000770 -1.937608 -1.384245 1.359717 3.233241   # pos: pos   rot: anim
    35 6.028142 0.000002 0.000002 1.097309 0.807209 -0.930765   # pos: pos   rot: anim
    36 11.692554 -0.000001 0.000000 0.000000 0.000000 -2.014227   # pos: pos   rot: anim
    37 11.481698 0.000000 0.000002 -1.002833 0.258119 0.005620   # pos: pos   rot: anim
    38 3.859674 -0.132570 1.193106 0.630261 0.016742 -0.184511   # pos: pos   rot: anim
    39 1.312563 0.000000 -0.000003 0.010750 -0.071444 -0.299029   # pos: pos   rot: anim
    40 0.729364 0.000000 -0.000002 0.010750 -0.071438 -0.299007   # pos: pos   rot: anim
    41 3.942293 0.050328 0.431043 0.097557 0.063419 -0.321392   # pos: pos   rot: anim
    42 1.539101 -0.000001 -0.000001 0.003679 -0.023915 -0.306246   # pos: pos   rot: anim
    43 1.196322 -0.000001 0.000000 0.003691 -0.023925 -0.306466   # pos: pos   rot: anim
    44 3.883657 -0.050327 -0.431045 -0.145121 -0.030874 -0.322134   # pos: pos   rot: anim
    45 1.719577 0.000000 -0.000002 -0.003428 0.022227 -0.306429   # pos: pos   rot: anim
    46 1.209185 0.000001 0.000002 -0.003428 0.022229 -0.306367   # pos: pos   rot: anim
    47 3.859829 -0.148935 -1.331282 -0.380054 0.009253 -0.236111   # pos: pos   rot: anim
    48 1.719424 -0.000002 -0.000002 -0.012656 0.085117 -0.295505   # pos: pos   rot: anim
    49 1.099666 0.000001 -0.000001 -0.012656 0.085110 -0.295484   # pos: pos   rot: anim
    50 0.806018 -0.359834 -1.318334 1.401911 0.278805 -0.429216   # pos: pos   rot: anim
    51 1.789781 0.000001 0.000000 0.000216 0.001729 0.260038   # pos: pos   rot: anim
    52 1.206999 0.000000 0.000000 0.000300 0.002007 0.303704   # pos: pos   rot: anim
    53 3.202717 -1.851488 0.187593 0.000000 0.000000 0.000000   # pos: pos   rot: rot
  time 9
    0 9.697166 2.476643 25.433704 1.940485 0.094616 1.096315   # pos: anim   rot: anim
    1 3.890453 -0.000005 -0.000002 -3.624426 -0.846130 -0.009425   # pos: pos   rot: anim
    2 17.848175 -0.000001 0.000000 0.000000 0.000000 1.555420   # pos: pos   rot: anim
    3 16.525255 0.000000 0.000000 0.001358 -0.561694 -1.400174   # pos: pos   rot: anim
    4 6.879455 0.000000 0.000000 -0.007299 -0.002292 -0.584373   # pos: pos   rot: anim
    5 -3.890452 0.000006 0.000007 -2.689705 -1.185914 -0.913950   # pos: pos   rot: anim
    6 17.848175 0.000000 -0.000003 0.000000 0.000000 2.009544   # pos: pos   rot: anim
    7 16.525255 0.000000 0.000001 0.591870 0.605210 -0.770077   # pos: pos   rot: anim
    8 6.879455 0.000001 0.000001 -0.081333 -0.002951 -0.584373   # pos: pos   rot: rot
    9 -0.281254 3.333409 -2.981901 1.570796 -0.131960 1.655116   # pos: anim   rot: anim
    10 4.018333 -0.000001 0.000000 -0.109719 -0.094223 0.181809   # pos: pos   rot: anim
    11 3.518568 0.000000 0.000001 0.104747 -0.123118 0.421930   # pos: pos   rot: anim
    12 8.942642 -0.000003 0.000000 0.003104 -0.099065 0.222943   # pos: pos   rot: anim
    13 3.307274 0.000000 0.000001 3.141590 0.000000 0.629474   # pos: pos   rot: anim
    14 3.593711 0.000000 0.000000 1.303195 0.253376 1.127952   # pos: pos   rot: anim
    15 2.033350 1.000766 1.937662 2.926527 -1.329154 1.606408   # pos: pos   rot: anim
    16 6.028144 0.000001 -0.000001 -2.261493 -0.919698 -0.158437   # pos: pos   rot: anim
    17 11.692554 0.000000 0.000002 0.000000 0.000000 -1.721404   # pos: pos   rot: anim
    18 11.481671 0.000000 -0.000032 0.976346 -0.093978 0.232180   # pos: pos   rot: anim
    19 3.859702 -0.142406 -1.191973 -0.630885 -0.018267 -0.184354   # pos: pos   rot: anim
    20 1.312561 0.000001 0.000000 -0.010435 0.069216 -0.299521   # pos: pos   rot: anim
    21 0.729362 0.000000 -0.000002 -0.010427 0.069220 -0.299497   # pos: pos   rot: anim
    22 3.942326 0.046770 -0.431442 -0.097248 -0.066041 -0.320850   # pos: pos   rot: anim
    23 1.539095 0.000002 -0.000001 -0.003296 0.021430 -0.306416   # pos: pos   rot: anim
    24 1.196322 -0.000003 -0.000003 -0.003308 0.021443 -0.306671   # pos: pos   rot: anim
    25 3.883687 -0.046772 0.431444 0.145549 0.028242 -0.322375   # pos: pos   rot: anim
    26 1.719577 0.000003 -0.000002 0.003811 -0.024733 -0.306217   # pos: pos   rot: anim
    27 1.209182 0.000000 -0.000001 0.003811 -0.024732 -0.306182   # pos: pos   rot: anim
    28 3.859861 -0.137947 1.332468 0.606557 0.043935 -0.315964   # pos: pos   rot: anim
    29 1.719430 -0.000001 0.000001 0.012979 -0.087488 -0.294848   # pos: pos   rot: anim
    30 1.099664 -0.000002 0.000000 0.012979 -0.087480 -0.294836   # pos: pos   rot: anim
    31 0.806047 -0.348922 1.321261 -1.404045 -0.282255 -0.427077   # pos: pos   rot: anim
    32 1.789785 -0.000001 -0.000001 -0.000024 -0.000259 0.260046   # pos: pos   rot: anim
    33 1.206996 0.000001 0.000001 -0.000048 -0.000310 0.303713   # pos: pos   rot: anim
    34 2.033355 1.000770 -1.937608 -1.042255 1.345770 3.581854   # pos: pos   rot: anim
    35 6.028142 0.000002 0.000002 1.091010 0.673836 -0.918648   # pos: pos   rot: anim
    36 11.692554 -0.000001 0.000000 0.000000 0.000000 -2.032348   # pos: pos   rot: anim
    37 11.481698 0.000000 0.000002 -1.014142 0.263153 -0.146680   # pos: pos   rot: anim
    38 3.859674 -0.132570 1.193106 0.630261 0.016742 -0.184511   # pos: pos   rot: anim
    39 1.312563 0.000000 -0.000003 0.010750 -0.071444 -0.299029   # pos: pos   rot: anim
    40 0.729364 0.000000 -0.000002 0.010750 -0.071438 -0.299007   # pos: pos   rot: anim
    41 3.942293 0.050328 0.431043 0.097557 0.063419 -0.321392   # pos: pos   rot: anim
    42 1.539101 -0.000001 -0.000001 0.003679 -0.023915 -0.306246   # pos: pos   rot: anim
    43 1.196322 -0.000001 0.000000 0.003691 -0.023925 -0.306466   # pos: pos   rot: anim
    44 3.883657 -0.050327 -0.431045 -0.145121 -0.030874 -0.322134   # pos: pos   rot: anim
    45 1.719577 0.000000 -0.000002 -0.003428 0.022227 -0.306429   # pos: pos   rot: anim
    46 1.209185 0.000001 0.000002 -0.003428 0.022229 -0.306367   # pos: pos   rot: anim
    47 3.859829 -0.148935 -1.331282 -0.339510 0.019116 -0.221852   # pos: pos   rot: anim
    48 1.719424 -0.000002 -0.000002 -0.012656 0.085117 -0.295505   # pos: pos   rot: anim
    49 1.099666 0.000001 -0.000001 -0.012656 0.085110 -0.295484   # pos: pos   rot: anim
    50 0.806018 -0.359834 -1.318334 1.401911 0.278805 -0.429216   # pos: pos   rot: anim
    51 1.789781 0.000001 0.000000 0.000216 0.001729 0.260038   # pos: pos   rot: anim
    52 1.206999 0.000000 0.000000 0.000300 0.002007 0.303704   # pos: pos   rot: anim
    53 3.202717 -1.851488 0.187593 0.000000 0.000000 0.000000   # pos: pos   rot: rot
  time 10
    0 6.415816 3.617303 24.929783 1.970635 0.118825 0.887359   # pos: anim   rot: anim
    1 3.890453 -0.000005 -0.000002 -3.664300 -0.781234 0.139480   # pos: pos   rot: anim
    2 17.848175 -0.000001 0.000000 0.000000 0.000000 1.552391   # pos: pos   rot: anim
    3 16.525255 0.000000 0.000000 -0.048895 -0.484002 -1.278682   # pos: pos   rot: anim
    4 6.879455 0.000000 0.000000 -0.007299 -0.002472 -0.584373   # pos: pos   rot: anim
    5 -3.890452 0.000006 0.000007 -1.868367 -1.299543 -1.609583   # pos: pos   rot: anim
    6 17.848175 0.000000 -0.000003 0.000000 0.000000 1.937623   # pos: pos   rot: anim
    7 16.525255 0.000000 0.000001 0.464352 0.553744 -1.008719   # pos: pos   rot: anim
    8 6.879455 0.000001 0.000001 -0.081333 -0.002951 -0.584373   # pos: pos   rot: rot
    9 -0.292973 3.333409 -2.981901 1.570796 -0.152063 1.658746   # pos: anim   rot: anim
    10 4.018333 -0.000001 0.000000 -0.091622 -0.109359 0.183917   # pos: pos   rot: anim
    11 3.518568 0.000000 0.000001 0.162585 -0.113758 0.424319   # pos: pos   rot: anim
    12 8.942642 -0.000003 0.000000 -0.013495 -0.111589 0.216100   # pos: pos   rot: anim
    13 3.307274 0.000000 0.000001 3.141590 0.000000 0.662267   # pos: pos   rot: anim
    14 3.593711 0.000000 0.000000 1.294752 0.423792 1.088505   # pos: pos   rot: anim
    15 2.033350 1.000766 1.937662 2.879698 -1.292679 1.649715   # pos: pos   rot: anim
    16 6.028144 0.000001 -0.000001 -2.092887 -0.942190 -0.235524   # pos: pos   rot: anim
    17 11.692554 0.000000 0.000002 0.000000 0.000000 -1.753706   # pos: pos   rot: anim
    18 11.481671 0.000000 -0.000032 1.009964 -0.118170 0.233911   # pos: pos   rot: anim
    19 3.859702 -0.142406 -1.191973 -0.630885 -0.018267 -0.184354   # pos: pos   rot: anim
    20 1.312561 0.000001 0.000000 -0.010435 0.069216 -0.299521   # pos: pos   rot: anim
    21 0.729362 0.000000 -0.000002 -0.010427 0.069220 -0.299497   # pos: pos   rot: anim
    22 3.942326 0.046770 -0.431442 -0.097248 -0.066041 -0.320850   # pos: pos   rot: anim
    23 1.539095 0.000002 -0.000001 -0.003296 0.021430 -0.306416   # pos: pos   rot: anim
    24 1.196322 -0.000003 -0.000003 -0.003308 0.021443 -0.306671   # pos: pos   rot: anim
    25 3.883687 -0.046772 0.431444 0.145549 0.028242 -0.322375   # pos: pos   rot: anim
    26 1.719577 0.000003 -0.000002 0.003811 -0.024733 -0.306217   # pos: pos   rot: anim
    27 1.209182 0.000000 -0.000001 0.003811 -0.024732 -0.306182   # pos: pos   rot: anim
    28 3.859861 -0.137947 1.332468 0.606557 0.043935 -0.315964   # pos: pos   rot: anim
    29 1.719430 -0.000001 0.000001 0.012979 -0.087488 -0.294848   # pos: pos   rot: anim
    30 1.099664 -0.000002 0.000000 0.012979 -0.087480 -0.294836   # pos: pos   rot: anim
    31 0.806047 -0.348922 1.321261 -1.404045 -0.282255 -0.427077   # pos: pos   rot: anim
    32 1.789785 -0.000001 -0.000001 -0.000024 -0.000259 0.260046   # pos: pos   rot: anim
    33 1.206996 0.000001 0.000001 -0.000036 -0.000310 0.303713   # pos: pos   rot: anim
    34 2.033355 1.000770 -1.937608 -0.780559 1.311894 3.848964   # pos: pos   rot: anim
    35 6.028142 0.000002 0.000002 1.081961 0.519030 -0.996846   # pos: pos   rot: anim
    36 11.692554 -0.000001 0.000000 0.000000 0.000000 -2.020768   # pos: pos   rot: anim
    37 11.481698 0.000000 0.000002 -1.048467 0.170238 -0.310098   # pos: pos   rot: anim
    38 3.859674 -0.132570 1.193106 0.630261 0.016742 -0.184511   # pos: pos   rot: anim
    39 1.312563 0.000000 -0.000003 0.010750 -0.071444 -0.299029   # pos: pos   rot: anim
    40 0.729364 0.000000 -0.000002 0.010750 -0.071438 -0.299007   # pos: pos   rot: anim
    41 3.942293 0.050328 0.431043 0.097557 0.063419 -0.321392   # pos: pos   rot: anim
    42 1.539101 -0.000001 -0.000001 0.003679 -0.023915 -0.306246   # pos: pos   rot: anim
    43 1.196322 -0.000001 0.000000 0.003691 -0.023925 -0.306466   # pos: pos   rot: anim
    44 3.883657 -0.050327 -0.431045 -0.145121 -0.030874 -0.322134   # pos: pos   rot: anim
    45 1.719577 0.000000 -0.000002 -0.003428 0.022227 -0.306429   # pos: pos   rot: anim
    46 1.209185 0.000001 0.000002 -0.003428 0.022229 -0.306367   # pos: pos   rot: anim
    47 3.859829 -0.148935 -1.331282 -0.301100 0.028428 -0.208348   # pos: pos   rot: anim
    48 1.719424 -0.000002 -0.000002 -0.012656 0.085117 -0.295505   # pos: pos   rot: anim
    49 1.099666 0.000001 -0.000001 -0.012656 0.085110 -0.295484   # pos: pos   rot: anim
    50 0.806018 -0.359834 -1.318334 1.401911 0.278805 -0.429216   # pos: pos   rot: anim
    51 1.789781 0.000001 0.000000 0.000216 0.001729 0.260038   # pos: pos   rot: anim
    52 1.206999 0.000000 0.000000 0.000300 0.002007 0.303704   # pos: pos   rot: anim
    53 3.202717 -1.851488 0.187593 0.000000 0.000000 0.000000   # pos: pos   rot: rot
  time 11
    0 3.446975 4.648584 24.472737 1.990716 0.146166 0.698167   # pos: anim   rot: anim
    1 3.890453 -0.000005 -0.000002 -3.647047 -0.689421 0.209637   # pos: pos   rot: anim
    2 17.848175 -0.000001 0.000000 0.000000 0.000000 1.589263   # pos: pos   rot: anim
    3 16.525255 0.000000 0.000000 0.010192 -0.255419 -1.257117   # pos: pos   rot: anim
    4 6.879455 0.000000 0.000000 -0.007299 -0.002627 -0.584373   # pos: pos   rot: anim
    5 -3.890452 0.000006 0.000007 -0.580443 -1.085998 -2.665928   # pos: pos   rot: anim
    6 17.848175 0.000000 -0.000003 0.000000 0.000000 1.825800   # pos: pos   rot: anim
    7 16.525255 0.000000 0.000001 0.149706 0.240229 -1.222906   # pos: pos   rot: anim
    8 6.879455 0.000001 0.000001 -0.081333 -0.002951 -0.584373   # pos: pos   rot: rot
    9 -0.304692 3.333409 -2.981901 1.570796 -0.170220 1.662077   # pos: anim   rot: anim
    10 4.018333 -0.000001 0.000000 -0.075263 -0.123046 0.185843   # pos: pos   rot: anim
    11 3.518568 0.000000 0.000001 0.214892 -0.105261 0.426300   # pos: pos   rot: anim
    12 8.942642 -0.000003 0.000000 -0.028511 -0.122914 0.209904   # pos: pos   rot: anim
    13 3.307274 0.000000 0.000001 3.141590 0.000000 0.691897   # pos: pos   rot: anim
    14 3.593711 0.000000 0.000000 1.224581 0.517025 1.075346   # pos: pos   rot: anim
    15 2.033350 1.000766 1.937662 2.846467 -1.259463 1.679320   # pos: pos   rot: anim
    16 6.028144 0.000001 -0.000001 -1.928486 -0.954854 -0.318031   # pos: pos   rot: anim
    17 11.692554 0.000000 0.000002 0.000000 0.000000 -1.772784   # pos: pos   rot: anim
    18 11.481671 0.000000 -0.000032 1.043029 -0.138646 0.231038   # pos: pos   rot: anim
    19 3.859702 -0.142406 -1.191973 -0.630885 -0.018267 -0.184354   # pos: pos   rot: anim
    20 1.312561 0.000001 0.000000 -0.010435 0.069216 -0.299521   # pos: pos   rot: anim
    21 0.729362 0.000000 -0.000002 -0.010427 0.069220 -0.299497   # pos: pos   rot: anim
    22 3.942326 0.046770 -0.431442 -0.097248 -0.066041 -0.320850   # pos: pos   rot: anim
    23 1.539095 0.000002 -0.000001 -0.003296 0.021430 -0.306416   # pos: pos   rot: anim
    24 1.196322 -0.000003 -0.000003 -0.003308 0.021443 -0.306671   # pos: pos   rot: anim
    25 3.883687 -0.046772 0.431444 0.145549 0.028242 -0.322375   # pos: pos   rot: anim
    26 1.719577 0.000003 -0.000002 0.003811 -0.024733 -0.306217   # pos: pos   rot: anim
    27 1.209182 0.000000 -0.000001 0.003811 -0.024732 -0.306182   # pos: pos   rot: anim
    28 3.859861 -0.137947 1.332468 0.606557 0.043935 -0.315964   # pos: pos   rot: anim
    29 1.719430 -0.000001 0.000001 0.012979 -0.087488 -0.294848   # pos: pos   rot: anim
    30 1.099664 -0.000002 0.000000 0.012979 -0.087480 -0.294836   # pos: pos   rot: anim
    31 0.806047 -0.348922 1.321261 -1.404045 -0.282255 -0.427077   # pos: pos   rot: anim
    32 1.789785 -0.000001 -0.000001 -0.000024 -0.000259 0.260046   # pos: pos   rot: anim
    33 1.206996 0.000001 0.000001 -0.000048 -0.000310 0.303713   # pos: pos   rot: anim
    34 2.033355 1.000770 -1.937608 -0.604981 1.269518 4.028634   # pos: pos   rot: anim
    35 6.028142 0.000002 0.000002 1.103165 0.370429 -1.106080   # pos: pos   rot: anim
    36 11.692554 -0.000001 0.000000 0.000000 0.000000 -1.986782   # pos: pos   rot: anim
    37 11.481698 0.000000 0.000002 -1.059642 0.022673 -0.457528   # pos: pos   rot: anim
    38 3.859674 -0.132570 1.193106 0.630261 0.016742 -0.184511   # pos: pos   rot: anim
    39 1.312563 0.000000 -0.000003 0.010750 -0.071444 -0.299029   # pos: pos   rot: anim
    40 0.729364 0.000000 -0.000002 0.010750 -0.071438 -0.299007   # pos: pos   rot: anim
    41 3.942293 0.050328 0.431043 0.097557 0.063419 -0.321392   # pos: pos   rot: anim
    42 1.539101 -0.000001 -0.000001 0.003679 -0.023915 -0.306246   # pos: pos   rot: anim
    43 1.196322 -0.000001 0.000000 0.003691 -0.023925 -0.306466   # pos: pos   rot: anim
    44 3.883657 -0.050327 -0.431045 -0.145121 -0.030874 -0.322134   # pos: pos   rot: anim
    45 1.719577 0.000000 -0.000002 -0.003428 0.022227 -0.306429   # pos: pos   rot: anim
    46 1.209185 0.000001 0.000002 -0.003428 0.022229 -0.306367   # pos: pos   rot: anim
    47 3.859829 -0.148935 -1.331282 -0.266320 0.036829 -0.196119   # pos: pos   rot: anim
    48 1.719424 -0.000002 -0.000002 -0.012656 0.085117 -0.295505   # pos: pos   rot: anim
    49 1.099666 0.000001 -0.000001 -0.012656 0.085110 -0.295484   # pos: pos   rot: anim
    50 0.806018 -0.359834 -1.318334 1.401911 0.278805 -0.429216   # pos: pos   rot: anim
    51 1.789781 0.000001 0.000000 0.000216 0.001729 0.260038   # pos: pos   rot: anim
    52 1.206999 0.000000 0.000000 0.000300 0.002007 0.303704   # pos: pos   rot: anim
    53 3.202717 -1.851488 0.187593 0.000000 0.000000 0.000000   # pos: pos   rot: rot
  time 12
    0 0.919554 5.531424 24.086007 2.001374 0.171987 0.536533   # pos: anim   rot: anim
    1 3.890453 -0.000005 -0.000002 -3.561163 -0.667055 0.260895   # pos: pos   rot: anim
    2 17.848175 -0.000001 0.000000 0.000000 0.000000 1.667474   # pos: pos   rot: anim
    3 16.525255 0.000000 0.000000 0.093202 0.047027 -1.308286   # pos: pos   rot: anim
    4 6.879455 0.000000 0.000000 -0.007299 -0.002759 -0.584373   # pos: pos   rot: anim
    5 -3.890452 0.000006 0.000007 -0.274341 -0.870540 -2.812994   # pos: pos   rot: anim
    6 17.848175 0.000000 -0.000003 0.000000 0.000000 1.703493   # pos: pos   rot: anim
    7 16.525255 0.000000 0.000001 0.127402 -0.071962 -1.290360   # pos: pos   rot: anim
    8 6.879455 0.000001 0.000001 -0.081333 -0.002951 -0.584373   # pos: pos   rot: rot
    9 -0.312505 3.333409 -2.981901 1.570796 -0.185686 1.664861   # pos: anim   rot: anim
    10 4.018333 -0.000001 0.000000 -0.061325 -0.134695 0.187470   # pos: pos   rot: anim
    11 3.518568 0.000000 0.000001 0.259427 -0.097998 0.427859   # pos: pos   rot: anim
    12 8.942642 -0.000003 0.000000 -0.041299 -0.132550 0.204630   # pos: pos   rot: anim
    13 3.307274 0.000000 0.000001 3.141590 0.000000 0.717124   # pos: pos   rot: anim
    14 3.593711 0.000000 0.000000 1.052303 0.479401 1.124992   # pos: pos   rot: anim
    15 2.033350 1.000766 1.937662 2.822813 -1.230958 1.699344   # pos: pos   rot: anim
    16 6.028144 0.000001 -0.000001 -1.781577 -0.958815 -0.397828   # pos: pos   rot: anim
    17 11.692554 0.000000 0.000002 0.000000 0.000000 -1.781296   # pos: pos   rot: anim
    18 11.481671 0.000000 -0.000032 1.073648 -0.154030 0.225110   # pos: pos   rot: anim
    19 3.859702 -0.142406 -1.191973 -0.630885 -0.018267 -0.184354   # pos: pos   rot: anim
    20 1.312561 0.000001 0.000000 -0.010435 0.069216 -0.299521   # pos: pos   rot: anim
    21 0.729362 0.000000 -0.000002 -0.010427 0.069220 -0.299497   # pos: pos   rot: anim
    22 3.942326 0.046770 -0.431442 -0.097248 -0.066041 -0.320850   # pos: pos   rot: anim
    23 1.539095 0.000002 -0.000001 -0.003296 0.021430 -0.306416   # pos: pos   rot: anim
    24 1.196322 -0.000003 -0.000003 -0.003308 0.021443 -0.306671   # pos: pos   rot: anim
    25 3.883687 -0.046772 0.431444 0.145549 0.028242 -0.322375   # pos: pos   rot: anim
    26 1.719577 0.000003 -0.000002 0.003811 -0.024733 -0.306217   # pos: pos   rot: anim
    27 1.209182 0.000000 -0.000001 0.003811 -0.024732 -0.306182   # pos: pos   rot: anim
    28 3.859861 -0.137947 1.332468 0.606557 0.043935 -0.315964   # pos: pos   rot: anim
    29 1.719430 -0.000001 0.000001 0.012979 -0.087488 -0.294848   # pos: pos   rot: anim
    30 1.099664 -0.000002 0.000000 0.012979 -0.087480 -0.294836   # pos: pos   rot: anim
    31 0.806047 -0.348922 1.321261 -1.404045 -0.282255 -0.427077   # pos: pos   rot: anim
    32 1.789785 -0.000001 -0.000001 -0.000024 -0.000259 0.260046   # pos: pos   rot: anim
    33 1.206996 0.000001 0.000001 -0.000048 -0.000310 0.303713   # pos: pos   rot: anim
    34 2.033355 1.000770 -1.937608 -0.492607 1.227678 4.143945   # pos: pos   rot: anim
    35 6.028142 0.000002 0.000002 1.136080 0.264409 -1.183624   # pos: pos   rot: anim
    36 11.692554 -0.000001 0.000000 0.000000 0.000000 -1.941291   # pos: pos   rot: anim
    37 11.481698 0.000000 0.000002 -1.040950 -0.091167 -0.580955   # pos: pos   rot: anim
    38 3.859674 -0.132570 1.193106 0.630261 0.016742 -0.184511   # pos: pos   rot: anim
    39 1.312563 0.000000 -0.000003 0.010750 -0.071444 -0.299029   # pos: pos   rot: anim
    40 0.729364 0.000000 -0.000002 0.010750 -0.071438 -0.299007   # pos: pos   rot: anim
    41 3.942293 0.050328 0.431043 0.097557 0.063419 -0.321392   # pos: pos   rot: anim
    42 1.539101 -0.000001 -0.000001 0.003679 -0.023915 -0.306246   # pos: pos   rot: anim
    43 1.196322 -0.000001 0.000000 0.003691 -0.023925 -0.306466   # pos: pos   rot: anim
    44 3.883657 -0.050327 -0.431045 -0.145121 -0.030874 -0.322134   # pos: pos   rot: anim
    45 1.719577 0.000000 -0.000002 -0.003428 0.022227 -0.306429   # pos: pos   rot: anim
    46 1.209185 0.000001 0.000002 -0.003428 0.022229 -0.306367   # pos: pos   rot: anim
    47 3.859829 -0.148935 -1.331282 -0.236658 0.043948 -0.185659   # pos: pos   rot: anim
    48 1.719424 -0.000002 -0.000002 -0.012656 0.085117 -0.295505   # pos: pos   rot: anim
    49 1.099666 0.000001 -0.000001 -0.012656 0.085110 -0.295484   # pos: pos   rot: anim
    50 0.806018 -0.359834 -1.318334 1.401911 0.278805 -0.429216   # pos: pos   rot: anim
    51 1.789781 0.000001 0.000000 0.000216 0.001729 0.260038   # pos: pos   rot: anim
    52 1.206999 0.000000 0.000000 0.000300 0.002007 0.303704   # pos: pos   rot: anim
    53 3.202717 -1.851488 0.187593 0.000000 0.000000 0.000000   # pos: pos   rot: rot
  time 13
    0 -1.037537 6.211132 23.785216 2.005084 0.192668 0.410532   # pos: anim   rot: anim
    1 3.890453 -0.000005 -0.000002 -3.336294 -0.883031 0.350619   # pos: pos   rot: anim
    2 17.848175 -0.000001 0.000000 0.000000 0.000000 1.751364   # pos: pos   rot: anim
    3 16.525255 0.000000 0.000000 -0.025559 0.202313 -1.456356   # pos: pos   rot: anim
    4 6.879455 0.000000 0.000000 -0.007299 -0.002867 -0.584373   # pos: pos   rot: anim
    5 -3.890452 0.000006 0.000007 -0.184302 -0.825935 -2.834825   # pos: pos   rot: anim
    6 17.848175 0.000000 -0.000003 0.000000 0.000000 1.611498   # pos: pos   rot: anim
    7 16.525255 0.000000 0.000001 0.269100 -0.185672 -1.377728   # pos: pos   rot: anim
    8 6.879455 0.000001 0.000001 -0.081333 -0.002951 -0.584373   # pos: pos   rot: rot
    9 -0.320317 3.333409 -2.981901 1.570796 -0.197700 1.667048   # pos: anim   rot: anim
    10 4.018333 -0.000001 0.000000 -0.050503 -0.143731 0.188732   # pos: pos   rot: anim
    11 3.518568 0.000000 0.000001 0.293989 -0.092341 0.428981   # pos: pos   rot: anim
    12 8.942642 -0.000003 0.000000 -0.051222 -0.140028 0.200532   # pos: pos   rot: anim
    13 3.307274 0.000000 0.000001 3.141590 0.000000 0.736710   # pos: pos   rot: anim
    14 3.593711 0.000000 0.000000 0.828972 0.368166 1.212733   # pos: pos   rot: anim
    15 2.033350 1.000766 1.937662 2.806820 -1.208775 1.712279   # pos: pos   rot: anim
    16 6.028144 0.000001 -0.000001 -1.664776 -0.956663 -0.465010   # pos: pos   rot: anim
    17 11.692554 0.000000 0.000002 0.000000 0.000000 -1.783045   # pos: pos   rot: anim
    18 11.481671 0.000000 -0.000032 1.099138 -0.164287 0.218187   # pos: pos   rot: anim
    19 3.859702 -0.142406 -1.191973 -0.630885 -0.018267 -0.184354   # pos: pos   rot: anim
    20 1.312561 0.000001 0.000000 -0.010435 0.069216 -0.299521   # pos: pos   rot: anim
    21 0.729362 0.000000 -0.000002 -0.010427 0.069220 -0.299497   # pos: pos   rot: anim
    22 3.942326 0.046770 -0.431442 -0.097248 -0.066041 -0.320850   # pos: pos   rot: anim
    23 1.539095 0.000002 -0.000001 -0.003296 0.021430 -0.306416   # pos: pos   rot: anim
    24 1.196322 -0.000003 -0.000003 -0.003308 0.021443 -0.306671   # pos: pos   rot: anim
    25 3.883687 -0.046772 0.431444 0.145549 0.028242 -0.322375   # pos: pos   rot: anim
    26 1.719577 0.000003 -0.000002 0.003811 -0.024733 -0.306217   # pos: pos   rot: anim
    27 1.209182 0.000000 -0.000001 0.003811 -0.024732 -0.306182   # pos: pos   rot: anim
    28 3.859861 -0.137947 1.332468 0.606557 0.043935 -0.315964   # pos: pos   rot: anim
    29 1.719430 -0.000001 0.000001 0.012979 -0.087488 -0.294848   # pos: pos   rot: anim
    30 1.099664 -0.000002 0.000000 0.012979 -0.087480 -0.294836   # pos: pos   rot: anim
    31 0.806047 -0.348922 1.321261 -1.404045 -0.282255 -0.427077   # pos: pos   rot: anim
    32 1.789785 -0.000001 -0.000001 -0.000024 -0.000259 0.260046   # pos: pos   rot: anim
    33 1.206996 0.000001 0.000001 -0.000048 -0.000310 0.303713   # pos: pos   rot: anim
    34 2.033355 1.000770 -1.937608 -0.423197 1.192729 4.215296   # pos: pos   rot: anim
    35 6.028142 0.000002 0.000002 1.155865 0.204071 -1.217923   # pos: pos   rot: anim
    36 11.692554 -0.000001 0.000000 0.000000 0.000000 -1.896100   # pos: pos   rot: anim
    37 11.481698 0.000000 0.000002 -1.014741 -0.145126 -0.676430   # pos: pos   rot: anim
    38 3.859674 -0.132570 1.193106 0.630261 0.016742 -0.184511   # pos: pos   rot: anim
    39 1.312563 0.000000 -0.000003 0.010750 -0.071444 -0.299029   # pos: pos   rot: anim
    40 0.729364 0.000000 -0.000002 0.010750 -0.071438 -0.299007   # pos: pos   rot: anim
    41 3.942293 0.050328 0.431043 0.097557 0.063419 -0.321392   # pos: pos   rot: anim
    42 1.539101 -0.000001 -0.000001 0.003679 -0.023915 -0.306246   # pos: pos   rot: anim
    43 1.196322 -0.000001 0.000000 0.003691 -0.023925 -0.306466   # pos: pos   rot: anim
    44 3.883657 -0.050327 -0.431045 -0.145121 -0.030874 -0.322134   # pos: pos   rot: anim
    45 1.719577 0.000000 -0.000002 -0.003428 0.022227 -0.306429   # pos: pos   rot: anim
    46 1.209185 0.000001 0.000002 -0.003428 0.022229 -0.306367   # pos: pos   rot: anim
    47 3.859829 -0.148935 -1.331282 -0.213624 0.049473 -0.177541   # pos: pos   rot: anim
    48 1.719424 -0.000002 -0.000002 -0.012656 0.085117 -0.295505   # pos: pos   rot: anim
    49 1.099666 0.000001 -0.000001 -0.012656 0.085110 -0.295484   # pos: pos   rot: anim
    50 0.806018 -0.359834 -1.318334 1.401911 0.278805 -0.429216   # pos: pos   rot: anim
    51 1.789781 0.000001 0.000000 0.000216 0.001729 0.260038   # pos: pos   rot: anim
    52 1.206999 0.000000 0.000000 0.000300 0.002007 0.303704   # pos: pos   rot: anim
    53 3.202717 -1.851488 0.187593 0.000000 0.000000 0.000000   # pos: pos   rot: rot
  time 14
    0 -2.303200 6.652552 23.589898 2.005261 0.205989 0.328622   # pos: anim   rot: anim
    1 3.890453 -0.000005 -0.000002 -3.127625 -1.106741 0.346515   # pos: pos   rot: anim
    2 17.848175 -0.000001 0.000000 0.000000 0.000000 1.813751   # pos: pos   rot: anim
    3 16.525255 0.000000 0.000000 -0.093798 0.253229 -1.617763   # pos: pos   rot: anim
    4 6.879455 0.000000 0.000000 -0.007299 -0.002939 -0.584373   # pos: pos   rot: anim
    5 -3.890452 0.000006 0.000007 -0.120784 -0.862703 -2.864813   # pos: pos   rot: anim
    6 17.848175 0.000000 -0.000003 0.000000 0.000000 1.593295   # pos: pos   rot: anim
    7 16.525255 0.000000 0.000001 0.300699 -0.186884 -1.409516   # pos: pos   rot: anim
    8 6.879455 0.000001 0.000001 -0.081333 -0.002951 -0.584373   # pos: pos   rot: rot
    9 -0.324224 3.329502 -2.981901 1.570796 -0.205467 1.668441   # pos: anim   rot: anim
    10 4.018333 -0.000001 0.000000 -0.043504 -0.149580 0.189562   # pos: pos   rot: anim
    11 3.518568 0.000000 0.000001 0.316350 -0.088662 0.429665   # pos: pos   rot: anim
    12 8.942642 -0.000003 0.000000 -0.057646 -0.144870 0.197883   # pos: pos   rot: anim
    13 3.307274 0.000000 0.000001 3.141590 0.000000 0.749389   # pos: pos   rot: anim
    14 3.593711 0.000000 0.000000 0.643220 0.247227 1.302115   # pos: pos   rot: anim
    15 2.033350 1.000766 1.937662 2.797340 -1.194365 1.719656   # pos: pos   rot: anim
    16 6.028144 0.000001 -0.000001 -1.588884 -0.952556 -0.510422   # pos: pos   rot: anim
    17 11.692554 0.000000 0.000002 0.000000 0.000000 -1.781904   # pos: pos   rot: anim
    18 11.481671 0.000000 -0.000032 1.116342 -0.169935 0.212626   # pos: pos   rot: anim
    19 3.859702 -0.142406 -1.191973 -0.630885 -0.018267 -0.184354   # pos: pos   rot: anim
    20 1.312561 0.000001 0.000000 -0.010435 0.069216 -0.299521   # pos: pos   rot: anim
    21 0.729362 0.000000 -0.000002 -0.010427 0.069220 -0.299497   # pos: pos   rot: anim
    22 3.942326 0.046770 -0.431442 -0.097248 -0.066041 -0.320850   # pos: pos   rot: anim
    23 1.539095 0.000002 -0.000001 -0.003296 0.021430 -0.306416   # pos: pos   rot: anim
    24 1.196322 -0.000003 -0.000003 -0.003308 0.021443 -0.306671   # pos: pos   rot: anim
    25 3.883687 -0.046772 0.431444 0.145549 0.028242 -0.322375   # pos: pos   rot: anim
    26 1.719577 0.000003 -0.000002 0.003811 -0.024733 -0.306217   # pos: pos   rot: anim
    27 1.209182 0.000000 -0.000001 0.003811 -0.024732 -0.306182   # pos: pos   rot: anim
    28 3.859861 -0.137947 1.332468 0.606557 0.043935 -0.315964   # pos: pos   rot: anim
    29 1.719430 -0.000001 0.000001 0.012979 -0.087488 -0.294848   # pos: pos   rot: anim
    30 1.099664 -0.000002 0.000000 0.012979 -0.087480 -0.294836   # pos: pos   rot: anim
    31 0.806047 -0.348922 1.321261 -1.404045 -0.282255 -0.427077   # pos: pos   rot: anim
    32 1.789785 -0.000001 -0.000001 -0.000024 -0.000259 0.260046   # pos: pos   rot: anim
    33 1.206996 0.000001 0.000001 -0.000048 -0.000310 0.303713   # pos: pos   rot: anim
    34 2.033355 1.000770 -1.937608 -0.384912 1.169292 4.254658   # pos: pos   rot: anim
    35 6.028142 0.000002 0.000002 1.162341 0.174810 -1.228362   # pos: pos   rot: anim
    36 11.692554 -0.000001 0.000000 0.000000 0.000000 -1.862640   # pos: pos   rot: anim
    37 11.481698 0.000000 0.000002 -0.996248 -0.162729 -0.737702   # pos: pos   rot: anim
    38 3.859674 -0.132570 1.193106 0.630261 0.016742 -0.184511   # pos: pos   rot: anim
    39 1.312563 0.000000 -0.000003 0.010750 -0.071444 -0.299029   # pos: pos   rot: anim
    40 0.729364 0.000000 -0.000002 0.010750 -0.071438 -0.299007   # pos: pos   rot: anim
    41 3.942293 0.050328 0.431043 0.097557 0.063419 -0.321392   # pos: pos   rot: anim
    42 1.539101 -0.000001 -0.000001 0.003679 -0.023915 -0.306246   # pos: pos   rot: anim
    43 1.196322 -0.000001 0.000000 0.003691 -0.023925 -0.306466   # pos: pos   rot: anim
    44 3.883657 -0.050327 -0.431045 -0.145121 -0.030874 -0.322134   # pos: pos   rot: anim
    45 1.719577 0.000000 -0.000002 -0.003428 0.022227 -0.306429   # pos: pos   rot: anim
    46 1.209185 0.000001 0.000002 -0.003428 0.022229 -0.306367   # pos: pos   rot: anim
    47 3.859829 -0.148935 -1.331282 -0.198715 0.053044 -0.172286   # pos: pos   rot: anim
    48 1.719424 -0.000002 -0.000002 -0.012656 0.085117 -0.295505   # pos: pos   rot: anim
    49 1.099666 0.000001 -0.000001 -0.012656 0.085110 -0.295484   # pos: pos   rot: anim
    50 0.806018 -0.359834 -1.318334 1.401911 0.278805 -0.429216   # pos: pos   rot: anim
    51 1.789781 0.000001 0.000000 0.000216 0.001729 0.260038   # pos: pos   rot: anim
    52 1.206999 0.000000 0.000000 0.000300 0.002007 0.303704   # pos: pos   rot: anim
    53 3.202717 -1.851488 0.187593 0.000000 0.000000 0.000000   # pos: pos   rot: rot
  time 15
    0 -2.756339 6.812713 23.519583 2.004907 0.210673 0.299450   # pos: anim   rot: anim
    1 3.890453 -0.000005 -0.000002 -3.071839 -1.154947 0.319216   # pos: pos   rot: anim
    2 17.848175 -0.000001 0.000000 0.000000 0.000000 1.837752   # pos: pos   rot: anim
    3 16.525255 0.000000 0.000000 -0.055250 0.300512 -1.666993   # pos: pos   rot: anim
    4 6.879455 0.000000 0.000000 -0.007299 -0.002951 -0.584373   # pos: pos   rot: anim
    5 -3.890452 0.000006 0.000007 -0.083619 -0.897466 -2.889985   # pos: pos   rot: anim
    6 17.848175 0.000000 -0.000003 0.000000 0.000000 1.608085   # pos: pos   rot: anim
    7 16.525255 0.000000 0.000001 0.276850 -0.177169 -1.406961   # pos: pos   rot: anim
    8 6.879455 0.000001 0.000001 -0.081333 -0.002951 -0.584373   # pos: pos   rot: rot
    9 -0.324224 3.329502 -2.981901 1.570796 -0.208225 1.668938   # pos: anim   rot: anim
    10 4.018333 -0.000001 0.000000 -0.041023 -0.151665 0.189845   # pos: pos   rot: anim
    11 3.518568 0.000000 0.000001 0.324294 -0.087356 0.429898   # pos: pos   rot: anim
    12 8.942642 -0.000003 0.000000 -0.059935 -0.146584 0.196948   # pos: pos   rot: anim
    13 3.307274 0.000000 0.000001 3.141590 0.000000 0.753897   # pos: pos   rot: anim
    14 3.593711 0.000000 0.000000 0.566137 0.190338 1.343396   # pos: pos   rot: anim
    15 2.033350 1.000766 1.937662 2.794179 -1.189261 1.722147   # pos: pos   rot: anim
    16 6.028144 0.000001 -0.000001 -1.562026 -0.950551 -0.526774   # pos: pos   rot: anim
    17 11.692554 0.000000 0.000002 0.000000 0.000000 -1.781068   # pos: pos   rot: anim
    18 11.481671 0.000000 -0.000032 1.122576 -0.171756 0.210417   # pos: pos   rot: anim
    19 3.859702 -0.142406 -1.191973 -0.630885 -0.018267 -0.184354   # pos: pos   rot: anim
    20 1.312561 0.000001 0.000000 -0.010435 0.069216 -0.299521   # pos: pos   rot: anim
    21 0.729362 0.000000 -0.000002 -0.010427 0.069220 -0.299497   # pos: pos   rot: anim
    22 3.942326 0.046770 -0.431442 -0.097248 -0.066041 -0.320850   # pos: pos   rot: anim
    23 1.539095 0.000002 -0.000001 -0.003296 0.021430 -0.306416   # pos: pos   rot: anim
    24 1.196322 -0.000003 -0.000003 -0.003308 0.021443 -0.306671   # pos: pos   rot: anim
    25 3.883687 -0.046772 0.431444 0.145549 0.028242 -0.322375   # pos: pos   rot: anim
    26 1.719577 0.000003 -0.000002 0.003811 -0.024733 -0.306217   # pos: pos   rot: anim
    27 1.209182 0.000000 -0.000001 0.003811 -0.024732 -0.306182   # pos: pos   rot: anim
    28 3.859861 -0.137947 1.332468 0.606557 0.043935 -0.315964   # pos: pos   rot: anim
    29 1.719430 -0.000001 0.000001 0.012979 -0.087488 -0.294848   # pos: pos   rot: anim
    30 1.099664 -0.000002 0.000000 0.012979 -0.087480 -0.294836   # pos: pos   rot: anim
    31 0.806047 -0.348922 1.321261 -1.404045 -0.282255 -0.427077   # pos: pos   rot: anim
    32 1.789785 -0.000001 -0.000001 -0.000024 -0.000259 0.260046   # pos: pos   rot: anim
    33 1.206996 0.000001 0.000001 -0.000048 -0.000310 0.303713   # pos: pos   rot: anim
    34 2.033355 1.000770 -1.937608 -0.372309 1.160833 4.267588   # pos: pos   rot: anim
    35 6.028142 0.000002 0.000002 1.163583 0.165835 -1.230599   # pos: pos   rot: anim
    36 11.692554 -0.000001 0.000000 0.000000 0.000000 -1.849933   # pos: pos   rot: anim
    37 11.481698 0.000000 0.000002 -0.989729 -0.166841 -0.759289   # pos: pos   rot: anim
    38 3.859674 -0.132570 1.193106 0.630261 0.016742 -0.184511   # pos: pos   rot: anim
    39 1.312563 0.000000 -0.000003 0.010750 -0.071444 -0.299029   # pos: pos   rot: anim
    40 0.729364 0.000000 -0.000002 0.010750 -0.071438 -0.299007   # pos: pos   rot: anim
    41 3.942293 0.050328 0.431043 0.097557 0.063419 -0.321392   # pos: pos   rot: anim
    42 1.539101 -0.000001 -0.000001 0.003679 -0.023915 -0.306246   # pos: pos   rot: anim
    43 1.196322 -0.000001 0.000000 0.003691 -0.023925 -0.306466   # pos: pos   rot: anim
    44 3.883657 -0.050327 -0.431045 -0.145121 -0.030874 -0.322134   # pos: pos   rot: anim
    45 1.719577 0.000000 -0.000002 -0.003428 0.022227 -0.306429   # pos: pos   rot: anim
    46 1.209185 0.000001 0.000002 -0.003428 0.022229 -0.306367   # pos: pos   rot: anim
    47 3.859829 -0.148935 -1.331282 -0.193406 0.054315 -0.170412   # pos: pos   rot: anim
    48 1.719424 -0.000002 -0.000002 -0.012656 0.085117 -0.295505   # pos: pos   rot: anim
    49 1.099666 0.000001 -0.000001 -0.012656 0.085110 -0.295484   # pos: pos   rot: anim
    50 0.806018 -0.359834 -1.318334 1.401911 0.278805 -0.429216   # pos: pos   rot: anim
    51 1.789781 0.000001 0.000000 0.000216 0.001729 0.260038   # pos: pos   rot: anim
    52 1.206999 0.000000 0.000000 0.000300 0.002007 0.303704   # pos: pos   rot: anim
    53 3.202717 -1.851488 0.187593 0.000000 0.000000 0.000000   # pos: pos   rot: rot
  time 16
    0 -2.756339 6.812713 23.519583 2.004907 0.210673 0.299450   # pos: anim   rot: anim
    1 3.890453 -0.000005 -0.000002 -3.071839 -1.154947 0.319216   # pos: pos   rot: anim
    2 17.848175 -0.000001 0.000000 0.000000 0.000000 1.837752   # pos: pos   rot: anim
    3 16.525255 0.000000 0.000000 -0.055250 0.300512 -1.666993   # pos: pos   rot: anim
    4 6.879455 0.000000 0.000000 -0.007299 -0.002951 -0.584373   # pos: pos   rot: anim
    5 -3.890452 0.000006 0.000007 -0.083619 -0.897466 -2.889985   # pos: pos   rot: anim
    6 17.848175 0.000000 -0.000003 0.000000 0.000000 1.608085   # pos: pos   rot: anim
    7 16.525255 0.000000 0.000001 0.276850 -0.177169 -1.406961   # pos: pos   rot: anim
    8 6.879455 0.000001 0.000001 -0.081333 -0.002951 -0.584373   # pos: pos   rot: rot
    9 -0.324224 3.329502 -2.981901 1.570796 -0.208225 1.668938   # pos: anim   rot: anim
    10 4.018333 -0.000001 0.000000 -0.041023 -0.151665 0.189845   # pos: pos   rot: anim
    11 3.518568 0.000000 0.000001 0.324294 -0.087356 0.429898   # pos: pos   rot: anim
    12 8.942642 -0.000003 0.000000 -0.059935 -0.146584 0.196948   # pos: pos   rot: anim
    13 3.307274 0.000000 0.000001 3.141590 0.000000 0.753897   # pos: pos   rot: anim
    14 3.593711 0.000000 0.000000 0.566137 0.190338 1.343396   # pos: pos   rot: anim
    15 2.033350 1.000766 1.937662 2.794179 -1.189261 1.722147   # pos: pos   rot: anim
    16 6.028144 0.000001 -0.000001 -1.562026 -0.950551 -0.526774   # pos: pos   rot: anim
    17 11.692554 0.000000 0.000002 0.000000 0.000000 -1.781068   # pos: pos   rot: anim
    18 11.481671 0.000000 -0.000032 1.122576 -0.171756 0.210417   # pos: pos   rot: anim
    19 3.859702 -0.142406 -1.191973 -0.630885 -0.018267 -0.184354   # pos: pos   rot: anim
    20 1.312561 0.000001 0.000000 -0.010435 0.069216 -0.299521   # pos: pos   rot: anim
    21 0.729362 0.000000 -0.000002 -0.010427 0.069220 -0.299497   # pos: pos   rot: anim
    22 3.942326 0.046770 -0.431442 -0.097248 -0.066041 -0.320850   # pos: pos   rot: anim
    23 1.539095 0.000002 -0.000001 -0.003296 0.021430 -0.306416   # pos: pos   rot: anim
    24 1.196322 -0.000003 -0.000003 -0.003308 0.021443 -0.306671   # pos: pos   rot: anim
    25 3.883687 -0.046772 0.431444 0.145549 0.028242 -0.322375   # pos: pos   rot: anim
    26 1.719577 0.000003 -0.000002 0.003811 -0.024733 -0.306217   # pos: pos   rot: anim
    27 1.209182 0.000000 -0.000001 0.003811 -0.024732 -0.306182   # pos: pos   rot: anim
    28 3.859861 -0.137947 1.332468 0.606557 0.043935 -0.315964   # pos: pos   rot: anim
    29 1.719430 -0.000001 0.000001 0.012979 -0.087488 -0.294848   # pos: pos   rot: anim
    30 1.099664 -0.000002 0.000000 0.012979 -0.087480 -0.294836   # pos: pos   rot: anim
    31 0.806047 -0.348922 1.321261 -1.404045 -0.282255 -0.427077   # pos: pos   rot: anim
    32 1.789785 -0.000001 -0.000001 -0.000024 -0.000259 0.260046   # pos: pos   rot: anim
    33 1.206996 0.000001 0.000001 -0.000048 -0.000310 0.303713   # pos: pos   rot: anim
    34 2.033355 1.000770 -1.937608 -0.372309 1.160833 4.267588   # pos: pos   rot: anim
    35 6.028142 0.000002 0.000002 1.163583 0.165835 -1.230599   # pos: pos   rot: anim
    36 11.692554 -0.000001 0.000000 0.000000 0.000000 -1.849933   # pos: pos   rot: anim
    37 11.481698 0.000000 0.000002 -0.989729 -0.166841 -0.759289   # pos: pos   rot: anim
    38 3.859674 -0.132570 1.193106 0.630261 0.016742 -0.184511   # pos: pos   rot: anim
    39 1.312563 0.000000 -0.000003 0.010750 -0.071444 -0.299029   # pos: pos   rot: anim
    40 0.729364 0.000000 -0.000002 0.010750 -0.071438 -0.299007   # pos: pos   rot: anim
    41 3.942293 0.050328 0.431043 0.097557 0.063419 -0.321392   # pos: pos   rot: anim
    42 1.539101 -0.000001 -0.000001 0.003679 -0.023915 -0.306246   # pos: pos   rot: anim
    43 1.196322 -0.000001 0.000000 0.003691 -0.023925 -0.306466   # pos: pos   rot: anim
    44 3.883657 -0.050327 -0.431045 -0.145121 -0.030874 -0.322134   # pos: pos   rot: anim
    45 1.719577 0.000000 -0.000002 -0.003428 0.022227 -0.306429   # pos: pos   rot: anim
    46 1.209185 0.000001 0.000002 -0.003428 0.022229 -0.306367   # pos: pos   rot: anim
    47 3.859829 -0.148935 -1.331282 -0.193406 0.054315 -0.170412   # pos: pos   rot: anim
    48 1.719424 -0.000002 -0.000002 -0.012656 0.085117 -0.295505   # pos: pos   rot: anim
    49 1.099666 0.000001 -0.000001 -0.012656 0.085110 -0.295484   # pos: pos   rot: anim
    50 0.806018 -0.359834 -1.318334 1.401911 0.278805 -0.429216   # pos: pos   rot: anim
    51 1.789781 0.000001 0.000000 0.000216 0.001729 0.260038   # pos: pos   rot: anim
    52 1.206999 0.000000 0.000000 0.000300 0.002007 0.303704   # pos: pos   rot: anim
    53 3.202717 -1.851488 0.187593 0.000000 0.000000 0.000000   # pos: pos   rot: rot
  time 17
    0 -2.756339 6.812713 23.519583 2.004907 0.210673 0.299450   # pos: anim   rot: anim
    1 3.890453 -0.000005 -0.000002 -3.071839 -1.154947 0.319216   # pos: pos   rot: anim
    2 17.848175 -0.000001 0.000000 0.000000 0.000000 1.837752   # pos: pos   rot: anim
    3 16.525255 0.000000 0.000000 -0.055250 0.300512 -1.666993   # pos: pos   rot: anim
    4 6.879455 0.000000 0.000000 -0.007299 -0.002951 -0.584373   # pos: pos   rot: anim
    5 -3.890452 0.000006 0.000007 -0.083619 -0.897466 -2.889985   # pos: pos   rot: anim
    6 17.848175 0.000000 -0.000003 0.000000 0.000000 1.608085   # pos: pos   rot: anim
    7 16.525255 0.000000 0.000001 0.276850 -0.177169 -1.406961   # pos: pos   rot: anim
    8 6.879455 0.000001 0.000001 -0.081333 -0.002951 -0.584373   # pos: pos   rot: rot
    9 -0.324224 3.329502 -2.981901 1.570796 -0.208225 1.668938   # pos: anim   rot: anim
    10 4.018333 -0.000001 0.000000 -0.041023 -0.151665 0.189845   # pos: pos   rot: anim
    11 3.518568 0.000000 0.000001 0.324294 -0.087356 0.429898   # pos: pos   rot: anim
    12 8.942642 -0.000003 0.000000 -0.059935 -0.146584 0.196948   # pos: pos   rot: anim
    13 3.307274 0.000000 0.000001 3.141590 0.000000 0.753897   # pos: pos   rot: anim
    14 3.593711 0.000000 0.000000 0.566137 0.190338 1.343396   # pos: pos   rot: anim
    15 2.033350 1.000766 1.937662 2.794179 -1.189261 1.722147   # pos: pos   rot: anim
    16 6.028144 0.000001 -0.000001 -1.562026 -0.950551 -0.526774   # pos: pos   rot: anim
    17 11.692554 0.000000 0.000002 0.000000 0.000000 -1.781068   # pos: pos   rot: anim
    18 11.481671 0.000000 -0.000032 1.122576 -0.171756 0.210417   # pos: pos   rot: anim
    19 3.859702 -0.142406 -1.191973 -0.630885 -0.018267 -0.184354   # pos: pos   rot: anim
    20 1.312561 0.000001 0.000000 -0.010435 0.069216 -0.299521   # pos: pos   rot: anim
    21 0.729362 0.000000 -0.000002 -0.010427 0.069220 -0.299497   # pos: pos   rot: anim
    22 3.942326 0.046770 -0.431442 -0.097248 -0.066041 -0.320850   # pos: pos   rot: anim
    23 1.539095 0.000002 -0.000001 -0.003296 0.021430 -0.306416   # pos: pos   rot: anim
    24 1.196322 -0.000003 -0.000003 -0.003308 0.021443 -0.306671   # pos: pos   rot: anim
    25 3.883687 -0.046772 0.431444 0.145549 0.028242 -0.322375   # pos: pos   rot: anim
    26 1.719577 0.000003 -0.000002 0.003811 -0.024733 -0.306217   # pos: pos   rot: anim
    27 1.209182 0.000000 -0.000001 0.003811 -0.024732 -0.306182   # pos: pos   rot: anim
    28 3.859861 -0.137947 1.332468 0.606557 0.043935 -0.315964   # pos: pos   rot: anim
    29 1.719430 -0.000001 0.000001 0.012979 -0.087488 -0.294848   # pos: pos   rot: anim
    30 1.099664 -0.000002 0.000000 0.012979 -0.087480 -0.294836   # pos: pos   rot: anim
    31 0.806047 -0.348922 1.321261 -1.404045 -0.282255 -0.427077   # pos: pos   rot: anim
    32 1.789785 -0.000001 -0.000001 -0.000024 -0.000259 0.260046   # pos: pos   rot: anim
    33 1.206996 0.000001 0.000001 -0.000048 -0.000310 0.303713   # pos: pos   rot: anim
    34 2.033355 1.000770 -1.937608 -0.372309 1.160833 4.267588   # pos: pos   rot: anim
    35 6.028142 0.000002 0.000002 1.163583 0.165835 -1.230599   # pos: pos   rot: anim
    36 11.692554 -0.000001 0.000000 0.000000 0.000000 -1.849933   # pos: pos   rot: anim
    37 11.481698 0.000000 0.000002 -0.989729 -0.166841 -0.759289   # pos: pos   rot: anim
    38 3.859674 -0.132570 1.193106 0.630261 0.016742 -0.184511   # pos: pos   rot: anim
    39 1.312563 0.000000 -0.000003 0.010750 -0.071444 -0.299029   # pos: pos   rot: anim
    40 0.729364 0.000000 -0.000002 0.010750 -0.071438 -0.299007   # pos: pos   rot: anim
    41 3.942293 0.050328 0.431043 0.097557 0.063419 -0.321392   # pos: pos   rot: anim
    42 1.539101 -0.000001 -0.000001 0.003679 -0.023915 -0.306246   # pos: pos   rot: anim
    43 1.196322 -0.000001 0.000000 0.003691 -0.023925 -0.306466   # pos: pos   rot: anim
    44 3.883657 -0.050327 -0.431045 -0.145121 -0.030874 -0.322134   # pos: pos   rot: anim
    45 1.719577 0.000000 -0.000002 -0.003428 0.022227 -0.306429   # pos: pos   rot: anim
    46 1.209185 0.000001 0.000002 -0.003428 0.022229 -0.306367   # pos: pos   rot: anim
    47 3.859829 -0.148935 -1.331282 -0.193406 0.054315 -0.170412   # pos: pos   rot: anim
    48 1.719424 -0.000002 -0.000002 -0.012656 0.085117 -0.295505   # pos: pos   rot: anim
    49 1.099666 0.000001 -0.000001 -0.012656 0.085110 -0.295484   # pos: pos   rot: anim
    50 0.806018 -0.359834 -1.318334 1.401911 0.278805 -0.429216   # pos: pos   rot: anim
    51 1.789781 0.000001 0.000000 0.000216 0.001729 0.260038   # pos: pos   rot: anim
    52 1.206999 0.000000 0.000000 0.000300 0.002007 0.303704   # pos: pos   rot: anim
    53 3.202717 -1.851488 0.187593 0.000000 0.000000 0.000000   # pos: pos   rot: rot
  time 18
    0 -2.756339 6.812713 23.519583 2.004907 0.210673 0.299450   # pos: anim   rot: anim
    1 3.890453 -0.000005 -0.000002 -3.071839 -1.154947 0.319216   # pos: pos   rot: anim
    2 17.848175 -0.000001 0.000000 0.000000 0.000000 1.837752   # pos: pos   rot: anim
    3 16.525255 0.000000 0.000000 -0.055250 0.300512 -1.666993   # pos: pos   rot: anim
    4 6.879455 0.000000 0.000000 -0.007299 -0.002951 -0.584373   # pos: pos   rot: anim
    5 -3.890452 0.000006 0.000007 -0.083619 -0.897466 -2.889985   # pos: pos   rot: anim
    6 17.848175 0.000000 -0.000003 0.000000 0.000000 1.608085   # pos: pos   rot: anim
    7 16.525255 0.000000 0.000001 0.276850 -0.177169 -1.406961   # pos: pos   rot: anim
    8 6.879455 0.000001 0.000001 -0.081333 -0.002951 -0.584373   # pos: pos   rot: rot
    9 -0.324224 3.329502 -2.981901 1.570796 -0.208225 1.668938   # pos: anim   rot: anim
    10 4.018333 -0.000001 0.000000 -0.041023 -0.151665 0.189845   # pos: pos   rot: anim
    11 3.518568 0.000000 0.000001 0.324294 -0.087356 0.429898   # pos: pos   rot: anim
    12 8.942642 -0.000003 0.000000 -0.059935 -0.146584 0.196948   # pos: pos   rot: anim
    13 3.307274 0.000000 0.000001 3.141590 0.000000 0.753897   # pos: pos   rot: anim
    14 3.593711 0.000000 0.000000 0.566137 0.190338 1.343396   # pos: pos   rot: anim
    15 2.033350 1.000766 1.937662 2.794179 -1.189261 1.722147   # pos: pos   rot: anim
    16 6.028144 0.000001 -0.000001 -1.562026 -0.950551 -0.526774   # pos: pos   rot: anim
    17 11.692554 0.000000 0.000002 0.000000 0.000000 -1.781068   # pos: pos   rot: anim
    18 11.481671 0.000000 -0.000032 1.122576 -0.171756 0.210417   # pos: pos   rot: anim
    19 3.859702 -0.142406 -1.191973 -0.630885 -0.018267 -0.184354   # pos: pos   rot: anim
    20 1.312561 0.000001 0.000000 -0.010435 0.069216 -0.299521   # pos: pos   rot: anim
    21 0.729362 0.000000 -0.000002 -0.010427 0.069220 -0.299497   # pos: pos   rot: anim
    22 3.942326 0.046770 -0.431442 -0.097248 -0.066041 -0.320850   # pos: pos   rot: anim
    23 1.539095 0.000002 -0.000001 -0.003296 0.021430 -0.306416   # pos: pos   rot: anim
    24 1.196322 -0.000003 -0.000003 -0.003308 0.021443 -0.306671   # pos: pos   rot: anim
    25 3.883687 -0.046772 0.431444 0.145549 0.028242 -0.322375   # pos: pos   rot: anim
    26 1.719577 0.000003 -0.000002 0.003811 -0.024733 -0.306217   # pos: pos   rot: anim
    27 1.209182 0.000000 -0.000001 0.003811 -0.024732 -0.306182   # pos: pos   rot: anim
    28 3.859861 -0.137947 1.332468 0.606557 0.043935 -0.315964   # pos: pos   rot: anim
    29 1.719430 -0.000001 0.000001 0.012979 -0.087488 -0.294848   # pos: pos   rot: anim
    30 1.099664 -0.000002 0.000000 0.012979 -0.087480 -0.294836   # pos: pos   rot: anim
    31 0.806047 -0.348922 1.321261 -1.404045 -0.282255 -0.427077   # pos: pos   rot: anim
    32 1.789785 -0.000001 -0.000001 -0.000024 -0.000259 0.260046   # pos: pos   rot: anim
    33 1.206996 0.000001 0.000001 -0.000048 -0.000310 0.303713   # pos: pos   rot: anim
    34 2.033355 1.000770 -1.937608 -0.372309 1.160833 4.267588   # pos: pos   rot: anim
    35 6.028142 0.000002 0.000002 1.163583 0.165835 -1.230599   # pos: pos   rot: anim
    36 11.692554 -0.000001 0.000000 0.000000 0.000000 -1.849933   # pos: pos   rot: anim
    37 11.481698 0.000000 0.000002 -0.989729 -0.166841 -0.759289   # pos: pos   rot: anim
    38 3.859674 -0.132570 1.193106 0.630261 0.016742 -0.184511   # pos: pos   rot: anim
    39 1.312563 0.000000 -0.000003 0.010750 -0.071444 -0.299029   # pos: pos   rot: anim
    40 0.729364 0.000000 -0.000002 0.010750 -0.071438 -0.299007   # pos: pos   rot: anim
    41 3.942293 0.050328 0.431043 0.097557 0.063419 -0.321392   # pos: pos   rot: anim
    42 1.539101 -0.000001 -0.000001 0.003679 -0.023915 -0.306246   # pos: pos   rot: anim
    43 1.196322 -0.000001 0.000000 0.003691 -0.023925 -0.306466   # pos: pos   rot: anim
    44 3.883657 -0.050327 -0.431045 -0.145121 -0.030874 -0.322134   # pos: pos   rot: anim
    45 1.719577 0.000000 -0.000002 -0.003428 0.022227 -0.306429   # pos: pos   rot: anim
    46 1.209185 0.000001 0.000002 -0.003428 0.022229 -0.306367   # pos: pos   rot: anim
    47 3.859829 -0.148935 -1.331282 -0.193406 0.054315 -0.170412   # pos: pos   rot: anim
    48 1.719424 -0.000002 -0.000002 -0.012656 0.085117 -0.295505   # pos: pos   rot: anim
    49 1.099666 0.000001 -0.000001 -0.012656 0.085110 -0.295484   # pos: pos   rot: anim
    50 0.806018 -0.359834 -1.318334 1.401911 0.278805 -0.429216   # pos: pos   rot: anim
    51 1.789781 0.000001 0.000000 0.000216 0.001729 0.260038   # pos: pos   rot: anim
    52 1.206999 0.000000 0.000000 0.000300 0.002007 0.303704   # pos: pos   rot: anim
    53 3.202717 -1.851488 0.187593 0.000000 0.000000 0.000000   # pos: pos   rot: rot
end
